<?xml version="1.0" standalone="no"?>
<!DOCTYPE svg PUBLIC "-//W3C//DTD SVG 1.1//EN" "http://www.w3.org/Graphics/SVG/1.1/DTD/svg11.dtd" >
<svg xmlns="http://www.w3.org/2000/svg">
<metadata>
This is a custom SVG webfont generated by Font Squirrel.
Copyright   : Copyright c 2008 by Process Type Foundry All rights reserved
Designer    : Eric Olson
Foundry     : Process Type Foundry
Foundry URL : httpwwwprocesstypefoundrycom
</metadata>
<defs>
<font id="BryantMediumCondensed" horiz-adv-x="512" >
<font-face units-per-em="2048" ascent="1536" descent="-512" />
<missing-glyph horiz-adv-x="522" />
<glyph unicode=" "  horiz-adv-x="522" />
<glyph unicode="&#x09;" horiz-adv-x="522" />
<glyph unicode="&#xa0;" horiz-adv-x="522" />
<glyph unicode="!" horiz-adv-x="540" d="M154 100q0 47 34.5 82t81.5 35t82 -35t35 -82t-35 -81.5t-82 -34.5t-81.5 34.5t-34.5 81.5zM180 762v528q0 39 24.5 64.5t65.5 25.5t65.5 -25.5t24.5 -64.5v-528l-47 -371q-8 -45 -43 -45q-37 0 -45 45z" />
<glyph unicode="&#x22;" horiz-adv-x="759" d="M123 922v381q0 33 22.5 55t55 22t55.5 -22.5t23 -54.5v-381q0 -33 -23 -55.5t-55.5 -22.5t-55 22.5t-22.5 55.5zM481 922v381q0 33 22.5 55t55.5 22t55.5 -22.5t22.5 -54.5v-381q0 -33 -22.5 -55.5t-55.5 -22.5t-55.5 22.5t-22.5 55.5z" />
<glyph unicode="#" horiz-adv-x="1353" d="M92 440q0 72 74 72h162l39 360h-160q-27 0 -45.5 18.5t-18.5 45.5q0 72 76 72h164l31 299q8 74 80 73q37 0 53 -23.5t12 -56.5l-33 -292h381l31 297q8 76 78 75q74 0 67 -80l-30 -292h164q27 0 43 -17.5t16 -46.5q0 -31 -19.5 -51.5t-52.5 -20.5h-168l-37 -360h162 q27 0 45.5 -17.5t18.5 -45.5q0 -31 -20.5 -50.5t-53.5 -19.5h-166l-35 -318q-8 -78 -80 -77q-35 0 -52 22.5t-13 56.5l35 316h-381l-33 -322q-6 -74 -80 -73q-35 0 -52.5 24.5t-12.5 61.5l32 309h-153q-29 0 -48.5 17t-19.5 44zM473 512h381l37 360h-379z" />
<glyph unicode="$" horiz-adv-x="1107" d="M123 246q0 31 18.5 50t46.5 19q33 0 101 -45q127 -90 272 -90q121 0 186.5 50.5t65.5 127.5q0 84 -63.5 137.5t-239.5 127.5q-209 88 -288 176t-79 223q0 133 95.5 215t263.5 98v176q0 31 20.5 52.5t53 21.5t53 -21.5t20.5 -52.5v-178q92 -6 189 -47q131 -55 131 -119 q0 -33 -18.5 -54t-53.5 -21q-25 0 -49 14q-154 82 -275 82q-117 0 -185.5 -43t-68.5 -121q0 -88 54.5 -135t226.5 -125q92 -41 140 -65.5t104.5 -61.5t82 -71t44 -84t18.5 -111q0 -139 -94 -228.5t-262 -111.5v-178q0 -31 -20.5 -52.5t-53.5 -21.5t-53.5 21.5t-20.5 52.5 v176q-129 16 -239 77q-123 66 -123 140z" />
<glyph unicode="%" horiz-adv-x="1607" d="M113 1055q0 137 85 235.5t226 98.5t226 -98.5t85 -235.5t-85 -235.5t-226 -98.5t-226 98.5t-85 235.5zM262 1055q0 -88 43 -145.5t119 -57.5t119 57.5t43 145.5t-43 145t-119 57t-119 -57t-43 -145zM340 41q0 25 18 51l793 1262q23 35 59 35q31 0 50.5 -18.5t19.5 -49.5 q0 -23 -18 -51l-793 -1262q-23 -33 -57 -33q-31 0 -51.5 18.5t-20.5 47.5zM883 309q0 137 85 235.5t226 98.5t226 -98.5t85 -235.5t-85 -235.5t-226 -98.5t-226 98.5t-85 235.5zM1032 309q0 -88 43 -145.5t119 -57.5t119 57.5t43 145.5t-43 145.5t-119 57.5t-119 -57.5 t-43 -145.5z" />
<glyph unicode="&#x26;" horiz-adv-x="1419" d="M123 330q0 145 91 247.5t253 188.5q-135 186 -135 332q0 133 81 212t222 79q125 0 202.5 -74t77.5 -205q0 -104 -64.5 -204.5t-172.5 -178.5q66 -94 254 -367q55 88 110 218q23 57 74 57q33 0 53.5 -20.5t20.5 -53.5q0 -23 -10 -47q-63 -154 -158 -272q43 -61 83 -94 t91 -33q45 0 100 32q16 8 31 9q27 0 44.5 -17.5t17.5 -44.5q0 -37 -43 -69q-63 -49 -160 -50q-156 0 -271 154q-90 -80 -179 -117t-208 -37q-190 0 -297.5 98.5t-107.5 256.5zM295 334q0 -96 61.5 -154.5t173.5 -58.5q90 0 157 29.5t140 97.5q-53 74 -149 210t-135 189 q-80 -49 -125 -85t-84 -97t-39 -131zM494 1098q0 -102 110 -260q70 51 112 126.5t42 143.5q0 66 -32 106.5t-95.5 40.5t-100 -40.5t-36.5 -116.5z" />
<glyph unicode="'" horiz-adv-x="401" d="M123 922v381q0 33 22.5 55t55 22t55.5 -22.5t23 -54.5v-381q0 -33 -23 -55.5t-55.5 -22.5t-55 22.5t-22.5 55.5z" />
<glyph unicode="(" horiz-adv-x="651" d="M154 553q0 461 258 858q29 43 73 43q37 0 60.5 -22.5t23.5 -55.5q0 -29 -14 -49q-221 -373 -221 -774t221 -774q14 -20 14 -49q0 -33 -23.5 -55.5t-60.5 -22.5q-45 0 -73 43q-258 397 -258 858z" />
<glyph unicode=")" horiz-adv-x="651" d="M82 -270q0 29 14 49q221 373 221 774t-221 774q-14 20 -14 49q0 33 23.5 55.5t60.5 22.5q45 0 74 -43q258 -397 258 -858t-258 -858q-29 -43 -74 -43q-37 0 -60.5 22.5t-23.5 55.5z" />
<glyph unicode="*" horiz-adv-x="774" d="M82 1114q0 45 45 45h178l-96 152q-8 14 -8 26q0 18 13 30.5t34 12.5q25 0 39 -20l100 -162l100 162q14 20 39 20q20 0 33.5 -12t13.5 -31q0 -12 -8 -26l-96 -152h178q45 0 45 -45t-45 -45h-178l94 -149q10 -14 10 -27q0 -18 -14 -30.5t-33 -12.5q-27 0 -41 24l-98 156 l-98 -156q-14 -25 -41 -24q-18 0 -32.5 12t-14.5 31q0 12 10 27l94 149h-178q-45 0 -45 45z" />
<glyph unicode="+" horiz-adv-x="1140" d="M113 662q0 33 21.5 53t51.5 20h303v305q0 35 23 58.5t59 23.5q35 0 58.5 -22.5t23.5 -59.5v-305h301q31 0 52.5 -20.5t21.5 -52.5q0 -31 -21.5 -52.5t-52.5 -21.5h-301v-305q0 -35 -21.5 -58.5t-60.5 -23.5q-37 0 -59.5 23.5t-22.5 58.5v305h-303q-31 0 -52 21.5 t-21 52.5z" />
<glyph unicode="," horiz-adv-x="458" d="M86 -274q0 18 18 59q55 125 56 252v108q0 41 20.5 66t59.5 25q80 0 79 -91v-82q0 -207 -69 -344q-33 -61 -82 -61q-39 0 -60.5 20.5t-21.5 47.5z" />
<glyph unicode="-" horiz-adv-x="827" d="M113 518q0 35 24.5 57.5t57.5 22.5h438q33 0 57.5 -22.5t24.5 -57.5t-24.5 -57.5t-57.5 -22.5h-438q-33 0 -57.5 22.5t-24.5 57.5z" />
<glyph unicode="." d="M139 100q0 47 35 82t82 35t82 -35t35 -82t-35 -81.5t-82 -34.5t-82 34.5t-35 81.5z" />
<glyph unicode="/" horiz-adv-x="870" d="M123 -193q0 8 6 33l461 1555q18 59 80 59q37 0 57.5 -21.5t20.5 -54.5q0 -14 -7 -37l-458 -1546q-18 -61 -80 -61q-35 0 -57.5 21t-22.5 52z" />
<glyph unicode="0" horiz-adv-x="1220" d="M102 682q0 303 133.5 505t375 202t374.5 -202t133 -505t-133 -505t-374.5 -202t-375 202t-133.5 505zM283 682q0 -244 83 -395.5t244.5 -151.5t244.5 151.5t83 395.5t-83 395.5t-244.5 151.5t-244.5 -151.5t-83 -395.5z" />
<glyph unicode="1" horiz-adv-x="700" d="M16 1198q0 57 58 76l319 98q25 8 45 8q88 0 88 -90v-1216q0 -39 -24.5 -64.5t-65.5 -25.5q-39 0 -64.5 26.5t-25.5 63.5v1110l-219 -66q-12 -4 -27 -4q-35 0 -59.5 23.5t-24.5 60.5z" />
<glyph unicode="2" horiz-adv-x="1067" d="M106 82v57q0 135 48.5 235.5t122 164t206.5 145.5q170 104 241 176t71 170t-68 148.5t-186 50.5q-86 0 -148.5 -21.5t-142.5 -74.5q-27 -16 -51 -17q-39 0 -60.5 19.5t-21.5 52.5q0 47 51 86q158 115 383 115q197 0 310.5 -93.5t113.5 -263.5q0 -141 -80 -236.5 t-274 -217.5q-141 -90 -203 -140.5t-93.5 -115t-31.5 -162.5h612q35 0 57.5 -22.5t22.5 -57.5q0 -33 -23.5 -56.5t-56.5 -23.5h-719q-33 0 -56.5 24.5t-23.5 57.5z" />
<glyph unicode="3" horiz-adv-x="1091" d="M68 207q0 35 21.5 55.5t53.5 20.5q27 0 60 -29q131 -125 307 -125q133 0 214 67.5t81 186.5q0 125 -86 190.5t-244 65.5h-100q-33 0 -56.5 24.5t-23.5 57.5q0 35 22.5 58.5t57.5 23.5h88q133 0 206.5 63.5t73.5 163.5q0 96 -60 150.5t-173 54.5q-106 0 -215 -61 q-49 -25 -76 -25q-31 0 -51.5 19.5t-20.5 50.5q0 66 93 110q119 59 282 60q190 0 296 -94.5t106 -247.5q0 -106 -57.5 -190.5t-168.5 -127.5q123 -25 205 -115t82 -235q0 -176 -132 -290t-349 -114q-215 0 -375 123q-61 48 -61 109z" />
<glyph unicode="4" horiz-adv-x="1148" d="M25 438q0 27 20 54l666 849q31 39 75 39q41 0 64.5 -23.5t23.5 -62.5v-780h166q37 0 57.5 -21.5t20.5 -54.5q0 -35 -21.5 -56.5t-56.5 -21.5h-166v-288q0 -37 -23.5 -62.5t-64.5 -25.5t-64.5 25.5t-23.5 62.5v288h-598q-31 0 -53 22.5t-22 55.5zM262 514h436v567z" />
<glyph unicode="5" horiz-adv-x="1110" d="M109 209q0 31 20.5 51.5t58.5 20.5q27 0 56 -25q137 -129 307 -129q137 0 217 83t80 202q0 133 -77 208.5t-204 75.5q-74 0 -130 -23.5t-134 -78.5q-29 -18 -53 -19q-45 0 -66.5 26t-17.5 58l72 629q10 76 86 76h544q33 0 57.5 -24.5t24.5 -57.5t-24.5 -56.5t-57.5 -23.5 h-477l-45 -426q94 76 250 76q201 0 314.5 -119t113.5 -317q0 -182 -130 -311.5t-347 -129.5q-229 0 -387 142q-51 45 -51 92z" />
<glyph unicode="6" horiz-adv-x="1128" d="M117 475q0 309 135 525.5t346 334.5q94 53 162 54q72 0 71 -68q0 -6 -1 -12t-4 -13l-5 -10q-2 -4 -9 -9t-10 -8t-12.5 -9.5t-14.5 -8.5t-16 -9t-18 -9q-373 -205 -436 -561q113 160 328 159q188 0 303 -119.5t115 -303.5q0 -176 -126 -304.5t-335 -128.5 q-225 0 -349 137.5t-124 362.5zM313 408q0 -125 75 -203t206 -78q129 0 204.5 79t75.5 197q0 125 -71.5 201t-202.5 76q-127 0 -207 -76.5t-80 -195.5z" />
<glyph unicode="7" horiz-adv-x="968" d="M27 1284q0 33 23.5 56.5t55.5 23.5h758q84 0 84 -80q0 -27 -16 -49q-145 -195 -232.5 -342.5t-151 -358t-63.5 -446.5v-16q0 -35 -24.5 -61.5t-65.5 -26.5q-86 0 -86 88v16q2 326 107.5 593t296.5 523h-607q-33 0 -56 22.5t-23 57.5z" />
<glyph unicode="8" horiz-adv-x="1183" d="M113 383q0 135 76.5 227t195.5 127q-195 98 -195 303q0 150 111 249.5t291 99.5t290.5 -99.5t110.5 -249.5q0 -205 -194 -303q119 -35 195.5 -127t76.5 -227q0 -174 -126 -291t-353 -117t-353 117t-126 291zM291 383q0 -115 81 -187.5t220 -72.5t220 72.5t81 187.5 q0 123 -83 196.5t-218 73.5t-218 -73.5t-83 -196.5zM365 1024q0 -96 64.5 -161.5t162.5 -65.5t162.5 65.5t64.5 161.5q0 98 -59.5 158.5t-168 60.5t-167.5 -60.5t-59 -158.5z" />
<glyph unicode="9" horiz-adv-x="1128" d="M82 956q0 188 125 310.5t334 122.5q225 0 350 -137.5t125 -362.5q0 -309 -135.5 -525.5t-345.5 -334.5q-94 -53 -162 -54q-72 0 -72 68q0 6 1 12t4 13l5 10q2 4 9.5 9t10.5 8t12 9.5t14 8.5t16.5 9t17.5 9q373 205 436 561q-113 -160 -327 -160q-188 0 -303 120t-115 304 zM258 961q0 -125 71.5 -201t202.5 -76q127 0 207 77t80 195q0 125 -74.5 203t-205.5 78q-129 0 -205 -78.5t-76 -197.5z" />
<glyph unicode=":" horiz-adv-x="479" d="M123 100q0 47 35 82t82 35t81.5 -35t34.5 -82t-34.5 -81.5t-81.5 -34.5t-82 34.5t-35 81.5zM123 645q0 47 35 82t82 35t81.5 -35t34.5 -82t-34.5 -82t-81.5 -35t-82 35t-35 82z" />
<glyph unicode=";" horiz-adv-x="489" d="M84 -274q0 18 18 59q53 121 54 252v108q0 39 22.5 65t61.5 26t61.5 -25t22.5 -66v-82q0 -199 -74 -344q-33 -61 -82 -61q-39 0 -61.5 20.5t-22.5 47.5zM123 645q0 47 35 82t82 35t81.5 -35t34.5 -82t-34.5 -82t-81.5 -35t-82 35t-35 82z" />
<glyph unicode="&#x3c;" horiz-adv-x="1071" d="M82 661.5q0 43.5 45 67.5l704 391q20 10 41 10q35 0 55.5 -22.5t20.5 -50.5q0 -43 -47 -70l-604 -325l604 -326q47 -27 47 -70q0 -29 -20.5 -51t-55.5 -22q-20 0 -41 10l-704 391q-45 24 -45 67.5z" />
<glyph unicode="=" horiz-adv-x="1036" d="M133 493.5q0 28.5 21.5 50t50.5 21.5h626q29 0 50.5 -21.5t21.5 -50t-21.5 -50t-50.5 -21.5h-626q-29 0 -50.5 21.5t-21.5 50zM133 831q0 31 21.5 51.5t50.5 20.5h626q29 0 50.5 -21.5t21.5 -50t-21.5 -50t-50.5 -21.5h-626q-29 0 -50.5 21t-21.5 50z" />
<glyph unicode="&#x3e;" horiz-adv-x="1071" d="M123 266q0 43 47 70l604 326l-604 325q-47 27 -47 70q0 29 20.5 51t55.5 22q20 0 41 -10l704 -391q45 -25 45 -68t-45 -67l-704 -391q-20 -10 -41 -10q-35 0 -55.5 22t-20.5 51z" />
<glyph unicode="?" horiz-adv-x="923" d="M72 1210q0 53 82 99q141 80 307 80q178 0 279.5 -78t101.5 -224q0 -92 -40 -160.5t-151 -170.5q-96 -90 -120.5 -132t-24.5 -132v-56q0 -37 -25.5 -63.5t-64.5 -26.5t-64.5 26.5t-25.5 63.5v64q0 117 35.5 183.5t132.5 150.5q94 84 131 135t37 110q0 72 -55.5 110 t-153.5 38q-119 0 -242 -70q-41 -23 -61 -22q-33 0 -55.5 21t-22.5 54zM303 100q0 47 35 82t82 35t82 -35t35 -82t-35 -81.5t-82 -34.5t-82 34.5t-35 81.5z" />
<glyph unicode="@" horiz-adv-x="1435" d="M102 700q0 311 164 500t449 189q215 0 327.5 -107.5t112.5 -314.5v-539q0 -29 -20.5 -49.5t-49.5 -20.5q-31 0 -50 20.5t-19 49.5v43q-66 -121 -205 -121q-135 0 -215 95.5t-80 255t79 254t216 94.5q135 0 205 -113v45q0 150 -75 219.5t-228 69.5q-225 0 -350 -159 t-125 -411q0 -272 161.5 -439t454.5 -167q217 0 442 113q12 6 27 6q27 0 42 -16.5t15 -42.5q0 -33 -39 -56q-219 -123 -489 -123q-354 0 -552 206t-198 519zM655 700.5q0 -108.5 47.5 -168t131.5 -59.5q80 0 131 64.5t51 163t-50.5 162t-131.5 63.5q-84 0 -131.5 -58.5 t-47.5 -167z" />
<glyph unicode="A" horiz-adv-x="1212" d="M53 68q0 12 8 36l457 1213q25 63 88.5 63t87.5 -63l457 -1213q8 -25 8 -36q0 -35 -24.5 -59.5t-65.5 -24.5q-61 0 -82 55l-106 280h-549l-107 -280q-20 -55 -82 -55q-41 0 -65.5 24.5t-24.5 59.5zM391 483h430l-215 607z" />
<glyph unicode="B" horiz-adv-x="1167" d="M154 94v1178q0 39 26.5 65.5t65.5 26.5h362q186 0 294 -93t108 -251q0 -104 -53.5 -186t-145.5 -121q274 -57 274 -334q0 -164 -118.5 -271.5t-341.5 -107.5h-379q-39 0 -65.5 27.5t-26.5 66.5zM338 168h303q127 0 193.5 60.5t66.5 164.5q0 109 -69.5 166t-194.5 57h-299 v-448zM338 784h278q98 0 152.5 61.5t54.5 149.5q0 96 -56 148.5t-155 52.5h-274v-412z" />
<glyph unicode="C" horiz-adv-x="1179" d="M92 682q0 313 155.5 510t416.5 197q262 0 423 -218q20 -29 20.5 -63.5t-23 -58t-62.5 -23.5q-45 0 -80 49q-106 147 -272 148q-180 0 -287 -147.5t-107 -393.5t106.5 -393.5t287.5 -147.5q166 0 272 148q35 49 80 49q39 0 62.5 -23.5t23.5 -58.5t-21 -63 q-162 -217 -423 -218q-260 0 -416 197t-156 510z" />
<glyph unicode="D" horiz-adv-x="1232" d="M154 94v1176q0 41 27.5 67.5t66.5 26.5h305q283 0 437.5 -186.5t154.5 -495.5t-154.5 -495.5t-437.5 -186.5h-305q-39 0 -66.5 26.5t-27.5 67.5zM338 168h211q205 0 308.5 145.5t103.5 368.5t-103.5 368.5t-308.5 145.5h-211v-1028z" />
<glyph unicode="E" horiz-adv-x="1056" d="M154 92v1180q0 39 27.5 65.5t66.5 26.5h649q35 0 60.5 -24.5t25.5 -59.5q0 -37 -24.5 -60.5t-61.5 -23.5h-559v-416h344q35 0 59.5 -24.5t24.5 -59t-24.5 -59.5t-59.5 -25h-344v-444h575q37 0 61.5 -23.5t24.5 -60.5q0 -35 -25.5 -59.5t-60.5 -24.5h-665 q-41 0 -67.5 26.5t-26.5 65.5z" />
<glyph unicode="F" horiz-adv-x="1011" d="M154 76v1196q0 39 27.5 65.5t66.5 26.5h653q35 0 60.5 -24.5t25.5 -59.5q0 -37 -24.5 -60.5t-61.5 -23.5h-563v-416h348q35 0 59.5 -24.5t24.5 -59t-24.5 -59.5t-59.5 -25h-348v-536q0 -39 -26.5 -65.5t-65.5 -26.5t-65.5 26.5t-26.5 65.5z" />
<glyph unicode="G" horiz-adv-x="1269" d="M92 682q0 317 160 512t412 195q242 0 403 -187q27 -33 27 -63q0 -35 -23.5 -59.5t-64.5 -24.5q-35 0 -72 37q-123 129 -268 129q-174 0 -282 -146.5t-108 -392.5q0 -252 106.5 -399.5t297.5 -147.5q182 0 293 92v289h-234q-35 0 -60.5 24.5t-25.5 61.5q0 35 26 58.5 t60 23.5h320q41 0 66.5 -25.5t25.5 -66.5v-387q0 -37 -27 -62q-190 -168 -452 -168q-268 0 -424 191.5t-156 515.5z" />
<glyph unicode="H" horiz-adv-x="1271" d="M154 76v1212q0 39 26.5 65.5t65.5 26.5t65.5 -26.5t26.5 -65.5v-502h596v502q0 39 26.5 65.5t65.5 26.5t65.5 -26.5t26.5 -65.5v-1212q0 -39 -26.5 -65.5t-65.5 -26.5t-65.5 26.5t-26.5 65.5v542h-596v-542q0 -39 -26.5 -65.5t-65.5 -26.5t-65.5 26.5t-26.5 65.5z" />
<glyph unicode="I" d="M164 76v1212q0 39 26.5 65.5t65.5 26.5t65.5 -26.5t26.5 -65.5v-1212q0 -39 -26.5 -65.5t-65.5 -26.5t-65.5 26.5t-26.5 65.5z" />
<glyph unicode="J" horiz-adv-x="1050" d="M51 336q0 37 22.5 58.5t61.5 21.5q61 0 82 -68q31 -102 87 -155.5t169 -53.5q250 0 250 303v846q0 39 25.5 65.5t66.5 26.5q39 0 65.5 -25.5t26.5 -66.5v-839q0 -213 -106.5 -343.5t-327.5 -130.5q-172 0 -297 108t-125 253z" />
<glyph unicode="K" horiz-adv-x="1169" d="M154 76v1212q0 39 26.5 65.5t65.5 26.5t65.5 -26.5t26.5 -65.5v-631l557 689q29 35 68 34q37 0 61.5 -24.5t24.5 -59t-29 -69.5l-315 -389l376 -717q14 -27 15 -53q0 -37 -26 -60.5t-62 -23.5q-55 0 -80 47l-346 663l-244 -288v-330q0 -39 -26.5 -65.5t-65.5 -26.5 t-65.5 26.5t-26.5 65.5z" />
<glyph unicode="L" horiz-adv-x="991" d="M154 92v1196q0 39 26.5 65.5t65.5 26.5t65.5 -26.5t26.5 -65.5v-1120h536q37 0 62 -23.5t25 -60.5q0 -35 -26 -59.5t-61 -24.5h-628q-39 0 -65.5 26.5t-26.5 65.5z" />
<glyph unicode="M" horiz-adv-x="1523" d="M154 72v1220q0 41 24.5 64.5t63.5 23.5q57 0 84 -61l436 -1049l436 1049q27 61 84 61q39 0 63.5 -23.5t24.5 -64.5v-1220q0 -37 -25.5 -62.5t-62.5 -25.5t-62.5 25.5t-25.5 62.5v813l-352 -848q-20 -53 -80 -53t-80 53l-352 848v-813q0 -37 -25.5 -62.5t-62.5 -25.5 t-62.5 25.5t-25.5 62.5z" />
<glyph unicode="N" horiz-adv-x="1288" d="M154 72v1220q0 39 25.5 63.5t62.5 24.5q47 0 75 -43l641 -979v934q0 37 26 62.5t62.5 25.5t62.5 -25.5t26 -62.5v-1220q0 -35 -24 -61.5t-64 -26.5q-49 0 -76 39l-641 981v-932q0 -37 -25.5 -62.5t-62.5 -25.5t-62.5 25.5t-25.5 62.5z" />
<glyph unicode="O" horiz-adv-x="1327" d="M92 682q0 299 155.5 503t416 204t416 -204t155.5 -503t-155.5 -503t-416 -204t-416 204t-155.5 503zM276 682q0 -223 101.5 -382t286 -159t286 159t101.5 382t-101.5 382t-286 159t-286 -159t-101.5 -382z" />
<glyph unicode="P" horiz-adv-x="1120" d="M154 76v1196q0 39 26.5 65.5t65.5 26.5h375q225 0 343.5 -110.5t118.5 -295t-118.5 -294t-343.5 -109.5h-283v-479q0 -39 -26.5 -65.5t-65.5 -26.5t-65.5 26.5t-26.5 65.5zM338 723h321q113 0 175.5 64.5t62.5 171t-62.5 172t-175.5 65.5h-321v-473z" />
<glyph unicode="Q" horiz-adv-x="1327" d="M92 682q0 299 155.5 503t416 204t416 -204t155.5 -503q0 -184 -62.5 -339t-177.5 -251l103 -213q8 -16 8 -33q0 -33 -21.5 -55t-56.5 -22q-51 0 -70 45l-96 198q-96 -37 -198 -37q-260 0 -416 204t-156 503zM276 682q0 -223 101.5 -382t286.5 -159q70 0 127 25l-97 201 q-6 14 -6 32q0 31 21.5 53.5t54.5 22.5q49 0 70 -43l81 -174q135 154 136 424q0 223 -101.5 382t-286 159t-286 -159t-101.5 -382z" />
<glyph unicode="R" horiz-adv-x="1202" d="M154 76v1194q0 41 26.5 67.5t67.5 26.5h401q217 0 339 -103.5t122 -299.5q0 -129 -68.5 -228.5t-191.5 -138.5l246 -477q12 -25 12 -43q0 -37 -24.5 -63.5t-65.5 -26.5q-55 0 -82 49l-274 532h-324v-489q0 -39 -26.5 -65.5t-65.5 -26.5q-41 0 -66.5 26.5t-25.5 65.5z M338 727h348q117 0 177.5 62.5t60.5 171t-63.5 172t-174.5 63.5h-348v-469z" />
<glyph unicode="S" horiz-adv-x="1089" d="M92 231q0 37 21.5 57.5t54.5 20.5t72 -35q141 -135 321 -135q131 0 196.5 54.5t65.5 138.5q0 90 -71.5 148.5t-255.5 140.5q-213 94 -301.5 189t-88.5 232q0 168 125 257.5t324 89.5q168 0 299 -70q125 -61 125 -131q0 -80 -78 -80q-27 0 -72 29q-127 88 -276 88 q-119 0 -190.5 -46t-71.5 -135q0 -80 64.5 -135t224.5 -129q227 -104 327.5 -193t100.5 -243q0 -158 -117 -263.5t-334 -105.5q-250 0 -418 164q-47 51 -47 92z" />
<glyph unicode="T" horiz-adv-x="995" d="M0 1280q0 35 25.5 59.5t60.5 24.5h823q35 0 60.5 -24.5t25.5 -59.5q0 -37 -24.5 -60.5t-61.5 -23.5h-319v-1120q0 -39 -26.5 -65.5t-65.5 -26.5t-65.5 26.5t-26.5 65.5v1120h-320q-37 0 -61.5 23.5t-24.5 60.5z" />
<glyph unicode="U" horiz-adv-x="1294" d="M143 498v790q0 39 27 65.5t65.5 26.5t65.5 -26.5t27 -65.5v-807q0 -164 82 -251t237.5 -87t237.5 87t82 251v807q0 39 26.5 65.5t65.5 26.5t65.5 -26.5t26.5 -65.5v-790q0 -246 -132 -384.5t-371.5 -138.5t-372 138.5t-132.5 384.5z" />
<glyph unicode="V" horiz-adv-x="1126" d="M31 1294q0 37 25.5 61.5t64.5 24.5q63 0 84 -61l358 -1020l359 1020q20 61 84 61q39 0 64.5 -24.5t25.5 -61.5q0 -14 -9 -34l-438 -1219q-20 -57 -85.5 -57t-86.5 57l-438 1219q-8 20 -8 34z" />
<glyph unicode="W" horiz-adv-x="1724" d="M37 1298q0 37 23.5 59.5t62.5 22.5q66 0 84 -67l295 -975l278 981q16 61 82 61t82 -61l279 -981l295 975q18 68 84 67q39 0 62.5 -22.5t23.5 -59.5q0 -14 -7 -32l-378 -1219q-20 -63 -86 -63t-82 59l-273 971l-272 -971q-16 -59 -82 -59t-86 63l-379 1219q-6 18 -6 32z " />
<glyph unicode="X" horiz-adv-x="1171" d="M92 70q0 27 17 49l374 565l-370 559q-18 27 -19 53q0 37 24.5 60.5t63.5 23.5q47 0 74 -43l330 -506l329 506q27 43 74 43q39 0 63.5 -23.5t24.5 -60.5q0 -27 -18 -53l-371 -559l375 -565q16 -23 16 -49q0 -35 -24.5 -60.5t-61.5 -25.5q-49 0 -75 41l-332 510l-332 -510 q-27 -41 -76 -41q-37 0 -61.5 25.5t-24.5 60.5z" />
<glyph unicode="Y" horiz-adv-x="1019" d="M16 1296q0 37 26 60.5t64 23.5q49 0 76 -45l328 -592l328 592q27 45 75 45q39 0 65 -23.5t26 -60.5q0 -20 -15 -49l-387 -686v-485q0 -39 -26.5 -65.5t-65.5 -26.5t-65.5 26.5t-26.5 65.5v485l-387 686q-15 29 -15 49z" />
<glyph unicode="Z" horiz-adv-x="1103" d="M113 84q0 23 18 51l645 1065h-569q-37 0 -60.5 22.5t-23.5 61.5q0 35 23.5 57.5t60.5 22.5h721q84 0 84 -80q0 -23 -17 -51l-647 -1069h586q37 0 60.5 -21.5t23.5 -60.5q0 -35 -23.5 -58.5t-60.5 -23.5h-733q-39 0 -63.5 23.5t-24.5 60.5z" />
<glyph unicode="[" horiz-adv-x="677" d="M174 -217v1534q0 37 25.5 62.5t64.5 25.5h254q33 0 55.5 -21.5t22.5 -54.5t-22.5 -54.5t-55.5 -21.5h-164v-1407h164q33 0 55.5 -21.5t22.5 -54t-22.5 -54t-55.5 -21.5h-254q-39 0 -64.5 25.5t-25.5 62.5z" />
<glyph unicode="\" horiz-adv-x="911" d="M143 1378q0 33 20.5 54.5t57.5 21.5q59 0 80 -59l461 -1555q6 -25 6 -33q0 -31 -22.5 -52t-57.5 -21q-61 0 -80 61l-458 1546q-7 23 -7 37z" />
<glyph unicode="]" horiz-adv-x="677" d="M82 -229.5q0 32.5 22.5 54t55.5 21.5h164v1407h-164q-33 0 -55.5 21.5t-22.5 54.5t22.5 54.5t55.5 21.5h254q39 0 64.5 -25.5t25.5 -62.5v-1534q0 -37 -25.5 -62.5t-64.5 -25.5h-254q-33 0 -55.5 21.5t-22.5 54z" />
<glyph unicode="^" horiz-adv-x="962" d="M119 768q0 14 10 35l285 536q20 41 67 41t68 -41l285 -536q10 -20 10 -35q0 -31 -20.5 -51.5t-53.5 -20.5q-47 0 -70 45l-219 424l-219 -424q-23 -45 -69 -45q-33 0 -53.5 20.5t-20.5 51.5z" />
<glyph unicode="_" horiz-adv-x="841" d="M-2 -25h846v-75h-846v75z" />
<glyph unicode="`" horiz-adv-x="620" d="M143 1264q0 33 22.5 52t55.5 19q39 0 64 -32l114 -160q16 -23 17 -47q0 -31 -21.5 -52.5t-54.5 -21.5q-41 0 -66 35l-112 155q-19 25 -19 52z" />
<glyph unicode="a" horiz-adv-x="999" d="M102 246q0 125 90.5 196.5t241.5 71.5q82 0 150.5 -31.5t103.5 -83.5v125q0 238 -231 238q-86 0 -174 -39q-45 -18 -76 -18q-33 0 -53.5 20t-20.5 49q0 45 47 72q115 68 291 67q193 0 295 -96t102 -285v-458q0 -37 -25.5 -63.5t-64.5 -26.5t-64.5 26.5t-25.5 63.5v28 q-84 -127 -266 -127q-147 0 -233.5 74t-86.5 197zM279 244q0 -66 53 -106t147 -40q90 0 149.5 42t59.5 104q0 68 -63.5 107.5t-145.5 39.5q-90 0 -145 -38.5t-55 -108.5z" />
<glyph unicode="b" horiz-adv-x="1081" d="M143 74v1216q0 37 26 63.5t64.5 26.5t64.5 -26.5t26 -63.5v-549q94 172 286 172q170 0 279.5 -132t109.5 -336.5t-109.5 -337t-279.5 -132.5q-193 0 -286 172v-73q0 -37 -26 -63.5t-64.5 -26.5t-64.5 26.5t-26 63.5zM324 444.5q0 -137.5 69.5 -227.5t179.5 -90 q113 0 179.5 91t66.5 226.5t-66.5 226.5t-179.5 91q-111 0 -180 -90t-69 -227.5z" />
<glyph unicode="c" horiz-adv-x="915" d="M82 444.5q0 198.5 113.5 333.5t318.5 135q199 0 313 -151q25 -31 25 -68q0 -33 -23.5 -52t-56.5 -19q-37 0 -67 41q-74 100 -189 100q-119 0 -186.5 -93t-67.5 -226.5t67.5 -226.5t186.5 -93q115 0 189 100q31 41 67 41q33 0 56.5 -19.5t23.5 -51.5q0 -37 -25 -68 q-115 -152 -313 -152q-205 0 -318.5 135.5t-113.5 334z" />
<glyph unicode="d" horiz-adv-x="1081" d="M82 444.5q0 204.5 109.5 336.5t279.5 132q193 0 287 -172v549q0 37 25.5 63.5t64.5 26.5t64.5 -26.5t25.5 -63.5v-1216q0 -37 -25.5 -63.5t-64.5 -26.5t-64.5 26.5t-25.5 63.5v73q-94 -172 -287 -172q-170 0 -279.5 132.5t-109.5 337zM262 444.5q0 -135.5 66.5 -226.5 t179.5 -91q111 0 180.5 90t69.5 227.5t-70 227.5t-180 90q-113 0 -179.5 -91t-66.5 -226.5z" />
<glyph unicode="e" horiz-adv-x="954" d="M82 444q0 201 116.5 335t303.5 134q182 0 283.5 -136t101.5 -335q0 -27 -17.5 -45t-52.5 -18h-549q4 -117 72 -188.5t180 -71.5q115 0 203 104q31 35 70 35q31 0 53 -18.5t22 -51.5q0 -29 -20 -55q-131 -158 -334 -158q-209 0 -320.5 133t-111.5 336zM270 522h449 q-10 104 -66.5 174t-150.5 70q-98 0 -157 -67.5t-75 -176.5z" />
<glyph unicode="f" horiz-adv-x="632" d="M16 815q0 31 21.5 52.5t52.5 21.5h92v125q0 350 320 350h61q31 0 52.5 -21.5t21.5 -52t-21.5 -52t-52.5 -21.5h-51q-150 0 -150 -173v-155h193q31 0 52.5 -21.5t21.5 -52.5t-21.5 -52.5t-52.5 -21.5h-193v-667q0 -37 -25.5 -63.5t-64.5 -26.5t-64.5 26.5t-25.5 63.5v667 h-92q-31 0 -52.5 21.5t-21.5 52.5z" />
<glyph unicode="g" horiz-adv-x="1081" d="M82 459q0 209 108.5 331.5t280.5 122.5q92 0 167 -48t120 -128v78q0 37 25.5 63.5t64.5 26.5t64.5 -26.5t25.5 -63.5v-778q0 -205 -106.5 -320.5t-333.5 -115.5q-180 0 -318 75q-49 27 -49 76q0 31 18.5 48.5t49.5 17.5q29 0 73 -21q104 -49 224 -49q143 0 202.5 69.5 t59.5 205.5v159q-45 -82 -120 -130t-167 -48q-172 0 -280.5 123t-108.5 332zM262 459q0 -133 65.5 -218t180.5 -85q111 0 180.5 86t69.5 217t-70 217t-180 86q-115 0 -180.5 -85t-65.5 -218z" />
<glyph unicode="h" horiz-adv-x="1071" d="M143 74v1216q0 37 26 63.5t64.5 26.5t64.5 -26.5t26 -63.5v-551q84 174 278 174q164 0 250 -110.5t86 -296.5v-432q0 -37 -25.5 -63.5t-64.5 -26.5t-64.5 26.5t-25.5 63.5v430q0 113 -52.5 179.5t-154.5 66.5q-106 0 -166.5 -76t-60.5 -193v-407q0 -37 -26 -63.5 t-64.5 -26.5t-64.5 26.5t-26 63.5z" />
<glyph unicode="i" horiz-adv-x="466" d="M125 1145q0 45 31.5 76.5t77 31.5t77 -31.5t31.5 -76.5t-31.5 -77t-77 -32t-77 32t-31.5 77zM143 74v741q0 37 26 63.5t64.5 26.5t64.5 -26.5t26 -63.5v-741q0 -37 -26 -63.5t-64.5 -26.5t-64.5 26.5t-26 63.5z" />
<glyph unicode="j" horiz-adv-x="466" d="M-74 -325.5q0 32.5 22.5 54t55.5 21.5h6q76 0 104.5 30t28.5 99v936q0 37 26 63.5t64.5 26.5t64.5 -26.5t26 -63.5v-913q0 -301 -291 -301h-29q-33 0 -55.5 20.5t-22.5 53zM125 1145q0 45 31.5 76.5t77 31.5t77 -31.5t31.5 -76.5t-31.5 -77t-77 -32t-77 32t-31.5 77z" />
<glyph unicode="k" horiz-adv-x="927" d="M143 74v1216q0 37 26 63.5t64.5 26.5t64.5 -26.5t26 -63.5v-764l391 355q27 25 57 24q37 0 60.5 -23.5t23.5 -58.5q0 -37 -35 -65l-254 -228l287 -409q20 -27 20 -55q0 -35 -23.5 -58.5t-62 -23.5t-65.5 36l-277 404l-122 -115v-235q0 -39 -25 -64.5t-66 -25.5 q-39 0 -64.5 26.5t-25.5 63.5z" />
<glyph unicode="l" horiz-adv-x="466" d="M143 74v1216q0 37 26 63.5t64.5 26.5t64.5 -26.5t26 -63.5v-1216q0 -37 -26 -63.5t-64.5 -26.5t-64.5 26.5t-26 63.5z" />
<glyph unicode="m" horiz-adv-x="1685" d="M143 74v741q0 37 26 63.5t64.5 26.5t64.5 -26.5t26 -63.5v-76q84 174 278 174q217 0 297 -194q104 195 318 194q164 0 249.5 -110.5t85.5 -296.5v-432q0 -37 -25.5 -63.5t-64.5 -26.5t-64.5 26.5t-25.5 63.5v430q0 113 -52 179.5t-155 66.5q-106 0 -166.5 -76t-60.5 -193 v-407q0 -37 -25.5 -63.5t-64.5 -26.5t-64.5 26.5t-25.5 63.5v430q0 113 -52.5 179.5t-154.5 66.5q-106 0 -166.5 -76t-60.5 -193v-407q0 -37 -26 -63.5t-64.5 -26.5t-64.5 26.5t-26 63.5z" />
<glyph unicode="n" horiz-adv-x="1071" d="M143 74v741q0 37 26 63.5t64.5 26.5t64.5 -26.5t26 -63.5v-76q84 174 278 174q164 0 250 -110.5t86 -296.5v-432q0 -37 -25.5 -63.5t-64.5 -26.5t-64.5 26.5t-25.5 63.5v430q0 113 -52.5 179.5t-154.5 66.5q-106 0 -166.5 -76t-60.5 -193v-407q0 -37 -26 -63.5 t-64.5 -26.5t-64.5 26.5t-26 63.5z" />
<glyph unicode="o" horiz-adv-x="1024" d="M82 444.5q0 196.5 117.5 332.5t312.5 136t312.5 -136t117.5 -332.5t-117.5 -333t-312.5 -136.5t-312.5 136.5t-117.5 333zM262 444.5q0 -133.5 66.5 -225.5t183.5 -92q250 0 250 317q0 133 -66.5 225.5t-183.5 92.5t-183.5 -92t-66.5 -225.5z" />
<glyph unicode="p" horiz-adv-x="1081" d="M143 -309v1124q0 37 26 63.5t64.5 26.5t64.5 -26.5t26 -63.5v-74q94 172 286 172q170 0 279.5 -132t109.5 -336.5t-109.5 -337t-279.5 -132.5q-193 0 -286 172v-456q0 -37 -26 -63.5t-64.5 -26.5t-64.5 26.5t-26 63.5zM324 444.5q0 -137.5 69.5 -227.5t179.5 -90 q113 0 179.5 91t66.5 226.5t-66.5 226.5t-179.5 91q-111 0 -180 -90t-69 -227.5z" />
<glyph unicode="q" horiz-adv-x="1081" d="M82 444.5q0 204.5 109.5 336.5t279.5 132q193 0 287 -172v74q0 37 25.5 63.5t64.5 26.5t64.5 -26.5t25.5 -63.5v-1124q0 -37 -25.5 -63.5t-64.5 -26.5t-64.5 26.5t-25.5 63.5v456q-94 -172 -287 -172q-170 0 -279.5 132.5t-109.5 337zM262 444.5q0 -135.5 66.5 -226.5 t179.5 -91q111 0 180.5 90t69.5 227.5t-70 227.5t-180 90q-113 0 -179.5 -91t-66.5 -226.5z" />
<glyph unicode="r" horiz-adv-x="651" d="M143 74v741q0 37 26 63.5t64.5 26.5t64.5 -25.5t26 -64.5v-106q20 90 82.5 143t146.5 53h4q39 0 64.5 -21.5t25.5 -60.5t-25.5 -62.5t-66.5 -23.5h-2q-111 0 -170 -81t-59 -222v-360q0 -37 -26 -63.5t-64.5 -26.5t-64.5 26.5t-26 63.5z" />
<glyph unicode="s" horiz-adv-x="845" d="M90 160q0 29 19.5 46t52.5 17q27 0 65 -26q106 -82 213 -82q76 0 116 30.5t40 79.5q0 57 -44 87t-142 63q-160 55 -229.5 118.5t-69.5 174.5q0 121 92 183t237 62q127 0 236 -59q78 -43 78 -94q0 -29 -18.5 -48.5t-51.5 -19.5q-25 0 -61 19q-100 57 -187 57 q-154 0 -153 -102q0 -47 37.5 -73t150.5 -67q158 -57 227.5 -116.5t69.5 -171.5q0 -119 -86 -191t-246 -72q-170 0 -307 109q-39 31 -39 76z" />
<glyph unicode="t" horiz-adv-x="632" d="M8 815q0 31 21.5 52.5t52.5 21.5h141v266q0 37 25.5 63.5t64.5 26.5t64.5 -26.5t25.5 -63.5v-266h162q31 0 52.5 -21.5t21.5 -52.5t-21.5 -52.5t-52.5 -21.5h-162v-667q0 -37 -25.5 -63.5t-64.5 -26.5t-64.5 26.5t-25.5 63.5v667h-141q-31 0 -52.5 21.5t-21.5 52.5z" />
<glyph unicode="u" horiz-adv-x="1071" d="M133 383v432q0 37 25.5 63.5t64.5 26.5t64.5 -26.5t25.5 -63.5v-430q0 -113 52.5 -179.5t154.5 -66.5q106 0 167 76t61 193v407q0 37 25.5 63.5t64.5 26.5t64.5 -26.5t25.5 -63.5v-741q0 -37 -25.5 -63.5t-64.5 -26.5t-64.5 26.5t-25.5 63.5v76q-84 -174 -279 -175 q-164 0 -250 111t-86 297z" />
<glyph unicode="v" horiz-adv-x="839" d="M25 823q0 37 23.5 59.5t57.5 22.5q55 0 80 -57l234 -598l233 598q25 57 80 57q35 0 58.5 -22.5t23.5 -59.5q0 -14 -8 -35l-311 -751q-23 -53 -76 -53t-76 53l-311 751q-8 21 -8 35z" />
<glyph unicode="w" horiz-adv-x="1257" d="M31 829q0 37 23.5 56.5t60.5 19.5q53 0 71 -57l170 -563l201 567q20 53 71.5 53t71.5 -53l201 -567l170 563q18 57 72 57q37 0 60.5 -19.5t23.5 -56.5q0 -14 -6 -32l-238 -760q-18 -53 -73.5 -53t-78.5 61l-202 563l-203 -563q-23 -61 -78 -61q-59 0 -74 53l-237 760 q-6 18 -6 32z" />
<glyph unicode="x" horiz-adv-x="872" d="M61 61q0 25 21 54l256 331l-252 330q-18 25 -18 49q0 35 22.5 57.5t59.5 22.5q39 0 63 -31l223 -307l223 307q25 31 64 31q37 0 59.5 -22.5t22.5 -57.5q0 -25 -19 -49l-251 -330l256 -331q20 -29 20 -54q0 -33 -24.5 -55t-59.5 -22q-37 0 -63 32l-228 310l-227 -310 q-27 -33 -64 -32q-35 0 -59.5 22t-24.5 55z" />
<glyph unicode="y" horiz-adv-x="851" d="M45 825q0 37 23.5 58.5t58.5 21.5q59 0 80 -55l239 -653l222 647q23 61 84 61q35 0 57 -21.5t22 -60.5q0 -18 -8 -39q-147 -416 -258 -696q-72 -178 -152.5 -282.5t-209.5 -192.5q-18 -12 -41 -12q-33 0 -56.5 21.5t-23.5 49.5q0 37 41 68q160 123 227 266l-297 785 q-8 20 -8 34z" />
<glyph unicode="z" horiz-adv-x="872" d="M86 74q0 27 20 55l453 612h-393q-31 0 -52.5 21.5t-21.5 52.5t21.5 52.5t52.5 21.5h551q35 0 56.5 -20.5t21.5 -55.5q0 -27 -17 -49l-459 -617h408q31 0 52.5 -20.5t21.5 -53t-21.5 -53t-52.5 -20.5h-565q-31 0 -53.5 22.5t-22.5 51.5z" />
<glyph unicode="{" horiz-adv-x="708" d="M72 543q0 37 23.5 58.5t58.5 21.5h10q111 0 110 108v459q0 109 48.5 162t154.5 53h84q33 0 54.5 -20.5t21.5 -55.5t-21.5 -55.5t-54.5 -20.5h-45q-61 0 -61 -65v-436q0 -193 -197 -209q197 -16 197 -209v-436q0 -66 61 -66h45q33 0 54.5 -20.5t21.5 -55.5t-21.5 -55 t-54.5 -20h-84q-106 0 -154.5 53t-48.5 162v458q0 109 -110 109h-10q-35 0 -58.5 21.5t-23.5 58.5z" />
<glyph unicode="|" horiz-adv-x="532" d="M195 -334v1768q0 31 20.5 51t51 20t51 -20.5t20.5 -50.5v-1768q0 -31 -20.5 -51.5t-51 -20.5t-51 20.5t-20.5 51.5z" />
<glyph unicode="}" horiz-adv-x="708" d="M72 -244q0 35 21.5 55.5t53.5 20.5h46q61 0 61 66v436q0 193 197 209q-197 16 -197 209v436q0 66 -61 65h-46q-33 0 -54 20.5t-21 55.5t21.5 55.5t53.5 20.5h84q106 0 154.5 -53.5t48.5 -161.5v-459q0 -109 111 -108h10q35 0 58.5 -21.5t23.5 -58.5t-23.5 -58.5 t-58.5 -21.5h-10q-111 0 -111 -109v-458q0 -109 -48 -162t-155 -53h-84q-33 0 -54 20t-21 55z" />
<glyph unicode="~" horiz-adv-x="980" d="M102 473q0 14 9 31q88 166 235 166q88 0 182 -60q10 -6 25.5 -16t21 -13t16.5 -9.5t15 -8.5t12.5 -4t15.5 -3t15 -1q35 0 74 43q10 10 36.5 45t61.5 35q33 0 55.5 -20.5t22.5 -51.5q0 -16 -10 -37q-86 -162 -236 -161q-82 0 -166 53q-6 4 -27.5 17.5t-28.5 17.5t-21.5 11 t-25.5 9t-24 2q-49 0 -88 -47q-4 -6 -14 -19.5t-20 -25.5q-20 -27 -64 -27q-31 0 -51.5 20.5t-20.5 53.5z" />
<glyph unicode="&#xa1;" horiz-adv-x="540" d="M154 797q0 47 34.5 81.5t81.5 34.5t82 -34.5t35 -81.5t-35 -82t-82 -35t-81.5 35t-34.5 82zM180 135l45 371q8 45 45 45q35 0 43 -45l47 -371v-444q0 -39 -24.5 -64.5t-65.5 -25.5t-65.5 25.5t-24.5 64.5v444z" />
<glyph unicode="&#xa2;" horiz-adv-x="1026" d="M133 682q0 178 91 306t259 157v160q0 35 22.5 57t57.5 22t57.5 -22.5t22.5 -56.5v-160q143 -27 236 -146q25 -31 24 -67q0 -33 -23.5 -52.5t-56.5 -19.5q-37 0 -67 41q-74 100 -189 100q-119 0 -186.5 -93t-67.5 -226t68 -226.5t186 -93.5q115 0 189 101q31 41 67 41 q33 0 56.5 -19.5t23.5 -52.5q0 -37 -24 -67q-92 -119 -236 -146v-160q0 -35 -22.5 -57t-57.5 -22t-57.5 22.5t-22.5 56.5v160q-168 27 -259 156t-91 307z" />
<glyph unicode="&#xa3;" horiz-adv-x="1273" d="M113 76q0 33 22.5 53.5t54.5 20.5h242v466h-217q-33 0 -54.5 21.5t-21.5 54.5t21.5 54.5t54.5 21.5h217v205q0 416 408 416q147 0 252 -50q80 -39 79 -92q0 -33 -20.5 -55.5t-54.5 -22.5q-18 0 -47 13q-98 47 -207 47q-119 0 -174.5 -57.5t-55.5 -184.5v-219h381 q31 0 53.5 -21.5t22.5 -54.5t-22.5 -54.5t-53.5 -21.5h-381v-466h461q33 0 55.5 -20.5t22.5 -53.5t-22.5 -54.5t-55.5 -21.5h-883q-33 0 -55 21.5t-22 54.5z" />
<glyph unicode="&#xa4;" horiz-adv-x="1261" d="M143 219q0 27 21 47l135 135q-88 125 -88 281q0 154 88 281l-135 133q-20 20 -20.5 49t19 49t50.5 20q25 0 49 -20l129 -133q109 76 240 76t239 -76l129 133q25 20 50 20q31 0 50 -20t19 -49t-20 -49l-135 -133q88 -127 88 -281q0 -156 -88 -281l135 -135q20 -20 20 -47 q0 -29 -20.5 -49t-49 -20t-49.5 20l-129 133q-109 -76 -239.5 -76t-239.5 76l-129 -133q-20 -20 -49 -20t-49.5 20t-20.5 49zM387 682q0 -125 66.5 -213t177 -88t177 88t66.5 213t-66.5 213t-177 88t-177 -88t-66.5 -213z" />
<glyph unicode="&#xa5;" horiz-adv-x="1118" d="M86 1296q0 37 24.5 60.5t65.5 23.5q47 0 76 -53l307 -588l307 588q29 53 76 53q41 0 65.5 -23.5t24.5 -60.5q0 -20 -14 -49l-250 -465h158q29 0 47 -18.5t18 -47t-18.5 -47t-46.5 -18.5h-230l-47 -90v-80h277q29 0 47 -19.5t18 -46t-18.5 -46t-46.5 -19.5h-277v-274 q0 -39 -25.5 -65.5t-64.5 -26.5t-64.5 26.5t-25.5 65.5v274h-276q-29 0 -47.5 19.5t-18.5 46t18.5 46t47.5 19.5h276v80l-49 90h-227q-29 0 -47.5 18.5t-18.5 47t18.5 47t47.5 18.5h157l-250 465q-14 29 -14 49z" />
<glyph unicode="&#xa6;" horiz-adv-x="532" d="M195 -334v696q0 31 20.5 51.5t51 20.5t51 -20.5t20.5 -51.5v-696q0 -31 -20.5 -51.5t-51 -20.5t-51 20.5t-20.5 51.5zM195 737v697q0 31 20.5 51t51 20t51 -20.5t20.5 -50.5v-697q0 -31 -20.5 -51t-51 -20t-51 20t-20.5 51z" />
<glyph unicode="&#xa7;" horiz-adv-x="1142" d="M139 649q0 84 52.5 153.5t125.5 104.5q-115 100 -114 209q0 127 98 200t289 73q184 0 307 -76q72 -45 72 -92q0 -31 -18.5 -50.5t-51.5 -19.5q-16 0 -29.5 5t-32 16.5t-24.5 13.5q-100 55 -225 55q-205 0 -205 -117q0 -20 8 -39.5t28.5 -40t38 -36t53.5 -37t53.5 -32.5 t61.5 -34.5t58 -32.5q76 -43 110.5 -63.5t86 -58t73 -68.5t39 -77t17.5 -99q0 -145 -142 -246q90 -84 90 -203q0 -123 -101 -202.5t-288 -79.5q-203 0 -356 108q-57 41 -57 90q0 31 20.5 50.5t50.5 19.5q35 0 86 -37q115 -84 260 -84q90 0 147.5 37t57.5 96q0 18 -4 33.5 t-14 30t-19.5 27t-30 25.5t-36 23.5t-45 27t-51 26.5t-59.5 29.5t-64 31.5q-176 90 -246 162t-70 178zM319 655q0 -31 13.5 -57.5t50.5 -53t62.5 -39.5t84.5 -46q45 -25 92.5 -49.5t74 -38t44.5 -23.5q90 76 90 154q0 27 -8 50t-18 37.5t-33.5 33t-38 27.5t-50.5 30l-50 29 l-193 108q-121 -66 -121 -162z" />
<glyph unicode="&#xa8;" horiz-adv-x="804" d="M133 1171q0 43 30 73t73 30t72.5 -30t29.5 -73t-29.5 -72.5t-72.5 -29.5t-73 29.5t-30 72.5zM467 1171q0 43 29.5 73t72.5 30t73 -30t30 -73t-30 -72.5t-73 -29.5t-72.5 29.5t-29.5 72.5z" />
<glyph unicode="&#xa9;" horiz-adv-x="1622" d="M102 682q0 293 207 500t502 207t502 -207t207 -500t-207 -500t-502 -207t-502 207t-207 500zM219 682q0 -250 170 -426t422 -176t422 176t170 426t-170 426t-422 176t-422 -176t-170 -426zM494 682q0 152 96 250t250 98q160 0 262 -131q12 -14 12 -35q0 -18 -14 -33 q-12 -12 -31 -12q-27 0 -41 17q-43 49 -84 71.5t-104 22.5q-98 0 -167 -71t-69 -177.5t68.5 -177t167.5 -70.5q63 0 104 22.5t84 71.5q14 16 41 17q18 0 31 -13q14 -14 14 -32q0 -20 -12 -35q-102 -131 -262 -131q-154 0 -250 98t-96 250z" />
<glyph unicode="&#xaa;" horiz-adv-x="747" d="M123 948q0 90 60.5 137.5t158.5 47.5q109 0 174 -64v72q0 80 -37 112.5t-119 32.5q-76 0 -139 -29q-16 -8 -28 -8q-23 0 -37.5 14.5t-14.5 36.5q0 35 52 56q76 33 178 33q268 0 268 -248v-312q0 -27 -17.5 -44t-44 -17t-44 17.5t-17.5 43.5v9q-72 -76 -178 -76 q-94 0 -154.5 52t-60.5 134zM244 948q0 -47 36.5 -72.5t96.5 -25.5q57 0 98 25.5t41 70.5q0 43 -41 72t-98 29q-61 0 -97 -26t-36 -73z" />
<glyph unicode="&#xab;" horiz-adv-x="1140" d="M92 438.5q0 26.5 27 53.5l303 292q23 23 51 23q33 0 55.5 -21.5t22.5 -54.5q0 -27 -29 -55l-248 -238l248 -237q29 -29 29 -56q0 -33 -22.5 -54t-55.5 -21q-29 0 -51 22l-303 293q-27 27 -27 53.5zM559 438.5q0 26.5 27 53.5l303 292q23 23 51 23q33 0 55.5 -21.5 t22.5 -54.5q0 -27 -29 -55l-248 -238l248 -237q29 -29 29 -56q0 -33 -22.5 -54t-55.5 -21q-29 0 -51 22l-303 293q-27 27 -27 53.5z" />
<glyph unicode="&#xac;" horiz-adv-x="1212" d="M123 645q0 33 21.5 53.5t52.5 20.5h768q33 0 53 -19.5t20 -54.5v-379q0 -35 -21.5 -58.5t-60.5 -23.5q-37 0 -59.5 23.5t-22.5 58.5v305h-677q-31 0 -52.5 21.5t-21.5 52.5z" />
<glyph unicode="&#xad;" horiz-adv-x="827" d="M113 518q0 35 24.5 57.5t57.5 22.5h438q33 0 57.5 -22.5t24.5 -57.5t-24.5 -57.5t-57.5 -22.5h-438q-33 0 -57.5 22.5t-24.5 57.5z" />
<glyph unicode="&#xae;" horiz-adv-x="823" d="M72 1048.5q0 143.5 97 242t242.5 98.5t243 -98.5t97.5 -242t-97.5 -241.5t-243 -98t-242.5 98t-97 241.5zM150 1048.5q0 -112.5 72.5 -191.5t189 -79t189.5 79t73 191.5t-73 191.5t-189.5 79t-189 -79t-72.5 -191.5zM309 907v289q0 25 25 25h94q53 0 81 -27t28 -72 q0 -66 -60 -90l64 -112q4 -8 4 -15q0 -23 -25 -22q-14 0 -22 16l-70 125h-70v-117q0 -25 -24.5 -25t-24.5 25zM358 1069h72q57 0 57 53.5t-57 53.5h-72v-107z" />
<glyph unicode="&#xaf;" horiz-adv-x="821" d="M143 1171.5q0 28.5 19.5 47t46.5 18.5h405q25 0 44.5 -18.5t19.5 -47t-19.5 -48t-44.5 -19.5h-405q-27 0 -46.5 19.5t-19.5 48z" />
<glyph unicode="&#xb0;" horiz-adv-x="651" d="M92 1155q0 96 65.5 162.5t168 66.5t168 -66.5t65.5 -162.5t-65.5 -162.5t-168 -66.5t-168 66.5t-65.5 162.5zM203 1155q0 -57 33.5 -94t89 -37t89.5 37t34 94t-34 94t-89.5 37t-89 -37t-33.5 -94z" />
<glyph unicode="&#xb1;" horiz-adv-x="1243" d="M164 71.5q0 30.5 21.5 51t52.5 20.5h768q31 0 52 -20.5t21 -51t-21.5 -51t-51.5 -20.5h-768q-31 0 -52.5 20.5t-21.5 51zM164 692q0 33 21.5 53.5t52.5 20.5h303v274q0 35 22.5 58.5t59.5 23.5q35 0 58.5 -22.5t23.5 -59.5v-274h301q31 0 52 -20.5t21 -53.5 q0 -31 -21.5 -52.5t-51.5 -21.5h-301v-301q0 -35 -21.5 -58t-60.5 -23q-37 0 -59.5 23.5t-22.5 57.5v301h-303q-31 0 -52.5 21.5t-21.5 52.5z" />
<glyph unicode="&#xb2;" d="M139 608q0 47 35 82t82 35t82 -35t35 -82t-35 -81.5t-82 -34.5t-82 34.5t-35 81.5z" />
<glyph unicode="&#xb3;" d="M139 608q0 47 35 82t82 35t82 -35t35 -82t-35 -81.5t-82 -34.5t-82 34.5t-35 81.5z" />
<glyph unicode="&#xb4;" horiz-adv-x="620" d="M205 1096q0 25 16 47l115 160q25 33 63 32q33 0 55.5 -19.5t22.5 -51.5q0 -27 -18 -52l-113 -155q-25 -35 -65 -35q-31 0 -53.5 21.5t-22.5 52.5z" />
<glyph unicode="&#xb5;" horiz-adv-x="1071" d="M133 -309v1124q0 37 25.5 63.5t64.5 26.5t64.5 -26.5t25.5 -63.5v-430q0 -115 51.5 -180.5t155.5 -65.5q106 0 167 76t61 193v407q0 37 25.5 63.5t64.5 26.5t64.5 -26.5t25.5 -63.5v-741q0 -37 -25.5 -63.5t-64.5 -26.5t-64.5 26.5t-25.5 63.5v76q-84 -174 -279 -175 q-90 0 -156 35v-319q0 -37 -25.5 -63.5t-64.5 -26.5t-64.5 26.5t-25.5 63.5z" />
<glyph unicode="&#xb6;" horiz-adv-x="1079" d="M82 997q0 162 108.5 264.5t264.5 102.5h389q33 0 52 -18.5t19 -53.5v-1237q0 -31 -20.5 -51t-51 -20t-51 20.5t-20.5 50.5v1172h-172v-1555q0 -31 -20.5 -51t-51 -20t-51 20.5t-20.5 50.5v959q-158 0 -266.5 101t-108.5 265z" />
<glyph unicode="&#xb7;" d="M139 608q0 47 35 82t82 35t82 -35t35 -82t-35 -81.5t-82 -34.5t-82 34.5t-35 81.5z" />
<glyph unicode="&#xb8;" horiz-adv-x="659" d="M133 -330q0 47 45 47q10 0 51 -10q37 -10 80 -10q88 0 88 61q0 57 -80 58q-27 0 -54 -6.5t-40 -6.5q-45 0 -45 39q0 8 8 29l47 129h99l-41 -109q25 12 74 13q70 0 115.5 -35t45.5 -104.5t-56 -116.5t-161 -47q-74 0 -121 16q-55 16 -55 53z" />
<glyph unicode="&#xb9;" d="M139 608q0 47 35 82t82 35t82 -35t35 -82t-35 -81.5t-82 -34.5t-82 34.5t-35 81.5z" />
<glyph unicode="&#xba;" horiz-adv-x="774" d="M92 1075q0 133 83 223.5t212 90.5t212 -90.5t83 -223.5t-83 -223t-212 -90t-212 90t-83 223zM215 1075q0 -88 46 -147.5t126 -59.5t126 59.5t46 147.5t-46 147.5t-126 59.5t-126 -59.5t-46 -147.5z" />
<glyph unicode="&#xbb;" horiz-adv-x="1140" d="M123 145q0 27 29 56l247 237l-247 238q-29 29 -29 55q0 33 22.5 54.5t55.5 21.5q29 0 51 -23l303 -292q27 -27 27 -53.5t-27 -53.5l-303 -293q-23 -23 -51 -22q-33 0 -55.5 21t-22.5 54zM590 145q0 27 28 56l248 237l-248 238q-29 29 -28 55q0 33 22.5 54.5t55.5 21.5 q29 0 51 -23l303 -292q27 -27 27 -53.5t-27 -53.5l-303 -293q-23 -23 -51 -22q-33 0 -55.5 21t-22.5 54z" />
<glyph unicode="&#xbc;" d="M139 608q0 47 35 82t82 35t82 -35t35 -82t-35 -81.5t-82 -34.5t-82 34.5t-35 81.5z" />
<glyph unicode="&#xbd;" d="M139 608q0 47 35 82t82 35t82 -35t35 -82t-35 -81.5t-82 -34.5t-82 34.5t-35 81.5z" />
<glyph unicode="&#xbe;" d="M139 608q0 47 35 82t82 35t82 -35t35 -82t-35 -81.5t-82 -34.5t-82 34.5t-35 81.5z" />
<glyph unicode="&#xbf;" horiz-adv-x="919" d="M82 -109q0 80 40 150t140 156q98 86 127 125.5t29 111.5v55q0 37 25.5 64t64.5 27t64.5 -27t25.5 -64v-53q0 -106 -36 -162.5t-142 -154.5q-96 -90 -127 -130t-31 -89q0 -137 207 -138q121 0 244 70q41 23 61 23q33 0 55.5 -21.5t22.5 -54.5q0 -53 -82 -98 q-141 -80 -307 -80q-170 0 -275.5 74.5t-105.5 215.5zM391 797q0 47 35 81.5t82 34.5t82 -34.5t35 -81.5t-35 -82t-82 -35t-82 35t-35 82z" />
<glyph unicode="&#xc0;" horiz-adv-x="1212" d="M53 68q0 12 8 36l457 1213q25 63 88.5 63t87.5 -63l457 -1213q8 -25 8 -36q0 -35 -24.5 -59.5t-65.5 -24.5q-61 0 -82 55l-106 280h-549l-107 -280q-20 -55 -82 -55q-41 0 -65.5 24.5t-24.5 59.5zM391 483h430l-215 607zM403 1686q0 31 21.5 51t56.5 20t60 -26l102 -117 q25 -25 25 -49q0 -37 -23.5 -57.5t-54.5 -20.5q-37 0 -62 29l-100 112q-25 29 -25 58z" />
<glyph unicode="&#xc1;" horiz-adv-x="1212" d="M53 68q0 12 8 36l457 1213q25 63 88.5 63t87.5 -63l457 -1213q8 -25 8 -36q0 -35 -24.5 -59.5t-65.5 -24.5q-61 0 -82 55l-106 280h-549l-107 -280q-20 -55 -82 -55q-41 0 -65.5 24.5t-24.5 59.5zM391 483h430l-215 607zM537 1565q0 25 24 49l103 117q25 27 59.5 26.5 t56 -21t21.5 -50.5q0 -29 -25 -58l-100 -112q-25 -29 -62 -29q-31 0 -54 20.5t-23 57.5z" />
<glyph unicode="&#xc2;" horiz-adv-x="1212" d="M53 68q0 12 8 36l457 1213q25 63 88.5 63t87.5 -63l457 -1213q8 -25 8 -36q0 -35 -24.5 -59.5t-65.5 -24.5q-61 0 -82 55l-106 280h-549l-107 -280q-20 -55 -82 -55q-41 0 -65.5 24.5t-24.5 59.5zM373 1548q0 27 20 47l162 144q27 23 51.5 22.5t50.5 -22.5l162 -144 q20 -20 21 -47q0 -25 -19.5 -43t-44.5 -18q-23 0 -45 18l-125 113l-125 -113q-23 -18 -45 -18q-25 0 -44 18t-19 43zM391 483h430l-215 607z" />
<glyph unicode="&#xc3;" horiz-adv-x="1212" d="M53 68q0 12 8 36l457 1213q25 63 88.5 63t87.5 -63l457 -1213q8 -25 8 -36q0 -35 -24.5 -59.5t-65.5 -24.5q-61 0 -82 55l-106 280h-549l-107 -280q-20 -55 -82 -55q-41 0 -65.5 24.5t-24.5 59.5zM315 1561q0 18 9 32q27 45 38 62q41 72 117 71q47 0 129 -36 q84 -39 115 -39q14 0 24.5 5t15.5 11t15 23q27 43 60 43q27 0 46 -15.5t19 -40.5q0 -20 -8 -32q-6 -8 -39 -62q-41 -72 -115 -72q-45 0 -133 37q-88 39 -110 39q-33 0 -58 -39q-29 -43 -59 -43q-29 0 -47.5 15.5t-18.5 40.5zM391 483h430l-215 607z" />
<glyph unicode="&#xc4;" horiz-adv-x="1212" d="M53 68q0 12 8 36l457 1213q25 63 88.5 63t87.5 -63l457 -1213q8 -25 8 -36q0 -35 -24.5 -59.5t-65.5 -24.5q-61 0 -82 55l-106 280h-549l-107 -280q-20 -55 -82 -55q-41 0 -65.5 24.5t-24.5 59.5zM338 1618q0 41 29.5 69.5t68.5 28.5t69 -28.5t30 -69.5t-30 -69.5 t-69 -28.5t-68.5 28.5t-29.5 69.5zM391 483h430l-215 607zM680 1618q0 41 28.5 69.5t69.5 28.5t70 -28.5t29 -69.5t-29 -69.5t-70 -28.5t-69.5 28.5t-28.5 69.5z" />
<glyph unicode="&#xc5;" horiz-adv-x="1208" d="M53 68q0 12 8 36l457 1213q4 12 8 18q-78 39 -77 135q0 66 43 108t112.5 42t112.5 -42t43 -108q0 -94 -78 -135q4 -6 8 -18l457 -1213q8 -25 8 -36q0 -35 -23.5 -59.5t-64.5 -24.5q-61 0 -82 55l-106 280h-549l-107 -280q-20 -55 -82 -55q-41 0 -64.5 24.5t-23.5 59.5z M389 483h430l-215 609zM539 1470.5q0 -30.5 17 -51t48 -20.5t48.5 20.5t17.5 51t-17.5 51t-48.5 20.5t-48 -20.5t-17 -51z" />
<glyph unicode="&#xc6;" horiz-adv-x="1665" d="M53 68q0 12 8 36l457 1196q25 63 86 64h901q35 0 60.5 -24.5t25.5 -59.5q0 -37 -24.5 -60.5t-61.5 -23.5h-776l160 -416h401q35 0 59.5 -24.5t24.5 -59t-24.5 -59.5t-59.5 -25h-338l170 -444h400q37 0 61.5 -23.5t24.5 -60.5q0 -35 -26 -59.5t-60 -24.5h-461 q-61 0 -82 55l-100 264h-549l-107 -280q-20 -55 -82 -55q-41 0 -64.5 24.5t-23.5 59.5zM389 483h430l-215 596z" />
<glyph unicode="&#xc7;" horiz-adv-x="1179" d="M92 682q0 313 155.5 510t416.5 197q262 0 423 -218q20 -29 20.5 -63.5t-23 -58t-62.5 -23.5q-45 0 -80 49q-106 147 -272 148q-180 0 -287 -147.5t-107 -393.5t106.5 -393.5t287.5 -147.5q166 0 272 148q35 49 80 49q39 0 62.5 -23.5t23.5 -58.5t-21 -63 q-150 -199 -382 -216l-33 -86q25 12 73 13q70 0 116 -35t46 -104.5t-56 -116.5t-161 -47q-74 0 -121 16q-55 16 -55 53q0 47 45 47q10 0 51 -10q37 -10 80 -10q88 0 88 61q0 57 -80 58q-27 0 -54.5 -6.5t-39.5 -6.5q-45 0 -45 39q0 8 8 29q4 14 11.5 33.5t15.5 42t12 33.5 q-236 20 -375 213.5t-139 488.5z" />
<glyph unicode="&#xc8;" horiz-adv-x="1056" d="M154 92v1180q0 39 27.5 65.5t66.5 26.5h649q35 0 60.5 -24.5t25.5 -59.5q0 -37 -24.5 -60.5t-61.5 -23.5h-559v-416h344q35 0 59.5 -24.5t24.5 -59t-24.5 -59.5t-59.5 -25h-344v-444h575q37 0 61.5 -23.5t24.5 -60.5q0 -35 -25.5 -59.5t-60.5 -24.5h-665 q-41 0 -67.5 26.5t-26.5 65.5zM395 1686q0 31 21.5 51t56.5 20t59 -26l103 -117q25 -25 24 -49q0 -37 -23.5 -57.5t-53.5 -20.5q-37 0 -62 29l-100 112q-25 29 -25 58z" />
<glyph unicode="&#xc9;" horiz-adv-x="1056" d="M154 92v1180q0 39 27.5 65.5t66.5 26.5h649q35 0 60.5 -24.5t25.5 -59.5q0 -37 -24.5 -60.5t-61.5 -23.5h-559v-416h344q35 0 59.5 -24.5t24.5 -59t-24.5 -59.5t-59.5 -25h-344v-444h575q37 0 61.5 -23.5t24.5 -60.5q0 -35 -25.5 -59.5t-60.5 -24.5h-665 q-41 0 -67.5 26.5t-26.5 65.5zM479 1565q0 25 25 49l102 117q25 27 59.5 26.5t56 -21t21.5 -50.5q0 -29 -24 -58l-101 -112q-25 -29 -61 -29q-31 0 -54.5 20.5t-23.5 57.5z" />
<glyph unicode="&#xca;" horiz-adv-x="1056" d="M154 92v1180q0 39 27.5 65.5t66.5 26.5h649q35 0 60.5 -24.5t25.5 -59.5q0 -37 -24.5 -60.5t-61.5 -23.5h-559v-416h344q35 0 59.5 -24.5t24.5 -59t-24.5 -59.5t-59.5 -25h-344v-444h575q37 0 61.5 -23.5t24.5 -60.5q0 -35 -25.5 -59.5t-60.5 -24.5h-665 q-41 0 -67.5 26.5t-26.5 65.5zM338 1548q0 27 20 47l162 144q27 23 51.5 22.5t51.5 -22.5l161 -144q20 -20 21 -47q0 -25 -19.5 -43t-44.5 -18q-23 0 -45 18l-125 113l-125 -113q-23 -18 -45 -18q-25 0 -44 18t-19 43z" />
<glyph unicode="&#xcb;" horiz-adv-x="1056" d="M154 92v1180q0 39 27.5 65.5t66.5 26.5h649q35 0 60.5 -24.5t25.5 -59.5q0 -37 -24.5 -60.5t-61.5 -23.5h-559v-416h344q35 0 59.5 -24.5t24.5 -59t-24.5 -59.5t-59.5 -25h-344v-444h575q37 0 61.5 -23.5t24.5 -60.5q0 -35 -25.5 -59.5t-60.5 -24.5h-665 q-41 0 -67.5 26.5t-26.5 65.5zM309 1618q0 41 30 69.5t68.5 28.5t68.5 -28.5t30 -69.5t-30 -69.5t-68.5 -28.5t-68.5 28.5t-30 69.5zM651 1618q0 41 29 69.5t70 28.5t69.5 -28.5t28.5 -69.5t-28.5 -69.5t-69.5 -28.5t-70 28.5t-29 69.5z" />
<glyph unicode="&#xcc;" d="M59 1686q0 31 21.5 51t56.5 20t60 -26l102 -117q25 -25 25 -49q0 -37 -24 -57.5t-54 -20.5q-37 0 -62 29l-100 112q-25 29 -25 58zM164 76v1212q0 39 26.5 65.5t65.5 26.5t65.5 -26.5t26.5 -65.5v-1212q0 -39 -26.5 -65.5t-65.5 -26.5t-65.5 26.5t-26.5 65.5z" />
<glyph unicode="&#xcd;" d="M164 76v1212q0 39 26.5 65.5t65.5 26.5t65.5 -26.5t26.5 -65.5v-1212q0 -39 -26.5 -65.5t-65.5 -26.5t-65.5 26.5t-26.5 65.5zM184 1565q0 25 25 49l102 117q25 27 60 26.5t56.5 -21t21.5 -50.5q0 -29 -25 -58l-100 -112q-25 -29 -62 -29q-31 0 -54.5 20.5t-23.5 57.5z " />
<glyph unicode="&#xce;" d="M23 1548q0 27 20 47l162 144q27 23 51.5 22.5t50.5 -22.5l162 -144q20 -20 20 -47q0 -25 -19 -43t-44 -18q-23 0 -45 18l-125 113l-125 -113q-23 -18 -45 -18q-25 0 -44 18t-19 43zM164 76v1212q0 39 26.5 65.5t65.5 26.5t65.5 -26.5t26.5 -65.5v-1212q0 -39 -26.5 -65.5 t-65.5 -26.5t-65.5 26.5t-26.5 65.5z" />
<glyph unicode="&#xcf;" d="M-12 1618q0 41 28.5 69.5t69.5 28.5t69.5 -28.5t28.5 -69.5t-28.5 -69.5t-69.5 -28.5t-69.5 28.5t-28.5 69.5zM164 76v1212q0 39 26.5 65.5t65.5 26.5t65.5 -26.5t26.5 -65.5v-1212q0 -39 -26.5 -65.5t-65.5 -26.5t-65.5 26.5t-26.5 65.5zM330 1618q0 41 29.5 69.5 t68.5 28.5t68.5 -28.5t29.5 -69.5t-29.5 -69.5t-68.5 -28.5t-68.5 28.5t-29.5 69.5z" />
<glyph unicode="&#xd0;" horiz-adv-x="1320" d="M45 682q0 35 23.5 56.5t58.5 21.5h115v510q0 41 26.5 67.5t67.5 26.5h305q283 0 437.5 -186.5t154.5 -495.5t-154.5 -495.5t-437.5 -186.5h-305q-41 0 -67.5 26.5t-26.5 67.5v510h-115q-35 0 -58.5 21.5t-23.5 56.5zM426 168h211q205 0 308.5 145.5t103.5 368.5 t-103.5 368.5t-308.5 145.5h-211v-436h236q35 0 58 -21.5t23 -56.5t-23.5 -56.5t-57.5 -21.5h-236v-436z" />
<glyph unicode="&#xd1;" horiz-adv-x="1288" d="M154 72v1220q0 39 25.5 63.5t62.5 24.5q47 0 75 -43l641 -979v934q0 37 26 62.5t62.5 25.5t62.5 -25.5t26 -62.5v-1220q0 -35 -24 -61.5t-64 -26.5q-49 0 -76 39l-641 981v-932q0 -37 -25.5 -62.5t-62.5 -25.5t-62.5 25.5t-25.5 62.5zM348 1561q0 18 8 32q27 45 39 62 q41 72 117 71q47 0 129 -36q84 -39 115 -39q14 0 24.5 5t15.5 11t15 23q27 43 59 43q27 0 46.5 -15.5t19.5 -40.5q0 -20 -8 -32q-6 -8 -39 -62q-41 -72 -115 -72q-45 0 -133 37q-88 39 -111 39q-33 0 -57 -39q-29 -43 -59 -43q-29 0 -47.5 15.5t-18.5 40.5z" />
<glyph unicode="&#xd2;" horiz-adv-x="1327" d="M92 682q0 299 155.5 503t416 204t416 -204t155.5 -503t-155.5 -503t-416 -204t-416 204t-155.5 503zM276 682q0 -223 101.5 -382t286 -159t286 159t101.5 382t-101.5 382t-286 159t-286 -159t-101.5 -382zM475 1686q0 31 21.5 51t56.5 20t59 -26l103 -117q25 -25 24 -49 q0 -37 -23.5 -57.5t-53.5 -20.5q-37 0 -62 29l-100 112q-25 29 -25 58z" />
<glyph unicode="&#xd3;" horiz-adv-x="1327" d="M92 682q0 299 155.5 503t416 204t416 -204t155.5 -503t-155.5 -503t-416 -204t-416 204t-155.5 503zM276 682q0 -223 101.5 -382t286 -159t286 159t101.5 382t-101.5 382t-286 159t-286 -159t-101.5 -382zM584 1565q0 25 24 49l103 117q25 27 59.5 26.5t56 -21 t21.5 -50.5q0 -29 -25 -58l-100 -112q-25 -29 -61 -29q-31 0 -54.5 20.5t-23.5 57.5z" />
<glyph unicode="&#xd4;" horiz-adv-x="1327" d="M92 682q0 299 155.5 503t416 204t416 -204t155.5 -503t-155.5 -503t-416 -204t-416 204t-155.5 503zM276 682q0 -223 101.5 -382t286 -159t286 159t101.5 382t-101.5 382t-286 159t-286 -159t-101.5 -382zM428 1548q0 27 21 47l161 144q27 23 51.5 22.5t51.5 -22.5 l161 -144q20 -20 21 -47q0 -25 -19.5 -43t-44.5 -18q-23 0 -45 18l-124 113l-125 -113q-23 -18 -45 -18q-25 0 -44.5 18t-19.5 43z" />
<glyph unicode="&#xd5;" horiz-adv-x="1327" d="M92 682q0 299 155.5 503t416 204t416 -204t155.5 -503t-155.5 -503t-416 -204t-416 204t-155.5 503zM276 682q0 -223 101.5 -382t286 -159t286 159t101.5 382t-101.5 382t-286 159t-286 -159t-101.5 -382zM371 1561q0 18 8 32q27 45 39 62q41 72 117 71q47 0 129 -36 q84 -39 114 -39q14 0 24.5 5t15.5 11t16 23q27 43 59 43q27 0 46 -15.5t19 -40.5q0 -20 -8 -32q-6 -8 -39 -62q-41 -72 -114 -72q-45 0 -133 37q-88 39 -111 39q-33 0 -57 -39q-29 -43 -60 -43q-29 0 -47 15.5t-18 40.5z" />
<glyph unicode="&#xd6;" horiz-adv-x="1327" d="M92 682q0 299 155.5 503t416 204t416 -204t155.5 -503t-155.5 -503t-416 -204t-416 204t-155.5 503zM276 682q0 -223 101.5 -382t286 -159t286 159t101.5 382t-101.5 382t-286 159t-286 -159t-101.5 -382zM395 1618q0 41 30 69.5t68.5 28.5t68.5 -28.5t30 -69.5 t-30 -69.5t-68.5 -28.5t-68.5 28.5t-30 69.5zM737 1618q0 41 29 69.5t70 28.5t69.5 -28.5t28.5 -69.5t-28.5 -69.5t-69.5 -28.5t-70 28.5t-29 69.5z" />
<glyph unicode="&#xd7;" horiz-adv-x="983" d="M143 940q0 29 22.5 49.5t53.5 20.5t64 -33l209 -209l208 209q33 33 64 33t53.5 -20.5t22.5 -49.5q0 -35 -29 -63l-215 -215l219 -220q23 -23 23 -55q0 -31 -22.5 -51.5t-55.5 -20.5q-29 0 -51 23l-217 219l-218 -219q-23 -23 -51 -23q-33 0 -55.5 20.5t-22.5 51.5 q0 33 23 55l219 220l-215 215q-29 28 -29 63z" />
<glyph unicode="&#xd8;" horiz-adv-x="1327" d="M92 -70q0 16 10 33l148 213q-158 199 -158 506q0 299 155.5 503t416.5 204q190 0 333 -121l136 198q18 25 43 25q23 0 41 -15.5t18 -39.5q0 -23 -10 -37l-148 -213q158 -199 158 -504q0 -299 -155.5 -503t-415.5 -204q-197 0 -334 119l-133 -194q-18 -27 -45 -27 q-23 0 -41.5 17t-18.5 40zM276 682q0 -201 80 -348l543 790q-98 98 -235 99q-184 0 -286 -159t-102 -382zM428 238q96 -96 236 -97q184 0 285.5 159t101.5 382q0 199 -80 346z" />
<glyph unicode="&#xd9;" horiz-adv-x="1294" d="M143 498v790q0 39 27 65.5t65.5 26.5t65.5 -26.5t27 -65.5v-807q0 -164 82 -251t237.5 -87t237.5 87t82 251v807q0 39 26.5 65.5t65.5 26.5t65.5 -26.5t26.5 -65.5v-790q0 -246 -132 -384.5t-371.5 -138.5t-372 138.5t-132.5 384.5zM475 1686q0 31 21.5 51t56.5 20 t59 -26l103 -117q25 -25 24 -49q0 -37 -23.5 -57.5t-53.5 -20.5q-37 0 -62 29l-100 112q-25 29 -25 58z" />
<glyph unicode="&#xda;" horiz-adv-x="1294" d="M143 498v790q0 39 27 65.5t65.5 26.5t65.5 -26.5t27 -65.5v-807q0 -164 82 -251t237.5 -87t237.5 87t82 251v807q0 39 26.5 65.5t65.5 26.5t65.5 -26.5t26.5 -65.5v-790q0 -246 -132 -384.5t-371.5 -138.5t-372 138.5t-132.5 384.5zM539 1565q0 25 24 49l103 117 q25 27 59.5 26.5t56 -21t21.5 -50.5q0 -29 -25 -58l-100 -112q-25 -29 -62 -29q-31 0 -54 20.5t-23 57.5z" />
<glyph unicode="&#xdb;" horiz-adv-x="1294" d="M143 498v790q0 39 27 65.5t65.5 26.5t65.5 -26.5t27 -65.5v-807q0 -164 82 -251t237.5 -87t237.5 87t82 251v807q0 39 26.5 65.5t65.5 26.5t65.5 -26.5t26.5 -65.5v-790q0 -246 -132 -384.5t-371.5 -138.5t-372 138.5t-132.5 384.5zM416 1548q0 27 20 47l162 144 q27 23 51.5 22.5t50.5 -22.5l162 -144q20 -20 21 -47q0 -25 -19.5 -43t-44.5 -18q-23 0 -45 18l-125 113l-125 -113q-23 -18 -45 -18q-25 0 -44 18t-19 43z" />
<glyph unicode="&#xdc;" horiz-adv-x="1294" d="M143 498v790q0 39 27 65.5t65.5 26.5t65.5 -26.5t27 -65.5v-807q0 -164 82 -251t237.5 -87t237.5 87t82 251v807q0 39 26.5 65.5t65.5 26.5t65.5 -26.5t26.5 -65.5v-790q0 -246 -132 -384.5t-371.5 -138.5t-372 138.5t-132.5 384.5zM379 1618q0 41 29.5 69.5t68.5 28.5 t68.5 -28.5t29.5 -69.5t-29.5 -69.5t-68.5 -28.5t-68.5 28.5t-29.5 69.5zM721 1618q0 41 28.5 69.5t69.5 28.5t70 -28.5t29 -69.5t-29 -69.5t-70 -28.5t-69.5 28.5t-28.5 69.5z" />
<glyph unicode="&#xdd;" horiz-adv-x="1019" d="M16 1296q0 37 26 60.5t64 23.5q49 0 76 -45l328 -592l328 592q27 45 75 45q39 0 65 -23.5t26 -60.5q0 -20 -15 -49l-387 -686v-485q0 -39 -26.5 -65.5t-65.5 -26.5t-65.5 26.5t-26.5 65.5v485l-387 686q-15 29 -15 49zM424 1565q0 25 25 49l102 117q25 27 59.5 26.5 t56 -21t21.5 -50.5q0 -29 -24 -58l-101 -112q-25 -29 -61 -29q-31 0 -54.5 20.5t-23.5 57.5z" />
<glyph unicode="&#xde;" horiz-adv-x="1120" d="M154 76v1212q0 39 26.5 65.5t65.5 26.5t65.5 -26.5t26.5 -65.5v-194h283q225 0 343.5 -111t118.5 -295t-118.5 -293.5t-343.5 -109.5h-283v-209q0 -39 -26.5 -65.5t-65.5 -26.5t-65.5 26.5t-26.5 65.5zM338 453h321q113 0 175.5 64.5t62.5 171t-62.5 172t-175.5 65.5 h-321v-473z" />
<glyph unicode="&#xdf;" horiz-adv-x="1200" d="M139 74v911q0 195 103.5 299.5t302.5 104.5q178 0 284.5 -83t106.5 -229q0 -66 -22.5 -112.5t-86.5 -130.5q-8 -12 -27.5 -37t-28.5 -37t-20.5 -31.5t-16.5 -36t-5 -33.5q0 -41 35 -68.5t135 -72.5q125 -57 179.5 -117.5t54.5 -160.5q0 -113 -84 -189t-252 -76 q-160 0 -269 82q-43 37 -43 80q0 31 19.5 50.5t50.5 19.5q33 0 70 -31q76 -59 176 -59q72 0 113.5 31.5t41.5 80.5q0 55 -35.5 88t-127.5 70q-137 55 -192.5 116.5t-55.5 154t108 225.5q39 47 55.5 70.5t33 57t16.5 64.5q0 72 -57.5 117t-151.5 45q-113 0 -171.5 -57.5 t-58.5 -190.5v-915q0 -39 -24.5 -64.5t-65.5 -25.5t-65.5 25.5t-24.5 64.5z" />
<glyph unicode="&#xe0;" horiz-adv-x="999" d="M102 246q0 125 90.5 196.5t241.5 71.5q82 0 150.5 -31.5t103.5 -83.5v125q0 238 -231 238q-86 0 -174 -39q-45 -18 -76 -18q-33 0 -53.5 20t-20.5 49q0 45 47 72q115 68 291 67q193 0 295 -96t102 -285v-458q0 -37 -25.5 -63.5t-64.5 -26.5t-64.5 26.5t-25.5 63.5v28 q-84 -127 -266 -127q-147 0 -233.5 74t-86.5 197zM279 244q0 -66 53 -106t147 -40q90 0 149.5 42t59.5 104q0 68 -63.5 107.5t-145.5 39.5q-90 0 -145 -38.5t-55 -108.5zM307 1264q0 33 22.5 52t55.5 19q39 0 64 -32l114 -160q16 -23 17 -47q0 -31 -21.5 -52.5t-54.5 -21.5 q-41 0 -66 35l-112 155q-19 25 -19 52z" />
<glyph unicode="&#xe1;" horiz-adv-x="999" d="M102 246q0 125 90.5 196.5t241.5 71.5q82 0 150.5 -31.5t103.5 -83.5v125q0 238 -231 238q-86 0 -174 -39q-45 -18 -76 -18q-33 0 -53.5 20t-20.5 49q0 45 47 72q115 68 291 67q193 0 295 -96t102 -285v-458q0 -37 -25.5 -63.5t-64.5 -26.5t-64.5 26.5t-25.5 63.5v28 q-84 -127 -266 -127q-147 0 -233.5 74t-86.5 197zM279 244q0 -66 53 -106t147 -40q90 0 149.5 42t59.5 104q0 68 -63.5 107.5t-145.5 39.5q-90 0 -145 -38.5t-55 -108.5zM393 1096q0 25 17 47l114 160q25 33 64 32q33 0 55.5 -19.5t22.5 -51.5q0 -27 -19 -52l-112 -155 q-25 -35 -66 -35q-31 0 -53.5 21.5t-22.5 52.5z" />
<glyph unicode="&#xe2;" horiz-adv-x="999" d="M102 246q0 125 90.5 196.5t241.5 71.5q82 0 150.5 -31.5t103.5 -83.5v125q0 238 -231 238q-86 0 -174 -39q-45 -18 -76 -18q-33 0 -53.5 20t-20.5 49q0 45 47 72q115 68 291 67q193 0 295 -96t102 -285v-458q0 -37 -25.5 -63.5t-64.5 -26.5t-64.5 26.5t-25.5 63.5v28 q-84 -127 -266 -127q-147 0 -233.5 74t-86.5 197zM238 1083q0 25 24 50l184 176q25 25 51.5 24.5t51.5 -24.5l184 -176q25 -25 25 -50q0 -27 -20.5 -44t-49.5 -17q-20 0 -47 22l-143 134l-144 -134q-27 -23 -47 -22q-29 0 -49 17t-20 44zM279 244q0 -66 53 -106t147 -40 q90 0 149.5 42t59.5 104q0 68 -63.5 107.5t-145.5 39.5q-90 0 -145 -38.5t-55 -108.5z" />
<glyph unicode="&#xe3;" horiz-adv-x="999" d="M102 246q0 125 90.5 196.5t241.5 71.5q82 0 150.5 -31.5t103.5 -83.5v125q0 238 -231 238q-86 0 -174 -39q-45 -18 -76 -18q-33 0 -53.5 20t-20.5 49q0 45 47 72q115 68 291 67q193 0 295 -96t102 -285v-458q0 -37 -25.5 -63.5t-64.5 -26.5t-64.5 26.5t-25.5 63.5v28 q-84 -127 -266 -127q-147 0 -233.5 74t-86.5 197zM221 1114q0 18 8 33q16 25 37 59q43 70 115 70q51 0 121 -35q78 -39 102 -39q33 0 58 39q27 41 57 41q27 0 45 -15.5t18 -37.5q0 -18 -8 -33q-16 -25 -37 -59q-43 -70 -114 -70q-51 0 -121 35q-78 39 -103 39q-33 0 -57 -39 q-27 -41 -57 -41q-27 0 -45.5 15t-18.5 38zM279 244q0 -66 53 -106t147 -40q90 0 149.5 42t59.5 104q0 68 -63.5 107.5t-145.5 39.5q-90 0 -145 -38.5t-55 -108.5z" />
<glyph unicode="&#xe4;" horiz-adv-x="999" d="M102 246q0 125 90.5 196.5t241.5 71.5q82 0 150.5 -31.5t103.5 -83.5v125q0 238 -231 238q-86 0 -174 -39q-45 -18 -76 -18q-33 0 -53.5 20t-20.5 49q0 45 47 72q115 68 291 67q193 0 295 -96t102 -285v-458q0 -37 -25.5 -63.5t-64.5 -26.5t-64.5 26.5t-25.5 63.5v28 q-84 -127 -266 -127q-147 0 -233.5 74t-86.5 197zM240 1171q0 43 29.5 73t72.5 30t72.5 -30t29.5 -73t-29.5 -72.5t-72.5 -29.5t-72.5 29.5t-29.5 72.5zM279 244q0 -66 53 -106t147 -40q90 0 149.5 42t59.5 104q0 68 -63.5 107.5t-145.5 39.5q-90 0 -145 -38.5t-55 -108.5z M573 1171q0 43 30 73t73 30t72.5 -30t29.5 -73t-29.5 -72.5t-72.5 -29.5t-73 29.5t-30 72.5z" />
<glyph unicode="&#xe5;" horiz-adv-x="999" d="M102 246q0 125 90.5 196.5t241.5 71.5q82 0 150.5 -31.5t103.5 -83.5v125q0 238 -231 238q-86 0 -174 -39q-45 -18 -76 -18q-33 0 -53.5 20t-20.5 49q0 45 47 72q115 68 291 67q193 0 295 -96t102 -285v-458q0 -37 -25.5 -63.5t-64.5 -26.5t-64.5 26.5t-25.5 63.5v28 q-84 -127 -266 -127q-147 0 -233.5 74t-86.5 197zM279 244q0 -66 53 -106t147 -40q90 0 149.5 42t59.5 104q0 68 -63.5 107.5t-145.5 39.5q-90 0 -145 -38.5t-55 -108.5zM348 1173.5q0 65.5 43 107.5t112.5 42t112.5 -42t43 -107.5t-43 -108.5t-112.5 -43t-112.5 43 t-43 108.5zM438 1173.5q0 -30.5 17.5 -51t48.5 -20.5t48 20.5t17 51t-17 51t-48 20.5t-48.5 -20.5t-17.5 -51z" />
<glyph unicode="&#xe6;" horiz-adv-x="1554" d="M102 248q0 123 90.5 197.5t235.5 74.5q160 0 254 -98v104q0 117 -55.5 175.5t-175.5 58.5q-104 0 -187 -39q-41 -18 -65 -19q-33 0 -53.5 21.5t-20.5 54.5q0 49 86 88q102 47 254 47q231 0 313 -165q111 166 326 165q178 0 280.5 -134t102.5 -335q0 -27 -16.5 -46 t-49.5 -19h-553q4 -121 72 -189.5t180 -68.5q119 0 205 102q33 37 72 37q35 0 53 -20.5t18 -51.5q0 -25 -20 -55q-119 -158 -334 -158q-111 0 -200 44t-132 118q-115 -162 -342 -162q-154 0 -246 79t-92 194zM274 248q0 -68 56.5 -107t144.5 -39t147.5 41t59.5 105 q0 61 -58.5 102t-146.5 41q-90 0 -146.5 -38.5t-56.5 -104.5zM872 520h449q-10 106 -66.5 178t-150.5 72q-98 0 -160 -70.5t-72 -179.5z" />
<glyph unicode="&#xe7;" horiz-adv-x="915" d="M82 444q0 199 113.5 334t318.5 135q199 0 313 -151q25 -31 25 -68q0 -33 -23.5 -52t-56.5 -19q-37 0 -67 41q-74 100 -189 100q-119 0 -186.5 -93t-67.5 -226.5t67.5 -226.5t186.5 -93q115 0 189 100q31 41 67 41q33 0 56.5 -19.5t23.5 -51.5q0 -37 -25 -68 q-106 -141 -288 -150l-31 -86q25 12 74 13q70 0 115.5 -35t45.5 -104.5t-56 -116.5t-161 -47q-74 0 -120 16q-55 16 -56 53q0 47 45 47q10 0 51 -10q37 -10 80 -10q88 0 88 61q0 57 -79 58q-27 0 -54.5 -6.5t-40.5 -6.5q-45 0 -45 39q0 10 8 31q4 14 11.5 33.5t15.5 42 t12 33.5q-172 23 -266 152.5t-94 309.5z" />
<glyph unicode="&#xe8;" horiz-adv-x="954" d="M82 444q0 201 116.5 335t303.5 134q182 0 283.5 -136t101.5 -335q0 -27 -17.5 -45t-52.5 -18h-549q4 -117 72 -188.5t180 -71.5q115 0 203 104q31 35 70 35q31 0 53 -18.5t22 -51.5q0 -29 -20 -55q-131 -158 -334 -158q-209 0 -320.5 133t-111.5 336zM270 522h449 q-10 104 -66.5 174t-150.5 70q-98 0 -157 -67.5t-75 -176.5zM299 1264q0 33 22.5 52t55.5 19q39 0 63 -32l115 -160q16 -23 16 -47q0 -31 -21.5 -52.5t-53.5 -21.5q-41 0 -66 35l-113 155q-18 25 -18 52z" />
<glyph unicode="&#xe9;" horiz-adv-x="954" d="M82 444q0 201 116.5 335t303.5 134q182 0 283.5 -136t101.5 -335q0 -27 -17.5 -45t-52.5 -18h-549q4 -117 72 -188.5t180 -71.5q115 0 203 104q31 35 70 35q31 0 53 -18.5t22 -51.5q0 -29 -20 -55q-131 -158 -334 -158q-209 0 -320.5 133t-111.5 336zM270 522h449 q-10 104 -66.5 174t-150.5 70q-98 0 -157 -67.5t-75 -176.5zM410 1096q0 25 16 47l115 160q25 33 63 32q33 0 55.5 -19.5t22.5 -51.5q0 -27 -18 -52l-113 -155q-25 -35 -66 -35q-31 0 -53 21.5t-22 52.5z" />
<glyph unicode="&#xea;" horiz-adv-x="954" d="M82 444q0 201 116.5 335t303.5 134q182 0 283.5 -136t101.5 -335q0 -27 -17.5 -45t-52.5 -18h-549q4 -117 72 -188.5t180 -71.5q115 0 203 104q31 35 70 35q31 0 53 -18.5t22 -51.5q0 -29 -20 -55q-131 -158 -334 -158q-209 0 -320.5 133t-111.5 336zM246 1083 q0 25 24 50l185 176q25 25 51 24.5t51 -24.5l184 -176q25 -25 25 -50q0 -27 -20.5 -44t-49.5 -17q-20 0 -47 22l-143 134l-144 -134q-27 -23 -47 -22q-29 0 -49 17t-20 44zM270 522h449q-10 104 -66.5 174t-150.5 70q-98 0 -157 -67.5t-75 -176.5z" />
<glyph unicode="&#xeb;" horiz-adv-x="954" d="M82 444q0 201 116.5 335t303.5 134q182 0 283.5 -136t101.5 -335q0 -27 -17.5 -45t-52.5 -18h-549q4 -117 72 -188.5t180 -71.5q115 0 203 104q31 35 70 35q31 0 53 -18.5t22 -51.5q0 -29 -20 -55q-131 -158 -334 -158q-209 0 -320.5 133t-111.5 336zM240 1171 q0 43 29.5 73t72.5 30t72.5 -30t29.5 -73t-29.5 -72.5t-72.5 -29.5t-72.5 29.5t-29.5 72.5zM270 522h449q-10 104 -66.5 174t-150.5 70q-98 0 -157 -67.5t-75 -176.5zM573 1171q0 43 30 73t73 30t72.5 -30t29.5 -73t-29.5 -72.5t-72.5 -29.5t-73 29.5t-30 72.5z" />
<glyph unicode="&#xec;" horiz-adv-x="466" d="M29 1264q0 33 22.5 52t54.5 19q39 0 64 -32l115 -160q16 -23 16 -47q0 -31 -21.5 -52.5t-54.5 -21.5q-41 0 -65 35l-113 155q-18 25 -18 52zM143 74v741q0 37 26 63.5t64.5 26.5t64.5 -26.5t26 -63.5v-741q0 -37 -26 -63.5t-64.5 -26.5t-64.5 26.5t-26 63.5z" />
<glyph unicode="&#xed;" horiz-adv-x="466" d="M143 74v741q0 37 26 63.5t64.5 26.5t64.5 -26.5t26 -63.5v-741q0 -37 -26 -63.5t-64.5 -26.5t-64.5 26.5t-26 63.5zM164 1096q0 25 16 47l115 160q25 33 63 32q33 0 55.5 -19.5t22.5 -51.5q0 -27 -18 -52l-113 -155q-25 -35 -65 -35q-31 0 -53.5 21.5t-22.5 52.5z" />
<glyph unicode="&#xee;" horiz-adv-x="466" d="M-27 1083q0 25 25 50l184 176q25 25 51.5 24.5t51.5 -24.5l184 -176q25 -25 25 -50q0 -27 -20.5 -44t-49.5 -17q-20 0 -47 22l-144 134l-143 -134q-27 -23 -47 -22q-29 0 -49.5 17t-20.5 44zM143 74v741q0 37 26 63.5t64.5 26.5t64.5 -26.5t26 -63.5v-741 q0 -37 -26 -63.5t-64.5 -26.5t-64.5 26.5t-26 63.5z" />
<glyph unicode="&#xef;" horiz-adv-x="466" d="M-35 1171q0 43 30 73t73 30t72.5 -30t29.5 -73t-29.5 -72.5t-72.5 -29.5t-73 29.5t-30 72.5zM143 74v741q0 37 26 63.5t64.5 26.5t64.5 -26.5t26 -63.5v-741q0 -37 -26 -63.5t-64.5 -26.5t-64.5 26.5t-26 63.5zM299 1171q0 43 29.5 73t72.5 30t73 -30t30 -73t-30 -72.5 t-73 -29.5t-72.5 29.5t-29.5 72.5z" />
<glyph unicode="&#xf0;" horiz-adv-x="1036" d="M82 408q0 188 110.5 305.5t299.5 117.5q168 0 278 -129q-12 92 -66.5 194.5t-117.5 164.5l-121 -111q-18 -16 -41 -16q-27 0 -47.5 19.5t-20.5 46t23 49.5l106 96q-76 51 -180 104q-43 20 -43 66q0 33 20.5 53.5t55.5 20.5q18 0 43 -11q119 -55 221 -129l88 80 q23 18 45 19q27 0 46.5 -18.5t19.5 -45.5q0 -31 -23 -49l-80 -72q246 -252 246 -680q0 -209 -112.5 -358.5t-327.5 -149.5q-203 0 -312.5 124.5t-109.5 308.5zM260 403q0 -123 64.5 -200.5t181.5 -77.5q119 0 187.5 79t68.5 199q0 129 -70.5 203t-185.5 74 q-117 0 -181.5 -76t-64.5 -201z" />
<glyph unicode="&#xf1;" horiz-adv-x="1071" d="M143 74v741q0 37 26 63.5t64.5 26.5t64.5 -26.5t26 -63.5v-76q84 174 278 174q164 0 250 -110.5t86 -296.5v-432q0 -37 -25.5 -63.5t-64.5 -26.5t-64.5 26.5t-25.5 63.5v430q0 113 -52.5 179.5t-154.5 66.5q-106 0 -166.5 -76t-60.5 -193v-407q0 -37 -26 -63.5 t-64.5 -26.5t-64.5 26.5t-26 63.5zM256 1114q0 18 8 33q14 25 37 59q43 70 115 70q51 0 121 -35q78 -39 102 -39q33 0 57 39q27 41 58 41q27 0 45 -15.5t18 -37.5q0 -18 -8 -33q-14 -25 -37 -59q-43 -70 -115 -70q-51 0 -120 35q-78 39 -103 39q-33 0 -57 -39 q-27 -41 -58 -41q-27 0 -45 15t-18 38z" />
<glyph unicode="&#xf2;" horiz-adv-x="1024" d="M82 444.5q0 196.5 117.5 332.5t312.5 136t312.5 -136t117.5 -332.5t-117.5 -333t-312.5 -136.5t-312.5 136.5t-117.5 333zM262 444.5q0 -133.5 66.5 -225.5t183.5 -92q250 0 250 317q0 133 -66.5 225.5t-183.5 92.5t-183.5 -92t-66.5 -225.5zM322 1264q0 33 22.5 52 t54.5 19q39 0 64 -32l115 -160q16 -23 16 -47q0 -31 -22.5 -52.5t-53.5 -21.5q-41 0 -65 35l-113 155q-18 25 -18 52z" />
<glyph unicode="&#xf3;" horiz-adv-x="1024" d="M82 444.5q0 196.5 117.5 332.5t312.5 136t312.5 -136t117.5 -332.5t-117.5 -333t-312.5 -136.5t-312.5 136.5t-117.5 333zM262 444.5q0 -133.5 66.5 -225.5t183.5 -92q250 0 250 317q0 133 -66.5 225.5t-183.5 92.5t-183.5 -92t-66.5 -225.5zM422 1096q0 25 16 47 l115 160q25 33 63 32q33 0 55.5 -19.5t22.5 -51.5q0 -27 -18 -52l-113 -155q-25 -35 -65 -35q-31 0 -53.5 21.5t-22.5 52.5z" />
<glyph unicode="&#xf4;" horiz-adv-x="1024" d="M82 444.5q0 196.5 117.5 332.5t312.5 136t312.5 -136t117.5 -332.5t-117.5 -333t-312.5 -136.5t-312.5 136.5t-117.5 333zM252 1083q0 25 24 50l185 176q25 25 51.5 24.5t50.5 -24.5l185 -176q25 -25 24 -50q0 -27 -20.5 -44t-49.5 -17q-20 0 -47 22l-143 134l-143 -134 q-27 -23 -47 -22q-29 0 -49.5 17t-20.5 44zM262 444.5q0 -133.5 66.5 -225.5t183.5 -92q250 0 250 317q0 133 -66.5 225.5t-183.5 92.5t-183.5 -92t-66.5 -225.5z" />
<glyph unicode="&#xf5;" horiz-adv-x="1024" d="M82 444.5q0 196.5 117.5 332.5t312.5 136t312.5 -136t117.5 -332.5t-117.5 -333t-312.5 -136.5t-312.5 136.5t-117.5 333zM238 1114q0 18 8 33q16 25 37 59q43 70 114 70q51 0 121 -35q78 -39 103 -39q33 0 57 39q27 41 57 41q27 0 45.5 -15.5t18.5 -37.5q0 -18 -8 -33 q-16 -25 -37 -59q-43 -70 -115 -70q-51 0 -121 35q-78 39 -102 39q-33 0 -58 -39q-27 -41 -57 -41q-27 0 -45 15t-18 38zM262 444.5q0 -133.5 66.5 -225.5t183.5 -92q250 0 250 317q0 133 -66.5 225.5t-183.5 92.5t-183.5 -92t-66.5 -225.5z" />
<glyph unicode="&#xf6;" horiz-adv-x="1024" d="M82 444.5q0 196.5 117.5 332.5t312.5 136t312.5 -136t117.5 -332.5t-117.5 -333t-312.5 -136.5t-312.5 136.5t-117.5 333zM244 1171q0 43 29.5 73t72.5 30t73 -30t30 -73t-30 -72.5t-73 -29.5t-72.5 29.5t-29.5 72.5zM262 444.5q0 -133.5 66.5 -225.5t183.5 -92 q250 0 250 317q0 133 -66.5 225.5t-183.5 92.5t-183.5 -92t-66.5 -225.5zM578 1171q0 43 29.5 73t72.5 30t72.5 -30t29.5 -73t-29.5 -72.5t-72.5 -29.5t-72.5 29.5t-29.5 72.5z" />
<glyph unicode="&#xf7;" horiz-adv-x="1134" d="M123 661.5q0 30.5 21.5 52t54.5 21.5h737q33 0 54.5 -21.5t21.5 -52t-21.5 -52t-54.5 -21.5h-737q-33 0 -54.5 21.5t-21.5 52zM463 313q0 43 30.5 74t73.5 31q45 0 75 -31t30 -74q0 -45 -30 -75.5t-75 -30.5q-43 0 -73.5 30.5t-30.5 75.5zM463 1012q0 43 30.5 73.5 t73.5 30.5q45 0 75 -30.5t30 -73.5q0 -45 -30 -76t-75 -31q-43 0 -73.5 31t-30.5 76z" />
<glyph unicode="&#xf8;" horiz-adv-x="1024" d="M82 -78q0 10 12 29l111 153q-123 133 -123 340q0 197 117.5 333t312.5 136q131 0 231 -67l107 147q18 23 43 23q49 0 49 -51q0 -18 -12 -33l-111 -152q123 -133 123 -336q0 -197 -117.5 -333t-312.5 -136q-129 0 -231 66l-103 -141q-18 -27 -45 -27q-20 0 -35.5 15.5 t-15.5 33.5zM262 444q0 -113 47 -196l340 469q-57 45 -137 45q-117 0 -183.5 -92.5t-66.5 -225.5zM375 170q59 -43 137 -43q117 0 183.5 92t66.5 225q0 111 -47 193z" />
<glyph unicode="&#xf9;" horiz-adv-x="1071" d="M133 383v432q0 37 25.5 63.5t64.5 26.5t64.5 -26.5t25.5 -63.5v-430q0 -113 52.5 -179.5t154.5 -66.5q106 0 167 76t61 193v407q0 37 25.5 63.5t64.5 26.5t64.5 -26.5t25.5 -63.5v-741q0 -37 -25.5 -63.5t-64.5 -26.5t-64.5 26.5t-25.5 63.5v76q-84 -174 -279 -175 q-164 0 -250 111t-86 297zM354 1264q0 33 22.5 52t55.5 19q39 0 64 -32l114 -160q16 -23 17 -47q0 -31 -22.5 -52.5t-53.5 -21.5q-41 0 -66 35l-112 155q-19 25 -19 52z" />
<glyph unicode="&#xfa;" horiz-adv-x="1071" d="M133 383v432q0 37 25.5 63.5t64.5 26.5t64.5 -26.5t25.5 -63.5v-430q0 -113 52.5 -179.5t154.5 -66.5q106 0 167 76t61 193v407q0 37 25.5 63.5t64.5 26.5t64.5 -26.5t25.5 -63.5v-741q0 -37 -25.5 -63.5t-64.5 -26.5t-64.5 26.5t-25.5 63.5v76q-84 -174 -279 -175 q-164 0 -250 111t-86 297zM438 1096q0 25 17 47l114 160q25 33 64 32q33 0 55.5 -19.5t22.5 -51.5q0 -27 -19 -52l-112 -155q-25 -35 -66 -35q-31 0 -53.5 21.5t-22.5 52.5z" />
<glyph unicode="&#xfb;" horiz-adv-x="1071" d="M133 383v432q0 37 25.5 63.5t64.5 26.5t64.5 -26.5t25.5 -63.5v-430q0 -113 52.5 -179.5t154.5 -66.5q106 0 167 76t61 193v407q0 37 25.5 63.5t64.5 26.5t64.5 -26.5t25.5 -63.5v-741q0 -37 -25.5 -63.5t-64.5 -26.5t-64.5 26.5t-25.5 63.5v76q-84 -174 -279 -175 q-164 0 -250 111t-86 297zM287 1083q0 25 24 50l185 176q25 25 51 24.5t51 -24.5l184 -176q25 -25 25 -50q0 -27 -20.5 -44t-49.5 -17q-20 0 -47 22l-143 134l-144 -134q-27 -23 -47 -22q-29 0 -49 17t-20 44z" />
<glyph unicode="&#xfc;" horiz-adv-x="1071" d="M133 383v432q0 37 25.5 63.5t64.5 26.5t64.5 -26.5t25.5 -63.5v-430q0 -113 52.5 -179.5t154.5 -66.5q106 0 167 76t61 193v407q0 37 25.5 63.5t64.5 26.5t64.5 -26.5t25.5 -63.5v-741q0 -37 -25.5 -63.5t-64.5 -26.5t-64.5 26.5t-25.5 63.5v76q-84 -174 -279 -175 q-164 0 -250 111t-86 297zM262 1171q0 43 30 73t73 30t72.5 -30t29.5 -73t-29.5 -72.5t-72.5 -29.5t-73 29.5t-30 72.5zM596 1171q0 43 29.5 73t72.5 30t73 -30t30 -73t-30 -72.5t-73 -29.5t-72.5 29.5t-29.5 72.5z" />
<glyph unicode="&#xfd;" horiz-adv-x="868" d="M45 825q0 37 23.5 58.5t58.5 21.5q59 0 80 -55l239 -653l222 647q23 61 84 61q35 0 57 -21.5t22 -60.5q0 -18 -8 -39q-147 -416 -258 -696q-72 -178 -152.5 -282.5t-209.5 -192.5q-18 -12 -41 -12q-33 0 -56.5 21.5t-23.5 49.5q0 37 41 68q160 123 227 266l-297 785 q-8 20 -8 34zM342 1096q0 25 16 47l115 160q25 33 64 32q33 0 55 -19.5t22 -51.5q0 -27 -18 -52l-113 -155q-25 -35 -65 -35q-33 0 -54.5 21.5t-21.5 52.5z" />
<glyph unicode="&#xfe;" horiz-adv-x="1081" d="M143 -309v1599q0 37 26 63.5t64.5 26.5t64.5 -26.5t26 -63.5v-549q94 172 286 172q170 0 279.5 -132t109.5 -336.5t-109.5 -337t-279.5 -132.5q-193 0 -286 172v-456q0 -37 -26 -63.5t-64.5 -26.5t-64.5 26.5t-26 63.5zM324 444.5q0 -137.5 69.5 -227.5t179.5 -90 q113 0 179.5 91t66.5 226.5t-66.5 226.5t-179.5 91q-111 0 -180 -90t-69 -227.5z" />
<glyph unicode="&#xff;" horiz-adv-x="868" d="M45 825q0 37 23.5 58.5t58.5 21.5q59 0 80 -55l239 -653l222 647q23 61 84 61q35 0 57 -21.5t22 -60.5q0 -18 -8 -39q-147 -416 -258 -696q-72 -178 -152.5 -282.5t-209.5 -192.5q-18 -12 -41 -12q-33 0 -56.5 21.5t-23.5 49.5q0 37 41 68q160 123 227 266l-297 785 q-8 20 -8 34zM170 1171q0 43 29.5 73t72.5 30t73 -30t30 -73t-30 -72.5t-73 -29.5t-72.5 29.5t-29.5 72.5zM504 1171q0 43 29.5 73t72.5 30t73 -30t30 -73t-30 -72.5t-73 -29.5t-72.5 29.5t-29.5 72.5z" />
<glyph unicode="&#x152;" horiz-adv-x="1953" d="M92 682q0 299 155.5 503t416.5 204q248 0 387 -211v94q0 39 27.5 65.5t66.5 26.5h649q35 0 60.5 -24.5t25.5 -59.5q0 -37 -24.5 -60.5t-61.5 -23.5h-559v-416h344q35 0 59.5 -24.5t24.5 -59t-24.5 -59.5t-59.5 -25h-344v-444h575q37 0 61.5 -23.5t24.5 -60.5 q0 -35 -25.5 -59.5t-60.5 -24.5h-665q-41 0 -67.5 26.5t-26.5 65.5v94q-53 -92 -158 -151.5t-229 -59.5q-260 0 -416 204t-156 503zM276 682q0 -223 101.5 -382t286 -159t286 159t101.5 382t-101.5 382t-286 159t-286 -159t-101.5 -382z" />
<glyph unicode="&#x153;" horiz-adv-x="1634" d="M82 444.5q0 196.5 117.5 332.5t312.5 136q217 0 338 -180q125 180 332 180q182 0 283.5 -136t101.5 -335q0 -27 -17.5 -45t-52.5 -18h-549q4 -115 74 -186.5t178 -71.5q115 0 203 104q31 35 70 35q33 0 54 -19.5t21 -52.5q0 -29 -20 -55q-131 -158 -334 -158 q-225 0 -346 179q-125 -178 -336 -179q-195 0 -312.5 136.5t-117.5 333zM262 444.5q0 -133.5 66.5 -225.5t183.5 -92q250 0 250 317q0 133 -66.5 225.5t-183.5 92.5t-183.5 -92t-66.5 -225.5zM950 522h449q-10 104 -66.5 174t-150.5 70q-98 0 -157 -67.5t-75 -176.5z" />
<glyph unicode="&#x178;" horiz-adv-x="1019" d="M16 1296q0 37 26 60.5t64 23.5q49 0 76 -45l328 -592l328 592q27 45 75 45q39 0 65 -23.5t26 -60.5q0 -20 -15 -49l-387 -686v-485q0 -39 -26.5 -65.5t-65.5 -26.5t-65.5 26.5t-26.5 65.5v485l-387 686q-15 29 -15 49zM242 1618q0 41 28.5 69.5t69.5 28.5t69.5 -28.5 t28.5 -69.5t-28.5 -69.5t-69.5 -28.5t-69.5 28.5t-28.5 69.5zM584 1618q0 41 29.5 69.5t68.5 28.5t68.5 -28.5t29.5 -69.5t-29.5 -69.5t-68.5 -28.5t-68.5 28.5t-29.5 69.5z" />
<glyph unicode="&#x2c6;" horiz-adv-x="786" d="M133 1083q0 25 25 50l184 176q25 25 51.5 24.5t50.5 -24.5l185 -176q25 -25 24 -50q0 -27 -20.5 -44t-48.5 -17q-20 0 -47 22l-144 134l-143 -134q-27 -23 -47 -22q-29 0 -49.5 17t-20.5 44z" />
<glyph unicode="&#x2dc;" horiz-adv-x="847" d="M143 1114q0 18 9 33q16 25 36 59q43 70 115 70q51 0 121 -35q78 -39 102 -39q33 0 58 39q27 41 57 41q27 0 45.5 -15.5t18.5 -37.5q0 -18 -9 -33q-16 -25 -37 -59q-43 -70 -114 -70q-51 0 -121 35q-78 39 -102 39q-33 0 -58 -39q-27 -41 -57 -41q-27 0 -45.5 15t-18.5 38 z" />
<glyph unicode="&#x2000;" horiz-adv-x="880" />
<glyph unicode="&#x2001;" horiz-adv-x="1761" />
<glyph unicode="&#x2002;" horiz-adv-x="880" />
<glyph unicode="&#x2003;" horiz-adv-x="1761" />
<glyph unicode="&#x2004;" horiz-adv-x="585" />
<glyph unicode="&#x2005;" horiz-adv-x="440" />
<glyph unicode="&#x2006;" horiz-adv-x="292" />
<glyph unicode="&#x2007;" horiz-adv-x="292" />
<glyph unicode="&#x2008;" horiz-adv-x="219" />
<glyph unicode="&#x2009;" horiz-adv-x="352" />
<glyph unicode="&#x200a;" horiz-adv-x="96" />
<glyph unicode="&#x2010;" horiz-adv-x="827" d="M113 518q0 35 24.5 57.5t57.5 22.5h438q33 0 57.5 -22.5t24.5 -57.5t-24.5 -57.5t-57.5 -22.5h-438q-33 0 -57.5 22.5t-24.5 57.5z" />
<glyph unicode="&#x2011;" horiz-adv-x="827" d="M113 518q0 35 24.5 57.5t57.5 22.5h438q33 0 57.5 -22.5t24.5 -57.5t-24.5 -57.5t-57.5 -22.5h-438q-33 0 -57.5 22.5t-24.5 57.5z" />
<glyph unicode="&#x2012;" horiz-adv-x="827" d="M113 518q0 35 24.5 57.5t57.5 22.5h438q33 0 57.5 -22.5t24.5 -57.5t-24.5 -57.5t-57.5 -22.5h-438q-33 0 -57.5 22.5t-24.5 57.5z" />
<glyph unicode="&#x2013;" horiz-adv-x="1130" d="M113 518q0 35 24.5 57.5t57.5 22.5h741q33 0 57.5 -22.5t24.5 -57.5t-24.5 -57.5t-57.5 -22.5h-741q-33 0 -57.5 22.5t-24.5 57.5z" />
<glyph unicode="&#x2014;" horiz-adv-x="1568" d="M113 518q0 35 24.5 57.5t57.5 22.5h1179q33 0 57.5 -22.5t24.5 -57.5t-24.5 -57.5t-57.5 -22.5h-1179q-33 0 -57.5 22.5t-24.5 57.5z" />
<glyph unicode="&#x2018;" horiz-adv-x="444" d="M113 893v82q0 195 75 344q33 61 82 61q39 0 60.5 -20.5t21.5 -46.5q0 -18 -18 -60q-61 -139 -62 -252v-108q0 -41 -20.5 -65.5t-58.5 -24.5q-80 0 -80 90z" />
<glyph unicode="&#x2019;" horiz-adv-x="444" d="M102 870q0 18 19 60q61 139 61 252v108q0 41 20.5 65.5t59.5 24.5q80 0 80 -90v-82q0 -195 -76 -344q-33 -61 -82 -61q-39 0 -60.5 20t-21.5 47z" />
<glyph unicode="&#x201a;" horiz-adv-x="458" d="M86 -274q0 18 18 59q55 125 56 252v108q0 41 20.5 66t59.5 25q80 0 79 -91v-82q0 -207 -69 -344q-33 -61 -82 -61q-39 0 -60.5 20.5t-21.5 47.5z" />
<glyph unicode="&#x201c;" horiz-adv-x="796" d="M113 893v82q0 195 75 344q33 61 82 61q39 0 60.5 -20.5t21.5 -46.5q0 -18 -18 -60q-61 -139 -62 -252v-108q0 -41 -20.5 -65.5t-58.5 -24.5q-80 0 -80 90zM485 893v82q0 195 76 344q33 61 82 61q39 0 60.5 -20.5t21.5 -46.5q0 -18 -18 -60q-61 -139 -62 -252v-108 q0 -41 -20.5 -65.5t-59.5 -24.5q-80 0 -80 90z" />
<glyph unicode="&#x201d;" horiz-adv-x="796" d="M92 870q0 18 19 60q61 139 61 252v108q0 41 20.5 65.5t59.5 24.5q80 0 80 -90v-82q0 -195 -76 -344q-33 -61 -82 -61q-39 0 -60.5 20t-21.5 47zM465 870q0 18 18 60q61 139 62 252v108q0 41 20.5 65.5t59.5 24.5q80 0 80 -90v-82q0 -195 -76 -344q-33 -61 -82 -61 q-39 0 -60.5 20t-21.5 47z" />
<glyph unicode="&#x201e;" horiz-adv-x="837" d="M86 -274q0 18 18 59q61 139 62 252v108q0 41 20.5 66t59.5 25q80 0 80 -91v-82q0 -195 -76 -344q-33 -61 -82 -61q-39 0 -60.5 20.5t-21.5 47.5zM459 -274q0 18 18 59q61 139 62 252v108q0 41 20.5 66t58.5 25q80 0 80 -91v-82q0 -195 -75 -344q-33 -61 -82 -61 q-39 0 -60.5 20.5t-21.5 47.5z" />
<glyph unicode="&#x2022;" horiz-adv-x="696" d="M113 653.5q0 96.5 69.5 166t165.5 69.5t166 -69.5t70 -166t-70 -166t-166 -69.5t-165.5 69.5t-69.5 166z" />
<glyph unicode="&#x2026;" horiz-adv-x="1536" d="M139 100q0 47 35 82t82 35t82 -35t35 -82t-35 -81.5t-82 -34.5t-82 34.5t-35 81.5zM651 100q0 47 35 82t82 35t82 -35t35 -82t-35 -81.5t-82 -34.5t-82 34.5t-35 81.5zM1163 100q0 47 35 82t82 35t82 -35t35 -82t-35 -81.5t-82 -34.5t-82 34.5t-35 81.5z" />
<glyph unicode="&#x202f;" horiz-adv-x="352" />
<glyph unicode="&#x2039;" horiz-adv-x="673" d="M92 438.5q0 26.5 27 53.5l303 292q23 23 51 23q33 0 55.5 -21.5t22.5 -54.5q0 -27 -29 -55l-248 -238l248 -237q29 -29 29 -56q0 -33 -22.5 -54t-55.5 -21q-29 0 -51 22l-303 293q-27 27 -27 53.5z" />
<glyph unicode="&#x203a;" horiz-adv-x="673" d="M123 145q0 27 29 56l247 237l-247 238q-29 29 -29 55q0 33 22.5 54.5t55.5 21.5q29 0 51 -23l303 -292q27 -27 27 -53.5t-27 -53.5l-303 -293q-23 -23 -51 -22q-33 0 -55.5 21t-22.5 54z" />
<glyph unicode="&#x205f;" horiz-adv-x="440" />
<glyph unicode="&#x20ac;" horiz-adv-x="1280" d="M82 532.5q0 26.5 18.5 45t46.5 18.5h125q-2 27 -2 86q0 57 2 86h-125q-29 0 -47 18.5t-18 45t18.5 45t46.5 18.5h140q41 227 167 360.5t324 133.5q139 0 240.5 -70t152.5 -172q16 -29 17 -62q0 -35 -22.5 -56t-61.5 -21q-47 0 -74 51q-90 172 -252 172q-119 0 -198.5 -89 t-110.5 -247h330q29 0 47 -18.5t18 -45t-18.5 -45t-46.5 -18.5h-346q-2 -29 -2 -86q0 -59 2 -86h346q29 0 47 -18.5t18 -45t-18.5 -45t-46.5 -18.5h-330q31 -158 110.5 -247t198.5 -89q162 0 252 172q27 51 74 51q39 0 61.5 -21.5t22.5 -55.5q0 -33 -17 -62 q-51 -102 -152 -172t-241 -70q-199 0 -324.5 132.5t-166.5 361.5h-140q-29 0 -47 18.5t-18 45z" />
<glyph unicode="&#x2122;" horiz-adv-x="1359" d="M84 1314.5q0 20.5 14.5 35t36.5 14.5h404q20 0 33.5 -14.5t13.5 -35t-13.5 -34.5t-33.5 -14h-152v-459q0 -23 -14.5 -38t-38.5 -15q-51 0 -51 53v459h-148q-23 0 -37 14t-14 34.5zM674 803v518q0 51 51 51q33 0 49 -37l187 -422l186 422q16 37 49 37q51 0 51 -51v-518 q0 -23 -14 -36t-36.5 -13t-37 14t-14.5 35v303l-139 -320q-14 -33 -45 -32.5t-46 32.5l-139 320v-303q0 -20 -14 -34.5t-37 -14.5t-37 13t-14 36z" />
<glyph unicode="&#xe000;" horiz-adv-x="905" d="M0 905h905v-905h-905v905z" />
<glyph unicode="&#xfb01;" horiz-adv-x="1107" d="M16 815q0 31 21.5 52.5t52.5 21.5h92v125q0 350 320 350h61q31 0 52.5 -21.5t21.5 -52t-21.5 -52t-52.5 -21.5h-51q-150 0 -150 -173v-155h193q31 0 52.5 -21.5t21.5 -52.5t-21.5 -52.5t-52.5 -21.5h-193v-667q0 -37 -25.5 -63.5t-64.5 -26.5t-64.5 26.5t-25.5 63.5v667 h-92q-31 0 -52.5 21.5t-21.5 52.5zM766 1145q0 45 31.5 76.5t77 31.5t77 -31.5t31.5 -76.5t-31.5 -77t-77 -32t-77 32t-31.5 77zM784 74v741q0 37 26 63.5t64.5 26.5t64.5 -26.5t26 -63.5v-741q0 -37 -26 -63.5t-64.5 -26.5t-64.5 26.5t-26 63.5z" />
<glyph unicode="&#xfb02;" horiz-adv-x="1107" d="M16 815q0 31 21.5 52.5t52.5 21.5h92v125q0 350 320 350h61q31 0 52.5 -21.5t21.5 -52t-21.5 -52t-52.5 -21.5h-51q-150 0 -150 -173v-155h193q31 0 52.5 -21.5t21.5 -52.5t-21.5 -52.5t-52.5 -21.5h-193v-667q0 -37 -25.5 -63.5t-64.5 -26.5t-64.5 26.5t-25.5 63.5v667 h-92q-31 0 -52.5 21.5t-21.5 52.5zM784 74v1216q0 37 26 63.5t64.5 26.5t64.5 -26.5t26 -63.5v-1216q0 -37 -26 -63.5t-64.5 -26.5t-64.5 26.5t-26 63.5z" />
<glyph unicode="&#xfb03;" horiz-adv-x="1732" d="M1391 1145q0 45 31.5 76.5t77 31.5t77 -31.5t31.5 -76.5t-31.5 -77t-77 -32t-77 32t-31.5 77zM1409 74v741q0 37 26 63.5t64.5 26.5t64.5 -26.5t26 -63.5v-741q0 -37 -26 -63.5t-64.5 -26.5t-64.5 26.5t-26 63.5zM649 815q0 31 21.5 52.5t52.5 21.5h92v125q0 350 320 350 h61q31 0 52.5 -21.5t21.5 -52t-21.5 -52t-52.5 -21.5h-51q-150 0 -150 -173v-155h193q31 0 52.5 -21.5t21.5 -52.5t-21.5 -52.5t-52.5 -21.5h-193v-667q0 -37 -25.5 -63.5t-64.5 -26.5t-64.5 26.5t-25.5 63.5v667h-92q-31 0 -52.5 21.5t-21.5 52.5zM16 815q0 31 21.5 52.5 t52.5 21.5h92v125q0 350 320 350h61q31 0 52.5 -21.5t21.5 -52t-21.5 -52t-52.5 -21.5h-51q-150 0 -150 -173v-155h193q31 0 52.5 -21.5t21.5 -52.5t-21.5 -52.5t-52.5 -21.5h-193v-667q0 -37 -25.5 -63.5t-64.5 -26.5t-64.5 26.5t-25.5 63.5v667h-92q-31 0 -52.5 21.5 t-21.5 52.5z" />
<glyph unicode="&#xfb04;" horiz-adv-x="1732" d="M1409 74v1216q0 37 26 63.5t64.5 26.5t64.5 -26.5t26 -63.5v-1216q0 -37 -26 -63.5t-64.5 -26.5t-64.5 26.5t-26 63.5zM649 815q0 31 21.5 52.5t52.5 21.5h92v125q0 350 320 350h61q31 0 52.5 -21.5t21.5 -52t-21.5 -52t-52.5 -21.5h-51q-150 0 -150 -173v-155h193 q31 0 52.5 -21.5t21.5 -52.5t-21.5 -52.5t-52.5 -21.5h-193v-667q0 -37 -25.5 -63.5t-64.5 -26.5t-64.5 26.5t-25.5 63.5v667h-92q-31 0 -52.5 21.5t-21.5 52.5zM16 815q0 31 21.5 52.5t52.5 21.5h92v125q0 350 320 350h61q31 0 52.5 -21.5t21.5 -52t-21.5 -52t-52.5 -21.5 h-51q-150 0 -150 -173v-155h193q31 0 52.5 -21.5t21.5 -52.5t-21.5 -52.5t-52.5 -21.5h-193v-667q0 -37 -25.5 -63.5t-64.5 -26.5t-64.5 26.5t-25.5 63.5v667h-92q-31 0 -52.5 21.5t-21.5 52.5z" />
</font>
</defs>
</svg>
