<?xml version="1.0" standalone="no"?>
<!DOCTYPE svg PUBLIC "-//W3C//DTD SVG 1.1//EN" "http://www.w3.org/Graphics/SVG/1.1/DTD/svg11.dtd" >
<svg xmlns="http://www.w3.org/2000/svg">
<metadata>
This is a custom SVG webfont generated by Font Squirrel.
Copyright   : Copyright c 2008 by Process Type Foundry All rights reserved
Designer    : Eric Olson
Foundry     : Process Type Foundry
Foundry URL : httpwwwprocesstypefoundrycom
</metadata>
<defs>
<font id="BryantBoldCondensed" horiz-adv-x="1077" >
<font-face units-per-em="2048" ascent="1536" descent="-512" />
<missing-glyph horiz-adv-x="512" />
<glyph unicode=" "  horiz-adv-x="512" />
<glyph unicode="&#x09;" horiz-adv-x="512" />
<glyph unicode="&#xa0;" horiz-adv-x="512" />
<glyph unicode="!" horiz-adv-x="565" d="M143 123q0 57 41 98t98.5 41t98.5 -41t41 -98t-41 -98t-98.5 -41t-98.5 41t-41 98zM162 780v480q0 51 35.5 85.5t85 34.5t85 -34.5t35.5 -85.5v-480l-63 -350q-10 -55 -57 -55t-58 55z" />
<glyph unicode="&#x22;" horiz-adv-x="802" d="M113 918v362q0 41 29.5 70.5t70.5 29.5t70.5 -29.5t29.5 -70.5v-362q0 -41 -29.5 -71t-70.5 -30t-70.5 30t-29.5 71zM489 918v362q0 41 30 70.5t71 29.5t70.5 -29.5t29.5 -70.5v-362q0 -41 -29.5 -71t-70.5 -30t-71 30t-30 71z" />
<glyph unicode="#" horiz-adv-x="1394" d="M82 438q0 43 26.5 68.5t67.5 25.5h160l35 320h-158q-33 0 -55.5 21.5t-22.5 54.5q0 41 25.5 68.5t70.5 27.5h158l29 264q10 92 102 92q37 0 60.5 -24.5t23.5 -59.5v-8l-26 -264h325l27 264q10 92 102 92q39 0 62.5 -23.5t23.5 -58.5v-10l-31 -264h160q33 0 56.5 -21.5 t23.5 -56.5q0 -39 -26.5 -66.5t-67.5 -27.5h-164l-35 -320h164q33 0 53.5 -21.5t20.5 -53.5q0 -41 -24.5 -69t-67.5 -28h-164l-31 -282q-10 -94 -102 -94q-37 0 -60.5 23.5t-23.5 60.5l30 292h-325l-31 -282q-4 -41 -31.5 -67.5t-72.5 -26.5q-35 0 -58.5 24.5t-23.5 59.5 l30 292h-159q-33 0 -54.5 22.5t-21.5 55.5zM522 532h326l35 320h-326z" />
<glyph unicode="$" horiz-adv-x="1099" d="M113 266q0 43 25.5 68.5t66.5 25.5q31 0 63 -22q55 -39 86 -57.5t88.5 -36t122.5 -17.5q96 0 147.5 38t51.5 100q0 59 -50 105t-198 118q-229 111 -311 198.5t-82 225t99.5 220.5t262.5 101v160q0 37 25 62.5t61.5 25.5t62 -26.5t25.5 -61.5v-162q59 -6 136 -31 q176 -63 176 -153q0 -41 -23.5 -68.5t-70.5 -27.5q-31 0 -54 12q-147 74 -250 74q-213 0 -213 -127q0 -57 51.5 -102.5t196.5 -112.5q205 -94 299 -183.5t94 -230.5q0 -137 -91 -228.5t-265 -119.5v-168q0 -37 -24.5 -62.5t-61.5 -25.5t-62.5 26.5t-25.5 61.5v168 q-74 8 -174 47q-184 77 -184 186z" />
<glyph unicode="%" horiz-adv-x="1675" d="M102 1050.5q0 139.5 91.5 239t230.5 99.5t230 -99.5t91 -239t-91 -238.5t-230 -99t-230.5 99t-91.5 238.5zM291 1050.5q0 -75.5 34.5 -126t98 -50.5t98.5 50.5t35 126t-35 126t-98.5 50.5t-98 -50.5t-34.5 -126zM352 61q0 27 15 48l792 1234q27 45 76 46q37 0 63.5 -25 t26.5 -64q0 -29 -16 -51l-791 -1231q-27 -43 -78 -43q-39 0 -63.5 24.5t-24.5 61.5zM934 313.5q0 139.5 91 238.5t230.5 99t230.5 -99t91 -238.5t-91 -239t-230.5 -99.5t-230.5 99.5t-91 239zM1122 313.5q0 -75.5 35 -126t98.5 -50.5t98.5 50.5t35 126t-35 125.5t-98.5 50 t-98.5 -50t-35 -125.5z" />
<glyph unicode="&#x26;" horiz-adv-x="1462" d="M113 330q0 258 342 413q-129 186 -129 330q0 139 89 227.5t240 88.5q141 0 219 -83t78 -221q0 -213 -217 -383q4 -6 103.5 -139t117.5 -160q53 94 95 185q25 57 86 57q39 0 64.5 -22.5t25.5 -67.5q0 -49 -50.5 -142.5t-105.5 -158.5q63 -96 135 -96q41 0 84 22.5t62 22.5 q41 0 63.5 -22.5t22.5 -57.5q0 -63 -76 -105.5t-168 -42.5q-182 0 -268 131q-156 -131 -391 -131q-205 0 -313.5 101.5t-108.5 253.5zM344 330q0 -70 50 -122t149 -52q152 0 270 100q-135 174 -258 340q-70 -39 -105.5 -65.5t-70.5 -80.5t-35 -120zM543 1073q0 -106 90 -229 q119 90 119 227q0 63 -25 103t-74 40t-79.5 -37.5t-30.5 -103.5z" />
<glyph unicode="'" horiz-adv-x="425" d="M113 918v362q0 41 29.5 70.5t70.5 29.5t70.5 -29.5t29.5 -70.5v-362q0 -41 -29.5 -71t-70.5 -30t-70.5 30t-29.5 71z" />
<glyph unicode="(" horiz-adv-x="694" d="M143 553q0 213 72 442.5t201 407.5q35 51 90 51q43 0 74.5 -28.5t31.5 -69.5q0 -31 -16 -60q-111 -199 -161 -370.5t-50 -372.5t50 -373t161 -370q16 -29 16 -60q0 -39 -32.5 -68.5t-73.5 -29.5q-55 0 -90 51q-129 178 -201 407.5t-72 442.5z" />
<glyph unicode=")" horiz-adv-x="694" d="M82 -250q0 31 16 60q111 199 161 370.5t50 372.5t-50 373t-161 370q-16 29 -16 60q0 41 31.5 69.5t74.5 28.5q55 0 91 -51q129 -178 200.5 -407.5t71.5 -442.5t-71.5 -442.5t-200.5 -407.5q-35 -51 -91 -51q-41 0 -73.5 29.5t-32.5 68.5z" />
<glyph unicode="*" horiz-adv-x="757" d="M72 1112q0 25 16 41t41 16h147l-79 121q-10 16 -11 35q0 25 16.5 40t41.5 15q31 0 49 -28l86 -138l86 138q18 29 49 28q25 0 41 -15t16 -40q0 -18 -10 -35l-80 -121h148q25 0 41 -16t16 -41q0 -23 -16.5 -39t-40.5 -16h-148l82 -123q10 -16 10 -33q0 -23 -18 -39t-39 -16 q-33 0 -53 33l-84 135l-84 -135q-20 -33 -53 -33q-20 0 -39 16.5t-19 38.5q0 16 11 33l81 123h-147q-25 0 -41 16t-16 39z" />
<glyph unicode="+" horiz-adv-x="1167" d="M123 661.5q0 40.5 28.5 69.5t69.5 29h254v254q0 45 32 76.5t77 31.5t76.5 -31.5t31.5 -76.5v-254h254q41 0 69.5 -30t28.5 -68.5t-28.5 -68.5t-69.5 -30h-254v-254q0 -45 -31.5 -76.5t-76.5 -31.5t-77 31.5t-32 76.5v254h-254q-41 0 -69.5 29t-28.5 69.5z" />
<glyph unicode="," horiz-adv-x="475" d="M86 -268q0 16 5 31.5t14.5 37t13.5 35.5q31 92 31 203v123q0 47 27.5 75.5t72.5 28.5q47 0 74.5 -28.5t27.5 -75.5v-115q0 -197 -65 -319q-41 -76 -105 -76q-41 0 -68.5 24.5t-27.5 55.5z" />
<glyph unicode="-" horiz-adv-x="819" d="M102 518q0 45 32 76t75 31h401q43 0 75 -31t32 -76t-32 -75.5t-75 -30.5h-401q-43 0 -75 30.5t-32 75.5z" />
<glyph unicode="." horiz-adv-x="532" d="M127 123q0 57 41 98t98.5 41t98.5 -41t41 -98t-41 -98t-98.5 -41t-98.5 41t-41 98z" />
<glyph unicode="/" horiz-adv-x="894" d="M123 -162q0 18 8 39l438 1495q25 82 109 82q47 0 75.5 -29.5t28.5 -74.5q0 -16 -6 -35l-442 -1495q-25 -86 -107 -86q-47 0 -75.5 31.5t-28.5 72.5z" />
<glyph unicode="0" horiz-adv-x="1236" d="M92 682q0 309 139.5 508t387 199t387 -199t139.5 -508t-139.5 -508t-387 -199t-387 199t-139.5 508zM334 682q0 -223 72.5 -357.5t212 -134.5t212 134.5t72.5 357.5t-72.5 357.5t-212 134.5t-212 -134.5t-72.5 -357.5z" />
<glyph unicode="1" horiz-adv-x="731" d="M6 1169q0 78 78 105l322 98q25 8 43 8q53 0 85.5 -30.5t32.5 -89.5v-1156q0 -51 -33.5 -85.5t-87 -34.5t-87 34.5t-33.5 85.5v1012l-176 -53q-12 -4 -31 -4q-45 0 -79 31.5t-34 78.5z" />
<glyph unicode="2" horiz-adv-x="1071" d="M92 111v79q0 96 25.5 170t85 135.5t114 100.5t150.5 98q166 100 229.5 163t63.5 153q0 162 -213 161q-131 0 -264 -81q-35 -23 -70 -23q-51 0 -80 25.5t-29 68.5q0 94 152 164q139 63 303 64q205 0 322.5 -102.5t117.5 -272.5q0 -145 -76.5 -243.5t-269.5 -217.5 q-190 -117 -247.5 -174t-57.5 -162h543q45 0 76.5 -31.5t31.5 -77t-31.5 -77t-76.5 -31.5h-690q-45 0 -77 33t-32 78z" />
<glyph unicode="3" horiz-adv-x="1093" d="M57 231q0 49 29 75t74 26q39 0 76 -37q68 -61 126 -88t152 -27q115 0 182.5 55.5t67.5 155.5q0 217 -301 217h-76q-45 0 -74.5 32t-29.5 75q0 47 28.5 76.5t75.5 29.5h59q123 0 189.5 54.5t66.5 140.5q0 166 -192 166q-80 0 -182 -49q-70 -35 -103 -35q-43 0 -68.5 25.5 t-25.5 66.5q0 49 37 81t102 62q117 55 256 56q201 0 308.5 -97.5t107.5 -255.5q0 -201 -221 -309q119 -20 202 -112.5t83 -229.5q0 -180 -137.5 -295t-364.5 -115q-201 0 -361 113q-86 59 -86 143z" />
<glyph unicode="4" horiz-adv-x="1177" d="M25 442q0 37 26 70l647 817q41 51 101 51q51 0 81.5 -31.5t30.5 -84.5v-729h146q49 0 76.5 -26t27.5 -69q0 -45 -28.5 -69.5t-75.5 -24.5h-146v-246q0 -49 -31.5 -82.5t-83 -33.5t-83 33.5t-31.5 82.5v246h-555q-43 0 -72.5 26.5t-29.5 69.5zM315 535h367v473z" />
<glyph unicode="5" horiz-adv-x="1105" d="M92 227q0 43 30 71t77 28q39 0 71 -29q74 -63 135.5 -90t141.5 -27q117 0 181.5 66.5t64.5 163.5q0 117 -61.5 183t-172.5 66q-63 0 -109.5 -18t-119.5 -63q-31 -18 -64 -19q-59 0 -89 33t-25 78l69 592q6 47 38 74.5t79 27.5h502q45 0 77.5 -33t32.5 -78t-32.5 -75.5 t-77.5 -30.5h-410l-39 -350q88 66 209 65q211 0 322.5 -124t111.5 -318q0 -190 -133 -317.5t-344 -127.5q-240 0 -393 127q-72 57 -72 125z" />
<glyph unicode="6" horiz-adv-x="1144" d="M106 485q0 285 126 495t348 335q131 74 227 74q45 0 70.5 -25t25.5 -66q0 -39 -27.5 -62.5t-95.5 -57.5q-330 -162 -418 -443q100 109 291 109q197 0 310.5 -120t113.5 -308.5t-127 -314.5t-356 -126q-233 0 -360.5 139.5t-127.5 370.5zM369 412q0 -102 61.5 -167 t171.5 -65q109 0 172.5 65.5t63.5 166t-60.5 165t-171.5 64.5q-109 0 -173 -64.5t-64 -164.5z" />
<glyph unicode="7" horiz-adv-x="995" d="M20 1255q0 45 32 77t77 32h745q51 0 81 -28.5t30 -80.5q0 -35 -22 -63q-205 -262 -322 -515t-117 -554v-21q0 -51 -32.5 -84.5t-85.5 -33.5q-55 0 -87 33.5t-32 84.5v19q2 295 108.5 559t270.5 467h-537q-45 0 -77 31.5t-32 76.5z" />
<glyph unicode="8" horiz-adv-x="1191" d="M102 391q0 125 71 219.5t179 126.5q-172 96 -172 295q0 158 111.5 257.5t304 99.5t304.5 -99.5t112 -257.5q0 -199 -172 -295q109 -33 179.5 -127t70.5 -219q0 -174 -132.5 -295t-361.5 -121t-361.5 121t-132.5 295zM342 393q0 -98 68.5 -159.5t185.5 -61.5t185.5 61.5 t68.5 159.5q0 102 -67.5 166t-186.5 64t-186.5 -64t-67.5 -166zM416 1010q0 -84 50 -140.5t130 -56.5t130 56.5t50 140.5q0 82 -46 133t-134 51t-134 -51t-46 -133z" />
<glyph unicode="9" horiz-adv-x="1144" d="M72 948q0 193 130 317t353 124q240 0 363.5 -138.5t123.5 -371.5q0 -285 -125.5 -495t-347.5 -335q-131 -74 -227 -74q-45 0 -70.5 25t-25.5 66q0 39 27.5 62.5t95.5 57.5q330 162 417 443q-98 -106 -290 -107q-186 0 -305 123t-119 303zM311 952.5q0 -100.5 60.5 -165 t171.5 -64.5q109 0 173 64.5t64 164.5q0 102 -61.5 167t-171.5 65q-109 0 -172.5 -65.5t-63.5 -166z" />
<glyph unicode=":" horiz-adv-x="524" d="M123 123q0 57 41 98t98 41t98 -41t41 -98t-41 -98t-98 -41t-98 41t-41 98zM123 643q0 57 41 98t98 41t98 -41t41 -98t-41 -98t-98 -41t-98 41t-41 98z" />
<glyph unicode=";" horiz-adv-x="524" d="M98 -268q0 16 5.5 31.5t14.5 37t13 35.5q27 80 27 203v123q0 47 29.5 75.5t74.5 28.5q47 0 77 -28.5t30 -75.5v-115q0 -188 -70 -319q-41 -76 -104 -76q-41 0 -69 24.5t-28 55.5zM123 643q0 57 41 98t98 41t98 -41t41 -98t-41 -98t-98 -41t-98 41t-41 98z" />
<glyph unicode="&#x3c;" horiz-adv-x="1085" d="M92 661.5q0 57.5 58 90.5l665 360q37 18 62 18q41 0 68.5 -25.5t27.5 -64.5q0 -59 -68 -94l-543 -284l543 -285q68 -35 68 -94q0 -39 -27.5 -64.5t-68.5 -25.5q-25 0 -62 18l-665 360q-58 33 -58 90.5z" />
<glyph unicode="=" horiz-adv-x="1062" d="M143 489.5q0 38.5 27 64.5t66 26h591q39 0 66 -26t27 -64.5t-27 -64.5t-66 -26h-591q-39 0 -66 26t-27 64.5zM143 833.5q0 38.5 27 64.5t66 26h591q39 0 66 -26t27 -64.5t-27 -64.5t-66 -26h-591q-39 0 -66 26t-27 64.5z" />
<glyph unicode="&#x3e;" horiz-adv-x="1085" d="M113 283q0 59 67 94l543 285l-543 284q-68 35 -67 94q0 39 27.5 64.5t68.5 25.5q25 0 61 -18l666 -360q57 -33 57 -90.5t-57 -90.5l-666 -360q-37 -18 -61 -18q-41 0 -68.5 25.5t-27.5 64.5z" />
<glyph unicode="?" horiz-adv-x="915" d="M51 1184q0 78 109 137q127 68 289 68q182 0 288.5 -83t106.5 -233q0 -164 -166 -313q-86 -74 -112.5 -119t-26.5 -115v-32q0 -49 -33 -82t-86 -33q-51 0 -85 32.5t-34 82.5v32q0 109 34 173.5t126 150.5q80 74 110.5 117t30.5 92q0 53 -44 84t-122 31q-96 0 -207 -60 q-53 -29 -75 -29q-43 0 -73 28t-30 71zM283 123q0 57 41 98t98 41t98 -41t41 -98t-41 -98t-98 -41t-98 41t-41 98z" />
<glyph unicode="@" horiz-adv-x="1421" d="M92 692q0 309 164 503t457 194q221 0 337.5 -111t116.5 -320v-524q0 -37 -24.5 -63.5t-63.5 -26.5t-64.5 25.5t-25.5 62.5v10q-57 -104 -182 -104q-133 0 -213 100.5t-80 249.5q0 152 79 251t214 99q119 0 186 -104v47q0 123 -71.5 191.5t-214.5 68.5q-209 0 -327 -155.5 t-118 -393.5q0 -252 158 -412.5t430 -160.5q217 0 424 98q16 8 37 8q31 0 47 -19.5t16 -47.5q0 -39 -45 -66q-201 -117 -479 -117q-240 0 -415 100.5t-259 260t-84 356.5zM694 688q0 -82 39 -135t106.5 -53t107.5 55t40 133t-39 133.5t-108 55.5q-68 0 -107 -53.5 t-39 -135.5z" />
<glyph unicode="A" horiz-adv-x="1269" d="M51 96q0 20 10 45l463 1164q31 76 111 75.5t110 -75.5l463 -1164q10 -25 11 -45q0 -47 -32 -79.5t-85 -32.5q-76 0 -105 71l-92 232h-540l-93 -232q-29 -72 -104 -71q-53 0 -85 32.5t-32 79.5zM442 500h385l-192 512z" />
<glyph unicode="B" horiz-adv-x="1202" d="M143 123v1118q0 51 36 87t87 36h375q197 0 309.5 -95t112.5 -251q0 -211 -217 -303q129 -27 210 -111t81 -217q0 -168 -122 -277.5t-347 -109.5h-402q-51 0 -87 36t-36 87zM389 217h285q102 0 159.5 52.5t57.5 138.5q0 80 -61.5 133t-159.5 53h-281v-377zM389 811h248 q88 0 133 50t45 118q0 80 -48 124t-130 44h-248v-336z" />
<glyph unicode="C" horiz-adv-x="1214" d="M82 682q0 328 175 517.5t435 189.5q266 0 420 -189q33 -39 33 -82q0 -47 -30 -78.5t-79 -31.5q-51 0 -94 47q-104 113 -248 112q-160 0 -263 -133t-103 -352t103.5 -352t262.5 -133q143 0 248 112q43 47 94 47q49 0 79 -31.5t30 -78.5q0 -43 -33 -82q-154 -188 -420 -189 q-260 0 -435 189.5t-175 517.5z" />
<glyph unicode="D" horiz-adv-x="1255" d="M143 123v1118q0 51 36 87t87 36h312q279 0 441.5 -186.5t162.5 -495.5t-163 -495.5t-441 -186.5h-310q-51 0 -88 36t-37 87zM389 225h186q178 0 269.5 127t91.5 330t-91 330t-270 127h-186v-914z" />
<glyph unicode="E" horiz-adv-x="1097" d="M143 121v1122q0 53 36 87t87 34h639q49 0 83 -32t34 -79t-34 -78.5t-81 -31.5h-518v-342h297q47 0 81 -32t34 -79q0 -49 -33 -79.5t-82 -30.5h-297v-359h533q47 0 80.5 -31.5t33.5 -79t-33.5 -79t-80.5 -31.5h-654q-53 0 -89 35t-36 86z" />
<glyph unicode="F" horiz-adv-x="1042" d="M143 106v1135q0 53 36 88t87 35h643q47 0 82 -33t35 -80t-34 -79.5t-81 -32.5h-522v-336h301q47 0 81 -32t34 -81t-33 -80.5t-82 -31.5h-301v-472q0 -51 -36 -86.5t-87 -35.5t-87 35.5t-36 86.5z" />
<glyph unicode="G" horiz-adv-x="1290" d="M82 682q0 334 172 520.5t432 186.5q258 0 408 -181q35 -39 34 -82q0 -47 -28.5 -78.5t-79.5 -31.5q-39 0 -94 47q-109 100 -238 100q-154 0 -257 -125t-103 -356q0 -236 95 -367t282 -131q131 0 239 74v231h-196q-47 0 -80 32t-33 77q0 47 32.5 80t80.5 33h311 q53 0 88 -36t35 -87v-359q0 -47 -35 -79q-178 -174 -447 -175q-297 0 -457.5 194t-160.5 513z" />
<glyph unicode="H" horiz-adv-x="1316" d="M143 106v1151q0 51 36 87t87 36t87 -35.5t36 -87.5v-446h539v446q0 51 35.5 87t87 36t87.5 -35.5t36 -87.5v-1151q0 -51 -35 -86.5t-88.5 -35.5t-88 34.5t-34.5 87.5v480h-539v-480q0 -53 -35 -87.5t-88 -34.5t-88 35.5t-35 86.5z" />
<glyph unicode="I" horiz-adv-x="552" d="M154 106v1151q0 51 35.5 87t87 36t87 -35.5t35.5 -87.5v-1151q0 -53 -34.5 -87.5t-88 -34.5t-88 35.5t-34.5 86.5z" />
<glyph unicode="J" horiz-adv-x="1079" d="M47 354q0 51 29.5 82t81.5 31q86 0 108 -82q51 -197 223 -197q211 0 211 275v792q0 57 33 91t90 34q55 0 89 -35.5t34 -89.5v-780q0 -223 -114.5 -361.5t-346.5 -138.5q-186 0 -298.5 97.5t-137.5 251.5q-2 10 -2 30z" />
<glyph unicode="K" horiz-adv-x="1206" d="M143 106v1149q0 55 35 90t88 35t88 -35.5t35 -87.5v-503l506 583q37 43 86 43t82 -31.5t33 -78.5q0 -41 -27 -78l-309 -367l368 -671q16 -29 17 -58q0 -47 -30 -79.5t-81 -32.5q-72 0 -104 59l-326 600l-215 -240v-294q0 -53 -33.5 -89t-89.5 -36q-57 0 -90 34.5 t-33 87.5z" />
<glyph unicode="L" horiz-adv-x="1024" d="M143 123v1132q0 53 34 89t89 36q53 0 88 -36.5t35 -88.5v-1030h502q47 0 80 -32.5t33 -79.5t-33 -80t-80 -33h-623q-51 0 -88 36t-37 87z" />
<glyph unicode="M" horiz-adv-x="1536" d="M143 98v1168q0 51 31 82.5t80 31.5q78 0 108 -75l406 -983l406 983q31 76 108 75q49 0 80 -31.5t31 -82.5v-1168q0 -49 -31 -81.5t-82 -32.5q-49 0 -81 33.5t-32 80.5v697l-299 -736q-33 -76 -100.5 -75.5t-99.5 75.5l-299 736v-697q0 -47 -32 -80.5t-81 -33.5 q-51 0 -82 32.5t-31 81.5z" />
<glyph unicode="N" horiz-adv-x="1310" d="M143 96v1170q0 51 31 82.5t86 31.5q59 0 92 -51l586 -876v813q0 47 31.5 80.5t81 33.5t83 -33.5t33.5 -80.5v-1168q0 -49 -30.5 -81.5t-83.5 -32.5q-63 0 -95 47l-585 880v-813q0 -47 -34 -80.5t-81 -33.5t-81 32.5t-34 79.5z" />
<glyph unicode="O" horiz-adv-x="1363" d="M82 682q0 305 167 506t433 201t433 -201t167 -506t-167 -506t-433 -201t-433 201t-167 506zM328 682q0 -203 91 -344t263 -141t263 141t91 344t-91 344t-263 141t-263 -141t-91 -344z" />
<glyph unicode="P" horiz-adv-x="1173" d="M143 106v1135q0 51 36 87t87 36h387q246 0 371 -120t125 -302q0 -186 -124 -300t-372 -114h-264v-422q0 -51 -35 -86.5t-88 -35.5q-55 0 -89 34.5t-34 87.5zM389 748h303q98 0 153.5 55t55.5 139t-54 140.5t-153 56.5h-305v-391z" />
<glyph unicode="Q" horiz-adv-x="1363" d="M82 682q0 305 167 506t433 201t433 -201t167 -506q0 -188 -65.5 -341t-184.5 -247l88 -184q10 -20 10 -43q0 -39 -28.5 -66.5t-71.5 -27.5q-57 0 -84 53l-84 176q-78 -27 -180 -27q-266 0 -433 201t-167 506zM328 682q0 -203 91 -344t263 -141q47 0 84 10l-80 168 q-10 25 -10 41q0 45 28.5 71.5t71.5 26.5q57 0 84 -55l70 -148q106 129 106 371q0 203 -91 344t-263 141t-263 -141t-91 -344z" />
<glyph unicode="R" horiz-adv-x="1257" d="M143 106v1135q0 51 36 87t87 36h418q246 0 371 -120t125 -302q0 -276 -246 -371l215 -411q16 -33 16 -58q0 -47 -35.5 -82.5t-87.5 -35.5q-78 0 -112 63l-252 485h-289v-426q0 -51 -35 -86.5t-88 -35.5q-55 0 -89 34.5t-34 87.5zM389 745h334q98 0 153.5 56.5t55.5 140.5 t-54.5 140.5t-152.5 56.5h-336v-394z" />
<glyph unicode="S" horiz-adv-x="1101" d="M82 256q0 47 27.5 76.5t70.5 29.5q37 0 82 -40q76 -68 143.5 -102t163.5 -34q113 0 166 47.5t53 120.5q0 76 -61 129.5t-201 102.5q-242 86 -338 189.5t-96 242.5q0 174 124 272.5t341 98.5q145 0 262 -52q184 -80 185 -168q0 -45 -26 -77.5t-75 -32.5q-25 0 -94 39 q-147 80 -256 80q-215 0 -215 -160q0 -68 51 -113t197 -102q242 -94 345 -184.5t103 -253.5q0 -174 -128 -282t-341 -108q-256 0 -418 156q-65 66 -65 125z" />
<glyph unicode="T" horiz-adv-x="1081" d="M6 1251q0 47 35 80t82 33h835q47 0 82 -33t35 -80t-33.5 -79.5t-80.5 -32.5h-297v-1033q0 -53 -35 -87.5t-88.5 -34.5t-88 35.5t-34.5 86.5v1033h-297q-47 0 -81 32.5t-34 79.5z" />
<glyph unicode="U" horiz-adv-x="1339" d="M143 520v735q0 55 36 90t87 35q53 0 88 -35.5t35 -89.5v-768q0 -137 71.5 -213.5t209 -76.5t209 76.5t71.5 213.5v768q0 55 36 90t87 35q53 0 88 -35.5t35 -89.5v-735q0 -248 -137 -396.5t-389 -148.5t-389.5 148.5t-137.5 396.5z" />
<glyph unicode="V" horiz-adv-x="1122" d="M25 1264q0 53 31.5 84.5t82.5 31.5q84 0 115 -86l307 -907l307 907q31 86 115 86q51 0 83 -31.5t32 -84.5q0 -12 -8 -41l-420 -1166q-27 -74 -109 -73.5t-108 73.5l-420 1166q-8 29 -8 41z" />
<glyph unicode="W" horiz-adv-x="1732" d="M31 1266q0 51 30.5 82.5t83.5 31.5q84 0 109 -82l252 -874l250 870q27 86 110.5 86t110.5 -86l250 -870l252 874q25 82 108 82q53 0 84 -31.5t31 -82.5q0 -12 -6 -33l-361 -1170q-23 -80 -112 -79q-84 0 -109 79l-248 895l-248 -895q-25 -80 -108 -79q-90 0 -113 79 l-360 1170q-6 21 -6 33z" />
<glyph unicode="X" horiz-adv-x="1208" d="M90 96q0 39 21 66l356 522l-354 518q-20 35 -21 66q0 47 31 79.5t84 32.5q59 0 96 -55l301 -459l301 459q37 55 96 55q53 0 84 -32.5t31 -79.5q0 -31 -20 -66l-355 -518l357 -522q20 -27 20 -66q0 -45 -32.5 -78.5t-81.5 -33.5q-59 0 -97 53l-303 463l-303 -463 q-37 -53 -96 -53q-49 0 -82 33.5t-33 78.5z" />
<glyph unicode="Y" horiz-adv-x="1060" d="M12 1266q0 49 33 81.5t84 32.5q66 0 98 -57l303 -549l304 549q33 57 98 57q51 0 84 -32.5t33 -81.5q0 -33 -19 -64l-377 -639v-457q0 -51 -34.5 -86.5t-88 -35.5t-88 35.5t-34.5 86.5v457l-377 639q-19 31 -19 64z" />
<glyph unicode="Z" horiz-adv-x="1138" d="M113 109q0 31 20 67l594 971h-500q-47 0 -79.5 31.5t-32.5 76.5t32.5 77t79.5 32h701q47 0 79.5 -28.5t32.5 -78.5q0 -31 -20 -65l-596 -975h510q47 0 80 -29.5t33 -79t-32 -79t-81 -29.5h-707q-49 0 -81.5 31t-32.5 78z" />
<glyph unicode="[" horiz-adv-x="714" d="M164 -186v1472q0 49 33.5 84t81.5 35h262q43 0 72.5 -31t29.5 -71.5t-29.5 -71.5t-72.5 -31h-140v-1300h140q43 0 72.5 -31t29.5 -72t-29.5 -71.5t-72.5 -30.5h-262q-47 0 -81 35t-34 84z" />
<glyph unicode="\" horiz-adv-x="894" d="M113 1350q0 41 30.5 72.5t77.5 31.5q80 0 105 -82l438 -1495q8 -20 8 -39q0 -41 -28.5 -72.5t-75.5 -31.5q-82 0 -107 86l-442 1495q-6 19 -6 35z" />
<glyph unicode="]" horiz-adv-x="714" d="M72 -203q0 41 29.5 72t72.5 31h139v1300h-139q-43 0 -72.5 31t-29.5 71.5t29.5 71.5t72.5 31h262q47 0 81 -35t34 -84v-1472q0 -49 -34 -84t-81 -35h-262q-43 0 -72.5 30.5t-29.5 71.5z" />
<glyph unicode="^" horiz-adv-x="954" d="M109 780q0 25 16 54l268 497q29 49 84 49t84 -49l268 -497q16 -29 17 -54q0 -39 -24.5 -64.5t-67.5 -25.5q-59 0 -90 58l-187 370l-186 -370q-31 -57 -90 -58q-43 0 -67.5 25.5t-24.5 64.5z" />
<glyph unicode="_" horiz-adv-x="839" d="M-2 -25h844v-88h-844v88z" />
<glyph unicode="`" horiz-adv-x="641" d="M133 1249q0 41 27.5 67.5t66.5 26.5q49 0 78 -38l107 -142q25 -31 24 -61q0 -39 -29.5 -67.5t-68.5 -28.5q-47 0 -78 41l-104 145q-23 28 -23 57z" />
<glyph unicode="a" horiz-adv-x="999" d="M92 250q0 129 88 199.5t230 70.5q150 0 225 -86v80q0 195 -195 195q-70 0 -127 -21q-66 -25 -104 -24q-41 0 -69.5 26.5t-28.5 65.5q0 80 129 125q98 33 221 32q199 0 307.5 -100t108.5 -289v-418q0 -53 -31 -87.5t-86 -34.5q-53 0 -86 32.5t-33 83.5v2 q-68 -127 -244 -127q-139 0 -222 77t-83 198zM326 250q0 -51 41 -79t108.5 -28t113.5 30t46 77q0 49 -48 77.5t-112 28.5q-66 0 -107.5 -28.5t-41.5 -77.5z" />
<glyph unicode="b" horiz-adv-x="1079" d="M133 104v1156q0 49 35 84.5t86 35.5t86 -35.5t35 -84.5v-488q35 59 102.5 100t145.5 41q176 0 280.5 -137t104.5 -331.5t-104.5 -332t-280.5 -137.5q-86 0 -155 42t-101 110v-27q0 -49 -33 -82.5t-84 -33.5q-53 0 -85 34.5t-32 85.5zM375 444.5q0 -112.5 51 -188.5 t143.5 -76t145.5 74t53 190.5t-53 190.5t-145.5 74t-143.5 -76t-51 -188.5z" />
<glyph unicode="c" horiz-adv-x="911" d="M72 444.5q0 196.5 119.5 332.5t322.5 136q92 0 175 -38.5t132 -110.5q33 -47 33 -90q0 -41 -29.5 -67.5t-70.5 -26.5q-53 0 -82 43q-59 92 -156 92q-98 0 -152.5 -80t-54.5 -190.5t54.5 -190.5t152.5 -80q96 0 156 92q29 43 82 43q41 0 70.5 -26.5t29.5 -67.5 q0 -43 -33 -90q-49 -72 -132 -111t-175 -39q-203 0 -322.5 136.5t-119.5 333z" />
<glyph unicode="d" horiz-adv-x="1079" d="M72 444.5q0 194.5 104.5 331.5t280.5 137q78 0 145.5 -41t102.5 -100v488q0 49 34.5 84.5t86 35.5t86 -35.5t34.5 -84.5v-1156q0 -51 -31.5 -85.5t-85.5 -34.5q-51 0 -83.5 33.5t-32.5 82.5v27q-33 -68 -101.5 -110t-154.5 -42q-176 0 -280.5 137.5t-104.5 332z M311 444.5q0 -116.5 53.5 -190.5t145.5 -74t143.5 76t51.5 188.5t-51.5 188.5t-143.5 76t-145.5 -74t-53.5 -190.5z" />
<glyph unicode="e" horiz-adv-x="954" d="M72 444.5q0 200.5 119.5 334.5t312.5 134q182 0 287.5 -132t105.5 -337q0 -35 -22.5 -58.5t-67.5 -23.5h-485q4 -82 54 -140t144 -58q98 0 170 61q51 43 90 43q41 0 66.5 -24.5t25.5 -61.5q0 -55 -67 -110q-119 -96 -293 -97q-211 0 -325.5 134.5t-114.5 335zM324 537 h346q-10 84 -54.5 136t-113.5 52q-72 0 -117 -52t-61 -136z" />
<glyph unicode="f" horiz-adv-x="651" d="M6 788q0 43 31 72t74 29h67v127q0 156 82 252t258 96h23q51 0 80.5 -28.5t29.5 -73.5t-29.5 -75t-78.5 -30h-11q-113 0 -112 -127v-141h129q43 0 72.5 -29t29.5 -72t-29.5 -71.5t-72.5 -28.5h-129v-584q0 -51 -34 -85.5t-87 -34.5t-87 34.5t-34 85.5v584h-67 q-43 0 -74 28.5t-31 71.5z" />
<glyph unicode="g" horiz-adv-x="1079" d="M72 458.5q0 194.5 103.5 324.5t281.5 130q86 0 154.5 -42t101.5 -109v26q0 49 32.5 83t83.5 34q55 0 86 -34.5t31 -86.5v-747q0 -207 -110.5 -321.5t-341.5 -114.5q-166 0 -299 71q-66 35 -66 99q0 41 26.5 64.5t65.5 23.5q33 0 98 -29q84 -39 173 -39q119 0 166 54.5 t47 166.5v127q-33 -59 -100.5 -97t-147.5 -38q-178 0 -281.5 130t-103.5 324.5zM311 458.5q0 -112.5 52.5 -181t146.5 -68.5q88 0 141.5 73.5t53.5 176t-53.5 176.5t-141.5 74q-94 0 -146.5 -69t-52.5 -181.5z" />
<glyph unicode="h" d="M133 104v1156q0 49 35 84.5t86 35.5t86 -35.5t35 -84.5v-488q72 141 246 141q162 0 247.5 -112.5t85.5 -300.5v-396q0 -49 -34.5 -84.5t-86 -35.5t-86 35.5t-34.5 84.5v396q0 90 -41 143t-121 53q-88 0 -132 -62.5t-44 -162.5v-367q0 -49 -35 -84.5t-86 -35.5t-86 35.5 t-35 84.5z" />
<glyph unicode="i" horiz-adv-x="507" d="M119 1161.5q0 57.5 39 96t96 38.5t96 -38.5t39 -96t-39 -96.5t-96 -39t-96 39t-39 96.5zM133 104v680q0 49 35 85t86 36t86 -35.5t35 -85.5v-680q0 -49 -35 -84.5t-86 -35.5t-86 35.5t-35 84.5z" />
<glyph unicode="j" horiz-adv-x="507" d="M-55 -295q0 45 29.5 72.5t72.5 27.5h4q82 0 82 80v899q0 51 34 86t87 35t87 -34.5t34 -86.5v-884q0 -299 -297 -299h-31q-43 0 -72.5 29.5t-29.5 74.5zM119 1161.5q0 57.5 39 96t96 38.5t96 -38.5t39 -96t-39 -96.5t-96 -39t-96 39t-39 96.5z" />
<glyph unicode="k" horiz-adv-x="958" d="M133 104v1156q0 51 34 85.5t87 34.5t87 -34.5t34 -85.5v-676l323 293q35 29 76 28q53 0 83 -32.5t30 -79.5q0 -43 -43 -78l-215 -195l254 -360q20 -31 20 -66q0 -49 -31.5 -79.5t-83 -30.5t-88.5 49l-235 342l-90 -82v-189q0 -49 -35 -84.5t-86 -35.5t-86 35.5t-35 84.5z " />
<glyph unicode="l" horiz-adv-x="507" d="M133 104v1156q0 49 35 84.5t86 35.5t86 -35.5t35 -84.5v-1156q0 -49 -35 -84.5t-86 -35.5t-86 35.5t-35 84.5z" />
<glyph unicode="m" horiz-adv-x="1656" d="M133 104v680q0 53 35 87t86 34q53 0 87 -33.5t34 -87.5v-12q72 141 246 141q193 0 274 -159q45 74 124 116.5t181 42.5q162 0 248 -112.5t86 -300.5v-396q0 -49 -35 -84.5t-86 -35.5t-86 35.5t-35 84.5v396q0 90 -41 143t-121 53q-88 0 -132 -62.5t-44 -162.5v-367 q0 -49 -34.5 -84.5t-86 -35.5t-86 35.5t-34.5 84.5v396q0 90 -41 143t-121 53q-88 0 -132 -62.5t-44 -162.5v-367q0 -49 -35 -84.5t-86 -35.5t-86 35.5t-35 84.5z" />
<glyph unicode="n" d="M133 104v680q0 53 35 87t86 34q53 0 87 -33.5t34 -87.5v-12q72 141 246 141q162 0 247.5 -112.5t85.5 -300.5v-396q0 -49 -34.5 -84.5t-86 -35.5t-86 35.5t-34.5 84.5v396q0 90 -41 143t-121 53q-88 0 -132 -62.5t-44 -162.5v-367q0 -49 -35 -84.5t-86 -35.5t-86 35.5 t-35 84.5z" />
<glyph unicode="o" horiz-adv-x="1021" d="M72 444.5q0 196.5 120.5 332.5t317.5 136t318.5 -137t121.5 -331.5t-121.5 -332t-318.5 -137.5t-317.5 136.5t-120.5 333zM309 444.5q0 -112.5 52.5 -188.5t148.5 -76t148.5 76t52.5 188.5t-52.5 188.5t-148.5 76t-148.5 -76t-52.5 -188.5z" />
<glyph unicode="p" horiz-adv-x="1079" d="M133 -279v1063q0 51 32 86t85 35t85 -33.5t32 -83.5v-26q33 68 101.5 109.5t154.5 41.5q176 0 280.5 -137t104.5 -331.5t-104.5 -332t-280.5 -137.5q-78 0 -145.5 41t-102.5 101v-396q0 -49 -35 -84.5t-86 -35.5t-86 35.5t-35 84.5zM375 444.5q0 -112.5 51 -188.5 t143.5 -76t145.5 74t53 190.5t-53 190.5t-145.5 74t-143.5 -76t-51 -188.5z" />
<glyph unicode="q" horiz-adv-x="1079" d="M72 444.5q0 194.5 104.5 331.5t280.5 137q86 0 154.5 -42t101.5 -109v26q0 49 32.5 83t83.5 34q55 0 86 -34.5t31 -86.5v-1063q0 -49 -34.5 -84.5t-86 -35.5t-86 35.5t-34.5 84.5v396q-35 -59 -102.5 -100.5t-145.5 -41.5q-176 0 -280.5 137.5t-104.5 332zM311 444.5 q0 -116.5 53.5 -190.5t145.5 -74t143.5 76t51.5 188.5t-51.5 188.5t-143.5 76t-145.5 -74t-53.5 -190.5z" />
<glyph unicode="r" horiz-adv-x="669" d="M133 104v680q0 53 33 87t88 34t88 -34.5t33 -86.5v-30q41 156 182 155q51 0 80 -30.5t29 -79.5q0 -51 -29 -82t-80 -31q-182 0 -182 -244v-338q0 -49 -35 -84.5t-86 -35.5t-86 35.5t-35 84.5z" />
<glyph unicode="s" horiz-adv-x="849" d="M80 176q0 37 25.5 60.5t64.5 23.5q35 0 86 -35q94 -66 180 -65q53 0 85 20.5t32 52.5q0 39 -34 61.5t-113 45.5q-178 51 -252 121.5t-74 191.5q0 127 100.5 193.5t247.5 66.5q119 0 223 -49q113 -57 113 -127q0 -90 -92 -90q-31 0 -84 27q-94 45 -166 45q-113 0 -113 -68 q0 -35 34 -57.5t122 -48.5q170 -51 243.5 -113.5t73.5 -177.5q0 -125 -93 -202t-267 -77q-178 0 -295 101q-47 39 -47 100z" />
<glyph unicode="t" horiz-adv-x="671" d="M4 788q0 43 31 72t74 29h100v244q0 51 33.5 85.5t87 34.5t87.5 -34.5t34 -85.5v-244h129q43 0 72.5 -29t29.5 -72t-29.5 -71.5t-72.5 -28.5h-129v-584q0 -51 -34 -85.5t-87.5 -34.5t-87 34.5t-33.5 85.5v584h-100q-43 0 -74 28.5t-31 71.5z" />
<glyph unicode="u" d="M123 389v395q0 49 35 85t86 36t86 -35.5t35 -85.5v-395q0 -90 40.5 -143t120.5 -53q88 0 132 62t44 163v366q0 49 35 85t86 36t86 -35.5t35 -85.5v-680q0 -53 -35 -86.5t-86 -33.5q-53 0 -87 33.5t-34 86.5v13q-72 -141 -245 -142q-162 0 -248 113t-86 301z" />
<glyph unicode="v" horiz-adv-x="856" d="M27 797q0 49 30.5 78.5t79.5 29.5q76 0 103 -67l188 -519l188 519q27 68 103 67q49 0 79.5 -29.5t30.5 -78.5q0 -20 -10 -45l-291 -701q-29 -68 -100.5 -67.5t-99.5 67.5l-291 701q-10 25 -10 45z" />
<glyph unicode="w" horiz-adv-x="1269" d="M37 801q0 49 31.5 76.5t78.5 27.5q76 0 103 -92l125 -448l164 471q25 70 96.5 69.5t95.5 -69.5l164 -471l125 448q27 92 102 92q47 0 79 -27.5t32 -76.5q0 -14 -6 -37l-221 -709q-25 -72 -103 -71q-74 0 -100 73l-168 484l-168 -484q-27 -74 -100 -73q-78 0 -103 71 l-221 709q-6 23 -6 37z" />
<glyph unicode="x" horiz-adv-x="905" d="M68 90q0 37 22 66l232 290l-226 287q-25 33 -24 66q0 47 30.5 76.5t79.5 29.5t80 -41l191 -262l190 262q31 41 80 41t80 -29.5t31 -76.5q0 -33 -25 -66l-225 -287l231 -290q23 -29 23 -66q0 -45 -32 -75.5t-77 -30.5q-53 0 -84 41l-192 264l-193 -264q-31 -41 -84 -41 q-45 0 -76.5 30.5t-31.5 75.5z" />
<glyph unicode="y" horiz-adv-x="860" d="M20 799q0 47 32 76.5t79 29.5q78 0 107 -80l202 -585l176 583q25 82 107 82q51 0 81 -32.5t30 -79.5q0 -16 -9 -41q-156 -467 -235 -676q-143 -369 -346 -465q-20 -10 -51 -10q-47 0 -78 27.5t-31 68.5q0 43 63 98q113 98 162 219l-280 744q-9 29 -9 41z" />
<glyph unicode="z" horiz-adv-x="884" d="M76 96q0 35 22 68l404 530h-326q-41 0 -70.5 28t-29.5 71q0 45 29.5 70.5t70.5 25.5h533q45 0 73.5 -27.5t28.5 -70.5q0 -33 -23 -66l-401 -530h332q43 0 71.5 -27t28.5 -70t-29.5 -70.5t-70.5 -27.5h-543q-41 0 -70.5 28.5t-29.5 67.5z" />
<glyph unicode="{" horiz-adv-x="770" d="M72 543q0 47 31.5 77.5t76.5 30.5h4q98 0 99 88v437q0 111 54 170t157 59h120q39 0 67 -26.5t28 -67.5t-28 -67.5t-67 -26.5h-43q-51 0 -51 -52v-385q0 -106 -58.5 -170.5t-168.5 -66.5q111 -4 169 -68.5t58 -169.5v-385q0 -51 51 -51h43q39 0 67 -26.5t28 -67.5 t-28 -67.5t-67 -26.5h-120q-102 0 -156.5 59t-54.5 170v436q0 88 -99 88h-4q-45 0 -76.5 31t-31.5 78z" />
<glyph unicode="|" horiz-adv-x="536" d="M184 -322v1743q0 35 24.5 59.5t59.5 24.5t59.5 -24.5t24.5 -59.5v-1743q0 -35 -24.5 -59.5t-59.5 -24.5t-59.5 24.5t-24.5 59.5z" />
<glyph unicode="}" horiz-adv-x="770" d="M61 -225q0 41 28 67.5t67 26.5h43q51 0 51 51v385q0 104 58.5 169t168.5 69q-111 2 -169 66.5t-58 170.5v385q0 51 -51 52h-43q-39 0 -67 26.5t-28 67.5t28 67.5t67 26.5h120q102 0 156.5 -59.5t54.5 -169.5v-437q0 -88 99 -88h4q45 0 76.5 -30.5t31.5 -77.5t-31.5 -78 t-76.5 -31h-4q-98 0 -99 -88v-436q0 -111 -54 -170t-157 -59h-120q-39 0 -67 26.5t-28 67.5z" />
<glyph unicode="~" horiz-adv-x="993" d="M92 479q0 20 6 39q68 182 234 182q74 0 209 -67q115 -55 137 -55q8 0 15 1t13.5 6t9.5 6t9 10t7 10t7 12.5t6 13.5q16 31 34 43t52 12q41 0 66 -24.5t25 -65.5q0 -16 -9 -41q-74 -174 -227 -174q-12 0 -24.5 1t-21.5 3t-22.5 6t-19.5 6.5t-21.5 9.5t-20.5 9t-23.5 12 t-24.5 12q-127 61 -168 62q-25 0 -40 -10.5t-34 -46.5q-31 -61 -86 -62q-39 0 -63.5 25.5t-24.5 64.5z" />
<glyph unicode="&#xa1;" horiz-adv-x="565" d="M143 774q0 57 41 98t98.5 41t98.5 -41t41 -98t-41 -98t-98.5 -41t-98.5 41t-41 98zM162 117l63 350q10 55 57.5 55t57.5 -55l63 -350v-396q0 -51 -35.5 -85.5t-85 -34.5t-85 34.5t-35.5 85.5v396z" />
<glyph unicode="&#xa2;" horiz-adv-x="1001" d="M113 682q0 170 92 299t254 160v157q0 35 25.5 60.5t62.5 25.5t62.5 -25.5t25.5 -60.5v-155q147 -27 227 -142q33 -47 33 -90q0 -41 -29.5 -67.5t-70.5 -26.5q-53 0 -82 43q-59 92 -156 92q-98 0 -152.5 -79.5t-54.5 -190.5t54.5 -190.5t152.5 -79.5q96 0 156 92 q29 43 82 43q41 0 70.5 -26.5t29.5 -67.5q0 -43 -33 -91q-78 -113 -227 -143v-153q0 -35 -25.5 -60.5t-62.5 -25.5t-62.5 25.5t-25.5 60.5v155q-162 33 -254 161t-92 300z" />
<glyph unicode="&#xa3;" horiz-adv-x="1273" d="M113 98q0 45 29.5 72t74.5 27h189v399h-187q-45 0 -74.5 27.5t-29.5 70.5t29.5 71t74.5 28h187v165q0 430 434 431q125 0 239 -52q102 -47 103 -125q0 -43 -27 -70.5t-76 -27.5q-29 0 -55 14q-86 47 -180 48q-100 0 -148.5 -47.5t-48.5 -151.5v-184h344q45 0 75 -28 t30 -71t-30 -70.5t-75 -27.5h-344v-399h395q45 0 75 -27t30 -72q0 -43 -30 -70.5t-75 -27.5h-825q-45 0 -74.5 27.5t-29.5 70.5z" />
<glyph unicode="&#xa4;" horiz-adv-x="1251" d="M133 236q0 37 27 61l123 121q-68 117 -68 264q0 145 68 262l-123 123q-27 27 -27 61.5t25.5 61.5t62.5 27q35 0 62 -27l116 -119q102 66 225.5 66t225.5 -66l119 119q27 27 61 27q37 0 62.5 -27t25.5 -61.5t-26 -61.5l-123 -123q66 -113 65 -262q0 -152 -65 -264 l118 -117q31 -27 31 -65q0 -35 -25.5 -62t-62.5 -27q-35 0 -61 27l-119 119q-96 -66 -225 -66t-226 66l-116 -119q-27 -27 -62 -27q-37 0 -62.5 27t-25.5 62zM416 682q0 -117 56 -195.5t152.5 -78.5t153 78.5t56.5 195.5q0 115 -56.5 194.5t-153 79.5t-152.5 -79.5 t-56 -194.5z" />
<glyph unicode="&#xa5;" horiz-adv-x="1146" d="M76 1266q0 49 32.5 81.5t84.5 32.5q66 0 98 -57l282 -549l283 549q33 57 98 57q51 0 84 -32.5t33 -81.5q0 -33 -18 -64l-250 -444h143q31 0 52.5 -21.5t21.5 -52.5t-21.5 -52.5t-52.5 -21.5h-225l-27 -47v-88h252q31 0 52.5 -21.5t21.5 -52t-21.5 -52t-52.5 -21.5h-252 v-222q0 -51 -33.5 -86.5t-87 -35.5t-87 35.5t-33.5 86.5v222h-252q-31 0 -52.5 21.5t-21.5 52t21.5 52t52.5 21.5h252v88l-27 47h-225q-31 0 -52.5 21.5t-21.5 52.5t21.5 52.5t52.5 21.5h141l-248 444q-18 31 -18 64z" />
<glyph unicode="&#xa6;" horiz-adv-x="536" d="M184 -322v662q0 35 24.5 59.5t59.5 24.5t59.5 -24.5t24.5 -59.5v-662q0 -35 -24.5 -59.5t-59.5 -24.5t-59.5 24.5t-24.5 59.5zM184 760v661q0 35 24.5 59.5t59.5 24.5t59.5 -24.5t24.5 -59.5v-661q0 -35 -24.5 -59.5t-59.5 -24.5t-59.5 24.5t-24.5 59.5z" />
<glyph unicode="&#xa7;" horiz-adv-x="1187" d="M133 633q0 156 154 239q-90 90 -90 218q0 135 114.5 217t298.5 82q190 0 314 -76q90 -57 90 -127q0 -39 -24.5 -65.5t-69.5 -26.5q-16 0 -32 4t-23 8t-25.5 14t-24.5 15q-100 55 -219 55q-66 0 -114 -25.5t-48 -72.5q0 -55 52.5 -94.5t209.5 -106.5q219 -92 294 -157.5 t75 -192.5q0 -158 -147 -252q84 -82 83 -205q0 -131 -112.5 -220t-304.5 -89q-109 0 -209.5 32.5t-161.5 83.5q-59 45 -59 113q0 39 25.5 64.5t64.5 25.5q49 0 106 -47q96 -76 238 -76q76 0 125 29t49 76q0 53 -54.5 90t-222.5 106q-207 86 -279.5 160t-72.5 201zM369 645 q0 -49 49 -87t166 -85q133 -53 170 -70q78 51 77 119q0 12 -3 23.5t-9 22t-13 17.5t-20.5 16t-22.5 15.5t-28.5 15.5t-32 15t-38 17.5t-39.5 17.5q-53 25 -111.5 50.5t-64.5 27.5q-80 -45 -80 -115z" />
<glyph unicode="&#xa8;" horiz-adv-x="827" d="M123 1145q0 47 35 82t82 35t81.5 -35t34.5 -82t-34.5 -82t-81.5 -35t-82 35t-35 82zM471 1145q0 47 35 82t82 35t82 -35t35 -82t-35 -82t-82 -35t-82 35t-35 82z" />
<glyph unicode="&#xa9;" horiz-adv-x="1599" d="M92 682q0 299 203 503t506 204t504.5 -204t201.5 -503t-201.5 -503t-504.5 -204t-506 204t-203 503zM225 682q0 -254 163 -419t413 -165t411.5 165t161.5 419t-161.5 419t-411.5 165t-413 -165t-163 -419zM467 682q0 158 99.5 257t252.5 99q166 0 264 -120q16 -23 17 -48 q0 -23 -15.5 -39t-42.5 -16q-33 0 -59 27q-72 72 -164 71q-96 0 -154.5 -63.5t-58.5 -167.5t58.5 -167.5t154.5 -63.5q92 0 164 71q27 27 59 27q27 0 42.5 -16.5t15.5 -38.5q0 -25 -17 -48q-98 -121 -264 -120q-154 0 -253 99t-99 257z" />
<glyph unicode="&#xaa;" horiz-adv-x="733" d="M113 952q0 90 55 138.5t149 48.5q96 0 158 -56v50q0 61 -29.5 89.5t-103.5 28.5q-41 0 -89 -13t-60 -13q-29 0 -48.5 18.5t-19.5 46.5q0 55 75.5 77t155.5 22q279 0 279 -252v-287q0 -35 -21.5 -58.5t-56.5 -23.5t-57.5 22.5t-22.5 55.5v2q-53 -86 -168 -86 q-90 0 -143 53t-53 137zM266 952.5q0 -75.5 101 -75.5q45 0 76.5 20.5t31.5 54.5q0 37 -31.5 56.5t-76.5 19.5q-101 0 -101 -75.5z" />
<glyph unicode="&#xab;" horiz-adv-x="1144" d="M82 436q0 41 29 70l284 270q29 29 66 29q39 0 67.5 -28.5t28.5 -67.5q0 -37 -31 -68l-213 -205l213 -205q31 -31 31 -67q0 -39 -28.5 -67.5t-67.5 -28.5q-37 0 -66 28l-284 271q-29 28 -29 69zM557 436q0 41 29 70l284 270q29 29 66 29q39 0 67.5 -28.5t28.5 -67.5 q0 -37 -31 -68l-213 -205l213 -205q31 -31 31 -67q0 -39 -28.5 -67.5t-67.5 -28.5q-37 0 -66 28l-284 271q-29 28 -29 69z" />
<glyph unicode="&#xac;" horiz-adv-x="1198" d="M113 612q0 41 28.5 70t69.5 29h725q43 0 70.5 -29t27.5 -70v-352q0 -45 -31.5 -76.5t-76.5 -31.5t-77 31.5t-32 76.5v254h-606q-41 0 -69.5 28.5t-28.5 69.5z" />
<glyph unicode="&#xad;" horiz-adv-x="819" d="M102 518q0 45 32 76t75 31h401q43 0 75 -31t32 -76t-32 -75.5t-75 -30.5h-401q-43 0 -75 30.5t-32 75.5z" />
<glyph unicode="&#xae;" horiz-adv-x="802" d="M61 1046.5q0 141.5 94.5 242t248 100.5t245.5 -100.5t92 -242t-92 -239.5t-245.5 -98t-248 98t-94.5 239.5zM137 1047q0 -111 72 -190t194.5 -79t192.5 78t70 190.5t-71 192.5t-192 80q-123 0 -194.5 -79.5t-71.5 -192.5zM291 922v266q0 29 28 29h95q59 0 90 -28t31 -73 q0 -66 -54 -88l54 -92q4 -8 4 -18.5t-10.5 -19.5t-24.5 -9q-16 0 -27 18l-61 109h-60v-94q0 -33 -32.5 -33t-32.5 33zM356 1069h62q51 0 51 47t-51 47h-62v-94z" />
<glyph unicode="&#xaf;" horiz-adv-x="829" d="M133 1139q0 35 24.5 58.5t57.5 23.5h397q33 0 58.5 -23.5t25.5 -58.5t-25.5 -58.5t-58.5 -23.5h-397q-33 0 -57.5 23.5t-24.5 58.5z" />
<glyph unicode="&#xb0;" horiz-adv-x="651" d="M82 1146.5q0 102.5 69.5 172.5t174.5 70q106 0 174.5 -70t68.5 -172.5t-68.5 -173t-174.5 -70.5q-104 0 -174 70.5t-70 173zM209 1147q0 -57 30.5 -95t86 -38t86 38t30.5 95q0 55 -30.5 93t-86 38t-86 -38t-30.5 -93z" />
<glyph unicode="&#xb1;" horiz-adv-x="1208" d="M143 94q0 41 29 67.5t70 26.5h725q41 0 69.5 -27.5t28.5 -66.5t-28.5 -66.5t-69.5 -27.5h-725q-41 0 -70 27.5t-29 66.5zM143 702.5q0 40.5 29 69.5t70 29h254v213q0 45 31.5 76.5t76.5 31.5t77 -31.5t32 -76.5v-213h254q41 0 69.5 -30t28.5 -68.5t-28.5 -68.5t-69.5 -30 h-254v-213q0 -45 -32 -76.5t-77 -31.5t-76.5 31.5t-31.5 76.5v213h-254q-41 0 -70 29t-29 69.5z" />
<glyph unicode="&#xb2;" horiz-adv-x="532" d="M127 608.5q0 59.5 41 99.5t98.5 40t98.5 -40t41 -99.5t-41 -99.5t-98.5 -40t-98.5 40t-41 99.5z" />
<glyph unicode="&#xb3;" horiz-adv-x="532" d="M127 608.5q0 59.5 41 99.5t98.5 40t98.5 -40t41 -99.5t-41 -99.5t-98.5 -40t-98.5 40t-41 99.5z" />
<glyph unicode="&#xb4;" horiz-adv-x="641" d="M205 1102q0 31 24 61l107 142q29 39 78 38q41 0 67.5 -26.5t26.5 -67.5q0 -29 -23 -57l-104 -145q-31 -41 -78 -41q-39 0 -68.5 28.5t-29.5 67.5z" />
<glyph unicode="&#xb5;" d="M123 -279v1063q0 49 35 85t86 36t86 -35.5t35 -85.5v-395q0 -90 40.5 -143t120.5 -53q88 0 132 62t44 163v366q0 49 35 85t86 36t86 -35.5t35 -85.5v-680q0 -53 -35 -86.5t-86 -33.5q-53 0 -87 33.5t-34 86.5v13q-72 -141 -245 -142q-45 0 -92 15v-269q0 -49 -35 -84.5 t-86 -35.5t-86 35.5t-35 84.5z" />
<glyph unicode="&#xb6;" horiz-adv-x="1071" d="M82 987q0 156 109.5 266.5t265.5 110.5h381q35 0 57.5 -21.5t22.5 -58.5v-1221q0 -33 -24 -56t-56.5 -23t-56 23.5t-23.5 55.5v1156h-142v-1538q0 -35 -22.5 -57.5t-56.5 -22.5q-37 0 -58.5 22.5t-21.5 57.5v931q-156 0 -265.5 109.5t-109.5 265.5z" />
<glyph unicode="&#xb7;" horiz-adv-x="532" d="M127 608.5q0 59.5 41 99.5t98.5 40t98.5 -40t41 -99.5t-41 -99.5t-98.5 -40t-98.5 40t-41 99.5z" />
<glyph unicode="&#xb8;" horiz-adv-x="645" d="M123 -317q0 47 51 47q14 0 33 -6q57 -20 98 -21q88 0 88 59q0 53 -69 54q-20 0 -53 -8.5t-50 -8.5q-49 0 -49 39q0 6 6 25l49 137h95l-37 -111q33 14 86 15q68 0 109.5 -37t41.5 -100q0 -74 -57 -120t-164 -46q-66 0 -122 20.5t-56 61.5z" />
<glyph unicode="&#xb9;" horiz-adv-x="532" d="M127 608.5q0 59.5 41 99.5t98.5 40t98.5 -40t41 -99.5t-41 -99.5t-98.5 -40t-98.5 40t-41 99.5z" />
<glyph unicode="&#xba;" horiz-adv-x="749" d="M82 1075q0 131 82 222.5t211 91.5t211 -91.5t82 -222.5t-82 -222t-211 -91t-211 91t-82 222zM242 1075.5q0 -71.5 35.5 -122t97 -50.5t97.5 50.5t36 122t-36 121.5t-97.5 50t-97 -50t-35.5 -121.5z" />
<glyph unicode="&#xbb;" horiz-adv-x="1144" d="M113 164q0 37 30 67l213 205l-213 205q-31 31 -30 68q0 39 28.5 67.5t67.5 28.5q37 0 65 -29l285 -270q29 -29 29 -70t-29 -69l-285 -271q-29 -29 -65 -28q-39 0 -67.5 28.5t-28.5 67.5zM588 164q0 37 30 67l213 205l-213 205q-31 31 -30 68q0 39 28.5 67.5t67.5 28.5 q37 0 66 -29l284 -270q29 -29 29 -70t-29 -69l-284 -271q-29 -29 -66 -28q-39 0 -67.5 28.5t-28.5 67.5z" />
<glyph unicode="&#xbc;" horiz-adv-x="532" d="M127 608.5q0 59.5 41 99.5t98.5 40t98.5 -40t41 -99.5t-41 -99.5t-98.5 -40t-98.5 40t-41 99.5z" />
<glyph unicode="&#xbd;" horiz-adv-x="532" d="M127 608.5q0 59.5 41 99.5t98.5 40t98.5 -40t41 -99.5t-41 -99.5t-98.5 -40t-98.5 40t-41 99.5z" />
<glyph unicode="&#xbe;" horiz-adv-x="532" d="M127 608.5q0 59.5 41 99.5t98.5 40t98.5 -40t41 -99.5t-41 -99.5t-98.5 -40t-98.5 40t-41 99.5z" />
<glyph unicode="&#xbf;" horiz-adv-x="921" d="M72 -84q0 127 170 277q94 84 119.5 121.5t25.5 107.5v12q0 49 33 82t86 33q51 0 85 -33t34 -82v-12q0 -102 -36 -165.5t-130 -150.5q-12 -10 -37 -32.5t-34 -29.5t-25.5 -23.5t-22.5 -25.5t-14.5 -22.5t-10.5 -24.5t-2 -26q0 -53 44 -84t122 -31q96 0 207 60q53 29 76 29 q45 0 73.5 -25t28.5 -66q0 -78 -108 -137q-127 -68 -289 -67q-176 0 -285.5 82.5t-109.5 232.5zM365 774q0 57 40.5 98t98 41t98.5 -41t41 -98t-41 -98t-98.5 -41t-98 41t-40.5 98z" />
<glyph unicode="&#xc0;" horiz-adv-x="1269" d="M51 96q0 20 10 45l463 1164q31 76 111 75.5t110 -75.5l463 -1164q10 -25 11 -45q0 -47 -32 -79.5t-85 -32.5q-76 0 -105 71l-92 232h-540l-93 -232q-29 -72 -104 -71q-53 0 -85 32.5t-32 79.5zM426 1683q0 41 26.5 68t67.5 27q49 0 78 -39l84 -109q25 -31 25 -61 q0 -39 -30 -67.5t-69 -28.5q-47 0 -78 40l-81 113q-23 28 -23 57zM442 500h385l-192 512z" />
<glyph unicode="&#xc1;" horiz-adv-x="1269" d="M51 96q0 20 10 45l463 1164q31 76 111 75.5t110 -75.5l463 -1164q10 -25 11 -45q0 -47 -32 -79.5t-85 -32.5q-76 0 -105 71l-92 232h-540l-93 -232q-29 -72 -104 -71q-53 0 -85 32.5t-32 79.5zM442 500h385l-192 512zM555 1569q0 31 25 61l84 109q29 39 77 39 q41 0 68 -27t27 -68q0 -29 -23 -57l-82 -113q-31 -41 -78 -40q-39 0 -68.5 28.5t-29.5 67.5z" />
<glyph unicode="&#xc2;" horiz-adv-x="1269" d="M51 96q0 20 10 45l463 1164q31 76 111 75.5t110 -75.5l463 -1164q10 -25 11 -45q0 -47 -32 -79.5t-85 -32.5q-76 0 -105 71l-92 232h-540l-93 -232q-29 -72 -104 -71q-53 0 -85 32.5t-32 79.5zM393 1548q0 35 27 62l155 133q31 25 60 24.5t59 -24.5l156 -133 q27 -27 27 -62q0 -31 -25 -53t-55.5 -22t-57.5 22l-104 94l-105 -94q-27 -23 -57.5 -22.5t-55 22.5t-24.5 53zM442 500h385l-192 512z" />
<glyph unicode="&#xc3;" horiz-adv-x="1269" d="M51 96q0 20 10 45l463 1164q31 76 111 75.5t110 -75.5l463 -1164q10 -25 11 -45q0 -47 -32 -79.5t-85 -32.5q-76 0 -105 71l-92 232h-540l-93 -232q-29 -72 -104 -71q-53 0 -85 32.5t-32 79.5zM348 1538q0 25 31 86q29 57 53.5 79.5t69.5 22.5q39 0 153 -51 q92 -41 107 -41q23 0 37 45q18 51 65 52q33 0 50.5 -20.5t17.5 -49.5q0 -20 -8 -37q-4 -10 -14.5 -31.5t-14.5 -30t-13.5 -25.5t-15.5 -23.5t-15 -16.5t-18.5 -14t-22.5 -7t-28 -3q-37 0 -151 49q-88 37 -107 37q-27 0 -41 -29q-29 -57 -71 -57q-29 0 -46.5 19t-17.5 46z M442 500h385l-192 512z" />
<glyph unicode="&#xc4;" horiz-adv-x="1269" d="M51 96q0 20 10 45l463 1164q31 76 111 75.5t110 -75.5l463 -1164q10 -25 11 -45q0 -47 -32 -79.5t-85 -32.5q-76 0 -105 71l-92 232h-540l-93 -232q-29 -72 -104 -71q-53 0 -85 32.5t-32 79.5zM332 1593q0 47 34.5 82t82 35t82 -35t34.5 -82t-34.5 -81.5t-82 -34.5 t-82 34.5t-34.5 81.5zM442 500h385l-192 512zM705 1593q0 47 34.5 82t81.5 35t82 -35t35 -82t-35 -81.5t-82 -34.5t-81.5 34.5t-34.5 81.5z" />
<glyph unicode="&#xc5;" horiz-adv-x="1269" d="M51 96q0 20 10 45l463 1164q2 8 8 16q-63 47 -63 129q0 72 48 117t118 45t119 -45t49 -117q0 -80 -66 -129l8 -16l463 -1164q10 -25 11 -45q0 -47 -32 -79.5t-85 -32.5q-76 0 -105 71l-92 232h-540l-93 -232q-29 -72 -104 -71q-53 0 -85 32.5t-32 79.5zM442 500h385 l-192 512zM573 1450q0 -29 17.5 -49.5t44.5 -20.5t45 20.5t18 49.5q0 31 -17 50.5t-46 19.5q-27 0 -44.5 -19.5t-17.5 -50.5z" />
<glyph unicode="&#xc6;" horiz-adv-x="1708" d="M51 96q0 20 10 45l463 1147q31 76 111 76h881q47 0 81.5 -33t34.5 -80t-33.5 -79.5t-80.5 -32.5h-713l135 -336h356q47 0 81 -32t34 -81t-32.5 -80.5t-82.5 -31.5h-264l142 -353h358q47 0 81 -32.5t34 -79.5t-34 -80t-81 -33h-436q-76 0 -105 72l-86 215h-540l-93 -232 q-29 -72 -104 -71q-53 0 -85 32.5t-32 79.5zM442 500h385l-192 508z" />
<glyph unicode="&#xc7;" horiz-adv-x="1214" d="M82 682q0 328 175 517.5t435 189.5q266 0 420 -189q33 -39 33 -82q0 -47 -30 -78.5t-79 -31.5q-51 0 -94 47q-104 113 -248 112q-160 0 -263 -133t-103 -352t103.5 -352t262.5 -133q143 0 248 112q43 47 94 47q49 0 79 -31.5t30 -78.5q0 -43 -33 -82q-147 -182 -403 -189 l-29 -86q33 14 86 15q68 0 110 -37t42 -100q0 -74 -57.5 -120t-164.5 -46q-66 0 -122 20.5t-56 61.5q0 47 51 47q14 0 33 -6q57 -20 98 -21q88 0 88 59q0 53 -69 54q-20 0 -53 -8.5t-50 -8.5q-49 0 -49 39q0 6 6 25l41 117q-231 27 -381.5 213t-150.5 489z" />
<glyph unicode="&#xc8;" horiz-adv-x="1097" d="M143 121v1122q0 53 36 87t87 34h639q49 0 83 -32t34 -79t-34 -78.5t-81 -31.5h-518v-342h297q47 0 81 -32t34 -79q0 -49 -33 -79.5t-82 -30.5h-297v-359h533q47 0 80.5 -31.5t33.5 -79t-33.5 -79t-80.5 -31.5h-654q-53 0 -89 35t-36 86zM416 1683q0 41 27.5 68t66.5 27 q49 0 78 -39l84 -109q25 -31 24 -61q0 -39 -29.5 -67.5t-68.5 -28.5q-47 0 -78 40l-82 113q-22 28 -22 57z" />
<glyph unicode="&#xc9;" horiz-adv-x="1097" d="M143 121v1122q0 53 36 87t87 34h639q49 0 83 -32t34 -79t-34 -78.5t-81 -31.5h-518v-342h297q47 0 81 -32t34 -79q0 -49 -33 -79.5t-82 -30.5h-297v-359h533q47 0 80.5 -31.5t33.5 -79t-33.5 -79t-80.5 -31.5h-654q-53 0 -89 35t-36 86zM487 1569q0 31 25 61l84 109 q29 39 78 39q39 0 66.5 -27t27.5 -68q0 -29 -23 -57l-81 -113q-31 -41 -78 -40q-39 0 -69 28.5t-30 67.5z" />
<glyph unicode="&#xca;" horiz-adv-x="1097" d="M143 121v1122q0 53 36 87t87 34h639q49 0 83 -32t34 -79t-34 -78.5t-81 -31.5h-518v-342h297q47 0 81 -32t34 -79q0 -49 -33 -79.5t-82 -30.5h-297v-359h533q47 0 80.5 -31.5t33.5 -79t-33.5 -79t-80.5 -31.5h-654q-53 0 -89 35t-36 86zM358 1548q0 35 27 62l156 133 q31 25 59.5 24.5t58.5 -24.5l156 -133q27 -27 27 -62q0 -31 -24.5 -53t-55.5 -22t-57 22l-105 94l-104 -94q-27 -23 -57.5 -22.5t-55.5 22.5t-25 53z" />
<glyph unicode="&#xcb;" horiz-adv-x="1097" d="M143 121v1122q0 53 36 87t87 34h639q49 0 83 -32t34 -79t-34 -78.5t-81 -31.5h-518v-342h297q47 0 81 -32t34 -79q0 -49 -33 -79.5t-82 -30.5h-297v-359h533q47 0 80.5 -31.5t33.5 -79t-33.5 -79t-80.5 -31.5h-654q-53 0 -89 35t-36 86zM283 1593q0 47 34.5 82t81.5 35 t82 -35t35 -82t-35 -81.5t-82 -34.5t-81.5 34.5t-34.5 81.5zM655 1593q0 47 35 82t82 35t82 -35t35 -82t-35 -81.5t-82 -34.5t-82 34.5t-35 81.5z" />
<glyph unicode="&#xcc;" horiz-adv-x="552" d="M86 1683q0 41 26.5 68t67.5 27q49 0 78 -39l84 -109q25 -31 25 -61q0 -39 -30 -67.5t-69 -28.5q-47 0 -78 40l-81 113q-23 28 -23 57zM154 106v1151q0 51 35.5 87t87 36t87 -35.5t35.5 -87.5v-1151q0 -53 -34.5 -87.5t-88 -34.5t-88 35.5t-34.5 86.5z" />
<glyph unicode="&#xcd;" horiz-adv-x="552" d="M154 106v1151q0 51 35.5 87t87 36t87 -35.5t35.5 -87.5v-1151q0 -53 -34.5 -87.5t-88 -34.5t-88 35.5t-34.5 86.5zM197 1569q0 31 24 61l84 109q29 39 78 39q39 0 66.5 -27t27.5 -68q0 -29 -22 -57l-82 -113q-31 -41 -78 -40q-39 0 -68.5 28.5t-29.5 67.5z" />
<glyph unicode="&#xce;" horiz-adv-x="552" d="M37 1548q0 35 26 62l156 133q31 25 59.5 24.5t59.5 -24.5l156 -133q27 -27 26 -62q0 -31 -24.5 -53t-55 -22t-57.5 22l-104 94l-105 -94q-27 -23 -57.5 -22.5t-55 22.5t-24.5 53zM154 106v1151q0 51 35.5 87t87 36t87 -35.5t35.5 -87.5v-1151q0 -53 -34.5 -87.5 t-88 -34.5t-88 35.5t-34.5 86.5z" />
<glyph unicode="&#xcf;" horiz-adv-x="552" d="M-25 1593q0 47 35 82t82 35t82 -35t35 -82t-35 -81.5t-82 -34.5t-82 34.5t-35 81.5zM154 106v1151q0 51 35.5 87t87 36t87 -35.5t35.5 -87.5v-1151q0 -53 -34.5 -87.5t-88 -34.5t-88 35.5t-34.5 86.5zM348 1593q0 47 35 82t82 35t82 -35t35 -82t-35 -81.5t-82 -34.5 t-82 34.5t-35 81.5z" />
<glyph unicode="&#xd0;" horiz-adv-x="1345" d="M25 682q0 43 29.5 70.5t72.5 27.5h106v461q0 51 36 87t87 36h312q279 0 441.5 -186.5t162.5 -495.5t-163 -495.5t-441 -186.5h-310q-51 0 -88 36t-37 87v463h-106q-43 0 -72.5 27.5t-29.5 68.5zM479 225h187q178 0 269 127t91 330t-91 330t-269 127h-187v-359h176 q43 0 73 -27.5t30 -70.5q0 -41 -30 -68.5t-73 -27.5h-176v-361z" />
<glyph unicode="&#xd1;" horiz-adv-x="1310" d="M143 96v1170q0 51 31 82.5t86 31.5q59 0 92 -51l586 -876v813q0 47 31.5 80.5t81 33.5t83 -33.5t33.5 -80.5v-1168q0 -49 -30.5 -81.5t-83.5 -32.5q-63 0 -95 47l-585 880v-813q0 -47 -34 -80.5t-81 -33.5t-81 32.5t-34 79.5zM362 1538q0 25 31 86q29 57 53.5 79.5 t69.5 22.5q39 0 154 -51q92 -41 106 -41q23 0 37 45q18 51 66 52q33 0 50 -20.5t17 -49.5q0 -20 -8 -37q-4 -10 -14.5 -31.5t-14.5 -30t-13 -25.5t-15.5 -23.5t-15.5 -16.5t-18 -14t-22.5 -7t-27.5 -3q-37 0 -152 49q-88 37 -106 37q-27 0 -41 -29q-29 -57 -72 -57 q-29 0 -46.5 19t-17.5 46z" />
<glyph unicode="&#xd2;" horiz-adv-x="1363" d="M82 682q0 305 167 506t433 201t433 -201t167 -506t-167 -506t-433 -201t-433 201t-167 506zM328 682q0 -203 91 -344t263 -141t263 141t91 344t-91 344t-263 141t-263 -141t-91 -344zM500 1683q0 41 26.5 68t67.5 27q49 0 78 -39l84 -109q25 -31 24 -61 q0 -39 -29.5 -67.5t-68.5 -28.5q-47 0 -78 40l-82 113q-22 28 -22 57z" />
<glyph unicode="&#xd3;" horiz-adv-x="1363" d="M82 682q0 305 167 506t433 201t433 -201t167 -506t-167 -506t-433 -201t-433 201t-167 506zM328 682q0 -203 91 -344t263 -141t263 141t91 344t-91 344t-263 141t-263 -141t-91 -344zM604 1569q0 31 25 61l84 109q29 39 78 39q41 0 67.5 -27t26.5 -68q0 -29 -23 -57 l-82 -113q-31 -41 -78 -40q-39 0 -68.5 28.5t-29.5 67.5z" />
<glyph unicode="&#xd4;" horiz-adv-x="1363" d="M82 682q0 305 167 506t433 201t433 -201t167 -506t-167 -506t-433 -201t-433 201t-167 506zM328 682q0 -203 91 -344t263 -141t263 141t91 344t-91 344t-263 141t-263 -141t-91 -344zM440 1548q0 35 27 62l156 133q31 25 59.5 24.5t58.5 -24.5l156 -133q27 -27 27 -62 q0 -31 -25 -53t-55.5 -22t-57.5 22l-104 94l-104 -94q-27 -23 -58 -22.5t-55.5 22.5t-24.5 53z" />
<glyph unicode="&#xd5;" horiz-adv-x="1363" d="M82 682q0 305 167 506t433 201t433 -201t167 -506t-167 -506t-433 -201t-433 201t-167 506zM328 682q0 -203 91 -344t263 -141t263 141t91 344t-91 344t-263 141t-263 -141t-91 -344zM408 1538q0 25 30 86q29 57 53.5 79.5t69.5 22.5q39 0 154 -51q92 -41 106 -41 q23 0 37 45q18 51 66 52q33 0 50 -20.5t17 -49.5q0 -20 -8 -37q-4 -10 -14.5 -31.5t-14.5 -30t-13 -25.5t-15 -23.5t-15.5 -16.5t-18.5 -14t-22.5 -7t-27.5 -3q-37 0 -152 49q-88 37 -106 37q-27 0 -41 -29q-29 -57 -72 -57q-29 0 -46 19t-17 46z" />
<glyph unicode="&#xd6;" horiz-adv-x="1363" d="M82 682q0 305 167 506t433 201t433 -201t167 -506t-167 -506t-433 -201t-433 201t-167 506zM328 682q0 -203 91 -344t263 -141t263 141t91 344t-91 344t-263 141t-263 -141t-91 -344zM379 1593q0 47 35 82t82 35t81.5 -35t34.5 -82t-34.5 -81.5t-81.5 -34.5t-82 34.5 t-35 81.5zM752 1593q0 47 34.5 82t81.5 35t82 -35t35 -82t-35 -81.5t-82 -34.5t-81.5 34.5t-34.5 81.5z" />
<glyph unicode="&#xd7;" horiz-adv-x="983" d="M133 401q0 41 29 70l190 191l-190 190q-29 29 -29 70t28.5 70.5t69.5 29.5t70 -29l191 -190l190 190q29 29 70 29t69.5 -28.5t28.5 -69.5q0 -43 -29 -72l-190 -190l190 -191q29 -29 29 -70t-29.5 -69.5t-68.5 -28.5q-41 0 -70 29l-190 190l-191 -190q-29 -29 -70 -29 q-39 0 -68.5 28.5t-29.5 69.5z" />
<glyph unicode="&#xd8;" horiz-adv-x="1363" d="M82 -63q0 18 12 36l150 209q-162 197 -162 500q0 305 167 506t433 201q195 0 346 -119l139 194q18 27 52 27q25 0 44 -18.5t19 -42.5q0 -18 -12 -37l-152 -211q164 -201 164 -500q0 -305 -167 -506t-433 -201q-197 0 -346 117l-139 -192q-20 -27 -52 -27q-27 0 -45 18.5 t-18 45.5zM328 682q0 -172 63 -297l504 700q-88 82 -213 82q-172 0 -263 -141t-91 -344zM469 279q86 -82 213 -82q172 0 263 141t91 344q0 172 -63 297z" />
<glyph unicode="&#xd9;" horiz-adv-x="1339" d="M143 520v735q0 55 36 90t87 35q53 0 88 -35.5t35 -89.5v-768q0 -137 71.5 -213.5t209 -76.5t209 76.5t71.5 213.5v768q0 55 36 90t87 35q53 0 88 -35.5t35 -89.5v-735q0 -248 -137 -396.5t-389 -148.5t-389.5 148.5t-137.5 396.5zM494 1683q0 41 27.5 68t66.5 27 q49 0 78 -39l84 -109q25 -31 24 -61q0 -39 -29.5 -67.5t-68.5 -28.5q-47 0 -78 40l-82 113q-22 28 -22 57z" />
<glyph unicode="&#xda;" horiz-adv-x="1339" d="M143 520v735q0 55 36 90t87 35q53 0 88 -35.5t35 -89.5v-768q0 -137 71.5 -213.5t209 -76.5t209 76.5t71.5 213.5v768q0 55 36 90t87 35q53 0 88 -35.5t35 -89.5v-735q0 -248 -137 -396.5t-389 -148.5t-389.5 148.5t-137.5 396.5zM573 1569q0 31 25 61l84 109 q29 39 78 39q39 0 66.5 -27t27.5 -68q0 -29 -23 -57l-81 -113q-31 -41 -78 -40q-39 0 -69 28.5t-30 67.5z" />
<glyph unicode="&#xdb;" horiz-adv-x="1339" d="M143 520v735q0 55 36 90t87 35q53 0 88 -35.5t35 -89.5v-768q0 -137 71.5 -213.5t209 -76.5t209 76.5t71.5 213.5v768q0 55 36 90t87 35q53 0 88 -35.5t35 -89.5v-735q0 -248 -137 -396.5t-389 -148.5t-389.5 148.5t-137.5 396.5zM428 1548q0 35 27 62l155 133 q31 25 59.5 24.5t59.5 -24.5l156 -133q27 -27 26 -62q0 -31 -24.5 -53t-55 -22t-57.5 22l-104 94l-105 -94q-27 -23 -57.5 -22.5t-55 22.5t-24.5 53z" />
<glyph unicode="&#xdc;" horiz-adv-x="1339" d="M143 520v735q0 55 36 90t87 35q53 0 88 -35.5t35 -89.5v-768q0 -137 71.5 -213.5t209 -76.5t209 76.5t71.5 213.5v768q0 55 36 90t87 35q53 0 88 -35.5t35 -89.5v-735q0 -248 -137 -396.5t-389 -148.5t-389.5 148.5t-137.5 396.5zM367 1593q0 47 34.5 82t81.5 35t82 -35 t35 -82t-35 -81.5t-82 -34.5t-81.5 34.5t-34.5 81.5zM739 1593q0 47 35 82t82 35t82 -35t35 -82t-35 -81.5t-82 -34.5t-82 34.5t-35 81.5z" />
<glyph unicode="&#xdd;" horiz-adv-x="1060" d="M12 1266q0 49 33 81.5t84 32.5q66 0 98 -57l303 -549l304 549q33 57 98 57q51 0 84 -32.5t33 -81.5q0 -33 -19 -64l-377 -639v-457q0 -51 -34.5 -86.5t-88 -35.5t-88 35.5t-34.5 86.5v457l-377 639q-19 31 -19 64zM430 1569q0 31 25 61l84 109q29 39 77 39q39 0 67 -27 t28 -68q0 -29 -23 -57l-82 -113q-31 -41 -78 -40q-39 0 -68.5 28.5t-29.5 67.5z" />
<glyph unicode="&#xde;" horiz-adv-x="1165" d="M143 106v1151q0 51 36 87t87 36t87 -35.5t36 -87.5v-139h264q246 0 371 -119.5t125 -302.5q0 -186 -124 -299.5t-372 -113.5h-264v-177q0 -51 -35 -86.5t-88 -35.5q-55 0 -89 34.5t-34 87.5zM389 502h303q98 0 153.5 55t55.5 139t-54 140.5t-153 56.5h-305v-391z" />
<glyph unicode="&#xdf;" horiz-adv-x="1202" d="M123 104v863q0 195 108.5 304t317.5 109q195 0 302 -91t107 -238q0 -70 -22.5 -120t-79.5 -118q-10 -12 -30.5 -35.5t-27.5 -32t-17.5 -23.5t-13.5 -27.5t-3 -26.5q0 -35 27.5 -59.5t111.5 -65.5q131 -63 186.5 -123t55.5 -156q0 -125 -87 -207t-267 -82q-160 0 -256 68 q-55 39 -56 98q0 37 24.5 59.5t65.5 22.5q14 0 26.5 -4t31 -15t24.5 -14q66 -35 142 -34q61 0 90.5 25.5t29.5 66.5q0 39 -27.5 65.5t-107.5 61.5q-150 66 -203 125t-53 157q0 68 29 116t90 116q82 88 82 153q0 63 -45 100.5t-127 37.5q-186 0 -186 -203v-873 q0 -51 -34 -85.5t-87.5 -34.5t-87 34.5t-33.5 85.5z" />
<glyph unicode="&#xe0;" horiz-adv-x="999" d="M92 250q0 129 88 199.5t230 70.5q150 0 225 -86v80q0 195 -195 195q-70 0 -127 -21q-66 -25 -104 -24q-41 0 -69.5 26.5t-28.5 65.5q0 80 129 125q98 33 221 32q199 0 307.5 -100t108.5 -289v-418q0 -53 -31 -87.5t-86 -34.5q-53 0 -86 32.5t-33 83.5v2 q-68 -127 -244 -127q-139 0 -222 77t-83 198zM307 1249q0 41 26.5 67.5t67.5 26.5q49 0 78 -38l107 -142q25 -31 24 -61q0 -39 -29.5 -67.5t-68.5 -28.5q-47 0 -78 41l-104 145q-23 28 -23 57zM326 250q0 -51 41 -79t108.5 -28t113.5 30t46 77q0 49 -48 77.5t-112 28.5 q-66 0 -107.5 -28.5t-41.5 -77.5z" />
<glyph unicode="&#xe1;" horiz-adv-x="999" d="M92 250q0 129 88 199.5t230 70.5q150 0 225 -86v80q0 195 -195 195q-70 0 -127 -21q-66 -25 -104 -24q-41 0 -69.5 26.5t-28.5 65.5q0 80 129 125q98 33 221 32q199 0 307.5 -100t108.5 -289v-418q0 -53 -31 -87.5t-86 -34.5q-53 0 -86 32.5t-33 83.5v2 q-68 -127 -244 -127q-139 0 -222 77t-83 198zM326 250q0 -51 41 -79t108.5 -28t113.5 30t46 77q0 49 -48 77.5t-112 28.5q-66 0 -107.5 -28.5t-41.5 -77.5zM399 1102q0 31 25 61l106 142q29 39 78 38q39 0 66.5 -26.5t27.5 -67.5q0 -29 -22 -57l-105 -145q-31 -41 -77 -41 q-39 0 -69 28.5t-30 67.5z" />
<glyph unicode="&#xe2;" horiz-adv-x="999" d="M92 250q0 129 88 199.5t230 70.5q150 0 225 -86v80q0 195 -195 195q-70 0 -127 -21q-66 -25 -104 -24q-41 0 -69.5 26.5t-28.5 65.5q0 80 129 125q98 33 221 32q199 0 307.5 -100t108.5 -289v-418q0 -53 -31 -87.5t-86 -34.5q-53 0 -86 32.5t-33 83.5v2 q-68 -127 -244 -127q-139 0 -222 77t-83 198zM238 1081q0 35 26 62l182 168q31 25 60 24.5t59 -24.5l183 -168q27 -27 26 -62q0 -31 -24.5 -53t-55 -22t-57.5 22l-131 123l-131 -123q-27 -23 -57.5 -22.5t-55 22.5t-24.5 53zM326 250q0 -51 41 -79t108.5 -28t113.5 30t46 77 q0 49 -48 77.5t-112 28.5q-66 0 -107.5 -28.5t-41.5 -77.5z" />
<glyph unicode="&#xe3;" horiz-adv-x="999" d="M92 250q0 129 88 199.5t230 70.5q150 0 225 -86v80q0 195 -195 195q-70 0 -127 -21q-66 -25 -104 -24q-41 0 -69.5 26.5t-28.5 65.5q0 80 129 125q98 33 221 32q199 0 307.5 -100t108.5 -289v-418q0 -53 -31 -87.5t-86 -34.5q-53 0 -86 32.5t-33 83.5v2 q-68 -127 -244 -127q-139 0 -222 77t-83 198zM244 1071q0 25 30 86q29 57 53.5 80t69.5 23t131 -52q72 -41 84 -41q23 0 37 45q18 51 66 52q33 0 50 -20.5t17 -49.5q0 -20 -8 -37q-25 -55 -40 -81.5t-42.5 -48t-66.5 -21.5q-41 0 -121 49q-61 37 -84 37q-27 0 -41 -29 q-29 -57 -72 -57q-29 0 -46 19t-17 46zM326 250q0 -51 41 -79t108.5 -28t113.5 30t46 77q0 49 -48 77.5t-112 28.5q-66 0 -107.5 -28.5t-41.5 -77.5z" />
<glyph unicode="&#xe4;" horiz-adv-x="999" d="M92 250q0 129 88 199.5t230 70.5q150 0 225 -86v80q0 195 -195 195q-70 0 -127 -21q-66 -25 -104 -24q-41 0 -69.5 26.5t-28.5 65.5q0 80 129 125q98 33 221 32q199 0 307.5 -100t108.5 -289v-418q0 -53 -31 -87.5t-86 -34.5q-53 0 -86 32.5t-33 83.5v2 q-68 -127 -244 -127q-139 0 -222 77t-83 198zM225 1145q0 47 35 82t82 35t82 -35t35 -82t-35 -82t-82 -35t-82 35t-35 82zM326 250q0 -51 41 -79t108.5 -28t113.5 30t46 77q0 49 -48 77.5t-112 28.5q-66 0 -107.5 -28.5t-41.5 -77.5zM573 1145q0 47 35 82t82 35t82 -35 t35 -82t-35 -82t-82 -35t-82 35t-35 82z" />
<glyph unicode="&#xe5;" horiz-adv-x="999" d="M92 250q0 129 88 199.5t230 70.5q150 0 225 -86v80q0 195 -195 195q-70 0 -127 -21q-66 -25 -104 -24q-41 0 -69.5 26.5t-28.5 65.5q0 80 129 125q98 33 221 32q199 0 307.5 -100t108.5 -289v-418q0 -53 -31 -87.5t-86 -34.5q-53 0 -86 32.5t-33 83.5v2 q-68 -127 -244 -127q-139 0 -222 77t-83 198zM326 250q0 -51 41 -79t108.5 -28t113.5 30t46 77q0 49 -48 77.5t-112 28.5q-66 0 -107.5 -28.5t-41.5 -77.5zM350 1167q0 72 48 117t118 45t119 -45t49 -117q0 -70 -49 -115.5t-119 -45.5t-118 45.5t-48 115.5zM455 1167 q0 -29 17 -49t44 -20t45.5 20.5t18.5 48.5q0 31 -17.5 50.5t-46.5 19.5q-27 0 -44 -19.5t-17 -50.5z" />
<glyph unicode="&#xe6;" horiz-adv-x="1511" d="M86 250q0 129 88 199.5t229 70.5q150 0 226 -86v80q0 195 -195 195q-70 0 -127 -21q-66 -25 -104 -24q-41 0 -70 26.5t-29 65.5q0 80 129 125q98 33 222 32q188 0 303 -127q113 127 303 127q182 0 287.5 -132t105.5 -337q0 -35 -22.5 -58.5t-67.5 -23.5h-485 q4 -82 54 -140t144 -58q98 0 170 61q51 43 90 43q41 0 67 -24.5t26 -61.5q0 -55 -68 -110q-119 -96 -293 -97q-225 0 -317 125q-113 -125 -314 -125q-166 0 -259 76t-93 199zM319 250q0 -51 41 -79t109 -28t114 30t46 77q0 49 -48.5 77.5t-111.5 28.5q-66 0 -108 -28.5 t-42 -77.5zM881 537h346q-10 84 -54.5 136t-113.5 52q-72 0 -118 -55t-60 -133z" />
<glyph unicode="&#xe7;" horiz-adv-x="911" d="M72 444q0 197 119.5 333t322.5 136q92 0 175 -38.5t132 -110.5q33 -47 33 -90q0 -41 -29.5 -67.5t-70.5 -26.5q-53 0 -82 43q-59 92 -156 92q-98 0 -152.5 -80t-54.5 -190.5t54.5 -190.5t152.5 -80q96 0 156 92q29 43 82 43q41 0 70.5 -26.5t29.5 -67.5q0 -43 -33 -90 q-102 -145 -301 -150l-28 -86q33 14 86 15q68 0 109.5 -37t41.5 -100q0 -74 -57.5 -120t-163.5 -46q-66 0 -122 20.5t-56 61.5q0 47 51 47q14 0 33 -6q57 -20 98 -21q88 0 88 59q0 53 -70 54q-20 0 -53 -8.5t-49 -8.5q-49 0 -49 39q0 6 6 25l43 121q-166 29 -261 157.5 t-95 302.5z" />
<glyph unicode="&#xe8;" horiz-adv-x="954" d="M72 444.5q0 200.5 119.5 334.5t312.5 134q182 0 287.5 -132t105.5 -337q0 -35 -22.5 -58.5t-67.5 -23.5h-485q4 -82 54 -140t144 -58q98 0 170 61q51 43 90 43q41 0 66.5 -24.5t25.5 -61.5q0 -55 -67 -110q-119 -96 -293 -97q-211 0 -325.5 134.5t-114.5 335zM305 1249 q0 41 27.5 67.5t66.5 26.5q49 0 78 -38l107 -142q25 -31 24 -61q0 -39 -29.5 -67.5t-68.5 -28.5q-47 0 -78 41l-104 145q-23 28 -23 57zM324 537h346q-10 84 -54.5 136t-113.5 52q-72 0 -117 -52t-61 -136z" />
<glyph unicode="&#xe9;" horiz-adv-x="954" d="M72 444.5q0 200.5 119.5 334.5t312.5 134q182 0 287.5 -132t105.5 -337q0 -35 -22.5 -58.5t-67.5 -23.5h-485q4 -82 54 -140t144 -58q98 0 170 61q51 43 90 43q41 0 66.5 -24.5t25.5 -61.5q0 -55 -67 -110q-119 -96 -293 -97q-211 0 -325.5 134.5t-114.5 335zM324 537 h346q-10 84 -54.5 136t-113.5 52q-72 0 -117 -52t-61 -136zM412 1102q0 31 24 61l107 142q29 39 78 38q39 0 66.5 -26.5t27.5 -67.5q0 -29 -23 -57l-104 -145q-31 -41 -78 -41q-39 0 -68.5 28.5t-29.5 67.5z" />
<glyph unicode="&#xea;" horiz-adv-x="954" d="M72 444.5q0 200.5 119.5 334.5t312.5 134q182 0 287.5 -132t105.5 -337q0 -35 -22.5 -58.5t-67.5 -23.5h-485q4 -82 54 -140t144 -58q98 0 170 61q51 43 90 43q41 0 66.5 -24.5t25.5 -61.5q0 -55 -67 -110q-119 -96 -293 -97q-211 0 -325.5 134.5t-114.5 335zM250 1081 q0 35 26 62l183 168q31 25 59.5 24.5t59.5 -24.5l182 -168q27 -27 26 -62q0 -31 -24.5 -53t-55 -22t-57.5 22l-131 123l-131 -123q-27 -23 -57.5 -22.5t-55 22.5t-24.5 53zM324 537h346q-10 84 -54.5 136t-113.5 52q-72 0 -117 -52t-61 -136z" />
<glyph unicode="&#xeb;" horiz-adv-x="954" d="M72 444.5q0 200.5 119.5 334.5t312.5 134q182 0 287.5 -132t105.5 -337q0 -35 -22.5 -58.5t-67.5 -23.5h-485q4 -82 54 -140t144 -58q98 0 170 61q51 43 90 43q41 0 66.5 -24.5t25.5 -61.5q0 -55 -67 -110q-119 -96 -293 -97q-211 0 -325.5 134.5t-114.5 335zM223 1145 q0 47 35 82t82 35t82 -35t35 -82t-35 -82t-82 -35t-82 35t-35 82zM324 537h346q-10 84 -54.5 136t-113.5 52q-72 0 -117 -52t-61 -136zM571 1145q0 47 35 82t82 35t82 -35t35 -82t-35 -82t-82 -35t-82 35t-35 82z" />
<glyph unicode="&#xec;" horiz-adv-x="507" d="M41 1249q0 41 26.5 67.5t67.5 26.5q49 0 78 -38l106 -142q25 -31 25 -61q0 -39 -29.5 -67.5t-68.5 -28.5q-47 0 -78 41l-105 145q-22 28 -22 57zM133 104v680q0 49 35 85t86 36t86 -35.5t35 -85.5v-680q0 -49 -35 -84.5t-86 -35.5t-86 35.5t-35 84.5z" />
<glyph unicode="&#xed;" horiz-adv-x="507" d="M133 104v680q0 49 35 85t86 36t86 -35.5t35 -85.5v-680q0 -49 -35 -84.5t-86 -35.5t-86 35.5t-35 84.5zM164 1102q0 31 24 61l107 142q29 39 78 38q41 0 67.5 -26.5t26.5 -67.5q0 -29 -23 -57l-104 -145q-31 -41 -78 -41q-39 0 -68.5 28.5t-29.5 67.5z" />
<glyph unicode="&#xee;" horiz-adv-x="507" d="M-14 1081q0 35 26 62l183 168q31 25 59.5 24.5t58.5 -24.5l183 -168q27 -27 26 -62q0 -31 -24.5 -53t-55 -22t-57.5 22l-131 123l-131 -123q-27 -23 -57.5 -22.5t-55 22.5t-24.5 53zM133 104v680q0 49 35 85t86 36t86 -35.5t35 -85.5v-680q0 -49 -35 -84.5t-86 -35.5 t-86 35.5t-35 84.5z" />
<glyph unicode="&#xef;" horiz-adv-x="507" d="M-37 1145q0 47 35 82t82 35t82 -35t35 -82t-35 -82t-82 -35t-82 35t-35 82zM133 104v680q0 49 35 85t86 36t86 -35.5t35 -85.5v-680q0 -49 -35 -84.5t-86 -35.5t-86 35.5t-35 84.5zM311 1145q0 47 35 82t82 35t82 -35t35 -82t-35 -82t-82 -35t-82 35t-35 82z" />
<glyph unicode="&#xf0;" horiz-adv-x="1028" d="M72 410q0 186 111.5 301.5t297.5 115.5q113 0 199 -59q-27 141 -139 246l-90 -80q-27 -23 -56 -23q-35 0 -59.5 25t-24.5 57q0 35 27 62l74 65q-31 23 -78 53.5t-55 36.5q-43 31 -43 76t28.5 74t71.5 29q18 0 63 -23q102 -55 168 -100l72 67q23 20 57.5 20.5t58 -23 t23.5 -56.5t-26 -64l-62 -55q256 -276 256 -674q0 -219 -113.5 -362.5t-326.5 -143.5q-209 0 -321.5 126.5t-112.5 308.5zM309 403q0 -94 54.5 -157.5t144.5 -63.5q96 0 146.5 64.5t50.5 156.5q0 98 -53.5 159t-143.5 61q-92 0 -145.5 -59t-53.5 -161z" />
<glyph unicode="&#xf1;" d="M133 104v680q0 53 35 87t86 34q53 0 87 -33.5t34 -87.5v-12q72 141 246 141q162 0 247.5 -112.5t85.5 -300.5v-396q0 -49 -34.5 -84.5t-86 -35.5t-86 35.5t-34.5 84.5v396q0 90 -41 143t-121 53q-88 0 -132 -62.5t-44 -162.5v-367q0 -49 -35 -84.5t-86 -35.5t-86 35.5 t-35 84.5zM285 1071q0 25 30 86q29 57 53.5 80t69.5 23t131 -52q72 -41 84 -41q23 0 37 45q18 51 66 52q33 0 50 -20.5t17 -49.5q0 -20 -8 -37q-25 -55 -40 -81.5t-42.5 -48t-66.5 -21.5q-41 0 -121 49q-61 37 -84 37q-27 0 -41 -29q-29 -57 -72 -57q-29 0 -46 19t-17 46z " />
<glyph unicode="&#xf2;" horiz-adv-x="1021" d="M72 444.5q0 196.5 120.5 332.5t317.5 136t318.5 -137t121.5 -331.5t-121.5 -332t-318.5 -137.5t-317.5 136.5t-120.5 333zM295 1249q0 41 26.5 67.5t67.5 26.5q49 0 78 -38l106 -142q25 -31 25 -61q0 -39 -29.5 -67.5t-68.5 -28.5q-47 0 -78 41l-105 145q-22 28 -22 57z M309 444.5q0 -112.5 52.5 -188.5t148.5 -76t148.5 76t52.5 188.5t-52.5 188.5t-148.5 76t-148.5 -76t-52.5 -188.5z" />
<glyph unicode="&#xf3;" horiz-adv-x="1021" d="M72 444.5q0 196.5 120.5 332.5t317.5 136t318.5 -137t121.5 -331.5t-121.5 -332t-318.5 -137.5t-317.5 136.5t-120.5 333zM309 444.5q0 -112.5 52.5 -188.5t148.5 -76t148.5 76t52.5 188.5t-52.5 188.5t-148.5 76t-148.5 -76t-52.5 -188.5zM406 1102q0 31 24 61l107 142 q29 39 77 38q41 0 68 -26.5t27 -67.5q0 -29 -23 -57l-104 -145q-31 -41 -78 -41q-39 0 -68.5 28.5t-29.5 67.5z" />
<glyph unicode="&#xf4;" horiz-adv-x="1021" d="M72 444.5q0 196.5 120.5 332.5t317.5 136t318.5 -137t121.5 -331.5t-121.5 -332t-318.5 -137.5t-317.5 136.5t-120.5 333zM242 1081q0 35 26 62l183 168q31 25 59.5 24.5t58.5 -24.5l183 -168q27 -27 26 -62q0 -31 -24.5 -53t-55 -22t-57.5 22l-131 123l-131 -123 q-27 -23 -57.5 -22.5t-55 22.5t-24.5 53zM309 444.5q0 -112.5 52.5 -188.5t148.5 -76t148.5 76t52.5 188.5t-52.5 188.5t-148.5 76t-148.5 -76t-52.5 -188.5z" />
<glyph unicode="&#xf5;" horiz-adv-x="1021" d="M72 444.5q0 196.5 120.5 332.5t317.5 136t318.5 -137t121.5 -331.5t-121.5 -332t-318.5 -137.5t-317.5 136.5t-120.5 333zM256 1071q0 25 31 86q29 57 53.5 80t69.5 23t131 -52q72 -41 84 -41q23 0 37 45q18 51 65 52q33 0 50.5 -20.5t17.5 -49.5q0 -20 -9 -37 q-25 -55 -40 -81.5t-42.5 -48t-66.5 -21.5q-41 0 -121 49q-61 37 -84 37q-27 0 -41 -29q-29 -57 -72 -57q-29 0 -46 19t-17 46zM309 444.5q0 -112.5 52.5 -188.5t148.5 -76t148.5 76t52.5 188.5t-52.5 188.5t-148.5 76t-148.5 -76t-52.5 -188.5z" />
<glyph unicode="&#xf6;" horiz-adv-x="1021" d="M72 444.5q0 196.5 120.5 332.5t317.5 136t318.5 -137t121.5 -331.5t-121.5 -332t-318.5 -137.5t-317.5 136.5t-120.5 333zM219 1145q0 47 35 82t82 35t82 -35t35 -82t-35 -82t-82 -35t-82 35t-35 82zM309 444.5q0 -112.5 52.5 -188.5t148.5 -76t148.5 76t52.5 188.5 t-52.5 188.5t-148.5 76t-148.5 -76t-52.5 -188.5zM567 1145q0 47 35 82t82 35t82 -35t35 -82t-35 -82t-82 -35t-82 35t-35 82z" />
<glyph unicode="&#xf7;" horiz-adv-x="1101" d="M102 662q0 39 26 65.5t65 26.5h716q37 0 63.5 -27t26.5 -65q0 -37 -26.5 -65t-63.5 -28h-716q-37 0 -64 28t-27 65zM428 307q0 51 36 86t87 35q49 0 85 -35t36 -86q0 -49 -36 -85t-85 -36q-51 0 -87 36t-36 85zM428 1016q0 51 36 86t87 35q49 0 85 -35t36 -86 q0 -49 -36 -85t-85 -36q-51 0 -87 36t-36 85z" />
<glyph unicode="&#xf8;" horiz-adv-x="1021" d="M72 444q0 197 120.5 333t317.5 136q131 0 238 -69l112 151q14 20 39 21q18 0 34.5 -14.5t16.5 -32.5q0 -14 -10 -29l-117 -158q127 -133 127 -338q0 -195 -121.5 -332t-318.5 -137q-131 0 -236 66l-110 -147q-16 -20 -41 -21q-20 0 -34.5 14.5t-14.5 34.5q0 14 10 29 l115 153q-127 133 -127 340zM309 444q0 -84 31 -149l278 377q-47 37 -108 37q-96 0 -148.5 -76t-52.5 -189zM401 215q45 -35 109 -35q96 0 148.5 76t52.5 188q0 80 -31 146z" />
<glyph unicode="&#xf9;" d="M123 389v395q0 49 35 85t86 36t86 -35.5t35 -85.5v-395q0 -90 40.5 -143t120.5 -53q88 0 132 62t44 163v366q0 49 35 85t86 36t86 -35.5t35 -85.5v-680q0 -53 -35 -86.5t-86 -33.5q-53 0 -87 33.5t-34 86.5v13q-72 -141 -245 -142q-162 0 -248 113t-86 301zM362 1249 q0 41 28 67.5t67 26.5q49 0 78 -38l106 -142q25 -31 25 -61q0 -39 -30 -67.5t-69 -28.5q-47 0 -78 41l-104 145q-23 28 -23 57z" />
<glyph unicode="&#xfa;" d="M123 389v395q0 49 35 85t86 36t86 -35.5t35 -85.5v-395q0 -90 40.5 -143t120.5 -53q88 0 132 62t44 163v366q0 49 35 85t86 36t86 -35.5t35 -85.5v-680q0 -53 -35 -86.5t-86 -33.5q-53 0 -87 33.5t-34 86.5v13q-72 -141 -245 -142q-162 0 -248 113t-86 301zM426 1102 q0 31 25 61l106 142q29 39 78 38q41 0 67.5 -26.5t26.5 -67.5q0 -29 -22 -57l-105 -145q-31 -41 -78 -41q-39 0 -68.5 28.5t-29.5 67.5z" />
<glyph unicode="&#xfb;" d="M123 389v395q0 49 35 85t86 36t86 -35.5t35 -85.5v-395q0 -90 40.5 -143t120.5 -53q88 0 132 62t44 163v366q0 49 35 85t86 36t86 -35.5t35 -85.5v-680q0 -53 -35 -86.5t-86 -33.5q-53 0 -87 33.5t-34 86.5v13q-72 -141 -245 -142q-162 0 -248 113t-86 301zM283 1081 q0 35 26 62l183 168q31 25 59.5 24.5t58.5 -24.5l183 -168q27 -27 26 -62q0 -31 -24.5 -53t-55 -22t-57.5 22l-131 123l-131 -123q-27 -23 -57.5 -22.5t-55 22.5t-24.5 53z" />
<glyph unicode="&#xfc;" d="M123 389v395q0 49 35 85t86 36t86 -35.5t35 -85.5v-395q0 -90 40.5 -143t120.5 -53q88 0 132 62t44 163v366q0 49 35 85t86 36t86 -35.5t35 -85.5v-680q0 -53 -35 -86.5t-86 -33.5q-53 0 -87 33.5t-34 86.5v13q-72 -141 -245 -142q-162 0 -248 113t-86 301zM260 1145 q0 47 35 82t82 35t82 -35t35 -82t-35 -82t-82 -35t-82 35t-35 82zM608 1145q0 47 35 82t82 35t82 -35t35 -82t-35 -82t-82 -35t-82 35t-35 82z" />
<glyph unicode="&#xfd;" horiz-adv-x="860" d="M20 799q0 47 32 76.5t79 29.5q78 0 107 -80l202 -585l176 583q25 82 107 82q51 0 81 -32.5t30 -79.5q0 -16 -9 -41q-156 -467 -235 -676q-143 -369 -346 -465q-20 -10 -51 -10q-47 0 -78 27.5t-31 68.5q0 43 63 98q113 98 162 219l-280 744q-9 29 -9 41zM330 1102 q0 31 24 61l107 142q29 39 78 38q39 0 66.5 -26.5t27.5 -67.5q0 -29 -23 -57l-104 -145q-31 -41 -78 -41q-39 0 -68.5 28.5t-29.5 67.5z" />
<glyph unicode="&#xfe;" horiz-adv-x="1079" d="M133 -279v1539q0 51 32 85.5t85 34.5t85 -33.5t32 -82.5v-502q33 68 101.5 109.5t154.5 41.5q176 0 280.5 -137t104.5 -331.5t-104.5 -332t-280.5 -137.5q-78 0 -145.5 41t-102.5 101v-396q0 -49 -35 -84.5t-86 -35.5t-86 35.5t-35 84.5zM375 444.5q0 -112.5 51 -188.5 t143.5 -76t145.5 74t53 190.5t-53 190.5t-145.5 74t-143.5 -76t-51 -188.5z" />
<glyph unicode="&#xff;" horiz-adv-x="860" d="M20 799q0 47 32 76.5t79 29.5q78 0 107 -80l202 -585l176 583q25 82 107 82q51 0 81 -32.5t30 -79.5q0 -16 -9 -41q-156 -467 -235 -676q-143 -369 -346 -465q-20 -10 -51 -10q-47 0 -78 27.5t-31 68.5q0 43 63 98q113 98 162 219l-280 744q-9 29 -9 41zM135 1145 q0 47 35 82t82 35t82 -35t35 -82t-35 -82t-82 -35t-82 35t-35 82zM483 1145q0 47 35 82t82 35t82 -35t35 -82t-35 -82t-82 -35t-82 35t-35 82z" />
<glyph unicode="&#x152;" horiz-adv-x="1990" d="M82 682q0 305 167 506t433 201q197 0 354 -158v10q0 53 36 88t87 35h639q47 0 82 -33t35 -80t-34 -79.5t-81 -32.5h-518v-336h297q47 0 81 -32t34 -81t-33 -80.5t-82 -31.5h-297v-353h533q47 0 80.5 -32.5t33.5 -79.5t-33.5 -80t-80.5 -33h-654q-53 0 -89 36t-36 87v8 q-145 -156 -354 -156q-266 0 -433 201t-167 506zM328 682q0 -203 91 -344t263 -141q168 0 259 134t95 333v18q0 203 -91 344t-263 141t-263 -141t-91 -344z" />
<glyph unicode="&#x153;" horiz-adv-x="1587" d="M72 444.5q0 196.5 120.5 332.5t317.5 136q193 0 315 -133q123 133 312 133q182 0 287.5 -132t105.5 -337q0 -35 -22.5 -58.5t-67.5 -23.5h-486q4 -82 54.5 -140t144.5 -58q98 0 170 61q49 43 90 43t66.5 -24.5t25.5 -61.5q0 -55 -67 -110q-119 -96 -293 -97 q-203 0 -322 129q-123 -129 -313 -129q-197 0 -317.5 136.5t-120.5 333zM309 444.5q0 -112.5 52.5 -188.5t148.5 -76t148.5 76t52.5 188.5t-52.5 188.5t-148.5 76t-148.5 -76t-52.5 -188.5zM956 537h347q-10 84 -54.5 136t-113.5 52q-72 0 -117.5 -52t-61.5 -136z" />
<glyph unicode="&#x178;" horiz-adv-x="1060" d="M12 1266q0 49 33 81.5t84 32.5q66 0 98 -57l303 -549l304 549q33 57 98 57q51 0 84 -32.5t33 -81.5q0 -33 -19 -64l-377 -639v-457q0 -51 -34.5 -86.5t-88 -35.5t-88 35.5t-34.5 86.5v457l-377 639q-19 31 -19 64zM227 1593q0 47 35 82t82 35t82 -35t35 -82t-35 -81.5 t-82 -34.5t-82 34.5t-35 81.5zM600 1593q0 47 35 82t82 35t82 -35t35 -82t-35 -81.5t-82 -34.5t-82 34.5t-35 81.5z" />
<glyph unicode="&#x2c6;" horiz-adv-x="782" d="M123 1081q0 35 27 62l182 168q31 25 59.5 24.5t59.5 -24.5l182 -168q27 -27 26 -62q0 -31 -24.5 -53t-55 -22t-57.5 22l-131 123l-131 -123q-27 -23 -57.5 -22.5t-55 22.5t-24.5 53z" />
<glyph unicode="&#x2dc;" horiz-adv-x="804" d="M133 1071q0 25 31 86q29 57 53.5 80t69.5 23t131 -52q72 -41 84 -41q23 0 37 45q18 51 65 52q33 0 50.5 -20.5t17.5 -49.5q0 -20 -8 -37q-25 -55 -40.5 -81.5t-43 -48t-66.5 -21.5q-41 0 -121 49q-61 37 -84 37q-27 0 -41 -29q-29 -57 -71 -57q-29 0 -46.5 19t-17.5 46z " />
<glyph unicode="&#x2000;" horiz-adv-x="888" />
<glyph unicode="&#x2001;" horiz-adv-x="1777" />
<glyph unicode="&#x2002;" horiz-adv-x="888" />
<glyph unicode="&#x2003;" horiz-adv-x="1777" />
<glyph unicode="&#x2004;" horiz-adv-x="591" />
<glyph unicode="&#x2005;" horiz-adv-x="444" />
<glyph unicode="&#x2006;" horiz-adv-x="294" />
<glyph unicode="&#x2007;" horiz-adv-x="294" />
<glyph unicode="&#x2008;" horiz-adv-x="221" />
<glyph unicode="&#x2009;" horiz-adv-x="354" />
<glyph unicode="&#x200a;" horiz-adv-x="98" />
<glyph unicode="&#x2010;" horiz-adv-x="819" d="M102 518q0 45 32 76t75 31h401q43 0 75 -31t32 -76t-32 -75.5t-75 -30.5h-401q-43 0 -75 30.5t-32 75.5z" />
<glyph unicode="&#x2011;" horiz-adv-x="819" d="M102 518q0 45 32 76t75 31h401q43 0 75 -31t32 -76t-32 -75.5t-75 -30.5h-401q-43 0 -75 30.5t-32 75.5z" />
<glyph unicode="&#x2012;" horiz-adv-x="819" d="M102 518q0 45 32 76t75 31h401q43 0 75 -31t32 -76t-32 -75.5t-75 -30.5h-401q-43 0 -75 30.5t-32 75.5z" />
<glyph unicode="&#x2013;" horiz-adv-x="1177" d="M102 518q0 45 32 76t75 31h760q43 0 74.5 -31t31.5 -76t-31.5 -75.5t-74.5 -30.5h-760q-43 0 -75 30.5t-32 75.5z" />
<glyph unicode="&#x2014;" horiz-adv-x="1628" d="M102 518q0 45 32 76t75 31h1210q43 0 75 -31t32 -76t-32 -75.5t-75 -30.5h-1210q-43 0 -75 30.5t-32 75.5z" />
<glyph unicode="&#x2018;" horiz-adv-x="430" d="M102 872v115q0 197 66 320q41 76 104 75q41 0 69 -24.5t28 -54.5q0 -16 -5.5 -32t-14.5 -37.5t-13 -35.5q-31 -92 -31 -203v-123q0 -47 -27.5 -75.5t-72.5 -28.5q-47 0 -75 28.5t-28 75.5z" />
<glyph unicode="&#x2019;" horiz-adv-x="430" d="M82 848q0 16 5 31.5t14.5 37t13.5 35.5q31 92 30 203v123q0 47 28 75.5t73 28.5q47 0 74.5 -28.5t27.5 -75.5v-115q0 -197 -65 -319q-41 -76 -105 -76q-41 0 -68.5 24.5t-27.5 55.5z" />
<glyph unicode="&#x201a;" horiz-adv-x="475" d="M86 -268q0 16 5 31.5t14.5 37t13.5 35.5q31 92 31 203v123q0 47 27.5 75.5t72.5 28.5q47 0 74.5 -28.5t27.5 -75.5v-115q0 -197 -65 -319q-41 -76 -105 -76q-41 0 -68.5 24.5t-27.5 55.5z" />
<glyph unicode="&#x201c;" horiz-adv-x="839" d="M102 872v115q0 197 66 320q41 76 104 75q41 0 69 -24.5t28 -54.5q0 -16 -5.5 -32t-14.5 -37.5t-13 -35.5q-31 -92 -31 -203v-123q0 -47 -27.5 -75.5t-72.5 -28.5q-47 0 -75 28.5t-28 75.5zM512 872v115q0 197 66 320q41 76 104 75q41 0 68.5 -24.5t27.5 -54.5 q0 -16 -5 -32t-14 -37.5t-14 -35.5q-31 -92 -30 -203v-123q0 -47 -28 -75.5t-73 -28.5q-47 0 -74.5 28.5t-27.5 75.5z" />
<glyph unicode="&#x201d;" horiz-adv-x="839" d="M82 848q0 16 5 31.5t14.5 37t13.5 35.5q31 92 30 203v123q0 47 28 75.5t73 28.5q47 0 74.5 -28.5t27.5 -75.5v-115q0 -197 -65 -319q-41 -76 -105 -76q-41 0 -68.5 24.5t-27.5 55.5zM492 848q0 16 5 31.5t14 37t13 35.5q31 92 31 203v123q0 47 27.5 75.5t72.5 28.5 q47 0 75 -28.5t28 -75.5v-115q0 -197 -66 -319q-41 -76 -104 -76q-41 0 -68.5 24.5t-27.5 55.5z" />
<glyph unicode="&#x201e;" horiz-adv-x="888" d="M86 -268q0 16 5 31.5t14.5 37t13.5 35.5q31 92 31 203v123q0 47 27.5 75.5t72.5 28.5q47 0 74.5 -28.5t27.5 -75.5v-115q0 -197 -65 -319q-41 -76 -105 -76q-41 0 -68.5 24.5t-27.5 55.5zM500 -268q0 16 5 31.5t14 37t13 35.5q31 92 31 203v123q0 47 27.5 75.5t73.5 28.5 q47 0 74.5 -28.5t27.5 -75.5v-115q0 -197 -66 -319q-41 -76 -104 -76q-41 0 -68.5 24.5t-27.5 55.5z" />
<glyph unicode="&#x2022;" horiz-adv-x="724" d="M102 649.5q0 108.5 76 184t184.5 75.5t184.5 -75.5t76 -184t-76 -184.5t-184.5 -76t-184.5 76t-76 184.5z" />
<glyph unicode="&#x2026;" horiz-adv-x="1597" d="M127 123q0 57 41 98t98.5 41t98.5 -41t41 -98t-41 -98t-98.5 -41t-98.5 41t-41 98zM659 123q0 57 41 98t98.5 41t98.5 -41t41 -98t-41 -98t-98.5 -41t-98.5 41t-41 98zM1192 123q0 57 41 98t98.5 41t98 -41t40.5 -98t-40.5 -98t-98 -41t-98.5 41t-41 98z" />
<glyph unicode="&#x202f;" horiz-adv-x="354" />
<glyph unicode="&#x2039;" horiz-adv-x="669" d="M82 436q0 41 29 70l284 270q29 29 66 29q39 0 67.5 -28.5t28.5 -67.5q0 -37 -31 -68l-213 -205l213 -205q31 -31 31 -67q0 -39 -28.5 -67.5t-67.5 -28.5q-37 0 -66 28l-284 271q-29 28 -29 69z" />
<glyph unicode="&#x203a;" horiz-adv-x="669" d="M113 164q0 37 30 67l213 205l-213 205q-31 31 -30 68q0 39 28.5 67.5t67.5 28.5q37 0 65 -29l285 -270q29 -29 29 -70t-29 -69l-285 -271q-29 -29 -65 -28q-39 0 -67.5 28.5t-28.5 67.5z" />
<glyph unicode="&#x205f;" horiz-adv-x="444" />
<glyph unicode="&#x20ac;" horiz-adv-x="1284" d="M72 537q0 29 20.5 50t50.5 21h123q-2 23 -2 74t2 74h-123q-31 0 -51 21.5t-20 49.5q0 31 20.5 51.5t50.5 20.5h142q41 233 176 361.5t332 128.5q236 0 387 -193q33 -43 32 -82q0 -43 -27.5 -71.5t-72.5 -28.5q-55 0 -92 49q-51 61 -97 91t-122 30q-106 0 -183 -81 t-94 -204h281q31 0 51.5 -20.5t20.5 -51.5q0 -29 -20.5 -50t-51.5 -21h-305q-2 -23 -2 -74t2 -74h305q31 0 51.5 -21.5t20.5 -49.5q0 -31 -20.5 -51.5t-51.5 -20.5h-281q16 -123 93 -204t184 -81q76 0 122 30t97 91q37 49 92 49q45 0 72.5 -28.5t27.5 -71.5q0 -39 -32 -82 q-152 -193 -387 -193q-197 0 -332 128t-176 362h-142q-31 0 -51 20.5t-20 51.5z" />
<glyph unicode="&#x2122;" horiz-adv-x="1355" d="M68 1305q0 25 18 42t43 17h399q25 0 43.5 -17.5t18.5 -41.5q0 -27 -18.5 -44.5t-43.5 -17.5h-137v-426q0 -27 -18.5 -45t-45 -18t-46 18.5t-19.5 44.5v426h-133q-25 0 -43 17.5t-18 44.5zM664 815v498q0 27 18 43t45 16q41 0 59 -37l172 -405l172 405q18 37 60 37 q27 0 45 -16.5t18 -42.5v-498q0 -27 -17 -44t-46 -17q-27 0 -44.5 17t-17.5 44v246l-106 -258q-20 -49 -63.5 -49t-63.5 49l-107 258v-246q0 -27 -17 -44t-44 -17q-29 0 -46 17t-17 44z" />
<glyph unicode="&#xe000;" horiz-adv-x="905" d="M0 905h905v-905h-905v905z" />
<glyph unicode="&#xfb01;" horiz-adv-x="1163" d="M6 788q0 43 31 72t74 29h67v127q0 156 82 252t258 96h23q51 0 80.5 -28.5t29.5 -73.5t-29.5 -75t-78.5 -30h-11q-113 0 -112 -127v-141h129q43 0 72.5 -29t29.5 -72t-29.5 -71.5t-72.5 -28.5h-129v-584q0 -51 -34 -85.5t-87 -34.5t-87 34.5t-34 85.5v584h-67 q-43 0 -74 28.5t-31 71.5zM774 1161.5q0 57.5 39 96t96.5 38.5t96 -38.5t38.5 -96t-38.5 -96.5t-96 -39t-96.5 39t-39 96.5zM788 104v680q0 49 35 85t86.5 36t86 -35.5t34.5 -85.5v-680q0 -49 -34.5 -84.5t-86 -35.5t-86.5 35.5t-35 84.5z" />
<glyph unicode="&#xfb02;" horiz-adv-x="1165" d="M6 788q0 43 31 72t74 29h67v127q0 156 82 252t258 96h23q51 0 80.5 -28.5t29.5 -73.5t-29.5 -75t-78.5 -30h-11q-113 0 -112 -127v-141h129q43 0 72.5 -29t29.5 -72t-29.5 -71.5t-72.5 -28.5h-129v-584q0 -51 -34 -85.5t-87 -34.5t-87 34.5t-34 85.5v584h-67 q-43 0 -74 28.5t-31 71.5zM791 104v1156q0 49 34.5 84.5t86 35.5t86 -35.5t34.5 -84.5v-1156q0 -49 -34.5 -84.5t-86 -35.5t-86 35.5t-34.5 84.5z" />
<glyph unicode="&#xfb03;" horiz-adv-x="1810" d="M1422 1161.5q0 57.5 39 96t96 38.5t96 -38.5t39 -96t-39 -96.5t-96 -39t-96 39t-39 96.5zM1436 104v680q0 49 35 85t86 36t86 -35.5t35 -85.5v-680q0 -49 -35 -84.5t-86 -35.5t-86 35.5t-35 84.5zM657 788q0 43 31 72t74 29h67v127q0 156 82 252t258 96h23 q51 0 80.5 -28.5t29.5 -73.5t-29.5 -75t-78.5 -30h-11q-113 0 -112 -127v-141h129q43 0 72.5 -29t29.5 -72t-29.5 -71.5t-72.5 -28.5h-129v-584q0 -51 -34 -85.5t-87 -34.5t-87 34.5t-34 85.5v584h-67q-43 0 -74 28.5t-31 71.5zM6 788q0 43 31 72t74 29h67v127q0 156 82 252 t258 96h23q51 0 80.5 -28.5t29.5 -73.5t-29.5 -75t-78.5 -30h-11q-113 0 -112 -127v-141h129q43 0 72.5 -29t29.5 -72t-29.5 -71.5t-72.5 -28.5h-129v-584q0 -51 -34 -85.5t-87 -34.5t-87 34.5t-34 85.5v584h-67q-43 0 -74 28.5t-31 71.5z" />
<glyph unicode="&#xfb04;" horiz-adv-x="1810" d="M1436 104v1156q0 49 35 84.5t86 35.5t86 -35.5t35 -84.5v-1156q0 -49 -35 -84.5t-86 -35.5t-86 35.5t-35 84.5zM657 788q0 43 31 72t74 29h67v127q0 156 82 252t258 96h23q51 0 80.5 -28.5t29.5 -73.5t-29.5 -75t-78.5 -30h-11q-113 0 -112 -127v-141h129q43 0 72.5 -29 t29.5 -72t-29.5 -71.5t-72.5 -28.5h-129v-584q0 -51 -34 -85.5t-87 -34.5t-87 34.5t-34 85.5v584h-67q-43 0 -74 28.5t-31 71.5zM6 788q0 43 31 72t74 29h67v127q0 156 82 252t258 96h23q51 0 80.5 -28.5t29.5 -73.5t-29.5 -75t-78.5 -30h-11q-113 0 -112 -127v-141h129 q43 0 72.5 -29t29.5 -72t-29.5 -71.5t-72.5 -28.5h-129v-584q0 -51 -34 -85.5t-87 -34.5t-87 34.5t-34 85.5v584h-67q-43 0 -74 28.5t-31 71.5z" />
</font>
</defs>
</svg>
