<?xml version="1.0" standalone="no"?>
<!DOCTYPE svg PUBLIC "-//W3C//DTD SVG 1.1//EN" "http://www.w3.org/Graphics/SVG/1.1/DTD/svg11.dtd" >
<svg xmlns="http://www.w3.org/2000/svg">
<metadata>
This is a custom SVG webfont generated by Font Squirrel.
Copyright   : Copyright c 2008 by Process Type Foundry All rights reserved
Designer    : Eric Olson
Foundry     : Process Type Foundry
Foundry URL : httpwwwprocesstypefoundrycom
</metadata>
<defs>
<font id="BryantRegularCondensed" horiz-adv-x="1060" >
<font-face units-per-em="2048" ascent="1536" descent="-512" />
<missing-glyph horiz-adv-x="532" />
<glyph unicode=" "  horiz-adv-x="532" />
<glyph unicode="&#x09;" horiz-adv-x="532" />
<glyph unicode="&#xa0;" horiz-adv-x="532" />
<glyph unicode="!" horiz-adv-x="495" d="M164 71.5q0 34.5 24.5 59.5t59.5 25t59.5 -25t24.5 -59.5t-24.5 -59t-59.5 -24.5t-59.5 24.5t-24.5 59zM188 737v584q0 25 16.5 42t43 17t43 -17t16.5 -42v-584l-28 -393q-4 -37 -31 -37t-31 37z" />
<glyph unicode="&#x22;" horiz-adv-x="716" d="M133 924v403q0 20 15.5 36.5t38 16.5t38 -16t15.5 -37v-403q0 -23 -15.5 -38.5t-38 -15.5t-38 15.5t-15.5 38.5zM477 924v403q0 20 15.5 36.5t38 16.5t38 -16t15.5 -37v-403q0 -23 -15.5 -38.5t-38 -15.5t-38 15.5t-15.5 38.5z" />
<glyph unicode="#" horiz-adv-x="1312" d="M102 446q0 49 54 50h180l43 397h-172q-23 0 -38 13.5t-15 33.5q0 49 53 49h182l37 348q6 43 47 43q27 0 41 -15t10 -38l-37 -338h422l37 348q6 43 47 43q57 0 51 -53l-36 -338h170q53 0 53 -47q0 -49 -51 -49h-183l-43 -397h172q53 0 54 -47q0 -49 -52 -50h-184l-39 -372 q-6 -43 -47 -43q-27 0 -41 15t-10 38l39 362h-422l-39 -372q-6 -43 -47 -43q-57 0 -51 53l39 362h-170q-20 0 -37 13.5t-17 33.5zM434 496h422l43 397h-422z" />
<glyph unicode="$" horiz-adv-x="1077" d="M133 227q0 20 14.5 34.5t35 14.5t46.5 -22q139 -129 324 -129q133 0 210 60.5t77 158.5q0 96 -74 156.5t-256 148.5q-205 98 -277.5 181t-72.5 204q0 133 98 216t260 87v195q0 23 15.5 39t40 16t40 -16.5t15.5 -36.5v-199q125 -10 270 -108q33 -23 33 -51 q0 -20 -13.5 -37t-39.5 -17q-14 0 -43 17q-152 98 -273 98q-139 0 -211.5 -52t-72.5 -153q0 -90 58 -147.5t218 -136.5q121 -61 174 -92t117.5 -81.5t88 -103.5t23.5 -125q0 -125 -95 -217t-261 -106v-193q0 -53 -55 -53q-25 0 -40 15t-15 38v195q-203 23 -330 149 q-29 28 -29 53z" />
<glyph unicode="%" horiz-adv-x="1550" d="M133 1056.5q0 141.5 80 237t211 95.5t211 -95.5t80 -237t-80 -236.5t-211 -95t-211 95t-80 236.5zM236 1056.5q0 -98.5 50 -170t138 -71.5t138 71.5t50 170t-50 170t-138 71.5t-138 -71.5t-50 -170zM317 27q0 10 15 34l801 1287q20 33 45 32q51 0 51 -49q0 -16 -15 -37 l-802 -1290q-18 -29 -43 -29q-23 0 -37.5 14.5t-14.5 37.5zM836 307.5q0 141.5 79.5 236.5t210.5 95t211 -95t80 -236.5t-80 -237t-211 -95.5t-210.5 95.5t-79.5 237zM938 307.5q0 -98.5 50 -170t138 -71.5t138.5 71.5t50.5 170t-50.5 170t-138.5 71.5t-138 -71.5t-50 -170z " />
<glyph unicode="&#x26;" horiz-adv-x="1355" d="M133 326q0 147 85 249.5t253 200.5q-137 201 -137 348q0 117 72.5 191t197.5 74q119 0 188.5 -72t69.5 -187q0 -104 -70.5 -203.5t-181.5 -172.5q211 -315 297 -443q72 127 121 264q14 35 47 35q49 0 49 -47q0 -10 -4 -22q-61 -176 -155 -310q39 -59 60.5 -86.5t57 -53 t72.5 -25.5q35 0 100 30q8 4 19 4q41 0 41 -41q0 -16 -17 -32q-55 -51 -145 -52q-86 0 -137 39t-119 136q-154 -174 -383 -175q-182 0 -281.5 98.5t-99.5 252.5zM248 328q0 -117 69.5 -187.5t200.5 -70.5q182 0 322 157q-307 457 -318 471q-74 -49 -110.5 -77.5t-81.5 -74.5 t-63.5 -99t-18.5 -119zM442 1124q0 -129 119 -297q195 145 195 299q0 76 -41 123t-113 47t-116 -43t-44 -129z" />
<glyph unicode="'" horiz-adv-x="372" d="M133 924v403q0 20 15.5 36.5t38 16.5t38 -16t15.5 -37v-403q0 -23 -15.5 -38.5t-38 -15.5t-38 15.5t-15.5 38.5z" />
<glyph unicode="(" horiz-adv-x="620" d="M164 553q0 467 264 877q14 25 47 24q25 0 39 -14.5t14 -36.5q0 -14 -10 -31q-236 -393 -235.5 -819t235.5 -819q10 -16 10 -31q0 -23 -14 -37t-39 -14q-33 0 -47 24q-264 410 -264 877z" />
<glyph unicode=")" horiz-adv-x="620" d="M92 -297q0 14 10 31q236 393 236 819t-236 819q-10 16 -10 31q0 23 14.5 37t38.5 14q31 0 48 -24q264 -410 264 -877t-264 -877q-16 -25 -48 -24q-25 0 -39 14t-14 37z" />
<glyph unicode="*" horiz-adv-x="819" d="M113 1122.5q0 30.5 30 30.5h211l-110 174q-8 12 -8 25q0 29 34 28q18 0 31 -18l109 -180l108 180q12 18 31 18q35 0 35 -28q0 -12 -9 -25l-110 -174h211q31 0 31 -30.5t-31 -30.5h-211l110 -174q8 -12 9 -25q0 -29 -35 -29q-18 0 -31 19l-108 180l-109 -180 q-12 -18 -31 -19q-35 0 -34 29q0 12 8 25l110 174h-211q-30 0 -30 30.5z" />
<glyph unicode="+" horiz-adv-x="1130" d="M113 662q0 20 16 35.5t39 15.5h342v352q0 23 16.5 40t41 17t39 -15t14.5 -40v-354h342q23 0 39 -14.5t16 -36.5q0 -20 -16.5 -36t-38.5 -16h-342v-352q0 -25 -15.5 -41t-40 -16t-40 16t-15.5 39v354h-342q-23 0 -39 14.5t-16 37.5z" />
<glyph unicode="," horiz-adv-x="389" d="M86 -295q0 10 10 41q49 141 49 295v88q0 25 15.5 41t40 16t40 -16t15.5 -41v-88q0 -162 -53 -322q-23 -61 -66 -61q-51 0 -51 47z" />
<glyph unicode="-" horiz-adv-x="800" d="M123 509.5q0 22.5 14.5 37t36.5 14.5h453q20 0 35.5 -14.5t15.5 -37t-15.5 -36.5t-35.5 -14h-453q-23 0 -37 14t-14 36.5z" />
<glyph unicode="." horiz-adv-x="454" d="M143 71.5q0 34.5 25 59.5t59.5 25t59 -25t24.5 -59.5t-24.5 -59t-59 -24.5t-59.5 24.5t-25 59z" />
<glyph unicode="/" horiz-adv-x="878" d="M154 -217q0 12 4 24l460 1600q12 47 56 47q51 0 51 -45q0 -8 -6 -33l-461 -1601q-12 -41 -51 -41q-27 0 -40 14.5t-13 34.5z" />
<glyph unicode="0" horiz-adv-x="1212" d="M113 682q0 309 128 508t365.5 199t365.5 -199t128 -508t-128 -508t-365.5 -199t-365.5 199t-128 508zM231 682q0 -266 94.5 -434t281 -168t280.5 168t94 434t-94 434t-280.5 168t-281 -168t-94.5 -434z" />
<glyph unicode="1" horiz-adv-x="649" d="M25 1225q0 39 41 53l299 94q29 8 41 8q59 0 59 -59v-1278q0 -25 -16.5 -42t-43 -17t-43 17t-16.5 42v1208l-235 -73q-25 -6 -29 -7q-23 0 -40 14.5t-17 39.5z" />
<glyph unicode="2" horiz-adv-x="1067" d="M119 53v72q0 86 23.5 159.5t51 122t88 103.5t98.5 81.5t116 80.5q201 135 272.5 212t71.5 183.5t-78 161.5t-215 55q-176 0 -320 -113q-20 -16 -39 -16q-23 0 -39 14.5t-16 36.5q0 33 53 72q152 111 369 111q180 0 291.5 -82t111.5 -244q0 -119 -81.5 -220.5 t-286.5 -234.5q-203 -133 -277.5 -227t-74.5 -244v-33h684q23 0 38 -14t15 -36.5t-15.5 -38t-37.5 -15.5h-750q-20 0 -36.5 16.5t-16.5 36.5z" />
<glyph unicode="3" horiz-adv-x="1089" d="M74 193q0 51 53 51q20 0 41 -21q137 -143 344 -143q150 0 245 81t95 214q0 137 -93 218t-263 81h-119q-23 0 -39 15.5t-16 35.5q0 23 15 38t38 15h110q137 0 221.5 77t84.5 189q0 111 -74 175.5t-203 64.5q-135 0 -252 -76q-29 -18 -49 -18q-23 0 -37 14.5t-14 32.5 q0 35 43 63q135 88 313 89q182 0 286.5 -89.5t104.5 -244.5q0 -217 -227 -322q123 -29 206 -123t83 -235q0 -168 -123 -284t-334 -116q-240 0 -397 144q-43 39 -43 74z" />
<glyph unicode="4" horiz-adv-x="1124" d="M45 434q0 18 14 37l682 881q20 29 54 28q55 0 55 -59v-834h180q23 0 38 -15t15 -36q0 -23 -15 -37t-36 -14h-182v-342q0 -25 -16.5 -42t-41 -17t-41 16t-16.5 41v344h-637q-53 0 -53 49zM207 487h528v695z" />
<glyph unicode="5" horiz-adv-x="1099" d="M119 193q0 49 51 49q20 0 39 -19q78 -78 150.5 -112.5t185.5 -34.5q160 0 247 98t87 244q0 150 -84 237.5t-228 87.5q-152 0 -276 -108q-31 -27 -61.5 -27t-46 20.5t-11.5 47.5l68 635q6 53 57 53h575q23 0 38.5 -14.5t15.5 -37t-14.5 -37.5t-39.5 -15h-526l-53 -506 q109 92 282 92q193 0 307.5 -120t114.5 -302q0 -190 -120.5 -320.5t-331.5 -130.5q-264 0 -410 179q-16 21 -16 41z" />
<glyph unicode="6" horiz-adv-x="1107" d="M127 446q0 293 146.5 537t392.5 379q49 27 84 27q51 0 51 -43q0 -29 -60 -60q-383 -203 -505 -670q47 94 146 147.5t218 53.5q180 0 298 -112.5t118 -303.5q0 -180 -119 -303t-319 -123q-209 0 -330 131t-121 340zM250 403q0 -145 85 -237t243 -92q150 0 236.5 92 t86.5 233q0 139 -83 228.5t-228 89.5q-143 0 -241.5 -89.5t-98.5 -224.5z" />
<glyph unicode="7" horiz-adv-x="952" d="M37 1310.5q0 22.5 15.5 38t37.5 15.5h772q59 0 60 -51q0 -18 -15 -37q-225 -307 -327.5 -576.5t-102.5 -650.5v-6q0 -25 -15.5 -42t-43.5 -17q-59 0 -60 59v10q2 360 103.5 642t304.5 565h-676q-23 0 -38 14t-15 36.5z" />
<glyph unicode="8" horiz-adv-x="1171" d="M123 375q0 135 79 230t206 132q-98 47 -153.5 130t-55.5 177q0 154 105.5 249.5t281.5 95.5t281.5 -95.5t105.5 -249.5q0 -94 -55.5 -177t-153.5 -130q127 -37 206 -132t79 -230q0 -170 -125 -285t-338 -115t-338 115t-125 285zM238 377q0 -135 95 -219t252.5 -84t253 84 t95.5 219q0 139 -100.5 221t-248 82t-247.5 -82t-100 -221zM311 1040q0 -111 77 -186.5t198 -75.5t197.5 76t76.5 186q0 117 -75.5 184.5t-198.5 67.5t-199 -67.5t-76 -184.5z" />
<glyph unicode="9" horiz-adv-x="1110" d="M92 962.5q0 182.5 123 304.5t315 122q217 0 334 -129.5t117 -341.5q0 -291 -146.5 -536t-392.5 -380q-49 -27 -84 -27q-51 0 -51 43q0 29 60 60q391 205 505 670q-47 -94 -148 -147.5t-216 -53.5q-186 0 -301 116.5t-115 299zM207 965q0 -145 79 -231.5t232 -86.5 q143 0 241.5 89t98.5 225q0 145 -85 237t-243 92q-143 0 -233 -94t-90 -231z" />
<glyph unicode=":" horiz-adv-x="413" d="M123 71.5q0 34.5 24.5 59.5t59.5 25t59.5 -25t24.5 -59.5t-24.5 -59t-59.5 -24.5t-59.5 24.5t-24.5 59zM123 653q0 35 24.5 59.5t59.5 24.5t59.5 -24.5t24.5 -59.5t-24.5 -59.5t-59.5 -24.5t-59.5 24.5t-24.5 59.5z" />
<glyph unicode=";" horiz-adv-x="413" d="M92 -295q0 10 10 41q49 141 50 295v88q0 25 15 41t39.5 16t40 -16t15.5 -41v-88q0 -162 -53 -322q-23 -61 -66 -61q-51 0 -51 47zM123 653q0 35 24.5 59.5t59.5 24.5t59.5 -24.5t24.5 -59.5t-24.5 -59.5t-59.5 -24.5t-59.5 24.5t-24.5 59.5z" />
<glyph unicode="&#x3c;" d="M102 661.5q0 24.5 33 45.5l713 415q14 8 31 8q20 0 34.5 -14t14.5 -37q0 -27 -29 -45l-649 -372l649 -373q29 -18 29 -45q0 -23 -14.5 -37t-34.5 -14q-16 0 -31 8l-713 415q-33 21 -33 45.5z" />
<glyph unicode="=" horiz-adv-x="991" d="M143 495.5q0 20.5 14.5 35t35.5 14.5h606q20 0 34.5 -14.5t14.5 -35t-14.5 -35t-34.5 -14.5h-606q-20 0 -35 14.5t-15 35zM143 829.5q0 20.5 14.5 35t35.5 14.5h606q20 0 34.5 -14.5t14.5 -35t-14.5 -35t-34.5 -14.5h-606q-20 0 -35 14.5t-15 35z" />
<glyph unicode="&#x3e;" d="M133 244q0 27 29 45l649 373l-649 372q-29 18 -29 45q0 23 14.5 37t34.5 14q16 0 31 -8l713 -415q33 -20 32.5 -45t-32.5 -46l-713 -415q-14 -8 -31 -8q-20 0 -34.5 14t-14.5 37z" />
<glyph unicode="?" horiz-adv-x="884" d="M72 1229q0 33 51 67q133 92 315 93q160 0 257.5 -78t97.5 -213q0 -90 -41 -162t-138 -162q-119 -111 -146.5 -160t-27.5 -163v-91q0 -25 -15 -41t-44 -16q-27 0 -43 16.5t-16 40.5v76q0 133 33.5 206t136.5 165q98 90 140 153.5t42 133.5q0 94 -64.5 141t-177.5 47 q-141 0 -264 -86q-27 -18 -43 -18q-20 0 -36.5 14t-16.5 37zM307 71.5q0 34.5 24.5 59.5t59.5 25t59.5 -25t24.5 -59.5t-24.5 -59t-59.5 -24.5t-59.5 24.5t-24.5 59z" />
<glyph unicode="@" horiz-adv-x="1402" d="M113 696q0 309 164.5 501t441.5 192q209 0 315.5 -105.5t106.5 -306.5v-567q0 -23 -15.5 -38.5t-40 -15.5t-39 15.5t-14.5 38.5v82q-68 -139 -223 -140q-131 0 -216 97.5t-85 251t85 252t214 98.5q76 0 135 -39t90 -99v74q0 307 -313 307q-231 0 -365.5 -164.5 t-134.5 -431.5q0 -281 161 -455.5t476 -174.5q203 0 416 88q12 4 24 4q18 0 29.5 -12.5t11.5 -30.5q0 -27 -28 -41q-190 -100 -451 -101q-367 0 -556 203t-189 518zM618 702q0 -115 54.5 -184t146.5 -69t149.5 67.5t57.5 186t-57.5 185t-149.5 66.5t-146.5 -69.5 t-54.5 -182.5z" />
<glyph unicode="A" horiz-adv-x="1257" d="M74 35q0 10 6 26l489 1274q16 45 59.5 45t59.5 -45l490 -1274q6 -16 6 -26q0 -20 -16.5 -35.5t-45.5 -15.5q-37 0 -53 41l-131 340h-619l-131 -340q-16 -41 -53 -41q-29 0 -45 15.5t-16 35.5zM356 471h545l-272 731z" />
<glyph unicode="B" horiz-adv-x="1161" d="M164 59v1246q0 25 16.5 42t42.5 17h371q176 0 281.5 -91t105.5 -249q0 -104 -56.5 -185t-154.5 -122q135 -27 219 -115t84 -231q0 -156 -114.5 -263.5t-327.5 -107.5h-406q-27 0 -44 17t-17 42zM283 104h356q152 0 233.5 75t81.5 200t-87 199.5t-240 74.5h-344v-549z M283 756h305q125 0 199.5 74.5t74.5 181.5q0 113 -69.5 180.5t-194.5 67.5h-315v-504z" />
<glyph unicode="C" horiz-adv-x="1179" d="M98 682q0 309 151.5 508t416.5 199q266 0 426 -238q14 -20 14 -39q0 -25 -16.5 -40t-40.5 -15q-31 0 -50 28q-133 199 -333 199q-209 0 -329 -172t-120 -430t120 -430t329 -172q201 0 333 199q18 29 50 28q25 0 41 -15.5t16 -39.5q0 -18 -14 -39q-160 -238 -426 -238 q-264 0 -416 199t-152 508z" />
<glyph unicode="D" horiz-adv-x="1210" d="M164 59v1246q0 25 17.5 42t41.5 17h303q289 0 445.5 -190.5t156.5 -491.5t-156.5 -491.5t-443.5 -190.5h-303q-27 0 -44 17t-17 42zM283 106h237q244 0 367 164t123 412t-123 411.5t-367 163.5h-237v-1151z" />
<glyph unicode="E" horiz-adv-x="1040" d="M164 59v1246q0 25 17.5 42t41.5 17h684q23 0 39.5 -15.5t16.5 -37.5q0 -20 -16.5 -37t-37.5 -17h-626v-505h393q23 0 38 -15.5t15 -38t-15.5 -38t-37.5 -15.5h-393v-539h630q23 0 38.5 -15t15.5 -37.5t-15.5 -38t-38.5 -15.5h-688q-27 0 -44 16t-17 43z" />
<glyph unicode="F" horiz-adv-x="997" d="M164 43v1262q0 25 17.5 42t41.5 17h688q23 0 39.5 -15.5t16.5 -37.5q0 -20 -16.5 -37t-37.5 -17h-630v-505h397q23 0 38 -15.5t15 -38t-15.5 -38t-37.5 -15.5h-397v-602q0 -25 -17.5 -42t-42 -17t-42 17t-17.5 42z" />
<glyph unicode="G" horiz-adv-x="1275" d="M98 682q0 305 157 506t413 201q262 0 409 -201q16 -25 17 -39q0 -23 -16.5 -39t-41.5 -16q-27 0 -45 24q-131 162 -321 162q-207 0 -330 -170t-123 -428q0 -266 118 -435t345 -169q225 0 352 127v344h-330q-23 0 -38 15.5t-15 38t15.5 37.5t37.5 15h388q57 0 57 -57v-395 q0 -23 -14 -45q-158 -182 -455 -183q-141 0 -254 59.5t-182.5 159t-106.5 224.5t-37 264z" />
<glyph unicode="H" horiz-adv-x="1259" d="M164 43v1278q0 25 17.5 42t42 17t42 -17t17.5 -42v-565h694v565q0 25 17.5 42t42 17t42 -17t17.5 -42v-1278q0 -25 -17.5 -42t-42 -17t-42 17t-17.5 42v606h-694v-606q0 -25 -17.5 -42t-42 -17t-42 17t-17.5 42z" />
<glyph unicode="I" horiz-adv-x="466" d="M174 43v1278q0 25 17.5 42t42 17t42 -17t17.5 -42v-1278q0 -25 -17.5 -42t-42 -17t-42 17t-17.5 42z" />
<glyph unicode="J" horiz-adv-x="1019" d="M57 322q0 53 56 53q25 0 36 -11.5t17 -35.5q35 -127 100.5 -187.5t194.5 -60.5q291 0 291 356v885q0 25 17 42t42 17t42 -17t17 -42v-881q0 -209 -100 -337t-307 -128q-170 0 -265.5 82t-136.5 236q-4 17 -4 29z" />
<glyph unicode="K" horiz-adv-x="1153" d="M164 43v1278q0 25 16.5 42t43 17t43 -17t16.5 -42v-752l641 785q23 27 47 26.5t41.5 -15.5t17.5 -36q0 -18 -16 -41l-371 -448l418 -770q10 -20 10 -31q0 -20 -15.5 -37.5t-39.5 -17.5q-37 0 -53 32l-394 734l-286 -347v-360q0 -25 -16.5 -42t-43 -17t-43 17t-16.5 42z " />
<glyph unicode="L" horiz-adv-x="980" d="M164 59v1262q0 25 17.5 42t42 17t42 -17t17.5 -42v-1215h602q23 0 38 -15t15 -37.5t-15.5 -38t-37.5 -15.5h-660q-27 0 -44 16t-17 43z" />
<glyph unicode="M" horiz-adv-x="1527" d="M164 41v1282q0 57 57 57q35 0 55 -43l488 -1165l487 1165q20 43 56 43q57 0 57 -57v-1282q0 -23 -17.5 -40t-40 -17t-40 17t-17.5 40v1001l-428 -1017q-16 -41 -57 -41t-57 41l-428 1017v-1001q0 -23 -17.5 -40t-40 -17t-40 17t-17.5 40z" />
<glyph unicode="N" horiz-adv-x="1280" d="M164 41v1282q0 57 57 57q31 0 51 -28l729 -1125v1096q0 57 58 57q25 0 41 -15t16 -42v-1282q0 -25 -16.5 -41t-40.5 -16q-33 0 -53 32l-727 1121v-1096q0 -25 -16.5 -41t-41 -16t-41 16t-16.5 41z" />
<glyph unicode="O" horiz-adv-x="1318" d="M98 682q0 303 149.5 505t412 202t412 -202t149.5 -505t-149.5 -505t-412 -202t-412 202t-149.5 505zM217 682q0 -154 45 -286t149.5 -224t248 -92t248 92t149.5 224t45 286t-45 286t-149.5 224t-248 92t-248 -92t-149.5 -224t-45 -286z" />
<glyph unicode="P" horiz-adv-x="1095" d="M164 43v1262q0 25 17.5 42t41.5 17h414q197 0 307.5 -106.5t110.5 -278.5t-110.5 -278.5t-307.5 -106.5h-354v-551q0 -25 -17.5 -42t-42 -17t-42 17t-17.5 42zM283 700h376q127 0 202 78t75 201t-75 200.5t-202 77.5h-376v-557z" />
<glyph unicode="Q" horiz-adv-x="1318" d="M98 682q0 303 149.5 505t412 202t412 -202t149.5 -505q0 -188 -61.5 -346t-176.5 -250l121 -250q6 -12 6 -24q0 -53 -53 -54q-33 0 -49 33l-117 238q-111 -53 -232 -54q-262 0 -411.5 202t-149.5 505zM217 682q0 -154 45 -286t149.5 -224t247.5 -92q100 0 185 45 l-109 227q-8 20 -8 31q0 51 55 51q33 0 49 -35l101 -206q84 84 127 215t43 274q0 154 -45 286t-149.5 224t-248 92t-248 -92t-149.5 -224t-45 -286z" />
<glyph unicode="R" horiz-adv-x="1187" d="M164 43v1262q0 25 17.5 42t41.5 17h451q199 0 308.5 -104.5t109.5 -276.5q0 -137 -75 -235.5t-214 -131.5l278 -546q8 -16 9 -29q0 -23 -17.5 -40t-40.5 -17q-37 0 -55 34l-297 584h-397v-559q0 -25 -16.5 -42t-43 -17t-43 17t-16.5 42zM283 707h407q131 0 207 75.5 t76 198.5q0 125 -75 200.5t-202 75.5h-413v-550z" />
<glyph unicode="S" horiz-adv-x="1085" d="M113 195q0 49 51 49q25 0 47 -23q150 -141 354 -141q154 0 235 65.5t81 169.5q0 92 -75 161t-265 161q-229 111 -322.5 207t-93.5 219q0 152 116.5 239t313.5 87q203 0 360 -113q43 -29 43 -55q0 -23 -13 -39.5t-38 -16.5q-18 0 -45 19q-150 100 -307 100 q-143 0 -227 -54t-84 -167q0 -90 70.5 -154.5t252.5 -160.5q127 -66 193.5 -106t129 -92t86 -106.5t23.5 -126.5q0 -150 -115.5 -246t-318.5 -96q-260 0 -424 164q-28 25 -28 56z" />
<glyph unicode="T" horiz-adv-x="1015" d="M16 1310.5q0 22.5 15.5 38t38.5 15.5h876q23 0 38 -15.5t15 -38t-15 -38t-38 -15.5h-379v-1214q0 -25 -17.5 -42t-42 -17t-41.5 17t-17 42v1214h-379q-23 0 -38.5 15.5t-15.5 38z" />
<glyph unicode="U" horiz-adv-x="1282" d="M147 494v827q0 27 16.5 43t43.5 16q25 0 42 -16t17 -43v-832q0 -197 98.5 -302t276.5 -105t276.5 105.5t98.5 301.5v832q0 27 17.5 43t41.5 16q27 0 43.5 -16t16.5 -43v-827q0 -246 -134.5 -382.5t-359.5 -136.5t-359.5 136.5t-134.5 382.5z" />
<glyph unicode="V" horiz-adv-x="1114" d="M33 1327q0 23 15 38t42 15q39 0 53 -39l414 -1138l414 1138q14 39 53 39q27 0 42 -15t15 -38q0 -12 -6 -29l-463 -1271q-12 -43 -55 -43t-55 43l-463 1271q-6 17 -6 29z" />
<glyph unicode="W" horiz-adv-x="1724" d="M41 1327q0 53 55 53q41 0 54 -43l339 -1108l318 1108q12 43 55 43t56 -43l317 -1108l340 1108q12 43 53 43q55 0 55 -53q0 -10 -4 -27l-391 -1277q-10 -39 -53 -39t-57 47l-316 1104l-315 -1104q-14 -47 -57.5 -47t-53.5 39l-391 1277q-4 17 -4 27z" />
<glyph unicode="X" horiz-adv-x="1142" d="M78 37q0 16 10 33l414 614l-404 610q-12 18 -12 33q0 23 14.5 38t38.5 15q35 0 51 -26l381 -574l381 574q16 27 52 26q25 0 39 -15t14 -38q0 -14 -13 -33l-403 -610l414 -614q10 -16 10 -33q0 -23 -17.5 -38t-39.5 -15q-31 0 -50 26l-387 578l-387 -578q-18 -27 -49 -26 q-23 0 -40 15t-17 38z" />
<glyph unicode="Y" horiz-adv-x="1011" d="M27 1325q0 25 16 40t41 15q33 0 51 -32l371 -656l371 656q18 33 51 32q25 0 41 -15t16 -40q0 -14 -10 -33l-410 -725v-524q0 -25 -16.5 -42t-43 -17t-43 17t-16.5 42v524l-409 725q-10 19 -10 33z" />
<glyph unicode="Z" horiz-adv-x="1097" d="M117 49q0 16 12 35l711 1178h-660q-25 0 -40 14t-15 36.5t15.5 37t39.5 14.5h758q53 0 53 -49q0 -16 -14 -37l-705 -1176h676q23 0 38 -13t15 -35.5t-15 -38t-38 -15.5h-774q-57 0 -57 49z" />
<glyph unicode="[" horiz-adv-x="622" d="M184 -246v1592q0 27 16.5 43t41.5 16h245q23 0 38.5 -15.5t15.5 -35.5q0 -23 -15.5 -37t-38.5 -14h-184v-1506h184q23 0 38.5 -14t15.5 -37q0 -20 -15.5 -35.5t-38.5 -15.5h-245q-25 0 -41.5 17t-16.5 42z" />
<glyph unicode="\" horiz-adv-x="878" d="M154 1409q0 45 51 45q43 0 55 -47l461 -1600q4 -12 4 -24q0 -20 -13.5 -34.5t-39.5 -14.5q-39 0 -51 41l-461 1601q-6 25 -6 33z" />
<glyph unicode="]" horiz-adv-x="622" d="M82 -254q0 23 15.5 37t37.5 14h184v1506h-184q-23 0 -38 14t-15 37q0 20 15.5 35.5t37.5 15.5h246q25 0 41 -16.5t16 -42.5v-1592q0 -25 -16 -42t-41 -17h-246q-23 0 -38 15.5t-15 35.5z" />
<glyph unicode="^" horiz-adv-x="942" d="M123 758q0 10 8 26l287 555q18 41 53 41t53 -41l287 -555q8 -16 8 -26q0 -23 -15.5 -37t-39.5 -14q-33 0 -51 36l-242 478l-242 -478q-18 -37 -51 -36q-25 0 -40 14t-15 37z" />
<glyph unicode="_" horiz-adv-x="817" d="M-2 -25h821v-59h-821v59z" />
<glyph unicode="`" horiz-adv-x="620" d="M164 1280q0 49 53 49q29 0 45 -24l133 -197q10 -16 11 -33q0 -20 -15.5 -34.5t-36.5 -14.5q-29 0 -47 27l-133 194q-10 17 -10 33z" />
<glyph unicode="a" horiz-adv-x="985" d="M119 244q0 119 93 192.5t249 73.5q178 0 266 -109v138q0 141 -66.5 206.5t-203.5 65.5q-117 0 -228 -53q-20 -8 -34 -8q-23 0 -37.5 13t-14.5 34q0 31 39 53q115 63 285 63q182 0 280.5 -96t98.5 -276v-498q0 -25 -16.5 -42t-43 -17t-43 17t-16.5 42v45 q-88 -113 -278 -113q-150 0 -240 77t-90 192zM233 244q0 -82 63.5 -129t172.5 -47q106 0 182 50t76 126q0 80 -74.5 127t-177.5 47q-113 0 -177.5 -47t-64.5 -127z" />
<glyph unicode="b" horiz-adv-x="1064" d="M154 43v1278q0 25 17 42t42 17t42 -17t17 -42v-594q104 186 316 186q170 0 277.5 -133t107.5 -335.5t-107.5 -336t-277.5 -133.5q-211 0 -316 187v-119q0 -25 -17 -42t-42 -17t-42 17t-17 42zM272 444.5q0 -153.5 86 -260t215 -106.5q133 0 207 104.5t74 262t-73.5 262 t-207.5 104.5q-129 0 -215 -106.5t-86 -260z" />
<glyph unicode="c" horiz-adv-x="913" d="M92 444.5q0 196.5 113.5 332.5t298.5 136q104 0 187 -47t132 -123q12 -18 12.5 -38.5t-16 -36t-39.5 -15.5q-27 0 -45 27q-90 131 -229 131q-133 0 -214 -107.5t-81 -259t81 -259t214 -107.5q139 0 229 131q18 27 45 27q23 0 39.5 -15.5t16.5 -36t-13 -39.5 q-49 -76 -132 -123t-187 -47q-184 0 -298 136.5t-114 333z" />
<glyph unicode="d" horiz-adv-x="1064" d="M92 444.5q0 202.5 107.5 335.5t277.5 133q211 0 316 -186v594q0 25 17 42t42 17t42 -17t17 -42v-1278q0 -25 -17 -42t-42 -17t-42 17t-17 42v119q-104 -186 -316 -187q-170 0 -277.5 133.5t-107.5 336zM211 444.5q0 -157.5 73.5 -262t207.5 -104.5q129 0 215 106.5 t86 260t-86 260t-215 106.5q-133 0 -207 -104.5t-74 -262z" />
<glyph unicode="e" horiz-adv-x="956" d="M92 444.5q0 198.5 113.5 333.5t294.5 135q170 0 274.5 -131t104.5 -333q0 -49 -52 -50h-614q8 -143 81 -233t220 -90q139 0 240 131q18 27 44.5 26.5t40 -15.5t13.5 -36q0 -14 -16 -39q-123 -168 -322 -168q-207 0 -314.5 135.5t-107.5 334zM213 500h557q-12 131 -82 222 t-186 91q-123 0 -200 -92t-89 -221z" />
<glyph unicode="f" horiz-adv-x="624" d="M33 839.5q0 20.5 14 35t35 14.5h131v147q0 166 70.5 247t228.5 81h51q23 0 37 -14.5t14 -37t-14 -36.5t-37 -14h-43q-104 0 -146 -50.5t-42 -171.5v-151h223q20 0 34.5 -14.5t14.5 -35t-14.5 -34.5t-34.5 -14h-223v-748q0 -25 -17.5 -42t-42.5 -17q-27 0 -43 17t-16 42 v748h-131q-20 0 -34.5 14t-14.5 34.5z" />
<glyph unicode="g" horiz-adv-x="1064" d="M92 456.5q0 196.5 107.5 326.5t277.5 130q213 0 316 -182v115q0 25 17 42t42 17t42 -17.5t17 -41.5v-805q0 -440 -422 -440q-178 0 -319 82q-35 20 -35 53q0 20 13.5 32.5t33.5 12.5q18 0 43 -14q117 -68 262 -68q166 0 236 84t70 248v151q-102 -182 -316 -182 q-170 0 -277.5 130t-107.5 326.5zM211 456.5q0 -149.5 73.5 -253t207.5 -103.5q131 0 216 101.5t85 255t-85 255t-216 101.5q-133 0 -207 -103.5t-74 -253z" />
<glyph unicode="h" d="M154 43v1278q0 25 16 42t43 17t43 -17t16 -42v-592q88 184 303 184q162 0 252.5 -108.5t90.5 -292.5v-469q0 -25 -17.5 -42t-42 -17t-42 17t-17.5 42v467q0 295 -250 295q-125 0 -201 -92t-76 -236v-434q0 -25 -17 -42t-42 -17t-42 17t-17 42z" />
<glyph unicode="i" horiz-adv-x="425" d="M133 1159q0 33 23.5 56.5t56.5 23.5t56.5 -23.5t23.5 -56.5t-23.5 -56.5t-56.5 -23.5t-56.5 23.5t-23.5 56.5zM154 43v803q0 25 17 42t42 17t42 -17.5t17 -41.5v-803q0 -25 -17 -42t-42 -17t-42 17t-17 42z" />
<glyph unicode="j" horiz-adv-x="425" d="M-72 -348q0 51 52 51h22q92 0 122 40t30 134v969q0 25 17 42t42 17t42 -17.5t17 -41.5v-965q0 -141 -61 -210.5t-199 -69.5h-32q-23 0 -37.5 14t-14.5 37zM133 1159q0 33 23.5 56.5t56.5 23.5t56.5 -23.5t23.5 -56.5t-23.5 -56.5t-56.5 -23.5t-56.5 23.5t-23.5 56.5z" />
<glyph unicode="k" horiz-adv-x="903" d="M154 43v1278q0 25 16 42t43 17q25 0 42 -16t17 -43v-844l447 412q20 16 41 16q25 0 40 -15.5t15 -37.5q0 -20 -20 -41l-301 -274l331 -465q12 -16 13 -35q0 -23 -16.5 -38t-43.5 -15q-25 0 -45 26l-321 451l-140 -133v-285q0 -25 -17 -42t-42 -17t-42 17t-17 42z" />
<glyph unicode="l" horiz-adv-x="425" d="M154 43v1278q0 25 17 42t42 17t42 -17t17 -42v-1278q0 -25 -17 -42t-42 -17t-42 17t-17 42z" />
<glyph unicode="m" horiz-adv-x="1705" d="M154 43v803q0 25 16 42t43 17t43 -17.5t16 -41.5v-117q88 184 303 184q225 0 308 -206q104 207 338 206q162 0 252 -108.5t90 -292.5v-469q0 -25 -17.5 -42t-42 -17t-42 17t-17.5 42v467q0 295 -250 295q-125 0 -200.5 -92t-75.5 -236v-434q0 -25 -17.5 -42t-42 -17 t-42 17t-17.5 42v467q0 295 -250 295q-125 0 -201 -92t-76 -236v-434q0 -25 -17 -42t-42 -17t-42 17t-17 42z" />
<glyph unicode="n" d="M154 43v803q0 25 16 42t43 17t43 -17.5t16 -41.5v-117q88 184 303 184q162 0 252.5 -108.5t90.5 -292.5v-469q0 -25 -17.5 -42t-42 -17t-42 17t-17.5 42v467q0 295 -250 295q-125 0 -201 -92t-76 -236v-434q0 -25 -17 -42t-42 -17t-42 17t-17 42z" />
<glyph unicode="o" horiz-adv-x="1007" d="M92 444.5q0 192.5 112.5 330.5t299 138t299 -138t112.5 -330.5t-112.5 -331t-299 -138.5t-299 138.5t-112.5 331zM211 444.5q0 -153.5 81 -260t212 -106.5t212 106.5t81 260t-81 260t-212 106.5t-212 -106.5t-81 -260z" />
<glyph unicode="p" horiz-adv-x="1064" d="M154 -340v1186q0 25 17 42t42 17t42 -17.5t17 -41.5v-119q104 186 316 186q170 0 277.5 -133t107.5 -335.5t-107.5 -336t-277.5 -133.5q-211 0 -316 187v-502q0 -25 -17 -42t-42 -17t-42 17t-17 42zM272 444.5q0 -153.5 86 -260t215 -106.5q133 0 207 104.5t74 262 t-73.5 262t-207.5 104.5q-129 0 -215 -106.5t-86 -260z" />
<glyph unicode="q" horiz-adv-x="1064" d="M92 444.5q0 202.5 107.5 335.5t277.5 133q211 0 316 -186v119q0 25 17 42t42 17t42 -17.5t17 -41.5v-1186q0 -25 -17 -42t-42 -17t-42 17t-17 42v502q-104 -186 -316 -187q-170 0 -277.5 133.5t-107.5 336zM211 444.5q0 -157.5 73.5 -262t207.5 -104.5q129 0 215 106.5 t86 260t-86 260t-215 106.5q-133 0 -207 -104.5t-74 -262z" />
<glyph unicode="r" horiz-adv-x="600" d="M154 43v803q0 27 16 43t43 16t43 -16.5t16 -42.5v-150q20 90 91 149.5t161 59.5h4q57 0 58 -53q0 -57 -60 -57h-2q-119 0 -185.5 -110t-66.5 -286v-356q0 -25 -17 -42t-42 -17t-42 17t-17 42z" />
<glyph unicode="s" horiz-adv-x="845" d="M102 139q0 20 13.5 32.5t34.5 12.5q25 0 40 -14q119 -100 254 -100q94 0 146.5 38.5t52.5 102.5q0 66 -51 102.5t-176 83.5q-160 61 -231.5 126t-71.5 157q0 111 85 172t232 61q152 0 262 -75q43 -27 43 -58q0 -47 -51 -47q-12 0 -41 15q-115 68 -215 67 q-197 0 -197 -131q0 -63 47.5 -99t172.5 -87q170 -68 239.5 -126.5t69.5 -154.5q0 -104 -83 -173t-239 -69q-188 0 -317 123q-19 18 -19 41z" />
<glyph unicode="t" horiz-adv-x="610" d="M31 839.5q0 20.5 14 35t35 14.5h164v282q0 25 17.5 42.5t42 17.5t41.5 -17.5t17 -42.5v-282h193q20 0 34.5 -14.5t14.5 -35t-14.5 -34.5t-34.5 -14h-193v-748q0 -25 -17 -42t-42 -17q-27 0 -43 17t-16 42v748h-164q-20 0 -34.5 14t-14.5 34.5z" />
<glyph unicode="u" d="M143 377v469q0 25 17.5 42t42 17t42 -17.5t17.5 -41.5v-467q0 -295 250 -295q125 0 200.5 92t75.5 236v434q0 25 17.5 42t42 17t42 -17.5t17.5 -41.5v-803q0 -25 -16.5 -42t-43 -17t-43 17t-16.5 42v117q-88 -184 -303 -185q-162 0 -252 109t-90 293z" />
<glyph unicode="v" horiz-adv-x="827" d="M31 852q0 53 55 53q37 0 53 -37l275 -690l274 690q16 37 53 37q55 0 56 -53q0 -12 -6 -29l-324 -800q-14 -39 -53 -39t-54 39l-323 800q-6 17 -6 29z" />
<glyph unicode="w" horiz-adv-x="1249" d="M37 852q0 53 55 53q39 0 51 -41l203 -669l229 671q12 39 49.5 39t49.5 -39l229 -671l203 669q12 41 51 41q55 0 55 -53q0 -6 -4 -23l-247 -809q-14 -37 -53.5 -36.5t-53.5 39.5l-229 661l-230 -661q-14 -39 -53 -39t-53 36l-248 809q-4 17 -4 23z" />
<glyph unicode="x" horiz-adv-x="917" d="M102 37q0 14 13 33l276 376l-272 373q-12 18 -13 35q0 23 15.5 37t40 14t43.5 -24l254 -346l254 346q18 25 42.5 24.5t40 -14.5t15.5 -37q0 -16 -12 -35l-273 -373l277 -376q12 -18 12 -33q0 -23 -15.5 -38t-40 -15t-42.5 22l-258 352l-258 -352q-18 -23 -43 -22.5 t-40.5 15.5t-15.5 38z" />
<glyph unicode="y" horiz-adv-x="827" d="M31 852q0 53 57 53q39 0 53 -43l283 -733l264 737q14 39 53 39q55 0 56 -53q0 -12 -6 -27q-172 -494 -265 -731q-125 -324 -368 -485q-16 -8 -31 -8q-23 0 -38 14t-15 37q0 31 37 57q156 113 247 287l-319 823q-8 21 -8 33z" />
<glyph unicode="z" horiz-adv-x="851" d="M102 49q0 18 13 37l501 705h-460q-20 0 -35 14t-15 34.5t14.5 35t35.5 14.5h561q53 0 53 -47q0 -20 -14 -41l-502 -703h471q23 0 37 -13t14 -36q0 -20 -14 -34.5t-37 -14.5h-573q-20 0 -35 14.5t-15 34.5z" />
<glyph unicode="{" horiz-adv-x="641" d="M82 542.5q0 22.5 15.5 37t37.5 14.5h6q66 0 93.5 28.5t27.5 92.5v510q0 180 170 180h74q23 0 38 -14.5t15 -37t-15.5 -36.5t-35.5 -14h-62q-37 0 -51 -17.5t-14 -56.5v-502q0 -160 -143 -184q143 -25 143 -185v-501q0 -39 14.5 -56.5t50.5 -17.5h62q20 0 35.5 -14.5 t15.5 -37t-15.5 -36.5t-37.5 -14h-74q-170 0 -170 180v510q0 63 -27.5 92t-93.5 29h-6q-23 0 -38 14t-15 36.5z" />
<glyph unicode="|" horiz-adv-x="507" d="M205 -356v1812q0 20 13 34.5t35.5 14.5t36 -14t13.5 -35v-1812q0 -20 -13.5 -35t-36 -15t-35.5 15t-13 35z" />
<glyph unicode="}" horiz-adv-x="641" d="M82 -268.5q0 22.5 15.5 37t35.5 14.5h62q37 0 51 17.5t14 56.5v501q0 160 143 185q-143 25 -143 184v502q0 39 -14.5 56.5t-50.5 17.5h-62q-20 0 -35.5 14t-15.5 36.5t15.5 37t37.5 14.5h74q170 0 170 -180v-510q0 -63 27.5 -92t93.5 -29h6q23 0 38 -14.5t15 -37 t-15.5 -36.5t-37.5 -14h-6q-66 0 -93.5 -29t-27.5 -92v-510q0 -180 -170 -180h-74q-23 0 -38 14t-15 36.5z" />
<glyph unicode="~" horiz-adv-x="991" d="M113 463q0 16 12 35q6 8 55 75q61 84 156 84q59 0 170 -59q29 -14 62.5 -33.5t46 -27t26.5 -12.5t29 -5q35 0 55 17.5t57 72.5q16 20 27 33q14 14 33 14q23 0 40 -13t17 -34q0 -16 -12 -35q-6 -8 -56 -75q-61 -84 -155 -84q-63 0 -170 59q-20 10 -46 25.5t-39 22.5 t-28.5 15.5t-27 11.5t-23.5 3q-37 0 -55.5 -16.5t-57.5 -73.5q-16 -20 -26 -33q-14 -14 -33 -14q-23 0 -40 13.5t-17 33.5z" />
<glyph unicode="&#xa1;" horiz-adv-x="495" d="M164 829.5q0 34.5 24.5 59t59.5 24.5t59.5 -24.5t24.5 -59t-24.5 -59.5t-59.5 -25t-59.5 25t-24.5 59.5zM188 164l29 393q4 37 30.5 37t31.5 -37l28 -393v-504q0 -25 -16.5 -42t-43 -17t-43 17t-16.5 42v504z" />
<glyph unicode="&#xa2;" horiz-adv-x="1019" d="M143 682q0 180 96.5 312t258.5 153v178q0 25 16 42t41 17t41 -17t16 -42v-178q170 -25 262 -166q12 -18 12.5 -38.5t-16 -36t-39.5 -15.5q-27 0 -45 27q-90 131 -229 131q-133 0 -214 -107.5t-81 -259.5t81 -259.5t214 -107.5q139 0 229 131q18 27 45 27q23 0 39.5 -15.5 t16.5 -36t-13 -38.5q-92 -141 -262 -166v-178q0 -25 -16 -42t-41 -17t-41 17t-16 42v176q-162 23 -258.5 154t-96.5 313z" />
<glyph unicode="&#xa3;" horiz-adv-x="1216" d="M123 51q0 53 55 53h262v553h-229q-23 0 -40 15.5t-17 38t16 37t39 14.5h231v246q0 186 95.5 283.5t273.5 97.5q129 0 231 -50q53 -29 54 -65q0 -49 -50 -49q-8 0 -32 10q-100 47 -197 47q-133 0 -194.5 -65.5t-61.5 -208.5v-244h408q23 0 39 -14.5t16 -38.5 q0 -23 -15.5 -37.5t-37.5 -14.5h-410v-555h453q23 0 39 -15t16 -36q0 -23 -15.5 -38t-37.5 -15h-836q-23 0 -39 14t-16 37z" />
<glyph unicode="&#xa4;" horiz-adv-x="1249" d="M154 205q0 20 16 37l145 145q-90 121 -90 295q0 164 90 293l-145 147q-16 16 -16 37q0 23 15 37t35.5 14t37.5 -16l141 -143q106 86 241.5 86t241.5 -86l142 143q16 16 36.5 16t36 -14t15.5 -37q0 -20 -17 -37l-145 -147q90 -129 90 -293q0 -174 -90 -295l145 -145 q16 -16 17 -37q0 -23 -15.5 -37t-36 -14t-36.5 16l-144 143q-94 -86 -239.5 -86t-239.5 86l-143 -143q-16 -16 -37 -16t-36 14t-15 37zM336 681.5q0 -149.5 80 -251.5t209 -102t208.5 102t79.5 251.5t-79.5 252t-208.5 102.5t-209 -102.5t-80 -252z" />
<glyph unicode="&#xa5;" horiz-adv-x="1085" d="M102 1325q0 25 16.5 40t41.5 15q33 0 51 -32l332 -656l331 656q18 33 52 32q25 0 41 -15t16 -40q0 -14 -10 -33l-266 -518h204q20 0 35 -14.5t15 -34.5t-14.5 -34.5t-35.5 -14.5h-254l-55 -109v-106h309q20 0 35 -14.5t15 -35t-14.5 -35t-35.5 -14.5h-309v-319 q0 -25 -16.5 -42t-43 -17t-43 17t-16.5 42v319h-309q-20 0 -34.5 14.5t-14.5 35t14.5 35t34.5 14.5h309v106l-55 109h-254q-20 0 -34.5 14.5t-14.5 34.5t14.5 34.5t34.5 14.5h203l-264 518q-11 19 -11 33z" />
<glyph unicode="&#xa6;" horiz-adv-x="507" d="M205 -356v735q0 20 13 34.5t35.5 14.5t36 -14.5t13.5 -34.5v-735q0 -20 -13.5 -35t-36 -15t-35.5 15t-13 35zM205 721v735q0 20 13 34.5t35.5 14.5t36 -14t13.5 -35v-735q0 -20 -13.5 -34.5t-36 -14.5t-35.5 14.5t-13 34.5z" />
<glyph unicode="&#xa7;" horiz-adv-x="1081" d="M139 -51q0 45 47 45q23 0 56 -23q133 -98 307 -98q111 0 183.5 46t72.5 122q0 20 -3 37.5t-14 33.5l-18 27q-8 12 -28.5 27.5t-34 25t-42 25.5t-46 25.5t-55.5 29t-60 31.5q-209 109 -287 177.5t-78 178.5q0 158 189 254q-121 100 -121 221t102.5 188t274.5 67 q174 0 299 -82q43 -27 43 -60q0 -49 -47 -49q-18 0 -54 23q-109 72 -245 71q-113 0 -183.5 -37.5t-70.5 -115.5q0 -80 60 -132.5t220 -140.5q86 -47 122 -68.5t90 -58.5t74.5 -64.5t38 -67.5t17.5 -87q0 -74 -46 -145.5t-105 -112.5q127 -90 127 -221q0 -111 -104.5 -188.5 t-272.5 -77.5q-219 0 -367 112q-41 31 -41 62zM258 662q0 -49 35 -91.5t76 -68t129 -70.5q111 -57 211 -113q121 86 120 199q0 72 -53 117t-213 133q-143 82 -151 86q-63 -29 -108.5 -77.5t-45.5 -114.5z" />
<glyph unicode="&#xa8;" horiz-adv-x="788" d="M143 1153q0 35 25 58.5t57.5 23.5t57 -23.5t24.5 -58.5t-24.5 -58.5t-57 -23.5t-57.5 23.5t-25 58.5zM481 1153q0 35 23.5 58.5t58.5 23.5t58.5 -23.5t23.5 -58.5t-23.5 -58.5t-58.5 -23.5t-58.5 23.5t-23.5 58.5z" />
<glyph unicode="&#xa9;" horiz-adv-x="1638" d="M113 682q0 301 200.5 504t505.5 203t506 -203t201 -504t-201 -504t-506 -203t-505.5 203t-200.5 504zM201 682q0 -264 174 -446.5t444.5 -182.5t444.5 182.5t174 446.5t-174 446.5t-444.5 182.5t-444.5 -182.5t-174 -446.5zM502 681.5q0 149.5 94 249t252 99.5 q166 0 266 -129q12 -16 12 -35q0 -23 -14 -35t-35 -12q-27 0 -45 23q-74 92 -184.5 92t-175 -71.5t-64.5 -180.5t64.5 -180.5t175 -71.5t184.5 92q18 23 45 23q20 0 34.5 -12.5t14.5 -34.5q0 -18 -12 -35q-100 -129 -266 -129q-158 0 -252 99t-94 248.5z" />
<glyph unicode="&#xaa;" horiz-adv-x="745" d="M133 942q0 84 61.5 131t163.5 47q117 0 179 -61v86q0 86 -41 125t-127 39q-80 0 -156 -33q-8 -4 -18 -4q-39 0 -39 37q0 23 34 41q72 39 183 39q254 0 254 -244v-332q0 -47 -45 -47t-45 47v18q-61 -72 -179 -71q-98 0 -161.5 49t-63.5 133zM223 942q0 -53 41 -83t105 -30 q66 0 117 32t51 81q0 51 -45.5 81t-116.5 30q-66 0 -109 -28t-43 -83z" />
<glyph unicode="&#xab;" horiz-adv-x="1126" d="M102 436.5q0 20.5 19 38.5l321 313q18 14 37 15q23 0 38 -14.5t15 -34.5q0 -25 -20 -43l-281 -275l281 -274q20 -18 20 -43q0 -20 -15 -34.5t-38 -14.5q-18 0 -37 14l-321 313q-19 19 -19 39.5zM553 436.5q0 20.5 18 38.5l322 313q18 14 37 15q23 0 38 -14.5t15 -34.5 q0 -25 -20 -43l-281 -275l281 -274q20 -18 20 -43q0 -20 -15.5 -34.5t-37.5 -14.5q-18 0 -37 14l-322 313q-18 19 -18 39.5z" />
<glyph unicode="&#xac;" horiz-adv-x="1212" d="M133 629q0 20 16.5 35.5t38.5 15.5h795q23 0 39 -14.5t16 -36.5v-404q0 -25 -15 -41t-40 -16t-40 16.5t-15 38.5v355h-740q-23 0 -39 14t-16 37z" />
<glyph unicode="&#xad;" horiz-adv-x="800" d="M123 509.5q0 22.5 14.5 37t36.5 14.5h453q20 0 35.5 -14.5t15.5 -37t-15.5 -36.5t-35.5 -14h-453q-23 0 -37 14t-14 36.5z" />
<glyph unicode="&#xae;" horiz-adv-x="851" d="M82 1048.5q0 145.5 97 243t246.5 97.5t247 -97.5t97.5 -243t-97.5 -242.5t-247 -97t-246.5 97t-97 242.5zM139 1048.5q0 -120.5 79 -204.5t208 -84t208 84t79 204.5t-79 204.5t-208 84t-208 -84t-79 -204.5zM317 899v301q0 31 31 31h94q59 0 91 -30t32 -79q0 -68 -63 -96 l61 -106q8 -14 8 -24.5t-9 -18t-21 -7.5q-18 0 -29 19l-70 127h-65v-117q0 -29 -31 -29q-29 0 -29 29zM377 1067h67q61 0 61.5 55.5t-59.5 55.5h-69v-111z" />
<glyph unicode="&#xaf;" horiz-adv-x="808" d="M154 1153q0 20 13 32.5t32 12.5h411q18 0 31.5 -12t13.5 -31q0 -20 -13 -33.5t-30 -13.5h-413q-16 0 -30.5 13.5t-14.5 31.5z" />
<glyph unicode="&#xb0;" horiz-adv-x="643" d="M113 1177.5q0 90.5 57 151t151.5 60.5t151.5 -60.5t57 -151t-57 -150.5t-151.5 -60t-151.5 60t-57 150.5zM201 1177.5q0 -57.5 32.5 -95.5t88 -38t88 38t32.5 95.5t-32.5 95.5t-88 38t-88 -38t-32.5 -95.5z" />
<glyph unicode="&#xb1;" horiz-adv-x="1232" d="M164 51q0 20 16.5 34.5t38.5 14.5h795q23 0 39 -13t16 -36q0 -20 -16.5 -35.5t-38.5 -15.5h-795q-23 0 -39 14t-16 37zM164 662q0 20 16.5 35.5t38.5 15.5h342v352q0 23 16.5 40t41 17t39 -15t14.5 -40v-354h342q23 0 39 -14.5t16 -36.5q0 -20 -16.5 -36t-38.5 -16h-342 v-352q0 -25 -15.5 -41t-40 -16t-40 16t-15.5 39v354h-342q-23 0 -39 14.5t-16 37.5z" />
<glyph unicode="&#xb2;" horiz-adv-x="454" d="M143 551q0 35 25 59.5t59.5 24.5t59 -24.5t24.5 -59.5t-24.5 -59.5t-59 -24.5t-59.5 24.5t-25 59.5z" />
<glyph unicode="&#xb3;" horiz-adv-x="454" d="M143 551q0 35 25 59.5t59.5 24.5t59 -24.5t24.5 -59.5t-24.5 -59.5t-59 -24.5t-59.5 24.5t-25 59.5z" />
<glyph unicode="&#xb4;" horiz-adv-x="620" d="M215 1075q0 16 10 33l133 197q16 25 45 24q53 0 54 -49q0 -16 -11 -33l-133 -194q-18 -27 -47 -27q-20 0 -35.5 14.5t-15.5 34.5z" />
<glyph unicode="&#xb5;" d="M143 -340v1186q0 25 17.5 42t42 17t42 -17.5t17.5 -41.5v-467q0 -295 250 -295q125 0 200.5 92t75.5 236v434q0 25 17.5 42t42 17t42 -17.5t17.5 -41.5v-803q0 -25 -16.5 -42t-43 -17t-43 17t-16.5 42v117q-88 -184 -303 -185q-135 0 -223 88v-403q0 -25 -17.5 -42 t-42 -17t-42 17t-17.5 42z" />
<glyph unicode="&#xb6;" horiz-adv-x="1103" d="M82 991q0 176 114.5 274.5t288.5 98.5h389q23 0 39.5 -16.5t16.5 -38.5v-1270q0 -23 -16.5 -39t-39 -16t-39 16t-16.5 39v1229h-201v-1612q0 -23 -16 -39t-38.5 -16t-39 16t-16.5 39v962h-23q-174 0 -288.5 98.5t-114.5 274.5zM197 991q0 -127 77.5 -201.5t210.5 -74.5 h23v553h-25q-127 0 -206.5 -75t-79.5 -202z" />
<glyph unicode="&#xb7;" horiz-adv-x="454" d="M143 551q0 35 25 59.5t59.5 24.5t59 -24.5t24.5 -59.5t-24.5 -59.5t-59 -24.5t-59.5 24.5t-25 59.5z" />
<glyph unicode="&#xb8;" horiz-adv-x="647" d="M143 -340q0 45 35 45q8 0 33 -8q49 -16 94 -16q104 0 105 73q0 66 -99 66q-20 0 -42.5 -3t-32.5 -3q-41 0 -41 34q0 12 20 64l39 96h80l-45 -121q18 8 61 9q68 0 111 -38t43 -104q0 -70 -52.5 -111.5t-148.5 -41.5q-66 0 -127 22q-33 12 -33 37z" />
<glyph unicode="&#xb9;" horiz-adv-x="454" d="M143 551q0 35 25 59.5t59.5 24.5t59 -24.5t24.5 -59.5t-24.5 -59.5t-59 -24.5t-59.5 24.5t-25 59.5z" />
<glyph unicode="&#xba;" horiz-adv-x="778" d="M113 1075q0 131 74.5 222.5t201.5 91.5t202 -91.5t75 -222.5t-75 -223t-202 -92t-201.5 92t-74.5 223zM203 1075.5q0 -100.5 49 -168t137 -67.5t137 67.5t49 168t-49 167t-137 66.5t-137 -66.5t-49 -167z" />
<glyph unicode="&#xbb;" horiz-adv-x="1126" d="M143 119q0 25 21 43l280 274l-280 275q-20 18 -21 43q0 20 15.5 34.5t38.5 14.5q18 0 36 -15l322 -313q18 -18 18 -38.5t-18 -39.5l-322 -313q-18 -14 -36 -14q-23 0 -38.5 14.5t-15.5 34.5zM594 119q0 25 20 43l281 274l-281 275q-20 18 -20 43q0 20 15.5 34.5 t37.5 14.5q18 0 37 -15l322 -313q18 -18 18 -38.5t-18 -39.5l-322 -313q-18 -14 -37 -14q-23 0 -38 14.5t-15 34.5z" />
<glyph unicode="&#xbc;" horiz-adv-x="454" d="M143 551q0 35 25 59.5t59.5 24.5t59 -24.5t24.5 -59.5t-24.5 -59.5t-59 -24.5t-59.5 24.5t-25 59.5z" />
<glyph unicode="&#xbd;" horiz-adv-x="454" d="M143 551q0 35 25 59.5t59.5 24.5t59 -24.5t24.5 -59.5t-24.5 -59.5t-59 -24.5t-59.5 24.5t-25 59.5z" />
<glyph unicode="&#xbe;" horiz-adv-x="454" d="M143 551q0 35 25 59.5t59.5 24.5t59 -24.5t24.5 -59.5t-24.5 -59.5t-59 -24.5t-59.5 24.5t-25 59.5z" />
<glyph unicode="&#xbf;" horiz-adv-x="884" d="M92 -119q0 31 3 55.5t16.5 51t18.5 40t31.5 41t32 34t42 40t40.5 37.5q70 66 96.5 95.5t49 81t22.5 116.5v80q0 25 15.5 41t44.5 16q27 0 43 -16t16 -41v-66q0 -127 -39 -194.5t-149 -167.5q-92 -82 -128 -132t-36 -114q0 -172 242 -172q141 0 264 86q27 18 43 19 q20 0 36.5 -14.5t16.5 -37.5q0 -33 -51 -67q-133 -92 -316 -92q-166 0 -260 73.5t-94 206.5zM416 829.5q0 34.5 24.5 59t59.5 24.5t59.5 -24.5t24.5 -59t-24.5 -59.5t-59.5 -25t-59.5 25t-24.5 59.5z" />
<glyph unicode="&#xc0;" horiz-adv-x="1257" d="M74 35q0 10 6 26l489 1274q16 45 59.5 45t59.5 -45l490 -1274q6 -16 6 -26q0 -20 -16.5 -35.5t-45.5 -15.5q-37 0 -53 41l-131 340h-619l-131 -340q-16 -41 -53 -41q-29 0 -45 15.5t-16 35.5zM356 471h545l-272 731zM440 1692q0 20 13.5 34.5t40.5 16.5q25 0 43 -23 l118 -141q14 -16 15 -35q0 -20 -14.5 -35.5t-37.5 -15.5q-27 0 -45 23l-118 139q-15 19 -15 37z" />
<glyph unicode="&#xc1;" horiz-adv-x="1257" d="M74 35q0 10 6 26l489 1274q16 45 59.5 45t59.5 -45l490 -1274q6 -16 6 -26q0 -20 -16.5 -35.5t-45.5 -15.5q-37 0 -53 41l-131 340h-619l-131 -340q-16 -41 -53 -41q-29 0 -45 15.5t-16 35.5zM356 471h545l-272 731zM580 1544q0 18 14 35l119 141q18 23 43 23 q27 -2 40 -16.5t13 -34.5q0 -18 -14 -37l-119 -139q-18 -23 -45 -23q-23 0 -37 15.5t-14 35.5z" />
<glyph unicode="&#xc2;" horiz-adv-x="1257" d="M74 35q0 10 6 26l489 1274q16 45 59.5 45t59.5 -45l490 -1274q6 -16 6 -26q0 -20 -16.5 -35.5t-45.5 -15.5q-37 0 -53 41l-131 340h-619l-131 -340q-16 -41 -53 -41q-29 0 -45 15.5t-16 35.5zM356 471h545l-272 731zM418 1538q0 20 20 41l150 145q27 23 41 23t41 -23 l149 -145q20 -20 21 -41q0 -18 -14.5 -31.5t-32.5 -13.5q-23 0 -45 23l-119 116l-119 -116q-23 -23 -45 -23q-18 0 -32.5 13.5t-14.5 31.5z" />
<glyph unicode="&#xc3;" horiz-adv-x="1257" d="M74 35q0 10 6 26l489 1274q16 45 59.5 45t59.5 -45l490 -1274q6 -16 6 -26q0 -20 -16.5 -35.5t-45.5 -15.5q-37 0 -53 41l-131 340h-619l-131 -340q-16 -41 -53 -41q-29 0 -45 15.5t-16 35.5zM354 1563q0 12 8 28q12 20 17 27q33 47 56.5 66.5t64.5 19.5q37 0 145 -45 q94 -39 115 -39q8 0 14 2t10 5t9.5 10.5t8.5 12.5t10 17t11 19q14 20 37 20q20 0 33.5 -13.5t13.5 -29.5q0 -14 -10 -31q-25 -41 -38 -59.5t-36.5 -33.5t-54.5 -15q-33 0 -137 39q-109 41 -129 41q-18 0 -28.5 -10.5t-29.5 -43.5q-14 -27 -45 -26q-18 0 -31.5 11.5 t-13.5 27.5zM356 471h545l-272 731z" />
<glyph unicode="&#xc4;" horiz-adv-x="1257" d="M74 35q0 10 6 26l489 1274q16 45 59.5 45t59.5 -45l490 -1274q6 -16 6 -26q0 -20 -16.5 -35.5t-45.5 -15.5q-37 0 -53 41l-131 340h-619l-131 -340q-16 -41 -53 -41q-29 0 -45 15.5t-16 35.5zM356 471h545l-272 731zM371 1607.5q0 34.5 23.5 58.5t58 24t58.5 -24 t24 -58.5t-24 -58t-58.5 -23.5t-58 23.5t-23.5 58zM723 1607.5q0 34.5 23.5 58.5t58.5 24t58.5 -24t23.5 -58.5t-23.5 -58t-58.5 -23.5t-58.5 23.5t-23.5 58z" />
<glyph unicode="&#xc5;" horiz-adv-x="1257" d="M74 35q0 10 6 26l489 1274l2 6q-88 35 -88 132q0 61 41 100t104.5 39t104.5 -39t41 -100q0 -98 -88 -132l2 -6l490 -1274q6 -16 6 -26q0 -20 -16.5 -35.5t-45.5 -15.5q-37 0 -53 41l-131 340h-619l-131 -340q-16 -41 -53 -41q-29 0 -45 15.5t-16 35.5zM356 471h545 l-272 731zM557 1472.5q0 -32.5 19.5 -54t52.5 -21.5t52 21.5t19 54t-19 54t-52 21.5t-52.5 -21.5t-19.5 -54z" />
<glyph unicode="&#xc6;" horiz-adv-x="1656" d="M74 35q0 10 6 26l489 1258q16 45 60 45h897q23 0 39 -15.5t16 -37.5q0 -20 -16.5 -37t-36.5 -17h-817l196 -505h387q23 0 38.5 -15.5t15.5 -38t-15.5 -38t-38.5 -15.5h-346l211 -539h371q23 0 38 -15t15 -37.5t-15.5 -38t-37.5 -15.5h-414q-37 0 -53 41l-125 324h-619 l-131 -340q-16 -41 -53 -41q-29 0 -45 15.5t-16 35.5zM356 471h545l-272 715z" />
<glyph unicode="&#xc7;" horiz-adv-x="1179" d="M98 682q0 309 151.5 508t416.5 199q266 0 426 -238q14 -20 14 -39q0 -25 -16.5 -40t-40.5 -15q-31 0 -50 28q-133 199 -333 199q-209 0 -329 -172t-120 -430t120 -430t329 -172q201 0 333 199q18 29 50 28q25 0 41 -15.5t16 -39.5q0 -18 -14 -39q-145 -215 -379 -236 l-33 -90q18 8 61 9q68 0 111 -38t43 -104q0 -70 -52 -111.5t-149 -41.5q-66 0 -127 22q-33 12 -32 37q0 45 34 45q8 0 33 -8q49 -16 94 -16q104 0 105 73q0 66 -99 66q-20 0 -42.5 -3t-32.5 -3q-41 0 -41 34q0 12 20 64l27 65q-250 14 -392.5 210t-142.5 495z" />
<glyph unicode="&#xc8;" horiz-adv-x="1040" d="M164 59v1246q0 25 17.5 42t41.5 17h684q23 0 39.5 -15.5t16.5 -37.5q0 -20 -16.5 -37t-37.5 -17h-626v-505h393q23 0 38 -15.5t15 -38t-15.5 -38t-37.5 -15.5h-393v-539h630q23 0 38.5 -15t15.5 -37.5t-15.5 -38t-38.5 -15.5h-688q-27 0 -44 16t-17 43zM401 1692 q0 20 13.5 34.5t40.5 16.5q25 0 43 -23l118 -141q14 -16 15 -35q0 -20 -14.5 -35.5t-36.5 -15.5q-27 0 -45 23l-119 139q-15 19 -15 37z" />
<glyph unicode="&#xc9;" horiz-adv-x="1040" d="M164 59v1246q0 25 17.5 42t41.5 17h684q23 0 39.5 -15.5t16.5 -37.5q0 -20 -16.5 -37t-37.5 -17h-626v-505h393q23 0 38 -15.5t15 -38t-15.5 -38t-37.5 -15.5h-393v-539h630q23 0 38.5 -15t15.5 -37.5t-15.5 -38t-38.5 -15.5h-688q-27 0 -44 16t-17 43zM483 1544 q0 18 15 35l118 141q18 23 43 23q27 -2 40.5 -16.5t13.5 -34.5q0 -18 -15 -37l-118 -139q-18 -23 -45 -23q-23 0 -37.5 15.5t-14.5 35.5z" />
<glyph unicode="&#xca;" horiz-adv-x="1040" d="M164 59v1246q0 25 17.5 42t41.5 17h684q23 0 39.5 -15.5t16.5 -37.5q0 -20 -16.5 -37t-37.5 -17h-626v-505h393q23 0 38 -15.5t15 -38t-15.5 -38t-37.5 -15.5h-393v-539h630q23 0 38.5 -15t15.5 -37.5t-15.5 -38t-38.5 -15.5h-688q-27 0 -44 16t-17 43zM360 1538 q0 20 21 41l149 145q27 23 41.5 23t40.5 -23l150 -145q20 -20 20 -41q0 -18 -14 -31.5t-33 -13.5q-23 0 -45 23l-119 116l-118 -116q-23 -23 -45 -23q-18 0 -33 13.5t-15 31.5z" />
<glyph unicode="&#xcb;" horiz-adv-x="1040" d="M164 59v1246q0 25 17.5 42t41.5 17h684q23 0 39.5 -15.5t16.5 -37.5q0 -20 -16.5 -37t-37.5 -17h-626v-505h393q23 0 38 -15.5t15 -38t-15.5 -38t-37.5 -15.5h-393v-539h630q23 0 38.5 -15t15.5 -37.5t-15.5 -38t-38.5 -15.5h-688q-27 0 -44 16t-17 43zM305 1607.5 q0 34.5 23.5 58.5t58.5 24t58.5 -24t23.5 -58.5t-23.5 -58t-58.5 -23.5t-58.5 23.5t-23.5 58zM657 1607.5q0 34.5 24 58.5t58.5 24t58 -24t23.5 -58.5t-23.5 -58t-58 -23.5t-58.5 23.5t-24 58z" />
<glyph unicode="&#xcc;" horiz-adv-x="466" d="M59 1692q0 20 13.5 34.5t40.5 16.5q25 0 43 -23l118 -141q14 -16 15 -35q0 -20 -14.5 -35.5t-36.5 -15.5q-27 0 -45 23l-119 139q-15 19 -15 37zM174 43v1278q0 25 17.5 42t42 17t42 -17t17.5 -42v-1278q0 -25 -17.5 -42t-42 -17t-42 17t-17.5 42z" />
<glyph unicode="&#xcd;" horiz-adv-x="466" d="M174 43v1278q0 25 17.5 42t42 17t42 -17t17.5 -42v-1278q0 -25 -17.5 -42t-42 -17t-42 17t-17.5 42zM178 1544q0 18 15 35l118 141q18 23 43 23q27 -2 40.5 -16.5t13.5 -34.5q0 -18 -15 -37l-119 -139q-18 -23 -45 -23q-23 0 -37 15.5t-14 35.5z" />
<glyph unicode="&#xce;" horiz-adv-x="466" d="M23 1538q0 20 20 41l150 145q27 23 41 23t40 -23l150 -145q20 -20 20 -41q0 -18 -14 -31.5t-33 -13.5q-23 0 -45 23l-119 116l-118 -116q-23 -23 -45 -23q-18 0 -32.5 13.5t-14.5 31.5zM174 43v1278q0 25 17.5 42t42 17t42 -17t17.5 -42v-1278q0 -25 -17.5 -42t-42 -17 t-42 17t-17.5 42z" />
<glyph unicode="&#xcf;" horiz-adv-x="466" d="M-25 1607.5q0 34.5 25 58.5t57.5 24t57 -24t24.5 -58.5t-24.5 -58t-57 -23.5t-57.5 23.5t-25 58zM174 43v1278q0 25 17.5 42t42 17t42 -17t17.5 -42v-1278q0 -25 -17.5 -42t-42 -17t-42 17t-17.5 42zM328 1607.5q0 34.5 24.5 58.5t57 24t57.5 -24t25 -58.5t-25 -58 t-57.5 -23.5t-57 23.5t-24.5 58z" />
<glyph unicode="&#xd0;" horiz-adv-x="1292" d="M72 682q0 23 15 38t38 15h113v570q0 25 17 42t42 17h303q289 0 445.5 -190.5t156.5 -491.5t-156.5 -491.5t-443.5 -190.5h-303q-27 0 -44 17.5t-17 41.5v570h-113q-23 0 -38 15t-15 38zM356 106h238q244 0 366.5 164t122.5 412t-122.5 411.5t-366.5 163.5h-238v-522h277 q23 0 38 -15t15 -38t-15.5 -38t-37.5 -15h-277v-523z" />
<glyph unicode="&#xd1;" horiz-adv-x="1280" d="M164 41v1282q0 57 57 57q31 0 51 -28l729 -1125v1096q0 57 58 57q25 0 41 -15t16 -42v-1282q0 -25 -16.5 -41t-40.5 -16q-33 0 -53 32l-727 1121v-1096q0 -25 -16.5 -41t-41 -16t-41 16t-16.5 41zM360 1563q0 12 9 28q12 20 16 27q33 47 56.5 66.5t64.5 19.5 q37 0 145 -45q94 -39 115 -39q8 0 14 2t10.5 5t9.5 10.5t8 12.5t10 17t11 19q14 20 37 20q20 0 33.5 -13.5t13.5 -29.5q0 -14 -10 -31q-25 -41 -38 -59.5t-36.5 -33.5t-54.5 -15q-33 0 -137 39q-109 41 -129 41q-18 0 -28.5 -10.5t-28.5 -43.5q-14 -27 -45 -26 q-18 0 -32 11.5t-14 27.5z" />
<glyph unicode="&#xd2;" horiz-adv-x="1318" d="M98 682q0 303 149.5 505t412 202t412 -202t149.5 -505t-149.5 -505t-412 -202t-412 202t-149.5 505zM217 682q0 -154 45 -286t149.5 -224t248 -92t248 92t149.5 224t45 286t-45 286t-149.5 224t-248 92t-248 -92t-149.5 -224t-45 -286zM492 1692q0 20 13 34.5t40 16.5 q25 0 43 -23l119 -141q14 -16 14 -35q0 -20 -14.5 -35.5t-36.5 -15.5q-27 0 -45 23l-119 139q-14 19 -14 37z" />
<glyph unicode="&#xd3;" horiz-adv-x="1318" d="M98 682q0 303 149.5 505t412 202t412 -202t149.5 -505t-149.5 -505t-412 -202t-412 202t-149.5 505zM217 682q0 -154 45 -286t149.5 -224t248 -92t248 92t149.5 224t45 286t-45 286t-149.5 224t-248 92t-248 -92t-149.5 -224t-45 -286zM596 1544q0 18 14 35l119 141 q18 23 43 23q27 -2 40 -16.5t13 -34.5q0 -18 -14 -37l-119 -139q-18 -23 -45 -23q-23 0 -37 15.5t-14 35.5z" />
<glyph unicode="&#xd4;" horiz-adv-x="1318" d="M98 682q0 303 149.5 505t412 202t412 -202t149.5 -505t-149.5 -505t-412 -202t-412 202t-149.5 505zM217 682q0 -154 45 -286t149.5 -224t248 -92t248 92t149.5 224t45 286t-45 286t-149.5 224t-248 92t-248 -92t-149.5 -224t-45 -286zM451 1538q0 20 20 41l150 145 q27 23 41 23t40 -23l150 -145q20 -20 20 -41q0 -18 -14 -31.5t-33 -13.5q-23 0 -45 23l-118 116l-119 -116q-23 -23 -45 -23q-18 0 -32.5 13.5t-14.5 31.5z" />
<glyph unicode="&#xd5;" horiz-adv-x="1318" d="M98 682q0 303 149.5 505t412 202t412 -202t149.5 -505t-149.5 -505t-412 -202t-412 202t-149.5 505zM217 682q0 -154 45 -286t149.5 -224t248 -92t248 92t149.5 224t45 286t-45 286t-149.5 224t-248 92t-248 -92t-149.5 -224t-45 -286zM381 1563q0 12 8 28q12 20 17 27 q33 47 56 66.5t64 19.5q37 0 146 -45q94 -39 114 -39q8 0 14.5 2t10.5 5t9 10.5t8 12.5t10.5 17t11.5 19q14 20 37 20q20 0 33.5 -13.5t13.5 -29.5q0 -14 -10 -31q-25 -41 -38.5 -59.5t-37 -33.5t-53.5 -15q-33 0 -138 39q-109 41 -129 41q-18 0 -28.5 -10.5t-28.5 -43.5 q-14 -27 -45 -26q-18 0 -31.5 11.5t-13.5 27.5z" />
<glyph unicode="&#xd6;" horiz-adv-x="1318" d="M98 682q0 303 149.5 505t412 202t412 -202t149.5 -505t-149.5 -505t-412 -202t-412 202t-149.5 505zM217 682q0 -154 45 -286t149.5 -224t248 -92t248 92t149.5 224t45 286t-45 286t-149.5 224t-248 92t-248 -92t-149.5 -224t-45 -286zM403 1607.5q0 34.5 24 58.5 t58.5 24t58 -24t23.5 -58.5t-23.5 -58t-58 -23.5t-58.5 23.5t-24 58zM756 1607.5q0 34.5 23.5 58.5t58 24t58.5 -24t24 -58.5t-24 -58t-58.5 -23.5t-58 23.5t-23.5 58z" />
<glyph unicode="&#xd7;" horiz-adv-x="999" d="M164 379q0 25 14 39l246 244l-244 243q-16 16 -16 39q0 25 15.5 39t37.5 14q25 0 41 -16l242 -244l241 244q16 16 41 16q23 0 38.5 -14t15.5 -39q0 -23 -17 -39l-244 -243l246 -244q14 -14 15 -39q0 -23 -16.5 -38t-39.5 -15q-20 0 -39 18l-241 242l-242 -242 q-18 -18 -39 -18q-23 0 -39 15t-16 38z" />
<glyph unicode="&#xd8;" horiz-adv-x="1318" d="M98 -82q0 12 17 35l143 211q-160 197 -160 518q0 303 149.5 505t411.5 202q197 0 338 -125l140 204q16 23 34 23q20 0 35 -12.5t15 -30.5q0 -16 -11 -31l-149 -219q160 -197 160 -516q0 -303 -149.5 -505t-412.5 -202q-203 0 -340 125l-133 -196q-20 -31 -41 -31 q-47 0 -47 45zM217 682q0 -246 111 -414l606 899q-113 117 -275 117q-143 0 -247.5 -92t-149.5 -224t-45 -286zM383 195q111 -115 276 -115q143 0 248 92t150 224t45 286q0 242 -111 414z" />
<glyph unicode="&#xd9;" horiz-adv-x="1282" d="M147 494v827q0 27 16.5 43t43.5 16q25 0 42 -16t17 -43v-832q0 -197 98.5 -302t276.5 -105t276.5 105.5t98.5 301.5v832q0 27 17.5 43t41.5 16q27 0 43.5 -16t16.5 -43v-827q0 -246 -134.5 -382.5t-359.5 -136.5t-359.5 136.5t-134.5 382.5zM471 1692q0 20 13.5 34.5 t39.5 16.5q25 0 43 -23l119 -141q14 -16 14 -35q0 -20 -14 -35.5t-37 -15.5q-27 0 -45 23l-119 139q-14 19 -14 37z" />
<glyph unicode="&#xda;" horiz-adv-x="1282" d="M147 494v827q0 27 16.5 43t43.5 16q25 0 42 -16t17 -43v-832q0 -197 98.5 -302t276.5 -105t276.5 105.5t98.5 301.5v832q0 27 17.5 43t41.5 16q27 0 43.5 -16t16.5 -43v-827q0 -246 -134.5 -382.5t-359.5 -136.5t-359.5 136.5t-134.5 382.5zM557 1544q0 18 14 35l119 141 q18 23 43 23q27 -2 40 -16.5t13 -34.5q0 -18 -14 -37l-119 -139q-18 -23 -45 -23q-23 0 -37 15.5t-14 35.5z" />
<glyph unicode="&#xdb;" horiz-adv-x="1282" d="M147 494v827q0 27 16.5 43t43.5 16q25 0 42 -16t17 -43v-832q0 -197 98.5 -302t276.5 -105t276.5 105.5t98.5 301.5v832q0 27 17.5 43t41.5 16q27 0 43.5 -16t16.5 -43v-827q0 -246 -134.5 -382.5t-359.5 -136.5t-359.5 136.5t-134.5 382.5zM430 1538q0 20 21 41l149 145 q27 23 41 23t41 -23l149 -145q20 -20 21 -41q0 -18 -14.5 -31.5t-32.5 -13.5q-23 0 -45 23l-119 116l-119 -116q-23 -23 -45 -23q-18 0 -32.5 13.5t-14.5 31.5z" />
<glyph unicode="&#xdc;" horiz-adv-x="1282" d="M147 494v827q0 27 16.5 43t43.5 16q25 0 42 -16t17 -43v-832q0 -197 98.5 -302t276.5 -105t276.5 105.5t98.5 301.5v832q0 27 17.5 43t41.5 16q27 0 43.5 -16t16.5 -43v-827q0 -246 -134.5 -382.5t-359.5 -136.5t-359.5 136.5t-134.5 382.5zM383 1607.5q0 34.5 23.5 58.5 t58.5 24t58.5 -24t23.5 -58.5t-23.5 -58t-58.5 -23.5t-58.5 23.5t-23.5 58zM735 1607.5q0 34.5 23.5 58.5t58.5 24t58.5 -24t23.5 -58.5t-23.5 -58t-58.5 -23.5t-58.5 23.5t-23.5 58z" />
<glyph unicode="&#xdd;" horiz-adv-x="1011" d="M27 1325q0 25 16 40t41 15q33 0 51 -32l371 -656l371 656q18 33 51 32q25 0 41 -15t16 -40q0 -14 -10 -33l-410 -725v-524q0 -25 -16.5 -42t-43 -17t-43 17t-16.5 42v524l-409 725q-10 19 -10 33zM436 1544q0 18 15 35l118 141q18 23 43 23q27 -2 40.5 -16.5t13.5 -34.5 q0 -18 -15 -37l-119 -139q-18 -23 -45 -23q-23 0 -37 15.5t-14 35.5z" />
<glyph unicode="&#xde;" horiz-adv-x="1099" d="M164 43v1278q0 25 17.5 42t42 17t42 -17t17.5 -42v-240h354q197 0 307.5 -106.5t110.5 -278.5t-110.5 -278.5t-307.5 -106.5h-354v-268q0 -25 -17.5 -42t-42 -17t-42 17t-17.5 42zM283 418h376q127 0 202 77.5t75 200.5t-75 201t-202 78h-376v-557z" />
<glyph unicode="&#xdf;" horiz-adv-x="1161" d="M150 43v967q0 182 94 280.5t278 98.5q170 0 267.5 -81t97.5 -218q0 -66 -22.5 -116t-86.5 -132q-10 -14 -28.5 -37t-25.5 -33t-19.5 -26.5t-17.5 -25.5t-11 -21.5t-8 -22.5t-2 -21q0 -51 32.5 -81.5t135.5 -77.5q133 -61 191 -116.5t58 -162t-80.5 -174.5t-226.5 -68 q-184 0 -293 109q-20 20 -20 39q0 47 49 47q20 0 39 -14q102 -84 225 -84q90 0 140.5 40t50.5 101q0 66 -42 105.5t-141 82.5q-135 61 -186 111.5t-51 138.5q0 53 26.5 100.5t88.5 120.5q106 129 106 218q0 94 -67.5 146t-176.5 52q-256 0 -256 -274v-971q0 -25 -17.5 -42 t-42 -17t-41.5 17t-17 42z" />
<glyph unicode="&#xe0;" horiz-adv-x="985" d="M119 244q0 119 93 192.5t249 73.5q178 0 266 -109v138q0 141 -66.5 206.5t-203.5 65.5q-117 0 -228 -53q-20 -8 -34 -8q-23 0 -37.5 13t-14.5 34q0 31 39 53q115 63 285 63q182 0 280.5 -96t98.5 -276v-498q0 -25 -16.5 -42t-43 -17t-43 17t-16.5 42v45 q-88 -113 -278 -113q-150 0 -240 77t-90 192zM233 244q0 -82 63.5 -129t172.5 -47q106 0 182 50t76 126q0 80 -74.5 127t-177.5 47q-113 0 -177.5 -47t-64.5 -127zM322 1280q0 49 53 49q29 0 45 -24l133 -197q10 -16 10 -33q0 -20 -15.5 -34.5t-35.5 -14.5q-29 0 -47 27 l-133 194q-10 17 -10 33z" />
<glyph unicode="&#xe1;" horiz-adv-x="985" d="M119 244q0 119 93 192.5t249 73.5q178 0 266 -109v138q0 141 -66.5 206.5t-203.5 65.5q-117 0 -228 -53q-20 -8 -34 -8q-23 0 -37.5 13t-14.5 34q0 31 39 53q115 63 285 63q182 0 280.5 -96t98.5 -276v-498q0 -25 -16.5 -42t-43 -17t-43 17t-16.5 42v45 q-88 -113 -278 -113q-150 0 -240 77t-90 192zM233 244q0 -82 63.5 -129t172.5 -47q106 0 182 50t76 126q0 80 -74.5 127t-177.5 47q-113 0 -177.5 -47t-64.5 -127zM416 1075q0 16 10 33l133 197q16 25 45 24q53 0 53 -49q0 -16 -10 -33l-133 -194q-18 -27 -47 -27 q-20 0 -35.5 14.5t-15.5 34.5z" />
<glyph unicode="&#xe2;" horiz-adv-x="985" d="M119 244q0 119 93 192.5t249 73.5q178 0 266 -109v138q0 141 -66.5 206.5t-203.5 65.5q-117 0 -228 -53q-20 -8 -34 -8q-23 0 -37.5 13t-14.5 34q0 31 39 53q115 63 285 63q182 0 280.5 -96t98.5 -276v-498q0 -25 -16.5 -42t-43 -17t-43 17t-16.5 42v45 q-88 -113 -278 -113q-150 0 -240 77t-90 192zM233 244q0 -82 63.5 -129t172.5 -47q106 0 182 50t76 126q0 80 -74.5 127t-177.5 47q-113 0 -177.5 -47t-64.5 -127zM272 1075q0 16 15 35l172 188q18 23 40.5 23t41.5 -23l172 -188q14 -18 14 -35q0 -18 -14.5 -31.5 t-32.5 -13.5q-27 0 -45 23l-135 153l-135 -153q-18 -23 -46 -23q-18 0 -32.5 13.5t-14.5 31.5z" />
<glyph unicode="&#xe3;" horiz-adv-x="985" d="M119 244q0 119 93 192.5t249 73.5q178 0 266 -109v138q0 141 -66.5 206.5t-203.5 65.5q-117 0 -228 -53q-20 -8 -34 -8q-23 0 -37.5 13t-14.5 34q0 31 39 53q115 63 285 63q182 0 280.5 -96t98.5 -276v-498q0 -25 -16.5 -42t-43 -17t-43 17t-16.5 42v45 q-88 -113 -278 -113q-150 0 -240 77t-90 192zM229 1102q0 12 9 28q12 20 16 27q33 47 56.5 66.5t64.5 19.5q10 0 20.5 -1t17.5 -3t19 -7t19 -8l22 -12q16 -8 27 -12q80 -39 94 -39q8 0 14 2t10.5 5t9.5 10.5t8 12.5t10 17.5t11 18.5q14 20 37 20q20 0 33.5 -13t13.5 -30 q0 -14 -10 -30q-25 -43 -37 -60.5t-35.5 -33t-56.5 -15.5q-37 0 -117 39q-82 39 -108 39q-18 0 -28.5 -10.5t-29.5 -42.5q-16 -29 -45 -29q-20 0 -32.5 12.5t-12.5 28.5zM233 244q0 -82 63.5 -129t172.5 -47q106 0 182 50t76 126q0 80 -74.5 127t-177.5 47 q-113 0 -177.5 -47t-64.5 -127z" />
<glyph unicode="&#xe4;" horiz-adv-x="985" d="M119 244q0 119 93 192.5t249 73.5q178 0 266 -109v138q0 141 -66.5 206.5t-203.5 65.5q-117 0 -228 -53q-20 -8 -34 -8q-23 0 -37.5 13t-14.5 34q0 31 39 53q115 63 285 63q182 0 280.5 -96t98.5 -276v-498q0 -25 -16.5 -42t-43 -17t-43 17t-16.5 42v45 q-88 -113 -278 -113q-150 0 -240 77t-90 192zM233 244q0 -82 63.5 -129t172.5 -47q106 0 182 50t76 126q0 80 -74.5 127t-177.5 47q-113 0 -177.5 -47t-64.5 -127zM248 1153q0 35 23.5 58.5t58.5 23.5t58.5 -23.5t23.5 -58.5t-23.5 -58.5t-58.5 -23.5t-58.5 23.5t-23.5 58.5 zM586 1153q0 35 24.5 58.5t57 23.5t57.5 -23.5t25 -58.5t-25 -58.5t-57.5 -23.5t-57 23.5t-24.5 58.5z" />
<glyph unicode="&#xe5;" horiz-adv-x="985" d="M119 244q0 119 93 192.5t249 73.5q178 0 266 -109v138q0 141 -66.5 206.5t-203.5 65.5q-117 0 -228 -53q-20 -8 -34 -8q-23 0 -37.5 13t-14.5 34q0 31 39 53q115 63 285 63q182 0 280.5 -96t98.5 -276v-498q0 -25 -16.5 -42t-43 -17t-43 17t-16.5 42v45 q-88 -113 -278 -113q-150 0 -240 77t-90 192zM233 244q0 -82 63.5 -129t172.5 -47q106 0 182 50t76 126q0 80 -74.5 127t-177.5 47q-113 0 -177.5 -47t-64.5 -127zM342 1165.5q0 61.5 41 100.5t104.5 39t104.5 -39t41 -100.5t-41 -100.5t-104.5 -39t-104.5 39t-41 100.5z M416 1165.5q0 -32.5 19.5 -54t52 -21.5t52 21.5t19.5 54t-19.5 54t-52 21.5t-52 -21.5t-19.5 -54z" />
<glyph unicode="&#xe6;" horiz-adv-x="1591" d="M119 244q0 119 93 192.5t249 73.5q168 0 266 -109v138q0 141 -65.5 206.5t-204.5 65.5q-117 0 -228 -53q-20 -8 -34 -8q-23 0 -37.5 13t-14.5 34q0 31 39 53q115 63 285 63q248 0 340 -192q117 193 328 192q168 0 273 -131t105 -333q0 -49 -51 -50h-614q8 -143 80.5 -233 t220.5 -90q139 0 240 131q18 27 44.5 26.5t40 -15.5t13.5 -36q0 -14 -17 -39q-123 -168 -321 -168q-227 0 -342 175q-113 -174 -358 -175q-150 0 -240 77t-90 192zM233 244q0 -82 63.5 -131.5t172.5 -49.5q104 0 181 51.5t77 129.5q0 80 -74.5 129t-177.5 49 q-111 0 -176.5 -49t-65.5 -129zM848 500h559q-12 129 -83 221t-187 92q-123 0 -201 -93t-88 -220z" />
<glyph unicode="&#xe7;" horiz-adv-x="913" d="M92 444q0 197 113.5 333t298.5 136q104 0 187 -47t132 -123q12 -18 12.5 -38.5t-16 -36t-39.5 -15.5q-27 0 -45 27q-90 131 -229 131q-133 0 -214 -107.5t-81 -259t81 -259t214 -107.5q139 0 229 131q18 27 45 27q23 0 39.5 -15.5t16.5 -36t-13 -39.5 q-104 -162 -303 -170l-33 -88q18 8 62 9q68 0 110.5 -38t42.5 -104q0 -70 -52 -111.5t-148 -41.5q-66 0 -127 22q-33 12 -33 37q0 45 35 45q8 0 33 -8q49 -16 94 -16q104 0 104 73q0 66 -98 66q-20 0 -43 -3t-33 -3q-41 0 -41 34q0 12 21 64l26 68q-158 23 -253 153.5 t-95 310.5z" />
<glyph unicode="&#xe8;" horiz-adv-x="956" d="M92 444.5q0 198.5 113.5 333.5t294.5 135q170 0 274.5 -131t104.5 -333q0 -49 -52 -50h-614q8 -143 81 -233t220 -90q139 0 240 131q18 27 44.5 26.5t40 -15.5t13.5 -36q0 -14 -16 -39q-123 -168 -322 -168q-207 0 -314.5 135.5t-107.5 334zM213 500h557q-12 131 -82 222 t-186 91q-123 0 -200 -92t-89 -221zM301 1280q0 49 53 49q29 0 45 -24l133 -197q10 -16 11 -33q0 -20 -15.5 -34.5t-35.5 -14.5q-29 0 -48 27l-133 194q-10 17 -10 33z" />
<glyph unicode="&#xe9;" horiz-adv-x="956" d="M92 444.5q0 198.5 113.5 333.5t294.5 135q170 0 274.5 -131t104.5 -333q0 -49 -52 -50h-614q8 -143 81 -233t220 -90q139 0 240 131q18 27 44.5 26.5t40 -15.5t13.5 -36q0 -14 -16 -39q-123 -168 -322 -168q-207 0 -314.5 135.5t-107.5 334zM213 500h557q-12 131 -82 222 t-186 91q-123 0 -200 -92t-89 -221zM414 1075q0 16 10 33l133 197q16 25 45 24q53 0 53 -49q0 -16 -10 -33l-133 -194q-18 -27 -47 -27q-20 0 -35.5 14.5t-15.5 34.5z" />
<glyph unicode="&#xea;" horiz-adv-x="956" d="M92 444.5q0 198.5 113.5 333.5t294.5 135q170 0 274.5 -131t104.5 -333q0 -49 -52 -50h-614q8 -143 81 -233t220 -90q139 0 240 131q18 27 44.5 26.5t40 -15.5t13.5 -36q0 -14 -16 -39q-123 -168 -322 -168q-207 0 -314.5 135.5t-107.5 334zM213 500h557q-12 131 -82 222 t-186 91q-123 0 -200 -92t-89 -221zM268 1075q0 16 15 35l172 188q18 23 40.5 23t41.5 -23l172 -188q14 -18 14 -35q0 -18 -14.5 -31.5t-32.5 -13.5q-27 0 -45 23l-135 153l-136 -153q-18 -23 -45 -23q-18 0 -32.5 13.5t-14.5 31.5z" />
<glyph unicode="&#xeb;" horiz-adv-x="956" d="M92 444.5q0 198.5 113.5 333.5t294.5 135q170 0 274.5 -131t104.5 -333q0 -49 -52 -50h-614q8 -143 81 -233t220 -90q139 0 240 131q18 27 44.5 26.5t40 -15.5t13.5 -36q0 -14 -16 -39q-123 -168 -322 -168q-207 0 -314.5 135.5t-107.5 334zM213 500h557q-12 131 -82 222 t-186 91q-123 0 -200 -92t-89 -221zM258 1153q0 35 24.5 58.5t57.5 23.5t57.5 -23.5t24.5 -58.5t-24.5 -58.5t-57.5 -23.5t-57.5 23.5t-24.5 58.5zM596 1153q0 35 23.5 58.5t58.5 23.5t58.5 -23.5t23.5 -58.5t-23.5 -58.5t-58.5 -23.5t-58.5 23.5t-23.5 58.5z" />
<glyph unicode="&#xec;" horiz-adv-x="425" d="M16 1280q0 49 54 49q29 0 45 -24l133 -197q10 -16 10 -33q0 -20 -15.5 -34.5t-35.5 -14.5q-29 0 -47 27l-133 194q-11 17 -11 33zM154 43v803q0 25 17 42t42 17t42 -17.5t17 -41.5v-803q0 -25 -17 -42t-42 -17t-42 17t-17 42z" />
<glyph unicode="&#xed;" horiz-adv-x="425" d="M154 43v803q0 25 17 42t42 17t42 -17.5t17 -41.5v-803q0 -25 -17 -42t-42 -17t-42 17t-17 42zM162 1075q0 16 10 33l133 197q16 25 45 24q53 0 53 -49q0 -16 -10 -33l-133 -194q-18 -27 -47 -27q-20 0 -35.5 14.5t-15.5 34.5z" />
<glyph unicode="&#xee;" horiz-adv-x="425" d="M-14 1075q0 16 14 35l172 188q18 23 41 23t41 -23l172 -188q14 -18 14 -35q0 -18 -14 -31.5t-33 -13.5q-27 0 -45 23l-135 153l-135 -153q-18 -23 -45 -23q-18 0 -32.5 13.5t-14.5 31.5zM154 43v803q0 25 17 42t42 17t42 -17.5t17 -41.5v-803q0 -25 -17 -42t-42 -17 t-42 17t-17 42z" />
<glyph unicode="&#xef;" horiz-adv-x="425" d="M-37 1153q0 35 24.5 58.5t57.5 23.5t57.5 -23.5t24.5 -58.5t-24.5 -58.5t-57.5 -23.5t-57.5 23.5t-24.5 58.5zM154 43v803q0 25 17 42t42 17t42 -17.5t17 -41.5v-803q0 -25 -17 -42t-42 -17t-42 17t-17 42zM301 1153q0 35 23.5 58.5t58.5 23.5t58.5 -23.5t23.5 -58.5 t-23.5 -58.5t-58.5 -23.5t-58.5 23.5t-23.5 58.5z" />
<glyph unicode="&#xf0;" horiz-adv-x="1003" d="M92 412q0 193 106.5 313.5t278.5 120.5q199 0 303 -172q-45 268 -205 422l-120 -103q-20 -16 -37 -16q-20 0 -34.5 14.5t-14.5 30.5q0 20 20 37l119 98q-102 82 -225 141q-35 16 -35 45q0 45 47 46q12 0 29 -7q156 -68 258 -163l108 90q16 14 33 14q18 0 32.5 -14.5 t14.5 -30.5q0 -25 -18 -39l-101 -82q115 -106 180.5 -286.5t65.5 -407.5q0 -201 -107.5 -344.5t-302.5 -143.5q-190 0 -292.5 129.5t-102.5 307.5zM209 412q0 -154 76.5 -246t203.5 -92q133 0 210 96t77 242q0 156 -84 246t-198 90q-133 0 -209 -89t-76 -247z" />
<glyph unicode="&#xf1;" d="M154 43v803q0 25 16 42t43 17t43 -17.5t16 -41.5v-117q88 184 303 184q162 0 252.5 -108.5t90.5 -292.5v-469q0 -25 -17.5 -42t-42 -17t-42 17t-17.5 42v467q0 295 -250 295q-125 0 -201 -92t-76 -236v-434q0 -25 -17 -42t-42 -17t-42 17t-17 42zM279 1102q0 12 8 28 q12 20 16 27q33 47 56.5 66.5t64.5 19.5q10 0 20.5 -1t17.5 -3t19.5 -7t18.5 -8l22 -12q16 -8 27 -12q80 -39 94 -39q8 0 14.5 2t10.5 5t9 10.5t8 12.5t10 17.5t12 18.5q14 20 36 20q20 0 34 -13t14 -30q0 -14 -11 -30q-25 -43 -37 -60.5t-35.5 -33t-56.5 -15.5 q-37 0 -116 39q-82 39 -109 39q-18 0 -28.5 -10.5t-28.5 -42.5q-16 -29 -45 -29q-20 0 -32.5 12.5t-12.5 28.5z" />
<glyph unicode="&#xf2;" horiz-adv-x="1007" d="M92 444.5q0 192.5 112.5 330.5t299 138t299 -138t112.5 -330.5t-112.5 -331t-299 -138.5t-299 138.5t-112.5 331zM211 444.5q0 -153.5 81 -260t212 -106.5t212 106.5t81 260t-81 260t-212 106.5t-212 -106.5t-81 -260zM305 1280q0 49 53 49q29 0 45 -24l134 -197 q10 -16 10 -33q0 -20 -15.5 -34.5t-35.5 -14.5q-29 0 -47 27l-134 194q-10 17 -10 33z" />
<glyph unicode="&#xf3;" horiz-adv-x="1007" d="M92 444.5q0 192.5 112.5 330.5t299 138t299 -138t112.5 -330.5t-112.5 -331t-299 -138.5t-299 138.5t-112.5 331zM211 444.5q0 -153.5 81 -260t212 -106.5t212 106.5t81 260t-81 260t-212 106.5t-212 -106.5t-81 -260zM434 1075q0 16 10 33l134 197q16 25 45 24 q53 0 53 -49q0 -16 -10 -33l-134 -194q-18 -27 -47 -27q-20 0 -35.5 14.5t-15.5 34.5z" />
<glyph unicode="&#xf4;" horiz-adv-x="1007" d="M92 444.5q0 192.5 112.5 330.5t299 138t299 -138t112.5 -330.5t-112.5 -331t-299 -138.5t-299 138.5t-112.5 331zM211 444.5q0 -153.5 81 -260t212 -106.5t212 106.5t81 260t-81 260t-212 106.5t-212 -106.5t-81 -260zM276 1075q0 16 15 35l172 188q18 23 40.5 23 t41.5 -23l172 -188q14 -18 14 -35q0 -18 -14.5 -31.5t-32.5 -13.5q-27 0 -45 23l-135 153l-135 -153q-18 -23 -45 -23q-18 0 -33 13.5t-15 31.5z" />
<glyph unicode="&#xf5;" horiz-adv-x="1007" d="M92 444.5q0 192.5 112.5 330.5t299 138t299 -138t112.5 -330.5t-112.5 -331t-299 -138.5t-299 138.5t-112.5 331zM211 444.5q0 -153.5 81 -260t212 -106.5t212 106.5t81 260t-81 260t-212 106.5t-212 -106.5t-81 -260zM258 1102q0 12 8 28q12 20 17 27q33 47 56 66.5 t64 19.5q10 0 20.5 -1t18 -3t19.5 -7t18 -8l23 -12q16 -8 26 -12q80 -39 95 -39q8 0 14 2t10 5t9.5 10.5t8.5 12.5t10 17.5t11 18.5q14 20 37 20q20 0 33.5 -13t13.5 -30q0 -14 -10 -30q-25 -43 -37 -60.5t-35.5 -33t-56.5 -15.5q-37 0 -117 39q-82 39 -108 39 q-18 0 -28.5 -10.5t-29.5 -42.5q-16 -29 -45 -29q-20 0 -32.5 12.5t-12.5 28.5z" />
<glyph unicode="&#xf6;" horiz-adv-x="1007" d="M92 444.5q0 192.5 112.5 330.5t299 138t299 -138t112.5 -330.5t-112.5 -331t-299 -138.5t-299 138.5t-112.5 331zM211 444.5q0 -153.5 81 -260t212 -106.5t212 106.5t81 260t-81 260t-212 106.5t-212 -106.5t-81 -260zM254 1153q0 35 24.5 58.5t57.5 23.5t57.5 -23.5 t24.5 -58.5t-24.5 -58.5t-57.5 -23.5t-57.5 23.5t-24.5 58.5zM592 1153q0 35 23.5 58.5t58.5 23.5t58.5 -23.5t23.5 -58.5t-23.5 -58.5t-58.5 -23.5t-58.5 23.5t-23.5 58.5z" />
<glyph unicode="&#xf7;" horiz-adv-x="1138" d="M123 661.5q0 22.5 16.5 38t38.5 15.5h780q23 0 40.5 -15.5t17.5 -38t-16.5 -38t-38.5 -15.5h-781q-23 0 -40 15.5t-17 38zM485 301q0 35 25 59.5t59.5 24.5t59 -24.5t24.5 -59.5t-24.5 -59.5t-59 -24.5t-59.5 24.5t-25 59.5zM485 1022q0 35 25 59.5t59.5 24.5t59 -24.5 t24.5 -59.5t-24.5 -59.5t-59 -24.5t-59.5 24.5t-25 59.5z" />
<glyph unicode="&#xf8;" horiz-adv-x="1007" d="M92 -88q0 10 12 31l111 157q-123 135 -123 344q0 193 112.5 331t299.5 138q127 0 227 -73l111 157q14 18 30 19q43 0 43 -39q0 -12 -10 -27l-114 -162q125 -137 124 -344q0 -193 -112.5 -331t-298.5 -138q-133 0 -230 74l-110 -158q-14 -18 -31 -18q-41 0 -41 39z M211 444q0 -147 72 -247l387 555q-72 59 -166 59q-131 0 -212 -106.5t-81 -260.5zM336 137q72 -59 168 -59q131 0 212 106.5t81 259.5q0 141 -74 248z" />
<glyph unicode="&#xf9;" d="M143 377v469q0 25 17.5 42t42 17t42 -17.5t17.5 -41.5v-467q0 -295 250 -295q125 0 200.5 92t75.5 236v434q0 25 17.5 42t42 17t42 -17.5t17.5 -41.5v-803q0 -25 -16.5 -42t-43 -17t-43 17t-16.5 42v117q-88 -184 -303 -185q-162 0 -252 109t-90 293zM367 1280 q0 49 53 49q29 0 45 -24l133 -197q10 -16 10 -33q0 -20 -15 -34.5t-36 -14.5q-29 0 -47 27l-133 194q-10 17 -10 33z" />
<glyph unicode="&#xfa;" d="M143 377v469q0 25 17.5 42t42 17t42 -17.5t17.5 -41.5v-467q0 -295 250 -295q125 0 200.5 92t75.5 236v434q0 25 17.5 42t42 17t42 -17.5t17.5 -41.5v-803q0 -25 -16.5 -42t-43 -17t-43 17t-16.5 42v117q-88 -184 -303 -185q-162 0 -252 109t-90 293zM455 1075 q0 16 10 33l133 197q16 25 45 24q53 0 53 -49q0 -16 -10 -33l-133 -194q-18 -27 -47 -27q-20 0 -35.5 14.5t-15.5 34.5z" />
<glyph unicode="&#xfb;" d="M143 377v469q0 25 17.5 42t42 17t42 -17.5t17.5 -41.5v-467q0 -295 250 -295q125 0 200.5 92t75.5 236v434q0 25 17.5 42t42 17t42 -17.5t17.5 -41.5v-803q0 -25 -16.5 -42t-43 -17t-43 17t-16.5 42v117q-88 -184 -303 -185q-162 0 -252 109t-90 293zM307 1075 q0 16 15 35l172 188q18 23 40.5 23t40.5 -23l173 -188q14 -18 14 -35q0 -18 -14.5 -31.5t-32.5 -13.5q-27 0 -45 23l-135 153l-136 -153q-18 -23 -45 -23q-18 0 -32.5 13.5t-14.5 31.5z" />
<glyph unicode="&#xfc;" d="M143 377v469q0 25 17.5 42t42 17t42 -17.5t17.5 -41.5v-467q0 -295 250 -295q125 0 200.5 92t75.5 236v434q0 25 17.5 42t42 17t42 -17.5t17.5 -41.5v-803q0 -25 -16.5 -42t-43 -17t-43 17t-16.5 42v117q-88 -184 -303 -185q-162 0 -252 109t-90 293zM285 1153 q0 35 23.5 58.5t58 23.5t58.5 -23.5t24 -58.5t-24 -58.5t-58.5 -23.5t-58 23.5t-23.5 58.5zM623 1153q0 35 24.5 58.5t57 23.5t57 -23.5t24.5 -58.5t-24.5 -58.5t-57 -23.5t-57 23.5t-24.5 58.5z" />
<glyph unicode="&#xfd;" horiz-adv-x="827" d="M31 852q0 53 57 53q39 0 53 -43l283 -733l264 737q14 39 53 39q55 0 56 -53q0 -12 -6 -27q-172 -494 -265 -731q-125 -324 -368 -485q-16 -8 -31 -8q-23 0 -38 14t-15 37q0 31 37 57q156 113 247 287l-319 823q-8 21 -8 33zM334 1075q0 16 10 33l133 197q16 25 45 24 q53 0 53 -49q0 -16 -10 -33l-133 -194q-18 -27 -47 -27q-20 0 -35.5 14.5t-15.5 34.5z" />
<glyph unicode="&#xfe;" horiz-adv-x="1064" d="M154 -340v1661q0 25 17 42t42 17t42 -17t17 -42v-594q104 186 316 186q170 0 277.5 -133t107.5 -335.5t-107.5 -336t-277.5 -133.5q-211 0 -316 187v-502q0 -25 -17 -42t-42 -17t-42 17t-17 42zM272 444.5q0 -153.5 86 -260t215 -106.5q133 0 207 104.5t74 262t-73.5 262 t-207.5 104.5q-129 0 -215 -106.5t-86 -260z" />
<glyph unicode="&#xff;" horiz-adv-x="827" d="M31 852q0 53 57 53q39 0 53 -43l283 -733l264 737q14 39 53 39q55 0 56 -53q0 -12 -6 -27q-172 -494 -265 -731q-125 -324 -368 -485q-16 -8 -31 -8q-23 0 -38 14t-15 37q0 31 37 57q156 113 247 287l-319 823q-8 21 -8 33zM162 1153q0 35 23.5 58.5t58.5 23.5 t58.5 -23.5t23.5 -58.5t-23.5 -58.5t-58.5 -23.5t-58.5 23.5t-23.5 58.5zM500 1153q0 35 24.5 58.5t57 23.5t57.5 -23.5t25 -58.5t-25 -58.5t-57.5 -23.5t-57 23.5t-24.5 58.5z" />
<glyph unicode="&#x152;" horiz-adv-x="1978" d="M98 682q0 303 149.5 505t411.5 202q301 0 443 -295v211q0 25 17.5 42t41.5 17h684q23 0 39.5 -15.5t16.5 -37.5q0 -20 -16.5 -37t-37.5 -17h-626v-505h393q23 0 38 -15.5t15 -38t-15.5 -38t-37.5 -15.5h-393v-539h630q23 0 38.5 -15t15.5 -37.5t-15.5 -38t-38.5 -15.5 h-688q-27 0 -44 16.5t-17 42.5v211q-66 -137 -181.5 -216t-261.5 -79q-262 0 -411.5 202t-149.5 505zM217 682q0 -154 45 -286t149.5 -224t248 -92t248 92t149.5 224t45 286t-45 286t-149.5 224t-248 92t-248 -92t-149.5 -224t-45 -286z" />
<glyph unicode="&#x153;" horiz-adv-x="1662" d="M92 444.5q0 192.5 112.5 330.5t299.5 138q231 0 352 -227q123 227 350 227q168 0 273.5 -131t105.5 -333q0 -49 -51 -50h-614q8 -143 80.5 -233t220.5 -90q139 0 239 131q18 27 45 26.5t40.5 -15.5t13.5 -36q0 -14 -17 -39q-123 -168 -321 -168q-131 0 -224.5 61.5 t-142.5 162.5q-119 -223 -350 -224q-186 0 -299 138.5t-113 331zM211 444.5q0 -153.5 81 -260t212 -106.5t212 106.5t81 260t-81 260t-212 106.5t-212 -106.5t-81 -260zM920 500h559q-12 129 -83 221t-188 92q-123 0 -200.5 -93t-87.5 -220z" />
<glyph unicode="&#x178;" horiz-adv-x="1011" d="M27 1325q0 25 16 40t41 15q33 0 51 -32l371 -656l371 656q18 33 51 32q25 0 41 -15t16 -40q0 -14 -10 -33l-410 -725v-524q0 -25 -16.5 -42t-43 -17t-43 17t-16.5 42v524l-409 725q-10 19 -10 33zM248 1607.5q0 34.5 23.5 58.5t58.5 24t58.5 -24t23.5 -58.5t-23.5 -58 t-58.5 -23.5t-58.5 23.5t-23.5 58zM600 1607.5q0 34.5 23.5 58.5t58.5 24t58.5 -24t23.5 -58.5t-23.5 -58t-58.5 -23.5t-58.5 23.5t-23.5 58z" />
<glyph unicode="&#x2c6;" horiz-adv-x="741" d="M143 1075q0 16 15 35l172 188q18 23 40.5 23t41.5 -23l172 -188q14 -18 14 -35q0 -18 -14.5 -31.5t-32.5 -13.5q-27 0 -45 23l-135 153l-135 -153q-18 -23 -46 -23q-18 0 -32.5 13.5t-14.5 31.5z" />
<glyph unicode="&#x2dc;" horiz-adv-x="819" d="M154 1102q0 12 8 28q12 20 16 27q33 47 56.5 66.5t64.5 19.5q37 0 125 -43q80 -39 94 -39q8 0 14.5 2t10.5 5t9 10.5t8 12.5l10.5 17.5t11.5 18.5q14 20 36 20q20 0 34 -13t14 -30q0 -14 -11 -30q-25 -43 -37 -60.5t-35.5 -33t-56.5 -15.5q-37 0 -116 39q-82 39 -109 39 q-18 0 -28.5 -10.5t-28.5 -42.5q-16 -29 -45 -29q-20 0 -32.5 12.5t-12.5 28.5z" />
<glyph unicode="&#x2000;" horiz-adv-x="872" />
<glyph unicode="&#x2001;" horiz-adv-x="1746" />
<glyph unicode="&#x2002;" horiz-adv-x="872" />
<glyph unicode="&#x2003;" horiz-adv-x="1746" />
<glyph unicode="&#x2004;" horiz-adv-x="581" />
<glyph unicode="&#x2005;" horiz-adv-x="436" />
<glyph unicode="&#x2006;" horiz-adv-x="290" />
<glyph unicode="&#x2007;" horiz-adv-x="290" />
<glyph unicode="&#x2008;" horiz-adv-x="217" />
<glyph unicode="&#x2009;" horiz-adv-x="348" />
<glyph unicode="&#x200a;" horiz-adv-x="96" />
<glyph unicode="&#x2010;" horiz-adv-x="800" d="M123 509.5q0 22.5 14.5 37t36.5 14.5h453q20 0 35.5 -14.5t15.5 -37t-15.5 -36.5t-35.5 -14h-453q-23 0 -37 14t-14 36.5z" />
<glyph unicode="&#x2011;" horiz-adv-x="800" d="M123 509.5q0 22.5 14.5 37t36.5 14.5h453q20 0 35.5 -14.5t15.5 -37t-15.5 -36.5t-35.5 -14h-453q-23 0 -37 14t-14 36.5z" />
<glyph unicode="&#x2012;" horiz-adv-x="800" d="M123 509.5q0 22.5 14.5 37t36.5 14.5h453q20 0 35.5 -14.5t15.5 -37t-15.5 -36.5t-35.5 -14h-453q-23 0 -37 14t-14 36.5z" />
<glyph unicode="&#x2013;" horiz-adv-x="1081" d="M123 509.5q0 22.5 14.5 37t36.5 14.5h733q23 0 37 -14.5t14 -37t-14 -36.5t-37 -14h-733q-23 0 -37 14t-14 36.5z" />
<glyph unicode="&#x2014;" horiz-adv-x="1456" d="M123 509.5q0 22.5 14.5 37t36.5 14.5h1108q20 0 35.5 -14.5t15.5 -37t-15 -36.5t-36 -14h-1108q-23 0 -37 14t-14 36.5z" />
<glyph unicode="&#x2018;" horiz-adv-x="362" d="M123 909v88q0 162 53 322q23 61 66 61q49 0 49 -47q0 -10 -10 -41q-49 -141 -50 -295v-88q0 -57 -53 -57q-25 0 -40 16t-15 41z" />
<glyph unicode="&#x2019;" horiz-adv-x="362" d="M102 899q0 10 11 41q49 141 49 295v88q0 57 53 57q25 0 40 -16t15 -41v-88q0 -162 -53 -322q-23 -61 -65 -61q-50 0 -50 47z" />
<glyph unicode="&#x201a;" horiz-adv-x="389" d="M86 -295q0 10 10 41q49 141 49 295v88q0 25 15.5 41t40 16t40 -16t15.5 -41v-88q0 -162 -53 -322q-23 -61 -66 -61q-51 0 -51 47z" />
<glyph unicode="&#x201c;" horiz-adv-x="706" d="M123 909v88q0 162 53 322q23 61 66 61q49 0 49 -47q0 -10 -10 -41q-49 -141 -50 -295v-88q0 -57 -53 -57q-25 0 -40 16t-15 41zM467 909v88q0 162 53 322q23 61 66 61q49 0 49 -47q0 -10 -10 -41q-49 -141 -50 -295v-88q0 -57 -53 -57q-25 0 -40 16t-15 41z" />
<glyph unicode="&#x201d;" horiz-adv-x="706" d="M102 899q0 10 11 41q49 141 49 295v88q0 57 53 57q25 0 40 -16t15 -41v-88q0 -162 -53 -322q-23 -61 -65 -61q-50 0 -50 47zM446 899q0 10 11 41q49 141 49 295v88q0 57 53 57q25 0 40 -16t15 -41v-88q0 -162 -53 -322q-23 -61 -65 -61q-50 0 -50 47z" />
<glyph unicode="&#x201e;" horiz-adv-x="731" d="M86 -295q0 10 10 41q49 141 49 295v88q0 57 54 57q25 0 40 -16t15 -41v-88q0 -162 -53 -322q-23 -61 -66 -61q-49 0 -49 47zM430 -295q0 10 10 41q49 141 49 295v88q0 57 54 57q25 0 40 -16t15 -41v-88q0 -162 -53 -322q-23 -61 -66 -61q-49 0 -49 47z" />
<glyph unicode="&#x2022;" horiz-adv-x="667" d="M113 659.5q0 92.5 64.5 157t156.5 64.5t156.5 -64.5t64.5 -157t-64.5 -157t-156.5 -64.5t-156.5 64.5t-64.5 157z" />
<glyph unicode="&#x2026;" horiz-adv-x="1363" d="M143 71.5q0 34.5 25 59.5t59.5 25t59 -25t24.5 -59.5t-24.5 -59t-59 -24.5t-59.5 24.5t-25 59zM598 71.5q0 34.5 24.5 59.5t59.5 25t59.5 -25t24.5 -59.5t-24.5 -59t-59.5 -24.5t-59.5 24.5t-24.5 59zM1053 71.5q0 34.5 24.5 59.5t59 25t59.5 -25t25 -59.5t-25 -59 t-59.5 -24.5t-59 24.5t-24.5 59z" />
<glyph unicode="&#x202f;" horiz-adv-x="348" />
<glyph unicode="&#x2039;" horiz-adv-x="675" d="M102 436.5q0 20.5 19 38.5l321 313q18 14 37 15q23 0 38 -14.5t15 -34.5q0 -25 -20 -43l-281 -275l281 -274q20 -18 20 -43q0 -20 -15 -34.5t-38 -14.5q-18 0 -37 14l-321 313q-19 19 -19 39.5z" />
<glyph unicode="&#x203a;" horiz-adv-x="675" d="M143 119q0 25 21 43l280 274l-280 275q-20 18 -21 43q0 20 15.5 34.5t38.5 14.5q18 0 36 -15l322 -313q18 -18 18 -38.5t-18 -39.5l-322 -313q-18 -14 -36 -14q-23 0 -38.5 14.5t-15.5 34.5z" />
<glyph unicode="&#x205f;" horiz-adv-x="436" />
<glyph unicode="&#x20ac;" horiz-adv-x="1277" d="M82 526.5q0 20.5 14.5 34.5t34.5 14h129q-4 35 -4 107q0 74 4 109h-129q-20 0 -34.5 13t-14.5 33.5t14.5 35t34.5 14.5h141q37 229 159 365.5t319 136.5q248 0 391 -244q14 -23 14 -39q0 -25 -16.5 -40t-38.5 -15q-35 0 -51 32q-57 102 -128 152.5t-171 50.5 q-141 0 -232.5 -108.5t-124.5 -290.5h434q20 0 35 -14.5t15 -35t-14.5 -33.5t-35.5 -13h-448q-4 -70 -4 -109q0 -37 4 -107h448q20 0 35 -14t15 -34.5t-14.5 -34t-35.5 -13.5h-436q35 -184 126 -292.5t233 -108.5q100 0 170.5 50t128.5 153q16 33 51 32q23 0 39 -15t16 -40 q0 -16 -14 -39q-143 -244 -391 -244q-197 0 -319 136.5t-161 367.5h-139q-20 0 -34.5 13.5t-14.5 34z" />
<glyph unicode="&#x2122;" horiz-adv-x="1327" d="M94 1325q0 14 12.5 26.5t26.5 12.5h381q14 0 26.5 -12.5t12.5 -26.5t-12.5 -26.5t-26.5 -12.5h-147v-493q0 -18 -12.5 -30.5t-31 -12.5t-30.5 12t-12 31v493h-148q-14 0 -26.5 12.5t-12.5 26.5zM641 791v536q0 45 41 45q27 0 43 -37l193 -450l192 450q16 37 43 37 q41 0 41 -45v-536q0 -41 -43 -41q-41 0 -41 43v356l-152 -367q-12 -33 -40.5 -32.5t-40.5 32.5l-152 367v-356q0 -43 -41 -43q-43 0 -43 41z" />
<glyph unicode="&#xe000;" horiz-adv-x="905" d="M0 905h905v-905h-905v905z" />
<glyph unicode="&#xfb01;" horiz-adv-x="1050" d="M33 839.5q0 20.5 14 35t35 14.5h131v147q0 166 70.5 247t228.5 81h51q23 0 37 -14.5t14 -37t-14 -36.5t-37 -14h-43q-104 0 -146 -50.5t-42 -171.5v-151h223q20 0 34.5 -14.5t14.5 -35t-14.5 -34.5t-34.5 -14h-223v-748q0 -25 -17.5 -42t-42.5 -17q-27 0 -43 17t-16 42 v748h-131q-20 0 -34.5 14t-14.5 34.5zM758 1159q0 33 22.5 56.5t57 23.5t57.5 -23.5t23 -56.5t-23 -56.5t-57.5 -23.5t-57 23.5t-22.5 56.5zM778 43v803q0 25 17.5 42t42 17t42 -17.5t17.5 -41.5v-803q0 -25 -17.5 -42t-42 -17t-42 17t-17.5 42z" />
<glyph unicode="&#xfb02;" horiz-adv-x="1050" d="M33 839.5q0 20.5 14 35t35 14.5h131v147q0 166 70.5 247t228.5 81h51q23 0 37 -14.5t14 -37t-14 -36.5t-37 -14h-43q-104 0 -146 -50.5t-42 -171.5v-151h223q20 0 34.5 -14.5t14.5 -35t-14.5 -34.5t-34.5 -14h-223v-748q0 -25 -17.5 -42t-42.5 -17q-27 0 -43 17t-16 42 v748h-131q-20 0 -34.5 14t-14.5 34.5zM778 43v1278q0 25 17.5 42t42 17t42 -17t17.5 -42v-1278q0 -25 -17.5 -42t-42 -17t-42 17t-17.5 42z" />
<glyph unicode="&#xfb03;" horiz-adv-x="1675" d="M1382 1159q0 33 23.5 56.5t56.5 23.5t56.5 -23.5t23.5 -56.5t-23.5 -56.5t-56.5 -23.5t-56.5 23.5t-23.5 56.5zM1403 43v803q0 25 17 42t42 17t42 -17.5t17 -41.5v-803q0 -25 -17 -42t-42 -17t-42 17t-17 42zM658 839.5q0 20.5 14 35t35 14.5h131v147q0 166 70.5 247 t228.5 81h51q23 0 37 -14.5t14 -37t-14 -36.5t-37 -14h-43q-104 0 -146 -50.5t-42 -171.5v-151h223q20 0 34.5 -14.5t14.5 -35t-14.5 -34.5t-34.5 -14h-223v-748q0 -25 -17.5 -42t-42.5 -17q-27 0 -43 17t-16 42v748h-131q-20 0 -34.5 14t-14.5 34.5zM33 839.5q0 20.5 14 35 t35 14.5h131v147q0 166 70.5 247t228.5 81h51q23 0 37 -14.5t14 -37t-14 -36.5t-37 -14h-43q-104 0 -146 -50.5t-42 -171.5v-151h223q20 0 34.5 -14.5t14.5 -35t-14.5 -34.5t-34.5 -14h-223v-748q0 -25 -17.5 -42t-42.5 -17q-27 0 -43 17t-16 42v748h-131q-20 0 -34.5 14 t-14.5 34.5z" />
<glyph unicode="&#xfb04;" horiz-adv-x="1675" d="M1403 43v1278q0 25 17 42t42 17t42 -17t17 -42v-1278q0 -25 -17 -42t-42 -17t-42 17t-17 42zM658 839.5q0 20.5 14 35t35 14.5h131v147q0 166 70.5 247t228.5 81h51q23 0 37 -14.5t14 -37t-14 -36.5t-37 -14h-43q-104 0 -146 -50.5t-42 -171.5v-151h223q20 0 34.5 -14.5 t14.5 -35t-14.5 -34.5t-34.5 -14h-223v-748q0 -25 -17.5 -42t-42.5 -17q-27 0 -43 17t-16 42v748h-131q-20 0 -34.5 14t-14.5 34.5zM33 839.5q0 20.5 14 35t35 14.5h131v147q0 166 70.5 247t228.5 81h51q23 0 37 -14.5t14 -37t-14 -36.5t-37 -14h-43q-104 0 -146 -50.5 t-42 -171.5v-151h223q20 0 34.5 -14.5t14.5 -35t-14.5 -34.5t-34.5 -14h-223v-748q0 -25 -17.5 -42t-42.5 -17q-27 0 -43 17t-16 42v748h-131q-20 0 -34.5 14t-14.5 34.5z" />
</font>
</defs>
</svg>
