<?xml version="1.0" standalone="no"?>
<!DOCTYPE svg PUBLIC "-//W3C//DTD SVG 1.1//EN" "http://www.w3.org/Graphics/SVG/1.1/DTD/svg11.dtd" >
<svg xmlns="http://www.w3.org/2000/svg">
<metadata>
This is a custom SVG webfont generated by Font Squirrel.
Copyright   :  1987 1991 1995 1998 2001 2002 Adobe Systems Incorporated All rights reserved
Designer    : Oswald Bruce Cooper
Foundry     : Adobe Systems Incorporated
Foundry URL : httpwwwadobecomtype
</metadata>
<defs>
<font id="CooperStdBlack" horiz-adv-x="1290" >
<font-face units-per-em="2048" ascent="1436" descent="-612" />
<missing-glyph horiz-adv-x="645" />
<glyph unicode=" "  horiz-adv-x="645" />
<glyph unicode="&#x09;" horiz-adv-x="645" />
<glyph unicode="&#xa0;" horiz-adv-x="645" />
<glyph unicode="!" horiz-adv-x="663" d="M86 1151q0 127 62.5 220t183.5 93t183.5 -93t62.5 -220q0 -188 -105 -393q-25 -53 -66.5 -112.5t-74.5 -59.5t-75 59.5t-67 112.5q-104 205 -104 393zM104 198.5q0 94.5 67 161t161 66.5t160.5 -66.5t66.5 -161t-66.5 -161t-160.5 -66.5t-161 66.5t-67 161z" />
<glyph unicode="&#x22;" horiz-adv-x="1202" d="M100 1182q0 115 56.5 198.5t165.5 83.5q111 0 166 -84t55 -198q0 -188 -92 -357q-90 -152 -129 -151q-47 0 -127 151q-95 171 -95 357zM659 1182q0 115 56.5 198.5t165.5 83.5q111 0 166 -84t55 -198q0 -188 -92 -357q-90 -152 -129 -151q-47 0 -127 151q-95 171 -95 357 z" />
<glyph unicode="#" d="M217 414v78q0 39 39 38h115q35 0 43 39l10 76q2 16 -7 27.5t-24 11.5h-92q-39 0 -39 39v78q0 39 39 39h115q35 0 43 39l37 274q6 39 45 39h77q16 0 25.5 -12.5t7.5 -26.5l-41 -276q-2 -14 6.5 -25.5t24.5 -11.5h72q35 0 43 39l39 274q6 39 45 39h78q16 0 25 -12.5 t7 -26.5l-39 -276q-2 -14 6.5 -25.5t24.5 -11.5h92q39 0 39 -39v-78q0 -39 -39 -39h-114q-14 0 -26.5 -11t-14.5 -28l-11 -78q-2 -14 6.5 -25.5t24.5 -11.5h92q39 0 39 -38v-78q0 -39 -39 -39h-119q-14 0 -26 -11.5t-15 -27.5l-38 -297q-6 -39 -45 -39h-78q-16 0 -25.5 12.5 t-7.5 26.5l41 297q2 16 -7 27.5t-24 11.5h-74q-14 0 -26 -11.5t-15 -27.5l-40 -297q-6 -39 -46 -39h-77q-16 0 -25.5 12.5t-7.5 26.5l43 297q2 16 -7.5 27.5t-23.5 11.5h-92q-39 0 -39 39zM569 567q-2 -14 6.5 -25.5t24.5 -11.5h70q35 0 43 39l10 76q2 16 -7 27.5t-24 11.5 h-71q-14 0 -26.5 -11t-14.5 -28z" />
<glyph unicode="$" d="M70 350q0 39 18 67.5t55 28.5q39 0 68 -29.5t54.5 -71.5t59 -84t97 -71.5t151.5 -29.5q47 0 98.5 21.5t51.5 66.5q0 47 -37 70.5t-203 82.5q-164 57 -272.5 161t-108.5 255q0 150 105.5 263.5t255.5 144.5q10 2 16 3t11.5 4t8.5 4t5 5l3 6q1 2 2 9.5t1 10.5v13v16 q0 74 14.5 86.5t91.5 12.5h32h28q6 0 19.5 -1t16.5 -5.5t10 -10.5t8 -16t3 -23.5t2 -33.5q0 -4 -1 -17.5t0 -20.5t3 -16.5t8.5 -15.5t16.5 -8q12 -2 73.5 -16.5t67.5 -14.5q10 0 41 10.5t51 10.5q59 0 128 -96.5t69 -188.5q0 -53 -28.5 -88t-80.5 -35q-37 0 -79.5 32.5 t-79.5 70.5t-96.5 71t-122.5 33q-47 0 -79 -23.5t-32 -70.5q0 -39 35 -67t89 -46t120.5 -37.5t134 -48.5t122 -71t89.5 -113.5t35 -167.5q0 -94 -47.5 -176t-118 -133.5t-143 -81t-132.5 -33.5q-31 -2 -37 -12.5t-6 -43.5v-14q0 -74 -14 -86t-92 -12h-32h-28q-6 0 -19 1 t-16.5 5t-10.5 10t-8 16.5t-3 23.5t-2 34q0 6 1 16.5t1 16.5t-2 15t-5 14.5t-9.5 9.5t-16.5 4q-215 29 -297 88q-49 37 -80.5 140t-31.5 177z" />
<glyph unicode="%" horiz-adv-x="1744" d="M29 1065q0 184 134 287.5t322 103.5q141 0 257 -103.5t116 -242.5q0 -168 -136 -275.5t-308 -107.5q-160 0 -272.5 91t-112.5 247zM342 1214q0 -18 6 -62t20.5 -101.5t42 -99.5t62.5 -42q59 0 59 82q0 86 -32.5 193.5t-96.5 107.5q-29 0 -45 -24.5t-16 -53.5zM377 43 q0 18 6 32.5t26.5 45.5t50 73t88 137t128.5 214l477 829q25 51 49.5 70.5t75.5 19.5q96 0 96 -47q0 -18 -7 -35.5t-28.5 -51.5t-48 -73.5t-77 -120.5t-105.5 -175l-389 -664q-37 -63 -70 -125.5t-46 -90.5t-29.5 -52.5t-33 -31.5t-42.5 -7q-37 0 -79 12t-42 41zM887 330 q0 182 134 286.5t322 104.5q139 0 256 -104.5t117 -241.5q0 -168 -136 -275.5t-308 -107.5q-160 0 -272.5 90t-112.5 248zM1200 479q0 -18 6 -62t20.5 -101.5t42 -99.5t62.5 -42q59 0 60 82q0 86 -33 193.5t-96 107.5q-29 0 -45.5 -24.5t-16.5 -53.5z" />
<glyph unicode="&#x26;" horiz-adv-x="1869" d="M29 549q0 72 23.5 129t56 91t65.5 56.5t56.5 38t23.5 25.5q0 4 -37 83t-37 134q0 164 156 274.5t354 110.5q70 0 146.5 -16.5t145.5 -64.5t69 -118q0 -43 -36 -80.5t-81 -37.5q-27 0 -90.5 43t-116.5 43q-55 0 -90 -42t-35 -100q0 -68 35 -97.5t77 -28.5t76.5 -16.5 t34.5 -64.5q0 -82 -36.5 -117.5t-81.5 -36.5t-82 -25.5t-37 -86.5q0 -158 124 -291t281 -133q115 0 213.5 68.5t98.5 179.5q0 53 -40 89t-98 36q-43 0 -76.5 -23.5t-49 -53.5t-36 -53.5t-40.5 -23.5q-43 0 -68 49.5t-25 96.5q0 115 57.5 197.5t140.5 125.5t166 75 t140.5 67.5t57.5 81.5q0 23 -14.5 39t-35.5 16q-8 0 -24.5 -7t-28.5 -7q-16 0 -29.5 13t-13.5 32q0 76 94.5 120.5t178.5 44.5q125 0 217 -71.5t92 -192.5q0 -88 -48 -160.5t-104.5 -109.5t-104.5 -69.5t-48 -51t23.5 -39t53 -39t53 -62.5t23.5 -106q0 -84 -56 -172 t-158.5 -164.5t-270.5 -126t-367 -49.5q-385 0 -611 172.5t-226 405.5z" />
<glyph unicode="'" horiz-adv-x="645" d="M100 1182q0 115 56.5 198.5t165.5 83.5q111 0 166 -84t55 -198q0 -188 -92 -357q-90 -152 -129 -151q-47 0 -127 151q-95 171 -95 357z" />
<glyph unicode="(" horiz-adv-x="1073" d="M143 717q0 166 41 324.5t119 297t213 223.5t307 85q137 0 183.5 -29t46.5 -78q0 -43 -19.5 -72.5t-58.5 -29.5q-43 0 -77 5t-38 5q-86 0 -144.5 -86t-84 -219t-34.5 -234.5t-9 -191.5t9 -191.5t34.5 -234.5t84 -219t144.5 -86q4 0 38 5t77 5q39 0 58.5 -29.5t19.5 -72.5 q0 -49 -46 -78t-184 -29q-172 0 -307 85t-213 223t-119 297t-41 325z" />
<glyph unicode=")" horiz-adv-x="1073" d="M20 -106q0 43 19.5 72.5t58.5 29.5q43 0 77 -5t38 -5q86 0 144.5 86t84 219t34.5 234.5t9 191.5t-9 191.5t-34.5 234.5t-84 219t-144.5 86q-4 0 -38 -5t-77 -5q-39 0 -58.5 29.5t-19.5 72.5q0 49 46.5 78t183.5 29q172 0 307 -85t213 -223.5t119 -297t41 -324.5t-41 -325 t-119 -297t-213 -223t-307 -85q-137 0 -183.5 29t-46.5 78z" />
<glyph unicode="*" horiz-adv-x="1552" d="M375 1137q0 33 25.5 94t56.5 61q37 0 111.5 -36.5t84.5 -36.5q20 0 21 53q0 10 -1 22.5t-1 14.5v86q2 70 86 69q39 0 58.5 -2t42 -17t22.5 -48q0 -20 -7.5 -82t-7.5 -92q0 -20 19 -21q4 0 13 2t20.5 6t13.5 4l82 29q76 20 80 21q33 0 53 -43t25.5 -76t5.5 -45 q0 -33 -36 -51.5t-78 -22.5t-78 -13t-36 -28q0 -4 63.5 -88t63.5 -115q0 -27 -64.5 -73.5t-90.5 -46.5q-29 0 -85.5 103t-74.5 103q-12 0 -88 -93t-105 -93q-27 0 -82 48t-55 79q0 43 75 115.5t75 85.5q0 14 -33 26.5t-71 20.5t-70.5 28.5t-32.5 51.5z" />
<glyph unicode="+" d="M150 524q0 45 5 69.5t23.5 35t32.5 12.5t53 2h19h139q86 0 96 10q8 8 8 95v139v18q0 37 2 52.5t12.5 34t35 23.5t69.5 5t69.5 -5t35 -23.5t12.5 -33t2 -53.5v-18v-139q0 -82 10 -95q8 -10 94 -10h140h18q37 0 52.5 -2t33.5 -12.5t23.5 -35t5.5 -69.5t-5.5 -69.5 t-23.5 -34.5t-32.5 -12t-53.5 -2h-18h-140q-86 0 -94 -9q-10 -10 -10 -96v-139v-19q0 -37 -2 -52t-12.5 -33.5t-35 -23.5t-69.5 -5t-69.5 5t-35 23.5t-12.5 32.5t-2 53v19v139q0 90 -8 96q-10 8 -96 9h-139h-19q-37 0 -52 2t-33.5 12t-23.5 34.5t-5 69.5z" />
<glyph unicode="," horiz-adv-x="645" d="M66 233q0 100 70.5 174t168.5 74q131 0 202 -103.5t71 -240.5q0 -94 -37 -213t-105.5 -211t-144.5 -92q-35 0 -69 23.5t-34 56.5q0 12 51.5 102.5t51.5 137.5q0 29 -35 49t-78 36.5t-77.5 69.5t-34.5 137z" />
<glyph unicode="-" horiz-adv-x="612" d="M0 414q0 35 31.5 126t50.5 128q20 41 44 57t67 16q25 0 74.5 -8t74.5 -8q61 0 104 1t60.5 3t29 3t15.5 1q25 0 43 -17.5t18 -43.5q0 -35 -31.5 -126t-50.5 -128q-20 -41 -43.5 -57.5t-66.5 -16.5q-25 0 -75 8t-75 8q-61 0 -104 -1t-60.5 -3t-28.5 -3t-16 -1 q-25 0 -43 17.5t-18 44.5z" />
<glyph unicode="." horiz-adv-x="645" d="M74 219.5q0 102.5 72.5 175t175 72.5t175 -72.5t72.5 -175t-72.5 -175.5t-175 -73t-175 73t-72.5 175.5z" />
<glyph unicode="/" horiz-adv-x="1015" d="M-43 -227q0 20 27.5 73.5t86 159t103.5 195.5l510 1046q16 33 34.5 75t26 56.5t20.5 31.5t30.5 21.5t44.5 4.5q176 0 176 -76q0 -20 -27.5 -73.5t-86 -159t-103.5 -195.5l-510 -1047q-16 -33 -34.5 -74.5t-26 -56t-20.5 -32t-30.5 -21.5t-44.5 -4q-176 0 -176 76z" />
<glyph unicode="0" d="M53 600q0 266 153.5 436t418.5 170q256 0 434 -186t178 -445q0 -145 -55.5 -263.5t-143.5 -190.5t-190.5 -111t-206.5 -39q-260 0 -424 183.5t-164 445.5zM512 737q0 -43 8 -111.5t25.5 -151.5t53.5 -140.5t83 -57.5q96 0 96 168q0 47 -8 115t-24.5 148.5t-52.5 137 t-83 56.5q-98 0 -98 -164z" />
<glyph unicode="1" d="M84 123q0 35 27.5 58.5t64.5 23.5q16 0 53 -6t54 -6q61 0 86.5 59t25.5 229v279q0 76 -18.5 102.5t-89.5 26.5q-14 0 -39 -2t-37 -2q-35 0 -58.5 17.5t-23.5 49.5q0 68 129 128.5t304 93t331 32.5q170 0 170 -92q0 -33 -23.5 -51.5t-52.5 -25.5t-52.5 -43t-25.5 -101 q-4 -217 -4 -246q0 -254 19 -350q12 -61 57 -85t91 -20.5t83 -13t37 -65.5q0 -33 -20.5 -55.5t-42 -32t-60.5 -17.5q-174 -37 -414 -37q-29 0 -68.5 2t-110 6.5t-134 14.5t-124 26.5t-97.5 43t-37 59.5z" />
<glyph unicode="2" d="M18 53q0 27 19.5 50.5t130.5 127.5q123 115 237.5 260.5t114.5 239.5q0 53 -30.5 85t-83.5 32q-66 0 -133.5 -59.5t-110.5 -59.5q-47 0 -90 37t-43 82q0 86 106.5 171t255 136t275.5 51q244 0 366.5 -94t122.5 -227q0 -74 -36 -145.5t-86 -126t-100 -100.5t-86 -83 t-36 -59q0 -33 27.5 -52.5t62.5 -19.5q63 0 110.5 30.5t80 61.5t59.5 31q51 0 71.5 -47t20.5 -107q0 -158 -79 -262t-150 -104q-31 0 -46.5 10t-20.5 24.5t-14 29t-39 24.5t-81 10h-676q-119 0 -119 53z" />
<glyph unicode="3" d="M-4 -49q0 49 32.5 79.5t82.5 30.5q20 0 100 -18t154 -18q106 0 190 53t84 143q0 84 -64.5 128t-152.5 44q-45 0 -96 -10l-52 -10q-33 0 -59.5 61.5t-26.5 100.5q0 27 43 50t94.5 41.5t94.5 63.5t43 111q0 55 -49 96t-111 41q-57 0 -127 -36t-80 -36q-29 0 -51 40t-22 75 q0 80 172 152.5t354 72.5q72 0 149.5 -12t160.5 -40t136.5 -84t53.5 -132q0 -59 -24 -107.5t-53.5 -72t-53 -45t-23.5 -35.5q0 -18 36 -30.5t86 -28t100 -43t86 -94t36 -167.5q0 -215 -200.5 -373.5t-579.5 -158.5q-53 0 -118 6t-150 21.5t-140 52.5t-55 88z" />
<glyph unicode="4" d="M25 193q0 113 34.5 181t173.5 236l474 545q137 131 297 131q45 0 66.5 -21.5t25.5 -45t4 -70.5v-678q0 -61 12 -72q12 -10 47 -10q53 0 65.5 -13.5t12.5 -70.5v-164q0 -31 -1 -44t-14.5 -27.5t-39.5 -16.5q-45 -4 -51.5 -19.5t-6.5 -101.5q0 -12 1 -40.5t0 -35t-5 -22.5 t-13 -20t-25.5 -8.5t-43.5 -4.5h-309h-29q-12 0 -21 3t-15.5 4.5t-10.5 9.5t-6 11t-3 16.5t-1 20.5v26v32q0 92 -10 109q-16 25 -90 24h-359q-88 0 -123.5 26t-35.5 110zM299 406q2 -45 150 -46h63q109 0 126 15.5t17 113.5q0 16 3.5 62.5t3.5 79.5t-3.5 69.5t-16.5 56 t-36 17.5q-51 -6 -92 -63q-8 -10 -68.5 -81t-103.5 -133t-43 -91z" />
<glyph unicode="5" d="M68 461q0 121 137 489q37 98 57.5 146.5t48 71t42 23.5t65.5 1h698q61 0 78.5 -14.5t17.5 -75.5q0 -94 -48 -186.5t-148 -92.5h-430q-27 0 -38 -1t-30.5 -6t-28 -19.5t-8.5 -36.5q0 -10 3 -18.5t10.5 -13.5l13.5 -9t18.5 -6t19.5 -3t21.5 -2t18.5 -1q188 -20 321 -71.5 t197.5 -117t91.5 -125t27 -121.5q0 -203 -211 -349t-535 -146q-393 0 -393 166q0 33 14.5 74.5t42.5 41.5q2 0 40 -10t92.5 -20.5t99.5 -10.5q78 0 138 34t60 106q0 150 -297 202q-6 0 -33.5 4.5t-45 6.5t-44 10t-43 17.5t-28.5 26t-12 36.5z" />
<glyph unicode="6" d="M37 584q0 119 56.5 262t133 255.5t156.5 189.5t127 77q43 6 167 -37t124 -84q0 -23 -53 -82q-143 -160 -144 -245q0 -39 33 -39q8 0 92 27.5t150 27.5q162 0 276.5 -119t114.5 -282q0 -223 -167 -393.5t-435 -170.5q-279 0 -455 174.5t-176 438.5zM537 512q0 -74 59 -165 t127 -91q43 0 69.5 25.5t26.5 68.5q0 88 -51 188.5t-133 100.5q-49 0 -73.5 -37t-24.5 -90z" />
<glyph unicode="7" d="M39 903q0 143 55.5 244.5t128.5 101.5q27 0 88.5 -28.5t175.5 -28.5h627q37 0 58.5 -3t44 -21.5t22.5 -53.5q0 -23 -16 -72l-412 -1245q-10 -33 -16.5 -43t-30 -18t-72.5 -8q-102 0 -180 22.5t-108.5 48t-30.5 43.5q0 14 20 49l369 705q55 111 55 139q0 16 -9 28.5 t-28.5 20t-37 12.5t-47 6t-45.5 1h-43h-32q-113 0 -178 -13.5t-84.5 -32t-29 -37t-27.5 -31.5t-63 -13q-57 0 -93.5 38t-48.5 86t-12 103z" />
<glyph unicode="8" d="M23 385q0 66 26.5 117t59 75.5t59.5 47t27 34.5q0 10 -21.5 34t-48.5 52.5t-48.5 81t-21.5 111.5q0 182 167 287.5t399 105.5q90 0 186 -14t201.5 -48t172 -104.5t66.5 -167.5q0 -59 -27.5 -106t-61.5 -70.5t-61.5 -44t-27.5 -33.5q0 -14 49 -49q68 -47 109 -122.5 t41 -157.5q0 -68 -32 -140.5t-95.5 -142.5t-183 -115t-273.5 -45q-102 0 -209.5 21.5t-213 65.5t-172 129t-66.5 198zM373 430q0 -98 77.5 -172t178.5 -74q59 0 101 24.5t42 80.5q0 18 -4 33.5t-14.5 29t-16.5 21.5t-24.5 19t-25.5 15.5t-30 15.5l-26 13q-145 76 -205 76 q-53 0 -53 -82zM567 1057q0 -53 80 -113.5t135 -60.5q33 0 52.5 41t19.5 77q0 68 -54.5 102t-123.5 34q-41 0 -75 -21.5t-34 -58.5z" />
<glyph unicode="9" d="M27 729q0 156 93 267.5t227 160.5t286 49q162 0 298 -50t228 -167t92 -280q0 -305 -239 -631q-76 -102 -198 -225t-193 -123q-51 0 -159 51t-108 92q0 29 45 51q72 39 137.5 129t65.5 152q0 39 -43 39q-16 0 -49 -3t-49 -3q-207 0 -320.5 148t-113.5 343zM518 772 q0 -92 48 -178t130 -86q45 0 71 33.5t26 81.5q0 49 -16.5 111.5t-57.5 116.5t-96 54q-47 0 -76 -41t-29 -92z" />
<glyph unicode=":" horiz-adv-x="645" d="M74 219.5q0 102.5 72.5 175t175 72.5t175 -72.5t72.5 -175t-72.5 -175.5t-175 -73t-175 73t-72.5 175.5zM74 827.5q0 102.5 72.5 175t175 72.5t175 -72.5t72.5 -175t-72.5 -175t-175 -72.5t-175 72.5t-72.5 175z" />
<glyph unicode=";" horiz-adv-x="645" d="M66 233q0 100 70.5 174t168.5 74q131 0 202 -103.5t71 -240.5q0 -94 -37 -213t-105.5 -211t-144.5 -92q-35 0 -69 23.5t-34 56.5q0 12 51.5 102.5t51.5 137.5q0 29 -35 49t-78 36.5t-77.5 69.5t-34.5 137zM66 827.5q0 102.5 72.5 175t175 72.5t175 -72.5t72.5 -175 t-72.5 -175t-175 -72.5t-175 72.5t-72.5 175z" />
<glyph unicode="&#x3c;" d="M150 524q0 4 1 16.5t1 18.5t1 18.5t4 18.5t6 14t8 14.5t13 8.5l838 364q59 23 78 23q20 0 30.5 -34t10.5 -66v-64q0 -39 -15.5 -59.5t-62.5 -38.5l-537 -234l537 -233q47 -18 62.5 -39t15.5 -57v-66q0 -33 -10.5 -66.5t-30.5 -33.5q-18 0 -78 22l-838 365q-8 2 -13 8 t-8 14t-6 14.5t-4 18.5t-1 18.5t-1 18.5t-1 16z" />
<glyph unicode="=" d="M150 324q0 45 5 69.5t23.5 34.5t32.5 12t53 2h19h725h18q37 0 52.5 -2t33.5 -12t23.5 -34.5t5.5 -69.5t-5.5 -70t-23.5 -35t-32.5 -12t-53.5 -2h-18h-725h-19q-37 0 -52 2t-33.5 12t-23.5 35t-5 70zM150 725q0 45 5 69.5t23.5 35t32.5 12.5t53 2h19h725h18q37 0 52.5 -2 t33.5 -12.5t23.5 -35t5.5 -69.5t-5.5 -69.5t-23.5 -35t-32.5 -12.5t-53.5 -2h-18h-725h-19q-37 0 -52 2t-33.5 12.5t-23.5 35t-5 69.5z" />
<glyph unicode="&#x3e;" d="M150 129v64q0 39 15 59t62 39l537 233l-537 234q-47 18 -62 38.5t-15 57.5v66q0 33 10 66.5t30 33.5q18 0 78 -23l838 -364q8 -2 13 -8.5t8 -14.5t6.5 -14t4.5 -18.5t1 -18.5t1 -18.5t1 -16.5t-1 -16t-1 -18.5t-1 -18.5t-4.5 -18.5t-6.5 -14.5t-8 -14t-13 -8l-838 -365 q-59 -23 -78 -22q-20 0 -30 33.5t-10 66.5z" />
<glyph unicode="?" horiz-adv-x="1036" d="M14 1075q0 145 136.5 267t359.5 122q111 0 225.5 -44t197.5 -135t83 -206q0 -195 -230 -280q-57 -23 -90.5 -55.5t-45 -63.5t-25 -58.5t-43 -44t-84.5 -16.5q-63 0 -100.5 36t-37.5 99q0 86 88.5 220.5t88.5 222.5q0 39 -17.5 71.5t-54.5 32.5q-27 0 -42 -18.5 t-18.5 -33.5t-5.5 -46q-10 -102 -70.5 -160.5t-160.5 -58.5q-66 0 -110 41.5t-44 107.5zM254 198.5q0 94.5 66.5 161t160.5 66.5t161 -66.5t67 -161t-67 -161t-161 -66.5t-160.5 66.5t-66.5 161z" />
<glyph unicode="@" horiz-adv-x="1552" d="M53 702q37 322 268.5 542t548.5 220q94 0 188.5 -24.5t179.5 -75.5t147.5 -120.5t95 -167t22.5 -208.5q-23 -258 -199 -406.5t-421 -148.5q-45 0 -64.5 19.5t-18.5 43t-2 43t-18 19.5q-12 0 -49 -32.5t-97.5 -66.5t-125.5 -34q-88 0 -135 65.5t-37 174.5 q18 209 169.5 370.5t297.5 161.5q53 0 104 -30.5t66 -30.5q6 0 71.5 30.5t114.5 30.5q33 0 44 -12t11 -43q0 -41 -38 -193l-5 -20q-6 -20 -9 -33.5t-10 -41t-10 -47t-7.5 -46.5t-4.5 -44t1.5 -34.5t7.5 -26t16 -8.5q8 0 24.5 8.5t41 32t48 57t44 91t28.5 127.5 q8 72 -14 150.5t-75.5 153.5t-162 123t-251.5 48q-244 0 -430.5 -170t-204.5 -432q-18 -272 152.5 -436t441.5 -164q92 0 181 33.5t142.5 74.5t95 75t50.5 34q25 0 52.5 -32t24.5 -52q-2 -16 -77.5 -80t-223 -131.5t-297.5 -67.5q-322 0 -525.5 207t-166.5 524zM676 596 q-6 -57 31 -57q41 0 115.5 121.5t82.5 207.5q4 49 -24 50q-43 0 -119 -106.5t-86 -215.5z" />
<glyph unicode="A" horiz-adv-x="1779" d="M0 98q0 41 28.5 60.5t73.5 36t68 45.5q37 47 119 219l129 280q47 106 69.5 159.5t50 152t27.5 172.5q0 248 248 247q63 0 119.5 -27.5t104.5 -82.5t78 -97t69 -110q29 -49 197.5 -392t220.5 -462q23 -51 56.5 -76.5t59 -27.5t44 -18.5t18.5 -55.5q0 -35 -19.5 -61.5 t-62.5 -42t-75 -24.5t-92.5 -12.5t-77.5 -3.5h-67q-262 0 -365 21.5t-103 107.5q0 33 19 52.5t43 24.5t43 18.5t19 38.5q0 68 -64.5 84t-315.5 16q-94 0 -132 -17.5t-38 -86.5q0 -27 20 -40.5t45 -16.5t45.5 -22.5t20.5 -54.5q0 -125 -304 -125q-139 0 -212.5 18.5t-90 41 t-16.5 61.5zM621 620.5q0 -8.5 3 -13.5t8 -8t10 -5t13 -2h14h14h11h154q82 0 82 26q0 33 -76 166q0 2 -10 18.5t-14.5 25t-14.5 23.5t-18.5 22.5t-19.5 13.5t-21 6q-12 0 -23.5 -10.5t-21 -22.5t-18.5 -31.5t-13 -33t-10 -29.5l-6 -18q-43 -119 -43 -127.5z" />
<glyph unicode="B" horiz-adv-x="1544" d="M29 98q0 35 13 50.5t33.5 26.5t41 30.5t37 78t20.5 152.5l23 590q1 17 0 33q0 63 -13 103q-16 50 -40.5 66.5t-49 25t-43 25.5t-18.5 56q0 53 46 84t101 31l228 -6q152 -8 227 -8q49 0 143 8q141 6 144 6q256 0 363.5 -97.5t107.5 -238.5q0 -164 -113 -254 q-37 -33 -37 -55q0 -12 8.5 -22.5t12.5 -12.5t22 -10q82 -33 156 -116t74 -198q0 -82 -29 -158.5t-90.5 -145t-172 -110.5t-257.5 -42q-102 0 -195 6q-123 4 -186 4q-72 0 -211 -4q-104 -6 -211 -6q-53 0 -94 28.5t-41 79.5zM684 451q0 -113 14.5 -168.5t32 -65.5t55.5 -10 q158 0 158 186q0 236 -180 236q-45 0 -61.5 -19.5t-18.5 -56.5v-102zM684 950q0 -88 14 -104q14 -14 45 -15q86 0 119 52.5t33 146.5q0 84 -34 145.5t-109 61.5q-12 0 -22.5 -2t-16.5 -7t-12.5 -9.5t-8.5 -13.5t-4 -14t-3 -17.5t-1 -17.5v-20v-20v-166z" />
<glyph unicode="C" horiz-adv-x="1548" d="M49 723q0 203 116 376t299 269t384 96q88 0 171 -25.5t138 -50t74 -24.5q25 0 50.5 7t41.5 7q72 0 134.5 -98t62.5 -258q0 -92 -51.5 -153.5t-139.5 -61.5q-57 0 -99 37t-73 90t-68.5 107.5t-109.5 91t-172 36.5q-109 0 -166 -80.5t-57 -179.5q0 -238 120.5 -399.5 t327.5 -161.5q88 0 156.5 22.5t99.5 48t59.5 48t47.5 22.5q41 0 64.5 -37.5t23.5 -82.5q0 -78 -62.5 -178.5t-134.5 -100.5q-25 0 -89 -29.5t-161.5 -59.5t-204.5 -30q-322 0 -552 221.5t-230 530.5z" />
<glyph unicode="D" horiz-adv-x="1726" d="M29 106q0 35 12 52.5t29.5 20.5t39 12.5t40 24.5t32 59t15.5 114l16 711v11q0 63 -22 96q-24 36 -52 42t-52 27.5t-24 64.5q0 109 191 109h668q205 0 356.5 -59.5t236 -164t123.5 -228.5t39 -269q0 -147 -44 -277t-131 -234.5t-232.5 -166t-333.5 -61.5q-129 0 -225 6 q-127 4 -176 4q-59 0 -175 -4q-86 -6 -174 -6q-59 0 -108 29.5t-49 86.5zM705 350q0 -84 23.5 -115.5t102.5 -31.5q303 0 304 469q0 172 -30 287.5t-82 171t-105.5 76t-120.5 20.5q-59 0 -75.5 -23.5t-16.5 -89.5v-764z" />
<glyph unicode="E" horiz-adv-x="1486" d="M29 1331q0 27 9 45.5t27.5 29.5t36 18.5t48 9.5t47 3t48 0t40.5 -1h589q121 0 199 10t109.5 20.5t38.5 10.5q78 0 121.5 -100.5t43.5 -190.5q0 -59 -25.5 -103.5t-80.5 -44.5q-43 0 -66.5 20.5t-40 49.5t-43 57.5t-94 49t-176.5 20.5q-53 0 -87 -3t-58.5 -12.5 t-34.5 -24.5t-18.5 -40t-6.5 -58q1 -17 1 -37.5t-1 -43.5v-58q0 -88 18.5 -105t112.5 -17q51 0 74 35.5t23 77.5t19.5 78t68.5 36q127 0 127 -311q0 -43 -5.5 -89.5t-17.5 -105.5t-41.5 -97t-72.5 -38q-41 0 -56.5 33.5t-16.5 73.5t-33 74t-101 34q-31 0 -49.5 -11.5 t-25.5 -38t-8 -43t-1 -50.5q0 -78 1 -121t12 -79t18.5 -50.5t39 -24.5t54.5 -10h82h28q98 0 168 21.5t102.5 53t58.5 69.5t38 70t37.5 53.5t64.5 21.5q45 0 72 -41t27 -90q0 -109 -67 -249.5t-126 -140.5q-4 0 -90 13q-113 10 -172 10h-842q-47 0 -77.5 9t-42 25.5t-14.5 28 t-3 25.5q0 37 22.5 55.5t49 25.5t52 46t30.5 113q20 308 19 363q0 73 -13 343q-4 86 -23.5 136.5t-43 63.5t-47.5 19.5t-40 22.5t-16 55z" />
<glyph unicode="F" horiz-adv-x="1423" d="M29 113q0 39 18.5 59.5t42 27.5t51 27.5t41.5 55.5q27 74 27 270v285q1 59 1 108q0 124 -7 187q-8 59 -35 89.5t-53.5 37t-48 25t-21.5 54.5q0 53 49 82t107 29q12 0 251.5 -10t340.5 -10q23 0 246 10t235 10q59 0 111.5 -97.5t52.5 -203.5q0 -57 -28 -99t-83 -42 q-37 0 -62.5 21.5t-48 53t-57.5 62.5t-109.5 52.5t-183.5 21.5q-94 0 -121 -19q-55 -51 -57 -268q0 -18 2 -27.5t13.5 -22t37 -17.5t68.5 -5q53 0 77.5 30t28 64.5t26 64.5t69.5 30q125 0 125 -304q0 -344 -150 -344q-35 0 -50 24t-19.5 57.5t-12.5 68.5t-40 58.5t-93 23.5 q-57 0 -68.5 -23.5t-11.5 -136.5v-67v-18q0 -60 12 -98q14 -44 36 -59.5t48.5 -25.5t49 -13.5t38 -21.5t15.5 -55q0 -25 -1 -34t-24.5 -33.5t-69.5 -36t-144.5 -23t-239.5 -11.5q-160 0 -245 16.5t-110.5 43.5t-25.5 76z" />
<glyph unicode="G" horiz-adv-x="1708" d="M49 725q0 319 235.5 529t569.5 210q106 0 214 -27.5t118 -27.5q18 0 63 15.5t64 15.5q86 0 144.5 -109.5t58.5 -204.5q0 -82 -42 -142t-120 -60q-55 0 -100.5 29.5t-78 70.5t-69.5 83t-96.5 71.5t-137.5 29.5q-133 0 -212.5 -100t-79.5 -264q0 -150 39.5 -266.5t100 -180 t122 -95.5t115 -32t89 36t35.5 91q0 57 -33 76q-26 14 -57 15q-8 0 -17 -2q-7 -1 -15 -1q-32 0 -59 19q-34 23 -34 86q0 51 47.5 87t124 50t131 18.5t111.5 4.5q135 0 224 -16.5t125 -46.5t47.5 -53.5t11.5 -51.5q0 -39 -28 -66t-67 -33q-39 -4 -49 -15t-22 -54 q-57 -213 -242.5 -328t-417.5 -115q-217 0 -402.5 92.5t-298 267.5t-112.5 394z" />
<glyph unicode="H" horiz-adv-x="1724" d="M29 125q0 55 65 86q47 23 61.5 41t27 112.5t12.5 303.5v160q0 65 -4 123q-2 44 -2 73v17q1 32 -6 63t-6 42t-11 25.5t-13 15.5t-20 10l-22 11q-23 12 -33 18.5t-22.5 23t-12.5 34.5q0 55 52 93t135 53.5t146.5 21.5t123.5 6q45 0 89 -4t102.5 -16.5t95 -41t36.5 -71.5 q0 -31 -12 -52.5t-26.5 -32.5t-43.5 -30q-39 -23 -51 -62.5t-12 -172.5q0 -20 3 -36.5t6 -28t13.5 -18.5t15.5 -10t22.5 -5.5t24.5 -2.5h32h34h105q66 0 94.5 9.5t32.5 23t4 51.5q0 102 -11.5 161t-21.5 70t-28 21q-29 16 -39.5 23.5t-23.5 27t-13 44.5v21q0 7 7 25.5 t21.5 30t43 27.5t69.5 25.5t107.5 16.5t150.5 7q369 0 369 -145q0 -63 -64 -96q-39 -16 -51 -31t-22.5 -86.5t-10.5 -229.5v-532q0 -49 12.5 -74.5t51.5 -48.5q53 -29 63 -51q6 -14 6 -35q0 -20 -3 -34.5t-24.5 -39t-61.5 -40t-121.5 -27t-196.5 -11.5q-352 0 -352 140 q-2 43 11 61.5t35.5 28.5t44 32.5t37 92t15.5 184.5q0 35 -5 54.5t-9 30.5t-25.5 15.5t-34 5.5t-53.5 1q-195 0 -228 -21q-32 -19 -32 -117v-12v-43q0 -78 13.5 -125t31.5 -64.5t36.5 -27.5t32 -28.5t13.5 -55.5q0 -49 -45 -83t-120 -47t-126 -17.5t-106 -4.5 q-379 1 -379 148z" />
<glyph unicode="I" horiz-adv-x="890" d="M29 1311q0 35 29.5 61.5t82 42t101.5 25.5t109.5 13t86 4t49.5 1q375 0 375 -143q0 -33 -19.5 -51.5t-53 -35t-52.5 -36.5q-41 -47 -41 -373v-203q0 -174 9.5 -255.5t18.5 -95t38 -29.5q8 -4 35.5 -19.5t36 -22t18.5 -23.5t10 -40q0 -25 -5 -41t-30.5 -38.5t-72.5 -38 t-138.5 -26t-220.5 -10.5q-344 0 -344 134q0 29 17.5 48t46 35.5t39.5 30.5q45 53 45 391v203q0 293 -43 348q-12 14 -69.5 56.5t-57.5 87.5z" />
<glyph unicode="J" horiz-adv-x="1349" d="M-14 362q0 102 64.5 174t164.5 72q94 0 166 -55t72 -147q0 -18 -7.5 -51t-7.5 -46q0 -37 26 -58q22 -18 52 -18h12q57 6 93 44t48.5 93.5t14.5 140.5q1 24 1 48q0 59 -4 116q-5 79 -9 185q-2 53 -2 99.5t2 84.5q1 9 0 19q0 62 -25 95q-29 38 -64.5 42t-65.5 23.5 t-30 64.5q0 16 4.5 32.5t28 43.5t64.5 46.5t124 33.5t195 14q432 0 432 -151q0 -35 -24.5 -56.5t-55 -33t-56 -47t-28.5 -93.5l-16 -631q-4 -123 -55 -215t-119 -140t-156 -76.5t-144 -36t-103 -7.5q-76 0 -154 12.5t-158 42t-141.5 72.5t-100 111.5t-38.5 152.5z" />
<glyph unicode="K" horiz-adv-x="1779" d="M29 1311v18q0 4 7 24.5t20.5 30t45 26.5t75.5 25.5t117 15.5t165 7q45 0 70.5 -1t77.5 -8t82 -20.5t54.5 -41t24.5 -68.5q0 -29 -11.5 -47.5t-27.5 -31.5t-33.5 -31.5t-29 -62.5t-11.5 -112q0 -86 39 -86t128 109.5t89 148.5q0 20 -16 53t-16 56q0 143 344 143h10h14 q195 0 264 -33q72 -33 72 -102q0 -57 -35 -82q-33 -24 -76 -24q-2 0 -4 1h-13q-39 0 -83 -6q-51 -6 -74 -28q-8 -8 -50 -44t-74.5 -66t-61.5 -70.5t-29 -71.5q0 -12 4.5 -27.5t9.5 -26t16 -25.5t16.5 -21.5t19.5 -23.5t16 -20l428 -489q23 -25 73 -48.5t82 -53t32 -84.5 q0 -113 -185 -113h-348q-57 0 -78.5 14.5t-85.5 91.5l-139 170q-162 190 -203 191q-61 0 -61 -113v-43q0 -49 64.5 -102t64.5 -105q0 -39 -24.5 -63.5t-119 -44t-264.5 -19.5q-154 0 -237.5 18.5t-105 42t-21.5 64.5q0 35 16.5 55.5t38 31t43 44t29.5 91.5q20 127 20 362 q0 287 -20 399q-8 59 -31.5 92t-46.5 40.5t-40 30t-17 63.5z" />
<glyph unicode="L" horiz-adv-x="1361" d="M29 1300q0 51 48 87t128 49.5t134 17.5t112 4q193 -4 292 -26.5t118.5 -46t19.5 -66.5q0 -39 -26 -58.5t-55.5 -24.5t-55 -39t-25.5 -99v-652q0 -119 33.5 -169t136.5 -50q96 0 156.5 30t84 71t36 83t30.5 71.5t53 29.5q63 0 95 -54.5t32 -121.5q0 -121 -69.5 -243 t-139.5 -122q-16 0 -102 15q-68 14 -154 14h-684q-117 0 -149 33q-20 20 -21 57q0 41 26 60.5t55.5 26.5t56 49t28.5 122q4 150 4 402q0 72 -7 199.5t-7 152.5q-2 57 -30.5 87t-62.5 34t-62.5 21t-28.5 56z" />
<glyph unicode="M" horiz-adv-x="1902" d="M29 90q0 39 19.5 55.5t44 19.5t47 29.5t28.5 84.5q35 365 35 659q0 170 -31 233q-8 16 -43 35t-64.5 44.5t-29.5 62.5q0 145 354 145q45 0 80 -3t59.5 -4t45 -11t30.5 -14.5t24.5 -22t18.5 -23.5t18.5 -32.5t20.5 -34.5q20 -35 80.5 -164t114 -217t94.5 -96q3 -1 6 -1 q26 0 58 51q36 56 86.5 167.5t70.5 150.5q10 18 30.5 58.5t28 52.5t25.5 39.5t27.5 35t31 25t41 21.5t49 11t64.5 9t80 2q295 0 295 -135q0 -45 -52.5 -92t-60.5 -76q-12 -39 -21.5 -175t-9.5 -216q0 -12 3.5 -81t8.5 -178.5t9 -187.5q2 -51 22.5 -82.5t44 -43t43 -32 t19.5 -50.5q0 -131 -361 -132h-10q-256 0 -327 54q-37 29 -37 69q0 39 50 79t56 71q6 29 15 116q5 50 4 101q0 39 -2 78q-6 92 -39 92q-18 0 -38 -17.5t-39.5 -54.5t-34.5 -66.5t-36.5 -78.5t-30.5 -68q-6 -12 -48 -116.5t-74 -155.5q-30 -47 -58 -48q-2 0 -4 1 q-20 2 -32.5 11t-46 71.5t-93.5 193.5l-119 266q-2 2 -6 13.5t-7 16.5t-8 15.5t-10.5 16.5t-11.5 13t-13 10.5t-15 3.5q-18 0 -28.5 -27t-13.5 -74t-4 -87q0 -13 -1 -28q0 -29 2 -63q2 -51 2 -59q0 -74 20.5 -112t45 -43t45 -21.5t20.5 -51.5q0 -121 -299 -121 q-258 0 -258 113z" />
<glyph unicode="N" horiz-adv-x="1787" d="M29 1321q0 137 344 137h10h14q96 0 134 -14t108 -76l485 -426q96 -80 127 -80q53 0 54 119q0 133 -19 186q-12 35 -47 54.5t-62.5 42t-27.5 69.5q0 45 29.5 74t90 38t88 11t87.5 2h16q55 0 91 -2t91.5 -12t85 -40t29.5 -77q0 -39 -17.5 -62.5t-41 -30.5t-48 -25.5 t-36.5 -49.5q-27 -74 -27 -278v-531v-20v-66q0 -25 -3 -73t-11 -79.5t-21.5 -65.5t-36 -51.5t-53.5 -17.5q-47 0 -106 52l-633 567q-82 76 -125 76q-66 0 -66 -176q0 -125 15 -187q10 -43 34.5 -68.5t47 -33.5t40 -27.5t17.5 -52.5q0 -150 -307 -150q-305 0 -305 146 q0 37 19.5 58.5t43 30.5t47 36.5t29.5 70.5q18 113 18 310q0 297 -22 444q-10 70 -41 108t-61.5 47t-54 30.5t-23.5 62.5z" />
<glyph unicode="O" horiz-adv-x="1675" d="M49 723q0 324 227.5 532.5t565.5 208.5q162 0 298 -54t223 -138t147.5 -187.5t87 -201t26.5 -181.5q0 -213 -114.5 -382.5t-298 -259t-394.5 -89.5q-326 0 -547 213t-221 539zM575 940q0 -72 24 -178.5t65 -218t109.5 -189.5t146.5 -78q88 0 133 63.5t45 156.5 q0 76 -21.5 183t-62.5 217t-112 186.5t-154 76.5q-80 0 -126.5 -67.5t-46.5 -151.5z" />
<glyph unicode="P" horiz-adv-x="1472" d="M29 1325q0 98 153 98q27 0 76 -2t76 -2q131 0 260 7.5t210 15.5t93 8q225 0 386 -119t161 -336q0 -219 -159 -344t-384 -125q-31 0 -91 5.5t-87 5.5q-33 0 -33 -33v-119q2 -72 18.5 -115t39 -57t45 -23.5t38 -24.5t15.5 -48q0 -139 -387 -140q-389 0 -389 136 q0 37 23.5 57t51 27.5t51 38t23.5 88.5v800q0 51 -29.5 78t-65.5 32t-65.5 26.5t-29.5 64.5zM692 797q2 -10 8.5 -15.5t15.5 -11.5t26.5 -8t39.5 -2q96 0 142.5 63.5t46.5 163.5q0 102 -52.5 169t-150.5 67q-39 0 -56.5 -9.5t-19.5 -19.5t-2 -37v-307q0 -6 -1 -19 q-1 -6 0 -10q-1 -6 3 -24z" />
<glyph unicode="Q" horiz-adv-x="1681" d="M49 723q0 324 227.5 532.5t565.5 208.5q162 0 298 -54t223 -138t147.5 -187.5t87 -201t26.5 -181.5q0 -236 -129 -408.5t-358 -264.5q-27 -10 -27 -28.5t24.5 -39t98.5 -38t184 -17.5q37 0 73 9t60.5 18.5t28.5 9.5q20 0 36.5 -29t16.5 -51q0 -27 -27.5 -66t-79.5 -81 t-148.5 -70.5t-213.5 -28.5q-150 0 -336 68l-315 129q-33 12 -91.5 37.5t-80 34t-57 19.5t-60 15t-51.5 4q-8 0 -24.5 -2t-26.5 -2q-47 0 -47 60q0 61 49 97t113 36q6 0 20 -1t23 -1q31 0 30 20q0 10 -41 54t-89 102.5t-89 176.5t-41 259zM575 940q0 -72 24 -178.5t65 -218 t109.5 -189.5t146.5 -78q88 0 133 63.5t45 156.5q0 76 -21.5 183t-62.5 217t-112 186.5t-154 76.5q-80 0 -126.5 -67.5t-46.5 -151.5z" />
<glyph unicode="R" horiz-adv-x="1671" d="M29 1323q0 127 241 127q18 0 40 -1t47.5 -3t39.5 -2q82 -8 125 -8q63 0 199 8q197 6 199 6q125 0 233.5 -35t187 -123t78.5 -217q0 -96 -45 -176t-129 -121q-33 -18 -33 -41q0 -29 52 -49q109 -41 162 -123t73 -246q8 -63 35 -92.5t53.5 -31.5t48 -18.5t21.5 -57.5 q0 -66 -82 -113t-244 -47q-61 0 -110.5 7t-87 27.5t-65.5 38t-52.5 56.5t-38.5 63.5t-30.5 81t-24 86t-23.5 99.5q-20 88 -57 137t-113 49q-37 0 -49 -22.5t-12 -112.5q0 -119 14 -199q8 -45 64.5 -78.5t56.5 -85.5q0 -41 -24.5 -66.5t-112.5 -44t-246 -18.5 q-389 0 -389 150q0 29 15 46t37.5 29.5t46.5 33t39 68.5t15 122v584q0 88 -16 141t-39 70.5t-45.5 26.5t-38.5 24.5t-16 50.5zM659 851q8 -30 54 -30q96 0 136 50.5t40 150.5q0 203 -144 203q-23 0 -37 -7.5t-21 -12.5t-12 -26.5t-5 -26.5t-2 -38l-9 -194q-4 -19 -4 -36.5 t4 -32.5z" />
<glyph unicode="S" horiz-adv-x="1388" d="M43 446q0 45 21.5 78t64.5 33q39 0 69.5 -34t60.5 -82t70 -95t116.5 -81t181.5 -34q49 0 103 25t54 76t-49 82.5t-117.5 49t-168 59.5t-173.5 102q-195 156 -194 362q0 178 163 327.5t439 149.5q78 0 192.5 -29.5t116.5 -29.5q12 0 45 12.5t56 12.5q61 0 143 -102.5 t82 -221.5q0 -55 -33 -97t-88 -42q-45 0 -95 36.5t-91 79.5t-106.5 80t-137.5 37q-53 0 -92 -25.5t-39 -76.5q0 -55 50 -90t117.5 -49.5t171 -50.5t179.5 -87q190 -125 191 -340q0 -94 -40 -181t-118 -163t-211 -121t-305 -45q-113 0 -257.5 27t-226.5 72 q-68 37 -106.5 158.5t-38.5 217.5z" />
<glyph unicode="T" horiz-adv-x="1509" d="M0 1063q0 131 88 266t176 135q8 0 76 -14q90 -14 176 -14h504q88 0 160 14q49 14 84 14q72 0 158.5 -113.5t86.5 -265.5q0 -78 -41 -124t-116 -46q-59 0 -103.5 38t-65 83t-49 83t-63.5 38q-72 0 -72 -127v-629q0 -82 30 -123.5t64.5 -49t64.5 -29t30 -68.5 q0 -29 -13.5 -51.5t-52.5 -48t-130 -40t-226 -14.5q-487 0 -487 154q0 37 20 57.5t47 25.5t57.5 20.5t42.5 39.5q25 51 31 218l17 452q1 25 1 46q0 65 -10 104q-12 51 -23 57t-32 6q-31 0 -63.5 -38t-60 -83t-76 -83t-103.5 -38q-57 0 -92 44.5t-35 103.5z" />
<glyph unicode="U" horiz-adv-x="1765" d="M29 1315v4q0 16 2 28.5t22.5 35t58.5 37t119.5 26.5t196.5 12q231 0 316 -37t85 -104q0 -49 -23.5 -68.5t-52 -22.5t-54 -44t-29.5 -125v-377q0 -399 309 -399q66 0 119 16t84.5 36.5t54.5 55.5t32 57.5t14 59.5t5 42v23v510q0 74 -27.5 115t-60.5 50t-60.5 29.5 t-27.5 59.5q0 123 322 123q303 0 303 -119q0 -37 -23.5 -58t-53.5 -30.5t-53.5 -44.5t-23.5 -98v-553q0 -35 -1 -62.5t-15.5 -92t-38 -114.5t-76.5 -112.5t-125 -103.5t-188.5 -70t-261.5 -29q-182 0 -320.5 42t-209.5 107.5t-120 143.5t-55 148.5t-15 125.5q-4 23 -4 40 q0 22 7 32v8v474q2 43 -17.5 75.5t-45 49t-47 42t-21.5 56.5z" />
<glyph unicode="V" horiz-adv-x="1728" d="M0 1292q0 55 49 92t130 51.5t136.5 18.5t114.5 4q121 0 207 -12t125 -24.5t59.5 -37t21.5 -33t1 -26.5q0 -41 -49.5 -77t-49.5 -60q0 -12 8.5 -37t25 -61.5t29.5 -66.5t35.5 -78t30.5 -66q4 -6 14.5 -31t18.5 -41t22.5 -30.5t31.5 -14.5q23 -2 45 17.5t33.5 41t27.5 53.5 l20 41q119 238 119 283q0 31 -25.5 47.5t-52 34.5t-26.5 53q0 125 340 125q180 0 240.5 -29.5t60.5 -89.5q0 -78 -90 -88q-70 -8 -94.5 -28.5t-79.5 -132.5l-461 -934q-57 -111 -92 -142q-43 -37 -103 -37q-43 0 -72.5 10.5t-53 38t-35 48t-33.5 67.5l-408 901 q-47 102 -73.5 132t-86.5 38q-61 8 -61 80z" />
<glyph unicode="W" horiz-adv-x="2238" d="M0 1313q0 145 371 145q211 0 280.5 -30.5t69.5 -100.5q0 -31 -23.5 -65.5t-23.5 -67.5q0 -20 10 -58t22.5 -71t24.5 -66.5t14 -37.5q55 -176 102.5 -176.5t106.5 178.5q27 53 27 79q0 23 -33 90.5t-71 90.5q-76 39 -76 100v2q0 12 1 22.5t21.5 33t58.5 38t120.5 27.5 t197.5 12q113 0 193 -10t116.5 -23.5t56 -35t21.5 -30.5t2 -28q0 -37 -46 -75.5t-46 -61.5q0 -18 12.5 -53t24.5 -62.5t30.5 -65.5t22.5 -46q2 -2 10.5 -22.5t14.5 -34t16 -35t20.5 -35t22.5 -23.5t25 -10q45 0 101 167t56 210q0 29 -20.5 45t-46 22t-46 29t-20.5 59 q0 41 29 69t82 37t86 11t84 2h12q238 0 238 -125q0 -43 -22.5 -65.5t-59.5 -57t-60 -94.5l-352 -921q-27 -70 -47 -109t-62 -74t-98 -35q-70 0 -104.5 34t-67.5 108l-188 448q-2 2 -9 21.5t-12.5 31t-15.5 22.5t-23 11q-23 0 -40 -27.5t-46 -103.5q-12 -33 -20 -53 l-125 -309q-2 -8 -8 -21q-18 -47 -28.5 -67.5t-32 -47t-52 -37t-76.5 -10.5q-41 0 -70.5 11.5t-50 38t-32.5 49t-29 67.5l-381 973q-18 49 -44.5 76t-46 32t-34 25.5t-14.5 63.5z" />
<glyph unicode="X" horiz-adv-x="1710" d="M0 117q0 43 29.5 71.5t89 28.5t111 37t135.5 143l188 236q29 39 29 43q0 16 -29 45l-291 377q-35 45 -79 69.5t-74.5 31.5t-52 27.5t-21.5 61.5q0 20 4 35.5t30.5 43.5t76 45.5t151.5 31.5t244 14q209 0 282.5 -29.5t73.5 -99.5q0 -39 -18.5 -60.5t-37 -33.5t-18.5 -27 q0 -23 39 -74t57.5 -51t62.5 54.5t44 70.5q0 18 -19.5 32.5t-39 35t-19.5 57.5q0 39 23.5 64.5t104.5 43t224 17.5q299 0 299 -129q0 -27 -10 -46t-19 -28.5t-36 -16.5t-37 -8t-45 -3q-100 -8 -203 -137l-141 -181q-29 -29 -29 -43q0 -10 29 -45l383 -481q35 -43 78 -68.5 t71.5 -34t49 -31t20.5 -63.5q0 -25 -4 -41t-30.5 -42.5t-77 -42t-151.5 -28t-245 -12.5h-16h-12q-359 0 -359 125q0 27 13.5 46.5t28.5 27.5t28.5 20.5t13.5 26.5q0 51 -115 205q-2 2 -9 11.5t-12 13.5t-13 4q-18 0 -85 -96.5t-67 -118.5q0 -18 43 -51t43 -85 q0 -129 -342 -129q-199 0 -270.5 38.5t-71.5 101.5z" />
<glyph unicode="Y" horiz-adv-x="1677" d="M-2 1319q0 23 2 34t24.5 34.5t66.5 36t139.5 23.5t230.5 11q121 0 207 -9t127 -20.5t62.5 -32t23.5 -31.5t2 -32q0 -29 -29 -62.5t-29 -53.5q0 -37 48.5 -106t84.5 -69q39 0 89.5 59.5t50.5 96.5q0 27 -30 62.5t-30 76.5q0 121 316 121q188 0 255.5 -25.5t67.5 -95.5 q0 -45 -25.5 -65.5t-60.5 -24.5t-83 -21.5t-81 -54.5l-251 -276q-63 -80 -80 -140.5t-17 -176.5q0 -248 29 -310q10 -23 46 -40t63.5 -39.5t27.5 -63.5q0 -147 -424 -148q-455 0 -454 148q0 47 29.5 67.5t69.5 37t54 49.5q33 76 33 339q0 86 -17.5 131.5t-72.5 116.5 l-232 269q-41 47 -102 73.5t-96 47t-35 63.5z" />
<glyph unicode="Z" horiz-adv-x="1476" d="M14 1087q0 72 38 160t83 145.5t70 57.5q4 0 11 -2t22.5 -5t31.5 -7q100 -14 244 -15q55 0 397 19q268 18 340 18q47 0 76 -24.5t29 -69.5q0 -25 -49 -117l-441 -758q-90 -150 -90 -186q0 -47 142 -47q100 0 162.5 27.5t88 67.5t41 80t40 67.5t65.5 27.5q147 0 147 -157 q0 -154 -72.5 -270.5t-134.5 -116.5q-20 0 -92 10q-86 8 -119 8h-864q-8 0 -33.5 -1t-36 0t-29 4t-25.5 11.5t-14 24.5t-7 39q0 31 43 102l516 877q37 59 37 78q0 59 -135 59q-72 0 -120 -28.5t-70.5 -68.5t-40 -81t-44 -69.5t-65.5 -28.5q-59 0 -100.5 53t-41.5 116z" />
<glyph unicode="[" horiz-adv-x="1073" d="M264 150v1136q0 70 3 119t10.5 88t18.5 63.5t28.5 43t40 25.5t53.5 13.5t68.5 4t82.5 -0.5h54q250 0 311 -18q84 -25 84 -100q0 -37 -31 -54.5t-69 -17.5q-20 0 -61.5 4t-63.5 4q-96 0 -116 -28.5t-20 -124.5v-21v-1136q0 -115 15 -138q23 -37 121 -37q23 0 63.5 4.5 t61.5 4.5q39 0 69.5 -17.5t30.5 -54.5q0 -29 -10.5 -50.5t-37 -33.5t-50 -19.5t-75.5 -11.5t-85 -4h-105h-32q-195 0 -236 10q-80 20 -104 111q-19 74 -19 236z" />
<glyph unicode="\" horiz-adv-x="1015" d="M0 1360q-2 76 174 76q33 0 52.5 -4.5t37 -22.5t24.5 -30.5t28.5 -57.5t37.5 -74l566 -1046q49 -92 114.5 -196.5t97 -158t31.5 -73.5q0 -76 -192 -76q-27 0 -44.5 4t-31.5 21.5t-22.5 32t-29 56.5t-38.5 74l-565 1047q-49 92 -113 195.5t-94.5 158t-32.5 74.5z" />
<glyph unicode="]" horiz-adv-x="1073" d="M55 -88q0 37 31 54.5t70 17.5q20 0 61 -4.5t64 -4.5q96 0 115.5 29t19.5 125v21v1136q0 115 -15 137q-23 37 -120 37q-23 0 -64 -4t-61 -4q-39 0 -70 17.5t-31 54.5q0 29 10.5 50t37 33.5t50 19.5t76 11t84.5 4h105h33q195 0 235 -10q80 -20 105 -110q18 -74 18 -236 v-1136q0 -70 -3 -119t-10.5 -88t-18.5 -63.5t-28.5 -43t-40 -26t-53 -13.5t-68.5 -4t-83 0h-53q-250 0 -312 19q-84 24 -84 100z" />
<glyph unicode="^" d="M150 381q0 18 22 78l365 837q2 8 8 13.5t14 8.5t14.5 6t18.5 4t18 1t18.5 1t16.5 1t16.5 -1t18.5 -1t18.5 -1t18.5 -4t14 -6t14.5 -8t8.5 -14l364 -837q23 -59 23 -78q0 -20 -34 -30.5t-67 -10.5h-63q-39 0 -59.5 15.5t-38.5 62.5l-234 536l-233 -536q-18 -47 -39 -62.5 t-58 -15.5h-65q-33 0 -66.5 10.5t-33.5 30.5z" />
<glyph unicode="_" horiz-adv-x="1024" d="M0 -154h1024v-102h-1024v102z" />
<glyph unicode="`" horiz-adv-x="835" d="M143 1389q0 61 86 87.5t164 26.5q49 0 110.5 -14t61.5 -47q0 -12 -8 -25.5t-8 -21.5q0 -25 71.5 -74t71.5 -96q0 -76 -110 -76q-98 0 -185.5 29.5t-139.5 70.5t-83 80.5t-31 59.5z" />
<glyph unicode="a" horiz-adv-x="1220" d="M29 264q0 127 126 226.5t373 99.5q33 0 42.5 1t25.5 6t20.5 20.5t4.5 41.5q0 209 -97 209q-41 0 -76.5 -34.5t-60.5 -75.5t-72 -76t-108 -35q-49 0 -82 32t-33 81q0 119 185.5 203t355.5 84q43 0 91 -6.5t112.5 -30t113.5 -59.5t84 -102.5t35 -154.5v-205q0 -84 9 -137 t22.5 -69.5t30 -23.5t30 -4t22.5 -6t9 -34q0 -88 -98.5 -166t-210.5 -78q-70 0 -113 27t-64.5 52.5t-39.5 25.5q-10 0 -23.5 -7.5t-35 -21.5t-38.5 -22q-90 -53 -200 -54q-139 0 -239.5 75t-100.5 218zM455 309q0 -43 23.5 -76.5t64.5 -33.5q84 0 84 145q0 33 -1 47.5 t-14.5 31.5t-40.5 17q-51 0 -83.5 -40t-32.5 -91z" />
<glyph unicode="b" horiz-adv-x="1361" d="M-8 1206q0 92 204.5 161t362.5 69q27 0 39 -14.5t13 -29t-1 -44.5l-12 -396q0 -33 14 -32q4 0 16.5 9t35 25.5t45.5 28.5q102 63 215 64q166 0 283.5 -127t117.5 -326q0 -264 -176 -443.5t-438 -179.5q-88 0 -168 20.5t-124 46t-78 46t-42 20.5q-12 0 -53 -15t-80 -15 q-61 0 -62 41q0 8 10.5 45t20.5 119.5t10 199.5v545q0 39 -23.5 61.5t-53 29.5t-53 29.5t-23.5 61.5zM602 588q0 -199 10.5 -290t30 -115.5t64.5 -24.5q158 0 157 258q0 43 -7 91t-22.5 101.5t-50 88t-82.5 34.5q-61 0 -80.5 -38.5t-19.5 -104.5z" />
<glyph unicode="c" horiz-adv-x="1132" d="M35 512q0 223 172 379t428 156q215 0 342 -97.5t127 -216.5q0 -86 -57.5 -144.5t-143.5 -58.5q-74 0 -113.5 40t-49 87.5t-37 87t-80.5 39.5q-63 0 -101.5 -53t-38.5 -121q0 -119 79 -212t196 -93q76 0 140.5 26.5t74.5 26.5q39 0 65.5 -35.5t26.5 -74.5 q0 -98 -134 -187.5t-337 -89.5q-236 0 -397.5 154t-161.5 387z" />
<glyph unicode="d" horiz-adv-x="1398" d="M35 508q0 209 148.5 374t355.5 165q61 0 116.5 -15.5t88 -31t38.5 -15.5q33 0 33 90q0 43 -23.5 64.5t-51 26.5t-51 23.5t-23.5 55.5q0 51 79.5 92t184 60.5t177.5 29t87 9.5q76 0 76 -111v-979q0 -49 17.5 -77.5t36.5 -38t36.5 -31t17.5 -56.5q0 -53 -66.5 -90 t-163.5 -51t-154.5 -19.5t-86.5 -5.5q-35 0 -49 17.5t-13 39t-6.5 39t-29.5 17.5q-8 0 -20.5 -7t-36 -24.5t-39.5 -27.5q-98 -59 -201 -60q-195 0 -336 170t-141 367zM537 492q0 -59 10 -112.5t46 -103t95 -49.5q129 0 129 318v12v12q0 254 -119 254q-63 0 -102 -66.5 t-49 -134t-10 -130.5z" />
<glyph unicode="e" horiz-adv-x="1140" d="M35 502q0 231 170 388t405 157q123 0 224.5 -44.5t159 -111t88 -136t30.5 -130.5q0 -92 -34 -123t-93 -31h-444h-12h-13q-4 0 -11 -1t-10 -4t-6.5 -9t-3.5 -15q0 -74 76 -131t154 -57q90 0 177 46t95 46q31 0 55.5 -35t24.5 -67q0 -111 -159.5 -192t-313.5 -81 q-262 0 -410.5 158t-148.5 373zM475 725q0 -20 6 -33.5t22.5 -18.5t26.5 -6q5 -1 14 -1t22 1q26 1 32 1h27h29q7 0 23.5 3t23 9t12.5 18.5t6 30.5q0 57 -33 94t-88 37q-49 0 -86 -42t-37 -93z" />
<glyph unicode="f" horiz-adv-x="913" d="M16 653v68v32q0 50 6 64q7 18 44 21q57 4 57 39q0 8 -39 87.5t-39 155.5q0 115 74 192t172 105.5t211 28.5q117 0 204 -27.5t129 -71.5t60 -85t18 -80q0 -66 -46 -112t-109 -46q-59 0 -107.5 28.5t-74 63.5t-61.5 63.5t-75 28.5q-31 0 -50 -21.5t-19 -51.5 q0 -55 54 -101.5t117.5 -86.5t78.5 -75q8 -23 28 -22q18 0 53 2t56.5 2t45 -3t35 -12.5t9.5 -27.5l-10 -149q-2 -35 -54 -35q-96 0 -118.5 -18.5t-22.5 -114.5q0 -106 21 -183q12 -41 43.5 -62.5t61.5 -27.5t53.5 -28.5t23.5 -65.5q0 -20 -3 -34.5t-27.5 -38t-71 -39 t-139.5 -27t-224 -11.5q-362 0 -363 146q0 39 22.5 60.5t50.5 28.5t52.5 31.5t26.5 65.5l16 221q0 6 1 13q0 84 -83 84q-4 0 -18 -1t-23.5 0t-21.5 3t-18.5 8t-6.5 16z" />
<glyph unicode="g" horiz-adv-x="1243" d="M29 -141q0 51 28.5 82.5t56 45t27.5 23.5q0 6 -55 63.5t-55 110.5q0 63 42 111.5t83 73t41 32.5q0 6 -35 43t-70 98.5t-35 129.5q0 117 88 203t202 122.5t226 36.5q57 0 172 -19.5t146 -19.5q68 0 127 27t93 54.5t44 27.5q33 0 50.5 -33t17.5 -67q0 -51 -29 -100.5 t-57.5 -81t-28.5 -38.5q0 -10 3 -31.5t3 -31.5q0 -80 -36 -144.5t-92 -105.5t-130 -69.5t-145.5 -40t-143.5 -11.5q-16 0 -52 3t-54 3q-55 0 -55 -55q0 -29 25.5 -47t54 -23.5t57 -5.5t184.5 17.5t199 17.5q150 0 226.5 -70.5t76.5 -173.5q0 -74 -37 -146.5t-112.5 -138 t-213 -106.5t-315.5 -41q-262 0 -392 81t-130 194zM332 -102q0 -72 78.5 -105t160.5 -33q221 0 222 105q0 31 -24 46t-56 15q-10 0 -75 -6t-101 -6q-27 0 -99.5 8t-81.5 8q-24 1 -24 -32zM469 737q0 -49 8 -100t39 -99.5t78 -48.5q63 0 93 46.5t30 113.5q0 53 -8.5 100.5 t-40 91.5t-84.5 44q-55 0 -85 -44.5t-30 -103.5z" />
<glyph unicode="h" horiz-adv-x="1460" d="M20 102q0 27 13.5 44.5t31 25.5t38 36t32.5 73q25 96 25 479q0 53 -4 150.5t-4 127.5q-2 49 -21.5 78t-43.5 37t-43 26.5t-19 49.5q0 74 140 125t251.5 66.5t142.5 15.5q43 0 54.5 -15.5t11.5 -62.5l-13 -389q-1 -10 0 -20q0 -85 50 -85q18 0 43.5 29t51 62.5t85 62.5 t137.5 29q55 0 101 -10.5t80 -27t60.5 -42t44 -49t31 -56.5t19.5 -57.5t10 -56t5 -48t1 -40.5v-25l8 -330q0 -59 15.5 -95t35 -46t35 -26.5t15.5 -43.5q0 -117 -338 -117q-311 0 -311 105q0 27 32.5 66.5t40.5 95.5q14 76 15 205q0 55 -3.5 92t-15.5 91t-45 82.5t-84 28.5 q-37 0 -60.5 -13t-35.5 -28.5t-18.5 -49.5t-6.5 -50v-57v-238q0 -57 12.5 -93t29 -47t28.5 -27.5t12 -41.5q0 -121 -311 -121q-361 0 -361 125z" />
<glyph unicode="i" horiz-adv-x="768" d="M20 834q0 66 136.5 116.5t255 70t149.5 19.5q41 0 52.5 -23.5t11.5 -66.5v-571q0 -82 18.5 -127t42 -54.5t41.5 -27.5t18 -53q0 -139 -352 -140q-100 0 -173 9.5t-108.5 21.5t-56 31.5t-24.5 34t-4 32.5q0 41 49 78t59 64q20 53 23 221v36q0 138 -15 187 q-6 23 -26.5 39.5t-42 24.5t-38 27.5t-16.5 50.5zM41 1245q0 47 43 86t105.5 60.5t123 33t103.5 11.5q78 0 138 -30t60 -99q0 -55 -44 -97.5t-110.5 -64t-128 -30.5t-112.5 -9q-74 0 -126 34.5t-52 104.5z" />
<glyph unicode="j" horiz-adv-x="794" d="M-8 -272q0 27 19.5 46t45.5 19q10 0 31 -3t29 -3q23 0 37 18.5t14 40.5q0 20 -5 45t-5 62v641q0 66 -20.5 99.5t-46 38.5t-46 20.5t-20.5 52.5q0 55 58 99t137 68.5t166 41t137 21.5t59 5q35 0 51 -17t17 -33.5t1 -57.5v-881q0 -252 -65 -336q-53 -63 -155.5 -97 t-197.5 -34q-84 0 -162.5 36t-78.5 108zM53 1245q0 47 43 86t105.5 60.5t123 33t103.5 11.5q78 0 138.5 -30t60.5 -99q0 -55 -44 -97.5t-110.5 -64t-128 -30.5t-113.5 -9q-74 0 -126 34.5t-52 104.5z" />
<glyph unicode="k" horiz-adv-x="1579" d="M20 1198q0 61 123 119.5t254 88.5t195 30q39 0 49 -19.5t8 -58.5l-10 -434q-1 -39 -2 -70q0 -52 5 -76q7 -37 42 -37q27 0 95.5 39t68.5 62q0 12 -20.5 37.5t-20.5 48.5q0 113 280 112q307 0 308 -129q0 -41 -20.5 -54t-76 -27.5t-102.5 -43.5q-100 -49 -100 -75 q0 -55 278 -394q37 -45 91.5 -79.5t84 -58t29.5 -60.5q0 -119 -205 -119h-289q-61 0 -82.5 10t-58.5 58l-190 243q-55 82 -78 82q-20 0 -21 -57v-20q0 -38 7 -63q8 -32 20 -45t25.5 -22.5t22.5 -25t9 -41.5q0 -29 -8 -48.5t-37.5 -43t-102.5 -37t-185 -13.5h-21 q-55 0 -83 1.5t-76 4.5t-73.5 11t-53 21.5t-40 37t-12.5 53.5q0 33 17.5 49.5t38 22.5t39 38t20.5 89q16 383 16 428v293q0 55 -24.5 79.5t-54 24.5t-54.5 14.5t-25 53.5z" />
<glyph unicode="l" horiz-adv-x="786" d="M20 1214q0 61 81 108.5t190.5 70t187.5 33t103 10.5q86 0 86 -107q0 -12 -6.5 -94t-13.5 -212t-7 -259v-397q0 -111 8 -138q8 -31 38 -44t53.5 -28.5t23.5 -52.5q0 -127 -312 -127h-10h-16h-16h-11q-352 0 -352 136q0 37 50 60.5t63 59.5q27 84 26 441q0 254 -14 325 q-10 51 -36.5 81t-51.5 40t-44.5 32.5t-19.5 61.5z" />
<glyph unicode="m" horiz-adv-x="2076" d="M20 84q0 29 19.5 50.5t42 37.5t42 69.5t19.5 141.5v188q0 143 -47 187q-6 4 -24.5 15t-24.5 22.5t-6 35.5q0 68 133 120.5t243.5 70.5t135.5 18q55 0 55 -88v-12v-17v-18q0 -10 3 -17l6 -15q3 -7 10.5 -11t15.5 -4t22.5 12.5t40 37t48.5 42.5q115 90 260 90 q84 0 141 -28.5t78.5 -62.5t39 -62.5t30.5 -28.5q8 0 21 12.5t41 37t50 42.5q123 90 248 90q147 0 231 -78.5t84 -228.5v-432q0 -68 38 -117t38 -71q0 -135 -313 -136q-35 0 -78 4.5t-98.5 15.5t-92 37.5t-36.5 63.5q0 33 35.5 80t35.5 113v184v19q0 49 -2 78.5t-10 72.5 t-31.5 65.5t-62.5 22.5q-16 0 -30.5 -4t-25 -10t-18.5 -18.5t-13 -20.5t-8 -25.5t-5.5 -27t-3.5 -29.5t-1 -28v-27v-25v-127q0 -86 11.5 -139t26 -69.5t25.5 -35t11 -41.5q0 -129 -319 -129q-111 0 -180.5 9.5t-99.5 28t-37 35t-7 42.5q0 35 16.5 53.5t36 28.5t33.5 56 q13 40 13 108q0 10 -1 20v117v17q0 45 -2 74.5t-10 74.5t-31.5 68.5t-62.5 23.5q-16 0 -30.5 -4t-25 -10t-18.5 -18.5t-13 -20.5t-8 -25.5t-5.5 -27t-3.5 -29.5t-1 -28v-27v-25v-166q0 -109 28 -168t28 -82q0 -125 -328 -125q-322 1 -322 107z" />
<glyph unicode="n" horiz-adv-x="1443" d="M20 829q0 70 222.5 140.5t289.5 70.5q33 0 53.5 -23.5t20.5 -55.5q0 -6 -1 -18.5t-1 -18.5q0 -53 41 -54q14 0 26.5 10.5t33 36t32.5 39.5q84 84 219 84q88 0 153 -22.5t103.5 -68.5t62 -95t33 -126t12.5 -133t4 -144.5t5 -137.5q4 -55 19.5 -89t32 -45t29.5 -30.5 t13 -48.5q0 -18 -2 -27.5t-20.5 -31t-54 -32.5t-113.5 -21.5t-186 -10.5q-270 0 -271 111q0 31 36 64.5t42 107.5q2 16 7 70.5t6 88.5t2 87v11q0 46 -7 77q-8 35 -22.5 69.5t-43 52t-67.5 17.5q-20 0 -37.5 -4t-30 -15.5t-21.5 -19.5t-14 -28.5t-9.5 -29.5t-5.5 -36t-1 -33 v-36v-31v-158q0 -86 17.5 -129t35 -63.5t17.5 -49.5q0 -123 -356 -123q-291 0 -291 123q0 33 15 47.5t32.5 19.5t34 41t18.5 103l8 307q2 51 -16.5 82t-42 40.5t-43 31.5t-19.5 57z" />
<glyph unicode="o" horiz-adv-x="1296" d="M37 473q0 262 195.5 418t463.5 156q254 0 409 -164t155 -371q0 -160 -103.5 -287t-253 -190.5t-305.5 -63.5q-238 0 -399.5 134.5t-161.5 367.5zM508 682q4 -63 13 -126.5t28.5 -142.5t57.5 -130.5t87 -53.5h6q49 0 68 33q20 35 20 94q0 43 -9 111t-27.5 147.5t-56.5 135 t-87 55.5t-77 -38q-24 -33 -24 -73q0 -6 1 -12z" />
<glyph unicode="p" horiz-adv-x="1431" d="M20 795q0 63 114 123.5t245 91t215 30.5q35 0 46 -13t11 -48q0 -43 23 -43q8 0 52 27.5t114.5 55.5t144.5 28q188 0 300 -156t112 -352q0 -139 -59.5 -268.5t-175 -214.5t-259.5 -85q-43 0 -91 12.5t-81 26t-39 13.5q-33 0 -33 -66q0 -53 19.5 -84t44.5 -40t44 -29.5 t19 -53.5q0 -53 -53 -84t-105.5 -38t-107.5 -7q-201 0 -345 62.5t-144 142.5q0 31 14 49.5t32.5 24.5t40 21.5t34.5 41.5q29 59 28 330v113q0 250 -22 272q-8 8 -45 14t-65 29t-28 74zM643 340q0 -49 24.5 -70.5t80.5 -21.5q143 0 143 235q0 260 -150 260q-41 0 -59 -22.5 t-28.5 -109.5t-10.5 -271z" />
<glyph unicode="q" horiz-adv-x="1394" d="M35 512q0 254 176 394.5t438 140.5q86 0 206 -25t134 -25q43 0 112.5 25t108.5 25q92 0 93 -74q0 -27 -10.5 -120t-20.5 -265t-10 -391q0 -33 1 -68t3 -78t2 -67q2 -80 19.5 -122t36.5 -48.5t34.5 -24.5t15.5 -55q0 -137 -280 -137q-53 0 -118 7t-146.5 24.5t-136 56.5 t-54.5 94q0 33 22.5 52t49 27.5t49 40t22.5 87t-28 55.5q-8 0 -88 -35t-164 -35q-217 0 -342 159t-125 382zM549 565q0 -154 49 -241.5t115 -87.5q20 0 36.5 10t25.5 30.5t15.5 39t8.5 49t3 48.5q1 9 0.5 20.5t-0.5 26.5q-1 30 -1 34t1 44q1 20 0.5 34.5t-0.5 24.5 q-1 19 -4 59t-11.5 62.5t-20.5 48.5t-33.5 38t-50.5 12q-16 0 -36.5 -10t-43 -34.5t-38 -78t-15.5 -129.5z" />
<glyph unicode="r" horiz-adv-x="1150" d="M20 115q0 47 53.5 87t63.5 70q23 70 23 226v123q0 68 -19.5 100.5t-44 34.5t-44 19.5t-19.5 58.5q0 55 73.5 99t171 65.5t166 31.5t86.5 10q55 0 68.5 -16t19.5 -74q0 -2 1.5 -11t1.5 -14t1 -13.5t4 -13.5l6 -10q3 -5 8 -7t13 -2q14 0 36 25.5t44.5 55t69.5 55t106 25.5 q102 0 165 -67.5t63 -170t-75 -174t-177 -71.5q-57 0 -101.5 28.5t-73 58.5t-48.5 30q-12 0 -20.5 -7.5t-13.5 -21.5t-8.5 -27.5t-4.5 -34t-1 -32.5v-30v-21q0 -100 17 -226q4 -29 31.5 -45t57.5 -21t54.5 -27.5t24.5 -63.5q0 -88 -100.5 -114t-305.5 -26q-373 1 -373 138z " />
<glyph unicode="s" horiz-adv-x="1026" d="M47 281q0 96 78 96q43 0 135 -101.5t152 -101.5q33 0 56.5 16.5t23.5 49t-41 62.5t-100.5 60.5t-119 71.5t-100.5 112.5t-41 166.5q0 150 108.5 242t270.5 92q45 0 123 -13q63 -14 84 -14q23 0 55 14q37 12 55 13q66 0 127.5 -100.5t61.5 -172.5q0 -41 -30 -68.5 t-71 -27.5q-49 0 -98 40t-93 81t-81 41q-29 0 -51.5 -20.5t-22.5 -49.5q0 -35 46.5 -67.5t113 -65.5t133 -73t112.5 -109.5t46 -157.5q0 -141 -118 -233.5t-281 -92.5q-61 0 -152 15q-102 12 -109 12q-12 0 -40 -4q-25 -4 -39 -4q-55 0 -90 39q-39 45 -71 120t-32 132z" />
<glyph unicode="t" horiz-adv-x="997" d="M-14 913v16v16q0 5 1 12.5t6 13.5t11 10l467 297q14 8 22.5 13t19.5 7t13 2h22h30q68 0 75 -8q10 -12 11 -78q0 -137 6 -151q6 -16 73 -16h144q66 0 77 -13.5t11 -85.5q0 -86 -16.5 -105.5t-77.5 -19.5h-142q-53 0 -64 -10t-11 -65v-306q0 -170 112 -170q35 0 79 23.5 t58 23.5q29 0 49.5 -31.5t20.5 -62.5q0 -98 -140.5 -176t-299.5 -78q-39 0 -79 7.5t-94.5 31t-95.5 61.5t-69.5 108.5t-28.5 162.5v422q0 51 -10 57q-4 2 -80 2q-82 0 -90 8q-10 10 -10 82z" />
<glyph unicode="u" horiz-adv-x="1458" d="M20 903q0 45 77 76t187.5 42t173 15t95.5 4q41 0 52 -17t11 -60v-521q0 -209 117 -209q31 0 53.5 9.5t36 32t22.5 41t12 55.5t4 52t0 55t-1 46q0 168 -8 221q-8 51 -62.5 81t-54.5 73q0 55 114 90t211 43t165 8q104 0 104 -114q0 -33 -2 -97.5t-2 -97.5v-412 q0 -41 17.5 -63.5t39 -27.5t39 -22.5t17.5 -49.5q0 -49 -57.5 -86t-140.5 -55.5t-154.5 -28t-122.5 -9.5q-53 0 -76 19.5t-21 42t-5 42t-34 19.5q-10 0 -23 -7t-39 -25.5t-42 -28.5q-98 -61 -205 -62q-76 0 -134 15.5t-95 44.5t-63.5 67.5t-38 86t-18.5 101.5t-7 114v118v68 q0 88 -14.5 139t-36 67.5t-42 26t-35 25.5t-14.5 53z" />
<glyph unicode="v" horiz-adv-x="1349" d="M-14 918q0 33 19.5 55t116.5 44.5t275 22.5q346 0 346 -104q0 -35 -38.5 -73t-38.5 -62q0 -41 46 -121t81 -80q47 0 94 87t47 128q0 25 -35 62.5t-35 68.5q0 94 263 94h12h12q213 0 213 -90q0 -33 -22.5 -51t-51 -25.5t-63.5 -31t-56 -60.5l-335 -653q-82 -158 -170 -158 q-84 0 -164 150l-342 637q-20 37 -52 56.5t-57.5 24.5t-45 23.5t-19.5 55.5z" />
<glyph unicode="w" horiz-adv-x="2127" d="M-14 899q0 45 48 77t123.5 44t130 16t105.5 4q328 0 328 -122q0 -27 -19.5 -54.5t-19.5 -38.5q0 -33 55.5 -125t89.5 -92q25 0 60 55.5t35 79.5q0 41 -32 69t-63.5 51.5t-31.5 54.5q0 16 4 28t26.5 31.5t62.5 32t122 21.5t196 9q297 0 297 -108q0 -41 -32.5 -74 t-32.5 -53q0 -35 46 -118t77 -83q39 0 89 89t50 111.5t-29 59.5t-29 72q0 104 250 104t250 -102q0 -39 -21.5 -57.5t-51 -23.5t-71.5 -35.5t-73 -88.5l-262 -514q-129 -242 -215 -242q-74 0 -205 213q-6 8 -8 13l-105 168l-8 14q-10 14 -13 19.5t-12.5 15.5t-17.5 14t-16 4 q-6 0 -13.5 -2t-13.5 -6t-11 -8t-11 -11.5t-10.5 -12.5t-9.5 -14t-7 -13t-7 -13.5t-7 -11.5l-150 -260q-16 -27 -24 -38t-25.5 -31.5t-36 -30t-41 -9.5t-43 10.5t-33 20.5t-33 37t-24.5 34t-22 38l-389 633q-23 35 -53.5 54t-54.5 22t-41 20.5t-17 52.5z" />
<glyph unicode="x" horiz-adv-x="1294" d="M0 78q0 37 17.5 51t43 16t63.5 27t69 76l165 270q25 25 25 45q0 6 -6 15.5t-15.5 18.5t-9.5 11l-131 162q-29 37 -81 53.5t-83.5 32.5t-31.5 59q0 125 440 125h16h12q295 0 295 -102q0 -23 -20 -54.5t-20 -45.5q0 -20 31.5 -64.5t49.5 -44.5q20 0 56.5 49t36.5 70 q0 14 -21.5 46t-21.5 50q0 96 217 96q193 0 192 -98q0 -31 -29.5 -51.5t-75.5 -45t-69 -59.5l-117 -170q-49 -61 -49 -77q0 -6 8.5 -20.5t18.5 -29t12 -16.5l139 -201q33 -41 68 -67.5t54.5 -33.5t32.5 -22.5t13 -44.5q0 -23 -3 -35t-24.5 -32.5t-61.5 -30.5t-123 -19.5 t-199 -9.5q-2 0 -46 -1q-22 -1 -38 -0.5t-25 0.5q-18 1 -62 4.5t-67.5 11.5t-51.5 20.5t-41 33t-13 48.5q0 39 42 61.5t42 53.5t-42 93.5t-69 62.5t-75 -78t-48 -111q0 -18 23.5 -46t23.5 -62q0 -90 -219 -91q-217 1 -217 101z" />
<glyph unicode="y" horiz-adv-x="1333" d="M0 889q0 23 7 40t35 39.5t75 37t138 24.5t214 10q262 0 262 -125q0 -29 -23.5 -62.5t-23.5 -57.5q0 -55 49 -138.5t76 -83.5q41 0 72.5 72t31.5 119q0 49 -32.5 86t-32.5 70q0 39 29.5 64.5t76.5 36.5t85 15t75 4q219 0 219 -104q0 -41 -20.5 -63.5t-49 -30.5t-65.5 -32 t-59 -62q-45 -74 -107 -242l-121 -334q-35 -94 -65.5 -161.5t-80.5 -143.5t-105.5 -123t-136.5 -79t-177 -32q-125 0 -223 63.5t-98 182.5q0 78 52 133.5t130 55.5q66 0 103.5 -34t48 -75t26.5 -75t43 -34q39 0 59.5 31t20.5 70q0 49 -66 186l-286 600q-16 33 -56.5 52.5 t-70 39t-29.5 60.5z" />
<glyph unicode="z" horiz-adv-x="1105" d="M14 754q0 100 64.5 201.5t116.5 101.5q14 0 47.5 -10.5t122 -19.5t237.5 -9h227q56 4 95 4q62 0 80 -10q35 -18 34 -60q0 -35 -49 -123l-254 -450q-45 -90 -45 -107q0 -51 74 -51q57 0 93 27.5t49.5 60.5t34 60.5t48.5 27.5q51 0 77 -40t26 -95q0 -111 -74 -203t-131 -92 q-8 0 -54.5 16.5t-132.5 16.5h-499q-166 0 -166 78q0 16 8 35.5t16.5 33t22.5 35t18 29.5l248 399q80 129 80 156q0 43 -90 43q-49 0 -83 -26.5t-48 -59.5t-40 -59.5t-61 -26.5q-45 0 -68.5 35t-23.5 82z" />
<glyph unicode="{" horiz-adv-x="1073" d="M133 729q0 27 18.5 52.5t65.5 25.5q51 0 69.5 23.5t18.5 76.5v447q0 289 291 288h190q47 0 65.5 -24.5t18.5 -50.5q0 -25 -18 -50.5t-66 -25.5q-51 0 -69.5 -23.5t-18.5 -74.5v-392q0 -125 -40 -189t-154 -81v-6q115 -14 154.5 -79.5t39.5 -190.5v-412q0 -51 18.5 -74.5 t69.5 -23.5q47 0 65.5 -25.5t18.5 -50.5q0 -27 -18 -51.5t-66 -24.5h-190q-291 0 -291 289v469q0 51 -18.5 74.5t-69.5 23.5q-47 0 -65.5 25.5t-18.5 54.5z" />
<glyph unicode="|" horiz-adv-x="1015" d="M389 -512v2048h238v-2048h-238z" />
<glyph unicode="}" horiz-adv-x="1073" d="M203 -131q0 25 18.5 50.5t65.5 25.5q51 0 69.5 23.5t18.5 74.5v412q0 125 40 190.5t154 79.5v6q-115 16 -154.5 81t-39.5 189v392q0 51 -18.5 74.5t-69.5 23.5q-47 0 -65.5 25.5t-18.5 50.5q0 27 18.5 51t65.5 24h190q291 0 291 -288v-447q0 -53 18.5 -76.5t69.5 -23.5 q47 0 65.5 -25.5t18.5 -52.5q0 -29 -18.5 -54.5t-65.5 -25.5q-51 0 -69.5 -23.5t-18.5 -74.5v-469q0 -289 -291 -289h-190q-47 0 -65.5 24.5t-18.5 51.5z" />
<glyph unicode="~" d="M150 471q0 98 68.5 171t162.5 73q90 0 256 -68.5t197 -68.5q16 0 20 7t4 27q0 53 30 78t73 25q86 0 133 -25.5t47 -107.5q0 -98 -68.5 -171t-163.5 -73q-90 0 -256 68.5t-196 68.5q-16 0 -20.5 -7t-4.5 -28q0 -53 -29.5 -77.5t-72.5 -24.5q-86 0 -133 25.5t-47 107.5z " />
<glyph unicode="&#xa1;" horiz-adv-x="663" d="M86 -121q0 188 104 393q25 53 67 112.5t75 59.5t75 -59t66 -113q104 -205 105 -393q0 -127 -62.5 -220t-183.5 -93t-183.5 93t-62.5 220zM104 831.5q0 94.5 67 161t161 66.5t160.5 -66.5t66.5 -161t-66.5 -161t-160.5 -66.5t-161 66.5t-67 161z" />
<glyph unicode="&#xa2;" d="M164 592q0 96 31.5 177t75.5 130t97.5 87t88.5 53.5t57 21.5q18 4 25.5 11t8.5 13.5t1 26.5v10q0 63 15.5 75.5t80.5 12.5h24h24q7 0 19.5 -1t17.5 -6l12 -12q7 -7 9.5 -18.5t2.5 -27.5v-11v-12v-8q0 -6 1 -8l3 -6q2 -4 5 -5t7 -3t9 -3.5t12 -1.5q125 -14 230 -91.5 t105 -192.5q0 -80 -55 -130t-133 -50q-63 0 -97 35.5t-42 78.5t-34 79t-75 36q-61 0 -92 -52t-31 -120q0 -100 74 -180t174 -80q55 0 120.5 24.5t74.5 24.5q35 0 57.5 -34t22.5 -70q0 -68 -86 -140.5t-222 -97.5q-8 -2 -14 -5t-9 -6t-4 -10.5t-1 -10.5v-14v-15 q0 -66 -15.5 -79.5t-81.5 -13.5h-46q-9 0 -28.5 4.5t-22.5 13.5t-7 25.5t-4 44.5q0 4 1 15.5t0 18.5t-2 16.5t-7 14.5t-15 7q-156 43 -259 171t-103 288z" />
<glyph unicode="&#xa3;" d="M33 223q0 215 229 215q12 0 38 -2t38 -2q31 0 31 41q0 51 -29 74.5t-58.5 24.5t-88 -4t-76.5 -5q-70 0 -70 107q0 98 70 98h35q80 0 79 43q0 6 -15 51t-15 84q0 125 96 218.5t215 132t229 38.5q213 0 337 -98t124 -190q0 -61 -45 -107.5t-100 -46.5q-25 0 -41.5 15.5 t-25.5 35t-43 34.5t-87 15q-63 0 -110.5 -31.5t-47.5 -97.5q0 -80 134 -80q18 0 54 5.5t52 5.5q8 0 14.5 -3t10.5 -8.5t6 -10.5t3 -15t1 -16v-17v-14v-15v-15v-15q0 -10 -2 -16.5t-4 -14.5t-5 -12t-7.5 -9.5t-11.5 -7.5t-15 -2q-20 0 -58 5t-57 5q-49 0 -67.5 -21.5 t-18.5 -74.5q0 -76 83 -115.5t161 -39.5q63 0 132 52t110 52q74 0 73 -111q0 -115 -71.5 -205t-171 -134t-199.5 -44q-72 0 -133.5 19.5t-93 43t-54 43t-26.5 19.5q-2 0 -36 -31.5t-100.5 -64.5t-146.5 -33q-100 0 -162.5 70.5t-62.5 181.5z" />
<glyph unicode="&#xa4;" d="M139 623q0 145 76 266q-63 63 -65 86q0 39 54 93t93 54q27 -2 86 -65q123 74 258 73q152 0 264 -73q66 66 86 65q41 0 94.5 -55t53.5 -92q-2 -23 -66 -86q78 -121 78 -264q0 -154 -78 -263q63 -63 66 -86q0 -39 -54.5 -93t-93.5 -54q-27 2 -86 66q-121 -76 -254 -76 q-152 0 -268 76q-66 -66 -86 -66q-41 0 -94 55.5t-53 91.5q2 23 65 86q-76 134 -76 261zM393 624.5q0 -102.5 73 -177t179.5 -74.5t179 74.5t72.5 177t-72.5 177.5t-179 75t-179.5 -75t-73 -177.5z" />
<glyph unicode="&#xa5;" d="M-27 1210q0 74 70 113t258 39q59 0 93 -2t96.5 -14.5t95 -46t32.5 -87.5q0 -39 -20 -68.5t-20 -35.5q0 -27 34.5 -86t49.5 -59q18 0 59 58t41 79q0 4 -24.5 42t-24.5 77q0 143 327 143q55 0 82 -2t83.5 -12.5t84 -41t27.5 -79.5q0 -55 -40 -84t-94.5 -45.5t-68.5 -34.5 l-143 -182q-84 -104 -84 -121t47 -17q39 0 114.5 1t114.5 1q45 0 60.5 -22.5t15.5 -97.5q0 -72 -23.5 -88.5t-95.5 -14.5h-166q-104 0 -114 -6q-12 -8 -13 -51v-105q0 -41 22.5 -67.5t50.5 -39.5t50.5 -42t22.5 -72q0 -162 -303 -162q-115 0 -195 14.5t-116.5 30t-57 44 t-21.5 40t-1 33.5q0 51 27.5 79t62 45.5t43.5 35.5q12 35 12 121q0 55 -7 76.5t-17.5 24.5t-43.5 3q-119 4 -206 4h-22h-20q-3 0 -16.5 1t-15.5 3.5t-12.5 4.5t-11.5 7t-7 12t-6 15.5t-2 20.5t-2 26q0 90 18.5 111t77.5 21t105.5 -2.5t54.5 -2.5q45 0 45 25q0 16 -33 57 l-156 199q-25 33 -71.5 54.5t-74.5 47t-28 82.5z" />
<glyph unicode="&#xa6;" horiz-adv-x="1015" d="M389 238q0 37 2 53t12.5 35.5t35 25.5t67.5 6q45 0 69.5 -6t36 -24.5t13.5 -35t2 -52.5v-496q0 -39 -4.5 -56.5t-32 -31.5t-84.5 -14q-80 0 -98.5 23.5t-18.5 84.5v488zM389 774v488q0 37 2 53t12.5 35.5t35 25.5t67.5 6q45 0 69.5 -6t36 -24.5t13.5 -35t2 -52.5v-496 q0 -39 -4.5 -56.5t-32 -31.5t-84.5 -14q-80 0 -98.5 23.5t-18.5 84.5z" />
<glyph unicode="&#xa7;" horiz-adv-x="1552" d="M141 82q0 55 79 79.5t151 24.5q47 0 87 -28.5t66.5 -62.5t85 -62.5t140.5 -28.5q57 0 106 19.5t49 68.5t-76.5 81t-186.5 58.5t-219.5 65.5t-186 125t-76.5 215q0 76 29.5 140.5t64.5 97t64.5 56t29.5 30.5q0 8 -25.5 30.5t-57.5 51t-57.5 88t-25.5 133.5 q0 160 147.5 271.5t471.5 111.5q264 0 423.5 -73t159.5 -161q0 -53 -75.5 -92t-134.5 -39q-41 0 -78 24.5t-63.5 53.5t-79 53.5t-122.5 24.5q-47 0 -90 -21.5t-43 -64.5q0 -47 53.5 -77t132.5 -44t171 -41t171 -61.5t132 -112.5t53 -191q0 -74 -30.5 -136t-67.5 -94 t-68 -57.5t-31 -33.5q0 -10 30 -31.5t64.5 -48.5t64.5 -87.5t30 -137.5q0 -199 -164 -304.5t-430 -105.5q-162 0 -288 25.5t-194.5 61.5t-113.5 80t-58.5 75t-13.5 51zM580 754q0 -31 21.5 -53.5t38.5 -28.5t56 -19l148 -45q31 -10 47 -10q23 0 41 42t18 69q0 14 -3 25 t-11 20.5t-14.5 15.5t-19.5 13.5t-19 9.5t-23.5 8t-21.5 8q-145 51 -191 51q-27 0 -47 -38.5t-20 -67.5z" />
<glyph unicode="&#xa8;" horiz-adv-x="1445" d="M143 1304.5q0 67.5 60.5 108.5t124 51.5t131.5 10.5q82 0 150.5 -30t68.5 -102q0 -63 -66.5 -105t-138.5 -55.5t-135 -13.5q-74 0 -134.5 34t-60.5 101.5zM768 1304.5q0 67.5 60.5 108.5t124 51.5t130.5 10.5q82 0 151 -30t69 -102q0 -63 -67 -105t-138.5 -55.5 t-134.5 -13.5q-74 0 -134.5 34t-60.5 101.5z" />
<glyph unicode="&#xa9;" horiz-adv-x="1552" d="M29 719q0 309 219 527t528 218t528.5 -218t219.5 -527t-219.5 -528.5t-528.5 -219.5t-528 219.5t-219 528.5zM170 719q0 -252 177 -429t429 -177t429 177t177 429q0 250 -177 427t-429 177t-429 -177t-177 -427zM352 713q0 170 134.5 288.5t306.5 118.5q66 0 136 -27.5 t72 -27.5q10 0 26.5 4t25.5 4q39 0 73.5 -54t34.5 -142q0 -49 -28.5 -83t-75.5 -34q-39 0 -66.5 30.5t-45 68.5t-61.5 68.5t-112 30.5q-63 0 -94 -47t-31 -112q0 -117 66.5 -205t179.5 -88q57 0 100 19.5t66.5 39t32.5 19.5q23 0 36 -20.5t13 -45.5q0 -47 -30 -95t-79 -58 q-18 -4 -94 -35t-156 -31q-176 0 -303 122t-127 292z" />
<glyph unicode="&#xaa;" horiz-adv-x="839" d="M74 1010q0 94 90 143t192 49q6 0 20.5 -1t18.5 0t12.5 4t10.5 11.5t2 20.5v31q0 82 -51 82q-23 0 -42.5 -19.5t-33.5 -43t-43 -43t-66 -19.5q-31 0 -51 19.5t-20 49.5q0 53 63.5 94.5t135 58.5t122.5 17q115 0 185.5 -56t70.5 -146v-132q0 -49 7.5 -76.5t17.5 -33.5 t21.5 -6t18.5 -6.5t7 -24.5q0 -57 -61.5 -101t-122.5 -44q-57 0 -90 29.5t-37 29.5q-2 0 -55.5 -29.5t-116.5 -29.5q-86 0 -145.5 44t-59.5 128zM334 1036q0 -57 47 -57q41 0 41 74v10v10q0 2 -1 9.5t-2 10.5t-4 7t-8.5 5t-11.5 1q-27 0 -44 -21.5t-17 -48.5z" />
<glyph unicode="&#xab;" horiz-adv-x="1148" d="M29 500q0 43 37.5 102.5t59 83t79.5 82.5q182 197 266 197q37 0 68.5 -27t31.5 -64q0 -41 -97 -180t-97 -194.5t97 -194.5t97 -180q0 -37 -31.5 -63.5t-68.5 -26.5q-84 0 -266 196q-2 2 -19.5 20.5t-22.5 24t-22.5 23.5t-24.5 28l-22 27q-14 18 -21 29.5t-17.5 29 t-14.5 30t-8 28t-4 29.5zM578 500q0 43 37.5 102.5t59 83t79.5 82.5q182 197 266 197q37 0 68.5 -27t31.5 -64q0 -41 -97 -180t-97 -194.5t97 -194.5t97 -180q0 -37 -31.5 -63.5t-68.5 -26.5q-84 0 -266 196q-2 2 -19.5 20.5t-22.5 24t-22.5 23.5t-24.5 28l-22 27 q-14 18 -21.5 29.5t-17.5 29t-14 30t-8 28t-4 29.5z" />
<glyph unicode="&#xac;" d="M150 725q0 45 5 69.5t23.5 35t32.5 12.5t53 2h19h725q133 0 133 -133v-373v-19q0 -37 -2 -52t-12.5 -33.5t-35 -23.5t-69.5 -5t-69.5 5t-35 23.5t-12.5 33t-2 52.5v19v205q0 47 -9 55t-60 8h-551h-19q-37 0 -52 2t-33.5 12.5t-23.5 35t-5 69.5z" />
<glyph unicode="&#xad;" horiz-adv-x="612" d="M0 414q0 35 31.5 126t50.5 128q20 41 44 57t67 16q25 0 74.5 -8t74.5 -8q61 0 104 1t60.5 3t29 3t15.5 1q25 0 43 -17.5t18 -43.5q0 -35 -31.5 -126t-50.5 -128q-20 -41 -43.5 -57.5t-66.5 -16.5q-25 0 -75 8t-75 8q-61 0 -104 -1t-60.5 -3t-28.5 -3t-16 -1 q-25 0 -43 17.5t-18 44.5z" />
<glyph unicode="&#xae;" horiz-adv-x="1552" d="M29 719q0 309 219 527t528 218t528.5 -218t219.5 -527t-219.5 -528.5t-528.5 -219.5t-528 219.5t-219 528.5zM170 719q0 -252 177 -429t429 -177t429 177t177 429q0 250 -177 427t-429 177t-429 -177t-177 -427zM356 403q0 23 13.5 32t29 15.5t28.5 49.5t13 121v253 q0 55 -8 87t-21.5 40.5t-25.5 11.5t-20.5 12t-8.5 30q0 70 131 69q23 0 69 -4t69 -4q35 0 108.5 4t108.5 4q109 0 190.5 -51t81.5 -153q0 -68 -28.5 -106t-56.5 -53.5t-28 -25.5t24 -23.5t53.5 -28.5t54 -61.5t24.5 -113.5q2 -33 16.5 -49.5t30 -17.5t27.5 -10t12 -32 q0 -41 -54 -64.5t-124 -23.5q-86 0 -135 36t-65.5 88t-27 104.5t-33 88.5t-67.5 36q-20 0 -26 -12.5t-6 -61.5q0 -68 8 -109q4 -25 34.5 -43t30.5 -45q0 -72 -209 -71q-213 -1 -213 81zM700 809q0 -4 1 -10t4.5 -9.5t9.5 -5.5t14 -2q96 0 96 109q0 111 -77 110 q-29 0 -37.5 -14t-8.5 -45v-106q0 -6 -1 -14.5t-1 -12.5z" />
<glyph unicode="&#xaf;" horiz-adv-x="1257" d="M143 1217q0 25 28 91t44 93q33 53 96 53l74 -6q76 -6 160 -6h334q94 0 143 4q14 0 25.5 1t13.5 1q23 0 38 -12.5t15 -32.5q0 -25 -27.5 -90.5t-44.5 -91.5q-33 -53 -96 -54l-74 7q-76 6 -159 6h-334q-53 0 -91 -1t-52.5 -2t-24.5 -2t-14 -1q-23 0 -38.5 12.5t-15.5 30.5z " />
<glyph unicode="&#xb0;" horiz-adv-x="774" d="M80 1024q-2 127 89 217t218 90q125 0 216 -90t91 -217t-90 -217t-217 -90t-217 90t-90 217zM225 1026q0 -68 47 -116t115 -48t115 48t47 116t-47 114t-115 46t-116 -46t-46 -114z" />
<glyph unicode="&#xb1;" d="M150 119q0 45 5 69.5t23.5 34.5t32.5 12.5t53 2.5h19h725h18q37 0 52.5 -2.5t33.5 -12.5t23.5 -34.5t5.5 -69.5t-5.5 -69.5t-23.5 -35t-32.5 -12.5t-53.5 -2h-18h-725h-19q-37 0 -52 2t-33.5 12.5t-23.5 35t-5 69.5zM150 663.5q0 45.5 5 70t23.5 34.5t32.5 12t53 2h19 h139q86 0 96 11q8 8 8 94v18q0 37 2 52.5t12.5 34t35 23.5t69.5 5t69.5 -5t35 -23.5t12.5 -33t2 -53.5v-18q0 -82 10 -94q8 -10 94 -11h140h18q37 0 52.5 -2t33.5 -12t23.5 -34.5t5.5 -70t-5.5 -70t-23.5 -34.5t-32.5 -12t-53.5 -2h-18h-140q-86 0 -94 -8q-10 -10 -10 -97 v-18q0 -37 -2 -52.5t-12.5 -34t-35 -23.5t-69.5 -5t-69.5 5t-35 23.5t-12.5 33t-2 53.5v18q0 90 -8 97q-10 8 -96 8h-139h-19q-37 0 -52 2t-33.5 12t-23.5 34.5t-5 70z" />
<glyph unicode="&#xb2;" horiz-adv-x="774" d="M0 514q0 14 15.5 32.5t80.5 74.5q229 201 230 301q0 70 -76 69q-41 0 -86 -35.5t-72 -35.5q-31 0 -58.5 22.5t-27.5 48.5q0 66 128 140.5t286 74.5q100 0 168.5 -22.5t98.5 -57t40 -61.5t10 -51q0 -53 -34.5 -107.5t-76.5 -88.5t-77 -65.5t-35 -47.5q0 -20 18.5 -31.5 t40.5 -11.5q53 0 100.5 36.5t61.5 36.5q59 0 60 -92q0 -78 -45 -148.5t-103 -70.5q-25 0 -36 9t-14 20.5t-24.5 20.5t-62.5 9h-434q-76 0 -76 31z" />
<glyph unicode="&#xb3;" horiz-adv-x="774" d="M-18 453q0 29 22.5 48t52.5 19q10 0 64.5 -11t101.5 -11q94 0 136 36.5t42 79.5q0 51 -42 78t-99 27q-39 0 -64.5 -6t-31.5 -6q-23 0 -39 36.5t-16 59.5q0 16 27.5 30.5t61 25.5t61.5 36t28 61.5t-32 62t-73 25.5q-39 0 -84 -21.5t-51 -21.5q-18 0 -32.5 25t-14.5 45 q0 45 98.5 90t243.5 45q47 0 97 -7t104.5 -23.5t89.5 -50t35 -81.5q0 -45 -25 -77.5t-50.5 -50t-25.5 -27.5t16.5 -17.5t41 -11.5t54.5 -17.5t54.5 -31.5t41 -56t16.5 -89q0 -113 -122 -213.5t-386 -100.5q-35 0 -77 4t-97.5 13.5t-91 31t-35.5 52.5z" />
<glyph unicode="&#xb4;" horiz-adv-x="835" d="M143 1225q0 47 72 96t72 74q0 8 -8.5 21.5t-8.5 25.5q0 33 61.5 47t110.5 14q78 0 164 -26.5t86 -87.5q0 -20 -30.5 -59.5t-83 -80.5t-139.5 -70.5t-185 -29.5q-111 0 -111 76z" />
<glyph unicode="&#xb5;" horiz-adv-x="1458" d="M20 903q0 45 77 76t187.5 42t173 15t95.5 4q41 0 52 -17t11 -60v-521q0 -209 117 -209q31 0 53.5 9.5t36 32t22.5 41t12 55.5t4 52t0 55t-1 46q0 168 -8 221q-8 51 -62.5 81t-54.5 73q0 55 114 90t211 43t165 8q104 0 104 -114q0 -33 -2 -97.5t-2 -97.5v-412 q0 -41 17.5 -63.5t39 -27.5t39 -22.5t17.5 -49.5q0 -49 -57.5 -86t-140.5 -55.5t-154.5 -28t-122.5 -9.5q-53 0 -76 19.5t-21 42t-5 42t-34 19.5q-14 0 -89.5 -50t-106.5 -52q4 -23 4 -72q0 -127 -61.5 -216t-182.5 -89t-184.5 95.5t-63.5 224.5q0 55 9.5 130.5t9.5 110.5 v410q0 88 -14.5 139t-36 67.5t-42 26t-35 25.5t-14.5 53z" />
<glyph unicode="&#xb6;" d="M-2 1006q0 190 128 311t318 121q76 0 223.5 -15.5t223.5 -15.5q51 0 149.5 7t149.5 7q100 0 100 -78q0 -43 -32.5 -66.5t-72.5 -32.5t-73 -35.5t-33 -71.5v-1424q0 -59 -11 -75.5t-67 -16.5q-53 0 -64 16.5t-11 75.5v1434q0 43 -3 58.5t-18.5 24.5t-52.5 9 q-51 0 -61.5 -16.5t-10.5 -75.5v-1434q0 -59 -11 -75.5t-67 -16.5q-53 0 -64 16.5t-11 75.5v779v43v34q0 8 -3 21.5t-12.5 16.5t-24 6t-38.5 3q-16 0 -50 -1t-50 -1q-219 0 -335 114t-116 278zM397 1026q0 -98 57.5 -169t129.5 -71q20 0 30.5 9.5t11.5 19.5t1 31v305v43 q0 10 -4.5 27.5t-12.5 22.5t-22 5q-82 0 -136.5 -69.5t-54.5 -153.5z" />
<glyph unicode="&#xb7;" horiz-adv-x="645" d="M74 530.5q0 102.5 72.5 175t175 72.5t175 -72.5t72.5 -175t-72.5 -175t-175 -72.5t-175 72.5t-72.5 175z" />
<glyph unicode="&#xb8;" horiz-adv-x="692" d="M143 -268q0 39 35 55t69 24.5t34 24.5q0 10 -15 35l-88 129h160l129 -125q4 -4 21.5 -20.5t23.5 -23.5t17.5 -21.5t15.5 -28.5t4 -29q0 -43 -41 -73.5t-88 -41t-88 -10.5q-98 0 -143.5 35t-45.5 70z" />
<glyph unicode="&#xb9;" horiz-adv-x="774" d="M27 557q0 20 18 34.5t43 14.5q10 0 32.5 -4t35.5 -4q39 0 56 35t17 158v147q0 45 -12 61.5t-57 16.5q-80 0 -92 10q-10 10 -11 29q0 68 174.5 109.5t321.5 41.5q111 0 111 -55q0 -23 -16.5 -33t-35 -13t-35 -28.5t-16.5 -75.5v-131q0 -147 12 -208q8 -37 37 -51.5 t58.5 -13.5t54.5 -8t25 -38q0 -25 -16.5 -40t-99.5 -30.5t-233 -15.5q-178 0 -275 26.5t-97 65.5z" />
<glyph unicode="&#xba;" horiz-adv-x="839" d="M57 1137q0 147 116 237t267 90q156 0 248 -98t92 -207q0 -147 -122.5 -234t-276.5 -87q-141 0 -232.5 81t-91.5 218zM344 1247q0 -90 45 -207q18 -47 55 -47q49 0 50 64q0 68 -25 160t-74 92q-51 -1 -51 -62z" />
<glyph unicode="&#xbb;" horiz-adv-x="1148" d="M29 125q0 41 97 180t97 194.5t-97 195t-97 179.5q0 37 31.5 64t68.5 27q84 0 266 -197q2 -2 19.5 -20.5t22.5 -23.5t22.5 -23.5t24.5 -27.5l22 -28q14 -18 21.5 -29.5t17.5 -29t14 -29.5t8 -27.5t4 -29.5q0 -43 -37.5 -102.5t-59 -83t-79.5 -83.5q-182 -197 -266 -196 q-37 0 -68.5 26.5t-31.5 63.5zM578 125q0 41 97 180t97 194.5t-97 195t-97 179.5q0 37 31.5 64t68.5 27q84 0 266 -197q2 -2 19.5 -20.5t22.5 -23.5t22.5 -23.5t24.5 -27.5l22 -28q14 -18 21 -29.5t17.5 -29t14.5 -29.5t8 -27.5t4 -29.5q0 -43 -38 -102.5t-59.5 -83 t-78.5 -83.5q-182 -197 -266 -196q-37 0 -68.5 26.5t-31.5 63.5z" />
<glyph unicode="&#xbc;" horiz-adv-x="1937" d="M27 551q0 20 18 34.5t43 14.5q10 0 32.5 -4t35.5 -4q39 0 56 35t17 157v148q0 45 -12 61.5t-57 16.5q-80 0 -92 10q-10 10 -11 29q0 68 174.5 109.5t321.5 41.5q111 0 111 -55q0 -23 -16.5 -33t-35 -13t-35 -29t-16.5 -75v-131q0 -147 12 -209q8 -37 37 -51t58.5 -13 t54.5 -8.5t25 -37.5q0 -25 -16.5 -40.5t-99.5 -30.5t-233 -15q-178 0 -275 26.5t-97 65.5zM551 -90q0 16 6 31.5t27.5 48.5t50.5 74.5t87 136t126 211.5l479 829q20 37 31.5 52.5t35 26.5t58.5 11q96 0 96 -47q0 -27 -12 -52.5t-36.5 -58t-86 -129t-133.5 -217.5l-387 -661 q-29 -49 -56.5 -98.5t-42 -77t-29.5 -54t-24.5 -39t-20.5 -22.5t-21.5 -13t-26.5 -3q-39 0 -80 11t-41 40zM1122 117q0 68 22.5 108.5t112.5 141.5l308 327q92 78 192 78q41 0 52.5 -19.5t11.5 -62.5v-407v-9q0 -18 1 -24t10 -11.5t28 -5.5q35 0 43 -7t8 -42v-98 q0 -18 -1 -26.5t-9.5 -16.5t-26.5 -10q-27 -2 -32 -10.5t-5 -45.5v-16q0 -8 1 -24.5t0 -21.5t-3 -14.5t-8 -11.5t-17.5 -5t-27.5 -3h-203h-23q-6 0 -16 3t-13 10.5t-3 19.5v41q0 59 -11 70q-12 10 -55 10h-233q-57 0 -80 15.5t-23 66.5zM1303 243.5q0 -26.5 96 -26.5h41 q70 0 82 9.5t12 68.5q0 16 1 51t1 51q0 68 -35 68q-27 0 -59 -37l-84 -96q-55 -62 -55 -88.5z" />
<glyph unicode="&#xbd;" horiz-adv-x="1937" d="M27 551q0 20 18 34.5t43 14.5q10 0 32.5 -4t35.5 -4q39 0 56 35t17 157v148q0 45 -12 61.5t-57 16.5q-80 0 -92 10q-10 10 -11 29q0 68 174.5 109.5t321.5 41.5q111 0 111 -55q0 -23 -16.5 -33t-35 -13t-35 -29t-16.5 -75v-131q0 -147 12 -209q8 -37 37 -51t58.5 -13 t54.5 -8.5t25 -37.5q0 -25 -16.5 -40.5t-99.5 -30.5t-233 -15q-178 0 -275 26.5t-97 65.5zM469 -90q0 16 6 31.5t27.5 48.5t50.5 74.5t87 136t126 211.5l479 829q20 37 31.5 52.5t35 26.5t58.5 11q96 0 96 -47q0 -27 -12 -52.5t-36.5 -58t-86 -129t-133.5 -217.5l-387 -661 q-29 -49 -56.5 -98.5t-42 -77t-29.5 -54t-24.5 -39t-20.5 -22.5t-21.5 -13t-26.5 -3q-39 0 -80 11t-41 40zM1110 33q0 14 12.5 28.5t83.5 77.5q229 201 230 299q0 33 -19.5 51.5t-54.5 18.5q-43 0 -87 -35t-73 -35q-31 0 -58.5 21.5t-27.5 48.5q0 78 141.5 146.5t272.5 68.5 q158 0 238.5 -55.5t80.5 -137.5q0 -70 -56 -135t-112.5 -109t-56.5 -63q0 -20 18.5 -31.5t40.5 -11.5q53 0 100.5 37t61.5 37q61 0 62 -92q0 -96 -51.5 -158.5t-98.5 -62.5q-20 0 -29.5 6t-13.5 15t-10 17.5t-25.5 14.5t-52.5 6h-438q-78 0 -78 33z" />
<glyph unicode="&#xbe;" horiz-adv-x="1937" d="M10 446q0 29 21.5 48.5t52.5 19.5q14 0 66.5 -11t99.5 -11q70 0 124 31.5t54 84.5q0 51 -42 78t-99 27q-29 0 -61.5 -6.5t-35.5 -6.5q-20 0 -37.5 37t-17.5 60q0 20 45 36.5t89 45t44 77.5q0 33 -31.5 57.5t-70.5 24.5t-84 -21.5t-51 -21.5q-20 0 -34.5 24.5t-14.5 45.5 q0 49 112.5 92t231.5 43q47 0 97 -7t103.5 -23.5t88 -50.5t34.5 -81q0 -45 -25.5 -77.5t-50 -50t-24.5 -27.5q0 -12 35 -22.5t78 -22t77.5 -55.5t34.5 -117q0 -129 -130 -224.5t-378 -95.5q-35 0 -76.5 4t-97 13.5t-91.5 30.5t-36 52zM602 -90q0 16 6 31.5t27.5 48.5 t50.5 74.5t87 136t126 211.5l479 829q20 37 31.5 52.5t35 26.5t58.5 11q96 0 96 -47q0 -27 -12 -52.5t-36.5 -58t-86 -129t-133.5 -217.5l-387 -661q-29 -49 -56.5 -98.5t-42 -77t-29.5 -54t-24.5 -39t-20.5 -22.5t-21.5 -13t-26.5 -3q-39 0 -80 11t-41 40zM1139 117 q0 68 22.5 108.5t112.5 141.5l307 327q92 78 193 78q41 0 52 -19.5t11 -62.5v-407v-9q0 -18 1 -24t10.5 -11.5t27.5 -5.5q35 0 43 -7t8 -42v-98q0 -18 -1 -26.5t-9 -16.5t-27 -10q-27 -2 -32 -10.5t-5 -45.5v-16q0 -8 1 -24.5t0 -21.5t-3 -14.5t-8 -11.5t-17 -5t-28 -3h-203 h-22q-6 0 -16.5 3t-13.5 10.5t-3 19.5v41q0 59 -10 70q-12 10 -55 10h-234q-57 0 -79.5 15.5t-22.5 66.5zM1319 243.5q0 -26.5 96 -26.5h41q70 0 82 9.5t12 68.5q0 16 1 51t1 51q0 68 -34 68q-27 0 -60 -37l-84 -96q-55 -62 -55 -88.5z" />
<glyph unicode="&#xbf;" horiz-adv-x="1036" d="M20 -49q0 195 230 280q57 23 91 55.5t45 63.5t24.5 58.5t43 44t85.5 16.5q63 0 100 -36t37 -99q0 -86 -88 -220t-88 -223q0 -39 17.5 -71.5t53.5 -32.5q27 0 42.5 18.5t18.5 34t5 45.5q10 102 70.5 160.5t160.5 58.5q66 0 110 -42t44 -107q0 -145 -136 -267t-360 -122 q-111 0 -225.5 44t-197.5 135t-83 206zM328 831.5q0 94.5 66.5 161t160.5 66.5t160.5 -66.5t66.5 -161t-66.5 -161t-160.5 -66.5t-160.5 66.5t-66.5 161z" />
<glyph unicode="&#xc0;" horiz-adv-x="1779" d="M0 98q0 41 28.5 60.5t73.5 36t68 45.5q37 47 119 219l129 280q47 106 69.5 159.5t50 152t27.5 172.5q0 248 248 247q63 0 119.5 -27.5t104.5 -82.5t78 -97t69 -110q29 -49 197.5 -392t220.5 -462q23 -51 56.5 -76.5t59 -27.5t44 -18.5t18.5 -55.5q0 -35 -19.5 -61.5 t-62.5 -42t-75 -24.5t-92.5 -12.5t-77.5 -3.5h-67q-262 0 -365 21.5t-103 107.5q0 33 19 52.5t43 24.5t43 18.5t19 38.5q0 68 -64.5 84t-315.5 16q-94 0 -132 -17.5t-38 -86.5q0 -27 20 -40.5t45 -16.5t45.5 -22.5t20.5 -54.5q0 -125 -304 -125q-139 0 -212.5 18.5t-90 41 t-16.5 61.5zM592 1765q0 61 86 88t164 27q49 0 110.5 -14.5t61.5 -46.5q0 -12 -8.5 -25.5t-8.5 -21.5q0 -25 72 -74t72 -96q0 -76 -111 -76q-98 0 -185 29.5t-139.5 70.5t-83 80t-30.5 59zM621 620.5q0 -8.5 3 -13.5t8 -8t10 -5t13 -2h14h14h11h154q82 0 82 26q0 33 -76 166 q0 2 -10 18.5t-14.5 25t-14.5 23.5t-18.5 22.5t-19.5 13.5t-21 6q-12 0 -23.5 -10.5t-21 -22.5t-18.5 -31.5t-13 -33t-10 -29.5l-6 -18q-43 -119 -43 -127.5z" />
<glyph unicode="&#xc1;" horiz-adv-x="1779" d="M0 98q0 41 28.5 60.5t73.5 36t68 45.5q37 47 119 219l129 280q47 106 69.5 159.5t50 152t27.5 172.5q0 248 248 247q63 0 119.5 -27.5t104.5 -82.5t78 -97t69 -110q29 -49 197.5 -392t220.5 -462q23 -51 56.5 -76.5t59 -27.5t44 -18.5t18.5 -55.5q0 -35 -19.5 -61.5 t-62.5 -42t-75 -24.5t-92.5 -12.5t-77.5 -3.5h-67q-262 0 -365 21.5t-103 107.5q0 33 19 52.5t43 24.5t43 18.5t19 38.5q0 68 -64.5 84t-315.5 16q-94 0 -132 -17.5t-38 -86.5q0 -27 20 -40.5t45 -16.5t45.5 -22.5t20.5 -54.5q0 -125 -304 -125q-139 0 -212.5 18.5t-90 41 t-16.5 61.5zM616 1602q0 47 72 96t72 74q0 8 -8.5 21t-8.5 26q0 33 61.5 47t110.5 14q78 0 164 -26.5t86 -88.5q0 -20 -30.5 -59t-83 -80t-139.5 -70.5t-185 -29.5q-111 0 -111 76zM621 620.5q0 -8.5 3 -13.5t8 -8t10 -5t13 -2h14h14h11h154q82 0 82 26q0 33 -76 166 q0 2 -10 18.5t-14.5 25t-14.5 23.5t-18.5 22.5t-19.5 13.5t-21 6q-12 0 -23.5 -10.5t-21 -22.5t-18.5 -31.5t-13 -33t-10 -29.5l-6 -18q-43 -119 -43 -127.5z" />
<glyph unicode="&#xc2;" horiz-adv-x="1779" d="M0 98q0 41 28.5 60.5t73.5 36t68 45.5q37 47 119 219l129 280q47 106 69.5 159.5t50 152t27.5 172.5q0 248 248 247q63 0 119.5 -27.5t104.5 -82.5t78 -97t69 -110q29 -49 197.5 -392t220.5 -462q23 -51 56.5 -76.5t59 -27.5t44 -18.5t18.5 -55.5q0 -35 -19.5 -61.5 t-62.5 -42t-75 -24.5t-92.5 -12.5t-77.5 -3.5h-67q-262 0 -365 21.5t-103 107.5q0 33 19 52.5t43 24.5t43 18.5t19 38.5q0 68 -64.5 84t-315.5 16q-94 0 -132 -17.5t-38 -86.5q0 -27 20 -40.5t45 -16.5t45.5 -22.5t20.5 -54.5q0 -125 -304 -125q-139 0 -212.5 18.5t-90 41 t-16.5 61.5zM469 1610q0 68 165 185.5t230.5 117.5t230.5 -118t165 -185q0 -37 -21.5 -61.5t-58.5 -24.5q-41 0 -155 58t-161 58t-160.5 -58t-154.5 -58q-37 0 -58.5 24.5t-21.5 61.5zM621 620.5q0 -8.5 3 -13.5t8 -8t10 -5t13 -2h14h14h11h154q82 0 82 26q0 33 -76 166 q0 2 -10 18.5t-14.5 25t-14.5 23.5t-18.5 22.5t-19.5 13.5t-21 6q-12 0 -23.5 -10.5t-21 -22.5t-18.5 -31.5t-13 -33t-10 -29.5l-6 -18q-43 -119 -43 -127.5z" />
<glyph unicode="&#xc3;" horiz-adv-x="1779" d="M0 98q0 41 28.5 60.5t73.5 36t68 45.5q37 47 119 219l129 280q47 106 69.5 159.5t50 152t27.5 172.5q0 248 248 247q63 0 119.5 -27.5t104.5 -82.5t78 -97t69 -110q29 -49 197.5 -392t220.5 -462q23 -51 56.5 -76.5t59 -27.5t44 -18.5t18.5 -55.5q0 -35 -19.5 -61.5 t-62.5 -42t-75 -24.5t-92.5 -12.5t-77.5 -3.5h-67q-262 0 -365 21.5t-103 107.5q0 33 19 52.5t43 24.5t43 18.5t19 38.5q0 68 -64.5 84t-315.5 16q-94 0 -132 -17.5t-38 -86.5q0 -27 20 -40.5t45 -16.5t45.5 -22.5t20.5 -54.5q0 -125 -304 -125q-139 0 -212.5 18.5t-90 41 t-16.5 61.5zM385 1659q0 84 67.5 146.5t157.5 62.5q88 0 249 -58.5t190 -58.5q16 0 20 6t4 23q0 88 98 88q84 0 129.5 -22.5t45.5 -90.5q0 -84 -67 -146.5t-157 -62.5t-249.5 58.5t-188.5 58.5q-16 0 -20.5 -6t-4.5 -23q0 -88 -98 -88q-84 0 -130 22.5t-46 90.5zM621 620.5 q0 -8.5 3 -13.5t8 -8t10 -5t13 -2h14h14h11h154q82 0 82 26q0 33 -76 166q0 2 -10 18.5t-14.5 25t-14.5 23.5t-18.5 22.5t-19.5 13.5t-21 6q-12 0 -23.5 -10.5t-21 -22.5t-18.5 -31.5t-13 -33t-10 -29.5l-6 -18q-43 -119 -43 -127.5z" />
<glyph unicode="&#xc4;" horiz-adv-x="1779" d="M0 98q0 41 28.5 60.5t73.5 36t68 45.5q37 47 119 219l129 280q47 106 69.5 159.5t50 152t27.5 172.5q0 248 248 247q63 0 119.5 -27.5t104.5 -82.5t78 -97t69 -110q29 -49 197.5 -392t220.5 -462q23 -51 56.5 -76.5t59 -27.5t44 -18.5t18.5 -55.5q0 -35 -19.5 -61.5 t-62.5 -42t-75 -24.5t-92.5 -12.5t-77.5 -3.5h-67q-262 0 -365 21.5t-103 107.5q0 33 19 52.5t43 24.5t43 18.5t19 38.5q0 68 -64.5 84t-315.5 16q-94 0 -132 -17.5t-38 -86.5q0 -27 20 -40.5t45 -16.5t45.5 -22.5t20.5 -54.5q0 -125 -304 -125q-139 0 -212.5 18.5t-90 41 t-16.5 61.5zM311 1681.5q0 67.5 60.5 108.5t124 51t131.5 10q82 0 150.5 -29.5t68.5 -101.5q0 -63 -66.5 -105t-138.5 -55.5t-135 -13.5q-74 0 -134.5 34t-60.5 101.5zM621 620.5q0 -8.5 3 -13.5t8 -8t10 -5t13 -2h14h14h11h154q82 0 82 26q0 33 -76 166q0 2 -10 18.5 t-14.5 25t-14.5 23.5t-18.5 22.5t-19.5 13.5t-21 6q-12 0 -23.5 -10.5t-21 -22.5t-18.5 -31.5t-13 -33t-10 -29.5l-6 -18q-43 -119 -43 -127.5zM936 1681.5q0 67.5 60.5 108.5t124 51t130.5 10q82 0 150.5 -29.5t68.5 -101.5q0 -63 -66.5 -105t-138 -55.5t-135.5 -13.5 q-74 0 -134 34t-60 101.5z" />
<glyph unicode="&#xc5;" horiz-adv-x="1779" d="M0 98q0 41 28.5 60.5t73.5 36t68 45.5q37 47 119 219l129 280q47 106 69.5 159.5t50 152t27.5 172.5q0 248 248 247q63 0 119.5 -27.5t104.5 -82.5t78 -97t69 -110q29 -49 197.5 -392t220.5 -462q23 -51 56.5 -76.5t59 -27.5t44 -18.5t18.5 -55.5q0 -35 -19.5 -61.5 t-62.5 -42t-75 -24.5t-92.5 -12.5t-77.5 -3.5h-67q-262 0 -365 21.5t-103 107.5q0 33 19 52.5t43 24.5t43 18.5t19 38.5q0 68 -64.5 84t-315.5 16q-94 0 -132 -17.5t-38 -86.5q0 -27 20 -40.5t45 -16.5t45.5 -22.5t20.5 -54.5q0 -125 -304 -125q-139 0 -212.5 18.5t-90 41 t-16.5 61.5zM551 1736.5q0 116.5 90 166t223 49.5q76 0 141.5 -16.5t119 -67.5t53.5 -131t-53.5 -131.5t-119 -67.5t-141.5 -16q-133 0 -223 49t-90 165.5zM621 620.5q0 -8.5 3 -13.5t8 -8t10 -5t13 -2h14h14h11h154q82 0 82 26q0 33 -76 166q0 2 -10 18.5t-14.5 25 t-14.5 23.5t-18.5 22.5t-19.5 13.5t-21 6q-12 0 -23.5 -10.5t-21 -22.5t-18.5 -31.5t-13 -33t-10 -29.5l-6 -18q-43 -119 -43 -127.5zM762 1737q0 -49 26.5 -84t75.5 -35t76 35t27 84t-27 83.5t-76 34.5t-75.5 -34.5t-26.5 -83.5z" />
<glyph unicode="&#xc6;" horiz-adv-x="2226" d="M0 106q0 45 30.5 64.5t73.5 36t59.5 43t63.5 102.5t59.5 97.5t51.5 85t52 86t46 77t49.5 83t44 77.5t49 87t47 86t52.5 99q2 6 13 26t13.5 25t9.5 21.5t9 25.5t4 23.5t2 30.5q0 104 53.5 129t249.5 25h580q121 0 198.5 10t109.5 20.5t38 10.5q78 0 122 -100.5t44 -190.5 q0 -59 -25.5 -103.5t-81.5 -44.5q-43 0 -66.5 20.5t-40 49.5t-43 57.5t-94 49t-176.5 20.5q-129 0 -165.5 -25.5t-38.5 -126.5v-125q0 -88 18.5 -105t112.5 -17q51 0 73.5 35.5t22.5 77.5t19.5 78t68.5 36q127 0 127 -311q0 -43 -5 -89.5t-17.5 -105.5t-42 -97t-72.5 -38 q-41 0 -56.5 33.5t-16.5 73.5t-32.5 74t-101.5 34q-31 0 -49.5 -11.5t-25.5 -38t-8 -43t-1 -50.5q0 -78 1 -121t12.5 -79t18.5 -50.5t38.5 -24.5t54.5 -10h82h28q98 0 168 21.5t103 53t58.5 69.5t37.5 70t38 53.5t64 21.5q45 0 72 -41t27 -90q0 -109 -66.5 -249.5 t-126.5 -140.5q-4 0 -90 13q-113 10 -172 10h-538q-33 0 -90.5 -1t-79.5 -1q-98 -4 -129 -4q-33 0 -52.5 2t-44 9t-37 26.5t-12.5 50.5q0 37 21.5 60.5t48 31.5t48 25.5t21.5 42.5q0 16 -6 28.5t-20.5 19.5t-25.5 11t-34.5 6t-31.5 2h-33h-25h-90h-10q-131 2 -131 -63 q0 -23 19.5 -39.5t43 -26.5t43 -32.5t19.5 -53.5q0 -117 -310 -117q-319 0 -319 129zM690 623q0 -14 5 -25.5t16.5 -18t20.5 -11.5t28.5 -6t27.5 -1h29h23q61 0 81.5 32t20.5 157v92v16v23v24q0 14 -3 23.5t-8 19.5t-13.5 15.5t-18.5 5.5t-20.5 -6.5t-17.5 -13.5t-17 -21.5 t-14.5 -21.5t-12.5 -22.5t-8 -17.5l-76 -135q-43 -79 -43 -108z" />
<glyph unicode="&#xc7;" horiz-adv-x="1548" d="M49 723q0 203 116 376t299 269t384 96q88 0 171 -25.5t138 -50t74 -24.5q25 0 50.5 7t41.5 7q72 0 134.5 -98t62.5 -258q0 -92 -51.5 -153.5t-139.5 -61.5q-57 0 -99 37t-73 90t-68.5 107.5t-109.5 91t-172 36.5q-109 0 -166 -80.5t-57 -179.5q0 -238 120.5 -399.5 t327.5 -161.5q88 0 156.5 22.5t99.5 48t59.5 48t47.5 22.5q41 0 64.5 -37.5t23.5 -82.5q0 -78 -62.5 -178.5t-134.5 -100.5q-25 0 -88 -29.5t-159.5 -59.5t-200.5 -30l100 -96q4 -4 21.5 -20.5t23.5 -23.5t17.5 -21.5t15.5 -28.5t4 -29q0 -43 -41 -73.5t-88 -41t-88 -10.5 q-98 0 -143.5 35t-45.5 70q0 39 35 55t69 24.5t34 24.5q0 10 -15 35l-82 121q-262 59 -434 264t-172 467z" />
<glyph unicode="&#xc8;" horiz-adv-x="1486" d="M29 1331q0 27 9 45.5t27.5 29.5t36 18.5t48 9.5t47 3t48 0t40.5 -1h589q121 0 199 10t109.5 20.5t38.5 10.5q78 0 121.5 -100.5t43.5 -190.5q0 -59 -25.5 -103.5t-80.5 -44.5q-43 0 -66.5 20.5t-40 49.5t-43 57.5t-94 49t-176.5 20.5q-53 0 -87 -3t-58.5 -12.5 t-34.5 -24.5t-18.5 -40t-6.5 -58.5t0 -80.5v-58q0 -88 18.5 -105t112.5 -17q51 0 74 35.5t23 77.5t19.5 78t68.5 36q127 0 127 -311q0 -43 -5.5 -89.5t-17.5 -105.5t-41.5 -97t-72.5 -38q-41 0 -56.5 33.5t-16.5 73.5t-33 74t-101 34q-31 0 -49.5 -11.5t-25.5 -38t-8 -43 t-1 -50.5q0 -78 1 -121t12 -79t18.5 -50.5t39 -24.5t54.5 -10h82h28q98 0 168 21.5t102.5 53t58.5 69.5t38 70t37.5 53.5t64.5 21.5q45 0 72 -41t27 -90q0 -109 -67 -249.5t-126 -140.5q-4 0 -90 13q-113 10 -172 10h-842q-47 0 -77.5 9t-42 25.5t-14.5 28t-3 25.5 q0 37 22.5 55.5t49 25.5t52 46t30.5 113q18 291 19 354t-13 352q-4 86 -23.5 136.5t-43 63.5t-47.5 19.5t-40 22.5t-16 55zM469 1765q0 61 86 88t164 27q49 0 110.5 -14.5t61.5 -46.5q0 -12 -8.5 -25.5t-8.5 -21.5q0 -25 72 -74t72 -96q0 -76 -111 -76q-98 0 -185 29.5 t-139.5 70.5t-83 80t-30.5 59z" />
<glyph unicode="&#xc9;" horiz-adv-x="1486" d="M29 1331q0 27 9 45.5t27.5 29.5t36 18.5t48 9.5t47 3t48 0t40.5 -1h589q121 0 199 10t109.5 20.5t38.5 10.5q78 0 121.5 -100.5t43.5 -190.5q0 -59 -25.5 -103.5t-80.5 -44.5q-43 0 -66.5 20.5t-40 49.5t-43 57.5t-94 49t-176.5 20.5q-53 0 -87 -3t-58.5 -12.5 t-34.5 -24.5t-18.5 -40t-6.5 -58.5t0 -80.5v-58q0 -88 18.5 -105t112.5 -17q51 0 74 35.5t23 77.5t19.5 78t68.5 36q127 0 127 -311q0 -43 -5.5 -89.5t-17.5 -105.5t-41.5 -97t-72.5 -38q-41 0 -56.5 33.5t-16.5 73.5t-33 74t-101 34q-31 0 -49.5 -11.5t-25.5 -38t-8 -43 t-1 -50.5q0 -78 1 -121t12 -79t18.5 -50.5t39 -24.5t54.5 -10h82h28q98 0 168 21.5t102.5 53t58.5 69.5t38 70t37.5 53.5t64.5 21.5q45 0 72 -41t27 -90q0 -109 -67 -249.5t-126 -140.5q-4 0 -90 13q-113 10 -172 10h-842q-47 0 -77.5 9t-42 25.5t-14.5 28t-3 25.5 q0 37 22.5 55.5t49 25.5t52 46t30.5 113q18 291 19 354t-13 352q-4 86 -23.5 136.5t-43 63.5t-47.5 19.5t-40 22.5t-16 55zM469 1602q0 47 71.5 96t71.5 74q0 8 -8 21t-8 26q0 33 61.5 47t110.5 14q78 0 164 -26.5t86 -88.5q0 -20 -31 -59t-83 -80t-139 -70.5t-185 -29.5 q-111 0 -111 76z" />
<glyph unicode="&#xca;" horiz-adv-x="1486" d="M29 1331q0 27 9 45.5t27.5 29.5t36 18.5t48 9.5t47 3t48 0t40.5 -1h589q121 0 199 10t109.5 20.5t38.5 10.5q78 0 121.5 -100.5t43.5 -190.5q0 -59 -25.5 -103.5t-80.5 -44.5q-43 0 -66.5 20.5t-40 49.5t-43 57.5t-94 49t-176.5 20.5q-53 0 -87 -3t-58.5 -12.5 t-34.5 -24.5t-18.5 -40t-6.5 -58.5t0 -80.5v-58q0 -88 18.5 -105t112.5 -17q51 0 74 35.5t23 77.5t19.5 78t68.5 36q127 0 127 -311q0 -43 -5.5 -89.5t-17.5 -105.5t-41.5 -97t-72.5 -38q-41 0 -56.5 33.5t-16.5 73.5t-33 74t-101 34q-31 0 -49.5 -11.5t-25.5 -38t-8 -43 t-1 -50.5q0 -78 1 -121t12 -79t18.5 -50.5t39 -24.5t54.5 -10h82h28q98 0 168 21.5t102.5 53t58.5 69.5t38 70t37.5 53.5t64.5 21.5q45 0 72 -41t27 -90q0 -109 -67 -249.5t-126 -140.5q-4 0 -90 13q-113 10 -172 10h-842q-47 0 -77.5 9t-42 25.5t-14.5 28t-3 25.5 q0 37 22.5 55.5t49 25.5t52 46t30.5 113q18 291 19 354t-13 352q-4 86 -23.5 136.5t-43 63.5t-47.5 19.5t-40 22.5t-16 55zM348 1610q0 68 165 185.5t230.5 117.5t230.5 -118t165 -185q0 -37 -21.5 -61.5t-58.5 -24.5q-41 0 -154.5 58t-161 58t-161 -58t-154.5 -58 q-37 0 -58.5 24.5t-21.5 61.5z" />
<glyph unicode="&#xcb;" horiz-adv-x="1486" d="M29 1331q0 27 9 45.5t27.5 29.5t36 18.5t48 9.5t47 3t48 0t40.5 -1h589q121 0 199 10t109.5 20.5t38.5 10.5q78 0 121.5 -100.5t43.5 -190.5q0 -59 -25.5 -103.5t-80.5 -44.5q-43 0 -66.5 20.5t-40 49.5t-43 57.5t-94 49t-176.5 20.5q-53 0 -87 -3t-58.5 -12.5 t-34.5 -24.5t-18.5 -40t-6.5 -58.5t0 -80.5v-58q0 -88 18.5 -105t112.5 -17q51 0 74 35.5t23 77.5t19.5 78t68.5 36q127 0 127 -311q0 -43 -5.5 -89.5t-17.5 -105.5t-41.5 -97t-72.5 -38q-41 0 -56.5 33.5t-16.5 73.5t-33 74t-101 34q-31 0 -49.5 -11.5t-25.5 -38t-8 -43 t-1 -50.5q0 -78 1 -121t12 -79t18.5 -50.5t39 -24.5t54.5 -10h82h28q98 0 168 21.5t102.5 53t58.5 69.5t38 70t37.5 53.5t64.5 21.5q45 0 72 -41t27 -90q0 -109 -67 -249.5t-126 -140.5q-4 0 -90 13q-113 10 -172 10h-842q-47 0 -77.5 9t-42 25.5t-14.5 28t-3 25.5 q0 37 22.5 55.5t49 25.5t52 46t30.5 113q18 291 19 354t-13 352q-4 86 -23.5 136.5t-43 63.5t-47.5 19.5t-40 22.5t-16 55zM164 1681.5q0 67.5 60.5 108.5t124 51t130.5 10q82 0 150.5 -29.5t68.5 -101.5q0 -63 -66.5 -105t-138 -55.5t-135.5 -13.5q-74 0 -134 34t-60 101.5 zM788 1681.5q0 67.5 60.5 108.5t124 51t131.5 10q82 0 150.5 -29.5t68.5 -101.5q0 -63 -66.5 -105t-138 -55.5t-135.5 -13.5q-74 0 -134.5 34t-60.5 101.5z" />
<glyph unicode="&#xcc;" horiz-adv-x="890" d="M29 1311q0 35 29.5 61.5t82 42t101.5 25.5t109.5 13t86 4t49.5 1q375 0 375 -143q0 -33 -19.5 -51.5t-53 -35t-52.5 -36.5q-41 -47 -41 -373v-203q0 -174 9.5 -255.5t18.5 -95t38 -29.5q8 -4 35.5 -19.5t36 -22t18.5 -23.5t10 -40q0 -25 -5 -41t-30.5 -38.5t-72.5 -38 t-138.5 -26t-220.5 -10.5q-344 0 -344 134q0 29 17.5 48t46 35.5t39.5 30.5q45 53 45 391v203q0 293 -43 348q-12 14 -69.5 56.5t-57.5 87.5zM172 1765q0 61 86 88t164 27q49 0 110.5 -14.5t61.5 -46.5q0 -12 -8 -25.5t-8 -21.5q0 -25 71.5 -74t71.5 -96q0 -76 -111 -76 q-98 0 -185 29.5t-139.5 70.5t-83 80t-30.5 59z" />
<glyph unicode="&#xcd;" horiz-adv-x="890" d="M29 1311q0 35 29.5 61.5t82 42t101.5 25.5t109.5 13t86 4t49.5 1q375 0 375 -143q0 -33 -19.5 -51.5t-53 -35t-52.5 -36.5q-41 -47 -41 -373v-203q0 -174 9.5 -255.5t18.5 -95t38 -29.5q8 -4 35.5 -19.5t36 -22t18.5 -23.5t10 -40q0 -25 -5 -41t-30.5 -38.5t-72.5 -38 t-138.5 -26t-220.5 -10.5q-344 0 -344 134q0 29 17.5 48t46 35.5t39.5 30.5q45 53 45 391v203q0 293 -43 348q-12 14 -69.5 56.5t-57.5 87.5zM172 1602q0 47 71.5 96t71.5 74q0 8 -8 21t-8 26q0 33 61.5 47t110.5 14q78 0 164 -26.5t86 -88.5q0 -20 -31 -59t-83 -80 t-139 -70.5t-185 -29.5q-111 0 -111 76z" />
<glyph unicode="&#xce;" horiz-adv-x="890" d="M29 1311q0 35 29.5 61.5t82 42t101.5 25.5t109.5 13t86 4t49.5 1q375 0 375 -143q0 -33 -19.5 -51.5t-53 -35t-52.5 -36.5q-41 -47 -41 -373v-203q0 -174 9.5 -255.5t18.5 -95t38 -29.5q8 -4 35.5 -19.5t36 -22t18.5 -23.5t10 -40q0 -25 -5 -41t-30.5 -38.5t-72.5 -38 t-138.5 -26t-220.5 -10.5q-344 0 -344 134q0 29 17.5 48t46 35.5t39.5 30.5q45 53 45 391v203q0 293 -43 348q-12 14 -69.5 56.5t-57.5 87.5zM49 1610q0 68 165 185.5t230.5 117.5t230.5 -118t165 -185q0 -37 -21.5 -61.5t-58.5 -24.5q-41 0 -154.5 58t-161 58t-161 -58 t-154.5 -58q-37 0 -58.5 24.5t-21.5 61.5z" />
<glyph unicode="&#xcf;" horiz-adv-x="890" d="M-133 1681.5q0 67.5 60.5 108.5t124 51t130.5 10q82 0 150.5 -29.5t68.5 -101.5q0 -63 -66.5 -105t-138 -55.5t-135.5 -13.5q-74 0 -134 34t-60 101.5zM29 1311q0 35 29.5 61.5t82 42t101.5 25.5t109.5 13t86 4t49.5 1q375 0 375 -143q0 -33 -19.5 -51.5t-53 -35 t-52.5 -36.5q-41 -47 -41 -373v-203q0 -174 9.5 -255.5t18.5 -95t38 -29.5q8 -4 35.5 -19.5t36 -22t18.5 -23.5t10 -40q0 -25 -5 -41t-30.5 -38.5t-72.5 -38t-138.5 -26t-220.5 -10.5q-344 0 -344 134q0 29 17.5 48t46 35.5t39.5 30.5q45 53 45 391v203q0 293 -43 348 q-12 14 -69.5 56.5t-57.5 87.5zM492 1681.5q0 67.5 60 108.5t123.5 51t131.5 10q82 0 150.5 -29.5t68.5 -101.5q0 -63 -66.5 -105t-138 -55.5t-135.5 -13.5q-74 0 -134 34t-60 101.5z" />
<glyph unicode="&#xd0;" horiz-adv-x="1726" d="M-4 791q0 39 2 54t10 25.5t29 12.5h131q18 0 28.5 9t13.5 18.5t3 15.5v215q0 49 -23.5 75.5t-51 32.5t-51.5 27.5t-24 64.5q0 109 191 109h668q205 0 356.5 -59.5t236 -164t123.5 -228.5t39 -269q0 -147 -44 -277t-131 -234.5t-232.5 -166t-333.5 -61.5q-129 0 -225 6 q-127 4 -176 4q-59 0 -175 -4q-86 -6 -174 -6q-59 0 -108 29.5t-49 86.5q0 39 17 56.5t42 25t50.5 21.5t42 64.5t16.5 136.5v217q0 61 -33 61h-131q-27 0 -32 21t-5 82zM705 350q0 -84 23.5 -115.5t102.5 -31.5q303 0 304 469q0 172 -30 287.5t-82 171t-105.5 76 t-120.5 20.5q-59 0 -75.5 -23.5t-16.5 -89.5v-168q0 -66 28 -65h123q33 0 40 -18.5t7 -76.5q0 -27 -1 -39t-5 -28.5t-13.5 -22.5t-25.5 -6h-125q-20 -2 -24 -18.5t-4 -57.5v-264z" />
<glyph unicode="&#xd1;" horiz-adv-x="1787" d="M29 1321q0 139 354 137h14q96 0 134 -14t108 -76l485 -426q96 -80 127 -80q53 0 54 119q0 133 -19 186q-12 35 -47 54.5t-62.5 42t-27.5 69.5q0 45 29.5 74t90 38t88 11t87.5 2h16q55 0 91 -2t91.5 -12t85 -40t29.5 -77q0 -39 -17.5 -62.5t-41 -30.5t-48 -25.5 t-36.5 -49.5q-27 -74 -27 -278v-531v-20v-66q0 -25 -3 -73t-11 -79.5t-21.5 -65.5t-36 -51.5t-53.5 -17.5q-47 0 -106 52l-633 567q-82 76 -125 76q-66 0 -66 -176q0 -125 15 -187q10 -43 34.5 -68.5t47 -33.5t40 -27.5t17.5 -52.5q0 -150 -307 -150q-305 0 -305 146 q0 37 19.5 58.5t43 30.5t47 36.5t29.5 70.5q18 113 18 310q0 297 -22 444q-10 70 -41 108t-61.5 47t-54 30.5t-23.5 62.5zM414 1659q0 84 67.5 146.5t157.5 62.5q88 0 249 -58.5t189 -58.5q16 0 20.5 6t4.5 23q0 88 98 88q84 0 129 -22.5t45 -90.5q0 -84 -66.5 -146.5 t-156.5 -62.5t-250 58.5t-188 58.5q-16 0 -20.5 -6t-4.5 -23q0 -88 -98 -88q-84 0 -130 22.5t-46 90.5z" />
<glyph unicode="&#xd2;" horiz-adv-x="1675" d="M49 723q0 324 227.5 532.5t565.5 208.5q162 0 298 -54t223 -138t147.5 -187.5t87 -201t26.5 -181.5q0 -213 -114.5 -382.5t-298 -259t-394.5 -89.5q-326 0 -547 213t-221 539zM563 1765q0 61 86 88t164 27q49 0 110.5 -14.5t61.5 -46.5q0 -12 -8 -25.5t-8 -21.5 q0 -25 71.5 -74t71.5 -96q0 -76 -111 -76q-98 0 -185 29.5t-139 70.5t-83 80t-31 59zM575 940q0 -72 24 -178.5t65 -218t109.5 -189.5t146.5 -78q88 0 133 63.5t45 156.5q0 76 -21.5 183t-62.5 217t-112 186.5t-154 76.5q-80 0 -126.5 -67.5t-46.5 -151.5z" />
<glyph unicode="&#xd3;" horiz-adv-x="1675" d="M49 723q0 324 227.5 532.5t565.5 208.5q162 0 298 -54t223 -138t147.5 -187.5t87 -201t26.5 -181.5q0 -213 -114.5 -382.5t-298 -259t-394.5 -89.5q-326 0 -547 213t-221 539zM563 1602q0 47 72 96t72 74q0 8 -8.5 21t-8.5 26q0 33 61.5 47t110.5 14q78 0 164 -26.5 t86 -88.5q0 -20 -30.5 -59t-83 -80t-139.5 -70.5t-185 -29.5q-111 0 -111 76zM575 940q0 -72 24 -178.5t65 -218t109.5 -189.5t146.5 -78q88 0 133 63.5t45 156.5q0 76 -21.5 183t-62.5 217t-112 186.5t-154 76.5q-80 0 -126.5 -67.5t-46.5 -151.5z" />
<glyph unicode="&#xd4;" horiz-adv-x="1675" d="M49 723q0 324 227.5 532.5t565.5 208.5q162 0 298 -54t223 -138t147.5 -187.5t87 -201t26.5 -181.5q0 -213 -114.5 -382.5t-298 -259t-394.5 -89.5q-326 0 -547 213t-221 539zM442 1610q0 68 165 185.5t230.5 117.5t230.5 -118t165 -185q0 -37 -21.5 -61.5t-58.5 -24.5 q-41 0 -154.5 58t-160.5 58t-161 -58t-155 -58q-37 0 -58.5 24.5t-21.5 61.5zM575 940q0 -72 24 -178.5t65 -218t109.5 -189.5t146.5 -78q88 0 133 63.5t45 156.5q0 76 -21.5 183t-62.5 217t-112 186.5t-154 76.5q-80 0 -126.5 -67.5t-46.5 -151.5z" />
<glyph unicode="&#xd5;" horiz-adv-x="1675" d="M49 723q0 324 227.5 532.5t565.5 208.5q162 0 298 -54t223 -138t147.5 -187.5t87 -201t26.5 -181.5q0 -213 -114.5 -382.5t-298 -259t-394.5 -89.5q-326 0 -547 213t-221 539zM358 1659q0 84 68 146.5t158 62.5q88 0 248.5 -58.5t189.5 -58.5q16 0 20.5 6t4.5 23 q0 88 98 88q84 0 129 -22.5t45 -90.5q0 -84 -66.5 -146.5t-156.5 -62.5q-88 0 -250 58.5t-189 58.5q-16 0 -20 -6t-4 -23q0 -88 -98 -88q-84 0 -130.5 22.5t-46.5 90.5zM575 940q0 -72 24 -178.5t65 -218t109.5 -189.5t146.5 -78q88 0 133 63.5t45 156.5q0 76 -21.5 183 t-62.5 217t-112 186.5t-154 76.5q-80 0 -126.5 -67.5t-46.5 -151.5z" />
<glyph unicode="&#xd6;" horiz-adv-x="1675" d="M49 723q0 324 227.5 532.5t565.5 208.5q162 0 298 -54t223 -138t147.5 -187.5t87 -201t26.5 -181.5q0 -213 -114.5 -382.5t-298 -259t-394.5 -89.5q-326 0 -547 213t-221 539zM258 1681.5q0 67.5 60.5 108.5t124 51t130.5 10q82 0 151 -29.5t69 -101.5q0 -63 -67 -105 t-138.5 -55.5t-134.5 -13.5q-74 0 -134.5 34t-60.5 101.5zM575 940q0 -72 24 -178.5t65 -218t109.5 -189.5t146.5 -78q88 0 133 63.5t45 156.5q0 76 -21.5 183t-62.5 217t-112 186.5t-154 76.5q-80 0 -126.5 -67.5t-46.5 -151.5zM883 1681.5q0 67.5 60.5 108.5t123.5 51 t131 10q82 0 150.5 -29.5t68.5 -101.5q0 -63 -66.5 -105t-138 -55.5t-135.5 -13.5q-74 0 -134 34t-60 101.5z" />
<glyph unicode="&#xd7;" d="M178 205q2 23 66 86l159 160q59 59 59.5 73.5t-59.5 73.5l-159 160q-63 63 -66 86q0 37 53.5 92t94.5 55q20 0 86 -65l159 -160q59 -59 73.5 -59t74.5 59l160 160q66 66 86 65q41 0 94 -55t53 -92q-2 -23 -65 -86l-160 -160q-59 -59 -59.5 -73.5t59.5 -73.5l160 -160 q63 -63 65 -86q0 -37 -53 -92.5t-94 -55.5q-20 0 -86 66l-160 160q-59 59 -73.5 59t-74.5 -59l-159 -160q-66 -66 -86 -66q-41 0 -94.5 55.5t-53.5 92.5z" />
<glyph unicode="&#xd8;" horiz-adv-x="1675" d="M49 723q0 324 227.5 532.5t565.5 208.5q309 0 524 -196l115 102q29 25 49 25q23 0 47 -35q27 -35 27 -45q0 -8 -6.5 -17.5t-20.5 -21.5l-14 -12l-109 -95q170 -223 170 -467q0 -213 -114.5 -382.5t-298 -259t-394.5 -89.5q-143 0 -291.5 52.5t-236.5 144.5l-103 -90 q-39 -33 -53 -33q-18 0 -45 27q-27 31 -27 47q0 25 43 57l101 86q-160 191 -156 461zM575 940q-2 -119 52 -309l360 313q-35 86 -99.5 150.5t-139.5 64.5q-80 0 -126.5 -67.5t-46.5 -151.5zM680 500q45 -98 100.5 -161t139.5 -63q88 0 133 63.5t45 156.5q0 115 -58 315z" />
<glyph unicode="&#xd9;" horiz-adv-x="1765" d="M29 1315v4q0 16 2 28.5t22.5 35t58.5 37t119.5 26.5t196.5 12q231 0 316 -37t85 -104q0 -49 -23.5 -68.5t-52 -22.5t-54 -44t-29.5 -125v-377q0 -399 309 -399q66 0 119 16t84.5 36.5t54.5 55.5t32 57.5t14 59.5t5 42v23v510q0 74 -27.5 115t-60.5 50t-60.5 29.5 t-27.5 59.5q0 123 322 123q303 0 303 -119q0 -37 -23.5 -58t-53.5 -30.5t-53.5 -44.5t-23.5 -98v-553q0 -35 -1 -62.5t-15.5 -92t-38 -114.5t-76.5 -112.5t-125 -103.5t-188.5 -70t-261.5 -29q-182 0 -320.5 42t-209.5 107.5t-120 143.5t-55 148.5t-15.5 125t3.5 72.5v8v474 q2 43 -17.5 75.5t-45 49t-47 42t-21.5 56.5zM608 1765q0 61 86 88t164 27q49 0 110.5 -14.5t61.5 -46.5q0 -12 -8 -25.5t-8 -21.5q0 -25 71.5 -74t71.5 -96q0 -76 -110 -76q-98 0 -185.5 29.5t-139.5 70.5t-83 80t-31 59z" />
<glyph unicode="&#xda;" horiz-adv-x="1765" d="M29 1315v4q0 16 2 28.5t22.5 35t58.5 37t119.5 26.5t196.5 12q231 0 316 -37t85 -104q0 -49 -23.5 -68.5t-52 -22.5t-54 -44t-29.5 -125v-377q0 -399 309 -399q66 0 119 16t84.5 36.5t54.5 55.5t32 57.5t14 59.5t5 42v23v510q0 74 -27.5 115t-60.5 50t-60.5 29.5 t-27.5 59.5q0 123 322 123q303 0 303 -119q0 -37 -23.5 -58t-53.5 -30.5t-53.5 -44.5t-23.5 -98v-553q0 -35 -1 -62.5t-15.5 -92t-38 -114.5t-76.5 -112.5t-125 -103.5t-188.5 -70t-261.5 -29q-182 0 -320.5 42t-209.5 107.5t-120 143.5t-55 148.5t-15.5 125t3.5 72.5v8v474 q2 43 -17.5 75.5t-45 49t-47 42t-21.5 56.5zM608 1602q0 47 72 96t72 74q0 8 -8.5 21t-8.5 26q0 33 61.5 47t110.5 14q78 0 164 -26.5t86 -88.5q0 -20 -30.5 -59t-83 -80t-139.5 -70.5t-185 -29.5q-111 0 -111 76z" />
<glyph unicode="&#xdb;" horiz-adv-x="1765" d="M29 1315v4q0 16 2 28.5t22.5 35t58.5 37t119.5 26.5t196.5 12q231 0 316 -37t85 -104q0 -49 -23.5 -68.5t-52 -22.5t-54 -44t-29.5 -125v-377q0 -399 309 -399q66 0 119 16t84.5 36.5t54.5 55.5t32 57.5t14 59.5t5 42v23v510q0 74 -27.5 115t-60.5 50t-60.5 29.5 t-27.5 59.5q0 123 322 123q303 0 303 -119q0 -37 -23.5 -58t-53.5 -30.5t-53.5 -44.5t-23.5 -98v-553q0 -35 -1 -62.5t-15.5 -92t-38 -114.5t-76.5 -112.5t-125 -103.5t-188.5 -70t-261.5 -29q-182 0 -320.5 42t-209.5 107.5t-120 143.5t-55 148.5t-15.5 125t3.5 72.5v8v474 q2 43 -17.5 75.5t-45 49t-47 42t-21.5 56.5zM487 1610q0 68 165 185.5t230.5 117.5t230.5 -118t165 -185q0 -37 -21.5 -61.5t-58.5 -24.5q-41 0 -154.5 58t-160.5 58t-161 -58t-155 -58q-37 0 -58.5 24.5t-21.5 61.5z" />
<glyph unicode="&#xdc;" horiz-adv-x="1765" d="M29 1315v4q0 16 2 28.5t22.5 35t58.5 37t119.5 26.5t196.5 12q231 0 316 -37t85 -104q0 -49 -23.5 -68.5t-52 -22.5t-54 -44t-29.5 -125v-377q0 -399 309 -399q66 0 119 16t84.5 36.5t54.5 55.5t32 57.5t14 59.5t5 42v23v510q0 74 -27.5 115t-60.5 50t-60.5 29.5 t-27.5 59.5q0 123 322 123q303 0 303 -119q0 -37 -23.5 -58t-53.5 -30.5t-53.5 -44.5t-23.5 -98v-553q0 -35 -1 -62.5t-15.5 -92t-38 -114.5t-76.5 -112.5t-125 -103.5t-188.5 -70t-261.5 -29q-182 0 -320.5 42t-209.5 107.5t-120 143.5t-55 148.5t-15.5 125t3.5 72.5v8v474 q2 43 -17.5 75.5t-45 49t-47 42t-21.5 56.5zM303 1681.5q0 67.5 60.5 108.5t124 51t130.5 10q82 0 151 -29.5t69 -101.5q0 -63 -66.5 -105t-138.5 -55.5t-135 -13.5q-74 0 -134.5 34t-60.5 101.5zM928 1681.5q0 67.5 60.5 108.5t124 51t130.5 10q82 0 150.5 -29.5 t68.5 -101.5q0 -63 -66.5 -105t-138 -55.5t-135.5 -13.5q-74 0 -134 34t-60 101.5z" />
<glyph unicode="&#xdd;" horiz-adv-x="1677" d="M-2 1319q0 23 2 34t24.5 34.5t66.5 36t139.5 23.5t230.5 11q121 0 207 -9t127 -20.5t62.5 -32t23.5 -31.5t2 -32q0 -29 -29 -62.5t-29 -53.5q0 -37 48.5 -106t84.5 -69q39 0 89.5 59.5t50.5 96.5q0 27 -30 62.5t-30 76.5q0 121 316 121q188 0 255.5 -25.5t67.5 -95.5 q0 -45 -25.5 -65.5t-60.5 -24.5t-83 -21.5t-81 -54.5l-251 -276q-63 -80 -80 -140.5t-17 -176.5q0 -248 29 -310q10 -23 46 -40t63.5 -39.5t27.5 -63.5q0 -147 -424 -148q-455 0 -454 148q0 47 29.5 67.5t69.5 37t54 49.5q33 76 33 339q0 86 -17.5 131.5t-72.5 116.5 l-232 269q-41 47 -102 73.5t-96 47t-35 63.5zM565 1602q0 47 72 96t72 74q0 8 -8.5 21t-8.5 26q0 33 61.5 47t110.5 14q78 0 164 -26.5t86 -88.5q0 -20 -30.5 -59t-83 -80t-139.5 -70.5t-185 -29.5q-111 0 -111 76z" />
<glyph unicode="&#xde;" horiz-adv-x="1472" d="M70 113q0 37 23.5 57t51 27.5t51 37t23.5 84.5v785q0 59 -23.5 93t-51 41t-51 27.5t-23.5 57.5q0 135 389 135q387 0 387 -137q0 -31 -24.5 -53.5t-54.5 -34.5t-54.5 -39t-24.5 -66q0 -43 57 -43q16 0 71.5 4.5t88.5 4.5q227 0 385 -87t158 -259q0 -174 -156.5 -267.5 t-386.5 -93.5q-31 0 -92 4t-92 4q-33 0 -33 -67q0 -53 24.5 -85t54.5 -42.5t54.5 -30.5t24.5 -53q0 -139 -387 -140q-389 1 -389 136zM692 627q0 -63 127 -64q88 0 137.5 54.5t49.5 119.5q0 74 -47.5 127.5t-131.5 53.5q-74 0 -104.5 -16.5t-30.5 -57.5v-217z" />
<glyph unicode="&#xdf;" horiz-adv-x="1388" d="M20 106q0 29 20.5 52.5t44.5 38t44.5 50.5t20.5 89v465q0 160 52 281.5t143 190t200.5 102.5t236.5 34q102 0 175 -29.5t107 -76t47 -85t13 -71.5q0 -61 -31.5 -110.5t-31.5 -61.5q0 -35 47 -108.5t102.5 -152.5t102.5 -191.5t47 -217.5q0 -150 -97.5 -239t-248.5 -89 q-106 0 -181 61.5t-75 121.5q0 16 19.5 28.5t42 21.5t42 35.5t19.5 69.5q0 80 -107.5 249t-107.5 243q0 70 31.5 123t68.5 79.5t68.5 57.5t31.5 57q0 74 -90 74q-27 0 -51.5 -10t-54 -40t-50 -76t-33 -128t-9.5 -186q4 -199 14 -365q4 -86 23.5 -135t39 -59.5t35 -26.5 t15.5 -47q0 -147 -388 -148q-297 0 -297 129z" />
<glyph unicode="&#xe0;" horiz-adv-x="1220" d="M29 264q0 127 126 226.5t373 99.5q33 0 42.5 1t25.5 6t20.5 20.5t4.5 41.5q0 209 -97 209q-41 0 -76.5 -34.5t-60.5 -75.5t-72 -76t-108 -35q-49 0 -82 32t-33 81q0 119 185.5 203t355.5 84q43 0 91 -6.5t112.5 -30t113.5 -59.5t84 -102.5t35 -154.5v-205q0 -84 9 -137 t22.5 -69.5t30 -23.5t30 -4t22.5 -6t9 -34q0 -88 -98.5 -166t-210.5 -78q-70 0 -113 27t-64.5 52.5t-39.5 25.5q-10 0 -23.5 -7.5t-35 -21.5t-38.5 -22q-90 -53 -200 -54q-139 0 -239.5 75t-100.5 218zM336 1389q0 61 86 87.5t164 26.5q49 0 110.5 -14t61.5 -47 q0 -12 -8.5 -25.5t-8.5 -21.5q0 -25 72 -74t72 -96q0 -76 -111 -76q-98 0 -185 29.5t-139.5 70.5t-83 80.5t-30.5 59.5zM455 309q0 -43 23.5 -76.5t64.5 -33.5q84 0 84 145q0 33 -1 47.5t-14.5 31.5t-40.5 17q-51 0 -83.5 -40t-32.5 -91z" />
<glyph unicode="&#xe1;" horiz-adv-x="1220" d="M29 264q0 127 126 226.5t373 99.5q33 0 42.5 1t25.5 6t20.5 20.5t4.5 41.5q0 209 -97 209q-41 0 -76.5 -34.5t-60.5 -75.5t-72 -76t-108 -35q-49 0 -82 32t-33 81q0 119 185.5 203t355.5 84q43 0 91 -6.5t112.5 -30t113.5 -59.5t84 -102.5t35 -154.5v-205q0 -84 9 -137 t22.5 -69.5t30 -23.5t30 -4t22.5 -6t9 -34q0 -88 -98.5 -166t-210.5 -78q-70 0 -113 27t-64.5 52.5t-39.5 25.5q-10 0 -23.5 -7.5t-35 -21.5t-38.5 -22q-90 -53 -200 -54q-139 0 -239.5 75t-100.5 218zM336 1225q0 47 71.5 96t71.5 74q0 8 -8 21.5t-8 25.5q0 33 61.5 47 t110.5 14q78 0 164 -26.5t86 -87.5q0 -20 -31 -59.5t-83 -80.5t-139 -70.5t-186 -29.5q-110 0 -110 76zM455 309q0 -43 23.5 -76.5t64.5 -33.5q84 0 84 145q0 33 -1 47.5t-14.5 31.5t-40.5 17q-51 0 -83.5 -40t-32.5 -91z" />
<glyph unicode="&#xe2;" horiz-adv-x="1220" d="M29 264q0 127 126 226.5t373 99.5q33 0 42.5 1t25.5 6t20.5 20.5t4.5 41.5q0 209 -97 209q-41 0 -76.5 -34.5t-60.5 -75.5t-72 -76t-108 -35q-49 0 -82 32t-33 81q0 119 185.5 203t355.5 84q43 0 91 -6.5t112.5 -30t113.5 -59.5t84 -102.5t35 -154.5v-205q0 -84 9 -137 t22.5 -69.5t30 -23.5t30 -4t22.5 -6t9 -34q0 -88 -98.5 -166t-210.5 -78q-70 0 -113 27t-64.5 52.5t-39.5 25.5q-10 0 -23.5 -7.5t-35 -21.5t-38.5 -22q-90 -53 -200 -54q-139 0 -239.5 75t-100.5 218zM215 1233q0 68 165 185.5t230.5 117.5t230.5 -118t165 -185 q0 -37 -21.5 -61.5t-58.5 -24.5q-41 0 -155 58.5t-161 58.5t-160.5 -58.5t-154.5 -58.5q-37 0 -58.5 24.5t-21.5 61.5zM455 309q0 -43 23.5 -76.5t64.5 -33.5q84 0 84 145q0 33 -1 47.5t-14.5 31.5t-40.5 17q-51 0 -83.5 -40t-32.5 -91z" />
<glyph unicode="&#xe3;" horiz-adv-x="1220" d="M29 264q0 127 126 226.5t373 99.5q33 0 42.5 1t25.5 6t20.5 20.5t4.5 41.5q0 209 -97 209q-41 0 -76.5 -34.5t-60.5 -75.5t-72 -76t-108 -35q-49 0 -82 32t-33 81q0 119 185.5 203t355.5 84q43 0 91 -6.5t112.5 -30t113.5 -59.5t84 -102.5t35 -154.5v-205q0 -84 9 -137 t22.5 -69.5t30 -23.5t30 -4t22.5 -6t9 -34q0 -88 -98.5 -166t-210.5 -78q-70 0 -113 27t-64.5 52.5t-39.5 25.5q-10 0 -23.5 -7.5t-35 -21.5t-38.5 -22q-90 -53 -200 -54q-139 0 -239.5 75t-100.5 218zM131 1282q0 84 67.5 146.5t157.5 62.5q88 0 249 -58.5t190 -58.5 q16 0 20 6t4 23q0 88 99 88q84 0 129 -22.5t45 -90.5q0 -84 -67 -146.5t-157 -62.5t-249.5 58.5t-188.5 58.5q-16 0 -20 -6t-4 -23q0 -88 -99 -88q-84 0 -130 22.5t-46 90.5zM455 309q0 -43 23.5 -76.5t64.5 -33.5q84 0 84 145q0 33 -1 47.5t-14.5 31.5t-40.5 17 q-51 0 -83.5 -40t-32.5 -91z" />
<glyph unicode="&#xe4;" horiz-adv-x="1220" d="M29 264q0 127 126 226.5t373 99.5q33 0 42.5 1t25.5 6t20.5 20.5t4.5 41.5q0 209 -97 209q-41 0 -76.5 -34.5t-60.5 -75.5t-72 -76t-108 -35q-49 0 -82 32t-33 81q0 119 185.5 203t355.5 84q43 0 91 -6.5t112.5 -30t113.5 -59.5t84 -102.5t35 -154.5v-205q0 -84 9 -137 t22.5 -69.5t30 -23.5t30 -4t22.5 -6t9 -34q0 -88 -98.5 -166t-210.5 -78q-70 0 -113 27t-64.5 52.5t-39.5 25.5q-10 0 -23.5 -7.5t-35 -21.5t-38.5 -22q-90 -53 -200 -54q-139 0 -239.5 75t-100.5 218zM31 1304.5q0 67.5 60.5 108.5t124 51.5t130.5 10.5q82 0 150.5 -30 t68.5 -102q0 -63 -66.5 -105t-138 -55.5t-135.5 -13.5q-74 0 -134 34t-60 101.5zM455 309q0 -43 23.5 -76.5t64.5 -33.5q84 0 84 145q0 33 -1 47.5t-14.5 31.5t-40.5 17q-51 0 -83.5 -40t-32.5 -91zM655 1304.5q0 67.5 60.5 108.5t124 51.5t131.5 10.5q82 0 150.5 -30 t68.5 -102q0 -63 -66.5 -105t-138.5 -55.5t-135 -13.5q-74 0 -134.5 34t-60.5 101.5z" />
<glyph unicode="&#xe5;" horiz-adv-x="1220" d="M29 264q0 127 126 226.5t373 99.5q33 0 42.5 1t25.5 6t20.5 20.5t4.5 41.5q0 209 -97 209q-41 0 -76.5 -34.5t-60.5 -75.5t-72 -76t-108 -35q-49 0 -82 32t-33 81q0 119 185.5 203t355.5 84q43 0 91 -6.5t112.5 -30t113.5 -59.5t84 -102.5t35 -154.5v-205q0 -84 9 -137 t22.5 -69.5t30 -23.5t30 -4t22.5 -6t9 -34q0 -88 -98.5 -166t-210.5 -78q-70 0 -113 27t-64.5 52.5t-39.5 25.5q-10 0 -23.5 -7.5t-35 -21.5t-38.5 -22q-90 -53 -200 -54q-139 0 -239.5 75t-100.5 218zM272 1360q0 117 90.5 166t223.5 49q76 0 141.5 -16.5t118.5 -67.5 t53 -131t-53 -131t-118.5 -67.5t-141.5 -16.5q-133 0 -223.5 49t-90.5 166zM455 309q0 -43 23.5 -76.5t64.5 -33.5q84 0 84 145q0 33 -1 47.5t-14.5 31.5t-40.5 17q-51 0 -83.5 -40t-32.5 -91zM483 1360q0 -49 27 -84t76 -35t75.5 35t26.5 84t-26.5 84t-75.5 35t-76 -35 t-27 -84z" />
<glyph unicode="&#xe6;" horiz-adv-x="1720" d="M29 264q0 127 126 226.5t373 99.5q33 0 42.5 1t25.5 6t20.5 20.5t4.5 41.5q0 209 -97 209q-41 0 -76.5 -34.5t-60.5 -75.5t-72 -76t-108 -35q-49 0 -82 32t-33 81q0 119 185.5 203t355.5 84q41 0 83 -6.5t72.5 -13.5t55 -15t39.5 -15l14 -6l41 15q39 14 108.5 27.5 t143.5 13.5q123 0 224.5 -44.5t158.5 -111t88 -136t31 -130.5q0 -92 -34 -123t-93 -31h-445h-11h-13q-4 0 -11.5 -1t-10.5 -4t-6 -9t-3 -15q0 -74 76 -131t153 -57q90 0 177.5 46t95.5 46q31 0 55.5 -35t24.5 -67q0 -111 -160 -192t-313 -81q-66 0 -126.5 13.5t-101.5 31 t-71.5 36t-48 31.5t-21.5 13l-31 -14q-31 -12 -78 -30.5t-102 -36t-116.5 -31t-108.5 -13.5q-139 0 -239.5 75t-100.5 218zM455 309q0 -43 23.5 -76.5t64.5 -33.5q84 0 84 145q0 33 -1 47.5t-14.5 31.5t-40.5 17q-51 0 -83.5 -40t-32.5 -91zM1055 725q0 -20 6 -33.5 t22.5 -18.5t26.5 -6t35.5 0t32.5 1h26h30q7 0 23.5 3t22.5 9t12 18.5t6 30.5q0 57 -32.5 94t-87.5 37q-49 0 -86 -42t-37 -93z" />
<glyph unicode="&#xe7;" horiz-adv-x="1132" d="M35 512q0 223 172 379t428 156q215 0 342 -97.5t127 -216.5q0 -86 -57.5 -144.5t-143.5 -58.5q-74 0 -113.5 40t-49 87.5t-37 87t-80.5 39.5q-63 0 -101.5 -53t-38.5 -121q0 -119 79 -212t196 -93q76 0 140.5 26.5t74.5 26.5q39 0 65.5 -35.5t26.5 -74.5 q0 -96 -129 -184.5t-324 -90.5l101 -98q4 -4 21.5 -20.5t23.5 -23.5t17 -21.5t15.5 -28.5t4.5 -29q0 -43 -41 -73.5t-88.5 -41t-87.5 -10.5q-98 0 -143.5 35t-45.5 70q0 39 35 55t68.5 24.5t33.5 24.5q0 10 -14 35l-86 127q-174 49 -282.5 188.5t-108.5 325.5z" />
<glyph unicode="&#xe8;" horiz-adv-x="1140" d="M35 502q0 231 170 388t405 157q123 0 224.5 -44.5t159 -111t88 -136t30.5 -130.5q0 -92 -34 -123t-93 -31h-444h-12h-13q-4 0 -11 -1t-10 -4t-6.5 -9t-3.5 -15q0 -74 76 -131t154 -57q90 0 177 46t95 46q31 0 55.5 -35t24.5 -67q0 -111 -159.5 -192t-313.5 -81 q-262 0 -410.5 158t-148.5 373zM297 1389q0 61 86 87.5t164 26.5q49 0 110.5 -14t61.5 -47q0 -12 -8.5 -25.5t-8.5 -21.5q0 -25 72 -74t72 -96q0 -76 -111 -76q-98 0 -185 29.5t-139.5 70.5t-83 80.5t-30.5 59.5zM475 725q0 -20 6 -33.5t22.5 -18.5t27 -6t36 0t31.5 1h27h29 q7 0 23.5 3t23 9t12.5 18.5t6 30.5q0 57 -33 94t-88 37q-49 0 -86 -42t-37 -93z" />
<glyph unicode="&#xe9;" horiz-adv-x="1140" d="M35 502q0 231 170 388t405 157q123 0 224.5 -44.5t159 -111t88 -136t30.5 -130.5q0 -92 -34 -123t-93 -31h-444h-12h-13q-4 0 -11 -1t-10 -4t-6.5 -9t-3.5 -15q0 -74 76 -131t154 -57q90 0 177 46t95 46q31 0 55.5 -35t24.5 -67q0 -111 -159.5 -192t-313.5 -81 q-262 0 -410.5 158t-148.5 373zM297 1225q0 47 71.5 96t71.5 74q0 8 -8 21.5t-8 25.5q0 33 61.5 47t110.5 14q78 0 164 -26.5t86 -87.5q0 -20 -31 -59.5t-83 -80.5t-139 -70.5t-185 -29.5q-111 0 -111 76zM475 725q0 -20 6 -33.5t22.5 -18.5t27 -6t36 0t31.5 1h27h29 q7 0 23.5 3t23 9t12.5 18.5t6 30.5q0 57 -33 94t-88 37q-49 0 -86 -42t-37 -93z" />
<glyph unicode="&#xea;" horiz-adv-x="1140" d="M35 502q0 231 170 388t405 157q123 0 224.5 -44.5t159 -111t88 -136t30.5 -130.5q0 -92 -34 -123t-93 -31h-444h-12h-13q-4 0 -11 -1t-10 -4t-6.5 -9t-3.5 -15q0 -74 76 -131t154 -57q90 0 177 46t95 46q31 0 55.5 -35t24.5 -67q0 -111 -159.5 -192t-313.5 -81 q-262 0 -410.5 158t-148.5 373zM174 1233q0 68 165 185.5t230.5 117.5t230.5 -118t165 -185q0 -37 -21.5 -61.5t-58.5 -24.5q-41 0 -155 58.5t-161 58.5t-160.5 -58.5t-154.5 -58.5q-37 0 -58.5 24.5t-21.5 61.5zM475 725q0 -20 6 -33.5t22.5 -18.5t27 -6t36 0t31.5 1h27h29 q7 0 23.5 3t23 9t12.5 18.5t6 30.5q0 57 -33 94t-88 37q-49 0 -86 -42t-37 -93z" />
<glyph unicode="&#xeb;" horiz-adv-x="1140" d="M-8 1304.5q0 67.5 60.5 108.5t124 51.5t130.5 10.5q82 0 150.5 -30t68.5 -102q0 -63 -66.5 -105t-138 -55.5t-135.5 -13.5q-74 0 -134 34t-60 101.5zM35 502q0 231 170 388t405 157q123 0 224.5 -44.5t159 -111t88 -136t30.5 -130.5q0 -92 -34 -123t-93 -31h-444h-12h-13 q-4 0 -11 -1t-10 -4t-6.5 -9t-3.5 -15q0 -74 76 -131t154 -57q90 0 177 46t95 46q31 0 55.5 -35t24.5 -67q0 -111 -159.5 -192t-313.5 -81q-262 0 -410.5 158t-148.5 373zM475 725q0 -20 6 -33.5t22.5 -18.5t27 -6t36 0t31.5 1h27h29q7 0 23.5 3t23 9t12.5 18.5t6 30.5 q0 57 -33 94t-88 37q-49 0 -86 -42t-37 -93zM616 1304.5q0 67.5 60.5 108.5t124 51.5t131.5 10.5q82 0 150.5 -30t68.5 -102q0 -63 -66.5 -105t-138.5 -55.5t-135 -13.5q-74 0 -134.5 34t-60.5 101.5z" />
<glyph unicode="&#xec;" horiz-adv-x="768" d="M20 834q0 66 136.5 116.5t255 70t149.5 19.5q41 0 52.5 -23.5t11.5 -66.5v-571q0 -82 18.5 -127t42 -54.5t41.5 -27.5t18 -53q0 -139 -352 -140q-100 0 -173 9.5t-108.5 21.5t-56 31.5t-24.5 34t-4 32.5q0 41 49 78t59 64q20 53 22.5 221t-14.5 223q-6 23 -26.5 39.5 t-42 24.5t-38 27.5t-16.5 50.5zM111 1389q0 61 86 87.5t163 26.5q49 0 110.5 -14t61.5 -47q0 -12 -8 -25.5t-8 -21.5q0 -25 71.5 -74t71.5 -96q0 -76 -110 -76q-98 0 -185.5 29.5t-139.5 70.5t-82.5 80.5t-30.5 59.5z" />
<glyph unicode="&#xed;" horiz-adv-x="768" d="M20 834q0 66 136.5 116.5t255 70t149.5 19.5q41 0 52.5 -23.5t11.5 -66.5v-571q0 -82 18.5 -127t42 -54.5t41.5 -27.5t18 -53q0 -139 -352 -140q-100 0 -173 9.5t-108.5 21.5t-56 31.5t-24.5 34t-4 32.5q0 41 49 78t59 64q20 53 22.5 221t-14.5 223q-6 23 -26.5 39.5 t-42 24.5t-38 27.5t-16.5 50.5zM111 1225q0 47 71.5 96t71.5 74q0 8 -8 21.5t-8 25.5q0 33 61 47t111 14q78 0 163.5 -26.5t85.5 -87.5q0 -20 -30.5 -59.5t-82.5 -80.5t-139.5 -70.5t-185.5 -29.5q-110 0 -110 76z" />
<glyph unicode="&#xee;" horiz-adv-x="768" d="M-12 1233q0 68 164.5 185.5t230.5 117.5t230.5 -118t164.5 -185q0 -37 -21.5 -61.5t-58.5 -24.5q-41 0 -154.5 58.5t-160.5 58.5t-160.5 -58.5t-154.5 -58.5q-37 0 -58.5 24.5t-21.5 61.5zM20 834q0 66 136.5 116.5t255 70t149.5 19.5q41 0 52.5 -23.5t11.5 -66.5v-571 q0 -82 18.5 -127t42 -54.5t41.5 -27.5t18 -53q0 -139 -352 -140q-100 0 -173 9.5t-108.5 21.5t-56 31.5t-24.5 34t-4 32.5q0 41 49 78t59 64q20 53 22.5 221t-14.5 223q-6 23 -26.5 39.5t-42 24.5t-38 27.5t-16.5 50.5z" />
<glyph unicode="&#xef;" horiz-adv-x="768" d="M-195 1304.5q0 67.5 60.5 108.5t124 51.5t131.5 10.5q82 0 150.5 -30t68.5 -102q0 -63 -66.5 -105t-138.5 -55.5t-135 -13.5q-74 0 -134.5 34t-60.5 101.5zM20 834q0 66 136.5 116.5t255 70t149.5 19.5q41 0 52.5 -23.5t11.5 -66.5v-571q0 -82 18.5 -127t42 -54.5 t41.5 -27.5t18 -53q0 -139 -352 -140q-100 0 -173 9.5t-108.5 21.5t-56 31.5t-24.5 34t-4 32.5q0 41 49 78t59 64q20 53 22.5 221t-14.5 223q-6 23 -26.5 39.5t-42 24.5t-38 27.5t-16.5 50.5zM430 1304.5q0 67.5 60.5 108.5t124 51.5t130.5 10.5q82 0 151 -30t69 -102 q0 -63 -67 -105t-138.5 -55.5t-134.5 -13.5q-74 0 -134.5 34t-60.5 101.5z" />
<glyph unicode="&#xf0;" horiz-adv-x="1296" d="M37 473q0 184 43 283.5t143 167.5q111 74 256 73q20 0 62.5 -12t48.5 -12q23 0 22 49q0 39 -43 80t-71 41q-12 0 -43 -13.5t-72 -35t-47 -23.5q-4 -2 -19.5 -9t-28 -11t-18.5 -4q-37 0 -61 26q-33 37 -33 51q0 8 31 26.5t86 43.5t57 27q49 23 49 37t-33.5 41.5 t-33.5 48.5q0 39 115.5 87t158.5 48q12 0 28.5 -6.5t27 -13.5t30 -19t25.5 -17q27 -16 45 -16q25 4 78 31q23 10 54.5 28.5t53 29.5t31.5 11q41 0 70 -28q25 -25 24 -47q0 -12 -85 -52.5t-85 -64.5q0 -35 64 -90q156 -131 232.5 -296t76.5 -296q0 -147 -42 -265t-108.5 -192 t-157.5 -122t-182.5 -67.5t-189.5 -19.5q-231 0 -395 142.5t-164 359.5zM494 586q0 -125 65.5 -241t134.5 -116q63 0 88 50.5t23 150.5q-2 135 -59.5 256t-137.5 119q-55 0 -84.5 -60.5t-29.5 -158.5z" />
<glyph unicode="&#xf1;" horiz-adv-x="1443" d="M20 829q0 70 222.5 140.5t289.5 70.5q33 0 53.5 -23.5t20.5 -55.5q0 -6 -1 -18.5t-1 -18.5q0 -53 41 -54q14 0 26.5 10.5t33 36t32.5 39.5q84 84 219 84q88 0 153 -22.5t103.5 -68.5t62 -95t33 -126t12.5 -133t4 -144.5t5 -137.5q4 -55 19.5 -89t32 -45t29.5 -30.5 t13 -48.5q0 -18 -2 -27.5t-20.5 -31t-54 -32.5t-113.5 -21.5t-186 -10.5q-270 0 -271 111q0 31 36 64.5t42 107.5q2 16 7 70.5t6 88.5t2 87t-7 88t-22.5 69.5t-43 52t-67.5 17.5q-20 0 -37.5 -4t-30 -15.5t-21.5 -19.5t-14 -28.5t-9.5 -29.5t-5.5 -36t-1 -33v-36v-31v-158 q0 -86 17.5 -129t35 -63.5t17.5 -49.5q0 -123 -356 -123q-291 0 -291 123q0 33 15 47.5t32.5 19.5t34 41t18.5 103l8 307q2 51 -16.5 82t-42 40.5t-43 31.5t-19.5 57zM242 1282q0 84 67.5 146.5t157.5 62.5q88 0 249 -58.5t189 -58.5q16 0 20.5 6t4.5 23q0 88 98 88 q84 0 129 -22.5t45 -90.5q0 -84 -66.5 -146.5t-156.5 -62.5t-250 58.5t-188 58.5q-16 0 -20.5 -6t-4.5 -23q0 -88 -98 -88q-84 0 -130 22.5t-46 90.5z" />
<glyph unicode="&#xf2;" horiz-adv-x="1296" d="M37 473q0 262 195.5 418t463.5 156q254 0 409 -164t155 -371q0 -160 -103.5 -287t-253 -190.5t-305.5 -63.5q-238 0 -399.5 134.5t-161.5 367.5zM375 1389q0 61 86 87.5t164 26.5q49 0 110.5 -14t61.5 -47q0 -12 -8.5 -25.5t-8.5 -21.5q0 -25 72 -74t72 -96 q0 -76 -111 -76q-98 0 -185 29.5t-139.5 70.5t-83 80.5t-30.5 59.5zM508 682q4 -63 13 -126.5t28.5 -142.5t57.5 -130.5t87 -53.5q53 -2 73.5 33t20.5 94q0 43 -9 111t-27.5 147.5t-56.5 135t-87 55.5t-76.5 -38t-23.5 -85z" />
<glyph unicode="&#xf3;" horiz-adv-x="1296" d="M37 473q0 262 195.5 418t463.5 156q254 0 409 -164t155 -371q0 -160 -103.5 -287t-253 -190.5t-305.5 -63.5q-238 0 -399.5 134.5t-161.5 367.5zM375 1225q0 47 71.5 96t71.5 74q0 8 -8 21.5t-8 25.5q0 33 61.5 47t110.5 14q78 0 164 -26.5t86 -87.5q0 -20 -31 -59.5 t-83 -80.5t-139 -70.5t-186 -29.5q-110 0 -110 76zM508 682q4 -63 13 -126.5t28.5 -142.5t57.5 -130.5t87 -53.5q53 -2 73.5 33t20.5 94q0 43 -9 111t-27.5 147.5t-56.5 135t-87 55.5t-76.5 -38t-23.5 -85z" />
<glyph unicode="&#xf4;" horiz-adv-x="1296" d="M37 473q0 262 195.5 418t463.5 156q254 0 409 -164t155 -371q0 -160 -103.5 -287t-253 -190.5t-305.5 -63.5q-238 0 -399.5 134.5t-161.5 367.5zM252 1233q0 68 165 185.5t230.5 117.5t230 -118t164.5 -185q0 -37 -21.5 -61.5t-57.5 -24.5q-41 0 -155 58.5t-161 58.5 t-160.5 -58.5t-154.5 -58.5q-37 0 -58.5 24.5t-21.5 61.5zM508 682q4 -63 13 -126.5t28.5 -142.5t57.5 -130.5t87 -53.5q53 -2 73.5 33t20.5 94q0 43 -9 111t-27.5 147.5t-56.5 135t-87 55.5t-76.5 -38t-23.5 -85z" />
<glyph unicode="&#xf5;" horiz-adv-x="1296" d="M37 473q0 262 195.5 418t463.5 156q254 0 409 -164t155 -371q0 -160 -103.5 -287t-253 -190.5t-305.5 -63.5q-238 0 -399.5 134.5t-161.5 367.5zM168 1282q0 84 67.5 146.5t157.5 62.5q88 0 249 -58.5t189 -58.5q16 0 20.5 6t4.5 23q0 88 98 88q84 0 129 -22.5t45 -90.5 q0 -84 -66.5 -146.5t-156.5 -62.5t-249.5 58.5t-188.5 58.5q-16 0 -20.5 -6t-4.5 -23q0 -88 -98 -88q-84 0 -130 22.5t-46 90.5zM508 682q4 -63 13 -126.5t28.5 -142.5t57.5 -130.5t87 -53.5q53 -2 73.5 33t20.5 94q0 43 -9 111t-27.5 147.5t-56.5 135t-87 55.5t-76.5 -38 t-23.5 -85z" />
<glyph unicode="&#xf6;" horiz-adv-x="1296" d="M37 473q0 262 195.5 418t463.5 156q254 0 409 -164t155 -371q0 -160 -103.5 -287t-253 -190.5t-305.5 -63.5q-238 0 -399.5 134.5t-161.5 367.5zM70 1304.5q0 67.5 60 108.5t123.5 51.5t131.5 10.5q82 0 150.5 -30t68.5 -102q0 -63 -66.5 -105t-138 -55.5t-135.5 -13.5 q-74 0 -134 34t-60 101.5zM508 682q4 -63 13 -126.5t28.5 -142.5t57.5 -130.5t87 -53.5q53 -2 73.5 33t20.5 94q0 43 -9 111t-27.5 147.5t-56.5 135t-87 55.5t-76.5 -38t-23.5 -85zM694 1304.5q0 67.5 60.5 108.5t124 51.5t131.5 10.5q82 0 150.5 -30t68.5 -102 q0 -63 -66.5 -105t-138.5 -55.5t-135 -13.5q-74 0 -134.5 34t-60.5 101.5z" />
<glyph unicode="&#xf7;" d="M150 524q0 45 5 69.5t23.5 35t32.5 12.5t53 2h19h725h18q37 0 52.5 -2t33.5 -12.5t23.5 -35t5.5 -69.5t-5.5 -69.5t-23.5 -34.5t-32.5 -12t-53.5 -2h-18h-725h-19q-37 0 -52 2t-33.5 12t-23.5 34.5t-5 69.5zM492 182.5q0 63.5 45 108.5t108.5 45t108.5 -45t45 -108.5 t-45 -108.5t-108.5 -45t-108.5 45t-45 108.5zM492 866.5q0 63.5 45 108.5t108.5 45t108.5 -45t45 -108.5t-45 -108.5t-108.5 -45t-108.5 45t-45 108.5z" />
<glyph unicode="&#xf8;" horiz-adv-x="1296" d="M0 96q0 10 4 18.5t12.5 16.5t14.5 12t17 11.5t13 9.5l52 39q-76 111 -76 270q0 262 195.5 418t463.5 156q242 0 379 -140l45 33q2 2 15.5 12.5t24.5 18.5t24.5 15t21.5 7q25 0 45.5 -24.5t20.5 -48.5q0 -14 -11.5 -27.5t-33 -29t-23.5 -17.5l-43 -31q98 -141 99 -303 q0 -160 -103.5 -287t-253 -190.5t-305.5 -63.5q-248 0 -405 135l-43 -30q-66 -51 -84 -51q-25 0 -45.5 24t-20.5 47zM508 682q0 -72 24 -174l201 147q-14 39 -19 53.5t-21.5 44t-37 41t-47.5 11.5q-47 0 -73.5 -37t-26.5 -86zM565 377q47 -147 129 -148q94 0 94 127 q0 66 -22 170z" />
<glyph unicode="&#xf9;" horiz-adv-x="1458" d="M20 903q0 45 77 76t187.5 42t173 15t95.5 4q41 0 52 -17t11 -60v-521q0 -209 117 -209q31 0 53.5 9.5t36 32t22.5 41t12 55.5t4 52t0 55t-1 46q0 168 -8 221q-8 51 -62.5 81t-54.5 73q0 55 114 90t211 43t165 8q104 0 104 -114q0 -33 -2 -97.5t-2 -97.5v-412 q0 -41 17.5 -63.5t39 -27.5t39 -22.5t17.5 -49.5q0 -49 -57.5 -86t-140.5 -55.5t-154.5 -28t-122.5 -9.5q-53 0 -76 19.5t-21 42t-5 42t-34 19.5q-10 0 -23 -7t-39 -25.5t-42 -28.5q-98 -61 -205 -62q-76 0 -134 15.5t-95 44.5t-63.5 67.5t-38 86t-18.5 101.5t-7 114v118v68 q0 88 -14.5 139t-36 67.5t-42 26t-35 25.5t-14.5 53zM455 1389q0 61 86 87.5t164 26.5q49 0 110.5 -14t61.5 -47q0 -12 -8.5 -25.5t-8.5 -21.5q0 -25 72 -74t72 -96q0 -76 -111 -76q-98 0 -185 29.5t-139.5 70.5t-83 80.5t-30.5 59.5z" />
<glyph unicode="&#xfa;" horiz-adv-x="1458" d="M20 903q0 45 77 76t187.5 42t173 15t95.5 4q41 0 52 -17t11 -60v-521q0 -209 117 -209q31 0 53.5 9.5t36 32t22.5 41t12 55.5t4 52t0 55t-1 46q0 168 -8 221q-8 51 -62.5 81t-54.5 73q0 55 114 90t211 43t165 8q104 0 104 -114q0 -33 -2 -97.5t-2 -97.5v-412 q0 -41 17.5 -63.5t39 -27.5t39 -22.5t17.5 -49.5q0 -49 -57.5 -86t-140.5 -55.5t-154.5 -28t-122.5 -9.5q-53 0 -76 19.5t-21 42t-5 42t-34 19.5q-10 0 -23 -7t-39 -25.5t-42 -28.5q-98 -61 -205 -62q-76 0 -134 15.5t-95 44.5t-63.5 67.5t-38 86t-18.5 101.5t-7 114v118v68 q0 88 -14.5 139t-36 67.5t-42 26t-35 25.5t-14.5 53zM455 1225q0 47 71.5 96t71.5 74q0 8 -8 21.5t-8 25.5q0 33 61.5 47t110.5 14q78 0 164 -26.5t86 -87.5q0 -20 -31 -59.5t-83 -80.5t-139 -70.5t-186 -29.5q-110 0 -110 76z" />
<glyph unicode="&#xfb;" horiz-adv-x="1458" d="M20 903q0 45 77 76t187.5 42t173 15t95.5 4q41 0 52 -17t11 -60v-521q0 -209 117 -209q31 0 53.5 9.5t36 32t22.5 41t12 55.5t4 52t0 55t-1 46q0 168 -8 221q-8 51 -62.5 81t-54.5 73q0 55 114 90t211 43t165 8q104 0 104 -114q0 -33 -2 -97.5t-2 -97.5v-412 q0 -41 17.5 -63.5t39 -27.5t39 -22.5t17.5 -49.5q0 -49 -57.5 -86t-140.5 -55.5t-154.5 -28t-122.5 -9.5q-53 0 -76 19.5t-21 42t-5 42t-34 19.5q-10 0 -23 -7t-39 -25.5t-42 -28.5q-98 -61 -205 -62q-76 0 -134 15.5t-95 44.5t-63.5 67.5t-38 86t-18.5 101.5t-7 114v118v68 q0 88 -14.5 139t-36 67.5t-42 26t-35 25.5t-14.5 53zM334 1233q0 68 165 185.5t230.5 117.5t230 -118t164.5 -185q0 -37 -21.5 -61.5t-58.5 -24.5q-41 0 -154.5 58.5t-160.5 58.5t-160.5 -58.5t-154.5 -58.5q-37 0 -58.5 24.5t-21.5 61.5z" />
<glyph unicode="&#xfc;" horiz-adv-x="1458" d="M20 903q0 45 77 76t187.5 42t173 15t95.5 4q41 0 52 -17t11 -60v-521q0 -209 117 -209q31 0 53.5 9.5t36 32t22.5 41t12 55.5t4 52t0 55t-1 46q0 168 -8 221q-8 51 -62.5 81t-54.5 73q0 55 114 90t211 43t165 8q104 0 104 -114q0 -33 -2 -97.5t-2 -97.5v-412 q0 -41 17.5 -63.5t39 -27.5t39 -22.5t17.5 -49.5q0 -49 -57.5 -86t-140.5 -55.5t-154.5 -28t-122.5 -9.5q-53 0 -76 19.5t-21 42t-5 42t-34 19.5q-10 0 -23 -7t-39 -25.5t-42 -28.5q-98 -61 -205 -62q-76 0 -134 15.5t-95 44.5t-63.5 67.5t-38 86t-18.5 101.5t-7 114v118v68 q0 88 -14.5 139t-36 67.5t-42 26t-35 25.5t-14.5 53zM150 1304.5q0 67.5 60 108.5t123.5 51.5t131.5 10.5q82 0 150.5 -30t68.5 -102q0 -63 -66.5 -105t-138 -55.5t-135.5 -13.5q-74 0 -134 34t-60 101.5zM774 1304.5q0 67.5 60.5 108.5t124 51.5t131.5 10.5q82 0 150.5 -30 t68.5 -102q0 -63 -66.5 -105t-138.5 -55.5t-135 -13.5q-74 0 -134.5 34t-60.5 101.5z" />
<glyph unicode="&#xfd;" horiz-adv-x="1333" d="M0 889q0 23 7 40t35 39.5t75 37t138 24.5t214 10q262 0 262 -125q0 -29 -23.5 -62.5t-23.5 -57.5q0 -55 49 -138.5t76 -83.5q41 0 72.5 72t31.5 119q0 49 -32.5 86t-32.5 70q0 39 29.5 64.5t76.5 36.5t85 15t75 4q219 0 219 -104q0 -41 -20.5 -63.5t-49 -30.5t-65.5 -32 t-59 -62q-45 -74 -107 -242l-121 -334q-35 -94 -65.5 -161.5t-80.5 -143.5t-105.5 -123t-136.5 -79t-177 -32q-125 0 -223 63.5t-98 182.5q0 78 52 133.5t130 55.5q66 0 103.5 -34t48 -75t26.5 -75t43 -34q39 0 59.5 31t20.5 70q0 49 -66 186l-286 600q-16 33 -56.5 52.5 t-70 39t-29.5 60.5zM393 1225q0 47 72 96t72 74q0 8 -8.5 21.5t-8.5 25.5q0 33 61.5 47t110.5 14q78 0 164 -26.5t86 -87.5q0 -20 -30.5 -59.5t-83 -80.5t-139.5 -70.5t-185 -29.5q-111 0 -111 76z" />
<glyph unicode="&#xfe;" horiz-adv-x="1431" d="M20 1208q0 92 206 160t364 68q27 0 39 -14.5t13 -28t-1 -43.5l-12 -396q0 -33 14 -32q4 0 16.5 8t35 24.5t44.5 30.5q106 61 215 62q213 0 322.5 -148.5t112.5 -359.5q2 -221 -135.5 -394.5t-350.5 -173.5q-43 0 -91 12.5t-81 26t-39 13.5q-33 0 -33 -66q0 -53 19.5 -84 t44.5 -40t44 -29.5t19 -53.5q0 -53 -53 -84t-105.5 -38t-107.5 -7q-201 0 -345 62.5t-144 142.5q0 31 14 49.5t32.5 24.5t40 21.5t34.5 41.5q25 51 24 330v733q0 39 -24.5 61.5t-53 29.5t-53.5 29.5t-25 61.5zM645 348q0 -53 33 -76.5t70 -23.5q143 0 143 235 q0 260 -150 260q-96 0 -96 -125v-270z" />
<glyph unicode="&#xff;" horiz-adv-x="1333" d="M0 889q0 23 7 40t35 39.5t75 37t138 24.5t214 10q262 0 262 -125q0 -29 -23.5 -62.5t-23.5 -57.5q0 -55 49 -138.5t76 -83.5q41 0 72.5 72t31.5 119q0 49 -32.5 86t-32.5 70q0 39 29.5 64.5t76.5 36.5t85 15t75 4q219 0 219 -104q0 -41 -20.5 -63.5t-49 -30.5t-65.5 -32 t-59 -62q-45 -74 -107 -242l-121 -334q-35 -94 -65.5 -161.5t-80.5 -143.5t-105.5 -123t-136.5 -79t-177 -32q-125 0 -223 63.5t-98 182.5q0 78 52 133.5t130 55.5q66 0 103.5 -34t48 -75t26.5 -75t43 -34q39 0 59.5 31t20.5 70q0 49 -66 186l-286 600q-16 33 -56.5 52.5 t-70 39t-29.5 60.5zM88 1304.5q0 67.5 60.5 108.5t124 51.5t130.5 10.5q82 0 151 -30t69 -102q0 -63 -67 -105t-138.5 -55.5t-134.5 -13.5q-74 0 -134.5 34t-60.5 101.5zM713 1304.5q0 67.5 60.5 108.5t124 51.5t130.5 10.5q82 0 150.5 -30t68.5 -102q0 -63 -66.5 -105 t-138 -55.5t-135.5 -13.5q-74 0 -134 34t-60 101.5z" />
<glyph unicode="&#x152;" horiz-adv-x="2330" d="M49 735q0 309 221.5 516t532.5 207q29 0 178 -10q119 -12 178 -12h604q121 0 199 10t109.5 20.5t37.5 10.5q78 0 122 -100.5t44 -190.5q0 -59 -25.5 -103.5t-80.5 -44.5q-43 0 -66.5 20.5t-39 49.5t-40 57.5t-89 49t-167.5 20.5q-129 0 -165.5 -25.5t-38.5 -126.5v-125 q0 -88 17 -105t108 -17q51 0 73.5 35.5t22.5 77.5t19.5 78t68.5 36q127 0 127 -311q0 -43 -5 -89.5t-17.5 -105.5t-42 -97t-72.5 -38q-41 0 -56.5 33.5t-16.5 73.5t-33 74t-101 34q-31 0 -49.5 -11.5t-25.5 -38t-8 -43t-1 -50.5q0 -78 1 -121t12 -79t18.5 -50.5t39 -24.5 t54.5 -10h82h28q90 0 150.5 28.5t87.5 68.5t47 80t51 68.5t78 28.5q49 0 72.5 -35.5t23.5 -87.5q0 -127 -77.5 -258t-141.5 -131q-6 0 -63 15q-43 14 -117 14h-709q-41 0 -219 -10q-147 -12 -190 -13q-178 0 -325.5 71t-238 182.5t-138.5 242.5t-48 262zM555 936 q0 -76 22.5 -182.5t63.5 -216t110.5 -186.5t149.5 -77q84 0 130 66t46 152q0 76 -21.5 183t-62.5 219t-110.5 189.5t-153.5 77.5q-88 0 -131 -66.5t-43 -158.5z" />
<glyph unicode="&#x153;" horiz-adv-x="1902" d="M37 473q0 262 195.5 418t463.5 156q96 0 174 -24t117 -47.5t41 -23.5t18.5 9.5t47 23.5t69.5 28.5t94.5 24t112.5 9.5q123 0 224.5 -44.5t158.5 -111t88 -136t31 -130.5q0 -92 -34 -123t-93 -31h-445h-11h-13q-4 0 -11.5 -1t-10.5 -4t-6 -9t-3 -15q0 -74 76 -131t154 -57 q90 0 177 46t95 46q31 0 55.5 -35t24.5 -67q0 -111 -160 -192t-313 -81q-82 0 -154 17.5t-109.5 37t-65.5 37t-34 17.5t-52 -27.5t-136 -54.5t-205 -27q-238 0 -399.5 134.5t-161.5 367.5zM508 682q0 -121 57 -303q35 -100 64 -125q27 -25 65 -25q94 0 94 127q0 156 -61 324 q-14 37 -24.5 59.5t-36 44t-58.5 21.5q-47 0 -73.5 -37t-26.5 -86zM1235 725q0 -20 6 -33.5t22.5 -18.5t26.5 -6t36 0t32 1h26h30q7 0 23.5 3t22.5 9t12.5 18.5t6.5 30.5q0 57 -33 94t-88 37q-49 0 -86 -42t-37 -93z" />
<glyph unicode="&#x178;" horiz-adv-x="1677" d="M-2 1319q0 23 2 34t24.5 34.5t66.5 36t139.5 23.5t230.5 11q121 0 207 -9t127 -20.5t62.5 -32t23.5 -31.5t2 -32q0 -29 -29 -62.5t-29 -53.5q0 -37 48.5 -106t84.5 -69q39 0 89.5 59.5t50.5 96.5q0 27 -30 62.5t-30 76.5q0 121 316 121q188 0 255.5 -25.5t67.5 -95.5 q0 -45 -25.5 -65.5t-60.5 -24.5t-83 -21.5t-81 -54.5l-251 -276q-63 -80 -80 -140.5t-17 -176.5q0 -248 29 -310q10 -23 46 -40t63.5 -39.5t27.5 -63.5q0 -147 -424 -148q-455 0 -454 148q0 47 29.5 67.5t69.5 37t54 49.5q33 76 33 339q0 86 -17.5 131.5t-72.5 116.5 l-232 269q-41 47 -102 73.5t-96 47t-35 63.5zM260 1681.5q0 67.5 60.5 108.5t124 51t130.5 10q82 0 151 -29.5t69 -101.5q0 -63 -66.5 -105t-138.5 -55.5t-135 -13.5q-74 0 -134.5 34t-60.5 101.5zM885 1681.5q0 67.5 60.5 108.5t124 51t130.5 10q82 0 150.5 -29.5 t68.5 -101.5q0 -63 -66.5 -105t-138 -55.5t-135.5 -13.5q-74 0 -134 34t-60 101.5z" />
<glyph unicode="&#x2c6;" horiz-adv-x="1079" d="M143 1233q0 68 165 185.5t230.5 117.5t230.5 -118t165 -185q0 -37 -21.5 -61.5t-58.5 -24.5q-41 0 -154.5 58.5t-160.5 58.5t-161 -58.5t-155 -58.5q-37 0 -58.5 24.5t-21.5 61.5z" />
<glyph unicode="&#x2dc;" horiz-adv-x="1247" d="M143 1282q0 84 68 146.5t158 62.5q88 0 248.5 -58.5t189.5 -58.5q16 0 20 6t4 23q0 88 99 88q84 0 129 -22.5t45 -90.5q0 -84 -66.5 -146.5t-156.5 -62.5t-250 58.5t-189 58.5q-16 0 -20 -6t-4 -23q0 -88 -99 -88q-84 0 -130 22.5t-46 90.5z" />
<glyph unicode="&#x2000;" horiz-adv-x="974" />
<glyph unicode="&#x2001;" horiz-adv-x="1951" />
<glyph unicode="&#x2002;" horiz-adv-x="974" />
<glyph unicode="&#x2003;" horiz-adv-x="1951" />
<glyph unicode="&#x2004;" horiz-adv-x="649" />
<glyph unicode="&#x2005;" horiz-adv-x="487" />
<glyph unicode="&#x2006;" horiz-adv-x="323" />
<glyph unicode="&#x2007;" horiz-adv-x="323" />
<glyph unicode="&#x2008;" horiz-adv-x="243" />
<glyph unicode="&#x2009;" horiz-adv-x="389" />
<glyph unicode="&#x200a;" horiz-adv-x="106" />
<glyph unicode="&#x2010;" horiz-adv-x="612" d="M0 414q0 35 31.5 126t50.5 128q20 41 44 57t67 16q25 0 74.5 -8t74.5 -8q61 0 104 1t60.5 3t29 3t15.5 1q25 0 43 -17.5t18 -43.5q0 -35 -31.5 -126t-50.5 -128q-20 -41 -43.5 -57.5t-66.5 -16.5q-25 0 -75 8t-75 8q-61 0 -104 -1t-60.5 -3t-28.5 -3t-16 -1 q-25 0 -43 17.5t-18 44.5z" />
<glyph unicode="&#x2011;" horiz-adv-x="612" d="M0 414q0 35 31.5 126t50.5 128q20 41 44 57t67 16q25 0 74.5 -8t74.5 -8q61 0 104 1t60.5 3t29 3t15.5 1q25 0 43 -17.5t18 -43.5q0 -35 -31.5 -126t-50.5 -128q-20 -41 -43.5 -57.5t-66.5 -16.5q-25 0 -75 8t-75 8q-61 0 -104 -1t-60.5 -3t-28.5 -3t-16 -1 q-25 0 -43 17.5t-18 44.5z" />
<glyph unicode="&#x2012;" horiz-adv-x="612" d="M0 414q0 35 31.5 126t50.5 128q20 41 44 57t67 16q25 0 74.5 -8t74.5 -8q61 0 104 1t60.5 3t29 3t15.5 1q25 0 43 -17.5t18 -43.5q0 -35 -31.5 -126t-50.5 -128q-20 -41 -43.5 -57.5t-66.5 -16.5q-25 0 -75 8t-75 8q-61 0 -104 -1t-60.5 -3t-28.5 -3t-16 -1 q-25 0 -43 17.5t-18 44.5z" />
<glyph unicode="&#x2013;" horiz-adv-x="1024" d="M-45 414q0 35 31.5 126t50.5 128q20 41 43.5 57t66.5 16l86 -8q86 -8 183 -8h383q61 0 104 1t60.5 3t29 3t15.5 1q25 0 43 -17.5t18 -43.5q0 -35 -31.5 -126t-50.5 -128q-20 -41 -43.5 -57.5t-66.5 -16.5l-86 8q-86 8 -183 8h-383q-61 0 -104 -1t-60.5 -3t-29 -3 t-15.5 -1q-25 0 -43 17.5t-18 44.5z" />
<glyph unicode="&#x2014;" horiz-adv-x="2048" d="M-45 414q0 35 31.5 126t50.5 128q20 41 43.5 57t66.5 16l86 -8q86 -8 183 -8h1407q61 0 104 1t60.5 3t29 3t15.5 1q25 0 43 -17.5t18 -43.5q0 -35 -31.5 -126t-50.5 -128q-20 -41 -43.5 -57.5t-66.5 -16.5l-86 8q-86 8 -183 8h-1407q-61 0 -104 -1t-60.5 -3t-29 -3 t-15.5 -1q-25 0 -43 17.5t-18 44.5z" />
<glyph unicode="&#x2018;" horiz-adv-x="645" d="M90 907q0 176 129 366.5t236 190.5q31 0 64.5 -19.5t33.5 -47.5q0 -16 -35 -51t-70.5 -87.5t-35.5 -107.5q0 -25 24.5 -49.5t54 -46t54 -68.5t24.5 -110q0 -102 -66.5 -171t-168.5 -69q-106 0 -175 80.5t-69 189.5z" />
<glyph unicode="&#x2019;" horiz-adv-x="645" d="M76 1225q0 102 66.5 170.5t168.5 68.5q106 0 175 -80.5t69 -189.5q0 -176 -129 -366.5t-236 -190.5q-31 0 -64.5 19.5t-33.5 48.5q0 16 36 51t70.5 87t34.5 107q0 25 -24.5 49.5t-54 46t-54 69t-24.5 110.5z" />
<glyph unicode="&#x201a;" horiz-adv-x="645" d="M76 209q0 102 66.5 171t168.5 69q106 0 175 -81t69 -190q0 -176 -129 -366.5t-236 -190.5q-31 0 -64.5 19.5t-33.5 48.5q0 16 36 51t70.5 87t34.5 107q0 25 -24.5 49.5t-54 46t-54 69t-24.5 110.5z" />
<glyph unicode="&#x201c;" horiz-adv-x="1202" d="M90 907q0 176 129 366.5t236 190.5q31 0 64.5 -19.5t33.5 -47.5q0 -16 -35 -51t-70.5 -87.5t-35.5 -107.5q0 -25 24.5 -49.5t54 -46t54 -68.5t24.5 -110q0 -102 -66.5 -171t-168.5 -69q-106 0 -175 80.5t-69 189.5zM647 907q0 176 129 366.5t236 190.5q31 0 64.5 -19.5 t33.5 -47.5q0 -16 -35 -51t-70.5 -87.5t-35.5 -107.5q0 -25 24.5 -49.5t54 -46t54 -68.5t24.5 -110q0 -102 -66.5 -171t-168.5 -69q-106 0 -175 80.5t-69 189.5z" />
<glyph unicode="&#x201d;" horiz-adv-x="1202" d="M76 1225q0 102 66.5 170.5t168.5 68.5q106 0 175 -80.5t69 -189.5q0 -176 -129 -366.5t-236 -190.5q-31 0 -64.5 19.5t-33.5 48.5q0 16 36 51t70.5 87t34.5 107q0 25 -24.5 49.5t-54 46t-54 69t-24.5 110.5zM633 1225q0 102 66.5 170.5t168.5 68.5q106 0 175 -80.5 t69 -189.5q0 -176 -129 -366.5t-235 -190.5q-31 0 -65 19.5t-34 48.5q0 16 36 51t71 87t35 107q0 25 -25 49.5t-54.5 46t-54 69t-24.5 110.5z" />
<glyph unicode="&#x201e;" horiz-adv-x="1202" d="M76 209q0 102 66.5 171t168.5 69q106 0 175 -81t69 -190q0 -176 -129 -366.5t-236 -190.5q-31 0 -64.5 19.5t-33.5 48.5q0 16 36 51t70.5 87t34.5 107q0 25 -24.5 49.5t-54 46t-54 69t-24.5 110.5zM633 209q0 102 66.5 171t168.5 69q106 0 175 -81t69 -190 q0 -176 -129 -366.5t-235 -190.5q-31 0 -65 19.5t-34 48.5q0 16 36 51t71 87t35 107q0 25 -25 49.5t-54.5 46t-54 69t-24.5 110.5z" />
<glyph unicode="&#x2022;" horiz-adv-x="1552" d="M418 716.5q0 149.5 104.5 254t254 104.5t254 -104.5t104.5 -254t-104.5 -254t-254 -104.5t-254 104.5t-104.5 254z" />
<glyph unicode="&#x2026;" horiz-adv-x="2048" d="M94 219.5q0 102.5 73 175t175 72.5t175 -72.5t73 -175t-73 -175.5t-175 -73t-175 73t-73 175.5zM776 219.5q0 102.5 73 175t175 72.5t175 -72.5t73 -175t-73 -175.5t-175 -73t-175 73t-73 175.5zM1458 219.5q0 102.5 73 175t175 72.5t175 -72.5t73 -175t-73 -175.5 t-175 -73t-175 73t-73 175.5z" />
<glyph unicode="&#x202f;" horiz-adv-x="389" />
<glyph unicode="&#x2039;" horiz-adv-x="600" d="M29 500q0 43 37.5 102.5t59 83t79.5 82.5q182 197 266 197q37 0 68.5 -27t31.5 -64q0 -41 -97 -180t-97 -194.5t97 -194.5t97 -180q0 -37 -31.5 -63.5t-68.5 -26.5q-84 0 -266 196q-2 2 -19.5 20.5t-22.5 24t-22.5 23.5t-24.5 28l-22 27q-14 18 -21 29.5t-17.5 29 t-14.5 30t-8 28t-4 29.5z" />
<glyph unicode="&#x203a;" horiz-adv-x="600" d="M29 125q0 41 97 180t97 194.5t-97 195t-97 179.5q0 37 31.5 64t68.5 27q84 0 266 -197q2 -2 19.5 -20.5t22.5 -23.5t22.5 -23.5t24.5 -27.5l22 -28q14 -18 21.5 -29.5t17.5 -29t14 -29.5t8 -27.5t4 -29.5q0 -43 -37.5 -102.5t-59 -83t-79.5 -83.5q-182 -197 -266 -196 q-37 0 -68.5 26.5t-31.5 63.5z" />
<glyph unicode="&#x205f;" horiz-adv-x="487" />
<glyph unicode="&#x20ac;" d="M0 518q-16 27 6 76l31 65q16 35 36.5 45.5t76.5 10.5h18q41 217 213 354t405 137q82 0 147.5 -20.5t72.5 -20.5q25 0 45 11q20 8 36 8q61 0 111.5 -71t50.5 -200q0 -76 -43 -127t-114 -51q-41 0 -69 17.5t-46.5 42t-36.5 48t-53 41t-84 17.5q-188 0 -205 -186h324 q51 0 65 -27q16 -27 -6 -76l-31 -65q-16 -33 -38.5 -44t-73.5 -11h-217q59 -213 233 -213q49 0 82 25.5t46 56t46 56t82 25.5q72 0 115 -51t43 -127q0 -131 -50.5 -200.5t-111.5 -69.5q-12 0 -37 9t-43 9q-10 0 -78.5 -20.5t-144.5 -20.5q-270 0 -438 145.5t-201 375.5h-98 q-52 -1 -66 26z" />
<glyph unicode="&#x2122;" horiz-adv-x="2048" d="M45 1221q0 74 49 151.5t103 77.5q2 0 7 -1t13 -3t19 -2q49 -8 106 -8h291q61 0 92 10q37 8 47 8q53 0 98 -77t45 -144q0 -96 -92 -96q-35 0 -59.5 21.5t-36.5 47t-28.5 47t-36.5 21.5q-41 0 -41 -96v-310q0 -66 17 -97.5t36.5 -33.5t37 -14t17.5 -41q0 -86 -244 -86 q-281 0 -280 90q0 25 15.5 37t34.5 15t36.5 20.5t19.5 52.5l19 342q6 123 -37 123q-16 0 -35.5 -22.5t-36 -48t-44 -48t-60.5 -22.5t-52.5 25.5t-19.5 60.5zM936 662q0 18 10 28t23.5 13.5t28 17.5t20.5 43q18 74 18 397q0 78 -15 115t-32.5 39t-33 12t-15.5 39q0 82 203 82 q92 0 115.5 -13.5t54.5 -70.5l112 -207q2 -2 9.5 -17.5t12.5 -24.5t14 -17t20 -8q8 0 15 3t12 11t8.5 13t9.5 16.5t6 13.5l72 141l17 35q11 23 15 30t14.5 24.5t15.5 21.5t15.5 15t18.5 14.5t21.5 8.5t28.5 7t33.5 3t43.5 1q170 0 170 -76q0 -25 -10.5 -37t-23.5 -16 t-25.5 -25.5t-14.5 -62.5q-10 -154 -10 -182q0 -37 5 -107t5 -106q0 -51 12.5 -81t25.5 -35t25.5 -16.5t12.5 -31.5q0 -76 -213 -76q-211 0 -211 72q0 20 29.5 42.5t37.5 61.5q4 23 5 129q0 76 -23 76q-35 0 -86 -131l-61 -135q-2 -4 -7.5 -16.5t-10.5 -21.5t-12 -20.5 t-15.5 -17.5t-16.5 -6t-14 2t-12.5 8t-10.5 12t-11 20.5t-12 28t-16.5 39t-21.5 47.5l-70 154q-18 51 -41 51q-18 0 -21 -23.5t-3 -97.5v-49q0 -49 8 -76.5t19.5 -35t21.5 -9.5t18 -9t8 -25q0 -70 -172 -70q-149 0 -149 66z" />
<glyph unicode="&#xe000;" horiz-adv-x="1040" d="M0 1040h1040v-1040h-1040v1040z" />
<glyph unicode="&#xfb01;" horiz-adv-x="1583" d="M16 721q0 82 6.5 98.5t43.5 18.5q57 4 57 39q0 8 -39 87.5t-39 155.5q0 115 74 192t172 105.5t211 28.5q115 0 227.5 -66.5t112.5 -183.5q0 -57 -41 -103t-98.5 -46t-142.5 79.5t-126 79.5q-27 0 -45 -22.5t-18 -48.5q0 -43 34.5 -84t77.5 -67t84 -55.5t49 -51.5 q6 -18 12.5 -22.5t26.5 -4.5q8 0 31 1t34 0t27.5 -4t22.5 -12.5t6 -23.5l-8 -131q-4 -39 -12 -46t-41 -7q-18 0 -32.5 -7.5t-23 -22.5t-13.5 -28.5t-6 -36t-2 -36t0 -37t1 -27.5v-145q0 -37 19.5 -58.5t42 -28.5t42 -26.5t19.5 -54.5q0 -141 -381 -142q-362 0 -363 146 q0 39 22.5 60.5t50.5 28.5t52.5 31.5t26.5 65.5l16 221q6 96 -82 97q-74 0 -81 8t-7 86zM868 831q0 53 71 96.5t165 66t170 34.5t104 12q39 0 51.5 -20.5t12.5 -63.5v-604q0 -70 18.5 -107.5t42 -44.5t42 -26.5t18.5 -58.5q0 -27 -11.5 -48.5t-46.5 -43t-111.5 -34 t-193.5 -12.5q-330 0 -330 121q0 35 17.5 55.5t37 30t37 36t17.5 71.5v356q0 41 -17.5 66.5t-38 34t-38 28.5t-17.5 55zM932 1255.5q0 63.5 64.5 106.5t136 58.5t133.5 15.5q63 0 114.5 -32t51.5 -91q0 -51 -35 -88t-90.5 -55.5t-105.5 -26.5t-97 -8q-68 0 -120 28.5t-52 92 z" />
<glyph unicode="&#xfb02;" horiz-adv-x="1533" d="M2 721q0 82 6 98.5t43 18.5q57 4 58 39q0 8 -39 87.5t-39 155.5q0 115 73.5 192t172 105.5t210.5 28.5q115 0 227.5 -66.5t112.5 -183.5q0 -57 -41 -103t-98 -46t-142 79.5t-126 79.5q-27 0 -45.5 -22.5t-18.5 -48.5q0 -43 35 -84t78 -67t84 -55.5t49 -51.5 q4 -16 11.5 -21.5t25.5 -5.5q16 0 51 2t54.5 1t44 -4t35 -13.5t10.5 -28.5l-9 -131q-2 -20 -3 -29.5t-10 -14.5t-13 -5h-27h-72q-18 0 -32.5 -7.5t-22.5 -22.5t-13 -28.5t-6 -36t-2 -36t0 -37t1 -27.5v-145q0 -37 19.5 -58.5t42 -28.5t42 -26.5t19.5 -54.5q0 -141 -381 -142 q-362 0 -363 146q0 39 22.5 60.5t50 28.5t52.5 31.5t27 65.5l16 221q6 96 -82 97q-74 0 -82 8q-6 8 -6 86zM852 98q0 47 55.5 87t53.5 102l-11 809q0 31 -3 94t-3 94q0 51 20.5 67.5t77.5 30.5q10 2 15 4q170 45 282 46q55 0 78 -20.5t23 -63.5q0 -84 -12.5 -261.5 t-12.5 -275.5q0 -74 -2 -243t-2 -257q0 -63 19.5 -96t43 -38t43 -21.5t19.5 -51.5q0 -45 -34 -73.5t-97.5 -38.5t-100 -12.5t-98.5 -2.5h-20q-334 0 -334 121z" />
<glyph unicode="&#xfb03;" horiz-adv-x="2594" d="M1847 834q0 66 136.5 116.5t255 70t149.5 19.5q41 0 52.5 -23.5t11.5 -66.5v-571q0 -82 18.5 -127t42 -54.5t41.5 -27.5t18 -53q0 -139 -352 -140q-100 0 -173 9.5t-108.5 21.5t-56 31.5t-24.5 34t-4 32.5q0 41 49 78t59 64q20 53 23 221v36q0 138 -15 187 q-6 23 -26.5 39.5t-42 24.5t-38 27.5t-16.5 50.5zM1868 1245q0 47 43 86t105.5 60.5t123 33t103.5 11.5q78 0 138 -30t60 -99q0 -55 -44 -97.5t-110.5 -64t-128 -30.5t-112.5 -9q-74 0 -126 34.5t-52 104.5zM929 653v68v32q0 50 6 64q7 18 44 21q57 4 57 39q0 8 -39 87.5 t-39 155.5q0 115 74 192t172 105.5t211 28.5q117 0 204 -27.5t129 -71.5t60 -85t18 -80q0 -66 -46 -112t-109 -46q-59 0 -107.5 28.5t-74 63.5t-61.5 63.5t-75 28.5q-31 0 -50 -21.5t-19 -51.5q0 -55 54 -101.5t117.5 -86.5t78.5 -75q8 -23 28 -22q18 0 53 2t56.5 2t45 -3 t35 -12.5t9.5 -27.5l-10 -149q-2 -35 -54 -35q-96 0 -118.5 -18.5t-22.5 -114.5q0 -106 21 -183q12 -41 43.5 -62.5t61.5 -27.5t53.5 -28.5t23.5 -65.5q0 -20 -3 -34.5t-27.5 -38t-71 -39t-139.5 -27t-224 -11.5q-362 0 -363 146q0 39 22.5 60.5t50.5 28.5t52.5 31.5 t26.5 65.5l16 221q0 6 1 13q0 84 -83 84q-4 0 -18 -1t-23.5 0t-21.5 3t-18.5 8t-6.5 16zM16 653v68v32q0 50 6 64q7 18 44 21q57 4 57 39q0 8 -39 87.5t-39 155.5q0 115 74 192t172 105.5t211 28.5q117 0 204 -27.5t129 -71.5t60 -85t18 -80q0 -66 -46 -112t-109 -46 q-59 0 -107.5 28.5t-74 63.5t-61.5 63.5t-75 28.5q-31 0 -50 -21.5t-19 -51.5q0 -55 54 -101.5t117.5 -86.5t78.5 -75q8 -23 28 -22q18 0 53 2t56.5 2t45 -3t35 -12.5t9.5 -27.5l-10 -149q-2 -35 -54 -35q-96 0 -118.5 -18.5t-22.5 -114.5q0 -106 21 -183q12 -41 43.5 -62.5 t61.5 -27.5t53.5 -28.5t23.5 -65.5q0 -20 -3 -34.5t-27.5 -38t-71 -39t-139.5 -27t-224 -11.5q-362 0 -363 146q0 39 22.5 60.5t50.5 28.5t52.5 31.5t26.5 65.5l16 221q0 6 1 13q0 84 -83 84q-4 0 -18 -1t-23.5 0t-21.5 3t-18.5 8t-6.5 16z" />
<glyph unicode="&#xfb04;" horiz-adv-x="2613" d="M1847 1214q0 61 81 108.5t190.5 70t187.5 33t103 10.5q86 0 86 -107q0 -12 -6.5 -94t-13.5 -212t-7 -259v-397q0 -111 8 -138q8 -31 38 -44t53.5 -28.5t23.5 -52.5q0 -127 -312 -127h-10h-16h-16h-11q-352 0 -352 136q0 37 50 60.5t63 59.5q27 84 26 441q0 254 -14 325 q-10 51 -36.5 81t-51.5 40t-44.5 32.5t-19.5 61.5zM929 653v68v32q0 50 6 64q7 18 44 21q57 4 57 39q0 8 -39 87.5t-39 155.5q0 115 74 192t172 105.5t211 28.5q117 0 204 -27.5t129 -71.5t60 -85t18 -80q0 -66 -46 -112t-109 -46q-59 0 -107.5 28.5t-74 63.5t-61.5 63.5 t-75 28.5q-31 0 -50 -21.5t-19 -51.5q0 -55 54 -101.5t117.5 -86.5t78.5 -75q8 -23 28 -22q18 0 53 2t56.5 2t45 -3t35 -12.5t9.5 -27.5l-10 -149q-2 -35 -54 -35q-96 0 -118.5 -18.5t-22.5 -114.5q0 -106 21 -183q12 -41 43.5 -62.5t61.5 -27.5t53.5 -28.5t23.5 -65.5 q0 -20 -3 -34.5t-27.5 -38t-71 -39t-139.5 -27t-224 -11.5q-362 0 -363 146q0 39 22.5 60.5t50.5 28.5t52.5 31.5t26.5 65.5l16 221q0 6 1 13q0 84 -83 84q-4 0 -18 -1t-23.5 0t-21.5 3t-18.5 8t-6.5 16zM16 653v68v32q0 50 6 64q7 18 44 21q57 4 57 39q0 8 -39 87.5 t-39 155.5q0 115 74 192t172 105.5t211 28.5q117 0 204 -27.5t129 -71.5t60 -85t18 -80q0 -66 -46 -112t-109 -46q-59 0 -107.5 28.5t-74 63.5t-61.5 63.5t-75 28.5q-31 0 -50 -21.5t-19 -51.5q0 -55 54 -101.5t117.5 -86.5t78.5 -75q8 -23 28 -22q18 0 53 2t56.5 2t45 -3 t35 -12.5t9.5 -27.5l-10 -149q-2 -35 -54 -35q-96 0 -118.5 -18.5t-22.5 -114.5q0 -106 21 -183q12 -41 43.5 -62.5t61.5 -27.5t53.5 -28.5t23.5 -65.5q0 -20 -3 -34.5t-27.5 -38t-71 -39t-139.5 -27t-224 -11.5q-362 0 -363 146q0 39 22.5 60.5t50.5 28.5t52.5 31.5 t26.5 65.5l16 221q0 6 1 13q0 84 -83 84q-4 0 -18 -1t-23.5 0t-21.5 3t-18.5 8t-6.5 16z" />
</font>
</defs>
</svg>
