<?xml version="1.0" standalone="no"?>
<!DOCTYPE svg PUBLIC "-//W3C//DTD SVG 1.1//EN" "http://www.w3.org/Graphics/SVG/1.1/DTD/svg11.dtd" >
<svg xmlns="http://www.w3.org/2000/svg">
<metadata></metadata>
<defs>
<font id="omnes_blackregular" horiz-adv-x="1282" >
<font-face units-per-em="2048" ascent="1434" descent="-614" />
<missing-glyph horiz-adv-x="348" />
<glyph unicode="&#xfb01;" horiz-adv-x="1548" d="M2 844v24q0 78 48.5 119t142.5 41h8v8q0 126 31.5 212.5t91 133t131 65.5t166.5 19q162 0 242.5 -60t80.5 -151q0 -44 -21 -90t-42 -71t-25 -21q-48 45 -115 45q-41 0 -61.5 -16.5t-20.5 -57.5v-16h50q190 0 190 -170v-24q0 -78 -48.5 -119t-141.5 -41h-29v-453 q0 -126 -55.5 -178.5t-159.5 -52.5h-49q-215 0 -215 231v453h-8q-191 0 -191 170zM979 1319q0 98 67 157.5t179 59.5q117 0 185.5 -58.5t68.5 -158.5q0 -98 -67 -157.5t-179 -59.5q-117 0 -185.5 58.5t-68.5 158.5zM989 221v596q0 232 215 232h49q104 0 159.5 -52.5 t55.5 -179.5v-596q0 -231 -211 -231h-49q-105 0 -162 52.5t-57 178.5z" />
<glyph unicode="&#xfb02;" horiz-adv-x="1548" d="M2 844v24q0 78 48.5 119t142.5 41h8v8q0 126 31.5 212.5t91 133t131 65.5t166.5 19q162 0 242.5 -60t80.5 -151q0 -44 -21 -90t-42 -71t-25 -21q-48 45 -115 45q-41 0 -61.5 -16.5t-20.5 -57.5v-16h50q190 0 190 -170v-24q0 -78 -48.5 -119t-141.5 -41h-29v-453 q0 -126 -55.5 -178.5t-159.5 -52.5h-49q-215 0 -215 231v453h-8q-191 0 -191 170zM989 221v1182q0 8 25.5 21t71 23.5t90.5 10.5q44 0 82.5 -9.5t78 -34t68 -63.5t46 -103t17.5 -146v-881q0 -231 -211 -231h-49q-105 0 -162 52.5t-57 178.5z" />
<glyph horiz-adv-x="2048" />
<glyph horiz-adv-x="2048" />
<glyph unicode="&#xd;" horiz-adv-x="2048" />
<glyph unicode=" "  horiz-adv-x="348" />
<glyph unicode="&#x09;" horiz-adv-x="348" />
<glyph unicode="&#xa0;" horiz-adv-x="348" />
<glyph unicode="!" horiz-adv-x="643" d="M49 1049q-38 134 31.5 220.5t210.5 86.5h51q148 0 219 -86t33 -221l-125 -435q-22 -77 -51.5 -112t-75.5 -35h-47q-43 0 -71 35t-50 112zM98 172v39q0 98 47 144t146 46h55q103 0 150 -46t47 -144v-39q0 -97 -48 -143.5t-149 -46.5h-55q-193 0 -193 190z" />
<glyph unicode="&#x22;" horiz-adv-x="1062" d="M57 1139q-21 97 33.5 152t188.5 55q136 0 190 -54.5t33 -152.5l-86 -402q-11 -53 -36.5 -77.5t-74.5 -24.5h-51q-49 0 -74.5 24.5t-36.5 77.5zM559 1139q-21 97 33 152t188 55q136 0 190.5 -54.5t33.5 -152.5l-86 -402q-11 -53 -36.5 -77.5t-74.5 -24.5h-51 q-49 0 -74.5 24.5t-36.5 77.5z" />
<glyph unicode="#" horiz-adv-x="1460" d="M10 373v59q0 66 47.5 101.5t139.5 35.5h116l60 187h-13q-186 0 -186 141v59q0 66 47 101t139 35h119l80 254q6 18 41 18q62 0 129.5 -52.5t67.5 -135.5q0 -26 -13 -70l-4 -14h168l82 254q6 18 41 18q62 0 129.5 -52.5t67.5 -135.5q0 -26 -13 -70l-4 -14h13 q186 0 186 -136v-59q0 -141 -186 -141h-119l-60 -187h15q186 0 186 -137v-59q0 -140 -186 -140h-119l-80 -251q-6 -19 -41 -19q-37 0 -81 20.5t-79.5 66t-35.5 102.5q0 28 12 69l4 12h-170l-80 -251q-6 -19 -41 -19q-37 0 -81 20.5t-79.5 66t-35.5 102.5q0 28 12 69l4 12 h-12q-187 0 -187 140zM614 569h170l60 187h-170z" />
<glyph unicode="$" horiz-adv-x="1198" d="M51 283q0 55 32.5 109.5t65.5 83t39 22.5q67 -46 175 -81.5t192 -35.5q71 0 95 10t24 39q0 33 -135 59q-7 2 -11 2.5t-10.5 2t-11.5 2.5q-42 8 -73.5 16t-79 24t-82.5 34.5t-73 49t-63 67t-41 88t-16 112.5q0 152 81 253t236 142v27q0 112 55.5 171.5t159.5 59.5h8 q216 0 216 -231v-11q294 -43 294 -239q0 -37 -14 -74.5t-34.5 -65.5t-42 -50t-37.5 -32.5t-19 -7.5q-74 54 -164.5 87.5t-165.5 33.5q-68 0 -92 -10.5t-24 -40.5q0 -6 2.5 -11.5t9 -10.5t13.5 -8.5t19 -7.5t21.5 -6.5t26 -6t28.5 -5.5t32.5 -5.5t33.5 -6.5q41 -8 75.5 -16.5 t81 -24.5t83.5 -35t75 -49t63.5 -65t41.5 -84t16 -106q0 -321 -323 -404v-31q0 -231 -216 -231h-8q-104 0 -159.5 59.5t-55.5 171.5v13q-344 41 -344 254z" />
<glyph unicode="%" horiz-adv-x="1527" d="M10 1006v12q0 154 97 241t258 87q159 0 254.5 -87t95.5 -241v-12q0 -154 -95.5 -241t-254.5 -87q-161 0 -258 87t-97 241zM129 102q0 44 47 97l1034 1147q6 4 25.5 3t47 -12.5t53 -27t43.5 -41t18 -54.5q0 -48 -45 -98l-1035 -1147q-9 -10 -54.5 2.5t-89.5 48.5t-44 82z M281 993q0 -104 84 -104q81 0 81 104v37q0 107 -81 107q-41 0 -62.5 -24.5t-21.5 -82.5v-37zM813 297v12q0 154 96.5 241t257.5 87q159 0 255 -87t96 -241v-12q0 -154 -96 -241t-255 -87q-161 0 -257.5 87t-96.5 241zM1083 285q0 -105 84 -105q82 0 82 105v37q0 106 -82 106 q-41 0 -62.5 -24t-21.5 -82v-37z" />
<glyph unicode="&#x26;" horiz-adv-x="1497" d="M27 371q0 117 71 208.5t197 141.5q-62 51 -96.5 118.5t-34.5 137.5q0 175 135.5 277t366.5 102q201 0 320.5 -93.5t119.5 -250.5q0 -103 -70.5 -182t-189.5 -113l145 -119q21 48 41 123q49 184 219 184q38 0 74.5 -12t60.5 -29t43 -35t27.5 -31t7.5 -16 q-53 -200 -211 -403l240 -193q2 -2 -8 -23t-31 -51.5t-50.5 -60t-74.5 -50.5t-94 -21q-143 0 -254 129q-188 -140 -424 -140q-254 0 -392 104t-138 298zM432 428q0 -64 47 -102.5t127 -38.5q65 0 135 47l-252 213q-57 -48 -57 -119zM578 963q0 -38 19.5 -68t61.5 -61 q52 24 69 57t17 76q0 41 -22.5 66.5t-58.5 25.5q-38 0 -62 -26.5t-24 -69.5z" />
<glyph unicode="'" horiz-adv-x="561" d="M57 1139q-21 97 33.5 152t188.5 55q136 0 190 -54.5t33 -152.5l-86 -402q-11 -53 -36.5 -77.5t-74.5 -24.5h-51q-49 0 -74.5 24.5t-36.5 77.5z" />
<glyph unicode="(" horiz-adv-x="964" d="M51 475q0 139 35 272t98.5 242t146 192t182.5 129t204 46q109 0 170 -56.5t61 -154.5q0 -40 -20 -76t-38.5 -52.5t-27.5 -19.5q-170 -48 -253 -182t-83 -340t83 -340t253 -182q9 -3 27.5 -19.5t38.5 -52.5t20 -76q0 -98 -61 -154.5t-170 -56.5q-104 0 -204 46t-182.5 129 t-146 192t-98.5 242t-35 272z" />
<glyph unicode=")" horiz-adv-x="964" d="M16 -195q0 40 20 76t38.5 52.5t27.5 19.5q170 48 253 182t83 340t-83 340t-253 182q-9 3 -27.5 19.5t-38.5 52.5t-20 76q0 98 61.5 154.5t170.5 56.5q104 0 204 -46t182.5 -129t145.5 -192t98 -242t35 -272t-35 -272t-98 -242t-145.5 -192t-182.5 -129t-204 -46 q-109 0 -170.5 56.5t-61.5 154.5z" />
<glyph unicode="*" horiz-adv-x="925" d="M30 957.5q-12 30.5 5 84.5l2 9q14 57 44 75.5t99 8.5l137 -21l25 127q13 66 41 88.5t82 22.5h8q55 0 84.5 -22.5t40.5 -88.5l20 -127l134 21q69 10 100.5 -10t44.5 -74l2 -9q17 -51 4.5 -83.5t-72.5 -65.5l-112 -62l65 -131q23 -40 20 -73t-16.5 -52t-39.5 -38l-7 -5 q-27 -18 -48 -24.5t-51.5 2t-63.5 39.5l-111 104l-111 -104q-25 -24 -46 -35t-42.5 -9t-35 7.5t-39.5 19.5l-9 5q-91 48 -34 163l63 131l-111 62q-60 34 -72 64.5z" />
<glyph unicode="+" horiz-adv-x="1091" d="M10 500v18q0 69 49 113.5t138 44.5h170v180q0 90 44 138t115 48h39q69 0 113.5 -48.5t44.5 -137.5v-180h172q90 0 138 -44.5t48 -113.5v-18q0 -72 -47.5 -116t-138.5 -44h-172v-182q0 -90 -44.5 -138.5t-113.5 -48.5h-39q-72 0 -115.5 48t-43.5 139v182h-170 q-90 0 -138.5 44.5t-48.5 115.5z" />
<glyph unicode="," horiz-adv-x="563" d="M14 -66l54 277q20 105 61 147.5t147 42.5h54q91 0 136.5 -46t45.5 -144v-18q0 -117 -106 -220l-150 -147q-33 -33 -79.5 -39t-85.5 9.5t-62.5 53t-14.5 84.5z" />
<glyph unicode="-" horiz-adv-x="1030" d="M51 469v80q0 71 50 124.5t137 53.5h555q88 0 137 -53t49 -125v-80q0 -74 -48.5 -127t-137.5 -53h-555q-88 0 -137.5 53t-49.5 127z" />
<glyph unicode="." horiz-adv-x="563" d="M57 172v39q0 98 47 144t146 46h55q103 0 150 -46t47 -144v-39q0 -97 -48 -143.5t-149 -46.5h-55q-193 0 -193 190z" />
<glyph unicode="/" horiz-adv-x="823" d="M-37 -297q0 39 17 94l505 1549q1 3 15.5 6.5t39.5 6.5t52 3q40 0 76 -7t71 -23.5t55.5 -50.5t20.5 -81q0 -42 -16 -94l-506 -1548q-1 -3 -15.5 -7t-39.5 -7t-52 -3q-40 0 -76 7t-71 23.5t-55.5 50.5t-20.5 81z" />
<glyph unicode="0" horiz-adv-x="1353" d="M35 602v123q0 290 171.5 460.5t471.5 170.5t470.5 -170t170.5 -461v-123q0 -292 -170.5 -462.5t-470.5 -170.5q-302 0 -472.5 170t-170.5 463zM539 553q0 -98 32.5 -141t106.5 -43q72 0 104.5 43.5t32.5 140.5v223q0 98 -32.5 142.5t-104.5 44.5q-75 0 -107 -43t-32 -144 v-223z" />
<glyph unicode="1" horiz-adv-x="909" d="M29 1012q0 47 11.5 88t28.5 66.5t35.5 43t32.5 24t19 3.5q70 -37 135 -37q67 0 118 38t72 108h123q219 0 219 -232v-903q0 -114 -56 -172.5t-163 -58.5h-61q-103 0 -157 58.5t-54 172.5v582q-47 -15 -78 -15q-97 0 -161 66.5t-64 167.5z" />
<glyph unicode="2" horiz-adv-x="1220" d="M49 238v90q0 241 406 420q34 15 80 33t70 28t49 23t35.5 26t10.5 29q0 45 -28 64.5t-94 19.5q-80 0 -136.5 -56.5t-66.5 -128.5q0 -1 -18 -1t-46 2.5t-62.5 9t-69 22.5t-62.5 39t-46 61t-18 87q0 167 145.5 258.5t409.5 91.5q280 0 428 -116t148 -327q0 -63 -12.5 -115 t-38.5 -90.5t-55 -67.5t-72.5 -52.5t-80.5 -38.5t-89 -33q-44 -15 -124 -37t-133 -40.5t-87 -43.5h462q126 0 181 -45.5t55 -136.5v-16q0 -98 -54.5 -146.5t-181.5 -48.5h-606q-96 0 -147.5 7t-89 32.5t-50 71t-12.5 125.5z" />
<glyph unicode="3" horiz-adv-x="1232" d="M23 285q0 51 16 91t42 64t57.5 41t62.5 23t57.5 8t43 0t17.5 -6q20 -82 84.5 -124t165.5 -42q76 0 119 24.5t43 67.5q0 38 -20.5 54t-67.5 16h-16q-120 0 -175 37.5t-55 119.5v27q0 160 226 160h47q25 0 41 15t16 40q0 38 -44 61t-120 23q-63 0 -109.5 -16t-71 -43 t-36.5 -52.5t-16 -54.5q-1 -6 -30.5 -9t-72 6t-85 30t-72 71.5t-29.5 122.5q0 146 142.5 231t389.5 85q301 0 457 -96.5t156 -282.5q0 -93 -63 -159.5t-181 -102.5q125 -42 191.5 -125.5t66.5 -202.5q0 -201 -161.5 -309.5t-463.5 -108.5q-250 0 -401 86.5t-151 229.5z" />
<glyph unicode="4" horiz-adv-x="1323" d="M10 457v61q2 53 17 99.5t53 113.5l260 461q29 51 57 80t75.5 46.5t106.5 22.5t160 5q190 0 271.5 -71t81.5 -253v-410h6q117 0 164 -37.5t47 -128.5v-10q0 -98 -47 -137t-164 -39h-6v-49q0 -231 -209 -231h-41q-201 0 -201 231v49h-375q-118 0 -187 54.5t-69 142.5z M422 602h240v424z" />
<glyph unicode="5" horiz-adv-x="1183" d="M16 225q0 36 16.5 73t40.5 64.5t49.5 49t44.5 31.5t23 6q162 -134 353 -134q89 0 135.5 29.5t46.5 83.5q0 59 -44 86t-144 27q-118 0 -197 -60q-143 0 -215 63.5t-72 211.5v291q0 142 53 210t177 68h589q122 0 181 -46t59 -144v-11q0 -99 -57.5 -143.5t-182.5 -44.5h-419 v-117q86 25 176 25q241 0 381.5 -112t140.5 -312q0 -206 -158.5 -328.5t-433.5 -122.5q-259 0 -401 73t-142 183z" />
<glyph unicode="6" horiz-adv-x="1304" d="M35 616v82q0 304 181 481t499 177q246 0 380 -79.5t134 -227.5q0 -40 -13 -73.5t-33 -54t-45.5 -37t-50 -23t-46 -12t-34 -4.5t-14.5 1q-27 50 -84.5 86.5t-148.5 36.5q-127 0 -179.5 -58.5t-54.5 -195.5q45 59 127 92t191 33q199 0 316.5 -95.5t117.5 -275.5v-10 q0 -221 -164.5 -355.5t-433.5 -134.5q-295 0 -470 175t-175 472zM539 504q0 -88 37.5 -135t101.5 -47q52 0 88.5 31t36.5 81v10q0 59 -35 90t-96 31q-70 0 -133 -47v-14z" />
<glyph unicode="7" horiz-adv-x="1179" d="M12 1118v27q0 99 53.5 139.5t165.5 40.5h572q74 0 130.5 -10t93 -29t61 -41.5t36.5 -54t16.5 -60.5t4.5 -65v-27q0 -40 -10 -82.5t-33 -91t-37 -75t-46 -78.5t-36 -58l-293 -499q-103 -174 -256 -174q-45 0 -91.5 14.5t-81.5 35.5t-62 44.5t-38.5 43.5t-6.5 29l458 781 h-381q-112 0 -165.5 43t-53.5 147z" />
<glyph unicode="8" horiz-adv-x="1306" d="M33 373q0 119 66.5 193.5t205.5 111.5q-233 71 -233 291q0 177 162 286t423 109q260 0 414 -107t154 -288q0 -214 -228 -287q277 -69 277 -309q0 -188 -165 -293t-460 -105q-296 0 -456 103t-160 295zM516 440q0 -57 38 -93t99 -36q60 0 99 36.5t39 92.5q0 57 -38 92 t-100 35q-60 0 -98.5 -35t-38.5 -92zM526 901q0 -51 37 -86t90 -35q51 0 89 36t38 85q0 50 -36.5 84.5t-90.5 34.5q-53 0 -90 -35t-37 -84z" />
<glyph unicode="9" horiz-adv-x="1304" d="M27 846v10q0 221 165.5 359.5t432.5 138.5q294 0 469.5 -172.5t175.5 -470.5v-103q0 -307 -180 -474t-510 -167q-502 0 -502 252q0 55 13.5 99.5t32 69.5t39 40.5t34.5 20t18 2.5q143 -97 320 -97q130 0 186.5 56.5t56.5 187.5l-2 8q-44 -63 -124.5 -99t-190.5 -36 q-200 0 -317 101.5t-117 273.5zM502 870q0 -59 35 -92t96 -33q66 0 133 54v20q0 86 -36.5 134t-102.5 48q-51 0 -88 -35.5t-37 -84.5v-11z" />
<glyph unicode=":" horiz-adv-x="563" d="M57 172v39q0 98 47 144t146 46h55q103 0 150 -46t47 -144v-39q0 -97 -48 -143.5t-149 -46.5h-55q-193 0 -193 190zM57 711v39q0 97 47.5 143.5t145.5 46.5h55q102 0 149.5 -46.5t47.5 -143.5v-39q0 -98 -48 -144.5t-149 -46.5h-55q-97 0 -145 46.5t-48 144.5z" />
<glyph unicode=";" horiz-adv-x="563" d="M14 -66l54 277q20 105 61 147.5t147 42.5h54q91 0 136.5 -46t45.5 -144v-18q0 -117 -106 -220l-150 -147q-33 -33 -79.5 -39t-85.5 9.5t-62.5 53t-14.5 84.5zM57 711v39q0 97 47.5 143.5t145.5 46.5h55q102 0 149.5 -46.5t47.5 -143.5v-39q0 -98 -48 -144.5t-149 -46.5 h-55q-97 0 -145 46.5t-48 144.5z" />
<glyph unicode="&#x3c;" horiz-adv-x="917" d="M51 508q0 69 40 126t99 89l566 309q11 4 36.5 -24.5t48.5 -83.5t23 -109q0 -153 -166 -229l-157 -74l157 -74q168 -79 168 -227q0 -54 -23.5 -109t-49.5 -84t-37 -24l-566 305q-59 32 -99 87.5t-40 121.5z" />
<glyph unicode="=" horiz-adv-x="1091" d="M51 229v39q0 71 50 124.5t137 53.5h616q88 0 137 -53t49 -125v-39q0 -74 -48.5 -127t-137.5 -53h-616q-88 0 -137.5 53t-49.5 127zM51 762v39q0 71 50 124.5t137 53.5h616q88 0 137 -53t49 -125v-39q0 -74 -48.5 -127t-137.5 -53h-616q-88 0 -137.5 53t-49.5 127z" />
<glyph unicode="&#x3e;" horiz-adv-x="917" d="M51 211q0 148 168 227l156 74l-156 74q-166 76 -166 229q0 54 23.5 109t49 83.5t36.5 24.5l565 -309q59 -32 99 -89t40 -126q0 -66 -40 -121.5t-99 -87.5l-565 -305q-11 -5 -37 24t-50 84t-24 109z" />
<glyph unicode="?" horiz-adv-x="1110" d="M14 1012q0 152 143.5 247t387.5 95q256 0 399 -107t143 -299q0 -80 -25 -141t-63 -94t-84 -59.5t-87 -41.5t-73.5 -37.5t-41.5 -48.5q-28 -80 -191 -80q-92 0 -146 43.5t-54 126.5q0 52 17.5 92.5t45.5 64.5t61.5 41.5t67.5 28.5t62 21t45.5 23t17.5 31q0 28 -26.5 43.5 t-73.5 15.5q-87 0 -144 -53.5t-67 -128.5q0 -2 -32.5 -3t-78.5 7t-92 27.5t-78.5 67.5t-32.5 118zM297 172v39q0 97 47 143.5t145 46.5h56q101 0 148.5 -46t47.5 -144v-39q0 -97 -48 -143.5t-148 -46.5h-56q-192 0 -192 190z" />
<glyph unicode="@" horiz-adv-x="1501" d="M55 664q0 198 89.5 356t251 247t366.5 89q167 0 300 -49.5t215 -133.5t125.5 -190t43.5 -225q0 -201 -101 -306.5t-290 -105.5q-83 0 -143 32.5t-89 88.5q-17 -57 -67 -92t-113 -35q-127 0 -195.5 87t-68.5 218q0 139 73.5 225t188.5 86q108 0 176 -98q40 92 152 92 q26 0 50 -6t37 -13.5t13 -12.5v-291q0 -66 21 -86.5t61 -20.5q17 0 34 5.5t36.5 21t34.5 40t24.5 67.5t9.5 98q0 70 -17 133.5t-56.5 123.5t-99 104t-151 70.5t-204.5 26.5q-160 0 -286.5 -71t-195.5 -195.5t-69 -279.5q0 -240 149.5 -394.5t391.5 -154.5q232 0 381 149 q35 35 67 35q28 0 52 -23t34.5 -45.5t7.5 -25.5q-210 -236 -542 -236q-205 0 -364 88.5t-246 247t-87 359.5zM637 645q0 -43 24 -68.5t62 -25.5q33 0 53 15t23 42v99q-27 38 -74 38q-40 0 -64 -28t-24 -72z" />
<glyph unicode="A" horiz-adv-x="1462" d="M4 133l412 1067q19 66 87.5 100.5t225.5 34.5q82 0 138.5 -9.5t89.5 -29t49.5 -42t25.5 -54.5l434 -1061q2 -5 2 -10q0 -21 -28 -51q-35 -38 -102.5 -68t-137.5 -30q-87 0 -161.5 55.5t-123.5 181.5l-2 4h-376l-5 -10q-43 -122 -114.5 -178t-157.5 -56q-63 0 -128 29 q-64 30 -100 67q-29 30 -29 51q0 5 1 9zM610 573h221l-110 301z" />
<glyph unicode="B" horiz-adv-x="1390" d="M72 279v768q0 138 64.5 208t189.5 70h491q241 0 368.5 -84.5t127.5 -243.5q0 -115 -61.5 -180t-184.5 -92q146 -34 217.5 -121t71.5 -215q0 -206 -142 -297.5t-466 -91.5h-422q-125 0 -189.5 70.5t-64.5 208.5zM563 326h131q84 0 121 28t37 92q0 61 -37.5 86t-128.5 25 h-123v-231zM563 788h99q77 0 112 27t35 84q0 100 -137 100h-109v-211z" />
<glyph unicode="C" horiz-adv-x="1323" d="M45 664q0 149 51.5 277t143.5 219.5t224 143.5t288 52q113 0 205.5 -22.5t151.5 -58t99 -82t57 -92.5t17 -91q0 -42 -15.5 -78.5t-40.5 -61t-55.5 -45.5t-60.5 -31t-56 -18.5t-42 -7.5t-19 2q-61 125 -211 125q-96 0 -159.5 -62.5t-63.5 -168.5t63.5 -170t159.5 -64 q150 0 211 125q3 1 19 2t42 -7.5t56 -18.5t60.5 -31t55.5 -45.5t40.5 -61t15.5 -78.5q0 -45 -17 -91t-57 -92.5t-99 -82t-151.5 -58t-205.5 -22.5q-156 0 -288 52t-224 143t-143.5 220t-51.5 280z" />
<glyph unicode="D" horiz-adv-x="1425" d="M72 274v773q0 134 71 206t187 72h362q322 0 510.5 -177t188.5 -478q0 -305 -192 -487.5t-513 -182.5h-336q-117 0 -197.5 80t-80.5 194zM567 424h103q101 0 165 66t64 180q0 111 -60.5 171t-162.5 60h-109v-477z" />
<glyph unicode="E" horiz-adv-x="1288" d="M72 274v773q0 138 64.5 208t189.5 70h675q120 0 176 -46t56 -144v-11q0 -101 -55 -144.5t-177 -43.5h-428v-88h252q124 0 178 -39.5t54 -130.5v-6q0 -97 -54.5 -140t-177.5 -43h-252v-104h437q122 0 176.5 -40.5t54.5 -135.5v-10q0 -103 -55.5 -151t-175.5 -48h-684 q-254 0 -254 274z" />
<glyph unicode="F" horiz-adv-x="1196" d="M72 287v760q0 138 64.5 208t189.5 70h614q120 0 175.5 -46t55.5 -144v-11q0 -103 -55.5 -150.5t-175.5 -47.5h-377v-140h242q122 0 176.5 -44t54.5 -136v-6q0 -98 -55 -145t-176 -47h-221v-185q0 -114 -56 -172.5t-163 -58.5h-82q-102 0 -156.5 78t-54.5 217z" />
<glyph unicode="G" horiz-adv-x="1505" d="M45 664q0 149 53.5 277t150 219.5t236.5 143.5t306 52q253 0 393.5 -84t140.5 -238q0 -48 -24 -90t-58.5 -67t-70.5 -42t-62 -22t-31 0q-105 115 -254 115q-117 0 -196.5 -81t-79.5 -210q0 -133 73.5 -212t182.5 -79q137 0 182 82h-43q-123 0 -177 35.5t-54 134.5v20 q0 102 52.5 135t178.5 33h350q98 0 127 -42q27 -40 27 -140v-14v-551q0 -7 -22.5 -18.5t-63 -21t-82.5 -9.5q-80 0 -145 39t-95 131q-101 -180 -372 -180q-133 0 -249 51.5t-198 141.5t-129 217t-47 274z" />
<glyph unicode="H" horiz-adv-x="1447" d="M72 221v883q0 231 211 231h73q219 0 219 -231v-230h299v230q0 231 211 231h74q219 0 219 -231v-883q0 -114 -56 -172.5t-163 -58.5h-74q-103 0 -157 58.5t-54 172.5v238h-299v-238q0 -114 -56 -172.5t-163 -58.5h-73q-103 0 -157 58.5t-54 172.5z" />
<glyph unicode="I" horiz-adv-x="669" d="M84 221v883q0 231 211 231h72q219 0 219 -231v-883q0 -114 -56 -172.5t-163 -58.5h-72q-103 0 -157 58.5t-54 172.5z" />
<glyph unicode="J" horiz-adv-x="1169" d="M23 258q0 51 15 95.5t37 72t44.5 46t38.5 26t18 4.5q106 -109 244 -109q83 0 119 40t36 138v533q0 231 211 231h72q219 0 219 -231v-541q0 -594 -575 -594q-479 0 -479 289z" />
<glyph unicode="K" horiz-adv-x="1400" d="M72 221v883q0 231 211 231h71q219 0 219 -231v-313l224 374q110 170 272 170q46 0 93.5 -15.5t83.5 -38.5t63.5 -48t40.5 -46.5t8 -31.5l-318 -481l338 -506q1 -3 1 -6q1 -9 -9 -25q-14 -21 -43 -46t-66.5 -48t-88 -38t-99.5 -15q-162 0 -274 170l-226 366v-305 q0 -114 -56 -172.5t-163 -58.5h-71q-103 0 -157 58.5t-54 172.5z" />
<glyph unicode="L" horiz-adv-x="1150" d="M72 274v830q0 231 211 231h71q219 0 219 -231v-672h324q231 0 231 -207v-6q0 -219 -231 -219h-571q-254 0 -254 274z" />
<glyph unicode="M" horiz-adv-x="1601" d="M72 221v883q0 231 211 231h143q91 0 132.5 -23t70.5 -89l172 -451l172 451q31 69 72.5 90.5t121.5 21.5h144q219 0 219 -231v-883q0 -117 -45 -174t-150 -57h-82q-101 0 -147.5 57.5t-46.5 173.5v385l-68 -268q-2 -5 -6.5 -20.5t-8 -22t-11.5 -19t-20 -18t-31 -12.5 t-48 -10t-67 -3q-44 0 -76 5t-49.5 10.5t-30 18.5t-16 20.5t-9.5 26t-8 24.5l-67 246v-363q0 -117 -45 -174t-150 -57h-82q-101 0 -147.5 57.5t-46.5 173.5z" />
<glyph unicode="N" horiz-adv-x="1458" d="M72 221v893q0 111 51.5 166t146.5 55h41q80 0 118.5 -20.5t92.5 -81.5l393 -479v350q0 114 56 172.5t164 58.5h41q103 0 156.5 -58.5t53.5 -172.5v-893q0 -111 -51.5 -166t-146.5 -55h-41q-81 0 -121 21t-90 81l-393 469v-340q0 -114 -56 -172.5t-163 -58.5h-41 q-103 0 -157 58.5t-54 172.5z" />
<glyph unicode="O" horiz-adv-x="1492" d="M35 664q0 198 91.5 356t254.5 247t367 89t366.5 -89t253 -247t90.5 -356q0 -149 -53 -278t-146.5 -220.5t-225.5 -144t-285 -52.5q-205 0 -368 89t-254 248t-91 358zM526 664q0 -114 59.5 -180t162.5 -66q101 0 160 66t59 180t-59 180.5t-160 66.5q-105 0 -163.5 -64.5 t-58.5 -182.5z" />
<glyph unicode="P" horiz-adv-x="1298" d="M72 221v826q0 136 64.5 207t189.5 71h352q304 0 461 -128t157 -380q0 -247 -151 -370t-445 -123h-125v-103q0 -113 -56 -172t-163 -59h-73q-101 0 -156 59t-55 172zM567 682h107q67 0 103 35t36 100q0 66 -38 101.5t-111 35.5h-97v-272z" />
<glyph unicode="Q" horiz-adv-x="1501" d="M35 664q0 198 92 356t256 247t369 89t368 -88.5t254.5 -246.5t91.5 -357q0 -186 -106 -353l164 -182q1 -1 1 -2q0 -6 -9 -19q-11 -17 -35.5 -40.5t-57 -45.5t-80.5 -37.5t-98 -15.5q-93 0 -196 68q-145 -68 -297 -68q-206 0 -369.5 88.5t-255.5 247.5t-92 359zM526 659 q0 -106 60 -174t157 -69q-20 42 -20 88q0 16 2 32q9 64 59 105l11 8q50 41 107 41q44 0 93 -26q0 109 -63.5 179t-169.5 70q-111 0 -173.5 -71t-62.5 -183z" />
<glyph unicode="R" horiz-adv-x="1386" d="M72 285v762q0 138 64.5 208t189.5 70h424q289 0 433 -115.5t144 -337.5q0 -135 -63 -233t-183 -147l269 -336q2 -2 2 -6q0 -7 -5 -18q-8 -18 -30 -42t-54.5 -46.5t-84.5 -38t-113 -15.5q-60 0 -106 12.5t-86.5 41.5t-72.5 65.5t-75 95.5l-131 180h-21v-164 q0 -114 -56 -172.5t-163 -58.5h-71q-102 0 -156.5 78t-54.5 217zM565 713h123q139 0 139 118q0 121 -141 121h-121v-239z" />
<glyph unicode="S" horiz-adv-x="1236" d="M27 246q0 32 14.5 68.5t35 65.5t42.5 53t39 36t22 8q71 -50 186 -89.5t203 -39.5q75 0 106.5 13.5t31.5 44.5q0 11 -4.5 19t-15 14.5t-21.5 11t-30.5 9t-35 7t-42.5 7.5t-46 9q-75 15 -135.5 33.5t-123 52t-104 76.5t-68 108t-26.5 146q0 221 153.5 339t450.5 118 q267 0 395 -71.5t128 -188.5q0 -37 -16.5 -77t-40 -70t-48 -54t-42.5 -36t-21 -9q-73 56 -168.5 91.5t-179.5 35.5q-73 0 -103.5 -13t-30.5 -44q0 -13 9.5 -22t32 -15.5t44 -11t61 -11t66.5 -12.5q223 -48 345 -145.5t122 -266.5q0 -233 -158.5 -350t-484.5 -117 q-542 0 -542 277z" />
<glyph unicode="T" horiz-adv-x="1292" d="M10 1112v6q0 207 232 207h809q231 0 231 -207v-6q0 -219 -231 -219h-150v-672q0 -113 -57.5 -172t-165.5 -59h-72q-207 0 -207 231v672h-157q-114 0 -173 56t-59 163z" />
<glyph unicode="U" horiz-adv-x="1417" d="M72 600v504q0 115 58 173t163 58h61q219 0 219 -231v-508q0 -184 138 -184q69 0 101 44t32 140v508q0 115 58 173t163 58h61q220 0 220 -231v-504q0 -620 -637 -620t-637 620z" />
<glyph unicode="V" horiz-adv-x="1431" d="M4 1161q-2 5 -2 10q0 22 34 55q42 41 122 75t157 34q96 0 170 -63.5t105 -169.5l137 -469l135 469q32 116 104.5 174.5t161.5 58.5q75 0 151 -34t116 -75q32 -33 32 -55q0 -5 -2 -10l-419 -983q-42 -100 -109.5 -144t-175.5 -44q-109 0 -172.5 41.5t-108.5 146.5z" />
<glyph unicode="W" horiz-adv-x="2066" d="M45 1155q-2 8 9 27t37 44t62 48t91 39t116 16q30 0 60 -6.5t64 -24.5t61.5 -46.5t51 -76t34.5 -108.5l63 -389l90 375q18 86 91 130t172 44q92 0 165.5 -47t90.5 -127l90 -375l61 397q12 69 40 120.5t66 80t79 42t85 13.5q57 0 109 -16t85.5 -39t57.5 -48q26 -25 36 -45 q8 -16 8 -24q0 -2 -1 -4l-299 -977q-28 -101 -99.5 -144.5t-184.5 -43.5q-115 0 -186.5 42t-102.5 146l-111 408l-102 -408q-51 -188 -295 -188q-114 0 -182 41.5t-99 146.5z" />
<glyph unicode="X" horiz-adv-x="1435" d="M20 158l349 495l-349 498q-1 2 -1 5q0 10 12 26q16 22 49 47t74.5 48t94.5 38.5t103 15.5q82 0 147.5 -42.5t118.5 -141.5l103 -193l104 193q47 90 120 136t151 46q49 0 100 -15t90.5 -38t70.5 -48t46 -46q11 -16 11 -25q0 -3 -1 -6l-350 -498l350 -495q1 -2 1 -6 q0 -10 -12 -25q-16 -21 -47.5 -46t-72 -48t-93 -38t-102.5 -15q-173 0 -272 184l-104 190l-103 -190q-98 -184 -270 -184q-49 0 -100.5 15t-91 38t-70.5 48t-46 46q-11 16 -11 25q0 4 1 6z" />
<glyph unicode="Y" horiz-adv-x="1370" d="M-16 1145q-2 3 -2 8q0 8 5 21q8 20 32.5 47t60.5 51.5t97 41.5t134 17q139 0 234 -174l143 -260l154 260q101 176 235 176q65 0 122 -17.5t92.5 -43t60 -52.5t33.5 -48q6 -13 6 -20q0 -4 -2 -7l-449 -635v-289q0 -114 -56 -172.5t-163 -58.5h-72q-103 0 -157 58.5 t-54 172.5v289z" />
<glyph unicode="Z" horiz-adv-x="1284" d="M47 188v21q0 51 7.5 89t28 71.5t33.5 49t48 52.5l418 444h-295q-111 0 -165 45.5t-54 149.5v20q0 101 55 148t164 47h717q120 0 179.5 -55.5t59.5 -132.5v-21q0 -52 -7 -89.5t-26.5 -69.5t-34.5 -50t-49 -53l-430 -444h332q112 0 166.5 -45.5t54.5 -149.5v-20 q0 -101 -55 -148t-166 -47h-741q-120 0 -180 55.5t-60 132.5z" />
<glyph unicode="[" horiz-adv-x="888" d="M72 -135v1212q0 138 64.5 208.5t189.5 70.5h307q122 0 176.5 -41.5t54.5 -138.5v-11q0 -101 -54.5 -144.5t-176.5 -43.5h-121v-1012h129q122 0 176.5 -40.5t54.5 -135.5v-10q0 -102 -55 -145.5t-176 -43.5h-315q-254 0 -254 275z" />
<glyph unicode="\" horiz-adv-x="823" d="M6 1200q0 47 20.5 81t55.5 50.5t71 23.5t76 7q27 0 52 -3t39.5 -6.5t15.5 -6.5l506 -1549q16 -52 16 -94q0 -47 -20.5 -81t-55.5 -50.5t-71 -23.5t-76 -7q-27 0 -52 3t-39.5 7t-15.5 7l-505 1548q-17 55 -17 94z" />
<glyph unicode="]" horiz-adv-x="888" d="M16 -211q0 95 55 135.5t177 40.5h129v1012h-121q-122 0 -176.5 43.5t-54.5 144.5v11q0 97 54.5 138.5t176.5 41.5h307q125 0 189.5 -70.5t64.5 -208.5v-1212q0 -275 -254 -275h-315q-122 0 -177 44t-55 145v10z" />
<glyph unicode="^" horiz-adv-x="1024" d="M150 1034q0 74 57 142.5t137 113t168 68.5q88 -24 168 -68.5t137 -113t57 -142.5q0 -62 -42.5 -102.5t-110.5 -40.5q-69 0 -126.5 47.5t-82.5 122.5q-25 -75 -83.5 -122.5t-125.5 -47.5q-68 0 -110.5 40.5t-42.5 102.5z" />
<glyph unicode="_" horiz-adv-x="1091" d="M10 -158q0 69 49 113.5t138 44.5h698q90 0 138 -44.5t48 -113.5v-18q0 -72 -47.5 -116t-138.5 -44h-698q-90 0 -138.5 44.5t-48.5 115.5v18z" />
<glyph unicode="`" horiz-adv-x="1024" d="M145 1372q0 77 62 129.5t153 52.5q60 0 115 -30q64 -35 119.5 -113.5t79.5 -147.5t12 -92q-9 -17 -48 -34t-94 -28t-128.5 -1t-139.5 45q-59 32 -95 93.5t-36 125.5z" />
<glyph unicode="a" horiz-adv-x="1222" d="M33 274q0 161 157.5 246.5t444.5 85.5h49q-1 60 -31 86.5t-90 26.5q-137 0 -170 -98q-1 -3 -34 -7q-20 -3 -45 -3q-17 0 -35 1q-47 3 -94 16t-80 51t-33 97q0 143 123.5 208t394.5 65q297 0 432 -113t135 -348v-555q0 -20 -59 -38t-129 -18q-97 0 -163 45.5t-97 131.5 q-46 -83 -135 -128.5t-203 -45.5q-153 0 -245.5 80.5t-92.5 213.5zM465 330q0 -36 24.5 -57t63.5 -21q57 0 92 28.5t39 79.5v62h-55q-164 0 -164 -92z" />
<glyph unicode="b" horiz-adv-x="1329" d="M74 221v1182q0 8 25 21t70.5 23.5t90.5 10.5q55 0 103.5 -16.5t93 -54t70.5 -110.5t26 -175v-182q43 60 115.5 94.5t158.5 34.5q215 0 340 -144t125 -393q0 -241 -126 -392t-337 -151q-98 0 -173 51t-109 136q-27 -166 -205 -166h-49q-105 0 -162 52.5t-57 178.5z M553 465q0 -62 35.5 -94.5t99.5 -32.5q69 0 111.5 47t42.5 123q0 83 -40.5 127.5t-113.5 44.5q-91 0 -135 -76v-139z" />
<glyph unicode="c" horiz-adv-x="1044" d="M37 510q0 236 154 386.5t399 150.5q96 0 173 -18.5t125 -47.5t80 -66.5t45 -72.5t13 -68q0 -38 -13.5 -70.5t-34.5 -53.5t-47.5 -39t-52.5 -25.5t-49 -13.5t-37 -4.5t-16 3.5q-41 107 -158 107q-70 0 -113.5 -47.5t-43.5 -120.5q0 -76 43.5 -124t113.5 -48q57 0 98 28 t60 78q1 4 15.5 4.5t36.5 -3.5t48.5 -12t53 -24.5t48 -38.5t35 -56.5t13.5 -75.5q0 -42 -24.5 -86.5t-73.5 -86.5t-137 -69t-201 -27q-251 0 -402 148.5t-151 392.5z" />
<glyph unicode="d" horiz-adv-x="1329" d="M37 512q0 249 125 393t340 144q84 0 157 -34.5t117 -94.5v483q0 8 25.5 21t71 23.5t90.5 10.5q44 0 82.5 -9.5t78 -34t68 -63.5t46 -103t17.5 -146v-881q0 -231 -211 -231h-49q-91 0 -146 38t-69 128q-33 -86 -108 -136.5t-172 -50.5q-211 0 -337 151t-126 392zM487 508 q0 -76 42.5 -123t111.5 -47q64 0 99.5 33t35.5 96v141q-45 72 -129 72q-73 0 -116.5 -45t-43.5 -127z" />
<glyph unicode="e" horiz-adv-x="1175" d="M37 500q0 237 157 393t400 156q240 0 395.5 -145.5t155.5 -364.5v-21q-2 -54 -20.5 -82t-65.5 -28h-621q37 -123 203 -123q75 0 133.5 28.5t83.5 75.5q0 1 22.5 0t55 -9.5t64.5 -25.5t54.5 -54t22.5 -87q0 -117 -117.5 -180.5t-336.5 -63.5q-275 0 -430.5 140t-155.5 391 zM444 610h281q-3 69 -38.5 106.5t-98.5 37.5q-60 0 -100.5 -41t-43.5 -103z" />
<glyph unicode="f" horiz-adv-x="909" d="M2 844v24q0 78 48.5 119t142.5 41h8v8q0 126 31.5 212.5t91 133t131 65.5t166.5 19q162 0 242.5 -60t80.5 -151q0 -44 -21 -90t-42 -71t-25 -21q-48 45 -115 45q-41 0 -61.5 -16.5t-20.5 -57.5v-16h50q190 0 190 -170v-24q0 -78 -48.5 -119t-141.5 -41h-29v-453 q0 -126 -55.5 -178.5t-159.5 -52.5h-49q-215 0 -215 231v453h-8q-191 0 -191 170z" />
<glyph unicode="g" horiz-adv-x="1153" d="M-25 -156q0 105 84.5 173t225.5 83q-31 36 -31 90q0 42 26.5 78.5t69.5 53.5q-150 35 -229.5 121.5t-79.5 213.5q0 172 148.5 281t381.5 109q83 0 164 -19l29 64q37 79 86.5 113t116.5 34q45 0 85.5 -20t65.5 -48t42.5 -57.5t23.5 -49.5q5 -15 5 -20q0 -3 -1 -4 l-180 -157q96 -99 96 -226q0 -164 -129.5 -257t-364.5 -101q9 -14 41 -24t100 -25t111 -27q58 -17 106.5 -41t92 -61t68 -90.5t24.5 -118.5q0 -155 -156 -249.5t-434 -94.5q-306 0 -447 68t-141 208zM401 -164q0 -35 43 -56.5t127 -21.5q154 0 154 80q0 34 -38.5 54 t-127.5 38q-77 -7 -117.5 -32t-40.5 -62zM455 662q0 -56 32.5 -89.5t83.5 -33.5q52 0 84.5 33.5t32.5 89.5q0 55 -32.5 86.5t-84.5 31.5q-51 0 -83.5 -32t-32.5 -86z" />
<glyph unicode="h" d="M74 221v1182q0 8 25 21t70.5 23.5t90.5 10.5q55 0 103.5 -16.5t93 -54t70.5 -110.5t26 -175v-240q101 187 313 187q96 0 167 -35t110 -95t57.5 -130.5t18.5 -151.5v-416q0 -231 -211 -231h-50q-105 0 -162 52.5t-57 178.5v336q0 51 -23 79t-63 28q-100 0 -100 -111v-332 q0 -231 -211 -231h-49q-105 0 -162 52.5t-57 178.5z" />
<glyph unicode="i" horiz-adv-x="638" d="M70 1319q0 99 66.5 158t178.5 59q117 0 185.5 -58.5t68.5 -158.5q0 -99 -66.5 -158t-178.5 -59q-117 0 -185.5 58.5t-68.5 158.5zM80 221v588q0 231 215 231h49q104 0 159.5 -52.5t55.5 -178.5v-588q0 -231 -211 -231h-49q-105 0 -162 52.5t-57 178.5z" />
<glyph unicode="j" horiz-adv-x="638" d="M-156 -178q0 44 21.5 87t42.5 64.5t24 18.5q26 -37 82 -37q31 0 48.5 16t17.5 45v793q0 231 215 231h49q104 0 159.5 -52.5t55.5 -178.5v-815q0 -193 -105.5 -298.5t-299.5 -105.5q-310 0 -310 232zM70 1319q0 99 66.5 158t178.5 59q117 0 185.5 -58.5t68.5 -158.5 q0 -99 -66.5 -158t-178.5 -59q-117 0 -185.5 58.5t-68.5 158.5z" />
<glyph unicode="k" horiz-adv-x="1228" d="M74 221v1182q0 8 25 21t70.5 23.5t90.5 10.5q55 0 103.5 -16.5t93 -54t70.5 -110.5t26 -175v-451l141 254q42 72 109.5 107t134.5 35q65 0 131 -29.5t101.5 -62.5t29.5 -48l-242 -383l259 -407q1 -2 1 -4q0 -14 -34 -42q-38 -32 -104.5 -60.5t-129.5 -28.5 q-74 0 -143 33.5t-113 107.5l-141 250v-152q0 -231 -211 -231h-49q-105 0 -162 52.5t-57 178.5z" />
<glyph unicode="l" horiz-adv-x="638" d="M80 221v1182q0 8 25 21t70.5 23.5t90.5 10.5q55 0 103.5 -16.5t93 -54t70.5 -110.5t26 -175v-881q0 -231 -211 -231h-49q-105 0 -162 52.5t-57 178.5z" />
<glyph unicode="m" horiz-adv-x="1898" d="M74 221v764q0 8 25 21t70.5 23.5t90.5 10.5q88 0 161 -44t107 -144q62 96 135.5 146.5t190.5 50.5q241 0 313 -201q40 64 79 104.5t103 68.5t146 28q96 0 165 -31.5t105.5 -87t53 -120t16.5 -142.5v-447q0 -231 -211 -231h-49q-105 0 -162 52.5t-57 178.5v354 q0 89 -78 89q-47 0 -84 -33v-410q0 -231 -211 -231h-49q-105 0 -162 52.5t-57 178.5v354q0 89 -78 89q-47 0 -84 -33v-410q0 -231 -211 -231h-49q-105 0 -162 52.5t-57 178.5z" />
<glyph unicode="n" d="M74 221v764q0 8 25 21t70.5 23.5t90.5 10.5q88 0 161 -44t107 -144q41 61 83 101.5t108 68t147 27.5q77 0 138.5 -22.5t101 -59.5t65.5 -88t37 -106t11 -116v-436q0 -231 -211 -231h-50q-105 0 -162 52.5t-57 178.5v348q0 43 -23.5 69t-64.5 26q-59 0 -98 -39v-404 q0 -231 -211 -231h-49q-105 0 -162 52.5t-57 178.5z" />
<glyph unicode="o" horiz-adv-x="1216" d="M37 510q0 245 157 392t418 147q259 0 413.5 -146.5t154.5 -392.5q0 -249 -156 -395t-420 -146q-263 0 -415 145.5t-152 395.5zM436 510q0 -80 47 -129t125 -49q75 0 123.5 50.5t48.5 127.5q0 80 -48 130t-124 50t-124 -50t-48 -130z" />
<glyph unicode="p" horiz-adv-x="1329" d="M74 -162v1147q0 8 25 21t70.5 23.5t90.5 10.5q42 0 80.5 -9.5t76.5 -30.5t68 -61t47 -95q25 92 105.5 148.5t189.5 56.5q215 0 340 -144t125 -393q0 -241 -126 -392t-337 -151q-94 0 -168 47.5t-108 126.5v-305q0 -231 -211 -231h-49q-105 0 -162 52.5t-57 178.5z M553 455q3 -58 38.5 -87.5t96.5 -29.5q69 0 111.5 47t42.5 123q0 83 -40.5 127.5t-113.5 44.5q-91 0 -135 -76v-149z" />
<glyph unicode="q" horiz-adv-x="1329" d="M37 512q0 249 125 393t340 144q102 0 184.5 -50.5t118.5 -130.5q37 92 108 132t156 40q45 0 90.5 -10.5t70.5 -23.5t25 -21v-1147q0 -126 -57 -178.5t-162 -52.5h-49q-211 0 -211 231v305q-36 -79 -109 -126.5t-167 -47.5q-211 0 -337 151t-126 392zM487 508 q0 -76 42.5 -123t111.5 -47q64 0 99.5 33t35.5 96v141q-45 72 -129 72q-73 0 -116.5 -45t-43.5 -127z" />
<glyph unicode="r" horiz-adv-x="1044" d="M74 221v764q0 8 25 21t70.5 23.5t90.5 10.5q88 0 161 -44t107 -144q24 87 89.5 142t156.5 55q109 0 174.5 -68t65.5 -180q0 -55 -16 -101t-39 -73.5t-47 -46t-40 -26t-18 -5.5q-64 57 -147 57q-76 0 -115 -44.5t-39 -145.5v-195q0 -231 -211 -231h-49q-105 0 -162 52.5 t-57 178.5z" />
<glyph unicode="s" horiz-adv-x="1032" d="M14 221q0 43 24.5 85.5t49 64t29.5 16.5q58 -45 147 -75.5t180 -30.5q84 0 84 32q0 17 -24.5 26t-82.5 22q-12 3 -18 4q-121 27 -171 48q-193 82 -193 283q0 163 123.5 257t349.5 94q457 0 457 -248q0 -47 -27.5 -92.5t-55 -69t-32.5 -19.5q-61 54 -145.5 89.5 t-155.5 35.5q-80 0 -80 -36q0 -8 6 -14.5t22 -11.5t29 -8t41 -8.5t45 -9.5q129 -29 185 -53q194 -83 194 -274q0 -169 -128.5 -258.5t-379.5 -89.5q-250 0 -361.5 57.5t-111.5 183.5z" />
<glyph unicode="t" horiz-adv-x="962" d="M10 834v24q0 83 48.5 126.5t142.5 43.5v76q0 112 55.5 171.5t159.5 59.5h39q105 0 160.5 -52.5t54.5 -178.5v-76h69q185 0 185 -160v-24q0 -83 -48.5 -126.5t-142.5 -43.5h-74v-268q0 -32 18 -50t50 -18q57 0 98 59q2 3 13 -2.5t25.5 -20t28.5 -34.5t24 -50.5t10 -62.5 q0 -117 -93 -187.5t-247 -70.5q-385 0 -385 383v322q-92 0 -141.5 41t-49.5 119z" />
<glyph unicode="u" d="M63 362v447q0 231 211 231h50q105 0 162 -52.5t57 -178.5v-358q0 -43 23.5 -69t64.5 -26q59 0 98 39v414q0 231 211 231h49q105 0 162 -52.5t57 -178.5v-764q0 -8 -25 -21t-70.5 -23.5t-90.5 -10.5q-56 0 -104 14.5t-94 57t-70 110.5q-62 -97 -140.5 -149t-197.5 -52 q-77 0 -138.5 22t-101 59t-65.5 88.5t-37 106t-11 115.5z" />
<glyph unicode="v" horiz-adv-x="1234" d="M10 905q-1 2 -1 3q0 14 34 43q38 33 106 63t130 30q183 0 241 -206l101 -351l104 351q33 111 96 158.5t140 47.5q63 0 129.5 -29.5t102.5 -62.5q31 -28 31 -43q0 -2 -1 -4l-357 -815q-18 -40 -67.5 -65t-92 -31t-83.5 -6q-43 0 -86.5 6t-94.5 31t-69 65z" />
<glyph unicode="w" horiz-adv-x="1748" d="M10 905q-5 15 40.5 48t119 62t133.5 29q182 0 211 -165l57 -390l101 349q20 68 82.5 106.5t140.5 38.5q77 0 137.5 -38.5t77.5 -106.5l82 -322l57 363q16 89 71.5 127t127.5 38q63 0 135.5 -29t115.5 -62q39 -30 39 -45q0 -2 -1 -3l-279 -794q-11 -38 -38 -64.5 t-62.5 -38t-64.5 -16t-58 -4.5q-117 0 -173 29.5t-87 123.5l-101 305l-94 -305q-27 -92 -86 -122.5t-170 -30.5q-30 0 -59 4.5t-63.5 16.5t-62.5 38.5t-42 63.5z" />
<glyph unicode="x" horiz-adv-x="1200" d="M25 127l264 387l-264 389q-1 2 -1 5q0 8 9 20q13 16 39.5 36.5t61 39t78.5 31t85 12.5q170 0 235 -148l66 -131l66 131q34 74 95.5 111t133.5 37q44 0 89.5 -12.5t81 -31t62.5 -39t40 -36.5q9 -12 9 -20q0 -3 -1 -5l-267 -389l267 -387q1 -2 1 -5q-1 -8 -9 -20 q-12 -16 -39.5 -36t-63 -38.5t-83 -31t-93.5 -12.5q-70 0 -130.5 37t-92.5 110l-66 129l-66 -129q-32 -71 -92 -109t-139 -38q-67 0 -138 31t-109 65q-31 27 -31 41q0 4 2 6z" />
<glyph unicode="y" horiz-adv-x="1234" d="M10 905q-1 1 -1 3q0 14 35 43q38 33 106.5 62.5t132.5 30.5q50 0 92.5 -17t83 -65t61.5 -124l103 -338l102 338q33 111 96 158.5t140 47.5q63 0 129.5 -29.5t102.5 -62.5q31 -28 31 -43q0 -2 -1 -4l-437 -1081q-81 -203 -247 -203q-65 0 -130 28.5t-99.5 59.5t-28.5 45 l168 328q-86 26 -107 80z" />
<glyph unicode="z" horiz-adv-x="1064" d="M35 156v16q0 56 10 91.5t22.5 52.5t45.5 51l299 307h-187q-176 0 -176 168v16q0 82 45 126t131 44h615q81 0 124.5 -46.5t43.5 -107.5v-16q0 -80 -15.5 -113.5t-62.5 -80.5l-312 -308h238q174 0 174 -168v-16q0 -170 -174 -170h-655q-80 0 -123 46t-43 108z" />
<glyph unicode="{" horiz-adv-x="1077" d="M31 473q0 120 47 183.5t178 129.5l29 15q18 124 55.5 221t86 159t110.5 102t126 56.5t136 16.5q113 0 187.5 -58t74.5 -153q0 -28 -8 -53.5t-19 -42t-23.5 -29t-22 -18t-13.5 -5.5q-141 0 -197.5 -83.5t-68.5 -297.5l-242 -143l242 -143q12 -214 68.5 -297.5t197.5 -83.5 q4 0 13.5 -5.5t22 -18t23.5 -29t19 -42t8 -53.5q0 -95 -74.5 -153t-187.5 -58q-72 0 -136 16.5t-126 56.5t-110.5 102t-86 159t-55.5 221l-29 15q-140 70 -182.5 129.5t-42.5 183.5z" />
<glyph unicode="|" horiz-adv-x="626" d="M74 -178v1302q0 232 215 232h49q104 0 159.5 -52.5t55.5 -179.5v-1302q0 -232 -211 -232h-49q-105 0 -162 53t-57 179z" />
<glyph unicode="}" horiz-adv-x="1077" d="M16 -199q0 28 8 53.5t19 42t23.5 29t22 18t13.5 5.5q141 0 198 83.5t69 297.5l241 143l-241 143q-12 214 -69 297.5t-198 83.5q-4 0 -13.5 5.5t-22 18t-23.5 29t-19 42t-8 53.5q0 95 75 153t188 58q72 0 136 -16.5t126 -56.5t110.5 -102t86 -159t55.5 -221l28 -15 q129 -65 177.5 -129.5t48.5 -183.5q0 -123 -44 -183.5t-182 -129.5l-28 -15q-18 -124 -55.5 -221t-86 -159t-110.5 -102t-126 -56.5t-136 -16.5q-113 0 -188 58t-75 153z" />
<glyph unicode="~" horiz-adv-x="1021" d="M113 463q0 113 69 177.5t164 64.5q83 0 145.5 -27t118.5 -86q42 113 146 113q66 0 108.5 -46.5t42.5 -109.5q0 -113 -68.5 -176.5t-164.5 -63.5q-84 0 -146.5 26.5t-117.5 86.5q-42 -113 -146 -113q-66 0 -108.5 45.5t-42.5 108.5z" />
<glyph unicode="&#xa1;" horiz-adv-x="641" d="M47 279l125 434q22 77 51.5 112t75.5 35h47q43 0 71 -35t50 -112l125 -434q38 -133 -32 -220.5t-210 -87.5h-51q-148 0 -219 87t-33 221zM98 1116v39q0 97 48 144t149 47h55q193 0 193 -191v-39q0 -98 -47 -144t-146 -46h-55q-103 0 -150 46t-47 144z" />
<glyph unicode="&#xa2;" horiz-adv-x="1058" d="M0 582q0 190 98.5 325t270.5 191v43q0 231 215 231h8q104 0 159.5 -52.5t55.5 -178.5v-29q114 -25 184 -92q29 -31 48.5 -73.5t19.5 -80.5q0 -36 -13 -66.5t-34 -51t-47.5 -37.5t-52 -25t-48 -14.5t-36.5 -5t-17 3.5q-38 54 -77.5 76t-102.5 22q-77 0 -128.5 -53.5 t-51.5 -132.5q0 -83 51 -137t129 -54q63 0 103 21.5t77 74.5q3 2 17 3.5t36.5 -5t48 -14.5t52 -25t47.5 -37.5t34 -51t13 -66.5q0 -37 -19.5 -80.5t-48.5 -73.5q-65 -65 -184 -92v-29q0 -126 -55.5 -178.5t-159.5 -52.5h-8q-215 0 -215 231v41q-173 55 -271 191.5t-98 333.5 z" />
<glyph unicode="&#xa3;" horiz-adv-x="1312" d="M35 178v21q0 85 43 125.5t139 44.5l19 104q-62 3 -101 43.5t-39 101.5v39q0 61 43.5 102.5t108.5 41.5h47l20 112q39 221 174.5 332t344.5 111q206 0 325 -74.5t119 -218.5q0 -50 -14 -89t-37 -62t-50.5 -39t-55 -22t-50.5 -8.5t-37 -2t-14 1.5q-11 68 -48.5 102.5 t-113.5 34.5q-60 0 -95 -30t-48 -101l-8 -47h184q66 0 108.5 -41t42.5 -103v-39q0 -64 -42.5 -104.5t-108.5 -40.5h-244l-18 -104h440q114 0 163.5 -39.5t49.5 -130.5v-21q0 -96 -49 -137t-164 -41h-821q-115 0 -164 41t-49 137z" />
<glyph unicode="&#xa4;" horiz-adv-x="1304" d="M14 647v39q0 58 40.5 100.5t111.5 42.5h8q26 246 197.5 385.5t437.5 139.5q147 0 257 -41t159 -92q31 -31 45.5 -65t13.5 -87q0 -44 -21.5 -84.5t-52 -66.5t-62.5 -45t-55 -26.5t-28 -2.5q-58 58 -109 82t-125 24q-150 0 -174 -121h191q72 0 111.5 -42t39.5 -101v-39 q0 -61 -39 -103t-112 -42h-191q22 -129 174 -129q74 0 125 24t109 82q5 5 28 -2.5t55 -26.5t62.5 -45t52 -66.5t21.5 -84.5q1 -53 -13.5 -87t-45.5 -65q-49 -51 -159 -92t-257 -41q-176 0 -313 62t-221.5 183t-100.5 288h-8q-72 0 -112 42t-40 103z" />
<glyph unicode="&#xa5;" horiz-adv-x="1370" d="M66 522v43q0 65 43 111.5t122 46.5h127l-272 412q-5 8 -0.5 30t23 51.5t48.5 57t85.5 46.5t124.5 19q168 0 239 -174l84 -227l90 227q42 96 103 137t143 41q59 0 108 -20t78 -48.5t48 -58.5t25 -52.5t1 -28.5l-270 -412h125q80 0 123 -46.5t43 -111.5v-43q0 -68 -43 -114 t-123 -46h-221v-151q0 -117 -47 -174t-152 -57h-72q-101 0 -145.5 57t-44.5 174v151h-228q-79 0 -122 46.5t-43 113.5z" />
<glyph unicode="&#xa7;" horiz-adv-x="1286" d="M35 399q0 94 58 165.5t173 113.5q-164 87 -164 262q0 192 144 303t407 111q114 0 202 -15t141 -39t86.5 -57t46 -65.5t12.5 -69.5q0 -33 -13.5 -66t-33.5 -56.5t-40.5 -41t-36 -26t-18.5 -5.5q-71 55 -156.5 88t-156.5 33q-64 0 -87.5 -11t-23.5 -40q0 -6 3.5 -12 t12 -11.5t18 -10t25 -9t29 -8.5t34.5 -9t37.5 -8.5t41.5 -9.5t43 -10q56 -14 99.5 -28t97.5 -35.5t92.5 -48.5t72.5 -62.5t52 -82.5t18 -103q0 -191 -225 -279q158 -84 158 -262q0 -192 -156 -306t-436 -114q-261 0 -387.5 64t-126.5 194q0 28 12 57.5t29.5 51.5t36 39 t33 25t18.5 5q62 -43 188.5 -76.5t204.5 -33.5q64 0 87.5 11t23.5 40q0 32 -163 70l-24 6q-48 11 -79 19t-80.5 22t-83.5 29t-75.5 36.5t-69 47.5t-52.5 58t-37 72.5t-12 87.5zM438 477q0 -19 8 -34.5t28 -27.5t37.5 -20.5t54 -17t58.5 -13t69.5 -13.5t70.5 -13 q84 26 84 108q0 21 -8.5 38t-30.5 30.5t-39.5 22.5t-58 19.5t-61 15t-71.5 14.5q-13 3 -20 4q-60 -13 -90.5 -43t-30.5 -70z" />
<glyph unicode="&#xa8;" horiz-adv-x="1024" d="M53 1309q0 97 55.5 152t147.5 55q99 0 156 -54t57 -153q0 -97 -56 -152t-149 -55q-98 0 -154.5 54t-56.5 153zM555 1309q0 97 56 152t149 55q98 0 154.5 -54t56.5 -153q0 -97 -55.5 -152t-147.5 -55q-99 0 -156 54t-57 153z" />
<glyph unicode="&#xa9;" horiz-adv-x="1501" d="M55 664q0 199 87 356.5t246 246.5t364 89q204 0 362.5 -88.5t245 -246t86.5 -357.5t-86 -358t-244.5 -247.5t-363.5 -89.5t-364 88.5t-246 247t-87 359.5zM211 664q0 -240 149 -391.5t392 -151.5q241 0 389.5 152.5t148.5 390.5t-149 389t-389 151q-242 0 -391.5 -151.5 t-149.5 -388.5zM381 662q0 165 109.5 271.5t281.5 106.5q162 0 244 -82q37 -37 35 -92q0 -42 -32 -77.5t-64 -50t-37 -9.5q-34 34 -62 46.5t-70 12.5q-52 0 -86 -35t-34 -91q0 -58 34 -94t86 -36q43 0 70.5 12t61.5 46q5 5 37 -9t64 -49.5t32 -78.5q2 -56 -35 -93 q-81 -81 -244 -81q-173 0 -282 107.5t-109 275.5z" />
<glyph unicode="&#xaa;" horiz-adv-x="952" d="M18 725q0 251 500 254v8q0 36 -30 57t-80 21q-52 0 -103 -22.5t-78 -49.5q-3 -3 -13.5 -3.5t-26 2t-34 8.5t-36 17.5t-32 26.5t-23.5 39t-9 52q0 101 106 161t287 60q242 0 348.5 -98.5t106.5 -319.5v-395q0 -6 -19.5 -16t-55 -18.5t-72.5 -8.5q-145 0 -203 110 q-42 -55 -108 -86.5t-144 -31.5q-134 0 -207.5 61.5t-73.5 171.5zM274 152v34q0 89 42 130.5t130 41.5h52q92 0 134 -41.5t42 -130.5v-34q0 -88 -42.5 -130t-133.5 -42h-52q-172 0 -172 172zM365 762q0 -28 20 -47t51 -19q37 0 59 22t23 64v66q-72 0 -112.5 -23.5 t-40.5 -62.5z" />
<glyph unicode="&#xab;" horiz-adv-x="1157" d="M39 508q0 17 34.5 75.5t85 125t120 118.5t129.5 52h6q76 0 115.5 -42.5t39.5 -113.5v-8q0 -66 -71 -126.5t-133 -80.5q26 -11 57.5 -29.5t66 -45.5t57.5 -62.5t23 -69.5v-8q0 -70 -40 -113t-115 -43h-6q-60 0 -129.5 52t-120 118.5t-85 125t-34.5 75.5zM549 508 q0 15 21.5 60t61 104.5t87 115t106.5 94t113 38.5h6q85 0 129.5 -46.5t44.5 -125.5v-11q0 -32 -17.5 -64.5t-43.5 -58t-58 -48t-60 -37t-50 -21.5q30 -12 65 -32.5t74 -50t64.5 -68.5t25.5 -78v-11q0 -78 -44.5 -125t-129.5 -47h-6q-54 0 -113 38.5t-106.5 94t-87 115 t-61 104.5t-21.5 60z" />
<glyph unicode="&#xad;" horiz-adv-x="1030" d="M51 469v80q0 71 50 124.5t137 53.5h555q88 0 137 -53t49 -125v-80q0 -74 -48.5 -127t-137.5 -53h-555q-88 0 -137.5 53t-49.5 127z" />
<glyph unicode="&#xae;" horiz-adv-x="1501" d="M55 664q0 199 87 356.5t246 246.5t364 89q204 0 362.5 -88.5t245 -246t86.5 -357.5t-86 -358t-244.5 -247.5t-363.5 -89.5t-364 88.5t-246 247t-87 359.5zM211 664q0 -240 149 -391.5t392 -151.5q241 0 389.5 152.5t148.5 390.5t-149 389t-389 151q-242 0 -391.5 -151.5 t-149.5 -388.5zM418 453v426q0 151 141 151h221q166 0 248 -61t82 -187q0 -143 -121 -202l131 -205q6 -9 -16.5 -31t-64.5 -41.5t-81 -19.5q-98 0 -151 104l-72 121h-41v-90q0 -127 -121 -127h-38q-56 0 -86.5 43t-30.5 119zM690 694h68q76 0 76 66q0 65 -80 65h-64v-131z " />
<glyph unicode="&#xaf;" horiz-adv-x="1024" d="M78 1262v18q0 72 50.5 115t135.5 43h496q86 0 136 -43t50 -115v-18q0 -74 -49.5 -117t-136.5 -43h-496q-86 0 -136 43t-50 117z" />
<glyph unicode="&#xb0;" horiz-adv-x="745" d="M20 1006v12q0 154 97 241t258 87q159 0 254.5 -87t95.5 -241v-12q0 -154 -95.5 -241t-254.5 -87q-161 0 -258 87t-97 241zM291 993q0 -104 84 -104q82 0 82 104v37q0 107 -82 107q-41 0 -62.5 -24.5t-21.5 -82.5v-37z" />
<glyph unicode="&#xb1;" horiz-adv-x="1228" d="M57 160v18q0 69 49 113.5t138 44.5h739q90 0 138 -44.5t48 -113.5v-18q0 -72 -47.5 -116t-138.5 -44h-739q-90 0 -138.5 44.5t-48.5 115.5zM78 842v18q0 69 48.5 113.5t137.5 44.5h170v139q0 89 44 137.5t116 48.5h39q69 0 113.5 -48.5t44.5 -137.5v-139h172 q90 0 138 -44.5t48 -113.5v-18q0 -72 -47.5 -116t-138.5 -44h-172v-80q0 -90 -44.5 -138t-113.5 -48h-39q-72 0 -116 47.5t-44 138.5v80h-170q-89 0 -137.5 44t-48.5 116z" />
<glyph unicode="&#xb2;" horiz-adv-x="688" d="M31 725v55q0 28 5.5 51.5t13.5 41.5t25 35t31.5 28.5t42 25.5t48 23.5t57.5 24.5q22 9 47.5 18.5t40.5 14.5t28.5 10.5t19 11.5t5.5 14q0 22 -15.5 36.5t-43.5 14.5q-44 0 -73 -35t-36 -79q0 -1 -10.5 -1.5t-27.5 1t-37.5 5.5t-41 14t-37.5 23.5t-27.5 36.5t-10.5 52 q0 96 82.5 146t234.5 50q147 0 231.5 -67.5t84.5 -183.5q0 -53 -15 -91.5t-45 -63t-59.5 -38t-73.5 -27.5q-27 -10 -92.5 -26.5t-89.5 -30.5h233q74 0 108 -26.5t34 -83.5v-3q0 -61 -34 -88.5t-108 -27.5h-317q-109 0 -143.5 26.5t-34.5 112.5z" />
<glyph unicode="&#xb3;" horiz-adv-x="688" d="M12 743q0 42 18.5 72t44.5 42.5t52.5 18.5t45 5t20.5 -4q19 -95 124 -95q37 0 58.5 13.5t21.5 33.5q0 15 -7 21t-25 6h-5q-71 0 -102 22t-31 72v17q0 96 131 96h21q7 0 12.5 5.5t5.5 14.5q0 18 -23 31.5t-61 13.5q-107 0 -118 -98q0 -4 -17.5 -5.5t-43 4t-51 18t-43 43 t-17.5 73.5q0 86 80.5 133t222.5 47q340 0 340 -213q0 -111 -129 -149q135 -48 135 -180q0 -234 -344 -234q-143 0 -229.5 47t-86.5 129z" />
<glyph unicode="&#xb4;" horiz-adv-x="1024" d="M334 1171q-12 23 12 92t79.5 147.5t119.5 113.5q62 30 114 30q91 0 153 -52.5t62 -129.5q0 -64 -36 -125.5t-95 -93.5q-66 -35 -139 -45t-128 1t-94 28t-48 34z" />
<glyph unicode="&#xb6;" horiz-adv-x="1288" d="M12 940q0 406 486 406h219q147 0 147 -140v-1110q0 -57 -27.5 -86.5t-78.5 -29.5h-35q-109 0 -109 116v449h-114q-236 0 -362 100.5t-126 294.5zM967 96v1135q0 115 104 115h37q109 0 109 -115v-1135q0 -116 -109 -116h-37q-104 0 -104 116z" />
<glyph unicode="&#xb7;" horiz-adv-x="563" d="M57 489v39q0 98 47 144.5t146 46.5h55q102 0 149.5 -46t47.5 -145v-39q0 -97 -48 -143.5t-149 -46.5h-55q-193 0 -193 190z" />
<glyph unicode="&#xb8;" horiz-adv-x="1024" d="M264 -383l53 178q20 68 61.5 95.5t147.5 27.5h54q182 0 182 -123v-12q0 -72 -107 -139l-149 -95q-27 -17 -63.5 -23.5t-70 -1.5t-61 16.5t-41 32t-6.5 44.5z" />
<glyph unicode="&#xb9;" horiz-adv-x="688" d="M33 1137q0 28 7.5 53t19 41t23.5 27.5t21.5 16t12.5 3.5q5 -2 14.5 -6.5t13.5 -6t11 -4t13.5 -3.5t14.5 -1q36 0 64.5 21t40.5 59h90q133 0 133 -139v-369h20q71 0 105.5 -30t34.5 -94v-3q0 -62 -34 -90t-106 -28h-354q-70 0 -104.5 28t-34.5 90v3q0 124 139 124h62v187 q-39 -17 -72 -17q-56 0 -95.5 39.5t-39.5 98.5z" />
<glyph unicode="&#xba;" horiz-adv-x="972" d="M29 924q0 185 128.5 308.5t331.5 123.5q204 0 329.5 -123t125.5 -309q0 -188 -128 -310t-333 -122q-206 0 -330 121.5t-124 310.5zM285 152v34q0 89 42 130.5t130 41.5h51q92 0 134 -41.5t42 -130.5v-34q0 -88 -42.5 -130t-133.5 -42h-51q-172 0 -172 172zM356 924 q0 -57 37 -95t94 -38q54 0 92.5 39t38.5 94q0 58 -37.5 97.5t-93.5 39.5t-93.5 -39.5t-37.5 -97.5z" />
<glyph unicode="&#xbb;" horiz-adv-x="1157" d="M39 268v11q0 39 25.5 78t64.5 68.5t74 50t65 32.5q-22 7 -50 21.5t-60 37t-58 48t-43.5 58t-17.5 64.5v11q0 79 44.5 125.5t129.5 46.5h6q54 0 113 -38.5t106.5 -94t87 -115t61 -104.5t21.5 -60t-21.5 -60t-61 -104.5t-87 -115t-106.5 -94t-113 -38.5h-6q-85 0 -129.5 47 t-44.5 125zM588 293v8q0 45 40.5 91.5t83.5 73t81 42.5q-62 20 -133.5 80.5t-71.5 126.5v8q0 71 39.5 113.5t115.5 42.5h7q48 0 103.5 -34.5t101 -84.5t83 -103.5t59 -94.5t21.5 -54t-21.5 -54t-59 -94.5t-83 -103.5t-101 -84.5t-103.5 -34.5h-7q-75 0 -115 43t-40 113z" />
<glyph unicode="&#xbc;" horiz-adv-x="1622" d="M33 1137q0 28 7.5 53t19 41t23.5 27.5t21.5 16t12.5 3.5q5 -2 14.5 -6.5t13.5 -6t11 -4t13.5 -3.5t14.5 -1q36 0 64.5 21t40.5 59h90q133 0 133 -139v-369h20q71 0 105.5 -30t34.5 -94v-3q0 -62 -34 -90t-106 -28h-354q-70 0 -104.5 28t-34.5 90v3q0 124 139 124h62v187 q-39 -17 -72 -17q-56 0 -95.5 39.5t-39.5 98.5zM260 37q3 42 47 98q238 278 404 483q74 91 211 264.5t238 301.5l100 127q5 6 20 6.5t33.5 -7t36 -20t29 -35.5t10.5 -51q-4 -51 -46 -98q-239 -283 -405 -488q-74 -91 -210.5 -264t-236.5 -300l-100 -128q-6 -4 -21 -5 t-34 7.5t-36.5 21t-29 36t-10.5 51.5zM922 256v35q1 20 7 41t11.5 34.5t22.5 49.5l112 248q28 59 73.5 74.5t166.5 15.5q112 0 158.5 -42t46.5 -153v-211q58 -3 82 -25.5t24 -72.5v-6q0 -54 -24 -78t-82 -27v-12q0 -139 -127 -139h-17q-121 0 -121 139v12h-180 q-71 0 -112 32.5t-41 84.5zM1151 344h123v246z" />
<glyph unicode="&#xbd;" horiz-adv-x="1622" d="M33 1137q0 28 7.5 53t19 41t23.5 27.5t21.5 16t12.5 3.5q5 -2 14.5 -6.5t13.5 -6t11 -4t13.5 -3.5t14.5 -1q36 0 64.5 21t40.5 59h90q133 0 133 -139v-369h20q71 0 105.5 -30t34.5 -94v-3q0 -62 -34 -90t-106 -28h-354q-70 0 -104.5 28t-34.5 90v3q0 124 139 124h62v187 q-39 -17 -72 -17q-56 0 -95.5 39.5t-39.5 98.5zM219 37q3 42 47 98q238 278 404 483q74 91 211 264.5t237 301.5l101 127q5 6 20 6.5t33.5 -7t36 -20t29 -35.5t10.5 -51q-4 -52 -45 -98q-240 -283 -406 -488q-74 -91 -210.5 -264t-236.5 -300l-100 -128q-6 -4 -21 -5 t-34 7.5t-36.5 21t-29 36t-10.5 51.5zM965 141v56q0 33 6 59t21.5 47t30.5 36t45.5 31.5t53.5 27t66 28.5q22 9 48 18.5t40.5 14.5t28 11t19 12t5.5 14q0 22 -15.5 36.5t-43.5 14.5q-44 0 -73 -35.5t-36 -79.5q0 -1 -10.5 -1.5t-27.5 1t-37.5 5.5t-41 14t-37.5 23.5 t-27.5 36.5t-10.5 52q0 96 82.5 146.5t234.5 50.5q147 0 231.5 -68t84.5 -184q0 -53 -15 -91t-45 -62.5t-59 -38t-74 -27.5q-26 -10 -92 -27t-90 -31h233q74 0 108 -26.5t34 -83.5v-2q0 -61 -34 -89t-108 -28h-317q-109 0 -143.5 26.5t-34.5 112.5z" />
<glyph unicode="&#xbe;" horiz-adv-x="1622" d="M12 743q0 42 18.5 72t44.5 42.5t52.5 18.5t45 5t20.5 -4q19 -95 124 -95q37 0 58.5 13.5t21.5 33.5q0 15 -7 21t-25 6h-5q-71 0 -102 22t-31 72v17q0 96 131 96h21q7 0 12.5 5.5t5.5 14.5q0 18 -23 31.5t-61 13.5q-107 0 -118 -98q0 -4 -17.5 -5.5t-43 4t-51 18t-43 43 t-17.5 73.5q0 86 80.5 133t222.5 47q340 0 340 -213q0 -111 -129 -149q135 -48 135 -180q0 -234 -344 -234q-143 0 -229.5 47t-86.5 129zM260 37q3 42 47 98q238 278 404 483q74 91 211 264.5t238 301.5l100 127q5 6 20 6.5t33.5 -7t36 -20t29 -35.5t10.5 -51 q-4 -51 -46 -98q-239 -283 -405 -488q-74 -91 -210.5 -264t-236.5 -300l-100 -128q-6 -4 -21 -5t-34 7.5t-36.5 21t-29 36t-10.5 51.5zM922 256v35q1 20 7 41t11.5 34.5t22.5 49.5l112 248q28 59 73.5 74.5t166.5 15.5q112 0 158.5 -42t46.5 -153v-211q58 -3 82 -25.5 t24 -72.5v-6q0 -54 -24 -78t-82 -27v-12q0 -139 -127 -139h-17q-121 0 -121 139v12h-180q-71 0 -112 32.5t-41 84.5zM1151 344h123v246z" />
<glyph unicode="&#xbf;" horiz-adv-x="1110" d="M23 379q0 80 25 141t63 94t84 59.5t87 41.5t73.5 37.5t41.5 48.5q15 43 61 61.5t130 18.5q92 0 146 -43.5t54 -126.5q0 -52 -17.5 -92.5t-45.5 -64t-62 -41t-67.5 -28.5t-61.5 -21t-45.5 -23t-17.5 -31q0 -28 26.5 -44t73.5 -16q87 0 144 53.5t67 128.5q0 2 32.5 3 t78.5 -7t92 -27.5t78.5 -67.5t32.5 -118q0 -152 -143.5 -247t-387.5 -95q-256 0 -399 107t-143 299zM369 1116v39q0 97 48 144t148 47h56q192 0 192 -191v-39q0 -97 -47 -143.5t-145 -46.5h-56q-101 0 -148.5 46t-47.5 144z" />
<glyph unicode="&#xc0;" horiz-adv-x="1462" d="M4 133l412 1067q19 66 87.5 100.5t225.5 34.5q82 0 138.5 -9.5t89.5 -29t49.5 -42t25.5 -54.5l434 -1061q9 -23 -26 -60.5t-102.5 -68t-137.5 -30.5q-87 0 -161.5 55.5t-123.5 181.5l-2 4h-376l-5 -10q-43 -122 -114.5 -178t-157.5 -56q-63 0 -128 29.5t-100.5 66.5 t-27.5 60zM365 1679q0 77 62 130t153 53q57 0 114 -31q64 -35 119.5 -113.5t79.5 -147t12 -91.5q-9 -17 -48 -34.5t-94 -28.5t-128 -1t-139 45q-59 32 -95 93.5t-36 125.5zM610 573h221l-110 301z" />
<glyph unicode="&#xc1;" horiz-adv-x="1462" d="M4 133l412 1067q19 66 87.5 100.5t225.5 34.5q82 0 138.5 -9.5t89.5 -29t49.5 -42t25.5 -54.5l434 -1061q9 -23 -26 -60.5t-102.5 -68t-137.5 -30.5q-87 0 -161.5 55.5t-123.5 181.5l-2 4h-376l-5 -10q-43 -122 -114.5 -178t-157.5 -56q-63 0 -128 29.5t-100.5 66.5 t-27.5 60zM553 1479q-12 23 12 91.5t79.5 147t119.5 113.5q64 31 115 31q91 0 153 -53t62 -130q0 -64 -36 -125.5t-95 -93.5q-66 -35 -139.5 -45t-128.5 1t-94 28.5t-48 34.5zM610 573h221l-110 301z" />
<glyph unicode="&#xc2;" horiz-adv-x="1462" d="M4 133l412 1067q19 66 87.5 100.5t225.5 34.5q82 0 138.5 -9.5t89.5 -29t49.5 -42t25.5 -54.5l434 -1061q9 -23 -26 -60.5t-102.5 -68t-137.5 -30.5q-87 0 -161.5 55.5t-123.5 181.5l-2 4h-376l-5 -10q-43 -122 -114.5 -178t-157.5 -56q-63 0 -128 29.5t-100.5 66.5 t-27.5 60zM369 1552q0 74 57 142.5t137 113t168 68.5q88 -24 168 -68.5t137.5 -113t57.5 -142.5q0 -62 -43 -102.5t-111 -40.5q-69 0 -126.5 47.5t-82.5 122.5q-25 -75 -83.5 -122.5t-125.5 -47.5q-68 0 -110.5 40.5t-42.5 102.5zM610 573h221l-110 301z" />
<glyph unicode="&#xc3;" horiz-adv-x="1462" d="M4 133l412 1067q19 66 87.5 100.5t225.5 34.5q82 0 138.5 -9.5t89.5 -29t49.5 -42t25.5 -54.5l434 -1061q9 -23 -26 -60.5t-102.5 -68t-137.5 -30.5q-87 0 -161.5 55.5t-123.5 181.5l-2 4h-376l-5 -10q-43 -122 -114.5 -178t-157.5 -56q-63 0 -128 29.5t-100.5 66.5 t-27.5 60zM334 1563q0 113 68.5 177t164.5 64q83 0 145.5 -26.5t118.5 -85.5q41 112 146 112q66 0 108.5 -46t42.5 -109q0 -113 -68.5 -176.5t-164.5 -63.5q-84 0 -146.5 26.5t-117.5 86.5q-42 -113 -146 -113q-66 0 -108.5 45.5t-42.5 108.5zM610 573h221l-110 301z" />
<glyph unicode="&#xc4;" horiz-adv-x="1462" d="M4 133l412 1067q19 66 87.5 100.5t225.5 34.5q82 0 138.5 -9.5t89.5 -29t49.5 -42t25.5 -54.5l434 -1061q9 -23 -26 -60.5t-102.5 -68t-137.5 -30.5q-87 0 -161.5 55.5t-123.5 181.5l-2 4h-376l-5 -10q-43 -122 -114.5 -178t-157.5 -56q-63 0 -128 29.5t-100.5 66.5 t-27.5 60zM272 1616q0 97 55.5 152t147.5 55q99 0 156 -54t57 -153q0 -97 -56 -152t-149 -55q-98 0 -154.5 54t-56.5 153zM610 573h221l-110 301zM774 1616q0 97 56 152t149 55q98 0 154.5 -54t56.5 -153q0 -97 -55.5 -152t-147.5 -55q-99 0 -156 54t-57 153z" />
<glyph unicode="&#xc5;" horiz-adv-x="1462" d="M4 133l412 1067q23 64 116 103q-79 67 -79 184q0 115 79 189.5t201 74.5q121 0 199 -74t78 -190q0 -121 -90 -189q87 -38 112 -98l434 -1061q9 -23 -26 -60.5t-102.5 -68t-137.5 -30.5q-87 0 -161.5 55.5t-123.5 181.5l-2 4h-376l-5 -10q-43 -122 -114.5 -178t-157.5 -56 q-63 0 -128 29.5t-100.5 66.5t-27.5 60zM610 573h221l-110 301zM651 1487q0 -34 23 -58t57 -24q32 0 56 24t24 58q0 35 -23.5 59.5t-56.5 24.5t-56.5 -24.5t-23.5 -59.5z" />
<glyph unicode="&#xc6;" horiz-adv-x="1867" d="M4 133l399 1036q25 80 96 118t230 38h852q120 0 175.5 -46t55.5 -144v-11q0 -101 -54.5 -144.5t-176.5 -43.5h-461l35 -88h250q124 0 177.5 -39.5t53.5 -130.5v-6q0 -97 -54 -140t-177 -43h-100l41 -104h243q122 0 177 -40.5t55 -135.5v-10q0 -103 -56 -151t-176 -48 h-340q-55 0 -93 4.5t-76 17.5t-65.5 37t-53 63t-46.5 95l-2 4h-376l-5 -10q-43 -123 -114 -178.5t-156 -55.5q-67 0 -132.5 30t-99.5 66.5t-26 59.5zM610 573h221l-110 301z" />
<glyph unicode="&#xc7;" horiz-adv-x="1323" d="M45 664q0 149 51.5 277t143.5 219.5t224 143.5t288 52q113 0 205.5 -22.5t151.5 -58t99 -82t57 -92.5t17 -91q0 -42 -15.5 -78.5t-40.5 -61t-55.5 -45.5t-60.5 -31t-56 -18.5t-42 -7.5t-19 2q-61 125 -211 125q-96 0 -159.5 -62.5t-63.5 -168.5t63.5 -170t159.5 -64 q150 0 211 125q3 1 19 2t42 -7.5t56 -18.5t60.5 -31t55.5 -45.5t40.5 -61t15.5 -78.5q0 -45 -17 -91t-57 -92.5t-99 -82t-151.5 -58t-205.5 -22.5q-156 0 -288 52t-224 143t-143.5 220t-51.5 280zM469 -383l53 178q20 68 61.5 95.5t147.5 27.5h53q183 0 183 -123v-12 q0 -72 -107 -139l-149 -95q-27 -17 -63.5 -23.5t-70 -1.5t-61 16.5t-41 32t-6.5 44.5z" />
<glyph unicode="&#xc8;" horiz-adv-x="1288" d="M72 274v773q0 138 64.5 208t189.5 70h675q120 0 176 -46t56 -144v-11q0 -101 -55 -144.5t-177 -43.5h-428v-88h252q124 0 178 -39.5t54 -130.5v-6q0 -97 -54.5 -140t-177.5 -43h-252v-104h437q122 0 176.5 -40.5t54.5 -135.5v-10q0 -103 -55.5 -151t-175.5 -48h-684 q-254 0 -254 274zM344 1679q0 77 62 130t153 53q58 0 115 -31q64 -35 119.5 -113.5t79.5 -147t12 -91.5q-9 -17 -48 -34.5t-94 -28.5t-128.5 -1t-139.5 45q-59 32 -95 93.5t-36 125.5z" />
<glyph unicode="&#xc9;" horiz-adv-x="1288" d="M72 274v773q0 138 64.5 208t189.5 70h675q120 0 176 -46t56 -144v-11q0 -101 -55 -144.5t-177 -43.5h-428v-88h252q124 0 178 -39.5t54 -130.5v-6q0 -97 -54.5 -140t-177.5 -43h-252v-104h437q122 0 176.5 -40.5t54.5 -135.5v-10q0 -103 -55.5 -151t-175.5 -48h-684 q-254 0 -254 274zM451 1479q-12 23 12 91.5t79.5 147t119.5 113.5q64 31 114 31q91 0 153 -53t62 -130q0 -64 -36 -125.5t-95 -93.5q-66 -35 -139 -45t-128 1t-94 28.5t-48 34.5z" />
<glyph unicode="&#xca;" horiz-adv-x="1288" d="M72 274v773q0 138 64.5 208t189.5 70h675q120 0 176 -46t56 -144v-11q0 -101 -55 -144.5t-177 -43.5h-428v-88h252q124 0 178 -39.5t54 -130.5v-6q0 -97 -54.5 -140t-177.5 -43h-252v-104h437q122 0 176.5 -40.5t54.5 -135.5v-10q0 -103 -55.5 -151t-175.5 -48h-684 q-254 0 -254 274zM307 1552q0 74 57.5 142.5t137.5 113t168 68.5q88 -24 168 -68.5t137 -113t57 -142.5q0 -62 -42.5 -102.5t-110.5 -40.5q-69 0 -126.5 47.5t-82.5 122.5q-25 -75 -83.5 -122.5t-125.5 -47.5q-68 0 -111 40.5t-43 102.5z" />
<glyph unicode="&#xcb;" horiz-adv-x="1288" d="M72 274v773q0 138 64.5 208t189.5 70h675q120 0 176 -46t56 -144v-11q0 -101 -55 -144.5t-177 -43.5h-428v-88h252q124 0 178 -39.5t54 -130.5v-6q0 -97 -54.5 -140t-177.5 -43h-252v-104h437q122 0 176.5 -40.5t54.5 -135.5v-10q0 -103 -55.5 -151t-175.5 -48h-684 q-254 0 -254 274zM211 1616q0 97 55.5 152t147.5 55q99 0 156 -54t57 -153q0 -97 -56 -152t-149 -55q-98 0 -154.5 54t-56.5 153zM713 1616q0 97 56 152t149 55q98 0 154 -54t56 -153q0 -97 -55 -152t-147 -55q-99 0 -156 54t-57 153z" />
<glyph unicode="&#xcc;" horiz-adv-x="669" d="M0 1679q0 77 62 130t153 53q58 0 115 -31q64 -35 119.5 -113.5t79.5 -147t12 -91.5q-9 -17 -48 -34.5t-94 -28.5t-128.5 -1t-139.5 45q-59 32 -95 93.5t-36 125.5zM84 221v883q0 231 211 231h72q219 0 219 -231v-883q0 -114 -56 -172.5t-163 -58.5h-72q-103 0 -157 58.5 t-54 172.5z" />
<glyph unicode="&#xcd;" horiz-adv-x="669" d="M84 221v883q0 231 211 231h72q219 0 219 -231v-883q0 -114 -56 -172.5t-163 -58.5h-72q-103 0 -157 58.5t-54 172.5zM106 1479q-12 23 12 91.5t79.5 147t119.5 113.5q64 31 115 31q91 0 153 -53t62 -130q0 -64 -36 -125.5t-95 -93.5q-66 -35 -139.5 -45t-128.5 1 t-94 28.5t-48 34.5z" />
<glyph unicode="&#xce;" horiz-adv-x="669" d="M-37 1552q0 74 57.5 142.5t137.5 113t168 68.5q88 -24 168 -68.5t137 -113t57 -142.5q0 -62 -42.5 -102.5t-110.5 -40.5q-69 0 -126.5 47.5t-82.5 122.5q-25 -75 -83.5 -122.5t-125.5 -47.5q-68 0 -111 40.5t-43 102.5zM84 221v883q0 231 211 231h72q219 0 219 -231v-883 q0 -114 -56 -172.5t-163 -58.5h-72q-103 0 -157 58.5t-54 172.5z" />
<glyph unicode="&#xcf;" horiz-adv-x="669" d="M-133 1616q0 97 55.5 152t147.5 55q99 0 156 -54t57 -153q0 -97 -56 -152t-149 -55q-98 0 -154.5 54t-56.5 153zM84 221v883q0 231 211 231h72q219 0 219 -231v-883q0 -114 -56 -172.5t-163 -58.5h-72q-103 0 -157 58.5t-54 172.5zM369 1616q0 97 55.5 152t148.5 55 q98 0 154.5 -54t56.5 -153q0 -97 -55 -152t-147 -55q-99 0 -156 54t-57 153z" />
<glyph unicode="&#xd0;" horiz-adv-x="1507" d="M-2 647v39q0 58 40.5 100.5t111.5 42.5h4v218q0 134 71 206t187 72h362q322 0 510.5 -177t188.5 -478q0 -305 -192 -487.5t-513 -182.5h-336q-117 0 -197.5 80t-80.5 194v228h-4q-72 0 -112 42t-40 103zM649 424h103q101 0 165 66t64 180q0 111 -60.5 171t-162.5 60h-109 v-72h35q72 0 112 -42t40 -101v-39q0 -61 -39.5 -103t-112.5 -42h-35v-78z" />
<glyph unicode="&#xd1;" horiz-adv-x="1458" d="M72 221v893q0 111 51.5 166t146.5 55h41q80 0 118.5 -20.5t92.5 -81.5l393 -479v350q0 114 56 172.5t164 58.5h41q103 0 156.5 -58.5t53.5 -172.5v-893q0 -111 -51.5 -166t-146.5 -55h-41q-81 0 -121 21t-90 81l-393 469v-340q0 -114 -56 -172.5t-163 -58.5h-41 q-103 0 -157 58.5t-54 172.5zM332 1563q0 113 68.5 177t164.5 64q83 0 145.5 -26.5t118.5 -85.5q41 112 146 112q66 0 108.5 -46t42.5 -109q0 -113 -68.5 -176.5t-164.5 -63.5q-84 0 -146.5 26.5t-117.5 86.5q-42 -113 -146 -113q-66 0 -108.5 45.5t-42.5 108.5z" />
<glyph unicode="&#xd2;" horiz-adv-x="1492" d="M35 664q0 198 91.5 356t254.5 247t367 89t366.5 -89t253 -247t90.5 -356q0 -149 -53 -278t-146.5 -220.5t-225.5 -144t-285 -52.5q-205 0 -368 89t-254 248t-91 358zM383 1679q0 77 62 130t153 53q58 0 115 -31q64 -35 119.5 -113.5t79.5 -147t12 -91.5q-9 -17 -48 -34.5 t-94 -28.5t-128.5 -1t-139.5 45q-59 32 -95 93.5t-36 125.5zM526 664q0 -114 59.5 -180t162.5 -66q101 0 160 66t59 180t-59 180.5t-160 66.5q-105 0 -163.5 -64.5t-58.5 -182.5z" />
<glyph unicode="&#xd3;" horiz-adv-x="1492" d="M35 664q0 198 91.5 356t254.5 247t367 89t366.5 -89t253 -247t90.5 -356q0 -149 -53 -278t-146.5 -220.5t-225.5 -144t-285 -52.5q-205 0 -368 89t-254 248t-91 358zM526 664q0 -114 59.5 -180t162.5 -66q101 0 160 66t59 180t-59 180.5t-160 66.5q-105 0 -163.5 -64.5 t-58.5 -182.5zM530 1479q-12 23 12 91.5t79.5 147t119.5 113.5q64 31 115 31q91 0 153 -53t62 -130q0 -64 -36 -125.5t-95 -93.5q-66 -35 -139.5 -45t-128.5 1t-94 28.5t-48 34.5z" />
<glyph unicode="&#xd4;" horiz-adv-x="1492" d="M35 664q0 198 91.5 356t254.5 247t367 89t366.5 -89t253 -247t90.5 -356q0 -149 -53 -278t-146.5 -220.5t-225.5 -144t-285 -52.5q-205 0 -368 89t-254 248t-91 358zM387 1552q0 74 57.5 142.5t137.5 113t168 68.5q88 -24 168 -68.5t137 -113t57 -142.5q0 -62 -43 -102.5 t-111 -40.5q-69 0 -126 47t-82 123q-25 -75 -83.5 -122.5t-125.5 -47.5q-68 0 -111 40.5t-43 102.5zM526 664q0 -114 59.5 -180t162.5 -66q101 0 160 66t59 180t-59 180.5t-160 66.5q-105 0 -163.5 -64.5t-58.5 -182.5z" />
<glyph unicode="&#xd5;" horiz-adv-x="1492" d="M35 664q0 198 91.5 356t254.5 247t367 89t366.5 -89t253 -247t90.5 -356q0 -149 -53 -278t-146.5 -220.5t-225.5 -144t-285 -52.5q-205 0 -368 89t-254 248t-91 358zM352 1563q0 113 69 177t165 64q83 0 145.5 -26.5t118.5 -85.5q41 112 145 112q66 0 109 -46t43 -109 q0 -112 -69 -176t-165 -64q-84 0 -146.5 26.5t-117.5 86.5q-42 -113 -145 -113q-66 0 -109 45.5t-43 108.5zM526 664q0 -114 59.5 -180t162.5 -66q101 0 160 66t59 180t-59 180.5t-160 66.5q-105 0 -163.5 -64.5t-58.5 -182.5z" />
<glyph unicode="&#xd6;" horiz-adv-x="1492" d="M35 664q0 198 91.5 356t254.5 247t367 89t366.5 -89t253 -247t90.5 -356q0 -149 -53 -278t-146.5 -220.5t-225.5 -144t-285 -52.5q-205 0 -368 89t-254 248t-91 358zM291 1616q0 97 55.5 152t147.5 55q99 0 156 -54t57 -153q0 -97 -56 -152t-149 -55q-98 0 -154.5 54 t-56.5 153zM526 664q0 -114 59.5 -180t162.5 -66q101 0 160 66t59 180t-59 180.5t-160 66.5q-105 0 -163.5 -64.5t-58.5 -182.5zM793 1616q0 97 55.5 152t148.5 55q98 0 154.5 -54t56.5 -153q0 -97 -55 -152t-147 -55q-99 0 -156 54t-57 153z" />
<glyph unicode="&#xd7;" horiz-adv-x="1173" d="M87.5 153.5q-11.5 39.5 4 84t60.5 86.5l194 182l-194 182q-44 41 -59 86.5t-4 84.5t42 73l27 29q32 34 72 45.5t85.5 -5t87.5 -61.5l183 -195l182 195q42 45 87.5 61.5t86 5t72.5 -45.5l26 -29q31 -34 42 -73t-3.5 -84.5t-58.5 -86.5l-195 -182l195 -182q45 -42 60 -86.5 t3.5 -84t-45.5 -73.5l-28 -29q-31 -31 -69.5 -42t-85 4t-87.5 59l-182 194l-183 -194q-41 -44 -87 -59t-84.5 -4t-69.5 42l-29 29q-34 34 -45.5 73.5z" />
<glyph unicode="&#xd8;" horiz-adv-x="1492" d="M39 664q0 198 91 356t254 247t368 89q206 0 368 -92l129 143q9 10 54.5 -2t89 -48t43.5 -83q0 -45 -45 -96l-72 -80q143 -186 143 -434q0 -149 -53 -278t-146 -221t-225 -144t-286 -52q-209 0 -371 90l-135 -151q-9 -10 -55 2.5t-90 48.5t-44 82q0 43 47 96l80 88 q-145 184 -145 439zM469 664q0 -61 14 -107l355 393q-59 13 -86 13q-132 0 -207.5 -80.5t-75.5 -218.5zM668 377q34 -10 84 -10q126 0 204 82t78 215q0 44 -14 102z" />
<glyph unicode="&#xd9;" horiz-adv-x="1417" d="M72 600v504q0 115 58 173t163 58h61q219 0 219 -231v-508q0 -184 138 -184q69 0 101 44t32 140v508q0 115 58 173t163 58h61q220 0 220 -231v-504q0 -620 -637 -620t-637 620zM342 1679q0 77 62 130t153 53q58 0 115 -31q64 -35 119.5 -113.5t79.5 -147t12 -91.5 q-9 -17 -48 -34.5t-94 -28.5t-128.5 -1t-139.5 45q-59 32 -95 93.5t-36 125.5z" />
<glyph unicode="&#xda;" horiz-adv-x="1417" d="M72 600v504q0 115 58 173t163 58h61q219 0 219 -231v-508q0 -184 138 -184q69 0 101 44t32 140v508q0 115 58 173t163 58h61q220 0 220 -231v-504q0 -620 -637 -620t-637 620zM530 1479q-12 23 12 91.5t79.5 147t119.5 113.5q64 31 115 31q91 0 153 -53t62 -130 q0 -64 -36 -125.5t-95 -93.5q-66 -35 -139.5 -45t-128.5 1t-94 28.5t-48 34.5z" />
<glyph unicode="&#xdb;" horiz-adv-x="1417" d="M72 600v504q0 115 58 173t163 58h61q219 0 219 -231v-508q0 -184 138 -184q69 0 101 44t32 140v508q0 115 58 173t163 58h61q220 0 220 -231v-504q0 -620 -637 -620t-637 620zM346 1552q0 74 57.5 142.5t137.5 113t168 68.5q88 -24 168 -68.5t137 -113t57 -142.5 q0 -62 -42.5 -102.5t-110.5 -40.5q-69 0 -126.5 47.5t-82.5 122.5q-25 -75 -83.5 -122.5t-125.5 -47.5q-68 0 -111 40.5t-43 102.5z" />
<glyph unicode="&#xdc;" horiz-adv-x="1417" d="M72 600v504q0 115 58 173t163 58h61q219 0 219 -231v-508q0 -184 138 -184q69 0 101 44t32 140v508q0 115 58 173t163 58h61q220 0 220 -231v-504q0 -620 -637 -620t-637 620zM250 1616q0 97 55.5 152t147.5 55q99 0 156 -54t57 -153q0 -97 -56 -152t-149 -55 q-98 0 -154.5 54t-56.5 153zM752 1616q0 97 55.5 152t148.5 55q98 0 154.5 -54t56.5 -153q0 -97 -55 -152t-147 -55q-99 0 -156 54t-57 153z" />
<glyph unicode="&#xdd;" horiz-adv-x="1370" d="M-16 1145q-5 8 3 28.5t32.5 47.5t60.5 51.5t97 41.5t134 17q139 0 234 -174l143 -260l154 260q101 176 235 176q65 0 122 -17.5t92.5 -43t60 -52.5t33.5 -47.5t4 -27.5l-449 -635v-289q0 -114 -56 -172.5t-163 -58.5h-72q-103 0 -157 58.5t-54 172.5v289zM506 1479 q-12 23 12 91.5t79.5 147t119.5 113.5q64 31 114 31q91 0 153.5 -53t62.5 -130q0 -64 -36.5 -125.5t-95.5 -93.5q-66 -35 -139 -45t-128 1t-94 28.5t-48 34.5z" />
<glyph unicode="&#xde;" horiz-adv-x="1320" d="M72 221v883q0 231 211 231h71q196 0 217 -188h97q618 0 618 -488q0 -473 -596 -473h-119q-7 -96 -62.5 -146t-154.5 -50h-71q-103 0 -157 58.5t-54 172.5zM573 545h101q139 0 139 114q0 63 -32.5 90t-106.5 27h-101v-231z" />
<glyph unicode="&#xdf;" horiz-adv-x="1347" d="M74 211v690q0 302 142 431.5t472 129.5q268 0 415.5 -100t147.5 -272q0 -107 -44 -171.5t-136 -93.5q125 -60 196.5 -168t71.5 -241q0 -203 -113 -325t-300 -122q-161 0 -243.5 57t-82.5 167q0 41 22 84.5t44 67t26 20.5q46 -33 105 -33q39 0 66.5 22.5t27.5 57.5 q0 25 -8 43.5t-29.5 33.5t-39.5 23.5t-56 24.5q-32 14 -52 26t-44 34.5t-36 58.5t-12 85q0 46 18.5 88.5t35.5 62t20 19.5q51 0 80 28t29 77q0 48 -32 76t-83 28q-129 0 -129 -168v-741q0 -110 -56.5 -170.5t-158.5 -60.5h-49q-98 0 -156.5 63t-58.5 168z" />
<glyph unicode="&#xe0;" horiz-adv-x="1222" d="M33 274q0 161 157.5 246.5t444.5 85.5h49q-1 60 -31 86.5t-90 26.5q-137 0 -170 -98q-1 -3 -34 -7.5t-80 -1.5t-94 16t-80 51t-33 97q0 143 123.5 208t394.5 65q297 0 432 -113t135 -348v-555q0 -20 -59 -38t-129 -18q-97 0 -163 45.5t-97 131.5q-46 -83 -135 -128.5 t-203 -45.5q-153 0 -245.5 80.5t-92.5 213.5zM268 1372q0 77 62 129.5t153 52.5q59 0 115 -30q64 -35 119.5 -113.5t79.5 -147.5t12 -92q-9 -17 -48 -34t-94 -28t-128.5 -1t-139.5 45q-59 32 -95 93.5t-36 125.5zM465 330q0 -36 24.5 -57t63.5 -21q57 0 92 28.5t39 79.5v62 h-55q-164 0 -164 -92z" />
<glyph unicode="&#xe1;" horiz-adv-x="1222" d="M33 274q0 161 157.5 246.5t444.5 85.5h49q-1 60 -31 86.5t-90 26.5q-137 0 -170 -98q-1 -3 -34 -7.5t-80 -1.5t-94 16t-80 51t-33 97q0 143 123.5 208t394.5 65q297 0 432 -113t135 -348v-555q0 -20 -59 -38t-129 -18q-97 0 -163 45.5t-97 131.5q-46 -83 -135 -128.5 t-203 -45.5q-153 0 -245.5 80.5t-92.5 213.5zM416 1171q-12 23 12 92t79.5 147.5t119.5 113.5q62 30 114 30q91 0 153 -52.5t62 -129.5q0 -64 -36 -125.5t-95 -93.5q-66 -35 -139 -45t-128 1t-94 28t-48 34zM465 330q0 -36 24.5 -57t63.5 -21q57 0 92 28.5t39 79.5v62h-55 q-164 0 -164 -92z" />
<glyph unicode="&#xe2;" horiz-adv-x="1222" d="M33 274q0 161 157.5 246.5t444.5 85.5h49q-1 60 -31 86.5t-90 26.5q-137 0 -170 -98q-1 -3 -34 -7.5t-80 -1.5t-94 16t-80 51t-33 97q0 143 123.5 208t394.5 65q297 0 432 -113t135 -348v-555q0 -20 -59 -38t-129 -18q-97 0 -163 45.5t-97 131.5q-46 -83 -135 -128.5 t-203 -45.5q-153 0 -245.5 80.5t-92.5 213.5zM252 1245q0 74 57 142.5t137 113t168 68.5q88 -24 168 -68.5t137.5 -113t57.5 -142.5q0 -62 -43 -102.5t-111 -40.5q-69 0 -126.5 47.5t-82.5 122.5q-25 -75 -83 -122.5t-125 -47.5q-68 0 -111 40.5t-43 102.5zM465 330 q0 -36 24.5 -57t63.5 -21q57 0 92 28.5t39 79.5v62h-55q-164 0 -164 -92z" />
<glyph unicode="&#xe3;" horiz-adv-x="1222" d="M33 274q0 161 157.5 246.5t444.5 85.5h49q-1 60 -31 86.5t-90 26.5q-137 0 -170 -98q-1 -3 -34 -7.5t-80 -1.5t-94 16t-80 51t-33 97q0 143 123.5 208t394.5 65q297 0 432 -113t135 -348v-555q0 -20 -59 -38t-129 -18q-97 0 -163 45.5t-97 131.5q-46 -83 -135 -128.5 t-203 -45.5q-153 0 -245.5 80.5t-92.5 213.5zM197 1255q0 113 69 177.5t164 64.5q83 0 145.5 -27t118.5 -86q42 113 146 113q66 0 108.5 -46.5t42.5 -109.5q0 -112 -68.5 -175.5t-164.5 -63.5q-84 0 -146.5 26t-117.5 86q-41 -112 -146 -112q-66 0 -108.5 45t-42.5 108z M465 330q0 -36 24.5 -57t63.5 -21q57 0 92 28.5t39 79.5v62h-55q-164 0 -164 -92z" />
<glyph unicode="&#xe4;" horiz-adv-x="1222" d="M33 274q0 161 157.5 246.5t444.5 85.5h49q-1 60 -31 86.5t-90 26.5q-137 0 -170 -98q-1 -3 -34 -7.5t-80 -1.5t-94 16t-80 51t-33 97q0 143 123.5 208t394.5 65q297 0 432 -113t135 -348v-555q0 -20 -59 -38t-129 -18q-97 0 -163 45.5t-97 131.5q-46 -83 -135 -128.5 t-203 -45.5q-153 0 -245.5 80.5t-92.5 213.5zM135 1309q0 97 55.5 152t147.5 55q99 0 156 -54t57 -153q0 -97 -56 -152t-149 -55q-98 0 -154.5 54t-56.5 153zM465 330q0 -36 24.5 -57t63.5 -21q57 0 92 28.5t39 79.5v62h-55q-164 0 -164 -92zM637 1309q0 97 56 152t149 55 q98 0 154.5 -54t56.5 -153q0 -97 -55.5 -152t-147.5 -55q-99 0 -156 54t-57 153z" />
<glyph unicode="&#xe5;" horiz-adv-x="1222" d="M33 274q0 161 157.5 246.5t444.5 85.5h49q-1 60 -31 86.5t-90 26.5q-137 0 -170 -98q-1 -3 -34 -7.5t-80 -1.5t-94 16t-80 51t-33 97q0 143 123.5 208t394.5 65q297 0 432 -113t135 -348v-555q0 -20 -59 -38t-129 -18q-97 0 -163 45.5t-97 131.5q-46 -83 -135 -128.5 t-203 -45.5q-153 0 -245.5 80.5t-92.5 213.5zM315 1366q0 114 78 189t203 75q124 0 200 -75t76 -189q0 -115 -77 -189.5t-203 -74.5t-201.5 74t-75.5 190zM465 330q0 -36 24.5 -57t63.5 -21q57 0 92 28.5t39 79.5v62h-55q-164 0 -164 -92zM514 1366q0 -35 23 -58.5t57 -23.5 t57 24t23 58q0 35 -23 59.5t-57 24.5t-57 -24.5t-23 -59.5z" />
<glyph unicode="&#xe6;" horiz-adv-x="1789" d="M33 274q0 161 157.5 246.5t444.5 85.5h49q-1 60 -31 86.5t-90 26.5q-137 0 -170 -98q-1 -3 -34 -7.5t-80 -1.5t-94 16t-80 51t-33 97q0 142 113.5 207.5t355.5 65.5q235 0 356 -95q128 95 311 95q240 0 395.5 -145.5t155.5 -364.5v-21q-2 -54 -20.5 -82t-65.5 -28h-622 q34 -123 200 -123q78 0 137.5 28t84.5 76q0 1 22.5 0t54.5 -9.5t64.5 -25.5t55 -54t22.5 -87q0 -117 -118 -180.5t-337 -63.5q-328 0 -453 199q-54 -85 -160.5 -136.5t-242.5 -51.5q-154 0 -251 81t-97 213zM465 330q0 -36 24.5 -57t63.5 -21q60 0 95.5 33t35.5 88v51h-55 q-164 0 -164 -94zM1059 610h280q-3 69 -38.5 106.5t-98.5 37.5q-60 0 -100 -41t-43 -103z" />
<glyph unicode="&#xe7;" horiz-adv-x="1044" d="M37 510q0 236 154 386.5t399 150.5q96 0 173 -18.5t125 -47.5t80 -66.5t45 -72.5t13 -68q0 -38 -13.5 -70.5t-34.5 -53.5t-47.5 -39t-52.5 -25.5t-49 -13.5t-37 -4.5t-16 3.5q-41 107 -158 107q-70 0 -113.5 -47.5t-43.5 -120.5q0 -76 43.5 -124t113.5 -48q57 0 98 28 t60 78q1 4 15.5 4.5t36.5 -3.5t48.5 -12t53 -24.5t48 -38.5t35 -56.5t13.5 -75.5q0 -42 -24.5 -86.5t-73.5 -86.5t-137 -69t-201 -27q-251 0 -402 148.5t-151 392.5zM315 -383l54 178q20 68 61.5 95.5t147.5 27.5h53q182 0 182 -123v-12q0 -73 -106 -139l-150 -95 q-27 -17 -63.5 -23.5t-70 -1.5t-61 16.5t-41 32t-6.5 44.5z" />
<glyph unicode="&#xe8;" horiz-adv-x="1175" d="M37 500q0 237 157 393t400 156q240 0 395.5 -145.5t155.5 -364.5v-21q-2 -54 -20.5 -82t-65.5 -28h-621q37 -123 203 -123q75 0 133.5 28.5t83.5 75.5q0 1 22.5 0t55 -9.5t64.5 -25.5t54.5 -54t22.5 -87q0 -117 -117.5 -180.5t-336.5 -63.5q-275 0 -430.5 140t-155.5 391 zM225 1372q0 77 62 129.5t153 52.5q60 0 115 -30q64 -35 119.5 -113.5t79.5 -147.5t12 -92q-9 -17 -48 -34t-94 -28t-128.5 -1t-139.5 45q-59 32 -95 93.5t-36 125.5zM444 610h281q-3 69 -38.5 106.5t-98.5 37.5q-60 0 -100.5 -41t-43.5 -103z" />
<glyph unicode="&#xe9;" horiz-adv-x="1175" d="M37 500q0 237 157 393t400 156q240 0 395.5 -145.5t155.5 -364.5v-21q-2 -54 -20.5 -82t-65.5 -28h-621q37 -123 203 -123q75 0 133.5 28.5t83.5 75.5q0 1 22.5 0t55 -9.5t64.5 -25.5t54.5 -54t22.5 -87q0 -117 -117.5 -180.5t-336.5 -63.5q-275 0 -430.5 140t-155.5 391 zM393 1171q-12 23 12 92t79.5 147.5t119.5 113.5q62 30 115 30q91 0 153 -52.5t62 -129.5q0 -64 -36 -125.5t-95 -93.5q-66 -35 -139.5 -45t-128.5 1t-94 28t-48 34zM444 610h281q-3 69 -38.5 106.5t-98.5 37.5q-60 0 -100.5 -41t-43.5 -103z" />
<glyph unicode="&#xea;" horiz-adv-x="1175" d="M37 500q0 237 157 393t400 156q240 0 395.5 -145.5t155.5 -364.5v-21q-2 -54 -20.5 -82t-65.5 -28h-621q37 -123 203 -123q75 0 133.5 28.5t83.5 75.5q0 1 22.5 0t55 -9.5t64.5 -25.5t54.5 -54t22.5 -87q0 -117 -117.5 -180.5t-336.5 -63.5q-275 0 -430.5 140t-155.5 391 zM229 1245q0 74 57.5 142.5t137.5 113t168 68.5q88 -24 168 -68.5t137 -113t57 -142.5q0 -62 -42.5 -102.5t-110.5 -40.5q-69 0 -126.5 47.5t-82.5 122.5q-25 -75 -83.5 -122.5t-125.5 -47.5q-68 0 -111 40.5t-43 102.5zM444 610h281q-3 69 -38.5 106.5t-98.5 37.5 q-60 0 -100.5 -41t-43.5 -103z" />
<glyph unicode="&#xeb;" horiz-adv-x="1175" d="M37 500q0 237 157 393t400 156q240 0 395.5 -145.5t155.5 -364.5v-21q-2 -54 -20.5 -82t-65.5 -28h-621q37 -123 203 -123q75 0 133.5 28.5t83.5 75.5q0 1 22.5 0t55 -9.5t64.5 -25.5t54.5 -54t22.5 -87q0 -117 -117.5 -180.5t-336.5 -63.5q-275 0 -430.5 140t-155.5 391 zM133 1309q0 97 55.5 152t147.5 55q99 0 156 -54t57 -153q0 -97 -56 -152t-149 -55q-98 0 -154.5 54t-56.5 153zM444 610h281q-3 69 -38.5 106.5t-98.5 37.5q-60 0 -100.5 -41t-43.5 -103zM635 1309q0 97 56 152t149 55q98 0 154.5 -54t56.5 -153q0 -97 -55.5 -152 t-147.5 -55q-99 0 -156 54t-57 153z" />
<glyph unicode="&#xec;" horiz-adv-x="638" d="M-12 1372q0 77 62 129.5t153 52.5q59 0 114 -30q64 -35 119.5 -113.5t79.5 -147.5t12 -92q-9 -17 -48 -34t-94 -28t-128 -1t-139 45q-59 32 -95 93.5t-36 125.5zM80 221v588q0 231 215 231h49q104 0 159.5 -52.5t55.5 -178.5v-588q0 -231 -211 -231h-49q-105 0 -162 52.5 t-57 178.5z" />
<glyph unicode="&#xed;" horiz-adv-x="638" d="M80 221v588q0 231 215 231h49q104 0 159.5 -52.5t55.5 -178.5v-588q0 -231 -211 -231h-49q-105 0 -162 52.5t-57 178.5zM94 1171q-12 23 12 92t79.5 147.5t119.5 113.5q62 30 115 30q91 0 153 -52.5t62 -129.5q0 -64 -36 -125.5t-95 -93.5q-66 -35 -139.5 -45t-128.5 1 t-94 28t-48 34z" />
<glyph unicode="&#xee;" horiz-adv-x="638" d="M-49 1245q0 74 57 142.5t137 113t168 68.5q88 -24 168 -68.5t137.5 -113t57.5 -142.5q0 -62 -43 -102.5t-111 -40.5q-69 0 -126.5 47.5t-82.5 122.5q-25 -75 -83.5 -122.5t-125.5 -47.5q-68 0 -110.5 40.5t-42.5 102.5zM80 221v588q0 231 215 231h49q104 0 159.5 -52.5 t55.5 -178.5v-588q0 -231 -211 -231h-49q-105 0 -162 52.5t-57 178.5z" />
<glyph unicode="&#xef;" horiz-adv-x="638" d="M-145 1309q0 97 55 152t147 55q99 0 156 -54t57 -153q0 -97 -55.5 -152t-148.5 -55q-98 0 -154.5 54t-56.5 153zM80 221v588q0 231 215 231h49q104 0 159.5 -52.5t55.5 -178.5v-588q0 -231 -211 -231h-49q-105 0 -162 52.5t-57 178.5zM356 1309q0 97 56 152t149 55 q98 0 154.5 -54t56.5 -153q0 -97 -55.5 -152t-147.5 -55q-99 0 -156 54t-57 153z" />
<glyph unicode="&#xf0;" horiz-adv-x="1312" d="M35 494q0 218 131.5 358.5t341.5 140.5q179 0 274 -131q-54 145 -180 248l-139 -66q-73 -35 -132 -18t-81 80l-4 12q-33 104 35 164q-64 22 -91 29q-2 4 -2 26.5t27 57t62.5 67t105.5 55.5t156 23q95 0 196 -33l203 97q35 17 66 19t56.5 -10.5t44.5 -29t40 -41.5l10 -12 q38 -46 10.5 -105t-102.5 -96l-37 -16q120 -130 187 -307t67 -353q0 -309 -178.5 -496.5t-468.5 -187.5q-273 0 -435.5 138.5t-162.5 386.5zM485 504q0 -69 44 -120.5t110 -51.5q68 0 110 36.5t42 100.5v125q-22 39 -61.5 62.5t-84.5 23.5q-68 0 -114 -52.5t-46 -123.5z" />
<glyph unicode="&#xf1;" d="M74 221v764q0 8 25 21t70.5 23.5t90.5 10.5q88 0 161 -44t107 -144q41 61 83 101.5t108 68t147 27.5q77 0 138.5 -22.5t101 -59.5t65.5 -88t37 -106t11 -116v-436q0 -231 -211 -231h-50q-105 0 -162 52.5t-57 178.5v348q0 43 -23.5 69t-64.5 26q-59 0 -98 -39v-404 q0 -231 -211 -231h-49q-105 0 -162 52.5t-57 178.5zM264 1255q0 113 69 177.5t165 64.5q83 0 145.5 -27t118.5 -86q42 113 145 113q66 0 109 -46.5t43 -109.5q0 -112 -69 -175.5t-165 -63.5q-84 0 -146.5 26t-117.5 86q-41 -112 -145 -112q-66 0 -109 45t-43 108z" />
<glyph unicode="&#xf2;" horiz-adv-x="1216" d="M37 510q0 245 157 392t418 147q259 0 413.5 -146.5t154.5 -392.5q0 -249 -156 -395t-420 -146q-263 0 -415 145.5t-152 395.5zM242 1372q0 77 62 129.5t153 52.5q59 0 114 -30q64 -35 119.5 -113.5t79.5 -147.5t12 -92q-9 -17 -48 -34t-94 -28t-128 -1t-139 45 q-59 32 -95 93.5t-36 125.5zM436 510q0 -80 47 -129t125 -49q75 0 123.5 50.5t48.5 127.5q0 80 -48 130t-124 50t-124 -50t-48 -130z" />
<glyph unicode="&#xf3;" horiz-adv-x="1216" d="M37 510q0 245 157 392t418 147q259 0 413.5 -146.5t154.5 -392.5q0 -249 -156 -395t-420 -146q-263 0 -415 145.5t-152 395.5zM430 1171q-12 23 12 92t79.5 147.5t119.5 113.5q62 30 115 30q91 0 153 -52.5t62 -129.5q0 -64 -36 -125.5t-95 -93.5q-66 -35 -139.5 -45 t-128.5 1t-94 28t-48 34zM436 510q0 -80 47 -129t125 -49q75 0 123.5 50.5t48.5 127.5q0 80 -48 130t-124 50t-124 -50t-48 -130z" />
<glyph unicode="&#xf4;" horiz-adv-x="1216" d="M37 510q0 245 157 392t418 147q259 0 413.5 -146.5t154.5 -392.5q0 -249 -156 -395t-420 -146q-263 0 -415 145.5t-152 395.5zM246 1245q0 74 57 142.5t137 113t168 68.5q88 -24 168 -68.5t137.5 -113t57.5 -142.5q0 -62 -43 -102.5t-111 -40.5q-69 0 -126.5 47.5 t-82.5 122.5q-25 -75 -83.5 -122.5t-125.5 -47.5q-68 0 -110.5 40.5t-42.5 102.5zM436 510q0 -80 47 -129t125 -49q75 0 123.5 50.5t48.5 127.5q0 80 -48 130t-124 50t-124 -50t-48 -130z" />
<glyph unicode="&#xf5;" horiz-adv-x="1216" d="M37 510q0 245 157 392t418 147q259 0 413.5 -146.5t154.5 -392.5q0 -249 -156 -395t-420 -146q-263 0 -415 145.5t-152 395.5zM211 1255q0 113 69 177.5t164 64.5q158 0 265 -113q42 113 145 113q66 0 109 -46.5t43 -109.5q0 -112 -69 -175.5t-165 -63.5q-84 0 -146.5 26 t-117.5 86q-41 -112 -146 -112q-66 0 -108.5 45t-42.5 108zM436 510q0 -80 47 -129t125 -49q75 0 123.5 50.5t48.5 127.5q0 80 -48 130t-124 50t-124 -50t-48 -130z" />
<glyph unicode="&#xf6;" horiz-adv-x="1216" d="M37 510q0 245 157 392t418 147q259 0 413.5 -146.5t154.5 -392.5q0 -249 -156 -395t-420 -146q-263 0 -415 145.5t-152 395.5zM150 1309q0 97 55 152t147 55q99 0 156 -54t57 -153q0 -97 -56 -152t-149 -55q-98 0 -154 54t-56 153zM436 510q0 -80 47 -129t125 -49 q75 0 123.5 50.5t48.5 127.5q0 80 -48 130t-124 50t-124 -50t-48 -130zM651 1309q0 97 56 152t149 55q98 0 154.5 -54t56.5 -153q0 -97 -55.5 -152t-147.5 -55q-99 0 -156 54t-57 153z" />
<glyph unicode="&#xf7;" horiz-adv-x="1228" d="M57 500v18q0 75 48.5 119.5t138.5 44.5h739q91 0 138.5 -44t47.5 -120v-18q0 -78 -47 -122t-139 -44h-739q-91 0 -139 44t-48 122zM434 66v30q0 156 154 156h47q83 0 120.5 -38t37.5 -118v-30q0 -79 -38.5 -117.5t-119.5 -38.5h-47q-154 0 -154 156zM434 926v30 q0 156 154 156h47q82 0 120 -38.5t38 -117.5v-30q0 -80 -38.5 -118t-119.5 -38h-47q-154 0 -154 156z" />
<glyph unicode="&#xf8;" horiz-adv-x="1216" d="M-14 -39q0 44 47 94l110 121q-106 139 -106 334q0 113 42 212.5t116 171.5t182 113.5t235 41.5q142 0 267 -56l188 209q9 10 54 -2t88.5 -47.5t43.5 -81.5q0 -48 -45 -98l-129 -144q101 -135 101 -319q0 -115 -41.5 -215t-116 -172t-183 -113t-235.5 -41q-146 0 -256 49 l-174 -192q-9 -10 -54.5 2.5t-89.5 49t-44 83.5zM391 510q0 -31 17 -88l270 303q-38 10 -70 10q-91 0 -154 -65t-63 -160zM549 297q24 -8 59 -8q89 0 153 65t64 156q0 36 -14 80z" />
<glyph unicode="&#xf9;" d="M63 362v447q0 231 211 231h50q105 0 162 -52.5t57 -178.5v-358q0 -43 23.5 -69t64.5 -26q59 0 98 39v414q0 231 211 231h49q105 0 162 -52.5t57 -178.5v-764q0 -8 -25 -21t-70.5 -23.5t-90.5 -10.5q-56 0 -104 14.5t-94 57t-70 110.5q-62 -97 -140.5 -149t-197.5 -52 q-77 0 -138.5 22t-101 59t-65.5 88.5t-37 106t-11 115.5zM274 1372q0 77 62 129.5t153 52.5q59 0 115 -30q64 -35 119.5 -113.5t79.5 -147.5t12 -92q-9 -17 -48 -34t-94 -28t-128 -1t-139 45q-59 32 -95.5 93.5t-36.5 125.5z" />
<glyph unicode="&#xfa;" d="M63 362v447q0 231 211 231h50q105 0 162 -52.5t57 -178.5v-358q0 -43 23.5 -69t64.5 -26q59 0 98 39v414q0 231 211 231h49q105 0 162 -52.5t57 -178.5v-764q0 -8 -25 -21t-70.5 -23.5t-90.5 -10.5q-56 0 -104 14.5t-94 57t-70 110.5q-62 -97 -140.5 -149t-197.5 -52 q-77 0 -138.5 22t-101 59t-65.5 88.5t-37 106t-11 115.5zM463 1171q-12 23 12 92t79.5 147.5t119.5 113.5q62 30 114 30q91 0 153.5 -53t62.5 -129q0 -64 -36.5 -125.5t-95.5 -93.5q-66 -35 -139 -45t-128 1t-94 28t-48 34z" />
<glyph unicode="&#xfb;" d="M63 362v447q0 231 211 231h50q105 0 162 -52.5t57 -178.5v-358q0 -43 23.5 -69t64.5 -26q59 0 98 39v414q0 231 211 231h49q105 0 162 -52.5t57 -178.5v-764q0 -8 -25 -21t-70.5 -23.5t-90.5 -10.5q-56 0 -104 14.5t-94 57t-70 110.5q-62 -97 -140.5 -149t-197.5 -52 q-77 0 -138.5 22t-101 59t-65.5 88.5t-37 106t-11 115.5zM279 1245q0 74 57 142.5t137 113t168 68.5q88 -24 168 -68.5t137.5 -113t57.5 -142.5q0 -62 -43 -102.5t-111 -40.5q-69 0 -126.5 47.5t-82.5 122.5q-25 -75 -83.5 -122.5t-125.5 -47.5q-68 0 -110.5 40.5 t-42.5 102.5z" />
<glyph unicode="&#xfc;" d="M63 362v447q0 231 211 231h50q105 0 162 -52.5t57 -178.5v-358q0 -43 23.5 -69t64.5 -26q59 0 98 39v414q0 231 211 231h49q105 0 162 -52.5t57 -178.5v-764q0 -8 -25 -21t-70.5 -23.5t-90.5 -10.5q-56 0 -104 14.5t-94 57t-70 110.5q-62 -97 -140.5 -149t-197.5 -52 q-77 0 -138.5 22t-101 59t-65.5 88.5t-37 106t-11 115.5zM182 1309q0 97 55.5 152t147.5 55q99 0 156 -54t57 -153q0 -97 -56 -152t-149 -55q-98 0 -154.5 54t-56.5 153zM684 1309q0 97 56 152t149 55q98 0 154.5 -54t56.5 -153q0 -97 -55.5 -152t-147.5 -55q-99 0 -156 54 t-57 153z" />
<glyph unicode="&#xfd;" horiz-adv-x="1234" d="M10 905q-5 13 33.5 46t107 62.5t132.5 30.5q50 0 92.5 -17t83 -65t61.5 -124l103 -338l102 338q33 111 96 158.5t140 47.5q63 0 129.5 -29.5t102.5 -62.5t30 -47l-437 -1081q-81 -203 -247 -203q-65 0 -130 28.5t-99.5 59.5t-28.5 45l168 328q-86 26 -107 80zM446 1171 q-12 23 12 92t79.5 147.5t119.5 113.5q62 30 115 30q91 0 153 -52.5t62 -129.5q0 -64 -36 -125.5t-95 -93.5q-66 -35 -139.5 -45t-128.5 1t-94 28t-48 34z" />
<glyph unicode="&#xfe;" horiz-adv-x="1329" d="M74 -162v1565q0 8 25 21t70.5 23.5t90.5 10.5q55 0 103.5 -16.5t93 -54t70.5 -110.5t26 -175v-191q118 138 276 138q213 0 338 -147t125 -396t-124 -393t-339 -144q-79 0 -152.5 32.5t-123.5 88.5v-252q0 -231 -211 -231h-49q-105 0 -162 52.5t-57 178.5zM553 467 q0 -63 35.5 -96t99.5 -33q69 0 111.5 47t42.5 123q0 83 -40.5 127.5t-113.5 44.5q-91 0 -135 -76v-137z" />
<glyph unicode="&#xff;" horiz-adv-x="1234" d="M10 905q-5 13 33.5 46t107 62.5t132.5 30.5q50 0 92.5 -17t83 -65t61.5 -124l103 -338l102 338q33 111 96 158.5t140 47.5q63 0 129.5 -29.5t102.5 -62.5t30 -47l-437 -1081q-81 -203 -247 -203q-65 0 -130 28.5t-99.5 59.5t-28.5 45l168 328q-86 26 -107 80zM166 1309 q0 97 55.5 152t147.5 55q99 0 156 -54t57 -153q0 -97 -56 -152t-149 -55q-98 0 -154.5 54t-56.5 153zM668 1309q0 97 55.5 152t148.5 55q98 0 154.5 -54t56.5 -153q0 -97 -55 -152t-147 -55q-99 0 -156 54t-57 153z" />
<glyph unicode="&#x152;" horiz-adv-x="2107" d="M35 664q0 198 92 356t256 247t369 89q116 0 221 -31h848q120 0 175.5 -46t55.5 -144v-11q0 -101 -54.5 -144.5t-176.5 -43.5h-441q18 -53 25 -88h240q124 0 177.5 -39.5t53.5 -130.5v-6q0 -97 -54 -140t-177 -43h-236q-10 -46 -31 -104h451q122 0 176.5 -40.5 t54.5 -135.5v-10q0 -103 -55.5 -151t-175.5 -48h-856q-105 -31 -221 -31q-206 0 -369.5 88.5t-255.5 247.5t-92 359zM526 664q0 -113 60.5 -179.5t165.5 -66.5q104 0 163.5 66.5t59.5 179.5q0 114 -60 180.5t-163 66.5q-107 0 -166.5 -65t-59.5 -182z" />
<glyph unicode="&#x153;" horiz-adv-x="1921" d="M37 510q0 245 157 392t418 147q217 0 357 -134q140 134 370 134q240 0 395.5 -145.5t155.5 -364.5v-21q-2 -54 -20.5 -82t-65.5 -28h-620q37 -123 202 -123q75 0 134 28.5t84 75.5q0 1 22.5 0t55 -9.5t64.5 -25.5t54.5 -54t22.5 -87q0 -117 -118 -180.5t-337 -63.5 q-265 0 -405 131q-137 -131 -359 -131q-263 0 -415 145.5t-152 395.5zM436 510q0 -80 47 -129t125 -49q75 0 123.5 50.5t48.5 127.5q0 80 -48 130t-124 50t-124 -50t-48 -130zM1190 610h280q-3 69 -38.5 106.5t-98.5 37.5q-60 0 -100 -41t-43 -103z" />
<glyph unicode="&#x178;" horiz-adv-x="1370" d="M-16 1145q-5 8 3 28.5t32.5 47.5t60.5 51.5t97 41.5t134 17q139 0 234 -174l143 -260l154 260q101 176 235 176q65 0 122 -17.5t92.5 -43t60 -52.5t33.5 -47.5t4 -27.5l-449 -635v-289q0 -114 -56 -172.5t-163 -58.5h-72q-103 0 -157 58.5t-54 172.5v289zM225 1616 q0 97 55.5 152t147.5 55q99 0 156 -54t57 -153q0 -97 -56 -152t-149 -55q-98 0 -154.5 54t-56.5 153zM727 1616q0 97 56 152t149 55q98 0 154.5 -54t56.5 -153q0 -97 -55.5 -152t-147.5 -55q-99 0 -156 54t-57 153z" />
<glyph unicode="&#x2c6;" horiz-adv-x="1024" d="M150 1245q0 74 57 142.5t137 113t168 68.5q88 -24 168 -68.5t137 -113t57 -142.5q0 -62 -42.5 -102.5t-110.5 -40.5q-69 0 -126.5 47.5t-82.5 122.5q-25 -75 -83.5 -122.5t-125.5 -47.5q-68 0 -110.5 40.5t-42.5 102.5z" />
<glyph unicode="&#x2dc;" horiz-adv-x="1021" d="M113 1255q0 113 69 177.5t164 64.5q83 0 145.5 -27t118.5 -86q42 113 146 113q66 0 108.5 -46.5t42.5 -109.5q0 -112 -68.5 -175.5t-164.5 -63.5q-84 0 -146.5 26t-117.5 86q-41 -112 -146 -112q-66 0 -108.5 45t-42.5 108z" />
<glyph unicode="&#x2000;" horiz-adv-x="938" />
<glyph unicode="&#x2001;" horiz-adv-x="1876" />
<glyph unicode="&#x2002;" horiz-adv-x="938" />
<glyph unicode="&#x2003;" horiz-adv-x="1876" />
<glyph unicode="&#x2004;" horiz-adv-x="625" />
<glyph unicode="&#x2005;" horiz-adv-x="469" />
<glyph unicode="&#x2006;" horiz-adv-x="312" />
<glyph unicode="&#x2007;" horiz-adv-x="312" />
<glyph unicode="&#x2008;" horiz-adv-x="234" />
<glyph unicode="&#x2009;" horiz-adv-x="375" />
<glyph unicode="&#x200a;" horiz-adv-x="104" />
<glyph unicode="&#x2010;" horiz-adv-x="1030" d="M51 469v80q0 71 50 124.5t137 53.5h555q88 0 137 -53t49 -125v-80q0 -74 -48.5 -127t-137.5 -53h-555q-88 0 -137.5 53t-49.5 127z" />
<glyph unicode="&#x2011;" horiz-adv-x="1030" d="M51 469v80q0 71 50 124.5t137 53.5h555q88 0 137 -53t49 -125v-80q0 -74 -48.5 -127t-137.5 -53h-555q-88 0 -137.5 53t-49.5 127z" />
<glyph unicode="&#x2012;" horiz-adv-x="1030" d="M51 469v80q0 71 50 124.5t137 53.5h555q88 0 137 -53t49 -125v-80q0 -74 -48.5 -127t-137.5 -53h-555q-88 0 -137.5 53t-49.5 127z" />
<glyph unicode="&#x2013;" horiz-adv-x="1214" d="M51 489v39q0 72 50 125.5t137 53.5h718q88 0 137.5 -53.5t49.5 -125.5v-39q0 -74 -49 -127t-138 -53h-718q-88 0 -137.5 53t-49.5 127z" />
<glyph unicode="&#x2014;" horiz-adv-x="1542" d="M51 489v39q0 72 50 125.5t137 53.5h1067q88 0 137 -53.5t49 -125.5v-39q0 -74 -48.5 -127t-137.5 -53h-1067q-88 0 -137.5 53t-49.5 127z" />
<glyph unicode="&#x2018;" horiz-adv-x="561" d="M29 918v18q0 113 106 219l148 148q33 33 80.5 39.5t87 -10t63.5 -54t14 -84.5l-57 -276q-11 -54 -22.5 -85t-33.5 -58t-58 -37.5t-91 -10.5h-57q-180 0 -180 191z" />
<glyph unicode="&#x2019;" horiz-adv-x="561" d="M35 879l53 276q20 105 61.5 148t147.5 43h53q182 0 182 -191v-18q0 -116 -106 -219l-150 -148q-33 -32 -79.5 -38.5t-85 9.5t-62 53.5t-14.5 84.5z" />
<glyph unicode="&#x201a;" horiz-adv-x="561" d="M35 -66l53 277q20 105 61.5 147.5t147.5 42.5h53q91 0 136.5 -46t45.5 -144v-18q0 -117 -106 -220l-150 -147q-33 -33 -79.5 -39t-85 9.5t-62 53t-14.5 84.5z" />
<glyph unicode="&#x201c;" horiz-adv-x="1091" d="M29 918v18q0 113 106 219l148 148q33 33 80.5 39.5t87 -10t63.5 -54t14 -84.5l-57 -276q-11 -54 -22.5 -85t-33.5 -58t-58 -37.5t-91 -10.5h-57q-180 0 -180 191zM559 918v18q0 115 107 219l149 148q33 32 79.5 38.5t85.5 -9.5t62.5 -53.5t14.5 -84.5l-53 -276 q-20 -105 -61.5 -148t-147.5 -43h-54q-182 0 -182 191z" />
<glyph unicode="&#x201d;" horiz-adv-x="1091" d="M35 879l53 276q20 105 61.5 148t147.5 43h53q182 0 182 -191v-18q0 -116 -106 -219l-150 -148q-33 -32 -79.5 -38.5t-85 9.5t-62 53.5t-14.5 84.5zM563 879l58 276q11 55 22.5 85.5t33 57.5t57.5 37.5t91 10.5h58q180 0 180 -191v-18q0 -112 -107 -219l-147 -148 q-33 -33 -80.5 -39.5t-87.5 10t-64 54t-14 84.5z" />
<glyph unicode="&#x201e;" horiz-adv-x="1091" d="M35 -66l53 277q20 105 61.5 147.5t147.5 42.5h53q91 0 136.5 -46t45.5 -144v-18q0 -117 -106 -220l-150 -147q-33 -33 -79.5 -39t-85 9.5t-62 53t-14.5 84.5zM563 -66l58 277q11 54 22.5 85t33 57.5t57.5 37t91 10.5h58q180 0 180 -190v-18q0 -113 -107 -220l-147 -147 q-33 -33 -80.5 -39.5t-87.5 9.5t-64 53.5t-14 84.5z" />
<glyph unicode="&#x2022;" horiz-adv-x="770" d="M57 510q0 141 94.5 237.5t233.5 96.5t233.5 -96.5t94.5 -237.5q0 -136 -96.5 -233t-231.5 -97q-141 0 -234.5 94t-93.5 236z" />
<glyph unicode="&#x2026;" horiz-adv-x="1689" d="M57 172v39q0 98 47 144t146 46h55q103 0 150 -46t47 -144v-39q0 -97 -48 -143.5t-149 -46.5h-55q-193 0 -193 190zM621 172v39q0 98 46.5 144t145.5 46h55q103 0 150 -46t47 -144v-39q0 -97 -48 -143.5t-149 -46.5h-55q-192 0 -192 190zM1184 172v39q0 98 46.5 144 t145.5 46h56q102 0 149 -45.5t47 -144.5v-39q0 -97 -47.5 -143.5t-148.5 -46.5h-56q-192 0 -192 190z" />
<glyph unicode="&#x202f;" horiz-adv-x="375" />
<glyph unicode="&#x2039;" horiz-adv-x="667" d="M39 508q0 14 24 59.5t66.5 105t92.5 115t111.5 94t115.5 38.5h6q85 0 129.5 -46.5t44.5 -125.5v-11q0 -39 -26 -79t-64 -69.5t-74.5 -50t-65.5 -30.5q30 -12 65.5 -32.5t74.5 -50t64.5 -68.5t25.5 -78v-11q0 -78 -44.5 -125t-129.5 -47h-6q-54 0 -115.5 38.5t-111.5 94 t-92.5 115t-66.5 105t-24 59.5z" />
<glyph unicode="&#x203a;" horiz-adv-x="667" d="M39 268v11q0 39 25.5 78t64.5 68.5t74 50t65 32.5q-22 7 -50 21.5t-60 37t-58 48t-43.5 58t-17.5 64.5v11q0 79 44.5 125.5t129.5 46.5h6q54 0 115.5 -38.5t111.5 -94t92.5 -115t66.5 -105t24 -59.5t-24 -59.5t-66.5 -105t-92.5 -115t-111.5 -94t-115.5 -38.5h-6 q-85 0 -129.5 47t-44.5 125z" />
<glyph unicode="&#x205f;" horiz-adv-x="469" />
<glyph unicode="&#x20ac;" horiz-adv-x="1304" d="M14 647v39q0 58 40.5 100.5t111.5 42.5h8q26 246 197.5 385.5t437.5 139.5q147 0 257 -41t159 -92q31 -31 45.5 -65t13.5 -87q0 -44 -21.5 -84.5t-52 -66.5t-62.5 -45t-55 -26.5t-28 -2.5q-58 58 -109 82t-125 24q-150 0 -174 -121h191q72 0 111.5 -42t39.5 -101v-39 q0 -61 -39 -103t-112 -42h-191q22 -129 174 -129q74 0 125 24t109 82q5 5 28 -2.5t55 -26.5t62.5 -45t52 -66.5t21.5 -84.5q1 -53 -13.5 -87t-45.5 -65q-49 -51 -159 -92t-257 -41q-176 0 -313 62t-221.5 183t-100.5 288h-8q-72 0 -112 42t-40 103z" />
<glyph unicode="&#x2122;" horiz-adv-x="1447" d="M6 1219v2q0 104 115 104h405q115 0 115 -104v-2q0 -111 -115 -111h-75v-340q0 -57 -28.5 -87t-82.5 -30h-37q-102 0 -102 117v340h-80q-115 0 -115 111zM682 768v451q0 60 22.5 88t73.5 28h72q45 0 66 -12t34 -45l97 -225l96 225q14 35 35.5 46t62.5 11h72q53 0 75.5 -28 t22.5 -88v-451q0 -59 -22 -88t-74 -29h-41q-98 0 -98 117v197l-33 -134q-3 -15 -5 -19.5t-11 -13t-28.5 -11.5t-51.5 -3q-15 0 -27 0.5t-21 2t-15.5 3t-11.5 5t-7.5 5t-5 6.5t-3 7t-2 9t-2.5 9l-34 123v-186q0 -59 -22.5 -88t-74.5 -29h-41q-98 0 -98 117z" />
<glyph unicode="&#xe000;" horiz-adv-x="1044" d="M0 0v1044h1044v-1044h-1044z" />
</font>
</defs>
</svg>
