<?xml version="1.0" standalone="no"?>
<!DOCTYPE svg PUBLIC "-//W3C//DTD SVG 1.1//EN" "http://www.w3.org/Graphics/SVG/1.1/DTD/svg11.dtd" >
<svg xmlns="http://www.w3.org/2000/svg">
<metadata>
This is a custom SVG webfont generated by Font Squirrel.
Copyright   : Copyright c 1990 Adobe Systems Incorporated All Rights ReservedRockwell is a trademark of The Monotype Corporation Plc
</metadata>
<defs>
<font id="webfontNU4VxORG" horiz-adv-x="724" >
<font-face units-per-em="2048" ascent="1638" descent="-410" />
<missing-glyph horiz-adv-x="512" />
<glyph unicode=" "  horiz-adv-x="512" />
<glyph unicode="&#x09;" horiz-adv-x="512" />
<glyph unicode="&#xa0;" horiz-adv-x="512" />
<glyph unicode="!" d="M207 1391h311v-381l-82 -525h-147l-82 525v381zM195 0v336h335v-336h-335z" />
<glyph unicode="&#x22;" horiz-adv-x="1130" d="M727 688l-29 367v336h222v-336l-29 -367h-164zM240 688l-29 367v336h221v-336l-29 -367h-163z" />
<glyph unicode="#" horiz-adv-x="1368" d="M72 1053h299l78 374h233l-78 -374h305l76 374h236l-78 -374h151v-224h-196l-58 -266h254v-223h-299l-80 -367h-233l80 367h-311l-78 -367h-234l78 367h-145v223h194l56 266h-250v224zM555 829l-55 -266h309l55 266h-309z" />
<glyph unicode="$" horiz-adv-x="1153" d="M616 -197h-141v174q-184 29 -279.5 126.5t-101.5 285.5h246q-6 -66 31 -132.5t104 -74.5v424q-195 92 -276.5 184.5t-81.5 221.5q0 139 99 235t259 111v88h141v-88q180 -14 280.5 -114.5t100.5 -254.5h-245q-20 152 -136 166v-332q223 -88 332 -187t109 -276 q0 -166 -122 -272t-319 -111v-174zM616 174q88 0 142.5 47t54.5 117q0 131 -197 207v-371zM475 891v264q-113 -20 -113 -117q0 -45 23.5 -75.5t89.5 -71.5z" />
<glyph unicode="%" horiz-adv-x="1898" d="M1808 328q0 -174 -85 -268.5t-240.5 -94.5t-240.5 94.5t-85 268.5q0 176 85 270t240.5 94t240.5 -94t85 -270zM1569 322q0 123 -20.5 173t-69.5 50q-82 0 -82 -205q0 -125 19.5 -176t68.5 -51q84 0 84 209zM737 1051q0 -174 -85 -268.5t-240.5 -94.5t-240.5 94.5 t-85 268.5q0 176 85 270t240.5 94t240.5 -94t85 -270zM498 1044q0 123 -20.5 173.5t-69.5 50.5q-82 0 -82 -205q0 -125 19.5 -176t68.5 -51q84 -1 84 208zM358 0l1006 1391h180l-1007 -1391h-179z" />
<glyph unicode="&#x26;" horiz-adv-x="1642" d="M1559 223v-223h-412l-125 154q-197 -178 -451 -179q-213 0 -354 122t-141 306q0 272 385 449q-111 131 -111 254q0 139 104.5 223t276.5 84q162 0 266.5 -80t104.5 -205q0 -193 -242 -315l199 -252q115 160 168 289h332v-223h-168q-70 -152 -164 -260l108 -144h224z M866 348l-264 332q-209 -84 -209 -234q0 -88 68.5 -149t167.5 -61q116 -1 237 112zM721 989q135 57 135 139q0 41 -34 71t-81 30t-79.5 -25.5t-32.5 -62.5t92 -152z" />
<glyph unicode="'" horiz-adv-x="575" d="M207 688l-29 367v336h221v-336l-28 -367h-164z" />
<glyph unicode="(" horiz-adv-x="704" d="M412 487.5q0 -309.5 49 -479.5t186 -244v-200q-252 104 -402.5 333.5t-150.5 590t150.5 590t402.5 333.5v-201q-137 -74 -186 -243.5t-49 -479z" />
<glyph unicode=")" horiz-adv-x="704" d="M293 487.5q0 309.5 -49 479.5t-187 243v201q252 -104 402.5 -333.5t150.5 -590t-150.5 -590t-402.5 -333.5v200q137 74 186.5 244t49.5 479.5z" />
<glyph unicode="*" horiz-adv-x="1173" d="M770 418l-102 141q0 106 -82 240q-82 -133 -80 -240l-103 -141l-200 141l98 139q57 20 96 52t109 112q-119 23 -162 22t-96 -22l-170 66l82 227l166 -49q31 -45 72.5 -75t136.5 -77q-10 164 -72 267v170h248v-170q-51 -78 -74 -267q96 47 138 77t73 75l166 49l82 -227 l-170 -66q-70 23 -111 21t-147 -21q109 -129 204 -164l99 -139z" />
<glyph unicode="+" horiz-adv-x="1368" d="M813 821h434v-260h-434v-434h-260v434h-434v260h434v434h260v-434z" />
<glyph unicode="," d="M195 336h335v-336q0 -190 -77.5 -278.5t-255.5 -88.5v152q88 10 126.5 60.5t38.5 154.5h-167v336z" />
<glyph unicode="-" horiz-adv-x="704" d="M72 348v270h559v-270h-559z" />
<glyph unicode="." d="M195 336h335v-336h-335v336z" />
<glyph unicode="/" horiz-adv-x="1040" d="M748 1391h284l-737 -1416h-287z" />
<glyph unicode="0" horiz-adv-x="1130" d="M88 698.5q0 348.5 123 532.5t354.5 184t354 -184t122.5 -532.5t-122.5 -532.5t-354 -184t-354.5 184t-123 532.5zM565 207q84 0 122 112.5t38 378.5q0 274 -40 383t-122 109t-119.5 -119t-37.5 -377q0 -252 38.5 -369.5t120.5 -117.5z" />
<glyph unicode="1" horiz-adv-x="1130" d="M233 0v223h193v944h-205v224h510v-1168h182v-223h-680z" />
<glyph unicode="2" horiz-adv-x="1130" d="M991 403v-403h-901v74q0 158 59.5 286.5t143.5 213.5t169 159t144.5 154t59.5 164q0 63 -38 105t-96 42q-86 0 -122.5 -68.5t-44.5 -224.5l-256 13q-6 254 119.5 375.5t328.5 121.5q190 0 308 -106.5t118 -278.5q0 -113 -56.5 -202t-140.5 -150l-171 -121 q-87 -59 -158.5 -144t-91.5 -190h405v180h221z" />
<glyph unicode="3" horiz-adv-x="1130" d="M90 426l268 20q6 -121 46 -180t137 -59q80 0 132 56t52 149q0 109 -65.5 164t-196.5 40v234q109 2 168 49t59 135q0 70 -41 113t-106 43q-72 0 -112 -48t-38 -136l-260 20q10 184 123 286.5t307 102.5q199 0 313.5 -98t114.5 -268q0 -215 -207 -316q258 -86 258 -334 q0 -188 -130 -302.5t-345 -114.5q-440 0 -477 444z" />
<glyph unicode="4" horiz-adv-x="1130" d="M995 205v-205h-553v205h150v178h-510q-29 98 -74 190l598 840h273v-840h135v-190h-135v-178h116zM592 573v484h-4l-340 -484h344z" />
<glyph unicode="5" horiz-adv-x="1130" d="M74 373l262 33q16 -106 59 -152.5t125 -46.5q186 0 187 229q0 248 -181 248q-100 0 -168 -109l-221 111l39 705h782v-328h-202l-21 104h-358l-19 -333q115 80 238 79q193 0 310.5 -125.5t117.5 -330.5q0 -88 -24.5 -167t-77 -150.5t-150.5 -114.5t-231 -43 q-201 0 -320.5 100.5t-146.5 290.5z" />
<glyph unicode="6" horiz-adv-x="1130" d="M1004 1040l-240 -20q-25 86 -58.5 131t-105.5 45q-90 0 -147.5 -102.5t-59.5 -292.5q102 90 246 90q168 0 274.5 -110.5t106.5 -307.5q0 -244 -111.5 -367.5t-314.5 -123.5q-256 0 -379 172t-123 530q0 356 129 542.5t389 186.5q174 0 276 -98.5t118 -274.5zM393 606 q2 -195 46 -297t149 -102q72 0 110.5 61.5t38.5 173.5q0 102 -46 163t-124 61q-90 -1 -174 -60z" />
<glyph unicode="7" horiz-adv-x="1130" d="M864 223v-223h-671v223h172q12 211 114.5 484.5t239.5 466.5h-354v-195h-226v412h869v-172q-119 -147 -219.5 -456.5t-100.5 -539.5h176z" />
<glyph unicode="8" horiz-adv-x="1130" d="M328 731q-207 113 -207 322q0 166 120.5 264t323.5 98t324 -98t121 -264q0 -209 -207 -322q250 -94 250 -340q0 -172 -120 -290.5t-368 -118.5t-366.5 116.5t-118.5 292.5q0 246 248 340zM565 827q78 0 120 49.5t42 137.5q0 80 -40 132t-122 52q-76 0 -119 -50t-43 -136 q0 -84 44 -134.5t118 -50.5zM567 199q86 0 136.5 58t50.5 159q0 98 -49.5 157.5t-137.5 59.5q-84 0 -136 -61.5t-52 -158t51 -155.5t137 -59z" />
<glyph unicode="9" horiz-adv-x="1130" d="M127 354l240 21q25 -86 58.5 -131t104.5 -45q90 0 147.5 102t59.5 293q-102 -90 -245 -90q-168 0 -274.5 110.5t-106.5 307.5q0 244 111.5 367.5t314.5 123.5q256 0 378.5 -172t122.5 -530q0 -356 -129 -542.5t-389 -186.5q-174 0 -275.5 98t-117.5 274zM737 788 q-2 195 -46 297.5t-148 102.5q-72 0 -111 -61.5t-39 -174.5q0 -102 46 -162.5t124 -60.5q90 0 174 59z" />
<glyph unicode=":" d="M195 969h335v-336h-335v336zM195 336h335v-336h-335v336z" />
<glyph unicode=";" d="M195 336h335v-336q0 -190 -77.5 -278.5t-255.5 -88.5v152q88 10 126.5 60.5t38.5 154.5h-167v336zM195 969h335v-336h-335v336z" />
<glyph unicode="&#x3c;" horiz-adv-x="1366" d="M119 565v238l1126 467v-283l-768 -303l768 -303v-283z" />
<glyph unicode="=" horiz-adv-x="1366" d="M119 573h1128v-260h-1128v260zM119 1055h1128v-260h-1128v260z" />
<glyph unicode="&#x3e;" horiz-adv-x="1366" d="M1247 565l-1126 -467v283l768 303l-768 303v283l1126 -467v-238z" />
<glyph unicode="?" horiz-adv-x="1153" d="M580 481h-144l-28 355l12 6q121 -31 214 14t93 160q0 72 -47 128t-143 56q-88 0 -139.5 -54t-32.5 -153h-310q0 203 135.5 312.5t366.5 109.5q223 0 355 -109.5t132 -297.5q0 -174 -116.5 -282t-315.5 -99zM338 336h336v-336h-336v336z" />
<glyph unicode="@" horiz-adv-x="2004" d="M881 182q96 0 169.5 87t105.5 195.5t32 205.5q0 106 -51.5 169.5t-128.5 63.5q-82 0 -145.5 -51t-97.5 -130t-51.5 -154.5t-17.5 -141.5q0 -119 50.5 -181.5t134.5 -62.5zM1090 1491q377 0 612 -215t235 -547q0 -295 -189 -512t-472 -217q-156 0 -182 117 q-111 -117 -269 -117q-184 0 -285.5 123t-101.5 319q0 88 34 194.5t95.5 208t170 170t239.5 68.5q176 0 266 -135l25 111h264l-164 -772q-16 -82 39 -82q33 0 88 35.5t115.5 99t103.5 170t43 227.5q0 98 -37 194.5t-111.5 183.5t-213 141.5t-318.5 54.5q-162 0 -298 -45 t-231 -124t-162 -184.5t-98.5 -225.5t-31.5 -249q0 -348 220 -538.5t628 -190.5q461 0 674 264h213q-227 -444 -908 -444q-264 0 -464.5 72.5t-319.5 199.5t-178.5 288t-59.5 349q0 131 31 264.5t107.5 269.5t190.5 239.5t294.5 169t405.5 65.5z" />
<glyph unicode="A" horiz-adv-x="1429" d="M1432 236v-236h-676v236h174l-66 237h-360l-76 -237h186v-236h-618v236h174l272 919h-186v236h907v-236h-186l291 -919h164zM807 678l-113 420h-4l-125 -420h242z" />
<glyph unicode="B" horiz-adv-x="1429" d="M66 0v236h174v919h-174v236h722q131 0 222.5 -21.5t154.5 -85.5q106 -106 107 -258q0 -205 -197 -287q250 -94 250 -333q0 -176 -128 -291t-386 -115h-745zM602 236h146q115 0 159.5 49t44.5 135q0 92 -55 139t-139 47h-156v-370zM602 842h141q80 0 123 44t43 118 q0 152 -182 151h-125v-313z" />
<glyph unicode="C" horiz-adv-x="1599" d="M1225 1391h235v-490h-235q-49 127 -107 172q-72 55 -121 73.5t-118 18.5q-186 0 -300 -130t-114 -343q0 -203 108.5 -329.5t282.5 -126.5q145 0 246.5 95t140.5 267l275 -131q-72 -258 -261.5 -371.5t-427.5 -113.5q-170 0 -305 46t-217 117.5t-136 169t-74.5 190.5 t-20.5 191q0 317 202.5 517t528.5 200q252 0 418 -131v109z" />
<glyph unicode="D" horiz-adv-x="1642" d="M68 0v236h211v919h-211v236h727q195 0 330 -43t237 -146q199 -199 199 -510q0 -289 -175.5 -490.5t-490.5 -201.5h-827zM641 236h137q203 0 304.5 120.5t101.5 333.5q0 225 -107.5 345t-310.5 120h-125v-919z" />
<glyph unicode="E" horiz-adv-x="1366" d="M70 0v236h163v919h-163v236h1222v-441h-264v205h-432v-319h348v-236h-348v-364h432v206h264v-442h-1222z" />
<glyph unicode="F" horiz-adv-x="1323" d="M57 0v236h199v919h-199v236h1246v-428h-267v192h-418v-321h302v-236h-302v-362h213v-236h-774z" />
<glyph unicode="G" horiz-adv-x="1728" d="M975 467v235h651q1 -25 1 -48q0 -131 -38 -240q-45 -129 -122.5 -208t-183 -131t-207 -72.5t-204.5 -20.5q-373 0 -573.5 203.5t-200.5 512.5q0 315 206 515t532 200q281 0 434 -137v115h235v-494h-235q-41 123 -146 197q-100 72 -237 71q-178 0 -289 -122.5t-111 -321.5 q0 -244 121 -364.5t289 -120.5q254 0 322 231h-244z" />
<glyph unicode="H" horiz-adv-x="1556" d="M63 0v236h164v919h-164v236h668v-236h-141v-305h379v305h-142v236h668v-236h-164v-919h164v-236h-668v236h142v378h-379v-378h141v-236h-668z" />
<glyph unicode="I" horiz-adv-x="874" d="M45 0v236h211v919h-211v236h784v-236h-211v-919h211v-236h-784z" />
<glyph unicode="J" horiz-adv-x="831" d="M-2 -403v251q66 -16 104 -16q156 0 156 168v1155h-207v236h756v-236h-186v-1128q0 -219 -106.5 -337t-307.5 -118q-86 0 -209 25z" />
<glyph unicode="K" horiz-adv-x="1599" d="M41 0v236h188v919h-188v236h719v-236h-168v-919h168v-236h-719zM858 0v236h164l-420 495l455 424h-164v236h680v-236h-174l-391 -383l456 -536h142v-236h-748z" />
<glyph unicode="L" horiz-adv-x="1323" d="M57 0v236h199v919h-199v236h764v-236h-203v-919h410v430h272v-666h-1243z" />
<glyph unicode="M" horiz-adv-x="2134" d="M57 0v236h181v919h-181v236h697l305 -816l317 816h705v-236h-180v-919h182v-236h-717v236h182v919h-32l-435 -1155h-151l-434 1155h-33v-919h182v-236h-588z" />
<glyph unicode="N" horiz-adv-x="1622" d="M43 0v236h186v919h-186v236h582l510 -869h4v633h-181v236h625v-236h-197v-1155h-311l-594 1022h-4v-786h174v-236h-608z" />
<glyph unicode="O" horiz-adv-x="1748" d="M874 1413q188 0 339 -59.5t244 -160.5t142.5 -228t49.5 -269q0 -137 -48.5 -263t-140.5 -227.5t-243.5 -162.5t-342.5 -61q-188 0 -339.5 60t-243.5 161.5t-140.5 227.5t-48.5 265q0 297 203.5 507t568.5 210zM874 1159q-154 0 -268 -117.5t-114 -351.5 q0 -201 106.5 -327.5t275.5 -126.5q158 0 272 118.5t114 343.5q0 211 -110 336t-276 125z" />
<glyph unicode="P" horiz-adv-x="1366" d="M793 236v-236h-730v236h175v919h-175v236h791q213 0 343 -127t130 -316q0 -193 -127 -317.5t-375 -124.5h-225v-270h193zM600 741h100q242 0 242 205q0 94 -57.5 151.5t-145.5 57.5h-139v-414z" />
<glyph unicode="Q" horiz-adv-x="1748" d="M1384 -119l-86 -229q-16 -2 -33 -2q-73 0 -161 36q-109 44 -215.5 94t-177.5 50q-106 0 -203 -84l-90 135q78 92 235 117v4q-252 59 -401.5 246.5t-149.5 445.5q0 131 44 254t133.5 229.5t243 171t351.5 64.5q190 0 341 -60.5t244 -163t141.5 -229t48.5 -266.5 q0 -301 -198 -494.5t-488 -211.5v-4q43 -14 96 -37l81 -35q28 -12 75 -26q45 -12 75 -12h4q31 1 90 7zM874 1159q-154 0 -268 -117.5t-114 -351.5q0 -201 106.5 -327.5t275.5 -126.5q158 0 272 118.5t114 343.5q0 211 -110 336t-276 125z" />
<glyph unicode="R" horiz-adv-x="1492" d="M1497 236v-236h-424l-313 610h-160v-374h174v-236h-727v236h191v919h-191v236h866q195 0 306.5 -112t111.5 -278q0 -238 -239 -346l225 -419h180zM600 834h145q111 0 160 49t49 114q0 57 -40 107.5t-130 50.5h-184v-321z" />
<glyph unicode="S" horiz-adv-x="1087" d="M90 0v473h236q-2 -111 59 -181.5t154 -70.5q63 0 108 43t45 107q0 59 -46 106t-113.5 79t-148.5 75t-148.5 88t-113.5 125t-46 182q0 186 113.5 282.5t261.5 96.5q168 0 254 -129h4v115h233v-422h-233q-14 96 -67.5 150.5t-133.5 54.5q-59 0 -98 -32t-39 -81 q0 -51 47 -93t118.5 -70t154.5 -71t155 -91t119 -137t47 -204q0 -117 -41 -203t-106.5 -129t-129 -62t-127.5 -19q-186 0 -278 135h-4v-117h-236z" />
<glyph unicode="T" horiz-adv-x="1386" d="M1325 1391v-560h-242v324h-209v-919h209v-236h-780v236h209v919h-209v-324h-242v560h1264z" />
<glyph unicode="U" horiz-adv-x="1386" d="M29 1155v236h647v-236h-121v-706q0 -111 41 -170.5t139 -59.5q193 0 193 217v719h-115v236h537v-236h-174v-778q0 -115 -46.5 -197t-122 -122t-151.5 -57t-160 -17q-227 0 -365 103t-138 341v727h-164z" />
<glyph unicode="V" horiz-adv-x="1429" d="M582 -10l-418 1165h-164v236h688v-236h-160l232 -696h4l233 696h-153v236h586v-236h-164l-404 -1165h-280z" />
<glyph unicode="W" horiz-adv-x="2027" d="M547 -10l-402 1165h-147v236h625v-236h-142l224 -668h4l211 668h-127v236h499v-236h-129l226 -668h4l219 668h-144v236h562v-236h-152l-389 -1165h-252l-221 635h-4l-209 -635h-256z" />
<glyph unicode="X" horiz-adv-x="1515" d="M-4 0v236h201l342 479l-338 440h-191v236h715v-222h-133l207 -260l188 260h-127v222h619v-236h-195l-330 -455l357 -464h209v-236h-744v221h142l-216 289l-208 -289h141v-221h-639z" />
<glyph unicode="Y" horiz-adv-x="1429" d="M352 0v236h197v374l-383 545h-174v236h684v-236h-127l211 -340l203 340h-121v236h596v-236h-174l-363 -545v-374h197v-236h-746z" />
<glyph unicode="Z" horiz-adv-x="1323" d="M102 0v236l660 919h-387v-252h-236v488h1075v-209l-679 -946h456v266h236v-502h-1125z" />
<glyph unicode="[" horiz-adv-x="854" d="M225 -416v1807h566v-207h-252v-1393h252v-207h-566z" />
<glyph unicode="\" horiz-adv-x="1040" d="M293 1391l739 -1416h-287l-737 1416h285z" />
<glyph unicode="]" horiz-adv-x="854" d="M629 -416h-566v207h252v1393h-252v207h566v-1807z" />
<glyph unicode="^" horiz-adv-x="1193" d="M115 592l377 799h221l366 -799h-284l-197 489l-197 -489h-286z" />
<glyph unicode="_" horiz-adv-x="1024" d="M-12 -154h1048v-102h-1048v102z" />
<glyph unicode="`" horiz-adv-x="681" d="M545 1094h-160l-369 317h369z" />
<glyph unicode="a" horiz-adv-x="1193" d="M1167 223v-223h-469v76q-127 -90 -262 -90q-152 0 -253 86t-101 217q0 141 111.5 233t285.5 92q94 0 219 -43v54q0 76 -51 123t-133 47q-98 0 -176 -76l-250 43q113 229 469 229q238 0 346.5 -88t108.5 -282v-398h155zM698 358q-106 70 -178 70q-61 0 -101 -34t-40 -87 q0 -55 37 -92t90 -37q82 0 192 101v79z" />
<glyph unicode="b" horiz-adv-x="1280" d="M506 1391v-531q66 72 129 101.5t147 29.5q186 0 302 -140t116 -364q0 -135 -40 -237.5t-103.5 -157.5t-131 -80.5t-137.5 -25.5q-160 0 -282 125v-111h-477v223h164v944h-164v224h477zM883 487q0 119 -48.5 184.5t-138.5 65.5t-141 -68.5t-51 -189.5q0 -117 51 -185.5 t139 -68.5t138.5 69.5t50.5 192.5z" />
<glyph unicode="c" horiz-adv-x="1153" d="M1061 969v-394h-213q-74 162 -238 162q-104 0 -165.5 -67.5t-61.5 -182.5q0 -127 58.5 -198.5t160.5 -71.5q74 0 139.5 43t106.5 117l239 -107q-131 -293 -469 -293q-250 0 -401 139.5t-151 368.5q0 215 139 356.5t350 141.5q150 0 293 -94v80h213z" />
<glyph unicode="d" horiz-adv-x="1280" d="M1241 223v-223h-463v115q-131 -129 -280 -129q-178 0 -298 144t-120 359q0 213 121 357.5t299 144.5q166 0 278 -129v305h-149v224h463v-1168h149zM782 489q0 111 -53 179.5t-143 68.5q-88 0 -138.5 -67.5t-50.5 -186.5q0 -117 51.5 -187.5t139.5 -70.5q80 0 137 66.5 t57 197.5z" />
<glyph unicode="e" horiz-adv-x="1173" d="M852 291l246 -76q-154 -238 -475 -238q-252 0 -399.5 132.5t-147.5 357.5q0 227 147.5 375.5t374.5 148.5q225 0 372 -158q130 -141 130 -358q0 -27 -2 -55h-709q2 -98 59.5 -170t178.5 -72q61 0 109 23.5t116 89.5zM389 592h404q-12 92 -66.5 144t-138.5 52 q-172 1 -199 -196z" />
<glyph unicode="f" d="M664 223v-223h-596v223h133v522h-133v224h133v82q0 152 92 258t285 106q221 0 321 -135l-235 -176q-18 61 -33 82.5t-45 21.5q-72 0 -72 -135v-104h150v-224h-150v-522h150z" />
<glyph unicode="g" horiz-adv-x="1280" d="M1249 969v-224h-164v-722q0 -213 -119.5 -343.5t-392.5 -130.5q-291 0 -430 107l150 203q119 -70 239 -70q129 0 184.5 66.5t55.5 171.5v94q-154 -131 -295 -131q-172 0 -287.5 142t-115.5 353q0 213 119.5 355.5t300.5 142.5q170 0 274 -133h4v119h477zM772 479 q0 115 -52 182.5t-140 67.5t-138.5 -66.5t-50.5 -179t51.5 -180t137.5 -67.5q84 0 138 67t54 176z" />
<glyph unicode="h" horiz-adv-x="1280" d="M55 0v223h150v944h-150v224h463v-500q88 59 145.5 79.5t129.5 20.5q143 0 222 -86t79 -217v-465h141v-223h-455v621q0 63 -22.5 89.5t-75.5 26.5q-68 0 -164 -59v-455h141v-223h-604z" />
<glyph unicode="i" d="M88 745v224h455v-746h141v-223h-596v223h141v522h-141zM389 1413q72 0 121 -49t49 -118.5t-50 -120t-120 -50.5t-119 49.5t-49 120.5q0 70 49 119t119 49z" />
<glyph unicode="j" d="M78 745v224h463v-1000q0 -215 -102.5 -306t-340.5 -91q-39 0 -112 4v250h73q88 0 128 30.5t40 116.5v772h-149zM374.5 1413q71.5 0 121 -49t49.5 -118.5t-49.5 -120t-120.5 -50.5q-70 0 -119 49.5t-49 120.5q0 70 48 119t119.5 49z" />
<glyph unicode="k" horiz-adv-x="1323" d="M72 0v215h149v952h-149v224h463v-879l333 258v4h-213v195h602v-195h-106l-283 -244l258 -315h131v-215h-294l-424 512h-4v-297h120v-215h-583z" />
<glyph unicode="l" d="M74 0v223h149v944h-149v224h463v-1168h139v-223h-602z" />
<glyph unicode="m" horiz-adv-x="2027" d="M39 745v224h493v-80q162 94 308 94q203 0 297 -133q197 133 383 133q332 0 331 -319v-441h193v-223h-506v563q0 156 -127 156q-98 0 -219 -66v-430h174v-223h-487v563q0 82 -30 119t-95 37q-92 0 -222 -66v-430h175v-223h-668v223h180v522h-180z" />
<glyph unicode="n" horiz-adv-x="1280" d="M74 745v224h463v-90q141 104 278 104q119 0 207 -77t88 -253v-430h141v-223h-454v614q0 109 -90 109q-82 0 -170 -64v-436h129v-223h-592v223h149v522h-149z" />
<glyph unicode="o" horiz-adv-x="1173" d="M1096 485q0 -227 -141.5 -367.5t-368.5 -140.5q-221 0 -364.5 136.5t-143.5 371.5q0 242 148.5 374t359.5 132q221 0 365.5 -135t144.5 -371zM778 485q0 127 -50 197t-142 70t-141.5 -71t-49.5 -202q0 -123 50.5 -192.5t140.5 -69.5q92 0 142 70.5t50 197.5z" />
<glyph unicode="p" horiz-adv-x="1280" d="M696 -211v-223h-661v223h164v956h-164v224h477v-123q123 137 281 137q176 0 293.5 -144.5t117.5 -359.5q0 -221 -116.5 -361.5t-299.5 -140.5q-154 0 -276 121v-309h184zM887 479q0 117 -51.5 183.5t-139.5 66.5t-137 -66.5t-49 -187.5q0 -119 51 -188.5t139 -69.5 t137.5 69.5t49.5 192.5z" />
<glyph unicode="q" horiz-adv-x="1280" d="M584 -211h184v309q-123 -121 -276 -121q-182 0 -299 140.5t-117 361.5q0 215 117.5 359.5t293.5 144.5q158 0 281 -137v123h477v-224h-164v-956h164v-223h-661v223zM393 479q0 -123 49.5 -192.5t137.5 -69.5t139 70.5t51 195.5q0 113 -50 179.5t-136 66.5 q-88 0 -139.5 -66.5t-51.5 -183.5z" />
<glyph unicode="r" horiz-adv-x="917" d="M737 223v-223h-682v223h181v522h-164v224h444v-246h4q43 125 130 192.5t208 67.5h45v-293h-37q-317 0 -317 -364v-103h188z" />
<glyph unicode="s" horiz-adv-x="1044" d="M119 0v334h225q2 -63 62 -109q55 -41 153 -41q72 0 115 26t43 69q0 47 -61.5 70.5t-144.5 30.5t-187.5 42t-169.5 100q-72 72 -72 176q0 125 101.5 205t256.5 80q131 0 244 -47v33h221v-281h-221q-27 100 -211 100q-61 0 -97 -20t-36 -53q0 -35 64.5 -54.5t157.5 -34 t186.5 -41t158 -96t64.5 -182.5q0 -145 -99.5 -235t-281.5 -90q-174 0 -246 67v-49h-225z" />
<glyph unicode="t" horiz-adv-x="704" d="M39 745v224h123v151l313 221v-372h174v-224h-174v-419q0 -63 15.5 -82t64.5 -19q39 0 94 19v-209q-117 -49 -231 -49q-106 0 -181 56t-75 175v528h-123z" />
<glyph unicode="u" horiz-adv-x="1280" d="M1206 223v-223h-463v82q-139 -96 -276 -96t-217 80.5t-80 220.5v458h-141v224h454v-604q0 -72 20.5 -98.5t74.5 -26.5q72 0 165 69v436h-129v224h443v-746h149z" />
<glyph unicode="v" horiz-adv-x="1173" d="M461 -14l-328 759h-141v224h569v-224h-100l151 -440l181 440h-101v224h490v-224h-142l-315 -759h-264z" />
<glyph unicode="w" horiz-adv-x="1665" d="M377 -14l-254 759h-123v224h526v-224h-104l117 -360h4l194 584h258l197 -584h4l111 360h-113v224h469v-224h-121l-250 -759h-266l-188 569h-4l-187 -569h-270z" />
<glyph unicode="x" horiz-adv-x="1153" d="M45 0v223h141l209 250l-209 272h-141v224h373l174 -267l190 267h293v-224h-131l-194 -233l227 -289h131v-223h-373l-188 272l-201 -272h-301z" />
<glyph unicode="y" horiz-adv-x="1216" d="M252 -434v223h184l64 172l-350 784h-142v224h561v-224h-94l162 -434l172 434h-104v224h491v-224h-141l-465 -1179h-338z" />
<glyph unicode="z" horiz-adv-x="1087" d="M72 0v197l569 571h-311v-145h-211v346h891v-201l-568 -571h365v163h203v-360h-938z" />
<glyph unicode="{" horiz-adv-x="788" d="M59 592q123 0 171.5 71.5t48.5 219.5v125q0 90 12 150.5t49 117.5t114.5 86t200.5 29h88v-236h-88q-29 0 -57.5 -13.5t-37.5 -23.5t-17 -52t-8 -76v-116q0 -166 -40 -248.5t-143 -148.5q102 -66 142.5 -148.5t40.5 -248.5v-116q0 -34 8 -76t17 -52t38 -23.5t57 -13.5h88 v-235h-88q-123 0 -200.5 28.5t-114.5 86t-49 118t-12 150.5v125q0 147 -48.5 218.5t-171.5 71.5v230z" />
<glyph unicode="|" horiz-adv-x="1251" d="M494 1391h264v-1831h-264v1831z" />
<glyph unicode="}" horiz-adv-x="788" d="M729 362q-123 0 -171 -71.5t-48 -218.5v-125q0 -90 -12.5 -150.5t-49 -118t-114.5 -86t-201 -28.5h-88v235h88q29 0 57.5 13.5t38 23.5t17.5 52t8 76v116q0 166 40 249t142 148q-102 66 -142 149t-40 248v116q0 34 -8 76t-17.5 52t-38 23.5t-57.5 13.5h-88v236h88 q123 0 201 -29t114.5 -86t49 -117.5t12.5 -150.5v-125q0 -147 48 -219t171 -72v-230z" />
<glyph unicode="~" horiz-adv-x="1193" d="M66 520v258q129 137 301 137q113 0 267 -66.5t220 -66.5q145 0 274 142v-271q-57 -55 -137 -94t-155 -39q-92 0 -252 71t-244 71q-139 -1 -274 -142z" />
<glyph unicode="&#xa1;" d="M518 -422h-311v381l82 524h147l82 -524v-381zM530 969v-336h-335v336h335z" />
<glyph unicode="&#xa2;" horiz-adv-x="1153" d="M854 379l238 -107q-63 -164 -239.5 -245.5t-391.5 -30.5l-150 -447h-133l168 486q-283 135 -283 446q0 262 191.5 402.5t423.5 83.5l164 438h129l-174 -487q51 -29 86 -56v107h182v-400h-211q-63 111 -137 142l-172 -478q55 -18 109.5 -17t108.5 43t91 120zM442 309 l150 424q-96 -6 -153.5 -74.5t-57.5 -177.5q0 -104 61 -172z" />
<glyph unicode="&#xa3;" horiz-adv-x="1173" d="M977 449l143 -29q6 -213 -71.5 -325.5t-214.5 -112.5q-141 0 -263 110q-102 -111 -223 -110q-102 0 -167.5 66.5t-65.5 168.5q0 100 62.5 166t158.5 66q63 0 153 -41q0 70 -38 180h-304v205h201q-98 188 -98 301q0 143 117.5 232t306.5 89q176 0 275.5 -91t113.5 -263 l-240 -31q-6 102 -43 146.5t-112 44.5q-59 0 -99.5 -32t-40.5 -81q0 -41 19.5 -88t55.5 -114.5t54 -112.5h258v-205h-213q16 -154 -20 -275q86 -37 149 -37q132 1 146 173zM451 213q-68 86 -129 86q-33 0 -54.5 -22.5t-21.5 -57.5q0 -39 26.5 -65.5t63.5 -26.5q35 0 68 23.5 t47 62.5z" />
<glyph unicode="&#xa4;" horiz-adv-x="1366" d="M137 1075l170 172l137 -141q113 68 236 68q121 0 242 -68l137 141l170 -172l-137 -139q63 -119 63 -240q0 -127 -63 -233l137 -137l-170 -170l-137 135q-123 -68 -246 -68t-232 68l-137 -135l-170 170l137 137q-66 119 -65 244q0 123 65 229zM682 934q-96 0 -166 -69.5 t-70 -166t70 -166t166 -69.5q98 0 167 68.5t69 166.5q0 96 -69 166t-167 70z" />
<glyph unicode="&#xa5;" horiz-adv-x="1429" d="M760 815l205 340h-123v236h598v-236h-174l-125 -188h282v-140h-376l-146 -219h522v-139h-522v-233h197v-236h-746v236h197v233h-541v139h541l-156 219h-385v140h291l-135 188h-174v236h686v-236h-129z" />
<glyph unicode="&#xa6;" horiz-adv-x="1251" d="M494 340h264v-780h-264v780zM494 1391h264v-781h-264v781z" />
<glyph unicode="&#xa7;" horiz-adv-x="1067" d="M111 -59h264q2 -80 50 -126t126 -46q61 0 101 34.5t40 87.5q0 55 -66.5 100.5t-160.5 84.5t-188.5 85t-161 123.5t-66.5 180.5q0 199 207 303q-162 117 -162 285q0 162 118 259t312 97q203 0 317.5 -101.5t116.5 -273.5h-264q-12 164 -178 164q-63 0 -103 -29.5 t-40 -76.5q0 -63 58 -109.5t137 -73t186.5 -82t179.5 -127.5q84 -84 84 -194q0 -176 -203 -311q156 -96 156 -277q0 -158 -119 -258t-307.5 -100t-308 104.5t-125.5 276.5zM477 369l195 -88q94 74 94 157q0 88 -158 156l-213 94q-92 -61 -92 -145q0 -53 39 -92t135 -82z" />
<glyph unicode="&#xa8;" horiz-adv-x="681" d="M567.5 1393q59.5 0 102.5 -42t43 -101.5t-43 -102.5t-102.5 -43t-101.5 43t-42 102.5t42 101.5t101.5 42zM112.5 1393q59.5 0 102.5 -42t43 -101.5t-43 -102.5t-102.5 -43t-101.5 43t-42 102.5t42 101.5t101.5 42z" />
<glyph unicode="&#xa9;" horiz-adv-x="1515" d="M942 616l162 -55q-39 -125 -125 -191.5t-211 -66.5q-176 0 -281.5 114.5t-105.5 307.5q0 199 104.5 314.5t284.5 115.5q246 0 334 -244l-162 -39q-53 139 -178 140q-98 0 -152.5 -75t-54.5 -208q0 -135 52.5 -210t146.5 -75q137 0 186 172zM758 1343q-256 0 -435.5 -179 t-179.5 -433q0 -256 180.5 -436t434.5 -180t434 180t180 436q0 254 -179 433t-435 179zM757.5 1495q317.5 0 542 -224t224.5 -541.5t-224.5 -542t-542 -224.5t-541.5 224.5t-224 542t224 541.5t541.5 224z" />
<glyph unicode="&#xaa;" horiz-adv-x="811" d="M788 950v-133h-301v45q-86 -53 -172 -53q-98 0 -163.5 51t-65.5 129q0 86 71.5 141.5t184.5 55.5q70 0 145 -31v37q0 43 -33.5 71.5t-86.5 28.5q-68 0 -115 -45l-162 27q74 141 307 141q291 0 291 -219v-246h100zM487 1030q-70 43 -116 43q-39 0 -64.5 -20.5t-25.5 -51.5 q0 -33 23.5 -55t57.5 -22q51 0 125 59v47z" />
<glyph unicode="&#xab;" horiz-adv-x="1110" d="M874 483l226 -483h-295l-232 483l232 486h295zM313 483l226 -483h-295l-232 483l232 486h295z" />
<glyph unicode="&#xac;" horiz-adv-x="1368" d="M119 1065h1128v-748h-260v488h-868v260z" />
<glyph unicode="&#xad;" horiz-adv-x="704" d="M72 348v270h559v-270h-559z" />
<glyph unicode="&#xae;" horiz-adv-x="1515" d="M1120 319h-205q-109 223 -176 291q-29 29 -52 36t-79 7h-30v-334h-166v814h399q131 0 195.5 -66t64.5 -162q0 -94 -59.5 -154.5t-161.5 -72.5v-4q16 -6 28.5 -11.5t26 -15.5t21.5 -18t22 -28l24 -33q9 -13 28 -45l33 -53l40 -69zM578 782h145q174 0 174 113 q0 111 -170 111h-149v-224zM758 1343q-256 0 -435.5 -179t-179.5 -433q0 -256 180.5 -436t434.5 -180t434 180t180 436q0 254 -179 433t-435 179zM757.5 1495q317.5 0 542 -224t224.5 -541.5t-224.5 -542t-542 -224.5t-541.5 224.5t-224 542t224 541.5t541.5 224z" />
<glyph unicode="&#xaf;" horiz-adv-x="681" d="M-123 1110v209h930v-209h-930z" />
<glyph unicode="&#xb0;" horiz-adv-x="811" d="M403.5 1413q143.5 0 245 -100.5t101.5 -243.5t-101.5 -244.5t-245 -101.5t-244 101.5t-100.5 244.5t100.5 243.5t244 100.5zM403 1282q-88 0 -150.5 -61.5t-62.5 -151.5t62.5 -152.5t151 -62.5t151.5 62.5t63 152.5q0 88 -62.5 150.5t-152.5 62.5z" />
<glyph unicode="&#xb1;" horiz-adv-x="1368" d="M119 193h1128v-261h-1128v261zM813 1001h434v-260h-434v-434h-260v434h-434v260h434v435h260v-435z" />
<glyph unicode="&#xb2;" horiz-adv-x="681" d="M604 903v-223h-551v37q0 86 35 154.5t84 110.5t97 78t83 76t35 85q0 31 -18.5 50t-46.5 19q-43 0 -62.5 -34.5t-23.5 -114.5l-183 14q-2 127 72 193.5t207 66.5q121 0 194.5 -56t73.5 -147q0 -72 -51 -126t-113.5 -83.5t-123 -81t-76.5 -114.5h213v96h155z" />
<glyph unicode="&#xb3;" horiz-adv-x="681" d="M45 909l182 13q4 -125 99 -125q41 0 67.5 27.5t26.5 72.5q0 98 -107 98h-47v131q135 0 135 88q0 33 -20.5 53.5t-54.5 20.5q-80 0 -76 -90h-178q2 90 55 143q80 74 213 74q119 0 190.5 -52t71.5 -140q0 -106 -113 -162q143 -45 144 -170q0 -98 -81 -158.5t-214 -60.5 q-268 -1 -293 237z" />
<glyph unicode="&#xb4;" horiz-adv-x="681" d="M137 1094l160 317h369l-369 -317h-160z" />
<glyph unicode="&#xb5;" horiz-adv-x="1259" d="M150 969h278v-412q0 -176 42 -266t157 -90q88 0 146 75.5t58 221.5v471h285v-969h-262v129h-4q-31 -74 -89.5 -113t-121.5 -39q-141 0 -207 154h-4v-565h-278v1403z" />
<glyph unicode="&#xb6;" horiz-adv-x="1130" d="M631 -434h-238v1003q-186 14 -289.5 121t-103.5 283q0 190 114.5 304t323.5 114h692v-261h-112v-1564h-238v1564h-149v-1564z" />
<glyph unicode="&#xb8;" horiz-adv-x="681" d="M147 25h175v-52q82 -14 130 -61t48 -115q0 -133 -119 -177t-361 -32v103q211 0 211 80q0 63 -120 71z" />
<glyph unicode="&#xb9;" horiz-adv-x="681" d="M131 680v127h117v469h-117v127h322v-596h106v-127h-428z" />
<glyph unicode="&#xba;" horiz-adv-x="768" d="M385.5 805q-149.5 0 -241 84t-91.5 221t91.5 221t241 84t239.5 -84t90 -221t-90 -221t-239.5 -84zM383 948q59 0 92 42t33 120q0 76 -33 118t-90 42q-59 0 -92 -43t-33 -119t33 -118t90 -42z" />
<glyph unicode="&#xbb;" horiz-adv-x="1110" d="M797 483l-226 486h295l232 -486l-232 -483h-295zM236 483l-226 486h295l232 -486l-232 -483h-295z" />
<glyph unicode="&#xbc;" horiz-adv-x="1898" d="M1763 117v-117h-358v117h90v78h-297q-29 68 -47 98l356 442h183v-430h73v-110h-73v-78h73zM356 0l1008 1391h178l-1007 -1391h-179zM1495 305v211h-4l-168 -211h172zM190 680v127h117v469h-117v127h322v-596h106v-127h-428z" />
<glyph unicode="&#xbd;" horiz-adv-x="1898" d="M1755 223v-223h-551v37q0 86 35 154.5t84 110.5t97 78t83 76t35 85q0 31 -18.5 50t-46.5 19q-43 0 -62.5 -34.5t-24.5 -114.5l-182 14q-2 127 72 193.5t207 66.5q121 0 194.5 -56t73.5 -147q0 -72 -51 -126t-113.5 -83.5t-123 -81t-77.5 -114.5h213v96h156zM356 0 l1008 1391h178l-1007 -1391h-179zM190 680v127h117v469h-117v127h322v-596h106v-127h-428z" />
<glyph unicode="&#xbe;" horiz-adv-x="1898" d="M1763 117v-117h-358v117h90v78h-297q-29 68 -47 98l356 442h183v-430h73v-110h-73v-78h73zM356 0l1008 1391h178l-1007 -1391h-179zM1495 305v211h-4l-168 -211h172zM117 909l182 13q4 -125 98 -125q41 0 68 27.5t27 72.5q0 98 -107 98h-47v131q135 0 135 88 q0 33 -20.5 53.5t-55.5 20.5q-80 0 -75 -90h-179q2 41 17.5 83t34.5 58q80 76 217 76q119 0 190.5 -52t71.5 -140q0 -106 -113 -162q143 -45 144 -170q0 -98 -81 -158.5t-214 -60.5q-268 -1 -293 237z" />
<glyph unicode="&#xbf;" horiz-adv-x="1153" d="M573 510h144l28 -354l-12 -6q-121 31 -214 -14.5t-93 -160.5q0 -72 47 -128t143 -56q88 0 139.5 54.5t32.5 152.5h310q0 -203 -135.5 -312.5t-366.5 -109.5q-223 0 -355 109.5t-132 298.5q0 174 116.5 281.5t315.5 99.5zM815 655h-336v336h336v-336z" />
<glyph unicode="&#xc0;" horiz-adv-x="1429" d="M1432 236v-236h-676v236h174l-66 237h-360l-76 -237h186v-236h-618v236h174l272 919h-186v236h907v-236h-186l291 -919h164zM807 678l-113 420h-4l-125 -420h242zM920 1516h-160l-369 317h369z" />
<glyph unicode="&#xc1;" horiz-adv-x="1429" d="M1432 236v-236h-676v236h174l-66 237h-360l-76 -237h186v-236h-618v236h174l272 919h-186v236h907v-236h-186l291 -919h164zM807 678l-113 420h-4l-125 -420h242zM512 1516l160 317h368l-368 -317h-160z" />
<glyph unicode="&#xc2;" horiz-adv-x="1429" d="M1432 236v-236h-676v236h174l-66 237h-360l-76 -237h186v-236h-618v236h174l272 919h-186v236h907v-236h-186l291 -919h164zM807 678l-113 420h-4l-125 -420h242zM324 1487l241 368h301l244 -368h-174l-223 219l-209 -219h-180z" />
<glyph unicode="&#xc3;" horiz-adv-x="1429" d="M1432 236v-236h-676v236h174l-66 237h-360l-76 -237h186v-236h-618v236h174l272 919h-186v236h907v-236h-186l291 -919h164zM807 678l-113 420h-4l-125 -420h242zM965 1825h143q4 -139 -64.5 -230.5t-169.5 -91.5q-55 0 -169.5 57.5t-149.5 57.5q-76 0 -80 -109h-149 q0 143 63 230q61 90 168 90q63 0 173 -58.5t147 -58.5q35 0 60.5 32t27.5 81z" />
<glyph unicode="&#xc4;" horiz-adv-x="1429" d="M1432 236v-236h-676v236h174l-66 237h-360l-76 -237h186v-236h-618v236h174l272 919h-186v236h907v-236h-186l291 -919h164zM807 678l-113 420h-4l-125 -420h242zM942 1815q59 0 102 -42t43 -101.5t-43 -102.5t-102 -43t-101 43t-42 102.5t42 101.5t101 42zM487.5 1815 q59.5 0 102.5 -42t43 -101.5t-43 -102.5t-102.5 -43t-101.5 43t-42 102.5t42 101.5t101.5 42z" />
<glyph unicode="&#xc5;" horiz-adv-x="1429" d="M1432 236v-236h-676v236h174l-66 237h-360l-76 -237h186v-236h-618v236h174l272 919h-186v236h907v-236h-186l291 -919h164zM807 678l-113 420h-4l-125 -420h242zM715 1901q88 0 150.5 -61.5t62.5 -149.5t-62.5 -150.5t-150.5 -62.5t-149.5 62.5t-61.5 150.5t61.5 149.5 t149.5 61.5zM715 1798q-47 0 -78 -30.5t-31 -78t32 -79t77 -31.5q47 0 78.5 31.5t31.5 79.5q0 45 -31.5 76.5t-78.5 31.5z" />
<glyph unicode="&#xc6;" horiz-adv-x="2027" d="M-4 0v236h145l398 919h-207v236h1622v-441h-266v205h-416v-317h336v-236h-336v-366h416v210h266v-446h-1202v236h157v366h-334l-163 -366h163v-236h-579zM909 807v371h-90l-157 -371h247z" />
<glyph unicode="&#xc7;" horiz-adv-x="1599" d="M602 -172l35 170q-156 29 -270.5 103.5t-175 176t-88 206t-27.5 212.5q0 317 202.5 517t528.5 200q252 0 418 -131v109h235v-490h-235q-49 127 -107 172q-72 55 -121 73.5t-118 18.5q-186 0 -300 -130t-114 -343q0 -203 108.5 -329.5t282.5 -126.5q145 0 246.5 95 t140.5 267l275 -131q-139 -485 -711 -485l-4 -23q86 -8 137 -57t51 -119q0 -133 -118.5 -177t-360.5 -32v102q211 0 211 80q0 64 -121 72z" />
<glyph unicode="&#xc8;" horiz-adv-x="1366" d="M70 0v236h163v919h-163v236h1222v-441h-264v205h-432v-319h348v-236h-348v-364h432v206h264v-442h-1222zM887 1516h-160l-369 317h369z" />
<glyph unicode="&#xc9;" horiz-adv-x="1366" d="M70 0v236h163v919h-163v236h1222v-441h-264v205h-432v-319h348v-236h-348v-364h432v206h264v-442h-1222zM479 1516l160 317h369l-369 -317h-160z" />
<glyph unicode="&#xca;" horiz-adv-x="1366" d="M70 0v236h163v919h-163v236h1222v-441h-264v205h-432v-319h348v-236h-348v-364h432v206h264v-442h-1222zM291 1487l241 368h302l243 -368h-174l-223 219l-209 -219h-180z" />
<glyph unicode="&#xcb;" horiz-adv-x="1366" d="M70 0v236h163v919h-163v236h1222v-441h-264v205h-432v-319h348v-236h-348v-364h432v206h264v-442h-1222zM909.5 1815q59.5 0 102.5 -42t43 -101.5t-43 -102.5t-102.5 -43t-101.5 43t-42 102.5t42 101.5t101.5 42zM454.5 1815q59.5 0 102.5 -42t43 -101.5t-43 -102.5 t-102.5 -43t-101.5 43t-42 102.5t42 101.5t101.5 42z" />
<glyph unicode="&#xcc;" horiz-adv-x="874" d="M45 0v236h211v919h-211v236h784v-236h-211v-919h211v-236h-784zM641 1516h-160l-368 317h368z" />
<glyph unicode="&#xcd;" horiz-adv-x="874" d="M45 0v236h211v919h-211v236h784v-236h-211v-919h211v-236h-784zM233 1516l160 317h369l-369 -317h-160z" />
<glyph unicode="&#xce;" horiz-adv-x="874" d="M45 0v236h211v919h-211v236h784v-236h-211v-919h211v-236h-784zM45 1487l242 368h301l243 -368h-174l-223 219l-209 -219h-180z" />
<glyph unicode="&#xcf;" horiz-adv-x="874" d="M45 0v236h211v919h-211v236h784v-236h-211v-919h211v-236h-784zM663.5 1815q59.5 0 102.5 -42t43 -101.5t-43 -102.5t-102.5 -43t-101.5 43t-42 102.5t42 101.5t101.5 42zM209 1815q59 0 102 -42t43 -101.5t-43 -102.5t-102 -43t-101 43t-42 102.5t42 101.5t101 42z" />
<glyph unicode="&#xd0;" horiz-adv-x="1642" d="M68 0v236h211v366h-211v186h211v367h-211v236h727q195 0 330 -43t237 -146q199 -199 199 -510q0 -289 -175.5 -490.5t-490.5 -201.5h-827zM641 236h137q203 0 304.5 120.5t101.5 333.5q0 225 -107.5 345t-310.5 120h-125v-367h256v-186h-256v-366z" />
<glyph unicode="&#xd1;" horiz-adv-x="1622" d="M43 0v236h186v919h-186v236h582l510 -869h4v633h-181v236h625v-236h-197v-1155h-311l-594 1022h-4v-786h174v-236h-608zM1061 1825h143q4 -139 -64.5 -230.5t-168.5 -91.5q-55 0 -170 57.5t-150 57.5q-76 0 -80 -109h-149q0 143 63 230q61 90 168 90q63 0 173 -58.5 t147 -58.5q35 0 60.5 32t27.5 81z" />
<glyph unicode="&#xd2;" horiz-adv-x="1748" d="M874 1413q188 0 339 -59.5t244 -160.5t142.5 -228t49.5 -269q0 -137 -48.5 -263t-140.5 -227.5t-243.5 -162.5t-342.5 -61q-188 0 -339.5 60t-243.5 161.5t-140.5 227.5t-48.5 265q0 297 203.5 507t568.5 210zM874 1159q-154 0 -268 -117.5t-114 -351.5 q0 -201 106.5 -327.5t275.5 -126.5q158 0 272 118.5t114 343.5q0 211 -110 336t-276 125zM1079 1516h-159l-369 317h369z" />
<glyph unicode="&#xd3;" horiz-adv-x="1748" d="M874 1413q188 0 339 -59.5t244 -160.5t142.5 -228t49.5 -269q0 -137 -48.5 -263t-140.5 -227.5t-243.5 -162.5t-342.5 -61q-188 0 -339.5 60t-243.5 161.5t-140.5 227.5t-48.5 265q0 297 203.5 507t568.5 210zM874 1159q-154 0 -268 -117.5t-114 -351.5 q0 -201 106.5 -327.5t275.5 -126.5q158 0 272 118.5t114 343.5q0 211 -110 336t-276 125zM672 1516l159 317h369l-369 -317h-159z" />
<glyph unicode="&#xd4;" horiz-adv-x="1748" d="M874 1413q188 0 339 -59.5t244 -160.5t142.5 -228t49.5 -269q0 -137 -48.5 -263t-140.5 -227.5t-243.5 -162.5t-342.5 -61q-188 0 -339.5 60t-243.5 161.5t-140.5 227.5t-48.5 265q0 297 203.5 507t568.5 210zM874 1159q-154 0 -268 -117.5t-114 -351.5 q0 -201 106.5 -327.5t275.5 -126.5q158 0 272 118.5t114 343.5q0 211 -110 336t-276 125zM483 1487l242 368h301l244 -368h-174l-224 219l-208 -219h-181z" />
<glyph unicode="&#xd5;" horiz-adv-x="1748" d="M874 1413q188 0 339 -59.5t244 -160.5t142.5 -228t49.5 -269q0 -137 -48.5 -263t-140.5 -227.5t-243.5 -162.5t-342.5 -61q-188 0 -339.5 60t-243.5 161.5t-140.5 227.5t-48.5 265q0 297 203.5 507t568.5 210zM874 1159q-154 0 -268 -117.5t-114 -351.5 q0 -201 106.5 -327.5t275.5 -126.5q158 0 272 118.5t114 343.5q0 211 -110 336t-276 125zM1124 1825h144q4 -139 -64.5 -230.5t-169.5 -91.5q-55 0 -169.5 57.5t-149.5 57.5q-76 0 -80 -109h-150q0 143 64 230q61 90 168 90q63 0 172.5 -58.5t146.5 -58.5q35 0 60.5 32 t27.5 81z" />
<glyph unicode="&#xd6;" horiz-adv-x="1748" d="M874 1413q188 0 339 -59.5t244 -160.5t142.5 -228t49.5 -269q0 -137 -48.5 -263t-140.5 -227.5t-243.5 -162.5t-342.5 -61q-188 0 -339.5 60t-243.5 161.5t-140.5 227.5t-48.5 265q0 297 203.5 507t568.5 210zM874 1159q-154 0 -268 -117.5t-114 -351.5 q0 -201 106.5 -327.5t275.5 -126.5q158 0 272 118.5t114 343.5q0 211 -110 336t-276 125zM1101.5 1815q59.5 0 102.5 -42t43 -101.5t-43 -102.5t-102.5 -43t-101.5 43t-42 102.5t42 101.5t101.5 42zM647.5 1815q59.5 0 102.5 -42t43 -101.5t-43 -102.5t-102.5 -43t-101.5 43 t-42 102.5t42 101.5t101.5 42z" />
<glyph unicode="&#xd7;" horiz-adv-x="1366" d="M1038 145l-354 355l-354 -355l-183 183l353 352l-357 356l185 185l356 -357l356 357l185 -185l-357 -356l353 -352z" />
<glyph unicode="&#xd8;" horiz-adv-x="1748" d="M1315 1305l117 137l116 -86l-116 -137l6 -5q211 -207 211 -516q0 -137 -48.5 -262t-140.5 -228.5t-243.5 -164.5t-339.5 -61q-256 0 -437 108l-137 -156l-117 66l142 174q-225 207 -226 524q0 129 45.5 252t134.5 228.5t243.5 170t351.5 64.5q260 1 438 -108zM553 430 l561 643q-102 86 -237 86q-172 0 -278.5 -127t-106.5 -332q0 -155 61 -270zM1202 963l-561 -641q104 -86 236 -86q170 0 276.5 126.5t106.5 331.5q-1 158 -58 269z" />
<glyph unicode="&#xd9;" horiz-adv-x="1386" d="M29 1155v236h647v-236h-121v-706q0 -111 41 -170.5t139 -59.5q193 0 193 217v719h-115v236h537v-236h-174v-778q0 -115 -46.5 -197t-122 -122t-151.5 -57t-160 -17q-227 0 -365 103t-138 341v727h-164zM897 1516h-160l-368 317h368z" />
<glyph unicode="&#xda;" horiz-adv-x="1386" d="M29 1155v236h647v-236h-121v-706q0 -111 41 -170.5t139 -59.5q193 0 193 217v719h-115v236h537v-236h-174v-778q0 -115 -46.5 -197t-122 -122t-151.5 -57t-160 -17q-227 0 -365 103t-138 341v727h-164zM489 1516l160 317h369l-369 -317h-160z" />
<glyph unicode="&#xdb;" horiz-adv-x="1386" d="M29 1155v236h647v-236h-121v-706q0 -111 41 -170.5t139 -59.5q193 0 193 217v719h-115v236h537v-236h-174v-778q0 -115 -46.5 -197t-122 -122t-151.5 -57t-160 -17q-227 0 -365 103t-138 341v727h-164zM301 1487l242 368h301l243 -368h-174l-223 219l-209 -219h-180z" />
<glyph unicode="&#xdc;" horiz-adv-x="1386" d="M29 1155v236h647v-236h-121v-706q0 -111 41 -170.5t139 -59.5q193 0 193 217v719h-115v236h537v-236h-174v-778q0 -115 -46.5 -197t-122 -122t-151.5 -57t-160 -17q-227 0 -365 103t-138 341v727h-164zM919.5 1815q59.5 0 102.5 -42t43 -101.5t-43 -102.5t-102.5 -43 t-101.5 43t-42 102.5t42 101.5t101.5 42zM465 1815q59 0 102 -42t43 -101.5t-43 -102.5t-102 -43t-101 43t-42 102.5t42 101.5t101 42z" />
<glyph unicode="&#xdd;" horiz-adv-x="1429" d="M352 0v236h197v374l-383 545h-174v236h684v-236h-127l211 -340l203 340h-121v236h596v-236h-174l-363 -545v-374h197v-236h-746zM512 1516l160 317h368l-368 -317h-160z" />
<glyph unicode="&#xde;" horiz-adv-x="1366" d="M793 236v-236h-730v236h175v919h-175v236h730v-236h-193v-78h201q252 0 389 -96t137 -285q0 -178 -132 -280.5t-384 -102.5h-211v-77h193zM600 520h135q203 0 203 174q0 88 -56.5 132t-146.5 44h-135v-350z" />
<glyph unicode="&#xdf;" horiz-adv-x="1323" d="M592 223v-223h-547v223h164v752q0 197 106 303q137 137 367 137q219 0 347 -90t128 -246q0 -199 -213 -286q279 -92 279 -385q0 -195 -101.5 -308.5t-277.5 -113.5q-76 0 -152 30v207q29 -12 60 -12q154 0 153 203q0 139 -54 192t-159 60v225q72 4 114 45t42 106 q0 70 -46 115t-116 45q-88 0 -126 -57.5t-38 -179.5v-742h70z" />
<glyph unicode="&#xe0;" horiz-adv-x="1193" d="M1167 223v-223h-469v76q-127 -90 -262 -90q-152 0 -253 86t-101 217q0 141 111.5 233t285.5 92q94 0 219 -43v54q0 76 -51 123t-133 47q-98 0 -176 -76l-250 43q113 229 469 229q238 0 346.5 -88t108.5 -282v-398h155zM698 358q-106 70 -178 70q-61 0 -101 -34t-40 -87 q0 -55 37 -92t90 -37q82 0 192 101v79zM801 1094h-160l-369 317h369z" />
<glyph unicode="&#xe1;" horiz-adv-x="1193" d="M1167 223v-223h-469v76q-127 -90 -262 -90q-152 0 -253 86t-101 217q0 141 111.5 233t285.5 92q94 0 219 -43v54q0 76 -51 123t-133 47q-98 0 -176 -76l-250 43q113 229 469 229q238 0 346.5 -88t108.5 -282v-398h155zM698 358q-106 70 -178 70q-61 0 -101 -34t-40 -87 q0 -55 37 -92t90 -37q82 0 192 101v79zM393 1094l160 317h369l-369 -317h-160z" />
<glyph unicode="&#xe2;" horiz-adv-x="1193" d="M1167 223v-223h-469v76q-127 -90 -262 -90q-152 0 -253 86t-101 217q0 141 111.5 233t285.5 92q94 0 219 -43v54q0 76 -51 123t-133 47q-98 0 -176 -76l-250 43q113 229 469 229q238 0 346.5 -88t108.5 -282v-398h155zM698 358q-106 70 -178 70q-61 0 -101 -34t-40 -87 q0 -55 37 -92t90 -37q82 0 192 101v79zM205 1065l241 369h302l243 -369h-174l-223 219l-209 -219h-180z" />
<glyph unicode="&#xe3;" horiz-adv-x="1193" d="M1167 223v-223h-469v76q-127 -90 -262 -90q-152 0 -253 86t-101 217q0 141 111.5 233t285.5 92q94 0 219 -43v54q0 76 -51 123t-133 47q-98 0 -176 -76l-250 43q113 229 469 229q238 0 346.5 -88t108.5 -282v-398h155zM698 358q-106 70 -178 70q-61 0 -101 -34t-40 -87 q0 -55 37 -92t90 -37q82 0 192 101v79zM846 1403h143q4 -139 -64.5 -230.5t-168.5 -91.5q-55 0 -170 57.5t-150 57.5q-76 0 -80 -109h-149q0 143 63 230q61 90 168 90q63 0 173 -58.5t147 -58.5q35 0 60.5 32t27.5 81z" />
<glyph unicode="&#xe4;" horiz-adv-x="1193" d="M1167 223v-223h-469v76q-127 -90 -262 -90q-152 0 -253 86t-101 217q0 141 111.5 233t285.5 92q94 0 219 -43v54q0 76 -51 123t-133 47q-98 0 -176 -76l-250 43q113 229 469 229q238 0 346.5 -88t108.5 -282v-398h155zM698 358q-106 70 -178 70q-61 0 -101 -34t-40 -87 q0 -55 37 -92t90 -37q82 0 192 101v79zM823.5 1393q59.5 0 102.5 -42t43 -101.5t-43 -102.5t-102.5 -43t-101.5 43t-42 102.5t42 101.5t101.5 42zM368.5 1393q59.5 0 102.5 -42t43 -101.5t-43 -102.5t-102.5 -43t-101.5 43t-42 102.5t42 101.5t101.5 42z" />
<glyph unicode="&#xe5;" horiz-adv-x="1193" d="M1167 223v-223h-469v76q-127 -90 -262 -90q-152 0 -253 86t-101 217q0 141 111.5 233t285.5 92q94 0 219 -43v54q0 76 -51 123t-133 47q-98 0 -176 -76l-250 43q113 229 469 229q238 0 346.5 -88t108.5 -282v-398h155zM698 358q-106 70 -178 70q-61 0 -101 -34t-40 -87 q0 -55 37 -92t90 -37q82 0 192 101v79zM596 1479q88 0 150.5 -61.5t62.5 -149.5t-62.5 -150.5t-150.5 -62.5t-149.5 62.5t-61.5 150.5t61.5 149.5t149.5 61.5zM596 1376q-47 0 -78 -30.5t-31 -77.5t32 -79t77 -32q47 0 79 32t32 79q0 45 -32 76.5t-79 31.5z" />
<glyph unicode="&#xe6;" horiz-adv-x="1812" d="M1491 297l240 -74q-70 -117 -194 -181.5t-282 -64.5q-285 0 -436 203q-104 -109 -190 -156t-180 -47q-143 0 -235.5 88.5t-92.5 223.5q0 145 102.5 235t268.5 90q115 0 233 -47v31q0 96 -54.5 144.5t-131.5 48.5q-84 0 -174 -72l-246 45q121 227 471 227q211 0 346 -94 q123 94 297 94q246 0 381 -152.5t133 -414.5h-709q8 -109 69.5 -173.5t158.5 -64.5q114 0 225 111zM1036 594h398q-16 88 -70.5 138t-136.5 50q-78 0 -130.5 -50t-60.5 -138zM725 358q-104 74 -176 74q-57 0 -95 -39t-38 -96q0 -51 28.5 -84t73.5 -33q88 0 207 107v71z" />
<glyph unicode="&#xe7;" horiz-adv-x="1153" d="M397 -168l49 168q-178 41 -279 170t-101 315q0 215 139 356.5t350 141.5q150 0 293 -94v80h213v-394h-213q-74 162 -238 162q-104 0 -165.5 -67.5t-61.5 -182.5q0 -127 58.5 -198.5t160.5 -71.5q74 0 139.5 43t106.5 117l239 -107q-72 -154 -188.5 -223.5t-298.5 -69.5 l-4 -14q88 -10 139 -58t51 -118q0 -133 -118.5 -177t-360.5 -32v103q211 0 211 79q0 64 -121 72z" />
<glyph unicode="&#xe8;" horiz-adv-x="1173" d="M852 291l246 -76q-154 -238 -475 -238q-252 0 -399.5 132.5t-147.5 357.5q0 227 147.5 375.5t374.5 148.5q225 0 371.5 -158.5t128.5 -412.5h-709q2 -98 59.5 -170t178.5 -72q61 0 109 23.5t116 89.5zM389 592h404q-12 92 -66.5 144t-138.5 52q-172 1 -199 -196z M791 1094h-160l-369 317h369z" />
<glyph unicode="&#xe9;" horiz-adv-x="1173" d="M852 291l246 -76q-154 -238 -475 -238q-252 0 -399.5 132.5t-147.5 357.5q0 227 147.5 375.5t374.5 148.5q225 0 371.5 -158.5t128.5 -412.5h-709q2 -98 59.5 -170t178.5 -72q61 0 109 23.5t116 89.5zM389 592h404q-12 92 -66.5 144t-138.5 52q-172 1 -199 -196z M383 1094l160 317h368l-368 -317h-160z" />
<glyph unicode="&#xea;" horiz-adv-x="1173" d="M852 291l246 -76q-154 -238 -475 -238q-252 0 -399.5 132.5t-147.5 357.5q0 227 147.5 375.5t374.5 148.5q225 0 371.5 -158.5t128.5 -412.5h-709q2 -98 59.5 -170t178.5 -72q61 0 109 23.5t116 89.5zM389 592h404q-12 92 -66.5 144t-138.5 52q-172 1 -199 -196z M195 1065l241 369h301l244 -369h-174l-223 219l-209 -219h-180z" />
<glyph unicode="&#xeb;" horiz-adv-x="1173" d="M852 291l246 -76q-154 -238 -475 -238q-252 0 -399.5 132.5t-147.5 357.5q0 227 147.5 375.5t374.5 148.5q225 0 371.5 -158.5t128.5 -412.5h-709q2 -98 59.5 -170t178.5 -72q61 0 109 23.5t116 89.5zM389 592h404q-12 92 -66.5 144t-138.5 52q-172 1 -199 -196z M813 1393q59 0 102 -42t43 -101.5t-43 -102.5t-102 -43t-101 43t-42 102.5t42 101.5t101 42zM358.5 1393q59.5 0 102.5 -42t43 -101.5t-43 -102.5t-102.5 -43t-101.5 43t-42 102.5t42 101.5t101.5 42z" />
<glyph unicode="&#xec;" d="M88 745v224h455v-746h141v-223h-596v223h141v522h-141zM567 1094h-159l-369 317h369z" />
<glyph unicode="&#xed;" d="M88 745v224h455v-746h141v-223h-596v223h141v522h-141zM160 1094l159 317h369l-369 -317h-159z" />
<glyph unicode="&#xee;" d="M88 745v224h455v-746h141v-223h-596v223h141v522h-141zM-29 1065l242 369h301l244 -369h-174l-224 219l-208 -219h-181z" />
<glyph unicode="&#xef;" d="M88 745v224h455v-746h141v-223h-596v223h141v522h-141zM589.5 1393q59.5 0 102.5 -42t43 -101.5t-43 -102.5t-102.5 -43t-101.5 43t-42 102.5t42 101.5t101.5 42zM135.5 1393q59.5 0 102.5 -42t43 -101.5t-43 -102.5t-102.5 -43t-101.5 43t-42 102.5t42 101.5t101.5 42z " />
<glyph unicode="&#xf0;" horiz-adv-x="1173" d="M399 504q0 -283 191 -283q94 0 148.5 75t54.5 202q0 121 -52.5 189.5t-142.5 68.5q-88 0 -143.5 -69.5t-55.5 -182.5zM1051 1311l-256 -99q150 -141 232.5 -317t82.5 -330q0 -266 -143.5 -424.5t-384.5 -158.5q-221 0 -360.5 141t-139.5 366q0 227 144.5 366.5 t316.5 139.5q117 0 207 -71l4 4q-45 88 -183 196l-258 -100l-133 100l256 101q-92 68 -162 100l222 88q92 -39 172 -96l245 96z" />
<glyph unicode="&#xf1;" horiz-adv-x="1280" d="M74 745v224h463v-90q141 104 278 104q119 0 207 -77t88 -253v-430h141v-223h-454v614q0 109 -90 109q-82 0 -170 -64v-436h129v-223h-592v223h149v522h-149zM889 1403h143q4 -139 -64.5 -230.5t-168.5 -91.5q-55 0 -170 57.5t-150 57.5q-76 0 -80 -109h-149q0 143 63 230 q61 90 168 90q63 0 173 -58.5t147 -58.5q35 0 60.5 32t27.5 81z" />
<glyph unicode="&#xf2;" horiz-adv-x="1173" d="M1096 485q0 -227 -141.5 -367.5t-368.5 -140.5q-221 0 -364.5 136.5t-143.5 371.5q0 242 148.5 374t359.5 132q221 0 365.5 -135t144.5 -371zM778 485q0 127 -50 197t-142 70t-141.5 -71t-49.5 -202q0 -123 50.5 -192.5t140.5 -69.5q92 0 142 70.5t50 197.5zM791 1094 h-160l-369 317h369z" />
<glyph unicode="&#xf3;" horiz-adv-x="1173" d="M1096 485q0 -227 -141.5 -367.5t-368.5 -140.5q-221 0 -364.5 136.5t-143.5 371.5q0 242 148.5 374t359.5 132q221 0 365.5 -135t144.5 -371zM778 485q0 127 -50 197t-142 70t-141.5 -71t-49.5 -202q0 -123 50.5 -192.5t140.5 -69.5q92 0 142 70.5t50 197.5zM383 1094 l160 317h368l-368 -317h-160z" />
<glyph unicode="&#xf4;" horiz-adv-x="1173" d="M1096 485q0 -227 -141.5 -367.5t-368.5 -140.5q-221 0 -364.5 136.5t-143.5 371.5q0 242 148.5 374t359.5 132q221 0 365.5 -135t144.5 -371zM778 485q0 127 -50 197t-142 70t-141.5 -71t-49.5 -202q0 -123 50.5 -192.5t140.5 -69.5q92 0 142 70.5t50 197.5zM195 1065 l241 369h301l244 -369h-174l-223 219l-209 -219h-180z" />
<glyph unicode="&#xf5;" horiz-adv-x="1173" d="M1096 485q0 -227 -141.5 -367.5t-368.5 -140.5q-221 0 -364.5 136.5t-143.5 371.5q0 242 148.5 374t359.5 132q221 0 365.5 -135t144.5 -371zM778 485q0 127 -50 197t-142 70t-141.5 -71t-49.5 -202q0 -123 50.5 -192.5t140.5 -69.5q92 0 142 70.5t50 197.5zM836 1403 h143q4 -139 -64.5 -230.5t-169.5 -91.5q-55 0 -169.5 57.5t-149.5 57.5q-76 0 -80 -109h-149q0 143 63 230q61 90 168 90q63 0 173 -58.5t147 -58.5q35 0 60.5 32t27.5 81z" />
<glyph unicode="&#xf6;" horiz-adv-x="1173" d="M1096 485q0 -227 -141.5 -367.5t-368.5 -140.5q-221 0 -364.5 136.5t-143.5 371.5q0 242 148.5 374t359.5 132q221 0 365.5 -135t144.5 -371zM778 485q0 127 -50 197t-142 70t-141.5 -71t-49.5 -202q0 -123 50.5 -192.5t140.5 -69.5q92 0 142 70.5t50 197.5zM813 1393 q59 0 102 -42t43 -101.5t-43 -102.5t-102 -43t-101 43t-42 102.5t42 101.5t101 42zM358.5 1393q59.5 0 102.5 -42t43 -101.5t-43 -102.5t-102.5 -43t-101.5 43t-42 102.5t42 101.5t101.5 42z" />
<glyph unicode="&#xf7;" horiz-adv-x="1368" d="M681.5 416q63.5 0 109 -44t45.5 -107.5t-45.5 -108.5t-109 -45t-107.5 45t-44 108.5t44 107.5t107.5 44zM681.5 1272q63.5 0 109 -44t45.5 -107.5t-45.5 -108.5t-109 -45t-107.5 45t-44 108.5t44 107.5t107.5 44zM119 821h1128v-260h-1128v260z" />
<glyph unicode="&#xf8;" horiz-adv-x="1173" d="M86 0l119 131q-127 137 -127 352q0 231 148.5 369.5t359.5 138.5q160 0 286 -78l123 144l95 -84l-119 -137q125 -135 125 -353q0 -227 -145.5 -366.5t-360.5 -139.5q-170 0 -287 78l-121 -143zM414 375l284 336q-47 41 -110 41q-88 0 -140.5 -70t-52.5 -186 q1 -62 19 -121zM762 592l-285 -334q47 -41 113 -41q88 0 138 69.5t50 190.5q0 56 -16 115z" />
<glyph unicode="&#xf9;" horiz-adv-x="1280" d="M1206 223v-223h-463v82q-139 -96 -276 -96t-217 80.5t-80 220.5v458h-141v224h454v-604q0 -72 20.5 -98.5t74.5 -26.5q72 0 165 69v436h-129v224h443v-746h149zM844 1094h-160l-369 317h369z" />
<glyph unicode="&#xfa;" horiz-adv-x="1280" d="M1206 223v-223h-463v82q-139 -96 -276 -96t-217 80.5t-80 220.5v458h-141v224h454v-604q0 -72 20.5 -98.5t74.5 -26.5q72 0 165 69v436h-129v224h443v-746h149zM436 1094l160 317h369l-369 -317h-160z" />
<glyph unicode="&#xfb;" horiz-adv-x="1280" d="M1206 223v-223h-463v82q-139 -96 -276 -96t-217 80.5t-80 220.5v458h-141v224h454v-604q0 -72 20.5 -98.5t74.5 -26.5q72 0 165 69v436h-129v224h443v-746h149zM248 1065l241 369h302l243 -369h-174l-223 219l-209 -219h-180z" />
<glyph unicode="&#xfc;" horiz-adv-x="1280" d="M1206 223v-223h-463v82q-139 -96 -276 -96t-217 80.5t-80 220.5v458h-141v224h454v-604q0 -72 20.5 -98.5t74.5 -26.5q72 0 165 69v436h-129v224h443v-746h149zM866.5 1393q59.5 0 102.5 -42t43 -101.5t-43 -102.5t-102.5 -43t-101.5 43t-42 102.5t42 101.5t101.5 42z M411.5 1393q59.5 0 102.5 -42t43 -101.5t-43 -102.5t-102.5 -43t-101.5 43t-42 102.5t42 101.5t101.5 42z" />
<glyph unicode="&#xfd;" horiz-adv-x="1216" d="M252 -434v223h184l64 172l-350 784h-142v224h561v-224h-94l162 -434l172 434h-104v224h491v-224h-141l-465 -1179h-338zM406 1094l159 317h369l-369 -317h-159z" />
<glyph unicode="&#xfe;" horiz-adv-x="1280" d="M702 -211v-223h-667v223h164v1378h-164v224h477v-545q82 80 140.5 108.5t135.5 28.5q180 0 298 -144.5t118 -365.5q0 -219 -116.5 -357.5t-303.5 -138.5q-80 0 -140 28t-132 93v-309h190zM887 479q0 117 -51.5 183.5t-139.5 66.5t-137 -66.5t-49 -187.5q0 -119 51 -188.5 t139 -69.5t137.5 69.5t49.5 192.5z" />
<glyph unicode="&#xff;" horiz-adv-x="1216" d="M252 -434v223h184l64 172l-350 784h-142v224h561v-224h-94l162 -434l172 434h-104v224h491v-224h-141l-465 -1179h-338zM835.5 1393q59.5 0 102.5 -42t43 -101.5t-43 -102.5t-102.5 -43t-101.5 43t-42 102.5t42 101.5t101.5 42zM381 1393q59 0 102 -42t43 -101.5 t-43 -102.5t-102 -43t-101 43t-42 102.5t42 101.5t101 42z" />
<glyph unicode="&#x152;" horiz-adv-x="2068" d="M1995 444v-444h-1170q-188 0 -331.5 56.5t-227.5 153.5t-126 218t-42 260q0 336 193 529q94 94 228 134t366 40h1110v-443h-264v207h-402v-321h322v-236h-322v-362h402v208h264zM967 1155h-123q-109 0 -184.5 -41t-113.5 -111.5t-54.5 -144.5t-16.5 -162 q0 -209 100.5 -333.5t305.5 -124.5h86v917z" />
<glyph unicode="&#x153;" horiz-adv-x="2068" d="M1729 297l245 -74q-53 -115 -189 -180.5t-317 -65.5q-289 0 -440 140q-180 -139 -424 -140q-262 0 -409.5 147.5t-147.5 356.5q0 68 18.5 136.5t61.5 136t105.5 120t161 85t216.5 32.5q238 0 418 -143q143 143 395 143q264 0 421 -177t130 -392h-792q10 -109 87 -172.5 t195 -63.5q167 0 265 111zM1192 594h477q-20 88 -85.5 140t-160.5 52q-90 0 -155.5 -54t-75.5 -138zM862 494q0 125 -69.5 207.5t-176.5 82.5q-109 0 -180 -85t-71 -210q0 -131 71.5 -219t180 -88t177 87.5t68.5 224.5z" />
<glyph unicode="&#x178;" horiz-adv-x="1429" d="M352 0v236h197v374l-383 545h-174v236h684v-236h-127l211 -340l203 340h-121v236h596v-236h-174l-363 -545v-374h197v-236h-746zM942 1815q59 0 102 -42t43 -101.5t-43 -102.5t-102 -43t-101 43t-42 102.5t42 101.5t101 42zM487.5 1815q59.5 0 102.5 -42t43 -101.5 t-43 -102.5t-102.5 -43t-101.5 43t-42 102.5t42 101.5t101.5 42z" />
<glyph unicode="&#x2c6;" horiz-adv-x="681" d="M-51 1065l241 369h302l243 -369h-174l-223 219l-209 -219h-180z" />
<glyph unicode="&#x2dc;" horiz-adv-x="681" d="M590 1403h143q4 -139 -64.5 -230.5t-168.5 -91.5q-55 0 -170 57.5t-150 57.5q-76 0 -80 -109h-149q0 143 63 230q61 90 168 90q63 0 173 -58.5t147 -58.5q35 0 60.5 32t27.5 81z" />
<glyph unicode="&#x3bc;" horiz-adv-x="1259" d="M150 969h278v-412q0 -176 42 -266t157 -90q88 0 146 75.5t58 221.5v471h285v-969h-262v129h-4q-31 -74 -89.5 -113t-121.5 -39q-141 0 -207 154h-4v-565h-278v1403z" />
<glyph unicode="&#x2000;" horiz-adv-x="950" />
<glyph unicode="&#x2001;" horiz-adv-x="1900" />
<glyph unicode="&#x2002;" horiz-adv-x="950" />
<glyph unicode="&#x2003;" horiz-adv-x="1900" />
<glyph unicode="&#x2004;" horiz-adv-x="632" />
<glyph unicode="&#x2005;" horiz-adv-x="475" />
<glyph unicode="&#x2006;" horiz-adv-x="315" />
<glyph unicode="&#x2007;" horiz-adv-x="315" />
<glyph unicode="&#x2008;" horiz-adv-x="237" />
<glyph unicode="&#x2009;" horiz-adv-x="378" />
<glyph unicode="&#x200a;" horiz-adv-x="104" />
<glyph unicode="&#x2010;" horiz-adv-x="704" d="M72 348v270h559v-270h-559z" />
<glyph unicode="&#x2011;" horiz-adv-x="704" d="M72 348v270h559v-270h-559z" />
<glyph unicode="&#x2012;" horiz-adv-x="704" d="M72 348v270h559v-270h-559z" />
<glyph unicode="&#x2013;" horiz-adv-x="1024" d="M-12 637h1048v-250h-1048v250z" />
<glyph unicode="&#x2014;" horiz-adv-x="2048" d="M-12 637h2072v-250h-2072v250z" />
<glyph unicode="&#x2018;" d="M530 688h-335v336q0 190 77.5 278.5t255.5 88.5v-152q-88 -10 -127 -60.5t-39 -154.5h168v-336z" />
<glyph unicode="&#x2019;" d="M195 1391h335v-336q0 -190 -77.5 -278.5t-255.5 -88.5v152q88 10 126.5 60t38.5 155h-167v336z" />
<glyph unicode="&#x201a;" d="M195 336h335v-336q0 -190 -77.5 -278.5t-255.5 -88.5v152q88 10 126.5 60.5t38.5 154.5h-167v336z" />
<glyph unicode="&#x201c;" horiz-adv-x="1216" d="M1032 688h-336v336q0 190 78 278.5t256 88.5v-152q-88 -10 -127 -60.5t-39 -154.5h168v-336zM522 688h-336v336q0 190 78 278.5t256 88.5v-152q-88 -10 -127 -59.5t-39 -155.5h168v-336z" />
<glyph unicode="&#x201d;" horiz-adv-x="1216" d="M694 1391h336v-336q0 -190 -78 -278.5t-256 -88.5v152q88 10 127 60t39 155h-168v336zM184 1391h336v-336q0 -190 -77.5 -278.5t-256.5 -88.5v152q88 10 127 60t39 155h-168v336z" />
<glyph unicode="&#x201e;" horiz-adv-x="1216" d="M694 336h336v-336q0 -190 -78 -278.5t-256 -88.5v152q88 10 127 60.5t39 154.5h-168v336zM184 336h336v-336q0 -190 -77.5 -278.5t-256.5 -88.5v152q88 10 127 60.5t39 154.5h-168v336z" />
<glyph unicode="&#x2022;" d="M362.5 983q118.5 0 202.5 -83t84 -201.5t-84 -202.5t-202.5 -84t-201.5 84t-83 202.5t83 201.5t201.5 83z" />
<glyph unicode="&#x2026;" horiz-adv-x="2048" d="M856 336h336v-336h-336v336zM1538 336h336v-336h-336v336zM174 336h336v-336h-336v336z" />
<glyph unicode="&#x202f;" horiz-adv-x="378" />
<glyph unicode="&#x2039;" horiz-adv-x="555" d="M311 483l226 -483h-295l-232 483l232 486h295z" />
<glyph unicode="&#x203a;" horiz-adv-x="555" d="M244 483l-226 486h295l232 -486l-232 -483h-295z" />
<glyph unicode="&#x205f;" horiz-adv-x="475" />
<glyph unicode="&#x2122;" horiz-adv-x="2048" d="M401 573v676h-254v142h666v-142h-246v-676h-166zM909 573v818h260l148 -564h4l147 564h261v-818h-158v652h-4l-174 -652h-152l-170 652h-4v-652h-158z" />
<glyph unicode="&#xe000;" horiz-adv-x="970" d="M0 970h970v-970h-970v970z" />
<glyph unicode="&#xfb01;" horiz-adv-x="1280" d="M526 745v-522h95v-223h-558v223h150v522h-150v224h150v82q0 160 125 262t334 102q78 0 137 -9t120.5 -33.5t105.5 -76t67 -129.5l-305 -32q-29 78 -135 77q-63 0 -99.5 -30.5t-36.5 -108.5v-104h572v-746h149v-223h-555v223h92v522h-258z" />
<glyph unicode="&#xfb02;" horiz-adv-x="1280" d="M856 1391h242v-1168h149v-223h-555v223h92v903q-6 43 -42.5 64.5t-77.5 21.5q-66 0 -102 -30.5t-36 -108.5v-104h140v-224h-140v-522h95v-223h-558v223h150v522h-150v224h150v82q0 150 118 257t351 107q106 1 174 -24z" />
<glyph unicode="&#xfb03;" horiz-adv-x="2174" d="M1538 745v224h455v-746h141v-223h-596v223h141v522h-141zM1839 1413q72 0 121 -49t49 -118.5t-50 -120t-120 -50.5t-119 49.5t-49 120.5q0 70 49 119t119 49zM1389 223v-223h-596v223h133v522h-133v224h133v82q0 152 92 258t285 106q221 0 321 -135l-235 -176 q-18 61 -33 82.5t-45 21.5q-72 0 -72 -135v-104h150v-224h-150v-522h150zM664 223v-223h-596v223h133v522h-133v224h133v82q0 152 92 258t285 106q221 0 321 -135l-235 -176q-18 61 -33 82.5t-45 21.5q-72 0 -72 -135v-104h150v-224h-150v-522h150z" />
<glyph unicode="&#xfb04;" horiz-adv-x="2174" d="M1524 0v223h149v944h-149v224h463v-1168h139v-223h-602zM1389 223v-223h-596v223h133v522h-133v224h133v82q0 152 92 258t285 106q221 0 321 -135l-235 -176q-18 61 -33 82.5t-45 21.5q-72 0 -72 -135v-104h150v-224h-150v-522h150zM664 223v-223h-596v223h133v522h-133 v224h133v82q0 152 92 258t285 106q221 0 321 -135l-235 -176q-18 61 -33 82.5t-45 21.5q-72 0 -72 -135v-104h150v-224h-150v-522h150z" />
</font>
</defs>
</svg>
