<?xml version="1.0" standalone="no"?><!DOCTYPE svg PUBLIC "-//W3C//DTD SVG 1.1//EN" "http://www.w3.org/Graphics/SVG/1.1/DTD/svg11.dtd" ><svg version="1.1" xmlns="http://www.w3.org/2000/svg"><defs><font horiz-adv-x="0" id="font"><font-face ascent="865" bbox="-27 -148 680 896" cap-height="728" descent="-135" font-family="FC Kaiser Cond Web" font-stretch="normal" font-style="normal" font-weight="400" units-per-em="1000" x-height="569" /><missing-glyph horiz-adv-x="90" /><glyph d="M3 0 107 728H225L328 0H242L226 121H101L86 0ZM111 194H217L164 613Z" glyph-name="A" horiz-adv-x="331" unicode="A" /><glyph d="M1 0 164 728H431V655H306V450H426V377H306V73H431V0H222V120H110L84 0ZM222 194V638L126 194Z" glyph-name="AE" horiz-adv-x="452" unicode="&#198;" /><glyph d="M3 0 107 728H225L328 0H242L226 121H101L86 0ZM111 194H217L164 613ZM93 823 241 861V788L93 757Z" glyph-name="Aacute" horiz-adv-x="331" unicode="&#193;" /><glyph d="M3 0 107 728H225L328 0H242L226 121H101L86 0ZM111 194H217L164 613ZM250 815V755L167 791L84 755V815L145 854H189Z" glyph-name="Acircumflex" horiz-adv-x="331" unicode="&#194;" /><glyph d="M3 0 107 728H225L328 0H242L226 121H101L86 0ZM111 194H217L164 613ZM66 850H147V766H66ZM186 850H267V766H186Z" glyph-name="Adieresis" horiz-adv-x="331" unicode="&#196;" /><glyph d="M3 0 107 728H225L328 0H242L226 121H101L86 0ZM111 194H217L164 613ZM239 757 92 788V860L239 822Z" glyph-name="Agrave" horiz-adv-x="331" unicode="&#192;" /><glyph d="M3 0 107 728H225L328 0H242L226 121H101L86 0ZM111 194H217L164 613ZM247 822Q247 789 224.5 768Q202 747 167 747Q132 747 110 768Q88 789 88 822Q88 855 110 875.5Q132 896 167 896Q202 896 224.5 875.5Q247 855 247 822ZM194 822Q194 833 186.5 840.5Q179 848 167 848Q155 848 147.5 840.5Q140 833 140 822Q140 811 147.5 803.5Q155 796 167 796Q179 796 186.5 803.5Q194 811 194 822Z" glyph-name="Aring" horiz-adv-x="331" unicode="&#197;" /><glyph d="M3 0 107 728H225L328 0H242L226 121H101L86 0ZM111 194H217L164 613ZM67 762Q68 847 127 847Q139 847 148 843.5Q157 840 164.5 836Q172 832 179 828.5Q186 825 194 825Q211 825 211 849H266Q264 764 207 764Q194 764 184.5 767.5Q175 771 167.5 775Q160 779 153.5 782.5Q147 786 139 786Q123 786 123 762Z" glyph-name="Atilde" horiz-adv-x="331" unicode="&#195;" /><glyph d="M182 728Q219 728 244.5 717Q270 706 286.5 685.5Q303 665 310.5 636.5Q318 608 318 573V516Q318 414 247 391Q325 369 325 261V163Q325 90 293 45Q261 0 188 0H28V728ZM178 73Q209 73 224.5 96.5Q240 120 240 160V268Q240 308 224.5 330Q209 352 177 352H113V73ZM173 424Q204 424 218.5 446.5Q233 469 233 506V572Q233 655 172 655H113V424Z" glyph-name="B" horiz-adv-x="346" unicode="B" /><glyph d="M327 143Q327 71 287.5 31.5Q248 -8 181 -8H173Q104 -8 65.5 31.5Q27 71 27 143V586Q27 658 65.5 697Q104 736 173 736H181Q248 736 287.5 696.5Q327 657 327 585V495H244V583Q244 625 225 643.5Q206 662 180 662H176Q149 662 130 643.5Q111 625 111 583V145Q111 103 130 84.5Q149 66 176 66H181Q207 66 226.5 84.5Q246 103 246 145V260H327Z" glyph-name="C" horiz-adv-x="353" unicode="C" /><glyph d="M121 -101H165Q175 -101 182 -98Q189 -95 189 -85V-84Q189 -74 182 -71Q175 -68 165 -68H130V-3Q81 8 54 45.5Q27 83 27 143V586Q27 658 65.5 697Q104 736 173 736H181Q248 736 287.5 696.5Q327 657 327 585V495H244V583Q244 625 225 643.5Q206 662 180 662H176Q149 662 130 643.5Q111 625 111 583V145Q111 103 130 84.5Q149 66 176 66H181Q207 66 226.5 84.5Q246 103 246 145V260H327V143Q327 71 287.5 31.5Q248 -8 181 -8H179V-27Q210 -27 231 -39.5Q252 -52 252 -85V-87Q252 -122 228.5 -135Q205 -148 176 -148H121Z" glyph-name="Ccedilla" horiz-adv-x="353" unicode="&#199;" /><glyph d="M188 728Q262 728 294 683.5Q326 639 326 565V162Q326 89 294 44.5Q262 0 188 0H28V728ZM181 73Q210 73 226 95.5Q242 118 242 158V570Q242 610 226 632.5Q210 655 181 655H113V73Z" glyph-name="D" horiz-adv-x="351" unicode="D" /><glyph d="M28 0V728H256V655H113V450H251V377H113V73H256V0Z" glyph-name="E" horiz-adv-x="277" unicode="E" /><glyph d="M72 823 220 861V788L72 757ZM28 0V728H256V655H113V450H251V377H113V73H256V0Z" glyph-name="Eacute" horiz-adv-x="277" unicode="&#201;" /><glyph d="M224 815V755L141 791L58 755V815L119 854H163ZM28 0V728H256V655H113V450H251V377H113V73H256V0Z" glyph-name="Ecircumflex" horiz-adv-x="277" unicode="&#202;" /><glyph d="M28 0V728H256V655H113V450H251V377H113V73H256V0ZM40 850H121V766H40ZM160 850H241V766H160Z" glyph-name="Edieresis" horiz-adv-x="277" unicode="&#203;" /><glyph d="M213 757 66 788V860L213 822ZM28 0V728H256V655H113V450H251V377H113V73H256V0Z" glyph-name="Egrave" horiz-adv-x="277" unicode="&#200;" /><glyph d="M8 408H41V728H201Q275 728 307 683.5Q339 639 339 565V162Q339 89 307 44.5Q275 0 201 0H41V342H8ZM194 73Q223 73 239 95.5Q255 118 255 158V570Q255 610 239 632.5Q223 655 194 655H126V408H196V342H126V73Z" glyph-name="Eth" horiz-adv-x="364" unicode="&#208;" /><glyph d="M239 288H131V145Q131 103 150 84.5Q169 66 196 66H201Q227 66 246.5 84.5Q266 103 266 145V260H347V143Q347 71 307.5 31.5Q268 -8 201 -8H193Q124 -8 85.5 31.5Q47 71 47 143V288H3V353H47V398H3V463H47V586Q47 658 86 697Q125 736 193 736H201Q268 736 307.5 696.5Q347 657 347 585V495L264 494V583Q264 625 245 643.5Q226 662 200 662H196Q169 662 150 643.5Q131 625 131 583V463H239V398H131V353H239Z" glyph-name="Euro" horiz-adv-x="373" unicode="&#8364;" /><glyph d="M113 373V0H28V728H256V655H113V447H251V373Z" glyph-name="F" horiz-adv-x="269" unicode="F" /><glyph d="M173 0Q27 0 27 148V586Q27 658 65.5 697Q104 736 173 736H181Q248 736 287 696.5Q326 657 326 585V495H243V584Q243 625 224.5 643.5Q206 662 180 662H175Q147 662 129.5 643.5Q112 625 112 584V147Q112 106 128 89Q144 72 175 72H243V299H187V372H324V0Z" glyph-name="G" horiz-adv-x="352" unicode="G" /><glyph d="M246 349H114V0H29V728H114V422H246V728H331V0H246Z" glyph-name="H" horiz-adv-x="360" unicode="H" /><glyph d="M28 728H112V0H28Z" glyph-name="I" horiz-adv-x="141" unicode="I" /><glyph d="M28 728H112V0H28ZM-2 823 146 861V788L-2 757Z" glyph-name="Iacute" horiz-adv-x="141" unicode="&#205;" /><glyph d="M28 728H112V0H28ZM154 815V755L71 791L-12 755V815L49 854H93Z" glyph-name="Icircumflex" horiz-adv-x="141" unicode="&#206;" /><glyph d="M28 728H112V0H28ZM54 850V766H-27V850ZM168 850V766H87V850Z" glyph-name="Idieresis" horiz-adv-x="141" unicode="&#207;" /><glyph d="M28 728H112V0H28ZM144 757 -3 788V860L144 822Z" glyph-name="Igrave" horiz-adv-x="141" unicode="&#204;" /><glyph d="M184 143Q184 72 156.5 36Q129 0 66 0H12V73H49Q71 73 85 89Q99 105 99 142V728H184Z" glyph-name="J" horiz-adv-x="211" unicode="J" /><glyph d="M113 363V0H28V728H113V392L234 728H322L194 382L325 0H236Z" glyph-name="K" horiz-adv-x="329" unicode="K" /><glyph d="M28 728H113V74H253V0H28Z" glyph-name="L" horiz-adv-x="264" unicode="L" /><glyph d="M1 320 37 338V728H122V382L215 430V359L122 311V74H262V0H37V267L1 249Z" glyph-name="Lslash" horiz-adv-x="273" unicode="&#321;" /><glyph d="M115 561 104 676V0H28V728H170L235 196L244 88L252 196L310 728H455V0H377V681L365 561L295 0H189Z" glyph-name="M" horiz-adv-x="483" unicode="M" /><glyph d="M131 472 105 628V0H28V728H155L255 262L281 110V728H358V0H233Z" glyph-name="N" horiz-adv-x="385" unicode="N" /><glyph d="M104 762Q105 847 164 847Q176 847 185 843.5Q194 840 201.5 836Q209 832 216 828.5Q223 825 231 825Q248 825 248 849H303Q301 764 244 764Q231 764 221.5 767.5Q212 771 204.5 775Q197 779 190.5 782.5Q184 786 176 786Q160 786 160 762ZM131 472 105 628V0H28V728H155L255 262L281 110V728H358V0H233Z" glyph-name="Ntilde" horiz-adv-x="385" unicode="&#209;" /><glyph d="M27 586Q27 658 66 697Q105 736 173 736H182Q249 736 289 697Q329 658 329 586V143Q329 71 289 31.5Q249 -8 182 -8H173Q104 -8 65.5 31.5Q27 71 27 143ZM244 584Q244 625 225 643.5Q206 662 180 662H175Q148 662 129.5 643.5Q111 625 111 584V144Q111 103 129.5 84.5Q148 66 175 66H180Q206 66 225 84.5Q244 103 244 144Z" glyph-name="O" horiz-adv-x="355" unicode="O" /><glyph d="M167 0Q102 0 64.5 39Q27 78 27 150V578Q27 650 64.5 689Q102 728 167 728H467V655H324V450H462V377H324V73H467V0ZM111 152Q111 111 129.5 92Q148 73 175 73H239V654H175Q148 654 129.5 635.5Q111 617 111 576Z" glyph-name="OE" horiz-adv-x="488" unicode="&#338;" /><glyph d="M105 823 253 861V788L105 757ZM27 586Q27 658 66 697Q105 736 173 736H182Q249 736 289 697Q329 658 329 586V143Q329 71 289 31.5Q249 -8 182 -8H173Q104 -8 65.5 31.5Q27 71 27 143ZM244 584Q244 625 225 643.5Q206 662 180 662H175Q148 662 129.5 643.5Q111 625 111 584V144Q111 103 129.5 84.5Q148 66 175 66H180Q206 66 225 84.5Q244 103 244 144Z" glyph-name="Oacute" horiz-adv-x="356" unicode="&#211;" /><glyph d="M262 815V755L179 791L96 755V815L157 854H201ZM27 586Q27 658 66 697Q105 736 173 736H182Q249 736 289 697Q329 658 329 586V143Q329 71 289 31.5Q249 -8 182 -8H173Q104 -8 65.5 31.5Q27 71 27 143ZM244 584Q244 625 225 643.5Q206 662 180 662H175Q148 662 129.5 643.5Q111 625 111 584V144Q111 103 129.5 84.5Q148 66 175 66H180Q206 66 225 84.5Q244 103 244 144Z" glyph-name="Ocircumflex" horiz-adv-x="356" unicode="&#212;" /><glyph d="M78 850H159V766H78ZM198 850H279V766H198ZM27 586Q27 658 66 697Q105 736 173 736H182Q249 736 289 697Q329 658 329 586V143Q329 71 289 31.5Q249 -8 182 -8H173Q104 -8 65.5 31.5Q27 71 27 143ZM244 584Q244 625 225 643.5Q206 662 180 662H175Q148 662 129.5 643.5Q111 625 111 584V144Q111 103 129.5 84.5Q148 66 175 66H180Q206 66 225 84.5Q244 103 244 144Z" glyph-name="Odieresis" horiz-adv-x="356" unicode="&#214;" /><glyph d="M251 757 104 788V860L251 822ZM27 586Q27 658 66 697Q105 736 173 736H182Q249 736 289 697Q329 658 329 586V143Q329 71 289 31.5Q249 -8 182 -8H173Q104 -8 65.5 31.5Q27 71 27 143ZM244 584Q244 625 225 643.5Q206 662 180 662H175Q148 662 129.5 643.5Q111 625 111 584V144Q111 103 129.5 84.5Q148 66 175 66H180Q206 66 225 84.5Q244 103 244 144Z" glyph-name="Ograve" horiz-adv-x="356" unicode="&#210;" /><glyph d="M28 586Q28 658 67.5 697Q107 736 175 736H184Q221 736 251 722L259 753H331L309 672Q331 634 331 586V143Q331 71 291 31.5Q251 -8 184 -8H175Q138 -8 106 5L97 -25H24L48 56Q28 91 28 143ZM255 527 128 75Q145 61 176 61H182Q211 61 233 79.5Q255 98 255 140ZM104 205 228 654Q211 667 183 667H177Q147 667 125.5 648.5Q104 630 104 587Z" glyph-name="Oslash" horiz-adv-x="359" unicode="&#216;" /><glyph d="M79 762Q80 847 139 847Q151 847 160 843.5Q169 840 176.5 836Q184 832 191 828.5Q198 825 206 825Q223 825 223 849H278Q276 764 219 764Q206 764 196.5 767.5Q187 771 179.5 775Q172 779 165.5 782.5Q159 786 151 786Q135 786 135 762ZM27 586Q27 658 66 697Q105 736 173 736H182Q249 736 289 697Q329 658 329 586V143Q329 71 289 31.5Q249 -8 182 -8H173Q104 -8 65.5 31.5Q27 71 27 143ZM244 584Q244 625 225 643.5Q206 662 180 662H175Q148 662 129.5 643.5Q111 625 111 584V144Q111 103 129.5 84.5Q148 66 175 66H180Q206 66 225 84.5Q244 103 244 144Z" glyph-name="Otilde" horiz-adv-x="356" unicode="&#213;" /><glyph d="M113 403H174Q205 403 219.5 427.5Q234 452 234 491V574Q234 613 219.5 634Q205 655 174 655H113ZM28 728H181Q219 728 245.5 717Q272 706 288.5 685.5Q305 665 312 636Q319 607 319 570V496Q319 458 312 427.5Q305 397 288.5 375.5Q272 354 245.5 342Q219 330 181 330H113V0H28Z" glyph-name="P" horiz-adv-x="333" unicode="P" /><glyph d="M27 586Q27 658 66 697Q105 736 173 736H182Q249 736 289 697Q329 658 329 586V143Q329 81 299.5 43.5Q270 6 219 -4V-87H137V-5Q84 5 55.5 42.5Q27 80 27 143ZM244 584Q244 625 225 643.5Q206 662 180 662H175Q148 662 129.5 643.5Q111 625 111 584V144Q111 103 129.5 84.5Q148 66 175 66H180Q206 66 225 84.5Q244 103 244 144Z" glyph-name="Q" horiz-adv-x="356" unicode="Q" /><glyph d="M114 0H30V728H183Q256 728 287 685.5Q318 643 318 572V518Q318 417 246 393Q281 383 297 357Q313 331 313 284V0H228V292Q228 354 174 354H114ZM175 427Q206 427 220 451Q234 475 234 513V573Q234 655 173 655H114V427Z" glyph-name="R" horiz-adv-x="340" unicode="R" /><glyph d="M240 384Q261 370 276 355.5Q291 341 300 323Q309 305 313 281.5Q317 258 317 226V144Q317 71 279 31.5Q241 -8 172 -8H163Q94 -8 56.5 31.5Q19 71 19 144V260H102V144Q102 104 120 85Q138 66 164 66H170Q196 66 214.5 85Q233 104 233 144V223Q233 257 223.5 277.5Q214 298 188 315L92 383Q54 409 37.5 441Q21 473 21 527V593Q21 659 57.5 697.5Q94 736 163 736H172Q241 736 277.5 698Q314 660 314 596V495H231V593Q231 626 213.5 644Q196 662 170 662H165Q139 662 121.5 644Q104 626 104 593V534Q104 505 111.5 487Q119 469 143 453Z" glyph-name="S" horiz-adv-x="337" unicode="S" /><glyph d="M190 758H146L85 797V856L168 820L251 856V797ZM240 384Q261 370 276 355.5Q291 341 300 323Q309 305 313 281.5Q317 258 317 226V144Q317 71 279 31.5Q241 -8 172 -8H163Q94 -8 56.5 31.5Q19 71 19 144V260H102V144Q102 104 120 85Q138 66 164 66H170Q196 66 214.5 85Q233 104 233 144V223Q233 257 223.5 277.5Q214 298 188 315L92 383Q54 409 37.5 441Q21 473 21 527V593Q21 659 57.5 697.5Q94 736 163 736H172Q241 736 277.5 698Q314 660 314 596V495H231V593Q231 626 213.5 644Q196 662 170 662H165Q139 662 121.5 644Q104 626 104 593V534Q104 505 111.5 487Q119 469 143 453Z" glyph-name="Scaron" horiz-adv-x="337" unicode="&#352;" /><glyph d="M192 654V0H107V654H9V728H290V654Z" glyph-name="T" horiz-adv-x="299" unicode="T" /><glyph d="M112 577H180Q256 577 287 535Q318 493 318 419V345Q318 270 287 228Q256 186 180 186H112V0H27V728H112ZM112 504V259H173Q204 259 218.5 280Q233 301 233 340V424Q233 462 218.5 483Q204 504 173 504Z" glyph-name="Thorn" horiz-adv-x="343" unicode="&#222;" /><glyph d="M329 143Q329 71 289.5 32Q250 -7 182 -7H173Q104 -7 65.5 32Q27 71 27 143V728H111V145Q111 103 129.5 85Q148 67 175 67H180Q206 67 225 85Q244 103 244 145V728H329Z" glyph-name="U" horiz-adv-x="356" unicode="U" /><glyph d="M105 823 253 861V788L105 757ZM329 143Q329 71 289.5 32Q250 -7 182 -7H173Q104 -7 65.5 32Q27 71 27 143V728H111V145Q111 103 129.5 85Q148 67 175 67H180Q206 67 225 85Q244 103 244 145V728H329Z" glyph-name="Uacute" horiz-adv-x="356" unicode="&#218;" /><glyph d="M261 815V755L178 791L95 755V815L156 854H200ZM329 143Q329 71 289.5 32Q250 -7 182 -7H173Q104 -7 65.5 32Q27 71 27 143V728H111V145Q111 103 129.5 85Q148 67 175 67H180Q206 67 225 85Q244 103 244 145V728H329Z" glyph-name="Ucircumflex" horiz-adv-x="356" unicode="&#219;" /><glyph d="M329 143Q329 71 289.5 32Q250 -7 182 -7H173Q104 -7 65.5 32Q27 71 27 143V728H111V145Q111 103 129.5 85Q148 67 175 67H180Q206 67 225 85Q244 103 244 145V728H329ZM78 850H159V766H78ZM198 850H279V766H198Z" glyph-name="Udieresis" horiz-adv-x="356" unicode="&#220;" /><glyph d="M251 757 104 788V860L251 822ZM329 143Q329 71 289.5 32Q250 -7 182 -7H173Q104 -7 65.5 32Q27 71 27 143V728H111V145Q111 103 129.5 85Q148 67 175 67H180Q206 67 225 85Q244 103 244 145V728H329Z" glyph-name="Ugrave" horiz-adv-x="356" unicode="&#217;" /><glyph d="M336 728 230 0H113L3 728H89L172 106L253 728Z" glyph-name="V" horiz-adv-x="340" unicode="V" /><glyph d="M514 728 449 0H329L274 480L261 623L249 480L196 0H77L8 728H92L131 256L141 105L156 256L210 728H317L372 256L388 105L398 256L434 728Z" glyph-name="W" horiz-adv-x="523" unicode="W" /><glyph d="M255 0 172 310 90 0H4L116 383L11 728H99L173 454L248 728H332L228 388L342 0Z" glyph-name="X" horiz-adv-x="348" unicode="X" /><glyph d="M210 277V0H124V268L3 728H89L167 396L238 728H320Z" glyph-name="Y" horiz-adv-x="323" unicode="Y" /><glyph d="M210 277V0H124V268L3 728H89L167 396L238 728H320ZM94 823 242 861V788L94 757Z" glyph-name="Yacute" horiz-adv-x="323" unicode="&#221;" /><glyph d="M210 277V0H124V268L3 728H89L167 396L238 728H320ZM63 850H144V766H63ZM183 850H264V766H183Z" glyph-name="Ydieresis" horiz-adv-x="323" unicode="&#376;" /><glyph d="M102 74H273V0H18V74L189 654H21V728H273V654Z" glyph-name="Z" horiz-adv-x="291" unicode="Z" /><glyph d="M170 758H126L65 797V856L148 820L231 856V797ZM102 74H273V0H18V74L189 654H21V728H273V654Z" glyph-name="Zcaron" horiz-adv-x="291" unicode="&#381;" /><glyph d="M144 0Q78 0 48.5 34Q19 68 19 138V193Q19 263 48.5 296Q78 329 144 329H204V445Q204 502 159 502H155Q135 502 122.5 487.5Q110 473 110 445V374H33V439Q33 575 154 575H159Q285 575 285 439V0ZM204 72V260H156Q100 260 100 195V136Q100 102 113.5 87Q127 72 156 72Z" glyph-name="a" horiz-adv-x="312" unicode="a" /><glyph d="M144 0Q78 0 48.5 34Q19 68 19 138V193Q19 263 48.5 296Q78 329 144 329H204V445Q204 502 159 502H155Q135 502 122.5 487.5Q110 473 110 445V374H33V439Q33 575 154 575H159Q285 575 285 439V0ZM204 72V260H156Q100 260 100 195V136Q100 102 113.5 87Q127 72 156 72ZM95 673 244 717V642L95 605Z" glyph-name="aacute" horiz-adv-x="312" unicode="&#225;" /><glyph d="M144 0Q78 0 48.5 34Q19 68 19 138V193Q19 263 48.5 296Q78 329 144 329H204V445Q204 502 159 502H155Q135 502 122.5 487.5Q110 473 110 445V374H33V439Q33 575 154 575H159Q285 575 285 439V0ZM204 72V260H156Q100 260 100 195V136Q100 102 113.5 87Q127 72 156 72ZM239 670V604L158 644L77 604V670L137 708H179Z" glyph-name="acircumflex" horiz-adv-x="312" unicode="&#226;" /><glyph d="M116 673 265 717V642L116 605Z" glyph-name="acute" horiz-adv-x="401" unicode="&#180;" /><glyph d="M116 823 264 861V788L116 757Z" glyph-name="acute.uc" horiz-adv-x="401" /><glyph d="M144 0Q78 0 48.5 34Q19 68 19 138V193Q19 263 48.5 296Q78 329 144 329H204V445Q204 502 159 502H155Q135 502 122.5 487.5Q110 473 110 445V374H33V439Q33 575 154 575H159Q285 575 285 439V0ZM204 72V260H156Q100 260 100 195V136Q100 102 113.5 87Q127 72 156 72ZM58 700H139V610H58ZM176 700H256V610H176Z" glyph-name="adieresis" horiz-adv-x="312" unicode="&#228;" /><glyph d="M469 207V139Q469 0 339 0H144Q78 0 48.5 34Q19 68 19 138V193Q19 263 48.5 296Q78 329 144 329H202V445Q202 502 158 502H154Q134 502 122 487.5Q110 473 110 445V374H33V439Q33 575 153 575H158Q190 575 214 561.5Q238 548 247 527Q256 547 280 561Q304 575 333 575H338Q401 575 435 537.5Q469 500 469 433V265H284V70H339Q362 70 376 85.5Q390 101 390 138V207ZM202 72V260H156Q100 260 100 195V136Q100 102 113.5 87Q127 72 156 72ZM284 334H389V433Q389 470 374 486Q359 502 338 502H335Q313 502 298.5 486Q284 470 284 432Z" glyph-name="ae" horiz-adv-x="492" unicode="&#230;" /><glyph d="M144 0Q78 0 48.5 34Q19 68 19 138V193Q19 263 48.5 296Q78 329 144 329H204V445Q204 502 159 502H155Q135 502 122.5 487.5Q110 473 110 445V374H33V439Q33 575 154 575H159Q285 575 285 439V0ZM204 72V260H156Q100 260 100 195V136Q100 102 113.5 87Q127 72 156 72ZM231 605 82 642V717L231 673Z" glyph-name="agrave" horiz-adv-x="312" unicode="&#224;" /><glyph d="M369 353H317V0H160Q88 0 54.5 43.5Q21 87 21 159V261Q21 369 98 391Q27 414 27 515V579Q27 650 62 693Q97 736 169 736H176Q247 736 282 697.5Q317 659 317 594V495H233V594Q233 662 176 662H170Q141 662 127 640Q113 618 113 577V506Q113 469 126.5 446Q140 423 171 423H369ZM234 71V353H169Q137 353 121.5 331Q106 309 106 269V159Q106 119 123.5 95Q141 71 170 71Z" glyph-name="ampersand" horiz-adv-x="377" unicode="&amp;" /><glyph d="M144 0Q78 0 48.5 34Q19 68 19 138V193Q19 263 48.5 296Q78 329 144 329H204V445Q204 502 159 502H155Q135 502 122.5 487.5Q110 473 110 445V374H33V439Q33 575 154 575H159Q285 575 285 439V0ZM204 72V260H156Q100 260 100 195V136Q100 102 113.5 87Q127 72 156 72ZM238 675Q238 640 215.5 618.5Q193 597 158 597Q122 597 100 618.5Q78 640 78 675Q78 709 100 731Q122 753 158 753Q193 753 215.5 731Q238 709 238 675ZM185 675Q185 686 177 694Q169 702 158 702Q145 702 138 694Q131 686 131 675Q131 664 138.5 656Q146 648 158 648Q169 648 177 656Q185 664 185 675Z" glyph-name="aring" horiz-adv-x="312" unicode="&#229;" /><glyph d="M223 432 151 653 84 432H7L102 728H199L297 432Z" glyph-name="asciicircum" horiz-adv-x="304" unicode="^" /><glyph d="M181 259Q165 259 153.5 263.5Q142 268 132 273.5Q122 279 113 283.5Q104 288 94 288Q85 288 80 280Q75 272 75 259H17V261Q17 353 82 353Q98 353 109.5 348.5Q121 344 131 339Q141 334 149.5 329.5Q158 325 169 325Q188 325 188 354H247V352Q246 304 229.5 281.5Q213 259 181 259Z" glyph-name="asciitilde" horiz-adv-x="263" unicode="~" /><glyph d="M186 553 135 586 137 527H84L86 586L36 553L8 597L65 631L8 666L36 708L86 675L85 735H137L135 675L186 707L213 665L157 631L213 597Z" glyph-name="asterisk" horiz-adv-x="220" unicode="*" /><glyph d="M410 69Q449 70 466 91.5Q483 113 483 160V475Q483 532 471 569.5Q459 607 436.5 629Q414 651 381 660Q348 669 306 669H296Q252 669 215 656Q178 643 151 616Q124 589 108.5 547.5Q93 506 93 449V121Q93 11 146 -40.5Q199 -92 287 -92H399V-148H286Q231 -148 183.5 -132.5Q136 -117 101 -84.5Q66 -52 46 -1.5Q26 49 26 120V449Q26 585 96.5 655.5Q167 726 296 726H308Q434 726 491.5 666Q549 606 549 476V164Q549 83 509.5 41.5Q470 0 406 0H279Q222 0 190.5 36.5Q159 73 159 145V424Q159 496 190.5 532.5Q222 569 280 569H410ZM241 144Q241 107 252.5 88.5Q264 70 292 70H329V497H294Q241 497 241 426Z" glyph-name="at" horiz-adv-x="576" unicode="@" /><glyph d="M144 0Q78 0 48.5 34Q19 68 19 138V193Q19 263 48.5 296Q78 329 144 329H204V445Q204 502 159 502H155Q135 502 122.5 487.5Q110 473 110 445V374H33V439Q33 575 154 575H159Q285 575 285 439V0ZM204 72V260H156Q100 260 100 195V136Q100 102 113.5 87Q127 72 156 72ZM57 608Q58 653 73 676.5Q88 700 117 700Q129 700 138 696.5Q147 693 154.5 688.5Q162 684 169 680.5Q176 677 184 677Q200 677 200 702H256Q255 660 240.5 635Q226 610 197 610Q184 610 174.5 613.5Q165 617 157.5 621.5Q150 626 143.5 629.5Q137 633 130 633Q114 633 114 608Z" glyph-name="atilde" horiz-adv-x="312" unicode="&#227;" /><glyph d="M27 728H109V569H184Q247 569 273.5 532.5Q300 496 300 424V145Q300 73 273.5 36.5Q247 0 184 0H27ZM109 72H166Q218 72 218 143V426Q218 497 166 497H109Z" glyph-name="b" horiz-adv-x="324" unicode="b" /><glyph d="M236 -110H160L18 751H94Z" glyph-name="backslash" horiz-adv-x="243" unicode="\" /><glyph d="M27 747H97V-110H27Z" glyph-name="bar" horiz-adv-x="125" unicode="|" /><glyph d="M230 -106H205Q140 -106 108 -71Q76 -36 78 31L82 190Q83 230 69 256.5Q55 283 15 283H10V354H15Q55 354 69 380.5Q83 407 82 448L78 612Q76 678 107.5 713.5Q139 749 202 749H230V678H228Q208 677 193.5 673Q179 669 170.5 660Q162 651 158 636Q154 621 155 598L160 453Q161 427 158.5 404.5Q156 382 149 364.5Q142 347 128.5 335.5Q115 324 94 320Q115 316 128.5 304Q142 292 149 273.5Q156 255 158.5 232Q161 209 160 182L155 46Q154 23 158 7.5Q162 -8 170.5 -17Q179 -26 193.5 -29.5Q208 -33 228 -34H230Z" glyph-name="braceleft" horiz-adv-x="245" unicode="{" /><glyph d="M15 -34H16Q37 -33 51 -29.5Q65 -26 74 -17Q83 -8 87 7.5Q91 23 90 46L85 182Q84 209 86.5 232Q89 255 96 273.5Q103 292 116 304Q129 316 150 320Q108 328 95.5 365Q83 402 85 453L90 598Q91 621 87 636Q83 651 74 660Q65 669 51 673Q37 677 16 678H15V749H43Q106 749 137.5 713.5Q169 678 167 612L162 448Q162 428 165 410.5Q168 393 175.5 380.5Q183 368 196.5 361Q210 354 230 354H235V283H230Q210 283 196.5 276Q183 269 175.5 256.5Q168 244 165 227Q162 210 162 190L167 31Q169 -36 137 -71Q105 -106 40 -106H15Z" glyph-name="braceright" horiz-adv-x="245" unicode="}" /><glyph d="M170 677H104V-33H170V-103H28V746H170Z" glyph-name="bracketleft" horiz-adv-x="188" unicode="[" /><glyph d="M18 746H160V-103H18V-33H84V677H18Z" glyph-name="bracketright" horiz-adv-x="188" unicode="]" /><glyph d="M296 707Q294 653 267 628Q240 603 200 603Q161 603 134 627.5Q107 652 105 707H165Q167 667 200 667Q234 667 236 707Z" glyph-name="breve" horiz-adv-x="400" unicode="&#728;" /><glyph d="M298 856Q296 803 268 781.5Q240 760 200 760Q159 760 131.5 781Q104 802 102 856H162Q163 840 173 831Q183 822 200 822Q217 822 227 831Q237 840 238 856Z" glyph-name="breve.uc" horiz-adv-x="400" /><glyph d="M33 747H107V380H33ZM33 296H107V-110H33Z" glyph-name="brokenbar" horiz-adv-x="140" unicode="&#166;" /><glyph d="M18 340Q18 359 25 375Q32 391 44 403Q56 415 72.5 422Q89 429 108 429Q146 429 171.5 403.5Q197 378 197 340Q197 321 190 304.5Q183 288 171 276Q159 264 143 257Q127 250 108 250Q70 250 44 276Q18 302 18 340Z" glyph-name="bullet" horiz-adv-x="215" unicode="&#8226;" /><glyph d="M296 136Q296 68 261.5 31Q227 -6 164 -6H158Q94 -6 59.5 31.5Q25 69 25 136V433Q25 500 59.5 537.5Q94 575 158 575H164Q227 575 261.5 537.5Q296 500 296 433V374H217V433Q217 470 201.5 486Q186 502 163 502H159Q137 502 121.5 486Q106 470 106 433V137Q106 99 121.5 83Q137 67 159 67H163Q186 67 201.5 83Q217 99 217 137V207H296Z" glyph-name="c" horiz-adv-x="317" unicode="c" /><glyph d="M221 606H179L119 644V710L200 670L281 710V644Z" glyph-name="caron" horiz-adv-x="400" unicode="&#711;" /><glyph d="M222 758H178L117 797V856L200 820L283 856V797Z" glyph-name="caron.uc" horiz-adv-x="400" /><glyph d="M104 -101H148Q158 -101 165 -98Q172 -95 172 -85V-84Q172 -74 165 -71Q158 -68 148 -68H113V0Q70 11 47.5 46.5Q25 82 25 136V433Q25 500 59.5 537.5Q94 575 158 575H164Q227 575 261.5 537.5Q296 500 296 433V374H217V433Q217 470 201.5 486Q186 502 163 502H159Q137 502 121.5 486Q106 470 106 433V137Q106 99 121.5 83Q137 67 159 67H163Q186 67 201.5 83Q217 99 217 137V207H296V136Q296 68 261.5 31Q227 -6 164 -6H162V-27Q193 -27 214 -39.5Q235 -52 235 -85V-87Q235 -122 211.5 -135Q188 -148 159 -148H104Z" glyph-name="ccedilla" horiz-adv-x="317" unicode="&#231;" /><glyph d="M146 -101H190Q200 -101 207 -98Q214 -95 214 -85V-84Q214 -74 207 -71Q200 -68 190 -68H155V0H204V-27Q235 -27 256 -39.5Q277 -52 277 -85V-87Q277 -122 253.5 -135Q230 -148 201 -148H146Z" glyph-name="cedilla" horiz-adv-x="399" unicode="&#184;" /><glyph d="M121 -2Q73 8 48.5 43.5Q24 79 24 136V433Q24 490 48.5 525.5Q73 561 121 571V648H199V571Q245 560 270 525Q295 490 295 433V374H216V433Q216 470 200.5 486Q185 502 162 502H158Q136 502 120.5 486Q105 470 105 433V137Q105 99 120.5 83Q136 67 158 67H162Q184 67 200 83Q216 99 216 137V207H295V136Q295 79 270 43.5Q245 8 199 -2V-79H121Z" glyph-name="cent" horiz-adv-x="315" unicode="&#162;" /><glyph d="M281 670V604L200 644L119 604V670L179 708H221Z" glyph-name="circumflex" horiz-adv-x="400" unicode="&#710;" /><glyph d="M283 815V755L200 791L117 755V815L178 854H222Z" glyph-name="circumflex.uc" horiz-adv-x="400" /><glyph d="M113 93V0H28V93ZM113 473V381H28V473Z" glyph-name="colon" horiz-adv-x="142" unicode=":" /><glyph d="M111 93 92 -69H28V93Z" glyph-name="comma" horiz-adv-x="139" unicode="," /><glyph d="M315 442V489Q315 521 303 534.5Q291 548 272 548H268Q248 548 236 534Q224 520 224 489V237Q224 208 236 193.5Q248 179 267 179H272Q291 179 303 193.5Q315 208 315 237V292H384V237Q384 180 356 147Q328 114 271 114H266Q209 114 181.5 147Q154 180 154 237V489Q154 546 181.5 579.5Q209 613 266 613H271Q329 613 356.5 580Q384 547 384 489V442ZM16 409Q16 484 31 543.5Q46 603 76.5 644.5Q107 686 154 708.5Q201 731 266 731H274Q336 731 383 708.5Q430 686 461 644.5Q492 603 507.5 543.5Q523 484 523 409V318Q523 243 505.5 183Q488 123 455.5 82Q423 41 377 19Q331 -3 274 -3H266Q141 -3 78.5 82Q16 167 16 318ZM78 319Q78 259 88 209Q98 159 120.5 124Q143 89 178 69.5Q213 50 264 50H275Q323 50 358.5 69.5Q394 89 417.5 124Q441 159 452 209Q463 259 463 319V408Q463 469 452 518.5Q441 568 418 603Q395 638 359.5 657Q324 676 275 676H264Q212 676 176.5 657Q141 638 119 603Q97 568 87.5 518.5Q78 469 78 408Z" glyph-name="copyright" horiz-adv-x="539" unicode="&#169;" /><glyph d="M298 0H141Q77 0 51 36.5Q25 73 25 145V424Q25 496 51 532.5Q77 569 141 569H216V728H298ZM216 497H159Q131 497 119 479.5Q107 462 107 426V143Q107 107 119 89.5Q131 72 159 72H216Z" glyph-name="d" horiz-adv-x="324" unicode="d" /><glyph d="M7 607H76V728H151V607H221V537H151V0H76V537H7Z" glyph-name="dagger" horiz-adv-x="227" unicode="&#8224;" /><glyph d="M12 607H81V728H156V607H225V537H156V191H225V121H156V0H81V121H12V191H81V537H12Z" glyph-name="daggerdbl" horiz-adv-x="237" unicode="&#8225;" /><glyph d="M12 632Q12 676 40 705.5Q68 735 115 735Q162 735 190 705.5Q218 676 218 632Q218 589 190 559Q162 529 115 529Q68 529 40 559Q12 589 12 632ZM70 632Q70 612 82 598Q94 584 115 584Q135 584 147.5 598Q160 612 160 632Q160 652 147.5 666Q135 680 115 680Q94 680 82 666Q70 652 70 632Z" glyph-name="degree" horiz-adv-x="230" unicode="&#176;" /><glyph d="M103 700H184V610H103ZM221 700H301V610H221Z" glyph-name="dieresis" horiz-adv-x="401" unicode="&#168;" /><glyph d="M100 850H181V766H100ZM220 850H301V766H220Z" glyph-name="dieresis.uc" horiz-adv-x="401" /><glyph d="M23 294V363H302V294ZM121 251H204V163H121ZM121 494H204V406H121Z" glyph-name="divide" horiz-adv-x="325" unicode="&#247;" /><glyph d="M243 384Q264 370 279 355.5Q294 341 303 323Q312 305 316 281.5Q320 258 320 226V144Q320 81 291 42.5Q262 4 210 -5V-73H133V-5Q79 4 50.5 42Q22 80 22 144V260H105V144Q105 104 123.5 85Q142 66 168 66H173Q199 66 217.5 85Q236 104 236 144V223Q236 257 226.5 277.5Q217 298 191 315L95 383Q57 409 40.5 441.5Q24 474 24 527V593Q24 650 51.5 687Q79 724 133 733V801H210V733Q262 723 289.5 687Q317 651 317 596V495H234V593Q234 626 216.5 644Q199 662 173 662H168Q142 662 125 644Q108 626 108 593V534Q108 505 115 487Q122 469 146 453Z" glyph-name="dollar" horiz-adv-x="340" unicode="$" /><glyph d="M159 702H241V610H159Z" glyph-name="dotaccent" horiz-adv-x="399" unicode="&#729;" /><glyph d="M159 852H241V765H159Z" glyph-name="dotaccent.uc" horiz-adv-x="399" /><glyph d="M109 569V0H27V569Z" glyph-name="dotlessi" horiz-adv-x="136" unicode="&#305;" /><glyph d="M106 265V137Q106 99 122.5 83Q139 67 162 67H165Q188 67 203.5 83Q219 99 219 137V207H297V137Q297 68 263.5 31Q230 -6 165 -6H160Q96 -6 60.5 31.5Q25 69 25 136V433Q25 500 59.5 537.5Q94 575 158 575H164Q227 575 262 537.5Q297 500 297 433V265ZM106 334H217V433Q217 470 201.5 486Q186 502 163 502H160Q137 502 121.5 486Q106 470 106 432Z" glyph-name="e" horiz-adv-x="320" unicode="e" /><glyph d="M87 673 236 717V642L87 605ZM106 265V137Q106 99 122.5 83Q139 67 162 67H165Q188 67 203.5 83Q219 99 219 137V207H297V137Q297 68 263.5 31Q230 -6 165 -6H160Q96 -6 60.5 31.5Q25 69 25 136V433Q25 500 59.5 537.5Q94 575 158 575H164Q227 575 262 537.5Q297 500 297 433V265ZM106 334H217V433Q217 470 201.5 486Q186 502 163 502H160Q137 502 121.5 486Q106 470 106 432Z" glyph-name="eacute" horiz-adv-x="320" unicode="&#233;" /><glyph d="M242 670V604L161 644L80 604V670L140 708H182ZM106 265V137Q106 99 122.5 83Q139 67 162 67H165Q188 67 203.5 83Q219 99 219 137V207H297V137Q297 68 263.5 31Q230 -6 165 -6H160Q96 -6 60.5 31.5Q25 69 25 136V433Q25 500 59.5 537.5Q94 575 158 575H164Q227 575 262 537.5Q297 500 297 433V265ZM106 334H217V433Q217 470 201.5 486Q186 502 163 502H160Q137 502 121.5 486Q106 470 106 432Z" glyph-name="ecircumflex" horiz-adv-x="320" unicode="&#234;" /><glyph d="M63 700H144V610H63ZM181 700H261V610H181ZM106 265V137Q106 99 122.5 83Q139 67 162 67H165Q188 67 203.5 83Q219 99 219 137V207H297V137Q297 68 263.5 31Q230 -6 165 -6H160Q96 -6 60.5 31.5Q25 69 25 136V433Q25 500 59.5 537.5Q94 575 158 575H164Q227 575 262 537.5Q297 500 297 433V265ZM106 334H217V433Q217 470 201.5 486Q186 502 163 502H160Q137 502 121.5 486Q106 470 106 432Z" glyph-name="edieresis" horiz-adv-x="320" unicode="&#235;" /><glyph d="M106 265V137Q106 99 122.5 83Q139 67 162 67H165Q188 67 203.5 83Q219 99 219 137V207H297V137Q297 68 263.5 31Q230 -6 165 -6H160Q96 -6 60.5 31.5Q25 69 25 136V433Q25 500 59.5 537.5Q94 575 158 575H164Q227 575 262 537.5Q297 500 297 433V265ZM106 334H217V433Q217 470 201.5 486Q186 502 163 502H160Q137 502 121.5 486Q106 470 106 432ZM235 605 86 642V717L235 673Z" glyph-name="egrave" horiz-adv-x="320" unicode="&#232;" /><glyph d="M22 586Q22 658 60.5 697Q99 736 166 736H173Q240 736 279 697Q318 658 318 586V535Q318 490 301 456.5Q284 423 243 411Q282 398 301 367Q320 336 320 291V143Q320 71 281 31.5Q242 -8 173 -8H166Q97 -8 58.5 31.5Q20 71 20 143V291Q20 336 38.5 367Q57 398 96 411Q55 423 38.5 457Q22 491 22 535ZM235 295Q235 336 217 354.5Q199 373 172 373H167Q140 373 122 354.5Q104 336 104 295V144Q104 103 122 84.5Q140 66 167 66H172Q199 66 217 84.5Q235 103 235 144ZM234 584Q234 625 216.5 643.5Q199 662 172 662H167Q140 662 123 643.5Q106 625 106 584V522Q106 482 123 463Q140 444 167 444H172Q199 444 216.5 463Q234 482 234 522Z" glyph-name="eight" horiz-adv-x="339" unicode="8" /><glyph d="M29 93H114V0H29ZM167 93H252V0H167ZM305 93H389V0H305Z" glyph-name="ellipsis" horiz-adv-x="419" unicode="&#8230;" /><glyph d="M25 336H561V265H25Z" glyph-name="emdash" horiz-adv-x="586" unicode="&#8212;" /><glyph d="M25 336H327V265H25Z" glyph-name="endash" horiz-adv-x="352" unicode="&#8211;" /><glyph d="M302 431V360H23V431ZM302 310V240H23V310Z" glyph-name="equal" horiz-adv-x="325" unicode="=" /><glyph d="M94 653 147 673 114 728H195L212 699L277 724V671L238 656L265 612Q278 589 286 570Q294 551 297.5 529.5Q301 508 302 482Q303 456 303 419V136Q303 69 267 31.5Q231 -6 166 -6H161Q97 -6 61 31.5Q25 69 25 136V433Q25 500 60.5 537.5Q96 575 155 575H158Q171 575 191.5 568.5Q212 562 221 551L173 630L94 600ZM106 136Q106 99 122.5 83Q139 67 162 67H165Q188 67 204.5 83Q221 99 221 136V433Q221 470 205 486Q189 502 165 502H162Q139 502 122.5 486Q106 470 106 433Z" glyph-name="eth" horiz-adv-x="328" unicode="&#240;" /><glyph d="M28 166V728H111V166ZM111 93V0H28V93Z" glyph-name="exclam" horiz-adv-x="139" unicode="!" /><glyph d="M111 -133H28V429H111ZM111 502H28V595H111Z" glyph-name="exclamdown" horiz-adv-x="139" unicode="&#161;" /><glyph d="M131 497V0H49V497H5V569H49V604Q49 665 72.5 696.5Q96 728 157 728H196V657H171Q150 657 140.5 645.5Q131 634 131 605V569H196V497Z" glyph-name="f" horiz-adv-x="201" unicode="f" /><glyph d="M178 481Q248 481 282.5 443Q317 405 317 332V144Q317 70 280.5 31Q244 -8 176 -8H168Q99 -8 63.5 31.5Q28 71 28 144V260H112V144Q112 103 128 84.5Q144 66 170 66H175Q201 66 217 84.5Q233 103 233 144V329Q233 371 217 389Q201 407 166 407H27V728H315V655H109V481Z" glyph-name="five" horiz-adv-x="340" unicode="5" /><glyph d="M133 453 123 -133H40L50 453H9V526H51L53 605Q54 665 77.5 696.5Q101 728 162 728H200V657H175Q154 657 145 645.5Q136 634 136 606L134 526H200V453Z" glyph-name="florin" horiz-adv-x="215" unicode="&#402;" /><glyph d="M292 128V0H211V128H12V195L165 728H292V199H339L338 128ZM211 199V642L92 199Z" glyph-name="four" horiz-adv-x="349" unicode="4" /><glyph d="M303 728H368L70 0H5Z" glyph-name="fraction" horiz-adv-x="373" unicode="&#8260;" /><glyph d="M216 497H156Q130 497 118.5 480.5Q107 464 107 428V155Q107 119 118.5 102.5Q130 86 157 86H216ZM216 14H140Q75 14 50 49.5Q25 85 25 157V426Q25 497 50.5 533Q76 569 140 569H297V-3Q297 -71 261.5 -105Q226 -139 166 -139H161Q101 -139 66.5 -104.5Q32 -70 32 -17V-9H111V-15Q111 -42 126.5 -55Q142 -68 162 -68H166Q187 -68 201.5 -55Q216 -42 216 -16Z" glyph-name="g" horiz-adv-x="321" unicode="g" /><glyph d="M140 452H168Q205 452 217 474.5Q229 497 229 534V580Q229 622 213 640.5Q197 659 173 659H169Q143 659 126.5 640.5Q110 622 110 580V0H28V583Q28 655 63.5 694Q99 733 167 733H175Q241 733 278 694Q315 655 315 583V544Q315 493 299 462.5Q283 432 247 420Q286 409 303.5 377.5Q321 346 321 290V151Q321 79 283.5 39.5Q246 0 178 0H140V74H176Q201 74 219 92.5Q237 111 237 153V296Q237 336 223 358Q209 380 171 380H140Z" glyph-name="germandbls" horiz-adv-x="342" unicode="&#223;" /><glyph d="M280 605 131 642V717L280 673Z" glyph-name="grave" horiz-adv-x="401" unicode="`" /><glyph d="M285 757 138 788V860L285 822Z" glyph-name="grave.uc" horiz-adv-x="401" /><glyph d="M36 500 307 370V294L36 164V246L231 332L36 418Z" glyph-name="greater" horiz-adv-x="333" unicode="&gt;" /><glyph d="M209 252 281 87H204L131 252L204 417H281ZM89 252 162 87H85L20 226V278L85 417H162Z" glyph-name="guillemotleft" horiz-adv-x="298" unicode="&#171;" /><glyph d="M89 252 17 417H94L167 252L94 87H17ZM209 252 136 417H213L278 278V226L213 87H136Z" glyph-name="guillemotright" horiz-adv-x="298" unicode="&#187;" /><glyph d="M89 252 161 87H84L20 226V278L84 417H161Z" glyph-name="guilsinglleft" horiz-adv-x="179" unicode="&#8249;" /><glyph d="M90 252 17 417H94L158 278V226L94 87H17Z" glyph-name="guilsinglright" horiz-adv-x="179" unicode="&#8250;" /><glyph d="M217 431Q217 465 205.5 481Q194 497 166 497H109V0H27V728H109V569H182Q247 569 272.5 533.5Q298 498 298 427V0H217Z" glyph-name="h" horiz-adv-x="324" unicode="h" /><glyph d="M198 729 166 609H98L127 729ZM302 729 269 609H201L230 729Z" glyph-name="hungarumlaut" horiz-adv-x="400" unicode="&#733;" /><glyph d="M299 871 269 764H201L227 871ZM196 871 166 764H99L124 871Z" glyph-name="hungarumlaut.uc" horiz-adv-x="400" /><glyph d="M25 336H204V265H25Z" glyph-name="hyphen" horiz-adv-x="229" unicode="-" /><glyph d="M109 569V0H27V569ZM27 610V702H109V610Z" glyph-name="i" horiz-adv-x="136" unicode="i" /><glyph d="M132 720V644L7 607V677ZM109 569V0H27V569Z" glyph-name="iacute" horiz-adv-x="136" unicode="&#237;" /><glyph d="M150 670V604L69 644L-12 604V670L48 708H90ZM109 569V0H27V569Z" glyph-name="icircumflex" horiz-adv-x="136" unicode="&#238;" /><glyph d="M55 700V610H-21V700ZM158 700V610H81V700ZM109 569V0H27V569Z" glyph-name="idieresis" horiz-adv-x="136" unicode="&#239;" /><glyph d="M109 569V0H27V569ZM143 605 -6 642V717L143 673Z" glyph-name="igrave" horiz-adv-x="136" unicode="&#236;" /><glyph d="M-26 -64H-11Q12 -64 21 -52Q30 -40 30 -11V569H111V-11Q111 -72 87.5 -103.5Q64 -135 4 -135H-26ZM30 610V702H111V610Z" glyph-name="j" horiz-adv-x="138" unicode="j" /><glyph d="M308 569 186 288 313 0H224L109 267V0H27V728H109V304L224 569Z" glyph-name="k" horiz-adv-x="312" unicode="k" /><glyph d="M109 0H27V728H109Z" glyph-name="l" horiz-adv-x="136" unicode="l" /><glyph d="M297 418 101 332 297 246V164L26 294V370L297 500Z" glyph-name="less" horiz-adv-x="333" unicode="&lt;" /><glyph d="M116 464 152 482V413L116 395V0H34V354L1 338V407L34 423V728H116Z" glyph-name="lslash" horiz-adv-x="153" unicode="&#322;" /><glyph d="M368 430Q368 465 356.5 481Q345 497 317 497H279V0H197V497H109V0H27V569H334Q399 569 424 533.5Q449 498 449 426V0H368Z" glyph-name="m" horiz-adv-x="475" unicode="m" /><glyph d="M288 620H112V688H288Z" glyph-name="macron" horiz-adv-x="400" unicode="&#175;" /><glyph d="M288 774H112V837H288Z" glyph-name="macron.uc" horiz-adv-x="400" /><glyph d="M23 293V364H302V293Z" glyph-name="minus" horiz-adv-x="325" unicode="&#8722;" /><glyph d="M27 241 113 329 27 418 77 467 162 379 247 467 296 419 210 330 296 242 247 193 161 280 77 193Z" glyph-name="multiply" horiz-adv-x="323" unicode="&#215;" /><glyph d="M219 430Q219 465 207.5 481Q196 497 168 497H111V0H28V569H184Q249 569 274.5 533.5Q300 498 300 426V0H219Z" glyph-name="n" horiz-adv-x="328" unicode="n" /><glyph d="M175 66Q202 66 220 84.5Q238 103 238 144V298H160Q91 298 57 337Q23 376 23 448V585Q23 657 62.5 696.5Q102 736 170 736H177Q245 736 283.5 696.5Q322 657 322 585V143Q322 71 284 31.5Q246 -8 177 -8H169Q102 -8 63.5 31.5Q25 71 25 143V233H108V144Q108 103 126 84.5Q144 66 170 66ZM108 452Q108 372 174 372H238V583Q238 624 219.5 643Q201 662 175 662H170Q144 662 126 643Q108 624 108 583Z" glyph-name="nine" horiz-adv-x="348" unicode="9" /><glyph d="M219 430Q219 465 207.5 481Q196 497 168 497H111V0H28V569H184Q249 569 274.5 533.5Q300 498 300 426V0H219ZM64 608Q65 653 80 676.5Q95 700 124 700Q136 700 145 696.5Q154 693 161.5 688.5Q169 684 176 680.5Q183 677 191 677Q207 677 207 702H263Q262 660 247.5 635Q233 610 204 610Q191 610 181.5 613.5Q172 617 164.5 621.5Q157 626 150.5 629.5Q144 633 137 633Q121 633 121 608Z" glyph-name="ntilde" horiz-adv-x="328" unicode="&#241;" /><glyph d="M215 248H149L133 0H60L76 248H17V325H81L89 439H30V516H94L108 728H182L167 516H233L247 728H320L306 516H365V439H301L294 325H353V248H289L273 0H199ZM154 325H220L228 439H162Z" glyph-name="numbersign" horiz-adv-x="382" unicode="#" /><glyph d="M106 136Q106 99 122.5 83Q139 67 162 67H165Q188 67 204.5 83Q221 99 221 136V433Q221 470 205 486Q189 502 165 502H162Q139 502 122.5 486Q106 470 106 433ZM25 433Q25 500 61 537.5Q97 575 161 575H166Q231 575 267 537.5Q303 500 303 433V136Q303 69 267 31.5Q231 -6 166 -6H161Q97 -6 61 31.5Q25 69 25 136Z" glyph-name="o" horiz-adv-x="328" unicode="o" /><glyph d="M98 673 247 717V642L98 605ZM106 136Q106 99 122.5 83Q139 67 162 67H165Q188 67 204.5 83Q221 99 221 136V433Q221 470 205 486Q189 502 165 502H162Q139 502 122.5 486Q106 470 106 433ZM25 433Q25 500 61 537.5Q97 575 161 575H166Q231 575 267 537.5Q303 500 303 433V136Q303 69 267 31.5Q231 -6 166 -6H161Q97 -6 61 31.5Q25 69 25 136Z" glyph-name="oacute" horiz-adv-x="328" unicode="&#243;" /><glyph d="M246 670V604L165 644L84 604V670L144 708H186ZM106 136Q106 99 122.5 83Q139 67 162 67H165Q188 67 204.5 83Q221 99 221 136V433Q221 470 205 486Q189 502 165 502H162Q139 502 122.5 486Q106 470 106 433ZM25 433Q25 500 61 537.5Q97 575 161 575H166Q231 575 267 537.5Q303 500 303 433V136Q303 69 267 31.5Q231 -6 166 -6H161Q97 -6 61 31.5Q25 69 25 136Z" glyph-name="ocircumflex" horiz-adv-x="328" unicode="&#244;" /><glyph d="M66 700H147V610H66ZM184 700H264V610H184ZM106 136Q106 99 122.5 83Q139 67 162 67H165Q188 67 204.5 83Q221 99 221 136V433Q221 470 205 486Q189 502 165 502H162Q139 502 122.5 486Q106 470 106 433ZM25 433Q25 500 61 537.5Q97 575 161 575H166Q231 575 267 537.5Q303 500 303 433V136Q303 69 267 31.5Q231 -6 166 -6H161Q97 -6 61 31.5Q25 69 25 136Z" glyph-name="odieresis" horiz-adv-x="328" unicode="&#246;" /><glyph d="M494 207V137Q494 68 460.5 31Q427 -6 363 -6H358Q329 -6 302 7.5Q275 21 261 49Q247 21 220.5 7.5Q194 -6 165 -6H160Q97 -6 61 31.5Q25 69 25 136V433Q25 500 60.5 537.5Q96 575 159 575H164Q193 575 220.5 562Q248 549 261 521Q274 548 301 561.5Q328 575 357 575H362Q425 575 459.5 537.5Q494 500 494 433V265H303V137Q303 99 319.5 83Q336 67 359 67H362Q385 67 400.5 83Q416 99 416 137V207ZM106 136Q106 99 122.5 83Q139 67 162 67H165Q188 67 204.5 82Q221 97 221 130V434Q221 470 205 486Q189 502 165 502H162Q139 502 122.5 486Q106 470 106 433ZM303 334H414V433Q414 470 398.5 486Q383 502 360 502H357Q334 502 318.5 486Q303 470 303 432Z" glyph-name="oe" horiz-adv-x="517" unicode="&#339;" /><glyph d="M251 -135H217Q182 -135 162.5 -119Q143 -103 143 -77Q143 -55 157 -34Q171 -13 199 0H249Q225 -19 218 -35Q211 -51 211 -62Q211 -71 217 -78.5Q223 -86 240 -86H251Z" glyph-name="ogonek" horiz-adv-x="401" unicode="&#731;" /><glyph d="M106 136Q106 99 122.5 83Q139 67 162 67H165Q188 67 204.5 83Q221 99 221 136V433Q221 470 205 486Q189 502 165 502H162Q139 502 122.5 486Q106 470 106 433ZM25 433Q25 500 61 537.5Q97 575 161 575H166Q231 575 267 537.5Q303 500 303 433V136Q303 69 267 31.5Q231 -6 166 -6H161Q97 -6 61 31.5Q25 69 25 136ZM239 605 90 642V717L239 673Z" glyph-name="ograve" horiz-adv-x="328" unicode="&#242;" /><glyph d="M67 655H9V728H150V0H67Z" glyph-name="one" horiz-adv-x="182" unicode="1" /><glyph d="M314 728H379L81 0H17ZM336 190Q354 202 354 228V255Q354 271 347.5 280.5Q341 290 328 290H325Q311 290 304 280Q297 270 297 253V208H235V250Q235 290 256.5 317.5Q278 345 323 345H331Q374 345 396 319Q418 293 418 251V229Q418 200 407 179.5Q396 159 376 145L320 111Q308 103 304 94.5Q300 86 300 75V59H419V0H232V61Q232 93 242.5 115Q253 137 279 156ZM68 669H32V728H132V388H68Z" glyph-name="onehalf" horiz-adv-x="436" unicode="&#189;" /><glyph d="M314 728H379L81 0H17ZM203 99 279 342H374V105H405V50H374V0H312V50H203ZM68 669H32V728H132V388H68ZM312 105V282L261 105Z" glyph-name="onequarter" horiz-adv-x="421" unicode="&#188;" /><glyph d="M103 383Q56 383 34.5 407.5Q13 432 13 474V495Q13 538 34 563Q55 588 102 588H133V645Q133 679 109 679H106Q82 679 82 645V612H23V642Q23 684 42 708.5Q61 733 103 733H108Q149 733 171 711.5Q193 690 193 645V383ZM133 437V536H109Q92 536 83.5 527Q75 518 75 497V475Q75 437 109 437Z" glyph-name="ordfeminine" horiz-adv-x="208" unicode="&#170;" /><glyph d="M77 481Q77 456 85 445.5Q93 435 108 435H111Q125 435 133 445.5Q141 456 141 481V630Q141 655 133 665.5Q125 676 111 676H108Q93 676 85 665.5Q77 655 77 630ZM15 631Q15 684 41 708.5Q67 733 108 733H111Q153 733 178 708.5Q203 684 203 631V480Q203 428 177 403Q151 378 111 378H108Q67 378 41 403Q15 428 15 480Z" glyph-name="ordmasculine" horiz-adv-x="218" unicode="&#186;" /><glyph d="M25 433Q25 500 61 537.5Q97 575 161 575H166Q198 575 225 564L232 588H299L279 522Q290 505 296.5 482.5Q303 460 303 433V136Q303 69 267 31.5Q231 -6 166 -6H161Q128 -6 103 3L95 -19H32L52 42Q25 80 25 136ZM98 142 199 499Q188 506 171 506H161Q136 506 117 490Q98 474 98 436ZM167 63Q191 63 210 79Q229 95 229 133V405L130 68Q143 63 156 63Z" glyph-name="oslash" horiz-adv-x="328" unicode="&#248;" /><glyph d="M106 136Q106 99 122.5 83Q139 67 162 67H165Q188 67 204.5 83Q221 99 221 136V433Q221 470 205 486Q189 502 165 502H162Q139 502 122.5 486Q106 470 106 433ZM25 433Q25 500 61 537.5Q97 575 161 575H166Q231 575 267 537.5Q303 500 303 433V136Q303 69 267 31.5Q231 -6 166 -6H161Q97 -6 61 31.5Q25 69 25 136ZM65 608Q66 653 81 676.5Q96 700 125 700Q137 700 146 696.5Q155 693 162.5 688.5Q170 684 177 680.5Q184 677 192 677Q208 677 208 702H264Q263 660 248.5 635Q234 610 205 610Q192 610 182.5 613.5Q173 617 165.5 621.5Q158 626 151.5 629.5Q145 633 138 633Q122 633 122 608Z" glyph-name="otilde" horiz-adv-x="328" unicode="&#245;" /><glyph d="M27 569H184Q247 569 273.5 532.5Q300 496 300 424V145Q300 73 273.5 36.5Q247 0 184 0H108V-135H27ZM108 72H166Q218 72 218 143V426Q218 497 166 497H108Z" glyph-name="p" horiz-adv-x="324" unicode="p" /><glyph d="M332 0H264V665H221V0H155V359H149Q80 359 50 402.5Q20 446 20 523V564Q20 601 26.5 631Q33 661 48.5 682.5Q64 704 88.5 716Q113 728 149 728H332Z" glyph-name="paragraph" horiz-adv-x="360" unicode="&#182;" /><glyph d="M28 573Q28 657 64 703Q100 749 163 749H174V680H173Q143 679 123.5 651.5Q104 624 104 570V73Q104 19 123.5 -8.5Q143 -36 173 -36H175V-106H165Q100 -106 64 -59.5Q28 -13 28 71Z" glyph-name="parenleft" horiz-adv-x="194" unicode="(" /><glyph d="M166 71Q166 -13 130 -59.5Q94 -106 29 -106H19V-36H21Q51 -36 70.5 -8.5Q90 19 90 73V570Q90 624 70.5 651.5Q51 679 21 680H20V749H31Q94 749 130 703Q166 657 166 573Z" glyph-name="parenright" horiz-adv-x="194" unicode=")" /><glyph d="M12 622Q12 676 37 704.5Q62 733 111 733H116Q164 733 189.5 704.5Q215 676 215 622V506Q215 451 189 422.5Q163 394 116 394H111Q12 394 12 506ZM152 625Q152 676 115 676H112Q75 676 75 625V502Q75 452 112 452H115Q152 452 152 502ZM373 728H441L86 0H18ZM245 222Q245 276 270 305Q295 334 344 334H349Q397 334 422.5 305Q448 276 448 222V106Q448 52 422 23Q396 -6 349 -6H344Q295 -6 270 23Q245 52 245 106ZM385 226Q385 277 348 277H345Q308 277 308 226V102Q308 52 345 52H348Q385 52 385 102Z" glyph-name="percent" horiz-adv-x="460" unicode="%" /><glyph d="M113 93V0H28V93Z" glyph-name="period" horiz-adv-x="141" unicode="." /><glyph d="M27 389H112V296H27Z" glyph-name="periodcentered" horiz-adv-x="140" unicode="&#183;" /><glyph d="M152 625Q152 676 115 676H112Q75 676 75 625V502Q75 452 112 452H115Q152 452 152 502ZM215 506Q215 451 189 422.5Q163 394 116 394H111Q12 394 12 506V622Q12 676 37 704.5Q62 733 111 733H116Q164 733 189.5 704.5Q215 676 215 622ZM18 0 373 728H441L87 0ZM385 226Q385 277 348 277H345Q308 277 308 226V102Q308 52 345 52H348Q385 52 385 102ZM448 106Q448 52 422 23Q396 -6 349 -6H344Q295 -6 270 23Q245 52 245 106V222Q245 276 270 305Q295 334 344 334H349Q397 334 422.5 305Q448 276 448 222ZM617 226Q617 277 580 277H577Q540 277 540 226V102Q540 52 577 52H580Q617 52 617 102ZM680 106Q680 52 654 23Q628 -6 581 -6H576Q527 -6 502 23Q477 52 477 106V222Q477 276 502 305Q527 334 576 334H581Q629 334 654.5 305Q680 276 680 222Z" glyph-name="perthousand" horiz-adv-x="692" unicode="&#8240;" /><glyph d="M200 294V172H126V294H23V363H126V484H200V363H303V294Z" glyph-name="plus" horiz-adv-x="326" unicode="+" /><glyph d="M298 -135H216V0H141Q77 0 51 36.5Q25 73 25 145V424Q25 496 51 532.5Q77 569 141 569H298ZM216 497H159Q131 497 119 479.5Q107 462 107 426V143Q107 107 119 89.5Q131 72 159 72H216Z" glyph-name="q" horiz-adv-x="324" unicode="q" /><glyph d="M147 373Q212 373 212 444V597Q212 627 198.5 645.5Q185 664 159 664H154Q128 664 115 645.5Q102 627 102 597V496H21V596Q21 659 52.5 697.5Q84 736 152 736H161Q230 736 262 697Q294 658 294 594V447Q294 381 265.5 346Q237 311 183 311H180V153H100V373ZM181 93V0H97V93Z" glyph-name="question" horiz-adv-x="320" unicode="?" /><glyph d="M173 221Q108 221 108 151V-2Q108 -33 121.5 -51Q135 -69 161 -69H166Q192 -69 205 -51Q218 -33 218 -2V99H299V-2Q299 -65 267 -103Q235 -141 168 -141H159Q90 -141 57.5 -102.5Q25 -64 25 0V148Q25 214 53.5 248.5Q82 283 136 283H139V442H220V221ZM222 502H139V595H222Z" glyph-name="questiondown" horiz-adv-x="320" unicode="&#191;" /><glyph d="M92 728V561H24V728ZM196 728V561H127V728Z" glyph-name="quotedbl" horiz-adv-x="214" unicode="&quot;" /><glyph d="M108 97 90 -68H27L28 97ZM217 97 199 -68H136L137 97Z" glyph-name="quotedblbase" horiz-adv-x="241" unicode="&#8222;" /><glyph d="M25 563 43 728H106L105 563ZM134 563 152 728H215L214 563Z" glyph-name="quotedblleft" horiz-adv-x="242" unicode="&#8220;" /><glyph d="M108 728 90 563H27L28 728ZM217 728 199 563H136L137 728Z" glyph-name="quotedblright" horiz-adv-x="241" unicode="&#8221;" /><glyph d="M24 563 42 728H105L104 563Z" glyph-name="quoteleft" horiz-adv-x="133" unicode="&#8216;" /><glyph d="M108 728 90 563H27L28 728Z" glyph-name="quoteright" horiz-adv-x="131" unicode="&#8217;" /><glyph d="M108 97 90 -68H27L28 97Z" glyph-name="quotesinglbase" horiz-adv-x="132" unicode="&#8218;" /><glyph d="M94 728V561H25V728Z" glyph-name="quotesingle" horiz-adv-x="119" unicode="&apos;" /><glyph d="M203 497H159Q130 497 119 480.5Q108 464 108 429V0H27V427Q27 499 52 534Q77 569 142 569H203Z" glyph-name="r" horiz-adv-x="213" unicode="r" /><glyph d="M16 572Q16 652 53.5 695Q91 738 157 738H161Q227 738 264 695Q301 652 301 572V535Q301 456 264 413Q227 370 161 370H157Q91 370 53.5 412.5Q16 455 16 535ZM55 535Q55 472 79 438.5Q103 405 155 405H163Q209 405 236 438.5Q263 472 263 535V571Q263 637 236 669.5Q209 702 163 702H155Q103 702 79 669.5Q55 637 55 571ZM175 448V523Q175 541 156 541H144V448H105V663H168Q191 663 203.5 651Q216 639 216 615V603Q216 568 187 560Q203 558 209 550Q215 542 215 527V448ZM156 574Q168 574 172.5 580.5Q177 587 177 601V608Q177 620 172.5 625.5Q168 631 156 631H144V574Z" glyph-name="registered" horiz-adv-x="317" unicode="&#174;" /><glyph d="M281 675Q281 640 258.5 618.5Q236 597 201 597Q165 597 143 618.5Q121 640 121 675Q121 709 143 731Q165 753 201 753Q236 753 258.5 731Q281 709 281 675ZM228 675Q228 686 220 694Q212 702 201 702Q188 702 181 694Q174 686 174 675Q174 664 181.5 656Q189 648 201 648Q212 648 220 656Q228 664 228 675Z" glyph-name="ring" horiz-adv-x="400" unicode="&#730;" /><glyph d="M280 822Q280 789 257.5 768Q235 747 200 747Q165 747 143 768Q121 789 121 822Q121 855 143 875.5Q165 896 200 896Q235 896 257.5 875.5Q280 855 280 822ZM227 822Q227 833 219.5 840.5Q212 848 200 848Q188 848 180.5 840.5Q173 833 173 822Q173 811 180.5 803.5Q188 796 200 796Q212 796 219.5 803.5Q227 811 227 822Z" glyph-name="ring.uc" horiz-adv-x="400" /><glyph d="M219 294Q235 282 247 270.5Q259 259 267 245Q275 231 278.5 212Q282 193 282 168V126Q282 65 248 29.5Q214 -6 153 -6H148Q84 -6 50 31Q16 68 16 135V207H94V130Q94 98 109.5 82.5Q125 67 147 67H150Q172 67 187.5 82Q203 97 203 127V167Q203 191 195 205Q187 219 169 231L83 292Q50 315 33.5 341.5Q17 368 17 417V441Q17 504 48.5 539.5Q80 575 143 575H149Q212 575 245.5 538.5Q279 502 279 433V374H202V434Q202 469 186.5 485.5Q171 502 149 502H146Q123 502 109 487Q95 472 95 443V418Q95 395 103.5 381.5Q112 368 129 356Z" glyph-name="s" horiz-adv-x="300" unicode="s" /><glyph d="M172 606H130L70 644V710L151 670L232 710V644ZM219 294Q235 282 247 270.5Q259 259 267 245Q275 231 278.5 212Q282 193 282 168V126Q282 65 248 29.5Q214 -6 153 -6H148Q84 -6 50 31Q16 68 16 135V207H94V130Q94 98 109.5 82.5Q125 67 147 67H150Q172 67 187.5 82Q203 97 203 127V167Q203 191 195 205Q187 219 169 231L83 292Q50 315 33.5 341.5Q17 368 17 417V441Q17 504 48.5 539.5Q80 575 143 575H149Q212 575 245.5 538.5Q279 502 279 433V374H202V434Q202 469 186.5 485.5Q171 502 149 502H146Q123 502 109 487Q95 472 95 443V418Q95 395 103.5 381.5Q112 368 129 356Z" glyph-name="scaron" horiz-adv-x="300" unicode="&#353;" /><glyph d="M99 107V39Q99 7 116.5 -9Q134 -25 157 -25H164Q187 -25 204 -10Q221 5 221 37V84Q221 106 212 118.5Q203 131 185 142L103 194Q59 222 39.5 259Q20 296 20 360V599Q20 662 55 699Q90 736 152 736H162Q225 736 260.5 700Q296 664 296 594V540H218V594Q218 630 201.5 646.5Q185 663 162 663H154Q131 663 115 648Q99 633 99 602V572Q99 549 108.5 536Q118 523 135 512L220 456Q241 442 256.5 427.5Q272 413 282 393.5Q292 374 296.5 349Q301 324 301 290V39Q301 -24 264 -61Q227 -98 166 -98H157Q94 -98 57.5 -61.5Q21 -25 21 44V107ZM224 215V286Q224 324 209 349.5Q194 375 168 392L96 440V364Q96 326 111 301.5Q126 277 153 260Z" glyph-name="section" horiz-adv-x="320" unicode="&#167;" /><glyph d="M111 93 92 -69H28V93ZM113 473V380H28V473Z" glyph-name="semicolon" horiz-adv-x="142" unicode=";" /><glyph d="M218 655H8V728H304V671L155 0H67Z" glyph-name="seven" horiz-adv-x="316" unicode="7" /><glyph d="M109 430H186Q255 430 289 391Q323 352 323 280V143Q323 71 283.5 31.5Q244 -8 176 -8H169Q101 -8 62.5 31.5Q24 71 24 143V585Q24 657 62.5 696.5Q101 736 169 736H177Q244 736 282.5 696.5Q321 657 321 585V495H238V584Q238 625 220 643.5Q202 662 176 662H172Q144 662 126.5 643.5Q109 625 109 584ZM109 357V145Q109 104 127 85Q145 66 171 66H176Q202 66 220 85Q238 104 238 145V277Q238 357 172 357Z" glyph-name="six" horiz-adv-x="346" unicode="6" /><glyph d="M148 751H224L82 -110H6Z" glyph-name="slash" horiz-adv-x="242" unicode="/" /><glyph glyph-name="space" horiz-adv-x="90" unicode=" " /><glyph d="M237 -33 220 -146H162V-33Z" glyph-name="space_uni0326" horiz-adv-x="399" unicode="&#63171;" /><glyph d="M12 74H57V292H11V363H57V594Q57 660 92 698Q127 736 191 736H199Q263 736 297 698Q331 660 331 597V495H250V592Q250 626 235.5 644Q221 662 198 662H193Q170 662 155.5 644Q141 626 141 592V363H275V292H141V74H334V0H12Z" glyph-name="sterling" horiz-adv-x="352" unicode="&#163;" /><glyph d="M141 497V0H59V497H5V569H59V679H141V569H204V497Z" glyph-name="t" horiz-adv-x="209" unicode="t" /><glyph d="M27 728H108V569H184Q247 569 273.5 532.5Q300 496 300 424V145Q300 73 273.5 36.5Q247 0 184 0H108V-135H27ZM108 72H166Q218 72 218 143V426Q218 497 166 497H108Z" glyph-name="thorn" horiz-adv-x="324" unicode="&#254;" /><glyph d="M132 424H166Q203 424 217.5 446.5Q232 469 232 506V583Q232 625 213.5 643.5Q195 662 170 662H165Q139 662 121 643.5Q103 625 103 583V495H21V585Q21 657 58 696.5Q95 736 164 736H172Q240 736 278.5 696.5Q317 657 317 585V515Q317 464 300 433Q283 402 245 391Q319 369 319 261V144Q319 71 280 31.5Q241 -8 173 -8H165Q96 -8 58.5 31.5Q21 71 21 143V260H102V145Q102 103 121 84.5Q140 66 166 66H171Q196 66 215 84.5Q234 103 234 145V268Q234 308 219 330Q204 352 166 352H132Z" glyph-name="three" horiz-adv-x="341" unicode="3" /><glyph d="M363 728H428L130 0H65ZM252 99 327 342H423V105H453V50H423V0H360V50H252ZM83 481Q83 442 112 442H115Q143 442 143 479V496Q143 516 136 527Q129 538 110 538H87V593H110Q129 593 135.5 603Q142 613 142 630V642Q142 658 135 668.5Q128 679 114 679H111Q83 679 83 638V621H20V638Q20 680 41 707Q62 734 110 734H117Q162 734 185 709Q208 684 208 647V634Q208 579 156 570Q187 563 199 542Q211 521 211 493V478Q211 437 187 410.5Q163 384 117 384H110Q63 384 41.5 410.5Q20 437 20 480V504H83ZM360 105V280L309 105Z" glyph-name="threequarters" horiz-adv-x="470" unicode="&#190;" /><glyph d="M101 608Q102 653 117 676.5Q132 700 161 700Q173 700 182 696.5Q191 693 198.5 688.5Q206 684 213 680.5Q220 677 228 677Q244 677 244 702H300Q299 660 284.5 635Q270 610 241 610Q228 610 218.5 613.5Q209 617 201.5 621.5Q194 626 187.5 629.5Q181 633 174 633Q158 633 158 608Z" glyph-name="tilde" horiz-adv-x="399" unicode="&#732;" /><glyph d="M100 762Q101 847 160 847Q172 847 181 843.5Q190 840 197.5 836Q205 832 212 828.5Q219 825 227 825Q244 825 244 849H299Q297 764 240 764Q227 764 217.5 767.5Q208 771 200.5 775Q193 779 186.5 782.5Q180 786 172 786Q156 786 156 762Z" glyph-name="tilde.uc" horiz-adv-x="399" /><glyph d="M338 446H293V689L262 446H212L179 697V446H134V728H215L238 532L258 728H338ZM38 446V686H4V728H120V686H85V446Z" glyph-name="trademark" horiz-adv-x="352" unicode="&#8482;" /><glyph d="M195 436Q215 461 221 479.5Q227 498 227 527V593Q227 626 210 644Q193 662 167 662H162Q136 662 119.5 644Q103 626 103 593V495H19V596Q19 660 55.5 698Q92 736 161 736H169Q238 736 275 697.5Q312 659 312 593V524Q312 500 309 483Q306 466 299.5 451Q293 436 283 422Q273 408 260 390L133 228Q123 215 117 204.5Q111 194 108 183.5Q105 173 104 161.5Q103 150 103 135V73H310V0H18V136Q18 159 20.5 177Q23 195 28.5 210Q34 225 43 239.5Q52 254 65 270Z" glyph-name="two" horiz-adv-x="328" unicode="2" /><glyph d="M107 139Q107 104 118.5 88Q130 72 157 72H215V569H296V0H141Q76 0 50.5 35.5Q25 71 25 143V569H107Z" glyph-name="u" horiz-adv-x="324" unicode="u" /><glyph d="M89 673 238 717V642L89 605ZM107 139Q107 104 118.5 88Q130 72 157 72H215V569H296V0H141Q76 0 50.5 35.5Q25 71 25 143V569H107Z" glyph-name="uacute" horiz-adv-x="324" unicode="&#250;" /><glyph d="M244 670V604L163 644L82 604V670L142 708H184ZM107 139Q107 104 118.5 88Q130 72 157 72H215V569H296V0H141Q76 0 50.5 35.5Q25 71 25 143V569H107Z" glyph-name="ucircumflex" horiz-adv-x="324" unicode="&#251;" /><glyph d="M64 700H145V610H64ZM182 700H262V610H182ZM107 139Q107 104 118.5 88Q130 72 157 72H215V569H296V0H141Q76 0 50.5 35.5Q25 71 25 143V569H107Z" glyph-name="udieresis" horiz-adv-x="324" unicode="&#252;" /><glyph d="M107 139Q107 104 118.5 88Q130 72 157 72H215V569H296V0H141Q76 0 50.5 35.5Q25 71 25 143V569H107ZM237 605 88 642V717L237 673Z" glyph-name="ugrave" horiz-adv-x="324" unicode="&#249;" /><glyph d="M6 -100V-36H277V-100Z" glyph-name="underscore" horiz-adv-x="283" unicode="_" /><glyph glyph-name="uni00A0" horiz-adv-x="90" unicode="&#160;" /><glyph d="M305 569 209 0H104L4 569H89L139 235L157 98L175 235L225 569Z" glyph-name="v" horiz-adv-x="310" unicode="v" /><glyph d="M470 569 399 0H295L245 368L238 446L231 368L181 0H77L6 569H90L125 210L133 100L143 205L194 569H285L337 205L348 94L356 210L392 569Z" glyph-name="w" horiz-adv-x="476" unicode="w" /><glyph d="M297 569 207 296 305 0H220L153 225L85 0H3L102 299L9 569H95L157 367L218 569Z" glyph-name="x" horiz-adv-x="309" unicode="x" /><glyph d="M304 569 167 -135H86L123 52L3 569H89L161 193L223 569Z" glyph-name="y" horiz-adv-x="308" unicode="y" /><glyph d="M304 569 167 -135H86L123 52L3 569H89L161 193L223 569ZM83 673 232 717V642L83 605Z" glyph-name="yacute" horiz-adv-x="308" unicode="&#253;" /><glyph d="M304 569 167 -135H86L123 52L3 569H89L161 193L223 569ZM58 700H139V610H58ZM176 700H256V610H176Z" glyph-name="ydieresis" horiz-adv-x="308" unicode="&#255;" /><glyph d="M303 135H209V0H124V135H25V200H124V246H25V311H111L-2 728H85L167 395L241 728H324L217 311H303V246H209V200H303Z" glyph-name="yen" horiz-adv-x="322" unicode="&#165;" /><glyph d="M13 497V569H248V497L94 72H251V0H12V72L168 497Z" glyph-name="z" horiz-adv-x="263" unicode="z" /><glyph d="M154 606H112L52 644V710L133 670L214 710V644ZM13 497V569H248V497L94 72H251V0H12V72L168 497Z" glyph-name="zcaron" horiz-adv-x="263" unicode="&#382;" /><glyph d="M27 586Q27 658 65.5 697Q104 736 173 736H180Q248 736 288 697Q328 658 328 586V143Q328 71 288 31.5Q248 -8 180 -8H173Q104 -8 65.5 31.5Q27 71 27 143ZM242 584Q242 625 223.5 643.5Q205 662 179 662H175Q147 662 129 643.5Q111 625 111 584V144Q111 103 129 84.5Q147 66 175 66H179Q205 66 223.5 84.5Q242 103 242 144Z" glyph-name="zero" horiz-adv-x="354" unicode="0" /></font>
</defs>
</svg>
