<?xml version="1.0" standalone="no"?>
<!DOCTYPE svg PUBLIC "-//W3C//DTD SVG 1.1//EN" "http://www.w3.org/Graphics/SVG/1.1/DTD/svg11.dtd" >
<svg xmlns="http://www.w3.org/2000/svg">
<metadata>
This is a custom SVG webfont generated by Font Squirrel.
Copyright   : 1993 2002 2006 by Brian Willson dba Three Islands Press 3IP Rockland ME USA www3ipcom All rights reserved worldwide Marydale is a trademark of Brian Willson3IP
</metadata>
<defs>
<font id="MarydaleBlackRegular" horiz-adv-x="798" >
<font-face units-per-em="2048" ascent="1638" descent="-410" />
<missing-glyph horiz-adv-x="500" />
<glyph unicode=" " />
<glyph unicode="!" horiz-adv-x="632" d="M154 -176q0 125 106 125q55 0 90 -36t35 -89q0 -139 -115 -143q-49 0 -86 53q-30 47 -30 90zM172 367q0 18 2 39l72 768l8 153q8 117 25 135q43 41 106 41q111 0 111 -190q0 -260 -80 -721q-23 -139 -23 -164v-10q0 -18 9.5 -54t9.5 -55q0 -49 -33 -85t-82 -36 q-51 0 -84 43q-41 48 -41 136z" />
<glyph unicode="&#x22;" horiz-adv-x="657" d="M76 1114q0 45 12 100q8 39 45 146q37 98 42 141t32 84q37 51 88 51q14 0 27 -4q76 -18 75 -129q0 -43 -17.5 -82t-49.5 -143q-37 -111 -37 -139q0 -10 2 -31t2 -31q0 -49 -32 -92t-79 -43q-45 0 -77.5 44t-32.5 128zM340 1063q0 45 12 94q20 88 64 172q53 106 108 133 q25 12 51 13q45 0 77 -30t32 -73q0 -35 -39 -102l-59 -101q-39 -78 -41 -135q-6 -131 -99 -131q-43 0 -74.5 43t-31.5 117z" />
<glyph unicode="#" horiz-adv-x="1302" d="M0 625q0 94 139 94q12 0 36 -2t34 -2q57 0 147 22l6 103q-143 -49 -196 -49q-57 0 -98 38.5t-41 83.5t46 69t302 93q23 330 33 350q23 41 90 41q76 0 96 -63q8 -25 8 -96q0 -55 -8 -168l49 14q18 264 44 288.5t75 24.5q104 0 112 -96q2 -18 3 -41q0 -41 -7 -112 q207 43 244 43q80 0 117 -37q20 -23 20 -52q0 -47 -53 -65q-115 -29 -346 -100q-4 -51 -14 -152q250 53 299 70q92 27 186 26q86 0 86 -41q0 -20 -20 -49q-39 -53 -320 -139q-80 -27 -248 -76q-2 -35 -2 -51q0 -45 15 -70q33 -55 32 -102q0 -49 -31.5 -79t-74.5 -30 q-55 0 -86 43q-49 70 -60 230l-53 -17l-12 -157v-9q0 -12 4 -35.5t4 -35.5v-2q-2 -102 -115 -103q-51 0 -90 28t-39 73q0 25 14.5 54.5t16.5 131.5q-113 -20 -168 -20q-78 0 -127 40t-49 91zM573 791l52 12l6 127l-51 -17z" />
<glyph unicode="$" horiz-adv-x="1241" d="M8 891q0 125 150 221q20 12 252 123q2 37 2 63q0 16 -2 48t-2 49q0 66 25.5 95.5t98.5 29.5q98 0 99 -138v-31v-31v-17l24 8q2 14 2 24v2q0 25 -2 64t-2 53q0 53 16.5 72.5t69.5 19.5q78 0 103 -49q12 -31 14 -119v-22q29 4 53 4q86 0 133 -43q39 -37 39 -96 q0 -47 -37.5 -88t-85.5 -41q-57 0 -71 75h-4q-8 0 -29 -8q-8 -104 -25 -399q406 -110 406 -344q0 -297 -404 -484v-6q0 -31 9 -67q12 -29 12 -64q0 -92 -80 -123q-16 -6 -35 -6q-80 0 -127 74q0 -35 4 -80q20 -31 21 -76q0 -127 -127 -127q-49 0 -84 60q-27 49 -31 106 q-8 74 -16 232q-166 10 -219 116q-23 43 -23 82q0 63 51.5 102.5t114.5 39.5q41 0 70 -17h2q-8 250 -8 297q0 78 4 148q-164 31 -238 71q-123 68 -123 197zM262 913q0 -43 45 -59q16 -6 80 -14l6 80q8 98 8 106q-139 -60 -139 -113zM328 78q0 -29 47 -33q0 51 -2 78 q-45 -35 -45 -45zM582 317q0 -35 6 -231l14 4v55v83v100q0 135 4 252l-20 2q-4 -132 -4 -265zM598 809h23q8 111 24 293q-10 -6 -24 -8q-9 -74 -23 -285zM811 168q178 109 178 233q0 83 -174 138q-4 -158 -4 -279v-92z" />
<glyph unicode="%" horiz-adv-x="1130" d="M31 793q0 102 80 235q74 127 152.5 174t160.5 47q96 0 162.5 -63.5t66.5 -157.5q0 -115 -102 -223q-61 -68 -154 -115q-102 -53 -188 -53q-94 0 -148 63q-30 36 -30 93zM115 -389q0 49 39 98l137 354q197 494 473 1090q74 158 131 227q53 61 129 88q25 10 47 11 q53 0 88 -43t35 -95q0 -61 -47 -84q-68 -35 -98.5 -63.5t-63.5 -97.5q-618 -1303 -620 -1463q0 -150 -115 -149q-51 0 -93 37t-42 90zM248 879q0 -14 14 -15q35 0 105.5 53.5t70.5 92.5q0 31 -32 30q-41 0 -99.5 -64t-58.5 -97zM547 -63q0 96 67 223q31 59 87.5 128.5 t76.5 69.5q76 0 115 -28q59 -43 98 -174q16 -57 17 -111q0 -129 -93 -211q-82 -76 -188 -76q-78 0 -125 45q-55 48 -55 134zM735 2q0 -35 19 -35q20 0 34.5 31t14.5 68q0 43 -17 43q-20 0 -43 -62q-8 -20 -8 -45z" />
<glyph unicode="&#x26;" horiz-adv-x="1026" d="M70 330q0 211 258 395q-113 39 -113 123q0 61 57 131q98 119 246 188q-37 66 -72 295q-4 31 -4 54q0 109 105 108h24q74 -8 91 -106q16 -80 16 -218q0 -57 -6 -94q57 -4 90 -45q27 -35 26 -82q0 -94 -75 -94q-18 0 -39 8t-25 8q-27 0 -94 -36q-59 -35 -84 -58 q10 -2 27 -2q8 0 26 2h31q150 0 150 -98q0 -41 -84 -109l-199 -147q-133 -111 -133 -197q0 -29 16 -55q25 -45 105 -45q98 0 227 80q57 33 180 135q59 49 101 49q20 0 41.5 -16.5t21.5 -34.5q0 -41 -59 -129q-74 -111 -180.5 -184.5t-180.5 -98.5q16 -41 41 -217 q25 -168 25 -225q0 -125 -101 -125q-63 0 -89.5 54.5t-49.5 203.5q-18 137 -18 238q0 27 2 43q-209 12 -279 184q-22 58 -22 117z" />
<glyph unicode="'" horiz-adv-x="417" d="M141 1206q0 109 31 225.5t68 145.5q31 25 75 25q100 0 101 -103q0 -41 -47 -205q-43 -150 -43 -151q-41 -100 -107 -101q-78 2 -78 164z" />
<glyph unicode="(" horiz-adv-x="688" d="M37 283q0 289 113 612q94 272 233 481q127 195 195 195q43 0 76.5 -42t33.5 -87q0 -53 -41 -113l-92 -129q-303 -457 -303 -919q0 -45 4 -91q16 -227 68 -317q27 -47 51 -47q94 0 143 -43q41 -39 41 -96q0 -59 -40 -106.5t-99 -47.5q-16 0 -31 4q-70 14 -150.5 105.5 t-111.5 152.5q-61 129 -84 361q-6 61 -6 127z" />
<glyph unicode=")" horiz-adv-x="835" d="M-123 -582q0 55 21 86q31 39 77 50l62 12q229 125 361 346t132 483q0 39 -2 78q-33 408 -170 670q-96 184 -163 205q-135 37 -136 129q0 43 15 69q29 53 108 53q51 0 94 -18q117 -51 248 -266q197 -322 240 -805q6 -59 6 -117q0 -643 -641 -1036l-52 -43q-26 -20 -81 -21 q-119 0 -119 125z" />
<glyph unicode="*" horiz-adv-x="1062" d="M100 985q0 90 138 131l106 41l-45 92q-27 59 -27 97q0 74 90 73q66 0 136 -131q23 55 37 84q31 59 51 68q29 10 65 10q104 0 109 -84q0 -29 -45 -127q68 6 106 6q55 0 97 -10q86 -20 86 -90q0 -41 -30 -73t-71 -32q-43 0 -82 39q-4 2 -8 2t-180 -37l-17 -38 q14 -41 33 -84q70 -47 70 -109q0 -39 -27.5 -66.5t-64.5 -27.5q-57 0 -103 63l-20 -49q0 -133 -92 -133q-45 0 -82 33t-37 74t37 73q8 12 59 201q-49 -14 -76 -37q-57 -49 -114 -49q-41 0 -70 26.5t-29 63.5z" />
<glyph unicode="+" horiz-adv-x="1234" d="M0 440q0 27 14 49q8 14 97 54q106 49 235 90q-2 8 -4 74q-2 49 -2 81q0 166 74 189q29 8 53 8q106 0 108 -147q0 -35 3 -140q426 121 550 121q102 -2 103 -90q0 -45 -28.5 -80t-76.5 -35q-6 0 -20 2t-21 2q-59 0 -503 -129l6 -294v-7q0 -131 -99 -131q-33 0 -77 21 q-43 29 -58 104v20v38q0 94 -2 180q-166 -51 -196 -78q-23 -12 -45 -12q-45 0 -78 34.5t-33 75.5z" />
<glyph unicode="," horiz-adv-x="485" d="M-43 -387q0 63 51 190l70 168q45 135 90 174q20 18 51 19q33 0 68 -23.5t35 -54.5q0 -57 -132 -332q25 -14 25 -53q0 -70 -58.5 -118t-129.5 -48q-70 0 -70 78z" />
<glyph unicode="-" horiz-adv-x="1050" d="M61 496q0 82 91 112q39 12 147 23q213 18 438 18q152 0 181 -14q70 -35 69 -82q0 -33 -32.5 -61.5t-64.5 -35.5t-83 -7l-72 2q-170 0 -325 -23q-182 -25 -203 -25q-144 1 -146 93z" />
<glyph unicode="." horiz-adv-x="473" d="M96 61q0 53 40 99.5t93 46.5q47 0 83 -36t36 -95q0 -45 -44 -85t-87 -40q-39 0 -80 35.5t-41 74.5z" />
<glyph unicode="/" horiz-adv-x="731" d="M-72 -360q0 18 6 38l46 209q55 221 165 510q127 338 195 500q117 279 227 485q53 98 133 99q47 0 79 -34t32 -85q0 -63 -53 -125q-23 -29 -66 -92q-375 -762 -520 -1342q-14 -57 -22 -168q-8 -123 -105 -122q-45 0 -81 36t-36 91z" />
<glyph unicode="0" horiz-adv-x="1290" d="M0 344q0 203 150 483q137 254 258 351q63 49 108 49q27 0 57 -15q119 35 226 35q211 0 338 -117.5t127 -300.5q0 -246 -232 -479q-156 -158 -338 -260q-201 -113 -360 -113q-115 0 -195 64q-139 106 -139 303zM223 356q0 -88 51 -131q41 -33 101 -32q143 0 456 260 q211 174 211 366q0 104 -77 174q-53 47 -156 47q-88 0 -184.5 -34.5t-145.5 -79.5q-66 -63 -65 -92q0 -18 51 -41t51 -62q0 -33 -47 -58.5t-90 -25.5q-29 0 -66 17q-90 -183 -90 -308z" />
<glyph unicode="1" horiz-adv-x="835" d="M43 772q0 35 14 55q37 53 107 119l115 111q2 2 133 157q102 125 129 129h10q129 0 129 -106q0 -29 -14 -123q-113 -788 -113 -936q0 -18 2 -24q16 -39 16 -62q0 -55 -32.5 -91t-86 -36t-93.5 36t-40 95q0 31 11 64q10 162 43 389l55 385l-184 -191q-92 -96 -107 -98h-8 q-39 0 -62.5 40t-23.5 87z" />
<glyph unicode="2" horiz-adv-x="1093" d="M49 995q0 51 41 105q74 94 189.5 151.5t236.5 57.5q168 0 281 -113q74 -72 73 -184q0 -123 -88 -293q-63 -123 -178 -279l-143 -186q115 33 387 90q25 6 47 6q72 0 113 -41q35 -37 34 -88q0 -109 -96 -125q-18 -4 -31 -4q-18 0 -41.5 11.5t-35.5 11.5q-27 0 -142 -27 q-129 -31 -217 -61l-147 -56q-113 -39 -172 -39q-45 0 -74 33t-29 80q0 23 9 43q10 35 100 135q125 143 270 352q213 305 213 422q0 35 -20 52q-51 43 -131 43q-74 0 -141.5 -36t-90.5 -91q-35 -80 -106 -80q-43 0 -77 31.5t-34 78.5z" />
<glyph unicode="3" horiz-adv-x="1093" d="M31 1104q0 68 94 108h45q-14 0 307 23q59 4 117 4q205 0 235 -43q16 -23 17 -53q0 -154 -365 -449q227 -23 367 -137q156 -129 158 -348q0 -293 -279 -586q-111 -117 -305 -262q-76 -57 -115 -57q-27 0 -53 14q-88 45 -88 119q0 49 39 86t92 37q8 0 18 -2 q252 199 359.5 347t107.5 294q0 27 -4 53q-16 145 -205 203q-70 20 -301 45q-45 4 -82 37q-45 37 -45 92q0 20 9 45q10 33 159 145q53 53 201 191q-328 -31 -350 -31h-4q-43 2 -86 41t-43 84z" />
<glyph unicode="4" horiz-adv-x="1148" d="M-10 655q0 37 33 64q141 115 213 225q23 37 155 293l47 104q33 66 61.5 97.5t65.5 31.5q47 0 85 -43t38 -98q0 -39 -22 -72q-43 -61 -134 -235q-78 -150 -145 -229q66 14 209 32l55 340q8 39 19 68q29 70 65 80q14 4 27 4q51 0 91 -44t40 -91q0 -8 -2 -17 q-4 -33 -20.5 -100.5t-43.5 -237.5q78 -6 166 -22q98 -18 99 -92q0 -35 -28 -62.5t-69 -27.5q-23 0 -68.5 4t-70.5 4q-27 0 -57 -2q-61 -422 -68 -506q25 -51 25 -103q0 -115 -105 -114q-31 0 -69 12q-109 33 -109 131q0 37 16 80q4 14 76 475q-106 -18 -211 -39 q-166 -31 -233 -30q-29 0 -43 4q-31 10 -59.5 44.5t-28.5 71.5z" />
<glyph unicode="5" horiz-adv-x="1259" d="M43 854q0 20 8 39q16 37 127 162q117 133 144 133q6 0 46 21.5t89 25.5q72 0 231 12q131 18 316 25q174 6 176 8q23 4 49 4q172 0 172 -125q0 -100 -107 -100q-39 0 -77 18q-14 6 -56 6q-66 0 -315.5 -27.5t-343.5 -27.5q-39 0 -64 4q-12 -33 -47 -76q317 -14 473 -125 q137 -96 137 -253q0 -205 -198.5 -401.5t-403.5 -196.5q-150 0 -237 124q-37 53 -37 101q0 49 36 79.5t81 30.5q76 0 102 -69q0 -16 4 -31q27 -14 62 -14q125 0 243.5 125t118.5 252q0 174 -354 174q-43 0 -126 -9.5t-126 -9.5q-47 0 -85 37t-38 84z" />
<glyph unicode="6" horiz-adv-x="1013" d="M78 362q0 264 96 494q80 186 195 358q121 182 188 203q18 6 37 6q53 0 89 -43t36 -94q0 -84 -86 -98q-115 -92 -217.5 -301t-124.5 -400q84 123 188 203q125 98 240 98q51 0 98 -22q113 -51 113 -215q0 -180 -146 -332q-242 -250 -438 -250q-78 0 -143 43 q-125 82 -125 350zM373 240q0 -27 26 -27q74 0 211 135q127 125 127 187q0 33 -37 32q-70 0 -198.5 -132t-128.5 -195z" />
<glyph unicode="7" horiz-adv-x="1136" d="M-29 1147q0 47 50.5 72.5t269.5 44.5q207 16 424 16q319 0 356 -37q16 -29 16 -63q0 -61 -57 -107q-18 -14 -37 -20q-29 -8 -39 -13q-53 -25 -176 -223h41q145 0 164 -14q53 -41 53 -105q0 -76 -108 -82q-76 -2 -246 -14q-51 -113 -96 -287q-47 -180 -47 -270 q0 -10 2 -31.5t2 -31.5q0 -121 -101 -121q-51 0 -95 36.5t-44 88.5q0 10 2 26q45 346 127 574q-29 -2 -47 -2q-109 0 -109 104q0 102 246 115q47 92 158 266q-141 -6 -485 -45q-57 -6 -89 -6q-29 0 -47 4q-31 10 -59.5 48t-28.5 77z" />
<glyph unicode="8" horiz-adv-x="1290" d="M23 864q0 168 124 295q82 82 129 96q53 8 107 15q113 35 162 45q76 16 174 16q248 0 342 -147q41 -63 41 -133q0 -141 -131 -222q172 -27 235 -118q57 -82 58 -168q0 -217 -301 -402q-285 -174 -572 -174q-166 0 -256 74q-104 84 -104 246q0 121 59 200q66 92 119 138 q-186 71 -186 239zM246 844q0 -12 35.5 -30.5t97.5 -18.5q109 0 256 65q240 106 239 180q0 16 -10 33q-39 55 -162 55q-127 0 -241 -51q-125 -51 -125 -116q0 -41 53 -107q-25 -18 -65 -18q-14 0 -40 6t-34 6q-4 0 -4 -4zM250 303q0 -41 31 -78q43 -51 143 -51 q174 0 388 122t214 228q0 35 -27 60q-49 51 -174 51q-145 0 -288 -60q-117 -49 -197 -120q-90 -78 -90 -152z" />
<glyph unicode="9" horiz-adv-x="1218" d="M37 694q0 207 176 363q211 188 440 188q141 0 260 -76q217 -139 217 -440q0 -213 -106 -471q-127 -309 -387 -571q-203 -203 -289 -224q-23 -6 -41 -6q-49 0 -78.5 30t-29.5 69q0 43 34 69q563 428 652 930q-260 -166 -504 -166q-123 0 -207 53q-137 88 -137 252z M262 711q0 -33 14 -62q25 -49 115 -49q123 0 286 81t210 171q-31 174 -217 174q-94 0 -189 -49q-219 -119 -219 -266z" />
<glyph unicode=":" horiz-adv-x="491" d="M88 78q0 72 43 112q37 39 90 39q49 0 83 -34.5t34 -96.5q0 -51 -37 -99t-86 -48q-127 0 -127 127zM109 719q0 74 41 117q35 37 84 36.5t79 -32.5q37 -39 37 -101q0 -63 -31 -116q-37 -63 -96 -64q-47 0 -80.5 53.5t-33.5 106.5z" />
<glyph unicode=";" horiz-adv-x="485" d="M-43 -387q0 63 51 190l70 168q45 135 90 174q20 18 51 19q33 0 68 -23.5t35 -54.5q0 -57 -132 -332q25 -14 25 -53q0 -70 -58.5 -118t-129.5 -48q-70 0 -70 78zM113 725q0 145 129 145q111 0 110 -139q0 -63 -28 -117q-37 -66 -95 -65q-49 0 -82.5 54t-33.5 122z" />
<glyph unicode="&#x3c;" horiz-adv-x="1056" d="M84 449q0 33 33 73q53 70 186 228q170 201 203 223q41 29 90 28q45 0 77 -23.5t32 -59.5q0 -12 -5 -25q-10 -41 -169 -227l-158 -187q221 -53 286 -73q150 -47 261 -123q55 -37 55 -84q0 -59 -78 -60q-35 0 -117 23.5t-303 73.5l-184 32q-98 25 -153.5 84.5t-55.5 96.5z " />
<glyph unicode="=" horiz-adv-x="1204" d="M-6 563q0 35 28.5 72t104.5 45q59 4 117 10q686 113 782 113q49 0 83 -33t34 -76q0 -106 -174 -111t-660 -91q-141 -25 -180 -25q-14 0 -25 2q-110 24 -110 94zM45 299q0 43 28.5 72.5t73.5 34.5q70 8 445 69q326 51 438 51q55 0 76 -10q57 -31 57 -96q0 -61 -96 -76 q-27 -4 -45 -4h-14q-10 2 -15 2q-63 0 -256 -33l-243 -43q-82 -16 -164 -35q-125 -27 -189 -26q-96 0 -96 94z" />
<glyph unicode="&#x3e;" horiz-adv-x="1075" d="M66 944q0 49 33.5 79t84.5 32q45 0 86 -41l39 -45l430 -178q268 -123 269 -219q0 -65 -164 -183q-82 -59 -320 -201q-184 -111 -202 -141q-14 -117 -125 -117q-47 0 -84 29t-37 74q0 47 41 96q78 96 362 281l234 151q-2 -2 -207 86q-393 168 -430 252q-10 20 -10 45z" />
<glyph unicode="?" horiz-adv-x="1161" d="M117 1174q0 61 100 149t246.5 149.5t304.5 61.5q254 0 326 -162q31 -70 30 -143q0 -330 -686 -709q-6 -4 -6 -10q0 -20 60 -109q66 -98 79 -141q8 -29 9 -53q0 -61 -43 -97t-99 -36q-49 0 -84 30.5t-35 88.5q0 -6 3 36q0 18 -68 140q-57 104 -57 258v35q76 31 147 65 q172 84 303 176q252 178 252 309q0 43 -26.5 75t-124.5 32q-111 0 -222 -41q-125 -43 -157 -111q-18 -35 -61.5 -60.5t-86.5 -25.5q-41 0 -72.5 27t-31.5 66zM330 -180q0 68 41 106q39 33 94 33t95 -33t40 -88q0 -53 -35 -98q-41 -51 -100 -51t-97 39t-38 92z" />
<glyph unicode="@" horiz-adv-x="1212" d="M78 442q0 250 162 521q100 166 262 288q176 133 329 133q129 0 216 -102q100 -119 100 -293q0 -193 -107 -325q-143 -180 -346 -246q-154 -164 -270 -164q-41 0 -66 25q-43 43 -43 122q0 131 90.5 264.5t196.5 133.5q82 0 131 -70q20 -29 27 -63q160 131 162 344 q0 135 -103 135q-82 0 -196.5 -89t-200.5 -225q-137 -217 -137 -415q0 -139 90 -195q25 -14 61 -14q131 0 385 178q33 88 107 88q45 0 83 -33.5t38 -81.5q0 -61 -76 -108q-233 -152 -260 -166q-168 -92 -295 -92q-86 0 -162 45t-125 147q-53 113 -53 258z" />
<glyph unicode="A" horiz-adv-x="1277" d="M47 94q0 70 55 221q-47 37 -47 84t42 88t96 56l374 827q43 96 117 96q86 0 111 -125q6 -55 41 -221q23 -78 98 -393l192 57q41 20 78 21q47 0 74 -33t27 -78q0 -49 -30 -84t-85 -35q-16 0 -35 5l-176 -52l108 -471q55 -53 56 -106q0 -55 -74 -96q-18 -10 -43 -11 q-49 0 -91 37t-42 86l-119 496q-217 -66 -440 -150q-57 -119 -66 -188q-16 -123 -116 -123q-74 0 -103 74q-2 6 -2 18zM444 592q172 35 283 70q-33 135 -90 333q-113 -219 -193 -403z" />
<glyph unicode="B" horiz-adv-x="1302" d="M70 1128q0 84 71 136q8 47 45 79.5t80 32.5t74 -35q338 98 559 99q160 0 191 -64q12 -27 12 -55q0 -96 -121 -236q-92 -104 -221 -200q211 -25 348 -92q184 -94 184 -252q-2 -154 -141 -314q-121 -139 -299 -235q-170 -94 -283 -94q-82 0 -96 55q-10 33 -10 59 q0 119 198 142q23 2 68 12q106 35 219 149q121 127 121 236q0 33 -94 74q-129 53 -350 53q-127 0 -267 -47v-78q0 -154 22.5 -248t22.5 -119q0 -31 -10 -69q-18 -63 -102 -64q-63 0 -107 47q-51 55 -51 156q0 35 6 72q-2 133 -2 344q0 221 2 356q-69 28 -69 100zM348 887 q205 109 273 151q152 96 223 195q2 2 2 4q0 6 -12 6q-31 0 -172 -39q-98 -29 -201 -65q-92 -33 -96 -39q-16 -27 -17 -150v-63z" />
<glyph unicode="C" horiz-adv-x="1492" d="M18 412q0 207 185 458q162 221 393 385t373 164q78 0 104 -57q14 -35 14 -64q0 -86 -149 -116q-166 -35 -426 -289q-281 -276 -281 -471q0 -100 88 -158q49 -33 132 -33q164 0 471 136l409 192q84 37 127 37q66 0 101 -64q14 -27 14 -51q0 -88 -160 -129q-14 -2 -172 -76 q-553 -254 -817 -253q-154 0 -244 69q-162 127 -162 320z" />
<glyph unicode="D" horiz-adv-x="1382" d="M-8 1255q0 51 53 82q76 47 248 76q141 23 260 23q336 0 588 -138q268 -147 268 -369q0 -243 -369 -540q-203 -164 -579 -381q-8 -47 -48 -76.5t-85 -29.5q-41 0 -66 22q-8 -2 -14 -2q-68 0 -68 109q0 55 23 94q-23 283 -23 471q0 47 2 82q6 139 29 473l-68 -23 q-8 -2 -16 -2q-49 0 -92 41t-43 88zM406 541q0 -158 20 -297q236 131 444 299q303 242 304 395q0 135 -207 219q-176 70 -387 70q-68 0 -119 -8q-55 -463 -55 -678z" />
<glyph unicode="E" horiz-adv-x="1388" d="M84 141q0 72 10 138q6 57 16.5 313t10.5 366q0 35 -2 42.5t-21 60.5q-12 37 -12 59q0 45 46 75t99 30q27 0 52 -8q487 182 536 196q201 61 260 62q35 0 62 -9q68 -23 67 -84q0 -51 -46 -95t-109 -44q-27 0 -52 10q-141 -35 -325 -112l-318 -137v-39q0 -68 -8 -197 q453 184 512 184q37 0 70 -27.5t33 -64.5q0 -41 -31 -76.5t-78 -48.5q-256 -72 -522 -229q-14 -168 -15 -248v-16q240 113 560 233q410 154 544 154q27 0 41 -6q92 -39 92 -97q0 -43 -77 -61q-295 -70 -572 -197l-454 -227l-105 -53q-78 -37 -112 -37q-37 0 -87.5 57.5 t-62.5 97.5q-2 10 -2 35z" />
<glyph unicode="F" horiz-adv-x="1228" d="M-29 1032q0 43 25 76q18 25 268 98q8 59 44 97t81 38q55 0 98 -57l406 146q324 109 446 108q39 0 58 -12q57 -35 57 -92q0 -76 -82 -105q-27 -10 -69 -10q-6 0 -15 2h-14q-80 0 -164 -27q-133 -41 -596 -233q-10 -88 -37 -262q88 43 273 110q211 53 323 54q45 0 60 -11 q45 -25 45 -67q0 -39 -32 -78t-65.5 -50.5t-85.5 -15.5q-227 -25 -553 -223q-20 -186 -20 -295q0 -25 8 -72t8 -71q0 -47 -40 -77t-89 -30q-76 0 -96 41q-14 29 -14 158q0 14 10 309q-45 39 -45 86q0 59 61 111q8 80 27 291q-164 -51 -174 -51h-2q-105 18 -105 114z" />
<glyph unicode="G" horiz-adv-x="1794" d="M72 436q0 174 145 416t346 408q212 174 388 174h12q55 -2 96 -36t41 -77q0 -57 -80 -94q-289 -131 -445 -271q-201 -178 -258 -424q-8 -41 -8 -90q0 -164 84 -249q66 -68 162 -68q184 0 524 293q213 182 213 258q0 41 -35 41q-43 0 -278.5 -115t-286.5 -115q-47 0 -89 40 t-42 85q0 39 33 62q143 100 544.5 242.5t542.5 142.5q70 0 70 -137q0 -98 -41 -300t-41 -227q0 -12 4 -16q61 -35 62 -76q0 -8 -2 -16q-6 -37 -47 -111q-49 -92 -93 -102q-14 -4 -28 -4q-117 0 -117 235q0 104 22 242q-137 -238 -403 -430q-291 -209 -539 -209 q-180 0 -301 117q-155 149 -155 411z" />
<glyph unicode="H" horiz-adv-x="1480" d="M119 115q0 88 20 252q12 96 27 192q2 37 10 111q-53 33 -53 92q0 70 67 104q6 137 7 226q0 29 -6.5 85t-6.5 85q0 37 17 71q37 45 116 45q78 0 101.5 -56t23.5 -171q0 -76 -14 -233q186 29 434 77q8 254 27 283q45 74 123 74q61 0 86 -43q14 -27 14 -105q0 -39 -10 -172 q174 29 282 29q47 0 60 -6q68 -39 67 -105q0 -49 -37.5 -85t-97.5 -36q-31 0 -61 11h-12q-27 0 -205 -33q-6 -231 -6 -293q0 -315 38 -391q33 -63 33 -90q0 -43 -38 -71t-87 -28q-57 0 -94 35q-45 41 -45 115v-2q-2 0 -18 144q-18 161 -19 288v250l-461 -92 q-51 -397 -51 -529v-23v-24q0 -59 -16 -88q-31 -53 -88 -53q-53 0 -103 39q-24 21 -24 121z" />
<glyph unicode="I" horiz-adv-x="546" d="M152 244q0 258 20 596q23 362 47 465q29 113 121 112q47 0 80 -45q35 -53 35 -151q0 -31 -4 -66l-50 -432q-25 -250 -24 -432v-103q39 -59 39 -106q0 -53 -38 -83t-91 -30q-90 0 -123 74q-12 27 -12 201z" />
<glyph unicode="J" horiz-adv-x="1173" d="M-16 102.5q0 49.5 29.5 85t78.5 35.5q29 0 189 -63q18 -6 71 -6q209 0 346 155q182 207 183 774q0 41 -2 113v113q0 63 6 82q29 80 112 79q70 0 101 -53q20 -37 20 -246q0 -270 -45 -509q-59 -309 -180 -455q-221 -266 -508 -266q-88 0 -186 24q-78 18 -70 19h-16 q-63 0 -96 34.5t-33 84z" />
<glyph unicode="K" horiz-adv-x="1370" d="M113 782q0 80 61 127q0 14 10 265q4 123 33 151q53 55 113 55q47 0 78.5 -35.5t31.5 -99.5q0 -20 -18 -217q219 96 455 180q309 113 409 113q37 0 65.5 -27.5t28.5 -70.5q0 -65 -75 -111q-66 -41 -129 -41h-2h-2q-138 0 -734 -276q129 -184 316 -342q201 -170 395 -240 q203 -74 203 -145q0 -76 -101 -76q-121 0 -323 100q-217 109 -400 270q-4 6 -149 158q-20 -264 -21 -305v-14v-45q2 -31 2 -45q0 -90 -57 -140q-31 -27 -67 -26q-45 0 -95 41q-23 23 -22 170q0 168 33 538q-39 33 -39 88z" />
<glyph unicode="L" horiz-adv-x="1234" d="M55 92q0 27 17.5 66t19.5 53q41 678 88 905l17 217q18 127 131 127q102 0 102 -239q0 -129 -29 -220q-43 -135 -51 -346q-8 -176 -14 -354q604 227 819 227q45 0 73.5 -7t53.5 -29.5t25 -47.5q0 -39 -68 -63q-115 -33 -426 -133q-317 -104 -483 -211q-94 -61 -137 -62 q-35 0 -70 23q-68 37 -68 94z" />
<glyph unicode="M" horiz-adv-x="1800" d="M6 57q0 59 51 133q2 2 115 717q23 98 47 297q0 59 10 82q6 10 47 57q76 88 125 89q14 0 29 -7q37 -16 148 -307l127 -348q74 -184 143 -408l504 922q43 76 123 76q92 0 124 -90q16 -49 23 -168q8 -190 16 -271q16 -201 54 -409q16 -80 30 -160q18 -94 19 -160 q0 -201 -117 -200q-133 0 -135 123q0 18 4 53t4 51q0 150 -39 391q-59 371 -61 389q-418 -745 -420 -782q-4 -55 -52 -96t-106 -41q-117 0 -147 151q-37 178 -117 406q-16 49 -145 395q-131 -754 -131 -823v-2q2 -8 2 -17q0 -74 -48 -118q-41 -37 -100 -37q-53 0 -90 30.5 t-37 81.5z" />
<glyph unicode="N" horiz-adv-x="1253" d="M98 96q0 170 15 428q14 238 24 301q4 25 17 279q12 217 32 248q41 61 107 61q55 0 90 -55q47 -74 104 -240q168 -492 375 -674q-2 213 -2 373q0 197 4 270q2 29 2 62q0 29 -4 86l-6 84q0 125 121 125q125 0 125 -314q0 -74 -7.5 -183t-7.5 -126q0 -31 -6 -110.5 t-6 -139.5q0 -109 19 -247q27 -39 26 -82q0 -39 -20 -74q0 -82 -33 -126t-80 -44t-83 43t-36 117v10l-71 45q-131 74 -435 637q-84 -549 -83 -631q0 -20 4 -22q35 -39 34 -123q0 -74 -28 -125q-33 -59 -90 -60q-37 0 -84 29q-17 8 -17 178z" />
<glyph unicode="O" horiz-adv-x="1443" d="M14 401q0 154 108.5 380.5t264.5 381.5q176 176 338 178q143 0 215 -65q520 -100 520 -465q0 -180 -186 -383q-168 -182 -412 -310t-418 -128q-102 0 -188 37q-242 106 -242 374zM258 426q0 -143 72 -182q59 -31 135 -31q190 0 467 199q291 209 293 391q0 156 -176 221 q-109 41 -263 41q-14 0 -26 -2q-35 -18 -68 -39q-39 -20 -69 -20q-35 0 -70 22q-143 -125 -223 -301q-72 -158 -72 -299z" />
<glyph unicode="P" horiz-adv-x="1191" d="M121 117q0 86 24 485q-14 23 -14 49q0 29 16 58q31 336 31 485q0 72 -8 91.5t-8 39.5q0 53 40 97t93 44q39 0 67 -17t44 -17q18 0 51 6q45 6 53 8q311 31 448 31q266 0 324 -72q33 -43 33 -92q0 -176 -414 -420q-244 -143 -530 -262q-16 -244 -17 -365q0 -23 6.5 -66.5 t6.5 -66.5q0 -68 -39 -106.5t-90 -38.5q-47 0 -82 34t-35 95zM393 879q233 92 414 190q260 139 260 221q0 6 -16 6q-18 0 -95 -12q-88 -14 -139 -18q-129 -23 -403 -54q-11 -130 -21 -333z" />
<glyph unicode="Q" horiz-adv-x="1671" d="M8 327.5q0 184.5 92 385.5q98 209 269 370q111 100 299 215q176 109 219 109q31 0 51 -14q94 53 209 53q215 0 373 -117q172 -129 174 -340q0 -352 -643 -819q39 -70 71 -82q53 -10 105 -18q14 -25 14 -54q0 -61 -47 -115.5t-102 -54.5q-35 0 -107 72q-66 63 -117 137 q-276 -141 -479 -141q-186 0 -289 119q-92 110 -92 294.5zM229 332q0 -209 185 -209q133 0 344 123q-96 221 -96 450q0 186 61 383q-193 -119 -334 -319q-160 -223 -160 -428zM881 709q0 -182 71 -349q178 117 314 256q205 211 204 385q0 96 -91 160t-201 64 q-135 0 -187 -95q-110 -200 -110 -421z" />
<glyph unicode="R" horiz-adv-x="1406" d="M96 109q0 115 19 346l20 258q-23 31 -22 65q0 25 30 49q18 190 19 258q0 18 -2 29q-4 29 -4 53q0 70 35.5 124.5t103.5 54.5q57 0 94 -48q264 106 498 107q266 0 266 -188q0 -256 -651 -517q172 -141 440 -288q283 -152 418 -170q43 -4 82 -33q51 -39 51 -100 q0 -20 -6 -46q-23 -70 -84 -69q-33 0 -82 18l-70 29q-451 152 -909 510q-8 -121 -20 -365q0 -20 14 -58t14 -60q0 -29 -20 -62q-41 -66 -119 -65q-59 0 -98 41q-17 18 -17 127zM381 887q170 49 334 133q205 107 205 187q0 14 -27 14q-4 0 -176 -33q-197 -37 -262 -92 q-18 -16 -39 -21z" />
<glyph unicode="S" horiz-adv-x="1290" d="M49 911q0 158 158 291q127 109 328 180q170 61 278 62q100 0 150 -31q43 -25 106 -108q14 -20 14 -43q0 -39 -35.5 -72t-84.5 -33q-45 0 -84 33q-14 14 -35 27h-6q-147 0 -343 -98q-200 -99 -200 -177q0 -51 244 -100q330 -70 450 -121q248 -103 248 -284 q0 -168 -197 -312q-78 -57 -342 -191q-47 -96 -143 -96q-47 0 -88 23.5t-52.5 52.5t-11.5 55q0 59 56 101q43 30 86 36q119 16 290 133t171 179q0 100 -248 162l-461 104q-248 80 -248 227z" />
<glyph unicode="T" horiz-adv-x="1351" d="M-18 1155q0 113 129 121q16 0 67 2q133 4 303 51q27 63 107 64q37 0 69 -19q98 18 398.5 42t437.5 24q53 0 63 -4q102 -41 103 -138q0 -29 -62 -73q-68 -47 -122 -47q-59 0 -80 57q-256 -10 -346 -21q-197 -18 -342 -65q-41 -479 -41 -821q0 -143 13 -163t13 -52 q0 -59 -33 -109q-35 -55 -92 -55q-39 0 -84 28q-33 20 -32 652q0 178 4 221q10 90 10 168q0 31 -2 74q-301 -59 -371 -60q-14 0 -20 2q-90 31 -90 121z" />
<glyph unicode="U" horiz-adv-x="1370" d="M102 780v60q0 170 11 352q2 63 37.5 108.5t99.5 45.5q53 0 85 -27t32 -92q0 -92 -13 -271q-12 -186 -12 -270q0 -170 66.5 -324.5t128.5 -154.5h2q250 25 448 405q172 332 178 613q0 12 -3 46t-3 54q0 125 117 127q143 0 143 -125q0 -20 -4 -45q-80 -463 -239 -780 q-258 -514 -672 -514q-203 2 -316 315q-82 227 -86 477z" />
<glyph unicode="V" horiz-adv-x="1314" d="M72 1208q0 45 43 92.5t90 47.5q104 0 192 -228q25 -59 84 -256q53 -176 94 -266l91 -231q98 184 325 684q35 78 64 172q23 72 22 84q0 45 39 108q51 76 117 76q27 0 57 -16q61 -31 62 -86q0 -35 -27 -91l-43 -86q-6 -20 -14 -51q-43 -141 -109 -272q-10 -16 -213 -463 q-174 -379 -196 -401q-39 -39 -111 -39q-45 0 -76 18q-20 12 -67 160l-58 188q-139 389 -270 674q-6 14 -59 90q-37 53 -37 92z" />
<glyph unicode="W" horiz-adv-x="1763" d="M68 1243q0 53 38.5 89t92.5 36q45 0 81.5 -23.5t49 -57.5t20.5 -116q10 -100 92 -616q98 225 310 580q92 156 106 200q6 23 52 47.5t91 24.5q102 0 105 -135q0 -31 -2 -90.5t-2 -89.5q0 -248 31 -422q25 -150 92 -346q143 264 276 704l78 320q31 119 135 118 q133 0 133 -92q0 -53 -49 -137l-104 -330q-123 -371 -230 -598q-149 -320 -252 -319h-2q-59 2 -84 14q-37 18 -52 74.5t-83 261.5q-88 231 -119 586q-94 -158 -184 -377q-29 -70 -149 -395q-41 -111 -74 -131q-39 -23 -82 -23q-76 0 -115 49q-25 33 -24 98q0 12 2 41v41 q0 156 -62 488q-55 291 -110 489q-6 19 -6 37z" />
<glyph unicode="X" horiz-adv-x="1140" d="M-74 -55q0 47 29 102q201 387 465 750l-88 190q-53 109 -107 178q-59 78 -59 138q0 68 84 102q31 14 59 14q86 0 150 -157l110 -261l254 347q76 102 160 102q68 0 102 -76q2 -6 2 -14q0 -68 -120 -213l-285 -381l258 -526q25 -16 66 -60q25 -33 24 -67q0 -41 -31.5 -69 t-76.5 -28q-117 0 -201 156l-189 387q-88 -119 -198 -293q-147 -236 -148 -293q2 -25 2 -22q0 -59 -38.5 -93t-92 -34t-92.5 33t-39 88z" />
<glyph unicode="Y" horiz-adv-x="1124" d="M39 1233v2q2 102 102 102q57 0 116.5 -33.5t90.5 -84.5q4 -8 119 -281q279 207 465 444q55 70 123 70q47 0 83 -34t36 -79t-41 -75q-6 -6 -48 -31q-96 -156 -481 -477q6 -57 6 -129q0 -57 -5 -171t-5 -171q0 -139 27 -205q18 -45 18 -84q0 -53 -33.5 -82t-83.5 -29 q-53 0 -92 33q-45 37 -45 98q0 8 2 21.5t2 22t-8 83.5q-14 98 -29 486q-35 23 -45 50.5t-18 59.5q-43 147 -70 215q-55 145 -110 176q-45 25 -56 37q-20 21 -20 66z" />
<glyph unicode="Z" horiz-adv-x="1431" d="M-68 63q0 37 25 68l502 684q76 100 262 320q-305 -49 -369 -103q-76 -66 -125 -65.5t-92 55.5q-18 20 -18 49q0 88 159 182q49 29 353 93q315 68 436 67q35 0 45 -6q63 -39 64 -109q0 -49 -41 -81q-408 -334 -838 -996q170 31 450 58q324 31 545 30q248 0 303 -41 q63 -45 64 -102q0 -41 -30 -68.5t-75 -27.5q-23 0 -49 10q-43 14 -45 14q-49 12 -166 12q-252 0 -626 -47q-385 -47 -506 -98q-43 -18 -84 -18q-61 0 -102.5 35.5t-41.5 84.5z" />
<glyph unicode="[" horiz-adv-x="565" d="M25 -176q0 365 104 1059q16 117 16 209q0 57 -6 106q-14 92 -14 88q0 41 34 72t74 31q12 0 43 -5.5t52 -5.5h2q23 0 91 24.5t97 24.5q51 0 51 -47q0 -41 -38.5 -91t-87 -74.5t-83.5 -30.5q-8 -248 -75 -834q-39 -350 -39 -522q0 -115 18 -145q0 -2 4 -2q6 0 91 15t130 15 q78 0 78 -41q0 -63 -112 -110q-240 -102 -310 -103q-43 0 -59 21q-61 70 -61 346z" />
<glyph unicode="\" horiz-adv-x="651" d="M0 1462q0 25 6 35q35 68 88 68q31 0 70 -19q53 -27 88 -174q90 -395 147 -598q92 -326 209 -579q35 -80 35 -148q0 -96 -86 -96q-23 0 -49 6q-57 12 -250 594q-150 451 -233 768q-25 88 -25 143z" />
<glyph unicode="]" horiz-adv-x="638" d="M-2 -487q0 49 117 133q37 27 127 110q16 182 26 619q8 403 33 618q8 68 23 244q-61 -12 -109 -12q-141 0 -141 100v2q2 106 125 107q-10 0 47 -2q35 0 102.5 20.5t95.5 20.5q55 0 74 -34t19 -134q0 -35 -15 -226q-51 -719 -80 -1272q18 -23 19 -55q0 -18 -6 -43 q-12 -47 -156 -162q-154 -123 -227 -122q-23 0 -35 12q-39 39 -39 76z" />
<glyph unicode="^" horiz-adv-x="675" d="M20 889q0 33 23 72l133 286q106 227 143 242q23 8 41 8q72 0 115 -139q16 -53 37 -191q18 -123 76 -282q20 -57 20 -101q0 -100 -92 -100q-80 0 -108 55q-33 63 -50 170l-28 178l-94 -241q-23 -57 -97 -58q-47 0 -83 27t-36 74z" />
<glyph unicode="_" horiz-adv-x="1024" d="M0 -154h1024v-96h-1024v96z" />
<glyph unicode="`" horiz-adv-x="731" d="M68 1376q0 33 28.5 53.5t71.5 20.5q53 0 94 -35q29 -25 144 -153q92 -102 151 -134h8q45 0 78 -40.5t33 -88.5q0 -70 -74 -69q-23 0 -51 8q-53 14 -223 158q-166 137 -236 219q-24 32 -24 61z" />
<glyph unicode="a" horiz-adv-x="774" d="M59 174q0 119 92.5 223.5t200.5 104.5q80 0 142 -66v2q0 117 -56 211q-29 45 -76 45q-25 0 -45 -11t-22 -19q-8 -57 -74 -58q-43 0 -73.5 30t-30.5 73q0 80 84 129q76 43 176 43q80 0 131 -29q197 -117 197 -406q0 -127 -39 -268q-29 -109 -58 -153q-14 -27 -59 -27 q-53 0 -88 35q-129 -63 -207 -63.5t-131 50.5q-64 64 -64 154zM260 178q0 -18 16 -18q20 0 123 65q-23 76 -32 76h-2q-68 -12 -97 -88q-8 -23 -8 -35z" />
<glyph unicode="b" d="M86 725q0 63 66 109q55 219 55 356q0 14 -8.5 45t-8.5 47q0 104 95 104q55 0 96 -51q47 -57 47 -157q0 -66 -53 -308q299 -18 393 -229q14 -29 14 -63q0 -197 -346 -492q-25 -20 -78 -90q-35 -47 -88 -47q-88 0 -104 90q-47 16 -68 51q-6 18 -6 152q0 238 23 415 q-29 31 -29 68zM301 358q0 -66 6 -133q268 197 268 320q0 16 -6 33q-16 31 -73 53q-66 27 -148 26q-8 0 -16 -2q-31 -143 -31 -297z" />
<glyph unicode="c" horiz-adv-x="1073" d="M18 244q0 174 185 377q174 190 307 210q33 4 59 5q123 0 123 -86q0 -53 -48 -103.5t-107 -50.5q-12 0 -23 2q-35 6 -33 6h-2q-63 -16 -150 -137t-87 -203q0 -74 90 -74q113 0 346 115l332 180q23 12 49 13q41 0 75.5 -26t34.5 -56q0 -29 -30 -51q-522 -369 -826 -369 q-156 0 -243 102q-52 62 -52 146z" />
<glyph unicode="d" horiz-adv-x="1075" d="M25 227q0 188 163.5 366.5t341.5 178.5q125 0 215 -100q59 502 60 557v4q-12 45 -12 82q0 117 94 117q55 0 101 -43t46 -105q0 -31 -10 -56.5t-41 -285.5q-33 -285 -45 -477q78 -29 78 -103q0 -92 -109 -133q-2 -74 -20 -131q-25 -76 -70 -75q-98 0 -127 96 q-264 -145 -428 -146q-121 0 -182 80q-55 74 -55 174zM240 223q0 -49 51 -49q61 0 201 78l163 100q-18 100 -30 133q-33 80 -97 80q-96 0 -196 -133q-92 -123 -92 -209z" />
<glyph unicode="e" horiz-adv-x="1007" d="M37 391q0 39 8 74q41 184 227 295q158 92 336 92q201 0 201 -107q0 -41 -39 -92q-86 -111 -240 -186q-145 -72 -268 -74v-12q0 -66 43 -127t103 -61q70 0 200 86q109 72 178 141q55 92 113 92q29 0 59 -20q57 -37 58 -93q0 -74 -70 -116q-31 -25 -82 -62 q-311 -231 -479 -231q-143 0 -248 131q-100 125 -100 270zM326 580q150 29 260 108q-35 -4 -142 -37q-49 -20 -88 -47q-14 -12 -30 -24z" />
<glyph unicode="f" horiz-adv-x="817" d="M55 416q0 45 33 82q72 80 176 110q2 43 2 64q0 426 121 626q100 162 268 162q29 0 60 -4q160 -27 159 -147q0 -10 -2 -21q-20 -82 -88 -82q-29 0 -73.5 23.5t-71.5 23.5q-80 0 -123 -147q-47 -156 -47 -406v-53l166 6q20 0 55 7.5t51 7.5q55 0 82 -78q6 -20 6 -41 q0 -109 -135 -115q-82 0 -221 -6q-2 -285 -24 -467l-82 -471q-4 -45 -27 -133q-27 -55 -84 -55q-47 0 -88 38.5t-41 94.5q0 45 35 88q25 88 80 446q23 207 22 383q-37 -61 -92 -61q-47 0 -82 38t-35 87z" />
<glyph unicode="g" horiz-adv-x="1019" d="M-182 -745q0 178 145 337q154 166 297 248q123 70 313 119q-76 55 -184 55q-82 0 -170 -32.5t-115 -32.5q-29 0 -53 12q-70 35 -69 88q0 66 75 111q-8 33 -8 65q0 92 66 187q25 39 131 157q-33 39 -33 78t30.5 65.5t73.5 26.5q41 0 74 -26h4q8 0 218 25.5t290 25.5 q33 0 45 -4q92 -26 92 -98q0 -37 -34.5 -65t-98.5 -28q-6 0 -16 2h-19q-47 0 -159 -20q49 -72 49 -143q0 -117 -131 -234q125 -66 186 -164q156 14 262 15q322 0 377 -115q6 -16 6 -33q0 -45 -49 -75.5t-110 -30.5q-80 0 -119 53q-16 2 -33 2q-109 0 -248 -16 q12 -57 12 -125q0 -289 -190 -551q-201 -281 -463 -281q-131 0 -258 78q-186 115 -186 324zM41 -741q0 -76 84 -142q57 -43 127 -43q158 0 300 188.5t142 399.5q0 57 -12 109q-344 -74 -545 -314q-96 -116 -96 -198zM274 219q274 74 275 182q0 72 -76 101 q-199 -183 -199 -283z" />
<glyph unicode="h" horiz-adv-x="1001" d="M70 29q0 35 14 73q10 16 20 80l13 354q6 177 22 322l31 354q20 174 125 174q45 0 78 -38.5t33 -100.5q0 -55 -17 -149q-23 -115 -27 -150q-10 -109 -28 -323q117 111 178 153q106 78 193 78q31 0 59 -8q162 -55 162 -531q0 -25 -2 -77t-2 -78q0 -16 2 -42t2 -34 q0 -43 -32 -70.5t-75 -27.5q-49 0 -82 37q-37 45 -37 129q0 16 2 36q14 166 15 265q0 164 -37 184q-10 4 -23 4q-61 0 -170 -121q-92 -104 -135 -194q-37 -74 -37 -168q0 -23 4 -70q2 -14 3 -29q0 -74 -39 -112.5t-93 -38.5q-49 0 -84.5 33t-35.5 86z" />
<glyph unicode="i" horiz-adv-x="528" d="M129 1180q0 45 21 104l36 102q37 113 111 113q41 0 71.5 -34.5t30.5 -80.5q0 -31 -24 -77q-39 -76 -49 -146q-16 -92 -105 -92q-92 0 -92 111zM137 219l21 399q6 143 12 168q23 100 109 103q51 0 83.5 -39t32.5 -92v-17q-41 -362 -47 -456v-37q0 -29 17 -76q8 -20 8 -43 q0 -49 -32 -85t-79 -36q-39 0 -82 34t-43 177z" />
<glyph unicode="j" horiz-adv-x="559" d="M-692 -621q0 133 57 205q29 37 61.5 37t56 -29.5t23.5 -66.5q-2 -12 -4 -55q-2 -35 -2 -58q0 -115 43 -170q49 -63 181 -84q27 -4 51 -4q166 0 293 147.5t155 366.5q18 145 19 291q0 250 -78 676q-23 37 -23 72q0 43 34 71.5t81 28.5q55 0 96 -39t88 -311 q49 -293 49 -557q0 -223 -40 -353q-98 -313 -295 -471q-168 -135 -373 -135q-166 0 -287 88q-186 133 -186 350zM213 1319q0 109 92 123q12 2 25 2q57 0 92 -43q29 -39 29 -92.5t-29 -91t-80 -37.5q-129 0 -129 139z" />
<glyph unicode="k" horiz-adv-x="1228" d="M82 227q0 162 22 340q33 276 80 484q55 236 107 254q25 10 49 10q51 0 85 -39t34 -90q0 -27 -27 -88q-49 -117 -92 -391q563 170 661 170q82 0 82 -82q0 -76 -49 -109q-18 -12 -110 -33q-63 -12 -125 -26q-182 -41 -422 -133q166 -141 379 -236q127 -57 221 -57 q102 0 127 43q35 55 92 55q47 0 86 -36t39 -81q0 -82 -121 -125q-18 -10 -76 -32q-84 -29 -174 -29q-281 0 -657 295q-4 -57 -4 -115q0 -37 8 -111.5t8 -111.5q0 -104 -123 -105q-100 0 -100 379z" />
<glyph unicode="l" horiz-adv-x="491" d="M135 152q0 426 72 1134q14 139 47 168q41 37 80 37q45 0 88 -47q31 -33 31 -94q0 -33 -9 -93q-68 -481 -69 -501q-35 -289 -35 -506q0 -35 3 -103.5t3 -103.5q0 -166 -94 -166q-92 0 -113 100q-4 23 -4 175z" />
<glyph unicode="m" horiz-adv-x="1302" d="M104 88q0 66 13.5 240t13.5 237q0 18 -3 55t-3 56q0 43 16 67q35 53 95 54q61 0 102 -52q121 184 184 185q84 0 140 -92q31 -49 47 -291q213 381 315 381q55 0 109 -58q45 -47 59 -92q23 -80 22 -411q0 -82 -2 -150q0 -14 10.5 -42t10.5 -44q0 -25 -16 -49 q-31 -51 -103 -51t-96 75q-16 49 -17 158q0 61 6.5 181t6.5 161q0 96 -19 101q-14 0 -123 -269q-113 -276 -131 -368q-25 -127 -98 -127q-8 0 -20 4q-70 16 -95 67q-14 33 -14 115q-2 98 -8 320q0 76 -2 190q-176 -395 -176 -537q0 -8 3 -28.5t3 -30.5q0 -45 -35 -69.5 t-84 -24.5q-68 0 -96 43q-15 20 -15 96z" />
<glyph unicode="n" d="M63 109q0 399 41 686q12 90 91 90q80 0 116 -56q14 -23 15 -75q0 -33 -9 -109q166 246 265 246q139 0 139 -526v-21v-65q-2 -53 -2 -84q0 -63 4 -86q37 -72 37 -113q0 -45 -39 -76q-45 -37 -80 -37q-96 0 -127 273q-10 78 -14 260q-2 158 -4 157v-2q-70 -129 -199 -491 q-33 -92 -61 -105q-45 -16 -78 -16q-95 0 -95 150z" />
<glyph unicode="o" horiz-adv-x="786" d="M31 332q0 88 35 170q164 367 368 366q94 0 178 -69q106 -88 129 -244q6 -35 7 -70q0 -205 -158 -354q-143 -137 -301 -137q-55 0 -96 20q-66 35 -114 124.5t-48 193.5zM244 334q0 -37 14 -78q18 -51 49 -51q39 0 100.5 44t86.5 93q47 94 47 164q0 45 -20.5 90t-49.5 55 q-145 -49 -219 -264q-8 -24 -8 -53z" />
<glyph unicode="p" horiz-adv-x="737" d="M61 -356q0 78 2 149q14 330 84 846q-49 37 -49 86q0 61 72 106q61 39 127 39q158 0 291 -129t133 -286q0 -133 -180 -328q-156 -168 -213 -180q-12 -4 -25 -4q-8 0 -16 2q-12 -156 -15 -328q-2 -90 -2 -170q0 -156 4 -162q12 -27 13 -59q0 -47 -24.5 -82t-69.5 -35 q-16 0 -33 4q-96 27 -97 135q0 29 11 56q-13 182 -13 340zM315 205q63 43 121 117q68 88 68 151q0 37 -33 84q-37 55 -90 80q-35 -184 -66 -432z" />
<glyph unicode="q" horiz-adv-x="755" d="M63 201q0 127 31 245q43 164 139 304q92 133 175 155q14 2 30 2q51 0 90 -24q47 -31 47 -82q0 -78 -51 -105l-63 -16q-55 -41 -129 -182.5t-74 -202.5q0 -25 12 -25q29 0 94.5 99.5t75.5 160.5q12 72 51 117t82 45t71 -38t28 -81q0 -41 -22 -119l-44 -157l-47 -182 q-23 -131 -39 -416v-23q0 -121 17 -258q20 -178 55 -178q8 0 18 10l168 224q135 170 176 174q23 2 37 2q80 0 80 -66v-12q-2 -23 -102 -166q-113 -164 -217 -274q-135 -143 -211 -144q-106 0 -172 264q-41 174 -50 343q-2 57 -2 112q0 172 27 356q-111 -98 -176 -98 q-105 0 -105 236z" />
<glyph unicode="r" horiz-adv-x="866" d="M78 782q0 41 33.5 68t78.5 27q123 0 136 -154q2 -10 4 -160q98 109 151 162q96 94 158 127q70 39 129 39q45 0 100 -19q20 -8 43 -38q25 -37 25 -72q0 -66 -90 -86q-10 -4 -21 -4q-14 0 -33.5 7t-27.5 7q-10 0 -21 -6q-150 -80 -374 -404q-33 -45 -43.5 -147t-30.5 -125 q-35 -43 -90 -43q-47 0 -83 38t-36 110q0 23 4 47q33 199 33 336q0 154 -39 258q-6 16 -6 32z" />
<glyph unicode="s" horiz-adv-x="737" d="M43 496q0 150 119 299q72 92 231 225q43 35 103 35q68 0 122 -37q63 -43 64 -109q0 -82 -82 -82q-27 0 -74 21q-39 -6 -172 -158q-98 -111 -98 -194q0 -63 113 -109q205 -82 209 -84q111 -63 110 -172q0 -74 -152.5 -186.5t-228.5 -112.5q-41 0 -81 29.5t-40 72.5 q0 31 25 66q12 18 135 74q117 51 117 59q0 6 -109 45q-131 45 -202 103q-109 88 -109 215z" />
<glyph unicode="t" horiz-adv-x="823" d="M-27 698q0 51 45 88q80 63 308 129q18 106 39 324q0 8 -3 31v35q0 55 11 84q23 59 90 59q113 0 112 -215q0 -100 -30 -279q92 12 168 13q41 0 84 -2q129 -10 129 -111q0 -90 -99 -90q-14 0 -37.5 3t-29.5 3q-92 0 -248 -33q-39 -332 -39 -520q0 -78 8 -113q6 -25 6 -47 q0 -102 -98 -102q-53 0 -92 39q-45 43 -45 115q0 205 22 409q8 86 19 168q-37 -12 -143 -86q-29 -18 -60 -18q-47 0 -82 35.5t-35 80.5z" />
<glyph unicode="u" d="M70 770q0 113 98 113q47 0 82 -31q39 -37 39 -90v-68q0 -463 90 -463t115 404q2 37 4 61q2 123 104 123q47 0 85 -36t38 -101q0 -109 -66 -336q-86 -299 -196 -332q-41 -10 -76 -10q-305 0 -317 766z" />
<glyph unicode="v" horiz-adv-x="915" d="M53 688q0 43 28 65.5t56 22.5q51 0 103 -57q45 -53 67 -127q10 -59 51 -240l4 -14l406 563q55 127 139 127q41 0 69 -33.5t28 -87.5q0 -109 -119 -209q-49 -43 -215 -292q-156 -231 -183 -291q-61 -133 -159 -133q-76 0 -113 102q-27 68 -57.5 220.5t-55.5 217.5 q-49 127 -49 166z" />
<glyph unicode="w" horiz-adv-x="1486" d="M86 676q0 29 4 39q25 76 98 76q45 0 85 -32t44 -81q6 -55 7 -143v-56q33 51 88 109l98 100q55 59 70 82q31 47 108 47q55 0 88 -22q18 -14 74 -217q61 -236 78 -277l387 455q43 131 123 131q29 0 63 -17q68 -31 68 -92q0 -70 -68 -129q-55 -49 -301 -368 q-217 -287 -264 -297q-10 -2 -29 -2q-88 0 -114 41q-49 84 -150 499q-115 -131 -158 -213l-96 -198q-76 -127 -160 -127q-102 2 -116 151q-2 82 -9 285q0 8 -10 117q-8 96 -8 139z" />
<glyph unicode="x" horiz-adv-x="608" d="M-16 -86q0 49 32 78q6 4 193 444l-103 248q-16 39 -16 72q0 96 100 96q80 0 136 -147q31 70 51 110q39 80 55.5 86t34.5 6q45 0 81 -32.5t36 -73.5q0 -16 -6 -31l-148 -350l94 -242q14 -35 31 -67q16 -39 16 -72q0 -37 -31.5 -63.5t-72.5 -26.5q-109 0 -127 153 q-2 10 -23 60l-38 -88q-14 -35 -60 -127q2 -6 2 -19q0 -143 -121 -143q-51 0 -83.5 38t-32.5 91z" />
<glyph unicode="y" horiz-adv-x="829" d="M63 279q0 92 19 229q10 80 22 162q23 231 129 231q41 0 81 -37t42 -78q0 -25 -42 -212t-42 -212q0 -6 2 -6q16 0 129 146l138 184l37 64q33 47 79 47q20 0 45 -9q35 -14 59.5 -86.5t24.5 -152.5q0 -23 -2 -45q-12 -152 -88 -832q-23 -141 -61 -409q39 -53 39 -103 q0 -51 -41 -81.5t-96 -30.5q-53 0 -89 31.5t-36 86.5q0 61 39 121q10 16 24 207q25 338 29 400l41 475q-147 -160 -201 -209q-117 -111 -170 -111q-111 3 -111 230z" />
<glyph unicode="z" horiz-adv-x="1001" d="M12 106q0 55 99 132q229 176 381 342q8 10 8 14q0 8 -21 8q-12 0 -114 -22l-78 -23q-53 -14 -86 -14q-51 0 -79 30.5t-28 61.5q0 59 115 104q78 29 162 39q37 4 78 4q106 0 208 -24q96 -25 102.5 -44.5t6.5 -37.5q0 -100 -141 -252q-55 -57 -209 -191q166 20 340 54 l149 35q117 27 162 26q14 0 23 -2q88 -39 88 -113q0 -68 -117 -67h-12h-13q-139 0 -426.5 -81t-435.5 -81q-51 0 -127 47q-35 22 -35 55z" />
<glyph unicode="{" horiz-adv-x="872" d="M-221 580q0 68 45 108q27 25 76 25q25 0 79 -9.5t80 -9.5q188 0 258 35q102 53 107 213q8 371 115 528q88 129 264 129q49 0 112 -8q168 -27 168 -151q0 -41 -25.5 -71t-68.5 -30q-39 0 -95 35t-91 35q-156 0 -166 -469q-6 -324 -248 -401q315 -150 316 -570v-16 q0 -240 98 -240q12 2 38.5 8.5t41.5 6.5q27 0 49 -19q57 -41 57 -110q0 -88 -82 -111q-47 -14 -90 -14q-150 0 -237 143q-82 131 -82 317q2 82 2 74q0 90 -15 142q-18 59 -69 124q-78 96 -248 144l-266 57q-123 33 -123 105z" />
<glyph unicode="|" horiz-adv-x="411" d="M78 453q0 37 2 75q16 369 67 891q14 150 125 152q41 0 72 -27.5t31 -68.5q0 -45 -37 -95q-6 -6 -22.5 -382.5t-16.5 -444.5q0 -193 41 -373q6 -29 6 -55q0 -117 -108 -117q-94 0 -115 74q-45 162 -45 371z" />
<glyph unicode="}" d="M68 -391q0 29 16 61q37 49 78 49q53 0 110 -73q12 -14 25 -15q43 0 72 277l12 299q10 178 70 291q-162 86 -162 282q0 12 9 149.5t9 221.5q0 211 -45 211q-6 0 -25.5 -9.5t-37.5 -9.5q-45 0 -78 46q-25 33 -29 63q-2 8 -2 16q0 41 26.5 70t69.5 29h17q16 0 49 4t49 4 q205 0 205 -510q0 -51 -2 -135t-2 -111q0 -70 8 -82q55 -74 104 -73q25 0 73 26.5t79 26.5q18 0 35 -6q80 -29 80 -103q0 -47 -33 -87t-84 -48q-141 -23 -166 -188l-20 -318q-16 -250 -58 -381q-61 -184 -182 -184q-70 0 -160 61q-110 74 -110 146z" />
<glyph unicode="~" horiz-adv-x="1302" d="M121 391q0 14 4 27q23 55 108 129q109 92 209 92q141 0 176 -57q12 -20 13 -51q0 -25 -8 -56q-14 -57 0 -57q39 0 172 74q125 72 164.5 109.5t82.5 37.5q45 0 77 -41t32 -88q0 -74 -74 -84q-39 -6 -219 -104q-168 -92 -280 -93q-158 0 -158 138v14v14q0 27 -10 27 q-16 0 -54.5 -27.5t-40.5 -42.5q-8 -55 -73 -55q-45 0 -83 26.5t-38 67.5z" />
<glyph unicode="&#xa1;" horiz-adv-x="632" d="M133 -213q0 260 80 721q25 139 25 164q0 6 -2 10q0 18 -9.5 54t-9.5 55q0 49 33 84.5t82 35.5q51 0 88 -45t37 -133q0 -18 -2 -39l-72 -768l-8 -153q-6 -117 -25 -135q-41 -44 -106 -44q-111 0 -111 193zM244 1221q0 139 114 143q51 0 86 -55q31 -45 31 -88 q0 -127 -106 -127q-53 0 -88 37t-37 90z" />
<glyph unicode="&#xa2;" horiz-adv-x="1056" d="M76 410q4 236 299 460q29 223 84 455q33 139 121 139q47 0 86 -40t39 -85q0 -12 -3 -22q-20 -66 -79 -307q51 14 86 14q53 0 88 -33q47 -45 47 -86q0 -76 -113 -76q6 0 -35 2q-25 0 -118 -65q-12 -113 -48 -365q84 35 164 88q63 41 76 56q51 59 104 59q47 0 81 -40 t34 -89q0 -76 -80 -94q-20 -6 -106 -51l-150 -82q-86 -45 -157 -66q-49 -250 -50 -248q0 -2 3 -2q18 -20 18 -47q0 -47 -51 -82.5t-103 -35.5q-100 0 -100 102q0 33 12 74q25 78 51 211q-200 23 -200 256zM272 408q0 -43 39 -56q4 29 23 185q-62 -53 -62 -129z" />
<glyph unicode="&#xa3;" horiz-adv-x="1148" d="M10 70q0 88 107 188q57 47 164 143q41 41 55 174h-2h-17q-16 0 -49 -2h-49q-55 0 -91 37t-36 84q0 84 94 92q16 2 35 2q14 0 46 -2t52 -2h17q-2 43 -8 72q-12 70 -13 135q0 166 82 268.5t230 102.5q57 0 123 -16q166 -43 165 -144q0 -41 -26.5 -70.5t-67.5 -29.5 q-45 0 -104 35q-41 27 -82 26q-109 0 -109 -147q0 -41 9 -90q8 -41 18 -127q6 0 82 -2t80 -2q29 20 63 20q47 0 83 -33.5t36 -83.5q-2 -84 -57 -96q-10 -4 -21 -4q-4 0 -12 2h-12q-80 -6 -238 -16q-6 -88 -20 -156q139 -37 239 -172q57 -80 101 -80q27 0 65 21q41 43 84 43 q41 0 71.5 -39t30.5 -84q0 -74 -71 -90q-16 -4 -62 -25q-72 -31 -135 -31q-104 0 -192 86q-35 47 -119 127q-53 37 -107 37q-33 0 -47 -14q-66 -55 -188 -182q-35 -43 -88 -43q-41 0 -75 25.5t-34 62.5z" />
<glyph unicode="&#xa4;" horiz-adv-x="1464" d="M16 340q0 55 58 94q27 18 106 53l4 11q-51 -23 -73 -23q-39 0 -62.5 32t-23.5 71q0 27 14 53q31 53 283 127q127 184 303 336q256 219 411 219q55 0 113 -37q63 -43 63 -94.5t-44 -87t-97 -35.5q-14 0 -40.5 8t-39.5 8q-47 0 -172 -100q-98 -78 -160 -144q125 20 218 21 q43 0 74.5 -30.5t31.5 -73.5q0 -47 -31.5 -81t-79.5 -34q-8 0 -23 3t-24 3q-131 0 -356 -57l-16 -27q174 35 217 35q51 0 88 -29t37 -78q0 -51 -35 -82.5t-84 -31.5q-8 0 -24.5 3t-24.5 3q-90 0 -240 -41q4 -94 82 -146q68 -43 168 -43q109 0 256 59.5t233 135.5l55 66 q28 33 70 32q47 0 77 -35.5t30 -83.5q0 -68 -74 -126q-23 -18 -133 -82q-289 -168 -541 -168q-152 0 -264 75q-119 80 -158 222q-33 -18 -55 -19q-47 0 -82 36t-35 83z" />
<glyph unicode="&#xa5;" horiz-adv-x="1204" d="M6 311q0 53 51 113q41 47 328 154l-2 2l-2 2q-33 49 -193 331l-90 144q-23 41 -22 84q0 98 86 98q20 0 43 -6q78 -29 151 -150q37 -59 99 -200q35 -78 39 -78h2q6 2 182 221q184 231 229 270q10 33 39 62q35 37 76 37q43 0 86 -43q33 -31 33 -68q0 -45 -42 -84t-83 -47 q-39 -33 -192.5 -238.5t-170.5 -244.5q80 35 240 90q41 14 76 14q109 0 108 -102q0 -72 -63 -113q104 -4 104 -94q0 -102 -119 -148q-25 -10 -49 -10q-59 0 -80 58q-35 -6 -110 -43l-117 -54q4 -41 25 -180q18 -37 18 -68q0 -47 -35 -76.5t-80 -29.5q-100 0 -118 113 l-23 135q-74 -45 -225 -119q-18 -8 -39 -8q-43 0 -73 30.5t-30 73.5q0 45 35 82h-2q-39 0 -64.5 24.5t-25.5 65.5z" />
<glyph unicode="&#xa6;" horiz-adv-x="411" d="M70 170v-2q1 0 18 311q6 137 14 162q25 92 111 94q53 0 87 -38t34 -89q0 -8 -2 -14l-45 -406v-34q0 -27 16 -70q8 -18 8 -41q0 -47 -32.5 -82t-79.5 -35q-43 0 -86 32t-43 212zM78 1059q0 276 37 401q23 80 98 80q49 0 88 -36t39 -89q0 -66 -23.5 -195.5t-23.5 -195.5 q0 -37 6 -63q29 -23 29 -62q0 -51 -44 -97t-94 -46q-59 0 -92 71q-20 46 -20 232z" />
<glyph unicode="&#xa7;" horiz-adv-x="860" d="M27 627q0 25 4 51q14 170 184 285q-29 80 -29 137q0 143 129 260q119 109 240 108q43 0 74 -16q80 -45 80 -106q0 -43 -38 -77t-81 -34q-4 0 -14.5 2t-16.5 2q-47 0 -94 -31q-63 -39 -64 -108q0 -31 13 -66q92 -18 92 -110q0 -2 -2 -6l131 -97q72 -57 113 -123 q61 -104 61 -215q0 -178 -145 -329q14 -59 14 -119q0 -176 -114.5 -301t-293.5 -125q-143 0 -143 106q0 47 36 84t93 37q12 0 32.5 -4t30.5 -4q63 0 107 84q39 76 39 158q0 18 -2 34q-37 33 -41 78q-47 55 -164 123t-158 115q-73 80 -73 207zM244 647q0 -29 10 -63 q14 -45 131 -123q150 -96 172 -117q47 47 47 119q0 18 -4 37q-14 86 -108 159l-160 115q-88 -45 -88 -127z" />
<glyph unicode="&#xa8;" horiz-adv-x="759" d="M254 1167q0 102 20 156q27 70 93 70q41 0 74.5 -30t33.5 -71q0 -27 -16.5 -71.5t-18.5 -62t-2 -56.5q-2 -115 -96 -115q-14 0 -29 2q-59 10 -59 178zM485 1069q0 45 25 117l37 102q25 86 98 86q47 0 76 -32.5t29 -75.5q0 -29 -23 -74q-41 -78 -48 -126t-30 -71 q-35 -31 -78 -30q-29 0 -51 20q-35 31 -35 84z" />
<glyph unicode="&#xa9;" horiz-adv-x="1462" d="M121 477q0 266 182 481q160 188 422 297q106 45 178 45t107 -45q172 -29 258 -145q78 -104 78 -266q0 -135 -56 -281q-102 -279 -319 -444q-203 -156 -416 -156t-330 156q-104 139 -104 358zM324 498q0 -172 92 -262q70 -68 159 -68q199 4 392 233q188 221 188 422 q0 223 -268 224q-96 0 -182 -35q-70 -29 -74 -49q-10 -72 -10 -97v-14q59 39 124 39q29 66 91 65q45 0 82.5 -35.5t37.5 -84.5q0 -18 -8 -52t-8 -55v-4q0 -61 -18 -92q72 -23 71 -103q0 -47 -32 -79q-162 -160 -328 -160q-100 0 -158 80q-33 49 -33 127q0 98 50 200 q-45 27 -66 86q-102 -134 -102 -286zM633 541q0 -45 47 -45q35 0 119 90q-53 10 -74 69q-29 0 -60.5 -38.5t-31.5 -75.5z" />
<glyph unicode="&#xaa;" horiz-adv-x="823" d="M72 709q0 61 92 79q80 16 235 17q229 0 293 -25q80 -33 80 -78q0 -63 -113 -94q-20 -6 -36 -6q-33 0 -62 25q-33 6 -78 6q-49 0 -142 -11.5t-140 -11.5q-53 0 -91 31t-38 68zM123 1008q0 102 92 194t199 92q61 0 110 -37q-14 109 -86 109q-23 0 -50 -10l-28 -10l-2 2 q0 -68 -79 -68q-45 0 -76 28.5t-31 73.5q0 78 100 127q86 43 187 43q49 0 78 -10q195 -80 194 -315q0 -162 -80 -336q-29 -31 -76 -31q-39 0 -67 25q-109 -47 -199 -47q-82 0 -131 43q-55 51 -55 127zM305 1032q0 -20 23 -20q27 0 106 53q-6 39 -31 39q-29 0 -63.5 -27 t-34.5 -45z" />
<glyph unicode="&#xab;" horiz-adv-x="1105" d="M16 662q0 23 13 43q18 29 194 112q152 72 226 96q25 8 47 9q88 0 88 -93q0 -74 -62 -86q-82 -18 -239 -88l153 -61q104 -43 148 -74q33 -25 32 -69q0 -37 -22.5 -67t-58.5 -30q-33 0 -84 27q-37 23 -76 43l-264 131q-95 48 -95 107zM481 647q0 20 8 41q14 33 193 111 q135 57 229 88q25 8 47 8q88 0 89 -92q0 -72 -64 -84q-119 -27 -225 -74l147 -53q100 -35 142 -64q33 -25 32 -71q0 -37 -22.5 -67t-59.5 -30q-33 0 -84 29l-73 43q-102 41 -265 115q-94 45 -94 100z" />
<glyph unicode="&#xac;" horiz-adv-x="2856" d="M16 522q0 35 31 60.5t72 25.5q31 0 59 -16h12q33 0 123 8t93 10q29 27 69 27q27 0 51 -10q94 12 281 32q31 33 78 33q33 0 59 -16l305 29q35 23 66 22q27 0 51 -14q-6 0 76 0h102h84q27 33 80 32q37 0 64 -18l280 10q31 29 76 29q47 0 82 -29l399 2q35 33 78 33 q39 0 68 -29q70 -8 69 -75q0 -39 -18 -72q-4 -33 -21 -119q41 -29 41 -67q0 -63 -71 -93q-31 -92 -103 -92q-74 0 -100 70l-412 -25q-35 -20 -69 -20q-27 0 -52 10q-113 -8 -299 -24q-35 -45 -98 -46q-47 0 -80 33q-10 0 -221 -22q-35 -53 -100 -54q-51 0 -84 39 q-147 -16 -248 -24q-39 -49 -101 -49q-47 0 -75 34l-150 -10q-25 0 -39 2q-8 -33 -47 -62.5t-80 -29.5q-55 0 -82 59q-109 -20 -122 -20q-117 2 -117 154q0 98 8 196q-68 35 -68 86zM274 307q14 -10 43 -24l25 139q-20 -2 -61 -4zM944 358l195 21l32 131q-96 -10 -198 -23 q-21 -84 -29 -129zM1776 436l202 17l17 98l-199 -10z" />
<glyph unicode="&#xad;" horiz-adv-x="1050" d="M61 496q0 82 91 112q39 12 147 23q213 18 438 18q152 0 181 -14q70 -35 69 -82q0 -33 -32.5 -61.5t-64.5 -35.5t-83 -7h-35q-23 2 -37 2q-170 0 -325 -23q-182 -25 -203 -25q-144 1 -146 93z" />
<glyph unicode="&#xae;" horiz-adv-x="1529" d="M111 516q0 199 127 383q109 160 276 266q156 100 274 101q78 -2 125 -45q244 -8 385 -183q127 -155 127 -380q0 -266 -278 -482q-268 -209 -561 -209q-236 0 -361 160q-110 141 -114 389zM322 498q0 -332 272 -332q203 0 414 167t211 341q0 125 -68 227q-78 117 -201 117 q-6 0 -24.5 -10.5t-32.5 -10.5t-28.5 9.5t-18.5 9.5q-14 0 -64 -17q-6 -90 -88 -90q-68 0 -108 56q-121 -76 -192.5 -202t-71.5 -265zM463 438q0 29 6 78l8 78q2 76 6 149q16 98 72 99q16 0 35 -8q70 59 174 59q162 0 162 -160q0 -86 -78 -160q119 -6 176 -32q51 -25 51 -72 q0 -41 -34.5 -74t-82.5 -33q-33 0 -63 21q-31 4 -80 4h-27q-74 0 -116 10q-10 -82 -101 -82q-108 0 -108 123zM682 678q0 -25 25 -25q20 0 41.5 14.5t21.5 32.5q0 12 -13.5 24.5t-27.5 12.5q-18 0 -32.5 -19.5t-14.5 -39.5z" />
<glyph unicode="&#xaf;" horiz-adv-x="737" d="M33 1090q0 37 32.5 66.5t79.5 29.5q31 0 111 -4q74 -2 111 -2h6q137 0 166 16q23 10 51 10q51 0 100 -31.5t49 -66.5q0 -39 -65 -59q-102 -33 -441 -33q-70 0 -112 4q-88 9 -88 70z" />
<glyph unicode="&#x2c9;" horiz-adv-x="737" d="M33 1090q0 37 32.5 66.5t79.5 29.5q31 0 111 -4q74 -2 111 -2h6q137 0 166 16q23 10 51 10q51 0 100 -31.5t49 -66.5q0 -39 -65 -59q-102 -33 -441 -33q-70 0 -112 4q-88 9 -88 70z" />
<glyph unicode="&#xb0;" horiz-adv-x="583" d="M63 1044q0 109 98.5 247.5t172.5 138.5q49 0 72 -46q94 -29 120 -131q6 -25 6 -49q0 -113 -110 -209q-102 -90 -213 -90q-63 0 -104.5 39t-41.5 100zM256 1102q0 -4 2 -4q35 8 63.5 37.5t28.5 52.5q0 25 -16 24q-20 0 -49 -46t-29 -64z" />
<glyph unicode="&#xb1;" horiz-adv-x="1400" d="M-20 651q0 31 18 60q33 49 276 110q59 492 89 544t83 52q47 0 84 -43t37 -108q0 -63 -24 -199q-37 -193 -37 -199q123 24 311 50q26 475 142 475h2q123 -4 122 -131q0 -61 -14 -156q-18 -133 -22 -156q248 31 391 33q84 0 84 -94q0 -47 -30 -82t-81 -35q-25 0 -51 8h-8 q-53 0 -322 -35q-31 -401 -31 -495q0 -31 2 -31q63 -23 64 -70q0 -53 -59 -137q-43 -59 -93 -59q-33 0 -71 27q-45 35 -45 446q0 150 8 287q-154 -25 -330 -64q-41 -324 -41 -487q0 -23 5 -66t5 -65q0 -104 -96 -105q-53 0 -92 39q-45 45 -45 115q0 113 39 512 q-100 -29 -139 -49q-14 -8 -31 -8q-39 0 -69.5 35.5t-30.5 80.5z" />
<glyph unicode="&#xb2;" horiz-adv-x="614" d="M-6 1178q0 43 31 86q47 68 134 109.5t179 41.5q129 0 205 -84q59 -63 59 -141q0 -111 -162 -340l-82 -117q209 51 236 51q57 0 89 -33.5t32 -78.5q0 -49 -32 -81t-79 -32q-25 0 -55 14q-76 -4 -184 -38l-181 -64q-63 -20 -92 -20q-41 0 -66.5 36.5t-25.5 79.5q0 16 5 35 t65 86q76 86 77 88q246 319 246 389q0 45 -74 45q-96 0 -129.5 -66.5t-97.5 -66.5q-39 0 -68.5 29t-29.5 72z" />
<glyph unicode="&#xb3;" horiz-adv-x="614" d="M0 1305q0 55 84 92h31q41 0 124 7t123 7q168 0 168 -84q0 -76 -147 -203q240 -51 240 -243v-4q-4 -252 -367 -437q-29 -14 -59 -14q-84 0 -127 76q-16 25 -17 49q0 63 86 63q16 0 35 -2q113 63 162 109q84 74 84 156q0 59 -238 84q-41 4 -76 30q-45 33 -45 78 q0 16 5.5 30.5t64.5 53.5l72 49q-47 -4 -92 -4h-2q-33 2 -71 35t-38 72z" />
<glyph unicode="&#xb4;" horiz-adv-x="946" d="M250 938q0 10 2 20q6 53 129 249t197 268q39 37 77 36q35 0 58.5 -27.5t23.5 -66.5t-26 -74l-138 -172q-92 -117 -116 -178q6 -10 6 -22q0 -39 -47 -72t-97 -33q-69 0 -69 72z" />
<glyph unicode="&#xb5;" horiz-adv-x="860" d="M80 362q0 35 24 66q-23 51 -22 111q0 137 127 338q-88 96 -88 167q0 70 112 70q51 0 113 -65q102 109 137 108q61 0 76 -76q14 -4 31 -10q41 39 92 39q37 0 62.5 -24t25.5 -67q0 -25 -35 -81q31 -61 31 -137q0 -135 -84 -252l38 -54l44 -59q19 -29 19 -59q0 -5 -1 -10 q-10 -76 -96 -76q-80 0 -145 90q-82 -63 -201 -64q-35 0 -68 7q-41 -47 -96 -48q-96 4 -96 86zM285 655l39 47l-15 23q-24 -39 -24 -70zM416 510q10 0 30 12l-12 17zM446 897l11 -14l24 32q-10 0 -35 -18zM569 715l11 -15q14 27 12 48z" />
<glyph unicode="&#xb6;" horiz-adv-x="921" d="M76 571q0 162 94 291q47 66 104 121l17 96l20 174q27 121 94 121q45 0 78 -20q45 -27 47 -78q2 -14 2 -29q0 -63 -20 -153q8 4 20 8q14 107 17 107v-3v13q0 137 92 137q63 0 96 -60q27 -47 27 -112q0 -84 -45 -252q-10 -39 -39 -187q12 4 25 5q33 0 57 -30t24 -65 q0 -76 -168 -190q-4 -23 -6 -41q-8 -72 -8 -172v-43q72 -12 72 -84q0 -66 -53.5 -137.5t-114.5 -71.5q-57 0 -94 76q-10 20 -11 51q0 16 4.5 49t4.5 47v2v31q0 109 10 199l-25 -2q-10 -61 -10 -117q0 -12 4 -37t4 -39q0 -63 -65 -102q-29 -18 -54 -19q-43 0 -71 45 q-25 39 -25 80q2 57 19 187q-123 46 -123 204zM434 604h4q8 0 19 8l39 242l-23 -12z" />
<glyph unicode="&#xb7;" horiz-adv-x="423" d="M86 539q0 49 43 91t96 42q51 0 89 -48.5t38 -101.5q0 -43 -37 -78q-39 -41 -100 -41q-53 0 -91 41.5t-38 94.5z" />
<glyph unicode="&#x2219;" horiz-adv-x="423" d="M86 539q0 49 43 91t96 42q51 0 89 -48.5t38 -101.5q0 -43 -37 -78q-39 -41 -100 -41q-53 0 -91 41.5t-38 94.5z" />
<glyph unicode="&#xb8;" horiz-adv-x="657" d="M111 -438q0 41 31.5 73.5t70.5 32.5h8q6 -2 8 -2q27 0 72 35q94 72 94 88q0 10 -10 18q-70 55 -90 101q-8 18 -29 121q-6 23 -6 41q0 94 117 94q92 0 106 -45q4 -14 4 -35q0 -10 -2 -35v-37v-2q0 -25 55.5 -80t55.5 -112q0 -31 -14 -68q-25 -70 -138 -168 q-129 -111 -223 -110q-31 0 -55 12q-55 27 -55 78z" />
<glyph unicode="&#xb9;" horiz-adv-x="614" d="M29 991q0 37 12 53q29 35 168 187q150 162 166 166q31 10 55 10q92 0 92 -133q0 -39 -8 -100q-68 -455 -68 -533q0 -16 3 -29q8 -29 8 -55q0 -55 -34 -85t-83 -30t-86 30t-37 81q0 27 10 55q12 150 49 393q-68 -59 -149 -120h-10q-88 -1 -88 110z" />
<glyph unicode="&#xba;" horiz-adv-x="823" d="M72 709q0 61 92 79q80 16 235 17q229 0 293 -25q80 -33 80 -78q0 -63 -113 -94q-20 -6 -36 -6q-33 0 -62 25q-33 6 -78 6q-49 0 -142 -11.5t-140 -11.5q-53 0 -91 31t-38 68zM109 1098q0 70 32 135q141 279 322 278q82 0 155 -53q96 -68 117 -192q4 -29 4 -60 q0 -160 -133 -274q-123 -104 -262 -105q-51 0 -90 19q-59 29 -102 98.5t-43 153.5zM311 1092q0 -25 15.5 -48.5t40.5 -23.5q29 0 72.5 23.5t66.5 56.5q33 45 33 96q0 92 -78 94q-76 0 -144 -168q-6 -14 -6 -30z" />
<glyph unicode="&#xbb;" horiz-adv-x="1105" d="M16 428q0 45 33 70q41 29 141 65q74 27 150 51q-109 47 -227 74q-63 14 -64 86q0 92 90 92q20 0 47 -8q92 -33 228 -90q178 -78 192 -109q10 -23 10 -41q0 -57 -94 -102q-80 -31 -264 -115l-74 -43q-53 -27 -86 -26q-35 0 -58.5 29.5t-23.5 66.5zM479 420q0 45 33 69 q43 31 303 138q-160 70 -240 86q-63 14 -63 86q0 92 88 92q23 0 49 -8q72 -25 225 -97q176 -82 193 -112q12 -20 12 -41q0 -61 -92 -107l-266 -133l-74 -43q-53 -27 -86 -26q-35 0 -58.5 29.5t-23.5 66.5z" />
<glyph unicode="&#xbc;" horiz-adv-x="1609" d="M29 991q0 37 12 53q29 35 168 187q150 162 166 166q31 10 55 10q92 0 92 -133q0 -39 -8 -101q-68 -455 -68 -532q0 -16 3 -29q8 -29 8 -55q0 -55 -34 -85t-83 -30t-86 30t-37 81q0 27 10 55q12 150 49 393q-68 -59 -149 -120h-10q-88 -1 -88 110zM348 37q0 25 35 108 l211 529q123 309 229 520q125 250 260 250q27 0 50 -10q76 -31 75 -113q0 -53 -51 -75.5t-72.5 -42t-46.5 -66.5q-422 -823 -444 -1082q-6 -51 -47 -84.5t-90 -33.5q-51 0 -82 38q-27 31 -27 62zM758 391q0 53 26 74q113 84 195 242q106 203 121 223q29 37 69.5 37t75.5 -35 t39 -80q20 10 41 10q41 0 68.5 -34.5t27.5 -96.5q0 -37 -14 -96q-18 -88 -21 -94q170 -10 170 -103q0 -35 -23.5 -63.5t-47.5 -28.5q-51 4 -58 4q-35 0 -69 -4q-16 -94 -39 -287q20 -43 20 -77q0 -100 -108 -101q-53 0 -92 33q-45 37 -45 94q0 27 10 58q2 6 43 260 q-209 -35 -270 -35q-45 0 -78 24q-41 31 -41 76zM1114 528q23 4 60 11q6 37 16 114q-41 -82 -76 -125z" />
<glyph unicode="&#xbd;" horiz-adv-x="1609" d="M29 991q0 37 12 53q29 35 168 187q150 162 166 166q31 10 55 10q92 0 92 -133q0 -39 -8 -101q-68 -455 -68 -532q0 -16 3 -29q8 -29 8 -55q0 -55 -34 -85t-83 -30t-86 30t-37 81q0 27 10 55q12 150 49 393q-68 -59 -149 -120h-10q-88 -1 -88 110zM348 37q0 25 35 108 l211 529q123 309 229 520q125 250 260 250q27 0 50 -10q76 -31 75 -113q0 -53 -51 -75.5t-72.5 -42t-46.5 -66.5q-422 -823 -444 -1082q-6 -51 -46 -84.5t-91 -33.5t-82 38q-27 31 -27 62zM848 623q0 41 31 86q47 66 134 108.5t179 42.5q129 0 207 -84q57 -63 57 -141 q0 -113 -162 -340l-82 -117q209 51 236 51q57 0 89 -33.5t32 -80.5t-32 -79t-79 -32q-25 0 -55 12q-76 -2 -184 -36l-181 -64q-63 -20 -92 -20q-41 0 -66.5 35.5t-25.5 80.5q0 16 4 31q6 23 66 88q76 88 77 88q246 322 246 391q0 43 -73 43q-96 0 -130 -65.5t-98 -65.5 q-39 0 -68.5 28t-29.5 73z" />
<glyph unicode="&#xbe;" horiz-adv-x="1609" d="M0 1305q0 55 84 92h31q41 0 124 7t123 7q168 0 168 -84q0 -76 -147 -203q240 -51 240 -243v-4q-4 -252 -367 -437q-29 -14 -59 -14q-84 0 -127 76q-16 25 -17 49q0 63 86 63q16 0 35 -2q113 63 162 109q84 74 84 156q0 59 -238 83q-41 4 -76 31q-45 33 -45 78 q0 16 5.5 30.5t64.5 53.5l72 49q-47 -4 -92 -4h-2q-33 2 -71 35t-38 72zM348 37q0 25 35 108l211 529q123 309 229 520q125 250 260 250q27 0 50 -10q76 -31 75 -113q0 -53 -51 -75.5t-72.5 -42t-46.5 -66.5q-422 -823 -444 -1082q-6 -51 -47 -84.5t-90 -33.5q-51 0 -82 38 q-27 31 -27 62zM758 391q0 53 26 74q113 84 195 242q106 203 121 223q29 37 69.5 37t75.5 -35t39 -80q20 10 41 10q41 0 68.5 -34.5t27.5 -96.5q0 -37 -14 -96q-18 -88 -21 -94q170 -10 170 -103q0 -35 -23.5 -63.5t-47.5 -28.5q-51 4 -58 4q-35 0 -69 -4q-16 -94 -39 -287 q20 -43 20 -77q0 -100 -108 -101q-53 0 -92 33q-45 37 -45 94q0 27 10 58q2 6 43 260q-209 -35 -270 -35q-45 0 -78 24q-41 31 -41 76zM1114 528q23 4 59 11q6 37 17 114q-41 -82 -76 -125z" />
<glyph unicode="&#xbf;" horiz-adv-x="1161" d="M61 -111q0 332 687 711q6 2 6 10q0 20 -60 109q-66 98 -80 141q-8 27 -8 53q0 61 43 97.5t99 36.5q49 0 83.5 -31t34.5 -90q0 6 -2 -37q0 -16 68 -139q57 -102 57 -258v-33q-76 -31 -147 -66q-172 -84 -303 -176q-252 -178 -252 -309q0 -43 26.5 -75t122.5 -32 q113 0 223 39q125 45 158 113q18 35 61.5 59.5t86.5 24.5q41 0 72.5 -25.5t31.5 -66.5q0 -59 -100.5 -147.5t-247 -150t-305.5 -61.5q-252 0 -324 162q-31 69 -31 141zM586 1282q0 53 38 101.5t97 48.5t97 -39t38 -95q0 -66 -40 -101.5t-95 -35.5t-92 31q-43 35 -43 90z" />
<glyph unicode="&#xc0;" horiz-adv-x="1277" d="M47 94q0 70 55 221q-47 37 -47 84t42 88t96 56l374 827q43 96 117 96q86 0 111 -125q6 -55 41 -221q23 -78 98 -393l192 57q41 20 78 21q47 0 74 -33t27 -78q0 -49 -30 -84t-85 -35q-16 0 -35 5l-176 -52l108 -471q55 -53 56 -106q0 -55 -74 -96q-18 -10 -43 -11 q-49 0 -91 37t-42 86l-119 496q-217 -66 -440 -150q-57 -119 -66 -188q-16 -123 -116 -123q-74 0 -103 74q-2 6 -2 18zM348 1948q0 33 29 53t72 20q53 0 94 -34q29 -25 143 -154q92 -102 152 -133h8q45 0 77.5 -41t32.5 -88q0 -70 -73 -70q-23 0 -52 8q-53 14 -223 158 q-166 137 -235 219q-25 33 -25 62zM444 592q172 35 283 70q-33 135 -90 333q-113 -219 -193 -403z" />
<glyph unicode="&#xc1;" horiz-adv-x="1277" d="M47 94q0 70 55 221q-47 37 -47 84t42 88t96 56l374 827q43 96 117 96q86 0 111 -125q6 -55 41 -221q23 -78 98 -393l192 57q41 20 78 21q47 0 74 -33t27 -78q0 -49 -30 -84t-85 -35q-16 0 -35 5l-176 -52l108 -471q55 -53 56 -106q0 -55 -74 -96q-18 -10 -43 -11 q-49 0 -91 37t-42 86l-119 496q-217 -66 -440 -150q-57 -119 -66 -188q-16 -123 -116 -123q-74 0 -103 74q-2 6 -2 18zM444 592q172 35 283 70q-33 135 -90 333q-113 -219 -193 -403zM496 1593q0 10 2 21q6 53 129 248.5t196 267.5q39 37 78 37q35 0 58.5 -28t23.5 -66.5 t-27 -73.5l-137 -172q-92 -117 -117 -178q6 -10 7 -23q0 -39 -47.5 -71.5t-96.5 -32.5q-69 -1 -69 71z" />
<glyph unicode="&#xc2;" horiz-adv-x="1277" d="M47 94q0 70 55 221q-47 37 -47 84t42 88t96 56l374 827q43 96 117 96q86 0 111 -125q6 -55 41 -221q23 -78 98 -393l192 57q41 20 78 21q47 0 74 -33t27 -78q0 -49 -30 -84t-85 -35q-16 0 -35 5l-176 -52l108 -471q55 -53 56 -106q0 -55 -74 -96q-18 -10 -43 -11 q-49 0 -91 37t-42 86l-119 496q-217 -66 -440 -150q-57 -119 -66 -188q-16 -123 -116 -123q-74 0 -103 74q-2 6 -2 18zM395 1546q0 49 43 82l152 131q111 90 170 90q39 0 67.5 -30.5t30.5 -71.5q8 -80 45 -109q29 -23 29 -86q0 -92 -78 -92q-14 0 -31 4q-51 12 -88 68.5 t-41 56.5q-20 -4 -60 -37.5t-44 -44.5q-8 -27 -35 -51q-33 -29 -66 -29q-43 0 -75 54q-19 32 -19 65zM444 592q172 35 283 70q-33 135 -90 333q-113 -219 -193 -403z" />
<glyph unicode="&#xc3;" horiz-adv-x="1277" d="M47 94q0 70 55 221q-47 37 -47 84t42 88t96 56l374 827q43 96 117 96q86 0 111 -125q6 -55 41 -221q23 -78 98 -393l192 57q41 20 78 21q47 0 74 -33t27 -78q0 -49 -30 -84t-85 -35q-16 0 -35 5l-176 -52l108 -471q55 -53 56 -106q0 -55 -74 -96q-18 -10 -43 -11 q-49 0 -91 37t-42 86l-119 496q-217 -66 -440 -150q-57 -119 -66 -188q-16 -123 -116 -123q-74 0 -103 74q-2 6 -2 18zM330 1554q0 39 30 76q45 61 127 121q119 82 224 82q119 0 178 -178l106 86q76 57 117 57q45 -2 76 -29.5t31 -72.5q0 -66 -58 -76q-37 -6 -63 -27 l-54 -43q-111 -92 -213 -92q-74 0 -104 55q-2 6 -16 74q-10 55 -27 55q-25 0 -80 -31.5t-80 -66.5q-51 -70 -112 -69q-82 -1 -82 79zM444 592q172 35 283 70q-33 135 -90 333q-113 -219 -193 -403z" />
<glyph unicode="&#xc4;" horiz-adv-x="1277" d="M47 94q0 70 55 221q-47 37 -47 84t42 88t96 56l374 827q43 96 117 96q86 0 111 -125q6 -55 41 -221q23 -78 98 -393l192 57q41 20 78 21q47 0 74 -33t27 -78q0 -49 -30 -84t-85 -35q-16 0 -35 5l-176 -52l108 -471q55 -53 56 -106q0 -55 -74 -96q-18 -10 -43 -11 q-49 0 -91 37t-42 86l-119 496q-217 -66 -440 -150q-57 -119 -66 -188q-16 -123 -116 -123q-74 0 -103 74q-2 6 -2 18zM444 592q172 35 283 70q-33 135 -90 333q-113 -219 -193 -403zM500 1679q0 102 20 156q27 70 92 70q41 0 75 -30t34 -71q0 -27 -16.5 -71.5t-18.5 -62 t-2 -56.5q-2 -115 -96 -115q-14 0 -29 2q-59 10 -59 178zM731 1581q0 45 25 117l37 102q25 86 98 86q47 0 75.5 -32.5t28.5 -75.5q0 -29 -22 -74q-41 -78 -48 -126t-30 -71q-35 -31 -78 -30q-29 0 -51 20q-35 31 -35 84z" />
<glyph unicode="&#xc5;" horiz-adv-x="1277" d="M47 94q0 70 55 221q-47 37 -47 84t42 88t96 56l374 827q43 96 117 96q86 0 111 -125q6 -55 41 -221q23 -78 98 -393l192 57q41 20 78 21q47 0 74 -33t27 -78q0 -49 -30 -84t-85 -35q-16 0 -35 5l-176 -52l108 -471q55 -53 56 -106q0 -55 -74 -96q-18 -10 -43 -11 q-49 0 -91 37t-42 86l-119 496q-217 -66 -440 -150q-57 -119 -66 -188q-16 -123 -116 -123q-74 0 -103 74q-2 6 -2 18zM444 592q172 35 283 70q-33 135 -90 333q-113 -219 -193 -403zM510 1671q0 78 40 162t89 117q70 47 158 47q104 0 180 -55q53 -41 53 -113 q0 -90 -86 -182q-133 -141 -256 -142q-33 0 -70 11q-108 26 -108 155zM725 1743q0 -12 16 -12q10 0 19.5 9t34.5 21q16 12 16 15q-4 12 -20 12q-27 0 -52 -21q-14 -14 -14 -24z" />
<glyph unicode="&#xc6;" horiz-adv-x="1677" d="M14 55q0 90 88 293q-2 12 -2 25q0 47 49 80l277 614q-18 29 -18 55q0 72 90 109q39 90 55 115q41 57 104 57q70 0 99 -92q229 94 268 108q205 74 307 74q121 0 121 -92q0 -51 -43 -95t-102 -44q-29 0 -56 12q-82 -23 -456 -176l88 -361q520 199 624 199q12 0 19 -2 q92 -23 92 -94q0 -39 -33 -73t-80 -36q-12 0 -53 -7t-518 -200l88 -372q610 238 729 237q8 0 14 -2q37 -14 68 -52t31 -73q0 -47 -62 -55q-184 -29 -702 -266q6 -18 6 -35q0 -45 -36 -75t-85 -30q-88 0 -121 84q-66 43 -65 105q0 31 20 55q8 10 19 21q0 10 -45 174l-56 204 l-438 -178q-55 -135 -59 -155q-12 -74 -15 -80q-12 -43 -53 -60q-25 -12 -51 -12q-76 0 -105 70q-2 10 -2 26zM426 569l254 93q-45 176 -76 276q-100 -197 -178 -369z" />
<glyph unicode="&#xc7;" horiz-adv-x="1492" d="M18 412q0 207 185 458q162 221 393 385t373 164q78 0 104 -57q14 -35 14 -64q0 -86 -149 -116q-166 -35 -426 -289q-281 -276 -281 -471q0 -100 88 -158q49 -33 132 -33q164 0 471 136l409 192q84 37 127 37q66 0 101 -64q14 -27 14 -51q0 -88 -160 -129q-14 -2 -172 -76 q-113 -51 -371 -155v-2q0 -39 33 -76q51 -63 55 -70q27 -45 27 -94q0 -117 -129 -239q-113 -106 -215 -136q-23 -6 -41 -6q-94 0 -94 101q0 45 29.5 79.5t80.5 34.5h5q29 0 95 55.5t66 88.5q0 12 -8 18q-96 84 -112 180q-133 -33 -238 -32q-154 0 -244 69q-162 127 -162 320 z" />
<glyph unicode="&#xc8;" horiz-adv-x="1388" d="M82 141q0 72 10 138q6 57 16.5 313t10.5 366q0 35 -2 42.5t-21 60.5q-12 37 -12 59q0 45 46 75t99 30q27 0 52 -8q487 182 536 196q201 61 260 62q35 0 62 -9q68 -23 67 -84q0 -51 -46 -95t-109 -44q-27 0 -52 10q-141 -35 -325 -112l-318 -137v-39q0 -68 -8 -197 q453 184 512 184q37 0 70 -27.5t33 -64.5q0 -41 -31 -76.5t-78 -48.5q-256 -72 -522 -229q-14 -168 -15 -248v-16q240 113 560 233q410 154 544 154q27 0 41 -6q92 -39 92 -97q0 -43 -77 -61q-295 -70 -572 -197l-454 -227l-105 -53q-78 -37 -113 -37q-37 0 -87 57.5 t-62 97.5q-2 10 -2 35zM223 1907q0 33 29 53t72 20q53 0 94 -34q29 -25 143 -154q92 -102 152 -133h8q45 0 77.5 -41t32.5 -88q0 -70 -73 -70q-23 0 -51 8q-53 14 -224 158q-166 137 -235 219q-25 33 -25 62z" />
<glyph unicode="&#xc9;" horiz-adv-x="1388" d="M82 141q0 72 10 138q6 57 16.5 313t10.5 366q0 35 -2 42.5t-21 60.5q-12 37 -12 59q0 45 46 75t99 30q27 0 52 -8q487 182 536 196q201 61 260 62q35 0 62 -9q68 -23 67 -84q0 -51 -46 -95t-109 -44q-27 0 -52 10q-141 -35 -325 -112l-318 -137v-39q0 -68 -8 -197 q453 184 512 184q37 0 70 -27.5t33 -64.5q0 -41 -31 -76.5t-78 -48.5q-256 -72 -522 -229q-14 -168 -15 -248v-16q240 113 560 233q410 154 544 154q27 0 41 -6q92 -39 92 -97q0 -43 -77 -61q-295 -70 -572 -197l-454 -227l-105 -53q-78 -37 -113 -37q-37 0 -87 57.5 t-62 97.5q-2 10 -2 35zM412 1430q0 10 2 20q6 53 129 248.5t196 267.5q39 37 78 37q35 0 58.5 -27.5t23.5 -66.5t-27 -74l-137 -172q-92 -117 -117 -178q6 -10 7 -23q0 -39 -47.5 -71.5t-96.5 -32.5q-69 0 -69 72z" />
<glyph unicode="&#xca;" horiz-adv-x="1388" d="M82 141q0 72 10 138q6 57 16.5 313t10.5 366q0 35 -2 42.5t-21 60.5q-12 37 -12 59q0 45 46 75t99 30q27 0 52 -8q487 182 536 196q201 61 260 62q35 0 62 -9q68 -23 67 -84q0 -51 -46 -95t-109 -44q-27 0 -52 10q-141 -35 -325 -112l-318 -137v-39q0 -68 -8 -197 q453 184 512 184q37 0 70 -27.5t33 -64.5q0 -41 -31 -76.5t-78 -48.5q-256 -72 -522 -229q-14 -168 -15 -248v-16q240 113 560 233q410 154 544 154q27 0 41 -6q92 -39 92 -97q0 -43 -77 -61q-295 -70 -572 -197l-454 -227l-105 -53q-78 -37 -113 -37q-37 0 -87 57.5 t-62 97.5q-2 10 -2 35zM365 1591q0 49 43 82l151 131q111 90 170 90q39 0 67.5 -30.5t30.5 -71.5q8 -80 45 -109q29 -23 29 -86q0 -92 -78 -92q-14 0 -30 4q-51 12 -88 68.5t-41 56.5q-20 -4 -60.5 -37.5t-44.5 -44.5q-8 -27 -35 -51q-33 -29 -65 -28q-43 0 -76 53 q-18 32 -18 65z" />
<glyph unicode="&#xcb;" horiz-adv-x="1388" d="M82 141q0 72 10 138q6 57 16.5 313t10.5 366q0 35 -2 42.5t-21 60.5q-12 37 -12 59q0 45 46 75t99 30q27 0 52 -8q487 182 536 196q201 61 260 62q35 0 62 -9q68 -23 67 -84q0 -51 -46 -95t-109 -44q-27 0 -52 10q-141 -35 -325 -112l-318 -137v-39q0 -68 -8 -197 q453 184 512 184q37 0 70 -27.5t33 -64.5q0 -41 -31 -76.5t-78 -48.5q-256 -72 -522 -229q-14 -168 -15 -248v-16q240 113 560 233q410 154 544 154q27 0 41 -6q92 -39 92 -97q0 -43 -77 -61q-295 -70 -572 -197l-454 -227l-105 -53q-78 -37 -113 -37q-37 0 -87 57.5 t-62 97.5q-2 10 -2 35zM446 1675q0 102 21 156q27 70 92 70q41 0 75 -30t34 -71q0 -27 -16.5 -72t-18.5 -62t-2 -56q-2 -115 -96 -115q-14 0 -29 2q-60 10 -60 178zM678 1577q0 45 24 117l37 102q25 86 99 86q47 0 75.5 -32.5t28.5 -75.5q0 -29 -22 -74q-41 -78 -48.5 -126 t-29.5 -71q-35 -31 -78 -30q-29 0 -51 20q-35 31 -35 84z" />
<glyph unicode="&#xcc;" horiz-adv-x="546" d="M-18 1868q0 33 28.5 53.5t71.5 20.5q53 0 94 -35q29 -25 143 -154q92 -102 152 -133h8q45 0 78 -41t33 -88q0 -70 -74 -70q-23 0 -51 9q-53 14 -223 157q-166 137 -236 219q-24 33 -24 62zM152 244q0 258 20 596q23 362 47 465q29 113 121 112q47 0 80 -45 q35 -53 35 -151q0 -31 -4 -66l-50 -432q-25 -250 -24 -432v-103q39 -59 39 -106q0 -53 -38 -83t-91 -30q-90 0 -123 74q-12 27 -12 201z" />
<glyph unicode="&#xcd;" horiz-adv-x="546" d="M123 1505q0 10 2 21q6 53 129 248.5t197 267.5q39 37 77 37q35 0 58.5 -28t23.5 -66.5t-26 -73.5l-138 -172q-92 -117 -116 -178q6 -10 6 -23q0 -39 -47 -71.5t-96 -32.5q-70 -1 -70 71zM152 244q0 258 20 596q23 362 47 465q29 113 121 112q47 0 80 -45q35 -53 35 -151 q0 -31 -4 -66l-50 -432q-25 -250 -24 -432v-103q39 -59 39 -106q0 -53 -38 -83t-91 -30q-90 0 -123 74q-12 27 -12 201z" />
<glyph unicode="&#xce;" horiz-adv-x="546" d="M70 1532q0 49 43 82l151 131q111 90 170 90q39 0 67.5 -30.5t30.5 -71.5q8 -80 46 -109q29 -23 28 -86q0 -92 -78 -92q-14 0 -30 4q-51 12 -88 68.5t-41 56.5q-20 -4 -60.5 -38t-44.5 -44q-8 -27 -35 -51q-33 -29 -65 -29q-43 0 -76 53q-18 33 -18 66zM152 244 q0 258 20 596q23 362 47 465q29 113 121 112q47 0 80 -45q35 -53 35 -151q0 -31 -4 -66l-50 -432q-25 -250 -24 -432v-103q39 -59 39 -106q0 -53 -38 -83t-91 -30q-90 0 -123 74q-12 27 -12 201z" />
<glyph unicode="&#xcf;" horiz-adv-x="546" d="M152 244q0 258 20 596q23 362 47 465q29 113 121 112q47 0 80 -45q35 -53 35 -151q0 -31 -4 -66l-50 -432q-25 -250 -24 -432v-103q39 -59 39 -106q0 -53 -38 -83t-91 -30q-90 0 -123 74q-12 27 -12 201zM160 1669q0 102 20 156q27 70 92 69q41 0 75 -29.5t34 -70.5 q0 -27 -16.5 -72t-18.5 -62.5t-2 -55.5q-2 -115 -96 -115q-14 0 -29 2q-59 10 -59 178zM391 1571q0 45 25 117l37 102q25 86 98 86q47 0 75.5 -33t28.5 -76q0 -29 -22 -73q-41 -78 -48 -126t-30 -71q-35 -31 -78 -31q-29 0 -51 21q-35 31 -35 84z" />
<glyph unicode="&#xd0;" horiz-adv-x="1382" d="M-39 623q0 45 55 100q23 20 170 49q8 145 25 379l-68 -23q-8 -2 -16 -2q-49 0 -92 41t-43 88q0 51 53 82q76 47 248 76q141 23 260 23q336 0 588 -138q268 -147 268 -369q0 -243 -369 -540q-203 -164 -579 -381q-8 -47 -48 -76.5t-85 -29.5q-41 0 -66 22q-8 -2 -14 -2 q-68 0 -68 109q0 55 23 94q-18 242 -23 424q-35 -8 -98 -19q-37 0 -74 23q-47 27 -47 70zM406 541q0 -158 20 -297q236 131 444 299q303 242 304 395q0 135 -207 219q-176 70 -387 70q-68 0 -119 -8l-41 -381q8 4 24 20q20 55 95 55q51 0 96 -30.5t45 -73.5q0 -41 -45 -80 q-53 -49 -229 -115v-73z" />
<glyph unicode="&#xd1;" horiz-adv-x="1253" d="M98 96q0 170 15 428q14 238 24 301q4 25 17 279q12 217 32 248q41 61 107 61q55 0 90 -55q47 -74 104 -240q168 -492 375 -674q-2 213 -2 373q0 197 4 270q2 29 2 62q0 29 -4 86l-6 84q0 125 121 125q125 0 125 -314q0 -74 -7.5 -183t-7.5 -126q0 -31 -6 -110.5 t-6 -139.5q0 -109 19 -247q27 -39 26 -82q0 -39 -20 -74q0 -82 -33 -126t-80 -44t-83 43t-36 117v10l-71 45q-131 74 -435 637q-84 -549 -83 -631q0 -20 4 -22q35 -39 34 -123q0 -74 -28 -125q-33 -59 -90 -60q-37 0 -84 29q-17 8 -17 178zM240 1591q0 39 30 76 q45 61 127 121q119 82 224 82q119 0 178 -178l106 86q76 57 117 57q45 -2 75.5 -29.5t30.5 -72.5q0 -66 -57 -76q-37 -6 -63 -27l-54 -43q-111 -92 -213 -92q-74 0 -104 55q-2 6 -16 74q-10 55 -27 55q-25 0 -80 -31.5t-80 -66.5q-51 -70 -112 -70q-82 0 -82 80z" />
<glyph unicode="&#xd2;" horiz-adv-x="1443" d="M14 401q0 154 108.5 380.5t264.5 381.5q176 176 338 178q143 0 215 -65q520 -100 520 -465q0 -180 -186 -383q-168 -182 -412 -310t-418 -128q-102 0 -188 37q-242 106 -242 374zM258 426q0 -143 72 -182q59 -31 135 -31q190 0 467 199q291 209 293 391q0 156 -176 221 q-109 41 -263 41q-14 0 -26 -2q-35 -18 -68 -39q-39 -20 -69 -20q-35 0 -70 22q-143 -125 -223 -301q-72 -158 -72 -299zM453 1851q0 33 28.5 53.5t71.5 20.5q53 0 94 -35q29 -25 144 -153q92 -102 151 -133h8q45 0 78 -41t33 -88q0 -70 -74 -70q-23 0 -51 8 q-53 14 -223 158q-166 137 -236 219q-24 32 -24 61z" />
<glyph unicode="&#xd3;" horiz-adv-x="1443" d="M14 401q0 154 108.5 380.5t264.5 381.5q176 176 338 178q143 0 215 -65q520 -100 520 -465q0 -180 -186 -383q-168 -182 -412 -310t-418 -128q-102 0 -188 37q-242 106 -242 374zM258 426q0 -143 72 -182q59 -31 135 -31q190 0 467 199q291 209 293 391q0 156 -176 221 q-109 41 -263 41q-14 0 -26 -2q-35 -18 -68 -39q-39 -20 -69 -20q-35 0 -70 22q-143 -125 -223 -301q-72 -158 -72 -299zM702 1495q0 10 3 21q6 53 128.5 248.5t196.5 267.5q39 37 78 36q35 0 58.5 -27.5t23.5 -66.5t-27 -73l-137 -172q-92 -117 -117 -179q6 -10 6 -22 q0 -39 -47 -72t-96 -33q-70 0 -70 72z" />
<glyph unicode="&#xd4;" horiz-adv-x="1443" d="M14 401q0 154 108.5 380.5t264.5 381.5q176 176 338 178q143 0 215 -65q520 -100 520 -465q0 -180 -186 -383q-168 -182 -412 -310t-418 -128q-102 0 -188 37q-242 106 -242 374zM258 426q0 -143 72 -182q59 -31 135 -31q190 0 467 199q291 209 293 391q0 156 -176 221 q-109 41 -263 41q-14 0 -26 -2q-35 -18 -68 -39q-39 -20 -69 -20q-35 0 -70 22q-143 -125 -223 -301q-72 -158 -72 -299zM506 1542q0 49 43 82l151 131q111 90 170 90q39 0 68 -30.5t31 -71.5q8 -80 45 -109q29 -23 28 -86q0 -92 -77 -92q-14 0 -31 4q-51 12 -88 68.5 t-41 56.5q-20 -4 -60 -38t-45 -44q-8 -27 -34 -51q-33 -29 -66 -29q-43 0 -76 54q-18 32 -18 65z" />
<glyph unicode="&#xd5;" horiz-adv-x="1443" d="M14 401q0 154 108.5 380.5t264.5 381.5q176 176 338 178q143 0 215 -65q520 -100 520 -465q0 -180 -186 -383q-168 -182 -412 -310t-418 -128q-102 0 -188 37q-242 106 -242 374zM258 426q0 -143 72 -182q59 -31 135 -31q190 0 467 199q291 209 293 391q0 156 -176 221 q-109 41 -263 41q-14 0 -26 -2q-35 -18 -68 -39q-39 -20 -69 -20q-35 0 -70 22q-143 -125 -223 -301q-72 -158 -72 -299zM424 1513q0 39 31 76q45 61 127 121q119 82 223 82q119 0 178 -178l107 86q76 57 116 57q45 -2 76 -29.5t31 -72.5q0 -66 -58 -76q-37 -6 -63 -27 l-53 -43q-111 -92 -213 -92q-74 0 -105 56q-2 6 -16 73q-10 55 -27 56q-25 0 -80 -32t-80 -67q-51 -70 -112 -69q-82 -1 -82 79z" />
<glyph unicode="&#xd6;" horiz-adv-x="1443" d="M14 401q0 154 108.5 380.5t264.5 381.5q176 176 338 178q143 0 215 -65q520 -100 520 -465q0 -180 -186 -383q-168 -182 -412 -310t-418 -128q-102 0 -188 37q-242 106 -242 374zM258 426q0 -143 72 -182q59 -31 135 -31q190 0 467 199q291 209 293 391q0 156 -176 221 q-109 41 -263 41q-14 0 -26 -2q-35 -18 -68 -39q-39 -20 -69 -20q-35 0 -70 22q-143 -125 -223 -301q-72 -158 -72 -299zM653 1640q0 102 21 156q27 70 92 70q41 0 74.5 -30t33.5 -71q0 -27 -16 -71.5t-18 -62t-2 -56.5q-2 -115 -97 -115q-14 0 -28 2q-60 10 -60 178z M885 1542q0 45 24 117l37 102q25 86 98 86q47 0 76 -32.5t29 -75.5q0 -29 -23 -74q-41 -78 -48 -126t-29 -71q-35 -31 -78 -30q-29 0 -51 20q-35 31 -35 84z" />
<glyph unicode="&#xd7;" horiz-adv-x="1007" d="M109 66q0 63 55 90q8 2 188 245l-166 240q-31 45 -30 78q0 76 114 76q86 0 222 -215q152 197 176 202q18 4 34 4q106 0 107 -84v-12q-4 -33 -203 -287q47 -78 148 -225q66 -82 65 -112q0 -39 -39 -61.5t-80 -22.5q-115 0 -141 116q0 4 -86 127q-55 -72 -108 -131v-4 q0 -127 -142 -127q-114 3 -114 103z" />
<glyph unicode="&#xd8;" horiz-adv-x="1443" d="M14 401q0 154 108.5 380.5t264.5 381.5q176 176 338 178q143 0 215 -65l18 -4q111 137 191 137q57 0 92 -74q2 -6 2 -16q0 -43 -51 -121q268 -123 268 -387q0 -180 -186 -383q-168 -182 -412 -310t-418 -128q-41 0 -77 6l-5 -16q-31 -96 -36 -105q-25 -49 -80 -49 q-16 0 -37 4q-92 18 -92 119q0 68 39 137q-142 112 -142 315zM258 426q0 -74 23 -125q211 350 520 764h-15q-14 0 -26 -2q-35 -18 -68 -39q-39 -20 -69 -20q-35 0 -70 22q-143 -125 -223 -301q-72 -158 -72 -299zM481 215q188 6 457 203q285 207 287 385q0 152 -166 217 l-232 -303q-113 -154 -346 -502z" />
<glyph unicode="&#xd9;" horiz-adv-x="1370" d="M102 780v60q0 170 11 352q2 63 37.5 108.5t99.5 45.5q53 0 85 -27t32 -92q0 -92 -13 -271q-12 -186 -12 -270q0 -170 66.5 -324.5t128.5 -154.5h2q250 25 448 405q172 332 178 613q0 12 -3 46t-3 54q0 125 117 127q143 0 143 -125q0 -20 -4 -45q-80 -463 -239 -780 q-258 -514 -672 -514q-203 2 -316 315q-82 227 -86 477zM459 1829q0 33 28.5 53.5t71.5 20.5q53 0 94 -35q29 -25 144 -154q92 -102 151 -133h8q45 0 78 -41t33 -88q0 -70 -74 -70q-23 0 -51 9q-53 14 -223 157q-166 137 -236 219q-24 33 -24 62z" />
<glyph unicode="&#xda;" horiz-adv-x="1370" d="M102 780v60q0 170 11 352q2 63 37.5 108.5t99.5 45.5q53 0 85 -27t32 -92q0 -92 -13 -271q-12 -186 -12 -270q0 -170 66.5 -324.5t128.5 -154.5h2q250 25 448 405q172 332 178 613q0 12 -3 46t-3 54q0 125 117 127q143 0 143 -125q0 -20 -4 -45q-80 -463 -239 -780 q-258 -514 -672 -514q-203 2 -316 315q-82 227 -86 477zM678 1522q0 10 2 20q6 53 129 249t197 267q39 37 77 37q35 0 58.5 -27.5t23.5 -66.5t-26 -74l-138 -172q-92 -117 -116 -178q6 -10 6 -23q0 -39 -47 -71.5t-96 -32.5q-70 0 -70 72z" />
<glyph unicode="&#xdb;" horiz-adv-x="1370" d="M102 780v60q0 170 11 352q2 63 37.5 108.5t99.5 45.5q53 0 85 -27t32 -92q0 -92 -13 -271q-12 -186 -12 -270q0 -170 66.5 -324.5t128.5 -154.5h2q250 25 448 405q172 332 178 613q0 12 -3 46t-3 54q0 125 117 127q143 0 143 -125q0 -20 -4 -45q-80 -463 -239 -780 q-258 -514 -672 -514q-203 2 -316 315q-82 227 -86 477zM514 1573q0 49 43 82l152 131q111 90 170 90q39 0 67.5 -30.5t30.5 -71.5q8 -80 45 -109q29 -23 29 -86q0 -92 -78 -92q-14 0 -31 4q-51 12 -88 68.5t-41 56.5q-20 -4 -60 -38t-44 -44q-8 -27 -35 -51 q-33 -29 -66 -29q-43 0 -76 53q-18 33 -18 66z" />
<glyph unicode="&#xdc;" horiz-adv-x="1370" d="M102 780v60q0 170 11 352q2 63 37.5 108.5t99.5 45.5q53 0 85 -27t32 -92q0 -92 -13 -271q-12 -186 -12 -270q0 -170 66.5 -324.5t128.5 -154.5h2q250 25 448 405q172 332 178 613q0 12 -3 46t-3 54q0 125 117 127q143 0 143 -125q0 -20 -4 -45q-80 -463 -239 -780 q-258 -514 -672 -514q-203 2 -316 315q-82 227 -86 477zM573 1630q0 102 21 156q27 70 92 69q41 0 75 -29.5t34 -70.5q0 -27 -16.5 -72t-18.5 -62t-2 -56q-2 -115 -96 -115q-14 0 -29 2q-60 10 -60 178zM805 1532q0 45 24 117l37 102q25 86 99 86q47 0 75.5 -32.5 t28.5 -75.5q0 -29 -22 -74q-41 -78 -48.5 -126t-29.5 -71q-35 -31 -78 -31q-29 0 -51 21q-35 31 -35 84z" />
<glyph unicode="&#xdd;" horiz-adv-x="1634" d="M45 760q0 51 53 86l260 354q20 27 62 60q49 39 63 53q35 35 80 35t80 -30t35 -71q0 -47 -51 -90q-123 -106 -242 -295q291 -6 397 -10q326 -12 709 -45q84 -6 84 -92q0 -43 -29 -74q-31 -37 -78 -37h-6q-348 23 -1065 45l308 -399q53 -72 53 -139q0 -51 -32 -85t-73 -34 q-100 0 -125 147q-2 10 -190 256t-209 254q-84 33 -84 111z" />
<glyph unicode="&#xde;" horiz-adv-x="2863" d="M63 745l11 64q14 63 26 70l822 354q33 86 114 86q55 0 105.5 -41t50.5 -92q0 -37 -31 -66q0 -4 56 -258q78 2 153 2q119 0 502 -12q123 -4 246 -16q139 -14 204 -19q106 -6 244 -6h35q14 0 42 10t46 10q53 0 89 -33.5t36 -74.5q0 -45 -41 -72q-80 -53 -299 -53 q-102 0 -203 12q-211 20 -504 31l-505 12q33 -127 32 -239q0 -125 -23.5 -252t-47.5 -137q-31 -14 -60 -15q-68 0 -129 94q-68 106 -450 340zM389 791q233 -127 680 -435v19q0 119 -16 194q-51 233 -92 461z" />
<glyph unicode="&#xdf;" horiz-adv-x="1019" d="M-8 1059q0 90 88 147q12 41 48 73t75 32q37 0 63 -33q301 92 496 92q84 0 127 -16q78 -29 78 -94q0 -92 -144 -244q-47 -49 -184 -174q-98 -88 -98 -160q0 -76 108 -115q80 -25 228 -90q98 -59 98 -160q0 -176 -246 -389q-236 -205 -410 -204q-12 0 -22 2q4 -41 20 -109 q12 -55 13 -86q0 -27 -8 -55q-16 -63 -89 -64q-57 0 -98 47q-49 55 -49 150q0 27 4 55q-8 373 -18 938v76q0 164 4 287q-84 10 -84 94zM276 797q0 -88 5 -193q4 -123 10 -637q27 14 76 17q57 0 79 8q63 23 181 117q137 111 137 174q0 39 -51 53q-180 55 -248 100 q-127 82 -127 221q0 137 137 293q70 78 246 226q-96 -12 -244 -54q-160 -43 -184 -69q-17 -45 -17 -256z" />
<glyph unicode="&#xe0;" horiz-adv-x="774" d="M59 174q0 119 92.5 223.5t200.5 104.5q80 0 142 -66v2q0 117 -56 211q-29 45 -76 45q-25 0 -45 -11t-22 -19q-8 -57 -74 -58q-43 0 -73.5 30t-30.5 73q0 80 84 129q76 43 176 43q80 0 131 -29q197 -117 197 -406q0 -127 -39 -268q-29 -109 -58 -153q-14 -27 -59 -27 q-53 0 -88 35q-129 -63 -207 -63.5t-131 50.5q-64 64 -64 154zM129 1376q0 33 28.5 53.5t71.5 20.5q53 0 95 -35q29 -25 143 -153q92 -102 151 -134h9q45 0 77.5 -40.5t32.5 -88.5q0 -70 -73 -69q-23 0 -52 8q-53 14 -223 158q-166 137 -235 219q-25 32 -25 61zM260 178 q0 -18 16 -18q20 0 123 65q-23 76 -32 76h-2q-68 -12 -97 -88q-8 -23 -8 -35z" />
<glyph unicode="&#xe1;" horiz-adv-x="774" d="M59 174q0 119 92.5 223.5t200.5 104.5q80 0 142 -66v2q0 117 -56 211q-29 45 -76 45q-25 0 -45 -11t-22 -19q-8 -57 -74 -58q-43 0 -73.5 30t-30.5 73q0 80 84 129q76 43 176 43q80 0 131 -29q197 -117 197 -406q0 -127 -39 -268q-29 -109 -58 -153q-14 -27 -59 -27 q-53 0 -88 35q-129 -63 -207 -63.5t-131 50.5q-64 64 -64 154zM260 178q0 -18 16 -18q20 0 123 65q-23 76 -32 76h-2q-68 -12 -97 -88q-8 -23 -8 -35zM311 1020q0 10 2 20q6 53 129 249t197 267q39 37 78 37q35 0 58.5 -27.5t23.5 -66.5t-27 -74l-137 -172 q-92 -117 -117 -178q6 -10 6 -22q0 -39 -47 -72t-96 -33q-70 0 -70 72z" />
<glyph unicode="&#xe2;" horiz-adv-x="774" d="M59 174q0 119 92.5 223.5t200.5 104.5q80 0 142 -66v2q0 117 -56 211q-29 45 -76 45q-25 0 -45 -11t-22 -19q-8 -57 -74 -58q-43 0 -73.5 30t-30.5 73q0 80 84 129q76 43 176 43q80 0 131 -29q197 -117 197 -406q0 -127 -39 -268q-29 -109 -58 -153q-14 -27 -59 -27 q-53 0 -88 35q-129 -63 -207 -63.5t-131 50.5q-64 64 -64 154zM182 1133q0 49 43 81l152 132q111 90 170 90q39 0 67.5 -31t30.5 -72q8 -80 45 -108q29 -23 29 -86q0 -92 -78 -92q-14 0 -31 4q-51 12 -88 68.5t-41 56.5q-20 -4 -60 -38t-44 -44q-8 -27 -35 -52 q-33 -29 -66 -28q-43 0 -75 53q-19 33 -19 66zM260 178q0 -18 16 -18q20 0 123 65q-23 76 -32 76h-2q-68 -12 -97 -88q-8 -23 -8 -35z" />
<glyph unicode="&#xe3;" horiz-adv-x="774" d="M35 1116q0 39 31 76q45 61 127 121q119 82 223 82q119 0 178 -178l106 86q76 57 117 57q45 -2 76 -29.5t31 -73.5q0 -66 -58 -75q-37 -6 -63 -27l-53 -43q-111 -92 -213 -92q-74 0 -105 55q-2 6 -16 74q-10 55 -27 55q-25 0 -80 -31.5t-80 -66.5q-51 -70 -112 -70 q-82 0 -82 80zM59 174q0 119 92.5 223.5t200.5 104.5q80 0 142 -66v2q0 117 -56 211q-29 45 -76 45q-25 0 -45 -11t-22 -19q-8 -57 -74 -58q-43 0 -73.5 30t-30.5 73q0 80 84 129q76 43 176 43q80 0 131 -29q197 -117 197 -406q0 -127 -39 -268q-29 -109 -58 -153 q-14 -27 -59 -27q-53 0 -88 35q-129 -63 -207 -63.5t-131 50.5q-64 64 -64 154zM260 178q0 -18 16 -18q20 0 123 65q-23 76 -32 76h-2q-68 -12 -97 -88q-8 -23 -8 -35z" />
<glyph unicode="&#xe4;" horiz-adv-x="774" d="M59 174q0 119 92.5 223.5t200.5 104.5q80 0 142 -66v2q0 117 -56 211q-29 45 -76 45q-25 0 -45 -11t-22 -19q-8 -57 -74 -58q-43 0 -73.5 30t-30.5 73q0 80 84 129q76 43 176 43q80 0 131 -29q197 -117 197 -406q0 -127 -39 -268q-29 -109 -58 -153q-14 -27 -59 -27 q-53 0 -88 35q-129 -63 -207 -63.5t-131 50.5q-64 64 -64 154zM233 1167q0 102 21 156q27 70 92 70q41 0 75 -30t34 -71q0 -27 -16.5 -71.5t-18.5 -62t-2 -56.5q-2 -115 -96 -115q-14 0 -29 2q-60 10 -60 178zM260 178q0 -18 16 -18q20 0 123 65q-23 76 -32 76h-2 q-68 -12 -97 -88q-8 -23 -8 -35zM465 1069q0 45 24 117l37 102q25 86 99 86q47 0 75.5 -32.5t28.5 -75.5q0 -29 -22 -74q-41 -78 -48.5 -126t-29.5 -71q-35 -31 -78 -30q-29 0 -51 20q-35 31 -35 84z" />
<glyph unicode="&#xe5;" horiz-adv-x="774" d="M59 174q0 119 92.5 223.5t200.5 104.5q80 0 142 -66v2q0 117 -56 211q-29 45 -76 45q-25 0 -45 -11t-22 -19q-8 -57 -74 -58q-43 0 -73.5 30t-30.5 73q0 80 84 129q76 43 176 43q80 0 131 -29q197 -117 197 -406q0 -127 -39 -268q-29 -109 -58 -153q-14 -27 -59 -27 q-53 0 -88 35q-129 -63 -207 -63.5t-131 50.5q-64 64 -64 154zM240 1128q0 78 39.5 162t89.5 117q70 47 157 47q104 0 181 -55q53 -41 53 -113q0 -90 -86 -182q-133 -141 -256 -141q-33 0 -70 10q-108 26 -108 155zM260 178q0 -18 16 -18q20 0 123 65q-23 76 -32 76h-2 q-68 -12 -97 -88q-8 -23 -8 -35zM455 1200q0 -12 16 -12q10 0 19.5 9t33.5 22q16 12 17 14q-4 12 -21 12q-27 0 -51 -20q-14 -15 -14 -25z" />
<glyph unicode="&#xe6;" horiz-adv-x="1468" d="M59 174q0 119 92.5 223.5t200.5 104.5q80 0 142 -66v2q0 117 -56 211q-29 45 -76 45q-25 0 -45 -11t-22 -19q-8 -57 -74 -58q-43 0 -73.5 30t-30.5 73q0 80 84 129q76 43 176 43q80 0 131 -29q92 -55 141 -152q178 152 422 152q201 0 201 -107q0 -41 -39 -92 q-88 -111 -242 -186q-145 -72 -268 -74v-12q0 -66 44 -127t101 -61h4q78 2 224 104q100 72 151 123q55 92 113 92q29 0 59 -20q57 -37 58 -93q0 -74 -68 -116l-82 -62q-313 -231 -481 -231q-115 0 -211 92q-16 -39 -27 -57q-14 -27 -59 -27q-53 0 -88 35 q-129 -63 -207 -63.5t-131 50.5q-64 64 -64 154zM260 178q0 -18 16 -18q20 0 123 65q-23 76 -32 76h-2q-68 -12 -97 -88q-8 -23 -8 -35zM788 580q147 29 261 108q-37 -4 -144 -37q-49 -20 -86 -47q-17 -12 -31 -24z" />
<glyph unicode="&#xe7;" horiz-adv-x="1073" d="M18 244q0 174 185 377q174 190 307 210q33 4 59 5q123 0 123 -86q0 -53 -48 -103.5t-107 -50.5q-12 0 -23 2q-35 6 -33 6h-2q-63 -16 -150 -137t-87 -203q0 -74 90 -74q113 0 346 115l332 180q23 12 49 13q41 0 75.5 -26t34.5 -56q0 -29 -30 -51q-311 -219 -551 -310v-12 q0 -31 45 -76q63 -61 63 -139q0 -113 -135 -245t-246 -132q-92 0 -92 96q0 45 29 80t80 35h4q27 0 95.5 53.5t68.5 85.5q0 10 -8 19q-94 80 -111 180q-35 -4 -68 -4q-156 0 -243 102q-52 62 -52 146z" />
<glyph unicode="&#xe8;" horiz-adv-x="1007" d="M37 391q0 39 8 74q41 184 227 295q158 92 336 92q201 0 201 -107q0 -41 -39 -92q-86 -111 -240 -186q-145 -72 -268 -74v-12q0 -66 43 -127t103 -61q70 0 200 86q109 72 178 141q55 92 113 92q29 0 59 -20q57 -37 58 -93q0 -74 -70 -116q-31 -25 -82 -62 q-311 -231 -479 -231q-143 0 -248 131q-100 125 -100 270zM231 1376q0 33 29 53.5t72 20.5q53 0 94 -35q29 -25 143 -153q92 -102 152 -134h8q45 0 78 -40.5t33 -88.5q0 -70 -74 -69q-23 0 -51 8q-53 14 -223 158q-166 137 -236 219q-25 32 -25 61zM326 580q150 29 260 108 q-35 -4 -142 -37q-49 -20 -88 -47q-14 -12 -30 -24z" />
<glyph unicode="&#xe9;" horiz-adv-x="1007" d="M37 391q0 39 8 74q41 184 227 295q158 92 336 92q201 0 201 -107q0 -41 -39 -92q-86 -111 -240 -186q-145 -72 -268 -74v-12q0 -66 43 -127t103 -61q70 0 200 86q109 72 178 141q55 92 113 92q29 0 59 -20q57 -37 58 -93q0 -74 -70 -116q-31 -25 -82 -62 q-311 -231 -479 -231q-143 0 -248 131q-100 125 -100 270zM311 938q0 10 2 20q6 53 129 249t197 268q39 37 78 36q35 0 58.5 -27.5t23.5 -66.5t-27 -74l-137 -172q-92 -117 -117 -178q6 -10 6 -22q0 -39 -47 -72t-96 -33q-70 0 -70 72zM326 580q150 29 260 108 q-35 -4 -142 -37q-49 -20 -88 -47q-14 -12 -30 -24z" />
<glyph unicode="&#xea;" horiz-adv-x="1007" d="M37 391q0 39 8 74q41 184 227 295q158 92 336 92q201 0 201 -107q0 -41 -39 -92q-86 -111 -240 -186q-145 -72 -268 -74v-12q0 -66 43 -127t103 -61q70 0 200 86q109 72 178 141q55 92 113 92q29 0 59 -20q57 -37 58 -93q0 -74 -70 -116q-31 -25 -82 -62 q-311 -231 -479 -231q-143 0 -248 131q-100 125 -100 270zM305 1133q0 49 43 81l152 132q111 90 170 90q39 0 67.5 -31t30.5 -72q8 -80 45 -108q29 -23 29 -86q0 -92 -78 -92q-14 0 -31 4q-51 12 -88 68.5t-41 56.5q-20 -4 -60 -38t-44 -44q-8 -27 -35 -52q-33 -29 -66 -28 q-43 0 -75 53q-19 33 -19 66zM326 580q150 29 260 108q-35 -4 -142 -37q-49 -20 -88 -47q-14 -12 -30 -24z" />
<glyph unicode="&#xeb;" horiz-adv-x="1007" d="M37 391q0 39 8 74q41 184 227 295q158 92 336 92q201 0 201 -107q0 -41 -39 -92q-86 -111 -240 -186q-145 -72 -268 -74v-12q0 -66 43 -127t103 -61q70 0 200 86q109 72 178 141q55 92 113 92q29 0 59 -20q57 -37 58 -93q0 -74 -70 -116q-31 -25 -82 -62 q-311 -231 -479 -231q-143 0 -248 131q-100 125 -100 270zM326 580q150 29 260 108q-35 -4 -142 -37q-49 -20 -88 -47q-14 -12 -30 -24zM356 1167q0 102 21 156q27 70 92 70q41 0 75 -30t34 -71q0 -27 -16.5 -71.5t-18.5 -62t-2 -56.5q-2 -115 -97 -115q-14 0 -28 2 q-60 10 -60 178zM588 1069q0 45 24 117l37 102q25 86 99 86q47 0 75.5 -32.5t28.5 -75.5q0 -29 -23 -74q-41 -78 -48 -126t-29 -71q-35 -31 -78 -30q-29 0 -51 20q-35 31 -35 84z" />
<glyph unicode="&#xec;" horiz-adv-x="528" d="M18 1376q0 33 29 53.5t72 20.5q53 0 94 -35q29 -25 143 -153q92 -102 152 -134h8q45 0 78 -40.5t33 -88.5q0 -70 -74 -69q-23 0 -51 8q-53 14 -223 158q-166 137 -236 219q-25 32 -25 61zM137 219l21 399q6 143 12 168q23 100 109 103q51 0 83.5 -39t32.5 -92v-17 q-41 -362 -47 -456v-37q0 -29 17 -76q8 -20 8 -43q0 -49 -32 -85t-79 -36q-39 0 -82 34t-43 177z" />
<glyph unicode="&#xed;" horiz-adv-x="528" d="M53 938q0 10 2 20q6 53 129 249t197 268q39 37 78 36q35 0 58.5 -27.5t23.5 -66.5t-27 -74l-137 -172q-92 -117 -117 -178q6 -10 6 -22q0 -39 -47 -72t-96 -33q-70 0 -70 72zM137 219l21 399q6 143 12 168q23 100 109 103q51 0 83.5 -39t32.5 -92v-17q-41 -362 -47 -456 v-37q0 -29 17 -76q8 -20 8 -43q0 -49 -32 -85t-79 -36q-39 0 -82 34t-43 177z" />
<glyph unicode="&#xee;" horiz-adv-x="528" d="M35 1133q0 49 43 81l151 132q111 90 170 90q39 0 68 -31t31 -72q8 -80 45 -108q29 -23 28 -86q0 -92 -77 -92q-14 0 -31 4q-51 12 -88 68.5t-41 56.5q-20 -4 -60.5 -38t-44.5 -44q-8 -27 -34 -52q-33 -29 -66 -28q-43 0 -76 53q-18 33 -18 66zM137 219l21 399 q6 143 12 168q23 100 109 103q51 0 83.5 -39t32.5 -92v-17q-41 -362 -47 -456v-37q0 -29 17 -76q8 -20 8 -43q0 -49 -32 -85t-79 -36q-39 0 -82 34t-43 177z" />
<glyph unicode="&#xef;" horiz-adv-x="528" d="M109 1188q0 102 20 155q27 70 92 70q41 0 75 -29.5t34 -70.5q0 -27 -16.5 -72t-18.5 -62.5t-2 -56.5q-2 -115 -96 -114q-14 0 -29 2q-59 10 -59 178zM137 219l21 399q6 143 12 168q23 100 109 103q51 0 83.5 -39t32.5 -92v-17q-41 -362 -47 -456v-37q0 -29 17 -76 q8 -20 8 -43q0 -49 -32 -85t-79 -36q-39 0 -82 34t-43 177zM340 1090q0 45 25 116l36 103q25 86 99 86q47 0 75.5 -33t28.5 -76q0 -29 -22 -74q-41 -78 -48.5 -126t-29.5 -70q-35 -31 -78 -31q-29 0 -51 21q-35 31 -35 84z" />
<glyph unicode="&#xf0;" horiz-adv-x="989" d="M6 152q0 102 82 229q68 104 158 178q190 156 463 191q20 68 20 145q0 74 -16 125q-170 -55 -232 -55q-94 0 -94 90t84 114l80 19q-39 12 -82 12q-102 0 -188 -70q-16 -14 -45 -14q-45 0 -90.5 33t-45.5 72q0 82 142 139q115 45 209 45q221 -2 350 -141l37 18q20 55 90 55 q51 0 94 -29.5t43 -72.5q0 -41 -43 -80q-25 -25 -117 -65q33 -96 33 -205q0 -76 -16 -152q117 -43 116 -139q0 -49 -31.5 -85t-74.5 -36q-47 0 -88 45q-84 -164 -230 -330q-76 -86 -190 -155q-131 -80 -231 -80q-78 0 -125 49q-62 62 -62 150zM211 188q0 -33 29 -32 q63 0 219 174q51 57 139 180q-133 -39 -238 -133q-149 -132 -149 -189z" />
<glyph unicode="&#xf1;" d="M2 1116q0 39 31 76q45 61 127 121q119 82 223 82q119 0 178 -178l107 86q76 57 116 57q45 -2 76 -29.5t31 -73.5q0 -66 -57 -75q-37 -6 -64 -27l-53 -43q-111 -92 -213 -92q-74 0 -105 55q-2 6 -16 74q-10 55 -27 55q-25 0 -80 -31.5t-79 -66.5q-51 -70 -113 -70 q-82 0 -82 80zM63 109q0 399 41 686q12 90 91 90q80 0 116 -56q14 -23 15 -75q0 -33 -9 -109q166 246 265 246q139 0 139 -526v-21v-65q-2 -53 -2 -84q0 -63 4 -86q37 -72 37 -113q0 -45 -39 -76q-45 -37 -80 -37q-96 0 -127 273q-10 78 -14 260q-2 158 -4 157v-2 q-70 -129 -199 -491q-33 -92 -61 -105q-45 -16 -78 -16q-95 0 -95 150z" />
<glyph unicode="&#xf2;" horiz-adv-x="786" d="M31 332q0 88 35 170q164 367 368 366q94 0 178 -69q106 -88 129 -244q6 -35 7 -70q0 -205 -158 -354q-143 -137 -301 -137q-55 0 -96 20q-66 35 -114 124.5t-48 193.5zM166 1376q0 33 28.5 53.5t71.5 20.5q53 0 94 -35q29 -25 144 -153q92 -102 151 -134h9 q45 0 77.5 -40.5t32.5 -88.5q0 -70 -74 -69q-23 0 -51 8q-53 14 -223 158q-166 137 -236 219q-24 32 -24 61zM244 334q0 -37 14 -78q18 -51 49 -51q39 0 100.5 44t86.5 93q47 94 47 164q0 45 -20.5 90t-49.5 55q-145 -49 -219 -264q-8 -24 -8 -53z" />
<glyph unicode="&#xf3;" horiz-adv-x="786" d="M31 332q0 88 35 170q164 367 368 366q94 0 178 -69q106 -88 129 -244q6 -35 7 -70q0 -205 -158 -354q-143 -137 -301 -137q-55 0 -96 20q-66 35 -114 124.5t-48 193.5zM244 334q0 -37 14 -78q18 -51 49 -51q39 0 100.5 44t86.5 93q47 94 47 164q0 45 -20.5 90t-49.5 55 q-145 -49 -219 -264q-8 -24 -8 -53zM328 979q0 10 2 20q6 53 129 249t196 268q39 37 78 36q35 0 58.5 -27.5t23.5 -66.5t-27 -74l-137 -172q-92 -117 -116 -178q6 -10 6 -22q0 -39 -47.5 -72t-96.5 -33q-69 0 -69 72z" />
<glyph unicode="&#xf4;" horiz-adv-x="786" d="M31 332q0 88 35 170q164 367 368 366q94 0 178 -69q106 -88 129 -244q6 -35 7 -70q0 -205 -158 -354q-143 -137 -301 -137q-55 0 -96 20q-66 35 -114 124.5t-48 193.5zM219 1133q0 49 43 81l152 132q111 90 170 90q39 0 67.5 -31t30.5 -72q8 -80 45 -108q29 -23 29 -86 q0 -92 -78 -92q-14 0 -31 4q-51 12 -88 68.5t-41 56.5q-20 -4 -60 -38t-44 -44q-8 -27 -35 -52q-33 -29 -66 -28q-43 0 -75 53q-19 33 -19 66zM244 334q0 -37 14 -78q18 -51 49 -51q39 0 100.5 44t86.5 93q47 94 47 164q0 45 -20.5 90t-49.5 55q-145 -49 -219 -264 q-8 -24 -8 -53z" />
<glyph unicode="&#xf5;" horiz-adv-x="786" d="M31 332q0 88 35 170q164 367 368 366q94 0 178 -69q106 -88 129 -244q6 -35 7 -70q0 -205 -158 -354q-143 -137 -301 -137q-55 0 -96 20q-66 35 -114 124.5t-48 193.5zM33 1116q0 39 30 76q45 61 127 121q119 82 224 82q119 0 178 -178l106 86q76 57 117 57 q45 -2 76 -29.5t31 -73.5q0 -66 -58 -75q-37 -6 -63 -27l-53 -43q-111 -92 -213 -92q-74 0 -105 55q-2 6 -16 74q-10 55 -27 55q-25 0 -80 -31.5t-80 -66.5q-51 -70 -112 -70q-82 0 -82 80zM244 334q0 -37 14 -78q18 -51 49 -51q39 0 100.5 44t86.5 93q47 94 47 164 q0 45 -20.5 90t-49.5 55q-145 -49 -219 -264q-8 -24 -8 -53z" />
<glyph unicode="&#xf6;" horiz-adv-x="786" d="M31 332q0 88 35 170q164 367 368 366q94 0 178 -69q106 -88 129 -244q6 -35 7 -70q0 -205 -158 -354q-143 -137 -301 -137q-55 0 -96 20q-66 35 -114 124.5t-48 193.5zM244 334q0 -37 14 -78q18 -51 49 -51q39 0 100.5 44t86.5 93q47 94 47 164q0 45 -20.5 90t-49.5 55 q-145 -49 -219 -264q-8 -24 -8 -53zM270 1208q0 102 21 156q27 70 92 70q41 0 75 -30t34 -71q0 -27 -16.5 -71.5t-18.5 -62t-2 -56.5q-2 -115 -97 -115q-14 0 -28 2q-60 10 -60 178zM502 1110q0 45 24 117l37 102q25 86 99 86q47 0 75.5 -32.5t28.5 -75.5q0 -29 -23 -74 q-41 -78 -48 -126t-29 -71q-35 -31 -78 -30q-29 0 -51 20q-35 31 -35 84z" />
<glyph unicode="&#xf7;" horiz-adv-x="964" d="M16 479q0 133 387 162q184 14 310 14q98 0 135 -8q84 -20 84 -86q0 -33 -25.5 -58.5t-48.5 -33.5q-31 -10 -76 -10h-22q-16 2 -25 2h-16h-27q-176 0 -334 -33q-170 -35 -217 -35q-125 0 -125 86zM319 244q0 51 42 83.5t96 32.5q113 0 129 -108q2 -14 2 -27q0 -57 -37 -91 t-88 -34q-104 0 -137 103q-7 21 -7 41zM334 852q0 45 30.5 84t71.5 49q20 4 41 4q57 0 92 -43q29 -39 29 -92t-29 -90q-33 -43 -86 -43q-31 0 -63 16q-86 39 -86 115z" />
<glyph unicode="&#xf8;" horiz-adv-x="786" d="M-29 -160q0 18 6 39q25 66 64 129l59 90q-68 98 -67 219q0 86 37 164q70 156 189.5 256.5t232.5 100.5q51 0 96 -23l207 264q25 55 110 56q94 0 94 -107q0 -12 -2 -24q-2 -25 -48 -70t-83 -57q-80 -82 -168 -195q47 -106 47 -219q0 -197 -157 -340q-143 -131 -301 -131 q-10 0 -21 2q-25 -80 -90 -209q-29 -37 -88 -37q-45 0 -81 25.5t-36 66.5zM240 332l198 286q-66 -27 -126 -114.5t-72 -171.5zM387 219q66 37 107 109q27 47 43 123q-54 -78 -150 -232z" />
<glyph unicode="&#xf9;" d="M70 770q0 113 98 113q47 0 82 -31q39 -37 39 -90v-68q0 -463 90 -463t115 404q2 37 4 61q2 123 104 123q47 0 85 -36t38 -101q0 -109 -66 -336q-86 -299 -196 -332q-41 -10 -76 -10q-305 0 -317 766zM88 1376q0 33 28.5 53.5t71.5 20.5q53 0 95 -35q29 -25 143 -153 q92 -102 152 -134h8q45 0 77.5 -40.5t32.5 -88.5q0 -70 -73 -69q-23 0 -52 8q-53 14 -223 158q-166 137 -235 219q-25 32 -25 61z" />
<glyph unicode="&#xfa;" d="M70 770q0 113 98 113q47 0 82 -31q39 -37 39 -90v-68q0 -463 90 -463t115 404q2 37 4 61q2 123 104 123q47 0 85 -36t38 -101q0 -109 -66 -336q-86 -299 -196 -332q-41 -10 -76 -10q-305 0 -317 766zM311 938q0 10 2 20q6 53 129 249t197 268q39 37 78 36 q35 0 58.5 -27.5t23.5 -66.5t-27 -74l-137 -172q-92 -117 -117 -178q6 -10 6 -22q0 -39 -47 -72t-96 -33q-70 0 -70 72z" />
<glyph unicode="&#xfb;" d="M70 770q0 113 98 113q47 0 82 -31q39 -37 39 -90v-68q0 -463 90 -463t115 404q2 37 4 61q2 123 104 123q47 0 85 -36t38 -101q0 -109 -66 -336q-86 -299 -196 -332q-41 -10 -76 -10q-305 0 -317 766zM141 1133q0 49 43 81l152 132q111 90 170 90q39 0 67.5 -31t30.5 -72 q8 -80 45 -108q29 -23 29 -86q0 -92 -78 -92q-14 0 -31 4q-51 12 -88 68.5t-41 56.5q-20 -4 -60 -38t-44 -44q-8 -27 -35 -52q-33 -29 -65 -28q-43 0 -76 53q-19 33 -19 66z" />
<glyph unicode="&#xfc;" d="M70 770q0 113 98 113q47 0 82 -31q39 -37 39 -90v-68q0 -463 90 -463t115 404q2 37 4 61q2 123 104 123q47 0 85 -36t38 -101q0 -109 -66 -336q-86 -299 -196 -332q-41 -10 -76 -10q-305 0 -317 766zM213 1167q0 102 20 156q27 70 93 70q41 0 74.5 -30t33.5 -71 q0 -27 -16.5 -71.5t-18.5 -62t-2 -56.5q-2 -115 -96 -115q-14 0 -29 2q-59 10 -59 178zM444 1069q0 45 25 117l37 102q25 86 98 86q47 0 76 -32.5t29 -75.5q0 -29 -23 -74q-41 -78 -48 -126t-30 -71q-35 -31 -78 -30q-29 0 -51 20q-35 31 -35 84z" />
<glyph unicode="&#xfd;" horiz-adv-x="1634" d="M51 715q0 86 84 92q512 43 1106 55q-119 188 -242 295q-51 43 -51 90q0 41 35 71t80 30t80 -35q45 -33 125 -113l260 -354q53 -35 53 -86q0 -78 -84 -111q-20 -8 -208.5 -253.5t-190.5 -256.5q-25 -147 -125 -147q-41 0 -72 33.5t-31 85.5q0 68 52 139l307 399 q-190 0 -535 -20q-373 -20 -536 -25q-47 0 -78 37q-29 31 -29 74z" />
<glyph unicode="&#xfe;" horiz-adv-x="2863" d="M53 723q0 41 36 74.5t89 33.5q18 0 46 -10t42 -10h33q139 0 246 6q115 14 450 35q381 12 502 12q76 0 154 -2l55 258q-31 29 -31 66q0 51 49.5 92t106.5 41q80 0 115 -86l2 -2q27 -10 819 -352q31 -14 37 -134l-520 -301q-383 -233 -453 -340q-59 -94 -127 -94 q-29 0 -57.5 12.5t-51 139.5t-22.5 252q0 113 33 239l-506 -12q-293 -10 -506 -31q-98 -12 -201 -12q-219 0 -299 53q-41 27 -41 72zM1796 356l336 228q188 121 346 207l-571 239q-41 -227 -92 -461q-18 -78 -19 -194v-19z" />
<glyph unicode="&#xff;" horiz-adv-x="2955" d="M31 383q0 115 381 299q375 182 596 182q72 0 116 -35q59 -45 60 -118q0 -29 -13.5 -81t-13.5 -61q0 -10 12 -10q29 0 121 43l107 47l184 70q109 41 188 55q90 14 302 14q242 0 518 -16q266 -18 290 -33q33 -29 33 -96q0 -66 -59 -80q-33 -10 -131 -10q-12 0 -324 12 q-154 6 -258 6q-205 0 -317 -20q-53 -10 -353 -127q-262 -100 -385 -100q-88 0 -127 43q-31 35 -30 106q0 43 11 100.5t11 51.5q-2 2 -10 2q-80 0 -348 -117q-291 -129 -369 -223q-27 -35 -63.5 -35t-82.5 46t-46 85z" />
<glyph unicode="&#x152;" horiz-adv-x="1953" d="M14 362q0 154 109.5 382.5t265.5 385.5q176 178 336 181q53 0 98 -11q217 86 369 132q201 61 260 61q33 0 59 -8q70 -23 70 -84q0 -51 -45 -95t-104 -44q-31 0 -58 12q-139 -37 -254 -80q190 -68 277 -186q336 117 471 116q27 0 39 -6q57 -35 57 -92q0 -74 -74 -102 q-25 -10 -110 -17q-94 -4 -316 -92q2 -14 2 -29q0 -135 -100 -274q487 178 588 178q45 0 88 -37t43 -82q0 -51 -70 -65q-250 -47 -817 -301l-154 -80q-109 -51 -157 -51q-18 0 -35 6q-229 -121 -418 -121q-102 0 -186 37q-234 106 -234 366zM256 379q0 -131 66 -166 q51 -27 122 -27q209 0 473.5 182.5t311.5 352.5q-453 -195 -516 -195q-45 0 -78 37t-33 82q0 76 76 103q10 4 55 14q90 27 432 160q-129 111 -366 110h-39l-66 -41q-39 -20 -67 -20q-35 0 -68 24q-145 -131 -229 -313q-74 -162 -74 -303z" />
<glyph unicode="&#x153;" horiz-adv-x="1515" d="M31 317q0 86 37 164q70 156 189.5 256.5t231.5 100.5q133 0 201 -142q178 156 426 156q201 0 201 -107q0 -41 -39 -92q-86 -111 -240 -186q-145 -72 -268 -74q-2 -6 -2 -12q0 -66 44 -127t103 -61h3q80 2 223 104q102 72 153 123q53 92 111 92q29 0 61 -20q57 -37 58 -93 q0 -74 -70 -116q-31 -25 -82 -62q-313 -231 -481 -231q-162 0 -273 166q-150 -164 -333 -164q-53 0 -92 20q-66 33 -114 118t-48 187zM233 297q0 -102 78 -102q41 0 93.5 35.5t87.5 97.5q51 86 51 198q0 100 -66 101q-86 0 -168 -125q-76 -115 -76 -205zM834 580 q150 29 260 108q-37 -4 -142 -37q-49 -20 -88 -47q-14 -12 -30 -24z" />
<glyph unicode="&#x178;" horiz-adv-x="1204" d="M41 629q0 313 213 522q193 190 440 190q199 0 322 -135q139 -154 139 -434q-2 -291 -166 -477q-156 -180 -424 -232q-41 -6 -76 -6q-137 0 -137 107q0 51 36 94t85 43q25 0 47 -12h8q178 0 297 170q106 152 107 336q0 168 -76 256q-68 78 -178 77q-174 0 -296 -146 t-122 -323q0 -154 78 -153q61 0 129 80t68 147v2q0 27 -12.5 27t-56.5 -57.5t-60.5 -63.5t-32.5 -6q-70 0 -70 96q0 88 62 160q74 84 194 84q92 0 141 -66q41 -55 41 -145q0 -205 -139 -340q-125 -123 -285 -123q-137 0 -211 98q-63 87 -65 230z" />
<glyph unicode="&#x2c6;" horiz-adv-x="737" d="M100 1133q0 49 43 81l152 132q111 90 170 90q39 0 67.5 -31t30.5 -72q8 -80 45 -108q29 -23 29 -86q0 -92 -78 -92q-14 0 -31 4q-51 12 -88 68.5t-41 56.5q-20 -4 -60 -38t-44 -44q-8 -27 -35 -52q-33 -29 -65 -28q-43 0 -76 53q-19 33 -19 66z" />
<glyph unicode="&#x2dc;" horiz-adv-x="989" d="M49 1116q0 39 31 76q45 61 127 121q119 82 223 82q119 0 178 -178l107 86q76 57 116 57q45 -2 76 -29.5t31 -73.5q0 -66 -57 -75q-37 -6 -64 -27l-53 -43q-111 -92 -213 -92q-74 0 -105 55q-2 6 -16 74q-10 55 -27 55q-25 0 -80 -31.5t-79 -66.5q-51 -70 -113 -70 q-82 0 -82 80z" />
<glyph unicode="&#x2013;" horiz-adv-x="1437" d="M49 575q0 61 76 80q150 39 483 39h43q100 0 287 -6q180 -4 252 -4q100 0 156 -41q49 -35 49 -84q0 -39 -31 -67.5t-84 -28.5q-29 0 -98 14q-80 16 -238 17q-223 0 -586 -33q-115 -10 -163 -10q-33 0 -48 4q-41 12 -69.5 47.5t-28.5 72.5z" />
<glyph unicode="&#x2014;" horiz-adv-x="1855" d="M68 594q0 84 79 98q205 33 562 33q195 0 884 -29q227 -10 232 -121q0 -39 -38 -64.5t-89 -25.5q-39 0 -72 15q-20 8 -876 14h-25q-184 0 -372 -18q-171 -17 -170 -19h1q-55 0 -85.5 36t-30.5 81z" />
<glyph unicode="&#x2018;" horiz-adv-x="497" d="M96 1229q0 68 51 170q45 92 73 109.5t63 17.5q47 0 83.5 -29t36.5 -67q0 -25 -16 -48q-78 -100 -78 -186q0 -72 56 -129q31 -29 30 -53q0 -49 -76 -49q-96 0 -161 86q-62 78 -62 178z" />
<glyph unicode="&#x2019;" horiz-adv-x="534" d="M98 1022q0 31 87 87t87 79q-4 37 -80.5 110.5t-76.5 112.5q0 33 41 63.5t88 30.5q53 0 92 -41q137 -145 137 -254q0 -84 -86 -157q-35 -31 -99.5 -57.5t-111.5 -26.5q-25 0 -51.5 15t-26.5 38z" />
<glyph unicode="&#x201a;" horiz-adv-x="479" d="M14 -211q0 45 92 45h37q25 -2 37 -2q55 0 56 49q0 25 -23 49q-33 29 -68 56q-49 43 -49 77q0 31 41 61t86 30q57 0 94 -41q129 -137 129 -248q0 -78 -59 -131q-49 -43 -113 -49q-12 -2 -26 -2q-66 0 -131 18q-76 20 -92 51q-11 21 -11 37z" />
<glyph unicode="&#x201c;" horiz-adv-x="737" d="M53 1042q0 68 56.5 252.5t95.5 231.5q31 39 71 39q43 0 76 -38t33 -83q0 -18 -6 -33q-111 -283 -111 -373q0 -57 30 -84.5t69 -85.5q2 -10 2 -18q0 -37 -32 -59.5t-69 -22.5q-63 0 -135 80q-80 88 -80 194zM383 1182q0 119 51 231.5t129 155.5q20 12 41 12q39 0 62.5 -38 t23.5 -83q0 -35 -14 -53q-84 -102 -84 -242v-17v-15q0 -47 8 -48q4 2 10 2q37 0 73 -22.5t36 -63.5q0 -96 -115 -96q-27 0 -55 8q-166 46 -166 269z" />
<glyph unicode="&#x201d;" horiz-adv-x="700" d="M74 1399q0 49 32.5 84t77.5 35q37 0 68 -25t76 -143q47 -129 47 -213q0 -186 -105 -283q-57 -51 -116 -51q-70 0 -70 51q0 12 45 98q33 59 33 138q0 125 -72 247q-16 29 -16 62zM317 1448q0 31 44.5 77t87.5 46q31 0 51 -25q68 -80 108 -205q37 -115 37 -223 q0 -182 -90 -182q-20 0 -46 14.5t-38 108.5q-23 174 -111 315q-20 21 -43 74z" />
<glyph unicode="&#x201e;" horiz-adv-x="823" d="M25 -223q0 43 97 44t97 44q0 23 -18 59q-4 8 -64 62q-49 47 -49 82q0 31 40 60.5t87 29.5q57 0 94 -41q121 -135 121 -246q0 -82 -65 -139q-55 -47 -121 -54q-18 -2 -37 -2q-152 0 -176 64q-6 21 -6 37zM412 -289q0 37 69 62q102 33 103 82q0 33 -72 107.5t-72 115.5 q0 35 42 65.5t89 30.5q55 0 93 -41q133 -137 133 -268q0 -109 -84 -166t-191 -57q-57 0 -83.5 22t-26.5 47z" />
<glyph unicode="&#x2022;" horiz-adv-x="792" d="M74 524v2q2 96 77.5 167t194.5 71q373 0 373 -252q0 -104 -96 -174q-86 -63 -189 -64q-172 0 -270 74q-90 70 -90 176z" />
<glyph unicode="&#x2026;" horiz-adv-x="1622" d="M209 53q0 55 36 91t91 36q61 0 106 -47q39 -43 39 -98q0 -104 -133 -105q-68 0 -103.5 36t-35.5 87zM705 45q0 43 43 80t86 37t78.5 -33t35.5 -76t-30 -84q-37 -49 -95 -49q-47 0 -82.5 42t-35.5 83zM1176 27q0 51 40.5 96t98.5 45q33 0 65 -18q55 -33 56 -87 q0 -49 -45 -91t-105 -42q-39 0 -72 23q-38 25 -38 74z" />
<glyph unicode="&#x2039;" horiz-adv-x="657" d="M25 643q0 20 14 43q29 49 418 180q27 8 47 8q90 0 90 -92q0 -72 -64 -86q-35 -6 -92 -32q-70 -31 -80 -35l121 -47q72 -29 113 -60q35 -25 35 -69q0 -37 -23.5 -67t-58.5 -30t-86 29l-74 43q-45 23 -133 53q-94 31 -133 51q-94 45 -94 111z" />
<glyph unicode="&#x203a;" horiz-adv-x="657" d="M33 453q0 45 35.5 71.5t232.5 104.5q-55 29 -172 69q-63 12 -63 84q0 92 90 92q20 0 47 -8q387 -131 418 -180q12 -20 12 -43q0 -66 -92 -111q-90 -31 -267 -104l-73 -43q-53 -27 -86 -27q-35 0 -58.5 29t-23.5 66z" />
<glyph unicode="&#x20ac;" horiz-adv-x="1464" d="M16 340q0 55 58 94q27 18 106 53l4 11q-51 -23 -73 -23q-39 0 -62.5 32t-23.5 71q0 27 14 53q31 53 283 127q127 184 303 336q256 219 411 219q55 0 113 -37q63 -43 63 -94.5t-44 -87t-97 -35.5q-14 0 -40.5 8t-39.5 8q-47 0 -172 -100q-98 -78 -160 -144q125 20 218 21 q43 0 74.5 -30.5t31.5 -73.5q0 -47 -31.5 -81t-79.5 -34q-8 0 -23 3t-24 3q-131 0 -356 -57l-16 -27q174 35 217 35q51 0 88 -29t37 -78q0 -51 -35 -82.5t-84 -31.5q-8 0 -24.5 3t-24.5 3q-90 0 -240 -41q4 -94 82 -146q68 -43 168 -43q109 0 256 59.5t233 135.5l55 66 q28 33 70 32q47 0 77 -35.5t30 -83.5q0 -68 -74 -126q-23 -18 -133 -82q-289 -168 -541 -168q-152 0 -264 75q-119 80 -158 222q-33 -18 -55 -19q-47 0 -82 36t-35 83z" />
<glyph unicode="&#x2122;" horiz-adv-x="1394" d="M41 1227q0 80 117 88q66 4 198 16q29 131 117 131q82 0 98 -94q209 33 303 35q25 0 68 19.5t66 19.5q45 0 78.5 -34t33.5 -69q0 -14 -2 -24q10 2 21 2q98 0 114 -98q41 -236 66 -310q10 -29 10 -53q0 -92 -104 -92q-47 0 -83 25.5t-36 70.5q0 12 -31 137 q-66 -100 -69 -102q-45 -57 -91 -57q-41 0 -88 45v-17q0 -86 -73 -100q-20 -4 -37 -4q-94 0 -109 102q-4 18 -4 62q0 178 31 284q-41 -6 -86 -16q-20 -139 -21 -258q0 -14 3.5 -41t3.5 -41q0 -106 -101 -106q-45 0 -78.5 30.5t-33.5 83.5q0 23 6 68t6 67q0 16 -2 52v51 q0 31 2 51q-106 -18 -174 -18q-53 0 -86 28.5t-33 65.5zM897 1243l43 -98q25 33 78 96h-34h-44q-29 2 -39 2h-4z" />
<glyph unicode="&#xe000;" horiz-adv-x="905" d="M0 905h905v-905h-905v905z" />
<glyph unicode="&#xfb01;" horiz-adv-x="1118" d="M53 410q0 45 35 82q51 53 182 100q0 362 47 543q86 328 336 327q31 0 66 -5t72 -21q33 72 90 71q41 0 73.5 -32.5t32.5 -75.5q0 -29 -25.5 -81t-29.5 -65q-6 -20 -17 -65q-20 -115 -108 -115q-90 0 -90 125q0 25 4 51q-39 23 -74 23q-164 0 -164 -494q0 -47 2 -127 l127 35q55 14 95 14q6 0 14 -2h8q10 0 12 13l13 63q23 98 106 98q45 0 81 -35.5t36 -95.5q0 -10 -2 -20q-37 -326 -45 -465v-35q0 -33 16 -84q6 -20 6 -43q0 -49 -30.5 -87t-77.5 -38q-84 0 -109 86q-16 63 -16 191q0 78 12 260q-41 -8 -242 -68l5 -270q0 -344 -43 -574 l-25 -131q4 -14 4 -28q0 -49 -34 -88t-89 -39q-27 0 -59 12q-70 27 -70 111q0 53 29 90q6 10 33 157q27 166 34 289q6 102 7 226q0 68 -2 155q-43 -66 -103 -65q-49 0 -86 39t-37 88z" />
<glyph unicode="&#xfb02;" horiz-adv-x="1069" d="M49 410q0 45 35 82q51 53 182 100v41v61q0 391 183 611q152 184 356 184q41 0 76 -8q29 16 57 16q55 0 96 -53q23 -31 23 -78q0 -39 -15 -117q-82 -422 -102 -557q-49 -317 -49 -565l2 -100q0 -63 -21 -115q-27 -70 -79 -70q-39 0 -88 37q-25 16 -25 205q0 186 25 416 q-57 -12 -220 -62l4 -272q0 -342 -40 -572q-4 -18 -27 -131q6 -16 6 -34q0 -47 -35 -84t-90 -37q-29 0 -59 12q-70 27 -70 111q0 53 29 90q8 10 33 157q27 166 34 289q6 98 6 221q0 66 -2 160q-43 -66 -102 -65q-49 0 -86 39t-37 88zM483 651l250 74q43 344 72 541 q-322 -47 -322 -590v-25z" />
<glyph unicode="&#xfb03;" horiz-adv-x="2162" d="M55 416q0 45 33 82q72 80 176 110q2 43 2 64q0 426 121 626q100 162 268 162q29 0 60 -4q160 -27 159 -147q0 -10 -2 -21q-20 -82 -88 -82q-29 0 -73.5 23.5t-71.5 23.5q-80 0 -123 -147q-47 -156 -47 -406v-53l166 6q20 0 55 7.5t51 7.5q55 0 82 -78q6 -20 6 -41 q0 -109 -135 -115q-82 0 -221 -6q-2 -285 -24 -467l-82 -471q-4 -45 -27 -133q-27 -55 -84 -55q-47 0 -88 38.5t-41 94.5q0 45 35 88q25 88 80 446q23 207 22 383q-37 -61 -92 -61q-47 0 -82 38t-35 87zM872 416q0 45 33 82q72 80 176 110q2 43 2 64q0 426 121 626 q100 162 269 162q29 0 59 -4q160 -27 160 -147q0 -10 -2 -21q-20 -82 -88 -82q-29 0 -74 23.5t-72 23.5q-80 0 -123 -147q-47 -156 -47 -406v-53l166 6q20 0 55 7.5t52 7.5q55 0 81 -78q6 -20 7 -41q0 -109 -136 -115q-82 0 -221 -6q-2 -285 -24 -467l-82 -471 q-4 -45 -27 -133q-27 -55 -84 -55q-47 0 -88 38.5t-41 94.5q0 45 35 88q25 88 80 446q23 207 22 383q-37 -61 -92 -61q-47 0 -82 38t-35 87zM1763 1180q0 45 21 104l37 102q37 113 110 113q41 0 72 -34.5t31 -80.5q0 -31 -25 -77q-39 -76 -49 -146q-16 -92 -105 -92 q-92 0 -92 111zM1772 219l20 399q6 143 12 168q23 100 109 103q51 0 84 -39t33 -92v-17q-41 -362 -48 -456v-37q0 -29 17 -76q8 -20 8 -43q0 -49 -31.5 -85t-79.5 -36q-39 0 -81.5 34t-42.5 177z" />
<glyph unicode="&#xfb04;" horiz-adv-x="2125" d="M55 416q0 45 33 82q72 80 176 110q2 43 2 64q0 426 121 626q100 162 268 162q29 0 60 -4q160 -27 159 -147q0 -10 -2 -21q-20 -82 -88 -82q-29 0 -73.5 23.5t-71.5 23.5q-80 0 -123 -147q-47 -156 -47 -406v-53l166 6q20 0 55 7.5t51 7.5q55 0 82 -78q6 -20 6 -41 q0 -109 -135 -115q-82 0 -221 -6q-2 -285 -24 -467l-82 -471q-4 -45 -27 -133q-27 -55 -84 -55q-47 0 -88 38.5t-41 94.5q0 45 35 88q25 88 80 446q23 207 22 383q-37 -61 -92 -61q-47 0 -82 38t-35 87zM872 416q0 45 33 82q72 80 176 110q2 43 2 64q0 426 121 626 q100 162 269 162q29 0 59 -4q160 -27 160 -147q0 -10 -2 -21q-20 -82 -88 -82q-29 0 -74 23.5t-72 23.5q-80 0 -123 -147q-47 -156 -47 -406v-53l166 6q20 0 55 7.5t52 7.5q55 0 81 -78q6 -20 7 -41q0 -109 -136 -115q-82 0 -221 -6q-2 -285 -24 -467l-82 -471 q-4 -45 -27 -133q-27 -55 -84 -55q-47 0 -88 38.5t-41 94.5q0 45 35 88q25 88 80 446q23 207 22 383q-37 -61 -92 -61q-47 0 -82 38t-35 87zM1769 152q0 426 72 1134q14 139 47 168q41 37 80 37q45 0 88 -47q31 -33 31 -94q0 -33 -8 -93q-68 -481 -70 -501 q-35 -289 -35 -506q0 -35 3 -103.5t3 -103.5q0 -166 -94 -166q-92 0 -112 100q-5 23 -5 175z" />
</font>
</defs>
</svg>
