<?xml version="1.0" standalone="no"?>
<!DOCTYPE svg PUBLIC "-//W3C//DTD SVG 1.1//EN" "http://www.w3.org/Graphics/SVG/1.1/DTD/svg11.dtd" >
<svg xmlns="http://www.w3.org/2000/svg">
<metadata>
This is a custom SVG webfont generated by Font Squirrel.
Copyright   : 1993 2002 2006 by Brian Willson dba Three Islands Press 3IP Rockland ME USA www3ipcom All rights reserved worldwide Marydale is a trademark of Brian Willson3IP
</metadata>
<defs>
<font id="MarydaleRegular" horiz-adv-x="479" >
<font-face units-per-em="2048" ascent="1638" descent="-410" />
<missing-glyph horiz-adv-x="798" />
<glyph unicode=" "  horiz-adv-x="798" />
<glyph unicode="&#x09;" horiz-adv-x="798" />
<glyph unicode="&#xa0;" horiz-adv-x="798" />
<glyph unicode="!" horiz-adv-x="509" d="M160 -174q0 63 26 72h7q76 0 75 -66v-12q0 -78 -51 -84h-2q-25 0 -41 35q-14 28 -14 55zM178 336v22q0 6 2 27l21 223l51 598q2 80 10 238q2 31 6 35q18 25 58 24q57 0 57 -133q0 -156 -35 -448q-12 -106 -45 -297q-29 -170 -29 -215q0 -23 13 -66q8 -35 8 -57v-4 q-6 -61 -43 -62q-8 0 -12 2q-62 13 -62 113z" />
<glyph unicode="&#x22;" horiz-adv-x="485" d="M98 1073q0 49 14.5 122t49.5 181l26 86q12 37 13 51q4 92 59 93q8 0 12 -2q29 -8 29 -70q0 -31 -37 -137q-31 -88 -51 -183q-10 -45 -16 -75q-2 -4 -2 -9q0 -10 3 -29.5t3 -29.5v-12q-2 -10 -2 -15q-12 -66 -52 -65q-8 0 -12 2q-37 10 -37 92zM262 1040q0 68 37 179 q31 98 76 163q20 31 41 41q8 6 20 7q51 0 51 -52v-8q-2 -6 -45 -83t-84 -195q-4 -35 -14 -109q-6 -47 -33 -47q-49 0 -49 104z" />
<glyph unicode="#" horiz-adv-x="1302" d="M25 592v2q0 49 73 49h21q6 0 20.5 -2t22.5 -2h22q78 0 224 39l8 252q-125 -49 -201 -70q-45 -12 -70 -12q-31 0 -61.5 20.5t-30.5 51.5q0 16 58 36l315 95q4 84 10 194l10 137q4 61 9.5 72.5t38.5 11.5q39 0 46 -23.5t7 -74.5t-4 -125l-8 -151l176 49q4 143 16 256 q6 72 49 71q63 0 64 -73v-27q0 -68 -13 -186q162 35 277 55q59 10 86 10q10 0 12 -2q45 -27 45 -39q0 -14 -76 -30q-221 -51 -360 -111v3q-1 0 -10 -153l-2 -49l-6 -90l176 39q45 10 135 33l24 4q74 23 228 55q27 4 43 4q20 0 20 -6q0 -4 -2 -6q-18 -25 -119 -61 q-63 -23 -211 -70l-94 -31l-129 -41q-33 -10 -80 -22q-4 -29 -4 -68v-37q0 -82 35 -129q18 -27 19 -53q0 -23 -19.5 -44t-42.5 -21q-43 0 -72 124q-18 74 -18 166v33l-176 -57q0 -12 -4 -66l-4 -69q-2 -41 -6 -82v-6q0 -12 4 -39t4 -39q0 -61 -67.5 -61.5t-67.5 53.5 q0 12 10 40.5t12 42.5q4 33 6 68v70q-2 33 2 61q-172 -41 -235 -41h-10q-39 0 -76 17q-49 20 -49 55zM512 709l178 41l10 270l-174 -49z" />
<glyph unicode="$" horiz-adv-x="1204" d="M20 915v5q0 141 472 329q4 2 12 4v80q0 25 -7.5 75t-7.5 75q0 45 58 45q45 0 59 -66q4 -29 4 -73v-11v-41q-2 -27 -2 -41q29 8 54 17q-2 20 -3 39v41q0 16 -4 52t-4 54q0 33 35 33h4q45 0 60 -43q4 -16 8 -84q2 -41 2 -66q57 12 104 13q133 0 133 -84v-8q-6 -49 -51 -50 q-23 0 -28 31q-4 18 -60 19q-37 0 -98 -13q0 -66 -2 -114l-15 -230q-4 -70 -8 -168q209 -57 312 -121q131 -84 131 -198v-2q0 -152 -138 -277q-143 -133 -311 -188q4 -51 21 -144q10 -20 10 -51q0 -51 -41 -69q-12 -4 -17 -4q-29 0 -51 25.5t-22 55.5q0 14 6 27q2 6 2 29 q0 35 -4 96q-74 -20 -113 -27q8 -293 19 -303q14 -23 14 -53q0 -72 -68 -72q-37 0 -47 54q-2 8 -6 65q-6 82 -8 146l-4 155h-23q-162 0 -204 90q-14 29 -15 56q0 41 30 69.5t71 28.5q16 0 37.5 -10.5t21.5 -26.5t-37 -36.5t-37 -37.5q0 -20 39 -39q31 -12 76 -12h20 q8 0 19 2q0 279 35 727q-111 18 -154 27q-87 18 -149 45q-130 53 -130 153zM137 909q8 -43 103 -69q23 -6 221 -45q4 29 14 151l10 103q4 53 11 106q-88 -41 -260 -133q-98 -63 -99 -107v-6zM518 -16q70 14 109 32q-4 43 -4 97v188q0 203 8 358q-27 4 -82 15 q-25 -330 -31 -690zM557 776q27 -4 78 -14q10 152 22 457q-27 -6 -53 -19q-6 -70 -22 -209zM721 106q0 -25 2 -49q6 2 18 9q205 111 285 237q35 55 35 113q-2 131 -330 219q-10 -164 -10 -477v-52z" />
<glyph unicode="%" horiz-adv-x="1081" d="M53 807q0 63 44 139t75 88q2 0 33 43q43 59 137 94q39 14 82 15q74 0 124 -42t50 -114q0 -92 -90 -182q-61 -61 -143 -105q-94 -51 -170 -51q-72 0 -119 49q-23 23 -23 66zM100 -436q0 29 21 57l155 395q203 506 502 1151q74 158 133 228q43 53 109 78q16 6 29 6 q31 0 50 -24.5t19 -57.5q0 -25 -16 -37l-39 -14q-49 -20 -102 -86q-27 -35 -58 -99l-416 -903q-72 -160 -198 -483q-25 -70 -51 -195q-2 -98 -80 -98q-27 0 -35 12q-23 56 -23 70zM158 829q0 -39 51 -38q78 0 199 100q86 72 86 125q0 72 -72 71q-39 0 -82 -24.5t-61 -56.5 q-16 -41 -46 -95h-6q-6 0 -14 4.5t-12 4.5h-2q-41 -54 -41 -91zM559 -53q0 84 56.5 185t97.5 149q14 16 24 16q29 0 41 -49q92 -12 127 -113q8 -25 8 -59q0 -70 -50 -144.5t-113 -103.5q-35 -14 -64 -14q-84 0 -115 65q-12 27 -12 68zM653 -59q0 -37 27 -37q4 0 18 4 q39 14 78 55q45 49 45 98q0 27 -13 59t-36 32q-35 0 -94 -125q-25 -51 -25 -86z" />
<glyph unicode="&#x26;" horiz-adv-x="995" d="M74 324q0 131 139 272q68 72 221 170q-51 0 -117 25q-78 29 -77 88q0 106 254 247q92 51 157 52q90 0 90 -70q0 -10 -2 -14q-14 -23 -28 -23q-8 0 -24.5 8l-22.5 11h-2q-33 0 -154 -72t-121 -115q0 -6 2 -8q16 -31 86 -31q14 0 41 2h41q78 0 88 -47v-2q0 -14 -115 -96 q-225 -162 -299 -285q-33 -55 -32 -110q0 -154 182 -154q195 0 397 164l74 59q76 61 92 62q12 0 21 -15v-4q0 -31 -84 -119q-164 -172 -353 -235q-74 -25 -149 -25q-207 0 -275 140q-30 59 -30 125zM406 -41q0 49 10 59q27 27 45 27q35 0 51 -94q6 -41 12 -96l13 -111 q25 -203 24 -209q0 -43 -35 -43q-10 0 -18 2q-31 4 -42 32t-35.5 194.5t-24.5 238.5zM487 1577q0 47 54 47h18q37 -4 49 -102l4 -127q0 -18 6 -68q4 -41 5 -65q0 -31 -50 -45h-4q-41 0 -63 223q-2 16 -10 69q-9 41 -9 68z" />
<glyph unicode="'" horiz-adv-x="346" d="M176 1159q0 55 17 131l32 129l15 70q4 27 28 70q12 12 33 12q33 0 41 -31q0 -4 2 -10v-10q0 -31 -45 -211l-25 -109q-14 -63 -34 -102q-14 -25 -33 -25q-31 4 -31 86z" />
<glyph unicode="(" horiz-adv-x="688" d="M51 276q0 440 264 895q131 225 242 340q45 47 57 48h2q61 -10 62 -62q0 -33 -33 -74q-172 -213 -270 -379q-129 -221 -189 -487q-33 -139 -32 -293v-49q0 -8 4 -53q25 -272 100 -379q55 -78 123 -78q139 0 139 -82v-10q-2 -8 -2 -12q-10 -55 -88 -56q-12 0 -16 2 q-59 10 -140 91l-59 59q-74 74 -117 223q-47 163 -47 356z" />
<glyph unicode=")" horiz-adv-x="786" d="M-164 -633q0 25 11.5 41.5t70.5 28.5q29 6 68 18q156 78 309 226q172 170 252 409q43 129 43 289q0 37 -6 102q-45 475 -207 756q-117 201 -232 231q-98 27 -98 64q0 4 2 10v12q6 39 53 39q31 0 86 -20q106 -39 250 -252q213 -315 262 -815q6 -61 7 -115 q0 -311 -172 -571q-125 -188 -332 -338q-68 -37 -197 -121q-14 -18 -63 -51q-14 -4 -45 -4q-62 0 -62 61z" />
<glyph unicode="*" horiz-adv-x="1007" d="M92 979q0 55 103 90l61 21l43 16q33 8 96 29l-47 122l-41 93q-12 25 -12 41q0 8 24 22q4 2 11 2q23 0 69 -72q8 -16 27 -49l23 -51l34 -82q51 152 86 232q14 33 17 39q10 14 35 20q12 4 26 4q43 0 47 -37v-4q0 -27 -39 -108q-51 -104 -55 -115q174 20 207 20h22 q33 0 107 -8q41 -6 45 -47v-4q0 -45 -45 -45q-25 0 -45 22q-12 12 -53 13q-74 0 -273 -43l-33 -90l56 -129q12 -27 20 -31q51 -33 51 -74q0 -18 -16 -27.5t-25 -9.5q-43 0 -69 54l-55 100q-29 -70 -58 -164q-10 -33 -10 -37v-8q0 -78 -51 -78h-8q-47 6 -47.5 41t20.5 49 q10 10 35 88q14 57 47 174q8 27 16 64l-12 39q-80 -20 -168 -60l-82 -51q-23 -14 -41 -14q-43 0 -43 43z" />
<glyph unicode="+" horiz-adv-x="1185" d="M-14 428q0 16 6 26.5t123 55.5l258 92q-2 51 -2 100l-2 84q-3 93 -4 94v-3v6q0 84 32 96q16 6 29 6q51 0 53 -104v-90q0 -68 2 -154q170 59 287 88q102 25 307 68q45 6 68 6q55 0 55 -47v-13q0 -49 -63 -49q-14 0 -20.5 2t-16.5 2q-66 0 -297 -63q-80 -23 -316 -101 q0 -68 2 -135l5 -258q0 -76 -48 -76q-18 0 -34.5 10.5t-28.5 69.5v62q0 162 -6 291l-223 -80q-96 -35 -107 -45q-2 -2 -8 -2q-18 0 -34.5 20.5t-16.5 40.5z" />
<glyph unicode="," horiz-adv-x="485" d="M-37 -461q0 37 37 125q33 76 80 174l67 150q59 121 89 127q6 2 14 2q45 0 53 -45v-2q0 -20 -53 -125l-49 -92l-90 -162q-23 -39 -23 -53q0 -8 8 -9q6 0 18.5 4.5t20.5 4.5q12 0 19 -11q2 -2 2 -8q0 -33 -43 -70q-53 -41 -117 -41h-12q-21 0 -21 31z" />
<glyph unicode="-" horiz-adv-x="964" d="M51 481q0 59 105 86q57 14 260 31q229 18 372 18q102 0 119 -12q25 -18 25 -41q0 -41 -68 -49q-16 -2 -30 -2q-8 0 -23 2h-23h-49q-213 0 -393 -39t-229 -39q-57 0 -64 33q-2 4 -2 12z" />
<glyph unicode="." horiz-adv-x="411" d="M129 41q0 53 53 80q12 6 21 8h10q70 0 70 -86t-80 -86q-74 0 -74 84z" />
<glyph unicode="/" horiz-adv-x="731" d="M-68 -424q0 -4 22.5 112.5t106.5 366.5q43 129 115 310q180 451 318 737q51 111 81 168l46 82q70 127 114 127q68 0 68 -58v-14q-8 -39 -38 -73l-56 -64l-82 -137q-59 -100 -195 -410q-74 -168 -184 -451l-94 -247q-49 -139 -76 -254l-25 -148q-2 -35 -22 -98 q-8 -10 -25 -10q-10 0 -14 2q-60 14 -60 59z" />
<glyph unicode="0" horiz-adv-x="1290" d="M0 336q0 209 158 502q145 268 266 364q51 41 80 41q12 0 33.5 -8t29.5 -10q143 43 279 43q127 0 208 -45t140 -136q70 -106 70 -231q0 -231 -236 -469q-264 -266 -551 -358q-92 -31 -172 -31q-205 0 -276 182q-29 72 -29 156zM115 334q0 -121 73 -180q53 -43 134 -43 q123 0 297 102q328 188 456 408q72 121 72 239q0 98 -56.5 180t-148.5 109q-55 16 -115 16q-98 0 -215 -39q-125 -43 -190 -106q-98 -96 -98 -160q0 -31 28 -53q2 -2 46 -22.5t44 -22.5q0 -10 -31.5 -21.5t-45.5 -11.5q-2 0 -7 2h-6q-55 12 -92 49q-145 -262 -145 -446z" />
<glyph unicode="1" horiz-adv-x="804" d="M55 772q0 25 11 37q16 27 94 109q74 72 217 225l145 170q27 31 37 30h8q59 0 68 -36v-4q0 -35 -35 -304l-65 -503q-37 -287 -37 -365q0 -14 1 -21.5t11 -35t10 -47.5q-12 -61 -59 -62q-25 0 -56.5 17.5t-31.5 66.5q0 18 6 34.5t6 20.5v7q0 25 21 192q23 201 47 389 l18 131q8 70 18 133l17 113q6 51 10 76l-274 -297l-70 -70q-68 -72 -82 -71h-2q-33 -1 -33 65z" />
<glyph unicode="2" horiz-adv-x="1093" d="M72 1028q0 45 61 113q147 166 395 166q172 0 265 -101q63 -70 63 -159q0 -168 -258 -531l-180 -242l-60 -79q-31 -39 -75 -103l180 60q170 49 295 73l106 21l56 10q33 6 49 6q55 0 71 -37q8 -18 9 -39q0 -59 -56 -69h-6q-6 -2 -8 -2q-20 0 -37 8q-23 12 -31 14h-10 q-47 0 -209 -35q-172 -39 -256 -71q-262 -102 -297 -103q-14 0 -18 4q-35 25 -35 66q0 8 4 22.5t158 210.5l176 224q324 436 324 589q0 100 -123 142q-47 14 -101 14q-96 0 -192 -43q-109 -49 -146 -127q-27 -51 -53 -51q-61 0 -61 49z" />
<glyph unicode="3" horiz-adv-x="1093" d="M41 1157q0 33 43 53h39q14 0 436 31q72 4 129 4q104 0 121 -24q10 -14 10 -35q0 -49 -69.5 -126t-202.5 -192q-152 -133 -207 -188q268 -8 451 -105q205 -107 204 -323q0 -392 -438 -752q-59 -37 -162 -121q-98 -74 -131 -73q-16 0 -24 6q-59 29 -60 80q0 31 31 47 q20 14 51 14q6 0 19 -2h18q18 0 100 62q340 266 447 544q35 91 35 186v11q-2 145 -162 225q-113 57 -303 82q-86 6 -189 23q-70 37 -69 86q0 6 2 12t145 121q178 143 369 334q-115 -10 -346 -33q-68 -8 -168 -14l-49 -3h-2q-25 0 -46.5 22.5t-21.5 47.5z" />
<glyph unicode="4" horiz-adv-x="1148" d="M2 647q0 14 10 29l117 112q78 84 172 216q51 72 105 182l90 188q45 94 75 94q27 0 45.5 -30.5t18.5 -59.5q0 -23 -12 -41q-45 -72 -207 -364q-68 -121 -215 -262q154 29 461 65l22 168l21 137l20 127q6 37 12 54q12 35 33 41q4 0 6 2h4q27 0 49.5 -28t22.5 -54 q0 -6 -2 -11q0 -45 -19 -120q-25 -96 -28 -123l-29 -191q168 -6 258 -26q51 -12 51 -39q0 -33 -36 -33h-5q-70 8 -159 8q-63 0 -121 -4l-25 -190q-14 -98 -24 -185l-17 -149q-8 -63 -8 -88v-9q23 -45 23 -90q0 -63 -54 -63q-14 0 -39 6q-70 25 -69 88q0 23 10 59 q6 27 33 205l57 402q-170 -25 -332 -56q-178 -33 -239 -32q-14 0 -31 4q-45 20 -45 61z" />
<glyph unicode="5" horiz-adv-x="1259" d="M57 877q0 10 2 14q10 33 109 156q104 131 125 131q27 0 49.5 -25t22.5 -51q0 -6 -3 -8q-4 -18 -45 -70l-79 -98h16q8 0 25 2h24q485 0 621 -223q35 -59 34 -144q0 -47 -12 -98q-51 -209 -227 -342q-166 -127 -336 -127q-143 0 -211 96q-31 43 -31 78q0 37 43 49 q14 4 29 4q37 0 51 -43q16 -53 31 -61q49 -23 98 -23q150 0 291 146q139 139 156 307q2 6 2 20q0 137 -172 203q-131 47 -342 47q-102 0 -195 -10h-6q-27 0 -48.5 21.5t-21.5 48.5zM358 1194q0 6 4 18q12 20 109 21h45q70 0 178 10q150 16 180 19q154 10 289 14q20 0 64.5 5 t66.5 5q92 0 99 -63q2 -6 2 -17q0 -41 -62 -41q-18 0 -42.5 8.5t-39.5 8.5q-305 0 -501 -35q-104 -18 -242 -19q-78 0 -102 9q-48 22 -48 57z" />
<glyph unicode="6" horiz-adv-x="1013" d="M86 336q0 279 100 508q86 197 211 381q123 178 176 194q4 2 15 2q29 0 57.5 -23.5t28.5 -51.5q0 -12 -6 -25q-14 -23 -47 -27q-14 -2 -72 -71q-88 -102 -193 -301q-53 -102 -110 -238q-53 -127 -53 -354q0 -102 14 -183v5q0 96 65 223q29 57 82 119q205 238 396 237 q102 0 147 -82q27 -49 27 -117q0 -162 -146 -309q-250 -254 -454 -254q-168 0 -213 166q-25 88 -25 201zM319 150q0 -55 46 -56q49 0 141 58q193 123 262 262q41 82 41 139q0 47 -33 61q-8 4 -28 4q-141 0 -308 -206q-121 -149 -121 -262z" />
<glyph unicode="7" horiz-adv-x="1136" d="M-2 1221q51 29 446 51q254 14 418 14q193 0 211 -22q0 -4 3 -12.5t3 -14.5q0 -37 -35 -66q-8 -8 -36 -14q-35 -8 -43 -12q-76 -41 -174 -195l-35 -55l-37 -61l-33 -66q258 12 242 12q55 0 61 -6q33 -25 33 -53q0 -35 -51 -37h-35q-39 0 -102 -6q-82 -6 -101 -6l-37 -2 q-20 -2 -51 -6q-57 -141 -119 -373q-55 -207 -55 -299q0 -8 2 -26.5t3 -27t1 -22.5q0 -53 -53 -53h-14q-57 8 -58 76v10q4 33 10 90q12 86 56 276q41 180 78 283l22 66q-88 -20 -139 -21q-14 0 -27 4q-35 16 -35 45q0 37 58 51q35 8 188 21q8 23 53 106q66 117 140 226 q25 37 67 84q-137 -4 -413 -23q-31 -2 -179 -22q-109 -16 -176 -17q-43 0 -61 31q-9 17 -9 34q0 27 13 38z" />
<glyph unicode="8" horiz-adv-x="1290" d="M35 893q0 152 117 272q72 76 118 90q35 4 105 15q74 29 188 47q88 12 139 12h19q217 0 309 -125q37 -49 37 -104q0 -84 -88 -174q-27 -29 -80 -62l-84 -53h16q158 0 277 -53q61 -29 99 -93.5t38 -132.5q0 -106 -96 -210q-80 -84 -221 -170q-287 -174 -545 -175 q-166 0 -253 71t-87 214q0 109 48 187.5t95 123.5q35 33 119 91q-102 14 -186 61t-84 168zM141 272q0 -135 103 -170q53 -18 125 -18q223 0 409 102q119 66 176 105q102 70 152 139q31 45 31 94q0 61 -42 106.5t-104 63.5q-78 23 -170 23q-203 0 -360 -80 q-223 -113 -295 -260q-25 -52 -25 -105zM141 893q0 -57 37 -82q86 -55 193 -55q135 0 295 84q94 49 141 80q80 51 125 104q29 35 29 72q0 41 -43 78q-35 29 -80 40q-68 18 -142 19q-141 0 -252 -43q-207 -80 -206 -193q0 -10 2 -18q6 -49 106 -111q-12 -6 -43 -6 q-104 0 -149 103q-6 -12 -7 -21q-6 -20 -6 -51z" />
<glyph unicode="9" horiz-adv-x="1218" d="M45 725q0 186 168 334q213 186 451 186q145 0 258 -71q205 -131 204 -420q0 -211 -108 -478q-88 -215 -268 -430q-129 -154 -287 -278q-127 -100 -162 -107q-20 -4 -33 -4q-51 0 -51 41q0 16 12 27q100 80 301 256q246 248 365 502q82 176 115 452q-18 -53 -134 -122.5 t-331 -135.5q-90 -29 -185 -28q-113 0 -196 53q-119 76 -119 223zM164 733q0 -115 88 -158q41 -20 98 -20q115 0 328 84q145 57 233 137q53 49 84 105v4q0 39 -24 86q-57 102 -211 147q-49 12 -103 12q-150 0 -321.5 -128t-171.5 -269z" />
<glyph unicode=":" horiz-adv-x="473" d="M147 37q0 106 78 106q55 0 56 -86q0 -31 -17 -61q-20 -39 -47 -39h-6q-64 8 -64 80zM164 750q0 111 67 110h5q55 0 55 -80q0 -8 -2 -12q-6 -121 -64 -121q-29 0 -47 39q-14 33 -14 64z" />
<glyph unicode=";" horiz-adv-x="485" d="M-37 -461q0 37 37 125q33 76 80 174l67 150q59 121 89 127q6 2 14 2q45 0 51 -45v-2q0 -20 -53 -125l-49 -92l-90 -164q-20 -37 -21 -51q0 -8 8 -9q6 0 18.5 4.5t20.5 4.5q12 0 19 -11q2 -2 2 -8q0 -33 -43 -70q-53 -41 -117 -41h-12q-21 0 -21 31zM197 750q0 111 67 110 h4q55 0 56 -80q0 -8 -2 -12q-6 -121 -64 -121q-29 0 -47 39q-14 33 -14 64z" />
<glyph unicode="&#x3c;" horiz-adv-x="1056" d="M90 434q0 16 21 47q10 16 39 49l77 93l99 112l98 111q39 47 125 135q23 20 57 20q41 0 41 -32v-13q-8 -23 -106 -141l-185 -223q-96 -119 -96 -139q0 -27 123 -66l356 -94q94 -29 187 -92q45 -31 45 -49q0 -6 -6.5 -10.5t-16.5 -4.5q-33 0 -170 41q-123 37 -172 49 q-92 25 -176 37q-152 20 -227 53q-47 18 -74 50q-39 47 -39 67z" />
<glyph unicode="=" horiz-adv-x="1173" d="M2 555q0 18 15.5 39.5t88.5 26.5q37 0 111 6q393 74 815 133h12q61 0 62 -51v-2q0 -51 -125 -52q-68 0 -238 -26l-178 -29q-100 -16 -217 -39l-135 -26q-113 -23 -123 -23q-25 0 -67 16q-21 7 -21 27zM49 305q0 41 60 51l161 19q72 10 232 41q100 20 219 41l153 28 q111 18 166 19q33 0 58.5 -14.5t25.5 -49.5q0 -33 -65 -37q-12 -2 -21 -2q-6 0 -16 2h-16q-10 0 -18.5 -1t-74.5 -11q-219 -37 -651 -125q-104 -27 -151 -26q-62 -1 -62 65z" />
<glyph unicode="&#x3e;" horiz-adv-x="1069" d="M76 995q0 55 61 64h2q16 0 33.5 -17.5t20.5 -33.5q0 -23 208 -99q250 -92 383 -153q209 -100 209 -170v-2q0 -43 -110 -119l-158 -100l-238 -150q-88 -53 -243 -166q-14 -12 -32.5 -63.5t-64.5 -51.5q-66 0 -65 46q0 25 39 71q53 63 239 195l310 207q152 104 151 122v3 q0 27 -100 73l-350 158l-97 47q-55 25 -159 84q-29 18 -35 33q-4 6 -4 22z" />
<glyph unicode="?" horiz-adv-x="1161" d="M129 1223q0 47 104 123q84 59 233.5 126.5t330.5 67.5q266 0 303 -160q8 -35 8 -71q0 -176 -197 -373q-131 -131 -366 -274l-123 -46q-74 -29 -74 -73q0 -57 35 -121l68 -109q35 -59 43 -108v-19q0 -90 -66 -90q-10 0 -14 2q-57 8 -58 64q0 10 3 25.5t3 21.5v4 q-14 43 -61 126t-62.5 134t-15.5 129v19q264 109 459 256q309 233 309 407q0 106 -74 133q-51 18 -122 19q-147 0 -323.5 -64.5t-211.5 -136.5q-29 -57 -82 -57q-37 0 -47 34q-2 5 -2 11zM369 -233.5q0 77.5 61 86.5h10q76 0 76 -68q0 -33 -20.5 -64.5t-53.5 -31.5 q-73 0 -73 77.5z" />
<glyph unicode="@" horiz-adv-x="1185" d="M123 422q0 256 168 535.5t426 390.5q80 33 151 32q117 0 189.5 -88t72.5 -223q0 -209 -129 -369q-104 -129 -245 -204q-61 -33 -133 -45q-31 -39 -79 -87.5t-132 -78.5q-20 -8 -39 -9q-68 0 -68 109q0 147 84 244q94 111 189 110q23 0 32 -8q59 -39 60 -106 q0 -27 -19 -82q195 96 305 280q55 94 56 224v18q0 8 -2 18q-14 178 -142 179q-104 0 -241.5 -105.5t-216.5 -224.5q-176 -262 -177 -533q0 -203 117 -274q33 -20 88 -21q121 0 310 107q86 49 167 108q0 27 20.5 48.5t47.5 21.5q29 0 49 -33q10 -12 10 -30q0 -31 -51 -64 q-66 -49 -207 -141q-217 -125 -360 -125q-223 0 -287 285q-14 63 -14 141zM399 399q0 -10 11 -10q23 0 69.5 35t69.5 74q-10 0 -21 18q-4 8 -4 25v2q0 16 8.5 41.5t8.5 40.5q-74 -20 -117 -103q-23 -45 -25 -123z" />
<glyph unicode="A" horiz-adv-x="1247" d="M49 63q0 33 27 115q16 51 53 144q-18 2 -31 10q-31 14 -30 57v14q0 6 4 17q8 27 57 45q10 2 64 16l419 918q31 66 78 65q39 0 53 -78q2 -35 25 -155l47 -187l96 -391l287 86q10 4 16 6q27 6 37 7q43 0 49 -47v-7q0 -66 -73 -65q-18 0 -31 6l-264 -78l137 -584 q14 -12 23 -22q25 -25 24 -51q0 -33 -41 -56q-8 -4 -20 -4q-27 0 -55.5 21.5t-28.5 48.5q0 4 2 6l-146 606l-118 -34l-111 -35q-133 -41 -340 -119q-25 -49 -68 -150q-18 -51 -26 -129q-6 -43 -60 -43q-39 0 -53 35q-2 4 -2 12zM319 502q154 29 293 63l101 27q45 10 92 26 l-76 293q-25 90 -82 269l-63 -119l-58 -111l-53 -106l-49 -105q-27 -53 -51 -112z" />
<glyph unicode="B" horiz-adv-x="1296" d="M74 1161v8q0 53 69 105q0 23 9 39q8 41 43 49q8 4 16 4h12q35 0 49 -45q219 66 439 106q111 20 202 21q131 0 160 -45q10 -16 10 -39q0 -47 -34 -109q-47 -80 -197 -202q-23 -18 -281 -203h23q199 0 391 -45q295 -72 295 -275q0 -119 -129 -282q-104 -133 -223 -205 q-45 -29 -168 -80q-115 -49 -148 -72q-14 -10 -43 -10q-49 0 -67 37q-10 20 -10 37q0 31 24.5 56.5t56.5 29.5q45 4 134 16q20 4 34 9q135 47 267 178q156 156 155 297q0 82 -147 139q-166 61 -408 61q-115 0 -266 -43q-47 -14 -80 -28v-224q0 -104 17 -147q33 -94 32 -152 q0 -12 -10 -57q-6 -18 -47 -18q-84 0 -92 39q-18 88 -19 116v31q0 14 4 33q3 6 3 22v37q0 49 -3.5 147.5t-3.5 147.5q0 74 2 211l2 82l3 131v35q-35 0 -64 24q-12 10 -12 33zM250 889q0 -47 4 -84q121 61 352 199q358 240 359 319q0 8 -7 14q-12 10 -57 11q-82 0 -223 -31 q-121 -27 -254 -72q-125 -45 -145 -76q-29 -47 -29 -227v-53z" />
<glyph unicode="C" horiz-adv-x="1492" d="M25 385q0 180 143 403q117 180 309 351q205 182 395 258q68 27 109 26q45 0 59 -30q8 -16 9 -37q0 -43 -72 -62q-113 -31 -186 -73q-289 -168 -502 -469q-150 -213 -150 -373q0 -133 113 -209q61 -41 168 -41q150 0 399 90q170 59 383 168q68 31 197 100q82 35 104 35 q29 0 49.5 -19.5t20.5 -47.5q0 -39 -60 -60q-23 -8 -59 -14q-23 -4 -82 -31l-147 -67q-406 -184 -623 -234q-111 -27 -205 -26q-143 0 -223 63q-149 119 -149 299z" />
<glyph unicode="D" horiz-adv-x="1357" d="M-12 1296q0 43 104 76q193 63 391 64h31q342 0 609.5 -143.5t267.5 -340.5q0 -166 -187 -360q-207 -213 -645 -479l-203 -121q-2 0 -2 -6v-15q0 -61 -90 -67q-2 0 -26 16h-2q-2 2 -4.5 2t-6.5 -2h-6q-29 0 -29 70q0 16 5 33q4 10 6 18l8 33l-12 176q-12 201 -13 338v47 q0 -10 13 213q6 131 10 199l16 233l-153 -53h-9q-27 0 -50 21t-23 48zM295 500q0 -195 37 -387q299 164 555 354q158 119 272 250q109 129 109 227q0 164 -248 283q-221 106 -465 106h-8q-88 0 -148 -10q-25 -4 -39 -10q-65 -534 -65 -813z" />
<glyph unicode="E" horiz-adv-x="1327" d="M90 92q0 78 10 144q4 25 13 184q2 66 6 143l6 152q4 123 4 252q0 63 -2 72.5t-21 52.5q-12 33 -12 55t17 33q37 25 69 24q29 0 51 -14l402 149l98 37l76 29q31 10 39 14q59 20 188 56q39 8 72 8q74 0 74 -45q0 -43 -54 -68q-25 -10 -49 -10q-29 0 -49 14 q-168 -47 -317 -100q-76 -29 -129 -57q-6 -4 -150 -68q-74 -33 -180 -74v-20q2 -16 2 -23q2 -43 2 -86q0 -29 -6 -88t-6 -88q0 -43 -8 -100l278 116q125 53 211 82q106 37 133 37h6q49 -10 49 -43q0 -23 -20.5 -43t-42 -19t-43.5 -14l-211 -79q-217 -84 -365 -179 q-6 -63 -14 -188l-6 -66v-30q0 -25 2 -73t2 -73q137 74 385 183l318 127q123 47 370 133q102 29 148 28q20 0 30 -6q55 -14 56 -45q0 -4 -2 -7t-115 -32q-168 -45 -440 -162q-303 -131 -566 -266q-195 -102 -204 -102h-5q-29 10 -63 59q-29 39 -35 62v10q-2 8 -2 12z" />
<glyph unicode="F" horiz-adv-x="1191" d="M-31 1044q0 25 11.5 41.5t121.5 44.5l95 27q49 12 86 29v10q0 90 41 109q8 4 22 4q55 0 68 -74l403 145l195 66q23 8 59 18q80 23 244 60q39 6 63 6q23 0 29 -6q31 -18 31 -47q0 -55 -83 -58.5t-114 -7.5q-55 -6 -106 -22q-94 -29 -279 -91q-199 -72 -438 -178 q-6 -119 -35 -280q-6 -51 -23 -152q197 104 385 158q227 63 324 63q31 0 42 -8t11 -29q0 -49 -55 -69q-14 -6 -78 -12q-166 -23 -360 -105q-152 -63 -285 -156l-12 -124q-10 -115 -10 -228v-37q0 -20 8 -56t8 -54q0 -57 -68 -58q-31 0 -49 19q-6 6 -6 59q0 66 8 207l6 119 q2 59 2 108q-14 6 -22 15q-23 18 -23 47q0 35 58 86l8 84q6 59 12 137l17 211q-127 -47 -199 -70q-41 -12 -55 -12h-4q-54 12 -54 61z" />
<glyph unicode="G" horiz-adv-x="1771" d="M74 416v26q0 12 2 25q16 211 141 407q115 180 299 320q195 147 358 213q66 27 76 27q74 -2 74 -56q0 -16 -2 -24l-188 -97q-365 -199 -533 -466q-72 -115 -102 -256q-10 -47 -11 -103q0 -260 160 -371q59 -41 152 -41q96 0 209 50q289 123 516 379q145 164 145 258 q0 68 -57 67q-59 0 -217 -61q-70 -27 -142 -58l-131 -59q-141 -61 -153 -61q-27 4 -51.5 22t-24.5 43q0 20 123 84q227 117 588 234q195 63 417 110h2q12 0 13 -57q0 -59 -11 -146l-10 -80q-4 -29 -12 -67q-47 -244 -47 -305q0 -63 41 -76q20 -6 20 -27v-6q-4 -25 -45 -96 q-43 -78 -59 -82h-6q-6 -2 -9 -2q-23 0 -45 51q-12 29 -12 119q0 123 21 258q16 94 41 287q2 41 4 94l-129 -49l14 -23q14 -43 14 -69q0 -12 -2 -27q-27 -168 -200 -363q-276 -309 -617 -421q-111 -37 -205 -37q-133 0 -225 69q-184 144 -184 443z" />
<glyph unicode="H" horiz-adv-x="1413" d="M129 43q0 63 27 274q12 76 28 230q2 39 11 119q2 14 4 45q-14 2 -28.5 32.5t-29.5 30.5q-2 0 -2 2q0 43 70 66l4 96q4 92 4 190q0 90 -10 158q-4 18 -4 33q0 23 13 41t62.5 18t57.5 -41q16 -90 16 -166v-16q0 -37 -10 -143q-8 -70 -12 -148q27 4 88 15l96 16 q92 12 279 49q66 16 137 29q0 141 8 264q2 49 10 63q31 49 72 50q25 0 43 -19q8 -10 8 -45q0 -45 -9 -135t-9 -135q0 -14 2 -23q121 20 250 35q57 6 94 6q29 0 35 -4q39 -25 39 -61q0 -29 -20.5 -49.5t-49.5 -20.5q-33 0 -57 12q-12 4 -29 4q-45 0 -131 -16 q-115 -25 -133 -27q-4 -115 -4 -239v-209l2 -68q8 -242 43 -309q27 -51 26 -63q0 -51 -80 -52q-72 0 -71 103q0 -10 -19.5 197.5t-19.5 269.5v348l-266 -53q-166 -31 -351 -72q-18 -166 -47 -397q-12 -96 -12 -234v-10q0 -82 -8 -100q-18 -25 -41 -25q-29 0 -66 27 q-10 8 -10 57z" />
<glyph unicode="I" d="M172 162q0 184 21 565q4 100 10 184l8 144q2 33 6 78q6 63 21 192q14 86 63 86q12 0 39 -8t27 -96q0 -43 -7 -99l-12 -116q-12 -84 -30.5 -254t-22.5 -270.5t-4 -159.5v-123q0 -80 -6 -158q16 -23 30 -61q6 -16 7 -33q0 -31 -26 -47.5t-54 -16.5q-43 0 -62 41 q-8 25 -8 152z" />
<glyph unicode="J" horiz-adv-x="1173" d="M-37 51q0 8 4 25q16 45 60 45q35 0 184 -64q25 -10 100 -10q168 0 303.5 80t210.5 227q137 268 138 787v119q-2 80 -2 118q0 43 2 47q18 45 61 45q35 0 49 -26.5t14 -204.5q0 -399 -79 -707q-55 -211 -150 -327q-113 -141 -264 -211q-115 -51 -252 -51q-82 0 -181.5 22.5 t-90.5 22.5h-11q-96 0 -96 63z" />
<glyph unicode="K" horiz-adv-x="1320" d="M129 76q0 150 45 665h-6q-37 0 -37 52q0 18 7 44.5t52 59.5q6 59 9 107l4 100q0 66 8 196q2 39 43 72q16 12 37 12q57 0 57 -77q0 -55 -8 -142l-14 -141q-2 -31 -7 -72q70 45 277 127q127 51 283 105q193 68 321 98q82 20 115 21q37 0 37 -41q0 -49 -84 -89 q-35 -16 -64 -16h-16q-39 0 -146 -35q-365 -119 -587 -221q-76 -35 -133 -70q33 -70 176 -223q227 -250 426 -364q129 -76 346 -168q53 -25 53 -47q0 -8 -6 -16.5t-35 -8.5q-102 0 -289 86q-233 104 -436 293q-106 100 -199 205q-33 37 -63 78l-23 -306q-4 -47 -8 -143 q-2 -27 -2 -39v-22q0 -16 2 -49t2 -50q0 -61 -39 -98q-14 -14 -32 -14q-20 0 -54 26q-12 15 -12 105z" />
<glyph unicode="L" horiz-adv-x="1167" d="M49 45q0 25 17.5 61.5t19.5 57.5q12 178 41 532q12 147 51 441q8 43 8 110q2 86 4 113q8 100 80 100q63 0 64 -133q0 -102 -31 -225q-53 -209 -72 -430q-6 -72 -6 -119v-23q0 -6 2 -20t2 -21v-26q0 -45 -8 -137.5t-8 -137.5q0 -2 2 -6v-8q504 195 846 275q45 10 82 10 q90 0 90 -31q0 -12 -96 -45l-555 -190q-120 -47 -176 -72q-98 -45 -166 -90l-58 -39q-25 -16 -51 -17q-20 0 -43 15q-39 24 -39 55z" />
<glyph unicode="M" horiz-adv-x="1757" d="M0 10q0 39 41 105q10 18 49 256l35 223l33 225q10 92 43 277q20 63 20 153q0 66 17 80q12 8 26 27l29 35q35 41 55 41h4q0 -2 2 -2q18 -6 92 -207l170 -467q92 -242 156 -459l33 -123l274 520l105 197l94 176l74 135l57 101q23 51 76 51h12q45 0 62 -56q16 -63 24 -225 q4 -117 10 -233q10 -178 56 -449q18 -90 47 -272q6 -53 6 -99q0 -119 -51 -118h-13q-78 0 -77 71q0 20 5 58.5t5 58.5v12q-2 6 -2 11l-56 448l-49 383q-14 106 -14 205l-276 -514l-103 -193l-88 -170l-63 -127q-25 -49 -25 -57q-2 -37 -30.5 -63.5t-65.5 -26.5 q-76 0 -101 113l-20 86l-4 18q-98 377 -211 641l-66 182l-63 168l-88 -528l-31 -201q-18 -111 -47 -327q-8 -59 -8 -78v-4q2 -2 2 -7q0 -41 -23 -75q-27 -41 -65 -41q-74 -1 -74 65z" />
<glyph unicode="N" horiz-adv-x="1253" d="M104 10q0 162 27 461q12 166 27 283q10 74 24 223q2 104 11 315q4 63 16 80q20 37 55 37q31 0 47 -29q43 -74 86 -194l72 -203q45 -119 190 -350q94 -150 164 -223q37 -41 99 -80q16 -10 39 -15l-5 168q-2 80 -2 166v182q0 53 4.5 161t4.5 161v33q0 33 -5.5 95t-5.5 93 q0 70 64 70q39 0 57 -70q14 -57 14 -166q0 -53 -2 -108l-6 -109q-10 -154 -10 -157q0 -45 -6 -136.5t-6 -136.5q0 -133 20 -287q4 -12 10 -22q10 -25 11 -41q0 -47 -17 -68q0 -6 1 -13t3 -17v-19q0 -84 -53 -84h-8q-61 6 -61 92q0 33 6 58q-68 45 -109 69q-57 35 -174 195 q-82 113 -182 272q-86 137 -195 381q-43 -274 -71 -526q-20 -172 -29 -279q-4 -61 -4 -100q0 -49 8 -57q18 -23 18 -101q0 -123 -63 -123q-20 0 -51 19q-13 8 -13 100z" />
<glyph unicode="O" horiz-adv-x="1425" d="M31 375q0 193 110 428q98 211 259 374.5t300 163.5h11q135 0 194 -67q532 -100 533 -453v-24q0 -61 -52 -156q-98 -178 -311 -352q-219 -180 -450 -258q-117 -41 -224 -41q-236 0 -323 176q-47 92 -47 209zM145 383q0 -176 107 -233q76 -41 170 -41q178 0 397 131 q319 188 455 432q43 78 43 129v14q0 147 -117 236q-127 96 -354 110q-53 2 -84 2h-29q-10 -4 -48 -33.5t-67 -29.5h-8q-51 10 -65 41q-4 6 -6 6l-2 -2q-162 -131 -273 -340q-119 -223 -119 -422z" />
<glyph unicode="P" horiz-adv-x="1161" d="M125 59q0 27 4 77t6 73q5 248 15 397q-4 6 -8.5 17.5t-4.5 21.5q0 27 13 41l18 254q14 209 14 283q0 98 -12 133q-4 12 -4 20q0 31 23.5 60.5t54.5 29.5q23 0 67 -28q8 -6 27 -8h6q14 0 256 24q262 25 404 25q238 0 276 -56q23 -31 23 -65q0 -111 -213 -262 q-244 -172 -662 -359l-164 -71q-10 -145 -16 -299q-4 -76 -4 -136q0 -27 6 -77t6 -74q0 -92 -72 -92q-41 0 -53 32q-6 16 -6 39zM279 797q344 135 600 280q166 94 239 178q37 43 37 80q0 43 -172 43q-137 0 -291 -18q-68 -6 -190 -27q-41 -10 -90 -14l-103 -8l-12 -181 q-2 -27 -4 -73z" />
<glyph unicode="Q" horiz-adv-x="1652" d="M12 288.5q0 190.5 107 420.5q100 219 250 364q104 100 301 223q172 106 198 107q20 0 28.5 -10.5t16.5 -12.5q61 37 144 56q51 10 90 10h6q180 0 328 -92q193 -121 192 -338q0 -165 -157 -367q-121 -154 -324 -319q-12 -10 -234 -180q82 -170 158 -170q4 0 66 -11 q0 -2 2 -4v-2q0 -25 -34 -71t-69 -46q-37 0 -110 95q-39 51 -103 151q-147 -92 -338 -147q-92 -27 -184 -27q-143 0 -227 80q-107 100 -107 290.5zM131 258q0 -119 66 -172q57 -49 163 -49q102 0 234 45q125 45 217 108q-61 127 -98 306q-18 88 -19 190v10q0 264 115 547 q-274 -129 -465 -364q-129 -160 -184 -377q-29 -113 -29 -244zM801 715q0 -172 53 -336q25 -74 55 -131q498 319 625 637q29 72 29 143q0 102 -76 180q-66 72 -170 105q-70 20 -137 20q-186 0 -258 -135q-121 -229 -121 -483z" />
<glyph unicode="R" horiz-adv-x="1382" d="M104 27q0 68 21 317l16 205q8 104 13 203l-17 32l19 13l18 241q4 54 4 92v29q-8 37 -8 76q0 78 61 94q8 4 17 4h12q47 0 68 -63q205 88 387 135q100 25 190 25q203 0 217 -156v-10q0 -119 -207 -265q-195 -135 -557 -276q199 -186 516 -354q268 -141 435 -199 q70 -25 96.5 -28t60 -25.5t33.5 -61.5q0 -41 -24 -51q-16 -8 -39 -8q-63 0 -88 33l-236 100q-268 117 -545 295q-139 90 -241 182q-31 27 -70 58q-10 -115 -25 -347q-8 -127 -8 -167v-5q0 -23 13.5 -64.5t13.5 -64.5q0 -18 -8 -34q-27 -41 -72 -41q-37 0 -57 24q-9 9 -9 62z M274 823q72 6 166 47q121 53 355 174q207 123 206 216q0 49 -112 49q-195 0 -426 -90q-59 -23 -80 -41q-12 -8 -21 -9q-25 0 -32 27q-6 -96 -21 -160q-25 -117 -35 -213z" />
<glyph unicode="S" horiz-adv-x="1271" d="M55 932q0 141 158 270q199 164 492 225q76 16 124 17h5q98 0 149 -39q16 -14 64 -86q4 -4 4 -14q0 -45 -68 -45h-2q-20 0 -56 32.5t-63 32.5q-109 0 -260 -51q-176 -61 -280 -135q-133 -92 -134 -174q0 -76 160 -127q49 -18 352 -84q244 -55 357 -113q162 -85 162 -220 q0 -127 -152 -251q-113 -92 -291 -178l-112 -55q-45 -20 -48 -29q-12 -66 -94 -66q-78 0 -90 37q-6 16 -6 33q0 76 92 90q84 12 226.5 83t240.5 153q115 96 115 161q0 113 -164 185q-92 39 -358 94l-181 37q-104 25 -178 53q-164 60 -164 164z" />
<glyph unicode="T" horiz-adv-x="1302" d="M-25 1174q0 63 78 63q207 0 428 63q8 2 24.5 29t47.5 33q2 0 6 2h6q20 0 38 -13.5t24 -13.5q37 14 221 31l180 14l191 15l170 8q76 4 116 4q33 0 37 -2q68 -25 68 -86q0 -14 -54.5 -42t-89.5 -28q-16 0 -19 33t-20 33h-2q-6 0 -41 -2h-71q-420 -6 -686 -105 q-23 -240 -35 -503q-6 -125 -6 -220v-43q2 -20 2 -38v-35v-84q-2 -55 -2 -84q0 -86 18 -121q8 -16 8 -31q0 -35 -23.5 -65.5t-58.5 -30.5q-23 0 -45 14q-8 4 -12 90q-4 76 -4 197q0 86 2 180l8 322q2 63 4 82q10 94 11 186q0 63 -5 154q-113 -25 -335 -68q-74 -12 -107 -12 q-14 0 -18 2q-54 19 -54 72z" />
<glyph unicode="U" horiz-adv-x="1351" d="M100 995q0 117 6 242q4 100 89 100h10q33 -4 42 -18t9 -51q0 -14 -14 -230q-12 -158 -13 -348v-6q0 -193 82 -381q86 -203 195 -203h8q227 23 416 285q145 201 246 506q84 256 84 366v7q0 18 -4.5 53t-4.5 53q0 82 54 82h8q88 0 88 -70l-15 -102q-59 -418 -270 -805 q-164 -297 -393 -424q-119 -64 -254 -63h-8q-145 2 -252 262q-102 252 -107 536z" />
<glyph unicode="V" horiz-adv-x="1273" d="M74 1249q0 31 25.5 59.5t54.5 28.5q74 0 168 -272q51 -170 172 -504q57 -133 112 -280q14 -43 37 -95l162 318l207 422q66 143 96 231q35 106 47 164q6 27 6 33q0 39 30 87t73 48t59 -33q6 -16 6 -33q0 -51 -37 -84q-23 -20 -51 -125q-37 -127 -197 -464l-94 -201 l-92 -197l-137 -293q-23 -47 -27 -51q-23 -23 -71 -22q-33 0 -48 10q-6 4 -122 346q-160 457 -283 733q-12 29 -57 88q-39 49 -39 86z" />
<glyph unicode="W" horiz-adv-x="1720" d="M68 1286q0 27 32 60q16 16 43 16t52.5 -17.5t31.5 -41.5q14 -57 23 -152q10 -141 12 -152q16 -131 57 -362q4 -25 52 -352q37 115 123 323q47 115 188 359l176 309q31 59 40 92t71 33q68 0 67 -88q0 -29 -2 -86.5t-2 -85.5q0 -168 26.5 -404.5t100.5 -451.5l47 -142 q86 117 215 455q63 164 144 438q25 111 80 338q23 92 81 92h17q63 -8 63 -55t-39 -86q-12 -12 -28 -72l-45 -168q-76 -283 -197 -604q-78 -209 -141 -329q-86 -162 -148 -162q-45 0 -59 6q-25 8 -35 45q-25 94 -84 287q-61 170 -92 399q-14 121 -35 410q-119 -186 -192 -328 q-63 -117 -170 -406l-62 -167l-61 -173q-8 -20 -31 -47q-23 -14 -51 -14q-49 0 -72 29q-14 14 -14 39q0 14 3 43.5t3 44.5v30q0 8 -4 39q-29 227 -98 678q-27 152 -64 295z" />
<glyph unicode="X" horiz-adv-x="1116" d="M-74 -100q0 35 47 120q20 41 64 121q35 70 135 219l301 443q-86 182 -92 198q-55 113 -107 191l-53 74q-33 47 -33 80q0 39 50 61q18 8 34 8q49 0 86 -74q16 -45 54 -133l57 -121l80 -178l254 340l92 119q72 82 115 82q35 0 55 -45q0 -2 2 -2v-4q0 -31 -129 -187 q-195 -238 -330 -428q78 -174 199 -411q47 -100 115 -213q68 -51 67 -82q0 -25 -28 -51q-14 -10 -27 -11q-35 0 -82 56q-41 45 -66 94q-160 307 -254 512q-4 -6 -170 -242q-119 -170 -192 -293q-96 -162 -96 -225v-12q0 -31 -28 -61.5t-58 -30.5q-27 0 -44.5 28.5 t-17.5 57.5z" />
<glyph unicode="Y" horiz-adv-x="1077" d="M49 1278v2q0 47 55 47q100 0 158 -96q37 -61 103 -221l61 -150q332 254 500 426q41 43 71 84q63 84 97 84q20 0 44.5 -20.5t24.5 -40.5q0 -23 -37 -45q-20 -10 -45 -33q-41 -86 -551 -527q8 -66 9 -167v-52q0 -39 -4.5 -113.5t-4.5 -111.5q0 -125 21 -301q2 -16 15.5 -46 t13.5 -52q0 -59 -68 -60q-76 0 -76 82q0 8 2 20.5t2 20.5q0 10 -13 123t-17 240l-2 106q-2 43 -5 92l-4 95l-24 12q-23 10 -29 22l-51 174q-53 170 -131 291q-27 43 -78 68q-37 18 -37 47z" />
<glyph unicode="Z" horiz-adv-x="1413" d="M-55 12q0 18 10 33q23 29 211 307q199 291 309 436q178 233 402 472q-283 -37 -461 -89q-109 -33 -140 -63q-51 -51 -86 -51q-27 0 -51 33q-10 10 -10 26q0 47 141 131q33 18 213 64q170 41 348 73q197 35 246 35q10 0 19 -4q35 -23 34 -63q0 -10 -4 -27l-153 -135 q-201 -190 -449 -516q-45 -59 -131 -185l-82 -116l-78 -115l-61 -96q-27 -43 -35 -62l213 33q362 57 658 70q145 6 270 6q303 0 332 -25q43 -23 43 -55q0 -49 -49 -49q-8 0 -82 26q-23 8 -222 9q-307 0 -583 -33q-240 -29 -522 -96q-8 0 -89 -27q-61 -18 -81 -18 q-80 -1 -80 71z" />
<glyph unicode="[" horiz-adv-x="577" d="M63 -227q0 385 109 1128q18 127 18 232q0 37 -11 106.5t-11 101.5q0 12 8 19q25 25 51 24q14 0 45 -6t47 -6q41 0 87 14q18 6 110 44q23 8 35 8q14 0 14 -17q0 -25 -45 -55q-88 -63 -141 -72q-31 -4 -68 -10v-14q0 -102 -12 -207l-59 -512q-25 -211 -62 -631 q-6 -102 -6 -166q0 -117 27 -164q4 -4 16 -4q16 0 144 26t169 26q39 0 45 -17v-2q0 -20 -94 -57q-86 -29 -254 -92q-53 -20 -88 -21q-18 0 -24 8q-50 58 -50 316z" />
<glyph unicode="\" horiz-adv-x="651" d="M0 1511q0 10 2 13q20 41 51 41q57 0 82 -49q16 -37 90 -314q41 -158 101 -362q90 -305 204 -572q37 -84 69 -144.5t32 -105.5q0 -49 -51 -49h-13q-8 2 -12 2q-33 8 -115 211q-90 223 -237 672l-64 199l-78 233q-61 184 -61 225z" />
<glyph unicode="]" horiz-adv-x="638" d="M25 -549q0 33 59 78l88 65l57 50q23 20 39 37l31 30q10 96 14 178l4 72l5 96l6 150q10 317 26 559q12 172 35 410q2 18 4 53l4 59q2 33 2 70q-66 -23 -120 -23q-20 0 -57.5 -2t-55.5 -2h-8q-49 0 -49 39q0 23 10 47q6 16 71 17h43q29 -2 43 -2q25 0 46 4l67 22 q43 14 78 15q25 0 35 -7.5t10 -64.5q0 -51 -6 -137l-6 -74q-2 -25 -6 -68q-12 -147 -19 -276l-65 -1092q0 -14 9 -18t9 -25v-14q0 -6 -4 -16q-8 -29 -86 -97q-57 -49 -135 -100q-106 -70 -150 -70q-12 0 -14 4q-14 15 -14 33z" />
<glyph unicode="^" horiz-adv-x="675" d="M49 858q0 23 14 53l76 166l84 187q39 92 56 122q47 100 65 107q8 4 21 4q49 0 84 -133q14 -59 26 -133l25 -148q16 -92 63 -223l27 -74q10 -31 10 -51q0 -16 -8 -24q-18 -27 -53 -27q-41 0 -54 27q-29 63 -67 245l-33 162q-18 82 -37 156q-106 -215 -194 -445 q-10 -25 -48 -24q-57 0 -57 53z" />
<glyph unicode="_" horiz-adv-x="1024" d="M0 -154h1024v-96h-1024v96z" />
<glyph unicode="`" horiz-adv-x="731" d="M86 1415q0 41 47 41q14 0 39 -6q14 -6 64 -59q109 -123 274 -277q43 -41 72 -55q4 -2 10 -2h18q23 0 39.5 -29t16.5 -57q0 -45 -39 -45q-29 0 -78 35q-203 145 -387 342q-43 43 -66 75q-10 14 -10 37z" />
<glyph unicode="a" horiz-adv-x="755" d="M68 125q0 104 73 205q86 119 193 119h12q125 0 195 -195q33 90 32 186q0 137 -67 265q-45 84 -137 83q-90 0 -150 -59q-14 -14 -15 -24.5t-18 -10.5q-59 0 -59 47v4q0 51 81 95.5t171 44.5q176 0 260 -207q37 -96 37 -234q0 -139 -39 -294q-35 -131 -49 -140 q-6 -8 -25 -8q-31 0 -43 16q-10 10 -14 29q-4 8 -4 19q-154 -102 -273 -103q-76 0 -118.5 45t-42.5 117zM164 133q0 -51 20.5 -61.5t48.5 -10.5q68 0 156 56q45 29 82 57q-31 94 -72 145q-23 27 -47 27h-8q-135 -23 -170 -151q-10 -35 -10 -62z" />
<glyph unicode="b" horiz-adv-x="780" d="M98 739v2q0 37 60 64q70 270 69 430q0 16 -8 48t-8 52q0 45 49 51h2q39 0 64 -65q16 -49 16 -98q0 -82 -43 -260q-14 -55 -29 -136h27q221 0 367 -96q109 -74 108 -168q0 -88 -110 -227q-80 -100 -216 -219l-90 -78l-49 -41l-24 -31q-16 -20 -31 -20h-6q-4 2 -6 2 q-59 10 -60 65v17q0 4 2 6h-6q-57 0 -72 31q-2 4 -2 32v74q0 295 29 510q-14 4 -25 27q-6 10 -8 28zM207 338q0 -172 18 -264q170 123 293 245q137 137 137 234q0 57 -59 96q-68 43 -178 62q-53 8 -103 8q-33 0 -65 -4q-43 -172 -43 -328v-49z" />
<glyph unicode="c" horiz-adv-x="1044" d="M18 211q0 117 88 262q127 213 302 320q68 41 116 41h17q70 0 69 -50q0 -53 -57 -92q-12 -6 -24.5 -6t-34 5t-33.5 5t-17 -2q-29 -10 -102 -88q-211 -223 -211 -377q0 -74 62 -112q35 -23 96 -23q115 0 309 84q104 43 309 158q61 39 152 88q12 4 18 4q43 0 43 -45v-8 q0 -12 -145 -105q-274 -174 -522 -243q-94 -27 -179 -27q-145 0 -217 90q-39 49 -39 121z" />
<glyph unicode="d" horiz-adv-x="1062" d="M25 199q0 176 180 356q172 172 321 172q18 0 29 -2q109 -23 170 -90q23 -25 84 -137l41 356l16 139l13 127q14 139 14 170q0 10 -2 13q-12 49 -12 86q0 53 34 53q43 -2 74 -31t31 -72q0 -20 -8 -39q-4 -10 -29 -182q-10 -76 -20 -168l-21 -188q-18 -176 -29 -354 q76 -8 86 -50q4 -10 4 -16v-12q0 -45 -75 -66q-23 -6 -49 -16q12 -111 12 -121q0 -90 -37 -90h-6q-61 10 -76 53q-4 29 -16 86q-166 -111 -344 -172q-90 -33 -170 -33q-111 0 -166 74q-49 66 -49 154zM131 190q0 -113 123 -112q82 0 229 76l256 145q-20 141 -80 242 q-31 51 -77 73q-20 10 -54 11q-123 0 -260 -156t-137 -279z" />
<glyph unicode="e" horiz-adv-x="995" d="M37 383q0 123 82 231q78 102 204 167t255 65q104 0 176 -47q8 -2 8 -15q0 -37 -100 -118q-162 -131 -283 -181q-78 -31 -162 -41q-35 -4 -55 -6q-6 -25 -6 -59q0 -150 120 -252q37 -33 99 -33h8q68 0 195 72q92 51 198 131q82 61 101 86q39 76 69 76q25 0 43.5 -20.5 t18.5 -45.5q0 -45 -46 -79l-126 -93q-211 -158 -359 -209q-66 -23 -123 -22q-152 0 -254 172q-63 106 -63 221zM211 553q68 4 149.5 37t165.5 92q31 23 78 66h-6q-225 0 -387 -195z" />
<glyph unicode="f" horiz-adv-x="798" d="M55 418q0 25 51 74q35 31 103 57q35 12 88 22v56v28q2 23 2 33q4 438 129 627q96 145 258 145q156 0 184 -69q4 -14 4 -27v-10q-10 -37 -43 -37q-20 0 -38 10q-29 16 -35 19q-47 16 -82 16q-135 0 -207 -195q-63 -174 -63 -458q0 -14 2 -23q0 -16 2 -47v-47 q100 14 215 14q82 0 95 11.5t34 11.5q29 0 49 -18.5t20 -47.5v-2q0 -59 -94 -61q-84 0 -250 -6q-31 -2 -67 -9q0 -346 -29 -540q-18 -119 -66 -357l-24 -118q-10 -49 -10 -70q0 -8 2 -10v-15q0 -68 -68 -67q-23 0 -41 8q-35 12 -35 57q0 33 23 60q14 16 47 155 q39 176 59 351q25 209 29 393v129q-78 -12 -121 -82q-25 -31 -53.5 -31t-49 20.5t-20.5 49.5z" />
<glyph unicode="g" horiz-adv-x="970" d="M-184 -780q0 164 137 315q166 184 344 272q129 63 381 125q-49 78 -137 125q-63 31 -144 31h-28q-109 0 -197 -34t-104 -34q-23 0 -44.5 15.5t-21.5 36.5q0 41 45 57l47 16q-25 57 -24 117v14q0 59 65 148q29 39 70 88l94 113q-16 10 -29 20q-29 29 -28 41v2q6 53 45 53 q16 0 41 -18q8 -6 45 -6q49 0 403 41q70 8 113 8q47 0 76 -21q14 -10 14 -24q0 -18 -27 -39q-4 -2 -14 -2q-12 0 -38 2t-38 2q-45 0 -106 -12q-96 -16 -107 -17l-67 -10q94 -88 104 -168q0 -4 2 -14v-12q0 -82 -63 -156q-35 -41 -129 -117q78 -23 141 -67q74 -51 145 -158 q276 20 330 20h31q170 0 252 -39q33 -16 45 -45q4 -10 4 -14q0 -43 -105 -43h-18q-41 0 -51 18q-6 12 -23 37h-20h-29q-18 2 -29 2q-121 0 -239 -14l-105 -12q10 -31 27 -101q4 -33 4 -75q0 -211 -129 -465q-72 -139 -197 -244q-154 -123 -317 -123q-119 0 -231 72 q-166 107 -166 293zM-76 -780q0 -111 115 -197q76 -57 170 -57q109 0 219 71q102 68 164 166q160 256 160 453q0 90 -33 184q-238 -43 -467 -182q-117 -70 -211 -184q-117 -141 -117 -254zM180 254q0 -33 17 -82q14 2 49 10q131 27 252 123q92 74 92 141v11q-2 4 -2 8 q-27 131 -154 151q-125 -111 -196 -225q-57 -90 -58 -129v-8z" />
<glyph unicode="h" horiz-adv-x="970" d="M61 -20q0 31 27 86q10 20 14 229q6 270 39 573q8 129 33 385q14 129 55 129h2q72 0 72 -73q0 -55 -18 -162q-23 -129 -27 -168l-14 -164q-16 -178 -21 -268q-2 -41 -4 -94q287 360 490 360q84 0 122 -68q51 -88 64 -249q4 -78 4 -156q0 -131 -6 -199v-16q0 -14 2 -41 t2 -41q0 -47 -53 -47h-2q-63 0 -64 96v29q0 16 3 52t5 52v105q0 127 -12 229q-14 115 -47 133q-10 8 -33 8q-55 0 -153 -69q-135 -94 -238 -232q-29 -39 -45 -71q-53 -111 -53 -248q0 -39 4 -57v-13q0 -98 -78 -98q-37 0 -49 16q-21 23 -21 52z" />
<glyph unicode="i" d="M154 1225q0 51 22 102q33 82 37 94q6 25 27 68q8 8 28 8q51 0 51 -57v-8q-2 -18 -24 -64l-31 -63q-10 -57 -37 -129q-16 -20 -37 -21q-12 0 -20 8q-16 13 -16 62zM162 162q0 74 6 184l14 258q0 53 11 158q10 76 55 76h4q63 0 63 -78v-12l-8 -91l-31 -303 q-10 -94 -10 -104v-39q0 -63 21 -109q4 -10 4 -24q0 -68 -55 -68q-51 0 -68 56q-6 24 -6 96z" />
<glyph unicode="j" horiz-adv-x="534" d="M-713 -649q0 117 39 166q6 10 17 10q14 0 14 -25q2 0 2 -4q0 -16 -3 -49t-3 -49q0 -301 309 -354q25 -4 31 -4h31q205 0 370.5 177t202.5 414q18 119 18 256q0 229 -36 508q-14 109 -27 183l-14 86q-2 23 -12.5 32t-10.5 31v8q4 39 55 39q31 0 52 -22q31 -33 73 -305 q47 -309 47 -566q0 -223 -39 -350q-94 -309 -297 -463q-170 -129 -378 -129q-168 0 -275 80q-166 125 -166 330zM291 1370v27q0 37 37 45q2 0 8 2h8q49 0 57 -62q2 -8 2 -22q0 -68 -43 -68q-63 0 -69 78z" />
<glyph unicode="k" horiz-adv-x="1204" d="M84 59v47q0 -12 2 52q12 403 92 794q68 342 103 357q18 8 32 8q45 0 62 -62q2 -8 2 -18t-29 -84q-35 -88 -65 -248l-27 -145q-12 -61 -20 -131q170 55 325 98l133 37q145 39 244 59q51 10 86 15h4q37 0 37 -43q0 -29 -27 -47l-233 -54q-266 -63 -565 -186 q98 -106 276 -219q92 -59 223 -117q147 -66 269 -66q82 0 147 31q41 20 58.5 47t56.5 27q53 0 61 -55v-6q0 -43 -88 -78q-43 -20 -151 -54q-51 -10 -97 -10h-12q-330 0 -768 375q-23 -121 -22 -279v-38q0 -29 13 -82.5t13 -81.5q0 -53 -78 -54q-57 0 -57 211z" />
<glyph unicode="l" horiz-adv-x="436" d="M141 68q0 215 47 716q6 78 21 217q10 121 18 242q20 209 39 223q25 25 45 25q45 0 64 -51q4 -12 4 -35q0 -37 -23 -195l-28 -188q-47 -332 -62 -561q-8 -143 -8 -266q0 -35 3 -95.5t3 -85.5v-28q0 -104 -49 -105q-25 0 -49.5 18.5t-24.5 168.5z" />
<glyph unicode="m" horiz-adv-x="1290" d="M111 55q0 94 14 238l18 176q4 41 4 78q0 27 -4 82t-4 82q0 25 6 37q20 31 58 30q47 0 69 -57q12 -33 19 -90q45 90 67 129q39 72 78 121t68 49q55 0 98 -74q35 -59 53 -534q98 225 207 405q72 119 131 170q31 27 58 31h6q33 0 72.5 -42t48.5 -81q14 -59 18 -188.5 t4 -262.5v-104l-2 -57q0 -18 10.5 -50t10.5 -51q0 -14 -7 -22q-14 -27 -53 -27q-31 0 -45 27q-23 43 -22 219q0 45 3 137t3 137v8q0 125 -25 197q-10 25 -24 33h-2q-18 0 -99 -129q-150 -242 -221 -490q-18 -74 -61 -213q-10 -27 -31 -26h-2q-2 2 -6 2q-49 12 -64 57 q-6 20 -6 90q-2 39 -4 131q-6 205 -16 371q-2 49 -7 82q-10 66 -22 74q-2 2 -6 2q-45 0 -135 -207q-96 -221 -127 -416q-6 -41 -7 -70q0 -12 3.5 -35.5t3.5 -35.5q0 -39 -66 -39q-41 0 -52 18t-11 88z" />
<glyph unicode="n" horiz-adv-x="786" d="M86 61q0 76 6 203q8 152 10 203q6 248 27 369q8 47 45 47q39 0 66 -33q8 -10 8 -35q0 -43 -10 -121q-8 -84 -11 -121q-3 -114 -4 -114v4v-17q0 -10 2 -22q90 186 181 321q100 150 163 150h6q2 -2 5 -2q66 -14 88 -145q16 -98 16 -330v-236q0 -119 6 -133q35 -80 35 -100 q0 -29 -18 -41q-10 -10 -29 -10q-37 0 -64.5 27.5t-27.5 64.5q0 8 4 28q2 4 2 19q0 49 -10.5 156.5t-10.5 166.5v54q0 12 2 35v38v72q0 170 -22 189q0 2 -4 2q-31 0 -119 -172q-98 -188 -162 -361q-35 -96 -55 -174q-8 -27 -29 -63q-20 -10 -39 -11q-27 0 -42 22.5t-15 69.5 z" />
<glyph unicode="o" horiz-adv-x="749" d="M37 303q0 84 35 162q86 195 175 282t165 87h10q82 0 158 -62q125 -104 125 -301q0 -143 -86.5 -265t-219.5 -179q-78 -35 -141 -35q-111 0 -176 125q-45 86 -45 186zM147 305q0 -74 31 -133q37 -74 103 -74q68 0 149.5 64.5t112.5 122.5q59 117 59 211q0 131 -74 196 q-35 27 -96 35l2 -10q-92 -18 -186 -150q-47 -66 -88 -182q-13 -35 -13 -80z" />
<glyph unicode="p" horiz-adv-x="712" d="M74 -401q0 399 65 876l33 244q-51 12 -51 61v8q6 35 65 62q45 20 80 20q127 0 256 -96q152 -113 166 -274v-13q0 -80 -96 -202q-82 -102 -186 -193q-94 -82 -119 -88q-4 -2 -13 -2q-20 0 -42.5 17.5t-26.5 35.5q-18 -170 -27 -463l-2 -71v-64q0 -227 10.5 -249.5 t10.5 -38.5q0 -59 -50 -60q-8 0 -12 2q-59 16 -59 84q0 23 8 37q2 4 2 20q0 57 -6 173.5t-6 173.5zM209 102q172 88 289 226q59 70 77 155q2 6 3 21q0 76 -89.5 161t-179.5 93q-25 -111 -51 -279q-6 -37 -31 -233z" />
<glyph unicode="q" horiz-adv-x="694" d="M80 184q0 229 102 447q74 156 160 233q39 35 68 41h10q29 0 65.5 -21.5t36.5 -47.5v-5q-6 -43 -37 -43h-24q-23 0 -39 -10q-88 -63 -167 -239.5t-79 -300.5q0 -41 8 -66q2 -6 9 -6q31 0 143 153q92 127 151 244q12 25 13 49q0 8 -2 25.5t-2 26.5q0 39 59 38q68 0 68 -53 q0 -20 -35 -127l-35 -106q-51 -182 -84 -518q-10 -106 -10 -201v-14q0 -283 47 -471q16 -66 43 -97q4 -4 12 -4q35 0 144 117l96 108l92 109q49 59 119 121q29 4 43 4q16 0 16 -12v-4q0 -16 -108 -160q-135 -172 -224 -266q-137 -139 -192 -140h-6q-80 12 -127 201 q-49 201 -49 502q0 207 34 422q10 72 25 151q-90 -129 -184 -203q-47 -37 -82 -36q-8 0 -21 4q-57 24 -57 155z" />
<glyph unicode="r" horiz-adv-x="835" d="M86 831q0 12 27 35q14 12 34 13q59 0 76 -84q6 -45 10 -138q2 -49 3 -86v-161q127 172 272 309l59 57q113 109 224 109q49 0 94 -17q29 -10 28 -53q0 -41 -47 -49q-4 -2 -12 -2q-16 0 -39.5 9t-42.5 9q-25 0 -53 -16q-193 -111 -432 -473q-53 -80 -64 -260 q-2 -33 -12 -47q-16 -23 -45 -23q-72 0 -72 82q0 57 15 162q16 115 18 162q4 80 4 139q0 156 -22 249q-19 78 -22 78q-1 -1 -1 -4z" />
<glyph unicode="s" horiz-adv-x="700" d="M37 483v17q0 147 145 307q61 68 129 125l119 98q33 29 84 29q27 0 47 -8q31 -16 88 -56q12 -12 13 -20v-8q0 -37 -44 -37q-25 0 -47 12t-30 12q-41 0 -92 -41l-162 -149q-102 -90 -133 -207q-10 -33 -11 -57q0 -2 2 -8v-9q14 -86 103 -133l166 -61q137 -51 153 -62 q78 -45 90 -129v-4q0 -35 -88 -106q-59 -45 -172 -107q-90 -49 -108 -49q-74 4 -74 55q0 14 12 31q2 6 86 41q78 35 105 49q61 31 96 64q23 20 23 37v4q-6 39 -131 76.5t-173 58.5q-94 43 -147 106q-39 45 -47 113q-2 8 -2 16z" />
<glyph unicode="t" horiz-adv-x="811" d="M-18 692q0 8 2 13q14 41 61 63q23 10 66 27l73 28l115 39l78 21q29 180 49 393v12q0 14 -2 40t-2 40q0 80 47 80q63 0 63 -148q0 -102 -24 -249l-12 -66q-6 -35 -13 -84q160 27 269 27q84 0 102 -2q70 -10 74 -54v-4q0 -37 -49 -37q-12 0 -35 3.5t-35 3.5 q-125 0 -274 -31q-41 -8 -68 -14q-45 -322 -45 -627v-51q0 -27 2 -49q0 -8 5 -29t5 -33q0 -49 -49 -49h-8q-72 6 -72 108v5q0 23 2 79t4 91q0 104 17 258q8 72 26 215q2 27 6 59q-59 -16 -174 -57q-8 -4 -68.5 -42t-68.5 -38h-4q-63 14 -63 59z" />
<glyph unicode="u" horiz-adv-x="700" d="M86 811v6q0 66 41 66h10q61 -12 62 -74v-4v-41q-2 -27 -2 -41q0 -238 43 -413t98 -175q20 0 41 35q63 109 106 330q33 168 33 238.5t60 70.5h6q57 -6 57 -82q-8 -66 -39 -201q-27 -106 -88 -311q-61 -166 -115 -190q-37 -16 -63 -17q-109 0 -170 193q-45 137 -68 372 q-12 134 -12 238z" />
<glyph unicode="v" horiz-adv-x="903" d="M68 709q0 39 38 39q76 0 121 -164q10 -33 27 -119l10 -62l35 -149q6 -35 23 -84l155 227l92 127l101 133l94 125q49 66 102 146q6 23 34 62.5t54 39.5q23 0 38.5 -24.5t15.5 -49.5q0 -92 -113 -186q-35 -29 -154 -192q-86 -117 -200 -291q-47 -72 -117 -193 q-45 -111 -107 -110q-35 0 -55 32q-14 23 -39 115q-23 82 -35 135l-53 219q-8 31 -18 62q-49 142 -49 162z" />
<glyph unicode="w" horiz-adv-x="1449" d="M102 713q0 16 2 22q14 41 54 41q68 0 73 -67q0 -31 2 -93q4 -43 5 -61v-49v-53q-2 -37 -2 -56q0 -61 10 -137q96 207 196 324q74 78 170 200q16 25 68 25q35 0 55 -14q10 -10 33 -109l55 -258q8 -35 21 -74l24 -88l35 -114l240 303l166 215q76 102 75 108q20 98 78 99 q45 0 66 -33q8 -14 8 -31q0 -47 -51 -94q-10 -8 -110 -140l-226 -307q-61 -88 -191 -256q-33 -37 -63 -36q-49 0 -59.5 18t-53.5 174l-37 137q-27 119 -86 357q-113 -131 -184 -230q-49 -68 -88 -157l-70 -164q-59 -131 -120 -131h-2q-53 0 -62 116q-4 106 -10 322 q-2 41 -12 145q-9 93 -9 146z" />
<glyph unicode="x" horiz-adv-x="552" d="M-12 -135q0 27 14 39q6 4 80 180l151 365q-33 92 -116 296q-12 31 -13 58q0 43 46 43q35 0 71 -86q12 -29 66 -176l2 -4q51 125 96 223q39 86 55 98q12 4 21 4q45 0 53 -67q0 -8 -51 -131l-121 -277l70 -182l26 -74q6 -16 17.5 -43t27 -59.5t15.5 -59.5v-10 q0 -35 -49 -35q-63 0 -78 115q0 6 -82 223l-64 -149l-53 -127l-37 -95q-14 -35 -14 -40q0 -4 2 -11v-10q0 -88 -68 -88h-10q-57 0 -57 80z" />
<glyph unicode="y" horiz-adv-x="804" d="M86 252q0 86 18 209l56 379q8 49 43 59q2 0 4 2h4q20 0 44 -20.5t26 -40.5v-2q0 -8 -41 -224q-41 -207 -41 -276q0 -33 8 -39q2 -2 8 -2q35 0 150 125q102 111 235 270q14 31 51 86q10 10 27 10q43 0 59 -65q12 -51 13 -111q0 -6 -21 -211l-80 -778q-2 -18 -33 -211 q-20 -131 -20 -213q0 -12 2 -14q29 -39 29 -82q0 -55 -70 -55h-4q-82 0 -82 65q0 57 23.5 65.5t46.5 252.5q18 201 34 399l19 190q16 182 24 342q4 90 7 205q-154 -190 -275 -307q-92 -90 -149 -123q-33 -18 -56 -18q-59 0 -59 133z" />
<glyph unicode="z" horiz-adv-x="946" d="M12 70q0 20 119 120q164 135 322 308q115 125 114 174q0 8 -6 13t-82 5q-119 0 -241 -45q-45 -16 -80 -16q-25 0 -37 14t-12 25q0 37 88 71q121 47 280 47q92 0 158 -12q33 -6 72 -29q4 -6 4 -22q0 -88 -127 -236q-63 -74 -217 -219q-41 -37 -119 -116q-18 -20 -19 -25 q2 -2 13 -2q47 0 245 33q186 29 285 49l279 65q37 8 55 9h6q2 -2 4 -2q51 -25 51 -66q0 -10 -8 -12q-18 -10 -49 -11q-4 0 -12 3h-13h-14q-10 -2 -14 -3q-51 -6 -232 -49l-379 -88q-141 -31 -266 -43q-45 -6 -55 -6q-35 0 -100 45q-13 9 -13 21z" />
<glyph unicode="{" horiz-adv-x="860" d="M-221 584v6q2 4 2 6q16 57 63 63q16 4 27 5q27 0 78 -11.5t78 -11.5h2q260 0 364 82q90 70 94 240q8 365 109 518q78 121 242 121q47 0 116 -11q129 -18 129 -90v-12q-10 -45 -41 -45q-20 0 -41 14q-27 18 -34 23q-72 27 -131 26q-152 0 -207 -211q-27 -106 -33 -331 q-6 -238 -135 -324q-90 -59 -330 -80l178 -59q102 -37 164 -90q39 -35 80 -88q117 -152 117 -357v-33q-2 -23 -2 -32q0 -102 26.5 -156.5t104.5 -110.5q18 -12 43 -12q12 0 35.5 5t35.5 5q16 0 33 -10q35 -27 35 -67q0 -59 -42 -69.5t-79 -10.5q-205 0 -272 256 q-20 78 -21 166q0 4 2 8v10v59q0 109 -21.5 176.5t-84.5 145.5q-123 152 -443 205q-94 16 -167.5 34.5t-73.5 47.5z" />
<glyph unicode="|" horiz-adv-x="411" d="M129 424v41q0 -6 2 41q6 133 19 379l30 495q4 76 4 99v10q0 29 32 55.5t60 26.5h3q49 0 49 -43q0 -25 -29 -62q-14 -16 -29 -297q-27 -444 -26 -630q0 -158 28 -330q27 -160 27 -148q0 -51 -68 -51q-47 0 -55 31q-47 162 -47 383z" />
<glyph unicode="}" horiz-adv-x="737" d="M10 -442q0 14 10 30q20 23 41 23q31 0 75 -51.5t81 -51.5q102 0 143 361q6 53 9 100l2 105q2 129 22.5 247.5t91.5 204.5q-78 31 -110 52q-51 35 -78 90q-23 43 -27 90q-2 8 -2 24q0 63 8.5 189.5t8.5 189.5q0 147 -21 221q-27 94 -84 95q-25 0 -49 -13q-16 -8 -29 -8 q-45 0 -63 62v8q0 41 47 41h18q18 0 53.5 4t53.5 4h22q47 0 82 -43q57 -76 70 -246q4 -80 4 -162v-116q-2 -80 -2 -119q0 -147 23 -176q82 -102 194 -103q63 0 98 39q16 20 46 21q12 0 28 -6q49 -14 49 -64q0 -43 -57 -59q-63 -20 -164 -66q-27 -18 -55 -65 q-37 -57 -49 -127q-14 -84 -21 -224q-6 -168 -12 -225q-23 -199 -64 -305q-51 -125 -145 -125q-61 0 -147 51q-101 60 -101 103z" />
<glyph unicode="~" horiz-adv-x="1302" d="M129 379q0 8 2 12q16 55 102 135q100 92 191 92h8q6 -2 8 -2q39 -6 68 -45q41 -57 41 -145v-14q0 -55 20 -64h9q41 0 151 51q145 68 270 152q33 20 43 33q31 37 60 37q20 0 34.5 -21.5t14.5 -44.5q0 -33 -31 -39q-16 -4 -86 -45q-168 -102 -176 -106q-100 -57 -184 -91 q-63 -25 -113 -24q-70 0 -96 72q-12 39 -14 131q-2 72 -35 71q-37 0 -113 -65.5t-80 -100.5q-4 -27 -37 -26q-57 0 -57 47z" />
<glyph unicode="&#xa1;" horiz-adv-x="632" d="M274 -131q0 102 9 305q4 82 8 143l24 277q4 57 4 88v12q-2 6 -3 11.5t-15 54.5q-10 33 -10 55v2q0 63 41 64q6 0 10 -2q72 -8 72 -144v-14q0 -111 -4 -299q-6 -219 -7 -299q-2 -16 -2 -107q-2 -70 -2 -118v-13q0 -25 2 -55l5 -119v-47q0 -35 -5 -39q-18 -31 -59 -31 q-25 0 -41 23q-27 31 -27 252zM285 1296q0 63 45 70h4q25 0 41 -29.5t18 -56.5q2 -4 2 -12q0 -61 -39 -62q-63 0 -69 62q-2 8 -2 28z" />
<glyph unicode="&#xa2;" horiz-adv-x="1056" d="M86 393v15q0 102 102 235q88 115 222 211q37 279 92 508q25 102 73 102q23 0 47.5 -24.5t24.5 -46.5v-7q-55 -168 -108 -450q102 55 174 55q39 0 63 -18q27 -27 27 -43q0 -23 -47 -23h-19q-10 0 -22 2q-2 0 -2 2h-4q-63 0 -193 -98l-49 -373q-8 -63 -23 -149 q113 33 254 115q121 68 144 94q37 41 65 41q25 0 47.5 -20.5t22.5 -45.5q0 -43 -47 -51q-25 -4 -129 -64q-115 -68 -178.5 -94t-192.5 -71q-49 -242 -49 -322q0 -27 5 -34t5 -11q0 -25 -34.5 -44.5t-61.5 -19.5q-20 0 -38.5 14.5t-18.5 35.5q0 18 14 61q25 74 67 301h-12 q-10 -2 -14 -2q-207 0 -207 219zM190 381q0 -115 125 -115q4 0 11 2h10q29 174 57 443q-203 -193 -203 -330z" />
<glyph unicode="&#xa3;" horiz-adv-x="1148" d="M16 8q0 49 121 162l160 143q72 72 82 299q-23 -2 -39 -2h-92q-23 0 -53 -4h-7q-31 0 -56 18q-26 19 -26 48q0 45 78 45h23h53q37 -2 55 -2h62l2 2q4 391 113 553q82 119 233 119q109 0 168 -25q47 -23 59 -49q4 -14 4 -27v-6q-2 -2 -2 -4q-10 -39 -41 -39q-20 0 -41 12 q-31 16 -34 19q-53 20 -101 20q-129 0 -190 -155q-59 -147 -60 -408v-8h146q117 2 135 16q12 10 35 10q68 0 67 -65v-2q0 -43 -36 -43q-4 0 -15 2h-14q-6 0 -8 -2q-100 -4 -150 -8l-110 -9q-14 -2 -45 -2q0 -127 -23 -223q-8 -35 -20 -57q176 -8 296 -176q80 -111 164 -111 q51 0 113 35q27 33 49 33q14 0 32.5 -21.5t18.5 -46.5q0 -29 -41 -45l-65 -24q-57 -29 -121 -29q-100 0 -182 88q-39 49 -129 133q-76 51 -156 51q-47 0 -82 -27l-67 -57q-104 -94 -152 -153q-18 -23 -51 -23q-39 0 -56 29q-4 4 -4 16z" />
<glyph unicode="&#xa4;" horiz-adv-x="1464" d="M16 313q0 39 76 76q14 8 109 39q14 74 53 160q-61 -18 -131 -56q-25 -14 -47 -14q-18 0 -35.5 18.5t-17.5 36.5q0 35 55 62q76 33 180 61l68 19q141 211 344 383q158 133 297 192q55 23 102 23q41 0 82 -21q49 -25 49 -61q0 -31 -30.5 -51.5t-63.5 -20.5q-16 0 -44 8.5 t-44 8.5h-17q-47 -8 -159 -89q-201 -143 -348 -333q250 57 399 57q55 0 55 -53q0 -63 -59 -64q-8 0 -25.5 3t-25.5 3q-152 0 -430 -69q-61 -104 -80 -168q127 33 319 61q4 0 10 2h13q72 0 71 -57q0 -61 -67 -61q-8 0 -26.5 3t-26.5 3q-115 0 -320 -60q-2 -10 -2 -20v-21 q0 -133 104 -207q90 -66 228 -65q127 0 287 63q172 68 288 162q14 10 25 25l33 46q16 24 40.5 23.5t39 -23t14.5 -46.5q0 -47 -53 -84q-389 -264 -701 -264q-158 0 -258 73q-150 111 -158 297l-51 -39q-37 -27 -55 -26q-27 0 -46.5 19t-19.5 46z" />
<glyph unicode="&#xa5;" horiz-adv-x="1204" d="M16 248q0 35 66 74l88 43q49 25 68 30q37 14 108 45q43 16 115 47l-6 62q-4 25 -17 43l-153 270q-45 80 -146 234q-35 43 -35 78q0 6 5 20q10 33 36 33q55 0 136 -115q43 -61 116 -229q59 -137 82 -138h4q20 8 158 166l242 285l118 133q10 61 64 62q20 0 41.5 -16.5 t21.5 -37.5q0 -27 -30 -59q-16 -18 -40 -19.5t-34 -9.5q-33 -27 -121 -145l-82 -113l-153 -217q-33 -41 -82 -119q-8 -20 -8 -43q0 -25 6 -73l225 96q94 37 152 57q35 12 57 13q47 0 47 -50q0 -33 -45 -55q-37 -16 -76 -16t-143 -41q-70 -27 -209 -94q0 -12 2 -39v-37 q100 41 270 80q59 8 146 30q12 6 30 6q63 0 64 -53v-14q-4 -23 -44 -52.5t-68.5 -29.5t-35.5 37q0 12 -18 12q-39 0 -262 -80l-80 -35q2 -43 10 -129l8 -57l11 -70q16 -27 16 -49q0 -43 -45 -51q-4 0 -8 -2h-10q-68 0 -68 78v8q2 2 2 8q0 10 -8 39q-14 45 -29 127 q-2 16 -4 37q-98 -61 -305 -164q-16 -4 -23 -4q-45 0 -45 59v9q6 31 62 59q14 10 114 59q113 57 193 91l-2 65l-127 -59l-105 -49q-94 -45 -114.5 -65.5t-44.5 -20.5q-31 0 -51 36q-7 9 -7 19z" />
<glyph unicode="&#xa6;" horiz-adv-x="411" d="M129 59q0 68 6 170l15 238q0 49 8 145q8 68 51 72h4q59 0 59 -72v-12l-45 -459q-2 -10 -2 -18v-17q0 -61 21 -102q4 -8 4 -20q0 -63 -51 -64q-47 0 -62 49q-8 24 -8 90zM139 1065q0 188 21 358q6 51 8 60q6 33 22 53q12 14 31 14q29 0 55 -53q4 -12 5 -20q0 -41 -15 -146 q-18 -119 -20 -155q-10 -141 -10 -193q0 -61 20 -72q10 -6 10 -26q0 -35 -33 -70q-18 -18 -36 -18q-27 0 -42.5 36.5t-15.5 231.5z" />
<glyph unicode="&#xa7;" horiz-adv-x="860" d="M49 641v21q0 57 31 118q57 113 194 185q-49 92 -49 174q0 129 125 233q117 96 223 96q61 0 95 -41q12 -16 12 -30q0 -23 -22.5 -38.5t-45.5 -15.5q-2 0 -2 3h-4h-16q-76 0 -148 -39q-100 -55 -100 -162v-23q0 -10 4 -22q10 -53 31 -92h12q55 0 66 -43q0 -4 2 -11v-8 q0 -16 -8 -26q25 -23 151 -113q96 -68 135 -131q59 -96 60 -197q0 -139 -119 -278q-31 -37 -53 -54q27 -63 26 -161q0 -152 -84 -246q-96 -104 -254 -127q-37 -4 -57 -4h-6q-51 0 -64 4q-29 8 -28 45v4q0 63 80 64h20q8 0 18 -5q2 0 9 -2h8q78 0 153 62q96 84 97 217 q0 43 -11 88q-2 12 -6 29q-2 2 -7 4t-7 4q-23 23 -23 45q0 8 2 12q-41 53 -124 105l-142 84q-174 106 -174 272zM164 655q0 -119 78 -178q31 -23 168 -104q106 -59 155 -121q2 0 4 2h2q29 10 66 53q53 63 53 150q0 16 -6 51q-23 123 -137 203l-111 72q-57 38 -96 81 q-176 -68 -176 -209z" />
<glyph unicode="&#xa8;" horiz-adv-x="759" d="M274 1106q0 43 9 100l8 58q14 98 57 98q10 0 27 -6q35 -20 35 -49q0 -10 -23 -78q-18 -55 -18 -137q0 -20 -13 -56q-14 -16 -32 -16q-35 0 -43 29q-7 22 -7 57zM545 1065q0 49 16 90l33 80l24 78q8 27 44 26q53 0 53 -59v-8q-2 -14 -21 -49q-45 -92 -61 -187 q-6 -41 -51 -41q-12 0 -21 6q-16 17 -16 64z" />
<glyph unicode="&#xa9;" horiz-adv-x="1462" d="M135 479q0 240 168 451q96 125 197 188l37 37q20 20 61 37q66 27 68 27q156 78 241 77h8q49 0 68 -20q6 -10 31 -25q88 -14 174 -82q55 -45 100 -122q49 -86 49 -205v-13q0 -184 -111.5 -383.5t-277.5 -332.5q-193 -154 -391 -154q-145 0 -268 121q-154 147 -154 399z M233 485q0 -217 119 -331q92 -92 213 -93h10q113 0 244 82q172 109 295 301q131 205 131 400v14q0 137 -80 213q-86 78 -237 78h-27q-133 0 -235 -53q-129 -68 -129 -187q0 -25 9 -55.5t9 -49t-16 -18.5q-2 -2 -7 -2q-39 0 -63 54q-23 43 -23 96q-31 0 -110 -127 q-103 -162 -103 -322zM483 498q0 119 78 233q82 123 193 123q14 0 34 -4q2 0 14.5 38t43.5 38h4q61 0 61 -74q0 -16 -4 -27q-8 -20 -10 -55v-57q-4 -70 -59 -70h-2q-47 0 -57.5 48t-20.5 48h-2q-45 0 -99 -53q-76 -76 -75 -186v-6q0 -55 51 -56q45 0 123 43q61 33 90 68 q39 45 55 45q18 0 37.5 -22.5t19.5 -41.5q0 -25 -55 -69l-78 -60q-82 -68 -190 -67q-80 0 -125 63q-27 38 -27 101z" />
<glyph unicode="&#xaa;" horiz-adv-x="823" d="M98 696q0 37 47 47q76 16 248 17q170 0 262 -12q29 -4 43 -11q37 -16 37 -41q0 -43 -67 -59q-16 -4 -25 -4q-18 0 -26.5 10t-18.5 14q-37 6 -106 7q-137 0 -273 -19q-8 0 -23.5 -2t-23.5 -2q-16 0 -22 4q-52 22 -52 51zM154 965q0 84 67.5 166.5t159.5 95.5q8 2 25 2 q117 0 172 -146q23 59 22 125q0 98 -55 178q-35 51 -101 52q-86 0 -141 -56q-14 -14 -14 -22v-4q0 -16 -25 -17q-49 0 -57 39v8q0 51 83 96.5t165 45.5q41 0 71 -12q176 -70 176 -306q0 -154 -77 -342q-8 -8 -27 -8q-29 0 -43 15q-6 10 -16 32q-129 -78 -238 -78 q-68 0 -107.5 38.5t-39.5 97.5zM250 969q0 -49 57 -49q84 0 197 84q-14 39 -60 114q-16 16 -34 17h-4q-111 -16 -146 -119q-10 -27 -10 -47z" />
<glyph unicode="&#xab;" horiz-adv-x="1105" d="M61 657q0 31 62 56l117 41l137 45q72 23 123 41q16 8 30 8q39 0 39 -47q0 -41 -22 -49q-193 -47 -328 -105l305 -151q39 -20 68 -43q14 -12 14 -37q0 -37 -24 -54q-8 -4 -13 -4q-18 0 -82 45q-84 59 -249 129q-177 74 -177 125zM494 657q0 31 61 56l117 41l137 45 q72 23 123 41q16 8 31 8q39 0 38 -47q0 -41 -22 -49q-193 -47 -328 -105l305 -151q39 -20 68 -43q14 -12 14 -37q0 -37 -24 -54q-8 -4 -13 -4q-18 0 -81 45q-84 59 -250 129q-176 74 -176 125z" />
<glyph unicode="&#xac;" horiz-adv-x="2856" d="M18 539v4q0 35 45 35q16 0 31 -9q6 -4 35 -4q27 0 68 4l79 9q117 12 119 12t10.5 11t18.5 11q33 0 47 -14q10 0 92 12q37 4 78 11l78 12q78 10 87 10t17 15.5t23 15.5h20q29 0 35 -17l176 19q55 4 168 16q16 2 19 2q8 8 34 23h11q16 0 25 -7.5t22 -7.5q10 0 59 3l103 4 q55 2 100 4l51 2q8 0 14.5 13t32.5 13q29 0 43 -22l291 12l57 2q2 0 12.5 16.5t39.5 16.5q43 0 51 -35q86 0 231 2h86q20 0 66 2h65h23q4 0 17.5 16.5t47.5 16.5q8 0 22.5 -14.5t22.5 -14.5q33 0 33 -39q0 -8 -4 -16l-8 -16q-6 -8 -10 -17q0 -20 -15 -108q-4 -29 -14 -90 q47 -10 47 -37q0 -57 -61 -62l-19 -71q-6 -23 -39 -23q-43 0 -49 43q-2 12 -2 39l-197 -12l-217 -17q-78 -6 -88 -6q-23 -23 -43 -22q-25 0 -34 7t-15 7q-39 0 -264 -25q-76 -8 -96 -8l-15 -24q-16 -27 -41 -27q-37 0 -50 21l-13 20q-27 -2 -258 -29q-14 0 -30.5 -2 t-18.5 -10q-10 -51 -58 -51q-49 0 -49 51q-111 -14 -334 -37q-6 -10 -14 -22q-16 -25 -39 -29h-12q-29 0 -49 41q-61 -6 -185 -16q-102 -10 -102 -17q-6 -82 -55 -82h-6q-50 4 -50 49v11q0 8 -2 8q-53 0 -170 -27q-6 -2 -16 -2q-49 0 -49 96q0 37 4 111t4 111q0 53 4 57v12 q-74 15 -74 60zM162 242q14 0 39 -11q6 -4 10 -8l8 -8q4 -4 6 -8q6 0 84 10q16 2 17 4l45 277q-64 -12 -164 -17q-23 -2 -29 -2h-4zM850 279q53 0 131 10q129 18 133 20q45 4 62 4l63 285q-14 0 -209 -23h2q0 -2 -131 -16q-29 -123 -43 -223q-8 -45 -8 -55v-2zM1714 369 l340 32l17 115l12 82q6 39 6 47l-330 -20z" />
<glyph unicode="&#xad;" horiz-adv-x="964" d="M51 481q0 59 105 86q57 14 260 31q229 18 372 18q102 0 119 -12q25 -18 25 -41q0 -41 -68 -49q-16 -2 -30 -2q-8 0 -23 2h-23h-49q-213 0 -393 -39t-229 -39q-57 0 -64 33q-2 4 -2 12z" />
<glyph unicode="&#xae;" horiz-adv-x="1529" d="M123 492v14q0 193 119 377q109 168 282 282q156 100 264 101h5q57 0 86 -29l12 -12q8 -8 14 -8q240 0 381 -173q127 -156 127 -389q0 -199 -162 -368q-213 -223 -534 -303q-90 -20 -156 -21h-6q-178 0 -291 121q-119 125 -137 340q-4 48 -4 68zM225 487q0 -211 101 -325 q45 -51 104 -76q68 -29 121 -29h12q113 0 279 74q317 141 430 363q41 82 41 178v24q0 63 -21 138q-45 156 -155 223q-59 35 -117 45q-20 10 -76 10q-14 0 -16 -2l-4 -4q-10 -6 -17 -6q-10 0 -14 4l-2 2q-4 2 -19 2q-57 0 -120 -16q-37 -10 -37 -23v-4q8 -12 8 -31 q0 -35 -37 -39h-2q-33 0 -88 80h-2q-20 0 -102 -65q-166 -131 -236 -330q-31 -84 -31 -170v-23zM504 397v11q0 29 4 81q8 106 8 101v108q0 66 16 82q10 10 25 11q8 0 17.5 -4.5t13.5 -4.5l43 39q53 37 112 37h7q98 0 120 -78q4 -20 4 -35q0 -102 -145 -196q-27 -18 -27 -27 q0 -10 105 -14q96 -4 184 -23q51 -12 56 -59v-2q0 -37 -50 -37h-4q-18 14 -86 37q-27 4 -41 4h-43h-47q-31 -2 -47 -2q-18 0 -52 6t-50 6q-10 0 -15 -6q0 -25 -24 -72q-14 -10 -31 -10h-4q-45 6 -49 47zM635 614q0 -14 4 -14q25 4 83 57.5t58 86t-32 32.5q-78 0 -103 -96 q-10 -43 -10 -66z" />
<glyph unicode="&#xaf;" horiz-adv-x="737" d="M49 1081q0 29 49 58q8 6 25 6q29 0 85 -4t85 -4h41q166 0 237 20q12 4 19.5 17.5t30.5 13.5q29 0 59.5 -18.5t30.5 -45.5q0 -25 -32 -42t-181.5 -35.5t-282.5 -18.5q-68 0 -117 8t-49 45z" />
<glyph unicode="&#x2c9;" horiz-adv-x="737" d="M49 1081q0 29 49 58q8 6 25 6q29 0 85 -4t85 -4h41q166 0 237 20q12 4 19.5 17.5t30.5 13.5q29 0 59.5 -18.5t30.5 -45.5q0 -25 -32 -42t-181.5 -35.5t-282.5 -18.5q-68 0 -117 8t-49 45z" />
<glyph unicode="&#xb0;" horiz-adv-x="583" d="M92 1024q0 100 82 229q59 94 131 158q20 19 31 19q18 0 26 -15q2 -16 7 -33q55 -4 96 -53q23 -27 31 -69q4 -10 4 -21v-20q0 -121 -127 -240q-78 -74 -154 -74q-37 0 -72.5 19.5t-48.5 52.5q-6 16 -6 47zM190 1042q0 -41 33 -41q16 0 25 5q45 14 100 71.5t55 118.5 q0 20 -4 31q-16 61 -55 61q-57 0 -121 -131q-33 -68 -33 -115z" />
<glyph unicode="&#xb1;" horiz-adv-x="1370" d="M-6 647q0 18 11 33.5t106 48.5q68 25 196 53l25 199q12 111 47 334q10 59 18 76q18 25 37 24q25 0 58 -33q18 -18 18 -41q0 -10 -23 -141q-31 -178 -61 -393q172 35 467 78q6 106 27 317q20 188 66 189q75 0 75 -76q0 -59 -19 -164q-18 -119 -22 -164l-6 -86 q362 49 459 49h10q8 -2 10 -2q39 -8 39 -47q0 -8 -2 -12q0 -47 -60 -47q-12 0 -30 6q-4 0 -10 2h-11q-57 0 -170 -12l-121 -13q-63 -8 -120 -16l-27 -356q-10 -139 -10 -215q0 -98 28 -111q39 -18 39 -26.5t-4 -12.5q-68 -133 -96 -133q-16 0 -41 18q-31 23 -31 281 q0 115 8 281l7 135q2 66 6 121l-129 -21l-217 -41l-129 -29q-49 -377 -50 -600v-30q0 -20 1.5 -30.5t5.5 -31t4 -31.5q0 -51 -49 -51q-6 0 -9 2q-70 6 -69 107v6q0 18 16 246q14 209 33 385q-25 -6 -125 -51q-78 -35 -129 -35q-18 0 -32.5 20.5t-14.5 40.5z" />
<glyph unicode="&#xb2;" horiz-adv-x="614" d="M18 1200q0 49 74 113q94 82 236 82q115 0 180 -70q45 -47 45 -113q0 -109 -170 -352l-64 -88l-45 -59l-73 -97l129 41q33 10 213 48q31 6 37 6q16 4 30 4q68 0 68 -62q0 -49 -45 -57h-12q-10 0 -27 4l-21 10h-4q-33 0 -130 -22.5t-255 -79.5q-37 -14 -59 -25 q-37 -10 -51 -10q-12 0 -19 6q-27 16 -26 53q0 20 41 74l180 230q207 281 207 374q0 90 -133.5 90t-198.5 -88q-6 -8 -12 -20q-4 -4 -6.5 -10t-6.5 -11q-12 -16 -28 -16q-54 0 -54 45z" />
<glyph unicode="&#xb3;" horiz-adv-x="614" d="M37 1350q0 27 37 43h22q45 0 99 4l104 8q49 4 84 4q76 0 86 -15.5t10 -25.5q0 -55 -129 -168q-35 -29 -102 -90q197 -12 289 -121q35 -43 35 -111q0 -243 -263 -395q-49 -29 -92 -51q-20 -10 -35 -10q-31 0 -59 22q-35 27 -35 45q0 20 35 21q12 0 33 -4q4 -2 10 -2h6 l66 41q174 115 221 227q20 47 20 100q0 86 -119 125q-49 14 -100 21l-88 10q-29 0 -55 29q-16 16 -17 35v10q4 10 39 37q88 68 205 178l-209 -19q-33 -2 -45 -2q-18 0 -35.5 18t-17.5 36z" />
<glyph unicode="&#xb4;" horiz-adv-x="946" d="M270 907q0 10 2 17q8 49 147.5 265t225.5 298q16 16 43 16q41 0 41 -55v-12q-2 -8 -2 -13q-2 -16 -53 -71q-63 -72 -144 -185l-90 -125q-35 -51 -45 -79v-7q0 -4 2 -13t2 -13q0 -16 -24 -39q-35 -25 -64 -25q-41 0 -41 41z" />
<glyph unicode="&#xb5;" horiz-adv-x="860" d="M94 319q-2 8 -1 16q0 29 26 42q6 2 18 18q-37 39 -37 100v13q10 178 158 393l-55 82q-14 18 -35 49q-17 25 -17 43q0 33 60 33q47 0 121 -109q74 92 135 146q14 12 20 12q18 0 27 -31q0 -16 4 -49q41 0 103 -30q39 49 53 52t26 3q37 0 48 -51q4 -4 -52 -76 q33 -51 39 -109q1 -14 1 -28q0 -144 -113 -293q35 -59 118 -170q23 -27 19 -49q6 -16 -27 -25q-25 -6 -43 -4q-80 6 -98 86q-2 12 -45 78q-131 -131 -252 -131q-23 0 -43 4q-16 -57 -97 -58h-5q-50 2 -56 43zM213 535q0 -18 4 -35l74 100l88 121q-23 31 -64 96 q-102 -169 -102 -282zM295 434q72 0 162 70l41 35l-60 92q-49 -64 -143 -197zM385 915l37 -59q16 -27 27 -39l53 74l51 70q-27 16 -53 16q-54 -1 -115 -62zM508 725q33 -47 63 -100q59 86 60 163q0 31 -10 62q0 6 -5 18z" />
<glyph unicode="&#xb6;" horiz-adv-x="921" d="M111 580q0 88 61 192q51 90 131 160l37 33q12 68 33 206q4 49 22 146q8 25 25 26h14q68 0 72 -45v-4q0 -47 -21 -159q-6 -27 -8 -37.5t-7 -28.5t-7 -27q45 18 86 19h16q8 0 17 -4l16 90v18q0 14 -2 40t-2 40q0 53 24 64q10 8 29 8q63 0 72 -80q2 -10 2 -31 q0 -80 -29 -178l-20 -70q-2 -6 -19 -124q-4 -31 -10 -66q0 -6 -10 -47q-6 -18 -15 -57q41 29 74 28q37 0 60 -39q6 -10 6 -18q0 -23 -53 -51l-54 -31q-29 -16 -57 -39q-4 -4 -16 -12q-18 -76 -23 -234q-2 -90 -2 -86q0 -55 12 -55q2 0 8 2h7q6 2 16 2q37 0 37 -33 q0 -10 -2 -16q-6 -31 -23 -52l-33 -44q-25 -39 -61 -39q-33 0 -55 43q-6 12 -6 22q0 16 5 50t5 53v37q0 143 10 217l12 84q-66 -29 -139 -41q-16 -66 -16 -142v-32q0 -23 2 -37q0 -6 3 -20.5t3 -22.5q0 -29 -43 -56q-16 -8 -25 -8q-49 0 -49 64v4q0 25 12 121q6 61 17 120 h-2q-61 0 -107 64q-23 27 -28 82q-2 17 -2 31zM221 571q0 -51 43 -65q12 84 41 252q-84 -101 -84 -187zM367 514q76 23 141 61l29 164q16 94 16 164v2q0 31 -23 31q-18 0 -57 -27l-23 -17l-24 -18q-23 -117 -35 -204z" />
<glyph unicode="&#xb7;" horiz-adv-x="423" d="M141 532q0 53 54 80q12 6 20 9h10q70 0 70 -86t-80 -86q-74 -1 -74 83z" />
<glyph unicode="&#x2219;" horiz-adv-x="423" d="M141 532q0 53 54 80q12 6 20 9h10q70 0 70 -86t-80 -86q-74 -1 -74 83z" />
<glyph unicode="&#xb8;" horiz-adv-x="657" d="M154 -479q0 33 28 51q12 4 16.5 4t12.5 -2h14q41 0 109 55q115 94 115 174q0 31 -23 52q-98 86 -102 178q0 12 -5.5 41.5t-5.5 44.5q0 45 56 45h8q61 -6 61 -33v-2q0 -12 -4 -39t-4 -41q0 -57 59.5 -119.5t59.5 -115.5q0 -68 -51 -136q-63 -84 -144 -141 q-31 -18 -114 -59q-18 -8 -35 -8q-51 0 -51 51z" />
<glyph unicode="&#xb9;" horiz-adv-x="614" d="M70 1022q0 20 34 59l179 185q31 39 96 112q20 20 27 23h8q49 0 55 -35v-4q0 -25 -12 -125q-2 -25 -49 -371q-18 -137 -23 -205q-4 -41 -4 -61v-12l4 -8q2 -4 2 -9q8 -16 8 -41q-10 -51 -51 -51q-6 0 -18 4q-49 16 -52 64q0 14 9 37q0 27 12 133l14 117l17 133 q18 150 36 254l-65 -70q-84 -92 -152 -158q-33 -31 -41 -30h-2q-32 0 -32 59z" />
<glyph unicode="&#xba;" horiz-adv-x="823" d="M98 696q0 37 47 47q76 16 248 17q156 0 262 -15q31 -4 43 -8q37 -16 37 -41q0 -43 -67 -59q-16 -4 -25 -4q-18 0 -26.5 10t-18.5 14q-37 6 -106 7q-137 0 -273 -19q-8 0 -23.5 -2t-23.5 -2q-16 0 -22 4q-52 22 -52 51zM133 1069q0 61 31 127q72 150 148.5 217.5 t144.5 67.5h8q72 0 139 -49q109 -82 109 -236q0 -113 -73 -208t-181 -140q-66 -27 -123 -27q-98 0 -162 103q-41 63 -41 145zM240 1071q0 -121 79 -149q16 -4 27 -4q51 0 123 51q66 45 94 88q49 74 49 137q0 68 -33.5 127t-107.5 59h-2q-37 0 -84 -39q-31 -27 -66 -75 q-47 -68 -69 -138q-10 -20 -10 -57z" />
<glyph unicode="&#xbb;" horiz-adv-x="1105" d="M37 416q0 27 12 37q33 27 164 92l211 102q-121 51 -328 105q-23 8 -22 49q0 47 39 47q14 0 30 -8q51 -18 123 -41l139 -45l91 -33q74 -27 80 -40t6 -24q0 -41 -90.5 -81.5t-268.5 -129.5l-114 -75q-20 -12 -35 -13q-6 0 -13 4q-24 17 -24 54zM522 416q0 27 13 37 q33 27 163 92l211 102q-147 59 -329 105q-23 8 -23 49q0 47 41 47q14 0 29 -8q51 -18 123 -41l139 -45q59 -20 90 -33q76 -27 81 -38t5 -26q0 -41 -90 -81.5t-266 -129.5l-115 -75q-20 -12 -35 -13q-23 0 -31 27q-6 15 -6 31z" />
<glyph unicode="&#xbc;" horiz-adv-x="1609" d="M70 1022q0 20 34 59l179 185q31 39 96 112q20 20 27 23h8q49 0 55 -35v-4q0 -25 -12 -125q-2 -25 -49 -371q-18 -137 -23 -204q-4 -41 -4 -62v-12l4 -8q2 -4 2 -9q8 -16 8 -41q-10 -51 -51 -51q-6 0 -18 4q-49 16 -52 64q0 14 9 37q0 27 12 133l14 117l17 133 q18 150 37 254l-66 -70q-84 -92 -152 -158q-33 -31 -41 -30h-2q-32 0 -32 59zM399 6q0 27 17 45l33 80l81 215q176 434 377 864q59 127 101 172q35 39 84 60q16 6 24 6q59 0 60 -68q0 -25 -15 -32l-30 -13q-72 -37 -119 -135q-260 -547 -404 -891q-94 -229 -94 -289.5 t-43 -76.5q-8 -4 -22 -4q-23 0 -33 10l-17 41v16zM791 375q0 20 51 65q61 53 147 174q33 45 66 119q49 104 59 122.5t33 53.5q12 12 27 13q23 0 38 -24t15 -48q0 -20 -8 -33q-27 -41 -136 -237q-39 -70 -114 -146q84 16 254 37q8 63 26 191l13 79q8 59 38 72h9 q23 0 41 -20.5t18 -42.5v-11q0 -14 -12 -67q-23 -92 -35 -201q51 -2 156 -16q43 -10 43 -37q0 -35 -37 -35h-4q-43 6 -103 6h-35q-16 0 -32 -2l-33 -248q-14 -109 -14 -137v-4q16 -29 16 -61q0 -55 -45 -56q-16 0 -31 6q-55 16 -55 70q0 25 8 43q4 10 21 123l16 119 q8 66 18 133q-100 -18 -299 -49q-35 -6 -57 -7q-63 1 -63 56z" />
<glyph unicode="&#xbd;" horiz-adv-x="1609" d="M74 1022q0 14 6 27q27 39 106 112q51 49 99 105q31 39 98 112q18 20 27 23h6q51 0 57 -35v-4q0 -8 -14 -125l-15 -117q-12 -84 -32 -254l-15 -112q-12 -106 -12 -154v-12q0 -4 2 -8l4 -9q8 -16 8 -41q-10 -51 -51 -51q-4 0 -18 4q-33 10 -41 20.5t-10 43.5q0 14 8 37 q0 27 12 133l14 117l17 133q18 150 37 254l-66 -70q-84 -92 -151 -158q-33 -31 -41 -30h-3q-32 0 -32 59zM401 6q0 23 19 45l31 80l16 37l68 178q176 434 376 864q59 127 101 172q35 41 84 60q12 6 24 6q59 0 60 -68q0 -23 -17 -32q-8 -4 -28 -13q-74 -39 -119 -135 l-404 -891q-94 -229 -94 -289.5t-45 -76.5q-6 -4 -20 -4q-27 0 -33 10l-17 41v8q-2 6 -2 8zM868 616q0 49 74 113q94 82 236 82q115 0 180 -70q45 -49 45 -112q0 -113 -170 -353q-41 -59 -64 -88l-45 -59l-73 -96l129 41q33 10 213 47q31 6 37 6q16 4 30 4q68 0 68 -59 q0 -49 -45 -60h-13q-14 0 -26 6q-4 0 -12 5l-9 4h-4q-33 0 -131 -23q-111 -25 -166 -47q-80 -33 -147 -55q-35 -12 -49.5 -12.5t-20.5 6.5q-27 16 -26 53q0 12 2 16q8 20 65.5 89t153.5 198q209 283 209 375q0 45 -47 69q-37 20 -86 21q-127 0 -199 -86q-8 -16 -27 -43 q-8 -14 -28 -15q-54 0 -54 43z" />
<glyph unicode="&#xbe;" horiz-adv-x="1609" d="M37 1350q0 27 37 43h22q45 0 99 4l104 8q49 4 84 4q76 0 86 -15.5t10 -25.5q0 -55 -129 -168q-35 -29 -102 -90q197 -12 289 -121q35 -43 35 -111q0 -243 -263 -395q-49 -29 -92 -51q-20 -10 -35 -10q-31 0 -59 22q-35 27 -35 45q0 20 35 21q12 0 33 -4q4 -2 10 -2h6 l66 41q174 115 221 227q20 47 20 100q0 86 -119 125q-49 14 -100 21l-88 10q-29 0 -55 29q-16 16 -17 35v10q4 10 39 37q88 68 205 178l-209 -19q-33 -2 -45 -2q-18 0 -35.5 18t-17.5 36zM399 6q0 27 17 45l33 80l81 215q176 434 377 864q59 127 101 172q35 39 84 60 q16 6 24 6q59 0 60 -68q0 -23 -15 -32l-30 -13q-72 -37 -119 -135q-260 -547 -404 -891q-94 -229 -94 -289.5t-43 -76.5q-8 -4 -22 -4q-23 0 -33 10l-17 41v16zM791 375q0 20 51 65q61 53 147 174q33 45 66 119q49 104 59 122.5t33 53.5q12 12 27 13q23 0 38 -24t15 -48 q0 -20 -8 -33q-27 -41 -136 -237q-39 -70 -114 -146q84 16 254 37q8 63 26 191l13 79q8 59 38 72h9q23 0 41 -20.5t18 -42.5v-11q0 -14 -12 -67q-23 -92 -35 -201q51 -2 156 -16q43 -10 43 -37q0 -35 -37 -35h-4q-43 6 -103 6h-35q-16 0 -32 -2l-33 -248q-14 -109 -14 -137 v-4q16 -29 16 -61q0 -55 -45 -56q-16 0 -31 6q-55 16 -55 70q0 25 8 43q4 10 21 123l16 119q8 66 18 133q-100 -18 -299 -49q-35 -6 -57 -7q-63 1 -63 56z" />
<glyph unicode="&#xbf;" horiz-adv-x="1161" d="M55 -182q0 178 205 370q133 127 377 267q205 115 205 112v8q0 55 -33 119q-33 53 -64 109q-23 39 -34 94q-2 8 -2 29q0 90 65 90q10 0 17 -2q55 -12 55 -62q0 -10 -4 -27.5t-4 -23.5v-4q12 -43 56 -124t57.5 -128t13.5 -119v-20q0 -10 -2 -21q-113 -39 -299 -135 q-170 -90 -320 -223q-123 -109 -156 -199q-16 -45 -16 -86q0 -102 78 -131q55 -20 133 -20q158 0 319 57q172 61 203 125q27 53 80 53q39 0 49 -35q2 -4 2 -10q0 -47 -106 -119q-88 -55 -240 -118q-139 -57 -307 -58q-291 0 -322 170q-6 33 -6 62zM700 1329v2q0 31 24 62.5 t52 31.5q72 -2 72 -77v-5q0 -76 -64 -83h-8q-76 -1 -76 69z" />
<glyph unicode="&#xc0;" horiz-adv-x="1247" d="M49 63q0 33 27 115q16 51 53 144q-18 2 -31 10q-31 14 -30 57v14q0 6 4 17q8 27 57 45q10 2 64 16l419 918q31 66 78 65q39 0 53 -78q2 -35 25 -155l47 -187l96 -391l287 86q10 4 16 6q27 6 37 7q43 0 49 -47v-7q0 -66 -73 -65q-18 0 -31 6l-264 -78l137 -584 q14 -12 23 -22q25 -25 24 -51q0 -33 -41 -56q-8 -4 -20 -4q-27 0 -55.5 21.5t-28.5 48.5q0 4 2 6l-146 606l-118 -34l-111 -35q-133 -41 -340 -119q-25 -49 -68 -150q-18 -51 -26 -129q-6 -43 -60 -43q-39 0 -53 35q-2 4 -2 12zM319 502q154 29 293 63l101 27q45 10 92 26 l-76 293q-25 90 -82 269l-63 -119l-58 -111l-53 -106l-49 -105q-27 -53 -51 -112zM367 1987q0 41 47 41q14 0 39 -7q14 -6 63 -59q109 -123 275 -276q43 -41 71 -56q4 -2 10 -2h19q23 0 39 -28.5t16 -57.5q0 -45 -39 -45q-29 0 -78 35q-203 145 -387 342q-43 43 -65 76 q-10 14 -10 37z" />
<glyph unicode="&#xc1;" horiz-adv-x="1247" d="M49 63q0 33 27 115q16 51 53 144q-18 2 -31 10q-31 14 -30 57v14q0 6 4 17q8 27 57 45q10 2 64 16l419 918q31 66 78 65q39 0 53 -78q2 -35 25 -155l47 -187l96 -391l287 86q10 4 16 6q27 6 37 7q43 0 49 -47v-7q0 -66 -73 -65q-18 0 -31 6l-264 -78l137 -584 q14 -12 23 -22q25 -25 24 -51q0 -33 -41 -56q-8 -4 -20 -4q-27 0 -55.5 21.5t-28.5 48.5q0 4 2 6l-146 606l-118 -34l-111 -35q-133 -41 -340 -119q-25 -49 -68 -150q-18 -51 -26 -129q-6 -43 -60 -43q-39 0 -53 35q-2 4 -2 12zM319 502q154 29 293 63l101 27q45 10 92 26 l-76 293q-25 90 -82 269l-63 -119l-58 -111l-53 -106l-49 -105q-27 -53 -51 -112zM516 1563q0 10 2 16q8 49 147.5 265t225.5 298q16 16 43 17q41 0 41 -56v-12q-2 -8 -2 -12q-2 -16 -53 -72q-63 -72 -144 -184l-90 -125q-35 -51 -45 -80v-6q0 -4 2 -13.5t2 -13.5 q0 -16 -24 -39q-35 -25 -64 -24q-41 0 -41 41z" />
<glyph unicode="&#xc2;" horiz-adv-x="1247" d="M49 63q0 33 27 115q16 51 53 144q-18 2 -31 10q-31 14 -30 57v14q0 6 4 17q8 27 57 45q10 2 64 16l419 918q31 66 78 65q39 0 53 -78q2 -35 25 -155l47 -187l96 -391l287 86q10 4 16 6q27 6 37 7q43 0 49 -47v-7q0 -66 -73 -65q-18 0 -31 6l-264 -78l137 -584 q14 -12 23 -22q25 -25 24 -51q0 -33 -41 -56q-8 -4 -20 -4q-27 0 -55.5 21.5t-28.5 48.5q0 4 2 6l-146 606l-118 -34l-111 -35q-133 -41 -340 -119q-25 -49 -68 -150q-18 -51 -26 -129q-6 -43 -60 -43q-39 0 -53 35q-2 4 -2 12zM319 502q154 29 293 63l101 27q45 10 92 26 l-76 293q-25 90 -82 269l-63 -119l-58 -111l-53 -106l-49 -105q-27 -53 -51 -112zM414 1524q0 27 26 47q57 45 127 108l123 111q18 10 47 33q6 6 19 6q14 0 24 -4q45 -10 49 -62q6 -72 17 -98q14 -45 57 -80q16 -12 17 -45q0 -51 -41 -51q-2 0 -7 2h-8q-51 14 -90 98 q-18 39 -43 82h-2q-14 0 -106 -74q-47 -39 -101 -98q-10 -47 -55 -47q-20 0 -36.5 24.5t-16.5 47.5z" />
<glyph unicode="&#xc3;" horiz-adv-x="1247" d="M49 63q0 33 27 115q16 51 53 144q-18 2 -31 10q-31 14 -30 57v14q0 6 4 17q8 27 57 45q10 2 64 16l419 918q31 66 78 65q39 0 53 -78q2 -35 25 -155l47 -187l96 -391l287 86q10 4 16 6q27 6 37 7q43 0 49 -47v-7q0 -66 -73 -65q-18 0 -31 6l-264 -78l137 -584 q14 -12 23 -22q25 -25 24 -51q0 -33 -41 -56q-8 -4 -20 -4q-27 0 -55.5 21.5t-28.5 48.5q0 4 2 6l-146 606l-118 -34l-111 -35q-133 -41 -340 -119q-25 -49 -68 -150q-18 -51 -26 -129q-6 -43 -60 -43q-39 0 -53 35q-2 4 -2 12zM319 502q154 29 293 63l101 27q45 10 92 26 l-76 293q-25 90 -82 269l-63 -119l-58 -111l-53 -106l-49 -105q-27 -53 -51 -112zM342 1524q0 45 74 129q145 168 291 168q49 0 88 -61.5t55 -149.5q6 -33 31 -33q33 0 112 82q111 115 154 115h4q57 -8 57 -58q0 -41 -12 -37h-2q-21 0 -68 -30q-31 -20 -98 -86 q-57 -57 -102 -81t-80 -24q-49 0 -68 39q-8 39 -26 117q-10 39 -21 57q-16 33 -41 37h-10q-49 0 -125 -53t-111 -111q-37 -63 -57 -63q-45 0 -45 43z" />
<glyph unicode="&#xc4;" horiz-adv-x="1247" d="M49 63q0 33 27 115q16 51 53 144q-18 2 -31 10q-31 14 -30 57v14q0 6 4 17q8 27 57 45q10 2 64 16l419 918q31 66 78 65q39 0 53 -78q2 -35 25 -155l47 -187l96 -391l287 86q10 4 16 6q27 6 37 7q43 0 49 -47v-7q0 -66 -73 -65q-18 0 -31 6l-264 -78l137 -584 q14 -12 23 -22q25 -25 24 -51q0 -33 -41 -56q-8 -4 -20 -4q-27 0 -55.5 21.5t-28.5 48.5q0 4 2 6l-146 606l-118 -34l-111 -35q-133 -41 -340 -119q-25 -49 -68 -150q-18 -51 -26 -129q-6 -43 -60 -43q-39 0 -53 35q-2 4 -2 12zM319 502q154 29 293 63l101 27q45 10 92 26 l-76 293q-25 90 -82 269l-63 -119l-58 -111l-53 -106l-49 -105q-27 -53 -51 -112zM520 1618q0 43 8 100l9 58q14 98 57 98q10 0 27 -6q35 -20 34 -49q0 -10 -22 -78q-18 -55 -19 -137q0 -20 -12 -56q-14 -16 -33 -16q-35 0 -43 29q-6 22 -6 57zM791 1577q0 49 16 90l33 80 l24 78q8 27 43 26q53 0 54 -59v-8q-2 -14 -21 -49q-45 -92 -61 -187q-6 -41 -52 -41q-12 0 -20 6q-16 17 -16 64z" />
<glyph unicode="&#xc5;" horiz-adv-x="1247" d="M49 63q0 33 27 115q16 51 53 144q-18 2 -31 10q-31 14 -30 57v14q0 6 4 17q8 27 57 45q10 2 64 16l419 918q31 66 78 65q39 0 53 -78q2 -35 25 -155l47 -187l96 -391l287 86q10 4 16 6q27 6 37 7q43 0 49 -47v-7q0 -66 -73 -65q-18 0 -31 6l-264 -78l137 -584 q14 -12 23 -22q25 -25 24 -51q0 -33 -41 -56q-8 -4 -20 -4q-27 0 -55.5 21.5t-28.5 48.5q0 4 2 6l-146 606l-118 -34l-111 -35q-133 -41 -340 -119q-25 -49 -68 -150q-18 -51 -26 -129q-6 -43 -60 -43q-39 0 -53 35q-2 4 -2 12zM319 502q154 29 293 63l101 27q45 10 92 26 l-76 293q-25 90 -82 269l-63 -119l-58 -111l-53 -106l-49 -105q-27 -53 -51 -112zM575 1679q0 57 29 124t76 99.5t113 32.5q80 0 133 -43q27 -23 26 -65q0 -66 -65 -139q-106 -121 -199 -121q-74 0 -98 47q-15 26 -15 65zM668 1690q0 -37 26 -37h11q43 8 114 80q47 47 47 79 q0 10 -4 15q-25 18 -57 18q-59 0 -96 -37q-12 -12 -26.5 -49.5t-14.5 -68.5z" />
<glyph unicode="&#xc6;" horiz-adv-x="1677" d="M6 16q0 29 25 113q20 72 53 141l25 54q-6 12 -7 24q0 14 3.5 22.5t33.5 24.5l322 713q-23 16 -23 49q0 25 13 41q6 10 61 27l49 108q29 63 76 64q39 0 53 -76q0 -8 3 -22.5t3 -22.5q8 2 146 57l106 41q86 35 156 58q184 61 256 61q23 0 43 -4q29 -12 29 -41 q0 -41 -54 -66q-23 -10 -47 -10q-29 0 -49 14q-121 -33 -287 -100l-280 -117q10 -59 22 -94q4 -12 15 -49l51 -219l35 -145l225 83q125 47 379 129q74 20 104 21h10q49 -12 50 -43q0 -20 -29 -43l-94 -16q-6 0 -58 -19l-135 -51l-428 -168l37 -147l64 -273l24 -104 q53 23 148 57l247 92l306 107q78 25 108 24q2 0 29 -12q53 -25 53 -45q0 -4 -4 -9t-59 -18q-119 -29 -390 -137q-127 -51 -243 -104l-154 -70q31 -31 31 -59q0 -31 -41 -54q-12 -4 -21 -4q-27 0 -54.5 21.5t-27.5 48.5v4q-61 20 -61 66q0 20 18 36q4 4 17 13 q-29 111 -92 383l-35 143l-277 -119q-178 -76 -278 -106q-35 -80 -78 -209l-8 -57q-8 -37 -27.5 -45.5t-34.5 -8.5q-37 0 -51 35q-2 4 -2 12zM274 453l218 82l243 88l-63 247q-39 147 -76 246l-127 -244q-29 -59 -45 -88q-18 -35 -62 -133z" />
<glyph unicode="&#xc7;" horiz-adv-x="1492" d="M25 385q0 180 143 403q117 180 309 351q205 182 395 258q68 27 109 26q45 0 59 -30q8 -16 9 -37q0 -43 -72 -62q-113 -31 -186 -73q-289 -168 -502 -469q-150 -213 -150 -373q0 -135 113 -209q63 -41 168 -41q150 0 399 90q170 59 383 168q68 31 197 100q82 35 104 35 q29 0 49.5 -19.5t20.5 -47.5q0 -39 -60 -60q-23 -8 -59 -14q-29 -6 -225 -96q-244 -113 -398 -168q-6 -25 -6 -60q0 -59 29 -92l59 -65q31 -41 31 -84q0 -23 -10 -56q-25 -74 -111 -159q-78 -74 -146.5 -102.5t-76.5 -28.5q-16 0 -27 8q-25 12 -24 43q0 33 29 51q8 4 14 4 q4 0 12 -2h14q45 0 111 55q115 96 115 172q0 31 -25 54q-98 88 -100 178q0 16 -6 45q-188 -55 -316 -55q-143 0 -223 63q-149 119 -149 299z" />
<glyph unicode="&#xc8;" horiz-adv-x="1327" d="M90 92q0 78 10 144q4 25 13 184q2 66 6 143l6 152q4 123 4 252q0 63 -2 72.5t-21 52.5q-12 33 -12 55t17 33q37 25 69 24q29 0 51 -14l402 149l98 37l76 29q31 10 39 14q59 20 188 56q39 8 72 8q74 0 74 -45q0 -43 -54 -68q-25 -10 -49 -10q-29 0 -49 14 q-168 -47 -317 -100q-76 -29 -129 -57q-6 -4 -150 -68q-74 -33 -180 -74v-20q2 -16 2 -23q2 -43 2 -86q0 -29 -6 -88t-6 -88q0 -43 -8 -100l278 116q125 53 211 82q106 37 133 37h6q49 -10 49 -43q0 -23 -20.5 -43t-42 -19t-43.5 -14l-211 -79q-217 -84 -365 -179 q-6 -63 -14 -188l-6 -66v-30q0 -25 2 -73t2 -73q137 74 385 183l318 127q123 47 370 133q102 29 148 28q20 0 30 -6q55 -14 56 -45q0 -4 -2 -7t-115 -32q-168 -45 -440 -162q-303 -131 -566 -266q-195 -102 -204 -102h-5q-29 10 -63 59q-29 39 -35 62v10q-2 8 -2 12z M244 1946q0 41 47 41q14 0 39 -7q14 -6 63 -59q109 -123 275 -276q43 -41 71 -56q4 -2 11 -2h18q23 0 39 -28.5t16 -57.5q0 -45 -39 -45q-29 0 -77 35q-203 145 -388 342q-43 43 -65 76q-10 14 -10 37z" />
<glyph unicode="&#xc9;" horiz-adv-x="1327" d="M90 92q0 78 10 144q4 25 13 184q2 66 6 143l6 152q4 123 4 252q0 63 -2 72.5t-21 52.5q-12 33 -12 55t17 33q37 25 69 24q29 0 51 -14l402 149l98 37l76 29q31 10 39 14q59 20 188 56q39 8 72 8q74 0 74 -45q0 -43 -54 -68q-25 -10 -49 -10q-29 0 -49 14 q-168 -47 -317 -100q-76 -29 -129 -57q-6 -4 -150 -68q-74 -33 -180 -74v-20q2 -16 2 -23q2 -43 2 -86q0 -29 -6 -88t-6 -88q0 -43 -8 -100l278 116q125 53 211 82q106 37 133 37h6q49 -10 49 -43q0 -23 -20.5 -43t-42 -19t-43.5 -14l-211 -79q-217 -84 -365 -179 q-6 -63 -14 -188l-6 -66v-30q0 -25 2 -73t2 -73q137 74 385 183l318 127q123 47 370 133q102 29 148 28q20 0 30 -6q55 -14 56 -45q0 -4 -2 -7t-115 -32q-168 -45 -440 -162q-303 -131 -566 -266q-195 -102 -204 -102h-5q-29 10 -63 59q-29 39 -35 62v10q-2 8 -2 12z M432 1399q0 10 2 16q8 49 147.5 265t225.5 298q16 16 43 17q41 0 41 -56v-12q-2 -8 -2 -12q-2 -16 -53 -72q-63 -72 -144 -184l-90 -125q-35 -51 -45 -80v-6q0 -4 2 -13.5t2 -13.5q0 -16 -24 -39q-35 -25 -64 -24q-41 0 -41 41z" />
<glyph unicode="&#xca;" horiz-adv-x="1327" d="M90 92q0 78 10 144q4 25 13 184q2 66 6 143l6 152q4 123 4 252q0 63 -2 72.5t-21 52.5q-12 33 -12 55t17 33q37 25 69 24q29 0 51 -14l402 149l98 37l76 29q31 10 39 14q59 20 188 56q39 8 72 8q74 0 74 -45q0 -43 -54 -68q-25 -10 -49 -10q-29 0 -49 14 q-168 -47 -317 -100q-76 -29 -129 -57q-6 -4 -150 -68q-74 -33 -180 -74v-20q2 -16 2 -23q2 -43 2 -86q0 -29 -6 -88t-6 -88q0 -43 -8 -100l278 116q125 53 211 82q106 37 133 37h6q49 -10 49 -43q0 -23 -20.5 -43t-42 -19t-43.5 -14l-211 -79q-217 -84 -365 -179 q-6 -63 -14 -188l-6 -66v-30q0 -25 2 -73t2 -73q137 74 385 183l318 127q123 47 370 133q102 29 148 28q20 0 30 -6q55 -14 56 -45q0 -4 -2 -7t-115 -32q-168 -45 -440 -162q-303 -131 -566 -266q-195 -102 -204 -102h-5q-29 10 -63 59q-29 39 -35 62v10q-2 8 -2 12z M362 1569q0 27 27 47q57 45 127 108l123 111q18 10 47 33q6 6 19 6q14 0 24 -4q45 -10 49 -62q6 -72 17 -98q14 -45 57 -80q16 -12 16 -45q0 -51 -41 -51q-2 0 -6 2h-8q-51 14 -90 98q-18 39 -43 82h-2q-14 0 -107 -74q-47 -39 -100 -98q-10 -47 -55 -47q-20 0 -37 24.5 t-17 47.5z" />
<glyph unicode="&#xcb;" horiz-adv-x="1327" d="M90 92q0 78 10 144q4 25 13 184q2 66 6 143l6 152q4 123 4 252q0 63 -2 72.5t-21 52.5q-12 33 -12 55t17 33q37 25 69 24q29 0 51 -14l402 149l98 37l76 29q31 10 39 14q59 20 188 56q39 8 72 8q74 0 74 -45q0 -43 -54 -68q-25 -10 -49 -10q-29 0 -49 14 q-168 -47 -317 -100q-76 -29 -129 -57q-6 -4 -150 -68q-74 -33 -180 -74v-20q2 -16 2 -23q2 -43 2 -86q0 -29 -6 -88t-6 -88q0 -43 -8 -100l278 116q125 53 211 82q106 37 133 37h6q49 -10 49 -43q0 -23 -20.5 -43t-42 -19t-43.5 -14l-211 -79q-217 -84 -365 -179 q-6 -63 -14 -188l-6 -66v-30q0 -25 2 -73t2 -73q137 74 385 183l318 127q123 47 370 133q102 29 148 28q20 0 30 -6q55 -14 56 -45q0 -4 -2 -7t-115 -32q-168 -45 -440 -162q-303 -131 -566 -266q-195 -102 -204 -102h-5q-29 10 -63 59q-29 39 -35 62v10q-2 8 -2 12z M467 1614q0 43 8 100l8 58q14 98 58 98q10 0 26 -6q35 -20 35 -49q0 -10 -22 -78q-18 -55 -19 -138q0 -20 -12 -55q-14 -16 -33 -16q-35 0 -43 28q-6 23 -6 58zM737 1573q0 49 17 90l32 80l25 78q8 27 43 26q53 0 53 -59v-8q-2 -14 -20 -49q-45 -92 -62 -187q-6 -41 -51 -41 q-12 0 -20 6q-17 17 -17 64z" />
<glyph unicode="&#xcc;" d="M-18 1907q0 41 47 41q14 0 39 -6q14 -6 63 -60q109 -123 275 -276q43 -41 71 -56q4 -2 10 -2h19q23 0 39 -28.5t16 -57.5q0 -45 -39 -45q-29 0 -78 35q-203 145 -387 342q-43 43 -65 76q-10 14 -10 37zM172 162q0 184 21 565q4 100 10 184l8 144q2 33 6 78q6 63 21 192 q14 86 63 86q12 0 39 -8t27 -96q0 -43 -7 -99l-12 -116q-12 -84 -30.5 -254t-22.5 -270.5t-4 -159.5v-123q0 -80 -6 -158q16 -23 30 -61q6 -16 7 -33q0 -31 -26 -47.5t-54 -16.5q-43 0 -62 41q-8 25 -8 152z" />
<glyph unicode="&#xcd;" d="M119 1475q0 10 2 16q8 49 147.5 265t225.5 298q16 16 43 17q41 0 41 -56v-12l-3 -12q-2 -16 -53 -72q-63 -72 -143 -184l-90 -125q-35 -51 -45 -80v-6q0 -4 2 -13.5t2 -13.5q0 -16 -25 -39q-35 -25 -63 -24q-41 0 -41 41zM172 162q0 184 21 565q4 100 10 184l8 144 q2 33 6 78q6 63 21 192q14 86 63 86q12 0 39 -8t27 -96q0 -43 -7 -99l-12 -116q-12 -84 -30.5 -254t-22.5 -270.5t-4 -159.5v-123q0 -80 -6 -158q16 -23 30 -61q6 -16 7 -33q0 -31 -26 -47.5t-54 -16.5q-43 0 -62 41q-8 25 -8 152z" />
<glyph unicode="&#xce;" d="M49 1509q0 27 27 47q57 45 127 109l123 111q18 10 47 32q6 6 18 7q14 0 25 -5q45 -10 49 -61q6 -72 16 -98q14 -45 58 -80q16 -12 16 -45q0 -51 -41 -51q-2 0 -6 2h-8q-51 14 -90 98q-18 39 -43 82h-2q-14 0 -107 -74q-47 -39 -100 -98q-10 -47 -56 -47q-20 0 -36.5 24 t-16.5 47zM172 162q0 184 21 565q4 100 10 184l8 144q2 33 6 78q6 63 21 192q14 86 63 86q12 0 39 -8t27 -96q0 -43 -7 -99l-12 -116q-12 -84 -30.5 -254t-22.5 -270.5t-4 -159.5v-123q0 -80 -6 -158q16 -23 30 -61q6 -16 7 -33q0 -31 -26 -47.5t-54 -16.5q-43 0 -62 41 q-8 25 -8 152z" />
<glyph unicode="&#xcf;" d="M137 1608q0 43 8 100l9 57q14 98 57 99q10 0 27 -6q35 -20 34 -50q0 -10 -22 -77q-18 -55 -19 -138q0 -20 -12 -55q-14 -16 -33 -16q-35 0 -43 28q-6 23 -6 58zM172 162q0 184 21 565q4 100 10 184l8 144q2 33 6 78q6 63 21 192q14 86 63 86q12 0 39 -8t27 -96 q0 -43 -7 -99l-12 -116q-12 -84 -30.5 -254t-22.5 -270.5t-4 -159.5v-123q0 -80 -6 -158q16 -23 30 -61q6 -16 7 -33q0 -31 -26 -47.5t-54 -16.5q-43 0 -62 41q-8 25 -8 152zM408 1567q0 49 16 90l33 80l24 78q8 27 43 26q53 0 54 -59v-8q-2 -14 -21 -50q-45 -92 -61 -186 q-6 -41 -52 -41q-12 0 -20 6q-16 17 -16 64z" />
<glyph unicode="&#xd0;" horiz-adv-x="1357" d="M-49 625q0 27 33 59q10 8 57 16.5t147 30.5q4 76 11 170l12 180q2 23 12 199l-153 -53h-9q-27 0 -50 21.5t-23 47.5q0 43 104 76q193 63 391 64h31q342 0 609.5 -143.5t267.5 -340.5q0 -166 -187 -360q-207 -213 -645 -479l-203 -121q-2 0 -2 -6v-15q0 -61 -90 -67 q-2 0 -26 16h-2q-2 2 -4.5 2t-6.5 -2h-6q-29 0 -29 70q0 16 5 33q4 10 6 18l8 33l-12 176q-12 201 -13 338v33q-106 -31 -174 -39h-4q-55 0 -55 43zM295 500q0 -195 37 -387q299 164 555 354q158 119 272 250q109 129 109 227q0 164 -248 283q-221 106 -465 106h-8 q-88 0 -148 -10q-25 -4 -39 -10q-27 -221 -53 -547q45 12 133 49q2 0 17 27q10 16 45 16q82 0 82 -49q0 -37 -115 -88q-76 -33 -168 -64q-6 -73 -6 -157z" />
<glyph unicode="&#xd1;" horiz-adv-x="1253" d="M104 10q0 162 27 461q12 166 27 283q10 74 24 223q2 104 11 315q4 63 16 80q20 37 55 37q31 0 47 -29q43 -74 86 -194l72 -203q45 -119 190 -350q94 -150 164 -223q37 -41 99 -80q16 -10 39 -15l-5 168q-2 80 -2 166v182q0 53 4.5 161t4.5 161v33q0 33 -5.5 95t-5.5 93 q0 70 64 70q39 0 57 -70q14 -57 14 -166q0 -53 -2 -108l-6 -109q-10 -154 -10 -157q0 -45 -6 -136.5t-6 -136.5q0 -133 20 -287q4 -12 10 -22q10 -25 11 -41q0 -47 -17 -68q0 -6 1 -13t3 -17v-19q0 -84 -53 -84h-8q-61 6 -61 92q0 33 6 58q-68 45 -109 69q-57 35 -174 195 q-82 113 -182 272q-86 137 -195 381q-43 -274 -71 -526q-20 -172 -29 -279q-4 -61 -4 -100q0 -49 8 -57q18 -23 18 -101q0 -123 -63 -123q-20 0 -51 19q-13 8 -13 100zM252 1561q0 45 74 129q145 168 290 168q49 0 88 -61.5t56 -149.5q6 -33 31 -33q33 0 112 82 q111 115 154 114h4q57 -8 57 -57q0 -41 -12 -37h-3q-21 0 -67 -30q-31 -20 -98 -87q-57 -57 -102 -80.5t-80 -23.5q-49 0 -68 39q-8 39 -26 117q-10 39 -21 57q-16 33 -41 37h-10q-49 0 -125 -53.5t-111 -110.5q-37 -63 -57 -63q-45 0 -45 43z" />
<glyph unicode="&#xd2;" horiz-adv-x="1425" d="M31 375q0 193 110 428q98 211 259 374.5t300 163.5h11q135 0 194 -67q532 -100 533 -453v-24q0 -61 -52 -156q-98 -178 -311 -352q-219 -180 -450 -258q-117 -41 -224 -41q-236 0 -323 176q-47 92 -47 209zM145 383q0 -176 107 -233q76 -41 170 -41q178 0 397 131 q319 188 455 432q43 78 43 129v14q0 147 -117 236q-127 96 -354 110q-53 2 -84 2h-29q-10 -4 -48 -33.5t-67 -29.5h-8q-51 10 -65 41q-4 6 -6 6l-2 -2q-162 -131 -273 -340q-119 -223 -119 -422zM471 1890q0 41 47 41q14 0 39 -6q14 -6 64 -59q109 -123 274 -277 q43 -41 72 -55q4 -2 10 -2h18q23 0 39.5 -28.5t16.5 -57.5q0 -45 -39 -45q-29 0 -78 35q-203 145 -387 342q-43 43 -66 75q-10 14 -10 37z" />
<glyph unicode="&#xd3;" horiz-adv-x="1425" d="M31 375q0 193 110 428q98 211 259 374.5t300 163.5h11q135 0 194 -67q532 -100 533 -453v-24q0 -61 -52 -156q-98 -178 -311 -352q-219 -180 -450 -258q-117 -41 -224 -41q-236 0 -323 176q-47 92 -47 209zM145 383q0 -176 107 -233q76 -41 170 -41q178 0 397 131 q319 188 455 432q43 78 43 129v14q0 147 -117 236q-127 96 -354 110q-53 2 -84 2h-29q-10 -4 -48 -33.5t-67 -29.5h-8q-51 10 -65 41q-4 6 -6 6l-2 -2q-162 -131 -273 -340q-119 -223 -119 -422zM723 1464q0 10 2 17q8 49 147.5 265t225.5 298q16 16 43 16q41 0 41 -55v-12 q-2 -8 -2 -13q-2 -16 -54 -71q-63 -72 -143 -185l-90 -125q-35 -51 -45 -79v-7q0 -4 2 -13t2 -13q0 -16 -25 -39q-35 -25 -63 -25q-41 0 -41 41z" />
<glyph unicode="&#xd4;" horiz-adv-x="1425" d="M31 375q0 193 110 428q98 211 259 374.5t300 163.5h11q135 0 194 -67q532 -100 533 -453v-24q0 -61 -52 -156q-98 -178 -311 -352q-219 -180 -450 -258q-117 -41 -224 -41q-236 0 -323 176q-47 92 -47 209zM145 383q0 -176 107 -233q76 -41 170 -41q178 0 397 131 q319 188 455 432q43 78 43 129v14q0 147 -117 236q-127 96 -354 110q-53 2 -84 2h-29q-10 -4 -48 -33.5t-67 -29.5h-8q-51 10 -65 41q-4 6 -6 6l-2 -2q-162 -131 -273 -340q-119 -223 -119 -422zM524 1520q0 27 27 47q57 45 127 108l123 111q18 10 47 33q6 6 18 6 q14 0 25 -4q45 -10 49 -62q6 -72 16 -98q14 -45 58 -80q16 -12 16 -45q0 -51 -41 -51q-2 0 -6 2h-8q-51 14 -90 98q-18 39 -43 82h-2q-14 0 -107 -74q-47 -39 -100 -98q-10 -47 -55 -47q-20 0 -37 24.5t-17 47.5z" />
<glyph unicode="&#xd5;" horiz-adv-x="1425" d="M31 375q0 193 110 428q98 211 259 374.5t300 163.5h11q135 0 194 -67q532 -100 533 -453v-24q0 -61 -52 -156q-98 -178 -311 -352q-219 -180 -450 -258q-117 -41 -224 -41q-236 0 -323 176q-47 92 -47 209zM145 383q0 -176 107 -233q76 -41 170 -41q178 0 397 131 q319 188 455 432q43 78 43 129v14q0 147 -117 236q-127 96 -354 110q-53 2 -84 2h-29q-10 -4 -48 -33.5t-67 -29.5h-8q-51 10 -65 41q-4 6 -6 6l-2 -2q-162 -131 -273 -340q-119 -223 -119 -422zM436 1483q0 45 74 129q145 168 291 168q49 0 88 -61.5t55 -149.5 q6 -33 31 -33q33 0 112 82q111 115 154 115h4q57 -8 58 -58q0 -41 -13 -37q-1 0 -2 1q-21 0 -67 -31q-31 -20 -99 -86q-57 -57 -102 -81t-80 -24q-49 0 -68 39q-8 39 -26 117q-10 39 -21 57q-16 33 -41 37h-10q-49 0 -125 -53t-110 -111q-37 -63 -58 -63q-45 0 -45 43z" />
<glyph unicode="&#xd6;" horiz-adv-x="1425" d="M31 375q0 193 110 428q98 211 259 374.5t300 163.5h11q135 0 194 -67q532 -100 533 -453v-24q0 -61 -52 -156q-98 -178 -311 -352q-219 -180 -450 -258q-117 -41 -224 -41q-236 0 -323 176q-47 92 -47 209zM145 383q0 -176 107 -233q76 -41 170 -41q178 0 397 131 q319 188 455 432q43 78 43 129v14q0 147 -117 236q-127 96 -354 110q-53 2 -84 2h-29q-10 -4 -48 -33.5t-67 -29.5h-8q-51 10 -65 41q-4 6 -6 6l-2 -2q-162 -131 -273 -340q-119 -223 -119 -422zM696 1579q0 43 9 100l8 58q14 98 57 98q10 0 27 -6q35 -20 34 -49 q0 -10 -22 -78q-18 -55 -18 -137q0 -20 -13 -56q-14 -16 -33 -16q-35 0 -43 29q-6 22 -6 57zM967 1538q0 49 16 90l33 80l24 78q8 27 43 26q53 0 54 -59v-8q-2 -14 -21 -49q-45 -92 -61 -187q-6 -41 -51 -41q-12 0 -21 7q-16 16 -16 63z" />
<glyph unicode="&#xd7;" horiz-adv-x="995" d="M123 16q0 33 27 47q18 10 260 345q-23 37 -56 84l-121 176l-34 51q-18 29 -19 43q0 33 62 33q49 0 133 -127q31 -59 104 -164l139 188q33 43 87 92q18 4 24 4q41 0 49 -53q0 -6 -73 -106l-78 -103l-88 -114l112 -176l51 -82q35 -57 68 -91q20 -23 21 -45v-10 q0 -25 -66 -24h-20q-68 10 -82 86q-2 12 -58 100l-49 76l-47 69l-135 -184q-49 -68 -49 -76v-12q0 -80 -95 -80h-10q-57 0 -57 53z" />
<glyph unicode="&#xd8;" horiz-adv-x="1425" d="M31 375q0 193 110 428q98 211 259 374.5t300 163.5h11q135 0 194 -67q59 -10 107 -25q37 47 116 133q31 27 60 27q31 0 51 -43q2 -2 2 -8q0 -23 -100 -150q297 -119 297 -387v-24q0 -61 -52 -156q-98 -178 -311 -352q-219 -180 -450 -258q-117 -41 -224 -41 q-41 0 -102 10q-25 -53 -25 -82v-10q0 -29 -26.5 -60.5t-54.5 -31.5q-27 0 -44.5 28.5t-17.5 57.5q0 27 45 116l8 15q2 6 6 12q-159 99 -159 330zM145 383q0 -174 101 -231q39 68 217 333l100 148l174 250l62 84l137 184q-84 12 -174 12h-29q-10 -4 -48 -33q-39 -30 -67 -30 h-8q-51 10 -65 41q-4 6 -6 6l-2 -2q-162 -131 -273 -340q-119 -223 -119 -422zM356 115q33 -6 66 -6q178 0 397 131q319 188 455 432q43 78 43 129v14q0 219 -250 303q-172 -217 -272 -356l-78 -109q-160 -219 -246 -354q-66 -100 -115 -184z" />
<glyph unicode="&#xd9;" horiz-adv-x="1351" d="M100 995q0 117 6 242q4 100 89 100h10q33 -4 42 -18t9 -51q0 -14 -14 -230q-12 -158 -13 -348v-6q0 -193 82 -381q86 -203 195 -203h8q227 23 416 285q145 201 246 506q84 256 84 366v7q0 18 -4.5 53t-4.5 53q0 82 54 82h8q88 0 88 -70l-15 -102q-59 -418 -270 -805 q-164 -297 -393 -424q-119 -64 -254 -63h-8q-145 2 -252 262q-102 252 -107 536zM475 1868q0 41 47 41q14 0 39 -6q14 -6 64 -60q109 -123 274 -276q43 -41 72 -56q4 -2 10 -2h18q23 0 39.5 -28.5t16.5 -57.5q0 -45 -39 -45q-29 0 -78 35q-203 145 -387 342q-43 43 -66 76 q-10 14 -10 37z" />
<glyph unicode="&#xda;" horiz-adv-x="1351" d="M100 995q0 117 6 242q4 100 89 100h10q33 -4 42 -18t9 -51q0 -14 -14 -230q-12 -158 -13 -348v-6q0 -193 82 -381q86 -203 195 -203h8q227 23 416 285q145 201 246 506q84 256 84 366v7q0 18 -4.5 53t-4.5 53q0 82 54 82h8q88 0 88 -70l-15 -102q-59 -418 -270 -805 q-164 -297 -393 -424q-119 -64 -254 -63h-8q-145 2 -252 262q-102 252 -107 536zM635 1491q0 10 2 16q8 49 147.5 265.5t225.5 298.5q16 16 43 16q41 0 41 -55v-13q-2 -8 -2 -12q-2 -16 -54 -72q-63 -72 -143 -184l-90 -125q-35 -51 -45 -80v-6q0 -4 2 -13t2 -14 q0 -16 -25 -38q-35 -25 -63 -25q-41 0 -41 41z" />
<glyph unicode="&#xdb;" horiz-adv-x="1351" d="M100 995q0 117 6 242q4 100 89 100h10q33 -4 42 -18t9 -51q0 -14 -14 -230q-12 -158 -13 -348v-6q0 -193 82 -381q86 -203 195 -203h8q227 23 416 285q145 201 246 506q84 256 84 366v7q0 18 -4.5 53t-4.5 53q0 82 54 82h8q88 0 88 -70l-15 -102q-59 -418 -270 -805 q-164 -297 -393 -424q-119 -64 -254 -63h-8q-145 2 -252 262q-102 252 -107 536zM524 1550q0 27 27 47q57 45 127 109l123 111q18 10 47 32q6 6 18 6q14 0 25 -4q45 -10 49 -61q6 -72 16 -98q14 -45 58 -80q16 -12 16 -45q0 -51 -41 -51q-2 0 -6 2h-8q-51 14 -90 98 q-18 39 -43 82h-2q-14 0 -107 -74q-47 -39 -100 -98q-10 -47 -55 -47q-20 0 -37 24t-17 47z" />
<glyph unicode="&#xdc;" horiz-adv-x="1351" d="M100 995q0 117 6 242q4 100 89 100h10q33 -4 42 -18t9 -51q0 -14 -14 -230q-12 -158 -13 -348v-6q0 -193 82 -381q86 -203 195 -203h8q227 23 416 285q145 201 246 506q84 256 84 366v7q0 18 -4.5 53t-4.5 53q0 82 54 82h8q88 0 88 -70l-15 -102q-59 -418 -270 -805 q-164 -297 -393 -424q-119 -64 -254 -63h-8q-145 2 -252 262q-102 252 -107 536zM584 1569q0 43 8 100l8 57q14 98 57 99q10 0 27 -6q35 -20 35 -50q0 -10 -23 -77q-18 -55 -18 -138q0 -20 -12 -55q-14 -16 -33 -16q-35 0 -43 28q-6 23 -6 58zM854 1528q0 49 16 90l33 80 l25 78q8 27 43 26q53 0 53 -59v-8q-2 -14 -20 -49q-45 -92 -62 -187q-6 -41 -51 -41q-12 0 -21 6q-16 17 -16 64z" />
<glyph unicode="&#xdd;" horiz-adv-x="1634" d="M61 762v2q0 25 41 55q4 2 33 45l154 230q100 147 153 184l47 41q33 29 52 29q55 0 55 -52q0 -23 -29 -47l-32 -28q-72 -59 -170 -209q-39 -57 -60 -92l-61 -101q211 -2 630 -18q55 -2 179 -10l204 -13q100 -6 179 -12l98 -8q35 -8 35 -43q0 -53 -49 -53h-2 q-137 0 -502 24.5t-703 24.5h-65l190 -265l94 -124q86 -117 93 -129q59 -88 59 -139.5t-41 -57.5h-12q-35 0 -49 37q-6 14 -17 67q-2 16 -112 170l-107 142l-106 139l-125 154q-54 26 -54 57z" />
<glyph unicode="&#xde;" horiz-adv-x="2863" d="M57 819q0 20 9 23q23 12 491 229l193 90q98 47 202 105q29 57 72 57q39 0 84 -66q10 -16 10 -26t-11 -17.5t-15 -15.5v-2q-2 -2 -2 -6q0 -33 30 -209l31 -164q115 4 211 4q119 0 520 -14q115 -4 356 -29q113 -12 259 -14q68 -2 112 -2h35q35 0 50.5 11t41.5 11 q53 0 66 -51q0 -4 2 -4v-6q0 -14 -21.5 -25.5l-39 -21.5t-87 -14.5t-157.5 -4.5q-90 0 -428 31q-90 8 -506 17l-396 12q14 -49 37 -150q16 -104 17 -243q0 -119 -9 -191l-10 -53q-8 -37 -20 -43q-18 -8 -37 -8q-47 0 -86 77q-10 16 -23 27q-330 258 -686 483 q-129 80 -205 123l-86 49q-2 4 -3 10.5t-1 20.5zM203 809l282 -164q59 -37 123 -82l203 -143l158 -113q84 -59 139 -102q2 37 2 71v68q0 141 -18 229q-33 158 -45 230l-35 184l-29 168z" />
<glyph unicode="&#xdf;" horiz-adv-x="1019" d="M6 1114q0 37 51 76l45 27q6 68 45 79q14 4 27 4q29 0 45 -40q348 111 567 110q45 0 95 -6q18 -4 28 -6q41 -18 41 -60q0 -35 -29.5 -87t-62.5 -87l-80 -77l-18 -15l-129 -117q-76 -74 -105 -135q-33 -70 -32 -112q0 -8 2 -15q14 -98 155 -143q49 -16 86 -31l80 -28 q125 -45 139 -144v-20q0 -109 -116 -242q-98 -113 -201 -176q-37 -23 -154 -74q-109 -47 -131 -63q-16 -8 -37 -8q-70 0 -69 65q0 63 71 78q51 4 152 22q115 37 236 150q143 133 143 252v14q-2 10 -2 14q-6 33 -117 70l-104 33q-213 66 -228 217v14q-2 10 -2 15 q0 121 117 258q49 57 107 106l102 90q119 104 119 140q0 8 -8.5 15t-49.5 7q-109 0 -322.5 -59.5t-240.5 -102.5q-14 -37 -18 -151q-4 -63 -4 -170v-88q0 -20 2 -103q6 -233 10 -344l10 -268l8 -238q0 -47 13 -137q2 -12 8 -37l16 -61q6 -23 6 -41q0 -63 -57 -64 q-55 0 -70.5 32t-15.5 89v31q0 18 4 39v47q0 55 -2 156l-16 497q-9 279 -9 455v260q0 23 3 39q-31 -6 -46 -6q-23 0 -53 41q-4 8 -4 14z" />
<glyph unicode="&#xe0;" horiz-adv-x="755" d="M68 125q0 104 73 205q86 119 193 119h12q125 0 195 -195q33 90 32 186q0 137 -67 265q-45 84 -137 83q-90 0 -150 -59q-14 -14 -15 -24.5t-18 -10.5q-59 0 -59 47v4q0 51 81 95.5t171 44.5q176 0 260 -207q37 -96 37 -234q0 -139 -39 -294q-35 -131 -49 -140 q-6 -8 -25 -8q-31 0 -43 16q-10 10 -14 29q-4 8 -4 19q-154 -102 -273 -103q-76 0 -118.5 45t-42.5 117zM147 1415q0 41 48 41q14 0 38 -6q14 -6 64 -59q109 -123 274 -277q43 -41 72 -55q4 -2 10 -2h19q23 0 39 -29t16 -57q0 -45 -39 -45q-29 0 -78 35q-203 145 -387 342 q-43 43 -65 75q-11 14 -11 37zM164 133q0 -51 20.5 -61.5t48.5 -10.5q68 0 156 56q45 29 82 57q-31 94 -72 145q-23 27 -47 27h-8q-135 -23 -170 -151q-10 -35 -10 -62z" />
<glyph unicode="&#xe1;" horiz-adv-x="755" d="M68 125q0 104 73 205q86 119 193 119h12q125 0 195 -195q33 90 32 186q0 137 -67 265q-45 84 -137 83q-90 0 -150 -59q-14 -14 -15 -24.5t-18 -10.5q-59 0 -59 47v4q0 51 81 95.5t171 44.5q176 0 260 -207q37 -96 37 -234q0 -139 -39 -294q-35 -131 -49 -140 q-6 -8 -25 -8q-31 0 -43 16q-10 10 -14 29q-4 8 -4 19q-154 -102 -273 -103q-76 0 -118.5 45t-42.5 117zM164 133q0 -51 20.5 -61.5t48.5 -10.5q68 0 156 56q45 29 82 57q-31 94 -72 145q-23 27 -47 27h-8q-135 -23 -170 -151q-10 -35 -10 -62zM332 989q0 10 2 17 q8 49 147.5 265t225.5 298q16 16 43 16q41 0 41 -55v-12q-2 -8 -3 -13q-2 -16 -53 -71q-63 -72 -143 -185l-90 -125q-35 -51 -45 -80v-6q0 -4 2 -13t2 -13q0 -16 -25 -39q-35 -25 -63 -25q-41 0 -41 41z" />
<glyph unicode="&#xe2;" horiz-adv-x="755" d="M68 125q0 104 73 205q86 119 193 119h12q125 0 195 -195q33 90 32 186q0 137 -67 265q-45 84 -137 83q-90 0 -150 -59q-14 -14 -15 -24.5t-18 -10.5q-59 0 -59 47v4q0 51 81 95.5t171 44.5q176 0 260 -207q37 -96 37 -234q0 -139 -39 -294q-35 -131 -49 -140 q-6 -8 -25 -8q-31 0 -43 16q-10 10 -14 29q-4 8 -4 19q-154 -102 -273 -103q-76 0 -118.5 45t-42.5 117zM164 133q0 -51 20.5 -61.5t48.5 -10.5q68 0 156 56q45 29 82 57q-31 94 -72 145q-23 27 -47 27h-8q-135 -23 -170 -151q-10 -35 -10 -62zM201 1110q0 27 26 47 q57 45 127 109l123 110q18 10 47 33q6 6 19 6q14 0 24 -4q45 -10 49 -61q6 -72 17 -99q14 -45 57 -80q16 -12 17 -45q0 -51 -41 -51q-2 0 -7 2h-8q-51 14 -90 99q-18 39 -43 81h-2q-14 0 -106 -73q-47 -39 -101 -99q-10 -47 -55 -47q-20 0 -36.5 24.5t-16.5 47.5z" />
<glyph unicode="&#xe3;" horiz-adv-x="755" d="M49 1085q0 45 74 129q145 168 291 168q49 0 88 -61t55 -150q6 -33 31 -32q33 0 112 82q111 115 154 114h4q57 -8 57 -57q0 -41 -12 -37h-2q-21 0 -67 -31q-31 -20 -99 -86q-57 -57 -102 -80.5t-80 -23.5q-49 0 -68 39q-8 39 -26 117q-10 39 -21 57q-16 33 -41 37h-10 q-49 0 -125 -53.5t-110 -110.5q-37 -63 -58 -64q-45 0 -45 43zM68 125q0 104 73 205q86 119 193 119h12q125 0 195 -195q33 90 32 186q0 137 -67 265q-45 84 -137 83q-90 0 -150 -59q-14 -14 -15 -24.5t-18 -10.5q-59 0 -59 47v4q0 51 81 95.5t171 44.5q176 0 260 -207 q37 -96 37 -234q0 -139 -39 -294q-35 -131 -49 -140q-6 -8 -25 -8q-31 0 -43 16q-10 10 -14 29q-4 8 -4 19q-154 -102 -273 -103q-76 0 -118.5 45t-42.5 117zM164 133q0 -51 20.5 -61.5t48.5 -10.5q68 0 156 56q45 29 82 57q-31 94 -72 145q-23 27 -47 27h-8 q-135 -23 -170 -151q-10 -35 -10 -62z" />
<glyph unicode="&#xe4;" horiz-adv-x="755" d="M68 125q0 104 73 205q86 119 193 119h12q125 0 195 -195q33 90 32 186q0 137 -67 265q-45 84 -137 83q-90 0 -150 -59q-14 -14 -15 -24.5t-18 -10.5q-59 0 -59 47v4q0 51 81 95.5t171 44.5q176 0 260 -207q37 -96 37 -234q0 -139 -39 -294q-35 -131 -49 -140 q-6 -8 -25 -8q-31 0 -43 16q-10 10 -14 29q-4 8 -4 19q-154 -102 -273 -103q-76 0 -118.5 45t-42.5 117zM164 133q0 -51 20.5 -61.5t48.5 -10.5q68 0 156 56q45 29 82 57q-31 94 -72 145q-23 27 -47 27h-8q-135 -23 -170 -151q-10 -35 -10 -62zM256 1106q0 43 8 100l8 58 q14 98 58 98q10 0 26 -6q35 -20 35 -49q0 -10 -22 -78q-18 -55 -19 -137q0 -20 -12 -56q-14 -16 -33 -16q-35 0 -43 29q-6 22 -6 57zM526 1065q0 49 17 90l32 80l25 78q8 27 43 26q53 0 53 -59v-8q-2 -14 -20 -49q-45 -92 -62 -187q-6 -41 -51 -41q-12 0 -20 6 q-17 17 -17 64z" />
<glyph unicode="&#xe5;" horiz-adv-x="755" d="M68 125q0 104 73 205q86 119 193 119h12q125 0 195 -195q33 90 32 186q0 137 -67 265q-45 84 -137 83q-90 0 -150 -59q-14 -14 -15 -24.5t-18 -10.5q-59 0 -59 47v4q0 51 81 95.5t171 44.5q176 0 260 -207q37 -96 37 -234q0 -139 -39 -294q-35 -131 -49 -140 q-6 -8 -25 -8q-31 0 -43 16q-10 10 -14 29q-4 8 -4 19q-154 -102 -273 -103q-76 0 -118.5 45t-42.5 117zM164 133q0 -51 20.5 -61.5t48.5 -10.5q68 0 156 56q45 29 82 57q-31 94 -72 145q-23 27 -47 27h-8q-135 -23 -170 -151q-10 -35 -10 -62zM305 1137q0 57 28.5 123.5 t76 99.5t112.5 33q80 0 133 -43q27 -23 27 -66q0 -66 -66 -139q-106 -121 -198 -121q-74 0 -99 47q-14 27 -14 66zM397 1147q0 -37 27 -37h10q43 8 115 80q47 47 47 80q0 10 -4 14q-25 18 -57 19q-59 0 -97 -37q-12 -12 -26.5 -50t-14.5 -69z" />
<glyph unicode="&#xe6;" horiz-adv-x="1529" d="M68 125q0 104 73 205q86 119 193 119h12q125 0 195 -195q33 90 32 186q0 137 -67 265q-45 84 -137 83q-90 0 -150 -59q-14 -14 -15 -24.5t-18 -10.5q-59 0 -59 47v4q0 51 81 95.5t171 44.5q109 0 184 -84q66 -74 94 -187q80 102 209 167t258 65q117 0 189 -53q4 -4 4 -7 q0 -20 -98 -96q-186 -141 -342 -192l-175 -56q-10 -20 -10 -69q0 -145 121 -246q37 -33 96 -33h9q68 0 194 72q92 51 199 131q82 61 100 86q10 23 47 68q10 8 25 8q16 0 28 -10q31 -20 31 -56q0 -47 -47 -78l-231 -172q-225 -154 -375 -153.5t-250 168.5q-33 -129 -51 -148 q-6 -8 -25 -8q-31 0 -43 16q-10 10 -14 29q-4 8 -4 19q-154 -102 -273 -103q-76 0 -118.5 45t-42.5 117zM164 133q0 -51 20.5 -61.5t48.5 -10.5q68 0 156 56q45 29 82 57q-31 94 -72 145q-23 27 -47 27h-8q-135 -23 -170 -151q-10 -35 -10 -62zM752 559q90 20 166 51l141 86 q35 18 76 56h-4q-100 0 -220 -60q-81 -41 -159 -133z" />
<glyph unicode="&#xe7;" horiz-adv-x="1044" d="M18 211q0 117 88 262q127 213 302 320q68 41 116 41h17q70 0 69 -50q0 -53 -57 -92q-12 -6 -24.5 -6t-34 5t-33.5 5t-17 -2q-29 -10 -102 -88q-211 -223 -211 -377q0 -74 62 -112q35 -23 96 -23q115 0 309 84q104 43 309 158q61 39 152 88q12 4 18 4q43 0 43 -45v-8 q0 -18 -184 -129q-217 -133 -401 -195q-6 -37 -7 -61q0 -49 29 -83l59 -69q31 -41 31 -84q0 -68 -51 -135q-106 -141 -215 -182q-70 -27 -78 -27q-51 0 -51 51q0 29 29 50q8 6 14 6q4 0 12 -2h15q43 0 110 55q115 94 115 172q0 33 -23 53q-98 86 -102 178q-2 27 -6 45 q-74 -18 -142 -18q-145 0 -217 90q-39 49 -39 121z" />
<glyph unicode="&#xe8;" horiz-adv-x="995" d="M37 383q0 123 82 231q78 102 204 167t255 65q104 0 176 -47q8 -2 8 -15q0 -37 -100 -118q-162 -131 -283 -181q-78 -31 -162 -41q-35 -4 -55 -6q-6 -25 -6 -59q0 -150 120 -252q37 -33 99 -33h8q68 0 195 72q92 51 198 131q82 61 101 86q39 76 69 76q25 0 43.5 -20.5 t18.5 -45.5q0 -45 -46 -79l-126 -93q-211 -158 -359 -209q-66 -23 -123 -22q-152 0 -254 172q-63 106 -63 221zM211 553q68 4 149.5 37t165.5 92q31 23 78 66h-6q-225 0 -387 -195zM250 1415q0 41 47 41q14 0 39 -6q14 -6 63 -59q109 -123 275 -277q43 -41 71 -55 q4 -2 11 -2h18q23 0 39 -29t16 -57q0 -45 -38 -45q-29 0 -78 35q-203 145 -387 342q-43 43 -66 75q-10 14 -10 37z" />
<glyph unicode="&#xe9;" horiz-adv-x="995" d="M37 383q0 123 82 231q78 102 204 167t255 65q104 0 176 -47q8 -2 8 -15q0 -37 -100 -118q-162 -131 -283 -181q-78 -31 -162 -41q-35 -4 -55 -6q-6 -25 -6 -59q0 -150 120 -252q37 -33 99 -33h8q68 0 195 72q92 51 198 131q82 61 101 86q39 76 69 76q25 0 43.5 -20.5 t18.5 -45.5q0 -45 -46 -79l-126 -93q-211 -158 -359 -209q-66 -23 -123 -22q-152 0 -254 172q-63 106 -63 221zM211 553q68 4 149.5 37t165.5 92q31 23 78 66h-6q-225 0 -387 -195zM332 907q0 10 2 17q8 49 147.5 265t225.5 298q16 16 43 16q41 0 41 -55v-12q-2 -8 -3 -13 q-2 -16 -53 -71q-63 -72 -143 -185l-90 -125q-35 -51 -45 -79v-7q0 -4 2 -13t2 -13q0 -16 -25 -39q-35 -25 -63 -25q-41 0 -41 41z" />
<glyph unicode="&#xea;" horiz-adv-x="995" d="M37 383q0 123 82 231q78 102 204 167t255 65q104 0 176 -47q8 -2 8 -15q0 -37 -100 -118q-162 -131 -283 -181q-78 -31 -162 -41q-35 -4 -55 -6q-6 -25 -6 -59q0 -150 120 -252q37 -33 99 -33h8q68 0 195 72q92 51 198 131q82 61 101 86q39 76 69 76q25 0 43.5 -20.5 t18.5 -45.5q0 -45 -46 -79l-126 -93q-211 -158 -359 -209q-66 -23 -123 -22q-152 0 -254 172q-63 106 -63 221zM211 553q68 4 149.5 37t165.5 92q31 23 78 66h-6q-225 0 -387 -195zM324 1110q0 27 26 47q57 45 127 109l123 110q18 10 47 33q6 6 19 6q14 0 24 -4 q45 -10 49 -61q6 -72 17 -99q14 -45 57 -80q16 -12 16 -45q0 -51 -41 -51q-2 0 -6 2h-8q-51 14 -90 99q-18 39 -43 81h-2q-14 0 -107 -73q-47 -39 -100 -99q-10 -47 -55 -47q-20 0 -36.5 24.5t-16.5 47.5z" />
<glyph unicode="&#xeb;" horiz-adv-x="995" d="M37 383q0 123 82 231q78 102 204 167t255 65q104 0 176 -47q8 -2 8 -15q0 -37 -100 -118q-162 -131 -283 -181q-78 -31 -162 -41q-35 -4 -55 -6q-6 -25 -6 -59q0 -150 120 -252q37 -33 99 -33h8q68 0 195 72q92 51 198 131q82 61 101 86q39 76 69 76q25 0 43.5 -20.5 t18.5 -45.5q0 -45 -46 -79l-126 -93q-211 -158 -359 -209q-66 -23 -123 -22q-152 0 -254 172q-63 106 -63 221zM211 553q68 4 149.5 37t165.5 92q31 23 78 66h-6q-225 0 -387 -195zM377 1106q0 43 8 100l8 58q14 98 58 98q10 0 26 -6q35 -20 35 -49q0 -10 -23 -78 q-18 -55 -18 -137q0 -20 -12 -56q-14 -16 -33 -16q-35 0 -43 29q-6 22 -6 57zM647 1065q0 49 17 90l32 80l25 78q8 27 43 26q53 0 53 -59v-8q-2 -14 -20 -49q-45 -92 -62 -187q-6 -41 -51 -41q-12 0 -20 6q-17 17 -17 64z" />
<glyph unicode="&#xec;" d="M16 1415q0 41 47 41q14 0 39 -6q14 -6 64 -59q109 -123 274 -277q43 -41 72 -55q4 -2 10 -2h19q23 0 39 -29t16 -57q0 -45 -39 -45q-29 0 -78 35q-203 145 -387 342q-43 43 -65 75q-11 14 -11 37zM162 162q0 74 6 184l14 258q0 53 11 158q10 76 55 76h4q63 0 63 -78v-12 l-8 -91l-31 -303q-10 -94 -10 -104v-39q0 -63 21 -109q4 -10 4 -24q0 -68 -55 -68q-51 0 -68 56q-6 24 -6 96z" />
<glyph unicode="&#xed;" d="M90 907q0 10 2 17q8 49 147.5 265t225.5 298q16 16 43 16q41 0 41 -55v-12q-2 -8 -2 -13q-2 -16 -53 -71q-63 -72 -144 -185l-90 -125q-35 -51 -45 -79v-7q0 -4 2 -13t2 -13q0 -16 -24 -39q-35 -25 -64 -25q-41 0 -41 41zM162 162q0 74 6 184l14 258q0 53 11 158 q10 76 55 76h4q63 0 63 -78v-12l-8 -91l-31 -303q-10 -94 -10 -104v-39q0 -63 21 -109q4 -10 4 -24q0 -68 -55 -68q-51 0 -68 56q-6 24 -6 96z" />
<glyph unicode="&#xee;" d="M29 1110q0 27 26 47q57 45 127 109l123 110q18 10 47 33q6 6 19 6q14 0 24 -4q45 -10 49 -61q6 -72 17 -99q14 -45 57 -80q16 -12 17 -45q0 -51 -41 -51q-2 0 -7 2h-8q-51 14 -90 99q-18 39 -43 81h-2q-14 0 -106 -73q-47 -39 -101 -99q-10 -47 -55 -47q-20 0 -36.5 24.5 t-16.5 47.5zM162 162q0 74 6 184l14 258q0 53 11 158q10 76 55 76h4q63 0 63 -78v-12l-8 -91l-31 -303q-10 -94 -10 -104v-39q0 -63 21 -109q4 -10 4 -24q0 -68 -55 -68q-51 0 -68 56q-6 24 -6 96z" />
<glyph unicode="&#xef;" d="M113 1126q0 43 8 101l8 57q14 98 57 98q10 0 27 -6q35 -20 35 -49q0 -10 -23 -78q-18 -55 -18 -137q0 -20 -12 -55q-14 -16 -33 -17q-35 0 -43 29q-6 22 -6 57zM162 162q0 74 6 184l14 258q0 53 11 158q10 76 55 76h4q63 0 63 -78v-12l-8 -91l-31 -303q-10 -94 -10 -104 v-39q0 -63 21 -109q4 -10 4 -24q0 -68 -55 -68q-51 0 -68 56q-6 24 -6 96zM383 1085q0 49 16 91l33 79l25 78q8 27 43 27q53 0 53 -60v-8q-2 -14 -21 -49q-45 -92 -61 -186q-6 -41 -51 -41q-12 0 -21 6q-16 16 -16 63z" />
<glyph unicode="&#xf0;" horiz-adv-x="989" d="M25 106q0 94 71 209q68 109 160 185q80 68 199 118q154 66 315 80q39 100 39 217q0 125 -45 209q-174 -59 -281 -71h-6q-53 0 -53 43q0 27 33 59q10 8 61 19q117 20 182 38q-96 96 -215 97q-137 0 -231 -64q-23 -16 -33 -25.5t-31 -9.5q-25 0 -45 13q-27 14 -26 37 q0 20 37 53q57 49 168 78q55 14 122 14h13q211 0 348 -162q37 10 104 43l19 27q10 18 43 18h2q82 0 82 -51q0 -25 -33 -47q-41 -29 -164 -74q53 -102 53 -289q0 -66 -30 -176q59 -12 96 -33q45 -29 45 -88q0 -51 -59 -51q-29 0 -50 27q-27 33 -32 35q-12 6 -25 6h-14 q-117 -233 -266 -402q-78 -88 -183 -157q-127 -84 -221 -84q-68 0 -108.5 44.5t-40.5 114.5zM127 111q0 -31 18 -50q14 -10 31 -10q61 0 176 81t156 138l119 150q66 84 102 166q-133 -16 -283 -88q-74 -37 -147 -101q-55 -49 -109 -131q-63 -96 -63 -155z" />
<glyph unicode="&#xf1;" horiz-adv-x="786" d="M16 1085q0 45 74 129q145 168 291 168q49 0 88 -61t55 -150q6 -33 31 -32q33 0 113 82q111 115 153 114h4q57 -8 58 -57q0 -41 -13 -37h-2q-21 0 -67 -31q-31 -20 -99 -86q-57 -57 -102 -80.5t-80 -23.5q-49 0 -67 39q-8 39 -27 117q-10 39 -20 57q-16 33 -41 37h-11 q-49 0 -124.5 -53.5t-110.5 -110.5q-37 -63 -58 -64q-45 0 -45 43zM86 61q0 76 6 203q8 152 10 203q6 248 27 369q8 47 45 47q39 0 66 -33q8 -10 8 -35q0 -43 -10 -121q-8 -84 -11 -121q-3 -114 -4 -114v4v-17q0 -10 2 -22q90 186 181 321q100 150 163 150h6q2 -2 5 -2 q66 -14 88 -145q16 -98 16 -330v-236q0 -119 6 -133q35 -80 35 -100q0 -29 -18 -41q-10 -10 -29 -10q-37 0 -64.5 27.5t-27.5 64.5q0 8 4 28q2 4 2 19q0 49 -10.5 156.5t-10.5 166.5v54q0 12 2 35v38v72q0 170 -22 189q0 2 -4 2q-31 0 -119 -172q-98 -188 -162 -361 q-35 -96 -55 -174q-8 -27 -29 -63q-20 -10 -39 -11q-27 0 -42 22.5t-15 69.5z" />
<glyph unicode="&#xf2;" horiz-adv-x="749" d="M37 303q0 84 35 162q86 195 175 282t165 87h10q82 0 158 -62q125 -104 125 -301q0 -143 -86.5 -265t-219.5 -179q-78 -35 -141 -35q-111 0 -176 125q-45 86 -45 186zM147 305q0 -74 31 -133q37 -74 103 -74q68 0 149.5 64.5t112.5 122.5q59 117 59 211q0 131 -74 196 q-35 27 -96 35l2 -10q-92 -18 -186 -150q-47 -66 -88 -182q-13 -35 -13 -80zM188 1415q0 41 48 41q14 0 38 -6q14 -6 64 -59q109 -123 274 -277q43 -41 72 -55q4 -2 10 -2h19q23 0 39 -29t16 -57q0 -45 -39 -45q-29 0 -78 35q-203 145 -387 342q-43 43 -65 75q-11 14 -11 37 z" />
<glyph unicode="&#xf3;" horiz-adv-x="749" d="M37 303q0 84 35 162q86 195 175 282t165 87h10q82 0 158 -62q125 -104 125 -301q0 -143 -86.5 -265t-219.5 -179q-78 -35 -141 -35q-111 0 -176 125q-45 86 -45 186zM147 305q0 -74 31 -133q37 -74 103 -74q68 0 149.5 64.5t112.5 122.5q59 117 59 211q0 131 -74 196 q-35 27 -96 35l2 -10q-92 -18 -186 -150q-47 -66 -88 -182q-13 -35 -13 -80zM352 948q0 10 2 17q8 49 147.5 265t225.5 298q16 16 43 16q41 0 41 -55v-12q-2 -8 -2 -13q-2 -16 -53 -71q-63 -72 -144 -185l-90 -125q-35 -51 -45 -79v-7q0 -4 2 -13t2 -13q0 -16 -24 -39 q-35 -25 -64 -25q-41 0 -41 41z" />
<glyph unicode="&#xf4;" horiz-adv-x="749" d="M37 303q0 84 35 162q86 195 175 282t165 87h10q82 0 158 -62q125 -104 125 -301q0 -143 -86.5 -265t-219.5 -179q-78 -35 -141 -35q-111 0 -176 125q-45 86 -45 186zM147 305q0 -74 31 -133q37 -74 103 -74q68 0 149.5 64.5t112.5 122.5q59 117 59 211q0 131 -74 196 q-35 27 -96 35l2 -10q-92 -18 -186 -150q-47 -66 -88 -182q-13 -35 -13 -80zM221 1110q0 27 27 47q57 45 127 109l123 110q18 10 47 33q6 6 18 6q14 0 25 -4q45 -10 49 -61q6 -72 16 -99q14 -45 58 -80q16 -12 16 -45q0 -51 -41 -51q-2 0 -6 2h-8q-51 14 -90 99 q-18 39 -43 81h-2q-14 0 -107 -73q-47 -39 -100 -99q-10 -47 -56 -47q-20 0 -36.5 24.5t-16.5 47.5z" />
<glyph unicode="&#xf5;" horiz-adv-x="749" d="M37 303q0 84 35 162q86 195 175 282t165 87h10q82 0 158 -62q125 -104 125 -301q0 -143 -86.5 -265t-219.5 -179q-78 -35 -141 -35q-111 0 -176 125q-45 86 -45 186zM43 1085q0 45 74 129q145 168 291 168q49 0 88 -61t55 -150q6 -33 31 -32q33 0 112 82q111 115 154 114 h4q57 -8 57 -57q0 -41 -12 -37h-2q-21 0 -68 -31q-31 -20 -98 -86q-57 -57 -102 -80.5t-80 -23.5q-49 0 -68 39q-8 39 -26 117q-10 39 -21 57q-16 33 -41 37h-10q-49 0 -125 -53.5t-111 -110.5q-37 -63 -57 -64q-45 0 -45 43zM147 305q0 -74 31 -133q37 -74 103 -74 q68 0 149.5 64.5t112.5 122.5q59 117 59 211q0 131 -74 196q-35 27 -96 35l2 -10q-92 -18 -186 -150q-47 -66 -88 -182q-13 -35 -13 -80z" />
<glyph unicode="&#xf6;" horiz-adv-x="749" d="M37 303q0 84 35 162q86 195 175 282t165 87h10q82 0 158 -62q125 -104 125 -301q0 -143 -86.5 -265t-219.5 -179q-78 -35 -141 -35q-111 0 -176 125q-45 86 -45 186zM147 305q0 -74 31 -133q37 -74 103 -74q68 0 149.5 64.5t112.5 122.5q59 117 59 211q0 131 -74 196 q-35 27 -96 35l2 -10q-92 -18 -186 -150q-47 -66 -88 -182q-13 -35 -13 -80zM274 1147q0 43 9 100l8 58q14 98 57 98q10 0 27 -6q35 -20 35 -49q0 -10 -23 -78q-18 -55 -18 -137q0 -20 -13 -56q-14 -16 -32 -16q-35 0 -43 29q-7 22 -7 57zM545 1106q0 49 16 90l33 80l24 78 q8 27 44 26q53 0 53 -59v-8q-2 -14 -21 -49q-45 -92 -61 -187q-6 -41 -51 -41q-12 0 -21 6q-16 17 -16 64z" />
<glyph unicode="&#xf7;" horiz-adv-x="946" d="M16 449q0 59 113 86q72 16 266 32q229 18 373 19q102 0 119 -13q27 -20 26 -41q0 -29 -33.5 -40t-66.5 -11q-8 0 -22 2h-23h-49q-213 0 -393 -39l-129 -26q-66 -14 -113 -15q-59 0 -66 31q-2 5 -2 15zM360 236q0 61 82 75h4q31 0 61 -16t30 -45v-8q0 -92 -56 -105 q-6 -2 -20 -2q-39 0 -70 31t-31 70zM375 793q0 41 39 65q41 16 45 16q27 0 51 -12q43 -16 43 -65q0 -33 -10 -54q-16 -49 -66 -49q-53 0 -86 49q-16 23 -16 50z" />
<glyph unicode="&#xf8;" horiz-adv-x="749" d="M-4 -205q0 8 2 12q37 109 121 254q-82 100 -82 242q0 84 35 162q86 195 175 282t165 87h10q88 0 166 -70q6 8 209 248q35 39 75 98q10 27 54 27q51 0 51 -62q0 -10 -2 -14q0 -14 -35 -56t-53 -47q-27 -6 -101 -92q-80 -90 -139 -174q57 -88 58 -221q0 -143 -86.5 -265 t-219.5 -179q-78 -35 -141 -35q-27 0 -47 6l-49 -92q-2 -2 -23 -70q-33 -94 -80 -94q-63 0 -63 53zM147 305q0 -80 33 -137q195 328 348 522q-31 29 -96 37l2 -10q-92 -18 -186 -150q-47 -66 -88 -182q-13 -35 -13 -80zM264 100q6 -2 17 -2q68 0 149.5 64.5t112.5 122.5 q59 117 59 211q0 53 -20 106l-119 -182l-88 -137q-66 -101 -111 -183z" />
<glyph unicode="&#xf9;" horiz-adv-x="700" d="M86 811v6q0 66 41 66h10q61 -12 62 -74v-4v-41q-2 -27 -2 -41q0 -238 43 -413t98 -175q20 0 41 35q63 109 106 330q33 168 33 238.5t60 70.5h6q57 -6 57 -82q-8 -66 -39 -201q-27 -106 -88 -311q-61 -166 -115 -190q-37 -16 -63 -17q-109 0 -170 193q-45 137 -68 372 q-12 134 -12 238zM106 1415q0 41 48 41q14 0 39 -6q14 -6 63 -59q109 -123 274 -277q43 -41 72 -55q4 -2 10 -2h19q23 0 39 -29t16 -57q0 -45 -39 -45q-29 0 -78 35q-203 145 -387 342q-43 43 -65 75q-11 14 -11 37z" />
<glyph unicode="&#xfa;" horiz-adv-x="700" d="M86 811v6q0 66 41 66h10q61 -12 62 -74v-4v-41q-2 -27 -2 -41q0 -238 43 -413t98 -175q20 0 41 35q63 109 106 330q33 168 33 238.5t60 70.5h6q57 -6 57 -82q-8 -66 -39 -201q-27 -106 -88 -311q-61 -166 -115 -190q-37 -16 -63 -17q-109 0 -170 193q-45 137 -68 372 q-12 134 -12 238zM332 907q0 10 2 17q8 49 147.5 265t225.5 298q16 16 43 16q41 0 41 -55v-12q-2 -8 -3 -13q-2 -16 -53 -71q-63 -72 -143 -185l-90 -125q-35 -51 -45 -79v-7q0 -4 2 -13t2 -13q0 -16 -25 -39q-35 -25 -63 -25q-41 0 -41 41z" />
<glyph unicode="&#xfb;" horiz-adv-x="700" d="M86 811v6q0 66 41 66h10q61 -12 62 -74v-4v-41q-2 -27 -2 -41q0 -238 43 -413t98 -175q20 0 41 35q63 109 106 330q33 168 33 238.5t60 70.5h6q57 -6 57 -82q-8 -66 -39 -201q-27 -106 -88 -311q-61 -166 -115 -190q-37 -16 -63 -17q-109 0 -170 193q-45 137 -68 372 q-12 134 -12 238zM160 1110q0 27 26 47q57 45 127 109l123 110q18 10 47 33q6 6 19 6q14 0 24 -4q45 -10 49 -61q6 -72 17 -99q14 -45 57 -80q16 -12 17 -45q0 -51 -41 -51q-2 0 -7 2h-8q-51 14 -90 99q-18 39 -43 81h-2q-14 0 -106 -73q-47 -39 -101 -99q-10 -47 -55 -47 q-20 0 -36.5 24.5t-16.5 47.5z" />
<glyph unicode="&#xfc;" horiz-adv-x="700" d="M86 811v6q0 66 41 66h10q61 -12 62 -74v-4v-41q-2 -27 -2 -41q0 -238 43 -413t98 -175q20 0 41 35q63 109 106 330q33 168 33 238.5t60 70.5h6q57 -6 57 -82q-8 -66 -39 -201q-27 -106 -88 -311q-61 -166 -115 -190q-37 -16 -63 -17q-109 0 -170 193q-45 137 -68 372 q-12 134 -12 238zM236 1106q0 43 8 100l8 58q14 98 57 98q10 0 27 -6q35 -20 35 -49q0 -10 -23 -78q-18 -55 -18 -137q0 -20 -13 -56q-14 -16 -32 -16q-35 0 -43 29q-6 22 -6 57zM506 1065q0 49 16 90l33 80l25 78q8 27 43 26q53 0 53 -59v-8q-2 -14 -21 -49 q-45 -92 -61 -187q-6 -41 -51 -41q-12 0 -21 6q-16 17 -16 64z" />
<glyph unicode="&#xfd;" horiz-adv-x="1634" d="M63 715q0 37 35 43q8 2 56 6l98 6q57 4 125 8l270 17l113 6q106 6 629 18q-57 96 -181 281q-57 78 -106 121l-33 28q-33 27 -33 47.5t17.5 36t38 15.5t53.5 -27l49 -43q45 -33 152 -184l86 -127l67 -103q29 -43 33 -45q41 -31 41 -55v-2q0 -31 -53 -57q-12 -8 -126 -155 l-210 -280q-115 -158 -115 -170q-18 -104 -65 -104h-13q-41 6 -41 57q0 53 47 121q59 86 107 148l92 124l190 265h-65q-338 0 -702.5 -24.5t-501.5 -24.5h-2q-52 0 -52 53z" />
<glyph unicode="&#xfe;" horiz-adv-x="2863" d="M59 723q0 4 2 6v4q12 51 66 51q18 0 44 -11t48 -11h31q154 0 261 9l325 28q88 6 145 8q332 12 496 12q104 0 235 -4l29 166l20 127q10 59 11 82v8q-4 8 -15.5 15.5t-11.5 17.5q0 20 49 69q23 23 45 23q43 0 72 -57q4 -10 205 -105l395 -184l287 -135q8 -2 8 -23v-10 q-2 -6 -3 -11t-1 -10l-291 -172q-356 -225 -686 -483l-45 -62q-31 -42 -64 -42q-18 0 -36.5 8t-28.5 96q-10 72 -11 191q0 139 19 243q8 51 20 95q6 20 15 55l-396 -12q-43 0 -198 -3q-203 -2 -545 -36q-80 -8 -190 -9q-156 0 -213 11q-25 4 -31 8q-18 10 -37 18 q-25 15 -25 29zM1753 276q0 -35 2 -71l299 215l201 143q129 90 317 195q43 23 88 51l-780 346q-14 -90 -29 -168l-32 -184q-27 -113 -62 -340q-4 -57 -4 -119v-68z" />
<glyph unicode="&#xff;" horiz-adv-x="2955" d="M39 317v5q0 45 139 159.5t322 206.5q190 96 374 143q63 16 113 17q45 0 70 -17q61 -41 61 -116q0 -37 -16.5 -98.5t-16.5 -92.5q0 -27 14.5 -39t30.5 -12q51 0 275 107q246 117 395 153q92 23 311 23q227 0 519 -23l139 -10q129 -12 135 -18q14 -10 14 -31q0 -16 -18 -23 q-4 -2 -37 -2q-2 0 -248 10l-176 7q-94 2 -188 2q-272 0 -420 -31q-82 -16 -377 -158q-268 -127 -369 -127q-125 0 -124 131q0 37 15 97.5t15 91.5q0 29 -18 45q-14 10 -41 10q-80 0 -258 -78q-305 -133 -488 -295l-45 -51q-35 -37 -51 -37q-37 0 -51 51z" />
<glyph unicode="&#x152;" horiz-adv-x="1953" d="M31 340q0 188 108 422q162 346 408 487q80 45 145 45h13q63 0 104 -12q145 61 336 127q84 29 254 76q37 8 69 8q72 0 72 -45q0 -37 -31.5 -56.5t-68.5 -19.5q-27 0 -47 14q-188 -53 -334 -110q-39 -20 -117 -49q-4 -2 -10 -6q352 -74 450 -267l119 43l84 29 q156 49 244 68q37 6 61 6q18 0 25 -4q31 -18 31 -47q0 -53 -83 -59.5t-108 -10.5q-59 -8 -104 -25q-55 -20 -236 -92q6 -37 6 -82v-24q0 -80 -71.5 -190.5t-182.5 -217.5q111 45 363 135q111 41 336 115q92 27 123 27q14 0 20 -2l10 -7q55 -20 56 -45q0 -6 -3.5 -10 t-84.5 -22q-141 -33 -414 -146q-150 -61 -236 -100l-161 -74q-82 -43 -246 -119q-37 -14 -51 -14q-23 0 -43 10q-248 -137 -439 -137q-92 0 -170 35q-196 88 -196 346zM143 348q0 -172 107 -231q74 -41 168 -41q178 0 393 129q309 186 449 428q43 76 43 127v14q0 23 -5 43 q-223 -90 -348 -149q-201 -96 -252 -97h-6q-57 8 -57 64q0 14 12 39q10 12 78 30.5t373 139.5l172 67q-68 111 -254 176q-94 33 -236 33h-26q-14 0 -26.5 -3t-25.5 -13l-26 -21q-39 -29 -64 -28q-4 0 -4 2h-4q-49 4 -65 39q-4 6 -7 6h-2q-264 -215 -358 -565 q-29 -103 -29 -189z" />
<glyph unicode="&#x153;" horiz-adv-x="1548" d="M37 303q0 84 35 162q86 195 175 282t165 87h10q68 0 135 -46q86 -57 123 -167q80 100 208 162.5t255 62.5q113 0 190 -53q2 -2 2 -7q0 -23 -96 -96q-186 -141 -342 -192l-174 -56q-10 -20 -10 -69q0 -145 118 -246q37 -33 99 -33h8q68 0 195 72q92 51 198 131 q82 61 101 86q39 76 71 76q14 0 29 -10q31 -23 31 -56q0 -45 -46 -79l-126 -93q-211 -158 -359 -209q-66 -23 -123 -22q-111 0 -202 102q-51 55 -80 125q-102 -158 -275 -209q-51 -16 -94 -16q-111 0 -176 125q-45 86 -45 186zM147 305q0 -74 31 -133q37 -74 103 -74 q68 0 151.5 65.5t110.5 121.5q39 82 51 143q4 20 4 23q4 25 4 45q0 131 -74 196q-35 27 -96 35l2 -10q-92 -18 -186 -150q-47 -66 -88 -182q-13 -35 -13 -80zM772 559q90 20 166 51l141 86q35 18 76 56h-4q-215 0 -379 -193z" />
<glyph unicode="&#x178;" horiz-adv-x="1204" d="M61 604v12q0 158 68 316q78 188 221 295q150 115 344 114h15q190 0 308 -145t118 -412v-6q0 -279 -162 -459q-119 -133 -301 -196q-61 -12 -174 -45q-25 -10 -43 -10q-68 0 -68 61q0 29 25.5 48.5t54.5 19.5q10 0 18 -4h7q6 -2 8 -3q70 0 168 39q221 90 311 324 q39 100 39 217v29q0 205 -105 327q-96 113 -229 113q-207 0 -362 -190q-147 -182 -148 -371v-60q0 -96 19 -133q27 -53 110 -53q100 0 189 80q104 98 104 260q0 78 -49 78h-17q-84 -12 -116 -84q-6 -25 -27 -61q-12 -12 -25 -13q-23 0 -22 31v10q0 72 53 133q61 72 164 72 q133 0 133 -168q0 -152 -88 -283q-111 -160 -299 -159h-14q-98 0 -154 55q-74 69 -74 221z" />
<glyph unicode="&#x2c6;" horiz-adv-x="737" d="M119 1110q0 27 26 47q57 45 127 109l123 110q18 10 47 33q6 6 19 6q14 0 24 -4q45 -10 50 -61q6 -72 16 -99q14 -45 57 -80q16 -12 17 -45q0 -51 -41 -51q-2 0 -6 2h-9q-51 14 -90 99q-18 39 -43 81h-2q-14 0 -106 -73q-47 -39 -101 -99q-10 -47 -55 -47 q-20 0 -36.5 24.5t-16.5 47.5z" />
<glyph unicode="&#x2dc;" horiz-adv-x="989" d="M61 1085q0 45 74 129q145 168 291 168q49 0 88 -61t55 -150q6 -33 31 -32q33 0 113 82q111 115 153 114h4q57 -8 58 -57q0 -41 -13 -37h-2q-21 0 -67 -31q-31 -20 -98 -86q-57 -57 -102.5 -80.5t-80.5 -23.5q-49 0 -67 39q-8 39 -27 117q-10 39 -20 57q-16 33 -41 37h-11 q-49 0 -124.5 -53.5t-110.5 -110.5q-37 -63 -58 -64q-45 0 -45 43z" />
<glyph unicode="&#x2013;" horiz-adv-x="1400" d="M43 555q0 23 27 37q18 8 141 24q188 25 387 37q127 8 190.5 8.5t126.5 -2.5l117 -6q125 -8 172 -8q152 0 152 -92v-2q0 -43 -45 -43q-4 0 -94 22q-23 8 -175 19q-168 10 -268 10q-139 0 -405 -43q-203 -33 -231.5 -33t-41.5 6q-53 27 -53 66z" />
<glyph unicode="&#x2014;" horiz-adv-x="1830" d="M68 575q0 47 32 56q205 55 467 55h47q90 0 424 -14q190 -8 332 -17l223 -16q84 -6 107 -6h12q31 0 59.5 -19.5t28.5 -50.5v-2q0 -49 -47 -49q-27 0 -67 27q-20 14 -330 22q-416 12 -631 12h-25q-201 0 -397 -32q-6 0 -90 -19q-63 -14 -88 -14q-57 -1 -57 67z" />
<glyph unicode="&#x2018;" horiz-adv-x="485" d="M123 1214v11q0 70 47 182q43 100 58.5 109.5t33.5 9.5q23 0 45.5 -16.5t22.5 -39.5q0 -6 -2 -10l-43 -71q-55 -100 -56 -185v-24q0 -90 43 -154.5t43 -56.5q0 -2 -3 -3t-11 -1q-51 0 -98 49q-29 27 -51 76q-29 58 -29 124z" />
<glyph unicode="&#x2019;" horiz-adv-x="491" d="M123 979q0 4 16 14l51 35q119 80 119 148q0 29 -20 67l-33 62q-16 31 -49 61q-31 25 -60 51q-14 12 -14 27q0 18 21 35q33 27 63 26q33 0 57 -28q135 -158 136 -275q0 -80 -78 -147q-63 -55 -152 -80q-25 -8 -37 -8q-2 0 -6 2h-4q-10 6 -10 10z" />
<glyph unicode="&#x201a;" d="M61 -233q0 6 16.5 6t69.5 -4q10 -2 21 -2h20q113 0 113 65q0 35 -33 100q-14 29 -47 62l-55 55q-14 14 -14 29q0 33 51 51q14 4 28 4q29 0 58 -29q127 -164 127 -264q0 -94 -94 -125q-27 -8 -43 -10q-8 -2 -27 -2q-90 0 -166 37q-18 10 -21.5 17.5t-3.5 9.5z" />
<glyph unicode="&#x201c;" horiz-adv-x="700" d="M74 1020v18q0 43 26 144q43 166 93 293q23 57 31.5 69t27.5 12q23 0 41 -16t18 -39v-2q0 -14 -26 -82q-33 -84 -88 -280q-16 -57 -17 -117q0 -119 74 -174q31 -25 33 -39q2 -2 2 -6q0 -29 -47 -33q-35 0 -97 70q-71 82 -71 182zM344 1167v19q0 156 72 280q45 82 92 111 q2 2 8 2q16 0 28.5 -25.5t12.5 -44t-8 -26.5q-29 -35 -60 -105q-43 -94 -43 -215q0 -88 60 -141q12 -12 20 -12h11q47 0 47 -37v-4q-4 -41 -60 -41q-47 0 -82 28q-51 39 -80 117q-18 47 -18 94z" />
<glyph unicode="&#x201d;" horiz-adv-x="614" d="M82 1436q0 27 21.5 48t48.5 21q14 0 30 -12q18 -18 60 -137q47 -139 47 -228v-14q0 -80 -27 -156q-41 -115 -106 -143q-29 -12 -45 -12q-10 0 -13 2l-2 2q0 -8 44 73t44 193q0 90 -24 174q-31 94 -60 146q-14 25 -16 30t-2 13zM289 1497v2q0 18 24.5 46t46.5 28 q10 0 17 -8q76 -98 108 -215q39 -135 39 -240v-33q0 -29 -12 -67q-16 -49 -39 -49q-4 0 -6 2t-12 84q-16 115 -52 225t-77 170q-19 18 -37 55z" />
<glyph unicode="&#x201e;" horiz-adv-x="823" d="M49 -233q0 6 16.5 6t69.5 -4q10 -2 21 -2h20q113 0 113 65q0 35 -33 100q-14 29 -47 62l-55 55q-14 14 -15 29q0 33 51 51q14 4 29 4q29 0 57 -29q127 -164 127 -264q0 -94 -94 -125q-27 -8 -43 -10q-8 -2 -26 -2q-90 0 -166 37q-18 10 -21.5 17.5t-3.5 9.5zM444 -322 q0 6 80 33q129 41 129 121q0 39 -41 121q-14 29 -47 61l-55 56q-14 14 -14 28q0 35 49 52q14 4 28 4q33 0 58 -29q129 -156 129 -268q0 -150 -180 -185q-53 -10 -88 -10q-48 0 -48 16z" />
<glyph unicode="&#x2022;" horiz-adv-x="792" d="M123 510v14q18 178 221 178q6 0 127 -10q201 -20 201 -180q0 -72 -75 -124t-161 -52q-201 0 -282 90q-31 33 -31 84z" />
<glyph unicode="&#x2026;" horiz-adv-x="1622" d="M221 41v10q0 70 86 70t86 -80q0 -74 -84 -74q-72 0 -88 74zM756 41q0 68 65 76q2 0 6 2h7q59 0 59 -76t-72 -76q-65 0 -65 74zM1257 51q0 23 17.5 50.5t48.5 27.5q33 0 65.5 -29.5t32.5 -62.5q0 -27 -25.5 -52.5t-52.5 -25.5q-61 0 -79 61q-7 17 -7 31z" />
<glyph unicode="&#x2039;" horiz-adv-x="657" d="M55 657q0 31 62 56l116 41l138 45q72 23 123 41q16 8 30 8q39 0 39 -47q0 -41 -22 -49q-193 -47 -328 -105l305 -151q39 -20 68 -43q14 -12 14 -37q0 -37 -25 -54q-8 -4 -12 -4q-18 0 -82 45q-84 59 -250 129q-176 74 -176 125z" />
<glyph unicode="&#x203a;" horiz-adv-x="657" d="M61 416q0 27 13 37q33 27 164 92l211 102q-121 51 -328 105q-23 8 -23 49q0 47 39 47q14 0 31 -8q51 -18 123 -41l139 -45l90 -33q74 -27 80 -40t6 -24q0 -41 -90 -81.5t-268 -129.5l-115 -75q-20 -12 -35 -13q-6 0 -12 4q-25 17 -25 54z" />
<glyph unicode="&#x20ac;" horiz-adv-x="1464" d="M16 313q0 39 76 76q14 8 109 39q14 74 53 160q-61 -18 -131 -56q-25 -14 -47 -14q-18 0 -35.5 18.5t-17.5 36.5q0 35 55 62q76 33 180 61l68 19q141 211 344 383q158 133 297 192q55 23 102 23q41 0 82 -21q49 -25 49 -61q0 -31 -30.5 -51.5t-63.5 -20.5q-16 0 -44 8.5 t-44 8.5h-17q-47 -8 -159 -89q-201 -143 -348 -333q250 57 399 57q55 0 55 -53q0 -63 -59 -64q-8 0 -25.5 3t-25.5 3q-152 0 -430 -69q-61 -104 -80 -168q127 33 319 61q4 0 10 2h13q72 0 71 -57q0 -61 -67 -61q-8 0 -26.5 3t-26.5 3q-115 0 -320 -60q-2 -10 -2 -20v-21 q0 -133 104 -207q90 -66 228 -65q127 0 287 63q172 68 288 162q14 10 25 25l33 46q16 24 40.5 23.5t39 -23t14.5 -46.5q0 -47 -53 -84q-389 -264 -701 -264q-158 0 -258 73q-150 111 -158 297l-51 -39q-37 -27 -55 -26q-27 0 -46.5 19t-19.5 46z" />
<glyph unicode="&#x2122;" horiz-adv-x="1394" d="M61 1253q0 33 64 37l76 6l47 2q49 0 133 17q6 57 20 119q18 25 43 24q29 0 56 -37q2 -4 2 -14q0 -20 -8 -70l24 6q35 8 160 27q154 23 209 23q84 0 106 6l35 10q20 0 39.5 -17.5t19.5 -37.5q0 -43 -49 -43q-18 0 -34 8q-31 14 -80 14q-35 0 -125 -10q-115 -12 -318 -59 q-12 -70 -20 -156v-43l-4 -129q-2 -35 -2 -59v-43q6 -18 6 -35q0 -41 -51 -47h-9q-51 0 -51 65q0 12 4 39t4 37q4 61 4 149v70q0 25 11 127q-68 -14 -195 -31q-39 -6 -63 -6q-39 0 -49 29q-5 16 -5 22zM653 920q0 104 15 170q4 41 16 122q10 51 45 52q8 0 15.5 -4.5 t15.5 -4.5q4 0 18 5q6 4 19 4q53 0 73 -52q14 -51 52 -151q8 -20 14 -21h2q12 4 80 88q27 37 84 103l24 39q14 20 37 20h13q39 -6 51 -43q2 -6 12 -68.5t25 -121.5q17 -70 16 -91q0 -41 27 -116q8 -23 8 -39q0 -47 -60 -47q-23 0 -42 16.5t-19 36.5l-33 152q-6 37 -10 71 q-10 55 -25 58q-8 0 -51 -60q-33 -43 -86 -129q-23 -51 -69 -51q-31 0 -60 49q-12 20 -39 90q-8 23 -16 23q-4 0 -14 -39q-18 -76 -19 -145v-35q0 -35 -59 -35q-45 0 -56 65q-4 26 -4 89z" />
<glyph unicode="&#xe000;" horiz-adv-x="905" d="M0 905h905v-905h-905v905z" />
<glyph unicode="&#xfb01;" horiz-adv-x="1075" d="M29 410q0 20 18 43q55 55 215 104v174q0 414 113 590q90 139 241 139q84 0 140 -26q29 -16 45 -33q8 39 39 90q8 6 24 6q51 0 51 -57v-8q-2 -18 -24 -64l-31 -63q-10 -57 -37 -129q-16 -20 -37 -21q-12 0 -20 8q-16 12 -16 62q0 45 14 88q-25 12 -72 30.5t-84 18.5 q-129 0 -188 -197q-49 -160 -49 -460v-19q0 -16 2 -49v-51l135 35q76 18 225 67q39 14 41 25q8 39 33 104q14 20 39 21q68 0 67 -78v-6q-2 -4 -2 -6q-2 -14 -6 -52l-8 -84q-8 -72 -20 -209l-11 -92q-4 -41 -4 -61v-35q0 -68 21 -113q4 -10 4 -24q0 -68 -56 -68 q-25 0 -50 21.5t-25 132.5v-4q2 0 20 428q-86 -10 -203 -43l-198 -58q4 -205 4 -376v-82q0 -215 -41 -447q-31 -174 -31 -182q0 -2 2 -6v-4q2 -4 2 -15q0 -68 -69 -67q-80 0 -80 71q0 31 18 54q12 12 45 184q47 266 47 563q0 143 -4 275q-51 -18 -68.5 -31.5t-47.5 -54.5 q-23 -31 -51.5 -31t-50 21.5t-21.5 50.5z" />
<glyph unicode="&#xfb02;" horiz-adv-x="983" d="M6 410q0 20 19 43q55 55 215 104v154q0 393 186 606q150 170 346 170q57 0 94 -14q20 25 47 24q29 0 48.5 -23.5t19.5 -52t-31 -190.5q-109 -547 -133 -838q-14 -172 -14 -305v-86q0 -76 -27 -111q-10 -12 -28 -12q-20 0 -50 21q-14 12 -14 102q0 178 49 582 q-102 -18 -287 -70l-94 -27q4 -205 4 -376v-82q0 -225 -39 -447q-31 -174 -30 -182v-10q2 -4 2 -17q0 -66 -70 -65q-53 0 -69 33q-8 16 -9 38q0 37 14.5 51.5t47.5 186.5q49 279 49 559q0 72 -2 141l-4 138q-74 -27 -117 -86q-23 -31 -51.5 -31t-50 21.5t-21.5 50.5z M348 686q0 -16 2 -49v-51q57 14 119 32l117 33q55 12 164 43l43 316l28 217q12 94 23 155q-260 0 -383 -196q-113 -176 -113 -492v-8z" />
<glyph unicode="&#xfb03;" horiz-adv-x="2076" d="M55 418q0 25 51 74q35 31 103 57q35 12 88 22v56v28q2 23 2 33q4 438 129 627q96 145 258 145q156 0 184 -69q4 -14 4 -27v-10q-10 -37 -43 -37q-20 0 -38 10q-29 16 -35 19q-47 16 -82 16q-135 0 -207 -195q-63 -174 -63 -458q0 -14 2 -23q0 -16 2 -47v-47 q100 14 215 14q82 0 95 11.5t34 11.5q29 0 49 -18.5t20 -47.5v-2q0 -59 -94 -61q-84 0 -250 -6q-31 -2 -67 -9q0 -346 -29 -540q-18 -119 -66 -357l-24 -118q-10 -49 -10 -70q0 -8 2 -10v-15q0 -68 -68 -67q-23 0 -41 8q-35 12 -35 57q0 33 23 60q14 16 47 155 q39 176 59 351q25 209 29 393v129q-78 -12 -121 -82q-25 -31 -53.5 -31t-49 20.5t-20.5 49.5zM854 418q0 25 51 74q35 31 103 57q35 12 88 22v56v28q2 23 2 33q4 438 129 627q96 145 258 145q156 0 184 -69q4 -14 4 -27v-10q-10 -37 -43 -37q-20 0 -39 10q-29 16 -35 19 q-47 16 -81 16q-135 0 -207 -195q-63 -174 -64 -458q0 -14 2 -23q0 -16 2 -47v-47q100 14 215 14q82 0 95.5 11.5t33.5 11.5q29 0 49.5 -18.5t20.5 -47.5v-2q0 -59 -94 -61q-84 0 -250 -6q-31 -2 -68 -9q0 -346 -28 -540q-18 -119 -66 -357l-24 -118q-10 -49 -11 -70 q0 -8 2 -10v-15q0 -68 -67 -67q-23 0 -41 8q-35 12 -35 57q0 33 23 60q14 16 47 155q39 176 59 351q25 209 29 393v129q-78 -12 -121 -82q-25 -31 -53.5 -31t-49 20.5t-20.5 49.5zM1751 1225q0 51 23 102q33 82 36 94q6 25 27 68q8 8 29 8q51 0 51 -57v-8q-2 -18 -25 -64 l-30 -63q-10 -57 -37 -129q-16 -20 -37 -21q-12 0 -21 8q-16 13 -16 62zM1759 162q0 74 6 184l15 258q0 53 10 158q10 76 55 76h4q63 0 64 -78v-12l-8 -91l-31 -303q-10 -94 -10 -104v-39q0 -63 20 -109q4 -10 4 -24q0 -68 -55 -68q-51 0 -68 56q-6 24 -6 96z" />
<glyph unicode="&#xfb04;" horiz-adv-x="2033" d="M55 418q0 25 51 74q35 31 103 57q35 12 88 22v56v28q2 23 2 33q4 438 129 627q96 145 258 145q156 0 184 -69q4 -14 4 -27v-10q-10 -37 -43 -37q-20 0 -38 10q-29 16 -35 19q-47 16 -82 16q-135 0 -207 -195q-63 -174 -63 -458q0 -14 2 -23q0 -16 2 -47v-47 q100 14 215 14q82 0 95 11.5t34 11.5q29 0 49 -18.5t20 -47.5v-2q0 -59 -94 -61q-84 0 -250 -6q-31 -2 -67 -9q0 -346 -29 -540q-18 -119 -66 -357l-24 -118q-10 -49 -10 -70q0 -8 2 -10v-15q0 -68 -68 -67q-23 0 -41 8q-35 12 -35 57q0 33 23 60q14 16 47 155 q39 176 59 351q25 209 29 393v129q-78 -12 -121 -82q-25 -31 -53.5 -31t-49 20.5t-20.5 49.5zM854 418q0 25 51 74q35 31 103 57q35 12 88 22v56v28q2 23 2 33q4 438 129 627q96 145 258 145q156 0 184 -69q4 -14 4 -27v-10q-10 -37 -43 -37q-20 0 -39 10q-29 16 -35 19 q-47 16 -81 16q-135 0 -207 -195q-63 -174 -64 -458q0 -14 2 -23q0 -16 2 -47v-47q100 14 215 14q82 0 95.5 11.5t33.5 11.5q29 0 49.5 -18.5t20.5 -47.5v-2q0 -59 -94 -61q-84 0 -250 -6q-31 -2 -68 -9q0 -346 -28 -540q-18 -119 -66 -357l-24 -118q-10 -49 -11 -70 q0 -8 2 -10v-15q0 -68 -67 -67q-23 0 -41 8q-35 12 -35 57q0 33 23 60q14 16 47 155q39 176 59 351q25 209 29 393v129q-78 -12 -121 -82q-25 -31 -53.5 -31t-49 20.5t-20.5 49.5zM1739 68q0 215 47 716q6 78 20 217q10 121 19 242q20 209 39 223q25 25 45 25q45 0 63 -51 q4 -12 4 -35q0 -37 -22 -195l-29 -188q-47 -332 -61 -561q-8 -143 -9 -266q0 -35 3.5 -95.5t3.5 -85.5v-28q0 -104 -50 -105q-25 0 -49 18.5t-24 168.5z" />
</font>
</defs>
</svg>
