<?xml version="1.0" standalone="no"?>
<!DOCTYPE svg PUBLIC "-//W3C//DTD SVG 1.1//EN" "http://www.w3.org/Graphics/SVG/1.1/DTD/svg11.dtd" >
<svg xmlns="http://www.w3.org/2000/svg">
<metadata>
This is a custom SVG webfont generated by Font Squirrel.
Copyright   : Copyright c 2007 by the National Football League All rights reserved
Designer    : Chester Jenkins
Foundry     : Bespoke type by Village for the National Football League
</metadata>
<defs>
<font id="webfont9DqcIwJf" horiz-adv-x="747" >
<font-face units-per-em="2048" ascent="1638" descent="-410" />
<missing-glyph horiz-adv-x="286" />
<glyph unicode=" "  horiz-adv-x="286" />
<glyph unicode="&#x09;" horiz-adv-x="286" />
<glyph unicode="&#xa0;" horiz-adv-x="286" />
<glyph unicode="!" horiz-adv-x="436" d="M131 440l-65 994h303l-66 -994h-172zM63 135.5q0 65.5 44.5 109.5t110 44t110.5 -45t45 -109q0 -66 -45 -110.5t-111 -44.5q-63 0 -108.5 45t-45.5 110.5z" />
<glyph unicode="&#x22;" horiz-adv-x="718" d="M117 942l-39 492h241l-38 -492h-164zM438 942l-39 492h242l-39 -492h-164z" />
<glyph unicode="#" horiz-adv-x="962" d="M57 1065h156v348h193v-348h151v348h193v-348h155v-193h-155v-331h155v-193h-155v-348h-193v348h-151v-348h-193v348h-156v193h156v331h-156v193zM406 872v-331h151v331h-151z" />
<glyph unicode="$" horiz-adv-x="694" d="M303 381q123 0 123 108q0 59 -30.5 88t-110.5 64q-135 55 -187.5 116.5t-52.5 166.5q0 131 75 212t224 85l62 192h157l-71 -205q59 -10 124 -43l-30 -186q-113 53 -203 53q-111 0 -111 -98q0 -51 26 -73.5t105 -55.5q137 -57 193.5 -118.5t56.5 -188.5q0 -129 -75.5 -216 t-251.5 -89l-62 -193h-158l72 205q-74 14 -147 57l32 189q136 -70 240 -70z" />
<glyph unicode="%" horiz-adv-x="1478" d="M244 1141v-152q0 -74 23.5 -104.5t82.5 -30.5q57 0 82 32t25 103v152q0 72 -24.5 103.5t-82.5 31.5q-59 0 -82.5 -30.5t-23.5 -104.5zM645 1153v-176q0 -141 -71.5 -211t-223 -70t-223.5 70t-72 211v176q0 141 72 211t223.5 70t223 -70t71.5 -211zM434 0h-209l819 1425 h209zM1235 272v152q0 74 -23.5 104.5t-83.5 30.5q-57 0 -81.5 -31.5t-24.5 -103.5v-152q0 -72 24.5 -103.5t81.5 -31.5q59 0 83 30.5t24 104.5zM834 260v176q0 141 71.5 211t223 70t223 -69.5t71.5 -211.5v-176q0 -141 -71.5 -210.5t-223 -69.5t-223 69.5t-71.5 210.5z" />
<glyph unicode="&#x26;" horiz-adv-x="1003" d="M709 1155q0 -68 -20.5 -126t-67 -113.5t-77 -85t-95.5 -85.5q66 -131 190 -286q49 174 45 401h223q0 -336 -104 -571q102 -98 160 -148l-162 -161l-125 118q-119 -119 -281 -118q-360 0 -360 407q0 225 158 383q-76 182 -76 338q0 346 307 346q158 0 221.5 -76t63.5 -223 zM528 252q-139 170 -227 323q-39 -76 -39 -186t36 -155.5t105 -45.5q68 1 125 64zM334 1116q0 -90 35 -201q133 117 133 236q0 109 -78 109q-90 -1 -90 -144z" />
<glyph unicode="'" horiz-adv-x="399" d="M117 942l-39 492h241l-38 -492h-164z" />
<glyph unicode="(" horiz-adv-x="491" d="M287 614.5q0 -288.5 47 -490.5t127 -390h-193q-205 381 -205 880.5t205 880.5h193q-80 -188 -127 -390t-47 -490.5z" />
<glyph unicode=")" horiz-adv-x="491" d="M205 614.5q0 288.5 -47 490.5t-127 390h192q205 -381 205 -880.5t-205 -880.5h-192q80 188 127 390t47 490.5z" />
<glyph unicode="*" horiz-adv-x="679" d="M57 1182l35 106l176 -33l27 179h111l24 -179l176 33l35 -106l-162 -80l86 -158l-90 -65l-125 129l-125 -129l-90 65l84 158z" />
<glyph unicode="+" horiz-adv-x="1126" d="M61 803h406v405h192v-405h406v-193h-406v-405h-192v405h-406v193z" />
<glyph unicode="," horiz-adv-x="425" d="M371 129q0 -193 -215 -397l-93 67q78 78 78 133q0 43 -40 98.5t-40 104.5q0 66 45.5 110t108.5 44q66 0 111 -46t45 -114z" />
<glyph unicode="-" horiz-adv-x="503" d="M430 702v-178h-356v178h356z" />
<glyph unicode="." horiz-adv-x="425" d="M61 135.5q0 65.5 45.5 109.5t108.5 44q66 0 111 -45t45 -109q0 -66 -46 -110.5t-109.5 -44.5t-109 45t-45.5 110.5z" />
<glyph unicode="/" horiz-adv-x="704" d="M250 -37h-219l424 1507h219z" />
<glyph unicode="0" horiz-adv-x="817" d="M299 1104v-795q0 -76 24.5 -108.5t86.5 -32.5q59 0 83.5 32.5t24.5 108.5v795q0 78 -24.5 109.5t-83.5 31.5q-61 0 -86 -31.5t-25 -109.5zM750 1122v-831q0 -158 -81 -234.5t-259 -76.5q-180 0 -261 76.5t-81 234.5v831q0 158 80.5 235t261.5 77q178 0 259 -77t81 -235z " />
<glyph unicode="1" horiz-adv-x="538" d="M420 1434v-1434h-234v1227l-149 -10v163l217 54h166z" />
<glyph unicode="2" horiz-adv-x="778" d="M385 1434q334 0 334 -326v-64q0 -72 -18.5 -129t-70.5 -118.5t-79 -85.5l-109 -97q-100 -86 -129.5 -175t-29.5 -246l434 4v-197h-668v113q0 266 52.5 398t215.5 267q88 72 128 126t40 122v64q0 70 -27.5 100.5t-101.5 30.5q-102 0 -221 -58l-78 193q146 78 328 78z" />
<glyph unicode="3" horiz-adv-x="800" d="M743 301q0 -322 -356 -321q-195 0 -336 81l76 191q127 -59 231 -59q84 0 119 31.5t35 99.5v178q0 88 -31.5 121.5t-103.5 33.5h-156v177h150q61 0 89.5 33.5t28.5 113.5v109q0 68 -27.5 99.5t-101.5 31.5q-100 0 -223 -58l-76 193q141 78 328 78q334 0 334 -326v-113 q0 -180 -123 -243q143 -55 143 -263v-188z" />
<glyph unicode="4" horiz-adv-x="786" d="M31 516l364 918h228v-897h129v-175h-129v-362h-234v362h-358v154zM211 535l178 2l8 499z" />
<glyph unicode="5" horiz-adv-x="811" d="M516 322v290q0 72 -23.5 99.5t-82.5 27.5q-100 0 -160 -75l-166 36v719h635v-207h-420v-350q82 72 217 72q102 0 167 -63.5t65 -204.5v-367q0 -152 -91.5 -235.5t-269.5 -83.5q-201 0 -350 83l78 193q137 -63 250 -63q151 0 151 129z" />
<glyph unicode="6" horiz-adv-x="811" d="M752 281q0 -301 -346.5 -301t-346.5 301v436q2 297 101.5 463t312.5 266l244 -62v-30q-203 -86 -311.5 -200t-118.5 -302q98 82 219 82q246 0 246 -277v-376zM524 307v318q0 119 -90 118q-92 0 -147 -67v-369q0 -72 27.5 -104.5t91 -32.5t91 32.5t27.5 104.5z" />
<glyph unicode="7" horiz-adv-x="724" d="M696 1413v-160q-74 -133 -123 -274t-73.5 -245.5t-36.5 -257t-13 -230.5t-1 -246h-261q0 702 271 1217l-426 -5v201h663z" />
<glyph unicode="8" horiz-adv-x="808" d="M520 307v209q0 82 -26.5 115t-90.5 33q-61 0 -87.5 -34t-26.5 -114v-209q0 -78 26.5 -110.5t88 -32.5t89 33.5t27.5 109.5zM403 827q51 0 74 31t23 107v147q0 74 -22.5 105.5t-74.5 31.5q-49 0 -71.5 -31.5t-22.5 -105.5v-147q0 -76 22.5 -107t71.5 -31zM403.5 -20 q-178.5 0 -260.5 76.5t-82 232.5v198q0 199 134 267q-113 63 -113 239v135q0 152 75.5 229t245.5 77t246 -77t76 -229v-135q0 -176 -113 -239q135 -70 136 -267v-198q0 -156 -83 -232.5t-261.5 -76.5z" />
<glyph unicode="9" horiz-adv-x="811" d="M59 1133q0 301 346.5 301t346.5 -301v-410q0 -309 -98.5 -482t-315.5 -274l-244 62v30q201 84 310.5 199t117.5 303q-92 -82 -217 -82q-246 0 -246 277v377zM287 1106v-318q0 -119 90 -118q92 0 147 67v369q0 72 -27.5 104.5t-91 32.5t-91 -32.5t-27.5 -104.5z" />
<glyph unicode=":" horiz-adv-x="425" d="M61 135.5q0 65.5 45.5 109.5t108.5 44q66 0 111 -45t45 -109q0 -66 -46 -110.5t-109.5 -44.5t-109 45t-45.5 110.5zM61 809q0 63 45.5 108.5t108.5 45.5q66 0 111 -45.5t45 -109t-46 -109.5t-109.5 -46t-109 45t-45.5 111z" />
<glyph unicode=";" horiz-adv-x="425" d="M61 809q0 63 45.5 108.5t108.5 45.5q66 0 111 -45.5t45 -109t-46 -109.5t-109.5 -46t-109 45t-45.5 111zM371 129q0 -193 -215 -397l-93 67q78 78 78 133q0 43 -40 98.5t-40 104.5q0 66 45.5 110t108.5 44q66 0 111 -46t45 -114z" />
<glyph unicode="&#x3c;" horiz-adv-x="1126" d="M1065 205l-1004 397v217l1004 398v-216l-750 -290l750 -291v-215z" />
<glyph unicode="=" horiz-adv-x="1126" d="M61 598h1004v-192h-1004v192zM61 1008h1004v-193h-1004v193z" />
<glyph unicode="&#x3e;" horiz-adv-x="1126" d="M1065 602l-1004 -397v215l750 291l-750 290v216l1004 -398v-217z" />
<glyph unicode="?" horiz-adv-x="645" d="M360 440h-135q-53 104 -54 218t71 219q131 164 131 260q0 117 -117 116q-70 0 -162 -53l-59 184q113 70 268 70q166 0 238.5 -84t72.5 -221q0 -57 -14 -106.5t-51 -100.5t-55.5 -72.5t-71.5 -76.5q-119 -130 -62 -353zM139 135.5q0 65.5 45 109.5t109 44q66 0 111 -45 t45 -109q0 -66 -46.5 -110.5t-110 -44.5t-108.5 45t-45 110.5z" />
<glyph unicode="@" horiz-adv-x="1343" d="M989 240q104 2 137 95t33 316q0 121 -9 197t-37 142.5t-79 100t-135 53t-207 19.5q-154 0 -252 -36.5t-151 -121.5t-73.5 -197t-20.5 -286t20.5 -285.5t73.5 -196.5t151.5 -122t251.5 -37q279 0 477 76l39 -113q-193 -90 -516 -90q-360 0 -501.5 184.5t-141.5 584 t141.5 583.5t501.5 184q184 0 304 -40t184.5 -127t89 -199.5t24.5 -282.5q0 -96 -5 -160.5t-24.5 -140.5t-54 -121t-99 -75.5t-155.5 -30.5h-174v90q-72 -111 -219 -111q-94 0 -153.5 48t-59.5 147v471q0 98 59.5 146t153.5 48q147 0 219 -110v90h207v-692zM764 688 q-41 61 -111 62q-76 0 -75 -82v-291q0 -82 75 -82q70 0 111 61v332z" />
<glyph unicode="A" horiz-adv-x="794" d="M293 301l-33 -301h-240l209 1434h336l209 -1434h-239l-33 301h-209zM397 1229l-82 -733h164z" />
<glyph unicode="B" horiz-adv-x="839" d="M805 481v-63q0 -211 -78 -314.5t-301 -103.5h-354v1434h321q219 0 299 -96.5t80 -293.5v-40q0 -170 -125 -248q158 -78 158 -275zM569 385q0 158 -28.5 213t-137.5 55h-96v-454h109q90 0 121.5 41t31.5 145zM535 1018q0 125 -28 171t-120 46h-80v-393h68q86 0 123 41 t37 135z" />
<glyph unicode="C" horiz-adv-x="716" d="M63 334v766q0 172 84 263t283 91q158 0 270 -72l-82 -198q-100 53 -165 53q-78 0 -115 -34t-37 -111v-750q0 -78 37 -111.5t115 -33.5q66 0 165 53l82 -199q-113 -72 -270 -71q-199 0 -283 91t-84 263z" />
<glyph unicode="D" horiz-adv-x="854" d="M551 403v627q0 111 -32 156t-122 45h-90v-1028h90q90 0 122 44.5t32 155.5zM788 1073v-711q0 -176 -87 -269t-293 -93h-336v1434h336q207 0 293.5 -92.5t86.5 -268.5z" />
<glyph unicode="E" horiz-adv-x="755" d="M705 0h-633v1434h633v-203h-398v-402h309v-200h-309v-426h398v-203z" />
<glyph unicode="F" horiz-adv-x="696" d="M72 1434h583v-203h-348v-438h279v-201h-279v-592h-235v1434z" />
<glyph unicode="G" horiz-adv-x="823" d="M422 195q70 0 108 47v354h-110v176h336v-772h-148l-18 70q-78 -90 -242 -90q-285 0 -285 352v751q0 371 408 371q180 0 299 -78l-80 -202q-115 57 -205 57q-184 0 -184 -174v-672q0 -106 26.5 -148t94.5 -42z" />
<glyph unicode="H" horiz-adv-x="878" d="M571 625h-264v-625h-235v1434h235v-600h264v600h236v-1434h-236v625z" />
<glyph unicode="I" horiz-adv-x="389" d="M78 0v1434h233v-1434h-233z" />
<glyph unicode="J" horiz-adv-x="534" d="M152 190q80 0 79 70v1174h238v-1196q0 -258 -268 -258q-123 0 -199 45l45 192q52 -27 105 -27z" />
<glyph unicode="K" horiz-adv-x="829" d="M307 0h-235v1434h235l-6 -635l238 635h260l-252 -600l268 -834h-262l-164 598l-88 -184z" />
<glyph unicode="L" horiz-adv-x="624" d="M604 0h-532v1434h235v-1231h297v-203z" />
<glyph unicode="M" horiz-adv-x="1107" d="M403 1434l150 -979l152 979h331v-1434h-221l27 1073l-166 -940h-246l-164 940l27 -1073h-221v1434h331z" />
<glyph unicode="N" horiz-adv-x="878" d="M807 0h-266l-275 995l33 -995h-227v1434h266l272 -996l-30 996h227v-1434z" />
<glyph unicode="O" horiz-adv-x="864" d="M305 1067v-700q0 -106 24.5 -145.5t102.5 -39.5t103.5 40t25.5 145v700q0 104 -25.5 144t-103.5 40t-102.5 -39t-24.5 -145zM799 1087v-741q0 -180 -82 -273t-285 -93t-284.5 94t-81.5 272v741q0 178 81.5 272.5t284.5 94.5t285 -93.5t82 -273.5z" />
<glyph unicode="P" horiz-adv-x="815" d="M307 496v-496h-235v1434h329q207 0 293 -92.5t86 -268.5v-217q0 -176 -86 -268t-293 -92h-94zM543 895q0 207 -19 260q-29 80 -135 80h-82v-541h82q90 0 122 45t32 156z" />
<glyph unicode="Q" horiz-adv-x="864" d="M799 1020v-674q0 -137 -41 -213q55 -20 92 -27l-43 -210q-121 27 -234 100q-61 -16 -141 -16q-92 0 -159.5 21.5t-106.5 56t-62.5 93t-30.5 119t-7 144.5v606q0 84 7 144.5t30.5 118.5t62.5 93t106.5 56.5t159.5 21.5t159.5 -21.5t106.5 -56.5t62.5 -93t31 -118.5 t7.5 -144.5zM305 1014v-647q0 -106 24.5 -145.5t102.5 -39.5q27 0 37 2l-40 49q-30 37 -44 58l98 127q33 -43 74 -80q4 45 4 76v600q0 143 -21.5 190t-107.5 47t-106.5 -47t-20.5 -190z" />
<glyph unicode="R" horiz-adv-x="880" d="M305 563v-563h-233v1434h372q119 0 196 -29t116 -89.5t53 -132t14 -175.5v-72q0 -258 -178 -330l209 -606h-270l-168 563h-111zM584 944q0 76 -1 112t-9.5 79t-25 59t-45 28.5t-73.5 12.5h-125v-475h125q90 0 122 41t32 143z" />
<glyph unicode="S" horiz-adv-x="768" d="M338 -20q-184 0 -320 96l80 196q117 -76 228 -75q164 0 163 174q0 150 -178 280q-137 98 -195.5 186.5t-58.5 235.5q0 182 95.5 281.5t283.5 99.5q160 0 271 -74l-82 -194q-102 51 -185 51q-143 0 -143 -156q0 -72 41 -126t123 -109q150 -100 210 -199.5t60 -263.5 q0 -201 -102.5 -302t-290.5 -101z" />
<glyph unicode="T" horiz-adv-x="733" d="M250 0v1231h-219v203h671v-203h-219v-1231h-233z" />
<glyph unicode="U" horiz-adv-x="851" d="M425.5 -20q-192.5 0 -274 88t-81.5 262v1104h235v-1082q0 -92 26.5 -128t94.5 -36t95.5 36t27.5 128v1082h233v-1104q0 -174 -82 -262t-274.5 -88z" />
<glyph unicode="V" horiz-adv-x="794" d="M397 244l142 1190h235l-211 -1434h-332l-211 1434h236z" />
<glyph unicode="W" horiz-adv-x="1187" d="M158 0l-131 1434h233l70 -1168l123 1168h282l123 -1168l70 1168h233l-131 -1434h-325l-111 1165l-111 -1165h-325z" />
<glyph unicode="X" horiz-adv-x="825" d="M782 1434l-202 -689l223 -745h-248l-141 561l-142 -561h-247l223 745l-203 689h244l125 -555l125 555h243z" />
<glyph unicode="Y" horiz-adv-x="798" d="M266 1434l133 -703l133 703h250l-268 -994l8 -440h-246l9 440l-269 994h250z" />
<glyph unicode="Z" horiz-adv-x="757" d="M690 1208l-418 -991l447 4v-221h-692v225l417 992l-391 -5v222h637v-226z" />
<glyph unicode="[" horiz-adv-x="466" d="M63 1495h351v-158h-154v-1446h154v-157h-351v1761z" />
<glyph unicode="\" horiz-adv-x="704" d="M682 -61h-219l-440 1556h219z" />
<glyph unicode="]" horiz-adv-x="466" d="M53 1495h350v-1761h-350v157h154v1446h-154v158z" />
<glyph unicode="^" horiz-adv-x="1126" d="M53 614l404 820h213l403 -820h-215l-295 609l-295 -609h-215z" />
<glyph unicode="_" horiz-adv-x="1024" d="M932 -219v-170h-840v170h840z" />
<glyph unicode="`" horiz-adv-x="647" d="M336 1434l80 -287h-185l-139 287h244z" />
<glyph unicode="a" d="M27 319q0 188 107.5 269.5t322.5 81.5v104q0 61 -24.5 85t-94.5 24q-111 0 -232 -66l-59 182q154 86 322 86q174 0 245.5 -65.5t71.5 -192.5v-827h-211v94q-74 -115 -219 -114q-229 -1 -229 339zM258 338q0 -150 88 -150q66 0 111 62v256q-111 -2 -155 -37t-44 -131z" />
<glyph unicode="b" horiz-adv-x="778" d="M492 266v533q0 80 -80 80q-74 0 -115 -62v-569q41 -61 115 -62q80 0 80 80zM721 893v-721q0 -98 -60.5 -145t-156.5 -47q-133 0 -225 110v-90h-211v1495h229v-502q78 92 207 92q96 0 156.5 -47t60.5 -145z" />
<glyph unicode="c" horiz-adv-x="645" d="M383 -20q-326 0 -326 303v499q0 303 322 303q147 0 237 -61l-57 -186q-80 43 -149 43q-68 0 -95.5 -29t-27.5 -98v-437q0 -72 27.5 -99.5t93.5 -27.5q78 0 151 43l57 -192q-90 -61 -233 -61z" />
<glyph unicode="d" horiz-adv-x="778" d="M287 799v-533q0 -80 80 -80q74 0 114 62v569q-41 61 -114 62q-80 0 -80 -80zM57 172v721q0 98 60.5 145t156.5 47q131 0 207 -92v502h230v-1495h-211v90q-92 -111 -226 -110q-96 0 -156.5 47t-60.5 145z" />
<glyph unicode="e" horiz-adv-x="763" d="M406 -20q-186 0 -267.5 76.5t-81.5 244.5v483q0 152 79 226.5t245 74.5q322 0 321 -292v-355h-417v-104q0 -88 28.5 -121t112.5 -33q123 0 229 60l58 -181q-137 -79 -307 -79zM285 614h194v156q0 74 -22.5 100.5t-75.5 26.5t-74.5 -26.5t-21.5 -100.5v-156z" />
<glyph unicode="f" horiz-adv-x="530" d="M502 881h-152v-881h-229v881h-111v166l111 16v221q0 117 70.5 174.5t183.5 57.5q88 0 155 -27v-184q-51 18 -98 18q-82 0 -82 -72v-186h152v-184z" />
<glyph unicode="g" horiz-adv-x="778" d="M481 -98v198q-84 -102 -207 -102q-96 0 -156.5 46t-60.5 146v703q0 98 60.5 145t156.5 47q74 0 123 -25.5t101 -84.5v90h213v-1163q0 -160 -85 -236t-276 -76q-182 0 -309 82l72 168q115 -59 209 -59q84 0 121.5 27.5t37.5 93.5zM287 799v-516q0 -80 80 -80q74 0 114 61 v553q-41 61 -114 62q-80 0 -80 -80z" />
<glyph unicode="h" horiz-adv-x="784" d="M422 879q-72 0 -125 -68v-811h-229v1495h229v-508q98 98 231 98q193 0 193 -192v-893h-229v799q0 43 -16.5 61.5t-53.5 18.5z" />
<glyph unicode="i" horiz-adv-x="376" d="M74 1065h229v-1065h-229v1065zM39 1337.5q0 61.5 41 101.5t108.5 40t108.5 -40t41 -101.5t-41 -101.5t-108.5 -40t-108.5 40t-41 101.5z" />
<glyph unicode="j" horiz-adv-x="376" d="M4 -217q70 0 70 65v1217h229v-1260q0 -215 -240 -215q-92 0 -157 27v184q51 -18 98 -18zM39 1337.5q0 61.5 41 101.5t108.5 40t108.5 -40t41 -101.5t-41 -101.5t-108.5 -40t-108.5 40t-41 101.5z" />
<glyph unicode="k" horiz-adv-x="770" d="M756 1065l-246 -422l258 -643h-254l-154 457l-77 -121l6 -336h-226v1495h232l-14 -874l217 444h258z" />
<glyph unicode="l" horiz-adv-x="376" d="M74 1495h229v-1495h-229v1495z" />
<glyph unicode="m" horiz-adv-x="1185" d="M481 0v799q0 80 -65.5 80t-118.5 -68v-811h-229v1065h211v-96q94 117 243 116q141 0 176 -108q94 109 238 108q188 0 188 -192v-893h-231v799q0 43 -14.5 61.5t-49.5 18.5q-66 0 -118 -68v-811h-230z" />
<glyph unicode="n" horiz-adv-x="784" d="M297 811v-811h-229v1065h211v-96q96 117 249 116q193 0 193 -192v-893h-229v799q0 43 -16.5 61.5t-53.5 18.5q-72 0 -125 -68z" />
<glyph unicode="o" horiz-adv-x="759" d="M381 174q51 0 72.5 26.5t21.5 98.5v467q0 72 -21.5 98.5t-72.5 26.5q-53 0 -74.5 -26.5t-21.5 -98.5v-467q0 -72 21.5 -98.5t74.5 -26.5zM381 -20q-324 0 -324 292v521q0 293 324 292q322 0 321 -292v-521q1 -292 -321 -292z" />
<glyph unicode="p" horiz-adv-x="778" d="M492 266v533q0 80 -80 80q-74 0 -115 -62v-569q41 -61 115 -62q80 0 80 80zM721 893v-721q0 -98 -60.5 -145t-156.5 -47q-129 0 -207 92v-461h-229v1454h211v-90q92 111 225 110q96 0 156.5 -47t60.5 -145z" />
<glyph unicode="q" horiz-adv-x="778" d="M287 799v-533q0 -80 80 -80q74 0 114 62v569q-41 61 -114 62q-80 0 -80 -80zM57 172v721q0 98 60.5 145t156.5 47q133 0 226 -110v90h211v-1454h-230v461q-76 -92 -207 -92q-96 0 -156.5 47t-60.5 145z" />
<glyph unicode="r" horiz-adv-x="542" d="M526 1065v-227q-31 14 -77 14q-96 0 -152 -72v-780h-229v1065h211v-96q66 117 178 116q44 0 69 -20z" />
<glyph unicode="s" horiz-adv-x="651" d="M16 57l62 187q109 -66 205 -66q111 0 110 107q0 53 -29.5 91t-105.5 83q-121 59 -170 129.5t-49 181.5q0 139 75.5 227t239.5 88q152 0 250 -61l-59 -186q-94 49 -176 49q-102 0 -103 -92q0 -53 31 -86t102 -70q117 -61 168 -132t51 -204q0 -324 -333 -323 q-142 -1 -269 77z" />
<glyph unicode="t" horiz-adv-x="552" d="M520 881h-168v-641q0 -68 70 -68q45 0 96 18v-184q-68 -27 -158 -26q-238 0 -237 215v686h-111v166l111 16v199l229 30v-227h168v-184z" />
<glyph unicode="u" horiz-adv-x="784" d="M487 254v811h230v-1065h-211v96q-100 -117 -250 -116q-195 0 -195 192v893h232v-799q0 -43 16.5 -61.5t52.5 -18.5q72 0 125 68z" />
<glyph unicode="v" horiz-adv-x="745" d="M373 217l121 848h231l-193 -1065h-319l-193 1065h232z" />
<glyph unicode="w" horiz-adv-x="1064" d="M647 1065l121 -813l47 813h221l-104 -1065h-309l-91 719l-90 -719h-309l-104 1065h221l47 -813l121 813h229z" />
<glyph unicode="x" d="M256 0h-244l191 557l-172 508h241l101 -385l100 385h242l-172 -508l190 -557h-244l-116 403z" />
<glyph unicode="y" horiz-adv-x="774" d="M393 317l119 748h242l-222 -954l-110 -500h-244l103 395l-261 1059h244z" />
<glyph unicode="z" horiz-adv-x="716" d="M51 1065h621v-223l-389 -631l399 6v-217h-647v223l389 631l-373 -6v217z" />
<glyph unicode="{" horiz-adv-x="618" d="M207 16v346q0 100 -28.5 137.5t-112.5 37.5h-21v155h21q84 0 112.5 37t28.5 137v346q0 145 63.5 214t231.5 69h63v-158h-20q-84 0 -113 -36.5t-29 -137.5v-327q0 -162 -90 -222q90 -61 90 -221v-327q0 -100 29 -137.5t113 -37.5h20v-157h-63q-168 0 -231.5 68.5 t-63.5 213.5z" />
<glyph unicode="|" horiz-adv-x="339" d="M72 1495h196v-1761h-196v1761z" />
<glyph unicode="}" horiz-adv-x="618" d="M412 1212v-346q0 -100 28.5 -137t112.5 -37h20v-155h-20q-84 0 -112.5 -37t-28.5 -138v-346q0 -145 -63.5 -213.5t-231.5 -68.5h-64v157h21q84 0 112.5 37t28.5 138v327q0 160 90 221q-90 59 -90 222v327q0 100 -28.5 137t-112.5 37h-21v158h64q168 0 231.5 -69 t63.5 -214z" />
<glyph unicode="~" horiz-adv-x="1024" d="M309 563q-102 0 -194 -63l-58 182q115 80 252 80q94 0 217 -49t187 -49q104 0 196 63l58 -182q-115 -80 -252 -80q-94 0 -218.5 49t-187.5 49z" />
<glyph unicode="&#xa1;" horiz-adv-x="436" d="M305 625l66 -1014h-303l65 1014h172zM373 929.5q0 -65.5 -45 -109.5t-109 -44q-66 0 -111 45t-45 109q0 66 46.5 110.5t110 44.5t108.5 -45t45 -110.5z" />
<glyph unicode="&#xa2;" horiz-adv-x="614" d="M279 909v-405q0 -76 20 -102.5t75.5 -26.5t76 26.5t20.5 102.5l-2 86h223q4 -33 4 -109q0 -152 -74.5 -224.5t-246.5 -72.5h-21l-57 -184h-158l72 207q-158 57 -158 268v463q0 145 75 218t247 73h8l61 184h158l-74 -205q168 -53 168 -276l-4 -109h-223q2 39 2 86 q0 76 -20.5 102.5t-76 26.5t-75.5 -26.5t-20 -102.5z" />
<glyph unicode="&#xa8;" horiz-adv-x="647" d="M291 1331.5q0 -61.5 -36 -99.5t-97.5 -38t-97 38t-35.5 99.5t35.5 99t97 37.5t97.5 -37.5t36 -99zM623 1331.5q0 -61.5 -36 -99.5t-97.5 -38t-97.5 38t-36 99.5t36 99t97.5 37.5t97.5 -37.5t36 -99z" />
<glyph unicode="&#xa9;" horiz-adv-x="1179" d="M1118 706.5q0 -288.5 -56 -447.5t-167 -219t-305.5 -60t-305 60t-167 219t-56.5 447.5t56.5 447.5t167 219.5t305 60.5t305.5 -60.5t167 -219.5t56 -447.5zM973 706.5q0 354.5 -82 477.5t-301 123t-301 -123t-82 -477.5t82 -477.5t301 -123t301 123t82 477.5zM528 578 q0 -66 26 -91.5t83 -25.5q66 0 135 37l51 -166q-78 -55 -205 -56q-289 0 -288 273v315q0 272 284 273q131 0 209 -56l-51 -161q-70 37 -133 36q-59 0 -85 -26.5t-26 -91.5v-260z" />
<glyph unicode="&#xaa;" d="M27 319q0 188 107.5 269.5t322.5 81.5v104q0 61 -24.5 85t-94.5 24q-111 0 -232 -66l-59 182q154 86 322 86q174 0 245.5 -65.5t71.5 -192.5v-827h-211v94q-74 -115 -219 -114q-229 -1 -229 339zM258 338q0 -150 88 -150q66 0 111 62v256q-111 -2 -155 -37t-44 -131z" />
<glyph unicode="&#xab;" horiz-adv-x="589" d="M61 723l213 141v-157l-88 -93l88 -92v-157l-213 141v217zM315 723l213 182v-168l-88 -123l88 -122v-168l-213 182v217z" />
<glyph unicode="&#xad;" horiz-adv-x="503" d="M430 702v-178h-356v178h356z" />
<glyph unicode="&#xae;" horiz-adv-x="417" d="M381 1249q0 -133 -39 -177t-133 -44t-133 44t-39 177t39 177t133 44t133 -44t39 -177zM340 1249.5q0 114.5 -27.5 149.5t-103.5 35t-103.5 -35t-27.5 -149.5t27.5 -149.5t103.5 -35t103.5 35t27.5 149.5zM182 1217v-111h-53v287h82q86 0 86 -86v-9q0 -61 -39 -75l41 -117 h-59l-31 111h-27zM244 1303v8q0 39 -35 39h-27v-90h27q20 0 27.5 9t7.5 34z" />
<glyph unicode="&#xaf;" horiz-adv-x="647" d="M76 1407h495v-180h-495v180z" />
<glyph unicode="&#xb0;" horiz-adv-x="573" d="M420 1198q0 55 -39 94t-94.5 39t-94 -39t-38.5 -94t38.5 -94t94 -39t94.5 39t39 94zM51 1198q0 96 69.5 166t166 70t166 -70t69.5 -166t-69.5 -165.5t-166 -69.5t-166 69.5t-69.5 165.5z" />
<glyph unicode="&#xb1;" horiz-adv-x="1126" d="M61 950h406v316h192v-316h406v-192h-406v-316h-192v316h-406v192zM61 340h1004v-193h-1004v193z" />
<glyph unicode="&#xb2;" horiz-adv-x="778" d="M385 1434q334 0 334 -326v-64q0 -72 -18.5 -129t-70.5 -118.5t-79 -85.5l-109 -97q-100 -86 -129.5 -175t-29.5 -246l434 4v-197h-668v113q0 266 52.5 398t215.5 267q88 72 128 126t40 122v64q0 70 -27.5 100.5t-101.5 30.5q-102 0 -221 -58l-78 193q146 78 328 78z" />
<glyph unicode="&#xb3;" horiz-adv-x="800" d="M743 301q0 -322 -356 -321q-195 0 -336 81l76 191q127 -59 231 -59q84 0 119 31.5t35 99.5v178q0 88 -31.5 121.5t-103.5 33.5h-156v177h150q61 0 89.5 33.5t28.5 113.5v109q0 68 -27.5 99.5t-101.5 31.5q-100 0 -223 -58l-76 193q141 78 328 78q334 0 334 -326v-113 q0 -180 -123 -243q143 -55 143 -263v-188z" />
<glyph unicode="&#xb4;" horiz-adv-x="647" d="M231 1147l80 287h244l-139 -287h-185z" />
<glyph unicode="&#xb7;" horiz-adv-x="425" d="M57 614q0 66 45 111t111 45q63 0 108.5 -45t45.5 -110.5t-44 -109.5t-110 -44t-111 45t-45 108z" />
<glyph unicode="&#xb8;" horiz-adv-x="647" d="M383 -229q0 68 -125 98l39 131h84l-23 -78q178 -47 179 -176q0 -74 -53.5 -115t-151.5 -41q-96 0 -166 33l35 105q45 -20 96 -21q86 1 86 64z" />
<glyph unicode="&#xb9;" horiz-adv-x="538" d="M420 1434v-1434h-234v1227l-149 -10v163l217 54h166z" />
<glyph unicode="&#xba;" horiz-adv-x="759" d="M381 174q51 0 72.5 26.5t21.5 98.5v467q0 72 -21.5 98.5t-72.5 26.5q-53 0 -74.5 -26.5t-21.5 -98.5v-467q0 -72 21.5 -98.5t74.5 -26.5zM381 -20q-324 0 -324 292v521q0 293 324 292q322 0 321 -292v-521q1 -292 -321 -292z" />
<glyph unicode="&#xbb;" horiz-adv-x="589" d="M528 506l-213 -141v157l88 92l-88 93v157l213 -141v-217zM274 506l-213 -182v168l89 122l-89 123v168l213 -182v-217z" />
<glyph unicode="&#xbc;" horiz-adv-x="2394" d="M1639 516l364 918h228v-897h129v-175h-129v-362h-234v362h-358v154zM1819 535l178 2l8 499zM768 0h-209l820 1425h209zM420 1434v-1434h-234v1227l-149 -10v163l217 54h166z" />
<glyph unicode="&#xbd;" horiz-adv-x="2385" d="M1993 1434q334 0 334 -326v-64q0 -72 -18.5 -129t-70.5 -118.5t-79 -85.5l-109 -97q-100 -86 -129.5 -175t-29.5 -246l434 4v-197h-668v113q0 266 52.5 398t215.5 267q88 72 128 126t40 122v64q0 70 -27.5 100.5t-101.5 30.5q-102 0 -221 -58l-78 193q146 78 328 78z M768 0h-209l820 1425h209zM420 1434v-1434h-234v1227l-149 -10v163l217 54h166z" />
<glyph unicode="&#xbe;" horiz-adv-x="2656" d="M1901 516l364 918h228v-897h129v-175h-129v-362h-234v362h-358v154zM2081 535l178 2l8 499zM1030 0h-209l820 1425h209zM743 301q0 -322 -356 -321q-195 0 -336 81l76 191q127 -59 231 -59q84 0 119 31.5t35 99.5v178q0 88 -31.5 121.5t-103.5 33.5h-156v177h150 q61 0 89.5 33.5t28.5 113.5v109q0 68 -27.5 99.5t-101.5 31.5q-100 0 -223 -58l-76 193q141 78 328 78q334 0 334 -326v-113q0 -180 -123 -243q143 -55 143 -263v-188z" />
<glyph unicode="&#xbf;" horiz-adv-x="645" d="M287 625h133q53 -104 54 -219t-71 -220q-129 -162 -129 -270q0 -125 115 -125q70 0 164 53l57 -184q-109 -70 -268 -70q-166 0 -238.5 87t-72.5 227q0 78 33.5 151.5t63.5 110.5t93 106q123 130 66 353zM203 932q0 63 44 108t109.5 45t110.5 -45t45 -108.5t-45 -109.5 t-111 -46q-63 0 -108 45t-45 111z" />
<glyph unicode="&#xc0;" horiz-adv-x="794" d="M408 1802l79 -286h-184l-139 286h244zM293 301l-33 -301h-240l209 1434h336l209 -1434h-239l-33 301h-209zM397 1229l-82 -733h164z" />
<glyph unicode="&#xc1;" horiz-adv-x="794" d="M307 1516l80 286h244l-139 -286h-185zM293 301l-33 -301h-240l209 1434h336l209 -1434h-239l-33 301h-209zM397 1229l-82 -733h164z" />
<glyph unicode="&#xc2;" horiz-adv-x="794" d="M508 1802l160 -286h-174l-97 126l-96 -126h-174l160 286h221zM293 301l-33 -301h-240l209 1434h336l209 -1434h-239l-33 301h-209zM397 1229l-82 -733h164z" />
<glyph unicode="&#xc3;" horiz-adv-x="794" d="M532 1700q66 0 66 76h102q0 -139 -43 -194.5t-127 -55.5q-59 0 -143 52t-125 52q-66 0 -65 -76h-103q0 139 43 194.5t127 55.5q59 0 143 -52t125 -52zM293 301l-33 -301h-240l209 1434h336l209 -1434h-239l-33 301h-209zM397 1229l-82 -733h164z" />
<glyph unicode="&#xc4;" horiz-adv-x="794" d="M365 1699.5q0 -61.5 -36 -99t-97.5 -37.5t-97.5 37.5t-36 99t36 99.5t97.5 38t97.5 -38t36 -99.5zM696 1699.5q0 -61.5 -35.5 -99t-97 -37.5t-97.5 37.5t-36 99t36 99.5t97.5 38t97 -38t35.5 -99.5zM293 301l-33 -301h-240l209 1434h336l209 -1434h-239l-33 301h-209z M397 1229l-82 -733h164z" />
<glyph unicode="&#xc5;" horiz-adv-x="794" d="M244 1669.5q0 63.5 45 108.5t108.5 45t108.5 -45t45 -108.5t-45 -108.5t-108.5 -45t-108.5 45t-45 108.5zM481 1669q0 35 -24.5 59.5t-59.5 24.5t-59.5 -24.5t-24.5 -59.5t24.5 -59.5t59.5 -24.5t59.5 24.5t24.5 59.5zM293 301l-33 -301h-240l209 1434h336l209 -1434 h-239l-33 301h-209zM397 1229l-82 -733h164z" />
<glyph unicode="&#xc6;" horiz-adv-x="1175" d="M1124 0h-632l4 301h-189l-76 -301h-221l404 1434h710v-203h-397v-402h309v-200h-309v-426h397v-203zM508 1077l-150 -581h140z" />
<glyph unicode="&#xc7;" horiz-adv-x="716" d="M428 -229q0 68 -125 98l35 117q-147 20 -211 109t-64 239v766q0 172 84 263t283 91q158 0 270 -72l-82 -198q-100 53 -165 53q-78 0 -115 -34t-37 -111v-750q0 -78 37 -111.5t115 -33.5q66 0 165 53l82 -199q-113 -72 -270 -71h-10l-17 -58q178 -47 179 -176 q0 -74 -53.5 -115t-151.5 -41q-96 0 -166 33l35 105q45 -20 96 -21q86 1 86 64z" />
<glyph unicode="&#xc8;" horiz-adv-x="755" d="M705 0h-633v1434h633v-203h-398v-402h309v-200h-309v-426h398v-203zM418 1802l80 -286h-185l-139 286h244z" />
<glyph unicode="&#xc9;" horiz-adv-x="755" d="M705 0h-633v1434h633v-203h-398v-402h309v-200h-309v-426h398v-203zM299 1516l80 286h244l-140 -286h-184z" />
<glyph unicode="&#xca;" horiz-adv-x="755" d="M705 0h-633v1434h633v-203h-398v-402h309v-200h-309v-426h398v-203zM508 1802l160 -286h-174l-97 126l-96 -126h-174l160 286h221z" />
<glyph unicode="&#xcb;" horiz-adv-x="755" d="M705 0h-633v1434h633v-203h-398v-402h309v-200h-309v-426h398v-203zM365 1699.5q0 -61.5 -36 -99t-97.5 -37.5t-97.5 37.5t-36 99t36 99.5t97.5 38t97.5 -38t36 -99.5zM696 1699.5q0 -61.5 -35.5 -99t-97 -37.5t-97.5 37.5t-36 99t36 99.5t97.5 38t97 -38t35.5 -99.5z " />
<glyph unicode="&#xcc;" horiz-adv-x="389" d="M78 0v1434h233v-1434h-233zM205 1802l80 -286h-185l-139 286h244z" />
<glyph unicode="&#xcd;" horiz-adv-x="389" d="M78 0v1434h233v-1434h-233zM104 1516l80 286h244l-139 -286h-185z" />
<glyph unicode="&#xce;" horiz-adv-x="389" d="M78 0v1434h233v-1434h-233zM305 1802l160 -286h-174l-96 126l-97 -126h-174l160 286h221z" />
<glyph unicode="&#xcf;" horiz-adv-x="389" d="M78 0v1434h233v-1434h-233zM162 1699.5q0 -61.5 -36 -99t-97.5 -37.5t-97 37.5t-35.5 99t35.5 99.5t97 38t97.5 -38t36 -99.5zM494 1699.5q0 -61.5 -36 -99t-97.5 -37.5t-97.5 37.5t-36 99t36 99.5t97.5 38t97.5 -38t36 -99.5z" />
<glyph unicode="&#xd1;" horiz-adv-x="878" d="M807 0h-266l-275 995l33 -995h-227v1434h266l272 -996l-30 996h227v-1434zM573 1700q66 0 66 76h102q0 -139 -43 -194.5t-127 -55.5q-59 0 -143 52t-125 52q-66 0 -65 -76h-103q0 139 43 194.5t127 55.5q59 0 143 -52t125 -52z" />
<glyph unicode="&#xd2;" horiz-adv-x="864" d="M305 1067v-700q0 -106 24.5 -145.5t102.5 -39.5t103.5 40t25.5 145v700q0 104 -25.5 144t-103.5 40t-102.5 -39t-24.5 -145zM799 1087v-741q0 -180 -82 -273t-285 -93t-284.5 94t-81.5 272v741q0 178 81.5 272.5t284.5 94.5t285 -93.5t82 -273.5zM442 1802l80 -286h-184 l-139 286h243z" />
<glyph unicode="&#xd3;" horiz-adv-x="864" d="M305 1067v-700q0 -106 24.5 -145.5t102.5 -39.5t103.5 40t25.5 145v700q0 104 -25.5 144t-103.5 40t-102.5 -39t-24.5 -145zM799 1087v-741q0 -180 -82 -273t-285 -93t-284.5 94t-81.5 272v741q0 178 81.5 272.5t284.5 94.5t285 -93.5t82 -273.5zM342 1516l80 286h244 l-140 -286h-184z" />
<glyph unicode="&#xd4;" horiz-adv-x="864" d="M305 1067v-700q0 -106 24.5 -145.5t102.5 -39.5t103.5 40t25.5 145v700q0 104 -25.5 144t-103.5 40t-102.5 -39t-24.5 -145zM799 1087v-741q0 -180 -82 -273t-285 -93t-284.5 94t-81.5 272v741q0 178 81.5 272.5t284.5 94.5t285 -93.5t82 -273.5zM543 1802l159 -286h-174 l-96 126l-96 -126h-174l160 286h221z" />
<glyph unicode="&#xd5;" horiz-adv-x="864" d="M305 1067v-700q0 -106 24.5 -145.5t102.5 -39.5t103.5 40t25.5 145v700q0 104 -25.5 144t-103.5 40t-102.5 -39t-24.5 -145zM799 1087v-741q0 -180 -82 -273t-285 -93t-284.5 94t-81.5 272v741q0 178 81.5 272.5t284.5 94.5t285 -93.5t82 -273.5zM567 1700q66 0 66 76 h102q0 -139 -43 -194.5t-127 -55.5q-61 0 -143 52t-125 52q-66 0 -66 -76h-102q0 139 43 194.5t127 55.5q61 0 143 -52t125 -52z" />
<glyph unicode="&#xd6;" horiz-adv-x="864" d="M305 1067v-700q0 -106 24.5 -145.5t102.5 -39.5t103.5 40t25.5 145v700q0 104 -25.5 144t-103.5 40t-102.5 -39t-24.5 -145zM799 1087v-741q0 -180 -82 -273t-285 -93t-284.5 94t-81.5 272v741q0 178 81.5 272.5t284.5 94.5t285 -93.5t82 -273.5zM399 1699.5 q0 -61.5 -35.5 -99t-97 -37.5t-97.5 37.5t-36 99t36 99.5t97.5 38t97 -38t35.5 -99.5zM731 1699.5q0 -61.5 -36 -99t-97 -37.5t-97 37.5t-36 99t36 99.5t97 38t97 -38t36 -99.5z" />
<glyph unicode="&#xd7;" horiz-adv-x="1126" d="M68 346l360 361l-360 360l135 135l360 -360l361 360l135 -135l-361 -360l361 -361l-135 -135l-361 360l-360 -360z" />
<glyph unicode="&#xd8;" horiz-adv-x="862" d="M797 1087v-741q0 -180 -82 -273t-285 -93q-102 0 -178 26l-37 -108h-119l56 168q-88 88 -89 280v741q0 178 82 272.5t285 94.5q98 0 178 -27l37 109h119l-57 -168q90 -88 90 -281zM430 182q78 0 103.5 40t25.5 145v557l-233 -699q26 -43 104 -43zM303 1067v-551l232 692 q-27 43 -105 43t-102.5 -39t-24.5 -145z" />
<glyph unicode="&#xd9;" horiz-adv-x="851" d="M425.5 -20q-192.5 0 -274 88t-81.5 262v1104h235v-1082q0 -92 26.5 -128t94.5 -36t95.5 36t27.5 128v1082h233v-1104q0 -174 -82 -262t-274.5 -88zM436 1802l80 -286h-184l-139 286h243z" />
<glyph unicode="&#xda;" horiz-adv-x="851" d="M425.5 -20q-192.5 0 -274 88t-81.5 262v1104h235v-1082q0 -92 26.5 -128t94.5 -36t95.5 36t27.5 128v1082h233v-1104q0 -174 -82 -262t-274.5 -88zM336 1516l80 286h243l-139 -286h-184z" />
<glyph unicode="&#xdb;" horiz-adv-x="851" d="M425.5 -20q-192.5 0 -274 88t-81.5 262v1104h235v-1082q0 -92 26.5 -128t94.5 -36t95.5 36t27.5 128v1082h233v-1104q0 -174 -82 -262t-274.5 -88zM537 1802l159 -286h-174l-96 126l-96 -126h-174l159 286h222z" />
<glyph unicode="&#xdc;" horiz-adv-x="851" d="M425.5 -20q-192.5 0 -274 88t-81.5 262v1104h235v-1082q0 -92 26.5 -128t94.5 -36t95.5 36t27.5 128v1082h233v-1104q0 -174 -82 -262t-274.5 -88zM393 1699.5q0 -61.5 -35.5 -99t-97 -37.5t-97.5 37.5t-36 99t36 99.5t97.5 38t97 -38t35.5 -99.5zM725 1699.5 q0 -61.5 -36 -99t-97.5 -37.5t-97 37.5t-35.5 99t35.5 99.5t97 38t97.5 -38t36 -99.5z" />
<glyph unicode="&#xdd;" horiz-adv-x="798" d="M307 1577l80 287h244l-139 -287h-185zM266 1434l133 -703l133 703h250l-268 -994l8 -440h-246l9 440l-269 994h250z" />
<glyph unicode="&#xe0;" d="M27 319q0 188 107.5 269.5t322.5 81.5v104q0 61 -24.5 85t-94.5 24q-111 0 -232 -66l-59 182q154 86 322 86q174 0 245.5 -65.5t71.5 -192.5v-827h-211v94q-74 -115 -219 -114q-229 -1 -229 339zM258 338q0 -150 88 -150q66 0 111 62v256q-111 -2 -155 -37t-44 -131z M455 1434l80 -287h-185l-139 287h244z" />
<glyph unicode="&#xe1;" d="M27 319q0 188 107.5 269.5t322.5 81.5v104q0 61 -24.5 85t-94.5 24q-111 0 -232 -66l-59 182q154 86 322 86q174 0 245.5 -65.5t71.5 -192.5v-827h-211v94q-74 -115 -219 -114q-229 -1 -229 339zM258 338q0 -150 88 -150q66 0 111 62v256q-111 -2 -155 -37t-44 -131z M213 1147l80 287h244l-140 -287h-184z" />
<glyph unicode="&#xe2;" d="M27 319q0 188 107.5 269.5t322.5 81.5v104q0 61 -24.5 85t-94.5 24q-111 0 -232 -66l-59 182q154 86 322 86q174 0 245.5 -65.5t71.5 -192.5v-827h-211v94q-74 -115 -219 -114q-229 -1 -229 339zM258 338q0 -150 88 -150q66 0 111 62v256q-111 -2 -155 -37t-44 -131z M483 1434l160 -287h-174l-96 127l-97 -127h-174l160 287h221z" />
<glyph unicode="&#xe3;" d="M27 319q0 188 107.5 269.5t322.5 81.5v104q0 61 -24.5 85t-94.5 24q-111 0 -232 -66l-59 182q154 86 322 86q174 0 245.5 -65.5t71.5 -192.5v-827h-211v94q-74 -115 -219 -114q-229 -1 -229 339zM258 338q0 -150 88 -150q66 0 111 62v256q-111 -2 -155 -37t-44 -131z M508 1331q66 0 65 76h103q0 -139 -43 -194.5t-127 -55.5q-59 0 -143 52.5t-125 52.5q-66 0 -66 -76h-102q0 139 43 194.5t127 55.5q59 0 143 -52.5t125 -52.5z" />
<glyph unicode="&#xe4;" d="M27 319q0 188 107.5 269.5t322.5 81.5v104q0 61 -24.5 85t-94.5 24q-111 0 -232 -66l-59 182q154 86 322 86q174 0 245.5 -65.5t71.5 -192.5v-827h-211v94q-74 -115 -219 -114q-229 -1 -229 339zM258 338q0 -150 88 -150q66 0 111 62v256q-111 -2 -155 -37t-44 -131z M340 1331.5q0 -61.5 -36 -99.5t-97.5 -38t-97 38t-35.5 99.5t35.5 99t97 37.5t97.5 -37.5t36 -99zM672 1331.5q0 -61.5 -36 -99.5t-97.5 -38t-97 38t-35.5 99.5t35.5 99t97 37.5t97.5 -37.5t36 -99z" />
<glyph unicode="&#xe5;" d="M27 319q0 188 107.5 269.5t322.5 81.5v104q0 61 -24.5 85t-94.5 24q-111 0 -232 -66l-59 182q154 86 322 86q174 0 245.5 -65.5t71.5 -192.5v-827h-211v94q-74 -115 -219 -114q-229 -1 -229 339zM258 338q0 -150 88 -150q66 0 111 62v256q-111 -2 -155 -37t-44 -131z M219 1300.5q0 63.5 45 108.5t108.5 45t108.5 -45t45 -108.5t-45 -108.5t-108.5 -45t-108.5 45t-45 108.5zM457 1300.5q0 34.5 -24.5 59t-59.5 24.5t-59.5 -24.5t-24.5 -59t24.5 -59t59.5 -24.5t59.5 24.5t24.5 59z" />
<glyph unicode="&#xe6;" horiz-adv-x="1163" d="M346 182q66 0 111 62v215q-111 0 -155 -32t-44 -114q0 -131 88 -131zM805 -20q-193 0 -268 100q-90 -100 -246 -100q-264 0 -264 323q0 182 106.5 257t323.5 75v139q0 61 -24.5 85t-94.5 24q-111 0 -232 -66l-59 182q154 86 322 86q135 0 209 -67q74 68 202 67 q322 0 322 -292v-334h-418v-125q0 -88 28.5 -121t112.5 -33q123 0 230 60l57 -181q-137 -79 -307 -79zM684 635h195v135q0 74 -22.5 100.5t-76 26.5t-75 -26.5t-21.5 -100.5v-135z" />
<glyph unicode="&#xe7;" horiz-adv-x="645" d="M354 -229q0 68 -125 98l37 123q-209 47 -209 291v499q0 303 322 303q147 0 237 -61l-57 -186q-80 43 -149 43q-68 0 -95.5 -29t-27.5 -98v-437q0 -72 27.5 -99.5t93.5 -27.5q78 0 151 43l57 -192q-90 -61 -233 -61q-25 0 -37 2l-16 -60q178 -47 178 -176 q0 -74 -53.5 -115t-151.5 -41q-96 0 -166 33l35 105q45 -20 96 -21q86 1 86 64z" />
<glyph unicode="&#xe8;" horiz-adv-x="763" d="M401 1434l80 -287h-184l-139 287h243zM406 -20q-186 0 -267.5 76.5t-81.5 244.5v483q0 152 79 226.5t245 74.5q322 0 321 -292v-355h-417v-104q0 -88 28.5 -121t112.5 -33q123 0 229 60l58 -181q-137 -79 -307 -79zM285 614h194v156q0 74 -22.5 100.5t-75.5 26.5 t-74.5 -26.5t-21.5 -100.5v-156z" />
<glyph unicode="&#xe9;" horiz-adv-x="763" d="M283 1147l79 287h244l-139 -287h-184zM406 -20q-186 0 -267.5 76.5t-81.5 244.5v483q0 152 79 226.5t245 74.5q322 0 321 -292v-355h-417v-104q0 -88 28.5 -121t112.5 -33q123 0 229 60l58 -181q-137 -79 -307 -79zM285 614h194v156q0 74 -22.5 100.5t-75.5 26.5 t-74.5 -26.5t-21.5 -100.5v-156z" />
<glyph unicode="&#xea;" horiz-adv-x="763" d="M492 1434l159 -287h-174l-96 127l-96 -127h-174l159 287h222zM406 -20q-186 0 -267.5 76.5t-81.5 244.5v483q0 152 79 226.5t245 74.5q322 0 321 -292v-355h-417v-104q0 -88 28.5 -121t112.5 -33q123 0 229 60l58 -181q-137 -79 -307 -79zM285 614h194v156 q0 74 -22.5 100.5t-75.5 26.5t-74.5 -26.5t-21.5 -100.5v-156z" />
<glyph unicode="&#xeb;" horiz-adv-x="763" d="M348 1331.5q0 -61.5 -36 -99.5t-97 -38t-97 38t-36 99.5t36 99t97 37.5t97 -37.5t36 -99zM680 1331.5q0 -61.5 -36 -99.5t-97.5 -38t-97 38t-35.5 99.5t35.5 99t97 37.5t97.5 -37.5t36 -99zM406 -20q-186 0 -267.5 76.5t-81.5 244.5v483q0 152 79 226.5t245 74.5 q322 0 321 -292v-355h-417v-104q0 -88 28.5 -121t112.5 -33q123 0 229 60l58 -181q-137 -79 -307 -79zM285 614h194v156q0 74 -22.5 100.5t-75.5 26.5t-74.5 -26.5t-21.5 -100.5v-156z" />
<glyph unicode="&#xec;" horiz-adv-x="376" d="M74 1065h229v-1065h-229v1065zM197 1434l79 -287h-184l-139 287h244z" />
<glyph unicode="&#xed;" horiz-adv-x="376" d="M74 1065h229v-1065h-229v1065zM96 1147l80 287h244l-139 -287h-185z" />
<glyph unicode="&#xee;" horiz-adv-x="376" d="M74 1065h229v-1065h-229v1065zM299 1434l160 -287h-174l-97 127l-96 -127h-174l160 287h221z" />
<glyph unicode="&#xef;" horiz-adv-x="376" d="M74 1065h229v-1065h-229v1065zM156 1331.5q0 -61.5 -36 -99.5t-97.5 -38t-97.5 38t-36 99.5t36 99t97.5 37.5t97.5 -37.5t36 -99zM487 1331.5q0 -61.5 -35.5 -99.5t-97 -38t-97.5 38t-36 99.5t36 99t97.5 37.5t97 -37.5t35.5 -99z" />
<glyph unicode="&#xf1;" horiz-adv-x="784" d="M297 811v-811h-229v1065h211v-96q96 117 249 116q193 0 193 -192v-893h-229v799q0 43 -16.5 61.5t-53.5 18.5q-72 0 -125 -68zM526 1331q66 0 66 76h102q0 -139 -43 -194.5t-127 -55.5q-61 0 -143 52.5t-125 52.5q-66 0 -66 -76h-102q0 139 43 194.5t127 55.5 q61 0 143 -52.5t125 -52.5z" />
<glyph unicode="&#xf2;" horiz-adv-x="759" d="M381 174q51 0 72.5 26.5t21.5 98.5v467q0 72 -21.5 98.5t-72.5 26.5q-53 0 -74.5 -26.5t-21.5 -98.5v-467q0 -72 21.5 -98.5t74.5 -26.5zM381 -20q-324 0 -324 292v521q0 293 324 292q322 0 321 -292v-521q1 -292 -321 -292zM461 1434l80 -287h-185l-139 287h244z" />
<glyph unicode="&#xf3;" horiz-adv-x="759" d="M381 174q51 0 72.5 26.5t21.5 98.5v467q0 72 -21.5 98.5t-72.5 26.5q-53 0 -74.5 -26.5t-21.5 -98.5v-467q0 -72 21.5 -98.5t74.5 -26.5zM381 -20q-324 0 -324 292v521q0 293 324 292q322 0 321 -292v-521q1 -292 -321 -292zM219 1147l80 287h244l-140 -287h-184z" />
<glyph unicode="&#xf4;" horiz-adv-x="759" d="M381 174q51 0 72.5 26.5t21.5 98.5v467q0 72 -21.5 98.5t-72.5 26.5q-53 0 -74.5 -26.5t-21.5 -98.5v-467q0 -72 21.5 -98.5t74.5 -26.5zM381 -20q-324 0 -324 292v521q0 293 324 292q322 0 321 -292v-521q1 -292 -321 -292zM489 1434l160 -287h-174l-96 127l-96 -127 h-174l159 287h221z" />
<glyph unicode="&#xf5;" horiz-adv-x="759" d="M381 174q51 0 72.5 26.5t21.5 98.5v467q0 72 -21.5 98.5t-72.5 26.5q-53 0 -74.5 -26.5t-21.5 -98.5v-467q0 -72 21.5 -98.5t74.5 -26.5zM381 -20q-324 0 -324 292v521q0 293 324 292q322 0 321 -292v-521q1 -292 -321 -292zM514 1331q66 0 66 76h102q0 -139 -43 -194.5 t-127 -55.5q-61 0 -143 52.5t-125 52.5q-66 0 -66 -76h-102q0 139 43 194.5t127 55.5q61 0 143 -52.5t125 -52.5z" />
<glyph unicode="&#xf6;" horiz-adv-x="759" d="M381 174q51 0 72.5 26.5t21.5 98.5v467q0 72 -21.5 98.5t-72.5 26.5q-53 0 -74.5 -26.5t-21.5 -98.5v-467q0 -72 21.5 -98.5t74.5 -26.5zM381 -20q-324 0 -324 292v521q0 293 324 292q322 0 321 -292v-521q1 -292 -321 -292zM346 1331.5q0 -61.5 -36 -99.5t-97 -38 t-97 38t-36 99.5t36 99t97 37.5t97 -37.5t36 -99zM678 1331.5q0 -61.5 -36 -99.5t-97.5 -38t-97 38t-35.5 99.5t35.5 99t97 37.5t97.5 -37.5t36 -99z" />
<glyph unicode="&#xf7;" horiz-adv-x="1126" d="M418 297q0 59 42 102t103.5 43t103.5 -43t42 -102q0 -61 -42 -103t-103.5 -42t-103.5 42t-42 103zM418 1116q0 61 42 103.5t103.5 42.5t103.5 -42t42 -104q0 -59 -42 -102t-103.5 -43t-103.5 43t-42 102zM61 803h1004v-193h-1004v193z" />
<glyph unicode="&#xf8;" horiz-adv-x="759" d="M211 -102h-121l55 145q-88 70 -88 229v521q0 293 324 292q80 0 141 -18l39 100h119l-57 -153q80 -74 79 -221v-521q0 -293 -321 -292q-74 0 -133 16zM285 766v-369l159 475q-18 18 -63 19q-53 0 -74.5 -26.5t-21.5 -98.5zM381 174q51 0 72.5 26.5t21.5 98.5v330 l-153 -445q20 -10 59 -10z" />
<glyph unicode="&#xf9;" horiz-adv-x="784" d="M487 254v811h230v-1065h-211v96q-100 -117 -250 -116q-195 0 -195 192v893h232v-799q0 -43 16.5 -61.5t52.5 -18.5q72 0 125 68zM473 1434l80 -287h-184l-140 287h244z" />
<glyph unicode="&#xfa;" horiz-adv-x="784" d="M487 254v811h230v-1065h-211v96q-100 -117 -250 -116q-195 0 -195 192v893h232v-799q0 -43 16.5 -61.5t52.5 -18.5q72 0 125 68zM231 1147l80 287h244l-139 -287h-185z" />
<glyph unicode="&#xfb;" horiz-adv-x="784" d="M487 254v811h230v-1065h-211v96q-100 -117 -250 -116q-195 0 -195 192v893h232v-799q0 -43 16.5 -61.5t52.5 -18.5q72 0 125 68zM502 1434l160 -287h-175l-96 127l-96 -127h-174l160 287h221z" />
<glyph unicode="&#xfc;" horiz-adv-x="784" d="M487 254v811h230v-1065h-211v96q-100 -117 -250 -116q-195 0 -195 192v893h232v-799q0 -43 16.5 -61.5t52.5 -18.5q72 0 125 68zM358 1331.5q0 -61.5 -35.5 -99.5t-97 -38t-97.5 38t-36 99.5t36 99t97.5 37.5t97 -37.5t35.5 -99zM690 1331.5q0 -61.5 -36 -99.5t-97 -38 t-97 38t-36 99.5t36 99t97 37.5t97 -37.5t36 -99z" />
<glyph unicode="&#xfd;" horiz-adv-x="774" d="M294 1208l80 287h244l-139 -287h-185zM393 317l119 748h242l-222 -954l-110 -500h-244l103 395l-261 1059h244z" />
<glyph unicode="&#xff;" horiz-adv-x="774" d="M354 1331.5q0 -61.5 -35.5 -99.5t-97 -38t-97.5 38t-36 99.5t36 99t97.5 37.5t97 -37.5t35.5 -99zM686 1331.5q0 -61.5 -36 -99.5t-97 -38t-97 38t-36 99.5t36 99t97 37.5t97 -37.5t36 -99zM393 317l119 748h242l-222 -954l-110 -500h-244l103 395l-261 1059h244z" />
<glyph unicode="&#x152;" horiz-adv-x="1157" d="M1106 0h-660q-209 0 -294.5 92t-85.5 270v711q0 176 86 268.5t294 92.5h660v-203h-356v-402h268v-200h-268v-426h356v-203zM303 1030v-627q0 -111 32 -155.5t122 -44.5h59v1028h-59q-90 0 -122 -45t-32 -156z" />
<glyph unicode="&#x153;" horiz-adv-x="1181" d="M381 174q59 0 76.5 31t17.5 125v430q0 76 -20.5 103.5t-73.5 27.5q-59 0 -77.5 -30t-18.5 -113v-431q0 -86 18.5 -114.5t77.5 -28.5zM823 -20q-152 0 -231 75q-76 -76 -211 -75q-180 0 -252 83.5t-72 255.5v474q0 293 324 292q131 0 209 -73q78 74 209 73q322 0 321 -292 v-355h-418v-104q0 -88 29 -121t113 -33q123 0 229 60l57 -181q-137 -79 -307 -79zM702 614h195v156q0 74 -22.5 100.5t-76 26.5t-75 -26.5t-21.5 -100.5v-156z" />
<glyph unicode="&#x178;" horiz-adv-x="798" d="M367 1699.5q0 -61.5 -36 -99t-97.5 -37.5t-97.5 37.5t-36 99t36 99.5t97.5 38t97.5 -38t36 -99.5zM698 1699.5q0 -61.5 -35.5 -99t-97 -37.5t-97.5 37.5t-36 99t36 99.5t97.5 38t97 -38t35.5 -99.5zM266 1434l133 -703l133 703h250l-268 -994l8 -440h-246l9 440l-269 994 h250z" />
<glyph unicode="&#x2c6;" horiz-adv-x="647" d="M434 1434l160 -287h-174l-96 127l-97 -127h-174l160 287h221z" />
<glyph unicode="&#x2dc;" horiz-adv-x="647" d="M459 1331q66 0 65 76h103q0 -139 -43 -194.5t-127 -55.5q-59 0 -143.5 52.5t-125.5 52.5q-66 0 -65 -76h-103q0 139 43 194.5t127 55.5q59 0 143.5 -52.5t125.5 -52.5z" />
<glyph unicode="&#x2000;" horiz-adv-x="931" />
<glyph unicode="&#x2001;" horiz-adv-x="1863" />
<glyph unicode="&#x2002;" horiz-adv-x="931" />
<glyph unicode="&#x2003;" horiz-adv-x="1863" />
<glyph unicode="&#x2004;" horiz-adv-x="620" />
<glyph unicode="&#x2005;" horiz-adv-x="464" />
<glyph unicode="&#x2006;" horiz-adv-x="309" />
<glyph unicode="&#x2007;" horiz-adv-x="309" />
<glyph unicode="&#x2008;" horiz-adv-x="231" />
<glyph unicode="&#x2009;" horiz-adv-x="372" />
<glyph unicode="&#x200a;" horiz-adv-x="102" />
<glyph unicode="&#x2010;" horiz-adv-x="503" d="M430 702v-178h-356v178h356z" />
<glyph unicode="&#x2011;" horiz-adv-x="503" d="M430 702v-178h-356v178h356z" />
<glyph unicode="&#x2012;" horiz-adv-x="503" d="M430 702v-178h-356v178h356z" />
<glyph unicode="&#x2013;" horiz-adv-x="1024" d="M956 707v-187h-886v187h886z" />
<glyph unicode="&#x2014;" horiz-adv-x="2048" d="M1980 707v-187h-1910v187h1910z" />
<glyph unicode="&#x2018;" horiz-adv-x="444" d="M55 1124q0 197 215 398l90 -68q-76 -78 -75 -133q0 -41 40 -97.5t40 -105.5q0 -63 -46.5 -108t-110 -45t-108.5 45.5t-45 113.5z" />
<glyph unicode="&#x2019;" horiz-adv-x="444" d="M389 1315q0 -195 -215 -395l-92 67q78 76 78 133q0 41 -40 96.5t-40 104.5q0 63 44 108.5t109.5 45.5t110.5 -46t45 -114z" />
<glyph unicode="&#x201a;" horiz-adv-x="444" d="M365 129q0 -193 -215 -397l-93 67q78 78 78 133q0 43 -40 98.5t-40 104.5q0 66 44 110t109.5 44t111 -46t45.5 -114z" />
<glyph unicode="&#x201c;" horiz-adv-x="823" d="M55 1124q0 197 215 398l90 -68q-76 -78 -75 -133q0 -41 40 -97.5t40 -105.5q0 -63 -46.5 -108t-110 -45t-108.5 45.5t-45 113.5zM434 1124q0 197 215 398l90 -68q-76 -78 -75 -133q0 -41 39.5 -97.5t39.5 -105.5q0 -63 -46 -108t-109.5 -45t-108.5 45.5t-45 113.5z" />
<glyph unicode="&#x201d;" horiz-adv-x="823" d="M389 1315q0 -195 -215 -395l-92 67q78 76 78 133q0 41 -40 96.5t-40 104.5q0 63 44 108.5t109.5 45.5t110.5 -46t45 -114zM768 1315q0 -195 -215 -395l-92 67q78 76 78 133q0 41 -40 96.5t-40 104.5q0 63 45 108.5t108 45.5q66 0 111 -46t45 -114z" />
<glyph unicode="&#x201e;" horiz-adv-x="823" d="M365 129q0 -193 -215 -397l-93 67q78 78 78 133q0 43 -40 98.5t-40 104.5q0 66 44 110t109.5 44t111 -46t45.5 -114zM743 129q0 -193 -215 -397l-92 67q78 78 78 133q0 43 -40 98.5t-40 104.5q0 66 45 110t109 44q66 0 110.5 -46t44.5 -114z" />
<glyph unicode="&#x2022;" horiz-adv-x="671" d="M184 614q0 88 62.5 150.5t150.5 62.5t150.5 -62.5t62.5 -150.5t-62.5 -150.5t-150.5 -62.5t-150.5 62.5t-62.5 150.5z" />
<glyph unicode="&#x2026;" horiz-adv-x="1536" d="M143 135.5q0 65.5 45 109.5t109 44q66 0 111 -45t45 -109q0 -66 -46.5 -110.5t-110 -44.5t-108.5 45t-45 110.5zM614 135.5q0 65.5 45.5 109.5t108.5 44q66 0 111 -45t45 -109q0 -66 -46.5 -110.5t-109.5 -44.5t-108.5 45t-45.5 110.5zM1085 135.5q0 65.5 45.5 109.5 t108.5 44q66 0 111 -45t45 -109q0 -66 -46 -110.5t-109.5 -44.5t-109 45t-45.5 110.5z" />
<glyph unicode="&#x202f;" horiz-adv-x="372" />
<glyph unicode="&#x2039;" horiz-adv-x="348" d="M61 723l226 141v-157l-101 -93l101 -92v-157l-226 141v217z" />
<glyph unicode="&#x203a;" horiz-adv-x="348" d="M287 506l-226 -141v157l101 92l-101 93v157l226 -141v-217z" />
<glyph unicode="&#x2044;" horiz-adv-x="1069" d="M229 0h-209l820 1425h209z" />
<glyph unicode="&#x205f;" horiz-adv-x="464" />
<glyph unicode="&#x20ac;" horiz-adv-x="755" d="M514 496h-164v-179q0 -139 123 -139q111 0 189 64l61 -189q-90 -74 -254 -73q-186 0 -265 88t-79 266v162h-102v168h102v86h-102v168h102v161q0 178 79 266.5t265 88.5q164 0 254 -74l-61 -189q-78 63 -189 64q-123 0 -123 -139v-178h279l-54 -168h-225v-86h217z" />
<glyph unicode="&#x2122;" horiz-adv-x="542" d="M92 1065v317h-59v52h180v-52h-61v-317h-60zM326 1434l43 -250l43 250h86v-369h-58l6 274l-47 -239h-61l-47 239l6 -274h-55v369h84z" />
<glyph unicode="&#xe000;" horiz-adv-x="1065" d="M0 1065h1065v-1065h-1065v1065z" />
<glyph unicode="&#xfb01;" horiz-adv-x="907" d="M502 881h-152v-881h-229v881h-111v166l111 16v221q0 117 70.5 174.5t183.5 57.5q88 0 155 -27v-184q-51 18 -98 18q-82 0 -82 -72v-186h152v-184zM604 1065h230v-1065h-230v1065zM569 1337.5q0 61.5 41 101.5t108.5 40t108.5 -40t41 -101.5t-41 -101.5t-108.5 -40 t-108.5 40t-41 101.5z" />
<glyph unicode="&#xfb02;" horiz-adv-x="907" d="M502 881h-152v-881h-229v881h-111v166l111 16v221q0 117 70.5 174.5t183.5 57.5q88 0 155 -27v-184q-51 18 -98 18q-82 0 -82 -72v-186h152v-184zM604 1495h230v-1495h-230v1495z" />
<glyph unicode="&#xfb03;" horiz-adv-x="1437" d="M1135 1065h229v-1065h-229v1065zM1100 1337.5q0 61.5 41 101.5t108.5 40t108.5 -40t41 -101.5t-41 -101.5t-108.5 -40t-108.5 40t-41 101.5zM1032 881h-152v-881h-229v881h-111v166l111 16v221q0 117 70.5 174.5t183.5 57.5q88 0 155 -27v-184q-51 18 -98 18 q-82 0 -82 -72v-186h152v-184zM502 881h-152v-881h-229v881h-111v166l111 16v221q0 117 70.5 174.5t183.5 57.5q88 0 155 -27v-184q-51 18 -98 18q-82 0 -82 -72v-186h152v-184z" />
<glyph unicode="&#xfb04;" horiz-adv-x="1437" d="M1135 1495h229v-1495h-229v1495zM1032 881h-152v-881h-229v881h-111v166l111 16v221q0 117 70.5 174.5t183.5 57.5q88 0 155 -27v-184q-51 18 -98 18q-82 0 -82 -72v-186h152v-184zM502 881h-152v-881h-229v881h-111v166l111 16v221q0 117 70.5 174.5t183.5 57.5 q88 0 155 -27v-184q-51 18 -98 18q-82 0 -82 -72v-186h152v-184z" />
</font>
</defs>
</svg>
