<?xml version="1.0" standalone="no"?>
<!DOCTYPE svg PUBLIC "-//W3C//DTD SVG 1.1//EN" "http://www.w3.org/Graphics/SVG/1.1/DTD/svg11.dtd" >
<svg xmlns="http://www.w3.org/2000/svg">
<metadata>
This is a custom SVG webfont generated by Fontspring.
Designer    : FontSite.com
Foundry URL : http://www.fontsite.com
</metadata>
<defs>
<font id="webfont" horiz-adv-x="613" >
<font-face units-per-em="1000" ascent="800" descent="-200" />
<missing-glyph horiz-adv-x="250" />
<glyph unicode=" "  horiz-adv-x="250" />
<glyph unicode="&#x09;" horiz-adv-x="250" />
<glyph unicode="&#xa0;" horiz-adv-x="250" />
<glyph unicode="!" horiz-adv-x="276" d="M69 160l132 507h143l-172 -507h-103zM11 0l34 110h124l-34 -110h-124z" />
<glyph unicode="&#x22;" horiz-adv-x="392" d="M341 399l-23 268h129l-23 -268h-83zM168 399l-23 268h129l-24 -268h-82z" />
<glyph unicode="#" horiz-adv-x="693" d="M119 123l81 130h-122l38 61h122l58 94h-122l37 59h122l83 133h65l-83 -133h101l85 133h66l-83 -133h129l-37 -59h-129l-59 -94h130l-38 -61h-129l-81 -130h-67l80 130h-101l-81 -130h-65zM303 314h102l58 94h-102z" />
<glyph unicode="$" d="M12 175v17h145q0 -49 14 -70t53 -31l61 201q-74 32 -110 60q-68 51 -68 128q0 89 75 146t193 57h30l19 63h57l-21 -69q88 -18 128 -60t40 -115v-18h-138q-1 40 -14 59t-47 32l-55 -181q85 -39 128 -67q71 -48 71 -127q0 -58 -39.5 -109.5t-106.5 -81.5q-62 -28 -149 -28 q-17 0 -30 1l-19 -63h-57l20 68q-180 28 -180 188zM324 417l51 166q-49 0 -78 -16q-47 -26 -47 -68q0 -46 74 -82zM279 86q59 1 88 14q63 27 63 79q0 38 -29 58q-15 11 -65 33z" />
<glyph unicode="%" horiz-adv-x="824" d="M217 287q-54 0 -84.5 33t-30.5 91q0 86 52 170q60 96 152 96q56 0 87 -31.5t31 -86.5q0 -86 -50 -170q-59 -102 -157 -102zM145 0l540 667h54l-538 -667h-56zM223 342q49 0 86 89q33 78 33 139q0 24 -11 38t-30 14q-47 0 -82 -83q-35 -78 -35 -137q0 -26 11 -43t28 -17z M464 114q0 85 52 169q60 96 152 96q56 0 87 -31.5t31 -86.5q0 -85 -50 -170q-60 -101 -157 -101q-54 0 -84.5 33t-30.5 91zM546 104q0 -26 11 -42.5t28 -16.5q49 0 85 89q34 81 34 138q0 24 -11 38t-30 14q-47 0 -82 -83q-35 -78 -35 -137z" />
<glyph unicode="&#x26;" horiz-adv-x="741" d="M62 73q-33 36 -33 90q0 44 23.5 85t63.5 67q48 32 142 49q-51 17 -74 41q-31 34 -31 75q0 53 37 101t95 72q56 23 164 23q39 0 101 -9l-31 -104q-48 6 -76 6q-72 0 -111.5 -23.5t-39.5 -66.5q0 -41 33 -58q24 -14 112 -14h85l36 118h133l-36 -118h125l-32 -105h-125 l-89 -292l-151 -10q-41 -3 -81 -3q-170 0 -240 76zM165 177q0 -82 142 -82q4 0 36 2l86 7l61 198h-113q-66 0 -99 -6.5t-60 -23.5q-53 -32 -53 -95z" />
<glyph unicode="'" horiz-adv-x="219" d="M171 399l-23 268h129l-24 -268h-82z" />
<glyph unicode="(" horiz-adv-x="307" d="M42 -29q-3 41 -3 101q0 93 14 164t47 149q29 65 53.5 106.5t106.5 165.5l24 36h89q-148 -258 -196 -424.5t-52 -438.5h-73q-1 9 -2 20.5t-1 14.5z" />
<glyph unicode=")" horiz-adv-x="307" d="M170 24q-48 -83 -126 -194h-88q148 256 200 440q28 95 35.5 169t10.5 254h75q13 -125 13 -230q0 -136 -25 -227t-95 -212z" />
<glyph unicode="*" horiz-adv-x="393" d="M196 405l-49 59l78 62l-84 51l38 62l86 -52l29 95l73 -22l-29 -96l99 4l4 -73l-98 -5l35 -93l-75 -24l-30 96z" />
<glyph unicode="+" d="M289 91v201h-204v100h204v200h105v-200h204v-100h-204v-201h-105z" />
<glyph unicode="," horiz-adv-x="251" d="M38 -58h-100l91 165h133z" />
<glyph unicode="-" horiz-adv-x="258" d="M-9 198l36 119h258l-36 -119h-258z" />
<glyph unicode="." horiz-adv-x="251" d="M-3 0l33 108h118l-33 -108h-118z" />
<glyph unicode="/" horiz-adv-x="525" d="M46 -107h-139l608 774h137z" />
<glyph unicode="0" d="M58 210q0 87 37.5 187t96.5 170q97 115 223 115q96 0 150.5 -55t54.5 -151q0 -93 -35 -195t-93 -174q-96 -122 -233 -122q-97 0 -149 58.5t-52 166.5zM185 193q0 -55 22 -86.5t60 -31.5q47 0 90.5 43.5t75.5 122.5q26 63 43.5 134.5t17.5 114.5q0 49 -22 75.5t-63 26.5 q-77 0 -139 -111q-34 -60 -59.5 -146.5t-25.5 -141.5z" />
<glyph unicode="1" d="M222 0l160 525q-62 -54 -153 -71l38 126q115 30 173 87h125l-204 -667h-139z" />
<glyph unicode="2" d="M0 0l36 118q147 80 281 186q146 113 146 201q0 40 -26 63.5t-69 23.5q-47 0 -73 -27.5t-26 -77.5h-131q4 51 20.5 84.5t52.5 62.5q61 48 160 48q116 0 174 -51q52 -46 52 -115q0 -84 -77 -167q-34 -36 -69.5 -64.5t-110.5 -78.5q-95 -64 -162 -102h346l-32 -104h-492z " />
<glyph unicode="3" d="M84 42q-49 47 -49 109q0 14 4 35h136q-1 -4 -1 -10q0 -48 25.5 -74.5t72.5 -26.5q58 0 98.5 36.5t40.5 89.5q0 57 -48 82q-22 12 -38 15.5t-54 3.5h-3l25 82q15 -1 33 -1q68 0 110 31t42 82q0 43 -26.5 69.5t-68.5 26.5q-81 0 -100 -93h-137q14 49 29 75.5t39 48.5 q69 59 177 59q93 0 153.5 -49t60.5 -123q0 -39 -20.5 -74.5t-55.5 -57.5q-37 -23 -111 -36q57 -19 83 -43q44 -39 44 -103q0 -92 -81 -151.5t-207 -59.5q-115 0 -173 57z" />
<glyph unicode="4" d="M-8 146l35 113l400 408h171l-131 -430h141l-27 -91h-142l-45 -146h-134l45 146h-313zM117 237h216l52 172q12 41 54 136q5 11 16 38q-93 -107 -130 -144z" />
<glyph unicode="5" d="M86 35q-48 42 -48 105q0 19 1 31h137q2 -96 97 -96q67 0 116.5 54t49.5 126q0 50 -28.5 79t-78.5 29q-80 0 -125 -92h-127l127 396h443l-32 -104h-316l-46 -150q74 40 138 40q77 0 128 -51t51 -128q0 -53 -22.5 -108.5t-59.5 -95.5q-79 -85 -238 -85q-110 0 -167 50z" />
<glyph unicode="6" d="M65 211q0 126 67 260q108 211 309 211q88 0 144 -36.5t56 -92.5q0 -13 -5 -41h-113q-4 41 -20 56q-25 24 -70 24q-41 0 -79 -20t-62 -55q-39 -58 -60 -131q77 52 164 52q77 0 124.5 -50t47.5 -131q0 -104 -76 -186q-79 -86 -201 -86q-107 0 -166.5 59.5t-59.5 166.5z M192 179q0 -55 23.5 -84t67.5 -29q68 0 113 66q38 55 38 120q0 49 -26 77t-70 28q-73 0 -110 -56q-36 -53 -36 -122z" />
<glyph unicode="7" d="M124 0l387 563h-347l32 104h458l-19 -92l-358 -575h-153z" />
<glyph unicode="8" d="M41 157q0 51 27 94t76 68q47 25 116 33q-55 22 -77 39q-46 38 -46 100q0 83 81 142q69 49 175 49q107 0 164 -44q54 -41 54 -107q0 -83 -81 -139q-27 -18 -113 -40q66 -13 97 -42q44 -41 44 -103q0 -43 -22 -86t-58 -71q-84 -65 -215 -65q-101 0 -161.5 47t-60.5 125z M371 399q53 0 87 30.5t36 80.5q2 40 -27.5 65.5t-79.5 25.5q-58 0 -95.5 -31t-37.5 -78q0 -43 32 -68t85 -25zM168 170q0 -50 29.5 -77t84.5 -27q60 0 104.5 39t44.5 91q0 50 -33.5 81t-86.5 31q-60 0 -101.5 -40t-41.5 -98z" />
<glyph unicode="9" d="M92 20q-27 17 -44.5 45.5t-17.5 56.5q0 16 4 36h123q4 -83 89 -83q102 0 163 113q29 52 46 114q-83 -57 -165 -57q-76 0 -125 50t-49 128q0 111 79.5 185t199.5 74q102 0 163 -60t61 -160q0 -135 -85 -299q-50 -95 -117 -136.5t-173 -41.5q-97 0 -152 35zM354 335 q58 0 98 43t40 106q0 53 -28.5 85t-74.5 32q-56 0 -97.5 -46.5t-41.5 -109.5q0 -50 28.5 -80t75.5 -30z" />
<glyph unicode=":" horiz-adv-x="251" d="M105 352l33 108h117l-33 -108h-117zM-3 0l33 108h118l-33 -108h-118z" />
<glyph unicode=";" horiz-adv-x="251" d="M94 352l34 108h117l-33 -108h-118zM38 -58h-100l91 165h133z" />
<glyph unicode="&#x3c;" horiz-adv-x="500" d="M33 288v105l433 219v-124l-301 -148l301 -149v-123z" />
<glyph unicode="=" d="M85 381v96h513v-96h-513zM85 208v96h513v-96h-513z" />
<glyph unicode="&#x3e;" horiz-adv-x="500" d="M33 68v123l301 149l-301 148v123l433 -219v-105z" />
<glyph unicode="?" horiz-adv-x="444" d="M104 148l28 92q12 39 19.5 49t39.5 29q77 44 126.5 100t49.5 100q0 28 -25 50q-27 23 -96 23q-36 0 -120 -15l29 93q87 13 143 13q89 0 143 -44t54 -116q0 -79 -75 -151q-35 -35 -128 -100q-29 -21 -37 -31.5t-16 -37.5l-17 -54h-118zM59 0l33 108h118l-33 -108h-118z " />
<glyph unicode="@" horiz-adv-x="827" d="M154 1q-44 47 -69 111t-25 130q0 78 35 154t98 135q118 109 270 109q139 0 227 -78t88 -200q0 -131 -93 -218q-40 -38 -91 -59.5t-100 -21.5q-62 0 -65 54q-40 -30 -65 -41t-53 -11q-46 0 -72.5 29t-26.5 80q0 71 52 160q37 62 87.5 95.5t106.5 33.5q46 0 78 -31l5 13 h101l-126 -265q-15 -33 -15 -42q0 -6 6.5 -11t13.5 -5q25 0 61.5 21t64.5 52q29 32 47 78t18 89q0 87 -74 149t-178 62q-133 0 -231 -96.5t-98 -227.5q0 -122 80 -201.5t202 -79.5q115 0 206 68q37 28 79 81h58q-32 -56 -56.5 -86t-58.5 -55q-102 -76 -238 -76 q-153 0 -249 101zM311 147q0 -10 6.5 -17t16.5 -7q39 0 84 74q9 15 45 87q29 58 34 91q2 13 -4.5 22.5t-18.5 10.5q-36 3 -86 -71q-29 -42 -53 -102t-24 -88z" />
<glyph unicode="A" horiz-adv-x="691" d="M-53 0l442 667h174l63 -667h-141l-8 144h-289l-83 -144h-158zM254 253h215l-12 345z" />
<glyph unicode="B" horiz-adv-x="655" d="M0 0l204 667h232q77 0 115.5 -9.5t65.5 -34.5q40 -38 40 -92q0 -38 -19.5 -76.5t-51.5 -62.5q-37 -28 -110 -43q63 -18 87 -42q36 -34 36 -92q0 -89 -72 -153q-39 -34 -90 -48t-134 -14h-303zM262 397h98q78 0 111 22q20 13 32.5 36t12.5 48q0 35 -28 54q-24 15 -80 15 h-92zM172 103h119q84 0 126 35q41 33 41 88q0 40 -29 58t-95 18h-101z" />
<glyph unicode="C" horiz-adv-x="666" d="M116 66q-25 28 -40 70t-15 83q0 80 38.5 175t99.5 163q53 60 126.5 92.5t155.5 32.5q103 0 167.5 -49t64.5 -126q0 -22 -3 -49h-155q6 26 6 44q0 35 -28.5 57t-72.5 22q-113 0 -192 -153q-66 -130 -66 -223q0 -54 31.5 -86.5t84.5 -32.5q107 0 161 119h153 q-23 -52 -44.5 -82t-54.5 -58q-96 -80 -217 -80q-58 0 -112.5 22t-87.5 59z" />
<glyph unicode="D" horiz-adv-x="724" d="M0 0l204 667h209q90 0 138.5 -12t87.5 -43q80 -63 80 -180q0 -85 -34 -173t-92 -153q-55 -61 -119.5 -83.5t-186.5 -22.5h-287zM179 103h114q77 0 121 19t84 69q35 45 57.5 111.5t22.5 124.5q0 61 -28 94q-36 43 -148 43h-82z" />
<glyph unicode="E" horiz-adv-x="560" d="M0 0l204 667h419l-31 -103h-279l-50 -165h279l-32 -103h-278l-60 -193h311l-31 -103h-452z" />
<glyph unicode="F" horiz-adv-x="542" d="M0 0l204 667h438l-31 -103h-298l-55 -182h289l-31 -103h-290l-85 -279h-141z" />
<glyph unicode="G" horiz-adv-x="705" d="M139 50q-35 32 -56 78t-21 92q0 84 38.5 186.5t92.5 160.5q106 115 278 115q114 0 179.5 -44.5t65.5 -121.5q0 -24 -3 -54h-137q2 24 2 32q0 40 -29 63.5t-79 23.5q-124 0 -197 -120q-70 -117 -70 -223q0 -69 45 -110.5t121 -41.5q31 0 96 12l47 154h-142l31 103h287 l-104 -340q-160 -30 -253 -30q-121 0 -192 65z" />
<glyph unicode="H" horiz-adv-x="705" d="M0 0l204 667h148l-83 -270h269l82 270h148l-203 -667h-148l90 294h-269l-90 -294h-148z" />
<glyph unicode="I" horiz-adv-x="288" d="M0 0l204 667h148l-204 -667h-148z" />
<glyph unicode="J" horiz-adv-x="549" d="M-12 151q0 20 5 51h144q-8 -28 -8 -44q0 -32 20.5 -52t52.5 -20q26 0 50.5 14.5t39.5 38.5q16 25 26 51.5t39 123.5l108 353h148l-114 -374q-36 -118 -53 -153q-80 -155 -252 -155q-92 0 -149 45.5t-57 120.5z" />
<glyph unicode="K" horiz-adv-x="653" d="M430 0l-160 378l297 289h179l-325 -311l172 -356h-163zM0 0l204 667h148l-204 -667h-148z" />
<glyph unicode="L" horiz-adv-x="499" d="M0 0l204 667h148l-173 -564h288l-32 -103h-435z" />
<glyph unicode="M" horiz-adv-x="953" d="M0 0l204 667h208l22 -342q3 -36 3 -78q0 -34 -5 -123q47 111 104 201l217 342h218l-158 -667h-152l167 585l-368 -585h-130l-39 585l-168 -585h-123z" />
<glyph unicode="N" horiz-adv-x="701" d="M0 0l204 667h163l73 -336q19 -90 22 -114q5 -29 16 -119q24 100 27 110q12 38 17 57l16 55l106 347h121l-204 -667h-177l-71 310q-19 84 -34 251q-19 -105 -45 -192l-113 -369h-121z" />
<glyph unicode="O" horiz-adv-x="712" d="M63 227q0 72 26.5 153.5t72.5 146.5q107 155 284 155q124 0 195.5 -67.5t71.5 -183.5q0 -75 -39.5 -173.5t-93.5 -156.5q-105 -116 -261 -116q-115 0 -185.5 66.5t-70.5 175.5zM204 215q0 -60 34 -94.5t93 -34.5q97 0 162 104q34 53 56.5 124t22.5 124q0 70 -32.5 106.5 t-93.5 36.5q-109 0 -171 -115q-31 -59 -51 -129t-20 -122z" />
<glyph unicode="P" horiz-adv-x="622" d="M0 0l204 667h242q73 0 108 -9t62 -34q51 -48 51 -119q0 -50 -24.5 -99.5t-65.5 -82.5q-80 -66 -248 -66h-109l-79 -257h-141zM251 360h91q78 0 122 29q28 19 45 49t17 61q0 40 -33 53q-27 12 -92 12h-88z" />
<glyph unicode="Q" horiz-adv-x="707" d="M65 221q0 96 39 193.5t102 159.5q52 51 117 79.5t130 28.5q56 0 108 -21.5t85 -58.5q60 -68 60 -175q0 -122 -65 -228q-22 -36 -48.5 -62.5t-77.5 -63.5q82 26 174 25l-30 -98q-41 2 -69 2q-110 0 -231 -13q-32 -4 -60 -4q-103 0 -168.5 66t-65.5 170zM206 229 q0 -67 32.5 -105t89.5 -38q110 0 178 126q25 46 42 107t17 105q0 72 -33.5 114.5t-90.5 42.5q-95 0 -158 -104q-35 -57 -56 -125t-21 -123z" />
<glyph unicode="R" horiz-adv-x="671" d="M0 0l204 667h254q110 0 157 -32q60 -41 60 -114q0 -43 -25.5 -83.5t-66.5 -62.5q-47 -25 -137 -42q70 -6 98.5 -30t28.5 -77q0 -28 -3 -72q-3 -45 -3 -81q0 -28 4 -73h-145v16v8q0 73 4 127q2 36 2 47q0 45 -24 63q-16 11 -67 11h-117l-83 -272h-141zM255 375h109 q84 0 125 30q50 35 50 92q0 45 -36 59q-15 6 -24.5 7t-58.5 1h-107z" />
<glyph unicode="S" horiz-adv-x="641" d="M89 43q-28 24 -40 57t-14 95h145q3 -58 17 -75q25 -34 109 -34q65 0 106 26t41 67q0 29 -20.5 49t-73.5 42q-113 49 -149 74q-80 55 -80 138q0 96 92 155q70 45 178 45q153 0 217 -78q32 -39 31 -120h-138q-3 43 -18 60q-29 37 -100 37q-51 0 -86 -24.5t-35 -60.5 q0 -32 32 -56q16 -12 86 -44q92 -40 131 -67q74 -50 74 -126q0 -92 -89 -156q-84 -62 -210 -62q-139 0 -206 58z" />
<glyph unicode="T" horiz-adv-x="582" d="M161 0l172 564h-230l31 103h575l-31 -103h-197l-172 -564h-148z" />
<glyph unicode="U" horiz-adv-x="702" d="M67 173q0 49 24 125l113 369h148l-123 -402q-17 -57 -17 -86q0 -41 31.5 -67t81.5 -26q79 0 121 63q27 41 57 140l115 378h148l-108 -353q-34 -110 -56.5 -157.5t-58.5 -84.5q-40 -41 -100 -64t-128 -23q-104 0 -176 54.5t-72 133.5z" />
<glyph unicode="V" horiz-adv-x="629" d="M211 0l-92 667h145l37 -333q9 -88 9 -177q0 -30 -1 -53q44 107 97 210l181 353h150l-375 -667h-151z" />
<glyph unicode="W" horiz-adv-x="1015" d="M186 0l-67 667h138l22 -285q5 -60 5 -111q0 -49 -1 -87q0 -3 -0.5 -25.5t-0.5 -41.5q3 8 21 53l18 49q13 34 37 91l170 357h175l27 -330q3 -32 7 -220q45 137 101 256l137 294h141l-332 -667h-151l-33 356q-5 50 -5 102l1 83v40q-48 -141 -89 -225l-176 -356h-145z" />
<glyph unicode="X" horiz-adv-x="695" d="M-28 0l315 352l-154 315h155l98 -232l192 232h182l-305 -324l185 -343h-162l-123 254l-202 -254h-181z" />
<glyph unicode="Y" horiz-adv-x="618" d="M172 0l73 241l-130 426h153l73 -298l230 298h168l-346 -426l-73 -241h-148z" />
<glyph unicode="Z" horiz-adv-x="639" d="M-1 0l22 132l485 426h-367l34 109h515l-19 -134l-489 -424h396l-33 -109h-544z" />
<glyph unicode="[" horiz-adv-x="354" d="M108 -41h110l-32 -106h-234l253 827h225l-31 -103h-102z" />
<glyph unicode="\" horiz-adv-x="749" d="M556 -107l-431 774h127l432 -774h-128z" />
<glyph unicode="]" horiz-adv-x="354" d="M-21 -44h101l189 618h-110l32 106h234l-252 -827h-226z" />
<glyph unicode="^" horiz-adv-x="500" d="M6 337l162 334h164l161 -334h-130l-113 234l-113 -234h-131z" />
<glyph unicode="_" horiz-adv-x="500" d="M0 -48h500v-112h-500v112z" />
<glyph unicode="`" horiz-adv-x="500" d="M318 523l-97 147h126l58 -147h-87z" />
<glyph unicode="a" horiz-adv-x="563" d="M43 31q-31 30 -31 84q0 88 100 140q37 19 80 26t126 7h61l7 21q9 26 9 42q0 22 -18 35.5t-47 13.5q-66 0 -93 -67h-134q11 35 24 54.5t37 36.5q65 46 171 46t152 -43q37 -32 37 -73q0 -25 -18 -87l-22 -73l-16 -54l-13 -42.5t-9 -30.5t-8 -32.5l-7 -34.5h-125q1 11 1 22 l4 26q1 1 3 27q-41 -45 -79.5 -65t-85.5 -20q-63 0 -106 41zM142 122q0 -23 15.5 -36.5t42.5 -13.5q64 0 107 49q26 30 52 99h-39q-83 0 -124 -22q-54 -31 -54 -76z" />
<glyph unicode="b" horiz-adv-x="565" d="M-3 0l204 667h135l-77 -250q41 30 70.5 41.5t64.5 11.5q65 0 104 -43.5t39 -115.5t-29.5 -142.5t-79.5 -119.5q-61 -59 -140 -59q-54 0 -95 28q-22 15 -47 53l-22 -71h-127zM182 167q0 -41 22 -68t55 -27q50 0 95 68q22 33 37.5 77.5t15.5 75.5q0 45 -19.5 70t-54.5 25 q-59 0 -101 -65q-22 -32 -36 -76.5t-14 -79.5z" />
<glyph unicode="c" horiz-adv-x="533" d="M72 45q-42 47 -42 109q0 57 26 121t68 109q81 86 204 86q106 0 159 -48q34 -32 34 -85q0 -14 -7 -42h-135q7 27 7 38q0 26 -19.5 43t-47.5 17q-65 0 -113 -89q-46 -87 -46 -155q0 -36 21.5 -59t55.5 -23q35 0 59.5 20.5t43.5 66.5h140q-20 -47 -37.5 -71.5t-46.5 -44.5 q-68 -48 -169 -48q-107 0 -155 55z" />
<glyph unicode="d" horiz-adv-x="565" d="M31 148q0 52 20 113t52 108q70 101 175 101q86 0 136 -75l83 272h135l-146 -479q-28 -92 -44 -188h-126l14 66q-86 -76 -160 -76q-59 0 -99 45.5t-40 112.5zM161 154q0 -35 21.5 -58.5t53.5 -23.5q67 0 115 89q35 67 35 128q0 46 -21 72.5t-58 26.5q-60 0 -103 -79 t-43 -155z" />
<glyph unicode="e" horiz-adv-x="550" d="M81 35q-50 44 -50 118q0 58 24 122t62 107q77 88 213 88q89 0 140 -39t51 -108q0 -43 -25 -124h-332q-8 -29 -8 -60q0 -36 21.5 -57.5t57.5 -21.5q69 0 105 82h142q-24 -55 -51 -82q-67 -70 -195 -70q-106 0 -155 45zM186 280h199q6 32 6 49q0 32 -19.5 51.5t-50.5 19.5 q-52 0 -94 -45q-13 -15 -41 -75z" />
<glyph unicode="f" horiz-adv-x="337" d="M20 0l116 379h-80l25 81h80l25 84q20 69 68 101t129 32q41 0 81 -11l-23 -76q-23 3 -37 3q-38 0 -63 -18q-19 -16 -31 -58l-17 -57h95l-25 -81h-92l-116 -379h-135z" />
<glyph unicode="g" horiz-adv-x="570" d="M-23 -40h139v-6q0 -59 63 -59q68 0 105 63q14 24 35 95q-37 -28 -67 -38.5t-71 -10.5q-65 0 -106 43.5t-41 113.5q0 64 28.5 132.5t72.5 111.5q68 65 148 65q87 0 148 -88l23 78h120l-98 -321l-46 -141q-19 -57 -44 -89.5t-70 -57.5q-68 -38 -161 -38q-178 0 -178 126v21 zM164 166q0 -37 21 -58.5t57 -21.5q38 0 66 23t50 74q30 67 30 114q0 43 -20 67t-56 24q-60 0 -103 -73q-45 -75 -45 -149z" />
<glyph unicode="h" horiz-adv-x="587" d="M-3 0l204 667h135l-87 -285q51 47 92.5 67.5t87.5 20.5q54 0 89 -31.5t35 -80.5q0 -29 -20 -92l-82 -266h-135l86 279q6 22 6 44q0 23 -17.5 39t-42.5 16q-60 0 -104 -58q-18 -24 -26 -44t-30 -93l-56 -183h-135z" />
<glyph unicode="i" horiz-adv-x="268" d="M169 564l32 103h135l-32 -103h-135zM-3 0l141 460h135l-141 -460h-135z" />
<glyph unicode="j" horiz-adv-x="282" d="M182 564l32 103h135l-32 -103h-135zM19 30l132 430h135l-141 -460q-19 -63 -31.5 -88t-34.5 -47q-49 -46 -136 -46q-42 0 -87 14l25 82q24 -4 36 -4q37 0 61 28q13 15 20 30.5t21 60.5z" />
<glyph unicode="k" horiz-adv-x="577" d="M-3 0l204 667h135l-120 -391l211 184h179l-251 -201l166 -259h-161l-148 261l-80 -261h-135z" />
<glyph unicode="l" horiz-adv-x="268" d="M-3 0l204 667h135l-204 -667h-135z" />
<glyph unicode="m" horiz-adv-x="890" d="M-3 0l100 326l21 76l9 37q1 1 2 9t2 12h133l-15 -78q49 47 91 67.5t91 20.5q58 0 90 -37q20 -21 25 -66q49 53 87 74q53 29 111 29q50 0 82.5 -31t32.5 -78q0 -26 -11 -64l-91 -297h-135l81 266q11 36 11 60q0 25 -13.5 38.5t-36.5 13.5q-59 0 -102 -59 q-18 -24 -26.5 -44.5t-27.5 -83.5l-59 -191h-135l71 232q19 63 19 90q0 56 -55 56q-54 0 -99 -56q-30 -35 -57 -123l-61 -199h-135z" />
<glyph unicode="n" horiz-adv-x="585" d="M-3 0l108 352q16 51 24 108h129l-18 -87q47 46 77 64q55 33 114 33q51 0 87 -33t36 -79q0 -28 -10 -59l-92 -299h-135l83 272q9 30 9 44q0 28 -15 45t-40 17t-53 -13.5t-47 -35.5q-32 -34 -62 -133l-60 -196h-135z" />
<glyph unicode="o" horiz-adv-x="559" d="M35 160q0 72 28.5 140t74.5 106q78 64 191 64q93 0 144.5 -46.5t51.5 -131.5q0 -49 -19 -105.5t-48 -93.5q-80 -103 -233 -103q-91 0 -140.5 44.5t-49.5 125.5zM165 158q0 -41 21.5 -63.5t60.5 -22.5q69 0 111 79q16 30 26.5 71t10.5 71q0 46 -22 70.5t-62 24.5 q-67 0 -107 -78q-39 -76 -39 -152z" />
<glyph unicode="p" horiz-adv-x="575" d="M151 61l-73 -238h-135l195 637h112l-11 -67q71 77 153 77q69 0 110.5 -43t41.5 -115q0 -63 -25 -129.5t-66 -113.5q-71 -79 -169 -79q-45 0 -73 15t-60 56zM178 160q0 -40 21.5 -64t56.5 -24q60 0 103 67q21 34 37.5 80t17.5 78q1 40 -21 65.5t-58 25.5q-72 0 -116 -88 q-41 -82 -41 -140z" />
<glyph unicode="q" horiz-adv-x="566" d="M33 149q0 69 28 138t75 116q65 67 152 67q42 0 70.5 -17t64.5 -63l26 70h121l-195 -637h-135l69 225q-45 -34 -73 -46t-61 -12q-64 0 -103 43.5t-39 115.5zM163 155q0 -35 21 -59t51 -24q35 0 69 28t54 74q33 74 33 120q0 43 -22 68.5t-59 25.5q-51 0 -89 -57 q-25 -37 -41.5 -87.5t-16.5 -88.5z" />
<glyph unicode="r" horiz-adv-x="365" d="M-3 0l101 330q2 11 9 34q0 1 1.5 6t3.5 14t4 15q8 30 9 34l7 27h132l-30 -99q46 68 83.5 91t100.5 23l-34 -114q-79 -1 -120.5 -35t-66.5 -115l-65 -211h-135z" />
<glyph unicode="s" horiz-adv-x="492" d="M54 22q-21 14 -34.5 38.5t-13.5 47.5q0 12 3 30h126q-2 -16 -2 -20q0 -25 21.5 -41.5t54.5 -16.5q43 0 71 17.5t28 44.5q0 20 -12.5 31.5t-52.5 28.5q-89 36 -123.5 67.5t-34.5 77.5q0 65 57 104t153 39q86 0 133.5 -29.5t47.5 -82.5q0 -16 -1 -26h-123q2 16 2 19 q0 22 -19.5 35.5t-50.5 13.5q-33 0 -54.5 -15.5t-21.5 -39.5q0 -22 17.5 -35.5t74.5 -36.5q70 -27 100.5 -57.5t30.5 -73.5q0 -67 -67 -109.5t-173 -42.5q-88 0 -137 32z" />
<glyph unicode="t" horiz-adv-x="364" d="M66 94q0 28 23 104l56 181h-90l25 81h89l28 91l148 42l-41 -133h94l-25 -81h-93l-59 -190q-16 -52 -16 -71q0 -40 46 -40q18 0 55 8l-26 -86q-46 -10 -85 -10q-57 0 -93 29t-36 75z" />
<glyph unicode="u" horiz-adv-x="583" d="M37 108q0 22 25 104l76 248h135l-78 -256q-13 -41 -13 -70q0 -25 13.5 -38.5t37.5 -13.5q55 0 108 75q33 47 68 163l43 140h135l-94 -305q0 -2 -2 -7t-4.5 -13.5t-4.5 -14.5q-19 -55 -28 -120h-139l22 85q-53 -53 -92 -74t-85 -21q-53 0 -88 33.5t-35 84.5z" />
<glyph unicode="v" horiz-adv-x="509" d="M127 0l-73 460h132l25 -244q10 -95 10 -109q0 -13 -1 -24q34 75 66 133l132 244h126l-266 -460h-151z" />
<glyph unicode="w" horiz-adv-x="837" d="M130 0l-76 460h130l19 -158q8 -72 8 -170q0 -24 -1 -43q39 110 87 196l99 175h144l22 -139q10 -65 10 -152l-2 -80q21 62 35 91l44 90l93 190h130l-265 -460h-132l-20 209q-3 29 -3 90q0 44 -1 79q-25 -70 -64 -142l-124 -236h-133z" />
<glyph unicode="x" horiz-adv-x="554" d="M-25 0l215 245l-114 215h146l62 -141l118 141h166l-226 -227l149 -233h-157l-78 162l-118 -162h-163z" />
<glyph unicode="y" horiz-adv-x="514" d="M156 -5l-102 465h141l40 -352l178 352h136l-214 -368l-46 -80l-47 -79l-59 -110h-137z" />
<glyph unicode="z" horiz-adv-x="479" d="M-19 0l13 99l314 274h-235l26 87h391l-10 -85l-331 -288h268l-26 -87h-410z" />
<glyph unicode="{" horiz-adv-x="354" d="M4 -2l41 135q8 28 8 47q0 31 -37 39l32 104q33 7 50 23.5t29 54.5l41 136q23 77 69.5 110t129.5 33q18 0 37 -1l30 -1l-33 -108h-18q-51 0 -68.5 -12t-31.5 -59l-32 -107q-15 -52 -36.5 -77.5t-63.5 -47.5q34 -27 34 -62q0 -28 -11 -64l-33 -106q-10 -31 -10 -45 q0 -27 66 -27q10 0 18 1l-33 -109h-31q-9 0 -17.5 -0.5t-13.5 -0.5h-6q-63 0 -92.5 18.5t-29.5 58.5q0 29 12 67z" />
<glyph unicode="|" horiz-adv-x="500" d="M187 -167v834h125v-834h-125z" />
<glyph unicode="}" horiz-adv-x="354" d="M-6 -36q51 0 68.5 12t31.5 59l32 107q15 52 36 77.5t63 47.5q-34 27 -34 62q0 23 12 64l32 106q11 38 11 45q0 27 -66 27q-10 0 -19 -1l34 109h30q9 0 17.5 0.5t14 0.5h6.5q63 0 92.5 -19t29.5 -59q0 -27 -12 -66l-41 -135q-9 -29 -9 -47q0 -31 37 -39l-31 -104 q-33 -7 -50 -23.5t-29 -54.5l-42 -136q-23 -77 -69 -110t-129 -33q-18 0 -37 1l-30 1l33 108h18z" />
<glyph unicode="~" horiz-adv-x="667" d="M159 562l-69 45q4 11 8 17q29 67 60.5 93.5t82.5 26.5q32 0 104 -26q65 -24 87 -24q25 0 40 10.5t33 41.5l71 -41q-21 -45 -36 -66.5t-36 -36.5q-40 -29 -86 -29q-24 0 -100 27q-64 24 -85 24q-25 0 -40 -12.5t-34 -49.5z" />
<glyph unicode="&#xa1;" horiz-adv-x="276" d="M108 350l34 110h124l-34 -110h-124zM-67 -207l172 507h103l-132 -507h-143z" />
<glyph unicode="&#xa2;" d="M154 142q-53 45 -53 126q0 71 34.5 144t89.5 119q73 60 172 64l22 73h57l-23 -75q66 -14 88 -29q55 -36 55 -103q0 -15 -5 -34h-129q2 20 2 25q0 43 -37 56l-99 -325q58 9 86 67h130q-29 -68 -91 -106t-150 -41l-25 -83h-57l25 83q-63 12 -92 39zM273 189l99 325 q-29 -4 -52.5 -24.5t-48.5 -64.5q-48 -83 -48 -155q0 -58 50 -81z" />
<glyph unicode="&#xa3;" d="M-5 0l25 83h57l76 249h-83l26 83h83l23 78q29 99 92 140q74 49 200 49q83 0 129.5 -31.5t46.5 -86.5q0 -21 -11 -53h-129q4 17 4 35q0 26 -19.5 40.5t-53.5 14.5q-48 0 -78.5 -26t-46.5 -82l-23 -78h143l-25 -83h-144l-76 -249h318l-26 -83h-508z" />
<glyph unicode="&#xa4;" horiz-adv-x="667" d="M137 69l-67 68l102 102q-44 63 -44 137q0 73 45 138l-104 103l68 69l103 -104q68 45 141 45q71 0 137 -43l103 101l67 -68l-101 -101q46 -72 46 -140q0 -69 -44 -137l102 -102l-67 -68l-102 102q-68 -46 -142 -46q-68 0 -141 45zM242 376q0 -57 41 -98t97 -41 q58 0 98.5 41t40.5 98t-40.5 98t-96.5 41q-59 0 -99.5 -40.5t-40.5 -98.5z" />
<glyph unicode="&#xa5;" d="M175 0l68 220h-209l25 83h174l-21 77h-129l25 83h82l-55 204h146l57 -297l213 297h161l-157 -204h87l-26 -83h-125l-60 -77h162l-26 -83h-190l-68 -220h-134z" />
<glyph unicode="&#xa6;" horiz-adv-x="500" d="M187 321v346h125v-346h-125zM187 153h125v-320h-125v320z" />
<glyph unicode="&#xa7;" d="M38 38q123 -73 200 -73q41 0 67.5 19t26.5 48q0 24 -17 43q-12 12 -25.5 20.5t-83.5 47.5q-63 35 -90 67t-27 70q0 32 17 64.5t45 54.5q25 20 78 46q-29 37 -29 77q0 66 55.5 110.5t137.5 44.5q107 0 195 -45l-25 -81q-88 48 -159 48q-40 0 -66 -17.5t-26 -45.5 q0 -35 59 -65q93 -46 138 -79q51 -37 51 -92q0 -50 -28.5 -90.5t-96.5 -88.5q21 -39 21 -69q0 -73 -63 -123.5t-155 -50.5q-118 0 -231 58zM281 232q44 -24 95 -59q68 47 68 97q0 22 -17.5 40.5t-58.5 39.5q-36 18 -84 49q-46 -21 -63.5 -40t-17.5 -48q0 -22 16.5 -38.5 t61.5 -40.5z" />
<glyph unicode="&#xa8;" horiz-adv-x="500" d="M402 542l33 105h109l-32 -105h-110zM186 542l32 105h110l-32 -105h-110z" />
<glyph unicode="&#xa9;" horiz-adv-x="780" d="M75 336q0 143 103 243.5t249 100.5q139 0 240 -102.5t101 -243.5q0 -144 -101.5 -245.5t-244.5 -101.5q-145 0 -246 101.5t-101 247.5zM132 336q0 -122 84.5 -207t205.5 -85q119 0 204 85t85 205q0 118 -84.5 203.5t-200.5 85.5q-132 0 -219 -96q-75 -83 -75 -191z M236 328q0 95 50 149t138 54q105 0 148 -65q16 -25 17 -66h-91q-2 32 -20.5 50t-51.5 18q-49 0 -74.5 -35.5t-25.5 -103.5q0 -63 24.5 -96.5t70.5 -33.5q69 0 78 70h95q-5 -62 -51 -97.5t-120 -35.5q-87 0 -137 51.5t-50 140.5z" />
<glyph unicode="&#xaa;" horiz-adv-x="407" d="M216 391q-40 0 -64.5 21.5t-24.5 56.5q0 54 64 85q40 20 130 20h34l2 8q2 6 3 11t1.5 7t1 3.5t0.5 2.5q0 12 -10.5 19.5t-27.5 7.5q-39 0 -54 -40h-91q13 42 41 61q41 28 109 28q53 0 87 -20t34 -52q0 -16 -11 -52l-13 -43q-23 -76 -31 -118h-85v16l3 16v6 q-44 -44 -98 -44zM249 448q61 0 91 78h-20q-49 0 -76.5 -13.5t-27.5 -37.5q0 -27 33 -27zM70 286l16 53h302l-16 -53h-302z" />
<glyph unicode="&#xab;" horiz-adv-x="431" d="M258 29l-64 198l151 215h87l-140 -222l45 -191h-79zM95 29l-62 198l152 215h86l-139 -222l41 -191h-78z" />
<glyph unicode="&#xac;" horiz-adv-x="500" d="M33 150v117h433v-267h-125v150h-308z" />
<glyph unicode="&#xad;" horiz-adv-x="258" d="M-9 198l36 119h258l-36 -119h-258z" />
<glyph unicode="&#xae;" horiz-adv-x="780" d="M75 336q0 143 103 243.5t249 100.5q139 0 240 -102.5t101 -243.5q0 -144 -101.5 -245.5t-244.5 -101.5q-145 0 -246 101.5t-101 247.5zM132 336q0 -122 84.5 -207t205.5 -85q119 0 204 85t85 205q0 118 -84.5 203.5t-200.5 85.5q-132 0 -219 -96q-75 -83 -75 -191z M269 143v381h171q72 0 106 -27q35 -29 35 -73q0 -45 -30 -70q-12 -9 -37 -20q29 -11 39.5 -25.5t15.5 -53.5l6 -43l2 -18q3 -29 18 -51h-94q-8 13 -14 62l-5 45q-3 28 -14.5 37.5t-40.5 9.5h-70v-154h-88zM357 361h63q71 0 71 51q0 25 -16 36.5t-52 11.5h-66v-99z" />
<glyph unicode="&#xaf;" horiz-adv-x="500" d="M197 547l26 84h321l-26 -84h-321z" />
<glyph unicode="&#xb0;" horiz-adv-x="323" d="M261 423q-54 0 -91.5 38t-37.5 92q0 53 38 90t93 37q51 0 88.5 -38t37.5 -90q0 -53 -37.5 -91t-90.5 -38zM260 496q23 0 39.5 16t16.5 39t-16.5 39.5t-38.5 16.5q-24 0 -40.5 -16t-16.5 -39t16.5 -39.5t39.5 -16.5z" />
<glyph unicode="&#xb1;" d="M254 158v202h-204v100h204v200h105v-200h204v-100h-204v-202h-105zM50 0v100h513v-100h-513z" />
<glyph unicode="&#xb2;" horiz-adv-x="400" d="M61 267l23 76q87 44 174 109q86 64 86 114q0 22 -16 35.5t-41 13.5q-55 0 -55 -55v-7h-89q1 34 11.5 54.5t34.5 39.5q39 29 102 29q68 0 106 -27t38 -75q0 -75 -100 -146q-75 -53 -145 -92h205l-21 -69h-313z" />
<glyph unicode="&#xb3;" horiz-adv-x="400" d="M115 292q-33 30 -33 67q0 9 3 25h92q-1 -65 58 -65q34 0 57 19.5t23 48.5q0 57 -85 57h-6l17 57q10 -1 24 -1q40 0 64 16.5t24 43.5q0 24 -16 39.5t-41 15.5q-46 0 -56 -55h-94q16 56 44 80q42 36 113 36q59 0 98 -30t39 -76q0 -38 -27 -64t-75 -35q68 -25 68 -85 q0 -56 -51 -92t-131 -36q-72 0 -109 34z" />
<glyph unicode="&#xb4;" horiz-adv-x="500" d="M262 523l121 147h142l-165 -147h-98z" />
<glyph unicode="&#xb5;" horiz-adv-x="583" d="M116 -3l-38 -174h-135l195 637h136l-79 -256q-12 -41 -12 -70q0 -25 13.5 -38.5t37.5 -13.5q56 0 107 75q32 47 68 163l43 140h135l-93 -305q0 -2 -2 -7t-4.5 -13.5t-4.5 -14.5q-19 -55 -28 -120h-140l23 85q-53 -53 -92 -74t-86 -21q-20 0 -44 7z" />
<glyph unicode="&#xb6;" d="M105 -127l137 448q-6 -1 -14 -1q-64 0 -99 30t-35 85q0 52 24.5 100.5t65.5 79.5q71 52 203 52h330l-30 -96h-72l-213 -698h-106l213 698h-85l-213 -698h-106z" />
<glyph unicode="&#xb7;" horiz-adv-x="251" d="M52 179l33 108h118l-33 -108h-118z" />
<glyph unicode="&#xb8;" horiz-adv-x="500" d="M169 -50h81l-87 -153h-119z" />
<glyph unicode="&#xb9;" horiz-adv-x="400" d="M199 267l92 303q-34 -27 -93 -37l25 82q73 18 109 52h83l-122 -400h-94z" />
<glyph unicode="&#xba;" horiz-adv-x="407" d="M265 391q-58 0 -90.5 28t-32.5 78q0 44 17.5 84t46.5 62q48 39 121 39q60 0 93 -29t33 -81q0 -67 -41 -118q-50 -63 -147 -63zM280 447q40 0 63 44q21 39 21 80q0 55 -50 55q-38 0 -61 -43q-22 -41 -22 -84q0 -52 49 -52zM70 286l16 53h302l-16 -53h-302z" />
<glyph unicode="&#xbb;" horiz-adv-x="431" d="M164 29l139 222l-42 191h78l63 -198l-152 -215h-86zM3 29l140 222l-45 191h79l64 -198l-151 -215h-87z" />
<glyph unicode="&#xbc;" horiz-adv-x="1034" d="M236 0l540 667h87l-541 -667h-86zM199 267l92 303q-34 -27 -93 -37l25 82q73 18 109 52h83l-122 -400h-94zM607 86l22 72l248 242h112l-78 -252h88l-19 -62h-88l-26 -86h-91l26 86h-194zM698 148h122l30 97q7 23 34 84q-55 -61 -65 -69z" />
<glyph unicode="&#xbd;" horiz-adv-x="1034" d="M236 0l540 667h87l-541 -667h-86zM199 267l92 303q-34 -27 -93 -37l25 82q73 18 109 52h83l-122 -400h-94zM614 0l23 76q94 49 174 109q86 64 86 113q0 22 -15.5 35.5t-41.5 13.5q-55 0 -55 -54v-7h-90q3 60 47 93q39 29 101 29q68 0 106.5 -27t38.5 -75q0 -72 -100 -145 q-69 -50 -146 -92h206l-21 -69h-313z" />
<glyph unicode="&#xbe;" horiz-adv-x="1034" d="M115 292q-33 30 -33 67q0 9 3 25h92q-1 -65 58 -65q34 0 57 19.5t23 48.5q0 57 -85 57h-6l17 57q10 -1 24 -1q40 0 64 16.5t24 43.5q0 24 -16 39.5t-41 15.5q-46 0 -56 -55h-94q16 56 44 80q42 36 113 36q59 0 98 -30t39 -76q0 -38 -27 -64t-75 -35q68 -25 68 -85 q0 -56 -51 -92t-131 -36q-72 0 -109 34zM252 0l540 667h87l-540 -667h-87zM607 86l22 72l247 242h112l-77 -252h88l-19 -62h-88l-26 -86h-91l26 86h-194zM698 148h122l29 97q7 23 34 84q-44 -50 -65 -69z" />
<glyph unicode="&#xbf;" horiz-adv-x="444" d="M236 352l34 108h118l-33 -108h-119zM-48 -62q0 78 74 151q36 35 129 100q28 20 36 30.5t17 38.5l16 54h119l-29 -92q-12 -39 -19.5 -49t-39.5 -29q-76 -43 -125.5 -99.5t-49.5 -100.5q0 -28 25 -50q27 -23 95 -23q39 0 120 15l-28 -93q-88 -13 -143 -13q-89 0 -143 44 t-54 116z" />
<glyph unicode="&#xc0;" horiz-adv-x="691" d="M442 730l-97 147h126l58 -147h-87zM-53 0l442 667h174l63 -667h-141l-8 144h-289l-83 -144h-158zM254 253h215l-12 345z" />
<glyph unicode="&#xc1;" horiz-adv-x="691" d="M442 730l121 147h142l-165 -147h-98zM-53 0l442 667h174l63 -667h-141l-8 144h-289l-83 -144h-158zM254 253h215l-12 345z" />
<glyph unicode="&#xc2;" horiz-adv-x="691" d="M309 730l151 147h145l78 -147h-110l-52 77l-88 -77h-124zM-53 0l442 667h174l63 -667h-141l-8 144h-289l-83 -144h-158zM254 253h215l-12 345z" />
<glyph unicode="&#xc3;" horiz-adv-x="691" d="M319 746q13 52 40 79q39 39 89 39q38 0 82 -32q28 -22 48 -22q27 0 43 35h75q-14 -53 -47.5 -83t-78.5 -30q-35 0 -78 27q-36 23 -57 23q-32 0 -45 -36h-71zM-53 0l442 667h174l63 -667h-141l-8 144h-289l-83 -144h-158zM254 253h215l-12 345z" />
<glyph unicode="&#xc4;" horiz-adv-x="691" d="M556 742l32 105h110l-32 -105h-110zM333 742l32 105h110l-32 -105h-110zM-53 0l442 667h174l63 -667h-141l-8 144h-289l-83 -144h-158zM254 253h215l-12 345z" />
<glyph unicode="&#xc5;" horiz-adv-x="691" d="M501 717q-46 0 -74 22t-28 58q0 44 31 70t83 26q47 0 76.5 -21.5t29.5 -55.5q0 -45 -32.5 -72t-85.5 -27zM506 760q23 0 35.5 13.5t12.5 37.5q0 38 -41 38q-22 0 -35.5 -14t-13.5 -36q0 -39 42 -39zM-53 0l442 667h174l63 -667h-141l-8 144h-289l-83 -144h-158zM254 253 h215l-12 345z" />
<glyph unicode="&#xc6;" horiz-adv-x="958" d="M-70 0l530 667h558l-32 -103h-324l-20 -165h294l-31 -103h-276l-25 -193h277l-31 -103h-390l18 148h-272l-115 -148h-161zM284 251h208l40 331z" />
<glyph unicode="&#xc7;" horiz-adv-x="666" d="M116 66q-25 29 -40 71t-15 84q0 79 39 173.5t99 162.5q111 125 282 125q104 0 168 -49t64 -128q0 -21 -3 -47h-155q6 24 6 42q0 36 -28 58.5t-73 22.5q-113 0 -192 -153q-66 -130 -66 -222q0 -55 31.5 -87.5t84.5 -32.5q107 0 161 119h153q-24 -53 -45 -82.5t-54 -57.5 q-96 -80 -217 -80q-58 0 -113 22t-87 59zM141 -209l128 159h81l-91 -159h-118z" />
<glyph unicode="&#xc8;" horiz-adv-x="560" d="M395 730l-97 147h126l58 -147h-87zM0 0l204 667h419l-31 -103h-279l-50 -165h279l-32 -103h-278l-60 -193h311l-31 -103h-452z" />
<glyph unicode="&#xc9;" horiz-adv-x="560" d="M375 730l121 147h142l-165 -147h-98zM0 0l204 667h419l-31 -103h-279l-50 -165h279l-32 -103h-278l-60 -193h311l-31 -103h-452z" />
<glyph unicode="&#xca;" horiz-adv-x="560" d="M245 730l151 147h145l78 -147h-110l-52 77l-88 -77h-124zM0 0l204 667h419l-31 -103h-279l-50 -165h279l-32 -103h-278l-60 -193h311l-31 -103h-452z" />
<glyph unicode="&#xcb;" horiz-adv-x="560" d="M491 742l32 105h110l-32 -105h-110zM268 742l32 105h110l-32 -105h-110zM0 0l204 667h419l-31 -103h-279l-50 -165h279l-32 -103h-278l-60 -193h311l-31 -103h-452z" />
<glyph unicode="&#xcc;" horiz-adv-x="288" d="M249 730l-91 147h126l52 -147h-87zM0 0l204 667h148l-204 -667h-148z" />
<glyph unicode="&#xcd;" horiz-adv-x="288" d="M249 730l114 147h142l-158 -147h-98zM0 0l204 667h148l-204 -667h-148z" />
<glyph unicode="&#xce;" horiz-adv-x="288" d="M132 730l137 147h141l63 -147h-107l-38 77l-75 -77h-121zM0 0l204 667h148l-204 -667h-148z" />
<glyph unicode="&#xcf;" horiz-adv-x="288" d="M335 742l32 105h110l-32 -105h-110zM152 742l32 105h110l-32 -105h-110zM0 0l204 667h148l-204 -667h-148z" />
<glyph unicode="&#xd0;" horiz-adv-x="724" d="M0 0l93 304h-70l25 83h70l86 280h209q90 0 138.5 -12t87.5 -43q80 -63 80 -181q0 -84 -34 -172t-92 -153q-55 -61 -119.5 -83.5t-186.5 -22.5h-287zM179 103h114q77 0 121 19t84 70q35 44 57.5 110.5t22.5 123.5q0 60 -28 95q-36 43 -148 43h-82l-54 -177h154l-26 -83 h-153z" />
<glyph unicode="&#xd1;" horiz-adv-x="701" d="M341 746q13 52 40 79q39 39 89 39q38 0 82 -32q28 -22 48 -22q27 0 43 35h75q-14 -53 -47.5 -83t-78.5 -30q-35 0 -78 27q-36 23 -57 23q-32 0 -45 -36h-71zM0 0l204 667h163l73 -336q19 -90 22 -114q5 -29 16 -119q24 100 27 110q12 38 17 57l16 55l106 347h121 l-204 -667h-177l-71 310q-19 84 -34 251q-19 -105 -45 -192l-113 -369h-121z" />
<glyph unicode="&#xd2;" horiz-adv-x="712" d="M465 730l-97 147h126l58 -147h-87zM63 227q0 72 26.5 153.5t72.5 146.5q107 155 284 155q124 0 195.5 -67.5t71.5 -183.5q0 -75 -39.5 -173.5t-93.5 -156.5q-105 -116 -261 -116q-115 0 -185.5 66.5t-70.5 175.5zM204 215q0 -60 34 -94.5t93 -34.5q97 0 162 104 q34 53 56.5 124t22.5 124q0 70 -32.5 106.5t-93.5 36.5q-109 0 -171 -115q-31 -59 -51 -129t-20 -122z" />
<glyph unicode="&#xd3;" horiz-adv-x="712" d="M432 730l121 147h142l-165 -147h-98zM63 227q0 72 26.5 153.5t72.5 146.5q107 155 284 155q124 0 195.5 -67.5t71.5 -183.5q0 -75 -39.5 -173.5t-93.5 -156.5q-105 -116 -261 -116q-115 0 -185.5 66.5t-70.5 175.5zM204 215q0 -60 34 -94.5t93 -34.5q97 0 162 104 q34 53 56.5 124t22.5 124q0 70 -32.5 106.5t-93.5 36.5q-109 0 -171 -115q-31 -59 -51 -129t-20 -122z" />
<glyph unicode="&#xd4;" horiz-adv-x="712" d="M321 730l151 147h145l78 -147h-110l-52 77l-88 -77h-124zM63 227q0 72 26.5 153.5t72.5 146.5q107 155 284 155q124 0 195.5 -67.5t71.5 -183.5q0 -75 -39.5 -173.5t-93.5 -156.5q-105 -116 -261 -116q-115 0 -185.5 66.5t-70.5 175.5zM204 215q0 -60 34 -94.5t93 -34.5 q97 0 162 104q34 53 56.5 124t22.5 124q0 70 -32.5 106.5t-93.5 36.5q-109 0 -171 -115q-31 -59 -51 -129t-20 -122z" />
<glyph unicode="&#xd5;" horiz-adv-x="712" d="M350 746q13 52 40 79q39 39 89 39q38 0 82 -32q28 -22 48 -22q27 0 43 35h75q-14 -53 -47.5 -83t-78.5 -30q-35 0 -78 27q-36 23 -57 23q-32 0 -45 -36h-71zM63 227q0 72 26.5 153.5t72.5 146.5q107 155 284 155q124 0 195.5 -67.5t71.5 -183.5q0 -75 -39.5 -173.5 t-93.5 -156.5q-105 -116 -261 -116q-115 0 -185.5 66.5t-70.5 175.5zM204 215q0 -60 34 -94.5t93 -34.5q97 0 162 104q34 53 56.5 124t22.5 124q0 70 -32.5 106.5t-93.5 36.5q-109 0 -171 -115q-31 -59 -51 -129t-20 -122z" />
<glyph unicode="&#xd6;" horiz-adv-x="712" d="M567 742l32 105h110l-32 -105h-110zM344 742l32 105h110l-32 -105h-110zM63 227q0 72 26.5 153.5t72.5 146.5q107 155 284 155q124 0 195.5 -67.5t71.5 -183.5q0 -75 -39.5 -173.5t-93.5 -156.5q-105 -116 -261 -116q-115 0 -185.5 66.5t-70.5 175.5zM204 215 q0 -60 34 -94.5t93 -34.5q97 0 162 104q34 53 56.5 124t22.5 124q0 70 -32.5 106.5t-93.5 36.5q-109 0 -171 -115q-31 -59 -51 -129t-20 -122z" />
<glyph unicode="&#xd7;" d="M98 166l164 167l-166 164l75 76l164 -165l165 165l71 -69l-164 -166l169 -165l-74 -76l-167 165l-166 -165z" />
<glyph unicode="&#xd8;" horiz-adv-x="712" d="M51 2l61 72q-49 68 -49 153q0 72 26.5 152.5t72.5 147.5q107 155 281 155q99 0 169 -44l65 74l48 -41l-67 -75q54 -64 54 -155q0 -83 -38 -181t-95 -159q-107 -116 -260 -116q-90 0 -160 45l-62 -70zM207 180l324 372q-34 29 -88 29q-108 0 -168 -115q-31 -59 -51 -128.5 t-20 -120.5q0 -15 3 -37zM238 119q42 -33 93 -33q97 0 162 104q35 57 56.5 127.5t21.5 130.5q0 18 -7 49z" />
<glyph unicode="&#xd9;" horiz-adv-x="702" d="M461 730l-97 147h126l58 -147h-87zM67 173q0 49 24 125l113 369h148l-123 -402q-17 -57 -17 -86q0 -41 31.5 -67t81.5 -26q79 0 121 63q27 41 57 140l115 378h148l-108 -353q-34 -110 -56.5 -157.5t-58.5 -84.5q-40 -41 -100 -64t-128 -23q-104 0 -176 54.5t-72 133.5z " />
<glyph unicode="&#xda;" horiz-adv-x="702" d="M437 730l121 147h142l-165 -147h-98zM67 173q0 49 24 125l113 369h148l-123 -402q-17 -57 -17 -86q0 -41 31.5 -67t81.5 -26q79 0 121 63q27 41 57 140l115 378h148l-108 -353q-34 -110 -56.5 -157.5t-58.5 -84.5q-40 -41 -100 -64t-128 -23q-104 0 -176 54.5t-72 133.5z " />
<glyph unicode="&#xdb;" horiz-adv-x="702" d="M318 730l151 147h145l78 -147h-110l-52 77l-88 -77h-124zM67 173q0 49 24 125l113 369h148l-123 -402q-17 -57 -17 -86q0 -41 31.5 -67t81.5 -26q79 0 121 63q27 41 57 140l115 378h148l-108 -353q-34 -110 -56.5 -157.5t-58.5 -84.5q-40 -41 -100 -64t-128 -23 q-104 0 -176 54.5t-72 133.5z" />
<glyph unicode="&#xdc;" horiz-adv-x="702" d="M565 742l32 105h110l-32 -105h-110zM342 742l32 105h110l-32 -105h-110zM67 173q0 49 24 125l113 369h148l-123 -402q-17 -57 -17 -86q0 -41 31.5 -67t81.5 -26q79 0 121 63q27 41 57 140l115 378h148l-108 -353q-34 -110 -56.5 -157.5t-58.5 -84.5q-40 -41 -100 -64 t-128 -23q-104 0 -176 54.5t-72 133.5z" />
<glyph unicode="&#xdd;" horiz-adv-x="618" d="M389 730l121 147h142l-165 -147h-98zM172 0l73 241l-130 426h153l73 -298l230 298h168l-346 -426l-73 -241h-148z" />
<glyph unicode="&#xde;" horiz-adv-x="622" d="M0 0l204 667h141l-29 -94h102q73 0 108 -9t62 -34q51 -48 51 -119q0 -50 -24.5 -99t-65.5 -82q-80 -66 -249 -66h-109l-50 -164h-141zM223 267h91q78 0 122 29q28 19 45 49t17 60q0 40 -33 53q-27 12 -93 12h-87z" />
<glyph unicode="&#xdf;" horiz-adv-x="640" d="M-3 0l141 460q19 61 37.5 94t48.5 58q77 65 202 65q79 0 122 -31t43 -88q0 -49 -40 -89q-17 -17 -83 -55q-40 -23 -40 -44q0 -19 35 -41q76 -45 97 -69q30 -34 30 -84q0 -81 -67 -133.5t-171 -52.5q-70 0 -111.5 25.5t-41.5 67.5q0 17 9 43h109q-3 -15 -3 -20 q0 -15 13 -24.5t35 -9.5q38 0 68 28.5t30 65.5q0 25 -17 44t-68 52q-41 26 -57 47.5t-16 49.5q0 31 24 58q14 16 63 52q42 30 57 48t15 38q0 19 -14.5 29.5t-38.5 10.5q-94 0 -137 -142l-139 -453h-135z" />
<glyph unicode="&#xe0;" horiz-adv-x="563" d="M328 523l-97 147h126l58 -147h-87zM43 31q-31 30 -31 84q0 88 100 140q37 19 80 26t126 7h61l7 21q9 26 9 42q0 22 -18 35.5t-47 13.5q-66 0 -93 -67h-134q11 35 24 54.5t37 36.5q65 46 171 46t152 -43q37 -32 37 -73q0 -25 -18 -87l-22 -73l-16 -54l-13 -42.5t-9 -30.5 t-8 -32.5l-7 -34.5h-125q1 11 1 22l4 26q1 1 3 27q-41 -45 -79.5 -65t-85.5 -20q-63 0 -106 41zM142 122q0 -23 15.5 -36.5t42.5 -13.5q64 0 107 49q26 30 52 99h-39q-83 0 -124 -22q-54 -31 -54 -76z" />
<glyph unicode="&#xe1;" horiz-adv-x="563" d="M305 523l121 147h142l-165 -147h-98zM43 31q-31 30 -31 84q0 88 100 140q37 19 80 26t126 7h61l7 21q9 26 9 42q0 22 -18 35.5t-47 13.5q-66 0 -93 -67h-134q11 35 24 54.5t37 36.5q65 46 171 46t152 -43q37 -32 37 -73q0 -25 -18 -87l-22 -73l-16 -54l-13 -42.5 t-9 -30.5t-8 -32.5l-7 -34.5h-125q1 11 1 22l4 26q1 1 3 27q-41 -45 -79.5 -65t-85.5 -20q-63 0 -106 41zM142 122q0 -23 15.5 -36.5t42.5 -13.5q64 0 107 49q26 30 52 99h-39q-83 0 -124 -22q-54 -31 -54 -76z" />
<glyph unicode="&#xe2;" horiz-adv-x="563" d="M198 523l151 147h145l78 -147h-110l-52 77l-88 -77h-124zM43 31q-31 30 -31 84q0 88 100 140q37 19 80 26t126 7h61l7 21q9 26 9 42q0 22 -18 35.5t-47 13.5q-66 0 -93 -67h-134q11 35 24 54.5t37 36.5q65 46 171 46t152 -43q37 -32 37 -73q0 -25 -18 -87l-22 -73 l-16 -54l-13 -42.5t-9 -30.5t-8 -32.5l-7 -34.5h-125q1 11 1 22l4 26q1 1 3 27q-41 -45 -79.5 -65t-85.5 -20q-63 0 -106 41zM142 122q0 -23 15.5 -36.5t42.5 -13.5q64 0 107 49q26 30 52 99h-39q-83 0 -124 -22q-54 -31 -54 -76z" />
<glyph unicode="&#xe3;" horiz-adv-x="563" d="M195 545q13 52 40 79q39 39 89 39q38 0 82 -32q28 -22 48 -22q27 0 43 35h75q-14 -53 -47.5 -83t-78.5 -30q-37 0 -78 27q-37 23 -57 23q-32 0 -45 -36h-71zM43 31q-31 30 -31 84q0 88 100 140q37 19 80 26t126 7h61l7 21q9 26 9 42q0 22 -18 35.5t-47 13.5 q-66 0 -93 -67h-134q11 35 24 54.5t37 36.5q65 46 171 46t152 -43q37 -32 37 -73q0 -25 -18 -87l-22 -73l-16 -54l-13 -42.5t-9 -30.5t-8 -32.5l-7 -34.5h-125q1 11 1 22l4 26q1 1 3 27q-41 -45 -79.5 -65t-85.5 -20q-63 0 -106 41zM142 122q0 -23 15.5 -36.5t42.5 -13.5 q64 0 107 49q26 30 52 99h-39q-83 0 -124 -22q-54 -31 -54 -76z" />
<glyph unicode="&#xe4;" horiz-adv-x="563" d="M438 542l33 105h109l-32 -105h-110zM222 542l32 105h110l-32 -105h-110zM43 31q-31 30 -31 84q0 88 100 140q37 19 80 26t126 7h61l7 21q9 26 9 42q0 22 -18 35.5t-47 13.5q-66 0 -93 -67h-134q11 35 24 54.5t37 36.5q65 46 171 46t152 -43q37 -32 37 -73q0 -25 -18 -87 l-22 -73l-16 -54l-13 -42.5t-9 -30.5t-8 -32.5l-7 -34.5h-125q1 11 1 22l4 26q1 1 3 27q-41 -45 -79.5 -65t-85.5 -20q-63 0 -106 41zM142 122q0 -23 15.5 -36.5t42.5 -13.5q64 0 107 49q26 30 52 99h-39q-83 0 -124 -22q-54 -31 -54 -76z" />
<glyph unicode="&#xe5;" horiz-adv-x="563" d="M378 520q-46 0 -74 22t-28 58q0 44 31 70t83 26q47 0 76.5 -21.5t29.5 -55.5q0 -45 -32.5 -72t-85.5 -27zM383 563q23 0 35.5 13.5t12.5 37.5q0 38 -41 38q-22 0 -35.5 -14t-13.5 -36q0 -39 42 -39zM43 31q-31 30 -31 84q0 88 100 140q37 19 80 26t126 7h61l7 21 q9 26 9 42q0 22 -18 35.5t-47 13.5q-66 0 -93 -67h-134q11 35 24 54.5t37 36.5q65 46 171 46t152 -43q37 -32 37 -73q0 -25 -18 -87l-22 -73l-16 -54l-13 -42.5t-9 -30.5t-8 -32.5l-7 -34.5h-125q1 11 1 22l4 26q1 1 3 27q-41 -45 -79.5 -65t-85.5 -20q-63 0 -106 41z M142 122q0 -23 15.5 -36.5t42.5 -13.5q64 0 107 49q26 30 52 99h-39q-83 0 -124 -22q-54 -31 -54 -76z" />
<glyph unicode="&#xe6;" horiz-adv-x="870" d="M7 114q0 49 34.5 87.5t96.5 58.5q59 20 183 20h51q17 51 17 71q0 22 -17.5 35.5t-46.5 13.5q-68 0 -94 -69h-133q40 139 232 139q99 0 156 -46q74 46 167 46q89 0 140 -39.5t51 -109.5q0 -54 -25 -122h-334q-7 -43 -7 -62q0 -34 22 -55.5t57 -21.5q74 0 108 82h136 q-29 -65 -61 -94q-66 -58 -186 -58q-67 0 -108.5 17.5t-69.5 58.5q-51 -41 -99.5 -58.5t-110.5 -17.5q-74 0 -116.5 33t-42.5 91zM507 280h200q7 33 7 53q0 29 -20.5 48t-52.5 19q-53 0 -94 -47q-17 -22 -40 -73zM137 120q0 -20 16.5 -34t41.5 -14q57 0 100 46q26 27 44 81 q-52 0 -85 -4q-56 -6 -86.5 -25.5t-30.5 -49.5z" />
<glyph unicode="&#xe7;" horiz-adv-x="534" d="M71 39q-41 49 -41 110q0 58 27 124t69 113q82 88 205 88q106 0 157 -49q34 -31 34 -85q0 -14 -7 -45h-135q7 29 7 41q0 26 -19.5 44t-47.5 18q-63 0 -110 -92q-49 -93 -49 -159q0 -38 21 -61.5t56 -23.5q66 0 102 88h140q-19 -47 -37.5 -72t-47.5 -46q-69 -49 -169 -49 q-107 0 -155 56zM183 -50h81l-88 -153h-119z" />
<glyph unicode="&#xe8;" horiz-adv-x="550" d="M315 523l-97 147h126l58 -147h-87zM81 35q-50 44 -50 118q0 58 24 122t62 107q77 88 213 88q89 0 140 -39t51 -108q0 -43 -25 -124h-332q-8 -29 -8 -60q0 -36 21.5 -57.5t57.5 -21.5q69 0 105 82h142q-24 -55 -51 -82q-67 -70 -195 -70q-106 0 -155 45zM186 280h199 q6 32 6 49q0 32 -19.5 51.5t-50.5 19.5q-52 0 -94 -45q-13 -15 -41 -75z" />
<glyph unicode="&#xe9;" horiz-adv-x="551" d="M288 523l121 147h142l-165 -147h-98zM81 35q-50 44 -50 118q0 58 24 122t62 107q77 88 213 88q89 0 140 -39t51 -108q0 -43 -25 -124h-332q-8 -29 -8 -60q0 -36 21.5 -57.5t57.5 -21.5q69 0 105 82h142q-24 -55 -51 -82q-67 -70 -195 -70q-106 0 -155 45zM186 280h199 q6 32 6 49q0 32 -19.5 51.5t-50.5 19.5q-52 0 -94 -45q-13 -15 -41 -75z" />
<glyph unicode="&#xea;" horiz-adv-x="550" d="M178 523l151 147h145l78 -147h-110l-52 77l-88 -77h-124zM81 35q-50 44 -50 118q0 58 24 122t62 107q77 88 213 88q89 0 140 -39t51 -108q0 -43 -25 -124h-332q-8 -29 -8 -60q0 -36 21.5 -57.5t57.5 -21.5q69 0 105 82h142q-24 -55 -51 -82q-67 -70 -195 -70 q-106 0 -155 45zM186 280h199q6 32 6 49q0 32 -19.5 51.5t-50.5 19.5q-52 0 -94 -45q-13 -15 -41 -75z" />
<glyph unicode="&#xeb;" horiz-adv-x="550" d="M414 542l33 105h109l-32 -105h-110zM198 542l32 105h110l-32 -105h-110zM81 35q-50 44 -50 118q0 58 24 122t62 107q77 88 213 88q89 0 140 -39t51 -108q0 -43 -25 -124h-332q-8 -29 -8 -60q0 -36 21.5 -57.5t57.5 -21.5q69 0 105 82h142q-24 -55 -51 -82 q-67 -70 -195 -70q-106 0 -155 45zM186 280h199q6 32 6 49q0 32 -19.5 51.5t-50.5 19.5q-52 0 -94 -45q-13 -15 -41 -75z" />
<glyph unicode="&#xec;" horiz-adv-x="268" d="M174 523l-91 147h126l52 -147h-87zM-3 0l141 460h135l-141 -460h-135z" />
<glyph unicode="&#xed;" horiz-adv-x="268" d="M181 523l114 147h142l-158 -147h-98zM-3 0l141 460h135l-141 -460h-135z" />
<glyph unicode="&#xee;" horiz-adv-x="268" d="M59 523l133 147h141l60 -147h-106l-36 77l-72 -77h-120zM-3 0l141 460h135l-141 -460h-135z" />
<glyph unicode="&#xef;" horiz-adv-x="268" d="M268 542l32 105h110l-32 -105h-110zM89 542l32 105h110l-32 -105h-110zM-3 0l141 460h135l-141 -460h-135z" />
<glyph unicode="&#xf0;" horiz-adv-x="559" d="M35 160q0 73 28 140t75 106q73 61 160 61q40 0 78 -13q-18 47 -52 97l-101 -48l-27 61l83 38q-16 18 -36 35l48 43q35 -20 62 -43l109 50l29 -59l-82 -38q39 -44 57 -73q59 -92 59 -212q0 -126 -67 -212q-79 -103 -233 -103q-91 0 -140.5 44.5t-49.5 125.5zM165 158 q0 -41 21.5 -63.5t60.5 -22.5q70 0 112 79q16 30 26.5 71t10.5 71q0 46 -22 70.5t-62 24.5q-68 0 -108 -78q-39 -76 -39 -152z" />
<glyph unicode="&#xf1;" horiz-adv-x="585" d="M221 545q13 52 40 79q39 39 89 39q38 0 82 -32q28 -22 48 -22q27 0 43 35h75q-14 -53 -47.5 -83t-78.5 -30q-37 0 -78 27q-37 23 -57 23q-32 0 -45 -36h-71zM-3 0l108 352q16 51 24 108h129l-18 -87q47 46 77 64q55 33 114 33q51 0 87 -33t36 -79q0 -28 -10 -59l-92 -299 h-135l83 272q9 30 9 44q0 28 -15 45t-40 17t-53 -13.5t-47 -35.5q-32 -34 -62 -133l-60 -196h-135z" />
<glyph unicode="&#xf2;" horiz-adv-x="559" d="M318 523l-97 147h126l58 -147h-87zM35 160q0 72 28.5 140t74.5 106q78 64 191 64q93 0 144.5 -46.5t51.5 -131.5q0 -49 -19 -105.5t-48 -93.5q-80 -103 -233 -103q-91 0 -140.5 44.5t-49.5 125.5zM165 158q0 -41 21.5 -63.5t60.5 -22.5q69 0 111 79q16 30 26.5 71 t10.5 71q0 46 -22 70.5t-62 24.5q-67 0 -107 -78q-39 -76 -39 -152z" />
<glyph unicode="&#xf3;" horiz-adv-x="559" d="M295 523l121 147h142l-165 -147h-98zM35 160q0 72 28.5 140t74.5 106q78 64 191 64q93 0 144.5 -46.5t51.5 -131.5q0 -49 -19 -105.5t-48 -93.5q-80 -103 -233 -103q-91 0 -140.5 44.5t-49.5 125.5zM165 158q0 -41 21.5 -63.5t60.5 -22.5q69 0 111 79q16 30 26.5 71 t10.5 71q0 46 -22 70.5t-62 24.5q-67 0 -107 -78q-39 -76 -39 -152z" />
<glyph unicode="&#xf4;" horiz-adv-x="559" d="M175 523l151 147h145l78 -147h-110l-52 77l-88 -77h-124zM35 160q0 72 28.5 140t74.5 106q78 64 191 64q93 0 144.5 -46.5t51.5 -131.5q0 -49 -19 -105.5t-48 -93.5q-80 -103 -233 -103q-91 0 -140.5 44.5t-49.5 125.5zM165 158q0 -41 21.5 -63.5t60.5 -22.5q69 0 111 79 q16 30 26.5 71t10.5 71q0 46 -22 70.5t-62 24.5q-67 0 -107 -78q-39 -76 -39 -152z" />
<glyph unicode="&#xf5;" horiz-adv-x="559" d="M200 545q13 52 40 79q39 39 89 39q38 0 82 -32q28 -22 48 -22q27 0 43 35h75q-14 -53 -47.5 -83t-78.5 -30q-37 0 -78 27q-37 23 -57 23q-32 0 -45 -36h-71zM35 160q0 72 28.5 140t74.5 106q78 64 191 64q93 0 144.5 -46.5t51.5 -131.5q0 -49 -19 -105.5t-48 -93.5 q-80 -103 -233 -103q-91 0 -140.5 44.5t-49.5 125.5zM165 158q0 -41 21.5 -63.5t60.5 -22.5q69 0 111 79q16 30 26.5 71t10.5 71q0 46 -22 70.5t-62 24.5q-67 0 -107 -78q-39 -76 -39 -152z" />
<glyph unicode="&#xf6;" horiz-adv-x="559" d="M415 542l33 105h109l-32 -105h-110zM199 542l32 105h110l-32 -105h-110zM35 160q0 72 28.5 140t74.5 106q78 64 191 64q93 0 144.5 -46.5t51.5 -131.5q0 -49 -19 -105.5t-48 -93.5q-80 -103 -233 -103q-91 0 -140.5 44.5t-49.5 125.5zM165 158q0 -41 21.5 -63.5 t60.5 -22.5q69 0 111 79q16 30 26.5 71t10.5 71q0 46 -22 70.5t-62 24.5q-67 0 -107 -78q-39 -76 -39 -152z" />
<glyph unicode="&#xf7;" d="M287 450v123h109v-123h-109zM85 292v100h513v-100h-513zM287 113v123h109v-123h-109z" />
<glyph unicode="&#xf8;" horiz-adv-x="559" d="M29 -26l52 64q-46 49 -46 121q0 73 28.5 141t74.5 106q78 64 188 64q59 0 103 -19l58 69l41 -34l-53 -64q50 -45 50 -123q0 -54 -18.5 -111t-48.5 -95q-81 -103 -223 -103q-69 0 -108 17l-59 -70zM167 139l196 233q-20 16 -51 16q-78 0 -119 -103q-28 -67 -28 -125 q0 -11 2 -21zM196 86q24 -14 51 -14q69 0 111 79q37 71 37 149q0 8 -3 25z" />
<glyph unicode="&#xf9;" horiz-adv-x="583" d="M331 523l-97 147h126l58 -147h-87zM37 108q0 22 25 104l76 248h135l-78 -256q-13 -41 -13 -70q0 -25 13.5 -38.5t37.5 -13.5q55 0 108 75q33 47 68 163l43 140h135l-94 -305q0 -2 -2 -7t-4.5 -13.5t-4.5 -14.5q-19 -55 -28 -120h-139l22 85q-53 -53 -92 -74t-85 -21 q-53 0 -88 33.5t-35 84.5z" />
<glyph unicode="&#xfa;" horiz-adv-x="583" d="M335 523l121 147h142l-165 -147h-98zM37 108q0 22 25 104l76 248h135l-78 -256q-13 -41 -13 -70q0 -25 13.5 -38.5t37.5 -13.5q55 0 108 75q33 47 68 163l43 140h135l-94 -305q0 -2 -2 -7t-4.5 -13.5t-4.5 -14.5q-19 -55 -28 -120h-139l22 85q-53 -53 -92 -74t-85 -21 q-53 0 -88 33.5t-35 84.5z" />
<glyph unicode="&#xfb;" horiz-adv-x="583" d="M198 523l151 147h145l78 -147h-110l-52 77l-88 -77h-124zM37 108q0 22 25 104l76 248h135l-78 -256q-13 -41 -13 -70q0 -25 13.5 -38.5t37.5 -13.5q55 0 108 75q33 47 68 163l43 140h135l-94 -305q0 -2 -2 -7t-4.5 -13.5t-4.5 -14.5q-19 -55 -28 -120h-139l22 85 q-53 -53 -92 -74t-85 -21q-53 0 -88 33.5t-35 84.5z" />
<glyph unicode="&#xfc;" horiz-adv-x="583" d="M441 542l33 105h109l-32 -105h-110zM225 542l32 105h110l-32 -105h-110zM37 108q0 22 25 104l76 248h135l-78 -256q-13 -41 -13 -70q0 -25 13.5 -38.5t37.5 -13.5q55 0 108 75q33 47 68 163l43 140h135l-94 -305q0 -2 -2 -7t-4.5 -13.5t-4.5 -14.5q-19 -55 -28 -120h-139 l22 85q-53 -53 -92 -74t-85 -21q-53 0 -88 33.5t-35 84.5z" />
<glyph unicode="&#xfd;" horiz-adv-x="514" d="M269 523l121 147h142l-165 -147h-98zM156 -5l-102 465h141l40 -352l178 352h136l-214 -368l-46 -80l-47 -79l-59 -110h-137z" />
<glyph unicode="&#xfe;" horiz-adv-x="575" d="M151 61l-73 -238h-135l258 844h135l-61 -200q-12 -39 -27 -65q65 68 144 68q69 0 110.5 -43t41.5 -115q0 -63 -25 -129.5t-66 -112.5q-71 -80 -169 -80q-45 0 -73 15t-60 56zM178 160q0 -40 21.5 -64t56.5 -24q60 0 103 67q21 34 37.5 80t17.5 78q1 40 -21 65.5t-58 25.5 q-72 0 -116 -88q-41 -82 -41 -140z" />
<glyph unicode="&#xff;" horiz-adv-x="514" d="M382 542l33 105h109l-32 -105h-110zM166 542l32 105h110l-32 -105h-110zM156 -5l-102 465h141l40 -352l178 352h136l-214 -368l-46 -80l-47 -79l-59 -110h-137z" />
<glyph unicode="&#x152;" horiz-adv-x="946" d="M140 49q-76 64 -76 180q0 84 34.5 175.5t91.5 158.5q98 114 260 114q24 0 101 -7q39 -3 70 -3h388l-31 -103h-278l-50 -165h278l-32 -103h-278l-59 -193h310l-31 -103h-378q-36 0 -73 -4q-53 -6 -77 -6q-44 0 -91.5 16.5t-78.5 42.5zM205 219q0 -128 142 -128q32 0 71 12 l142 465q-64 8 -99 8q-112 0 -183 -110q-30 -47 -51.5 -119t-21.5 -128z" />
<glyph unicode="&#x153;" horiz-adv-x="883" d="M90 28q-26 20 -42 57t-16 78q0 57 21.5 119t55.5 99q38 42 95 65.5t123 23.5q55 0 91.5 -13.5t71.5 -45.5q40 33 78 46t96 13q82 0 137 -37q53 -36 53 -114q0 -45 -25 -120h-332q-8 -33 -8 -53q0 -40 21 -63t58 -23q64 0 106 82h141q-34 -80 -92.5 -116t-155.5 -36 q-56 0 -92.5 13.5t-70.5 46.5q-71 -60 -178 -60q-87 0 -136 38zM519 280h199q6 37 6 52q0 29 -20 48.5t-51 19.5q-51 0 -91 -42q-20 -21 -43 -78zM162 165q0 -44 22 -68.5t61 -24.5q67 0 107 73q18 32 30 75t12 75q0 43 -22.5 68t-62.5 25q-76 0 -117 -94q-30 -67 -30 -129z " />
<glyph unicode="&#x178;" horiz-adv-x="618" d="M510 742l32 105h110l-32 -105h-110zM287 742l32 105h110l-32 -105h-110zM172 0l73 241l-130 426h153l73 -298l230 298h168l-346 -426l-73 -241h-148z" />
<glyph unicode="&#x2c6;" horiz-adv-x="500" d="M152 523l151 147h145l78 -147h-110l-52 77l-88 -77h-124z" />
<glyph unicode="&#x2dc;" horiz-adv-x="500" d="M174 545q13 52 40 79q39 39 89 39q38 0 82 -32q28 -22 48 -22q27 0 43 35h75q-14 -53 -47.5 -83t-78.5 -30q-37 0 -78 27q-37 23 -57 23q-32 0 -45 -36h-71z" />
<glyph unicode="&#x2000;" horiz-adv-x="446" />
<glyph unicode="&#x2001;" horiz-adv-x="893" />
<glyph unicode="&#x2002;" horiz-adv-x="446" />
<glyph unicode="&#x2003;" horiz-adv-x="893" />
<glyph unicode="&#x2004;" horiz-adv-x="297" />
<glyph unicode="&#x2005;" horiz-adv-x="223" />
<glyph unicode="&#x2006;" horiz-adv-x="148" />
<glyph unicode="&#x2007;" horiz-adv-x="148" />
<glyph unicode="&#x2008;" horiz-adv-x="111" />
<glyph unicode="&#x2009;" horiz-adv-x="178" />
<glyph unicode="&#x200a;" horiz-adv-x="49" />
<glyph unicode="&#x2010;" horiz-adv-x="258" d="M-9 198l36 119h258l-36 -119h-258z" />
<glyph unicode="&#x2011;" horiz-adv-x="258" d="M-9 198l36 119h258l-36 -119h-258z" />
<glyph unicode="&#x2013;" horiz-adv-x="575" d="M47 198l36 119h464l-37 -119h-463z" />
<glyph unicode="&#x2014;" horiz-adv-x="773" d="M-9 198l36 119h774l-37 -119h-773z" />
<glyph unicode="&#x2018;" horiz-adv-x="256" d="M135 518l112 149h89l-81 -149h-120z" />
<glyph unicode="&#x2019;" horiz-adv-x="256" d="M142 518l82 149h119l-111 -149h-90z" />
<glyph unicode="&#x201a;" horiz-adv-x="256" d="M-29 -42l82 149h119l-111 -149h-90z" />
<glyph unicode="&#x201c;" horiz-adv-x="436" d="M315 518l112 149h89l-81 -149h-120zM135 518l112 149h89l-81 -149h-120z" />
<glyph unicode="&#x201d;" horiz-adv-x="436" d="M322 518l82 149h119l-111 -149h-90zM142 518l82 149h119l-111 -149h-90z" />
<glyph unicode="&#x201e;" horiz-adv-x="436" d="M151 -42l82 149h120l-112 -149h-90zM-29 -42l82 149h120l-112 -149h-90z" />
<glyph unicode="&#x2022;" horiz-adv-x="667" d="M335 200q-57 0 -98 40.5t-41 97.5q0 58 41 98.5t100 40.5q55 0 95.5 -41t40.5 -97q0 -58 -40.5 -98.5t-97.5 -40.5z" />
<glyph unicode="&#x2026;" horiz-adv-x="753" d="M499 0l33 108h117l-33 -108h-117zM248 0l33 108h118l-34 -108h-117zM-3 0l33 108h118l-33 -108h-118z" />
<glyph unicode="&#x202f;" horiz-adv-x="178" />
<glyph unicode="&#x2039;" horiz-adv-x="268" d="M95 29l-62 198l152 215h86l-139 -222l41 -191h-78z" />
<glyph unicode="&#x203a;" horiz-adv-x="268" d="M1 29l139 222l-42 191h78l63 -198l-152 -215h-86z" />
<glyph unicode="&#x205f;" horiz-adv-x="223" />
<glyph unicode="&#x20ac;" horiz-adv-x="806" d="M216 66q-56 63 -56 154v4l1 3h-103l61 84h53q5 21 13 46h-87l61 84h62q37 71 77 116q54 60 127 92.5t155 32.5q103 0 167.5 -49t64.5 -126q0 -22 -3 -49h-154q5 28 5 44q0 35 -28.5 57t-72.5 22q-109 0 -185 -140h227l-61 -84h-204l-10 -26l-6 -20h186l-61 -84h-143 q-1 -8 -1 -20q0 -56 31.5 -88.5t85.5 -32.5q107 0 160 119h154q-24 -53 -45 -82.5t-54 -57.5q-96 -80 -218 -80q-58 0 -112.5 22t-86.5 59z" />
<glyph unicode="&#x2122;" horiz-adv-x="917" d="M406 287l116 380h128l15 -193q2 -24 2 -44v-9q0 -15 -1 -41q27 58 50 94l126 193h132l-88 -380h-97l88 307l-197 -307h-82l-25 308l-87 -308h-80zM161 287l96 315h-133l20 65h341l-20 -65h-114l-96 -315h-94z" />
</font>
</defs>
</svg>
