<?xml version="1.0" standalone="no"?>
<!DOCTYPE svg PUBLIC "-//W3C//DTD SVG 1.1//EN" "http://www.w3.org/Graphics/SVG/1.1/DTD/svg11.dtd" >
<svg xmlns="http://www.w3.org/2000/svg">
<metadata></metadata>
<defs>
<font id="UniversLTStd47CnLtBold" horiz-adv-x="1024" >
<font-face units-per-em="2048" ascent="1483" descent="-565" />
<missing-glyph horiz-adv-x="454" />
<glyph unicode="&#xfb01;" d="M0 856v178h131q0 89 -0.5 161.5t13 127t46 91.5t98 56t169.5 19q32 0 102 -4v-185q-84 6 -112.5 -26.5t-28.5 -114.5v-125h135v-178h-135v-856h-289v856h-129zM621 0v1034h288v-1034h-288zM621 1251v228h288v-228h-288z" />
<glyph unicode="&#xfb02;" d="M0 856v178h131q0 89 -0.5 161.5t13 127t46 91.5t98 56t169.5 19q32 0 102 -4v-185q-84 6 -112.5 -26.5t-28.5 -114.5v-125h135v-178h-135v-856h-289v856h-129zM621 0v1479h288v-1479h-288z" />
<glyph horiz-adv-x="0" />
<glyph horiz-adv-x="2048" />
<glyph unicode=" "  horiz-adv-x="454" />
<glyph unicode="&#x09;" horiz-adv-x="454" />
<glyph unicode="&#xa0;" horiz-adv-x="454" />
<glyph unicode="!" horiz-adv-x="681" d="M197 1479h286l-45 -1084h-196zM217 0v246h246v-246h-246z" />
<glyph unicode="&#x22;" horiz-adv-x="681" d="M31 948v531h245v-531h-245zM406 948v531h245v-531h-245z" />
<glyph unicode="#" horiz-adv-x="909" d="M-4 395v209h180l29 221h-150v209h176l52 396h176l-51 -396h176l51 396h176l-51 -396h153v-209h-180l-28 -221h149v-209h-176l-51 -395h-176l51 395h-176l-52 -395h-176l52 395h-154zM352 604h176l29 221h-176z" />
<glyph unicode="$" horiz-adv-x="909" d="M20 432h283q0 -39 1 -61.5t6.5 -58t16 -56t32 -38.5t51.5 -23v397q-48 29 -73 44.5t-71 48t-72 57t-59.5 64t-51.5 77.5t-31 88.5t-13 105.5q0 172 101.5 263.5t269.5 107.5v158h88v-158q106 -2 177.5 -28.5t112.5 -80t58.5 -127t17.5 -178.5h-270q2 33 -1 64.5t-13 61 t-31 50t-51 25.5v-369q17 -10 50.5 -30t53.5 -32t52 -33t52.5 -37t47.5 -41t44 -47.5t35.5 -53.5t29 -63t17.5 -71.5t7 -82.5q0 -85 -20 -151t-54.5 -108.5t-85 -71.5t-106 -43t-123.5 -19v-177h-88v177q-82 0 -144 14.5t-104.5 43t-71 65.5t-43.5 90.5t-21 108.5t-6 128z M322 1096q0 -46 24 -93t64 -79v311q-45 -14 -66.5 -46.5t-21.5 -92.5zM498 195q106 19 106 151q0 63 -27 106.5t-79 82.5v-340z" />
<glyph unicode="%" horiz-adv-x="1593" d="M66 1042q0 88 11.5 152t42 120.5t90.5 86t150 29.5q72 0 125.5 -20.5t85.5 -54t51.5 -85.5t26 -105.5t6.5 -122.5q0 -190 -65 -279t-230 -89t-229.5 88.5t-64.5 279.5zM260 1065q0 -136 18 -182.5t82 -46.5q65 0 83 47t18 182q0 29 -0.5 41t-2.5 42.5t-8.5 46t-17 35.5 t-29 29t-43.5 9q-24 0 -42 -8.5t-28.5 -26.5t-17 -34.5t-9 -43.5t-3 -41.5t-0.5 -40.5v-8zM416 -43l598 1499h151l-598 -1499h-151zM938 369q0 69 6.5 122.5t26 105t51.5 85t85.5 54t125.5 20.5t125.5 -20.5t85.5 -54t51.5 -85t26 -105t6.5 -122.5q0 -191 -65 -280t-230 -89 t-230 89t-65 280zM1133 391q0 -136 18 -182.5t82 -46.5t82 46.5t18 182.5q0 106 -17 147q-24 56 -83 56q-24 0 -42 -8.5t-28.5 -26.5t-17 -34.5t-9 -43.5t-3 -41.5t-0.5 -40.5v-8z" />
<glyph unicode="&#x26;" horiz-adv-x="1366" d="M25 424q0 71 22.5 134t65.5 114.5t90.5 92t111.5 81.5q-50 64 -79.5 109t-56.5 117.5t-27 144.5q0 81 58.5 146.5t161 102.5t226.5 37q46 0 93.5 -8.5t99 -29.5t91.5 -52.5t65.5 -83t25.5 -115.5q0 -28 -4.5 -55.5t-10 -49.5t-18 -46t-21.5 -41t-27.5 -39.5t-30 -35.5 t-34 -34.5t-34 -31.5t-37 -32.5t-35.5 -31.5l231 -303q20 72 26.5 129.5t6.5 165.5h250q0 -79 -2 -125.5t-10.5 -121t-30.5 -138.5t-57 -121l223 -303h-303l-90 117q-82 -81 -181.5 -111.5t-230.5 -30.5q-255 0 -391.5 116t-136.5 333zM334 424q0 -106 59.5 -166.5 t165.5 -60.5q151 0 225 98l-301 369q-149 -115 -149 -240zM434 1202q0 -39 18 -80.5t37.5 -67.5t53.5 -65q147 92 147 203q0 59 -33.5 93t-93.5 34q-51 0 -90 -33t-39 -84z" />
<glyph unicode="'" horiz-adv-x="512" d="M133 948v531h246v-531h-246z" />
<glyph unicode="(" horiz-adv-x="569" d="M68 666q0 327 217 880h161q-42 -178 -63.5 -277.5t-45.5 -277t-24 -327.5q0 -128 15 -265.5t31.5 -225t46 -226t40.5 -195.5h-161q-6 19 -36 107t-39.5 117t-34.5 109.5t-35 120.5t-27.5 111.5t-25 121t-13.5 111t-6 116.5z" />
<glyph unicode=")" horiz-adv-x="569" d="M123 -248q42 177 63.5 277.5t45.5 278t24 327.5q0 128 -15 265t-31.5 224.5t-46 226t-40.5 195.5h162q7 -21 36 -107t39 -117t35 -109.5t35.5 -120t27.5 -112t24.5 -120.5t13.5 -111t6 -116q0 -328 -217 -881h-162z" />
<glyph unicode="*" horiz-adv-x="909" d="M66 1024v199l280 -35l-166 221l172 94l103 -254l102 254l172 -94l-166 -221l281 35v-199l-281 37l182 -232l-174 -106l-116 281l-117 -281l-174 106l182 232z" />
<glyph unicode="+" d="M51 403v228h348v403h228v-403h346v-228h-346v-403h-228v403h-348z" />
<glyph unicode="," horiz-adv-x="454" d="M51 -199l84 469h268l-155 -469h-197z" />
<glyph unicode="-" horiz-adv-x="681" d="M90 449v208h502v-208h-502z" />
<glyph unicode="." horiz-adv-x="454" d="M104 0v270h246v-270h-246z" />
<glyph unicode="/" horiz-adv-x="569" d="M-66 -197l490 1676h209l-488 -1676h-211z" />
<glyph unicode="0" horiz-adv-x="909" d="M41 719q0 124 4.5 213.5t16 170t32 134t51 96.5t75 67t102 36t133.5 12q89 0 153 -15t110.5 -53t75 -90.5t45.5 -139t23 -186.5t6 -245q0 -84 -1.5 -144t-6.5 -129.5t-13.5 -118t-24 -100.5t-37 -86.5t-52.5 -67t-70.5 -51t-91.5 -29.5t-116 -11t-116 11t-91.5 29.5 t-70.5 51t-53 67.5t-37 86.5t-24 100t-14 118t-6.5 129.5t-1.5 144zM330 715q0 -89 0.5 -147t3 -116.5t6 -93t10 -67.5t15.5 -49.5t22 -29.5t29.5 -17.5t38.5 -4.5t38.5 4.5t29.5 17.5t22 29.5t15.5 49.5t10 67.5t6 93t3 116.5t0.5 147q0 349 -18.5 436.5t-106.5 87.5 t-106.5 -87.5t-18.5 -436.5z" />
<glyph unicode="1" horiz-adv-x="909" d="M100 940v268q186 104 277 222h274v-1430h-309v1100q-105 -87 -242 -160z" />
<glyph unicode="2" horiz-adv-x="909" d="M25 0v252q81 107 171 224.5t135.5 176t96 127.5t71 102.5t40.5 75t25 72.5t5 70q0 61 -25.5 100t-82.5 39q-34 0 -58.5 -13t-37 -31.5t-19.5 -49t-8.5 -54t-1.5 -57.5h-289q-15 198 89 306t304 108q197 0 307.5 -88.5t110.5 -280.5q0 -58 -17.5 -123t-42.5 -121.5 t-67.5 -124t-78 -116t-89.5 -112.5t-85.5 -98.5t-83 -90t-66.5 -72.5h544v-221h-847z" />
<glyph unicode="3" horiz-adv-x="909" d="M25 387h288v-8q0 -31 0.5 -47t3.5 -42.5t11 -40.5t20.5 -29.5t34.5 -22.5t51 -7q38 0 65 14t41.5 34.5t22.5 53t10 58.5t2 62q0 39 -3 69t-11 53t-17.5 38.5t-27.5 26.5t-35.5 17.5t-47.5 9.5t-56.5 4t-69.5 1v227q56 -4 97.5 -0.5t70 14t46 35t25 63t7.5 99.5 q0 34 -4 60t-14.5 53t-34 42t-58.5 15q-37 0 -61 -13.5t-34.5 -40t-13.5 -51t-3 -61.5h-289q0 214 93 294.5t317 80.5q202 0 296.5 -89.5t94.5 -291.5q0 -55 -9 -104t-29.5 -95.5t-60.5 -78t-96 -39.5v-5q54 -10 94 -34t63 -55t37 -75t18.5 -86.5t4.5 -97.5 q0 -216 -112 -315.5t-334 -99.5q-215 0 -304 89.5t-89 315.5z" />
<glyph unicode="4" horiz-adv-x="909" d="M45 326v288q222 522 329 777q16 38 17 39h379v-883h113v-221h-113v-326h-283v326h-442zM266 547h246l18 682h-4z" />
<glyph unicode="5" horiz-adv-x="909" d="M59 336h289q0 -69 24 -107.5t85 -38.5q81 0 105 62t24 221v15v46t-2.5 49.5t-6.5 53t-13 46.5t-22 41t-33 25.5t-46 10.5q-39 0 -65 -27.5t-35 -61.5t-9 -71h-278v830h747v-222h-465v-356l4 -4q64 96 207 96q170 0 237.5 -114t67.5 -357q0 -143 -26 -238.5t-82.5 -151 t-135 -78.5t-192.5 -23q-187 0 -286 84.5t-93 269.5z" />
<glyph unicode="6" horiz-adv-x="909" d="M39 594q0 120 2 201t9 171.5t20 149t35 118t54.5 95t77 65t104.5 42t136 12.5q174 0 276 -80t101 -248h-301q7 131 -100 131q-92 0 -111.5 -71t-19.5 -355q65 57 109.5 78t119.5 21q317 0 317 -455q0 -115 -22.5 -202t-71.5 -152.5t-133.5 -99t-202.5 -33.5 q-78 0 -139.5 19.5t-103 50t-71 80t-46 98t-25.5 116t-11.5 121.5t-2.5 127zM328 442q0 -31 0.5 -48.5t3.5 -53t10.5 -57t20 -45.5t34 -36t49.5 -12q51 0 79 23.5t41.5 83t13.5 170.5q0 143 -26.5 201.5t-104.5 58.5q-28 0 -48 -8t-33.5 -26.5t-21.5 -40t-12 -57.5t-5 -68.5 t-1 -84.5z" />
<glyph unicode="7" horiz-adv-x="909" d="M63 1208v222h768v-273l-348 -1157h-321l391 1208h-490z" />
<glyph unicode="8" horiz-adv-x="909" d="M41 367q0 58 4 102t17 90.5t36 81t61.5 64.5t92.5 49v4q-113 29 -156 106.5t-43 204.5q0 193 101 286t301 93t300.5 -93t100.5 -286q0 -127 -43 -204.5t-156 -106.5v-4q54 -19 92.5 -49t61.5 -64.5t36 -81t17 -90.5t4 -102q0 -198 -103.5 -291.5t-309.5 -93.5t-310 93.5 t-104 291.5zM330 385q0 -195 125 -195t125 195v42t-2 45t-6.5 50t-13.5 43t-22 40t-33.5 23.5t-47.5 10.5t-47.5 -10.5t-33.5 -23.5t-22 -40t-13.5 -43t-6.5 -50t-2 -45v-42zM342 1053q0 -193 113 -193q112 0 112 193q0 186 -112 186q-113 0 -113 -186z" />
<glyph unicode="9" horiz-adv-x="909" d="M39 940q0 89 11 161.5t39.5 138.5t74 110.5t117 71t165.5 26.5q88 0 156 -22t112.5 -51.5t74.5 -92t45.5 -110t23.5 -140.5t9 -149t1 -168v-6q0 -97 -1.5 -153t-9.5 -143.5t-24 -139.5t-47 -114t-75 -96t-112 -57.5t-155 -23.5q-196 0 -292.5 80t-92.5 274h287 q0 -146 107 -146q77 0 103 55q24 50 24 215q1 29 0 94v93q-94 -94 -238 -94q-64 0 -115.5 22t-86 59t-58 87.5t-33.5 105t-10 113.5zM328 997q0 -31 0.5 -49.5t3.5 -52.5t11.5 -55.5t21 -44t35 -34t51.5 -11.5t52 12t36.5 35t22 46.5t12.5 56t5 54.5t1 50q0 29 -1 50 t-4.5 53.5t-12 54.5t-22 44t-35.5 33.5t-52 11.5t-52.5 -12t-35.5 -35.5t-21 -45.5t-11.5 -57t-4 -53.5t-0.5 -50.5z" />
<glyph unicode=":" horiz-adv-x="454" d="M104 0v270h246v-270h-246zM104 764v270h246v-270h-246z" />
<glyph unicode=";" horiz-adv-x="454" d="M25 -199l84 469h268l-156 -469h-196zM104 768v266h246v-266h-246z" />
<glyph unicode="&#x3c;" d="M86 412v202l854 465v-227l-608 -342l608 -332v-227z" />
<glyph unicode="=" d="M51 203v227h922v-227h-922zM51 604v227h922v-227h-922z" />
<glyph unicode="&#x3e;" d="M84 -49v227l608 332l-608 342v227l854 -465v-202z" />
<glyph unicode="?" horiz-adv-x="909" d="M76 1083v6q0 64 2.5 102t22.5 105t57.5 106t115 70t187.5 31q163 0 268 -87.5t105 -246.5q0 -115 -39 -200t-107 -166q-8 -10 -41 -50t-43 -54t-29 -45t-25.5 -56.5t-6.5 -54.5v-148h-211v211q0 50 22.5 107t55 110t64.5 106t54.5 110.5t22.5 107.5q0 69 -26 108t-93 39 q-23 0 -41 -7.5t-29.5 -17.5t-19.5 -29.5t-12 -33.5t-6 -40.5t-2 -40.5v-42h-246zM317 0v246h246v-246h-246z" />
<glyph unicode="@" horiz-adv-x="1628" d="M88 741q0 209 102 384t277.5 276.5t384.5 101.5q149 0 270.5 -43.5t197 -110t127 -151t72.5 -162t21 -147.5q0 -117 -37 -224.5t-98 -184.5t-143.5 -123t-169.5 -46q-47 0 -88.5 30.5t-51.5 84.5l-4 4q-44 -57 -109 -88t-128 -31q-67 0 -118.5 33t-81 87t-44 114 t-14.5 123q0 91 25 173.5t71.5 148t121 104.5t165.5 39q78 0 127 -28.5t75 -90.5h4l19 92h190l-71 -399q-33 -182 -33 -201q0 -33 39 -33q49 0 98 51.5t80.5 136t32.5 173.5q2 97 -20.5 177.5t-59.5 134t-88.5 94t-102 62.5t-106 36t-94.5 18t-74 4q-169 0 -312 -83 t-226 -225.5t-83 -310.5t83 -311.5t226 -227t312 -83.5q123 0 239.5 50t194.5 130h187q-100 -149 -267.5 -236.5t-353.5 -87.5q-209 0 -384.5 102.5t-277.5 278.5t-102 385zM657 653q0 -76 28.5 -128t88.5 -52q35 0 65.5 10t59.5 35t49 64.5t32.5 103t12.5 145.5 q0 72 -36 115t-97 43q-89 0 -146 -97t-57 -239z" />
<glyph unicode="A" horiz-adv-x="1251" d="M16 0l410 1479h408l401 -1479h-326l-82 328h-421l-84 -328h-306zM467 555h295l-150 639h-4z" />
<glyph unicode="B" horiz-adv-x="1251" d="M133 0v1479h549q76 0 136 -9.5t117 -35t94.5 -67.5t60 -110.5t22.5 -160.5q0 -130 -64 -216t-188 -110v-4q155 -22 216 -116t61 -259q0 -77 -19 -139.5t-48 -102.5t-72.5 -69.5t-82 -44t-88 -23t-80.5 -10.5t-67 -2h-547zM442 227h172q29 0 48.5 1.5t54 12.5t55.5 31.5 t38 62.5t17 101q0 104 -46 157.5t-158 53.5h-181v-420zM442 874h207q62 0 112 46t50 143q0 82 -50 135t-128 53h-191v-377z" />
<glyph unicode="C" horiz-adv-x="1138" d="M115 739q0 97 1 146.5t6.5 136t19.5 133t36.5 111.5t61 100t90.5 71t126.5 51t168.5 15q231 0 335 -124q95 -114 96 -329q0 -19 -1 -38h-303q0 147 -29 208.5t-98 61.5q-43 0 -75 -13t-53.5 -44.5t-35 -71.5t-21 -106t-10 -135.5t-2.5 -172.5t2.5 -172.5t10 -135.5 t21 -106t35 -71t53.5 -44t75 -13q32 0 56 10.5t39 37t24 44.5t13.5 62t5.5 58.5t2 62.5q0 6 0.5 9t0.5 8v9h305q0 -146 -28.5 -248t-86.5 -162t-138.5 -86.5t-192.5 -26.5q-107 0 -189 24.5t-135.5 57.5t-90.5 99.5t-55.5 117.5t-27.5 147t-10.5 152t-1.5 166z" />
<glyph unicode="D" horiz-adv-x="1251" d="M135 0v1479h516q120 0 206 -33t139 -90.5t84 -152.5t42 -201t11 -254v-39q1 -18 1 -38t-1 -41q-2 -42 -2.5 -88t-8.5 -93.5t-18 -94t-30 -91t-45 -84t-63 -72.5t-84 -56.5t-108 -37t-135 -13.5h-504zM444 227h150q57 0 96 18.5t64.5 54t39.5 100t19.5 143t5.5 196.5 q0 90 -1 134.5t-6.5 117t-19.5 109t-36.5 77t-61 57.5t-90.5 17h-160v-1024z" />
<glyph unicode="E" d="M129 0v1479h807v-228h-498v-364h459v-228h-459v-432h514v-227h-823z" />
<glyph unicode="F" horiz-adv-x="909" d="M123 0v1479h768v-228h-459v-379h438v-227h-438v-645h-309z" />
<glyph unicode="G" horiz-adv-x="1251" d="M115 752q0 98 2.5 160.5t13 150t31 143t59 117.5t93 97.5t137 59t188.5 23.5q231 0 359 -125q115 -114 115 -313q0 -20 -1 -41h-307v20q0 34 -3 60q-3 34 -14 69.5t-30.5 58t-54 36.5t-82.5 14q-35 0 -63.5 -10.5t-48 -36t-34 -50t-23.5 -71t-14 -79t-7 -95t-2.5 -98.5 t-0.5 -107q0 -236 19.5 -349.5t64 -154.5t137.5 -41q69 0 154 29v328h-168v227h477v-749q-262 -50 -418 -50q-87 0 -157 8.5t-126 24.5t-98.5 44.5t-74 61.5t-53 83.5t-35.5 103t-21.5 127.5t-10.5 149t-3 175z" />
<glyph unicode="H" horiz-adv-x="1251" d="M139 0v1479h310v-592h354v592h309v-1479h-309v659h-354v-659h-310z" />
<glyph unicode="I" horiz-adv-x="569" d="M129 0v1479h309v-1479h-309z" />
<glyph unicode="J" d="M31 492h315q0 -14 -1 -46t-1 -51t2 -48.5t6.5 -47.5t14.5 -39.5t24.5 -33.5t37.5 -20.5t52 -8.5q51 0 85 39t34 88v1155h309v-1135q0 -75 -23.5 -137t-64 -104.5t-95.5 -71.5t-116.5 -42.5t-128.5 -13.5q-92 0 -161 12t-117 30.5t-80.5 56t-50.5 72.5t-27.5 97.5 t-11.5 113t-2 135.5z" />
<glyph unicode="K" horiz-adv-x="1138" d="M111 0v1479h309v-633h4l362 633h340l-413 -664l413 -815h-348l-354 758h-4v-758h-309z" />
<glyph unicode="L" horiz-adv-x="909" d="M131 0v1479h309v-1233h463v-246h-772z" />
<glyph unicode="M" horiz-adv-x="1705" d="M123 0v1479h498l231 -1006h4l246 1006h481v-1479h-301v1141h-4l-285 -1141h-295l-270 1141h-4v-1141h-301z" />
<glyph unicode="N" horiz-adv-x="1366" d="M131 0v1479h418l393 -1024h4v1024h289v-1479h-408l-403 1081h-4v-1081h-289z" />
<glyph unicode="O" horiz-adv-x="1251" d="M115 739q0 97 1 146.5t6.5 136t19.5 133t36.5 111.5t61 100t90.5 71t126.5 51t168.5 15t168.5 -15t126.5 -51t90.5 -71t61 -100t36.5 -111.5t19.5 -133t6.5 -136t1 -146.5q0 -110 -1.5 -166t-10.5 -152t-27.5 -147t-55.5 -117.5t-90.5 -99.5t-135.5 -57.5t-189 -24.5 t-189 24.5t-135.5 57.5t-90.5 99.5t-55.5 117.5t-27.5 147t-10.5 152t-1.5 166zM428 739q0 -103 2.5 -172.5t10 -135.5t21 -106t35 -71t53.5 -44t75 -13t74.5 13t53.5 44t35.5 71t20.5 106t9.5 135.5t2.5 172.5t-2.5 172.5t-9.5 136t-20.5 106t-35.5 71t-53.5 44.5t-74.5 13 t-75 -13t-53.5 -44.5t-35 -71.5t-21 -106t-10 -135.5t-2.5 -172.5z" />
<glyph unicode="P" horiz-adv-x="1138" d="M131 0v1479h557q393 0 393 -443q0 -59 -7.5 -110.5t-33.5 -114t-68.5 -106t-120 -73.5t-181.5 -30h-230v-602h-309zM440 829h172q66 0 111 61t45 138q0 103 -38 163t-134 60h-156v-422z" />
<glyph unicode="Q" horiz-adv-x="1251" d="M115 739q0 97 1 146.5t6.5 136t19.5 133t36.5 111.5t61 100t90.5 71t126.5 51t168.5 15t168.5 -15t126.5 -51t90.5 -71t61 -100t36.5 -111.5t19.5 -133t6.5 -136t1 -146.5q0 -230 -42.5 -355t-138.5 -204l4 -4q15 4 76.5 27.5t79.5 23.5h129v-227h-436q-28 0 -89.5 -7 t-88.5 -7q-69 0 -125.5 7t-103.5 22.5t-84 36t-65.5 52t-50 66t-36.5 82.5t-24.5 97t-15 114.5t-7.5 129.5t-2 146zM428 739q0 -100 2.5 -168.5t10 -133t21 -104t35 -70t53.5 -43.5t75 -13t74.5 13t53.5 44t35.5 70t20.5 104t9.5 133t2.5 168q0 103 -2.5 172.5t-9.5 136 t-20.5 106t-35.5 71t-53.5 44.5t-74.5 13t-75 -13t-53.5 -44.5t-35 -71.5t-21 -106t-10 -135.5t-2.5 -172.5z" />
<glyph unicode="R" horiz-adv-x="1138" d="M123 0v1479h571q161 0 253.5 -100.5t92.5 -286.5q0 -318 -274 -363v-4q21 -2 28 -3t33 -6t39.5 -10.5t38.5 -17.5t40 -26t34 -36t29.5 -48.5t18 -63.5t7.5 -80q0 -114 8 -254t28 -180h-304q-10 22 -16.5 47t-10 45t-5 50.5t-2 46.5t0 51t0.5 47v33v52.5t-2 49.5 t-5.5 45.5t-11 40.5t-18 35t-27.5 29t-39 22t-51.5 13.5t-66.5 4.5h-80v-612h-309zM432 840h137q44 0 76.5 20t49 53.5t24.5 69.5t8 74q0 194 -158 194h-137v-411z" />
<glyph unicode="S" horiz-adv-x="1138" d="M92 457h309q0 -36 1 -59t4.5 -53.5t10.5 -49.5t20 -39.5t31.5 -32t46 -19t63.5 -7.5q76 0 115.5 45.5t39.5 122.5q0 54 -34.5 100.5t-89 83t-121 73.5t-133 80.5t-121 94.5t-89 126t-34.5 164q0 416 487 416q229 0 337 -108q95 -95 95 -282q0 -26 -2 -54h-301 q0 47 -5 82.5t-19 69.5t-44 52.5t-75 18.5q-76 0 -118 -41t-42 -117q0 -57 34.5 -103.5t89.5 -81.5t121 -69.5t132.5 -76.5t121.5 -92t89.5 -127t34.5 -171q0 -80 -16.5 -144.5t-44 -108t-69 -76.5t-84.5 -51.5t-98 -29.5t-101.5 -14.5t-103.5 -3.5q-111 0 -193.5 26 t-131 69t-76 107t-35.5 131q-4 40 -4 86q0 30 2 63z" />
<glyph unicode="T" d="M12 1233v246h998v-246h-344v-1233h-310v1233h-344z" />
<glyph unicode="U" horiz-adv-x="1251" d="M123 430v1049h309v-1028q0 -131 51 -192.5t140 -61.5q196 0 196 254v1028h309v-1049q0 -69 -15.5 -132.5t-52.5 -123t-93 -103t-143.5 -70t-196.5 -26.5q-249 0 -376.5 120t-127.5 335z" />
<glyph unicode="V" horiz-adv-x="1138" d="M10 1479h322l229 -1076h4l258 1076h305l-391 -1479h-362z" />
<glyph unicode="W" horiz-adv-x="1820" d="M-2 1479h317l193 -1039h4l233 1039h365l221 -1039h4l185 1039h303l-328 -1479h-342l-231 1081h-4l-256 -1081h-336z" />
<glyph unicode="X" horiz-adv-x="1138" d="M6 0l383 774l-356 705h352l211 -486l207 486h321l-368 -731l374 -748h-350l-227 510l-227 -510h-320z" />
<glyph unicode="Y" horiz-adv-x="1138" d="M14 1479h338l221 -625l236 625h315l-413 -967v-512h-310v512z" />
<glyph unicode="Z" d="M45 0v270l621 981h-592v228h891v-269l-623 -983h637v-227h-934z" />
<glyph unicode="[" horiz-adv-x="569" d="M90 -248v1794h434v-178h-207v-1438h207v-178h-434z" />
<glyph unicode="\" horiz-adv-x="512" d="M-170 1479h219l631 -1479h-219z" />
<glyph unicode="]" horiz-adv-x="569" d="M45 -70h207v1438h-207v178h434v-1794h-434v178z" />
<glyph unicode="^" d="M6 561l373 869h266l373 -869h-258l-248 613l-248 -613h-258z" />
<glyph unicode="_" d="M0 -154h1024v-102h-1024v102z" />
<glyph unicode="`" horiz-adv-x="569" d="M0 1479h276l185 -293h-133z" />
<glyph unicode="a" d="M84 309q0 63 12 113.5t33.5 86.5t52 63t68 43t80.5 27t90 14q46 4 96 6q25 1 50 1t50 -1v79q0 37 -3.5 61.5t-15 47t-35.5 33t-62 10.5q-29 0 -49.5 -9t-32 -22.5t-18 -36t-8 -42t-1.5 -48.5h-282q0 172 96.5 246t279.5 74q77 0 138.5 -9.5t104.5 -26t74 -42t49.5 -53 t29.5 -65t14.5 -72t3.5 -78.5v-516q0 -46 14 -193h-268l-12 137h-4q-90 -157 -271 -157q-73 0 -127 25.5t-85.5 72t-46.5 104t-15 127.5zM367 322q0 -33 3.5 -58t14 -51t33 -40.5t55.5 -14.5q31 0 55 10.5t39 26t25.5 42.5t15.5 49t7.5 56.5t2.5 55.5t-1 55.5t-1 46.5 q-113 -5 -139 -10q-76 -15 -98 -81q-12 -34 -12 -87z" />
<glyph unicode="b" d="M115 0v1479h288v-543h5q43 64 99 91.5t136 27.5q59 0 105 -19t75.5 -45t50 -74t30.5 -85t15.5 -99.5t6 -96.5t0.5 -96v-16v-20q0 -63 -0.5 -97.5t-6 -98t-16 -101.5t-31.5 -86.5t-51 -75.5t-77 -46t-107 -19q-87 0 -146.5 31t-97.5 104h-4v-115h-274zM403 526 q0 -205 23 -286.5t94 -81.5q75 0 99 81t24 287q0 186 -13 245q-20 95 -92 105q-8 1 -18 1q-22 0 -39 -5.5t-29 -20t-20.5 -28t-14 -42t-8.5 -48t-4.5 -60t-1.5 -64v-73.5v-10z" />
<glyph unicode="c" d="M90 530q0 67 3.5 118.5t14 109t28.5 98.5t50 80.5t75.5 64t107 39.5t143.5 15q418 0 418 -389h-289q0 113 -30 158.5t-99 45.5q-36 0 -61 -14t-39 -36.5t-21.5 -67t-9.5 -88.5t-2 -117q0 -161 11.5 -241t39 -111t82.5 -31q66 0 99.5 57t33.5 160h289q0 -401 -422 -401 q-79 0 -141 14t-106 38t-75.5 63t-50.5 82t-30.5 103t-15 117t-3.5 133z" />
<glyph unicode="d" d="M94 504v6.5v6.5v7v16q0 62 0.5 96t6 96.5t15.5 99.5t30.5 85t50 74t75.5 45t104 19q80 0 136.5 -27.5t99.5 -91.5h4v543h289v-1479h-274v115h-4q-38 -73 -97.5 -104t-146.5 -31q-60 0 -107 19.5t-77 46t-51.5 75t-31.5 86t-15.5 101.5t-6 98t-0.5 98zM376 526 q0 -206 24.5 -287t99.5 -81q70 0 93 81t23 287q0 187 -12 245q-19 96 -87 105q-8 1 -17 1q-23 0 -40.5 -5.5t-30.5 -20t-22 -28t-14.5 -42t-9 -48t-4.5 -60t-1.5 -64.5t-1.5 -73v-10z" />
<glyph unicode="e" d="M90 530q0 67 3.5 118.5t14 109t28.5 98.5t50 80.5t75.5 64t107 39.5t143.5 15q114 0 194 -30t125.5 -78.5t70.5 -128.5q24 -80 30 -158q4 -51 3 -115q0 -35 -1 -74h-553q0 -39 1 -66t4.5 -67.5t12.5 -67t22.5 -53t36.5 -40t54 -13.5q123 0 123 184h293 q-6 -177 -115 -272.5t-301 -95.5q-79 0 -141 14t-106 38t-75.5 63t-50.5 82t-30.5 103t-15 117t-3.5 133zM381 633h264v8q0 34 -0.5 53t-4 51.5t-12 51.5t-22.5 40t-38 30.5t-56 9.5t-56 -11t-37.5 -34t-22 -43t-11.5 -55t-3.5 -51.5t-0.5 -49.5z" />
<glyph unicode="f" horiz-adv-x="569" d="M0 856v178h131q0 89 -1 162v5q0 69 14 121q13 55 45.5 92t98 56t169.5 19q32 0 102 -4v-185q-13 1 -25 1q-63 0 -88 -27q-28 -33 -28 -115v-125h135v-178h-135v-856h-289v856h-129z" />
<glyph unicode="g" d="M90 511v28q0 49 0.5 78.5t3.5 77.5t8 79t16 73t26 68.5t38 55.5t53 45.5t70.5 27.5t89.5 11q79 0 140.5 -36t91.5 -106h4v121h274v-1077q0 -26 -0.5 -43t-8 -58t-21 -69.5t-42.5 -66t-69 -61t-105 -40t-147 -16.5q-88 0 -154.5 13t-125.5 45.5t-91.5 95t-34.5 153.5h283 q0 -72 28 -109t93 -37q53 0 79.5 46t26.5 127v198h-4q-32 -59 -89.5 -90t-129.5 -31q-63 0 -112.5 17t-81 40t-53.5 68.5t-33 79t-16.5 96t-6 95.5t-0.5 101zM373 417.5q0 -11.5 1 -37t3 -40t6.5 -37t10.5 -36t15.5 -29.5t22 -24.5t29.5 -14.5t37 -6q73 0 95.5 73.5 t22.5 253.5q0 64 -1.5 106t-5 86.5t-11.5 71.5t-20.5 50t-32 33t-45.5 10q-28 0 -47.5 -6.5t-34 -25.5t-23 -45.5t-13.5 -73.5t-7 -102.5t-2 -138.5v-31v-36.5z" />
<glyph unicode="h" d="M115 0v1479h288v-549h5q39 64 97 94.5t146 30.5q108 0 183 -61.5t75 -164.5v-829h-288v713q0 79 -22.5 121.5t-86.5 42.5t-86.5 -42.5t-22.5 -121.5v-713h-288z" />
<glyph unicode="i" horiz-adv-x="569" d="M139 0v1034h289v-1034h-289zM139 1251v228h289v-228h-289z" />
<glyph unicode="j" horiz-adv-x="569" d="M63 -203q15 0 26 2.5t23.5 9.5t19.5 24.5t7 43.5v1157h289v-1128q0 -158 -66 -227.5t-202 -69.5q-48 0 -97 6v182zM139 1251v228h289v-228h-289z" />
<glyph unicode="k" d="M109 0v1479h288v-881h4l261 436h301l-293 -461l325 -573h-325l-269 563h-4v-563h-288z" />
<glyph unicode="l" horiz-adv-x="569" d="M139 0v1479h289v-1479h-289z" />
<glyph unicode="m" horiz-adv-x="1478" d="M92 0v1034h289v-104h4q42 67 101 96t143 29q76 0 135.5 -34.5t95.5 -96.5q51 68 115 99.5t153 31.5q108 0 183 -61.5t75 -164.5v-829h-288v713q0 79 -22.5 121.5t-86.5 42.5t-86 -42.5t-22 -121.5v-713h-283v713q0 79 -22.5 121.5t-86.5 42.5t-86 -42.5t-22 -121.5v-713 h-289z" />
<glyph unicode="n" d="M115 0v1034h288v-104h5q39 64 97 94.5t146 30.5q108 0 183 -61.5t75 -164.5v-829h-288v713q0 79 -22.5 121.5t-86.5 42.5t-86.5 -42.5t-22.5 -121.5v-713h-288z" />
<glyph unicode="o" d="M90 530q0 67 3.5 118.5t14 109t28.5 98.5t50 80.5t75.5 64t107 39.5t143.5 15t143.5 -15t107 -39.5t75.5 -64t50 -80.5t28.5 -98.5t14 -109t3.5 -118.5q0 -76 -3.5 -133t-15 -117t-30.5 -103t-50.5 -82t-75.5 -63t-106 -38t-141 -14t-141 14t-106 38t-75.5 63t-50.5 82 t-30.5 103t-15 117t-3.5 133zM379 547q0 -161 11.5 -241t39 -111t82.5 -31t82.5 31t39 111t11.5 241q0 73 -2 117t-9.5 88.5t-21.5 67t-39 36.5t-61 14t-61 -14t-39 -36.5t-21.5 -67t-9.5 -88.5t-2 -117z" />
<glyph unicode="p" d="M115 -444v1478h274v-114h4q38 73 97.5 104t146.5 31q60 0 107 -19.5t77 -46t51.5 -75.5t31.5 -86.5t15.5 -101.5t6 -98t0.5 -98v-20v-16q0 -73 -1.5 -113t-8.5 -111.5t-25.5 -113.5t-48 -87.5t-80.5 -67t-119 -21.5q-80 0 -136 27t-99 91h-5v-542h-288zM403 526 q0 -205 23 -286.5t94 -81.5q75 0 99 81t24 287q0 186 -13 245q-20 95 -92 105q-8 1 -18 1q-22 0 -39 -5.5t-29 -20t-20.5 -28t-14 -42t-8.5 -48t-4.5 -60t-1.5 -64v-73.5v-10z" />
<glyph unicode="q" d="M98 494v16v20q0 63 0.5 97.5t6 98.5t16 101.5t31.5 86.5t51 75.5t77 46t107 19.5q87 0 146.5 -31t97.5 -104h4v114h274v-1478h-288v542h-5q-43 -64 -99 -91t-136 -27q-59 0 -105 19t-75.5 45t-50 74t-30.5 84.5t-15.5 99t-6 96.5t-0.5 96zM381 526q0 -206 24 -287t99 -81 q71 0 94 81.5t23 286.5v10v73.5t-1.5 64t-4.5 60t-8.5 48t-14 42t-20.5 28t-29 20t-39 5.5q-23 0 -40.5 -5.5t-30.5 -20t-22 -28t-14.5 -42t-9 -48t-4.5 -60t-1.5 -64.5t-0.5 -73v-10z" />
<glyph unicode="r" horiz-adv-x="681" d="M115 0v1034h274v-133h4q69 154 269 154v-258q-17 1 -32 1q-34 0 -62 -4q-42 -6 -68.5 -18t-46 -33t-29 -39.5t-14.5 -47t-6 -47t-1 -46.5v-563h-288z" />
<glyph unicode="s" horiz-adv-x="909" d="M59 332h283q-1 -13 -1 -26q0 -71 20 -106q23 -42 100 -42q45 0 75.5 28t30.5 78q0 44 -28 79t-73 59t-99 46.5t-108 49.5t-99 60.5t-73 86t-28 119.5q0 64 25 115.5t65 83.5t94.5 53.5t109.5 30t114 8.5q103 0 185 -32q81 -31 131 -105q43 -63 43 -152q0 -14 -1 -29h-282 q0 89 -19.5 122.5t-83.5 33.5q-47 0 -72.5 -29t-25.5 -82q0 -33 28 -61t73 -50t99 -44.5t108 -52.5t99 -66t73 -91t28 -122q0 -138 -105 -226.5t-282 -88.5q-80 0 -140.5 8.5t-114.5 32t-87 62.5t-50 101q-13 48 -13 111q0 18 1 37z" />
<glyph unicode="t" horiz-adv-x="569" d="M-2 856v178h117v164l288 129v-293h150v-178h-150v-553q0 -31 0.5 -44.5t5 -34t14 -28.5t27.5 -15t46 -7q37 0 51 4v-178q-97 -10 -150 -10q-71 0 -125 18t-82.5 44t-46.5 60t-23 59t-5 48v637h-117z" />
<glyph unicode="u" d="M115 205v829h288v-717q0 -78 22.5 -118.5t86.5 -40.5t86.5 40.5t22.5 118.5v717h288v-829q0 -80 11 -205h-299v104h-5q-41 -64 -97 -94t-146 -30q-108 0 -183 61t-75 164z" />
<glyph unicode="v" horiz-adv-x="909" d="M16 1034h293l146 -776h4l151 776h283l-285 -1034h-317z" />
<glyph unicode="w" horiz-adv-x="1593" d="M23 1034h286l142 -778h4l198 778h299l183 -778h4l155 778h277l-281 -1034h-303l-186 707h-4l-209 -707h-307z" />
<glyph unicode="x" d="M10 0l305 543l-280 491h323l152 -313l174 313h289l-277 -495l297 -539h-325l-181 362l-190 -362h-287z" />
<glyph unicode="y" horiz-adv-x="909" d="M18 1034h287l148 -727h4l155 727h279l-399 -1425h-304l111 383z" />
<glyph unicode="z" horiz-adv-x="796" d="M47 0v205l406 645h-392v184h682v-205l-411 -645h418v-184h-703z" />
<glyph unicode="{" horiz-adv-x="561" d="M-66 580v178q89 0 128.5 59t39.5 148v315q0 137 54.5 201.5t183.5 64.5h152v-162q-39 0 -68.5 -12.5t-47 -33t-28 -51t-14.5 -61t-4 -67.5v-229q0 -116 -34.5 -176t-133.5 -82v-4q52 -7 87 -32t52 -66t23 -82.5t6 -96.5v-254q0 -223 162 -223v-162h-134q-150 0 -203 70.5 t-53 232.5v320q0 97 -38.5 151t-129.5 54z" />
<glyph unicode="|" horiz-adv-x="512" d="M141 -512v2048h228v-2048h-228z" />
<glyph unicode="}" horiz-adv-x="561" d="M80 -86q162 0 162 223v254q0 55 6 96.5t23 82.5t52 66t87 32v4q-99 22 -133.5 82t-34.5 176v229q0 37 -4 67.5t-14.5 61t-28 51t-47 33t-68.5 12.5v162h151q129 0 183.5 -64.5t54.5 -201.5v-315q0 -89 39.5 -148t128.5 -59v-178q-91 0 -129.5 -54t-38.5 -151v-320 q0 -162 -53 -232.5t-203 -70.5h-133v162z" />
<glyph unicode="~" d="M51 459q26 52 50 90.5t58.5 79t77 62.5t89.5 22q45 0 104 -21t105.5 -46.5t96 -46.5t77.5 -21q22 0 40.5 8.5t34.5 28t25.5 34t25 42.5t21.5 38l117 -149q-64 -113 -97 -152q-73 -88 -167 -88q-53 0 -134 34t-151 67.5t-96 33.5q-20 0 -38.5 -8.5t-31 -18t-27.5 -32 t-21.5 -33.5t-21.5 -40t-18 -36z" />
<glyph unicode="&#xa1;" horiz-adv-x="681" d="M197 -424l45 1083h196l45 -1083h-286zM217 809v246h246v-246h-246z" />
<glyph unicode="&#xa2;" horiz-adv-x="909" d="M33 530q0 67 3.5 118.5t14 109t28.5 98.5t50 80.5t75.5 64t107 39.5t143.5 15q67 0 127 -13l77 168l91 -45l-72 -153q194 -78 194 -346h-288q0 69 -13 116l-233 -501q12 -64 39 -89.5t78 -25.5q66 0 99.5 58.5t33.5 162.5h289q0 -405 -422 -405q-154 0 -236 49l-80 -160 l-90 49l88 172q-61 66 -82.5 173t-21.5 265zM322 487h4l174 377q-18 6 -45 6q-36 0 -61 -14t-39 -36.5t-21.5 -67t-9.5 -88.5t-2 -117v-60z" />
<glyph unicode="&#xa3;" horiz-adv-x="909" d="M0 680v209h119v178q0 381 375 381q199 0 287.5 -92t86.5 -279h-241q2 66 -24.5 114t-82.5 48q-58 0 -85 -44t-27 -116v-190h243v-209h-243v-471h450v-209h-854v209h115v471h-119z" />
<glyph unicode="&#xa4;" horiz-adv-x="909" d="M-41 281l86 90q-38 71 -55 129.5t-17 132.5q0 141 72 264l-86 86l156 164l86 -88q128 78 252 78q136 0 260 -78l88 88l147 -164l-84 -86q74 -124 74 -262q0 -154 -74 -264l84 -90l-147 -162l-88 88q-129 -78 -252 -78q-141 0 -260 78l-86 -88zM215 635q0 -68 29.5 -132.5 t86.5 -108.5t126 -44q104 0 171.5 89t67.5 196q0 68 -28.5 131.5t-84.5 106t-126 42.5q-104 0 -173 -87t-69 -193z" />
<glyph unicode="&#xa5;" horiz-adv-x="909" d="M-82 1430h336l205 -556l217 556h313l-334 -701h234v-184h-303v-162h303v-184h-303v-199h-289v199h-277v184h277v162h-277v184h211z" />
<glyph unicode="&#xa6;" horiz-adv-x="512" d="M141 -358v716h228v-716h-228zM141 666v716h228v-716h-228z" />
<glyph unicode="&#xa7;" horiz-adv-x="909" d="M55 711q0 84 56 153t139 109q-81 47 -116.5 103.5t-35.5 146.5q0 122 99.5 201t287.5 79q136 0 316 -63v-230q-190 84 -295 84q-49 0 -84 -20.5t-35 -65.5q0 -32 25.5 -57t66.5 -43t90.5 -36.5t99.5 -43.5t91 -56.5t66.5 -82.5t25.5 -115q0 -159 -180 -264 q78 -37 118.5 -92.5t40.5 -138.5q0 -70 -26.5 -125t-68.5 -88t-101 -54t-117 -29t-123 -8q-85 0 -172.5 18t-146.5 42v239q67 -30 104 -44.5t98 -30t113 -15.5q131 0 131 101q0 32 -26 56t-67 41t-90.5 34t-99.5 40.5t-91 54.5t-67 82.5t-26 117.5zM301 752q0 -94 168 -156 q28 17 38 23t34.5 24t34.5 31t20 33.5t10 42.5q0 25 -9.5 45.5t-23 34t-37 26t-41.5 19.5t-46 16q-148 -54 -148 -139z" />
<glyph unicode="&#xa8;" horiz-adv-x="569" d="M-10 1208v222h227v-222h-227zM352 1208v222h228v-222h-228z" />
<glyph unicode="&#xa9;" horiz-adv-x="1699" d="M88 741q0 209 102 384t277.5 276.5t384.5 101.5q208 0 382.5 -101.5t276 -276.5t101.5 -384q0 -156 -60 -298t-161.5 -244.5t-242.5 -163t-296 -60.5q-209 0 -384.5 102.5t-277.5 278.5t-102 385zM231 741q0 -168 83 -311.5t226 -227t312 -83.5q166 0 308 83.5t225 227 t83 311.5t-83 310.5t-225 225.5t-308 83q-169 0 -312 -83t-226 -225.5t-83 -310.5zM522 741q0 66 1 100t7 91.5t18 87.5t36 70t58.5 59.5t87.5 34t122 14.5q153 0 221 -74.5t62 -220.5h-201q0 89 -22 124.5t-78 35.5q-35 0 -57.5 -19t-34 -62t-15.5 -95.5t-4 -134.5 q0 -145 9 -213t32.5 -94.5t73.5 -26.5q35 0 57.5 15t31.5 43t11.5 51.5t3.5 56.5v3.5v4v4.5h201q0 -172 -71.5 -242.5t-219.5 -70.5q-69 0 -122 14.5t-87.5 34t-58.5 59.5t-36 70.5t-18 88t-7 91.5t-1 100z" />
<glyph unicode="&#xaa;" horiz-adv-x="614" d="M33 1057q0 43 10.5 76t27 55.5t44.5 37.5t54 23t66 12t69.5 5t74.5 0v49q0 46 -14.5 69t-61.5 23q-24 0 -39 -7.5t-21 -23t-8 -29.5t-2 -36h-184q0 105 63 148.5t181 43.5q69 0 119 -11t79 -28.5t45.5 -46t21.5 -56t5 -65.5v-311q0 -37 8 -115h-174l-8 82h-4 q-59 -96 -174 -96q-92 0 -135 56t-43 145zM217 1063q0 -100 68 -100q23 0 40 7t27 22.5t16.5 29t8.5 38.5t2.5 37.5t0 39t-0.5 32.5q-85 -2 -107 -9q-53 -22 -55 -97z" />
<glyph unicode="&#xab;" horiz-adv-x="909" d="M59 557l189 393h237l-180 -393l176 -403h-235zM424 557l188 393h238l-180 -393l176 -403h-236z" />
<glyph unicode="&#xac;" d="M51 604v227h922v-616h-228v389h-694z" />
<glyph unicode="&#xad;" horiz-adv-x="681" d="M90 449v208h502v-208h-502z" />
<glyph unicode="&#xae;" horiz-adv-x="1699" d="M88 741q0 209 102 384t277.5 276.5t384.5 101.5q208 0 382.5 -101.5t276 -276.5t101.5 -384q0 -156 -60 -298t-161.5 -244.5t-242.5 -163t-296 -60.5q-209 0 -384.5 102.5t-277.5 278.5t-102 385zM231 741q0 -168 83 -311.5t226 -227t312 -83.5q166 0 308 83.5t225 227 t83 311.5t-83 310.5t-225 225.5t-308 83q-169 0 -312 -83t-226 -225.5t-83 -310.5zM555 301v887h371q104 0 164.5 -61t60.5 -173q0 -190 -178 -217v-4q174 -8 174 -172q0 -215 22 -260h-196q-27 53 -27 172v28q2 23 0.5 44.5t-4 40t-12 33.5t-24 26t-39.5 17t-60 6h-51v-367 h-201zM756 793h90q54 0 79 39.5t25 91.5q0 116 -104 116h-90v-247z" />
<glyph unicode="&#xaf;" horiz-adv-x="569" d="M-12 1239v147h592v-147h-592z" />
<glyph unicode="&#xb0;" horiz-adv-x="819" d="M102 1141q-1 126 89.5 216.5t218.5 90.5q126 0 216.5 -90.5t90.5 -216.5q0 -127 -90.5 -217t-216.5 -90q-128 0 -218 90t-90 217zM264 1141q0 -61 43 -103.5t105 -42.5q60 0 101.5 42.5t41.5 103.5q0 60 -42 102.5t-103 42.5q-60 0 -103.5 -42.5t-42.5 -102.5z" />
<glyph unicode="&#xb1;" d="M51 -25v228h922v-228h-922zM51 555v227h348v273h228v-273h346v-227h-346v-272h-228v272h-348z" />
<glyph unicode="&#xb2;" horiz-adv-x="544" d="M-4 580v151q52 64 111 134.5t88 105t62.5 76t46.5 61.5t26 45.5t16.5 44t3.5 41.5q0 76 -71 76q-27 0 -44.5 -9.5t-24.5 -28.5t-9 -35t-2 -42h-189q-9 120 60 184t196 64q271 0 271 -221q0 -35 -11.5 -74.5t-26.5 -72t-45 -75t-50 -69t-58.5 -68t-54.5 -58t-55 -55 t-43 -42.5h354v-133h-551z" />
<glyph unicode="&#xb3;" horiz-adv-x="544" d="M-2 811h188q0 -30 2 -48t9.5 -37t24 -27.5t42.5 -8.5q31 0 50.5 12t28 34.5t11 41.5t2.5 47q0 38 -6 62t-16.5 38.5t-34.5 21.5t-48 9t-69 2v136q97 -3 128.5 19t31.5 108q0 102 -72 102q-24 0 -39.5 -8t-22.5 -24t-9 -31t-2 -37h-187q0 130 61 177.5t205 47.5 q131 0 192.5 -54t61.5 -175q0 -72 -29.5 -126.5t-97.5 -64.5v-4q44 -6 73 -25t43.5 -48.5t20 -60.5t5.5 -73q0 -132 -73 -192t-218 -60q-139 0 -197.5 55.5t-58.5 190.5z" />
<glyph unicode="&#xb4;" horiz-adv-x="569" d="M109 1186l184 293h276l-327 -293h-133z" />
<glyph unicode="&#xb5;" d="M115 -391v1425h288v-717q0 -78 22.5 -118.5t86.5 -40.5t86.5 40.5t22.5 118.5v717h288v-1034h-288v104h-5q-73 -121 -213 -124v-371h-288z" />
<glyph unicode="&#xb6;" horiz-adv-x="1126" d="M41 1114q0 198 103.5 281.5t306.5 83.5h632v-246h-90v-1430h-245v1430h-140v-1430h-246v961q-155 0 -238 95.5t-83 254.5z" />
<glyph unicode="&#xb7;" horiz-adv-x="454" d="M104 322v270h246v-270h-246z" />
<glyph unicode="&#xb8;" horiz-adv-x="569" d="M33 -410l39 82q86 -32 133 -32q51 0 88 19t37 65q0 38 -33.5 56t-73.5 16.5t-69 -15.5l-45 39l135 180h100l-90 -119l4 -4q24 8 45 8q77 0 133 -40t56 -113q0 -65 -37.5 -110.5t-92 -65t-118.5 -19.5q-90 0 -211 53z" />
<glyph unicode="&#xb9;" horiz-adv-x="544" d="M51 1145v160q126 65 180 143h179v-868h-201v659q-55 -44 -158 -94z" />
<glyph unicode="&#xba;" horiz-adv-x="614" d="M33 1188q0 58 4.5 99t20.5 84.5t45 70t80.5 44t123.5 17.5t123.5 -17.5t80.5 -44t45.5 -70t21 -84.5t4.5 -99q0 -64 -5 -109.5t-22 -90t-46.5 -72t-80 -44t-121.5 -16.5t-121.5 17t-79.5 44t-46 71.5t-22 90t-5 109.5zM221 1198q0 -97 7 -144.5t25 -67t54 -19.5t54 19.5 t25 67t7 144.5q0 44 -1.5 70.5t-6 53.5t-13.5 40.5t-25 22t-40 8.5t-40 -8.5t-25 -22t-13.5 -40.5t-6 -53.5t-1.5 -70.5z" />
<glyph unicode="&#xbb;" horiz-adv-x="909" d="M59 154l181 393l-177 403h236l186 -403l-188 -393h-238zM424 154l180 393l-176 403h236l186 -403l-188 -393h-238z" />
<glyph unicode="&#xbc;" horiz-adv-x="1363" d="M51 1145v160q126 65 180 143h179v-868h-201v659q-55 -44 -158 -94zM287 -57l538 1558h133l-544 -1558h-127zM750 195v174l225 489h246v-530h73v-133h-73v-195h-185v195h-286zM893 328h160l12 409h-4z" />
<glyph unicode="&#xbd;" horiz-adv-x="1363" d="M51 1145v160q126 65 180 143h179v-868h-201v659q-55 -44 -158 -94zM276 -57l539 1558h133l-545 -1558h-127zM782 0v152q53 64 111 134t88 105.5t63 76t46.5 61t26.5 45.5t16.5 43.5t3.5 41.5q0 76 -72 76q-22 0 -37.5 -7t-23.5 -17t-12.5 -26.5t-5.5 -30t-1 -33.5h-188 q-9 121 59.5 184t196.5 63q270 0 270 -221q0 -35 -11.5 -74.5t-26.5 -72t-45 -75t-50 -69t-58.5 -68t-54.5 -58t-55 -55t-43 -42.5h354v-133h-551z" />
<glyph unicode="&#xbe;" horiz-adv-x="1363" d="M2 811h188q0 -30 2 -48t9.5 -37t24 -27.5t42.5 -8.5q31 0 50.5 12t28 34.5t11 41.5t2.5 47q0 38 -6 62t-16.5 38.5t-34.5 21.5t-48 9t-69 2v136q97 -3 128.5 19t31.5 108q0 102 -72 102q-24 0 -39.5 -8t-22.5 -24t-9 -31t-2 -37h-187q0 130 61.5 177.5t205.5 47.5 q131 0 192.5 -54t61.5 -175q0 -72 -29.5 -126.5t-97.5 -64.5v-4q44 -6 73 -25t43 -48.5t19.5 -60.5t5.5 -73q0 -132 -73 -192t-218 -60q-139 0 -197.5 55.5t-58.5 190.5zM373 -57l538 1558h133l-544 -1558h-127zM795 195v174l225 489h246v-530h73v-133h-73v-195h-185v195 h-286zM938 328h160l12 409h-4z" />
<glyph unicode="&#xbf;" horiz-adv-x="909" d="M76 -115q0 116 39 201.5t106 165.5q9 12 41 50t43 53.5t30 45.5t25.5 56t6.5 55v147h211v-210q0 -60 -34.5 -135t-75.5 -135t-75.5 -135.5t-34.5 -135.5q0 -69 26 -108.5t93 -39.5q27 0 47 8.5t31.5 26.5t18.5 34.5t10 46t3.5 46.5t0.5 49h246v-6q0 -64 -2.5 -102 t-22.5 -105t-57.5 -106t-115 -70t-187.5 -31q-163 0 -268 87.5t-105 246.5zM346 809v246h246v-246h-246z" />
<glyph unicode="&#xc0;" horiz-adv-x="1251" d="M16 0l410 1479h408l401 -1479h-326l-82 328h-421l-84 -328h-306zM342 1923h276l185 -293h-133zM467 555h295l-150 639h-4z" />
<glyph unicode="&#xc1;" horiz-adv-x="1251" d="M16 0l410 1479h408l401 -1479h-326l-82 328h-421l-84 -328h-306zM451 1630l184 293h276l-327 -293h-133zM467 555h295l-150 639h-4z" />
<glyph unicode="&#xc2;" horiz-adv-x="1251" d="M16 0l410 1479h408l401 -1479h-326l-82 328h-421l-84 -328h-306zM293 1630l217 293h227l221 -293h-190l-143 182l-146 -182h-186zM467 555h295l-150 639h-4z" />
<glyph unicode="&#xc3;" horiz-adv-x="1251" d="M16 0l410 1479h408l401 -1479h-326l-82 328h-421l-84 -328h-306zM262 1634q8 60 32.5 116.5t72.5 99t108 42.5q12 0 24.5 -1.5t26 -5.5t22.5 -6.5t25 -9.5t21.5 -9.5t23.5 -11t21 -9.5q96 -45 127 -45q84 0 94 98h125q-18 -107 -65 -168q-66 -90 -150 -90q-75 0 -164 47 q-81 43 -143 43q-63 0 -80 -90h-121zM467 555h295l-150 639h-4z" />
<glyph unicode="&#xc4;" horiz-adv-x="1251" d="M16 0l410 1479h408l401 -1479h-326l-82 328h-421l-84 -328h-306zM332 1653v221h227v-221h-227zM467 555h295l-150 639h-4zM694 1653v221h228v-221h-228z" />
<glyph unicode="&#xc5;" horiz-adv-x="1251" d="M16 0l410 1479h408l401 -1479h-326l-82 328h-421l-84 -328h-306zM414 1772q0 87 63 150t150 63t150 -63t63 -150q0 -88 -62.5 -150.5t-150.5 -62.5t-150.5 62.5t-62.5 150.5zM467 555h295l-150 639h-4zM506 1772q0 -51 35 -86t86 -35q50 0 85.5 35t35.5 86 q0 49 -35.5 84.5t-85.5 35.5q-51 0 -86 -35t-35 -85z" />
<glyph unicode="&#xc6;" horiz-adv-x="1705" d="M16 0l488 1479h1100v-228h-592l67 -364h496v-228h-457l82 -432h442v-227h-708l-55 328h-461l-99 -328h-303zM492 555h346l-127 729h-4z" />
<glyph unicode="&#xc7;" horiz-adv-x="1138" d="M115 739q0 97 1 146.5t6.5 136t19.5 133t36.5 111.5t61 100t90.5 71t126.5 51t168.5 15q232 0 335.5 -124t94.5 -367h-303q0 147 -29 208.5t-98 61.5q-43 0 -75 -13t-53.5 -44.5t-35 -71.5t-21 -106t-10 -135.5t-2.5 -172.5t2.5 -172.5t10 -135.5t21 -106t35 -71 t53.5 -44t75 -13q32 0 56 10.5t39 37t24 44.5t13.5 62t5.5 58.5t2 62.5q0 6 0.5 9t0.5 8v9h305q0 -146 -28.5 -248t-86.5 -162t-138.5 -86.5t-192.5 -26.5h-15l-71 -94l4 -4q24 8 45 8q77 0 132.5 -40t55.5 -113q0 -65 -37.5 -110.5t-92 -65t-118.5 -19.5q-90 0 -211 53 l39 82q86 -32 133 -32q51 0 88 19t37 65q0 38 -33.5 56t-73.5 16.5t-69 -15.5l-45 39l123 162q-66 8 -119.5 28.5t-93 45t-70 67.5t-50 77.5t-33 94.5t-20.5 99.5t-10.5 112.5t-4 113t-0.5 119z" />
<glyph unicode="&#xc8;" d="M129 0v1479h807v-228h-498v-364h459v-228h-459v-432h514v-227h-823zM227 1923h277l184 -293h-133z" />
<glyph unicode="&#xc9;" d="M129 0v1479h807v-228h-498v-364h459v-228h-459v-432h514v-227h-823zM336 1630l184 293h277l-328 -293h-133z" />
<glyph unicode="&#xca;" d="M129 0v1479h807v-228h-498v-364h459v-228h-459v-432h514v-227h-823zM178 1630l217 293h228l221 -293h-191l-143 182l-145 -182h-187z" />
<glyph unicode="&#xcb;" d="M129 0v1479h807v-228h-498v-364h459v-228h-459v-432h514v-227h-823zM217 1653v221h227v-221h-227zM580 1653v221h227v-221h-227z" />
<glyph unicode="&#xcc;" horiz-adv-x="569" d="M0 1923h276l185 -293h-133zM129 0v1479h309v-1479h-309z" />
<glyph unicode="&#xcd;" horiz-adv-x="569" d="M109 1630l184 293h276l-327 -293h-133zM129 0v1479h309v-1479h-309z" />
<glyph unicode="&#xce;" horiz-adv-x="569" d="M-49 1630l217 293h227l221 -293h-190l-143 182l-146 -182h-186zM129 0v1479h309v-1479h-309z" />
<glyph unicode="&#xcf;" horiz-adv-x="569" d="M-10 1653v221h227v-221h-227zM129 0v1479h309v-1479h-309zM352 1653v221h228v-221h-228z" />
<glyph unicode="&#xd0;" horiz-adv-x="1251" d="M14 725v162h121v592h516q120 0 206 -33t139 -90.5t84 -152.5t42 -201t11 -254v-39q2 -37 0 -79t-2.5 -88t-8.5 -93.5t-18 -94t-30 -91t-45 -84t-63 -72.5t-84 -56.5t-108 -37t-135 -13.5h-504v725h-121zM444 227h150q57 0 96 18.5t64.5 54t39.5 100t19.5 143t5.5 196.5 q0 90 -1 134.5t-6.5 117t-19.5 109t-36.5 77t-61 57.5t-90.5 17h-160v-364h199v-162h-199v-498z" />
<glyph unicode="&#xd1;" horiz-adv-x="1366" d="M131 0v1479h418l393 -1024h4v1024h289v-1479h-408l-403 1081h-4v-1081h-289zM319 1634q8 60 32.5 116.5t72.5 99t108 42.5q12 0 24.5 -1.5t26 -5.5t22.5 -6.5t25 -9.5t21.5 -9.5t23.5 -11t21 -9.5q96 -45 127 -45q85 0 95 98h124q-18 -107 -65 -168q-66 -90 -150 -90 q-74 0 -163 47q-81 43 -144 43t-80 -90h-121z" />
<glyph unicode="&#xd2;" horiz-adv-x="1251" d="M115 739q0 97 1 146.5t6.5 136t19.5 133t36.5 111.5t61 100t90.5 71t126.5 51t168.5 15t168.5 -15t126.5 -51t90.5 -71t61 -100t36.5 -111.5t19.5 -133t6.5 -136t1 -146.5q0 -110 -1.5 -166t-10.5 -152t-27.5 -147t-55.5 -117.5t-90.5 -99.5t-135.5 -57.5t-189 -24.5 t-189 24.5t-135.5 57.5t-90.5 99.5t-55.5 117.5t-27.5 147t-10.5 152t-1.5 166zM342 1923h276l185 -293h-133zM428 739q0 -103 2.5 -172.5t10 -135.5t21 -106t35 -71t53.5 -44t75 -13t74.5 13t53.5 44t35.5 71t20.5 106t9.5 135.5t2.5 172.5t-2.5 172.5t-9.5 136t-20.5 106 t-35.5 71t-53.5 44.5t-74.5 13t-75 -13t-53.5 -44.5t-35 -71.5t-21 -106t-10 -135.5t-2.5 -172.5z" />
<glyph unicode="&#xd3;" horiz-adv-x="1251" d="M115 739q0 97 1 146.5t6.5 136t19.5 133t36.5 111.5t61 100t90.5 71t126.5 51t168.5 15t168.5 -15t126.5 -51t90.5 -71t61 -100t36.5 -111.5t19.5 -133t6.5 -136t1 -146.5q0 -110 -1.5 -166t-10.5 -152t-27.5 -147t-55.5 -117.5t-90.5 -99.5t-135.5 -57.5t-189 -24.5 t-189 24.5t-135.5 57.5t-90.5 99.5t-55.5 117.5t-27.5 147t-10.5 152t-1.5 166zM428 739q0 -103 2.5 -172.5t10 -135.5t21 -106t35 -71t53.5 -44t75 -13t74.5 13t53.5 44t35.5 71t20.5 106t9.5 135.5t2.5 172.5t-2.5 172.5t-9.5 136t-20.5 106t-35.5 71t-53.5 44.5t-74.5 13 t-75 -13t-53.5 -44.5t-35 -71.5t-21 -106t-10 -135.5t-2.5 -172.5zM451 1630l184 293h276l-327 -293h-133z" />
<glyph unicode="&#xd4;" horiz-adv-x="1251" d="M115 739q0 97 1 146.5t6.5 136t19.5 133t36.5 111.5t61 100t90.5 71t126.5 51t168.5 15t168.5 -15t126.5 -51t90.5 -71t61 -100t36.5 -111.5t19.5 -133t6.5 -136t1 -146.5q0 -110 -1.5 -166t-10.5 -152t-27.5 -147t-55.5 -117.5t-90.5 -99.5t-135.5 -57.5t-189 -24.5 t-189 24.5t-135.5 57.5t-90.5 99.5t-55.5 117.5t-27.5 147t-10.5 152t-1.5 166zM293 1630l217 293h227l221 -293h-190l-143 182l-146 -182h-186zM428 739q0 -103 2.5 -172.5t10 -135.5t21 -106t35 -71t53.5 -44t75 -13t74.5 13t53.5 44t35.5 71t20.5 106t9.5 135.5 t2.5 172.5t-2.5 172.5t-9.5 136t-20.5 106t-35.5 71t-53.5 44.5t-74.5 13t-75 -13t-53.5 -44.5t-35 -71.5t-21 -106t-10 -135.5t-2.5 -172.5z" />
<glyph unicode="&#xd5;" horiz-adv-x="1251" d="M115 739q0 97 1 146.5t6.5 136t19.5 133t36.5 111.5t61 100t90.5 71t126.5 51t168.5 15t168.5 -15t126.5 -51t90.5 -71t61 -100t36.5 -111.5t19.5 -133t6.5 -136t1 -146.5q0 -110 -1.5 -166t-10.5 -152t-27.5 -147t-55.5 -117.5t-90.5 -99.5t-135.5 -57.5t-189 -24.5 t-189 24.5t-135.5 57.5t-90.5 99.5t-55.5 117.5t-27.5 147t-10.5 152t-1.5 166zM262 1634q8 60 32.5 116.5t72.5 99t108 42.5q12 0 24.5 -1.5t26 -5.5t22.5 -6.5t25 -9.5t21.5 -9.5t23.5 -11t21 -9.5q96 -45 127 -45q84 0 94 98h125q-18 -107 -65 -168q-66 -90 -150 -90 q-75 0 -164 47q-81 43 -143 43q-63 0 -80 -90h-121zM428 739q0 -103 2.5 -172.5t10 -135.5t21 -106t35 -71t53.5 -44t75 -13t74.5 13t53.5 44t35.5 71t20.5 106t9.5 135.5t2.5 172.5t-2.5 172.5t-9.5 136t-20.5 106t-35.5 71t-53.5 44.5t-74.5 13t-75 -13t-53.5 -44.5 t-35 -71.5t-21 -106t-10 -135.5t-2.5 -172.5z" />
<glyph unicode="&#xd6;" horiz-adv-x="1251" d="M115 739q0 97 1 146.5t6.5 136t19.5 133t36.5 111.5t61 100t90.5 71t126.5 51t168.5 15t168.5 -15t126.5 -51t90.5 -71t61 -100t36.5 -111.5t19.5 -133t6.5 -136t1 -146.5q0 -110 -1.5 -166t-10.5 -152t-27.5 -147t-55.5 -117.5t-90.5 -99.5t-135.5 -57.5t-189 -24.5 t-189 24.5t-135.5 57.5t-90.5 99.5t-55.5 117.5t-27.5 147t-10.5 152t-1.5 166zM332 1653v221h227v-221h-227zM428 739q0 -103 2.5 -172.5t10 -135.5t21 -106t35 -71t53.5 -44t75 -13t74.5 13t53.5 44t35.5 71t20.5 106t9.5 135.5t2.5 172.5t-2.5 172.5t-9.5 136t-20.5 106 t-35.5 71t-53.5 44.5t-74.5 13t-75 -13t-53.5 -44.5t-35 -71.5t-21 -106t-10 -135.5t-2.5 -172.5zM694 1653v221h228v-221h-228z" />
<glyph unicode="&#xd7;" d="M51 217l301 301l-301 301l160 160l301 -301l301 301l160 -160l-301 -301l301 -301l-160 -160l-301 301l-301 -301z" />
<glyph unicode="&#xd8;" horiz-adv-x="1251" d="M57 4l129 193q-34 67 -50.5 167t-18.5 169t-2 206q0 97 1 146.5t6.5 136t19.5 133t36.5 111.5t61 100t90.5 71t126.5 51t168.5 15q245 0 362 -117l109 160l106 -73l-135 -201q24 -50 39 -110t20.5 -139t7 -132t1.5 -152q0 -110 -1.5 -166t-10.5 -152t-27.5 -147 t-55.5 -117.5t-90.5 -99.5t-135.5 -57.5t-189 -24.5q-234 0 -355 111l-106 -158zM428 739q0 -129 2 -176h4l363 543q-17 93 -57.5 134.5t-114.5 41.5q-43 0 -75 -13t-53.5 -44.5t-35 -71.5t-21 -106t-10 -135.5t-2.5 -172.5zM453 358q19 -84 59.5 -122.5t112.5 -38.5 q43 0 74.5 13t53.5 44t35.5 71t20.5 106t9.5 135.5t2.5 172.5q0 119 -2 162h-4z" />
<glyph unicode="&#xd9;" horiz-adv-x="1251" d="M123 430v1049h309v-1028q0 -131 51 -192.5t140 -61.5q196 0 196 254v1028h309v-1049q0 -69 -15.5 -132.5t-52.5 -123t-93 -103t-143.5 -70t-196.5 -26.5q-249 0 -376.5 120t-127.5 335zM342 1923h276l185 -293h-133z" />
<glyph unicode="&#xda;" horiz-adv-x="1251" d="M123 430v1049h309v-1028q0 -131 51 -192.5t140 -61.5q196 0 196 254v1028h309v-1049q0 -69 -15.5 -132.5t-52.5 -123t-93 -103t-143.5 -70t-196.5 -26.5q-249 0 -376.5 120t-127.5 335zM451 1630l184 293h276l-327 -293h-133z" />
<glyph unicode="&#xdb;" horiz-adv-x="1251" d="M123 430v1049h309v-1028q0 -131 51 -192.5t140 -61.5q196 0 196 254v1028h309v-1049q0 -69 -15.5 -132.5t-52.5 -123t-93 -103t-143.5 -70t-196.5 -26.5q-249 0 -376.5 120t-127.5 335zM293 1630l217 293h227l221 -293h-190l-143 182l-146 -182h-186z" />
<glyph unicode="&#xdc;" horiz-adv-x="1251" d="M123 430v1049h309v-1028q0 -131 51 -192.5t140 -61.5q196 0 196 254v1028h309v-1049q0 -69 -15.5 -132.5t-52.5 -123t-93 -103t-143.5 -70t-196.5 -26.5q-249 0 -376.5 120t-127.5 335zM332 1653v221h227v-221h-227zM694 1653v221h228v-221h-228z" />
<glyph unicode="&#xdd;" horiz-adv-x="1138" d="M14 1479h338l221 -625l236 625h315l-413 -967v-512h-310v512zM393 1630l185 293h276l-328 -293h-133z" />
<glyph unicode="&#xde;" horiz-adv-x="1138" d="M131 0v1479h309v-265h248q393 0 393 -442q0 -59 -7.5 -110.5t-33.5 -114t-68.5 -106t-120 -73.5t-181.5 -30h-230v-338h-309zM440 565h172q66 0 111 61t45 138q0 103 -38 163t-134 60h-156v-422z" />
<glyph unicode="&#xdf;" horiz-adv-x="1138" d="M115 0v1124q0 379 450 379q416 0 416 -309q0 -52 -15 -95t-31.5 -65t-43.5 -51q-5 -5 -32 -31.5t-35 -37t-18.5 -34.5t-10.5 -49q0 -21 6.5 -40t24 -42.5t28 -36t40.5 -42.5t40 -41q65 -71 102 -140.5t37 -162.5q0 -161 -110 -253.5t-301 -92.5q-61 0 -136 20v211 q36 -10 90 -10q38 0 65.5 4t54.5 15.5t41 35.5t14 61q0 29 -10 57t-36 64t-40 53t-54 62q-34 40 -52.5 63.5t-42 59t-34 67.5t-10.5 64q0 27 6.5 49.5t24.5 45t27 32t36 35.5q29 30 45.5 51.5t31.5 61.5t15 87q0 70 -32.5 111t-100.5 41q-40 0 -71.5 -14.5t-49 -34.5 t-29 -44t-15 -41.5t-3.5 -29.5v-1157h-282z" />
<glyph unicode="&#xe0;" d="M84 309q0 63 12 113.5t33.5 86.5t52 63t68 43t80.5 27t90 14.5t96.5 5.5t99.5 0v79q0 37 -3.5 61.5t-15 47t-35.5 33t-62 10.5q-29 0 -49.5 -9t-32 -22.5t-18 -36t-8 -42t-1.5 -48.5h-282q0 172 96.5 246t279.5 74q77 0 138.5 -9.5t104.5 -26t74 -42t49.5 -53t29.5 -65 t14.5 -72t3.5 -78.5v-516q0 -46 14 -193h-268l-12 137h-4q-90 -157 -271 -157q-73 0 -127 25.5t-85.5 72t-46.5 104t-15 127.5zM227 1479h277l184 -293h-133zM367 322q0 -33 3.5 -58t14 -51t33 -40.5t55.5 -14.5q31 0 55 10.5t39 26t25.5 42.5t15.5 49t7.5 56.5t2.5 55.5 t-1 55.5t-1 46.5q-113 -5 -139 -10q-76 -15 -98 -81q-12 -34 -12 -87z" />
<glyph unicode="&#xe1;" d="M84 309q0 63 12 113.5t33.5 86.5t52 63t68 43t80.5 27t90 14.5t96.5 5.5t99.5 0v79q0 37 -3.5 61.5t-15 47t-35.5 33t-62 10.5q-29 0 -49.5 -9t-32 -22.5t-18 -36t-8 -42t-1.5 -48.5h-282q0 172 96.5 246t279.5 74q77 0 138.5 -9.5t104.5 -26t74 -42t49.5 -53t29.5 -65 t14.5 -72t3.5 -78.5v-516q0 -46 14 -193h-268l-12 137h-4q-90 -157 -271 -157q-73 0 -127 25.5t-85.5 72t-46.5 104t-15 127.5zM336 1186l184 293h277l-328 -293h-133zM367 322q0 -33 3.5 -58t14 -51t33 -40.5t55.5 -14.5q31 0 55 10.5t39 26t25.5 42.5t15.5 49t7.5 56.5 t2.5 55.5t-1 55.5t-1 46.5q-113 -5 -139 -10q-76 -15 -98 -81q-12 -34 -12 -87z" />
<glyph unicode="&#xe2;" d="M84 309q0 63 12 113.5t33.5 86.5t52 63t68 43t80.5 27t90 14.5t96.5 5.5t99.5 0v79q0 37 -3.5 61.5t-15 47t-35.5 33t-62 10.5q-29 0 -49.5 -9t-32 -22.5t-18 -36t-8 -42t-1.5 -48.5h-282q0 172 96.5 246t279.5 74q77 0 138.5 -9.5t104.5 -26t74 -42t49.5 -53t29.5 -65 t14.5 -72t3.5 -78.5v-516q0 -46 14 -193h-268l-12 137h-4q-90 -157 -271 -157q-73 0 -127 25.5t-85.5 72t-46.5 104t-15 127.5zM178 1186l217 293h228l221 -293h-191l-143 182l-145 -182h-187zM367 322q0 -33 3.5 -58t14 -51t33 -40.5t55.5 -14.5q31 0 55 10.5t39 26 t25.5 42.5t15.5 49t7.5 56.5t2.5 55.5t-1 55.5t-1 46.5q-113 -5 -139 -10q-76 -15 -98 -81q-12 -34 -12 -87z" />
<glyph unicode="&#xe3;" d="M84 309q0 63 12 113.5t33.5 86.5t52 63t68 43t80.5 27t90 14.5t96.5 5.5t99.5 0v79q0 37 -3.5 61.5t-15 47t-35.5 33t-62 10.5q-29 0 -49.5 -9t-32 -22.5t-18 -36t-8 -42t-1.5 -48.5h-282q0 172 96.5 246t279.5 74q77 0 138.5 -9.5t104.5 -26t74 -42t49.5 -53t29.5 -65 t14.5 -72t3.5 -78.5v-516q0 -46 14 -193h-268l-12 137h-4q-90 -157 -271 -157q-73 0 -127 25.5t-85.5 72t-46.5 104t-15 127.5zM147 1190q8 60 32.5 116.5t72.5 99t108 42.5q12 0 24.5 -1.5t26 -5.5t22.5 -6.5t25 -9.5t21.5 -9.5t23.5 -11t21 -9.5q96 -45 127 -45 q84 0 94 98h125q-18 -107 -65 -168q-66 -90 -150 -90q-74 0 -163 47q-81 43 -144 43t-80 -90h-121zM367 322q0 -33 3.5 -58t14 -51t33 -40.5t55.5 -14.5q31 0 55 10.5t39 26t25.5 42.5t15.5 49t7.5 56.5t2.5 55.5t-1 55.5t-1 46.5q-113 -5 -139 -10q-76 -15 -98 -81 q-12 -34 -12 -87z" />
<glyph unicode="&#xe4;" d="M84 309q0 63 12 113.5t33.5 86.5t52 63t68 43t80.5 27t90 14.5t96.5 5.5t99.5 0v79q0 37 -3.5 61.5t-15 47t-35.5 33t-62 10.5q-29 0 -49.5 -9t-32 -22.5t-18 -36t-8 -42t-1.5 -48.5h-282q0 172 96.5 246t279.5 74q77 0 138.5 -9.5t104.5 -26t74 -42t49.5 -53t29.5 -65 t14.5 -72t3.5 -78.5v-516q0 -46 14 -193h-268l-12 137h-4q-90 -157 -271 -157q-73 0 -127 25.5t-85.5 72t-46.5 104t-15 127.5zM217 1208v222h227v-222h-227zM367 322q0 -33 3.5 -58t14 -51t33 -40.5t55.5 -14.5q31 0 55 10.5t39 26t25.5 42.5t15.5 49t7.5 56.5t2.5 55.5 t-1 55.5t-1 46.5q-113 -5 -139 -10q-76 -15 -98 -81q-12 -34 -12 -87zM580 1208v222h227v-222h-227z" />
<glyph unicode="&#xe5;" d="M84 309q0 63 12 113.5t33.5 86.5t52 63t68 43t80.5 27t90 14.5t96.5 5.5t99.5 0v79q0 37 -3.5 61.5t-15 47t-35.5 33t-62 10.5q-29 0 -49.5 -9t-32 -22.5t-18 -36t-8 -42t-1.5 -48.5h-282q0 172 96.5 246t279.5 74q77 0 138.5 -9.5t104.5 -26t74 -42t49.5 -53t29.5 -65 t14.5 -72t3.5 -78.5v-516q0 -46 14 -193h-268l-12 137h-4q-90 -157 -271 -157q-73 0 -127 25.5t-85.5 72t-46.5 104t-15 127.5zM299 1327q0 87 63 150t150 63t150 -63t63 -150q0 -88 -62.5 -150.5t-150.5 -62.5t-150.5 62.5t-62.5 150.5zM367 322q0 -33 3.5 -58t14 -51 t33 -40.5t55.5 -14.5q31 0 55 10.5t39 26t25.5 42.5t15.5 49t7.5 56.5t2.5 55.5t-1 55.5t-1 46.5q-113 -5 -139 -10q-76 -15 -98 -81q-12 -34 -12 -87zM391 1327q0 -51 35 -86t86 -35q50 0 85.5 35t35.5 86q0 49 -35.5 85t-85.5 36q-51 0 -86 -35.5t-35 -85.5z" />
<glyph unicode="&#xe6;" horiz-adv-x="1593" d="M84 305q0 89 24.5 151.5t68.5 101t118.5 58.5t159.5 25.5t207 1.5q0 13 0.5 43.5t0.5 45.5t-2 41t-7 39.5t-15.5 31.5t-25.5 27t-38 15.5t-53 6.5q-129 0 -129 -160h-282q1 77 22 134t55.5 92.5t87.5 57.5t109.5 30t128.5 8q233 0 297 -146q48 80 116 113t158 33 q82 0 146.5 -15t109 -42.5t77 -67t50 -88.5t28 -106.5t11.5 -121.5t0 -133h-563q0 -43 1 -71t5 -69.5t13.5 -69t24 -54t39.5 -40t58 -13.5q123 0 123 184h293q-8 -173 -113 -270.5t-303 -97.5q-254 0 -313 180q-55 -100 -140 -140t-206 -40q-160 0 -251 83t-91 242zM367 297 q0 -63 33 -98t98 -35q31 0 56 6t42.5 19.5t30 28t19.5 37.5t11 41t5 46.5t1.5 46.5t-0.5 48t-1 44q-72 5 -127.5 2t-92.5 -19t-56 -56.5t-19 -110.5zM944 643h275v43t-2.5 45t-7 49t-14.5 42t-23.5 38t-36 23t-50.5 10q-30 0 -53 -10.5t-37.5 -24.5t-25 -39.5t-15 -44 t-7.5 -49t-3 -43.5v-39z" />
<glyph unicode="&#xe7;" d="M90 530q0 67 3.5 118.5t14 109t28.5 98.5t50 80.5t75.5 64t107 39.5t143.5 15q418 0 418 -389h-289q0 113 -30 158.5t-99 45.5q-36 0 -61 -14t-39 -36.5t-21.5 -67t-9.5 -88.5t-2 -117q0 -161 11.5 -241t39 -111t82.5 -31q66 0 99.5 57t33.5 160h289q0 -380 -375 -399 l-78 -101l4 -4q24 8 45 8q77 0 133 -40t56 -113q0 -65 -37.5 -110.5t-92 -65t-118.5 -19.5q-90 0 -211 53l39 82q86 -32 133 -32q51 0 88 19t37 65q0 38 -33.5 56t-73.5 16.5t-69 -15.5l-45 39l123 164q-79 5 -139.5 25.5t-100.5 57.5t-66 81.5t-39.5 108.5t-18.5 126.5 t-5 146.5z" />
<glyph unicode="&#xe8;" d="M90 530q0 67 3.5 118.5t14 109t28.5 98.5t50 80.5t75.5 64t107 39.5t143.5 15q114 0 194 -30t125.5 -78.5t70 -128t30 -158t2.5 -189.5h-553q0 -39 1 -66t4.5 -67.5t12.5 -67t22.5 -53t36.5 -40t54 -13.5q123 0 123 184h293q-6 -177 -115 -272.5t-301 -95.5 q-79 0 -141 14t-106 38t-75.5 63t-50.5 82t-30.5 103t-15 117t-3.5 133zM227 1479h277l184 -293h-133zM381 633h264v8q0 34 -0.5 53t-4 51.5t-12 51.5t-22.5 40t-38 30.5t-56 9.5t-56 -11t-37.5 -34t-22 -43t-11.5 -55t-3.5 -51.5t-0.5 -49.5z" />
<glyph unicode="&#xe9;" d="M90 530q0 67 3.5 118.5t14 109t28.5 98.5t50 80.5t75.5 64t107 39.5t143.5 15q114 0 194 -30t125.5 -78.5t70 -128t30 -158t2.5 -189.5h-553q0 -39 1 -66t4.5 -67.5t12.5 -67t22.5 -53t36.5 -40t54 -13.5q123 0 123 184h293q-6 -177 -115 -272.5t-301 -95.5 q-79 0 -141 14t-106 38t-75.5 63t-50.5 82t-30.5 103t-15 117t-3.5 133zM336 1186l184 293h277l-328 -293h-133zM381 633h264v8q0 34 -0.5 53t-4 51.5t-12 51.5t-22.5 40t-38 30.5t-56 9.5t-56 -11t-37.5 -34t-22 -43t-11.5 -55t-3.5 -51.5t-0.5 -49.5z" />
<glyph unicode="&#xea;" d="M90 530q0 67 3.5 118.5t14 109t28.5 98.5t50 80.5t75.5 64t107 39.5t143.5 15q114 0 194 -30t125.5 -78.5t70 -128t30 -158t2.5 -189.5h-553q0 -39 1 -66t4.5 -67.5t12.5 -67t22.5 -53t36.5 -40t54 -13.5q123 0 123 184h293q-6 -177 -115 -272.5t-301 -95.5 q-79 0 -141 14t-106 38t-75.5 63t-50.5 82t-30.5 103t-15 117t-3.5 133zM178 1186l217 293h228l221 -293h-191l-143 182l-145 -182h-187zM381 633h264v8q0 34 -0.5 53t-4 51.5t-12 51.5t-22.5 40t-38 30.5t-56 9.5t-56 -11t-37.5 -34t-22 -43t-11.5 -55t-3.5 -51.5 t-0.5 -49.5z" />
<glyph unicode="&#xeb;" d="M90 530q0 67 3.5 118.5t14 109t28.5 98.5t50 80.5t75.5 64t107 39.5t143.5 15q114 0 194 -30t125.5 -78.5t70 -128t30 -158t2.5 -189.5h-553q0 -39 1 -66t4.5 -67.5t12.5 -67t22.5 -53t36.5 -40t54 -13.5q123 0 123 184h293q-6 -177 -115 -272.5t-301 -95.5 q-79 0 -141 14t-106 38t-75.5 63t-50.5 82t-30.5 103t-15 117t-3.5 133zM217 1208v222h227v-222h-227zM381 633h264v8q0 34 -0.5 53t-4 51.5t-12 51.5t-22.5 40t-38 30.5t-56 9.5t-56 -11t-37.5 -34t-22 -43t-11.5 -55t-3.5 -51.5t-0.5 -49.5zM580 1208v222h227v-222h-227z " />
<glyph unicode="&#xec;" horiz-adv-x="569" d="M0 1479h276l185 -293h-133zM139 0v1034h289v-1034h-289z" />
<glyph unicode="&#xed;" horiz-adv-x="569" d="M109 1186l184 293h276l-327 -293h-133zM139 0v1034h289v-1034h-289z" />
<glyph unicode="&#xee;" horiz-adv-x="569" d="M-49 1186l217 293h227l221 -293h-190l-143 182l-146 -182h-186zM139 0v1034h289v-1034h-289z" />
<glyph unicode="&#xef;" horiz-adv-x="569" d="M-10 1208v222h227v-222h-227zM139 0v1034h289v-1034h-289zM352 1208v222h228v-222h-228z" />
<glyph unicode="&#xf0;" d="M90 520q0 88 9 160t33.5 139.5t64 113.5t103.5 73.5t149 27.5q67 0 110.5 -20t97.5 -74l5 4q-36 92 -97.5 167t-122.5 114l-176 -113l-82 72l158 102q-49 34 -73.5 45.5t-75.5 26.5v8l155 172q49 -14 118 -49t99 -59l168 108l76 -76l-147 -96q67 -77 105.5 -129 t75 -122.5t54 -149t27.5 -187.5t10 -258q0 -74 -3.5 -130t-15 -115t-30.5 -101t-50.5 -80.5t-75.5 -62t-106 -37.5t-141 -14t-141 14t-106 37.5t-75.5 62t-50.5 80.5t-30.5 101t-15 115t-3.5 130zM379 537q0 -156 11.5 -234t39 -108.5t82.5 -30.5t82.5 30.5t39 108.5 t11.5 234q0 71 -2 113.5t-9.5 85t-21.5 65t-39 36t-61 13.5t-61 -13.5t-39 -36t-21.5 -65t-9.5 -85t-2 -113.5z" />
<glyph unicode="&#xf1;" d="M115 0v1034h288v-104h5q39 64 97 94.5t146 30.5q108 0 183 -61.5t75 -164.5v-829h-288v713q0 79 -22.5 121.5t-86.5 42.5t-86.5 -42.5t-22.5 -121.5v-713h-288zM147 1190q8 60 32.5 116.5t72.5 99t108 42.5q12 0 24.5 -1.5t26 -5.5t22.5 -6.5t25 -9.5t21.5 -9.5t23.5 -11 t21 -9.5q96 -45 127 -45q84 0 94 98h125q-18 -107 -65 -168q-66 -90 -150 -90q-74 0 -163 47q-81 43 -144 43t-80 -90h-121z" />
<glyph unicode="&#xf2;" d="M90 530q0 67 3.5 118.5t14 109t28.5 98.5t50 80.5t75.5 64t107 39.5t143.5 15t143.5 -15t107 -39.5t75.5 -64t50 -80.5t28.5 -98.5t14 -109t3.5 -118.5q0 -76 -3.5 -133t-15 -117t-30.5 -103t-50.5 -82t-75.5 -63t-106 -38t-141 -14t-141 14t-106 38t-75.5 63t-50.5 82 t-30.5 103t-15 117t-3.5 133zM227 1479h277l184 -293h-133zM379 547q0 -161 11.5 -241t39 -111t82.5 -31t82.5 31t39 111t11.5 241q0 73 -2 117t-9.5 88.5t-21.5 67t-39 36.5t-61 14t-61 -14t-39 -36.5t-21.5 -67t-9.5 -88.5t-2 -117z" />
<glyph unicode="&#xf3;" d="M90 530q0 67 3.5 118.5t14 109t28.5 98.5t50 80.5t75.5 64t107 39.5t143.5 15t143.5 -15t107 -39.5t75.5 -64t50 -80.5t28.5 -98.5t14 -109t3.5 -118.5q0 -76 -3.5 -133t-15 -117t-30.5 -103t-50.5 -82t-75.5 -63t-106 -38t-141 -14t-141 14t-106 38t-75.5 63t-50.5 82 t-30.5 103t-15 117t-3.5 133zM336 1186l184 293h277l-328 -293h-133zM379 547q0 -161 11.5 -241t39 -111t82.5 -31t82.5 31t39 111t11.5 241q0 73 -2 117t-9.5 88.5t-21.5 67t-39 36.5t-61 14t-61 -14t-39 -36.5t-21.5 -67t-9.5 -88.5t-2 -117z" />
<glyph unicode="&#xf4;" d="M90 530q0 67 3.5 118.5t14 109t28.5 98.5t50 80.5t75.5 64t107 39.5t143.5 15t143.5 -15t107 -39.5t75.5 -64t50 -80.5t28.5 -98.5t14 -109t3.5 -118.5q0 -76 -3.5 -133t-15 -117t-30.5 -103t-50.5 -82t-75.5 -63t-106 -38t-141 -14t-141 14t-106 38t-75.5 63t-50.5 82 t-30.5 103t-15 117t-3.5 133zM178 1186l217 293h228l221 -293h-191l-143 182l-145 -182h-187zM379 547q0 -161 11.5 -241t39 -111t82.5 -31t82.5 31t39 111t11.5 241q0 73 -2 117t-9.5 88.5t-21.5 67t-39 36.5t-61 14t-61 -14t-39 -36.5t-21.5 -67t-9.5 -88.5t-2 -117z" />
<glyph unicode="&#xf5;" d="M90 530q0 67 3.5 118.5t14 109t28.5 98.5t50 80.5t75.5 64t107 39.5t143.5 15t143.5 -15t107 -39.5t75.5 -64t50 -80.5t28.5 -98.5t14 -109t3.5 -118.5q0 -76 -3.5 -133t-15 -117t-30.5 -103t-50.5 -82t-75.5 -63t-106 -38t-141 -14t-141 14t-106 38t-75.5 63t-50.5 82 t-30.5 103t-15 117t-3.5 133zM147 1190q8 60 32.5 116.5t72.5 99t108 42.5q12 0 24.5 -1.5t26 -5.5t22.5 -6.5t25 -9.5t21.5 -9.5t23.5 -11t21 -9.5q96 -45 127 -45q84 0 94 98h125q-18 -107 -65 -168q-66 -90 -150 -90q-74 0 -163 47q-81 43 -144 43t-80 -90h-121zM379 547 q0 -161 11.5 -241t39 -111t82.5 -31t82.5 31t39 111t11.5 241q0 73 -2 117t-9.5 88.5t-21.5 67t-39 36.5t-61 14t-61 -14t-39 -36.5t-21.5 -67t-9.5 -88.5t-2 -117z" />
<glyph unicode="&#xf6;" d="M90 530q0 67 3.5 118.5t14 109t28.5 98.5t50 80.5t75.5 64t107 39.5t143.5 15t143.5 -15t107 -39.5t75.5 -64t50 -80.5t28.5 -98.5t14 -109t3.5 -118.5q0 -76 -3.5 -133t-15 -117t-30.5 -103t-50.5 -82t-75.5 -63t-106 -38t-141 -14t-141 14t-106 38t-75.5 63t-50.5 82 t-30.5 103t-15 117t-3.5 133zM217 1208v222h227v-222h-227zM379 547q0 -161 11.5 -241t39 -111t82.5 -31t82.5 31t39 111t11.5 241q0 73 -2 117t-9.5 88.5t-21.5 67t-39 36.5t-61 14t-61 -14t-39 -36.5t-21.5 -67t-9.5 -88.5t-2 -117zM580 1208v222h227v-222h-227z" />
<glyph unicode="&#xf7;" d="M51 403v228h922v-228h-922zM381 0v246h262v-246h-262zM381 788v246h262v-246h-262z" />
<glyph unicode="&#xf8;" d="M14 -35l142 178q-66 117 -66 387q0 67 3.5 118.5t14 109t28.5 98.5t50 80.5t75.5 64t107 39.5t143.5 15q195 0 299 -90l129 159l70 -55l-142 -176q66 -115 66 -363q0 -76 -3.5 -133t-15 -117t-30.5 -103t-50.5 -82t-75.5 -63t-106 -38t-141 -14q-203 0 -299 90l-127 -160 zM379 547q0 -88 2 -121l252 317q-9 66 -37 96.5t-84 30.5q-36 0 -61 -14t-39 -36.5t-21.5 -67t-9.5 -88.5t-2 -117zM391 293q11 -75 39 -102t82 -27q55 0 82.5 31t39 111t11.5 241q0 47 -2 63z" />
<glyph unicode="&#xf9;" d="M115 205v829h288v-717q0 -78 22.5 -118.5t86.5 -40.5t86.5 40.5t22.5 118.5v717h288v-829q0 -80 11 -205h-299v104h-5q-41 -64 -97 -94t-146 -30q-108 0 -183 61t-75 164zM227 1479h277l184 -293h-133z" />
<glyph unicode="&#xfa;" d="M115 205v829h288v-717q0 -78 22.5 -118.5t86.5 -40.5t86.5 40.5t22.5 118.5v717h288v-829q0 -80 11 -205h-299v104h-5q-41 -64 -97 -94t-146 -30q-108 0 -183 61t-75 164zM336 1186l184 293h277l-328 -293h-133z" />
<glyph unicode="&#xfb;" d="M115 205v829h288v-717q0 -78 22.5 -118.5t86.5 -40.5t86.5 40.5t22.5 118.5v717h288v-829q0 -80 11 -205h-299v104h-5q-41 -64 -97 -94t-146 -30q-108 0 -183 61t-75 164zM178 1186l217 293h228l221 -293h-191l-143 182l-145 -182h-187z" />
<glyph unicode="&#xfc;" d="M115 205v829h288v-717q0 -78 22.5 -118.5t86.5 -40.5t86.5 40.5t22.5 118.5v717h288v-829q0 -80 11 -205h-299v104h-5q-41 -64 -97 -94t-146 -30q-108 0 -183 61t-75 164zM217 1208v222h227v-222h-227zM580 1208v222h227v-222h-227z" />
<glyph unicode="&#xfd;" horiz-adv-x="909" d="M18 1034h287l148 -727h4l155 727h279l-399 -1425h-304l111 383zM279 1186l184 293h276l-327 -293h-133z" />
<glyph unicode="&#xfe;" d="M115 -444v1923h288v-559h5q53 135 229 135q60 0 107 -19.5t77 -46t51.5 -75.5t31.5 -86.5t15.5 -101.5t6 -98t0.5 -98v-20v-16q0 -73 -1.5 -113t-8.5 -111.5t-25.5 -113.5t-48 -87.5t-80.5 -67t-119 -21.5q-80 0 -136 27t-99 91h-5v-542h-288zM403 526q0 -205 23 -286.5 t94 -81.5q75 0 99 81t24 287q0 186 -13 245q-20 95 -92 105q-8 1 -18 1q-22 0 -39 -5.5t-29 -20t-20.5 -28t-14 -42t-8.5 -48t-4.5 -60t-1.5 -64v-73.5v-10z" />
<glyph unicode="&#xff;" horiz-adv-x="909" d="M18 1034h287l148 -727h4l155 727h279l-399 -1425h-304l111 383zM160 1208v222h227v-222h-227zM522 1208v222h228v-222h-228z" />
<glyph unicode="&#x152;" horiz-adv-x="1705" d="M115 744v44q0 129 7.5 219t28 173t56.5 135t94 91t140.5 56t195.5 17h1003v-228h-497v-364h459v-228h-459v-432h514v-227h-1071q-99 0 -175 25t-125.5 58t-83.5 100t-51 116t-25.5 143.5t-9.5 145.5t-1 156zM418 770q0 -82 0.5 -124.5t3 -106t8.5 -95.5t16 -75t26 -63 t39 -41.5t54.5 -29.5t71.5 -8h217v1024h-178q-64 0 -105 -11.5t-73 -40.5t-48 -85t-24 -137.5t-8 -206.5z" />
<glyph unicode="&#x153;" horiz-adv-x="1593" d="M90 530q0 67 3.5 118.5t14 109t28.5 98.5t50 80.5t75.5 64t107 39.5t143.5 15q237 0 319 -150q72 150 269 150q114 0 194 -30t125.5 -78.5t70 -128t30 -158t2.5 -189.5h-553q0 -39 1 -66t4.5 -67.5t12.5 -67t22.5 -53t36.5 -40t54 -13.5q123 0 123 184h293 q-8 -173 -113 -270.5t-303 -97.5q-52 0 -92 7t-81.5 25t-75 55t-58.5 93q-40 -89 -120 -134.5t-161 -45.5q-79 0 -141 14t-106 38t-75.5 63t-50.5 82t-30.5 103t-15 117t-3.5 133zM379 547q0 -161 11.5 -241t39 -111t82.5 -31q44 0 72 10.5t48 33t30 69t14 109t4 161.5 q0 74 -2.5 117t-11.5 88t-27 67.5t-49 36.5t-78 14q-36 0 -61 -14t-39 -36.5t-21.5 -67t-9.5 -88.5t-2 -117zM969 633h264v8q0 34 -0.5 53t-4 51.5t-12 51.5t-22.5 40t-38 30.5t-56 9.5t-56 -11t-37.5 -34t-22 -43t-11.5 -55t-3.5 -51.5t-0.5 -49.5z" />
<glyph unicode="&#x178;" horiz-adv-x="1138" d="M14 1479h338l221 -625l236 625h315l-413 -967v-512h-310v512zM274 1653v221h228v-221h-228zM637 1653v221h227v-221h-227z" />
<glyph unicode="&#x2c6;" horiz-adv-x="569" d="M-49 1186l217 293h227l221 -293h-190l-143 182l-146 -182h-186z" />
<glyph unicode="&#x2dc;" horiz-adv-x="569" d="M-80 1190q8 60 32.5 116.5t72.5 99t108 42.5q12 0 24.5 -1.5t26 -5.5t22.5 -6.5t25 -9.5t21.5 -9.5t23.5 -11t21 -9.5q96 -45 127 -45q84 0 94 98h125q-18 -107 -65 -168q-66 -90 -150 -90q-75 0 -164 47q-81 43 -143 43q-63 0 -80 -90h-121z" />
<glyph unicode="&#x2000;" horiz-adv-x="992" />
<glyph unicode="&#x2001;" horiz-adv-x="1985" />
<glyph unicode="&#x2002;" horiz-adv-x="992" />
<glyph unicode="&#x2003;" horiz-adv-x="1985" />
<glyph unicode="&#x2004;" horiz-adv-x="661" />
<glyph unicode="&#x2005;" horiz-adv-x="496" />
<glyph unicode="&#x2006;" horiz-adv-x="330" />
<glyph unicode="&#x2007;" horiz-adv-x="330" />
<glyph unicode="&#x2008;" horiz-adv-x="248" />
<glyph unicode="&#x2009;" horiz-adv-x="397" />
<glyph unicode="&#x200a;" horiz-adv-x="110" />
<glyph unicode="&#x2010;" horiz-adv-x="681" d="M90 449v208h502v-208h-502z" />
<glyph unicode="&#x2011;" horiz-adv-x="681" d="M90 449v208h502v-208h-502z" />
<glyph unicode="&#x2012;" horiz-adv-x="681" d="M90 449v208h502v-208h-502z" />
<glyph unicode="&#x2013;" d="M0 471v162h1024v-162h-1024z" />
<glyph unicode="&#x2014;" horiz-adv-x="2048" d="M0 471v162h2048v-162h-2048z" />
<glyph unicode="&#x2018;" horiz-adv-x="454" d="M53 1075l150 404h196l-71 -404h-275z" />
<glyph unicode="&#x2019;" horiz-adv-x="454" d="M53 1075l72 404h274l-149 -404h-197z" />
<glyph unicode="&#x201a;" horiz-adv-x="454" d="M53 -199l72 404h274l-149 -404h-197z" />
<glyph unicode="&#x201c;" horiz-adv-x="909" d="M98 1075l150 404h196l-71 -404h-275zM463 1075l149 404h197l-72 -404h-274z" />
<glyph unicode="&#x201d;" horiz-adv-x="909" d="M98 1075l72 404h274l-149 -404h-197zM463 1075l72 404h274l-150 -404h-196z" />
<glyph unicode="&#x201e;" horiz-adv-x="909" d="M98 -199l72 404h274l-149 -404h-197zM463 -199l72 404h274l-150 -404h-196z" />
<glyph unicode="&#x2022;" horiz-adv-x="860" d="M61 739q0 153 107 261t262 108t262 -108t107 -261t-107 -260.5t-262 -107.5t-262 107.5t-107 260.5z" />
<glyph unicode="&#x2026;" horiz-adv-x="2048" d="M219 0v270h246v-270h-246zM901 0v270h246v-270h-246zM1583 0v270h246v-270h-246z" />
<glyph unicode="&#x202f;" horiz-adv-x="397" />
<glyph unicode="&#x2039;" horiz-adv-x="454" d="M14 557l189 393h237l-180 -393l176 -403h-235z" />
<glyph unicode="&#x203a;" horiz-adv-x="454" d="M14 154l181 393l-177 403h236l186 -403l-188 -393h-238z" />
<glyph unicode="&#x205f;" horiz-adv-x="496" />
<glyph unicode="&#x20ac;" horiz-adv-x="909" d="M10 457l39 172h62v153h-101l39 168l66 2v43q0 232 98.5 344.5t296.5 112.5q206 0 291.5 -92.5t85.5 -288.5h-252q0 82 -26 119t-95 37q-79 0 -105 -49.5t-26 -157.5v-68h328l-39 -170h-291v-153h256l-39 -172h-215v-51q0 -122 27.5 -171t109.5 -49q70 0 95.5 36t25.5 126 h248q0 -196 -91 -287.5t-288 -91.5q-220 0 -308.5 101.5t-88.5 332.5v54h-103z" />
<glyph unicode="&#x2122;" horiz-adv-x="1761" d="M6 1331v148h649v-148h-227v-739h-197v739h-225zM729 592v887h326l149 -605h4l158 605h313v-887h-196v684h-4l-183 -684h-192l-174 684h-4v-684h-197z" />
<glyph unicode="&#xe000;" horiz-adv-x="1034" d="M0 0v1034h1034v-1034h-1034z" />
</font>
</defs>
</svg>
