<?xml version="1.0" encoding="UTF-8"?><svg xmlns="http://www.w3.org/2000/svg" width="100%" height="100%"><defs><font id="web" horiz-adv-x="931"><!--



NOTICE: This font software is the valuable property 
of Webtype LLC, The Font Bureau, Webtype and/or its 
suppliers and its use by you is covered under the terms 
of the Web Font license agreement between you and Webtype 
LLC. You may ONLY use this font software with the licensed 
web site. Except as specifically permitted by the license, 
you may not copy this font software. If you have any 
questions, please contact Webtype.com. 

For more information, please visit http://www.webtype.com/store/license/?id=23

Licensed to: americanexpress.com

Serial number: SH-778
--><font-face font-family="" units-per-em="2048" panose-1="0 0 0 0 0 0 0 0 0 0" ascent="1934" descent="-523" alphabetic="0"/><missing-glyph horiz-adv-x="1024" d="M0 1434H1024V0H0V1434ZM102 102H922V1331H102V102Z"/><glyph unicode=" " horiz-adv-x="463"/><glyph unicode="!" horiz-adv-x="641" d="M233 1516H410L365 414H281L233 1516ZM233 190H412V0H233V190Z"/><glyph unicode="&quot;" horiz-adv-x="829" d="M518 1403V1516H662V1403L627 1001H553L518 1403ZM168 1403V1516H309V1403L274 1001H203L168 1403Z"/><glyph unicode="#" horiz-adv-x="1450" d="M328 444H90V561H352L434 954H178V1071H459L553 1516H684L592 1071H983L1077 1516H1208L1114 1071H1360V954H1092L1008 561H1272V444H985L891 0H760L852 444H461L367 0H236L328 444ZM877 561L958 954H567L483 561H877Z"/><glyph unicode="$" horiz-adv-x="1325" d="M604 -8Q503 -1 424 28T286 98T186 187T121 279L229 350Q263 299 300 257T384 185T485 135T608 111V735Q520 762 440 794T299 872T202 985T166 1147Q166 1223 195 1290T281 1409T418 1491T604 1528V1677H717V1526Q801 1517 866 1493T981 1434T1067 1357T1130 1270L1022 1192Q993 1237 964 1273T899 1335T818 1378T713 1401V842Q804 815 891 783T1045 701T1154 578T1196 395Q1196 309 1163 238T1069 114T918 29T717 -10V-190H604V-8ZM713 113Q783 117 845 133T953 181T1027 263T1055 385Q1055 458 1028 509T954 596T845 658T713 705V113ZM608 1405Q530 1401 473 1380T378 1326T323 1249T305 1157Q305 1095 328 1050T393 973T490 916T608 872V1405Z"/><glyph unicode="%" horiz-adv-x="1987" d="M467 627Q385 627 322 660T215 752T150 894T127 1077Q127 1182 151 1267T219 1413T327 1505T469 1538Q547 1538 610 1506T716 1415T783 1272T807 1085Q807 985 784 901T718 756T611 661T467 627ZM1520 -20Q1437 -20 1374 13T1268 105T1202 247T1180 430Q1180 535 1204 620T1272 765T1380 857T1522 889Q1600 889 1663 857T1769 766T1836 624T1860 436Q1860 337 1837 254T1771 109T1664 14T1520 -20ZM1520 92Q1571 92 1610 118T1676 191T1715 299T1729 434Q1729 511 1716 574T1676 682T1610 751T1520 776Q1467 776 1428 750T1362 679T1323 571T1309 436Q1309 359 1322 296T1362 187T1428 117T1520 92ZM469 741Q520 741 559 767T624 839T664 947T678 1081Q678 1158 664 1221T623 1329T557 1398T467 1423Q416 1423 377 1397T310 1326T270 1219T256 1085Q256 1008 270 945T311 836T378 766T469 741ZM1380 1516H1511L606 0H475L1380 1516Z"/><glyph unicode="&amp;" horiz-adv-x="1477" d="M584 -29Q458 -29 364 0T207 82T113 209T82 375Q82 458 110 526T186 651T299 754T438 840Q386 931 360 1014T334 1188Q334 1257 356 1321T422 1434T532 1514T686 1544Q765 1544 824 1522T924 1460T984 1367T1004 1253Q1004 1175 974 1111T893 994T771 895T621 809Q648 767 683 720T760 618Q835 521 900 446T1022 315Q1087 400 1126 512T1182 758H1319Q1299 606 1249 474T1118 238Q1204 168 1278 139T1425 109V-20Q1369 -18 1319 -8T1220 20T1125 68T1026 139Q938 61 830 16T584 -29ZM563 899Q625 931 681 966T779 1042T845 1133T870 1243Q870 1279 860 1311T827 1369T769 1408T686 1423Q633 1423 593 1406T527 1359T487 1287T473 1194Q473 1119 494 1050T563 899ZM592 94Q694 94 779 125T934 219Q871 279 801 358T645 547Q602 601 565 649T496 743Q436 708 387 669T302 584T247 489T227 385Q227 248 318 171T592 94Z"/><glyph unicode="'" horiz-adv-x="477" d="M168 1403V1516H309V1403L274 1001H203L168 1403Z"/><glyph unicode="(" horiz-adv-x="813" d="M639 -420Q514 -315 419 -204T259 29T162 281T129 559Q129 705 161 836T258 1089T418 1321T639 1538L702 1466Q607 1379 530 1277T399 1061T315 820T285 559Q285 423 314 297T399 56T531 -161T705 -350L639 -420V-420Z"/><glyph unicode=")" horiz-adv-x="813" d="M109 -350Q205 -263 283 -161T415 56T500 297T530 559Q530 694 500 820T416 1060T284 1277T111 1466L174 1538Q299 1433 395 1322T555 1089T653 837T686 559Q686 413 653 282T556 29T395 -203T174 -420L109 -350Z"/><glyph unicode="*" horiz-adv-x="1040" d="M256 782L469 1092L94 1065V1178L471 1151L256 1460L358 1522L520 1180L682 1522L784 1460L571 1151L946 1178V1065L571 1092L784 782L682 723L520 1063L358 723L256 782Z"/><glyph unicode="+" horiz-adv-x="1303" d="M588 612H135V735H588V1194H715V735H1169V612H715V154H588V612Z"/><glyph unicode="," horiz-adv-x="549" d="M254 0H186V193H362V18L270 -207H205L254 0Z"/><glyph unicode="-" horiz-adv-x="731" d="M135 705H596V582H135V705Z"/><glyph unicode="." horiz-adv-x="549" d="M186 193H362V0H186V193Z"/><glyph unicode="/" horiz-adv-x="1124" d="M928 1516H1077L197 0H47L928 1516Z"/><glyph unicode="0" horiz-adv-x="1337" d="M670 -29Q536 -29 433 27T258 187T150 435T113 758Q113 935 150 1080T258 1328T432 1487T670 1544Q803 1544 906 1488T1080 1328T1186 1080T1223 758Q1223 581 1187 436T1080 187T907 28T670 -29ZM670 98Q766 98 842 141T970 267T1051 474T1079 758Q1079 918 1050 1041T968 1247T839 1372T670 1415Q573 1415 497 1373T367 1247T286 1041T258 758Q258 597 287 474T370 268T500 141T670 98Z"/><glyph unicode="1" horiz-adv-x="885" d="M123 131H408V1358Q380 1343 345 1331T273 1309T198 1294T127 1288V1417Q215 1420 290 1444T416 1516H551V131H809V0H123V131Z"/><glyph unicode="2" horiz-adv-x="1202" d="M98 33Q98 115 121 195T202 357T358 526T606 709Q691 763 752 811T851 907T908 1006T926 1120Q926 1187 906 1241T846 1334T749 1394T616 1415Q491 1415 400 1351T240 1153L125 1221Q205 1375 329 1459T623 1544Q726 1544 808 1514T947 1428T1036 1296T1067 1128Q1067 1051 1047 986T981 859T860 737T676 606Q470 475 368 355T258 131H1073V0H98V33Z"/><glyph unicode="3" horiz-adv-x="1210" d="M582 -29Q414 -29 280 44T61 254L170 332Q253 207 355 153T584 98Q668 98 734 120T847 182T919 280T944 408Q944 492 918 554T834 658T683 720T457 741H399V866H469Q590 866 674 884T810 939T887 1028T911 1151Q911 1208 893 1256T837 1340T737 1395T590 1415Q532 1415 481 1402T385 1364T301 1305T229 1231L129 1315Q170 1364 219 1406T327 1478T453 1526T598 1544Q718 1544 804 1513T945 1429T1027 1308T1053 1165Q1053 1092 1032 1032T973 927T879 851T754 807Q924 772 1005 674T1087 408Q1087 315 1052 235T952 97T793 5T582 -29Z"/><glyph unicode="4" horiz-adv-x="1241" d="M797 367H68V475L758 1516H936V496H1192V367H936V0H797V367ZM797 496V1346H793L231 496H797Z"/><glyph unicode="5" horiz-adv-x="1192" d="M580 -29Q497 -29 423 -9T286 47T170 133T80 244L184 328Q218 278 258 236T347 163T453 115T578 98Q675 98 746 131T864 220T933 347T956 496Q956 588 930 658T858 775T749 847T610 872Q494 872 411 823T264 682L156 723L215 1516H1016L1004 1382H336L295 856Q323 888 356 914T430 958T520 987T631 997Q734 997 820 963T968 864T1065 708T1100 502Q1100 388 1064 291T961 123T797 12T580 -29Z"/><glyph unicode="6" horiz-adv-x="1251" d="M651 -29Q539 -29 441 16T270 156T155 393T113 731Q113 906 156 1055T279 1312T467 1482T707 1544Q770 1544 822 1535T919 1511T1001 1475T1069 1430L993 1319Q964 1342 934 1360T870 1391T795 1410T702 1417Q598 1417 516 1365T375 1223T286 1009T254 745Q290 784 335 821T434 886T551 931T686 948Q806 948 895 913T1042 815T1130 665T1159 475Q1159 367 1123 275T1020 116T859 10T651 -29ZM657 96Q738 96 805 121T919 194T992 313T1018 473Q1018 549 998 613T936 724T828 797T670 823Q607 823 548 807T437 760T339 689T260 600Q272 468 307 373T395 216T515 125T657 96Z"/><glyph unicode="7" horiz-adv-x="1124" d="M883 1382H102V1516H1034V1391L393 0H244L883 1382Z"/><glyph unicode="8" horiz-adv-x="1243" d="M623 -31Q495 -31 395 0T225 85T119 211T82 367Q82 447 109 510T188 625T314 720T483 805Q405 839 344 876T240 957T175 1056T152 1180Q152 1250 184 1316T276 1433T424 1515T623 1546Q737 1546 824 1515T971 1433T1061 1316T1092 1180Q1092 1112 1070 1059T1005 963T900 882T756 809Q853 767 928 724T1055 629T1134 514T1161 367Q1161 286 1125 214T1019 88T850 1T623 -31ZM629 864Q714 901 775 934T875 1002T932 1079T950 1174Q950 1219 931 1263T872 1343T770 1401T623 1423Q542 1423 480 1402T377 1347T314 1269T293 1180Q293 1126 313 1084T374 1006T478 936T629 864ZM623 92Q709 92 781 112T906 169T988 258T1018 375Q1018 439 992 490T914 584T787 667T614 748Q513 703 440 662T319 578T248 485T225 375Q225 313 254 261T337 172T463 113T623 92Z"/><glyph unicode="9" horiz-adv-x="1251" d="M545 -29Q479 -29 423 -19T318 10T230 53T158 106L231 215Q264 188 296 167T366 130T448 106T549 98Q652 98 735 149T875 291T964 505T995 770Q959 731 915 695T817 630T700 584T565 567Q445 567 357 602T209 701T121 850T92 1040Q92 1148 128 1240T231 1399T392 1505T600 1544Q712 1544 810 1499T980 1360T1095 1123T1137 784Q1137 609 1094 460T972 203T784 33T545 -29ZM582 692Q645 692 704 708T815 755T911 826T991 915Q980 1047 945 1142T856 1298T735 1388T592 1417Q511 1417 445 1392T332 1320T259 1202T233 1042Q233 966 253 902T315 792T424 719T582 692Z"/><glyph unicode=":" horiz-adv-x="555" d="M188 1079H367V885H188V1079ZM188 193H367V0H188V193Z"/><glyph unicode=";" horiz-adv-x="555" d="M256 0H188V193H367V20L272 -207H207L256 0ZM188 1079H367V885H188V1079Z"/><glyph unicode="&lt;" horiz-adv-x="1303" d="M104 612V715L1188 1180V1047L268 664L1188 281V147L104 612Z"/><glyph unicode="=" horiz-adv-x="1303" d="M133 492H1167V371H133V492ZM133 958H1167V838H133V958Z"/><glyph unicode="&gt;" horiz-adv-x="1303" d="M117 281L1036 664L117 1047V1180L1200 715V612L117 147V281Z"/><glyph unicode="?" horiz-adv-x="1104" d="M436 412Q434 443 433 477T432 547Q432 601 442 645T473 726T530 796T616 858Q677 895 722 926T795 992T838 1068T852 1167Q852 1225 832 1271T772 1349T677 1398T549 1415Q484 1415 431 1400T333 1357T251 1291T182 1208L80 1286Q121 1341 169 1388T274 1470T402 1524T557 1544Q657 1544 738 1517T876 1442T965 1325T997 1176Q997 1101 977 1045T922 944T838 864T735 797Q692 772 662 749T612 702T580 651T562 590T555 512T553 412H436ZM406 190H584V0H406V190Z"/><glyph unicode="@" horiz-adv-x="1778" d="M885 -29Q713 -29 569 28T321 188T158 437T100 758Q100 934 159 1078T324 1326T574 1487T889 1544Q1058 1544 1202 1488T1452 1330T1617 1088T1677 778Q1677 670 1651 585T1579 440T1471 350T1335 319Q1285 319 1245 331T1175 364T1124 413T1094 475Q1019 407 936 367T752 326Q686 326 630 345T532 405T467 507T444 653Q444 769 475 870T564 1047T700 1165T874 1208Q965 1208 1028 1177T1141 1096L1155 1190H1272L1184 588Q1178 549 1185 516T1214 458T1268 420T1346 406Q1397 406 1441 428T1519 495T1571 611T1591 776Q1591 928 1539 1054T1392 1271T1170 1412T889 1462Q737 1462 609 1411T387 1266T242 1044T190 758Q190 602 242 472T386 249T607 103T887 51Q1010 51 1110 79T1305 160L1341 90Q1244 36 1129 4T885 -29ZM770 426Q848 426 917 455T1061 557L1124 985Q1072 1048 1011 1076T868 1104Q801 1104 746 1069T651 973T589 833T567 664Q567 538 621 482T770 426Z"/><glyph unicode="A" horiz-adv-x="1378" d="M610 1522H768L1305 0H1153L991 467H377L215 0H74L610 1522ZM946 596L686 1350H682L422 596H946Z"/><glyph unicode="B" horiz-adv-x="1403" d="M195 1516H721Q849 1516 945 1490T1106 1415T1203 1296T1235 1135Q1235 1058 1212 999T1150 896T1059 825T948 784V780Q1019 767 1080 739T1187 665T1258 556T1284 412Q1284 322 1253 247T1157 116T995 31T766 0H195V1516ZM764 129Q959 129 1050 204T1141 418Q1141 495 1112 551T1028 643T895 697T719 715H338V129H764ZM709 842Q799 842 870 858T991 908T1066 993T1092 1116Q1092 1256 1001 1320T713 1384H338V842H709Z"/><glyph unicode="C" horiz-adv-x="1432" d="M752 -29Q608 -29 492 27T293 186T166 436T121 764Q121 936 166 1079T294 1326T493 1486T752 1544Q867 1544 957 1511T1114 1418T1227 1272T1300 1081L1161 1047Q1136 1137 1101 1205T1017 1318T903 1387T750 1411Q640 1411 551 1365T398 1235T301 1033T266 768Q266 610 301 487T399 278T553 147T754 102Q924 102 1030 198T1186 487L1325 457Q1297 345 1247 255T1124 102T959 5T752 -29Z"/><glyph unicode="D" horiz-adv-x="1452" d="M195 1516H578Q948 1516 1139 1326T1331 760Q1331 572 1282 430T1138 193T902 49T578 0H195V1516ZM600 131Q741 131 850 167T1033 281T1147 477T1186 760Q1186 920 1147 1037T1033 1230T847 1343T596 1380H340V131H600Z"/><glyph unicode="E" horiz-adv-x="1237" d="M195 1516H1100V1380H340V866H907V735H340V133H1143V0H195V1516Z"/><glyph unicode="F" horiz-adv-x="1157" d="M195 1516H1081V1380H340V858H889V727H340V0H195V1516Z"/><glyph unicode="G" horiz-adv-x="1481" d="M743 -29Q594 -29 479 31T284 197T163 448T121 764Q121 943 168 1087T300 1332T500 1489T754 1544Q970 1544 1108 1426T1305 1079L1165 1047Q1138 1140 1102 1208T1017 1322T902 1389T752 1411Q653 1411 565 1371T411 1250T305 1050T266 770Q266 611 301 487T401 277T556 147T756 102Q851 102 929 135T1062 230T1147 382T1176 588H809V713H1317V0H1186V231H1182Q1156 181 1118 134T1027 51T904 -7T743 -29Z"/><glyph unicode="H" horiz-adv-x="1499" d="M195 1516H340V866H1161V1516H1307V0H1161V733H340V0H195V1516Z"/><glyph unicode="I" horiz-adv-x="575" d="M215 1516H360V0H215V1516Z"/><glyph unicode="J" horiz-adv-x="1020" d="M430 -29Q360 -29 304 -14T202 30T120 96T55 180L158 258Q182 222 209 193T269 143T339 111T424 100Q485 100 534 116T619 168T674 263T694 408V1516H840V406Q840 298 812 217T730 81T601 -1T430 -29Z"/><glyph unicode="K" horiz-adv-x="1368" d="M195 1516H340V698L1065 1516H1243L723 942L1319 0H1151L625 829L340 518V0H195V1516Z"/><glyph unicode="L" horiz-adv-x="1157" d="M195 1516H340V133H1081V0H195V1516Z"/><glyph unicode="M" horiz-adv-x="1784" d="M195 1516H383L891 188H895L1399 1516H1591V0H1446V1270H1442Q1426 1219 1401 1149T1348 1004L954 0H821L428 1004Q414 1041 403 1072T380 1135T357 1199T334 1274H330V0H195V1516Z"/><glyph unicode="N" horiz-adv-x="1522" d="M195 1516H350L1186 266H1190V1516H1327V0H1198L336 1288H332V0H195V1516Z"/><glyph unicode="O" horiz-adv-x="1520" d="M760 -29Q621 -29 504 27T301 186T169 434T121 758Q121 936 168 1081T301 1329T503 1488T760 1544Q899 1544 1016 1488T1218 1329T1351 1081T1399 758Q1399 580 1351 435T1218 186T1016 27T760 -29ZM760 102Q868 102 958 146T1114 275T1216 481T1253 758Q1253 912 1217 1033T1115 1239T959 1367T760 1411Q652 1411 562 1367T406 1239T303 1034T266 758Q266 603 303 482T405 276T561 147T760 102Z"/><glyph unicode="P" horiz-adv-x="1317" d="M195 1516H698Q822 1516 920 1491T1087 1414T1192 1284T1229 1102Q1229 988 1189 907T1077 773T904 697T684 672H340V0H195V1516ZM694 801Q788 801 860 816T982 867T1057 959T1083 1098Q1083 1175 1058 1229T983 1317T860 1366T692 1382H340V801H694Z"/><glyph unicode="Q" horiz-adv-x="1520" d="M1130 -381Q1016 -381 932 -354T792 -279T709 -166T680 -23Q556 -8 454 54T277 217T162 456T121 758Q121 936 169 1081T302 1329T505 1488T760 1544Q896 1544 1013 1488T1216 1329T1350 1081T1399 758Q1399 591 1357 453T1238 212T1057 49T825 -25Q831 -93 858 -136T929 -206T1031 -242T1161 -252H1266V-381H1130ZM760 100Q866 100 956 145T1112 274T1214 481T1251 758Q1251 912 1214 1033T1112 1239T957 1367T760 1411Q652 1411 562 1367T406 1239T303 1034T266 758Q266 603 303 481T405 275T561 145T760 100Z"/><glyph unicode="R" horiz-adv-x="1374" d="M195 1516H702Q829 1516 927 1490T1092 1411T1194 1283T1229 1106Q1229 1014 1203 944T1130 824T1015 743T866 696L1249 0H1085L715 680H338V0H195V1516ZM692 809Q786 809 858 823T981 872T1057 962T1083 1100Q1083 1178 1058 1232T982 1319T859 1367T690 1382H338V809H692Z"/><glyph unicode="S" horiz-adv-x="1329" d="M676 -29Q569 -29 479 -1T317 79T196 206T119 373L248 420Q299 261 410 181T682 100Q767 100 836 119T955 173T1030 260T1057 375Q1057 434 1040 480T979 565T857 640T659 715Q537 753 445 791T292 879T199 995T168 1155Q168 1236 202 1307T299 1430T448 1513T639 1544Q746 1544 830 1518T979 1446T1087 1336T1159 1196L1036 1139Q980 1286 880 1349T637 1413Q561 1413 501 1394T398 1342T334 1263T311 1165Q311 1101 332 1056T401 975T530 907T731 836Q849 798 937 758T1085 665T1173 545T1202 385Q1202 290 1163 214T1053 83T886 0T676 -29Z"/><glyph unicode="T" horiz-adv-x="1264" d="M559 1380H70V1516H1194V1380H705V0H559V1380Z"/><glyph unicode="U" horiz-adv-x="1464" d="M731 -27Q591 -27 488 15T316 129T214 300T180 512V1516H326V537Q326 444 350 365T424 228T550 137T733 104Q838 104 915 135T1041 224T1115 359T1139 532V1516H1284V516Q1284 403 1250 304T1146 132T973 16T731 -27Z"/><glyph unicode="V" horiz-adv-x="1350" d="M74 1516H223L676 193H680L1135 1516H1276L743 -6H606L74 1516Z"/><glyph unicode="W" horiz-adv-x="1894" d="M82 1516H229L465 596Q493 491 516 392T557 215H561Q577 292 600 391T649 594L874 1516H1028L1257 586Q1283 483 1305 393T1343 215H1348Q1358 260 1368 304T1389 392T1412 482T1436 580L1673 1516H1812L1411 0H1274L952 1315H948L623 0H485L82 1516Z"/><glyph unicode="X" horiz-adv-x="1346" d="M594 813L133 1516H301L678 928L1055 1516H1210L754 813L1280 0H1124L670 698L215 0H66L594 813Z"/><glyph unicode="Y" horiz-adv-x="1266" d="M559 668L51 1516H209L635 793L1059 1516H1214L705 668V0H559V668Z"/><glyph unicode="Z" horiz-adv-x="1276" d="M86 104L995 1393H145V1516H1171V1409L266 123H1171V0H86V104Z"/><glyph unicode="[" horiz-adv-x="797" d="M180 1516H700V1407H324V-301H700V-410H180V1516Z"/><glyph unicode="\" horiz-adv-x="1112" d="M41 1516H190L1071 0H922L41 1516Z"/><glyph unicode="]" horiz-adv-x="797" d="M96 -301H473V1405H96V1516H616V-410H96V-301Z"/><glyph unicode="^" horiz-adv-x="1303" d="M600 1516H705L1167 692H1036L653 1370L268 692H137L600 1516Z"/><glyph unicode="_" horiz-adv-x="1024" d="M0 -143H1024V-258H0V-143Z"/><glyph unicode="`" horiz-adv-x="1024" d="M297 1513H483L678 1194H586L297 1513Z"/><glyph unicode="a" horiz-adv-x="1120" d="M403 -18Q258 -18 178 53T98 252Q98 332 135 401T258 527T483 628T829 705V760Q829 872 773 926T610 981Q546 981 491 968T387 933T294 879T207 811L131 899Q179 944 232 981T345 1044T474 1085T623 1100Q713 1100 778 1077T886 1009T949 901T969 756V266Q969 167 975 105T999 0H854Q843 34 836 70T829 154Q735 69 630 26T403 -18ZM434 98Q549 98 647 143T829 268V604Q656 575 542 539T361 461T266 371T238 270Q238 185 290 142T434 98Z"/><glyph unicode="b" horiz-adv-x="1214" d="M653 -18Q549 -18 463 27T305 147V0H164V1516H305V922Q337 958 375 990T457 1047T553 1085T666 1100Q759 1100 840 1066T981 962T1075 787T1110 541Q1110 400 1075 295T979 121T834 17T653 -18ZM641 100Q712 100 772 125T876 204T944 341T969 539Q969 651 943 734T873 871T768 952T641 979Q591 979 547 967T462 931T383 874T305 801V276Q386 191 466 146T641 100Z"/><glyph unicode="c" horiz-adv-x="1087" d="M569 -23Q476 -23 392 14T243 123T140 299T102 539Q102 684 143 790T252 965T406 1067T584 1100Q671 1100 736 1076T851 1012T936 918T997 805L877 752Q832 861 763 920T580 979Q520 979 460 956T352 881T274 746T244 541Q244 435 269 353T339 214T443 128T575 98Q631 98 676 111T758 153T825 224T885 328L999 279Q967 210 927 155T834 60T717 -1T569 -23Z"/><glyph unicode="d" horiz-adv-x="1214" d="M549 -18Q456 -18 375 16T234 119T139 293T104 539Q104 680 139 785T235 960T380 1065T561 1100Q613 1100 662 1087T755 1052T838 998T909 932V1516H1051V266Q1051 167 1058 105T1083 0H934Q925 28 917 71T909 158Q876 122 839 90T757 34T662 -4T549 -18ZM573 102Q623 102 667 114T753 150T832 205T909 279V803Q829 890 748 935T573 981Q502 981 442 955T339 874T271 735T246 537Q246 426 272 344T342 208T445 128T573 102Z"/><glyph unicode="e" horiz-adv-x="1118" d="M575 -23Q481 -23 396 13T245 120T141 297T102 541Q102 685 144 790T253 964T405 1066T575 1100Q669 1100 750 1064T890 958T982 782T1016 539V512H244Q245 412 272 335T345 204T452 124T584 96Q644 96 692 109T781 147T855 208T920 293L1008 223Q972 166 929 121T833 43T716 -6T575 -23ZM879 625Q873 701 852 766T793 879T700 954T573 981Q515 981 460 960T361 894T287 783T246 625H879Z"/><glyph unicode="f" horiz-adv-x="676" d="M244 958H55V1079H244V1241Q244 1378 321 1448T553 1518Q573 1518 597 1517T635 1513V1395Q622 1397 601 1398T563 1399Q524 1399 492 1391T435 1365T398 1317T385 1243V1079H623V958H385V0H244V958Z"/><glyph unicode="g" horiz-adv-x="1155" d="M557 -414Q426 -414 330 -395T170 -341T76 -256T45 -143Q45 -60 97 2T244 102Q147 142 147 240Q147 289 183 329T279 401Q201 451 158 531T115 711Q115 797 147 868T236 991T371 1071T541 1100Q635 1100 713 1071T848 989Q872 1007 901 1023T964 1052T1031 1074T1098 1087V954Q1050 954 999 946T901 918Q932 876 948 825T965 711Q965 622 933 552T843 431T709 355T541 328Q446 328 367 358Q328 343 305 320T281 266Q281 249 289 236T315 213T364 196T440 184L676 166Q863 150 960 84T1057 -109Q1057 -183 1021 -239T918 -335T760 -394T557 -414ZM543 436Q609 436 662 455T752 510T810 596T831 709Q831 773 812 824T755 912T664 967T541 987Q474 987 421 967T330 911T272 824T252 709Q252 647 272 597T331 511T423 456T543 436ZM571 -303Q654 -303 720 -290T831 -253T901 -196T926 -121Q926 -82 910 -53T859 -4T767 30T631 49L416 66L360 72Q270 43 225 -10T180 -125Q180 -210 273 -256T571 -303Z"/><glyph unicode="h" horiz-adv-x="1190" d="M164 1516H305V909Q344 948 389 982T486 1043T595 1084T717 1100Q877 1100 957 1016T1038 780V0H897V754Q897 868 845 923T682 979Q578 979 487 929T305 791V0H164V1516Z"/><glyph unicode="i" horiz-adv-x="492" d="M176 1079H317V0H176V1079ZM172 1481H322V1329H172V1481Z"/><glyph unicode="j" horiz-adv-x="492" d="M90 -412Q82 -412 70 -412T45 -410T22 -407T6 -403V-291Q19 -294 36 -296T70 -299Q119 -299 147 -270T176 -178V1079H317V-180Q317 -236 305 -279T266 -351T196 -396T90 -412ZM172 1481H322V1329H172V1481Z"/><glyph unicode="k" horiz-adv-x="1085" d="M164 1516H305V510L819 1079H985L633 698L1028 0H874L539 590L305 340V0H164V1516Z"/><glyph unicode="l" horiz-adv-x="492" d="M176 1516H317V0H176V1516Z"/><glyph unicode="m" horiz-adv-x="1870" d="M164 1079H305V909Q346 949 390 984T483 1044T586 1085T700 1100Q769 1100 819 1086T905 1046T963 984T997 905Q1039 945 1085 980T1183 1042T1289 1084T1405 1100Q1488 1100 1547 1078T1643 1013T1698 912T1716 780V0H1575V754Q1575 811 1565 853T1531 923T1468 965T1372 979Q1323 979 1278 966T1188 929T1101 869T1012 791V0H870V754Q870 811 860 853T825 923T762 965T666 979Q569 979 483 929T305 791V0H164V1079Z"/><glyph unicode="n" horiz-adv-x="1190" d="M164 1079H305V909Q344 948 389 982T486 1043T595 1084T717 1100Q877 1100 957 1016T1038 780V0H897V754Q897 868 845 923T682 979Q578 979 487 929T305 791V0H164V1079Z"/><glyph unicode="o" horiz-adv-x="1182" d="M592 -23Q493 -23 404 14T248 123T142 299T102 539Q102 674 141 778T247 954T403 1063T592 1100Q691 1100 779 1063T934 955T1040 779T1079 539Q1079 404 1040 300T935 124T780 15T592 -23ZM592 98Q673 98 737 130T846 222T914 362T938 541Q938 629 916 708T851 848T742 943T592 979Q510 979 446 947T336 856T268 717T244 541Q244 451 265 371T330 230T439 134T592 98Z"/><glyph unicode="p" horiz-adv-x="1214" d="M164 1079H305V926Q337 960 375 991T457 1047T553 1085T666 1100Q759 1100 840 1066T981 962T1075 787T1110 541Q1110 400 1075 295T979 121T834 17T653 -18Q549 -18 463 27T305 147V-410H164V1079ZM641 100Q712 100 772 125T876 204T944 341T969 539Q969 651 943 734T873 871T768 952T641 979Q591 979 547 967T462 931T383 874T305 801V276Q386 191 466 146T641 100Z"/><glyph unicode="q" horiz-adv-x="1214" d="M909 158Q876 122 839 90T757 34T662 -4T549 -18Q456 -18 375 16T234 119T139 293T104 539Q104 680 139 785T235 960T380 1065T561 1100Q665 1100 751 1054T909 936V1079H1051V-410H909V158ZM573 102Q623 102 667 114T753 150T832 205T909 279V803Q829 890 748 935T573 981Q502 981 442 955T339 874T271 735T246 537Q246 426 272 344T342 208T445 128T573 102Z"/><glyph unicode="r" horiz-adv-x="809" d="M164 1079H305V866H309Q340 916 381 958T474 1032T592 1082T737 1100H762L748 969Q737 969 728 970Q720 970 714 970T705 971Q571 971 470 901T305 702V0H164V1079Z"/><glyph unicode="s" horiz-adv-x="1036" d="M512 -20Q440 -20 376 -6T259 34T162 95T88 172L178 254Q240 183 321 141T514 98Q653 98 724 147T795 287Q795 332 779 364T726 420T634 464T498 502Q405 525 335 550T218 612T147 697T123 817Q123 875 147 926T218 1016T333 1077T489 1100Q558 1100 616 1089T722 1058T812 1008T889 944L809 850Q747 912 670 947T494 983Q431 983 387 970T314 934T273 883T260 823Q260 784 274 756T320 705T401 666T522 631Q624 606 700 580T828 515T906 422T932 289Q932 215 901 158T814 61T681 1T512 -20Z"/><glyph unicode="t" horiz-adv-x="748" d="M522 -14Q444 -14 390 1T303 49T254 132T238 252V958H49V1079H238V1466H379V1079H659V958H379V281Q379 238 387 205T414 150T466 116T549 104Q580 104 609 107T662 119V-2Q637 -7 598 -10T522 -14Z"/><glyph unicode="u" horiz-adv-x="1190" d="M475 -23Q314 -23 234 62T154 299V1079H295V324Q295 209 346 154T510 98Q561 98 609 111T703 149T795 209T885 287V1079H1028V0H885V170Q846 132 801 97T704 36T595 -7T475 -23Z"/><glyph unicode="v" horiz-adv-x="1042" d="M53 1079H205L524 168H528L846 1079H989L592 -4H451L53 1079Z"/><glyph unicode="w" horiz-adv-x="1530" d="M55 1079H203L354 545Q369 494 381 450T405 362T429 275T455 178H459Q474 236 485 281T508 367T530 451T557 545L705 1079H834L983 535Q998 485 1009 443T1031 360T1053 275T1077 178H1081Q1096 233 1107 276T1130 360T1153 440T1180 530L1337 1079H1475L1143 0H1012L768 887H764L516 0H387L55 1079Z"/><glyph unicode="x" horiz-adv-x="1047" d="M451 559L90 1079H248L528 664L809 1079H963L600 559L987 0H831L522 453L215 0H63L451 559Z"/><glyph unicode="y" horiz-adv-x="1079" d="M201 -414Q139 -414 97 -407T23 -391L55 -274Q78 -281 114 -286T205 -291Q249 -291 282 -281T342 -251T389 -200T426 -125L471 -6L53 1079H205L541 168H545L879 1079H1026L561 -125Q534 -197 504 -251T432 -341T335 -396T201 -414Z"/><glyph unicode="z" horiz-adv-x="1036" d="M84 90L741 961H137V1079H920V987L262 117H948V0H84V90Z"/><glyph unicode="{" horiz-adv-x="778" d="M565 -410Q424 -410 362 -338T299 -131V254Q299 329 285 377T243 452T172 490T72 500V606Q129 606 172 616T243 653T285 729T299 852V1237Q299 1304 314 1356T361 1443T444 1497T565 1516H692V1407H602Q519 1407 481 1368T442 1249V846Q442 771 431 721T397 639T342 588T268 555V551Q310 537 342 518T396 467T430 385T442 260V-143Q442 -222 480 -261T602 -301H692V-410H565V-410Z"/><glyph unicode="|" horiz-adv-x="707" d="M285 1516H422V-410H285V1516Z"/><glyph unicode="}" horiz-adv-x="778" d="M86 -301H176Q260 -301 298 -262T336 -143V266Q336 341 347 390T381 470T436 519T510 551V555Q468 569 436 587T382 636T348 716T336 840V1249Q336 1328 302 1370T184 1413H94L86 1516H219Q290 1516 339 1499T420 1447T465 1361T479 1243V852Q479 777 493 729T535 654T606 616T707 606V500Q649 500 607 490T536 453T493 377T479 254V-137Q479 -204 465 -255T420 -340T340 -392T219 -410H86V-301Z"/><glyph unicode="~" horiz-adv-x="1303" d="M934 549Q902 551 853 562T748 589T633 623T520 657T423 684T356 698Q310 703 280 683T244 602L147 614Q157 729 217 779T369 823Q401 821 450 810T555 782T670 748T783 714T878 687T944 674Q992 671 1023 691T1059 770L1157 762Q1145 645 1085 594T934 549Z"/><glyph unicode=" " horiz-adv-x="463"/><glyph unicode="¡" horiz-adv-x="641" d="M276 1102H360L408 0H231L276 1102ZM229 1516H408V1325H229V1516Z"/><glyph unicode="¢" horiz-adv-x="1090" d="M352 35Q297 66 251 114T172 227T121 369T102 539Q102 683 143 789T252 964T406 1066T584 1100Q599 1100 614 1100T643 1098L700 1307H799L735 1077Q785 1059 825 1031T897 968T953 892T997 805L881 752Q849 832 804 885T696 961L467 115Q492 105 519 101T575 96Q631 96 676 109T758 151T828 224T889 328L999 279Q967 210 927 155T834 60T717 -1T569 -23Q502 -23 438 -2L367 -264H268L352 35ZM614 979Q606 981 597 981T580 981Q520 981 460 958T350 884T271 748T240 541Q240 403 280 307T389 156L614 979Z"/><glyph unicode="£" horiz-adv-x="1247" d="M178 741V854H377Q358 890 340 926T309 999T287 1077T279 1161Q279 1245 305 1315T382 1436T505 1515T670 1544Q774 1544 847 1512T968 1426T1040 1304T1071 1163L934 1147Q930 1205 914 1255T866 1341T785 1398T668 1419Q547 1419 484 1351T420 1163Q420 1122 429 1083T453 1006T487 931T528 854H881V741H586Q614 678 632 609T651 455Q651 390 643 335T618 229Q648 204 678 180T739 136T804 106T874 94Q922 94 956 110T1012 161T1047 248T1065 373H1194Q1191 287 1174 214T1119 86T1025 2T883 -29Q835 -29 793 -16T711 20T637 70T567 129Q519 52 449 12T285 -29Q245 -29 205 -17T134 21T83 85T63 174Q63 225 79 267T125 339T199 386T297 403Q359 403 410 379T512 317Q517 345 518 377T520 444Q520 530 496 602T438 741H178ZM479 207Q434 247 389 274T295 301Q239 301 207 268T174 178Q174 127 207 100T291 72Q356 72 403 105T479 207Z"/><glyph unicode="¥" horiz-adv-x="1262" d="M557 258H166V373H557V567H166V682H553L53 1516H211L635 799L1055 1516H1208L707 682H1098V567H702V373H1098V258H702V0H557V258Z"/><glyph unicode="¦" horiz-adv-x="707" d="M285 1516H422V678H285V1516ZM285 428H422V-410H285V428Z"/><glyph unicode="§" horiz-adv-x="1085" d="M545 -410Q450 -410 382 -387T265 -323T189 -228T145 -111L266 -74Q280 -125 301 -166T355 -235T433 -278T539 -293Q601 -293 643 -278T712 -237T750 -178T762 -109Q762 -73 751 -41T712 24T635 93T510 174Q402 237 327 286T203 383T133 482T111 598Q111 660 135 712T197 806T281 879T373 934Q315 974 277 1010T217 1082T185 1155T176 1237Q176 1295 200 1350T272 1449T387 1518T541 1544Q639 1544 709 1521T828 1457T904 1362T948 1245L825 1206Q811 1257 789 1298T733 1367T654 1411T547 1427Q485 1427 441 1412T369 1371T328 1312T315 1243Q315 1207 327 1175T369 1110T449 1041T575 961Q683 898 758 849T881 752T951 653T973 537Q973 475 950 423T889 328T806 254T715 199Q772 158 808 122T865 51T893 -21T901 -102Q901 -161 878 -216T809 -314T698 -384T545 -410ZM614 264Q724 312 783 376T842 522Q842 565 828 599T775 670T669 750T498 856Q491 859 484 863T469 870Q366 824 305 759T244 612Q244 569 258 535T311 465T416 385T588 279Q594 275 601 271T614 264Z"/><glyph unicode="¨" horiz-adv-x="1036" d="M618 1362H776V1194H618V1362ZM258 1362H416V1194H258V1362Z"/><glyph unicode="©" horiz-adv-x="1767" d="M883 -29Q719 -29 577 32T329 201T163 451T102 758Q102 867 129 967T208 1155T330 1314T488 1437T675 1516T885 1544Q994 1544 1094 1516T1281 1437T1438 1315T1559 1156T1637 968T1665 758Q1665 649 1638 549T1560 361T1438 201T1280 78T1093 -1T883 -29ZM885 55Q1030 55 1156 110T1375 260T1521 484T1575 758Q1575 855 1551 944T1482 1112T1374 1254T1235 1364T1069 1435T883 1460Q786 1460 698 1435T532 1365T393 1255T286 1113T217 945T193 758Q193 661 217 572T286 404T394 262T533 151T699 80T885 55ZM879 319Q798 319 732 351T620 443T548 586T522 772Q522 869 547 951T619 1092T732 1185T881 1219Q1011 1219 1088 1146T1200 944L1106 920Q1091 971 1071 1010T1024 1074T962 1113T881 1126Q822 1126 775 1101T695 1029T643 918T625 774Q625 689 643 622T694 508T775 437T883 412Q974 412 1031 465T1116 629Q1139 622 1159 617Q1176 612 1191 609T1212 604Q1177 468 1094 394T879 319Z"/><glyph unicode="ª" horiz-adv-x="850" d="M326 756Q220 756 162 806T104 948Q104 1004 130 1052T216 1141T374 1212T616 1266V1300Q616 1373 579 1410T471 1448Q383 1448 318 1418T195 1331L127 1397Q162 1431 199 1457T280 1503T372 1532T479 1542Q606 1542 667 1477T729 1298V961Q729 894 734 850T756 772H635Q627 797 623 821T616 874Q551 819 479 788T326 756ZM348 850Q427 850 493 883T616 969V1188Q496 1169 419 1145T296 1092T234 1030T217 961Q217 907 252 879T348 850Z"/><glyph unicode="«" horiz-adv-x="1069" d="M92 541L395 1079H543L246 541L543 0H395L92 541ZM498 541L803 1079H948L649 541L948 0H803L498 541Z"/><glyph unicode="®" horiz-adv-x="1120" d="M561 596Q461 596 375 633T224 734T123 886T86 1073Q86 1172 123 1259T224 1410T375 1512T561 1550Q660 1550 746 1513T896 1412T997 1260T1034 1073Q1034 973 997 886T897 735T747 633T561 596ZM561 657Q647 657 722 689T852 778T939 910T971 1073Q971 1159 939 1235T852 1367T721 1456T561 1489Q475 1489 401 1457T271 1368T184 1235T152 1073Q152 986 183 911T270 779T400 690T561 657ZM385 1346H569Q659 1346 707 1308T756 1198Q756 1133 725 1100T641 1055L770 817H692L567 1044H459V817H385V1346ZM565 1106Q621 1106 652 1125T684 1196Q684 1242 652 1261T563 1280H459V1106H565Z"/><glyph unicode="¯" horiz-adv-x="1024" d="M254 1315H770V1194H254V1315Z"/><glyph unicode="°" horiz-adv-x="825" d="M412 971Q350 971 298 992T206 1052T145 1142T123 1257Q123 1319 145 1371T206 1462T297 1522T412 1544Q474 1544 527 1523T619 1463T680 1372T702 1257Q702 1195 680 1143T619 1052T527 993T412 971ZM412 1063Q452 1063 486 1077T545 1117T584 1178T598 1257Q598 1300 584 1335T546 1396T487 1436T412 1450Q372 1450 338 1436T280 1397T241 1336T227 1257Q227 1214 241 1179T279 1118T338 1078T412 1063Z"/><glyph unicode="±" horiz-adv-x="1305" d="M135 221H592V666H135V786H592V1247H717V786H1171V666H717V221H1171V102H135V221Z"/><glyph unicode="²" horiz-adv-x="913" d="M137 610Q137 662 151 712T200 813T296 918T451 1032Q501 1063 536 1090T593 1144T625 1200T635 1264Q635 1336 593 1380T467 1425Q396 1425 344 1386T248 1260L150 1315Q205 1427 285 1481T471 1536Q538 1536 591 1516T682 1461T738 1376T758 1268Q758 1220 745 1178T703 1097T626 1019T508 938Q395 867 340 804T274 684H762V571H137V610Z"/><glyph unicode="³" horiz-adv-x="913" d="M453 553Q347 553 261 603T117 750L205 815Q257 730 319 697T451 664Q548 664 599 712T651 836Q651 882 637 917T591 976T506 1012T379 1024H326V1122H385Q517 1122 575 1162T633 1282Q633 1313 623 1339T592 1384T538 1414T459 1425Q394 1425 340 1395T240 1307L156 1376Q216 1451 291 1493T463 1536Q541 1536 596 1516T688 1461T741 1382T758 1290Q758 1213 719 1157T598 1075Q694 1046 736 987T778 836Q778 775 756 724T691 634T588 575T453 553Z"/><glyph unicode="´" horiz-adv-x="1024" d="M541 1513H727L438 1194H346L541 1513Z"/><glyph unicode="µ" horiz-adv-x="1200" d="M164 1079H305V324Q305 209 356 154T520 98Q624 98 714 148T897 285V1079H1038V0H897V176Q856 137 812 103T720 42T620 -1T510 -18Q444 -20 392 -5T305 53V-410H164V1079Z"/><glyph unicode="¶" horiz-adv-x="1268" d="M625 690Q383 694 255 797T127 1100Q127 1189 157 1265T247 1397T394 1484T596 1516H1079V-410H958V1395H745V-410H625V690Z"/><glyph unicode="·" horiz-adv-x="551" d="M186 748H367V555H186V748Z"/><glyph unicode="¸" horiz-adv-x="1024" d="M514 -399Q445 -399 380 -379T260 -324L297 -264Q343 -295 394 -310T498 -326Q579 -326 615 -301T651 -229Q651 -156 565 -156Q531 -156 506 -168T459 -197L399 -170L453 0H539L506 -111Q528 -97 554 -89T618 -80Q646 -80 672 -89T718 -115T750 -158T762 -219Q762 -267 742 -301T689 -356T610 -388T514 -399Z"/><glyph unicode="¹" horiz-adv-x="715" d="M162 678H336V1386Q301 1369 255 1361T164 1352V1456Q226 1458 271 1471T346 1516H459V678H616V569H162V678Z"/><glyph unicode="º" horiz-adv-x="879" d="M438 756Q367 756 304 782T194 858T118 981T90 1149Q90 1245 118 1318T193 1441T304 1516T438 1542Q510 1542 573 1517T684 1442T760 1319T788 1149Q788 1054 760 981T685 858T574 782T438 756ZM438 848Q495 848 539 871T614 934T660 1030T676 1149Q676 1209 661 1263T616 1359T542 1425T438 1450Q383 1450 340 1427T266 1364T219 1268T203 1149Q203 1089 217 1035T261 939T335 873T438 848Z"/><glyph unicode="»" horiz-adv-x="1069" d="M823 541L526 1079H672L977 541L672 0H526L823 541ZM418 541L119 1079H266L571 541L266 0H119L418 541Z"/><glyph unicode="¼" horiz-adv-x="1915" d="M199 680H371V1376Q336 1362 292 1354T203 1346V1456Q266 1458 311 1471T385 1516H496V680H649V569H199V680ZM1509 227H1073V309L1497 948H1634V338H1788V227H1634V0H1509V227ZM1370 1516H1503L596 0H463L1370 1516ZM1513 334V784L1217 334H1513Z"/><glyph unicode="½" horiz-adv-x="1995" d="M1217 41Q1217 92 1230 141T1279 242T1375 347T1530 461Q1578 492 1612 519T1668 573T1701 629T1712 694Q1712 765 1670 809T1544 854Q1473 854 1422 815T1325 688L1227 743Q1282 856 1362 910T1548 965Q1616 965 1669 946T1759 891T1815 806T1835 696Q1835 648 1823 607T1781 526T1704 449T1587 367Q1476 297 1420 233T1354 113H1841V0H1217V41ZM1370 1516H1503L596 0H463L1370 1516ZM199 680H371V1376Q336 1362 292 1354T203 1346V1456Q266 1458 311 1471T385 1516H496V680H649V569H199V680Z"/><glyph unicode="¾" horiz-adv-x="1970" d="M453 553Q347 553 261 603T117 750L205 815Q257 730 319 697T451 664Q548 664 599 712T651 836Q651 882 637 917T591 976T506 1012T379 1024H326V1122H385Q517 1122 575 1162T633 1282Q633 1313 623 1339T592 1384T538 1414T459 1425Q394 1425 340 1395T240 1307L156 1376Q216 1451 291 1493T463 1536Q541 1536 596 1516T688 1461T741 1382T758 1290Q758 1213 719 1157T598 1075Q694 1046 736 987T778 836Q778 775 756 724T691 634T588 575T453 553ZM1565 227H1128V309L1552 948H1690V338H1843V227H1690V0H1565V227ZM1425 1516H1559L651 0H520L1425 1516ZM1569 334V784L1270 334H1569Z"/><glyph unicode="¿" horiz-adv-x="1104" d="M547 -29Q447 -29 366 -2T227 74T138 191T106 340Q106 415 126 471T182 572T265 652T369 719Q433 756 469 789T524 864T546 963T551 1104H666Q672 1042 672 969Q672 915 662 871T631 789T574 719T487 657Q426 619 382 588T308 523T264 448T250 348Q250 291 271 245T331 167T427 117T555 100Q620 100 673 115T771 158T853 224T922 307L1024 229Q982 174 934 127T829 45T702 -9T547 -29ZM520 1516H698V1325H520V1516Z"/><glyph unicode="À" horiz-adv-x="1378" d="M610 1522H768L1305 0H1153L991 467H377L215 0H74L610 1522ZM946 596L686 1350H682L422 596H946ZM356 1929H542L737 1610H645L356 1929Z"/><glyph unicode="Á" horiz-adv-x="1378" d="M610 1522H768L1305 0H1153L991 467H377L215 0H74L610 1522ZM946 596L686 1350H682L422 596H946ZM836 1929H1022L733 1610H641L836 1929Z"/><glyph unicode="Â" horiz-adv-x="1378" d="M610 1522H768L1305 0H1153L991 467H377L215 0H74L610 1522ZM946 596L686 1350H682L422 596H946ZM633 1929H739L1004 1604H914L684 1805L455 1604H369L633 1929Z"/><glyph unicode="Ã" horiz-adv-x="1378" d="M610 1522H768L1305 0H1153L991 467H377L215 0H74L610 1522ZM946 596L686 1350H682L422 596H946ZM840 1604Q797 1604 756 1622T677 1661T605 1701T539 1719Q492 1719 474 1694T455 1608H365Q365 1726 408 1779T537 1833Q580 1833 620 1815T699 1776T773 1737T840 1719Q885 1719 904 1744T924 1829H1014Q1014 1714 970 1659T840 1604Z"/><glyph unicode="Ä" horiz-adv-x="1378" d="M610 1522H768L1305 0H1153L991 467H377L215 0H74L610 1522ZM946 596L686 1350H682L422 596H946ZM786 1778H944V1610H786V1778ZM426 1778H584V1610H426V1778Z"/><glyph unicode="Å" horiz-adv-x="1378" d="M1305 0H1153L991 467H377L215 0H74L596 1479Q551 1502 527 1544T502 1640Q502 1680 516 1714T554 1774T613 1813T688 1827Q728 1827 762 1813T821 1774T860 1715T874 1640Q874 1586 849 1545T782 1481L1305 0ZM946 596L686 1350H682L422 596H946ZM688 1526Q736 1526 766 1557T797 1640Q797 1690 767 1722T688 1755Q640 1755 609 1723T578 1640Q578 1589 609 1558T688 1526Z"/><glyph unicode="Æ" horiz-adv-x="2040" d="M918 1516H1903V1380H1143V866H1710V735H1143V133H1946V0H997V485H477L203 0H55L918 1516ZM997 614V1399H995L553 614H997Z"/><glyph unicode="Ç" horiz-adv-x="1432" d="M752 -399Q682 -399 617 -379T498 -324L535 -264Q581 -295 632 -310T735 -326Q816 -326 851 -301T887 -229Q887 -156 803 -156Q769 -156 743 -168T694 -197L637 -170L682 -27Q554 -13 450 49T273 214T161 456T121 764Q121 935 166 1078T294 1325T493 1486T752 1544Q867 1544 957 1511T1114 1418T1227 1272T1300 1081L1161 1047Q1136 1137 1101 1206T1017 1322T903 1393T750 1417Q640 1417 551 1371T398 1239T301 1034T266 768Q266 610 301 486T399 275T553 142T754 96Q923 96 1029 196T1186 487L1325 457Q1298 346 1249 258T1130 107T969 9T768 -29L743 -111Q765 -97 792 -89T854 -80Q883 -80 909 -89T956 -115T987 -158T999 -219Q999 -267 980 -301T926 -356T848 -388T752 -399Z"/><glyph unicode="È" horiz-adv-x="1237" d="M195 1516H1100V1380H340V866H907V735H340V133H1143V0H195V1516ZM356 1929H542L737 1610H645L356 1929Z"/><glyph unicode="É" horiz-adv-x="1237" d="M195 1516H1100V1380H340V866H907V735H340V133H1143V0H195V1516ZM752 1929H938L649 1610H557L752 1929Z"/><glyph unicode="Ê" horiz-adv-x="1237" d="M195 1516H1100V1380H340V866H907V735H340V133H1143V0H195V1516ZM592 1929H698L963 1604H873L643 1805L414 1604H328L592 1929Z"/><glyph unicode="Ë" horiz-adv-x="1237" d="M195 1516H1100V1380H340V866H907V735H340V133H1143V0H195V1516ZM755 1778H913V1610H755V1778ZM395 1778H553V1610H395V1778Z"/><glyph unicode="Ì" horiz-adv-x="575" d="M215 1516H360V0H215V1516ZM-30 1929H156L351 1610H259L-30 1929Z"/><glyph unicode="Í" horiz-adv-x="575" d="M215 1516H360V0H215V1516ZM440 1929H626L337 1610H245L440 1929Z"/><glyph unicode="Î" horiz-adv-x="575" d="M215 1516H360V0H215V1516ZM234 1929H340L605 1604H515L285 1805L56 1604H-30L234 1929Z"/><glyph unicode="Ï" horiz-adv-x="575" d="M215 1516H360V0H215V1516ZM388 1778H546V1610H388V1778ZM28 1778H186V1610H28V1778Z"/><glyph unicode="Ð" horiz-adv-x="1452" d="M195 737H25V860H195V1516H578Q948 1516 1139 1325T1331 758Q1331 571 1282 430T1138 193T902 49T578 0H195V737ZM600 131Q741 131 850 167T1033 281T1147 477T1186 760Q1186 920 1147 1037T1033 1230T847 1343T596 1380H340V860H668V737H340V131H600Z"/><glyph unicode="Ñ" horiz-adv-x="1522" d="M195 1516H350L1186 266H1190V1516H1327V0H1198L336 1288H332V0H195V1516ZM932 1604Q889 1604 848 1622T769 1661T697 1701T631 1719Q584 1719 566 1694T547 1608H457Q457 1726 500 1779T629 1833Q672 1833 712 1815T791 1776T865 1737T932 1719Q977 1719 996 1744T1016 1829H1106Q1106 1714 1062 1659T932 1604Z"/><glyph unicode="Ò" horiz-adv-x="1520" d="M760 -29Q621 -29 504 27T301 186T169 434T121 758Q121 936 168 1081T301 1329T503 1488T760 1544Q899 1544 1016 1488T1218 1329T1351 1081T1399 758Q1399 580 1351 435T1218 186T1016 27T760 -29ZM760 102Q868 102 958 146T1114 275T1216 481T1253 758Q1253 912 1217 1033T1115 1239T959 1367T760 1411Q652 1411 562 1367T406 1239T303 1034T266 758Q266 603 303 482T405 276T561 147T760 102ZM442 1929H628L823 1610H731L442 1929Z"/><glyph unicode="Ó" horiz-adv-x="1520" d="M760 -29Q621 -29 504 27T301 186T169 434T121 758Q121 936 168 1081T301 1329T503 1488T760 1544Q899 1544 1016 1488T1218 1329T1351 1081T1399 758Q1399 580 1351 435T1218 186T1016 27T760 -29ZM760 102Q868 102 958 146T1114 275T1216 481T1253 758Q1253 912 1217 1033T1115 1239T959 1367T760 1411Q652 1411 562 1367T406 1239T303 1034T266 758Q266 603 303 482T405 276T561 147T760 102ZM881 1929H1067L778 1610H686L881 1929Z"/><glyph unicode="Ô" horiz-adv-x="1520" d="M760 -29Q621 -29 504 27T301 186T169 434T121 758Q121 936 168 1081T301 1329T503 1488T760 1544Q899 1544 1016 1488T1218 1329T1351 1081T1399 758Q1399 580 1351 435T1218 186T1016 27T760 -29ZM760 102Q868 102 958 146T1114 275T1216 481T1253 758Q1253 912 1217 1033T1115 1239T959 1367T760 1411Q652 1411 562 1367T406 1239T303 1034T266 758Q266 603 303 482T405 276T561 147T760 102ZM705 1929H811L1076 1604H986L756 1805L527 1604H441L705 1929Z"/><glyph unicode="Õ" horiz-adv-x="1520" d="M760 -29Q621 -29 504 27T301 186T169 434T121 758Q121 936 168 1081T301 1329T503 1488T760 1544Q899 1544 1016 1488T1218 1329T1351 1081T1399 758Q1399 580 1351 435T1218 186T1016 27T760 -29ZM760 102Q868 102 958 146T1114 275T1216 481T1253 758Q1253 912 1217 1033T1115 1239T959 1367T760 1411Q652 1411 562 1367T406 1239T303 1034T266 758Q266 603 303 482T405 276T561 147T760 102ZM908 1604Q865 1604 824 1622T745 1661T673 1701T607 1719Q560 1719 542 1694T523 1608H433Q433 1726 476 1779T605 1833Q648 1833 688 1815T767 1776T841 1737T908 1719Q953 1719 972 1744T992 1829H1082Q1082 1714 1038 1659T908 1604Z"/><glyph unicode="Ö" horiz-adv-x="1520" d="M760 -29Q621 -29 504 27T301 186T169 434T121 758Q121 936 168 1081T301 1329T503 1488T760 1544Q899 1544 1016 1488T1218 1329T1351 1081T1399 758Q1399 580 1351 435T1218 186T1016 27T760 -29ZM760 102Q868 102 958 146T1114 275T1216 481T1253 758Q1253 912 1217 1033T1115 1239T959 1367T760 1411Q652 1411 562 1367T406 1239T303 1034T266 758Q266 603 303 482T405 276T561 147T760 102ZM858 1778H1016V1610H858V1778ZM498 1778H656V1610H498V1778Z"/><glyph unicode="×" horiz-adv-x="1303" d="M213 297L565 647L213 1001L297 1085L649 731L1001 1085L1087 1001L733 649L1087 297L1004 213L649 565L297 211L213 297Z"/><glyph unicode="Ø" horiz-adv-x="1520" d="M1241 1300Q1316 1198 1357 1062T1399 758Q1399 580 1351 435T1218 186T1016 27T760 -29Q639 -29 536 14T350 135L217 -37L131 25L276 215Q202 317 162 454T121 758Q121 936 168 1081T301 1329T503 1488T760 1544Q881 1544 984 1502T1169 1380L1303 1552L1389 1491L1241 1300ZM1090 1270Q1023 1341 940 1378T760 1415Q652 1415 561 1371T404 1242T301 1035T264 758Q264 624 292 516T371 326L1090 1270ZM430 246Q493 175 577 138T760 100Q868 100 958 144T1114 273T1216 480T1253 758Q1253 891 1227 998T1151 1188L430 246Z"/><glyph unicode="Ù" horiz-adv-x="1464" d="M731 -27Q591 -27 488 15T316 129T214 300T180 512V1516H326V537Q326 444 350 365T424 228T550 137T733 104Q838 104 915 135T1041 224T1115 359T1139 532V1516H1284V516Q1284 403 1250 304T1146 132T973 16T731 -27ZM428 1929H614L809 1610H717L428 1929Z"/><glyph unicode="Ú" horiz-adv-x="1464" d="M731 -27Q591 -27 488 15T316 129T214 300T180 512V1516H326V537Q326 444 350 365T424 228T550 137T733 104Q838 104 915 135T1041 224T1115 359T1139 532V1516H1284V516Q1284 403 1250 304T1146 132T973 16T731 -27ZM834 1929H1020L731 1610H639L834 1929Z"/><glyph unicode="Û" horiz-adv-x="1464" d="M731 -27Q591 -27 488 15T316 129T214 300T180 512V1516H326V537Q326 444 350 365T424 228T550 137T733 104Q838 104 915 135T1041 224T1115 359T1139 532V1516H1284V516Q1284 403 1250 304T1146 132T973 16T731 -27ZM678 1929H784L1049 1604H959L729 1805L500 1604H414L678 1929Z"/><glyph unicode="Ü" horiz-adv-x="1464" d="M731 -27Q591 -27 488 15T316 129T214 300T180 512V1516H326V537Q326 444 350 365T424 228T550 137T733 104Q838 104 915 135T1041 224T1115 359T1139 532V1516H1284V516Q1284 403 1250 304T1146 132T973 16T731 -27ZM831 1778H989V1610H831V1778ZM471 1778H629V1610H471V1778Z"/><glyph unicode="Ý" horiz-adv-x="1266" d="M559 668L51 1516H209L635 793L1059 1516H1214L705 668V0H559V668ZM662 1947H848L559 1628H467L662 1947Z"/><glyph unicode="Þ" horiz-adv-x="1325" d="M195 1516H340V1229H696Q820 1228 918 1203T1086 1125T1192 996T1229 813Q1229 699 1189 617T1075 483T902 406T682 381H340V0H195V1516ZM690 512Q784 512 857 527T980 578T1055 670T1081 809Q1081 886 1056 940T981 1028T858 1078T688 1094H340V512H690Z"/><glyph unicode="ß" horiz-adv-x="1255" d="M756 -23Q648 -23 571 11T446 96L530 184Q552 163 576 146T627 118T686 100T758 94Q815 94 863 116T945 181T999 283T1018 420Q1018 517 986 584T891 695T739 760T535 786V895Q626 896 692 917T800 973T863 1056T883 1159Q883 1216 863 1260T806 1334T716 1379T598 1395Q456 1395 381 1312T305 1065V0H164V1057Q164 1167 194 1252T281 1396T419 1485T602 1516Q696 1516 772 1493T903 1425T988 1315T1018 1165Q1018 1050 950 967T756 850Q837 838 909 809T1035 729T1121 604T1153 426Q1153 324 1126 241T1047 100T922 9T756 -23Z"/><glyph unicode="à" horiz-adv-x="1120" d="M403 -18Q258 -18 178 53T98 252Q98 332 135 401T258 527T483 628T829 705V760Q829 872 773 926T610 981Q546 981 491 968T387 933T294 879T207 811L131 899Q179 944 232 981T345 1044T474 1085T623 1100Q713 1100 778 1077T886 1009T949 901T969 756V266Q969 167 975 105T999 0H854Q843 34 836 70T829 154Q735 69 630 26T403 -18ZM434 98Q549 98 647 143T829 268V604Q656 575 542 539T361 461T266 371T238 270Q238 185 290 142T434 98ZM538 1513H724L919 1194H827L538 1513Z"/><glyph unicode="á" horiz-adv-x="1120" d="M403 -18Q258 -18 178 53T98 252Q98 332 135 401T258 527T483 628T829 705V760Q829 872 773 926T610 981Q546 981 491 968T387 933T294 879T207 811L131 899Q179 944 232 981T345 1044T474 1085T623 1100Q713 1100 778 1077T886 1009T949 901T969 756V266Q969 167 975 105T999 0H854Q843 34 836 70T829 154Q735 69 630 26T403 -18ZM434 98Q549 98 647 143T829 268V604Q656 575 542 539T361 461T266 371T238 270Q238 185 290 142T434 98ZM693 1513H879L590 1194H498L693 1513Z"/><glyph unicode="â" horiz-adv-x="1120" d="M403 -18Q258 -18 178 53T98 252Q98 332 135 401T258 527T483 628T829 705V760Q829 872 773 926T610 981Q546 981 491 968T387 933T294 879T207 811L131 899Q179 944 232 981T345 1044T474 1085T623 1100Q713 1100 778 1077T886 1009T949 901T969 756V266Q969 167 975 105T999 0H854Q843 34 836 70T829 154Q735 69 630 26T403 -18ZM434 98Q549 98 647 143T829 268V604Q656 575 542 539T361 461T266 371T238 270Q238 185 290 142T434 98ZM522 1513H628L893 1188H803L573 1389L344 1188H258L522 1513Z"/><glyph unicode="ã" horiz-adv-x="1120" d="M403 -18Q258 -18 178 53T98 252Q98 332 135 401T258 527T483 628T829 705V760Q829 872 773 926T610 981Q546 981 491 968T387 933T294 879T207 811L131 899Q179 944 232 981T345 1044T474 1085T623 1100Q713 1100 778 1077T886 1009T949 901T969 756V266Q969 167 975 105T999 0H854Q843 34 836 70T829 154Q735 69 630 26T403 -18ZM434 98Q549 98 647 143T829 268V604Q656 575 542 539T361 461T266 371T238 270Q238 185 290 142T434 98ZM721 1188Q678 1188 637 1206T558 1245T486 1285T420 1303Q373 1303 355 1278T336 1192H246Q246 1310 289 1363T418 1417Q461 1417 501 1399T580 1360T654 1321T721 1303Q766 1303 785 1328T805 1413H895Q895 1298 851 1243T721 1188Z"/><glyph unicode="ä" horiz-adv-x="1120" d="M403 -18Q258 -18 178 53T98 252Q98 332 135 401T258 527T483 628T829 705V760Q829 872 773 926T610 981Q546 981 491 968T387 933T294 879T207 811L131 899Q179 944 232 981T345 1044T474 1085T623 1100Q713 1100 778 1077T886 1009T949 901T969 756V266Q969 167 975 105T999 0H854Q843 34 836 70T829 154Q735 69 630 26T403 -18ZM434 98Q549 98 647 143T829 268V604Q656 575 542 539T361 461T266 371T238 270Q238 185 290 142T434 98ZM686 1362H844V1194H686V1362ZM326 1362H484V1194H326V1362Z"/><glyph unicode="å" horiz-adv-x="1120" d="M403 -18Q258 -18 178 53T98 252Q98 332 135 401T258 527T483 628T829 705V760Q829 872 773 926T610 981Q546 981 491 968T387 933T294 879T207 811L131 899Q179 944 232 981T345 1044T474 1085T623 1100Q713 1100 778 1077T886 1009T949 901T969 756V266Q969 167 975 105T999 0H854Q843 34 836 70T829 154Q735 69 630 26T403 -18ZM434 98Q549 98 647 143T829 268V604Q656 575 542 539T361 461T266 371T238 270Q238 185 290 142T434 98ZM588 1180Q547 1180 513 1194T454 1233T416 1292T402 1366Q402 1406 415 1440T454 1499T513 1538T588 1552Q629 1552 663 1538T722 1499T760 1440T774 1366Q774 1326 761 1292T722 1233T663 1194T588 1180ZM588 1251Q636 1251 666 1283T697 1366Q697 1416 667 1448T588 1481Q540 1481 510 1449T479 1366Q479 1315 509 1283T588 1251Z"/><glyph unicode="æ" horiz-adv-x="1831" d="M403 -23Q331 -23 275 -5T179 49T119 134T98 248Q98 328 134 397T255 525T479 628T825 705V760Q825 872 771 926T610 981Q545 981 490 968T386 933T293 879T207 811L131 899Q179 944 232 981T345 1044T473 1085T621 1100Q692 1100 745 1084T835 1039T894 969T928 879Q953 927 990 967T1073 1037T1173 1083T1288 1100Q1382 1100 1463 1064T1603 958T1695 782T1729 539V516H958Q959 415 986 337T1058 205T1165 124T1298 96Q1358 96 1406 109T1493 147T1566 208T1630 293L1720 223Q1684 166 1641 121T1545 43T1429 -6T1288 -23Q1228 -23 1171 -9T1064 35T970 108T895 211Q842 157 787 114T670 41T543 -6T403 -23ZM434 94Q550 94 654 145T858 301Q841 349 832 405T823 524Q823 547 824 568T825 604Q652 575 539 539T359 459T265 367T238 264Q238 181 289 138T434 94ZM1589 625Q1584 701 1563 766T1505 879T1413 954T1286 981Q1229 981 1175 960T1076 894T1002 783T961 625H1589Z"/><glyph unicode="ç" horiz-adv-x="1092" d="M567 -399Q498 -399 433 -379T313 -324L350 -264Q444 -326 551 -326Q631 -326 666 -301T702 -229Q702 -156 618 -156Q584 -156 558 -168T510 -197L453 -170L500 -16Q418 -4 346 38T219 152T134 320T102 539Q102 684 143 790T252 965T406 1067T584 1100Q671 1100 736 1076T851 1012T936 918T997 805L877 752Q854 809 826 852T762 925T682 970T580 985Q520 985 460 961T352 884T274 747T244 541Q244 435 269 351T339 209T443 121T575 90Q631 90 676 104T758 149T825 223T885 328L999 279Q967 212 929 158T840 64T728 3T586 -20L559 -111Q581 -97 608 -89T670 -80Q699 -80 725 -89T772 -115T803 -158T815 -219Q815 -267 795 -301T742 -356T663 -388T567 -399Z"/><glyph unicode="è" horiz-adv-x="1118" d="M575 -23Q481 -23 396 13T245 120T141 297T102 541Q102 685 144 790T253 964T405 1066T575 1100Q669 1100 750 1064T890 958T982 782T1016 539V512H244Q245 412 272 335T345 204T452 124T584 96Q644 96 692 109T781 147T855 208T920 293L1008 223Q972 166 929 121T833 43T716 -6T575 -23ZM879 625Q873 701 852 766T793 879T700 954T573 981Q515 981 460 960T361 894T287 783T246 625H879ZM509 1513H695L890 1194H798L509 1513Z"/><glyph unicode="é" horiz-adv-x="1118" d="M575 -23Q481 -23 396 13T245 120T141 297T102 541Q102 685 144 790T253 964T405 1066T575 1100Q669 1100 750 1064T890 958T982 782T1016 539V512H244Q245 412 272 335T345 204T452 124T584 96Q644 96 692 109T781 147T855 208T920 293L1008 223Q972 166 929 121T833 43T716 -6T575 -23ZM879 625Q873 701 852 766T793 879T700 954T573 981Q515 981 460 960T361 894T287 783T246 625H879ZM697 1513H883L594 1194H502L697 1513Z"/><glyph unicode="ê" horiz-adv-x="1118" d="M575 -23Q481 -23 396 13T245 120T141 297T102 541Q102 685 144 790T253 964T405 1066T575 1100Q669 1100 750 1064T890 958T982 782T1016 539V512H244Q245 412 272 335T345 204T452 124T584 96Q644 96 692 109T781 147T855 208T920 293L1008 223Q972 166 929 121T833 43T716 -6T575 -23ZM879 625Q873 701 852 766T793 879T700 954T573 981Q515 981 460 960T361 894T287 783T246 625H879ZM520 1513H626L891 1188H801L571 1389L342 1188H256L520 1513Z"/><glyph unicode="ë" horiz-adv-x="1118" d="M575 -23Q481 -23 396 13T245 120T141 297T102 541Q102 685 144 790T253 964T405 1066T575 1100Q669 1100 750 1064T890 958T982 782T1016 539V512H244Q245 412 272 335T345 204T452 124T584 96Q644 96 692 109T781 147T855 208T920 293L1008 223Q972 166 929 121T833 43T716 -6T575 -23ZM879 625Q873 701 852 766T793 879T700 954T573 981Q515 981 460 960T361 894T287 783T246 625H879ZM667 1362H825V1194H667V1362ZM307 1362H465V1194H307V1362Z"/><glyph unicode="ì" horiz-adv-x="492" d="M176 1079H317V0H176V1079ZM-67 1513H119L314 1194H222L-67 1513Z"/><glyph unicode="í" horiz-adv-x="492" d="M176 1079H317V0H176V1079ZM405 1513H591L302 1194H210L405 1513Z"/><glyph unicode="î" horiz-adv-x="492" d="M176 1079H317V0H176V1079ZM194 1513H300L565 1188H475L245 1389L16 1188H-70L194 1513Z"/><glyph unicode="ï" horiz-adv-x="492" d="M176 1079H317V0H176V1079ZM347 1362H505V1194H347V1362ZM-13 1362H145V1194H-13V1362Z"/><glyph unicode="ð" horiz-adv-x="1182" d="M592 -23Q488 -23 399 15T243 125T140 298T102 528Q102 657 139 756T239 924T389 1028T575 1063Q627 1063 676 1049T770 1010T852 951T918 874Q895 967 852 1059T729 1237L506 1153L463 1251L651 1321Q616 1353 578 1381T494 1438L563 1530Q620 1498 673 1460T774 1376L979 1454L1022 1356L852 1290Q904 1226 946 1150T1017 981T1063 778T1079 537Q1079 408 1042 305T939 128T784 16T592 -23ZM592 96Q672 96 736 128T845 217T914 354T938 530Q938 619 915 695T847 827T738 914T592 946Q511 946 447 917T337 833T268 701T244 530Q244 441 266 362T333 224T442 131T592 96Z"/><glyph unicode="ñ" horiz-adv-x="1190" d="M164 1079H305V909Q344 948 389 982T486 1043T595 1084T717 1100Q877 1100 957 1016T1038 780V0H897V754Q897 868 845 923T682 979Q578 979 487 929T305 791V0H164V1079ZM760 1188Q717 1188 676 1206T597 1245T525 1285T459 1303Q412 1303 394 1278T375 1192H285Q285 1310 328 1363T457 1417Q500 1417 540 1399T619 1360T693 1321T760 1303Q805 1303 824 1328T844 1413H934Q934 1298 890 1243T760 1188Z"/><glyph unicode="ò" horiz-adv-x="1182" d="M592 -23Q493 -23 404 14T248 123T142 299T102 539Q102 674 141 778T247 954T403 1063T592 1100Q691 1100 779 1063T934 955T1040 779T1079 539Q1079 404 1040 300T935 124T780 15T592 -23ZM592 98Q673 98 737 130T846 222T914 362T938 541Q938 629 916 708T851 848T742 943T592 979Q510 979 446 947T336 856T268 717T244 541Q244 451 265 371T330 230T439 134T592 98ZM531 1513H717L912 1194H820L531 1513Z"/><glyph unicode="ó" horiz-adv-x="1182" d="M592 -23Q493 -23 404 14T248 123T142 299T102 539Q102 674 141 778T247 954T403 1063T592 1100Q691 1100 779 1063T934 955T1040 779T1079 539Q1079 404 1040 300T935 124T780 15T592 -23ZM592 98Q673 98 737 130T846 222T914 362T938 541Q938 629 916 708T851 848T742 943T592 979Q510 979 446 947T336 856T268 717T244 541Q244 451 265 371T330 230T439 134T592 98ZM713 1513H899L610 1194H518L713 1513Z"/><glyph unicode="ô" horiz-adv-x="1182" d="M592 -23Q493 -23 404 14T248 123T142 299T102 539Q102 674 141 778T247 954T403 1063T592 1100Q691 1100 779 1063T934 955T1040 779T1079 539Q1079 404 1040 300T935 124T780 15T592 -23ZM592 98Q673 98 737 130T846 222T914 362T938 541Q938 629 916 708T851 848T742 943T592 979Q510 979 446 947T336 856T268 717T244 541Q244 451 265 371T330 230T439 134T592 98ZM537 1513H643L908 1188H818L588 1389L359 1188H273L537 1513Z"/><glyph unicode="õ" horiz-adv-x="1182" d="M592 -23Q493 -23 404 14T248 123T142 299T102 539Q102 674 141 778T247 954T403 1063T592 1100Q691 1100 779 1063T934 955T1040 779T1079 539Q1079 404 1040 300T935 124T780 15T592 -23ZM592 98Q673 98 737 130T846 222T914 362T938 541Q938 629 916 708T851 848T742 943T592 979Q510 979 446 947T336 856T268 717T244 541Q244 451 265 371T330 230T439 134T592 98ZM746 1188Q703 1188 662 1206T583 1245T511 1285T445 1303Q398 1303 380 1278T361 1192H271Q271 1310 314 1363T443 1417Q486 1417 526 1399T605 1360T679 1321T746 1303Q791 1303 810 1328T830 1413H920Q920 1298 876 1243T746 1188Z"/><glyph unicode="ö" horiz-adv-x="1182" d="M592 -23Q493 -23 404 14T248 123T142 299T102 539Q102 674 141 778T247 954T403 1063T592 1100Q691 1100 779 1063T934 955T1040 779T1079 539Q1079 404 1040 300T935 124T780 15T592 -23ZM592 98Q673 98 737 130T846 222T914 362T938 541Q938 629 916 708T851 848T742 943T592 979Q510 979 446 947T336 856T268 717T244 541Q244 451 265 371T330 230T439 134T592 98ZM688 1362H846V1194H688V1362ZM328 1362H486V1194H328V1362Z"/><glyph unicode="÷" horiz-adv-x="1303" d="M135 735H1169V612H135V735ZM561 397H733V221H561V397ZM561 1124H733V948H561V1124Z"/><glyph unicode="ø" horiz-adv-x="1182" d="M950 940Q1010 868 1044 768T1079 539Q1079 404 1040 300T935 124T780 15T592 -23Q511 -23 439 1T307 70L203 -68L127 -8L236 137Q173 209 138 310T102 539Q102 674 141 778T247 954T403 1063T592 1100Q670 1100 742 1077T877 1008L979 1147L1059 1083L950 940ZM803 905Q761 942 708 961T592 981Q510 981 445 948T335 857T266 717T242 541Q242 456 261 379T322 242L803 905ZM381 172Q421 135 473 115T592 94Q673 94 737 127T847 220T916 361T940 541Q940 622 920 697T862 831L381 172Z"/><glyph unicode="ù" horiz-adv-x="1190" d="M475 -23Q314 -23 234 62T154 299V1079H295V324Q295 209 346 154T510 98Q561 98 609 111T703 149T795 209T885 287V1079H1028V0H885V170Q846 132 801 97T704 36T595 -7T475 -23ZM542 1513H728L923 1194H831L542 1513Z"/><glyph unicode="ú" horiz-adv-x="1190" d="M475 -23Q314 -23 234 62T154 299V1079H295V324Q295 209 346 154T510 98Q561 98 609 111T703 149T795 209T885 287V1079H1028V0H885V170Q846 132 801 97T704 36T595 -7T475 -23ZM713 1513H899L610 1194H518L713 1513Z"/><glyph unicode="û" horiz-adv-x="1190" d="M475 -23Q314 -23 234 62T154 299V1079H295V324Q295 209 346 154T510 98Q561 98 609 111T703 149T795 209T885 287V1079H1028V0H885V170Q846 132 801 97T704 36T595 -7T475 -23ZM537 1513H643L908 1188H818L588 1389L359 1188H273L537 1513Z"/><glyph unicode="ü" horiz-adv-x="1190" d="M475 -23Q314 -23 234 62T154 299V1079H295V324Q295 209 346 154T510 98Q561 98 609 111T703 149T795 209T885 287V1079H1028V0H885V170Q846 132 801 97T704 36T595 -7T475 -23ZM694 1362H852V1194H694V1362ZM334 1362H492V1194H334V1362Z"/><glyph unicode="ý" horiz-adv-x="1079" d="M201 -414Q139 -414 97 -407T23 -391L55 -274Q78 -281 114 -286T205 -291Q249 -291 282 -281T342 -251T389 -200T426 -125L471 -6L53 1079H205L541 168H545L879 1079H1026L561 -125Q534 -197 504 -251T432 -341T335 -396T201 -414ZM570 1513H756L467 1194H375L570 1513Z"/><glyph unicode="þ" horiz-adv-x="1214" d="M164 1516H305V926Q337 960 375 991T457 1047T553 1085T666 1100Q759 1100 840 1066T981 962T1075 787T1110 541Q1110 400 1075 295T979 121T834 17T653 -18Q549 -18 463 27T305 147V-410H164V1516ZM641 100Q712 100 772 125T876 204T944 341T969 539Q969 651 943 734T873 871T768 952T641 979Q591 979 547 967T462 931T383 874T305 801V276Q386 191 466 146T641 100Z"/><glyph unicode="ÿ" horiz-adv-x="1079" d="M201 -414Q139 -414 97 -407T23 -391L55 -274Q78 -281 114 -286T205 -291Q249 -291 282 -281T342 -251T389 -200T426 -125L471 -6L53 1079H205L541 168H545L879 1079H1026L561 -125Q534 -197 504 -251T432 -341T335 -396T201 -414ZM643 1362H801V1194H643V1362ZM283 1362H441V1194H283V1362Z"/><glyph unicode="ı" horiz-adv-x="492" d="M176 1079H317V0H176V1079Z"/><glyph unicode="Ŀ" horiz-adv-x="1171" d="M766 897H934V731H766V897ZM195 1516H340V133H1081V0H195V1516Z"/><glyph unicode="ŀ" horiz-adv-x="682" d="M504 739H670V573H504V739ZM176 1516H317V0H176V1516Z"/><glyph unicode="Œ" horiz-adv-x="2292" d="M760 -29Q622 -29 505 27T303 186T169 434T121 758Q121 936 169 1081T302 1329T505 1488T760 1544Q848 1544 924 1521T1063 1456T1175 1355T1260 1225V1516H2154V1380H1395V866H1962V735H1395V133H2198V0H1260V295Q1225 223 1176 164T1063 62T924 -5T760 -29ZM760 102Q866 102 956 146T1112 275T1214 481T1251 758Q1251 912 1214 1033T1112 1239T957 1367T760 1411Q652 1411 562 1367T406 1239T303 1034T266 758Q266 603 303 482T405 276T561 147T760 102Z"/><glyph unicode="œ" horiz-adv-x="1937" d="M588 -23Q489 -23 401 14T246 123T141 299T102 539Q102 674 140 778T245 954T399 1063T588 1100Q661 1100 725 1079T841 1021T934 931T999 815Q1024 877 1064 929T1156 1020T1269 1079T1399 1100Q1493 1100 1572 1064T1710 958T1802 782T1835 539V516H1067Q1068 415 1095 337T1167 205T1274 124T1405 96Q1466 96 1514 109T1601 147T1673 208T1737 293L1827 223Q1791 166 1748 121T1653 43T1537 -6T1397 -23Q1330 -23 1269 -2T1155 56T1062 146T997 260Q971 198 931 146T839 57T724 -2T588 -23ZM588 98Q669 98 733 130T841 222T909 362T932 541Q932 629 911 708T846 848T739 943T588 979Q507 979 443 947T335 856T267 717T244 541Q244 451 265 371T329 230T436 134T588 98ZM1696 625Q1690 701 1670 766T1612 879T1521 954T1395 981Q1336 981 1282 960T1184 894T1110 783T1071 625H1696Z"/><glyph unicode="Š" horiz-adv-x="1329" d="M676 -29Q569 -29 479 -1T317 79T196 206T119 373L248 420Q299 261 410 181T682 100Q767 100 836 119T955 173T1030 260T1057 375Q1057 434 1040 480T979 565T857 640T659 715Q537 753 445 791T292 879T199 995T168 1155Q168 1236 202 1307T299 1430T448 1513T639 1544Q746 1544 830 1518T979 1446T1087 1336T1159 1196L1036 1139Q980 1286 880 1349T637 1413Q561 1413 501 1394T398 1342T334 1263T311 1165Q311 1101 332 1056T401 975T530 907T731 836Q849 798 937 758T1085 665T1173 545T1202 385Q1202 290 1163 214T1053 83T886 0T676 -29ZM344 1956H434L663 1755L895 1956H981L716 1630H608L344 1956Z"/><glyph unicode="š" horiz-adv-x="1036" d="M512 -20Q440 -20 376 -6T259 34T162 95T88 172L178 254Q240 183 321 141T514 98Q653 98 724 147T795 287Q795 332 779 364T726 420T634 464T498 502Q405 525 335 550T218 612T147 697T123 817Q123 875 147 926T218 1016T333 1077T489 1100Q558 1100 616 1089T722 1058T812 1008T889 944L809 850Q747 912 670 947T494 983Q431 983 387 970T314 934T273 883T260 823Q260 784 274 756T320 705T401 666T522 631Q624 606 700 580T828 515T906 422T932 289Q932 215 901 158T814 61T681 1T512 -20ZM456 1522H546L775 1321L1007 1522H1093L828 1196H720L456 1522Z"/><glyph unicode="Ÿ" horiz-adv-x="1266" d="M559 668L51 1516H209L635 793L1059 1516H1214L705 668V0H559V668ZM733 1778H891V1610H733V1778ZM373 1778H531V1610H373V1778Z"/><glyph unicode="Ž" horiz-adv-x="1276" d="M86 104L995 1393H145V1516H1171V1409L266 123H1171V0H86V104ZM320 1956H410L639 1755L871 1956H957L692 1630H584L320 1956Z"/><glyph unicode="ž" horiz-adv-x="1036" d="M84 90L741 961H137V1079H920V987L262 117H948V0H84V90ZM456 1522H546L775 1321L1007 1522H1093L828 1196H720L456 1522Z"/><glyph unicode="ƒ" horiz-adv-x="682" d="M-178 -293Q-167 -295 -148 -296T-111 -297Q-29 -297 26 -260T92 -135L231 850H43L57 965H246L283 1241Q301 1381 386 1449T633 1518Q651 1518 675 1517T713 1513L694 1399Q683 1401 664 1401T627 1401Q588 1401 553 1393T491 1367T447 1319T424 1245L387 965H625L610 850H373L233 -141Q213 -278 129 -345T-115 -412Q-135 -412 -159 -411T-197 -408L-178 -293Z"/><glyph unicode="ˆ" horiz-adv-x="1044" d="M469 1513H575L840 1188H750L520 1389L291 1188H205L469 1513Z"/><glyph unicode="ˇ" horiz-adv-x="1044" d="M203 1522H293L522 1321L754 1522H840L575 1196H467L203 1522Z"/><glyph unicode="˙" horiz-adv-x="1024" d="M426 1364H598V1200H426V1364Z"/><glyph unicode="˚" horiz-adv-x="1106" d="M553 1180Q512 1180 478 1194T419 1233T381 1292T367 1366Q367 1406 380 1440T419 1499T478 1538T553 1552Q594 1552 628 1538T687 1499T725 1440T739 1366Q739 1326 726 1292T687 1233T628 1194T553 1180ZM553 1251Q601 1251 631 1283T662 1366Q662 1416 632 1448T553 1481Q505 1481 475 1449T444 1366Q444 1315 474 1283T553 1251Z"/><glyph unicode="˜" horiz-adv-x="1032" d="M668 1188Q625 1188 584 1206T505 1245T433 1285T367 1303Q320 1303 302 1278T283 1192H193Q193 1310 236 1363T365 1417Q408 1417 448 1399T527 1360T601 1321T668 1303Q713 1303 732 1328T752 1413H842Q842 1298 798 1243T668 1188Z"/><glyph unicode="μ" horiz-adv-x="1200" d="M164 1079H305V324Q305 209 356 154T520 98Q624 98 714 148T897 285V1079H1038V0H897V176Q856 137 812 103T720 42T620 -1T510 -18Q444 -20 392 -5T305 53V-410H164V1079Z"/><glyph unicode=" " horiz-adv-x="666"/><glyph unicode="‒" horiz-adv-x="1331" d="M145 645L883 707L1186 639L449 578L145 645Z"/><glyph unicode="–" horiz-adv-x="1317" d="M137 707H1180V578H137V707Z"/><glyph unicode="—" horiz-adv-x="1892" d="M137 707H1755V578H137V707Z"/><glyph unicode="―" horiz-adv-x="2048" d="M0 707H2048V578H0V707Z"/><glyph unicode="‘" horiz-adv-x="549" d="M186 1292L281 1516H346L297 1309H362V1116H186V1292Z"/><glyph unicode="’" horiz-adv-x="549" d="M252 1323H186V1516H362V1337L268 1116H203L252 1323Z"/><glyph unicode="‚" horiz-adv-x="549" d="M252 0H186V193H362V14L268 -207H203L252 0Z"/><glyph unicode="“" horiz-adv-x="928" d="M186 1292L281 1516H346L297 1309H362V1116H186V1292ZM565 1292L659 1516H725L676 1309H739V1116H565V1292Z"/><glyph unicode="”" horiz-adv-x="928" d="M252 1323H186V1516H362V1337L268 1116H203L252 1323ZM631 1323H565V1516H739V1337L645 1116H580L631 1323Z"/><glyph unicode="„" horiz-adv-x="928" d="M252 0H186V193H362V14L268 -207H203L252 0ZM631 0H565V193H739V14L645 -207H580L631 0Z"/><glyph unicode="†" horiz-adv-x="1139" d="M518 866L100 846V983L518 961L492 1516H647L621 961L1038 983V846L621 866L647 -410H492L518 866Z"/><glyph unicode="‡" horiz-adv-x="1139" d="M518 80L117 57V193L518 170L500 557L518 938L117 915V1051L518 1028L492 1516H647L621 1028L1022 1051V915L621 938L639 557L621 170L1022 193V57L621 80L647 -410H492L518 80Z"/><glyph unicode="•" horiz-adv-x="948" d="M473 477Q421 477 377 495T301 545T251 621T233 717Q233 770 251 814T301 890T377 940T473 958Q526 958 570 940T647 890T697 814T715 717Q715 665 697 621T647 545T571 495T473 477Z"/><glyph unicode="…" horiz-adv-x="1647" d="M1284 193H1462V0H1284V193ZM735 193H913V0H735V193ZM186 193H362V0H186V193Z"/><glyph unicode="‰" horiz-adv-x="2824" d="M2355 -20Q2274 -20 2211 13T2104 105T2038 247T2015 430Q2015 535 2039 620T2109 765T2217 857T2359 889Q2437 889 2500 857T2606 766T2673 624T2697 436Q2697 337 2674 254T2607 109T2500 14T2355 -20ZM467 627Q385 627 322 660T215 752T150 894T127 1077Q127 1182 151 1267T219 1413T327 1505T469 1538Q547 1538 610 1506T716 1415T783 1272T807 1085Q807 985 784 901T718 756T611 661T467 627ZM1520 -20Q1437 -20 1374 13T1268 105T1202 247T1180 430Q1180 535 1204 620T1272 765T1380 857T1522 889Q1600 889 1663 857T1769 766T1836 624T1860 436Q1860 337 1837 254T1771 109T1664 14T1520 -20ZM1520 92Q1571 92 1610 118T1676 191T1715 299T1729 434Q1729 511 1716 574T1676 682T1610 751T1520 776Q1467 776 1428 750T1362 679T1323 571T1309 436Q1309 359 1322 296T1362 187T1428 117T1520 92ZM2357 92Q2408 92 2447 118T2513 191T2552 299T2566 434Q2566 511 2553 574T2512 682T2446 751T2355 776Q2304 776 2265 750T2199 679T2160 571T2146 436Q2146 359 2159 296T2200 187T2266 117T2357 92ZM469 741Q520 741 559 767T624 839T664 947T678 1081Q678 1158 664 1221T623 1329T557 1398T467 1423Q416 1423 377 1397T310 1326T270 1219T256 1085Q256 1008 270 945T311 836T378 766T469 741ZM1380 1516H1511L606 0H475L1380 1516Z"/><glyph unicode="‹" horiz-adv-x="664" d="M92 541L395 1079H543L246 541L543 0H395L92 541Z"/><glyph unicode="›" horiz-adv-x="664" d="M418 541L119 1079H266L571 541L266 0H119L418 541Z"/><glyph unicode="⁄" horiz-adv-x="954" d="M852 1516H985L102 0H-31L852 1516Z"/><glyph unicode="⁰" horiz-adv-x="967" d="M485 553Q398 553 331 587T219 684T150 838T127 1040Q127 1151 150 1241T218 1396T331 1496T485 1532Q570 1532 636 1497T748 1397T816 1242T840 1040Q840 928 817 838T748 685T637 587T485 553ZM485 657Q597 657 658 753T719 1040Q719 1132 703 1204T656 1325T583 1401T485 1427Q428 1427 384 1401T309 1326T264 1204T248 1040Q248 850 311 754T485 657Z"/><glyph unicode="⁴" horiz-adv-x="897" d="M547 797H113V877L537 1516H666V903H819V797H666V569H547V797ZM549 901V1352L252 901H549Z"/><glyph unicode="⁵" horiz-adv-x="872" d="M426 553Q318 553 237 603T102 735L184 803Q228 737 287 696T428 655Q482 655 523 673T591 722T631 793T645 877Q645 930 630 970T589 1038T527 1080T449 1094Q415 1094 388 1088T338 1069T296 1037T258 991L156 1030L188 1516H711L702 1407H291L270 1116Q296 1150 344 1172T471 1194Q532 1194 585 1173T678 1112T741 1014T764 881Q764 806 741 745T673 642T567 576T426 553Z"/><glyph unicode="⁶" horiz-adv-x="909" d="M473 553Q399 553 336 581T227 668T154 817T127 1030Q127 1143 152 1235T226 1394T345 1496T504 1532Q595 1532 662 1505T774 1436L711 1350Q686 1368 664 1383T617 1408T564 1424T502 1430Q381 1430 315 1334T244 1059Q267 1083 293 1104T351 1141T419 1166T500 1176Q577 1176 634 1154T728 1091T784 996T803 874Q803 806 781 747T715 645T611 578T473 553ZM475 655Q569 655 625 712T682 872Q682 917 671 954T635 1019T573 1060T483 1075Q411 1075 352 1038T250 944Q257 869 277 815T327 725T395 672T475 655Z"/><glyph unicode="⁷" horiz-adv-x="829" d="M584 1405H117V1516H717V1421L326 569H199L584 1405Z"/><glyph unicode="⁸" horiz-adv-x="903" d="M451 553Q368 553 304 572T195 626T128 706T104 805Q104 853 119 891T164 961T236 1019T332 1069Q288 1090 254 1112T196 1161T160 1221T147 1296Q147 1342 167 1384T227 1460T322 1512T451 1532Q524 1532 581 1512T677 1459T736 1384T756 1296Q756 1255 743 1224T704 1166T642 1118T561 1075Q616 1050 660 1024T735 965T782 894T799 805Q799 753 776 707T708 627T599 573T451 553ZM451 649Q501 649 542 660T613 693T659 743T676 809Q676 845 660 875T613 931T538 980T438 1026Q381 1000 340 977T273 928T235 873T223 809Q223 774 240 745T287 694T359 661T451 649ZM457 1120Q504 1141 538 1159T594 1196T628 1237T639 1290Q639 1317 628 1343T594 1389T536 1421T453 1434Q407 1434 372 1422T314 1391T278 1346T266 1294Q266 1263 277 1240T311 1198T370 1160T457 1120Z"/><glyph unicode="⁹" horiz-adv-x="909" d="M406 553Q315 553 248 580T135 649L199 735Q223 716 246 702T293 677T345 662T408 657Q528 657 594 751T666 1026Q643 1002 617 981T559 943T490 917T410 907Q333 907 276 930T181 993T125 1089T106 1210Q106 1279 128 1338T194 1440T298 1507T436 1532Q510 1532 573 1504T684 1417T757 1269T784 1057Q784 944 758 851T682 692T563 590T406 553ZM426 1010Q498 1010 557 1047T659 1141Q652 1215 632 1269T582 1359T514 1412T434 1430Q340 1430 284 1373T227 1212Q227 1167 238 1130T274 1066T336 1025T426 1010Z"/><glyph unicode="₀" horiz-adv-x="967" d="M485 -425Q398 -425 331 -391T219 -294T150 -140T127 62Q127 173 150 263T218 418T331 518T485 554Q570 554 636 519T748 419T816 264T840 62Q840 -50 817 -140T748 -293T637 -391T485 -425ZM485 -321Q597 -321 658 -225T719 62Q719 154 703 226T656 347T583 423T485 449Q428 449 384 423T309 348T264 226T248 62Q248 -128 311 -224T485 -321Z"/><glyph unicode="₁" horiz-adv-x="729" d="M159 -300H333V408Q298 391 252 383T161 374V478Q223 480 268 493T343 538H456V-300H613V-409H159V-300Z"/><glyph unicode="₂" horiz-adv-x="913" d="M137 -368Q137 -316 151 -266T200 -165T296 -60T451 54Q501 85 536 112T593 166T625 222T635 286Q635 358 593 402T467 447Q396 447 344 408T248 282L150 337Q205 449 285 503T471 558Q538 558 591 538T682 483T738 398T758 290Q758 242 745 200T703 119T626 41T508 -40Q395 -111 340 -174T274 -294H762V-407H137V-368Z"/><glyph unicode="₃" horiz-adv-x="913" d="M453 -425Q347 -425 261 -375T117 -228L205 -163Q257 -248 319 -281T451 -314Q548 -314 599 -266T651 -142Q651 -96 637 -61T591 -2T506 34T379 46H326V144H385Q517 144 575 184T633 304Q633 335 623 361T592 406T538 436T459 447Q394 447 340 417T240 329L156 398Q216 473 291 515T463 558Q541 558 596 538T688 483T741 404T758 312Q758 235 719 179T598 97Q694 68 736 9T778 -142Q778 -203 756 -254T691 -344T588 -403T453 -425Z"/><glyph unicode="₄" horiz-adv-x="897" d="M547 -181H113V-101L537 538H666V-75H819V-181H666V-409H547V-181ZM549 -77V374L252 -77H549Z"/><glyph unicode="₅" horiz-adv-x="872" d="M426 -425Q318 -425 237 -375T102 -243L184 -175Q228 -241 287 -282T428 -323Q482 -323 523 -305T591 -256T631 -185T645 -101Q645 -48 630 -8T589 60T527 102T449 116Q415 116 388 110T338 91T296 59T258 13L156 52L188 538H711L702 429H291L270 138Q296 172 344 194T471 216Q532 216 585 195T678 134T741 36T764 -97Q764 -172 741 -233T673 -336T567 -402T426 -425Z"/><glyph unicode="₆" horiz-adv-x="909" d="M473 -425Q399 -425 336 -397T227 -310T154 -161T127 52Q127 165 152 257T226 416T345 518T504 554Q595 554 662 527T774 458L711 372Q686 390 664 405T617 430T564 446T502 452Q381 452 315 356T244 81Q267 105 293 126T351 163T419 188T500 198Q577 198 634 176T728 113T784 18T803 -104Q803 -172 781 -231T715 -333T611 -400T473 -425ZM475 -323Q569 -323 625 -266T682 -106Q682 -61 671 -24T635 41T573 82T483 97Q411 97 352 60T250 -34Q257 -109 277 -163T327 -253T395 -306T475 -323Z"/><glyph unicode="₇" horiz-adv-x="829" d="M584 427H117V538H717V443L326 -409H199L584 427Z"/><glyph unicode="₈" horiz-adv-x="903" d="M451 -425Q368 -425 304 -406T195 -352T128 -272T104 -173Q104 -125 119 -87T164 -17T236 41T332 91Q288 112 254 134T196 183T160 243T147 318Q147 364 167 406T227 482T322 534T451 554Q524 554 581 534T677 481T736 406T756 318Q756 277 743 246T704 188T642 140T561 97Q616 72 660 46T735 -13T782 -84T799 -173Q799 -225 776 -271T708 -351T599 -405T451 -425ZM451 -329Q501 -329 542 -318T613 -285T659 -235T676 -169Q676 -133 660 -103T613 -47T538 2T438 48Q381 22 340 -1T273 -50T235 -105T223 -169Q223 -204 240 -233T287 -284T359 -317T451 -329ZM457 142Q504 163 538 181T594 218T628 259T639 312Q639 339 628 365T594 411T536 443T453 456Q407 456 372 444T314 413T278 368T266 316Q266 285 277 262T311 220T370 182T457 142Z"/><glyph unicode="₉" horiz-adv-x="909" d="M406 -425Q315 -425 248 -398T135 -329L199 -243Q223 -262 246 -276T293 -301T345 -316T408 -321Q528 -321 594 -227T666 48Q643 24 617 3T559 -35T490 -61T410 -71Q333 -71 276 -48T181 15T125 111T106 232Q106 301 128 360T194 462T298 529T436 554Q510 554 573 526T684 439T757 291T784 79Q784 -34 758 -127T682 -286T563 -388T406 -425ZM426 32Q498 32 557 69T659 163Q652 237 632 291T582 381T514 434T434 452Q340 452 284 395T227 234Q227 189 238 152T274 88T336 47T426 32Z"/><glyph unicode="€" horiz-adv-x="1468" d="M43 854V967H301Q323 1117 376 1225T503 1405T668 1510T854 1544Q959 1544 1037 1513T1174 1424T1271 1288T1335 1112L1202 1073Q1179 1154 1153 1217T1087 1325T991 1392T852 1415Q778 1415 711 1389T590 1307T498 1168T442 967H907V854H430Q428 834 428 814T428 774Q428 743 429 714T432 659H907V543H444Q478 322 584 210T856 98Q934 98 992 122T1095 192T1170 305T1225 461L1358 426Q1331 325 1288 241T1182 97T1039 4T854 -29Q750 -29 660 5T497 111T375 289T303 543H43V659H291Q289 684 288 711T287 766Q287 789 288 810T289 854H43Z"/><glyph unicode="™" horiz-adv-x="1794" d="M862 1516H1004L1264 793L1528 1516H1671V649H1561V1329L1309 649H1217L965 1329V649H862V1516ZM332 1419H61V1516H709V1419H440V649H332V1419Z"/><glyph unicode="" horiz-adv-x="1556" d="M326 360V487L391 483L406 705L20 678V834L406 809L391 1034L326 1030V1155L385 1151L381 1210H508L504 1145L727 1133L700 1516H856L831 1133L1055 1145L1051 1210H1176L1171 1151L1233 1155V1030L1165 1032L1153 809L1536 834V678L1153 705L1165 483L1233 487V360L1171 365L1176 303H1051L1055 371L831 385L856 0H700L727 385L504 371L508 303H381L385 365L326 360ZM727 1051L498 1038L487 809H727V1051ZM831 1051V809H1071L1059 1038L831 1051ZM831 467L1059 477L1071 705H831V467ZM727 467V705H487L500 479L727 467Z"/><glyph unicode="ﬀ" horiz-adv-x="1280" d="M244 958H55V1079H244V1241Q244 1378 321 1448T547 1518Q567 1518 589 1517T625 1513V1395Q612 1398 592 1398T555 1399Q478 1399 432 1363T385 1243V1079H844V1237Q844 1374 921 1446T1155 1518Q1174 1518 1198 1517T1235 1513V1395Q1223 1397 1202 1398T1163 1399Q1125 1399 1093 1391T1036 1365T999 1317T985 1243V1079H1223V958H985V0H844V958H385V0H244V958Z"/><glyph unicode="ﬁ" horiz-adv-x="1176" d="M244 958H55V1079H244V1241Q244 1378 321 1448T547 1518Q565 1518 588 1517T625 1513V1395Q612 1397 592 1398T555 1399Q478 1399 432 1362T385 1243V1079H614V958H385V0H244V958ZM844 1079H985V0H844V1079ZM840 1481H989V1327H840V1481Z"/><glyph unicode="ﬂ" horiz-adv-x="1176" d="M244 958H55V1079H244V1241Q244 1378 321 1448T547 1518Q565 1518 588 1517T625 1513V1395Q612 1397 592 1398T555 1399Q478 1399 432 1362T385 1243V1079H614V958H385V0H244V958ZM844 1516H985V0H844V1516Z"/><glyph unicode="ﬃ" horiz-adv-x="1759" d="M244 958H55V1079H244V1241Q244 1378 321 1448T547 1518Q567 1518 589 1517T625 1513V1395Q612 1397 592 1398T555 1399Q478 1399 432 1362T385 1243V1079H844V1237Q844 1374 922 1446T1147 1518Q1165 1518 1188 1517T1225 1513V1395Q1212 1397 1193 1398T1157 1399Q1079 1399 1032 1362T985 1243V1079H1214V958H985V0H844V958H385V0H244V958ZM1444 1079H1585V0H1444V1079ZM1440 1481H1589V1327H1440V1481Z"/><glyph unicode="ﬄ" horiz-adv-x="1759" d="M244 958H55V1079H244V1241Q244 1378 321 1448T547 1518Q567 1518 589 1517T625 1513V1395Q612 1397 592 1398T555 1399Q478 1399 432 1362T385 1243V1079H844V1237Q844 1374 922 1446T1147 1518Q1165 1518 1188 1517T1225 1513V1395Q1212 1397 1193 1398T1157 1399Q1079 1399 1032 1362T985 1243V1079H1214V958H985V0H844V958H385V0H244V958ZM1444 1513H1585V0H1444V1513Z"/></font>
</defs>
</svg>
