<?xml version="1.0" standalone="no"?>
<!DOCTYPE svg PUBLIC "-//W3C//DTD SVG 1.1//EN" "http://www.w3.org/Graphics/SVG/1.1/DTD/svg11.dtd" >
<svg xmlns="http://www.w3.org/2000/svg">
<metadata>
This is a custom SVG webfont generated by Font Squirrel.
Copyright   : Typeface  Sean Johnson 2008
</metadata>
<defs>
<font id="SeanRegular" horiz-adv-x="1805" >
<font-face units-per-em="2048" ascent="1638" descent="-410" />
<missing-glyph horiz-adv-x="625" />
<glyph unicode=" "  horiz-adv-x="625" />
<glyph unicode="&#x09;" horiz-adv-x="625" />
<glyph unicode="&#xa0;" horiz-adv-x="625" />
<glyph unicode="!" horiz-adv-x="569" d="M100 -54q0 93 68 104l64 10q70 0 101 -57q11 -24 11 -47q0 -96 -142 -126h-51q-51 38 -51 95v21zM114 474v64q0 94 54 606q23 292 23 460v91l-6 210q63 66 118 74l54 14l78 -68v-193q0 -205 -54 -1035q-8 -332 -44 -332q-49 -50 -105 -57h-24q-94 18 -94 166z" />
<glyph unicode="&#x22;" horiz-adv-x="615" d="M0 1314q31 150 31 185v3q0 54 -31 308v34q0 140 167 140h7q65 -80 65 -284v-24l-13 -393q-52 -106 -120 -106h-24q-82 23 -82 137zM379 1659v34q0 222 69 260q34 21 75 21q63 -4 72 -24q10 -161 10 -287v-34q-6 -356 -31 -356q-72 -51 -92 -51q-82 0 -103 437z" />
<glyph unicode="#" horiz-adv-x="1395" d="M20 774v16q0 73 120 140q106 20 240 20l8 260h-8l-220 -12q-140 7 -140 68v16q0 64 100 132q53 28 236 28h48l16 292q41 28 68 28h20q59 0 128 -100v-16l-4 -208l264 -12l20 308q35 28 64 28h20q69 0 128 -104v-120l-4 -128l260 -12q28 -36 28 -64v-32q0 -56 -104 -120 h-96l-100 4l-12 -268q292 -13 292 -24l20 -48v-32q0 -57 -96 -124h-212v-4l8 -188q-7 -128 -64 -128h-24q-70 0 -136 120q-20 94 -20 212l-260 12v-4l12 -196q-9 -144 -64 -144h-24q-75 0 -140 124q-16 86 -16 188v28l-4 4v4l-20 -4l-192 -8h-20q-116 11 -116 56zM608 946 l16 -4l248 -8l12 260l-4 4h-4l-256 12z" />
<glyph unicode="$" horiz-adv-x="1865" d="M0 984v36l8 76v28q177 145 476 180l200 16l56 360q34 100 84 140q26 20 40 20h44q53 0 100 -76l-32 -408l-4 -4q178 -31 224 -84l16 -24v-4q-103 -136 -128 -136l-20 -4l-48 8q-28 -9 -28 -52l16 -208q161 -60 524 -160q207 -62 360 -208v-4q-53 -190 -176 -284 q-185 -116 -260 -116q-96 -32 -376 -56l-4 -24q0 -65 48 -264q-64 -112 -148 -112h-12q-67 0 -144 64q-28 103 -60 344l-20 -4h-92q-297 0 -476 164q-52 64 -52 128q0 78 72 180h52q7 0 32 40q0 -8 60 -20v-32q0 -154 252 -208q60 -16 140 -16h4l4 20v36q0 186 -36 376 q-52 0 -388 112q-300 130 -308 180zM460 1032q32 0 188 -60l40 -4v4l-12 108q-212 -19 -212 -44h-4v-4zM1028 524l20 -268h4q275 0 492 132v4q-97 30 -380 144l-132 36z" />
<glyph unicode="%" horiz-adv-x="2025" d="M0 2q0 63 252 220q144 102 564 520l540 528q250 282 360 360q115 81 236 120q23 0 36 -172q8 0 8 -28q-906 -907 -1208 -1172l-576 -488q-46 -20 -68 -20q-98 0 -144 100v32zM252 1510q13 220 76 220q51 20 68 20h12l28 -8q43 76 120 76h12q106 0 272 -136 q16 -43 24 -136q0 -236 -212 -388h-8q-65 12 -116 12h-104q-84 0 -100 36q-72 137 -72 304zM464 1470q13 -13 36 -68q124 20 124 80l4 28v16q0 44 -36 44q-54 0 -128 -100zM1116 158l40 228v44q140 136 280 136h80q188 -200 188 -272v-48q0 -139 -100 -276q-77 -60 -188 -60 q-208 0 -288 172q-12 41 -12 76zM1332 282q0 -72 88 -92h8q24 16 24 40v16q0 100 -24 100h-32q-55 0 -64 -60v-4z" />
<glyph unicode="&#x26;" horiz-adv-x="1366" d="M0 384q0 248 324 372v4q-71 9 -256 176v16q0 269 312 364l152 36q37 404 148 404h28q69 0 80 -108l4 -32q-8 -119 -32 -232q66 -22 300 -80q88 -41 88 -76v-40q0 -81 -108 -92h-44q-53 0 -228 36q-24 -42 -24 -72l4 -120q73 0 160 -84l-8 -92l8 -36q-40 0 -92 -60 q-15 -12 -36 -12h-20q-12 -42 -12 -84v-32q0 -65 12 -120h12q120 0 364 88q92 13 92 44q11 0 16 60v28l8 8h12l64 -16l16 4q40 -46 40 -108v-16q0 -217 -480 -320l-120 -12v-4q0 -42 40 -300v-20q0 -78 -76 -92q-15 0 -36 -24h-16l-44 40q-5 -28 -12 -28q-66 83 -84 236 q-24 192 -60 192q-193 19 -308 68q-107 48 -188 136zM308 476l180 -32h32v56q-3 64 -16 64q-151 -29 -192 -80l-4 -4v-4zM356 1036q86 -48 152 -48v76q0 32 -16 32q-82 0 -136 -60z" />
<glyph unicode="'" horiz-adv-x="305" d="M0 1870q54 102 163 102h15q83 0 83 -61l4 -189v-53q0 -333 -140 -424q-51 -23 -91 -23q-14 26 -19 243l4 106q-4 186 -19 299z" />
<glyph unicode="(" horiz-adv-x="765" d="M0 644v40q0 330 236 708q217 304 436 304h36q40 0 40 -76q0 -165 -252 -328q-156 -122 -156 -236q-96 -256 -96 -344v-28q0 -367 476 -740v-12q0 -146 -116 -188l-44 -4q-146 0 -364 364q-196 261 -196 540z" />
<glyph unicode=")" horiz-adv-x="765" d="M0 1436v28q0 116 104 164l32 8h24q151 0 428 -436q156 -212 156 -492v-16q0 -319 -176 -640q-239 -372 -504 -372h-12q-28 15 -28 80q16 168 52 168q162 97 332 340q0 48 80 300l12 92v28q0 372 -488 732z" />
<glyph unicode="*" horiz-adv-x="875" d="M0 1482q0 81 80 124l40 12q75 -36 148 -36q40 0 40 24l8 64l-8 196q0 94 80 116h36q36 -43 72 -156q44 -180 44 -208l248 36h4q19 0 32 -48v-8q0 -96 -32 -96q-46 -31 -172 -64q27 -61 180 -164l60 -60q-35 -104 -56 -104h-24q-129 0 -252 132l-72 60q-40 -18 -188 -124 q-65 -36 -140 -36q-36 37 -36 80q0 64 120 160q-42 20 -176 60q-36 30 -36 40z" />
<glyph unicode="+" horiz-adv-x="1196" d="M0 830v24q0 80 120 80q180 -16 280 -16h44l-4 164q6 244 52 244q58 60 124 68h32q62 0 72 -100v-32l-12 -196v-132q202 20 392 20q84 -82 84 -164q-10 -84 -40 -84l-420 -36q16 -182 16 -304v-68q-71 -88 -160 -88q-88 11 -88 36l-32 412l-28 -4h-152q-199 0 -232 68 q-48 69 -48 108z" />
<glyph unicode="," horiz-adv-x="605" d="M10 -290q0 108 149 349q55 122 55 225l-7 84q51 47 134 47h18q66 0 106 -40v-54q0 -325 -288 -590q-24 -51 -94 -51h-51q-19 0 -22 11v19z" />
<glyph unicode="-" horiz-adv-x="1055" d="M10 548v12q0 79 88 144q56 20 148 20h48q190 0 732 -44q24 -35 24 -76v-4q0 -80 -80 -140l-640 32l-200 -12h-32q-88 0 -88 68z" />
<glyph unicode="." horiz-adv-x="525" d="M90 70v16q0 92 96 144l88 16h16q116 -27 116 -100v-8q0 -114 -160 -184l-40 -4q-78 0 -112 92z" />
<glyph unicode="/" horiz-adv-x="1745" d="M0 -4v8q68 183 472 624l680 668q271 282 348 404q73 76 136 76h16q52 0 96 -56q0 -127 -120 -304q-89 -73 -184 -200q-18 -39 -812 -824q-251 -274 -368 -452q-134 -60 -152 -60h-8q-16 7 -16 28v8l8 32l-48 -8q-28 12 -28 36l4 4q-16 0 -24 16z" />
<glyph unicode="0" horiz-adv-x="1315" d="M0 912v60q0 200 92 536q38 118 160 244l28 28q-20 14 -20 44q113 148 276 148h24q238 0 416 -244l176 -268q152 -273 152 -512q0 -347 -236 -720q-184 -228 -428 -228h-52q-315 0 -492 392q-96 231 -96 520zM256 940q0 -223 80 -368q72 -232 120 -232q111 -96 208 -96 q117 0 276 252q116 233 116 412v44q0 248 -324 652q-81 96 -136 108l-16 8q0 -36 -36 -36q-280 -142 -288 -744z" />
<glyph unicode="1" horiz-adv-x="515" d="M0 1348v16q0 33 112 208q48 97 140 368q17 19 112 56h28q43 0 64 -104q16 -15 16 -24q0 -49 -124 -764q-20 -119 -20 -224l28 -528q0 -310 -140 -392q0 35 -96 52q-48 165 -48 564v20q0 370 24 572v8q0 37 -92 152z" />
<glyph unicode="2" horiz-adv-x="1585" d="M0 184v16q0 51 76 184q282 188 668 544q240 258 324 404l-4 20v104q0 50 -72 60q-37 12 -104 16q-236 0 -412 -256q-51 -105 -60 -108q-58 -32 -120 -32q-112 11 -112 48q0 157 164 364q271 288 604 288h32q280 0 384 -228q28 -65 28 -144v-28q0 -280 -304 -584 q-205 -208 -392 -340q-116 -104 -156 -152v-4q433 -48 620 -48q88 0 300 28h4q108 0 108 -80v-32q-13 -128 -40 -128q-169 -96 -540 -96q-792 25 -792 48q-200 43 -200 100z" />
<glyph unicode="3" horiz-adv-x="1585" d="M0 552v8q0 7 44 32q41 64 68 64q77 0 304 -192q307 -172 580 -172h48q121 0 208 112l4 32q-19 90 -240 228q-61 28 -292 80q-152 54 -152 148q0 130 344 260q77 26 176 156l-4 56l36 128q-17 12 -80 20q-106 0 -420 -164q-73 -32 -128 -32q-83 0 -96 108v16q0 19 44 72 q4 62 392 228q153 48 268 48h32q153 0 280 -80q2 -17 24 -36q12 -61 12 -124v-12q0 -309 -324 -532l-32 -28v-4q152 -58 360 -260q120 -146 120 -280q0 -212 -272 -360q-158 -72 -340 -72h-44q-419 0 -788 304q-108 91 -108 148q0 22 -24 100z" />
<glyph unicode="4" d="M0 658v16q0 112 272 340l664 580q257 280 288 280q98 0 128 -112v-32q0 -16 -56 -128q-24 -66 -36 -532l-20 -116h8q88 0 432 88l120 12q123 0 204 -60q-23 0 -96 -184q-12 -20 -36 -20q-164 -32 -536 -132q-88 -9 -88 -24q-24 -51 -24 -140l44 -408v-28q0 -99 -76 -172 q-22 -16 -44 -16q-89 0 -144 208q-10 59 -20 452q-14 80 -20 80q-487 -80 -724 -80h-24l-156 4q-60 48 -60 124zM516 890q364 25 484 44v4l16 244q0 68 -24 132h-4q-103 -100 -336 -276q-105 -93 -136 -148z" />
<glyph unicode="5" horiz-adv-x="1345" d="M-114 312v12q1 8 60 36q98 52 132 52q43 0 110 -106q171 -74 254 -74h8q385 70 544 318q162 175 125 384l-43 132q-50 62 -270 62q-140 0 -456 -112q-84 -20 -136 -20h-44q-90 0 -164 64q-16 84 -16 164v36q0 186 120 452q139 72 152 72q28 0 120 -40q350 76 540 76 q41 8 352 84q0 -19 68 -44q24 -16 32 -44q0 -296 -448 -296l-264 12q-340 10 -340 -22q-44 -86 -44 -154v-24l4 -20q353 68 576 68q347 0 452 -180q86 -70 86 -242q30 -228 -100 -466q-137 -257 -366 -396q-268 -156 -472 -156h-44q-253 0 -520 248v12l12 88z" />
<glyph unicode="6" horiz-adv-x="1485" d="M0 640v44q0 471 392 1020q209 260 372 260h16q72 0 72 -28q12 -50 12 -88v-36q0 -231 -244 -432q-8 0 -8 20q-14 56 -52 56q-54 -28 -124 -136q-122 -251 -136 -512l12 -8h16q368 376 396 376q238 168 400 168h40q149 0 252 -164q60 -108 60 -276v-8q0 -349 -212 -680 q-231 -276 -576 -276q-305 0 -540 232q-148 205 -148 468zM428 460q0 -120 240 -200q50 -12 100 -12q240 0 404 284q60 125 60 260q-13 196 -64 196l-60 4h-32q-311 0 -596 -424q-52 -79 -52 -96v-12z" />
<glyph unicode="7" horiz-adv-x="1420" d="M-240 1670q84 57 84 88q0 11 500 52q604 51 916 52q20 -37 20 -128v-12q0 -179 -160 -496q-25 -49 -64 -160l60 -4h180q156 0 156 -40l4 -40v-8q0 -137 -200 -160q-68 -11 -276 -16q-55 -33 -152 -352q-102 -343 -192 -448q-79 -68 -156 -68q-108 15 -108 40 q1 97 272 728l16 48v4q-66 32 -116 32h-8l-148 -12h-8q-89 0 -156 104q13 46 64 124q0 28 132 28q146 0 344 44q80 146 80 228q37 184 76 268q-151 -12 -384 -12h-196q-202 0 -440 -32h-20q-76 0 -96 56v48q0 28 -24 44z" />
<glyph unicode="8" horiz-adv-x="1385" d="M0 1452v28q0 131 68 216q173 140 488 140h40q412 0 632 -196q56 -76 56 -168q0 -187 -324 -404q-75 -54 -108 -100q48 -65 228 -172q280 -160 280 -404v-20q0 -259 -288 -416q-125 -56 -248 -56h-52q-189 0 -232 80q-39 24 -164 44q-220 132 -220 364v24q0 253 228 508v4 q-384 286 -384 528zM304 1488q47 -164 196 -268l128 -92q166 100 272 200l32 40v4q-34 0 -96 116q-88 80 -232 80h-44q-155 0 -256 -76v-4zM444 416q0 -88 60 -124q113 -97 260 -116q17 -8 64 -8h48q137 0 188 116l8 56v16q0 159 -364 340q-49 28 -104 76 q-160 -177 -160 -344v-12z" />
<glyph unicode="9" horiz-adv-x="1125" d="M0 1066v28q0 270 328 592q212 180 492 180h48q193 -8 236 -108v-4q0 -14 -56 -64l-4 -20h4q68 -33 68 -144v-24q0 -86 -76 -456q-36 -287 -36 -436v-148q0 -348 72 -488q-53 -124 -156 -124q-124 0 -180 160q-24 128 -24 260l36 660v20l-4 4v4q-203 -118 -300 -160 q-66 -28 -132 -28h-24q-206 0 -280 212q-12 42 -12 84zM288 1074l4 -40h40q196 0 376 244l96 116v16q0 36 56 164l4 32q-44 12 -100 12q-187 0 -336 -160q-140 -166 -140 -364v-20z" />
<glyph unicode=":" horiz-adv-x="325" d="M0 790v40q0 130 172 152h20q128 -18 128 -104v-16q0 -118 -164 -152h-32q-76 0 -124 80zM8 194q0 107 100 156l96 16q120 -29 120 -92v-24q0 -109 -156 -176l-36 -4h-4q-103 0 -120 124z" />
<glyph unicode=";" horiz-adv-x="465" d="M0 -84q93 344 144 428q63 100 160 100h4q70 0 136 -44q12 -19 12 -52q0 -166 -248 -544q-31 -24 -56 -24h-24q-63 0 -128 136zM88 864q0 102 136 148l44 4h20q120 -16 120 -104v-20q0 -124 -172 -156h-36q-66 0 -80 48q-32 58 -32 80z" />
<glyph unicode="&#x37e;" horiz-adv-x="465" d="M0 -84q93 344 144 428q63 100 160 100h4q70 0 136 -44q12 -19 12 -52q0 -166 -248 -544q-31 -24 -56 -24h-24q-63 0 -128 136zM88 864q0 102 136 148l44 4h20q120 -16 120 -104v-20q0 -124 -172 -156h-36q-66 0 -80 48q-32 58 -32 80z" />
<glyph unicode="&#x3c;" horiz-adv-x="1055" d="M0 646v28q0 87 132 160q148 104 524 292l156 80q84 -44 84 -148q0 -73 -40 -88q-155 -92 -448 -244l-96 -64v-4q207 -115 744 -528l4 -4v-24q0 -89 -136 -128l-32 -4q-137 86 -544 384q-115 75 -252 144q-96 53 -96 148z" />
<glyph unicode="=" horiz-adv-x="1095" d="M0 828v8q0 94 112 152q80 12 152 12h48q202 0 780 -44q24 -37 24 -64v-16q0 -78 -84 -136l-680 32l-236 -16q-116 0 -116 72zM80 380v32q35 144 144 144l116 8q210 0 708 -52q20 -45 20 -68q0 -85 -76 -140l-12 -4l-596 32l-200 -12h-20q-84 7 -84 60z" />
<glyph unicode="&#x3e;" horiz-adv-x="1065" d="M0 84v8q15 19 416 316q309 220 332 220v4q-117 80 -472 264q-104 59 -104 80q-8 22 -8 56q0 103 88 144q323 -161 660 -356q148 -93 148 -168v-36q0 -118 -160 -180q-197 -105 -600 -412q-124 -84 -136 -84q-164 26 -164 144z" />
<glyph unicode="?" horiz-adv-x="1165" d="M0 1766v20q0 43 92 124q8 32 36 32q121 24 224 24h36q418 0 712 -268q68 -71 68 -84q0 -379 -532 -480l-284 -52q44 -345 44 -400v-20q0 -136 -36 -136q-60 -57 -148 -76q-18 5 -100 80l8 72q0 109 -100 480l-4 76q0 129 92 188q733 64 788 160q0 52 -296 156 q-187 60 -304 60q-62 0 -168 -68l-24 -4h-8q-81 0 -96 116zM156 -110q0 141 136 188l20 4q100 0 116 -84v-40q0 -126 -108 -180l-52 -8q-112 13 -112 112v8z" />
<glyph unicode="@" horiz-adv-x="1755" d="M60 530v44q0 343 224 578q141 123 592 123h19q293 0 395 -224q89 -228 89 -406v-44q0 -206 -156 -280q-56 -22 -127 -22q-155 0 -253 294l-12 11q-162 -275 -290 -275l-23 -4q-126 15 -126 119v26q0 139 193 339q80 54 246 138q0 9 45 11h15q59 0 74 -201 q42 -168 105 -209q23 -18 56 -26q67 14 67 131l4 26q0 190 -90 324q-87 97 -227 97q-260 0 -391 -75q-194 -172 -194 -477q0 -278 216 -369q227 -89 361 -89h19q275 0 510 205q48 57 79 123q37 30 85 30q116 -14 116 -86v-4q-8 -70 -119 -201q-302 -257 -719 -257h-4 q-309 0 -582 175q-197 172 -197 455zM556 485h11q59 0 182 212q12 16 26 79l-7 7q-212 -138 -212 -287v-11z" />
<glyph unicode="A" d="M-70 556q26 57 112 96l284 84q32 10 96 116q220 346 324 588q48 109 104 284q49 104 136 104h12q106 0 248 -144v-40q0 -261 180 -784l44 -4l160 8q76 0 76 -44q16 -2 16 -12q0 -101 -132 -136l-84 -20q171 -434 308 -588q104 -99 104 -188q0 -53 -48 -72q0 -13 -60 -24 h-24q-130 0 -320 432q-104 184 -200 420l-124 8q-540 -34 -540 -100q-30 -25 -152 -292q-74 -108 -164 -108h-24q-86 0 -100 44l-8 64q0 41 36 192q0 19 -200 52q-60 29 -60 64zM770 828h4q58 0 320 60l52 4h4q-70 271 -112 328l-32 32q-152 -240 -236 -420v-4z" />
<glyph unicode="B" horiz-adv-x="1800" d="M0 1714v28q0 68 260 80l16 4v4q0 116 144 160h48q109 0 132 -104q0 -28 16 -28l500 -40q208 -40 292 -124q52 -54 52 -76v-4q-64 -208 -316 -384q-122 -74 -320 -212v-4l8 -8h8q326 0 460 8q387 -13 432 -84q40 -39 40 -96v-20q0 -179 -272 -392q-289 -208 -688 -372 q8 -16 8 -44v-8q0 -61 -108 -128h-12q-19 0 -96 80l-48 12l-208 -28h-20q-109 0 -160 108q-8 18 -8 56q0 70 112 92q200 7 200 28l-96 500l-136 56l-24 116v20q0 29 108 108q-36 331 -48 552l-76 -4q-184 0 -184 76q-16 47 -16 72zM276 1574h12l-8 8h-4v-8zM572 1562 q0 -139 20 -368q81 36 268 184q117 62 204 148l20 32v8q-140 40 -300 40q-90 0 -212 -16v-28zM580 1182l4 -4h4v12zM636 722h8v8zM648 718l72 -360l24 -52q306 143 520 300q90 71 140 136v4q-126 12 -220 12h-20q-229 0 -516 -36v-4zM804 50h4v8h-4v-8zM1416 750l8 -8h8 l-4 20z" />
<glyph unicode="C" d="M0 732v28q0 428 628 872q324 196 492 196h28q188 -16 188 -124v-8q0 -130 -384 -216q-201 -83 -460 -320q-204 -226 -204 -432v-36q0 -292 412 -388q104 -24 228 -24q434 0 736 284q70 46 280 260q200 176 344 176l8 -12v-8q0 -154 -172 -320q0 -24 -208 -236 q-451 -424 -1032 -424q-577 0 -780 380q-104 167 -104 352z" />
<glyph unicode="D" horiz-adv-x="2005" d="M-220 1484v32q0 45 124 116l16 16q301 -80 380 -80v8q0 149 132 184l32 4h20q111 0 128 -132v-16q0 -34 -16 -84q112 -77 476 -196q116 -52 340 -176l292 -116q296 -155 296 -336v-20q0 -347 -816 -592q-168 -40 -288 -80v-16l4 -36q0 -22 -132 -60l-36 -4q-32 0 -112 48 q-54 15 -308 24q-85 20 -116 68l-12 28q30 112 88 148l40 28q139 -36 180 -36h20q-125 489 -168 768q-20 156 -20 300q-54 43 -384 84q-160 37 -160 124zM596 1212q0 -384 208 -968h4q251 51 452 124q354 137 396 192q56 57 56 100v16q0 130 -416 304q-440 236 -688 236h-12 v-4z" />
<glyph unicode="E" horiz-adv-x="1515" d="M-80 1404v40q0 157 284 220q8 0 72 72q10 0 84 64h8q101 0 188 -100h8q117 0 392 92q69 24 140 24h20q83 0 120 -32v-32q0 -221 -504 -276q-292 -28 -292 -48q-44 -124 -44 -296v-44q474 120 716 120q180 -6 180 -24v-32q0 -25 20 -44q-49 -87 -216 -140 q-120 -28 -512 -76q-80 -20 -164 -52q72 -316 164 -552l44 -96l20 -4q127 0 468 164q358 156 568 156q148 -8 148 -24v-132q0 -9 -160 -32q-438 -109 -796 -392q-140 -88 -244 -88h-44q-153 0 -252 288q-72 179 -188 604q-70 0 -148 60v12q0 74 96 184q16 18 16 28l-4 44 l12 280l4 4l-48 -4h-36q-120 0 -120 64z" />
<glyph unicode="F" horiz-adv-x="1225" d="M-100 1444v40q0 157 284 220q8 0 72 72q10 0 84 64h8q101 0 188 -100h8q117 0 392 92q69 24 140 24h20q83 0 120 -32v-32q0 -220 -500 -276q-296 -27 -296 -48q-44 -124 -44 -296v-44q474 120 716 120q180 -6 180 -24v-32q0 -25 20 -44q-49 -87 -216 -140 q-120 -28 -512 -76q-80 -20 -164 -52q-14 -189 -14 -347q0 -146 12 -265q45 -105 128 -224q12 -31 12 -56q0 -85 -136 -108h-32q-173 0 -224 460l-22 436q-79 0 -144 56v12q0 74 96 184q16 18 16 28l-4 44l12 280l4 4l-48 -4h-36q-120 0 -120 64z" />
<glyph unicode="G" horiz-adv-x="1565" d="M10 956v44q0 506 260 824q160 160 340 160h28q257 0 424 -336q56 -151 56 -216q-82 -107 -96 -116q-36 -24 -52 -24h-4q-59 0 -152 212q-52 150 -140 192l-20 12q-129 -33 -192 -116q-160 -197 -160 -552v-40q0 -533 300 -900q94 -100 192 -100q223 0 412 548 q40 124 76 336q-114 -16 -476 -92v12q0 39 -76 64q-36 27 -36 52v4q0 153 384 212q211 28 392 28q60 0 60 -24q12 -58 16 -136q0 -274 -248 -836q-136 -274 -384 -384q-51 -24 -112 -24h-12q-215 0 -424 192q-356 473 -356 1004z" />
<glyph unicode="H" horiz-adv-x="1774" d="M25 602q2 140 50 140h184q64 3 64 16q-44 536 -70 1140v8q20 284 96 284l48 4q124 -4 124 -44q28 -30 28 -80l-8 -176q0 -227 50 -1020l12 -108h24q275 0 468 36q-34 942 -54 1232v32q0 151 104 180h36q119 0 136 -84q8 -12 12 -80l16 -292q0 -129 18 -880 q12 -108 28 -108q400 -53 430 -172q0 -100 -124 -100h-24q-266 11 -266 28v4l-8 -8q11 0 11 -90q0 -21 -1 -46q10 -78 54 -748l4 -40v-4q-49 -56 -152 -56q-112 0 -112 48q-29 180 -64 744q-17 167 -24 168l-82 4l-410 -16q18 -299 18 -380q1 -19 1 -37q0 -183 -67 -183 l-120 8l-48 -8q-43 0 -43 198q0 42 2 93q-8 286 -29 299l-28 -6l-40 -4q-185 0 -228 64q-16 20 -16 40z" />
<glyph unicode="I" horiz-adv-x="475" d="M0 1634v188q0 87 20 112q51 48 108 48h20q119 0 164 -132v-16l-36 -132q-12 -98 -12 -200v-100q0 -288 156 -1160l32 -328q-48 -64 -148 -64q-108 10 -108 48q-188 1137 -188 1488q-7 0 -8 248z" />
<glyph unicode="J" horiz-adv-x="1255" d="M0 880v28q0 152 84 152h36q140 0 216 -148l8 -44q0 -42 -44 -100q148 -399 400 -660l128 -104q160 163 160 736q0 334 -120 948l-8 112q0 139 84 156h24q57 0 132 -52l120 -836q24 -258 24 -396q0 -444 -124 -748q-109 -204 -268 -204h-32q-193 0 -376 244 q-98 110 -212 316q-232 409 -232 600z" />
<glyph unicode="K" horiz-adv-x="1785" d="M0 966v32q0 38 184 108l68 48l-4 80v92q0 207 76 488q35 20 72 20h36q104 0 104 -60v-76q0 -47 -52 -360l-4 -88q314 131 652 356l164 124q192 -18 192 -92v-24q0 -90 -324 -260q-170 -110 -544 -316q-22 0 -140 -60l-8 -60q0 -96 148 -168q398 -311 612 -428 q216 -136 320 -136q196 -4 196 -36q36 -26 36 -96q-116 -56 -224 -56h-36q-280 0 -768 364q-208 132 -228 132l-4 -20v-20q0 -67 48 -440v-92q-42 -52 -108 -52h-24q-92 12 -96 48l-72 528q-9 253 -52 276q-23 30 -172 136q-48 50 -48 108z" />
<glyph unicode="L" horiz-adv-x="1775" d="M0 1276v224l4 160q21 14 44 64q42 28 68 28h36q95 0 128 -56q16 -31 16 -52v-16l-32 -240l-8 -192q0 -264 80 -1048q50 0 428 172q528 252 824 252q116 0 188 -28l-4 -108v-40q0 -10 -164 -28q-257 -59 -436 -136q-239 -116 -488 -252q-200 -100 -368 -100 q-208 13 -208 52q-108 658 -108 1344z" />
<glyph unicode="M" horiz-adv-x="2165" d="M0 762v28q0 112 128 112l16 -4q43 89 144 496q95 292 248 292q189 0 324 -512q48 -137 132 -564h4q68 174 128 512q92 652 176 856l100 8h68q77 -84 140 -304q64 -267 252 -772q237 -741 452 -1028q27 -40 28 -72v-12q-24 -104 -104 -104l-36 -4q-169 0 -304 364 q-133 274 -424 1100l-56 144h-4q-63 -246 -144 -804q-124 -534 -124 -700q-44 -14 -44 -56q0 -14 -132 -40h-40q-44 0 -60 52q-36 84 -68 352l-116 664q-66 268 -148 428l-16 28h-4q-72 -184 -160 -752q-46 -254 -96 -308q-47 -44 -108 -44h-28q-76 0 -76 48q-20 72 -20 140 l8 236q0 41 -36 220z" />
<glyph unicode="N" horiz-adv-x="1335" d="M0 166v44q0 135 88 676q11 109 20 428q22 161 68 224l4 4l4 -4h92l60 4q111 -211 312 -760q153 -353 292 -508l60 -64h4l24 1728q52 48 112 48h16q102 0 140 -112l4 -28q-32 -92 -32 -140l-16 -920q0 -378 48 -736v-52q0 -180 -68 -180l-72 -8h-8q-206 0 -408 344 q-69 101 -280 488l-92 132h-4q-56 -174 -84 -608q-5 -208 -24 -208q-47 -32 -124 -32h-20q-67 0 -76 36q-40 96 -40 204z" />
<glyph unicode="O" horiz-adv-x="1255" d="M0 898v60q0 476 180 780q92 98 188 112q138 28 224 28h16q383 0 588 -876q28 -159 28 -304v-16q0 -339 -148 -564q-184 -208 -400 -208h-44q-255 0 -456 300q-176 303 -176 688zM256 958q18 -613 308 -776q66 -28 112 -28h16q156 0 256 232q40 127 40 264v48 q0 356 -180 728q-136 212 -224 212h-12q-64 0 -104 -128h-4l-64 12h-16q-25 -6 -76 -172q-52 -207 -52 -392z" />
<glyph unicode="P" horiz-adv-x="1505" d="M0 1678v24q39 128 56 128l144 44q46 112 152 112h24q98 0 124 -88q0 -36 40 -36q357 -80 688 -256q276 -138 276 -372v-16q0 -266 -256 -476q-201 -149 -432 -252l-192 -76q80 -324 80 -476v-36q0 -159 -88 -192q-163 0 -200 420q-41 204 -72 204q-10 12 -84 28 q-27 20 -44 108l-12 12v8q1 13 92 92v4q-61 198 -92 764l-12 220q-192 75 -192 108zM456 1602q40 -817 96 -936q254 88 420 188q186 113 248 312q8 18 8 52v4q0 221 -760 380l-12 4v-4z" />
<glyph unicode="Q" d="M30 620v44q0 428 280 956q265 196 392 196h36q229 0 504 -456q272 -438 272 -700v-28q0 -184 -100 -380q86 -123 180 -180q56 -24 160 -36q44 -53 44 -140q-9 -126 -68 -136h-48q-167 0 -348 188l-100 68q-193 -112 -428 -112q-336 0 -584 204q-192 200 -192 512z M306 616q0 -349 336 -472q102 -32 192 -32q129 0 228 76q-115 159 -368 360q-204 171 -204 256v8q22 132 132 132h8q98 0 304 -240q7 0 208 -196l72 -76h4q31 0 40 184v12q0 294 -364 792q-132 144 -240 144q16 -102 16 -156v-12q0 -67 -36 -104h-8q-17 0 -88 76 q-15 12 -36 12q-131 0 -196 -684v-80z" />
<glyph unicode="R" horiz-adv-x="2035" d="M-120 1498v20q0 129 360 156h16q44 96 144 96h16q116 0 116 -112q148 0 976 -244q164 -58 164 -128v-8q0 -339 -468 -524q-181 -80 -296 -148q271 -131 912 -380q389 -131 508 -192v-12q0 -133 -200 -156l-48 -4q-265 0 -1076 412q-325 128 -404 128v-32q0 -32 56 -308 l4 -40q0 -152 -172 -152q-69 40 -116 188l-80 392h-164q-148 0 -148 80q0 140 252 204v4q-32 156 -32 536v172h-36l-204 -20q-80 9 -80 72zM464 1162q0 -206 56 -416q434 104 624 212q161 104 232 224v4q-553 192 -632 192q-141 32 -268 32q-12 -59 -12 -168v-80z" />
<glyph unicode="S" horiz-adv-x="1735" d="M0 1230v28q0 222 372 428q192 100 392 100h44q321 0 424 -140q12 -20 12 -40q0 -46 -112 -64q-21 -8 -84 -8h-36l-288 8q-149 0 -328 -160q-45 -53 -88 -120q61 -90 188 -132q205 -72 664 -208q564 -177 564 -412v-28q0 -308 -788 -504q-216 -48 -388 -48 q-380 0 -476 164q-24 51 -24 104q0 162 180 272q66 32 124 32q12 -30 12 -72l-24 -200q152 -44 300 -44q379 0 692 192q58 48 92 88q-100 113 -212 160q-158 79 -728 228q-484 155 -484 376z" />
<glyph unicode="T" horiz-adv-x="1465" d="M-80 1410v24q0 80 104 148q298 52 752 52q320 0 732 60l104 4h48q144 0 184 -72l4 -24v-8q0 -143 -580 -208h-8l-156 4l-44 -4q-32 -236 -32 -416l36 -736v-220q0 -71 -32 -84q-109 -40 -188 -40q-92 279 -92 716q-12 165 -12 312v32l8 392q-59 24 -172 24l-408 -12h-72 q-176 0 -176 56z" />
<glyph unicode="U" horiz-adv-x="1235" d="M10 1050v64q0 389 108 688q11 8 124 20q104 0 104 -100l-44 -224q-22 -172 -24 -344q0 -761 304 -968l48 -12q101 0 212 200q84 201 84 520v36q0 612 -148 964q-8 16 -8 44v16q0 72 92 84h120q39 -50 104 -260q116 -416 116 -812q0 -620 -268 -896q-173 -140 -352 -140 q-268 0 -408 316q-164 318 -164 804z" />
<glyph unicode="V" horiz-adv-x="1435" d="M30 1432v48q27 18 64 64l44 4h36q108 0 120 -68q99 -276 228 -520l196 -368q19 29 112 308q275 880 488 1176q114 120 172 120q28 -18 104 -44l12 -20q0 -83 -268 -560q-98 -182 -248 -816q-156 -453 -156 -592q-40 -304 -196 -304q-70 0 -92 36q-68 106 -116 268 q-64 245 -144 400q-193 316 -296 564q-60 181 -60 304z" />
<glyph unicode="W" horiz-adv-x="1785" d="M10 1280v60q0 258 140 324l32 4q59 0 124 -52v-432q0 -343 76 -560h4q88 268 88 396q44 340 96 468q43 124 96 124l28 4h4q44 0 156 -60q252 -890 512 -1324v-4h4q100 399 100 856v164q0 356 -56 916q25 27 148 56l24 20q77 -83 116 -184q40 -452 40 -820v-28 q0 -665 -116 -1240q-43 -127 -124 -172q-49 -16 -100 -16q-225 197 -304 376q-107 195 -308 700l-40 88h-4q-53 -118 -84 -572q0 -230 -68 -512q-23 -68 -36 -68l-92 -8q-120 0 -120 64q-336 883 -336 1432z" />
<glyph unicode="X" horiz-adv-x="1475" d="M0 -74q0 114 208 364q228 282 276 380q-6 38 -240 288q-224 275 -224 400v36q0 89 96 140h4q164 -24 164 -64q104 -220 280 -456l96 -112h4l372 448q232 245 296 284q188 -33 188 -96l4 -24q0 -115 -180 -244q-342 -365 -448 -544l-24 -32q51 -89 244 -268 q130 -95 256 -108l100 -112q0 -89 -100 -128l-44 -40q-119 0 -336 144q-73 57 -280 260q-192 -169 -268 -288q-107 -154 -168 -296q0 -16 -64 -36q-55 -32 -80 -32h-32q-84 0 -100 116v20z" />
<glyph unicode="Y" horiz-adv-x="1565" d="M30 19v27q0 187 138 269l26 3q15 0 30 -30h19q21 0 52 -227q52 -256 112 -373q247 -437 452 -437q104 0 247 160q190 253 190 747q-17 462 -60 504q-30 123 -74 489q-6 0 -127 -220q-249 -426 -594 -426q-226 0 -288 179q-18 77 -18 183q0 269 194 702q85 142 175 142h23 q81 0 127 -71l7 -44q0 -51 -78 -176q-120 -271 -120 -508q8 -142 15 -142q167 49 351 377q80 151 157 419q41 151 75 407q10 11 30 11l59 56h8l41 -15h60q74 0 74 -75q64 -293 146 -956q86 -511 86 -963v-60q0 -387 -250 -728q-177 -209 -422 -209h-11q-414 0 -721 527 q-131 238 -131 458zM464 1848l12 -4v12l-12 -4v-4z" />
<glyph unicode="Z" horiz-adv-x="2925" d="M10 14v16q0 149 280 252q408 208 896 564q238 167 656 560q-262 -28 -1028 -136l-256 -24q-80 46 -80 152q0 131 108 192q48 -8 132 -8h60q186 0 756 96q445 36 620 60q194 52 252 52h16q84 0 84 -36q28 -44 28 -100v-16q0 -193 -428 -416q-384 -363 -632 -524 q-114 -90 -564 -408v-4q368 -28 872 -28h684l400 -4q68 -88 68 -164v-20q0 -90 -92 -128l-48 -4q-360 36 -632 36h-20q-203 0 -784 -20l-544 12q-356 0 -604 -88l-60 -8h-24q-79 0 -108 84z" />
<glyph unicode="[" horiz-adv-x="935" d="M0 1145v137l36 322q0 297 104 351q55 29 140 29h40l464 -29q28 -50 28 -98q0 -42 -64 -180q-512 -7 -512 -39q-40 -186 -40 -410q0 -140 52 -912v-92l-12 -49q56 -93 316 -93h164q156 0 156 -24q40 -57 40 -97v-29q0 -73 -40 -73q-107 -74 -332 -74h-12q-206 0 -440 44 q-88 614 -88 1316z" />
<glyph unicode="\" horiz-adv-x="1735" d="M0 1610v20q8 16 24 16l-4 12q12 28 36 28l40 -8l-8 32v8q0 22 16 28h8q37 -7 160 -64q71 -137 408 -500q784 -764 784 -800q96 -119 168 -176q116 -178 116 -300q-42 -56 -96 -56h-16q-99 0 -244 220q-171 208 -796 800q-444 462 -528 632q-13 12 -68 108z" />
<glyph unicode="]" horiz-adv-x="1010" d="M10 -39q0 40 43 97q0 24 167 24h175q277 0 338 93l-13 49v92q55 772 55 912q0 224 -42 410q0 32 -548 39q-68 138 -68 180q0 48 30 98l496 29h43q91 0 149 -29q112 -54 112 -351l38 -322v-137q0 -702 -94 -1316q-250 -44 -470 -44h-13q-241 0 -355 74q-43 0 -43 73v29z " />
<glyph unicode="^" horiz-adv-x="885" d="M20 1388v16q0 102 208 296q60 65 148 220q48 52 108 52h48q72 -136 304 -464q28 -42 28 -56v-4l-20 -64l8 -32l-4 -4h-4q0 8 -28 16l-64 -20q-32 0 -148 132q-72 107 -136 172q-237 -191 -256 -308q0 -36 -140 -36l-24 -4q-28 42 -28 88z" />
<glyph unicode="_" horiz-adv-x="1900" d="M30 -346q0 10 12 28l-3 20q0 44 347 80l113 4h52q115 0 774 -48l118 -4q75 0 252 20q125 0 125 -156q-25 -50 -136 -104q-28 -16 -99 -24q-43 4 -55 12q-78 -12 -185 -12h-67q-87 0 -703 40h-87q-178 0 -348 -36l-107 72l-3 4v20q14 32 32 32q-32 31 -32 52z" />
<glyph unicode="`" horiz-adv-x="682" d="M30 1852l88 120q60 0 108 -52q88 -155 148 -220q208 -194 208 -296v-16q0 -46 -28 -88l-24 4q-140 0 -140 36q-19 117 -256 308q-74 35 -104 204z" />
<glyph unicode="a" horiz-adv-x="1295" d="M0 210v16q0 227 292 560q181 148 420 252q68 52 132 52h20q79 0 104 -132q0 -73 84 -448q60 -213 172 -356q68 -100 68 -156v-24q0 -48 -60 -48q-59 -36 -76 -36q-111 39 -200 176q-51 97 -164 376l-24 32q-147 -229 -252 -348q-133 -136 -300 -136q-162 0 -212 168z M284 266l4 -4h4q97 0 196 168q180 224 180 348l-4 4h-8q-69 -21 -256 -212q-116 -144 -116 -304z" />
<glyph unicode="b" horiz-adv-x="1139" d="M0 1030v48q0 197 80 752q45 156 168 156h24q72 0 84 -92v-8q0 -23 -48 -212q-56 -329 -56 -532v-28l-4 -16l4 -16v-36q0 -121 32 -260q171 208 440 208q208 -12 352 -44q44 -116 44 -220v-20q0 -355 -388 -648q-218 -132 -408 -132h-24q-134 0 -256 120q-32 101 -32 188 l12 260zM328 206h4q496 79 496 416l-4 60q-86 16 -140 16q-237 0 -316 -276q-24 -77 -40 -216z" />
<glyph unicode="c" horiz-adv-x="1185" d="M0 320v40q0 305 252 524q102 64 192 64h12q82 0 152 -44q-8 -16 -8 -44l20 -52v-24q-35 -71 -148 -108q-118 -36 -152 -96q-44 -94 -44 -152v-24q0 -119 136 -140h56q134 0 464 148q139 60 184 60h8q67 -69 72 -104q-5 -21 -120 -132q-30 -56 -60 -56 q-370 -220 -632 -220q-282 0 -376 268z" />
<glyph unicode="d" horiz-adv-x="1235" d="M0 160v24q0 114 244 368q235 198 376 216q48 20 48 68q-44 481 -44 628v112l132 100q21 12 40 12h44q0 -32 52 -52q39 -26 48 -316l-4 -352v-44q0 -287 200 -676q80 -92 80 -136l4 -28q0 -24 -68 -120h-64q-139 0 -196 184q-28 72 -92 140q-53 -134 -224 -244 q-199 -104 -456 -104q-100 74 -100 80q-20 104 -20 140zM272 188l36 -4q173 0 284 276q20 44 20 64q-191 -62 -276 -208q-64 -107 -64 -128z" />
<glyph unicode="e" horiz-adv-x="1025" d="M0 708v32q0 198 128 248q139 76 244 76q208 0 340 -272q24 -86 24 -132q0 -201 -312 -324v-4q82 -140 216 -140q180 0 388 292q124 140 192 140h8l8 -8v-40l-4 -16q4 -13 16 -16q25 0 36 44h8v-4q0 -68 -120 -224q-18 -34 -28 -80q-56 -11 -56 -44q-110 -183 -332 -260 q-66 -16 -116 -16h-40q-293 0 -580 424v8zM248 672q0 -120 68 -168q47 0 140 72q16 46 16 80q0 123 -108 168l-32 4q-60 0 -60 -40q-24 -41 -24 -116z" />
<glyph unicode="f" horiz-adv-x="955" d="M-190 784v116q0 11 84 24q114 52 192 52h4v4q0 542 184 744q78 20 160 20h32q368 0 520 -404q36 -108 36 -152q-27 -84 -140 -84h-44l-40 -4q-39 156 -84 240q-107 180 -196 180h-16q-114 0 -136 -212l-20 -320q129 -15 564 -32q124 -17 124 -32q0 -20 24 -48v-8 q-28 0 -36 -44q-95 -72 -296 -72h-244q-85 0 -128 -16q52 -714 108 -952l-12 -8h-4q-14 0 -40 20l-32 -76h-20q-26 0 -96 48q-48 0 -48 60q-39 117 -76 748q-17 128 -24 128l-244 44q-46 21 -56 36z" />
<glyph unicode="g" horiz-adv-x="985" d="M0 346v28q0 334 344 516q129 56 252 56h32q195 0 296 -100q24 -10 24 -32q-36 -26 -40 -36q24 -529 24 -788q0 -501 -84 -636q-121 -244 -328 -244q-197 0 -344 156l-8 16v16q0 59 -104 188q-44 73 -44 132q0 56 32 80h16q15 0 64 -44q48 0 48 -20q37 -117 200 -232 q9 0 108 -72q81 23 140 112q68 136 68 384l-12 492l4 80q-42 -39 -184 -268q-114 -136 -224 -136h-28q-72 0 -160 92q-68 44 -68 104q-24 66 -24 156zM252 330l8 -84q108 60 188 208q103 180 156 256q-4 16 -16 16q-91 0 -224 -108q-112 -121 -112 -260v-28z" />
<glyph unicode="h" horiz-adv-x="1015" d="M0 204q11 0 20 884q21 332 56 448q53 0 72 48v4q36 -20 56 -20q12 0 12 24h8q68 -35 68 -52q-64 -439 -64 -948v-20l4 -108q66 54 188 396q52 112 100 112q73 44 100 44h20q47 0 72 -92q51 -128 112 -500q44 -180 96 -272q35 -61 104 -124v-4q-52 -74 -108 -100 q-83 0 -200 100q-65 79 -108 220l-64 300q-58 -74 -188 -400q-73 -146 -152 -224h-28q-41 0 -104 68l-40 20l4 40q0 57 -36 156z" />
<glyph unicode="i" horiz-adv-x="385" d="M30 1404v24q32 96 156 96h24q101 0 124 -52l12 -44v-4q0 -81 -164 -108h-28q-120 11 -120 72zM50 160l36 492q-8 105 -8 296q0 168 116 168q80 0 80 -40q48 -261 48 -560v-116l-8 -432q-31 -24 -96 -36l-32 -32h-4q-35 0 -64 52q0 -24 -8 -24q-60 53 -60 232z" />
<glyph unicode="j" horiz-adv-x="535" d="M-460 -242q0 40 32 72h12q16 0 76 -48l16 -4h28q23 -93 116 -184q76 -63 216 -152q99 36 152 136q64 148 64 396l-12 392l16 260l-8 272q0 200 116 200q84 0 84 -56q48 -267 48 -712l-4 -104l8 -28q0 -595 -84 -712q-121 -276 -348 -276h-4q-204 0 -352 156 q-24 21 -24 92q-148 200 -148 268v32zM188 1326q0 95 160 112h32q90 0 120 -60l8 -36q0 -90 -172 -112h-28q-120 13 -120 96z" />
<glyph unicode="k" horiz-adv-x="1315" d="M0 748q0 55 152 148q28 0 36 940q10 172 24 172q61 40 108 40h16q84 -8 84 -36q20 -158 20 -368v-40q0 -276 -32 -564l460 148l124 16q92 0 140 -44q-12 -43 -12 -104l4 -4q-92 -76 -300 -136q-174 -40 -312 -96q-49 -24 -100 -64v-8q34 -68 216 -128q135 -39 200 -100 h32q20 0 108 -56q359 -157 388 -216v-4q-12 0 -20 -88q-18 -36 -88 -36l-56 -20q-449 210 -604 272q-109 40 -168 52q-24 -53 -24 -128v-20l12 -260q0 -84 -40 -116q-11 -9 -20 -36l4 -4v-4l-4 -4v-4l-4 4h-20l-40 -48l-16 -4q-76 17 -76 32v8l12 44h-20v-36l-12 -12 q-40 83 -40 244l8 372l-4 100l-124 84v4l4 48z" />
<glyph unicode="l" horiz-adv-x="375" d="M0 1984q24 0 44 180q69 52 124 52h16q76 0 76 -64q28 -147 28 -320l-28 -732v-76q0 -343 96 -916v-52q0 -95 -44 -108q-33 0 -120 -28q-26 26 -80 60q-108 683 -108 1120v140q0 296 52 616q-13 0 -24 104z" />
<glyph unicode="m" horiz-adv-x="1405" d="M0 76q24 77 24 156l-8 268l4 64q44 0 44 72v24q0 9 64 32q10 24 20 24l52 -20q22 4 140 144q49 40 60 40q193 0 268 -256l16 -40h8q39 80 84 212q28 55 60 80l36 -4l32 40h20q135 -23 144 -56q68 -114 156 -388q72 -224 160 -428q0 -15 -48 -56q0 -20 -16 -20 q-193 0 -260 212q-62 227 -112 312h-4q-184 -528 -268 -528h-36q-150 0 -176 312q-23 248 -40 248q-51 -55 -116 -288q-72 -264 -184 -264q-48 0 -104 40l4 20v20z" />
<glyph unicode="n" horiz-adv-x="1035" d="M10 114q56 201 56 704q85 50 88 60q0 20 16 20q148 -22 148 -44l-12 -36l4 -4h4q77 72 144 196q110 156 196 156q128 -33 128 -44q58 -135 96 -304q84 -570 128 -736q10 0 20 -76v-8q0 -68 -88 -68h-8q-128 0 -128 48q-58 118 -96 300l-88 528h-4q-140 -172 -332 -664 q-79 -163 -88 -164q0 12 -40 16h-60q-36 0 -36 36z" />
<glyph unicode="o" horiz-adv-x="795" d="M10 317v21q0 187 53 343q11 15 99 53q18 13 74 89q65 42 226 42h4q206 0 286 -251q22 -65 22 -148v-36q0 -285 -216 -459q-118 -71 -212 -71h-14q-212 0 -301 272q-21 74 -21 145zM268 314q11 -163 71 -163q85 37 138 131q42 81 42 159v14q0 120 -88 201q-66 0 -121 -84 q-28 -33 -38 -36l3 -32z" />
<glyph unicode="p" horiz-adv-x="955" d="M20 732v12q0 36 44 84h-8q-17 0 -20 -24h-8v4q0 73 116 136l48 60q446 0 648 -172q92 -127 92 -228q0 -165 -228 -356q-180 -132 -352 -132h-12q0 -722 40 -908l-4 -4h-60q-14 -7 -20 -24q-172 44 -172 100q-64 247 -64 756l28 500q0 99 -28 188q-8 0 -12 -28h-8 q-12 0 -20 36zM344 344q97 0 220 76q100 91 100 260q-145 112 -240 112q-60 0 -60 -32l-16 -396z" />
<glyph unicode="q" horiz-adv-x="1175" d="M30 340v40q0 125 56 216q40 0 40 44q6 52 68 132q220 248 480 248h28q196 -20 196 -52q140 -143 140 -176q-108 -324 -108 -1058l4 -212q318 274 467 274q18 0 33 -4q13 13 128 44q0 -26 64 -32h56v-8l-16 -20q0 -20 40 -20v-8q-102 -115 -180 -140q-211 -67 -320 -184 q-124 -171 -188 -250q-84 -63 -84 -144l-20 -24h-4q0 16 -28 16v4q-28 0 -28 -32l-4 -4h-20q-13 6 -24 32l-40 -20q-84 9 -84 32q0 24 -36 40l-4 228v140q0 474 48 862q-279 -280 -468 -280q-81 0 -132 104q-52 36 -52 124q-6 0 -8 88zM278 352q8 -88 24 -88 q306 166 432 492l8 28q-42 20 -76 20h-16q-78 0 -220 -140q-33 -12 -56 -80q-96 -145 -96 -232z" />
<glyph unicode="r" horiz-adv-x="995" d="M0 756v56q19 65 120 76h12q122 0 148 -172v-20l-4 -44q93 79 264 276q143 132 268 132h12q124 0 124 -56q14 -61 44 -88v-8q-357 -180 -516 -584q-76 -217 -76 -348q-120 -56 -160 -56q0 47 -100 92q0 66 -112 544q-24 98 -24 200z" />
<glyph unicode="s" horiz-adv-x="1085" d="M0 597v14q0 205 253 314q126 60 235 60h33q145 0 160 -71q28 -73 28 -89q-29 -44 -124 -68q-289 -45 -289 -78q43 -69 217 -118q301 -72 435 -135q125 -76 125 -200q0 -208 -367 -278q-108 -18 -200 -18q-371 25 -371 86q-39 42 -39 96v21q0 75 82 139q210 -100 350 -100 q116 0 189 68v4q-114 63 -414 132q-303 91 -303 221z" />
<glyph unicode="t" horiz-adv-x="1095" d="M-60 664v12q50 108 224 108q92 -4 92 -12q31 0 44 52l12 8h36l-4 52q0 356 72 900q53 68 136 68h16q90 0 132 -92q-80 -496 -80 -780v-172l56 -4q177 0 392 56l56 4h12q92 0 92 -88q0 -130 -176 -156q-81 -19 -404 -44q0 -8 -28 -8v-12l24 -252q0 -56 -24 -100 q28 -33 28 -96v-40q0 -137 -28 -148l-104 8q-19 0 -44 -28q-108 44 -108 348q0 272 -28 272q-37 40 -256 40q-102 0 -140 104z" />
<glyph unicode="u" horiz-adv-x="955" d="M30 206v44q0 287 124 484q48 52 92 52q55 0 116 -80q0 -58 -68 -280q-12 -41 -12 -108v-16q91 45 164 240q97 248 132 248l36 4h20q75 0 116 -64q35 -374 116 -608q56 -65 56 -128v-32q0 -34 -24 -52h-52q-150 0 -248 284l-28 44q-173 -195 -260 -248h-4l-40 8 q-17 0 -108 -36l-20 -4q-86 0 -104 188z" />
<glyph unicode="v" horiz-adv-x="1005" d="M0 666v32q0 124 212 124l216 -396l36 -52q122 81 208 424q68 192 112 192l44 4h36q63 0 108 -84q-28 -77 -32 -108l8 -36q-86 -71 -192 -528q-99 -308 -244 -308q-130 0 -296 332q-216 326 -216 404z" />
<glyph unicode="w" horiz-adv-x="1285" d="M0 548v48q0 222 108 292l44 12h40q80 0 92 -108v-20l-20 -264v-16q0 -77 28 -108q51 23 84 104q35 112 48 112q111 39 148 64q77 -11 212 -144q167 -184 196 -184q20 94 20 180v24l-32 408q0 120 36 120q37 32 72 32h16q97 0 136 -128l-12 -132v-52q0 -86 60 -448l8 -112 q0 -196 -48 -196q-69 -48 -144 -48q-147 0 -388 264q-69 65 -120 96q-126 -329 -200 -388q-94 -76 -156 -76q-42 0 -124 156q-104 278 -104 512z" />
<glyph unicode="x" horiz-adv-x="1035" d="M-50 -22q0 80 174 243q63 69 63 90q-27 44 -108 140q-42 60 -42 114q0 87 56 105l87 45h17q67 0 164 -195q33 -42 55 -42q47 0 341 254q71 63 139 63h18q88 0 121 -97l7 -32q-161 -175 -264 -240l-160 -108q115 -97 310 -243l-7 -45l7 -49q-76 -55 -136 -55 q-103 0 -292 163l-87 52q-59 -7 -195 -132q-100 -94 -191 -94q-8 -35 -18 -35h-7q-33 0 -52 81v17z" />
<glyph unicode="y" horiz-adv-x="1024" d="M0 440q0 251 96 588q48 96 104 96h28q44 0 104 -52v-12q0 -96 -80 -412q-24 -91 -24 -208l4 -68h12q53 0 156 128q17 0 48 88q220 408 220 508q16 55 16 128v8q47 41 80 96h88q57 0 92 -48q40 -755 40 -1064v-32l40 -568l4 -64q-5 -396 -312 -528q-67 -24 -136 -24 q-254 0 -516 304q-64 84 -64 156q47 48 100 48q41 0 164 -96q14 -12 72 -16l192 -116q40 -16 68 -16h8q125 0 164 224q20 118 20 324q0 336 -76 732q-69 -77 -208 -304q-128 -136 -180 -136q-59 -28 -168 -28h-16q-64 0 -120 168q-20 97 -20 196z" />
<glyph unicode="z" horiz-adv-x="1215" d="M0 90q0 26 60 140q0 23 156 104l400 240q94 69 136 112q-182 -16 -564 -32q-60 26 -60 112q0 118 128 152l108 -16q89 0 692 68h36q124 -23 124 -120q0 -188 -400 -432q-199 -101 -312 -192v-4q100 -19 504 -40q102 -16 168 -36v-12q-28 -132 -64 -132q-228 -32 -428 -32 h-100q-191 0 -320 36l-80 -8h-4q-158 0 -180 92z" />
<glyph unicode="{" horiz-adv-x="755" d="M0 788v20q0 122 204 204l40 28q-60 143 -60 296q0 353 236 460q35 12 80 12h76q51 0 116 12q48 -76 48 -136v-16q0 -53 -248 -120q-104 -45 -104 -176q0 -118 140 -320l16 -40q0 -56 -68 -140q-63 -58 -140 -80v-4q25 -29 148 -104q72 -65 72 -104q-15 -63 -140 -300 q-32 -81 -32 -144q0 -149 212 -192q132 -26 132 -48l4 -72q-6 -56 -32 -56q-20 -8 -92 -8h-4q-355 0 -428 228l-8 68v4q0 113 104 404l8 56q-141 75 -228 148q-52 63 -52 120z" />
<glyph unicode="|" horiz-adv-x="435" d="M30 1794v36q0 122 120 148h32q88 -83 128 -264l8 -68l-8 -64q32 -254 32 -544l-8 -632q0 -395 64 -740q-49 -129 -72 -156h-12q-40 22 -40 44h-4q-16 -44 -44 -44q-14 0 -32 16l-8 -8q-36 0 -48 100q-80 304 -80 808l8 784v32q0 279 -36 552z" />
<glyph unicode="}" horiz-adv-x="765" d="M20 1652v44q0 58 52 124q55 -12 100 -12h96q191 0 284 -280q16 -63 24 -188q0 -159 -64 -304h4q236 -117 236 -180q8 -18 8 -52v-4q0 -145 -252 -260l-32 -24q0 -23 108 -360l8 -100q0 -212 -268 -276q-65 -20 -168 -20h-4q-116 0 -116 28l-12 44q0 84 36 84 q276 73 276 112q24 0 40 112q0 102 -152 376q-20 47 -20 72q13 71 196 176l24 24v4q-134 43 -184 136q-24 61 -24 80v4q12 34 128 232q28 82 28 132q0 123 -100 168q-242 75 -252 108z" />
<glyph unicode="~" horiz-adv-x="1196" d="M40 672v32q0 92 44 100l32 4q45 0 212 -76l60 -8h24l108 172q92 108 196 108h24q71 0 240 -116q83 -36 124 -36h24q16 0 24 -60q-6 -80 -20 -80q-44 0 -44 -48l4 -12l-4 -4h-20q-308 0 -308 92h-12q-109 0 -204 -224q-45 -76 -88 -76h-28q-202 0 -368 124q-20 75 -20 108 z" />
<glyph unicode="&#xa1;" horiz-adv-x="569" d="M100 91q0 205 54 1035q8 332 44 332q49 50 105 57h24q94 -18 94 -166v-64q0 -94 -54 -606q-23 -292 -23 -460v-91l6 -210q-63 -66 -118 -74l-54 -14l-78 68v193zM191 1867q0 96 142 126h51q51 -38 51 -95v-21q0 -93 -68 -104l-64 -10q-70 0 -101 57q-11 24 -11 47z" />
<glyph unicode="&#xa2;" horiz-adv-x="1545" d="M0 438q0 82 95 210q117 122 407 193l126 38l-4 3v4q0 94 58 302h24q28 0 34 44l34 3h30q72 0 82 -105v-14l-11 -183v-24l51 4h31q151 0 197 -65l3 -10q0 -52 -88 -98q-66 -24 -200 -24l-4 -85v-105q0 -183 27 -183l99 -4h40q120 0 503 58q21 0 27 -64q0 -8 -48 -48l7 -17 q-177 -95 -268 -95l-102 -17q-16 -30 -27 -30l-20 3l-38 -7l-3 17q-42 -24 -88 -24h-68l-7 -54l10 -139v-23q0 -44 -27 -89q-156 13 -156 38q-81 45 -81 264l-4 20q0 20 -74 31q-361 81 -472 163q-95 87 -95 112zM268 509q208 -102 278 -102l68 -13l4 37q-3 214 -7 214 q-235 0 -343 -129v-7z" />
<glyph unicode="&#xa3;" horiz-adv-x="1945" d="M0 848q0 54 108 128q68 40 388 100q132 44 132 80l76 240q39 288 76 288q56 72 144 72h20q87 0 104 -124v-28q0 -74 -108 -300q-20 -59 -20 -96v-4l596 108h20q88 0 88 -72v-28q0 -186 -376 -236q-270 -40 -376 -84q-44 -15 -44 -80v-40q535 100 632 100q28 -41 28 -100 q0 -164 -356 -216l-304 -48q0 -70 88 -156q93 -52 196 -52h16q270 0 556 168q164 152 224 152h8q32 -2 32 -12v-8l-8 -80q3 -24 32 -48q-139 -183 -304 -272q-334 -200 -636 -200q-350 0 -492 420q-124 0 -436 -36q-19 56 -76 80l-4 4v4l12 24l-12 20q184 148 356 148 q172 22 172 112v16q-343 -44 -412 -44h-60z" />
<glyph unicode="&#xa4;" horiz-adv-x="1139" />
<glyph unicode="&#xa5;" horiz-adv-x="1005" d="M-10 338v12q0 79 88 144q56 20 148 20h48q190 0 732 -44q24 -35 24 -76v-4q0 -80 -80 -140l-640 32l-200 -12h-32q-88 0 -88 68zM-10 688v12q0 79 88 144q56 20 148 20h48q190 0 732 -44q24 -35 24 -76v-4q0 -80 -80 -140l-640 32l-200 -12h-32q-88 0 -88 68zM0 1586v32 q0 124 212 124l216 -396l36 -52q122 81 208 424q68 192 112 192l44 4h36q63 0 108 -84q-28 -77 -32 -108l8 -36q-86 -71 -192 -528q-99 -308 -244 -308q-130 0 -296 332q-216 326 -216 404zM358 138v48q0 190 44 732q35 24 76 24h4q80 0 140 -80l-32 -640l12 -200v-32 q0 -88 -68 -88h-12q-79 0 -144 88q-20 56 -20 148z" />
<glyph unicode="&#xa7;" horiz-adv-x="1139" />
<glyph unicode="&#xa9;" horiz-adv-x="1665" d="M0 762v27q0 324 193 557q111 104 183 110q185 49 444 49h12q412 0 673 -413q171 -253 171 -471v-37q0 -190 -134 -364q-104 -115 -352 -186q-144 -34 -263 -34h-52q-346 0 -606 208q-269 232 -269 554zM239 768q0 -334 333 -517q160 -67 297 -67h49q205 0 388 113 q100 63 150 235q12 64 12 110q0 241 -226 505q-161 181 -398 181q-371 0 -462 -123q-143 -176 -143 -425v-12zM532 682v18q0 187 159 313q55 30 107 30q45 0 89 -27l-6 -22l15 -40q0 -36 -91 -73q-89 -29 -89 -67q-22 -36 -22 -71v-18q0 -83 98 -83q83 0 248 71h31 q122 0 122 -40q-33 -83 -242 -165q-113 -43 -195 -43q-161 0 -218 153q-6 16 -6 64z" />
<glyph unicode="&#xaa;" horiz-adv-x="1295" d="M0 210v16q0 227 292 560q181 148 420 252q68 52 132 52h20q79 0 104 -132q0 -73 84 -448q60 -213 172 -356q68 -100 68 -156v-24q0 -48 -60 -48q-59 -36 -76 -36q-111 39 -200 176q-51 97 -164 376l-24 32q-147 -229 -252 -348q-133 -136 -300 -136q-162 0 -212 168z M284 266l4 -4h4q97 0 196 168q180 224 180 348l-4 4h-8q-69 -21 -256 -212q-116 -144 -116 -304z" />
<glyph unicode="&#xab;" horiz-adv-x="1139" />
<glyph unicode="&#xad;" horiz-adv-x="1055" d="M10 548v12q0 79 88 144q56 20 148 20h48q190 0 732 -44q24 -35 24 -76v-4q0 -80 -80 -140l-640 32l-200 -12h-32q-88 0 -88 68z" />
<glyph unicode="&#xae;" horiz-adv-x="1665" d="M0 762v27q0 324 193 557q111 104 183 110q185 49 444 49h12q412 0 673 -413q171 -253 171 -471v-37q0 -190 -134 -364q-104 -115 -352 -186q-144 -34 -263 -34h-52q-346 0 -606 208q-269 232 -269 554zM239 768q0 -334 333 -517q160 -67 297 -67h49q205 0 388 113 q100 63 150 235q12 64 12 110q0 241 -226 505q-161 181 -398 181q-371 0 -462 -123q-143 -176 -143 -425v-12zM450 1032v9q0 55 153 66h6q19 41 62 41h6q50 0 50 -48q63 0 414 -103q70 -25 70 -55v-3q0 -144 -199 -223q-77 -34 -125 -63q115 -55 387 -161q165 -56 216 -82 v-5q0 -56 -85 -66l-20 -2q-113 0 -458 175q-138 55 -171 55v-14q0 -13 23 -131l2 -17q0 -64 -73 -64q-29 17 -49 80l-34 166h-70q-63 0 -63 34q0 60 107 87v2q-13 66 -13 227v73h-16l-86 -8q-34 4 -34 30zM698 890q0 -88 24 -177q184 44 265 90q68 44 98 95v2 q-235 81 -268 81q-60 14 -114 14q-5 -25 -5 -71v-34z" />
<glyph unicode="&#xb2;" horiz-adv-x="1585" d="M0 184v16q0 51 76 184q282 188 668 544q240 258 324 404l-4 20v104q0 50 -72 60q-37 12 -104 16q-236 0 -412 -256q-51 -105 -60 -108q-58 -32 -120 -32q-112 11 -112 48q0 157 164 364q271 288 604 288h32q280 0 384 -228q28 -65 28 -144v-28q0 -280 -304 -584 q-205 -208 -392 -340q-116 -104 -156 -152v-4q433 -48 620 -48q88 0 300 28h4q108 0 108 -80v-32q-13 -128 -40 -128q-169 -96 -540 -96q-792 25 -792 48q-200 43 -200 100z" />
<glyph unicode="&#xb3;" horiz-adv-x="1585" d="M0 552v8q0 7 44 32q41 64 68 64q77 0 304 -192q307 -172 580 -172h48q121 0 208 112l4 32q-19 90 -240 228q-61 28 -292 80q-152 54 -152 148q0 130 344 260q77 26 176 156l-4 56l36 128q-17 12 -80 20q-106 0 -420 -164q-73 -32 -128 -32q-83 0 -96 108v16q0 19 44 72 q4 62 392 228q153 48 268 48h32q153 0 280 -80q2 -17 24 -36q12 -61 12 -124v-12q0 -309 -324 -532l-32 -28v-4q152 -58 360 -260q120 -146 120 -280q0 -212 -272 -360q-158 -72 -340 -72h-44q-419 0 -788 304q-108 91 -108 148q0 22 -24 100z" />
<glyph unicode="&#xb4;" horiz-adv-x="682" d="M30 1388v16q0 102 208 296q60 65 148 220q48 52 108 52l88 -120q-30 -169 -104 -204q-237 -191 -256 -308q0 -36 -140 -36l-24 -4q-28 42 -28 88z" />
<glyph unicode="&#xb6;" horiz-adv-x="1100" />
<glyph unicode="&#xb9;" horiz-adv-x="515" d="M0 1348v16q0 33 112 208q48 97 140 368q17 19 112 56h28q43 0 64 -104q16 -15 16 -24q0 -49 -124 -764q-20 -119 -20 -224l28 -528q0 -310 -140 -392q0 35 -96 52q-48 165 -48 564v20q0 370 24 572v8q0 37 -92 152z" />
<glyph unicode="&#xba;" horiz-adv-x="795" d="M10 317v21q0 187 53 343q11 15 99 53q18 13 74 89q65 42 226 42h4q206 0 286 -251q22 -65 22 -148v-36q0 -285 -216 -459q-118 -71 -212 -71h-14q-212 0 -301 272q-21 74 -21 145zM268 314q11 -163 71 -163q85 37 138 131q42 81 42 159v14q0 120 -88 201q-66 0 -121 -84 q-28 -33 -38 -36l3 -32z" />
<glyph unicode="&#xbb;" horiz-adv-x="1139" />
<glyph unicode="&#xbc;" horiz-adv-x="1480" d="M20 1588v7q0 14 50 92q21 44 62 164q8 9 50 25h12q20 0 29 -46q7 -7 7 -11q0 -22 -55 -340q-9 -53 -9 -100l12 -234q0 -138 -62 -175q0 16 -43 23q-21 74 -21 251v9q0 165 11 255v3q0 17 -41 68zM130 91v7q27 167 186 570l269 610q107 257 137 369q29 69 54 69h6 q21 0 38 -51q0 -116 -47 -278q-35 -66 -73 -182q-7 -36 -321 -753q-99 -250 -145 -412q-53 -55 -60 -55h-3q-6 7 -6 26v7l3 29l-19 -7q-11 11 -11 33l1 3q-6 0 -9 15zM440 190v8q0 57 140 174l341 298q132 144 147 144q51 0 66 -58v-16q0 -8 -29 -66q-12 -34 -18 -273 l-10 -59h4q45 0 222 45l61 6q63 0 105 -31q-12 0 -49 -94q-6 -11 -19 -11q-84 -16 -275 -67q-45 -5 -45 -13q-13 -26 -13 -72l23 -209v-14q0 -51 -39 -88q-11 -9 -23 -9q-45 0 -73 107q-6 31 -11 232q-7 41 -10 41q-250 -41 -372 -41h-12l-80 2q-31 25 -31 64zM705 309 q187 13 248 22v2l9 126q0 35 -13 67h-2q-53 -51 -172 -141q-54 -48 -70 -76z" />
<glyph unicode="&#xbd;" horiz-adv-x="1290" d="M110 1588v7q0 14 50 92q21 44 62 164q8 9 50 25h12q20 0 29 -46q7 -7 7 -11q0 -22 -55 -340q-9 -53 -9 -100l12 -234q0 -138 -62 -175q0 16 -43 23q-21 74 -21 251v9q0 165 11 255v3q0 17 -41 68zM140 91v7q27 167 186 570l269 610q107 257 137 369q29 69 54 69h6 q21 0 38 -51q0 -116 -47 -278q-35 -66 -73 -182q-7 -36 -321 -753q-99 -250 -145 -412q-53 -55 -60 -55h-3q-6 7 -6 26v7l3 29l-19 -7q-11 11 -11 33l1 3q-6 0 -9 15zM560 80v7q0 22 33 80q123 82 291 237q104 112 141 176l-2 8v46q0 22 -31 26q-16 5 -45 7 q-103 0 -180 -112q-22 -45 -26 -47q-25 -14 -52 -14q-49 5 -49 21q0 69 71 159q118 125 263 125h14q122 0 167 -99q13 -28 13 -63v-12q0 -122 -133 -254q-89 -91 -170 -148q-51 -45 -68 -66v-2q188 -21 270 -21q38 0 130 12h2q47 0 47 -35v-13q-6 -56 -17 -56 q-74 -42 -235 -42q-345 11 -345 21q-87 19 -87 43z" />
<glyph unicode="&#xbe;" horiz-adv-x="1620" d="M0 1302v3q0 3 17 12q16 26 27 26q30 0 120 -76q120 -68 228 -68h19q47 0 82 45l1 12q-7 36 -94 90q-24 11 -115 31q-60 22 -60 59q0 51 135 102q31 10 70 61l-2 22l14 51q-7 4 -31 7q-42 0 -166 -64q-28 -13 -50 -13q-33 0 -38 43v6q0 8 18 28q1 25 154 90q60 19 105 19 h13q60 0 110 -31q1 -7 9 -15q5 -24 5 -48v-5q0 -122 -127 -209l-13 -11v-2q60 -23 142 -102q47 -58 47 -110q0 -84 -107 -142q-62 -28 -134 -28h-17q-165 0 -310 119q-43 36 -43 58q0 9 -9 40zM340 91v7q27 167 186 570l269 610q107 257 137 369q29 69 54 69h6q21 0 38 -51 q0 -116 -47 -278q-35 -66 -73 -182q-7 -36 -321 -753q-99 -250 -145 -412q-53 -55 -60 -55h-3q-6 7 -6 26v7l3 29l-19 -7q-11 11 -11 33l1 3q-6 0 -9 15zM580 190v8q0 57 140 174l341 298q132 144 147 144q51 0 66 -58v-16q0 -8 -29 -66q-12 -34 -18 -273l-10 -59h4 q45 0 222 45l61 6q63 0 105 -31q-12 0 -49 -94q-6 -11 -19 -11q-84 -16 -275 -67q-45 -5 -45 -13q-13 -26 -13 -72l23 -209v-14q0 -51 -39 -88q-11 -9 -23 -9q-45 0 -73 107q-6 31 -11 232q-7 41 -10 41q-250 -41 -372 -41h-12l-80 2q-31 25 -31 64zM845 309q187 13 248 22 v2l9 126q0 35 -13 67h-2q-53 -51 -172 -141q-54 -48 -70 -76z" />
<glyph unicode="&#xbf;" horiz-adv-x="1165" d="M0 122q0 379 532 480l284 52q-44 345 -44 400v20q0 136 36 136q60 57 148 76q18 -5 100 -80l-8 -72q0 -109 100 -480l4 -76q0 -129 -92 -188q-733 -64 -788 -160q0 -52 296 -156q187 -60 304 -60q62 0 168 68l24 4h8q81 0 96 -116v-20q0 -43 -92 -124q-8 -32 -36 -32 q-121 -24 -224 -24h-36q-418 0 -712 268q-68 71 -68 84zM740 1738v40q0 126 108 180l52 8q112 -13 112 -112v-8q0 -141 -136 -188l-20 -4q-100 0 -116 84z" />
<glyph unicode="&#xc0;" d="M-70 556q26 57 112 96l284 84q32 10 96 116q220 346 324 588q48 109 104 284q49 104 136 104h12q106 0 248 -144v-40q0 -261 180 -784l44 -4l160 8q76 0 76 -44q16 -2 16 -12q0 -101 -132 -136l-84 -20q171 -434 308 -588q104 -99 104 -188q0 -53 -48 -72q0 -13 -60 -24 h-24q-130 0 -320 432q-104 184 -200 420l-124 8q-540 -34 -540 -100q-30 -25 -152 -292q-74 -108 -164 -108h-24q-86 0 -100 44l-8 64q0 41 36 192q0 19 -200 52q-60 29 -60 64zM670 2395l88 90q60 0 108 -39q88 -117 148 -165q208 -146 208 -223v-12q0 -34 -28 -66l-24 3 q-140 0 -140 27q-19 88 -256 232q-74 26 -104 153zM770 828h4q58 0 320 60l52 4h4q-70 271 -112 328l-32 32q-152 -240 -236 -420v-4z" />
<glyph unicode="&#xc1;" d="M-70 556q26 57 112 96l284 84q32 10 96 116q220 346 324 588q48 109 104 284q49 104 136 104h12q106 0 248 -144v-40q0 -261 180 -784l44 -4l160 8q76 0 76 -44q16 -2 16 -12q0 -101 -132 -136l-84 -20q171 -434 308 -588q104 -99 104 -188q0 -53 -48 -72q0 -13 -60 -24 h-24q-130 0 -320 432q-104 184 -200 420l-124 8q-540 -34 -540 -100q-30 -25 -152 -292q-74 -108 -164 -108h-24q-86 0 -100 44l-8 64q0 41 36 192q0 19 -200 52q-60 29 -60 64zM640 2026v12q0 77 208 223q60 48 148 165q48 39 108 39l88 -90q-30 -127 -104 -153 q-237 -144 -256 -232q0 -27 -140 -27l-24 -3q-28 32 -28 66zM770 828h4q58 0 320 60l52 4h4q-70 271 -112 328l-32 32q-152 -240 -236 -420v-4z" />
<glyph unicode="&#xc2;" d="M-70 556q26 57 112 96l284 84q32 10 96 116q220 346 324 588q48 109 104 284q49 104 136 104h12q106 0 248 -144v-40q0 -261 180 -784l44 -4l160 8q76 0 76 -44q16 -2 16 -12q0 -101 -132 -136l-84 -20q171 -434 308 -588q104 -99 104 -188q0 -53 -48 -72q0 -13 -60 -24 h-24q-130 0 -320 432q-104 184 -200 420l-124 8q-540 -34 -540 -100q-30 -25 -152 -292q-74 -108 -164 -108h-24q-86 0 -100 44l-8 64q0 41 36 192q0 19 -200 52q-60 29 -60 64zM620 2045v13q0 82 166 237q48 52 118 175q39 42 87 42h38q58 -109 243 -371q22 -33 22 -45v-3 l-16 -51l7 -25l-3 -4h-4q0 7 -22 13l-51 -16q-26 0 -118 106q-58 85 -109 137q-189 -153 -205 -246q0 -29 -111 -29l-20 -3q-22 34 -22 70zM770 828h4q58 0 320 60l52 4h4q-70 271 -112 328l-32 32q-152 -240 -236 -420v-4z" />
<glyph unicode="&#xc3;" d="M-70 556q26 57 112 96l284 84q32 10 96 116q220 346 324 588q48 109 104 284q49 104 136 104h12q106 0 248 -144v-40q0 -261 180 -784l44 -4l160 8q76 0 76 -44q16 -2 16 -12q0 -101 -132 -136l-84 -20q171 -434 308 -588q104 -99 104 -188q0 -53 -48 -72q0 -13 -60 -24 h-24q-130 0 -320 432q-104 184 -200 420l-124 8q-540 -34 -540 -100q-30 -25 -152 -292q-74 -108 -164 -108h-24q-86 0 -100 44l-8 64q0 41 36 192q0 19 -200 52q-60 29 -60 64zM490 2031v20q0 56 33 60l24 3q34 0 160 -46l45 -5h18l82 104q69 66 147 66h18q54 0 181 -71 q63 -21 94 -21h18q12 0 18 -37q-5 -49 -15 -49q-33 0 -33 -29l3 -7l-3 -3h-15q-232 0 -232 56h-9q-83 0 -154 -136q-34 -46 -67 -46h-21q-152 0 -277 75q-15 46 -15 66zM770 828h4q58 0 320 60l52 4h4q-70 271 -112 328l-32 32q-152 -240 -236 -420v-4z" />
<glyph unicode="&#xc4;" d="M-70 556q26 57 112 96l284 84q32 10 96 116q220 346 324 588q48 109 104 284q49 104 136 104h12q106 0 248 -144v-40q0 -261 180 -784l44 -4l160 8q76 0 76 -44q16 -2 16 -12q0 -101 -132 -136l-84 -20q171 -434 308 -588q104 -99 104 -188q0 -53 -48 -72q0 -13 -60 -24 h-24q-130 0 -320 432q-104 184 -200 420l-124 8q-540 -34 -540 -100q-30 -25 -152 -292q-74 -108 -164 -108h-24q-86 0 -100 44l-8 64q0 41 36 192q0 19 -200 52q-60 29 -60 64zM740 2063v12q0 64 67 100l61 11h11q81 -19 81 -70v-5q0 -80 -111 -128l-28 -3q-55 0 -78 64z M770 828h4q58 0 320 60l52 4h4q-70 271 -112 328l-32 32q-152 -240 -236 -420v-4zM1090 2063v12q0 64 67 100l61 11h11q81 -19 81 -70v-5q0 -80 -111 -128l-28 -3q-55 0 -78 64z" />
<glyph unicode="&#xc5;" d="M-70 556q26 57 112 96l284 84q32 10 96 116q220 346 324 588q48 109 104 284q49 104 136 104h12q106 0 248 -144v-40q0 -261 180 -784l44 -4l160 8q76 0 76 -44q16 -2 16 -12q0 -101 -132 -136l-84 -20q171 -434 308 -588q104 -99 104 -188q0 -53 -48 -72q0 -13 -60 -24 h-24q-130 0 -320 432q-104 184 -200 420l-124 8q-540 -34 -540 -100q-30 -25 -152 -292q-74 -108 -164 -108h-24q-86 0 -100 44l-8 64q0 41 36 192q0 19 -200 52q-60 29 -60 64zM753 1996v13q0 24 33 186v37q115 113 236 113h50q18 0 86 -86q84 -84 84 -160v-10 q0 -120 -80 -236q-65 -53 -153 -53h-17q-163 0 -229 143q-10 21 -10 53zM770 828h4q58 0 320 60l52 4h4q-70 271 -112 328l-32 32q-152 -240 -236 -420v-4zM922 2071q20 -117 107 -117h15q31 19 31 61q-6 137 -31 137h-40q-82 0 -82 -81z" />
<glyph unicode="&#xc6;" horiz-adv-x="2650" d="M-60 556q26 57 112 96l284 84q32 10 96 116q220 346 324 588q48 109 104 284q49 104 136 104h12q106 0 248 -144v-40q0 -261 180 -784l44 -4l-4 -644q-104 184 -200 420l-124 8q-540 -34 -540 -100q-30 -25 -152 -292q-144 -218 -234 -218h-24q-86 0 -100 44l-8 64 q70 151 106 302q0 19 -200 52q-60 29 -60 64zM780 828h4q58 0 320 60l52 4h4q-70 271 -112 328l-32 32q-152 -240 -236 -420v-4zM1030 1434v40q0 157 284 220q8 0 72 72q10 0 84 64h8q101 0 188 -100h8q117 0 392 92q69 24 140 24h20q83 0 120 -32v-32q0 -221 -504 -276 q-292 -28 -292 -48q-44 -124 -44 -296v-44q474 120 716 120q180 -6 180 -24v-32q0 -25 20 -44q-49 -87 -216 -140q-120 -28 -512 -76q-80 -20 -164 -52q72 -316 164 -552l44 -96l20 -4q127 0 468 164q358 156 568 156q148 -8 148 -24v-132q0 -9 -160 -32 q-438 -109 -796 -392q-140 -88 -244 -88h-44q-153 0 -252 288q-72 179 -188 604q-70 0 -148 60v12q0 74 96 14q16 188 16 198l-4 44l12 280l4 4l-48 -4h-36q-120 0 -120 64z" />
<glyph unicode="&#xc7;" d="M0 732v28q0 428 628 872q324 196 492 196h28q188 -16 188 -124v-8q0 -130 -384 -216q-201 -83 -460 -320q-204 -226 -204 -432v-36q0 -292 412 -388q104 -24 228 -24q434 0 736 284q70 46 280 260q200 176 344 176l8 -12v-8q0 -154 -172 -320q0 -24 -208 -236 q-451 -424 -1032 -424q-577 0 -780 380q-104 167 -104 352zM710 -152q0 36 112 121q34 41 34 62v12q0 8 57 12q77 -3 77 -10q0 -22 46 -22l11 2l4 -2v-10q0 -155 -88 -155v-6q0 -55 215 -103q72 -23 72 -44v-14q0 -102 -118 -186q-72 -10 -104 -10h-30q-88 0 -96 22l-4 16 q0 23 73 107l8 30v12l-165 55q-104 46 -104 99v12z" />
<glyph unicode="&#xc8;" horiz-adv-x="1515" d="M-50 1404v40q0 157 284 220q8 0 72 72q10 0 84 64h8q101 0 188 -100h8q117 0 392 92q69 24 140 24h20q83 0 120 -32v-32q0 -221 -504 -276q-292 -28 -292 -48q-44 -124 -44 -296v-44q474 120 716 120q180 -6 180 -24v-32q0 -25 20 -44q-49 -87 -216 -140 q-120 -28 -512 -76q-80 -20 -164 -52q72 -316 164 -552l44 -96l20 -4q127 0 468 164q358 156 568 156q148 -8 148 -24v-132q0 -9 -160 -32q-438 -109 -796 -392q-140 -88 -244 -88h-44q-153 0 -252 288q-72 179 -188 604q-70 0 -148 60v12q0 74 96 184q16 18 16 28l-4 44 l12 280l4 4l-48 -4h-36q-120 0 -120 64zM290 2365l88 90q60 0 108 -39q88 -117 148 -165q208 -146 208 -223v-12q0 -34 -28 -66l-24 3q-140 0 -140 27q-19 88 -256 232q-74 26 -104 153z" />
<glyph unicode="&#xc9;" horiz-adv-x="1515" d="M-80 1404v40q0 157 284 220q8 0 72 72q10 0 84 64h8q101 0 188 -100h8q117 0 392 92q69 24 140 24h20q83 0 120 -32v-32q0 -221 -504 -276q-292 -28 -292 -48q-44 -124 -44 -296v-44q474 120 716 120q180 -6 180 -24v-32q0 -25 20 -44q-49 -87 -216 -140 q-120 -28 -512 -76q-80 -20 -164 -52q72 -316 164 -552l44 -96l20 -4q127 0 468 164q358 156 568 156q148 -8 148 -24v-132q0 -9 -160 -32q-438 -109 -796 -392q-140 -88 -244 -88h-44q-153 0 -252 288q-72 179 -188 604q-70 0 -148 60v12q0 74 96 184q16 18 16 28l-4 44 l12 280l4 4l-48 -4h-36q-120 0 -120 64zM350 2046v12q0 77 208 223q60 48 148 165q48 39 108 39l88 -90q-30 -127 -104 -153q-237 -144 -256 -232q0 -27 -140 -27l-24 -3q-28 32 -28 66z" />
<glyph unicode="&#xca;" horiz-adv-x="1515" d="M-80 1404v40q0 157 284 220q8 0 72 72q10 0 84 64h8q101 0 188 -100h8q117 0 392 92q69 24 140 24h20q83 0 120 -32v-32q0 -221 -504 -276q-292 -28 -292 -48q-44 -124 -44 -296v-44q474 120 716 120q180 -6 180 -24v-32q0 -25 20 -44q-49 -87 -216 -140 q-120 -28 -512 -76q-80 -20 -164 -52q72 -316 164 -552l44 -96l20 -4q127 0 468 164q358 156 568 156q148 -8 148 -24v-132q0 -9 -160 -32q-438 -109 -796 -392q-140 -88 -244 -88h-44q-153 0 -252 288q-72 179 -188 604q-70 0 -148 60v12q0 74 96 184q16 18 16 28l-4 44 l12 280l4 4l-48 -4h-36q-120 0 -120 64zM240 2045v13q0 82 166 237q48 52 118 175q39 42 87 42h38q58 -109 243 -371q22 -33 22 -45v-3l-16 -51l7 -25l-3 -4h-4q0 7 -22 13l-51 -16q-26 0 -118 106q-58 85 -109 137q-189 -153 -205 -246q0 -29 -111 -29l-20 -3 q-22 34 -22 70z" />
<glyph unicode="&#xcb;" horiz-adv-x="1515" d="M-80 1404v40q0 157 284 220q8 0 72 72q10 0 84 64h8q101 0 188 -100h8q117 0 392 92q69 24 140 24h20q83 0 120 -32v-32q0 -221 -504 -276q-292 -28 -292 -48q-44 -124 -44 -296v-44q474 120 716 120q180 -6 180 -24v-32q0 -25 20 -44q-49 -87 -216 -140 q-120 -28 -512 -76q-80 -20 -164 -52q72 -316 164 -552l44 -96l20 -4q127 0 468 164q358 156 568 156q148 -8 148 -24v-132q0 -9 -160 -32q-438 -109 -796 -392q-140 -88 -244 -88h-44q-153 0 -252 288q-72 179 -188 604q-70 0 -148 60v12q0 74 96 184q16 18 16 28l-4 44 l12 280l4 4l-48 -4h-36q-120 0 -120 64zM260 2043v12q0 64 67 100l61 11h11q81 -19 81 -70v-5q0 -80 -111 -128l-28 -3q-55 0 -78 64zM610 2043v12q0 64 67 100l61 11h11q81 -19 81 -70v-5q0 -80 -111 -128l-28 -3q-55 0 -78 64z" />
<glyph unicode="&#xcc;" horiz-adv-x="475" d="M-110 2475l88 90q60 0 108 -39q88 -117 148 -165q208 -146 208 -223v-12q0 -34 -28 -66l-24 3q-140 0 -140 27q-19 88 -256 232q-74 26 -104 153zM0 1634v188q0 87 20 112q51 48 108 48h20q119 0 164 -132v-16l-36 -132q-12 -98 -12 -200v-100q0 -288 156 -1160l32 -328 q-48 -64 -148 -64q-108 10 -108 48q-188 1137 -188 1488q-7 0 -8 248z" />
<glyph unicode="&#xcd;" horiz-adv-x="475" d="M-100 2166v12q0 77 208 223q60 48 148 165q48 39 108 39l88 -90q-30 -127 -104 -153q-237 -144 -256 -232q0 -27 -140 -27l-24 -3q-28 32 -28 66zM0 1634v188q0 87 20 112q51 48 108 48h20q119 0 164 -132v-16l-36 -132q-12 -98 -12 -200v-100q0 -288 156 -1160l32 -328 q-48 -64 -148 -64q-108 10 -108 48q-188 1137 -188 1488q-7 0 -8 248z" />
<glyph unicode="&#xce;" horiz-adv-x="475" d="M-170 2145v13q0 82 167 237q47 52 117 175q39 42 87 42h38q58 -109 243 -371q22 -33 22 -45v-3l-16 -51l7 -25l-3 -4h-4q0 7 -22 13l-51 -16q-26 0 -118 106q-58 85 -109 137q-189 -153 -204 -246q0 -29 -112 -29l-19 -3q-23 34 -23 70zM0 1634v188q0 87 20 112 q51 48 108 48h20q119 0 164 -132v-16l-36 -132q-12 -98 -12 -200v-100q0 -288 156 -1160l32 -328q-48 -64 -148 -64q-108 10 -108 48q-188 1137 -188 1488q-7 0 -8 248z" />
<glyph unicode="&#xcf;" horiz-adv-x="475" d="M-120 2223v12q0 64 67 100l61 11h11q81 -19 81 -70v-5q0 -80 -111 -128l-28 -3q-54 0 -78 64zM0 1634v188q0 87 20 112q51 48 108 48h20q119 0 164 -132v-16l-36 -132q-12 -98 -12 -200v-100q0 -288 156 -1160l32 -328q-48 -64 -148 -64q-108 10 -108 48 q-188 1137 -188 1488q-7 0 -8 248zM230 2223v12q0 64 67 100l61 11h11q81 -19 81 -70v-5q0 -80 -111 -128l-28 -3q-55 0 -78 64z" />
<glyph unicode="&#xd1;" horiz-adv-x="1335" d="M0 166v44q0 135 88 676q11 109 20 428q22 161 68 224l4 4l4 -4h92l60 4q111 -211 312 -760q153 -353 292 -508l60 -64h4l24 1728q52 48 112 48h16q102 0 140 -112l4 -28q-32 -92 -32 -140l-16 -920q0 -378 48 -736v-52q0 -180 -68 -180l-72 -8h-8q-206 0 -408 344 q-69 101 -280 488l-92 132h-4q-56 -174 -84 -608q-5 -208 -24 -208q-47 -32 -124 -32h-20q-67 0 -76 36q-40 96 -40 204zM270 2111v20q0 56 33 60l24 3q34 0 160 -46l45 -5h18l82 104q69 66 147 66h18q54 0 181 -71q63 -21 94 -21h18q12 0 18 -37q-5 -49 -15 -49 q-33 0 -33 -29l3 -7l-3 -3h-15q-232 0 -232 56h-9q-83 0 -154 -136q-34 -46 -67 -46h-21q-152 0 -277 75q-15 46 -15 66z" />
<glyph unicode="&#xd2;" horiz-adv-x="1255" d="M0 898v60q0 476 180 780q92 98 188 112q138 28 224 28h16q383 0 588 -876q28 -159 28 -304v-16q0 -339 -148 -564q-184 -208 -400 -208h-44q-255 0 -456 300q-176 303 -176 688zM256 958q18 -613 308 -776q66 -28 112 -28h16q156 0 256 232q40 127 40 264v48 q0 356 -180 728q-136 212 -224 212h-12q-64 0 -104 -128h-4l-64 12h-16q-25 -6 -76 -172q-52 -207 -52 -392zM260 2395l88 90q60 0 108 -39q88 -117 148 -165q208 -146 208 -223v-12q0 -34 -28 -66l-24 3q-140 0 -140 27q-19 88 -256 232q-74 26 -104 153z" />
<glyph unicode="&#xd3;" horiz-adv-x="1255" d="M0 898v60q0 476 180 780q92 98 188 112q138 28 224 28h16q383 0 588 -876q28 -159 28 -304v-16q0 -339 -148 -564q-184 -208 -400 -208h-44q-255 0 -456 300q-176 303 -176 688zM190 2096v12q0 77 208 223q60 48 148 165q48 39 108 39l88 -90q-30 -127 -104 -153 q-237 -144 -256 -232q0 -27 -140 -27l-24 -3q-28 32 -28 66zM256 958q18 -613 308 -776q66 -28 112 -28h16q156 0 256 232q40 127 40 264v48q0 356 -180 728q-136 212 -224 212h-12q-64 0 -104 -128h-4l-64 12h-16q-25 -6 -76 -172q-52 -207 -52 -392z" />
<glyph unicode="&#xd4;" horiz-adv-x="1255" d="M0 898v60q0 476 180 780q92 98 188 112q138 28 224 28h16q383 0 588 -876q28 -159 28 -304v-16q0 -339 -148 -564q-184 -208 -400 -208h-44q-255 0 -456 300q-176 303 -176 688zM160 2075v13q0 82 166 237q48 52 118 175q39 42 87 42h38q58 -109 243 -371q22 -33 22 -45 v-3l-16 -51l7 -25l-3 -4h-4q0 7 -22 13l-51 -16q-26 0 -118 106q-58 85 -109 137q-189 -153 -205 -246q0 -29 -111 -29l-20 -3q-22 34 -22 70zM256 958q18 -613 308 -776q66 -28 112 -28h16q156 0 256 232q40 127 40 264v48q0 356 -180 728q-136 212 -224 212h-12 q-64 0 -104 -128h-4l-64 12h-16q-25 -6 -76 -172q-52 -207 -52 -392z" />
<glyph unicode="&#xd5;" horiz-adv-x="1255" d="M0 898v60q0 476 180 780q92 98 188 112q138 28 224 28h16q383 0 588 -876q28 -159 28 -304v-16q0 -339 -148 -564q-184 -208 -400 -208h-44q-255 0 -456 300q-176 303 -176 688zM30 2111v20q0 56 33 60l24 3q34 0 160 -46l45 -5h18l82 104q69 66 147 66h18q54 0 181 -71 q63 -21 94 -21h18q12 0 18 -37q-5 -49 -15 -49q-33 0 -33 -29l3 -7l-3 -3h-15q-232 0 -232 56h-9q-83 0 -154 -136q-34 -46 -67 -46h-21q-152 0 -277 75q-15 46 -15 66zM256 958q18 -613 308 -776q66 -28 112 -28h16q156 0 256 232q40 127 40 264v48q0 356 -180 728 q-136 212 -224 212h-12q-64 0 -104 -128h-4l-64 12h-16q-25 -6 -76 -172q-52 -207 -52 -392z" />
<glyph unicode="&#xd6;" horiz-adv-x="1255" d="M0 898v60q0 476 180 780q92 98 188 112q138 28 224 28h16q383 0 588 -876q28 -159 28 -304v-16q0 -339 -148 -564q-184 -208 -400 -208h-44q-255 0 -456 300q-176 303 -176 688zM230 2073v12q0 64 67 100l61 11h11q81 -19 81 -70v-5q0 -80 -111 -128l-28 -3q-55 0 -78 64 zM256 958q18 -613 308 -776q66 -28 112 -28h16q156 0 256 232q40 127 40 264v48q0 356 -180 728q-136 212 -224 212h-12q-64 0 -104 -128h-4l-64 12h-16q-25 -6 -76 -172q-52 -207 -52 -392zM580 2073v12q0 64 67 100l61 11h11q81 -19 81 -70v-5q0 -80 -111 -128l-28 -3 q-55 0 -78 64z" />
<glyph unicode="&#xd8;" horiz-adv-x="1255" d="M0 -4v8q51 183 354 624l509 668q203 282 261 404q55 76 102 76h12q39 0 72 -56q0 -127 -90 -304q-67 -73 -138 -200q-13 -39 -608 -824q-188 -274 -276 -452q-101 -60 -114 -60h-6q-12 7 -12 28v8l6 32l-36 -8q-21 12 -21 36l3 4q-12 0 -18 16zM0 898v60q0 476 180 780 q92 98 188 112q138 28 224 28h16q383 0 588 -876q28 -159 28 -304v-16q0 -339 -148 -564q-184 -208 -400 -208h-44q-255 0 -456 300q-176 303 -176 688zM256 958q18 -613 308 -776q66 -28 112 -28h16q156 0 256 232q40 127 40 264v48q0 356 -180 728q-136 212 -224 212h-12 q-64 0 -104 -128h-4l-64 12h-16q-25 -6 -76 -172q-52 -207 -52 -392z" />
<glyph unicode="&#xd9;" horiz-adv-x="1235" d="M10 1050v64q0 389 108 688q11 8 124 20q104 0 104 -100l-44 -224q-22 -172 -24 -344q0 -761 304 -968l48 -12q101 0 212 200q84 201 84 520v36q0 612 -148 964q-8 16 -8 44v16q0 72 92 84h120q39 -50 104 -260q116 -416 116 -812q0 -620 -268 -896q-173 -140 -352 -140 q-268 0 -408 316q-164 318 -164 804zM110 2495l88 90q60 0 108 -39q88 -117 148 -165q208 -146 208 -223v-12q0 -34 -28 -66l-24 3q-140 0 -140 27q-19 88 -256 232q-74 26 -104 153z" />
<glyph unicode="&#xda;" horiz-adv-x="1235" d="M130 1050v64q0 389 108 688q11 8 124 20q104 0 104 -100l-44 -224q-22 -172 -24 -344q0 -761 304 -968l48 -12q101 0 212 200q84 201 84 520v36q0 612 -148 964q-8 16 -8 44v16q0 72 92 84h120q39 -50 104 -260q116 -416 116 -812q0 -620 -268 -896q-173 -140 -352 -140 q-268 0 -408 316q-164 318 -164 804zM340 2126v12q0 77 208 223q60 48 148 165q48 39 108 39l88 -90q-30 -127 -104 -153q-237 -144 -256 -232q0 -27 -140 -27l-24 -3q-28 32 -28 66z" />
<glyph unicode="&#xdb;" horiz-adv-x="1235" d="M10 1050v64q0 389 108 688q11 8 124 20q104 0 104 -100l-44 -224q-22 -172 -24 -344q0 -761 304 -968l48 -12q101 0 212 200q84 201 84 520v36q0 612 -148 964q-8 16 -8 44v16q0 72 92 84h120q39 -50 104 -260q116 -416 116 -812q0 -620 -268 -896q-173 -140 -352 -140 q-268 0 -408 316q-164 318 -164 804zM110 2185v13q0 82 166 237q48 52 118 175q39 42 87 42h38q58 -109 243 -371q22 -33 22 -45v-3l-16 -51l7 -25l-3 -4h-4q0 7 -22 13l-51 -16q-26 0 -118 106q-58 85 -109 137q-189 -153 -205 -246q0 -29 -111 -29l-20 -3q-22 34 -22 70z " />
<glyph unicode="&#xdc;" horiz-adv-x="1235" d="M10 1050v64q0 389 108 688q11 8 124 20q104 0 104 -100l-44 -224q-22 -172 -24 -344q0 -761 304 -968l48 -12q101 0 212 200q84 201 84 520v36q0 612 -148 964q-8 16 -8 44v16q0 72 92 84h120q39 -50 104 -260q116 -416 116 -812q0 -620 -268 -896q-173 -140 -352 -140 q-268 0 -408 316q-164 318 -164 804zM100 2073v12q0 64 67 100l61 11h11q81 -19 81 -70v-5q0 -80 -111 -128l-28 -3q-55 0 -78 64zM450 2073v12q0 64 67 100l61 11h11q81 -19 81 -70v-5q0 -80 -111 -128l-28 -3q-55 0 -78 64z" />
<glyph unicode="&#xdd;" horiz-adv-x="1565" d="M1100 2250v16q0 102 208 296q60 65 148 220q48 52 108 52l88 -120q-30 -169 -104 -204q-237 -191 -256 -308q0 -36 -140 -36l-24 -4q-28 42 -28 88zM30 19v27q0 187 138 269l26 3q15 0 30 -30h19q21 0 52 -227q52 -256 112 -373q247 -437 452 -437q104 0 247 160 q190 253 190 747q-17 462 -60 504q-30 123 -74 489q-6 0 -127 -220q-249 -426 -594 -426q-226 0 -288 179q-18 77 -18 183q0 269 194 702q85 142 175 142h23q81 0 127 -71l7 -44q0 -51 -78 -176q-120 -271 -120 -508q8 -142 15 -142q167 49 351 377q80 151 157 419 q41 151 75 407q10 11 30 11l59 56h8l41 -15h60q74 0 74 -75q64 -293 146 -956q86 -511 86 -963v-60q0 -387 -250 -728q-177 -209 -422 -209h-11q-414 0 -721 527q-131 238 -131 458zM464 1848l12 -4v12l-12 -4v-4z" />
<glyph unicode="&#xdf;" horiz-adv-x="1251" />
<glyph unicode="&#xe0;" horiz-adv-x="1295" d="M0 210v16q0 227 292 560q181 148 420 252q68 52 132 52h20q79 0 104 -132q0 -73 84 -448q60 -213 172 -356q68 -100 68 -156v-24q0 -48 -60 -48q-59 -36 -76 -36q-111 39 -200 176q-51 97 -164 376l-24 32q-147 -229 -252 -348q-133 -136 -300 -136q-162 0 -212 168z M284 266l4 -4h4q97 0 196 168q180 224 180 348l-4 4h-8q-69 -21 -256 -212q-116 -144 -116 -304zM370 1615l88 90q60 0 108 -39q88 -117 148 -165q208 -146 208 -223v-12q0 -34 -28 -66l-24 3q-140 0 -140 27q-19 88 -256 232q-74 26 -104 153z" />
<glyph unicode="&#xe1;" horiz-adv-x="1295" d="M0 210v16q0 227 292 560q181 148 420 252q68 52 132 52h20q79 0 104 -132q0 -73 84 -448q60 -213 172 -356q68 -100 68 -156v-24q0 -48 -60 -48q-59 -36 -76 -36q-111 39 -200 176q-51 97 -164 376l-24 32q-147 -229 -252 -348q-133 -136 -300 -136q-162 0 -212 168z M284 266l4 -4h4q97 0 196 168q180 224 180 348l-4 4h-8q-69 -21 -256 -212q-116 -144 -116 -304zM330 1088v16q0 102 208 296q60 65 148 220q48 52 108 52l88 -120q-30 -169 -104 -204q-237 -191 -256 -308q0 -36 -140 -36l-24 -4q-28 42 -28 88z" />
<glyph unicode="&#xe2;" horiz-adv-x="1295" d="M0 210v16q0 227 292 560q181 148 420 252q68 52 132 52h20q79 0 104 -132q0 -73 84 -448q60 -213 172 -356q68 -100 68 -156v-24q0 -48 -60 -48q-59 -36 -76 -36q-111 39 -200 176q-51 97 -164 376l-24 32q-147 -229 -252 -348q-133 -136 -300 -136q-162 0 -212 168z M240 1215v13q0 82 166 237q48 52 118 175q39 42 87 42h38q58 -109 243 -371q22 -33 22 -45v-3l-16 -51l7 -25l-3 -4h-4q0 7 -22 13l-51 -16q-26 0 -118 106q-58 85 -109 137q-189 -153 -205 -246q0 -29 -111 -29l-20 -3q-22 34 -22 70zM284 266l4 -4h4q97 0 196 168 q180 224 180 348l-4 4h-8q-69 -21 -256 -212q-116 -144 -116 -304z" />
<glyph unicode="&#xe3;" horiz-adv-x="1295" d="M30 210v16q0 227 292 560q181 148 420 252q68 52 132 52h20q79 0 104 -132q0 -73 84 -448q60 -213 172 -356q68 -100 68 -156v-24q0 -48 -60 -48q-59 -36 -76 -36q-111 39 -200 176q-51 97 -164 376l-24 32q-147 -229 -252 -348q-133 -136 -300 -136q-162 0 -212 168z M260 1281v20q0 56 33 60l24 3q34 0 160 -46l45 -5h18l82 104q69 66 147 66h18q54 0 181 -71q63 -21 94 -21h18q12 0 18 -37q-5 -49 -15 -49q-33 0 -33 -29l3 -7l-3 -3h-15q-232 0 -232 56h-9q-83 0 -154 -136q-34 -46 -67 -46h-21q-152 0 -277 75q-15 46 -15 66zM314 266 l4 -4h4q97 0 196 168q180 224 180 348l-4 4h-8q-69 -21 -256 -212q-116 -144 -116 -304z" />
<glyph unicode="&#xe4;" horiz-adv-x="1295" d="M0 210v16q0 227 292 560q181 148 420 252q68 52 132 52h20q79 0 104 -132q0 -73 84 -448q60 -213 172 -356q68 -100 68 -156v-24q0 -48 -60 -48q-59 -36 -76 -36q-111 39 -200 176q-51 97 -164 376l-24 32q-147 -229 -252 -348q-133 -136 -300 -136q-162 0 -212 168z M284 266l4 -4h4q97 0 196 168q180 224 180 348l-4 4h-8q-69 -21 -256 -212q-116 -144 -116 -304zM330 1283v12q0 64 67 100l61 11h11q81 -19 81 -70v-5q0 -80 -111 -128l-28 -3q-55 0 -78 64zM680 1283v12q0 64 67 100l61 11h11q81 -19 81 -70v-5q0 -80 -111 -128l-28 -3 q-55 0 -78 64z" />
<glyph unicode="&#xe5;" horiz-adv-x="1295" d="M0 210v16q0 227 292 560q181 148 420 252q68 52 132 52h20q79 0 104 -132q0 -73 84 -448q60 -213 172 -356q68 -100 68 -156v-24q0 -48 -60 -48q-59 -36 -76 -36q-111 39 -200 176q-51 97 -164 376l-24 32q-147 -229 -252 -348q-133 -136 -300 -136q-162 0 -212 168z M284 266l4 -4h4q97 0 196 168q180 224 180 348l-4 4h-8q-69 -21 -256 -212q-116 -144 -116 -304zM383 1376v13q0 24 33 186v37q115 113 236 113h50q18 0 86 -86q84 -84 84 -160v-10q0 -120 -80 -236q-65 -53 -153 -53h-17q-163 0 -229 143q-10 21 -10 53zM552 1451 q20 -117 107 -117h15q31 19 31 61q-6 137 -31 137h-40q-82 0 -82 -81z" />
<glyph unicode="&#xe6;" horiz-adv-x="1750" d="M0 294v13q0 183 292 452q181 120 420 204q68 42 132 42h20q79 0 104 -107q0 -59 84 -362q60 -172 172 -288q68 -80 68 -126v-19q0 -39 -60 -39q-59 -29 -76 -29q-111 32 -200 142q-51 79 -164 304l-24 26q-147 -185 -252 -281q-133 -110 -300 -110q-162 0 -212 136z M264 328l4 -3h4q97 0 196 138q180 184 180 286l-4 3h-8q-69 -17 -256 -174q-116 -118 -116 -250zM790 738v32q0 198 128 248q139 76 244 76q208 0 340 -272q24 -86 24 -132q0 -201 -312 -324v-4q82 -140 216 -140q180 0 388 292q124 140 192 140h8l8 -8v-40l-4 -16 q4 -13 16 -16q25 0 36 44h8v-4q0 -68 -120 -224q-18 -34 -28 -80q-56 -11 -56 -44q-110 -183 -332 -260q-66 -16 -116 -16h-40q-293 0 -580 424v8zM1038 702q0 -120 68 -168q47 0 140 72q16 46 16 80q0 123 -108 168l-32 4q-60 0 -60 -40q-24 -41 -24 -116z" />
<glyph unicode="&#xe7;" horiz-adv-x="1185" d="M0 320v40q0 305 252 524q102 64 192 64h12q82 0 152 -44q-8 -16 -8 -44l20 -52v-24q-35 -71 -148 -108q-118 -36 -152 -96q-44 -94 -44 -152v-24q0 -119 136 -140h56q134 0 464 148q139 60 184 60h8q67 -69 72 -104q-5 -21 -120 -132q-30 -56 -60 -56 q-370 -220 -632 -220q-282 0 -376 268zM250 -152q0 36 112 121q34 41 34 62v12q0 8 57 12q77 -3 77 -10q0 -22 46 -22l11 2l4 -2v-10q0 -155 -88 -155v-6q0 -55 215 -103q72 -23 72 -44v-14q0 -102 -118 -186q-72 -10 -104 -10h-30q-88 0 -96 22l-4 16q0 23 73 107l8 30v12 l-165 55q-104 46 -104 99v12z" />
<glyph unicode="&#xe8;" horiz-adv-x="1025" d="M0 708v32q0 198 128 248q139 76 244 76q208 0 340 -272q24 -86 24 -132q0 -201 -312 -324v-4q82 -140 216 -140q180 0 388 292q124 140 192 140h8l8 -8v-40l-4 -16q4 -13 16 -16q25 0 36 44h8v-4q0 -68 -120 -224q-18 -34 -28 -80q-56 -11 -56 -44q-110 -183 -332 -260 q-66 -16 -116 -16h-40q-293 0 -580 424v8zM80 1525l88 90q60 0 108 -39q88 -117 148 -165q208 -146 208 -223v-12q0 -34 -28 -66l-24 3q-140 0 -140 27q-19 88 -256 232q-74 26 -104 153zM248 672q0 -120 68 -168q47 0 140 72q16 46 16 80q0 123 -108 168l-32 4 q-60 0 -60 -40q-24 -41 -24 -116z" />
<glyph unicode="&#xe9;" horiz-adv-x="1025" d="M0 708v32q0 198 128 248q139 76 244 76q208 0 340 -272q24 -86 24 -132q0 -201 -312 -324v-4q82 -140 216 -140q180 0 388 292q124 140 192 140h8l8 -8v-40l-4 -16q4 -13 16 -16q25 0 36 44h8v-4q0 -68 -120 -224q-18 -34 -28 -80q-56 -11 -56 -44q-110 -183 -332 -260 q-66 -16 -116 -16h-40q-293 0 -580 424v8zM70 1166v12q0 77 208 223q60 48 148 165q48 39 108 39l88 -90q-30 -127 -104 -153q-237 -144 -256 -232q0 -27 -140 -27l-24 -3q-28 32 -28 66zM248 672q0 -120 68 -168q47 0 140 72q16 46 16 80q0 123 -108 168l-32 4 q-60 0 -60 -40q-24 -41 -24 -116z" />
<glyph unicode="&#xea;" horiz-adv-x="1025" d="M-30 708v32q0 198 128 248q139 76 244 76q208 0 340 -272q24 -86 24 -132q0 -201 -312 -324v-4q82 -140 216 -140q180 0 388 292q124 140 192 140h8l8 -8v-40l-4 -16q4 -13 16 -16q25 0 36 44h8v-4q0 -68 -120 -224q-18 -34 -28 -80q-56 -11 -56 -44q-110 -183 -332 -260 q-66 -16 -116 -16h-40q-293 0 -580 424v8zM10 1195v13q0 82 166 237q48 52 118 175q39 42 87 42h38q58 -109 243 -371q22 -33 22 -45v-3l-16 -51l7 -25l-3 -4h-4q0 7 -22 13l-51 -16q-26 0 -118 106q-58 85 -109 137q-189 -153 -205 -246q0 -29 -111 -29l-20 -3 q-22 34 -22 70zM218 672q0 -120 68 -168q47 0 140 72q16 46 16 80q0 123 -108 168l-32 4q-60 0 -60 -40q-24 -41 -24 -116z" />
<glyph unicode="&#xeb;" horiz-adv-x="1025" d="M0 708v32q0 198 128 248q139 76 244 76q208 0 340 -272q24 -86 24 -132q0 -201 -312 -324v-4q82 -140 216 -140q180 0 388 292q124 140 192 140h8l8 -8v-40l-4 -16q4 -13 16 -16q25 0 36 44h8v-4q0 -68 -120 -224q-18 -34 -28 -80q-56 -11 -56 -44q-110 -183 -332 -260 q-66 -16 -116 -16h-40q-293 0 -580 424v8zM50 1243v12q0 64 67 100l61 11h11q81 -19 81 -70v-5q0 -80 -111 -128l-28 -3q-55 0 -78 64zM248 672q0 -120 68 -168q47 0 140 72q16 46 16 80q0 123 -108 168l-32 4q-60 0 -60 -40q-24 -41 -24 -116zM400 1243v12q0 64 67 100 l61 11h11q81 -19 81 -70v-5q0 -80 -111 -128l-28 -3q-55 0 -78 64z" />
<glyph unicode="&#xec;" horiz-adv-x="385" d="M-80 1555l88 90q60 0 108 -39q88 -117 148 -165q208 -146 208 -223v-12q0 -34 -28 -66l-24 3q-140 0 -140 27q-19 88 -256 232q-74 26 -104 153zM30 160l36 492q-8 105 -8 296q0 168 116 168q80 0 80 -40q48 -261 48 -560v-116l-8 -432q-31 -24 -96 -36l-32 -32h-4 q-35 0 -64 52q0 -24 -8 -24q-60 53 -60 232z" />
<glyph unicode="&#xed;" horiz-adv-x="385" d="M-80 1206v12q0 77 208 223q60 48 148 165q48 39 108 39l88 -90q-30 -127 -104 -153q-237 -144 -256 -232q0 -27 -140 -27l-24 -3q-28 32 -28 66zM30 160l36 492q-8 105 -8 296q0 168 116 168q80 0 80 -40q48 -261 48 -560v-116l-8 -432q-31 -24 -96 -36l-32 -32h-4 q-35 0 -64 52q0 -24 -8 -24q-60 53 -60 232z" />
<glyph unicode="&#xee;" horiz-adv-x="480" d="M-120 1205v13q0 82 166 237q48 52 118 175q39 42 87 42h38q58 -109 243 -371q22 -33 22 -45v-3l-16 -51l7 -25l-3 -4h-4q0 7 -22 13l-51 -16q-26 0 -118 106q-58 85 -109 137q-189 -153 -205 -246q0 -29 -111 -29l-19 -3q-23 34 -23 70zM80 160l36 492q-8 105 -8 296 q0 168 116 168q80 0 80 -40q48 -261 48 -560v-116l-8 -432q-31 -24 -96 -36l-32 -32h-4q-35 0 -64 52q0 -24 -8 -24q-60 53 -60 232z" />
<glyph unicode="&#xef;" horiz-adv-x="385" d="M-70 1323v12q0 64 67 100l61 11h11q81 -19 81 -70v-5q0 -80 -111 -128l-28 -3q-54 0 -78 64zM30 160l36 492q-8 105 -8 296q0 168 116 168q80 0 80 -40q48 -261 48 -560v-116l-8 -432q-31 -24 -96 -36l-32 -32h-4q-35 0 -64 52q0 -24 -8 -24q-60 53 -60 232zM280 1323v12 q0 64 67 100l61 11h11q81 -19 81 -70v-5q0 -80 -111 -128l-28 -3q-55 0 -78 64z" />
<glyph unicode="&#xf1;" horiz-adv-x="1035" d="M50 114q56 201 56 704q85 50 88 60q0 20 16 20q148 -22 148 -44l-12 -36l4 -4h4q77 72 144 196q110 156 196 156q128 -33 128 -44q58 -135 96 -304q84 -570 128 -736q10 0 20 -76v-8q0 -68 -88 -68h-8q-128 0 -128 48q-58 118 -96 300l-88 528h-4q-140 -172 -332 -664 q-79 -163 -88 -164q0 12 -40 16h-60q-36 0 -36 36zM100 1421v20q0 56 33 60l24 3q34 0 160 -46l45 -5h18l82 104q69 66 147 66h18q54 0 181 -71q63 -21 94 -21h18q12 0 18 -37q-5 -49 -15 -49q-33 0 -33 -29l3 -7l-3 -3h-15q-232 0 -232 56h-9q-83 0 -154 -136 q-34 -46 -67 -46h-21q-152 0 -277 75q-15 46 -15 66z" />
<glyph unicode="&#xf2;" horiz-adv-x="795" d="M80 317v21q0 187 53 343q11 15 99 53q18 13 74 89q65 42 226 42h4q206 0 286 -251q22 -65 22 -148v-36q0 -285 -216 -459q-118 -71 -212 -71h-14q-212 0 -301 272q-21 74 -21 145zM180 1415l88 90q60 0 108 -39q88 -117 148 -165q208 -146 208 -223v-12q0 -34 -28 -66 l-24 3q-140 0 -140 27q-19 88 -256 232q-74 26 -104 153zM338 314q11 -163 71 -163q85 37 138 131q42 81 42 159v14q0 120 -88 201q-66 0 -121 -84q-28 -33 -38 -36l3 -32z" />
<glyph unicode="&#xf3;" horiz-adv-x="795" d="M10 317v21q0 187 53 343q11 15 99 53q18 13 74 89q65 42 226 42h4q206 0 286 -251q22 -65 22 -148v-36q0 -285 -216 -459q-118 -71 -212 -71h-14q-212 0 -301 272q-21 74 -21 145zM110 1066v12q0 77 208 223q60 48 148 165q48 39 108 39l88 -90q-30 -127 -104 -153 q-237 -144 -256 -232q0 -27 -140 -27l-24 -3q-28 32 -28 66zM268 314q11 -163 71 -163q85 37 138 131q42 81 42 159v14q0 120 -88 201q-66 0 -121 -84q-28 -33 -38 -36l3 -32z" />
<glyph unicode="&#xf4;" horiz-adv-x="795" d="M10 317v21q0 187 53 343q11 15 99 53q18 13 74 89q65 42 226 42h4q206 0 286 -251q22 -65 22 -148v-36q0 -285 -216 -459q-118 -71 -212 -71h-14q-212 0 -301 272q-21 74 -21 145zM40 1075v13q0 82 166 237q48 52 118 175q39 42 87 42h38q58 -109 243 -371q22 -33 22 -45 v-3l-16 -51l7 -25l-3 -4h-4q0 7 -22 13l-51 -16q-26 0 -118 106q-58 85 -109 137q-189 -153 -205 -246q0 -29 -111 -29l-20 -3q-22 34 -22 70zM268 314q11 -163 71 -163q85 37 138 131q42 81 42 159v14q0 120 -88 201q-66 0 -121 -84q-28 -33 -38 -36l3 -32z" />
<glyph unicode="&#xf5;" horiz-adv-x="795" d="M-30 1141v20q0 56 33 60l24 3q34 0 160 -46l45 -5h18l82 104q69 66 147 66h18q54 0 181 -71q63 -21 94 -21h18q12 0 18 -37q-5 -49 -15 -49q-33 0 -33 -29l3 -7l-3 -3h-15q-232 0 -232 56h-9q-83 0 -154 -136q-34 -46 -67 -46h-21q-152 0 -276 75q-16 46 -16 66zM10 317 v21q0 187 53 343q11 15 99 53q18 13 74 89q65 42 226 42h4q206 0 286 -251q22 -65 22 -148v-36q0 -285 -216 -459q-118 -71 -212 -71h-14q-212 0 -301 272q-21 74 -21 145zM268 314q11 -163 71 -163q85 37 138 131q42 81 42 159v14q0 120 -88 201q-66 0 -121 -84 q-28 -33 -38 -36l3 -32z" />
<glyph unicode="&#xf6;" horiz-adv-x="795" d="M10 317v21q0 187 53 343q11 15 99 53q18 13 74 89q65 42 226 42h4q206 0 286 -251q22 -65 22 -148v-36q0 -285 -216 -459q-118 -71 -212 -71h-14q-212 0 -301 272q-21 74 -21 145zM90 1063v12q0 64 67 100l61 11h11q81 -19 81 -70v-5q0 -80 -111 -128l-28 -3 q-55 0 -78 64zM268 314q11 -163 71 -163q85 37 138 131q42 81 42 159v14q0 120 -88 201q-66 0 -121 -84q-28 -33 -38 -36l3 -32zM440 1063v12q0 64 67 100l61 11h11q81 -19 81 -70v-5q0 -80 -111 -128l-28 -3q-55 0 -78 64z" />
<glyph unicode="&#xf7;" horiz-adv-x="1900" d="M30 760v20q14 32 32 32q-32 31 -32 52q0 10 12 28l-3 20q0 44 347 80l113 4h52q115 0 774 -48l118 -4q75 0 252 20q125 0 125 -156q-25 -50 -136 -104q-28 -16 -99 -24q-43 4 -55 12q-78 -12 -185 -12h-67q-87 0 -703 40h-87q-178 0 -348 -36l-107 72zM800 360v16 q0 92 96 144l88 16h16q116 -27 116 -100v-8q0 -114 -160 -184l-40 -4q-78 0 -112 92zM820 1230v16q0 92 96 144l88 16h16q116 -27 116 -100v-8q0 -114 -160 -184l-40 -4q-78 0 -112 92z" />
<glyph unicode="&#xf8;" horiz-adv-x="795" d="M10 -89q29 103 201 353l288 379q116 160 148 229q31 43 58 43h7q22 0 41 -32q0 -72 -51 -172q-38 -42 -78 -114q-8 -22 -345 -467q-107 -155 -157 -255q-57 -35 -64 -35h-4q-7 4 -7 16v5l4 18l-21 -4q-12 6 -12 20l2 2q-7 0 -10 9v5zM20 317v21q0 187 53 343q11 15 99 53 q18 13 74 89q65 42 226 42h4q206 0 286 -251q22 -65 22 -148v-36q0 -285 -216 -459q-118 -71 -212 -71h-14q-212 0 -301 272q-21 74 -21 145zM238 289q15 -194 97 -194q115 44 188 156q57 96 57 189v17q0 143 -120 239q-90 0 -165 -100q-38 -39 -52 -43l5 -38z" />
<glyph unicode="&#xf9;" horiz-adv-x="955" d="M30 206v44q0 287 124 484q48 52 92 52q55 0 116 -80q0 -58 -68 -280q-12 -41 -12 -108v-16q91 45 164 240q97 248 132 248l36 4h20q75 0 116 -64q35 -374 116 -608q56 -65 56 -128v-32q0 -34 -24 -52h-52q-150 0 -248 284l-28 44q-173 -195 -260 -248h-4l-40 8 q-17 0 -108 -36l-20 -4q-86 0 -104 188zM160 1026v12q0 77 208 223q60 48 148 165q48 39 108 39l88 -90q-30 -127 -104 -153q-237 -144 -256 -232q0 -27 -140 -27l-24 -3q-28 32 -28 66z" />
<glyph unicode="&#xfa;" horiz-adv-x="955" d="M30 206v44q0 287 124 484q48 52 92 52q55 0 116 -80q0 -58 -68 -280q-12 -41 -12 -108v-16q91 45 164 240q97 248 132 248l36 4h20q75 0 116 -64q35 -374 116 -608q56 -65 56 -128v-32q0 -34 -24 -52h-52q-150 0 -248 284l-28 44q-173 -195 -260 -248h-4l-40 8 q-17 0 -108 -36l-20 -4q-86 0 -104 188zM150 1375l88 90q60 0 108 -39q88 -117 148 -165q208 -146 208 -223v-12q0 -34 -28 -66l-24 3q-140 0 -140 27q-19 88 -256 232q-74 26 -104 153z" />
<glyph unicode="&#xfb;" horiz-adv-x="955" d="M30 1028v16q0 102 208 296q60 65 148 220q48 52 108 52h48q72 -136 304 -464q28 -42 28 -56v-4l-20 -64l8 -32l-4 -4h-4q0 8 -28 16l-64 -20q-32 0 -148 132q-72 107 -136 172q-237 -191 -256 -308q0 -36 -140 -36l-24 -4q-28 42 -28 88zM40 206v44q0 287 124 484 q48 52 92 52q55 0 116 -80q0 -58 -68 -280q-12 -41 -12 -108v-16q91 45 164 240q97 248 132 248l36 4h20q75 0 116 -64q35 -374 116 -608q56 -65 56 -128v-32q0 -34 -24 -52h-52q-150 0 -248 284l-28 44q-173 -195 -260 -248h-4l-40 8q-17 0 -108 -36l-20 -4q-86 0 -104 188 z" />
<glyph unicode="&#xfc;" horiz-adv-x="955" d="M30 206v44q0 287 124 484q48 52 92 52q55 0 116 -80q0 -58 -68 -280q-12 -41 -12 -108v-16q91 45 164 240q97 248 132 248l36 4h20q75 0 116 -64q35 -374 116 -608q56 -65 56 -128v-32q0 -34 -24 -52h-52q-150 0 -248 284l-28 44q-173 -195 -260 -248h-4l-40 8 q-17 0 -108 -36l-20 -4q-86 0 -104 188zM170 1053v12q0 64 67 100l61 11h11q81 -19 81 -70v-5q0 -80 -111 -128l-28 -3q-55 0 -78 64zM520 1053v12q0 64 67 100l61 11h11q81 -19 81 -70v-5q0 -80 -111 -128l-28 -3q-55 0 -78 64z" />
<glyph unicode="&#xfd;" horiz-adv-x="1024" d="M754 1538v16q0 102 208 296q60 65 148 220q48 52 108 52l88 -120q-30 -169 -104 -204q-237 -191 -256 -308q0 -36 -140 -36l-24 -4q-28 42 -28 88zM0 440q0 251 96 588q48 96 104 96h28q44 0 104 -52v-12q0 -96 -80 -412q-24 -91 -24 -208l4 -68h12q53 0 156 128 q17 0 48 88q220 408 220 508q16 55 16 128v8q47 41 80 96h88q57 0 92 -48q40 -755 40 -1064v-32l40 -568l4 -64q-5 -396 -312 -528q-67 -24 -136 -24q-254 0 -516 304q-64 84 -64 156q47 48 100 48q41 0 164 -96q14 -12 72 -16l192 -116q40 -16 68 -16h8q125 0 164 224 q20 118 20 324q0 336 -76 732q-69 -77 -208 -304q-128 -136 -180 -136q-59 -28 -168 -28h-16q-64 0 -120 168q-20 97 -20 196z" />
<glyph unicode="&#x152;" horiz-adv-x="2200" d="M-170 798v60q0 476 180 780q92 98 188 112q138 28 224 28h16q383 0 588 -876q28 -159 28 -304v-16q0 -339 -148 -564q-184 -208 -400 -208h-44q-255 0 -456 300q-176 303 -176 688zM86 858q18 -613 308 -776q66 -28 112 -28h16q156 0 256 232q40 127 40 264v48 q0 356 -180 728q-136 212 -224 212h-12q-64 0 -104 -128h-4l-64 12h-16q-25 -6 -76 -172q-52 -207 -52 -392zM590 1434v40q0 157 284 220q8 0 72 72q10 0 84 64h8q101 0 188 -100h8q117 0 392 92q69 24 140 24h20q83 0 120 -32v-32q0 -221 -504 -276q-292 -28 -292 -48 q-44 -124 -44 -296v-44q474 120 716 120q180 -6 180 -24v-32q0 -25 20 -44q-49 -87 -216 -140q-120 -28 -512 -76q-80 -20 -164 -52q72 -316 164 -552l44 -96l20 -4q127 0 468 164q358 156 568 156q148 -8 148 -24v-132q0 -9 -160 -32q-438 -109 -796 -392 q-140 -88 -244 -88h-44q-153 0 -252 288q-72 179 -188 604q90 0 12 60v12q0 74 -64 184q16 18 16 28l-4 44l12 280l4 4l-48 -4h-36q-120 0 -120 64z" />
<glyph unicode="&#x153;" horiz-adv-x="1410" d="M10 317v21q0 187 53 343q11 15 99 53q18 13 74 89q65 42 226 42h4q206 0 286 -251q22 -65 22 -148v-36q0 -285 -216 -459q-118 -71 -212 -71h-14q-212 0 -301 272q-21 74 -21 145zM268 314q11 -163 71 -163q85 37 138 131q42 81 42 159v14q0 120 -88 201q-66 0 -121 -84 q-28 -33 -38 -36l3 -32zM568 553v28q0 167 108 210q118 64 207 64q176 0 288 -230q20 -73 20 -112q0 -170 -264 -275v-3q69 -119 183 -119q152 0 328 248q105 118 163 118h7l7 -6v-34l-4 -14q4 -11 14 -13q21 0 30 37h7v-4q0 -57 -102 -189q-15 -29 -23 -68q-48 -9 -48 -37 q-93 -155 -281 -220q-56 -14 -98 -14h-34q-248 0 -491 359v7zM778 523q0 -102 57 -142q40 0 119 61q14 39 14 67q0 105 -92 143l-27 3q-51 0 -51 -34q-20 -34 -20 -98z" />
<glyph unicode="&#x2c6;" horiz-adv-x="885" d="M20 1388v16q0 102 208 296q60 65 148 220q48 52 108 52h48q72 -136 304 -464q28 -42 28 -56v-4l-20 -64l8 -32l-4 -4h-4q0 8 -28 16l-64 -20q-32 0 -148 132q-72 107 -136 172q-237 -191 -256 -308q0 -36 -140 -36l-24 -4q-28 42 -28 88z" />
<glyph unicode="&#x2000;" horiz-adv-x="1417" />
<glyph unicode="&#x2001;" horiz-adv-x="2834" />
<glyph unicode="&#x2002;" horiz-adv-x="1417" />
<glyph unicode="&#x2003;" horiz-adv-x="2834" />
<glyph unicode="&#x2004;" horiz-adv-x="944" />
<glyph unicode="&#x2005;" horiz-adv-x="708" />
<glyph unicode="&#x2006;" horiz-adv-x="472" />
<glyph unicode="&#x2007;" horiz-adv-x="472" />
<glyph unicode="&#x2008;" horiz-adv-x="354" />
<glyph unicode="&#x2009;" horiz-adv-x="566" />
<glyph unicode="&#x200a;" horiz-adv-x="157" />
<glyph unicode="&#x2010;" horiz-adv-x="1055" d="M10 548v12q0 79 88 144q56 20 148 20h48q190 0 732 -44q24 -35 24 -76v-4q0 -80 -80 -140l-640 32l-200 -12h-32q-88 0 -88 68z" />
<glyph unicode="&#x2011;" horiz-adv-x="1055" d="M10 548v12q0 79 88 144q56 20 148 20h48q190 0 732 -44q24 -35 24 -76v-4q0 -80 -80 -140l-640 32l-200 -12h-32q-88 0 -88 68z" />
<glyph unicode="&#x2012;" horiz-adv-x="1055" d="M10 548v12q0 79 88 144q56 20 148 20h48q190 0 732 -44q24 -35 24 -76v-4q0 -80 -80 -140l-640 32l-200 -12h-32q-88 0 -88 68z" />
<glyph unicode="&#x2013;" horiz-adv-x="1024" d="M204 512v204h616v-204h-616z" />
<glyph unicode="&#x2014;" horiz-adv-x="2048" d="M204 512v204h1640v-204h-1640z" />
<glyph unicode="&#x2018;" horiz-adv-x="305" d="M0 1870q54 102 163 102h15q83 0 83 -61l4 -189v-53q0 -333 -140 -424q-51 -23 -91 -23q-14 26 -19 243l4 106q-4 186 -19 299z" />
<glyph unicode="&#x2019;" horiz-adv-x="305" d="M0 1870q54 102 163 102h15q83 0 83 -61l4 -189v-53q0 -333 -140 -424q-51 -23 -91 -23q-14 26 -19 243l4 106q-4 186 -19 299z" />
<glyph unicode="&#x201c;" horiz-adv-x="615" d="M0 1314q31 150 31 185v3q0 54 -31 308v34q0 140 167 140h7q65 -80 65 -284v-24l-13 -393q-52 -106 -120 -106h-24q-82 23 -82 137zM379 1659v34q0 222 69 260q34 21 75 21q63 -4 72 -24q10 -161 10 -287v-34q-6 -356 -31 -356q-72 -51 -92 -51q-82 0 -103 437z" />
<glyph unicode="&#x201d;" horiz-adv-x="615" d="M0 1314q31 150 31 185v3q0 54 -31 308v34q0 140 167 140h7q65 -80 65 -284v-24l-13 -393q-52 -106 -120 -106h-24q-82 23 -82 137zM379 1659v34q0 222 69 260q34 21 75 21q63 -4 72 -24q10 -161 10 -287v-34q-6 -356 -31 -356q-72 -51 -92 -51q-82 0 -103 437z" />
<glyph unicode="&#x2022;" horiz-adv-x="505" d="M10 646v13q0 24 33 186v37q115 113 236 113h50q18 0 86 -86q84 -84 84 -160v-10q0 -120 -80 -236q-65 -53 -153 -53h-17q-163 0 -229 143q-10 21 -10 53zM179 731q20 -117 107 -117h15q31 19 31 61q-6 137 -31 137h-40q-82 0 -82 -81z" />
<glyph unicode="&#x2026;" horiz-adv-x="1575" d="M1140 70v16q0 92 96 144l88 16h16q116 -27 116 -100v-8q0 -114 -160 -184l-40 -4q-78 0 -112 92zM615 70v16q0 92 96 144l88 16h16q116 -27 116 -100v-8q0 -114 -160 -184l-40 -4q-78 0 -112 92zM90 70v16q0 92 96 144l88 16h16q116 -27 116 -100v-8q0 -114 -160 -184 l-40 -4q-78 0 -112 92z" />
<glyph unicode="&#x202f;" horiz-adv-x="566" />
<glyph unicode="&#x2039;" horiz-adv-x="1055" d="M0 646v28q0 87 132 160q148 104 524 292l156 80q84 -44 84 -148q0 -73 -40 -88q-155 -92 -448 -244l-96 -64v-4q207 -115 744 -528l4 -4v-24q0 -89 -136 -128l-32 -4q-137 86 -544 384q-115 75 -252 144q-96 53 -96 148z" />
<glyph unicode="&#x203a;" horiz-adv-x="1065" d="M0 84v8q15 19 416 316q309 220 332 220v4q-117 80 -472 264q-104 59 -104 80q-8 22 -8 56q0 103 88 144q323 -161 660 -356q148 -93 148 -168v-36q0 -118 -160 -180q-197 -105 -600 -412q-124 -84 -136 -84q-164 26 -164 144z" />
<glyph unicode="&#x205f;" horiz-adv-x="708" />
<glyph unicode="&#x20ac;" horiz-adv-x="1505" d="M0 552v20q0 84 208 156q151 345 496 520q212 100 420 100h60q179 0 244 -128v-32q0 -76 -192 -92l-108 12q-334 0 -584 -276v-4q159 20 516 88q111 16 192 16q91 0 124 -52q-31 -82 -132 -148q-160 -72 -240 -72q-342 -48 -468 -80l-44 -16q30 -117 116 -188 q153 -104 356 -104h16q111 0 340 120q74 36 120 36h20q16 0 16 -56q0 -209 -396 -344q-99 -28 -208 -28h-20q-352 0 -576 288q-75 136 -80 184l-68 -4q-124 0 -124 68z" />
<glyph unicode="&#x2122;" horiz-adv-x="1040" d="M-50 1456v7q0 25 32 46q91 16 230 16q99 0 225 18l32 1h14q45 0 57 -22l1 -7v-3q0 -43 -178 -63h-2l-48 1l-14 -1q-9 -73 -9 -128l11 -226v-67q0 -22 -10 -26q-34 -12 -58 -12q-28 86 -28 220q-4 50 -4 95v10l3 120q-18 8 -53 8l-125 -4h-22q-54 0 -54 17zM493 1273v8 q0 35 39 35l5 -2q13 28 44 152q29 90 76 90q58 0 99 -157q15 -42 41 -173h1q21 53 39 157q28 200 54 262l31 3h21q23 -26 43 -93q19 -82 77 -237q73 -227 138 -315q9 -12 9 -22v-4q-7 -32 -32 -32l-11 -1q-52 0 -93 112q-41 84 -130 337l-17 44h-1q-20 -75 -45 -246 q-38 -164 -38 -215q-13 -4 -13 -17q0 -5 -41 -13h-12q-13 0 -18 16q-11 26 -21 108l-36 204q-20 82 -45 131l-5 9h-1q-22 -57 -49 -231q-14 -78 -30 -94q-14 -14 -33 -14h-8q-24 0 -24 15q-6 22 -6 43l3 72q0 13 -11 68z" />
<glyph unicode="&#xe000;" horiz-adv-x="795" d="M0 795h795v-795h-795v795z" />
<glyph unicode="&#xfb01;" horiz-adv-x="1340" d="M985 1404v24q32 96 156 96h24q101 0 124 -52l12 -44v-4q0 -81 -164 -108h-28q-120 11 -120 72zM1005 160l36 492q-8 105 -8 296q0 168 116 168q80 0 80 -40q48 -261 48 -560v-116l-8 -432q-31 -24 -96 -36l-32 -32h-4q-35 0 -64 52q0 -24 -8 -24q-60 53 -60 232z M-190 784v116q0 11 84 24q114 52 192 52h4v4q0 542 184 744q78 20 160 20h32q368 0 520 -404q36 -108 36 -152q-27 -84 -140 -84h-44l-40 -4q-39 156 -84 240q-107 180 -196 180h-16q-114 0 -136 -212l-20 -320q129 -15 564 -32q124 -17 124 -32q0 -20 24 -48v-8 q-28 0 -36 -44q-95 -72 -296 -72h-244q-85 0 -128 -16q52 -714 108 -952l-12 -8h-4q-14 0 -40 20l-32 -76h-20q-26 0 -96 48q-48 0 -48 60q-39 117 -76 748q-17 128 -24 128l-244 44q-46 21 -56 36z" />
<glyph unicode="&#xfb02;" horiz-adv-x="1330" d="M955 1984q24 0 44 180q69 52 124 52h16q76 0 76 -64q28 -147 28 -320l-28 -732v-76q0 -343 96 -916v-52q0 -95 -44 -108q-33 0 -120 -28q-26 26 -80 60q-108 683 -108 1120v140q0 296 52 616q-13 0 -24 104zM-190 784v116q0 11 84 24q114 52 192 52h4v4q0 542 184 744 q78 20 160 20h32q368 0 520 -404q36 -108 36 -152q-27 -84 -140 -84h-44l-40 -4q-39 156 -84 240q-107 180 -196 180h-16q-114 0 -136 -212l-20 -320q129 -15 564 -32q124 -17 124 -32q0 -20 24 -48v-8q-28 0 -36 -44q-95 -72 -296 -72h-244q-85 0 -128 -16 q52 -714 108 -952l-12 -8h-4q-14 0 -40 20l-32 -76h-20q-26 0 -96 48q-48 0 -48 60q-39 117 -76 748q-17 128 -24 128l-244 44q-46 21 -56 36z" />
<glyph unicode="&#xfb03;" horiz-adv-x="2295" d="M1940 1404v24q32 96 156 96h24q101 0 124 -52l12 -44v-4q0 -81 -164 -108h-28q-120 11 -120 72zM1960 160l36 492q-8 105 -8 296q0 168 116 168q80 0 80 -40q48 -261 48 -560v-116l-8 -432q-31 -24 -96 -36l-32 -32h-4q-35 0 -64 52q0 -24 -8 -24q-60 53 -60 232z M765 784v116q0 11 84 24q114 52 192 52h4v4q0 542 184 744q78 20 160 20h32q368 0 520 -404q36 -108 36 -152q-27 -84 -140 -84h-44l-40 -4q-39 156 -84 240q-107 180 -196 180h-16q-114 0 -136 -212l-20 -320q129 -15 564 -32q124 -17 124 -32q0 -20 24 -48v-8 q-28 0 -36 -44q-95 -72 -296 -72h-244q-85 0 -128 -16q52 -714 108 -952l-12 -8h-4q-14 0 -40 20l-32 -76h-20q-26 0 -96 48q-48 0 -48 60q-39 117 -76 748q-17 128 -24 128l-244 44q-46 21 -56 36zM-190 784v116q0 11 84 24q114 52 192 52h4v4q0 542 184 744q78 20 160 20 h32q368 0 520 -404q36 -108 36 -152q-27 -84 -140 -84h-44l-40 -4q-39 156 -84 240q-107 180 -196 180h-16q-114 0 -136 -212l-20 -320q129 -15 564 -32q124 -17 124 -32q0 -20 24 -48v-8q-28 0 -36 -44q-95 -72 -296 -72h-244q-85 0 -128 -16q52 -714 108 -952l-12 -8h-4 q-14 0 -40 20l-32 -76h-20q-26 0 -96 48q-48 0 -48 60q-39 117 -76 748q-17 128 -24 128l-244 44q-46 21 -56 36z" />
<glyph unicode="&#xfb04;" horiz-adv-x="2285" d="M1910 1984q24 0 44 180q69 52 124 52h16q76 0 76 -64q28 -147 28 -320l-28 -732v-76q0 -343 96 -916v-52q0 -95 -44 -108q-33 0 -120 -28q-26 26 -80 60q-108 683 -108 1120v140q0 296 52 616q-13 0 -24 104zM765 784v116q0 11 84 24q114 52 192 52h4v4q0 542 184 744 q78 20 160 20h32q368 0 520 -404q36 -108 36 -152q-27 -84 -140 -84h-44l-40 -4q-39 156 -84 240q-107 180 -196 180h-16q-114 0 -136 -212l-20 -320q129 -15 564 -32q124 -17 124 -32q0 -20 24 -48v-8q-28 0 -36 -44q-95 -72 -296 -72h-244q-85 0 -128 -16 q52 -714 108 -952l-12 -8h-4q-14 0 -40 20l-32 -76h-20q-26 0 -96 48q-48 0 -48 60q-39 117 -76 748q-17 128 -24 128l-244 44q-46 21 -56 36zM-190 784v116q0 11 84 24q114 52 192 52h4v4q0 542 184 744q78 20 160 20h32q368 0 520 -404q36 -108 36 -152q-27 -84 -140 -84 h-44l-40 -4q-39 156 -84 240q-107 180 -196 180h-16q-114 0 -136 -212l-20 -320q129 -15 564 -32q124 -17 124 -32q0 -20 24 -48v-8q-28 0 -36 -44q-95 -72 -296 -72h-244q-85 0 -128 -16q52 -714 108 -952l-12 -8h-4q-14 0 -40 20l-32 -76h-20q-26 0 -96 48q-48 0 -48 60 q-39 117 -76 748q-17 128 -24 128l-244 44q-46 21 -56 36z" />
</font>
</defs>
</svg>
