<?xml version="1.0" standalone="no"?>
<!DOCTYPE svg PUBLIC "-//W3C//DTD SVG 1.1//EN" "http://www.w3.org/Graphics/SVG/1.1/DTD/svg11.dtd" >
<svg xmlns="http://www.w3.org/2000/svg">
<metadata></metadata>
<defs>
<font id="AvalonBold" horiz-adv-x="1030" >
<font-face units-per-em="2048" ascent="1536" descent="-512" />
<missing-glyph horiz-adv-x="514" />
<glyph unicode="&#xfb01;" horiz-adv-x="1048" d="M63 803v227h89q8 86 27 142.5t57 103.5q44 57 111.5 90t139.5 33q43 0 70 -2v-240q-90 0 -121 -25t-37 -102h144v-227h-144v-803h-247v803h-89zM688 0v1030h248v-1030h-248zM688 1145v227h248v-227h-248z" />
<glyph unicode="&#xfb02;" horiz-adv-x="1048" d="M63 803v227h89q8 86 27 142.5t57 103.5q44 57 111.5 90t139.5 33q43 0 70 -2v-240q-90 0 -121 -25t-37 -102h144v-227h-144v-803h-247v803h-89zM688 0v1372h248v-1372h-248z" />
<glyph unicode="&#xfb03;" horiz-adv-x="1587" d="M63 803v227h89q8 86 27 142.5t57 103.5q44 57 112 90t141 33q41 0 68 -2v-240q-90 0 -121 -25t-37 -102h291q8 86 27 142.5t57 103.5q44 57 112 90t140 33q41 0 68 -2v-240q-89 0 -119.5 -25t-36.5 -102h143v-227h-143v-803h-248v803h-291v-803h-247v803h-89zM1227 0 v1030h248v-1030h-248zM1227 1145v227h248v-227h-248z" />
<glyph unicode="&#xfb04;" horiz-adv-x="1587" d="M63 803v227h89q8 86 27 142.5t57 103.5q44 57 112 90t141 33q41 0 68 -2v-240q-90 0 -121 -25t-37 -102h291q8 86 27 142.5t57 103.5q44 57 112 90t140 33q41 0 68 -2v-240q-89 0 -119.5 -25t-36.5 -102h143v-227h-143v-803h-248v803h-291v-803h-247v803h-89zM1227 0 v1372h248v-1372h-248z" />
<glyph horiz-adv-x="0" />
<glyph horiz-adv-x="2048" />
<glyph unicode=" "  horiz-adv-x="514" />
<glyph unicode="&#x09;" horiz-adv-x="514" />
<glyph unicode="&#xa0;" horiz-adv-x="514" />
<glyph unicode="!" horiz-adv-x="534" d="M143 0v236h248v-236h-248zM143 350v1022h248v-1022h-248z" />
<glyph unicode="&#x22;" horiz-adv-x="497" d="M57 1372h156l-16 -428h-123zM285 1372h155l-16 -428h-123z" />
<glyph unicode="#" d="M51 436l23 164h178l24 172h-178l23 164h178l43 309h162l-43 -309h184l45 309h162l-45 -309h172l-25 -164h-170l-24 -172h172l-25 -164h-170l-43 -309h-162l43 309h-184l-45 -309h-162l43 309h-176zM414 600h184l25 172h-185z" />
<glyph unicode="$" d="M72 438v25h245q3 -72 49 -116t115 -44t116.5 46.5t47.5 113.5q0 41 -19 76.5t-51 54.5q-22 14 -39 19.5t-96 27.5q-54 15 -113 46t-96 63q-106 92 -106 258q0 128 68 220t186 124v237h233v-241q99 -29 166.5 -118.5t73.5 -199.5h-234q-33 113 -122 113q-51 0 -87 -37 t-36 -90q0 -69 61 -111q20 -12 30 -17t40 -15t98 -31q148 -46 219.5 -139.5t71.5 -239.5q0 -138 -76 -240t-205 -137v-246h-233v244q-98 26 -164 78q-66 51 -104.5 126t-38.5 150z" />
<glyph unicode="%" horiz-adv-x="1667" d="M70 1069q0 135 98.5 232.5t234.5 97.5q138 0 236 -98t98 -236t-98 -237t-236 -99q-140 0 -236.5 99t-96.5 241zM276 1067q0 -57 37 -96t90 -39t90 39t37 94q0 56 -37.5 95.5t-89.5 39.5t-89.5 -39.5t-37.5 -93.5zM457 0l569 1372h178l-569 -1372h-178zM926 313 q0 135 99.5 233.5t236.5 98.5q139 0 237 -98t98 -238q0 -138 -98.5 -237t-236.5 -99q-140 0 -238 99t-98 241zM1130 311q0 -58 38 -98.5t94 -40.5q53 0 91 40t38 97t-38 97t-91 40q-54 0 -93 -40t-39 -95z" />
<glyph unicode="&#x26;" horiz-adv-x="1267" d="M70 408q0 125 61 216.5t197 170.5q-71 82 -94 131t-23 118q0 152 99.5 253.5t250.5 101.5q149 0 251.5 -97.5t102.5 -240.5q0 -112 -52 -193.5t-165 -144.5l127 -141l133 227h275l-238 -414l244 -264l-180 -158l-189 205q-78 -107 -162.5 -157t-187.5 -50 q-186 0 -318 128t-132 309zM317 395q0 -80 53.5 -132t135.5 -52q58 0 101 35t91 119l-215 233q-166 -75 -166 -203zM446 1051q0 -35 21 -69t76 -89l28 14q111 55 111 142q0 54 -32.5 85t-88.5 31q-48 0 -81.5 -32.5t-33.5 -81.5z" />
<glyph unicode="'" horiz-adv-x="270" d="M57 1372h156l-16 -428h-123z" />
<glyph unicode="(" horiz-adv-x="636" d="M70 512q0 220 76.5 427t209.5 345q46 49 94.5 83t131.5 75v-264q-124 -115 -191 -288t-67 -376q0 -199 72 -383t186 -278v-265q-91 35 -150 80.5t-125 130.5q-114 146 -175.5 332t-61.5 381z" />
<glyph unicode=")" horiz-adv-x="636" d="M55 -147q124 115 191 287t67 376q0 199 -72 383.5t-186 278.5v264q91 -35 150 -80.5t125 -130.5q114 -146 175.5 -332t61.5 -383q0 -218 -77 -425t-209 -345q-50 -52 -99 -86t-127 -72v265z" />
<glyph unicode="*" horiz-adv-x="899" d="M96 1057l51 157l224 -79l-6 237h170l-7 -239l222 79l53 -157l-225 -70l141 -188l-135 -101l-138 197l-137 -197l-133 101l146 190z" />
<glyph unicode="+" d="M76 594v184h346v348h184v-348h348v-184h-348v-346h-184v346h-346z" />
<glyph unicode="," horiz-adv-x="481" d="M117 0v248h248v-262q0 -66 -18.5 -110t-59.5 -79q-69 -57 -156 -57h-12v125q59 10 83.5 34t24.5 70q0 19 -2 31h-108z" />
<glyph unicode="-" horiz-adv-x="514" d="M0 426v207h514v-207h-514z" />
<glyph unicode="." horiz-adv-x="481" d="M117 0v248h248v-248h-248z" />
<glyph unicode="/" horiz-adv-x="849" d="M-47 -344l639 1716h176l-641 -1716h-174z" />
<glyph unicode="0" d="M57 444v494q0 226 156 354q135 107 301 107q198 0 327.5 -130.5t129.5 -330.5v-506q0 -200 -127.5 -329.5t-323.5 -129.5q-103 0 -197.5 41t-160.5 115q-105 114 -105 315zM305 453q0 -112 58.5 -179t156.5 -67q94 0 150.5 64.5t56.5 170.5v498q0 89 -64 157t-147 68 q-89 0 -150 -66.5t-61 -164.5v-481z" />
<glyph unicode="1" d="M264 1139v233h420v-1372h-248v1139h-172z" />
<glyph unicode="2" d="M59 946q-6 124 54.5 229.5t166 165.5t230.5 60q190 0 321.5 -131t131.5 -320q0 -181 -121 -317q-30 -35 -75.5 -82.5t-68.5 -67.5l-278 -250h543v-233h-887v233l489 457q80 75 116 139.5t36 133.5q0 89 -56.5 146.5t-144.5 57.5q-59 0 -108.5 -31t-75.5 -85 q-23 -47 -23 -150h-248z" />
<glyph unicode="3" d="M27 414h247q9 -89 72.5 -148t149.5 -59q89 0 154 66t65 157q0 104 -74.5 165.5t-200.5 61.5h-39v234h43q78 0 124 39t46 106q0 57 -36 93t-93 36q-50 0 -77 -30.5t-35 -94.5h-248q8 86 28 138.5t64 99.5q112 121 272 121q154 0 263.5 -109.5t109.5 -261.5 q0 -79 -28.5 -136.5t-90.5 -105.5q63 -27 97.5 -55.5t64.5 -81.5q58 -98 58 -219q0 -193 -137 -325t-337 -132q-189 0 -321 126.5t-141 314.5z" />
<glyph unicode="4" d="M4 207v201l631 964h209v-932h145v-233h-145v-207h-248v207h-592zM268 440h328v516z" />
<glyph unicode="5" d="M20 408h246q19 -94 77 -147.5t142 -53.5q98 0 166 70.5t68 173.5q0 98 -69 169.5t-163 71.5q-57 0 -99.5 -22t-84.5 -76l-221 59l129 719h623v-233h-437l-45 -254q86 41 176 41q118 0 219.5 -64t160.5 -173t59 -236q0 -200 -139.5 -340t-338.5 -140q-121 0 -228 59 t-172 159.5t-69 216.5z" />
<glyph unicode="6" d="M39 459q0 75 23.5 154.5t64.5 142.5l405 616h291l-305 -465q58 4 68 4q166 0 285.5 -130.5t119.5 -313.5q0 -135 -63 -248.5t-172.5 -179.5t-239.5 -66q-199 0 -338 141.5t-139 344.5zM287 449q0 -100 66.5 -171t160.5 -71q95 0 162 68.5t67 166.5q0 100 -68 171t-163 71 q-94 0 -159.5 -68.5t-65.5 -166.5z" />
<glyph unicode="7" d="M121 1139v233h809v-233l-496 -1139h-274l512 1139h-551z" />
<glyph unicode="8" d="M55 428q0 132 82 240q28 36 53 55t70 41q-66 66 -94.5 125.5t-28.5 132.5q0 154 111 265.5t266 111.5q158 0 269.5 -110t111.5 -265q0 -81 -29 -142t-94 -118q76 -44 113 -86q41 -47 64.5 -115.5t23.5 -140.5q0 -121 -62 -224.5t-168 -164t-231 -60.5q-190 0 -323.5 133 t-133.5 322zM303 420q0 -89 61.5 -151t149.5 -62q87 0 149 62t62 149q0 86 -61.5 148.5t-145.5 62.5q-91 0 -153 -60.5t-62 -148.5zM371 1020q0 -61 42.5 -104.5t102.5 -43.5q61 0 104.5 43t43.5 103q0 59 -43 102t-101 43q-63 0 -106 -41.5t-43 -101.5z" />
<glyph unicode="9" d="M39 909q0 209 135.5 350.5t335.5 141.5q101 0 193 -40.5t163 -115.5q123 -132 123 -321q0 -177 -119 -357l-374 -567h-291l303 463q-40 -4 -49 -4q-180 0 -300 129t-120 321zM279 920q0 -98 68 -168t165 -70q98 0 167 69.5t69 166.5q0 95 -69 165t-163 70 q-98 0 -167.5 -68t-69.5 -165z" />
<glyph unicode=":" horiz-adv-x="481" d="M117 0v248h248v-248h-248zM117 782v248h248v-248h-248z" />
<glyph unicode=";" horiz-adv-x="481" d="M117 0v248h248v-262q0 -66 -18.5 -110t-59.5 -79q-69 -57 -156 -57h-12v125q59 10 83.5 34t24.5 70q0 19 -2 31h-108zM117 782v248h248v-248h-248z" />
<glyph unicode="&#x3c;" d="M70 596v207l893 448v-243l-631 -310l631 -307v-244z" />
<glyph unicode="=" d="M76 436v172h878v-172h-878zM76 764v172h878v-172h-878z" />
<glyph unicode="&#x3e;" d="M70 145v246l630 307l-630 310v243l893 -448v-209z" />
<glyph unicode="?" horiz-adv-x="933" d="M27 971q14 171 90 268q56 71 150 115.5t188 44.5q172 0 292.5 -125.5t120.5 -304.5q0 -90 -42.5 -166.5t-143.5 -163.5q-70 -63 -95.5 -110t-25.5 -119q0 -35 2 -64h-246q-2 25 -2 53q0 143 68 260q25 40 49 64.5t109 95.5q80 67 80 158q0 78 -48.5 126t-126.5 48 q-92 0 -139 -66q-21 -33 -33 -114h-247zM317 0v248h248v-248h-248z" />
<glyph unicode="@" horiz-adv-x="1564" d="M94 526q0 200 96 366t263 261.5t368 95.5q139 0 260 -46t207 -126t135.5 -192.5t49.5 -241.5q0 -123 -47 -233.5t-125 -177t-164 -66.5q-62 0 -105 33.5t-53 91.5q-44 -67 -113 -104t-149 -37q-123 0 -206 92.5t-83 230.5q0 166 107 289t253 123q143 0 209 -119l19 96 h162l-78 -397q-13 -67 -13 -92q0 -34 16 -55t42 -21q69 0 127.5 108.5t58.5 237.5q0 204 -140.5 333.5t-363.5 129.5q-120 0 -227 -45t-183 -123t-120.5 -186t-44.5 -230q0 -115 41.5 -220.5t116.5 -182.5q151 -154 415 -154q212 0 389 68l37 -144q-182 -67 -426 -67 q-319 0 -514 186q-103 98 -160 234t-57 284zM612 481q0 -75 42 -121.5t108 -46.5q76 0 134 72.5t58 167.5q0 73 -40 118.5t-105 45.5q-78 0 -137.5 -71t-59.5 -165z" />
<glyph unicode="A" horiz-adv-x="1341" d="M-2 0l571 1372h199l575 -1372h-280l-145 354h-488l-151 -354h-281zM522 592h295l-147 422z" />
<glyph unicode="B" horiz-adv-x="1079" d="M127 0v1372h270q158 0 235.5 -14t141.5 -55q74 -47 119 -127t45 -164q0 -174 -154 -264q236 -82 236 -340q0 -103 -46 -188t-134 -142q-122 -78 -346 -78h-367zM381 238h129q125 0 190.5 45.5t65.5 132.5q0 88 -66 136t-186 48h-133v-362zM381 838h84q107 0 156 28 q28 17 45.5 50.5t17.5 68.5q0 72 -51.5 111t-145.5 39h-106v-297z" />
<glyph unicode="C" horiz-adv-x="1456" d="M66 692q0 143 56.5 273.5t151.5 225.5t226.5 151.5t275.5 56.5q253 0 451 -160q74 -60 116 -115.5t80 -142.5h-288q-155 180 -369 180q-118 0 -221.5 -64.5t-164.5 -173.5t-61 -235t62.5 -236t168 -175.5t226.5 -65.5q98 0 177 39t167 131h295q-76 -183 -252 -295.5 t-383 -112.5q-144 0 -276 57.5t-228 154t-153 229.5t-57 278z" />
<glyph unicode="D" horiz-adv-x="1292" d="M127 0v1372h311q312 0 486 -104q138 -82 221.5 -242t83.5 -344q0 -194 -93.5 -358t-248.5 -242q-168 -82 -443 -82h-317zM381 238h53q121 0 197 15t139 52q95 57 150 157t55 218q0 123 -58 228.5t-157 162.5q-114 64 -330 64h-49v-897z" />
<glyph unicode="E" horiz-adv-x="946" d="M127 0v1372h739v-237h-485v-334h465v-238h-465v-325h485v-238h-739z" />
<glyph unicode="F" horiz-adv-x="876" d="M127 0v1372h698v-237h-444v-334h424v-238h-424v-563h-254z" />
<glyph unicode="G" horiz-adv-x="1591" d="M66 686q0 192 98.5 356.5t267 260.5t365.5 96q218 0 408.5 -122.5t256.5 -305.5h-303q-62 89 -159 139.5t-209 50.5q-97 0 -186 -37t-152 -104q-60 -63 -97 -156t-37 -182q0 -198 141 -334.5t345 -136.5q130 0 238 67t167 183h-575v237h895q0 -242 -131 -424 q-101 -139 -261 -220t-335 -81q-150 0 -286.5 56.5t-235.5 151.5t-157 227t-58 278z" />
<glyph unicode="H" horiz-adv-x="1251" d="M127 0v1372h254v-559h491v559h254v-1372h-254v575h-491v-575h-254z" />
<glyph unicode="I" horiz-adv-x="505" d="M127 0v1372h254v-1372h-254z" />
<glyph unicode="J" horiz-adv-x="866" d="M0 324h254q24 -113 123 -113q57 0 90 44t33 120v997h254v-981q0 -94 -18.5 -157t-61.5 -121q-52 -67 -129 -103.5t-166 -36.5q-82 0 -158 32.5t-131 92.5q-43 44 -63 93.5t-27 132.5z" />
<glyph unicode="K" horiz-adv-x="1099" d="M127 0v1372h254v-594l432 594h299l-518 -674l518 -698h-299l-432 602v-602h-254z" />
<glyph unicode="L" horiz-adv-x="833" d="M127 0v1372h254v-1134h418v-238h-672z" />
<glyph unicode="M" horiz-adv-x="1687" d="M127 0v1372h352l367 -1040l362 1040h353v-1372h-254v1028l-357 -1028h-213l-356 1028v-1028h-254z" />
<glyph unicode="N" horiz-adv-x="1368" d="M127 0v1372h289l571 -999v999h254v-1372h-285l-575 997v-997h-254z" />
<glyph unicode="O" horiz-adv-x="1562" d="M66 694q0 141 57.5 271.5t154 225.5t229 151.5t277.5 56.5t278 -56.5t229 -152t153 -227.5t57 -277t-57 -277t-153 -227.5t-229 -152t-278 -56.5q-148 0 -281 56.5t-229 152.5t-152 229.5t-56 282.5zM319 690q0 -131 62 -241t169.5 -174t235.5 -64q125 0 231 63.5 t168 173t62 238.5t-62 238.5t-168.5 173t-232.5 63.5q-125 0 -232 -63.5t-170 -172t-63 -235.5z" />
<glyph unicode="P" horiz-adv-x="1040" d="M127 0v1372h346q147 0 215 -13t131 -54q89 -57 137 -147.5t48 -201.5q0 -112 -49 -209.5t-134 -156.5q-60 -41 -126 -53.5t-226 -12.5h-88v-524h-254zM381 762h82q114 0 170 20q51 19 84 67t33 105t-31.5 101t-85.5 63q-34 11 -60 14t-100 3h-92v-373z" />
<glyph unicode="Q" horiz-adv-x="1589" d="M66 688q0 196 96 359t262.5 257.5t366.5 94.5q199 0 368.5 -95.5t268 -259t98.5 -354.5q0 -138 -36 -236t-128 -214q67 -39 147 -39q1 0 41 4v-232q-16 -2 -34 -2q-88 0 -162 26t-162 87q-74 -51 -179.5 -81t-213.5 -30q-201 0 -369.5 95.5t-266 260t-97.5 359.5z M319 692q0 -30 5 -71q89 24 196 24q118 0 221 -30t226 -101q127 -75 190 -135q62 72 88.5 143.5t26.5 163.5q0 96 -38 184t-102 152t-152 101.5t-185 37.5q-125 0 -235 -64.5t-175.5 -173t-65.5 -231.5zM403 420q151 -209 394 -209q58 0 97.5 10t82.5 35q-127 95 -236 138.5 t-217 43.5q-53 0 -121 -18z" />
<glyph unicode="R" horiz-adv-x="1110" d="M127 0v1372h420q123 0 205 -24.5t145 -79.5q70 -61 107.5 -144t37.5 -176q0 -97 -38.5 -188.5t-104.5 -149.5q-43 -39 -90 -61t-125 -41l371 -508h-307l-367 524v-524h-254zM381 717h162q115 0 180 56t65 155q0 94 -66.5 150.5t-176.5 56.5h-164v-418z" />
<glyph unicode="S" horiz-adv-x="993" d="M35 393h266q1 -85 52 -134.5t136 -49.5q80 0 132.5 48.5t52.5 123.5q0 74 -42.5 120t-144.5 83q-150 55 -198 79t-90 66q-54 52 -84.5 128t-30.5 153q0 160 118.5 274.5t284.5 114.5q91 0 175.5 -40t142.5 -110q83 -101 88 -239h-262q-6 70 -46.5 110.5t-105.5 40.5 t-103 -37.5t-38 -101.5q0 -68 53 -109q27 -22 60 -37.5t116 -44.5q94 -34 144.5 -60t91.5 -66q125 -116 125 -289q0 -182 -125 -307q-66 -65 -149.5 -100.5t-170.5 -35.5q-104 0 -200 45.5t-158 122.5q-44 58 -64.5 116t-25.5 136z" />
<glyph unicode="T" horiz-adv-x="800" d="M18 1135v237h762v-237h-254v-1135h-254v1135h-254z" />
<glyph unicode="U" horiz-adv-x="1206" d="M113 500v872h254v-872q0 -76 9 -116t34 -77q64 -98 192 -98q61 0 113.5 26t81.5 70q24 35 33.5 78t9.5 117v872h254v-872q0 -224 -95 -342q-69 -89 -172.5 -138t-220.5 -49q-124 0 -234.5 55t-178.5 150q-80 113 -80 324z" />
<glyph unicode="V" horiz-adv-x="1247" d="M-14 1372h268l369 -1044l370 1044h267l-531 -1372h-209z" />
<glyph unicode="W" horiz-adv-x="1705" d="M25 1372h260l239 -958l238 958h184l234 -958l241 958h260l-399 -1372h-203l-223 907l-229 -907h-201z" />
<glyph unicode="X" horiz-adv-x="1218" d="M-14 0l473 684l-473 688h301l321 -479l330 479h295l-475 -688l475 -684h-295l-330 475l-321 -475h-301z" />
<glyph unicode="Y" horiz-adv-x="1130" d="M-14 1372h278l299 -631l299 631h281l-453 -866v-506h-254v506z" />
<glyph unicode="Z" horiz-adv-x="940" d="M45 0v209l526 926h-497v237h792v-221l-520 -913h557v-238h-858z" />
<glyph unicode="[" horiz-adv-x="636" d="M111 213v661q0 264 145 418q51 56 107.5 88.5t152.5 61.5v-258q-53 -22 -80.5 -46.5t-42.5 -64.5q-35 -85 -35 -250v-653q0 -131 37 -215q19 -43 45 -67t76 -44v-256q-405 92 -405 625z" />
<glyph unicode="\" horiz-adv-x="849" d="M82 1372h176l639 -1716h-174z" />
<glyph unicode="]" horiz-adv-x="636" d="M121 -154q54 22 81 46.5t42 64.5q35 85 35 250v653q0 129 -37 213q-19 45 -44.5 69t-76.5 44v256q405 -98 405 -627v-661q0 -260 -145 -418q-51 -54 -107.5 -86.5t-152.5 -61.5v258z" />
<glyph unicode="^" d="M16 700l336 680h324l336 -680h-258l-240 484l-240 -484h-258z" />
<glyph unicode="_" horiz-adv-x="1024" d="M0 -100h1024v-224h-1024v224z" />
<glyph unicode="`" d="M209 1399l117 160l356 -297l-109 -136z" />
<glyph unicode="a" horiz-adv-x="1261" d="M61 520q0 232 148 388.5t366 156.5q98 0 194 -46t153 -120v131h227v-1030h-227v127q-21 -26 -82 -70q-134 -92 -277 -92q-217 0 -359.5 158t-142.5 397zM309 510q0 -135 88.5 -227.5t216.5 -92.5q129 0 215 93t86 231q0 141 -85 232.5t-216 91.5q-129 0 -217 -95 t-88 -233z" />
<glyph unicode="b" horiz-adv-x="1259" d="M113 0v1372h247v-436q123 129 322 129q141 0 260.5 -73.5t188.5 -200.5t69 -277q0 -152 -67 -278t-185 -198.5t-260 -72.5q-106 0 -189.5 38t-158.5 120v-123h-227zM346 520q0 -139 89.5 -233t221.5 -94q127 0 211 91.5t84 231.5q0 138 -86 230t-215 92 q-128 0 -216.5 -92.5t-88.5 -225.5z" />
<glyph unicode="c" horiz-adv-x="1159" d="M61 520q0 147 73.5 272.5t199.5 199t274 73.5q104 0 201 -39t174 -111q54 -49 84.5 -98t56.5 -129h-278q-45 81 -101.5 116.5t-136.5 35.5q-130 0 -214.5 -92t-84.5 -232t88 -231.5t221 -91.5q141 0 228 143h278q-31 -86 -69.5 -143t-100.5 -107q-69 -57 -161 -89 t-183 -32q-148 0 -274.5 74.5t-200.5 202.5t-74 278z" />
<glyph unicode="d" horiz-adv-x="1259" d="M59 514q0 148 70 275t189.5 201.5t259.5 74.5q86 0 174 -35t145 -92v434h248v-1372h-225v125q-69 -75 -162.5 -117.5t-192.5 -42.5q-135 0 -251.5 74.5t-185.5 201.5t-69 273zM307 518q0 -135 89.5 -230t215.5 -95q124 0 215 95t91 226q0 132 -91.5 228t-216.5 96 q-122 0 -212.5 -95.5t-90.5 -224.5z" />
<glyph unicode="e" horiz-adv-x="1198" d="M61 514q0 151 72.5 279.5t197.5 203t273 74.5q107 0 205.5 -43.5t170.5 -116t114.5 -172.5t42.5 -209q0 -38 -15 -124h-800q25 -92 103.5 -152.5t172.5 -60.5q148 0 229 133h273q-47 -157 -188 -259t-308 -102q-148 0 -273 73t-197.5 199.5t-72.5 276.5zM315 604h580 q-26 110 -104 175t-185 65q-106 0 -186 -66.5t-105 -173.5z" />
<glyph unicode="f" horiz-adv-x="577" d="M63 803v227h89q8 86 27 142.5t57 103.5q44 57 111.5 90t139.5 33q43 0 70 -2v-240q-90 0 -121 -25t-37 -102h144v-227h-144v-803h-247v803h-89z" />
<glyph unicode="g" horiz-adv-x="1271" d="M61 524q0 109 42 209.5t113 173t168.5 115.5t203.5 43q218 0 344 -162v127h227v-842q0 -132 -29.5 -228.5t-93.5 -174.5q-82 -97 -196 -150t-244 -53q-177 0 -317 91.5t-201 248.5h280q100 -115 252 -115q134 0 223.5 90t96.5 234q-138 -166 -340 -166q-143 0 -265 75 t-193 204t-71 280zM309 520q0 -138 89 -234t218 -96q120 0 207.5 95t87.5 225q0 136 -88.5 232t-214.5 96t-212.5 -92t-86.5 -226z" />
<glyph unicode="h" horiz-adv-x="1130" d="M113 0v1372h247v-414q113 107 267 107q91 0 180 -46.5t143 -121.5q41 -57 58.5 -128.5t17.5 -186.5v-582h-248v526q0 161 -51 236.5t-158 75.5q-114 0 -172 -103q-37 -67 -37 -213v-522h-247z" />
<glyph unicode="i" horiz-adv-x="473" d="M113 0v1030h247v-1030h-247zM113 1145v227h247v-227h-247z" />
<glyph unicode="j" horiz-adv-x="473" d="M10 -104q67 11 85 37t18 116v981h247v-987q0 -172 -96 -279t-254 -108v240zM113 1149v223h247v-223h-247z" />
<glyph unicode="k" horiz-adv-x="1011" d="M113 0v1372h247v-827l332 485h285l-371 -504l418 -526h-311l-353 481v-481h-247z" />
<glyph unicode="l" horiz-adv-x="473" d="M113 0v1372h247v-1372h-247z" />
<glyph unicode="m" horiz-adv-x="1763" d="M113 0v1030h227v-88q92 123 272 123q188 0 297 -162q113 162 332 162q111 0 200 -43.5t144 -124.5q74 -104 74 -297v-600h-248v569q0 146 -51 203q-56 66 -143 66q-52 0 -99.5 -27.5t-73.5 -73.5q-36 -63 -36 -223v-514h-248v569q0 132 -51 197q-56 72 -154 72 q-57 0 -100.5 -29t-65.5 -80q-29 -71 -29 -215v-514h-247z" />
<glyph unicode="n" horiz-adv-x="1134" d="M113 0v1030h229v-90q68 66 133.5 95.5t147.5 29.5q91 0 177 -42t140 -112q49 -63 68.5 -142t19.5 -212v-557h-248v508q0 192 -61 262q-24 30 -65.5 49t-80.5 19q-51 0 -99 -27t-73 -70q-23 -38 -32 -92.5t-9 -159.5v-489h-247z" />
<glyph unicode="o" horiz-adv-x="1218" d="M61 524q0 144 75 269t202 198.5t274 73.5q149 0 274.5 -73t198 -199.5t72.5 -276.5q0 -113 -43 -215t-117 -176t-176 -117t-215 -43q-111 0 -212 44t-174 119t-116 178.5t-43 217.5zM309 518q0 -138 86.5 -231.5t214.5 -93.5q126 0 212.5 92t86.5 227q0 134 -88 230 t-211 96q-122 0 -211.5 -95t-89.5 -225z" />
<glyph unicode="p" horiz-adv-x="1253" d="M113 -344v1374h227v-121q125 156 338 156q220 0 364 -160q72 -78 111 -178t39 -207q0 -152 -68.5 -279.5t-187.5 -201.5t-260 -74q-98 0 -167 28.5t-149 102.5v-440h-247zM346 518q0 -138 86.5 -231.5t212.5 -93.5q124 0 211.5 93.5t87.5 227.5q0 135 -86 229.5 t-209 94.5q-127 0 -215 -93t-88 -227z" />
<glyph unicode="q" horiz-adv-x="1255" d="M59 524q0 108 42 208t112 173t166.5 116.5t200.5 43.5q109 0 187.5 -39t147.5 -127v131h226v-1374h-248v442q-121 -133 -313 -133q-142 0 -262 75t-189.5 203.5t-69.5 280.5zM307 518q0 -139 86 -232t215 -93q123 0 211 94.5t88 226.5t-89 228t-212 96q-126 0 -212.5 -93 t-86.5 -227z" />
<glyph unicode="r" horiz-adv-x="600" d="M113 0v1030h227v-92q56 73 103 100t120 27h21v-242q-114 -4 -169 -63.5t-55 -181.5v-578h-247z" />
<glyph unicode="s" horiz-adv-x="831" d="M29 324h252q19 -71 50 -102.5t85 -31.5q47 0 78.5 30.5t31.5 74.5q0 45 -36 73.5t-138 61.5q-88 28 -121 44.5t-71 51.5q-94 85 -94 219q0 132 101 226t243 94q76 0 144.5 -31t115.5 -88q40 -46 57 -89.5t18 -106.5h-241q-7 43 -32.5 65.5t-63.5 22.5q-41 0 -69 -25 t-28 -63q0 -34 24 -55t83 -40q112 -34 158.5 -52.5t80.5 -43.5q117 -83 117 -233q0 -149 -111 -255t-266 -106q-88 0 -170 40t-129 106q-31 41 -46 88.5t-23 124.5z" />
<glyph unicode="t" horiz-adv-x="569" d="M16 803v227h121v342h248v-342h147v-227h-147v-803h-248v803h-121z" />
<glyph unicode="u" horiz-adv-x="1134" d="M106 426v604h248v-526q0 -311 213 -311q101 0 155 80t54 231v526h248v-1030h-227v102q-60 -77 -119 -107t-148 -30q-172 0 -294 113q-71 63 -100.5 142t-29.5 206z" />
<glyph unicode="v" horiz-adv-x="1009" d="M-8 1030h268l250 -684l238 684h270l-416 -1030h-194z" />
<glyph unicode="w" horiz-adv-x="1456" d="M6 1030h264l189 -629l172 629h196l168 -629l191 629h264l-377 -1030h-151l-195 668l-199 -668h-151z" />
<glyph unicode="x" horiz-adv-x="997" d="M-14 0l366 532l-319 498h276l189 -311l188 311h277l-320 -498l371 -532h-295l-221 352l-217 -352h-295z" />
<glyph unicode="y" horiz-adv-x="1028" d="M-8 1030h282l234 -661l248 661h280l-592 -1374h-266l191 440z" />
<glyph unicode="z" horiz-adv-x="847" d="M35 0v223l454 580h-403v227h700v-223l-454 -580h487v-227h-784z" />
<glyph unicode="{" horiz-adv-x="636" d="M45 432v182q58 13 84.5 52.5t26.5 113.5v310q0 156 71 225.5t230 60.5l75 -4h35v-211h-18q-92 0 -123 -24q-20 -15 -25.5 -36t-5.5 -85v-252q0 -119 -45 -180q-21 -29 -88 -70q75 -79 90.5 -98.5t24.5 -44.5q18 -56 18 -129v-230q0 -67 6.5 -89t30.5 -36q27 -20 115 -20 h20v-211h-35l-75 -4q-72 -4 -134.5 15.5t-101.5 56.5q-65 62 -65 219v303q0 88 -25.5 130t-85.5 56z" />
<glyph unicode="|" d="M391 -344v1716h248v-1716h-248z" />
<glyph unicode="}" horiz-adv-x="636" d="M70 -133h18q90 0 121 24q20 15 25.5 36t5.5 85v252q0 119 45 180q21 29 88 70q-75 79 -90.5 98.5t-24.5 44.5q-18 49 -18 129v230q0 67 -6.5 89t-28.5 36q-30 20 -117 20h-18v211h34l74 4q152 9 236 -71q65 -62 65 -220v-303q0 -88 25.5 -130t87.5 -56v-182 q-60 -13 -86.5 -52.5t-26.5 -113.5v-309q0 -156 -71 -226t-230 -61q-25 4 -76 4h-32v211z" />
<glyph unicode="~" horiz-adv-x="1372" d="M186 1251q12 28 17 33q70 139 130.5 192.5t160.5 53.5q66 0 215 -57q89 -35 120 -43.5t64 -8.5q49 0 81.5 24t69.5 87l142 -82q-42 -88 -73 -132t-73 -75q-80 -59 -178 -59q-36 0 -84.5 15t-214.5 77q-46 16 -86 16q-51 0 -82 -27t-71 -104z" />
<glyph unicode="&#xa1;" horiz-adv-x="534" d="M143 -344v1024h248v-1024h-248zM143 795v235h248v-235h-248z" />
<glyph unicode="&#xa2;" d="M72 711q0 153 95.5 275t238.5 153v188h233v-188q118 -31 202.5 -116.5t110.5 -201.5h-262q-23 38 -71.5 63t-100.5 25q-85 0 -143 -59.5t-58 -147.5q0 -86 58.5 -143t146.5 -57q44 0 78 16t80 57h272q-53 -126 -127 -197t-186 -102v-202h-233v202q-63 12 -110.5 39 t-94.5 78q-60 63 -94.5 148t-34.5 170z" />
<glyph unicode="&#xa3;" d="M0 575v234h86q-29 77 -29 149q0 178 132.5 309.5t312.5 131.5q119 0 218 -59.5t167 -170.5q53 -89 53 -163h-250q-15 69 -66 111t-120 42q-85 0 -142 -61.5t-57 -153.5q0 -75 51 -135h385v-234h-200q31 -61 44 -110t13 -111q0 -57 -20 -121q72 0 118 25q37 22 61.5 66.5 t24.5 91.5q0 29 -16 92h246q18 -34 18 -96q0 -83 -38 -168.5t-99 -139.5q-122 -104 -309 -104h-527v233h258q35 60 35 134q0 57 -23 102.5t-81 105.5h-246z" />
<glyph unicode="&#xa4;" horiz-adv-x="1220" d="M82 256l156 156q-93 125 -93 278q0 145 91 273l-150 149l98 96l150 -149q129 92 274 92q156 0 277 -92l155 155l97 -98l-156 -153q90 -127 90 -273q0 -148 -90 -278l152 -152l-99 -96l-149 149q-130 -90 -279 -90t-272 90l-156 -155zM330 692q0 -125 80.5 -211t197.5 -86 q118 0 200.5 86t82.5 209q0 119 -83 205t-198 86q-114 0 -197 -86t-83 -203z" />
<glyph unicode="&#xa5;" d="M-4 1372h248l268 -602l272 602h248l-209 -434h129v-195h-221l-88 -184h268v-194h-274v-365h-248v365h-272v194h266l-88 184h-219v195h127z" />
<glyph unicode="&#xa6;" d="M391 315h248v-659h-248v659zM391 664v708h248v-708h-248z" />
<glyph unicode="&#xa7;" d="M59 643q0 85 36.5 150.5t113.5 121.5q-53 86 -53 175q0 138 103 224.5t269 86.5q169 0 268.5 -90t116.5 -260h-231q-10 64 -51 93.5t-119 29.5q-58 0 -92.5 -25t-34.5 -66q0 -67 121 -131l305 -155q74 -39 116 -106.5t42 -151.5q0 -74 -37.5 -141.5t-106.5 -118.5 q49 -51 71 -103.5t22 -120.5q0 -152 -113 -250t-287 -98q-184 0 -302 109t-124 284h246q0 -53 14 -82q20 -41 65.5 -65.5t102.5 -24.5q69 0 116.5 35t47.5 86q0 43 -26 70.5t-105 68.5l-307 162q-187 100 -187 293zM276 659q0 -61 109 -116l287 -148q76 57 76 121 q0 35 -23.5 60t-87.5 57l-283 145q-34 -23 -56 -57t-22 -62z" />
<glyph unicode="&#xa8;" d="M209 1174v247h240v-247h-240zM580 1174v247h239v-247h-239z" />
<glyph unicode="&#xa9;" horiz-adv-x="1613" d="M94 694q0 113 36.5 220t103.5 194t155 153t196.5 102t223.5 36q144 0 276 -57t227.5 -152.5t152.5 -227.5t57 -276t-57 -276t-152.5 -227.5t-227.5 -152.5t-276 -57q-195 0 -359.5 96t-260 262t-95.5 363zM176 692q0 -175 84.5 -323.5t230.5 -235t318 -86.5 q169 0 314.5 86.5t231 233.5t85.5 317q0 172 -85.5 320t-231 234.5t-314.5 86.5t-315 -86.5t-232 -232.5t-86 -314zM350 702q0 115 62 213t168.5 155.5t230.5 57.5q167 0 295 -96q49 -36 77 -71.5t54 -94.5h-199q-100 109 -231 109q-114 0 -197.5 -82t-83.5 -193 q0 -110 85.5 -193t199.5 -83q63 0 112 22.5t107 79.5h203q-52 -117 -166 -186.5t-252 -69.5q-125 0 -232 58.5t-170 158t-63 215.5z" />
<glyph unicode="&#xaa;" horiz-adv-x="841" d="M49 862q0 139 96.5 233.5t239.5 94.5q116 0 215 -86v65h158v-620h-158v65q-110 -86 -223 -86q-141 0 -234.5 95.5t-93.5 238.5zM221 858q0 -76 55.5 -129t133.5 -53q79 0 132.5 53t53.5 131q0 82 -52 133t-134 51q-79 0 -134 -54t-55 -132z" />
<glyph unicode="&#xab;" horiz-adv-x="792" d="M76 436v187l258 241v-229l-125 -105l125 -108v-229zM444 436v187l258 241v-229l-124 -105l124 -108v-229z" />
<glyph unicode="&#xac;" d="M70 319v232h893v-551h-248v319h-645z" />
<glyph unicode="&#xad;" horiz-adv-x="514" d="M0 426v207h514v-207h-514z" />
<glyph unicode="&#xae;" horiz-adv-x="1613" d="M94 694q0 113 36.5 220t103.5 194t155 153t196.5 102t223.5 36q144 0 276 -57t227.5 -152.5t152.5 -227.5t57 -276t-57 -276t-152.5 -227.5t-227.5 -152.5t-276 -57q-195 0 -359.5 96t-260 262t-95.5 363zM176 692q0 -175 84.5 -323.5t230.5 -235t318 -86.5 q169 0 314.5 86.5t231 233.5t85.5 317q0 172 -85.5 320t-231 234.5t-314.5 86.5t-315 -86.5t-232 -232.5t-86 -314zM535 289v823h276q150 0 227 -63q97 -78 97 -195q0 -100 -59.5 -169t-166.5 -95l240 -301h-213l-225 295v-295h-176zM711 725h96q70 0 110.5 31.5t40.5 87.5 q0 52 -40.5 83t-108.5 31h-98v-233z" />
<glyph unicode="&#xaf;" d="M207 1202v164h631v-164h-631z" />
<glyph unicode="&#xb0;" horiz-adv-x="788" d="M96 1112q0 117 88 202t209 85q124 0 211.5 -85.5t87.5 -205.5q0 -121 -87.5 -207t-209.5 -86q-125 0 -212 86.5t-87 210.5zM229 1110q0 -69 48.5 -116.5t117.5 -47.5q67 0 115.5 48t48.5 114t-48.5 113t-117.5 47q-66 0 -115 -47t-49 -111z" />
<glyph unicode="&#xb1;" d="M76 0v184h878v-184h-878zM76 594v184h346v348h184v-348h348v-184h-348v-346h-184v346h-346z" />
<glyph unicode="&#xb2;" horiz-adv-x="698" d="M51 1112q0 117 85 197t210 80t211 -80t86 -195q0 -137 -172 -278l-164 -136h336v-151h-582v147l316 271q94 81 94 155q0 51 -33.5 83t-87.5 32q-73 0 -110 -66q-15 -30 -15 -92h-172q-2 14 -2 33z" />
<glyph unicode="&#xb3;" horiz-adv-x="698" d="M29 807h172q5 -54 42.5 -88.5t92.5 -34.5q54 0 93.5 37t39.5 88q0 58 -45.5 92.5t-122.5 34.5h-33v151h35q47 0 75 21.5t28 58.5q0 31 -21 50.5t-55 19.5q-59 0 -68 -74h-172q4 56 18 88t46 64q74 74 178 74q101 0 173.5 -67t72.5 -159t-70 -141q63 -26 98 -82.5 t35 -128.5q0 -118 -89 -198.5t-220 -80.5q-126 0 -213 79t-90 196z" />
<glyph unicode="&#xb4;" d="M346 1262l356 297l117 -160l-366 -273z" />
<glyph unicode="&#xb5;" d="M59 -354v1343h248v-528q0 -99 15 -151t53 -89q59 -59 143 -59q92 0 150 74q31 42 43 92t12 141v520h248v-989h-248v125q-38 -77 -88.5 -112.5t-122.5 -35.5q-66 0 -115 31.5t-90 100.5v-463h-248z" />
<glyph unicode="&#xb6;" d="M41 1008q0 103 37.5 183.5t105.5 123.5q88 57 260 57h504v-158h-104v-1407h-168v1407h-141v-1407h-168v850h-23q-135 0 -219 97t-84 254z" />
<glyph unicode="&#xb7;" horiz-adv-x="481" d="M117 406v247h248v-247h-248z" />
<glyph unicode="&#xb8;" d="M379 -309h110q24 -56 74 -56q32 0 54 24.5t22 59.5q0 32 -21.5 55t-50.5 23q-37 0 -71 -45l-101 49l88 199h86l-47 -109q38 15 56 15q70 0 122 -56t52 -131q0 -78 -54 -132t-131 -54q-72 0 -125.5 44.5t-62.5 113.5z" />
<glyph unicode="&#xb9;" horiz-adv-x="698" d="M182 1221v151h283v-823h-172v672h-111z" />
<glyph unicode="&#xba;" horiz-adv-x="815" d="M49 864q0 134 106.5 231t254.5 97t251 -97t103 -235t-105 -235t-256 -97q-146 0 -250 99t-104 237zM221 862q0 -78 54 -132t133 -54q77 0 130.5 53t53.5 129t-54.5 131t-129.5 55t-131 -54.5t-56 -127.5z" />
<glyph unicode="&#xbb;" horiz-adv-x="792" d="M90 193v229l125 108l-125 105v229l258 -241v-187zM459 193v229l125 108l-125 105v229l258 -241v-187z" />
<glyph unicode="&#xbc;" horiz-adv-x="1708" d="M182 1221v151h283v-823h-172v672h-111zM492 0l569 1372h153l-567 -1372h-155zM1024 121v129l408 573h143v-551h94v-151h-94v-121h-172v121h-379zM1208 266h201v293z" />
<glyph unicode="&#xbd;" horiz-adv-x="1708" d="M182 1221v151h283v-823h-172v672h-111zM492 0l569 1372h153l-567 -1372h-155zM1059 563q0 117 86 197t211 80t211 -80t86 -195q0 -137 -172 -278l-164 -135h336v-152h-584v147l317 271q95 82 95 155q0 51 -33.5 83t-87.5 32q-77 0 -113 -65q-14 -23 -14 -93h-172 q-2 14 -2 33z" />
<glyph unicode="&#xbe;" horiz-adv-x="1708" d="M29 807h172q5 -54 42.5 -88.5t92.5 -34.5q54 0 93.5 37t39.5 88q0 58 -45.5 92.5t-122.5 34.5h-33v151h35q47 0 75 21.5t28 58.5q0 31 -21 50.5t-55 19.5q-59 0 -68 -74h-172q4 56 18 88t46 64q74 74 178 74q101 0 173.5 -67t72.5 -159t-70 -141q63 -26 98 -82.5 t35 -128.5q0 -118 -89 -198.5t-220 -80.5q-126 0 -213 79t-90 196zM492 0l567 1372h155l-569 -1372h-153zM1024 121v129l408 573h143v-551h92v-151h-92v-121h-172v121h-379zM1208 266h201v293z" />
<glyph unicode="&#xbf;" horiz-adv-x="933" d="M66 61q0 88 43 164t143 164q71 62 96 109t25 120q0 31 -2 64h245q2 -23 2 -53q0 -145 -67 -260q-25 -40 -49 -64.5t-109 -93.5q-80 -67 -80 -158q0 -80 47.5 -128t126.5 -48q91 0 140 68q20 28 32 114h248q-14 -171 -90 -268q-57 -72 -150.5 -117t-187.5 -45 q-172 0 -292.5 126t-120.5 306zM371 782v248h247v-248h-247z" />
<glyph unicode="&#xc0;" horiz-adv-x="1341" d="M-2 0l571 1372h199l575 -1372h-280l-145 354h-488l-151 -354h-281zM264 1692l96 188l418 -248l-90 -164zM522 592h295l-147 422z" />
<glyph unicode="&#xc1;" horiz-adv-x="1341" d="M-2 0l571 1372h199l575 -1372h-280l-145 354h-488l-151 -354h-281zM522 592h295l-147 422zM559 1632l418 248l96 -188l-424 -224z" />
<glyph unicode="&#xc2;" horiz-adv-x="1341" d="M-2 0l571 1372h199l575 -1372h-280l-145 354h-488l-151 -354h-281zM313 1503l252 256h228l256 -256h-271l-98 119l-98 -119h-269zM522 592h295l-147 422z" />
<glyph unicode="&#xc3;" horiz-adv-x="1341" d="M-2 0l571 1372h199l575 -1372h-280l-145 354h-488l-151 -354h-281zM350 1655q83 86 201 86q38 0 65.5 -5.5t81.5 -23.5q71 -24 119 -24q86 0 148 65l79 -154q-92 -98 -198 -98q-47 0 -189 43q-58 17 -77 17q-74 0 -150 -68zM522 592h295l-147 422z" />
<glyph unicode="&#xc4;" horiz-adv-x="1341" d="M-2 0l571 1372h199l575 -1372h-280l-145 354h-488l-151 -354h-281zM362 1516v247h248v-247h-248zM522 592h295l-147 422zM745 1516v247h248v-247h-248z" />
<glyph unicode="&#xc5;" horiz-adv-x="1341" d="M-2 0l571 1372h199l575 -1372h-280l-145 354h-488l-151 -354h-281zM465 1681q0 86 62.5 147.5t150.5 61.5t149.5 -61.5t61.5 -149.5t-61.5 -149.5t-149.5 -61.5q-89 0 -151 62t-62 151zM522 592h295l-147 422zM596 1681q0 -36 24 -61t58 -25q32 0 56 25t24 59t-24 59 t-56 25q-33 0 -57.5 -24.5t-24.5 -57.5z" />
<glyph unicode="&#xc6;" horiz-adv-x="1572" d="M-47 0l907 1372h633v-237h-410v-334h390v-238h-390v-325h410v-238h-664v354h-364l-213 -354h-299zM616 592h213v362z" />
<glyph unicode="&#xc7;" horiz-adv-x="1456" d="M66 690q0 143 56.5 274.5t151.5 226.5t226.5 151.5t275.5 56.5q253 0 451 -160q74 -60 116 -115.5t80 -142.5h-288q-155 180 -369 180q-118 0 -221.5 -65t-164.5 -174t-61 -234q0 -127 62.5 -237.5t168 -176t226.5 -65.5q99 0 178 39.5t166 132.5h295q-72 -181 -256 -298 t-391 -112l-37 -77q38 14 60 14q72 0 127 -59.5t55 -137.5q0 -82 -58.5 -141t-140.5 -59t-136 47.5t-63 126.5h113q11 -30 33 -47t51 -17q34 0 57 26t23 64q0 35 -21.5 57.5t-54.5 22.5q-48 0 -78 -49l-106 53l80 185q-124 30 -178.5 51.5t-116.5 66.5q-149 107 -230 262.5 t-81 329.5z" />
<glyph unicode="&#xc8;" horiz-adv-x="946" d="M127 0v1372h739v-237h-485v-334h465v-238h-465v-325h485v-238h-739zM143 1692l97 188l417 -248l-90 -164z" />
<glyph unicode="&#xc9;" horiz-adv-x="946" d="M127 0v1372h739v-237h-485v-334h465v-238h-465v-325h485v-238h-739zM377 1632l418 248l96 -188l-424 -224z" />
<glyph unicode="&#xca;" horiz-adv-x="946" d="M127 0v1372h739v-237h-485v-334h465v-238h-465v-325h485v-238h-739zM133 1503l252 256h227l256 -256h-270l-98 119l-99 -119h-268z" />
<glyph unicode="&#xcb;" horiz-adv-x="946" d="M127 0v1372h739v-237h-485v-334h465v-238h-465v-325h485v-238h-739zM186 1516v247h248v-247h-248zM569 1516v247h248v-247h-248z" />
<glyph unicode="&#xcc;" horiz-adv-x="505" d="M-100 1698l110 174l363 -246l-97 -158zM127 0v1372h254v-1372h-254z" />
<glyph unicode="&#xcd;" horiz-adv-x="505" d="M127 0v1372h254v-1372h-254zM147 1626l365 246l111 -174l-377 -230z" />
<glyph unicode="&#xce;" horiz-adv-x="505" d="M-84 1503l225 256h228l227 -256h-262l-80 133l-76 -133h-262zM125 0v1372h254v-1372h-254z" />
<glyph unicode="&#xcf;" horiz-adv-x="505" d="M-25 1516v247h234v-247h-234zM127 0v1372h254v-1372h-254zM311 1516v247h234v-247h-234z" />
<glyph unicode="&#xd0;" horiz-adv-x="1292" d="M-4 584v213h131v575h311q312 0 486 -104q138 -82 221.5 -241.5t83.5 -342.5q0 -195 -93.5 -359.5t-248.5 -242.5q-165 -82 -443 -82h-317v584h-131zM381 238h53q121 0 197 15t139 52q95 57 150 157t55 218q0 124 -57.5 229t-157.5 162q-114 64 -330 64h-49v-338h328v-213 h-328v-346z" />
<glyph unicode="&#xd1;" horiz-adv-x="1368" d="M127 0v1372h289l571 -999v999h254v-1372h-285l-575 997v-997h-254zM371 1655q83 86 200 86q62 0 148 -29q70 -24 119 -24q85 0 147 65l80 -154q-92 -98 -199 -98q-46 0 -188 43q-58 17 -78 17q-73 0 -149 -68z" />
<glyph unicode="&#xd2;" horiz-adv-x="1562" d="M66 694q0 141 57.5 271.5t154 225.5t229 151.5t277.5 56.5t278 -56.5t229 -152t153 -227.5t57 -277t-57 -277t-153 -227.5t-229 -152t-278 -56.5q-148 0 -281 56.5t-229 152.5t-152 229.5t-56 282.5zM319 690q0 -131 62 -241t169.5 -174t235.5 -64q125 0 231 63.5 t168 173t62 238.5t-62 238.5t-168.5 173t-232.5 63.5q-125 0 -232 -63.5t-170 -172t-63 -235.5zM375 1692l96 188l418 -248l-90 -164z" />
<glyph unicode="&#xd3;" horiz-adv-x="1562" d="M66 694q0 141 57.5 271.5t154 225.5t229 151.5t277.5 56.5t278 -56.5t229 -152t153 -227.5t57 -277t-57 -277t-153 -227.5t-229 -152t-278 -56.5q-148 0 -281 56.5t-229 152.5t-152 229.5t-56 282.5zM319 690q0 -131 62 -241t169.5 -174t235.5 -64q125 0 231 63.5 t168 173t62 238.5t-62 238.5t-168.5 173t-232.5 63.5q-125 0 -232 -63.5t-170 -172t-63 -235.5zM678 1632l418 248l96 -188l-424 -224z" />
<glyph unicode="&#xd4;" horiz-adv-x="1562" d="M66 694q0 141 57.5 271.5t154 225.5t229 151.5t277.5 56.5t278 -56.5t229 -152t153 -227.5t57 -277t-57 -277t-153 -227.5t-229 -152t-278 -56.5q-148 0 -281 56.5t-229 152.5t-152 229.5t-56 282.5zM319 690q0 -131 62 -241t169.5 -174t235.5 -64q125 0 231 63.5 t168 173t62 238.5t-62 238.5t-168.5 173t-232.5 63.5q-125 0 -232 -63.5t-170 -172t-63 -235.5zM426 1503l252 256h227l256 -256h-270l-98 119l-99 -119h-268z" />
<glyph unicode="&#xd5;" horiz-adv-x="1562" d="M66 694q0 141 57.5 271.5t154 225.5t229 151.5t277.5 56.5t278 -56.5t229 -152t153 -227.5t57 -277t-57 -277t-153 -227.5t-229 -152t-278 -56.5q-148 0 -281 56.5t-229 152.5t-152 229.5t-56 282.5zM319 690q0 -131 62 -241t169.5 -174t235.5 -64q125 0 231 63.5 t168 173t62 238.5t-62 238.5t-168.5 173t-232.5 63.5q-125 0 -232 -63.5t-170 -172t-63 -235.5zM469 1655q83 86 201 86q38 0 65.5 -5.5t81.5 -23.5q70 -24 119 -24q85 0 147 65l80 -154q-92 -98 -198 -98q-47 0 -189 43q-58 17 -78 17q-73 0 -149 -68z" />
<glyph unicode="&#xd6;" horiz-adv-x="1562" d="M66 694q0 141 57.5 271.5t154 225.5t229 151.5t277.5 56.5t278 -56.5t229 -152t153 -227.5t57 -277t-57 -277t-153 -227.5t-229 -152t-278 -56.5q-148 0 -281 56.5t-229 152.5t-152 229.5t-56 282.5zM319 690q0 -131 62 -241t169.5 -174t235.5 -64q125 0 231 63.5 t168 173t62 238.5t-62 238.5t-168.5 173t-232.5 63.5q-125 0 -232 -63.5t-170 -172t-63 -235.5zM473 1516v247h248v-247h-248zM856 1516v247h248v-247h-248z" />
<glyph unicode="&#xd7;" d="M115 416l270 270l-270 270l129 129l272 -270l268 270l129 -127l-268 -274l268 -268l-129 -129l-270 272l-270 -270z" />
<glyph unicode="&#xd8;" horiz-adv-x="1562" d="M66 688q0 190 96 354t260 260.5t354 96.5q81 0 155 -17t177 -57l139 188l164 -127l-133 -178q130 -159 176.5 -268t46.5 -252q0 -146 -57 -278.5t-153.5 -228t-230.5 -152t-282 -56.5q-93 0 -160 16t-147 58l-129 -178l-164 127l123 168q-109 87 -172 226.5t-63 297.5z M319 688q0 -196 123 -319l523 749q-46 26 -82.5 34.5t-94.5 8.5q-128 0 -236 -63t-170.5 -172t-62.5 -238zM610 244q90 -33 172 -33q126 0 233 63.5t169.5 172.5t62.5 237q0 187 -114 313z" />
<glyph unicode="&#xd9;" horiz-adv-x="1206" d="M113 500v872h254v-872q0 -76 9 -116t34 -77q64 -98 192 -98q61 0 113.5 26t81.5 70q24 35 33.5 78t9.5 117v872h254v-872q0 -224 -95 -342q-69 -89 -172.5 -138t-220.5 -49q-124 0 -234.5 55t-178.5 150q-80 113 -80 324zM217 1692l96 188l418 -248l-90 -164z" />
<glyph unicode="&#xda;" horiz-adv-x="1206" d="M113 500v872h254v-872q0 -76 9 -116t34 -77q64 -98 192 -98q61 0 113.5 26t81.5 70q24 35 33.5 78t9.5 117v872h254v-872q0 -224 -95 -342q-69 -89 -172.5 -138t-220.5 -49q-124 0 -234.5 55t-178.5 150q-80 113 -80 324zM504 1632l418 248l96 -188l-424 -224z" />
<glyph unicode="&#xdb;" horiz-adv-x="1206" d="M113 500v872h254v-872q0 -76 9 -116t34 -77q64 -98 192 -98q61 0 113.5 26t81.5 70q24 35 33.5 78t9.5 117v872h254v-872q0 -224 -95 -342q-69 -89 -172.5 -138t-220.5 -49q-124 0 -234.5 55t-178.5 150q-80 113 -80 324zM254 1503l252 256h227l256 -256h-270l-98 119 l-99 -119h-268z" />
<glyph unicode="&#xdc;" horiz-adv-x="1206" d="M113 500v872h254v-872q0 -76 9 -116t34 -77q64 -98 192 -98q61 0 113.5 26t81.5 70q24 35 33.5 78t9.5 117v872h254v-872q0 -224 -95 -342q-69 -89 -172.5 -138t-220.5 -49q-124 0 -234.5 55t-178.5 150q-80 113 -80 324zM301 1516v247h248v-247h-248zM684 1516v247h248 v-247h-248z" />
<glyph unicode="&#xdd;" horiz-adv-x="1130" d="M-14 1372h278l299 -631l299 631h281l-453 -866v-506h-254v506zM473 1632l418 248l96 -188l-424 -224z" />
<glyph unicode="&#xde;" horiz-adv-x="1044" d="M127 0v1372h254v-192h92q145 0 213.5 -14t132.5 -56q87 -59 136 -152t49 -200q0 -106 -49.5 -203.5t-133.5 -157.5q-56 -38 -133 -53.5t-219 -15.5h-88v-328h-254zM381 575h82q112 0 170 19q52 17 84.5 62.5t32.5 99.5q0 55 -31.5 97.5t-85.5 61.5q-34 11 -60 14t-100 3 h-92v-357z" />
<glyph unicode="&#xdf;" horiz-adv-x="1159" d="M106 0v905q0 170 64 289q52 95 148 151t206 56q169 0 284.5 -112.5t115.5 -276.5q0 -182 -123 -254q143 -34 220 -128t77 -233q0 -189 -123.5 -310.5t-315.5 -121.5q-223 0 -325 170v-135h-228zM354 352h160q12 -70 60 -114.5t110 -44.5q70 0 118 53t48 131 q0 58 -27.5 104.5t-77.5 71.5q-41 20 -87 26.5t-144 6.5h-22v219h22q68 0 115 55.5t47 134.5q0 82 -43 130.5t-115 48.5q-164 0 -164 -240v-582z" />
<glyph unicode="&#xe0;" horiz-adv-x="1261" d="M61 520q0 232 148 388.5t366 156.5q98 0 194 -46t153 -120v131h227v-1030h-227v127q-21 -26 -82 -70q-134 -92 -277 -92q-217 0 -359.5 158t-142.5 397zM309 510q0 -135 88.5 -227.5t216.5 -92.5q129 0 215 93t86 231q0 141 -85 232.5t-216 91.5q-129 0 -217 -95 t-88 -233zM319 1399l117 160l357 -297l-109 -136z" />
<glyph unicode="&#xe1;" horiz-adv-x="1261" d="M61 520q0 232 148 388.5t366 156.5q98 0 194 -46t153 -120v131h227v-1030h-227v127q-21 -26 -82 -70q-134 -92 -277 -92q-217 0 -359.5 158t-142.5 397zM309 510q0 -135 88.5 -227.5t216.5 -92.5q129 0 215 93t86 231q0 141 -85 232.5t-216 91.5q-129 0 -217 -95 t-88 -233zM483 1262l357 297l116 -160l-366 -273z" />
<glyph unicode="&#xe2;" horiz-adv-x="1261" d="M61 520q0 232 148 388.5t366 156.5q98 0 194 -46t153 -120v131h227v-1030h-227v127q-21 -26 -82 -70q-134 -92 -277 -92q-217 0 -359.5 158t-142.5 397zM301 1167l242 271h221l237 -271h-249l-99 133l-104 -133h-248zM309 510q0 -135 88.5 -227.5t216.5 -92.5 q129 0 215 93t86 231q0 141 -85 232.5t-216 91.5q-129 0 -217 -95t-88 -233z" />
<glyph unicode="&#xe3;" horiz-adv-x="1261" d="M61 520q0 232 148 388.5t366 156.5q98 0 194 -46t153 -120v131h227v-1030h-227v127q-21 -26 -82 -70q-134 -92 -277 -92q-217 0 -359.5 158t-142.5 397zM309 510q0 -135 88.5 -227.5t216.5 -92.5q129 0 215 93t86 231q0 141 -85 232.5t-216 91.5q-129 0 -217 -95 t-88 -233zM336 1327q50 46 87.5 63t92.5 17q76 0 152 -25q56 -18 114 -18q43 0 73.5 12t62.5 43l77 -149q-72 -84 -196 -84q-25 0 -46 4.5t-124 30.5q-67 16 -92 16q-67 0 -119 -55z" />
<glyph unicode="&#xe4;" horiz-adv-x="1261" d="M61 520q0 232 148 388.5t366 156.5q98 0 194 -46t153 -120v131h227v-1030h-227v127q-21 -26 -82 -70q-134 -92 -277 -92q-217 0 -359.5 158t-142.5 397zM309 510q0 -135 88.5 -227.5t216.5 -92.5q129 0 215 93t86 231q0 141 -85 232.5t-216 91.5q-129 0 -217 -95 t-88 -233zM348 1174v247h240v-247h-240zM719 1174v247h239v-247h-239z" />
<glyph unicode="&#xe5;" horiz-adv-x="1261" d="M61 520q0 232 148 388.5t366 156.5q98 0 194 -46t153 -120v131h227v-1030h-227v127q-21 -26 -82 -70q-134 -92 -277 -92q-217 0 -359.5 158t-142.5 397zM309 510q0 -135 88.5 -227.5t216.5 -92.5q129 0 215 93t86 231q0 141 -85 232.5t-216 91.5q-129 0 -217 -95 t-88 -233zM446 1346q0 83 61 142.5t146 59.5t145 -60t60 -145t-60 -144.5t-145 -59.5q-86 0 -146.5 60.5t-60.5 146.5zM569 1346q0 -37 24.5 -63t59.5 -26q34 0 58 25.5t24 60.5t-24 61t-58 26t-59 -25t-25 -59z" />
<glyph unicode="&#xe6;" horiz-adv-x="2023" d="M61 516q0 148 72.5 274.5t197 200.5t271.5 74q94 0 166.5 -30.5t140.5 -98.5v94h228v-94q120 129 307 129q139 0 259 -72t190.5 -194.5t70.5 -263.5q0 -53 -16 -129h-799q31 -97 105.5 -155t168.5 -58q74 0 130.5 31.5t105.5 101.5h268q-25 -82 -86 -154 q-176 -207 -407 -207q-196 0 -297 137v-102h-228v102q-57 -71 -132 -104t-179 -33q-145 0 -269 74.5t-196 201.5t-72 275zM309 524q0 -138 86 -234.5t209 -96.5q125 0 212 94.5t87 230.5q0 132 -87 226t-210 94q-121 0 -209 -93t-88 -221zM1145 604h563q-15 54 -29 82.5 t-39 56.5q-39 45 -94 70t-116 25t-118 -25.5t-98 -71.5q-26 -27 -40 -55t-29 -82z" />
<glyph unicode="&#xe7;" horiz-adv-x="1159" d="M61 520q0 147 73.5 272.5t199.5 199t274 73.5q104 0 201 -39t174 -111q54 -49 84.5 -98t56.5 -129h-278q-45 81 -101.5 116.5t-136.5 35.5q-130 0 -214.5 -92t-84.5 -232t88 -231.5t221 -91.5q141 0 228 143h278q-37 -102 -88.5 -169t-130.5 -116q-63 -40 -141.5 -63 t-147.5 -23h-24l-33 -74q37 15 55 15q69 0 121.5 -56t52.5 -131q0 -78 -53.5 -132t-130.5 -54q-72 0 -125.5 44.5t-62.5 113.5h110q24 -56 74 -56q32 0 54 24.5t22 59.5q0 32 -21.5 55t-50.5 23q-40 0 -74 -45l-100 49l78 174q-202 46 -324.5 195t-122.5 350z" />
<glyph unicode="&#xe8;" horiz-adv-x="1198" d="M61 514q0 151 72.5 279.5t197.5 203t273 74.5q107 0 205.5 -43.5t170.5 -116t114.5 -172.5t42.5 -209q0 -38 -15 -124h-800q25 -92 103.5 -152.5t172.5 -60.5q148 0 229 133h273q-47 -157 -188 -259t-308 -102q-148 0 -273 73t-197.5 199.5t-72.5 276.5zM266 1399 l117 160l356 -297l-108 -136zM315 604h580q-26 110 -104 175t-185 65q-106 0 -186 -66.5t-105 -173.5z" />
<glyph unicode="&#xe9;" horiz-adv-x="1198" d="M61 514q0 151 72.5 279.5t197.5 203t273 74.5q107 0 205.5 -43.5t170.5 -116t114.5 -172.5t42.5 -209q0 -38 -15 -124h-800q25 -92 103.5 -152.5t172.5 -60.5q148 0 229 133h273q-47 -157 -188 -259t-308 -102q-148 0 -273 73t-197.5 199.5t-72.5 276.5zM315 604h580 q-26 110 -104 175t-185 65q-106 0 -186 -66.5t-105 -173.5zM494 1262l356 297l117 -160l-367 -273z" />
<glyph unicode="&#xea;" horiz-adv-x="1198" d="M61 514q0 151 72.5 279.5t197.5 203t273 74.5q107 0 205.5 -43.5t170.5 -116t114.5 -172.5t42.5 -209q0 -38 -15 -124h-800q25 -92 103.5 -152.5t172.5 -60.5q148 0 229 133h273q-47 -157 -188 -259t-308 -102q-148 0 -273 73t-197.5 199.5t-72.5 276.5zM276 1167 l242 271h221l238 -271h-250l-98 133l-105 -133h-248zM315 604h580q-26 110 -104 175t-185 65q-106 0 -186 -66.5t-105 -173.5z" />
<glyph unicode="&#xeb;" horiz-adv-x="1198" d="M61 514q0 151 72.5 279.5t197.5 203t273 74.5q107 0 205.5 -43.5t170.5 -116t114.5 -172.5t42.5 -209q0 -38 -15 -124h-800q25 -92 103.5 -152.5t172.5 -60.5q148 0 229 133h273q-47 -157 -188 -259t-308 -102q-148 0 -273 73t-197.5 199.5t-72.5 276.5zM315 604h580 q-26 110 -104 175t-185 65q-106 0 -186 -66.5t-105 -173.5zM315 1174v247h240v-247h-240zM686 1174v247h240v-247h-240z" />
<glyph unicode="&#xec;" horiz-adv-x="473" d="M-76 1372l117 158l321 -268l-106 -136zM113 0v1030h247v-1030h-247z" />
<glyph unicode="&#xed;" horiz-adv-x="473" d="M113 0v1030h247v-1030h-247zM131 1262l322 268l116 -158l-331 -246z" />
<glyph unicode="&#xee;" horiz-adv-x="473" d="M-74 1167l207 271h221l203 -271h-242l-71 133l-76 -133h-242zM111 0v1030h247v-1030h-247z" />
<glyph unicode="&#xef;" horiz-adv-x="473" d="M-25 1174v247h220v-247h-220zM113 0v1030h247v-1030h-247zM291 1174v247h219v-247h-219z" />
<glyph unicode="&#xf0;" horiz-adv-x="1218" d="M61 512q0 110 40 207t109.5 166.5t166 110t205.5 40.5q49 0 133 -24q-24 46 -35 61l-35 53q0 1 -2.5 5.5t-7.5 12.5t-8 13l-127 -61l-80 112l129 64q-63 72 -68 82l-28 24l145 86q15 -15 80 -75l33 -35l139 69l84 -112l-139 -72q113 -146 149.5 -197t75.5 -118 q137 -234 137 -426q0 -108 -44 -206.5t-118 -170t-176.5 -114t-214.5 -42.5t-212.5 42.5t-173 115.5t-115 174.5t-42.5 214.5zM309 516q0 -137 87 -230t214 -93q126 0 212.5 89.5t86.5 219.5q0 85 -40 158t-109.5 116t-149.5 43q-60 0 -116 -24.5t-96.5 -65.5t-64.5 -97 t-24 -116z" />
<glyph unicode="&#xf1;" horiz-adv-x="1134" d="M113 0v1030h229v-90q68 66 133.5 95.5t147.5 29.5q91 0 177 -42t140 -112q49 -63 68.5 -142t19.5 -212v-557h-248v508q0 192 -61 262q-24 30 -65.5 49t-80.5 19q-51 0 -99 -27t-73 -70q-23 -38 -32 -92.5t-9 -159.5v-489h-247zM260 1327q50 46 87.5 63t92.5 17 q76 0 152 -25q56 -18 115 -18q43 0 73 12t62 43l78 -149q-72 -84 -197 -84q-25 0 -46 4.5t-124 30.5q-67 16 -92 16q-67 0 -119 -55z" />
<glyph unicode="&#xf2;" horiz-adv-x="1218" d="M61 524q0 144 75 269t202 198.5t274 73.5q149 0 274.5 -73t198 -199.5t72.5 -276.5q0 -113 -43 -215t-117 -176t-176 -117t-215 -43q-111 0 -212 44t-174 119t-116 178.5t-43 217.5zM262 1399l117 160l356 -297l-108 -136zM309 518q0 -138 86.5 -231.5t214.5 -93.5 q126 0 212.5 92t86.5 227q0 134 -88 230t-211 96q-122 0 -211.5 -95t-89.5 -225z" />
<glyph unicode="&#xf3;" horiz-adv-x="1218" d="M61 524q0 144 75 269t202 198.5t274 73.5q149 0 274.5 -73t198 -199.5t72.5 -276.5q0 -113 -43 -215t-117 -176t-176 -117t-215 -43q-111 0 -212 44t-174 119t-116 178.5t-43 217.5zM309 518q0 -138 86.5 -231.5t214.5 -93.5q126 0 212.5 92t86.5 227q0 134 -88 230 t-211 96q-122 0 -211.5 -95t-89.5 -225zM496 1262l356 297l117 -160l-367 -273z" />
<glyph unicode="&#xf4;" horiz-adv-x="1218" d="M61 524q0 144 75 269t202 198.5t274 73.5q149 0 274.5 -73t198 -199.5t72.5 -276.5q0 -113 -43 -215t-117 -176t-176 -117t-215 -43q-111 0 -212 44t-174 119t-116 178.5t-43 217.5zM272 1167l242 271h221l238 -271h-250l-98 133l-105 -133h-248zM309 518 q0 -138 86.5 -231.5t214.5 -93.5q126 0 212.5 92t86.5 227q0 134 -88 230t-211 96q-122 0 -211.5 -95t-89.5 -225z" />
<glyph unicode="&#xf5;" horiz-adv-x="1218" d="M61 524q0 144 75 269t202 198.5t274 73.5q149 0 274.5 -73t198 -199.5t72.5 -276.5q0 -113 -43 -215t-117 -176t-176 -117t-215 -43q-111 0 -212 44t-174 119t-116 178.5t-43 217.5zM309 518q0 -138 86.5 -231.5t214.5 -93.5q126 0 212.5 92t86.5 227q0 134 -88 230 t-211 96q-122 0 -211.5 -95t-89.5 -225zM319 1327q50 46 88 63t93 17q75 0 151 -25q56 -18 115 -18q43 0 73 12t62 43l78 -149q-72 -84 -197 -84q-25 0 -46 4.5t-124 30.5q-67 16 -92 16q-67 0 -119 -55z" />
<glyph unicode="&#xf6;" horiz-adv-x="1218" d="M61 524q0 144 75 269t202 198.5t274 73.5q149 0 274.5 -73t198 -199.5t72.5 -276.5q0 -113 -43 -215t-117 -176t-176 -117t-215 -43q-111 0 -212 44t-174 119t-116 178.5t-43 217.5zM309 518q0 -138 86.5 -231.5t214.5 -93.5q126 0 212.5 92t86.5 227q0 134 -88 230 t-211 96q-122 0 -211.5 -95t-89.5 -225zM317 1174v247h240v-247h-240zM688 1174v247h240v-247h-240z" />
<glyph unicode="&#xf7;" d="M76 614v185h878v-185h-878zM401 272v220h228v-220h-228zM401 924v219h228v-219h-228z" />
<glyph unicode="&#xf8;" horiz-adv-x="1218" d="M61 518q0 149 75 275t204 199t281 73q70 0 117 -11.5t100 -41.5l84 127l145 -99l-84 -127q82 -66 128 -171.5t46 -229.5q0 -112 -43.5 -213t-117.5 -174.5t-176.5 -116.5t-215.5 -43q-116 0 -229 55l-96 -120l-140 102l86 123q-75 69 -119.5 175t-44.5 218zM309 512 q0 -62 13 -103t47 -85l333 493q-43 21 -84 21q-129 0 -219 -95t-90 -231zM506 213q59 -20 104 -20q125 0 212 92t87 225q0 53 -13 97.5t-48 105.5z" />
<glyph unicode="&#xf9;" horiz-adv-x="1134" d="M106 426v604h248v-526q0 -311 213 -311q101 0 155 80t54 231v526h248v-1030h-227v102q-60 -77 -119 -107t-148 -30q-172 0 -294 113q-71 63 -100.5 142t-29.5 206zM223 1399l117 160l356 -297l-108 -136z" />
<glyph unicode="&#xfa;" horiz-adv-x="1134" d="M106 426v604h248v-526q0 -311 213 -311q101 0 155 80t54 231v526h248v-1030h-227v102q-60 -77 -119 -107t-148 -30q-172 0 -294 113q-71 63 -100.5 142t-29.5 206zM463 1262l356 297l117 -160l-367 -273z" />
<glyph unicode="&#xfb;" horiz-adv-x="1134" d="M106 426v604h248v-526q0 -311 213 -311q101 0 155 80t54 231v526h248v-1030h-227v102q-60 -77 -119 -107t-148 -30q-172 0 -294 113q-71 63 -100.5 142t-29.5 206zM231 1167l242 271h221l238 -271h-250l-98 133l-105 -133h-248z" />
<glyph unicode="&#xfc;" horiz-adv-x="1134" d="M106 426v604h248v-526q0 -311 213 -311q101 0 155 80t54 231v526h248v-1030h-227v102q-60 -77 -119 -107t-148 -30q-172 0 -294 113q-71 63 -100.5 142t-29.5 206zM272 1174v247h240v-247h-240zM643 1174v247h240v-247h-240z" />
<glyph unicode="&#xfd;" horiz-adv-x="1028" d="M-8 1030h282l234 -661l248 661h280l-592 -1374h-266l191 440zM408 1262l356 297l117 -160l-367 -273z" />
<glyph unicode="&#xfe;" horiz-adv-x="1253" d="M113 -344v1716h227v-477q69 91 147.5 130.5t188.5 39.5q222 0 366 -160q72 -78 111 -178t39 -207q0 -153 -69 -280.5t-188 -201t-261 -73.5q-101 0 -171.5 33t-142.5 113v-455h-247zM346 518q0 -133 86.5 -223t212.5 -90q124 0 211.5 90.5t87.5 218.5q0 129 -86.5 220 t-208.5 91q-127 0 -215 -89.5t-88 -217.5z" />
<glyph unicode="&#xff;" horiz-adv-x="1028" d="M-8 1030h282l234 -661l248 661h280l-592 -1374h-266l191 440zM223 1174v247h240v-247h-240zM594 1174v247h240v-247h-240z" />
<glyph unicode="&#x152;" horiz-adv-x="1945" d="M66 686q0 196 91 360.5t249.5 259.5t347.5 95q135 0 256.5 -48t191.5 -130v149h662v-237h-408v-334h387v-238h-387v-325h408v-238h-662v147q-71 -78 -194.5 -126t-253.5 -48q-140 0 -267.5 56.5t-219.5 151.5t-146.5 227t-54.5 278zM319 690q0 -131 59 -241t161.5 -174 t224.5 -64q187 0 317.5 136t130.5 331q0 201 -132 343t-318 142q-119 0 -221 -64t-162 -173t-60 -236z" />
<glyph unicode="&#x153;" horiz-adv-x="2015" d="M61 516q0 148 73 274.5t198 200.5t272 74q250 0 410 -213q94 116 185 164.5t214 48.5q148 0 272.5 -70.5t196.5 -192.5t72 -267q0 -67 -10 -129h-797q34 -99 107.5 -156t166.5 -57q63 0 131 38t103 95h264q-51 -158 -191.5 -259.5t-306.5 -101.5q-125 0 -232.5 57 t-174.5 160q-53 -82 -115 -127q-57 -41 -137.5 -65.5t-161.5 -24.5q-147 0 -271 73.5t-196 200.5t-72 277zM309 522q0 -137 87.5 -233t211.5 -96t211.5 93.5t87.5 227.5q0 133 -88 228.5t-211 95.5t-211 -93.5t-88 -222.5zM1141 604h559q-25 107 -101 170.5t-180 63.5 q-101 0 -173.5 -61t-104.5 -173z" />
<glyph unicode="&#x178;" horiz-adv-x="1130" d="M-14 1372h278l299 -631l299 631h281l-453 -866v-506h-254v506zM262 1516v247h248v-247h-248zM645 1516v247h248v-247h-248z" />
<glyph unicode="&#x2c6;" d="M164 1167l242 271h221l237 -271h-250l-98 133l-104 -133h-248z" />
<glyph unicode="&#x2dc;" d="M184 1327q50 46 88 63t93 17q75 0 151 -25q56 -18 115 -18q43 0 73 12t62 43l78 -149q-72 -84 -197 -84q-25 0 -46 4.5t-124 30.5q-67 16 -92 16q-67 0 -119 -55z" />
<glyph unicode="&#x2000;" horiz-adv-x="945" />
<glyph unicode="&#x2001;" horiz-adv-x="1890" />
<glyph unicode="&#x2002;" horiz-adv-x="945" />
<glyph unicode="&#x2003;" horiz-adv-x="1890" />
<glyph unicode="&#x2004;" horiz-adv-x="630" />
<glyph unicode="&#x2005;" horiz-adv-x="472" />
<glyph unicode="&#x2006;" horiz-adv-x="315" />
<glyph unicode="&#x2007;" horiz-adv-x="315" />
<glyph unicode="&#x2008;" horiz-adv-x="236" />
<glyph unicode="&#x2009;" horiz-adv-x="378" />
<glyph unicode="&#x200a;" horiz-adv-x="105" />
<glyph unicode="&#x2010;" horiz-adv-x="514" d="M0 426v207h514v-207h-514z" />
<glyph unicode="&#x2011;" horiz-adv-x="514" d="M0 426v207h514v-207h-514z" />
<glyph unicode="&#x2012;" horiz-adv-x="514" d="M0 426v207h514v-207h-514z" />
<glyph unicode="&#x2013;" d="M70 426v207h893v-207h-893z" />
<glyph unicode="&#x2014;" horiz-adv-x="1546" d="M0 418v219h1546v-219h-1546z" />
<glyph unicode="&#x2018;" horiz-adv-x="481" d="M117 864v262q0 153 119 215q55 31 126 31v-125q-60 -12 -84 -35t-24 -69q0 -19 2 -31h109v-248h-248z" />
<glyph unicode="&#x2019;" horiz-adv-x="481" d="M117 1124v248h248v-262q0 -66 -18 -109t-60 -79q-71 -58 -156 -58h-12v125q59 10 83.5 34.5t24.5 70.5q0 18 -2 30h-108z" />
<glyph unicode="&#x201a;" horiz-adv-x="481" d="M117 0v248h248v-262q0 -66 -18.5 -110t-59.5 -79q-69 -57 -156 -57h-12v125q59 10 83.5 34t24.5 70q0 19 -2 31h-108z" />
<glyph unicode="&#x201c;" horiz-adv-x="864" d="M117 864v262q0 153 119 215q55 31 126 31v-125q-60 -12 -84 -35t-24 -69q0 -19 2 -31h109v-248h-248zM502 864v262q0 111 64.5 178.5t178.5 67.5v-125q-58 -10 -82 -34t-24 -70v-31h109v-248h-246z" />
<glyph unicode="&#x201d;" horiz-adv-x="864" d="M117 1124v248h248v-262q0 -66 -18 -109t-60 -79q-71 -58 -156 -58h-12v125q59 10 83.5 34.5t24.5 70.5q0 18 -2 30h-108zM502 1124v248h246v-262q0 -66 -18 -109t-60 -79q-67 -58 -154 -58h-12v125q58 10 82 34.5t24 70.5v30h-108z" />
<glyph unicode="&#x201e;" horiz-adv-x="864" d="M117 0v248h248v-262q0 -66 -18.5 -110t-59.5 -79q-69 -57 -156 -57h-12v125q59 10 83.5 34t24.5 70q0 19 -2 31h-108zM502 0v248h246v-262q0 -66 -18.5 -110t-59.5 -79q-66 -57 -154 -57h-12v125q58 10 82 34t24 70v31h-108z" />
<glyph unicode="&#x2022;" horiz-adv-x="1372" d="M403 696q0 120 84.5 203.5t206.5 83.5q114 0 197.5 -85t83.5 -202t-84 -200.5t-201 -83.5q-118 0 -202.5 83.5t-84.5 200.5z" />
<glyph unicode="&#x2026;" horiz-adv-x="1441" d="M117 0v248h248v-248h-248zM598 0v248h248v-248h-248zM1077 0v248h248v-248h-248z" />
<glyph unicode="&#x202f;" horiz-adv-x="378" />
<glyph unicode="&#x2039;" horiz-adv-x="423" d="M76 436v187l258 241v-229l-125 -105l125 -108v-229z" />
<glyph unicode="&#x203a;" horiz-adv-x="423" d="M90 193v229l125 108l-125 105v229l258 -241v-187z" />
<glyph unicode="&#x205f;" horiz-adv-x="472" />
<glyph unicode="&#x20ac;" horiz-adv-x="1464" d="M57 506l58 135h118q-2 16 -2 53q0 23 2 37h-176l58 135h139q64 237 255 386t431 149q129 0 250.5 -44.5t216.5 -127.5l-107 -248q-54 64 -104 98q-56 38 -127 61t-137 23q-130 0 -245.5 -83t-166.5 -214h731l-57 -135h-707q-2 -16 -2 -43q0 -29 2 -47h668l-57 -135h-576 q56 -132 171.5 -213.5t248.5 -81.5q171 0 303 129v-299q-142 -68 -299 -68q-238 0 -432.5 150t-257.5 383h-199z" />
<glyph unicode="&#x2122;" horiz-adv-x="1603" d="M35 1225v147h485v-147h-155v-635h-172v635h-158zM584 590v782h231l221 -569l221 569h230v-782h-172v547l-209 -547h-141l-209 547v-547h-172z" />
</font>
</defs>
</svg>
