<?xml version="1.0" standalone="no"?>
<!DOCTYPE svg PUBLIC "-//W3C//DTD SVG 1.1//EN" "http://www.w3.org/Graphics/SVG/1.1/DTD/svg11.dtd" >
<svg xmlns="http://www.w3.org/2000/svg">
<metadata></metadata>
<defs>
<font id="AvalonMediumRegular" horiz-adv-x="1030" >
<font-face units-per-em="2048" ascent="1536" descent="-512" />
<missing-glyph horiz-adv-x="514" />
<glyph unicode="&#xfb01;" horiz-adv-x="1021" d="M59 854v176h93v47q0 137 102 223q49 41 102.5 56.5t145.5 15.5h22v-168q-84 -2 -118 -20q-62 -37 -62 -107v-47h180v-176h-180v-854h-192v854h-93zM707 0v1030h192v-1030h-192zM707 1145v227h192v-227h-192z" />
<glyph unicode="&#xfb02;" horiz-adv-x="1021" d="M59 854v176h93v47q0 137 102 223q49 41 102.5 56.5t145.5 15.5h22v-168q-84 -2 -118 -20q-62 -37 -62 -107v-47h180v-176h-180v-854h-192v854h-93zM707 0v1372h192v-1372h-192z" />
<glyph unicode="&#xfb03;" horiz-adv-x="1579" d="M59 854v176h93v47q0 137 102 223q49 41 102.5 56.5t145.5 15.5h22v-168q-84 -2 -118 -20q-62 -37 -62 -107v-47h363v47q0 137 102 223q50 41 103 56.5t147 15.5h22v-168q-86 -2 -118 -20q-64 -36 -64 -107v-47h182v-176h-182v-854h-192v854h-363v-854h-192v854h-93z M1264 0v1030h192v-1030h-192zM1264 1145v227h192v-227h-192z" />
<glyph unicode="&#xfb04;" horiz-adv-x="1579" d="M59 854v176h93v47q0 137 102 223q49 41 102.5 56.5t145.5 15.5h22v-168q-84 -2 -118 -20q-62 -37 -62 -107v-47h363v47q0 137 102 223q50 41 103 56.5t147 15.5h22v-168q-86 -2 -118 -20q-64 -36 -64 -107v-47h182v-176h-182v-854h-192v854h-363v-854h-192v854h-93z M1264 0v1372h192v-1372h-192z" />
<glyph horiz-adv-x="0" />
<glyph horiz-adv-x="2048" />
<glyph unicode=" "  horiz-adv-x="514" />
<glyph unicode="&#x09;" horiz-adv-x="514" />
<glyph unicode="&#xa0;" horiz-adv-x="514" />
<glyph unicode="!" horiz-adv-x="493" d="M152 0v227h192v-227h-192zM152 338v1034h192v-1034h-192z" />
<glyph unicode="&#x22;" horiz-adv-x="514" d="M72 1372h139l-14 -414h-111zM305 1372h139l-14 -414h-111z" />
<glyph unicode="#" d="M66 465l16 121h192l29 200h-192l16 123h192l48 336h125l-48 -336h199l47 336h123l-47 -336h199l-17 -123h-198l-29 -200h199l-17 -121h-198l-50 -338h-123l48 338h-199l-47 -338h-123l47 338h-192zM399 586h199l27 200h-199z" />
<glyph unicode="$" d="M98 426h172q7 -97 64.5 -153t148.5 -56q88 0 144.5 60.5t56.5 152.5q0 83 -54.5 132t-183.5 81q-87 21 -127 41t-77 59q-41 44 -64.5 107.5t-23.5 130.5q0 123 69 215t185 123v209h176v-207q118 -19 193 -106.5t81 -215.5h-174q-24 156 -166 156q-75 0 -123.5 -49 t-48.5 -127q0 -89 74 -133q26 -13 147 -47q83 -21 128.5 -46t86.5 -69q95 -109 95 -256q0 -139 -78 -239.5t-215 -135.5v-205h-176v205q-137 29 -223.5 133t-86.5 240z" />
<glyph unicode="%" horiz-adv-x="1804" d="M70 1051q0 144 105 246t253 102q152 0 256 -102t104 -250q0 -143 -106.5 -247t-253.5 -104q-148 0 -253 104.5t-105 250.5zM223 1049q0 -86 60 -148.5t145 -62.5t146 61.5t61 147.5q0 88 -60 149t-147 61q-85 0 -145 -61t-60 -147zM557 0l573 1372h117l-571 -1372h-119z M1016 328q0 144 105 246t253 102q152 0 256.5 -102t104.5 -250q0 -143 -106.5 -247t-252.5 -104q-149 0 -254.5 104.5t-105.5 250.5zM1169 326q0 -88 60.5 -149.5t146.5 -61.5q84 0 144.5 61.5t60.5 147.5q0 88 -60 149.5t-147 61.5q-85 0 -145 -61.5t-60 -147.5z" />
<glyph unicode="&#x26;" horiz-adv-x="1290" d="M70 383q0 132 71 238.5t191 152.5q-77 84 -103 139t-26 136q0 149 100 250.5t246 101.5q145 0 243.5 -101.5t98.5 -250.5q0 -219 -232 -330l183 -178l151 303h224l-232 -453l279 -285l-136 -133l-239 240q-86 -125 -182.5 -182.5t-217.5 -57.5q-177 0 -298 119t-121 291z M268 383q0 -91 63.5 -152t157.5 -61q86 0 151 44.5t116 137.5l-291 285q-104 -57 -150.5 -116.5t-46.5 -137.5zM401 1047q0 -47 18 -75.5t101 -113.5q105 59 138.5 97.5t33.5 99.5q0 63 -41.5 105t-101.5 42q-63 0 -105.5 -44.5t-42.5 -110.5z" />
<glyph unicode="'" horiz-adv-x="280" d="M72 1372h139l-14 -414h-111z" />
<glyph unicode="(" horiz-adv-x="669" d="M70 522q0 188 68.5 368.5t193.5 325t286 226.5v-223q-94 -85 -143.5 -140t-87.5 -118q-119 -197 -119 -437q0 -271 144 -487q35 -54 76.5 -97t140.5 -128v-224q-195 100 -357 312q-95 126 -148.5 291t-53.5 331z" />
<glyph unicode=")" horiz-adv-x="669" d="M41 1219v223q190 -97 356 -312q95 -126 149 -291t54 -331q0 -286 -152 -540.5t-397 -379.5v224q95 84 145 140t87 118q118 190 118 436q0 270 -143 485q-35 56 -77 99.5t-140 128.5z" />
<glyph unicode="*" horiz-adv-x="901" d="M96 1067l41 125l252 -88l-4 268h131l-4 -266l252 86l41 -125l-256 -78l162 -215l-107 -76l-153 220l-154 -220l-107 76l162 215z" />
<glyph unicode="+" d="M82 610v152h356v356h152v-356h356v-152h-356v-356h-152v356h-356z" />
<glyph unicode="," horiz-adv-x="438" d="M123 0v227h192v-207q0 -112 -46.5 -174t-145.5 -82v115q70 26 70 105q0 4 -3 16h-67z" />
<glyph unicode="-" horiz-adv-x="518" d="M0 432v193h518v-193h-518z" />
<glyph unicode="." horiz-adv-x="438" d="M123 0v227h192v-227h-192z" />
<glyph unicode="/" horiz-adv-x="829" d="M-20 -344l585 1716h168l-586 -1716h-167z" />
<glyph unicode="0" d="M72 455v479q0 104 27 179.5t87 141.5q63 69 151 107.5t183 38.5q97 0 184.5 -40.5t151.5 -115.5q55 -64 80 -134.5t25 -162.5v-508q0 -112 -25.5 -185t-87.5 -138q-137 -146 -334 -146q-104 0 -196 45.5t-156 130.5q-52 65 -71 131t-19 177zM264 440q0 -73 15.5 -121 t50.5 -88t85.5 -62t104.5 -22q112 0 193 97q32 40 43.5 80.5t11.5 115.5v508q0 68 -14 112.5t-47 82.5q-73 82 -189 82q-123 0 -199 -95q-55 -69 -55 -182v-508z" />
<glyph unicode="1" d="M260 1196v176h395v-1372h-192v1196h-203z" />
<glyph unicode="2" d="M74 903q0 90 8.5 138.5t34.5 103.5q54 118 158 187t229 69q118 0 218 -60t158 -163t58 -224q0 -104 -43 -191t-147 -194l-383 -393h575v-176h-860v162l541 549q66 67 95 126.5t29 125.5q0 109 -68 185.5t-165 76.5q-68 0 -125 -37.5t-90 -102.5q-21 -42 -26 -71t-5 -111 h-192z" />
<glyph unicode="3" d="M47 403h191q5 -87 41 -141q34 -52 92.5 -82t124.5 -30q101 0 173 74.5t72 178.5t-73.5 175t-182.5 71h-69v193h65q52 0 83 10.5t59 36.5q61 58 61 145q0 79 -54 134t-132 55t-126 -50.5t-59 -142.5h-192q4 73 20.5 121t53.5 98q54 69 137.5 109.5t173.5 40.5 q158 0 264.5 -110.5t106.5 -276.5q0 -83 -26 -136t-101 -124q89 -57 136.5 -145.5t47.5 -196.5q0 -181 -131.5 -309t-317.5 -128q-182 0 -310 126t-128 304z" />
<glyph unicode="4" d="M23 215v188l626 969h193v-981h145v-176h-145v-215h-193v215h-626zM244 391h405v660z" />
<glyph unicode="5" d="M41 414h192q12 -63 30.5 -103t51.5 -73q38 -41 90 -64.5t105 -23.5q112 0 193 89t81 212q0 138 -80 228.5t-202 90.5q-73 0 -127.5 -33.5t-104.5 -107.5l-166 37l115 706h627v-176h-467l-51 -303q79 53 190 53q195 0 327 -138.5t132 -342.5q0 -209 -135.5 -350.5 t-333.5 -141.5q-190 0 -318.5 122t-148.5 319z" />
<glyph unicode="6" d="M41 455q0 153 104 315l383 602h230l-291 -450q52 8 82 8q187 0 313.5 -133t126.5 -330q0 -137 -62 -250.5t-170 -178.5t-239 -65q-196 0 -336.5 142t-140.5 340zM233 455q0 -129 82.5 -217t202.5 -88q116 0 197.5 86.5t81.5 209.5q0 127 -81.5 217.5t-195.5 90.5 q-117 0 -202 -88t-85 -211z" />
<glyph unicode="7" d="M131 1196v176h797v-176l-504 -1196h-215l518 1196h-596z" />
<glyph unicode="8" d="M82 403q0 112 43 197.5t135 157.5q-115 115 -115 264q0 155 109.5 266t263.5 111q152 0 260.5 -111t108.5 -266q0 -83 -29 -145.5t-92 -118.5q89 -60 136.5 -149.5t47.5 -198.5q0 -180 -127 -308.5t-307 -128.5q-182 0 -308 125t-126 305zM274 395q0 -100 71 -172.5 t169 -72.5q99 0 171.5 73t72.5 174q0 103 -71 177.5t-171 74.5t-171 -75t-71 -179zM338 1034q0 -79 51.5 -133.5t126.5 -54.5q77 0 127.5 53t50.5 135q0 80 -51.5 134.5t-126.5 54.5q-73 0 -125.5 -55.5t-52.5 -133.5z" />
<glyph unicode="9" d="M41 905q0 137 62 250.5t170 178.5t239 65q97 0 185 -38t152 -102t102 -153t38 -186q0 -156 -104 -318l-385 -602h-228l291 451q-58 -9 -82 -9q-186 0 -313 134t-127 329zM233 926q0 -128 82 -218t197 -90q117 0 201 89t84 213q0 128 -82.5 215.5t-202.5 87.5 q-116 0 -197.5 -87t-81.5 -210z" />
<glyph unicode=":" horiz-adv-x="438" d="M123 0v227h192v-227h-192zM123 803v227h192v-227h-192z" />
<glyph unicode=";" horiz-adv-x="438" d="M123 0v227h192v-207q0 -112 -46.5 -174t-145.5 -82v115q70 26 70 105q0 4 -3 16h-67zM123 803v227h192v-227h-192z" />
<glyph unicode="&#x3c;" d="M70 614v164l893 430v-190l-689 -322l689 -323v-191z" />
<glyph unicode="=" d="M82 473v152h864v-152h-864zM82 748v151h864v-151h-864z" />
<glyph unicode="&#x3e;" d="M70 182v191l686 323l-686 322v190l891 -432v-164z" />
<glyph unicode="?" horiz-adv-x="925" d="M27 983q4 86 24 142.5t64 113.5q60 75 146.5 117.5t182.5 42.5q110 0 205 -56t151 -152.5t56 -207.5q0 -100 -35.5 -168.5t-130.5 -155.5q-84 -74 -117 -137.5t-45 -169.5h-192q3 122 54.5 226t158.5 204q67 61 91 102t24 93q0 95 -65 161t-157 66q-57 0 -106 -27.5 t-80 -76.5q-24 -41 -33 -117h-196zM336 0v227h192v-227h-192z" />
<glyph unicode="@" horiz-adv-x="1568" d="M96 530q0 200 95.5 365t261.5 259.5t366 94.5q185 0 334.5 -78.5t234.5 -217.5t85 -312q0 -125 -46.5 -236.5t-124.5 -179t-165 -67.5q-62 0 -104 33t-52 90q-44 -64 -112 -100t-146 -36q-126 0 -207.5 92.5t-81.5 235.5q0 172 107 294t256 122q150 0 225 -135l20 108 h121l-80 -418q-14 -72 -14 -98q0 -37 21 -61.5t53 -24.5q56 0 107.5 53.5t82.5 141.5t31 184q0 220 -152.5 361t-388.5 141q-169 0 -309.5 -81t-220.5 -221.5t-80 -310.5q0 -121 44 -231.5t124 -194.5q163 -172 450 -172q225 0 418 84l31 -108q-206 -84 -444 -84 q-330 0 -529 196q-100 97 -155.5 232t-55.5 280zM565 479q0 -96 52 -155.5t137 -59.5q94 0 159.5 88.5t65.5 214.5q0 92 -47 146.5t-125 54.5q-97 0 -169.5 -86t-72.5 -203z" />
<glyph unicode="A" horiz-adv-x="1222" d="M0 0l522 1372h178l523 -1372h-211l-154 406h-493l-152 -406h-213zM436 590h352l-176 522z" />
<glyph unicode="B" horiz-adv-x="1071" d="M137 0v1372h357q110 0 182.5 -23.5t130.5 -78.5q117 -108 117 -279q0 -80 -29.5 -141.5t-95.5 -116.5q106 -65 155.5 -145.5t49.5 -190.5q0 -87 -36.5 -166t-101.5 -135q-113 -96 -319 -96h-410zM338 184h217q69 0 113.5 17.5t79.5 58.5q55 61 55 137q0 46 -21.5 92.5 t-56.5 75.5q-33 29 -76 40t-119 11h-192v-432zM338 801h164q110 0 162 49q59 56 59 143q0 55 -26 101t-70 69q-49 25 -138 25h-151v-387z" />
<glyph unicode="C" horiz-adv-x="1454" d="M70 690q0 193 94 356.5t256.5 258t355.5 94.5q203 0 365.5 -97t265.5 -280h-242q-162 192 -385 192q-139 0 -256.5 -70t-185.5 -191t-68 -263t69 -265t185.5 -195t251.5 -72q221 0 375 180h246q-97 -172 -262 -268.5t-361 -96.5q-142 0 -272 57t-224.5 153.5t-151 229 t-56.5 277.5z" />
<glyph unicode="D" horiz-adv-x="1353" d="M137 0v1372h486q284 0 462 -184q96 -99 148.5 -231.5t52.5 -276.5q0 -136 -45.5 -263t-126.5 -216q-183 -201 -551 -201h-426zM338 184h162q276 0 420 115q78 63 121.5 163.5t43.5 217.5q0 221 -147 371q-70 72 -154 104.5t-198 32.5h-248v-1004z" />
<glyph unicode="E" horiz-adv-x="964" d="M137 0v1372h742v-184h-541v-404h541v-184h-541v-416h541v-184h-742z" />
<glyph unicode="F" horiz-adv-x="884" d="M137 0v1372h692v-184h-491v-412h491v-184h-491v-592h-201z" />
<glyph unicode="G" horiz-adv-x="1544" d="M70 684q0 196 93 360.5t254 259.5t353 95t357 -99.5t257 -269.5h-231q-92 98 -180 141t-195 43q-138 0 -255 -71t-185 -193t-68 -266q0 -141 69 -262.5t186.5 -192.5t254.5 -71q85 0 171 32.5t153 90.5q54 44 86 91.5t63 127.5h-641v184h869q-1 -125 -31.5 -221 t-97.5 -191q-101 -141 -254 -220t-326 -79q-192 0 -353.5 94.5t-255 258.5t-93.5 358z" />
<glyph unicode="H" horiz-adv-x="1241" d="M137 0v1372h201v-592h565v592h201v-1372h-201v596h-565v-596h-201z" />
<glyph unicode="I" horiz-adv-x="475" d="M137 0v1372h201v-1372h-201z" />
<glyph unicode="J" horiz-adv-x="880" d="M0 272h207q43 -114 164 -114q82 0 134 59.5t52 153.5v1001h201v-1020q0 -164 -108 -271.5t-271 -107.5q-142 0 -249 84t-130 215z" />
<glyph unicode="K" horiz-adv-x="1110" d="M137 0v1372h201v-680l526 680h246l-537 -682l537 -690h-246l-526 688v-688h-201z" />
<glyph unicode="L" horiz-adv-x="847" d="M137 0v1372h201v-1188h475v-184h-676z" />
<glyph unicode="M" horiz-adv-x="1730" d="M137 0v1372h316l411 -1050l414 1050h315v-1372h-200v1157l-467 -1157h-121l-467 1157v-1157h-201z" />
<glyph unicode="N" horiz-adv-x="1366" d="M137 0v1372h219l672 -1044v1044h201v-1372h-207l-684 1061v-1061h-201z" />
<glyph unicode="O" horiz-adv-x="1564" d="M70 686q0 146 56 278t151.5 227t227 151.5t277.5 56.5q149 0 281.5 -55.5t227.5 -151.5t150.5 -230.5t55.5 -285.5q0 -141 -57 -271t-153 -224.5t-228.5 -151t-276.5 -56.5q-193 0 -357 95.5t-259.5 260t-95.5 357.5zM270 686q0 -103 41 -205.5t113 -175.5 q144 -147 360 -147q215 0 359 147q70 72 111.5 174t41.5 201q0 207 -131 360q-149 174 -383 174q-232 0 -381 -174q-63 -73 -97 -165.5t-34 -188.5z" />
<glyph unicode="P" horiz-adv-x="1062" d="M137 0v1372h477q179 0 292.5 -114.5t113.5 -294.5q0 -167 -109 -285q-69 -75 -153.5 -106t-222.5 -31h-197v-541h-201zM338 725h207q73 0 116.5 13t79.5 46q35 32 56.5 81t21.5 98q0 99 -71 167q-37 34 -80 46t-127 12h-203v-463z" />
<glyph unicode="Q" horiz-adv-x="1550" d="M70 690q0 196 93 359t255 256.5t358 93.5q145 0 276 -56.5t225.5 -151.5t150 -227t55.5 -278q0 -128 -39.5 -240.5t-128.5 -238.5q49 -29 86.5 -39t95.5 -10h16v-185q-192 0 -344 107q-189 -107 -395 -107q-192 0 -354.5 96t-256 261t-93.5 360zM270 676q0 -62 19 -131 q104 43 260 43q76 0 165 -21.5t163 -56.5q45 -21 132.5 -79.5t141.5 -102.5q68 88 99.5 173.5t31.5 184.5q0 143 -67.5 264.5t-183 192.5t-251.5 71q-139 0 -256.5 -71.5t-185.5 -195.5t-68 -271zM371 371q154 -213 411 -213q68 0 114 13t95 46q-130 98 -239 142t-222 44 q-94 0 -159 -32z" />
<glyph unicode="R" horiz-adv-x="1130" d="M137 0v1372h426q244 0 365 -115q60 -57 93.5 -142.5t33.5 -182.5q0 -112 -45 -203t-127 -145q-45 -30 -92.5 -46t-128.5 -28l385 -510h-252l-457 637v-637h-201zM338 664h137q91 0 149 12t107 41q60 34 91.5 89.5t31.5 125.5q0 117 -83.5 186.5t-221.5 69.5h-211v-524z " />
<glyph unicode="S" horiz-adv-x="946" d="M23 406h198q8 -93 39 -146q29 -46 82 -74t111 -28q94 0 157.5 66t63.5 161q0 122 -109 178q-23 13 -168 62q-114 39 -151.5 58t-75.5 60q-92 98 -92 254q0 173 112.5 287.5t284.5 114.5q153 0 262 -107.5t113 -273.5h-201q-6 89 -57.5 142.5t-128.5 53.5 q-73 0 -128.5 -56.5t-55.5 -131.5q0 -41 18.5 -78.5t50.5 -60.5q39 -27 156 -62q110 -31 163 -57.5t97 -73.5q110 -116 110 -284q0 -185 -122 -311t-303 -126q-100 0 -189 43t-149 121q-47 60 -67 120t-21 149z" />
<glyph unicode="T" horiz-adv-x="772" d="M23 1188v184h727v-184h-263v-1188h-200v1188h-264z" />
<glyph unicode="U" horiz-adv-x="1167" d="M123 420v952h201v-926q0 -74 16.5 -123t56.5 -90q75 -75 187 -75q117 0 192 78q40 41 54 84.5t14 125.5v926h200v-952q0 -99 -29.5 -172t-96.5 -137q-141 -138 -336 -138q-193 0 -326 129.5t-133 317.5z" />
<glyph unicode="V" horiz-adv-x="1206" d="M-10 1372h215l399 -1028l397 1028h213l-550 -1372h-121z" />
<glyph unicode="W" horiz-adv-x="1675" d="M27 1372h206l265 -1034l268 1034h145l265 -1026l268 1026h203l-383 -1372h-177l-249 958l-252 -958h-176z" />
<glyph unicode="X" horiz-adv-x="1161" d="M0 0l455 686l-455 686h238l340 -518l344 518h239l-461 -686l457 -686h-235l-344 522l-345 -522h-233z" />
<glyph unicode="Y" horiz-adv-x="1050" d="M0 1372h225l301 -645l301 645h224l-424 -878v-494h-201v494z" />
<glyph unicode="Z" horiz-adv-x="940" d="M47 0v184l596 1004h-565v184h788v-184l-592 -1004h617v-184h-844z" />
<glyph unicode="[" horiz-adv-x="669" d="M135 90v817q0 122 35 211.5t117 175.5q53 54 103.5 87t123.5 61v-225q-97 -60 -138.5 -136.5t-41.5 -193.5v-729q0 -91 14.5 -144t54.5 -104q45 -56 111 -98v-224q-170 68 -274.5 206t-104.5 296z" />
<glyph unicode="\" horiz-adv-x="829" d="M96 1372h168l586 -1716h-168z" />
<glyph unicode="]" horiz-adv-x="669" d="M156 -188q97 62 138.5 138t41.5 193v727q0 92 -15 145.5t-55 104.5q-48 59 -110 99v223q170 -68 274.5 -206t104.5 -296v-817q0 -122 -35 -211.5t-117 -175.5q-52 -55 -102 -87.5t-125 -60.5v224z" />
<glyph unicode="^" d="M37 729l352 649h252l352 -649h-205l-274 496l-272 -496h-205z" />
<glyph unicode="_" horiz-adv-x="1024" d="M0 -121h1024v-174h-1024v174z" />
<glyph unicode="`" d="M252 1370l94 123l322 -233l-86 -113z" />
<glyph unicode="a" horiz-adv-x="1280" d="M66 512q0 203 131 362q154 183 407 183q115 0 218.5 -49t154.5 -127v149h178v-1030h-178v162q-121 -189 -387 -189q-146 0 -266.5 70.5t-189 194.5t-68.5 274zM258 512q0 -149 103.5 -255.5t246.5 -106.5q145 0 250 105t105 251q0 158 -102 266.5t-253 108.5 q-146 0 -248 -107.5t-102 -261.5z" />
<glyph unicode="b" horiz-adv-x="1269" d="M123 0v1372h194v-485q129 174 355 174q144 0 266.5 -74t194 -200t71.5 -273q0 -149 -69.5 -273.5t-191.5 -196t-269 -71.5q-146 0 -268 72q-50 29 -105 100v-145h-178zM311 520q0 -157 101.5 -263.5t249.5 -106.5q143 0 246.5 108t103.5 258q0 152 -102.5 260.5 t-247.5 108.5t-248 -107t-103 -258z" />
<glyph unicode="c" horiz-adv-x="1148" d="M66 516q0 149 69.5 273.5t191 196t267.5 71.5q177 0 321.5 -106.5t182.5 -264.5h-213q-59 104 -125.5 149.5t-163.5 45.5q-146 0 -242 -104t-96 -261q0 -151 97.5 -258.5t232.5 -107.5q92 0 173 52t124 138h213q-59 -169 -195 -268t-311 -99q-222 0 -374 157t-152 386z " />
<glyph unicode="d" horiz-adv-x="1267" d="M66 520q0 211 143 373q145 164 371 164q107 0 211.5 -45.5t160.5 -116.5v477h193v-1372h-178v145q-143 -174 -371 -174q-148 0 -270 72t-191 198t-69 279zM258 516q0 -154 101 -261.5t247 -107.5q151 0 256 109t105 266q0 154 -104 256.5t-261 102.5q-146 0 -245 -105 t-99 -260z" />
<glyph unicode="e" horiz-adv-x="1181" d="M66 516q0 150 70.5 276.5t192 199.5t265.5 73q106 0 202.5 -43t166.5 -115t111.5 -171t41.5 -208q0 -42 -6 -98h-850q31 -127 123 -203.5t215 -76.5q189 0 291 174h194q-60 -161 -193 -256t-300 -95q-141 0 -262 73.5t-191.5 198.5t-70.5 271zM258 578h668 q-8 128 -106 219.5t-228 91.5q-70 0 -137.5 -30t-114.5 -83q-37 -40 -54 -82t-28 -116z" />
<glyph unicode="f" horiz-adv-x="583" d="M59 854v176h93v47q0 137 102 223q49 41 102.5 56.5t145.5 15.5h22v-168q-84 -2 -118 -20q-62 -37 -62 -107v-47h180v-176h-180v-854h-192v854h-93z" />
<glyph unicode="g" horiz-adv-x="1290" d="M68 518q0 105 46.5 210.5t125.5 180.5q151 148 383 148q229 0 366 -152v125h178v-913q0 -212 -123 -344q-78 -85 -194.5 -132t-247.5 -47q-190 0 -334 111q-64 51 -98.5 95.5t-67.5 117.5h217q109 -147 293 -147q165 0 264 94.5t99 255.5v20q-148 -170 -359 -170 q-109 0 -210.5 44.5t-175.5 118t-118 174.5t-44 210zM260 514q0 -151 104 -259t250 -108q151 0 256 110t105 267q0 151 -104.5 254t-256.5 103q-146 0 -250 -107.5t-104 -259.5z" />
<glyph unicode="h" horiz-adv-x="1146" d="M123 0v1372h192v-448q54 70 123.5 101.5t171.5 31.5q190 0 305 -113t115 -299v-645h-192v582q0 140 -43 200q-67 99 -207 99q-125 0 -199 -81.5t-74 -217.5v-582h-192z" />
<glyph unicode="i" horiz-adv-x="438" d="M123 0v1030h192v-1030h-192zM123 1145v227h192v-227h-192z" />
<glyph unicode="j" horiz-adv-x="438" d="M-6 -203q59 6 86 33q28 26 35.5 62t7.5 139v999h192v-999q0 -124 -5 -166t-27 -84q-38 -78 -116.5 -128t-172.5 -56v200zM123 1145v227h192v-227h-192z" />
<glyph unicode="k" horiz-adv-x="976" d="M123 0v1372h192v-837l371 495h227l-372 -485l432 -545h-242l-416 530v-530h-192z" />
<glyph unicode="l" horiz-adv-x="438" d="M123 0v1372h192v-1372h-192z" />
<glyph unicode="m" horiz-adv-x="1794" d="M123 0v1030h178v-110q59 72 130.5 105.5t168.5 33.5q106 0 195.5 -48t124.5 -124q57 89 138.5 129.5t201.5 40.5q193 0 305 -115t112 -313v-629h-192v573q0 152 -62 230t-182 78q-60 0 -110.5 -22t-81.5 -62q-31 -38 -42.5 -86.5t-11.5 -137.5v-573h-192v573 q0 96 -7.5 134t-33.5 79q-65 97 -195 97q-119 0 -190 -80q-35 -38 -48.5 -88t-13.5 -142v-573h-192z" />
<glyph unicode="n" horiz-adv-x="1150" d="M123 0v1030h178v-108q104 137 305 137q192 0 310 -118t118 -310v-631h-192v561q0 149 -43 217q-29 48 -87.5 76.5t-127.5 28.5q-125 0 -196 -85.5t-71 -236.5v-561h-194z" />
<glyph unicode="o" horiz-adv-x="1241" d="M66 520q0 109 44 208t118 171t176 115t214 43q153 0 281.5 -72t202.5 -197t74 -274q0 -106 -48.5 -213t-130.5 -182q-155 -146 -376 -146q-150 0 -278 73.5t-202.5 199.5t-74.5 274zM258 516q0 -151 107 -258.5t256 -107.5q148 0 255 107t107 255q0 155 -105 262 t-257 107q-151 0 -257 -107t-106 -258z" />
<glyph unicode="p" horiz-adv-x="1267" d="M123 -344v1374h178v-158q131 185 367 185q227 0 379.5 -159.5t152.5 -397.5q0 -146 -68.5 -267.5t-188 -191.5t-263.5 -70q-117 0 -216 48t-149 128v-491h-192zM311 516q0 -154 101.5 -261.5t246.5 -107.5q144 0 246.5 105.5t102.5 253.5q0 156 -103 265.5t-250 109.5 q-142 0 -243 -107t-101 -258z" />
<glyph unicode="q" horiz-adv-x="1267" d="M66 516q0 149 70 273.5t192.5 196t269.5 71.5q107 0 208.5 -45t160.5 -119v137h178v-1374h-193v485q-138 -170 -348 -170q-149 0 -272.5 72t-194.5 197.5t-71 275.5zM258 516q0 -157 103 -263t255 -106q145 0 249 106t104 255q0 158 -103.5 265.5t-255.5 107.5 q-151 0 -251.5 -105t-100.5 -260z" />
<glyph unicode="r" horiz-adv-x="593" d="M123 0v1030h178v-92q93 119 266 119v-199q-131 -9 -191.5 -79.5t-60.5 -215.5v-563h-192z" />
<glyph unicode="s" horiz-adv-x="821" d="M43 336h195q6 -90 49.5 -138t118.5 -48q68 0 110.5 37.5t42.5 97.5q0 58 -38 92t-142 69q-139 45 -195 93q-94 82 -94 198q0 138 92 229t232 91q136 0 224 -84.5t91 -216.5h-190q-21 125 -129 125q-54 0 -90.5 -32t-36.5 -81t32 -75.5t127 -55.5q144 -45 209 -105 q101 -98 101 -231q0 -134 -105.5 -231t-251.5 -97q-99 0 -181 46t-128 128q-40 71 -43 189z" />
<glyph unicode="t" horiz-adv-x="546" d="M10 854v176h140v342h192v-342h170v-176h-170v-854h-192v854h-140z" />
<glyph unicode="u" horiz-adv-x="1150" d="M117 399v631h192v-561q0 -149 43 -217q29 -48 87.5 -76.5t127.5 -28.5q125 0 196 85.5t71 236.5v561h192v-1030h-178v109q-46 -65 -125.5 -101.5t-177.5 -36.5q-192 0 -310 118t-118 310z" />
<glyph unicode="v" horiz-adv-x="937" d="M-4 1030h207l270 -737l264 737h205l-401 -1030h-138z" />
<glyph unicode="w" horiz-adv-x="1460" d="M16 1030h207l230 -670l215 670h127l215 -670l227 670h207l-381 -1030h-109l-223 692l-225 -692h-107z" />
<glyph unicode="x" horiz-adv-x="972" d="M10 0l357 528l-344 502h233l227 -340l224 340h233l-334 -502l359 -528h-228l-254 365l-247 -365h-226z" />
<glyph unicode="y" horiz-adv-x="1019" d="M-4 1030h209l301 -801l311 801h207l-569 -1374h-199l150 364z" />
<glyph unicode="z" horiz-adv-x="813" d="M41 0v150l494 704h-447v176h660v-194l-467 -660h503v-176h-743z" />
<glyph unicode="{" horiz-adv-x="669" d="M51 453v135q59 15 85 56.5t26 119.5v338q0 148 68 212t223 64h88v-161q-122 0 -158.5 -30t-36.5 -130v-305q0 -98 -25 -148t-94 -90q66 -40 92.5 -93.5t26.5 -148.5v-297q0 -73 7.5 -96t33.5 -43q35 -24 131 -24h23v-162h-95q-152 0 -218 67.5t-66 221.5v323 q0 89 -25.5 132.5t-85.5 58.5z" />
<glyph unicode="|" d="M418 -344v1716h192v-1716h-192z" />
<glyph unicode="}" horiz-adv-x="669" d="M129 -188q122 0 157.5 29t35.5 130v305q0 98 25 149t93 89q-66 40 -92 93.5t-26 148.5v297q0 62 -9 92t-32 47q-36 25 -129 25h-23v161h92q152 0 218.5 -67t66.5 -221v-326q0 -88 25.5 -131t86.5 -58v-135q-60 -15 -86 -56.5t-26 -119.5v-338q0 -148 -68 -212t-223 -64 h-86v162z" />
<glyph unicode="~" horiz-adv-x="1372" d="M188 1253q23 50 40.5 81t44.5 68t54.5 58t67 35t86.5 14q72 0 226 -65q91 -39 124 -49.5t66 -10.5q56 0 93 27t79 100l113 -65q-35 -73 -62.5 -112t-64.5 -68q-82 -66 -183 -66q-40 0 -96 18.5t-194 77.5q-66 29 -117 29t-89 -32.5t-79 -110.5z" />
<glyph unicode="&#xa1;" horiz-adv-x="493" d="M152 -344v1030h192v-1030h-192zM152 803v227h192v-227h-192z" />
<glyph unicode="&#xa2;" d="M72 709q0 167 99.5 285.5t268.5 150.5v178h176v-178q121 -25 216 -107t126 -188h-219q-26 52 -81.5 81.5t-127.5 29.5q-114 0 -190 -75t-76 -188q0 -109 77 -183.5t191 -74.5q134 0 205 101h217q-31 -100 -127.5 -180.5t-210.5 -100.5v-182h-176v182q-76 17 -125 41 t-96 66q-147 135 -147 342z" />
<glyph unicode="&#xa3;" d="M18 606v176h64q-20 45 -26.5 76t-6.5 78q0 195 131.5 330t321.5 135q170 0 293 -101.5t157 -269.5h-211q-43 103 -101 150t-144 47q-106 0 -180 -80.5t-74 -194.5q0 -103 67 -170h406v-176h-236q74 -113 74 -268q0 -75 -23 -162h62q104 0 165.5 60.5t61.5 164.5 q0 48 -24 105h204q13 -59 13 -103q0 -186 -113 -294.5t-307 -108.5h-514v176h237q26 45 35.5 79.5t9.5 82.5q0 181 -143 268h-199z" />
<glyph unicode="&#xa4;" horiz-adv-x="1224" d="M90 252l154 154q-97 132 -97 286q0 151 97 277l-150 149l88 86l150 -149q69 51 134.5 73.5t145.5 22.5q159 0 281 -96l156 155l86 -88l-154 -153q94 -128 94 -279q0 -148 -94 -282l149 -152l-88 -86l-149 147q-125 -94 -283 -94q-153 0 -278 94l-154 -153zM301 690 q0 -135 90 -229t219 -94q131 0 222.5 94t91.5 227q0 131 -92.5 225.5t-219.5 94.5q-126 0 -218.5 -94.5t-92.5 -223.5z" />
<glyph unicode="&#xa5;" d="M31 1372h215l270 -604l268 604h217l-202 -434h155v-160h-229l-100 -217h286v-160h-299v-401h-192v401h-301v160h289l-101 217h-229v160h155z" />
<glyph unicode="&#xa6;" d="M418 315h192v-659h-192v659zM418 678v694h192v-694h-192z" />
<glyph unicode="&#xa7;" d="M70 614q0 183 166 279q-70 100 -70 192q0 132 100.5 223t249.5 91q195 0 303 -154q51 -70 64 -188h-197q-27 166 -172 166q-66 0 -111 -42.5t-45 -105.5q0 -47 26.5 -78.5t96.5 -68.5l248 -129q126 -66 177.5 -130.5t51.5 -158.5q0 -86 -36.5 -152.5t-118.5 -126.5 q55 -67 77.5 -119t22.5 -114q0 -161 -110 -265t-279 -104q-172 0 -283 108.5t-118 285.5h190q9 -104 65.5 -161t151.5 -57q86 0 138.5 51t52.5 134q0 57 -36.5 100t-119.5 86l-276 143q-72 38 -101 60t-55 59q-53 77 -53 176zM248 629q0 -40 28 -79.5t74 -62.5l324 -168 q62 51 84 86t22 82q0 46 -28 78t-101 70l-301 153q-46 -31 -74 -74t-28 -85z" />
<glyph unicode="&#xa8;" d="M262 1194v227h187v-227h-187zM580 1194v227h186v-227h-186z" />
<glyph unicode="&#xa9;" horiz-adv-x="1613" d="M94 694q0 113 36.5 220t103.5 194t155 153t196.5 102t223.5 36q144 0 276 -57t227.5 -152.5t152.5 -227.5t57 -276t-57 -276t-152.5 -227.5t-227.5 -152.5t-276 -57q-195 0 -359.5 96t-260 262t-95.5 363zM168 692q0 -178 86 -329t233.5 -238.5t321.5 -87.5q128 0 246 52 t204 139t137.5 206.5t51.5 249.5q0 175 -86 325t-233.5 238t-319.5 88q-128 0 -246.5 -52t-205 -138.5t-138 -205.5t-51.5 -247zM354 702q0 177 132 301.5t321 124.5q272 0 410 -237h-168q-100 115 -240 115q-130 0 -222.5 -89.5t-92.5 -214.5t93 -216t220 -91 q135 0 233 107h170q-65 -110 -170 -170t-235 -60q-121 0 -225 58t-165 157t-61 215z" />
<glyph unicode="&#xaa;" horiz-adv-x="839" d="M51 858q0 140 98.5 234t247.5 94q135 0 228 -90v73h127v-620h-127v80q-34 -44 -97.5 -70.5t-138.5 -26.5q-143 0 -240.5 94t-97.5 232zM186 858q0 -86 63 -147.5t152 -61.5q88 0 151.5 61t63.5 144q0 91 -62.5 153t-154.5 62q-89 0 -151 -61t-62 -150z" />
<glyph unicode="&#xab;" horiz-adv-x="737" d="M82 430v193l258 251v-210l-137 -136l137 -139v-207zM387 430v193l254 251v-210l-139 -136l139 -139v-207z" />
<glyph unicode="&#xac;" d="M70 371v180h893v-551h-193v371h-700z" />
<glyph unicode="&#xad;" horiz-adv-x="518" d="M0 432v193h518v-193h-518z" />
<glyph unicode="&#xae;" horiz-adv-x="1613" d="M94 694q0 113 36.5 220t103.5 194t155 153t196.5 102t223.5 36q144 0 276 -57t227.5 -152.5t152.5 -227.5t57 -276t-57 -276t-152.5 -227.5t-227.5 -152.5t-276 -57q-195 0 -359.5 96t-260 262t-95.5 363zM168 692q0 -178 86 -329t233.5 -238.5t321.5 -87.5q128 0 246 52 t204 139t137.5 206.5t51.5 249.5q0 175 -86 325t-233.5 238t-319.5 88q-128 0 -246.5 -52t-205 -138.5t-138 -205.5t-51.5 -247zM545 289v823h274q152 0 235 -69.5t83 -196.5q0 -106 -63 -171.5t-181 -82.5l244 -303h-174l-279 362v-362h-139zM684 694h80q115 0 174 39 t59 113q0 65 -50.5 104t-135.5 39h-127v-295z" />
<glyph unicode="&#xaf;" d="M233 1231v133h564v-133h-564z" />
<glyph unicode="&#xb0;" horiz-adv-x="788" d="M102 1110q0 115 86 198t205 83q122 0 207.5 -83.5t85.5 -201.5q0 -117 -85.5 -201t-205.5 -84q-123 0 -208 84t-85 205zM211 1108q0 -75 53.5 -127.5t130.5 -52.5q75 0 129 52.5t54 125.5q0 74 -54.5 126t-130.5 52q-74 0 -128 -52t-54 -124z" />
<glyph unicode="&#xb1;" d="M82 0v152h864v-152h-864zM82 610v152h356v356h152v-356h356v-152h-356v-356h-152v356h-356z" />
<glyph unicode="&#xb2;" horiz-adv-x="681" d="M57 1081q0 63 4.5 91t22.5 63q34 70 102 112t148 42q117 0 198.5 -79t81.5 -192q0 -63 -27 -115.5t-93 -115.5l-230 -221h352v-117h-555v104l342 326q76 73 76 143q0 63 -40.5 106.5t-98.5 43.5q-41 0 -75.5 -21.5t-53.5 -58.5q-12 -23 -15 -41t-3 -70h-136z" />
<glyph unicode="&#xb3;" horiz-adv-x="681" d="M39 801h135q3 -71 44.5 -111.5t111.5 -40.5q60 0 103.5 42.5t43.5 101.5q0 60 -43.5 99.5t-109.5 39.5h-52v127h50q56 0 87 28.5t31 79.5q0 44 -31.5 74.5t-78.5 30.5q-97 0 -109 -115h-135q5 90 49 139q35 43 89 68t112 25q102 0 170.5 -68t68.5 -168q0 -49 -16 -82.5 t-57 -71.5q52 -32 81 -85.5t29 -116.5q0 -109 -84 -187t-204 -78t-202.5 77.5t-82.5 191.5z" />
<glyph unicode="&#xb4;" d="M362 1260l322 233l94 -123l-327 -223z" />
<glyph unicode="&#xb5;" d="M80 -350v1339h192v-547q0 -104 16 -159t58 -97q68 -65 166 -65q112 0 178 88q37 46 51.5 101.5t14.5 146.5v532h192v-989h-192v154q-43 -93 -102.5 -136t-145.5 -43q-78 0 -134 34.5t-102 109.5v-469h-192z" />
<glyph unicode="&#xb6;" d="M53 1004q0 100 42.5 183.5t115.5 127.5q88 57 252 57h495v-121h-94v-1456h-149v1456h-152v-1456h-149v850q-60 0 -86 4t-66 19q-98 38 -153.5 127t-55.5 209z" />
<glyph unicode="&#xb7;" horiz-adv-x="438" d="M123 416v227h192v-227h-192z" />
<glyph unicode="&#xb8;" d="M334 -289h102q23 -59 76 -59q34 0 56 22t22 56q0 31 -22 51t-56 20q-32 0 -61 -26l-64 59l68 166h92l-43 -113q14 2 37 2q69 0 115 -45t46 -112q0 -80 -52 -133.5t-130 -53.5q-77 0 -131 48t-55 118z" />
<glyph unicode="&#xb9;" horiz-adv-x="681" d="M174 1255v117h262v-823h-135v706h-127z" />
<glyph unicode="&#xba;" horiz-adv-x="815" d="M51 864q0 134 104.5 229t252.5 95q149 0 252.5 -95.5t103.5 -232.5q0 -134 -105 -231t-251 -97q-148 0 -252.5 97.5t-104.5 234.5zM186 860q0 -87 65.5 -149t156.5 -62t156 61.5t65 147.5q0 89 -64.5 151t-156.5 62t-157 -61.5t-65 -149.5z" />
<glyph unicode="&#xbb;" horiz-adv-x="739" d="M96 182v211l137 135l-137 140v206l252 -247v-193zM406 182v211l137 135l-137 140v206l251 -247v-193z" />
<glyph unicode="&#xbc;" horiz-adv-x="1656" d="M174 1255v117h262v-823h-135v706h-127zM483 0l574 1372h114l-569 -1372h-119zM997 127v119l400 577h131v-579h92v-117h-92v-127h-135v127h-396zM1143 244h250v372z" />
<glyph unicode="&#xbd;" horiz-adv-x="1656" d="M174 1255v117h262v-823h-135v706h-127zM483 0l574 1372h114l-569 -1372h-119zM1030 532q0 66 4.5 92t22.5 62q34 70 102 112t148 42q116 0 198 -79.5t82 -191.5q0 -63 -27.5 -116.5t-93.5 -116.5l-229 -219h352v-117h-555v104l342 326q76 73 76 143q0 63 -40.5 106.5 t-98.5 43.5q-41 0 -75.5 -21.5t-53.5 -58.5q-12 -24 -15.5 -42t-3.5 -69h-135z" />
<glyph unicode="&#xbe;" horiz-adv-x="1656" d="M39 801h135q3 -71 44.5 -111.5t111.5 -40.5q60 0 103.5 42.5t43.5 101.5q0 60 -43.5 99.5t-109.5 39.5h-52v127h50q56 0 87 28.5t31 79.5q0 44 -31.5 74.5t-78.5 30.5q-97 0 -109 -115h-135q5 90 49 139q35 43 89 68t112 25q102 0 170.5 -68t68.5 -168q0 -49 -16 -82.5 t-57 -71.5q52 -32 81 -85.5t29 -116.5q0 -109 -84 -187t-204 -78t-202.5 77.5t-82.5 191.5zM483 0l574 1372h114l-569 -1372h-119zM997 127v119l398 577h131v-579h92v-117h-92v-127h-135v127h-394zM1143 244h248v372z" />
<glyph unicode="&#xbf;" horiz-adv-x="925" d="M70 47q0 100 35.5 167.5t130.5 156.5q82 74 114.5 137.5t44.5 169.5h193q-1 -123 -52 -226.5t-159 -203.5q-67 -64 -91 -104t-24 -89q0 -96 64 -162.5t157 -66.5q57 0 106.5 27.5t80.5 76.5q23 39 32 117h197q-4 -86 -24 -143.5t-64 -114.5q-60 -75 -147 -117.5 t-183 -42.5q-168 0 -289.5 123.5t-121.5 294.5zM395 803v227h193v-227h-193z" />
<glyph unicode="&#xc0;" horiz-adv-x="1222" d="M0 0l522 1372h178l523 -1372h-211l-154 406h-493l-152 -406h-213zM268 1686l84 135l361 -211l-74 -127zM436 590h352l-176 522z" />
<glyph unicode="&#xc1;" horiz-adv-x="1222" d="M0 0l522 1372h178l523 -1372h-211l-154 406h-493l-152 -406h-213zM436 590h352l-176 522zM518 1610l361 211l84 -135l-371 -203z" />
<glyph unicode="&#xc2;" horiz-adv-x="1222" d="M0 0l522 1372h178l523 -1372h-211l-154 406h-493l-152 -406h-213zM266 1513l260 263h187l258 -263h-211l-146 142l-135 -142h-213zM436 590h352l-176 522z" />
<glyph unicode="&#xc3;" horiz-adv-x="1222" d="M0 0l522 1372h178l523 -1372h-211l-154 406h-493l-152 -406h-213zM311 1632l19 21l30 30q27 27 65.5 45.5t68.5 18.5q44 0 139 -37q72 -29 121 -29q31 0 54.5 13.5t78.5 62.5l80 -119q-93 -112 -203 -112q-68 0 -170 45q-51 20 -74 20q-31 0 -52.5 -11.5t-57.5 -47.5 q-7 -7 -19 -16zM436 590h352l-176 522z" />
<glyph unicode="&#xc4;" horiz-adv-x="1222" d="M0 0l522 1372h178l523 -1372h-211l-154 406h-493l-152 -406h-213zM356 1530v227h193v-227h-193zM436 590h352l-176 522zM686 1530v227h193v-227h-193z" />
<glyph unicode="&#xc5;" horiz-adv-x="1222" d="M0 0l522 1372h178l523 -1372h-211l-154 406h-493l-152 -406h-213zM416 1665q0 82 57.5 138.5t140.5 56.5q78 0 135.5 -58.5t57.5 -136.5q0 -81 -57.5 -139t-137.5 -58q-82 0 -139 57.5t-57 139.5zM436 590h352l-176 522zM526 1665q0 -37 25.5 -63.5t60.5 -26.5 q34 0 59 26.5t25 63.5q0 35 -25 61.5t-59 26.5q-35 0 -60.5 -25.5t-25.5 -62.5z" />
<glyph unicode="&#xc6;" horiz-adv-x="1650" d="M-41 0l922 1372h684v-184h-467v-404h467v-184h-467v-416h467v-184h-668v381h-453l-251 -381h-234zM575 565h322v508z" />
<glyph unicode="&#xc7;" horiz-adv-x="1454" d="M70 690q0 193 94 356.5t256.5 258t355.5 94.5q203 0 365.5 -97t265.5 -280h-242q-162 192 -385 192q-139 0 -256.5 -70.5t-185.5 -191.5t-68 -264q0 -142 69 -265t185.5 -195t251.5 -72q222 0 375 182h246q-80 -144 -219 -242q-78 -56 -184.5 -90.5t-198.5 -34.5 q-11 0 -23 2l-33 -88q16 2 41 2q75 0 125.5 -48.5t50.5 -119.5q0 -85 -58.5 -140.5t-147.5 -55.5q-82 0 -131 44.5t-58 127.5h109q15 -62 80 -62q35 0 57 23t22 61q0 31 -22.5 51.5t-56.5 20.5t-68 -27l-68 66l56 154q-258 40 -429 241.5t-171 466.5z" />
<glyph unicode="&#xc8;" horiz-adv-x="964" d="M137 0v1372h742v-184h-541v-404h541v-184h-541v-416h541v-184h-742zM172 1686l84 135l360 -211l-73 -127z" />
<glyph unicode="&#xc9;" horiz-adv-x="964" d="M137 0v1372h742v-184h-541v-404h541v-184h-541v-416h541v-184h-742zM414 1610l360 211l84 -135l-371 -203z" />
<glyph unicode="&#xca;" horiz-adv-x="964" d="M137 0v1372h742v-184h-541v-404h541v-184h-541v-416h541v-184h-742zM170 1513l260 263h186l258 -263h-210l-146 142l-135 -142h-213z" />
<glyph unicode="&#xcb;" horiz-adv-x="964" d="M137 0v1372h742v-184h-541v-404h541v-184h-541v-416h541v-184h-742zM260 1530v227h193v-227h-193zM590 1530v227h192v-227h-192z" />
<glyph unicode="&#xcc;" horiz-adv-x="475" d="M-80 1686l84 135l332 -211l-72 -127zM137 0v1372h201v-1372h-201z" />
<glyph unicode="&#xcd;" horiz-adv-x="475" d="M137 0v1372h201v-1372h-201zM160 1610l332 211l83 -135l-342 -203z" />
<glyph unicode="&#xce;" horiz-adv-x="475" d="M-68 1513l228 263h184l223 -263h-205l-114 142l-111 -142h-205zM137 0v1372h201v-1372h-201z" />
<glyph unicode="&#xcf;" horiz-adv-x="475" d="M18 1530v227h181v-227h-181zM137 0v1372h201v-1372h-201zM291 1530v227h180v-227h-180z" />
<glyph unicode="&#xd0;" horiz-adv-x="1353" d="M6 600v178h131v594h486q282 0 460 -184q95 -97 148 -231t53 -279q0 -136 -45.5 -262t-126.5 -215q-180 -201 -549 -201h-426v600h-131zM338 184h162q274 0 418 115q78 63 121.5 163.5t43.5 217.5q0 221 -147 371q-71 72 -154 104.5t-198 32.5h-246v-410h342v-178h-342 v-416z" />
<glyph unicode="&#xd1;" horiz-adv-x="1366" d="M137 0v1372h219l672 -1044v1044h201v-1372h-207l-684 1061v-1061h-201zM397 1632l19 21l30 30q27 27 65.5 45.5t68.5 18.5q44 0 139 -37q72 -29 121 -29q31 0 54.5 13.5t78.5 62.5l80 -119q-93 -112 -203 -112q-68 0 -170 45q-51 20 -74 20q-31 0 -52.5 -11.5 t-57.5 -47.5q-7 -7 -19 -16z" />
<glyph unicode="&#xd2;" horiz-adv-x="1564" d="M70 686q0 146 56 278t151.5 227t227 151.5t277.5 56.5q149 0 281.5 -55.5t227.5 -151.5t150.5 -230.5t55.5 -285.5q0 -141 -57 -271t-153 -224.5t-228.5 -151t-276.5 -56.5q-193 0 -357 95.5t-259.5 260t-95.5 357.5zM270 686q0 -103 41 -205.5t113 -175.5 q144 -147 360 -147q215 0 359 147q70 72 111.5 174t41.5 201q0 207 -131 360q-149 174 -383 174q-232 0 -381 -174q-63 -73 -97 -165.5t-34 -188.5zM440 1686l84 135l361 -211l-74 -127z" />
<glyph unicode="&#xd3;" horiz-adv-x="1564" d="M70 686q0 146 56 278t151.5 227t227 151.5t277.5 56.5q149 0 281.5 -55.5t227.5 -151.5t150.5 -230.5t55.5 -285.5q0 -141 -57 -271t-153 -224.5t-228.5 -151t-276.5 -56.5q-193 0 -357 95.5t-259.5 260t-95.5 357.5zM270 686q0 -103 41 -205.5t113 -175.5 q144 -147 360 -147q215 0 359 147q70 72 111.5 174t41.5 201q0 207 -131 360q-149 174 -383 174q-232 0 -381 -174q-63 -73 -97 -165.5t-34 -188.5zM690 1610l361 211l84 -135l-371 -203z" />
<glyph unicode="&#xd4;" horiz-adv-x="1564" d="M70 686q0 146 56 278t151.5 227t227 151.5t277.5 56.5q149 0 281.5 -55.5t227.5 -151.5t150.5 -230.5t55.5 -285.5q0 -141 -57 -271t-153 -224.5t-228.5 -151t-276.5 -56.5q-193 0 -357 95.5t-259.5 260t-95.5 357.5zM270 686q0 -103 41 -205.5t113 -175.5 q144 -147 360 -147q215 0 359 147q70 72 111.5 174t41.5 201q0 207 -131 360q-149 174 -383 174q-232 0 -381 -174q-63 -73 -97 -165.5t-34 -188.5zM444 1513l261 263h186l258 -263h-211l-145 142l-136 -142h-213z" />
<glyph unicode="&#xd5;" horiz-adv-x="1564" d="M70 686q0 146 56 278t151.5 227t227 151.5t277.5 56.5q149 0 281.5 -55.5t227.5 -151.5t150.5 -230.5t55.5 -285.5q0 -141 -57 -271t-153 -224.5t-228.5 -151t-276.5 -56.5q-193 0 -357 95.5t-259.5 260t-95.5 357.5zM270 686q0 -103 41 -205.5t113 -175.5 q144 -147 360 -147q215 0 359 147q70 72 111.5 174t41.5 201q0 207 -131 360q-149 174 -383 174q-232 0 -381 -174q-63 -73 -97 -165.5t-34 -188.5zM504 1632l18 21l31 30q27 27 65 45.5t68 18.5q44 0 139 -37q72 -29 121 -29q31 0 54.5 13.5t78.5 62.5l80 -119 q-93 -112 -203 -112q-68 0 -170 45q-51 20 -73 20q-31 0 -53 -11.5t-58 -47.5q-10 -10 -18 -16z" />
<glyph unicode="&#xd6;" horiz-adv-x="1564" d="M70 686q0 146 56 278t151.5 227t227 151.5t277.5 56.5q149 0 281.5 -55.5t227.5 -151.5t150.5 -230.5t55.5 -285.5q0 -141 -57 -271t-153 -224.5t-228.5 -151t-276.5 -56.5q-193 0 -357 95.5t-259.5 260t-95.5 357.5zM270 686q0 -103 41 -205.5t113 -175.5 q144 -147 360 -147q215 0 359 147q70 72 111.5 174t41.5 201q0 207 -131 360q-149 174 -383 174q-232 0 -381 -174q-63 -73 -97 -165.5t-34 -188.5zM528 1530v227h193v-227h-193zM858 1530v227h193v-227h-193z" />
<glyph unicode="&#xd7;" d="M135 412l277 276l-277 277l103 102l276 -276l277 276l102 -102l-277 -277l281 -280l-102 -101l-281 281l-276 -277z" />
<glyph unicode="&#xd8;" horiz-adv-x="1564" d="M70 686q0 195 95 359t260 259t361 95q92 0 154.5 -15.5t202.5 -72.5l127 168l129 -93l-129 -176q108 -98 167.5 -236t59.5 -288q0 -145 -56.5 -277t-152 -227.5t-227.5 -152t-277 -56.5q-197 0 -362 99l-127 -176l-127 94l127 178q-225 218 -225 518zM270 686 q0 -206 140 -367l614 834q-53 35 -99.5 48t-125.5 13q-253 0 -396 -174q-133 -155 -133 -354zM537 221q97 -63 249 -63q216 0 357 147q71 74 112 176t41 205q0 108 -38.5 204.5t-108.5 162.5z" />
<glyph unicode="&#xd9;" horiz-adv-x="1167" d="M123 420v952h201v-926q0 -74 16.5 -123t56.5 -90q75 -75 187 -75q117 0 192 78q40 41 54 84.5t14 125.5v926h200v-952q0 -99 -29.5 -172t-96.5 -137q-141 -138 -336 -138q-193 0 -326 129.5t-133 317.5zM246 1686l84 135l360 -211l-74 -127z" />
<glyph unicode="&#xda;" horiz-adv-x="1167" d="M123 420v952h201v-926q0 -74 16.5 -123t56.5 -90q75 -75 187 -75q117 0 192 78q40 41 54 84.5t14 125.5v926h200v-952q0 -99 -29.5 -172t-96.5 -137q-141 -138 -336 -138q-193 0 -326 129.5t-133 317.5zM516 1610l361 211l84 -135l-371 -203z" />
<glyph unicode="&#xdb;" horiz-adv-x="1167" d="M123 420v952h201v-926q0 -74 16.5 -123t56.5 -90q75 -75 187 -75q117 0 192 78q40 41 54 84.5t14 125.5v926h200v-952q0 -99 -29.5 -172t-96.5 -137q-141 -138 -336 -138q-193 0 -326 129.5t-133 317.5zM252 1513l260 263h186l258 -263h-211l-145 142l-135 -142h-213z " />
<glyph unicode="&#xdc;" horiz-adv-x="1167" d="M123 420v952h201v-926q0 -74 16.5 -123t56.5 -90q75 -75 187 -75q117 0 192 78q40 41 54 84.5t14 125.5v926h200v-952q0 -99 -29.5 -172t-96.5 -137q-141 -138 -336 -138q-193 0 -326 129.5t-133 317.5zM336 1530v227h192v-227h-192zM666 1530v227h192v-227h-192z" />
<glyph unicode="&#xdd;" horiz-adv-x="1050" d="M0 1372h225l301 -645l301 645h224l-424 -878v-494h-201v494zM465 1610l360 211l84 -135l-370 -203z" />
<glyph unicode="&#xde;" horiz-adv-x="1062" d="M137 0v1372h201v-192h276q178 0 292 -115t114 -295q0 -167 -109 -285q-69 -75 -154 -106t-222 -31h-197v-348h-201zM338 532h207q72 0 115.5 13t80.5 47q35 32 56.5 80.5t21.5 97.5q0 47 -19 92t-52 76q-37 34 -79.5 45.5t-127.5 11.5h-203v-463z" />
<glyph unicode="&#xdf;" horiz-adv-x="1175" d="M117 0v958q0 193 102 306q57 64 136 99.5t165 35.5q169 0 289.5 -120.5t120.5 -287.5q0 -74 -24.5 -123.5t-82.5 -95.5q67 -17 109 -41.5t80 -68.5q100 -114 100 -256q0 -186 -121.5 -309.5t-304.5 -123.5q-141 0 -248 80q-57 43 -82 77t-47 99v-229h-192zM311 360h156 q15 -97 75.5 -153.5t149.5 -56.5q95 0 161.5 68.5t66.5 168.5q0 117 -101 186q-37 25 -77.5 35t-106.5 10h-133v170q59 1 95.5 13.5t70.5 40.5q32 28 50.5 71.5t18.5 90.5q0 92 -62 155.5t-153 63.5q-101 0 -156 -69t-55 -196v-598z" />
<glyph unicode="&#xe0;" horiz-adv-x="1280" d="M66 512q0 203 131 362q154 183 407 183q115 0 218.5 -49t154.5 -127v149h178v-1030h-178v162q-121 -189 -387 -189q-146 0 -266.5 70.5t-189 194.5t-68.5 274zM258 512q0 -149 103.5 -255.5t246.5 -106.5q145 0 250 105t105 251q0 158 -102 266.5t-253 108.5 q-146 0 -248 -107.5t-102 -261.5zM389 1370l94 123l322 -233l-86 -113z" />
<glyph unicode="&#xe1;" horiz-adv-x="1280" d="M66 512q0 203 131 362q154 183 407 183q115 0 218.5 -49t154.5 -127v149h178v-1030h-178v162q-121 -189 -387 -189q-146 0 -266.5 70.5t-189 194.5t-68.5 274zM258 512q0 -149 103.5 -255.5t246.5 -106.5q145 0 250 105t105 251q0 158 -102 266.5t-253 108.5 q-146 0 -248 -107.5t-102 -261.5zM535 1260l321 233l94 -123l-327 -223z" />
<glyph unicode="&#xe2;" horiz-adv-x="1280" d="M66 512q0 203 131 362q154 183 407 183q115 0 218.5 -49t154.5 -127v149h178v-1030h-178v162q-121 -189 -387 -189q-146 0 -266.5 70.5t-189 194.5t-68.5 274zM258 512q0 -149 103.5 -255.5t246.5 -106.5q145 0 250 105t105 251q0 158 -102 266.5t-253 108.5 q-146 0 -248 -107.5t-102 -261.5zM346 1174l234 278h186l235 -278h-196l-127 155l-135 -155h-197z" />
<glyph unicode="&#xe3;" horiz-adv-x="1280" d="M66 512q0 203 131 362q154 183 407 183q115 0 218.5 -49t154.5 -127v149h178v-1030h-178v162q-121 -189 -387 -189q-146 0 -266.5 70.5t-189 194.5t-68.5 274zM258 512q0 -149 103.5 -255.5t246.5 -106.5q145 0 250 105t105 251q0 158 -102 266.5t-253 108.5 q-146 0 -248 -107.5t-102 -261.5zM354 1303q3 4 8 9t8 7.5t3 3.5l28 31q25 28 62.5 46.5t68.5 18.5q50 0 138 -39q69 -30 116 -30q28 0 63 21t66 56l74 -112q-38 -54 -89.5 -84.5t-104.5 -30.5q-63 0 -162 47q-55 23 -76 23q-29 0 -49.5 -12t-58.5 -50q-13 -13 -17 -16z" />
<glyph unicode="&#xe4;" horiz-adv-x="1280" d="M66 512q0 203 131 362q154 183 407 183q115 0 218.5 -49t154.5 -127v149h178v-1030h-178v162q-121 -189 -387 -189q-146 0 -266.5 70.5t-189 194.5t-68.5 274zM258 512q0 -149 103.5 -255.5t246.5 -106.5q145 0 250 105t105 251q0 158 -102 266.5t-253 108.5 q-146 0 -248 -107.5t-102 -261.5zM428 1194v227h186v-227h-186zM745 1194v227h187v-227h-187z" />
<glyph unicode="&#xe5;" horiz-adv-x="1280" d="M66 512q0 203 131 362q154 183 407 183q115 0 218.5 -49t154.5 -127v149h178v-1030h-178v162q-121 -189 -387 -189q-146 0 -266.5 70.5t-189 194.5t-68.5 274zM258 512q0 -149 103.5 -255.5t246.5 -106.5q145 0 250 105t105 251q0 158 -102 266.5t-253 108.5 q-146 0 -248 -107.5t-102 -261.5zM483 1335q0 82 58 138.5t141 56.5q78 0 135 -58.5t57 -136.5q0 -81 -57 -138.5t-137 -57.5q-82 0 -139.5 57t-57.5 139zM590 1335q0 -38 26.5 -66t63.5 -28q35 0 61.5 28t26.5 66q0 37 -26.5 64.5t-61.5 27.5q-37 0 -63.5 -27t-26.5 -65z " />
<glyph unicode="&#xe6;" horiz-adv-x="2088" d="M66 520q0 227 156 382t386 155q226 0 367 -150v123h176v-123q64 73 153.5 112.5t192.5 39.5q142 0 263 -73t191 -197.5t70 -270.5q0 -30 -6 -88h-858q23 -120 119 -200t219 -80q94 0 175 47.5t122 128.5h199q-24 -67 -57 -114.5t-91 -102.5q-65 -60 -162.5 -98 t-189.5 -38q-96 0 -172.5 33t-167.5 113v-119h-176v119q-87 -80 -168 -113t-193 -33q-152 0 -278 72t-198 197.5t-72 277.5zM258 518q0 -158 99.5 -263t248.5 -105q151 0 255 105t104 259q0 157 -102.5 262t-256.5 105q-151 0 -249.5 -103t-98.5 -260zM1159 578h668 q-5 94 -47 157q-46 69 -121.5 108.5t-161.5 39.5t-159 -35.5t-119 -99.5q-28 -39 -41 -75t-19 -95z" />
<glyph unicode="&#xe7;" horiz-adv-x="1148" d="M66 516q0 149 69.5 273.5t191 196t267.5 71.5q177 0 321.5 -106.5t182.5 -264.5h-213q-59 104 -125.5 149.5t-163.5 45.5q-146 0 -242 -104t-96 -261q0 -151 97.5 -258.5t232.5 -107.5q92 0 173 52t124 138h213q-53 -161 -192 -264t-306 -103l-33 -84l37 2 q69 3 115.5 -43.5t46.5 -115.5q0 -80 -52 -133.5t-130 -53.5q-77 0 -131.5 48t-55.5 118h103q20 -59 75 -59q34 0 56 22t22 56q0 32 -22 52.5t-56 20.5q-33 0 -61 -28l-63 59l57 146q-73 12 -125.5 34.5t-106.5 63.5q-99 78 -154.5 194t-55.5 244z" />
<glyph unicode="&#xe8;" horiz-adv-x="1181" d="M66 516q0 150 70.5 276.5t192 199.5t265.5 73q106 0 202.5 -43t166.5 -115t111.5 -171t41.5 -208q0 -42 -6 -98h-850q31 -127 123 -203.5t215 -76.5q189 0 291 174h194q-60 -161 -193 -256t-300 -95q-141 0 -262 73.5t-191.5 198.5t-70.5 271zM258 578h668 q-8 128 -106 219.5t-228 91.5q-70 0 -137.5 -30t-114.5 -83q-37 -40 -54 -82t-28 -116zM299 1370l94 123l322 -233l-86 -113z" />
<glyph unicode="&#xe9;" horiz-adv-x="1181" d="M66 516q0 150 70.5 276.5t192 199.5t265.5 73q106 0 202.5 -43t166.5 -115t111.5 -171t41.5 -208q0 -42 -6 -98h-850q31 -127 123 -203.5t215 -76.5q189 0 291 174h194q-60 -161 -193 -256t-300 -95q-141 0 -262 73.5t-191.5 198.5t-70.5 271zM258 578h668 q-8 128 -106 219.5t-228 91.5q-70 0 -137.5 -30t-114.5 -83q-37 -40 -54 -82t-28 -116zM512 1260l322 233l94 -123l-328 -223z" />
<glyph unicode="&#xea;" horiz-adv-x="1181" d="M66 516q0 150 70.5 276.5t192 199.5t265.5 73q106 0 202.5 -43t166.5 -115t111.5 -171t41.5 -208q0 -42 -6 -98h-850q31 -127 123 -203.5t215 -76.5q189 0 291 174h194q-60 -161 -193 -256t-300 -95q-141 0 -262 73.5t-191.5 198.5t-70.5 271zM258 578h668 q-8 128 -106 219.5t-228 91.5q-70 0 -137.5 -30t-114.5 -83q-37 -40 -54 -82t-28 -116zM291 1174l233 278h187l235 -278h-196l-127 155l-136 -155h-196z" />
<glyph unicode="&#xeb;" horiz-adv-x="1181" d="M66 516q0 150 70.5 276.5t192 199.5t265.5 73q106 0 202.5 -43t166.5 -115t111.5 -171t41.5 -208q0 -42 -6 -98h-850q31 -127 123 -203.5t215 -76.5q189 0 291 174h194q-60 -161 -193 -256t-300 -95q-141 0 -262 73.5t-191.5 198.5t-70.5 271zM258 578h668 q-8 128 -106 219.5t-228 91.5q-70 0 -137.5 -30t-114.5 -83q-37 -40 -54 -82t-28 -116zM367 1194v227h186v-227h-186zM684 1194v227h186v-227h-186z" />
<glyph unicode="&#xec;" horiz-adv-x="438" d="M-55 1370l92 119l293 -234l-86 -112zM123 0v1030h192v-1030h-192z" />
<glyph unicode="&#xed;" horiz-adv-x="438" d="M123 0v1030h192v-1030h-192zM127 1260l295 233l92 -123l-299 -223z" />
<glyph unicode="&#xee;" horiz-adv-x="438" d="M-68 1174l207 278h185l211 -278h-193l-106 155l-113 -155h-191zM123 0v1030h192v-1030h-192z" />
<glyph unicode="&#xef;" horiz-adv-x="438" d="M6 1194v227h176v-227h-176zM123 0v1030h192v-1030h-192zM270 1194v227h176v-227h-176z" />
<glyph unicode="&#xf0;" horiz-adv-x="1241" d="M66 520q0 141 71 262.5t192.5 193t262.5 71.5q144 0 252 -78q-18 53 -52.5 116.5t-66.5 104.5l-137 -64l-62 93l136 63q-53 68 -78 94l116 68q6 -4 12 -9t9.5 -8t5.5 -4q6 -12 43 -49l29 -28l147 65l60 -90l-140 -66q131 -162 220.5 -373t89.5 -360q0 -112 -44 -214 t-118 -176t-177 -117.5t-216 -43.5q-220 0 -373 144q-85 78 -133.5 186.5t-48.5 218.5zM258 516q0 -152 107 -260.5t256 -108.5q148 0 255 108t107 257q0 155 -105 263t-257 108q-151 0 -257 -107.5t-106 -259.5z" />
<glyph unicode="&#xf1;" horiz-adv-x="1150" d="M123 0v1030h178v-108q104 137 305 137q192 0 310 -118t118 -310v-631h-192v561q0 149 -43 217q-29 48 -87.5 76.5t-127.5 28.5q-125 0 -196 -85.5t-71 -236.5v-561h-194zM281 1303q3 4 8 9l7.5 7.5t2.5 3.5l29 31q25 28 62.5 46.5t68.5 18.5q49 0 137 -39q69 -30 117 -30 q28 0 63 21t66 56l73 -112q-38 -54 -89.5 -84.5t-104.5 -30.5q-63 0 -162 47q-55 23 -76 23q-29 0 -49.5 -12t-58.5 -50q-13 -13 -17 -16z" />
<glyph unicode="&#xf2;" horiz-adv-x="1241" d="M66 520q0 109 44 208t118 171t176 115t214 43q153 0 281.5 -72t202.5 -197t74 -274q0 -106 -48.5 -213t-130.5 -182q-155 -146 -376 -146q-150 0 -278 73.5t-202.5 199.5t-74.5 274zM258 516q0 -151 107 -258.5t256 -107.5q148 0 255 107t107 255q0 155 -105 262 t-257 107q-151 0 -257 -107t-106 -258zM315 1370l95 123l321 -233l-86 -113z" />
<glyph unicode="&#xf3;" horiz-adv-x="1241" d="M66 520q0 109 44 208t118 171t176 115t214 43q153 0 281.5 -72t202.5 -197t74 -274q0 -106 -48.5 -213t-130.5 -182q-155 -146 -376 -146q-150 0 -278 73.5t-202.5 199.5t-74.5 274zM258 516q0 -151 107 -258.5t256 -107.5q148 0 255 107t107 255q0 155 -105 262 t-257 107q-151 0 -257 -107t-106 -258zM528 1260l322 233l94 -123l-328 -223z" />
<glyph unicode="&#xf4;" horiz-adv-x="1241" d="M66 520q0 109 44 208t118 171t176 115t214 43q153 0 281.5 -72t202.5 -197t74 -274q0 -106 -48.5 -213t-130.5 -182q-155 -146 -376 -146q-150 0 -278 73.5t-202.5 199.5t-74.5 274zM258 516q0 -151 107 -258.5t256 -107.5q148 0 255 107t107 255q0 155 -105 262 t-257 107q-151 0 -257 -107t-106 -258zM305 1174l234 278h186l236 -278h-197l-127 155l-135 -155h-197z" />
<glyph unicode="&#xf5;" horiz-adv-x="1241" d="M66 520q0 109 44 208t118 171t176 115t214 43q153 0 281.5 -72t202.5 -197t74 -274q0 -106 -48.5 -213t-130.5 -182q-155 -146 -376 -146q-150 0 -278 73.5t-202.5 199.5t-74.5 274zM258 516q0 -151 107 -258.5t256 -107.5q148 0 255 107t107 255q0 155 -105 262 t-257 107q-151 0 -257 -107t-106 -258zM350 1303q3 4 8 9t8 7.5t3 3.5l28 31q25 28 62.5 46.5t68.5 18.5q50 0 138 -39q69 -30 116 -30q28 0 63 21t66 56l74 -112q-38 -54 -89.5 -84.5t-104.5 -30.5q-63 0 -162 47q-55 23 -76 23q-29 0 -50.5 -12.5t-58.5 -49.5l-16 -16z " />
<glyph unicode="&#xf6;" horiz-adv-x="1241" d="M66 520q0 109 44 208t118 171t176 115t214 43q153 0 281.5 -72t202.5 -197t74 -274q0 -106 -48.5 -213t-130.5 -182q-155 -146 -376 -146q-150 0 -278 73.5t-202.5 199.5t-74.5 274zM258 516q0 -151 107 -258.5t256 -107.5q148 0 255 107t107 255q0 155 -105 262 t-257 107q-151 0 -257 -107t-106 -258zM375 1194v227h186v-227h-186zM692 1194v227h187v-227h-187z" />
<glyph unicode="&#xf7;" d="M82 610v152h864v-152h-864zM426 295v199h178v-199h-178zM426 879v198h178v-198h-178z" />
<glyph unicode="&#xf8;" horiz-adv-x="1241" d="M66 520q0 109 44 208t118 171t176 115t214 43q116 0 244 -51l92 139l113 -74l-92 -139q95 -73 148 -181.5t53 -230.5q0 -148 -74.5 -274t-202 -199.5t-276.5 -73.5q-137 0 -242 54l-90 -142l-115 72l88 141q-198 180 -198 422zM258 516q0 -150 111 -264l389 600 q-39 18 -65 23.5t-70 5.5q-152 0 -258.5 -106.5t-106.5 -258.5zM483 182q35 -20 60.5 -26t72.5 -6q152 0 259.5 106.5t107.5 257.5q0 79 -29 147.5t-82 114.5z" />
<glyph unicode="&#xf9;" horiz-adv-x="1150" d="M117 399v631h192v-561q0 -149 43 -217q29 -48 87.5 -76.5t127.5 -28.5q125 0 196 85.5t71 236.5v561h192v-1030h-178v109q-46 -65 -125.5 -101.5t-177.5 -36.5q-192 0 -310 118t-118 310zM279 1370l94 123l321 -233l-86 -113z" />
<glyph unicode="&#xfa;" horiz-adv-x="1150" d="M117 399v631h192v-561q0 -149 43 -217q29 -48 87.5 -76.5t127.5 -28.5q125 0 196 85.5t71 236.5v561h192v-1030h-178v109q-46 -65 -125.5 -101.5t-177.5 -36.5q-192 0 -310 118t-118 310zM504 1260l321 233l95 -123l-328 -223z" />
<glyph unicode="&#xfb;" horiz-adv-x="1150" d="M117 399v631h192v-561q0 -149 43 -217q29 -48 87.5 -76.5t127.5 -28.5q125 0 196 85.5t71 236.5v561h192v-1030h-178v109q-46 -65 -125.5 -101.5t-177.5 -36.5q-192 0 -310 118t-118 310zM260 1174l234 278h186l235 -278h-196l-127 155l-135 -155h-197z" />
<glyph unicode="&#xfc;" horiz-adv-x="1150" d="M117 399v631h192v-561q0 -149 43 -217q29 -48 87.5 -76.5t127.5 -28.5q125 0 196 85.5t71 236.5v561h192v-1030h-178v109q-46 -65 -125.5 -101.5t-177.5 -36.5q-192 0 -310 118t-118 310zM334 1194v227h186v-227h-186zM651 1194v227h187v-227h-187z" />
<glyph unicode="&#xfd;" horiz-adv-x="1019" d="M-4 1030h209l301 -801l311 801h207l-569 -1374h-199l150 364zM446 1260l322 233l94 -123l-327 -223z" />
<glyph unicode="&#xfe;" horiz-adv-x="1267" d="M123 -344v1716h192v-500q122 185 355 185q148 0 270 -73t191 -201t69 -283q0 -146 -68.5 -267.5t-188 -191.5t-263.5 -70q-117 0 -216 48t-149 128v-491h-192zM311 516q0 -155 101 -262t247 -107q144 0 246.5 105.5t102.5 253.5q0 156 -103 265.5t-250 109.5 q-142 0 -243 -107t-101 -258z" />
<glyph unicode="&#xff;" horiz-adv-x="1019" d="M-4 1030h209l301 -801l311 801h207l-569 -1374h-199l150 364zM279 1194v227h186v-227h-186zM596 1194v227h186v-227h-186z" />
<glyph unicode="&#x152;" horiz-adv-x="2029" d="M70 678q0 144 61 290t160 242q94 89 227 140t273 51q158 0 291.5 -62t205.5 -168v201h656v-184h-457v-404h457v-184h-457v-416h457v-184h-656v197q-77 -107 -208 -166.5t-294 -59.5q-144 0 -277 51.5t-228 143.5q-97 94 -154 232.5t-57 279.5zM270 676q0 -223 146 -371.5 t364 -148.5q220 0 364 147t144 373q0 236 -144 388.5t-368 152.5q-140 0 -256.5 -71t-183 -195.5t-66.5 -274.5z" />
<glyph unicode="&#x153;" horiz-adv-x="2113" d="M66 516q0 152 71 276.5t196.5 195.5t278.5 71q309 0 465 -246q89 127 194.5 185.5t244.5 58.5q148 0 270 -71.5t192 -196.5t70 -277q0 -20 -4 -82h-868q22 -123 118 -201.5t222 -78.5q101 0 181 46.5t126 131.5h194q-31 -80 -67 -132.5t-92 -99.5q-71 -59 -160.5 -91 t-181.5 -32q-134 0 -249 65t-190 183q-67 -117 -186 -182.5t-264 -65.5q-241 0 -401 155.5t-160 387.5zM258 516q0 -157 101 -261.5t253 -104.5q157 0 262 103t105 257q0 163 -103.5 268t-261.5 105q-154 0 -255 -104.5t-101 -262.5zM1174 578h681q-6 70 -22 110t-53 82 q-102 111 -264 111q-176 0 -277 -123q-31 -38 -44 -75t-21 -105z" />
<glyph unicode="&#x178;" horiz-adv-x="1050" d="M0 1372h225l301 -645l301 645h224l-424 -878v-494h-201v494zM276 1530v227h193v-227h-193zM606 1530v227h193v-227h-193z" />
<glyph unicode="&#x2c6;" d="M186 1174l234 278h186l236 -278h-197l-127 155l-135 -155h-197z" />
<glyph unicode="&#x2dc;" d="M197 1303q3 4 8 9l7.5 7.5t2.5 3.5l29 31q25 28 62.5 46.5t68.5 18.5q49 0 137 -39q69 -30 117 -30q28 0 63 21t66 56l73 -112q-38 -54 -89.5 -84.5t-104.5 -30.5q-63 0 -162 47q-55 23 -76 23q-29 0 -49.5 -12t-58.5 -50q-13 -13 -17 -16z" />
<glyph unicode="&#x2000;" horiz-adv-x="930" />
<glyph unicode="&#x2001;" horiz-adv-x="1860" />
<glyph unicode="&#x2002;" horiz-adv-x="930" />
<glyph unicode="&#x2003;" horiz-adv-x="1860" />
<glyph unicode="&#x2004;" horiz-adv-x="620" />
<glyph unicode="&#x2005;" horiz-adv-x="465" />
<glyph unicode="&#x2006;" horiz-adv-x="310" />
<glyph unicode="&#x2007;" horiz-adv-x="310" />
<glyph unicode="&#x2008;" horiz-adv-x="232" />
<glyph unicode="&#x2009;" horiz-adv-x="372" />
<glyph unicode="&#x200a;" horiz-adv-x="103" />
<glyph unicode="&#x2010;" horiz-adv-x="518" d="M0 432v193h518v-193h-518z" />
<glyph unicode="&#x2011;" horiz-adv-x="518" d="M0 432v193h518v-193h-518z" />
<glyph unicode="&#x2012;" horiz-adv-x="518" d="M0 432v193h518v-193h-518z" />
<glyph unicode="&#x2013;" d="M90 432v193h852v-193h-852z" />
<glyph unicode="&#x2014;" horiz-adv-x="1554" d="M0 432v193h1554v-193h-1554z" />
<glyph unicode="&#x2018;" horiz-adv-x="438" d="M123 909v207q0 113 46 174.5t146 81.5v-115q-69 -25 -69 -104q0 -8 2 -16h67v-228h-192z" />
<glyph unicode="&#x2019;" horiz-adv-x="438" d="M123 909v115q37 14 53.5 38.5t16.5 65.5q0 5 -3 17h-67v227h192v-207q0 -112 -46.5 -174t-145.5 -82z" />
<glyph unicode="&#x201a;" horiz-adv-x="438" d="M123 0v227h192v-207q0 -112 -46.5 -174t-145.5 -82v115q70 26 70 105q0 4 -3 16h-67z" />
<glyph unicode="&#x201c;" horiz-adv-x="727" d="M123 909v207q0 113 46 174.5t146 81.5v-115q-69 -25 -69 -104q0 -8 2 -16h67v-228h-192zM412 909v207q0 113 46 174.5t146 81.5v-115q-69 -25 -69 -104q0 -8 2 -16h67v-228h-192z" />
<glyph unicode="&#x201d;" horiz-adv-x="727" d="M123 909v115q37 14 53.5 38.5t16.5 65.5q0 5 -3 17h-67v227h192v-207q0 -112 -46.5 -174t-145.5 -82zM412 909v115q69 25 69 104q0 9 -2 17h-67v227h192v-207q0 -112 -46.5 -174t-145.5 -82z" />
<glyph unicode="&#x201e;" horiz-adv-x="727" d="M123 0v227h192v-207q0 -112 -46.5 -174t-145.5 -82v115q70 26 70 105q0 4 -3 16h-67zM412 0v227h192v-207q0 -112 -46.5 -174t-145.5 -82v115q69 25 69 105q0 8 -2 16h-67z" />
<glyph unicode="&#x2022;" horiz-adv-x="1372" d="M403 696q0 120 84.5 203.5t206.5 83.5q114 0 197.5 -85t83.5 -202t-84 -200.5t-201 -83.5q-118 0 -202.5 83.5t-84.5 200.5z" />
<glyph unicode="&#x2026;" horiz-adv-x="1316" d="M123 0v227h192v-227h-192zM561 0v227h193v-227h-193zM1001 0v227h193v-227h-193z" />
<glyph unicode="&#x202f;" horiz-adv-x="372" />
<glyph unicode="&#x2039;" horiz-adv-x="432" d="M82 430v193l252 251v-210l-137 -136l137 -139v-207z" />
<glyph unicode="&#x203a;" horiz-adv-x="432" d="M96 182v211l137 135l-137 140v206l252 -247v-193z" />
<glyph unicode="&#x205f;" horiz-adv-x="465" />
<glyph unicode="&#x20ac;" horiz-adv-x="1482" d="M72 483l67 158h109q-2 23 -2 51q0 23 2 39h-176l67 158h135q66 229 254 370.5t424 141.5q127 0 247 -43t214 -123l-84 -199q-153 181 -373 181q-157 0 -284.5 -89.5t-186.5 -238.5h783l-68 -158h-751q-3 -24 -3 -43q0 -27 5 -47h712l-69 -158h-605q64 -151 189 -238 t276 -87q221 0 375 180v-260q-76 -48 -178 -76.5t-199 -28.5q-230 0 -420 143.5t-253 366.5h-207z" />
<glyph unicode="&#x2122;" horiz-adv-x="1603" d="M41 1255v117h457v-117h-160v-665h-135v665h-162zM578 590v782h202l248 -577l250 577h203v-782h-135v622l-275 -622h-84l-274 622v-622h-135z" />
</font>
</defs>
</svg>
