<?xml version="1.0" standalone="no"?>
<!DOCTYPE svg PUBLIC "-//W3C//DTD SVG 1.1//EN" "http://www.w3.org/Graphics/SVG/1.1/DTD/svg11.dtd" >
<svg xmlns="http://www.w3.org/2000/svg">
<metadata>
This is a custom SVG webfont generated by Font Squirrel.
Copyright   : c Copyright 2011 BaseLab All rights reserved
Designer    : BaseLab
Foundry     : BaseLab
Foundry URL : httpbaselabnet
</metadata>
<defs>
<font id="adiNeueBold" horiz-adv-x="389" >
<font-face units-per-em="2048" ascent="1556" descent="-492" />
<missing-glyph horiz-adv-x="409" />
<glyph unicode=" "  horiz-adv-x="409" />
<glyph unicode="&#x09;" horiz-adv-x="409" />
<glyph unicode="&#xa0;" horiz-adv-x="409" />
<glyph unicode="!" horiz-adv-x="438" d="M90 0v258h258v-258h-258zM90 354v1047h258v-1047h-258z" />
<glyph unicode="&#x22;" horiz-adv-x="712" d="M66 850v551h258l-37 -551h-221zM401 850v551h258l-36 -551h-222z" />
<glyph unicode="#" horiz-adv-x="1228" d="M66 272v230h196l19 209h-215v229h233l25 272h233l-25 -272h218l24 272h234l-25 -272h180v-229h-198l-19 -209h217v-230h-235l-23 -272h-233l22 272h-217l-22 -272h-234l23 272h-178zM496 502h217l18 209h-217z" />
<glyph unicode="$" horiz-adv-x="987" d="M29 424h272q0 -47 32 -89t93 -61v213q-373 49 -373 318q0 141 98.5 232t274.5 106v149h139v-151q164 -18 259.5 -107.5t105.5 -230.5h-262q-12 104 -103 127v-191q94 -14 155.5 -32.5t125 -54.5t94.5 -95t31 -145q0 -160 -110.5 -246t-295.5 -98v-150h-139v150 q-186 16 -288.5 109t-108.5 247zM330 852q0 -57 96 -86v166q-96 -19 -96 -80zM565 268q55 12 86 42t31 67q0 68 -117 92v-201z" />
<glyph unicode="%" horiz-adv-x="1609" d="M66 911v207q0 123 85 208t211.5 85t211.5 -85t85 -208v-207q0 -121 -85 -207t-211.5 -86t-211.5 86t-85 207zM256 911q0 -43 30.5 -75.5t76 -32.5t76 32.5t30.5 75.5v207q0 47 -30.5 78t-76 31t-76 -31t-30.5 -78v-207zM399 0l574 1401h246l-574 -1401h-246zM950 270v207 q0 123 85 208t212 85t212 -85t85 -208v-207q0 -121 -85 -207t-212 -86t-212 86t-85 207zM1141 270q0 -43 30.5 -75.5t75.5 -32.5t76 32.5t31 75.5v207q0 47 -31 78t-76 31t-75.5 -31t-30.5 -78v-207z" />
<glyph unicode="&#x26;" horiz-adv-x="1175" d="M25 338q0 211 206 326q-90 135 -90 251q0 133 93.5 226.5t234.5 93.5q150 0 241 -89t91 -231q0 -180 -199 -303q90 -84 172 -149l146 186l182 -143l-139 -184q90 -63 204 -138l-129 -209q-156 102 -229 156q-84 -84 -169 -119t-202 -35q-188 0 -300.5 101.5t-112.5 259.5 zM270 356q0 -61 44 -105t122 -44q92 0 176 74q-139 109 -243 219q-99 -60 -99 -144zM377 915q0 -53 74 -143q115 63 114 143q0 39 -24.5 65t-71.5 26q-43 0 -67.5 -26t-24.5 -65z" />
<glyph unicode="'" horiz-adv-x="376" d="M66 850v551h258l-37 -551h-221z" />
<glyph unicode="(" horiz-adv-x="610" d="M49 655q0 471 328 809l182 -161q-264 -270 -264 -648q0 -383 266 -655l-182 -160q-330 342 -330 815z" />
<glyph unicode=")" horiz-adv-x="610" d="M49 0q266 272 266 655q0 377 -264 648l182 161q328 -338 328 -809q0 -473 -330 -815z" />
<glyph unicode="*" horiz-adv-x="671" d="M25 999l151 88l-151 89l77 139l152 -88v174h164v-174l151 88l78 -139l-153 -89l153 -88l-78 -139l-151 88v-176h-164v176l-152 -88z" />
<glyph unicode="+" horiz-adv-x="868" d="M25 479v254h280v295h258v-295h281v-254h-281v-295h-258v295h-280z" />
<glyph unicode="," d="M66 0v270h258v-258l-43 -139h-152l18 127h-81z" />
<glyph unicode="-" horiz-adv-x="729" d="M66 401v242h598v-242h-598z" />
<glyph unicode="." d="M66 0v270h258v-270h-258z" />
<glyph unicode="/" horiz-adv-x="667" d="M16 0l369 1401h266l-368 -1401h-267z" />
<glyph unicode="0" horiz-adv-x="1019" d="M37 442v328q0 195 135 330t338 135t338 -135t135 -330v-328q0 -195 -135 -330t-338 -135t-338 135t-135 330zM283 442q0 -94 66.5 -160.5t160.5 -66.5t160.5 66.5t66.5 160.5v328q0 94 -66.5 160.5t-160.5 66.5t-160.5 -66.5t-66.5 -160.5v-328z" />
<glyph unicode="1" horiz-adv-x="503" d="M29 973v239h409v-1212h-258v973h-151z" />
<glyph unicode="2" horiz-adv-x="866" d="M25 940q47 139 157.5 217t239.5 78q174 0 295 -120t121 -290q0 -104 -38 -180t-130 -156l-297 -251h465v-238h-801v238l483 436q82 74 82 151q0 72 -52 123t-128 51q-59 0 -107.5 -35.5t-62.5 -89.5z" />
<glyph unicode="3" horiz-adv-x="913" d="M8 231l217 121q23 -61 77 -99t120 -38q88 0 150.5 62.5t62.5 150.5t-61.5 148.5t-151.5 60.5q-72 0 -131 -39l-111 197l254 180h-348v237h727v-237l-195 -139q119 -55 191 -165t72 -243q0 -186 -134.5 -318.5t-324.5 -132.5q-137 0 -248 69.5t-166 184.5z" />
<glyph unicode="4" horiz-adv-x="950" d="M16 172v238l539 802h258v-802h117v-238h-117v-172h-258v172h-539zM307 410h248v368z" />
<glyph unicode="5" horiz-adv-x="937" d="M33 229l217 123q23 -61 77 -99t119 -38q88 0 150.5 62.5t62.5 150.5t-61 148.5t-152 60.5q-125 0 -186 -109l-201 115l68 569h670v-237h-461l-12 -117q61 16 122 16q193 0 326 -130t133 -316t-134 -318.5t-325 -132.5q-137 0 -247.5 68.5t-165.5 183.5z" />
<glyph unicode="6" horiz-adv-x="983" d="M33 426q0 106 61 225l293 561h277l-179 -338q203 0 334 -130t131 -314q0 -188 -133 -320.5t-325.5 -132.5t-325.5 130.5t-133 318.5zM281 428q0 -88 61 -150.5t149.5 -62.5t151 62.5t62.5 150.5t-61.5 148.5t-151.5 60.5q-88 0 -149.5 -60.5t-61.5 -148.5z" />
<glyph unicode="7" horiz-adv-x="843" d="M12 975v237h815v-237l-454 -975h-275l455 975h-541z" />
<glyph unicode="8" horiz-adv-x="892" d="M33 391q0 188 143 309q-66 88 -65 203q0 139 97 235.5t236 96.5q141 0 239.5 -96.5t98.5 -235.5q0 -115 -67 -201q145 -123 145 -311q0 -172 -121 -293t-295 -121q-170 0 -290.5 121t-120.5 293zM268 391q0 -74 52.5 -126t123.5 -52q76 0 128.5 52t52.5 126t-52.5 124 t-128.5 50q-74 0 -125 -50t-51 -124zM346 903q0 -41 30 -71.5t68 -30.5q41 0 72 30.5t31 71.5t-31 72t-72 31q-39 0 -68.5 -31t-29.5 -72z" />
<glyph unicode="9" horiz-adv-x="983" d="M33 782q0 188 133 320.5t325.5 132.5t325.5 -130t133 -319q0 -106 -61 -225l-293 -561h-277l179 338q-203 0 -334 130t-131 314zM279 784q0 -88 61 -148.5t152 -60.5q88 0 149 60.5t61 148.5t-61 150.5t-149.5 62.5t-150.5 -62.5t-62 -150.5z" />
<glyph unicode=":" d="M66 141v271h258v-271h-258zM66 633v270h258v-270h-258z" />
<glyph unicode=";" d="M66 143v271h258v-258l-43 -140h-152l18 127h-81zM66 633v270h258v-270h-258z" />
<glyph unicode="&#x3c;" horiz-adv-x="868" d="M25 500v217l819 330v-275l-449 -166l449 -162v-276z" />
<glyph unicode="=" horiz-adv-x="868" d="M25 295v254h819v-254h-819zM25 664v254h819v-254h-819z" />
<glyph unicode="&#x3e;" horiz-adv-x="868" d="M25 168v276l448 162l-448 166v275l819 -330v-217z" />
<glyph unicode="?" horiz-adv-x="909" d="M8 1169q57 115 168 184.5t246 69.5q193 0 326 -130t133 -316q0 -158 -97.5 -278.5t-248.5 -157.5v-187h-259v396q150 8 199 20q70 18 115 75.5t45 131.5q0 88 -61.5 148.5t-151.5 60.5q-68 0 -122 -38t-77 -97zM276 0v258h259v-258h-259z" />
<glyph unicode="@" horiz-adv-x="1708" d="M49 524q0 334 237.5 563.5t604.5 229.5q356 0 562 -224.5t206 -555.5q0 -197 -80 -323t-250 -126q-172 0 -229 123q-84 -123 -283 -123q-186 0 -314 127t-128 309q0 180 129 306t313 126q147 0 236 -75v67h213v-555q0 -111 106 -110q70 0 103.5 56t33.5 183 q0 285 -159.5 470.5t-458.5 185.5q-305 0 -497.5 -188.5t-192.5 -463.5q0 -276 191.5 -467.5t469.5 -191.5q254 0 432 141l76 -121q-211 -160 -502 -159q-346 0 -582.5 232t-236.5 564zM582 522q0 -92 69.5 -161.5t163.5 -69.5t166 69.5t72 161.5q0 94 -72 164t-166 70 t-163.5 -70t-69.5 -164z" />
<glyph unicode="A" horiz-adv-x="1202" d="M16 518q0 225 160 382t389 157q170 0 303 -94v84h256v-1047h-256v70q-135 -92 -303 -93q-227 0 -388 159t-161 382zM262 518q0 -121 90 -211t213 -90t213 90t90 211t-90 211t-213 90t-213 -90t-90 -211z" />
<glyph unicode="B" horiz-adv-x="1202" d="M66 0v1401h256v-438q133 94 303 94q229 0 389 -157t160 -382q0 -223 -161 -382t-388 -159q-168 0 -303 93v-70h-256zM322 518q0 -121 89 -211t214 -90t214 90t89 211t-89 211t-214 90t-214 -90t-89 -211z" />
<glyph unicode="C" horiz-adv-x="1056" d="M20 518q0 225 160 382t389 157q307 0 467 -252l-217 -121q-96 135 -250 135q-123 0 -213 -90t-90 -211t90 -211t213 -90q158 0 250 133l215 -119q-162 -254 -465 -254q-227 0 -388 159t-161 382z" />
<glyph unicode="D" horiz-adv-x="1202" d="M20 518q0 225 160 382t389 157q170 0 303 -94v438h256v-1401h-256v70q-135 -92 -303 -93q-227 0 -388 159t-161 382zM266 518q0 -121 90 -211t213 -90t213 90t90 211t-90 211t-213 90t-213 -90t-90 -211z" />
<glyph unicode="E" horiz-adv-x="1155" d="M20 518q0 225 160 382t389 157q242 0 395.5 -162t153.5 -393q0 -25 -4 -70h-831q33 -102 111.5 -158.5t195.5 -56.5q96 0 160.5 32t115.5 101l215 -119q-168 -254 -491 -254q-246 0 -408 154t-162 387zM289 635h557q-78 184 -277 184q-92 0 -167.5 -51t-112.5 -133z" />
<glyph unicode="F" horiz-adv-x="702" d="M37 694v238h104v45q0 246 132 346q120 91 367 91q25 0 52 -1l-18 -250q-176 0 -225.5 -38t-49.5 -148v-45h236v-238h-236v-694h-258v694h-104z" />
<glyph unicode="G" horiz-adv-x="1202" d="M20 518q0 225 160 382t389 157q170 0 303 -94v84h256v-920q0 -238 -142 -372t-417 -134q-242 0 -438 105l92 221q180 -88 346 -88q117 0 210 62.5t93 164.5q-133 -106 -303 -106q-229 0 -389 155.5t-160 382.5zM266 518q0 -121 90 -211t213 -90t213 90t90 211t-90 211 t-213 90t-213 -90t-90 -211z" />
<glyph unicode="H" horiz-adv-x="1095" d="M66 0v1401h256v-438q111 94 282 94q430 0 430 -508v-549h-256v483q0 180 -45 258t-182 78q-106 0 -167.5 -63.5t-61.5 -175.5v-580h-256z" />
<glyph unicode="I" d="M66 0v1047h258v-1047h-258zM66 1143v258h258v-258h-258z" />
<glyph unicode="J" d="M-125 -354l19 248q94 14 133 52t39 134v967h258v-967q0 -236 -116 -335t-333 -99zM66 1143v258h258v-258h-258z" />
<glyph unicode="K" horiz-adv-x="997" d="M66 0v1401h258v-680l327 326h310l-390 -400l428 -647h-307l-309 453l-59 -62v-391h-258z" />
<glyph unicode="L" d="M66 0v1401h258v-1401h-258z" />
<glyph unicode="M" horiz-adv-x="1726" d="M66 0v1047h256v-84q104 94 262 94q221 0 323 -148q133 147 348 148q410 0 410 -508v-549h-256v483q0 180 -41 258t-166 78q-98 0 -153.5 -63.5t-55.5 -175.5v-580h-256v483q0 180 -41 258t-166 78q-98 0 -153 -63.5t-55 -175.5v-580h-256z" />
<glyph unicode="N" horiz-adv-x="1095" d="M66 0v1047h256v-84q111 94 282 94q430 0 430 -508v-549h-256v483q0 180 -45 258t-182 78q-106 0 -167.5 -63.5t-61.5 -175.5v-580h-256z" />
<glyph unicode="O" horiz-adv-x="1155" d="M20 518q0 225 160 382t389.5 157t389 -157t159.5 -382q0 -223 -160.5 -382t-388 -159t-388.5 159t-161 382zM266 518q0 -121 90 -211t213 -90t213 90t90 211t-90 211t-213 90t-213 -90t-90 -211z" />
<glyph unicode="P" horiz-adv-x="1202" d="M66 -354v1401h256v-84q133 94 303 94q229 0 389 -157t160 -382q0 -223 -161 -382t-388 -159q-168 0 -303 93v-424h-256zM322 518q0 -121 89 -211t214 -90t214 90t89 211t-89 211t-214 90t-214 -90t-89 -211z" />
<glyph unicode="Q" horiz-adv-x="1202" d="M20 518q0 225 160 382t389 157q170 0 303 -94v84h256v-1401h-256v424q-135 -92 -303 -93q-227 0 -388 159t-161 382zM266 518q0 -121 90 -211t213 -90t213 90t90 211t-90 211t-213 90t-213 -90t-90 -211z" />
<glyph unicode="R" horiz-adv-x="657" d="M66 0v1047h258v-101q109 109 309 111l-17 -273q-170 0 -231 -59t-61 -193v-532h-258z" />
<glyph unicode="S" horiz-adv-x="987" d="M25 336h272q6 -68 57.5 -112t151.5 -44q78 0 124 32t46 77q0 29 -16.5 48t-52.5 30.5t-64.5 16.5t-77.5 11q-57 6 -94 12.5t-104.5 29t-109.5 53t-75 90t-33 137.5q0 154 115 247t317 93q199 0 315.5 -92.5t129.5 -249.5h-262q-4 39 -14.5 65.5t-51.5 50t-111 23.5 q-74 0 -116.5 -24.5t-42.5 -65.5q0 -14 4 -25.5t14 -20.5t20.5 -16.5t29 -13.5t31.5 -10t35.5 -9t36 -7.5t38.5 -6.5l36 -6q90 -14 151.5 -33.5t122 -54.5t90.5 -94t30 -143q0 -172 -127 -259.5t-338 -87.5q-221 0 -345 94.5t-132 264.5z" />
<glyph unicode="T" horiz-adv-x="698" d="M12 809v238h125v274h258v-274h236v-238h-236v-379q0 -109 48.5 -146.5t218.5 -39.5l16 -250h-55q-238 0 -362 94t-124 342v379h-125z" />
<glyph unicode="U" horiz-adv-x="1087" d="M61 498v549h256v-484q0 -180 45.5 -258t182.5 -78q106 0 167.5 63.5t61.5 176.5v580h256v-1047h-256v84q-111 -94 -282 -94q-431 0 -431 508z" />
<glyph unicode="V" horiz-adv-x="1021" d="M12 1047h269l231 -730l236 730h262l-338 -1047h-322z" />
<glyph unicode="W" horiz-adv-x="1552" d="M12 1047h258l189 -678l190 678h264l189 -678l190 678h248l-297 -1047h-297l-172 623l-172 -623h-293z" />
<glyph unicode="X" horiz-adv-x="1044" d="M4 0l363 557l-318 490h307l166 -261l166 261h307l-317 -490l362 -557h-307l-211 326l-211 -326h-307z" />
<glyph unicode="Y" horiz-adv-x="1005" d="M12 1047h271l221 -717l225 717h264l-313 -979q-82 -256 -160 -351.5t-219 -95.5q-117 0 -190 29l36 239q49 -10 95 -10q106 0 106 92q0 39 -47 189z" />
<glyph unicode="Z" horiz-adv-x="974" d="M29 0v227l555 590h-529v230h867v-230l-555 -590h591v-227h-929z" />
<glyph unicode="[" horiz-adv-x="595" d="M66 -354v1755h493v-238h-235v-1280h235v-237h-493z" />
<glyph unicode="\" horiz-adv-x="667" d="M16 1401h267l368 -1401h-266z" />
<glyph unicode="]" horiz-adv-x="595" d="M37 -117h235v1280h-235v238h493v-1755h-493v237z" />
<glyph unicode="^" horiz-adv-x="868" d="M25 969l409 338l410 -338l-131 -217l-279 243l-278 -243z" />
<glyph unicode="_" horiz-adv-x="688" d="M-16 0h721v-242h-721v242z" />
<glyph unicode="`" horiz-adv-x="819" d="M147 1133l58 229l434 -139l-51 -203z" />
<glyph unicode="a" horiz-adv-x="1202" d="M29 518q0 225 159.5 382t389.5 157q170 0 303 -94v84h256v-1047h-256v70q-135 -92 -303 -93q-227 0 -388 159t-161 382zM274 518q0 -121 90.5 -211t213 -90t213 90t90.5 211t-90.5 211t-213 90t-213 -90t-90.5 -211z" />
<glyph unicode="b" horiz-adv-x="1202" d="M66 0v1401h256v-438q133 94 303 94q229 0 389 -157t160 -382q0 -223 -161 -382t-388 -159q-168 0 -303 93v-70h-256zM322 518q0 -121 89 -211t214 -90t214 90t89 211t-89 211t-214 90t-214 -90t-89 -211z" />
<glyph unicode="c" horiz-adv-x="1060" d="M29 518q0 225 159.5 382t389.5 157q307 0 466 -252l-217 -121q-96 135 -249 135q-123 0 -213.5 -90t-90.5 -211t90.5 -211t213.5 -90q158 0 249 133l215 -119q-162 -254 -464 -254q-227 0 -388 159t-161 382z" />
<glyph unicode="d" horiz-adv-x="1202" d="M29 518q0 225 159.5 382t389.5 157q170 0 303 -94v438h256v-1401h-256v70q-135 -92 -303 -93q-227 0 -388 159t-161 382zM274 518q0 -121 90.5 -211t213 -90t213 90t90.5 211t-90.5 211t-213 90t-213 -90t-90.5 -211z" />
<glyph unicode="e" horiz-adv-x="1159" d="M29 518q0 225 159.5 382t389.5 157q242 0 395 -162t153 -393q0 -25 -4 -70h-831q33 -102 111.5 -158.5t195.5 -56.5q96 0 160.5 32t115.5 101l216 -119q-168 -254 -492 -254q-246 0 -407.5 154t-161.5 387zM297 635h557q-78 184 -276 184q-92 0 -168 -51t-113 -133z" />
<glyph unicode="f" horiz-adv-x="702" d="M37 694v238h104v45q0 246 132 346q120 91 367 91q25 0 52 -1l-18 -250q-176 0 -225.5 -38t-49.5 -148v-45h236v-238h-236v-694h-258v694h-104z" />
<glyph unicode="g" horiz-adv-x="1202" d="M29 518q0 225 159.5 382t389.5 157q170 0 303 -94v84h256v-920q0 -238 -142.5 -372t-416.5 -134q-242 0 -439 105l92 221q180 -88 347 -88q117 0 210 62.5t93 164.5q-133 -106 -303 -106q-229 0 -389 155.5t-160 382.5zM274 518q0 -121 90.5 -211t213 -90t213 90 t90.5 211t-90.5 211t-213 90t-213 -90t-90.5 -211z" />
<glyph unicode="h" horiz-adv-x="1095" d="M66 0v1401h256v-438q111 94 282 94q430 0 430 -508v-549h-256v483q0 180 -45 258t-182 78q-106 0 -167.5 -63.5t-61.5 -175.5v-580h-256z" />
<glyph unicode="i" d="M66 0v1047h258v-1047h-258zM66 1143v258h258v-258h-258z" />
<glyph unicode="j" d="M-125 -354l19 248q94 14 133 52t39 134v967h258v-967q0 -236 -116 -335t-333 -99zM66 1143v258h258v-258h-258z" />
<glyph unicode="k" horiz-adv-x="997" d="M66 0v1401h258v-680l327 326h310l-390 -400l428 -647h-307l-309 453l-59 -62v-391h-258z" />
<glyph unicode="l" d="M66 0v1401h258v-1401h-258z" />
<glyph unicode="m" horiz-adv-x="1726" d="M66 0v1047h256v-84q104 94 262 94q221 0 323 -148q133 147 348 148q410 0 410 -508v-549h-256v483q0 180 -41 258t-166 78q-98 0 -153.5 -63.5t-55.5 -175.5v-580h-256v483q0 180 -41 258t-166 78q-98 0 -153 -63.5t-55 -175.5v-580h-256z" />
<glyph unicode="n" horiz-adv-x="1095" d="M66 0v1047h256v-84q111 94 282 94q430 0 430 -508v-549h-256v483q0 180 -45 258t-182 78q-106 0 -167.5 -63.5t-61.5 -175.5v-580h-256z" />
<glyph unicode="o" horiz-adv-x="1155" d="M29 518q0 225 159.5 382t389 157t389 -157t159.5 -382q0 -223 -160.5 -382t-388 -159t-388 159t-160.5 382zM274 518q0 -121 90.5 -211t213 -90t213 90t90.5 211t-90.5 211t-213 90t-213 -90t-90.5 -211z" />
<glyph unicode="p" horiz-adv-x="1202" d="M66 -354v1401h256v-84q133 94 303 94q229 0 389 -157t160 -382q0 -223 -161 -382t-388 -159q-168 0 -303 93v-424h-256zM322 518q0 -121 89 -211t214 -90t214 90t89 211t-89 211t-214 90t-214 -90t-89 -211z" />
<glyph unicode="q" horiz-adv-x="1202" d="M29 518q0 225 159.5 382t389.5 157q170 0 303 -94v84h256v-1401h-256v424q-135 -92 -303 -93q-227 0 -388 159t-161 382zM274 518q0 -121 90.5 -211t213 -90t213 90t90.5 211t-90.5 211t-213 90t-213 -90t-90.5 -211z" />
<glyph unicode="r" horiz-adv-x="657" d="M66 0v1047h258v-101q109 109 309 111l-17 -273q-170 0 -231 -59t-61 -193v-532h-258z" />
<glyph unicode="s" horiz-adv-x="987" d="M25 336h272q6 -68 57.5 -112t151.5 -44q78 0 124 32t46 77q0 29 -16.5 48t-52.5 30.5t-64.5 16.5t-77.5 11q-57 6 -94 12.5t-104.5 29t-109.5 53t-75 90t-33 137.5q0 154 115 247t317 93q199 0 315.5 -92.5t129.5 -249.5h-262q-4 39 -14.5 65.5t-51.5 50t-111 23.5 q-74 0 -116.5 -24.5t-42.5 -65.5q0 -14 4 -25.5t14 -20.5t20.5 -16.5t29 -13.5t31.5 -10t35.5 -9t36 -7.5t38.5 -6.5l36 -6q90 -14 151.5 -33.5t122 -54.5t90.5 -94t30 -143q0 -172 -127 -259.5t-338 -87.5q-221 0 -345 94.5t-132 264.5z" />
<glyph unicode="t" horiz-adv-x="698" d="M12 809v238h125v274h258v-274h236v-238h-236v-379q0 -109 48.5 -146.5t218.5 -39.5l16 -250h-55q-238 0 -362 94t-124 342v379h-125z" />
<glyph unicode="u" horiz-adv-x="1095" d="M61 498v549h256v-484q0 -180 45.5 -258t182.5 -78q106 0 167.5 63.5t61.5 176.5v580h256v-1047h-256v84q-111 -94 -282 -94q-431 0 -431 508z" />
<glyph unicode="v" horiz-adv-x="1021" d="M12 1047h269l231 -730l236 730h262l-338 -1047h-322z" />
<glyph unicode="w" horiz-adv-x="1552" d="M12 1047h258l189 -678l190 678h264l189 -678l190 678h248l-297 -1047h-297l-172 623l-172 -623h-293z" />
<glyph unicode="x" horiz-adv-x="1044" d="M4 0l363 557l-318 490h307l166 -261l166 261h307l-317 -490l362 -557h-307l-211 326l-211 -326h-307z" />
<glyph unicode="y" horiz-adv-x="1005" d="M12 1047h271l221 -717l225 717h264l-313 -979q-82 -256 -160 -351.5t-219 -95.5q-117 0 -190 29l36 239q49 -10 95 -10q106 0 106 92q0 39 -47 189z" />
<glyph unicode="z" horiz-adv-x="974" d="M29 0v227l555 590h-529v230h867v-230l-555 -590h591v-227h-929z" />
<glyph unicode="{" horiz-adv-x="763" d="M49 403v244q115 12 147.5 52t32.5 135v143q0 135 34 223t107.5 134t164 62.5t225.5 16.5l-19 -250q-162 0 -208 -38t-46 -148v-143q0 -188 -145 -310q145 -121 145 -307v-143q0 -111 46.5 -149t207.5 -38l19 -249q-279 0 -405 90t-126 346v143q0 94 -32.5 134t-147.5 52z " />
<glyph unicode="|" d="M66 -293v1694h258v-1694h-258z" />
<glyph unicode="}" horiz-adv-x="763" d="M4 -362l19 249q162 0 207.5 38t45.5 149v143q0 186 146 307q-145 121 -146 310v143q0 111 -46 148.5t-207 37.5l-19 250q135 0 225 -16.5t164 -62.5t108 -134t34 -223v-143q0 -94 32.5 -134.5t147.5 -52.5v-244q-115 -12 -147.5 -52t-32.5 -134v-143q0 -256 -126 -346 t-405 -90z" />
<glyph unicode="~" horiz-adv-x="819" d="M68 1221q98 90 200 90q49 0 134 -34t130 -34q66 0 148 66l70 -181q-76 -88 -189 -88q-49 0 -131 33t-129 33q-98 0 -160 -66z" />
<glyph unicode="&#xa1;" horiz-adv-x="438" d="M90 0v1047h258v-1047h-258zM90 1143v258h258v-258h-258z" />
<glyph unicode="&#xa2;" horiz-adv-x="1060" d="M25 606q0 184 110.5 326.5t284.5 191.5v168h258v-155q233 -41 362 -244l-217 -121q-61 84 -145 117v-567q84 31 145 116l215 -119q-133 -209 -360 -245v-156h-258v168q-174 49 -284.5 193.5t-110.5 326.5zM270 606q0 -80 41 -148.5t109 -109.5v516q-68 -41 -109 -109.5 t-41 -148.5z" />
<glyph unicode="&#xa3;" horiz-adv-x="1095" d="M57 526v176h115q-14 55 -14 123q0 178 117.5 295t324.5 117q272 0 410 -211l-209 -129q-68 102 -201 102q-90 0 -143.5 -51t-53.5 -123q0 -68 15 -123h317v-176h-254q72 -170 78 -297q61 -14 103 -14q133 0 200 102l209 -129q-63 -98 -164.5 -154.5t-214.5 -56.5 q-61 0 -177 29t-187 29q-106 0 -211 -62l-19 265q90 49 209 51q-14 98 -71 237h-179z" />
<glyph unicode="&#xa5;" horiz-adv-x="1060" d="M12 1212h279l239 -497l240 497h279l-308 -618h211v-176h-293v-92h293v-176h-293v-150h-258v150h-290v176h290v92h-290v176h208z" />
<glyph unicode="&#xa6;" d="M66 -293v662h258v-662h-258zM66 739v662h258v-662h-258z" />
<glyph unicode="&#xa7;" horiz-adv-x="1007" d="M66 311h253q0 -57 50.5 -103t142.5 -46q76 0 119 30.5t43 73.5q0 47 -49.5 67.5t-149.5 33.5q-57 6 -99 14t-100.5 29.5t-96.5 51.5t-64.5 83t-26.5 123q0 131 100 221q-100 76 -100 211q0 143 106.5 229t294.5 86q184 0 294 -85t120 -232h-244q-2 27 -9 45t-22.5 38.5 t-49 31t-82.5 10.5q-70 0 -110 -21.5t-40 -58.5q0 -27 19.5 -47.5t61.5 -31.5t69.5 -16.5t78.5 -11.5q78 -10 133.5 -25.5t114 -46t89 -89t30.5 -142.5q0 -143 -96 -223q96 -74 96 -211q0 -160 -117.5 -241t-314.5 -81q-207 0 -321.5 88t-122.5 246zM346 711q0 -76 141 -97 q41 -4 60 -4q106 0 106 76q0 102 -159 102q-45 0 -72 -8q-76 -16 -76 -69z" />
<glyph unicode="&#xa8;" horiz-adv-x="819" d="M131 1057v237h238v-237h-238zM451 1057v237h237v-237h-237z" />
<glyph unicode="&#xa9;" horiz-adv-x="1284" d="M33 825q0 250 177 424t433 174q254 0 431 -174t177 -424t-177 -424t-431 -174q-256 0 -433 174t-177 424zM170 825.5q0 -188.5 139.5 -328t333.5 -139.5q193 0 333 139.5t140 328t-140 327.5t-333 139q-195 0 -334 -139t-139 -327.5zM336 825q0 133 93 224.5t230 91.5 q180 0 275 -146l-152 -96q-51 57 -123 57q-59 0 -96 -37.5t-37 -93t37 -93.5t96 -38q72 0 123 58l152 -97q-94 -145 -275 -145q-137 0 -230 91t-93 224z" />
<glyph unicode="&#xaa;" horiz-adv-x="690" d="M66 1139q0 115 81.5 194.5t196.5 79.5q66 0 131 -31v25h150v-535h-150v23q-57 -31 -131 -31q-115 0 -196.5 81t-81.5 194zM215 1138.5q0 -53.5 38 -91t91 -37.5t91 37.5t38 91t-38 91.5t-91 38t-91 -38t-38 -91.5z" />
<glyph unicode="&#xab;" horiz-adv-x="1038" d="M98 518l246 443h225l-245 -443l245 -440h-225zM489 518l246 443h226l-246 -443l246 -440h-226z" />
<glyph unicode="&#xad;" horiz-adv-x="729" d="M66 401v242h598v-242h-598z" />
<glyph unicode="&#xae;" horiz-adv-x="1267" d="M25 825q0 250 177 424t433 174q254 0 431 -174t177 -424t-177 -424t-431 -174q-256 0 -433 174t-177 424zM162 825.5q0 -188.5 139 -328t334 -139.5q193 0 333 139.5t140 328t-140.5 327.5t-332.5 139q-195 0 -334 -139t-139 -327.5zM436 516v610h191v-82q78 84 227 89 l-8 -187q-129 0 -174 -29.5t-45 -111.5v-289h-191z" />
<glyph unicode="&#xaf;" horiz-adv-x="819" d="M131 1061v229h557v-229h-557z" />
<glyph unicode="&#xb0;" horiz-adv-x="890" d="M131 852v76q0 129 89 219t224.5 90t225.5 -90t90 -219v-76q0 -129 -90 -219t-225.5 -90t-224.5 90t-89 219zM315 852q0 -53 38 -92t91.5 -39t92 39t38.5 92v76q0 53 -38.5 92t-92 39t-91.5 -39t-38 -92v-76z" />
<glyph unicode="&#xb1;" horiz-adv-x="868" d="M25 33v254h819v-254h-819zM25 631v254h280v295h258v-295h281v-254h-281v-295h-258v295h-280z" />
<glyph unicode="&#xb2;" horiz-adv-x="866" d="M25 940q47 139 157.5 217t239.5 78q174 0 295 -120t121 -290q0 -104 -38 -180t-130 -156l-297 -251h465v-238h-801v238l483 436q82 74 82 151q0 72 -52 123t-128 51q-59 0 -107.5 -35.5t-62.5 -89.5z" />
<glyph unicode="&#xb3;" horiz-adv-x="913" d="M8 231l217 121q23 -61 77 -99t120 -38q88 0 150.5 62.5t62.5 150.5t-61.5 148.5t-151.5 60.5q-72 0 -131 -39l-111 197l254 180h-348v237h727v-237l-195 -139q119 -55 191 -165t72 -243q0 -186 -134.5 -318.5t-324.5 -132.5q-137 0 -248 69.5t-166 184.5z" />
<glyph unicode="&#xb4;" horiz-adv-x="819" d="M180 1223l434 139l58 -229l-441 -113z" />
<glyph unicode="&#xb6;" horiz-adv-x="958" d="M25 954q0 184 134 315.5t324 131.5h144v-1401h-144v504q-193 0 -325.5 130t-132.5 320zM750 0v1401h143v-1401h-143z" />
<glyph unicode="&#xb7;" d="M66 393v258h258v-258h-258z" />
<glyph unicode="&#xb8;" horiz-adv-x="819" d="M238 -237.5q0 73.5 52 125t126 51.5v71h119v-184h-119q-25 0 -42.5 -18.5t-17.5 -45.5q0 -25 17.5 -42t42 -17t42 17.5t17.5 41.5h119q0 -74 -52.5 -125t-126 -51t-125.5 51.5t-52 125z" />
<glyph unicode="&#xb9;" horiz-adv-x="503" d="M29 973v239h409v-1212h-258v973h-151z" />
<glyph unicode="&#xba;" horiz-adv-x="690" d="M66 1139q0 115 81.5 194.5t196.5 79.5q117 0 199 -80t82 -194.5t-82 -194.5t-199 -80q-115 0 -196.5 81t-81.5 194zM213 1139q0 -53 39 -92t92 -39t92 38.5t39 92.5q0 51 -39 90t-92 39t-92 -39t-39 -90z" />
<glyph unicode="&#xbb;" horiz-adv-x="1038" d="M78 78l246 440l-246 443h225l246 -443l-246 -440h-225zM469 78l246 440l-246 443h225l246 -443l-246 -440h-225z" />
<glyph unicode="&#xbf;" horiz-adv-x="909" d="M29 424q0 158 97 278.5t249 157.5v187h258v-396q-150 -8 -199 -20q-70 -18 -115 -75.5t-45 -131.5q0 -88 61.5 -148.5t151.5 -60.5q68 0 122.5 38t76.5 97l215 -119q-57 -115 -167.5 -184.5t-246.5 -69.5q-193 0 -325.5 130.5t-132.5 316.5zM375 1143v258h258v-258h-258z " />
<glyph unicode="&#xc0;" horiz-adv-x="1206" d="M20 518q0 225 160 382t389 157q170 0 303 -94v84h256v-1047h-256v70q-135 -92 -303 -93q-227 0 -388 159t-161 382zM266 518q0 -121 90 -211t213 -90t213 90t90 211t-90 211t-213 90t-213 -90t-90 -211zM274 1229l58 229l434 -139l-51 -203z" />
<glyph unicode="&#xc1;" horiz-adv-x="1206" d="M20 518q0 225 160 382t389 157q170 0 303 -94v84h256v-1047h-256v70q-135 -92 -303 -93q-227 0 -388 159t-161 382zM266 518q0 -121 90 -211t213 -90t213 90t90 211t-90 211t-213 90t-213 -90t-90 -211zM397 1319l434 139l58 -229l-440 -113z" />
<glyph unicode="&#xc2;" horiz-adv-x="1206" d="M20 518q0 225 160 382t389 157q170 0 303 -94v84h256v-1047h-256v70q-135 -92 -303 -93q-227 0 -388 159t-161 382zM266 518q0 -121 90 -211t213 -90t213 90t90 211t-90 211t-213 90t-213 -90t-90 -211zM272 1311l310 153l309 -153l-70 -181l-239 101l-240 -101z" />
<glyph unicode="&#xc3;" horiz-adv-x="1206" d="M20 518q0 225 160 382t389 157q170 0 303 -94v84h256v-1047h-256v70q-135 -92 -303 -93q-227 0 -388 159t-161 382zM240 1317q98 90 200 90q49 0 134 -34t131 -34q68 0 147 58l70 -172q-76 -88 -189 -88q-49 0 -131 32.5t-129 32.5q-98 0 -160 -57zM266 518 q0 -121 90 -211t213 -90t213 90t90 211t-90 211t-213 90t-213 -90t-90 -211z" />
<glyph unicode="&#xc4;" horiz-adv-x="1206" d="M20 518q0 225 160 382t389 157q170 0 303 -94v84h256v-1047h-256v70q-135 -92 -303 -93q-227 0 -388 159t-161 382zM266 518q0 -121 90 -211t213 -90t213 90t90 211t-90 211t-213 90t-213 -90t-90 -211zM303 1153v238h238v-238h-238zM623 1153v238h237v-238h-237z" />
<glyph unicode="&#xc5;" horiz-adv-x="1206" d="M20 518q0 225 160 382t389 157q170 0 303 -94v84h256v-1047h-256v70q-135 -92 -303 -93q-227 0 -388 159t-161 382zM266 518q0 -121 90 -211t213 -90t213 90t90 211t-90 211t-213 90t-213 -90t-90 -211zM403 1272q0 74 52.5 125t126 51t126 -51t52.5 -125t-52.5 -126 t-126 -52t-126 52t-52.5 126zM502 1272q0 -35 23.5 -58.5t56 -23.5t56.5 23.5t24 58.5t-24 59.5t-56.5 24.5t-56 -24.5t-23.5 -59.5z" />
<glyph unicode="&#xc6;" horiz-adv-x="2007" d="M29 518q0 225 159.5 382t389.5 157q170 0 303 -94v84h256v-72q135 82 293 82q242 0 395 -162t153 -393q0 -25 -4 -70h-831q33 -102 111.5 -158.5t195.5 -56.5q96 0 160.5 32t115.5 101l216 -119q-168 -254 -492 -254q-172 0 -313 82v-59h-256v70q-135 -92 -303 -93 q-227 0 -388 159t-161 382zM274 518q0 -121 90.5 -211t213 -90t213 90t90.5 211t-90.5 211t-213 90t-213 -90t-90.5 -211zM1149 635h557q-78 184 -276 184q-92 0 -168 -51t-113 -133z" />
<glyph unicode="&#xc7;" horiz-adv-x="1052" d="M25 518q0 225 159.5 382t388.5 157q307 0 467 -252l-217 -121q-96 135 -250 135q-123 0 -213 -90t-90 -211t90.5 -211t212.5 -90q158 0 250 133l215 -119q-143 -225 -403 -249v-156h-119q-25 0 -42 -18.5t-17 -45.5q0 -25 17.5 -42t42 -17t41.5 17.5t17 41.5h119 q0 -74 -52 -125t-126 -51t-126 51.5t-52 125t52 125t126 51.5v43q-209 20 -350 173.5t-141 362.5z" />
<glyph unicode="&#xc8;" horiz-adv-x="1155" d="M25 518q0 225 159.5 382t388.5 157q242 0 395.5 -162t153.5 -393q0 -25 -4 -70h-831q33 -102 111.5 -158.5t195.5 -56.5q96 0 160.5 32t115.5 101l215 -119q-168 -254 -491 -254q-246 0 -407.5 154t-161.5 387zM274 1229l58 229l434 -139l-51 -203zM293 635h557 q-78 184 -277 184q-92 0 -167.5 -51t-112.5 -133z" />
<glyph unicode="&#xc9;" horiz-adv-x="1155" d="M25 518q0 225 159.5 382t388.5 157q242 0 395.5 -162t153.5 -393q0 -25 -4 -70h-831q33 -102 111.5 -158.5t195.5 -56.5q96 0 160.5 32t115.5 101l215 -119q-168 -254 -491 -254q-246 0 -407.5 154t-161.5 387zM293 635h557q-78 184 -277 184q-92 0 -167.5 -51 t-112.5 -133zM397 1319l434 139l58 -229l-440 -113z" />
<glyph unicode="&#xca;" horiz-adv-x="1155" d="M25 518q0 225 159.5 382t388.5 157q242 0 395.5 -162t153.5 -393q0 -25 -4 -70h-831q33 -102 111.5 -158.5t195.5 -56.5q96 0 160.5 32t115.5 101l215 -119q-168 -254 -491 -254q-246 0 -407.5 154t-161.5 387zM272 1311l310 153l309 -153l-70 -181l-239 101l-240 -101z M293 635h557q-78 184 -277 184q-92 0 -167.5 -51t-112.5 -133z" />
<glyph unicode="&#xcb;" horiz-adv-x="1155" d="M25 518q0 225 159.5 382t388.5 157q242 0 395.5 -162t153.5 -393q0 -25 -4 -70h-831q33 -102 111.5 -158.5t195.5 -56.5q96 0 160.5 32t115.5 101l215 -119q-168 -254 -491 -254q-246 0 -407.5 154t-161.5 387zM293 635h557q-78 184 -277 184q-92 0 -167.5 -51 t-112.5 -133zM303 1153v238h238v-238h-238zM623 1153v238h237v-238h-237z" />
<glyph unicode="&#xcc;" d="M-113 1229l58 229l434 -139l-51 -203zM66 0v1047h258v-1047h-258z" />
<glyph unicode="&#xcd;" d="M10 1319l434 139l58 -229l-441 -113zM66 0v1047h258v-1047h-258z" />
<glyph unicode="&#xce;" d="M-115 1311l310 153l309 -153l-70 -181l-239 101l-240 -101zM66 0v1047h258v-1047h-258z" />
<glyph unicode="&#xcf;" d="M-84 1153v238h238v-238h-238zM66 0v1047h258v-1047h-258zM236 1153v238h237v-238h-237z" />
<glyph unicode="&#xd0;" horiz-adv-x="1153" d="M33 518q0 225 159.5 382t389.5 157q25 0 65 -4l-33 63l-155 -20v176l71 10l-59 119h270l43 -84l185 26v-176l-101 -14l195 -377q66 -125 65 -258q0 -223 -159.5 -382t-387 -159t-388 159t-160.5 382zM279 518q0 -121 90 -211t213 -90t213 90t90 211t-90 211t-213 90 t-213 -90t-90 -211z" />
<glyph unicode="&#xd1;" horiz-adv-x="1095" d="M66 0v1047h256v-84q111 94 282 94q430 0 430 -508v-549h-256v483q0 180 -45 258t-182 78q-106 0 -167.5 -63.5t-61.5 -175.5v-580h-256zM209 1317q98 90 201 90q49 0 134 -34t130 -34q68 0 147 58l70 -172q-76 -88 -189 -88q-49 0 -131 32.5t-129 32.5q-98 0 -159 -57z " />
<glyph unicode="&#xd2;" horiz-adv-x="1163" d="M25 518q0 225 159.5 382t389 157t389 -157t159.5 -382q0 -223 -160.5 -382t-388 -159t-388 159t-160.5 382zM270 518q0 -121 90.5 -211t213 -90t213 90t90.5 211t-90.5 211t-213 90t-213 -90t-90.5 -211zM274 1229l58 229l434 -139l-51 -203z" />
<glyph unicode="&#xd3;" horiz-adv-x="1163" d="M25 518q0 225 159.5 382t389 157t389 -157t159.5 -382q0 -223 -160.5 -382t-388 -159t-388 159t-160.5 382zM270 518q0 -121 90.5 -211t213 -90t213 90t90.5 211t-90.5 211t-213 90t-213 -90t-90.5 -211zM397 1319l434 139l58 -229l-440 -113z" />
<glyph unicode="&#xd4;" horiz-adv-x="1163" d="M25 518q0 225 159.5 382t389 157t389 -157t159.5 -382q0 -223 -160.5 -382t-388 -159t-388 159t-160.5 382zM270 518q0 -121 90.5 -211t213 -90t213 90t90.5 211t-90.5 211t-213 90t-213 -90t-90.5 -211zM272 1311l310 153l309 -153l-70 -181l-239 101l-240 -101z" />
<glyph unicode="&#xd5;" horiz-adv-x="1163" d="M25 518q0 225 159.5 382t389 157t389 -157t159.5 -382q0 -223 -160.5 -382t-388 -159t-388 159t-160.5 382zM240 1317q98 90 200 90q49 0 134 -34t131 -34q68 0 147 58l70 -172q-76 -88 -189 -88q-49 0 -131 32.5t-129 32.5q-98 0 -160 -57zM270 518q0 -121 90.5 -211 t213 -90t213 90t90.5 211t-90.5 211t-213 90t-213 -90t-90.5 -211z" />
<glyph unicode="&#xd6;" horiz-adv-x="1163" d="M25 518q0 225 159.5 382t389 157t389 -157t159.5 -382q0 -223 -160.5 -382t-388 -159t-388 159t-160.5 382zM270 518q0 -121 90.5 -211t213 -90t213 90t90.5 211t-90.5 211t-213 90t-213 -90t-90.5 -211zM303 1153v238h238v-238h-238zM623 1153v238h237v-238h-237z" />
<glyph unicode="&#xd7;" horiz-adv-x="868" d="M45 381l211 227l-211 228l184 182l205 -219l205 219l184 -182l-213 -228l213 -227l-182 -184l-207 221l-207 -221z" />
<glyph unicode="&#xd8;" horiz-adv-x="1155" d="M33 518q0 225 159.5 382t389.5 157q129 0 247 -58l35 48h209l-106 -144q164 -158 163 -385q0 -223 -160.5 -382t-387.5 -159q-135 0 -254 62l-29 -39h-209l100 137q-157 158 -157 381zM279 518q0 -100 61 -180l342 463q-47 18 -100 18q-123 0 -213 -90t-90 -211zM473 236 q51 -18 109 -19q123 0 213 90t90 211q0 102 -66 184z" />
<glyph unicode="&#xd9;" horiz-adv-x="1087" d="M61 498v549h256v-484q0 -180 45.5 -258t182.5 -78q106 0 167.5 63.5t61.5 176.5v580h256v-1047h-256v84q-111 -94 -282 -94q-431 0 -431 508zM240 1229l57 229l434 -139l-51 -203z" />
<glyph unicode="&#xda;" horiz-adv-x="1087" d="M61 498v549h256v-484q0 -180 45.5 -258t182.5 -78q106 0 167.5 63.5t61.5 176.5v580h256v-1047h-256v84q-111 -94 -282 -94q-431 0 -431 508zM362 1319l435 139l57 -229l-440 -113z" />
<glyph unicode="&#xdb;" horiz-adv-x="1087" d="M61 498v549h256v-484q0 -180 45.5 -258t182.5 -78q106 0 167.5 63.5t61.5 176.5v580h256v-1047h-256v84q-111 -94 -282 -94q-431 0 -431 508zM238 1311l309 153l309 -153l-70 -181l-239 101l-240 -101z" />
<glyph unicode="&#xdc;" horiz-adv-x="1087" d="M61 498v549h256v-484q0 -180 45.5 -258t182.5 -78q106 0 167.5 63.5t61.5 176.5v580h256v-1047h-256v84q-111 -94 -282 -94q-431 0 -431 508zM268 1153v238h238v-238h-238zM588 1153v238h237v-238h-237z" />
<glyph unicode="&#xdd;" horiz-adv-x="1005" d="M12 1047h271l221 -717l225 717h264l-313 -979q-82 -256 -160 -351.5t-219 -95.5q-117 0 -190 29l36 239q49 -10 95 -10q106 0 106 92q0 39 -47 189zM324 1319l434 139l57 -229l-440 -113z" />
<glyph unicode="&#xde;" horiz-adv-x="1206" d="M66 -354v1755h256v-438q133 94 303 94q229 0 389 -157t160 -382q0 -223 -161 -382t-388 -159q-168 0 -303 93v-424h-256zM322 518q0 -121 89 -211t214 -90t214 90t89 211t-89 211t-214 90t-214 -90t-89 -211z" />
<glyph unicode="&#xdf;" horiz-adv-x="948" d="M66 0v1020q0 160 113.5 270.5t277.5 110.5t277.5 -110.5t113.5 -270.5q0 -143 -94 -248q162 -131 161 -332q0 -195 -129 -317.5t-329 -122.5h-80v238h80q86 0 149.5 60t63.5 142q0 80 -59.5 139.5t-145.5 59.5h-88v238h92q55 0 94 43t39 100q0 59 -43 101t-102.5 42 t-102.5 -42t-43 -101v-1020h-245z" />
<glyph unicode="&#xe0;" horiz-adv-x="1206" d="M20 518q0 225 160 382t389 157q170 0 303 -94v84h256v-1047h-256v70q-135 -92 -303 -93q-227 0 -388 159t-161 382zM266 518q0 -121 90 -211t213 -90t213 90t90 211t-90 211t-213 90t-213 -90t-90 -211zM319 1229l58 229l434 -139l-51 -203z" />
<glyph unicode="&#xe1;" horiz-adv-x="1206" d="M20 518q0 225 160 382t389 157q170 0 303 -94v84h256v-1047h-256v70q-135 -92 -303 -93q-227 0 -388 159t-161 382zM266 518q0 -121 90 -211t213 -90t213 90t90 211t-90 211t-213 90t-213 -90t-90 -211zM352 1319l434 139l58 -229l-441 -113z" />
<glyph unicode="&#xe2;" horiz-adv-x="1206" d="M20 518q0 225 160 382t389 157q170 0 303 -94v84h256v-1047h-256v70q-135 -92 -303 -93q-227 0 -388 159t-161 382zM266 518q0 -121 90 -211t213 -90t213 90t90 211t-90 211t-213 90t-213 -90t-90 -211zM272 1311l310 153l309 -153l-70 -181l-239 101l-240 -101z" />
<glyph unicode="&#xe3;" horiz-adv-x="1206" d="M20 518q0 225 160 382t389 157q170 0 303 -94v84h256v-1047h-256v70q-135 -92 -303 -93q-227 0 -388 159t-161 382zM240 1317q98 90 200 90q49 0 134 -34t131 -34q68 0 147 58l70 -172q-76 -88 -189 -88q-49 0 -131 32.5t-129 32.5q-98 0 -160 -57zM266 518 q0 -121 90 -211t213 -90t213 90t90 211t-90 211t-213 90t-213 -90t-90 -211z" />
<glyph unicode="&#xe4;" horiz-adv-x="1206" d="M20 518q0 225 160 382t389 157q170 0 303 -94v84h256v-1047h-256v70q-135 -92 -303 -93q-227 0 -388 159t-161 382zM266 518q0 -121 90 -211t213 -90t213 90t90 211t-90 211t-213 90t-213 -90t-90 -211zM303 1153v238h238v-238h-238zM623 1153v238h237v-238h-237z" />
<glyph unicode="&#xe5;" horiz-adv-x="1206" d="M20 518q0 225 160 382t389 157q170 0 303 -94v84h256v-1047h-256v70q-135 -92 -303 -93q-227 0 -388 159t-161 382zM266 518q0 -121 90 -211t213 -90t213 90t90 211t-90 211t-213 90t-213 -90t-90 -211zM403 1272q0 74 52.5 125t126 51t126 -51t52.5 -125t-52.5 -126 t-126 -52t-126 52t-52.5 126zM502 1272q0 -35 23.5 -58.5t56 -23.5t56.5 23.5t24 58.5t-24 59.5t-56.5 24.5t-56 -24.5t-23.5 -59.5z" />
<glyph unicode="&#xe6;" horiz-adv-x="2007" d="M29 518q0 225 159.5 382t389.5 157q170 0 303 -94v84h256v-72q135 82 293 82q242 0 395 -162t153 -393q0 -25 -4 -70h-831q33 -102 111.5 -158.5t195.5 -56.5q96 0 160.5 32t115.5 101l216 -119q-168 -254 -492 -254q-172 0 -313 82v-59h-256v70q-135 -92 -303 -93 q-227 0 -388 159t-161 382zM274 518q0 -121 90.5 -211t213 -90t213 90t90.5 211t-90.5 211t-213 90t-213 -90t-90.5 -211zM1149 635h557q-78 184 -276 184q-92 0 -168 -51t-113 -133z" />
<glyph unicode="&#xe7;" horiz-adv-x="1052" d="M25 518q0 225 159.5 382t388.5 157q307 0 467 -252l-217 -121q-96 135 -250 135q-123 0 -213 -90t-90 -211t90.5 -211t212.5 -90q158 0 250 133l215 -119q-143 -225 -403 -249v-156h-119q-25 0 -42 -18.5t-17 -45.5q0 -25 17.5 -42t42 -17t41.5 17.5t17 41.5h119 q0 -74 -52 -125t-126 -51t-126 51.5t-52 125t52 125t126 51.5v43q-209 20 -350 173.5t-141 362.5z" />
<glyph unicode="&#xe8;" horiz-adv-x="1155" d="M25 518q0 225 159.5 382t388.5 157q242 0 395.5 -162t153.5 -393q0 -25 -4 -70h-831q33 -102 111.5 -158.5t195.5 -56.5q96 0 160.5 32t115.5 101l215 -119q-168 -254 -491 -254q-246 0 -407.5 154t-161.5 387zM293 635h557q-78 184 -277 184q-92 0 -167.5 -51 t-112.5 -133zM319 1229l58 229l434 -139l-51 -203z" />
<glyph unicode="&#xe9;" horiz-adv-x="1155" d="M25 518q0 225 159.5 382t388.5 157q242 0 395.5 -162t153.5 -393q0 -25 -4 -70h-831q33 -102 111.5 -158.5t195.5 -56.5q96 0 160.5 32t115.5 101l215 -119q-168 -254 -491 -254q-246 0 -407.5 154t-161.5 387zM293 635h557q-78 184 -277 184q-92 0 -167.5 -51 t-112.5 -133zM352 1319l434 139l58 -229l-441 -113z" />
<glyph unicode="&#xea;" horiz-adv-x="1155" d="M25 518q0 225 159.5 382t388.5 157q242 0 395.5 -162t153.5 -393q0 -25 -4 -70h-831q33 -102 111.5 -158.5t195.5 -56.5q96 0 160.5 32t115.5 101l215 -119q-168 -254 -491 -254q-246 0 -407.5 154t-161.5 387zM272 1311l310 153l309 -153l-70 -181l-239 101l-240 -101z M293 635h557q-78 184 -277 184q-92 0 -167.5 -51t-112.5 -133z" />
<glyph unicode="&#xeb;" horiz-adv-x="1155" d="M25 518q0 225 159.5 382t388.5 157q242 0 395.5 -162t153.5 -393q0 -25 -4 -70h-831q33 -102 111.5 -158.5t195.5 -56.5q96 0 160.5 32t115.5 101l215 -119q-168 -254 -491 -254q-246 0 -407.5 154t-161.5 387zM293 635h557q-78 184 -277 184q-92 0 -167.5 -51 t-112.5 -133zM303 1153v238h238v-238h-238zM623 1153v238h237v-238h-237z" />
<glyph unicode="&#xec;" d="M-68 1229l58 229l434 -139l-51 -203zM66 0v1047h258v-1047h-258z" />
<glyph unicode="&#xed;" d="M-35 1319l434 139l58 -229l-441 -113zM66 0v1047h258v-1047h-258z" />
<glyph unicode="&#xee;" d="M-115 1311l310 153l309 -153l-70 -181l-239 101l-240 -101zM66 0v1047h258v-1047h-258z" />
<glyph unicode="&#xef;" d="M-84 1153v238h238v-238h-238zM66 0v1047h258v-1047h-258zM236 1153v238h237v-238h-237z" />
<glyph unicode="&#xf0;" horiz-adv-x="1161" d="M33 518q0 225 159.5 382t389.5 157q25 0 65 -4l-33 63l-155 -20v176l71 10l-59 119h270l43 -84l185 26v-176l-101 -14l195 -377q66 -125 65 -258q0 -223 -159.5 -382t-387 -159t-388 159t-160.5 382zM279 518q0 -121 90 -211t213 -90t213 90t90 211t-90 211t-213 90 t-213 -90t-90 -211z" />
<glyph unicode="&#xf1;" horiz-adv-x="1095" d="M66 0v1047h256v-84q111 94 282 94q430 0 430 -508v-549h-256v483q0 180 -45 258t-182 78q-106 0 -167.5 -63.5t-61.5 -175.5v-580h-256zM209 1317q98 90 201 90q49 0 134 -34t130 -34q68 0 147 58l70 -172q-76 -88 -189 -88q-49 0 -131 32.5t-129 32.5q-98 0 -159 -57z " />
<glyph unicode="&#xf2;" horiz-adv-x="1163" d="M25 518q0 225 159.5 382t389 157t389 -157t159.5 -382q0 -223 -160.5 -382t-388 -159t-388 159t-160.5 382zM270 518q0 -121 90.5 -211t213 -90t213 90t90.5 211t-90.5 211t-213 90t-213 -90t-90.5 -211zM319 1229l58 229l434 -139l-51 -203z" />
<glyph unicode="&#xf3;" horiz-adv-x="1163" d="M25 518q0 225 159.5 382t389 157t389 -157t159.5 -382q0 -223 -160.5 -382t-388 -159t-388 159t-160.5 382zM270 518q0 -121 90.5 -211t213 -90t213 90t90.5 211t-90.5 211t-213 90t-213 -90t-90.5 -211zM352 1319l434 139l58 -229l-441 -113z" />
<glyph unicode="&#xf4;" horiz-adv-x="1163" d="M25 518q0 225 159.5 382t389 157t389 -157t159.5 -382q0 -223 -160.5 -382t-388 -159t-388 159t-160.5 382zM270 518q0 -121 90.5 -211t213 -90t213 90t90.5 211t-90.5 211t-213 90t-213 -90t-90.5 -211zM272 1311l310 153l309 -153l-70 -181l-239 101l-240 -101z" />
<glyph unicode="&#xf5;" horiz-adv-x="1163" d="M25 518q0 225 159.5 382t389 157t389 -157t159.5 -382q0 -223 -160.5 -382t-388 -159t-388 159t-160.5 382zM240 1317q98 90 200 90q49 0 134 -34t131 -34q68 0 147 58l70 -172q-76 -88 -189 -88q-49 0 -131 32.5t-129 32.5q-98 0 -160 -57zM270 518q0 -121 90.5 -211 t213 -90t213 90t90.5 211t-90.5 211t-213 90t-213 -90t-90.5 -211z" />
<glyph unicode="&#xf6;" horiz-adv-x="1163" d="M25 518q0 225 159.5 382t389 157t389 -157t159.5 -382q0 -223 -160.5 -382t-388 -159t-388 159t-160.5 382zM270 518q0 -121 90.5 -211t213 -90t213 90t90.5 211t-90.5 211t-213 90t-213 -90t-90.5 -211zM303 1153v238h238v-238h-238zM623 1153v238h237v-238h-237z" />
<glyph unicode="&#xf7;" horiz-adv-x="868" d="M25 479v254h819v-254h-819zM305 164v246h258v-246h-258zM305 803v246h258v-246h-258z" />
<glyph unicode="&#xf8;" horiz-adv-x="1163" d="M33 518q0 225 159.5 382t389.5 157q129 0 247 -58l35 48h209l-106 -144q164 -158 163 -385q0 -223 -160.5 -382t-387.5 -159q-135 0 -254 62l-29 -39h-209l100 137q-157 158 -157 381zM279 518q0 -100 61 -180l342 463q-47 18 -100 18q-123 0 -213 -90t-90 -211zM473 236 q51 -18 109 -19q123 0 213 90t90 211q0 102 -66 184z" />
<glyph unicode="&#xf9;" horiz-adv-x="1087" d="M61 498v549h256v-484q0 -180 45.5 -258t182.5 -78q106 0 167.5 63.5t61.5 176.5v580h256v-1047h-256v84q-111 -94 -282 -94q-431 0 -431 508zM285 1229l57 229l434 -139l-51 -203z" />
<glyph unicode="&#xfa;" horiz-adv-x="1087" d="M61 498v549h256v-484q0 -180 45.5 -258t182.5 -78q106 0 167.5 63.5t61.5 176.5v580h256v-1047h-256v84q-111 -94 -282 -94q-431 0 -431 508zM317 1319l435 139l57 -229l-440 -113z" />
<glyph unicode="&#xfb;" horiz-adv-x="1087" d="M61 498v549h256v-484q0 -180 45.5 -258t182.5 -78q106 0 167.5 63.5t61.5 176.5v580h256v-1047h-256v84q-111 -94 -282 -94q-431 0 -431 508zM238 1311l309 153l309 -153l-70 -181l-239 101l-240 -101z" />
<glyph unicode="&#xfc;" horiz-adv-x="1087" d="M61 498v549h256v-484q0 -180 45.5 -258t182.5 -78q106 0 167.5 63.5t61.5 176.5v580h256v-1047h-256v84q-111 -94 -282 -94q-431 0 -431 508zM268 1153v238h238v-238h-238zM588 1153v238h237v-238h-237z" />
<glyph unicode="&#xfd;" horiz-adv-x="1005" d="M12 1047h271l221 -717l225 717h264l-313 -979q-82 -256 -160 -351.5t-219 -95.5q-117 0 -190 29l36 239q49 -10 95 -10q106 0 106 92q0 39 -47 189zM279 1319l434 139l57 -229l-440 -113z" />
<glyph unicode="&#xfe;" horiz-adv-x="1206" d="M66 -354v1755h256v-438q133 94 303 94q229 0 389 -157t160 -382q0 -223 -161 -382t-388 -159q-168 0 -303 93v-424h-256zM322 518q0 -121 89 -211t214 -90t214 90t89 211t-89 211t-214 90t-214 -90t-89 -211z" />
<glyph unicode="&#xff;" horiz-adv-x="1005" d="M12 1047h271l221 -717l225 717h264l-313 -979q-82 -256 -160 -351.5t-219 -95.5q-117 0 -190 29l36 239q49 -10 95 -10q106 0 106 92q0 39 -47 189zM229 1153v238h238v-238h-238zM549 1153v238h237v-238h-237z" />
<glyph unicode="&#x152;" horiz-adv-x="2007" d="M29 518q0 225 159.5 382t389.5 157q262 0 426 -197q164 197 426 197q242 0 395 -162t153 -393q0 -25 -4 -70h-831q33 -102 111.5 -158.5t195.5 -56.5q96 0 160.5 32t115.5 101l216 -119q-168 -254 -492 -254q-285 0 -449 197q-166 -197 -423 -197q-227 0 -388 159 t-161 382zM274 518q0 -121 90.5 -211t213 -90t213 90t90.5 211t-90.5 211t-213 90t-213 -90t-90.5 -211zM1149 635h557q-78 184 -276 184q-92 0 -168 -51t-113 -133z" />
<glyph unicode="&#x153;" horiz-adv-x="2007" d="M29 518q0 225 159.5 382t389.5 157q262 0 426 -197q164 197 426 197q242 0 395 -162t153 -393q0 -25 -4 -70h-831q33 -102 111.5 -158.5t195.5 -56.5q96 0 160.5 32t115.5 101l216 -119q-168 -254 -492 -254q-285 0 -449 197q-166 -197 -423 -197q-227 0 -388 159 t-161 382zM274 518q0 -121 90.5 -211t213 -90t213 90t90.5 211t-90.5 211t-213 90t-213 -90t-90.5 -211zM1149 635h557q-78 184 -276 184q-92 0 -168 -51t-113 -133z" />
<glyph unicode="&#x178;" horiz-adv-x="1005" d="M12 1047h271l221 -717l225 717h264l-313 -979q-82 -256 -160 -351.5t-219 -95.5q-117 0 -190 29l36 239q49 -10 95 -10q106 0 106 92q0 39 -47 189zM229 1153v238h238v-238h-238zM549 1153v238h237v-238h-237z" />
<glyph unicode="&#x2c6;" horiz-adv-x="819" d="M100 1214l310 154l309 -154l-70 -180l-239 101l-240 -101z" />
<glyph unicode="&#x2dc;" horiz-adv-x="819" d="M68 1221q98 90 200 90q49 0 134 -34t130 -34q68 0 148 57l70 -172q-76 -88 -189 -88q-49 0 -131 33t-129 33q-98 0 -160 -57z" />
<glyph unicode="&#x2000;" horiz-adv-x="731" />
<glyph unicode="&#x2001;" horiz-adv-x="1464" />
<glyph unicode="&#x2002;" horiz-adv-x="731" />
<glyph unicode="&#x2003;" horiz-adv-x="1464" />
<glyph unicode="&#x2004;" horiz-adv-x="487" />
<glyph unicode="&#x2005;" horiz-adv-x="364" />
<glyph unicode="&#x2006;" horiz-adv-x="243" />
<glyph unicode="&#x2007;" horiz-adv-x="243" />
<glyph unicode="&#x2008;" horiz-adv-x="182" />
<glyph unicode="&#x2009;" horiz-adv-x="292" />
<glyph unicode="&#x200a;" horiz-adv-x="79" />
<glyph unicode="&#x2010;" horiz-adv-x="729" d="M66 401v242h598v-242h-598z" />
<glyph unicode="&#x2011;" horiz-adv-x="729" d="M66 401v242h598v-242h-598z" />
<glyph unicode="&#x2012;" horiz-adv-x="729" d="M66 401v242h598v-242h-598z" />
<glyph unicode="&#x2013;" horiz-adv-x="1138" d="M66 401v242h1007v-242h-1007z" />
<glyph unicode="&#x2014;" horiz-adv-x="1753" d="M66 401v242h1622v-242h-1622z" />
<glyph unicode="&#x2018;" horiz-adv-x="387" d="M66 1012v250l43 139h151l-18 -127h80v-262h-256z" />
<glyph unicode="&#x2019;" horiz-adv-x="387" d="M66 1139v262h256v-250l-43 -139h-152l18 127h-79z" />
<glyph unicode="&#x201a;" horiz-adv-x="387" d="M66 0v262h256v-250l-43 -139h-152l18 127h-79z" />
<glyph unicode="&#x201c;" horiz-adv-x="708" d="M66 1012v250l43 139h151l-18 -127h80v-262h-256zM387 1012v250l43 139h152l-19 -127h80v-262h-256z" />
<glyph unicode="&#x201d;" horiz-adv-x="708" d="M66 1139v262h256v-250l-43 -139h-152l18 127h-79zM387 1139v262h256v-250l-43 -139h-151l18 127h-80z" />
<glyph unicode="&#x201e;" horiz-adv-x="708" d="M66 0v262h256v-250l-43 -139h-152l18 127h-79zM387 0v262h256v-250l-43 -139h-151l18 127h-80z" />
<glyph unicode="&#x2022;" horiz-adv-x="524" d="M66 326v393h393v-393h-393z" />
<glyph unicode="&#x2026;" horiz-adv-x="1167" d="M66 0v270h258v-270h-258zM455 0v270h258v-270h-258zM844 0v270h258v-270h-258z" />
<glyph unicode="&#x202f;" horiz-adv-x="292" />
<glyph unicode="&#x2039;" horiz-adv-x="667" d="M98 518l246 443h225l-245 -443l245 -440h-225z" />
<glyph unicode="&#x203a;" horiz-adv-x="667" d="M98 78l246 440l-246 443h226l245 -443l-245 -440h-226z" />
<glyph unicode="&#x205f;" horiz-adv-x="364" />
<glyph unicode="&#x20ac;" horiz-adv-x="1101" d="M25 375v176h165v92h-165v176h168q16 178 149 298t332 120q272 0 409 -211l-209 -129q-68 102 -200 102q-82 0 -148.5 -51t-85.5 -129h328v-176h-332v-92h332v-176h-322q25 -70 88.5 -115t139.5 -45q133 0 200 102l209 -129q-137 -211 -409 -211q-193 0 -324 113t-155 285 h-170z" />
<glyph unicode="&#x2122;" horiz-adv-x="1665" d="M49 1061v164h86v176h191v-176h155v-164h-155v-195q0 -70 30.5 -93t143.5 -25l12 -195q-205 -6 -291 59.5t-86 253.5v195h-86zM590 555v670h190v-72q55 80 168 80q131 0 195 -94q86 94 223 94q250 0 250 -326v-352h-209v309q0 106 -18.5 152.5t-73.5 46.5q-51 0 -85 -37 t-34 -98v-373h-186v309q0 106 -21.5 152.5t-91.5 46.5q-51 0 -84 -37t-33 -98v-373h-190z" />
<glyph unicode="&#xe000;" horiz-adv-x="1045" d="M0 1045h1045v-1045h-1045v1045z" />
<glyph unicode="&#xfb01;" horiz-adv-x="1091" d="M37 694v238h104v45q0 246 132.5 346t418.5 90l-18 -250q-176 0 -225.5 -38t-49.5 -148v-45h236v-238h-236v-694h-258v694h-104zM768 0v1047h258v-1047h-258zM768 1143v258h258v-258h-258z" />
<glyph unicode="&#xfb02;" horiz-adv-x="1091" d="M37 694v238h104v45q0 246 132.5 346t418.5 90l-18 -250q-176 0 -225.5 -38t-49.5 -148v-45h236v-238h-236v-694h-258v694h-104zM768 0v1401h258v-1401h-258z" />
<glyph unicode="&#xfb03;" horiz-adv-x="1794" d="M1471 0v1047h258v-1047h-258zM1471 1143v258h258v-258h-258zM739 694v238h104v45q0 246 132 346q120 91 367 91q25 0 52 -1l-18 -250q-176 0 -225.5 -38t-49.5 -148v-45h236v-238h-236v-694h-258v694h-104zM37 694v238h104v45q0 246 132 346q120 91 367 91q25 0 52 -1 l-18 -250q-176 0 -225.5 -38t-49.5 -148v-45h236v-238h-236v-694h-258v694h-104z" />
<glyph unicode="&#xfb04;" horiz-adv-x="1794" d="M1471 0v1401h258v-1401h-258zM739 694v238h104v45q0 246 132 346q120 91 367 91q25 0 52 -1l-18 -250q-176 0 -225.5 -38t-49.5 -148v-45h236v-238h-236v-694h-258v694h-104zM37 694v238h104v45q0 246 132 346q120 91 367 91q25 0 52 -1l-18 -250q-176 0 -225.5 -38 t-49.5 -148v-45h236v-238h-236v-694h-258v694h-104z" />
</font>
</defs>
</svg>
