<?xml version="1.0" standalone="no"?>
<!DOCTYPE svg PUBLIC "-//W3C//DTD SVG 1.1//EN" "http://www.w3.org/Graphics/SVG/1.1/DTD/svg11.dtd" >
<svg xmlns="http://www.w3.org/2000/svg">
<metadata></metadata>
<defs>
<font id="svgfont_1regular" horiz-adv-x="2048" >
<font-face units-per-em="2048" ascent="1638" descent="-410" />
<missing-glyph horiz-adv-x="500" />
<glyph horiz-adv-x="0" />
<glyph unicode="&#xd;" horiz-adv-x="1520" />
<glyph unicode="A" d="M499 1048q0 -136 67 -251.5t182.5 -182.5t251.5 -67t251.5 67t182.5 182.5t67 251.5t-67 251.5t-182.5 182.5t-251.5 67t-251.5 -67t-182.5 -182.5t-67 -251.5zM659 946q-11 18 -11 40q0 39 34 92q14 23 70 85q-11 -18 -19 -37.5t-7 -50t24 -47.5q17 -12 47 -12 q23 0 52 7l522 138l-528 -223q-67 -28 -111 -28q-51 0 -73 36z" />
<glyph unicode="B" d="M498 1048q0 -102 40 -195t107 -160t160 -107t195 -40t195 40t160 107t107 160t40 195t-40 195t-107 160t-160 107t-195 40t-195 -40t-160 -107t-107 -160t-40 -195zM723 824l127 314h100l-126 -314h-101zM869 1187l34 85h100l-34 -85h-100zM876 824l180 448h92 q76 0 106 -45q24 -36 24 -83q0 -46 -23 -102q-45 -112 -112 -165t-175 -53h-92zM1020 918q39 0 72 41t52 89q20 50 20 82q0 22 -9 35q-10 15 -30 15z" />
<glyph unicode="C" d="M641 561l718 487l-718 487v-974z" />
<glyph unicode="D" d="M755 555h164v983h-164v-983zM1081 558h164v983h-164v-983z" />
<glyph unicode="E" d="M361 599h131h191v131h-191v192h-131v-192v-131zM361 1174h131v192h191v131h-191h-131v-131v-192zM1317 599h191h131v131v192h-131v-192h-191v-131zM1317 1366h191v-192h131v192v131h-131h-191v-131z" />
<glyph unicode="F" d="M497 850q0 -17 12.5 -29.5t29.5 -12.5h125v-271l278 271h519q17 0 29.5 12.5t12.5 29.5v668q0 17 -12.5 29t-29.5 12h-922q-17 0 -29.5 -12t-12.5 -29v-668z" />
<glyph unicode="G" d="M306 997q0 -90 63.5 -153.5t153.5 -63.5h260q82 0 143 54t72 134h6q15 -75 75 -124t138 -49h260q90 0 153.5 63.5t63.5 153.5v87q0 90 -63.5 153.5t-153.5 63.5h-260q-78 0 -138 -49.5t-75 -124.5h-8q-15 75 -75 124.5t-138 49.5h-260q-90 0 -153.5 -63.5t-63.5 -153.5 v-102zM436 997v102q0 36 25.5 61t61.5 25h260q50 0 75 -43h-157q-5 0 -5 -5v-164q0 -5 5 -5h164q-9 -26 -31.5 -41.5t-50.5 -15.5h-260q-36 0 -61.5 25t-25.5 61zM1142 968h157q5 0 5 5v164q0 5 -5 5h-157q25 43 75 43h260q36 0 61.5 -25t25.5 -61v-87q0 -36 -25.5 -61.5 t-61.5 -25.5h-260q-50 0 -75 43z" />
<glyph unicode="H" d="M523 987l140 -58q6 -18 15 -36l-57 -141l84 -84l141 58q19 -9 35 -14l60 -141h120l59 142q22 8 33 13l143 -57l84 84l-58 143q7 15 13 32l142 61v120l-142 59q-4 11 -14 33l58 143l-84 84l-143 -58q-22 10 -33 14l-60 141h-120l-59 -141q-12 -4 -34 -14l-142 57l-84 -84 l57 -141q-6 -11 -14 -35l-140 -60v-120zM820 1048q0 74 52.5 126.5t126.5 52.5t126.5 -52.5t52.5 -126.5t-52.5 -126.5t-126.5 -52.5t-126.5 52.5t-52.5 126.5z" />
<glyph unicode="I" d="M721 890q0 -2 2 -2h219q2 0 4 -2l331 -236h1v0q0 1 1 2v792q0 2 -1 2h-1l-331 -222q-1 -1 -4 -1h-219q-2 0 -2 -3v-330z" />
<glyph unicode="J" d="M610 890q0 -2 3 -2h218q4 0 5 -1l331 -237h1v0q1 1 1 2v792q0 2 -1 2h-1l-331 -222q-1 -1 -5 -1h-218q-3 0 -3 -2v-331zM1256 1015l1 -5q1 -1 3 -4l55 -54q1 -1 4 -3q2 -1 4 -1t6 2q61 50 61 129t-61 129q-1 1 -5 1l-5 -1q-1 0 -2 -1l-2 -1l-55 -54l-1 -2q-1 -2 -2 -2 q-1 -2 -1 -5t4 -7q32 -22 32 -57q0 -36 -32 -58q-4 -4 -4 -6z" />
<glyph unicode="K" d="M490 890q0 -2 3 -2h218q3 0 5 -2l331 -236l2 2v792q0 2 -1 2h-1l-331 -222q-1 -1 -5 -1h-218q-3 0 -3 -3v-330zM1136 1015l1 -5q1 -1 3 -4l55 -54q1 -1 4 -3q2 -1 4 -1t6 2q61 50 61 129t-61 129q-1 1 -5 1l-5 -1q-1 0 -2 -1l-2 -1l-55 -54l-1 -2q-1 -2 -2 -2 q-1 -2 -1 -5t4 -7q32 -22 32 -57q0 -36 -32 -58q-4 -4 -4 -6zM1309 829l1 -5q1 -1 3 -4l54 -52q1 0 2 -1l2 -2q2 -1 4 -1q4 0 6 2q62 59 94 132q35 79 35 164t-35 164q-32 73 -94 132q-2 2 -5 2l-5 -1q-1 0 -4 -3l-54 -52q-1 -1 -3 -4q-1 -2 -1 -4q0 -5 2 -7 q101 -93 101 -227t-101 -227q-2 -2 -2 -6z" />
<glyph unicode="L" d="M371 902q0 -3 2 -3h219q3 0 4 -1l331 -236q2 -2 2 1v793q0 1 -1 1h-1l-331 -221q-2 -2 -4 -2h-219q-2 0 -2 -2v-330zM1016 1026l2 -5q1 -1 3 -4l54 -53q1 -1 4 -3q2 -2 4 -2t6 2q61 50 61 129t-61 129q-1 1 -5 1l-5 -1q-1 -1 -2 -1q-2 0 -2 -1l-54 -54l-3 -3q-2 -3 -2 -6 q0 -2 4 -6q32 -22 32 -58q0 -35 -32 -57q-4 -4 -4 -7zM1189 840l1 -5l3 -3l54 -53l2 -2t2 -1q2 -1 4 -1q4 0 6 2q62 59 94 132q35 79 35 164t-35 164q-33 75 -94 133q-1 1 -5 1l-5 -1q-2 0 -4 -2l-54 -53l-2 -2t-1 -2q-1 -2 -1 -4q0 -4 3 -7q100 -92 100 -227t-100 -227 q-3 -3 -3 -6zM1361 647l1 -4q0 -1 1 -2l2 -2l54 -53q1 0 2 -1l2 -2q2 -1 4 -1q3 0 6 3q94 93 144 207q52 120 52 256q0 137 -52 257q-50 114 -144 207q-2 2 -5 2l-5 -1q-2 0 -4 -2l-54 -53q-1 0 -2 -2l-1 -2q-1 -2 -1 -4q0 -4 2 -6q81 -79 124.5 -181.5t43.5 -214.5 t-43.5 -214t-124.5 -181q-2 -2 -2 -6z" />
<glyph unicode="M" d="M400 888h223l335 -239v798l-335 -224h-223v-335zM1041 1264q0 -5 4 -9l204 -207l-202 -201q-4 -4 -4 -9t4 -9l55 -54q4 -4 8 -4q6 0 10 4l201 200l202 -205q4 -4 9 -4q6 0 10 3l55 54q4 4 4 9t-4 9l-204 207l202 201q3 3 3 9t-3 9l-55 54q-9 9 -18 0l-201 -200l-203 206 q-3 3 -10 3q-5 0 -8 -3l-55 -54q-4 -4 -4 -9z" />
<glyph unicode="N" d="M578 1044q0 -64 45 -109t109 -45q57 0 101 39l282 -147q0 -2 -0.5 -5t-0.5 -4q0 -64 45 -109.5t109 -45.5t109 45.5t45 109.5t-45 109t-109 45q-49 0 -89 -29l-293 152l289 151q44 -32 93 -32q64 0 109 45t45 109t-45 109.5t-109 45.5t-109 -45.5t-45 -109.5v-5 l-290 -151q-42 32 -92 32q-64 0 -109 -45.5t-45 -109.5z" />
<glyph unicode="O" d="M504 978q-5 36 -5 71t5 69q31 209 198 333q101 75 230 93q34 4 68 4l68 -4q143 -20 252 -110.5t155 -226.5q25 -74 25 -158q0 -85 -25 -160q-54 -162 -202 -260q-58 -37 -111 -55q-38 -13 -93 -22q-15 -2 -55 -4q-24 -1 -36 0h-13l-26 3q-82 9 -159 48q-153 74 -229 228 q-35 72 -47 151zM792 1210q0 -5 27 -32l28 -29l50 -50l49 -50l-76 -76q-77 -77 -77 -81t22 -26t27 -24q4 0 81 76l76 76l77 -77q77 -78 81 -78q5 0 27 21q23 22 23 27q0 6 -76 83q-76 76 -76 79t76 77q76 76 76 78q0 3 -23.5 27t-26.5 24q-5 0 -113 -108l-44 -44l-76 77 q-77 77 -79 78h-1q-4 0 -26 -20q-26 -24 -26 -28z" />
<glyph unicode="P" d="M726 1048v637l13 -15q537 -619 535 -624q-1 -2 -273.5 -318.5t-273.5 -316.5t-1 637z" />
<glyph unicode="Q" d="M727 1048q0 -2 273 -319l273 -317v318v636v318l-273 -317q-273 -317 -273 -319z" />
<glyph unicode="R" d="M539 794q1 36 5 44q6 12 18 19l8 3l418 2q424 0 432 -2q23 -1 35 -18q5 -7 6 -51q0 -41 -2 -51q-5 -18 -21 -24q-8 -4 -437 -4h-98h-91h-79.5t-68 0.5t-51.5 0.5h-34h-12q-3 0 -14 11q-11 10 -13 22q-2 9 -1 29v19zM539 1040v8q0 45 11 59q5 6 14 11q11 4 437 4 q420 0 439 -5q3 -1 9 -6q8 -7 10 -17.5t2 -46.5q0 -43 -5 -53q-4 -8 -14 -15l-10 -6h-428q-429 0 -436 2q-15 5 -23 19q-5 8 -6 46zM539 1316q1 36 5 44q6 12 18 19l8 3l418 2q424 0 432 -2q23 -1 35 -18q5 -7 6 -51q0 -41 -2 -51q-5 -18 -21 -24q-8 -4 -437 -4h-98h-91 h-79.5t-68 0.5t-51.5 0.5h-34h-12q-3 0 -14 11q-11 10 -13 22q-2 9 -1 29v19z" />
<glyph unicode="a" d="M364 995q12 61 55 126q35 53 123 151q-13 -21 -24 -46.5t-21 -62.5q-5 -18 -5 -36.5t5 -36.5q10 -36 42 -58q30 -22 80 -22q40 0 95 14l926 244l-937 -395q-117 -50 -196 -50q-89 0 -129 64q-18 32 -18 71q0 18 4 37z" />
<glyph unicode="b" d="M367 938q-4 -19 -4 -37q0 -38 18 -70q40 -64 129 -64q78 0 195 49l932 393l-549 -144l-81 -22l-291 -77q-53 -14 -94 -14q-51 0 -81 22q-32 22 -42 58q-5 18 -5 36t5 36q10 36 21 62t24 47q-90 -101 -122 -150q-43 -65 -55 -125zM1301 890q-2 -10 8 -10h66q10 0 8 -9 l-12 -66q-1 -4 2 -7t7 -3h15q10 0 12 10l12 66q2 9 12 9h64q11 0 13 10l3 16q1 9 -8 9h-66q-10 0 -8 10l11 65q2 10 -8 10h-16q-10 0 -12 -10l-11 -65q-2 -10 -12 -10h-64q-11 0 -13 -9z" />
<glyph unicode="c" d="M464 1164q0 -163 116 -279t280 -116q130 0 234 77l320 -293q27 -17 49 -17h8q25 4 44 24q21 22 21 51q0 25 -23 50l-336 268q78 105 78 235q0 164 -116 280t-279 116q-164 0 -280 -116t-116 -280zM573 1164q0 118 84.5 202.5t202.5 84.5t202 -84t84 -203q0 -118 -84 -202 t-202 -84q-119 0 -203 84t-84 202z" />
<glyph unicode="d" d="M370 1455q12 -23 40 -23h164l199 -612q10 -34 44 -34h772q28 0 40 23q6 12 6 23.5t-6 23.5q-12 24 -40 23h-738l-199 611q-10 34 -44 34h-198q-28 0 -40 -23q-6 -12 -6 -23t6 -23zM725 1466l167 -494q5 -15 17 -24.5t28 -9.5h652q19 0 32.5 11t13.5 35v494 q0 19 -13.5 32.5t-32.5 13.5h-819q-22 0 -37 -18q-10 -13 -10 -27q0 -6 2 -13zM772 652q0 -34 23.5 -57t57.5 -23t57 23t23 57t-23 57.5t-57 23.5t-57.5 -23.5t-23.5 -57.5zM1472 652q0 -34 23 -57t57 -23t57.5 23t23.5 57t-23.5 57.5t-57.5 23.5t-57 -23.5t-23 -57.5z" />
<glyph unicode="e" d="M537 560q-1 -6 -1 -9q0 -5 2 -7q4 -2 30 -3h14h416h420h14q18 0 23 0.5t9 4.5q2 2 1 6q0 4 -2 8l-15 81q-12 67 -66 89l-124 57q-56 19 -84 75q-26 52 -26 108v8q1 43 23 79t43.5 67t23.5 61q1 18 1 31q0 53 -15 53q-2 0 -7 -2q-9 0 -10 7q0 15 -0.5 27.5t-4.5 43.5 t-11.5 55.5t-23 55t-36.5 51t-55.5 34.5t-77.5 14t-77.5 -14t-55.5 -34.5t-36.5 -51t-23 -55t-11.5 -55.5t-4.5 -43.5t-0.5 -27.5q0 -10 -9 -7q-15 5 -19 -10q-4 -14 -4 -41q0 -14 1 -31q2 -30 24 -61t44 -67t23 -79v-8q-1 -55 -27 -107q-28 -56 -84 -76l-120 -57 q-54 -22 -66 -89z" />
<glyph unicode="f" d="M381 883l81 -1l60 151v-150h84l134 330h-81l-55 -134v134h-88zM645 883h82l134 330h-82zM765 883h81l52 133q1 -10 13 -132h256l25 63h-97l30 78h78l24 59h-78l30 71h91l24 59l-174 -1l-131 -322l-18 162l147 160h-88l-88 -92l38 92h-81zM1211 884h74l94 230h-74z M1318 1150h74l25 63h-74zM1324 884h67q80 0 129.5 39t82.5 121q17 40 17 73q0 35 -19 63q-22 33 -78 33h-67zM1429 953l78 192q13 0 21 -11q7 -11 7 -27q0 -24 -14 -59t-38.5 -65t-53.5 -30z" />
<glyph unicode="g" d="M479 1034q0 -165 97 -302q95 -133 246 -188q17 -6 32.5 1.5t21.5 23.5q6 17 -1.5 32.5t-23.5 21.5q-129 46 -208 160t-79 251q0 181 127.5 308.5t308.5 127.5t309 -127.5t128 -308.5q0 -137 -79.5 -251t-208.5 -160q-16 -6 -23.5 -21.5t-1.5 -32.5q10 -28 40 -28 q6 0 14 3q152 55 247 188q96 136 96 302q0 141 -70 261t-190 190t-261 70t-261 -70t-190 -190t-70 -261zM738 1016q-1 -4 -1 -8q0 -16 19 -16h163q10 0 16 -7t4 -17l-28 -162q-2 -10 4 -17t16 -7h39q10 0 18.5 7t10.5 17l28 162q2 10 10.5 17t18.5 7h159q11 0 20 6.5 t11 17.5l7 39q1 4 1 8q0 16 -19 16h-163q-10 0 -16.5 7t-4.5 17l28 159q2 10 -4 17t-16 7h-39q-10 0 -19 -7t-10 -17l-28 -159q-2 -10 -10.5 -17t-18.5 -7h-158q-10 0 -19.5 -7t-11.5 -17z" />
<glyph unicode="h" d="M671 1405q0 -13 10 -23l334 -338l-333 -330q-10 -10 -10.5 -23.5t9.5 -23.5l116 -117q9 -9 23 -9t23 9l476 470q10 10 10 23v1q0 13 -10 23l-473 479q-9 9 -23 9t-23 -9l-119 -117q-10 -10 -10 -24z" />
<glyph unicode="i" d="M671 1043v1q0 13 10 23l473 479q9 9 23 9t23 -9l119 -117q10 -10 10 -24q0 -13 -10 -23l-334 -338l333 -330q10 -10 10.5 -23.5t-9.5 -23.5l-116 -117q-9 -9 -23 -9t-23 9l-476 470q-10 10 -10 23z" />
<glyph unicode="j" d="M493 1228q0 -14 9 -23l470 -476q10 -10 23 -10h1q13 0 23 10l479 473q9 9 9 23t-9 23l-117 119q-10 10 -24 10q-13 0 -23 -10l-338 -334l-330 333q-10 10 -23.5 10.5t-23.5 -9.5l-117 -116q-9 -9 -9 -23z" />
<glyph unicode="k" d="M493 868q0 14 9 23l470 476q10 10 23 10h1q13 0 23 -10l479 -473q9 -9 9 -23t-9 -23l-117 -119q-10 -10 -24 -10q-13 0 -23 10l-338 334l-330 -333q-10 -10 -23.5 -10.5t-23.5 9.5l-117 116q-9 9 -9 23z" />
<glyph unicode="l" d="M360 772h1280l-640 552z" />
<glyph unicode="m" d="M360 1324l640 -552l640 552h-1280z" />
<glyph unicode="n" d="M363 1065l258 -276l174 -187l6 -7l836 775l-127 131l-710 -657l-306 339z" />
<glyph unicode="o" d="M491 964h426v-426h166v426h426v165h-426v429h-166v-429h-426v-165z" />
<glyph unicode="p" d="M538 966h924v164h-924v-164z" />
<glyph unicode="q" d="M534 1408q0 -9 6 -15l340 -345l-336 -335q-6 -6 -6 -15t6 -15l91 -90q6 -6 15 -6t15 6l335 334l337 -343q6 -6 15 -6t15 6l92 89q7 7 7 15q0 9 -6 15l-340 345l336 335q6 6 6 15t-6 15l-91 90q-6 6 -15 6t-15 -6l-335 -334l-337 343q-6 6 -15 6t-15 -6l-92 -89 q-7 -7 -7 -15z" />
<glyph unicode="r" d="M464 1164q0 -163 116 -279t280 -116q130 0 234 77l320 -293q27 -17 49 -17h8q25 4 44 24q21 22 21 51q0 25 -23 50l-336 268q78 105 78 235q0 164 -116 280t-279 116q-164 0 -280 -116t-116 -280zM573 1164q0 118 84.5 202.5t202.5 84.5t202 -84t84 -203q0 -118 -84 -202 t-202 -84q-119 0 -203 84t-84 202zM698 1129q0 -8 7 -8h108v-108q0 -7 8 -7h80q8 0 8 7v108h107q8 0 8 8v80q0 8 -8 8h-107v107q0 8 -8 8h-80q-8 0 -8 -8v-107h-108q-7 0 -7 -8v-80z" />
<glyph unicode="s" d="M464 1164q0 -163 116 -279t280 -116q130 0 234 77l320 -293q27 -17 49 -17h8q25 4 44 24q21 22 21 51q0 25 -23 50l-336 268q78 105 78 235q0 164 -116 280t-279 116q-164 0 -280 -116t-116 -280zM573 1164q0 118 84.5 202.5t202.5 84.5t202 -84t84 -203q0 -118 -84 -202 t-202 -84q-119 0 -203 84t-84 202zM699 1122q0 -7 8 -7h311q8 0 8 7v83q0 8 -8 8h-311q-8 0 -8 -8v-83z" />
<glyph unicode="t" d="M576 867q18 -73 49 -125.5t88 -103.5q120 -105 282 -105q177 0 303 126t126 304t-125 303q-121 123 -297 126v165q0 4 -4 6q-1 1 -2 1q-2 0 -5 -3l-233 -232q-1 -1 -1 -5q0 -3 1 -4l233 -233q3 -3 7 -1t4 6v156q116 -3 197 -86t81 -199q0 -119 -83.5 -202.5t-201.5 -83.5 q-92 0 -166.5 52.5t-104.5 139.5q-2 5 -5 5h-135q-4 0 -6 -1t-2 -6z" />
<glyph unicode="u" d="M576 963q0 -178 126 -304t303 -126q162 0 282 105q57 51 88 103.5t49 125.5q0 5 -2 6t-6 1h-135q-3 0 -5 -5q-30 -87 -104.5 -139.5t-166.5 -52.5q-118 0 -201.5 83.5t-83.5 202.5q0 116 81 199t197 86v-156q0 -4 4 -6t7 1l233 233q1 1 1 4q0 4 -1 5l-233 232q-3 3 -5 3 q-1 0 -2 -1q-4 -2 -4 -6v-165q-176 -3 -297 -126q-125 -125 -125 -303z" />
<glyph unicode="v" d="M619 583q0 -5 4 -9t9 -4h55q13 0 13 13v930q0 5 -4 9t-9 4h-55q-13 0 -13 -13v-930zM760 938q0 -8 6 -11q4 -2 7 -2q4 0 6 1l162 90l433 238q7 4 7 12t-8 11l-596 227q-1 1 -4 1q-4 0 -8 -2q-5 -3 -5 -11v-554z" />
<glyph unicode="w" d="M584 579l339 1q135 -1 206 -1t79 1q34 4 57 23.5t45 58.5q13 23 59.5 195t46.5 200q0 31 -26.5 57.5t-59.5 31.5l-203 4l55 153q6 17 7.5 66t-2.5 60q-4 14 -26 47t-32 37t-54 4h-19l-79 -241l-168 -236h-225v-461z" />
<glyph unicode="x" d="M584 1056h225l168 -236l79 -241q14 -1 26 -1q35 0 47 5q10 4 32 37t26 47q4 11 2.5 60t-7.5 66l-55 153q184 1 203 4q33 5 59.5 31.5t26.5 57.5q0 28 -46.5 200t-59.5 195q-22 39 -45 58.5t-57 23.5h-285l-339 1v-461z" />
<glyph unicode="y" d="M474 1166l313 -240l-112 -378l325 224l325 -224l-112 378l313 240l-395 10l-131 372l-132 -372z" />
<glyph unicode="z" d="M499 1048q0 -136 67 -251.5t182.5 -182.5t251.5 -67t251.5 67t182.5 182.5t67 251.5t-67 251.5t-182.5 182.5t-251.5 67t-251.5 -67t-182.5 -182.5t-67 -251.5zM851 1145q0 72 43 106t101 34q51 0 90 -20q64 -32 64 -108q0 -34 -17.5 -58.5t-55.5 -51.5 q-21 -15 -28 -28.5t-7 -43.5q0 -1 -2 -1h-78q-2 0 -2 1q0 46 11 70t51 52q36 24 36 58q0 24 -12.5 38t-22.5 16.5t-21 2.5q-33 0 -46 -18t-17 -49q0 -2 -2 -2h-83q-2 0 -2 2zM942 867q0 24 17 40t43 16q25 0 42 -16.5t17 -39.5t-17 -39.5t-42 -16.5t-42.5 16.5t-17.5 39.5z " />
<glyph unicode="&#x2000;" horiz-adv-x="1024" />
<glyph unicode="&#x2001;" />
<glyph unicode="&#x2002;" horiz-adv-x="1024" />
<glyph unicode="&#x2003;" />
<glyph unicode="&#x2004;" horiz-adv-x="682" />
<glyph unicode="&#x2005;" horiz-adv-x="512" />
<glyph unicode="&#x2006;" horiz-adv-x="341" />
<glyph unicode="&#x2007;" horiz-adv-x="341" />
<glyph unicode="&#x2008;" horiz-adv-x="256" />
<glyph unicode="&#x2009;" horiz-adv-x="409" />
<glyph unicode="&#x200a;" horiz-adv-x="113" />
<glyph unicode="&#x202f;" horiz-adv-x="409" />
<glyph unicode="&#x205f;" horiz-adv-x="512" />
<glyph unicode="&#xe000;" horiz-adv-x="1520" d="M0 0v1520h1520v-1520h-1520z" />
</font>
</defs>
</svg>
