<?xml version="1.0" standalone="no"?>
<!DOCTYPE svg PUBLIC "-//W3C//DTD SVG 1.1//EN" "http://www.w3.org/Graphics/SVG/1.1/DTD/svg11.dtd" >
<svg xmlns="http://www.w3.org/2000/svg">
<metadata></metadata>
<defs>
<font id="mission_scriptregular" horiz-adv-x="768" >
<font-face units-per-em="2048" ascent="1477" descent="-571" />
<missing-glyph horiz-adv-x="423" />
<glyph horiz-adv-x="2048" />
<glyph horiz-adv-x="2048" />
<glyph unicode="&#xd;" horiz-adv-x="2048" />
<glyph unicode=" "  horiz-adv-x="423" />
<glyph unicode="&#x09;" horiz-adv-x="423" />
<glyph unicode="&#xa0;" horiz-adv-x="423" />
<glyph unicode="!" horiz-adv-x="645" d="M37 94q0 70 52 129.5t132 59.5q59 0 89 -32.5t30 -82.5q0 -70 -50.5 -129t-127.5 -59q-54 0 -89.5 29t-35.5 85zM225 465q0 14 2 22q83 479 254 1014q11 40 44 61t73 21q42 0 73 -25t31 -69q0 -29 -12 -59q-23 -55 -87 -204t-90 -211.5t-71.5 -173.5t-77.5 -200t-61 -180 q-7 -22 -20 -33.5t-25 -11.5q-13 0 -23 13t-10 36z" />
<glyph unicode="&#x22;" horiz-adv-x="610" d="M160 1061q0 387 119 387q38 0 70 -23t32 -57q0 -53 -28.5 -158t-59.5 -192q-18 -49 -57 -49q-30 0 -53 25t-23 67zM442 1063q0 387 123 387q37 0 67 -23.5t30 -58.5q0 -48 -28.5 -158t-58.5 -192q-18 -49 -59 -49q-29 0 -51.5 26t-22.5 68z" />
<glyph unicode="#" horiz-adv-x="835" d="M-10 674q0 37 49 48t160 11q13 77 37 178q-29 0 -79 -1t-69 -1q-59 0 -59 31q0 21 24.5 39t61.5 18q10 0 58.5 -1t80.5 -1q37 181 67 222q13 16 25 16q15 0 26 -15.5t11 -41.5q0 -32 -17 -103.5t-18 -77.5h172l41 172q12 58 51 58q16 0 27.5 -13.5t11.5 -35.5 q0 -13 -2 -19l-35 -160h21q23 0 59 2t47 2q47 0 47 -26q0 -34 -46 -48t-144 -14l-35 -180h31q24 0 60 1t46 1q45 0 45 -24q0 -64 -198 -70l-31 -201q-8 -51 -41 -51q-20 0 -35.5 21t-15.5 55q0 2 1 6.5t1 7.5l20 158q-8 0 -26 -1t-27 -1q-17 0 -53 1t-53 1q-3 -17 -9 -55 t-11 -67t-12.5 -59.5t-18.5 -47.5t-25 -17q-19 0 -34 22.5t-15 59.5t20 164l-135 6q-57 3 -57 31zM303 733h162q3 15 16 78t21 100h-168z" />
<glyph unicode="$" horiz-adv-x="753" d="M8 270q0 37 31 73t67 36q19 0 39 -17q81 -74 163.5 -113.5t189.5 -39.5q2 0 4 1t3 3t2 3.5t1 5.5v6v6v6q0 31 -39 75.5t-94 93.5t-110.5 102.5t-94.5 117t-39 121.5q0 110 50.5 207.5t139.5 157t193 59.5h12q16 68 28.5 99.5t29.5 31.5q11 0 17.5 -12.5t6.5 -32.5 q0 -18 -22 -109l8 -6q70 -33 103.5 -115t33.5 -176q0 -35 -2 -57.5t-9 -46.5t-23 -36t-40 -12q-39 0 -73.5 24.5t-34.5 59.5q0 48 31.5 130t31.5 116q0 48 -34 82q-56 0 -116 -56t-97 -131.5t-37 -135.5q0 -38 16 -74.5t42 -66t57 -59t62.5 -58.5t57.5 -58t42 -64.5 t16 -72.5q0 -69 -31.5 -112t-65.5 -50q-46 -64 -174 -67l-22 -119q-8 -49 -31 -49q-11 0 -19 16.5t-8 44.5q0 11 4 39l11 72q-55 6 -116.5 25t-111 55t-49.5 77z" />
<glyph unicode="%" horiz-adv-x="1134" d="M37 791q0 72 26.5 151.5t80 140t116.5 60.5q28 0 47 -11t19 -28q0 -15 -15 -27q-66 -60 -99.5 -143.5t-33.5 -165.5q0 -78 29.5 -129t83.5 -51q46 0 84 59.5t58 153t20 196.5q-53 18 -84 51t-31 76q0 41 30 69t70 28q69 0 108.5 -48.5t49.5 -128.5q12 -2 39 -2 q127 0 196 93q6 12 19.5 41.5t21.5 44t23 28t33 13.5q24 0 40.5 -15.5t16.5 -38.5q0 -14 -6 -26q-96 -223 -388 -616.5t-476 -569.5q-41 -38 -60 -35q-12 0 -12 10q0 16 29 52q79 91 106.5 123.5t107.5 129t128 163.5t118 167t130 204t116 214q-74 -44 -180 -47 q-4 -105 -45.5 -208t-121 -176t-175.5 -73q-103 0 -161 77.5t-58 193.5zM526 233q0 84 31.5 164.5t98 146t155.5 87.5q17 4 31 2q12 4 26 4q101 0 154 -74t53 -180q0 -71 -23.5 -142t-65 -130.5t-106 -96.5t-139.5 -37q-104 0 -159.5 73.5t-55.5 182.5zM678 209 q0 -80 23.5 -131t68.5 -51q49 0 83.5 49t49.5 121t15 157q0 93 -19.5 161t-54.5 85q-74 -36 -120 -152.5t-46 -238.5z" />
<glyph unicode="&#x26;" horiz-adv-x="1222" d="M-29 367q0 107 38.5 205t124 177t206.5 111q-51 138 -51 244q0 83 34.5 162t104 133.5t158.5 54.5q66 0 82 -22q4 2 14 2q63 0 110.5 -70.5t47.5 -142.5q0 -61 -28 -120.5t-96.5 -122t-172.5 -110.5q19 -46 60 -131.5t72.5 -162.5t51.5 -152q8 16 33.5 65.5t37 70.5 t32 57t38.5 61.5t37 46.5q-45 4 -80 -7.5t-55 -24.5t-27 -13q-20 0 -20 22q0 70 51.5 131.5t124.5 61.5q44 0 143 -12.5t142 -12.5q39 0 81 15.5t46 15.5q24 0 24 -25q0 -87 -54 -132.5t-140 -45.5q-69 0 -146 17q-25 -20 -53.5 -63.5t-51 -88t-64 -128t-74.5 -144.5 q8 -70 8 -117q0 -263 -114 -410t-310 -147q-98 0 -186.5 46.5t-88.5 96.5q0 31 36.5 59.5t72.5 28.5q22 0 41.5 -18.5t37.5 -44.5t39.5 -53t55.5 -46t76 -20q86 30 117.5 133t33.5 275q-123 -92 -276 -92q-101 0 -176 55.5t-111.5 142t-36.5 189.5zM172 389 q0 -123 52.5 -205t150.5 -82q104 0 190 86q-7 67 -22 133.5t-39 135.5t-42 114.5t-50.5 120.5t-44.5 105q-91 -56 -143 -171t-52 -237zM475 1169q0 -125 45 -243q95 56 137.5 134t42.5 163q0 57 -15.5 111.5t-31.5 74.5q-60 -6 -102 -45t-59 -89t-17 -106z" />
<glyph unicode="'" horiz-adv-x="210" d="M55 1061q0 387 119 387q38 0 70 -23t32 -57q0 -26 -14.5 -85t-42.5 -157t-31 -108q-12 -49 -57 -49q-30 0 -53 25t-23 67z" />
<glyph unicode="(" horiz-adv-x="425" d="M16 317q0 201 40 394.5t100.5 333t129.5 247.5t129 162.5t97 54.5q12 0 12 -10q0 -9 -12 -24q-105 -111 -194.5 -331.5t-139 -473t-49.5 -471.5q0 -88 8 -158t17.5 -102.5t17.5 -59t8 -37.5q0 -20 -14 -20q-27 0 -61 60t-61.5 179.5t-27.5 255.5z" />
<glyph unicode=")" horiz-adv-x="436" d="M-100 -176q0 7 14 26.5t42.5 60.5t53.5 83q289 493 289 1093q0 114 -13.5 201.5t-26.5 132.5t-13 58q0 26 16 26q28 0 65 -81.5t65 -216.5t28 -265q0 -157 -25.5 -304t-66 -257t-91.5 -206.5t-102.5 -161.5t-98 -112t-78.5 -69t-44 -22q-14 0 -14 14z" />
<glyph unicode="*" horiz-adv-x="610" d="M53 989q0 11 21.5 32.5t58.5 43.5l152 88l-168 90q-31 16 -47.5 34.5t-16.5 31.5q0 24 41 24q7 0 16 -1.5t21 -5t22.5 -6.5t27.5 -9.5t28 -10.5t33 -13l33 -13.5t36.5 -15t36.5 -15.5q4 17 13 55t14 58.5t13.5 52t15 49.5t15 36.5t17 27t17.5 8.5q19 0 33 -25.5t14 -64.5 q0 -64 -29 -187l184 93q39 20 68 20q9 0 14.5 -5t5.5 -11q0 -41 -237 -179q165 -76 207 -104q45 -31 45 -55q0 -25 -39 -25q-19 0 -43 6q-90 16 -244 88l-59 -215q-17 -61 -45 -61q-19 0 -33 27t-14 67q0 45 26 168q-190 -90 -233 -90q-21 0 -21 12z" />
<glyph unicode="+" horiz-adv-x="636" d="M31 633q0 21 18.5 34.5t58 19.5t76 7.5t95.5 1.5q2 9 7 29q12 49 19.5 75t20.5 63t26.5 54t28.5 17q18 0 31.5 -18.5t13.5 -45.5q0 -31 -19.5 -96.5t-21.5 -77.5q15 0 41.5 0.5t44 0.5t40 -0.5t37 -2t28 -4.5t20 -8.5t6.5 -13.5q0 -64 -240 -72q-17 -79 -32 -193 q-4 -25 -16 -37t-27 -12q-22 0 -39 22t-17 58q0 40 25 162h-19q-42 0 -67.5 0.5t-63 3.5t-56.5 11.5t-19 21.5z" />
<glyph unicode="," horiz-adv-x="364" d="M43 82q0 62 43.5 114t114.5 52q63 0 92 -39.5t29 -97.5q0 -53 -27.5 -115.5t-66 -111t-80.5 -81t-70 -32.5q-12 0 -12 10q0 7 24.5 44.5t56 87.5t43.5 81q-24 -12 -53 -12q-47 0 -70.5 28t-23.5 72z" />
<glyph unicode="-" horiz-adv-x="610" d="M92 535q0 26 17 42.5t48.5 23.5t59 9t66.5 2q20 0 61 -1t64 -1q13 0 42 1t46 1q45 0 45 -32q0 -23 -20 -45t-52 -29q-84 -17 -150 -17q-1 0 -22.5 -0.5t-37.5 0t-42.5 1.5t-46 4t-38.5 8t-29.5 13.5t-10.5 19.5z" />
<glyph unicode="." horiz-adv-x="329" d="M39 82q0 62 46.5 114t117.5 52q52 0 78 -29t26 -74q0 -61 -44.5 -113t-112.5 -52q-50 0 -80.5 26t-30.5 76z" />
<glyph unicode="/" horiz-adv-x="555" d="M-39 -31q0 23 16 54q36 70 80 169t80.5 183.5t97.5 236t95 236.5t112 281t111 280q16 45 57 45q23 0 40.5 -16.5t17.5 -40.5q0 -13 -6 -25q-99 -231 -154.5 -357.5t-191 -414t-296.5 -604.5q-11 -22 -24 -34.5t-21 -12.5q-14 0 -14 20z" />
<glyph unicode="0" horiz-adv-x="872" d="M68 391q0 153 34.5 308t94 279.5t147.5 203t186 78.5q25 0 52 -9q80 0 135.5 -57t80.5 -144.5t25 -195.5q0 -213 -59.5 -410t-170.5 -325.5t-245 -128.5q-79 0 -135.5 32.5t-87 90.5t-44 126t-13.5 152zM248 289q0 -212 76 -248q70 9 145.5 160t124.5 364.5t49 395.5 q0 208 -74 247q-71 -9 -147 -160t-125 -364t-49 -395z" />
<glyph unicode="1" horiz-adv-x="567" d="M74 815q0 19 16 35q99 84 159.5 154.5t135.5 201.5q14 51 76 51q41 0 75.5 -22.5t34.5 -56.5q0 -22 -41.5 -179t-107 -433.5t-109.5 -534.5q-8 -49 -73 -49q-42 0 -75.5 23.5t-33.5 62.5q0 50 62.5 357t136.5 579q-74 -125 -180 -226q-14 -14 -33 -14q-18 0 -30.5 15.5 t-12.5 35.5z" />
<glyph unicode="2" horiz-adv-x="757" d="M2 78q0 10 2 14q9 23 46 59.5t87 81t109 101.5t115.5 130t103.5 155.5t75.5 190t28.5 222.5q0 76 -16.5 122t-38.5 60h-2q-44 -10 -79 -54t-57.5 -112t-37 -144.5t-21.5 -164.5q-6 -61 -59 -61q-46 0 -89.5 43t-43.5 104q0 70 28 145.5t76 139.5t121 105.5t154 41.5 q126 0 188 -90t62 -231q0 -89 -23 -174t-64.5 -157t-89.5 -134.5t-107 -119.5t-107.5 -99.5t-100 -86.5t-76.5 -69q39 14 154.5 39.5t226.5 65.5q12 4 19 4q45 0 45 -74q0 -52 -25.5 -98.5t-64.5 -46.5q-71 0 -165.5 18.5t-131.5 18.5q-64 0 -127 -31q-12 -12 -33 -12 q-29 0 -55.5 33t-26.5 65z" />
<glyph unicode="3" horiz-adv-x="774" d="M0 295q0 86 32.5 126t100.5 40q32 0 54 -12t22 -33q0 -10 -14.5 -83.5t-14.5 -135.5q0 -111 76 -150h4q53 2 98.5 72t70 167t24.5 187q0 94 -31 145q-38 -18 -66 -18q-36 0 -54.5 15.5t-18.5 39.5t20 42t53 18q30 0 80 -8q110 141 199 333q-10 -2 -35 -2 q-46 0 -133.5 13.5t-128.5 13.5q-50 0 -82.5 -12.5t-48 -24.5t-25.5 -12q-22 0 -22 26q0 76 56.5 147t143.5 71q50 0 151 -13.5t142 -13.5q39 0 86 17.5t54 17.5q26 0 26 -29q0 -139 -119 -184q17 -17 17 -47q0 -70 -64 -165t-141 -163q69 -37 104 -106t35 -154 q0 -101 -43.5 -198t-126.5 -162.5t-184 -65.5q-137 0 -217 82.5t-80 218.5z" />
<glyph unicode="4" horiz-adv-x="737" d="M-59 338q0 12 10 22q80 68 252.5 338t310.5 508q14 51 76 51q41 0 75.5 -22.5t34.5 -56.5q0 -11 -2 -15q-121 -459 -186 -774q30 0 76 2t59 2q39 0 39 -26q0 -17 -21.5 -35t-52.5 -21q-53 -6 -118 -6q-33 -175 -48 -262q-11 -63 -69 -63q-39 0 -73 30t-34 72q0 33 5.5 70 t16.5 88t13 65q-209 0 -311 -10q-21 0 -37 14.5t-16 28.5zM104 383q82 6 215 6q41 237 117 535q-190 -367 -332 -541z" />
<glyph unicode="5" horiz-adv-x="755" d="M18 311q0 150 88 150q44 0 84.5 -29.5t40.5 -64.5q0 -8 -11 -79t-11 -110q0 -53 15.5 -83.5t51.5 -49.5q54 0 101 62.5t72.5 156t25.5 189.5q0 79 -18 140.5t-60.5 101.5t-105.5 40q-28 0 -49 -6q-41 -108 -105 -108q-17 0 -29 12t-12 31q0 57 74 98q40 229 47 448 q0 16 9 24.5t22 8.5q17 0 31 -13.5t14 -35.5v-27q51 72 129 72q44 0 95.5 -5t88.5 -5q55 0 96 14t46 14q22 0 22 -36q0 -98 -45 -143.5t-121 -45.5q-49 0 -136.5 10.5t-127.5 10.5q-28 0 -51 -13q-6 -134 -31 -247q36 8 88 8q62 0 119 -18t106 -54.5t78 -102t29 -151.5 q0 -115 -43 -224.5t-125.5 -184t-183.5 -74.5q-137 0 -222.5 89.5t-85.5 229.5z" />
<glyph unicode="6" horiz-adv-x="727" d="M37 401q9 159 56.5 304.5t110.5 243t132.5 171t124 108t82.5 34.5q36 0 65 -28.5t27 -57.5q-3 -24 -23 -35q-174 -92 -299 -377q72 72 154 72q76 0 127 -48.5t71 -124t15 -169.5q-5 -90 -34 -179t-76.5 -162.5t-119.5 -119t-155 -45.5q-75 0 -129.5 37.5t-82 99.5 t-39 131.5t-7.5 144.5zM190 287q-9 -188 84 -242q46 4 86.5 44.5t67.5 102.5t43.5 135t20.5 148q6 114 -18.5 192t-74.5 78q-43 0 -79 -34.5t-58 -85t-38.5 -116t-23.5 -119.5t-10 -103z" />
<glyph unicode="7" horiz-adv-x="716" d="M55 1042q0 76 57 147t144 71q70 0 187.5 -25t162.5 -25q50 0 90 21q3 19 15 29t26 10q33 0 33 -41q0 -67 -65 -129q-25 -71 -51.5 -139t-59.5 -146t-49 -117q16 0 45.5 2t42.5 2q39 0 39 -26q0 -17 -21.5 -34.5t-52.5 -20.5q-54 -7 -88 -7q-92 -245 -162 -602 q-9 -39 -61 -39q-50 0 -97 35t-47 88q0 74 57 242.5t130 277.5q-23 0 -79.5 -4t-88.5 -4q-37 0 -37 23q0 74 197 74h63q25 39 71 105.5t83.5 123t68.5 110.5q-27 -6 -59 -6q-48 0 -149.5 13.5t-157.5 13.5q-54 0 -88 -12.5t-50.5 -24.5t-25.5 -12q-23 0 -23 26z" />
<glyph unicode="8" horiz-adv-x="782" d="M20 266q0 120 69 228t179 141q-56 65 -87 129.5t-31 144.5q0 89 39.5 168t113.5 129.5t166 50.5q128 0 210.5 -69t82.5 -191q0 -107 -67 -204t-177 -131q78 -84 121 -156.5t43 -163.5q0 -149 -110 -255.5t-240 -106.5q-155 0 -233.5 82t-78.5 204zM174 248 q0 -60 24.5 -129t73.5 -92q94 1 158 77.5t64 176.5q0 26 -4.5 50t-17.5 49.5t-21.5 42.5t-31.5 44.5t-32.5 38.5t-39 42.5t-36.5 39.5q-62 -58 -99.5 -152t-37.5 -188zM336 975q0 -74 35.5 -134.5t105.5 -135.5q55 62 90 154t35 177q0 129 -84 176q-83 -15 -132.5 -81 t-49.5 -156z" />
<glyph unicode="9" horiz-adv-x="733" d="M76 756q5 90 34 179t76.5 162.5t119.5 119t155 45.5q75 0 129.5 -37.5t82 -100t39 -132t7.5 -144.5q-7 -134 -42 -258.5t-84 -215.5t-106 -166.5t-111.5 -122t-97 -72t-65.5 -25.5q-36 0 -65 28.5t-27 57.5q3 24 22 35q174 92 299 376q-71 -71 -153 -71q-76 0 -127 48.5 t-71 124t-15 169.5zM264 774q-6 -115 18 -192.5t74 -77.5q43 0 79 34.5t58 85.5t38.5 116.5t23.5 119.5t10 103q9 187 -84 241q-61 -6 -110.5 -73.5t-75.5 -161t-31 -195.5z" />
<glyph unicode=":" horiz-adv-x="542" d="M39 82q0 62 46.5 114t117.5 52q52 0 78 -29t26 -74q0 -61 -44.5 -113t-112.5 -52q-50 0 -80.5 26t-30.5 76zM176 696q0 62 46.5 114t117.5 52q52 0 78 -28.5t26 -73.5q0 -62 -44.5 -114t-112.5 -52q-50 0 -80.5 26t-30.5 76z" />
<glyph unicode=";" horiz-adv-x="540" d="M43 82q0 62 43.5 114t114.5 52q63 0 92 -39.5t29 -97.5q0 -53 -27.5 -115.5t-66 -111t-80.5 -81t-70 -32.5q-12 0 -12 10q0 7 24.5 44.5t56 87.5t43.5 81q-24 -12 -53 -12q-47 0 -70.5 28t-23.5 72zM176 696q0 62 46.5 114t117.5 52q52 0 78 -28.5t26 -73.5 q0 -62 -44.5 -114t-112.5 -52q-50 0 -80.5 26t-30.5 76z" />
<glyph unicode="&#x3c;" horiz-adv-x="675" d="M-16 543q1 38 25.5 77t56.5 56q28 14 118.5 59t152.5 77t143.5 77t135.5 80q9 6 19 6q15 0 24 -15t9 -36q0 -15 -11 -32.5t-33 -36t-46.5 -35.5t-60.5 -37.5t-65.5 -36t-72 -35.5t-69 -32.5t-66.5 -30.5t-56 -25q206 -102 355 -213q20 -14 20 -70q0 -39 -12.5 -70.5 t-32.5 -31.5q-9 0 -25.5 10.5t-51 32.5t-83.5 50t-140 70t-202 86q-32 11 -32 56z" />
<glyph unicode="=" horiz-adv-x="636" d="M33 535q0 15 9 26.5t30 18t39.5 10.5t55 5.5t58 2t65.5 0.5h17h41.5t44.5 0.5t43.5 0t43.5 -1.5t38.5 -2.5t34 -4t25.5 -6.5t18 -10t6 -13q0 -18 -20.5 -33t-53.5 -18q-176 -18 -282 -18h-9q-40 0 -64.5 1t-62.5 4.5t-57.5 13t-19.5 24.5zM84 725q0 16 21 32t53 19 q221 17 284 17q46 0 66 -0.5t63.5 -3.5t63.5 -12t20 -23q0 -23 -24 -37t-78 -19.5t-93 -6.5t-116 -1h-25h-35t-37 -0.5t-35 0t-34 1t-30 2t-26.5 4.5t-19.5 6.5t-13.5 9t-4.5 12.5z" />
<glyph unicode="&#x3e;" horiz-adv-x="776" d="M102 289q0 21 20 45.5t62 52t78.5 49t100 51t94.5 43.5t92 40q26 11 37 16q-172 89 -353 213q-22 14 -22 69q0 39 12.5 70t32.5 31q10 0 62 -30.5t117.5 -69.5t157 -83t167.5 -65q35 -8 35 -53q0 -37 -27 -79.5t-57 -56.5q-159 -77 -300 -154t-200.5 -111t-69.5 -34 q-17 0 -28 17t-11 39z" />
<glyph unicode="?" horiz-adv-x="686" d="M35 1020q0 16 7.5 50.5t23.5 84.5t45.5 101t68 95.5t97 72.5t126.5 28q91 0 160 -46t102 -116.5t33 -152.5q0 -88 -34 -175t-85 -159.5t-103.5 -141.5t-96 -146.5t-55.5 -149.5q-9 -50 -56 -50q-34 0 -67 25.5t-33 54.5q0 63 35 136t85 144t100 146t85 166.5t35 181.5 q0 60 -11 112.5t-36 90t-60 37.5q-36 -12 -59.5 -36.5t-39 -69t-25 -87.5t-26 -121.5t-34.5 -142.5q-14 -53 -65 -53q-42 0 -79.5 35.5t-37.5 85.5zM82 68q0 53 40 98t101 45q45 0 67.5 -25t22.5 -63q0 -53 -38.5 -98t-96.5 -45q-40 0 -68 23.5t-28 64.5z" />
<glyph unicode="@" horiz-adv-x="1454" d="M-4 477q0 119 32.5 238.5t97.5 225.5t153 188t207.5 130t252.5 48q129 0 237 -37t181 -99t124 -144.5t74 -171t23 -181.5q0 -148 -50.5 -278.5t-146.5 -214t-216 -83.5q-118 0 -174 57t-58 171q-47 -103 -103 -158t-112 -55q-84 0 -126 75t-42 197q0 105 30 222.5t81 218 t126.5 166t157.5 65.5q57 0 96 -49t42 -103h12q42 0 77.5 -33t35.5 -86q0 -33 -48.5 -245t-48.5 -299q0 -82 47 -82q54 0 114.5 86.5t102.5 228t42 281.5q0 69 -12 135.5t-41 132t-72.5 114t-112 79t-154.5 30.5q-119 0 -227.5 -46.5t-189.5 -126t-141 -182.5t-91 -219 t-31 -231q0 -181 81 -329.5t241 -223.5q33 -8 76 -8q69 0 126.5 15.5t93 37.5t62 44t46 37.5t32.5 15.5q21 0 37 -19t16 -39q0 -12 -4 -16q-121 -137 -309 -137q-132 0 -249.5 45t-206 127.5t-140 208t-51.5 276.5zM541 358q0 -106 37 -106q57 0 102 81.5t86 239.5l65 287 q0 78 -57 78q-46 0 -91 -63t-75 -154.5t-48.5 -190t-18.5 -172.5z" />
<glyph unicode="A" horiz-adv-x="811" d="M-104 330q0 15 14 26t37 11q3 0 121 -5q242 453 409 918l17 109q6 38 34 58.5t64 20.5q32 0 54 -18t22 -51q0 -26 -18 -214t-37.5 -441t-22.5 -429v-26q0 -166 37 -166q8 0 17 4.5t18.5 14.5t17.5 20.5t19 30t19.5 34.5t21.5 41.5t22 44.5t24.5 50.5t24.5 52.5 q18 37 37 37q12 0 12 -21q0 -18 -8 -37q-7 -17 -23.5 -60.5t-26.5 -69t-29 -67t-34.5 -67.5t-38 -57.5t-44.5 -49t-50.5 -30t-58.5 -12.5q-116 0 -133 313q-170 -10 -248 -10q-10 -24 -27 -67q-61 -148 -86 -193t-57 -45t-61 21t-29 48q0 14 15.5 45.5t50.5 93.5t53 97 l-74 4q-26 1 -40.5 13.5t-14.5 27.5zM197 358l213 -8q-2 27 -2 82q0 269 38 594q-126 -355 -249 -668z" />
<glyph unicode="B" horiz-adv-x="1013" d="M-90 147q0 34 30 63.5t66 29.5q19 0 35 -11.5t41.5 -39t42.5 -42.5q40 24 70 105.5t51.5 200t40 242.5t45 264t57.5 233q14 49 76 49q43 0 81 -26.5t38 -63.5q0 -12 -2 -18q-19 -61 -41 -169t-40.5 -207t-48 -212.5t-63.5 -200t-87.5 -154t-119.5 -88.5q102 -77 219 -77 q80 0 144.5 53t97.5 130.5t33 158.5q0 113 -66 176q-32 -4 -49 -4q-86 0 -86 34q0 22 23 32.5t57 10.5q19 0 55 -4q75 54 126.5 183t51.5 268q0 143 -53 246l-2 2q-69 35 -153 35q-124 0 -238 -80t-176 -217q-13 -31 -43 -31q-38 0 -76.5 47t-38.5 98q0 27 15 51 q64 106 188 169t262 63q127 0 241 -57t187.5 -167t73.5 -247q0 -128 -63 -237.5t-175 -162.5q64 -34 96.5 -92.5t32.5 -128.5q0 -66 -30.5 -131.5t-83.5 -119.5t-134 -87.5t-174 -33.5q-122 0 -226 16t-169.5 40.5t-102 53t-36.5 55.5z" />
<glyph unicode="C" horiz-adv-x="729" d="M-10 434q0 128 29.5 270t84 273t125 237.5t160 170t180.5 63.5q30 0 57.5 -10t39.5 -25q94 -46 94 -192q0 -87 -40.5 -255.5t-41.5 -213.5q-1 -36 -32 -56t-73 -20q-41 0 -70.5 17t-29.5 46q0 51 28 130.5t61 149.5t61 151t28 135q0 41 -14 69q-103 -2 -213 -162.5 t-180 -384t-70 -407.5q0 -139 48 -221t149 -82q59 0 113 25.5t99 73.5t77 92.5t69 107.5q21 35 39 35q10 0 10 -17q0 -14 -8 -35q-19 -49 -45 -99.5t-69.5 -110t-93 -104.5t-117 -75t-140.5 -30q-81 0 -143 35t-99 97.5t-55 143t-18 178.5z" />
<glyph unicode="D" horiz-adv-x="1011" d="M-90 147q0 34 30 63.5t66 29.5q19 0 35 -11.5t41.5 -39t42.5 -42.5q40 24 70 105.5t51.5 200t40 242.5t45 264t57.5 233q17 55 90 55q42 0 75.5 -22t33.5 -54q0 -2 -7 -33t-20.5 -92t-25.5 -120q-12 -62 -18.5 -96.5t-20 -100t-24 -106.5t-26 -102t-31 -101.5t-35 -90.5 t-41 -83.5t-46 -65t-52.5 -51t-59 -27.5q39 -31 90 -53t95 -22q80 0 150 66.5t117.5 172.5t81.5 238.5t50 265t16 252.5q0 215 -53 285l-2 2q-67 34 -154 34q-124 0 -234.5 -78.5t-172.5 -215.5q-13 -31 -43 -31q-38 0 -76.5 47t-38.5 98q0 39 39.5 89.5t102 95t149.5 75.5 t172 31q109 0 203.5 -47.5t159.5 -127t102 -185.5t37 -222q0 -154 -46 -312t-124.5 -286.5t-195 -210t-245.5 -81.5q-88 0 -165 12.5t-128 32t-88 42.5t-54 43t-17 35z" />
<glyph unicode="E" horiz-adv-x="743" d="M-39 276q0 141 71 235.5t179 127.5q-109 73 -109 209q0 129 66 271t170 238.5t205 96.5q34 0 71.5 -15.5t49.5 -33.5q112 -53 112 -203q0 -68 -27.5 -198.5t-29.5 -172.5q-1 -35 -36.5 -55t-78.5 -20q-38 0 -64 16t-26 47q0 49 22.5 114.5t50 119.5t50 117.5t22.5 109.5 q0 47 -22 84h-10q-66 0 -149 -99.5t-140 -235.5t-57 -236q0 -111 75 -131q32 4 45 4q33 0 53.5 -10.5t20.5 -30.5q0 -22 -20.5 -32.5t-51.5 -10.5q-41 0 -75 12q-78 -24 -126 -107.5t-48 -177.5q0 -83 40.5 -136.5t120.5 -53.5q246 0 423 290q2 2 3 4t2 3q21 35 39 35 q11 0 11 -15q0 -13 -9 -37q-7 -19 -19.5 -46.5t-37.5 -69.5t-55.5 -82.5t-75 -82.5t-94 -73.5t-114.5 -51.5t-134 -20q-143 0 -218 88.5t-75 214.5z" />
<glyph unicode="F" horiz-adv-x="698" d="M-193 586q0 26 23 44.5t64 18.5q85 0 155 -57q53 -4 158 -8q51 274 143 598q9 31 39 55.5t66 34.5q-133 18 -228 18q-22 0 -65.5 -4t-65.5 -4q-33 0 -33 29q0 30 33 69t66 43q76 11 172 11q52 0 156 -4.5t153 -4.5q31 0 90 6.5t84 6.5t38 -25t13 -61q0 -39 -15 -69 t-42 -34q-41 -6 -86 -6q-70 0 -182 17q6 -6 9 -23t-1 -29q-92 -359 -154 -630q51 -1 129 -2.5t120 -2t87.5 -3t65.5 -8t20 -13.5q0 -43 -274 -43q-103 0 -164 2q-46 -207 -98 -465q-6 -26 -25.5 -39.5t-44.5 -13.5q-33 0 -59.5 22t-26.5 58q-1 18 3 74q2 35 3 62q0 16 -1 28 q-2 34 -11 86t-36.5 101t-72.5 95l-121 6q-40 1 -62 20t-22 44zM115 514q39 -64 57 -143q3 23 23 141q-53 0 -80 2z" />
<glyph unicode="G" horiz-adv-x="933" d="M33 397q0 108 20.5 228.5t57 237t90.5 223t117.5 186.5t141.5 128t158 48q30 0 57.5 -10t39.5 -25q116 -57 116 -260q0 -79 -20.5 -217.5t-22.5 -163.5q-3 -37 -32 -55.5t-70 -18.5t-71.5 17t-30.5 45q0 71 61.5 256t61.5 264q0 54 -21 94q-86 -1 -172.5 -105.5 t-147.5 -256.5t-99 -324t-38 -309q0 -258 123 -258q34 0 67 25.5t61.5 73t51 98t46.5 116.5q10 23 33.5 36t50.5 13q37 0 62.5 -23.5t25.5 -66.5q0 -22 -50 -289q153 142 234 312q14 33 35 33q14 0 14 -21q0 -9 -8 -33q-101 -249 -301 -420l-51 -200q-59 -227 -160 -339 t-203 -112q-67 0 -121.5 43.5t-54.5 110.5q0 50 22 99.5t45.5 83t82.5 84t88.5 72t107.5 77.5q30 21 45 32q54 233 64 297q-48 -108 -113 -175.5t-139 -67.5q-86 0 -144.5 56t-84 147.5t-25.5 213.5zM156 -547q0 -25 14 -45t41 -20t55.5 20t60 64t62.5 128t55 199 q-62 -45 -100.5 -75.5t-88 -78.5t-74.5 -96t-25 -96z" />
<glyph unicode="H" horiz-adv-x="978" d="M-195 588q0 25 24 43t65 18q78 0 139 -55q61 -2 182 -2q86 460 203 794q20 56 84 56q39 0 71.5 -21.5t32.5 -48.5q0 -14 -32.5 -127.5t-82 -301.5t-81.5 -347l243 12q76 378 195 789q7 23 31.5 35t56.5 12q40 0 70 -17.5t30 -46.5q0 -17 -32 -133t-80.5 -300t-77.5 -329 q118 5 123 5q121 0 121 -39q0 -17 -14 -26.5t-74 -19t-179 -16.5l-104 -489q-11 -47 -66 -47q-33 0 -60.5 22.5t-27.5 57.5q0 66 72 448q-156 -4 -248 -4q-89 -378 -102 -473q-6 -47 -68 -47q-37 0 -65.5 20.5t-28.5 55.5q1 19 5 71q3 39 3 69q-1 10 -1 20q-2 36 -11 88 t-40 103.5t-83 100.5l-109 8q-39 3 -61.5 21t-22.5 41zM100 514q48 -71 70 -176q3 15 13.5 77t17.5 97q-33 2 -101 2z" />
<glyph unicode="I" horiz-adv-x="659" d="M-43 848q0 96 40 203t103 194.5t148.5 145t169.5 57.5q97 0 159 -60t62 -184q0 -211 -55.5 -464t-184.5 -717q-11 -39 -71 -39q-42 0 -75.5 19.5t-33.5 51.5q0 18 44 172t96.5 338.5t96.5 393.5t44 325q0 88 -45 107q-67 -3 -149.5 -108t-139.5 -250.5t-57 -256.5 q0 -139 94 -164q33 -9 33 -28q0 -8 -10 -14.5t-29 -6.5q-61 0 -109.5 27t-75.5 70t-41 91t-14 97z" />
<glyph unicode="J" horiz-adv-x="894" d="M-14 543q0 90 21 194t56.5 204.5t87 194t109.5 163.5t126.5 112.5t135.5 42.5q324 0 324 -573q0 -218 -53 -444.5t-142 -409.5t-216.5 -299.5t-264.5 -116.5q-78 0 -126 52t-48 128q0 82 44 151.5t105 69.5q17 0 17 -18t-15 -39q-30 -46 -30 -105q0 -67 39.5 -115 t95.5 -48q17 0 35 6q201 175 321 844q58 312 58 532q0 295 -123 328q-79 0 -167 -149.5t-144 -350t-56 -352.5q0 -100 20.5 -147.5t79.5 -47.5q42 0 80.5 20.5t64.5 41t36 20.5q12 0 12 -16q0 -20 -19.5 -52.5t-51.5 -65t-81.5 -56t-101.5 -23.5q-117 0 -173 88.5t-56 235.5 z" />
<glyph unicode="K" horiz-adv-x="724" d="M-53 76q0 37 6.5 90t14.5 95t21.5 114t20.5 112q-12 15 -12 39q0 38 33 68q89 438 198 807q14 53 80 53q39 0 71 -24t32 -62q0 -21 -35.5 -153t-85 -317t-72.5 -300q14 -5 25 -14q160 208 249 370.5t218 464.5q14 33 49 33q37 0 70.5 -31t33.5 -69q0 -28 -45 -121.5 t-117.5 -213.5t-181 -255t-217.5 -227q39 -48 68 -124t42 -135.5t33 -104t48 -44.5q47 0 113 90t118 199q12 26 31 26q16 0 16 -20q0 -12 -6 -27q-24 -59 -44 -104.5t-54.5 -107t-67.5 -101.5t-78.5 -69t-91.5 -29q-39 0 -68 17.5t-47 45t-35 73.5t-28.5 90.5t-30.5 109 t-39 116.5q-73 -327 -82 -387q-4 -26 -24.5 -40.5t-46.5 -14.5q-32 0 -57 21.5t-25 60.5z" />
<glyph unicode="L" horiz-adv-x="774" d="M-158 16q0 45 44 91.5t98 70.5q43 46 76.5 142t56 210t45 242t50.5 245.5t64.5 213.5t95 153.5t134.5 57.5q26 0 54.5 -13.5t29.5 -13.5q74 -34 101.5 -107.5t27.5 -181.5q0 -43 -5 -131.5t-5 -130.5q0 -20 3 -56t3 -52q0 -43 -29 -66.5t-70 -23.5q-108 0 -108 133 q0 71 40 236.5t40 234.5q0 65 -25 108q-15 0 -31 -4q-34 -10 -67 -113t-66 -253t-70 -307.5t-93.5 -301t-122.5 -209.5q16 -3 69.5 -14.5t100 -17.5t98.5 -6q64 0 134 34t123.5 82.5t88.5 87t49 60.5q16 26 33 26q14 0 14 -18q0 -11 -6 -29q-8 -24 -38 -70t-82 -105 t-112.5 -111t-138.5 -87.5t-153 -35.5q-84 0 -164.5 21.5t-110.5 21.5q-42 0 -71 -5.5t-40 -12t-22 -12t-22 -5.5q-21 0 -21 22z" />
<glyph unicode="M" horiz-adv-x="1150" d="M-115 78q0 18 27 78t75 166t104.5 240.5t125.5 337t127 419.5q4 20 8 51q6 38 34.5 59t64.5 21q31 0 53 -18.5t22 -51.5q0 -46 -12 -208q-12 -163 -22 -391q-8 -177 -8 -348q0 -49 1 -97q200 494 338 981q6 78 30 114.5t79 36.5q32 0 54 -18t22 -51q0 -15 -39 -466.5 t-39 -617.5q0 -192 37 -192q8 0 17 4.5t18.5 14.5t17.5 20.5t19 30t19.5 34.5t21.5 41.5t22 44.5t24.5 50.5t24.5 52.5q18 37 37 37q12 0 12 -21q0 -18 -8 -37q-7 -17 -23.5 -60.5t-26.5 -69t-29 -67t-34.5 -67.5t-38 -57.5t-44.5 -49t-50.5 -30t-58.5 -12.5 q-139 0 -139 454q0 205 34 553q-133 -468 -295 -889q-10 -28 -39 -43.5t-63 -15.5q-69 0 -72 51q-12 180 -12 416q0 277 16 512q-244 -847 -313 -993q-14 -29 -43 -29q-27 0 -51.5 24.5t-24.5 55.5z" />
<glyph unicode="N" horiz-adv-x="864" d="M-102 20q0 7 20.5 47.5t58.5 131.5t83 221.5t103 358.5t109 503q0 47 2 72q1 41 39 65.5t84 24.5q30 0 50 -11t20 -32q0 -34 -4 -100t-4 -99q0 -178 26.5 -383.5t50 -318.5t60.5 -269q82 716 172 1162q7 34 36.5 51.5t65.5 17.5q29 0 48.5 -10t19.5 -27q0 -13 -13.5 -52 t-41 -130t-63 -224t-87.5 -377.5t-106 -547.5q4 -14 4 -28q0 -32 -35 -59t-74 -27q-49 0 -63 51q-151 542 -180 1003q-44 -298 -87 -501t-133 -506q-6 -20 -32 -31.5t-58 -11.5q-71 0 -71 36z" />
<glyph unicode="O" horiz-adv-x="892" d="M-6 469q0 62 5 109.5t19.5 102.5t48 97.5t83.5 69.5q-25 60 -25 139q0 109 47.5 212t137.5 172t200 69q82 0 144 -28t99.5 -72.5t60.5 -108t31.5 -126.5t8.5 -136q0 -158 -42.5 -331t-113.5 -317.5t-173.5 -238.5t-211.5 -94q-152 0 -235.5 134t-83.5 347zM168 338 q0 -253 117 -303q90 1 180.5 190.5t144.5 442.5t54 454v12q0 44 -1.5 69t-7.5 63.5t-22.5 65.5t-42.5 46q-77 -1 -144 -70t-104 -171t-37 -203q0 -163 96 -229q21 -15 21 -31q0 -15 -23 -15q-74 0 -163 70l-9 -29q-59 -201 -59 -341v-21z" />
<glyph unicode="P" horiz-adv-x="915" d="M8 1139q0 27 22 64.5t65 77t98 73t128.5 55t149.5 21.5q207 0 335 -136t128 -366q0 -108 -33.5 -209t-97.5 -185t-171 -135t-241 -51h-22q-58 -256 -70 -330q-6 -32 -53 -32q-37 0 -68 19.5t-31 49.5q0 27 2 57t7.5 67.5t9 61t11.5 70.5t11 64q-30 7 -47.5 21.5 t-17.5 27.5q0 18 31 18q21 0 45 -8q64 380 178 766q11 43 61 43q44 0 87.5 -31.5t43.5 -68.5q0 -11 -2 -15q-91 -336 -178 -694q114 32 206 131t140.5 229t48.5 263q0 134 -47 237q-69 35 -153 35q-123 0 -239.5 -83.5t-178.5 -221.5q-13 -31 -43 -31q-38 0 -76.5 47.5 t-38.5 98.5z" />
<glyph unicode="Q" horiz-adv-x="888" d="M-6 16q0 22 17 40t46 18q60 0 117 -23q91 12 175 98.5t145 213.5t106.5 276.5t68.5 292.5t23 256q0 171 -51 207q-14 6 -37 6q-61 0 -125 -69t-115 -181t-83.5 -268.5t-32.5 -319.5q0 -203 86 -231q13 -4 22 -12.5t9 -16.5q0 -14 -31 -14q-68 0 -121 34t-84 91.5 t-47 127.5t-16 148q0 200 68 378.5t178.5 284t230.5 105.5q160 0 245.5 -112.5t85.5 -329.5q0 -124 -27 -258t-81 -262.5t-127.5 -233t-175 -172.5t-215.5 -78q11 -7 60 -37.5t74 -42.5t72.5 -32.5t98.5 -28.5t111 -8q38 0 38 -33q0 -38 -48.5 -86.5t-98.5 -48.5 q-61 0 -121.5 29t-109 70t-94.5 82t-94.5 70t-92.5 29q-24 0 -36.5 11.5t-12.5 29.5z" />
<glyph unicode="R" horiz-adv-x="894" d="M0 1159q0 27 21.5 64t64 76.5t97.5 73.5t129 55.5t151 21.5q129 0 239 -67t173 -177t63 -235q0 -87 -28 -169.5t-81.5 -152t-141.5 -115.5t-198 -55q39 -57 69 -149.5t52 -147.5t54 -55q47 0 113 90t118 199q12 26 31 26q16 0 16 -20q0 -12 -6 -27q-22 -57 -43 -103.5 t-55 -107.5t-67.5 -101.5t-78 -69.5t-90.5 -29q-38 0 -66.5 16.5t-46.5 42t-35 70t-28 85t-29 103.5t-35 111q-81 -288 -92 -363q-4 -26 -24.5 -40.5t-46.5 -14.5q-32 0 -57 21.5t-25 60.5q0 35 24 163.5t49 233.5q-26 17 -26 49q0 48 57 66q21 80 47 169.5t69 233t62 209.5 q9 29 34 44.5t56 15.5q37 0 66 -18t29 -46q0 -10 -2 -14q-28 -106 -90.5 -322.5t-85.5 -298.5q11 -5 34 -24q152 43 242 189.5t90 326.5q0 137 -53 252q-67 34 -154 34q-123 0 -234 -79t-173 -216q-13 -30 -43 -30q-38 0 -76.5 47t-38.5 98z" />
<glyph unicode="S" horiz-adv-x="813" d="M-129 215q0 35 37.5 63.5t87.5 28.5q38 0 71 -21t61 -50.5t61 -59.5t85 -51t117 -21q86 0 123 32t37 75q0 33 -22 69t-57 70.5t-77.5 72t-85.5 81.5t-78 92t-57 110.5t-22 129.5q0 124 66.5 270t167 247t189.5 101q42 0 84.5 -20t45.5 -41q56 -27 81 -78t25 -105 q0 -52 -57 -379q-17 -102 -105 -102q-44 0 -72 23t-28 75q0 44 22.5 107.5t50 118t50 118t22.5 107.5q0 46 -24 86h-5q-67 0 -141 -80q-76 -84 -125 -198t-49 -201q0 -55 23.5 -106.5t58.5 -89t76 -80.5t76 -81.5t58.5 -92t23.5 -111.5q0 -71 -31 -130.5t-72 -84.5 q-23 -52 -108 -90.5t-191 -38.5q-87 0 -169 39t-201 149q-23 23 -23 47z" />
<glyph unicode="T" horiz-adv-x="681" d="M37 1292q0 36 32.5 81.5t65.5 49.5q76 11 176 11q53 0 161 -4.5t159 -4.5q33 0 93 6.5t85 6.5t38 -25t13 -61q0 -39 -15 -69t-42 -34q-41 -8 -101 -8q-47 0 -153 8q10 -17 2 -41q-164 -658 -268 -1165q-6 -26 -25.5 -39.5t-44.5 -13.5q-33 0 -59.5 22t-26.5 58 q0 70 67.5 431.5t155.5 680.5q15 52 74 78q-81 8 -184 8q-29 0 -85 -4t-83 -4q-35 0 -35 32z" />
<glyph unicode="U" horiz-adv-x="1112" d="M-43 848q0 96 40 203t103 194.5t148.5 145t169.5 57.5q34 0 65 -14q75 -11 119.5 -68.5t44.5 -161.5t-27.5 -242t-60.5 -250t-60.5 -234.5t-27.5 -198.5q0 -68 21.5 -102t56.5 -34q36 0 76 80.5t67 174.5t49 198q90 439 189 805q6 24 27 36.5t49 12.5q44 0 78 -28t34 -76 q0 -53 -61.5 -296t-123 -503t-61.5 -354q0 -70 29 -70q16 0 34.5 13.5t37 37.5t36 49.5t35.5 59t29 55.5t24 48.5t15 29.5q18 35 35 35q14 0 14 -21q0 -16 -8 -35q-1 -2 -11.5 -28.5t-16.5 -42t-21 -48.5t-26.5 -55.5t-30 -55.5t-35.5 -55t-39 -47t-43 -40t-46 -25t-50 -10 q-68 0 -110 55q-38 50 -38 157v21q-92 -241 -217 -241q-79 0 -131.5 77t-52.5 207q0 89 33.5 224t74 255.5t74 271t33.5 265.5q0 95 -45 111q-67 -3 -149.5 -108t-139.5 -250.5t-57 -256.5q0 -139 94 -164q33 -9 33 -28q0 -8 -10 -14.5t-29 -6.5q-61 0 -109.5 27t-75.5 70 t-41 91t-14 97z" />
<glyph unicode="V" horiz-adv-x="946" d="M-43 788q0 105 40 223t103 214t148.5 159.5t169.5 63.5q102 0 176 -61t74 -183q0 -109 -21 -284.5t-56 -408.5t-46 -316q27 70 104 257t130 321.5t109.5 314t78.5 313.5q9 49 71 49q44 0 80.5 -28t36.5 -76q0 -19 -2 -27q-26 -114 -117 -309t-188 -371.5t-194 -366.5 t-130 -288q-6 -17 -26 -17q-39 0 -85 60.5t-46 134.5q0 108 33 312.5t66.5 425.5t33.5 368q0 106 -45 123q-67 -3 -149.5 -119.5t-139.5 -277.5t-57 -285q0 -154 94 -179q33 -9 33 -28q0 -8 -10 -14.5t-29 -6.5q-62 0 -110 28.5t-75 74.5t-41 98t-14 106z" />
<glyph unicode="W" horiz-adv-x="1431" d="M-43 848q0 96 40 203t103 194.5t148.5 145t169.5 57.5q46 0 90 -16t80.5 -46.5t59 -80.5t22.5 -113q0 -104 -31 -240.5t-68.5 -245.5t-68.5 -230t-31 -197q0 -68 21.5 -102t56.5 -34q36 0 76 81.5t66 172.5t50 199q122 558 189 805q6 24 27 36.5t49 12.5q44 0 78 -28 t34 -76q0 -17 -2 -27q-16 -67 -88 -345.5t-116 -481t-44 -297.5q0 -76 45 -76q26 0 56 26q113 155 206 501.5t160 754.5q9 49 70 49q45 0 82 -29t37 -78q0 -73 -51.5 -256t-126 -383t-170.5 -377.5t-172 -230.5q-28 -45 -77 -76.5t-93 -31.5q-68 0 -110 56q-39 51 -38 157 v20q-92 -241 -217 -241q-79 0 -131.5 77t-52.5 207q0 89 33.5 224t74 255.5t74 271t33.5 265.5q0 95 -45 111q-67 -3 -149.5 -108t-139.5 -250.5t-57 -256.5q0 -139 94 -164q33 -9 33 -28q0 -8 -10 -14.5t-29 -6.5q-61 0 -109.5 27t-75.5 70t-41 91t-14 97z" />
<glyph unicode="X" horiz-adv-x="776" d="M-139 39q0 13 14 24q122 102 236.5 234t203.5 274q-25 307 -25 563q0 118 5 224q3 43 40 69.5t79 26.5q33 0 53 -15t20 -46q0 -34 -1 -139t-1 -173q0 -172 4 -266q76 173 163.5 313.5t215.5 303.5q22 28 68 28q41 0 77 -22t36 -49q0 -20 -21 -35q-164 -134 -305.5 -299.5 t-228.5 -337.5q13 -325 31 -459.5t61 -134.5q20 0 53 51.5t75.5 132t61.5 109.5q21 35 37 35q12 0 12 -19q0 -18 -8 -37q-8 -20 -24 -60.5t-27 -68.5t-29 -67.5t-33 -67.5t-36.5 -58t-42 -48.5t-46.5 -30.5t-53 -12q-53 0 -89.5 42.5t-65 149t-47.5 287.5 q-107 -209 -304 -461q-23 -29 -61 -29q-35 0 -66.5 21.5t-31.5 46.5z" />
<glyph unicode="Y" horiz-adv-x="1148" d="M6 848q0 96 40 203t103 194.5t148.5 145t169.5 57.5q33 0 65 -14q75 -11 119.5 -68.5t44.5 -161.5q0 -75 -71.5 -377.5t-71.5 -377.5q0 -134 59 -134q30 0 64 45t65.5 123t59 162.5t53.5 181.5q100 441 141 586q12 45 60 45q41 0 76.5 -33.5t35.5 -81.5q0 -16 -2 -24 q-136 -621 -286 -1206q179 117 270 303q14 33 35 33q14 0 14 -21q0 -9 -8 -33q-60 -148 -144.5 -238.5t-193.5 -150.5l-12 -47q-60 -227 -160.5 -339t-202.5 -112q-66 0 -121 43.5t-55 110.5q0 52 21.5 97t45 73t80.5 62.5t86.5 48t104.5 46.5q19 9 29 13l86 381 q-106 -227 -230 -227q-68 0 -112.5 63t-44.5 178q0 116 45.5 300.5t91 355t45.5 252.5q0 70 -45 86q-67 -3 -149.5 -108t-139.5 -250t-57 -255q0 -141 94 -166q33 -9 33 -28q0 -8 -10 -14.5t-29 -6.5q-61 0 -109.5 27t-75.5 70t-41 91t-14 97zM373 -362q0 -27 13.5 -46.5 t39.5 -19.5q55 0 113 79t106 263q-41 -18 -72.5 -34t-71 -42.5t-66 -54t-44.5 -65.5t-18 -80z" />
<glyph unicode="Z" horiz-adv-x="774" d="M-74 -336q0 38 10.5 71.5t26.5 59t44 51t53 42.5t65 37.5t68 33t74 32.5q11 5 16 7q-7 113 -66 158q-31 -9 -49 -9q-28 0 -43.5 9.5t-15.5 25.5t17 23.5t38 7.5q23 0 69 -8q100 48 186 208.5t132.5 354t46.5 360.5q0 229 -90 279q-2 0 -4 2q-83 0 -169 -127t-139 -300.5 t-53 -313.5q0 -168 82 -193q13 -4 22 -12.5t9 -16.5q0 -14 -31 -14q-86 0 -145.5 50t-85 123t-25.5 161q0 112 39 234t103.5 223t159 167t194.5 66q159 0 237 -112t78 -314q0 -170 -53.5 -345.5t-160.5 -318.5t-242 -190q77 -36 108 -106q111 60 196.5 141.5t145.5 204.5 q14 33 35 33q14 0 14 -21q0 -9 -8 -33q-44 -107 -106 -188.5t-121.5 -127t-134.5 -83.5q2 -14 2 -43q0 -99 -48.5 -201t-132.5 -170.5t-174 -68.5q-27 0 -55.5 7.5t-56 23.5t-45 47.5t-17.5 72.5zM-2 -362q0 -30 15 -49t42 -19q73 0 139.5 108t84.5 238q-42 -17 -75.5 -33.5 t-74 -43t-67.5 -54.5t-45.5 -66.5t-18.5 -80.5z" />
<glyph unicode="[" horiz-adv-x="456" d="M-43 -225q0 17 12 35q47 304 159.5 830t211.5 882q-4 8 -4 14q0 26 26 49t64 23q10 0 30.5 -1t30.5 -1q30 -1 86.5 2.5t81.5 3.5q45 0 45 -33q0 -49 -55.5 -68.5t-155.5 -19.5q-30 0 -96 4q-35 -134 -73 -300.5t-67.5 -304t-65 -320.5t-54 -281.5t-48 -258t-34.5 -184.5 q92 9 205 9q55 0 55 -41q0 -25 -25.5 -48.5t-62.5 -23.5l-219 -4q-47 0 -47 37z" />
<glyph unicode="\" horiz-adv-x="493" d="M195 1454q0 28 17 43.5t40 15.5q24 0 40.5 -17t16.5 -50q-4 -203 -6 -416.5t-1.5 -356t1 -372.5t0.5 -356q0 -68 -22 -68q-10 0 -18 16t-9 44q-25 356 -39 670t-16.5 461.5t-3.5 385.5z" />
<glyph unicode="]" horiz-adv-x="462" d="M-209 -229q0 49 55.5 68.5t155.5 19.5q30 0 96 -4q35 134 73 300.5t67.5 303.5t65.5 320.5t54 280.5t48 258.5t34 184.5q-82 -8 -204 -8q-56 0 -56 41q0 25 25.5 48.5t62.5 23.5l219 4q48 0 48 -37q0 -16 -13 -35q-47 -306 -159.5 -831.5t-210.5 -880.5q4 -8 4 -14 q0 -26 -26 -49t-64 -23q-10 0 -31 1t-31 1q-30 1 -86.5 -2.5t-81.5 -3.5q-45 0 -45 33z" />
<glyph unicode="^" horiz-adv-x="645" d="M100 1178q0 5 4 10.5t19 22.5t36.5 43t64.5 85t95 136q12 19 42 32t59 13q39 0 47 -25q31 -92 62 -158t50 -90t30.5 -40t11.5 -25q0 -21 -35 -40.5t-70 -19.5q-26 0 -53.5 27t-50 70.5t-38.5 81.5t-28 75q-89 -145 -139 -193q-36 -34 -62 -34q-18 0 -31.5 8.5t-13.5 20.5 z" />
<glyph unicode="_" horiz-adv-x="636" d="M-109 -92q0 26 18 47.5t46 21.5h633q39 0 39 -40q0 -28 -19.5 -52t-48.5 -24h-620q-23 0 -35.5 13.5t-12.5 33.5z" />
<glyph unicode="`" horiz-adv-x="847" d="M242 1382q0 33 25.5 59.5t54.5 26.5t42.5 -22t31.5 -76.5t44 -97.5q29 -47 59.5 -86t42 -56t11.5 -36q0 -15 -16 -15q-34 0 -105 52t-130.5 126t-59.5 125z" />
<glyph unicode="a" d="M-12 266q0 117 32.5 252t86 251.5t133 193.5t163.5 77q57 0 96 -49t42 -102h12q42 0 77.5 -33t35.5 -86q0 -21 -2 -31q-21 -98 -55.5 -234t-53 -219t-18.5 -126q0 -51 28 -51q31 0 79 74.5t124 232.5q7 16 18 25.5t19 9.5q12 0 12 -21q0 -16 -8 -35q-164 -407 -315 -407 q-58 0 -99 42t-41 146q0 25 2 39q-52 -106 -107 -166.5t-104 -60.5q-80 0 -118.5 75.5t-38.5 202.5zM172 227q0 -100 35 -100q55 0 116 122.5t101 299.5l65 295q0 78 -55 78q-64 0 -127 -130t-99 -291.5t-36 -273.5z" />
<glyph unicode="b" horiz-adv-x="729" d="M-6 309q0 153 45 361q132 616 162 723q10 39 40 59.5t66 20.5t61 -20.5t25 -55.5q0 -9 -94 -371q50 18 115 18q114 0 170.5 -93t56.5 -242q0 -107 -28 -224t-78 -217q131 15 194 148q14 33 35 33q14 0 14 -21q0 -17 -8 -33q-39 -91 -110.5 -141.5t-165.5 -56.5 q-132 -211 -299 -211q-96 0 -148.5 80.5t-52.5 242.5zM160 272q0 -186 94 -186q55 0 106 125q-116 33 -194 162q-6 -56 -6 -101zM221 621q0 -116 40.5 -206.5t125.5 -125.5q64 212 64 432q0 104 -19.5 169t-58.5 68q-61 0 -106.5 -101.5t-45.5 -235.5z" />
<glyph unicode="c" horiz-adv-x="712" d="M-4 356q0 114 31.5 235.5t83.5 221t126.5 163.5t153.5 64q62 0 111 -39q65 -11 96 -76.5t31 -156.5q0 -121 -37 -197.5t-115 -76.5q-36 0 -64 18t-28 45q0 26 20 61t44.5 66.5t44.5 84t20 110.5q0 31 -16.5 55t-32.5 24q-55 0 -119 -106.5t-106.5 -258.5t-42.5 -276 q0 -221 149 -221q57 0 116.5 33t107.5 84t83.5 102.5t59.5 100.5q13 30 32 30q15 0 15 -20q0 -13 -6 -31q-29 -72 -72 -140t-102 -132.5t-137 -103.5t-162 -39q-99 0 -164.5 51.5t-93 133.5t-27.5 191z" />
<glyph unicode="d" horiz-adv-x="786" d="M-12 266q0 117 32.5 252t86 251.5t133 193.5t163.5 77q71 0 107 -98q58 260 121 490q12 45 65 45q42 0 77.5 -32t35.5 -85q0 -43 -43.5 -204.5t-95 -337t-95 -358.5t-43.5 -263q0 -86 41 -86q23 0 49 23t57 75.5t46 82t47 95.5q9 20 14 29q7 16 18 25.5t19 9.5 q13 0 13 -21q0 -14 -9 -35q-6 -14 -20.5 -52.5t-25 -64.5t-29.5 -66t-35.5 -68t-42 -59.5t-51 -51t-59.5 -32.5t-70 -13q-60 0 -94.5 58.5t-34.5 152.5q0 18 2 30q-53 -113 -111.5 -177t-110.5 -64q-80 0 -118.5 75.5t-38.5 202.5zM172 227q0 -100 35 -100q58 0 115.5 124.5 t107.5 326.5q30 145 62 280q-5 64 -58 64q-64 0 -127 -130t-99 -291.5t-36 -273.5z" />
<glyph unicode="e" horiz-adv-x="673" d="M-4 340q0 114 31.5 238t83 226.5t125.5 169t151 66.5q75 0 117 -34q62 -7 93.5 -58.5t31.5 -130.5q0 -75 -27 -157.5t-73.5 -153t-116.5 -116.5t-148 -46q-38 0 -78 12q0 -245 136 -245q40 0 77.5 11.5t69 35t56.5 46.5t50 57.5t39.5 56.5t34 55.5t25.5 42.5q17 28 33 28 q14 0 14 -20q0 -14 -6 -29q-164 -409 -471 -409q-125 0 -186.5 98.5t-61.5 255.5zM190 412q6 -2 17 -2q57 0 128 87t119 202t48 194q0 68 -35 68q-56 0 -117 -86t-104.5 -213t-55.5 -250z" />
<glyph unicode="f" horiz-adv-x="632" d="M-106 -305q0 226 112 760q23 109 36.5 171t36 160t38.5 156t40 139t45 129.5t48.5 107.5t56 92.5t61.5 65t71 45t79 13.5q36 0 62 -17t32 -42q31 -16 55.5 -59t24.5 -118q0 -118 -24.5 -237.5t-66 -218.5t-95 -186.5t-110.5 -148t-115 -96.5t-107 -38q-5 -28 -24 -121 t-29 -150q92 12 161.5 31t137.5 53.5t121 92t92 137.5q15 30 33 30q14 0 14 -22q0 -14 -6 -29q-71 -173 -207 -264t-338 -129q55 -26 94 -127.5t39 -212.5q0 -114 -49 -189t-152 -75q-167 0 -167 297zM14 -469q0 -32 10 -51t25 -19q39 0 68.5 67.5t29.5 166.5q0 128 -55 252 q-50 -234 -64 -308.5t-14 -107.5zM186 440q89 79 188.5 270t162.5 381t63 287q0 42 -7 60t-34 18q-129 0 -373 -1016z" />
<glyph unicode="g" horiz-adv-x="776" d="M-106 -475q0 32 7 62.5t17 55.5t30 52t36.5 46.5t47.5 44.5t51 40.5t58 40t59 37t64.5 38.5t63.5 38l57 288q-54 -129 -118.5 -204.5t-121.5 -75.5q-80 0 -118.5 75.5t-38.5 202.5q0 117 32.5 252t86 251.5t133 193.5t163.5 77q58 0 94.5 -48t39.5 -103h14q43 0 79 -33.5 t36 -89.5q0 -28 -8 -77t-19.5 -107t-38 -189t-51.5 -262q149 123 227 285q14 33 35 33q14 0 14 -21q0 -9 -8 -33q-95 -235 -299 -401q-43 -207 -101 -353t-138.5 -231.5t-176.5 -85.5q-88 0 -148 58t-60 143zM-20 -520q0 -38 19.5 -65t53.5 -27q58 0 119.5 90t110.5 299 l12 61q-41 -27 -50 -33t-47 -32.5t-50 -36.5t-43 -35.5t-42.5 -40t-32 -39.5t-28.5 -45t-15 -45.5t-7 -50.5zM172 227q0 -100 35 -100q69 0 139.5 166.5t118.5 417.5l27 139q-5 72 -58 72q-64 0 -127 -130t-99 -291.5t-36 -273.5z" />
<glyph unicode="h" horiz-adv-x="753" d="M-51 72q0 109 92 553.5t190 775.5q14 53 80 53q39 0 71 -24t32 -62q0 -27 -16.5 -83.5t-58 -203.5t-83.5 -331q59 129 125 204.5t133 75.5q35 0 62 -11t43.5 -27.5t27.5 -40t15 -46t4 -47.5q0 -97 -42.5 -247.5t-85 -282.5t-42.5 -185q0 -51 36 -51q14 0 28.5 8.5 t30.5 28t29 38t32 53t31.5 58.5t35 68.5t35.5 69.5q18 35 37 35q12 0 12 -19q0 -16 -8 -37q-1 -4 -16 -45t-27.5 -70t-34.5 -77.5t-45 -82.5t-52 -68t-63.5 -52t-71.5 -18q-67 0 -113 46.5t-46 133.5q0 60 25 164t55.5 198t55.5 189.5t25 140.5q0 49 -28 49q-23 0 -61.5 -45 t-82 -122t-89 -198.5t-76.5 -256.5q-8 -39 -17 -85.5t-13.5 -71t-11.5 -53t-13 -42t-16 -26.5t-22 -17t-30 -4q-32 0 -55 23.5t-23 66.5z" />
<glyph unicode="i" horiz-adv-x="397" d="M-29 199q0 90 48.5 330t111.5 472q7 26 29.5 40t52.5 14q42 0 74 -28t32 -77q0 -44 -42.5 -201.5t-84.5 -324.5t-42 -234t36 -67q16 0 34.5 13.5t37 37.5t36 49.5t35.5 59t29 55.5t24 48.5t15 29.5q18 35 35 35q14 0 14 -21q0 -16 -8 -35q-1 -2 -11.5 -28.5t-16.5 -42 t-21 -48.5t-26.5 -55.5t-30 -55.5t-35.5 -55t-39 -47t-43 -40t-46 -25t-50 -10q-66 0 -107 51t-41 160zM154 1247q0 73 52.5 138t131.5 65q60 0 90.5 -30.5t30.5 -76.5q0 -70 -61 -132t-152 -62q-45 0 -68.5 28t-23.5 70z" />
<glyph unicode="j" horiz-adv-x="370" d="M-520 -475q0 40 10.5 77t26 65.5t44.5 58t54 50t66.5 46.5t71 42t78 43t77.5 44q37 170 102.5 526t100.5 504q14 59 75 59q42 0 77.5 -29t35.5 -71q0 -22 -22.5 -125t-67 -310.5t-82.5 -404.5q150 128 244 316q19 37 41 37q10 0 10 -17q0 -18 -10 -41 q-108 -257 -314 -422q-75 -342 -177 -495.5t-232 -153.5q-27 0 -59.5 10.5t-43.5 30.5q-42 11 -74 56t-32 104zM-428 -512q0 -62 45 -88h12q28 0 54 12q31 15 64 54t64 117.5t58 193.5q8 33 10 47q-138 -85 -184 -123q-123 -100 -123 -213zM115 1262q0 70 52 129t132 59 q59 0 89 -32.5t30 -82.5q0 -70 -50.5 -129t-127.5 -59q-23 0 -33 2q-45 7 -68.5 38t-23.5 75z" />
<glyph unicode="k" horiz-adv-x="727" d="M-51 76q0 91 90.5 552t183.5 773q13 47 72 47q40 0 75.5 -24t35.5 -58q0 -7 -3 -16q-72 -227 -145 -529q113 221 231 221q76 0 114 -55.5t38 -146.5q0 -96 -38 -201t-110.5 -193t-160.5 -120q8 -21 22 -58q42 -112 62 -144t57 -32q27 0 55 19t50.5 45t51.5 75t47.5 85 t49.5 100q15 35 39 35q10 0 10 -15q0 -16 -8 -37q-24 -62 -45 -109t-56 -109t-69.5 -102t-81.5 -68.5t-96 -28.5q-27 0 -49.5 4t-42.5 16t-34 22t-31 35.5t-27 41.5t-27 55.5t-26 62t-29 74.5l-3 7.5t-3 7t-3 7.5l-2 -2q-41 -195 -51 -278q-6 -43 -49 -43q-34 0 -64 24.5 t-30 59.5zM166 412q31 24 63 24q44 0 72 -43q69 52 119.5 175.5t50.5 222.5q0 47 -15 75.5t-44 28.5q-59 0 -126 -135.5t-120 -347.5z" />
<glyph unicode="l" horiz-adv-x="555" d="M-6 291q0 167 47 405q156 842 383 842q53 0 82 -41q46 -27 68 -69.5t22 -137.5q0 -87 -17.5 -193t-53 -214t-83.5 -196q-46 -88 -112 -140q-58 -46 -120 -46q-8 0 -17 1q-27 -175 -27 -260q0 -66 19.5 -97.5t62.5 -31.5q76 0 161 91t146 212q13 30 33 30q14 0 14 -22 q0 -11 -6 -29q-20 -49 -50.5 -103.5t-72.5 -110t-88 -99.5t-100 -72t-105 -28q-186 0 -186 309zM201 551q116 95 198 356.5t82 460.5q0 50 -6 88q-35 -11 -89 -159.5t-103.5 -351.5t-81.5 -394z" />
<glyph unicode="m" horiz-adv-x="1155" d="M-53 70q0 65 56 359.5t118 504.5q7 26 28 39.5t48 13.5q39 0 69.5 -26t30.5 -68q0 -20 -23 -98q115 235 246 235q152 0 152 -165q0 -55 -17 -128q56 135 121 214t133 79q35 0 62 -11t43.5 -27.5t27.5 -40t15 -46t4 -47.5q0 -97 -43.5 -251t-87 -290t-43.5 -190 q0 -51 35 -51q25 0 55 30t59 78.5t51.5 92t43.5 88.5t24 51q7 16 17 25.5t18 9.5q14 0 14 -23q0 -14 -8 -33q-2 -6 -14.5 -38t-22.5 -57.5t-28.5 -66.5t-36 -72.5t-43 -66.5t-50.5 -58t-56.5 -38.5t-63.5 -15.5q-67 0 -113.5 46.5t-46.5 133.5q0 75 40.5 220t81 281 t40.5 191q0 49 -29 49q-20 0 -52.5 -38t-70 -104.5t-78 -170.5t-71.5 -223q-10 -47 -33.5 -154t-36.5 -168q-6 -27 -29.5 -42t-54.5 -15q-39 0 -67.5 25t-28.5 71q0 34 35 184t70.5 316.5t35.5 242.5q0 74 -33 74q-46 0 -109.5 -119t-123.5 -318t-94 -415 q-4 -28 -27.5 -43.5t-54.5 -15.5q-33 0 -58.5 21.5t-25.5 58.5z" />
<glyph unicode="n" horiz-adv-x="792" d="M-55 74q0 3 1 9t1 9q27 224 66.5 406.5t113.5 435.5q7 26 28 39.5t48 13.5q39 0 69.5 -26t30.5 -68q0 -32 -23 -109t-24 -82q68 156 144 249t151 93q43 0 74.5 -18t47 -47t22.5 -59t7 -62q0 -78 -31 -190.5t-68 -205t-68 -183.5t-31 -132q0 -43 33 -43q21 0 48.5 21 t52 50t52 70t45.5 71t37 63t21 37q21 35 38 35q11 0 11 -15q0 -16 -8 -37q-8 -23 -23 -57t-39.5 -83.5t-57 -96.5t-68.5 -88t-79.5 -66.5t-85.5 -25.5q-67 0 -113 46.5t-46 133.5q0 78 49 222t98 279t49 191q0 49 -33 49q-38 0 -101.5 -92.5t-129.5 -256t-104 -339.5l-7 -14 q-16 -89 -24 -152q-6 -32 -29.5 -49.5t-54.5 -17.5q-35 0 -62.5 24.5t-27.5 67.5z" />
<glyph unicode="o" horiz-adv-x="763" d="M-6 328q0 215 92 411q16 35 42 59q22 20 48 20q6 0 12 -1q31 103 95.5 165t156.5 62q117 0 174.5 -87t57.5 -228q0 -105 -29 -222t-80 -220q134 4 201 129q21 35 37 35q12 0 12 -15q0 -16 -8 -37q-23 -64 -100.5 -118t-174.5 -54q-63 -111 -142 -176t-163 -65 q-60 0 -105 26.5t-72 74t-40.5 108t-13.5 133.5zM168 274q0 -190 94 -190q13 0 19 2q54 8 112 162q-146 50 -203 219q-22 -104 -22 -193zM285 618q0 -98 32.5 -178.5t100.5 -120.5q34 111 56 238t22 225q0 185 -68 185q-53 0 -98 -108.5t-45 -240.5z" />
<glyph unicode="p" horiz-adv-x="772" d="M-174 -481q0 55 115 620.5t172 769.5q10 36 36.5 55t57.5 19q36 0 62 -21.5t26 -56.5q0 -14 -16 -82q100 219 221 219q89 0 132.5 -74.5t43.5 -193.5q0 -121 -38.5 -261t-108.5 -265t-152 -193q135 30 227 116.5t168 244.5q14 33 33 33q14 0 14 -23q0 -13 -6 -31 q-41 -102 -87 -174.5t-109.5 -129t-149 -84t-195.5 -27.5q-124 0 -180 45q-94 -432 -102 -533q-5 -61 -76 -61q-37 0 -62.5 21t-25.5 67zM119 135q39 0 78 -47q65 12 132.5 138.5t107.5 283.5t40 268q0 117 -53 117q-58 0 -121 -128.5t-117 -334.5z" />
<glyph unicode="q" horiz-adv-x="788" d="M-8 266q0 117 32.5 252t86.5 251.5t133.5 193.5t163.5 77q61 0 95 -53t34 -110v-9q15 6 36 6q39 0 70 -25t31 -67q0 -20 -4 -32q-88 -317 -205 -822q38 82 99 165t123.5 165t100.5 158q13 30 31 30q17 0 17 -24q0 -10 -7 -27q-39 -93 -92.5 -179.5t-101.5 -149.5 t-94 -126t-82 -134t-53 -148q-26 -119 -37 -186q-6 -32 -29.5 -50t-54.5 -18q-35 0 -62.5 24.5t-27.5 67.5q0 56 38 254t78 371q-84 -133 -161 -133q-80 0 -119 75.5t-39 202.5zM176 227q0 -100 35 -100q25 0 49.5 25t47.5 72.5t43.5 101t42 125.5t37.5 130t35.5 130 t31.5 112q0 99 -60 99q-64 0 -127 -130t-99 -291.5t-36 -273.5z" />
<glyph unicode="r" horiz-adv-x="677" d="M-47 72q0 113 48 374t114 488q15 51 78 51q38 0 69 -25t31 -65q0 -15 -6.5 -37t-16 -47.5t-12.5 -38.5q127 272 264 272q56 0 80.5 -32.5t24.5 -100.5q0 -63 -49.5 -204t-49.5 -172q0 -46 47 -46q45 0 98.5 74.5t88.5 155.5q19 49 39 49q16 0 16 -22q0 -13 -6 -35 q-17 -63 -57 -130t-104 -119t-130 -52q-70 0 -115 36t-45 121q0 48 23 113.5t45.5 120.5t22.5 80q0 24 -21 24q-26 0 -67.5 -52.5t-84 -136.5t-81.5 -205.5t-58 -244.5l-33 -217q-4 -32 -25.5 -49.5t-49.5 -17.5q-32 0 -55 23.5t-23 66.5z" />
<glyph unicode="s" horiz-adv-x="585" d="M-168 201q0 54 32 98q26 35 63 35q9 0 20 -2q115 175 272 514q-31 85 -31 164q0 103 41.5 175t100.5 72q36 0 56 -24.5t20 -67.5q0 -124 -130 -331q14 -46 58 -152.5t72 -198t28 -164.5q0 -117 -49 -200q24 18 43 37.5t38.5 49.5t32.5 53t40.5 73t46.5 84q17 33 35 33 q12 0 12 -23q0 -13 -6 -31q-42 -105 -84 -175.5t-99 -126t-131.5 -81.5t-171.5 -26q-82 0 -144.5 19.5t-97 51.5t-51 68.5t-16.5 75.5zM-2 303q14 -15 17 -41t3 -93v-32q0 -104 72 -104q28 0 52.5 15.5t47.5 50.5t36.5 102t13.5 159q0 21 -15 334q-68 -156 -227 -391z" />
<glyph unicode="t" horiz-adv-x="425" d="M-23 199q0 100 34 296t89 420l-65 7q-35 3 -35 55q0 25 10.5 44t26.5 19q63 0 96 -2q50 185 76 265q15 51 84 51q42 0 74 -27t32 -76q0 -18 -6 -47.5t-11 -49.5t-18.5 -66t-17.5 -60q147 -12 177 -25q18 -7 18 -18q0 -41 -226 -65q-117 -406 -146 -540q-28 -128 -28 -196 q0 -86 43 -86q23 0 49.5 23t54.5 63.5t50.5 78.5t49 86t38.5 67q21 37 35 37t14 -23q0 -16 -8 -35q-14 -35 -30.5 -71.5t-52.5 -101.5t-72.5 -112.5t-87 -84.5t-99.5 -37q-66 0 -107 51t-41 160z" />
<glyph unicode="u" horiz-adv-x="770" d="M-23 207q0 88 21.5 212.5t56.5 284t49 244.5q7 44 39.5 68t71.5 24q36 0 62 -20t26 -55q0 -15 -2 -21q-21 -105 -62.5 -288t-60 -283t-18.5 -160q0 -86 45 -86q27 0 52.5 24.5t50 84.5t43 112.5t44.5 159t40.5 169.5t42.5 196q4 16 6 25t5 23t5 25q10 48 41 73t71 25 q36 0 62 -22.5t26 -60.5q0 -34 -86 -376.5t-86 -420.5q0 -55 27 -55q12 0 26 8.5t29 25t30 35.5t30.5 44.5t28 46.5t26.5 47.5t22 42t18 35.5l11 22q17 35 35 35q14 0 14 -21q0 -16 -8 -35q-11 -28 -19 -46.5t-29.5 -65t-41 -80t-49.5 -77t-58.5 -71.5t-65 -47.5 t-71.5 -19.5q-56 0 -96 39t-43 133q-89 -172 -207 -172q-154 0 -154 219z" />
<glyph unicode="v" horiz-adv-x="720" d="M-10 279q0 275 123 722q7 26 29.5 40t52.5 14q42 0 74 -28t32 -77q0 -43 -41 -196t-82 -322t-41 -252q0 -100 53 -100q78 0 211 389q-39 65 -39 172q0 96 30 197t80 168t101 67q34 0 58 -26.5t24 -90.5q0 -76 -35.5 -207.5t-89.5 -271.5q23 -10 52 -10q77 0 148.5 83 t113.5 187q11 31 26 31q13 0 13 -25q0 -14 -2 -20q-17 -55 -47 -112t-71.5 -109t-96 -84.5t-111.5 -32.5q-35 0 -59 8q-50 -116 -104.5 -203.5t-120.5 -144.5t-130 -57q-151 0 -151 291z" />
<glyph unicode="w" horiz-adv-x="1138" d="M-10 279q0 275 123 722q7 26 29.5 40t52.5 14q42 0 74 -28t32 -77q0 -59 -41 -204t-82 -306t-41 -260q0 -102 53 -102q39 0 75.5 62t69 173t58.5 221t57 250.5t52 216.5q7 26 29.5 40t52.5 14q42 0 74 -28t32 -77q0 -51 -41 -199.5t-82 -313.5t-41 -257q0 -100 54 -100 q78 0 211 389q-39 65 -39 172q0 96 30 197t80 168t101 67q34 0 57.5 -26.5t23.5 -90.5q0 -76 -35 -208t-89 -271q23 -10 51 -10q77 0 148.5 83t113.5 187q11 31 27 31q14 0 14 -20q0 -13 -4 -25q-17 -55 -47 -112t-71.5 -109t-96 -84.5t-111.5 -32.5q-35 0 -59 8 q-50 -116 -104.5 -203.5t-120.5 -144.5t-130 -57q-139 0 -149 243q-101 -243 -240 -243q-151 0 -151 291z" />
<glyph unicode="x" horiz-adv-x="796" d="M-45 61q0 61 38 86t128 33q47 3 102.5 52t83.5 122q-50 200 -74 434q-126 -254 -192 -393q-8 -16 -23 -16q-22 0 -22 22q0 3 4 15q29 71 98 247t127 318q10 27 38 43t59 16q30 0 51.5 -16t25.5 -47q4 -30 20.5 -150t26.5 -188q21 101 56.5 188t92 150t120.5 63 q42 0 71 -24t29 -60q0 -40 -16 -62.5t-42 -32.5t-59 -18.5t-68 -27.5t-66.5 -51t-57.5 -98t-39 -160q64 -383 145 -383q11 0 22 7t23.5 23.5t23 33t26.5 47t27 52.5t31 63.5t32 66.5q17 35 37 35q12 0 12 -19q0 -18 -8 -37q-8 -20 -24 -60.5t-27 -68.5t-29 -67.5t-33 -67.5 t-36.5 -58t-42 -48.5t-46.5 -30.5t-53 -12q-127 0 -219 299q-16 -58 -38.5 -108t-55.5 -95.5t-79 -71.5t-100 -26q-42 0 -71 23t-29 58z" />
<glyph unicode="y" horiz-adv-x="751" d="M-106 -475q0 41 10.5 78.5t26 66.5t43.5 58.5t53.5 51t65.5 47.5t70 43.5t77 45t77 45.5q9 70 31 201q-83 -174 -209 -174q-164 0 -164 215q0 91 26 223.5t66 297t56 253.5q8 57 74 57q42 0 78 -26.5t36 -63.5q0 -33 -7.5 -73t-26 -115t-23.5 -99q-84 -369 -84 -452 q0 -78 43 -78q18 0 34 8t31 27t27 39t25 56.5t23 67t24 83t23.5 91.5t26 104.5t28.5 111.5l57 262q6 25 27 38t49 13q40 0 74 -23t34 -57q0 -15 -4 -33t-16 -68t-29 -125t-48 -235t-67 -368q139 129 220 297q7 17 17.5 27t18.5 10q13 0 13 -21q0 -16 -8 -37 q-97 -242 -283 -407q-34 -177 -79.5 -307.5t-98.5 -207t-110 -113t-120 -36.5q-78 0 -143 59.5t-65 141.5zM-20 -520q0 -58 55 -90q6 -2 20 -2q40 0 73.5 18.5t56.5 45t42.5 70.5t30.5 79t21 87t13.5 78t8.5 68q-136 -87 -176 -117q-144 -115 -145 -237z" />
<glyph unicode="z" horiz-adv-x="747" d="M-133 -475q0 56 21 107.5t53.5 90.5t84 80t98.5 71t112 69l30 18q-14 95 -67 137q-79 -35 -129 -35q-36 0 -56 14t-20 38q0 31 34.5 55.5t96.5 24.5q15 0 65 -5q55 59 117 170t133.5 259.5t96.5 195.5q-93 -22 -181 -22q-84 0 -145 18q-37 -120 -71 -202.5t-99 -213.5 q-20 -41 -39 -41q-12 0 -12 19q0 21 10 43q78 194 135 432q-33 33 -33 78q0 43 28 78.5t60 35.5q23 0 38.5 -23t15.5 -65q62 1 156 25t167.5 48t87.5 24q33 0 52.5 -24.5t19.5 -59.5q0 -31 -19.5 -62t-56.5 -47l-47 -20q21 -58 21 -123q0 -146 -94.5 -300t-229.5 -253 q71 -32 115 -105q113 77 196 163t136 198q16 37 38 37q13 0 13 -17q0 -16 -11 -41q-58 -134 -145 -234t-199 -186q9 -56 9 -79q0 -58 -15.5 -131.5t-47.5 -151.5t-75 -143t-105.5 -106.5t-131.5 -41.5q-30 0 -63.5 10t-41.5 27q-42 11 -74 59t-32 107zM-47 -520 q0 -62 49 -90q6 -2 18 -2q60 0 124 90t112 299q8 46 10 71q-45 -31 -63.5 -44.5t-60 -45t-61 -50.5t-49 -50.5t-43.5 -56.5t-25 -57t-11 -64z" />
<glyph unicode="{" horiz-adv-x="528" d="M-37 731q0 11 39 14q33 16 61.5 36.5t51 45.5t41.5 49t34 57t26.5 59t21.5 65.5t16 66.5t13 71t10.5 70.5t10.5 73.5q0 6 0.5 9.5t1 8.5t1.5 9q36 270 233 270q45 0 106.5 -17t61.5 -40q0 -12 -20 -12q-22 0 -57 7t-48 7q-79 0 -112 -61.5t-56 -227.5q-26 -178 -45 -245 q-65 -236 -238 -307q-16 -6 -32 -11q149 -56 149 -225q0 -78 -26 -187.5t-52 -208t-26 -149.5q0 -77 39.5 -117t128.5 -41q31 0 31 -14q0 -13 -31 -23t-74 -10q-102 0 -155.5 64.5t-53.5 173.5q0 82 48.5 258.5t48.5 238.5q0 157 -138 234q-10 3 -10 8z" />
<glyph unicode="|" horiz-adv-x="366" d="M27 -63q0 113 113.5 636t219.5 934q6 25 27 25q19 0 36 -16t17 -35q0 -26 -31 -147t-115.5 -507.5t-182.5 -930.5q-6 -27 -29 -27q-20 0 -37.5 19.5t-17.5 48.5z" />
<glyph unicode="}" horiz-adv-x="595" d="M-156 -178q0 14 21 14q22 0 56.5 -7t47.5 -7q79 0 111.5 60.5t56.5 228.5q1 8 3 25q8 56 13 87t17.5 89t25.5 93.5t37 83.5t53 79.5t71.5 60.5t93.5 45q-150 53 -150 221q0 99 52.5 295t52.5 254q0 77 -38.5 117t-127.5 41q-33 0 -33 14q0 13 31.5 23t74.5 10 q101 0 154 -64.5t53 -173.5q0 -84 -47 -260t-47 -238q0 -159 137 -233q8 -5 8 -10q0 -13 -36 -13q-42 -21 -76 -47.5t-60.5 -61t-46 -66.5t-35 -78.5t-25.5 -80.5t-19 -90t-13.5 -89t-11.5 -93q-1 -9 -2 -14q-17 -136 -77.5 -203t-156.5 -67q-46 0 -107 16t-61 39z" />
<glyph unicode="~" horiz-adv-x="925" d="M180 1186q0 60 60.5 113t146.5 53q53 0 132.5 -18.5t119.5 -18.5q21 0 77.5 15.5t74.5 15.5q24 0 24 -17q0 -9 -5 -26t-17 -40.5t-29.5 -44t-46.5 -35t-64 -14.5q-41 0 -136 25t-144 25q-87 0 -152 -52q-12 -8 -20 -8t-14.5 7t-6.5 20z" />
<glyph unicode="&#xa1;" horiz-adv-x="679" d="M76 45q0 29 12 59q23 55 87 204t90 211.5t71.5 173.5t77.5 200t61 180q7 22 20 33.5t25 11.5q13 0 23 -13t10 -36q0 -14 -2 -22q-83 -479 -254 -1014q-11 -40 -44 -61t-73 -21q-42 0 -73 25t-31 69zM438 1366q0 70 50.5 129t127.5 59q54 0 89.5 -29t35.5 -85 q0 -70 -52 -129.5t-132 -59.5q-59 0 -89 32.5t-30 82.5z" />
<glyph unicode="&#xa2;" horiz-adv-x="708" d="M27 432q0 117 32 243.5t85.5 232.5t133.5 174.5t168 68.5q3 11 13 57.5t19.5 71.5t21.5 25q13 0 24 -13.5t11 -36.5t-27 -118q18 -8 35.5 -22t17.5 -21q88 -65 88 -260q0 -232 -80 -232q-37 0 -70.5 30t-33.5 68q0 48 43 153t43 148q0 68 -45 68q-74 0 -149.5 -108 t-121 -258.5t-45.5 -278.5q0 -225 150 -225q98 0 217 104q19 16 35 16q18 0 18 -18q0 -12 -12 -27q-142 -168 -287 -188l-18 -115q-6 -26 -17 -26q-13 0 -25.5 24.5t-12.5 55.5q0 2 0.5 5t1 8t2 17t2.5 29q-56 0 -98.5 29t-68 78.5t-38 110.5t-12.5 130z" />
<glyph unicode="&#xa3;" horiz-adv-x="778" d="M-2 2q0 47 28.5 96.5t71.5 73.5q62 67 72 274q-16 -1 -47 -9.5t-41 -8.5q-9 0 -15 5t-6 13q0 18 38 33t73 19q0 11 1 35q3 78 5.5 123t11 131.5t20 140.5t33.5 122.5t51.5 108.5t74 68t100.5 28q73 0 127 -51.5t78 -121.5t24 -144q0 -25 -0.5 -40t-4.5 -38t-11 -36 t-21 -23t-34 -10q-42 0 -82.5 29.5t-40.5 66.5q0 45 25.5 120t25.5 105q0 25 -11 56.5t-34 31.5q-35 0 -61.5 -52.5t-43 -141.5t-28 -177t-22.5 -189t-19 -146q77 -5 90 -5q33 0 85.5 13.5t59.5 13.5q13 0 13 -12q0 -38 -62 -60t-114 -22q-30 0 -84 8q-38 -168 -113 -235 q46 -2 140.5 -16.5t135.5 -14.5q33 0 76 15.5t51 15.5q25 0 25 -23q0 -78 -68 -131t-141 -53q-48 0 -119 18.5t-127 18.5q-40 0 -71 -8t-45.5 -17t-27.5 -17t-20 -8q-22 0 -22 27z" />
<glyph unicode="&#xa4;" horiz-adv-x="878" d="M80 213q0 7 3 17t6.5 18.5t11 21t13 21t16.5 23.5t16 22t17.5 23.5t16.5 21.5q-71 74 -71 203q0 84 32 165.5t92 141.5q-88 153 -88 166q0 22 29 22t45 -26l68 -119q46 30 109.5 49t107.5 -2q34 11 76 -3t77 -40l99 113q11 14 22 14q12 0 19.5 -11.5t7.5 -27.5 q0 -21 -12 -33l-88 -104q49 -73 49 -180q0 -88 -37 -171.5t-105 -140.5q13 -20 42 -63.5t45 -70t16 -36.5q0 -20 -27 -20q-16 0 -32.5 10.5t-35 34t-30 40t-32.5 49.5q-2 3 -3 5t-3 5t-3 5q-84 -43 -191 -43q-64 0 -116 25l-111 -150q-11 -14 -25 -14q-11 0 -18.5 11 t-7.5 28zM274 543q0 -72 26.5 -117t78.5 -45q56 0 101 54t68 133.5t23 162.5q0 156 -77 207q-63 -19 -115 -85.5t-78.5 -149t-26.5 -160.5z" />
<glyph unicode="&#xa5;" horiz-adv-x="710" d="M-78 315q0 19 25 38t61 20l115 6q2 7 5.5 22t4.5 21l-4 49h-11h-37.5t-33 1t-31 3.5t-22 6t-16.5 9.5t-5 15q0 16 21 32t53 19l76 6q-9 132 -27.5 280.5t-32.5 240.5t-14 104q0 29 34 49t75 20q63 0 69 -45q32 -223 54 -639h24q45 117 127.5 340.5t110.5 292.5 q11 28 36.5 42t55.5 14q31 0 53.5 -14t22.5 -38q0 -18 -34 -76.5t-118 -213.5t-172 -347l102 -6q27 -1 41.5 -10.5t14.5 -21.5q0 -35 -53.5 -47.5t-153.5 -16.5l-49 -92l155 -6q23 -1 35.5 -10t12.5 -21q0 -13 -8.5 -23t-25.5 -16.5t-35 -10.5t-46.5 -6.5t-48.5 -4t-52 -2.5 q-3 -18 -8.5 -56t-9 -56.5t-11.5 -55.5t-20 -80q-6 -24 -25.5 -36.5t-45.5 -12.5q-36 0 -65.5 23t-29.5 61q0 40 6 76.5t18.5 79.5t14.5 50q-10 1 -31.5 1.5t-34.5 1.5l-32.5 2.5t-31.5 4.5t-24.5 7t-18 11t-5.5 15z" />
<glyph unicode="&#xa6;" horiz-adv-x="382" d="M27 -66q0 32 42.5 274.5t80.5 428.5q6 25 30 25t46 -17t22 -37q0 -10 -5.5 -39t-18.5 -91.5t-28 -133.5t-41.5 -198t-52.5 -250q-6 -27 -26 -27q-17 0 -33 19t-16 46zM211 868q0 51 133 639q6 25 31 25q22 0 43.5 -16.5t21.5 -36.5q0 -14 -12 -56.5t-53 -201.5t-92 -381 q-6 -21 -25 -21q-17 0 -32 13.5t-15 35.5z" />
<glyph unicode="&#xa7;" horiz-adv-x="774" d="M-2 160q0 39 36.5 84t69.5 45q20 0 31 -23q97 -205 301 -205q26 0 51 22.5t25 53.5q0 44 -33.5 88.5t-84 79t-109 75t-109 77.5t-84 85.5t-33.5 98.5q0 160 166 233q-43 59 -43 115q0 114 88.5 195.5t221.5 81.5q66 0 127 -27.5t102 -83t41 -127.5q0 -96 -64 -96 q-38 0 -75 26t-37 56q0 18 6 49t6 43q0 33 -13 74t-38 41q-69 0 -124.5 -47t-55.5 -113q0 -46 36.5 -91t89 -83t105 -77t89 -86.5t36.5 -96.5t-16.5 -90.5t-42.5 -68.5t-50 -43.5t-47 -25.5q64 -71 64 -137q0 -48 -21 -93.5t-53 -77.5t-59 -52t-49 -31q-47 -33 -134 -33 q-118 0 -217.5 58.5t-99.5 126.5zM215 739q0 -43 33 -85t75 -71t106.5 -73.5t102.5 -77.5q72 33 72 90q0 35 -58 83.5t-149.5 115t-138.5 117.5q-43 -39 -43 -99z" />
<glyph unicode="&#xa8;" horiz-adv-x="872" d="M244 1219q0 43 32.5 79.5t83.5 36.5q36 0 54 -20t18 -51q0 -43 -31 -80t-79 -37q-33 0 -55.5 18.5t-22.5 53.5zM524 1219q0 46 33.5 87.5t83.5 41.5q38 0 58 -23.5t20 -58.5q0 -47 -32.5 -85t-84.5 -38q-39 0 -58.5 21t-19.5 55z" />
<glyph unicode="&#xa9;" horiz-adv-x="1544" d="M66 637q0 99 23.5 199t66.5 192t108.5 171.5t146 138.5t182.5 92.5t214 33.5q42 0 111 -8t108 -22q158 -44 265 -142.5t153.5 -221t46.5 -265.5q0 -119 -32.5 -238.5t-97.5 -225.5t-153.5 -188t-208.5 -130t-254 -48q-107 0 -227 35q-116 33 -204 96.5t-141.5 147.5 t-80 180.5t-26.5 202.5zM213 616q0 -179 80.5 -330.5t241.5 -238.5q60 -8 112 -8q153 0 286 69t221 180.5t138.5 251.5t50.5 283q0 118 -37.5 228t-113 201t-180.5 143q-70 8 -105 8q-152 0 -284.5 -69t-220.5 -181t-138.5 -252.5t-50.5 -284.5zM455 616q0 101 28.5 206.5 t77 192t121.5 142t154 55.5q56 0 98.5 -26t67 -71.5t36 -99.5t11.5 -116q0 -235 -80 -235q-37 0 -71 30t-34 68q0 48 44 154t44 151q0 31 -9.5 48.5t-41.5 17.5q-70 0 -136 -84t-104 -203.5t-38 -227.5q0 -103 38 -163t119 -60q97 0 217 105q19 16 35 16q19 0 19 -18 q0 -11 -13 -27q-165 -192 -329 -192q-128 0 -191 93.5t-63 243.5z" />
<glyph unicode="&#xaa;" d="M199 969q0 76 20 159.5t55 154.5t87.5 117t111.5 46q35 0 60 -24t34.5 -53.5t10.5 -61.5h8q34 0 62 -27.5t28 -73.5q0 -11 -4 -35q-9 -35 -20 -80t-16.5 -66.5t-11.5 -46.5t-8 -39.5t-2 -25.5q0 -36 25 -36q15 0 37 21.5t43 59.5q6 9 16 9q11 0 20 -7.5t9 -17.5 q0 -6 -4 -14q-100 -160 -189 -160q-93 0 -106 125q-33 -61 -72.5 -93t-77.5 -32q-59 0 -87.5 55.5t-28.5 145.5zM356 952q0 -57 25 -57q11 0 24 9.5t29.5 32.5t34 71t31.5 114q4 18 13 65.5t15 74.5q-2 6 -7 28.5t-12.5 34.5t-21.5 12q-29 0 -61 -72t-51 -162t-19 -151z" />
<glyph unicode="&#xab;" horiz-adv-x="1056" d="M-16 547q0 32 18.5 64.5t44.5 45.5q150 79 263 144.5t163.5 100.5t82.5 59.5t43.5 32t23.5 7.5q15 0 24.5 -14.5t9.5 -36.5q0 -31 -54 -79t-143.5 -100.5t-156.5 -88t-139 -70.5q77 -47 131 -82.5t132 -92t120.5 -104t42.5 -81.5q0 -44 -24 -85.5t-50 -41.5 q-11 0 -29.5 17t-53.5 51.5t-83.5 76t-137 101t-196.5 116.5q-32 15 -32 60zM373 569q0 60 69 95q134 74 235 137.5t147 98t76.5 59.5t43.5 33.5t27 8.5q13 0 20.5 -14t7.5 -35q0 -42 -51.5 -92.5t-136 -99.5t-145.5 -80t-125 -59q110 -54 236 -169.5t126 -172.5 q0 -40 -30.5 -81.5t-59.5 -41.5q-12 0 -24.5 13t-37.5 43t-61 68t-110 99t-170 125q-37 24 -37 65z" />
<glyph unicode="&#xad;" horiz-adv-x="610" d="M92 535q0 26 17 42.5t48.5 23.5t59 9t66.5 2q20 0 61 -1t64 -1q13 0 42 1t46 1q45 0 45 -32q0 -23 -20 -45t-52 -29q-84 -17 -150 -17q-1 0 -22.5 -0.5t-37.5 0t-42.5 1.5t-46 4t-38.5 8t-29.5 13.5t-10.5 19.5z" />
<glyph unicode="&#xae;" horiz-adv-x="1538" d="M66 637q0 99 23.5 199t66.5 192t108.5 171.5t146 138.5t182.5 92.5t214 33.5q57 0 111 -7t79 -14l25 -7q214 -45 341.5 -220.5t127.5 -410.5q0 -119 -32.5 -238.5t-97.5 -225.5t-153.5 -188t-208.5 -130t-254 -48q-107 0 -227 35q-116 33 -204 96.5t-141.5 147.5 t-80 180.5t-26.5 202.5zM213 616q0 -179 80.5 -330.5t241.5 -238.5q60 -8 112 -8q153 0 286 69t221 180.5t138.5 251.5t50.5 283q0 182 -83 336t-248 236q-70 8 -105 8q-152 0 -284.5 -69t-220.5 -181t-138.5 -252.5t-50.5 -284.5zM438 1042q0 49 55.5 90t126.5 60.5 t132 19.5q125 0 194 -59q70 -39 107 -105.5t37 -144.5q0 -116 -74.5 -209t-204.5 -112q26 -23 49 -56.5t36 -58.5t28 -43t30 -18q24 0 78 65q11 14 23 14q16 0 16 -22q0 -5 -4 -17q-31 -86 -77 -124.5t-95 -38.5q-37 0 -65 15.5t-52.5 56t-38 71t-39.5 100.5q-7 16 -10 25 q-11 -38 -22 -85.5t-17 -73t-15 -51t-21.5 -36t-30.5 -10.5q-32 0 -59 17t-27 44q0 20 3.5 49t12 68t16.5 75t21.5 87.5t23 87.5t26.5 93.5t25 86t24.5 84.5t21.5 72q8 31 59 31q35 0 65.5 -15.5t30.5 -36.5v-6q-19 -69 -60 -211t-54 -188l22 -6q97 27 154 119t57 206 q0 88 -33 158q-41 20 -88 20q-56 0 -100 -16t-69.5 -40t-46 -51.5t-30.5 -51.5t-21 -40t-21 -16q-28 0 -63.5 44t-35.5 83z" />
<glyph unicode="&#xb0;" horiz-adv-x="442" d="M90 1024q0 100 72 165.5t188 65.5q62 0 107.5 -35t65.5 -81.5t20 -94.5q0 -91 -61.5 -160t-166.5 -69q-108 0 -166.5 60t-58.5 149zM231 971q0 -40 11 -71.5t34 -31.5q50 0 91 78t41 158q0 83 -48 100q-57 1 -93 -73t-36 -160z" />
<glyph unicode="&#xb1;" horiz-adv-x="628" d="M-33 377q0 23 23.5 36.5t77 19t91.5 6.5t115 1h31q15 0 45 0.5t48 0.5t43 -0.5t40.5 -3t30.5 -6t22 -10t7 -15.5q0 -18 -21 -33.5t-53 -18.5q-175 -18 -285 -18h-9q-40 0 -65 1t-63 4t-58 12.5t-20 23.5zM61 780q0 40 63.5 52t184.5 12q38 150 58 191q22 46 45 46 q18 0 31.5 -18t13.5 -45q0 -31 -19.5 -96.5t-21.5 -77.5q14 0 41.5 0.5t44 0.5t39.5 -0.5t37 -2.5t28 -5t20.5 -8.5t6.5 -13.5q0 -64 -240 -72q-20 -94 -33 -192q-4 -25 -16 -37t-27 -12q-22 0 -38.5 22t-16.5 58q0 38 25 161h-19h-43.5t-44.5 1t-46 3.5t-36 6t-28 10.5 t-9 16z" />
<glyph unicode="&#xb2;" horiz-adv-x="667" d="M180 881q0 28 30 61t75 62t97 65.5t97 72.5t75 83t30 96q0 33 -13 51.5t-34 18.5q-48 0 -87 -56.5t-40 -146.5q0 -58 -43 -58q-35 0 -71 36t-36 77q0 87 71 148t150 61q81 0 156.5 -63.5t75.5 -147.5q0 -59 -26 -106.5t-65.5 -76.5t-88.5 -55.5t-93.5 -44.5t-83.5 -41.5 t-55 -48.5q90 9 193.5 42.5t119.5 33.5q41 0 41 -47q0 -26 -9 -46t-20.5 -33t-35.5 -22t-40.5 -13t-49.5 -6.5t-49 -2.5h-52q-4 0 -31 -0.5t-41 0t-33 2.5t-28 6q-32 -3 -59 31.5t-27 67.5z" />
<glyph unicode="&#xb3;" horiz-adv-x="632" d="M154 940q0 42 34 69t76 27q55 0 55 -43q0 -12 -2 -33t-2 -28q0 -78 47 -111q39 3 70 55t31 109q0 24 -6 45q-74 0 -74 37q0 14 11 24t28 7l22 -4q32 23 52 77.5t20 112.5q0 37 -11.5 76t-33.5 39q-42 0 -70 -53.5t-28 -124.5q0 -28 -12.5 -42t-32.5 -14q-34 0 -66.5 30.5 t-32.5 68.5q0 72 70 128t152 56q85 0 150 -56.5t65 -144.5q0 -59 -30.5 -112t-82.5 -80q63 -45 63 -115q0 -68 -61.5 -119t-165.5 -51q-94 0 -164.5 44t-70.5 126z" />
<glyph unicode="&#xb4;" horiz-adv-x="1093" d="M360 1114q0 14 14 28.5t51 52t75 87.5q35 45 58.5 93.5t36 65.5t36.5 17q29 0 53.5 -28t24.5 -60q0 -30 -35.5 -75.5t-87.5 -86.5q-58 -45 -118.5 -76.5t-88.5 -31.5q-19 0 -19 14z" />
<glyph unicode="&#xb5;" horiz-adv-x="770" d="M-172 -481q0 18 25 143.5t67.5 339t71.5 371.5q15 84 55.5 281.5t56.5 293.5q7 44 39.5 68t71.5 24q36 0 62 -20t26 -55q0 -15 -2 -21q-21 -105 -62.5 -288t-60 -283t-18.5 -160q0 -86 45 -86q27 0 52.5 24.5t50 84.5t43 112.5t44.5 159t40.5 169.5t42.5 196q4 16 6 25 t5 23t5 25q10 48 41 73t71 25q36 0 62 -22.5t26 -60.5q0 -34 -86 -376.5t-86 -420.5q0 -55 27 -55q12 0 26 8.5t29 25t30 35.5t30.5 44.5t28 46.5t26.5 47.5t22 42t18 35.5l11 22q17 35 35 35q14 0 14 -21q0 -16 -8 -35q-11 -28 -19 -46.5t-29.5 -65t-41 -80t-49.5 -77 t-58.5 -71.5t-65 -47.5t-71.5 -19.5q-56 0 -96 39t-43 133q-89 -172 -207 -172q-26 0 -47 6q-82 -387 -92 -502q-3 -35 -25 -54.5t-51 -19.5q-35 0 -61.5 27t-26.5 74z" />
<glyph unicode="&#xb6;" horiz-adv-x="911" d="M18 682q0 106 42.5 208.5t114.5 180.5t173.5 126t212.5 48q95 0 193 -37q14 49 47 49q21 0 37 -19.5t16 -49.5q0 -7 -4 -27q49 -22 49 -47q0 -18 -22 -18q-14 0 -43 10q-173 -624 -244 -1116q-5 -31 -31 -31q-20 0 -39.5 20.5t-19.5 49.5q0 8 2 12q1 7 19.5 111 t24.5 137.5t25 134t32.5 163.5t34.5 159t44 189t49 189q-57 0 -115 -12q14 -24 11 -43q-172 -801 -221 -1059q-6 -33 -33 -33q-21 0 -39.5 20.5t-18.5 49.5q0 8 2 14q52 320 89 495.5t135 528.5q-172 -45 -272.5 -181t-100.5 -355q0 -71 18.5 -129.5t37 -92.5t18.5 -46 q0 -9 -6 -9q-16 0 -41.5 16.5t-56.5 51.5t-57.5 82t-44.5 116t-18 144z" />
<glyph unicode="&#xb7;" horiz-adv-x="440" d="M80 694q0 64 48.5 119t119.5 55q55 0 82.5 -30.5t27.5 -75.5q0 -63 -46.5 -117.5t-116.5 -54.5q-49 0 -82 27t-33 77z" />
<glyph unicode="&#xb8;" horiz-adv-x="532" d="M41 -264q0 55 80 86q26 81 39 203l84 -9q-7 -83 -37 -174h31q104 0 159.5 -49t55.5 -119q0 -76 -63 -135t-165 -59q-59 0 -59 20q0 8 8.5 14.5t22.5 6.5q46 0 77 43t31 96q0 49 -30.5 83t-90.5 34h-6q-49 -84 -96 -84q-17 0 -29 12t-12 31z" />
<glyph unicode="&#xb9;" horiz-adv-x="528" d="M182 1206q0 16 11 23q4 3 27.5 18t30 20.5t26 22.5t30 31.5t26 39t29.5 54.5q0 17 17 27t35 10q32 0 60 -18t28 -43q0 -28 -28.5 -151t-64.5 -267t-40 -162q-8 -37 -58 -37q-34 0 -63 19.5t-29 48.5q0 23 35 168.5t63 246.5q-29 -48 -51 -73t-43 -25q-18 0 -29.5 15 t-11.5 32z" />
<glyph unicode="&#xba;" horiz-adv-x="751" d="M223 1018q0 103 35 201t102.5 163.5t149.5 65.5q17 0 29 -6q12 4 22 4q70 0 108 -69.5t38 -164.5q0 -74 -21.5 -151t-59.5 -142t-97.5 -106t-127.5 -41q-89 0 -133.5 69.5t-44.5 176.5zM371 940q0 -100 47 -100q34 0 66 75.5t49.5 177.5t17.5 189q0 89 -21 113 q-32 -10 -70 -90t-63.5 -184.5t-25.5 -180.5z" />
<glyph unicode="&#xbb;" horiz-adv-x="1114" d="M80 164q0 118 461 332q-244 136 -353 307q-10 17 -10 35q0 40 29.5 80t58.5 40q18 0 25 -10q108 -127 185.5 -198t195.5 -138q35 -20 35 -67q0 -34 -20.5 -63.5t-47.5 -30.5q-103 -53 -246.5 -145.5t-261.5 -182.5q-11 -8 -20 -8q-13 0 -22 14t-9 35zM424 164q0 22 23 50 t71 61.5t88.5 60t110.5 64t99.5 53t89.5 45.5l12 6q-429 257 -429 360q0 43 25 85t51 42q11 0 19 -8q243 -236 481 -354q33 -17 33 -60q0 -40 -26 -77t-56 -46q-127 -63 -279.5 -152t-257.5 -171q-11 -8 -20 -8q-15 0 -25 14.5t-10 34.5z" />
<glyph unicode="&#xbc;" horiz-adv-x="1138" d="M127 1022q0 15 10 22q4 2 27.5 18t30 21t26.5 22.5t30.5 32t26 39t29.5 54.5q0 17 16.5 27t34.5 10q32 0 60 -18.5t28 -43.5q0 -32 -28 -154.5t-64.5 -264.5t-40.5 -160q-8 -37 -57 -37q-35 0 -63.5 19t-28.5 48q0 25 34.5 168t63.5 248q-29 -48 -51 -73t-43 -25 q-18 0 -29.5 15t-11.5 32zM158 -94q0 18 20 51q175 292 249 432q231 440 339 881q14 55 59 55q23 0 39.5 -15.5t16.5 -39.5q0 -11 -2 -17q-56 -232 -277.5 -664t-376.5 -650q-29 -45 -55 -45q-12 0 -12 12zM586 182q0 13 10 23q66 67 113.5 184.5t62.5 245.5q3 27 35 27 q25 0 47.5 -14.5t22.5 -31.5q0 -63 -44.5 -194.5t-113.5 -212.5q59 6 123 6q42 185 108 406q9 30 49 30q32 0 60 -18t28 -43q0 -50 -83 -379q13 0 37.5 2t37.5 2q41 0 41 -20q0 -12 -18.5 -24t-48.5 -15q-15 -2 -39 -4t-27 -2l-33 -136q-6 -30 -53 -30q-34 0 -63 18t-29 47 l20 103q-28 0 -88.5 -4.5t-95.5 -4.5q-24 0 -41.5 10t-17.5 29z" />
<glyph unicode="&#xbd;" horiz-adv-x="1120" d="M127 1022q0 15 10 22q4 2 27.5 18t30 21t26.5 22.5t30.5 32t26 39t29.5 54.5q0 17 16.5 27t34.5 10q32 0 60 -18.5t28 -43.5q0 -32 -28 -154.5t-64.5 -264.5t-40.5 -160q-8 -37 -57 -37q-35 0 -63.5 19t-28.5 48q0 25 34.5 168t63.5 248q-29 -48 -51 -73t-43 -25 q-18 0 -29.5 15t-11.5 32zM158 -94q0 18 20 51q175 292 249 432q231 440 339 881q14 55 59 55q23 0 39.5 -15.5t16.5 -39.5q0 -11 -2 -17q-56 -232 -277.5 -664t-376.5 -650q-29 -45 -55 -45q-12 0 -12 12zM590 98q0 28 30 61t74.5 62t97 66t97 73t74.5 83t30 96 q0 33 -13 51t-34 18q-48 0 -87 -56t-40 -146q0 -58 -43 -58q-35 0 -70.5 36t-35.5 77q0 87 71 148t150 61q81 0 156 -63.5t75 -147.5q0 -69 -35.5 -122.5t-90 -85.5t-110 -57t-106.5 -52t-69 -56q90 9 193.5 42.5t119.5 33.5q41 0 41 -47q0 -26 -9 -46t-20.5 -33t-35.5 -22 t-40.5 -13t-49.5 -6.5t-49 -2.5h-52q-4 0 -31 -0.5t-41 0t-33 2.5t-28 6q-32 -3 -59 31t-27 67z" />
<glyph unicode="&#xbe;" horiz-adv-x="1087" d="M47 752q0 42 34.5 69t76.5 27q55 0 55 -43q0 -12 -2 -33.5t-2 -28.5q0 -77 47 -110q39 3 69.5 55t30.5 109q0 24 -6 45q-74 0 -74 37q0 14 11 23.5t28 6.5l23 -4q32 23 52 78t20 113q0 37 -11.5 75.5t-33.5 38.5q-42 0 -70.5 -53.5t-28.5 -124.5q0 -55 -45 -55 q-34 0 -66 30t-32 68q0 72 70 128.5t151 56.5q85 0 150 -56.5t65 -144.5q0 -59 -30.5 -112.5t-82.5 -80.5q64 -46 64 -114t-61.5 -119t-165.5 -51q-94 0 -165 44t-71 126zM158 -94q0 18 20 51q175 292 249 432q231 440 339 881q14 55 59 55q23 0 39.5 -15.5t16.5 -39.5 q0 -11 -2 -17q-56 -232 -277.5 -664t-376.5 -650q-29 -45 -55 -45q-12 0 -12 12zM545 182q0 13 10 23q66 67 113.5 184.5t62.5 245.5q3 27 35 27q25 0 47.5 -14.5t22.5 -31.5q0 -63 -44.5 -194.5t-113.5 -212.5q58 6 123 6q42 185 108 406q9 30 49 30q33 0 61 -18t28 -43 q0 -46 -84 -379q13 0 37 2t38 2q41 0 41 -20q0 -12 -18.5 -24t-48.5 -15q-15 -2 -39 -4t-27 -2l-33 -136q-6 -30 -53 -30q-34 0 -63 18t-29 47l20 103q-28 0 -88.5 -4.5t-95.5 -4.5q-24 0 -41.5 10t-17.5 29z" />
<glyph unicode="&#xbf;" horiz-adv-x="686" d="M-2 303q0 88 34 175t85.5 159.5t104 141.5t96 146.5t55.5 149.5q8 49 55 49q34 0 67 -25.5t33 -54.5q0 -62 -35 -135.5t-85 -144.5t-100 -146t-85 -166.5t-35 -181.5q0 -60 11 -112.5t36 -89.5t60 -37q36 12 59.5 36t39 68.5t25 87.5t26.5 121.5t34 142.5q15 54 66 54 q42 0 79.5 -35.5t37.5 -85.5q0 -16 -8 -50.5t-24 -84.5t-45.5 -101t-68 -95.5t-97 -72.5t-126.5 -28q-91 0 -160 46t-102 116.5t-33 152.5zM383 1317q0 53 38.5 98t96.5 45q40 0 68 -23.5t28 -64.5q0 -53 -40 -98t-101 -45q-45 0 -67.5 25t-22.5 63z" />
<glyph unicode="&#xc0;" horiz-adv-x="811" d="M-104 330q0 15 14 26t37 11q3 0 121 -5q242 453 409 918l17 109q6 38 34 58.5t64 20.5q32 0 54 -18t22 -51q0 -26 -18 -214t-37.5 -441t-22.5 -429q-3 -192 37 -192q8 0 17 4.5t18.5 14.5t17.5 20.5t19 30t19.5 34.5t21.5 41.5t22 44.5t24.5 50.5t24.5 52.5q18 37 37 37 q12 0 12 -21q0 -18 -8 -37q-7 -17 -23.5 -60.5t-26.5 -69t-29 -67t-34.5 -67.5t-38 -57.5t-44.5 -49t-50.5 -30t-58.5 -12.5q-116 0 -133 313q-170 -10 -248 -10q-10 -24 -27 -67q-61 -148 -86 -193t-57 -45t-61 21t-29 48q0 14 15.5 45.5t50.5 93.5t53 97l-74 4 q-26 1 -40.5 13.5t-14.5 27.5zM197 358l213 -8q-2 27 -2 82q0 269 38 594q-126 -355 -249 -668zM336 1833q0 33 25.5 59.5t54.5 26.5q23 0 37 -16t21 -39t23.5 -64.5t37.5 -77.5q29 -47 59.5 -86t41.5 -56t11 -36q0 -14 -16 -14q-34 0 -105 52t-130.5 126t-59.5 125z" />
<glyph unicode="&#xc1;" horiz-adv-x="811" d="M-104 330q0 15 14 26t37 11q3 0 121 -5q242 453 409 918l17 109q6 38 34 58.5t64 20.5q32 0 54 -18t22 -51q0 -26 -18 -214t-37.5 -441t-22.5 -429q-3 -192 37 -192q8 0 17 4.5t18.5 14.5t17.5 20.5t19 30t19.5 34.5t21.5 41.5t22 44.5t24.5 50.5t24.5 52.5q18 37 37 37 q12 0 12 -21q0 -18 -8 -37q-7 -17 -23.5 -60.5t-26.5 -69t-29 -67t-34.5 -67.5t-38 -57.5t-44.5 -49t-50.5 -30t-58.5 -12.5q-116 0 -133 313q-170 -10 -248 -10q-10 -24 -27 -67q-61 -148 -86 -193t-57 -45t-61 21t-29 48q0 14 15.5 45.5t50.5 93.5t53 97l-74 4 q-26 1 -40.5 13.5t-14.5 27.5zM197 358l213 -8q-2 27 -2 82q0 269 38 594q-126 -355 -249 -668zM559 1550q0 14 13.5 28.5t50.5 52t75 87.5q35 45 58.5 93.5t36 65.5t36.5 17q29 0 53.5 -28t24.5 -60q0 -30 -35 -75t-88 -86q-58 -46 -118 -77.5t-88 -31.5q-19 0 -19 14z" />
<glyph unicode="&#xc2;" horiz-adv-x="811" d="M-104 330q0 15 14 26t37 11q3 0 121 -5q242 453 409 918l17 109q6 38 34 58.5t64 20.5q32 0 54 -18t22 -51q0 -26 -18 -214t-37.5 -441t-22.5 -429q-3 -192 37 -192q8 0 17 4.5t18.5 14.5t17.5 20.5t19 30t19.5 34.5t21.5 41.5t22 44.5t24.5 50.5t24.5 52.5q18 37 37 37 q12 0 12 -21q0 -18 -8 -37q-7 -17 -23.5 -60.5t-26.5 -69t-29 -67t-34.5 -67.5t-38 -57.5t-44.5 -49t-50.5 -30t-58.5 -12.5q-116 0 -133 313q-170 -10 -248 -10q-10 -24 -27 -67q-61 -148 -86 -193t-57 -45t-61 21t-29 48q0 14 15.5 45.5t50.5 93.5t53 97l-74 4 q-26 1 -40.5 13.5t-14.5 27.5zM197 358l213 -8q-2 27 -2 82q0 269 38 594q-126 -355 -249 -668zM379 1511q0 5 4 10.5t19 22.5t36.5 43t64.5 85t95 136q12 19 41.5 32t58.5 13q39 0 47 -24q31 -92 62 -158t50 -90t30.5 -40t11.5 -25q0 -21 -34.5 -40.5t-69.5 -19.5 q-26 0 -53.5 27t-50 70.5t-38.5 81.5t-28 75q-89 -145 -139 -193q-36 -34 -62 -34q-18 0 -31.5 8t-13.5 20z" />
<glyph unicode="&#xc3;" horiz-adv-x="811" d="M-104 330q0 15 14 26t37 11q3 0 121 -5q242 453 409 918l17 109q6 38 34 58.5t64 20.5q32 0 54 -18t22 -51q0 -26 -18 -214t-37.5 -441t-22.5 -429q-3 -192 37 -192q8 0 17 4.5t18.5 14.5t17.5 20.5t19 30t19.5 34.5t21.5 41.5t22 44.5t24.5 50.5t24.5 52.5q18 37 37 37 q12 0 12 -21q0 -18 -8 -37q-7 -17 -23.5 -60.5t-26.5 -69t-29 -67t-34.5 -67.5t-38 -57.5t-44.5 -49t-50.5 -30t-58.5 -12.5q-116 0 -133 313q-170 -10 -248 -10q-10 -24 -27 -67q-61 -148 -86 -193t-57 -45t-61 21t-29 48q0 14 15.5 45.5t50.5 93.5t53 97l-74 4 q-26 1 -40.5 13.5t-14.5 27.5zM197 358l213 -8q-2 27 -2 82q0 269 38 594q-126 -355 -249 -668zM313 1526q0 86 52.5 138t140.5 52q42 0 128.5 -30.5t123.5 -30.5q61 0 98 61q16 25 29 25q10 0 17 -12t7 -29q0 -101 -50 -150t-132 -49q-51 0 -145 40t-129 40q-61 0 -93 -76 q-9 -20 -22 -20q-10 0 -17.5 11t-7.5 30z" />
<glyph unicode="&#xc4;" horiz-adv-x="811" d="M-104 330q0 15 14 26t37 11q3 0 121 -5q242 453 409 918l17 109q6 38 34 58.5t64 20.5q32 0 54 -18t22 -51q0 -26 -18 -214t-37.5 -441t-22.5 -429q-3 -192 37 -192q8 0 17 4.5t18.5 14.5t17.5 20.5t19 30t19.5 34.5t21.5 41.5t22 44.5t24.5 50.5t24.5 52.5q18 37 37 37 q12 0 12 -21q0 -18 -8 -37q-7 -17 -23.5 -60.5t-26.5 -69t-29 -67t-34.5 -67.5t-38 -57.5t-44.5 -49t-50.5 -30t-58.5 -12.5q-116 0 -133 313q-170 -10 -248 -10q-10 -24 -27 -67q-61 -148 -86 -193t-57 -45t-61 21t-29 48q0 14 15.5 45.5t50.5 93.5t53 97l-74 4 q-26 1 -40.5 13.5t-14.5 27.5zM197 358l213 -8q-2 27 -2 82q0 269 38 594q-126 -355 -249 -668zM403 1606q0 43 33 79.5t84 36.5q36 0 54 -20t18 -51q0 -43 -31.5 -80t-79.5 -37q-33 0 -55.5 18.5t-22.5 53.5zM684 1606q0 46 33.5 87.5t83.5 41.5q38 0 58 -23.5t20 -58.5 q0 -47 -32.5 -85t-84.5 -38q-39 0 -58.5 21t-19.5 55z" />
<glyph unicode="&#xc5;" horiz-adv-x="811" d="M-104 330q0 15 14 26t37 11l121 -5q241 451 407 945q-96 54 -96 178q0 100 72 165.5t188 65.5q90 0 141 -66.5t51 -144.5t-46.5 -142.5t-127.5 -82.5q-2 -19 -20 -225t-24.5 -287.5t-14.5 -222t-8 -226.5q0 -196 37 -196q8 0 17 4.5t18.5 14.5t17.5 20.5t19 30t19.5 34.5 t21.5 41.5t22 44.5t24.5 50.5t24.5 52.5q18 37 37 37q12 0 12 -21q0 -18 -8 -37q-7 -17 -23.5 -60.5t-26.5 -69t-29 -67t-34.5 -67.5t-38 -57.5t-44.5 -49t-50.5 -30t-58.5 -12.5q-116 0 -133 313q-170 -10 -248 -10q-10 -24 -27 -67q-61 -148 -86 -193t-57 -45t-61 21 t-29 48q0 14 15.5 45.5t50.5 93.5t53 97l-74 4q-26 1 -40.5 13.5t-14.5 27.5zM197 358l213 -8q-6 52 -7 112t0 105t7.5 119.5t9.5 107.5t13 121t13 111q-126 -355 -249 -668zM520 1432q0 -40 11 -71.5t34 -31.5q50 0 90.5 77.5t40.5 158.5q0 83 -47 100q-57 1 -93 -73 t-36 -160z" />
<glyph unicode="&#xc6;" horiz-adv-x="1202" d="M-104 330q0 15 14 26t37 11q3 0 121 -5q249 463 415 934l11 93q3 33 28 51t58 18q27 0 45 -13.5t18 -41.5q0 -61 -11.5 -201.5t-13.5 -183.5q30 112 87.5 210t136.5 162t159 64q34 0 71.5 -15.5t49.5 -33.5q113 -54 113 -203q0 -68 -27.5 -198.5t-29.5 -172.5 q-1 -35 -36.5 -55t-78.5 -20q-38 0 -64 16t-26 47q0 49 22.5 114.5t50 119.5t50 117.5t22.5 109.5q0 47 -22 84q-70 0 -155.5 -99.5t-143.5 -235t-58 -236.5q0 -111 76 -131q32 4 45 4q33 0 53.5 -10.5t20.5 -30.5q0 -43 -74 -43q-40 0 -74 12q-72 -24 -112.5 -101 t-40.5 -169q0 -98 45 -159t131 -61q47 0 92.5 14.5t82.5 41t67.5 54t57.5 63t43 59t32.5 51t17.5 29.5q21 35 39 35q10 0 10 -15q0 -16 -8 -37q-11 -31 -32.5 -75t-67.5 -108t-100.5 -116t-136 -89.5t-169.5 -37.5q-140 0 -214 75t-97 249q-140 -12 -260 -12 q-10 -24 -27 -67q-61 -148 -86 -193t-57 -45t-61 21t-29 48q0 14 15.5 45.5t50.5 93.5t53 97l-74 4q-26 1 -40.5 13.5t-14.5 27.5zM197 358l225 -8q-6 67 -6 154q0 225 37 536q-153 -424 -256 -682zM598 594q43 27 88 41q-63 49 -82 127q-2 -34 -4 -98.5t-2 -69.5z" />
<glyph unicode="&#xc7;" horiz-adv-x="729" d="M-10 434q0 128 29.5 270t84 273t125 237.5t160 170t180.5 63.5q30 0 57.5 -10t39.5 -25q94 -46 94 -192q0 -87 -40.5 -255.5t-41.5 -213.5q-1 -36 -32 -56t-73 -20q-41 0 -70.5 17t-29.5 46q0 51 28 130.5t61 149.5t61 151t28 135q0 41 -14 69q-103 -2 -213 -162.5 t-180 -384t-70 -407.5q0 -139 48 -221t149 -82q59 0 113 25.5t99 73.5t77 92.5t69 107.5q21 35 39 35q10 0 10 -17q0 -14 -8 -35q-19 -49 -45 -99.5t-69.5 -110t-93 -104.5t-117 -75t-140.5 -30q-81 0 -143 35t-99 97.5t-55 143t-18 178.5zM76 -264q0 55 80 86q26 81 39 203 l84 -9q-7 -83 -37 -174h30q104 0 159.5 -49t55.5 -119q0 -76 -62.5 -135t-164.5 -59q-59 0 -59 20q0 8 8 14.5t22 6.5q46 0 77.5 43t31.5 96q0 49 -30.5 83t-90.5 34h-6q-49 -84 -96 -84q-17 0 -29 12t-12 31z" />
<glyph unicode="&#xc8;" horiz-adv-x="743" d="M-39 276q0 141 71 235.5t179 127.5q-109 73 -109 209q0 129 66 271t170 238.5t205 96.5q34 0 71.5 -15.5t49.5 -33.5q112 -53 112 -203q0 -68 -27.5 -198.5t-29.5 -172.5q-1 -35 -36.5 -55t-78.5 -20q-38 0 -64 16t-26 47q0 49 22.5 114.5t50 119.5t50 117.5t22.5 109.5 q0 47 -22 84h-10q-66 0 -149 -99.5t-140 -235.5t-57 -236q0 -111 75 -131q32 4 45 4q33 0 53.5 -10.5t20.5 -30.5q0 -22 -20.5 -32.5t-51.5 -10.5q-41 0 -75 12q-78 -24 -126 -107.5t-48 -177.5q0 -83 40.5 -136.5t120.5 -53.5q246 0 423 290q2 2 3 4t2 3q21 35 39 35 q11 0 11 -15q0 -13 -9 -37q-7 -19 -19.5 -46.5t-37.5 -69.5t-55.5 -82.5t-75 -82.5t-94 -73.5t-114.5 -51.5t-134 -20q-143 0 -218 88.5t-75 214.5zM387 1790q0 33 25.5 59.5t54.5 26.5q23 0 37 -16t21 -39t23.5 -64.5t37.5 -77.5q29 -47 59.5 -86t41.5 -56t11 -36 q0 -14 -16 -14q-34 0 -105 52t-130.5 126t-59.5 125z" />
<glyph unicode="&#xc9;" horiz-adv-x="743" d="M-39 276q0 141 71 235.5t179 127.5q-109 73 -109 209q0 129 66 271t170 238.5t205 96.5q34 0 71.5 -15.5t49.5 -33.5q112 -53 112 -203q0 -68 -27.5 -198.5t-29.5 -172.5q-1 -35 -36.5 -55t-78.5 -20q-38 0 -64 16t-26 47q0 49 22.5 114.5t50 119.5t50 117.5t22.5 109.5 q0 47 -22 84h-10q-66 0 -149 -99.5t-140 -235.5t-57 -236q0 -111 75 -131q32 4 45 4q33 0 53.5 -10.5t20.5 -30.5q0 -22 -20.5 -32.5t-51.5 -10.5q-41 0 -75 12q-78 -24 -126 -107.5t-48 -177.5q0 -83 40.5 -136.5t120.5 -53.5q246 0 423 290q2 2 3 4t2 3q21 35 39 35 q11 0 11 -15q0 -13 -9 -37q-7 -19 -19.5 -46.5t-37.5 -69.5t-55.5 -82.5t-75 -82.5t-94 -73.5t-114.5 -51.5t-134 -20q-143 0 -218 88.5t-75 214.5zM502 1507q0 14 13.5 28.5t50.5 52t75 87.5q35 45 58.5 93.5t36 65.5t36.5 17q29 0 53.5 -28t24.5 -60q0 -30 -35 -75 t-88 -86q-58 -46 -118.5 -77.5t-88.5 -31.5q-18 0 -18 14z" />
<glyph unicode="&#xca;" horiz-adv-x="743" d="M-39 276q0 141 71 235.5t179 127.5q-109 73 -109 209q0 129 66 271t170 238.5t205 96.5q34 0 71.5 -15.5t49.5 -33.5q112 -53 112 -203q0 -68 -27.5 -198.5t-29.5 -172.5q-1 -35 -36.5 -55t-78.5 -20q-38 0 -64 16t-26 47q0 49 22.5 114.5t50 119.5t50 117.5t22.5 109.5 q0 47 -22 84h-10q-66 0 -149 -99.5t-140 -235.5t-57 -236q0 -111 75 -131q32 4 45 4q33 0 53.5 -10.5t20.5 -30.5q0 -22 -20.5 -32.5t-51.5 -10.5q-41 0 -75 12q-78 -24 -126 -107.5t-48 -177.5q0 -83 40.5 -136.5t120.5 -53.5q246 0 423 290q2 2 3 4t2 3q21 35 39 35 q11 0 11 -15q0 -13 -9 -37q-7 -19 -19.5 -46.5t-37.5 -69.5t-55.5 -82.5t-75 -82.5t-94 -73.5t-114.5 -51.5t-134 -20q-143 0 -218 88.5t-75 214.5zM375 1552q0 5 4 10.5t19 22.5t36.5 43t64.5 85t95 136q12 19 41.5 32t58.5 13q39 0 47 -24q31 -92 62 -158t50 -90.5 t30.5 -40.5t11.5 -25q0 -21 -34.5 -40t-69.5 -19q-26 0 -53.5 27t-50 70.5t-38.5 81.5t-28 75q-89 -145 -139 -193q-36 -34 -62 -34q-18 0 -31.5 8t-13.5 20z" />
<glyph unicode="&#xcb;" horiz-adv-x="743" d="M-39 276q0 141 71 235.5t179 127.5q-109 73 -109 209q0 129 66 271t170 238.5t205 96.5q34 0 71.5 -15.5t49.5 -33.5q112 -53 112 -203q0 -68 -27.5 -198.5t-29.5 -172.5q-1 -35 -36.5 -55t-78.5 -20q-38 0 -64 16t-26 47q0 49 22.5 114.5t50 119.5t50 117.5t22.5 109.5 q0 47 -22 84h-10q-66 0 -149 -99.5t-140 -235.5t-57 -236q0 -111 75 -131q32 4 45 4q33 0 53.5 -10.5t20.5 -30.5q0 -22 -20.5 -32.5t-51.5 -10.5q-41 0 -75 12q-78 -24 -126 -107.5t-48 -177.5q0 -83 40.5 -136.5t120.5 -53.5q246 0 423 290q2 2 3 4t2 3q21 35 39 35 q11 0 11 -15q0 -13 -9 -37q-7 -19 -19.5 -46.5t-37.5 -69.5t-55.5 -82.5t-75 -82.5t-94 -73.5t-114.5 -51.5t-134 -20q-143 0 -218 88.5t-75 214.5zM381 1608q0 43 33 79.5t84 36.5q36 0 53.5 -19.5t17.5 -51.5q0 -43 -31 -80t-79 -37q-33 0 -55.5 18.5t-22.5 53.5z M662 1608q0 46 33.5 87.5t82.5 41.5q38 0 58 -23.5t20 -58.5q0 -47 -32.5 -85t-84.5 -38q-39 0 -58 21t-19 55z" />
<glyph unicode="&#xcc;" horiz-adv-x="659" d="M-43 848q0 96 40 203t103 194.5t148.5 145t169.5 57.5q97 0 159 -60t62 -184q0 -211 -55.5 -464t-184.5 -717q-11 -39 -71 -39q-42 0 -75.5 19.5t-33.5 51.5q0 18 44 172t96.5 338.5t96.5 393.5t44 325q0 88 -45 107q-67 -3 -149.5 -108t-139.5 -250.5t-57 -256.5 q0 -139 94 -164q33 -9 33 -28q0 -8 -10 -14.5t-29 -6.5q-61 0 -109.5 27t-75.5 70t-41 91t-14 97zM330 1767q0 33 25.5 59.5t54.5 26.5t42.5 -22t31.5 -76.5t44 -97.5q29 -47 59.5 -86t42 -56t11.5 -36q0 -15 -16 -15q-34 0 -105 52t-130.5 126t-59.5 125z" />
<glyph unicode="&#xcd;" horiz-adv-x="659" d="M-43 848q0 96 40 203t103 194.5t148.5 145t169.5 57.5q97 0 159 -60t62 -184q0 -211 -55.5 -464t-184.5 -717q-11 -39 -71 -39q-42 0 -75.5 19.5t-33.5 51.5q0 18 44 172t96.5 338.5t96.5 393.5t44 325q0 88 -45 107q-67 -3 -149.5 -108t-139.5 -250.5t-57 -256.5 q0 -139 94 -164q33 -9 33 -28q0 -8 -10 -14.5t-29 -6.5q-61 0 -109.5 27t-75.5 70t-41 91t-14 97zM387 1518q0 14 13.5 28.5t50.5 52t75 87.5q35 45 58.5 93.5t36 65.5t36.5 17q29 0 53.5 -28t24.5 -60q0 -30 -35.5 -75.5t-87.5 -86.5q-58 -46 -118 -77.5t-88 -31.5 q-19 0 -19 15z" />
<glyph unicode="&#xce;" horiz-adv-x="659" d="M-43 848q0 96 40 203t103 194.5t148.5 145t169.5 57.5q97 0 159 -60t62 -184q0 -211 -55.5 -464t-184.5 -717q-11 -39 -71 -39q-42 0 -75.5 19.5t-33.5 51.5q0 18 44 172t96.5 338.5t96.5 393.5t44 325q0 88 -45 107q-67 -3 -149.5 -108t-139.5 -250.5t-57 -256.5 q0 -139 94 -164q33 -9 33 -28q0 -8 -10 -14.5t-29 -6.5q-61 0 -109.5 27t-75.5 70t-41 91t-14 97zM236 1520q0 5 4 10.5t19 22.5t36.5 43t64.5 85t95 136q12 19 41.5 32t58.5 13q39 0 47 -25q31 -92 62 -158t50 -90t30.5 -40t11.5 -25q0 -21 -35 -40.5t-70 -19.5 q-26 0 -53.5 27t-50 70.5t-38.5 81.5t-28 75q-83 -135 -128 -183q-43 -43 -72 -44q-18 0 -31.5 8.5t-13.5 20.5z" />
<glyph unicode="&#xcf;" horiz-adv-x="659" d="M-43 848q0 96 40 203t103 194.5t148.5 145t169.5 57.5q97 0 159 -60t62 -184q0 -211 -55.5 -464t-184.5 -717q-11 -39 -71 -39q-42 0 -75.5 19.5t-33.5 51.5q0 18 44 172t96.5 338.5t96.5 393.5t44 325q0 88 -45 107q-67 -3 -149.5 -108t-139.5 -250.5t-57 -256.5 q0 -139 94 -164q33 -9 33 -28q0 -8 -10 -14.5t-29 -6.5q-61 0 -109.5 27t-75.5 70t-41 91t-14 97zM289 1604q0 43 33 79.5t84 36.5q36 0 53.5 -19.5t17.5 -51.5q0 -43 -31 -80t-79 -37q-33 0 -55.5 18.5t-22.5 53.5zM569 1604q0 46 33.5 87.5t83.5 41.5q38 0 58 -23.5 t20 -58.5q0 -47 -32.5 -85t-84.5 -38q-39 0 -58.5 21t-19.5 55z" />
<glyph unicode="&#xd0;" horiz-adv-x="1011" d="M-90 147q0 34 30 63.5t66 29.5q19 0 35 -11.5t41.5 -39t42.5 -42.5q44 27 74.5 119.5t58.5 247.5q-137 0 -137 37q0 59 153 59q2 15 13 83.5t14.5 92t13.5 82.5t16.5 90.5t16.5 78.5t20 84t21 71q17 55 90 55q42 0 75.5 -22t33.5 -54q0 -19 -12 -62t-43.5 -175 t-65.5 -324q9 0 28 1t29 1q45 0 45 -24q0 -26 -35.5 -45t-89.5 -25q-99 -362 -262 -416q89 -75 205 -75q88 0 165 100.5t125.5 252.5t76.5 322.5t28 319.5q0 215 -55 287q-67 34 -154 34q-124 0 -234.5 -78.5t-172.5 -215.5q-13 -31 -43 -31q-38 0 -76.5 47t-38.5 98 q0 39 38 89.5t99.5 95t149.5 75.5t176 31q178 0 285 -98q111 -72 164 -198.5t53 -285.5q0 -123 -28 -249.5t-82.5 -241t-127.5 -204t-170 -142.5t-203 -53q-96 0 -176 12.5t-129.5 31.5t-84 42.5t-48.5 43.5t-14 35z" />
<glyph unicode="&#xd1;" horiz-adv-x="864" d="M-102 20q0 7 20.5 47.5t58.5 131.5t83 221.5t103 358.5t109 503q0 47 2 72q1 41 39 65.5t84 24.5q30 0 50 -11t20 -32q0 -34 -4 -100t-4 -99q0 -178 26.5 -383.5t50 -318.5t60.5 -269q82 716 172 1162q7 34 36.5 51.5t65.5 17.5q29 0 48.5 -10t19.5 -27q0 -13 -13.5 -52 t-41 -130t-63 -224t-87.5 -377.5t-106 -547.5q4 -14 4 -28q0 -32 -35 -59t-74 -27q-49 0 -63 51q-151 542 -180 1003q-44 -298 -87 -501t-133 -506q-6 -20 -32 -31.5t-58 -11.5q-71 0 -71 36zM360 1569q0 86 52.5 138t140.5 52q42 0 128.5 -30.5t123.5 -30.5q61 0 98 61 q16 25 29 25q10 0 17 -12t7 -29q0 -101 -50 -150t-132 -49q-50 0 -144 40t-130 40q-60 0 -92 -76q-9 -20 -23 -20q-10 0 -17.5 11t-7.5 30z" />
<glyph unicode="&#xd2;" horiz-adv-x="892" d="M-6 469q0 62 5 109.5t19.5 102.5t48 97.5t83.5 69.5q-25 60 -25 139q0 109 47.5 212t137.5 172t200 69q82 0 144 -28t99.5 -72.5t60.5 -108t31.5 -126.5t8.5 -136q0 -158 -42.5 -331t-113.5 -317.5t-173.5 -238.5t-211.5 -94q-152 0 -235.5 134t-83.5 347zM168 338 q0 -253 117 -303q90 1 180.5 190.5t144.5 442.5t54 454v12q0 44 -1.5 69t-7.5 63.5t-22.5 65.5t-42.5 46q-77 -1 -144 -70t-104 -171t-37 -203q0 -163 96 -229q21 -15 21 -31q0 -15 -23 -15q-74 0 -163 70l-9 -29q-64 -217 -59 -362zM315 1792q0 33 25.5 59.5t54.5 26.5 q23 0 37 -16t21 -39t23.5 -64.5t37.5 -77.5q29 -47 59.5 -86t42 -56t11.5 -36q0 -14 -17 -14q-34 0 -105 52t-130.5 126t-59.5 125z" />
<glyph unicode="&#xd3;" horiz-adv-x="892" d="M-6 469q0 62 5 109.5t19.5 102.5t48 97.5t83.5 69.5q-25 60 -25 139q0 109 47.5 212t137.5 172t200 69q82 0 144 -28t99.5 -72.5t60.5 -108t31.5 -126.5t8.5 -136q0 -158 -42.5 -331t-113.5 -317.5t-173.5 -238.5t-211.5 -94q-152 0 -235.5 134t-83.5 347zM168 338 q0 -253 117 -303q90 1 180.5 190.5t144.5 442.5t54 454v12q0 44 -1.5 69t-7.5 63.5t-22.5 65.5t-42.5 46q-77 -1 -144 -70t-104 -171t-37 -203q0 -163 96 -229q21 -15 21 -31q0 -15 -23 -15q-74 0 -163 70l-9 -29q-64 -217 -59 -362zM461 1493q0 14 13.5 28.5t50.5 52 t75 87.5q35 45 58.5 93.5t36 65.5t36.5 17q29 0 53.5 -28t24.5 -60q0 -30 -35.5 -75.5t-87.5 -86.5q-58 -45 -118.5 -76.5t-88.5 -31.5q-18 0 -18 14z" />
<glyph unicode="&#xd4;" horiz-adv-x="892" d="M-6 469q0 62 5 109.5t19.5 102.5t48 97.5t83.5 69.5q-25 60 -25 139q0 109 47.5 212t137.5 172t200 69q82 0 144 -28t99.5 -72.5t60.5 -108t31.5 -126.5t8.5 -136q0 -158 -42.5 -331t-113.5 -317.5t-173.5 -238.5t-211.5 -94q-152 0 -235.5 134t-83.5 347zM168 338 q0 -253 117 -303q90 1 180.5 190.5t144.5 442.5t54 454v12q0 44 -1.5 69t-7.5 63.5t-22.5 65.5t-42.5 46q-77 -1 -144 -70t-104 -171t-37 -203q0 -163 96 -229q21 -15 21 -31q0 -15 -23 -15q-74 0 -163 70l-9 -29q-64 -217 -59 -362zM346 1526q0 5 4 10.5t19 22.5t36.5 43 t64.5 85t95 136q12 19 42 32t59 13q39 0 47 -25q31 -92 62 -158t49.5 -90t30 -40t11.5 -25q0 -21 -34.5 -40.5t-69.5 -19.5q-26 0 -53.5 27t-50 70.5t-38.5 81.5t-28 75q-89 -145 -139 -193q-36 -34 -62 -34q-18 0 -31.5 8.5t-13.5 20.5z" />
<glyph unicode="&#xd5;" horiz-adv-x="892" d="M-6 469q0 62 5 109.5t19.5 102.5t48 97.5t83.5 69.5q-25 60 -25 139q0 109 47.5 212t137.5 172t200 69q82 0 144 -28t99.5 -72.5t60.5 -108t31.5 -126.5t8.5 -136q0 -158 -42.5 -331t-113.5 -317.5t-173.5 -238.5t-211.5 -94q-152 0 -235.5 134t-83.5 347zM168 338 q0 -253 117 -303q90 1 180.5 190.5t144.5 442.5t54 454v12q0 44 -1.5 69t-7.5 63.5t-22.5 65.5t-42.5 46q-77 -1 -144 -70t-104 -171t-37 -203q0 -163 96 -229q21 -15 21 -31q0 -15 -23 -15q-74 0 -163 70l-9 -29q-64 -217 -59 -362zM307 1546q0 86 52.5 138.5t140.5 52.5 q42 0 128.5 -31t123.5 -31q61 0 98 62q15 24 29 24q10 0 17 -12t7 -29q0 -101 -50 -149.5t-132 -48.5q-51 0 -145 40t-130 40q-60 0 -92 -76q-9 -21 -22 -21q-10 0 -17.5 11t-7.5 30z" />
<glyph unicode="&#xd6;" horiz-adv-x="892" d="M-6 469q0 62 5 109.5t19.5 102.5t48 97.5t83.5 69.5q-25 60 -25 139q0 109 47.5 212t137.5 172t200 69q82 0 144 -28t99.5 -72.5t60.5 -108t31.5 -126.5t8.5 -136q0 -158 -42.5 -331t-113.5 -317.5t-173.5 -238.5t-211.5 -94q-152 0 -235.5 134t-83.5 347zM168 338 q0 -253 117 -303q90 1 180.5 190.5t144.5 442.5t54 454v12q0 44 -1.5 69t-7.5 63.5t-22.5 65.5t-42.5 46q-77 -1 -144 -70t-104 -171t-37 -203q0 -163 96 -229q21 -15 21 -31q0 -15 -23 -15q-74 0 -163 70l-9 -29q-64 -217 -59 -362zM371 1602q0 43 32.5 79.5t83.5 36.5 q36 0 54 -20t18 -51q0 -43 -31 -80t-79 -37q-33 0 -55.5 18.5t-22.5 53.5zM651 1602q0 46 33.5 87.5t83.5 41.5q38 0 58 -23.5t20 -58.5q0 -47 -32.5 -85t-84.5 -38q-39 0 -58.5 21t-19.5 55z" />
<glyph unicode="&#xd7;" horiz-adv-x="571" d="M33 438q0 16 7 32.5t50.5 63.5t124.5 115q-123 179 -123 228q0 36 35 36q28 0 54.5 -29t61 -90.5t46.5 -78.5q215 194 246 194q22 0 22 -28q0 -36 -52.5 -96.5t-156.5 -151.5q88 -111 111.5 -147t23.5 -52q0 -35 -39 -35q-17 0 -34 8.5t-37.5 30.5t-32 36t-36.5 48 t-32 43q-9 -8 -34 -29l-37.5 -31.5t-34 -28.5t-35 -27.5t-29 -20.5t-26 -15.5t-17.5 -4.5q-26 0 -26 30z" />
<glyph unicode="&#xd8;" horiz-adv-x="892" d="M-6 469q0 62 5 109.5t19.5 102.5t48 97.5t83.5 69.5q-25 60 -25 139q0 109 47.5 212t137.5 172t200 69q82 0 144 -28t99.5 -72.5t60.5 -108t31.5 -126.5t8.5 -136q0 -158 -42.5 -331t-113.5 -317.5t-173.5 -238.5t-211.5 -94q-83 0 -145 41l-16 -33q-11 -22 -24.5 -34.5 t-21.5 -12.5q-14 0 -14 20q0 21 17 54l18 38q-65 62 -99 168t-34 240zM165.5 321q1.5 -70 16.5 -135q89 201 201 473q-71 8 -147 70q-22 -77 -35.5 -134.5t-25 -130.5t-10 -143zM209 111q29 -59 76 -76q90 1 180.5 191t144.5 447t54 466q-7 -16 -39.5 -96.5t-44.5 -109.5 t-45.5 -109t-53.5 -126t-55.5 -126.5t-66 -145.5t-70 -148.5t-80.5 -166.5zM305 934q0 -163 96 -229l242 600q-17 49 -53 73q-77 -1 -144 -70t-104 -171t-37 -203z" />
<glyph unicode="&#xd9;" horiz-adv-x="1112" d="M-43 848q0 96 40 203t103 194.5t148.5 145t169.5 57.5q34 0 65 -14q75 -11 119.5 -68.5t44.5 -161.5t-27.5 -242t-60.5 -250t-60.5 -234.5t-27.5 -198.5q0 -68 21.5 -102t56.5 -34q36 0 76 80.5t67 174.5t49 198q90 439 189 805q6 24 27 36.5t49 12.5q44 0 78 -28t34 -76 q0 -53 -61.5 -296t-123 -503t-61.5 -354q0 -70 29 -70q16 0 34.5 13.5t37 37.5t36 49.5t35.5 59t29 55.5t24 48.5t15 29.5q18 35 35 35q14 0 14 -21q0 -16 -8 -35q-1 -2 -11.5 -28.5t-16.5 -42t-21 -48.5t-26.5 -55.5t-30 -55.5t-35.5 -55t-39 -47t-43 -40t-46 -25t-50 -10 q-68 0 -110 55t-38 178q-92 -241 -217 -241q-79 0 -131.5 77t-52.5 207q0 89 33.5 224t74 255.5t74 271t33.5 265.5q0 95 -45 111q-67 -3 -149.5 -108t-139.5 -250.5t-57 -256.5q0 -139 94 -164q33 -9 33 -28q0 -8 -10 -14.5t-29 -6.5q-61 0 -109.5 27t-75.5 70t-41 91 t-14 97zM547 1772q0 33 25.5 59.5t54.5 26.5t42.5 -22.5t31.5 -77t44 -97.5q29 -47 59.5 -86t42 -56t11.5 -36q0 -15 -16 -15q-34 0 -105 52.5t-130.5 126.5t-59.5 125z" />
<glyph unicode="&#xda;" horiz-adv-x="1112" d="M-43 848q0 96 40 203t103 194.5t148.5 145t169.5 57.5q34 0 65 -14q75 -11 119.5 -68.5t44.5 -161.5t-27.5 -242t-60.5 -250t-60.5 -234.5t-27.5 -198.5q0 -68 21.5 -102t56.5 -34q36 0 76 80.5t67 174.5t49 198q90 439 189 805q6 24 27 36.5t49 12.5q44 0 78 -28t34 -76 q0 -53 -61.5 -296t-123 -503t-61.5 -354q0 -70 29 -70q16 0 34.5 13.5t37 37.5t36 49.5t35.5 59t29 55.5t24 48.5t15 29.5q18 35 35 35q14 0 14 -21q0 -16 -8 -35q-1 -2 -11.5 -28.5t-16.5 -42t-21 -48.5t-26.5 -55.5t-30 -55.5t-35.5 -55t-39 -47t-43 -40t-46 -25t-50 -10 q-68 0 -110 55t-38 178q-92 -241 -217 -241q-79 0 -131.5 77t-52.5 207q0 89 33.5 224t74 255.5t74 271t33.5 265.5q0 95 -45 111q-67 -3 -149.5 -108t-139.5 -250.5t-57 -256.5q0 -139 94 -164q33 -9 33 -28q0 -8 -10 -14.5t-29 -6.5q-61 0 -109.5 27t-75.5 70t-41 91 t-14 97zM657 1499q0 14 14 28.5t51 52t75 87.5q35 45 58.5 93.5t36 65.5t36.5 17q29 0 53.5 -28t24.5 -60q0 -30 -35.5 -75.5t-87.5 -86.5q-58 -45 -118.5 -76.5t-88.5 -31.5q-19 0 -19 14z" />
<glyph unicode="&#xdb;" horiz-adv-x="1112" d="M-43 848q0 96 40 203t103 194.5t148.5 145t169.5 57.5q34 0 65 -14q75 -11 119.5 -68.5t44.5 -161.5t-27.5 -242t-60.5 -250t-60.5 -234.5t-27.5 -198.5q0 -68 21.5 -102t56.5 -34q36 0 76 80.5t67 174.5t49 198q90 439 189 805q6 24 27 36.5t49 12.5q44 0 78 -28t34 -76 q0 -53 -61.5 -296t-123 -503t-61.5 -354q0 -70 29 -70q16 0 34.5 13.5t37 37.5t36 49.5t35.5 59t29 55.5t24 48.5t15 29.5q18 35 35 35q14 0 14 -21q0 -16 -8 -35q-1 -2 -11.5 -28.5t-16.5 -42t-21 -48.5t-26.5 -55.5t-30 -55.5t-35.5 -55t-39 -47t-43 -40t-46 -25t-50 -10 q-68 0 -110 55t-38 178q-92 -241 -217 -241q-79 0 -131.5 77t-52.5 207q0 89 33.5 224t74 255.5t74 271t33.5 265.5q0 95 -45 111q-67 -3 -149.5 -108t-139.5 -250.5t-57 -256.5q0 -139 94 -164q33 -9 33 -28q0 -8 -10 -14.5t-29 -6.5q-61 0 -109.5 27t-75.5 70t-41 91 t-14 97zM541 1556q0 5 4 10.5t19 22.5t36.5 43t64.5 85t95 136q12 19 41.5 32t58.5 13q39 0 47 -24q31 -92 62 -158t50 -90t30.5 -40t11.5 -25q0 -21 -35 -40.5t-70 -19.5q-26 0 -53.5 27t-50 70.5t-38.5 81.5t-28 75q-83 -135 -128 -183q-43 -44 -72 -44q-18 0 -31.5 8 t-13.5 20z" />
<glyph unicode="&#xdc;" horiz-adv-x="1112" d="M-43 848q0 96 40 203t103 194.5t148.5 145t169.5 57.5q34 0 65 -14q75 -11 119.5 -68.5t44.5 -161.5t-27.5 -242t-60.5 -250t-60.5 -234.5t-27.5 -198.5q0 -68 21.5 -102t56.5 -34q36 0 76 80.5t67 174.5t49 198q90 439 189 805q6 24 27 36.5t49 12.5q44 0 78 -28t34 -76 q0 -53 -61.5 -296t-123 -503t-61.5 -354q0 -70 29 -70q16 0 34.5 13.5t37 37.5t36 49.5t35.5 59t29 55.5t24 48.5t15 29.5q18 35 35 35q14 0 14 -21q0 -16 -8 -35q-1 -2 -11.5 -28.5t-16.5 -42t-21 -48.5t-26.5 -55.5t-30 -55.5t-35.5 -55t-39 -47t-43 -40t-46 -25t-50 -10 q-68 0 -110 55t-38 178q-92 -241 -217 -241q-79 0 -131.5 77t-52.5 207q0 89 33.5 224t74 255.5t74 271t33.5 265.5q0 95 -45 111q-67 -3 -149.5 -108t-139.5 -250.5t-57 -256.5q0 -139 94 -164q33 -9 33 -28q0 -8 -10 -14.5t-29 -6.5q-61 0 -109.5 27t-75.5 70t-41 91 t-14 97zM571 1610q0 43 33 79.5t84 36.5q36 0 54 -20t18 -51q0 -43 -31.5 -80t-79.5 -37q-33 0 -55.5 18.5t-22.5 53.5zM852 1610q0 46 33.5 87.5t83.5 41.5q38 0 58 -23.5t20 -58.5q0 -47 -32.5 -85t-84.5 -38q-39 0 -58.5 21t-19.5 55z" />
<glyph unicode="&#xdd;" horiz-adv-x="1148" d="M6 848q0 96 40 203t103 194.5t148.5 145t169.5 57.5q33 0 65 -14q75 -11 119.5 -68.5t44.5 -161.5q0 -75 -71.5 -377.5t-71.5 -377.5q0 -134 59 -134q30 0 64 45t65.5 123t59 162.5t53.5 181.5q100 441 141 586q12 45 60 45q41 0 76.5 -33.5t35.5 -81.5q0 -16 -2 -24 q-136 -621 -286 -1206q179 117 270 303q14 33 35 33q14 0 14 -21q0 -9 -8 -33q-60 -148 -144.5 -238.5t-193.5 -150.5l-12 -47q-60 -227 -160.5 -339t-202.5 -112q-66 0 -121 43.5t-55 110.5q0 52 21.5 97t45 73t80.5 62.5t86.5 48t104.5 46.5q19 9 29 13l86 381 q-106 -227 -230 -227q-68 0 -112.5 63t-44.5 178q0 116 45.5 300.5t91 355t45.5 252.5q0 70 -45 86q-67 -3 -149.5 -108t-139.5 -250t-57 -255q0 -141 94 -166q33 -9 33 -28q0 -8 -10 -14.5t-29 -6.5q-61 0 -109.5 27t-75.5 70t-41 91t-14 97zM373 -362q0 -27 13.5 -46.5 t39.5 -19.5q55 0 113 79t106 263q-41 -18 -72.5 -34t-71 -42.5t-66 -54t-44.5 -65.5t-18 -80zM696 1534q0 14 14 28.5t51 52t75 87.5q35 45 58.5 93.5t36 65.5t36.5 17q29 0 53 -27.5t24 -60.5q0 -30 -35 -75.5t-87 -86.5q-58 -45 -118.5 -76.5t-88.5 -31.5q-19 0 -19 14z " />
<glyph unicode="&#xde;" horiz-adv-x="915" d="M-16 913q0 49 56 112.5t149.5 114t187.5 60.5q4 14 11.5 48t13 56.5t16 52.5t20.5 48.5t26 31.5t34 13q44 0 87.5 -31.5t43.5 -68.5q0 -11 -2 -15l-41 -151q66 -19 133 -66q93 -57 143.5 -153t50.5 -203q0 -86 -30.5 -156.5t-82 -118t-120.5 -78t-146 -42t-157 -5.5 q-61 -247 -78 -344q-6 -32 -53 -32q-37 0 -68 19.5t-31 49.5q0 25 2.5 54.5t9 68t11 64.5t14 77t13.5 72q-38 10 -58 25t-20 28q0 34 90 7q50 268 125 577q-125 -79 -193 -229q-13 -31 -43 -31q-38 0 -76 47t-38 98zM395 442q164 21 260.5 131.5t96.5 266.5q0 110 -50 219 q-72 32 -141 35q-8 -33 -72.5 -282.5t-93.5 -369.5z" />
<glyph unicode="&#xdf;" horiz-adv-x="782" d="M-2 360q0 134 38 333t97 387.5t143 323t164 134.5q53 0 82 -41q56 -32 78.5 -105t22.5 -200q0 -116 -22 -210t-48 -140t-48 -82t-22 -49q0 -23 16 -45t38.5 -46.5t45 -57t38.5 -90t16 -130.5q0 -132 -62 -227q25 18 44.5 37.5t40 50.5t33.5 53t41.5 74.5t47.5 85.5 q17 33 35 33q12 0 12 -23q0 -13 -6 -31q-42 -105 -84 -175.5t-98.5 -126t-131 -81.5t-171.5 -26q-158 0 -233.5 59t-75.5 137q0 66 43 103q-32 8 -53 27.5t-21 47.5zM164 301q33 -13 42 -49.5t9 -120.5q0 -47 19 -72.5t53 -25.5q78 0 130 85.5t52 192.5q0 60 -13.5 107.5 t-32.5 77.5t-38.5 56.5t-33 58t-13.5 67.5q0 27 27.5 109t58.5 173.5t50.5 227.5t6.5 262q-49 -34 -122.5 -251t-128 -472t-54.5 -391q0 -23 -12 -35z" />
<glyph unicode="&#xe0;" d="M-12 266q0 117 32.5 252t86 251.5t133 193.5t163.5 77q57 0 96 -49t42 -102h12q42 0 77.5 -33t35.5 -86q0 -21 -2 -31q-21 -98 -55.5 -234t-53 -219t-18.5 -126q0 -51 28 -51q31 0 79 74.5t124 232.5q7 16 18 25.5t19 9.5q12 0 12 -21q0 -16 -8 -35q-164 -407 -315 -407 q-58 0 -99 42t-41 146q0 25 2 39q-52 -106 -107 -166.5t-104 -60.5q-80 0 -118.5 75.5t-38.5 202.5zM172 227q0 -100 35 -100q55 0 116 122.5t101 299.5l65 295q0 78 -55 78q-64 0 -127 -130t-99 -291.5t-36 -273.5zM315 1362q0 33 25.5 59.5t54.5 26.5q23 0 37 -16t21 -39 t23.5 -64.5t37.5 -77.5q29 -47 59.5 -86t42 -56t11.5 -36q0 -14 -17 -14q-34 0 -105 52t-130.5 126t-59.5 125z" />
<glyph unicode="&#xe1;" d="M-12 266q0 117 32.5 252t86 251.5t133 193.5t163.5 77q57 0 96 -49t42 -102h12q42 0 77.5 -33t35.5 -86q0 -21 -2 -31q-21 -98 -55.5 -234t-53 -219t-18.5 -126q0 -51 28 -51q31 0 79 74.5t124 232.5q7 16 18 25.5t19 9.5q12 0 12 -21q0 -16 -8 -35q-164 -407 -315 -407 q-58 0 -99 42t-41 146q0 25 2 39q-52 -106 -107 -166.5t-104 -60.5q-80 0 -118.5 75.5t-38.5 202.5zM172 227q0 -100 35 -100q55 0 116 122.5t101 299.5l65 295q0 78 -55 78q-64 0 -127 -130t-99 -291.5t-36 -273.5zM326 1114q0 14 13.5 28.5t50.5 52t75 87.5 q35 45 58.5 93.5t36 65.5t36.5 17q29 0 53.5 -28t24.5 -60q0 -30 -35.5 -75.5t-87.5 -86.5q-58 -45 -118.5 -76.5t-88.5 -31.5q-18 0 -18 14z" />
<glyph unicode="&#xe2;" d="M-12 266q0 117 32.5 252t86 251.5t133 193.5t163.5 77q57 0 96 -49t42 -102h12q42 0 77.5 -33t35.5 -86q0 -21 -2 -31q-21 -98 -55.5 -234t-53 -219t-18.5 -126q0 -51 28 -51q31 0 79 74.5t124 232.5q7 16 18 25.5t19 9.5q12 0 12 -21q0 -16 -8 -35q-164 -407 -315 -407 q-58 0 -99 42t-41 146q0 25 2 39q-52 -106 -107 -166.5t-104 -60.5q-80 0 -118.5 75.5t-38.5 202.5zM172 227q0 -100 35 -100q55 0 116 122.5t101 299.5l65 295q0 78 -55 78q-64 0 -127 -130t-99 -291.5t-36 -273.5zM236 1157q0 5 4 10.5t19 22.5t36.5 43t64.5 85t95 136 q12 19 41.5 32t58.5 13q39 0 47 -24q31 -92 62 -158t50 -90.5t30.5 -40.5t11.5 -25q0 -21 -35 -40t-70 -19q-26 0 -53.5 27t-50 70.5t-38.5 81.5t-28 75q-80 -131 -123 -177q-46 -51 -77 -51q-18 0 -31.5 8.5t-13.5 20.5z" />
<glyph unicode="&#xe3;" d="M-12 266q0 117 32.5 252t86 251.5t133 193.5t163.5 77q57 0 96 -49t42 -102h12q42 0 77.5 -33t35.5 -86q0 -21 -2 -31q-21 -98 -55.5 -234t-53 -219t-18.5 -126q0 -51 28 -51q31 0 79 74.5t124 232.5q7 16 18 25.5t19 9.5q12 0 12 -21q0 -16 -8 -35q-164 -407 -315 -407 q-58 0 -99 42t-41 146q0 25 2 39q-52 -106 -107 -166.5t-104 -60.5q-80 0 -118.5 75.5t-38.5 202.5zM172 227q0 -100 35 -100q55 0 116 122.5t101 299.5l65 295q0 78 -55 78q-64 0 -127 -130t-99 -291.5t-36 -273.5zM184 1139q0 86 52.5 138t140.5 52q42 0 128.5 -30.5 t123.5 -30.5q61 0 98 61q16 25 29 25q10 0 17 -12t7 -29q0 -101 -50 -150t-132 -49q-50 0 -144 40t-130 40q-61 0 -93 -76q-9 -20 -22 -20q-10 0 -17.5 11t-7.5 30z" />
<glyph unicode="&#xe4;" d="M-12 266q0 117 32.5 252t86 251.5t133 193.5t163.5 77q57 0 96 -49t42 -102h12q42 0 77.5 -33t35.5 -86q0 -21 -2 -31q-21 -98 -55.5 -234t-53 -219t-18.5 -126q0 -51 28 -51q31 0 79 74.5t124 232.5q7 16 18 25.5t19 9.5q12 0 12 -21q0 -16 -8 -35q-164 -407 -315 -407 q-58 0 -99 42t-41 146q0 25 2 39q-52 -106 -107 -166.5t-104 -60.5q-80 0 -118.5 75.5t-38.5 202.5zM172 227q0 -100 35 -100q55 0 116 122.5t101 299.5l65 295q0 78 -55 78q-64 0 -127 -130t-99 -291.5t-36 -273.5zM244 1219q0 43 32.5 79.5t83.5 36.5q36 0 54 -20t18 -51 q0 -43 -31 -80t-79 -37q-33 0 -55.5 18.5t-22.5 53.5zM524 1219q0 46 33.5 87.5t83.5 41.5q38 0 58 -23.5t20 -58.5q0 -47 -32.5 -85t-84.5 -38q-39 0 -58.5 21t-19.5 55z" />
<glyph unicode="&#xe5;" d="M-12 266q0 117 32.5 252t86 251.5t133 193.5t163.5 77q57 0 96 -49t42 -102h12q42 0 77.5 -33t35.5 -86q0 -21 -2 -31q-21 -98 -55.5 -234t-53 -219t-18.5 -126q0 -51 28 -51q31 0 79 74.5t124 232.5q7 16 18 25.5t19 9.5q12 0 12 -21q0 -16 -8 -35q-164 -407 -315 -407 q-58 0 -99 42t-41 146q0 25 2 39q-52 -106 -107 -166.5t-104 -60.5q-80 0 -118.5 75.5t-38.5 202.5zM172 227q0 -100 35 -100q55 0 116 122.5t101 299.5l65 295q0 78 -55 78q-64 0 -127 -130t-99 -291.5t-36 -273.5zM340 1266q0 83 60.5 137.5t156.5 54.5q77 0 119.5 -55.5 t42.5 -120.5q0 -76 -52 -134t-139 -58q-91 0 -139.5 50.5t-48.5 125.5zM459 1221q0 -33 9.5 -59.5t27.5 -26.5q41 0 75.5 64.5t34.5 131.5q0 70 -41 84q-48 1 -77 -60t-29 -134z" />
<glyph unicode="&#xe6;" horiz-adv-x="1075" d="M-12 266q0 117 32.5 252t86 251.5t133 193.5t163.5 77q48 0 82 -27.5t48.5 -64t17.5 -78.5q112 170 237 170q74 0 117 -34q62 -7 93.5 -58.5t31.5 -130.5q0 -75 -27 -157.5t-73 -153t-116 -116.5t-148 -46q-38 0 -78 12q0 -34 1.5 -61t9.5 -63.5t21.5 -61t40 -42 t62.5 -17.5q40 0 77.5 11.5t69 35t56.5 46.5t50 57.5t39.5 56.5t34 55.5t25.5 42.5q17 28 33 28q14 0 14 -20q0 -14 -6 -29q-164 -409 -471 -409q-110 0 -171.5 76.5t-74.5 205.5q-41 -137 -101 -208.5t-153 -71.5q-80 0 -118.5 75.5t-38.5 202.5zM170 246q0 -117 41 -117 q63 0 113 110t98 312q32 137 86 248q-2 7 -8 33.5t-11.5 43t-19.5 31.5t-35 15q-49 0 -99 -74.5t-85 -181.5t-57.5 -222t-22.5 -198zM592 412q62 -11 137 75.5t124.5 205t49.5 200.5q0 68 -35 68q-56 0 -117 -86t-104 -213t-55 -250z" />
<glyph unicode="&#xe7;" horiz-adv-x="708" d="M-8 356q0 114 31.5 235.5t83.5 221t126.5 163.5t153.5 64q62 0 111 -39q65 -11 96 -76.5t31 -156.5q0 -121 -37 -197.5t-115 -76.5q-36 0 -64 18t-28 45q0 26 20 61t44.5 66.5t44.5 84t20 110.5q0 31 -16.5 55t-32.5 24q-55 0 -119 -106.5t-106.5 -258.5t-42.5 -276 q0 -221 149 -221q57 0 116.5 33t107.5 84t83.5 102.5t59.5 100.5q13 30 32 30q15 0 15 -20q0 -13 -6 -31q-23 -56 -54 -111t-76 -111t-95.5 -98t-115.5 -68.5t-133 -26.5q-99 0 -164 51.5t-92.5 133.5t-27.5 191zM63 -223q0 55 80 86q26 81 39 203l84 -9q-7 -83 -37 -174h31 q104 0 159.5 -49t55.5 -119q0 -76 -62.5 -135t-164.5 -59q-60 0 -60 20q0 8 8.5 14.5t22.5 6.5q46 0 77.5 43t31.5 96q0 49 -30.5 83t-90.5 34h-6q-49 -84 -97 -84q-17 0 -29 12t-12 31z" />
<glyph unicode="&#xe8;" horiz-adv-x="673" d="M-4 340q0 114 31.5 238t83 226.5t125.5 169t151 66.5q75 0 117 -34q62 -7 93.5 -58.5t31.5 -130.5q0 -75 -27 -157.5t-73.5 -153t-116.5 -116.5t-148 -46q-38 0 -78 12q0 -245 136 -245q40 0 77.5 11.5t69 35t56.5 46.5t50 57.5t39.5 56.5t34 55.5t25.5 42.5q17 28 33 28 q14 0 14 -20q0 -14 -6 -29q-164 -409 -471 -409q-125 0 -186.5 98.5t-61.5 255.5zM190 412q6 -2 17 -2q57 0 128 87t119 202t48 194q0 68 -35 68q-56 0 -117 -86t-104.5 -213t-55.5 -250zM305 1341q0 33 25.5 59.5t54.5 26.5q23 0 37 -16t21 -38.5t23.5 -64t37.5 -77.5 q29 -47 59.5 -86t41.5 -56t11 -36q0 -15 -16 -15q-34 0 -105 52t-130.5 126t-59.5 125z" />
<glyph unicode="&#xe9;" horiz-adv-x="673" d="M-4 340q0 114 31.5 238t83 226.5t125.5 169t151 66.5q75 0 117 -34q62 -7 93.5 -58.5t31.5 -130.5q0 -75 -27 -157.5t-73.5 -153t-116.5 -116.5t-148 -46q-38 0 -78 12q0 -245 136 -245q40 0 77.5 11.5t69 35t56.5 46.5t50 57.5t39.5 56.5t34 55.5t25.5 42.5q17 28 33 28 q14 0 14 -20q0 -14 -6 -29q-164 -409 -471 -409q-125 0 -186.5 98.5t-61.5 255.5zM190 412q6 -2 17 -2q57 0 128 87t119 202t48 194q0 68 -35 68q-56 0 -117 -86t-104.5 -213t-55.5 -250zM317 1114q0 14 14 28.5t51 52t75 87.5q35 45 58.5 93.5t36 65.5t36.5 17 q29 0 53.5 -28t24.5 -60q0 -30 -35.5 -75.5t-87.5 -86.5q-58 -45 -118.5 -76.5t-88.5 -31.5q-19 0 -19 14z" />
<glyph unicode="&#xea;" horiz-adv-x="673" d="M-4 340q0 114 31.5 238t83 226.5t125.5 169t151 66.5q75 0 117 -34q62 -7 93.5 -58.5t31.5 -130.5q0 -75 -27 -157.5t-73.5 -153t-116.5 -116.5t-148 -46q-38 0 -78 12q0 -245 136 -245q40 0 77.5 11.5t69 35t56.5 46.5t50 57.5t39.5 56.5t34 55.5t25.5 42.5q17 28 33 28 q14 0 14 -20q0 -14 -6 -29q-164 -409 -471 -409q-125 0 -186.5 98.5t-61.5 255.5zM190 412q6 -2 17 -2q57 0 128 87t119 202t48 194q0 68 -35 68q-56 0 -117 -86t-104.5 -213t-55.5 -250zM236 1157q0 5 4 10.5t19 22.5t36.5 43t64.5 85t95 136q12 19 41.5 32t58.5 13 q39 0 47 -24q31 -92 62 -158t50 -90.5t30.5 -40.5t11.5 -25q0 -21 -35 -40t-70 -19q-26 0 -53.5 27t-50 70.5t-38.5 81.5t-28 75q-80 -131 -123 -177q-46 -51 -77 -51q-18 0 -31.5 8.5t-13.5 20.5z" />
<glyph unicode="&#xeb;" horiz-adv-x="673" d="M-4 340q0 114 31.5 238t83 226.5t125.5 169t151 66.5q75 0 117 -34q62 -7 93.5 -58.5t31.5 -130.5q0 -75 -27 -157.5t-73.5 -153t-116.5 -116.5t-148 -46q-38 0 -78 12q0 -245 136 -245q40 0 77.5 11.5t69 35t56.5 46.5t50 57.5t39.5 56.5t34 55.5t25.5 42.5q17 28 33 28 q14 0 14 -20q0 -14 -6 -29q-164 -409 -471 -409q-125 0 -186.5 98.5t-61.5 255.5zM190 412q6 -2 17 -2q57 0 128 87t119 202t48 194q0 68 -35 68q-56 0 -117 -86t-104.5 -213t-55.5 -250zM240 1219q0 43 32.5 79.5t83.5 36.5q36 0 54 -20t18 -51q0 -43 -31.5 -80t-79.5 -37 q-33 0 -55 18.5t-22 53.5zM520 1219q0 46 33.5 87.5t83.5 41.5q38 0 58 -23.5t20 -58.5q0 -47 -32.5 -85t-84.5 -38q-39 0 -58.5 21t-19.5 55z" />
<glyph unicode="&#xec;" horiz-adv-x="397" d="M-29 199q0 90 48.5 330t111.5 472q7 26 29.5 40t52.5 14q42 0 74 -28t32 -77q0 -20 -2 -30q-21 -101 -65.5 -265.5t-73 -284t-28.5 -180.5q0 -67 36 -67q16 0 34.5 13.5t37 37.5t36 49.5t35.5 59t29 55.5t24 48.5t15 29.5q18 35 35 35q14 0 14 -21q0 -16 -8 -35 q-1 -2 -11.5 -28.5t-16.5 -42t-21 -48.5t-26.5 -55.5t-30 -55.5t-35.5 -55t-39 -47t-43 -40t-46 -25t-50 -10q-66 0 -107 51t-41 160zM47 1382q0 33 25.5 59.5t54.5 26.5q23 0 37 -16t21 -38.5t23.5 -64t37.5 -77.5q29 -47 59.5 -86t41.5 -56t11 -36q0 -15 -16 -15 q-34 0 -105 52t-130.5 126t-59.5 125z" />
<glyph unicode="&#xed;" horiz-adv-x="397" d="M-29 199q0 90 48.5 330t111.5 472q7 26 29.5 40t52.5 14q42 0 74 -28t32 -77q0 -20 -2 -30q-21 -101 -65.5 -265.5t-73 -284t-28.5 -180.5q0 -67 36 -67q16 0 34.5 13.5t37 37.5t36 49.5t35.5 59t29 55.5t24 48.5t15 29.5q18 35 35 35q14 0 14 -21q0 -16 -8 -35 q-1 -2 -11.5 -28.5t-16.5 -42t-21 -48.5t-26.5 -55.5t-30 -55.5t-35.5 -55t-39 -47t-43 -40t-46 -25t-50 -10q-66 0 -107 51t-41 160zM141 1114q0 14 14 28.5t51 52t75 87.5q35 45 58.5 93.5t36 65.5t36.5 17q29 0 53 -27.5t24 -60.5q0 -30 -35 -75.5t-87 -86.5 q-58 -45 -118.5 -76.5t-88.5 -31.5q-19 0 -19 14z" />
<glyph unicode="&#xee;" horiz-adv-x="397" d="M-29 199q0 90 48.5 330t111.5 472q7 26 29.5 40t52.5 14q42 0 74 -28t32 -77q0 -20 -2 -30q-21 -101 -65.5 -265.5t-73 -284t-28.5 -180.5q0 -67 36 -67q16 0 34.5 13.5t37 37.5t36 49.5t35.5 59t29 55.5t24 48.5t15 29.5q18 35 35 35q14 0 14 -21q0 -16 -8 -35 q-1 -2 -11.5 -28.5t-16.5 -42t-21 -48.5t-26.5 -55.5t-30 -55.5t-35.5 -55t-39 -47t-43 -40t-46 -25t-50 -10q-66 0 -107 51t-41 160zM25 1157q0 5 4 10.5t19 22.5t36.5 43t64.5 85t95 136q12 19 41.5 32t58.5 13q39 0 47 -24q31 -92 62 -158t50 -90.5t30.5 -40.5t11.5 -25 q0 -21 -35 -40t-70 -19q-26 0 -53.5 27t-50 70.5t-38.5 81.5t-28 75q-80 -131 -123 -177q-46 -51 -77 -51q-18 0 -31.5 8.5t-13.5 20.5z" />
<glyph unicode="&#xef;" horiz-adv-x="397" d="M-29 199q0 90 48.5 330t111.5 472q7 26 29.5 40t52.5 14q42 0 74 -28t32 -77q0 -20 -2 -30q-21 -101 -65.5 -265.5t-73 -284t-28.5 -180.5q0 -67 36 -67q16 0 34.5 13.5t37 37.5t36 49.5t35.5 59t29 55.5t24 48.5t15 29.5q18 35 35 35q14 0 14 -21q0 -16 -8 -35 q-1 -2 -11.5 -28.5t-16.5 -42t-21 -48.5t-26.5 -55.5t-30 -55.5t-35.5 -55t-39 -47t-43 -40t-46 -25t-50 -10q-66 0 -107 51t-41 160zM59 1219q0 43 33 79.5t84 36.5q36 0 54 -20t18 -51q0 -43 -31.5 -80t-79.5 -37q-33 0 -55.5 18.5t-22.5 53.5zM299 1219q0 46 33.5 87.5 t83.5 41.5q38 0 58 -23.5t20 -58.5q0 -47 -32.5 -85t-84.5 -38q-39 0 -58.5 21t-19.5 55z" />
<glyph unicode="&#xf0;" horiz-adv-x="790" d="M-8 266q0 117 32.5 252t86.5 251.5t133.5 193.5t163.5 77q36 0 62.5 -26t41.5 -66q8 57 8 119q0 75 -14 127q-112 -37 -207 -37q-43 0 -68.5 10t-25.5 23q0 17 42 27t114 22.5t116 28.5q-18 33 -59 73t-71 68.5t-30 42.5q0 31 42 62.5t83 31.5q35 0 100.5 -56.5 t108.5 -141.5q9 5 35 21t44 25t28 9q20 0 20 -17q0 -22 -28 -47q-30 -30 -72 -57q33 -94 33 -203q0 -120 -39 -264q-44 -162 -60.5 -224t-41 -160.5t-32.5 -149.5t-8 -88q0 -82 48 -82q23 0 49 23t57 75.5t46 82t47 95.5q9 20 14 29q7 16 17.5 25.5t18.5 9.5q13 0 13 -21 q0 -14 -9 -35q-6 -14 -20.5 -52.5t-25 -64.5t-29.5 -66t-35.5 -68t-42 -59.5t-51 -51t-59.5 -32.5t-70 -13q-40 0 -69 25.5t-41 62.5t-18 79t1 74q-53 -114 -111 -177.5t-110 -63.5q-80 0 -119 75.5t-39 202.5zM176 227q0 -100 35 -100q58 0 116.5 121t100.5 307 q11 50 34.5 153.5t33.5 149.5q-5 64 -58 64q-64 0 -127 -130t-99 -291.5t-36 -273.5z" />
<glyph unicode="&#xf1;" horiz-adv-x="792" d="M-55 74q0 3 1 9t1 9q27 224 66.5 406.5t113.5 435.5q7 26 28 39.5t48 13.5q39 0 69.5 -26t30.5 -68q0 -32 -23 -109t-24 -82q68 156 144 249t151 93q43 0 74.5 -18t47 -47t22.5 -59t7 -62q0 -78 -31 -190.5t-68 -205t-68 -183.5t-31 -132q0 -43 33 -43q21 0 48.5 21 t52 50t52 70t45.5 71t37 63t21 37q21 35 38 35q11 0 11 -15q0 -16 -8 -37q-8 -23 -23 -57t-39.5 -83.5t-57 -96.5t-68.5 -88t-79.5 -66.5t-85.5 -25.5q-67 0 -113 46.5t-46 133.5q0 78 49 222t98 279t49 191q0 49 -33 49q-38 0 -101.5 -92.5t-129.5 -256t-104 -339.5l-7 -14 q-16 -89 -24 -152q-6 -32 -29.5 -49.5t-54.5 -17.5q-35 0 -62.5 24.5t-27.5 67.5zM201 1139q0 86 52 138t140 52q42 0 128.5 -30.5t123.5 -30.5q61 0 98 61q16 25 29 25q11 0 18 -12t7 -29q0 -101 -50.5 -150t-132.5 -49q-50 0 -144 40t-130 40q-60 0 -92 -76 q-9 -20 -23 -20q-10 0 -17 11t-7 30z" />
<glyph unicode="&#xf2;" horiz-adv-x="765" d="M-4 328q0 215 92 411q15 35 41.5 59t60.5 19q31 103 95.5 165t156.5 62q117 0 174.5 -87t57.5 -228q0 -105 -29 -222t-80 -220q134 4 201 129q21 35 37 35q12 0 12 -15q0 -16 -8 -37q-23 -64 -100.5 -118t-174.5 -54q-63 -111 -142 -176t-163 -65q-60 0 -105 26.5t-72 74 t-40.5 108t-13.5 133.5zM170 274q0 -190 94 -190q13 0 19 2q54 8 112 162q-145 49 -202 219q-23 -108 -23 -193zM272 1382q0 33 25.5 59.5t54.5 26.5q23 0 37 -16t21 -38.5t23.5 -64t37.5 -77.5q29 -47 59.5 -86t42 -56t11.5 -36q0 -15 -17 -15q-34 0 -105 52t-130.5 126 t-59.5 125zM287 618q0 -98 32.5 -178.5t100.5 -120.5q34 111 56 238t22 225q0 185 -68 185q-53 0 -98 -108.5t-45 -240.5z" />
<glyph unicode="&#xf3;" horiz-adv-x="765" d="M-4 328q0 215 92 411q15 35 41.5 59t60.5 19q31 103 95.5 165t156.5 62q117 0 174.5 -87t57.5 -228q0 -105 -29 -222t-80 -220q134 4 201 129q21 35 37 35q12 0 12 -15q0 -16 -8 -37q-23 -64 -100.5 -118t-174.5 -54q-63 -111 -142 -176t-163 -65q-60 0 -105 26.5t-72 74 t-40.5 108t-13.5 133.5zM170 274q0 -190 94 -190q13 0 19 2q54 8 112 162q-145 49 -202 219q-23 -108 -23 -193zM287 618q0 -98 32.5 -178.5t100.5 -120.5q34 111 56 238t22 225q0 185 -68 185q-53 0 -98 -108.5t-45 -240.5zM367 1114q0 14 13.5 28.5t50.5 52t75 87.5 q35 45 58.5 93.5t36 65.5t36.5 17q29 0 53.5 -28t24.5 -60q0 -30 -35.5 -75.5t-87.5 -86.5q-58 -45 -118.5 -76.5t-88.5 -31.5q-18 0 -18 14z" />
<glyph unicode="&#xf4;" horiz-adv-x="765" d="M-4 328q0 215 92 411q15 35 41.5 59t60.5 19q31 103 95.5 165t156.5 62q117 0 174.5 -87t57.5 -228q0 -105 -29 -222t-80 -220q134 4 201 129q21 35 37 35q12 0 12 -15q0 -16 -8 -37q-23 -64 -100.5 -118t-174.5 -54q-63 -111 -142 -176t-163 -65q-60 0 -105 26.5t-72 74 t-40.5 108t-13.5 133.5zM170 274q0 -190 94 -190q13 0 19 2q54 8 112 162q-145 49 -202 219q-23 -108 -23 -193zM236 1137q0 5 4 10.5t19 22.5t36.5 43t64.5 85t95 136q12 19 41.5 32t58.5 13q39 0 47 -25q31 -92 62 -158t50 -90t30.5 -40t11.5 -25q0 -21 -35 -40.5 t-70 -19.5q-26 0 -53.5 27t-50 70.5t-38.5 81.5t-28 75q-83 -135 -128 -183q-43 -43 -72 -44q-18 0 -31.5 8.5t-13.5 20.5zM287 618q0 -98 32.5 -178.5t100.5 -120.5q34 111 56 238t22 225q0 185 -68 185q-53 0 -98 -108.5t-45 -240.5z" />
<glyph unicode="&#xf5;" horiz-adv-x="765" d="M-4 328q0 215 92 411q15 35 41.5 59t60.5 19q31 103 95.5 165t156.5 62q117 0 174.5 -87t57.5 -228q0 -105 -29 -222t-80 -220q134 4 201 129q21 35 37 35q12 0 12 -15q0 -16 -8 -37q-23 -64 -100.5 -118t-174.5 -54q-63 -111 -142 -176t-163 -65q-60 0 -105 26.5t-72 74 t-40.5 108t-13.5 133.5zM170 274q0 -190 94 -190q13 0 19 2q54 8 112 162q-145 49 -202 219q-23 -108 -23 -193zM209 1139q0 86 52 138t140 52q42 0 128.5 -30.5t123.5 -30.5q62 0 99 61q16 25 28 25q11 0 18 -12t7 -29q0 -101 -50 -150t-132 -49q-51 0 -145 40t-130 40 q-60 0 -92 -76q-9 -20 -23 -20q-10 0 -17 11t-7 30zM287 618q0 -98 32.5 -178.5t100.5 -120.5q34 111 56 238t22 225q0 185 -68 185q-53 0 -98 -108.5t-45 -240.5z" />
<glyph unicode="&#xf6;" horiz-adv-x="765" d="M-4 328q0 215 92 411q15 35 41.5 59t60.5 19q31 103 95.5 165t156.5 62q117 0 174.5 -87t57.5 -228q0 -105 -29 -222t-80 -220q134 4 201 129q21 35 37 35q12 0 12 -15q0 -16 -8 -37q-23 -64 -100.5 -118t-174.5 -54q-63 -111 -142 -176t-163 -65q-60 0 -105 26.5t-72 74 t-40.5 108t-13.5 133.5zM170 274q0 -190 94 -190q13 0 19 2q54 8 112 162q-145 49 -202 219q-23 -108 -23 -193zM248 1219q0 43 33 79.5t84 36.5q36 0 53.5 -19.5t17.5 -51.5q0 -43 -31 -80t-79 -37q-33 0 -55.5 18.5t-22.5 53.5zM287 618q0 -98 32.5 -178.5t100.5 -120.5 q34 111 56 238t22 225q0 185 -68 185q-53 0 -98 -108.5t-45 -240.5zM528 1219q0 46 33.5 87.5t83.5 41.5q38 0 58 -23.5t20 -58.5q0 -47 -32.5 -85t-84.5 -38q-39 0 -58.5 21t-19.5 55z" />
<glyph unicode="&#xf7;" horiz-adv-x="628" d="M33 635q0 23 23.5 36.5t77 19t91.5 6.5t115 1h31q15 0 45 0.5t47.5 0.5t43 -0.5t40.5 -3t30 -6t22 -10t7 -15.5q0 -18 -21 -33.5t-53 -18.5q-176 -18 -284 -18h-9q-40 0 -65 1t-63 4t-58 12.5t-20 23.5zM209 424q0 33 25.5 61.5t64.5 28.5q28 0 41.5 -16t13.5 -41 q0 -33 -24 -60.5t-60 -27.5q-61 0 -61 55zM274 836q0 35 26 63.5t65 28.5q29 0 44 -15.5t15 -40.5q0 -35 -25 -64.5t-63 -29.5q-29 0 -45.5 15t-16.5 43z" />
<glyph unicode="&#xf8;" horiz-adv-x="765" d="M-4 328q0 100 23 211.5t65.5 193t89.5 84.5q32 99 104.5 163t163.5 64q117 0 174.5 -87t57.5 -228q0 -105 -29 -222t-80 -220q141 4 201 129q14 28 31 28q13 0 14.5 -19t-4.5 -30q-27 -68 -96.5 -118t-178.5 -50q-63 -111 -142 -176t-163 -65q-60 0 -105 26.5t-72 74 t-40.5 108t-13.5 133.5zM170 274q0 -49 10 -94q104 234 305 723q-21 64 -55 64t-77 -60t-66 -139q14 -14 6 -27q-52 -79 -87.5 -214.5t-35.5 -252.5zM197 131q23 -47 67 -47q36 0 67 39.5t64 124.5q-41 26 -41 78q0 39 27 65.5t68 26.5q49 204 49 356q-133 -308 -301 -643z " />
<glyph unicode="&#xf9;" horiz-adv-x="770" d="M-23 207q0 88 21.5 212.5t56.5 284t49 244.5q7 44 39.5 68t71.5 24q36 0 62 -20t26 -55q0 -15 -2 -21q-21 -105 -62.5 -288t-60 -283t-18.5 -160q0 -86 45 -86q27 0 52.5 24.5t50 84.5t43 112.5t44.5 159t40.5 169.5t42.5 196q4 16 6 25t5 23t5 25q10 48 41 73t71 25 q36 0 62 -22.5t26 -60.5q0 -34 -86 -376.5t-86 -420.5q0 -55 27 -55q12 0 26 8.5t29 25t30 35.5t30.5 44.5t28 46.5t26.5 47.5t22 42t18 35.5l11 22q17 35 35 35q14 0 14 -21q0 -16 -8 -35q-11 -28 -19 -46.5t-29.5 -65t-41 -80t-49.5 -77t-58.5 -71.5t-65 -47.5 t-71.5 -19.5q-56 0 -96 39t-43 133q-89 -172 -207 -172q-154 0 -154 219zM233 1423q0 33 25.5 59.5t54.5 26.5q23 0 37 -16t21 -38.5t23.5 -64t37.5 -77.5q29 -47 59.5 -86t42 -56t11.5 -36q0 -15 -17 -15q-34 0 -105 52t-130.5 126t-59.5 125z" />
<glyph unicode="&#xfa;" horiz-adv-x="770" d="M-23 207q0 88 21.5 212.5t56.5 284t49 244.5q7 44 39.5 68t71.5 24q36 0 62 -20t26 -55q0 -15 -2 -21q-21 -105 -62.5 -288t-60 -283t-18.5 -160q0 -86 45 -86q27 0 52.5 24.5t50 84.5t43 112.5t44.5 159t40.5 169.5t42.5 196q4 16 6 25t5 23t5 25q10 48 41 73t71 25 q36 0 62 -22.5t26 -60.5q0 -34 -86 -376.5t-86 -420.5q0 -55 27 -55q12 0 26 8.5t29 25t30 35.5t30.5 44.5t28 46.5t26.5 47.5t22 42t18 35.5l11 22q17 35 35 35q14 0 14 -21q0 -16 -8 -35q-11 -28 -19 -46.5t-29.5 -65t-41 -80t-49.5 -77t-58.5 -71.5t-65 -47.5 t-71.5 -19.5q-56 0 -96 39t-43 133q-89 -172 -207 -172q-154 0 -154 219zM307 1114q0 14 13.5 28.5t50.5 52t75 87.5q28 37 49.5 75t29.5 57t21 31.5t32 12.5q29 0 53 -27.5t24 -60.5q0 -30 -35.5 -75.5t-87.5 -86.5q-58 -45 -118 -76.5t-88 -31.5q-19 0 -19 14z" />
<glyph unicode="&#xfb;" horiz-adv-x="770" d="M-23 207q0 88 21.5 212.5t56.5 284t49 244.5q7 44 39.5 68t71.5 24q36 0 62 -20t26 -55q0 -15 -2 -21q-21 -105 -62.5 -288t-60 -283t-18.5 -160q0 -86 45 -86q27 0 52.5 24.5t50 84.5t43 112.5t44.5 159t40.5 169.5t42.5 196q4 16 6 25t5 23t5 25q10 48 41 73t71 25 q36 0 62 -22.5t26 -60.5q0 -34 -86 -376.5t-86 -420.5q0 -55 27 -55q12 0 26 8.5t29 25t30 35.5t30.5 44.5t28 46.5t26.5 47.5t22 42t18 35.5l11 22q17 35 35 35q14 0 14 -21q0 -16 -8 -35q-11 -28 -19 -46.5t-29.5 -65t-41 -80t-49.5 -77t-58.5 -71.5t-65 -47.5 t-71.5 -19.5q-56 0 -96 39t-43 133q-89 -172 -207 -172q-154 0 -154 219zM205 1178q0 5 4 10.5t19 22.5t36.5 43t64.5 85t95 136q12 19 41.5 32t58.5 13q39 0 47 -25q31 -92 62 -158t50 -90t30.5 -40t11.5 -25q0 -21 -34.5 -40.5t-69.5 -19.5q-26 0 -53.5 27t-50 70.5 t-38.5 81.5t-28 75q-89 -145 -139 -193q-36 -34 -62 -34q-18 0 -31.5 8.5t-13.5 20.5z" />
<glyph unicode="&#xfc;" horiz-adv-x="770" d="M-23 207q0 88 21.5 212.5t56.5 284t49 244.5q7 44 39.5 68t71.5 24q36 0 62 -20t26 -55q0 -15 -2 -21q-21 -105 -62.5 -288t-60 -283t-18.5 -160q0 -86 45 -86q27 0 52.5 24.5t50 84.5t43 112.5t44.5 159t40.5 169.5t42.5 196q4 16 6 25t5 23t5 25q10 48 41 73t71 25 q36 0 62 -22.5t26 -60.5q0 -34 -86 -376.5t-86 -420.5q0 -55 27 -55q12 0 26 8.5t29 25t30 35.5t30.5 44.5t28 46.5t26.5 47.5t22 42t18 35.5l11 22q17 35 35 35q14 0 14 -21q0 -16 -8 -35q-11 -28 -19 -46.5t-29.5 -65t-41 -80t-49.5 -77t-58.5 -71.5t-65 -47.5 t-71.5 -19.5q-56 0 -96 39t-43 133q-89 -172 -207 -172q-154 0 -154 219zM209 1219q0 43 33 79.5t84 36.5q36 0 53.5 -19.5t17.5 -51.5q0 -43 -31 -80t-79 -37q-33 0 -55.5 18.5t-22.5 53.5zM489 1219q0 46 33.5 87.5t83.5 41.5q38 0 58 -23.5t20 -58.5q0 -47 -32.5 -85 t-84.5 -38q-39 0 -58.5 21t-19.5 55z" />
<glyph unicode="&#xfd;" horiz-adv-x="751" d="M-106 -475q0 41 10.5 78.5t26 66.5t43.5 58.5t53.5 51t65.5 47.5t70 43.5t77 45t77 45.5q9 70 31 201q-83 -174 -209 -174q-164 0 -164 215q0 91 26 223.5t66 297t56 253.5q8 57 74 57q42 0 78 -26.5t36 -63.5q0 -33 -7.5 -73t-26 -115t-23.5 -99q-84 -369 -84 -452 q0 -78 43 -78q18 0 34 8t31 27t27 39t25 56.5t23 67t24 83t23.5 91.5t26 104.5t28.5 111.5l57 262q6 25 27 38t49 13q40 0 74 -23t34 -57q0 -15 -4 -33t-16 -68t-29 -125t-48 -235t-67 -368q139 129 220 297q7 17 17.5 27t18.5 10q13 0 13 -21q0 -16 -8 -37 q-97 -242 -283 -407q-34 -177 -79.5 -307.5t-98.5 -207t-110 -113t-120 -36.5q-78 0 -143 59.5t-65 141.5zM-20 -520q0 -58 55 -90q6 -2 20 -2q40 0 73.5 18.5t56.5 45t42.5 70.5t30.5 79t21 87t13.5 78t8.5 68q-136 -87 -176 -117q-144 -115 -145 -237zM297 1114 q0 14 13.5 28.5t50.5 52t75 87.5q35 45 58.5 93.5t36 65.5t36.5 17q29 0 53.5 -28t24.5 -60q0 -30 -35.5 -75.5t-87.5 -86.5q-58 -45 -118.5 -76.5t-88.5 -31.5q-18 0 -18 14z" />
<glyph unicode="&#xfe;" horiz-adv-x="770" d="M-176 -481q0 76 164 844t264 1120q10 36 36 54.5t58 18.5q36 0 62 -21t26 -56q0 -23 -19 -105t-62 -254t-68 -278q97 200 213 200q89 0 132.5 -74t43.5 -194q0 -121 -38.5 -261t-108.5 -265t-152 -193q135 30 227 116.5t168 244.5q14 33 33 33q14 0 14 -23q0 -13 -6 -31 q-41 -102 -87 -174.5t-109.5 -129t-149 -84t-195.5 -27.5q-118 0 -176 43q-17 -77 -32.5 -152.5t-25 -126.5t-19 -100.5t-15 -80t-13 -58t-14 -42.5t-16 -26t-20.5 -15t-27 -4q-35 0 -61.5 27t-26.5 74zM121 135q38 0 74 -47q65 12 132.5 138.5t107.5 283.5t40 268 q0 117 -53 117q-49 0 -103.5 -94.5t-103.5 -253.5q-51 -215 -94 -412z" />
<glyph unicode="&#xff;" horiz-adv-x="751" d="M-106 -475q0 41 10.5 78.5t26 66.5t43.5 58.5t53.5 51t65.5 47.5t70 43.5t77 45t77 45.5q9 70 31 201q-83 -174 -209 -174q-164 0 -164 215q0 91 26 223.5t66 297t56 253.5q8 57 74 57q42 0 78 -26.5t36 -63.5q0 -33 -7.5 -73t-26 -115t-23.5 -99q-84 -369 -84 -452 q0 -78 43 -78q18 0 34 8t31 27t27 39t25 56.5t23 67t24 83t23.5 91.5t26 104.5t28.5 111.5l57 262q6 25 27 38t49 13q40 0 74 -23t34 -57q0 -15 -4 -33t-16 -68t-29 -125t-48 -235t-67 -368q139 129 220 297q7 17 17.5 27t18.5 10q13 0 13 -21q0 -16 -8 -37 q-97 -242 -283 -407q-34 -177 -79.5 -307.5t-98.5 -207t-110 -113t-120 -36.5q-78 0 -143 59.5t-65 141.5zM-20 -520q0 -58 55 -90q6 -2 20 -2q40 0 73.5 18.5t56.5 45t42.5 70.5t30.5 79t21 87t13.5 78t8.5 68q-136 -87 -176 -117q-144 -115 -145 -237zM221 1219 q0 43 33 79.5t84 36.5q36 0 54 -20t18 -51q0 -43 -31.5 -80t-79.5 -37q-33 0 -55.5 18.5t-22.5 53.5zM502 1219q0 46 33.5 87.5t82.5 41.5q38 0 58 -23.5t20 -58.5q0 -47 -32 -85t-84 -38q-39 0 -58.5 21t-19.5 55z" />
<glyph unicode="&#x152;" horiz-adv-x="1320" d="M-6 469q0 62 5 109.5t19.5 102.5t48 97.5t83.5 69.5q-25 60 -25 139q0 109 47.5 212t137.5 172t200 69q32 0 88 -13q71 0 135 -82t64 -212q0 -57 -6 -86q41 170 141.5 288.5t187.5 118.5q40 0 81 -19.5t46 -39.5q107 -53 107 -197q0 -67 -28 -196t-30 -171 q-3 -50 -34 -76t-74 -26q-39 0 -67.5 24t-28.5 66q0 50 22.5 116t50 119.5t50 116t22.5 107.5q0 44 -25 86q-70 0 -155 -99.5t-142 -235t-57 -236.5q0 -68 29.5 -102t93.5 -34q39 0 39 -32q0 -15 -13.5 -23.5t-34 -10t-36.5 -0.5t-29 3q-78 -22 -126 -106.5t-48 -178.5 q0 -83 40 -136.5t120 -53.5q246 0 423 290q2 2 3 4t2 3q21 35 39 35q10 0 10 -15q0 -16 -8 -37q-8 -24 -17 -47t-32 -68.5t-48.5 -83t-66.5 -82t-87 -74.5t-109 -50.5t-132 -20.5q-104 0 -182 63.5t-84 164.5q-96 -209 -330 -209q-87 0 -152.5 70.5t-96.5 177t-31 229.5z M168 338q0 -253 117 -303q90 1 180.5 190.5t144.5 442.5t54 454q0 218 -74 256q-77 2 -144 -66t-104 -170.5t-37 -205.5q0 -165 96 -231q21 -15 21 -31q0 -15 -23 -15q-74 0 -163 70l-9 -29q-59 -199 -59 -362zM702 565q25 44 105 72q-52 17 -62 96l-2 -12 q-2 -12 -4.5 -26.5t-7.5 -34.5t-12.5 -45t-16.5 -50z" />
<glyph unicode="&#x153;" horiz-adv-x="1136" d="M-6 328q0 215 92 411q26 61 74 76q29 101 102 165t178 64q74 0 120.5 -49.5t68.5 -132.5q106 178 221 178q74 0 117 -34q63 -7 96 -55.5t33 -121.5q0 -69 -29.5 -145.5t-83.5 -149t-141.5 -130.5t-192.5 -82q2 -95 35 -153t100 -58q46 0 90.5 18.5t74 40t65.5 64.5 t50 63.5t43 68.5t30 50q20 28 32 28q15 0 15 -20q0 -14 -6 -29q-30 -75 -58 -131t-67.5 -111t-82.5 -89.5t-101.5 -56t-127.5 -21.5q-94 0 -158 65.5t-73 165.5q-58 -121 -126.5 -176t-158.5 -55q-60 0 -105 26.5t-72 74t-40.5 108t-13.5 133.5zM168 274q0 -190 94 -190 q81 0 154 229q-150 29 -223 164q-25 -125 -25 -203zM262 623q0 -95 41 -164t129 -92q64 222 64 415q0 185 -68 185q-37 0 -76 -50.5t-64.5 -131.5t-25.5 -162zM651 385q71 30 133.5 90.5t102.5 130t63 140t23 126.5q0 89 -43 89q-58 0 -121 -92t-106.5 -226.5t-51.5 -257.5z " />
<glyph unicode="&#x178;" horiz-adv-x="1148" d="M6 848q0 96 40 203t103 194.5t148.5 145t169.5 57.5q33 0 65 -14q75 -11 119.5 -68.5t44.5 -161.5q0 -75 -71.5 -377.5t-71.5 -377.5q0 -134 59 -134q30 0 64 45t65.5 123t59 162.5t53.5 181.5q100 441 141 586q12 45 60 45q41 0 76.5 -33.5t35.5 -81.5q0 -16 -2 -24 q-136 -621 -286 -1206q179 117 270 303q14 33 35 33q14 0 14 -21q0 -9 -8 -33q-60 -148 -144.5 -238.5t-193.5 -150.5l-12 -47q-60 -227 -160.5 -339t-202.5 -112q-66 0 -121 43.5t-55 110.5q0 52 21.5 97t45 73t80.5 62.5t86.5 48t104.5 46.5q19 9 29 13l86 381 q-106 -227 -230 -227q-68 0 -112.5 63t-44.5 178q0 116 45.5 300.5t91 355t45.5 252.5q0 70 -45 86q-67 -3 -149.5 -108t-139.5 -250t-57 -255q0 -141 94 -166q33 -9 33 -28q0 -8 -10 -14.5t-29 -6.5q-61 0 -109.5 27t-75.5 70t-41 91t-14 97zM373 -362q0 -27 13.5 -46.5 t39.5 -19.5q55 0 113 79t106 263q-41 -18 -72.5 -34t-71 -42.5t-66 -54t-44.5 -65.5t-18 -80zM623 1628q0 43 32.5 80t83.5 37q36 0 54 -20t18 -52q0 -43 -31.5 -80t-79.5 -37q-33 0 -55 18.5t-22 53.5zM903 1628q0 46 33.5 87.5t83.5 41.5q38 0 58 -23.5t20 -58.5 q0 -47 -32.5 -85t-84.5 -38q-39 0 -58.5 21t-19.5 55z" />
<glyph unicode="&#x2c6;" horiz-adv-x="645" d="M100 1178q0 5 4 10.5t19 22.5t36.5 43t64.5 85t95 136q12 19 42 32t59 13q39 0 47 -25q31 -92 62 -158t50 -90t30.5 -40t11.5 -25q0 -21 -35 -40.5t-70 -19.5q-26 0 -53.5 27t-50 70.5t-38.5 81.5t-28 75q-89 -145 -139 -193q-36 -34 -62 -34q-18 0 -31.5 8.5t-13.5 20.5 z" />
<glyph unicode="&#x2dc;" horiz-adv-x="876" d="M283 1139q0 86 52 138t140 52q42 0 128.5 -30.5t123.5 -30.5q61 0 98 61q16 25 29 25q11 0 18 -12t7 -29q0 -101 -50.5 -150t-132.5 -49q-50 0 -144 40t-130 40q-60 0 -92 -76q-9 -20 -23 -20q-10 0 -17 11t-7 30z" />
<glyph unicode="&#x2000;" horiz-adv-x="959" />
<glyph unicode="&#x2001;" horiz-adv-x="1919" />
<glyph unicode="&#x2002;" horiz-adv-x="959" />
<glyph unicode="&#x2003;" horiz-adv-x="1919" />
<glyph unicode="&#x2004;" horiz-adv-x="639" />
<glyph unicode="&#x2005;" horiz-adv-x="479" />
<glyph unicode="&#x2006;" horiz-adv-x="319" />
<glyph unicode="&#x2007;" horiz-adv-x="319" />
<glyph unicode="&#x2008;" horiz-adv-x="239" />
<glyph unicode="&#x2009;" horiz-adv-x="383" />
<glyph unicode="&#x200a;" horiz-adv-x="106" />
<glyph unicode="&#x2010;" horiz-adv-x="610" d="M92 535q0 26 17 42.5t48.5 23.5t59 9t66.5 2q20 0 61 -1t64 -1q13 0 42 1t46 1q45 0 45 -32q0 -23 -20 -45t-52 -29q-84 -17 -150 -17q-1 0 -22.5 -0.5t-37.5 0t-42.5 1.5t-46 4t-38.5 8t-29.5 13.5t-10.5 19.5z" />
<glyph unicode="&#x2011;" horiz-adv-x="610" d="M92 535q0 26 17 42.5t48.5 23.5t59 9t66.5 2q20 0 61 -1t64 -1q13 0 42 1t46 1q45 0 45 -32q0 -23 -20 -45t-52 -29q-84 -17 -150 -17q-1 0 -22.5 -0.5t-37.5 0t-42.5 1.5t-46 4t-38.5 8t-29.5 13.5t-10.5 19.5z" />
<glyph unicode="&#x2012;" horiz-adv-x="610" d="M92 535q0 26 17 42.5t48.5 23.5t59 9t66.5 2q20 0 61 -1t64 -1q13 0 42 1t46 1q45 0 45 -32q0 -23 -20 -45t-52 -29q-84 -17 -150 -17q-1 0 -22.5 -0.5t-37.5 0t-42.5 1.5t-46 4t-38.5 8t-29.5 13.5t-10.5 19.5z" />
<glyph unicode="&#x2013;" horiz-adv-x="696" d="M92 535q0 18 7.5 31.5t23.5 21.5t33 13t44.5 7.5t48 3t52.5 0.5q29 0 87 -1t87 -1q18 0 52.5 1t50.5 1q47 0 47 -37q0 -23 -21 -44.5t-53 -24.5q-140 -14 -266 -14q-7 0 -29 -0.5t-36 -0.5t-36 1t-36 4t-28 7.5t-21 12.5t-7 19z" />
<glyph unicode="&#x2014;" horiz-adv-x="897" d="M104 535q0 22 12 37t39 24t55 14t77.5 6t87 0.5t103 -1.5t108.5 -1q22 0 56 0.5t53 0.5t44 -0.5t38.5 -3t27 -6.5t19 -11.5t5.5 -18.5q0 -23 -20 -43t-53 -26q-71 -14 -312 -14q-134 0 -294 4q-23 0 -34.5 11t-11.5 28z" />
<glyph unicode="&#x2018;" horiz-adv-x="364" d="M45 1196q0 53 27.5 115.5t66 111t80.5 81t70 32.5q12 0 12 -10q0 -7 -24.5 -44.5t-56.5 -87.5t-44 -81q24 12 53 12q47 0 71 -28t24 -72q0 -62 -43.5 -114t-114.5 -52q-63 0 -92 39.5t-29 97.5z" />
<glyph unicode="&#x2019;" horiz-adv-x="364" d="M78 1311q0 62 43.5 114t114.5 52q62 0 91 -40t29 -98q0 -71 -45 -153t-102.5 -134.5t-95.5 -52.5q-13 0 -13 11q0 7 24.5 44.5t56.5 87.5t44 81q-26 -13 -53 -13q-47 0 -70.5 28.5t-23.5 72.5z" />
<glyph unicode="&#x201a;" horiz-adv-x="364" d="M43 82q0 62 43.5 114t114.5 52q63 0 92 -39.5t29 -97.5q0 -53 -27.5 -115.5t-66 -111t-80.5 -81t-70 -32.5q-12 0 -12 10q0 7 24.5 44.5t56 87.5t43.5 81q-24 -12 -53 -12q-47 0 -70.5 28t-23.5 72z" />
<glyph unicode="&#x201c;" horiz-adv-x="638" d="M45 1196q0 53 27.5 115.5t66 111t80.5 81t70 32.5q12 0 12 -10q0 -7 -24.5 -44.5t-56.5 -87.5t-44 -81q24 12 53 12q47 0 71 -28t24 -72q0 -62 -43.5 -114t-114.5 -52q-63 0 -92 39.5t-29 97.5zM336 1147q0 55 28.5 116.5t67.5 106.5t77.5 75t59.5 30q13 0 13 -13 q0 -5 -24 -44t-56 -92.5t-45 -86.5q28 25 63 25q44 0 67 -29.5t23 -71.5q0 -63 -36.5 -115.5t-106.5 -52.5t-100.5 44.5t-30.5 107.5z" />
<glyph unicode="&#x201d;" horiz-adv-x="665" d="M74 1268q0 62 43.5 115t111.5 53q56 0 82.5 -34t26.5 -91q0 -80 -42.5 -164.5t-94.5 -134t-86 -49.5q-13 0 -13 12q0 8 24 44.5t55.5 84.5t43.5 78q-26 -13 -53 -13q-49 0 -73.5 27.5t-24.5 71.5zM365 1311q0 62 43 114t114 52q62 0 91.5 -40t29.5 -98 q0 -53 -27.5 -115.5t-66 -111t-80.5 -81t-70 -32.5q-12 0 -12 11q0 7 24.5 44.5t56.5 87.5t44 81q-26 -13 -53 -13q-47 0 -70.5 28.5t-23.5 72.5z" />
<glyph unicode="&#x201e;" horiz-adv-x="669" d="M43 82q0 62 43.5 114t114.5 52q63 0 92 -39.5t29 -97.5q0 -53 -27.5 -115.5t-66 -111t-80.5 -81t-70 -32.5q-12 0 -12 10q0 7 24.5 44.5t56 87.5t43.5 81q-24 -12 -53 -12q-47 0 -70.5 28t-23.5 72zM350 82q0 62 43.5 114t114.5 52q63 0 92 -39.5t29 -97.5 q0 -53 -27.5 -115.5t-66 -111t-80.5 -81t-70 -32.5q-12 0 -12 10q0 7 24.5 44.5t56.5 87.5t44 81q-24 -12 -54 -12q-47 0 -70.5 28t-23.5 72z" />
<glyph unicode="&#x2022;" horiz-adv-x="632" d="M115 682q0 90 67 166t170 76q75 0 113.5 -42.5t38.5 -107.5q0 -88 -65.5 -163.5t-164.5 -75.5q-69 0 -114 38t-45 109z" />
<glyph unicode="&#x2026;" horiz-adv-x="989" d="M39 82q0 62 46.5 114t117.5 52q52 0 78 -29t26 -74q0 -61 -44.5 -113t-112.5 -52q-21 0 -29 2q-41 6 -61.5 33.5t-20.5 66.5zM358 88q0 63 45.5 115.5t116.5 52.5q54 0 81.5 -31.5t27.5 -77.5q0 -62 -43 -114.5t-107 -52.5q-20 0 -28 2q-45 6 -69 35.5t-24 70.5zM688 92 q0 68 54.5 113t119.5 45q45 0 75 -26.5t30 -78.5q0 -61 -45 -113t-113 -52q-47 0 -84 31t-37 81z" />
<glyph unicode="&#x202f;" horiz-adv-x="383" />
<glyph unicode="&#x2039;" horiz-adv-x="675" d="M-16 543q1 38 25.5 77t56.5 56q28 14 118.5 59t152.5 77t143.5 77t135.5 80q9 6 19 6q15 0 24 -15t9 -36q0 -15 -11 -32.5t-33 -36t-46.5 -35.5t-60.5 -37.5t-65.5 -36t-72 -35.5t-69 -32.5t-66.5 -30.5t-56 -25q206 -102 355 -213q20 -14 20 -70q0 -39 -12.5 -70.5 t-32.5 -31.5q-9 0 -25.5 10.5t-51 32.5t-83.5 50t-140 70t-202 86q-32 11 -32 56z" />
<glyph unicode="&#x203a;" horiz-adv-x="776" d="M102 289q0 21 20 45.5t62 52t78.5 49t100 51t94.5 43.5t92 40q26 11 37 16q-172 89 -353 213q-22 14 -22 69q0 39 12.5 70t32.5 31q10 0 62 -30.5t117.5 -69.5t157 -83t167.5 -65q35 -8 35 -53q0 -37 -27 -79.5t-57 -56.5q-159 -77 -300 -154t-200.5 -111t-69.5 -34 q-17 0 -28 17t-11 39z" />
<glyph unicode="&#x205f;" horiz-adv-x="479" />
<glyph unicode="&#x20ac;" horiz-adv-x="1064" d="M14 432q0 62 185 62q10 86 12 94l-98 4q-47 3 -47 31q0 16 20.5 32t52.5 19l94 6q30 113 80 215.5t114.5 184t146 129.5t167.5 48q60 0 90 -30q74 -35 113 -116.5t39 -178.5q0 -30 -1.5 -50t-8 -45.5t-22 -39t-40.5 -13.5q-42 0 -82.5 30t-40.5 67q0 47 27 122t27 105 q0 38 -27 76q-74 0 -151 -72t-137 -182.5t-99 -239.5h72h25q53 0 82 -0.5t71 -4t62 -12t20 -22.5q0 -43 -81.5 -53t-277.5 -10q-12 -64 -16 -92l274 -7q23 0 35.5 -9t12.5 -21q0 -13 -9 -23.5t-26.5 -17t-41.5 -11t-55 -7t-66 -4t-76 -3.5q-11 0 -17.5 -0.5t-16.5 -1 t-18 -0.5q2 -126 53 -200t156 -74q162 0 289 188q16 23 34 23q8 0 14.5 -6.5t6.5 -16.5q0 -9 -10 -29q-31 -57 -67 -104.5t-85.5 -93t-113.5 -72t-134 -26.5q-83 0 -147 31.5t-102.5 88.5t-58 130t-21.5 161q-27 0 -44.5 0.5t-41 1.5t-38.5 4t-29 7t-21 11.5t-7 16.5z" />
<glyph unicode="&#x2122;" horiz-adv-x="765" d="M29 1341q0 53 53 73t143 20q31 0 87.5 -2t78.5 -2q17 0 26 -14.5t9 -37.5q0 -29 -12 -44t-27 -18t-41 -3q-42 0 -82 4q3 -9 0 -25q-10 -42 -41.5 -166t-50.5 -213q-6 -32 -43 -32q-20 0 -34.5 13.5t-14.5 37.5q0 107 65 344q9 28 43 45q-19 2 -41 2t-51 -1t-47 -1 q-20 0 -20 20zM285 932q0 10 6 22q73 128 107 210t67 216q1 23 18 36.5t39 13.5q20 0 33.5 -11t13.5 -30q0 -39 -7.5 -151.5t-2.5 -174.5q30 72 59.5 136.5t52.5 113t25 51.5l4 20q3 22 20.5 35t37.5 13t32.5 -10.5t12.5 -30.5q0 -35 -4 -109t-4 -111q0 -81 5.5 -136 t11 -76.5t5.5 -22.5q0 -25 -26 -38t-56 -13q-27 0 -30 16q-23 112 -23 246q0 63 2 94q-54 -144 -115 -297q0 -26 -15.5 -41.5t-37.5 -15.5q-24 0 -38.5 32.5t-18.5 80t-5.5 100.5t1.5 95v6.5v6v6.5q-90 -329 -125 -329q-16 0 -30.5 14t-14.5 33z" />
<glyph unicode="&#xe000;" horiz-adv-x="1044" d="M0 0v1044h1044v-1044h-1044z" />
<glyph unicode="&#xfb01;" horiz-adv-x="1030" d="M-106 -305q0 226 112 760q23 109 36.5 171t36 160t38.5 156t40 139t45 129.5t48.5 107.5t56 92.5t61.5 65t71 45t79 13.5q36 0 62 -17t32 -42q31 -16 55.5 -59t24.5 -118q0 -118 -24.5 -237.5t-66 -218.5t-95 -186.5t-110.5 -148t-115 -96.5t-107 -38q-5 -28 -24 -121 t-29 -150q92 12 161.5 31t137.5 53.5t121 92t92 137.5q15 30 33 30q14 0 14 -22q0 -14 -6 -29q-71 -173 -207 -264t-338 -129q55 -26 94 -127.5t39 -212.5q0 -114 -49 -189t-152 -75q-167 0 -167 297zM14 -469q0 -32 10 -51t25 -19q39 0 68.5 67.5t29.5 166.5q0 128 -55 252 q-50 -234 -64 -308.5t-14 -107.5zM186 440q89 79 188.5 270t162.5 381t63 287q0 42 -7 60t-34 18q-129 0 -373 -1016zM604 199q0 90 48.5 330t111.5 472q7 26 29.5 40t52.5 14q42 0 74 -28t32 -77q0 -44 -42.5 -201.5t-85 -324.5t-42.5 -234t37 -67q16 0 34.5 13.5t37 37.5 t36 49.5t35.5 59t29 55.5t24 48.5t15 29.5q18 35 35 35q14 0 14 -21q0 -16 -8 -35q-1 -2 -11.5 -28.5t-16.5 -42t-21 -48.5t-26.5 -55.5t-30 -55.5t-35.5 -55t-39 -47t-43 -40t-46 -25t-50 -10q-66 0 -107 51t-41 160zM786 1247q0 72 52.5 137.5t132.5 65.5q60 0 90.5 -30.5 t30.5 -76.5q0 -70 -61 -132t-152 -62q-45 0 -69 28t-24 70z" />
<glyph unicode="&#xfb02;" horiz-adv-x="1191" d="M-106 -305q0 226 112 760q23 109 36.5 171t36 160t38.5 156t40 139t45 129.5t48.5 107.5t56 92.5t61.5 65t71 45t79 13.5q36 0 62 -17t32 -42q31 -16 55.5 -59t24.5 -118q0 -118 -24.5 -237.5t-66 -218.5t-95 -186.5t-110.5 -148t-115 -96.5t-107 -38q-5 -28 -24 -121 t-29 -150q92 12 161.5 31t137.5 53.5t121 92t92 137.5q15 30 33 30q14 0 14 -22q0 -14 -6 -29q-71 -173 -207 -264t-338 -129q55 -26 94 -127.5t39 -212.5q0 -114 -49 -189t-152 -75q-167 0 -167 297zM14 -469q0 -32 10 -51t25 -19q39 0 68.5 67.5t29.5 166.5q0 128 -55 252 q-50 -234 -64 -308.5t-14 -107.5zM186 440q89 79 188.5 270t162.5 381t63 287q0 42 -7 60t-34 18q-129 0 -373 -1016zM631 291q0 167 47 405q156 842 383 842q53 0 82 -41q46 -27 68 -69.5t22 -137.5q0 -72 -13 -158.5t-36.5 -177t-60 -174t-79.5 -148t-99 -100.5t-116 -30 q-26 -169 -26 -260q0 -66 19.5 -97.5t62.5 -31.5q76 0 161 91t146 212q13 30 33 30q14 0 14 -22q0 -11 -6 -29q-20 -49 -50.5 -103.5t-72.5 -110t-88 -99.5t-100 -72t-105 -28q-186 0 -186 309zM838 551q116 95 198 356.5t82 460.5q0 50 -6 88q-35 -11 -89 -159.5 t-103.5 -351.5t-81.5 -394z" />
</font>
</defs>
</svg>
