<?xml version="1.0" encoding="UTF-8"?><svg xmlns="http://www.w3.org/2000/svg" width="100%" height="100%"><defs><font id="web" horiz-adv-x="1322"><!--



NOTICE: This font software is the valuable property 
of Webtype LLC, The Font Bureau, Ascender Corp and/or 
its suppliers and its use by you is covered under the 
terms of the Web Font license agreement between you 
and Webtype LLC. You may ONLY use this font software 
with the licensed web site. Except as specifically 
permitted by the license, you may not copy this font 
software. If you have any questions, please contact 
Webtype.com. 

For more information, please visit http://www.webtype.com/store/license/?id=23

Licensed to: http://www.ford.com/

Serial number: SH-177
--><font-face font-family="" units-per-em="2048" panose-1="2 0 5 3 0 0 0 2 0 4" ascent="1966" descent="-492" alphabetic="0"/><missing-glyph horiz-adv-x="1024" d="M0 1434H1024V0H0V1434ZM102 102H922V1331H102V102Z"/><glyph unicode=" " horiz-adv-x="471"/><glyph unicode="!" horiz-adv-x="758" d="M254 266H502V0H254V266ZM268 1518H487L465 434H291L268 1518Z"/><glyph unicode="&quot;" horiz-adv-x="1034" d="M195 1518H399L387 897H209L195 1518ZM635 1518H842L827 897H649L635 1518Z"/><glyph unicode="#" horiz-adv-x="1542" d="M371 428H129V610H403L457 889H129V1073H492L580 1518H770L682 1073H979L1065 1518H1255L1171 1073H1415V889H1137L1081 610H1415V428H1049L965 0H774L856 428H561L479 0H287L371 428ZM901 600L961 901H639L580 600H901Z"/><glyph unicode="$" horiz-adv-x="1372" d="M538 6Q465 13 393 30T252 77T117 152L211 299Q272 260 330 235T445 195T561 174Q585 171 610 170V711Q578 717 546 724Q486 738 432 757T332 805T253 875T201 974T182 1110Q182 1218 213 1295T307 1423T465 1496Q526 1512 602 1517V1655H784V1516Q879 1510 958 1489Q1076 1458 1157 1405L1063 1249Q1029 1271 986 1288T894 1317T792 1335Q785 1336 778 1336V861Q857 844 930 824Q1019 800 1087 755T1195 636T1235 444Q1235 337 1203 254T1104 115T933 29Q867 10 784 3V-193H602V2Q570 3 538 6ZM850 184Q919 201 962 234T1024 316T1044 430Q1044 500 1020 544T948 617T831 664Q806 670 778 677V172Q817 176 850 184ZM538 1326Q478 1312 442 1284T391 1215T375 1118Q375 1054 399 1014T471 946T587 902Q598 899 610 896V1338Q570 1334 538 1326Z"/><glyph unicode="%" horiz-adv-x="2347" d="M514 569Q401 569 320 603T187 702T109 855T84 1055Q84 1164 109 1254T186 1408T320 1507T514 1542Q625 1542 705 1507T836 1408T913 1254T938 1055Q938 945 913 856T837 702T705 604T514 569ZM514 729Q584 729 631 753T706 821T747 924T760 1055Q760 1125 748 1183T706 1285T630 1352T514 1376Q443 1376 396 1353T319 1286T277 1184T264 1055Q264 984 276 925T318 822T395 754T514 729ZM1833 -20Q1722 -20 1642 14T1509 113T1432 266T1407 467Q1407 575 1432 665T1509 819T1641 918T1833 954Q1944 954 2025 919T2158 819T2236 665T2261 467Q2261 356 2236 267T2159 113T2025 15T1833 -20ZM1833 139Q1903 139 1950 164T2026 232T2067 336T2079 467Q2079 536 2067 594T2027 695T1951 762T1833 786Q1764 786 1717 763T1641 697T1600 596T1587 467Q1587 396 1599 336T1640 233T1716 164T1833 139ZM1501 1520H1690L842 0H653L1501 1520Z"/><glyph unicode="&amp;" horiz-adv-x="1647" d="M616 -20Q474 -20 374 4T211 81T119 214T90 410Q90 505 121 578T205 708T324 808Q366 836 409 860Q383 923 365 986Q332 1099 332 1200Q332 1288 357 1352T427 1459T538 1521T684 1542Q847 1542 928 1461T1010 1200Q1010 1112 975 1046T882 929T753 837Q707 811 660 785Q706 708 762 634Q833 541 913 465Q984 398 1045 351Q1084 406 1117 477Q1156 560 1189 663T1255 891L1425 850Q1370 634 1306 471Q1257 347 1192 254Q1229 234 1261 222Q1308 204 1349 195T1428 183T1499 180H1520V0H1493Q1435 0 1380 4T1271 22T1159 58Q1111 78 1059 110Q1000 65 930 35Q801 -20 616 -20ZM762 350Q670 438 591 544Q532 623 485 706Q459 689 435 671Q391 639 358 601T305 516T285 414Q285 353 297 304T344 220T444 166T616 147Q713 147 789 167Q855 185 908 218Q840 273 762 350ZM654 965Q707 997 747 1032T810 1109T834 1200Q834 1242 827 1273T802 1325T755 1356T684 1366Q599 1366 561 1326T522 1200Q522 1118 553 1021Q568 975 588 927Q622 946 654 965Z"/><glyph unicode="'" horiz-adv-x="596" d="M195 1520H399L387 897H209L195 1520Z"/><glyph unicode="(" horiz-adv-x="1001" d="M662 -381Q588 -320 511 -226T370 -6T266 276T225 616Q225 790 265 945T369 1231T510 1460T662 1622L805 1518Q740 1456 674 1371T553 1174T465 923T430 616Q430 447 466 307T557 55T678 -140T805 -279L662 -381Z"/><glyph unicode=")" horiz-adv-x="1001" d="M199 -279Q262 -217 327 -133T447 62T535 309T569 616Q569 784 534 925T444 1180T324 1378T199 1518L338 1622Q411 1560 488 1465T628 1242T733 958T774 616Q774 500 755 393T704 188T629 5T538 -153T438 -282T338 -381L199 -279Z"/><glyph unicode="*" horiz-adv-x="1196" d="M537 907L213 707L133 850L471 1024L133 1200L213 1343L537 1139L518 1520H676L659 1139L983 1343L1063 1200L723 1024L1063 850L983 707L659 909L676 532H518L537 907Z"/><glyph unicode="+" horiz-adv-x="1440" d="M621 627H211V817H621V1225H817V817H1229V627H817V219H621V627Z"/><glyph unicode="," horiz-adv-x="518" d="M129 -162Q167 -141 191 -125T230 -90T250 -51T256 0H133V270H383V70Q383 -2 375 -52T346 -140T285 -207T182 -266L129 -162Z"/><glyph unicode="-" horiz-adv-x="911" d="M98 735H809V549H98V735Z"/><glyph unicode="." horiz-adv-x="518" d="M133 270H383V0H133V270Z"/><glyph unicode="/" horiz-adv-x="1055" d="M850 1518H1055L205 0H0L850 1518Z"/><glyph unicode="0" horiz-adv-x="1518" d="M760 -23Q580 -23 463 33T278 191T182 438T154 760Q154 938 181 1082T277 1329T463 1486T760 1542Q937 1542 1053 1487T1238 1329T1334 1083T1362 760Q1362 583 1335 439T1239 192T1054 33T760 -23ZM760 162Q886 162 964 206T1085 329T1144 519T1159 760Q1159 893 1144 1002T1086 1189T964 1309T760 1352Q633 1352 555 1310T433 1189T374 1002T358 760Q358 629 373 519T432 330T554 206T760 162Z"/><glyph unicode="1" horiz-adv-x="786" d="M354 1327H72V1518H549V0H354V1327Z"/><glyph unicode="2" horiz-adv-x="1237" d="M74 166L582 653Q668 735 728 797T825 913T880 1019T897 1137Q897 1194 881 1236T829 1305T735 1345T592 1358Q530 1358 472 1351T360 1332T261 1302T180 1266L92 1430Q142 1457 195 1477T311 1512T446 1534T608 1542Q729 1542 820 1520T973 1452T1065 1332T1096 1155Q1096 1069 1077 999T1015 860T907 719T748 557L350 176H1118V0H74V166Z"/><glyph unicode="3" horiz-adv-x="1274" d="M608 -25Q522 -25 447 -17T303 10T168 56T35 123L135 283Q196 250 252 226T365 186T479 162T600 154Q692 154 758 168T867 216T930 306T950 449Q950 521 935 574T877 663T760 715T567 733H342V911H563Q660 911 726 923T832 964T890 1038T907 1149Q907 1209 891 1250T837 1315T741 1351T596 1362Q544 1362 489 1355T379 1334T274 1300T180 1255L74 1409Q129 1443 193 1468T326 1509T467 1534T612 1542Q734 1542 826 1524T979 1463T1071 1353T1102 1184Q1102 1030 1054 947T915 836Q976 821 1020 791T1091 711T1132 594T1145 434Q1145 300 1109 212T1003 71T834 -3T608 -25Z"/><glyph unicode="4" horiz-adv-x="1384" d="M98 522L774 1518H991L319 532H860L901 1014H1044V532H1317V360H1044V0H858V360H98V522Z"/><glyph unicode="5" horiz-adv-x="1323" d="M651 -23Q559 -23 481 -11T337 21T213 68T104 125L207 285Q253 259 301 236T403 194T517 165T647 154Q727 154 797 167T919 216T1002 318T1032 487Q1032 589 1005 655T929 758T813 810T666 825Q610 825 565 821T479 809T402 787T328 756L160 807L199 1518H1120V1337H379L356 938Q409 964 500 984T713 1004Q822 1004 917 983T1082 906T1192 750T1233 494Q1233 387 1213 307T1157 170T1068 75T952 16T811 -14T651 -23Z"/><glyph unicode="6" horiz-adv-x="1434" d="M754 -23Q599 -23 485 14T295 130T182 332T145 627Q145 786 161 913T217 1140T323 1310T486 1428T717 1496T1026 1518H1110V1337H1020Q881 1337 780 1321T606 1274T487 1203T412 1110T369 1001T348 881Q407 955 523 988T813 1022Q958 1022 1055 987T1210 885T1292 723T1317 508Q1317 384 1289 286T1195 119T1021 14T754 -23ZM756 152Q865 152 935 176T1047 247T1104 357T1120 502Q1120 582 1103 647T1044 758T932 829T756 854Q665 854 591 835T463 776T380 678T350 539Q350 430 377 356T457 237T584 172T756 152Z"/><glyph unicode="7" horiz-adv-x="1122" d="M868 1337H39V1518H1085V1360L489 0H281L868 1337Z"/><glyph unicode="8" horiz-adv-x="1448" d="M723 -29Q562 -29 449 4T265 96T162 240T129 426Q129 502 143 568T188 687T265 777T379 834Q323 852 285 884T224 958T191 1053T180 1163Q180 1245 205 1314T293 1434T460 1513T723 1542Q882 1542 986 1514T1153 1435T1241 1315T1266 1163Q1266 1105 1256 1053T1222 957T1161 882T1069 834Q1137 814 1184 776T1262 686T1305 567T1319 426Q1319 324 1287 240T1183 97T998 4T723 -29ZM723 143Q930 143 1024 218T1118 440Q1118 586 1024 661T723 737Q619 737 545 718T423 662T353 569T330 440Q330 367 352 312T422 219T544 162T723 143ZM723 905Q820 905 887 920T995 966T1055 1040T1073 1141Q1073 1197 1055 1240T996 1312T887 1357T723 1372Q625 1372 559 1357T451 1313T391 1240T373 1141Q373 1084 391 1040T450 966T558 921T723 905Z"/><glyph unicode="9" horiz-adv-x="1434" d="M330 176H420Q560 176 662 193T837 240T956 312T1031 406T1073 515T1094 635Q1034 561 919 528T629 494Q484 494 387 530T232 634T150 796T125 1008Q125 1131 153 1230T247 1398T421 1505T688 1542Q843 1542 957 1505T1147 1390T1259 1188T1296 893Q1296 734 1280 606T1224 379T1119 209T955 91T724 22T416 0H330V176ZM684 657Q775 657 850 676T979 735T1062 834T1092 971Q1092 1081 1065 1155T985 1275T858 1340T688 1360Q578 1360 507 1336T395 1265T338 1155T322 1010Q322 929 339 864T397 753T509 682T684 657Z"/><glyph unicode=":" horiz-adv-x="559" d="M154 262H403V0H154V262ZM154 1139H403V877H154V1139Z"/><glyph unicode=";" horiz-adv-x="559" d="M150 -162Q188 -141 212 -125T251 -90T270 -51T276 0H154V262H403V70Q403 1 396 -48T366 -136T305 -205T203 -266L150 -162ZM154 1139H403V877H154V1139Z"/><glyph unicode="&lt;" horiz-adv-x="1440" d="M217 635V782L1141 1243V1057L422 709L1141 362V170L217 635Z"/><glyph unicode="=" horiz-adv-x="1440" d="M223 586H1219V399H223V586ZM223 1042H1219V858H223V1042Z"/><glyph unicode="&gt;" horiz-adv-x="1440" d="M299 362L1018 707L299 1055V1243L1223 780V633L299 170V362Z"/><glyph unicode="?" horiz-adv-x="1380" d="M551 414Q539 516 543 587T574 712T650 808T782 893Q851 930 896 957T969 1012T1007 1072T1018 1153Q1018 1200 1007 1237T962 1300T863 1340T694 1354Q570 1354 458 1326T252 1249L168 1423Q219 1451 282 1473T416 1510T562 1534T709 1542Q853 1542 951 1520T1109 1451T1195 1335T1221 1169Q1221 1090 1202 1033T1147 931T1058 850T938 778Q891 754 858 733T801 690T765 643T746 586T740 512T745 414H551ZM522 242H772V0H522V242Z"/><glyph unicode="@" horiz-adv-x="2210" d="M1124 -338Q885 -338 707 -282T411 -110T233 182T174 598Q174 841 236 1019T416 1313T708 1487T1104 1544Q1329 1544 1503 1487T1797 1314T1978 1019T2040 598Q2040 447 2024 345T1967 181T1857 93T1683 66Q1597 66 1546 81T1466 119T1427 172T1413 229Q1389 190 1355 161T1273 113T1162 84T1016 74Q892 74 808 113T672 222T598 391T575 608Q575 725 598 822T675 990T813 1100T1024 1139Q1105 1139 1164 1131T1267 1105T1341 1060T1391 995L1434 1128L1559 1118V352Q1559 318 1563 287T1584 231T1632 193T1718 178Q1784 178 1823 200T1884 271T1912 401T1919 598Q1919 810 1868 965T1714 1223T1460 1375T1104 1425Q907 1425 756 1375T503 1223T348 966T295 598Q295 183 501 -18T1122 -219Q1204 -219 1282 -211T1431 -186T1566 -149T1683 -102L1735 -207Q1614 -267 1461 -302T1124 -338ZM1053 233Q1135 233 1196 253T1297 317T1358 432T1378 608Q1378 710 1359 779T1300 891T1199 951T1053 969Q971 969 915 944T823 872T772 759T756 608Q756 523 771 454T822 335T914 260T1053 233Z"/><glyph unicode="A" horiz-adv-x="1518" d="M653 1528H864L1473 0H1260L1135 319H377L252 0H45L653 1528ZM1061 510L754 1280L446 510H1061Z"/><glyph unicode="B" horiz-adv-x="1468" d="M172 1518H842Q975 1518 1071 1496T1229 1427T1320 1310T1350 1143Q1350 1077 1340 1021T1306 920T1247 845T1159 797Q1223 781 1267 750T1338 673T1377 563T1389 420Q1389 301 1354 221T1248 92T1072 21T829 0H172V1518ZM852 186Q1021 186 1100 244T1180 438Q1180 568 1101 626T848 684H375V186H852ZM848 877Q935 877 991 894T1081 942T1127 1017T1141 1114Q1141 1167 1125 1207T1074 1274T983 1315T848 1329H375V877H848Z"/><glyph unicode="C" horiz-adv-x="1497" d="M842 -23Q644 -23 501 27T266 177T129 422T84 760Q84 960 135 1107T285 1351T526 1495T852 1542Q1026 1542 1162 1493T1401 1343L1251 1194Q1173 1266 1074 1304T850 1343Q293 1343 293 758Q293 614 325 505T426 321T600 210T852 172Q934 172 996 184T1106 218T1192 267T1264 328L1411 186Q1370 145 1320 108T1201 41T1045 -5T842 -23Z"/><glyph unicode="D" horiz-adv-x="1559" d="M172 1518H680Q824 1518 939 1503T1143 1453T1295 1361T1398 1219T1458 1021T1477 760Q1477 542 1431 397T1285 163T1030 37T657 0H172V1518ZM668 190Q840 190 955 220T1140 318T1239 494T1268 760Q1268 919 1243 1026T1151 1199T972 1293T682 1321H379V190H668Z"/><glyph unicode="E" horiz-adv-x="1335" d="M172 1518H1210V1319H379V883H1190V686H379V190H1219V0H172V1518Z"/><glyph unicode="F" horiz-adv-x="1257" d="M172 1518H1182V1319H379V862H1163V666H379V0H172V1518Z"/><glyph unicode="G" horiz-adv-x="1604" d="M840 -23Q631 -23 487 27T254 175T124 420T84 760Q84 965 134 1113T282 1356T522 1496T850 1542Q961 1542 1049 1526T1206 1483T1327 1421T1419 1346L1272 1194Q1237 1225 1197 1252T1107 1299T993 1331T850 1343Q566 1343 429 1199T291 758Q291 607 320 495T415 309T587 199T848 162Q989 162 1080 190T1223 275T1295 416T1315 614V657H825V842H1520V651Q1520 547 1509 456T1468 291T1389 158T1264 59T1084 -2T840 -23Z"/><glyph unicode="H" horiz-adv-x="1612" d="M172 1518H379V891H1233V1518H1440V0H1233V686H379V0H172V1518Z"/><glyph unicode="I" horiz-adv-x="582" d="M188 1518H393V0H188V1518Z"/><glyph unicode="J" horiz-adv-x="848" d="M229 -2H132Q114 -2 97 -2T57 0V190H207Q283 190 335 205T420 252T466 333T481 451V1518H686V442Q686 318 656 233T568 96T424 21T229 -2Z"/><glyph unicode="K" horiz-adv-x="1473" d="M172 1518H375V721L1090 1518H1327L791 920L1401 0H1165L655 768L375 455V0H172V1518Z"/><glyph unicode="L" horiz-adv-x="1219" d="M172 1518H379V190H1169V0H172V1518Z"/><glyph unicode="M" horiz-adv-x="1907" d="M172 1518H442L954 291L1468 1518H1735V0H1532V1171L1036 0H864L371 1169V0H172V1518Z"/><glyph unicode="N" horiz-adv-x="1620" d="M172 1518H397L1247 348V1518H1448V0H1257L373 1214V0H172V1518Z"/><glyph unicode="O" horiz-adv-x="1718" d="M858 -25Q676 -25 533 20T289 160T137 404T84 760Q84 966 136 1114T289 1357T532 1497T858 1542Q1040 1542 1183 1497T1427 1357T1579 1114T1632 760Q1632 553 1580 405T1427 161T1184 20T858 -25ZM858 168Q1006 168 1113 207T1289 321T1392 505T1425 756Q1425 897 1392 1006T1290 1191T1113 1304T858 1343Q710 1343 603 1305T427 1191T326 1007T293 756Q293 615 325 506T427 321T603 207T858 168Z"/><glyph unicode="P" horiz-adv-x="1475" d="M172 1518H854Q998 1518 1099 1489T1266 1400T1361 1254T1391 1049Q1391 931 1362 839T1267 682T1099 583T848 549H375V0H172V1518ZM854 741Q935 741 997 756T1100 807T1163 899T1184 1038Q1184 1122 1164 1177T1102 1265T997 1311T850 1325H375V741H854Z"/><glyph unicode="Q" horiz-adv-x="1718" d="M1108 -383Q979 -383 897 -362T769 -292T711 -164Q700 -97 704 -4Q608 6 526 31Q382 74 284 167T135 406T84 760Q84 966 134 1114T283 1357T526 1497T858 1542Q1046 1542 1190 1497T1433 1357T1581 1114T1632 760Q1632 553 1582 407T1433 167T1190 31Q1063 -6 903 -11Q901 -59 904 -92Q909 -135 930 -159T994 -193T1108 -203H1276V-381Q1267 -381 1247 -381T1203 -382T1153 -382T1108 -383ZM858 168Q1012 168 1119 207T1295 321T1394 505T1425 756Q1425 897 1394 1006T1295 1191T1120 1304T858 1343Q705 1343 598 1305T423 1191T324 1007T293 756Q293 615 324 506T422 321T597 207T858 168Z"/><glyph unicode="R" horiz-adv-x="1499" d="M172 1518H848Q992 1518 1093 1488T1258 1400T1351 1256T1380 1059Q1380 949 1351 861T1257 712T1090 617Q1054 605 1014 598L1358 0H1137L798 584H375V0H172V1518ZM846 774Q924 774 984 787T1086 831T1149 916T1171 1051Q1171 1132 1150 1185T1087 1269T983 1312T840 1325H375V774H846Z"/><glyph unicode="S" horiz-adv-x="1460" d="M727 -20Q540 -20 378 22T74 160L178 319Q311 233 446 198T721 162Q837 162 918 177T1050 225T1124 307T1147 426Q1147 496 1117 540T1032 611T897 655T719 688Q588 709 484 735T306 807T194 927T154 1120Q154 1234 189 1314T296 1445T474 1519T723 1542Q819 1542 900 1532T1050 1503T1174 1459T1276 1403L1163 1233Q1124 1259 1075 1281T968 1318T849 1343T723 1352Q625 1352 556 1339T442 1298T378 1227T358 1124Q358 1059 385 1019T465 952T595 908T770 874Q855 860 931 845T1072 809T1188 757T1276 684T1332 579T1352 436Q1352 322 1316 237T1204 94T1010 9T727 -20Z"/><glyph unicode="T" horiz-adv-x="1419" d="M606 1319H49V1518H1372V1319H815V0H606V1319Z"/><glyph unicode="U" horiz-adv-x="1614" d="M805 -27Q664 -27 562 -5T388 58T272 154T204 273T171 410T162 557V1518H369V582Q369 489 386 413T452 282T585 198T807 168Q943 168 1030 197T1166 280T1234 410T1253 582V1518H1454V557Q1454 482 1445 410T1411 273T1341 153T1224 58T1049 -4T805 -27Z"/><glyph unicode="V" horiz-adv-x="1513" d="M47 1518H264L760 250L1251 1518H1468L862 -10H651L47 1518Z"/><glyph unicode="W" horiz-adv-x="2218" d="M63 1518H279L647 336L1024 1518H1206L1583 336L1952 1518H2154L1673 -10H1491L1110 1180L731 -10H547L63 1518Z"/><glyph unicode="X" horiz-adv-x="1491" d="M125 1518H354L752 950L1139 1518H1368L861 795L1419 0H1186L739 640L303 0H74L630 795L125 1518Z"/><glyph unicode="Y" horiz-adv-x="1466" d="M20 1518H246L735 762L1229 1518H1444L836 579V0H631V574L20 1518Z"/><glyph unicode="Z" horiz-adv-x="1376" d="M86 164L1004 1319H121V1518H1264V1337L350 190H1286V0H86V164Z"/><glyph unicode="[" horiz-adv-x="975" d="M244 1589H776V1407H446V-162H782V-338H244V1589Z"/><glyph unicode="\" horiz-adv-x="1055" d="M0 1518H205L1055 0H850L0 1518Z"/><glyph unicode="]" horiz-adv-x="975" d="M197 -162H528V1407H195V1589H729V-338H197V-162Z"/><glyph unicode="^" horiz-adv-x="1208" d="M496 1795H711L1024 1459H831L600 1666L373 1459H182L496 1795Z"/><glyph unicode="_" horiz-adv-x="928" d="M-76 -109H1004V-270H-76V-109Z"/><glyph unicode="`" horiz-adv-x="1208" d="M229 1591H473L776 1255H592L229 1591Z"/><glyph unicode="a" horiz-adv-x="1284" d="M487 -20Q364 -20 286 6T161 79T98 189T80 324Q80 405 96 467T148 575T242 653T383 704T578 732T831 741H892Q891 791 884 830Q876 881 847 914T762 963T608 979Q554 979 505 971T414 948T335 917T272 883L168 1038Q196 1057 243 1079T350 1121T480 1152T627 1165Q773 1165 862 1139T1001 1058T1068 917T1085 709V303Q1085 262 1088 237T1102 199T1136 181T1198 176V2Q1187 -1 1167 -1T1116 -2Q1069 -2 1037 5T983 27T947 67T922 127Q896 91 860 64T771 18T648 -10T487 -20ZM554 560Q443 549 380 522T294 450T270 338Q270 293 282 258T322 200T399 164T520 152Q619 152 689 172T805 235T872 344T893 502V571H842Q666 571 554 560Z"/><glyph unicode="b" horiz-adv-x="1343" d="M754 -20Q662 -20 594 -12T474 13T386 57T324 121L287 -8L147 6V1589H346V1026Q394 1098 494 1131T764 1165Q908 1165 1002 1122T1151 999T1229 811T1251 571Q1251 440 1228 332T1148 145T995 24T754 -20ZM721 158Q818 158 881 186T981 267T1034 395T1049 563Q1049 657 1035 733T983 863T883 946T721 975Q620 975 550 953T434 883T369 756T348 563Q348 450 367 373T431 248T547 179T721 158Z"/><glyph unicode="c" horiz-adv-x="1165" d="M647 -20Q483 -20 376 23T206 143T118 330T92 571Q92 703 117 812T206 1000T379 1122T655 1165Q731 1165 794 1153T910 1118T1004 1064T1079 995L934 858Q914 879 889 899T830 936T753 963T655 973Q550 973 481 946T369 866T310 738T293 567Q293 472 309 396T367 267T478 186T655 158Q701 158 740 165T813 187T880 223T944 274L1077 147Q1033 106 989 75T894 23T783 -9T647 -20Z"/><glyph unicode="d" horiz-adv-x="1343" d="M582 -20Q439 -20 345 23T194 146T115 334T92 575Q92 705 115 813T196 999T348 1120T588 1163Q677 1163 744 1155T860 1129T941 1086T995 1026V1589H1196V8L1042 -6L1020 127Q993 89 956 62T866 16T743 -11T582 -20ZM625 162Q725 162 795 184T910 255T975 383T995 575Q995 687 976 764T913 888T799 956T625 977Q526 977 463 949T362 869T310 743T295 575Q295 481 309 405T361 274T462 191T625 162Z"/><glyph unicode="e" horiz-adv-x="1229" d="M651 -23Q534 -23 448 -2T299 57T196 150T133 271T101 413T92 571Q92 694 115 802T199 991T369 1118T647 1165Q764 1165 845 1140T981 1068T1065 959T1109 822T1125 664T1126 494H285Q288 443 296 397Q309 320 348 266T460 181T651 150Q720 150 773 158T868 182T946 217T1014 262L1120 123Q1075 88 1026 61T921 15T798 -13T651 -23ZM938 670Q935 715 931 756T917 832T887 897T836 946T756 978T641 989Q527 989 457 958T349 871T296 737Q291 705 287 670H938Z"/><glyph unicode="f" horiz-adv-x="819" d="M59 1139H274V1219Q274 1303 290 1371T348 1488T460 1563T637 1589H768V1415H662Q605 1415 569 1401T511 1360T481 1298T473 1219V1139H768V958H473V0H274V958H59V1139Z"/><glyph unicode="g" horiz-adv-x="1251" d="M604 416Q498 416 417 431Q410 422 404 412Q389 388 389 360Q389 335 399 320T435 297T504 286T616 283Q776 283 883 268T1054 218T1146 126T1174 -18Q1174 -110 1143 -175T1043 -284T865 -347T598 -367Q454 -367 352 -355T183 -312T86 -225T55 -84Q55 -36 65 9T99 91T166 155T272 195Q238 218 224 251T209 332Q209 391 234 444Q246 468 260 488Q248 496 237 505Q178 550 150 619T121 782Q121 877 148 949T235 1069T385 1141T604 1165Q639 1165 674 1162L1126 1227V1063H943Q962 1053 978 1041Q1015 1015 1039 979T1077 895T1090 782Q1090 593 973 505T604 416ZM604 -209Q716 -209 787 -197T900 -163T957 -107T973 -29Q973 16 955 44T893 87T779 109T604 115Q488 115 419 103T314 68T267 15T256 -51Q256 -96 275 -126T336 -175T444 -201T604 -209ZM604 580Q683 580 738 591T827 628T877 691T893 782Q893 892 822 938T604 985Q525 985 470 974T380 939T329 876T313 782Q313 729 329 691T379 628T469 592T604 580Z"/><glyph unicode="h" horiz-adv-x="1294" d="M147 1589H346V1040Q363 1065 393 1087T470 1127T584 1154T741 1165Q876 1165 957 1131T1081 1035T1137 886T1151 694V0H952V655Q952 724 946 782T912 881T830 946T678 969Q573 969 508 944T408 873T360 766T348 631V0H147V1589Z"/><glyph unicode="i" horiz-adv-x="516" d="M160 1139H356V0H160V1139ZM158 1518H358V1276H158V1518Z"/><glyph unicode="j" horiz-adv-x="516" d="M4 -180H20Q65 -179 92 -171T135 -144T155 -93T160 -12V1139H356V-10Q356 -106 343 -170T295 -273T198 -328T41 -344H4V-180ZM158 1518H358V1276H158V1518Z"/><glyph unicode="k" horiz-adv-x="1143" d="M147 1589H344V554L848 1139H1069L665 666L1110 0H889L533 521L344 306V0H147V1589Z"/><glyph unicode="l" horiz-adv-x="625" d="M416 -2Q344 -2 295 14T216 65T173 157T160 295V1589H356V317Q356 277 360 250T378 207T417 183T483 176H528V2Q514 0 484 -1T416 -2Z"/><glyph unicode="m" horiz-adv-x="2052" d="M147 1128L305 1139L322 1030Q339 1058 370 1082T449 1125T567 1154T729 1165Q820 1165 881 1155T982 1125T1044 1080T1077 1022Q1097 1053 1131 1079T1219 1124T1344 1154T1513 1165Q1603 1165 1668 1150T1777 1105T1848 1035T1889 941T1908 827T1913 694V0H1712V655Q1712 724 1707 782T1677 881T1599 946T1450 969Q1345 969 1282 944T1184 873T1139 766T1128 631V0H932V655Q932 724 927 782T896 881T817 946T668 969Q563 969 500 944T403 873T359 766T348 631V0H147V1128Z"/><glyph unicode="n" horiz-adv-x="1294" d="M147 1128L305 1139L322 1030Q342 1057 373 1081T454 1124T574 1154T741 1165Q876 1165 957 1131T1081 1035T1137 886T1151 694V0H952V655Q952 724 946 782T912 881T830 946T678 969Q573 969 508 944T408 873T360 766T348 631V0H147V1128Z"/><glyph unicode="o" horiz-adv-x="1309" d="M653 -23Q502 -23 396 15T222 128T123 314T92 571Q92 717 123 828T221 1014T395 1127T653 1165Q804 1165 911 1127T1086 1014T1185 828T1217 571Q1217 425 1186 314T1087 128T912 15T653 -23ZM653 158Q754 158 823 185T934 264T995 392T1014 567Q1014 665 996 741T935 869T823 948T653 975Q552 975 484 948T373 869T312 741T293 567Q293 469 311 393T372 264T483 185T653 158Z"/><glyph unicode="p" horiz-adv-x="1343" d="M147 1128L305 1139L322 1018Q345 1054 381 1081T470 1127T596 1155T764 1165Q908 1165 1002 1122T1151 1000T1229 812T1251 571Q1251 441 1228 333T1149 147T997 26T756 -18Q667 -18 600 -10T485 16T403 58T348 119V-338H147V1128ZM721 162Q818 162 881 190T981 270T1034 396T1049 565Q1049 659 1035 734T983 863T883 946T721 975Q620 975 550 954T434 884T369 757T348 565Q348 452 367 375T431 251T547 183T721 162Z"/><glyph unicode="q" horiz-adv-x="1343" d="M995 115Q967 78 931 52T846 10T732 -13T582 -20Q439 -20 345 23T194 146T115 333T92 573Q92 704 115 813T196 1000T348 1121T588 1165Q680 1165 749 1157T870 1132T957 1089T1020 1028L1057 1153L1196 1141V-338H995V115ZM625 162Q725 162 795 184T910 255T975 382T995 573Q995 686 976 763T913 887T799 956T625 977Q526 977 463 949T362 869T310 742T295 573Q295 480 309 404T361 274T462 191T625 162Z"/><glyph unicode="r" horiz-adv-x="760" d="M147 1128L305 1139L326 999Q343 1030 377 1057T460 1105T572 1138T711 1153V952Q608 951 539 926T427 854T366 743T348 600V0H147V1128Z"/><glyph unicode="s" horiz-adv-x="1098" d="M543 -20Q482 -20 420 -14T294 8T170 48T51 113L154 268Q253 205 357 180T555 154Q628 154 680 161T765 186T813 237T829 322Q829 362 815 388T768 432T684 462T555 487Q454 505 372 526T232 584T141 681T109 840Q109 918 133 978T210 1080T348 1143T555 1165Q688 1165 798 1139T989 1065L895 901Q830 936 745 958T559 981Q484 981 436 972T359 944T319 899T307 840Q307 800 321 774T365 729T444 699T563 674Q668 655 753 635T898 579T990 485T1022 330Q1022 232 995 166T909 58T760 -2T543 -20Z"/><glyph unicode="t" horiz-adv-x="856" d="M59 1139H266L301 1462L459 1493V1139H760V958H459V338Q459 300 463 270T483 219T533 187T623 176H760V0Q751 -1 727 -1T676 -2H588Q486 -2 422 17T322 75T273 173T260 311V958H59V1139Z"/><glyph unicode="u" horiz-adv-x="1280" d="M643 -20Q534 -20 454 -6T318 38T228 110T174 209T148 335T141 487V1139H340V483Q340 415 345 357T378 255T468 187T643 162Q719 162 770 173T855 205T907 255T933 321T942 400T944 489V1139H1139V494Q1139 410 1133 340T1108 212T1055 111T966 39T832 -5T643 -20Z"/><glyph unicode="v" horiz-adv-x="1151" d="M14 1139H227L578 227L928 1139H1135L682 -10H467L14 1139Z"/><glyph unicode="w" horiz-adv-x="1819" d="M27 1139H236L530 279L813 1139H1010L1292 281L1589 1139H1792L1391 -10H1192L909 838L627 -10H426L27 1139Z"/><glyph unicode="x" horiz-adv-x="1139" d="M70 1139H291L577 739L856 1139H1071L681 593L1106 0H883L561 450L250 0H33L458 595L70 1139Z"/><glyph unicode="y" horiz-adv-x="1114" d="M14 1139H227L562 250L893 1139H1102L618 -96Q594 -162 564 -209T492 -286T394 -330T262 -344H211Q196 -344 182 -344T158 -342V-180H246Q287 -180 316 -176T365 -159T398 -127T422 -76L456 13L14 1139Z"/><glyph unicode="z" horiz-adv-x="1049" d="M61 145L711 958H94V1139H971V989L319 170H993V0H61V145Z"/><glyph unicode="{" horiz-adv-x="1051" d="M674 -338Q576 -338 507 -321T395 -270T331 -185T311 -66Q311 -34 319 8T339 98T366 193T393 287T414 370T422 434Q422 467 408 487T363 519T282 535T160 539V711Q228 711 277 714T359 728T406 760T422 819Q422 845 414 883T394 965T367 1058T340 1153T319 1242T311 1317Q311 1385 331 1436T394 1521T507 1572T674 1589H858V1407H715Q656 1407 618 1399T557 1374T525 1329T516 1264Q516 1241 524 1206T543 1127T568 1037T593 943T613 856T621 784Q621 727 593 686T500 627Q566 605 593 565T621 467Q621 436 613 395T594 307T569 213T544 122T524 42T516 -16Q516 -55 525 -83T556 -128T617 -154T715 -162H858V-338H674Z"/><glyph unicode="|" horiz-adv-x="692" d="M244 1589H446V-338H244V1589Z"/><glyph unicode="}" horiz-adv-x="1051" d="M193 -162H338Q397 -162 435 -154T496 -129T528 -83T537 -16Q537 6 529 42T509 121T484 213T458 307T438 394T430 467Q430 524 459 565T551 627Q486 647 458 687T430 784Q430 815 438 856T458 943T483 1036T509 1127T529 1205T537 1264Q537 1302 528 1329T497 1373T436 1399T338 1407H193V1589H379Q478 1589 546 1572T658 1521T720 1436T739 1317Q739 1285 731 1243T711 1154T684 1059T658 966T637 883T629 819Q629 785 643 765T688 733T769 717T891 713V541Q823 541 774 538T692 524T645 491T629 434Q629 408 637 370T657 287T684 194T710 98T731 9T739 -66Q739 -134 720 -185T658 -270T547 -321T379 -338H193V-162Z"/><glyph unicode="~" horiz-adv-x="1208" d="M184 935Q214 972 247 1003T315 1056T386 1092T459 1105Q512 1105 549 1089T616 1054T676 1018T743 1002Q782 1002 823 1033T907 1115L1024 1021Q994 983 961 950T893 891T822 851T748 836Q700 836 664 852T595 887T531 923T463 939Q428 939 387 914T307 839L184 935Z"/><glyph unicode=" " horiz-adv-x="471"/><glyph unicode="¡" horiz-adv-x="758" d="M291 1083H467L487 0H268L291 1083ZM254 1518H504V1251H254V1518Z"/><glyph unicode="¢" horiz-adv-x="1159" d="M551 -10Q451 -1 377 28Q271 70 209 147T121 332T96 571Q96 702 121 810T209 997T380 1118Q452 1147 551 1156V1286H739V1157Q768 1154 794 1148Q857 1136 908 1114T999 1062T1073 995L932 862Q912 882 887 902T829 939T753 966Q740 969 727 972V159Q734 160 741 161Q780 169 814 183T879 219T942 270L1073 147Q1029 108 985 78T891 28T781 -3Q761 -7 739 -9V-193H551V-10ZM478 183Q516 167 563 160V970Q517 963 480 949Q410 921 368 868T307 739T289 567Q289 472 306 396T366 266T478 183Z"/><glyph unicode="£" horiz-adv-x="1284" d="M66 864H261Q258 878 254 892Q238 959 228 1022T217 1141Q217 1231 240 1305T318 1432T462 1514T682 1544Q744 1544 799 1539T905 1524T1003 1499T1098 1464L1020 1290Q945 1325 857 1340T678 1356Q600 1356 549 1339T468 1291T426 1215T414 1116Q414 1070 423 1014T447 895Q451 880 454 864H901V700H494Q502 668 509 636Q524 571 533 510T543 397Q543 308 526 237Q564 220 607 206Q663 187 724 175T850 162Q908 162 943 173T998 208T1024 269T1030 360V414H1204V354Q1204 253 1187 183T1128 69T1020 4T854 -16Q774 -16 698 -2T553 37Q490 59 437 88Q389 49 313 26Q223 0 80 0V172Q179 172 235 184T320 224T355 293T362 393Q362 441 352 499T324 623Q315 661 304 700H66V864Z"/><glyph unicode="¤" horiz-adv-x="1152" d="M1056 392L940 284L740 500Q668 452 572 452Q480 452 408 500L208 284L92 392L300 608Q272 648 262 686T252 780Q252 828 262 870T300 952L92 1168L208 1276L408 1060Q480 1108 572 1108Q668 1108 740 1060L944 1276L1060 1156L852 952Q880 912 890 872T900 780Q900 684 848 608L1056 392ZM748 780Q748 860 698 910T572 960Q496 960 448 910T400 780Q400 700 450 652T572 604Q652 604 700 652T748 780Z"/><glyph unicode="¥" horiz-adv-x="1311" d="M139 324H557V473H139V643H557V657L29 1518H240L655 829L1071 1518H1282L754 662V643H1171V473H754V324H1171V156H754V0H557V156H139V324Z"/><glyph unicode="¦" horiz-adv-x="692" d="M244 465H446V-338H244V465ZM244 1589H446V786H244V1589Z"/><glyph unicode="§" horiz-adv-x="1147" d="M455 1159Q455 1211 459 1259T478 1348T517 1424T582 1482T680 1519T819 1532Q836 1532 856 1532T895 1531T929 1530T952 1528V1356H842Q777 1356 740 1342T683 1301T659 1239T653 1161V1068Q822 1057 916 996Q1032 921 1032 758Q1032 598 916 525Q829 471 680 457V356Q680 279 669 211T619 93T509 13T315 -16Q298 -16 279 -16T241 -15T207 -14T184 -12V154H295Q359 154 396 168T452 209T476 270T481 348V456Q320 468 229 525Q115 598 115 758Q115 921 229 996Q312 1050 455 1065V1159ZM571 590Q723 590 795 628T868 754Q868 843 796 880T571 918Q422 918 352 881T281 754Q281 666 351 628T571 590Z"/><glyph unicode="¨" horiz-adv-x="1208" d="M293 1491H475V1262H293V1491ZM735 1491H915V1262H735V1491Z"/><glyph unicode="©" horiz-adv-x="1692" d="M858 250Q609 250 483 382T356 768Q356 901 392 998T494 1158T655 1253T864 1284Q974 1284 1066 1252T1227 1155L1133 1055Q1080 1101 1012 1127T862 1153Q689 1153 594 1056T498 768Q498 578 590 480T864 381Q916 381 958 389T1033 410T1093 442T1143 481L1233 389Q1205 361 1171 336T1091 292T989 262T858 250ZM842 -25Q651 -25 509 33T273 196T131 445T84 760Q84 930 131 1074T272 1322T509 1485T842 1544Q1033 1544 1176 1486T1414 1323T1556 1074T1604 760Q1604 589 1557 445T1414 197T1176 34T842 -25ZM842 63Q1017 63 1144 115T1354 259T1476 480T1516 760Q1516 912 1477 1039T1355 1259T1145 1404T842 1456Q667 1456 541 1404T333 1260T213 1040T174 760Q174 608 212 480T332 260T540 115T842 63Z"/><glyph unicode="ª" horiz-adv-x="1221" d="M453 578Q362 578 300 599T200 657T146 746T129 860Q129 958 165 1023T277 1127T467 1182T741 1198H783Q782 1238 777 1268Q770 1310 747 1336T680 1374T561 1386Q520 1386 481 1379T408 1362T345 1338T295 1311L207 1438Q230 1454 267 1472T353 1505T459 1530T578 1540Q696 1540 768 1520T880 1454T933 1339T946 1169V848Q946 813 948 793T960 761T989 747T1040 743V594Q1029 594 1016 593T977 592Q933 592 902 597T851 617T818 659T801 731Q781 692 753 663T684 616T586 588T453 578ZM528 1056Q439 1047 386 1026T311 967T289 872Q289 800 335 761T489 721Q637 721 710 789T784 1006V1065H752Q617 1065 528 1056ZM215 438H950V287H215V438Z"/><glyph unicode="«" horiz-adv-x="1436" d="M199 567L508 1139H684L387 567L684 0H508L199 567ZM698 567L1008 1139H1186L891 567L1186 0H1008L698 567Z"/><glyph unicode="¬" horiz-adv-x="1536" d="M1116 352V728H212V920H1296V352H1116Z"/><glyph unicode="­" horiz-adv-x="911" d="M98 735H809V549H98V735Z"/><glyph unicode="®" horiz-adv-x="1692" d="M842 -25Q651 -25 509 33T273 196T131 445T84 760Q84 930 131 1074T272 1322T509 1485T842 1544Q1033 1544 1176 1486T1414 1323T1556 1074T1604 760Q1604 589 1557 445T1414 197T1176 34T842 -25ZM842 63Q1017 63 1144 115T1354 259T1476 480T1516 760Q1516 912 1477 1039T1355 1259T1145 1404T842 1456Q667 1456 541 1404T333 1260T213 1040T174 760Q174 608 212 480T332 260T540 115T842 63ZM477 1249H915Q1014 1249 1079 1230T1184 1174T1239 1081T1255 954Q1255 883 1239 827T1183 733T1076 673Q1051 665 1021 660L1253 262H1112L889 653H608V262H477V1249ZM913 770Q967 770 1006 778T1072 808T1111 863T1124 950Q1124 1001 1112 1035T1074 1090T1008 1119T911 1128H608V770H913Z"/><glyph unicode="¯" horiz-adv-x="1208" d="M219 1413H989V1243H219V1413Z"/><glyph unicode="°" horiz-adv-x="1165" d="M582 563Q460 563 374 600T232 702T151 858T125 1053Q125 1158 151 1247T232 1402T373 1505T582 1542Q703 1542 790 1505T932 1403T1014 1248T1040 1053Q1040 948 1014 858T933 703T790 600T582 563ZM582 721Q663 721 719 745T810 812T861 916T877 1049Q877 1120 861 1180T810 1283T719 1351T582 1376Q501 1376 446 1352T355 1284T305 1180T289 1049Q289 977 304 917T355 813T445 745T582 721Z"/><glyph unicode="±" horiz-adv-x="1440" d="M621 627H211V817H621V1225H817V817H1229V627H817V219H621V627ZM211 215H1229V29H211V215Z"/><glyph unicode="²" horiz-adv-x="942" d="M129 688L430 973Q488 1028 525 1066T584 1135T613 1197T621 1266Q621 1298 612 1322T580 1363T523 1388T436 1397Q362 1397 298 1381T190 1341L121 1462Q152 1478 186 1491T261 1513T348 1527T455 1532Q615 1532 695 1474T776 1282Q776 1225 764 1181T724 1094T653 1007T549 903L340 702H786V571H129V688Z"/><glyph unicode="³" horiz-adv-x="979" d="M473 559Q416 559 368 564T274 581T187 611T102 653L182 770Q251 730 317 712T461 694Q517 694 557 701T622 728T660 779T672 862Q672 904 663 934T627 984T556 1013T440 1022H299V1149H436Q494 1149 534 1154T598 1174T632 1213T643 1276Q643 1310 633 1333T600 1370T542 1389T457 1395Q384 1395 317 1378T199 1331L123 1448Q191 1490 284 1512T477 1534Q564 1534 626 1521T727 1479T784 1408T803 1307Q803 1220 773 1170T674 1096Q755 1074 792 1013T829 846Q829 767 808 712T742 623T631 574T473 559Z"/><glyph unicode="´" horiz-adv-x="1208" d="M735 1591H979L616 1255H432L735 1591Z"/><glyph unicode="µ" horiz-adv-x="1288" d="M147 1139H348V483Q348 438 349 397T359 320T386 255T437 206T523 174T651 162Q727 162 778 173T863 205T914 255T940 321T949 400T950 489V1139H1147V494Q1147 410 1141 340T1117 212T1065 111T979 39T848 -5T664 -20Q596 -20 544 -14T454 5T390 35T348 76V-338H147V1139Z"/><glyph unicode="¶" horiz-adv-x="1300" d="M928 565H698V0H510V572Q440 580 386 596Q281 628 219 689T130 841T104 1049Q104 1166 130 1253T219 1400T384 1488T643 1518H1116V0H928V565ZM928 733V1333H639Q547 1333 484 1319T381 1270T323 1180T305 1038Q305 954 323 896T381 802T483 750T635 733H928Z"/><glyph unicode="·" horiz-adv-x="518" d="M133 836H383V561H133V836Z"/><glyph unicode="¸" horiz-adv-x="1208" d="M616 -475Q538 -475 478 -459T369 -414L424 -309Q466 -331 512 -343T608 -356Q656 -356 686 -349T733 -328T756 -296T762 -256Q762 -201 719 -183T573 -170L524 -135L553 14H674L655 -90Q702 -88 746 -92T824 -114T878 -168T899 -268Q899 -318 883 -356T833 -421T745 -461T616 -475Z"/><glyph unicode="¹" horiz-adv-x="696" d="M307 1378H125V1518H465V571H307V1378Z"/><glyph unicode="º" horiz-adv-x="1223" d="M612 582Q377 582 268 705T158 1063Q158 1298 267 1420T612 1542Q843 1542 954 1420T1065 1063Q1065 828 954 705T612 582ZM612 735Q758 735 827 818T897 1059Q897 1217 828 1299T612 1382Q463 1382 395 1300T326 1059Q326 902 394 819T612 735ZM215 438H1008V283H215V438Z"/><glyph unicode="»" horiz-adv-x="1436" d="M547 569L252 1139H428L737 569L428 0H252L547 569ZM1047 569L752 1139H930L1239 569L930 0H752L1047 569Z"/><glyph unicode="¼" horiz-adv-x="1878" d="M1493 207H1026V330L1448 950H1622L1206 340H1493L1524 580H1647V340H1800V207H1647V0H1493V207ZM287 1372H104V1518H451V567H287V1372ZM1229 1518H1407L561 0H381L1229 1518Z"/><glyph unicode="½" horiz-adv-x="2009" d="M1204 121L1503 403Q1563 461 1600 498T1659 566T1688 624T1696 690Q1696 722 1687 746T1655 787T1598 811T1511 819Q1437 819 1374 803T1266 764L1194 891Q1227 907 1261 920T1336 942T1424 956T1530 961Q1690 961 1770 902T1851 707Q1851 651 1839 608T1800 522T1730 435T1624 330L1423 135H1851V0H1204V121ZM287 1372H104V1518H451V567H287V1372ZM1229 1518H1407L561 0H381L1229 1518Z"/><glyph unicode="¾" horiz-adv-x="2093" d="M449 563Q391 563 342 569T249 587T162 617T76 659L162 782Q196 762 228 748T294 724T361 710T434 705Q490 705 530 712T595 737T633 786T645 868Q645 910 636 939T601 987T531 1015T416 1024H274V1159H412Q470 1159 509 1164T573 1184T607 1221T618 1282Q618 1316 608 1338T574 1374T516 1393T430 1399Q358 1399 293 1382T176 1333L96 1456Q165 1499 258 1520T453 1542Q540 1542 601 1529T701 1487T758 1416T776 1315Q776 1227 743 1177T643 1102Q724 1082 764 1021T805 852Q805 773 783 718T717 629T606 579T449 563ZM1708 207H1241V330L1661 950H1837L1421 340H1710L1739 580H1862V340H2013V207H1862V0H1708V207ZM1444 1518H1622L774 0H598L1444 1518Z"/><glyph unicode="¿" horiz-adv-x="1380" d="M670 -20Q526 -20 428 2T270 71T184 188T158 354Q158 432 176 489T231 591T319 672T440 743Q511 781 552 811T613 880T636 972T633 1108H827Q839 1006 835 935T805 810T728 715T596 631Q528 594 483 566T411 511T373 451T362 371Q362 324 373 287T418 223T515 182T684 168Q808 168 921 196T1126 272L1210 98Q1159 71 1096 49T962 12T817 -12T670 -20ZM606 1522H856V1280H606V1522Z"/><glyph unicode="À" horiz-adv-x="1520" d="M653 1528H864L1473 0H1260L1135 319H377L252 0H45L653 1528ZM1061 510L754 1280L446 510H1061ZM381 1941H625L928 1605H744L381 1941Z"/><glyph unicode="Á" horiz-adv-x="1520" d="M653 1528H864L1473 0H1260L1135 319H377L252 0H45L653 1528ZM1061 510L754 1280L446 510H1061ZM887 1941H1131L768 1605H584L887 1941Z"/><glyph unicode="Â" horiz-adv-x="1520" d="M653 1528H864L1473 0H1260L1135 319H377L252 0H45L653 1528ZM1061 510L754 1280L446 510H1061ZM648 1941H863L1176 1605H983L752 1812L525 1605H334L648 1941Z"/><glyph unicode="Ã" horiz-adv-x="1520" d="M653 1528H864L1473 0H1260L1135 319H377L252 0H45L653 1528ZM1061 510L754 1280L446 510H1061ZM336 1706Q366 1743 399 1774T467 1827T538 1863T611 1876Q664 1876 701 1860T768 1825T828 1789T895 1773Q934 1773 975 1804T1059 1886L1176 1792Q1146 1754 1113 1721T1045 1662T974 1622T900 1607Q852 1607 816 1623T747 1658T683 1694T615 1710Q580 1710 539 1685T459 1610L336 1706Z"/><glyph unicode="Ä" horiz-adv-x="1520" d="M653 1528H864L1473 0H1260L1135 319H377L252 0H45L653 1528ZM1061 510L754 1280L446 510H1061ZM445 1841H627V1612H445V1841ZM887 1841H1067V1612H887V1841Z"/><glyph unicode="Å" horiz-adv-x="1520" d="M616 1434Q556 1468 529 1528T502 1665Q502 1720 516 1768T562 1852T642 1908T758 1929Q824 1929 872 1909T953 1852T1000 1768T1016 1665Q1016 1590 988 1529T901 1436L1475 0H1264L1137 317H375L252 0H45L616 1434ZM1063 508L756 1280L449 508H1063ZM758 1511Q798 1511 826 1522T871 1555T897 1604T905 1665Q905 1698 897 1726T872 1776T826 1809T758 1821Q719 1821 691 1809T645 1776T619 1727T610 1665Q610 1632 618 1604T645 1555T691 1523T758 1511Z"/><glyph unicode="Æ" horiz-adv-x="2234" d="M985 1518H2111V1319H1278V879H2091V688H1278V190H2120V0H1079V319H440L236 0H31L985 1518ZM1079 498V1333L545 498H1079Z"/><glyph unicode="Ç" horiz-adv-x="1497" d="M842 -23Q644 -23 501 27T266 177T129 422T84 760Q84 960 135 1107T285 1351T526 1495T852 1542Q1026 1542 1162 1493T1401 1343L1251 1194Q1173 1266 1074 1304T850 1343Q293 1343 293 758Q293 614 325 505T426 321T600 210T852 172Q934 172 996 184T1106 218T1192 267T1264 328L1411 186Q1370 145 1320 108T1201 41T1045 -5T842 -23ZM756 -475Q678 -475 618 -459T509 -414L564 -309Q606 -331 652 -343T748 -356Q796 -356 826 -349T873 -328T896 -296T902 -256Q902 -201 859 -183T713 -170L664 -135L693 14H814L795 -90Q842 -88 886 -92T964 -114T1018 -168T1039 -268Q1039 -318 1023 -356T973 -421T885 -461T756 -475Z"/><glyph unicode="È" horiz-adv-x="1335" d="M172 1518H1210V1319H379V883H1190V686H379V190H1219V0H172V1518ZM288 1941H532L835 1605H651L288 1941Z"/><glyph unicode="É" horiz-adv-x="1335" d="M794 1941H1038L675 1605H491L794 1941ZM172 1518H1210V1319H379V883H1190V686H379V190H1219V0H172V1518Z"/><glyph unicode="Ê" horiz-adv-x="1335" d="M555 1941H770L1083 1605H890L659 1812L432 1605H241L555 1941ZM172 1518H1210V1319H379V883H1190V686H379V190H1219V0H172V1518Z"/><glyph unicode="Ë" horiz-adv-x="1335" d="M352 1841H534V1612H352V1841ZM794 1841H974V1612H794V1841ZM172 1518H1210V1319H379V883H1190V686H379V190H1219V0H172V1518Z"/><glyph unicode="Ì" horiz-adv-x="582" d="M-127 1939H123L393 1606H205L-127 1939ZM188 1518H393V0H188V1518Z"/><glyph unicode="Í" horiz-adv-x="582" d="M457 1939H707L377 1606H188L457 1939ZM188 1518H393V0H188V1518Z"/><glyph unicode="Î" horiz-adv-x="582" d="M184 1939H395L666 1606H471L287 1817L104 1606H-86L184 1939ZM188 1518H393V0H188V1518Z"/><glyph unicode="Ï" horiz-adv-x="582" d="M188 1518H393V0H188V1518ZM-15 1841H167V1612H-15V1841ZM427 1841H607V1612H427V1841Z"/><glyph unicode="Ð" horiz-adv-x="1559" d="M0 866H172V1518H680Q824 1518 939 1503T1143 1453T1295 1361T1398 1219T1458 1021T1477 760Q1477 542 1429 397T1281 163T1026 37T657 0H172V694H0V866ZM668 190Q840 190 955 220T1140 318T1239 494T1268 760Q1268 919 1243 1026T1151 1199T972 1293T682 1321H379V866H707V694H379V190H668Z"/><glyph unicode="Ñ" horiz-adv-x="1620" d="M172 1518H397L1247 348V1518H1448V0H1257L373 1214V0H172V1518ZM385 1706Q415 1743 448 1774T516 1827T587 1863T660 1876Q713 1876 750 1860T817 1825T877 1789T944 1773Q983 1773 1024 1804T1108 1886L1225 1792Q1195 1754 1162 1721T1094 1662T1023 1622T949 1607Q901 1607 865 1623T796 1658T732 1694T664 1710Q629 1710 588 1685T508 1610L385 1706Z"/><glyph unicode="Ò" horiz-adv-x="1718" d="M858 -25Q676 -25 533 20T289 160T137 404T84 760Q84 966 136 1114T289 1357T532 1497T858 1542Q1040 1542 1183 1497T1427 1357T1579 1114T1632 760Q1632 553 1580 405T1427 161T1184 20T858 -25ZM858 168Q1006 168 1113 207T1289 321T1392 505T1425 756Q1425 897 1392 1006T1290 1191T1113 1304T858 1343Q710 1343 603 1305T427 1191T326 1007T293 756Q293 615 325 506T427 321T603 207T858 168ZM481 1941H725L1028 1605H844L481 1941Z"/><glyph unicode="Ó" horiz-adv-x="1718" d="M987 1941H1231L868 1605H684L987 1941ZM858 -25Q676 -25 533 20T289 160T137 404T84 760Q84 966 136 1114T289 1357T532 1497T858 1542Q1040 1542 1183 1497T1427 1357T1579 1114T1632 760Q1632 553 1580 405T1427 161T1184 20T858 -25ZM858 168Q1006 168 1113 207T1289 321T1392 505T1425 756Q1425 897 1392 1006T1290 1191T1113 1304T858 1343Q710 1343 603 1305T427 1191T326 1007T293 756Q293 615 325 506T427 321T603 207T858 168Z"/><glyph unicode="Ô" horiz-adv-x="1718" d="M748 1941H963L1276 1605H1083L852 1812L625 1605H434L748 1941ZM858 -25Q676 -25 533 20T289 160T137 404T84 760Q84 966 136 1114T289 1357T532 1497T858 1542Q1040 1542 1183 1497T1427 1357T1579 1114T1632 760Q1632 553 1580 405T1427 161T1184 20T858 -25ZM858 168Q1006 168 1113 207T1289 321T1392 505T1425 756Q1425 897 1392 1006T1290 1191T1113 1304T858 1343Q710 1343 603 1305T427 1191T326 1007T293 756Q293 615 325 506T427 321T603 207T858 168Z"/><glyph unicode="Õ" horiz-adv-x="1718" d="M858 -25Q676 -25 533 20T289 160T137 404T84 760Q84 966 136 1114T289 1357T532 1497T858 1542Q1040 1542 1183 1497T1427 1357T1579 1114T1632 760Q1632 553 1580 405T1427 161T1184 20T858 -25ZM858 168Q1006 168 1113 207T1289 321T1392 505T1425 756Q1425 897 1392 1006T1290 1191T1113 1304T858 1343Q710 1343 603 1305T427 1191T326 1007T293 756Q293 615 325 506T427 321T603 207T858 168ZM436 1706Q466 1743 499 1774T567 1827T638 1863T711 1876Q764 1876 801 1860T868 1825T928 1789T995 1773Q1034 1773 1075 1804T1159 1886L1276 1792Q1246 1754 1213 1721T1145 1662T1074 1622T1000 1607Q952 1607 916 1623T847 1658T783 1694T715 1710Q680 1710 639 1685T559 1610L436 1706Z"/><glyph unicode="Ö" horiz-adv-x="1718" d="M545 1841H727V1612H545V1841ZM987 1841H1167V1612H987V1841ZM858 -25Q676 -25 533 20T289 160T137 404T84 760Q84 966 136 1114T289 1357T532 1497T858 1542Q1040 1542 1183 1497T1427 1357T1579 1114T1632 760Q1632 553 1580 405T1427 161T1184 20T858 -25ZM858 168Q1006 168 1113 207T1289 321T1392 505T1425 756Q1425 897 1392 1006T1290 1191T1113 1304T858 1343Q710 1343 603 1305T427 1191T326 1007T293 756Q293 615 325 506T427 321T603 207T858 168Z"/><glyph unicode="×" horiz-adv-x="1440" d="M276 401L596 721L276 1040L399 1169L721 848L1038 1169L1161 1040L842 721L1161 403L1038 276L721 596L397 276L276 401Z"/><glyph unicode="Ø" horiz-adv-x="1718" d="M858 -25Q670 -25 526 20L467 -84H268L369 92Q322 122 283 160Q185 256 135 404T84 760Q84 966 134 1114T283 1357T526 1497T858 1542Q1033 1542 1171 1503L1229 1604H1425L1329 1436Q1386 1402 1433 1357Q1531 1262 1581 1114T1632 760Q1632 553 1582 405T1433 161T1191 20T858 -25ZM858 162Q1014 162 1123 201T1301 316T1401 502T1432 756Q1432 899 1401 1009T1301 1196Q1267 1233 1223 1262L616 193Q719 162 858 162ZM858 1350Q703 1350 594 1311T417 1196T318 1010T287 756Q287 613 318 503T417 316Q443 286 475 262L1079 1324Q984 1350 858 1350Z"/><glyph unicode="Ù" horiz-adv-x="1614" d="M805 -27Q664 -27 562 -5T388 58T272 154T204 273T171 410T162 557V1518H369V582Q369 489 386 413T452 282T585 198T807 168Q943 168 1030 197T1166 280T1234 410T1253 582V1518H1454V557Q1454 482 1445 410T1411 273T1341 153T1224 58T1049 -4T805 -27ZM428 1941H672L975 1605H791L428 1941Z"/><glyph unicode="Ú" horiz-adv-x="1614" d="M934 1941H1178L815 1605H631L934 1941ZM805 -27Q664 -27 562 -5T388 58T272 154T204 273T171 410T162 557V1518H369V582Q369 489 386 413T452 282T585 198T807 168Q943 168 1030 197T1166 280T1234 410T1253 582V1518H1454V557Q1454 482 1445 410T1411 273T1341 153T1224 58T1049 -4T805 -27Z"/><glyph unicode="Û" horiz-adv-x="1614" d="M695 1941H910L1223 1605H1030L799 1812L572 1605H381L695 1941ZM805 -27Q664 -27 562 -5T388 58T272 154T204 273T171 410T162 557V1518H369V582Q369 489 386 413T452 282T585 198T807 168Q943 168 1030 197T1166 280T1234 410T1253 582V1518H1454V557Q1454 482 1445 410T1411 273T1341 153T1224 58T1049 -4T805 -27Z"/><glyph unicode="Ü" horiz-adv-x="1614" d="M492 1841H674V1612H492V1841ZM934 1841H1114V1612H934V1841ZM805 -27Q664 -27 562 -5T388 58T272 154T204 273T171 410T162 557V1518H369V582Q369 489 386 413T452 282T585 198T807 168Q943 168 1030 197T1166 280T1234 410T1253 582V1518H1454V557Q1454 482 1445 410T1411 273T1341 153T1224 58T1049 -4T805 -27Z"/><glyph unicode="Ý" horiz-adv-x="1466" d="M20 1518H246L735 762L1229 1518H1444L836 579V0H631V574L20 1518ZM860 1941H1104L741 1605H557L860 1941Z"/><glyph unicode="Þ" horiz-adv-x="1475" d="M172 1518H375V1282H854Q1008 1282 1111 1252T1277 1163T1365 1015T1391 809Q1391 692 1366 600T1278 445T1111 347T848 313H375V0H172V1518ZM854 504Q942 504 1005 520T1107 571T1165 664T1184 803Q1184 887 1166 942T1109 1032T1005 1080T850 1094H375V504H854Z"/><glyph unicode="ß" horiz-adv-x="1352" d="M147 1098Q147 1198 171 1289T256 1449T418 1558T674 1599Q926 1599 1043 1498T1161 1198Q1161 1120 1147 1061T1107 959T1041 886T952 838Q1033 823 1094 794T1197 717T1259 602T1280 442Q1280 335 1257 253T1170 115T989 29T686 0H557V180H682Q813 180 892 200T1013 258T1069 345T1083 455Q1083 525 1063 575T994 659T860 707T647 723V889Q811 889 888 951T965 1149Q965 1211 949 1257T898 1335T807 1381T672 1397Q585 1397 523 1376T421 1316T363 1219T344 1090V0H147V1098Z"/><glyph unicode="à" horiz-adv-x="1284" d="M487 -20Q364 -20 286 6T161 79T98 189T80 324Q80 405 96 467T148 575T242 653T383 704T578 732T831 741H892Q891 791 884 830Q876 881 847 914T762 963T608 979Q554 979 505 971T414 948T335 917T272 883L168 1038Q196 1057 243 1079T350 1121T480 1152T627 1165Q773 1165 862 1139T1001 1058T1068 917T1085 709V303Q1085 262 1088 237T1102 199T1136 181T1198 176V2Q1187 -1 1167 -1T1116 -2Q1069 -2 1037 5T983 27T947 67T922 127Q896 91 860 64T771 18T648 -10T487 -20ZM554 560Q443 549 380 522T294 450T270 338Q270 293 282 258T322 200T399 164T520 152Q619 152 689 172T805 235T872 344T893 502V571H842Q666 571 554 560ZM268 1591H512L815 1255H631L268 1591Z"/><glyph unicode="á" horiz-adv-x="1284" d="M487 -20Q364 -20 286 6T161 79T98 189T80 324Q80 405 96 467T148 575T242 653T383 704T578 732T831 741H892Q891 791 884 830Q876 881 847 914T762 963T608 979Q554 979 505 971T414 948T335 917T272 883L168 1038Q196 1057 243 1079T350 1121T480 1152T627 1165Q773 1165 862 1139T1001 1058T1068 917T1085 709V303Q1085 262 1088 237T1102 199T1136 181T1198 176V2Q1187 -1 1167 -1T1116 -2Q1069 -2 1037 5T983 27T947 67T922 127Q896 91 860 64T771 18T648 -10T487 -20ZM554 560Q443 549 380 522T294 450T270 338Q270 293 282 258T322 200T399 164T520 152Q619 152 689 172T805 235T872 344T893 502V571H842Q666 571 554 560ZM774 1591H1018L655 1255H471L774 1591Z"/><glyph unicode="â" horiz-adv-x="1284" d="M487 -20Q364 -20 286 6T161 79T98 189T80 324Q80 405 96 467T148 575T242 653T383 704T578 732T831 741H892Q891 791 884 830Q876 881 847 914T762 963T608 979Q554 979 505 971T414 948T335 917T272 883L168 1038Q196 1057 243 1079T350 1121T480 1152T627 1165Q773 1165 862 1139T1001 1058T1068 917T1085 709V303Q1085 262 1088 237T1102 199T1136 181T1198 176V2Q1187 -1 1167 -1T1116 -2Q1069 -2 1037 5T983 27T947 67T922 127Q896 91 860 64T771 18T648 -10T487 -20ZM554 560Q443 549 380 522T294 450T270 338Q270 293 282 258T322 200T399 164T520 152Q619 152 689 172T805 235T872 344T893 502V571H842Q666 571 554 560ZM535 1591H750L1063 1255H870L639 1462L412 1255H221L535 1591Z"/><glyph unicode="ã" horiz-adv-x="1284" d="M487 -20Q364 -20 286 6T161 79T98 189T80 324Q80 405 96 467T148 575T242 653T383 704T578 732T831 741H892Q891 791 884 830Q876 881 847 914T762 963T608 979Q554 979 505 971T414 948T335 917T272 883L168 1038Q196 1057 243 1079T350 1121T480 1152T627 1165Q773 1165 862 1139T1001 1058T1068 917T1085 709V303Q1085 262 1088 237T1102 199T1136 181T1198 176V2Q1187 -1 1167 -1T1116 -2Q1069 -2 1037 5T983 27T947 67T922 127Q896 91 860 64T771 18T648 -10T487 -20ZM554 560Q443 549 380 522T294 450T270 338Q270 293 282 258T322 200T399 164T520 152Q619 152 689 172T805 235T872 344T893 502V571H842Q666 571 554 560ZM223 1356Q253 1393 286 1424T354 1477T425 1513T498 1526Q551 1526 588 1510T655 1475T715 1439T782 1423Q821 1423 862 1454T946 1536L1063 1442Q1033 1404 1000 1371T932 1312T861 1272T787 1257Q739 1257 703 1273T634 1308T570 1344T502 1360Q467 1360 426 1335T346 1260L223 1356Z"/><glyph unicode="ä" horiz-adv-x="1284" d="M487 -20Q364 -20 286 6T161 79T98 189T80 324Q80 405 96 467T148 575T242 653T383 704T578 732T831 741H892Q891 791 884 830Q876 881 847 914T762 963T608 979Q554 979 505 971T414 948T335 917T272 883L168 1038Q196 1057 243 1079T350 1121T480 1152T627 1165Q773 1165 862 1139T1001 1058T1068 917T1085 709V303Q1085 262 1088 237T1102 199T1136 181T1198 176V2Q1187 -1 1167 -1T1116 -2Q1069 -2 1037 5T983 27T947 67T922 127Q896 91 860 64T771 18T648 -10T487 -20ZM554 560Q443 549 380 522T294 450T270 338Q270 293 282 258T322 200T399 164T520 152Q619 152 689 172T805 235T872 344T893 502V571H842Q666 571 554 560ZM332 1491H514V1262H332V1491ZM774 1491H954V1262H774V1491Z"/><glyph unicode="å" horiz-adv-x="1284" d="M487 -20Q364 -20 286 6T161 79T98 189T80 324Q80 405 96 467T148 575T242 653T383 704T578 732T831 741H892Q891 791 884 830Q876 881 847 914T762 963T608 979Q554 979 505 971T414 948T335 917T272 883L168 1038Q196 1057 243 1079T350 1121T480 1152T627 1165Q773 1165 862 1139T1001 1058T1068 917T1085 709V303Q1085 262 1088 237T1102 199T1136 181T1198 176V2Q1187 -1 1167 -1T1116 -2Q1069 -2 1037 5T983 27T947 67T922 127Q896 91 860 64T771 18T648 -10T487 -20ZM554 560Q443 549 380 522T294 450T270 338Q270 293 282 258T322 200T399 164T520 152Q619 152 689 172T805 235T872 344T893 502V571H842Q666 571 554 560ZM643 1231Q575 1231 526 1251T446 1307T400 1391T385 1495Q385 1552 399 1601T445 1686T526 1742T643 1763Q708 1763 756 1743T836 1686T883 1601T899 1495Q899 1439 884 1391T837 1308T757 1252T643 1231ZM643 1341Q682 1341 709 1353T754 1386T780 1435T789 1495Q789 1527 781 1555T755 1604T710 1637T643 1649Q603 1649 575 1637T530 1604T504 1555T496 1495Q496 1463 504 1435T529 1386T575 1353T643 1341Z"/><glyph unicode="æ" horiz-adv-x="2019" d="M1444 -23Q1324 -23 1238 -2T1091 59T994 153L974 185Q960 160 945 139Q898 75 833 40T683 -7T492 -20Q382 -20 304 1T176 65T103 172T80 324Q80 445 119 525T248 654T481 721T831 741H892Q891 791 884 830Q876 881 847 914T762 963T608 979Q554 979 505 971T412 949T332 918T268 885L168 1038Q196 1057 243 1079T350 1121T480 1152T627 1165Q773 1165 858 1136T988 1048Q1002 1030 1012 1009Q1046 1051 1093 1082Q1152 1121 1237 1143T1438 1165Q1559 1165 1642 1140T1779 1068T1862 959T1904 822T1918 664T1917 494H1077Q1080 443 1088 397Q1101 320 1140 266T1252 181T1444 150Q1512 150 1564 158T1659 182T1736 217T1804 262L1913 123Q1867 88 1819 61T1715 15T1593 -13T1444 -23ZM558 560Q447 550 383 524T295 453T270 338Q270 293 282 258T322 200T399 164T522 152Q620 152 690 172T806 235T872 344T893 502V571H842Q669 571 558 560ZM1729 668Q1726 736 1717 795T1679 897T1592 964T1434 989Q1319 989 1249 958T1140 871T1088 737Q1082 704 1079 668H1729Z"/><glyph unicode="ç" horiz-adv-x="1165" d="M853 -475Q775 -475 715 -459T606 -414L661 -309Q703 -331 749 -343T845 -356Q893 -356 923 -349T970 -328T993 -296T999 -256Q999 -201 956 -183T810 -170L761 -135L790 14H911L892 -90Q939 -88 983 -92T1061 -114T1115 -168T1136 -268Q1136 -318 1120 -356T1070 -421T982 -461T853 -475ZM647 -20Q483 -20 376 23T206 143T118 330T92 571Q92 703 117 812T206 1000T379 1122T655 1165Q731 1165 794 1153T910 1118T1004 1064T1079 995L934 858Q914 879 889 899T830 936T753 963T655 973Q550 973 481 946T369 866T310 738T293 567Q293 472 309 396T367 267T478 186T655 158Q701 158 740 165T813 187T880 223T944 274L1077 147Q1033 106 989 75T894 23T783 -9T647 -20Z"/><glyph unicode="è" horiz-adv-x="1229" d="M651 -23Q534 -23 448 -2T299 57T196 150T133 271T101 413T92 571Q92 694 115 802T199 991T369 1118T647 1165Q764 1165 845 1140T981 1068T1065 959T1109 822T1125 664T1126 494H285Q288 443 296 397Q309 320 348 266T460 181T651 150Q720 150 773 158T868 182T946 217T1014 262L1120 123Q1075 88 1026 61T921 15T798 -13T651 -23ZM938 670Q935 715 931 756T917 832T887 897T836 946T756 978T641 989Q527 989 457 958T349 871T296 737Q291 705 287 670H938ZM235 1591H479L782 1255H598L235 1591Z"/><glyph unicode="é" horiz-adv-x="1229" d="M741 1591H985L622 1255H438L741 1591ZM651 -23Q534 -23 448 -2T299 57T196 150T133 271T101 413T92 571Q92 694 115 802T199 991T369 1118T647 1165Q764 1165 845 1140T981 1068T1065 959T1109 822T1125 664T1126 494H285Q288 443 296 397Q309 320 348 266T460 181T651 150Q720 150 773 158T868 182T946 217T1014 262L1120 123Q1075 88 1026 61T921 15T798 -13T651 -23ZM938 670Q935 715 931 756T917 832T887 897T836 946T756 978T641 989Q527 989 457 958T349 871T296 737Q291 705 287 670H938Z"/><glyph unicode="ê" horiz-adv-x="1229" d="M502 1591H717L1030 1255H837L606 1462L379 1255H188L502 1591ZM651 -23Q534 -23 448 -2T299 57T196 150T133 271T101 413T92 571Q92 694 115 802T199 991T369 1118T647 1165Q764 1165 845 1140T981 1068T1065 959T1109 822T1125 664T1126 494H285Q288 443 296 397Q309 320 348 266T460 181T651 150Q720 150 773 158T868 182T946 217T1014 262L1120 123Q1075 88 1026 61T921 15T798 -13T651 -23ZM938 670Q935 715 931 756T917 832T887 897T836 946T756 978T641 989Q527 989 457 958T349 871T296 737Q291 705 287 670H938Z"/><glyph unicode="ë" horiz-adv-x="1229" d="M299 1491H481V1262H299V1491ZM741 1491H921V1262H741V1491ZM651 -23Q534 -23 448 -2T299 57T196 150T133 271T101 413T92 571Q92 694 115 802T199 991T369 1118T647 1165Q764 1165 845 1140T981 1068T1065 959T1109 822T1125 664T1126 494H285Q288 443 296 397Q309 320 348 266T460 181T651 150Q720 150 773 158T868 182T946 217T1014 262L1120 123Q1075 88 1026 61T921 15T798 -13T651 -23ZM938 670Q935 715 931 756T917 832T887 897T836 946T756 978T641 989Q527 989 457 958T349 871T296 737Q291 705 287 670H938Z"/><glyph unicode="ì" horiz-adv-x="516" d="M-109 1587H133L356 1255H172L-109 1587ZM160 1139H356V0H160V1139Z"/><glyph unicode="í" horiz-adv-x="516" d="M383 1587H627L346 1255H164L383 1587ZM160 1139H356V0H160V1139Z"/><glyph unicode="î" horiz-adv-x="516" d="M156 1587H358L608 1255H418L256 1464L90 1255H-92L156 1587ZM160 1139H356V0H160V1139Z"/><glyph unicode="ï" horiz-adv-x="516" d="M-18 1505H145V1278H-18V1505ZM373 1505H537V1278H373V1505ZM160 1139H356V0H160V1139Z"/><glyph unicode="ð" horiz-adv-x="1309" d="M604 1352L757 1391Q693 1464 610 1538L795 1616Q885 1542 962 1449Q964 1446 966 1444L1245 1516V1372L1049 1322Q1074 1280 1095 1233Q1152 1111 1184 955T1217 598Q1217 435 1183 318T1079 125T903 13T651 -23Q500 -23 394 16T220 128T123 307T92 547Q92 676 118 781T205 960T362 1075T600 1116Q675 1116 733 1109T836 1087T914 1050T973 999Q941 1137 852 1269Q851 1271 850 1272L604 1210V1352ZM651 158Q751 158 820 183T933 259T995 382T1014 551Q1014 648 995 721T933 843T821 917T651 942Q553 942 485 917T375 843T313 721T293 551Q293 456 312 383T374 259T485 184T651 158Z"/><glyph unicode="ñ" horiz-adv-x="1294" d="M147 1128L305 1139L322 1030Q342 1057 373 1081T454 1124T574 1154T741 1165Q876 1165 957 1131T1081 1035T1137 886T1151 694V0H952V655Q952 724 946 782T912 881T830 946T678 969Q573 969 508 944T408 873T360 766T348 631V0H147V1128ZM223 1356Q253 1393 286 1424T354 1477T425 1513T498 1526Q551 1526 588 1510T655 1475T715 1439T782 1423Q821 1423 862 1454T946 1536L1063 1442Q1033 1404 1000 1371T932 1312T861 1272T787 1257Q739 1257 703 1273T634 1308T570 1344T502 1360Q467 1360 426 1335T346 1260L223 1356Z"/><glyph unicode="ò" horiz-adv-x="1309" d="M653 -23Q502 -23 396 15T222 128T123 314T92 571Q92 717 123 828T221 1014T395 1127T653 1165Q804 1165 911 1127T1086 1014T1185 828T1217 571Q1217 425 1186 314T1087 128T912 15T653 -23ZM653 158Q754 158 823 185T934 264T995 392T1014 567Q1014 665 996 741T935 869T823 948T653 975Q552 975 484 948T373 869T312 741T293 567Q293 469 311 393T372 264T483 185T653 158ZM276 1591H520L823 1255H639L276 1591Z"/><glyph unicode="ó" horiz-adv-x="1309" d="M782 1591H1026L663 1255H479L782 1591ZM653 -23Q502 -23 396 15T222 128T123 314T92 571Q92 717 123 828T221 1014T395 1127T653 1165Q804 1165 911 1127T1086 1014T1185 828T1217 571Q1217 425 1186 314T1087 128T912 15T653 -23ZM653 158Q754 158 823 185T934 264T995 392T1014 567Q1014 665 996 741T935 869T823 948T653 975Q552 975 484 948T373 869T312 741T293 567Q293 469 311 393T372 264T483 185T653 158Z"/><glyph unicode="ô" horiz-adv-x="1309" d="M543 1591H758L1071 1255H878L647 1462L420 1255H229L543 1591ZM653 -23Q502 -23 396 15T222 128T123 314T92 571Q92 717 123 828T221 1014T395 1127T653 1165Q804 1165 911 1127T1086 1014T1185 828T1217 571Q1217 425 1186 314T1087 128T912 15T653 -23ZM653 158Q754 158 823 185T934 264T995 392T1014 567Q1014 665 996 741T935 869T823 948T653 975Q552 975 484 948T373 869T312 741T293 567Q293 469 311 393T372 264T483 185T653 158Z"/><glyph unicode="õ" horiz-adv-x="1309" d="M653 -23Q502 -23 396 15T222 128T123 314T92 571Q92 717 123 828T221 1014T395 1127T653 1165Q804 1165 911 1127T1086 1014T1185 828T1217 571Q1217 425 1186 314T1087 128T912 15T653 -23ZM653 158Q754 158 823 185T934 264T995 392T1014 567Q1014 665 996 741T935 869T823 948T653 975Q552 975 484 948T373 869T312 741T293 567Q293 469 311 393T372 264T483 185T653 158ZM231 1356Q261 1393 294 1424T362 1477T433 1513T506 1526Q559 1526 596 1510T663 1475T723 1439T790 1423Q829 1423 870 1454T954 1536L1071 1442Q1041 1404 1008 1371T940 1312T869 1272T795 1257Q747 1257 711 1273T642 1308T578 1344T510 1360Q475 1360 434 1335T354 1260L231 1356Z"/><glyph unicode="ö" horiz-adv-x="1309" d="M340 1491H522V1262H340V1491ZM782 1491H962V1262H782V1491ZM653 -23Q502 -23 396 15T222 128T123 314T92 571Q92 717 123 828T221 1014T395 1127T653 1165Q804 1165 911 1127T1086 1014T1185 828T1217 571Q1217 425 1186 314T1087 128T912 15T653 -23ZM653 158Q754 158 823 185T934 264T995 392T1014 567Q1014 665 996 741T935 869T823 948T653 975Q552 975 484 948T373 869T312 741T293 567Q293 469 311 393T372 264T483 185T653 158Z"/><glyph unicode="÷" horiz-adv-x="1440" d="M608 420H831V205H608V420ZM211 817H1229V627H211V817ZM608 1241H831V1026H608V1241Z"/><glyph unicode="ø" horiz-adv-x="1309" d="M653 -23Q512 -23 410 8L352 -86H170L270 80Q242 102 218 128Q152 203 122 314T92 571Q92 717 122 828T218 1014T392 1127T653 1165Q794 1165 896 1133L954 1229H1137L1039 1061Q1066 1039 1089 1014Q1157 939 1187 828T1217 571Q1217 425 1187 314T1090 128T915 15T653 -23ZM653 154Q755 154 825 181T938 261T999 391T1018 567Q1018 666 1000 742T938 871Q931 879 924 887L500 174Q564 154 653 154ZM653 979Q551 979 482 952T369 872T308 743T289 567Q289 468 307 391T369 261Q374 254 381 248L801 959Q738 979 653 979Z"/><glyph unicode="ù" horiz-adv-x="1280" d="M643 -20Q534 -20 454 -6T318 38T228 110T174 209T148 335T141 487V1139H340V483Q340 415 345 357T378 255T468 187T643 162Q719 162 770 173T855 205T907 255T933 321T942 400T944 489V1139H1139V494Q1139 410 1133 340T1108 212T1055 111T966 39T832 -5T643 -20ZM262 1591H506L809 1255H625L262 1591Z"/><glyph unicode="ú" horiz-adv-x="1280" d="M768 1591H1012L649 1255H465L768 1591ZM643 -20Q534 -20 454 -6T318 38T228 110T174 209T148 335T141 487V1139H340V483Q340 415 345 357T378 255T468 187T643 162Q719 162 770 173T855 205T907 255T933 321T942 400T944 489V1139H1139V494Q1139 410 1133 340T1108 212T1055 111T966 39T832 -5T643 -20Z"/><glyph unicode="û" horiz-adv-x="1280" d="M529 1591H744L1057 1255H864L633 1462L406 1255H215L529 1591ZM643 -20Q534 -20 454 -6T318 38T228 110T174 209T148 335T141 487V1139H340V483Q340 415 345 357T378 255T468 187T643 162Q719 162 770 173T855 205T907 255T933 321T942 400T944 489V1139H1139V494Q1139 410 1133 340T1108 212T1055 111T966 39T832 -5T643 -20Z"/><glyph unicode="ü" horiz-adv-x="1280" d="M326 1491H508V1262H326V1491ZM768 1491H948V1262H768V1491ZM643 -20Q534 -20 454 -6T318 38T228 110T174 209T148 335T141 487V1139H340V483Q340 415 345 357T378 255T468 187T643 162Q719 162 770 173T855 205T907 255T933 321T942 400T944 489V1139H1139V494Q1139 410 1133 340T1108 212T1055 111T966 39T832 -5T643 -20Z"/><glyph unicode="ý" horiz-adv-x="1114" d="M14 1139H227L562 250L893 1139H1102L618 -96Q594 -162 564 -209T492 -286T394 -330T262 -344H211Q196 -344 182 -344T158 -342V-180H246Q287 -180 316 -176T365 -159T398 -127T422 -76L456 13L14 1139ZM949 1591H1193L830 1255H646L949 1591Z"/><glyph unicode="þ" horiz-adv-x="1343" d="M147 1589H346V1026Q370 1062 406 1088T493 1131T611 1157T764 1165Q908 1165 1002 1122T1151 1000T1229 812T1251 571Q1251 441 1228 333T1149 146T997 24T756 -20Q667 -20 600 -12T485 14T403 57T348 119V-338H147V1589ZM721 162Q818 162 881 190T981 270T1034 396T1049 565Q1049 659 1035 734T983 863T883 946T721 975Q620 975 550 954T434 884T369 757T348 565Q348 452 367 375T431 251T547 183T721 162Z"/><glyph unicode="ÿ" horiz-adv-x="1114" d="M14 1139H227L562 250L893 1139H1102L618 -96Q594 -162 564 -209T492 -286T394 -330T262 -344H211Q196 -344 182 -344T158 -342V-180H246Q287 -180 316 -176T365 -159T398 -127T422 -76L456 13L14 1139ZM507 1491H689V1262H507V1491ZM949 1491H1129V1262H949V1491Z"/><glyph unicode="Ā" horiz-adv-x="1520" d="M653 1528H864L1473 0H1260L1135 319H377L252 0H45L653 1528ZM1061 510L754 1280L446 510H1061ZM371 1763H1141V1593H371V1763Z"/><glyph unicode="ā" horiz-adv-x="1284" d="M487 -20Q364 -20 286 6T161 79T98 189T80 324Q80 405 96 467T148 575T242 653T383 704T578 732T831 741H892Q891 791 884 830Q876 881 847 914T762 963T608 979Q554 979 505 971T414 948T335 917T272 883L168 1038Q196 1057 243 1079T350 1121T480 1152T627 1165Q773 1165 862 1139T1001 1058T1068 917T1085 709V303Q1085 262 1088 237T1102 199T1136 181T1198 176V2Q1187 -1 1167 -1T1116 -2Q1069 -2 1037 5T983 27T947 67T922 127Q896 91 860 64T771 18T648 -10T487 -20ZM554 560Q443 549 380 522T294 450T270 338Q270 293 282 258T322 200T399 164T520 152Q619 152 689 172T805 235T872 344T893 502V571H842Q666 571 554 560ZM258 1413H1028V1243H258V1413Z"/><glyph unicode="Ă" horiz-adv-x="1520" d="M653 1528H864L1473 0H1260L1135 319H377L252 0H45L653 1528ZM1061 510L754 1280L446 510H1061ZM756 1583Q652 1583 582 1608T467 1679T398 1784T359 1915L506 1945Q516 1900 532 1864T576 1801T647 1761T756 1747Q820 1747 863 1761T935 1801T980 1863T1006 1945L1156 1917Q1141 1846 1116 1785T1045 1679T930 1609T756 1583Z"/><glyph unicode="ă" horiz-adv-x="1284" d="M487 -20Q364 -20 286 6T161 79T98 189T80 324Q80 405 96 467T148 575T242 653T383 704T578 732T831 741H892Q891 791 884 830Q876 881 847 914T762 963T608 979Q554 979 505 971T414 948T335 917T272 883L168 1038Q196 1057 243 1079T350 1121T480 1152T627 1165Q773 1165 862 1139T1001 1058T1068 917T1085 709V303Q1085 262 1088 237T1102 199T1136 181T1198 176V2Q1187 -1 1167 -1T1116 -2Q1069 -2 1037 5T983 27T947 67T922 127Q896 91 860 64T771 18T648 -10T487 -20ZM554 560Q443 549 380 522T294 450T270 338Q270 293 282 258T322 200T399 164T520 152Q619 152 689 172T805 235T872 344T893 502V571H842Q666 571 554 560ZM643 1233Q539 1233 469 1258T354 1329T285 1434T246 1565L393 1595Q403 1550 419 1514T463 1451T534 1411T643 1397Q707 1397 750 1411T822 1451T867 1513T893 1595L1043 1567Q1028 1496 1003 1435T932 1329T817 1259T643 1233Z"/><glyph unicode="Ą" horiz-adv-x="1520" d="M653 1528H864L1473 0H1409Q1315 -57 1269 -113T1223 -219Q1223 -238 1227 -255T1245 -286T1281 -307T1343 -315Q1387 -315 1424 -308T1491 -291L1536 -412Q1496 -432 1440 -443T1319 -455Q1242 -455 1192 -440T1113 -397T1071 -332T1059 -250Q1059 -204 1075 -163T1119 -86T1180 -22T1249 27L1135 319H377L252 0H45L653 1528ZM1061 510L754 1280L446 510H1061Z"/><glyph unicode="ą" horiz-adv-x="1284" d="M487 -20Q364 -20 286 6T161 79T98 189T80 324Q80 405 96 467T148 575T242 653T383 704T578 732T831 741H893Q891 802 881 847T840 921T754 965T608 979Q554 979 505 971T414 948T335 917T272 883L168 1038Q196 1057 243 1079T350 1121T480 1152T627 1165Q773 1165 862 1139T1001 1058T1068 917T1085 709V303Q1085 262 1088 237T1102 199T1136 181T1198 176V2Q1095 -57 1040 -112T985 -219Q985 -238 989 -255T1008 -286T1046 -307T1112 -315Q1157 -315 1196 -308T1264 -289L1313 -410Q1271 -430 1213 -442T1087 -455Q1007 -455 956 -440T876 -397T835 -332T823 -250Q823 -202 841 -162T888 -88T950 -29T1014 12Q997 18 984 27T961 47Q947 64 938 83T922 127Q896 91 860 64T771 18T648 -10T487 -20ZM520 152Q619 152 689 172T805 235T872 344T893 502V571H842Q666 571 555 560T380 522T294 450T270 338Q270 293 282 258T322 200T399 164T520 152Z"/><glyph unicode="Ć" horiz-adv-x="1497" d="M876 1941H1120L757 1605H573L876 1941ZM842 -23Q644 -23 501 27T266 177T129 422T84 760Q84 960 135 1107T285 1351T526 1495T852 1542Q1026 1542 1162 1493T1401 1343L1251 1194Q1173 1266 1074 1304T850 1343Q293 1343 293 758Q293 614 325 505T426 321T600 210T852 172Q934 172 996 184T1106 218T1192 267T1264 328L1411 186Q1370 145 1320 108T1201 41T1045 -5T842 -23Z"/><glyph unicode="ć" horiz-adv-x="1165" d="M974 1591H1218L855 1255H671L974 1591ZM647 -20Q483 -20 376 23T206 143T118 330T92 571Q92 703 117 812T206 1000T379 1122T655 1165Q731 1165 794 1153T910 1118T1004 1064T1079 995L934 858Q914 879 889 899T830 936T753 963T655 973Q550 973 481 946T369 866T310 738T293 567Q293 472 309 396T367 267T478 186T655 158Q701 158 740 165T813 187T880 223T944 274L1077 147Q1033 106 989 75T894 23T783 -9T647 -20Z"/><glyph unicode="Č" horiz-adv-x="1497" d="M323 1941H518L747 1734L977 1941H1165L852 1605H637L323 1941ZM842 -23Q644 -23 501 27T266 177T129 422T84 760Q84 960 135 1107T285 1351T526 1495T852 1542Q1026 1542 1162 1493T1401 1343L1251 1194Q1173 1266 1074 1304T850 1343Q293 1343 293 758Q293 614 325 505T426 321T600 210T852 172Q934 172 996 184T1106 218T1192 267T1264 328L1411 186Q1370 145 1320 108T1201 41T1045 -5T842 -23Z"/><glyph unicode="č" horiz-adv-x="1165" d="M421 1591H616L845 1384L1075 1591H1263L950 1255H735L421 1591ZM647 -20Q483 -20 376 23T206 143T118 330T92 571Q92 703 117 812T206 1000T379 1122T655 1165Q731 1165 794 1153T910 1118T1004 1064T1079 995L934 858Q914 879 889 899T830 936T753 963T655 973Q550 973 481 946T369 866T310 738T293 567Q293 472 309 396T367 267T478 186T655 158Q701 158 740 165T813 187T880 223T944 274L1077 147Q1033 106 989 75T894 23T783 -9T647 -20Z"/><glyph unicode="Ď" horiz-adv-x="1559" d="M354 1941H549L778 1734L1008 1941H1196L883 1605H668L354 1941ZM172 1518H680Q824 1518 939 1503T1143 1453T1295 1361T1398 1219T1458 1021T1477 760Q1477 542 1431 397T1285 163T1030 37T657 0H172V1518ZM668 190Q840 190 955 220T1140 318T1239 494T1268 760Q1268 919 1243 1026T1151 1199T972 1293T682 1321H379V190H668Z"/><glyph unicode="ď" horiz-adv-x="1581" d="M1346 1212Q1381 1231 1403 1246T1439 1277T1457 1314T1462 1362H1362V1589H1575V1421Q1575 1357 1568 1313T1542 1235T1487 1175T1395 1122L1346 1212ZM582 -20Q439 -20 345 23T194 146T115 334T92 575Q92 705 115 813T196 999T348 1120T588 1163Q677 1163 744 1155T860 1129T941 1086T995 1026V1589H1196V8L1042 -6L1020 127Q993 89 956 62T866 16T743 -11T582 -20ZM625 162Q725 162 795 184T910 255T975 383T995 575Q995 687 976 764T913 888T799 956T625 977Q526 977 463 949T362 869T310 743T295 575Q295 481 309 405T361 274T462 191T625 162Z"/><glyph unicode="Đ" horiz-adv-x="1559" d="M0 866H172V1518H680Q824 1518 939 1503T1143 1453T1295 1361T1398 1219T1458 1021T1477 760Q1477 542 1429 397T1281 163T1026 37T657 0H172V694H0V866ZM668 190Q840 190 955 220T1140 318T1239 494T1268 760Q1268 919 1243 1026T1151 1199T972 1293T682 1321H379V866H707V694H379V190H668Z"/><glyph unicode="đ" horiz-adv-x="1343" d="M582 -20Q439 -20 345 23T194 146T115 334T92 575Q92 705 115 813T196 999T348 1120T588 1163Q677 1163 744 1155T860 1129T941 1086T995 1026V1260H684V1434H995V1589H1196V1434H1343V1260H1196V8L1042 -6L1020 127Q993 89 956 62T866 16T743 -11T582 -20ZM625 162Q725 162 795 184T910 255T975 383T995 575Q995 687 976 764T913 888T799 956T625 977Q526 977 463 949T362 869T310 743T295 575Q295 481 309 405T361 274T462 191T625 162Z"/><glyph unicode="Ē" horiz-adv-x="1335" d="M172 1518H1210V1319H379V883H1190V686H379V190H1219V0H172V1518ZM278 1763H1048V1593H278V1763Z"/><glyph unicode="ē" horiz-adv-x="1229" d="M651 -23Q534 -23 448 -2T299 57T196 150T133 271T101 413T92 571Q92 694 115 802T199 991T369 1118T647 1165Q764 1165 845 1140T981 1068T1065 959T1109 822T1125 664T1126 494H285Q288 443 296 397Q309 320 348 266T460 181T651 150Q720 150 773 158T868 182T946 217T1014 262L1120 123Q1075 88 1026 61T921 15T798 -13T651 -23ZM938 670Q935 715 931 756T917 832T887 897T836 946T756 978T641 989Q527 989 457 958T349 871T296 737Q291 705 287 670H938ZM225 1413H995V1243H225V1413Z"/><glyph unicode="Ė" horiz-adv-x="1335" d="M172 1518H1210V1319H379V883H1190V686H379V190H1219V0H172V1518ZM563 1841H764V1603H563V1841Z"/><glyph unicode="ė" horiz-adv-x="1229" d="M651 -23Q534 -23 448 -2T299 57T196 150T133 271T101 413T92 571Q92 694 115 802T199 991T369 1118T647 1165Q764 1165 845 1140T981 1068T1065 959T1109 822T1125 664T1126 494H285Q288 443 296 397Q309 320 348 266T460 181T651 150Q720 150 773 158T868 182T946 217T1014 262L1120 123Q1075 88 1026 61T921 15T798 -13T651 -23ZM938 670Q935 715 931 756T917 832T887 897T836 946T756 978T641 989Q527 989 457 958T349 871T296 737Q291 705 287 670H938ZM510 1491H711V1253H510V1491Z"/><glyph unicode="Ę" horiz-adv-x="1335" d="M172 1518H1210V1319H379V883H1190V686H379V190H1219V0H1053Q963 -56 918 -113T872 -219Q872 -239 876 -256T895 -287T933 -307T999 -315Q1024 -315 1049 -312T1097 -304T1141 -293T1176 -279L1225 -399Q1178 -424 1111 -439T975 -455Q895 -455 844 -440T762 -397T721 -333T709 -252Q709 -209 724 -171T762 -101T814 -43T870 0H172V1518Z"/><glyph unicode="ę" horiz-adv-x="1229" d="M651 -23Q534 -23 448 -2T299 57T196 150T133 271T101 413T92 571Q92 694 115 802T199 991T369 1118T647 1165Q764 1165 845 1140T981 1068T1065 959T1109 822T1125 664T1126 494H285Q289 416 307 353T367 244T476 175T651 150Q720 150 773 158T868 182T946 217T1014 262L1120 123Q1074 88 1026 61T922 14Q818 -43 767 -105T715 -219Q715 -239 719 -256T737 -287T776 -307T842 -315Q866 -315 891 -312T939 -304T983 -293T1018 -279L1067 -399Q1044 -411 1015 -421T954 -439T886 -451T817 -455Q737 -455 686 -440T604 -397T563 -333T551 -252Q551 -215 562 -182T591 -120T633 -67T682 -23H651ZM641 989Q543 989 478 966T373 902T313 801T287 670H938Q935 715 931 756T917 832T887 897T836 946T756 978T641 989Z"/><glyph unicode="Ě" horiz-adv-x="1335" d="M241 1941H436L665 1734L895 1941H1083L770 1605H555L241 1941ZM172 1518H1210V1319H379V883H1190V686H379V190H1219V0H172V1518Z"/><glyph unicode="ě" horiz-adv-x="1229" d="M188 1591H383L612 1384L842 1591H1030L717 1255H502L188 1591ZM651 -23Q534 -23 448 -2T299 57T196 150T133 271T101 413T92 571Q92 694 115 802T199 991T369 1118T647 1165Q764 1165 845 1140T981 1068T1065 959T1109 822T1125 664T1126 494H285Q288 443 296 397Q309 320 348 266T460 181T651 150Q720 150 773 158T868 182T946 217T1014 262L1120 123Q1075 88 1026 61T921 15T798 -13T651 -23ZM938 670Q935 715 931 756T917 832T887 897T836 946T756 978T641 989Q527 989 457 958T349 871T296 737Q291 705 287 670H938Z"/><glyph unicode="Ğ" horiz-adv-x="1604" d="M840 -23Q631 -23 487 27T254 175T124 420T84 760Q84 965 134 1113T282 1356T522 1496T850 1542Q961 1542 1049 1526T1206 1483T1327 1421T1419 1346L1272 1194Q1237 1225 1197 1252T1107 1299T993 1331T850 1343Q566 1343 429 1199T291 758Q291 607 320 495T415 309T587 199T848 162Q989 162 1080 190T1223 275T1295 416T1315 614V657H825V842H1520V651Q1520 547 1509 456T1468 291T1389 158T1264 59T1084 -2T840 -23ZM799 1583Q695 1583 625 1608T510 1679T441 1784T402 1915L549 1945Q559 1900 575 1864T619 1801T690 1761T799 1747Q863 1747 906 1761T978 1801T1023 1863T1049 1945L1199 1917Q1184 1846 1159 1785T1088 1679T973 1609T799 1583Z"/><glyph unicode="ğ" horiz-adv-x="1251" d="M604 416Q498 416 417 431Q410 422 404 412Q389 388 389 360Q389 335 399 320T435 297T504 286T616 283Q776 283 883 268T1054 218T1146 126T1174 -18Q1174 -110 1143 -175T1043 -284T865 -347T598 -367Q454 -367 352 -355T183 -312T86 -225T55 -84Q55 -36 65 9T99 91T166 155T272 195Q238 218 224 251T209 332Q209 391 234 444Q246 468 260 488Q248 496 237 505Q178 550 150 619T121 782Q121 877 148 949T235 1069T385 1141T604 1165Q639 1165 674 1162L1126 1227V1063H943Q962 1053 978 1041Q1015 1015 1039 979T1077 895T1090 782Q1090 593 973 505T604 416ZM604 -209Q716 -209 787 -197T900 -163T957 -107T973 -29Q973 16 955 44T893 87T779 109T604 115Q488 115 419 103T314 68T267 15T256 -51Q256 -96 275 -126T336 -175T444 -201T604 -209ZM604 580Q683 580 738 591T827 628T877 691T893 782Q893 892 822 938T604 985Q525 985 470 974T380 939T329 876T313 782Q313 729 329 691T379 628T469 592T604 580ZM622 1233Q518 1233 448 1258T333 1329T264 1434T225 1565L372 1595Q382 1550 398 1514T442 1451T513 1411T622 1397Q686 1397 729 1411T801 1451T846 1513T872 1595L1022 1567Q1007 1496 982 1435T911 1329T796 1259T622 1233Z"/><glyph unicode="Ģ" horiz-adv-x="1604" d="M682 -457Q718 -439 740 -424T775 -392T792 -355T797 -307H688V-80H912V-250Q912 -313 905 -357T878 -434T823 -494T731 -547L682 -457ZM840 -23Q631 -23 487 27T254 175T124 420T84 760Q84 965 134 1113T282 1356T522 1496T850 1542Q961 1542 1049 1526T1206 1483T1327 1421T1419 1346L1272 1194Q1237 1225 1197 1252T1107 1299T993 1331T850 1343Q566 1343 429 1199T291 758Q291 607 320 495T415 309T587 199T848 162Q989 162 1080 190T1223 275T1295 416T1315 614V657H825V842H1520V651Q1520 547 1509 456T1468 291T1389 158T1264 59T1084 -2T840 -23Z"/><glyph unicode="ģ" horiz-adv-x="1251" d="M512 1405Q512 1469 519 1513T546 1591T602 1651T695 1704L742 1614Q707 1596 685 1581T649 1550T632 1512T627 1462H736V1253H512V1405ZM604 416Q498 416 417 431Q410 422 404 412Q389 388 389 360Q389 335 399 320T435 297T504 286T616 283Q776 283 883 268T1054 218T1146 126T1174 -18Q1174 -110 1143 -175T1043 -284T865 -347T598 -367Q454 -367 352 -355T183 -312T86 -225T55 -84Q55 -36 65 9T99 91T166 155T272 195Q238 218 224 251T209 332Q209 391 234 444Q246 468 260 488Q248 496 237 505Q178 550 150 619T121 782Q121 877 148 949T235 1069T385 1141T604 1165Q639 1165 674 1162L1126 1227V1063H943Q962 1053 978 1041Q1015 1015 1039 979T1077 895T1090 782Q1090 593 973 505T604 416ZM604 -209Q716 -209 787 -197T900 -163T957 -107T973 -29Q973 16 955 44T893 87T779 109T604 115Q488 115 419 103T314 68T267 15T256 -51Q256 -96 275 -126T336 -175T444 -201T604 -209ZM604 580Q683 580 738 591T827 628T877 691T893 782Q893 892 822 938T604 985Q525 985 470 974T380 939T329 876T313 782Q313 729 329 691T379 628T469 592T604 580Z"/><glyph unicode="Ī" horiz-adv-x="582" d="M188 1518H393V0H188V1518ZM-89 1763H681V1593H-89V1763Z"/><glyph unicode="ī" horiz-adv-x="516" d="M160 1139H356V0H160V1139ZM-122 1413H648V1243H-122V1413Z"/><glyph unicode="Į" horiz-adv-x="582" d="M291 -455Q215 -455 165 -440T85 -397T43 -332T31 -250Q31 -205 43 -166T78 -94T128 -34T188 12V1518H393V0Q291 -60 244 -114T197 -219Q197 -238 201 -255T219 -286T255 -307T317 -315Q364 -315 404 -307T473 -287L522 -408Q480 -428 420 -441T291 -455Z"/><glyph unicode="į" horiz-adv-x="516" d="M254 -455Q178 -455 128 -440T48 -397T6 -332T-6 -250Q-6 -205 8 -166T45 -93T98 -34T160 12V1139H356V0Q254 -60 207 -114T160 -219Q160 -238 164 -255T182 -286T218 -307T281 -315Q327 -315 367 -307T436 -287L485 -408Q442 -428 383 -441T254 -455ZM158 1518H358V1276H158V1518Z"/><glyph unicode="İ" horiz-adv-x="582" d="M188 1518H393V0H188V1518ZM196 1841H397V1603H196V1841Z"/><glyph unicode="ı" horiz-adv-x="516" d="M160 1139H356V0H160V1139Z"/><glyph unicode="Ķ" horiz-adv-x="1473" d="M616 -457Q652 -439 674 -424T709 -392T726 -355T731 -307H622V-80H846V-250Q846 -313 839 -357T812 -434T757 -494T665 -547L616 -457ZM172 1518H375V721L1090 1518H1327L791 920L1401 0H1165L655 768L375 455V0H172V1518Z"/><glyph unicode="ķ" horiz-adv-x="1143" d="M450 -457Q486 -439 508 -424T543 -392T560 -355T565 -307H456V-80H680V-250Q680 -313 673 -357T646 -434T591 -494T499 -547L450 -457ZM147 1589H344V554L848 1139H1069L665 666L1110 0H889L533 521L344 306V0H147V1589Z"/><glyph unicode="Ĺ" horiz-adv-x="1219" d="M492 1941H736L373 1605H189L492 1941ZM172 1518H379V190H1169V0H172V1518Z"/><glyph unicode="ĺ" horiz-adv-x="625" d="M466 1997H710L347 1661H163L466 1997ZM416 -2Q344 -2 295 14T216 65T173 157T160 295V1589H356V317Q356 277 360 250T378 207T417 183T483 176H528V2Q514 0 484 -1T416 -2Z"/><glyph unicode="Ļ" horiz-adv-x="1219" d="M487 -457Q523 -439 545 -424T580 -392T597 -355T602 -307H493V-80H717V-250Q717 -313 710 -357T683 -434T628 -494T536 -547L487 -457ZM172 1518H379V190H1169V0H172V1518Z"/><glyph unicode="ļ" horiz-adv-x="625" d="M192 -457Q228 -439 250 -424T285 -392T302 -355T307 -307H198V-80H422V-250Q422 -313 415 -357T388 -434T333 -494T241 -547L192 -457ZM416 -2Q344 -2 295 14T216 65T173 157T160 295V1589H356V317Q356 277 360 250T378 207T417 183T483 176H528V2Q514 0 484 -1T416 -2Z"/><glyph unicode="Ľ" horiz-adv-x="1219" d="M569 1212Q604 1231 626 1246T661 1277T679 1314T684 1362H584V1589H797V1421Q797 1357 790 1313T764 1235T709 1175T616 1122L569 1212ZM172 1518H379V190H1169V0H172V1518Z"/><glyph unicode="ľ" horiz-adv-x="754" d="M518 1212Q552 1231 574 1246T610 1277T628 1314T633 1362H532V1589H745V1421Q745 1357 738 1313T712 1235T657 1175T565 1122L518 1212ZM416 -2Q344 -2 295 14T216 65T173 157T160 295V1589H356V317Q356 277 360 250T378 207T417 183T483 176H528V2Q514 0 484 -1T416 -2Z"/><glyph unicode="Ł" horiz-adv-x="1219" d="M0 776L172 872V1518H379V987L705 1169V991L379 809V190H1169V0H172V694L0 598V776Z"/><glyph unicode="ł" horiz-adv-x="752" d="M47 932L244 1046V1589H444V1162L662 1288V1116L444 990V311Q444 270 448 243T465 199T502 175T567 168H614V2Q600 0 570 -1T502 -2Q430 -2 381 14T302 65T258 155T244 291V875L47 762V932Z"/><glyph unicode="Ń" horiz-adv-x="1620" d="M936 1941H1180L817 1605H633L936 1941ZM172 1518H397L1247 348V1518H1448V0H1257L373 1214V0H172V1518Z"/><glyph unicode="ń" horiz-adv-x="1294" d="M774 1591H1018L655 1255H471L774 1591ZM147 1128L305 1139L322 1030Q342 1057 373 1081T454 1124T574 1154T741 1165Q876 1165 957 1131T1081 1035T1137 886T1151 694V0H952V655Q952 724 946 782T912 881T830 946T678 969Q573 969 508 944T408 873T360 766T348 631V0H147V1128Z"/><glyph unicode="Ņ" horiz-adv-x="1620" d="M688 -457Q724 -439 746 -424T781 -392T798 -355T803 -307H694V-80H918V-250Q918 -313 911 -357T884 -434T829 -494T737 -547L688 -457ZM172 1518H397L1247 348V1518H1448V0H1257L373 1214V0H172V1518Z"/><glyph unicode="ņ" horiz-adv-x="1294" d="M524 -457Q560 -439 582 -424T617 -392T634 -355T639 -307H530V-80H754V-250Q754 -313 747 -357T720 -434T665 -494T573 -547L524 -457ZM147 1128L305 1139L322 1030Q342 1057 373 1081T454 1124T574 1154T741 1165Q876 1165 957 1131T1081 1035T1137 886T1151 694V0H952V655Q952 724 946 782T912 881T830 946T678 969Q573 969 508 944T408 873T360 766T348 631V0H147V1128Z"/><glyph unicode="Ň" horiz-adv-x="1620" d="M383 1941H578L807 1734L1037 1941H1225L912 1605H697L383 1941ZM172 1518H397L1247 348V1518H1448V0H1257L373 1214V0H172V1518Z"/><glyph unicode="ň" horiz-adv-x="1294" d="M221 1591H416L645 1384L875 1591H1063L750 1255H535L221 1591ZM147 1128L305 1139L322 1030Q342 1057 373 1081T454 1124T574 1154T741 1165Q876 1165 957 1131T1081 1035T1137 886T1151 694V0H952V655Q952 724 946 782T912 881T830 946T678 969Q573 969 508 944T408 873T360 766T348 631V0H147V1128Z"/><glyph unicode="Ō" horiz-adv-x="1718" d="M471 1763H1241V1593H471V1763ZM858 -25Q676 -25 533 20T289 160T137 404T84 760Q84 966 136 1114T289 1357T532 1497T858 1542Q1040 1542 1183 1497T1427 1357T1579 1114T1632 760Q1632 553 1580 405T1427 161T1184 20T858 -25ZM858 168Q1006 168 1113 207T1289 321T1392 505T1425 756Q1425 897 1392 1006T1290 1191T1113 1304T858 1343Q710 1343 603 1305T427 1191T326 1007T293 756Q293 615 325 506T427 321T603 207T858 168Z"/><glyph unicode="ō" horiz-adv-x="1309" d="M266 1413H1036V1243H266V1413ZM653 -23Q502 -23 396 15T222 128T123 314T92 571Q92 717 123 828T221 1014T395 1127T653 1165Q804 1165 911 1127T1086 1014T1185 828T1217 571Q1217 425 1186 314T1087 128T912 15T653 -23ZM653 158Q754 158 823 185T934 264T995 392T1014 567Q1014 665 996 741T935 869T823 948T653 975Q552 975 484 948T373 869T312 741T293 567Q293 469 311 393T372 264T483 185T653 158Z"/><glyph unicode="Ő" horiz-adv-x="1718" d="M707 1937H940L621 1605H449L707 1937ZM1194 1937H1426L1110 1605H936L1194 1937ZM858 -25Q676 -25 533 20T289 160T137 404T84 760Q84 966 136 1114T289 1357T532 1497T858 1542Q1040 1542 1183 1497T1427 1357T1579 1114T1632 760Q1632 553 1580 405T1427 161T1184 20T858 -25ZM858 168Q1006 168 1113 207T1289 321T1392 505T1425 756Q1425 897 1392 1006T1290 1191T1113 1304T858 1343Q710 1343 603 1305T427 1191T326 1007T293 756Q293 615 325 506T427 321T603 207T858 168Z"/><glyph unicode="ő" horiz-adv-x="1309" d="M502 1587H735L416 1255H244L502 1587ZM989 1587H1221L905 1255H731L989 1587ZM653 -23Q502 -23 396 15T222 128T123 314T92 571Q92 717 123 828T221 1014T395 1127T653 1165Q804 1165 911 1127T1086 1014T1185 828T1217 571Q1217 425 1186 314T1087 128T912 15T653 -23ZM653 158Q754 158 823 185T934 264T995 392T1014 567Q1014 665 996 741T935 869T823 948T653 975Q552 975 484 948T373 869T312 741T293 567Q293 469 311 393T372 264T483 185T653 158Z"/><glyph unicode="Œ" horiz-adv-x="2583" d="M1438 1518H2458V1319H1626V879H2437V688H1626V190H2466V0H1438V201Q1425 185 1412 171Q1322 73 1184 24T858 -25T526 20T284 160T135 404T84 760Q84 966 134 1114T283 1357T526 1497T858 1542Q1046 1542 1184 1494T1412 1347Q1425 1333 1438 1317V1518ZM858 168Q1012 168 1119 207T1295 321T1394 505T1425 756Q1425 897 1394 1006T1295 1191T1120 1304T858 1343Q705 1343 598 1305T423 1191T324 1007T293 756Q293 615 324 506T422 321T597 207T858 168Z"/><glyph unicode="œ" horiz-adv-x="2150" d="M1573 -23Q1454 -23 1368 -2T1222 59T1125 153L1111 175Q1097 152 1080 132Q1016 56 912 17T653 -23T392 15T219 128T122 314T92 571Q92 717 122 828T218 1014T392 1127T653 1165Q807 1165 911 1126T1080 1010Q1098 988 1113 964Q1120 976 1128 988Q1165 1043 1224 1082T1368 1143T1569 1165Q1689 1165 1772 1140T1909 1068T1992 959T2034 822T2048 664T2048 494H1208Q1211 443 1219 397Q1232 320 1271 266T1382 181T1573 150Q1642 150 1695 158T1790 182T1867 217T1935 262L2044 123Q1998 88 1950 61T1845 15T1723 -13T1573 -23ZM653 158Q754 158 823 185T934 264T995 392T1014 567Q1014 665 996 741T935 869T823 948T653 975Q552 975 484 948T373 869T312 741T293 567Q293 469 311 393T372 264T483 185T653 158ZM1860 668Q1856 735 1847 794T1809 896T1722 964T1563 989Q1449 989 1379 958T1271 871T1219 737Q1213 704 1210 668H1860Z"/><glyph unicode="Ŕ" horiz-adv-x="1499" d="M876 1941H1120L757 1605H573L876 1941ZM172 1518H848Q992 1518 1093 1488T1258 1400T1351 1256T1380 1059Q1380 949 1351 861T1257 712T1090 617Q1054 605 1014 598L1358 0H1137L798 584H375V0H172V1518ZM846 774Q924 774 984 787T1086 831T1149 916T1171 1051Q1171 1132 1150 1185T1087 1269T983 1312T840 1325H375V774H846Z"/><glyph unicode="ŕ" horiz-adv-x="760" d="M529 1591H773L410 1255H226L529 1591ZM147 1128L305 1139L326 999Q343 1030 377 1057T460 1105T572 1138T711 1153V952Q608 951 539 926T427 854T366 743T348 600V0H147V1128Z"/><glyph unicode="Ŗ" horiz-adv-x="1499" d="M630 -457Q666 -439 688 -424T723 -392T740 -355T745 -307H636V-80H860V-250Q860 -313 853 -357T826 -434T771 -494T679 -547L630 -457ZM172 1518H848Q992 1518 1093 1488T1258 1400T1351 1256T1380 1059Q1380 949 1351 861T1257 712T1090 617Q1054 605 1014 598L1358 0H1137L798 584H375V0H172V1518ZM846 774Q924 774 984 787T1086 831T1149 916T1171 1051Q1171 1132 1150 1185T1087 1269T983 1312T840 1325H375V774H846Z"/><glyph unicode="ŗ" horiz-adv-x="760" d="M390 -457Q426 -439 448 -424T483 -392T500 -355T505 -307H396V-80H620V-250Q620 -313 613 -357T586 -434T531 -494T439 -547L390 -457ZM147 1128L305 1139L326 999Q343 1030 377 1057T460 1105T572 1138T711 1153V952Q608 951 539 926T427 854T366 743T348 600V0H147V1128Z"/><glyph unicode="Ř" horiz-adv-x="1499" d="M323 1941H518L747 1734L977 1941H1165L852 1605H637L323 1941ZM172 1518H848Q992 1518 1093 1488T1258 1400T1351 1256T1380 1059Q1380 949 1351 861T1257 712T1090 617Q1054 605 1014 598L1358 0H1137L798 584H375V0H172V1518ZM846 774Q924 774 984 787T1086 831T1149 916T1171 1051Q1171 1132 1150 1185T1087 1269T983 1312T840 1325H375V774H846Z"/><glyph unicode="ř" horiz-adv-x="743" d="M-46 1591H149L378 1384L608 1591H796L483 1255H268L-46 1591ZM147 1128L305 1139L326 999Q343 1030 377 1057T460 1105T572 1138T711 1153V952Q608 951 539 926T427 854T366 743T348 600V0H147V1128Z"/><glyph unicode="Ś" horiz-adv-x="1460" d="M858 1941H1102L739 1605H555L858 1941ZM727 -20Q540 -20 378 22T74 160L178 319Q311 233 446 198T721 162Q837 162 918 177T1050 225T1124 307T1147 426Q1147 496 1117 540T1032 611T897 655T719 688Q588 709 484 735T306 807T194 927T154 1120Q154 1234 189 1314T296 1445T474 1519T723 1542Q819 1542 900 1532T1050 1503T1174 1459T1276 1403L1163 1233Q1124 1259 1075 1281T968 1318T849 1343T723 1352Q625 1352 556 1339T442 1298T378 1227T358 1124Q358 1059 385 1019T465 952T595 908T770 874Q855 860 931 845T1072 809T1188 757T1276 684T1332 579T1352 436Q1352 322 1316 237T1204 94T1010 9T727 -20Z"/><glyph unicode="ś" horiz-adv-x="1098" d="M937 1591H1181L818 1255H634L937 1591ZM543 -20Q482 -20 420 -14T294 8T170 48T51 113L154 268Q253 205 357 180T555 154Q628 154 680 161T765 186T813 237T829 322Q829 362 815 388T768 432T684 462T555 487Q454 505 372 526T232 584T141 681T109 840Q109 918 133 978T210 1080T348 1143T555 1165Q688 1165 798 1139T989 1065L895 901Q830 936 745 958T559 981Q484 981 436 972T359 944T319 899T307 840Q307 800 321 774T365 729T444 699T563 674Q668 655 753 635T898 579T990 485T1022 330Q1022 232 995 166T909 58T760 -2T543 -20Z"/><glyph unicode="Ş" horiz-adv-x="1460" d="M727 -20Q540 -20 378 22T74 160L178 319Q311 233 446 198T721 162Q837 162 918 177T1050 225T1124 307T1147 426Q1147 496 1117 540T1032 611T897 655T719 688Q588 709 484 735T306 807T194 927T154 1120Q154 1234 189 1314T296 1445T474 1519T723 1542Q819 1542 900 1532T1050 1503T1174 1459T1276 1403L1163 1233Q1124 1259 1075 1281T968 1318T849 1343T723 1352Q625 1352 556 1339T442 1298T378 1227T358 1124Q358 1059 385 1019T465 952T595 908T770 874Q855 860 931 845T1072 809T1188 757T1276 684T1332 579T1352 436Q1352 322 1316 237T1204 94T1010 9T727 -20ZM739 -475Q661 -475 601 -459T492 -414L547 -309Q589 -331 635 -343T731 -356Q779 -356 809 -349T856 -328T879 -296T885 -256Q885 -201 842 -183T696 -170L647 -135L676 14H797L778 -90Q825 -88 869 -92T947 -114T1001 -168T1022 -268Q1022 -318 1006 -356T956 -421T868 -461T739 -475Z"/><glyph unicode="ş" horiz-adv-x="1098" d="M543 -20Q482 -20 420 -14T294 8T170 48T51 113L154 268Q253 205 357 180T555 154Q628 154 680 161T765 186T813 237T829 322Q829 362 815 388T768 432T684 462T555 487Q454 505 372 526T232 584T141 681T109 840Q109 918 133 978T210 1080T348 1143T555 1165Q688 1165 798 1139T989 1065L895 901Q830 936 745 958T559 981Q484 981 436 972T359 944T319 899T307 840Q307 800 321 774T365 729T444 699T563 674Q668 655 753 635T898 579T990 485T1022 330Q1022 232 995 166T909 58T760 -2T543 -20ZM818 -475Q740 -475 680 -459T571 -414L626 -309Q668 -331 714 -343T810 -356Q858 -356 888 -349T935 -328T958 -296T964 -256Q964 -201 921 -183T775 -170L726 -135L755 14H876L857 -90Q904 -88 948 -92T1026 -114T1080 -168T1101 -268Q1101 -318 1085 -356T1035 -421T947 -461T818 -475Z"/><glyph unicode="Š" horiz-adv-x="1460" d="M305 1941H500L729 1734L959 1941H1147L834 1605H619L305 1941ZM727 -20Q540 -20 378 22T74 160L178 319Q311 233 446 198T721 162Q837 162 918 177T1050 225T1124 307T1147 426Q1147 496 1117 540T1032 611T897 655T719 688Q588 709 484 735T306 807T194 927T154 1120Q154 1234 189 1314T296 1445T474 1519T723 1542Q819 1542 900 1532T1050 1503T1174 1459T1276 1403L1163 1233Q1124 1259 1075 1281T968 1318T849 1343T723 1352Q625 1352 556 1339T442 1298T378 1227T358 1124Q358 1059 385 1019T465 952T595 908T770 874Q855 860 931 845T1072 809T1188 757T1276 684T1332 579T1352 436Q1352 322 1316 237T1204 94T1010 9T727 -20Z"/><glyph unicode="š" horiz-adv-x="1098" d="M384 1591H579L808 1384L1038 1591H1226L913 1255H698L384 1591ZM543 -20Q482 -20 420 -14T294 8T170 48T51 113L154 268Q253 205 357 180T555 154Q628 154 680 161T765 186T813 237T829 322Q829 362 815 388T768 432T684 462T555 487Q454 505 372 526T232 584T141 681T109 840Q109 918 133 978T210 1080T348 1143T555 1165Q688 1165 798 1139T989 1065L895 901Q830 936 745 958T559 981Q484 981 436 972T359 944T319 899T307 840Q307 800 321 774T365 729T444 699T563 674Q668 655 753 635T898 579T990 485T1022 330Q1022 232 995 166T909 58T760 -2T543 -20Z"/><glyph unicode="Ţ" horiz-adv-x="1419" d="M590 -457Q626 -439 648 -424T683 -392T700 -355T705 -307H596V-80H820V-250Q820 -313 813 -357T786 -434T731 -494T639 -547L590 -457ZM606 1319H49V1518H1372V1319H815V0H606V1319Z"/><glyph unicode="ţ" horiz-adv-x="856" d="M252 -457Q288 -439 310 -424T345 -392T362 -355T367 -307H258V-80H482V-250Q482 -313 475 -357T448 -434T393 -494T301 -547L252 -457ZM59 1139H266L301 1462L459 1493V1139H760V958H459V338Q459 300 463 270T483 219T533 187T623 176H760V0Q751 -1 727 -1T676 -2H588Q486 -2 422 17T322 75T273 173T260 311V958H59V1139Z"/><glyph unicode="Ť" horiz-adv-x="1419" d="M284 1941H479L708 1734L938 1941H1126L813 1605H598L284 1941ZM606 1319H49V1518H1372V1319H815V0H606V1319Z"/><glyph unicode="ť" horiz-adv-x="856" d="M612 1413Q646 1431 667 1446T702 1477T720 1514T725 1563H629V1780H834V1616Q834 1554 827 1511T801 1435T748 1377T659 1325L612 1413ZM59 1139H266L301 1462L459 1493V1139H760V958H459V338Q459 300 463 270T483 219T533 187T623 176H760V0Q751 -1 727 -1T676 -2H588Q486 -2 422 17T322 75T273 173T260 311V958H59V1139Z"/><glyph unicode="Ū" horiz-adv-x="1614" d="M805 -27Q664 -27 562 -5T388 58T272 154T204 273T171 410T162 557V1518H369V582Q369 489 386 413T452 282T585 198T807 168Q943 168 1030 197T1166 280T1234 410T1253 582V1518H1454V557Q1454 482 1445 410T1411 273T1341 153T1224 58T1049 -4T805 -27ZM418 1763H1188V1593H418V1763Z"/><glyph unicode="ū" horiz-adv-x="1280" d="M643 -20Q534 -20 454 -6T318 38T228 110T174 209T148 335T141 487V1139H340V483Q340 415 345 357T378 255T468 187T643 162Q719 162 770 173T855 205T907 255T933 321T942 400T944 489V1139H1139V494Q1139 410 1133 340T1108 212T1055 111T966 39T832 -5T643 -20ZM252 1413H1022V1243H252V1413Z"/><glyph unicode="Ů" horiz-adv-x="1614" d="M803 1581Q735 1581 686 1601T606 1657T560 1741T545 1845Q545 1902 559 1951T605 2036T686 2092T803 2113Q868 2113 916 2093T996 2036T1043 1951T1059 1845Q1059 1789 1044 1741T997 1658T917 1602T803 1581ZM803 1691Q842 1691 869 1703T914 1736T940 1785T949 1845Q949 1877 941 1905T915 1954T870 1987T803 1999Q763 1999 735 1987T690 1954T664 1905T656 1845Q656 1813 664 1785T689 1736T735 1703T803 1691ZM805 -27Q664 -27 562 -5T388 58T272 154T204 273T171 410T162 557V1518H369V582Q369 489 386 413T452 282T585 198T807 168Q943 168 1030 197T1166 280T1234 410T1253 582V1518H1454V557Q1454 482 1445 410T1411 273T1341 153T1224 58T1049 -4T805 -27Z"/><glyph unicode="ů" horiz-adv-x="1280" d="M637 1231Q569 1231 520 1251T440 1307T394 1391T379 1495Q379 1552 393 1601T439 1686T520 1742T637 1763Q702 1763 750 1743T830 1686T877 1601T893 1495Q893 1439 878 1391T831 1308T751 1252T637 1231ZM637 1341Q676 1341 703 1353T748 1386T774 1435T783 1495Q783 1527 775 1555T749 1604T704 1637T637 1649Q597 1649 569 1637T524 1604T498 1555T490 1495Q490 1463 498 1435T523 1386T569 1353T637 1341ZM643 -20Q534 -20 454 -6T318 38T228 110T174 209T148 335T141 487V1139H340V483Q340 415 345 357T378 255T468 187T643 162Q719 162 770 173T855 205T907 255T933 321T942 400T944 489V1139H1139V494Q1139 410 1133 340T1108 212T1055 111T966 39T832 -5T643 -20Z"/><glyph unicode="Ű" horiz-adv-x="1614" d="M805 -27Q664 -27 562 -5T388 58T272 154T204 273T171 410T162 557V1518H369V582Q369 489 386 413T452 282T585 198T807 168Q943 168 1030 197T1166 280T1234 410T1253 582V1518H1454V557Q1454 482 1445 410T1411 273T1341 153T1224 58T1049 -4T805 -27ZM654 1937H887L568 1605H396L654 1937ZM1141 1937H1373L1057 1605H883L1141 1937Z"/><glyph unicode="ű" horiz-adv-x="1280" d="M643 -20Q534 -20 454 -6T318 38T228 110T174 209T148 335T141 487V1139H340V483Q340 415 345 357T378 255T468 187T643 162Q719 162 770 173T855 205T907 255T933 321T942 400T944 489V1139H1139V494Q1139 410 1133 340T1108 212T1055 111T966 39T832 -5T643 -20ZM488 1587H721L402 1255H230L488 1587ZM975 1587H1207L891 1255H717L975 1587Z"/><glyph unicode="Ų" horiz-adv-x="1614" d="M860 -455Q780 -455 729 -440T647 -397T606 -333T594 -252Q594 -215 605 -182T634 -121T675 -68T723 -25Q600 -18 511 8T359 75T258 170T198 286T170 417T162 557V1518H369V582Q369 489 386 413T452 282T585 198T807 168Q943 168 1030 197T1166 280T1234 410T1253 582V1518H1454V557Q1454 487 1446 419T1417 289T1357 174T1257 79T1109 12T903 -23Q831 -74 795 -125T758 -219Q758 -239 762 -256T780 -287T819 -307T885 -315Q909 -315 934 -312T982 -304T1026 -293T1061 -279L1110 -399Q1087 -411 1058 -421T997 -439T929 -451T860 -455Z"/><glyph unicode="ų" horiz-adv-x="1280" d="M694 -455Q614 -455 563 -440T481 -397T440 -333T428 -252Q428 -214 439 -180T470 -117T513 -63T563 -18Q426 -11 343 25T215 126T156 280T141 487V1139H340V483Q340 415 345 357T378 255T468 187T643 162Q719 162 770 173T855 205T907 255T933 321T942 400T944 489V1139H1139V494Q1139 378 1126 288T1072 134T953 32T748 -16Q670 -69 631 -121T592 -219Q592 -239 596 -256T614 -287T653 -307T719 -315Q743 -315 768 -312T816 -304T860 -293T895 -279L944 -399Q921 -411 892 -421T831 -439T763 -451T694 -455Z"/><glyph unicode="Ÿ" horiz-adv-x="1466" d="M20 1518H246L735 762L1229 1518H1444L836 579V0H631V574L20 1518ZM418 1841H600V1612H418V1841ZM860 1841H1040V1612H860V1841Z"/><glyph unicode="Ź" horiz-adv-x="1376" d="M817 1941H1061L698 1605H514L817 1941ZM86 164L1004 1319H121V1518H1264V1337L350 190H1286V0H86V164Z"/><glyph unicode="ź" horiz-adv-x="1049" d="M916 1591H1160L797 1255H613L916 1591ZM61 145L711 958H94V1139H971V989L319 170H993V0H61V145Z"/><glyph unicode="Ż" horiz-adv-x="1376" d="M86 164L1004 1319H121V1518H1264V1337L350 190H1286V0H86V164ZM586 1841H787V1603H586V1841Z"/><glyph unicode="ż" horiz-adv-x="1049" d="M61 145L711 958H94V1139H971V989L319 170H993V0H61V145ZM685 1491H886V1253H685V1491Z"/><glyph unicode="Ž" horiz-adv-x="1376" d="M264 1941H459L688 1734L918 1941H1106L793 1605H578L264 1941ZM86 164L1004 1319H121V1518H1264V1337L350 190H1286V0H86V164Z"/><glyph unicode="ž" horiz-adv-x="1049" d="M363 1591H558L787 1384L1017 1591H1205L892 1255H677L363 1591ZM61 145L711 958H94V1139H971V989L319 170H993V0H61V145Z"/><glyph unicode="ƒ" horiz-adv-x="1133" d="M178 930H432L487 1186Q502 1256 522 1317T585 1422T699 1492T885 1518H965V1329H895Q831 1329 792 1314T730 1271T695 1206T674 1126L632 930H965V750H594L362 -340H162L394 750H178V930Z"/><glyph unicode="Ș" horiz-adv-x="1460" d="M608 -457Q644 -439 666 -424T701 -392T718 -355T723 -307H614V-80H838V-250Q838 -313 831 -357T804 -434T749 -494T657 -547L608 -457ZM727 -20Q540 -20 378 22T74 160L178 319Q311 233 446 198T721 162Q837 162 918 177T1050 225T1124 307T1147 426Q1147 496 1117 540T1032 611T897 655T719 688Q588 709 484 735T306 807T194 927T154 1120Q154 1234 189 1314T296 1445T474 1519T723 1542Q819 1542 900 1532T1050 1503T1174 1459T1276 1403L1163 1233Q1124 1259 1075 1281T968 1318T849 1343T723 1352Q625 1352 556 1339T442 1298T378 1227T358 1124Q358 1059 385 1019T465 952T595 908T770 874Q855 860 931 845T1072 809T1188 757T1276 684T1332 579T1352 436Q1352 322 1316 237T1204 94T1010 9T727 -20Z"/><glyph unicode="ș" horiz-adv-x="1098" d="M426 -457Q462 -439 484 -424T519 -392T536 -355T541 -307H432V-80H656V-250Q656 -313 649 -357T622 -434T567 -494T475 -547L426 -457ZM543 -20Q482 -20 420 -14T294 8T170 48T51 113L154 268Q253 205 357 180T555 154Q628 154 680 161T765 186T813 237T829 322Q829 362 815 388T768 432T684 462T555 487Q454 505 372 526T232 584T141 681T109 840Q109 918 133 978T210 1080T348 1143T555 1165Q688 1165 798 1139T989 1065L895 901Q830 936 745 958T559 981Q484 981 436 972T359 944T319 899T307 840Q307 800 321 774T365 729T444 699T563 674Q668 655 753 635T898 579T990 485T1022 330Q1022 232 995 166T909 58T760 -2T543 -20Z"/><glyph unicode="Ț" horiz-adv-x="1419" d="M590 -457Q626 -439 648 -424T683 -392T700 -355T705 -307H596V-80H820V-250Q820 -313 813 -357T786 -434T731 -494T639 -547L590 -457ZM606 1319H49V1518H1372V1319H815V0H606V1319Z"/><glyph unicode="ț" horiz-adv-x="856" d="M252 -457Q288 -439 310 -424T345 -392T362 -355T367 -307H258V-80H482V-250Q482 -313 475 -357T448 -434T393 -494T301 -547L252 -457ZM59 1139H266L301 1462L459 1493V1139H760V958H459V338Q459 300 463 270T483 219T533 187T623 176H760V0Q751 -1 727 -1T676 -2H588Q486 -2 422 17T322 75T273 173T260 311V958H59V1139Z"/><glyph unicode="ˆ" horiz-adv-x="1208" d="M496 1591H711L1024 1255H831L600 1462L373 1255H182L496 1591Z"/><glyph unicode="ˇ" horiz-adv-x="1208" d="M182 1591H377L606 1384L836 1591H1024L711 1255H496L182 1591Z"/><glyph unicode="˘" horiz-adv-x="1208" d="M604 1233Q500 1233 430 1258T315 1329T246 1434T207 1565L354 1595Q364 1550 380 1514T424 1451T495 1411T604 1397Q668 1397 711 1411T783 1451T828 1513T854 1595L1004 1567Q989 1496 964 1435T893 1329T778 1259T604 1233Z"/><glyph unicode="˙" horiz-adv-x="1208" d="M504 1491H705V1253H504V1491Z"/><glyph unicode="˚" horiz-adv-x="1208" d="M604 1231Q536 1231 487 1251T407 1307T361 1391T346 1495Q346 1552 360 1601T406 1686T487 1742T604 1763Q669 1763 717 1743T797 1686T844 1601T860 1495Q860 1439 845 1391T798 1308T718 1252T604 1231ZM604 1341Q643 1341 670 1353T715 1386T741 1435T750 1495Q750 1527 742 1555T716 1604T671 1637T604 1649Q564 1649 536 1637T491 1604T465 1555T457 1495Q457 1463 465 1435T490 1386T536 1353T604 1341Z"/><glyph unicode="˛" horiz-adv-x="1208" d="M625 -455Q545 -455 494 -440T412 -397T370 -333T358 -252Q358 -204 377 -162T424 -86T486 -26T549 16H731Q628 -42 575 -105T522 -219Q522 -239 526 -256T545 -287T583 -307T649 -315Q674 -315 699 -312T747 -304T790 -293T825 -279L874 -399Q828 -424 761 -439T625 -455Z"/><glyph unicode="˜" horiz-adv-x="1208" d="M184 1356Q214 1393 247 1424T315 1477T386 1513T459 1526Q512 1526 549 1510T616 1475T676 1439T743 1423Q782 1423 823 1454T907 1536L1024 1442Q994 1404 961 1371T893 1312T822 1272T748 1257Q700 1257 664 1273T595 1308T531 1344T463 1360Q428 1360 387 1335T307 1260L184 1356Z"/><glyph unicode="˝" horiz-adv-x="1208" d="M455 1587H688L369 1255H197L455 1587ZM942 1587H1174L858 1255H684L942 1587Z"/><glyph unicode="̄" horiz-adv-x="1208" d="M219 1413H989V1243H219V1413Z"/><glyph unicode="̦" horiz-adv-x="518" d="M141 -457Q177 -439 199 -424T234 -392T251 -355T256 -307H147V-80H371V-250Q371 -313 364 -357T337 -434T282 -494T190 -547L141 -457Z"/><glyph unicode="Δ" horiz-adv-x="1536" d="M76 0L652 1536H884L1456 0H76ZM352 148H1164L752 1256L352 148Z"/><glyph unicode="Ω" horiz-adv-x="1664" d="M832 1376Q644 1376 510 1234T376 836Q376 592 464 432T724 180V0H88V196H536Q416 240 304 406T192 848Q192 1112 358 1330T832 1548Q1140 1548 1306 1338T1472 848Q1472 572 1360 406T1128 196H1576V0H940V180Q1112 272 1200 432T1288 836Q1288 1044 1162 1210T832 1376Z"/><glyph unicode="μ" horiz-adv-x="1288" d="M147 1139H348V483Q348 438 349 397T359 320T386 255T437 206T523 174T651 162Q727 162 778 173T863 205T914 255T940 321T949 400T950 489V1139H1147V494Q1147 410 1141 340T1117 212T1065 111T979 39T848 -5T664 -20Q596 -20 544 -14T454 5T390 35T348 76V-338H147V1139Z"/><glyph unicode="π" horiz-adv-x="1408" d="M296 0V1028H12V1176H1316V1028H996V344Q996 228 1042 184T1152 140Q1200 140 1232 142T1296 156V28Q1248 4 1206 -6T1088 -16Q960 -16 886 64T812 336V1028H484V0H296Z"/><glyph unicode="Ё" horiz-adv-x="1335" d="M352 1839H534V1610H352V1839ZM794 1839H974V1610H794V1839ZM172 1518H1210V1319H379V883H1190V686H379V190H1219V0H172V1518Z"/><glyph unicode="Ђ" horiz-adv-x="1784" d="M1255 -180H1272Q1317 -179 1344 -171T1386 -144T1404 -93T1409 -12V596Q1409 665 1403 722T1371 820T1291 884T1141 907Q1037 907 973 883T874 816T827 713T815 582V0H606V1319H49V1518H1372V1319H815V977Q831 1003 860 1026T935 1067T1048 1095T1204 1106Q1339 1106 1420 1072T1546 975T1604 826T1618 633V-10Q1618 -106 1603 -170T1551 -273T1451 -328T1292 -344H1255V-180Z"/><glyph unicode="Ѓ" horiz-adv-x="1221" d="M737 1939H981L618 1603H434L737 1939ZM172 1518H1171V1319H379V0H172V1518Z"/><glyph unicode="Є" horiz-adv-x="1497" d="M840 -23Q648 -23 506 27T270 177T130 422T84 760Q84 960 136 1107T287 1351T526 1495T840 1542Q1013 1542 1155 1493T1399 1343L1257 1194Q1179 1266 1075 1304T850 1343Q578 1343 432 1196Q317 1080 293 872H1182V680H289Q306 450 426 321Q565 172 840 172Q924 172 989 184T1106 218T1198 269T1274 330L1409 186Q1368 145 1316 108T1196 41T1040 -5T840 -23Z"/><glyph unicode="Ѕ" horiz-adv-x="1460" d="M727 -20Q540 -20 378 22T74 160L178 319Q311 233 446 198T721 162Q837 162 918 177T1050 225T1124 307T1147 426Q1147 496 1117 540T1032 611T897 655T719 688Q588 709 484 735T306 807T194 927T154 1120Q154 1234 189 1314T296 1445T474 1519T723 1542Q819 1542 900 1532T1050 1503T1174 1459T1276 1403L1163 1233Q1124 1259 1075 1281T968 1318T849 1343T723 1352Q625 1352 556 1339T442 1298T378 1227T358 1124Q358 1059 385 1019T465 952T595 908T770 874Q855 860 931 845T1072 809T1188 757T1276 684T1332 579T1352 436Q1352 322 1316 237T1204 94T1010 9T727 -20Z"/><glyph unicode="І" horiz-adv-x="582" d="M188 1518H393V0H188V1518Z"/><glyph unicode="Ї" horiz-adv-x="582" d="M188 1518H393V0H188V1518ZM-15 1839H167V1610H-15V1839ZM427 1839H607V1610H427V1839Z"/><glyph unicode="Ј" horiz-adv-x="848" d="M229 -2H132Q114 -2 97 -2T57 0V190H207Q283 190 335 205T420 252T466 333T481 451V1518H686V442Q686 318 656 233T568 96T424 21T229 -2Z"/><glyph unicode="Љ" horiz-adv-x="2619" d="M90 190H135Q177 190 201 197T239 220T256 264T260 330V1518H1518V948H1995Q2139 948 2241 920T2409 835T2505 691T2535 487Q2535 370 2505 279T2410 126T2241 32T1991 0H1315V1323H469V295Q469 214 455 157T408 65T326 14T203 -2Q191 -2 174 -2T140 -1T108 0T90 2V190ZM1999 184Q2080 184 2141 199T2244 248T2307 339T2329 477Q2329 560 2308 615T2245 702T2140 748T1993 762H1518V184H1999Z"/><glyph unicode="Њ" horiz-adv-x="2535" d="M172 1518H379V891H1233V1518H1436V948H1913Q2057 948 2159 920T2326 835T2421 691T2451 487Q2451 370 2422 279T2327 126T2158 32T1907 0H1233V686H379V0H172V1518ZM1915 184Q1996 184 2058 199T2161 248T2224 339T2245 477Q2245 560 2225 615T2162 702T2057 748T1909 762H1436V184H1915Z"/><glyph unicode="Ћ" horiz-adv-x="1784" d="M606 1319H49V1518H1372V1319H815V977Q831 1003 860 1026T935 1067T1048 1095T1204 1106Q1339 1106 1420 1072T1546 975T1604 826T1618 633V0H1409V596Q1409 665 1403 722T1371 820T1291 884T1141 907Q1037 907 973 883T874 816T827 713T815 582V0H606V1319Z"/><glyph unicode="Ќ" horiz-adv-x="1473" d="M864 1939H1108L745 1603H561L864 1939ZM172 1518H375V721L1090 1518H1327L791 920L1401 0H1165L655 768L375 455V0H172V1518Z"/><glyph unicode="Ў" horiz-adv-x="1434" d="M45 1518H266L751 577L1200 1518H1409L782 248Q749 181 719 134T650 56T562 12T438 -2H364Q345 -2 328 -2T301 0V184H406Q447 184 475 188T523 205T558 239T588 295L632 388L45 1518ZM713 1581Q609 1581 539 1606T424 1677T355 1782T316 1913L463 1943Q473 1898 489 1862T533 1799T604 1759T713 1745Q777 1745 820 1759T892 1799T937 1861T963 1943L1113 1915Q1098 1844 1073 1783T1002 1677T887 1607T713 1581Z"/><glyph unicode="Џ" horiz-adv-x="1604" d="M698 0H172V1518H379V186H1227V1518H1432V0H905V-340H698V0Z"/><glyph unicode="А" horiz-adv-x="1520" d="M653 1528H864L1473 0H1260L1135 319H377L252 0H45L653 1528ZM1061 510L754 1280L446 510H1061Z"/><glyph unicode="Б" horiz-adv-x="1483" d="M172 1518H1204V1319H369V918H854Q998 918 1099 892T1266 812T1361 674T1391 473Q1391 356 1362 267T1267 119T1099 30T848 0H172V1518ZM854 182Q935 182 997 195T1100 240T1163 327T1184 463Q1184 546 1164 598T1102 681T997 722T850 733H369V182H854Z"/><glyph unicode="В" horiz-adv-x="1468" d="M172 1518H842Q975 1518 1071 1496T1229 1427T1320 1310T1350 1143Q1350 1077 1340 1021T1306 920T1247 845T1159 797Q1223 781 1267 750T1338 673T1377 563T1389 420Q1389 301 1354 221T1248 92T1072 21T829 0H172V1518ZM852 186Q1021 186 1100 244T1180 438Q1180 568 1101 626T848 684H375V186H852ZM848 877Q935 877 991 894T1081 942T1127 1017T1141 1114Q1141 1167 1125 1207T1074 1274T983 1315T848 1329H375V877H848Z"/><glyph unicode="Г" horiz-adv-x="1221" d="M172 1518H1171V1319H379V0H172V1518Z"/><glyph unicode="Д" horiz-adv-x="1794" d="M94 190H145Q186 190 211 197T249 220T267 264T272 330V1518H1530V190H1700V-340H1491V0H301V-340H94V190ZM1321 184V1323H475V322Q475 278 470 243T436 184H1321Z"/><glyph unicode="Е" horiz-adv-x="1335" d="M172 1518H1210V1319H379V883H1190V686H379V190H1219V0H172V1518Z"/><glyph unicode="Ж" horiz-adv-x="2392" d="M305 0H72L681 919L145 1518H377L1098 713V1518H1294V715L2015 1518H2247L1711 920L2320 0H2087L1576 769L1294 454V0H1098V454L816 769L305 0Z"/><glyph unicode="З" horiz-adv-x="1384" d="M686 -25Q494 -25 337 9T47 123L145 297Q267 231 402 200T680 168Q791 168 869 179T998 221T1072 306T1096 446Q1096 515 1079 565T1013 649T876 698T645 715H311V905H641Q755 905 833 917T960 956T1031 1029T1053 1141Q1053 1203 1031 1243T963 1306T846 1339T676 1348Q617 1348 551 1341T420 1320T296 1286T193 1241L86 1409Q140 1442 212 1467T365 1508T529 1533T690 1542Q825 1542 931 1524T1110 1464T1223 1354T1262 1184Q1262 1106 1251 1050T1216 953T1154 885T1059 836Q1130 813 1177 781T1252 703T1291 591T1303 434Q1303 300 1259 212T1135 71T940 -3T686 -25Z"/><glyph unicode="И" horiz-adv-x="1620" d="M172 1518H369V360L1223 1518H1448V0H1251V1204L360 0H172V1518Z"/><glyph unicode="Й" horiz-adv-x="1620" d="M172 1518H369V360L1223 1518H1448V0H1251V1204L360 0H172V1518ZM805 1581Q701 1581 631 1606T516 1677T447 1782T408 1913L555 1943Q565 1898 581 1862T625 1799T696 1759T805 1745Q869 1745 912 1759T984 1799T1029 1861T1055 1943L1205 1915Q1190 1844 1165 1783T1094 1677T979 1607T805 1581Z"/><glyph unicode="К" horiz-adv-x="1473" d="M172 1518H375V721L1090 1518H1327L791 920L1401 0H1165L655 768L375 455V0H172V1518Z"/><glyph unicode="Л" horiz-adv-x="1702" d="M94 190H141Q183 190 207 197T245 220T262 264T266 330V1518H1530V0H1321V1323H473V295Q473 214 459 157T413 65T331 14T209 -2Q197 -2 180 -2T146 -1T114 0T94 2V190Z"/><glyph unicode="М" horiz-adv-x="1907" d="M172 1518H442L954 291L1468 1518H1735V0H1532V1171L1036 0H864L371 1169V0H172V1518Z"/><glyph unicode="Н" horiz-adv-x="1612" d="M172 1518H379V891H1233V1518H1440V0H1233V686H379V0H172V1518Z"/><glyph unicode="О" horiz-adv-x="1718" d="M858 -25Q676 -25 533 20T289 160T137 404T84 760Q84 966 136 1114T289 1357T532 1497T858 1542Q1040 1542 1183 1497T1427 1357T1579 1114T1632 760Q1632 553 1580 405T1427 161T1184 20T858 -25ZM858 168Q1006 168 1113 207T1289 321T1392 505T1425 756Q1425 897 1392 1006T1290 1191T1113 1304T858 1343Q710 1343 603 1305T427 1191T326 1007T293 756Q293 615 325 506T427 321T603 207T858 168Z"/><glyph unicode="П" horiz-adv-x="1604" d="M172 1518H1432V0H1225V1323H375V0H172V1518Z"/><glyph unicode="Р" horiz-adv-x="1475" d="M172 1518H854Q998 1518 1099 1489T1266 1400T1361 1254T1391 1049Q1391 931 1362 839T1267 682T1099 583T848 549H375V0H172V1518ZM854 741Q935 741 997 756T1100 807T1163 899T1184 1038Q1184 1122 1164 1177T1102 1265T997 1311T850 1325H375V741H854Z"/><glyph unicode="С" horiz-adv-x="1497" d="M842 -23Q644 -23 501 27T266 177T129 422T84 760Q84 960 135 1107T285 1351T526 1495T852 1542Q1026 1542 1162 1493T1401 1343L1251 1194Q1173 1266 1074 1304T850 1343Q293 1343 293 758Q293 614 325 505T426 321T600 210T852 172Q934 172 996 184T1106 218T1192 267T1264 328L1411 186Q1370 145 1320 108T1201 41T1045 -5T842 -23Z"/><glyph unicode="Т" horiz-adv-x="1419" d="M606 1319H49V1518H1372V1319H815V0H606V1319Z"/><glyph unicode="У" horiz-adv-x="1434" d="M45 1518H266L751 577L1200 1518H1409L782 248Q749 181 719 134T650 56T562 12T438 -2H364Q345 -2 328 -2T301 0V184H406Q447 184 475 188T523 205T558 239T588 295L632 388L45 1518Z"/><glyph unicode="Ф" horiz-adv-x="2173" d="M987 246H629Q471 246 367 286T199 399T110 570T84 786Q84 904 110 1000T200 1165T366 1271T625 1309H987V1518H1186V1309H1550Q1705 1309 1808 1272T1974 1168T2063 1004T2089 791Q2089 674 2063 574T1975 402T1808 288T1546 246H1186V0H987V246ZM987 434V1122H629Q537 1122 473 1100T369 1035T311 929T293 782Q293 700 311 636T368 526T470 458T621 434H987ZM1554 434Q1641 434 1703 457T1804 526T1861 635T1880 782Q1880 865 1862 928T1805 1035T1701 1100T1546 1122H1186V434H1554Z"/><glyph unicode="Х" horiz-adv-x="1491" d="M125 1518H354L752 950L1139 1518H1368L861 795L1419 0H1186L739 640L303 0H74L630 795L125 1518Z"/><glyph unicode="Ц" horiz-adv-x="1700" d="M1397 0H172V1518H379V186H1227V1518H1432V190H1606V-340H1397V0Z"/><glyph unicode="Ч" horiz-adv-x="1526" d="M1147 623Q1131 593 1093 563T994 509T846 470T647 455Q538 455 457 471T319 517T224 589T165 685T135 802T127 936V1518H332V977Q332 902 345 843T399 742T514 678T711 655Q845 655 930 681T1063 754T1129 864T1147 1001V1518H1354V0H1147V623Z"/><glyph unicode="Ш" horiz-adv-x="2421" d="M172 1530H379V186H1108V1530H1315V186H2044V1530H2249V0H172V1530Z"/><glyph unicode="Щ" horiz-adv-x="2515" d="M2214 0H172V1530H379V186H1108V1530H1315V186H2044V1530H2249V190H2421V-340H2214V0Z"/><glyph unicode="Ъ" horiz-adv-x="1554" d="M252 1319H80V1518H455V948H934Q1078 948 1179 920T1345 835T1440 691T1470 487Q1470 370 1441 279T1347 126T1179 32T928 0H252V1319ZM934 184Q1015 184 1077 199T1180 248T1243 339T1264 477Q1264 560 1244 615T1182 702T1077 748T930 762H455V184H934Z"/><glyph unicode="Ы" horiz-adv-x="1911" d="M172 1518H375V948H854Q998 948 1099 920T1266 835T1361 691T1391 487Q1391 370 1362 279T1267 126T1099 32T848 0H172V1518ZM854 184Q935 184 997 199T1100 248T1163 339T1184 477Q1184 560 1164 615T1102 702T997 748T850 762H375V184H854ZM1534 1518H1741V0H1534V1518Z"/><glyph unicode="Ь" horiz-adv-x="1475" d="M172 1518H375V948H854Q998 948 1099 920T1266 835T1361 691T1391 487Q1391 370 1362 279T1267 126T1099 32T848 0H172V1518ZM854 184Q935 184 997 199T1100 248T1163 339T1184 477Q1184 560 1164 615T1102 702T997 748T850 762H375V184H854Z"/><glyph unicode="Э" horiz-adv-x="1497" d="M311 680V872H1199Q1176 1080 1062 1196Q918 1343 647 1343Q525 1343 421 1305T238 1194L96 1343Q199 1443 340 1492T655 1542Q829 1542 969 1495T1207 1352T1358 1108T1411 760Q1411 569 1365 423T1225 177T989 28T655 -23Q543 -23 456 -6T300 41T180 107T86 186L223 330Q257 298 297 269T389 219T506 185T655 172Q932 172 1069 321Q1186 450 1203 680H311Z"/><glyph unicode="Ю" horiz-adv-x="2271" d="M172 1518H379V877H651Q662 1010 698 1114Q749 1262 847 1357T1087 1497T1411 1542Q1593 1542 1737 1497T1981 1357T2134 1114T2187 760Q2187 553 2134 405T1981 161T1737 20T1411 -25T1087 20T847 160T698 404Q657 524 649 682H379V0H172V1518ZM1411 168Q1560 168 1667 207T1842 321T1943 505T1976 756Q1976 897 1944 1006T1843 1191T1667 1304T1411 1343Q1263 1343 1156 1305T980 1191T879 1007T846 756Q846 615 878 506T980 321T1156 207T1411 168Z"/><glyph unicode="Я" horiz-adv-x="1499" d="M1124 584H699L362 0H141L487 598Q445 605 409 617Q306 650 241 711T147 861T117 1059Q117 1170 146 1256T240 1400T405 1488T651 1518H1327V0H1124V584ZM1124 772V1329H659Q578 1329 516 1316T412 1272T348 1186T326 1051Q326 970 348 916T413 830T515 785T653 772H1124Z"/><glyph unicode="а" horiz-adv-x="1284" d="M487 -20Q364 -20 286 6T161 79T98 189T80 324Q80 405 96 467T148 575T242 653T383 704T578 732T831 741H892Q891 791 884 830Q876 881 847 914T762 963T608 979Q554 979 505 971T414 948T335 917T272 883L168 1038Q196 1057 243 1079T350 1121T480 1152T627 1165Q773 1165 862 1139T1001 1058T1068 917T1085 709V303Q1085 262 1088 237T1102 199T1136 181T1198 176V2Q1187 -1 1167 -1T1116 -2Q1069 -2 1037 5T983 27T947 67T922 127Q896 91 860 64T771 18T648 -10T487 -20ZM554 560Q443 549 380 522T294 450T270 338Q270 293 282 258T322 200T399 164T520 152Q619 152 689 172T805 235T872 344T893 502V571H842Q666 571 554 560Z"/><glyph unicode="б" horiz-adv-x="1309" d="M655 -23Q511 -23 405 13T230 124T126 317T92 598V831Q92 991 114 1110T176 1313T275 1450T405 1535T561 1577T739 1589H909V1403H748Q641 1403 557 1381T414 1309T324 1176T293 971Q339 1047 439 1087T711 1128Q861 1128 958 1086T1113 967T1194 783T1217 547Q1217 413 1187 308T1089 129T915 16T655 -23ZM655 158Q754 158 822 183T933 259T995 382T1014 551Q1014 648 995 721T934 843T823 917T655 942Q556 942 487 917T375 843T313 721T293 551Q293 456 312 383T375 259T487 184T655 158Z"/><glyph unicode="в" horiz-adv-x="1270" d="M147 1139H719Q826 1139 904 1125T1034 1079T1110 995T1135 864Q1135 813 1129 770T1107 694T1061 636T987 598Q1038 586 1072 564T1126 507T1156 425T1165 315Q1165 219 1137 158T1053 62T911 13T711 0H147V1139ZM727 174Q789 174 835 181T911 207T956 258T971 340Q971 429 912 464T723 500H336V174H727ZM723 672Q788 672 830 682T897 712T932 760T942 825Q942 864 930 890T892 931T824 954T723 961H336V672H723Z"/><glyph unicode="г" horiz-adv-x="1053" d="M147 1139H1006V958H348V0H147V1139Z"/><glyph unicode="д" horiz-adv-x="1528" d="M90 176H135Q177 176 201 183T239 206T256 250T260 317V1139H1266V176H1438V-340H1249V0H276V-340H90V176ZM1069 166V963H461V305Q461 254 453 222T422 166H1069Z"/><glyph unicode="е" horiz-adv-x="1229" d="M651 -23Q534 -23 448 -2T299 57T196 150T133 271T101 413T92 571Q92 694 115 802T199 991T369 1118T647 1165Q764 1165 845 1140T981 1068T1065 959T1109 822T1125 664T1126 494H285Q288 443 296 397Q309 320 348 266T460 181T651 150Q720 150 773 158T868 182T946 217T1014 262L1120 123Q1075 88 1026 61T921 15T798 -13T651 -23ZM938 670Q935 715 931 756T917 832T887 897T836 946T756 978T641 989Q527 989 457 958T349 871T296 737Q291 705 287 670H938Z"/><glyph unicode="ж" horiz-adv-x="1784" d="M797 1139H985V555L1491 1139H1710L1308 665L1751 0H1530L1174 518L985 302V0H797V302L609 517L254 0H33L475 667L72 1139H291L797 556V1139Z"/><glyph unicode="з" horiz-adv-x="1174" d="M561 -25Q411 -25 278 2T43 90L131 248Q222 198 324 176T541 154Q632 154 694 160T794 186T849 242T866 340Q866 391 855 425T806 481T700 512T514 522H262V700H510Q607 700 669 705T768 727T819 773T834 852Q834 897 818 923T767 963T675 981T537 985Q489 985 438 980T338 964T245 940T168 907L70 1063Q113 1088 172 1107T298 1139T434 1158T565 1165Q685 1165 773 1152T920 1108T1007 1025T1036 893Q1036 834 1029 791T1004 717T957 664T885 629Q942 614 978 590T1033 530T1060 442T1067 324Q1067 219 1035 152T939 45T780 -9T561 -25Z"/><glyph unicode="и" horiz-adv-x="1309" d="M147 1139H342V330L942 1139H1159V0H965V856L330 0H147V1139Z"/><glyph unicode="й" horiz-adv-x="1309" d="M147 1139H342V330L942 1139H1159V0H965V856L330 0H147V1139ZM651 1233Q547 1233 477 1258T362 1329T293 1434T254 1565L401 1595Q411 1550 427 1514T471 1451T542 1411T651 1397Q715 1397 758 1411T830 1451T875 1513T901 1595L1051 1567Q1036 1496 1011 1435T940 1329T825 1259T651 1233Z"/><glyph unicode="к" horiz-adv-x="1143" d="M147 1139H344V552L852 1139H1069L668 666L1110 0H889L534 519L344 300V0H147V1139Z"/><glyph unicode="л" horiz-adv-x="1417" d="M90 176H135Q177 176 202 183T241 206T259 250T264 317V1139H1268V0H1069V963H461V295Q461 214 448 157T404 65T325 14T203 -2Q191 -2 174 -2T140 -1T108 0T90 2V176Z"/><glyph unicode="м" horiz-adv-x="1548" d="M147 1139H399L788 262L1176 1139H1423V0H1225V827L862 0H698L334 827V0H147V1139Z"/><glyph unicode="н" horiz-adv-x="1305" d="M147 1139H348V686H956V1139H1155V0H956V498H348V0H147V1139Z"/><glyph unicode="о" horiz-adv-x="1309" d="M653 -23Q502 -23 396 15T222 128T123 314T92 571Q92 717 123 828T221 1014T395 1127T653 1165Q804 1165 911 1127T1086 1014T1185 828T1217 571Q1217 425 1186 314T1087 128T912 15T653 -23ZM653 158Q754 158 823 185T934 264T995 392T1014 567Q1014 665 996 741T935 869T823 948T653 975Q552 975 484 948T373 869T312 741T293 567Q293 469 311 393T372 264T483 185T653 158Z"/><glyph unicode="п" horiz-adv-x="1303" d="M147 1139H1153V0H954V963H344V0H147V1139Z"/><glyph unicode="р" horiz-adv-x="1343" d="M147 1128L305 1139L322 1018Q345 1054 381 1081T470 1127T596 1155T764 1165Q908 1165 1002 1122T1151 1000T1229 812T1251 571Q1251 441 1228 333T1149 147T997 26T756 -18Q667 -18 600 -10T485 16T403 58T348 119V-338H147V1128ZM721 162Q818 162 881 190T981 270T1034 396T1049 565Q1049 659 1035 734T983 863T883 946T721 975Q620 975 550 954T434 884T369 757T348 565Q348 452 367 375T431 251T547 183T721 162Z"/><glyph unicode="с" horiz-adv-x="1165" d="M647 -20Q483 -20 376 23T206 143T118 330T92 571Q92 703 117 812T206 1000T379 1122T655 1165Q731 1165 794 1153T910 1118T1004 1064T1079 995L934 858Q914 879 889 899T830 936T753 963T655 973Q550 973 481 946T369 866T310 738T293 567Q293 472 309 396T367 267T478 186T655 158Q701 158 740 165T813 187T880 223T944 274L1077 147Q1033 106 989 75T894 23T783 -9T647 -20Z"/><glyph unicode="т" horiz-adv-x="1139" d="M469 958H49V1139H1090V958H670V0H469V958Z"/><glyph unicode="у" horiz-adv-x="1114" d="M14 1139H227L562 250L893 1139H1102L618 -96Q594 -162 564 -209T492 -286T394 -330T262 -344H211Q196 -344 182 -344T158 -342V-180H246Q287 -180 316 -176T365 -159T398 -127T422 -76L456 13L14 1139Z"/><glyph unicode="ф" horiz-adv-x="2183" d="M995 121Q968 84 932 58T846 14T731 -12T582 -20Q439 -20 345 23T194 146T115 334T92 575Q92 705 115 813T196 1000T348 1121T588 1165Q677 1165 744 1157T860 1131T941 1088T995 1028V1589H1186V1026Q1209 1062 1245 1088T1332 1131T1450 1157T1604 1165Q1747 1165 1840 1122T1989 1000T2067 812T2089 571Q2089 441 2066 333T1987 147T1835 26T1593 -18Q1505 -18 1439 -10T1324 16T1242 58T1186 119V-338H995V121ZM625 162Q725 162 795 184T910 255T975 383T995 575Q995 687 976 764T913 888T799 956T625 977Q526 977 463 949T362 869T310 743T295 575Q295 481 309 405T361 274T462 191T625 162ZM1559 162Q1656 162 1720 190T1821 270T1873 396T1888 565Q1888 659 1874 734T1822 863T1721 946T1559 975Q1458 975 1387 954T1272 884T1207 757T1186 565Q1186 452 1205 375T1269 251T1385 183T1559 162Z"/><glyph unicode="х" horiz-adv-x="1139" d="M70 1139H291L577 739L856 1139H1071L681 593L1106 0H883L561 450L250 0H33L458 595L70 1139Z"/><glyph unicode="ц" horiz-adv-x="1415" d="M1137 0H147V1139H348V172H956V1139H1153V176H1325V-340H1137V0Z"/><glyph unicode="ч" horiz-adv-x="1288" d="M942 418Q925 390 893 365T812 322T694 292T535 281Q399 281 316 315T188 411T128 560T113 752V1139H311V791Q311 722 319 664T357 565T444 500T598 477Q703 477 770 502T874 572T926 679T940 815V1139H1139V0H942V418Z"/><glyph unicode="ш" horiz-adv-x="2056" d="M147 1139H348V172H932V1139H1128V172H1712V1139H1907V0H147V1139Z"/><glyph unicode="щ" horiz-adv-x="2169" d="M1892 0H147V1139H348V172H932V1139H1128V172H1712V1139H1907V176H2079V-340H1892V0Z"/><glyph unicode="ъ" horiz-adv-x="1378" d="M260 958H90V1139H459V809H866Q974 809 1052 783T1181 706T1256 582T1280 414Q1280 320 1257 244T1183 113T1053 30T862 0H260V958ZM834 166Q955 166 1016 223T1077 406Q1077 469 1062 513T1016 586T939 626T829 639H459V166H834Z"/><glyph unicode="ы" horiz-adv-x="1634" d="M147 1139H344V809H754Q862 809 940 783T1068 706T1143 582T1167 414Q1167 320 1144 244T1070 113T941 30T750 0H147V1139ZM721 166Q842 166 903 223T965 406Q965 469 950 513T904 586T827 626T717 639H344V166H721ZM1286 1139H1487V0H1286V1139Z"/><glyph unicode="ь" horiz-adv-x="1268" d="M147 1139H344V811H754Q862 811 940 784T1068 706T1143 582T1167 414Q1167 320 1144 244T1070 113T941 30T750 0H147V1139ZM721 166Q842 166 903 223T965 406Q965 469 950 513T904 586T827 626T717 639H344V166H721Z"/><glyph unicode="э" horiz-adv-x="1165" d="M250 492V670H872Q868 713 859 750Q842 829 800 880T688 957T512 983Q459 983 415 972T336 942T273 902T225 858L90 995Q122 1032 163 1063T257 1117T374 1152T516 1165Q682 1165 789 1123T960 1004T1048 816T1073 571Q1073 435 1048 326T960 140T790 22T520 -20Q444 -20 384 -9T272 23T176 75T86 147L211 272Q276 214 347 186T512 158Q619 158 689 182T801 257T860 385Q870 433 874 492H250Z"/><glyph unicode="ю" horiz-adv-x="1731" d="M147 1139H348V680H528Q535 762 553 830Q583 941 649 1015T820 1127T1075 1165Q1226 1165 1333 1128T1507 1016T1605 830T1636 571Q1636 424 1605 313T1507 127T1333 15T1075 -23Q925 -23 820 14T649 126T553 312Q531 396 525 500H348V0H147V1139ZM1075 158Q1177 158 1246 184T1358 261T1419 389T1438 567Q1438 669 1420 745T1358 873T1246 949T1075 975Q974 975 906 950T795 873T735 746T717 567Q717 466 735 390T795 262T905 184T1075 158Z"/><glyph unicode="я" horiz-adv-x="1296" d="M950 399H567L338 0H125L364 416Q274 439 215 489Q109 579 109 770Q109 960 213 1049T528 1139H1149V0H950V399ZM950 569V963H537Q481 963 439 954T369 922T326 861T311 764Q311 706 325 669T368 609T437 578T532 569H950Z"/><glyph unicode="ё" horiz-adv-x="1229" d="M299 1491H481V1262H299V1491ZM741 1491H921V1262H741V1491ZM651 -23Q534 -23 448 -2T299 57T196 150T133 271T101 413T92 571Q92 694 115 802T199 991T369 1118T647 1165Q764 1165 845 1140T981 1068T1065 959T1109 822T1125 664T1126 494H285Q288 443 296 397Q309 320 348 266T460 181T651 150Q720 150 773 158T868 182T946 217T1014 262L1120 123Q1075 88 1026 61T921 15T798 -13T651 -23ZM938 670Q935 715 931 756T917 832T887 897T836 946T756 978T641 989Q527 989 457 958T349 871T296 737Q291 705 287 670H938Z"/><glyph unicode="ђ" horiz-adv-x="1307" d="M811 -180H827Q870 -179 897 -172T939 -148T960 -102T967 -29V637Q967 705 960 762T925 861T842 926T690 950Q585 950 520 925T419 854T371 747T358 612V0H160V1249H-10V1430H160V1589H358V1430H641V1249H358V1022Q375 1046 405 1069T482 1109T596 1136T754 1147Q889 1147 970 1113T1093 1016T1149 867T1163 674V-53Q1163 -135 1148 -191T1097 -281T1000 -329T848 -344H811V-180Z"/><glyph unicode="ѓ" horiz-adv-x="1053" d="M918 1591H1162L799 1255H615L918 1591ZM147 1139H1006V958H348V0H147V1139Z"/><glyph unicode="є" horiz-adv-x="1165" d="M647 -20Q483 -20 376 21T206 140T118 326T92 571Q92 706 117 816T206 1003T379 1123T655 1165Q731 1165 794 1153T910 1118T1005 1064T1079 995L942 858Q922 879 896 901T834 942T754 971T655 983Q550 983 480 958T367 881T307 750Q298 713 294 670H918V492H291Q295 433 306 385Q323 308 365 258T477 183T655 158Q748 158 818 186T952 272L1077 147Q1033 106 989 75T894 23T783 -9T647 -20Z"/><glyph unicode="ѕ" horiz-adv-x="1098" d="M543 -20Q482 -20 420 -14T294 8T170 48T51 113L154 268Q253 205 357 180T555 154Q628 154 680 161T765 186T813 237T829 322Q829 362 815 388T768 432T684 462T555 487Q454 505 372 526T232 584T141 681T109 840Q109 918 133 978T210 1080T348 1143T555 1165Q688 1165 798 1139T989 1065L895 901Q830 936 745 958T559 981Q484 981 436 972T359 944T319 899T307 840Q307 800 321 774T365 729T444 699T563 674Q668 655 753 635T898 579T990 485T1022 330Q1022 232 995 166T909 58T760 -2T543 -20Z"/><glyph unicode="і" horiz-adv-x="516" d="M160 1139H356V0H160V1139ZM158 1518H358V1276H158V1518Z"/><glyph unicode="ї" horiz-adv-x="516" d="M-18 1509H145V1278H-18V1509ZM373 1509H537V1278H373V1509ZM160 1139H356V0H160V1139Z"/><glyph unicode="ј" horiz-adv-x="516" d="M4 -180H20Q65 -179 92 -171T135 -144T155 -93T160 -12V1139H356V-10Q356 -106 343 -170T295 -273T198 -328T41 -344H4V-180ZM158 1518H358V1276H158V1518Z"/><glyph unicode="љ" horiz-adv-x="2171" d="M90 176H135Q177 176 202 183T241 206T259 250T264 317V1139H1255V809H1661Q1769 809 1847 783T1975 706T2049 582T2073 414Q2073 320 2049 244T1975 113T1845 30T1655 0H1063V963H461V295Q461 214 448 157T404 65T325 14T203 -2Q191 -2 174 -2T140 -1T108 0T90 2V176ZM1628 166Q1748 166 1809 223T1870 406Q1870 469 1855 513T1809 586T1732 626T1622 639H1255V166H1628Z"/><glyph unicode="њ" horiz-adv-x="2058" d="M147 1139H348V686H950V1139H1145V809H1548Q1656 809 1733 783T1861 706T1936 582T1960 414Q1960 320 1937 244T1863 113T1734 30T1544 0H950V498H348V0H147V1139ZM1516 166Q1635 166 1696 223T1757 406Q1757 469 1742 513T1697 586T1621 626T1511 639H1145V166H1516Z"/><glyph unicode="ћ" horiz-adv-x="1307" d="M-10 1430H160V1589H358V1430H641V1249H358V1022Q375 1046 405 1069T482 1109T596 1136T754 1147Q889 1147 970 1113T1093 1016T1149 867T1163 674V0H967V637Q967 705 960 762T925 861T842 926T690 950Q585 950 520 925T419 854T371 747T358 612V0H160V1249H-10V1430Z"/><glyph unicode="ќ" horiz-adv-x="1143" d="M959 1591H1203L840 1255H656L959 1591ZM147 1139H344V552L852 1139H1069L668 666L1110 0H889L534 519L344 300V0H147V1139Z"/><glyph unicode="ў" horiz-adv-x="1114" d="M14 1139H227L562 250L893 1139H1102L618 -96Q594 -162 564 -209T492 -286T394 -330T262 -344H211Q196 -344 182 -344T158 -342V-180H246Q287 -180 316 -176T365 -159T398 -127T422 -76L456 13L14 1139ZM818 1233Q714 1233 644 1258T529 1329T460 1434T421 1565L568 1595Q578 1550 594 1514T638 1451T709 1411T818 1397Q882 1397 925 1411T997 1451T1042 1513T1068 1595L1218 1567Q1203 1496 1178 1435T1107 1329T992 1259T818 1233Z"/><glyph unicode="џ" horiz-adv-x="1303" d="M557 0H147V1139H348V172H956V1139H1153V0H745V-340H557V0Z"/><glyph unicode="Ґ" horiz-adv-x="1221" d="M172 1518H963V1858H1171V1319H379V0H172V1518Z"/><glyph unicode="ґ" horiz-adv-x="1053" d="M147 1139H815V1479H1006V958H348V0H147V1139Z"/><glyph unicode="–" horiz-adv-x="1460" d="M98 735H1362V549H98V735Z"/><glyph unicode="—" horiz-adv-x="1909" d="M98 735H1810V549H98V735Z"/><glyph unicode="‘" horiz-adv-x="518" d="M133 1174Q133 1247 141 1299T171 1391T233 1461T336 1524L389 1417Q351 1396 326 1379T287 1342T268 1299T262 1243H383V969H133V1174Z"/><glyph unicode="’" horiz-adv-x="518" d="M129 1069Q167 1089 191 1106T230 1142T250 1185T256 1241H133V1518H383V1315Q383 1240 375 1187T346 1095T285 1024T182 963L129 1069Z"/><glyph unicode="‚" horiz-adv-x="518" d="M129 -147Q167 -126 191 -109T230 -73T250 -29T256 29H133V301H383V96Q383 28 375 -24T346 -116T285 -189T182 -252L129 -147Z"/><glyph unicode="“" horiz-adv-x="918" d="M133 1174Q133 1246 141 1297T171 1388T232 1457T334 1518L385 1413Q347 1393 323 1376T284 1341T265 1299T260 1243H379V975H133V1174ZM541 1174Q541 1246 548 1297T577 1388T636 1457T737 1518L791 1413Q752 1393 728 1376T689 1341T670 1299T664 1243H782V975H541V1174Z"/><glyph unicode="”" horiz-adv-x="918" d="M129 1077Q166 1097 190 1114T229 1150T248 1192T254 1249H133V1518H379V1317Q379 1245 371 1194T342 1104T281 1035T180 975L129 1077ZM530 1077Q569 1097 594 1114T633 1150T653 1192T659 1249H541V1518H782V1317Q782 1245 775 1194T746 1104T686 1035T586 975L530 1077Z"/><glyph unicode="„" horiz-adv-x="918" d="M129 -143Q166 -124 190 -108T229 -72T248 -29T254 29H133V295H379V96Q379 28 371 -22T342 -113T281 -185T180 -246L129 -143ZM530 -143Q569 -124 594 -108T633 -72T653 -29T659 29H541V295H782V96Q782 28 775 -22T746 -113T686 -185T586 -246L530 -143Z"/><glyph unicode="†" horiz-adv-x="1139" d="M471 928H113V1116H471V1589H668V1116H1026V928H668V-340H471V928Z"/><glyph unicode="‡" horiz-adv-x="1139" d="M471 176H113V365H471V928H113V1116H471V1589H668V1116H1026V928H668V365H1026V176H668V-340H471V176Z"/><glyph unicode="•" horiz-adv-x="725" d="M199 807H526V438H199V807Z"/><glyph unicode="…" horiz-adv-x="1485" d="M133 270H383V0H133V270ZM616 270H866V0H616V270ZM1102 270H1352V0H1102V270Z"/><glyph unicode="‰" horiz-adv-x="3289" d="M514 569Q401 569 320 603T187 702T109 855T84 1055Q84 1164 109 1254T186 1408T320 1507T514 1542Q625 1542 705 1507T836 1408T913 1254T938 1055Q938 945 913 856T837 702T705 604T514 569ZM514 729Q584 729 631 753T706 821T747 924T760 1055Q760 1125 748 1183T706 1285T630 1352T514 1376Q443 1376 396 1353T319 1286T277 1184T264 1055Q264 984 276 925T318 822T395 754T514 729ZM1833 -20Q1722 -20 1642 14T1509 113T1432 266T1407 467Q1407 575 1432 665T1509 819T1641 918T1833 954Q1944 954 2025 919T2158 819T2236 665T2261 467Q2261 356 2236 267T2159 113T2025 15T1833 -20ZM1833 139Q1903 139 1950 164T2026 232T2067 336T2079 467Q2079 536 2067 594T2027 695T1951 762T1833 786Q1764 786 1717 763T1641 697T1600 596T1587 467Q1587 396 1599 336T1640 233T1716 164T1833 139ZM2779 -20Q2667 -20 2586 14T2453 113T2376 266T2351 467Q2351 575 2376 665T2453 819T2586 918T2779 954Q2890 954 2970 919T3102 819T3180 665T3205 467Q3205 356 3180 267T3103 113T2970 15T2779 -20ZM2779 139Q2849 139 2896 164T2972 232T3013 336T3025 467Q3025 536 3013 594T2971 695T2895 762T2779 786Q2709 786 2662 763T2585 697T2544 596T2531 467Q2531 396 2543 336T2584 233T2660 164T2779 139ZM1501 1520H1690L842 0H653L1501 1520Z"/><glyph unicode="‹" horiz-adv-x="899" d="M178 567L487 1139H668L373 567L668 0H487L178 567Z"/><glyph unicode="›" horiz-adv-x="899" d="M526 569L229 1139H414L723 569L414 0H229L526 569Z"/><glyph unicode="⁄" horiz-adv-x="1032" d="M850 1518H1032L180 0H0L850 1518Z"/><glyph unicode="€" horiz-adv-x="1386" d="M74 686H302Q301 724 301 764Q301 801 302 836H74V1006H316Q322 1053 331 1097Q362 1242 430 1341T607 1491T874 1542Q945 1542 1000 1537T1100 1521T1184 1495T1262 1460L1167 1288Q1109 1320 1041 1337T881 1354Q761 1354 686 1313T568 1196T509 1010Q509 1008 508 1006H1020V836H495Q494 803 494 768Q494 725 495 686H1020V516H509L510 511Q526 398 569 320T686 200T877 158Q957 158 1027 173T1169 231L1270 74Q1228 48 1184 29T1092 -2T988 -19T866 -25Q705 -25 597 29T423 185T329 433Q321 473 315 516H74V686Z"/><glyph unicode="№" horiz-adv-x="2775" d="M172 1518H397L1251 360V1518H1448V0H1257L369 1204V0H172V1518ZM2107 582Q1875 582 1766 705T1657 1063Q1657 1298 1766 1420T2107 1542Q2339 1542 2450 1420T2562 1063Q2562 828 2451 705T2107 582ZM2107 735Q2255 735 2324 818T2394 1059Q2394 1216 2325 1299T2107 1382Q1960 1382 1893 1299T1825 1059Q1825 902 1892 819T2107 735ZM1712 438H2505V283H1712V438Z"/><glyph unicode="™" horiz-adv-x="2236" d="M1006 1518H1178L1481 791L1782 1518H1956V586H1804V1247L1532 586H1425L1151 1247V586H1006V1518ZM440 1374H123V1518H911V1374H594V586H440V1374Z"/><glyph unicode="Ω" horiz-adv-x="1664" d="M832 1376Q644 1376 510 1234T376 836Q376 592 464 432T724 180V0H88V196H536Q416 240 304 406T192 848Q192 1112 358 1330T832 1548Q1140 1548 1306 1338T1472 848Q1472 572 1360 406T1128 196H1576V0H940V180Q1112 272 1200 432T1288 836Q1288 1044 1162 1210T832 1376Z"/><glyph unicode="∂" horiz-adv-x="1280" d="M476 -32Q276 -32 166 80T56 360Q56 580 214 750T604 920Q700 920 802 886T964 816Q976 900 976 984Q976 1172 908 1278T720 1384Q592 1384 518 1356T368 1280L324 1444Q400 1488 492 1518T720 1548Q956 1548 1064 1394T1172 968Q1172 552 968 260T476 -32ZM488 128Q660 128 774 268T944 684Q912 716 824 748T648 780Q456 780 360 654T264 372Q264 264 318 196T488 128Z"/><glyph unicode="∆" horiz-adv-x="1536" d="M76 0L652 1536H884L1456 0H76ZM352 148H1164L752 1256L352 148Z"/><glyph unicode="∏" horiz-adv-x="1536" d="M332 0V1348H80V1524H1456V1348H1212V0H1004V1356H540V0H332Z"/><glyph unicode="∑" horiz-adv-x="1152" d="M1084 1524V1344H332L796 784L304 188H1080V0H40V172L560 788L68 1380V1524H1084Z"/><glyph unicode="−" horiz-adv-x="1440" d="M211 817H1229V627H211V817Z"/><glyph unicode="∕" horiz-adv-x="1032" d="M850 1518H1032L180 0H0L850 1518Z"/><glyph unicode="∙" horiz-adv-x="518" d="M133 836H383V561H133V836Z"/><glyph unicode="√" horiz-adv-x="1370" d="M115 858H322L563 242L1061 1518H1257L662 -10H455L115 858Z"/><glyph unicode="∞" horiz-adv-x="1778" d="M504 369Q412 369 342 392T225 458T155 564T131 705Q131 784 155 846T226 952T343 1019T504 1042Q593 1042 666 1004T804 908Q850 867 892 820Q935 867 981 908Q1045 966 1117 1004T1276 1042Q1354 1042 1422 1024T1540 966T1618 861T1647 705Q1647 614 1618 551T1539 447T1421 388T1276 369Q1187 369 1114 407T976 502Q930 544 888 590Q845 544 799 502Q735 445 663 407T504 369ZM743 751Q688 809 631 847T508 885Q405 885 349 839T293 705Q293 618 347 572T508 526Q573 526 631 564T746 659Q767 681 789 703Q766 728 743 751ZM1038 659Q1094 602 1151 564T1274 526Q1318 526 1356 535T1423 564T1468 619T1485 705Q1485 756 1469 790T1425 846T1358 876T1274 885Q1209 885 1151 847T1035 751Q1014 730 992 707Q1015 682 1038 659Z"/><glyph unicode="∫" horiz-adv-x="1152" d="M-8 -392L56 -260Q80 -268 104 -274T164 -280Q212 -280 242 -246T288 -112L516 1224Q544 1384 636 1464T880 1544Q972 1544 1042 1522T1152 1476L1088 1304Q1044 1332 988 1356T868 1380Q776 1380 730 1322T672 1188L448 -224Q428 -332 350 -382T176 -432Q116 -432 66 -420T-8 -392Z"/><glyph unicode="≈" horiz-adv-x="1536" d="M236 400Q228 444 228 480Q228 580 288 652T476 724Q576 724 650 696T788 642T912 598T1020 580Q1096 580 1128 610T1160 684Q1160 700 1156 716H1300Q1308 672 1308 636Q1308 536 1248 464T1060 392Q960 392 886 418T748 470T624 512T516 528Q440 528 408 500T376 432Q376 416 380 400H236ZM236 860Q228 904 228 940Q228 1040 288 1112T476 1184Q576 1184 650 1156T788 1102T912 1058T1020 1040Q1096 1040 1128 1070T1160 1144Q1160 1160 1156 1176H1300Q1308 1132 1308 1096Q1308 996 1248 924T1060 852Q960 852 886 878T748 930T624 972T516 988Q440 988 408 960T376 892Q376 876 380 860H236Z"/><glyph unicode="≠" horiz-adv-x="1440" d="M487 399H223V582H571L702 862H223V1042H780L887 1272H1055L946 1042H1219V862H864L733 582H1219V399H657L553 172H381L487 399Z"/><glyph unicode="≤" horiz-adv-x="1440" d="M217 209H1137L217 655V799L1141 1245V1057L422 723L1141 391V29H217V209Z"/><glyph unicode="≥" horiz-adv-x="1440" d="M299 391L1018 723L299 1057V1245L1221 799V655L303 209H1221V29H299V391Z"/><glyph unicode="◊" horiz-adv-x="1292" d="M80 760L545 1518H739L1206 760L739 0H543L80 760ZM1004 754L639 1356L279 760L643 162L1004 754Z"/><glyph unicode="" horiz-adv-x="1704" d="M338 1356Q441 1450 572 1502T852 1554Q1001 1554 1133 1502T1368 1356L1354 1339Q1254 1430 1126 1482T852 1534Q706 1534 579 1482T352 1339L338 1356ZM852 -35Q703 -35 571 18T336 164L350 180Q450 89 578 38T852 -14Q997 -14 1124 37T1352 178Q1352 179 1359 172Q1362 168 1366 164Q1263 70 1132 18T852 -35ZM1442 250Q1440 252 1437 254T1430 260Q1515 362 1562 489T1610 760Q1610 903 1563 1030T1430 1260L1446 1274Q1533 1171 1581 1040T1630 760Q1630 613 1582 482T1446 246L1442 250ZM258 246Q171 349 123 480T74 760Q74 906 122 1037T258 1272Q259 1271 262 1269Q264 1267 266 1265T272 1260Q189 1157 142 1030T94 760Q94 616 141 489T274 260Q270 257 267 255T262 250L258 246ZM852 123Q731 123 627 164T440 281Q443 285 447 289Q455 297 455 295Q535 224 636 184T852 143Q967 143 1068 183T1247 295Q1250 290 1254 287T1262 279Q1180 206 1076 165T852 123ZM1249 1223Q1171 1295 1070 1335T852 1376Q737 1376 636 1336T455 1225L440 1239Q524 1313 628 1355T852 1397Q971 1397 1075 1355T1264 1239L1249 1223ZM375 348Q306 433 267 537T227 760Q227 877 266 981T373 1169Q376 1166 380 1163T389 1155Q323 1075 286 974T248 760Q248 645 285 544T389 362L375 348ZM1329 350Q1326 353 1322 356T1315 362Q1381 444 1418 544T1456 760Q1456 874 1419 974T1313 1155L1329 1169Q1398 1086 1437 982T1477 760Q1477 642 1438 538T1329 350ZM1167 1130Q1104 1187 1024 1219T852 1251Q761 1251 682 1220T539 1133L524 1147Q590 1206 674 1239T852 1272Q948 1272 1032 1239T1182 1147Q1179 1142 1175 1138T1167 1130ZM852 248Q756 248 672 281T522 373L537 389Q600 332 680 300T852 268Q943 268 1023 300T1165 389Q1168 384 1172 381T1180 373Q1115 314 1032 281T852 248ZM1237 432Q1236 433 1233 435Q1230 437 1221 446Q1275 511 1304 590T1333 760Q1333 850 1304 930T1221 1073L1237 1087Q1293 1021 1323 938T1354 760Q1354 666 1324 582T1237 432ZM467 432Q413 498 382 582T350 760Q350 854 380 936T465 1087Q470 1084 473 1080T481 1073Q430 1010 401 930T371 760Q371 670 400 590T481 446Q478 441 474 438T467 432ZM852 348Q777 348 710 375T588 449L602 463Q653 418 716 394T852 369Q923 369 986 393T1100 463Q1103 458 1107 455T1114 446Q1061 400 994 374T852 348ZM1163 498L1156 505Q1152 509 1147 512Q1189 563 1212 626T1235 760Q1235 831 1212 894T1147 1008L1163 1022Q1207 968 1231 902T1255 760Q1255 684 1231 618T1163 498ZM541 498Q497 552 473 618T449 760Q449 834 473 901T541 1022Q546 1019 549 1015T557 1008Q515 957 492 894T469 760Q469 689 492 626T557 512Q552 509 549 505T541 498ZM590 1073Q642 1120 709 1145T852 1171Q927 1171 994 1145T1114 1071Q1115 1071 1113 1069T1109 1064Q1106 1060 1102 1057Q1051 1102 987 1126T852 1151Q781 1151 718 1127T604 1057L590 1073ZM1106 551Q1101 554 1098 558T1090 565Q1120 605 1138 654T1157 760Q1157 816 1138 865T1087 954L1104 969Q1139 925 1158 873T1178 760Q1178 700 1159 647T1106 551ZM641 1014Q684 1051 738 1071T852 1092Q912 1092 965 1071T1061 1012L1049 997Q1008 1032 959 1051T852 1071Q796 1071 746 1051T655 997L641 1014ZM852 428Q792 428 738 449T641 506L655 522Q696 488 746 469T852 449Q908 449 958 468T1049 522Q1052 519 1055 515T1061 506Q1019 471 966 450T852 428ZM598 551Q564 594 545 647T526 760Q526 820 545 872T600 969L614 954Q583 914 565 865T547 760Q547 704 565 655T614 565L607 558Q603 554 598 551ZM1042 608Q1065 639 1079 677T1094 760Q1094 803 1080 842T1040 913L1057 928Q1114 856 1114 760Q1114 663 1057 594L1042 608ZM647 592Q590 664 590 760Q590 857 647 926Q650 923 654 920T662 911Q639 880 625 842T610 760Q610 716 624 677T664 606Q659 603 656 599T647 592ZM852 492Q802 492 759 508T682 553L696 569Q728 543 768 528T852 512Q897 512 936 527T1006 569L1020 555Q986 526 944 509T852 492ZM684 965Q718 994 761 1011T852 1028Q900 1028 943 1012T1020 967L1006 950Q975 976 936 992T852 1008Q809 1008 770 993T698 950L684 965ZM733 911Q727 916 723 921T717 928Q745 951 779 964T852 977Q890 977 924 964T987 928L971 911Q920 956 852 956Q784 956 733 911ZM684 627Q664 655 653 688T641 760Q641 797 652 831T684 893Q689 890 693 886L700 879Q682 854 672 824T662 760Q662 728 672 698T700 643L684 627ZM852 543Q814 543 780 556T717 592L731 608Q756 587 787 575T852 563Q886 563 916 575T971 608Q974 603 978 600T985 592Q957 569 924 556T852 543ZM1020 627Q1015 630 1011 634L1004 641Q1022 666 1032 696T1042 760Q1042 794 1032 824T1004 879L1018 893Q1063 836 1063 760Q1063 723 1052 690T1020 627Z"/><glyph unicode="ﬀ" horiz-adv-x="1493" d="M948 958H473V0H274V958H59V1139H274V1219Q274 1303 290 1371T348 1488T460 1563T637 1589H768V1415H662Q605 1415 569 1401T511 1360T481 1298T473 1219V1139H948V1219Q948 1303 964 1371T1022 1488T1133 1563T1311 1589H1444V1415H1335Q1278 1415 1242 1401T1184 1360T1155 1298T1147 1219V1139H1444V958H1147V0H948V958Z"/><glyph unicode="ﬁ" horiz-adv-x="1307" d="M59 1139H274V1219Q274 1303 290 1371T348 1488T460 1563T637 1589H768V1415H662Q605 1415 569 1401T511 1360T481 1298T473 1219V1139H768V958H473V0H274V958H59V1139ZM948 1139H1147V0H948V1139ZM946 1518H1147V1276H946V1518Z"/><glyph unicode="ﬂ" horiz-adv-x="1413" d="M59 1139H274V1219Q274 1303 290 1371T348 1488T460 1563T637 1589H768V1415H662Q605 1415 569 1401T511 1360T481 1298T473 1219V1139H768V958H473V0H274V958H59V1139ZM1204 -2Q1133 -2 1084 14T1005 65T962 157T948 295V1589H1147V317Q1147 277 1151 250T1168 207T1205 183T1272 176H1319V2Q1305 0 1274 -1T1204 -2Z"/><glyph unicode="ﬃ" horiz-adv-x="1978" d="M948 958H473V0H274V958H59V1139H274V1219Q274 1303 290 1371T348 1488T460 1563T637 1589H768V1415H662Q605 1415 569 1401T511 1360T481 1298T473 1219V1139H948V1219Q948 1303 964 1371T1022 1488T1133 1563T1311 1589H1444V1415H1335Q1278 1415 1242 1401T1184 1360T1155 1298T1147 1219V1139H1444V958H1147V0H948V958ZM1622 1139H1819V0H1622V1139ZM1620 1518H1821V1276H1620V1518Z"/><glyph unicode="ﬄ" horiz-adv-x="2087" d="M948 958H473V0H274V958H59V1139H274V1219Q274 1303 290 1371T348 1488T460 1563T637 1589H768V1415H662Q605 1415 569 1401T511 1360T481 1298T473 1219V1139H948V1219Q948 1303 964 1371T1022 1488T1133 1563T1311 1589H1444V1415H1335Q1278 1415 1242 1401T1184 1360T1155 1298T1147 1219V1139H1444V958H1147V0H948V958ZM1878 -2Q1807 -2 1758 14T1679 65T1636 157T1622 295V1589H1819V317Q1819 277 1823 250T1840 207T1878 183T1944 176H1991V2Q1978 0 1947 -1T1878 -2Z"/></font>
</defs>
</svg>
