<?xml version="1.0" encoding="UTF-8"?><svg xmlns="http://www.w3.org/2000/svg" width="100%" height="100%"><defs><font id="web" horiz-adv-x="1015"><!--



NOTICE: This font software is the valuable property 
of Webtype LLC, The Font Bureau, Webtype and/or its 
suppliers and its use by you is covered under the terms 
of the Web Font license agreement between you and Webtype 
LLC. You may ONLY use this font software with the licensed 
web site. Except as specifically permitted by the license, 
you may not copy this font software. If you have any 
questions, please contact Webtype.com. 

For more information, please visit http://www.webtype.com/store/license/?id=23

Licensed to: www.chase.com

Serial number: SH-872
--><font-face font-family="" units-per-em="2048" panose-1="2 0 5 6 5 0 0 2 0 4" ascent="2003" descent="-518" alphabetic="0"/><missing-glyph horiz-adv-x="469"/><glyph unicode=" " horiz-adv-x="469"/><glyph unicode="!" horiz-adv-x="543" d="M227 401L166 909V1417H379V909L317 401H227ZM270 -23Q213 -23 171 16T129 121Q129 184 171 224T270 264Q330 264 372 224T414 121Q414 55 372 16T270 -23Z"/><glyph unicode="&quot;" horiz-adv-x="801" d="M539 831L473 1161V1417H678V1161L612 831H539ZM188 831L123 1161V1417H328V1161L264 831H188Z"/><glyph unicode="#" horiz-adv-x="1198" d="M229 0L283 342H78L102 506H307L362 860H160L184 1024H387L436 1333H567L518 1024H786L836 1333H967L918 1024H1120L1096 860H891L838 506H1038L1014 342H811L760 0H629L682 342H412L360 0H229ZM432 500H711L766 866H487L432 500Z"/><glyph unicode="$" horiz-adv-x="1016" d="M678 1346Q785 1326 872 1290L846 1139Q795 1155 750 1168T651 1188L578 750Q723 709 792 662T892 544T924 369Q924 -30 488 -30L449 -29L401 -313L283 -291L328 -16Q186 6 84 66L127 203Q268 143 352 129L432 602Q284 645 221 690T127 804T96 981Q96 1165 202 1261T510 1358H557L596 1591L715 1569L678 1346ZM530 1198H516Q383 1198 328 1153T272 995Q272 928 288 894T343 833T461 782L530 1198ZM473 119Q616 119 678 170T741 348Q741 445 698 490T547 569L473 119Z"/><glyph unicode="%" horiz-adv-x="1708" d="M395 512Q249 512 163 625T76 938Q76 1125 163 1241T399 1358Q546 1358 633 1245T721 942Q721 745 632 629T395 512ZM408 0L1161 1333H1303L547 0H408ZM1307 -29Q1156 -29 1072 88T987 397Q987 585 1074 701T1311 817Q1459 817 1545 704T1632 401Q1632 207 1545 89T1307 -29ZM397 633Q465 633 506 686T547 887V981Q547 1112 510 1170T397 1229Q328 1229 287 1176T246 979V885Q246 749 282 691T397 633ZM1309 92Q1378 92 1419 145T1460 346V440Q1460 584 1419 636T1309 688Q1241 688 1200 635T1159 438V344Q1159 210 1195 151T1309 92Z"/><glyph unicode="&amp;" horiz-adv-x="1233" d="M584 774L870 395Q928 541 954 760H1118L1094 616Q1055 394 977 256L1169 0H940L823 156L768 51Q739 29 677 0T504 -29Q311 -29 194 74T76 362Q76 498 141 594T362 770L358 774Q281 879 253 959T225 1126Q225 1263 318 1350T563 1438Q708 1438 796 1353T885 1137Q885 1036 856 978T788 872L584 774ZM541 829Q623 874 671 935T719 1110Q719 1210 677 1247T569 1284Q504 1284 459 1248T414 1126Q414 1069 423 1031T454 954T541 829ZM772 225L432 678Q354 627 318 563T281 393V367Q281 233 343 175T522 117Q672 117 772 225Z"/><glyph unicode="'" horiz-adv-x="451" d="M188 831L123 1161V1417H328V1161L264 831H188Z"/><glyph unicode="(" horiz-adv-x="637" d="M444 -205Q350 -115 274 19T154 310T111 647Q111 811 146 945T232 1182T340 1359T440 1470H596Q448 1278 380 1091T311 674V621Q311 471 337 344T420 95T600 -205H444Z"/><glyph unicode=")" horiz-adv-x="637" d="M37 -205Q157 -29 214 95T297 346T324 621V674Q324 899 258 1088T41 1470H197Q286 1391 360 1265T480 982T526 647Q526 466 483 310T364 20T193 -205H37Z"/><glyph unicode="*" horiz-adv-x="866" d="M291 745L168 836L238 934L391 1057L195 1069L80 1104L125 1251L242 1214L408 1106L356 1298V1417H510V1298L459 1106L625 1214L739 1251L786 1104L672 1069L475 1057L627 934L698 836L575 745L504 842L432 1026L362 842L291 745Z"/><glyph unicode="+" horiz-adv-x="1018" d="M426 203V545H111V702H426V1044H592V702H905V545H592V203H426Z"/><glyph unicode="," horiz-adv-x="516" d="M195 -283L133 -254L225 12L147 31Q109 69 109 127Q109 197 153 238T258 279Q322 279 366 237T410 129Q410 72 382 20T324 -82L195 -283Z"/><glyph unicode="-" horiz-adv-x="643" d="M109 520V698H535V520H109Z"/><glyph unicode="." horiz-adv-x="514" d="M258 -23Q197 -23 152 19T106 127Q106 195 151 237T258 279Q319 279 363 237T408 127Q408 61 364 19T258 -23Z"/><glyph unicode="/" horiz-adv-x="831" d="M25 -205L639 1470H799L184 -205H25Z"/><glyph unicode="0" horiz-adv-x="1169" d="M582 -29Q346 -29 222 154T98 670Q98 994 226 1176T586 1358Q818 1358 944 1179T1071 674Q1071 329 946 150T582 -29ZM586 121Q688 121 746 173T833 341T862 649V719Q862 978 799 1089T584 1200Q436 1200 372 1088T307 711V643Q307 362 370 242T586 121Z"/><glyph unicode="1" horiz-adv-x="795" d="M119 0V135H313V1094H119V1182L406 1333H512V135H698V0H119Z"/><glyph unicode="2" horiz-adv-x="973" d="M84 0V154L96 199Q120 288 177 371T327 537T430 629Q551 736 588 779T641 863T657 956V981Q657 1106 604 1150T444 1194Q354 1194 288 1173T145 1118L111 1262Q168 1294 254 1326T477 1358Q664 1358 767 1262T870 987Q870 903 844 837T771 715T664 609T535 506Q426 421 389 384T327 311T287 239T258 133L489 160H856V0H84Z"/><glyph unicode="3" horiz-adv-x="991" d="M453 -29Q311 -29 217 1T68 66L102 201Q219 152 279 140T414 127Q555 127 621 181T688 362V387Q688 520 617 573T387 627H279V768H362Q528 768 593 817T659 981V997Q659 1114 601 1156T410 1198Q303 1198 200 1166L125 1143L102 1286Q258 1358 440 1358Q641 1358 752 1268T864 1012Q864 874 794 807T588 707Q735 678 818 595T901 354Q901 176 777 74T453 -29Z"/><glyph unicode="4" horiz-adv-x="1151" d="M680 0V324H72V424L621 1333H879V473H1051V324H879V0H680ZM274 473H682V926L698 1243L575 973L274 473Z"/><glyph unicode="5" horiz-adv-x="977" d="M446 -29Q301 -29 210 3T63 72L100 213L179 179Q287 129 406 129Q539 129 607 189T676 399V426Q676 562 631 630T473 698Q389 698 347 671T276 604L127 627L158 1333H821V1171H311L299 901L266 721Q309 766 368 798T526 831Q692 831 790 721T889 412Q889 217 766 94T446 -29Z"/><glyph unicode="6" horiz-adv-x="1110" d="M322 719L483 831Q544 856 616 856Q801 856 910 747T1020 430Q1020 213 900 92T563 -29Q349 -29 225 116T100 520Q100 747 226 952T614 1333H885Q654 1193 509 1034T322 719ZM305 615V510Q305 301 368 209T567 117Q694 117 753 181T813 399V446Q813 598 751 655T561 713Q481 713 423 690T307 631L305 615Z"/><glyph unicode="7" horiz-adv-x="967" d="M186 0L629 1026L741 1186L547 1171H61V1333H885V1143L395 0H186Z"/><glyph unicode="8" horiz-adv-x="1096" d="M379 674Q279 727 212 808T145 1016Q145 1168 256 1263T551 1358Q673 1358 761 1318T898 1203T946 1032Q946 963 929 912T874 813L692 723Q863 656 936 567T1010 350Q1010 176 885 74T547 -29Q327 -29 207 69T86 340Q86 428 118 488T197 594L379 674ZM610 762Q698 816 732 868T766 1014V1026Q766 1110 719 1159T551 1208Q434 1208 390 1157T346 1028V1016Q346 925 404 871T610 762ZM459 629Q360 573 320 512T279 365V336Q279 113 545 113Q674 113 737 171T801 334V365Q801 412 783 444T723 506T617 562T459 629Z"/><glyph unicode="9" horiz-adv-x="1108" d="M784 602L623 494Q566 469 492 469Q307 469 198 580T88 899Q88 1115 212 1236T545 1358Q762 1358 885 1215T1008 809Q1008 585 878 377T494 0H221Q701 299 784 602ZM803 708V819Q803 1030 741 1116T541 1202Q414 1202 355 1141T295 926V879Q295 727 356 665T547 602Q625 602 683 625T801 682L803 708Z"/><glyph unicode=":" horiz-adv-x="530" d="M264 596Q205 596 160 638T115 745Q115 813 160 855T264 897Q328 897 372 855T416 745Q416 680 372 638T264 596ZM264 -23Q205 -23 160 19T115 127Q115 195 160 237T264 279Q328 279 372 237T416 127Q416 61 372 19T264 -23Z"/><glyph unicode=";" horiz-adv-x="530" d="M264 596Q205 596 160 638T115 745Q115 813 160 855T264 897Q328 897 372 855T416 745Q416 680 372 638T264 596ZM203 -283L141 -254L233 12L156 31Q117 67 117 127Q117 197 161 238T266 279Q330 279 374 237T418 129Q418 72 390 20T332 -82L203 -283Z"/><glyph unicode="&lt;" horiz-adv-x="881" d="M776 170L90 498V676L776 1008V817L375 641L182 586L375 530L776 348V170Z"/><glyph unicode="=" horiz-adv-x="965" d="M111 723V879H852V723H111ZM111 369V522H852V369H111Z"/><glyph unicode="&gt;" horiz-adv-x="881" d="M104 170V360L506 537L698 592L506 647L104 827V1008L791 680V502L104 170Z"/><glyph unicode="?" horiz-adv-x="887" d="M289 401L260 635L257 669Q257 704 272 731T352 780Q474 822 513 850T567 923T582 1047V1067Q582 1188 534 1231T367 1274Q289 1274 226 1259T80 1214L51 1358Q104 1386 195 1412T399 1438Q592 1438 693 1345T795 1069Q795 902 708 807T430 670V401H289ZM365 -23Q307 -23 264 16T221 121Q221 184 264 224T365 264Q424 264 466 224T508 121Q508 55 466 16T365 -23Z"/><glyph unicode="@" horiz-adv-x="1589" d="M815 -299Q440 -299 264 -95T88 518Q88 922 268 1128T827 1335Q1164 1335 1332 1164T1501 637Q1501 328 1403 173T1077 18Q1018 18 956 31L905 147L815 47Q725 12 637 12Q522 12 456 78T389 260Q389 430 486 511T805 612L971 627L989 737Q994 772 994 801Q994 862 961 887T858 913Q741 913 559 864V999Q645 1032 721 1048T883 1065Q1061 1065 1112 982T1163 794Q1163 738 1151 670L1071 201L1068 171Q1068 152 1077 140T1124 127H1141Q1264 127 1324 252T1384 604V655Q1384 865 1325 988T1142 1173T825 1235Q606 1235 471 1163T272 944T209 547V494Q209 244 271 96T465 -126T813 -199Q938 -199 1050 -170T1278 -102L1309 -197Q1225 -233 1097 -266T815 -299ZM696 137Q772 137 820 162T903 221L930 377L954 535L801 518Q672 506 624 459T565 317V303L563 265Q563 211 589 174T696 137Z"/><glyph unicode="A" horiz-adv-x="1174" d="M319 264L238 0H59L492 1333H692L1116 0H903L825 264H319ZM782 406L631 911L582 1176L522 911L365 406H782Z"/><glyph unicode="B" horiz-adv-x="1147" d="M166 0V1333H586Q799 1333 908 1242T1018 981Q1018 757 774 686Q903 663 978 577T1053 369Q1053 190 939 95T606 0H166ZM371 750H590Q713 750 763 795T813 952V975Q813 1085 758 1129T567 1174H371V750ZM371 158H590Q717 158 776 206T836 371V399Q836 518 781 565T596 612H371V158Z"/><glyph unicode="C" horiz-adv-x="1036" d="M623 -29Q363 -29 229 148T94 670Q94 1001 231 1179T629 1358Q733 1358 810 1339T956 1288L932 1126Q867 1147 783 1166T616 1186Q506 1186 443 1136T345 980T311 711V645Q311 383 385 258T621 133Q737 133 855 181L934 211L979 55Q806 -29 623 -29Z"/><glyph unicode="D" horiz-adv-x="1225" d="M166 0V1333H565Q852 1333 991 1162T1130 670Q1130 334 988 167T547 0H166ZM371 156H535Q687 156 764 202T878 356T915 645V709Q915 881 878 980T762 1123T530 1167H371V156Z"/><glyph unicode="E" horiz-adv-x="1034" d="M166 0V1333H907V1167H371V760H831V606H371V162H944V0H166Z"/><glyph unicode="F" horiz-adv-x="1008" d="M166 0V1333H905V1167H371V721H838V567H371V0H166Z"/><glyph unicode="G" horiz-adv-x="1157" d="M909 104L791 -12Q717 -29 625 -29Q365 -29 230 146T94 670Q94 1002 237 1180T643 1358Q829 1358 995 1290L971 1126Q877 1153 800 1170T633 1188Q462 1188 386 1070T309 711V645Q309 379 384 254T623 129Q748 129 846 172V553H641V698H1036V-16H969L909 104Z"/><glyph unicode="H" horiz-adv-x="1247" d="M877 602H371V0H166V1333H371V762H877V1333H1081V0H877V602Z"/><glyph unicode="I" horiz-adv-x="561" d="M178 0V1333H383V0H178Z"/><glyph unicode="J" horiz-adv-x="745" d="M293 -29Q160 -29 63 29L84 180Q127 164 164 152T248 139Q321 139 352 192T383 371V1333H588V416Q588 203 520 87T293 -29Z"/><glyph unicode="K" horiz-adv-x="1141" d="M338 655L860 1333H1075L584 721L735 606L1090 0H862L492 639L373 479V0H166V1333H373V903L338 655Z"/><glyph unicode="L" horiz-adv-x="973" d="M166 0V1333H371V160H905V0H166Z"/><glyph unicode="M" horiz-adv-x="1503" d="M168 0V1333H438L684 449L741 80L799 449L1055 1333H1335V0H1135V664L1171 1253L1077 825L838 0H623L393 813L305 1253L340 662V0H168Z"/><glyph unicode="N" horiz-adv-x="1245" d="M168 0V1333H393L805 537L946 150L897 600V1333H1079V0H862L430 829L303 1196L348 770V0H168Z"/><glyph unicode="O" horiz-adv-x="1247" d="M621 -29Q366 -29 230 154T94 670Q94 997 233 1177T625 1358Q879 1358 1016 1180T1153 674Q1153 331 1017 151T621 -29ZM625 123Q793 123 864 249T936 649V719Q936 888 903 993T804 1147T623 1196Q465 1196 387 1086T309 711V643Q309 459 342 345T442 177T625 123Z"/><glyph unicode="P" horiz-adv-x="1116" d="M166 0V1333H592Q805 1333 923 1224T1042 907Q1042 704 924 590T592 475H371V0H166ZM371 621H578Q713 621 769 682T825 891V922Q825 1065 768 1119T573 1174H371V621Z"/><glyph unicode="Q" horiz-adv-x="1247" d="M766 47L1032 -236L799 -276L623 -27H621Q368 -27 231 153T94 670Q94 997 233 1177T625 1358Q878 1358 1015 1178T1153 674Q1153 233 928 66L766 47ZM625 117Q790 117 863 243T936 649V719Q936 888 903 993T804 1147T623 1196Q465 1196 387 1086T309 711V643Q309 369 383 243T625 117Z"/><glyph unicode="R" horiz-adv-x="1157" d="M711 551L834 455L1077 0H858L582 532H371V0H166V1333H592Q821 1333 934 1228T1047 930Q1047 767 960 669T711 551ZM371 670H578Q715 670 771 725T827 915V946Q827 1077 769 1125T573 1174H371V670Z"/><glyph unicode="S" horiz-adv-x="1012" d="M492 -29Q344 -29 252 0T94 66L131 211Q217 174 292 151T463 127Q594 127 657 172T721 344Q721 442 673 488T471 578Q312 620 242 668T138 792T104 981Q104 1165 210 1261T516 1358Q639 1358 718 1340T862 1292L834 1137L759 1159Q647 1192 522 1192Q401 1192 348 1150T295 999Q295 924 314 888T381 827T541 772Q692 731 768 681T882 555T920 369Q920 172 811 72T492 -29Z"/><glyph unicode="T" horiz-adv-x="999" d="M397 1167H53V1333H946V1167H602V0H397V1167Z"/><glyph unicode="U" horiz-adv-x="1227" d="M854 201V1333H1061V0H934L877 131L795 18Q684 -29 553 -29Q345 -29 252 102T158 498V1333H362V442Q362 260 412 194T592 127Q684 127 744 149T854 201Z"/><glyph unicode="V" horiz-adv-x="1169" d="M492 0L59 1333H272L539 451L596 129L655 451L922 1333H1112L686 0H492Z"/><glyph unicode="W" horiz-adv-x="1565" d="M362 0L57 1333H268L422 573L471 111L528 549L690 1333H901L1067 549L1120 111L1176 573L1337 1333H1516L1208 0H1001L838 778L788 1210L735 778L567 0H362Z"/><glyph unicode="X" horiz-adv-x="1090" d="M53 0L424 686L70 1333H297L487 969L569 754L639 969L821 1333H1012L662 688L1036 0H809L604 393L514 610L444 393L244 0H53Z"/><glyph unicode="Y" horiz-adv-x="1085" d="M451 0V473L47 1333H266L500 793L561 532L623 793L848 1333H1038L655 483V0H451Z"/><glyph unicode="Z" horiz-adv-x="1016" d="M92 0V188L651 1069L764 1196L565 1176H115V1333H918V1137L365 270L231 125L449 154H922V0H92Z"/><glyph unicode="[" horiz-adv-x="588" d="M133 -213V1470H508V1331H319V-74H508V-213H133Z"/><glyph unicode="\" horiz-adv-x="829" d="M647 -205L33 1470H190L805 -205H647Z"/><glyph unicode="]" horiz-adv-x="588" d="M80 -213V-74H268V1331H80V1470H455V-213H80Z"/><glyph unicode="^" horiz-adv-x="1012" d="M119 834L403 1415H582L874 834H684L539 1155L489 1335L440 1155L289 834H119Z"/><glyph unicode="_" horiz-adv-x="582" d="M4 -332V-203H578V-332H4Z"/><glyph unicode="`" horiz-adv-x="1053" d="M475 1214L242 1550H477L586 1214H475Z"/><glyph unicode="a" horiz-adv-x="1001" d="M649 635V745Q649 827 614 880T477 934Q359 934 160 864L131 1010Q203 1040 291 1067T489 1094Q674 1094 755 997T836 680V176Q836 133 851 119T901 104H944L950 12Q903 -23 831 -23Q778 -23 735 -8L659 111L569 6Q494 -29 391 -29Q243 -29 164 51T84 281Q84 436 169 512T473 614L649 635ZM649 195V520L485 500Q369 485 318 443T266 297V281Q266 188 311 147T449 106Q578 106 649 195Z"/><glyph unicode="b" horiz-adv-x="1063" d="M301 121L244 -6H152V1470H340V983Q451 1094 602 1094Q782 1094 878 958T975 537Q975 244 876 108T584 -29Q495 -29 416 4L301 121ZM340 846V174Q438 102 549 102Q667 102 723 192T780 494V565Q780 758 731 849T561 940Q479 940 426 907T340 846Z"/><glyph unicode="c" horiz-adv-x="868" d="M508 -29Q303 -29 195 113T86 537Q86 1094 508 1094Q661 1094 799 1030L770 887Q700 909 642 922T520 936Q426 936 378 899T306 782T283 559V526Q283 307 338 215T520 123Q594 123 652 142T778 193L809 51Q663 -29 508 -29Z"/><glyph unicode="d" horiz-adv-x="1059" d="M719 1004V1470H907V0H791L727 127L614 6Q550 -23 471 -23Q283 -23 186 118T88 539Q88 807 190 950T473 1094Q610 1094 719 1004ZM719 205V864Q619 940 508 940Q422 940 376 904T306 788T283 573V496Q283 281 342 194T510 106Q575 106 620 133T719 205Z"/><glyph unicode="e" horiz-adv-x="987" d="M283 477Q287 281 346 202T545 123Q621 123 688 143T825 193L856 53Q809 27 722 -1T532 -29Q311 -29 199 112T86 535Q86 821 202 957T512 1094Q701 1094 799 968T897 594V477H283ZM283 612H715V645Q715 815 665 884T514 954Q392 954 341 872T283 612Z"/><glyph unicode="f" horiz-adv-x="637" d="M180 932H49V1073H180V1196Q180 1346 245 1417T430 1489Q544 1489 635 1442L627 1337H467Q412 1337 390 1315T367 1243V1073H604V932H367V0H180V932Z"/><glyph unicode="g" horiz-adv-x="1006" d="M733 1030L977 1116V940H735L868 854Q874 831 879 809T885 752Q885 589 787 494T494 399Q387 399 313 432Q260 393 260 336Q260 233 393 233H629Q954 233 954 -33Q954 -194 828 -281T477 -369Q276 -369 174 -299T72 -106Q72 -19 125 41L244 100Q111 140 111 279Q111 358 154 412L268 473L145 551Q98 643 98 745Q98 911 205 1002T494 1094Q633 1094 733 1030ZM494 526Q598 526 647 574T696 731V758Q696 856 647 905T494 954Q385 954 336 905T287 760V733Q287 623 336 575T494 526ZM315 82Q236 14 236 -78Q236 -156 294 -192T481 -229Q631 -229 704 -176T778 -51V-39Q778 12 748 47T627 82H315Z"/><glyph unicode="h" horiz-adv-x="1063" d="M340 860V0H152V1470H340V940L436 1051Q530 1094 631 1094Q920 1094 920 754V0H731V778Q731 870 688 905T573 940Q502 940 451 919T340 860Z"/><glyph unicode="i" horiz-adv-x="506" d="M254 1255Q205 1255 168 1288T131 1374Q131 1427 168 1461T254 1495Q303 1495 339 1461T375 1374Q375 1321 339 1288T254 1255ZM158 0V1073H346V0H158Z"/><glyph unicode="j" horiz-adv-x="496" d="M248 1255Q199 1255 163 1288T127 1374Q127 1427 163 1461T248 1495Q297 1495 333 1461T369 1374Q369 1321 333 1288T248 1255ZM127 -348Q13 -348 -63 -301L-49 -201H63Q115 -201 135 -179T156 -109V1073H340V-53Q340 -348 127 -348Z"/><glyph unicode="k" horiz-adv-x="971" d="M340 365V0H152V1470H340V809L305 512L719 1073H920L553 602L688 465L940 0H733L453 526L340 365Z"/><glyph unicode="l" horiz-adv-x="516" d="M164 0V1470H352V0H164Z"/><glyph unicode="m" horiz-adv-x="1602" d="M881 932L987 1051Q1076 1094 1176 1094Q1458 1094 1458 754V0H1270V778Q1270 870 1230 905T1118 940Q1049 940 1001 918T899 860V0H711V778Q711 870 669 905T559 940Q494 940 444 920T340 864V0H152V1073H266L334 940L430 1051Q519 1094 618 1094Q725 1094 805 1051L881 932Z"/><glyph unicode="n" horiz-adv-x="1063" d="M336 936L436 1051Q530 1094 631 1094Q920 1094 920 754V0H731V778Q731 870 688 905T573 940Q502 940 451 919T340 860V0H152V1073H266L336 936Z"/><glyph unicode="o" horiz-adv-x="1034" d="M518 -29Q317 -29 202 115T86 532Q86 807 204 950T518 1094Q717 1094 832 953T948 539Q948 262 834 117T518 -29ZM518 117Q639 117 695 214T752 514V547Q752 752 701 848T518 944Q389 944 336 854T283 557V522Q283 314 338 216T518 117Z"/><glyph unicode="p" horiz-adv-x="1061" d="M332 944L432 1057Q524 1094 610 1094Q791 1094 882 953T973 535Q973 264 880 134T600 4Q458 4 340 96V-332H152V1073H266L332 944ZM340 209Q375 184 429 158T557 131Q668 131 723 216T778 506V573Q778 770 728 855T563 940Q452 940 340 866V209Z"/><glyph unicode="q" horiz-adv-x="1061" d="M723 104Q678 66 616 35T463 4Q287 4 188 136T88 541Q88 815 184 954T459 1094Q568 1094 653 1055L758 942L819 1073H911V-332H723V104ZM723 868Q614 940 500 940Q387 940 335 852T283 573V506Q283 303 340 217T506 131Q582 131 636 160T723 217V868Z"/><glyph unicode="r" horiz-adv-x="766" d="M336 928L444 1059Q521 1094 594 1094Q673 1094 729 1063L694 891Q626 920 545 920Q483 920 435 899T340 844V0H152V1073H266L336 928Z"/><glyph unicode="s" horiz-adv-x="836" d="M395 -29Q223 -29 84 39L106 178Q160 156 228 136T377 115Q475 115 527 151T580 283Q580 341 563 370T499 420T338 469Q200 503 139 578T78 778Q78 940 174 1017T430 1094Q604 1094 721 1032L692 895Q633 915 577 928T442 942Q346 942 299 912T252 788Q252 742 266 716T312 671T477 616Q633 576 696 501T760 291Q760 150 670 61T395 -29Z"/><glyph unicode="t" horiz-adv-x="678" d="M406 -23Q283 -23 229 45T174 254V932H47V1073H186L276 1362H362V1073H596V932H362V213Q362 160 381 141T459 121H612L623 20Q513 -23 406 -23Z"/><glyph unicode="u" horiz-adv-x="1059" d="M719 199V1073H907V0H791L723 131L631 18Q536 -23 430 -23Q297 -23 220 59T143 319V1073H332V297Q332 197 374 159T485 121Q561 121 613 142T719 199Z"/><glyph unicode="v" horiz-adv-x="942" d="M375 0L39 1073H236L424 412L477 68L530 412L723 1073H901L569 0H375Z"/><glyph unicode="w" horiz-adv-x="1370" d="M307 0L39 1073H231L377 428L408 106L469 496L606 1073H795L930 496L983 106L1014 428L1159 1073H1329L1063 0H874L741 578L692 940L641 578L498 0H307Z"/><glyph unicode="x" horiz-adv-x="936" d="M53 0L360 549L66 1073H266L408 813L485 608L549 813L680 1073H864L575 551L883 0H682L528 281L451 494L381 281L238 0H53Z"/><glyph unicode="y" horiz-adv-x="942" d="M272 -332L385 33L39 1073H233L426 446L477 135L532 446L723 1073H901L455 -332H272Z"/><glyph unicode="z" horiz-adv-x="864" d="M72 0V162L532 834L631 934L438 918H98V1073H788V901L334 231L223 121L422 145H795V0H72Z"/><glyph unicode="{" horiz-adv-x="629" d="M422 -223Q317 -223 252 -160T186 27Q186 117 214 238Q242 358 242 397Q242 485 196 526T61 571V709Q150 713 196 752T242 879Q242 911 233 950T213 1033T194 1127T184 1233Q184 1350 253 1417T432 1485Q507 1485 561 1458L551 1337H473Q410 1337 389 1310T368 1239Q368 1211 375 1174L416 944Q423 905 423 871Q423 796 383 730T201 641Q342 618 383 554T425 409Q425 373 418 332L379 96Q372 57 372 27Q372 -15 391 -47T473 -80H551L561 -195Q541 -205 502 -214T422 -223Z"/><glyph unicode="|" horiz-adv-x="403" d="M127 -205V1470H276V-205H127Z"/><glyph unicode="}" horiz-adv-x="629" d="M207 -223Q166 -223 127 -214T68 -195L78 -80H156Q219 -80 239 -50T260 25Q260 53 254 88L213 334Q206 375 206 412Q206 488 246 553T428 641Q287 664 247 727T206 868Q206 905 213 948L250 1165Q256 1204 256 1234Q256 1277 238 1307T156 1337H78L68 1458Q122 1485 195 1485Q312 1485 378 1418T444 1239Q444 1182 435 1132T416 1037T397 956T387 885Q387 717 567 709V571Q481 567 434 528T387 403Q387 371 397 329Q444 119 444 33Q444 -98 379 -160T207 -223Z"/><glyph unicode="~" horiz-adv-x="829" d="M549 512Q498 512 463 537T397 596L342 653Q313 684 301 693T268 702Q236 702 224 665T211 557V530H96Q96 698 146 782T279 866Q333 866 370 836T485 725Q516 692 527 684T561 676Q592 676 604 714T616 819V846H733Q733 678 682 595T549 512Z"/><glyph unicode=" " horiz-adv-x="233"/><glyph unicode="¡" horiz-adv-x="543" d="M272 809Q213 809 171 848T129 952Q129 1016 171 1055T272 1094Q330 1094 373 1055T416 952Q416 887 373 848T272 809ZM166 -332V162L227 670H317L379 162V-332H166Z"/><glyph unicode="¢" horiz-adv-x="872" d="M489 121L520 119Q594 119 652 141T778 197L807 51Q667 -29 508 -29L444 -25L365 -285L252 -248L330 6Q86 115 86 537Q86 1094 508 1094Q586 1094 655 1077L733 1333L850 1298L489 121ZM610 932Q566 940 520 940Q388 940 334 856T279 559V526Q279 373 304 288T377 162L610 932Z"/><glyph unicode="£" horiz-adv-x="961" d="M494 592Q508 524 508 471Q508 340 397 223L233 129L479 160H899V0H111V154Q211 218 248 256T304 339T324 449Q324 513 297 592H88V741H229Q201 803 179 868T156 1014Q156 1177 260 1267T551 1358Q644 1358 731 1340T907 1272L870 1126Q799 1157 737 1175T586 1194Q469 1194 419 1153T369 1006V979Q369 913 390 857T436 741H752V592H494Z"/><glyph unicode="¤" horiz-adv-x="1152" d="M1056 392L940 284L740 500Q668 452 572 452Q480 452 408 500L208 284L92 392L300 608Q272 648 262 686T252 780Q252 883 300 952L92 1168L208 1276L408 1060Q480 1108 572 1108Q668 1108 740 1060L944 1276L1060 1156L852 952Q880 912 890 872T900 780Q900 684 848 608L1056 392ZM748 780Q748 860 698 910T572 960Q496 960 448 910T400 780Q400 700 450 652T572 604Q652 604 700 652T748 780Z"/><glyph unicode="¥" horiz-adv-x="1157" d="M846 872H1079V725H782L698 530H1079V381H678V0H479V381H78V530H453L365 725H78V872H297L90 1333H309L528 799L588 485L651 799L866 1333H1047L846 872Z"/><glyph unicode="¦" horiz-adv-x="408" d="M129 715V1470H279V715H129ZM129 -205V559H279V-205H129Z"/><glyph unicode="§" horiz-adv-x="926" d="M338 739Q260 774 203 841T145 1030Q145 1192 241 1275T498 1358Q675 1358 788 1296L758 1157Q696 1180 642 1192T510 1204Q412 1204 366 1167T319 1038Q319 987 338 955T396 901T545 846Q673 806 731 765T818 664T848 520Q848 386 752 303L588 258Q666 221 720 154T774 -33Q774 -195 678 -278T422 -362Q241 -362 127 -299L152 -166Q211 -188 266 -203T408 -219Q506 -219 553 -178T600 -45Q600 41 548 82T375 158Q213 203 146 280T78 492Q78 622 174 698L338 739ZM489 295Q586 328 632 370T678 496Q678 584 636 624T442 705Q340 676 294 635T248 508Q248 442 263 411T316 358T471 301L489 295Z"/><glyph unicode="¨" horiz-adv-x="1024" d="M690 1219Q643 1219 607 1252T571 1339Q571 1393 607 1427T690 1462Q739 1462 774 1428T809 1339Q809 1286 774 1253T690 1219ZM334 1219Q285 1219 250 1252T215 1339Q215 1393 250 1427T334 1462Q381 1462 417 1428T453 1339Q453 1286 417 1253T334 1219Z"/><glyph unicode="©" horiz-adv-x="1262" d="M627 -29Q350 -29 217 154T84 670Q84 1001 224 1179T631 1358Q898 1358 1038 1180T1178 674Q1178 317 1043 144T627 -29ZM627 57Q875 57 981 198T1087 674Q1087 977 979 1124T631 1272Q387 1272 281 1123T174 670Q174 356 277 207T627 57ZM641 197Q476 197 388 315T299 670Q299 897 388 1016T643 1135Q715 1135 765 1122T868 1087L850 958Q784 981 743 990T647 999Q563 999 515 932T467 698V651Q467 477 512 403T649 328Q709 328 750 342T850 379L887 262Q829 229 772 213T641 197Z"/><glyph unicode="ª" horiz-adv-x="897" d="M567 967V1055Q567 1126 539 1170T424 1214Q360 1214 295 1198T154 1159L131 1286Q197 1315 270 1336T436 1358Q596 1358 666 1275T737 1006V584Q737 549 749 537T788 524H825L829 442Q815 432 785 423T719 414Q676 414 637 428L575 530L502 436Q432 410 354 410Q226 410 159 478T92 670Q92 809 171 872T420 952L567 967ZM567 604V872L432 856Q334 844 297 807T260 684V672Q260 594 293 560T399 526Q502 526 567 604Z"/><glyph unicode="«" horiz-adv-x="950" d="M702 0L446 344V487L700 829H885L655 518L557 416L655 315L885 0H702ZM344 0L86 344V487L342 829H524L295 518L197 416L295 315L524 0H344Z"/><glyph unicode="¬" horiz-adv-x="1536" d="M1116 352V728H212V920H1296V352H1116Z"/><glyph unicode="­" horiz-adv-x="643" d="M109 520V698H535V520H109Z"/><glyph unicode="®" horiz-adv-x="938" d="M465 344Q262 344 166 478T70 856Q70 1090 169 1224T469 1358Q668 1358 768 1226T868 858Q868 596 770 470T465 344ZM465 420Q644 420 718 521T793 858Q793 1079 717 1181T469 1284Q295 1284 219 1179T143 856Q143 629 216 525T465 420ZM530 805L588 756L682 565H571L465 793H395V565H291V1147H473Q573 1147 622 1100T672 969Q672 909 643 864T530 805ZM395 860H467Q520 860 541 883T563 958V971Q563 1020 541 1041T467 1063H395V860Z"/><glyph unicode="¯" horiz-adv-x="1024" d="M274 1274V1436H750V1274H274Z"/><glyph unicode="°" horiz-adv-x="657" d="M330 745Q213 745 145 828T76 1053Q76 1147 108 1215T199 1321T330 1358Q443 1358 512 1276T582 1055Q582 916 515 831T330 745ZM330 848Q385 848 414 887T444 1034V1069Q444 1178 415 1214T330 1251Q270 1251 242 1215T213 1071V1038Q213 926 242 887T330 848Z"/><glyph unicode="±" horiz-adv-x="1536" d="M672 352V764H200V936H672V1352H864V936H1340V764H864V352H672ZM204 24V216H1336V24H204Z"/><glyph unicode="²" horiz-adv-x="686" d="M88 530V645Q115 731 155 783T295 924Q356 977 387 1013T418 1102V1118Q418 1182 389 1204T303 1227Q256 1227 215 1216T123 1184L100 1298Q200 1360 336 1360Q469 1360 529 1295T590 1124Q590 1068 571 1024T516 940T385 829Q330 788 291 752T236 653L231 637L373 655H580V530H88Z"/><glyph unicode="³" horiz-adv-x="721" d="M324 512Q172 512 76 569L102 676Q154 657 193 646T289 635Q365 635 401 662T438 756V774Q438 842 399 868T274 895H203V1004H260Q352 1004 389 1030T426 1116V1128Q426 1190 392 1211T289 1233Q238 1233 202 1225T115 1200L98 1313Q207 1360 317 1360Q455 1360 521 1301T588 1145Q588 1061 542 1020T410 956Q504 940 557 891T610 743Q610 639 535 576T324 512Z"/><glyph unicode="´" horiz-adv-x="1024" d="M440 1214L551 1550H784L553 1214H440Z"/><glyph unicode="µ" horiz-adv-x="1067" d="M727 199V1073H915V0H799L731 131L639 14Q569 -20 469 -20Q421 -20 406 -14L297 84L336 -106V-332H152V1073H340V297Q340 197 382 159T494 121Q569 121 621 142T727 199Z"/><glyph unicode="¶" horiz-adv-x="1040" d="M461 -205V664L313 637Q82 698 82 985Q82 1157 191 1245T483 1333H874V-205H743V1206H592V-205H461Z"/><glyph unicode="·" horiz-adv-x="514" d="M258 539Q197 539 152 581T106 688Q106 756 151 798T258 840Q319 840 363 798T408 688Q408 623 364 581T258 539Z"/><glyph unicode="¸" horiz-adv-x="1024" d="M510 -492Q457 -492 409 -478T332 -444L348 -358Q442 -397 496 -397Q604 -397 604 -319V-303Q604 -264 589 -248T532 -231Q498 -231 482 -239T444 -264L381 -213L467 0H567L494 -172L573 -139Q639 -143 687 -186T735 -307Q735 -403 669 -447T510 -492Z"/><glyph unicode="¹" horiz-adv-x="600" d="M96 530V633H215V1155H96V1229L293 1346H377V633H489V530H96Z"/><glyph unicode="º" horiz-adv-x="909" d="M459 422Q292 422 193 546T94 889Q94 1112 193 1235T459 1358Q621 1358 721 1237T821 895Q821 670 724 546T459 422ZM459 547Q560 547 603 621T647 870V901Q647 1082 603 1155T459 1229Q355 1229 312 1153T268 909V879Q268 705 312 626T459 547Z"/><glyph unicode="»" horiz-adv-x="948" d="M424 0L653 311L754 414L653 514L424 829H606L862 487V342L608 0H424ZM66 0L293 311L393 414L293 514L66 829H246L502 487V342L248 0H66Z"/><glyph unicode="¼" horiz-adv-x="1712" d="M78 530V633H199V1153H78V1227L276 1343H358V633H473V530H78ZM383 0L1137 1333H1278L522 0H383ZM1350 0V184H983V270L1307 815H1509V299H1614V184H1509V0H1350ZM1135 299H1354V539L1364 733L1294 571L1135 299Z"/><glyph unicode="½" horiz-adv-x="1712" d="M74 530V633H193V1153H74V1227L270 1343H354V633H467V530H74ZM358 0L1114 1333H1253L500 0H358ZM1102 0V117Q1132 208 1174 260T1309 393Q1370 444 1400 481T1430 571V588Q1430 653 1402 675T1315 698Q1268 698 1227 686T1137 655L1112 768Q1210 829 1348 829Q1483 829 1542 765T1602 596Q1602 538 1583 493T1526 408T1397 301Q1310 235 1284 200T1245 106L1384 127H1593V0H1102Z"/><glyph unicode="¾" horiz-adv-x="1712" d="M319 512Q170 512 74 569L100 676Q150 657 189 646T287 635Q362 635 399 662T436 756V774Q436 842 396 868T270 895H199V1004H256Q348 1004 385 1030T422 1116V1128Q422 1190 388 1211T285 1233Q233 1233 199 1225T113 1200L96 1313Q133 1329 184 1344T313 1360Q453 1360 519 1301T586 1145Q586 1061 540 1020T408 956Q502 940 554 891T606 743Q606 639 531 576T319 512ZM430 0L1186 1333H1325L571 0H430ZM1386 0V184H1020V270L1343 815H1546V299H1651V184H1546V0H1386ZM1169 299H1391V539L1401 733L1331 571L1169 299Z"/><glyph unicode="¿" horiz-adv-x="887" d="M522 809Q463 809 421 848T379 952Q379 1016 421 1055T522 1094Q580 1094 623 1055T666 952Q666 887 623 848T522 809ZM487 -358Q295 -358 194 -264T92 10Q92 173 174 267T457 406V670H598L627 442L629 409Q629 373 614 345T535 297Q415 255 376 228T321 158T305 33V12Q305 -104 351 -150T520 -197Q598 -197 661 -181T807 -135L836 -281Q782 -307 691 -332T487 -358Z"/><glyph unicode="À" horiz-adv-x="1174" d="M319 264L238 0H59L492 1333H692L1116 0H903L825 264H319ZM782 406L631 911L582 1176L522 911L365 406H782ZM648 1624L415 1960H650L759 1624H648Z"/><glyph unicode="Á" horiz-adv-x="1174" d="M319 264L238 0H59L492 1333H692L1116 0H903L825 264H319ZM782 406L631 911L582 1176L522 911L365 406H782ZM416 1624L527 1960H760L529 1624H416Z"/><glyph unicode="Â" horiz-adv-x="1174" d="M319 264L238 0H59L492 1333H692L1116 0H903L825 264H319ZM782 406L631 911L582 1176L522 911L365 406H782ZM281 1624L510 1985H662L893 1624H713L629 1780L582 1913L535 1780L443 1624H281Z"/><glyph unicode="Ã" horiz-adv-x="1174" d="M319 264L238 0H59L492 1333H692L1116 0H903L825 264H319ZM782 406L631 911L582 1176L522 911L365 406H782ZM696 1631Q655 1631 627 1647T571 1694L532 1739Q513 1760 502 1769T472 1778Q415 1778 415 1665V1645H308Q308 1780 359 1850T478 1921Q519 1921 548 1906T603 1858L640 1813Q661 1792 672 1783T702 1774Q759 1774 759 1885V1905H866Q866 1772 815 1702T696 1631Z"/><glyph unicode="Ä" horiz-adv-x="1174" d="M319 264L238 0H59L492 1333H692L1116 0H903L825 264H319ZM782 406L631 911L582 1176L522 911L365 406H782ZM765 1629Q718 1629 682 1662T646 1749Q646 1803 682 1837T765 1872Q814 1872 849 1838T884 1749Q884 1696 849 1663T765 1629ZM409 1629Q360 1629 325 1662T290 1749Q290 1803 325 1837T409 1872Q456 1872 492 1838T528 1749Q528 1696 492 1663T409 1629Z"/><glyph unicode="Å" horiz-adv-x="1174" d="M59 0L471 1278Q379 1334 379 1470Q379 1585 439 1641T586 1698Q672 1698 732 1642T793 1470Q793 1340 709 1282Q770 1076 1116 0H903L825 264H319L238 0H59ZM586 1337Q635 1337 659 1361T684 1470Q684 1554 660 1580T586 1606Q539 1606 513 1580T487 1470Q487 1386 513 1362T586 1337ZM365 406H782L631 911L582 1176L522 911L365 406Z"/><glyph unicode="Æ" horiz-adv-x="1700" d="M35 0L764 1333H1575V1167H1038V760H1499V606H1038V162H1610V0H836V264H379L236 0H35ZM455 406H836V938L854 1257L750 973L455 406Z"/><glyph unicode="Ç" horiz-adv-x="1036" d="M520 -20Q314 12 204 185T94 670Q94 1001 231 1179T629 1358Q733 1358 810 1339T956 1288L932 1126Q867 1147 783 1166T616 1186Q506 1186 443 1136T345 980T311 711V645Q311 383 385 258T621 133Q737 133 855 181L934 211L979 55Q806 -29 623 -29H616L555 -172L635 -139Q700 -143 748 -186T797 -307Q797 -403 731 -447T571 -492Q518 -492 470 -478T393 -444L410 -358Q504 -397 557 -397Q666 -397 666 -319V-303Q666 -264 651 -248T594 -231Q559 -231 543 -239T506 -264L442 -213L520 -20Z"/><glyph unicode="È" horiz-adv-x="1034" d="M166 0V1333H907V1167H371V760H831V606H371V162H944V0H166ZM578 1624L345 1960H580L689 1624H578Z"/><glyph unicode="É" horiz-adv-x="1034" d="M166 0V1333H907V1167H371V760H831V606H371V162H944V0H166ZM346 1624L457 1960H690L459 1624H346Z"/><glyph unicode="Ê" horiz-adv-x="1034" d="M166 0V1333H907V1167H371V760H831V606H371V162H944V0H166ZM211 1624L440 1985H592L823 1624H643L559 1780L512 1913L465 1780L373 1624H211Z"/><glyph unicode="Ë" horiz-adv-x="1034" d="M166 0V1333H907V1167H371V760H831V606H371V162H944V0H166ZM695 1629Q648 1629 612 1662T576 1749Q576 1803 612 1837T695 1872Q744 1872 779 1838T814 1749Q814 1696 779 1663T695 1629ZM339 1629Q290 1629 255 1662T220 1749Q220 1803 255 1837T339 1872Q386 1872 422 1838T458 1749Q458 1696 422 1663T339 1629Z"/><glyph unicode="Ì" horiz-adv-x="561" d="M178 0V1333H383V0H178ZM343 1624L110 1960H345L454 1624H343Z"/><glyph unicode="Í" horiz-adv-x="561" d="M178 0V1333H383V0H178ZM110 1624L221 1960H454L223 1624H110Z"/><glyph unicode="Î" horiz-adv-x="561" d="M178 0V1333H383V0H178ZM-24 1624L205 1985H357L588 1624H408L324 1780L277 1913L230 1780L138 1624H-24Z"/><glyph unicode="Ï" horiz-adv-x="561" d="M178 0V1333H383V0H178ZM460 1629Q413 1629 377 1662T341 1749Q341 1803 377 1837T460 1872Q509 1872 544 1838T579 1749Q579 1696 544 1663T460 1629ZM104 1629Q55 1629 20 1662T-15 1749Q-15 1803 20 1837T104 1872Q151 1872 187 1838T223 1749Q223 1696 187 1663T104 1629Z"/><glyph unicode="Ð" horiz-adv-x="1245" d="M186 588H37V741H186V1333H586Q872 1333 1012 1162T1153 670Q1153 334 1010 167T567 0H186V588ZM391 741H639V588H391V156H555Q707 156 785 203T898 355T934 645V709Q934 883 899 980T784 1122T551 1167H391V741Z"/><glyph unicode="Ñ" horiz-adv-x="1245" d="M168 0V1333H393L805 537L946 150L897 600V1333H1079V0H862L430 829L303 1196L348 770V0H168ZM731 1631Q690 1631 662 1647T606 1694L567 1739Q548 1760 537 1769T507 1778Q450 1778 450 1665V1645H343Q343 1780 394 1850T513 1921Q554 1921 583 1906T638 1858L675 1813Q696 1792 707 1783T737 1774Q794 1774 794 1885V1905H901Q901 1772 850 1702T731 1631Z"/><glyph unicode="Ò" horiz-adv-x="1247" d="M621 -29Q366 -29 230 154T94 670Q94 997 233 1177T625 1358Q879 1358 1016 1180T1153 674Q1153 331 1017 151T621 -29ZM625 123Q793 123 864 249T936 649V719Q936 888 903 993T804 1147T623 1196Q465 1196 387 1086T309 711V643Q309 459 342 345T442 177T625 123ZM684 1624L451 1960H686L795 1624H684Z"/><glyph unicode="Ó" horiz-adv-x="1247" d="M621 -29Q366 -29 230 154T94 670Q94 997 233 1177T625 1358Q879 1358 1016 1180T1153 674Q1153 331 1017 151T621 -29ZM625 123Q793 123 864 249T936 649V719Q936 888 903 993T804 1147T623 1196Q465 1196 387 1086T309 711V643Q309 459 342 345T442 177T625 123ZM451 1624L562 1960H795L564 1624H451Z"/><glyph unicode="Ô" horiz-adv-x="1247" d="M621 -29Q366 -29 230 154T94 670Q94 997 233 1177T625 1358Q879 1358 1016 1180T1153 674Q1153 331 1017 151T621 -29ZM625 123Q793 123 864 249T936 649V719Q936 888 903 993T804 1147T623 1196Q465 1196 387 1086T309 711V643Q309 459 342 345T442 177T625 123ZM317 1624L546 1985H698L929 1624H749L665 1780L618 1913L571 1780L479 1624H317Z"/><glyph unicode="Õ" horiz-adv-x="1247" d="M621 -29Q366 -29 230 154T94 670Q94 997 233 1177T625 1358Q879 1358 1016 1180T1153 674Q1153 331 1017 151T621 -29ZM625 123Q793 123 864 249T936 649V719Q936 888 903 993T804 1147T623 1196Q465 1196 387 1086T309 711V643Q309 459 342 345T442 177T625 123ZM732 1631Q691 1631 663 1647T607 1694L568 1739Q549 1760 538 1769T508 1778Q451 1778 451 1665V1645H344Q344 1780 395 1850T514 1921Q555 1921 584 1906T639 1858L676 1813Q697 1792 708 1783T738 1774Q795 1774 795 1885V1905H902Q902 1772 851 1702T732 1631Z"/><glyph unicode="Ö" horiz-adv-x="1247" d="M621 -29Q366 -29 230 154T94 670Q94 997 233 1177T625 1358Q879 1358 1016 1180T1153 674Q1153 331 1017 151T621 -29ZM625 123Q793 123 864 249T936 649V719Q936 888 903 993T804 1147T623 1196Q465 1196 387 1086T309 711V643Q309 459 342 345T442 177T625 123ZM801 1629Q754 1629 718 1662T682 1749Q682 1803 718 1837T801 1872Q850 1872 885 1838T920 1749Q920 1696 885 1663T801 1629ZM445 1629Q396 1629 361 1662T326 1749Q326 1803 361 1837T445 1872Q492 1872 528 1838T564 1749Q564 1696 528 1663T445 1629Z"/><glyph unicode="×" horiz-adv-x="1018" d="M616 623L885 348L776 242L510 512L244 242L135 348L403 621L135 895L244 1001L510 729L776 1001L885 895L616 623Z"/><glyph unicode="Ø" horiz-adv-x="1247" d="M993 1204Q1149 1020 1149 674Q1149 333 1013 152T616 -29Q469 -29 358 35L240 -182L125 -117L254 121Q92 298 92 670Q92 882 153 1038T334 1276T621 1358Q778 1358 893 1288L1001 1487L1114 1425L993 1204ZM348 293L815 1147Q745 1202 618 1202Q461 1202 382 1089T303 711V643Q303 416 348 293ZM897 1028L432 170Q500 115 621 115Q786 115 862 242T938 649V719Q938 920 897 1028Z"/><glyph unicode="Ù" horiz-adv-x="1227" d="M854 201V1333H1061V0H934L877 131L795 18Q684 -29 553 -29Q345 -29 252 102T158 498V1333H362V442Q362 260 412 194T592 127Q684 127 744 149T854 201ZM674 1624L441 1960H676L785 1624H674Z"/><glyph unicode="Ú" horiz-adv-x="1227" d="M854 201V1333H1061V0H934L877 131L795 18Q684 -29 553 -29Q345 -29 252 102T158 498V1333H362V442Q362 260 412 194T592 127Q684 127 744 149T854 201ZM441 1624L552 1960H785L554 1624H441Z"/><glyph unicode="Û" horiz-adv-x="1227" d="M854 201V1333H1061V0H934L877 131L795 18Q684 -29 553 -29Q345 -29 252 102T158 498V1333H362V442Q362 260 412 194T592 127Q684 127 744 149T854 201ZM307 1624L536 1985H688L919 1624H739L655 1780L608 1913L561 1780L469 1624H307Z"/><glyph unicode="Ü" horiz-adv-x="1227" d="M854 201V1333H1061V0H934L877 131L795 18Q684 -29 553 -29Q345 -29 252 102T158 498V1333H362V442Q362 260 412 194T592 127Q684 127 744 149T854 201ZM791 1629Q744 1629 708 1662T672 1749Q672 1803 708 1837T791 1872Q840 1872 875 1838T910 1749Q910 1696 875 1663T791 1629ZM435 1629Q386 1629 351 1662T316 1749Q316 1803 351 1837T435 1872Q482 1872 518 1838T554 1749Q554 1696 518 1663T435 1629Z"/><glyph unicode="Ý" horiz-adv-x="1085" d="M451 0V473L47 1333H266L500 793L561 532L623 793L848 1333H1038L655 483V0H451ZM372 1624L483 1960H716L485 1624H372Z"/><glyph unicode="Þ" horiz-adv-x="1112" d="M166 0V1333H371V1120H592Q819 1120 930 1005T1042 698Q1042 497 923 384T592 270H371V0H166ZM371 416H578Q713 416 769 476T825 682V713Q825 852 768 906T573 961H371V416Z"/><glyph unicode="ß" horiz-adv-x="1180" d="M766 -29Q662 -29 596 -9T483 37L506 176Q557 154 613 135T748 115Q848 115 886 151T924 270Q924 339 902 369T824 418L727 449Q627 479 581 517T512 614T489 762Q489 854 529 921T643 1024L758 1036V1085Q758 1200 740 1249T680 1320T559 1341Q430 1341 384 1265T338 1018V0H152V971Q152 1227 249 1358T561 1489Q748 1489 839 1386T930 1047V950L834 934Q735 918 699 886T662 770Q662 711 685 679T761 631Q861 602 919 579T1017 521T1080 430T1104 285Q1104 132 1016 52T766 -29Z"/><glyph unicode="à" horiz-adv-x="1001" d="M649 635V745Q649 827 614 880T477 934Q359 934 160 864L131 1010Q203 1040 291 1067T489 1094Q674 1094 755 997T836 680V176Q836 133 851 119T901 104H944L950 12Q903 -23 831 -23Q778 -23 735 -8L659 111L569 6Q494 -29 391 -29Q243 -29 164 51T84 281Q84 436 169 512T473 614L649 635ZM649 195V520L485 500Q369 485 318 443T266 297V281Q266 188 311 147T449 106Q578 106 649 195ZM561 1214L328 1550H563L672 1214H561Z"/><glyph unicode="á" horiz-adv-x="1001" d="M649 635V745Q649 827 614 880T477 934Q359 934 160 864L131 1010Q203 1040 291 1067T489 1094Q674 1094 755 997T836 680V176Q836 133 851 119T901 104H944L950 12Q903 -23 831 -23Q778 -23 735 -8L659 111L569 6Q494 -29 391 -29Q243 -29 164 51T84 281Q84 436 169 512T473 614L649 635ZM649 195V520L485 500Q369 485 318 443T266 297V281Q266 188 311 147T449 106Q578 106 649 195ZM586 1214L697 1550H930L699 1214H586Z"/><glyph unicode="â" horiz-adv-x="1001" d="M649 635V745Q649 827 614 880T477 934Q359 934 160 864L131 1010Q203 1040 291 1067T489 1094Q674 1094 755 997T836 680V176Q836 133 851 119T901 104H944L950 12Q903 -23 831 -23Q778 -23 735 -8L659 111L569 6Q494 -29 391 -29Q243 -29 164 51T84 281Q84 436 169 512T473 614L649 635ZM649 195V520L485 500Q369 485 318 443T266 297V281Q266 188 311 147T449 106Q578 106 649 195ZM452 1214L681 1575H833L1064 1214H884L800 1370L753 1503L706 1370L614 1214H452Z"/><glyph unicode="ã" horiz-adv-x="1001" d="M649 635V745Q649 827 614 880T477 934Q359 934 160 864L131 1010Q203 1040 291 1067T489 1094Q674 1094 755 997T836 680V176Q836 133 851 119T901 104H944L950 12Q903 -23 831 -23Q778 -23 735 -8L659 111L569 6Q494 -29 391 -29Q243 -29 164 51T84 281Q84 436 169 512T473 614L649 635ZM649 195V520L485 500Q369 485 318 443T266 297V281Q266 188 311 147T449 106Q578 106 649 195ZM867 1221Q826 1221 798 1237T742 1284L703 1329Q684 1350 673 1359T643 1368Q586 1368 586 1255V1235H479Q479 1370 530 1440T649 1511Q690 1511 719 1496T774 1448L811 1403Q832 1382 843 1373T873 1364Q930 1364 930 1475V1495H1037Q1037 1362 986 1292T867 1221Z"/><glyph unicode="ä" horiz-adv-x="1001" d="M649 635V745Q649 827 614 880T477 934Q359 934 160 864L131 1010Q203 1040 291 1067T489 1094Q674 1094 755 997T836 680V176Q836 133 851 119T901 104H944L950 12Q903 -23 831 -23Q778 -23 735 -8L659 111L569 6Q494 -29 391 -29Q243 -29 164 51T84 281Q84 436 169 512T473 614L649 635ZM649 195V520L485 500Q369 485 318 443T266 297V281Q266 188 311 147T449 106Q578 106 649 195ZM936 1219Q889 1219 853 1252T817 1339Q817 1393 853 1427T936 1462Q985 1462 1020 1428T1055 1339Q1055 1286 1020 1253T936 1219ZM580 1219Q531 1219 496 1252T461 1339Q461 1393 496 1427T580 1462Q627 1462 663 1428T699 1339Q699 1286 663 1253T580 1219Z"/><glyph unicode="å" horiz-adv-x="1001" d="M649 635V745Q649 827 614 880T477 934Q359 934 160 864L131 1010Q203 1040 291 1067T489 1094Q674 1094 755 997T836 680V176Q836 133 851 119T901 104H944L950 12Q903 -23 831 -23Q778 -23 735 -8L659 111L569 6Q494 -29 391 -29Q243 -29 164 51T84 281Q84 436 169 512T473 614L649 635ZM649 195V520L485 500Q369 485 318 443T266 297V281Q266 188 311 147T449 106Q578 106 649 195ZM758 1206Q672 1206 612 1261T551 1432Q551 1546 611 1602T758 1659Q844 1659 904 1603T965 1432Q965 1317 905 1262T758 1206ZM758 1300Q805 1300 830 1324T856 1432Q856 1516 831 1541T758 1567Q711 1567 686 1542T660 1432Q660 1348 685 1324T758 1300Z"/><glyph unicode="æ" horiz-adv-x="1528" d="M401 -29Q247 -29 166 50T84 281Q84 436 171 514T473 614L653 633V745Q653 827 616 880T477 934Q357 934 158 864L131 1010Q217 1044 301 1069T489 1094Q594 1094 665 1053T768 913Q809 1006 888 1050T1067 1094Q1256 1094 1354 968T1452 594V481H840Q840 289 898 206T1102 123Q1176 123 1246 144T1389 195L1409 53Q1360 25 1275 -2T1090 -29Q834 -29 729 168L584 8Q508 -29 401 -29ZM840 608H1270V645Q1270 815 1221 884T1069 954Q987 954 941 921T868 809T840 608ZM449 106Q500 106 538 120T608 157T694 248Q655 362 653 520L485 500Q362 487 314 441T266 297V281Q266 188 311 147T449 106Z"/><glyph unicode="ç" horiz-adv-x="868" d="M424 -23Q258 6 172 146T86 537Q86 1094 508 1094Q661 1094 799 1030L770 887Q700 909 642 922T520 936Q426 936 378 899T306 782T283 559V526Q283 307 338 215T520 123Q594 123 652 142T778 193L809 51Q675 -26 520 -29L459 -172L539 -139Q604 -143 652 -186T700 -307Q700 -403 634 -447T475 -492Q422 -492 374 -478T297 -444L313 -358Q407 -397 461 -397Q569 -397 569 -319V-303Q569 -264 554 -248T498 -231Q463 -231 447 -239T410 -264L346 -213L424 -23Z"/><glyph unicode="è" horiz-adv-x="987" d="M283 477Q287 281 346 202T545 123Q621 123 688 143T825 193L856 53Q809 27 722 -1T532 -29Q311 -29 199 112T86 535Q86 821 202 957T512 1094Q701 1094 799 968T897 594V477H283ZM283 612H715V645Q715 815 665 884T514 954Q392 954 341 872T283 612ZM554 1214L321 1550H556L665 1214H554Z"/><glyph unicode="é" horiz-adv-x="987" d="M283 477Q287 281 346 202T545 123Q621 123 688 143T825 193L856 53Q809 27 722 -1T532 -29Q311 -29 199 112T86 535Q86 821 202 957T512 1094Q701 1094 799 968T897 594V477H283ZM283 612H715V645Q715 815 665 884T514 954Q392 954 341 872T283 612ZM579 1214L690 1550H923L692 1214H579Z"/><glyph unicode="ê" horiz-adv-x="987" d="M283 477Q287 281 346 202T545 123Q621 123 688 143T825 193L856 53Q809 27 722 -1T532 -29Q311 -29 199 112T86 535Q86 821 202 957T512 1094Q701 1094 799 968T897 594V477H283ZM283 612H715V645Q715 815 665 884T514 954Q392 954 341 872T283 612ZM445 1214L674 1575H826L1057 1214H877L793 1370L746 1503L699 1370L607 1214H445Z"/><glyph unicode="ë" horiz-adv-x="987" d="M283 477Q287 281 346 202T545 123Q621 123 688 143T825 193L856 53Q809 27 722 -1T532 -29Q311 -29 199 112T86 535Q86 821 202 957T512 1094Q701 1094 799 968T897 594V477H283ZM283 612H715V645Q715 815 665 884T514 954Q392 954 341 872T283 612ZM929 1219Q882 1219 846 1252T810 1339Q810 1393 846 1427T929 1462Q978 1462 1013 1428T1048 1339Q1048 1286 1013 1253T929 1219ZM573 1219Q524 1219 489 1252T454 1339Q454 1393 489 1427T573 1462Q620 1462 656 1428T692 1339Q692 1286 656 1253T573 1219Z"/><glyph unicode="ì" horiz-adv-x="506" d="M158 0V1073H346V0H158ZM315 1214L82 1550H317L426 1214H315Z"/><glyph unicode="í" horiz-adv-x="506" d="M158 0V1073H346V0H158ZM82 1214L193 1550H426L195 1214H82Z"/><glyph unicode="î" horiz-adv-x="506" d="M158 0V1073H346V0H158ZM-52 1214L177 1575H329L560 1214H380L296 1370L249 1503L202 1370L110 1214H-52Z"/><glyph unicode="ï" horiz-adv-x="506" d="M158 0V1073H346V0H158ZM432 1219Q385 1219 349 1252T313 1339Q313 1393 349 1427T432 1462Q481 1462 516 1428T551 1339Q551 1286 516 1253T432 1219ZM76 1219Q27 1219 -8 1252T-43 1339Q-43 1393 -8 1427T76 1462Q123 1462 159 1428T195 1339Q195 1286 159 1253T76 1219Z"/><glyph unicode="ð" horiz-adv-x="1034" d="M598 1206L414 1114L362 1212L535 1298Q504 1343 469 1385T399 1470H575Q622 1429 672 1368L848 1456L899 1356L743 1278Q948 978 948 594Q948 -29 518 -29Q317 -29 202 104T86 508Q86 762 192 899T492 1036Q521 1036 575 1024L721 907Q681 1074 598 1206ZM516 891Q390 891 337 809T283 530V498Q283 290 337 204T518 117Q613 117 661 160T731 297T754 559V592Q754 687 739 809Q696 844 645 867T516 891Z"/><glyph unicode="ñ" horiz-adv-x="1063" d="M336 936L436 1051Q530 1094 631 1094Q920 1094 920 754V0H731V778Q731 870 688 905T573 940Q502 940 451 919T340 860V0H152V1073H266L336 936ZM640 1221Q599 1221 571 1237T515 1284L476 1329Q457 1350 446 1359T416 1368Q359 1368 359 1255V1235H252Q252 1370 303 1440T422 1511Q463 1511 492 1496T547 1448L584 1403Q605 1382 616 1373T646 1364Q703 1364 703 1475V1495H810Q810 1362 759 1292T640 1221Z"/><glyph unicode="ò" horiz-adv-x="1034" d="M518 -29Q317 -29 202 115T86 532Q86 807 204 950T518 1094Q717 1094 832 953T948 539Q948 262 834 117T518 -29ZM518 117Q639 117 695 214T752 514V547Q752 752 701 848T518 944Q389 944 336 854T283 557V522Q283 314 338 216T518 117ZM578 1214L345 1550H580L689 1214H578Z"/><glyph unicode="ó" horiz-adv-x="1034" d="M518 -29Q317 -29 202 115T86 532Q86 807 204 950T518 1094Q717 1094 832 953T948 539Q948 262 834 117T518 -29ZM518 117Q639 117 695 214T752 514V547Q752 752 701 848T518 944Q389 944 336 854T283 557V522Q283 314 338 216T518 117ZM602 1214L713 1550H946L715 1214H602Z"/><glyph unicode="ô" horiz-adv-x="1034" d="M518 -29Q317 -29 202 115T86 532Q86 807 204 950T518 1094Q717 1094 832 953T948 539Q948 262 834 117T518 -29ZM518 117Q639 117 695 214T752 514V547Q752 752 701 848T518 944Q389 944 336 854T283 557V522Q283 314 338 216T518 117ZM211 1214L440 1575H592L823 1214H643L559 1370L512 1503L465 1370L373 1214H211Z"/><glyph unicode="õ" horiz-adv-x="1034" d="M518 -29Q317 -29 202 115T86 532Q86 807 204 950T518 1094Q717 1094 832 953T948 539Q948 262 834 117T518 -29ZM518 117Q639 117 695 214T752 514V547Q752 752 701 848T518 944Q389 944 336 854T283 557V522Q283 314 338 216T518 117ZM626 1221Q585 1221 557 1237T501 1284L462 1329Q443 1350 432 1359T402 1368Q345 1368 345 1255V1235H238Q238 1370 289 1440T408 1511Q449 1511 478 1496T533 1448L570 1403Q591 1382 602 1373T632 1364Q689 1364 689 1475V1495H796Q796 1362 745 1292T626 1221Z"/><glyph unicode="ö" horiz-adv-x="1034" d="M518 -29Q317 -29 202 115T86 532Q86 807 204 950T518 1094Q717 1094 832 953T948 539Q948 262 834 117T518 -29ZM518 117Q639 117 695 214T752 514V547Q752 752 701 848T518 944Q389 944 336 854T283 557V522Q283 314 338 216T518 117ZM695 1219Q648 1219 612 1252T576 1339Q576 1393 612 1427T695 1462Q744 1462 779 1428T814 1339Q814 1286 779 1253T695 1219ZM339 1219Q290 1219 255 1252T220 1339Q220 1393 255 1427T339 1462Q386 1462 422 1428T458 1339Q458 1286 422 1253T339 1219Z"/><glyph unicode="÷" horiz-adv-x="1536" d="M208 684V896H1328V684H208ZM768 228Q704 228 656 276T608 388Q608 452 650 500T768 548Q840 548 884 500T928 388Q928 324 880 276T768 228ZM768 1028Q704 1028 656 1076T608 1188Q608 1252 650 1300T768 1348Q840 1348 884 1300T928 1188Q928 1124 880 1076T768 1028Z"/><glyph unicode="ø" horiz-adv-x="1034" d="M823 956Q944 813 944 539Q944 262 831 117T516 -29Q399 -29 305 25L197 -172L90 -113L211 104Q84 254 84 532Q84 807 201 950T516 1094Q639 1094 729 1038L831 1221L938 1163L823 956ZM301 266L662 913Q613 952 516 952Q388 952 331 858T274 557V522Q274 354 301 266ZM733 793L373 145Q424 109 516 109Q643 109 699 209T756 514V547Q756 690 733 793Z"/><glyph unicode="ù" horiz-adv-x="1059" d="M719 199V1073H907V0H791L723 131L631 18Q536 -23 430 -23Q297 -23 220 59T143 319V1073H332V297Q332 197 374 159T485 121Q561 121 613 142T719 199ZM590 1214L357 1550H592L701 1214H590Z"/><glyph unicode="ú" horiz-adv-x="1059" d="M719 199V1073H907V0H791L723 131L631 18Q536 -23 430 -23Q297 -23 220 59T143 319V1073H332V297Q332 197 374 159T485 121Q561 121 613 142T719 199ZM615 1214L726 1550H959L728 1214H615Z"/><glyph unicode="û" horiz-adv-x="1059" d="M719 199V1073H907V0H791L723 131L631 18Q536 -23 430 -23Q297 -23 220 59T143 319V1073H332V297Q332 197 374 159T485 121Q561 121 613 142T719 199ZM223 1214L452 1575H604L835 1214H655L571 1370L524 1503L477 1370L385 1214H223Z"/><glyph unicode="ü" horiz-adv-x="1059" d="M719 199V1073H907V0H791L723 131L631 18Q536 -23 430 -23Q297 -23 220 59T143 319V1073H332V297Q332 197 374 159T485 121Q561 121 613 142T719 199ZM707 1219Q660 1219 624 1252T588 1339Q588 1393 624 1427T707 1462Q756 1462 791 1428T826 1339Q826 1286 791 1253T707 1219ZM351 1219Q302 1219 267 1252T232 1339Q232 1393 267 1427T351 1462Q398 1462 434 1428T470 1339Q470 1286 434 1253T351 1219Z"/><glyph unicode="ý" horiz-adv-x="942" d="M272 -332L385 33L39 1073H233L426 446L477 135L532 446L723 1073H901L455 -332H272ZM300 1214L411 1550H644L413 1214H300Z"/><glyph unicode="þ" horiz-adv-x="1061" d="M340 94V-332H152V1470H340V983Q451 1094 602 1094Q782 1094 878 958T975 537Q975 244 879 108T596 -29Q518 -29 449 -4L340 94ZM340 846V182Q387 147 437 125T551 102Q677 102 728 195T780 494V565Q780 758 731 849T561 940Q479 940 426 907T340 846Z"/><glyph unicode="ÿ" horiz-adv-x="942" d="M272 -332L385 33L39 1073H233L426 446L477 135L532 446L723 1073H901L455 -332H272ZM906 1219Q859 1219 823 1252T787 1339Q787 1393 823 1427T906 1462Q955 1462 990 1428T1025 1339Q1025 1286 990 1253T906 1219ZM550 1219Q501 1219 466 1252T431 1339Q431 1393 466 1427T550 1462Q597 1462 633 1428T669 1339Q669 1286 633 1253T550 1219Z"/><glyph unicode="ı" horiz-adv-x="506" d="M158 0V1073H346V0H158Z"/><glyph unicode="Ł" horiz-adv-x="0"/><glyph unicode="ł" horiz-adv-x="0"/><glyph unicode="Œ" horiz-adv-x="1683" d="M676 0Q377 0 235 167T92 670Q92 989 232 1161T657 1333H1556V1167H1030V760H1481V606H1030V162H1593V0H676ZM688 156H825V1167H692Q538 1167 459 1121T344 977T309 709V645Q309 461 344 357T457 204T688 156Z"/><glyph unicode="œ" horiz-adv-x="1630" d="M938 481Q942 281 1000 202T1200 123Q1274 123 1344 144T1487 195L1507 53Q1458 25 1373 -2T1188 -29Q918 -29 842 199Q797 78 715 25T516 -29Q317 -29 202 115T86 532Q86 807 204 950T518 1094Q629 1094 716 1041T842 866Q879 985 967 1039T1165 1094Q1354 1094 1452 968T1550 594V481H938ZM938 608H1368V645Q1368 815 1319 884T1167 954Q1083 954 1037 918T966 806T938 608ZM518 117Q644 117 698 213T752 514V547Q752 752 701 848T518 944Q389 944 336 854T283 557V522Q283 304 339 211T518 117Z"/><glyph unicode="Š" horiz-adv-x="1012" d="M492 -29Q344 -29 252 0T94 66L131 211Q217 174 292 151T463 127Q594 127 657 172T721 344Q721 442 673 488T471 578Q312 620 242 668T138 792T104 981Q104 1165 210 1261T516 1358Q639 1358 718 1340T862 1292L834 1137L759 1159Q647 1192 522 1192Q401 1192 348 1150T295 999Q295 924 314 888T381 827T541 772Q692 731 768 681T882 555T920 369Q920 172 811 72T492 -29ZM432 1624L201 1985H381L465 1829L512 1696L559 1829L651 1985H813L584 1624H432Z"/><glyph unicode="š" horiz-adv-x="836" d="M395 -29Q223 -29 84 39L106 178Q160 156 228 136T377 115Q475 115 527 151T580 283Q580 341 563 370T499 420T338 469Q200 503 139 578T78 778Q78 940 174 1017T430 1094Q604 1094 721 1032L692 895Q633 915 577 928T442 942Q346 942 299 912T252 788Q252 742 266 716T312 671T477 616Q633 576 696 501T760 291Q760 150 670 61T395 -29ZM600 1214L369 1575H549L633 1419L680 1286L727 1419L819 1575H981L752 1214H600Z"/><glyph unicode="Ÿ" horiz-adv-x="1085" d="M451 0V473L47 1333H266L500 793L561 532L623 793L848 1333H1038L655 483V0H451ZM720 1629Q673 1629 637 1662T601 1749Q601 1803 637 1837T720 1872Q769 1872 804 1838T839 1749Q839 1696 804 1663T720 1629ZM364 1629Q315 1629 280 1662T245 1749Q245 1803 280 1837T364 1872Q411 1872 447 1838T483 1749Q483 1696 447 1663T364 1629Z"/><glyph unicode="Ž" horiz-adv-x="1016" d="M92 0V188L651 1069L764 1196L565 1176H115V1333H918V1137L365 270L231 125L449 154H922V0H92ZM434 1624L203 1985H383L467 1829L514 1696L561 1829L653 1985H815L586 1624H434Z"/><glyph unicode="ž" horiz-adv-x="864" d="M72 0V162L532 834L631 934L438 918H98V1073H788V901L334 231L223 121L422 145H795V0H72ZM614 1214L383 1575H563L647 1419L694 1286L741 1419L833 1575H995L766 1214H614Z"/><glyph unicode="ƒ" horiz-adv-x="778" d="M57 -362Q2 -362 -36 -347T-104 -315L-76 -209H25Q68 -209 84 -193T109 -133L272 809H115V950H295L338 1192Q367 1354 438 1419T621 1485Q690 1485 736 1470T817 1438L788 1331H647Q594 1331 571 1311T537 1237L485 950H690V809H463L303 -106Q276 -252 216 -307T57 -362Z"/><glyph unicode="ˆ" horiz-adv-x="1024" d="M205 1214L434 1575H586L817 1214H637L553 1370L506 1503L459 1370L367 1214H205Z"/><glyph unicode="ˇ" horiz-adv-x="1024" d="M438 1214L207 1575H387L471 1419L518 1286L565 1419L657 1575H819L590 1214H438Z"/><glyph unicode="˘" horiz-adv-x="0"/><glyph unicode="˙" horiz-adv-x="0"/><glyph unicode="˚" horiz-adv-x="1024" d="M512 1206Q426 1206 366 1261T305 1432Q305 1546 365 1602T512 1659Q598 1659 658 1603T719 1432Q719 1317 659 1262T512 1206ZM512 1300Q559 1300 584 1324T610 1432Q610 1516 585 1541T512 1567Q465 1567 440 1542T414 1432Q414 1348 439 1324T512 1300Z"/><glyph unicode="˛" horiz-adv-x="0"/><glyph unicode="˜" horiz-adv-x="1024" d="M621 1221Q580 1221 552 1237T496 1284L457 1329Q438 1350 427 1359T397 1368Q340 1368 340 1255V1235H233Q233 1370 284 1440T403 1511Q444 1511 473 1496T528 1448L565 1403Q586 1382 597 1373T627 1364Q684 1364 684 1475V1495H791Q791 1362 740 1292T621 1221Z"/><glyph unicode="˝" horiz-adv-x="0"/><glyph unicode="̄" horiz-adv-x="1024" d="M274 1274V1436H750V1274H274Z"/><glyph unicode="Δ" horiz-adv-x="0"/><glyph unicode="Ω" horiz-adv-x="0"/><glyph unicode="μ" horiz-adv-x="1067" d="M727 199V1073H915V0H799L731 131L639 14Q569 -20 469 -20Q421 -20 406 -14L297 84L336 -106V-332H152V1073H340V297Q340 197 382 159T494 121Q569 121 621 142T727 199Z"/><glyph unicode="π" horiz-adv-x="0"/><glyph unicode="–" horiz-adv-x="862" d="M102 539V682H760V539H102Z"/><glyph unicode="—" horiz-adv-x="1309" d="M102 539V682H1206V539H102Z"/><glyph unicode="‘" horiz-adv-x="498" d="M248 928Q188 928 147 967T106 1069Q106 1122 128 1169T180 1264L313 1473L369 1446L283 1182L350 1167Q391 1129 391 1071Q391 1006 349 967T248 928Z"/><glyph unicode="’" horiz-adv-x="498" d="M184 893L127 920L215 1184L147 1198Q106 1239 106 1294Q106 1360 147 1399T248 1438Q307 1438 349 1399T391 1296Q391 1243 370 1196T317 1102L184 893Z"/><glyph unicode="‚" horiz-adv-x="498" d="M184 -270L127 -244L215 18L147 33Q133 49 120 71T106 131Q106 195 147 234T248 274Q307 274 349 236T391 133Q391 80 370 33T317 -63L184 -270Z"/><glyph unicode="“" horiz-adv-x="872" d="M625 928Q565 928 524 967T483 1069Q483 1122 504 1169T557 1264L688 1473L745 1446L657 1182L727 1167Q766 1128 766 1071Q766 1006 725 967T625 928ZM248 928Q188 928 147 967T106 1069Q106 1122 128 1169T180 1264L313 1473L369 1446L283 1182L350 1167Q391 1129 391 1071Q391 1006 349 967T248 928Z"/><glyph unicode="”" horiz-adv-x="872" d="M561 893L504 920L592 1184L522 1198Q483 1237 483 1294Q483 1360 524 1399T625 1438Q684 1438 725 1399T766 1296Q766 1243 745 1197T692 1102L561 893ZM184 893L127 920L215 1184L147 1198Q106 1239 106 1294Q106 1360 147 1399T248 1438Q307 1438 349 1399T391 1296Q391 1243 370 1196T317 1102L184 893Z"/><glyph unicode="„" horiz-adv-x="872" d="M561 -270L504 -244L592 18L522 33Q483 78 483 131Q483 195 524 234T625 274Q684 274 725 236T766 133Q766 80 745 33T692 -63L561 -270ZM184 -270L127 -244L215 18L147 33Q133 49 120 71T106 131Q106 195 147 234T248 274Q307 274 349 236T391 133Q391 80 370 33T317 -63L184 -270Z"/><glyph unicode="†" horiz-adv-x="1006" d="M463 846L274 807H96V975H274L461 924L399 1124V1374H606V1124L543 924L731 975H909V807H731L541 846L606 610V274L547 -332H457L399 274V610L463 846Z"/><glyph unicode="‡" horiz-adv-x="1006" d="M461 846L274 807H96V975H274L463 924L399 1124V1374H606V1124L541 924L731 975H909V807H731L543 846L606 625V418L543 199L731 238H909V68H731L541 119L606 -82V-332H399V-82L463 119L274 68H96V238H274L461 199L399 418V625L461 846Z"/><glyph unicode="•" horiz-adv-x="686" d="M340 420Q241 420 172 490T102 662Q102 772 173 840T340 909Q440 909 512 841T584 662Q584 561 515 491T340 420Z"/><glyph unicode="…" horiz-adv-x="1452" d="M1192 -23Q1130 -23 1086 19T1042 127Q1042 195 1086 237T1192 279Q1255 279 1299 237T1343 127Q1343 61 1299 19T1192 -23ZM725 -23Q666 -23 621 19T575 127Q575 195 620 237T725 279Q788 279 832 237T877 127Q877 61 833 19T725 -23ZM258 -23Q199 -23 154 19T109 127Q109 195 154 237T258 279Q322 279 366 237T410 127Q410 61 366 19T258 -23Z"/><glyph unicode="‰" horiz-adv-x="2458" d="M395 512Q249 512 163 625T76 938Q76 1125 163 1241T399 1358Q546 1358 633 1245T721 942Q721 745 632 629T395 512ZM408 0L1161 1333H1303L547 0H408ZM2054 -29Q1902 -29 1819 89T1735 397Q1735 584 1821 700T2058 817Q2206 817 2294 703T2382 401Q2382 205 2293 88T2054 -29ZM1307 -29Q1156 -29 1072 88T987 397Q987 585 1074 701T1311 817Q1459 817 1545 704T1632 401Q1632 207 1545 89T1307 -29ZM397 633Q465 633 506 686T547 887V981Q547 1112 510 1170T397 1229Q328 1229 287 1176T246 979V885Q246 749 282 691T397 633ZM2056 92Q2126 92 2167 145T2208 346V440Q2208 584 2167 636T2056 688Q1989 688 1948 635T1907 438V344Q1907 206 1944 149T2056 92ZM1309 92Q1378 92 1419 145T1460 346V440Q1460 584 1419 636T1309 688Q1241 688 1200 635T1159 438V344Q1159 210 1195 151T1309 92Z"/><glyph unicode="‹" horiz-adv-x="590" d="M344 0L86 344V487L342 829H524L295 518L197 416L295 315L524 0H344Z"/><glyph unicode="›" horiz-adv-x="588" d="M66 0L293 311L393 414L293 514L66 829H246L502 487V342L248 0H66Z"/><glyph unicode="‽" horiz-adv-x="1264" d="M739 371L614 391L616 625Q616 686 636 714T725 758Q814 774 857 794T921 847T955 958T968 1070Q968 1165 914 1208T723 1251Q631 1251 506 1223L481 1366Q610 1409 756 1409Q960 1409 1069 1315T1178 1049Q1178 856 1084 760T784 637L739 371ZM410 350L203 793L55 1292L258 1360L408 860L498 383L410 350ZM575 -23Q518 -23 476 16T434 121Q434 184 476 224T575 264Q635 264 677 224T719 121Q719 55 677 16T575 -23Z"/><glyph unicode="⁄" horiz-adv-x="635" d="M-78 0L563 1333H713L72 0H-78Z"/><glyph unicode="€" horiz-adv-x="1090" d="M211 745H68V881H225Q263 1120 386 1239T709 1358Q807 1358 880 1340T1022 1292L993 1137L910 1163Q811 1194 700 1194Q581 1194 514 1120T428 881H809V745H418V573H809V440H430Q453 266 522 195T702 123Q778 123 840 139T999 201L1044 55Q888 -29 705 -29Q302 -29 225 440H68V573H211L209 621V709L211 745Z"/><glyph unicode="℗" horiz-adv-x="0"/><glyph unicode="™" horiz-adv-x="1511" d="M702 567V1333H879L1010 858L1040 635L1077 858L1214 1333H1397V567H1251V856L1280 1264L1202 924L1096 567H967L866 932L799 1264L823 866V567H702ZM270 1217H82V1333H606V1217H418V567H270V1217Z"/><glyph unicode="Ω" horiz-adv-x="0"/><glyph unicode="∂" horiz-adv-x="0"/><glyph unicode="∆" horiz-adv-x="0"/><glyph unicode="∏" horiz-adv-x="0"/><glyph unicode="∑" horiz-adv-x="0"/><glyph unicode="−" horiz-adv-x="0"/><glyph unicode="∕" horiz-adv-x="635" d="M-78 0L563 1333H713L72 0H-78Z"/><glyph unicode="∙" horiz-adv-x="514" d="M258 539Q197 539 152 581T106 688Q106 756 151 798T258 840Q319 840 363 798T408 688Q408 623 364 581T258 539Z"/><glyph unicode="√" horiz-adv-x="0"/><glyph unicode="∞" horiz-adv-x="0"/><glyph unicode="∫" horiz-adv-x="0"/><glyph unicode="≈" horiz-adv-x="0"/><glyph unicode="≠" horiz-adv-x="0"/><glyph unicode="≤" horiz-adv-x="0"/><glyph unicode="≥" horiz-adv-x="0"/><glyph unicode="◊" horiz-adv-x="0"/><glyph unicode="" horiz-adv-x="0"/><glyph unicode="ﬀ" horiz-adv-x="1231" d="M774 932H653V1073H774V1196Q774 1346 839 1417T1024 1489Q1140 1489 1231 1442L1221 1337H1061Q1008 1337 985 1315T961 1243V1073H1198V932H961V0H774V932ZM184 932H53V1073H184V1196Q184 1348 251 1418T436 1489Q547 1489 645 1444L637 1337H481Q420 1337 396 1315T371 1243V1073H567V932H371V0H184V932Z"/><glyph unicode="ﬁ" horiz-adv-x="1122" d="M864 1255Q811 1255 773 1289T735 1376Q735 1432 773 1465T864 1499Q918 1499 954 1466T991 1376Q991 1323 955 1289T864 1255ZM184 932H53V1073H184V1196Q184 1346 249 1417T432 1489Q528 1489 616 1442L606 1337H481Q420 1337 396 1315T371 1243V1073H604V932H371V0H184V932ZM770 0V1073H956V0H770Z"/><glyph unicode="ﬂ" horiz-adv-x="1110" d="M184 932H53V1073H184V1196Q184 1346 249 1417T432 1489Q530 1489 618 1442L608 1337H481Q420 1337 396 1315T371 1243V1073H604V932H371V0H184V932ZM758 0V1470H946V0H758Z"/><glyph unicode="ﬃ" horiz-adv-x="1712" d="M1454 1255Q1403 1255 1365 1289T1327 1376Q1327 1432 1365 1465T1454 1499Q1507 1499 1545 1466T1583 1376Q1583 1323 1545 1289T1454 1255ZM774 932H653V1073H774V1196Q774 1346 840 1417T1024 1489Q1124 1489 1206 1442L1196 1337H1073Q1012 1337 987 1315T961 1243V1073H1196V932H961V0H774V932ZM184 932H53V1073H184V1196Q184 1348 251 1418T436 1489Q547 1489 645 1444L637 1337H481Q420 1337 396 1315T371 1243V1073H567V932H371V0H184V932ZM1360 0V1073H1548V0H1360Z"/><glyph unicode="ﬄ" horiz-adv-x="1702" d="M774 932H653V1073H774V1196Q774 1346 840 1417T1024 1489Q1132 1489 1214 1442L1206 1337H1073Q1012 1337 987 1315T961 1243V1073H1196V932H961V0H774V932ZM184 932H53V1073H184V1196Q184 1348 251 1418T436 1489Q547 1489 645 1444L637 1337H481Q420 1337 396 1315T371 1243V1073H567V932H371V0H184V932ZM1350 0V1470H1536V0H1350Z"/></font>
</defs>
</svg>
