<?xml version="1.0" encoding="UTF-8"?><svg xmlns="http://www.w3.org/2000/svg" width="100%" height="100%"><defs><font id="web" horiz-adv-x="1371"><!--



NOTICE: This font software is the valuable property 
of Webtype LLC, The Font Bureau, Webtype and/or its 
suppliers and its use by you is covered under the terms 
of the Web Font license agreement between you and Webtype 
LLC. You may ONLY use this font software with the licensed 
web site. Except as specifically permitted by the license, 
you may not copy this font software. If you have any 
questions, please contact Webtype.com. 

For more information, please visit http://www.webtype.com/store/license/?id=23

Licensed to: nickmom.com

Serial number: SH-848
--><font-face font-family="" units-per-em="2048" panose-1="2 0 5 5 0 0 0 2 0 4" ascent="2232" descent="-797" alphabetic="0"/><missing-glyph horiz-adv-x="1024" d="M0 1434H1024V0H0V1434ZM102 102H922V1331H102V102Z"/><glyph unicode=" " horiz-adv-x="412"/><glyph unicode="!" horiz-adv-x="883" d="M197 457H684V0H197V457ZM205 1518H678L637 520H244L205 1518Z"/><glyph unicode="&quot;" horiz-adv-x="1300" d="M158 1518H588L565 729H180L158 1518ZM713 1518H1145L1120 729H737L713 1518Z"/><glyph unicode="#" horiz-adv-x="1647" d="M264 274H100V651H334L356 733H100V1110H424L498 1466H913L840 1110H952L1024 1466H1440L1368 1110H1546V733H1298L1278 651H1546V274H1208L1151 0H735L793 274H680L623 0H207L264 274ZM885 623L913 764H752L719 623H885Z"/><glyph unicode="$" horiz-adv-x="1499" d="M582 10Q197 46 20 231L268 483Q349 414 474 375T752 336Q851 336 909 347T994 380T1022 446Q1022 486 994 506T899 542T725 567Q516 589 408 622T234 706T134 830T100 1001Q100 1188 221 1304T582 1453V1610H913V1456Q1204 1426 1386 1294L1163 1020Q1100 1059 980 1087T752 1116Q613 1116 558 1094T502 1018Q502 979 528 959T617 923T817 893Q1041 867 1141 835T1301 754T1391 634T1421 469Q1421 282 1290 162T913 10V-193H582V10Z"/><glyph unicode="%" horiz-adv-x="2746" d="M588 453Q435 453 311 518T118 701T49 973Q49 1123 119 1241T314 1424T588 1489Q736 1489 860 1424T1053 1241T1122 973Q1122 820 1053 702T861 519T588 453ZM588 772Q657 772 697 824T737 973Q737 1063 697 1111T588 1159Q520 1159 477 1112T434 973Q434 877 476 825T588 772ZM1597 1466H1999L1149 0H748L1597 1466ZM2163 -18Q2011 -18 1887 47T1694 232T1624 504Q1624 654 1694 772T1889 955T2163 1020Q2311 1020 2435 955T2628 772T2697 504Q2697 350 2628 232T2434 48T2163 -18ZM2163 301Q2232 301 2272 354T2312 504Q2312 592 2272 640T2163 688Q2095 688 2052 641T2009 504Q2009 407 2051 354T2163 301Z"/><glyph unicode="&amp;" horiz-adv-x="1923" d="M645 -18Q355 -18 206 92T57 410Q57 571 147 681T442 856Q412 964 412 1055Q412 1201 474 1309T662 1479T944 1542Q1057 1542 1151 1496T1299 1365T1352 1174Q1352 991 1259 872T967 688Q1047 581 1151 514Q1203 568 1240 644T1319 864L1661 786Q1607 553 1479 383Q1527 371 1589 371Q1659 371 1741 385L1774 31Q1674 0 1573 0Q1331 0 1139 74Q926 -18 645 -18ZM702 322H739L774 324Q656 430 569 571Q492 527 492 442Q492 383 546 353T702 322ZM840 940Q932 963 969 1003T1006 1114Q1006 1154 984 1171T930 1188Q883 1188 854 1147T825 1040Q825 989 840 940Z"/><glyph unicode="'" horiz-adv-x="766" d="M158 1518H608L586 729H180L158 1518Z"/><glyph unicode="(" horiz-adv-x="1133" d="M606 -401Q483 -297 388 -138T240 215T186 623Q186 808 237 1002T390 1375T606 1651L922 1458Q804 1309 746 1188T659 926T631 627Q631 131 922 -209L606 -401Z"/><glyph unicode=")" horiz-adv-x="1133" d="M213 -209Q337 -49 389 63T472 313T502 623Q502 864 430 1078T213 1458L526 1651Q650 1546 745 1387T894 1034T948 627Q948 437 894 240T738 -134T526 -401L213 -209Z"/><glyph unicode="*" horiz-adv-x="1296" d="M518 735L268 553L98 862L385 977L98 1098L266 1403L518 1219L479 1520H813L774 1214L1028 1403L1198 1100L905 977L1198 860L1030 557L774 739L811 436H479L518 735Z"/><glyph unicode="+" horiz-adv-x="1518" d="M543 528H172V915H543V1284H975V915H1346V528H975V156H543V528Z"/><glyph unicode="," horiz-adv-x="676" d="M117 -166Q246 -107 272 -90T309 -54T319 0H94V467H582V143Q582 -35 554 -114T453 -250T217 -375L117 -166Z"/><glyph unicode="-" horiz-adv-x="831" d="M59 895H770V508H59V895Z"/><glyph unicode="." horiz-adv-x="676" d="M94 467H582V0H94V467Z"/><glyph unicode="/" horiz-adv-x="1288" d="M848 1518H1288L440 0H0L848 1518Z"/><glyph unicode="0" horiz-adv-x="1587" d="M797 -23Q588 -23 431 67T189 327T104 733Q104 966 187 1136T428 1398T797 1489Q1003 1489 1159 1398T1399 1136T1483 733Q1483 500 1399 329T1159 68T797 -23ZM797 354Q912 354 973 450T1034 733Q1034 1096 797 1096Q555 1096 555 733Q555 548 617 451T797 354Z"/><glyph unicode="1" horiz-adv-x="913" d="M293 1077Q218 1052 158 1048T55 1044V1413Q238 1413 335 1426T483 1466H721V0H293V1077Z"/><glyph unicode="2" horiz-adv-x="1419" d="M68 381L590 686Q700 751 758 795T841 875T866 971Q866 1036 816 1073T684 1110Q587 1110 523 1074T410 971L59 1178Q171 1343 332 1416T733 1489Q897 1489 1026 1432T1227 1271T1298 1034Q1298 876 1212 751T934 516L641 350H1327V0H68V381Z"/><glyph unicode="3" horiz-adv-x="1413" d="M723 -25Q443 -25 269 55T6 315L365 477Q406 400 481 367T676 334Q802 334 856 370T911 477Q911 532 875 559T751 597T465 608V911Q613 911 699 922T826 957T866 1028Q866 1080 819 1104T680 1128Q580 1128 513 1106T393 1024L61 1219Q147 1355 314 1423T715 1491Q889 1491 1019 1445T1219 1314T1290 1122Q1290 1005 1218 922T1020 807Q1179 776 1260 679T1341 432Q1341 290 1263 187T1045 30T723 -25Z"/><glyph unicode="4" horiz-adv-x="1462" d="M43 551L702 1466H1163L518 573H817L905 838H1208V573H1419V231H1208V0H809V231H43V551Z"/><glyph unicode="5" horiz-adv-x="1450" d="M731 -25Q467 -25 295 58T39 315L397 477Q475 334 709 334Q827 334 884 377T942 514Q942 670 733 670Q662 670 589 661T481 641L125 748L199 1466H1255V1098H532L510 891Q634 983 877 983Q1111 983 1242 858T1374 508Q1374 252 1208 114T731 -25Z"/><glyph unicode="6" horiz-adv-x="1511" d="M788 -23Q467 -23 281 167T94 684Q94 1489 922 1489Q1076 1489 1229 1458L1169 1096Q1041 1124 903 1124Q532 1124 532 825Q586 905 696 954T936 1004Q1169 1004 1304 873T1440 514Q1440 262 1268 120T788 -23ZM797 330Q893 330 950 380T1008 508Q1008 589 953 640T803 692Q693 692 621 644T549 516Q549 432 617 381T797 330Z"/><glyph unicode="7" horiz-adv-x="1403" d="M379 0Q379 419 496 682T858 1098H113V1466H1307V1204Q1068 1036 942 722T815 0H379Z"/><glyph unicode="8" horiz-adv-x="1491" d="M743 -39Q535 -39 386 21T157 188T78 430Q78 569 149 663T354 807Q256 853 202 933T147 1112Q147 1226 218 1314T421 1450T743 1499Q933 1499 1067 1450T1271 1314T1341 1112Q1341 1009 1286 929T1133 807Q1276 757 1344 667T1413 430Q1413 293 1334 187T1104 21T743 -39ZM743 287Q849 287 911 337T973 473Q973 562 912 612T743 662Q638 662 578 611T518 473Q518 389 577 338T743 287ZM743 901Q824 901 869 939T915 1040Q915 1100 870 1135T743 1171Q665 1171 619 1136T573 1040Q573 978 619 940T743 901Z"/><glyph unicode="9" horiz-adv-x="1509" d="M723 1489Q1052 1489 1234 1301T1417 782Q1417 -23 590 -23Q444 -23 283 8L342 358Q470 330 608 330Q807 330 893 397T979 629Q925 549 816 500T575 451Q343 451 208 585T72 952Q72 1204 244 1346T723 1489ZM715 1116Q618 1116 561 1068T504 942Q504 858 559 810T709 762Q821 762 892 809T963 934Q963 1016 897 1066T715 1116Z"/><glyph unicode=":" horiz-adv-x="717" d="M115 453H602V0H115V453ZM115 1180H602V729H115V1180Z"/><glyph unicode=";" horiz-adv-x="717" d="M137 -166Q267 -107 294 -89T330 -53T340 0H115V453H602V143Q602 -22 569 -105T460 -250T238 -375L137 -166ZM115 1180H602V729H115V1180Z"/><glyph unicode="&lt;" horiz-adv-x="1518" d="M231 567V852L1202 1331V938L690 711L1202 481V86L231 567Z"/><glyph unicode="=" horiz-adv-x="1518" d="M184 647H1333V260H184V647ZM184 1182H1333V797H184V1182Z"/><glyph unicode="&gt;" horiz-adv-x="1518" d="M315 479L827 707L315 936V1331L1286 850V563L315 86V479Z"/><glyph unicode="?" horiz-adv-x="1491" d="M494 465L490 543Q490 608 505 668T560 777T657 855T784 915Q881 956 905 972T941 1005T952 1053Q952 1101 903 1123T754 1145Q651 1145 574 1112T449 1018L98 1225Q311 1542 774 1542Q1069 1542 1230 1429T1391 1108Q1391 831 1110 713Q997 664 968 642T927 592T915 516L918 465H494ZM461 401H948V0H461V401Z"/><glyph unicode="@" horiz-adv-x="2150" d="M1114 -338Q777 -338 553 -229T220 88T111 594Q111 883 229 1095T588 1426T1145 1544Q1568 1544 1803 1346T2038 774Q2038 538 1983 379T1812 137T1505 55Q1403 55 1338 81T1236 152T1184 279Q1125 189 1030 138T827 86Q663 86 575 194T487 512Q487 679 554 829T737 1064T987 1149Q1095 1149 1178 1104T1298 983L1407 1128H1667L1530 471Q1510 371 1510 346Q1510 296 1538 270T1630 244Q1744 244 1803 379T1862 774Q1862 1066 1675 1220T1145 1374Q875 1374 678 1279T384 1010T287 594Q287 215 498 24T1114 -168Q1262 -168 1408 -139T1653 -61L1724 -211Q1603 -270 1446 -304T1114 -338ZM991 403Q1080 403 1138 474T1196 645Q1196 725 1161 766T1061 807Q979 807 929 731T879 539Q879 403 991 403Z"/><glyph unicode="A" horiz-adv-x="1690" d="M625 1528H1065L1679 0H1219L1149 178H516L446 0H14L625 1528ZM1004 551L831 993L659 551H1004Z"/><glyph unicode="B" horiz-adv-x="1561" d="M135 1518H852Q1175 1518 1321 1417T1468 1110Q1468 870 1174 784Q1350 748 1434 656T1518 414Q1518 277 1450 185T1239 46T846 0H135V1518ZM856 348Q1057 348 1057 477Q1057 540 1010 570T854 600H580V348H856ZM823 907Q913 907 960 936T1008 1034Q1008 1100 957 1127T801 1155H580V907H823Z"/><glyph unicode="C" horiz-adv-x="1608" d="M823 -23Q599 -23 423 75T151 353T55 760Q55 993 153 1169T440 1443T864 1542Q1119 1542 1303 1432T1571 1128L1167 946Q1123 1033 1040 1075T844 1118Q698 1118 608 1018T518 754Q518 583 607 483T846 383Q1082 383 1200 592L1583 414Q1476 200 1282 89T823 -23Z"/><glyph unicode="D" horiz-adv-x="1640" d="M135 0V1518H715Q1153 1518 1370 1329T1587 760Q1587 385 1357 193T686 0H135ZM721 395Q935 395 1031 482T1128 760Q1128 948 1032 1028T700 1108H588V395H721Z"/><glyph unicode="E" horiz-adv-x="1436" d="M135 1518H1329V1108H588V942H1272V586H588V393H1337V0H135V1518Z"/><glyph unicode="F" horiz-adv-x="1419" d="M135 1518H1339V1108H588V848H1305V473H588V0H135V1518Z"/><glyph unicode="G" horiz-adv-x="1657" d="M723 -23Q540 -23 386 74T143 347T55 741Q55 986 152 1167T436 1446T864 1544Q1117 1544 1299 1436T1565 1135L1169 956Q1127 1047 1052 1088T856 1130Q705 1130 610 1028T514 760Q514 573 603 469T858 365Q977 365 1054 404T1151 512H836V848H1561V0H1300L1237 201Q1169 93 1034 35T723 -23Z"/><glyph unicode="H" horiz-adv-x="1749" d="M135 1518H588V981H1159V1518H1614V0H1159V555H588V0H135V1518Z"/><glyph unicode="I" horiz-adv-x="772" d="M160 1518H612V0H160V1518Z"/><glyph unicode="J" horiz-adv-x="1112" d="M408 -27Q302 -27 194 -12T12 25L98 403Q231 371 348 371Q447 371 491 407T535 532V1518H989V514Q989 244 851 109T408 -27Z"/><glyph unicode="K" horiz-adv-x="1634" d="M135 1518H582V926L1049 1518H1526L1030 913L1599 0H1092L743 561L582 365V0H135V1518Z"/><glyph unicode="L" horiz-adv-x="1311" d="M135 1518H588V393H1298V0H135V1518Z"/><glyph unicode="M" horiz-adv-x="2091" d="M135 1518H729L1044 664L1362 1518H1956V0H1511V897L1171 0H881L539 897V0H135V1518Z"/><glyph unicode="N" horiz-adv-x="1749" d="M135 1518H618L1180 768V1518H1614V0H1196L569 836V0H135V1518Z"/><glyph unicode="O" horiz-adv-x="1755" d="M879 -25Q642 -25 447 75T153 351T55 760Q55 993 153 1167T446 1441T879 1542Q1114 1542 1310 1442T1604 1168T1702 760Q1702 581 1645 437T1478 191T1212 33T879 -25ZM879 375Q1042 375 1141 480T1241 752Q1241 918 1141 1022T879 1126Q716 1126 615 1023T514 752Q514 584 615 480T879 375Z"/><glyph unicode="P" horiz-adv-x="1571" d="M135 1518H877Q1186 1518 1352 1376T1518 973Q1518 701 1343 554T850 406H578V0H135V1518ZM827 768Q1061 768 1061 948Q1061 1042 1006 1087T827 1133H578V768H827Z"/><glyph unicode="Q" horiz-adv-x="1755" d="M1004 -430Q846 -430 744 -390T586 -267T529 -37Q529 8 535 57Q299 137 177 319T55 764Q55 996 152 1169T444 1442T879 1542Q1118 1542 1313 1442T1605 1169T1702 764Q1702 546 1616 386T1352 135T934 35Q936 -18 963 -32T1075 -47Q1154 -47 1245 -31T1403 8L1505 -328Q1381 -377 1250 -403T1004 -430ZM879 375Q1042 375 1141 480T1241 752Q1241 918 1141 1022T879 1126Q716 1126 615 1023T514 752Q514 584 615 480T879 375Z"/><glyph unicode="R" horiz-adv-x="1585" d="M778 451H578V0H135V1518H854Q1161 1518 1328 1379T1495 985Q1495 653 1216 520L1479 0H1006L778 451ZM825 795Q948 795 997 836T1047 961Q1047 1048 999 1090T825 1133H578V795H825Z"/><glyph unicode="S" horiz-adv-x="1544" d="M799 -25Q237 -25 0 221L281 506Q464 350 784 350Q923 350 987 372T1051 451Q1051 502 984 527T756 567Q502 592 361 651T153 809T86 1047Q86 1207 169 1318T407 1485T778 1542Q1206 1542 1464 1360L1202 1044Q1133 1087 1015 1117T784 1147Q657 1147 598 1128T539 1063Q539 1025 566 1005T655 972T854 946Q1102 923 1238 867T1437 714T1501 475Q1501 244 1314 110T799 -25Z"/><glyph unicode="T" horiz-adv-x="1456" d="M500 1108H12V1518H1446V1108H956V0H500V1108Z"/><glyph unicode="U" horiz-adv-x="1726" d="M1606 1518V602Q1606 409 1514 262T1257 42T866 -31Q640 -31 475 41T217 261T123 602V1518H578V666Q578 511 649 440T872 369Q1028 369 1096 439T1165 666V1518H1606Z"/><glyph unicode="V" horiz-adv-x="1690" d="M25 1518H494L852 553L1208 1518H1667L1065 -10H625L25 1518Z"/><glyph unicode="W" horiz-adv-x="2222" d="M31 1518H494L705 705L936 1518H1331L1565 705L1776 1518H2191L1751 -10H1358L1112 842L864 -10H471L31 1518Z"/><glyph unicode="X" horiz-adv-x="1704" d="M831 461L537 0H37L598 797L96 1518H610L870 1145L1106 1518H1608L1104 809L1667 0H1151L831 461Z"/><glyph unicode="Y" horiz-adv-x="1640" d="M592 514L2 1518H477L827 901L1180 1518H1638L1044 508V0H592V514Z"/><glyph unicode="Z" horiz-adv-x="1462" d="M47 334L807 1108H82V1518H1386V1145L643 393H1409V0H47V334Z"/><glyph unicode="[" horiz-adv-x="1133" d="M205 1589H975V1239H645V-4H981V-338H205V1589Z"/><glyph unicode="\" horiz-adv-x="1288" d="M0 1518H440L1288 0H848L0 1518Z"/><glyph unicode="]" horiz-adv-x="1133" d="M152 -4H487V1239H160V1589H928V-338H152V-4Z"/><glyph unicode="^" horiz-adv-x="1518" d="M1380 496H985L756 1008L528 496H135L614 1466H899L1380 496Z"/><glyph unicode="_" horiz-adv-x="928" d="M-76 -55H1004V-373H-76V-55Z"/><glyph unicode="`" horiz-adv-x="1208" d="M215 1473L328 1802L973 1538L877 1264L215 1473Z"/><glyph unicode="a" horiz-adv-x="1395" d="M418 -23Q303 -23 217 25T84 159T37 356Q37 532 166 630T526 729Q674 729 815 692V729Q815 782 780 802T664 823Q562 823 453 805T283 762L141 1108Q235 1153 389 1181T711 1210Q968 1210 1103 1090T1239 733V301H1366V20Q1233 -20 1118 -20Q979 -20 920 17T842 141L829 197Q729 -23 418 -23ZM588 328Q698 328 756 365T815 469V496Q763 508 674 508Q446 508 446 416Q446 328 588 328Z"/><glyph unicode="b" horiz-adv-x="1444" d="M109 1589H541V993Q636 1206 926 1206Q1067 1206 1170 1132T1332 916T1391 592Q1391 414 1332 275T1161 59T901 -18Q761 -18 665 24T506 154L406 0H109V1589ZM764 346Q857 346 903 406T950 573Q950 686 903 748T764 811Q659 811 600 748T541 573Q541 464 596 405T764 346Z"/><glyph unicode="c" horiz-adv-x="1282" d="M668 -18Q376 -18 215 143T53 592Q53 766 128 907T341 1127T664 1206Q889 1206 1026 1132T1260 889L897 690Q832 809 690 809Q599 809 548 752T496 580Q496 346 692 346Q770 346 824 379T926 477L1251 268Q1057 -18 668 -18Z"/><glyph unicode="d" horiz-adv-x="1444" d="M518 -18Q375 -18 271 58T110 275T53 596Q53 772 112 911T281 1128T541 1206Q792 1206 901 1038V1589H1335V0H999L940 199Q890 99 782 41T518 -18ZM680 348Q782 348 841 415T901 596Q901 815 680 815Q586 815 540 758T494 596Q494 479 542 414T680 348Z"/><glyph unicode="e" horiz-adv-x="1300" d="M637 -25Q456 -25 325 46T123 258T53 592Q53 867 220 1036T690 1206Q872 1206 993 1139T1177 926T1239 535V455H485Q503 379 547 349T684 319Q900 319 1028 403L1227 133Q1107 52 964 14T637 -25ZM696 852Q601 852 549 812T481 686H848V690Q848 764 807 808T696 852Z"/><glyph unicode="f" horiz-adv-x="1038" d="M0 1180H242V1217Q242 1414 371 1527T731 1640Q943 1640 1067 1616L1016 1266Q924 1282 791 1282Q724 1282 700 1258T676 1186V1180H1028V811H676V0H242V811H0V1180Z"/><glyph unicode="g" horiz-adv-x="1323" d="M518 -367Q232 -367 101 -305T-31 -109Q-31 83 256 129Q198 149 163 197T127 309Q127 359 161 411T252 500Q33 592 33 803Q33 989 193 1097T627 1206Q722 1206 836 1194L1178 1391L1278 1040H1059Q1151 1002 1189 941T1227 776Q1227 621 1064 529T627 436Q556 436 492 442Q489 435 489 420Q489 393 518 384T630 375H689Q941 375 1073 347T1263 252T1321 51Q1321 -155 1116 -261T518 -367ZM578 -96Q736 -96 805 -75T874 0Q874 35 843 50T734 71T585 78Q502 78 455 57T408 -4Q408 -96 578 -96ZM627 674Q799 674 799 778Q799 883 627 883Q459 883 459 778Q459 674 627 674Z"/><glyph unicode="h" horiz-adv-x="1425" d="M109 1589H541V1018Q660 1206 924 1206Q1325 1206 1325 733V0H889V618Q889 710 852 753T737 797Q631 797 587 749T543 614V0H109V1589Z"/><glyph unicode="i" horiz-adv-x="664" d="M115 1180H549V0H115V1180ZM111 1589H553V1257H111V1589Z"/><glyph unicode="j" horiz-adv-x="664" d="M-43 -35L20 -37Q74 -37 94 -15T115 55V1180H549V100Q549 -80 503 -176T355 -316T74 -360Q-12 -360 -63 -356L-43 -35ZM111 1589H553V1257H111V1589Z"/><glyph unicode="k" horiz-adv-x="1329" d="M109 1589H537V770L860 1180H1307L926 702L1333 0H862L637 379L537 258V0H109V1589Z"/><glyph unicode="l" horiz-adv-x="664" d="M115 1589H549V0H115V1589Z"/><glyph unicode="m" horiz-adv-x="2159" d="M109 1180H446L506 985Q554 1087 656 1146T911 1206Q1004 1206 1068 1183T1175 1114T1253 975Q1308 1085 1418 1145T1669 1206Q1867 1206 1962 1089T2058 733V0H1622V618Q1622 717 1589 757T1483 797Q1389 797 1345 755T1300 614V0H864V618Q864 717 831 757T725 797Q631 797 587 755T543 614V0H109V1180Z"/><glyph unicode="n" horiz-adv-x="1425" d="M109 1180H446L506 985Q555 1089 665 1147T924 1206Q1325 1206 1325 733V0H889V618Q889 710 852 753T737 797Q631 797 587 749T543 614V0H109V1180Z"/><glyph unicode="o" horiz-adv-x="1401" d="M700 -23Q403 -23 228 141T53 592Q53 879 227 1042T700 1206Q896 1206 1043 1132T1269 919T1348 592Q1348 404 1269 265T1042 51T700 -23ZM700 346Q911 346 911 580Q911 811 700 811Q492 811 492 580Q492 346 700 346Z"/><glyph unicode="p" horiz-adv-x="1446" d="M109 1180H446L506 989Q560 1089 666 1147T928 1206Q1069 1206 1172 1132T1334 916T1393 592Q1393 414 1334 275T1163 59T903 -18Q774 -18 689 20T543 150V-338H109V1180ZM766 346Q859 346 905 406T952 573Q952 686 905 748T766 811Q661 811 602 748T543 573Q543 464 598 405T766 346Z"/><glyph unicode="q" horiz-adv-x="1446" d="M901 193Q857 92 760 37T518 -18Q375 -18 270 59T109 276T53 594Q53 772 112 911T285 1128T551 1206Q680 1206 771 1168T938 1032L1040 1180H1337V-338H901V193ZM680 348Q781 348 841 415T901 594Q901 815 680 815Q586 815 540 758T494 594Q494 479 542 414T680 348Z"/><glyph unicode="r" horiz-adv-x="993" d="M109 1180H446L512 940Q573 1044 658 1100T866 1180L973 758H943Q739 758 641 709T543 551V0H109V1180Z"/><glyph unicode="s" horiz-adv-x="1274" d="M635 -18Q439 -18 275 27T6 160L215 424Q288 368 411 333T664 297Q739 297 773 308T807 350Q807 384 766 397T578 420Q307 436 193 531T78 809Q78 997 222 1101T627 1206Q810 1206 947 1179T1190 1090L1014 780Q843 860 647 860Q567 860 532 850T496 809Q496 779 527 767T696 745Q833 737 902 724T1029 688T1130 625T1196 527T1221 391Q1221 184 1078 83T635 -18Z"/><glyph unicode="t" horiz-adv-x="1126" d="M588 -23Q403 -23 310 78T217 391V811H-12V1180H217L285 1518H649V1180H1024V811H649V510Q649 425 667 396T752 367Q861 367 977 401L1083 63Q990 23 857 0T588 -23Z"/><glyph unicode="u" horiz-adv-x="1421" d="M500 -16Q295 -16 199 96T102 457V1180H537V532Q537 438 574 396T688 354Q784 354 830 398T877 537V1180H1313V0H975L915 197Q870 100 757 42T500 -16Z"/><glyph unicode="v" horiz-adv-x="1356" d="M-8 1180H451L692 502L934 1180H1364L905 -12H451L-8 1180Z"/><glyph unicode="w" horiz-adv-x="1954" d="M20 1180H469L614 578L793 1180H1202L1380 580L1526 1180H1933L1571 -12H1169L977 608L784 -12H383L20 1180Z"/><glyph unicode="x" horiz-adv-x="1309" d="M629 299L440 0H-6L416 612L31 1180H510L676 934L829 1180H1276L893 616L1313 0H834L629 299Z"/><glyph unicode="y" horiz-adv-x="1292" d="M385 -360Q288 -360 185 -348T23 -317L106 20Q240 -8 322 -8Q420 -8 444 0L-8 1180H451L672 539L897 1180H1303L817 -80Q754 -240 662 -300T385 -360Z"/><glyph unicode="z" horiz-adv-x="1163" d="M23 285L557 811H55V1180H1124V889L588 346H1147V0H23V285Z"/><glyph unicode="{" horiz-adv-x="1208" d="M662 -338Q485 -338 385 -258T285 -35L287 2Q289 38 355 246Q382 331 382 363Q382 405 362 422T295 446T121 453V801Q250 801 296 807T362 830T382 888L381 911Q380 929 355 1007Q311 1144 299 1191T285 1286Q285 1428 385 1508T662 1589H1057V1239H887Q801 1239 768 1213T734 1133Q734 1101 749 1062Q789 951 802 899T816 805Q816 667 670 627Q816 584 816 446Q816 402 800 344T749 190Q734 150 734 119Q734 60 772 27T887 -6H1057V-338H662Z"/><glyph unicode="|" horiz-adv-x="850" d="M205 1589H645V-338H205V1589Z"/><glyph unicode="}" horiz-adv-x="1208" d="M152 -6H322Q396 -6 435 26T474 118Q474 150 460 190Q419 300 406 352T392 446Q392 584 539 627Q468 646 430 691T392 805Q392 849 408 907T460 1062Q474 1101 474 1133Q474 1189 439 1214T322 1239H152V1589H547Q724 1589 823 1508T924 1286L922 1249Q917 1202 875 1073Q847 989 837 952T826 888Q826 847 845 831T908 808T1087 801V453Q967 453 919 447T848 423T826 363L827 340Q832 309 875 179Q901 99 912 52T924 -35Q924 -176 824 -257T547 -338H152V-6Z"/><glyph unicode="~" horiz-adv-x="1518" d="M164 688Q379 954 573 954Q628 954 679 936T776 896T862 856T936 838Q975 838 1018 868T1118 967L1354 772Q1137 506 944 506Q890 506 840 524T744 564T658 604T582 623Q504 623 399 494L164 688Z"/><glyph unicode=" " horiz-adv-x="412"/><glyph unicode="¡" horiz-adv-x="883" d="M246 997H639L678 0H205L246 997ZM199 1518H686V1061H199V1518Z"/><glyph unicode="¢" horiz-adv-x="1290" d="M469 15Q271 61 162 210T53 592Q53 806 164 961T469 1169V1323H813V1186Q971 1168 1076 1097T1260 889L913 698Q876 764 819 796T690 829Q590 829 535 766T479 580Q479 326 692 326Q776 326 834 362T942 469L1251 268Q1100 46 813 4V-193H469V15Z"/><glyph unicode="£" horiz-adv-x="1503" d="M59 328Q228 352 296 389T365 492Q365 530 354 578H76V860H254Q223 957 223 1038Q223 1168 302 1272T525 1432T856 1489Q1030 1489 1169 1439T1405 1298L1151 1001Q1035 1104 846 1104Q653 1104 653 977Q653 923 670 860H985V578H748Q754 540 754 504Q754 441 743 383Q835 348 928 348Q1011 348 1047 387T1083 512Q1083 558 1073 618L1444 664Q1458 559 1458 496Q1458 238 1336 113T942 -12Q738 -12 541 98Q383 7 106 -20L59 328Z"/><glyph unicode="¤" horiz-adv-x="1516" d="M94 326L266 498Q211 598 211 741Q211 866 254 956L94 1118L360 1393L545 1206Q641 1237 756 1237Q872 1237 969 1204L1157 1395L1421 1120L1257 956Q1300 853 1300 741Q1300 608 1245 500L1419 328L1155 53L940 266Q854 244 756 244Q654 244 573 266L358 53L94 326ZM756 528Q841 528 897 585T954 729Q954 816 899 873T756 930Q669 930 613 874T557 729Q557 642 614 585T756 528Z"/><glyph unicode="¥" horiz-adv-x="1479" d="M156 688H489L8 1464H471L739 987L1010 1464H1470L987 688H1317V473H952V401H1317V186H952V0H522V186H156V401H522V473H156V688Z"/><glyph unicode="¦" horiz-adv-x="850" d="M205 465H645V-338H205V465ZM205 1589H645V786H205V1589Z"/><glyph unicode="§" horiz-adv-x="1382" d="M715 -358Q570 -358 456 -330T260 -254T135 -143L440 61Q487 8 549 -13T725 -35Q801 -35 828 -21T856 29Q856 63 806 78T627 99Q361 109 246 195T131 459Q131 567 181 642T348 768Q131 858 131 1096Q131 1285 282 1386T707 1487Q846 1487 959 1458T1155 1381T1278 1272L973 1067Q866 1163 711 1163Q625 1163 589 1149T553 1100Q553 1066 603 1051T787 1030Q960 1022 1068 988T1234 873T1292 670Q1292 551 1234 478T1051 369Q1179 310 1230 236T1282 33Q1282 -159 1137 -258T715 -358ZM745 418Q809 418 843 455T877 557Q877 624 821 667T672 711Q610 711 579 679T547 571Q547 500 599 459T745 418Z"/><glyph unicode="¨" horiz-adv-x="1208" d="M164 1610H553V1280H164V1610ZM655 1610H1044V1280H655V1610Z"/><glyph unicode="©" horiz-adv-x="1624" d="M813 -25Q607 -25 431 80T153 367T51 760Q51 974 155 1157T435 1442T813 1544Q1015 1544 1189 1442T1468 1157T1573 760Q1573 550 1472 369T1196 81T813 -25ZM813 119Q985 119 1122 199T1340 428T1421 760Q1421 942 1340 1091T1123 1321T813 1401Q639 1401 501 1320T283 1090T203 760Q203 579 283 430T501 200T813 119ZM805 289Q595 289 467 420T338 764Q338 904 395 1009T568 1176T829 1239Q1192 1239 1262 895L1006 854Q987 920 943 950T817 981Q729 981 674 921T618 760Q618 659 671 597T817 535Q969 535 1030 672L1264 588Q1214 443 1094 366T805 289Z"/><glyph unicode="ª" horiz-adv-x="1319" d="M432 502Q296 502 212 585T127 805Q127 945 231 1023T518 1102Q643 1102 750 1073V1102Q750 1146 719 1162T627 1178Q553 1178 465 1164T324 1128L211 1405Q280 1440 404 1463T666 1487Q871 1487 979 1391T1087 1106V760H1190V537Q1088 504 997 504Q884 504 835 535T770 633L760 676Q720 589 637 546T432 502ZM567 782Q654 782 702 811T750 895V915Q710 926 635 926Q455 926 455 852Q455 782 567 782ZM180 434H1090V133H180V434Z"/><glyph unicode="«" horiz-adv-x="1702" d="M162 588L471 1180H850L573 588L850 0H471L162 588ZM791 588L1100 1180H1479L1202 588L1479 0H1100L791 588Z"/><glyph unicode="¬" horiz-adv-x="1518" d="M899 528H158V915H1331V156H899V528Z"/><glyph unicode="­" horiz-adv-x="831" d="M59 895H770V508H59V895Z"/><glyph unicode="®" horiz-adv-x="1393" d="M698 354Q545 354 412 431T199 648T119 950Q119 1111 195 1249T406 1467T698 1548Q853 1548 986 1468T1197 1250T1274 950Q1274 786 1194 647T983 431T698 354ZM698 463Q831 463 936 526T1100 702T1159 950Q1159 1085 1100 1198T936 1374T698 1438Q565 1438 459 1374T293 1198T233 950Q233 815 292 703T458 527T698 463ZM422 1276L719 1274Q1004 1274 1004 1047Q1004 910 893 858L1001 639H780L690 829H629V639H422V1276ZM713 981Q758 981 778 993T799 1042Q799 1082 777 1094T700 1106H629V981H713Z"/><glyph unicode="¯" horiz-adv-x="1208" d="M164 1624H1044V1280H164V1624Z"/><glyph unicode="°" horiz-adv-x="1165" d="M582 477Q429 477 310 542T124 726T57 983Q57 1123 123 1240T309 1423T582 1489Q734 1489 854 1423T1041 1240T1108 983Q1108 843 1041 726T854 543T582 477ZM582 786Q663 786 714 838T766 971Q766 1052 715 1103T582 1155Q499 1155 449 1103T399 971Q399 891 450 839T582 786Z"/><glyph unicode="±" horiz-adv-x="1518" d="M543 772H172V1159H543V1466H975V1159H1346V772H975V461H543V772ZM172 387H1346V0H172V387Z"/><glyph unicode="²" horiz-adv-x="1135" d="M104 825L469 1040Q586 1109 625 1146T664 1225Q664 1257 634 1277T537 1298Q431 1298 365 1212L98 1372Q173 1483 289 1536T569 1589Q768 1589 881 1504T995 1272Q995 1162 935 1078T721 907L549 811H1014V547H104V825Z"/><glyph unicode="³" horiz-adv-x="1122" d="M573 530Q375 530 254 590T66 782L338 901Q388 801 537 801Q620 801 654 823T688 887Q688 938 627 954T381 971V1178Q483 1178 543 1185T630 1206T657 1249Q657 1317 537 1317Q467 1317 420 1299T352 1249L106 1395Q183 1499 296 1545T563 1591Q689 1591 783 1558T928 1465T979 1331Q979 1249 931 1192T793 1112Q905 1088 959 1020T1014 850Q1014 749 959 678T802 568T573 530Z"/><glyph unicode="´" horiz-adv-x="1208" d="M236 1534L881 1798L993 1468L332 1260L236 1534Z"/><glyph unicode="µ" horiz-adv-x="1427" d="M109 1180H543V532Q543 448 576 401T694 354Q791 354 837 398T883 537V1180H1319V0H981L922 197Q878 109 784 65T565 20H543V-338H109V1180Z"/><glyph unicode="¶" horiz-adv-x="1473" d="M414 457Q238 505 157 624T76 934Q76 1201 235 1333T733 1466H1333V0H926V422H821V0H414V457ZM926 748V1098H770Q637 1098 573 1058T508 920Q508 826 570 787T750 748H926Z"/><glyph unicode="·" horiz-adv-x="676" d="M94 1038H582V555H94V1038Z"/><glyph unicode="¸" horiz-adv-x="1208" d="M604 -518Q523 -518 444 -498T303 -442L399 -260Q506 -303 586 -303Q641 -303 667 -283T694 -233Q694 -170 581 -170L520 -174L451 -133L483 14H715L696 -86Q745 -69 795 -69Q876 -70 924 -122T973 -264Q973 -385 873 -451T604 -518Z"/><glyph unicode="¹" horiz-adv-x="778" d="M262 1280Q192 1257 100 1257V1536Q239 1536 305 1545T408 1573H586V547H262V1280Z"/><glyph unicode="º" horiz-adv-x="1278" d="M639 496Q397 496 256 629T115 993Q115 1223 256 1356T639 1489Q881 1489 1022 1356T1163 993Q1163 762 1022 629T639 496ZM639 799Q714 799 757 848T801 981Q801 1066 758 1114T639 1163Q564 1163 521 1114T477 981Q477 900 520 850T639 799ZM180 434H1098V133H180V434Z"/><glyph unicode="»" horiz-adv-x="1702" d="M602 0H223L500 588L223 1180H602L911 588L602 0ZM1231 0H852L1128 588L852 1180H1231L1540 588L1231 0Z"/><glyph unicode="¼" horiz-adv-x="2181" d="M221 1180Q151 1157 59 1157V1436Q198 1436 264 1445T367 1473H545V446H221V1180ZM1239 1466H1616L766 0H389L1239 1466ZM1688 150H1149V391L1608 1026H1960L1507 408H1694L1757 586H1991V408H2132V150H1991V0H1688V150Z"/><glyph unicode="½" horiz-adv-x="2318" d="M221 1180Q151 1157 59 1157V1436Q198 1436 264 1445T367 1473H545V446H221V1180ZM1239 1466H1616L766 0H389L1239 1466ZM1329 279L1694 494Q1806 560 1847 598T1888 678Q1888 710 1858 731T1761 752Q1655 752 1589 666L1323 825Q1397 935 1512 988T1794 1042Q1993 1042 2106 957T2220 725Q2220 615 2160 531T1946 360L1774 264H2238V0H1329V279Z"/><glyph unicode="¾" horiz-adv-x="2492" d="M1550 1466H1927L1077 0H700L1550 1466ZM1999 150H1460V391L1919 1026H2271L1819 408H2005L2068 586H2302V408H2443V150H2302V0H1999V150ZM541 430Q346 430 224 488T33 682L305 801Q354 700 504 700Q587 700 621 722T655 786Q655 837 594 853T348 870V1077Q451 1077 512 1084T599 1105T625 1149Q625 1217 504 1217Q435 1217 387 1199T319 1149L74 1294Q152 1399 264 1445T530 1491Q656 1491 750 1458T895 1365T946 1231Q946 1146 895 1088T760 1012Q872 988 926 920T981 750Q981 650 926 579T772 469T541 430Z"/><glyph unicode="¿" horiz-adv-x="1491" d="M717 -25Q421 -25 261 89T100 410Q100 546 167 643T381 805Q500 856 527 879T565 929T576 1002L573 1053H997L1001 975Q1001 910 986 849T931 741T834 663T707 602Q602 558 581 543T549 511T539 465Q539 417 588 395T737 373Q840 373 917 406T1042 500L1393 293Q1179 -25 717 -25ZM543 1518H1030V1116H543V1518Z"/><glyph unicode="À" horiz-adv-x="1690" d="M625 1528H1065L1679 0H1219L1149 178H516L446 0H14L625 1528ZM1004 551L831 993L659 551H1004ZM455 1788L568 2117L1213 1853L1117 1579L455 1788Z"/><glyph unicode="Á" horiz-adv-x="1690" d="M625 1528H1065L1679 0H1219L1149 178H516L446 0H14L625 1528ZM1004 551L831 993L659 551H1004ZM476 1849L1121 2113L1233 1783L572 1575L476 1849Z"/><glyph unicode="Â" horiz-adv-x="1690" d="M625 1528H1065L1679 0H1219L1149 178H516L446 0H14L625 1528ZM1004 551L831 993L659 551H1004ZM359 1816L768 2068H920L1334 1816L1219 1579L844 1730L471 1579L359 1816Z"/><glyph unicode="Ã" horiz-adv-x="1690" d="M625 1528H1065L1679 0H1219L1149 178H516L446 0H14L625 1528ZM1004 551L831 993L659 551H1004ZM320 1773Q410 1895 511 1959T709 2023Q758 2023 792 2010T855 1981T907 1952T961 1939Q1008 1939 1045 1966T1125 2052L1358 1857Q1272 1738 1169 1673T969 1607Q920 1607 886 1620T825 1649T773 1678T717 1691Q670 1691 632 1663T553 1579L320 1773Z"/><glyph unicode="Ä" horiz-adv-x="1690" d="M625 1528H1065L1679 0H1219L1149 178H516L446 0H14L625 1528ZM1004 551L831 993L659 551H1004ZM404 1925H793V1595H404V1925ZM895 1925H1284V1595H895V1925Z"/><glyph unicode="Å" horiz-adv-x="1690" d="M589 1431Q520 1515 520 1632Q520 1771 613 1867T844 1964Q929 1964 1003 1920T1121 1799T1165 1632Q1165 1526 1102 1441L1679 0H1219L1149 178H516L446 0H14L589 1431ZM1004 551L831 993L659 551H1004ZM844 1507Q893 1507 927 1543T961 1632Q961 1685 928 1723T844 1761Q794 1761 760 1724T725 1632Q725 1579 760 1543T844 1507Z"/><glyph unicode="Æ" horiz-adv-x="2423" d="M934 1518H2316V1108H1575V942H2259V586H1575V393H2324V0H1141V201H563L422 0H-14L934 1518ZM1141 565V1124L774 565H1141Z"/><glyph unicode="Ç" horiz-adv-x="1608" d="M823 -23Q599 -23 423 75T151 353T55 760Q55 993 153 1169T440 1443T864 1542Q1119 1542 1303 1432T1571 1128L1167 946Q1123 1033 1040 1075T844 1118Q698 1118 608 1018T518 754Q518 583 607 483T846 383Q1082 383 1200 592L1583 414Q1476 200 1282 89T823 -23ZM801 -518Q720 -518 641 -498T500 -442L596 -260Q703 -303 783 -303Q838 -303 864 -283T891 -233Q891 -170 778 -170L717 -174L648 -133L680 14H912L893 -86Q942 -69 992 -69Q1073 -70 1121 -122T1170 -264Q1170 -385 1070 -451T801 -518Z"/><glyph unicode="È" horiz-adv-x="1436" d="M135 1518H1329V1108H588V942H1272V586H588V393H1337V0H135V1518ZM328 1788L441 2117L1086 1853L990 1579L328 1788Z"/><glyph unicode="É" horiz-adv-x="1436" d="M135 1518H1329V1108H588V942H1272V586H588V393H1337V0H135V1518ZM349 1849L994 2113L1106 1783L445 1575L349 1849Z"/><glyph unicode="Ê" horiz-adv-x="1436" d="M135 1518H1329V1108H588V942H1272V586H588V393H1337V0H135V1518ZM232 1816L641 2068H793L1207 1816L1092 1579L717 1730L344 1579L232 1816Z"/><glyph unicode="Ë" horiz-adv-x="1436" d="M135 1518H1329V1108H588V942H1272V586H588V393H1337V0H135V1518ZM277 1925H666V1595H277V1925ZM768 1925H1157V1595H768V1925Z"/><glyph unicode="Ì" horiz-adv-x="772" d="M160 1518H612V0H160V1518ZM-3 1788L110 2117L755 1853L659 1579L-3 1788Z"/><glyph unicode="Í" horiz-adv-x="772" d="M160 1518H612V0H160V1518ZM18 1849L663 2113L775 1783L114 1575L18 1849Z"/><glyph unicode="Î" horiz-adv-x="772" d="M160 1518H612V0H160V1518ZM-99 1816L310 2068H462L876 1816L761 1579L386 1730L13 1579L-99 1816Z"/><glyph unicode="Ï" horiz-adv-x="772" d="M160 1518H612V0H160V1518ZM-54 1925H335V1595H-54V1925ZM437 1925H826V1595H437V1925Z"/><glyph unicode="Ð" horiz-adv-x="1640" d="M135 575H0V932H135V1518H715Q1153 1518 1370 1329T1587 760Q1587 385 1357 193T686 0H135V575ZM588 932H831V575H588V395H721Q943 395 1035 480T1128 760Q1128 891 1087 965T957 1074T700 1108H588V932Z"/><glyph unicode="Ñ" horiz-adv-x="1749" d="M135 1518H618L1180 768V1518H1614V0H1196L569 836V0H135V1518ZM350 1773Q440 1895 541 1959T739 2023Q788 2023 822 2010T885 1981T937 1952T991 1939Q1038 1939 1075 1966T1155 2052L1388 1857Q1302 1738 1199 1673T999 1607Q950 1607 916 1620T855 1649T803 1678T747 1691Q700 1691 662 1663T583 1579L350 1773Z"/><glyph unicode="Ò" horiz-adv-x="1755" d="M879 -25Q642 -25 447 75T153 351T55 760Q55 993 153 1167T446 1441T879 1542Q1114 1542 1310 1442T1604 1168T1702 760Q1702 581 1645 437T1478 191T1212 33T879 -25ZM879 375Q1042 375 1141 480T1241 752Q1241 918 1141 1022T879 1126Q716 1126 615 1023T514 752Q514 584 615 480T879 375ZM487 1788L600 2117L1245 1853L1149 1579L487 1788Z"/><glyph unicode="Ó" horiz-adv-x="1755" d="M879 -25Q642 -25 447 75T153 351T55 760Q55 993 153 1167T446 1441T879 1542Q1114 1542 1310 1442T1604 1168T1702 760Q1702 581 1645 437T1478 191T1212 33T879 -25ZM879 375Q1042 375 1141 480T1241 752Q1241 918 1141 1022T879 1126Q716 1126 615 1023T514 752Q514 584 615 480T879 375ZM508 1849L1153 2113L1265 1783L604 1575L508 1849Z"/><glyph unicode="Ô" horiz-adv-x="1755" d="M879 -25Q642 -25 447 75T153 351T55 760Q55 993 153 1167T446 1441T879 1542Q1114 1542 1310 1442T1604 1168T1702 760Q1702 581 1645 437T1478 191T1212 33T879 -25ZM879 375Q1042 375 1141 480T1241 752Q1241 918 1141 1022T879 1126Q716 1126 615 1023T514 752Q514 584 615 480T879 375ZM391 1816L800 2068H952L1366 1816L1251 1579L876 1730L503 1579L391 1816Z"/><glyph unicode="Õ" horiz-adv-x="1755" d="M879 -25Q642 -25 447 75T153 351T55 760Q55 993 153 1167T446 1441T879 1542Q1114 1542 1310 1442T1604 1168T1702 760Q1702 581 1645 437T1478 191T1212 33T879 -25ZM879 375Q1042 375 1141 480T1241 752Q1241 918 1141 1022T879 1126Q716 1126 615 1023T514 752Q514 584 615 480T879 375ZM352 1773Q442 1895 543 1959T741 2023Q790 2023 824 2010T887 1981T939 1952T993 1939Q1040 1939 1077 1966T1157 2052L1390 1857Q1304 1738 1201 1673T1001 1607Q952 1607 918 1620T857 1649T805 1678T749 1691Q702 1691 664 1663T585 1579L352 1773Z"/><glyph unicode="Ö" horiz-adv-x="1755" d="M879 -25Q642 -25 447 75T153 351T55 760Q55 993 153 1167T446 1441T879 1542Q1114 1542 1310 1442T1604 1168T1702 760Q1702 581 1645 437T1478 191T1212 33T879 -25ZM879 375Q1042 375 1141 480T1241 752Q1241 918 1141 1022T879 1126Q716 1126 615 1023T514 752Q514 584 615 480T879 375ZM436 1925H825V1595H436V1925ZM927 1925H1316V1595H927V1925Z"/><glyph unicode="×" horiz-adv-x="1518" d="M201 428L494 721L203 1010L469 1284L760 993L1051 1284L1315 1010L1024 721L1315 432L1051 158L760 449L465 156L201 428Z"/><glyph unicode="Ø" horiz-adv-x="1755" d="M879 -25Q737 -25 604 13L496 -166H145L333 147Q55 360 55 760Q55 993 153 1167T446 1441T879 1542Q1020 1542 1151 1504L1260 1683H1610L1423 1372Q1563 1267 1632 1112T1702 760Q1702 581 1645 437T1478 191T1212 33T879 -25ZM879 356Q1048 356 1154 465T1260 752Q1260 898 1181 1004L796 363Q831 356 879 356ZM496 752Q496 611 568 506L950 1139Q917 1145 879 1145Q708 1145 602 1036T496 752Z"/><glyph unicode="Ù" horiz-adv-x="1726" d="M1606 1518V602Q1606 409 1514 262T1257 42T866 -31Q640 -31 475 41T217 261T123 602V1518H578V666Q578 511 649 440T872 369Q1028 369 1096 439T1165 666V1518H1606ZM473 1788L586 2117L1231 1853L1135 1579L473 1788Z"/><glyph unicode="Ú" horiz-adv-x="1726" d="M1606 1518V602Q1606 409 1514 262T1257 42T866 -31Q640 -31 475 41T217 261T123 602V1518H578V666Q578 511 649 440T872 369Q1028 369 1096 439T1165 666V1518H1606ZM494 1849L1139 2113L1251 1783L590 1575L494 1849Z"/><glyph unicode="Û" horiz-adv-x="1726" d="M1606 1518V602Q1606 409 1514 262T1257 42T866 -31Q640 -31 475 41T217 261T123 602V1518H578V666Q578 511 649 440T872 369Q1028 369 1096 439T1165 666V1518H1606ZM377 1816L786 2068H938L1352 1816L1237 1579L862 1730L489 1579L377 1816Z"/><glyph unicode="Ü" horiz-adv-x="1726" d="M1606 1518V602Q1606 409 1514 262T1257 42T866 -31Q640 -31 475 41T217 261T123 602V1518H578V666Q578 511 649 440T872 369Q1028 369 1096 439T1165 666V1518H1606ZM422 1925H811V1595H422V1925ZM913 1925H1302V1595H913V1925Z"/><glyph unicode="Ý" horiz-adv-x="1640" d="M592 514L2 1518H477L827 901L1180 1518H1638L1044 508V0H592V514ZM451 1849L1096 2113L1208 1783L547 1575L451 1849Z"/><glyph unicode="Þ" horiz-adv-x="1581" d="M137 1518H590V1370H948Q1121 1370 1253 1300T1456 1100T1528 805Q1528 634 1454 499T1241 291T922 217H588V0H137V1518ZM838 580Q946 580 1008 632T1071 780Q1071 878 1012 931T838 985H588V580H838Z"/><glyph unicode="ß" horiz-adv-x="1561" d="M242 811H0V1180H242V1217Q242 1432 396 1536T866 1640Q1164 1640 1314 1543T1464 1247Q1464 1116 1397 1024T1204 889Q1361 855 1444 747T1528 477Q1528 218 1404 97T1010 -25Q867 -25 743 4L823 385Q891 369 950 369Q1021 369 1058 410T1096 526Q1096 613 1038 647T825 682V1016Q934 1016 986 1048T1038 1157Q1038 1224 998 1253T866 1282Q676 1282 676 1165V0H242V811Z"/><glyph unicode="à" horiz-adv-x="1395" d="M418 -23Q303 -23 217 25T84 159T37 356Q37 532 166 630T526 729Q674 729 815 692V729Q815 782 780 802T664 823Q562 823 453 805T283 762L141 1108Q235 1153 389 1181T711 1210Q968 1210 1103 1090T1239 733V301H1366V20Q1233 -20 1118 -20Q979 -20 920 17T842 141L829 197Q729 -23 418 -23ZM588 328Q698 328 756 365T815 469V496Q763 508 674 508Q446 508 446 416Q446 328 588 328ZM301 1473L414 1802L1059 1538L963 1264L301 1473Z"/><glyph unicode="á" horiz-adv-x="1395" d="M418 -23Q303 -23 217 25T84 159T37 356Q37 532 166 630T526 729Q674 729 815 692V729Q815 782 780 802T664 823Q562 823 453 805T283 762L141 1108Q235 1153 389 1181T711 1210Q968 1210 1103 1090T1239 733V301H1366V20Q1233 -20 1118 -20Q979 -20 920 17T842 141L829 197Q729 -23 418 -23ZM588 328Q698 328 756 365T815 469V496Q763 508 674 508Q446 508 446 416Q446 328 588 328ZM322 1534L967 1798L1079 1468L418 1260L322 1534Z"/><glyph unicode="â" horiz-adv-x="1395" d="M418 -23Q303 -23 217 25T84 159T37 356Q37 532 166 630T526 729Q674 729 815 692V729Q815 782 780 802T664 823Q562 823 453 805T283 762L141 1108Q235 1153 389 1181T711 1210Q968 1210 1103 1090T1239 733V301H1366V20Q1233 -20 1118 -20Q979 -20 920 17T842 141L829 197Q729 -23 418 -23ZM588 328Q698 328 756 365T815 469V496Q763 508 674 508Q446 508 446 416Q446 328 588 328ZM205 1501L614 1753H766L1180 1501L1065 1264L690 1415L317 1264L205 1501Z"/><glyph unicode="ã" horiz-adv-x="1395" d="M418 -23Q303 -23 217 25T84 159T37 356Q37 532 166 630T526 729Q674 729 815 692V729Q815 782 780 802T664 823Q562 823 453 805T283 762L141 1108Q235 1153 389 1181T711 1210Q968 1210 1103 1090T1239 733V301H1366V20Q1233 -20 1118 -20Q979 -20 920 17T842 141L829 197Q729 -23 418 -23ZM588 328Q698 328 756 365T815 469V496Q763 508 674 508Q446 508 446 416Q446 328 588 328ZM166 1458Q256 1580 357 1644T555 1708Q604 1708 638 1695T701 1666T753 1637T807 1624Q854 1624 891 1651T971 1737L1204 1542Q1118 1423 1015 1358T815 1292Q766 1292 732 1305T671 1334T619 1363T563 1376Q516 1376 478 1348T399 1264L166 1458Z"/><glyph unicode="ä" horiz-adv-x="1395" d="M418 -23Q303 -23 217 25T84 159T37 356Q37 532 166 630T526 729Q674 729 815 692V729Q815 782 780 802T664 823Q562 823 453 805T283 762L141 1108Q235 1153 389 1181T711 1210Q968 1210 1103 1090T1239 733V301H1366V20Q1233 -20 1118 -20Q979 -20 920 17T842 141L829 197Q729 -23 418 -23ZM588 328Q698 328 756 365T815 469V496Q763 508 674 508Q446 508 446 416Q446 328 588 328ZM250 1610H639V1280H250V1610ZM741 1610H1130V1280H741V1610Z"/><glyph unicode="å" horiz-adv-x="1395" d="M418 -23Q303 -23 217 25T84 159T37 356Q37 532 166 630T526 729Q674 729 815 692V729Q815 782 780 802T664 823Q562 823 453 805T283 762L141 1108Q235 1153 389 1181T711 1210Q968 1210 1103 1090T1239 733V301H1366V20Q1233 -20 1118 -20Q979 -20 920 17T842 141L829 197Q729 -23 418 -23ZM588 328Q698 328 756 365T815 469V496Q763 508 674 508Q446 508 446 416Q446 328 588 328ZM690 1257Q555 1257 461 1351T367 1585Q367 1724 460 1820T690 1917Q775 1917 849 1873T968 1752T1012 1585Q1012 1497 969 1421T850 1301T690 1257ZM690 1460Q738 1460 772 1495T807 1585Q807 1641 773 1677T690 1714Q640 1714 606 1677T571 1585Q571 1532 606 1496T690 1460Z"/><glyph unicode="æ" horiz-adv-x="2077" d="M1374 -25Q1226 -25 1128 15T971 150Q894 70 760 26T457 -18Q262 -18 150 81T37 356Q37 529 169 629T526 729Q648 729 815 692V733Q815 782 779 802T664 823Q562 823 453 805T283 762L141 1108Q235 1153 387 1181T690 1210Q919 1210 1047 1094Q1187 1206 1427 1206Q1609 1206 1730 1139T1914 926T1976 535V455H1223Q1238 382 1283 351T1421 319Q1637 319 1765 403L1964 133Q1844 52 1701 14T1374 -25ZM588 328Q698 328 756 365T815 469V496Q763 508 674 508Q446 508 446 416Q446 328 588 328ZM1585 686V690Q1585 763 1544 807T1434 852Q1251 852 1219 686H1585Z"/><glyph unicode="ç" horiz-adv-x="1282" d="M668 -18Q376 -18 215 143T53 592Q53 766 128 907T341 1127T664 1206Q889 1206 1026 1132T1260 889L897 690Q832 809 690 809Q599 809 548 752T496 580Q496 346 692 346Q770 346 824 379T926 477L1251 268Q1057 -18 668 -18ZM624 -518Q543 -518 464 -498T323 -442L419 -260Q526 -303 606 -303Q661 -303 687 -283T714 -233Q714 -170 601 -170L540 -174L471 -133L503 14H735L716 -86Q765 -69 815 -69Q896 -70 944 -122T993 -264Q993 -385 893 -451T624 -518Z"/><glyph unicode="è" horiz-adv-x="1300" d="M637 -25Q456 -25 325 46T123 258T53 592Q53 867 220 1036T690 1206Q872 1206 993 1139T1177 926T1239 535V455H485Q503 379 547 349T684 319Q900 319 1028 403L1227 133Q1107 52 964 14T637 -25ZM696 852Q601 852 549 812T481 686H848V690Q848 764 807 808T696 852ZM266 1473L379 1802L1024 1538L928 1264L266 1473Z"/><glyph unicode="é" horiz-adv-x="1300" d="M637 -25Q456 -25 325 46T123 258T53 592Q53 867 220 1036T690 1206Q872 1206 993 1139T1177 926T1239 535V455H485Q503 379 547 349T684 319Q900 319 1028 403L1227 133Q1107 52 964 14T637 -25ZM696 852Q601 852 549 812T481 686H848V690Q848 764 807 808T696 852ZM287 1534L932 1798L1044 1468L383 1260L287 1534Z"/><glyph unicode="ê" horiz-adv-x="1300" d="M637 -25Q456 -25 325 46T123 258T53 592Q53 867 220 1036T690 1206Q872 1206 993 1139T1177 926T1239 535V455H485Q503 379 547 349T684 319Q900 319 1028 403L1227 133Q1107 52 964 14T637 -25ZM696 852Q601 852 549 812T481 686H848V690Q848 764 807 808T696 852ZM170 1501L579 1753H731L1145 1501L1030 1264L655 1415L282 1264L170 1501Z"/><glyph unicode="ë" horiz-adv-x="1300" d="M637 -25Q456 -25 325 46T123 258T53 592Q53 867 220 1036T690 1206Q872 1206 993 1139T1177 926T1239 535V455H485Q503 379 547 349T684 319Q900 319 1028 403L1227 133Q1107 52 964 14T637 -25ZM696 852Q601 852 549 812T481 686H848V690Q848 764 807 808T696 852ZM215 1610H604V1280H215V1610ZM706 1610H1095V1280H706V1610Z"/><glyph unicode="ì" horiz-adv-x="664" d="M115 1180H549V0H115V1180ZM-56 1473L57 1802L702 1538L606 1264L-56 1473Z"/><glyph unicode="í" horiz-adv-x="664" d="M115 1180H549V0H115V1180ZM-35 1534L610 1798L722 1468L61 1260L-35 1534Z"/><glyph unicode="î" horiz-adv-x="664" d="M115 1180H549V0H115V1180ZM-152 1501L257 1753H409L823 1501L708 1264L333 1415L-40 1264L-152 1501Z"/><glyph unicode="ï" horiz-adv-x="664" d="M115 1180H549V0H115V1180ZM-107 1610H282V1280H-107V1610ZM384 1610H773V1280H384V1610Z"/><glyph unicode="ð" horiz-adv-x="1405" d="M700 -23Q499 -23 354 43T131 236T53 530Q53 680 114 796T290 975T559 1038Q770 1038 874 887Q850 1007 809 1110L610 1075V1323L694 1339Q660 1396 616 1440L954 1651Q1063 1566 1151 1417L1350 1450V1200L1262 1186Q1352 950 1352 705Q1352 476 1272 312T1043 63T700 -23ZM700 358Q807 358 859 407T911 545Q911 633 859 682T700 731Q595 731 544 682T492 545Q492 457 543 408T700 358Z"/><glyph unicode="ñ" horiz-adv-x="1425" d="M109 1180H446L506 985Q555 1089 665 1147T924 1206Q1325 1206 1325 733V0H889V618Q889 710 852 753T737 797Q631 797 587 749T543 614V0H109V1180ZM189 1458Q279 1580 380 1644T578 1708Q627 1708 661 1695T724 1666T776 1637T830 1624Q877 1624 914 1651T994 1737L1227 1542Q1141 1423 1038 1358T838 1292Q789 1292 755 1305T694 1334T642 1363T586 1376Q539 1376 501 1348T422 1264L189 1458Z"/><glyph unicode="ò" horiz-adv-x="1401" d="M700 -23Q403 -23 228 141T53 592Q53 879 227 1042T700 1206Q896 1206 1043 1132T1269 919T1348 592Q1348 404 1269 265T1042 51T700 -23ZM700 346Q911 346 911 580Q911 811 700 811Q492 811 492 580Q492 346 700 346ZM311 1473L424 1802L1069 1538L973 1264L311 1473Z"/><glyph unicode="ó" horiz-adv-x="1401" d="M700 -23Q403 -23 228 141T53 592Q53 879 227 1042T700 1206Q896 1206 1043 1132T1269 919T1348 592Q1348 404 1269 265T1042 51T700 -23ZM700 346Q911 346 911 580Q911 811 700 811Q492 811 492 580Q492 346 700 346ZM332 1534L977 1798L1089 1468L428 1260L332 1534Z"/><glyph unicode="ô" horiz-adv-x="1401" d="M700 -23Q403 -23 228 141T53 592Q53 879 227 1042T700 1206Q896 1206 1043 1132T1269 919T1348 592Q1348 404 1269 265T1042 51T700 -23ZM700 346Q911 346 911 580Q911 811 700 811Q492 811 492 580Q492 346 700 346ZM215 1501L624 1753H776L1190 1501L1075 1264L700 1415L327 1264L215 1501Z"/><glyph unicode="õ" horiz-adv-x="1401" d="M700 -23Q403 -23 228 141T53 592Q53 879 227 1042T700 1206Q896 1206 1043 1132T1269 919T1348 592Q1348 404 1269 265T1042 51T700 -23ZM700 346Q911 346 911 580Q911 811 700 811Q492 811 492 580Q492 346 700 346ZM176 1458Q266 1580 367 1644T565 1708Q614 1708 648 1695T711 1666T763 1637T817 1624Q864 1624 901 1651T981 1737L1214 1542Q1128 1423 1025 1358T825 1292Q776 1292 742 1305T681 1334T629 1363T573 1376Q526 1376 488 1348T409 1264L176 1458Z"/><glyph unicode="ö" horiz-adv-x="1401" d="M700 -23Q403 -23 228 141T53 592Q53 879 227 1042T700 1206Q896 1206 1043 1132T1269 919T1348 592Q1348 404 1269 265T1042 51T700 -23ZM700 346Q911 346 911 580Q911 811 700 811Q492 811 492 580Q492 346 700 346ZM260 1610H649V1280H260V1610ZM751 1610H1140V1280H751V1610Z"/><glyph unicode="÷" horiz-adv-x="1518" d="M549 455H967V119H549V455ZM172 915H1346V528H172V915ZM549 1325H967V989H549V1325Z"/><glyph unicode="ø" horiz-adv-x="1401" d="M700 -23Q573 -23 460 10L352 -152H59L245 126Q53 293 53 592Q53 879 227 1042T700 1206Q831 1206 941 1172L1049 1335H1339L1155 1058Q1348 894 1348 592Q1348 404 1269 265T1042 51T700 -23ZM700 322Q932 322 932 580Q932 661 908 717L649 325L700 322ZM471 580Q471 516 488 461L736 834L700 836Q471 836 471 580Z"/><glyph unicode="ù" horiz-adv-x="1421" d="M500 -16Q295 -16 199 96T102 457V1180H537V532Q537 438 574 396T688 354Q784 354 830 398T877 537V1180H1313V0H975L915 197Q870 100 757 42T500 -16ZM321 1473L434 1802L1079 1538L983 1264L321 1473Z"/><glyph unicode="ú" horiz-adv-x="1421" d="M500 -16Q295 -16 199 96T102 457V1180H537V532Q537 438 574 396T688 354Q784 354 830 398T877 537V1180H1313V0H975L915 197Q870 100 757 42T500 -16ZM342 1534L987 1798L1099 1468L438 1260L342 1534Z"/><glyph unicode="û" horiz-adv-x="1421" d="M500 -16Q295 -16 199 96T102 457V1180H537V532Q537 438 574 396T688 354Q784 354 830 398T877 537V1180H1313V0H975L915 197Q870 100 757 42T500 -16ZM225 1501L634 1753H786L1200 1501L1085 1264L710 1415L337 1264L225 1501Z"/><glyph unicode="ü" horiz-adv-x="1421" d="M500 -16Q295 -16 199 96T102 457V1180H537V532Q537 438 574 396T688 354Q784 354 830 398T877 537V1180H1313V0H975L915 197Q870 100 757 42T500 -16ZM270 1610H659V1280H270V1610ZM761 1610H1150V1280H761V1610Z"/><glyph unicode="ý" horiz-adv-x="1292" d="M385 -360Q288 -360 185 -348T23 -317L106 20Q240 -8 322 -8Q420 -8 444 0L-8 1180H451L672 539L897 1180H1303L817 -80Q754 -240 662 -300T385 -360ZM277 1534L922 1798L1034 1468L373 1260L277 1534Z"/><glyph unicode="þ" horiz-adv-x="1446" d="M109 1589H543V993Q638 1206 928 1206Q1069 1206 1172 1132T1334 916T1393 592Q1393 414 1334 275T1163 59T903 -18Q774 -18 689 20T543 150V-338H109V1589ZM766 346Q859 346 905 406T952 573Q952 686 905 748T766 811Q661 811 602 748T543 573Q543 464 598 405T766 346Z"/><glyph unicode="ÿ" horiz-adv-x="1292" d="M385 -360Q288 -360 185 -348T23 -317L106 20Q240 -8 322 -8Q420 -8 444 0L-8 1180H451L672 539L897 1180H1303L817 -80Q754 -240 662 -300T385 -360ZM225 1610H614V1280H225V1610ZM716 1610H1105V1280H716V1610Z"/><glyph unicode="ı" horiz-adv-x="664" d="M115 1180H549V0H115V1180Z"/><glyph unicode="Ŀ" horiz-adv-x="1311" d="M135 1518H588V393H1298V0H135V1518ZM797 1083H1237V749H797V1083Z"/><glyph unicode="ŀ" horiz-adv-x="950" d="M115 1589H549V0H115V1589ZM633 984H1073V650H633V984Z"/><glyph unicode="Œ" horiz-adv-x="2466" d="M825 -25Q598 -25 415 75T138 351T45 760Q45 990 137 1164T415 1440T825 1542Q1068 1542 1243 1409V1518H2359V1108H1618V942H2302V586H1618V393H2367V0H1243V109Q1066 -25 825 -25ZM846 375Q998 375 1091 478T1184 752Q1184 921 1091 1023T846 1126Q692 1126 598 1023T504 752Q504 583 597 479T846 375Z"/><glyph unicode="œ" horiz-adv-x="2159" d="M700 -23Q403 -23 228 141T53 592Q53 879 227 1042T700 1206Q971 1206 1106 1059Q1238 1206 1509 1206Q1691 1206 1812 1139T1996 926T2058 535V455H1305Q1320 382 1365 351T1503 319Q1719 319 1847 403L2046 133Q1926 52 1783 14T1456 -25Q1205 -25 1092 109Q958 -23 700 -23ZM700 346Q911 346 911 580Q911 811 700 811Q492 811 492 580Q492 346 700 346ZM1667 686V690Q1667 763 1626 807T1516 852Q1332 852 1300 686H1667Z"/><glyph unicode="Š" horiz-adv-x="1544" d="M799 -25Q237 -25 0 221L281 506Q464 350 784 350Q923 350 987 372T1051 451Q1051 502 984 527T756 567Q502 592 361 651T153 809T86 1047Q86 1207 169 1318T407 1485T778 1542Q1206 1542 1464 1360L1202 1044Q1133 1087 1015 1117T784 1147Q657 1147 598 1128T539 1063Q539 1025 566 1005T655 972T854 946Q1102 923 1238 867T1437 714T1501 475Q1501 244 1314 110T799 -25ZM283 1831L397 2068L772 1917L1145 2068L1258 1831L848 1579H696L283 1831Z"/><glyph unicode="š" horiz-adv-x="1274" d="M635 -18Q439 -18 275 27T6 160L215 424Q288 368 411 333T664 297Q739 297 773 308T807 350Q807 384 766 397T578 420Q307 436 193 531T78 809Q78 997 222 1101T627 1206Q810 1206 947 1179T1190 1090L1014 780Q843 860 647 860Q567 860 532 850T496 809Q496 779 527 767T696 745Q833 737 902 724T1029 688T1130 625T1196 527T1221 391Q1221 184 1078 83T635 -18ZM154 1516L268 1753L643 1602L1016 1753L1129 1516L719 1264H567L154 1516Z"/><glyph unicode="Ÿ" horiz-adv-x="1640" d="M592 514L2 1518H477L827 901L1180 1518H1638L1044 508V0H592V514ZM379 1925H768V1595H379V1925ZM870 1925H1259V1595H870V1925Z"/><glyph unicode="Ž" horiz-adv-x="1462" d="M47 334L807 1108H82V1518H1386V1145L643 393H1409V0H47V334ZM242 1831L356 2068L731 1917L1104 2068L1217 1831L807 1579H655L242 1831Z"/><glyph unicode="ž" horiz-adv-x="1163" d="M23 285L557 811H55V1180H1124V889L588 346H1147V0H23V285ZM349 1516L463 1753L838 1602L1211 1753L1324 1516L914 1264H762L349 1516Z"/><glyph unicode="ƒ" horiz-adv-x="1208" d="M344 555H139V905H344V1065Q344 1263 474 1376T834 1489Q959 1489 1016 1485T1128 1468L1077 1118Q967 1130 893 1130Q834 1130 806 1107T778 1034V905H1073V555H778V-338H344V555Z"/><glyph unicode="ˆ" horiz-adv-x="1208" d="M119 1501L528 1753H680L1094 1501L979 1264L604 1415L231 1264L119 1501Z"/><glyph unicode="ˇ" horiz-adv-x="1208" d="M115 1516L229 1753L604 1602L977 1753L1090 1516L680 1264H528L115 1516Z"/><glyph unicode="˙" horiz-adv-x="1208" d="M383 1614H823V1280H383V1614Z"/><glyph unicode="˚" horiz-adv-x="1208" d="M604 1257Q469 1257 375 1351T281 1585Q281 1724 374 1820T604 1917Q689 1917 763 1873T882 1752T926 1585Q926 1497 883 1421T764 1301T604 1257ZM604 1460Q652 1460 686 1495T721 1585Q721 1641 687 1677T604 1714Q554 1714 520 1677T485 1585Q485 1532 520 1496T604 1460Z"/><glyph unicode="˜" horiz-adv-x="1208" d="M80 1458Q170 1580 271 1644T469 1708Q518 1708 552 1695T615 1666T667 1637T721 1624Q768 1624 805 1651T885 1737L1118 1542Q1032 1423 929 1358T729 1292Q680 1292 646 1305T585 1334T533 1363T477 1376Q430 1376 392 1348T313 1264L80 1458Z"/><glyph unicode="̄" horiz-adv-x="1208" d="M164 1624H1044V1280H164V1624Z"/><glyph unicode="μ" horiz-adv-x="1427" d="M109 1180H543V532Q543 448 576 401T694 354Q791 354 837 398T883 537V1180H1319V0H981L922 197Q878 109 784 65T565 20H543V-338H109V1180Z"/><glyph unicode="‒" horiz-adv-x="1372" d="M41 895H1331V508H41V895Z"/><glyph unicode="–" horiz-adv-x="1595" d="M59 895H1534V508H59V895Z"/><glyph unicode="—" horiz-adv-x="2028" d="M59 895H1968V508H59V895Z"/><glyph unicode="―" horiz-adv-x="2048" d="M0 895H2048V508H0V895Z"/><glyph unicode="‘" horiz-adv-x="676" d="M94 969Q94 1153 121 1239T221 1387T459 1520L559 1311Q464 1268 425 1243T371 1190T356 1114H582V647H94V969Z"/><glyph unicode="’" horiz-adv-x="676" d="M117 854Q212 896 250 920T303 972T319 1051H94V1518H582V1194Q582 1004 552 918T447 771T217 645L117 854Z"/><glyph unicode="‚" horiz-adv-x="676" d="M117 -197Q212 -155 250 -131T303 -79T319 0H94V467H582V143Q582 -48 552 -133T449 -279T217 -406L117 -197Z"/><glyph unicode="“" horiz-adv-x="1245" d="M94 985Q94 1167 123 1252T227 1397T449 1518L545 1315Q453 1273 416 1249T363 1200T348 1124H567V672H94V985ZM678 985Q678 1167 707 1252T812 1397T1032 1518L1128 1315Q1036 1273 999 1249T947 1201T932 1124H1151V672H678V985Z"/><glyph unicode="”" horiz-adv-x="1245" d="M117 874Q210 916 247 940T298 989T313 1065H94V1518H567V1206Q567 1025 539 940T435 794T213 672L117 874ZM700 874Q794 917 830 941T882 991T897 1065H678V1518H1151V1206Q1151 1025 1123 940T1019 794T797 672L700 874Z"/><glyph unicode="„" horiz-adv-x="1245" d="M117 -190Q209 -150 245 -127T297 -78T313 0H94V453H567V139Q567 -38 535 -123T429 -271T213 -393L117 -190ZM700 -190Q792 -150 828 -127T881 -77T897 0H678V453H1151V139Q1151 -38 1119 -123T1013 -272T799 -393L700 -190Z"/><glyph unicode="†" horiz-adv-x="1305" d="M436 735H80V1126H436V1589H866V1126H1225V735H866V-340H436V735Z"/><glyph unicode="‡" horiz-adv-x="1305" d="M436 123H80V514H436V735H80V1126H436V1589H866V1126H1225V735H866V514H1225V123H866V-340H436V123Z"/><glyph unicode="•" horiz-adv-x="860" d="M166 905H694V340H166V905Z"/><glyph unicode="…" horiz-adv-x="1946" d="M94 467H582V0H94V467ZM729 467H1217V0H729V467ZM1364 467H1851V0H1364V467Z"/><glyph unicode="‰" horiz-adv-x="3889" d="M588 453Q435 453 311 518T118 701T49 973Q49 1123 119 1241T314 1424T588 1489Q736 1489 860 1424T1053 1241T1122 973Q1122 820 1053 702T861 519T588 453ZM588 772Q657 772 697 824T737 973Q737 1063 697 1111T588 1159Q520 1159 477 1112T434 973Q434 877 476 825T588 772ZM1597 1466H1999L1149 0H748L1597 1466ZM2163 -18Q2011 -18 1887 47T1694 232T1624 504Q1624 654 1694 772T1889 955T2163 1020Q2311 1020 2435 955T2628 772T2697 504Q2697 350 2628 232T2434 48T2163 -18ZM2163 301Q2232 301 2272 354T2312 504Q2312 592 2272 640T2163 688Q2095 688 2052 641T2009 504Q2009 407 2051 354T2163 301ZM3305 -18Q3155 -18 3031 47T2837 230T2767 504Q2767 654 2837 772T3032 955T3305 1020Q3452 1020 3576 955T3770 773T3840 504Q3840 350 3771 232T3578 48T3305 -18ZM3305 301Q3375 301 3415 354T3455 504Q3455 592 3415 640T3305 688Q3237 688 3195 641T3152 504Q3152 407 3194 354T3305 301Z"/><glyph unicode="′" horiz-adv-x="766" d="M240 1466H690L545 678H139L240 1466Z"/><glyph unicode="″" horiz-adv-x="1300" d="M240 1466H670L524 678H139L240 1466ZM795 1466H1227L1079 678H696L795 1466Z"/><glyph unicode="‹" horiz-adv-x="1094" d="M162 588L471 1180H870L594 588L870 0H471L162 588Z"/><glyph unicode="›" horiz-adv-x="1094" d="M623 0H223L500 588L223 1180H623L932 588L623 0Z"/><glyph unicode="⁄" horiz-adv-x="1225" d="M850 1466H1227L377 0H0L850 1466Z"/><glyph unicode="⁰" horiz-adv-x="1249" d="M627 530Q396 530 264 672T131 1061Q131 1305 264 1447T627 1589Q774 1589 886 1525T1059 1341T1120 1061Q1120 899 1059 779T887 594T627 530ZM627 817Q778 817 778 1061Q778 1290 627 1290Q473 1290 473 1061Q473 817 627 817Z"/><glyph unicode="⁴" horiz-adv-x="1161" d="M627 696H88V938L547 1573H899L446 954H633L696 1133H930V954H1071V696H930V547H627V696Z"/><glyph unicode="⁵" horiz-adv-x="1163" d="M594 530Q398 530 279 592T96 782L369 901Q392 855 443 825T571 795Q650 795 687 821T725 905Q725 954 689 981T592 1008Q546 1008 513 1004T424 985L156 1061L207 1573H967V1294H459L444 1169Q530 1235 702 1235Q867 1235 960 1150T1053 905Q1053 724 936 627T594 530Z"/><glyph unicode="⁶" horiz-adv-x="1198" d="M621 530Q390 530 257 666T123 1028Q123 1309 266 1449T702 1589Q830 1589 954 1565L897 1288Q799 1313 688 1313Q455 1313 455 1135V1128Q492 1182 568 1215T733 1249Q898 1249 994 1159T1090 907Q1090 729 965 630T621 530ZM627 799Q687 799 724 828T762 903Q762 956 729 986T631 1016Q556 1016 512 990T467 907Q467 859 509 829T627 799Z"/><glyph unicode="⁷" horiz-adv-x="1092" d="M326 547V577Q326 854 406 1025T655 1294H137V1573H995V1378Q829 1269 743 1056T657 559V547H326Z"/><glyph unicode="⁸" horiz-adv-x="1184" d="M590 520Q442 520 335 562T171 679T113 850Q113 1043 305 1112Q233 1147 197 1203T160 1323Q160 1403 210 1464T357 1560T590 1595Q726 1595 821 1561T968 1466T1020 1323Q1020 1257 985 1201T877 1112Q977 1076 1024 1014T1071 850Q1071 755 1014 680T850 563T590 520ZM590 764Q659 764 697 796T735 885Q735 939 697 971T590 1004Q521 1004 484 972T446 885Q446 829 483 797T590 764ZM590 1180Q638 1180 668 1205T698 1268Q698 1305 668 1326T590 1348Q540 1348 512 1327T483 1268Q483 1230 511 1205T590 1180Z"/><glyph unicode="⁹" horiz-adv-x="1196" d="M301 819Q417 797 510 797Q639 797 691 836T743 975V983Q709 933 634 898T465 862Q300 862 203 957T106 1212Q106 1390 231 1489T575 1589Q808 1589 940 1458T1073 1092Q1073 808 929 669T496 530Q381 530 246 557L301 819ZM565 1096Q731 1096 731 1198Q731 1248 687 1277T569 1307Q504 1307 469 1277T434 1204Q434 1156 471 1126T565 1096Z"/><glyph unicode="₀" horiz-adv-x="1249" d="M627 -354Q396 -354 264 -212T131 177Q131 421 264 563T627 705Q774 705 886 641T1059 457T1120 177Q1120 15 1059 -105T887 -290T627 -354ZM627 -67Q778 -67 778 177Q778 406 627 406Q473 406 473 177Q473 -67 627 -67Z"/><glyph unicode="₁" horiz-adv-x="778" d="M262 396Q192 373 100 373V652Q239 652 305 661T408 689H586V-337H262V396Z"/><glyph unicode="₂" horiz-adv-x="1135" d="M104 -59L469 156Q586 225 625 262T664 341Q664 373 634 393T537 414Q431 414 365 328L98 488Q173 599 289 652T569 705Q768 705 881 620T995 388Q995 278 935 194T721 23L549 -73H1014V-337H104V-59Z"/><glyph unicode="₃" horiz-adv-x="1122" d="M573 -354Q375 -354 254 -294T66 -102L338 17Q388 -83 537 -83Q620 -83 654 -61T688 3Q688 54 627 70T381 87V294Q483 294 543 301T630 322T657 365Q657 433 537 433Q467 433 420 415T352 365L106 511Q183 615 296 661T563 707Q689 707 783 674T928 581T979 447Q979 365 931 308T793 228Q905 204 959 136T1014 -34Q1014 -135 959 -206T802 -316T573 -354Z"/><glyph unicode="₄" horiz-adv-x="1161" d="M627 -188H88V54L547 689H899L446 70H633L696 249H930V70H1071V-188H930V-337H627V-188Z"/><glyph unicode="₅" horiz-adv-x="1163" d="M594 -354Q398 -354 279 -292T96 -102L369 17Q392 -29 443 -59T571 -89Q650 -89 687 -63T725 21Q725 70 689 97T592 124Q546 124 513 120T424 101L156 177L207 689H967V410H459L444 285Q530 351 702 351Q867 351 960 266T1053 21Q1053 -160 936 -257T594 -354Z"/><glyph unicode="₆" horiz-adv-x="1198" d="M621 -354Q390 -354 257 -218T123 144Q123 425 266 565T702 705Q830 705 954 681L897 404Q799 429 688 429Q455 429 455 251V244Q492 298 568 331T733 365Q898 365 994 275T1090 23Q1090 -155 965 -254T621 -354ZM627 -85Q687 -85 724 -56T762 19Q762 72 729 102T631 132Q556 132 512 106T467 23Q467 -25 509 -55T627 -85Z"/><glyph unicode="₇" horiz-adv-x="1092" d="M326 -337V-307Q326 -30 406 141T655 410H137V689H995V494Q829 385 743 172T657 -325V-337H326Z"/><glyph unicode="₈" horiz-adv-x="1184" d="M590 -364Q442 -364 335 -322T171 -205T113 -34Q113 159 305 228Q233 263 197 319T160 439Q160 519 210 580T357 676T590 711Q726 711 821 677T968 582T1020 439Q1020 373 985 317T877 228Q977 192 1024 130T1071 -34Q1071 -129 1014 -204T850 -321T590 -364ZM590 -120Q659 -120 697 -88T735 1Q735 55 697 87T590 120Q521 120 484 88T446 1Q446 -55 483 -87T590 -120ZM590 296Q638 296 668 321T698 384Q698 421 668 442T590 464Q540 464 512 443T483 384Q483 346 511 321T590 296Z"/><glyph unicode="₉" horiz-adv-x="1196" d="M301 -65Q417 -87 510 -87Q639 -87 691 -48T743 91V99Q709 49 634 14T465 -22Q300 -22 203 73T106 328Q106 506 231 605T575 705Q808 705 940 574T1073 208Q1073 -76 929 -215T496 -354Q381 -354 246 -327L301 -65ZM565 212Q731 212 731 314Q731 364 687 393T569 423Q504 423 469 393T434 320Q434 272 471 242T565 212Z"/><glyph unicode="€" horiz-adv-x="1591" d="M926 -20Q705 -20 545 111T322 473H86V686H289V760H86V973H315Q353 1133 445 1249T672 1428T958 1491Q1177 1491 1331 1383T1548 1079L1190 942Q1121 1104 942 1104Q799 1104 735 973H1036V760H692V686H1036V473H731Q762 410 817 377T944 344Q1037 344 1100 379T1225 504L1534 326Q1327 -20 926 -20Z"/><glyph unicode="™" horiz-adv-x="2320" d="M1047 1518H1407L1604 973L1802 1518H2163V565H1851V999L1700 565H1499L1348 1001V565H1047V1518ZM369 1237H76V1518H981V1237H688V565H369V1237Z"/><glyph unicode="∕" horiz-adv-x="1225" d="M850 1466H1227L377 0H0L850 1466Z"/><glyph unicode="∙" horiz-adv-x="676" d="M94 1038H582V555H94V1038Z"/><glyph unicode="" horiz-adv-x="1866" d="M102 756Q102 989 200 1165T494 1443T930 1544Q1171 1544 1367 1444T1663 1168T1763 756Q1763 521 1665 345T1370 67T930 -35Q691 -35 494 67T200 347T102 756ZM438 756Q438 614 496 506T670 336T930 274Q1074 274 1192 335T1368 505T1427 756Q1427 898 1368 1005T1191 1174T930 1235Q788 1235 672 1174T497 1005T438 756ZM692 756Q692 859 757 920T930 981Q1036 981 1102 921T1169 756Q1169 650 1104 589T930 528Q822 528 757 589T692 756Z"/><glyph unicode="ﬀ" horiz-adv-x="1874" d="M676 0H242V811H0V1180H242V1217Q242 1414 371 1527T731 1640Q919 1640 999 1624L948 1274Q856 1282 791 1282Q724 1282 700 1258T676 1186V1180H1077V1217Q1077 1414 1206 1527T1567 1640Q1779 1640 1903 1616L1851 1266Q1759 1282 1626 1282Q1560 1282 1536 1258T1511 1186V1180H1864V811H1511V0H1077V811H676V0Z"/><glyph unicode="ﬁ" horiz-adv-x="1626" d="M0 1180H242V1217Q242 1414 371 1527T731 1640Q919 1640 999 1624L948 1274Q856 1282 791 1282Q724 1282 700 1258T676 1186V1180H971V811H676V0H242V811H0V1180ZM1077 1180H1511V0H1077V1180ZM1073 1589H1516V1257H1073V1589Z"/><glyph unicode="ﬂ" horiz-adv-x="1626" d="M0 1180H242V1217Q242 1414 371 1527T731 1640Q919 1640 999 1624L948 1274Q856 1282 791 1282Q724 1282 700 1258T676 1186V1180H971V811H676V0H242V811H0V1180ZM1077 1589H1511V0H1077V1589Z"/><glyph unicode="ﬃ" horiz-adv-x="2462" d="M676 0H242V811H0V1180H242V1217Q242 1414 371 1527T731 1640Q919 1640 999 1624L948 1274Q856 1282 791 1282Q724 1282 700 1258T676 1186V1180H1077V1217Q1077 1414 1206 1527T1567 1640Q1755 1640 1835 1624L1784 1274Q1692 1282 1626 1282Q1560 1282 1536 1258T1511 1186V1180H1806V811H1511V0H1077V811H676V0ZM1913 1180H2347V0H1913V1180ZM1909 1589H2351V1257H1909V1589Z"/><glyph unicode="ﬄ" horiz-adv-x="2462" d="M676 0H242V811H0V1180H242V1217Q242 1414 371 1527T731 1640Q919 1640 999 1624L948 1274Q856 1282 791 1282Q724 1282 700 1258T676 1186V1180H1077V1217Q1077 1414 1206 1527T1567 1640Q1755 1640 1835 1624L1784 1274Q1692 1282 1626 1282Q1560 1282 1536 1258T1511 1186V1180H1806V811H1511V0H1077V811H676V0ZM1913 1589H2347V0H1913V1589Z"/></font>
</defs>
</svg>
