<?xml version="1.0" standalone="no"?>
<!DOCTYPE svg PUBLIC "-//W3C//DTD SVG 1.1//EN" "http://www.w3.org/Graphics/SVG/1.1/DTD/svg11.dtd" >
<svg xmlns="http://www.w3.org/2000/svg">
<metadata>
This is a custom SVG webfont generated by Font Squirrel.
Copyright   : Copyright 19901998 Bitstream Inc  All rights reserved
</metadata>
<defs>
<font id="ClarendonCnBTRegular" horiz-adv-x="1024" >
<font-face units-per-em="2048" ascent="1556" descent="-492" />
<missing-glyph horiz-adv-x="451" />
<glyph unicode=" "  horiz-adv-x="451" />
<glyph unicode="&#x09;" horiz-adv-x="451" />
<glyph unicode="&#xa0;" horiz-adv-x="451" />
<glyph unicode="!" horiz-adv-x="588" d="M174 119q0 61 33.5 98t87.5 37q57 0 87 -34.5t30 -100.5q0 -70 -29 -103.5t-88 -33.5q-57 0 -89 36t-32 101zM244 365v260q0 123 -49.5 312t-49.5 259q0 103 39.5 161t108.5 58t108 -58t39 -161q0 -70 -48 -259t-48 -312v-260h-100z" />
<glyph unicode="&#x22;" horiz-adv-x="694" d="M496 856l-74 458q-1 8 -1.5 16.5t-0.5 23.5q0 51 25.5 79.5t70.5 28.5t70.5 -28t25.5 -78q0 -13 -3 -36q-1 -4 -1 -5l-73 -459h-39zM160 856l-74 459q-1 7 -1.5 15.5t-0.5 23.5q0 52 24.5 80t69.5 28q47 0 71.5 -27.5t24.5 -80.5q0 -16 -0.5 -24.5t-1.5 -15.5l-73 -458 h-39z" />
<glyph unicode="#" horiz-adv-x="1575" d="M977 858h-275l-94 -264h275zM920 1460l-156 -436h268l156 436h182l-156 -436h291l-59 -166h-291l-92 -262h307l-59 -168h-307l-154 -434h-184l155 434h-268l-154 -434h-184l156 434h-301l59 168h301l92 262h-319l61 166h318l155 436h183z" />
<glyph unicode="$" horiz-adv-x="901" d="M391 905v387q-68 -20 -101.5 -61.5t-33.5 -106.5q0 -63 33 -116.5t102 -102.5zM485 104q70 24 106 76.5t36 130.5q0 65 -35.5 125t-106.5 115v-447zM391 -152v134q-142 10 -227.5 89.5t-85.5 198.5q0 73 37 117.5t98 44.5q57 0 93 -36t36 -93t-30 -85t-91 -28h-6 q6 -44 49 -71t109 -27h18v533q-189 125 -262.5 221.5t-73.5 212.5q0 136 90.5 228.5t245.5 115.5v94h94v-94q140 -12 223 -84t83 -180q0 -65 -37 -103.5t-99 -38.5q-51 0 -80.5 29.5t-29.5 79.5q0 48 23 75.5t69 35.5q-23 37 -60.5 56.5t-90.5 22.5l-1 -462 q181 -115 261.5 -224.5t80.5 -238.5q0 -157 -92.5 -261.5t-249.5 -123.5v-138h-94z" />
<glyph unicode="%" horiz-adv-x="1118" d="M842 -33q-120 0 -174 86t-54 279q0 190 54.5 276t173.5 86q118 0 170.5 -85t52.5 -277q0 -194 -53 -279.5t-170 -85.5zM842 86q37 0 51 38.5t14 207.5q0 167 -14 205t-51 38q-40 0 -55 -43t-15 -200q0 -160 15 -203t55 -43zM274 811q41 0 55.5 40t14.5 206 q0 158 -15 200.5t-55 42.5q-37 0 -51 -41t-14 -202q0 -164 14 -205t51 -41zM197 -33l551 1309q-32 -14 -65.5 -20.5t-72.5 -6.5q-31 0 -64.5 6t-68.5 16q13 -39 19 -81t6 -98q0 -223 -51.5 -311.5t-174.5 -88.5q-118 0 -171.5 85.5t-53.5 279.5t52.5 277t172.5 83 q54 0 165.5 -37t179.5 -37q63 0 115.5 22t97.5 67h88l-609 -1465h-116z" />
<glyph unicode="&#x26;" horiz-adv-x="1147" d="M428 899q73 68 106 134t33 141q0 60 -22.5 93t-63.5 33q-53 0 -83.5 -42t-30.5 -115q0 -50 15.5 -112.5t45.5 -131.5zM616 146q-78 114 -146.5 231.5t-127.5 236.5q-38 -60 -57 -115t-19 -106q0 -117 74 -195.5t184 -78.5q28 0 50.5 6.5t41.5 20.5zM690 45 q-51 -40 -111.5 -60t-132.5 -20q-180 0 -284.5 105.5t-104.5 287.5q0 117 54 214.5t163 181.5q-38 95 -56.5 170t-18.5 135q0 163 81 260.5t214 97.5q111 0 176 -64.5t65 -174.5q0 -97 -57 -188t-186 -199q57 -123 123 -241t141 -231q26 52 39.5 107.5t13.5 108.5 q0 76 -24.5 99t-100.5 23h-14v129h352v-128q-55 -4 -77.5 -17.5t-24.5 -41.5q-1 -11 -3 -39q-8 -189 -86 -339q27 -39 51 -57.5t48 -18.5q48 0 69 57.5t23 194.5h86q1 -11 1.5 -25t0.5 -40q0 -186 -60.5 -275.5t-187.5 -89.5q-55 0 -97.5 19.5t-74.5 58.5z" />
<glyph unicode="'" horiz-adv-x="358" d="M160 856l-74 459q-1 7 -1.5 15.5t-0.5 23.5q0 52 24.5 80t69.5 28q47 0 71.5 -27.5t24.5 -80.5q0 -16 -0.5 -24.5t-1.5 -15.5l-73 -458h-39z" />
<glyph unicode="(" horiz-adv-x="635" d="M596 -152q-212 35 -335.5 246.5t-123.5 542.5q0 327 124.5 537t334.5 243v-108q-132 -37 -191 -195t-59 -477q0 -326 59 -485t191 -195v-109z" />
<glyph unicode=")" horiz-adv-x="635" d="M37 1417q211 -35 334 -245.5t123 -542.5q0 -327 -124 -537t-333 -244v109q131 36 189.5 193.5t58.5 478.5q0 328 -58.5 486t-189.5 194v108z" />
<glyph unicode="*" horiz-adv-x="758" d="M344 978q-48 -27 -117 -95t-114 -68q-29 0 -50.5 22t-21.5 50q0 59 131 102q85 28 133 51q-48 24 -135 52q-129 41 -129 100q0 30 21 51t51 21q46 0 115.5 -67.5t113.5 -94.5v8q0 52 -18.5 123t-18.5 92q0 43 20 67.5t54 24.5t55 -25t21 -67q0 -21 -19.5 -93.5 t-21.5 -129.5q44 28 114 95t117 67q30 0 50 -21t20 -51q0 -59 -127 -100q-87 -29 -135 -54q47 -22 130 -49q134 -43 134 -102q0 -28 -21.5 -50t-50.5 -22q-46 0 -113.5 66.5t-113.5 93.5v-12q0 -49 18.5 -116.5t18.5 -90.5q0 -43 -21 -68.5t-55 -25.5t-54 25.5t-20 68.5 q0 20 18.5 93t20.5 129z" />
<glyph unicode="+" horiz-adv-x="1706" d="M938 1221v-527h514v-166h-514v-528h-170v528h-514v166h514v527h170z" />
<glyph unicode="," horiz-adv-x="451" d="M244 0q-7 -1 -13.5 -1.5t-19.5 -0.5q-60 0 -91.5 31t-31.5 90q0 61 35 98t92 37q65 0 104 -49t39 -131q0 -100 -56 -195.5t-155 -159.5l-59 84q57 39 95 86.5t61 110.5z" />
<glyph unicode="-" horiz-adv-x="639" d="M84 455v178h473v-178h-473z" />
<glyph unicode="." horiz-adv-x="451" d="M106 119q0 61 33 98t86 37q58 0 88.5 -35t30.5 -100q0 -69 -29.5 -103t-89.5 -34q-56 0 -87.5 36t-31.5 101z" />
<glyph unicode="/" horiz-adv-x="494" d="M-72 -190l461 1607h129l-461 -1607h-129z" />
<glyph unicode="0" horiz-adv-x="901" d="M451 115q70 0 96 90.5t26 484.5q0 393 -26 483.5t-96 90.5q-72 0 -98.5 -93t-26.5 -481t26.5 -481.5t98.5 -93.5zM451 -37q-198 0 -278.5 156.5t-80.5 570.5q0 411 81 568t278 157q196 0 276 -155.5t80 -569.5t-80.5 -570.5t-275.5 -156.5z" />
<glyph unicode="1" horiz-adv-x="901" d="M571 1417v-1204q0 -60 17.5 -75t79.5 -15h26v-123h-467v123h45q53 0 69.5 15.5t16.5 74.5v922h-131l1 112q113 3 168 42t73 128h102z" />
<glyph unicode="2" horiz-adv-x="901" d="M59 0v113q0 127 47.5 239.5t180.5 272.5q17 20 50 60q204 241 204 396q0 98 -52 156.5t-137 58.5q-69 0 -114.5 -36.5t-52.5 -98.5q10 3 20 4.5t20 1.5q49 0 81 -33t32 -83q0 -62 -34.5 -97.5t-92.5 -35.5q-70 0 -111 47t-41 129q0 147 100 235t269 88q157 0 256.5 -94 t99.5 -242q0 -56 -16 -111t-49 -112q-39 -67 -189 -197q-79 -69 -120 -108q-95 -89 -151.5 -174.5t-68.5 -157.5q40 31 81.5 46.5t84.5 15.5q32 0 101.5 -17.5t105.5 -17.5q73 0 102.5 46.5t33.5 170.5h87v-88q0 -213 -50.5 -301t-168.5 -88q-74 0 -180 59l-4 2q-5 3 -14 8 q-76 45 -117 45q-34 0 -56 -24t-22 -64v-14h-115z" />
<glyph unicode="3" horiz-adv-x="901" d="M518 719q132 -25 208.5 -122t76.5 -239q0 -179 -109 -287t-288 -108q-162 0 -260.5 87.5t-98.5 230.5q0 89 41 140.5t111 51.5q55 0 90 -35t35 -92q0 -52 -28.5 -83.5t-74.5 -31.5q-8 0 -18.5 2t-30.5 6q3 -59 55.5 -99t128.5 -40q97 0 152 72.5t55 200.5 q0 140 -61 216.5t-174 76.5q-4 0 -14 -1t-15 -1v110h14q119 0 181.5 71t62.5 206q0 113 -52 175t-147 62q-60 0 -101 -34.5t-54 -97.5q9 5 18.5 8t22.5 3q54 0 82 -28.5t28 -83.5q0 -60 -34.5 -93.5t-96.5 -33.5q-69 0 -109 46t-40 126q0 139 97 227t251 88 q161 0 259.5 -97.5t98.5 -256.5q0 -132 -64 -215.5t-198 -126.5z" />
<glyph unicode="4" horiz-adv-x="901" d="M145 467h349v670zM707 213q0 -61 16.5 -75.5t77.5 -14.5h28v-123h-487v123h64q54 0 71 16t17 74v129h-461v137l469 905h205v-917h145v-125h-145v-129z" />
<glyph unicode="5" horiz-adv-x="901" d="M92 623l27 428q0 8 1 24q11 187 11 268q0 13 -1 37.5t-1 36.5q141 -19 225.5 -27t147.5 -8q116 0 221 20q16 3 18 3q7 0 9.5 -3t3.5 -13q0 -4 -7 -19q-2 -5 -4 -9l-32 -69q-29 -59 -99.5 -83.5t-220.5 -24.5q-22 0 -58.5 4t-92.5 12l-21 -348q49 51 107.5 76.5 t128.5 25.5q163 0 258.5 -123.5t95.5 -336.5q0 -248 -109.5 -387.5t-302.5 -139.5q-149 0 -243.5 90t-94.5 230q0 94 43.5 147t120.5 53q56 0 88.5 -37t32.5 -102q0 -53 -27.5 -81.5t-78.5 -28.5q-14 0 -28 3t-26 9q14 -68 67 -110t124 -42q104 0 155.5 92t51.5 279 q0 166 -49 250t-146 84q-72 0 -120 -48t-60 -132h-115z" />
<glyph unicode="6" horiz-adv-x="901" d="M455 104q70 0 101.5 71t31.5 237q0 165 -31.5 236t-101.5 71q-71 0 -102 -71t-31 -236q0 -166 31 -237t102 -71zM326 762q33 49 81 71.5t117 22.5q140 0 219.5 -112.5t79.5 -311.5q0 -217 -96.5 -341t-263.5 -124q-191 0 -284 158t-93 483q0 423 98 616t310 193 q142 0 230.5 -80t88.5 -207q0 -80 -38 -126t-103 -46q-61 0 -96 34t-35 93q0 52 26.5 79.5t77.5 27.5q15 0 22.5 -0.5t14.5 -1.5q-14 51 -60.5 80.5t-111.5 29.5q-99 0 -141.5 -111t-42.5 -380v-47z" />
<glyph unicode="7" horiz-adv-x="901" d="M259 0q-2 13 -2.5 28.5t-0.5 47.5q0 219 99.5 489t322.5 647q-45 -19 -89 -28.5t-87 -9.5q-33 0 -91 9t-83 9q-67 0 -91 -42.5t-26 -196.5l-111 -1v432h111v-92q42 63 91.5 92t113.5 29q65 0 161.5 -42t131.5 -42q12 0 23.5 13t23.5 42h110q-36 -145 -148 -378 q-35 -74 -50 -109q-82 -184 -117 -343.5t-35 -336.5q0 -41 1.5 -96t4.5 -121h-263z" />
<glyph unicode="8" horiz-adv-x="901" d="M295 713q-109 92 -152 166.5t-43 167.5q0 167 100 268.5t263 101.5q149 0 241.5 -89t92.5 -232q0 -102 -50 -178t-153 -132q135 -87 196.5 -186t61.5 -227q0 -178 -115 -292t-293 -114q-168 0 -275.5 104.5t-107.5 268.5q0 118 55 205.5t179 167.5zM500 860 q61 57 91 118.5t30 131.5q0 83 -41 129.5t-113 46.5q-68 0 -110 -42.5t-42 -113.5q0 -80 43.5 -144t141.5 -126zM408 621q-79 -60 -117.5 -134.5t-38.5 -164.5q0 -102 51.5 -163t136.5 -61q84 0 134.5 57t50.5 152q0 98 -51.5 172.5t-165.5 141.5z" />
<glyph unicode="9" horiz-adv-x="901" d="M444 1280q-70 0 -101.5 -71t-31.5 -236q0 -166 31.5 -236.5t101.5 -70.5q71 0 102.5 70.5t31.5 236.5q0 165 -31.5 236t-102.5 71zM573 621q-31 -47 -78.5 -70t-113.5 -23q-145 0 -225 111t-80 313q0 218 95.5 341.5t262.5 123.5q191 0 285 -159t94 -482 q0 -422 -98 -615.5t-309 -193.5q-143 0 -231.5 80t-88.5 207q0 81 38 126.5t105 45.5q57 0 93 -35t36 -92q0 -53 -26 -81t-76 -28q-10 0 -34 4q-3 0 -5 1q14 -50 59.5 -80.5t106.5 -30.5q105 0 147.5 110.5t42.5 397.5v29z" />
<glyph unicode=":" horiz-adv-x="498" d="M129 119q0 61 32.5 98t86.5 37q57 0 88 -35t31 -100q0 -69 -29.5 -103t-89.5 -34q-56 0 -87.5 36t-31.5 101zM129 719q0 61 32.5 98t86.5 37q57 0 88 -35t31 -100q0 -69 -29.5 -103t-89.5 -34q-56 0 -87.5 36t-31.5 101z" />
<glyph unicode=";" horiz-adv-x="498" d="M127 719q0 61 32.5 98t86.5 37q57 0 88 -35t31 -100q0 -69 -29.5 -103t-89.5 -34q-56 0 -87.5 36t-31.5 101zM270 0q-6 -1 -13 -1.5t-19 -0.5q-60 0 -91.5 31t-31.5 90q0 60 34 97.5t89 37.5q68 0 107.5 -48.5t39.5 -131.5q0 -100 -56.5 -195.5t-154.5 -159.5l-59 84 q57 39 95 86.5t60 110.5z" />
<glyph unicode="&#x3c;" horiz-adv-x="1706" d="M1442 991l-934 -381l934 -381v-182l-1178 483v160l1178 486v-185z" />
<glyph unicode="=" horiz-adv-x="1706" d="M1452 487v-165h-1198v165h1198zM1452 901v-168h-1198v168h1198z" />
<glyph unicode="&#x3e;" horiz-adv-x="1706" d="M1442 690v-160l-1178 -483v182l934 381l-934 381v185z" />
<glyph unicode="?" horiz-adv-x="801" d="M303 365v192q0 111 13.5 167t43.5 103q13 21 39 59q103 153 103 240q0 78 -45 122t-123 44q-66 0 -113 -31.5t-53 -78.5q12 11 25 15.5t30 4.5q50 0 80.5 -32t30.5 -85q0 -63 -35.5 -101t-93.5 -38q-68 0 -108 44t-40 118q0 132 95.5 220.5t238.5 88.5q151 0 243.5 -84.5 t92.5 -220.5q0 -64 -19 -119t-57 -100q-37 -46 -95 -97t-68 -64q-38 -48 -53 -95.5t-15 -130.5v-141h-117zM242 119q0 61 32.5 98t85.5 37q58 0 88.5 -35t30.5 -100q0 -69 -29.5 -103t-89.5 -34q-56 0 -87 36t-31 101z" />
<glyph unicode="@" horiz-adv-x="2019" d="M1305 823l51 170h172l-172 -616l-2 -6q-15 -59 -15 -90q0 -49 22 -76t60 -27q34 0 84 22t92 56q110 88 169 222t59 296q0 279 -191 450t-504 171q-173 0 -328.5 -65t-273.5 -185q-122 -125 -183.5 -286t-61.5 -357q0 -172 59.5 -306.5t179.5 -234.5q106 -88 247 -135 t302 -47q166 0 321 51.5t304 157.5l37 -47q-148 -111 -315 -167.5t-347 -56.5q-188 0 -347 46.5t-275 134.5q-151 113 -230.5 277t-79.5 362q0 203 86 381t250 313q135 111 297.5 168t345.5 57q348 0 557 -188.5t209 -501.5q0 -159 -59 -297.5t-168 -237.5q-62 -54 -129 -82 t-133 -28q-98 0 -152.5 52.5t-60.5 152.5q-64 -105 -137.5 -154t-165.5 -49q-134 0 -212.5 92t-78.5 248q0 112 49 219t141 195q68 65 147.5 99t161.5 34q90 0 145.5 -47.5t72.5 -139.5zM1249 772q0 83 -37.5 132.5t-99.5 49.5q-64 0 -117 -45t-106 -147 q-57 -107 -87 -209.5t-30 -185.5t36.5 -133t94.5 -50q62 0 115.5 41.5t107.5 132.5q56 96 89.5 210t33.5 204z" />
<glyph unicode="A" horiz-adv-x="985" d="M336 573h213l-105 570zM2 0v137q92 2 118 126q2 9 3 13l242 1108h253l230 -1054l2 -10q37 -183 117 -183h12v-137h-467v137q59 4 78.5 17.5t19.5 48.5q0 9 -4 32q-3 14 -4 21l-29 176h-266l-33 -170q-6 -29 -8 -42t-2 -21q0 -32 19.5 -48t58.5 -16q3 0 10.5 1t12.5 1 v-137h-363z" />
<glyph unicode="B" horiz-adv-x="1004" d="M418 797h74q96 0 140 53.5t44 171.5q0 132 -39.5 178.5t-151.5 46.5h-67v-450zM418 137h59q119 0 163 51.5t44 202.5q0 163 -44 215.5t-177 52.5h-45v-522zM66 0v137q57 0 80.5 22.5t23.5 78.5v909q0 56 -23.5 78t-80.5 22v137h403q229 0 334.5 -81.5t105.5 -258.5 q0 -129 -68 -211t-192 -102q140 -18 211.5 -107t71.5 -243q0 -94 -29.5 -172t-83.5 -127q-48 -45 -111.5 -63.5t-191.5 -18.5h-450z" />
<glyph unicode="C" horiz-adv-x="860" d="M639 575h137v-124q0 -245 -84.5 -364.5t-257.5 -119.5q-202 0 -285 152t-83 536q0 393 88 576.5t276 183.5q69 0 120 -29t89 -90l45 88h92v-512h-137v48q0 179 -37 254t-123 75q-90 0 -123.5 -129.5t-33.5 -556.5q0 -264 33 -349t118 -85q89 0 127.5 78.5t38.5 263.5v104 z" />
<glyph unicode="D" horiz-adv-x="995" d="M418 1247v-1110h59q116 0 158.5 86.5t42.5 468.5t-42.5 468.5t-158.5 86.5h-59zM66 0v137q57 0 80.5 22.5t23.5 78.5v909q0 56 -23.5 78t-80.5 22v137h309q171 0 250 -21t135 -71q90 -80 129 -215t39 -385t-39 -385.5t-129 -216.5q-56 -49 -133 -69.5t-252 -20.5h-309z " />
<glyph unicode="E" horiz-adv-x="1010" d="M66 0v137q57 0 80.5 22.5t23.5 78.5v909q0 56 -23.5 78t-80.5 22v137h841v-456h-116q-8 185 -74 252t-252 67h-47v-465h26q87 0 122.5 43.5t35.5 149.5v10h109v-543h-109v9q0 106 -36 150t-122 44h-26v-508h67q188 0 253.5 79.5t70.5 313.5h115v-530h-858z" />
<glyph unicode="F" horiz-adv-x="934" d="M418 238q0 -56 23 -78.5t81 -22.5v-137h-456v137q57 0 80.5 22.5t23.5 78.5v909q0 56 -23.5 78t-80.5 22v137h841v-456h-116q-8 185 -74 252t-252 67h-47v-465h18q86 0 121 43t35 150v10h110v-545h-110v11q0 107 -35.5 150.5t-120.5 43.5h-18v-407z" />
<glyph unicode="G" horiz-adv-x="981" d="M580 475q0 56 -24.5 78t-84.5 22h-18v138h479v-137q-61 -3 -84 -25t-23 -76v-475h-120l-48 115q-41 -72 -108 -111t-150 -39q-174 0 -253.5 163.5t-79.5 524.5q0 399 88 581.5t278 182.5q85 0 147.5 -29.5t106.5 -91.5l45 88h92v-512h-137v48q0 165 -48 247t-144 82 q-99 0 -135.5 -119t-36.5 -563q0 -282 27.5 -360t101.5 -78q63 0 96 48t33 140v158z" />
<glyph unicode="H" horiz-adv-x="1100" d="M418 793h264v354q0 53 -21 75t-73 25v137h446v-137q-60 -2 -82 -24t-22 -76v-909q0 -56 23 -78.5t81 -22.5v-137h-446v137q53 4 73.5 25.5t20.5 75.5v409h-264v-409q0 -54 21 -76t73 -25v-137h-446v137q57 0 80.5 22.5t23.5 78.5v909q0 56 -23.5 78t-80.5 22v137h446 v-136q-53 -4 -73.5 -26t-20.5 -75v-354z" />
<glyph unicode="I" horiz-adv-x="602" d="M528 1384v-137q-58 -1 -81 -23.5t-23 -76.5v-909q0 -56 23 -78.5t81 -22.5v-137h-454v137q58 0 81 22.5t23 78.5v909q0 56 -23 78t-81 22v137h454z" />
<glyph unicode="J" horiz-adv-x="735" d="M326 1147q0 55 -24 77.5t-81 22.5h-33v137h494v-137q-61 0 -85 -22t-24 -78v-766q0 -218 -71 -316t-228 -98q-118 0 -195 68t-77 170q0 65 36.5 108t92.5 43q49 0 81 -31.5t32 -80.5q0 -47 -26.5 -74t-77.5 -35q13 -23 32.5 -34t46.5 -11q58 0 82.5 49t24.5 172v836z" />
<glyph unicode="K" horiz-adv-x="1049" d="M506 1384v-136q-53 -4 -74.5 -26.5t-21.5 -74.5v-477l262 477q9 16 13.5 30t4.5 27q0 21 -14 32t-41 11h-14v137h364v-137h-14q-47 0 -78 -21.5t-64 -78.5l-155 -277l282 -632q2 -4 4 -9q39 -90 105 -92v-137h-459v137q52 0 73 10t21 33q0 17 -16 53q-1 3 -2 5l-160 376 l-112 -186v-190q0 -53 21 -75t75 -26v-137h-440v137q57 0 80.5 22.5t23.5 78.5v909q0 56 -23.5 78t-80.5 22v137h440z" />
<glyph unicode="L" horiz-adv-x="928" d="M170 1147q0 56 -23.5 78t-80.5 22v137h471v-137h-11q-61 0 -84.5 -21.5t-23.5 -78.5v-1010h43q188 0 254.5 80.5t70.5 312.5h113v-530h-833v137q57 0 80.5 22.5t23.5 78.5v909z" />
<glyph unicode="M" horiz-adv-x="1309" d="M1243 1384v-136q-60 -3 -82 -25t-22 -76v-909q0 -56 23 -78.5t81 -22.5v-137h-432v137q52 3 73 25t21 76v1003l-227 -1241h-137l-224 1241v-1003q0 -56 23.5 -78.5t81.5 -22.5v-137h-356v137q57 0 80.5 22.5t23.5 78.5v909q0 56 -23.5 78t-80.5 22v137h417l158 -915 l164 915h438z" />
<glyph unicode="N" horiz-adv-x="1073" d="M766 403v744q0 52 -21.5 74.5t-74.5 25.5v137h350v-136q-60 -3 -82.5 -25t-22.5 -76v-1147h-262l-334 1079v-841q0 -53 22 -75.5t75 -25.5v-137h-350v137q57 0 80.5 22.5t23.5 78.5v909q0 56 -23.5 78t-80.5 22v137h401z" />
<glyph unicode="O" horiz-adv-x="909" d="M455 125q76 0 104.5 94t28.5 471q0 376 -28.5 469.5t-104.5 93.5q-77 0 -105 -93.5t-28 -469.5q0 -377 28 -471t105 -94zM455 -37q-101 0 -175.5 39.5t-125.5 118.5q-47 73 -67.5 204t-20.5 365q0 235 20.5 366t67.5 204q50 78 125 116.5t176 38.5t176.5 -38.5 t126.5 -116.5q46 -71 66 -200t20 -370t-20 -370t-66 -199q-51 -79 -127 -118.5t-176 -39.5z" />
<glyph unicode="P" horiz-adv-x="975" d="M418 758h63q109 0 153 53.5t44 189.5q0 143 -40 194.5t-153 51.5h-67v-489zM475 1384q233 0 336.5 -92.5t103.5 -300.5q0 -197 -95.5 -285t-313.5 -88q-21 1 -42.5 1.5t-45.5 1.5v-383q0 -56 23 -78.5t81 -22.5h8v-137h-464v137q57 0 80.5 22.5t23.5 78.5v909 q0 56 -23.5 78t-80.5 22v137h409z" />
<glyph unicode="Q" horiz-adv-x="938" d="M721 72q15 -23 32 -34t35 -11q46 0 64.5 41.5t20.5 158.5h73q1 -14 1.5 -32t0.5 -52q0 -158 -49.5 -237.5t-148.5 -79.5q-65 0 -109.5 35.5t-79.5 113.5q-21 -5 -46.5 -7.5t-74.5 -2.5q-92 0 -164.5 39.5t-121.5 116.5q-47 73 -67.5 204t-20.5 365q0 235 20.5 366 t67.5 204q50 78 125 116.5t176 38.5t176.5 -38.5t126.5 -116.5q46 -71 66 -200t20 -370q0 -275 -28.5 -413t-94.5 -205zM528 142q-24 67 -42 88.5t-44 21.5q-24 0 -40.5 -17t-16.5 -42q0 -29 20 -47.5t52 -18.5q16 0 33.5 3.5t37.5 11.5zM569 262q10 73 14.5 163t4.5 208v37 q0 395 -28.5 489t-104.5 94q-77 0 -105 -95t-28 -476v-74q0 -124 5 -211.5t17 -160.5q3 54 31 83t78 29q41 0 70 -21.5t46 -64.5z" />
<glyph unicode="R" horiz-adv-x="1100" d="M418 238q0 -56 23 -78.5t81 -22.5h8v-137h-464v137q57 0 80.5 22.5t23.5 78.5v909q0 56 -23.5 78t-80.5 22v137h440q220 0 325 -88t105 -272q0 -147 -68 -237.5t-194 -110.5q104 -22 149 -91t58 -246q1 -18 3 -55q10 -159 56 -159q23 0 37 22.5t14 59.5v96h82v-59 q0 -147 -49 -212t-158 -65q-66 0 -108.5 22t-69.5 70q-41 74 -45 270q-1 56 -2 85q-5 125 -46 173t-138 48q-15 0 -23 -0.5t-16 -1.5v-395zM418 782h67q115 0 164 54.5t49 181.5q0 129 -44 179t-165 50h-71v-465z" />
<glyph unicode="S" horiz-adv-x="961" d="M109 0v582h122q15 -223 90 -343t197 -120q70 0 112 42t42 113q0 65 -38.5 126t-119.5 126q-49 40 -153.5 116t-139.5 114q-65 69 -95 139.5t-30 153.5q0 156 96 262t234 106q78 0 145 -28.5t119 -83.5l39 79h102v-493h-116q-18 182 -86.5 278.5t-179.5 96.5 q-65 0 -105.5 -38t-40.5 -98q0 -93 201 -235q46 -33 71 -51q190 -137 251 -240.5t61 -251.5q0 -172 -96.5 -278.5t-249.5 -106.5q-84 0 -157 32t-126 93l-51 -92h-98z" />
<glyph unicode="T" horiz-adv-x="967" d="M360 1260h-41q-80 0 -115.5 -56.5t-35.5 -185.5v-152h-117v518h864v-518h-116v152q0 127 -36 184.5t-116 57.5h-41v-1022q0 -56 25.5 -78.5t89.5 -22.5h22v-137h-520v137h23q64 0 89 22.5t25 78.5v1022z" />
<glyph unicode="U" horiz-adv-x="991" d="M406 367q0 -150 28.5 -191t108.5 -41q79 0 108 41t29 191v780q0 52 -21.5 74.5t-74.5 25.5v137h362v-136q-60 -3 -82 -25t-22 -76v-748q0 -232 -80 -332t-262 -100t-261 100t-79 332v748q0 55 -24 77.5t-83 22.5v137h447l-1 -137q-52 -3 -72.5 -25t-20.5 -75v-780z" />
<glyph unicode="V" horiz-adv-x="977" d="M696 1122q3 18 6.5 38t4.5 22q0 35 -19 50t-63 15h-11v137h338v-137q-77 -8 -103 -132l-1 -7l-223 -1108h-254l-219 1055q-19 86 -29 117t-21 45q-10 14 -29 22t-44 8h-11v137h451v-136q-54 -7 -71 -20.5t-17 -45.5q0 -11 1.5 -23.5t4.5 -30.5l148 -847z" />
<glyph unicode="W" horiz-adv-x="1399" d="M602 1122q2 20 3 33.5t1 26.5q0 35 -19 49.5t-64 15.5l-1 137h428v-137q-3 0 -9 1t-9 1q-33 0 -49.5 -16t-16.5 -49q0 -17 1 -32t3 -30l121 -870l125 870q3 24 4.5 40.5t1.5 25.5q0 32 -17.5 45.5t-57.5 13.5v137h325v-136q-47 -6 -68 -30.5t-36 -109.5l-191 -1108h-252 l-123 922l-129 -922h-256l-204 1055q-13 65 -25 105.5t-25 56.5q-12 15 -30 22.5t-43 7.5v137h428v-137q-48 -8 -62 -21t-14 -44q0 -14 6 -43q2 -8 2 -11l133 -876z" />
<glyph unicode="X" horiz-adv-x="938" d="M483 1384v-137q-41 -3 -61.5 -14t-20.5 -31q1 -16 5.5 -34.5t13.5 -39.5l86 -198l88 192q13 26 16.5 40t3.5 28q0 27 -16 42t-45 15h-10v137h360v-136q-50 -3 -83.5 -31t-71.5 -109l-168 -350l235 -531q2 -4 5 -11q35 -79 93 -79h11v-137h-449v137q39 2 59.5 13.5 t20.5 31.5q0 16 -4.5 34t-13.5 40l-109 246l-117 -240q-9 -19 -13.5 -35.5t-4.5 -31.5q0 -28 16 -43t45 -15h11v-137h-361v137q51 2 82.5 27t75.5 112l194 398l-215 483q-23 55 -43 73.5t-49 18.5q-2 0 -7.5 -1t-8.5 -1v137h450z" />
<glyph unicode="Y" horiz-adv-x="840" d="M557 238q0 -56 25 -78.5t86 -22.5h18v-137h-504v137h19q61 0 85.5 22.5t24.5 78.5v333l-207 572q-24 65 -48.5 84.5t-67.5 19.5h-6v137h440v-136q-51 -4 -69.5 -13.5t-18.5 -30.5q0 -9 2.5 -21.5t7.5 -29.5l125 -387l111 388q5 17 7.5 29.5t2.5 20.5q0 21 -18.5 30.5 t-69.5 12.5v137h338l-1 -137q-46 -1 -70 -20.5t-42 -77.5l-170 -559v-352z" />
<glyph unicode="Z" horiz-adv-x="915" d="M315 131h136q143 0 202.5 84t59.5 295v53h116v-563h-763v145l507 1108h-104q-138 0 -200 -78.5t-62 -254.5v-41h-117v505h733v-145z" />
<glyph unicode="[" horiz-adv-x="635" d="M389 -14h238v-105h-437v1503h437v-104h-238v-1294z" />
<glyph unicode="\" horiz-adv-x="494" d="M518 -190h-129l-461 1607h129z" />
<glyph unicode="]" horiz-adv-x="635" d="M248 1280h-238v104h436v-1503h-436v105h238v1294z" />
<glyph unicode="^" horiz-adv-x="2048" d="M1130 1462l502 -565h-104l-506 397l-506 -397h-104l503 565h215z" />
<glyph unicode="_" d="M1024 -311v-172h-1024v172h1024z" />
<glyph unicode="`" d="M434 1487l273 -283h-91l-313 166q-56 30 -75 53t-19 56q0 40 25 65t65 25q30 0 61.5 -19t73.5 -63z" />
<glyph unicode="a" horiz-adv-x="895" d="M514 555q-36 -39 -106 -97q-129 -108 -129 -196q0 -47 31.5 -79.5t76.5 -32.5q66 0 96.5 54.5t30.5 172.5v178zM524 109q-45 -73 -100 -106.5t-131 -33.5q-108 0 -171 72.5t-63 198.5q0 69 20 122.5t60 90.5q55 50 167 105q40 20 59 30q87 49 123 98t36 115 q0 81 -43.5 128.5t-118.5 47.5q-54 0 -94 -26t-57 -72q8 2 16.5 3t24.5 1q48 0 73 -29t25 -84q0 -51 -33 -82t-88 -31q-66 0 -104.5 41t-38.5 113q0 123 91.5 203t236.5 80q162 0 241.5 -84.5t79.5 -255.5v-602q0 -32 7 -42t24 -10q21 0 30 26.5t9 92.5q0 10 -1 31.5 t-1 34.5h80v-70q0 -129 -42.5 -187.5t-133.5 -58.5q-73 0 -118 34.5t-65 105.5z" />
<glyph unicode="b" horiz-adv-x="858" d="M446 133q70 0 98.5 73.5t28.5 266.5q0 301 -27 379t-100 78q-70 0 -97 -75t-27 -327q0 -249 26.5 -322t97.5 -73zM207 0h-116q6 71 9.5 129.5t3.5 97.5v1000q0 58 -17 73t-77 15v125h316v-488q30 70 81 106t121 36q145 0 207 -127t62 -437q0 -309 -62 -435t-209 -126 q-82 0 -147.5 46t-112.5 137z" />
<glyph unicode="c" horiz-adv-x="764" d="M578 430h132q2 -11 2.5 -23.5t0.5 -35.5q0 -197 -76 -298.5t-223 -101.5q-193 0 -274 123.5t-81 429.5q0 292 84 431t258 139q142 0 225 -80t83 -215q0 -86 -39.5 -136.5t-106.5 -50.5q-54 0 -86.5 34.5t-32.5 92.5q0 52 28.5 85.5t70.5 33.5q8 0 15.5 -1.5t14.5 -4.5 q-4 48 -36.5 77t-81.5 29q-85 0 -122.5 -95.5t-37.5 -315.5q0 -253 32 -345.5t111 -92.5q74 0 107 75t33 246z" />
<glyph unicode="d" horiz-adv-x="891" d="M414 133q71 0 98 73t27 322q0 253 -27.5 327.5t-97.5 74.5q-71 0 -98 -75t-27 -327q0 -249 27 -322t98 -73zM535 1227q0 58 -17 73t-78 15v125h316v-1227q0 -59 18 -74.5t78 -15.5v-123h-317v90q-37 -61 -86.5 -91t-114.5 -30q-146 0 -207 125t-61 436q0 312 61 438 t205 126q70 0 121 -36t82 -106v275z" />
<glyph unicode="e" horiz-adv-x="770" d="M291 512v-59q0 -192 32 -268t107 -76q68 0 98.5 71t30.5 232h141q0 -9 1 -25t1 -22q0 -196 -74 -295t-222 -99q-187 0 -267 125.5t-80 427.5q0 292 84 431t258 139q87 0 153 -44.5t108 -129.5q22 -46 31 -104.5t9 -180.5v-33v-90h-411zM291 639h205v127 q0 112 -23.5 156.5t-79.5 44.5q-53 0 -77.5 -48.5t-24.5 -156.5v-123z" />
<glyph unicode="f" horiz-adv-x="522" d="M360 213q0 -60 17 -75t74 -15h16v-123h-424v123q59 0 76.5 15.5t17.5 74.5v725h-94v125h94v59q0 180 57.5 264t178.5 84q89 0 141.5 -49t52.5 -133q0 -52 -28.5 -83t-75.5 -31q-41 0 -64.5 24t-23.5 68q0 38 19 61.5t54 28.5q-11 16 -23.5 23t-29.5 7q-36 0 -58 -29.5 t-22 -80.5q0 -20 16 -90.5t24 -122.5h147v-125h-142v-725z" />
<glyph unicode="g" horiz-adv-x="864" d="M436 434q57 0 81 58t24 208q0 152 -24 210.5t-81 58.5q-58 0 -82 -58.5t-24 -210.5q0 -151 24 -208.5t82 -57.5zM285 -61q-27 -16 -40.5 -38t-13.5 -51q0 -62 68 -95.5t195 -33.5q119 0 187.5 32.5t68.5 88.5q0 32 -18.5 46t-70.5 20q-4 0 -24 1q-169 10 -352 30z M227 385q-59 48 -86.5 120t-27.5 175q0 189 83.5 301.5t221.5 112.5q30 0 58.5 -4.5t58.5 -14.5q47 67 99 101t107 34q68 0 109 -37t41 -100q0 -46 -25 -73t-67 -27q-37 0 -58.5 21t-21.5 57q0 27 13.5 45.5t39.5 25.5q-2 1 -4 1q-15 3 -23 3q-33 0 -62.5 -24.5t-53.5 -73.5 q64 -44 96.5 -120.5t32.5 -184.5q0 -204 -80.5 -309t-237.5 -105q-32 0 -67.5 8t-73.5 23q-29 -26 -42 -45t-13 -35q0 -34 43 -50t195 -28q30 -2 86 -6q177 -12 216 -37q51 -32 77 -85.5t26 -125.5q0 -155 -112.5 -237t-325.5 -82q-176 0 -279.5 54.5t-103.5 143.5 q0 49 37.5 88t115.5 70q-69 34 -102 82t-33 115q0 70 36 126t107 97z" />
<glyph unicode="h" horiz-adv-x="938" d="M360 213q0 -58 16 -73t70 -17v-123h-403v123q59 0 76.5 15.5t17.5 74.5v1014q0 58 -17 73t-77 15v125h317v-498q44 76 101.5 114t130.5 38q113 0 163 -75.5t50 -248.5v-557q0 -59 18 -74.5t78 -15.5v-123h-403v123q52 0 69 16t17 74v586q0 58 -21.5 87t-62.5 29 q-71 0 -105.5 -59.5t-34.5 -183.5v-459z" />
<glyph unicode="i" horiz-adv-x="500" d="M367 213q0 -60 17.5 -75t76.5 -15v-123h-412v123q59 0 76.5 15.5t17.5 74.5v637q0 58 -17 73t-77 15v125h318v-850zM113 1284q0 51 39.5 90t91.5 39t89.5 -38t37.5 -91q0 -56 -36 -92.5t-91 -36.5q-56 0 -93.5 37t-37.5 92z" />
<glyph unicode="j" horiz-adv-x="471" d="M119 1284q0 51 38.5 90t90.5 39q53 0 91 -38t38 -91q0 -56 -36.5 -92.5t-92.5 -36.5q-55 0 -92 37t-37 92zM145 850q0 58 -16.5 73t-75.5 15h-20v125h336v-1022q0 -162 -11 -226.5t-36 -103.5q-36 -53 -89.5 -77.5t-136.5 -24.5q-100 0 -160.5 56.5t-60.5 148.5 q0 64 31 103.5t80 39.5q46 0 73 -25t27 -69t-22 -71.5t-58 -27.5q-7 1 -22 7q-3 1 -4 1q3 -26 23 -39.5t56 -13.5q49 0 77 38.5t28 107.5q0 30 -9.5 119t-9.5 149v717z" />
<glyph unicode="k" horiz-adv-x="924" d="M360 549l203 319q6 10 9 20.5t3 20.5q0 17 -10 23t-43 6h-28v125h370v-125q-50 0 -80 -14.5t-65 -63.5l-125 -178l219 -496q14 -33 35.5 -47.5t56.5 -15.5v-123h-379v123h6q23 0 35.5 10t12.5 29q0 5 -2.5 13t-6.5 18l-114 292l-97 -135v-137q0 -58 16 -73t70 -17v-123 h-403v123q59 0 76.5 15.5t17.5 74.5v1014q0 58 -17 73t-77 15v125h317v-891z" />
<glyph unicode="l" horiz-adv-x="496" d="M360 213q0 -60 18 -75t77 -15v-123h-412v123q59 0 76.5 15.5t17.5 74.5v1014q0 58 -17 73t-77 15v125h317v-1227z" />
<glyph unicode="m" horiz-adv-x="1380" d="M793 924q47 85 107 127.5t132 42.5q111 0 160 -76t49 -248v-557q0 -59 18 -74.5t78 -15.5v-123h-393l1 123q49 2 64 17.5t15 72.5v586q0 58 -22 87t-66 29q-68 0 -101.5 -61t-33.5 -182v-459q0 -58 16 -73.5t65 -16.5l1 -123h-381v123q49 1 65.5 17.5t16.5 72.5v586 q0 58 -22 87t-66 29q-68 0 -102 -61t-34 -182v-459q0 -59 16 -74t64 -16v-123h-393v123q59 0 76.5 15.5t17.5 74.5v637q0 58 -17 73t-77 15v125h309v-129q50 81 108 120.5t128 39.5q75 0 128.5 -45.5t72.5 -124.5z" />
<glyph unicode="n" horiz-adv-x="938" d="M360 213q0 -58 16 -73t70 -17v-123h-403v123q59 0 76.5 15.5t17.5 74.5v637q0 58 -17 73t-77 15v125h307v-129q51 82 110 121t132 39q113 0 163 -75.5t50 -248.5v-557q0 -59 18 -74.5t78 -15.5v-123h-403v123q52 0 69 16t17 74v586q0 58 -21.5 87t-62.5 29 q-71 0 -105.5 -59.5t-34.5 -183.5v-459z" />
<glyph unicode="o" horiz-adv-x="801" d="M401 113q61 0 83 68t22 351q0 282 -22.5 350t-82.5 68q-62 0 -85 -68t-23 -350q0 -283 23 -351t85 -68zM399 -31q-186 0 -262 121.5t-76 441.5q0 318 76.5 440t261.5 122q187 0 263.5 -122t76.5 -440t-76 -440.5t-264 -122.5z" />
<glyph unicode="p" horiz-adv-x="891" d="M479 133q70 0 98.5 73.5t28.5 266.5q0 301 -27.5 379t-99.5 78q-70 0 -97.5 -75t-27.5 -327q0 -249 27 -322t98 -73zM360 -143q0 -58 17 -73t69 -15h31v-125h-434v125q60 0 77 15t17 73v993q0 58 -17 73t-77 15v125h307v-127q34 79 87 118.5t124 39.5q144 0 206 -127 t62 -437q0 -319 -63 -440t-217 -121q-61 0 -109.5 29.5t-79.5 85.5v-227z" />
<glyph unicode="q" horiz-adv-x="858" d="M410 942q-69 0 -97 -74t-28 -274q0 -312 27 -388.5t98 -76.5q70 0 97.5 75.5t27.5 332.5q0 255 -27.5 330t-97.5 75zM530 84q-30 -57 -79.5 -86t-116.5 -29q-149 0 -211 126t-62 458q0 290 68.5 415.5t222.5 125.5q77 0 139 -45.5t103 -130.5l55 145h117 q-6 -58 -9 -122.5t-3 -133.5v-950q0 -60 17 -74t77 -14v-125h-434v125h30q54 0 70 15.5t16 72.5v227z" />
<glyph unicode="r" horiz-adv-x="668" d="M315 967q32 62 77.5 94.5t103.5 32.5q75 0 124.5 -55t49.5 -138q0 -81 -35 -128.5t-94 -47.5q-48 0 -76.5 32.5t-28.5 86.5q0 51 25 81.5t67 30.5q6 0 13 -0.5t22 -2.5q-6 23 -24 35.5t-45 12.5q-67 0 -100.5 -65.5t-33.5 -198.5v-524q0 -60 18.5 -75t86.5 -15v-123h-422 v123q59 0 76.5 15.5t17.5 74.5v637q0 58 -17 73t-77 15v125h272v-96z" />
<glyph unicode="s" horiz-adv-x="801" d="M68 0v420h120q33 -166 93 -247t149 -81q56 0 92.5 36.5t36.5 90.5q0 50 -34.5 91.5t-114.5 86.5q-32 18 -88 48q-106 58 -134 79q-73 59 -101 114.5t-28 139.5q0 142 77.5 229t203.5 87q61 0 114 -24t107 -77l43 70h96v-371h-120q-16 129 -72 204t-133 75 q-56 0 -89.5 -33.5t-33.5 -89.5q0 -49 27.5 -85.5t95.5 -74.5q36 -19 97 -51q98 -51 124 -70q88 -64 122 -126t34 -152q0 -147 -83.5 -233.5t-224.5 -86.5q-69 0 -125 25.5t-100 77.5l-43 -72h-108z" />
<glyph unicode="t" horiz-adv-x="551" d="M113 938h-84v125q85 4 130 64.5t66 199.5h111v-264h145v-125h-145v-756q0 -37 10.5 -55t32.5 -18q29 0 42 43t13 143v24h84v-96q0 -133 -46 -193.5t-148 -60.5q-111 0 -161 67t-50 216v686z" />
<glyph unicode="u" horiz-adv-x="930" d="M571 850q0 56 -15.5 71t-69.5 17l-1 125h308v-850q0 -59 18 -74.5t78 -15.5v-123h-309v127q-51 -81 -109.5 -119.5t-132.5 -38.5q-114 0 -163.5 75t-49.5 249v557q0 60 -16.5 74t-77.5 14v125h317v-801q0 -59 22 -88t66 -29q68 0 101.5 60.5t33.5 183.5v461z" />
<glyph unicode="v" horiz-adv-x="739" d="M272 0l-190 864q-10 43 -26.5 58.5t-51.5 15.5h-8v125h375l-1 -125q-34 -2 -47.5 -11t-13.5 -32q0 -5 2.5 -19.5t3.5 -23.5l95 -555l114 559q1 4 1.5 9.5t0.5 15.5q0 27 -13 42t-38 15h-8v125h276v-125q-39 -3 -55.5 -16t-23.5 -48l-197 -874h-195z" />
<glyph unicode="w" horiz-adv-x="1204" d="M262 0l-180 864q-10 42 -27.5 58t-52.5 16h-6v125h375l-1 -125q-32 -3 -45.5 -11.5t-13.5 -29.5q0 -9 3 -33q1 -8 1 -12l95 -616l114 620q1 5 1.5 11t0.5 16q0 27 -13.5 41t-41.5 14h-4v125h369l-1 -125q-33 -3 -46 -11.5t-13 -29.5q0 -9 3 -34q1 -8 1 -11l94 -616 l115 620q1 5 1.5 11t0.5 16q0 27 -13.5 41t-41.5 14h-4v125h274v-125q-37 -2 -53 -15t-25 -49l-188 -874h-211l-127 690l-129 -690h-211z" />
<glyph unicode="x" horiz-adv-x="834" d="M725 201q24 -43 48.5 -59.5t63.5 -18.5l1 -123h-404v123h6q24 0 38 9.5t14 25.5q-1 7 -10 25l-3 6l-98 180l-90 -164q-7 -11 -10.5 -21t-4.5 -18q0 -20 15.5 -31.5t42.5 -11.5h6v-123h-334v123q53 0 80 13.5t51 53.5l178 306l-200 385q-16 29 -38.5 43t-56.5 14h-8v125 h406v-125q-29 0 -44.5 -9t-15.5 -26q0 -4 2 -10.5t5 -12.5l84 -159l83 157q4 6 5.5 11.5t1.5 11.5q0 18 -15.5 27.5t-44.5 9.5v125h316l-1 -125q-49 -2 -69.5 -11.5t-36.5 -37.5l-172 -295z" />
<glyph unicode="y" horiz-adv-x="743" d="M315 -18l-215 864q-14 56 -32.5 72.5t-58.5 19.5l-1 125h367v-125q-31 0 -44.5 -9.5t-13.5 -31.5q0 -8 1 -13.5t1 -8.5l97 -480l92 475q1 3 1.5 7t0.5 12q0 23 -14 36t-39 13h-4v125h288v-125q-42 -3 -60.5 -20.5t-31.5 -71.5l-219 -912q-42 -175 -104.5 -251t-161.5 -76 q-89 0 -146 56.5t-57 146.5q0 73 32.5 116t86.5 43q48 0 76 -28.5t28 -77.5q0 -51 -21.5 -78t-62.5 -27h-4q6 -21 20.5 -31t39.5 -10q61 0 99 63t60 202z" />
<glyph unicode="z" horiz-adv-x="764" d="M39 0v123l418 815h-54q-151 0 -194.5 -45.5t-46.5 -189.5l-105 -1v361h641v-125l-411 -815h51q150 0 197 51.5t59 233.5h104v-408h-659z" />
<glyph unicode="{" d="M850 1459q-128 -2 -175.5 -55t-47.5 -210v-137q0 -225 -56.5 -307.5t-208.5 -114.5q152 -32 208.5 -114.5t56.5 -307.5v-137q0 -157 47 -209t176 -54v-57h-10q-222 0 -305.5 74t-83.5 272v201q0 161 -58 223.5t-215 75.5v68q159 15 216 76t57 223v200q0 200 84.5 273.5 t314.5 73.5v-57z" />
<glyph unicode="|" d="M602 1565v-2048h-178v2048h178z" />
<glyph unicode="}" d="M575 1169v-200q0 -162 57 -223t216 -76v-68q-157 -13 -215 -74.5t-58 -224.5v-201q0 -197 -84 -271.5t-307 -74.5h-10v57q129 2 176 54t47 209v137q0 227 56.5 308.5t208.5 113.5q-151 32 -208 113.5t-57 308.5v137q0 157 -47.5 210t-175.5 55v57h10q223 0 307 -74.5 t84 -272.5z" />
<glyph unicode="~" horiz-adv-x="1706" d="M1530 600q-103 -71 -197.5 -106t-183.5 -35q-44 0 -92.5 8.5t-98.5 26.5q-25 8 -76 26q-212 74 -319 74q-82 0 -174 -38t-211 -122v187q106 72 202 107.5t185 35.5q62 0 125.5 -12t168.5 -48q13 -4 42 -15q164 -58 250 -58q85 0 177 37t202 116v-184z" />
<glyph horiz-adv-x="901" d="M821 418v-21q0 -209 -86 -319.5t-250 -110.5q-168 0 -262.5 135.5t-107.5 397.5h-140l43 98h91l4 190h-156l45 99h117q22 257 113.5 394.5t238.5 137.5q61 0 111 -26.5t100 -85.5l18 82h113v-369h-119q-18 123 -64.5 183.5t-121.5 60.5q-85 0 -124.5 -90t-41.5 -287h363 l-46 -99h-317v-190h233l-45 -98h-188v-37q0 -188 38.5 -268t127.5 -80q87 0 130.5 68t43.5 206v29h139z" />
<glyph unicode="&#x20ac;" horiz-adv-x="901" d="M821 418v-21q0 -209 -86 -319.5t-250 -110.5q-168 0 -262.5 135.5t-107.5 397.5h-140l43 98h91l4 190h-156l45 99h117q22 257 113.5 394.5t238.5 137.5q61 0 111 -26.5t100 -85.5l18 82h113v-369h-119q-18 123 -64.5 183.5t-121.5 60.5q-85 0 -124.5 -90t-41.5 -287h363 l-46 -99h-317v-190h233l-45 -98h-188v-37q0 -188 38.5 -268t127.5 -80q87 0 130.5 68t43.5 206v29h139z" />
<glyph unicode="&#xa1;" horiz-adv-x="588" d="M412 1264q0 -62 -32.5 -99t-86.5 -37q-57 0 -88 35t-31 101q0 69 29.5 103t89.5 34q56 0 87.5 -36t31.5 -101zM344 1018v-260q0 -124 48 -313t48 -259q0 -103 -39 -161t-108 -58t-108.5 58.5t-39.5 160.5q0 70 49.5 259t49.5 313v260h100z" />
<glyph unicode="&#xa2;" horiz-adv-x="901" d="M371 209l131 516q0 63 27 98t75 35q9 0 20.5 -2t30.5 -8q-9 52 -44.5 81t-90.5 29q-96 0 -139 -92t-43 -301q0 -153 8.5 -244t24.5 -112zM768 430q1 -10 1.5 -22t0.5 -35q0 -199 -81 -301.5t-238 -102.5q-8 0 -18 1t-29 3l-74 -266h-99l78 293q-105 51 -148.5 164.5 t-43.5 359.5q0 291 84 430.5t260 139.5q29 0 60 -6t63 -17l67 250h107l-82 -309q44 -44 67 -101t23 -120q0 -84 -41 -132.5t-113 -48.5q-15 0 -25.5 2.5t-18.5 7.5l-132 -499q17 -6 32.5 -9t29.5 -3q79 0 116 73.5t37 233.5v14h117z" />
<glyph unicode="&#xa3;" horiz-adv-x="901" d="M96 -37l-61 137q126 63 182.5 130t56.5 153q0 34 -13 94.5t-38 140.5h-188v105h158q-26 88 -39 163t-13 134q0 183 100.5 289t272.5 106q138 0 217.5 -65t79.5 -176q0 -70 -35.5 -112t-93.5 -42q-51 0 -83 33t-32 86q0 49 27 77t77 32q-25 25 -58.5 38.5t-71.5 13.5 q-81 0 -127.5 -56t-46.5 -154q0 -47 14 -136t45 -231h227v-105h-209q7 -44 10 -79.5t3 -61.5q0 -103 -42.5 -173t-138.5 -126l5 -16q52 23 95 34t79 11q37 0 93 -12.5t75 -12.5q62 0 89 46t27 153v29l113 -1q1 -10 1.5 -23t0.5 -38q0 -184 -65.5 -284.5t-184.5 -100.5 q-53 0 -157.5 39t-157.5 39q-44 0 -90 -18.5t-103 -59.5z" />
<glyph unicode="&#xa4;" horiz-adv-x="901" d="M821 418v-21q0 -209 -86 -319.5t-250 -110.5q-168 0 -262.5 135.5t-107.5 397.5h-140l43 98h91l4 190h-156l45 99h117q22 257 113.5 394.5t238.5 137.5q61 0 111 -26.5t100 -85.5l18 82h113v-369h-119q-18 123 -64.5 183.5t-121.5 60.5q-85 0 -124.5 -90t-41.5 -287h363 l-46 -99h-317v-190h233l-45 -98h-188v-37q0 -188 38.5 -268t127.5 -80q87 0 130.5 68t43.5 206v29h139z" />
<glyph unicode="&#xa5;" horiz-adv-x="901" d="M569 238q0 -56 25 -78.5t86 -22.5h16v-137h-471v137h19q60 0 84 22t24 79v329h-329v101h294l-65 174h-229v100h194l-70 201q-23 63 -48 83.5t-70 20.5h-6v137h409v-136q-50 -4 -68 -13.5t-18 -30.5q0 -11 2 -24t6 -26l127 -388l111 387q4 14 6 26.5t2 24.5q0 21 -18 30.5 t-68 13.5v136h338v-136q-47 -2 -71.5 -22t-41.5 -77l-61 -207h199v-100h-228l-51 -174h279v-101h-308v-329z" />
<glyph unicode="&#xa6;" d="M602 408v-758h-178v758h178zM602 1432v-758h-178v758h178z" />
<glyph unicode="&#xa7;" horiz-adv-x="948" d="M334 743q-42 -26 -68 -71t-26 -90q0 -63 67 -120t301 -171q54 39 78.5 78t24.5 84q0 97 -214 204q-102 52 -163 86zM270 793q-71 54 -106 120.5t-35 147.5q0 153 103 253.5t260 100.5q137 0 224 -68.5t87 -177.5q0 -59 -35.5 -95t-93.5 -36q-53 0 -84 29t-31 78 q0 44 21.5 69t64.5 31q-20 33 -56.5 49.5t-88.5 16.5q-85 0 -136 -48.5t-51 -127.5q0 -75 47 -129t191 -129q21 -12 65 -33q119 -57 172 -101q43 -33 66 -87t23 -121q0 -101 -53.5 -175.5t-151.5 -111.5q77 -51 116 -122t39 -161q0 -159 -107.5 -259.5t-279.5 -100.5 q-145 0 -239.5 70.5t-94.5 177.5q0 65 37.5 105t98.5 40q54 0 87 -33.5t33 -89.5q0 -38 -18.5 -63.5t-58.5 -40.5q17 -31 52 -46.5t89 -15.5q101 0 162 52t61 137q0 119 -278 265l-9 5q-193 103 -243.5 167.5t-50.5 158.5q0 98 50.5 173t151.5 126z" />
<glyph unicode="&#xa8;" d="M694 1489q49 0 84 -35t35 -84q0 -53 -33 -87t-86 -34q-51 0 -86 34.5t-35 86.5q0 48 36 83.5t85 35.5zM330 1489q49 0 84 -35t35 -84q0 -53 -33.5 -87t-85.5 -34t-86.5 34.5t-34.5 86.5q0 48 36 83.5t85 35.5z" />
<glyph unicode="&#xa9;" horiz-adv-x="1683" d="M1165 1100l2 -320h-47q-32 134 -102 203.5t-172 69.5q-116 0 -176 -94t-60 -275q0 -184 65 -281.5t189 -97.5q82 0 151 43.5t126 130.5l43 -26q-63 -108 -150 -160.5t-200 -52.5q-177 0 -297.5 124t-120.5 306q0 184 119.5 309t295.5 125q80 0 154 -33t78 -33 q28 0 41.5 14t19.5 48h41zM1464 678q0 124 -48 241.5t-136 204.5q-86 86 -200 133.5t-236 47.5q-126 0 -241 -48t-202 -137q-88 -90 -135 -203.5t-47 -238.5q0 -126 47.5 -239.5t136.5 -202.5q91 -91 201.5 -137t237.5 -46q126 0 238.5 47t199.5 136q88 89 136 204.5 t48 237.5zM844 1401q140 0 272.5 -55.5t233.5 -155.5q101 -102 157 -235.5t56 -276.5q0 -142 -55.5 -274t-157.5 -236q-101 -102 -231 -155.5t-277 -53.5q-145 0 -274.5 53t-233.5 156q-104 104 -158.5 234.5t-54.5 275.5q0 143 54 274.5t157 235.5q102 102 235 157.5 t277 55.5z" />
<glyph unicode="&#xaa;" horiz-adv-x="672" d="M385 1030q-27 -27 -80 -68q-96 -75 -96 -137q0 -33 23.5 -56.5t58.5 -23.5q49 0 71.5 38t22.5 122v125zM393 717q-34 -51 -75 -73.5t-99 -22.5q-80 0 -127 50.5t-47 137.5q0 47 15 85t44 64q40 35 123 72q33 15 47 23q65 34 92 68.5t27 80.5q0 57 -32 90t-89 33 q-40 0 -70 -18t-44 -52q6 3 12.5 4t17.5 1q37 0 55.5 -20.5t18.5 -59.5q0 -36 -24.5 -57t-65.5 -21q-50 0 -78 28t-28 78q0 87 68 143t177 56q121 0 180.5 -59t59.5 -179v-421q0 -23 5.5 -30t18.5 -7q16 0 22.5 19t6.5 65q0 7 -1 21.5t-1 23.5h60v-47q0 -91 -31 -131.5 t-101 -40.5q-54 0 -88 23.5t-49 72.5z" />
<glyph unicode="&#xab;" horiz-adv-x="786" d="M606 211q-114 141 -158.5 214t-44.5 116q0 41 44 116.5t155 223.5h113q-73 -177 -94 -240.5t-21 -95.5q0 -35 22.5 -96t106.5 -238h-123zM264 211q-114 141 -158.5 214t-44.5 116q0 41 44 116.5t155 223.5h113q-67 -162 -90 -231.5t-23 -104.5t22.5 -96t106.5 -238h-125z " />
<glyph unicode="&#xac;" horiz-adv-x="1706" d="M1452 862v-502h-166v336h-1032v166h1198z" />
<glyph unicode="&#xad;" horiz-adv-x="639" d="M84 455v178h473v-178h-473z" />
<glyph unicode="&#xae;" horiz-adv-x="1683" d="M748 981v-258q14 -1 27 -1.5t26 -0.5q100 0 154.5 44t54.5 126q0 70 -46.5 114t-121.5 44q-47 0 -70.5 -17.5t-23.5 -50.5zM866 1096q145 0 232.5 -55t87.5 -142q0 -84 -65.5 -133t-217.5 -76q96 -25 147.5 -73t69.5 -127q6 -24 10 -67q9 -91 54 -91q29 0 44 34t15 99h49 v-23q0 -85 -43 -129.5t-127 -44.5q-46 0 -80 14.5t-53 43.5q-24 39 -27 111.5t-8 93.5q-16 74 -60.5 109.5t-121.5 35.5h-24v-246q0 -49 22.5 -69.5t85.5 -26.5v-47h-389v46q64 4 88.5 24.5t24.5 72.5v520q0 52 -23.5 72t-89.5 25v49h399zM1464 678q0 122 -48.5 240 t-135.5 206q-86 86 -200 133.5t-236 47.5q-126 0 -241 -48t-202 -137q-89 -90 -135.5 -203t-46.5 -239t47.5 -239.5t136.5 -202.5q91 -91 201.5 -137t237.5 -46q126 0 238.5 47t199.5 136q89 90 136.5 204.5t47.5 237.5zM844 1401q144 0 279 -57t235 -160 q98 -102 151.5 -235.5t53.5 -278.5q0 -138 -59.5 -272.5t-166.5 -239.5q-101 -100 -228 -149.5t-282 -49.5q-135 0 -264 54.5t-229 154.5q-105 104 -159 234t-54 276q0 143 54.5 275t156.5 235q102 102 235 157.5t277 55.5z" />
<glyph unicode="&#xaf;" d="M236 1442h552v-148h-552v148z" />
<glyph unicode="&#xb0;" horiz-adv-x="674" d="M522 1165q0 77 -53.5 131t-130.5 54t-131.5 -54t-54.5 -131q0 -76 54.5 -131t131.5 -55t130.5 54.5t53.5 131.5zM338 1460q123 0 209 -87t86 -210q0 -121 -87 -208t-210 -87t-208 85.5t-85 209.5q0 125 86 211t209 86z" />
<glyph unicode="&#xb1;" horiz-adv-x="1706" d="M1452 182v-168h-1198v168h1198zM938 1206v-334h514v-165h-514v-334h-170v334h-514v165h514v334h170z" />
<glyph unicode="&#xb2;" horiz-adv-x="594" d="M39 551v67q0 77 31 144.5t118 162.5q10 11 31 33q137 148 137 242q0 58 -33.5 93.5t-89.5 35.5q-45 0 -75.5 -22t-36.5 -60q1 1 4 1q15 3 25 3q32 0 52.5 -19.5t20.5 -49.5q0 -37 -22.5 -58.5t-61.5 -21.5q-46 0 -73 28t-27 76q0 89 66 142t178 53q103 0 169 -56t66 -145 q0 -34 -10.5 -67t-32.5 -68q-27 -39 -127 -119q-51 -40 -78 -63q-62 -54 -99.5 -105t-45.5 -94q28 19 55 28t56 9q20 0 65.5 -10.5t71.5 -10.5q47 0 66.5 28t21.5 101h57v-53q0 -128 -33 -180.5t-110 -52.5q-50 0 -119 35l-4 2q-34 20 -51.5 26t-34.5 6q-23 0 -37 -14.5 t-14 -38.5v-8h-76z" />
<glyph unicode="&#xb3;" horiz-adv-x="594" d="M342 983q87 -15 137.5 -73.5t50.5 -143.5q0 -107 -71.5 -172.5t-190.5 -65.5q-106 0 -171.5 53t-65.5 138q0 54 26.5 85.5t73.5 31.5q37 0 59.5 -21.5t22.5 -56.5q0 -31 -18.5 -49.5t-49.5 -18.5q-8 0 -27 3q-4 1 -5 1q3 -36 38 -60t85 -24q63 0 100 44t37 120 q0 84 -41 130t-115 46q-3 0 -9.5 -1t-10.5 -1v68h10q79 0 120.5 42.5t41.5 123.5q0 67 -34.5 104t-96.5 37q-42 0 -69 -20.5t-35 -58.5q4 3 11 5t17 2q35 0 53 -17t18 -50q0 -36 -23 -56t-63 -20q-45 0 -71.5 27t-26.5 75q0 84 64 137.5t166 53.5q105 0 170 -59t65 -154 q0 -80 -42 -130t-130 -75z" />
<glyph unicode="&#xb4;" d="M721 1370l-313 -166h-91l273 283q42 44 73.5 63t61.5 19q40 0 65 -25t25 -65q0 -33 -19 -56t-75 -53z" />
<glyph unicode="&#xb5;" horiz-adv-x="1184" d="M68 373l108 512h207l-100 -467q-10 -46 -15.5 -82t-5.5 -57q0 -64 37 -101t102 -37q87 0 139 53.5t76 167.5l111 523h209l-113 -533l-3 -15q-15 -70 -15 -110q0 -42 22.5 -66t63.5 -24q40 0 71 21.5t58 68.5q9 17 23 49q25 60 51 60q11 0 16.5 -7.5t5.5 -23.5 q0 -28 -17 -85.5t-40 -100.5q-41 -72 -95.5 -108t-123.5 -36q-84 0 -129.5 55t-47.5 156q-42 -104 -109.5 -157.5t-156.5 -53.5q-99 0 -156.5 58t-68.5 168q-23 -124 -48 -315q-39 -306 -134 -306q-47 0 -73 26.5t-26 74.5q0 52 69 282.5t108 409.5z" />
<glyph unicode="&#xb6;" d="M969 1380h-117v-1380h-129v1380h-168v-1380h-131v784q-168 6 -268.5 101t-100.5 245q0 158 107 253.5t284 95.5h523v-99z" />
<glyph unicode="&#xb7;" horiz-adv-x="451" d="M88 688q0 55 41 96t96 41q56 0 95.5 -40t39.5 -95q0 -59 -38 -98t-97 -39q-56 0 -96.5 40t-40.5 95z" />
<glyph unicode="&#xb8;" d="M465 0h78l-25 -109q2 1 6 1q31 4 43 4q93 0 145 -46t52 -126q0 -86 -60 -133.5t-169 -47.5q-56 0 -124.5 18t-181.5 64l41 88q73 -39 129.5 -56t108.5 -17q49 0 73.5 21.5t24.5 66.5q0 40 -30.5 62t-88.5 22q-13 0 -28.5 -1.5t-34.5 -4.5z" />
<glyph unicode="&#xb9;" horiz-adv-x="594" d="M377 1401v-723q0 -35 11.5 -44t51.5 -9h19v-74h-309v74h30q36 0 47 9t11 44v553h-88v67q77 4 112 27t47 76h68z" />
<glyph unicode="&#xba;" horiz-adv-x="600" d="M301 721q45 0 61.5 45.5t16.5 247.5q0 201 -16.5 247t-61.5 46q-47 0 -64.5 -48.5t-17.5 -244.5q0 -197 17.5 -245t64.5 -48zM299 621q-139 0 -195.5 84.5t-56.5 308.5t56.5 308.5t195.5 84.5q140 0 198 -86t58 -307q0 -222 -57.5 -307.5t-198.5 -85.5z" />
<glyph unicode="&#xbb;" horiz-adv-x="786" d="M522 879q112 -139 157.5 -213.5t45.5 -116.5t-43.5 -117.5t-155.5 -222.5h-112l18 44q96 236 96 296q0 51 -114 294l-17 36h125zM180 879q112 -139 157.5 -213.5t45.5 -116.5q0 -43 -44.5 -120t-152.5 -220h-114l18 44q96 236 96 296q0 55 -128 328l-1 2h123z" />
<glyph unicode="&#xbc;" horiz-adv-x="1477" d="M1001 262h220v375zM1354 119q0 -33 10.5 -41t48.5 -8h19v-70h-308v70h41q34 0 45 8.5t11 40.5v74h-291v75l295 508h129v-514h92v-69h-92v-74zM225 -33l924 1450h100l-921 -1450h-103zM358 1401v-676q0 -32 11.5 -40.5t50.5 -8.5h16v-70h-293v70h29q33 0 43 8.5t10 40.5 v516h-82v63q71 2 105.5 24t46.5 73h63z" />
<glyph unicode="&#xbd;" horiz-adv-x="1477" d="M946 0v63q0 71 29.5 134t114.5 153l30 33q129 135 129 223q0 55 -32 87t-87 32q-43 0 -71 -20t-33 -53q4 0 9 0.5t16 0.5q31 0 51 -18t20 -47q0 -34 -21.5 -54t-58.5 -20q-44 0 -70 26.5t-26 71.5q0 83 63.5 133t170.5 50q97 0 160 -53t63 -136q0 -32 -10 -62t-31 -63 q-25 -38 -120 -112q-49 -38 -75 -60q-60 -50 -95 -98t-42 -88q23 17 49.5 26t55.5 9q20 0 63 -9.5t66 -9.5q46 0 65 26t21 95h55v-49q0 -118 -32 -167.5t-105 -49.5q-48 0 -113 31l-5 2q-1 1 -5 3q-51 27 -78 27q-21 0 -34 -13.5t-13 -35.5v-8h-74zM225 -33l924 1450h100 l-921 -1450h-103zM358 1401v-676q0 -32 11.5 -40.5t50.5 -8.5h16v-70h-293v70h29q33 0 43 8.5t10 40.5v516h-82v63q71 2 105.5 24t46.5 73h63z" />
<glyph unicode="&#xbe;" horiz-adv-x="1477" d="M1001 262h220v375zM1354 119q0 -33 10.5 -41t48.5 -8h19v-70h-308v70h41q34 0 45 8.5t11 40.5v74h-291v75l295 508h129v-514h92v-69h-92v-74zM225 -33l924 1450h100l-921 -1450h-103zM326 1010q83 -14 131.5 -68.5t48.5 -134.5q0 -101 -68.5 -161t-181.5 -60 q-102 0 -164.5 49t-62.5 129q0 49 26 77.5t70 28.5q35 0 57.5 -19t22.5 -50q0 -29 -18.5 -47.5t-47.5 -18.5q-7 0 -14.5 1.5t-15.5 4.5q1 -33 34.5 -56t81.5 -23q60 0 94.5 40.5t34.5 112.5q0 78 -38.5 121t-108.5 43q-3 0 -9.5 -1t-9.5 -1v63h9q75 0 114 39.5t39 114.5 q0 64 -32.5 98.5t-92.5 34.5q-37 0 -63 -19.5t-35 -54.5q7 4 13 5t14 2q34 0 51.5 -16t17.5 -48t-21.5 -51t-60.5 -19q-44 0 -69 26t-25 71q0 77 61 126.5t158 49.5q102 0 164 -55t62 -144q0 -74 -41 -120.5t-125 -69.5z" />
<glyph unicode="&#xbf;" horiz-adv-x="801" d="M500 1024v-172q0 -127 -13.5 -185t-44.5 -108q-13 -22 -41 -62q-100 -147 -100 -235q0 -78 45.5 -123t122.5 -45q65 0 112 32.5t54 80.5q-12 -11 -25.5 -16t-29.5 -5q-50 0 -80.5 32t-30.5 85q0 63 35 100t94 37q68 0 107.5 -43.5t39.5 -117.5q0 -133 -94.5 -221.5 t-236.5 -88.5q-151 0 -244.5 84.5t-93.5 220.5q0 65 19 121t57 101q37 45 94.5 96t68.5 65q38 46 53 94t15 132v141h117zM561 1268q0 -61 -33 -97t-86 -36q-58 0 -88 33.5t-30 99.5q0 70 29 104.5t89 34.5q55 0 87 -37.5t32 -101.5z" />
<glyph unicode="&#xc0;" horiz-adv-x="985" d="M336 573h213l-105 570zM2 0v137q92 2 118 126q2 9 3 13l242 1108h253l230 -1054l2 -10q37 -183 117 -183h12v-137h-467v137q59 4 78.5 17.5t19.5 48.5q0 9 -4 32q-3 14 -4 21l-29 176h-266l-33 -170q-6 -29 -8 -42t-2 -21q0 -32 19.5 -48t58.5 -16q3 0 10.5 1t12.5 1 v-137h-363zM414 1813l273 -283h-91l-313 166q-56 30 -75 53t-19 56q0 40 25 65t65 25q30 0 61.5 -19t73.5 -63z" />
<glyph unicode="&#xc1;" horiz-adv-x="985" d="M336 573h213l-105 570zM2 0v137q92 2 118 126q2 9 3 13l242 1108h253l230 -1054l2 -10q37 -183 117 -183h12v-137h-467v137q59 4 78.5 17.5t19.5 48.5q0 9 -4 32q-3 14 -4 21l-29 176h-266l-33 -170q-6 -29 -8 -42t-2 -21q0 -32 19.5 -48t58.5 -16q3 0 10.5 1t12.5 1 v-137h-363zM701 1696l-313 -166h-91l273 283q42 44 73.5 63t61.5 19q40 0 65 -25t25 -65q0 -33 -19 -56t-75 -53z" />
<glyph unicode="&#xc2;" horiz-adv-x="985" d="M336 573h213l-105 570zM2 0v137q92 2 118 126q2 9 3 13l242 1108h253l230 -1054l2 -10q37 -183 117 -183h12v-137h-467v137q59 4 78.5 17.5t19.5 48.5q0 9 -4 32q-3 14 -4 21l-29 176h-266l-33 -170q-6 -29 -8 -42t-2 -21q0 -32 19.5 -48t58.5 -16q3 0 10.5 1t12.5 1 v-137h-363zM418 1880h148l225 -350h-84l-215 180l-215 -180h-84z" />
<glyph unicode="&#xc3;" horiz-adv-x="985" d="M336 573h213l-105 570zM2 0v137q92 2 118 126q2 9 3 13l242 1108h253l230 -1054l2 -10q37 -183 117 -183h12v-137h-467v137q59 4 78.5 17.5t19.5 48.5q0 9 -4 32q-3 14 -4 21l-29 176h-266l-33 -170q-6 -29 -8 -42t-2 -21q0 -32 19.5 -48t58.5 -16q3 0 10.5 1t12.5 1 v-137h-363zM715 1854h66q-14 -117 -68 -182.5t-137 -65.5q-16 0 -52 7q-4 1 -5 1l-105 27q-11 3 -24 4.5t-33 1.5q-32 0 -53.5 -20.5t-36.5 -65.5h-66q17 124 69.5 186t141.5 62q19 0 34.5 -2t29.5 -6l108 -29q7 -2 16 -3t23 -1q32 0 54 20t38 66z" />
<glyph unicode="&#xc4;" horiz-adv-x="985" d="M336 573h213l-105 570zM2 0v137q92 2 118 126q2 9 3 13l242 1108h253l230 -1054l2 -10q37 -183 117 -183h12v-137h-467v137q59 4 78.5 17.5t19.5 48.5q0 9 -4 32q-3 14 -4 21l-29 176h-266l-33 -170q-6 -29 -8 -42t-2 -21q0 -32 19.5 -48t58.5 -16q3 0 10.5 1t12.5 1 v-137h-363zM674 1815q49 0 84 -35t35 -84q0 -53 -33 -87t-86 -34q-51 0 -86 34.5t-35 86.5q0 48 36 83.5t85 35.5zM310 1815q49 0 84 -35t35 -84q0 -53 -33.5 -87t-85.5 -34t-86.5 34.5t-34.5 86.5q0 48 36 83.5t85 35.5z" />
<glyph unicode="&#xc5;" horiz-adv-x="985" d="M489 1835q-54 0 -91.5 -37t-37.5 -90t37.5 -90t91.5 -37t89.5 36.5t35.5 90.5t-35.5 90.5t-89.5 36.5zM487 1966q108 0 183 -75t75 -183q0 -109 -74.5 -183.5t-183.5 -74.5t-183.5 74.5t-74.5 183.5q0 108 75.5 183t182.5 75zM336 573h213l-105 570zM2 0v137 q92 2 118 126q2 9 3 13l242 1108h253l230 -1054l2 -10q37 -183 117 -183h12v-137h-467v137q59 4 78.5 17.5t19.5 48.5q0 9 -4 32q-3 14 -4 21l-29 176h-266l-33 -170q-6 -29 -8 -42t-2 -21q0 -32 19.5 -48t58.5 -16q3 0 10.5 1t12.5 1v-137h-363z" />
<glyph unicode="&#xc6;" horiz-adv-x="1417" d="M354 637h228v614h-52zM477 0v137q58 0 81.5 22.5t23.5 78.5v251h-271l-69 -237q-4 -13 -6.5 -26.5t-2.5 -28.5q0 -34 19 -47t72 -13v-137h-351l7 137h8q69 0 112 153v3l256 854q2 8 3 19t1 24q0 30 -15 41t-78 16l-1 137h1045v-456h-117q-8 186 -74 252.5t-252 66.5h-49 v-465h29q86 0 122 43.5t36 149.5v10h108v-543h-108v9q0 106 -36 150t-122 44h-29v-508h68q188 0 254.5 80.5t70.5 312.5h115v-530h-850z" />
<glyph unicode="&#xc7;" horiz-adv-x="860" d="M639 575h137v-124q0 -245 -84.5 -364.5t-257.5 -119.5q-202 0 -285 152t-83 536q0 393 88 576.5t276 183.5q69 0 120 -29t89 -90l45 88h92v-512h-137v48q0 179 -37 254t-123 75q-90 0 -123.5 -129.5t-33.5 -556.5q0 -264 33 -349t118 -85q89 0 127.5 78.5t38.5 263.5v104 zM377 0h78l-25 -109q2 1 6 1q31 4 43 4q93 0 145 -46t52 -126q0 -86 -60 -133.5t-169 -47.5q-56 0 -124.5 18t-181.5 64l41 88q73 -39 129.5 -56t108.5 -17q49 0 73.5 21.5t24.5 66.5q0 40 -30.5 62t-88.5 22q-13 0 -28.5 -1.5t-34.5 -4.5z" />
<glyph unicode="&#xc8;" horiz-adv-x="1010" d="M66 0v137q57 0 80.5 22.5t23.5 78.5v909q0 56 -23.5 78t-80.5 22v137h841v-456h-116q-8 185 -74 252t-252 67h-47v-465h26q87 0 122.5 43.5t35.5 149.5v10h109v-543h-109v9q0 106 -36 150t-122 44h-26v-508h67q188 0 253.5 79.5t70.5 313.5h115v-530h-858zM426 1813 l273 -283h-91l-313 166q-56 30 -75 53t-19 56q0 40 25 65t65 25q30 0 61.5 -19t73.5 -63z" />
<glyph unicode="&#xc9;" horiz-adv-x="1010" d="M66 0v137q57 0 80.5 22.5t23.5 78.5v909q0 56 -23.5 78t-80.5 22v137h841v-456h-116q-8 185 -74 252t-252 67h-47v-465h26q87 0 122.5 43.5t35.5 149.5v10h109v-543h-109v9q0 106 -36 150t-122 44h-26v-508h67q188 0 253.5 79.5t70.5 313.5h115v-530h-858zM713 1696 l-313 -166h-91l273 283q42 44 73.5 63t61.5 19q40 0 65 -25t25 -65q0 -33 -19 -56t-75 -53z" />
<glyph unicode="&#xca;" horiz-adv-x="1010" d="M66 0v137q57 0 80.5 22.5t23.5 78.5v909q0 56 -23.5 78t-80.5 22v137h841v-456h-116q-8 185 -74 252t-252 67h-47v-465h26q87 0 122.5 43.5t35.5 149.5v10h109v-543h-109v9q0 106 -36 150t-122 44h-26v-508h67q188 0 253.5 79.5t70.5 313.5h115v-530h-858zM430 1880h148 l225 -350h-84l-215 180l-215 -180h-84z" />
<glyph unicode="&#xcb;" horiz-adv-x="1010" d="M66 0v137q57 0 80.5 22.5t23.5 78.5v909q0 56 -23.5 78t-80.5 22v137h841v-456h-116q-8 185 -74 252t-252 67h-47v-465h26q87 0 122.5 43.5t35.5 149.5v10h109v-543h-109v9q0 106 -36 150t-122 44h-26v-508h67q188 0 253.5 79.5t70.5 313.5h115v-530h-858zM686 1815 q49 0 84 -35t35 -84q0 -53 -33 -87t-86 -34q-51 0 -86 34.5t-35 86.5q0 48 36 83.5t85 35.5zM322 1815q49 0 84 -35t35 -84q0 -53 -33.5 -87t-85.5 -34t-86.5 34.5t-34.5 86.5q0 48 36 83.5t85 35.5z" />
<glyph unicode="&#xcc;" horiz-adv-x="602" d="M528 1384v-137q-58 -1 -81 -23.5t-23 -76.5v-909q0 -56 23 -78.5t81 -22.5v-137h-454v137q58 0 81 22.5t23 78.5v909q0 56 -23 78t-81 22v137h454zM223 1813l273 -283h-91l-313 166q-56 30 -75 53t-19 56q0 40 25 65t65 25q30 0 61.5 -19t73.5 -63z" />
<glyph unicode="&#xcd;" horiz-adv-x="602" d="M528 1384v-137q-58 -1 -81 -23.5t-23 -76.5v-909q0 -56 23 -78.5t81 -22.5v-137h-454v137q58 0 81 22.5t23 78.5v909q0 56 -23 78t-81 22v137h454zM510 1696l-313 -166h-91l273 283q42 44 73.5 63t61.5 19q40 0 65 -25t25 -65q0 -33 -19 -56t-75 -53z" />
<glyph unicode="&#xce;" horiz-adv-x="602" d="M528 1384v-137q-58 -1 -81 -23.5t-23 -76.5v-909q0 -56 23 -78.5t81 -22.5v-137h-454v137q58 0 81 22.5t23 78.5v909q0 56 -23 78t-81 22v137h454zM227 1880h148l225 -350h-84l-215 180l-215 -180h-84z" />
<glyph unicode="&#xcf;" horiz-adv-x="602" d="M528 1384v-137q-58 -1 -81 -23.5t-23 -76.5v-909q0 -56 23 -78.5t81 -22.5v-137h-454v137q58 0 81 22.5t23 78.5v909q0 56 -23 78t-81 22v137h454zM483 1815q49 0 84 -35t35 -84q0 -53 -33 -87t-86 -34q-51 0 -86 34.5t-35 86.5q0 48 36 83.5t85 35.5zM119 1815 q49 0 84 -35t35 -84q0 -53 -33.5 -87t-85.5 -34t-86.5 34.5t-34.5 86.5q0 48 36 83.5t85 35.5z" />
<glyph unicode="&#xd0;" horiz-adv-x="1010" d="M432 1247v-463h154v-133h-154v-514h62q115 0 157.5 86.5t42.5 468.5t-42.5 468.5t-157.5 86.5h-62zM80 0v137q58 0 82 22.5t24 78.5v413h-166v133h166v363q0 55 -24 77.5t-82 22.5v137h311q171 0 249 -21t134 -71q91 -81 130.5 -217t39.5 -383t-39.5 -384t-130.5 -218 q-56 -49 -132 -69.5t-251 -20.5h-311z" />
<glyph unicode="&#xd1;" horiz-adv-x="1073" d="M766 403v744q0 52 -21.5 74.5t-74.5 25.5v137h350v-136q-60 -3 -82.5 -25t-22.5 -76v-1147h-262l-334 1079v-841q0 -53 22 -75.5t75 -25.5v-137h-350v137q57 0 80.5 22.5t23.5 78.5v909q0 56 -23.5 78t-80.5 22v137h401zM778 1854h66q-14 -117 -68 -182.5t-137 -65.5 q-16 0 -52 7q-4 1 -5 1l-105 27q-11 3 -24 4.5t-33 1.5q-32 0 -53.5 -20.5t-36.5 -65.5h-66q17 124 69.5 186t141.5 62q19 0 34.5 -2t29.5 -6l108 -29q7 -2 16 -3t23 -1q32 0 54 20t38 66z" />
<glyph unicode="&#xd2;" horiz-adv-x="909" d="M455 125q76 0 104.5 94t28.5 471q0 376 -28.5 469.5t-104.5 93.5q-77 0 -105 -93.5t-28 -469.5q0 -377 28 -471t105 -94zM455 -37q-101 0 -175.5 39.5t-125.5 118.5q-47 73 -67.5 204t-20.5 365q0 235 20.5 366t67.5 204q50 78 125 116.5t176 38.5t176.5 -38.5 t126.5 -116.5q46 -71 66 -200t20 -370t-20 -370t-66 -199q-51 -79 -127 -118.5t-176 -39.5zM377 1813l273 -283h-91l-313 166q-56 30 -75 53t-19 56q0 40 25 65t65 25q30 0 61.5 -19t73.5 -63z" />
<glyph unicode="&#xd3;" horiz-adv-x="909" d="M455 125q76 0 104.5 94t28.5 471q0 376 -28.5 469.5t-104.5 93.5q-77 0 -105 -93.5t-28 -469.5q0 -377 28 -471t105 -94zM455 -37q-101 0 -175.5 39.5t-125.5 118.5q-47 73 -67.5 204t-20.5 365q0 235 20.5 366t67.5 204q50 78 125 116.5t176 38.5t176.5 -38.5 t126.5 -116.5q46 -71 66 -200t20 -370t-20 -370t-66 -199q-51 -79 -127 -118.5t-176 -39.5zM664 1696l-313 -166h-91l273 283q42 44 73.5 63t61.5 19q40 0 65 -25t25 -65q0 -33 -19 -56t-75 -53z" />
<glyph unicode="&#xd4;" horiz-adv-x="909" d="M455 125q76 0 104.5 94t28.5 471q0 376 -28.5 469.5t-104.5 93.5q-77 0 -105 -93.5t-28 -469.5q0 -377 28 -471t105 -94zM455 -37q-101 0 -175.5 39.5t-125.5 118.5q-47 73 -67.5 204t-20.5 365q0 235 20.5 366t67.5 204q50 78 125 116.5t176 38.5t176.5 -38.5 t126.5 -116.5q46 -71 66 -200t20 -370t-20 -370t-66 -199q-51 -79 -127 -118.5t-176 -39.5zM381 1880h148l225 -350h-84l-215 180l-215 -180h-84z" />
<glyph unicode="&#xd5;" horiz-adv-x="909" d="M455 125q76 0 104.5 94t28.5 471q0 376 -28.5 469.5t-104.5 93.5q-77 0 -105 -93.5t-28 -469.5q0 -377 28 -471t105 -94zM455 -37q-101 0 -175.5 39.5t-125.5 118.5q-47 73 -67.5 204t-20.5 365q0 235 20.5 366t67.5 204q50 78 125 116.5t176 38.5t176.5 -38.5 t126.5 -116.5q46 -71 66 -200t20 -370t-20 -370t-66 -199q-51 -79 -127 -118.5t-176 -39.5zM678 1854h66q-14 -117 -68 -182.5t-137 -65.5q-16 0 -52 7q-4 1 -5 1l-105 27q-11 3 -24 4.5t-33 1.5q-32 0 -53.5 -20.5t-36.5 -65.5h-66q17 124 69.5 186t141.5 62q19 0 34.5 -2 t29.5 -6l108 -29q7 -2 16 -3t23 -1q32 0 54 20t38 66z" />
<glyph unicode="&#xd6;" horiz-adv-x="909" d="M455 125q76 0 104.5 94t28.5 471q0 376 -28.5 469.5t-104.5 93.5q-77 0 -105 -93.5t-28 -469.5q0 -377 28 -471t105 -94zM455 -37q-101 0 -175.5 39.5t-125.5 118.5q-47 73 -67.5 204t-20.5 365q0 235 20.5 366t67.5 204q50 78 125 116.5t176 38.5t176.5 -38.5 t126.5 -116.5q46 -71 66 -200t20 -370t-20 -370t-66 -199q-51 -79 -127 -118.5t-176 -39.5zM637 1815q49 0 84 -35t35 -84q0 -53 -33 -87t-86 -34q-51 0 -86 34.5t-35 86.5q0 48 36 83.5t85 35.5zM273 1815q49 0 84 -35t35 -84q0 -53 -33.5 -87t-85.5 -34t-86.5 34.5 t-34.5 86.5q0 48 36 83.5t85 35.5z" />
<glyph unicode="&#xd7;" horiz-adv-x="1706" d="M862 729l461 459l117 -117l-459 -461l459 -458l-117 -119l-461 461l-459 -461l-116 119l458 458l-458 461l116 117z" />
<glyph unicode="&#xd8;" horiz-adv-x="909" d="M592 903l-258 -643q14 -70 43 -102.5t78 -32.5q78 0 108.5 93t30.5 376q0 116 -0.5 182t-1.5 127zM319 483l256 641q-12 66 -42 97.5t-78 31.5q-78 0 -109 -91.5t-31 -352.5q0 -80 4 -274v-52zM156 117q-48 61 -69 194.5t-21 378.5q0 235 20.5 366t67.5 204 q50 78 125 116.5t176 38.5q63 0 112.5 -13.5t89.5 -41.5l60 141h133l-94 -233q47 -71 67.5 -201.5t20.5 -376.5q0 -241 -20 -370t-66 -199q-51 -79 -127 -118.5t-176 -39.5q-62 0 -113 14.5t-92 42.5l-68 -172h-137z" />
<glyph unicode="&#xd9;" horiz-adv-x="991" d="M406 367q0 -150 28.5 -191t108.5 -41q79 0 108 41t29 191v780q0 52 -21.5 74.5t-74.5 25.5v137h362v-136q-60 -3 -82 -25t-22 -76v-748q0 -232 -80 -332t-262 -100t-261 100t-79 332v748q0 55 -24 77.5t-83 22.5v137h447l-1 -137q-52 -3 -72.5 -25t-20.5 -75v-780z M432 1813l273 -283h-91l-313 166q-56 30 -75 53t-19 56q0 40 25 65t65 25q30 0 61.5 -19t73.5 -63z" />
<glyph unicode="&#xda;" horiz-adv-x="991" d="M406 367q0 -150 28.5 -191t108.5 -41q79 0 108 41t29 191v780q0 52 -21.5 74.5t-74.5 25.5v137h362v-136q-60 -3 -82 -25t-22 -76v-748q0 -232 -80 -332t-262 -100t-261 100t-79 332v748q0 55 -24 77.5t-83 22.5v137h447l-1 -137q-52 -3 -72.5 -25t-20.5 -75v-780z M719 1696l-313 -166h-91l273 283q42 44 73.5 63t61.5 19q40 0 65 -25t25 -65q0 -33 -19 -56t-75 -53z" />
<glyph unicode="&#xdb;" horiz-adv-x="991" d="M406 367q0 -150 28.5 -191t108.5 -41q79 0 108 41t29 191v780q0 52 -21.5 74.5t-74.5 25.5v137h362v-136q-60 -3 -82 -25t-22 -76v-748q0 -232 -80 -332t-262 -100t-261 100t-79 332v748q0 55 -24 77.5t-83 22.5v137h447l-1 -137q-52 -3 -72.5 -25t-20.5 -75v-780z M436 1880h148l225 -350h-84l-215 180l-215 -180h-84z" />
<glyph unicode="&#xdc;" horiz-adv-x="991" d="M406 367q0 -150 28.5 -191t108.5 -41q79 0 108 41t29 191v780q0 52 -21.5 74.5t-74.5 25.5v137h362v-136q-60 -3 -82 -25t-22 -76v-748q0 -232 -80 -332t-262 -100t-261 100t-79 332v748q0 55 -24 77.5t-83 22.5v137h447l-1 -137q-52 -3 -72.5 -25t-20.5 -75v-780z M692 1815q49 0 84 -35t35 -84q0 -53 -33 -87t-86 -34q-51 0 -86 34.5t-35 86.5q0 48 36 83.5t85 35.5zM328 1815q49 0 84 -35t35 -84q0 -53 -33.5 -87t-85.5 -34t-86.5 34.5t-34.5 86.5q0 48 36 83.5t85 35.5z" />
<glyph unicode="&#xdd;" horiz-adv-x="840" d="M557 238q0 -56 25 -78.5t86 -22.5h18v-137h-504v137h19q61 0 85.5 22.5t24.5 78.5v333l-207 572q-24 65 -48.5 84.5t-67.5 19.5h-6v137h440v-136q-51 -4 -69.5 -13.5t-18.5 -30.5q0 -9 2.5 -21.5t7.5 -29.5l125 -387l111 388q5 17 7.5 29.5t2.5 20.5q0 21 -18.5 30.5 t-69.5 12.5v137h338l-1 -137q-46 -1 -70 -20.5t-42 -77.5l-170 -559v-352zM629 1696l-313 -166h-91l273 283q42 44 73.5 63t61.5 19q40 0 65 -25t25 -65q0 -33 -19 -56t-75 -53z" />
<glyph unicode="&#xde;" horiz-adv-x="975" d="M418 475h63q109 0 153 52t44 184q0 137 -40.5 188t-152.5 51h-67v-475zM170 1147q0 56 -23.5 78t-80.5 22v137h456v-137q-60 -2 -82 -24t-22 -76v-66h57q234 0 337 -89t103 -290q0 -192 -96.5 -277t-314.5 -85q-21 0 -42 0.5t-44 1.5v-104q0 -56 23 -78.5t81 -22.5h8 v-137h-464v137q57 0 80.5 22.5t23.5 78.5v909z" />
<glyph unicode="&#xdf;" horiz-adv-x="918" d="M27 0v123q59 0 76.5 15.5t17.5 74.5v862q0 197 86 296t258 99q151 0 241.5 -87t90.5 -234q0 -115 -59 -185.5t-179 -101.5q154 -16 221.5 -119.5t67.5 -326.5q0 -226 -64 -336.5t-196 -110.5q-54 0 -96.5 18.5t-77.5 57.5l78 105q24 -19 37 -25t24 -6q39 0 55.5 54.5 t16.5 193.5q0 244 -46 325.5t-169 83.5v127q91 11 131.5 62t40.5 157q0 100 -32 151.5t-93 51.5q-59 0 -86 -48t-27 -155v-1122h-317z" />
<glyph unicode="&#xe0;" horiz-adv-x="895" d="M514 555q-36 -39 -106 -97q-129 -108 -129 -196q0 -47 31.5 -79.5t76.5 -32.5q66 0 96.5 54.5t30.5 172.5v178zM524 109q-45 -73 -100 -106.5t-131 -33.5q-108 0 -171 72.5t-63 198.5q0 69 20 122.5t60 90.5q55 50 167 105q40 20 59 30q87 49 123 98t36 115 q0 81 -43.5 128.5t-118.5 47.5q-54 0 -94 -26t-57 -72q8 2 16.5 3t24.5 1q48 0 73 -29t25 -84q0 -51 -33 -82t-88 -31q-66 0 -104.5 41t-38.5 113q0 123 91.5 203t236.5 80q162 0 241.5 -84.5t79.5 -255.5v-602q0 -32 7 -42t24 -10q21 0 30 26.5t9 92.5q0 10 -1 31.5 t-1 34.5h80v-70q0 -129 -42.5 -187.5t-133.5 -58.5q-73 0 -118 34.5t-65 105.5zM346 1487l273 -283h-91l-313 166q-56 30 -75 53t-19 56q0 40 25 65t65 25q30 0 61.5 -19t73.5 -63z" />
<glyph unicode="&#xe1;" horiz-adv-x="895" d="M514 555q-36 -39 -106 -97q-129 -108 -129 -196q0 -47 31.5 -79.5t76.5 -32.5q66 0 96.5 54.5t30.5 172.5v178zM524 109q-45 -73 -100 -106.5t-131 -33.5q-108 0 -171 72.5t-63 198.5q0 69 20 122.5t60 90.5q55 50 167 105q40 20 59 30q87 49 123 98t36 115 q0 81 -43.5 128.5t-118.5 47.5q-54 0 -94 -26t-57 -72q8 2 16.5 3t24.5 1q48 0 73 -29t25 -84q0 -51 -33 -82t-88 -31q-66 0 -104.5 41t-38.5 113q0 123 91.5 203t236.5 80q162 0 241.5 -84.5t79.5 -255.5v-602q0 -32 7 -42t24 -10q21 0 30 26.5t9 92.5q0 10 -1 31.5 t-1 34.5h80v-70q0 -129 -42.5 -187.5t-133.5 -58.5q-73 0 -118 34.5t-65 105.5zM633 1370l-313 -166h-91l273 283q42 44 73.5 63t61.5 19q40 0 65 -25t25 -65q0 -33 -19 -56t-75 -53z" />
<glyph unicode="&#xe2;" horiz-adv-x="895" d="M514 555q-36 -39 -106 -97q-129 -108 -129 -196q0 -47 31.5 -79.5t76.5 -32.5q66 0 96.5 54.5t30.5 172.5v178zM524 109q-45 -73 -100 -106.5t-131 -33.5q-108 0 -171 72.5t-63 198.5q0 69 20 122.5t60 90.5q55 50 167 105q40 20 59 30q87 49 123 98t36 115 q0 81 -43.5 128.5t-118.5 47.5q-54 0 -94 -26t-57 -72q8 2 16.5 3t24.5 1q48 0 73 -29t25 -84q0 -51 -33 -82t-88 -31q-66 0 -104.5 41t-38.5 113q0 123 91.5 203t236.5 80q162 0 241.5 -84.5t79.5 -255.5v-602q0 -32 7 -42t24 -10q21 0 30 26.5t9 92.5q0 10 -1 31.5 t-1 34.5h80v-70q0 -129 -42.5 -187.5t-133.5 -58.5q-73 0 -118 34.5t-65 105.5zM350 1554h148l225 -350h-84l-215 180l-215 -180h-84z" />
<glyph unicode="&#xe3;" horiz-adv-x="895" d="M514 555q-36 -39 -106 -97q-129 -108 -129 -196q0 -47 31.5 -79.5t76.5 -32.5q66 0 96.5 54.5t30.5 172.5v178zM524 109q-45 -73 -100 -106.5t-131 -33.5q-108 0 -171 72.5t-63 198.5q0 69 20 122.5t60 90.5q55 50 167 105q40 20 59 30q87 49 123 98t36 115 q0 81 -43.5 128.5t-118.5 47.5q-54 0 -94 -26t-57 -72q8 2 16.5 3t24.5 1q48 0 73 -29t25 -84q0 -51 -33 -82t-88 -31q-66 0 -104.5 41t-38.5 113q0 123 91.5 203t236.5 80q162 0 241.5 -84.5t79.5 -255.5v-602q0 -32 7 -42t24 -10q21 0 30 26.5t9 92.5q0 10 -1 31.5 t-1 34.5h80v-70q0 -129 -42.5 -187.5t-133.5 -58.5q-73 0 -118 34.5t-65 105.5zM647 1528h66q-14 -117 -68 -182.5t-137 -65.5q-16 0 -52 7q-4 1 -5 1l-105 27q-11 3 -24 4.5t-33 1.5q-32 0 -53.5 -20.5t-36.5 -65.5h-66q17 124 69.5 186t141.5 62q19 0 34.5 -2t29.5 -6 l108 -29q7 -2 16 -3t23 -1q32 0 54 20t38 66z" />
<glyph unicode="&#xe4;" horiz-adv-x="895" d="M514 555q-36 -39 -106 -97q-129 -108 -129 -196q0 -47 31.5 -79.5t76.5 -32.5q66 0 96.5 54.5t30.5 172.5v178zM524 109q-45 -73 -100 -106.5t-131 -33.5q-108 0 -171 72.5t-63 198.5q0 69 20 122.5t60 90.5q55 50 167 105q40 20 59 30q87 49 123 98t36 115 q0 81 -43.5 128.5t-118.5 47.5q-54 0 -94 -26t-57 -72q8 2 16.5 3t24.5 1q48 0 73 -29t25 -84q0 -51 -33 -82t-88 -31q-66 0 -104.5 41t-38.5 113q0 123 91.5 203t236.5 80q162 0 241.5 -84.5t79.5 -255.5v-602q0 -32 7 -42t24 -10q21 0 30 26.5t9 92.5q0 10 -1 31.5 t-1 34.5h80v-70q0 -129 -42.5 -187.5t-133.5 -58.5q-73 0 -118 34.5t-65 105.5zM606 1489q49 0 84 -35t35 -84q0 -53 -33 -87t-86 -34q-51 0 -86 34.5t-35 86.5q0 48 36 83.5t85 35.5zM242 1489q49 0 84 -35t35 -84q0 -53 -33.5 -87t-85.5 -34t-86.5 34.5t-34.5 86.5 q0 48 36 83.5t85 35.5z" />
<glyph unicode="&#xe5;" horiz-adv-x="895" d="M446 1550q-53 0 -91 -37.5t-38 -91.5q0 -53 37.5 -89t91.5 -36t89.5 36t35.5 89q0 55 -36 92t-89 37zM444 1681q108 0 183 -75t75 -183q0 -109 -74.5 -183.5t-183.5 -74.5t-183.5 74.5t-74.5 183.5q0 108 75.5 183t182.5 75zM514 555q-36 -39 -106 -97 q-129 -108 -129 -196q0 -47 31.5 -79.5t76.5 -32.5q66 0 96.5 54.5t30.5 172.5v178zM524 109q-45 -73 -100 -106.5t-131 -33.5q-108 0 -171 72.5t-63 198.5q0 69 20 122.5t60 90.5q55 50 167 105q40 20 59 30q87 49 123 98t36 115q0 81 -43.5 128.5t-118.5 47.5 q-54 0 -94 -26t-57 -72q8 2 16.5 3t24.5 1q48 0 73 -29t25 -84q0 -51 -33 -82t-88 -31q-66 0 -104.5 41t-38.5 113q0 123 91.5 203t236.5 80q162 0 241.5 -84.5t79.5 -255.5v-602q0 -32 7 -42t24 -10q21 0 30 26.5t9 92.5q0 10 -1 31.5t-1 34.5h80v-70q0 -129 -42.5 -187.5 t-133.5 -58.5q-73 0 -118 34.5t-65 105.5z" />
<glyph unicode="&#xe6;" horiz-adv-x="1214" d="M645 1018q26 34 80.5 55t118.5 21q88 0 154.5 -44.5t107.5 -129.5q21 -42 30 -95.5t9 -162.5v-60v-90h-410v-59q0 -198 32 -271t110 -73q77 0 113 72.5t36 230.5h119q0 -9 1 -26t1 -26q0 -182 -79.5 -285.5t-219.5 -103.5q-100 0 -172.5 41t-122.5 125 q-46 -83 -111 -125.5t-149 -42.5q-108 0 -171 72.5t-63 198.5q0 69 20 122.5t60 90.5q55 50 167 105q40 20 59 30q87 49 123 98t36 115q0 81 -43.5 128.5t-118.5 47.5q-54 0 -94 -26t-57 -72q8 2 16.5 3t24.5 1q48 0 73 -29t25 -84q0 -51 -33 -82t-88 -31q-66 0 -104.5 41 t-38.5 113q0 122 91.5 202.5t236.5 80.5q68 0 125 -19t106 -57zM735 639h203v127q0 112 -23.5 156.5t-78.5 44.5q-53 0 -77 -48t-24 -157v-123zM514 555q-36 -39 -106 -97q-129 -108 -129 -196q0 -47 31.5 -79.5t76.5 -32.5q66 0 96.5 54.5t30.5 172.5v178z" />
<glyph unicode="&#xe7;" horiz-adv-x="764" d="M578 430h132q2 -11 2.5 -23.5t0.5 -35.5q0 -197 -76 -298.5t-223 -101.5q-193 0 -274 123.5t-81 429.5q0 292 84 431t258 139q142 0 225 -80t83 -215q0 -86 -39.5 -136.5t-106.5 -50.5q-54 0 -86.5 34.5t-32.5 92.5q0 52 28.5 85.5t70.5 33.5q8 0 15.5 -1.5t14.5 -4.5 q-4 48 -36.5 77t-81.5 29q-85 0 -122.5 -95.5t-37.5 -315.5q0 -253 32 -345.5t111 -92.5q74 0 107 75t33 246zM336 0h78l-25 -109q2 1 6 1q31 4 43 4q93 0 145 -46t52 -126q0 -86 -60 -133.5t-169 -47.5q-56 0 -124.5 18t-181.5 64l41 88q73 -39 129.5 -56t108.5 -17 q49 0 73.5 21.5t24.5 66.5q0 40 -30.5 62t-88.5 22q-13 0 -28.5 -1.5t-34.5 -4.5z" />
<glyph unicode="&#xe8;" horiz-adv-x="770" d="M291 512v-59q0 -192 32 -268t107 -76q68 0 98.5 71t30.5 232h141q0 -9 1 -25t1 -22q0 -196 -74 -295t-222 -99q-187 0 -267 125.5t-80 427.5q0 292 84 431t258 139q87 0 153 -44.5t108 -129.5q22 -46 31 -104.5t9 -180.5v-33v-90h-411zM291 639h205v127 q0 112 -23.5 156.5t-79.5 44.5q-53 0 -77.5 -48.5t-24.5 -156.5v-123zM334 1487l273 -283h-91l-313 166q-56 30 -75 53t-19 56q0 40 25 65t65 25q30 0 61.5 -19t73.5 -63z" />
<glyph unicode="&#xe9;" horiz-adv-x="770" d="M291 512v-59q0 -192 32 -268t107 -76q68 0 98.5 71t30.5 232h141q0 -9 1 -25t1 -22q0 -196 -74 -295t-222 -99q-187 0 -267 125.5t-80 427.5q0 292 84 431t258 139q87 0 153 -44.5t108 -129.5q22 -46 31 -104.5t9 -180.5v-33v-90h-411zM291 639h205v127 q0 112 -23.5 156.5t-79.5 44.5q-53 0 -77.5 -48.5t-24.5 -156.5v-123zM621 1370l-313 -166h-91l273 283q42 44 73.5 63t61.5 19q40 0 65 -25t25 -65q0 -33 -19 -56t-75 -53z" />
<glyph unicode="&#xea;" horiz-adv-x="770" d="M291 512v-59q0 -192 32 -268t107 -76q68 0 98.5 71t30.5 232h141q0 -9 1 -25t1 -22q0 -196 -74 -295t-222 -99q-187 0 -267 125.5t-80 427.5q0 292 84 431t258 139q87 0 153 -44.5t108 -129.5q22 -46 31 -104.5t9 -180.5v-33v-90h-411zM291 639h205v127 q0 112 -23.5 156.5t-79.5 44.5q-53 0 -77.5 -48.5t-24.5 -156.5v-123zM338 1554h148l225 -350h-84l-215 180l-215 -180h-84z" />
<glyph unicode="&#xeb;" horiz-adv-x="770" d="M291 512v-59q0 -192 32 -268t107 -76q68 0 98.5 71t30.5 232h141q0 -9 1 -25t1 -22q0 -196 -74 -295t-222 -99q-187 0 -267 125.5t-80 427.5q0 292 84 431t258 139q87 0 153 -44.5t108 -129.5q22 -46 31 -104.5t9 -180.5v-33v-90h-411zM291 639h205v127 q0 112 -23.5 156.5t-79.5 44.5q-53 0 -77.5 -48.5t-24.5 -156.5v-123zM594 1489q49 0 84 -35t35 -84q0 -53 -33 -87t-86 -34q-51 0 -86 34.5t-35 86.5q0 48 36 83.5t85 35.5zM230 1489q49 0 84 -35t35 -84q0 -53 -33.5 -87t-85.5 -34t-86.5 34.5t-34.5 86.5q0 48 36 83.5 t85 35.5z" />
<glyph unicode="&#xec;" horiz-adv-x="500" d="M367 213q0 -60 17.5 -75t76.5 -15v-123h-412v123q59 0 76.5 15.5t17.5 74.5v637q0 58 -17 73t-77 15v125h318v-850zM151 1487l273 -283h-91l-313 166q-56 30 -75 53t-19 56q0 40 25 65t65 25q30 0 61.5 -19t73.5 -63z" />
<glyph unicode="&#xed;" horiz-adv-x="500" d="M367 213q0 -60 17.5 -75t76.5 -15v-123h-412v123q59 0 76.5 15.5t17.5 74.5v637q0 58 -17 73t-77 15v125h318v-850zM438 1370l-313 -166h-91l273 283q42 44 73.5 63t61.5 19q40 0 65 -25t25 -65q0 -33 -19 -56t-75 -53z" />
<glyph unicode="&#xee;" horiz-adv-x="500" d="M367 213q0 -60 17.5 -75t76.5 -15v-123h-412v123q59 0 76.5 15.5t17.5 74.5v637q0 58 -17 73t-77 15v125h318v-850zM155 1554h148l225 -350h-84l-215 180l-215 -180h-84z" />
<glyph unicode="&#xef;" horiz-adv-x="500" d="M367 213q0 -60 17.5 -75t76.5 -15v-123h-412v123q59 0 76.5 15.5t17.5 74.5v637q0 58 -17 73t-77 15v125h318v-850zM411 1489q49 0 84 -35t35 -84q0 -53 -33 -87t-86 -34q-51 0 -86 34.5t-35 86.5q0 48 36 83.5t85 35.5zM47 1489q49 0 84 -35t35 -84q0 -53 -33.5 -87 t-85.5 -34t-86.5 34.5t-34.5 86.5q0 48 36 83.5t85 35.5z" />
<glyph unicode="&#xf0;" horiz-adv-x="801" d="M381 1169l-219 -84l-35 86l213 82q-29 50 -58.5 91.5t-60.5 76.5l119 68q33 -36 69 -76.5t87 -99.5l198 73l33 -83l-178 -72q99 -155 144.5 -332.5t45.5 -411.5q0 -293 -76 -405.5t-264 -112.5q-187 0 -262.5 111.5t-75.5 406.5q0 168 18 260t58 146q36 47 96.5 74.5 t126.5 27.5q23 0 49.5 -3.5t57.5 -10.5q-16 47 -37.5 93.5t-48.5 94.5zM401 111q61 0 83 61.5t22 319.5q0 248 -22.5 311t-82.5 63q-61 0 -83.5 -60t-22.5 -327q0 -250 22.5 -309t83.5 -59z" />
<glyph unicode="&#xf1;" horiz-adv-x="938" d="M360 213q0 -58 16 -73t70 -17v-123h-403v123q59 0 76.5 15.5t17.5 74.5v637q0 58 -17 73t-77 15v125h307v-129q51 82 110 121t132 39q113 0 163 -75.5t50 -248.5v-557q0 -59 18 -74.5t78 -15.5v-123h-403v123q52 0 69 16t17 74v586q0 58 -21.5 87t-62.5 29 q-71 0 -105.5 -59.5t-34.5 -183.5v-459zM676 1528h66q-14 -117 -68 -182.5t-137 -65.5q-16 0 -52 7q-4 1 -5 1l-105 27q-11 3 -24 4.5t-33 1.5q-32 0 -53.5 -20.5t-36.5 -65.5h-66q17 124 69.5 186t141.5 62q19 0 34.5 -2t29.5 -6l108 -29q7 -2 16 -3t23 -1q32 0 54 20 t38 66z" />
<glyph unicode="&#xf2;" horiz-adv-x="801" d="M401 113q61 0 83 68t22 351q0 282 -22.5 350t-82.5 68q-62 0 -85 -68t-23 -350q0 -283 23 -351t85 -68zM399 -31q-186 0 -262 121.5t-76 441.5q0 318 76.5 440t261.5 122q187 0 263.5 -122t76.5 -440t-76 -440.5t-264 -122.5zM323 1487l273 -283h-91l-313 166 q-56 30 -75 53t-19 56q0 40 25 65t65 25q30 0 61.5 -19t73.5 -63z" />
<glyph unicode="&#xf3;" horiz-adv-x="801" d="M401 113q61 0 83 68t22 351q0 282 -22.5 350t-82.5 68q-62 0 -85 -68t-23 -350q0 -283 23 -351t85 -68zM399 -31q-186 0 -262 121.5t-76 441.5q0 318 76.5 440t261.5 122q187 0 263.5 -122t76.5 -440t-76 -440.5t-264 -122.5zM610 1370l-313 -166h-91l273 283 q42 44 73.5 63t61.5 19q40 0 65 -25t25 -65q0 -33 -19 -56t-75 -53z" />
<glyph unicode="&#xf4;" horiz-adv-x="801" d="M401 113q61 0 83 68t22 351q0 282 -22.5 350t-82.5 68q-62 0 -85 -68t-23 -350q0 -283 23 -351t85 -68zM399 -31q-186 0 -262 121.5t-76 441.5q0 318 76.5 440t261.5 122q187 0 263.5 -122t76.5 -440t-76 -440.5t-264 -122.5zM327 1554h148l225 -350h-84l-215 180 l-215 -180h-84z" />
<glyph unicode="&#xf5;" horiz-adv-x="801" d="M401 113q61 0 83 68t22 351q0 282 -22.5 350t-82.5 68q-62 0 -85 -68t-23 -350q0 -283 23 -351t85 -68zM399 -31q-186 0 -262 121.5t-76 441.5q0 318 76.5 440t261.5 122q187 0 263.5 -122t76.5 -440t-76 -440.5t-264 -122.5zM624 1528h66q-14 -117 -68 -182.5 t-137 -65.5q-16 0 -52 7q-4 1 -5 1l-105 27q-11 3 -24 4.5t-33 1.5q-32 0 -53.5 -20.5t-36.5 -65.5h-66q17 124 69.5 186t141.5 62q19 0 34.5 -2t29.5 -6l108 -29q7 -2 16 -3t23 -1q32 0 54 20t38 66z" />
<glyph unicode="&#xf6;" horiz-adv-x="801" d="M401 113q61 0 83 68t22 351q0 282 -22.5 350t-82.5 68q-62 0 -85 -68t-23 -350q0 -283 23 -351t85 -68zM399 -31q-186 0 -262 121.5t-76 441.5q0 318 76.5 440t261.5 122q187 0 263.5 -122t76.5 -440t-76 -440.5t-264 -122.5zM583 1489q49 0 84 -35t35 -84q0 -53 -33 -87 t-86 -34q-51 0 -86 34.5t-35 86.5q0 48 36 83.5t85 35.5zM219 1489q49 0 84 -35t35 -84q0 -53 -33.5 -87t-85.5 -34t-86.5 34.5t-34.5 86.5q0 48 36 83.5t85 35.5z" />
<glyph unicode="&#xf7;" horiz-adv-x="1706" d="M854 367q57 0 97 -40.5t40 -97.5q0 -56 -39.5 -95.5t-97.5 -39.5t-97.5 39t-39.5 96t40.5 97.5t96.5 40.5zM1452 694v-166h-1198v166h1198zM854 1128q57 0 97 -41t40 -98q0 -56 -39.5 -95.5t-97.5 -39.5t-97.5 39t-39.5 96t40.5 98t96.5 41z" />
<glyph unicode="&#xf8;" horiz-adv-x="801" d="M289 377l205 485q-7 41 -31.5 64.5t-61.5 23.5q-67 0 -91.5 -66.5t-24.5 -334.5q0 -16 1.5 -76.5t2.5 -95.5zM512 702l-211 -499q13 -49 36.5 -70.5t63.5 -21.5q64 0 89.5 69.5t25.5 268.5q0 64 -3 217q-1 24 -1 36zM45 -221l113 284q-52 58 -74.5 161.5t-22.5 307.5 q0 318 76.5 440t261.5 122q39 0 78.5 -8t77.5 -23l88 217h105l-109 -276q53 -53 76.5 -160t23.5 -312q0 -318 -76 -440.5t-264 -122.5q-53 0 -91 8.5t-70 26.5l-93 -225h-100z" />
<glyph unicode="&#xf9;" horiz-adv-x="930" d="M571 850q0 56 -15.5 71t-69.5 17l-1 125h308v-850q0 -59 18 -74.5t78 -15.5v-123h-309v127q-51 -81 -109.5 -119.5t-132.5 -38.5q-114 0 -163.5 75t-49.5 249v557q0 60 -16.5 74t-77.5 14v125h317v-801q0 -59 22 -88t66 -29q68 0 101.5 60.5t33.5 183.5v461zM387 1487 l273 -283h-91l-313 166q-56 30 -75 53t-19 56q0 40 25 65t65 25q30 0 61.5 -19t73.5 -63z" />
<glyph unicode="&#xfa;" horiz-adv-x="930" d="M571 850q0 56 -15.5 71t-69.5 17l-1 125h308v-850q0 -59 18 -74.5t78 -15.5v-123h-309v127q-51 -81 -109.5 -119.5t-132.5 -38.5q-114 0 -163.5 75t-49.5 249v557q0 60 -16.5 74t-77.5 14v125h317v-801q0 -59 22 -88t66 -29q68 0 101.5 60.5t33.5 183.5v461zM674 1370 l-313 -166h-91l273 283q42 44 73.5 63t61.5 19q40 0 65 -25t25 -65q0 -33 -19 -56t-75 -53z" />
<glyph unicode="&#xfb;" horiz-adv-x="930" d="M571 850q0 56 -15.5 71t-69.5 17l-1 125h308v-850q0 -59 18 -74.5t78 -15.5v-123h-309v127q-51 -81 -109.5 -119.5t-132.5 -38.5q-114 0 -163.5 75t-49.5 249v557q0 60 -16.5 74t-77.5 14v125h317v-801q0 -59 22 -88t66 -29q68 0 101.5 60.5t33.5 183.5v461zM391 1554 h148l225 -350h-84l-215 180l-215 -180h-84z" />
<glyph unicode="&#xfc;" horiz-adv-x="930" d="M571 850q0 56 -15.5 71t-69.5 17l-1 125h308v-850q0 -59 18 -74.5t78 -15.5v-123h-309v127q-51 -81 -109.5 -119.5t-132.5 -38.5q-114 0 -163.5 75t-49.5 249v557q0 60 -16.5 74t-77.5 14v125h317v-801q0 -59 22 -88t66 -29q68 0 101.5 60.5t33.5 183.5v461zM647 1489 q49 0 84 -35t35 -84q0 -53 -33 -87t-86 -34q-51 0 -86 34.5t-35 86.5q0 48 36 83.5t85 35.5zM283 1489q49 0 84 -35t35 -84q0 -53 -33.5 -87t-85.5 -34t-86.5 34.5t-34.5 86.5q0 48 36 83.5t85 35.5z" />
<glyph unicode="&#xfd;" horiz-adv-x="743" d="M315 -18l-215 864q-14 56 -32.5 72.5t-58.5 19.5l-1 125h367v-125q-31 0 -44.5 -9.5t-13.5 -31.5q0 -8 1 -13.5t1 -8.5l97 -480l92 475q1 3 1.5 7t0.5 12q0 23 -14 36t-39 13h-4v125h288v-125q-42 -3 -60.5 -20.5t-31.5 -71.5l-219 -912q-42 -175 -104.5 -251t-161.5 -76 q-89 0 -146 56.5t-57 146.5q0 73 32.5 116t86.5 43q48 0 76 -28.5t28 -77.5q0 -51 -21.5 -78t-62.5 -27h-4q6 -21 20.5 -31t39.5 -10q61 0 99 63t60 202zM582 1370l-313 -166h-91l273 283q42 44 73.5 63t61.5 19q40 0 65 -25t25 -65q0 -33 -19 -56t-75 -53z" />
<glyph unicode="&#xfe;" horiz-adv-x="891" d="M479 133q70 0 98.5 73.5t28.5 266.5q0 301 -27.5 379t-99.5 78q-70 0 -97.5 -75t-27.5 -327q0 -249 27 -322t98 -73zM360 -143q0 -58 17 -73t69 -15h31v-125h-434v125q60 0 77 15t17 73v1370q0 58 -17 73t-77 15v125h317v-488q33 71 83.5 106.5t117.5 35.5 q144 0 206 -127t62 -437q0 -319 -63 -440t-217 -121q-61 0 -109.5 29.5t-79.5 85.5v-227z" />
<glyph unicode="&#xff;" horiz-adv-x="743" d="M315 -18l-215 864q-14 56 -32.5 72.5t-58.5 19.5l-1 125h367v-125q-31 0 -44.5 -9.5t-13.5 -31.5q0 -8 1 -13.5t1 -8.5l97 -480l92 475q1 3 1.5 7t0.5 12q0 23 -14 36t-39 13h-4v125h288v-125q-42 -3 -60.5 -20.5t-31.5 -71.5l-219 -912q-42 -175 -104.5 -251t-161.5 -76 q-89 0 -146 56.5t-57 146.5q0 73 32.5 116t86.5 43q48 0 76 -28.5t28 -77.5q0 -51 -21.5 -78t-62.5 -27h-4q6 -21 20.5 -31t39.5 -10q61 0 99 63t60 202zM555 1489q49 0 84 -35t35 -84q0 -53 -33 -87t-86 -34q-51 0 -86 34.5t-35 86.5q0 48 36 83.5t85 35.5zM191 1489 q49 0 84 -35t35 -84q0 -53 -33.5 -87t-85.5 -34t-86.5 34.5t-34.5 86.5q0 48 36 83.5t85 35.5z" />
<glyph unicode="&#x106;" horiz-adv-x="860" d="M639 575h137v-124q0 -245 -84.5 -364.5t-257.5 -119.5q-202 0 -285 152t-83 536q0 393 88 576.5t276 183.5q69 0 120 -29t89 -90l45 88h92v-512h-137v48q0 179 -37 254t-123 75q-90 0 -123.5 -129.5t-33.5 -556.5q0 -264 33 -349t118 -85q89 0 127.5 78.5t38.5 263.5v104 zM670 1696l-313 -166h-91l273 283q42 44 73.5 63t61.5 19q40 0 65 -25t25 -65q0 -33 -19 -56t-75 -53z" />
<glyph unicode="&#x107;" horiz-adv-x="764" d="M578 430h132q2 -11 2.5 -23.5t0.5 -35.5q0 -197 -76 -298.5t-223 -101.5q-193 0 -274 123.5t-81 429.5q0 292 84 431t258 139q142 0 225 -80t83 -215q0 -86 -39.5 -136.5t-106.5 -50.5q-54 0 -86.5 34.5t-32.5 92.5q0 52 28.5 85.5t70.5 33.5q8 0 15.5 -1.5t14.5 -4.5 q-4 48 -36.5 77t-81.5 29q-85 0 -122.5 -95.5t-37.5 -315.5q0 -253 32 -345.5t111 -92.5q74 0 107 75t33 246zM612 1370l-313 -166h-91l273 283q42 44 73.5 63t61.5 19q40 0 65 -25t25 -65q0 -33 -19 -56t-75 -53z" />
<glyph unicode="&#x10c;" horiz-adv-x="860" d="M639 575h137v-124q0 -245 -84.5 -364.5t-257.5 -119.5q-202 0 -285 152t-83 536q0 393 88 576.5t276 183.5q69 0 120 -29t89 -90l45 88h92v-512h-137v48q0 179 -37 254t-123 75q-90 0 -123.5 -129.5t-33.5 -556.5q0 -264 33 -349t118 -85q89 0 127.5 78.5t38.5 263.5v104 zM162 1880h84l215 -180l215 180h84l-225 -350h-148z" />
<glyph unicode="&#x10d;" horiz-adv-x="764" d="M578 430h132q2 -11 2.5 -23.5t0.5 -35.5q0 -197 -76 -298.5t-223 -101.5q-193 0 -274 123.5t-81 429.5q0 292 84 431t258 139q142 0 225 -80t83 -215q0 -86 -39.5 -136.5t-106.5 -50.5q-54 0 -86.5 34.5t-32.5 92.5q0 52 28.5 85.5t70.5 33.5q8 0 15.5 -1.5t14.5 -4.5 q-4 48 -36.5 77t-81.5 29q-85 0 -122.5 -95.5t-37.5 -315.5q0 -253 32 -345.5t111 -92.5q74 0 107 75t33 246zM104 1554h84l215 -180l215 180h84l-225 -350h-148z" />
<glyph unicode="&#x111;" horiz-adv-x="905" d="M535 90q-37 -61 -86.5 -91t-114.5 -30q-146 0 -207 126.5t-61 457.5q0 279 61 387.5t205 108.5q70 0 121 -31.5t82 -91.5v211h-287v104h287v10q0 45 -17.5 59.5t-77.5 14.5v115h316v-199h135v-104h-135v-924q0 -60 17 -74.5t79 -16.5v-122h-317v90zM414 133 q70 0 97.5 70.5t27.5 308.5q0 243 -27.5 313t-97.5 70q-71 0 -98 -70t-27 -313q0 -242 27 -310.5t98 -68.5z" />
<glyph unicode="&#x11e;" horiz-adv-x="981" d="M580 475q0 56 -24.5 78t-84.5 22h-18v138h479v-137q-61 -3 -84 -25t-23 -76v-475h-120l-48 115q-41 -72 -108 -111t-150 -39q-174 0 -253.5 163.5t-79.5 524.5q0 399 88 581.5t278 182.5q85 0 147.5 -29.5t106.5 -91.5l45 88h92v-512h-137v48q0 165 -48 247t-144 82 q-99 0 -135.5 -119t-36.5 -563q0 -282 27.5 -360t101.5 -78q63 0 96 48t33 140v158zM180 1850h76q16 -65 70.5 -94t162.5 -29q107 0 161 29t70 94h76q-20 -141 -98.5 -215t-208.5 -74q-129 0 -208.5 74t-100.5 215z" />
<glyph unicode="&#x11f;" horiz-adv-x="864" d="M436 434q57 0 81 58t24 208q0 152 -24 210.5t-81 58.5q-58 0 -82 -58.5t-24 -210.5q0 -151 24 -208.5t82 -57.5zM285 -61q-27 -16 -40.5 -38t-13.5 -51q0 -62 68 -95.5t195 -33.5q119 0 187.5 32.5t68.5 88.5q0 32 -18.5 46t-70.5 20q-4 0 -24 1q-169 10 -352 30z M227 385q-59 48 -86.5 120t-27.5 175q0 189 83.5 301.5t221.5 112.5q30 0 58.5 -4.5t58.5 -14.5q47 67 99 101t107 34q68 0 109 -37t41 -100q0 -46 -25 -73t-67 -27q-37 0 -58.5 21t-21.5 57q0 27 13.5 45.5t39.5 25.5q-2 1 -4 1q-15 3 -23 3q-33 0 -62.5 -24.5t-53.5 -73.5 q64 -44 96.5 -120.5t32.5 -184.5q0 -204 -80.5 -309t-237.5 -105q-32 0 -67.5 8t-73.5 23q-29 -26 -42 -45t-13 -35q0 -34 43 -50t195 -28q30 -2 86 -6q177 -12 216 -37q51 -32 77 -85.5t26 -125.5q0 -155 -112.5 -237t-325.5 -82q-176 0 -279.5 54.5t-103.5 143.5 q0 49 37.5 88t115.5 70q-69 34 -102 82t-33 115q0 70 36 126t107 97zM123 1524h76q16 -65 70.5 -94t162.5 -29q107 0 161 29t70 94h76q-20 -141 -98.5 -215t-208.5 -74q-129 0 -208.5 74t-100.5 215z" />
<glyph unicode="&#x130;" horiz-adv-x="602" d="M528 1384v-137q-58 -1 -81 -23.5t-23 -76.5v-909q0 -56 23 -78.5t81 -22.5v-137h-454v137q58 0 81 22.5t23 78.5v909q0 56 -23 78t-81 22v137h454zM301 1821q53 0 90 -36.5t37 -88.5q0 -56 -36 -92.5t-91 -36.5q-53 0 -90 37.5t-37 91.5q0 51 38 88t89 37z" />
<glyph unicode="&#x131;" horiz-adv-x="500" d="M367 213q0 -60 17.5 -75t76.5 -15v-123h-412v123q59 0 76.5 15.5t17.5 74.5v637q0 58 -17 73t-77 15v125h318v-850z" />
<glyph unicode="&#x141;" horiz-adv-x="940" d="M184 584l-174 -117v141l174 117v422q0 56 -23 78t-81 22v137h471v-137h-10q-62 0 -85.5 -21.5t-23.5 -78.5v-303l268 182v-145l-268 -183v-561h43q188 0 254.5 80t71.5 313h112v-530h-833v137q58 0 81 22.5t23 78.5v346z" />
<glyph unicode="&#x142;" horiz-adv-x="522" d="M375 803l145 98v-121l-145 -98v-469q0 -60 17.5 -75t76.5 -15v-123h-412v123q59 0 77 15.5t18 74.5v360l-146 -100v123l146 96v535q0 58 -17.5 73t-77.5 15v125h318v-637z" />
<glyph unicode="&#x152;" horiz-adv-x="1442" d="M709 0q-71 0 -159 -10t-106 -10q-89 0 -163 39.5t-123 113.5q-46 70 -66 196.5t-20 360.5t20 360.5t66 196.5q51 79 126 117.5t177 38.5q11 0 93.5 -9.5t154.5 -9.5h624v-456h-116q-8 186 -73.5 252.5t-250.5 66.5h-49v-465h28q86 0 121 43t35 150v10h111v-543h-111v9 q0 107 -35 150.5t-121 43.5h-28v-508h67q188 0 254.5 80.5t69.5 312.5h115v-530h-641zM467 131q82 0 112.5 95.5t30.5 463.5q0 367 -30 461t-113 94q-80 0 -109.5 -86.5t-29.5 -468.5q0 -384 29.5 -471.5t109.5 -87.5z" />
<glyph unicode="&#x153;" horiz-adv-x="1219" d="M739 639h203v127q0 114 -23 157.5t-77 43.5t-78.5 -48.5t-24.5 -156.5v-123zM739 512v-59q0 -199 32 -273t110 -74q76 0 113 74t38 231l117 1q0 -9 1 -25t1 -25q0 -193 -81.5 -293t-240.5 -100q-63 0 -112 20t-88 62q-49 -43 -103 -62.5t-127 -19.5q-186 0 -262 121.5 t-76 441.5q0 318 76.5 440t261.5 122q69 0 128 -21.5t110 -64.5q42 43 94.5 64.5t118.5 21.5q87 0 153 -44.5t107 -129.5q22 -46 31.5 -104.5t9.5 -180.5v-33v-90h-412zM406 111q62 0 85 70.5t23 350.5q0 277 -23 347.5t-85 70.5q-64 0 -87.5 -65t-23.5 -353 q0 -290 23.5 -355.5t87.5 -65.5z" />
<glyph unicode="&#x15e;" horiz-adv-x="961" d="M109 0v582h122q15 -223 90 -343t197 -120q70 0 112 42t42 113q0 65 -38.5 126t-119.5 126q-49 40 -153.5 116t-139.5 114q-65 69 -95 139.5t-30 153.5q0 156 96 262t234 106q78 0 145 -28.5t119 -83.5l39 79h102v-493h-116q-18 182 -86.5 278.5t-179.5 96.5 q-65 0 -105.5 -38t-40.5 -98q0 -93 201 -235q46 -33 71 -51q190 -137 251 -240.5t61 -251.5q0 -172 -96.5 -278.5t-249.5 -106.5q-84 0 -157 32t-126 93l-51 -92h-98zM434 0h78l-25 -109q2 1 6 1q31 4 43 4q93 0 145 -46t52 -126q0 -86 -60 -133.5t-169 -47.5 q-56 0 -124.5 18t-181.5 64l41 88q73 -39 129.5 -56t108.5 -17q49 0 73.5 21.5t24.5 66.5q0 40 -30.5 62t-88.5 22q-13 0 -28.5 -1.5t-34.5 -4.5z" />
<glyph unicode="&#x15f;" horiz-adv-x="801" d="M68 0v420h120q33 -166 93 -247t149 -81q56 0 92.5 36.5t36.5 90.5q0 50 -34.5 91.5t-114.5 86.5q-32 18 -88 48q-106 58 -134 79q-73 59 -101 114.5t-28 139.5q0 142 77.5 229t203.5 87q61 0 114 -24t107 -77l43 70h96v-371h-120q-16 129 -72 204t-133 75 q-56 0 -89.5 -33.5t-33.5 -89.5q0 -49 27.5 -85.5t95.5 -74.5q36 -19 97 -51q98 -51 124 -70q88 -64 122 -126t34 -152q0 -147 -83.5 -233.5t-224.5 -86.5q-69 0 -125 25.5t-100 77.5l-43 -72h-108zM354 0h78l-25 -109q2 1 6 1q31 4 43 4q93 0 145 -46t52 -126 q0 -86 -60 -133.5t-169 -47.5q-56 0 -124.5 18t-181.5 64l41 88q73 -39 129.5 -56t108.5 -17q49 0 73.5 21.5t24.5 66.5q0 40 -30.5 62t-88.5 22q-13 0 -28.5 -1.5t-34.5 -4.5z" />
<glyph unicode="&#x160;" horiz-adv-x="961" d="M109 0v582h122q15 -223 90 -343t197 -120q70 0 112 42t42 113q0 65 -38.5 126t-119.5 126q-49 40 -153.5 116t-139.5 114q-65 69 -95 139.5t-30 153.5q0 156 96 262t234 106q78 0 145 -28.5t119 -83.5l39 79h102v-493h-116q-18 182 -86.5 278.5t-179.5 96.5 q-65 0 -105.5 -38t-40.5 -98q0 -93 201 -235q46 -33 71 -51q190 -137 251 -240.5t61 -251.5q0 -172 -96.5 -278.5t-249.5 -106.5q-84 0 -157 32t-126 93l-51 -92h-98zM180 1880h84l215 -180l215 180h84l-225 -350h-148z" />
<glyph unicode="&#x161;" horiz-adv-x="801" d="M68 0v420h120q33 -166 93 -247t149 -81q56 0 92.5 36.5t36.5 90.5q0 50 -34.5 91.5t-114.5 86.5q-32 18 -88 48q-106 58 -134 79q-73 59 -101 114.5t-28 139.5q0 142 77.5 229t203.5 87q61 0 114 -24t107 -77l43 70h96v-371h-120q-16 129 -72 204t-133 75 q-56 0 -89.5 -33.5t-33.5 -89.5q0 -49 27.5 -85.5t95.5 -74.5q36 -19 97 -51q98 -51 124 -70q88 -64 122 -126t34 -152q0 -147 -83.5 -233.5t-224.5 -86.5q-69 0 -125 25.5t-100 77.5l-43 -72h-108zM102 1554h84l215 -180l215 180h84l-225 -350h-148z" />
<glyph unicode="&#x178;" horiz-adv-x="840" d="M557 238q0 -56 25 -78.5t86 -22.5h18v-137h-504v137h19q61 0 85.5 22.5t24.5 78.5v333l-207 572q-24 65 -48.5 84.5t-67.5 19.5h-6v137h440v-136q-51 -4 -69.5 -13.5t-18.5 -30.5q0 -9 2.5 -21.5t7.5 -29.5l125 -387l111 388q5 17 7.5 29.5t2.5 20.5q0 21 -18.5 30.5 t-69.5 12.5v137h338l-1 -137q-46 -1 -70 -20.5t-42 -77.5l-170 -559v-352zM602 1815q49 0 84 -35t35 -84q0 -53 -33 -87t-86 -34q-51 0 -86 34.5t-35 86.5q0 48 36 83.5t85 35.5zM238 1815q49 0 84 -35t35 -84q0 -53 -33.5 -87t-85.5 -34t-86.5 34.5t-34.5 86.5 q0 48 36 83.5t85 35.5z" />
<glyph unicode="&#x17d;" horiz-adv-x="915" d="M315 131h136q143 0 202.5 84t59.5 295v53h116v-563h-763v145l507 1108h-104q-138 0 -200 -78.5t-62 -254.5v-41h-117v505h733v-145zM158 1880h84l215 -180l215 180h84l-225 -350h-148z" />
<glyph unicode="&#x17e;" horiz-adv-x="764" d="M39 0v123l418 815h-54q-151 0 -194.5 -45.5t-46.5 -189.5l-105 -1v361h641v-125l-411 -815h51q150 0 197 51.5t59 233.5h104v-408h-659zM84 1554h84l215 -180l215 180h84l-225 -350h-148z" />
<glyph unicode="&#x192;" horiz-adv-x="901" d="M545 811l-29 -543q-19 -363 -93.5 -499t-236.5 -136q-89 0 -146.5 48t-57.5 120q0 58 28 91.5t76 33.5q40 0 65 -26t25 -66q0 -29 -14.5 -51.5t-42.5 -36.5q12 -13 26.5 -19t32.5 -6q67 0 95 73.5t38 350.5l19 666h-164v111h172q0 269 85.5 408.5t250.5 139.5 q90 0 146.5 -48t56.5 -124q0 -57 -26.5 -88.5t-74.5 -31.5q-41 0 -67.5 25t-26.5 65q0 31 16.5 55t42.5 33q-16 14 -30.5 20t-30.5 6q-71 0 -99 -94t-28 -366h164v-111h-172z" />
<glyph unicode="&#x2c6;" d="M438 1554h148l225 -350h-84l-215 180l-215 -180h-84z" />
<glyph unicode="&#x2c7;" d="M213 1554h84l215 -180l215 180h84l-225 -350h-148z" />
<glyph unicode="&#x2d8;" d="M203 1524h76q16 -65 70.5 -94t162.5 -29q107 0 161 29t70 94h76q-20 -141 -98.5 -215t-208.5 -74q-129 0 -208.5 74t-100.5 215z" />
<glyph unicode="&#x2d9;" d="M512 1495q53 0 90 -36.5t37 -88.5q0 -56 -36 -92.5t-91 -36.5q-53 0 -90 37.5t-37 91.5q0 51 38 88t89 37z" />
<glyph unicode="&#x2da;" d="M512 1575q-57 0 -96 -39t-39 -96t39 -97t96 -40t97 40t40 97q0 56 -40.5 95.5t-96.5 39.5zM512 1692q106 0 180 -73.5t74 -178.5q0 -106 -74 -180t-180 -74t-179 73.5t-73 180.5q0 106 73 179t179 73z" />
<glyph unicode="&#x2db;" d="M666 31q-91 -73 -132.5 -136.5t-41.5 -127.5q0 -53 25 -83t69 -30q30 0 54.5 12.5t45.5 40.5l49 -51q-39 -56 -95.5 -85.5t-125.5 -29.5q-78 0 -125 41.5t-47 110.5q0 90 59 173.5t181 164.5h84z" />
<glyph unicode="&#x2dc;" d="M735 1528h66q-14 -117 -68 -182.5t-137 -65.5q-16 0 -52 7q-4 1 -5 1l-105 27q-11 3 -24 4.5t-33 1.5q-32 0 -53.5 -20.5t-36.5 -65.5h-66q17 124 69.5 186t141.5 62q19 0 34.5 -2t29.5 -6l108 -29q7 -2 16 -3t23 -1q32 0 54 20t38 66z" />
<glyph unicode="&#x2dd;" d="M881 1391l-242 -187h-74l197 283q39 54 59 68t45 14q34 0 57 -22.5t23 -55.5q0 -25 -16.5 -50.5t-48.5 -49.5zM586 1397l-199 -193h-74l144 273q31 56 52.5 75t49.5 19q33 0 55.5 -22t22.5 -54q0 -25 -13 -49.5t-38 -48.5z" />
<glyph unicode="&#x3a9;" horiz-adv-x="1569" d="M1122 221h301l54 168h67l-117 -389h-516q111 218 167.5 434.5t56.5 423.5q0 278 -87.5 417.5t-261.5 139.5t-262 -139t-88 -416q0 -205 57 -421.5t169 -438.5h-519l-116 389h67l53 -168h302v23q-158 127 -240 283.5t-82 330.5q0 277 188 458t471 181q284 0 471 -180.5 t187 -458.5q0 -176 -82 -332t-240 -282v-23z" />
<glyph unicode="&#x3c0;" horiz-adv-x="1427" d="M1352 653h-342q-12 -73 -17.5 -147t-5.5 -152v-147q0 -129 -33 -189.5t-102 -60.5q-49 0 -74.5 30t-25.5 87q0 64 74.5 253.5t107.5 325.5h-381q-12 -68 -18.5 -141t-6.5 -152q0 -4 1 -21q1 -67 1 -130q0 -129 -33.5 -190.5t-103.5 -61.5q-48 0 -73 29t-25 86 q0 65 75 254.5t107 326.5h-139q-5 0 -15.5 -1t-15.5 -1q-106 0 -153 -36.5t-68 -135.5h-59q41 227 128.5 316.5t266.5 89.5h981z" />
<glyph unicode="&#x2013;" d="M0 477v133h1024v-133h-1024z" />
<glyph unicode="&#x2014;" horiz-adv-x="2048" d="M0 477v133h2048v-133h-2048z" />
<glyph unicode="&#x2018;" horiz-adv-x="451" d="M199 1139q6 1 12 1.5t18 0.5q60 0 92.5 -32t32.5 -89q0 -62 -34.5 -99.5t-92.5 -37.5q-66 0 -104.5 51t-38.5 139q0 93 57.5 187.5t153.5 156.5l59 -84q-60 -40 -97.5 -87t-57.5 -107z" />
<glyph unicode="&#x2019;" horiz-adv-x="451" d="M251 1163q-6 -1 -13 -1.5t-21 -0.5q-58 0 -89.5 31.5t-31.5 89.5q0 61 35 98t92 37q65 0 104.5 -49t39.5 -131q0 -100 -56.5 -195t-154.5 -159l-60 84q58 38 95.5 85.5t59.5 110.5z" />
<glyph unicode="&#x201a;" horiz-adv-x="451" d="M244 0q-7 -1 -13.5 -1.5t-19.5 -0.5q-60 0 -91.5 31t-31.5 90q0 61 35 98t92 37q65 0 104 -49t39 -131q0 -100 -56 -195.5t-155 -159.5l-59 84q57 39 95 86.5t61 110.5z" />
<glyph unicode="&#x201c;" horiz-adv-x="825" d="M199 1139q6 1 12 1.5t18 0.5q59 0 91 -31.5t32 -89.5q0 -62 -34.5 -99.5t-92.5 -37.5q-65 0 -103 50.5t-38 139.5q0 93 57.5 187.5t153.5 156.5l57 -84q-59 -39 -96 -86t-57 -108zM572 1139q5 1 11 1.5t19 0.5q60 0 92.5 -32t32.5 -89q0 -62 -35 -99.5t-92 -37.5 q-66 0 -103.5 50.5t-37.5 139.5q0 93 57 187.5t154 156.5l57 -84q-60 -40 -98 -87t-57 -107z" />
<glyph unicode="&#x201d;" horiz-adv-x="825" d="M626 1163q-6 -1 -13.5 -1.5t-20.5 -0.5q-58 0 -89.5 31.5t-31.5 89.5q0 61 35 98t92 37q65 0 104 -49t39 -131q0 -100 -56 -195t-155 -159l-59 84q57 38 95 85.5t60 110.5zM251 1163q-6 -1 -13 -1.5t-21 -0.5q-58 0 -89.5 31.5t-31.5 89.5q0 61 35 98t92 37 q65 0 104.5 -49t39.5 -131q0 -100 -56.5 -195t-154.5 -159l-60 84q58 38 95.5 85.5t59.5 110.5z" />
<glyph unicode="&#x201e;" horiz-adv-x="825" d="M618 0q-6 -1 -13 -1.5t-19 -0.5q-60 0 -91.5 31t-31.5 90q0 61 35 98t92 37q64 0 102.5 -49t38.5 -131q0 -101 -55.5 -196t-153.5 -159l-59 84q57 39 95 86.5t60 110.5zM244 0q-7 -1 -13.5 -1.5t-19.5 -0.5q-60 0 -91.5 31t-31.5 90q0 61 35 98t92 37q65 0 104 -49 t39 -131q0 -100 -56 -195.5t-155 -159.5l-59 84q57 39 95 86.5t61 110.5z" />
<glyph unicode="&#x2020;" horiz-adv-x="862" d="M385 761q-62 0 -143.5 -27t-106.5 -27q-47 0 -73.5 26t-26.5 74q0 47 26.5 73.5t73.5 26.5q25 0 106.5 -27t143.5 -28q-7 123 -39.5 265t-32.5 167q0 61 31.5 96t85.5 35t85.5 -35t31.5 -96q0 -25 -32.5 -167t-38.5 -265q61 1 143.5 28t107.5 27q46 0 72 -26.5t26 -73.5 t-26 -73.5t-72 -26.5q-25 0 -107.5 27t-144.5 27v-50v-99q0 -335 43 -723q12 -112 12 -141q0 -68 -26 -104.5t-74 -36.5t-74 36.5t-26 104.5q0 28 12 138q43 388 43 724v101v50z" />
<glyph unicode="&#x2021;" horiz-adv-x="862" d="M385 222v32q0 69 -17 134.5t-53 131.5q36 73 54 140.5t18 127.5q0 15 -0.5 21.5t-1.5 11.5q-63 0 -144.5 -27.5t-105.5 -27.5q-47 0 -73.5 27t-26.5 75q0 47 26.5 73t73.5 26q25 0 106 -27t144 -28q-6 85 -39 208t-33 164q0 61 31.5 96t85.5 35t85.5 -35t31.5 -96 q0 -41 -32.5 -164t-39.5 -208q63 1 145 28t107 27q47 0 72.5 -26t25.5 -73t-26 -74.5t-72 -27.5q-24 0 -106.5 27.5t-145.5 27.5v-30q0 -70 17.5 -136.5t52.5 -130.5q-36 -78 -53 -144.5t-17 -129.5v-28q60 0 143.5 27t108.5 27q46 0 72 -26t26 -74q0 -47 -26 -73.5 t-72 -26.5q-25 0 -107.5 27t-143.5 28q3 -95 37 -224t34 -169q0 -61 -31.5 -96t-85.5 -35t-85.5 35t-31.5 96q0 40 34.5 169.5t37.5 223.5q-62 -1 -143.5 -28t-106.5 -27q-47 0 -73.5 26.5t-26.5 73.5t26.5 73.5t73.5 26.5q25 0 106.5 -27t143.5 -27z" />
<glyph unicode="&#x2022;" horiz-adv-x="1208" d="M307 762q0 123 87 209t210 86q122 0 208.5 -86.5t86.5 -208.5t-87.5 -209.5t-209.5 -87.5q-123 0 -209 87t-86 210z" />
<glyph unicode="&#x2026;" horiz-adv-x="2048" d="M223 119q0 61 33 98t86 37q58 0 88.5 -35t30.5 -100q0 -69 -29.5 -103t-89.5 -34q-56 0 -87.5 36t-31.5 101zM905 119q0 61 33 98t86 37q58 0 88.5 -35t30.5 -100q0 -69 -29.5 -103t-89.5 -34q-56 0 -87.5 36t-31.5 101zM1589 119q0 61 33 98t86 37q58 0 88.5 -35 t30.5 -100q0 -69 -29.5 -103t-89.5 -34q-56 0 -87.5 36t-31.5 101z" />
<glyph unicode="&#x2030;" horiz-adv-x="1669" d="M1391 86q38 0 52.5 41t14.5 205q0 162 -14.5 202.5t-52.5 40.5q-39 0 -53.5 -40.5t-14.5 -202.5q0 -165 14.5 -205.5t53.5 -40.5zM1391 -33q-119 0 -172.5 85.5t-53.5 279.5q0 191 53.5 276.5t172.5 85.5q118 0 171.5 -85.5t53.5 -276.5q0 -192 -53.5 -278.5 t-171.5 -86.5zM842 -33q-119 0 -172.5 85.5t-53.5 279.5q0 191 53.5 276.5t172.5 85.5q118 0 171.5 -85.5t53.5 -276.5q0 -192 -53.5 -278.5t-171.5 -86.5zM842 86q38 0 52.5 41t14.5 205q0 162 -14.5 202.5t-52.5 40.5q-39 0 -53.5 -40.5t-14.5 -202.5q0 -165 14.5 -205.5 t53.5 -40.5zM274 811q41 0 55.5 40t14.5 206q0 158 -15 200.5t-55 42.5q-37 0 -51 -41t-14 -202q0 -164 14 -205t51 -41zM197 -33l551 1309q-32 -14 -65.5 -20.5t-72.5 -6.5q-31 0 -64.5 6t-68.5 16q13 -39 19 -81t6 -98q0 -223 -51.5 -311.5t-174.5 -88.5 q-118 0 -171.5 85.5t-53.5 279.5t52.5 277t172.5 83q54 0 165.5 -37t179.5 -37q63 0 115.5 22t97.5 67h88l-609 -1465h-116z" />
<glyph unicode="&#x2039;" horiz-adv-x="446" d="M264 211q-114 141 -158.5 214t-44.5 116q0 41 44 116.5t155 223.5h113q-67 -162 -90 -231.5t-23 -104.5t22.5 -96t106.5 -238h-125z" />
<glyph unicode="&#x203a;" horiz-adv-x="446" d="M180 879q112 -139 157.5 -213.5t45.5 -116.5q0 -43 -44.5 -120t-152.5 -220h-114l18 44q96 236 96 296q0 55 -128 328l-1 2h123z" />
<glyph unicode="&#x20a3;" horiz-adv-x="1602" d="M418 238q0 -56 23 -78.5t81 -22.5v-137h-456v137q57 0 80.5 22.5t23.5 78.5v909q0 56 -23.5 78t-80.5 22v137h841v-456h-116q-8 185 -74 252t-252 67h-47v-465h18q86 0 121 43t35 150v10h110v-545h-110v11q0 107 -35.5 150.5t-120.5 43.5h-18v-407zM1249 967 q32 62 77.5 94.5t103.5 32.5q75 0 124.5 -55t49.5 -138q0 -81 -35 -128.5t-94 -47.5q-48 0 -76.5 32.5t-28.5 86.5q0 51 25 81.5t67 30.5q6 0 13 -0.5t22 -2.5q-6 23 -24 35.5t-45 12.5q-67 0 -100.5 -65.5t-33.5 -198.5v-524q0 -60 18.5 -75t86.5 -15v-123h-422v123 q59 0 76.5 15.5t17.5 74.5v637q0 58 -17 73t-77 15v125h272v-96z" />
<glyph unicode="&#x2122;" horiz-adv-x="1683" d="M969 1448l135 -381l137 381h189v-27l-28 -2q-19 -3 -29.5 -16.5t-10.5 -36.5v-375q0 -23 10.5 -36.5t30.5 -16.5l27 -4v-29h-246v29l30 4q20 2 29.5 15.5t9.5 37.5v375l-163 -463h-27l-170 469v-381q0 -24 10 -38t29 -15l35 -4v-29h-197v29l33 4q20 2 30.5 15t10.5 36 v373q0 23 -11 37t-30 16l-33 2v31h199zM692 1448l10 -188h-30q-8 80 -40 116.5t-93 36.5h-11v-422q0 -23 10.5 -37t28.5 -16l31 -4v-29h-260v29l32 4q19 2 28.5 15.5t9.5 37.5v422h-15q-59 0 -91 -37.5t-40 -115.5h-29l11 188h448z" />
<glyph unicode="&#x2202;" horiz-adv-x="1075" d="M758 639q17 103 26 186.5t9 147.5q0 120 -29 174.5t-92 54.5q-62 0 -147 -58.5t-122 -58.5t-64.5 26t-27.5 60q0 66 79 115t200 49q176 0 287.5 -159t111.5 -422q0 -338 -150 -558.5t-376 -220.5q-161 0 -266 112t-105 286q0 193 113 322.5t278 129.5q101 0 167.5 -45 t107.5 -141zM705 504q0 116 -41 178.5t-117 62.5q-105 0 -174.5 -131.5t-69.5 -337.5q0 -116 40.5 -177.5t117.5 -61.5q105 0 174.5 132.5t69.5 334.5z" />
<glyph unicode="&#x2206;" horiz-adv-x="1350" d="M958 250l-380 899l-385 -899h765zM705 1497l641 -1497h-1340l651 1497h48z" />
<glyph unicode="&#x220f;" horiz-adv-x="1673" d="M51 1473h1569v-78h-190v-1710h190v-78h-643v78h184v1710h-653v-1710h186v-78h-643v78h189v1710h-189v78z" />
<glyph unicode="&#x2211;" horiz-adv-x="1499" d="M18 1473h1199l120 -394h-82l-81 238q-15 43 -50.5 60.5t-130.5 17.5h-628l745 -809v-41l-784 -709h893q47 0 64.5 13.5t29.5 50.5l69 229h84l-159 -522h-1289v55l875 787l-875 964v60z" />
<glyph unicode="&#x2212;" horiz-adv-x="1706" d="M1452 696v-170h-1198v170h1198z" />
<glyph unicode="&#x2215;" horiz-adv-x="342" d="M-342 -33l924 1450h100l-922 -1450h-102z" />
<glyph unicode="&#x2219;" horiz-adv-x="451" d="M88 688q0 55 41 96t96 41q56 0 95.5 -40t39.5 -95q0 -59 -38 -98t-97 -39q-56 0 -96.5 40t-40.5 95z" />
<glyph unicode="&#x221a;" horiz-adv-x="1323" d="M1325 1675v-110h-108l-594 -1606h-82l-316 872l-131 -49l-28 95l305 108l247 -688l510 1378h197z" />
<glyph unicode="&#x221e;" horiz-adv-x="1706" d="M928 559q45 -81 109.5 -122.5t146.5 -41.5q97 0 159 61.5t62 157.5q0 95 -57 158.5t-142 63.5q-78 0 -142 -63.5t-136 -213.5zM780 662q-46 81 -111 123t-145 42q-98 0 -159.5 -62t-61.5 -159q0 -94 56.5 -156.5t140.5 -62.5q80 0 144.5 62.5t135.5 212.5zM844 750 q71 139 149.5 200.5t184.5 61.5q127 0 222 -116t95 -284q0 -178 -84.5 -288.5t-220.5 -110.5q-92 0 -166.5 57.5t-161.5 200.5q-71 -135 -148.5 -197.5t-172.5 -62.5q-137 0 -232.5 114.5t-95.5 284.5q0 179 85 289.5t220 110.5q93 0 168.5 -60t157.5 -200z" />
<glyph unicode="&#x222b;" horiz-adv-x="1120" d="M324 -258q106 0 122 692q2 81 3 123q13 538 113 766.5t312 228.5q87 0 143 -45.5t56 -111.5q0 -61 -34 -95t-95 -34q-45 0 -74.5 22.5t-40.5 65.5q-4 17 -6 45q-3 40 -26 41q-101 0 -119 -615q-5 -161 -8 -249q-10 -280 -30.5 -427t-59.5 -245q-55 -136 -139.5 -205.5 t-194.5 -69.5q-87 0 -142 44t-55 112q0 63 35.5 97t99.5 34q39 0 66 -18t41 -54q6 -16 9 -59t24 -43z" />
<glyph unicode="&#x2248;" horiz-adv-x="1706" d="M1530 406q-107 -73 -200 -106.5t-189 -33.5q-89 0 -279.5 66.5t-298.5 66.5q-84 0 -173.5 -36t-211.5 -121v184q112 75 206.5 110t180.5 35q118 0 309 -67.5t277 -67.5q83 0 172 36.5t207 119.5v-186zM1530 795q-109 -75 -201.5 -108.5t-187.5 -33.5q-88 0 -278.5 67.5 t-299.5 67.5q-82 0 -170 -35t-215 -122v184q109 73 205 109.5t182 36.5q120 0 310 -68t268 -68q92 0 181 35t206 119v-184z" />
<glyph unicode="&#x2260;" horiz-adv-x="1706" d="M1327 1112l-170 -215h295v-162h-403l-197 -250h600v-161h-707l-249 -314l-123 99l170 215h-289v161h393l199 250h-592v162h700l250 315z" />
<glyph unicode="&#x2264;" horiz-adv-x="1706" d="M1446 178v-166h-1186v166h1186zM1446 1047l-889 -287l889 -287v-176l-1186 389v145l1186 392v-176z" />
<glyph unicode="&#x2265;" horiz-adv-x="1706" d="M1448 178v-166h-1188v166h1188zM1446 831v-145l-1186 -389v176l891 287l-891 287v176z" />
<glyph unicode="&#x25ca;" horiz-adv-x="1012" d="M506 1409l-385 -817l385 -825l385 825zM506 1653l500 -1061l-500 -1069l-500 1069z" />
<glyph unicode="&#xe000;" horiz-adv-x="1065" d="M0 1065h1065v-1065h-1065v1065z" />
<glyph unicode="&#xf000;" horiz-adv-x="1618" d="M836 1216q-1 6 -1.5 14t-0.5 23q0 124 95 229.5t236 131.5q1 -10 1.5 -23t0.5 -39q0 -131 -103.5 -234.5t-203.5 -103.5h-8q-3 0 -7.5 1t-8.5 1zM1505 403q-114 -247 -205 -342.5t-204 -95.5q-50 0 -131.5 33t-122.5 33q-45 0 -131 -33t-127 -33q-64 0 -128.5 44 t-129.5 132q-102 140 -157.5 295.5t-55.5 300.5q0 219 125 356.5t323 137.5q68 0 155 -34t124 -34q34 0 121.5 35t152.5 35q110 0 198 -40t161 -124q-102 -65 -151.5 -145.5t-49.5 -182.5q0 -113 60 -200t173 -138z" />
<glyph unicode="&#xf001;" horiz-adv-x="944" d="M360 213q0 -57 14 -72t58 -18v-123h-389v123q59 0 76.5 15.5t17.5 74.5v725h-94v125h94v59q0 158 102 253t271 95q128 0 202 -50.5t74 -137.5q0 -56 -32 -91.5t-82 -35.5q-49 0 -79 30t-30 79q0 37 16 62t44 32q-25 10 -50 15t-55 5q-89 0 -126.5 -54.5t-37.5 -188.5v-72 h455v-850q0 -88 83 -90h13v-123h-391v122q45 4 59.5 20t14.5 71v637q0 58 -17 73t-77 15h-134v-725z" />
<glyph unicode="&#xf002;" horiz-adv-x="944" d="M360 213q0 -57 14 -72t58 -18v-123h-389v123q59 0 76.5 15.5t17.5 74.5v725h-94v125h94v59q0 165 96 256.5t271 91.5q41 0 126 -8t130 -8q20 0 30 0.5t18 1.5l1 -1243q0 -88 83 -90h13v-123h-391v122q45 4 59.5 20t14.5 71v979q-13 16 -19 32t-6 36q0 39 16.5 65t45.5 33 q-20 10 -44.5 15t-56.5 5q-88 0 -129 -58t-41 -185v-72h158v-125h-152v-725z" />
</font>
</defs>
</svg>
