<?xml  version="1.0" encoding="UTF-8"?>
<!DOCTYPE svg PUBLIC "-//W3C//DTD SVG 1.0//EN" "http://www.w3.org/TR/2001/REC-SVG-20010904/DTD/svg10.dtd" >
<svg xmlns="http://www.w3.org/2000/svg" >
<metadata>
<version>1.0</version>
<id><![CDATA[Neo Sans Intel Italic]]></id>
<vendor>Monotype Imaging Inc.</vendor>
<credits>
<name>Fonts.com WebFonts</name>
<URL>http://webfonts.fonts.com</URL>
<role>Home of the Web fonts</role>
</credits>
<license>
<URL>http://webfonts.fonts.com/Legal</URL>
</license>
<copyright><![CDATA[Digitized data (C) 2004 Agfa Monotype Corporation. Neo Sans(TM) is a trademark of Monotype Imaging Corp. and may be registered in certain jurisdictions.]]></copyright>
<trademark><![CDATA[Neo Sans(TM) is a trademark of Monotype Imaging Corp. and may be registered in certain jurisdictions.]]></trademark>
<licensee>
<name></name>
</licensee>
</metadata>
<defs >
<font horiz-adv-x="1026" id="52838257-1e35-454c-bbf4-def4c82d7967">
<font-face font-family="" panose-1="2 11 5 4 2 2 2 9 2 4" ascent="2124" descent="-451" units-per-em="2048" alphabetic="0">
</font-face>
<missing-glyph horiz-adv-x="2048" d="M213 0V1536H1749V0H213ZM341 128H1621V1408H341V128Z"  />

<glyph unicode="&#xA;" />
<glyph unicode="&#xD;" />
<glyph unicode=" " horiz-adv-x="559" />
<glyph unicode="!" horiz-adv-x="412" d="M584 1501L379 436Q375 416 367 407T334 397H242Q207 397 207 428V436L381 1501Q384 1520 393 1530T428 1540H549Q586 1540 586 1513Q586 1509 586 1507T584 1501ZM322 39Q314 0 276 0H162Q129 0 129 31V39L162 231Q169 270 209 270H324Q356 270 356 244Q356 240 356 238T354 231L322 39Z"  />
<glyph unicode="&quot;" horiz-adv-x="709" d="M967 1518Q967 1513 963 1501L774 1114Q758 1075 729 1075H616Q602 1075 602 1090V1096Q602 1102 606 1114L770 1501Q783 1540 817 1540H948Q967 1540 967 1524V1518ZM602 1518Q602 1513 598 1501L410 1114Q393 1075 365 1075H252Q238 1075 238 1090V1096Q238 1102 242 1114L406 1501Q419 1540 453 1540H584Q602 1540 602 1524V1518Z"  />
<glyph unicode="#" horiz-adv-x="1319" d="M1421 1057V1053L1407 991Q1396 952 1358 952H1167L1061 555H1253Q1282 555 1282 524Q1282 522 1282 521T1280 516V512L1264 453Q1261 436 1248 425T1217 414H1024L926 39Q915 0 883 0H776Q748 0 748 31V35Q750 37 750 39L848 414H547L449 39Q436 0 406 0H297Q287 0 278 9T268 31V35Q270 37 270 39L369 414H186Q160 414 160 446V453Q161 454 161 454T162 457L176 516Q186 555 223 555H406L512 952H328Q303 952 303 981V991V995L317 1057Q329 1096 367 1096H549L651 1483Q656 1498 670 1510T698 1522H807Q831 1522 831 1493V1487Q829 1485 829 1483L727 1096H1028L1130 1483Q1144 1522 1178 1522H1284Q1309 1522 1309 1493Q1309 1489 1307 1483L1204 1096H1397Q1410 1096 1416 1088T1423 1067Q1423 1065 1423 1063T1421 1057ZM991 952H690L584 555H885L991 952Z"  />
<glyph unicode="$" horiz-adv-x="1206" d="M190 125L205 209Q212 238 233 238Q242 238 252 233Q455 156 631 156Q803 156 884 228T965 420Q965 490 921 542T766 670L590 791Q371 937 371 1143Q371 1271 426 1357T578 1484T803 1534L831 1706Q840 1747 881 1747H977Q1010 1747 1010 1716V1706L981 1530Q1041 1523 1093 1512T1180 1488T1247 1462Q1276 1452 1276 1432V1425L1257 1321Q1254 1294 1231 1294Q1221 1294 1214 1296Q1115 1331 1033 1349T860 1368Q755 1368 691 1348T595 1283T563 1165Q563 1113 585 1073T643 1000T741 926L911 813Q1047 722 1102 642T1157 444Q1157 262 1052 140T709 -8L676 -199Q669 -240 627 -240H530Q498 -240 498 -207V-199L530 -12Q443 -4 358 18T219 70Q201 80 195 86T188 106Q188 117 190 125Z"  />
<glyph unicode="%" horiz-adv-x="1593" d="M803 995Q748 680 475 680Q362 680 304 746T246 932Q246 972 256 1034L289 1225Q346 1536 616 1536Q731 1536 788 1474T846 1296Q846 1235 836 1186L803 995ZM1569 1477L455 25Q433 0 410 0H315Q287 0 287 16Q287 28 301 45L1415 1497Q1434 1522 1462 1522H1556Q1583 1522 1583 1507Q1583 1500 1569 1477ZM674 1014L707 1204Q715 1245 715 1284Q715 1413 600 1413Q454 1413 418 1204L385 1014Q377 956 377 936Q377 805 494 805Q637 805 674 1014ZM1575 301Q1520 -14 1247 -14Q1134 -14 1076 52T1018 238Q1018 278 1028 340L1061 530Q1091 693 1174 767T1389 842Q1503 842 1560 780T1618 602Q1618 540 1608 492L1575 301ZM1446 319L1479 510Q1487 551 1487 590Q1487 719 1372 719Q1227 719 1190 510L1157 319Q1149 263 1149 242Q1149 111 1266 111Q1409 111 1446 319Z"  />
<glyph unicode="&amp;" horiz-adv-x="1356" d="M1364 748V739Q1294 415 1143 240L1296 35Q1305 25 1305 16Q1305 0 1280 0H1137Q1117 0 1106 14L1024 125Q934 58 825 22T592 -14Q388 -14 270 65T152 305Q152 412 194 494T318 641T528 780L508 809Q454 885 426 933T381 1034T365 1147Q365 1245 396 1319T487 1442T627 1513T809 1536Q937 1536 1028 1502T1167 1405T1214 1257Q1214 1158 1174 1084T1051 942T825 791L756 750L1055 352Q1158 492 1208 739Q1214 772 1241 772H1333Q1364 772 1364 748ZM1047 1257Q1047 1331 993 1366T809 1401Q664 1401 598 1344T532 1147Q532 1082 558 1031T651 889L670 864L752 909Q878 979 929 1014T1014 1107T1047 1257ZM944 231L612 668Q545 630 499 599T417 528T358 434T336 311Q336 207 403 167T616 127Q805 127 944 231Z"  />
<glyph unicode="&apos;" horiz-adv-x="360" d="M586 1524Q586 1516 580 1501L393 1114Q382 1092 373 1084T348 1075H252Q236 1075 236 1090Q236 1102 242 1114L403 1501Q420 1540 453 1540H567Q586 1540 586 1524Z"  />
<glyph unicode="(" horiz-adv-x="592" d="M834 1528Q834 1520 821 1503Q702 1364 616 1212T471 892T383 547T354 190Q354 22 384 -122T477 -391Q481 -403 481 -408Q481 -428 457 -428H371Q355 -428 346 -424T328 -406Q178 -179 178 227Q178 398 208 575T299 926T448 1249T655 1518Q678 1540 707 1540H815Q834 1540 834 1528Z"  />
<glyph unicode=")" horiz-adv-x="592" d="M639 885Q639 529 516 177T162 -406Q149 -419 138 -423T111 -428H2Q-16 -428 -16 -414Q-16 -404 -6 -391Q112 -252 201 -97T348 224T434 562T463 922Q463 1082 433 1231T340 1503Q336 1511 336 1518Q336 1540 362 1540H446Q474 1540 489 1518Q539 1441 573 1341T623 1127T639 885Z"  />
<glyph unicode="*" horiz-adv-x="920" d="M1059 1225Q1059 1204 1030 1194L774 1114L932 897Q942 884 942 870Q942 857 930 848L881 811Q871 805 864 805Q847 805 834 825L678 1042L522 825Q509 805 492 805Q484 805 475 811L424 848Q412 857 412 870Q412 884 422 897L582 1114L328 1194Q297 1205 297 1225Q298 1228 298 1230T299 1235L317 1294Q324 1315 344 1315Q350 1315 362 1311L618 1227L616 1495Q616 1534 647 1534H709Q739 1534 739 1495L737 1227L993 1311Q1005 1315 1012 1315Q1032 1315 1038 1294L1057 1235Q1059 1231 1059 1225Z"  />
<glyph unicode="+" horiz-adv-x="1186" d="M1204 752Q1204 719 1163 719H819V377Q819 336 786 336H688Q673 336 664 347T655 377V719H313Q272 719 272 752V850Q272 865 284 874T313 883H655V1227Q655 1243 664 1255T688 1268H786Q819 1268 819 1227V883H1163Q1181 883 1192 875T1204 850V752Z"  />
<glyph unicode="&#x2c;" horiz-adv-x="406" d="M391 248Q391 241 383 225L162 -162Q149 -183 140 -192T115 -201H14Q-6 -201 -6 -182Q-6 -174 0 -162L184 225Q203 264 231 264H367Q391 264 391 248Z"  />
<glyph unicode="-" horiz-adv-x="649" d="M670 551Q663 516 625 516H217Q184 516 184 545V551L201 647Q204 663 216 673T246 684H653Q686 684 686 655V647L670 551Z"  />
<glyph unicode="." horiz-adv-x="406" d="M319 43Q316 24 303 13T274 2H160Q146 2 137 12T127 37V43L162 233Q163 248 176 260T207 272H322Q354 272 354 240V233L319 43Z"  />
<glyph unicode="/" horiz-adv-x="694" d="M947 1505Q947 1489 942 1481L225 41Q205 0 182 0H66Q41 0 41 22Q41 32 49 51L764 1481Q785 1522 807 1522H924Q947 1522 947 1505Z"  />
<glyph unicode="0" horiz-adv-x="1198" d="M1278 1098Q1278 1007 1260 899L1212 623Q1174 397 1092 255T886 50T598 -14Q406 -14 297 97T188 430Q188 512 207 623L254 899Q294 1130 377 1270T584 1473T870 1536Q967 1536 1042 1510T1170 1429T1251 1293T1278 1098ZM1092 1092Q1092 1244 1030 1311T844 1378Q773 1378 710 1350T594 1262T503 1115T442 899L395 623Q377 509 377 426Q377 275 439 209T625 143Q718 143 799 194T939 352T1026 623L1073 899Q1092 1016 1092 1092Z"  />
<glyph unicode="1" horiz-adv-x="1198" d="M987 1489V1483L733 41Q729 23 717 12T688 0H575Q547 0 547 33V41L772 1329L489 1214Q474 1208 463 1208Q446 1208 446 1223V1231L465 1335Q467 1351 489 1362L825 1509Q852 1522 870 1522H954Q968 1522 977 1513T987 1489Z"  />
<glyph unicode="2" horiz-adv-x="1198" d="M340 162H1030Q1065 162 1065 133V127L1051 37Q1045 0 1004 0H190Q156 0 156 29V39L184 205Q201 295 231 369T309 506T427 630T594 748L823 887Q939 957 991 999T1068 1093T1092 1223Q1092 1380 864 1380Q794 1380 723 1368T577 1335T457 1303Q451 1300 440 1300Q420 1300 420 1323V1331L432 1401Q436 1420 443 1427T471 1444Q517 1467 584 1488T732 1522T899 1536Q1085 1536 1179 1458T1274 1227Q1274 1126 1240 1052T1132 913T932 770L713 637Q618 581 554 530T446 426T382 324T348 205L340 162Z"  />
<glyph unicode="3" horiz-adv-x="1198" d="M551 -14Q483 -14 416 -3T292 26T193 63Q168 75 168 92Q169 95 169 98T170 106L182 176Q188 207 213 207Q223 207 227 205Q344 172 416 157T573 141Q697 141 779 187T902 313T942 498Q942 717 741 717H369Q336 717 336 743V754L350 825Q353 864 395 864H768Q880 864 945 914T1037 1038T1063 1188Q1063 1293 1001 1336T791 1380Q705 1380 626 1365T424 1317Q418 1315 408 1315Q387 1315 387 1337V1346L399 1415Q404 1435 411 1443T438 1458Q510 1487 617 1511T825 1536Q1036 1536 1145 1459T1255 1202Q1255 1137 1240 1076T1193 960T1110 859T989 788Q1067 748 1100 676T1133 498Q1133 378 1092 283T975 121T791 21T551 -14Z"  />
<glyph unicode="4" horiz-adv-x="1198" d="M997 406L934 41Q931 22 919 11T891 0H772Q745 0 745 29V41L809 406H217Q180 406 163 417T145 459Q145 475 147 485L160 563Q165 603 199 639L954 1489Q985 1522 1020 1522H1141Q1188 1522 1188 1491Q1188 1483 1186 1477L1024 561H1202Q1235 561 1235 532V524L1221 442Q1214 406 1176 406H997ZM838 561L958 1235V1239Q958 1247 952 1247Q944 1247 932 1235L360 590Q350 577 350 571Q350 561 365 561H838Z"  />
<glyph unicode="5" horiz-adv-x="1198" d="M537 -14Q437 -14 340 10T178 63Q154 75 154 92Q155 95 155 98T156 106L168 176Q173 207 199 207Q209 207 213 205Q417 141 561 141Q887 141 946 442Q963 520 963 565Q963 675 871 721T578 768H332Q303 768 303 795Q304 797 304 799T305 805L483 1487Q490 1522 530 1522H1235Q1270 1522 1270 1493V1487L1253 1397Q1250 1378 1240 1371T1206 1364H618L508 922H631Q805 922 920 887T1093 776T1151 578Q1151 519 1130 424Q1108 314 1059 231T936 94T762 13T537 -14Z"  />
<glyph unicode="6" horiz-adv-x="1198" d="M985 504L987 516Q993 554 993 584Q993 699 917 749T719 799Q650 799 557 788T403 762L369 567Q352 467 352 397Q352 301 381 243T466 161T604 137Q703 137 779 172T909 290T985 504ZM891 1536Q956 1536 1024 1525T1147 1497T1245 1460Q1260 1456 1265 1448T1271 1419L1255 1343Q1250 1313 1224 1313Q1215 1313 1210 1315Q1086 1350 1022 1365T862 1380Q746 1380 672 1349T551 1259T479 1121T432 926L428 903Q618 944 745 944Q938 944 1058 859T1178 596Q1178 551 1167 494L1165 481Q1123 239 978 113T592 -14Q172 -14 172 399Q172 490 188 592L252 950Q292 1173 374 1302T582 1483T891 1536Z"  />
<glyph unicode="7" horiz-adv-x="1198" d="M1311 1378Q1311 1328 1280 1280L473 31Q452 0 422 0H293Q268 0 268 23Q268 37 279 53L1122 1339Q1126 1347 1126 1350Q1126 1362 1114 1362H422Q387 1362 387 1391V1395V1397L403 1483Q408 1499 421 1510T451 1522H1137Q1222 1522 1266 1481T1311 1378Z"  />
<glyph unicode="8" horiz-adv-x="1198" d="M1313 1217Q1313 1127 1281 1045T1189 897T1049 795Q1120 751 1157 679T1194 522Q1194 391 1152 292T1031 124T844 21T608 -14H588Q494 -14 415 10T278 83T190 198T160 348Q160 488 233 609T430 795Q358 836 323 900T287 1044Q287 1204 364 1315T572 1481T860 1536H881Q1006 1536 1104 1500T1257 1392T1313 1217ZM1128 1186Q1128 1291 1061 1337T854 1384H834Q736 1384 653 1346T519 1234T469 1061Q469 975 522 922T690 868H817Q908 868 979 909T1089 1024T1128 1186ZM1008 514Q1008 601 956 661T791 721H664Q563 721 492 672T384 539T348 358Q348 245 414 193T614 141H635Q751 141 835 187T964 316T1008 514Z"  />
<glyph unicode="9" horiz-adv-x="1198" d="M457 1018L455 1006Q449 969 449 938Q449 823 525 773T723 723Q786 723 878 733T1038 760L1073 954Q1090 1066 1090 1124Q1090 1268 1028 1326T838 1384Q739 1384 663 1349T533 1232T457 1018ZM551 -14Q453 -14 359 8T197 61Q181 68 177 74T172 104L186 178Q191 209 217 209Q226 209 231 207Q255 200 300 187T389 164T484 147T580 141Q693 141 769 173T892 264T965 403T1010 596L1014 618Q818 578 696 578Q504 578 384 663T264 926Q264 966 274 1028L276 1040Q299 1163 345 1254T463 1409T633 1504T850 1536Q1270 1536 1270 1122Q1270 1027 1253 930L1190 571Q1161 407 1107 292T973 109T790 14T551 -14Z"  />
<glyph unicode=":" horiz-adv-x="416" d="M475 895Q472 878 458 867T426 856H313Q301 856 291 866T281 889V895L313 1085Q316 1102 329 1114T360 1126H473Q488 1126 498 1117T508 1092V1085L475 895ZM324 39Q321 23 307 12T276 0H164Q152 0 141 9T129 33V39L162 231Q165 245 179 257T211 270H324Q356 270 356 238V231L324 39Z"  />
<glyph unicode=";" horiz-adv-x="416" d="M471 895Q468 878 455 867T424 856H307Q276 856 276 887V895L309 1085Q312 1102 325 1114T354 1126H471Q485 1126 494 1117T504 1092V1085L471 895ZM362 240Q362 241 356 223L133 -164Q120 -188 112 -196T88 -205H-10Q-29 -205 -29 -184V-178Q-28 -177 -28 -175T-27 -169T-25 -164L160 223Q177 262 207 262H340Q362 262 362 244V240Z"  />
<glyph unicode="&lt;" horiz-adv-x="1186" d="M1096 307Q1096 287 1071 287H936Q905 287 872 313L379 731Q342 762 342 801Q342 840 379 870L872 1288Q904 1315 936 1315H1071Q1096 1315 1096 1294Q1096 1277 1075 1260L539 801L1075 342Q1096 325 1096 307Z"  />
<glyph unicode="=" horiz-adv-x="1186" d="M1192 979Q1192 946 1151 946H362Q322 946 322 979V1077Q322 1110 362 1110H1151Q1192 1110 1192 1077V979ZM1192 526Q1192 494 1151 494H362Q322 494 322 526V625Q322 657 362 657H1151Q1192 657 1192 625V526Z"  />
<glyph unicode="&gt;" horiz-adv-x="1186" d="M1192 801Q1192 762 1155 731L662 313Q630 287 598 287H463Q438 287 438 307Q438 325 459 342L995 801L459 1260Q438 1277 438 1294Q438 1315 463 1315H598Q630 1315 662 1288L1155 870Q1192 840 1192 801Z"  />
<glyph unicode="?" horiz-adv-x="881" d="M434 39Q427 0 389 0H272Q238 0 238 31V39L270 229Q278 270 319 270H436Q469 270 469 242Q469 238 469 235T467 229L434 39ZM635 1374Q543 1374 460 1357T256 1303Q250 1300 238 1300Q221 1300 221 1319V1327L238 1425Q241 1439 249 1446T279 1462Q341 1487 448 1511T664 1536Q772 1536 851 1510T975 1425T1020 1270Q1020 1193 998 1133T920 1007T766 852L655 748Q597 694 573 668T534 613T510 537L492 436Q485 397 444 397H354Q322 397 322 426V436L340 537Q350 600 370 647T424 737T528 846L643 956Q712 1024 748 1067T803 1152T821 1249Q821 1317 776 1345T635 1374Z"  />
<glyph unicode="@" horiz-adv-x="1538" d="M702 102Q559 102 497 173T434 352Q434 397 442 432L489 672Q524 843 625 920T897 997Q1013 997 1155 967Q1200 958 1192 915L1090 399Q1077 340 1077 311Q1077 248 1145 248Q1266 248 1328 395T1409 705Q1415 759 1415 807Q1415 908 1391 985T1311 1117T1171 1198T958 1225Q680 1225 519 1097T303 705L240 393Q227 334 227 274Q227 102 345 -3T698 -109Q808 -109 995 -94Q1008 -93 1011 -99T1014 -109L1008 -174Q1006 -200 971 -203Q830 -219 684 -219Q406 -219 253 -85T100 279Q100 356 115 426L174 733Q215 934 315 1070T580 1274T977 1343Q1120 1343 1227 1305T1405 1197T1512 1025T1548 799Q1548 745 1542 686Q1514 426 1402 270T1114 113Q988 113 936 190Q812 102 702 102ZM920 410L1001 838Q921 850 864 850Q776 850 728 806T659 668L612 434Q604 402 604 365Q604 248 733 248Q804 248 907 305Q910 361 920 410Z"  />
<glyph unicode="A" horiz-adv-x="1264" d="M1227 39Q1227 0 1192 0H1069Q1044 0 1040 31L989 502H459L246 31Q242 19 228 10T203 0H78Q49 0 49 27Q49 39 53 47L668 1380Q708 1467 771 1501T903 1536Q947 1536 984 1523T1049 1475T1083 1382L1227 47V39ZM979 664L911 1337Q908 1374 879 1374Q849 1374 831 1337L526 664H979Z"  />
<glyph unicode="B" horiz-adv-x="1229" d="M1337 1176Q1337 1153 1329 1108Q1306 983 1237 905T1055 786Q1136 754 1181 682T1227 516Q1227 475 1217 420Q1187 252 1096 157T869 24T543 -14Q325 -14 211 4Q156 12 156 57Q156 72 158 80L397 1444Q409 1509 477 1520Q617 1536 805 1536Q924 1536 1020 1518T1187 1461T1298 1361T1337 1212V1176ZM1151 1171V1194Q1151 1268 1107 1308T980 1363T778 1378Q747 1378 573 1372L483 864H799Q1096 864 1143 1108Q1151 1151 1151 1171ZM1040 514Q1040 715 774 715H459L358 152Q392 151 463 147T569 143Q776 143 889 203T1030 420Q1040 475 1040 514Z"  />
<glyph unicode="C" horiz-adv-x="1083" d="M219 653V655L268 938Q309 1172 405 1305T624 1487T889 1536Q967 1536 1038 1522T1163 1489T1249 1450Q1266 1442 1266 1417L1247 1317Q1243 1295 1224 1295Q1217 1295 1208 1298Q1160 1318 1063 1343T893 1368Q769 1368 682 1324T538 1177T451 903L401 621Q387 537 387 463Q387 154 680 154Q752 154 851 177T1020 223Q1026 225 1034 225Q1051 225 1051 205L1032 104Q1031 90 1027 85T1008 72Q972 55 910 34T780 0T649 -14Q518 -14 418 32T260 182T201 453Q201 544 219 653Z"  />
<glyph unicode="D" horiz-adv-x="1280" d="M1352 1057Q1352 977 1337 899L1290 623Q1180 -14 557 -14Q308 -14 188 6Q152 13 152 45Q153 48 153 50T154 57L401 1464Q412 1508 453 1516Q495 1522 539 1525T667 1532T829 1536Q989 1536 1106 1483T1288 1322T1352 1057ZM1165 1047Q1165 1226 1069 1301T801 1376Q675 1376 573 1370L358 150Q424 145 586 145Q679 145 761 170T914 254T1034 402T1104 623L1151 899Q1165 976 1165 1047Z"  />
<glyph unicode="E" horiz-adv-x="1096" d="M1264 1493V1489L1245 1393Q1242 1368 1219 1368H823Q715 1368 658 1348T574 1283T532 1155L483 870H1112Q1129 870 1137 861T1145 836V829L1133 752Q1130 735 1115 723T1083 711H455L395 367Q385 312 385 283Q385 237 405 209T473 167T608 154H1004Q1022 154 1022 135V129L1004 29Q998 3 979 0Q946 -3 810 -8T578 -14Q399 -14 300 60T201 281Q201 326 209 367L346 1155Q373 1305 435 1387T599 1502T850 1536Q1008 1536 1103 1532T1247 1518Q1264 1515 1264 1493Z"  />
<glyph unicode="F" horiz-adv-x="1096" d="M1264 1497V1489L1245 1393Q1242 1368 1219 1368H823Q715 1368 658 1348T574 1283T532 1155L483 870H1112Q1129 870 1137 861T1145 836V829L1133 752Q1130 735 1115 723T1083 711H455L338 41Q335 23 321 12T291 0H186Q152 0 152 35V41L346 1155Q373 1305 435 1387T597 1503T850 1536Q1141 1536 1249 1518Q1264 1515 1264 1497Z"  />
<glyph unicode="G" horiz-adv-x="1221" d="M897 1368Q781 1368 695 1329T544 1186T446 897L397 623Q383 542 383 469Q383 306 462 230T686 154Q790 154 920 164L1022 750Q1029 791 1067 791H1178Q1210 791 1210 760Q1210 753 1206 737L1087 61Q1080 23 1042 16Q847 -14 668 -14Q525 -14 420 37T257 196T199 465Q199 556 217 659L266 934Q326 1276 503 1406T928 1536Q1037 1536 1146 1507T1300 1450Q1317 1442 1317 1425V1417L1298 1317Q1295 1296 1274 1296Q1266 1296 1260 1298Q1208 1319 1098 1343T897 1368Z"  />
<glyph unicode="H" horiz-adv-x="1360" d="M1477 1489V1481L1225 41Q1222 24 1207 12T1176 0H1071Q1058 0 1048 9T1038 33V41L1157 721H457L338 41Q335 24 320 12T289 0H184Q170 0 161 9T152 33V41L403 1481Q408 1498 422 1510T453 1522H557Q573 1522 581 1513T590 1489V1481L485 887H1186L1290 1481Q1293 1497 1308 1509T1339 1522H1444Q1458 1522 1467 1513T1477 1489Z"  />
<glyph unicode="I" horiz-adv-x="514" d="M612 1491V1483L358 41Q354 23 342 12T313 0H201Q172 0 172 33V41L426 1483Q434 1522 469 1522H582Q596 1522 604 1513T612 1491Z"  />
<glyph unicode="J" horiz-adv-x="494" d="M612 1489V1483L336 -76Q310 -225 223 -297T-33 -369Q-60 -369 -95 -363T-137 -352Q-145 -347 -145 -336V-330L-133 -254Q-127 -219 -86 -219H-6Q71 -219 103 -188T150 -76L426 1483Q429 1499 443 1510T471 1522H580Q593 1522 602 1513T612 1489Z"  />
<glyph unicode="K" horiz-adv-x="1210" d="M1399 1501Q1399 1489 1389 1479L631 782L1120 33Q1124 25 1124 20Q1124 11 1118 6T1102 0H954Q926 0 913 20L459 729L338 41Q335 23 322 12T293 0H180Q152 0 152 33V41L406 1483Q409 1498 422 1510T451 1522H559Q573 1522 582 1513T592 1489V1483L479 840L1167 1503Q1189 1522 1212 1522H1372Q1399 1522 1399 1501Z"  />
<glyph unicode="L" horiz-adv-x="1020" d="M1020 129V123L1006 33Q1003 8 979 4Q855 -14 578 -14Q468 -14 385 10T252 99T203 276Q203 337 213 391L403 1481Q408 1498 422 1510T453 1522H557Q573 1522 581 1513T590 1489V1481L395 367Q385 312 385 276Q385 230 404 204T471 166T608 154H993Q1020 154 1020 129Z"  />
<glyph unicode="M" horiz-adv-x="1526" d="M1397 41Q1394 23 1380 12T1350 0H1249Q1214 0 1214 41L1430 1255Q1430 1262 1427 1262Q1425 1262 1423 1257L1073 729Q1029 661 983 631T874 600Q816 600 780 629T721 727L559 1257Q557 1262 555 1262Q553 1262 553 1255L338 41Q335 23 321 12T291 0H190Q156 0 156 41L406 1462Q409 1478 419 1491T445 1513T477 1522H604Q632 1522 645 1515T664 1487L877 784Q882 762 897 762Q910 762 926 784L1389 1487Q1401 1507 1416 1514T1460 1522H1599Q1622 1522 1635 1507T1648 1464L1397 41Z"  />
<glyph unicode="N" horiz-adv-x="1360" d="M1479 1491V1483L1227 59Q1222 34 1202 17T1157 0H1038Q992 0 979 33L549 1235L545 1241Q541 1241 541 1235L330 39Q327 23 315 12T287 0H180Q147 0 147 18V25L401 1464Q407 1489 426 1505T471 1522H571Q612 1522 625 1514T647 1481L1077 285L1079 279H1083L1085 285L1296 1483Q1299 1498 1312 1510T1339 1522H1448Q1479 1522 1479 1491Z"  />
<glyph unicode="O" horiz-adv-x="1321" d="M1386 1065Q1386 991 1370 893L1323 629Q1293 461 1235 339T1092 139T898 24T657 -14Q512 -14 409 46T253 216T201 471Q201 551 215 629L262 893Q294 1072 355 1195T504 1394T698 1503T930 1536Q1067 1536 1170 1482T1329 1322T1386 1065ZM1198 1063Q1198 1225 1123 1296T901 1368Q727 1368 611 1252T451 893L403 629Q389 551 389 473Q389 154 686 154Q779 154 852 182T980 268T1073 414T1135 629L1182 893Q1198 977 1198 1063Z"  />
<glyph unicode="P" horiz-adv-x="1182" d="M1305 1176Q1305 1134 1298 1092L1294 1065Q1273 929 1216 840T1073 700T878 627T639 606Q564 606 436 616L336 41Q333 24 320 12T291 0H180Q152 0 152 33V39V41L401 1468Q412 1514 461 1520Q605 1536 803 1536Q1040 1536 1172 1448T1305 1176ZM1118 1163Q1118 1243 1082 1290T970 1357T776 1378Q667 1378 569 1370L463 770Q473 770 499 769T554 766T616 764T668 762Q872 762 978 838T1108 1065L1112 1092Q1118 1131 1118 1163Z"  />
<glyph unicode="Q" horiz-adv-x="1321" d="M1386 1065Q1386 991 1370 893L1323 629Q1298 489 1253 380T1143 194T997 68Q997 -23 1133 -23H1253Q1292 -23 1292 -45Q1292 -53 1290 -57L1278 -117Q1273 -150 1240 -162T1106 -174Q980 -174 908 -134T817 0Q728 -14 657 -14Q512 -14 409 46T253 216T201 471Q201 551 215 629L262 893Q294 1072 355 1195T504 1394T698 1503T930 1536Q1067 1536 1170 1482T1329 1322T1386 1065ZM1198 1063Q1198 1225 1123 1296T901 1368Q727 1368 611 1252T451 893L403 629Q389 551 389 473Q389 154 686 154Q779 154 852 182T980 268T1073 414T1135 629L1182 893Q1198 977 1198 1063Z"  />
<glyph unicode="R" horiz-adv-x="1247" d="M1325 1171Q1325 1135 1319 1096L1317 1081Q1292 907 1189 803T922 668L1188 39Q1192 31 1192 25Q1192 0 1161 0H1028Q1008 0 1001 4T987 27L729 637H709H666Q617 637 599 637T527 639T440 643L336 41Q333 24 320 12T291 0H180Q152 0 152 33V39V41L403 1475Q409 1497 421 1507T461 1520Q522 1527 625 1531T823 1536Q1054 1536 1189 1445T1325 1171ZM1141 1163Q1141 1280 1060 1324T795 1368Q616 1368 567 1362L469 801Q571 797 694 797Q1092 797 1133 1081L1135 1096Q1141 1132 1141 1163Z"  />
<glyph unicode="S" horiz-adv-x="1094" d="M135 125L150 209Q157 238 178 238Q185 238 197 233Q281 201 383 179T575 156Q748 156 828 228T909 420Q909 489 865 541T711 670L535 791Q425 864 370 950T315 1143Q315 1349 447 1442T803 1536Q896 1536 972 1524T1103 1495T1192 1462Q1221 1451 1221 1432V1425L1202 1321Q1199 1294 1176 1294Q1165 1294 1159 1296Q1060 1331 978 1349T805 1368Q700 1368 636 1348T540 1283T508 1165Q508 1113 530 1073T588 1000T686 926L856 813Q992 722 1047 642T1102 444Q1102 349 1074 268T980 122T804 22T539 -14Q442 -14 336 10T164 70Q146 80 140 86T133 106Q133 117 135 125Z"  />
<glyph unicode="T" horiz-adv-x="1176" d="M1382 1491V1485L1366 1395Q1363 1379 1351 1371T1321 1362H922L690 41Q687 22 674 11T645 0H532Q504 0 504 33V41L735 1362H336Q301 1362 301 1389V1395L317 1485Q322 1500 335 1511T365 1522H1350Q1382 1522 1382 1491Z"  />
<glyph unicode="U" horiz-adv-x="1323" d="M1448 1489V1483L1284 553Q1231 255 1079 121T659 -14Q454 -14 338 92T221 403Q221 481 236 553L399 1483Q402 1499 415 1510T444 1522H555Q569 1522 578 1513T588 1489V1483L424 553Q408 465 408 406Q408 320 436 262T527 175T688 145Q783 145 851 170T969 249T1049 379T1096 553L1260 1483Q1263 1498 1276 1510T1305 1522H1415Q1431 1522 1439 1513T1448 1489Z"  />
<glyph unicode="V" horiz-adv-x="1284" d="M1493 1495Q1493 1481 1489 1475L877 141Q836 53 774 20T641 -14Q476 -14 459 141L315 1475V1479Q315 1497 327 1509T358 1522H473Q500 1522 504 1491L631 186Q634 143 664 143Q691 143 711 186L1298 1491Q1315 1522 1339 1522H1464Q1493 1522 1493 1495Z"  />
<glyph unicode="W" horiz-adv-x="1657" d="M1718 1522H1837Q1866 1522 1866 1495Q1866 1487 1864 1481L1393 96Q1373 37 1337 15T1247 -8H1159Q1071 -8 1061 94L993 852Q990 870 981 870Q973 870 965 852L629 94Q581 -8 494 -8H408Q354 -8 327 14T299 96L315 1481Q315 1522 358 1522H477Q506 1522 506 1487L473 182Q473 152 479 152Q483 152 498 182L801 870Q838 952 886 990T1010 1028Q1085 1028 1120 990T1161 870L1223 182Q1226 152 1231 152Q1235 152 1247 182L1677 1487Q1687 1522 1718 1522Z"  />
<glyph unicode="X" horiz-adv-x="1290" d="M1456 1497Q1456 1486 1446 1473L874 766L1210 51Q1214 39 1214 35Q1214 20 1204 10T1176 0H1073Q1059 0 1053 5T1036 31L760 621L283 31Q257 0 233 0H111Q82 0 82 25Q82 38 92 51L686 778L360 1473Q356 1481 356 1487Q356 1501 366 1511T393 1522H498Q522 1522 530 1501L803 920L1278 1501Q1293 1522 1321 1522H1427Q1456 1522 1456 1497Z"  />
<glyph unicode="Y" horiz-adv-x="1161" d="M1370 1497Q1370 1488 1360 1470L915 758Q847 648 782 623L680 41Q677 24 664 12T635 0H522Q494 0 494 33V41L596 623Q538 646 508 758L319 1470Q317 1477 317 1485Q317 1522 356 1522H475Q484 1522 494 1513T508 1493L672 829Q686 776 711 776Q733 776 766 829L1169 1493Q1188 1522 1208 1522H1339Q1370 1522 1370 1497Z"  />
<glyph unicode="Z" horiz-adv-x="1190" d="M1305 1370Q1305 1300 1249 1235L346 197Q338 188 338 180Q338 168 354 168H1085Q1120 168 1120 139V133L1104 37Q1101 20 1088 10T1057 0H324Q244 0 197 45T150 156Q150 239 209 307L1087 1325Q1096 1333 1096 1343Q1096 1356 1077 1356H408Q373 1356 373 1384V1391L389 1487Q392 1503 405 1512T436 1522H1126Q1184 1522 1223 1502T1284 1447T1305 1370Z"  />
<glyph unicode="[" horiz-adv-x="637" d="M864 1489V1481L854 1413Q851 1397 836 1385T805 1372H571L287 -248H520Q537 -248 545 -257T553 -281V-289L541 -356Q538 -374 524 -385T494 -397H113Q84 -397 84 -367V-358L410 1483Q413 1499 424 1510T451 1522H831Q847 1522 855 1513T864 1489Z"  />
<glyph unicode="\" horiz-adv-x="694" d="M672 37Q672 23 662 12T637 0H532Q508 0 504 41L293 1481V1485Q293 1498 303 1510T328 1522H432Q455 1522 459 1481L672 41V37Z"  />
<glyph unicode="]" horiz-adv-x="637" d="M752 1491V1483L426 -358Q419 -397 385 -397H4Q-31 -397 -31 -362V-356L-18 -289Q-15 -272 -1 -260T31 -248H264L549 1372H315Q301 1372 292 1381T283 1405V1413L293 1481Q296 1496 310 1509T342 1522H723Q736 1522 744 1513T752 1491Z"  />
<glyph unicode="^" horiz-adv-x="1186" d="M1167 1171Q1167 1153 1145 1153H1022Q1002 1153 994 1159T965 1190L754 1436L543 1190Q524 1167 515 1160T485 1153H362Q340 1153 340 1171Q340 1183 348 1194L584 1499Q601 1522 612 1529T645 1536H862Q883 1536 895 1529T924 1499L1159 1194Q1167 1183 1167 1171Z"  />
<glyph unicode="_" horiz-adv-x="979" d="M1028 -201Q1022 -233 981 -233H-72Q-106 -233 -106 -207V-201L-94 -133Q-88 -100 -47 -100H1006Q1040 -100 1040 -127V-133L1028 -201Z"  />
<glyph unicode="`" horiz-adv-x="729" d="M709 1294Q709 1276 688 1276H578Q563 1276 556 1282T535 1307L350 1565Q344 1574 344 1579Q344 1595 369 1595H504Q532 1595 551 1565L705 1311Q709 1305 709 1294Z"  />
<glyph unicode="a" horiz-adv-x="1047" d="M922 78Q916 41 883 33Q801 11 716 -1T528 -14Q135 -14 135 262Q135 309 147 371Q162 456 198 513T301 607T462 658T696 674H848L862 756Q870 796 870 838Q870 918 827 950T682 983Q589 983 522 971T360 932Q348 928 342 928Q317 928 317 952V958L332 1038Q336 1063 367 1075Q418 1096 514 1118T711 1141Q887 1141 968 1065T1049 846Q1049 805 1038 733L922 78ZM754 145L823 543H672Q550 543 479 524T374 462T326 344Q317 291 317 262Q317 190 369 159T553 127Q675 127 754 145Z"  />
<glyph unicode="b" horiz-adv-x="1075" d="M1114 774Q1114 710 1102 639L1075 492Q1054 372 1011 277T902 117T748 19T541 -14Q344 -14 170 20Q133 29 133 51Q134 55 134 58T135 68L387 1501Q390 1516 402 1528T432 1540H537Q567 1540 567 1509V1503V1501L500 1120Q615 1141 743 1141Q866 1141 949 1097T1073 970T1114 774ZM936 778Q936 884 884 933T717 983Q641 983 583 981T473 969L330 156Q475 143 567 143Q636 143 692 167T788 237T855 349T895 492L922 639Q936 713 936 778Z"  />
<glyph unicode="c" horiz-adv-x="893" d="M518 -14Q338 -14 250 86T162 362Q162 441 176 518L205 678Q248 918 374 1029T709 1141Q803 1141 874 1121T979 1079Q1004 1063 1004 1047Q1004 1046 1003 1043T1001 1036L987 963Q983 932 958 932Q946 932 936 936Q813 983 694 983Q608 983 547 951T443 843T379 643L350 483Q338 410 338 354Q338 246 388 195T547 143Q661 143 805 190Q813 195 827 195Q848 195 848 172Q848 160 846 154L834 90Q831 74 824 66T799 47Q756 26 680 6T518 -14Z"  />
<glyph unicode="d" horiz-adv-x="1075" d="M1217 1503V1501L965 68Q962 47 952 37T913 20Q727 -14 530 -14Q348 -14 254 87T160 362Q160 423 172 492L199 639Q223 770 268 867T379 1024T532 1112T733 1141Q795 1141 856 1136T969 1120L1036 1501Q1039 1517 1052 1528T1083 1540H1188Q1217 1540 1217 1509V1503ZM942 969Q896 978 839 980T707 983Q443 983 379 639L352 492Q338 405 338 358Q338 251 389 197T557 143Q643 143 799 156L942 969Z"  />
<glyph unicode="e" horiz-adv-x="1081" d="M588 143Q638 143 686 152T796 181T881 209T950 233Q958 238 971 238Q993 238 993 215V207L979 123Q976 103 968 95T940 78Q877 50 773 18T567 -14Q384 -14 274 80T164 373Q164 433 176 506L207 690Q226 803 270 888T379 1028T530 1112T723 1141Q923 1141 1018 1045T1114 786Q1114 702 1090 551Q1082 506 1042 506H356L352 477Q340 413 340 362Q340 245 399 194T588 143ZM381 643H924Q936 717 936 774Q936 883 882 933T715 983Q643 983 589 964T494 905T426 799T381 643Z"  />
<glyph unicode="f" horiz-adv-x="725" d="M952 1520V1513L940 1446Q934 1415 899 1415H801Q724 1415 693 1390T645 1274L618 1126H840Q872 1126 872 1096V1090L860 1018Q853 983 813 983H594L412 -49Q392 -165 346 -227T233 -312T76 -334Q10 -334 -45 -324Q-78 -316 -78 -297V-291L-66 -223Q-59 -193 -23 -193H74Q125 -193 155 -180T203 -136T231 -49L414 983L223 997Q190 1000 190 1026V1032L201 1090Q208 1126 246 1126H438L465 1274Q497 1449 573 1504T801 1559Q849 1559 920 1546Q952 1540 952 1520Z"  />
<glyph unicode="g" horiz-adv-x="1075" d="M461 -256Q561 -256 620 -235T714 -160T768 0L770 14Q729 4 656 -5T535 -14Q422 -14 338 25T207 149T160 365Q160 440 174 520L201 670Q231 839 298 942T473 1093T739 1141Q901 1141 1098 1094Q1135 1085 1135 1061Q1135 1053 1133 1047L948 0Q929 -113 888 -191T787 -315T640 -382T436 -403Q325 -403 241 -379T113 -326Q92 -311 92 -295Q92 -285 94 -279L104 -211Q114 -180 139 -180Q146 -180 158 -184Q256 -224 310 -240T461 -256ZM795 160L938 967Q821 989 713 989Q612 989 545 954T437 841T375 639L348 489Q334 400 334 356Q334 239 391 188T561 137Q611 137 678 143T795 160Z"  />
<glyph unicode="h" horiz-adv-x="1108" d="M1122 813Q1122 787 1114 729L993 41Q990 23 976 12T944 0H846Q831 0 822 9T813 33V39V41L934 729Q942 770 942 811Q942 905 888 946T713 987Q579 987 471 956L311 41Q308 23 294 12T262 0H164Q149 0 140 9T131 33V39V41L387 1501Q390 1516 402 1528T432 1540H537Q567 1540 567 1509V1503V1501L500 1112Q629 1141 739 1141Q867 1141 953 1099T1080 982T1122 813Z"  />
<glyph unicode="i" horiz-adv-x="473" d="M596 1520V1511L567 1348Q564 1330 550 1319T518 1307H414Q381 1307 381 1339V1348L410 1511Q413 1528 427 1540T459 1552H563Q596 1552 596 1520ZM516 1094V1085L334 41Q331 24 316 12T285 0H186Q172 0 163 9T154 33V41L336 1085Q339 1102 353 1114T385 1126H483Q516 1126 516 1094Z"  />
<glyph unicode="j" horiz-adv-x="473" d="M596 1520V1513L567 1348Q564 1330 550 1319T518 1307H412Q381 1307 381 1339V1348L410 1513Q413 1529 426 1540T457 1552H563Q578 1552 587 1543T596 1520ZM516 1094V1085L303 -131Q277 -282 202 -342T-4 -403Q-61 -403 -113 -395Q-143 -390 -143 -371V-362L-131 -287Q-125 -258 -82 -258H4Q62 -258 86 -233T123 -131L336 1085Q339 1102 353 1114T385 1126H483Q516 1126 516 1094Z"  />
<glyph unicode="k" horiz-adv-x="983" d="M1102 1106Q1102 1091 1090 1079L559 592L930 47Q936 38 936 29Q936 16 928 8T907 0H788Q754 0 733 31L397 535L311 41Q304 0 272 0H164Q149 0 140 9T131 33V41L387 1499Q390 1516 404 1528T436 1540H535Q567 1540 567 1507V1499L420 668L891 1108Q909 1126 936 1126H1075Q1102 1126 1102 1106Z"  />
<glyph unicode="l" horiz-adv-x="467" d="M588 1509V1501L332 41Q329 23 316 12T287 0H180Q152 0 152 33V41L408 1501Q415 1540 453 1540H559Q588 1540 588 1509Z"  />
<glyph unicode="m" horiz-adv-x="1599" d="M131 41L305 1028Q313 1068 350 1077Q487 1110 589 1125T774 1141Q845 1141 902 1120T985 1055Q1079 1097 1176 1120T1350 1143Q1432 1143 1492 1115T1587 1024T1622 862Q1622 807 1610 739L1487 41Q1484 23 1470 12T1440 0H1341Q1307 0 1307 35V41L1434 766Q1440 807 1440 838Q1440 985 1286 985Q1195 985 1030 926Q1034 884 1034 862Q1034 813 1024 750L899 41Q896 24 884 12T856 0H748Q719 0 719 33V41L848 770Q858 832 858 864Q858 934 827 959T727 985Q608 985 471 950L311 41Q308 24 296 12T268 0H160Q131 0 131 33V41Z"  />
<glyph unicode="n" horiz-adv-x="1108" d="M1112 684L997 41Q994 23 980 12T950 0H852Q817 0 817 35V41L936 713Q946 775 946 811Q946 907 898 947T745 987Q620 987 475 950L315 41Q312 24 298 12T268 0H168Q155 0 145 10T135 35V41L309 1028Q316 1066 354 1077Q593 1141 768 1141Q961 1141 1043 1061T1126 831Q1126 758 1112 684Z"  />
<glyph unicode="o" horiz-adv-x="1083" d="M1120 756Q1120 706 1110 641L1083 485Q998 -14 539 -14Q360 -14 261 92T162 373Q162 420 172 485L199 641Q285 1141 741 1141Q832 1141 905 1113T1024 1034T1095 913T1120 756ZM940 758Q940 983 715 983Q583 983 495 892T379 641L352 485Q340 418 340 365Q340 255 393 199T565 143Q652 143 723 186T839 307T903 485L930 641Q940 695 940 758Z"  />
<glyph unicode="p" horiz-adv-x="1075" d="M1114 766Q1114 703 1102 635L1075 487Q1029 227 902 107T541 -14Q424 -14 305 8L240 -362Q237 -378 223 -389T193 -401H88Q59 -401 59 -371V-365V-362L307 1047Q310 1068 321 1078T358 1094Q414 1107 481 1118T615 1135T743 1141Q926 1141 1020 1040T1114 766ZM936 776Q936 845 915 893T845 965T717 989Q673 989 621 986T545 980T473 969L332 158Q392 147 452 142T567 137Q704 137 784 229T895 487L922 635Q936 709 936 776Z"  />
<glyph unicode="q" horiz-adv-x="1075" d="M1139 1061Q1139 1057 1139 1054T1137 1047L889 -362Q882 -401 844 -401H739Q709 -401 709 -371V-365V-362L774 8Q645 -14 530 -14Q353 -14 257 84T160 356Q160 417 172 487L199 635Q230 806 294 917T467 1084T733 1141Q912 1141 1102 1094Q1139 1084 1139 1061ZM942 969Q832 989 707 989Q573 989 492 894T379 635L352 487Q336 399 336 342Q336 290 348 252T386 188T455 150T557 137Q688 137 801 158L942 969Z"  />
<glyph unicode="r" horiz-adv-x="729" d="M754 1143Q836 1143 891 1133Q920 1127 920 1107Q920 1102 918 1090L905 1016Q902 996 893 989T860 981Q790 985 725 985Q598 985 477 954L315 41Q308 0 268 0H168Q135 0 135 39L309 1032Q313 1055 321 1064T356 1081Q444 1110 510 1122T629 1139T754 1143Z"  />
<glyph unicode="s" horiz-adv-x="922" d="M442 139Q551 139 623 181T696 303Q696 353 669 385T569 457L418 543Q351 580 308 621T243 712T221 831Q221 1004 342 1072T647 1141Q742 1141 823 1123T942 1083Q965 1069 965 1055V1047L948 963Q944 932 915 932Q909 932 897 936Q769 987 637 987Q537 987 470 957T403 840Q403 798 429 767T518 700L664 618Q748 569 793 531T858 446T879 324Q879 221 825 145T671 27T440 -14Q362 -14 301 -4T195 20T121 51Q100 65 100 84V98L113 172Q119 203 145 203Q158 203 166 199Q308 139 442 139Z"  />
<glyph unicode="t" horiz-adv-x="735" d="M885 1094V1085L872 1016Q869 998 855 987T825 975H604L477 256Q471 219 471 197Q471 155 491 143T565 131H690Q719 131 719 111V102L707 31Q699 1 664 -4Q596 -14 535 -14Q289 -14 289 180Q289 216 297 260L424 975L229 997Q197 1001 197 1028V1034L207 1090Q214 1126 252 1126H451L483 1327Q489 1361 528 1368L637 1384H643Q668 1384 668 1356V1350L631 1126H852Q867 1126 876 1117T885 1094Z"  />
<glyph unicode="u" horiz-adv-x="1108" d="M201 451L313 1085Q320 1126 360 1126H459Q496 1126 496 1098Q496 1093 492 1073L375 414Q365 349 365 311Q365 219 412 179T563 139Q610 139 693 150T836 176L995 1085Q1003 1126 1042 1126H1143Q1176 1126 1176 1096V1085L1001 98Q993 60 956 49Q698 -14 537 -14Q348 -14 267 67T186 299Q186 377 201 451Z"  />
<glyph unicode="v" horiz-adv-x="1053" d="M1184 1102Q1184 1089 1178 1077L752 147Q709 56 652 21T524 -14Q373 -14 354 147L256 1077V1083Q256 1101 267 1113T295 1126H399Q429 1126 432 1087L504 199Q509 135 543 135Q575 135 602 199L989 1087Q1006 1126 1034 1126H1157Q1184 1126 1184 1102Z"  />
<glyph unicode="w" horiz-adv-x="1577" d="M1708 1092Q1708 1081 1706 1077L1339 127Q1285 -14 1143 -14Q1083 -14 1047 25T1004 139L944 829Q942 844 938 844Q930 844 924 829L623 139Q591 66 541 26T430 -14Q360 -14 323 19T283 127L252 1079Q252 1095 266 1110T299 1126H406Q419 1126 426 1117T434 1094L440 166Q440 141 453 141Q462 141 473 166L811 946Q839 1008 905 1008H1020Q1083 1008 1090 946L1153 166Q1156 141 1165 141Q1178 141 1186 166L1520 1094Q1532 1126 1561 1126H1675Q1691 1126 1699 1117T1708 1092Z"  />
<glyph unicode="x" horiz-adv-x="1087" d="M1200 1106Q1200 1092 1186 1075L748 578L1022 47Q1028 38 1028 27Q1028 0 995 0H881Q854 0 840 29L627 440L256 20Q244 7 237 4T217 0H88Q66 0 66 16Q66 28 82 47L553 584L299 1075Q293 1087 293 1096Q293 1110 303 1118T328 1126H440Q462 1126 477 1098L674 719L1006 1098Q1023 1116 1031 1121T1053 1126H1178Q1200 1126 1200 1106Z"  />
<glyph unicode="y" horiz-adv-x="1061" d="M1196 1100Q1196 1089 1190 1077L643 -102Q564 -274 476 -340T215 -406Q125 -406 47 -387Q8 -375 8 -358V-354L23 -279Q29 -246 68 -246H74Q203 -258 254 -258Q344 -258 394 -223T487 -84L522 0H500Q443 0 410 33T365 160L260 1077V1083Q260 1126 303 1126H410Q434 1126 438 1094L524 205Q528 160 555 160H588L1001 1096Q1008 1110 1020 1118T1047 1126H1167Q1181 1126 1188 1119T1196 1100Z"  />
<glyph unicode="z" horiz-adv-x="922" d="M993 985Q993 914 938 856L297 190Q283 176 283 166Q283 152 303 152H825Q858 152 858 119V111L846 41Q843 23 829 12T799 0H281Q195 0 149 41T102 143Q102 216 150 264L803 942Q815 954 815 963Q815 975 795 975H291Q258 975 258 1010V1016L270 1085Q273 1103 286 1114T317 1126H829Q886 1126 922 1108T976 1057T993 985Z"  />
<glyph unicode="{" horiz-adv-x="645" d="M864 1487V1481L854 1413Q851 1397 836 1385T805 1372H713Q623 1372 593 1346T549 1239L483 874Q463 762 418 688T283 559Q381 472 381 332Q381 283 373 246L309 -115Q303 -148 303 -174Q303 -204 315 -219T355 -241T428 -248H522Q539 -248 547 -257T555 -281V-289L543 -356Q540 -374 526 -385T496 -397H410Q261 -397 190 -348T119 -201Q119 -155 127 -115L190 246Q201 301 201 336Q201 388 181 427T113 502L133 621Q214 671 249 725T301 874L367 1239Q388 1359 426 1419T536 1500T737 1522H831Q847 1522 855 1512T864 1487Z"  />
<glyph unicode="|" horiz-adv-x="477" d="M487 -358Q487 -373 476 -385T451 -397H344Q329 -397 317 -385T305 -358V1483Q305 1498 317 1510T344 1522H451Q465 1522 476 1510T487 1483V-358Z"  />
<glyph unicode="}" horiz-adv-x="645" d="M729 621L709 502Q628 451 593 397T541 246L477 -115Q455 -233 421 -292T317 -374T115 -397H10Q-5 -397 -15 -386T-25 -362V-358V-356L-12 -289Q-9 -272 5 -260T37 -248H131Q192 -248 223 -237T270 -199T295 -115L358 246Q378 358 423 430T559 559Q459 653 459 780Q459 817 469 874L535 1239Q541 1274 541 1298Q541 1328 529 1343T490 1365T416 1372H324Q308 1372 300 1382T291 1407V1413L301 1481Q304 1497 319 1509T350 1522H453Q599 1522 662 1475T725 1327Q725 1283 717 1239L651 874Q641 817 641 784Q641 734 661 697T729 621Z"  />
<glyph unicode="~" horiz-adv-x="1186" d="M1182 956Q1182 868 1159 810T1087 721T954 690Q872 690 797 748L657 858Q645 870 637 874Q598 907 578 918T541 930Q490 930 475 902T459 813V760Q459 740 446 728T414 715H354Q337 715 323 728T309 760V813Q309 946 369 1014T541 1083Q581 1083 622 1068T696 1026Q832 917 870 887Q895 868 917 857T954 846Q1006 846 1019 868T1032 956V1014Q1032 1032 1045 1045T1077 1059H1137Q1150 1059 1160 1053T1176 1037T1182 1014V956Z"  />
<glyph unicode="&#xA0;" horiz-adv-x="1198" />
<glyph unicode="&#xA1;" horiz-adv-x="412" d="M55 -375L260 690Q263 709 272 719T305 729H397Q434 729 434 700L258 -375Q254 -396 245 -405T211 -414H90Q55 -414 55 -387V-375ZM317 1087Q325 1126 362 1126H477Q512 1126 512 1098L477 895Q470 856 430 856H315Q285 856 285 883V895L317 1087Z"  />
<glyph unicode="&#xA2;" horiz-adv-x="1206" d="M709 1135L743 1321Q748 1338 761 1350T791 1362H874Q909 1362 909 1327V1321L874 1137Q998 1124 1071 1079Q1096 1063 1096 1047Q1096 1044 1096 1042T1094 1036L1079 963Q1075 932 1051 932Q1038 932 1028 936Q905 983 786 983Q658 983 581 906T471 643L442 483Q430 410 430 354Q430 248 480 196T639 143Q753 143 897 190Q909 195 920 195Q942 195 942 172Q942 170 938 154L926 90Q923 72 916 65T891 47Q799 2 676 -10L641 -197Q638 -214 624 -226T594 -238H510Q475 -238 475 -203V-197L512 -4Q383 22 319 117T254 362Q254 441 268 518L297 678Q320 816 375 914T513 1066T709 1135Z"  />
<glyph unicode="&#xA3;" horiz-adv-x="1206" d="M973 1362Q892 1362 837 1345T746 1287T687 1182T643 1004L618 870H1059Q1094 870 1094 844Q1094 841 1094 839T1092 834L1077 748Q1070 711 1030 711H592L537 399Q525 330 501 280T422 156H1075Q1112 156 1112 133Q1112 131 1108 115L1094 35Q1091 17 1081 9T1049 0H231Q201 0 201 23V31L215 111Q217 121 244 158Q292 219 314 270T350 399L406 711H299Q268 711 268 737V748L283 834Q290 870 330 870H432L457 1004Q491 1195 550 1305T714 1468T985 1520Q1048 1520 1109 1512T1222 1491T1313 1460Q1339 1450 1339 1430Q1339 1425 1339 1423T1337 1417L1323 1339Q1319 1307 1294 1307Q1292 1307 1276 1311Q1185 1336 1118 1349T973 1362Z"  />
<glyph unicode="&#xA4;" horiz-adv-x="1206" d="M1237 1176Q1237 1159 1223 1145L1055 977Q1122 882 1122 764Q1122 642 1053 547L1221 379Q1235 365 1235 348Q1235 334 1225 324L1169 268Q1159 258 1147 258Q1130 258 1116 272L944 444Q850 377 735 377Q617 377 522 444L354 276Q338 260 322 260Q311 260 301 270L246 328Q236 341 236 350Q236 367 250 381L416 547Q346 641 346 764Q346 881 412 975L246 1141Q231 1156 231 1171Q231 1189 242 1196L299 1251Q310 1262 322 1262Q335 1262 352 1245L516 1081Q614 1151 733 1151Q792 1151 849 1132T950 1081L1118 1249Q1133 1264 1149 1264Q1162 1264 1171 1253L1227 1198Q1237 1188 1237 1176ZM977 764Q977 865 905 936T731 1008Q630 1008 558 937T485 764Q485 714 503 671T558 591T637 537T731 518Q798 518 854 551T943 641T977 764Z"  />
<glyph unicode="&#xA5;" horiz-adv-x="1206" d="M1405 1499Q1405 1484 1395 1470L1065 987H1290Q1307 987 1315 978T1323 954V946L1313 885Q1310 867 1296 856T1266 844H969L815 618L809 575H1219Q1251 575 1251 543V535L1241 473Q1238 457 1223 445T1192 432H782L715 41Q712 23 699 12T670 0H553Q526 0 526 31V41L594 432H182Q168 432 159 441T150 465V473L160 535Q163 551 177 563T209 575H621L627 618L555 844H256Q221 844 221 879V885L231 946Q236 965 249 976T281 987H508L350 1470Q346 1484 346 1489Q346 1504 357 1513T385 1522H506Q527 1522 537 1493L745 799L1200 1493Q1217 1522 1239 1522H1374Q1405 1522 1405 1499Z"  />
<glyph unicode="&#xA6;" horiz-adv-x="477" d="M463 741Q463 726 452 713T426 700H317Q302 700 292 713T281 741V1452Q281 1468 291 1479T317 1491H426Q442 1491 452 1480T463 1452V741ZM463 -391Q463 -408 452 -420T426 -432H317Q302 -432 292 -420T281 -391V319Q281 335 291 346T317 358H426Q442 358 452 347T463 319V-391Z"  />
<glyph unicode="&#xA7;" horiz-adv-x="1087" d="M455 -442Q350 -442 244 -418T84 -369Q55 -356 55 -338V-332L74 -227Q80 -201 100 -201Q111 -201 117 -203Q175 -223 231 -239T349 -264T471 -274Q600 -274 679 -240T791 -143T825 12Q825 52 808 84T755 149T645 231L440 369Q364 422 318 473T252 578T231 694Q231 773 258 846T342 969Q322 1005 313 1044T303 1137Q303 1255 360 1345T530 1485T807 1536Q953 1536 1060 1512T1219 1462Q1247 1452 1247 1432V1425L1229 1321Q1226 1294 1202 1294Q1192 1294 1186 1296Q1101 1326 999 1346T805 1366H797Q647 1366 574 1312T500 1159Q500 1091 535 1046T668 936L868 805Q1000 719 1053 637T1106 461Q1106 280 995 172Q1024 115 1024 27Q1024 -77 993 -162T895 -310T718 -407T455 -442ZM874 301Q888 315 899 357T911 444Q911 500 875 543T743 653L578 766Q565 776 541 793T491 828T449 862Q408 788 408 719Q408 663 442 616T551 520L754 389Q817 348 874 301Z"  />
<glyph unicode="&#xA8;" horiz-adv-x="731" d="M895 1524V1518L864 1352Q861 1335 847 1324T817 1313H737Q722 1313 712 1321T702 1346V1352L733 1518Q736 1532 750 1545T780 1559H860Q874 1559 884 1549T895 1524ZM537 1524V1518L506 1352Q503 1336 489 1325T459 1313H379Q344 1313 344 1346V1352L375 1518Q378 1532 392 1545T422 1559H502Q517 1559 527 1549T537 1524Z"  />
<glyph unicode="&#xA9;" horiz-adv-x="662" d="M379 1241V1257Q379 1354 422 1395T532 1436Q587 1436 627 1415Q641 1408 641 1391V1370Q641 1342 614 1352Q551 1366 532 1366Q455 1366 455 1257V1241Q455 1183 474 1158T532 1133Q549 1133 564 1135T591 1141T614 1147Q641 1157 641 1128V1108Q641 1091 627 1083Q589 1063 532 1063Q466 1063 423 1104T379 1241ZM836 1245Q836 1184 812 1127T746 1029T649 966T532 942Q452 942 382 982T270 1092T229 1245Q229 1326 270 1396T381 1507T532 1548Q612 1548 682 1508T794 1397T836 1245ZM768 1245Q768 1309 737 1363T652 1450T532 1483Q433 1483 365 1413T297 1245Q297 1179 327 1125T411 1040T532 1008Q599 1008 652 1039T736 1124T768 1245Z"  />
<glyph unicode="&#xAA;" horiz-adv-x="586" d="M758 1362Q758 1330 752 1292L686 922Q683 894 662 889Q554 862 455 862Q375 862 326 878T253 927T229 1012Q229 1025 233 1063L236 1077Q249 1176 328 1221T559 1266H625L629 1292Q633 1330 633 1341Q633 1385 612 1403T541 1421Q485 1421 367 1411H362Q340 1411 340 1432V1438L346 1481Q349 1505 383 1509Q478 1528 561 1528Q758 1528 758 1362ZM612 1180H565H547Q483 1179 442 1169T381 1137T354 1077L352 1063Q348 1039 348 1030Q348 993 377 976T473 958Q513 958 573 969L612 1180Z"  />
<glyph unicode="&#xAB;" horiz-adv-x="1225" d="M1194 162Q1194 143 1169 143H1034Q1011 143 995 164L709 510Q696 527 696 567Q704 602 729 625L1137 971Q1160 991 1184 991H1319Q1337 991 1337 973Q1334 956 1321 946L889 567L1188 188Q1194 180 1194 162ZM645 162Q645 143 621 143H485Q462 143 446 164L160 510Q147 527 147 567Q158 604 180 625L588 971Q611 991 635 991H770Q788 991 788 973Q785 956 772 946L340 567L639 188Q645 180 645 162Z"  />
<glyph unicode="&#xAC;" horiz-adv-x="1186" d="M1184 498Q1184 481 1171 469T1143 457H1057Q1040 457 1028 469T1016 498V946H352Q311 946 311 979V1077Q311 1110 352 1110H1149Q1184 1110 1184 1075V498Z"  />
<glyph unicode="&#xAD;" horiz-adv-x="649" d="M670 551Q663 516 625 516H217Q184 516 184 545V551L201 647Q204 663 216 673T246 684H653Q686 684 686 655V647L670 551Z"  />
<glyph unicode="&#xAE;" horiz-adv-x="653" d="M827 1245Q827 1184 803 1127T738 1030T642 966T524 942Q443 942 373 982T262 1092T221 1245Q221 1326 261 1396T372 1507T524 1548Q604 1548 674 1507T785 1397T827 1245ZM760 1245Q760 1306 728 1362T642 1450T524 1483Q425 1483 357 1413T289 1245Q289 1179 319 1125T403 1040T524 1008Q590 1008 643 1039T728 1126T760 1245ZM473 1206V1098Q473 1077 453 1077H416Q397 1077 397 1098V1397Q397 1419 420 1423Q456 1427 516 1427Q662 1427 662 1319Q662 1244 594 1219L664 1104Q671 1094 669 1086T655 1077H604Q593 1077 586 1090L518 1206H473ZM471 1264H508Q553 1264 570 1275T588 1317Q588 1370 508 1370H471V1264Z"  />
<glyph unicode="&#xAF;" horiz-adv-x="979" d="M1279 1654Q1273 1622 1232 1622H179Q145 1622 145 1648V1654L157 1722Q163 1755 204 1755H1257Q1291 1755 1291 1728V1722L1279 1654Z"  />
<glyph unicode="&#xB0;" horiz-adv-x="668" d="M848 1245Q848 1165 809 1099T704 993T557 954Q478 954 411 993T304 1100T264 1245Q264 1322 303 1389T410 1496T557 1536Q637 1536 703 1497T809 1392T848 1245ZM737 1245Q737 1293 713 1334T647 1400T557 1425Q509 1425 468 1401T402 1335T377 1245Q377 1197 401 1156T467 1090T557 1065Q605 1065 646 1089T712 1155T737 1245Z"  />
<glyph unicode="&#xB1;" horiz-adv-x="1186" d="M1159 33Q1159 0 1118 0H268Q227 0 227 33V117Q227 132 239 141T268 150H1118Q1136 150 1147 142T1159 117V33ZM1159 752Q1159 719 1118 719H774V377Q774 336 741 336H643Q628 336 619 347T610 377V719H268Q227 719 227 752V850Q227 865 239 874T268 883H610V1227Q610 1243 619 1255T643 1268H741Q774 1268 774 1227V883H1118Q1136 883 1147 875T1159 850V752Z"  />
<glyph unicode="&#xB2;" horiz-adv-x="666" d="M352 813H707Q718 813 725 809T733 795V788L721 713Q715 688 686 688H227Q203 688 203 713V717L217 799Q238 911 289 981T459 1122L584 1198Q649 1237 671 1267T694 1348Q694 1384 667 1398T575 1413Q499 1413 360 1376Q356 1376 354 1376T350 1374Q336 1374 336 1389V1399L344 1450Q350 1476 371 1485Q492 1536 612 1536Q717 1536 778 1492T840 1360Q840 1273 793 1216T639 1092L520 1018Q462 981 428 951T377 889T352 813Z"  />
<glyph unicode="&#xB3;" horiz-adv-x="659" d="M414 680Q360 680 311 690T219 721Q205 728 205 743V756L213 807Q216 831 236 831Q242 831 246 829Q339 803 430 803Q517 803 559 832T612 924Q621 972 621 981Q621 1067 518 1067H315Q293 1067 293 1087V1094L303 1157Q309 1184 336 1184H535Q610 1184 640 1215T678 1296Q682 1317 682 1331Q682 1413 537 1413Q442 1413 344 1386Q340 1386 338 1386T334 1384Q319 1384 319 1399V1409L328 1460Q333 1485 354 1495Q396 1514 451 1525T573 1536Q691 1536 755 1491T819 1354Q819 1319 813 1286Q804 1232 772 1191T690 1124Q754 1076 754 983Q754 946 745 909Q723 795 636 739T414 680Z"  />
<glyph unicode="&#xB4;" horiz-adv-x="731" d="M944 1583Q944 1575 934 1565L655 1307Q642 1294 636 1288T622 1279T604 1276H494Q477 1276 477 1288Q477 1299 489 1311L735 1565Q759 1587 765 1591T788 1595H924Q944 1595 944 1583Z"  />
<glyph unicode="&#xB5;" horiz-adv-x="1108" d="M1176 1094V1085L1001 90Q995 55 954 43Q791 -14 565 -14Q405 -14 311 45L240 -360Q237 -377 222 -389T190 -401H92Q79 -401 69 -392T59 -369V-360L313 1085Q316 1103 329 1114T360 1126H463Q478 1126 486 1117T494 1094V1085L375 412Q367 371 367 326Q367 230 423 185T592 139Q728 139 834 168L995 1085Q998 1101 1013 1113T1044 1126H1145Q1160 1126 1168 1117T1176 1094Z"  />
<glyph unicode="&#xB6;" horiz-adv-x="1241" d="M1389 1497Q1389 1496 1388 1492T1386 1483L1061 -360Q1058 -377 1046 -388T1020 -399H973Q944 -399 944 -369V-360L1255 1411H1137L825 -360Q818 -399 784 -399H737Q709 -399 709 -369V-360L866 539H666Q543 539 446 584T297 713T244 907Q244 955 252 995L264 1065Q289 1207 367 1311T565 1468T827 1522H1360Q1389 1522 1389 1497Z"  />
<glyph unicode="&#xB7;" horiz-adv-x="406" d="M436 707Q433 688 420 677T391 666H276Q244 666 244 700V707L279 897Q280 912 293 924T324 936H438Q453 936 462 928T471 903V897L436 707Z"  />
<glyph unicode="&#xB8;" horiz-adv-x="717" d="M489 -78Q489 -86 479 -96L201 -354Q178 -375 171 -380T150 -385H39Q23 -385 23 -373Q23 -362 35 -350L279 -96Q298 -77 307 -72T334 -66H469Q489 -66 489 -78Z"  />
<glyph unicode="&#xB9;" horiz-adv-x="545" d="M510 707Q506 680 481 680H389Q371 680 371 702V707L489 1380L336 1317Q324 1313 322 1313Q311 1313 311 1327V1331L328 1417Q329 1426 332 1430T346 1440L506 1507Q539 1522 563 1522H629Q651 1522 651 1507Q651 1501 649 1497L510 707Z"  />
<glyph unicode="&#xBA;" horiz-adv-x="627" d="M805 1317Q805 1272 797 1231L784 1159Q767 1064 726 998T619 897T467 862Q359 862 303 916T246 1075Q246 1118 254 1159L266 1231Q292 1374 374 1451T586 1528Q693 1528 749 1474T805 1317ZM678 1300Q678 1361 651 1390T565 1419Q421 1419 389 1231L377 1159Q371 1123 371 1092Q371 1030 398 1000T485 969Q629 969 659 1159L672 1231Q678 1270 678 1300Z"  />
<glyph unicode="&#xBB;" horiz-adv-x="1225" d="M1282 510L877 164Q851 143 829 143H694Q674 143 674 162Q677 176 692 188L1122 567L825 946Q817 957 817 973Q821 991 844 991H979Q1001 991 1018 971L1303 625Q1317 608 1317 581Q1317 539 1282 510ZM733 510L328 164Q302 143 281 143H145Q125 143 125 162Q128 176 143 188L573 567L276 946Q268 957 268 973Q272 991 295 991H430Q452 991 469 971L754 625Q768 608 768 581Q768 536 733 510Z"  />
<glyph unicode="&#xBC;" horiz-adv-x="1495" d="M1454 1505Q1451 1494 1440 1477L332 35Q316 13 304 3T276 -8H176Q158 -8 158 8V12Q158 21 170 39L1274 1481Q1307 1522 1333 1522H1438Q1454 1522 1454 1511V1505ZM463 707Q459 680 434 680H342Q324 680 324 702V707L442 1380L289 1317Q277 1313 274 1313Q264 1313 264 1327V1331L281 1417Q282 1426 285 1430T299 1440L459 1507Q491 1522 516 1522H582Q604 1522 604 1507Q604 1501 602 1497L463 707ZM1421 236Q1415 209 1386 209H1309L1278 31Q1276 19 1268 10T1247 0H1161Q1139 0 1139 27V31L1169 209H858Q834 209 834 225Q835 227 835 229T836 236L850 324Q852 331 855 342T863 362T872 377L1272 827Q1284 842 1303 842H1393Q1417 842 1417 821V815L1331 326H1409Q1432 326 1432 303V299L1421 236ZM1192 326L1243 627V629Q1243 631 1241 631Q1240 631 1239 630T1235 627L987 342Q983 338 983 332Q983 326 991 326H1192Z"  />
<glyph unicode="&#xBD;" horiz-adv-x="1509" d="M463 707Q459 680 434 680H342Q324 680 324 702V707L442 1380L289 1317Q285 1315 274 1315Q264 1315 264 1325V1327L281 1417Q282 1426 285 1430T299 1440L459 1507Q491 1522 516 1522H582Q604 1522 604 1507Q604 1501 602 1497L463 707ZM1024 125H1378Q1405 125 1405 106V100L1393 25Q1387 0 1358 0H899Q890 0 882 7T874 25V29L889 111Q900 171 916 211T959 290T1027 361T1130 434L1255 510Q1320 549 1343 579T1366 659Q1366 696 1339 710T1247 725Q1171 725 1032 688Q1028 688 1026 688T1022 686Q1008 686 1008 700V711L1016 762Q1019 777 1025 784T1042 797Q1165 848 1284 848Q1352 848 1403 828T1483 769T1511 672Q1511 585 1463 527T1311 403L1192 330Q1134 293 1100 263T1048 200T1024 125ZM1454 1505Q1451 1494 1440 1477L332 35Q316 13 304 3T276 -8H176Q158 -8 158 8V12Q158 21 170 39L1274 1481Q1307 1522 1333 1522H1438Q1454 1522 1454 1511V1505Z"  />
<glyph unicode="&#xBE;" horiz-adv-x="1657" d="M1622 236Q1616 209 1587 209H1509L1479 31Q1477 19 1468 10T1448 0H1362Q1339 0 1339 27V31L1370 209H1059Q1034 209 1034 225Q1035 227 1035 229T1036 236L1051 324Q1053 331 1056 342T1064 362T1073 377L1473 827Q1485 842 1503 842H1593Q1618 842 1618 821V815L1532 326H1610Q1632 326 1632 303V299L1622 236ZM1393 326L1444 627V629Q1444 631 1442 631Q1441 631 1440 630T1436 627L1188 342Q1184 338 1184 332Q1184 326 1192 326H1393ZM1628 1505Q1625 1494 1614 1477L506 35Q490 13 478 3T451 -8H350Q332 -8 332 8V12Q332 21 344 39L1448 1481Q1470 1506 1480 1514T1507 1522H1612Q1628 1522 1628 1511V1505ZM414 680Q360 680 311 690T219 721Q205 728 205 743V756L213 807Q216 831 236 831Q242 831 246 829Q339 803 430 803Q517 803 559 832T612 924Q621 972 621 981Q621 1067 518 1067H315Q293 1067 293 1087V1094L303 1157Q309 1184 336 1184H535Q610 1184 640 1215T678 1296Q682 1317 682 1331Q682 1413 537 1413Q442 1413 344 1386Q340 1386 338 1386T334 1384Q319 1384 319 1399V1409L328 1460Q333 1485 354 1495Q396 1514 451 1525T573 1536Q691 1536 755 1491T819 1354Q819 1319 813 1286Q804 1232 772 1191T690 1124Q754 1076 754 983Q754 946 745 909Q723 795 636 739T414 680Z"  />
<glyph unicode="&#xBF;" horiz-adv-x="881" d="M655 1087Q662 1126 700 1126H817Q854 1126 854 1098Q854 1091 850 1075L819 897Q811 856 770 856H653Q623 856 623 885V897L655 1087ZM455 -248Q603 -248 834 -176Q842 -174 852 -174Q870 -174 870 -193Q870 -195 870 -196T868 -201L852 -299Q848 -321 811 -336Q750 -360 639 -385T426 -410Q260 -410 165 -347T70 -143Q70 -84 82 -38T125 57T197 150T324 274L434 379Q515 455 543 492T580 590L598 690Q602 710 612 719T645 729H735Q770 729 770 700Q770 698 770 696T768 690L750 590Q734 494 695 432T561 281L446 170Q348 75 308 15T268 -123Q268 -191 313 -219T455 -248Z"  />
<glyph unicode="&#xC0;" horiz-adv-x="1264" d="M1227 39Q1227 0 1192 0H1069Q1044 0 1040 31L989 502H459L246 31Q242 19 228 10T203 0H78Q49 0 49 27Q49 39 53 47L668 1380Q708 1467 771 1501T903 1536Q947 1536 984 1523T1049 1475T1083 1382L1227 47V39ZM979 664L911 1337Q908 1374 879 1374Q849 1374 831 1337L526 664H979ZM1061 1645Q1061 1627 1040 1627H930Q915 1627 908 1633T887 1658L702 1916Q696 1925 696 1930Q696 1946 721 1946H856Q884 1946 903 1916L1057 1662Q1061 1656 1061 1645Z"  />
<glyph unicode="&#xC1;" horiz-adv-x="1264" d="M1227 39Q1227 0 1192 0H1069Q1044 0 1040 31L989 502H459L246 31Q242 19 228 10T203 0H78Q49 0 49 27Q49 39 53 47L668 1380Q708 1467 771 1501T903 1536Q947 1536 984 1523T1049 1475T1083 1382L1227 47V39ZM979 664L911 1337Q908 1374 879 1374Q849 1374 831 1337L526 664H979ZM1284 1934Q1284 1926 1274 1916L995 1658Q982 1645 976 1639T962 1630T944 1627H834Q817 1627 817 1639Q817 1650 829 1662L1075 1916Q1099 1938 1105 1942T1128 1946H1264Q1284 1946 1284 1934Z"  />
<glyph unicode="&#xC2;" horiz-adv-x="1264" d="M1227 39Q1227 0 1192 0H1069Q1044 0 1040 31L989 502H459L246 31Q242 19 228 10T203 0H78Q49 0 49 27Q49 39 53 47L668 1380Q708 1467 771 1501T903 1536Q947 1536 984 1523T1049 1475T1083 1382L1227 47V39ZM979 664L911 1337Q908 1374 879 1374Q849 1374 831 1337L526 664H979ZM1274 1645Q1274 1627 1253 1627H1153Q1139 1627 1131 1633T1110 1658L979 1856L772 1658Q752 1638 744 1633T721 1627H608Q592 1627 592 1639Q592 1650 604 1662L846 1916Q876 1946 899 1946H1073Q1101 1946 1120 1916L1270 1662Q1274 1656 1274 1645Z"  />
<glyph unicode="&#xC3;" horiz-adv-x="1264" d="M1227 39Q1227 0 1192 0H1069Q1044 0 1040 31L989 502H459L246 31Q242 19 228 10T203 0H78Q49 0 49 27Q49 39 53 47L668 1380Q708 1467 771 1501T903 1536Q947 1536 984 1523T1049 1475T1083 1382L1227 47V39ZM979 664L911 1337Q908 1374 879 1374Q849 1374 831 1337L526 664H979ZM1335 1884V1878L1327 1831Q1308 1721 1260 1669T1118 1616Q1017 1616 962 1669L866 1759Q837 1788 823 1796T790 1804Q722 1804 708 1710L702 1667Q698 1632 667 1632H598Q571 1632 571 1661V1667L577 1710Q608 1933 790 1933Q837 1933 871 1919T942 1870L1052 1770Q1084 1741 1118 1741Q1150 1741 1168 1761T1196 1831L1204 1878Q1211 1913 1239 1913H1308Q1335 1913 1335 1884Z"  />
<glyph unicode="&#xC4;" horiz-adv-x="1264" d="M1227 39Q1227 0 1192 0H1069Q1044 0 1040 31L989 502H459L246 31Q242 19 228 10T203 0H78Q49 0 49 27Q49 39 53 47L668 1380Q708 1467 771 1501T903 1536Q947 1536 984 1523T1049 1475T1083 1382L1227 47V39ZM979 664L911 1337Q908 1374 879 1374Q849 1374 831 1337L526 664H979ZM1235 1866V1860L1204 1694Q1201 1677 1187 1666T1157 1655H1077Q1062 1655 1052 1663T1042 1688V1694L1073 1860Q1076 1874 1090 1887T1120 1901H1200Q1214 1901 1224 1891T1235 1866ZM877 1866V1860L846 1694Q843 1678 829 1667T799 1655H719Q684 1655 684 1688V1694L715 1860Q718 1874 732 1887T762 1901H842Q857 1901 867 1891T877 1866Z"  />
<glyph unicode="&#xC5;" horiz-adv-x="1264" d="M1227 39Q1227 0 1192 0H1069Q1044 0 1040 31L989 502H459L246 31Q242 19 228 10T203 0H78Q49 0 49 27Q49 39 53 47L668 1380Q708 1467 771 1501T903 1536Q947 1536 984 1523T1049 1475T1083 1382L1227 47V39ZM979 664L911 1337Q908 1374 879 1374Q849 1374 831 1337L526 664H979ZM1145 1798Q1145 1713 1084 1652T938 1591Q881 1591 833 1619T757 1694T729 1798Q729 1855 757 1902T832 1978T938 2007Q996 2007 1042 1979T1117 1903T1145 1798ZM1047 1800Q1047 1845 1015 1875T938 1906Q894 1906 863 1875T832 1800Q832 1756 862 1724T938 1691Q983 1691 1015 1723T1047 1800Z"  />
<glyph unicode="&#xC6;" horiz-adv-x="1726" d="M1894 1499V1493L1876 1384Q1873 1360 1849 1360H1264L1176 870H1743Q1758 870 1767 861T1776 838V829L1763 752Q1760 734 1746 723T1714 711H1147L1087 367Q1077 305 1077 274Q1077 227 1097 201T1165 165T1300 154H1634Q1653 154 1653 135V129L1634 29Q1630 3 1610 0Q1470 -14 1270 -14Q1082 -14 987 57T891 272Q891 312 901 367L924 502H434L221 31Q216 18 203 9T178 0H57Q29 0 29 27Q29 41 33 47L645 1368Q687 1458 742 1490T883 1522H1880Q1894 1522 1894 1499ZM1077 1360H850Q818 1360 803 1325L502 664H952L1077 1360Z"  />
<glyph unicode="&#xC7;" horiz-adv-x="1083" d="M219 653V655L268 938Q309 1172 405 1305T624 1487T889 1536Q967 1536 1038 1522T1163 1489T1249 1450Q1267 1442 1267 1427Q1267 1421 1266 1417L1247 1317Q1242 1287 1208 1298Q1160 1318 1063 1343T893 1368Q769 1368 682 1324T538 1177T451 903L401 621Q387 537 387 463Q387 154 680 154Q752 154 851 177T1020 223Q1026 225 1034 225Q1051 225 1051 210V205L1032 104Q1031 90 1027 85T1008 72Q972 55 910 34T780 0T649 -14Q518 -14 418 32T260 182T201 453Q201 544 219 653ZM748 -78Q748 -85 737 -96L459 -354Q436 -375 429 -380T408 -385H297Q281 -385 281 -373Q281 -362 293 -350L539 -96Q559 -76 567 -71T592 -66H727Q748 -66 748 -78Z"  />
<glyph unicode="&#xC8;" horiz-adv-x="1096" d="M1264 1493V1489L1245 1393Q1242 1368 1219 1368H823Q715 1368 658 1348T574 1283T532 1155L483 870H1112Q1129 870 1137 861T1145 836V829L1133 752Q1130 735 1115 723T1083 711H455L395 367Q385 312 385 283Q385 237 405 209T473 167T608 154H1004Q1022 154 1022 135V129L1004 29Q998 3 979 0Q946 -3 810 -8T578 -14Q399 -14 300 60T201 281Q201 326 209 367L346 1155Q373 1305 435 1387T599 1502T850 1536Q1008 1536 1103 1532T1247 1518Q1264 1515 1264 1493ZM1010 1643Q1010 1625 989 1625H879Q864 1625 857 1631T836 1656L651 1914Q645 1923 645 1928Q645 1944 670 1944H805Q833 1944 852 1914L1006 1660Q1010 1654 1010 1643Z"  />
<glyph unicode="&#xC9;" horiz-adv-x="1096" d="M1264 1493V1489L1245 1393Q1242 1368 1219 1368H823Q715 1368 658 1348T574 1283T532 1155L483 870H1112Q1129 870 1137 861T1145 836V829L1133 752Q1130 735 1115 723T1083 711H455L395 367Q385 312 385 283Q385 237 405 209T473 167T608 154H1004Q1022 154 1022 135V129L1004 29Q998 3 979 0Q946 -3 810 -8T578 -14Q399 -14 300 60T201 281Q201 326 209 367L346 1155Q373 1305 435 1387T599 1502T850 1536Q1008 1536 1103 1532T1247 1518Q1264 1515 1264 1493ZM1237 1934Q1237 1926 1227 1916L948 1658Q935 1645 929 1639T915 1630T897 1627H787Q770 1627 770 1639Q770 1650 782 1662L1028 1916Q1052 1938 1058 1942T1081 1946H1217Q1237 1946 1237 1934Z"  />
<glyph unicode="&#xCA;" horiz-adv-x="1096" d="M1264 1493V1489L1245 1393Q1242 1368 1219 1368H823Q715 1368 658 1348T574 1283T532 1155L483 870H1112Q1129 870 1137 861T1145 836V829L1133 752Q1130 735 1115 723T1083 711H455L395 367Q385 312 385 283Q385 237 405 209T473 167T608 154H1004Q1022 154 1022 135V129L1004 29Q998 3 979 0Q946 -3 810 -8T578 -14Q399 -14 300 60T201 281Q201 326 209 367L346 1155Q373 1305 435 1387T599 1502T850 1536Q1008 1536 1103 1532T1247 1518Q1264 1515 1264 1493ZM1208 1645Q1208 1627 1187 1627H1087Q1073 1627 1065 1633T1044 1658L913 1856L706 1658Q686 1638 678 1633T655 1627H542Q526 1627 526 1639Q526 1650 538 1662L780 1916Q810 1946 833 1946H1007Q1035 1946 1054 1916L1204 1662Q1208 1656 1208 1645Z"  />
<glyph unicode="&#xCB;" horiz-adv-x="1096" d="M1264 1493V1489L1245 1393Q1242 1368 1219 1368H823Q715 1368 658 1348T574 1283T532 1155L483 870H1112Q1129 870 1137 861T1145 836V829L1133 752Q1130 735 1115 723T1083 711H455L395 367Q385 312 385 283Q385 237 405 209T473 167T608 154H1004Q1022 154 1022 135V129L1004 29Q998 3 979 0Q946 -3 810 -8T578 -14Q399 -14 300 60T201 281Q201 326 209 367L346 1155Q373 1305 435 1387T599 1502T850 1536Q1008 1536 1103 1532T1247 1518Q1264 1515 1264 1493ZM1182 1870V1864L1151 1698Q1148 1681 1134 1670T1104 1659H1024Q1009 1659 999 1667T989 1692V1698L1020 1864Q1023 1878 1037 1891T1067 1905H1147Q1161 1905 1171 1895T1182 1870ZM824 1870V1864L793 1698Q790 1682 776 1671T746 1659H666Q631 1659 631 1692V1698L662 1864Q665 1878 679 1891T709 1905H789Q804 1905 814 1895T824 1870Z"  />
<glyph unicode="&#xCC;" horiz-adv-x="514" d="M612 1491V1483L358 41Q354 23 342 12T313 0H201Q172 0 172 33V41L426 1483Q434 1522 469 1522H582Q596 1522 604 1513T612 1491ZM674 1645Q674 1627 653 1627H543Q528 1627 521 1633T500 1658L315 1916Q309 1925 309 1930Q309 1946 334 1946H469Q497 1946 516 1916L670 1662Q674 1656 674 1645Z"  />
<glyph unicode="&#xCD;" horiz-adv-x="514" d="M612 1491V1483L358 41Q354 23 342 12T313 0H201Q172 0 172 33V41L426 1483Q434 1522 469 1522H582Q596 1522 604 1513T612 1491ZM870 1934Q870 1926 860 1916L581 1658Q568 1645 562 1639T548 1630T530 1627H420Q403 1627 403 1639Q403 1650 415 1662L661 1916Q685 1938 691 1942T714 1946H850Q870 1946 870 1934Z"  />
<glyph unicode="&#xCE;" horiz-adv-x="514" d="M612 1491V1483L358 41Q354 23 342 12T313 0H201Q172 0 172 33V41L426 1483Q434 1522 469 1522H582Q596 1522 604 1513T612 1491ZM883 1645Q883 1627 862 1627H762Q748 1627 740 1633T719 1658L588 1856L381 1658Q361 1638 353 1633T330 1627H217Q201 1627 201 1639Q201 1650 213 1662L455 1916Q485 1946 508 1946H682Q710 1946 729 1916L879 1662Q883 1656 883 1645Z"  />
<glyph unicode="&#xCF;" horiz-adv-x="514" d="M612 1491V1483L358 41Q354 23 342 12T313 0H201Q172 0 172 33V41L426 1483Q434 1522 469 1522H582Q596 1522 604 1513T612 1491ZM840 1868V1862L809 1696Q806 1679 792 1668T762 1657H682Q667 1657 657 1665T647 1690V1696L678 1862Q681 1876 695 1889T725 1903H805Q819 1903 829 1893T840 1868ZM482 1868V1862L451 1696Q448 1680 434 1669T404 1657H324Q289 1657 289 1690V1696L320 1862Q323 1876 337 1889T367 1903H447Q462 1903 472 1893T482 1868Z"  />
<glyph unicode="&#xD0;" horiz-adv-x="1280" d="M1352 1071Q1352 995 1335 899Q1324 830 1314 773T1288 623Q1252 410 1152 267T900 55T555 -14Q306 -14 186 6Q172 8 160 20Q150 32 150 45Q151 48 151 50T152 57Q181 221 204 357T266 711H188Q156 711 156 745V752Q160 778 162 794T168 829Q171 846 185 858T217 870H295Q380 1351 399 1464Q410 1508 451 1516Q493 1522 537 1525T665 1532T827 1536Q1078 1536 1215 1421T1352 1071ZM1163 1047Q1163 1226 1067 1301T799 1376Q673 1376 571 1370Q564 1327 551 1251T518 1067T483 870H694Q711 870 719 861T727 836V829Q724 810 722 794T715 752Q712 735 697 723T666 711H455Q439 618 420 509T387 321T356 150Q422 145 584 145Q786 145 921 253T1102 623Q1118 715 1127 772T1149 899Q1163 976 1163 1047Z"  />
<glyph unicode="&#xD1;" horiz-adv-x="1360" d="M1479 1491V1483L1227 59Q1222 34 1202 17T1157 0H1038Q992 0 979 33L549 1235L545 1241Q541 1241 541 1235L330 39Q327 23 315 12T287 0H180Q147 0 147 18V25L401 1464Q407 1489 426 1505T471 1522H571Q612 1522 625 1514T647 1481L1077 285L1079 279H1083L1085 285L1296 1483Q1299 1498 1312 1510T1339 1522H1448Q1479 1522 1479 1491ZM1356 1880V1874L1348 1827Q1329 1717 1281 1665T1139 1612Q1038 1612 983 1665L887 1755Q858 1784 844 1792T811 1800Q743 1800 729 1706L723 1663Q719 1628 688 1628H619Q592 1628 592 1657V1663L598 1706Q629 1929 811 1929Q858 1929 892 1915T963 1866L1073 1766Q1105 1737 1139 1737Q1171 1737 1189 1757T1217 1827L1225 1874Q1232 1909 1260 1909H1329Q1356 1909 1356 1880Z"  />
<glyph unicode="&#xD2;" horiz-adv-x="1321" d="M1386 1065Q1386 991 1370 893L1323 629Q1293 461 1235 339T1092 139T898 24T657 -14Q512 -14 409 46T253 216T201 471Q201 551 215 629L262 893Q294 1072 355 1195T504 1394T698 1503T930 1536Q1067 1536 1170 1482T1329 1322T1386 1065ZM1198 1063Q1198 1225 1123 1296T901 1368Q727 1368 611 1252T451 893L403 629Q389 551 389 473Q389 154 686 154Q779 154 852 182T980 268T1073 414T1135 629L1182 893Q1198 977 1198 1063ZM1086 1645Q1086 1627 1065 1627H955Q940 1627 933 1633T912 1658L727 1916Q721 1925 721 1930Q721 1946 746 1946H881Q909 1946 928 1916L1082 1662Q1086 1656 1086 1645Z"  />
<glyph unicode="&#xD3;" horiz-adv-x="1321" d="M1386 1065Q1386 991 1370 893L1323 629Q1293 461 1235 339T1092 139T898 24T657 -14Q512 -14 409 46T253 216T201 471Q201 551 215 629L262 893Q294 1072 355 1195T504 1394T698 1503T930 1536Q1067 1536 1170 1482T1329 1322T1386 1065ZM1198 1063Q1198 1225 1123 1296T901 1368Q727 1368 611 1252T451 893L403 629Q389 551 389 473Q389 154 686 154Q779 154 852 182T980 268T1073 414T1135 629L1182 893Q1198 977 1198 1063ZM1260 1934Q1260 1926 1250 1916L971 1658Q958 1645 952 1639T938 1630T920 1627H810Q793 1627 793 1639Q793 1650 805 1662L1051 1916Q1075 1938 1081 1942T1104 1946H1240Q1260 1946 1260 1934Z"  />
<glyph unicode="&#xD4;" horiz-adv-x="1321" d="M1386 1065Q1386 991 1370 893L1323 629Q1293 461 1235 339T1092 139T898 24T657 -14Q512 -14 409 46T253 216T201 471Q201 551 215 629L262 893Q294 1072 355 1195T504 1394T698 1503T930 1536Q1067 1536 1170 1482T1329 1322T1386 1065ZM1198 1063Q1198 1225 1123 1296T901 1368Q727 1368 611 1252T451 893L403 629Q389 551 389 473Q389 154 686 154Q779 154 852 182T980 268T1073 414T1135 629L1182 893Q1198 977 1198 1063ZM1292 1647Q1292 1629 1271 1629H1171Q1157 1629 1149 1635T1128 1660L997 1858L790 1660Q770 1640 762 1635T739 1629H626Q610 1629 610 1641Q610 1652 622 1664L864 1918Q894 1948 917 1948H1091Q1119 1948 1138 1918L1288 1664Q1292 1658 1292 1647Z"  />
<glyph unicode="&#xD5;" horiz-adv-x="1321" d="M1386 1065Q1386 991 1370 893L1323 629Q1293 461 1235 339T1092 139T898 24T657 -14Q512 -14 409 46T253 216T201 471Q201 551 215 629L262 893Q294 1072 355 1195T504 1394T698 1503T930 1536Q1067 1536 1170 1482T1329 1322T1386 1065ZM1198 1063Q1198 1225 1123 1296T901 1368Q727 1368 611 1252T451 893L403 629Q389 551 389 473Q389 154 686 154Q779 154 852 182T980 268T1073 414T1135 629L1182 893Q1198 977 1198 1063ZM1362 1884V1878L1354 1831Q1335 1721 1287 1669T1145 1616Q1044 1616 989 1669L893 1759Q864 1788 850 1796T817 1804Q749 1804 735 1710L729 1667Q725 1632 694 1632H625Q598 1632 598 1661V1667L604 1710Q635 1933 817 1933Q864 1933 898 1919T969 1870L1079 1770Q1111 1741 1145 1741Q1177 1741 1195 1761T1223 1831L1231 1878Q1238 1913 1266 1913H1335Q1362 1913 1362 1884Z"  />
<glyph unicode="&#xD6;" horiz-adv-x="1321" d="M1386 1065Q1386 991 1370 893L1323 629Q1293 461 1235 339T1092 139T898 24T657 -14Q512 -14 409 46T253 216T201 471Q201 551 215 629L262 893Q294 1072 355 1195T504 1394T698 1503T930 1536Q1067 1536 1170 1482T1329 1322T1386 1065ZM1198 1063Q1198 1225 1123 1296T901 1368Q727 1368 611 1252T451 893L403 629Q389 551 389 473Q389 154 686 154Q779 154 852 182T980 268T1073 414T1135 629L1182 893Q1198 977 1198 1063ZM1251 1870V1864L1220 1698Q1217 1681 1203 1670T1173 1659H1093Q1078 1659 1068 1667T1058 1692V1698L1089 1864Q1092 1878 1106 1891T1136 1905H1216Q1230 1905 1240 1895T1251 1870ZM893 1870V1864L862 1698Q859 1682 845 1671T815 1659H735Q700 1659 700 1692V1698L731 1864Q734 1878 748 1891T778 1905H858Q873 1905 883 1895T893 1870Z"  />
<glyph unicode="&#xD7;" horiz-adv-x="1186" d="M1028 420L766 684L504 420Q487 406 473 406Q461 406 451 416L383 483Q373 493 373 506Q373 518 387 537L649 801L391 1067Q377 1085 377 1098Q377 1110 387 1120L455 1188Q465 1198 477 1198Q491 1198 508 1184L766 918L1024 1184Q1042 1198 1055 1198Q1067 1198 1077 1188L1145 1120Q1155 1110 1155 1098Q1155 1085 1141 1067L883 801L1145 537Q1159 518 1159 506Q1159 493 1149 483L1081 416Q1071 406 1059 406Q1046 406 1028 420Z"  />
<glyph unicode="&#xD8;" horiz-adv-x="1321" d="M1552 1520Q1552 1507 1542 1497L1350 1282Q1389 1183 1389 1065Q1389 997 1372 893L1325 629Q1295 461 1237 339T1094 139T900 24T659 -14Q553 -14 463 19T313 119L211 6Q194 -14 170 -14H61Q43 -14 43 4Q43 16 51 25L240 236Q201 331 201 457Q201 530 217 629L264 893Q296 1072 357 1195T506 1394T700 1503T932 1536Q1041 1536 1129 1501T1278 1399L1382 1516Q1401 1536 1427 1536H1534Q1552 1536 1552 1520ZM1153 1260Q1084 1368 903 1368Q729 1368 613 1252T453 893L406 629Q391 550 391 473Q391 450 395 410L1153 1260ZM1200 1063Q1200 1096 1198 1112L440 262Q508 154 688 154Q861 154 977 270T1137 629L1184 893Q1200 977 1200 1063Z"  />
<glyph unicode="&#xD9;" horiz-adv-x="1323" d="M1448 1489V1483L1284 553Q1231 255 1079 121T659 -14Q454 -14 338 92T221 403Q221 481 236 553L399 1483Q402 1499 415 1510T444 1522H555Q569 1522 578 1513T588 1489V1483L424 553Q408 465 408 406Q408 320 436 262T527 175T688 145Q783 145 851 170T969 249T1049 379T1096 553L1260 1483Q1263 1498 1276 1510T1305 1522H1415Q1431 1522 1439 1513T1448 1489ZM1072 1645Q1072 1627 1051 1627H941Q926 1627 919 1633T898 1658L713 1916Q707 1925 707 1930Q707 1946 732 1946H867Q895 1946 914 1916L1068 1662Q1072 1656 1072 1645Z"  />
<glyph unicode="&#xDA;" horiz-adv-x="1323" d="M1448 1489V1483L1284 553Q1231 255 1079 121T659 -14Q454 -14 338 92T221 403Q221 481 236 553L399 1483Q402 1499 415 1510T444 1522H555Q569 1522 578 1513T588 1489V1483L424 553Q408 465 408 406Q408 320 436 262T527 175T688 145Q783 145 851 170T969 249T1049 379T1096 553L1260 1483Q1263 1498 1276 1510T1305 1522H1415Q1431 1522 1439 1513T1448 1489ZM1294 1934Q1294 1926 1284 1916L1005 1658Q992 1645 986 1639T972 1630T954 1627H844Q827 1627 827 1639Q827 1650 839 1662L1085 1916Q1109 1938 1115 1942T1138 1946H1274Q1294 1946 1294 1934Z"  />
<glyph unicode="&#xDB;" horiz-adv-x="1323" d="M1448 1489V1483L1284 553Q1231 255 1079 121T659 -14Q454 -14 338 92T221 403Q221 481 236 553L399 1483Q402 1499 415 1510T444 1522H555Q569 1522 578 1513T588 1489V1483L424 553Q408 465 408 406Q408 320 436 262T527 175T688 145Q783 145 851 170T969 249T1049 379T1096 553L1260 1483Q1263 1498 1276 1510T1305 1522H1415Q1431 1522 1439 1513T1448 1489ZM1280 1645Q1280 1627 1259 1627H1159Q1145 1627 1137 1633T1116 1658L985 1856L778 1658Q758 1638 750 1633T727 1627H614Q598 1627 598 1639Q598 1650 610 1662L852 1916Q882 1946 905 1946H1079Q1107 1946 1126 1916L1276 1662Q1280 1656 1280 1645Z"  />
<glyph unicode="&#xDC;" horiz-adv-x="1323" d="M1448 1489V1483L1284 553Q1231 255 1079 121T659 -14Q454 -14 338 92T221 403Q221 481 236 553L399 1483Q402 1499 415 1510T444 1522H555Q569 1522 578 1513T588 1489V1483L424 553Q408 465 408 406Q408 320 436 262T527 175T688 145Q783 145 851 170T969 249T1049 379T1096 553L1260 1483Q1263 1498 1276 1510T1305 1522H1415Q1431 1522 1439 1513T1448 1489ZM1237 1870V1864L1206 1698Q1203 1681 1189 1670T1159 1659H1079Q1064 1659 1054 1667T1044 1692V1698L1075 1864Q1078 1878 1092 1891T1122 1905H1202Q1216 1905 1226 1895T1237 1870ZM879 1870V1864L848 1698Q845 1682 831 1671T801 1659H721Q686 1659 686 1692V1698L717 1864Q720 1878 734 1891T764 1905H844Q859 1905 869 1895T879 1870Z"  />
<glyph unicode="&#xDD;" horiz-adv-x="1161" d="M1370 1497Q1370 1488 1360 1470L915 758Q847 648 782 623L680 41Q677 24 664 12T635 0H522Q494 0 494 33V41L596 623Q538 646 508 758L319 1470Q317 1477 317 1485Q317 1522 356 1522H475Q484 1522 494 1513T508 1493L672 829Q686 776 711 776Q733 776 766 829L1169 1493Q1188 1522 1208 1522H1339Q1370 1522 1370 1497ZM1221 1934Q1221 1926 1211 1916L932 1658Q919 1645 913 1639T899 1630T881 1627H771Q754 1627 754 1639Q754 1650 766 1662L1012 1916Q1036 1938 1042 1942T1065 1946H1201Q1221 1946 1221 1934Z"  />
<glyph unicode="&#xDE;" horiz-adv-x="1182" d="M1272 1004Q1272 937 1264 901Q1262 889 1257 872Q1231 748 1180 660T1050 518T862 437T600 410Q484 410 397 416Q381 323 369 250T332 41Q331 31 324 21T308 6T289 0H174Q162 0 154 9T145 33V39V41Q187 281 217 451T295 892T399 1483Q402 1498 415 1510T442 1522H557Q570 1522 578 1513T586 1491V1485V1483Q582 1460 574 1421T559 1341Q582 1342 614 1343T687 1346T758 1348Q913 1348 1028 1312T1208 1199T1272 1004ZM1081 981Q1081 1094 995 1140T733 1186Q578 1186 532 1182Q523 1123 508 1039T482 892T458 753T426 575Q567 569 629 569Q1005 569 1069 872Q1071 882 1072 888T1075 901Q1081 930 1081 979V981Z"  />
<glyph unicode="&#xDF;" horiz-adv-x="1157" d="M1239 1227Q1239 1079 1167 970T956 807Q1047 771 1098 690T1149 514Q1149 388 1107 290T987 125T803 22T575 -14Q539 -14 477 -8Q444 -5 444 25V29V31L459 115Q462 137 485 137Q516 137 534 137T573 135Q698 135 786 177T921 304T967 516Q967 615 898 673T692 731H616Q603 731 593 740T582 764V772L594 831Q597 849 610 860T641 872H717Q876 872 967 963T1059 1212Q1059 1395 827 1395Q733 1395 663 1359T550 1247T485 1053L307 43Q304 25 292 13T262 0H154Q125 0 125 35V43L303 1053Q350 1315 488 1433T856 1552Q969 1552 1055 1515T1190 1404T1239 1227Z"  />
<glyph unicode="&#xE0;" horiz-adv-x="1047" d="M922 78Q916 41 883 33Q801 11 716 -1T528 -14Q135 -14 135 262Q135 309 147 371Q162 456 198 513T301 607T462 658T696 674H848L862 756Q870 796 870 838Q870 918 827 950T682 983Q589 983 522 971T360 932Q348 928 342 928Q317 928 317 952V958L332 1038Q336 1063 367 1075Q418 1096 514 1118T711 1141Q887 1141 968 1065T1049 846Q1049 805 1038 733L922 78ZM754 145L823 543H672Q550 543 479 524T374 462T326 344Q317 291 317 262Q317 190 369 159T553 127Q675 127 754 145ZM908 1294Q908 1276 887 1276H777Q762 1276 755 1282T734 1307L549 1565Q543 1574 543 1579Q543 1595 568 1595H703Q731 1595 750 1565L904 1311Q908 1305 908 1294Z"  />
<glyph unicode="&#xE1;" horiz-adv-x="1047" d="M922 78Q916 41 883 33Q801 11 716 -1T528 -14Q135 -14 135 262Q135 309 147 371Q162 456 198 513T301 607T462 658T696 674H848L862 756Q870 796 870 838Q870 918 827 950T682 983Q589 983 522 971T360 932Q348 928 342 928Q317 928 317 952V958L332 1038Q336 1063 367 1075Q418 1096 514 1118T711 1141Q887 1141 968 1065T1049 846Q1049 805 1038 733L922 78ZM754 145L823 543H672Q550 543 479 524T374 462T326 344Q317 291 317 262Q317 190 369 159T553 127Q675 127 754 145ZM1129 1583Q1129 1575 1119 1565L840 1307Q827 1294 821 1288T807 1279T789 1276H679Q662 1276 662 1288Q662 1299 674 1311L920 1565Q944 1587 950 1591T973 1595H1109Q1129 1595 1129 1583Z"  />
<glyph unicode="&#xE2;" horiz-adv-x="1047" d="M922 78Q916 41 883 33Q801 11 716 -1T528 -14Q135 -14 135 262Q135 309 147 371Q162 456 198 513T301 607T462 658T696 674H848L862 756Q870 796 870 838Q870 918 827 950T682 983Q589 983 522 971T360 932Q348 928 342 928Q317 928 317 952V958L332 1038Q336 1063 367 1075Q418 1096 514 1118T711 1141Q887 1141 968 1065T1049 846Q1049 805 1038 733L922 78ZM754 145L823 543H672Q550 543 479 524T374 462T326 344Q317 291 317 262Q317 190 369 159T553 127Q675 127 754 145ZM1114 1294Q1114 1276 1093 1276H993Q979 1276 971 1282T950 1307L819 1505L612 1307Q592 1287 584 1282T561 1276H448Q432 1276 432 1288Q432 1299 444 1311L686 1565Q716 1595 739 1595H913Q941 1595 960 1565L1110 1311Q1114 1305 1114 1294Z"  />
<glyph unicode="&#xE3;" horiz-adv-x="1047" d="M922 78Q916 41 883 33Q801 11 716 -1T528 -14Q135 -14 135 262Q135 309 147 371Q162 456 198 513T301 607T462 658T696 674H848L862 756Q870 796 870 838Q870 918 827 950T682 983Q589 983 522 971T360 932Q348 928 342 928Q317 928 317 952V958L332 1038Q336 1063 367 1075Q418 1096 514 1118T711 1141Q887 1141 968 1065T1049 846Q1049 805 1038 733L922 78ZM754 145L823 543H672Q550 543 479 524T374 462T326 344Q317 291 317 262Q317 190 369 159T553 127Q675 127 754 145ZM1171 1550V1544L1163 1497Q1144 1387 1096 1335T954 1282Q853 1282 798 1335L702 1425Q673 1454 659 1462T626 1470Q558 1470 544 1376L538 1333Q534 1298 503 1298H434Q407 1298 407 1327V1333L413 1376Q444 1599 626 1599Q673 1599 707 1585T778 1536L888 1436Q920 1407 954 1407Q986 1407 1004 1427T1032 1497L1040 1544Q1047 1579 1075 1579H1144Q1171 1579 1171 1550Z"  />
<glyph unicode="&#xE4;" horiz-adv-x="1047" d="M922 78Q916 41 883 33Q801 11 716 -1T528 -14Q135 -14 135 262Q135 309 147 371Q162 456 198 513T301 607T462 658T696 674H848L862 756Q870 796 870 838Q870 918 827 950T682 983Q589 983 522 971T360 932Q348 928 342 928Q317 928 317 952V958L332 1038Q336 1063 367 1075Q418 1096 514 1118T711 1141Q887 1141 968 1065T1049 846Q1049 805 1038 733L922 78ZM754 145L823 543H672Q550 543 479 524T374 462T326 344Q317 291 317 262Q317 190 369 159T553 127Q675 127 754 145ZM1069 1524V1518L1038 1352Q1035 1335 1021 1324T991 1313H911Q896 1313 886 1321T876 1346V1352L907 1518Q910 1532 924 1545T954 1559H1034Q1048 1559 1058 1549T1069 1524ZM711 1524V1518L680 1352Q677 1336 663 1325T633 1313H553Q518 1313 518 1346V1352L549 1518Q552 1532 566 1545T596 1559H676Q691 1559 701 1549T711 1524Z"  />
<glyph unicode="&#xE5;" horiz-adv-x="1047" d="M922 78Q916 41 883 33Q801 11 716 -1T528 -14Q135 -14 135 262Q135 309 147 371Q162 456 198 513T301 607T462 658T696 674H848L862 756Q870 796 870 838Q870 918 827 950T682 983Q589 983 522 971T360 932Q348 928 342 928Q317 928 317 952V958L332 1038Q336 1063 367 1075Q418 1096 514 1118T711 1141Q887 1141 968 1065T1049 846Q1049 805 1038 733L922 78ZM754 145L823 543H672Q550 543 479 524T374 462T326 344Q317 291 317 262Q317 190 369 159T553 127Q675 127 754 145ZM1016 1440Q1016 1355 955 1294T809 1233Q752 1233 704 1261T628 1336T600 1440Q600 1497 628 1544T703 1620T809 1649Q867 1649 913 1621T988 1545T1016 1440ZM918 1442Q918 1487 886 1517T809 1548Q765 1548 734 1517T703 1442Q703 1398 733 1366T809 1333Q854 1333 886 1365T918 1442Z"  />
<glyph unicode="&#xE6;" horiz-adv-x="1714" d="M1577 770Q1577 884 1523 936T1356 989Q1225 989 1139 900T1020 643H1565Q1577 701 1577 770ZM825 543H672Q533 543 458 519T351 441T319 295Q319 205 363 167T512 129Q583 129 653 148T764 193L825 543ZM1182 -16Q1076 -16 1002 12T874 106Q796 53 686 19T469 -16Q324 -16 231 62T137 291Q137 492 270 582T684 672H848L862 754Q870 797 870 842Q870 923 828 954T682 985Q592 985 528 972T358 930Q335 923 324 931T315 956L330 1036Q334 1061 365 1073Q416 1094 512 1116T709 1139Q794 1139 852 1123T949 1075T1012 993Q1061 1046 1117 1079T1238 1125T1382 1139Q1502 1139 1585 1089T1709 951T1749 752Q1749 636 1722 549Q1709 504 1679 504H997L985 438Q975 376 975 338Q975 224 1034 183T1210 141Q1291 141 1387 167T1589 231Q1613 241 1624 233T1632 205L1618 121Q1615 101 1607 93T1579 76Q1544 59 1483 38T1343 0T1182 -16Z"  />
<glyph unicode="&#xE7;" horiz-adv-x="893" d="M518 -14Q338 -14 250 86T162 362Q162 441 176 518L205 678Q248 918 374 1029T709 1141Q803 1141 874 1121T979 1079Q1004 1063 1004 1047Q1004 1046 1003 1043T1001 1036L987 963Q983 932 958 932Q946 932 936 936Q813 983 694 983Q608 983 547 951T443 843T379 643L350 483Q338 410 338 354Q338 246 388 195T547 143Q661 143 805 190Q813 195 827 195Q848 195 848 172Q848 160 846 154L834 90Q831 74 824 66T799 47Q756 26 680 6T518 -14ZM623 -78Q623 -86 612 -96L334 -354Q311 -375 304 -380T283 -385H172Q156 -385 156 -373Q156 -362 168 -350L414 -96Q434 -76 442 -71T467 -66H602Q623 -66 623 -78Z"  />
<glyph unicode="&#xE8;" horiz-adv-x="1081" d="M588 143Q638 143 686 152T796 181T881 209T950 233Q958 238 971 238Q993 238 993 215V207L979 123Q976 103 968 95T940 78Q877 50 773 18T567 -14Q384 -14 274 80T164 373Q164 433 176 506L207 690Q226 803 270 888T379 1028T530 1112T723 1141Q923 1141 1018 1045T1114 786Q1114 702 1090 551Q1082 506 1042 506H356L352 477Q340 413 340 362Q340 245 399 194T588 143ZM381 643H924Q936 717 936 774Q936 883 882 933T715 983Q643 983 589 964T494 905T426 799T381 643ZM865 1294Q865 1276 844 1276H734Q719 1276 712 1282T691 1307L506 1565Q500 1574 500 1579Q500 1595 525 1595H660Q688 1595 707 1565L861 1311Q865 1305 865 1294Z"  />
<glyph unicode="&#xE9;" horiz-adv-x="1081" d="M588 143Q638 143 686 152T796 181T881 209T950 233Q958 238 971 238Q993 238 993 215V207L979 123Q976 103 968 95T940 78Q877 50 773 18T567 -14Q384 -14 274 80T164 373Q164 433 176 506L207 690Q226 803 270 888T379 1028T530 1112T723 1141Q923 1141 1018 1045T1114 786Q1114 702 1090 551Q1082 506 1042 506H356L352 477Q340 413 340 362Q340 245 399 194T588 143ZM381 643H924Q936 717 936 774Q936 883 882 933T715 983Q643 983 589 964T494 905T426 799T381 643ZM1153 1583Q1153 1575 1143 1565L864 1307Q851 1294 845 1288T831 1279T813 1276H703Q686 1276 686 1288Q686 1299 698 1311L944 1565Q968 1587 974 1591T997 1595H1133Q1153 1595 1153 1583Z"  />
<glyph unicode="&#xEA;" horiz-adv-x="1081" d="M588 143Q638 143 686 152T796 181T881 209T950 233Q958 238 971 238Q993 238 993 215V207L979 123Q976 103 968 95T940 78Q877 50 773 18T567 -14Q384 -14 274 80T164 373Q164 433 176 506L207 690Q226 803 270 888T379 1028T530 1112T723 1141Q923 1141 1018 1045T1114 786Q1114 702 1090 551Q1082 506 1042 506H356L352 477Q340 413 340 362Q340 245 399 194T588 143ZM381 643H924Q936 717 936 774Q936 883 882 933T715 983Q643 983 589 964T494 905T426 799T381 643ZM1114 1294Q1114 1276 1093 1276H993Q979 1276 971 1282T950 1307L819 1505L612 1307Q592 1287 584 1282T561 1276H448Q432 1276 432 1288Q432 1299 444 1311L686 1565Q716 1595 739 1595H913Q941 1595 960 1565L1110 1311Q1114 1305 1114 1294Z"  />
<glyph unicode="&#xEB;" horiz-adv-x="1081" d="M588 143Q638 143 686 152T796 181T881 209T950 233Q958 238 971 238Q993 238 993 215V207L979 123Q976 103 968 95T940 78Q877 50 773 18T567 -14Q384 -14 274 80T164 373Q164 433 176 506L207 690Q226 803 270 888T379 1028T530 1112T723 1141Q923 1141 1018 1045T1114 786Q1114 702 1090 551Q1082 506 1042 506H356L352 477Q340 413 340 362Q340 245 399 194T588 143ZM381 643H924Q936 717 936 774Q936 883 882 933T715 983Q643 983 589 964T494 905T426 799T381 643ZM1079 1524V1518L1048 1352Q1045 1335 1031 1324T1001 1313H921Q906 1313 896 1321T886 1346V1352L917 1518Q920 1532 934 1545T964 1559H1044Q1058 1559 1068 1549T1079 1524ZM721 1524V1518L690 1352Q687 1336 673 1325T643 1313H563Q528 1313 528 1346V1352L559 1518Q562 1532 576 1545T606 1559H686Q701 1559 711 1549T721 1524Z"  />
<glyph unicode="&#xEC;" horiz-adv-x="473" d="M516 1094V1085L334 41Q331 24 316 12T285 0H186Q172 0 163 9T154 33V41L336 1085Q339 1102 353 1114T385 1126H483Q516 1126 516 1094ZM592 1294Q592 1276 571 1276H461Q446 1276 439 1282T418 1307L233 1565Q227 1574 227 1579Q227 1595 252 1595H387Q415 1595 434 1565L588 1311Q592 1305 592 1294Z"  />
<glyph unicode="&#xED;" horiz-adv-x="473" d="M516 1094V1085L334 41Q331 24 316 12T285 0H186Q172 0 163 9T154 33V41L336 1085Q339 1102 353 1114T385 1126H483Q516 1126 516 1094ZM819 1583Q819 1575 809 1565L530 1307Q517 1294 511 1288T497 1279T479 1276H369Q352 1276 352 1288Q352 1299 364 1311L610 1565Q634 1587 640 1591T663 1595H799Q819 1595 819 1583Z"  />
<glyph unicode="&#xEE;" horiz-adv-x="473" d="M516 1094V1085L334 41Q331 24 316 12T285 0H186Q172 0 163 9T154 33V41L336 1085Q339 1102 353 1114T385 1126H483Q516 1126 516 1094ZM805 1294Q805 1276 784 1276H684Q670 1276 662 1282T641 1307L510 1505L303 1307Q283 1287 275 1282T252 1276H139Q123 1276 123 1288Q123 1299 135 1311L377 1565Q407 1595 430 1595H604Q632 1595 651 1565L801 1311Q805 1305 805 1294Z"  />
<glyph unicode="&#xEF;" horiz-adv-x="473" d="M516 1094V1085L334 41Q331 24 316 12T285 0H186Q172 0 163 9T154 33V41L336 1085Q339 1102 353 1114T385 1126H483Q516 1126 516 1094ZM766 1524V1518L735 1352Q732 1335 718 1324T688 1313H608Q593 1313 583 1321T573 1346V1352L604 1518Q607 1532 621 1545T651 1559H731Q745 1559 755 1549T766 1524ZM408 1524V1518L377 1352Q374 1336 360 1325T330 1313H250Q215 1313 215 1346V1352L246 1518Q249 1532 263 1545T293 1559H373Q388 1559 398 1549T408 1524Z"  />
<glyph unicode="&#xF0;" horiz-adv-x="1083" d="M1133 885Q1133 748 1108 610Q1101 569 1097 548T1087 498Q1042 247 910 117T543 -14Q358 -14 260 89T162 369Q162 431 174 498Q179 526 185 559T195 610Q228 791 299 903T481 1069T741 1122Q804 1122 864 1102T961 1042Q944 1125 881 1201T709 1333Q658 1299 611 1267T506 1194Q486 1182 477 1182Q466 1182 457 1194Q450 1204 443 1213T428 1233Q424 1241 424 1245Q424 1262 451 1282Q517 1327 537 1341T598 1382Q516 1412 442 1427Q414 1436 414 1454Q414 1456 418 1468Q427 1486 436 1502T451 1528Q463 1552 477 1552Q484 1552 500 1548Q644 1513 737 1475Q774 1500 811 1525T886 1575T961 1624Q974 1634 989 1634Q1003 1634 1012 1622Q1018 1614 1021 1609T1028 1599T1038 1585Q1044 1579 1044 1571Q1044 1556 1020 1540Q982 1514 958 1498T909 1464T846 1421Q997 1327 1065 1198T1133 885ZM942 748Q942 823 918 872T843 945T713 969Q620 969 551 924T439 797T377 610Q374 592 368 559T356 498Q342 422 342 356Q342 247 396 194T569 141Q662 141 730 184T842 305T907 498Q912 526 918 559T928 610Q942 683 942 748Z"  />
<glyph unicode="&#xF1;" horiz-adv-x="1108" d="M1112 684L997 41Q994 23 980 12T950 0H852Q817 0 817 35V41L936 713Q946 775 946 811Q946 907 898 947T745 987Q620 987 475 950L315 41Q312 24 298 12T268 0H168Q155 0 145 10T135 35V41L309 1028Q316 1066 354 1077Q593 1141 768 1141Q961 1141 1043 1061T1126 831Q1126 758 1112 684ZM1206 1550V1544L1198 1497Q1179 1387 1131 1335T989 1282Q888 1282 833 1335L737 1425Q708 1454 694 1462T661 1470Q593 1470 579 1376L573 1333Q569 1298 538 1298H469Q442 1298 442 1327V1333L448 1376Q479 1599 661 1599Q708 1599 742 1585T813 1536L923 1436Q955 1407 989 1407Q1021 1407 1039 1427T1067 1497L1075 1544Q1082 1579 1110 1579H1179Q1206 1579 1206 1550Z"  />
<glyph unicode="&#xF2;" horiz-adv-x="1083" d="M1120 756Q1120 706 1110 641L1083 485Q998 -14 539 -14Q360 -14 261 92T162 373Q162 420 172 485L199 641Q285 1141 741 1141Q832 1141 905 1113T1024 1034T1095 913T1120 756ZM940 758Q940 983 715 983Q583 983 495 892T379 641L352 485Q340 418 340 365Q340 255 393 199T565 143Q652 143 723 186T839 307T903 485L930 641Q940 695 940 758ZM887 1294Q887 1276 866 1276H756Q741 1276 734 1282T713 1307L528 1565Q522 1574 522 1579Q522 1595 547 1595H682Q710 1595 729 1565L883 1311Q887 1305 887 1294Z"  />
<glyph unicode="&#xF3;" horiz-adv-x="1083" d="M1120 756Q1120 706 1110 641L1083 485Q998 -14 539 -14Q360 -14 261 92T162 373Q162 420 172 485L199 641Q285 1141 741 1141Q832 1141 905 1113T1024 1034T1095 913T1120 756ZM940 758Q940 983 715 983Q583 983 495 892T379 641L352 485Q340 418 340 365Q340 255 393 199T565 143Q652 143 723 186T839 307T903 485L930 641Q940 695 940 758ZM1135 1583Q1135 1575 1125 1565L846 1307Q833 1294 827 1288T813 1279T795 1276H685Q668 1276 668 1288Q668 1299 680 1311L926 1565Q950 1587 956 1591T979 1595H1115Q1135 1595 1135 1583Z"  />
<glyph unicode="&#xF4;" horiz-adv-x="1083" d="M1120 756Q1120 706 1110 641L1083 485Q998 -14 539 -14Q360 -14 261 92T162 373Q162 420 172 485L199 641Q285 1141 741 1141Q832 1141 905 1113T1024 1034T1095 913T1120 756ZM940 758Q940 983 715 983Q583 983 495 892T379 641L352 485Q340 418 340 365Q340 255 393 199T565 143Q652 143 723 186T839 307T903 485L930 641Q940 695 940 758ZM1112 1294Q1112 1276 1091 1276H991Q977 1276 969 1282T948 1307L817 1505L610 1307Q590 1287 582 1282T559 1276H446Q430 1276 430 1288Q430 1299 442 1311L684 1565Q714 1595 737 1595H911Q939 1595 958 1565L1108 1311Q1112 1305 1112 1294Z"  />
<glyph unicode="&#xF5;" horiz-adv-x="1083" d="M1120 756Q1120 706 1110 641L1083 485Q998 -14 539 -14Q360 -14 261 92T162 373Q162 420 172 485L199 641Q285 1141 741 1141Q832 1141 905 1113T1024 1034T1095 913T1120 756ZM940 758Q940 983 715 983Q583 983 495 892T379 641L352 485Q340 418 340 365Q340 255 393 199T565 143Q652 143 723 186T839 307T903 485L930 641Q940 695 940 758ZM1190 1550V1544L1182 1497Q1163 1387 1115 1335T973 1282Q872 1282 817 1335L721 1425Q692 1454 678 1462T645 1470Q577 1470 563 1376L557 1333Q553 1298 522 1298H453Q426 1298 426 1327V1333L432 1376Q463 1599 645 1599Q692 1599 726 1585T797 1536L907 1436Q939 1407 973 1407Q1005 1407 1023 1427T1051 1497L1059 1544Q1066 1579 1094 1579H1163Q1190 1579 1190 1550Z"  />
<glyph unicode="&#xF6;" horiz-adv-x="1083" d="M1120 756Q1120 706 1110 641L1083 485Q998 -14 539 -14Q360 -14 261 92T162 373Q162 420 172 485L199 641Q285 1141 741 1141Q832 1141 905 1113T1024 1034T1095 913T1120 756ZM940 758Q940 983 715 983Q583 983 495 892T379 641L352 485Q340 418 340 365Q340 255 393 199T565 143Q652 143 723 186T839 307T903 485L930 641Q940 695 940 758ZM1073 1524V1518L1042 1352Q1039 1335 1025 1324T995 1313H915Q900 1313 890 1321T880 1346V1352L911 1518Q914 1532 928 1545T958 1559H1038Q1052 1559 1062 1549T1073 1524ZM715 1524V1518L684 1352Q681 1336 667 1325T637 1313H557Q522 1313 522 1346V1352L553 1518Q556 1532 570 1545T600 1559H680Q695 1559 705 1549T715 1524Z"  />
<glyph unicode="&#xF7;" horiz-adv-x="1186" d="M838 1079Q838 1064 826 1051T799 1038H684Q670 1038 657 1050T643 1079V1260Q643 1276 656 1287T684 1298H799Q815 1298 826 1287T838 1260V1079ZM1178 750Q1178 717 1137 717H348Q307 717 307 750V850Q307 865 319 874T348 883H1137Q1153 883 1165 874T1178 850V750ZM838 332Q838 316 827 305T799 293H684Q669 293 656 304T643 332V514Q643 530 655 541T684 553H799Q816 553 827 541T838 514V332Z"  />
<glyph unicode="&#xF8;" horiz-adv-x="1083" d="M1274 1182Q1274 1169 1260 1155L1083 963Q1122 885 1122 772Q1122 712 1110 641L1083 485Q1057 332 986 220T800 47T539 -14Q366 -14 268 72L158 -51Q139 -72 121 -72H20Q6 -72 6 -59Q6 -45 18 -33L199 164Q160 241 160 354Q160 415 172 485L199 641Q218 752 263 845T377 1005T537 1106T741 1141Q826 1141 896 1119T1014 1055L1120 1174Q1139 1194 1157 1194H1260Q1274 1194 1274 1182ZM887 920Q830 983 715 983Q575 983 492 895T379 641L352 485Q342 417 342 373Q342 338 344 324L887 920ZM940 745Q940 763 936 801L393 207Q451 143 565 143Q706 143 790 233T903 485L930 641Q940 703 940 745Z"  />
<glyph unicode="&#xF9;" horiz-adv-x="1108" d="M201 451L313 1085Q320 1126 360 1126H459Q496 1126 496 1098Q496 1093 492 1073L375 414Q365 349 365 311Q365 219 412 179T563 139Q610 139 693 150T836 176L995 1085Q1003 1126 1042 1126H1143Q1176 1126 1176 1096V1085L1001 98Q993 60 956 49Q698 -14 537 -14Q348 -14 267 67T186 299Q186 377 201 451ZM900 1294Q900 1276 879 1276H769Q754 1276 747 1282T726 1307L541 1565Q535 1574 535 1579Q535 1595 560 1595H695Q723 1595 742 1565L896 1311Q900 1305 900 1294Z"  />
<glyph unicode="&#xFA;" horiz-adv-x="1108" d="M201 451L313 1085Q320 1126 360 1126H459Q496 1126 496 1098Q496 1093 492 1073L375 414Q365 349 365 311Q365 219 412 179T563 139Q610 139 693 150T836 176L995 1085Q1003 1126 1042 1126H1143Q1176 1126 1176 1096V1085L1001 98Q993 60 956 49Q698 -14 537 -14Q348 -14 267 67T186 299Q186 377 201 451ZM1151 1583Q1151 1575 1141 1565L862 1307Q849 1294 843 1288T829 1279T811 1276H701Q684 1276 684 1288Q684 1299 696 1311L942 1565Q966 1587 972 1591T995 1595H1131Q1151 1595 1151 1583Z"  />
<glyph unicode="&#xFB;" horiz-adv-x="1108" d="M201 451L313 1085Q320 1126 360 1126H459Q496 1126 496 1098Q496 1093 492 1073L375 414Q365 349 365 311Q365 219 412 179T563 139Q610 139 693 150T836 176L995 1085Q1003 1126 1042 1126H1143Q1176 1126 1176 1096V1085L1001 98Q993 60 956 49Q698 -14 537 -14Q348 -14 267 67T186 299Q186 377 201 451ZM1120 1294Q1120 1276 1099 1276H999Q985 1276 977 1282T956 1307L825 1505L618 1307Q598 1287 590 1282T567 1276H454Q438 1276 438 1288Q438 1299 450 1311L692 1565Q722 1595 745 1595H919Q947 1595 966 1565L1116 1311Q1120 1305 1120 1294Z"  />
<glyph unicode="&#xFC;" horiz-adv-x="1108" d="M201 451L313 1085Q320 1126 360 1126H459Q496 1126 496 1098Q496 1093 492 1073L375 414Q365 349 365 311Q365 219 412 179T563 139Q610 139 693 150T836 176L995 1085Q1003 1126 1042 1126H1143Q1176 1126 1176 1096V1085L1001 98Q993 60 956 49Q698 -14 537 -14Q348 -14 267 67T186 299Q186 377 201 451ZM1083 1524V1518L1052 1352Q1049 1335 1035 1324T1005 1313H925Q910 1313 900 1321T890 1346V1352L921 1518Q924 1532 938 1545T968 1559H1048Q1062 1559 1072 1549T1083 1524ZM725 1524V1518L694 1352Q691 1336 677 1325T647 1313H567Q532 1313 532 1346V1352L563 1518Q566 1532 580 1545T610 1559H690Q705 1559 715 1549T725 1524Z"  />
<glyph unicode="&#xFD;" horiz-adv-x="1061" d="M1196 1100Q1196 1089 1190 1077L643 -102Q564 -274 476 -340T215 -406Q125 -406 47 -387Q8 -375 8 -358V-354L23 -279Q29 -246 68 -246H74Q203 -258 254 -258Q344 -258 394 -223T487 -84L522 0H500Q443 0 410 33T365 160L260 1077V1083Q260 1126 303 1126H410Q434 1126 438 1094L524 205Q528 160 555 160H588L1001 1096Q1008 1110 1020 1118T1047 1126H1167Q1181 1126 1188 1119T1196 1100ZM1155 1583Q1155 1575 1145 1565L866 1307Q853 1294 847 1288T833 1279T815 1276H705Q688 1276 688 1288Q688 1299 700 1311L946 1565Q970 1587 976 1591T999 1595H1135Q1155 1595 1155 1583Z"  />
<glyph unicode="&#xFE;" horiz-adv-x="1075" d="M1114 770Q1114 706 1102 635Q1098 611 1090 570T1075 487Q1054 363 1012 268T905 112T751 18T541 -14Q424 -14 305 8Q291 -74 282 -126T263 -233T240 -362Q237 -378 223 -389T193 -401H141H88Q59 -401 59 -371V-365V-362Q114 -53 169 258T278 879T387 1499Q390 1516 404 1528T436 1540H535Q567 1540 567 1507V1501V1499Q556 1436 545 1373T523 1247T500 1120Q632 1141 743 1141Q929 1141 1021 1042T1114 770ZM936 772Q936 843 914 891T844 964T717 989Q673 989 621 986T545 980T473 969Q469 947 466 928T457 879Q441 784 403 561T332 158Q392 147 452 142T567 137Q660 137 727 179T834 298T895 487Q900 512 904 537T913 586T922 635Q936 706 936 772Z"  />
<glyph unicode="&#xFF;" horiz-adv-x="1061" d="M1196 1100Q1196 1089 1190 1077L643 -102Q564 -274 476 -340T215 -406Q125 -406 47 -387Q8 -375 8 -358V-354L23 -279Q29 -246 68 -246H74Q203 -258 254 -258Q344 -258 394 -223T487 -84L522 0H500Q443 0 410 33T365 160L260 1077V1083Q260 1126 303 1126H410Q434 1126 438 1094L524 205Q528 160 555 160H588L1001 1096Q1008 1110 1020 1118T1047 1126H1167Q1181 1126 1188 1119T1196 1100ZM1079 1524V1518L1048 1352Q1045 1335 1031 1324T1001 1313H921Q906 1313 896 1321T886 1346V1352L917 1518Q920 1532 934 1545T964 1559H1044Q1058 1559 1068 1549T1079 1524ZM721 1524V1518L690 1352Q687 1336 673 1325T643 1313H563Q528 1313 528 1346V1352L559 1518Q562 1532 576 1545T606 1559H686Q701 1559 711 1549T721 1524Z"  />
<glyph unicode="&#x100;" horiz-adv-x="1264" d="M1227 39Q1227 0 1192 0H1069Q1044 0 1040 31L989 502H459L246 31Q242 19 228 10T203 0H78Q49 0 49 27Q49 39 53 47L668 1380Q708 1467 771 1501T903 1536Q947 1536 984 1523T1049 1475T1083 1382L1227 47V39ZM979 664L911 1337Q908 1374 879 1374Q849 1374 831 1337L526 664H979ZM1268 1792V1786L1255 1716Q1249 1681 1208 1681H618Q584 1681 584 1710V1716L596 1786Q602 1821 643 1821H1233Q1268 1821 1268 1792Z"  />
<glyph unicode="&#x101;" horiz-adv-x="1047" d="M922 78Q916 41 883 33Q801 11 716 -1T528 -14Q135 -14 135 262Q135 309 147 371Q162 456 198 513T301 607T462 658T696 674H848L862 756Q870 796 870 838Q870 918 827 950T682 983Q589 983 522 971T360 932Q348 928 342 928Q317 928 317 952V958L332 1038Q336 1063 367 1075Q418 1096 514 1118T711 1141Q887 1141 968 1065T1049 846Q1049 805 1038 733L922 78ZM754 145L823 543H672Q550 543 479 524T374 462T326 344Q317 291 317 262Q317 190 369 159T553 127Q675 127 754 145ZM1128 1493V1487L1115 1417Q1109 1382 1068 1382H478Q444 1382 444 1411V1417L456 1487Q462 1522 503 1522H1093Q1128 1522 1128 1493Z"  />
<glyph unicode="&#x102;" horiz-adv-x="1264" d="M1227 39Q1227 0 1192 0H1069Q1044 0 1040 31L989 502H459L246 31Q242 19 228 10T203 0H78Q49 0 49 27Q49 39 53 47L668 1380Q708 1467 771 1501T903 1536Q947 1536 984 1523T1049 1475T1083 1382L1227 47V39ZM979 664L911 1337Q908 1374 879 1374Q849 1374 831 1337L526 664H979ZM1288 1932Q1288 1922 1286 1916Q1257 1775 1155 1701T923 1627Q865 1627 810 1643T711 1696T643 1788T618 1916Q618 1950 647 1950H719Q745 1950 745 1918Q745 1754 923 1754Q1015 1754 1074 1797T1155 1918Q1160 1936 1166 1943T1190 1950H1269Q1288 1950 1288 1932Z"  />
<glyph unicode="&#x103;" horiz-adv-x="1047" d="M922 78Q916 41 883 33Q801 11 716 -1T528 -14Q135 -14 135 262Q135 309 147 371Q162 456 198 513T301 607T462 658T696 674H848L862 756Q870 796 870 838Q870 918 827 950T682 983Q589 983 522 971T360 932Q348 928 342 928Q317 928 317 952V958L332 1038Q336 1063 367 1075Q418 1096 514 1118T711 1141Q887 1141 968 1065T1049 846Q1049 805 1038 733L922 78ZM754 145L823 543H672Q550 543 479 524T374 462T326 344Q317 291 317 262Q317 190 369 159T553 127Q675 127 754 145ZM1124 1577Q1124 1567 1122 1561Q1093 1420 991 1346T759 1272Q701 1272 646 1288T547 1341T479 1433T454 1561Q454 1595 483 1595H555Q581 1595 581 1563Q581 1399 759 1399Q851 1399 910 1442T991 1563Q996 1581 1002 1588T1026 1595H1105Q1124 1595 1124 1577Z"  />
<glyph unicode="&#x104;" horiz-adv-x="1296" d="M1235 117Q1241 66 1242 50T1243 31Q1243 25 1241 19T1225 4L1079 -86Q1039 -111 1013 -128T972 -161T950 -191T944 -227Q944 -258 974 -274T1073 -291Q1098 -291 1122 -288T1168 -281T1203 -274T1223 -270Q1234 -270 1231 -287L1217 -367Q1215 -378 1209 -382T1190 -389Q1188 -390 1175 -393T1141 -400T1092 -407T1030 -410Q963 -410 918 -399T845 -366T805 -317T793 -254Q793 -208 810 -172T852 -107T907 -60T961 -27L1057 27L1006 502H475L262 31Q257 18 245 9T219 0H94Q66 0 66 27Q66 32 66 36T70 47L684 1380Q705 1427 734 1457T794 1504T858 1529T920 1536Q948 1536 977 1530T1032 1506T1076 1459T1100 1382L1235 117ZM928 1337Q925 1374 895 1374Q878 1374 867 1364T848 1337L543 664H995L928 1337Z"  />
<glyph unicode="&#x105;" horiz-adv-x="1047" d="M838 -367Q836 -378 830 -382T811 -389Q809 -390 796 -393T762 -400T713 -407T651 -410Q584 -410 539 -399T466 -366T426 -317T414 -254Q414 -208 427 -174T464 -113T517 -66T582 -27L606 -12Q588 -12 568 -13T528 -14Q424 -14 350 4T228 58T158 144T135 262Q135 284 137 308T147 371Q162 455 198 513T299 607T462 658T696 674H848L862 756Q867 779 868 800T870 838Q870 919 825 951T682 983Q632 983 589 979T506 967T431 951T360 932Q355 930 350 929T342 928Q330 928 324 934T317 952V958L332 1038Q335 1055 345 1062T367 1075Q385 1082 419 1093T498 1115T598 1133T711 1141Q803 1141 867 1120T971 1061T1030 968T1049 846Q1049 820 1046 791T1038 733L922 78Q919 61 916 52T901 37L700 -86Q658 -112 632 -130T591 -163T571 -193T565 -227Q565 -262 595 -276T694 -291Q719 -291 743 -288T789 -281T824 -274T844 -270Q855 -270 852 -287L838 -367ZM823 543H672Q579 543 517 533T416 498T357 436T326 344Q321 313 319 295T317 262Q317 227 329 202T368 160T441 135T553 127Q582 127 612 128T670 133T719 139T754 145L823 543Z"  />
<glyph unicode="&#x106;" horiz-adv-x="1083" d="M219 653V655L268 938Q309 1172 405 1305T624 1487T889 1536Q967 1536 1038 1522T1163 1489T1249 1450Q1266 1442 1266 1417L1247 1317Q1243 1295 1224 1295Q1217 1295 1208 1298Q1160 1318 1063 1343T893 1368Q769 1368 682 1324T538 1177T451 903L401 621Q387 537 387 463Q387 154 680 154Q752 154 851 177T1020 223Q1026 225 1034 225Q1051 225 1051 205L1032 104Q1031 90 1027 85T1008 72Q972 55 910 34T780 0T649 -14Q518 -14 418 32T260 182T201 453Q201 544 219 653ZM1266 1932Q1266 1924 1256 1914L977 1656Q964 1643 958 1637T944 1628T926 1625H816Q799 1625 799 1637Q799 1648 811 1660L1057 1914Q1081 1936 1087 1940T1110 1944H1246Q1266 1944 1266 1932Z"  />
<glyph unicode="&#x107;" horiz-adv-x="893" d="M518 -14Q338 -14 250 86T162 362Q162 441 176 518L205 678Q248 918 374 1029T709 1141Q803 1141 874 1121T979 1079Q1004 1063 1004 1047Q1004 1046 1003 1043T1001 1036L987 963Q983 932 958 932Q946 932 936 936Q813 983 694 983Q608 983 547 951T443 843T379 643L350 483Q338 410 338 354Q338 246 388 195T547 143Q661 143 805 190Q813 195 827 195Q848 195 848 172Q848 160 846 154L834 90Q831 74 824 66T799 47Q756 26 680 6T518 -14ZM1094 1583Q1094 1575 1084 1565L805 1307Q792 1294 786 1288T772 1279T754 1276H644Q627 1276 627 1288Q627 1299 639 1311L885 1565Q909 1587 915 1591T938 1595H1074Q1094 1595 1094 1583Z"  />
<glyph unicode="&#x10C;" horiz-adv-x="1083" d="M219 653V655L268 938Q309 1172 405 1305T624 1487T889 1536Q967 1536 1038 1522T1163 1489T1249 1450Q1266 1442 1266 1417L1247 1317Q1243 1295 1224 1295Q1217 1295 1208 1298Q1160 1318 1063 1343T893 1368Q769 1368 682 1324T538 1177T451 903L401 621Q387 537 387 463Q387 154 680 154Q752 154 851 177T1020 223Q1026 225 1034 225Q1051 225 1051 205L1032 104Q1031 90 1027 85T1008 72Q972 55 910 34T780 0T649 -14Q518 -14 418 32T260 182T201 453Q201 544 219 653ZM1298 1932Q1298 1922 1286 1910L1042 1656Q1023 1637 1014 1631T987 1625H813Q796 1625 788 1631T768 1656L612 1910Q608 1916 608 1926Q608 1944 628 1944H725Q739 1944 747 1937T768 1912L903 1715L1106 1912Q1130 1936 1136 1940T1157 1944H1282Q1298 1944 1298 1932Z"  />
<glyph unicode="&#x10D;" horiz-adv-x="893" d="M518 -14Q338 -14 250 86T162 362Q162 441 176 518L205 678Q248 918 374 1029T709 1141Q803 1141 874 1121T979 1079Q1004 1063 1004 1047Q1004 1046 1003 1043T1001 1036L987 963Q983 932 958 932Q946 932 936 936Q813 983 694 983Q608 983 547 951T443 843T379 643L350 483Q338 410 338 354Q338 246 388 195T547 143Q661 143 805 190Q813 195 827 195Q848 195 848 172Q848 160 846 154L834 90Q831 74 824 66T799 47Q756 26 680 6T518 -14ZM1116 1583Q1116 1573 1104 1561L860 1307Q841 1288 832 1282T805 1276H631Q614 1276 606 1282T586 1307L430 1561Q426 1567 426 1577Q426 1595 446 1595H543Q557 1595 565 1588T586 1563L721 1366L924 1563Q948 1587 954 1591T975 1595H1100Q1116 1595 1116 1583Z"  />
<glyph unicode="&#x10E;" horiz-adv-x="1280" d="M1352 1057Q1352 977 1337 899L1290 623Q1180 -14 557 -14Q308 -14 188 6Q152 13 152 45Q153 48 153 50T154 57L401 1464Q412 1508 453 1516Q495 1522 539 1525T667 1532T829 1536Q989 1536 1106 1483T1288 1322T1352 1057ZM1165 1047Q1165 1226 1069 1301T801 1376Q675 1376 573 1370L358 150Q424 145 586 145Q679 145 761 170T914 254T1034 402T1104 623L1151 899Q1165 976 1165 1047ZM1329 1934Q1329 1924 1317 1912L1073 1658Q1054 1639 1045 1633T1018 1627H844Q827 1627 819 1633T799 1658L643 1912Q639 1918 639 1928Q639 1946 659 1946H756Q770 1946 778 1939T799 1914L934 1717L1137 1914Q1161 1938 1167 1942T1188 1946H1313Q1329 1946 1329 1934Z"  />
<glyph unicode="&#x10F;" horiz-adv-x="1397" d="M1217 1501L965 68Q962 48 952 37T913 20Q814 2 719 -6T530 -14Q437 -14 368 13T252 90T183 209T160 362Q160 423 172 492L199 639Q223 771 267 866T377 1022T532 1112T733 1141Q757 1141 786 1140T846 1137T909 1130T969 1120L1036 1501Q1039 1517 1052 1528T1083 1540H1188Q1217 1540 1217 1509V1503V1501ZM942 969Q918 973 887 976T825 980T762 982T707 983Q632 983 577 957T482 886T418 777T379 639L352 492Q346 454 342 421T338 358Q338 306 350 266T388 199T456 157T557 143Q583 143 614 144T677 147T740 151T799 156L942 969ZM1665 1518Q1665 1514 1664 1510T1661 1501L1466 1114Q1457 1092 1447 1084T1421 1075H1327Q1316 1075 1314 1080T1313 1096Q1313 1101 1314 1105T1317 1114L1462 1501Q1470 1523 1482 1531T1509 1540H1647Q1668 1540 1665 1518Z"  />
<glyph unicode="&#x110;" horiz-adv-x="1280" d="M1352 1057Q1352 1020 1349 981T1337 899L1290 623Q1261 454 1198 334T1042 136T826 22T557 -14Q498 -14 442 -13T337 -8T249 -2T188 6Q171 9 162 18T152 45Q152 48 153 51T154 57L268 711H188Q171 711 162 720T156 752L168 829Q171 846 181 858T217 870H297L401 1464Q412 1508 453 1516Q476 1520 515 1523T605 1530T713 1534T829 1536Q947 1536 1043 1507T1208 1418T1314 1268T1352 1057ZM1165 1047Q1165 1142 1138 1205T1062 1306T946 1360T801 1376Q729 1376 677 1375T573 1370L485 870H694Q711 870 720 861T727 829L715 752Q712 735 702 723T666 711H457L358 150Q408 146 460 146T586 145Q676 145 759 170T912 251T1031 398T1104 623L1151 899Q1159 941 1162 978T1165 1047Z"  />
<glyph unicode="&#x111;" horiz-adv-x="1108" d="M1192 1276L981 68Q978 48 968 37T930 20Q831 2 736 -6T547 -14Q453 -14 384 13T268 90T199 209T176 362Q176 423 188 492L215 639Q239 771 283 866T394 1022T549 1112T750 1141Q774 1141 803 1140T863 1137T925 1130T985 1120L1012 1276H666Q650 1276 642 1285T633 1311V1317L645 1384Q648 1401 662 1413T694 1425H1038L1053 1501Q1056 1517 1069 1528T1100 1540H1204Q1233 1540 1233 1509V1501L1219 1425H1315Q1330 1425 1339 1416T1348 1391V1384L1335 1317Q1332 1300 1318 1288T1286 1276H1192ZM958 969Q934 973 903 976T841 980T778 982T723 983Q648 983 593 957T498 886T434 777T395 639L369 492Q362 454 358 421T354 358Q354 253 404 198T573 143Q599 143 630 144T693 147T756 151T815 156L958 969Z"  />
<glyph unicode="&#x112;" horiz-adv-x="1096" d="M1264 1493V1489L1245 1393Q1242 1368 1219 1368H823Q715 1368 658 1348T574 1283T532 1155L483 870H1112Q1129 870 1137 861T1145 836V829L1133 752Q1130 735 1115 723T1083 711H455L395 367Q385 312 385 283Q385 237 405 209T473 167T608 154H1004Q1022 154 1022 135V129L1004 29Q998 3 979 0Q946 -3 810 -8T578 -14Q399 -14 300 60T201 281Q201 326 209 367L346 1155Q373 1305 435 1387T599 1502T850 1536Q1008 1536 1103 1532T1247 1518Q1264 1515 1264 1493ZM1245 1792V1786L1232 1716Q1226 1681 1185 1681H595Q561 1681 561 1710V1716L573 1786Q579 1821 620 1821H1210Q1245 1821 1245 1792Z"  />
<glyph unicode="&#x113;" horiz-adv-x="1081" d="M588 143Q638 143 686 152T796 181T881 209T950 233Q958 238 971 238Q993 238 993 215V207L979 123Q976 103 968 95T940 78Q877 50 773 18T567 -14Q384 -14 274 80T164 373Q164 433 176 506L207 690Q226 803 270 888T379 1028T530 1112T723 1141Q923 1141 1018 1045T1114 786Q1114 702 1090 551Q1082 506 1042 506H356L352 477Q340 413 340 362Q340 245 399 194T588 143ZM381 643H924Q936 717 936 774Q936 883 882 933T715 983Q643 983 589 964T494 905T426 799T381 643ZM1145 1493V1487L1132 1417Q1126 1382 1085 1382H495Q461 1382 461 1411V1417L473 1487Q479 1522 520 1522H1110Q1145 1522 1145 1493Z"  />
<glyph unicode="&#x116;" horiz-adv-x="1096" d="M1264 1493V1489L1245 1393Q1242 1368 1219 1368H823Q715 1368 658 1348T574 1283T532 1155L483 870H1112Q1129 870 1137 861T1145 836V829L1133 752Q1130 735 1115 723T1083 711H455L395 367Q385 312 385 283Q385 237 405 209T473 167T608 154H1004Q1022 154 1022 135V129L1004 29Q998 3 979 0Q946 -3 810 -8T578 -14Q399 -14 300 60T201 281Q201 326 209 367L346 1155Q373 1305 435 1387T599 1502T850 1536Q1008 1536 1103 1532T1247 1518Q1264 1515 1264 1493ZM1026 1874V1868L995 1696Q992 1678 978 1667T948 1655H850Q836 1655 827 1665T817 1689V1696L848 1868Q851 1883 865 1895T895 1907H993Q1007 1907 1016 1898T1026 1874Z"  />
<glyph unicode="&#x117;" horiz-adv-x="1081" d="M588 143Q638 143 686 152T796 181T881 209T950 233Q958 238 971 238Q993 238 993 215V207L979 123Q976 103 968 95T940 78Q877 50 773 18T567 -14Q384 -14 274 80T164 373Q164 433 176 506L207 690Q226 803 270 888T379 1028T530 1112T723 1141Q923 1141 1018 1045T1114 786Q1114 702 1090 551Q1082 506 1042 506H356L352 477Q340 413 340 362Q340 245 399 194T588 143ZM381 643H924Q936 717 936 774Q936 883 882 933T715 983Q643 983 589 964T494 905T426 799T381 643ZM914 1526V1520L883 1348Q880 1330 866 1319T836 1307H738Q724 1307 715 1317T705 1341V1348L736 1520Q739 1535 753 1547T783 1559H881Q895 1559 904 1550T914 1526Z"  />
<glyph unicode="&#x118;" horiz-adv-x="1096" d="M1264 1489L1245 1393Q1242 1368 1219 1368H823Q742 1368 690 1357T607 1320T559 1254T532 1155L483 870H1112Q1128 870 1136 861T1145 836V829L1133 752Q1129 735 1115 723T1083 711H455L395 367Q390 342 388 322T385 283Q385 248 395 224T432 184T500 161T608 154H1004Q1013 154 1017 149T1022 135V129L1004 29Q1002 19 995 11T979 0Q968 0 951 -1T911 -4L780 -86Q740 -111 714 -128T673 -160T651 -191T645 -229Q645 -252 655 -264T683 -283T724 -290T774 -291Q799 -291 823 -288T869 -281T904 -274T924 -270Q935 -270 932 -287L918 -367Q916 -378 910 -382T891 -389Q889 -390 876 -393T842 -400T793 -407T731 -410Q669 -410 625 -399T551 -366T508 -317T494 -254Q494 -208 508 -173T545 -111T599 -64T662 -27L690 -12Q659 -14 630 -14T578 -14Q490 -14 420 4T302 59T227 151T201 281Q201 301 202 322T209 367L346 1155Q366 1268 407 1341T510 1458T657 1519T850 1536Q937 1536 1002 1535T1114 1531T1194 1525T1247 1518Q1257 1516 1260 1509T1264 1493V1489Z"  />
<glyph unicode="&#x119;" horiz-adv-x="1081" d="M588 143Q639 143 692 153T794 179T883 209T950 233Q956 237 961 237T971 238Q983 238 988 231T993 215V207L979 123Q976 103 973 94T956 78Q839 19 771 -28T667 -114T622 -180T612 -227Q612 -262 637 -276T705 -291Q743 -291 775 -288T832 -281T871 -274T891 -270Q902 -270 899 -287L885 -367Q883 -378 877 -382T858 -389Q856 -390 843 -393T809 -400T760 -407T698 -410Q631 -410 586 -399T513 -366T473 -317T461 -254Q461 -189 496 -132T612 -12Q600 -12 589 -13T567 -14Q481 -14 408 7T280 74T195 194T164 373Q164 432 176 506L207 690Q245 916 378 1028T723 1141Q828 1141 902 1114T1024 1040T1092 927T1114 786Q1114 763 1113 740T1109 688T1102 627T1090 551Q1086 531 1077 519T1042 506H356L352 477Q340 412 340 362Q340 244 399 194T588 143ZM924 643Q932 690 934 719T936 774Q936 885 881 934T715 983Q644 983 589 964T493 903T424 798T381 643H924Z"  />
<glyph unicode="&#x11A;" horiz-adv-x="1096" d="M1264 1493V1489L1245 1393Q1242 1368 1219 1368H823Q715 1368 658 1348T574 1283T532 1155L483 870H1112Q1129 870 1137 861T1145 836V829L1133 752Q1130 735 1115 723T1083 711H455L395 367Q385 312 385 283Q385 237 405 209T473 167T608 154H1004Q1022 154 1022 135V129L1004 29Q998 3 979 0Q946 -3 810 -8T578 -14Q399 -14 300 60T201 281Q201 326 209 367L346 1155Q373 1305 435 1387T599 1502T850 1536Q1008 1536 1103 1532T1247 1518Q1264 1515 1264 1493ZM1280 1932Q1280 1922 1268 1910L1024 1656Q1005 1637 996 1631T969 1625H795Q778 1625 770 1631T750 1656L594 1910Q590 1916 590 1926Q590 1944 610 1944H707Q721 1944 729 1937T750 1912L885 1715L1088 1912Q1112 1936 1118 1940T1139 1944H1264Q1280 1944 1280 1932Z"  />
<glyph unicode="&#x11B;" horiz-adv-x="1081" d="M588 143Q638 143 686 152T796 181T881 209T950 233Q958 238 971 238Q993 238 993 215V207L979 123Q976 103 968 95T940 78Q877 50 773 18T567 -14Q384 -14 274 80T164 373Q164 433 176 506L207 690Q226 803 270 888T379 1028T530 1112T723 1141Q923 1141 1018 1045T1114 786Q1114 702 1090 551Q1082 506 1042 506H356L352 477Q340 413 340 362Q340 245 399 194T588 143ZM381 643H924Q936 717 936 774Q936 883 882 933T715 983Q643 983 589 964T494 905T426 799T381 643ZM1173 1583Q1173 1573 1161 1561L917 1307Q898 1288 889 1282T862 1276H688Q671 1276 663 1282T643 1307L487 1561Q483 1567 483 1577Q483 1595 503 1595H600Q614 1595 622 1588T643 1563L778 1366L981 1563Q1005 1587 1011 1591T1032 1595H1157Q1173 1595 1173 1583Z"  />
<glyph unicode="&#x11E;" horiz-adv-x="1221" d="M897 1368Q781 1368 695 1329T544 1186T446 897L397 623Q383 542 383 469Q383 306 462 230T686 154Q790 154 920 164L1022 750Q1029 791 1067 791H1178Q1210 791 1210 760Q1210 753 1206 737L1087 61Q1080 23 1042 16Q847 -14 668 -14Q525 -14 420 37T257 196T199 465Q199 556 217 659L266 934Q326 1276 503 1406T928 1536Q1037 1536 1146 1507T1300 1450Q1317 1442 1317 1425V1417L1298 1317Q1295 1296 1274 1296Q1266 1296 1260 1298Q1208 1319 1098 1343T897 1368ZM1294 1930Q1294 1920 1292 1914Q1263 1773 1161 1699T929 1625Q871 1625 816 1641T717 1694T649 1786T624 1914Q624 1948 653 1948H725Q751 1948 751 1916Q751 1752 929 1752Q1021 1752 1080 1795T1161 1916Q1166 1934 1172 1941T1196 1948H1275Q1294 1948 1294 1930Z"  />
<glyph unicode="&#x11F;" horiz-adv-x="1075" d="M461 -256Q561 -256 620 -235T714 -160T768 0L770 14Q729 4 656 -5T535 -14Q422 -14 338 25T207 149T160 365Q160 440 174 520L201 670Q231 839 298 942T473 1093T739 1141Q901 1141 1098 1094Q1135 1085 1135 1061Q1135 1053 1133 1047L948 0Q929 -113 888 -191T787 -315T640 -382T436 -403Q325 -403 241 -379T113 -326Q92 -311 92 -295Q92 -285 94 -279L104 -211Q114 -180 139 -180Q146 -180 158 -184Q256 -224 310 -240T461 -256ZM795 160L938 967Q821 989 713 989Q612 989 545 954T437 841T375 639L348 489Q334 400 334 356Q334 239 391 188T561 137Q611 137 678 143T795 160ZM1133 1577Q1133 1567 1131 1561Q1102 1420 1000 1346T768 1272Q710 1272 655 1288T556 1341T488 1433T463 1561Q463 1595 492 1595H564Q590 1595 590 1563Q590 1399 768 1399Q860 1399 919 1442T1000 1563Q1005 1581 1011 1588T1035 1595H1114Q1133 1595 1133 1577Z"  />
<glyph unicode="&#x122;" horiz-adv-x="1221" d="M897 1368Q781 1368 695 1329T544 1186T446 897L397 623Q383 542 383 469Q383 306 462 230T686 154Q790 154 920 164L1022 750Q1029 791 1067 791H1178Q1210 791 1210 760Q1210 753 1206 737L1087 61Q1080 23 1042 16Q847 -14 668 -14Q525 -14 420 37T257 196T199 465Q199 556 217 659L266 934Q326 1276 503 1406T928 1536Q1037 1536 1146 1507T1300 1450Q1317 1442 1317 1425V1417L1298 1317Q1295 1296 1274 1296Q1266 1296 1260 1298Q1208 1319 1098 1343T897 1368ZM737 -100Q759 -100 756 -123L751 -139L600 -362Q587 -382 578 -391T545 -401H461Q454 -401 448 -398T444 -385Q446 -382 446 -379T450 -369L549 -139Q557 -118 568 -109T596 -100H737Z"  />
<glyph unicode="&#x123;" horiz-adv-x="1075" d="M461 -256Q532 -256 584 -246T672 -207T731 -128T768 0L770 14Q751 9 721 5T657 -4T591 -11T535 -14Q453 -14 385 7T266 74T188 191T160 365Q160 400 163 438T174 520L201 670Q223 797 266 887T377 1033T534 1115T739 1141Q784 1141 833 1137T929 1126T1020 1111T1098 1094Q1119 1089 1127 1082T1135 1061Q1135 1058 1135 1055T1133 1047L948 0Q927 -114 888 -191T786 -316T637 -383T436 -403Q374 -403 322 -395T229 -375T159 -350T113 -326Q103 -319 98 -313T92 -295Q92 -292 92 -288T94 -279L104 -211Q108 -199 116 -190T139 -180Q144 -180 148 -181T158 -184Q187 -196 217 -209T282 -232T361 -249T461 -256ZM938 967Q898 975 838 982T713 989Q637 989 581 970T484 908T418 800T375 639L348 489Q342 451 338 418T334 356Q334 296 349 254T392 186T463 149T561 137Q582 137 612 138T674 143T738 150T795 160L938 967ZM725 1276Q704 1276 707 1298L711 1315L862 1538Q875 1558 885 1567T918 1577H1001Q1008 1577 1014 1574T1018 1561Q1016 1557 1016 1554T1012 1544L913 1315Q905 1293 894 1285T866 1276H725Z"  />
<glyph unicode="&#x12A;" horiz-adv-x="514" d="M612 1491V1483L358 41Q354 23 342 12T313 0H201Q172 0 172 33V41L426 1483Q434 1522 469 1522H582Q596 1522 604 1513T612 1491ZM929 1792V1786L916 1716Q910 1681 869 1681H279Q245 1681 245 1710V1716L257 1786Q263 1821 304 1821H894Q929 1821 929 1792Z"  />
<glyph unicode="&#x12B;" horiz-adv-x="473" d="M516 1094V1085L334 41Q331 24 316 12T285 0H186Q172 0 163 9T154 33V41L336 1085Q339 1102 353 1114T385 1126H483Q516 1126 516 1094ZM843 1493V1487L830 1417Q824 1382 783 1382H193Q159 1382 159 1411V1417L171 1487Q177 1522 218 1522H808Q843 1522 843 1493Z"  />
<glyph unicode="&#x12E;" horiz-adv-x="514" d="M358 39Q356 27 351 19T332 2L186 -86Q156 -104 131 -119T89 -151T61 -185T51 -227Q51 -258 81 -274T180 -291Q205 -291 229 -288T275 -281T310 -274T330 -270Q341 -270 338 -287L324 -367Q322 -378 316 -382T297 -389Q295 -390 282 -393T248 -400T199 -407T137 -410Q70 -410 25 -399T-48 -366T-88 -317T-100 -254Q-100 -208 -85 -173T-46 -111T8 -64T68 -27L170 29L426 1483Q429 1498 440 1510T469 1522H582Q596 1522 604 1513T612 1491V1483L358 39Z"  />
<glyph unicode="&#x12F;" horiz-adv-x="473" d="M340 76Q335 45 328 29T301 2L156 -86Q112 -112 86 -130T45 -163T25 -192T20 -227Q20 -258 50 -274T150 -291Q174 -291 199 -288T244 -281T279 -274T299 -270Q310 -270 307 -287L293 -367Q291 -378 285 -382T266 -389Q264 -390 251 -393T217 -400T168 -407T106 -410Q39 -410 -6 -399T-79 -366T-119 -317T-131 -254Q-131 -208 -117 -174T-78 -112T-24 -65T37 -27L154 41L336 1085Q339 1102 353 1114T385 1126H483Q499 1126 507 1117T516 1094V1085L340 76ZM596 1511L567 1348Q564 1331 550 1319T518 1307H414Q398 1307 390 1316T381 1339V1348L410 1511Q413 1528 427 1540T459 1552H563Q579 1552 587 1543T596 1520V1511Z"  />
<glyph unicode="&#x130;" horiz-adv-x="514" d="M612 1491V1483L358 41Q354 23 342 12T313 0H201Q172 0 172 33V41L426 1483Q434 1522 469 1522H582Q596 1522 604 1513T612 1491ZM685 1876V1870L654 1698Q651 1680 637 1669T607 1657H509Q495 1657 486 1667T476 1691V1698L507 1870Q510 1885 524 1897T554 1909H652Q666 1909 675 1900T685 1876Z"  />
<glyph unicode="&#x131;" horiz-adv-x="473" d="M516 1094V1085L334 41Q331 24 316 12T285 0H186Q172 0 163 9T154 33V41L336 1085Q339 1102 353 1114T385 1126H483Q516 1126 516 1094Z"  />
<glyph unicode="&#x136;" horiz-adv-x="1210" d="M1399 1501Q1399 1489 1389 1479L631 782L1120 33Q1124 25 1124 20Q1124 11 1118 6T1102 0H954Q926 0 913 20L459 729L338 41Q335 23 322 12T293 0H180Q152 0 152 33V41L406 1483Q409 1498 422 1510T451 1522H559Q573 1522 582 1513T592 1489V1483L479 840L1167 1503Q1189 1522 1212 1522H1372Q1399 1522 1399 1501ZM668 -100Q690 -100 687 -123L682 -139L531 -362Q518 -382 509 -391T476 -401H392Q385 -401 379 -398T375 -385Q377 -382 377 -379T381 -369L480 -139Q488 -118 499 -109T527 -100H668Z"  />
<glyph unicode="&#x137;" horiz-adv-x="983" d="M1102 1106Q1102 1091 1090 1079L559 592L930 47Q936 38 936 29Q936 16 928 8T907 0H788Q754 0 733 31L397 535L311 41Q304 0 272 0H164Q149 0 140 9T131 33V41L387 1499Q390 1516 404 1528T436 1540H535Q567 1540 567 1507V1499L420 668L891 1108Q909 1126 936 1126H1075Q1102 1126 1102 1106ZM565 -100Q587 -100 584 -123L579 -139L428 -362Q415 -382 406 -391T373 -401H289Q282 -401 276 -398T272 -385Q274 -382 274 -379T278 -369L377 -139Q385 -118 396 -109T424 -100H565Z"  />
<glyph unicode="&#x139;" horiz-adv-x="1020" d="M1020 129V123L1006 33Q1003 8 979 4Q855 -14 578 -14Q468 -14 385 10T252 99T203 276Q203 337 213 391L403 1481Q408 1498 422 1510T453 1522H557Q573 1522 581 1513T590 1489V1481L395 367Q385 312 385 276Q385 230 404 204T471 166T608 154H993Q1020 154 1020 129ZM1159 1934Q1159 1926 1149 1916L870 1658Q857 1645 851 1639T837 1630T819 1627H709Q692 1627 692 1639Q692 1650 704 1662L950 1916Q974 1938 980 1942T1003 1946H1139Q1159 1946 1159 1934Z"  />
<glyph unicode="&#x13A;" horiz-adv-x="467" d="M588 1509V1501L332 41Q329 23 316 12T287 0H180Q152 0 152 33V41L408 1501Q415 1540 453 1540H559Q588 1540 588 1509ZM894 1934Q894 1926 884 1916L605 1658Q592 1645 586 1639T572 1630T554 1627H444Q427 1627 427 1639Q427 1650 439 1662L685 1916Q709 1938 715 1942T738 1946H874Q894 1946 894 1934Z"  />
<glyph unicode="&#x13B;" horiz-adv-x="1020" d="M1020 129V123L1006 33Q1003 8 979 4Q855 -14 578 -14Q468 -14 385 10T252 99T203 276Q203 337 213 391L403 1481Q408 1498 422 1510T453 1522H557Q573 1522 581 1513T590 1489V1481L395 367Q385 312 385 276Q385 230 404 204T471 166T608 154H993Q1020 154 1020 129ZM662 -100Q684 -100 681 -123L676 -139L525 -362Q512 -382 503 -391T470 -401H386Q379 -401 373 -398T369 -385Q371 -382 371 -379T375 -369L474 -139Q482 -118 493 -109T521 -100H662Z"  />
<glyph unicode="&#x13C;" horiz-adv-x="467" d="M588 1509V1501L332 41Q329 23 316 12T287 0H180Q152 0 152 33V41L408 1501Q415 1540 453 1540H559Q588 1540 588 1509ZM290 -100Q312 -100 309 -123L304 -139L153 -362Q140 -382 131 -391T98 -401H14Q7 -401 1 -398T-3 -385Q-1 -382 -1 -379T3 -369L102 -139Q110 -118 121 -109T149 -100H290Z"  />
<glyph unicode="&#x13D;" horiz-adv-x="1020" d="M1020 123L1006 33Q1004 19 996 13T979 4Q958 1 920 -2T830 -8T714 -12T578 -14Q502 -14 434 -3T315 41T233 129T203 276Q203 302 205 330T213 391L403 1481Q407 1498 421 1510T453 1522H557Q573 1522 581 1513T590 1489V1481L395 367Q390 342 388 319T385 276Q385 241 395 218T432 181T500 160T608 154H993Q1006 154 1013 147T1020 129V123ZM1135 1604Q1135 1597 1130 1587L936 1200Q927 1178 917 1170T891 1161H797Q786 1161 783 1166T782 1182Q782 1187 783 1191T786 1200L932 1587Q940 1609 951 1617T979 1626H1116Q1138 1626 1135 1604Z"  />
<glyph unicode="&#x13E;" horiz-adv-x="741" d="M588 1501L332 41Q329 24 317 12T287 0H180Q166 0 159 9T152 33V41L408 1501Q411 1518 423 1529T453 1540H559Q588 1540 588 1509V1501ZM1010 1518Q1010 1514 1009 1510T1006 1501L811 1114Q802 1092 792 1084T766 1075H672Q661 1075 658 1080T657 1096Q657 1104 662 1114L807 1501Q815 1523 827 1531T854 1540H991Q1013 1540 1010 1518Z"  />
<glyph unicode="&#x141;" horiz-adv-x="1020" d="M1022 135V129Q1018 105 1016 89T1006 33Q1006 31 995 14Q991 8 979 4Q973 3 969 3T950 0Q829 -14 578 -14Q395 -14 298 59T201 276Q201 323 209 367Q224 453 232 499T250 606Q174 530 137 492Q118 472 98 453Q90 445 84 442Q80 440 74 440Q68 440 66 442Q61 445 61 451V453Q62 457 70 503T84 582Q88 610 106 629Q146 669 171 694T222 745T287 811Q289 820 290 829T294 848T297 866Q315 968 338 1104T377 1327T403 1481Q408 1498 422 1510T453 1522H557Q571 1522 582 1511Q590 1503 590 1487V1481Q572 1383 562 1322T541 1198T512 1038Q626 1154 682 1210Q688 1217 696 1221Q704 1225 707 1225Q715 1225 717 1223Q719 1221 719 1212V1210Q714 1177 709 1149T696 1077Q693 1052 672 1030Q640 998 608 965T543 900T477 834Q475 820 473 810T467 776Q425 548 395 367Q385 312 385 281Q385 211 433 183T608 154H1004Q1022 154 1022 135Z"  />
<glyph unicode="&#x142;" horiz-adv-x="467" d="M705 1204V1202Q693 1141 680 1069Q678 1052 662 1036Q620 994 594 967T542 913T473 844Q450 711 427 577T379 303T332 41Q329 23 316 12T287 0H180Q152 0 152 33V41Q236 521 254 623L119 487Q106 475 84 453Q78 447 72 444Q68 442 61 442Q47 442 47 457V459Q56 504 60 528T70 582Q74 610 92 629Q147 684 169 706T213 750T289 827Q293 848 295 858T299 883Q322 1009 352 1178T408 1501Q411 1516 423 1528T453 1540H559Q588 1540 588 1509V1501Q568 1388 545 1257T508 1049Q548 1090 587 1130T668 1210Q678 1221 688 1221Q705 1221 705 1204Z"  />
<glyph unicode="&#x143;" horiz-adv-x="1360" d="M1479 1491V1483L1227 59Q1222 34 1202 17T1157 0H1038Q992 0 979 33L549 1235L545 1241Q541 1241 541 1235L330 39Q327 23 315 12T287 0H180Q147 0 147 18V25L401 1464Q407 1489 426 1505T471 1522H571Q612 1522 625 1514T647 1481L1077 285L1079 279H1083L1085 285L1296 1483Q1299 1498 1312 1510T1339 1522H1448Q1479 1522 1479 1491ZM1350 1934Q1350 1926 1340 1916L1061 1658Q1048 1645 1042 1639T1028 1630T1010 1627H900Q883 1627 883 1639Q883 1650 895 1662L1141 1916Q1165 1938 1171 1942T1194 1946H1330Q1350 1946 1350 1934Z"  />
<glyph unicode="&#x144;" horiz-adv-x="1108" d="M1112 684L997 41Q994 23 980 12T950 0H852Q817 0 817 35V41L936 713Q946 775 946 811Q946 907 898 947T745 987Q620 987 475 950L315 41Q312 24 298 12T268 0H168Q155 0 145 10T135 35V41L309 1028Q316 1066 354 1077Q593 1141 768 1141Q961 1141 1043 1061T1126 831Q1126 758 1112 684ZM1161 1583Q1161 1575 1151 1565L872 1307Q859 1294 853 1288T839 1279T821 1276H711Q694 1276 694 1288Q694 1299 706 1311L952 1565Q976 1587 982 1591T1005 1595H1141Q1161 1595 1161 1583Z"  />
<glyph unicode="&#x145;" horiz-adv-x="1360" d="M1479 1491V1483L1227 59Q1222 34 1202 17T1157 0H1038Q992 0 979 33L549 1235L545 1241Q541 1241 541 1235L330 39Q327 23 315 12T287 0H180Q147 0 147 18V25L401 1464Q407 1489 426 1505T471 1522H571Q612 1522 625 1514T647 1481L1077 285L1079 279H1083L1085 285L1296 1483Q1299 1498 1312 1510T1339 1522H1448Q1479 1522 1479 1491ZM772 -100Q794 -100 791 -123L786 -139L635 -362Q622 -382 613 -391T580 -401H496Q489 -401 483 -398T479 -385Q481 -382 481 -379T485 -369L584 -139Q592 -118 603 -109T631 -100H772Z"  />
<glyph unicode="&#x146;" horiz-adv-x="1108" d="M1112 684L997 41Q994 23 980 12T950 0H852Q817 0 817 35V41L936 713Q946 775 946 811Q946 907 898 947T745 987Q620 987 475 950L315 41Q312 24 298 12T268 0H168Q155 0 145 10T135 35V41L309 1028Q316 1066 354 1077Q593 1141 768 1141Q961 1141 1043 1061T1126 831Q1126 758 1112 684ZM629 -100Q651 -100 648 -123L643 -139L492 -362Q479 -382 470 -391T437 -401H353Q346 -401 340 -398T336 -385Q338 -382 338 -379T342 -369L441 -139Q449 -118 460 -109T488 -100H629Z"  />
<glyph unicode="&#x147;" horiz-adv-x="1360" d="M1479 1491V1483L1227 59Q1222 34 1202 17T1157 0H1038Q992 0 979 33L549 1235L545 1241Q541 1241 541 1235L330 39Q327 23 315 12T287 0H180Q147 0 147 18V25L401 1464Q407 1489 426 1505T471 1522H571Q612 1522 625 1514T647 1481L1077 285L1079 279H1083L1085 285L1296 1483Q1299 1498 1312 1510T1339 1522H1448Q1479 1522 1479 1491ZM1376 1934Q1376 1924 1364 1912L1120 1658Q1101 1639 1092 1633T1065 1627H891Q874 1627 866 1633T846 1658L690 1912Q686 1918 686 1928Q686 1946 706 1946H803Q817 1946 825 1939T846 1914L981 1717L1184 1914Q1208 1938 1214 1942T1235 1946H1360Q1376 1946 1376 1934Z"  />
<glyph unicode="&#x148;" horiz-adv-x="1108" d="M1112 684L997 41Q994 23 980 12T950 0H852Q817 0 817 35V41L936 713Q946 775 946 811Q946 907 898 947T745 987Q620 987 475 950L315 41Q312 24 298 12T268 0H168Q155 0 145 10T135 35V41L309 1028Q316 1066 354 1077Q593 1141 768 1141Q961 1141 1043 1061T1126 831Q1126 758 1112 684ZM1177 1583Q1177 1573 1165 1561L921 1307Q902 1288 893 1282T866 1276H692Q675 1276 667 1282T647 1307L491 1561Q487 1567 487 1577Q487 1595 507 1595H604Q618 1595 626 1588T647 1563L782 1366L985 1563Q1009 1587 1015 1591T1036 1595H1161Q1177 1595 1177 1583Z"  />
<glyph unicode="&#x14C;" horiz-adv-x="1321" d="M1386 1065Q1386 991 1370 893L1323 629Q1293 461 1235 339T1092 139T898 24T657 -14Q512 -14 409 46T253 216T201 471Q201 551 215 629L262 893Q294 1072 355 1195T504 1394T698 1503T930 1536Q1067 1536 1170 1482T1329 1322T1386 1065ZM1198 1063Q1198 1225 1123 1296T901 1368Q727 1368 611 1252T451 893L403 629Q389 551 389 473Q389 154 686 154Q779 154 852 182T980 268T1073 414T1135 629L1182 893Q1198 977 1198 1063ZM1327 1792V1786L1314 1716Q1308 1681 1267 1681H677Q643 1681 643 1710V1716L655 1786Q661 1821 702 1821H1292Q1327 1821 1327 1792Z"  />
<glyph unicode="&#x14D;" horiz-adv-x="1083" d="M1120 756Q1120 706 1110 641L1083 485Q998 -14 539 -14Q360 -14 261 92T162 373Q162 420 172 485L199 641Q285 1141 741 1141Q832 1141 905 1113T1024 1034T1095 913T1120 756ZM940 758Q940 983 715 983Q583 983 495 892T379 641L352 485Q340 418 340 365Q340 255 393 199T565 143Q652 143 723 186T839 307T903 485L930 641Q940 695 940 758ZM1163 1493V1487L1150 1417Q1144 1382 1103 1382H513Q479 1382 479 1411V1417L491 1487Q497 1522 538 1522H1128Q1163 1522 1163 1493Z"  />
<glyph unicode="&#x150;" horiz-adv-x="1321" d="M1386 1065Q1386 991 1370 893L1323 629Q1293 461 1235 339T1092 139T898 24T657 -14Q512 -14 409 46T253 216T201 471Q201 551 215 629L262 893Q294 1072 355 1195T504 1394T698 1503T930 1536Q1067 1536 1170 1482T1329 1322T1386 1065ZM1198 1063Q1198 1225 1123 1296T901 1368Q727 1368 611 1252T451 893L403 629Q389 551 389 473Q389 154 686 154Q779 154 852 182T980 268T1073 414T1135 629L1182 893Q1198 977 1198 1063ZM1485 1934Q1485 1926 1475 1916L1198 1658Q1185 1645 1179 1639T1165 1630T1147 1627H1036Q1020 1627 1020 1639Q1020 1650 1032 1662L1276 1916Q1307 1946 1331 1946H1464Q1485 1946 1485 1934ZM1127 1934Q1127 1927 1116 1916L840 1658Q817 1637 810 1632T789 1627H678Q662 1627 662 1639Q662 1650 674 1662L918 1916Q937 1935 946 1940T973 1946H1106Q1127 1946 1127 1934Z"  />
<glyph unicode="&#x151;" horiz-adv-x="1083" d="M1120 756Q1120 706 1110 641L1083 485Q998 -14 539 -14Q360 -14 261 92T162 373Q162 420 172 485L199 641Q285 1141 741 1141Q832 1141 905 1113T1024 1034T1095 913T1120 756ZM940 758Q940 983 715 983Q583 983 495 892T379 641L352 485Q340 418 340 365Q340 255 393 199T565 143Q652 143 723 186T839 307T903 485L930 641Q940 695 940 758ZM1317 1583Q1317 1575 1307 1565L1030 1307Q1017 1294 1011 1288T997 1279T979 1276H868Q852 1276 852 1288Q852 1299 864 1311L1108 1565Q1139 1595 1163 1595H1296Q1317 1595 1317 1583ZM959 1583Q959 1576 948 1565L672 1307Q649 1286 642 1281T621 1276H510Q494 1276 494 1288Q494 1299 506 1311L750 1565Q769 1584 778 1589T805 1595H938Q959 1595 959 1583Z"  />
<glyph unicode="&#x152;" horiz-adv-x="1980" d="M2146 1495V1489L2130 1393Q2127 1368 2103 1368H1708Q1600 1368 1543 1348T1459 1283T1417 1155L1368 870H1997Q2012 870 2021 861T2030 836V829L2017 752Q2014 734 2000 723T1968 711H1339L1278 365Q1270 321 1270 281Q1270 235 1290 207T1358 165T1493 152H1888Q1907 152 1907 133V127L1890 31Q1888 21 1880 12T1864 2Q1738 -16 1462 -16Q1314 -16 1232 23T1108 154Q1018 67 914 27T659 -14Q524 -14 421 39T259 200T201 461Q201 530 217 629L264 893Q296 1067 358 1191T506 1392T698 1502T932 1536Q1178 1536 1298 1368Q1370 1463 1471 1499T1735 1536Q1884 1536 1983 1531T2132 1518Q2146 1515 2146 1495ZM1204 1061Q1204 1368 903 1368Q726 1368 612 1256T453 893L406 629Q389 545 389 459Q389 297 465 226T688 154Q1055 154 1139 627L1188 901Q1204 989 1204 1061Z"  />
<glyph unicode="&#x153;" horiz-adv-x="1812" d="M1323 143Q1387 143 1455 159T1588 198T1686 233Q1694 238 1706 238Q1729 238 1729 215V207L1714 123Q1711 103 1703 95T1675 78Q1612 50 1508 18T1303 -14Q1178 -14 1088 27T948 156Q879 72 778 29T543 -14Q364 -14 265 92T166 373Q166 420 176 485L203 641Q289 1141 745 1141Q860 1141 942 1099T1069 979Q1204 1141 1458 1141Q1658 1141 1753 1045T1849 786Q1849 702 1825 551Q1818 506 1778 506H1092L1087 477Q1075 413 1075 362Q1075 245 1134 194T1323 143ZM944 758Q944 872 891 927T719 983Q587 983 499 892T383 641L356 485Q344 418 344 365Q344 255 397 199T569 143Q657 143 727 186T843 307T907 485L934 641Q944 695 944 758ZM1116 643H1659Q1671 717 1671 774Q1671 883 1617 933T1450 983Q1355 983 1289 948T1180 839T1116 643Z"  />
<glyph unicode="&#x154;" horiz-adv-x="1247" d="M1325 1171Q1325 1135 1319 1096L1317 1081Q1292 907 1189 803T922 668L1188 39Q1192 31 1192 25Q1192 0 1161 0H1028Q1008 0 1001 4T987 27L729 637H709H666Q617 637 599 637T527 639T440 643L336 41Q333 24 320 12T291 0H180Q152 0 152 33V39V41L403 1475Q409 1497 421 1507T461 1520Q522 1527 625 1531T823 1536Q1054 1536 1189 1445T1325 1171ZM1141 1163Q1141 1280 1060 1324T795 1368Q616 1368 567 1362L469 801Q571 797 694 797Q1092 797 1133 1081L1135 1096Q1141 1132 1141 1163ZM1282 1934Q1282 1926 1272 1916L993 1658Q980 1645 974 1639T960 1630T942 1627H832Q815 1627 815 1639Q815 1650 827 1662L1073 1916Q1097 1938 1103 1942T1126 1946H1262Q1282 1946 1282 1934Z"  />
<glyph unicode="&#x155;" horiz-adv-x="729" d="M754 1143Q836 1143 891 1133Q920 1127 920 1107Q920 1102 918 1090L905 1016Q902 996 893 989T860 981Q790 985 725 985Q598 985 477 954L315 41Q308 0 268 0H168Q135 0 135 39L309 1032Q313 1055 321 1064T356 1081Q444 1110 510 1122T629 1139T754 1143ZM1014 1583Q1014 1575 1004 1565L725 1307Q712 1294 706 1288T692 1279T674 1276H564Q547 1276 547 1288Q547 1299 559 1311L805 1565Q829 1587 835 1591T858 1595H994Q1014 1595 1014 1583Z"  />
<glyph unicode="&#x156;" horiz-adv-x="1247" d="M1325 1171Q1325 1135 1319 1096L1317 1081Q1292 907 1189 803T922 668L1188 39Q1192 31 1192 25Q1192 0 1161 0H1028Q1008 0 1001 4T987 27L729 637H709H666Q617 637 599 637T527 639T440 643L336 41Q333 24 320 12T291 0H180Q152 0 152 33V39V41L403 1475Q409 1497 421 1507T461 1520Q522 1527 625 1531T823 1536Q1054 1536 1189 1445T1325 1171ZM1141 1163Q1141 1280 1060 1324T795 1368Q616 1368 567 1362L469 801Q571 797 694 797Q1092 797 1133 1081L1135 1096Q1141 1132 1141 1163ZM760 -100Q782 -100 779 -123L774 -139L623 -362Q610 -382 601 -391T568 -401H484Q477 -401 471 -398T467 -385Q469 -382 469 -379T473 -369L572 -139Q580 -118 591 -109T619 -100H760Z"  />
<glyph unicode="&#x157;" horiz-adv-x="729" d="M754 1143Q836 1143 891 1133Q920 1127 920 1107Q920 1102 918 1090L905 1016Q902 996 893 989T860 981Q790 985 725 985Q598 985 477 954L315 41Q308 0 268 0H168Q135 0 135 39L309 1032Q313 1055 321 1064T356 1081Q444 1110 510 1122T629 1139T754 1143ZM392 -100Q414 -100 411 -123L406 -139L255 -362Q242 -382 233 -391T200 -401H116Q109 -401 103 -398T99 -385Q101 -382 101 -379T105 -369L204 -139Q212 -118 223 -109T251 -100H392Z"  />
<glyph unicode="&#x158;" horiz-adv-x="1247" d="M1325 1171Q1325 1135 1319 1096L1317 1081Q1292 907 1189 803T922 668L1188 39Q1192 31 1192 25Q1192 0 1161 0H1028Q1008 0 1001 4T987 27L729 637H709H666Q617 637 599 637T527 639T440 643L336 41Q333 24 320 12T291 0H180Q152 0 152 33V39V41L403 1475Q409 1497 421 1507T461 1520Q522 1527 625 1531T823 1536Q1054 1536 1189 1445T1325 1171ZM1141 1163Q1141 1280 1060 1324T795 1368Q616 1368 567 1362L469 801Q571 797 694 797Q1092 797 1133 1081L1135 1096Q1141 1132 1141 1163ZM1315 1934Q1315 1924 1303 1912L1059 1658Q1040 1639 1031 1633T1004 1627H830Q813 1627 805 1633T785 1658L629 1912Q625 1918 625 1928Q625 1946 645 1946H742Q756 1946 764 1939T785 1914L920 1717L1123 1914Q1147 1938 1153 1942T1174 1946H1299Q1315 1946 1315 1934Z"  />
<glyph unicode="&#x159;" horiz-adv-x="729" d="M754 1143Q836 1143 891 1133Q920 1127 920 1107Q920 1102 918 1090L905 1016Q902 996 893 989T860 981Q790 985 725 985Q598 985 477 954L315 41Q308 0 268 0H168Q135 0 135 39L309 1032Q313 1055 321 1064T356 1081Q444 1110 510 1122T629 1139T754 1143ZM1044 1583Q1044 1573 1032 1561L788 1307Q769 1288 760 1282T733 1276H559Q542 1276 534 1282T514 1307L358 1561Q354 1567 354 1577Q354 1595 374 1595H471Q485 1595 493 1588T514 1563L649 1366L852 1563Q876 1587 882 1591T903 1595H1028Q1044 1595 1044 1583Z"  />
<glyph unicode="&#x15A;" horiz-adv-x="1094" d="M135 125L150 209Q157 238 178 238Q185 238 197 233Q281 201 383 179T575 156Q748 156 828 228T909 420Q909 489 865 541T711 670L535 791Q425 864 370 950T315 1143Q315 1349 447 1442T803 1536Q896 1536 972 1524T1103 1495T1192 1462Q1221 1451 1221 1432V1425L1202 1321Q1199 1294 1176 1294Q1165 1294 1159 1296Q1060 1331 978 1349T805 1368Q700 1368 636 1348T540 1283T508 1165Q508 1113 530 1073T588 1000T686 926L856 813Q992 722 1047 642T1102 444Q1102 349 1074 268T980 122T804 22T539 -14Q442 -14 336 10T164 70Q146 80 140 86T133 106Q133 117 135 125ZM1215 1934Q1215 1926 1205 1916L926 1658Q913 1645 907 1639T893 1630T875 1627H765Q748 1627 748 1639Q748 1650 760 1662L1006 1916Q1030 1938 1036 1942T1059 1946H1195Q1215 1946 1215 1934Z"  />
<glyph unicode="&#x15B;" horiz-adv-x="922" d="M442 139Q551 139 623 181T696 303Q696 353 669 385T569 457L418 543Q351 580 308 621T243 712T221 831Q221 1004 342 1072T647 1141Q742 1141 823 1123T942 1083Q965 1069 965 1055V1047L948 963Q944 932 915 932Q909 932 897 936Q769 987 637 987Q537 987 470 957T403 840Q403 798 429 767T518 700L664 618Q748 569 793 531T858 446T879 324Q879 221 825 145T671 27T440 -14Q362 -14 301 -4T195 20T121 51Q100 65 100 84V98L113 172Q119 203 145 203Q158 203 166 199Q308 139 442 139ZM987 1583Q987 1575 977 1565L698 1307Q685 1294 679 1288T665 1279T647 1276H537Q520 1276 520 1288Q520 1299 532 1311L778 1565Q802 1587 808 1591T831 1595H967Q987 1595 987 1583Z"  />
<glyph unicode="&#x15E;" horiz-adv-x="1094" d="M150 209Q153 221 159 229T178 238Q185 238 197 233Q234 219 279 205T374 180T474 163T575 156Q666 156 729 176T833 232T891 316T909 420Q909 456 898 485T863 543T802 602T711 670L535 791Q426 863 371 948T315 1143Q315 1252 353 1327T457 1448T612 1515T803 1536Q875 1536 937 1528T1050 1509T1137 1484T1192 1462Q1204 1457 1212 1451T1221 1432V1425L1202 1321Q1199 1294 1176 1294Q1172 1294 1168 1294T1159 1296Q1075 1325 990 1346T805 1368Q651 1368 580 1321T508 1165Q508 1125 521 1093T559 1032T615 978T686 926L856 813Q921 769 967 729T1044 645T1088 554T1102 444Q1102 354 1075 272T982 126T808 24T539 -14Q490 -14 438 -8T336 10T242 37T164 70Q147 79 140 85T133 106Q133 110 133 114T135 125L150 209ZM682 -111Q682 -114 680 -118T672 -129L393 -387Q385 -395 379 -401T368 -410T357 -416T342 -418H231Q215 -418 215 -406Q215 -395 227 -383L471 -129Q488 -112 498 -105T526 -98H662Q682 -98 682 -111Z"  />
<glyph unicode="&#x15F;" horiz-adv-x="922" d="M442 139Q494 139 540 149T620 179T675 231T696 303Q696 328 690 347T669 384T630 419T569 457L418 543Q370 570 333 599T271 663T234 739T221 831Q221 925 258 985T357 1080T494 1128T647 1141Q698 1141 744 1136T828 1122T895 1104T942 1083Q950 1078 957 1073T965 1055V1047L948 963Q946 950 938 941T915 932Q910 932 906 933T897 936Q868 948 835 957T768 973T701 983T637 987Q599 987 558 983T482 963T425 918T403 840Q403 796 431 764T518 700L664 618Q723 584 764 555T830 492T867 419T879 324Q879 246 848 184T759 77T620 10T440 -14Q380 -14 330 -8T239 8T169 29T121 51Q110 59 105 65T100 84V98L113 172Q119 203 145 203Q150 203 155 203T166 199Q225 174 293 157T442 139ZM547 -111Q547 -114 545 -118T537 -129L258 -387Q241 -403 233 -410T207 -418H96Q80 -418 80 -406Q80 -395 92 -383L336 -129Q353 -112 363 -105T391 -98H526Q547 -98 547 -111Z"  />
<glyph unicode="&#x160;" horiz-adv-x="1094" d="M135 125L150 209Q157 238 178 238Q185 238 197 233Q281 201 383 179T575 156Q748 156 828 228T909 420Q909 489 865 541T711 670L535 791Q425 864 370 950T315 1143Q315 1349 447 1442T803 1536Q896 1536 972 1524T1103 1495T1192 1462Q1221 1451 1221 1432V1425L1202 1321Q1199 1294 1176 1294Q1165 1294 1159 1296Q1060 1331 978 1349T805 1368Q700 1368 636 1348T540 1283T508 1165Q508 1113 530 1073T588 1000T686 926L856 813Q992 722 1047 642T1102 444Q1102 349 1074 268T980 122T804 22T539 -14Q442 -14 336 10T164 70Q146 80 140 86T133 106Q133 117 135 125ZM1286 1934Q1286 1924 1274 1912L1030 1658Q1011 1639 1002 1633T975 1627H801Q784 1627 776 1633T756 1658L600 1912Q596 1918 596 1928Q596 1946 616 1946H713Q727 1946 735 1939T756 1914L891 1717L1094 1914Q1118 1938 1124 1942T1145 1946H1270Q1286 1946 1286 1934Z"  />
<glyph unicode="&#x161;" horiz-adv-x="922" d="M442 139Q551 139 623 181T696 303Q696 353 669 385T569 457L418 543Q351 580 308 621T243 712T221 831Q221 1004 342 1072T647 1141Q742 1141 823 1123T942 1083Q965 1069 965 1055V1047L948 963Q944 932 915 932Q909 932 897 936Q769 987 637 987Q537 987 470 957T403 840Q403 798 429 767T518 700L664 618Q748 569 793 531T858 446T879 324Q879 221 825 145T671 27T440 -14Q362 -14 301 -4T195 20T121 51Q100 65 100 84V98L113 172Q119 203 145 203Q158 203 166 199Q308 139 442 139ZM1061 1583Q1061 1573 1049 1561L805 1307Q786 1288 777 1282T750 1276H576Q559 1276 551 1282T531 1307L375 1561Q371 1567 371 1577Q371 1595 391 1595H488Q502 1595 510 1588T531 1563L666 1366L869 1563Q893 1587 899 1591T920 1595H1045Q1061 1595 1061 1583Z"  />
<glyph unicode="&#x162;" horiz-adv-x="1176" d="M1382 1491V1485L1366 1395Q1363 1379 1351 1371T1321 1362H922L690 41Q687 22 674 11T645 0H532Q504 0 504 33V41L735 1362H336Q301 1362 301 1389V1395L317 1485Q322 1500 335 1511T365 1522H1350Q1382 1522 1382 1491ZM647 -100Q669 -100 666 -123L661 -139L510 -362Q497 -382 488 -391T455 -401H371Q364 -401 358 -398T354 -385Q356 -382 356 -379T360 -369L459 -139Q467 -118 478 -109T506 -100H647Z"  />
<glyph unicode="&#x163;" horiz-adv-x="735" d="M885 1094V1085L872 1016Q869 998 855 987T825 975H604L477 256Q471 219 471 197Q471 155 491 143T565 131H690Q719 131 719 111V102L707 31Q699 1 664 -4Q596 -14 535 -14Q289 -14 289 180Q289 216 297 260L424 975L229 997Q197 1001 197 1028V1034L207 1090Q214 1126 252 1126H451L483 1327Q489 1361 528 1368L637 1384H643Q668 1384 668 1356V1350L631 1126H852Q867 1126 876 1117T885 1094ZM504 -100Q526 -100 523 -123L518 -139L367 -362Q354 -382 345 -391T312 -401H228Q221 -401 215 -398T211 -385Q213 -382 213 -379T217 -369L316 -139Q324 -118 335 -109T363 -100H504Z"  />
<glyph unicode="&#x164;" horiz-adv-x="1176" d="M1382 1491V1485L1366 1395Q1363 1379 1351 1371T1321 1362H922L690 41Q687 22 674 11T645 0H532Q504 0 504 33V41L735 1362H336Q301 1362 301 1389V1395L317 1485Q322 1500 335 1511T365 1522H1350Q1382 1522 1382 1491ZM1259 1934Q1259 1924 1247 1912L1003 1658Q984 1639 975 1633T948 1627H774Q757 1627 749 1633T729 1658L573 1912Q569 1918 569 1928Q569 1946 589 1946H686Q700 1946 708 1939T729 1914L864 1717L1067 1914Q1091 1938 1097 1942T1118 1946H1243Q1259 1946 1259 1934Z"  />
<glyph unicode="&#x165;" horiz-adv-x="879" d="M1026 1518Q1026 1514 1025 1510T1022 1501L874 1237Q865 1215 855 1207T829 1198H735Q724 1198 722 1203T721 1219Q721 1224 722 1228T725 1237L823 1501Q831 1523 843 1531T870 1540H1008Q1029 1540 1026 1518ZM885 1085L872 1016Q869 999 856 987T825 975H604L477 256Q474 237 473 223T471 197Q471 174 476 161T493 142T523 133T565 131H690Q703 131 711 128T719 111V102L707 31Q703 17 694 8T664 -4Q633 -9 599 -11T535 -14Q482 -14 437 -4T359 30T308 90T289 180Q289 200 290 217T297 260L424 975L229 997Q215 999 206 1006T197 1028V1034L207 1090Q210 1105 222 1115T252 1126H451L483 1327Q486 1343 498 1354T528 1368L637 1384H643Q655 1384 661 1376T668 1356V1350L631 1126H852Q867 1126 876 1117T885 1094V1085Z"  />
<glyph unicode="&#x16A;" horiz-adv-x="1323" d="M1448 1489V1483L1284 553Q1231 255 1079 121T659 -14Q454 -14 338 92T221 403Q221 481 236 553L399 1483Q402 1499 415 1510T444 1522H555Q569 1522 578 1513T588 1489V1483L424 553Q408 465 408 406Q408 320 436 262T527 175T688 145Q783 145 851 170T969 249T1049 379T1096 553L1260 1483Q1263 1498 1276 1510T1305 1522H1415Q1431 1522 1439 1513T1448 1489ZM1313 1792V1786L1300 1716Q1294 1681 1253 1681H663Q629 1681 629 1710V1716L641 1786Q647 1821 688 1821H1278Q1313 1821 1313 1792Z"  />
<glyph unicode="&#x16B;" horiz-adv-x="1108" d="M201 451L313 1085Q320 1126 360 1126H459Q496 1126 496 1098Q496 1093 492 1073L375 414Q365 349 365 311Q365 219 412 179T563 139Q610 139 693 150T836 176L995 1085Q1003 1126 1042 1126H1143Q1176 1126 1176 1096V1085L1001 98Q993 60 956 49Q698 -14 537 -14Q348 -14 267 67T186 299Q186 377 201 451ZM1143 1493V1487L1130 1417Q1124 1382 1083 1382H493Q459 1382 459 1411V1417L471 1487Q477 1522 518 1522H1108Q1143 1522 1143 1493Z"  />
<glyph unicode="&#x16E;" horiz-adv-x="1323" d="M1448 1489V1483L1284 553Q1231 255 1079 121T659 -14Q454 -14 338 92T221 403Q221 481 236 553L399 1483Q402 1499 415 1510T444 1522H555Q569 1522 578 1513T588 1489V1483L424 553Q408 465 408 406Q408 320 436 262T527 175T688 145Q783 145 851 170T969 249T1049 379T1096 553L1260 1483Q1263 1498 1276 1510T1305 1522H1415Q1431 1522 1439 1513T1448 1489ZM1157 1849Q1157 1764 1096 1703T950 1642Q893 1642 845 1670T769 1745T741 1849Q741 1906 769 1953T844 2029T950 2058Q1008 2058 1054 2030T1129 1954T1157 1849ZM1059 1851Q1059 1896 1027 1926T950 1957Q906 1957 875 1926T844 1851Q844 1807 874 1775T950 1742Q995 1742 1027 1774T1059 1851Z"  />
<glyph unicode="&#x16F;" horiz-adv-x="1108" d="M201 451L313 1085Q320 1126 360 1126H459Q496 1126 496 1098Q496 1093 492 1073L375 414Q365 349 365 311Q365 219 412 179T563 139Q610 139 693 150T836 176L995 1085Q1003 1126 1042 1126H1143Q1176 1126 1176 1096V1085L1001 98Q993 60 956 49Q698 -14 537 -14Q348 -14 267 67T186 299Q186 377 201 451ZM993 1440Q993 1355 932 1294T786 1233Q729 1233 681 1261T605 1336T577 1440Q577 1497 605 1544T680 1620T786 1649Q844 1649 890 1621T965 1545T993 1440ZM895 1442Q895 1487 863 1517T786 1548Q742 1548 711 1517T680 1442Q680 1398 710 1366T786 1333Q831 1333 863 1365T895 1442Z"  />
<glyph unicode="&#x170;" horiz-adv-x="1323" d="M1448 1489V1483L1284 553Q1231 255 1079 121T659 -14Q454 -14 338 92T221 403Q221 481 236 553L399 1483Q402 1499 415 1510T444 1522H555Q569 1522 578 1513T588 1489V1483L424 553Q408 465 408 406Q408 320 436 262T527 175T688 145Q783 145 851 170T969 249T1049 379T1096 553L1260 1483Q1263 1498 1276 1510T1305 1522H1415Q1431 1522 1439 1513T1448 1489ZM1497 1934Q1497 1926 1487 1916L1210 1658Q1197 1645 1191 1639T1177 1630T1159 1627H1048Q1032 1627 1032 1639Q1032 1650 1044 1662L1288 1916Q1319 1946 1343 1946H1476Q1497 1946 1497 1934ZM1139 1934Q1139 1927 1128 1916L852 1658Q829 1637 822 1632T801 1627H690Q674 1627 674 1639Q674 1650 686 1662L930 1916Q949 1935 958 1940T985 1946H1118Q1139 1946 1139 1934Z"  />
<glyph unicode="&#x171;" horiz-adv-x="1108" d="M201 451L313 1085Q320 1126 360 1126H459Q496 1126 496 1098Q496 1093 492 1073L375 414Q365 349 365 311Q365 219 412 179T563 139Q610 139 693 150T836 176L995 1085Q1003 1126 1042 1126H1143Q1176 1126 1176 1096V1085L1001 98Q993 60 956 49Q698 -14 537 -14Q348 -14 267 67T186 299Q186 377 201 451ZM1348 1583Q1348 1575 1338 1565L1061 1307Q1048 1294 1042 1288T1028 1279T1010 1276H899Q883 1276 883 1288Q883 1299 895 1311L1139 1565Q1170 1595 1194 1595H1327Q1348 1595 1348 1583ZM990 1583Q990 1576 979 1565L703 1307Q680 1286 673 1281T652 1276H541Q525 1276 525 1288Q525 1299 537 1311L781 1565Q800 1584 809 1589T836 1595H969Q990 1595 990 1583Z"  />
<glyph unicode="&#x172;" horiz-adv-x="1323" d="M1284 553Q1264 442 1237 364T1173 228T1086 128T973 47L752 -86Q723 -104 699 -118T656 -148T628 -182T618 -227Q618 -258 647 -274T745 -291Q770 -291 794 -288T840 -281T875 -274T895 -270Q900 -270 902 -273T903 -287L889 -367Q887 -378 881 -382T862 -389Q860 -390 847 -393T813 -400T764 -407T702 -410Q635 -410 590 -399T517 -366T477 -317T465 -254Q465 -208 480 -173T520 -110T574 -63T633 -27L655 -14Q554 -13 474 13T338 91T251 221T221 403Q221 438 224 475T236 553L399 1483Q402 1498 414 1510T444 1522H555Q570 1522 579 1513T588 1489V1483L424 553Q416 511 412 476T408 406Q408 342 423 294T472 212T559 162T688 145Q783 145 852 171T969 250T1048 378T1096 553L1260 1483Q1263 1498 1275 1510T1305 1522H1415Q1431 1522 1439 1513T1448 1489L1284 553Z"  />
<glyph unicode="&#x173;" horiz-adv-x="1108" d="M909 -367Q907 -378 901 -382T883 -389Q881 -390 868 -393T834 -400T785 -407T723 -410Q656 -410 611 -399T537 -366T497 -317T485 -254Q485 -208 498 -174T535 -113T588 -66T653 -27L698 -2Q603 -14 537 -14Q438 -14 371 8T262 72T204 170T186 299Q186 334 189 372T201 451L313 1085Q316 1102 326 1114T360 1126H459Q477 1126 486 1118T496 1098Q496 1095 495 1088T492 1073L375 414Q370 385 368 359T365 311Q365 216 413 178T563 139Q588 139 621 141T690 149T764 161T836 176L995 1085Q998 1101 1008 1113T1042 1126H1143Q1161 1126 1168 1118T1176 1096V1085L1001 98Q996 69 992 58T973 37L772 -86Q730 -112 704 -130T662 -163T642 -193T637 -227Q637 -262 667 -276T766 -291Q790 -291 815 -288T860 -281T895 -274T915 -270Q927 -270 924 -287L909 -367Z"  />
<glyph unicode="&#x178;" horiz-adv-x="1161" d="M1370 1497Q1370 1488 1360 1470L915 758Q847 648 782 623L680 41Q677 24 664 12T635 0H522Q494 0 494 33V41L596 623Q538 646 508 758L319 1470Q317 1477 317 1485Q317 1522 356 1522H475Q484 1522 494 1513T508 1493L672 829Q686 776 711 776Q733 776 766 829L1169 1493Q1188 1522 1208 1522H1339Q1370 1522 1370 1497ZM1180 1853V1847L1149 1681Q1146 1664 1132 1653T1102 1642H1022Q1007 1642 997 1650T987 1675V1681L1018 1847Q1021 1861 1035 1874T1065 1888H1145Q1159 1888 1169 1878T1180 1853ZM822 1853V1847L791 1681Q788 1665 774 1654T744 1642H664Q629 1642 629 1675V1681L660 1847Q663 1861 677 1874T707 1888H787Q802 1888 812 1878T822 1853Z"  />
<glyph unicode="&#x179;" horiz-adv-x="1190" d="M1305 1370Q1305 1300 1249 1235L346 197Q338 188 338 180Q338 168 354 168H1085Q1120 168 1120 139V133L1104 37Q1101 20 1088 10T1057 0H324Q244 0 197 45T150 156Q150 239 209 307L1087 1325Q1096 1333 1096 1343Q1096 1356 1077 1356H408Q373 1356 373 1384V1391L389 1487Q392 1503 405 1512T436 1522H1126Q1184 1522 1223 1502T1284 1447T1305 1370ZM1221 1934Q1221 1926 1211 1916L932 1658Q919 1645 913 1639T899 1630T881 1627H771Q754 1627 754 1639Q754 1650 766 1662L1012 1916Q1036 1938 1042 1942T1065 1946H1201Q1221 1946 1221 1934Z"  />
<glyph unicode="&#x17A;" horiz-adv-x="922" d="M993 985Q993 914 938 856L297 190Q283 176 283 166Q283 152 303 152H825Q858 152 858 119V111L846 41Q843 23 829 12T799 0H281Q195 0 149 41T102 143Q102 216 150 264L803 942Q815 954 815 963Q815 975 795 975H291Q258 975 258 1010V1016L270 1085Q273 1103 286 1114T317 1126H829Q886 1126 922 1108T976 1057T993 985ZM1038 1583Q1038 1575 1028 1565L749 1307Q736 1294 730 1288T716 1279T698 1276H588Q571 1276 571 1288Q571 1299 583 1311L829 1565Q853 1587 859 1591T882 1595H1018Q1038 1595 1038 1583Z"  />
<glyph unicode="&#x17B;" horiz-adv-x="1190" d="M1305 1370Q1305 1300 1249 1235L346 197Q338 188 338 180Q338 168 354 168H1085Q1120 168 1120 139V133L1104 37Q1101 20 1088 10T1057 0H324Q244 0 197 45T150 156Q150 239 209 307L1087 1325Q1096 1333 1096 1343Q1096 1356 1077 1356H408Q373 1356 373 1384V1391L389 1487Q392 1503 405 1512T436 1522H1126Q1184 1522 1223 1502T1284 1447T1305 1370ZM1014 1872V1866L983 1694Q980 1676 966 1665T936 1653H838Q824 1653 815 1663T805 1687V1694L836 1866Q839 1881 853 1893T883 1905H981Q995 1905 1004 1896T1014 1872Z"  />
<glyph unicode="&#x17C;" horiz-adv-x="922" d="M993 985Q993 914 938 856L297 190Q283 176 283 166Q283 152 303 152H825Q858 152 858 119V111L846 41Q843 23 829 12T799 0H281Q195 0 149 41T102 143Q102 216 150 264L803 942Q815 954 815 963Q815 975 795 975H291Q258 975 258 1010V1016L270 1085Q273 1103 286 1114T317 1126H829Q886 1126 922 1108T976 1057T993 985ZM782 1526V1520L751 1348Q748 1330 734 1319T704 1307H606Q592 1307 583 1317T573 1341V1348L604 1520Q607 1535 621 1547T651 1559H749Q763 1559 772 1550T782 1526Z"  />
<glyph unicode="&#x17D;" horiz-adv-x="1190" d="M1305 1370Q1305 1300 1249 1235L346 197Q338 188 338 180Q338 168 354 168H1085Q1120 168 1120 139V133L1104 37Q1101 20 1088 10T1057 0H324Q244 0 197 45T150 156Q150 239 209 307L1087 1325Q1096 1333 1096 1343Q1096 1356 1077 1356H408Q373 1356 373 1384V1391L389 1487Q392 1503 405 1512T436 1522H1126Q1184 1522 1223 1502T1284 1447T1305 1370ZM1286 1934Q1286 1924 1274 1912L1030 1658Q1011 1639 1002 1633T975 1627H801Q784 1627 776 1633T756 1658L600 1912Q596 1918 596 1928Q596 1946 616 1946H713Q727 1946 735 1939T756 1914L891 1717L1094 1914Q1118 1938 1124 1942T1145 1946H1270Q1286 1946 1286 1934Z"  />
<glyph unicode="&#x17E;" horiz-adv-x="922" d="M993 985Q993 914 938 856L297 190Q283 176 283 166Q283 152 303 152H825Q858 152 858 119V111L846 41Q843 23 829 12T799 0H281Q195 0 149 41T102 143Q102 216 150 264L803 942Q815 954 815 963Q815 975 795 975H291Q258 975 258 1010V1016L270 1085Q273 1103 286 1114T317 1126H829Q886 1126 922 1108T976 1057T993 985ZM1108 1583Q1108 1573 1096 1561L852 1307Q833 1288 824 1282T797 1276H623Q606 1276 598 1282T578 1307L422 1561Q418 1567 418 1577Q418 1595 438 1595H535Q549 1595 557 1588T578 1563L713 1366L916 1563Q940 1587 946 1591T967 1595H1092Q1108 1595 1108 1583Z"  />
<glyph unicode="&#x192;" horiz-adv-x="1206" d="M1241 1522Q1241 1520 1241 1518T1239 1513L1225 1448Q1219 1417 1174 1417H1061Q986 1417 952 1388T897 1278L805 877H1098Q1130 877 1130 848V840L1114 764Q1111 748 1097 738T1065 727H772L606 -4Q583 -104 533 -167T414 -258T254 -285Q179 -285 113 -274Q80 -269 80 -250Q81 -247 81 -245T82 -240L96 -174Q102 -143 147 -143H260Q334 -143 370 -113T424 -4L590 727H328Q295 727 295 756V764L311 840Q314 854 328 865T360 877H623L715 1278Q751 1431 840 1495T1067 1559Q1124 1559 1206 1548Q1241 1542 1241 1522Z"  />
<glyph unicode="&#x218;" horiz-adv-x="1094" d="M135 125L150 209Q157 238 178 238Q185 238 197 233Q281 201 383 179T575 156Q748 156 828 228T909 420Q909 489 865 541T711 670L535 791Q425 864 370 950T315 1143Q315 1349 447 1442T803 1536Q896 1536 972 1524T1103 1495T1192 1462Q1221 1451 1221 1432V1425L1202 1321Q1199 1294 1176 1294Q1165 1294 1159 1296Q1060 1331 978 1349T805 1368Q700 1368 636 1348T540 1283T508 1165Q508 1113 530 1073T588 1000T686 926L856 813Q992 722 1047 642T1102 444Q1102 349 1074 268T980 122T804 22T539 -14Q442 -14 336 10T164 70Q146 80 140 86T133 106Q133 117 135 125ZM639 -100Q661 -100 658 -123L653 -139L502 -362Q489 -382 480 -391T447 -401H363Q356 -401 350 -398T346 -385Q348 -382 348 -379T352 -369L451 -139Q459 -118 470 -109T498 -100H639Z"  />
<glyph unicode="&#x219;" horiz-adv-x="922" d="M442 139Q551 139 623 181T696 303Q696 353 669 385T569 457L418 543Q351 580 308 621T243 712T221 831Q221 1004 342 1072T647 1141Q742 1141 823 1123T942 1083Q965 1069 965 1055V1047L948 963Q944 932 915 932Q909 932 897 936Q769 987 637 987Q537 987 470 957T403 840Q403 798 429 767T518 700L664 618Q748 569 793 531T858 446T879 324Q879 221 825 145T671 27T440 -14Q362 -14 301 -4T195 20T121 51Q100 65 100 84V98L113 172Q119 203 145 203Q158 203 166 199Q308 139 442 139ZM510 -100Q532 -100 529 -123L524 -139L373 -362Q360 -382 351 -391T318 -401H234Q227 -401 221 -398T217 -385Q219 -382 219 -379T223 -369L322 -139Q330 -118 341 -109T369 -100H510Z"  />
<glyph unicode="&#x21A;" horiz-adv-x="1176" d="M1382 1485L1366 1395Q1363 1379 1351 1371T1321 1362H922L690 41Q687 24 675 12T645 0H532Q518 0 511 9T504 33V41L735 1362H336Q320 1362 311 1368T301 1389V1395L317 1485Q321 1500 334 1511T365 1522H1350Q1365 1522 1373 1514T1382 1491V1485ZM647 -100Q669 -100 666 -123L662 -139L510 -362Q498 -382 488 -391T455 -401H371Q364 -401 358 -398T354 -385Q356 -382 356 -379T360 -369L459 -139Q467 -118 478 -109T506 -100H647Z"  />
<glyph unicode="&#x21B;" horiz-adv-x="735" d="M885 1085L872 1016Q869 999 856 987T825 975H604L477 256Q474 237 473 223T471 197Q471 174 476 161T493 142T523 133T565 131H690Q703 131 711 128T719 111V102L707 31Q703 17 694 8T664 -4Q633 -9 599 -11T535 -14Q482 -14 437 -4T359 30T308 90T289 180Q289 200 290 217T297 260L424 975L229 997Q215 999 206 1006T197 1028V1034L207 1090Q210 1105 222 1115T252 1126H451L483 1327Q486 1343 498 1354T528 1368L637 1384H643Q655 1384 661 1376T668 1356V1350L631 1126H852Q867 1126 876 1117T885 1094V1085ZM504 -100Q525 -100 522 -123L518 -139L367 -362Q354 -382 344 -391T311 -401H227Q221 -401 215 -398T211 -385Q213 -382 213 -379T217 -369L315 -139Q323 -118 335 -109T362 -100H504Z"  />
<glyph unicode="&#x2C6;" horiz-adv-x="731" d="M934 1294Q934 1276 913 1276H813Q799 1276 791 1282T770 1307L639 1505L432 1307Q412 1287 404 1282T381 1276H268Q252 1276 252 1288Q252 1299 264 1311L506 1565Q536 1595 559 1595H733Q761 1595 780 1565L930 1311Q934 1305 934 1294Z"  />
<glyph unicode="&#x2C7;" horiz-adv-x="731" d="M989 1583Q989 1573 977 1561L733 1307Q714 1288 705 1282T678 1276H504Q487 1276 479 1282T459 1307L303 1561Q299 1567 299 1577Q299 1595 319 1595H416Q430 1595 438 1588T459 1563L594 1366L797 1563Q821 1587 827 1591T848 1595H973Q989 1595 989 1583Z"  />
<glyph unicode="&#x2C9;" horiz-adv-x="731" d="M965 1493V1487L952 1417Q946 1382 905 1382H315Q281 1382 281 1411V1417L293 1487Q299 1522 340 1522H930Q965 1522 965 1493Z"  />
<glyph unicode="&#x2D8;" horiz-adv-x="731" d="M977 1577Q977 1567 975 1561Q946 1420 844 1346T612 1272Q554 1272 499 1288T400 1341T332 1433T307 1561Q307 1595 336 1595H408Q434 1595 434 1563Q434 1399 612 1399Q704 1399 763 1442T844 1563Q849 1581 855 1588T879 1595H958Q977 1595 977 1577Z"  />
<glyph unicode="&#x2D9;" horiz-adv-x="731" d="M723 1526V1520L692 1348Q689 1330 675 1319T645 1307H547Q533 1307 524 1317T514 1341V1348L545 1520Q548 1535 562 1547T592 1559H690Q704 1559 713 1550T723 1526Z"  />
<glyph unicode="&#x2DA;" horiz-adv-x="731" d="M811 1440Q811 1355 750 1294T604 1233Q547 1233 499 1261T423 1336T395 1440Q395 1497 423 1544T498 1620T604 1649Q662 1649 708 1621T783 1545T811 1440ZM713 1442Q713 1487 681 1517T604 1548Q560 1548 529 1517T498 1442Q498 1398 528 1366T604 1333Q649 1333 681 1365T713 1442Z"  />
<glyph unicode="&#x2DB;" horiz-adv-x="717" d="M555 -270V-274L543 -350Q541 -367 516 -373Q409 -399 344 -399Q228 -399 173 -340T117 -186Q117 -153 123 -123Q135 -49 182 57Q187 68 193 72T215 76H297Q311 76 311 68Q311 63 307 51Q269 -50 258 -123Q252 -150 252 -176Q252 -228 284 -254T393 -281Q441 -281 526 -262Q532 -260 545 -260Q555 -260 555 -270Z"  />
<glyph unicode="&#x2DC;" horiz-adv-x="977" d="M1114 1550V1544L1106 1497Q1087 1387 1039 1335T897 1282Q796 1282 741 1335L645 1425Q616 1454 602 1462T569 1470Q501 1470 487 1376L481 1333Q477 1298 446 1298H377Q350 1298 350 1327V1333L356 1376Q387 1599 569 1599Q616 1599 650 1585T721 1536L831 1436Q863 1407 897 1407Q929 1407 947 1427T975 1497L983 1544Q990 1579 1018 1579H1087Q1114 1579 1114 1550Z"  />
<glyph unicode="&#x2DD;" horiz-adv-x="731" d="M1106 1583Q1106 1575 1096 1565L819 1307Q806 1294 800 1288T786 1279T768 1276H657Q641 1276 641 1288Q641 1299 653 1311L897 1565Q928 1595 952 1595H1085Q1106 1595 1106 1583ZM748 1583Q748 1576 737 1565L461 1307Q438 1286 431 1281T410 1276H299Q283 1276 283 1288Q283 1299 295 1311L539 1565Q558 1584 567 1589T594 1595H727Q748 1595 748 1583Z"  />
<glyph unicode="&#x3C0;" horiz-adv-x="1114" d="M1225 961H1083L963 274Q952 221 952 190Q952 149 972 135T1038 121H1087Q1104 121 1104 106V98L1087 10Q1085 -3 1081 -7T1061 -16Q1014 -25 977 -25Q776 -25 776 178Q776 229 784 274L905 961H565L403 41Q394 0 369 0H246Q219 0 219 27Q220 31 220 34T221 41L383 961H242Q228 961 223 965T217 979V991L236 1094Q239 1113 246 1119T270 1126H1253Q1282 1126 1282 1106Q1282 1102 1282 1100T1280 1094L1262 991Q1259 974 1251 968T1225 961Z"  />
<glyph unicode="&#x2013;" horiz-adv-x="838" d="M928 530Q921 496 883 496H203Q170 496 170 524V530L186 627Q189 642 202 653T233 664H913Q930 664 938 656T946 635Q946 633 946 631T944 627L928 530Z"  />
<glyph unicode="&#x2014;" horiz-adv-x="1106" d="M1686 530Q1678 496 1640 496H203Q170 496 170 530L186 627Q189 642 202 653T233 664H1671Q1704 664 1704 639Q1704 636 1704 633T1702 627L1686 530Z"  />
<glyph unicode="&#x2018;" horiz-adv-x="348" d="M590 1520Q590 1513 586 1501L440 1114Q427 1075 393 1075H256Q238 1075 238 1094Q238 1098 242 1114L436 1501Q449 1525 457 1532T481 1540H575Q590 1540 590 1528V1520Z"  />
<glyph unicode="&#x2019;" horiz-adv-x="348" d="M590 1518Q590 1513 586 1501L391 1114Q375 1075 346 1075H252Q238 1075 238 1096Q238 1102 242 1114L387 1501Q400 1540 434 1540H571Q590 1540 590 1518Z"  />
<glyph unicode="&#x201A;" horiz-adv-x="348" d="M391 248Q391 240 383 225L162 -162Q151 -182 141 -191T115 -201H14Q-6 -201 -6 -186Q-6 -168 0 -162L184 225Q203 264 231 264H367Q391 264 391 248Z"  />
<glyph unicode="&#x201C;" horiz-adv-x="655" d="M913 1520Q913 1513 909 1501L764 1114Q751 1075 717 1075H580Q561 1075 561 1094Q561 1098 565 1114L760 1501Q770 1522 779 1531T805 1540H899Q911 1540 912 1537T913 1520ZM590 1520Q590 1513 586 1501L440 1114Q427 1075 393 1075H256Q238 1075 238 1094Q238 1098 242 1114L436 1501Q449 1525 457 1532T481 1540H575Q587 1540 588 1537T590 1520Z"  />
<glyph unicode="&#x201D;" horiz-adv-x="655" d="M913 1518Q913 1513 909 1501L715 1114Q703 1092 695 1084T670 1075H575Q561 1075 561 1090Q561 1098 565 1114L711 1501Q724 1540 758 1540H895Q913 1540 913 1524V1518ZM590 1518Q590 1513 586 1501L391 1114Q378 1090 370 1083T346 1075H252Q238 1075 238 1090Q238 1098 242 1114L387 1501Q400 1540 434 1540H571Q590 1540 590 1524V1518Z"  />
<glyph unicode="&#x201E;" horiz-adv-x="655" d="M745 248Q745 237 737 225L516 -162Q504 -184 495 -192T469 -201H369Q348 -201 348 -182Q348 -171 354 -162L539 225Q556 264 586 264H721Q745 264 745 248ZM360 248Q360 240 352 225L131 -162Q110 -201 84 -201H-16Q-35 -201 -35 -182Q-35 -168 -29 -162L154 225Q171 264 201 264H336Q360 264 360 248Z"  />
<glyph unicode="&#x2020;" horiz-adv-x="795" d="M930 1112V1106L913 1014Q907 981 868 981H645L481 41Q474 0 440 0H324Q297 0 297 29Q298 32 298 34T299 41L463 981H270Q238 981 238 1008V1014L254 1106Q260 1137 299 1137H492L555 1501Q558 1517 569 1528T598 1540H713Q737 1540 737 1511V1501L674 1137H897Q930 1137 930 1112Z"  />
<glyph unicode="&#x2021;" horiz-adv-x="795" d="M930 1112V1106L913 1014Q907 981 868 981H645L598 707H821Q854 707 854 682V676L838 584Q835 568 823 560T793 551H569L481 41Q474 0 440 0H324Q297 0 297 29Q298 32 298 34T299 41L387 551H195Q162 551 162 578V584L178 676Q184 707 223 707H416L463 981H270Q238 981 238 1008V1014L254 1106Q260 1137 299 1137H492L555 1501Q558 1517 569 1528T598 1540H713Q737 1540 737 1511V1501L674 1137H897Q930 1137 930 1112Z"  />
<glyph unicode="&#x2022;" horiz-adv-x="823" d="M229 539V973Q229 988 242 1001T270 1014H705Q721 1014 733 1002T745 973V539Q745 521 733 510T705 498H270Q255 498 242 510T229 539Z"  />
<glyph unicode="&#x2026;" horiz-adv-x="1208" d="M1149 39Q1146 22 1133 11T1104 0H989Q976 0 965 9T954 33V39L987 231Q990 246 1005 258T1036 270H1151Q1166 270 1174 262T1182 240V231L1149 39ZM729 39Q726 23 712 12T682 0H567Q555 0 545 10T535 33V39L567 231Q570 245 584 257T614 270H729Q744 270 753 261T762 238V231L729 39ZM307 39Q304 22 291 11T262 0H147Q136 0 125 9T113 33V39L145 231Q149 247 163 258T195 270H309Q323 270 331 262T340 240V231L307 39Z"  />
<glyph unicode="&#x2030;" horiz-adv-x="2290" d="M803 995Q748 680 475 680Q362 680 304 746T246 932Q246 972 256 1034L289 1225Q343 1536 616 1536Q731 1536 788 1474T846 1296Q846 1251 836 1186L803 995ZM1569 1477L455 25Q433 0 410 0H315Q287 0 287 16Q287 28 301 45L1415 1497Q1434 1522 1462 1522H1556Q1583 1522 1583 1507Q1583 1500 1569 1477ZM674 1014L707 1204Q715 1245 715 1284Q715 1413 600 1413Q454 1413 418 1204L385 1014Q377 956 377 936Q377 805 494 805Q637 805 674 1014ZM1575 301Q1520 -14 1247 -14Q1134 -14 1076 52T1018 238Q1018 278 1028 340L1061 530Q1115 842 1389 842Q1503 842 1560 780T1618 602Q1618 555 1608 492L1575 301ZM1446 319L1479 510Q1487 551 1487 590Q1487 719 1372 719Q1227 719 1190 510L1157 319Q1149 263 1149 242Q1149 111 1266 111Q1409 111 1446 319ZM2251 301Q2196 -14 1923 -14Q1810 -14 1752 52T1694 238Q1694 278 1704 340L1737 530Q1791 842 2064 842Q2179 842 2236 780T2294 602Q2294 555 2284 492L2251 301ZM2122 319L2154 510Q2163 550 2163 590Q2163 719 2048 719Q1902 719 1866 510L1833 319Q1825 263 1825 242Q1825 111 1942 111Q2085 111 2122 319Z"  />
<glyph unicode="&#x2039;" horiz-adv-x="692" d="M653 162Q653 143 629 143H494Q470 143 455 164L168 510Q156 528 156 567Q164 603 188 625L596 971Q619 991 643 991H778Q797 991 797 973Q794 956 780 946L348 567L647 188Q653 181 653 162Z"  />
<glyph unicode="&#x203A;" horiz-adv-x="692" d="M729 510L324 164Q298 143 276 143H141Q121 143 121 162Q124 176 139 188L569 567L272 946Q264 957 264 973Q268 991 291 991H426Q448 991 465 971L750 625Q764 608 764 581Q764 536 729 510Z"  />
<glyph unicode="&#x2044;" horiz-adv-x="1509" d="M1452 1511Q1452 1500 1438 1483L326 33Q307 9 297 1T272 -8H172Q156 -8 156 4Q156 18 168 33L1280 1483Q1302 1508 1311 1515T1333 1522H1438Q1452 1522 1452 1511Z"  />
<glyph unicode="&#x20AC;" horiz-adv-x="1206" d="M1370 1481V1477L1352 1372Q1352 1362 1341 1356Q1332 1350 1323 1350H1317Q1300 1352 1281 1354T1231 1358Q1121 1368 1010 1368Q939 1368 870 1348T741 1283T633 1161T557 981H1139Q1154 981 1165 972T1176 950Q1176 944 1174 940Q1161 910 1153 889Q1146 871 1133 860T1104 848H526Q522 821 517 793T508 738T498 682H1022Q1034 682 1042 675T1051 655Q1051 653 1047 641Q1034 611 1026 590Q1019 572 1006 561T977 549H477Q473 499 473 481Q473 308 561 231T795 154Q907 154 1104 170H1112Q1139 170 1139 147V137Q1137 123 1133 101T1124 53Q1118 20 1075 12Q998 -2 938 -8T768 -14Q685 -14 601 12T446 95T332 246T289 463Q289 518 293 549H211Q178 549 178 584V590Q178 591 181 612T186 641Q189 658 203 670T236 682H307Q318 742 324 781T336 848H264Q250 848 240 858Q231 866 231 883V887V889Q233 902 236 917T240 940Q243 958 256 969T287 981H362Q441 1284 624 1410T1036 1536Q1141 1536 1251 1518Q1267 1516 1294 1511T1341 1503Q1370 1499 1370 1481Z"  />
<glyph unicode="&#x2122;" horiz-adv-x="1030" d="M610 1470Q610 1452 588 1452H459V1006Q459 997 453 991T438 985H395Q375 985 375 1006V1452H244Q223 1452 223 1470V1503Q223 1512 229 1518T244 1524H588Q597 1524 603 1519T610 1503V1470ZM899 1198Q871 1198 856 1211T823 1257L745 1425H743V999Q743 985 729 985H680Q666 985 666 999V1501Q666 1507 672 1514T686 1522H768Q785 1522 791 1509L891 1278Q894 1270 899 1270Q904 1270 907 1278L1008 1509Q1013 1522 1030 1522H1112Q1119 1522 1126 1515T1133 1501V999Q1133 985 1118 985H1069Q1055 985 1055 999V1425H1053L975 1257Q961 1228 944 1213T899 1198Z"  />
<glyph unicode="&#x2126;" horiz-adv-x="1188" d="M1145 43Q1137 0 1092 0H721Q684 0 684 33V43L725 274Q729 299 736 309T764 326Q860 358 927 418T1034 563T1096 764L1128 944Q1143 1016 1143 1085Q1143 1245 1068 1312T848 1380Q683 1380 572 1281T416 944L383 764Q373 697 369 621Q369 510 414 438T563 326Q584 316 584 299Q584 285 582 274L541 43Q535 0 492 0H121Q80 0 80 33V43L92 113Q100 154 147 154H395L408 229Q294 281 240 387T186 627Q186 699 199 764L231 944Q269 1147 351 1279T559 1479T854 1546Q1009 1546 1114 1494T1273 1339T1327 1094Q1327 1075 1322 1018T1313 944L1280 764Q1243 555 1150 425T883 229L870 154H1118Q1159 154 1159 125Q1159 117 1157 113L1145 43Z"  />
<glyph unicode="&#x2202;" horiz-adv-x="1114" d="M1206 971Q1196 876 1171 747T1112 496Q1039 244 893 112T520 -20Q339 -20 249 65T158 305Q158 325 162 371Q169 454 213 618Q248 747 303 840T431 993T591 1079T786 1106Q863 1106 932 1081T1038 1008Q1038 1017 1038 1023T1036 1036Q1038 1059 1038 1106Q1038 1281 957 1383T659 1485Q548 1485 453 1468H440Q420 1468 420 1483V1489L434 1548Q439 1581 473 1589Q574 1610 694 1610Q874 1610 989 1549T1158 1372T1212 1094Q1212 1036 1206 971ZM979 727Q981 743 981 772Q981 865 932 911T772 958Q490 958 395 600Q349 419 344 369Q342 354 342 326Q342 125 551 125Q697 125 787 217T924 485Q973 661 979 727Z"  />
<glyph unicode="&#x2206;" horiz-adv-x="1276" d="M1284 39Q1284 0 1249 0H135Q106 0 106 27Q106 39 111 47L725 1380Q796 1536 961 1536Q1004 1536 1042 1523T1107 1475T1141 1382L1284 47V39ZM1083 162L969 1337Q966 1374 936 1374Q905 1374 889 1337L362 162H1083Z"  />
<glyph unicode="&#x220F;" horiz-adv-x="1296" d="M1491 1374Q1486 1354 1464 1354H1317L1057 -117Q1054 -135 1042 -144T1016 -154H901Q872 -154 872 -127V-117L1133 1354H616L356 -117Q351 -154 315 -154H201Q172 -154 172 -125V-117L432 1354H283Q264 1354 264 1366V1374L287 1499Q288 1513 293 1517T313 1522H1495Q1513 1522 1513 1507V1499L1491 1374Z"  />
<glyph unicode="&#x2211;" horiz-adv-x="1014" d="M901 -121Q896 -154 866 -154H96Q68 -154 68 -129Q69 -125 69 -122T70 -113L86 -18Q93 12 106 31L608 659Q618 673 618 684Q621 688 621 698Q621 705 618 709L338 1337Q332 1354 332 1366Q332 1378 334 1386L350 1481Q357 1522 393 1522H1163Q1188 1522 1188 1503Q1188 1495 1186 1489L1167 1391Q1163 1372 1157 1364T1133 1356H563Q553 1356 553 1346Q553 1341 555 1337L813 754Q821 736 821 725Q821 721 821 719T819 713L809 655Q804 633 788 614L324 31Q319 27 319 20Q319 12 328 12H897Q922 12 922 -10Q922 -14 922 -16T920 -23L901 -121Z"  />
<glyph unicode="&#x2212;" horiz-adv-x="1186" d="M1229 752Q1229 719 1188 719H338Q297 719 297 752V850Q297 865 308 874T338 883H1188Q1204 883 1216 874T1229 850V752Z"  />
<glyph unicode="&#x2215;" horiz-adv-x="1509" d="M1452 1511Q1452 1500 1438 1483L326 33Q307 9 297 1T272 -8H172Q156 -8 156 4Q156 18 168 33L1280 1483Q1302 1508 1311 1515T1333 1522H1438Q1452 1522 1452 1511Z"  />
<glyph unicode="&#x2219;" horiz-adv-x="406" d="M436 707Q433 688 420 677T391 666H276Q244 666 244 700V707L279 897Q280 912 293 924T324 936H438Q453 936 462 928T471 903V897L436 707Z"  />
<glyph unicode="&#x221A;" horiz-adv-x="1470" d="M1755 1759L840 -121Q824 -154 782 -154H631Q614 -154 607 -146T596 -117L477 809Q475 824 472 827T457 831H258Q240 831 240 850V856L256 952Q262 981 285 981H588Q621 981 623 950L737 -16L1587 1757Q1597 1777 1602 1782T1626 1788H1739Q1761 1788 1761 1776Q1761 1768 1755 1759Z"  />
<glyph unicode="&#x221E;" horiz-adv-x="1225" d="M1290 745Q1290 561 1223 431T975 301H963Q804 301 709 408Q636 297 510 297H498Q318 297 258 425T197 743V795Q197 983 264 1112T510 1241H524Q671 1241 774 1133Q812 1192 862 1217T979 1243H991Q1114 1243 1181 1177T1269 1015T1290 797V745ZM1143 745V797Q1143 952 1115 1034T991 1116H979Q940 1116 916 1100T873 1045T841 940T811 768Q781 576 764 524Q850 426 963 426H975Q1071 426 1107 513T1143 745ZM717 1010Q628 1114 522 1114H512Q416 1114 381 1027T346 795V743Q346 643 355 577T397 467T498 424H510Q558 424 588 456T639 568T678 780Q705 969 717 1010Z"  />
<glyph unicode="&#x222B;" horiz-adv-x="895" d="M1077 1434Q1074 1412 1051 1415Q977 1419 897 1419Q842 1419 815 1405T776 1355T750 1243L512 -96Q485 -255 419 -335T186 -416Q84 -416 6 -395Q-9 -392 -9 -380Q-9 -373 -8 -369L6 -287Q9 -265 31 -268Q109 -272 186 -272Q241 -272 268 -258T308 -209T334 -96L571 1243Q588 1342 618 1412T714 1522T897 1563Q993 1563 1075 1542Q1093 1539 1093 1526Q1093 1520 1092 1516L1077 1434Z"  />
<glyph unicode="&#x2248;" horiz-adv-x="1186" d="M1053 1239H1122Q1151 1239 1151 1217Q1151 1206 1149 1202L1141 1157Q1122 1049 1075 996T936 942Q834 942 776 995L680 1085Q651 1114 636 1122T592 1130Q534 1130 522 1036L516 993Q512 958 481 958H412Q385 958 385 989V993L391 1036Q422 1260 600 1260Q649 1260 682 1247T756 1196L866 1096Q897 1067 932 1067Q965 1067 983 1087T1010 1157L1018 1204Q1025 1239 1053 1239ZM991 727H1061Q1090 727 1090 705Q1090 696 1087 692L1079 645Q1060 535 1013 483T874 430Q773 430 715 483L618 573Q589 602 574 610T530 618Q473 618 461 524L455 481Q453 466 444 456T420 446H350Q324 446 324 477V481L330 524Q360 748 539 748Q587 748 621 734T694 684L805 584Q835 555 870 555Q902 555 920 575T948 645L956 692Q965 727 991 727Z"  />
<glyph unicode="&#x2260;" horiz-adv-x="1186" d="M1192 979Q1192 946 1151 946H895L797 657H1151Q1192 657 1192 625V526Q1192 494 1151 494H739L586 39Q575 0 535 0H442Q428 0 420 12T416 39L569 494H362Q322 494 322 526V528V535V625Q322 657 362 657H627L725 946H362Q322 946 322 979V1069V1073V1077Q322 1110 362 1110H782L915 1495Q928 1534 967 1534H1059Q1075 1534 1082 1522T1085 1495L952 1110H1151Q1192 1110 1192 1077V1073V1069V987V981V979Z"  />
<glyph unicode="&#x2264;" horiz-adv-x="1186" d="M1016 334Q1016 311 989 311H848Q820 311 799 336L387 748Q360 769 360 815Q360 832 367 851T387 881L799 1292Q820 1317 848 1317H989Q1016 1317 1016 1294Q1016 1277 999 1264L549 815L999 365Q1016 351 1016 334ZM1190 33Q1190 0 1149 0H299Q258 0 258 33V100Q258 133 299 133H1149Q1190 133 1190 100V33Z"  />
<glyph unicode="&#x2265;" horiz-adv-x="1186" d="M432 334Q432 351 449 365L899 815L449 1264Q432 1277 432 1294Q432 1317 459 1317H600Q628 1317 649 1292L1061 881Q1074 871 1080 851T1087 815Q1087 799 1081 779T1061 748L649 336Q628 311 600 311H459Q432 311 432 334ZM258 33V100Q258 133 299 133H1149Q1190 133 1190 100V33Q1190 0 1149 0H299Q258 0 258 33Z"  />
<glyph unicode="&#x25CA;" horiz-adv-x="1030" d="M1065 737Q1057 691 1001 635L618 246Q559 186 522 186Q481 186 444 246L197 635Q168 684 168 719Q168 725 170 737Q178 783 233 842L623 1241Q666 1286 715 1286Q763 1286 788 1241L1038 842Q1067 797 1067 758Q1067 751 1065 737ZM897 735Q897 760 883 786L715 1063Q700 1090 680 1090Q665 1090 635 1063L369 786Q343 758 340 735Q340 705 354 680L518 416Q542 383 555 383Q570 383 604 416L862 680Q891 710 897 735Z"  />
<glyph unicode="&#xF001;" horiz-adv-x="1212" d="M1335 1520V1511L1307 1348Q1304 1331 1289 1319T1257 1307H1153Q1140 1307 1130 1316T1120 1339V1348L1149 1511Q1152 1528 1166 1540T1198 1552H1303Q1335 1552 1335 1520ZM1255 1094V1085L1073 41Q1070 23 1056 12T1024 0H926Q911 0 902 9T893 33V41L1075 1085Q1078 1102 1092 1114T1124 1126H1223Q1255 1126 1255 1094ZM952 1520V1513L940 1446Q934 1415 899 1415H801Q724 1415 693 1390T645 1274L618 1126H840Q872 1126 872 1096V1090L860 1018Q853 983 813 983H594L412 -49Q392 -165 346 -227T233 -312T76 -334Q10 -334 -45 -324Q-78 -316 -78 -297V-291L-66 -223Q-59 -193 -23 -193H74Q125 -193 155 -180T203 -136T231 -49L414 983L223 997Q190 1000 190 1026V1032L201 1090Q208 1126 246 1126H438L465 1274Q497 1449 573 1504T801 1559Q849 1559 920 1546Q952 1540 952 1520Z"  />
<glyph unicode="&#xF002;" horiz-adv-x="1208" d="M1329 1509V1501L1073 41Q1069 23 1057 12T1028 0H922Q893 0 893 33V41L1149 1501Q1152 1516 1164 1528T1194 1540H1300Q1329 1540 1329 1509ZM952 1520V1513L940 1446Q934 1415 899 1415H801Q724 1415 693 1390T645 1274L618 1126H840Q872 1126 872 1096V1090L860 1018Q853 983 813 983H594L412 -49Q392 -165 346 -227T233 -312T76 -334Q10 -334 -45 -324Q-78 -316 -78 -297V-291L-66 -223Q-59 -193 -23 -193H74Q125 -193 155 -180T203 -136T231 -49L414 983L223 997Q190 1000 190 1026V1032L201 1090Q208 1126 246 1126H438L465 1274Q497 1449 573 1504T801 1559Q849 1559 920 1546Q952 1540 952 1520Z"  />
<glyph unicode="&#xF006;" horiz-adv-x="1114" d="M1225 961H1083L963 274Q952 221 952 190Q952 149 972 135T1038 121H1087Q1104 121 1104 106V98L1087 10Q1085 -3 1081 -7T1061 -16Q1014 -25 977 -25Q776 -25 776 178Q776 229 784 274L905 961H565L403 41Q394 0 369 0H246Q219 0 219 27Q220 31 220 34T221 41L383 961H242Q228 961 223 965T217 979V991L236 1094Q239 1113 246 1119T270 1126H1253Q1282 1126 1282 1106Q1282 1102 1282 1100T1280 1094L1262 991Q1259 974 1251 968T1225 961Z"  />
<glyph unicode="&#xF6C3;" horiz-adv-x="764" d="M473 -100Q495 -100 492 -123L487 -139L336 -362Q323 -382 314 -391T281 -401H197Q190 -401 184 -398T180 -385Q182 -382 182 -379T186 -369L285 -139Q293 -118 304 -109T332 -100H473Z"  />
<glyph unicode="&#xFB01;" horiz-adv-x="1212" d="M1335 1520V1511L1307 1348Q1304 1331 1289 1319T1257 1307H1153Q1140 1307 1130 1316T1120 1339V1348L1149 1511Q1152 1528 1166 1540T1198 1552H1303Q1335 1552 1335 1520ZM1255 1094V1085L1073 41Q1070 23 1056 12T1024 0H926Q911 0 902 9T893 33V41L1075 1085Q1078 1102 1092 1114T1124 1126H1223Q1255 1126 1255 1094ZM952 1520V1513L940 1446Q934 1415 899 1415H801Q724 1415 693 1390T645 1274L618 1126H840Q872 1126 872 1096V1090L860 1018Q853 983 813 983H594L412 -49Q392 -165 346 -227T233 -312T76 -334Q10 -334 -45 -324Q-78 -316 -78 -297V-291L-66 -223Q-59 -193 -23 -193H74Q125 -193 155 -180T203 -136T231 -49L414 983L223 997Q190 1000 190 1026V1032L201 1090Q208 1126 246 1126H438L465 1274Q497 1449 573 1504T801 1559Q849 1559 920 1546Q952 1540 952 1520Z"  />
<glyph unicode="&#xFB02;" horiz-adv-x="1208" d="M1329 1509V1501L1073 41Q1069 23 1057 12T1028 0H922Q893 0 893 33V41L1149 1501Q1152 1516 1164 1528T1194 1540H1300Q1329 1540 1329 1509ZM952 1520V1513L940 1446Q934 1415 899 1415H801Q724 1415 693 1390T645 1274L618 1126H840Q872 1126 872 1096V1090L860 1018Q853 983 813 983H594L412 -49Q392 -165 346 -227T233 -312T76 -334Q10 -334 -45 -324Q-78 -316 -78 -297V-291L-66 -223Q-59 -193 -23 -193H74Q125 -193 155 -180T203 -136T231 -49L414 983L223 997Q190 1000 190 1026V1032L201 1090Q208 1126 246 1126H438L465 1274Q497 1449 573 1504T801 1559Q849 1559 920 1546Q952 1540 952 1520Z"  />

</font>
</defs>
</svg>
