<?xml  version="1.0" encoding="UTF-8"?>
<!DOCTYPE svg PUBLIC "-//W3C//DTD SVG 1.0//EN" "http://www.w3.org/TR/2001/REC-SVG-20010904/DTD/svg10.dtd" >
<svg xmlns="http://www.w3.org/2000/svg" >
<metadata>
<version>1.0</version>
<id><![CDATA[Neo Sans Intel Medium]]></id>
<vendor>Monotype Imaging Inc.</vendor>
<credits>
<name>Fonts.com WebFonts</name>
<URL>http://webfonts.fonts.com</URL>
<role>Home of the Web fonts</role>
</credits>
<license>
<URL>http://webfonts.fonts.com/Legal</URL>
</license>
<copyright><![CDATA[Digitized data (C) 2004 Agfa Monotype Corporation. Neo Sans(TM) is a trademark of Monotype Imaging Corp. and may be registered in certain jurisdictions.]]></copyright>
<trademark><![CDATA[Neo Sans(TM) is a trademark of Monotype Imaging Corp. and may be registered in certain jurisdictions.]]></trademark>
<licensee>
<name></name>
</licensee>
</metadata>
<defs >
<font horiz-adv-x="1080" id="77002b44-e56d-49e3-9dc6-c87efea008cc">
<font-face font-family="" panose-1="2 11 6 4 2 2 2 2 2 4" ascent="2124" descent="-444" units-per-em="2048" alphabetic="0">
</font-face>
<missing-glyph horiz-adv-x="2048" d="M213 0V1536H1749V0H213ZM341 128H1621V1408H341V128Z"  />

<glyph unicode="&#xA;" />
<glyph unicode="&#xD;" />
<glyph unicode=" " horiz-adv-x="512" />
<glyph unicode="!" horiz-adv-x="487" d="M383 1520L352 479Q352 462 340 450T311 438H178Q162 438 149 450T135 479L104 1520Q104 1536 117 1547T147 1559H342Q359 1559 371 1548T383 1520ZM383 35Q383 17 372 6T344 -6H143Q127 -6 116 5T104 35V266Q104 283 115 294T143 305H344Q361 305 372 294T383 266V35Z"  />
<glyph unicode="&quot;" horiz-adv-x="854" d="M844 1536Q844 1532 840 1520L700 1096Q689 1057 662 1057H481Q463 1057 463 1077Q463 1090 465 1096L569 1520Q577 1559 610 1559H819Q844 1559 844 1536ZM418 1536Q418 1532 414 1520L274 1096Q263 1057 236 1057H55Q37 1057 37 1077Q37 1090 39 1096L143 1520Q153 1559 184 1559H393Q418 1559 418 1536Z"  />
<glyph unicode="#" horiz-adv-x="1376" d="M1186 391H1014L983 39Q979 0 946 0H768Q754 0 745 10T735 35V39L766 391H516L485 39Q481 0 449 0H268Q255 0 246 11T236 35V39L266 391H104Q89 391 76 402T63 428V432L74 543Q75 559 87 571T115 584H283L313 932H158Q141 932 129 942T117 969V973L127 1081Q128 1098 139 1110T168 1122H330L362 1483Q366 1501 376 1511T401 1522H582Q615 1522 612 1483L580 1122H829L862 1483Q866 1522 901 1522H1079Q1110 1522 1110 1487V1483L1077 1122H1247Q1264 1122 1276 1112T1288 1085V1081L1278 973Q1276 954 1265 943T1237 932H1061L1030 584H1196Q1214 584 1225 574T1237 547V543L1227 432Q1226 416 1214 404T1186 391ZM563 932L532 584H782L813 932H563Z"  />
<glyph unicode="$" horiz-adv-x="1245" d="M580 227Q710 227 765 273T821 412Q821 471 787 512T651 612L381 774Q289 830 235 888T160 1011T139 1149Q139 1467 479 1526V1698Q479 1713 492 1726T520 1739H707Q722 1739 735 1726T748 1698V1530Q818 1521 887 1499T989 1458Q1034 1433 1034 1403V1264Q1034 1214 983 1233Q930 1253 825 1273T639 1294Q424 1294 424 1151Q424 1101 458 1067T592 973L838 827Q916 782 973 731T1059 633T1100 533T1114 412Q1114 343 1095 278T1032 156T919 58T748 -2V-188Q748 -205 735 -217T707 -229H520Q505 -229 492 -217T479 -188V-10Q386 1 311 25T211 66Q182 83 174 93T166 121V260Q166 306 217 291Q416 227 580 227Z"  />
<glyph unicode="%" horiz-adv-x="1640" d="M655 1020Q655 672 360 672Q219 672 143 759T66 1020V1186Q66 1301 100 1379T200 1494T360 1532Q503 1532 579 1447T655 1186V1020ZM471 1020V1186Q471 1286 444 1327T360 1368Q306 1368 278 1327T250 1186V1020Q250 921 278 879T360 836Q416 836 443 877T471 1020ZM1366 1505Q1366 1492 1358 1481L500 29Q488 7 480 1T457 -6H289Q268 -6 268 12Q268 26 276 37L1135 1487Q1148 1508 1155 1515T1180 1522H1346Q1366 1522 1366 1505ZM1577 338Q1577 164 1502 77T1282 -10Q1139 -10 1063 76T987 338V504Q987 678 1063 764T1282 850Q1425 850 1501 764T1577 504V338ZM1393 338V504Q1393 604 1366 645T1282 686Q1227 686 1199 645T1171 504V338Q1171 239 1199 197T1282 154Q1338 154 1365 195T1393 338Z"  />
<glyph unicode="&amp;" horiz-adv-x="1446" d="M1391 23Q1391 0 1368 0H1139Q1120 0 1104 16L1028 96Q867 -16 639 -16Q400 -16 248 80T96 377V397Q96 482 128 549T221 671T377 786L362 803Q277 902 236 968T181 1082T168 1182V1200Q168 1303 220 1379T378 1496T635 1538Q737 1538 818 1514T956 1447T1044 1341T1075 1200V1182Q1075 1050 994 956T772 774L723 743L1030 416Q1083 536 1083 709V733Q1083 752 1092 763T1118 774H1268Q1285 774 1295 762T1305 733V709Q1305 441 1182 256L1382 43Q1391 35 1391 23ZM831 1182V1200Q831 1247 809 1279T743 1329T635 1346Q530 1346 470 1308T410 1200V1182Q410 1140 418 1110T458 1033T553 924L571 905L633 942Q749 1012 790 1060T831 1182ZM887 246L528 627Q439 573 408 524T377 397V377Q377 282 450 233T639 184Q785 184 887 246Z"  />
<glyph unicode="&apos;" horiz-adv-x="442" d="M432 1536Q432 1532 428 1520L289 1096Q278 1057 250 1057H70Q51 1057 51 1077Q51 1090 53 1096L158 1520Q166 1559 199 1559H408Q432 1559 432 1536Z"  />
<glyph unicode="(" horiz-adv-x="657" d="M604 -379Q604 -399 580 -399H434Q385 -399 365 -371Q228 -179 162 37T96 541V580Q96 867 162 1084T365 1493Q385 1522 434 1522H580Q604 1522 604 1501Q604 1486 594 1468Q373 1061 373 580V541Q373 272 433 58T594 -346Q604 -363 604 -379Z"  />
<glyph unicode=")" horiz-adv-x="657" d="M561 541Q561 396 544 266T493 27T409 -181T293 -371Q271 -399 223 -399H78Q53 -399 53 -379Q53 -363 63 -346Q126 -232 175 -99T255 194T285 541V580Q285 764 255 926T175 1221T63 1468Q53 1486 53 1501Q53 1522 78 1522H223Q272 1522 293 1493Q358 1403 409 1303T493 1095T543 856T561 580V541Z"  />
<glyph unicode="*" horiz-adv-x="948" d="M881 1194Q881 1171 850 1161L606 1087L758 881Q768 866 768 852Q768 840 756 829L672 768Q663 762 653 762Q636 762 623 782L475 991L328 782Q313 762 297 762Q288 762 279 768L193 829Q180 839 180 852Q180 866 190 881L344 1087L102 1161Q70 1172 70 1194Q70 1200 72 1204L104 1305Q111 1325 131 1325Q138 1325 152 1321L395 1241L391 1497Q391 1536 422 1536H528Q559 1536 559 1495L557 1241L799 1321Q811 1325 819 1325Q840 1325 846 1305L879 1204Q881 1200 881 1194Z"  />
<glyph unicode="+" horiz-adv-x="1241" d="M1098 721Q1098 688 1057 688H733V367Q733 326 700 326H541Q508 326 508 367V688H186Q145 688 145 721V881Q145 913 186 913H508V1237Q508 1278 541 1278H700Q733 1278 733 1237V913H1057Q1098 913 1098 881V721Z"  />
<glyph unicode="&#x2c;" horiz-adv-x="514" d="M430 287Q430 286 426 272L248 -158Q231 -199 209 -199H51Q37 -199 29 -191T20 -170Q20 -162 23 -158L147 272Q161 311 188 311H401Q430 311 430 287Z"  />
<glyph unicode="-" horiz-adv-x="633" d="M557 557Q557 541 546 531T518 520H117Q100 520 88 531T76 557V702Q76 718 87 729T117 741H518Q535 741 546 730T557 702V557Z"  />
<glyph unicode="." horiz-adv-x="494" d="M387 41Q387 23 375 12T346 0H147Q132 0 119 12T106 41V272Q106 288 118 299T147 311H346Q364 311 375 301T387 272V41Z"  />
<glyph unicode="/" horiz-adv-x="782" d="M762 1491Q762 1485 760 1481L315 43Q302 0 276 0H61Q49 0 38 10T27 33Q28 36 28 38T29 43L475 1481Q487 1522 514 1522H729Q743 1522 752 1514T762 1491Z"  />
<glyph unicode="0" horiz-adv-x="1260" d="M1163 684Q1163 494 1128 362T1023 146T855 23T629 -16Q501 -16 403 23T236 146T130 363T94 684V836Q94 1022 130 1158T235 1377T402 1499T629 1538Q890 1538 1026 1373T1163 836V684ZM879 684V836Q879 1096 813 1201T629 1307Q512 1307 446 1202T379 836V684Q379 508 410 404T497 257T629 215Q704 215 759 257T847 403T879 684Z"  />
<glyph unicode="1" horiz-adv-x="1260" d="M809 41Q809 23 797 12T768 0H567Q552 0 539 12T526 41V1235L285 1153Q274 1149 260 1149Q238 1149 238 1174V1372Q238 1389 252 1395L588 1513Q610 1522 635 1522H770Q787 1522 798 1511T809 1483V41Z"  />
<glyph unicode="2" horiz-adv-x="1260" d="M598 1315Q500 1315 386 1290T209 1239Q158 1220 158 1270V1386Q158 1416 203 1442Q231 1459 298 1482T453 1521T621 1538Q879 1538 995 1447T1112 1163Q1112 1040 1050 948T856 766L672 643Q568 573 507 516T413 391T381 242V233H1055Q1073 233 1084 223T1096 197V41Q1096 24 1083 12T1055 0H186Q171 0 158 12T145 41V242Q145 363 186 465T295 641T457 778L659 913Q746 972 782 1004T833 1070T848 1163Q848 1245 789 1280T598 1315Z"  />
<glyph unicode="3" horiz-adv-x="1260" d="M598 -16Q477 -15 373 6T201 57Q156 79 156 113V229Q156 264 185 264Q191 264 207 260Q275 238 377 224T565 209Q706 209 761 261T817 426V469Q817 564 777 620T629 676H266Q249 676 238 687T227 715V844Q227 861 238 872T266 883H629Q737 883 777 936T817 1083V1116Q817 1208 769 1261T592 1315Q495 1315 382 1290T207 1239Q194 1234 185 1234Q156 1234 156 1270V1386Q156 1416 201 1442Q254 1475 372 1506T618 1538Q760 1538 868 1495T1039 1357T1102 1116V1083Q1102 876 926 780Q1009 736 1055 652T1102 469V426Q1102 316 1065 233T958 94T799 11T598 -16Z"  />
<glyph unicode="4" horiz-adv-x="1260" d="M1196 408Q1196 390 1184 379T1155 367H1004V41Q1004 24 993 12T967 0H756Q739 0 729 12T719 41V367H104Q89 367 76 379T63 408V573Q63 609 86 639L717 1485Q743 1522 776 1522H963Q978 1522 991 1509T1004 1481V592H1155Q1172 592 1184 580T1196 551V408ZM721 592V1112Q721 1124 715 1124Q710 1124 700 1112L342 614Q336 608 336 602Q336 592 352 592H721Z"  />
<glyph unicode="5" horiz-adv-x="1260" d="M559 209Q709 209 766 274T823 485V496Q823 585 792 633T681 703T461 725H190Q158 725 162 756L227 1485Q229 1500 240 1511T268 1522H1012Q1028 1522 1040 1511T1053 1483V1327Q1053 1311 1041 1300T1012 1288H457L426 948H528Q643 948 741 931T924 867T1058 729T1108 496V485Q1108 366 1076 275T978 118T814 18T582 -16Q360 -16 195 57Q150 79 150 113V229Q150 275 201 260Q234 249 295 237T429 217T559 209Z"  />
<glyph unicode="6" horiz-adv-x="1260" d="M651 1538Q715 1538 779 1528T894 1504T986 1472T1047 1442Q1092 1415 1092 1386V1270Q1092 1247 1079 1239T1040 1239Q989 1260 871 1286T664 1313Q559 1313 498 1278T407 1162T375 940Q518 965 629 965Q775 965 895 923T1088 780T1161 512V492Q1161 378 1126 285T1023 124T857 20T633 -16Q518 -16 420 21T249 135T137 334T96 616V852Q96 1033 131 1164T236 1378T408 1499T651 1538ZM883 492V512Q883 756 602 756Q563 756 495 750T375 733V616Q375 377 441 291T633 205Q883 205 883 492Z"  />
<glyph unicode="7" horiz-adv-x="1260" d="M1118 1329Q1118 1311 1081 1235L528 39Q517 16 506 8T473 0H260Q231 0 231 31Q231 39 236 49L823 1274V1278Q823 1282 821 1285T813 1288H182Q166 1288 154 1299T141 1325V1483Q141 1499 153 1510T182 1522H1036Q1070 1522 1094 1498T1118 1440V1329Z"  />
<glyph unicode="8" horiz-adv-x="1260" d="M1165 440Q1165 322 1124 236T1010 93T843 10T639 -16H618Q391 -16 243 98T94 440V459Q94 560 144 646T281 793Q102 909 102 1112V1120Q102 1231 142 1312T253 1443T417 1515T618 1538H639Q788 1538 904 1496T1090 1361T1159 1120V1112Q1159 1015 1115 934T979 793Q1037 752 1078 701T1142 588T1165 459V440ZM895 1104V1112Q895 1329 639 1329H618Q367 1329 367 1112V1104Q367 1009 421 951T588 893H672Q784 893 839 950T895 1104ZM889 440V459Q889 546 836 615T672 684H588Q478 684 425 615T371 459V440Q371 334 435 266T618 197H639Q759 197 824 265T889 440Z"  />
<glyph unicode="9" horiz-adv-x="1260" d="M606 -16Q485 -16 376 16T211 80Q166 105 166 135V252Q166 302 217 283Q287 257 396 233T594 209Q700 209 761 244T851 360T883 582Q750 557 629 557Q482 557 363 598T170 741T96 1010V1030Q96 1262 236 1400T625 1538Q781 1538 902 1471T1092 1263T1161 905V670Q1161 489 1127 359T1023 146T849 24T606 -16ZM375 1030V1010Q375 766 655 766Q696 766 769 773T883 788V905Q883 1144 817 1230T625 1317Q508 1317 442 1252T375 1030Z"  />
<glyph unicode=":" horiz-adv-x="496" d="M395 848Q395 831 384 820T354 809H156Q138 809 127 820T115 848V1079Q115 1096 126 1108T156 1120H354Q373 1120 384 1109T395 1079V848ZM395 41Q395 23 383 12T354 0H156Q139 0 127 12T115 41V272Q115 288 126 299T156 311H354Q372 311 383 301T395 272V41Z"  />
<glyph unicode=";" horiz-adv-x="514" d="M414 848Q414 832 402 821T373 809H174Q158 809 146 820T133 848V1079Q133 1096 145 1108T174 1120H373Q390 1120 402 1108T414 1079V848ZM418 287Q418 286 414 272L236 -158Q229 -176 221 -187T197 -199H39Q26 -199 17 -190T8 -170Q8 -162 10 -158L135 272Q147 311 176 311H389Q418 311 418 287Z"  />
<glyph unicode="&lt;" horiz-adv-x="1225" d="M1028 313Q1028 301 1021 293T1004 285H762Q748 285 739 291T717 307L244 721Q216 748 207 763T197 801Q197 823 207 840T244 881L717 1294Q727 1304 736 1310T762 1317H1004Q1015 1317 1021 1309T1028 1288Q1028 1273 1016 1264L483 801L1016 338Q1028 329 1028 313Z"  />
<glyph unicode="=" horiz-adv-x="1237" d="M1075 969Q1075 936 1034 936H205Q164 936 164 969V1128Q164 1161 205 1161H1034Q1075 1161 1075 1128V969ZM1075 473Q1075 457 1064 449T1034 440H205Q187 440 176 449T164 473V633Q164 648 175 657T205 666H1034Q1052 666 1063 658T1075 633V473Z"  />
<glyph unicode="&gt;" horiz-adv-x="1225" d="M1030 801Q1030 777 1020 761T983 721L510 307Q498 296 489 291T465 285H221Q211 285 204 294T197 313Q197 329 209 338L741 801L209 1264Q197 1273 197 1288Q197 1299 203 1308T221 1317H465Q482 1317 490 1311T510 1294L983 881Q1007 861 1018 844T1030 801Z"  />
<glyph unicode="?" horiz-adv-x="879" d="M477 39Q477 22 466 11T436 0H236Q218 0 207 11T195 39V270Q195 287 206 299T236 311H436Q455 311 466 300T477 270V39ZM401 1294Q276 1294 104 1233Q80 1224 67 1233T53 1264V1403Q53 1422 64 1433T98 1458Q118 1469 167 1488T291 1522T453 1538Q633 1538 729 1466T825 1206V1194Q825 1118 799 1048T680 870L555 723Q545 710 523 685T489 641T469 600T461 555V477Q461 462 448 450T420 438H250Q233 438 222 449T211 477V555Q211 652 236 712T332 856L463 1008Q500 1052 511 1091T522 1194V1202Q522 1249 497 1271T401 1294Z"  />
<glyph unicode="@" horiz-adv-x="1561" d="M1341 741Q1341 868 1288 976T1124 1148T850 1212Q715 1212 611 1179T430 1080T310 920T254 705L223 381Q219 331 219 313Q219 125 349 13T731 -100Q892 -100 1028 -86Q1046 -86 1050 -88T1055 -104V-180Q1055 -204 1028 -207Q876 -227 731 -227Q535 -227 383 -163T147 24T63 315Q63 358 66 381L96 715Q109 859 165 976T318 1178T552 1307T852 1352Q1012 1352 1134 1302T1337 1167T1458 972T1499 741Q1499 592 1465 474T1370 276T1230 154T1065 113Q991 113 955 136T889 197Q832 155 774 127T635 98Q532 98 464 174T395 391Q396 400 396 408T397 428L416 668Q429 836 534 921T813 1006Q855 1007 931 997T1083 975Q1130 969 1130 913L1081 393Q1081 384 1081 379T1079 367Q1079 299 1126 299Q1246 299 1292 433T1341 741ZM860 330L903 813Q841 823 791 823Q713 823 678 787T633 659L610 430Q608 418 608 395Q608 350 638 317T721 283Q786 283 860 330Z"  />
<glyph unicode="A" horiz-adv-x="1315" d="M1280 35Q1280 19 1270 10T1243 0H1026Q1013 0 1002 10T987 35L893 424H422L328 35Q325 21 314 11T289 0H72Q56 0 46 9T35 35Q36 37 36 39T37 45L373 1329Q427 1538 657 1538Q888 1538 942 1329L1278 45Q1279 42 1279 40T1280 35ZM838 657L690 1266Q685 1285 679 1291T657 1298Q643 1298 637 1292T625 1266L477 657H838Z"  />
<glyph unicode="B" horiz-adv-x="1294" d="M1206 426Q1206 269 1132 170T920 28T584 -16Q346 -16 229 6Q176 16 154 39T131 117V1407Q131 1444 140 1466T169 1500T223 1518Q274 1526 365 1532T565 1538Q714 1538 826 1516T1022 1446T1150 1316T1196 1122V1081Q1196 1013 1175 952T1111 845T1008 772Q1102 733 1154 654T1206 461V426ZM920 1077V1106Q920 1179 886 1221T774 1283T565 1303Q524 1303 416 1298V883H676Q808 883 864 936T920 1077ZM928 430V457Q928 552 869 613T676 674H416V223Q442 223 503 221T584 219Q775 219 851 269T928 430Z"  />
<glyph unicode="C" horiz-adv-x="1124" d="M662 -16Q562 -16 464 13T282 112T147 306T96 610V911Q96 1156 179 1295T388 1486T662 1538Q739 1538 810 1523T934 1487T999 1458Q1044 1433 1044 1403V1264Q1044 1214 993 1233Q958 1246 901 1261T787 1285T680 1294Q578 1294 513 1258T416 1138T383 911V610Q383 471 415 387T513 265T680 227Q759 227 844 246T993 289Q1044 308 1044 258V119Q1044 89 999 63Q957 39 863 12T662 -16Z"  />
<glyph unicode="D" horiz-adv-x="1327" d="M1231 610Q1231 410 1156 269T937 56T588 -16Q539 -16 441 -12T281 -3T184 8Q131 17 131 72V1450Q131 1504 184 1513Q218 1519 284 1524T444 1534T588 1538Q793 1538 936 1466T1155 1253T1231 911V610ZM948 610V911Q948 1057 903 1143T778 1263T588 1298Q540 1298 525 1298T477 1296T416 1292V229Q466 227 506 225T588 223Q698 223 777 257T902 377T948 610Z"  />
<glyph unicode="E" horiz-adv-x="1139" d="M1034 55Q1034 17 993 12Q973 10 941 4T842 -7T736 -14T604 -16Q458 -16 355 18T191 145T131 403V1118Q131 1283 191 1376T354 1503T604 1538Q822 1538 993 1509Q1017 1506 1025 1497T1034 1466V1335Q1034 1318 1022 1306T993 1294H575Q486 1294 450 1256T414 1118V897H969Q986 897 998 885T1010 856V709Q1010 692 997 680T969 668H414V403Q414 304 450 266T575 227H993Q1012 227 1023 216T1034 186V55Z"  />
<glyph unicode="F" horiz-adv-x="1139" d="M1034 1335Q1034 1318 1022 1306T993 1294H575Q486 1294 450 1256T414 1118V897H969Q986 897 998 885T1010 856V709Q1010 692 997 680T969 668H414V41Q414 24 401 12T373 0H172Q157 0 144 12T131 41V1118Q131 1283 191 1376T354 1503T604 1538Q822 1538 993 1509Q1017 1506 1025 1497T1034 1466V1335Z"  />
<glyph unicode="G" horiz-adv-x="1262" d="M383 911V612Q383 412 461 320T645 227Q752 227 848 233V756Q848 772 859 784T887 797H1090Q1106 797 1118 785T1130 756V68Q1130 28 1092 18Q1041 8 978 0T819 -12T645 -16Q555 -16 462 15T283 122T147 319T96 612V907Q96 1094 148 1219T288 1415T474 1511T682 1538Q773 1538 852 1519T993 1475T1085 1430Q1130 1404 1130 1374V1237Q1130 1187 1079 1206Q1003 1237 904 1265T702 1294Q537 1294 460 1208T383 911Z"  />
<glyph unicode="H" horiz-adv-x="1413" d="M1282 41Q1282 23 1270 12T1241 0H1038Q1023 0 1010 12T997 41V668H416V41Q416 24 403 12T375 0H172Q157 0 144 12T131 41V1483Q131 1499 143 1510T172 1522H375Q391 1522 403 1511T416 1483V918H997V1483Q997 1499 1009 1510T1038 1522H1241Q1259 1522 1270 1512T1282 1483V41Z"  />
<glyph unicode="I" horiz-adv-x="547" d="M416 41Q416 24 403 12T375 0H172Q157 0 144 12T131 41V1483Q131 1499 143 1510T172 1522H375Q391 1522 403 1511T416 1483V41Z"  />
<glyph unicode="J" horiz-adv-x="580" d="M449 -43Q449 -150 413 -216T305 -312T121 -342Q77 -342 25 -336T-43 -326Q-63 -319 -63 -297V-152Q-63 -135 -52 -125T-23 -115H113Q142 -115 153 -101T164 -43V1483Q164 1499 175 1510T205 1522H408Q424 1522 436 1511T449 1483V-43Z"  />
<glyph unicode="K" horiz-adv-x="1286" d="M1237 18Q1237 0 1206 0H932Q899 0 885 23L416 721V41Q416 24 403 12T375 0H172Q157 0 144 12T131 41V1481Q131 1497 143 1508T172 1520H375Q391 1520 403 1509T416 1481V829L918 1503Q929 1520 965 1520H1198Q1237 1520 1237 1495Q1237 1481 1223 1462L698 784L1227 43Q1237 26 1237 18Z"  />
<glyph unicode="L" horiz-adv-x="1028" d="M993 55Q993 34 984 25T952 12Q906 1 792 -7T604 -16Q458 -16 355 18T191 145T131 403V1481Q131 1496 144 1509T172 1522H375Q390 1522 403 1509T416 1481V403Q416 303 450 265T575 227H952Q971 227 982 216T993 186V55Z"  />
<glyph unicode="M" horiz-adv-x="1577" d="M1446 31Q1446 0 1411 0H1204Q1191 0 1181 12T1171 41V993Q1171 1014 1165 1014Q1162 1014 1155 1001L958 610Q939 575 893 575H686Q640 575 621 610L422 1001Q415 1014 412 1014Q406 1014 406 993V41Q406 25 396 13T373 0H166Q131 0 131 31V1440Q131 1474 155 1498T213 1522H381Q431 1522 457 1473L766 846Q781 817 788 817Q796 817 811 846L1120 1473Q1146 1522 1196 1522H1364Q1398 1522 1422 1498T1446 1440V31Z"  />
<glyph unicode="N" horiz-adv-x="1413" d="M1282 82Q1282 48 1258 24T1200 0H993Q946 0 918 13T868 74L414 1071Q406 1087 395 1087Q385 1087 385 1071V41Q385 23 374 12T346 0H172Q157 0 144 12T131 41V1440Q131 1474 155 1498T213 1522H434Q468 1522 487 1508T524 1456L1001 403Q1009 387 1018 387Q1028 387 1028 406V1483Q1028 1500 1039 1511T1067 1522H1243Q1260 1522 1271 1511T1282 1483V82Z"  />
<glyph unicode="O" horiz-adv-x="1360" d="M1264 623Q1264 405 1190 262T984 51T680 -16Q508 -16 376 51T170 261T96 623V899Q96 1117 170 1260T376 1471T680 1538Q852 1538 984 1471T1190 1261T1264 899V623ZM977 623V899Q977 1101 905 1195T680 1290Q528 1290 456 1196T383 899V623Q383 422 455 327T680 231Q832 231 904 326T977 623Z"  />
<glyph unicode="P" horiz-adv-x="1249" d="M1188 1047Q1188 794 1025 681T598 567Q582 567 527 569T455 573T416 575V41Q416 23 405 12T377 0H172Q157 0 144 12T131 41V1450Q131 1479 147 1492T197 1511Q365 1538 598 1538Q862 1538 1025 1428T1188 1065V1047ZM905 1047V1065Q905 1193 831 1248T598 1303Q499 1303 416 1294V807Q515 801 598 801Q708 801 775 827T873 908T905 1047Z"  />
<glyph unicode="Q" horiz-adv-x="1389" d="M1264 623Q1264 521 1248 436T1200 281T1122 159T1018 70Q1033 19 1064 -2T1165 -23H1284Q1333 -23 1333 -55V-166Q1333 -194 1324 -206T1288 -225Q1202 -248 1110 -248Q808 -248 748 -14Q725 -16 680 -16Q508 -16 376 51T170 261T96 623V899Q96 1117 170 1260T376 1471T680 1538Q852 1538 984 1471T1190 1261T1264 899V623ZM977 623V899Q977 1101 905 1195T680 1290Q528 1290 456 1196T383 899V623Q383 422 455 327T680 231Q832 231 904 326T977 623Z"  />
<glyph unicode="R" horiz-adv-x="1305" d="M1237 25Q1237 0 1212 0H963Q948 0 941 9T922 41L627 588H598Q582 588 527 590T455 594T416 596V41Q416 23 405 12T377 0H172Q157 0 144 12T131 41V1450Q131 1479 147 1492T197 1511Q365 1538 598 1538Q861 1538 1024 1429T1188 1075V1057Q1188 900 1115 795T911 639L1233 41Q1237 35 1237 25ZM905 1057V1075Q905 1190 830 1242T598 1294Q575 1294 506 1291T416 1286V825Q515 819 598 819Q759 819 832 872T905 1057Z"  />
<glyph unicode="S" horiz-adv-x="1141" d="M520 227Q652 227 707 272T762 412Q762 471 728 512T592 612L322 774Q230 830 176 888T101 1011T80 1149Q80 1330 198 1434T578 1538Q680 1538 778 1513T930 1458Q953 1445 964 1434T975 1403V1264Q975 1214 924 1233Q868 1254 765 1274T580 1294Q365 1294 365 1151Q365 1101 398 1067T532 973L778 827Q886 763 946 699T1031 567T1055 412Q1055 299 1004 203T834 45T528 -16Q402 -16 298 13T152 66Q123 83 115 92T106 121V260Q106 307 158 291Q357 227 520 227Z"  />
<glyph unicode="T" horiz-adv-x="1174" d="M1128 1321Q1128 1303 1116 1294T1087 1284H729V41Q729 23 717 12T688 0H485Q470 0 457 12T444 41V1284H86Q69 1284 57 1294T45 1321V1483Q45 1499 56 1510T86 1522H1087Q1105 1522 1116 1512T1128 1483V1321Z"  />
<glyph unicode="U" horiz-adv-x="1372" d="M1249 563Q1249 402 1209 291T1095 113T918 15T686 -16Q558 -16 455 15T279 112T164 291T123 563V1483Q123 1499 134 1510T164 1522H367Q383 1522 395 1511T408 1483V563Q408 440 432 366T517 256T686 219Q795 219 856 256T941 366T965 563V1483Q965 1499 976 1510T1006 1522H1208Q1226 1522 1237 1512T1249 1483V563Z"  />
<glyph unicode="V" horiz-adv-x="1331" d="M1288 1487Q1288 1484 1288 1482T1286 1477L950 193Q896 -16 666 -16Q435 -16 381 193L45 1477Q45 1481 45 1483T43 1487Q43 1503 53 1512T80 1522H297Q311 1522 322 1512T336 1487L633 256Q638 236 644 230T666 223Q681 223 687 229T698 256L995 1487Q998 1502 1009 1512T1034 1522H1251Q1267 1522 1277 1513T1288 1487Z"  />
<glyph unicode="W" horiz-adv-x="1753" d="M1710 1493V1487L1518 150Q1505 58 1461 21T1333 -16H1223Q1152 -16 1113 21T1053 147L891 823Q886 846 879 846Q869 846 864 823L702 147Q681 58 642 21T532 -16H422Q379 -16 350 -9T297 18T260 70T238 150L45 1487V1493Q45 1522 80 1522H297Q308 1522 319 1511T332 1485L479 262Q482 231 489 231Q496 231 496 236T502 262L678 981Q701 1073 807 1073H948Q1054 1073 1077 981L1253 262Q1258 241 1259 236T1266 231Q1273 231 1276 262L1423 1485Q1424 1500 1435 1511T1458 1522H1675Q1689 1522 1699 1514T1710 1493Z"  />
<glyph unicode="X" horiz-adv-x="1319" d="M1278 25Q1278 0 1245 0H1004Q978 0 950 41L649 524L367 41Q344 0 313 0H90Q57 0 57 27Q57 33 61 41L498 768L49 1483Q45 1491 45 1495Q45 1505 54 1513T78 1522H319Q345 1522 373 1483L672 1006L948 1483Q970 1522 1001 1522H1225Q1238 1522 1247 1515T1257 1495Q1257 1491 1253 1483L823 762L1274 41Q1278 35 1278 25Z"  />
<glyph unicode="Y" horiz-adv-x="1247" d="M1202 1491Q1202 1487 1198 1475L887 764Q835 645 762 614V41Q762 23 751 12T723 0H518Q502 0 491 11T479 41V614Q406 645 354 764L45 1475Q41 1487 41 1491Q41 1505 49 1513T74 1522H301Q328 1522 340 1489L586 879Q602 838 621 838Q641 838 657 879L903 1489Q915 1522 942 1522H1167Q1182 1522 1192 1514T1202 1491Z"  />
<glyph unicode="Z" horiz-adv-x="1180" d="M1110 41Q1110 23 1098 12T1069 0H174Q70 0 70 76V188Q70 227 96 266L745 1239Q752 1247 752 1257Q752 1274 731 1274H162Q123 1274 123 1311V1483Q123 1500 134 1511T162 1522H987Q1035 1522 1065 1502T1096 1444V1325Q1096 1286 1067 1241L428 285Q420 273 420 262Q420 250 438 250H1069Q1088 250 1099 241T1110 213V41Z"  />
<glyph unicode="[" horiz-adv-x="700" d="M651 -365Q651 -397 612 -397H158Q143 -397 133 -385T123 -358V1483Q123 1498 133 1510T158 1522H612Q630 1522 640 1513T651 1489V1339Q651 1305 612 1305H397V-180H612Q628 -180 639 -189T651 -215V-365Z"  />
<glyph unicode="\" horiz-adv-x="780" d="M756 16Q756 3 746 -6T721 -16H514Q489 -16 477 27L29 1481Q29 1485 29 1487T27 1491Q27 1504 38 1513T61 1522H266Q295 1522 307 1481L754 27Q755 24 755 22T756 16Z"  />
<glyph unicode="]" horiz-adv-x="700" d="M578 -358Q578 -373 568 -385T543 -397H88Q49 -397 49 -365V-215Q49 -199 60 -190T88 -180H303V1305H88Q49 1305 49 1337V1487Q49 1503 60 1512T88 1522H543Q558 1522 568 1510T578 1483V-358Z"  />
<glyph unicode="^" horiz-adv-x="1241" d="M1098 1174Q1098 1155 1073 1155H864Q844 1155 833 1161T803 1188L621 1397L438 1188Q419 1167 409 1161T377 1155H168Q143 1155 143 1174Q143 1185 154 1198L385 1501Q404 1524 415 1531T451 1538H791Q815 1538 827 1531T856 1501L1087 1198Q1098 1185 1098 1174Z"  />
<glyph unicode="_" horiz-adv-x="1087" d="M1143 -221Q1143 -254 1102 -254H-14Q-55 -254 -55 -221V-121Q-55 -88 -14 -88H1102Q1143 -88 1143 -121V-221Z"  />
<glyph unicode="`" horiz-adv-x="799" d="M551 1298Q551 1284 532 1284H356Q345 1284 338 1287T323 1297T309 1311L66 1565Q57 1573 57 1581Q57 1595 80 1595H297Q316 1595 325 1590T350 1565L543 1319Q551 1311 551 1298Z"  />
<glyph unicode="a" horiz-adv-x="1092" d="M526 944Q365 944 199 891Q156 879 156 924V1049Q156 1068 165 1080T199 1102Q262 1129 354 1149T557 1169Q689 1169 782 1126T926 994T977 778V80Q977 58 972 49T948 35Q857 10 772 -3T563 -16Q395 -16 289 19T131 129T80 328V338Q80 429 105 493T188 601T336 666T563 688H707V778Q707 874 665 909T526 944ZM707 205V508H563Q470 508 426 492T367 441T352 344V332Q352 274 370 244T433 201T563 188Q650 188 707 205Z"  />
<glyph unicode="b" horiz-adv-x="1151" d="M1071 498Q1071 254 948 119T582 -16Q374 -16 170 37Q146 43 135 49T120 66T115 92V1518Q115 1533 127 1546T156 1559H344Q361 1559 373 1547T385 1518V1155Q491 1169 582 1169Q745 1169 854 1108T1017 931T1071 655V498ZM801 498V655Q801 795 754 871T582 948Q485 948 385 934V219Q453 205 582 205Q706 205 753 282T801 498Z"  />
<glyph unicode="c" horiz-adv-x="934" d="M547 213Q662 213 811 260Q854 272 854 227V96Q854 77 844 66T811 43Q705 -16 547 -16Q410 -16 305 35T140 198T80 481V672Q80 839 139 951T304 1116T547 1169Q705 1169 811 1110Q834 1099 844 1088T854 1057V926Q854 881 811 893Q743 915 689 927T557 940Q350 940 350 672V481Q350 336 406 275T547 213Z"  />
<glyph unicode="d" horiz-adv-x="1151" d="M1036 92Q1036 68 1025 57T981 37Q924 22 850 10T706 -9T569 -16Q406 -16 297 45T134 222T80 498V655Q80 815 134 931T297 1108T569 1169Q660 1169 766 1155V1518Q766 1533 778 1546T807 1559H995Q1012 1559 1024 1547T1036 1518V92ZM766 219V934Q716 941 667 944T569 948Q445 948 398 871T350 655V498Q350 435 360 381T395 287T463 226T569 205Q698 205 766 219Z"  />
<glyph unicode="e" horiz-adv-x="1147" d="M791 676V684Q791 808 733 872T575 936Q511 936 462 909T384 825T356 684V676H791ZM606 -16Q477 -16 359 31T163 194T84 498V649Q84 806 141 925T310 1106T575 1169Q729 1169 839 1103T1006 920T1063 649V535Q1063 483 1022 483H354V477Q354 361 412 289T627 217Q713 217 813 234T977 272Q1020 285 1020 240V119Q1020 99 1010 88T977 66Q914 33 813 9T606 -16Z"  />
<glyph unicode="f" horiz-adv-x="799" d="M764 1413Q764 1378 733 1378H641Q589 1378 565 1369T531 1332T520 1255V1155H717Q734 1155 746 1143T758 1114V991Q758 975 746 964T717 952H520V43Q520 25 509 13T479 0H293Q276 0 263 13T250 43V952L68 981Q27 988 27 1020V1114Q27 1131 38 1143T68 1155H250V1255Q250 1382 293 1454T412 1555T604 1583Q649 1583 727 1567Q764 1558 764 1534V1413Z"  />
<glyph unicode="g" horiz-adv-x="1151" d="M571 -193Q653 -193 695 -177T751 -124T766 -10V6Q743 2 669 -7T569 -16Q406 -16 297 45T134 222T80 498V655Q80 815 134 931T297 1108T569 1169Q624 1169 676 1166T770 1157T881 1138T981 1116Q1014 1108 1025 1097T1036 1061V4Q1036 -140 986 -232T832 -367T571 -410Q467 -410 365 -385T195 -328Q182 -321 171 -314T156 -297T152 -274V-170Q152 -125 195 -137Q277 -157 381 -175T571 -193ZM766 221V930Q728 938 679 943T569 948Q445 948 398 871T350 655V498Q350 435 360 381T395 287T463 226T569 205Q605 205 664 210T766 221Z"  />
<glyph unicode="h" horiz-adv-x="1176" d="M1061 43Q1061 27 1049 14T1020 0H831Q814 0 803 13T791 43V717Q791 811 778 856T728 921T623 940Q519 940 385 870V43Q385 25 374 13T344 0H156Q138 0 127 13T115 43V1518Q115 1533 127 1546T156 1559H344Q361 1559 373 1547T385 1518V1094Q509 1169 694 1169Q1061 1169 1061 717V43Z"  />
<glyph unicode="i" horiz-adv-x="512" d="M397 1350Q397 1332 385 1321T356 1309H158Q142 1309 129 1320T115 1350V1530Q115 1546 128 1558T158 1571H356Q373 1571 385 1559T397 1530V1350ZM391 43Q391 25 380 13T350 0H162Q144 0 133 13T121 43V1114Q121 1131 132 1143T162 1155H350Q369 1155 380 1144T391 1114V43Z"  />
<glyph unicode="j" horiz-adv-x="539" d="M424 1350Q424 1332 411 1321T381 1309H184Q169 1309 156 1321T143 1350V1530Q143 1545 156 1558T184 1571H381Q397 1571 410 1559T424 1530V1350ZM418 -86Q418 -265 342 -337T115 -410Q51 -410 -20 -397Q-59 -391 -59 -360V-227Q-59 -195 -16 -195H76Q109 -195 124 -185T143 -152T147 -86V1114Q147 1131 159 1143T188 1155H377Q394 1155 406 1143T418 1114V-86Z"  />
<glyph unicode="k" horiz-adv-x="1098" d="M1044 25Q1044 14 1036 7T1016 0H766Q751 0 734 13T707 41L385 508V43Q385 25 374 13T344 0H156Q138 0 127 13T115 43V1518Q115 1533 127 1546T156 1559H344Q361 1559 373 1547T385 1518V664L735 1130Q755 1155 782 1155H1012Q1042 1155 1042 1133Q1042 1123 1034 1112L623 606L1038 41Q1044 32 1044 25Z"  />
<glyph unicode="l" horiz-adv-x="516" d="M393 43Q393 26 382 13T354 0H164Q146 0 135 13T123 43V1518Q123 1533 135 1546T164 1559H354Q370 1559 381 1547T393 1518V43Z"  />
<glyph unicode="m" horiz-adv-x="1700" d="M985 43Q985 25 974 13T944 0H756Q738 0 727 13T715 43V719Q715 802 698 849T639 918T518 940Q458 940 385 920V43Q385 25 374 13T344 0H156Q138 0 127 13T115 43V1067Q115 1094 156 1108Q234 1135 342 1152T530 1169Q740 1169 846 1090Q923 1124 1014 1146T1192 1169Q1387 1169 1486 1061T1585 721V43Q1585 25 1574 13T1544 0H1356Q1338 0 1327 13T1315 43V719Q1315 801 1300 848T1247 918T1143 940Q1060 940 965 901Q985 816 985 721V43Z"  />
<glyph unicode="n" horiz-adv-x="1176" d="M1061 43Q1061 27 1049 14T1020 0H831Q814 0 803 13T791 43V719Q791 800 772 848T709 918T586 940Q492 940 385 918V43Q385 25 374 13T344 0H156Q138 0 127 13T115 43V1067Q115 1097 156 1108Q258 1136 375 1152T594 1169Q835 1169 948 1063T1061 721V43Z"  />
<glyph unicode="o" horiz-adv-x="1147" d="M1063 494Q1063 348 1007 231T840 49T573 -16Q418 -16 307 49T140 231T84 494V659Q84 805 140 922T307 1104T573 1169Q730 1169 840 1104T1006 922T1063 659V494ZM793 494V659Q793 787 737 861T573 936Q467 936 411 862T354 659V494Q354 366 411 292T573 217Q679 217 736 291T793 494Z"  />
<glyph unicode="p" horiz-adv-x="1151" d="M1071 498Q1071 254 948 119T582 -16Q491 -16 385 -2V-365Q385 -382 373 -394T344 -406H156Q139 -406 127 -393T115 -365V1061Q115 1085 125 1096T170 1116Q374 1169 582 1169Q745 1169 854 1108T1017 931T1071 655V498ZM801 498V655Q801 795 754 871T582 948Q518 948 470 945T385 934V219Q485 205 582 205Q706 205 753 282T801 498Z"  />
<glyph unicode="q" horiz-adv-x="1151" d="M1036 -365Q1036 -382 1024 -394T995 -406H807Q790 -406 778 -393T766 -365V-2Q660 -16 569 -16Q406 -16 297 45T134 222T80 498V655Q80 815 134 931T297 1108T569 1169Q624 1169 676 1166T770 1157T881 1138T981 1116Q1014 1108 1025 1097T1036 1061V-365ZM766 219V934Q732 941 683 944T569 948Q445 948 398 871T350 655V498Q350 435 360 381T395 287T463 226T569 205Q666 205 766 219Z"  />
<glyph unicode="r" horiz-adv-x="745" d="M678 938Q658 939 639 939T586 940Q492 940 385 918V43Q385 25 374 13T344 0H156Q138 0 127 13T115 43V1067Q115 1097 156 1108Q258 1136 375 1152T594 1169Q646 1169 678 1165Q719 1161 719 1126V979Q719 938 678 938Z"  />
<glyph unicode="s" horiz-adv-x="977" d="M467 205Q561 205 592 229T623 295Q623 330 603 353T532 408L252 580Q173 629 127 702T80 862Q80 1169 469 1169Q671 1169 827 1102Q850 1093 860 1082T870 1049V924Q870 879 827 891Q648 948 498 948Q420 948 385 931T350 872Q350 849 359 835T385 808T432 778L700 614Q817 543 857 472T897 317Q897 220 852 144T716 26T496 -16Q293 -16 135 51Q109 64 101 75T92 104V229Q92 274 135 262Q316 205 467 205Z"  />
<glyph unicode="t" horiz-adv-x="817" d="M782 35Q782 4 743 -2Q657 -16 582 -16Q460 -16 391 8T289 103T256 309V952L86 981Q45 988 45 1022V1114Q45 1131 56 1143T86 1155H256V1323Q256 1357 297 1364L487 1397H496Q528 1397 528 1366V1155H735Q754 1155 765 1144T776 1114V993Q776 976 764 964T735 952H528V309Q528 233 541 214T608 195H739Q782 195 782 164V35Z"  />
<glyph unicode="u" horiz-adv-x="1176" d="M115 1112Q115 1128 126 1141T156 1155H344Q362 1155 373 1143T385 1112V436Q385 376 395 335T428 267T491 228T590 215Q691 215 791 238V1112Q791 1128 802 1141T831 1155H1020Q1036 1155 1048 1142T1061 1112V88Q1061 58 1020 47Q910 17 797 2T582 -14Q459 -14 374 11T230 92T143 231T115 434V1112Z"  />
<glyph unicode="v" horiz-adv-x="1116" d="M1073 1122Q1073 1112 1071 1108L813 176Q761 -16 557 -16Q355 -16 303 176L45 1108Q43 1112 43 1122Q43 1135 52 1145T76 1155H281Q311 1155 322 1114L518 256Q528 205 557 205Q586 205 596 256L793 1114Q797 1134 808 1144T836 1155H1040Q1055 1155 1064 1146T1073 1122Z"  />
<glyph unicode="w" horiz-adv-x="1665" d="M1618 1114V1108L1432 166Q1419 99 1400 64T1347 11T1249 -6H1194Q1112 -6 1066 33T999 154L838 780Q835 791 831 791Q828 791 825 780L664 154Q644 73 598 34T469 -6H414Q351 -6 317 11T263 63T231 166L45 1108V1114Q45 1131 56 1143T86 1155H285Q301 1155 311 1144T322 1118L451 252Q454 223 461 223Q469 223 475 252L645 940Q661 998 683 1013T760 1028H903Q959 1028 981 1012T1018 940L1188 252Q1194 223 1202 223Q1209 223 1212 252L1341 1118Q1343 1134 1352 1144T1378 1155H1577Q1594 1155 1606 1143T1618 1114Z"  />
<glyph unicode="x" horiz-adv-x="1130" d="M1096 27Q1096 16 1087 8T1065 0H831Q815 0 806 6T776 41L543 401L322 41Q306 16 295 8T266 0H55Q31 0 31 23Q31 32 37 41L403 596L57 1114Q53 1122 53 1126Q53 1138 62 1146T86 1155H319Q345 1155 373 1114L580 795L772 1114Q789 1141 799 1148T827 1155H1038Q1063 1155 1063 1133Q1063 1123 1057 1114L719 598L1092 41Q1096 33 1096 27Z"  />
<glyph unicode="y" horiz-adv-x="1135" d="M1090 1120Q1090 1112 1087 1108L745 -88Q711 -208 667 -276T544 -377T328 -410Q276 -410 213 -402T111 -383Q68 -372 68 -348V-217Q68 -202 80 -191T109 -180H113Q140 -181 227 -187T344 -193Q389 -193 419 -182T470 -143T506 -61L522 0H492Q457 0 425 11T364 59T313 170L45 1108Q43 1114 43 1122Q43 1155 82 1155H289Q303 1155 314 1144T328 1118L535 285Q545 240 563 240H565H575H582L803 1120Q810 1155 844 1155H1053Q1067 1155 1078 1145T1090 1120Z"  />
<glyph unicode="z" horiz-adv-x="979" d="M909 41Q909 23 897 12T868 0H152Q118 0 94 24T70 82V170Q70 200 96 236L592 918Q598 927 598 930Q598 936 586 936H123Q106 936 96 944T86 969V1114Q86 1131 97 1143T127 1155H823Q856 1155 880 1131T905 1071V954Q905 944 903 929T895 907L418 254L414 248Q414 240 426 240H872Q889 240 899 231T909 207V41Z"  />
<glyph unicode="{" horiz-adv-x="731" d="M713 -371Q713 -387 702 -396T674 -406H559Q442 -406 371 -390T259 -333T202 -230T186 -63V248Q186 327 157 381T66 477V641Q130 685 157 737T184 870V1180Q184 1284 199 1347T255 1450T368 1505T557 1522H674Q690 1522 701 1513T713 1487V1337Q713 1305 674 1305H578Q524 1305 500 1294T467 1255T459 1180V870Q459 761 422 686T299 559Q385 508 423 433T461 248V-63Q461 -113 469 -139T501 -177T580 -188H674Q692 -188 702 -197T713 -221V-371Z"  />
<glyph unicode="|" horiz-adv-x="520" d="M397 -356Q397 -374 386 -385T358 -397H164Q147 -397 135 -385T123 -356V1481Q123 1496 135 1509T164 1522H358Q374 1522 385 1510T397 1481V-356Z"  />
<glyph unicode="}" horiz-adv-x="731" d="M666 477Q604 435 575 382T545 248V-63Q545 -167 529 -231T473 -334T362 -389T172 -406H57Q41 -406 30 -397T18 -371V-221Q18 -206 29 -197T57 -188H152Q204 -188 229 -177T262 -140T270 -63V248Q270 357 307 432T432 559Q348 610 310 685T272 870V1180Q272 1228 264 1255T231 1294T154 1305H57Q18 1305 18 1337V1487Q18 1503 29 1512T57 1522H174Q327 1522 407 1492T517 1389T547 1180V870Q547 791 574 738T666 641V477Z"  />
<glyph unicode="~" horiz-adv-x="1245" d="M1108 973Q1108 821 1043 755T844 688Q805 688 764 698T690 729L510 854Q471 881 430 881Q356 881 356 795V741Q356 700 322 700H176Q139 700 139 741V795Q139 896 168 959T257 1051T406 1081Q496 1081 557 1038L737 915Q776 889 819 889Q858 889 874 908T891 973V1026Q891 1067 926 1067H1069Q1108 1067 1108 1026V973Z"  />
<glyph unicode="&#xA0;" horiz-adv-x="1260" />
<glyph unicode="&#xA1;" horiz-adv-x="487" d="M352 670L383 -371Q383 -388 371 -399T342 -410H147Q131 -410 118 -399T104 -371L135 670Q135 686 148 698T178 711H311Q328 711 340 699T352 670ZM383 1114V883Q383 866 372 855T344 844H143Q126 844 115 855T104 883V1114Q104 1132 115 1143T143 1155H344Q362 1155 372 1144T383 1114Z"  />
<glyph unicode="&#xA2;" horiz-adv-x="1214" d="M672 213Q787 213 936 260Q979 272 979 227V96Q979 77 969 66T936 43Q856 2 760 -10V-178Q760 -195 747 -207T719 -219H551Q534 -219 522 -207T510 -178V4Q418 30 349 90T242 250T205 481V672Q205 868 286 988T510 1147V1327Q510 1344 521 1356T551 1368H719Q736 1368 748 1356T760 1327V1163Q863 1148 936 1110Q959 1099 969 1088T979 1057V926Q979 881 936 893Q868 915 814 927T682 940Q591 940 533 880T475 672V481Q475 336 531 275T672 213Z"  />
<glyph unicode="&#xA3;" horiz-adv-x="1249" d="M741 1272Q635 1272 588 1233T541 1092V895H920Q936 895 948 884T961 856V702Q961 685 950 676T922 666H541V410Q541 316 492 227H1087Q1106 227 1117 219T1128 193V37Q1128 19 1116 10T1087 0H213Q176 0 176 53V158Q176 182 193 205Q220 247 241 303T262 410V666H160Q121 666 121 702V856Q121 872 132 883T162 895H262V1092Q262 1191 287 1268T368 1397T517 1477T748 1505Q846 1505 940 1480T1085 1425Q1130 1400 1130 1370V1241Q1130 1191 1079 1210Q1041 1224 980 1239T856 1263T741 1272Z"  />
<glyph unicode="&#xA4;" horiz-adv-x="1257" d="M1153 1151Q1153 1134 1139 1120L965 948Q1018 859 1018 762Q1018 659 963 567L1133 395Q1147 381 1147 365Q1147 352 1137 342L1040 244Q1029 233 1018 233Q1002 233 987 248L811 424Q729 375 631 375Q529 375 444 426L270 254Q250 238 238 238Q227 238 217 248L121 346Q111 359 111 371Q111 387 125 401L297 571Q242 662 242 762Q242 860 291 942L119 1114Q104 1129 104 1145Q104 1158 115 1169L213 1268Q223 1278 233 1278Q250 1278 266 1262L434 1094Q526 1149 631 1149Q730 1149 819 1096L991 1268Q1005 1282 1022 1282Q1034 1282 1044 1272L1143 1174Q1153 1162 1153 1151ZM821 766Q821 818 796 860T727 927T633 952Q581 952 538 928T468 861T442 766Q442 689 499 632T633 575Q710 575 765 631T821 766Z"  />
<glyph unicode="&#xA5;" horiz-adv-x="1274" d="M1223 1495Q1223 1487 1217 1475L983 1010H1174Q1190 1010 1202 1000T1214 973V844Q1214 826 1204 817T1176 807H883L780 604V580H1174Q1190 580 1202 570T1214 543V414Q1214 396 1204 387T1176 377H780V41Q780 23 769 12T741 0H530Q514 0 504 12T494 41V377H96Q80 377 69 386T57 414V543Q57 558 69 569T98 580H494V604L391 807H96Q80 807 69 816T57 844V973Q57 988 69 999T98 1010H291L57 1475Q51 1487 51 1495Q51 1507 61 1514T84 1522H317Q338 1522 354 1489L637 887L920 1489Q937 1522 958 1522H1190Q1203 1522 1213 1515T1223 1495Z"  />
<glyph unicode="&#xA6;" horiz-adv-x="520" d="M397 743Q397 726 386 713T358 700H164Q146 700 135 713T123 743V1450Q123 1467 134 1479T164 1491H358Q376 1491 386 1480T397 1450V743ZM397 -389Q397 -406 386 -419T358 -432H164Q146 -432 135 -419T123 -389V317Q123 334 134 346T164 358H358Q376 358 386 347T397 317V-389Z"  />
<glyph unicode="&#xA7;" horiz-adv-x="1149" d="M526 -193Q664 -190 714 -145T764 -12Q764 48 732 87T598 186L342 338Q191 428 135 519T78 737Q78 869 135 948Q78 1035 78 1163Q78 1282 127 1365T289 1493T588 1538Q690 1538 789 1513T940 1458Q985 1433 985 1403V1255Q985 1205 934 1225Q878 1246 775 1266T590 1286Q474 1286 425 1253T375 1149Q375 1097 408 1060T539 967L784 829Q895 768 957 706T1045 574T1071 420Q1071 292 1018 201Q1071 118 1071 -6Q1071 -122 1020 -221T848 -381T535 -442Q408 -442 304 -413T158 -360Q129 -343 121 -333T113 -305V-160Q113 -114 164 -129Q363 -193 526 -193ZM829 422Q829 475 812 513T750 587T614 680L453 776Q370 826 342 852Q303 807 303 729Q303 684 320 649T375 583T498 500L655 406Q753 348 805 299Q829 346 829 422Z"  />
<glyph unicode="&#xA8;" horiz-adv-x="821" d="M733 1350Q733 1332 720 1321T690 1309H543Q527 1309 514 1320T500 1350V1530Q500 1546 513 1558T543 1571H690Q706 1571 719 1559T733 1530V1350ZM324 1350Q324 1332 311 1321T281 1309H133Q117 1309 104 1320T90 1350V1530Q90 1546 103 1558T133 1571H281Q297 1571 310 1559T324 1530V1350Z"  />
<glyph unicode="&#xA9;" horiz-adv-x="753" d="M215 1241V1257Q215 1354 262 1395T377 1436Q433 1436 471 1415Q485 1408 485 1391V1364Q485 1335 459 1346Q453 1347 439 1351T410 1357T377 1360Q338 1360 323 1338T307 1257V1241Q307 1182 322 1162T377 1141Q394 1141 409 1143T439 1150T459 1155Q485 1165 485 1137V1108Q485 1091 471 1083Q434 1063 377 1063Q309 1063 262 1104T215 1241ZM612 1245Q612 1342 544 1412T377 1483Q278 1483 210 1413T141 1245Q141 1179 172 1125T256 1040T377 1008Q443 1008 496 1039T580 1124T612 1245ZM59 1245Q59 1330 101 1404T218 1520T377 1563Q462 1563 536 1520T652 1404T694 1245Q694 1160 652 1087T536 971T377 928Q292 928 219 970T102 1086T59 1245Z"  />
<glyph unicode="&#xAA;" horiz-adv-x="668" d="M602 883Q602 855 584 850Q472 819 346 819Q197 819 127 872T57 1036V1051Q57 1122 93 1165T198 1227T369 1247H422V1274Q422 1334 399 1357T326 1380Q243 1380 135 1370H133Q124 1370 114 1378T104 1399V1477Q104 1500 133 1507Q231 1532 326 1532Q461 1532 531 1472T602 1274V883ZM422 958V1141Q415 1142 408 1142T383 1143Q371 1143 369 1141Q293 1141 261 1121T229 1051V1036Q229 989 256 970T346 950Q357 950 375 952T403 955T422 958Z"  />
<glyph unicode="&#xAB;" horiz-adv-x="1389" d="M1337 158Q1337 135 1307 135H1096Q1073 135 1064 139T1034 162L702 526Q686 543 686 578Q686 612 702 629L1034 993Q1050 1009 1061 1014T1096 1020H1307Q1337 1020 1337 997Q1337 989 1331 983L961 578L1331 172Q1337 166 1337 158ZM733 158Q733 135 702 135H492Q469 135 460 139T430 162L98 526Q82 543 82 578Q82 612 98 629L430 993Q446 1009 457 1014T492 1020H702Q733 1020 733 997Q733 989 727 983L356 578L727 172Q733 166 733 158Z"  />
<glyph unicode="&#xAC;" horiz-adv-x="1237" d="M1075 416Q1075 398 1063 387T1034 375H907Q892 375 879 387T866 416V946H205Q164 946 164 979V1122Q164 1155 205 1155H1038Q1055 1155 1065 1146T1075 1120V416Z"  />
<glyph unicode="&#xAD;" horiz-adv-x="633" d="M557 557Q557 541 546 531T518 520H117Q100 520 88 531T76 557V702Q76 718 87 729T117 741H518Q535 741 546 730T557 702V557Z"  />
<glyph unicode="&#xAE;" horiz-adv-x="753" d="M612 1245Q612 1342 544 1412T377 1483Q278 1483 210 1413T141 1245Q141 1179 172 1125T256 1040T377 1008Q443 1008 496 1039T580 1124T612 1245ZM326 1202V1098Q326 1077 305 1077H258Q240 1077 240 1098V1397Q240 1419 262 1423Q300 1427 381 1427Q452 1427 489 1399T526 1321Q526 1247 457 1217L528 1104Q535 1096 533 1087T520 1077H451Q439 1077 432 1090L371 1202H326ZM324 1272H379Q440 1272 440 1317Q440 1360 379 1360H324V1272ZM59 1245Q59 1330 101 1404T218 1520T377 1563Q462 1563 536 1520T652 1404T694 1245Q694 1160 652 1087T536 971T377 928Q292 928 219 970T102 1086T59 1245Z"  />
<glyph unicode="&#xAF;" horiz-adv-x="1087" d="M1143 1643Q1143 1610 1102 1610H-14Q-55 1610 -55 1643V1743Q-55 1776 -14 1776H1102Q1143 1776 1143 1743V1643Z"  />
<glyph unicode="&#xB0;" horiz-adv-x="707" d="M659 1233Q659 1151 618 1081T507 969T354 928Q272 928 202 969T90 1080T49 1233Q49 1315 90 1385T201 1497T354 1538Q436 1538 506 1497T618 1386T659 1233ZM516 1233Q516 1267 503 1296T469 1347T418 1382T354 1395Q287 1395 241 1347T195 1233Q195 1168 241 1121T354 1073Q421 1073 468 1119T516 1233Z"  />
<glyph unicode="&#xB1;" horiz-adv-x="1241" d="M1098 729Q1098 714 1086 705T1057 696H725V367Q725 326 692 326H549Q516 326 516 367V696H186Q170 696 158 705T145 729V872Q145 905 186 905H516V1237Q516 1278 549 1278H692Q725 1278 725 1237V905H1057Q1098 905 1098 872V729ZM1098 2Q1098 -13 1086 -22T1057 -31H186Q170 -31 158 -22T145 2V117Q145 132 157 141T186 150H1057Q1073 150 1085 141T1098 117V2Z"  />
<glyph unicode="&#xB2;" horiz-adv-x="686" d="M618 1317Q618 1250 586 1197T481 1096L381 1030Q299 974 273 939T244 856H575Q610 856 610 825V719Q610 688 575 688H96Q83 688 72 697T61 721V813Q61 923 106 997T252 1141L365 1217Q400 1240 414 1261T428 1311Q428 1348 403 1362T317 1376Q223 1376 104 1337Q86 1333 80 1342T74 1368V1438Q74 1459 81 1466T104 1483Q152 1507 217 1522T346 1538Q481 1538 549 1485T618 1317Z"  />
<glyph unicode="&#xB3;" horiz-adv-x="684" d="M301 844Q432 844 432 928V948Q432 987 412 1015T340 1044H141Q129 1044 119 1054T109 1075V1163Q109 1176 118 1186T141 1196H332Q432 1196 432 1284V1294Q432 1372 299 1372Q209 1372 102 1337Q84 1333 78 1342T72 1368V1438Q72 1459 79 1466T102 1483Q212 1538 334 1538Q419 1538 484 1516T585 1444T621 1315V1303Q621 1239 600 1196T530 1120Q618 1063 618 948V928Q618 812 538 745T326 678Q212 678 102 733Q86 742 79 749T72 778V848Q72 865 77 874T102 879Q209 844 301 844Z"  />
<glyph unicode="&#xB4;" horiz-adv-x="799" d="M741 1581Q741 1573 733 1565L492 1311Q479 1297 470 1291T442 1284H266Q248 1284 248 1298Q248 1311 256 1319L451 1565Q466 1584 475 1589T504 1595H719Q741 1595 741 1581Z"  />
<glyph unicode="&#xB5;" horiz-adv-x="1165" d="M1061 86Q1061 46 1006 33Q964 22 893 10T751 -9T590 -16Q458 -16 379 47V-352Q379 -371 369 -382T342 -393H143Q127 -393 116 -382T104 -352V1112Q104 1128 116 1141T145 1155H336Q352 1155 364 1142T377 1112V403Q377 207 590 207Q703 207 786 229V1112Q786 1128 798 1141T827 1155H1018Q1035 1155 1048 1142T1061 1112V86Z"  />
<glyph unicode="&#xB6;" horiz-adv-x="1288" d="M1184 -360Q1184 -375 1174 -387T1149 -399H1077Q1062 -399 1052 -387T1042 -360V1384H918V-360Q918 -375 908 -387T883 -399H811Q796 -399 786 -387T776 -360V512H573Q356 512 218 632T80 969V1065Q80 1209 143 1312T319 1468T573 1522H1151Q1184 1522 1184 1483V-360Z"  />
<glyph unicode="&#xB7;" horiz-adv-x="494" d="M387 674Q387 656 375 645T346 633H145Q130 633 117 645T104 674V905Q104 921 116 932T145 944H346Q364 944 375 934T387 905V674Z"  />
<glyph unicode="&#xB8;" horiz-adv-x="776" d="M590 -84Q590 -92 582 -100L338 -352Q321 -371 314 -376T291 -381H115Q96 -381 96 -367Q96 -354 104 -346L297 -100Q312 -81 321 -76T350 -70H567Q590 -70 590 -84Z"  />
<glyph unicode="&#xB9;" horiz-adv-x="573" d="M420 707Q420 678 393 678H254Q227 678 227 707V1329L96 1274Q92 1272 84 1272Q68 1272 68 1290V1413Q68 1432 88 1440L256 1513Q274 1522 301 1522H391Q420 1522 420 1495V707Z"  />
<glyph unicode="&#xBA;" horiz-adv-x="715" d="M657 1141Q657 982 581 901T358 819Q213 819 136 901T59 1141V1210Q59 1368 136 1450T358 1532Q504 1532 580 1451T657 1210V1141ZM475 1141V1210Q475 1298 447 1338T358 1378Q298 1378 269 1338T240 1210V1141Q240 1053 268 1012T358 971Q419 971 447 1012T475 1141Z"  />
<glyph unicode="&#xBB;" horiz-adv-x="1389" d="M1333 578Q1333 543 1317 526L985 162Q969 146 959 141T924 135H713Q682 135 682 158Q682 166 688 172L1059 578L688 983Q682 989 682 997Q682 1020 713 1020H924Q948 1020 960 1014T985 993L1317 629Q1333 612 1333 578ZM729 578Q729 543 713 526L381 162Q365 146 354 141T319 135H109Q78 135 78 158Q78 166 84 172L455 578L84 983Q78 989 78 997Q78 1020 109 1020H319Q343 1020 355 1014T381 993L713 629Q729 612 729 578Z"  />
<glyph unicode="&#xBC;" horiz-adv-x="1550" d="M1481 223Q1481 209 1471 200T1446 190H1384V35Q1384 21 1376 11T1354 0H1225Q1194 0 1194 35V190H887Q858 190 858 215V319Q858 347 872 367L1212 834Q1226 846 1241 846H1335Q1384 846 1384 797V346H1446Q1460 346 1470 338T1481 315V223ZM1200 346V598L1030 365Q1024 358 1024 352Q1024 346 1032 346H1200ZM1282 1505Q1282 1492 1274 1481L416 29Q404 7 396 1T373 -6H205Q184 -6 184 12Q184 27 193 37L1051 1487Q1064 1508 1071 1515T1096 1522H1262Q1282 1522 1282 1505ZM420 707Q420 678 393 678H254Q227 678 227 707V1329L96 1274Q92 1272 84 1272Q68 1272 68 1290V1413Q68 1432 88 1440L256 1513Q274 1522 301 1522H391Q420 1522 420 1495V707Z"  />
<glyph unicode="&#xBD;" horiz-adv-x="1608" d="M1538 629Q1538 498 1401 408L1300 342Q1217 288 1191 252T1163 168H1495Q1509 168 1519 160T1530 137V31Q1530 17 1520 9T1495 0H1016Q1004 0 993 9T981 33V125Q981 235 1027 311T1171 453L1284 528Q1323 555 1335 574T1348 623Q1348 660 1323 674T1237 688Q1188 688 1128 676T1024 649Q1005 645 999 654T993 680V750Q993 771 1000 778T1024 795Q1073 819 1137 834T1266 850Q1401 850 1469 797T1538 629ZM1282 1505Q1282 1492 1274 1481L416 29Q404 7 396 1T373 -6H205Q184 -6 184 12Q184 27 193 37L1051 1487Q1064 1508 1071 1515T1096 1522H1262Q1282 1522 1282 1505ZM420 707Q420 678 393 678H254Q227 678 227 707V1329L96 1274Q92 1272 84 1272Q68 1272 68 1290V1413Q68 1432 88 1440L256 1513Q274 1522 301 1522H391Q420 1522 420 1495V707Z"  />
<glyph unicode="&#xBE;" horiz-adv-x="1722" d="M301 844Q432 844 432 928V948Q432 987 412 1015T340 1044H141Q129 1044 119 1054T109 1075V1163Q109 1176 118 1186T141 1196H332Q432 1196 432 1284V1294Q432 1372 299 1372Q209 1372 102 1337Q84 1333 78 1342T72 1368V1438Q72 1459 79 1466T102 1483Q212 1538 334 1538Q419 1538 484 1516T585 1444T621 1315V1303Q621 1239 600 1196T530 1120Q618 1063 618 948V928Q618 812 538 745T326 678Q212 678 102 733Q86 742 79 749T72 778V848Q72 865 77 874T102 879Q209 844 301 844ZM1409 1505Q1409 1492 1401 1481L543 29Q531 7 523 1T500 -6H332Q311 -6 311 12Q311 26 319 37L1178 1487Q1191 1508 1198 1515T1223 1522H1389Q1409 1522 1409 1505ZM1618 223Q1618 210 1607 200T1583 190H1522V35Q1522 21 1514 11T1491 0H1362Q1331 0 1331 35V190H1024Q995 190 995 215V319Q995 347 1010 367L1350 834Q1362 846 1378 846H1473Q1522 846 1522 797V346H1583Q1618 346 1618 315V223ZM1337 346V598L1167 365Q1161 358 1161 352Q1161 346 1169 346H1337Z"  />
<glyph unicode="&#xBF;" horiz-adv-x="879" d="M401 1116Q401 1132 413 1143T442 1155H643Q661 1155 672 1145T684 1116V885Q684 867 672 856T643 844H442Q427 844 414 856T401 885V1116ZM477 -139Q605 -139 774 -78Q825 -59 825 -109V-248Q825 -278 780 -303Q735 -327 640 -355T426 -383Q310 -383 228 -354T100 -253T53 -51V-39Q53 38 80 107T199 285L324 432Q379 497 398 527T418 600V678Q418 693 430 705T459 717H629Q646 717 657 706T668 678V600Q668 503 644 444T547 299L416 147Q377 103 367 64T356 -39V-47Q356 -93 383 -116T477 -139Z"  />
<glyph unicode="&#xC0;" horiz-adv-x="1315" d="M1280 35Q1280 19 1270 10T1243 0H1026Q1013 0 1002 10T987 35L893 424H422L328 35Q325 21 314 11T289 0H72Q56 0 46 9T35 35Q36 37 36 39T37 45L373 1329Q427 1538 657 1538Q888 1538 942 1329L1278 45Q1279 42 1279 40T1280 35ZM838 657L690 1266Q685 1285 679 1291T657 1298Q643 1298 637 1292T625 1266L477 657H838ZM885 1640Q885 1626 866 1626H690Q679 1626 672 1629T657 1639T643 1653L400 1907Q391 1915 391 1923Q391 1937 414 1937H631Q650 1937 659 1932T684 1907L877 1661Q885 1653 885 1640Z"  />
<glyph unicode="&#xC1;" horiz-adv-x="1315" d="M1280 35Q1280 19 1270 10T1243 0H1026Q1013 0 1002 10T987 35L893 424H422L328 35Q325 21 314 11T289 0H72Q56 0 46 9T35 35Q36 37 36 39T37 45L373 1329Q427 1538 657 1538Q888 1538 942 1329L1278 45Q1279 42 1279 40T1280 35ZM838 657L690 1266Q685 1285 679 1291T657 1298Q643 1298 637 1292T625 1266L477 657H838ZM1001 1923Q1001 1915 993 1907L752 1653Q739 1639 730 1633T702 1626H526Q508 1626 508 1640Q508 1653 516 1661L711 1907Q726 1926 735 1931T764 1937H979Q1001 1937 1001 1923Z"  />
<glyph unicode="&#xC2;" horiz-adv-x="1315" d="M1280 35Q1280 19 1270 10T1243 0H1026Q1013 0 1002 10T987 35L893 424H422L328 35Q325 21 314 11T289 0H72Q56 0 46 9T35 35Q36 37 36 39T37 45L373 1329Q427 1538 657 1538Q888 1538 942 1329L1278 45Q1279 42 1279 40T1280 35ZM838 657L690 1266Q685 1285 679 1291T657 1298Q643 1298 637 1292T625 1266L477 657H838ZM1038 1640Q1038 1626 1019 1626H849Q838 1626 831 1629T816 1639T802 1653L657 1819L511 1653Q496 1637 488 1632T462 1626H292Q274 1626 274 1640Q274 1653 282 1661L470 1907Q488 1927 496 1932T524 1937H790Q809 1937 818 1932T843 1907L1030 1661Q1038 1653 1038 1640Z"  />
<glyph unicode="&#xC3;" horiz-adv-x="1315" d="M1280 35Q1280 19 1270 10T1243 0H1026Q1013 0 1002 10T987 35L893 424H422L328 35Q325 21 314 11T289 0H72Q56 0 46 9T35 35Q36 37 36 39T37 45L373 1329Q427 1538 657 1538Q888 1538 942 1329L1278 45Q1279 42 1279 40T1280 35ZM838 657L690 1266Q685 1285 679 1291T657 1298Q643 1298 637 1292T625 1266L477 657H838ZM1083 1842Q1083 1613 856 1613Q821 1613 783 1625T713 1660L623 1728Q565 1771 537 1771Q479 1771 479 1701V1658Q479 1625 451 1625H334Q305 1625 305 1658V1701Q305 1931 535 1931Q615 1931 676 1885L766 1818Q819 1777 852 1777Q909 1777 909 1845V1888Q909 1920 938 1920H1055Q1083 1920 1083 1888V1842Z"  />
<glyph unicode="&#xC4;" horiz-adv-x="1315" d="M1280 35Q1280 19 1270 10T1243 0H1026Q1013 0 1002 10T987 35L893 424H422L328 35Q325 21 314 11T289 0H72Q56 0 46 9T35 35Q36 37 36 39T37 45L373 1329Q427 1538 657 1538Q888 1538 942 1329L1278 45Q1279 42 1279 40T1280 35ZM838 657L690 1266Q685 1285 679 1291T657 1298Q643 1298 637 1292T625 1266L477 657H838ZM977 1688Q977 1670 964 1659T934 1647H787Q771 1647 758 1658T744 1688V1868Q744 1884 757 1896T787 1909H934Q950 1909 963 1897T977 1868V1688ZM568 1688Q568 1670 555 1659T525 1647H377Q361 1647 348 1658T334 1688V1868Q334 1884 347 1896T377 1909H525Q541 1909 554 1897T568 1868V1688Z"  />
<glyph unicode="&#xC5;" horiz-adv-x="1315" d="M1280 35Q1280 19 1270 10T1243 0H1026Q1013 0 1002 10T987 35L893 424H422L328 35Q325 21 314 11T289 0H72Q56 0 46 9T35 35Q36 37 36 39T37 45L373 1329Q427 1538 657 1538Q888 1538 942 1329L1278 45Q1279 42 1279 40T1280 35ZM838 657L690 1266Q685 1285 679 1291T657 1298Q643 1298 637 1292T625 1266L477 657H838ZM881 1820Q881 1758 850 1706T767 1625T655 1595Q595 1595 542 1625T459 1706T428 1820Q428 1913 494 1980T655 2047Q716 2047 767 2017T850 1934T881 1820ZM754 1822Q754 1863 725 1890T655 1918Q616 1918 589 1891T561 1822Q561 1782 588 1753T655 1724Q682 1724 704 1737T740 1773T754 1822Z"  />
<glyph unicode="&#xC6;" horiz-adv-x="1780" d="M1675 55Q1675 34 1666 25T1634 12Q1565 -3 1506 -9T1307 -16Q1160 -16 1057 18T894 145T834 403V424H422L328 35Q325 21 314 11T289 0H72Q56 0 46 9T35 35Q36 37 36 39T37 45L373 1329Q406 1454 480 1488T657 1522H1634Q1675 1522 1675 1479V1335Q1675 1318 1663 1306T1634 1294H1116V897H1610Q1627 897 1639 885T1651 856V709Q1651 692 1638 680T1610 668H1116V403Q1116 304 1152 266T1278 227H1634Q1653 227 1664 216T1675 186V55ZM834 657V1298H657Q643 1298 637 1292T625 1266L477 657H834Z"  />
<glyph unicode="&#xC7;" horiz-adv-x="1124" d="M844 -84Q844 -90 834 -100L590 -352Q572 -373 566 -377T543 -381H367Q348 -381 348 -367Q348 -358 356 -346L549 -100Q564 -81 573 -76T602 -70H819Q844 -70 844 -84ZM662 -16Q562 -16 464 13T282 112T147 306T96 610V911Q96 1156 179 1295T388 1486T662 1538Q739 1538 810 1523T934 1487T999 1458Q1044 1433 1044 1403V1264Q1044 1214 993 1233Q958 1246 901 1261T787 1285T680 1294Q578 1294 513 1258T416 1138T383 911V610Q383 471 415 387T513 265T680 227Q759 227 844 246T993 289Q1044 308 1044 258V119Q1044 89 999 63Q957 39 863 12T662 -16Z"  />
<glyph unicode="&#xC8;" horiz-adv-x="1139" d="M1034 55Q1034 17 993 12Q973 10 941 4T842 -7T736 -14T604 -16Q458 -16 355 18T191 145T131 403V1118Q131 1283 191 1376T354 1503T604 1538Q822 1538 993 1509Q1017 1506 1025 1497T1034 1466V1335Q1034 1318 1022 1306T993 1294H575Q486 1294 450 1256T414 1118V897H969Q986 897 998 885T1010 856V709Q1010 692 997 680T969 668H414V403Q414 304 450 266T575 227H993Q1012 227 1023 216T1034 186V55ZM803 1640Q803 1626 784 1626H608Q597 1626 590 1629T575 1639T561 1653L318 1907Q309 1915 309 1923Q309 1937 332 1937H549Q568 1937 577 1932T602 1907L795 1661Q803 1653 803 1640Z"  />
<glyph unicode="&#xC9;" horiz-adv-x="1139" d="M1034 55Q1034 17 993 12Q973 10 941 4T842 -7T736 -14T604 -16Q458 -16 355 18T191 145T131 403V1118Q131 1283 191 1376T354 1503T604 1538Q822 1538 993 1509Q1017 1506 1025 1497T1034 1466V1335Q1034 1318 1022 1306T993 1294H575Q486 1294 450 1256T414 1118V897H969Q986 897 998 885T1010 856V709Q1010 692 997 680T969 668H414V403Q414 304 450 266T575 227H993Q1012 227 1023 216T1034 186V55ZM907 1923Q907 1915 899 1907L658 1653Q645 1639 636 1633T608 1626H432Q414 1626 414 1640Q414 1653 422 1661L617 1907Q632 1926 641 1931T670 1937H885Q907 1937 907 1923Z"  />
<glyph unicode="&#xCA;" horiz-adv-x="1139" d="M1034 55Q1034 17 993 12Q973 10 941 4T842 -7T736 -14T604 -16Q458 -16 355 18T191 145T131 403V1118Q131 1283 191 1376T354 1503T604 1538Q822 1538 993 1509Q1017 1506 1025 1497T1034 1466V1335Q1034 1318 1022 1306T993 1294H575Q486 1294 450 1256T414 1118V897H969Q986 897 998 885T1010 856V709Q1010 692 997 680T969 668H414V403Q414 304 450 266T575 227H993Q1012 227 1023 216T1034 186V55ZM969 1642Q969 1628 950 1628H780Q769 1628 762 1631T747 1641T733 1655L588 1821L442 1655Q427 1639 419 1634T393 1628H223Q205 1628 205 1642Q205 1655 213 1663L401 1909Q419 1929 427 1934T455 1939H721Q740 1939 749 1934T774 1909L961 1663Q969 1655 969 1642Z"  />
<glyph unicode="&#xCB;" horiz-adv-x="1139" d="M1034 55Q1034 17 993 12Q973 10 941 4T842 -7T736 -14T604 -16Q458 -16 355 18T191 145T131 403V1118Q131 1283 191 1376T354 1503T604 1538Q822 1538 993 1509Q1017 1506 1025 1497T1034 1466V1335Q1034 1318 1022 1306T993 1294H575Q486 1294 450 1256T414 1118V897H969Q986 897 998 885T1010 856V709Q1010 692 997 680T969 668H414V403Q414 304 450 266T575 227H993Q1012 227 1023 216T1034 186V55ZM895 1688Q895 1670 882 1659T852 1647H705Q689 1647 676 1658T662 1688V1868Q662 1884 675 1896T705 1909H852Q868 1909 881 1897T895 1868V1688ZM486 1688Q486 1670 473 1659T443 1647H295Q279 1647 266 1658T252 1688V1868Q252 1884 265 1896T295 1909H443Q459 1909 472 1897T486 1868V1688Z"  />
<glyph unicode="&#xCC;" horiz-adv-x="547" d="M416 41Q416 24 403 12T375 0H172Q157 0 144 12T131 41V1483Q131 1499 143 1510T172 1522H375Q391 1522 403 1511T416 1483V41ZM453 1640Q453 1626 434 1626H258Q247 1626 240 1629T225 1639T211 1653L-32 1907Q-41 1915 -41 1923Q-41 1937 -18 1937H199Q218 1937 227 1932T252 1907L445 1661Q453 1653 453 1640Z"  />
<glyph unicode="&#xCD;" horiz-adv-x="547" d="M416 41Q416 24 403 12T375 0H172Q157 0 144 12T131 41V1483Q131 1499 143 1510T172 1522H375Q391 1522 403 1511T416 1483V41ZM600 1923Q600 1915 592 1907L351 1653Q338 1639 329 1633T301 1626H125Q107 1626 107 1640Q107 1653 115 1661L310 1907Q325 1926 334 1931T363 1937H578Q600 1937 600 1923Z"  />
<glyph unicode="&#xCE;" horiz-adv-x="547" d="M416 41Q416 24 403 12T375 0H172Q157 0 144 12T131 41V1483Q131 1499 143 1510T172 1522H375Q391 1522 403 1511T416 1483V41ZM659 1640Q659 1626 640 1626H470Q459 1626 452 1629T437 1639T423 1653L278 1819L132 1653Q117 1637 109 1632T83 1626H-87Q-105 1626 -105 1640Q-105 1653 -97 1661L91 1907Q109 1927 117 1932T145 1937H411Q430 1937 439 1932T464 1907L651 1661Q659 1653 659 1640Z"  />
<glyph unicode="&#xCF;" horiz-adv-x="547" d="M416 41Q416 24 403 12T375 0H172Q157 0 144 12T131 41V1483Q131 1499 143 1510T172 1522H375Q391 1522 403 1511T416 1483V41ZM596 1688Q596 1670 583 1659T553 1647H406Q390 1647 377 1658T363 1688V1868Q363 1884 376 1896T406 1909H553Q569 1909 582 1897T596 1868V1688ZM187 1688Q187 1670 174 1659T144 1647H-4Q-20 1647 -33 1658T-47 1688V1868Q-47 1884 -34 1896T-4 1909H144Q160 1909 173 1897T187 1868V1688Z"  />
<glyph unicode="&#xD0;" horiz-adv-x="1350" d="M1253 610Q1253 457 1211 341T1087 146T884 25T610 -16Q527 -16 392 -8T207 8Q154 17 154 72V668H35Q18 668 7 679T-4 707V860Q-4 897 35 897H154V1450Q154 1504 207 1513Q252 1522 374 1530T610 1538Q763 1538 884 1497T1086 1377T1210 1182T1253 911V610ZM971 610V911Q971 1058 926 1143T800 1263T610 1298Q563 1298 548 1298T499 1296T438 1292V897H584Q602 897 612 888T623 860V707Q623 690 612 679T584 668H438V229Q567 223 610 223Q781 223 876 309T971 610Z"  />
<glyph unicode="&#xD1;" horiz-adv-x="1413" d="M1282 82Q1282 48 1258 24T1200 0H993Q946 0 918 13T868 74L414 1071Q406 1087 395 1087Q385 1087 385 1071V41Q385 23 374 12T346 0H172Q157 0 144 12T131 41V1440Q131 1474 155 1498T213 1522H434Q468 1522 487 1508T524 1456L1001 403Q1009 387 1018 387Q1028 387 1028 406V1483Q1028 1500 1039 1511T1067 1522H1243Q1260 1522 1271 1511T1282 1483V82ZM1081 1842Q1081 1613 854 1613Q819 1613 781 1625T711 1660L621 1728Q563 1771 535 1771Q477 1771 477 1701V1658Q477 1625 449 1625H332Q303 1625 303 1658V1701Q303 1931 533 1931Q613 1931 674 1885L764 1818Q817 1777 850 1777Q907 1777 907 1845V1888Q907 1920 936 1920H1053Q1081 1920 1081 1888V1842Z"  />
<glyph unicode="&#xD2;" horiz-adv-x="1360" d="M1264 623Q1264 405 1190 262T984 51T680 -16Q508 -16 376 51T170 261T96 623V899Q96 1117 170 1260T376 1471T680 1538Q852 1538 984 1471T1190 1261T1264 899V623ZM977 623V899Q977 1101 905 1195T680 1290Q528 1290 456 1196T383 899V623Q383 422 455 327T680 231Q832 231 904 326T977 623ZM856 1640Q856 1626 837 1626H661Q650 1626 643 1629T628 1639T614 1653L371 1907Q362 1915 362 1923Q362 1937 385 1937H602Q621 1937 630 1932T655 1907L848 1661Q856 1653 856 1640Z"  />
<glyph unicode="&#xD3;" horiz-adv-x="1360" d="M1264 623Q1264 405 1190 262T984 51T680 -16Q508 -16 376 51T170 261T96 623V899Q96 1117 170 1260T376 1471T680 1538Q852 1538 984 1471T1190 1261T1264 899V623ZM977 623V899Q977 1101 905 1195T680 1290Q528 1290 456 1196T383 899V623Q383 422 455 327T680 231Q832 231 904 326T977 623ZM983 1923Q983 1915 975 1907L734 1653Q721 1639 712 1633T684 1626H508Q490 1626 490 1640Q490 1653 498 1661L693 1907Q708 1926 717 1931T746 1937H961Q983 1937 983 1923Z"  />
<glyph unicode="&#xD4;" horiz-adv-x="1360" d="M1264 623Q1264 405 1190 262T984 51T680 -16Q508 -16 376 51T170 261T96 623V899Q96 1117 170 1260T376 1471T680 1538Q852 1538 984 1471T1190 1261T1264 899V623ZM977 623V899Q977 1101 905 1195T680 1290Q528 1290 456 1196T383 899V623Q383 422 455 327T680 231Q832 231 904 326T977 623ZM1057 1642Q1057 1628 1038 1628H868Q857 1628 850 1631T835 1641T821 1655L676 1821L530 1655Q515 1639 507 1634T481 1628H311Q293 1628 293 1642Q293 1655 301 1663L489 1909Q507 1929 515 1934T543 1939H809Q828 1939 837 1934T862 1909L1049 1663Q1057 1655 1057 1642Z"  />
<glyph unicode="&#xD5;" horiz-adv-x="1360" d="M1264 623Q1264 405 1190 262T984 51T680 -16Q508 -16 376 51T170 261T96 623V899Q96 1117 170 1260T376 1471T680 1538Q852 1538 984 1471T1190 1261T1264 899V623ZM977 623V899Q977 1101 905 1195T680 1290Q528 1290 456 1196T383 899V623Q383 422 455 327T680 231Q832 231 904 326T977 623ZM1079 1844Q1079 1615 852 1615Q817 1615 779 1627T709 1662L619 1730Q561 1773 533 1773Q475 1773 475 1703V1660Q475 1627 447 1627H330Q301 1627 301 1660V1703Q301 1933 531 1933Q611 1933 672 1887L762 1820Q815 1779 848 1779Q905 1779 905 1847V1890Q905 1922 934 1922H1051Q1079 1922 1079 1890V1844Z"  />
<glyph unicode="&#xD6;" horiz-adv-x="1360" d="M1264 623Q1264 405 1190 262T984 51T680 -16Q508 -16 376 51T170 261T96 623V899Q96 1117 170 1260T376 1471T680 1538Q852 1538 984 1471T1190 1261T1264 899V623ZM977 623V899Q977 1101 905 1195T680 1290Q528 1290 456 1196T383 899V623Q383 422 455 327T680 231Q832 231 904 326T977 623ZM989 1688Q989 1670 976 1659T946 1647H799Q783 1647 770 1658T756 1688V1868Q756 1884 769 1896T799 1909H946Q962 1909 975 1897T989 1868V1688ZM580 1688Q580 1670 567 1659T537 1647H389Q373 1647 360 1658T346 1688V1868Q346 1884 359 1896T389 1909H537Q553 1909 566 1897T580 1868V1688Z"  />
<glyph unicode="&#xD7;" horiz-adv-x="1225" d="M1026 1102Q1036 1092 1036 1081Q1036 1069 1022 1051L772 801L1020 553Q1034 539 1034 522Q1034 510 1026 502L911 387Q903 379 891 379Q874 379 860 393L612 641L365 393Q350 379 334 379Q321 379 313 387L199 502Q190 511 190 522Q190 538 205 553L453 801L203 1051Q188 1070 188 1081Q188 1091 199 1102L311 1214Q320 1225 334 1225Q345 1225 362 1210L612 961L862 1210Q879 1225 893 1225Q904 1225 913 1214L1026 1102Z"  />
<glyph unicode="&#xD8;" horiz-adv-x="1360" d="M1327 1509Q1327 1502 1321 1493L1174 1288Q1264 1133 1264 899V623Q1264 405 1190 262T984 51T680 -16Q612 -16 544 -5T419 30T313 90L254 8Q236 -16 213 -16H57Q35 -16 35 6Q35 13 41 23L188 227Q96 381 96 623V899Q96 1117 170 1260T376 1471T680 1538Q908 1538 1053 1427L1112 1511Q1127 1532 1151 1532H1305Q1327 1532 1327 1509ZM893 1208Q821 1290 680 1290Q528 1290 456 1196T383 899V623Q383 561 389 508L893 1208ZM977 623V899Q977 957 971 1006L471 309Q543 231 680 231Q832 231 904 326T977 623Z"  />
<glyph unicode="&#xD9;" horiz-adv-x="1372" d="M1249 563Q1249 402 1209 291T1095 113T918 15T686 -16Q558 -16 455 15T279 112T164 291T123 563V1483Q123 1499 134 1510T164 1522H367Q383 1522 395 1511T408 1483V563Q408 440 432 366T517 256T686 219Q795 219 856 256T941 366T965 563V1483Q965 1499 976 1510T1006 1522H1208Q1226 1522 1237 1512T1249 1483V563ZM848 1640Q848 1626 829 1626H653Q642 1626 635 1629T620 1639T606 1653L363 1907Q354 1915 354 1923Q354 1937 377 1937H594Q613 1937 622 1932T647 1907L840 1661Q848 1653 848 1640Z"  />
<glyph unicode="&#xDA;" horiz-adv-x="1372" d="M1249 563Q1249 402 1209 291T1095 113T918 15T686 -16Q558 -16 455 15T279 112T164 291T123 563V1483Q123 1499 134 1510T164 1522H367Q383 1522 395 1511T408 1483V563Q408 440 432 366T517 256T686 219Q795 219 856 256T941 366T965 563V1483Q965 1499 976 1510T1006 1522H1208Q1226 1522 1237 1512T1249 1483V563ZM1028 1923Q1028 1915 1020 1907L779 1653Q766 1639 757 1633T729 1626H553Q535 1626 535 1640Q535 1653 543 1661L738 1907Q753 1926 762 1931T791 1937H1006Q1028 1937 1028 1923Z"  />
<glyph unicode="&#xDB;" horiz-adv-x="1372" d="M1249 563Q1249 402 1209 291T1095 113T918 15T686 -16Q558 -16 455 15T279 112T164 291T123 563V1483Q123 1499 134 1510T164 1522H367Q383 1522 395 1511T408 1483V563Q408 440 432 366T517 256T686 219Q795 219 856 256T941 366T965 563V1483Q965 1499 976 1510T1006 1522H1208Q1226 1522 1237 1512T1249 1483V563ZM1067 1640Q1067 1626 1048 1626H878Q867 1626 860 1629T845 1639T831 1653L686 1819L540 1653Q525 1637 517 1632T491 1626H321Q303 1626 303 1640Q303 1653 311 1661L499 1907Q517 1927 525 1932T553 1937H819Q838 1937 847 1932T872 1907L1059 1661Q1067 1653 1067 1640Z"  />
<glyph unicode="&#xDC;" horiz-adv-x="1372" d="M1249 563Q1249 402 1209 291T1095 113T918 15T686 -16Q558 -16 455 15T279 112T164 291T123 563V1483Q123 1499 134 1510T164 1522H367Q383 1522 395 1511T408 1483V563Q408 440 432 366T517 256T686 219Q795 219 856 256T941 366T965 563V1483Q965 1499 976 1510T1006 1522H1208Q1226 1522 1237 1512T1249 1483V563ZM1010 1688Q1010 1670 997 1659T967 1647H820Q804 1647 791 1658T777 1688V1868Q777 1884 790 1896T820 1909H967Q983 1909 996 1897T1010 1868V1688ZM601 1688Q601 1670 588 1659T558 1647H410Q394 1647 381 1658T367 1688V1868Q367 1884 380 1896T410 1909H558Q574 1909 587 1897T601 1868V1688Z"  />
<glyph unicode="&#xDD;" horiz-adv-x="1247" d="M1202 1491Q1202 1487 1198 1475L887 764Q835 645 762 614V41Q762 23 751 12T723 0H518Q502 0 491 11T479 41V614Q406 645 354 764L45 1475Q41 1487 41 1491Q41 1505 49 1513T74 1522H301Q328 1522 340 1489L586 879Q602 838 621 838Q641 838 657 879L903 1489Q915 1522 942 1522H1167Q1182 1522 1192 1514T1202 1491ZM979 1923Q979 1915 971 1907L730 1653Q717 1639 708 1633T680 1626H504Q486 1626 486 1640Q486 1653 494 1661L689 1907Q704 1926 713 1931T742 1937H957Q979 1937 979 1923Z"  />
<glyph unicode="&#xDE;" horiz-adv-x="1249" d="M1188 858Q1188 721 1142 628T1012 479T824 397T590 371Q558 371 514 373T414 377V41Q414 24 403 12T377 0H170Q154 0 143 11T131 41V1483Q131 1500 142 1511T170 1522H377Q393 1522 403 1511T414 1483V1354Q484 1358 584 1358Q712 1358 819 1334T1010 1255T1141 1109T1188 883V858ZM903 858V883Q903 947 884 992T824 1065T726 1104T590 1116Q474 1116 414 1112V616Q474 612 590 612Q696 612 765 637T869 717T903 858Z"  />
<glyph unicode="&#xDF;" horiz-adv-x="1243" d="M1149 453Q1149 334 1111 246T1004 99T847 12T655 -16Q613 -16 541 -6Q500 1 500 33V184Q500 200 507 207T535 215Q644 215 715 229T830 296T874 453V492Q874 588 810 645T614 702H549Q532 702 520 713T508 739V866Q508 883 519 893T549 903H614Q697 903 750 930T827 1001T852 1102V1137Q852 1229 796 1283T625 1337Q525 1337 471 1299T398 1199T379 1057V43Q379 26 368 13T340 0H145Q129 0 117 13T104 43V1055Q104 1186 138 1284T239 1446T402 1541T625 1573Q854 1573 988 1468T1122 1137V1102Q1122 1041 1098 985T1030 883T932 811Q1031 770 1090 686T1149 492V453Z"  />
<glyph unicode="&#xE0;" horiz-adv-x="1092" d="M526 944Q365 944 199 891Q156 879 156 924V1049Q156 1068 165 1080T199 1102Q262 1129 354 1149T557 1169Q689 1169 782 1126T926 994T977 778V80Q977 58 972 49T948 35Q857 10 772 -3T563 -16Q395 -16 289 19T131 129T80 328V338Q80 429 105 493T188 601T336 666T563 688H707V778Q707 874 665 909T526 944ZM707 205V508H563Q470 508 426 492T367 441T352 344V332Q352 274 370 244T433 201T563 188Q650 188 707 205ZM707 1298Q707 1284 688 1284H512Q501 1284 494 1287T479 1297T465 1311L222 1565Q213 1573 213 1581Q213 1595 236 1595H453Q472 1595 481 1590T506 1565L699 1319Q707 1311 707 1298Z"  />
<glyph unicode="&#xE1;" horiz-adv-x="1092" d="M526 944Q365 944 199 891Q156 879 156 924V1049Q156 1068 165 1080T199 1102Q262 1129 354 1149T557 1169Q689 1169 782 1126T926 994T977 778V80Q977 58 972 49T948 35Q857 10 772 -3T563 -16Q395 -16 289 19T131 129T80 328V338Q80 429 105 493T188 601T336 666T563 688H707V778Q707 874 665 909T526 944ZM707 205V508H563Q470 508 426 492T367 441T352 344V332Q352 274 370 244T433 201T563 188Q650 188 707 205ZM887 1581Q887 1573 879 1565L638 1311Q625 1297 616 1291T588 1284H412Q394 1284 394 1298Q394 1311 402 1319L597 1565Q612 1584 621 1589T650 1595H865Q887 1595 887 1581Z"  />
<glyph unicode="&#xE2;" horiz-adv-x="1092" d="M526 944Q365 944 199 891Q156 879 156 924V1049Q156 1068 165 1080T199 1102Q262 1129 354 1149T557 1169Q689 1169 782 1126T926 994T977 778V80Q977 58 972 49T948 35Q857 10 772 -3T563 -16Q395 -16 289 19T131 129T80 328V338Q80 429 105 493T188 601T336 666T563 688H707V778Q707 874 665 909T526 944ZM707 205V508H563Q470 508 426 492T367 441T352 344V332Q352 274 370 244T433 201T563 188Q650 188 707 205ZM936 1298Q936 1284 917 1284H747Q736 1284 729 1287T714 1297T700 1311L555 1477L409 1311Q394 1295 386 1290T360 1284H190Q172 1284 172 1298Q172 1311 180 1319L368 1565Q386 1585 394 1590T422 1595H688Q707 1595 716 1590T741 1565L928 1319Q936 1311 936 1298Z"  />
<glyph unicode="&#xE3;" horiz-adv-x="1092" d="M526 944Q365 944 199 891Q156 879 156 924V1049Q156 1068 165 1080T199 1102Q262 1129 354 1149T557 1169Q689 1169 782 1126T926 994T977 778V80Q977 58 972 49T948 35Q857 10 772 -3T563 -16Q395 -16 289 19T131 129T80 328V338Q80 429 105 493T188 601T336 666T563 688H707V778Q707 874 665 909T526 944ZM707 205V508H563Q470 508 426 492T367 441T352 344V332Q352 274 370 244T433 201T563 188Q650 188 707 205ZM944 1513Q944 1284 717 1284Q682 1284 644 1296T574 1331L484 1399Q426 1442 398 1442Q340 1442 340 1372V1329Q340 1296 312 1296H195Q166 1296 166 1329V1372Q166 1602 396 1602Q476 1602 537 1556L627 1489Q680 1448 713 1448Q770 1448 770 1516V1559Q770 1591 799 1591H916Q944 1591 944 1559V1513Z"  />
<glyph unicode="&#xE4;" horiz-adv-x="1092" d="M526 944Q365 944 199 891Q156 879 156 924V1049Q156 1068 165 1080T199 1102Q262 1129 354 1149T557 1169Q689 1169 782 1126T926 994T977 778V80Q977 58 972 49T948 35Q857 10 772 -3T563 -16Q395 -16 289 19T131 129T80 328V338Q80 429 105 493T188 601T336 666T563 688H707V778Q707 874 665 909T526 944ZM707 205V508H563Q470 508 426 492T367 441T352 344V332Q352 274 370 244T433 201T563 188Q650 188 707 205ZM874 1356Q874 1338 861 1327T831 1315H684Q668 1315 655 1326T641 1356V1536Q641 1552 654 1564T684 1577H831Q847 1577 860 1565T874 1536V1356ZM465 1356Q465 1338 452 1327T422 1315H274Q258 1315 245 1326T231 1356V1536Q231 1552 244 1564T274 1577H422Q438 1577 451 1565T465 1536V1356Z"  />
<glyph unicode="&#xE5;" horiz-adv-x="1092" d="M526 944Q365 944 199 891Q156 879 156 924V1049Q156 1068 165 1080T199 1102Q262 1129 354 1149T557 1169Q689 1169 782 1126T926 994T977 778V80Q977 58 972 49T948 35Q857 10 772 -3T563 -16Q395 -16 289 19T131 129T80 328V338Q80 429 105 493T188 601T336 666T563 688H707V778Q707 874 665 909T526 944ZM707 205V508H563Q470 508 426 492T367 441T352 344V332Q352 274 370 244T433 201T563 188Q650 188 707 205ZM777 1497Q777 1435 746 1383T663 1302T551 1272Q491 1272 438 1302T355 1383T324 1497Q324 1590 390 1657T551 1724Q612 1724 663 1694T746 1611T777 1497ZM650 1499Q650 1540 621 1567T551 1595Q512 1595 485 1568T457 1499Q457 1459 484 1430T551 1401Q578 1401 600 1414T636 1450T650 1499Z"  />
<glyph unicode="&#xE6;" horiz-adv-x="1769" d="M1413 676V684Q1413 808 1355 872T1198 936Q1135 936 1085 909T1007 824T979 684V676H1413ZM870 1044Q992 1169 1198 1169Q1352 1169 1462 1104T1629 921T1686 649V535Q1686 483 1645 483H977V477Q977 404 999 346T1080 253T1249 217Q1335 217 1436 234T1599 272Q1642 285 1642 240V119Q1642 99 1632 88T1599 66Q1538 33 1436 9T1229 -16Q1011 -16 877 92Q728 -16 504 -16Q361 -16 267 21T126 136T80 328V338Q80 429 105 493T188 601T336 666T563 688H707V778Q707 874 665 909T526 944Q365 944 199 891Q156 879 156 924V1049Q156 1068 165 1080T199 1102Q262 1129 354 1149T557 1169Q764 1169 870 1044ZM524 195Q643 195 717 223V508H563Q470 508 426 492T367 441T352 344V332Q352 280 368 251T422 208T524 195Z"  />
<glyph unicode="&#xE7;" horiz-adv-x="934" d="M676 -84Q676 -92 668 -100L424 -352Q407 -371 400 -376T377 -381H201Q182 -381 182 -367Q182 -354 190 -346L383 -100Q398 -81 407 -76T436 -70H653Q676 -70 676 -84ZM547 213Q662 213 811 260Q854 272 854 227V96Q854 77 844 66T811 43Q705 -16 547 -16Q410 -16 305 35T140 198T80 481V672Q80 839 139 951T304 1116T547 1169Q705 1169 811 1110Q834 1099 844 1088T854 1057V926Q854 881 811 893Q743 915 689 927T557 940Q350 940 350 672V481Q350 336 406 275T547 213Z"  />
<glyph unicode="&#xE8;" horiz-adv-x="1147" d="M791 676V684Q791 808 733 872T575 936Q511 936 462 909T384 825T356 684V676H791ZM606 -16Q477 -16 359 31T163 194T84 498V649Q84 806 141 925T310 1106T575 1169Q729 1169 839 1103T1006 920T1063 649V535Q1063 483 1022 483H354V477Q354 361 412 289T627 217Q713 217 813 234T977 272Q1020 285 1020 240V119Q1020 99 1010 88T977 66Q914 33 813 9T606 -16ZM707 1298Q707 1284 688 1284H512Q501 1284 494 1287T479 1297T465 1311L222 1565Q213 1573 213 1581Q213 1595 236 1595H453Q472 1595 481 1590T506 1565L699 1319Q707 1311 707 1298Z"  />
<glyph unicode="&#xE9;" horiz-adv-x="1147" d="M791 676V684Q791 808 733 872T575 936Q511 936 462 909T384 825T356 684V676H791ZM606 -16Q477 -16 359 31T163 194T84 498V649Q84 806 141 925T310 1106T575 1169Q729 1169 839 1103T1006 920T1063 649V535Q1063 483 1022 483H354V477Q354 361 412 289T627 217Q713 217 813 234T977 272Q1020 285 1020 240V119Q1020 99 1010 88T977 66Q914 33 813 9T606 -16ZM920 1581Q920 1573 912 1565L671 1311Q658 1297 649 1291T621 1284H445Q427 1284 427 1298Q427 1311 435 1319L630 1565Q645 1584 654 1589T683 1595H898Q920 1595 920 1581Z"  />
<glyph unicode="&#xEA;" horiz-adv-x="1147" d="M791 676V684Q791 808 733 872T575 936Q511 936 462 909T384 825T356 684V676H791ZM606 -16Q477 -16 359 31T163 194T84 498V649Q84 806 141 925T310 1106T575 1169Q729 1169 839 1103T1006 920T1063 649V535Q1063 483 1022 483H354V477Q354 361 412 289T627 217Q713 217 813 234T977 272Q1020 285 1020 240V119Q1020 99 1010 88T977 66Q914 33 813 9T606 -16ZM954 1298Q954 1284 935 1284H765Q754 1284 747 1287T732 1297T718 1311L573 1477L427 1311Q412 1295 404 1290T378 1284H208Q190 1284 190 1298Q190 1311 198 1319L386 1565Q404 1585 412 1590T440 1595H706Q725 1595 734 1590T759 1565L946 1319Q954 1311 954 1298Z"  />
<glyph unicode="&#xEB;" horiz-adv-x="1147" d="M791 676V684Q791 808 733 872T575 936Q511 936 462 909T384 825T356 684V676H791ZM606 -16Q477 -16 359 31T163 194T84 498V649Q84 806 141 925T310 1106T575 1169Q729 1169 839 1103T1006 920T1063 649V535Q1063 483 1022 483H354V477Q354 361 412 289T627 217Q713 217 813 234T977 272Q1020 285 1020 240V119Q1020 99 1010 88T977 66Q914 33 813 9T606 -16ZM893 1350Q893 1332 880 1321T850 1309H703Q687 1309 674 1320T660 1350V1530Q660 1546 673 1558T703 1571H850Q866 1571 879 1559T893 1530V1350ZM484 1350Q484 1332 471 1321T441 1309H293Q277 1309 264 1320T250 1350V1530Q250 1546 263 1558T293 1571H441Q457 1571 470 1559T484 1530V1350Z"  />
<glyph unicode="&#xEC;" horiz-adv-x="512" d="M391 43Q391 25 380 13T350 0H162Q144 0 133 13T121 43V1114Q121 1131 132 1143T162 1155H350Q369 1155 380 1144T391 1114V43ZM418 1298Q418 1284 399 1284H223Q212 1284 205 1287T190 1297T176 1311L-67 1565Q-76 1573 -76 1581Q-76 1595 -53 1595H164Q183 1595 192 1590T217 1565L410 1319Q418 1311 418 1298Z"  />
<glyph unicode="&#xED;" horiz-adv-x="512" d="M391 43Q391 25 380 13T350 0H162Q144 0 133 13T121 43V1114Q121 1131 132 1143T162 1155H350Q369 1155 380 1144T391 1114V43ZM602 1581Q602 1573 594 1565L353 1311Q340 1297 331 1291T303 1284H127Q109 1284 109 1298Q109 1311 117 1319L312 1565Q327 1584 336 1589T365 1595H580Q602 1595 602 1581Z"  />
<glyph unicode="&#xEE;" horiz-adv-x="512" d="M391 43Q391 25 380 13T350 0H162Q144 0 133 13T121 43V1114Q121 1131 132 1143T162 1155H350Q369 1155 380 1144T391 1114V43ZM641 1298Q641 1284 622 1284H452Q441 1284 434 1287T419 1297T405 1311L260 1477L114 1311Q99 1295 91 1290T65 1284H-105Q-123 1284 -123 1298Q-123 1311 -115 1319L73 1565Q91 1585 99 1590T127 1595H393Q412 1595 421 1590T446 1565L633 1319Q641 1311 641 1298Z"  />
<glyph unicode="&#xEF;" horiz-adv-x="512" d="M391 43Q391 25 380 13T350 0H162Q144 0 133 13T121 43V1114Q121 1131 132 1143T162 1155H350Q369 1155 380 1144T391 1114V43ZM580 1350Q580 1332 567 1321T537 1309H390Q374 1309 361 1320T347 1350V1530Q347 1546 360 1558T390 1571H537Q553 1571 566 1559T580 1530V1350ZM171 1350Q171 1332 158 1321T128 1309H-20Q-36 1309 -49 1320T-63 1350V1530Q-63 1546 -50 1558T-20 1571H128Q144 1571 157 1559T171 1530V1350Z"  />
<glyph unicode="&#xF0;" horiz-adv-x="1147" d="M1063 518Q1063 388 1031 287T938 120T784 19T575 -16Q326 -16 205 124T84 518V600Q84 860 210 996T573 1133Q669 1133 723 1104Q658 1205 467 1303L311 1184Q295 1171 285 1171Q275 1171 262 1184L203 1249Q197 1255 197 1266Q197 1285 217 1298L309 1368Q246 1390 205 1399Q172 1407 172 1430Q172 1436 174 1440L217 1559Q224 1581 246 1581Q256 1581 262 1579Q392 1547 492 1507L666 1640Q676 1649 692 1649Q710 1649 717 1638L776 1575Q784 1567 784 1559Q784 1547 764 1530L643 1438Q793 1355 886 1241T1021 971T1063 600V518ZM791 518V600Q791 758 740 831T573 905Q497 905 449 872T379 772T356 600V518Q356 362 408 288T575 213Q689 213 740 286T791 518Z"  />
<glyph unicode="&#xF1;" horiz-adv-x="1176" d="M1061 43Q1061 27 1049 14T1020 0H831Q814 0 803 13T791 43V719Q791 800 772 848T709 918T586 940Q492 940 385 918V43Q385 25 374 13T344 0H156Q138 0 127 13T115 43V1067Q115 1097 156 1108Q258 1136 375 1152T594 1169Q835 1169 948 1063T1061 721V43ZM968 1513Q968 1284 741 1284Q706 1284 668 1296T598 1331L508 1399Q450 1442 422 1442Q364 1442 364 1372V1329Q364 1296 336 1296H219Q190 1296 190 1329V1372Q190 1602 420 1602Q500 1602 561 1556L651 1489Q704 1448 737 1448Q794 1448 794 1516V1559Q794 1591 823 1591H940Q968 1591 968 1559V1513Z"  />
<glyph unicode="&#xF2;" horiz-adv-x="1147" d="M1063 494Q1063 348 1007 231T840 49T573 -16Q418 -16 307 49T140 231T84 494V659Q84 805 140 922T307 1104T573 1169Q730 1169 840 1104T1006 922T1063 659V494ZM793 494V659Q793 787 737 861T573 936Q467 936 411 862T354 659V494Q354 366 411 292T573 217Q679 217 736 291T793 494ZM739 1298Q739 1284 720 1284H544Q533 1284 526 1287T511 1297T497 1311L254 1565Q245 1573 245 1581Q245 1595 268 1595H485Q504 1595 513 1590T538 1565L731 1319Q739 1311 739 1298Z"  />
<glyph unicode="&#xF3;" horiz-adv-x="1147" d="M1063 494Q1063 348 1007 231T840 49T573 -16Q418 -16 307 49T140 231T84 494V659Q84 805 140 922T307 1104T573 1169Q730 1169 840 1104T1006 922T1063 659V494ZM793 494V659Q793 787 737 861T573 936Q467 936 411 862T354 659V494Q354 366 411 292T573 217Q679 217 736 291T793 494ZM889 1581Q889 1573 881 1565L640 1311Q627 1297 618 1291T590 1284H414Q396 1284 396 1298Q396 1311 404 1319L599 1565Q614 1584 623 1589T652 1595H867Q889 1595 889 1581Z"  />
<glyph unicode="&#xF4;" horiz-adv-x="1147" d="M1063 494Q1063 348 1007 231T840 49T573 -16Q418 -16 307 49T140 231T84 494V659Q84 805 140 922T307 1104T573 1169Q730 1169 840 1104T1006 922T1063 659V494ZM793 494V659Q793 787 737 861T573 936Q467 936 411 862T354 659V494Q354 366 411 292T573 217Q679 217 736 291T793 494ZM952 1298Q952 1284 933 1284H763Q752 1284 745 1287T730 1297T716 1311L571 1477L425 1311Q410 1295 402 1290T376 1284H206Q188 1284 188 1298Q188 1311 196 1319L384 1565Q402 1585 410 1590T438 1595H704Q723 1595 732 1590T757 1565L944 1319Q952 1311 952 1298Z"  />
<glyph unicode="&#xF5;" horiz-adv-x="1147" d="M1063 494Q1063 348 1007 231T840 49T573 -16Q418 -16 307 49T140 231T84 494V659Q84 805 140 922T307 1104T573 1169Q730 1169 840 1104T1006 922T1063 659V494ZM793 494V659Q793 787 737 861T573 936Q467 936 411 862T354 659V494Q354 366 411 292T573 217Q679 217 736 291T793 494ZM956 1513Q956 1284 729 1284Q694 1284 656 1296T586 1331L496 1399Q438 1442 410 1442Q352 1442 352 1372V1329Q352 1296 324 1296H207Q178 1296 178 1329V1372Q178 1602 408 1602Q488 1602 549 1556L639 1489Q692 1448 725 1448Q782 1448 782 1516V1559Q782 1591 811 1591H928Q956 1591 956 1559V1513Z"  />
<glyph unicode="&#xF6;" horiz-adv-x="1147" d="M1063 494Q1063 348 1007 231T840 49T573 -16Q418 -16 307 49T140 231T84 494V659Q84 805 140 922T307 1104T573 1169Q730 1169 840 1104T1006 922T1063 659V494ZM793 494V659Q793 787 737 861T573 936Q467 936 411 862T354 659V494Q354 366 411 292T573 217Q679 217 736 291T793 494ZM891 1350Q891 1332 878 1321T848 1309H701Q685 1309 672 1320T658 1350V1530Q658 1546 671 1558T701 1571H848Q864 1571 877 1559T891 1530V1350ZM482 1350Q482 1332 469 1321T439 1309H291Q275 1309 262 1320T248 1350V1530Q248 1546 261 1558T291 1571H439Q455 1571 468 1559T482 1530V1350Z"  />
<glyph unicode="&#xF7;" horiz-adv-x="1241" d="M762 1110Q762 1093 749 1081T721 1069H520Q505 1069 492 1081T479 1110V1321Q479 1337 491 1348T520 1360H721Q737 1360 749 1349T762 1321V1110ZM762 260Q762 244 750 233T721 221H520Q504 221 492 232T479 260V471Q479 488 491 500T520 512H721Q738 512 750 500T762 471V260ZM1098 721Q1098 688 1057 688H186Q145 688 145 721V881Q145 913 186 913H1057Q1098 913 1098 881V721Z"  />
<glyph unicode="&#xF8;" horiz-adv-x="1147" d="M1102 1206Q1102 1195 1094 1184L961 999Q1011 934 1037 847T1063 659V494Q1063 348 1007 231T840 49T573 -16Q405 -16 287 61L205 -51Q188 -72 172 -72H57Q41 -72 41 -55Q41 -44 49 -33L184 156Q135 222 110 307T84 494V659Q84 805 140 922T307 1104T573 1169Q739 1169 858 1092L938 1202Q953 1223 971 1223H1085Q1102 1223 1102 1206ZM711 887Q656 936 573 936Q467 936 411 862T354 659V494Q354 442 362 403L711 887ZM793 494V659Q793 717 784 754L434 266Q486 217 573 217Q679 217 736 291T793 494Z"  />
<glyph unicode="&#xF9;" horiz-adv-x="1176" d="M115 1112Q115 1128 126 1141T156 1155H344Q362 1155 373 1143T385 1112V436Q385 376 395 335T428 267T491 228T590 215Q691 215 791 238V1112Q791 1128 802 1141T831 1155H1020Q1036 1155 1048 1142T1061 1112V88Q1061 58 1020 47Q910 17 797 2T582 -14Q459 -14 374 11T230 92T143 231T115 434V1112ZM760 1298Q760 1284 741 1284H565Q554 1284 547 1287T532 1297T518 1311L275 1565Q266 1573 266 1581Q266 1595 289 1595H506Q525 1595 534 1590T559 1565L752 1319Q760 1311 760 1298Z"  />
<glyph unicode="&#xFA;" horiz-adv-x="1176" d="M115 1112Q115 1128 126 1141T156 1155H344Q362 1155 373 1143T385 1112V436Q385 376 395 335T428 267T491 228T590 215Q691 215 791 238V1112Q791 1128 802 1141T831 1155H1020Q1036 1155 1048 1142T1061 1112V88Q1061 58 1020 47Q910 17 797 2T582 -14Q459 -14 374 11T230 92T143 231T115 434V1112ZM930 1581Q930 1573 922 1565L681 1311Q668 1297 659 1291T631 1284H455Q437 1284 437 1298Q437 1311 445 1319L640 1565Q655 1584 664 1589T693 1595H908Q930 1595 930 1581Z"  />
<glyph unicode="&#xFB;" horiz-adv-x="1176" d="M115 1112Q115 1128 126 1141T156 1155H344Q362 1155 373 1143T385 1112V436Q385 376 395 335T428 267T491 228T590 215Q691 215 791 238V1112Q791 1128 802 1141T831 1155H1020Q1036 1155 1048 1142T1061 1112V88Q1061 58 1020 47Q910 17 797 2T582 -14Q459 -14 374 11T230 92T143 231T115 434V1112ZM967 1298Q967 1284 948 1284H778Q767 1284 760 1287T745 1297T731 1311L586 1477L440 1311Q425 1295 417 1290T391 1284H221Q203 1284 203 1298Q203 1311 211 1319L399 1565Q417 1585 425 1590T453 1595H719Q738 1595 747 1590T772 1565L959 1319Q967 1311 967 1298Z"  />
<glyph unicode="&#xFC;" horiz-adv-x="1176" d="M115 1112Q115 1128 126 1141T156 1155H344Q362 1155 373 1143T385 1112V436Q385 376 395 335T428 267T491 228T590 215Q691 215 791 238V1112Q791 1128 802 1141T831 1155H1020Q1036 1155 1048 1142T1061 1112V88Q1061 58 1020 47Q910 17 797 2T582 -14Q459 -14 374 11T230 92T143 231T115 434V1112ZM920 1350Q920 1332 907 1321T877 1309H730Q714 1309 701 1320T687 1350V1530Q687 1546 700 1558T730 1571H877Q893 1571 906 1559T920 1530V1350ZM511 1350Q511 1332 498 1321T468 1309H320Q304 1309 291 1320T277 1350V1530Q277 1546 290 1558T320 1571H468Q484 1571 497 1559T511 1530V1350Z"  />
<glyph unicode="&#xFD;" horiz-adv-x="1135" d="M1090 1120Q1090 1112 1087 1108L745 -88Q711 -208 667 -276T544 -377T328 -410Q276 -410 213 -402T111 -383Q68 -372 68 -348V-217Q68 -202 80 -191T109 -180H113Q140 -181 227 -187T344 -193Q389 -193 419 -182T470 -143T506 -61L522 0H492Q457 0 425 11T364 59T313 170L45 1108Q43 1114 43 1122Q43 1155 82 1155H289Q303 1155 314 1144T328 1118L535 285Q545 240 563 240H565H575H582L803 1120Q810 1155 844 1155H1053Q1067 1155 1078 1145T1090 1120ZM958 1581Q958 1573 950 1565L709 1311Q696 1297 687 1291T659 1284H483Q465 1284 465 1298Q465 1311 473 1319L668 1565Q683 1584 692 1589T721 1595H936Q958 1595 958 1581Z"  />
<glyph unicode="&#xFE;" horiz-adv-x="1151" d="M1071 502Q1071 382 1042 287T952 123T800 20T590 -16Q458 -16 385 0V-365Q385 -383 375 -394T348 -406H156Q139 -406 127 -393T115 -365V1518Q115 1534 126 1546T154 1559H348Q365 1559 375 1548T385 1518V1155Q445 1163 489 1166T590 1169Q822 1169 946 1033T1071 649V502ZM801 502V649Q801 764 773 830T691 922T559 948Q513 948 385 932V221Q483 205 565 205Q685 205 743 269T801 502Z"  />
<glyph unicode="&#xFF;" horiz-adv-x="1135" d="M1090 1120Q1090 1112 1087 1108L745 -88Q711 -208 667 -276T544 -377T328 -410Q276 -410 213 -402T111 -383Q68 -372 68 -348V-217Q68 -202 80 -191T109 -180H113Q140 -181 227 -187T344 -193Q389 -193 419 -182T470 -143T506 -61L522 0H492Q457 0 425 11T364 59T313 170L45 1108Q43 1114 43 1122Q43 1155 82 1155H289Q303 1155 314 1144T328 1118L535 285Q545 240 563 240H565H575H582L803 1120Q810 1155 844 1155H1053Q1067 1155 1078 1145T1090 1120ZM901 1350Q901 1332 888 1321T858 1309H711Q695 1309 682 1320T668 1350V1530Q668 1546 681 1558T711 1571H858Q874 1571 887 1559T901 1530V1350ZM492 1350Q492 1332 479 1321T449 1309H301Q285 1309 272 1320T258 1350V1530Q258 1546 271 1558T301 1571H449Q465 1571 478 1559T492 1530V1350Z"  />
<glyph unicode="&#x100;" horiz-adv-x="1315" d="M1280 35Q1280 19 1270 10T1243 0H1026Q1013 0 1002 10T987 35L893 424H422L328 35Q325 21 314 11T289 0H72Q56 0 46 9T35 35Q36 37 36 39T37 45L373 1329Q427 1538 657 1538Q888 1538 942 1329L1278 45Q1279 42 1279 40T1280 35ZM838 657L690 1266Q685 1285 679 1291T657 1298Q643 1298 637 1292T625 1266L477 657H838ZM1016 1702Q1016 1684 1004 1675T975 1665H340Q324 1665 312 1675T299 1702V1818Q299 1835 310 1845T340 1855H975Q994 1855 1005 1846T1016 1818V1702Z"  />
<glyph unicode="&#x101;" horiz-adv-x="1092" d="M526 944Q365 944 199 891Q156 879 156 924V1049Q156 1068 165 1080T199 1102Q262 1129 354 1149T557 1169Q689 1169 782 1126T926 994T977 778V80Q977 58 972 49T948 35Q857 10 772 -3T563 -16Q395 -16 289 19T131 129T80 328V338Q80 429 105 493T188 601T336 666T563 688H707V778Q707 874 665 909T526 944ZM707 205V508H563Q470 508 426 492T367 441T352 344V332Q352 274 370 244T433 201T563 188Q650 188 707 205ZM920 1393Q920 1375 908 1366T879 1356H244Q228 1356 216 1366T203 1393V1509Q203 1526 214 1536T244 1546H879Q898 1546 909 1537T920 1509V1393Z"  />
<glyph unicode="&#x102;" horiz-adv-x="1315" d="M1280 35Q1280 19 1270 10T1243 0H1026Q1013 0 1002 10T987 35L893 424H422L328 35Q325 21 314 11T289 0H72Q56 0 46 9T35 35Q36 37 36 39T37 45L373 1329Q427 1538 657 1538Q888 1538 942 1329L1278 45Q1279 42 1279 40T1280 35ZM838 657L690 1266Q685 1285 679 1291T657 1298Q643 1298 637 1292T625 1266L477 657H838ZM1022 1932Q1022 1930 1022 1929T1020 1924Q992 1795 902 1711T658 1627Q504 1627 415 1709T295 1924Q295 1928 295 1929T293 1932Q293 1946 314 1946H467Q488 1946 494 1922Q530 1787 658 1787Q786 1787 822 1922Q828 1946 848 1946H1002Q1022 1946 1022 1932Z"  />
<glyph unicode="&#x103;" horiz-adv-x="1092" d="M526 944Q365 944 199 891Q156 879 156 924V1049Q156 1068 165 1080T199 1102Q262 1129 354 1149T557 1169Q689 1169 782 1126T926 994T977 778V80Q977 58 972 49T948 35Q857 10 772 -3T563 -16Q395 -16 289 19T131 129T80 328V338Q80 429 105 493T188 601T336 666T563 688H707V778Q707 874 665 909T526 944ZM707 205V508H563Q470 508 426 492T367 441T352 344V332Q352 274 370 244T433 201T563 188Q650 188 707 205ZM956 1581Q956 1579 956 1578T954 1573Q926 1444 836 1360T592 1276Q438 1276 349 1358T229 1573Q229 1577 229 1578T227 1581Q227 1595 248 1595H401Q422 1595 428 1571Q464 1436 592 1436Q720 1436 756 1571Q762 1595 782 1595H936Q956 1595 956 1581Z"  />
<glyph unicode="&#x104;" horiz-adv-x="1315" d="M893 424H422L328 35Q325 21 314 11T289 0H72Q56 0 46 9T35 35Q35 37 36 39T37 45L373 1329Q391 1401 425 1442T500 1505T582 1532T657 1538Q690 1538 732 1532T814 1505T889 1443T942 1329L1278 45Q1280 40 1280 36T1280 29Q1280 24 1278 17T1264 4Q1189 -38 1146 -66T1082 -115T1055 -149T1049 -176Q1049 -195 1063 -205T1100 -215Q1129 -215 1157 -212T1207 -206T1246 -200T1268 -197Q1282 -197 1285 -201T1288 -221V-340Q1288 -351 1285 -357T1266 -371Q1255 -376 1237 -382T1192 -396T1131 -407T1055 -412Q1005 -412 958 -400T875 -365T817 -306T795 -223Q795 -177 805 -145T839 -87T900 -35T991 25L893 424ZM690 1266Q685 1284 679 1291T657 1298Q642 1298 636 1291T625 1266L477 657H838L690 1266Z"  />
<glyph unicode="&#x105;" horiz-adv-x="1092" d="M854 -61Q815 -87 792 -103T757 -131T741 -153T737 -176Q737 -195 751 -205T788 -215Q817 -215 845 -212T896 -206T935 -200T956 -197Q970 -197 973 -201T977 -221V-340Q977 -351 974 -357T954 -371Q943 -376 925 -382T881 -396T820 -407T743 -412Q693 -412 646 -400T563 -365T505 -306T483 -223Q483 -186 492 -157T519 -104T564 -59T627 -14Q611 -16 596 -16T563 -16Q438 -16 347 3T196 64T109 171T80 328V338Q80 425 105 491T188 600T337 666T563 688H707V778Q707 828 696 860T662 911T605 937T526 944Q480 944 433 939T343 926T262 909T199 891Q156 879 156 924V1049Q156 1069 165 1080T199 1102Q257 1127 348 1148T557 1169Q654 1169 732 1145T864 1072T948 950T977 778V66Q977 37 973 27T958 8L854 -61ZM707 508H563Q493 508 452 499T388 469T359 418T352 344V332Q352 290 362 262T396 218T460 195T563 188Q582 188 603 189T644 193T680 199T707 205V508Z"  />
<glyph unicode="&#x106;" horiz-adv-x="1124" d="M662 -16Q562 -16 464 13T282 112T147 306T96 610V911Q96 1156 179 1295T388 1486T662 1538Q739 1538 810 1523T934 1487T999 1458Q1044 1433 1044 1403V1264Q1044 1214 993 1233Q958 1246 901 1261T787 1285T680 1294Q578 1294 513 1258T416 1138T383 911V610Q383 471 415 387T513 265T680 227Q759 227 844 246T993 289Q1044 308 1044 258V119Q1044 89 999 63Q957 39 863 12T662 -16ZM979 1925Q979 1917 971 1909L730 1655Q717 1641 708 1635T680 1628H504Q486 1628 486 1642Q486 1655 494 1663L689 1909Q704 1928 713 1933T742 1939H957Q979 1939 979 1925Z"  />
<glyph unicode="&#x107;" horiz-adv-x="934" d="M547 213Q662 213 811 260Q854 272 854 227V96Q854 77 844 66T811 43Q705 -16 547 -16Q410 -16 305 35T140 198T80 481V672Q80 839 139 951T304 1116T547 1169Q705 1169 811 1110Q834 1099 844 1088T854 1057V926Q854 881 811 893Q743 915 689 927T557 940Q350 940 350 672V481Q350 336 406 275T547 213ZM893 1581Q893 1573 885 1565L644 1311Q631 1297 622 1291T594 1284H418Q400 1284 400 1298Q400 1311 408 1319L603 1565Q618 1584 627 1589T656 1595H871Q893 1595 893 1581Z"  />
<glyph unicode="&#x10C;" horiz-adv-x="1124" d="M662 -16Q562 -16 464 13T282 112T147 306T96 610V911Q96 1156 179 1295T388 1486T662 1538Q739 1538 810 1523T934 1487T999 1458Q1044 1433 1044 1403V1264Q1044 1214 993 1233Q958 1246 901 1261T787 1285T680 1294Q578 1294 513 1258T416 1138T383 911V610Q383 471 415 387T513 265T680 227Q759 227 844 246T993 289Q1044 308 1044 258V119Q1044 89 999 63Q957 39 863 12T662 -16ZM1012 1925Q1012 1913 1004 1905L811 1659Q795 1639 786 1634T758 1628H492Q473 1628 464 1634T439 1659L244 1905Q236 1913 236 1925Q236 1939 254 1939H430Q448 1939 456 1933T479 1911L625 1749L770 1911Q791 1932 796 1935T817 1939H994Q1012 1939 1012 1925Z"  />
<glyph unicode="&#x10D;" horiz-adv-x="934" d="M547 213Q662 213 811 260Q854 272 854 227V96Q854 77 844 66T811 43Q705 -16 547 -16Q410 -16 305 35T140 198T80 481V672Q80 839 139 951T304 1116T547 1169Q705 1169 811 1110Q834 1099 844 1088T854 1057V926Q854 881 811 893Q743 915 689 927T557 940Q350 940 350 672V481Q350 336 406 275T547 213ZM899 1581Q899 1569 891 1561L698 1315Q682 1295 673 1290T645 1284H379Q360 1284 351 1290T326 1315L131 1561Q123 1569 123 1581Q123 1595 141 1595H317Q335 1595 343 1589T366 1567L512 1405L657 1567Q678 1588 683 1591T704 1595H881Q899 1595 899 1581Z"  />
<glyph unicode="&#x10E;" horiz-adv-x="1327" d="M1231 610Q1231 410 1156 269T937 56T588 -16Q539 -16 441 -12T281 -3T184 8Q131 17 131 72V1450Q131 1504 184 1513Q218 1519 284 1524T444 1534T588 1538Q793 1538 936 1466T1155 1253T1231 911V610ZM948 610V911Q948 1057 903 1143T778 1263T588 1298Q540 1298 525 1298T477 1296T416 1292V229Q466 227 506 225T588 223Q698 223 777 257T902 377T948 610ZM1050 1923Q1050 1911 1042 1903L849 1657Q833 1637 824 1632T796 1626H530Q511 1626 502 1632T477 1657L282 1903Q274 1911 274 1923Q274 1937 292 1937H468Q486 1937 494 1931T517 1909L663 1747L808 1909Q829 1930 834 1933T855 1937H1032Q1050 1937 1050 1923Z"  />
<glyph unicode="&#x10F;" horiz-adv-x="1448" d="M1036 92Q1036 69 1026 58T981 37Q885 12 777 -2T569 -16Q446 -16 354 19T201 121T110 282T80 498V655Q80 775 110 870T201 1032T354 1133T569 1169Q606 1169 657 1166T766 1155V1518Q766 1535 778 1547T807 1559H995Q1012 1559 1024 1547T1036 1518V92ZM766 934Q745 937 718 939T664 944T612 947T569 948Q503 948 461 926T394 865T360 772T350 655V498Q350 435 359 382T393 289T460 227T569 205Q597 205 625 206T680 209T729 213T766 219V934ZM1489 1536Q1489 1533 1489 1529T1487 1520L1348 1096Q1341 1074 1333 1066T1309 1057H1128Q1117 1057 1114 1062T1110 1077Q1110 1082 1110 1086T1112 1096L1217 1520Q1222 1541 1232 1550T1257 1559H1466Q1489 1559 1489 1536Z"  />
<glyph unicode="&#x110;" horiz-adv-x="1350" d="M1253 610Q1253 458 1210 342T1085 146T884 25T610 -16Q556 -16 495 -14T377 -8T276 0T207 8Q181 13 168 27T154 72V668H35Q18 668 7 679T-4 707V860Q-4 877 7 887T35 897H154V1450Q154 1481 167 1494T207 1513Q230 1517 275 1521T377 1529T494 1535T610 1538Q764 1538 883 1497T1085 1377T1210 1180T1253 911V610ZM971 911Q971 1026 944 1101T868 1220T753 1281T610 1298Q553 1298 512 1296T438 1292V897H584Q601 897 612 887T623 860V707Q623 690 612 679T584 668H438V229Q470 227 511 225T610 223Q687 223 753 240T867 301T943 420T971 610V911Z"  />
<glyph unicode="&#x111;" horiz-adv-x="1182" d="M1049 92Q1049 69 1039 58T993 37Q897 12 789 -2T582 -16Q458 -16 366 19T213 121T122 282T92 498V655Q92 775 122 870T213 1032T366 1133T582 1169Q619 1169 670 1166T778 1155V1284H471Q454 1284 443 1295T432 1323V1436Q432 1453 443 1463T471 1473H778V1518Q778 1535 790 1547T819 1559H1008Q1025 1559 1037 1547T1049 1518V1473H1143Q1160 1473 1171 1463T1182 1436V1323Q1182 1306 1171 1295T1143 1284H1049V92ZM778 934Q757 937 731 939T677 944T625 947T582 948Q516 948 474 926T406 865T372 772T362 655V498Q362 435 371 382T406 289T473 227T582 205Q609 205 637 206T692 209T741 213T778 219V934Z"  />
<glyph unicode="&#x112;" horiz-adv-x="1139" d="M1034 55Q1034 17 993 12Q973 10 941 4T842 -7T736 -14T604 -16Q458 -16 355 18T191 145T131 403V1118Q131 1283 191 1376T354 1503T604 1538Q822 1538 993 1509Q1017 1506 1025 1497T1034 1466V1335Q1034 1318 1022 1306T993 1294H575Q486 1294 450 1256T414 1118V897H969Q986 897 998 885T1010 856V709Q1010 692 997 680T969 668H414V403Q414 304 450 266T575 227H993Q1012 227 1023 216T1034 186V55ZM975 1702Q975 1684 963 1675T934 1665H299Q283 1665 271 1675T258 1702V1818Q258 1835 269 1845T299 1855H934Q953 1855 964 1846T975 1818V1702Z"  />
<glyph unicode="&#x113;" horiz-adv-x="1147" d="M791 676V684Q791 808 733 872T575 936Q511 936 462 909T384 825T356 684V676H791ZM606 -16Q477 -16 359 31T163 194T84 498V649Q84 806 141 925T310 1106T575 1169Q729 1169 839 1103T1006 920T1063 649V535Q1063 483 1022 483H354V477Q354 361 412 289T627 217Q713 217 813 234T977 272Q1020 285 1020 240V119Q1020 99 1010 88T977 66Q914 33 813 9T606 -16ZM932 1393Q932 1375 920 1366T891 1356H256Q240 1356 228 1366T215 1393V1509Q215 1526 226 1536T256 1546H891Q910 1546 921 1537T932 1509V1393Z"  />
<glyph unicode="&#x116;" horiz-adv-x="1139" d="M1034 55Q1034 17 993 12Q973 10 941 4T842 -7T736 -14T604 -16Q458 -16 355 18T191 145T131 403V1118Q131 1283 191 1376T354 1503T604 1538Q822 1538 993 1509Q1017 1506 1025 1497T1034 1466V1335Q1034 1318 1022 1306T993 1294H575Q486 1294 450 1256T414 1118V897H969Q986 897 998 885T1010 856V709Q1010 692 997 680T969 668H414V403Q414 304 450 266T575 227H993Q1012 227 1023 216T1034 186V55ZM764 1688Q764 1671 752 1659T723 1647H539Q522 1647 510 1660T498 1688V1883Q498 1899 509 1910T539 1922H723Q741 1922 752 1912T764 1883V1688Z"  />
<glyph unicode="&#x117;" horiz-adv-x="1147" d="M791 676V684Q791 808 733 872T575 936Q511 936 462 909T384 825T356 684V676H791ZM606 -16Q477 -16 359 31T163 194T84 498V649Q84 806 141 925T310 1106T575 1169Q729 1169 839 1103T1006 920T1063 649V535Q1063 483 1022 483H354V477Q354 361 412 289T627 217Q713 217 813 234T977 272Q1020 285 1020 240V119Q1020 99 1010 88T977 66Q914 33 813 9T606 -16ZM706 1341Q706 1324 694 1312T665 1300H481Q464 1300 452 1313T440 1341V1536Q440 1552 451 1563T481 1575H665Q683 1575 694 1565T706 1536V1341Z"  />
<glyph unicode="&#x118;" horiz-adv-x="1139" d="M1034 55Q1034 32 1033 23T1022 8L918 -61Q879 -87 856 -103T820 -131T805 -153T801 -176Q801 -195 815 -205T852 -215Q881 -215 909 -212T960 -206T999 -200T1020 -197Q1034 -197 1037 -201T1040 -221V-340Q1040 -351 1037 -357T1018 -371Q1007 -376 989 -382T944 -396T884 -407T807 -412Q757 -412 710 -400T627 -365T569 -306T547 -223Q547 -185 554 -157T577 -106T618 -61T680 -16H604Q504 -16 418 0T268 63T168 190T131 403V1118Q131 1205 147 1270T194 1381T268 1458T363 1506T476 1531T604 1538Q695 1538 758 1535T866 1528T939 1518T993 1509Q1016 1506 1025 1497T1034 1466V1335Q1034 1318 1022 1306T993 1294H575Q531 1294 500 1286T450 1257T423 1203T414 1118V897H969Q986 897 998 885T1010 856V709Q1010 692 998 680T969 668H414V403Q414 352 422 319T450 265T500 236T575 227H993Q1010 227 1022 215T1034 186V55Z"  />
<glyph unicode="&#x119;" horiz-adv-x="1147" d="M606 -16Q549 -16 488 -6T369 27T259 89T169 185T107 319T84 498V649Q84 769 116 865T212 1028T366 1132T575 1169Q693 1169 784 1131T937 1023T1031 859T1063 649V535Q1063 483 1022 483H354V477Q354 428 364 381T404 298T487 239T627 217Q673 217 723 222T821 236T910 254T977 272Q1020 285 1020 240V100Q1020 89 1012 84Q940 39 895 5T825 -58T790 -109T780 -152Q780 -189 798 -202T852 -215Q873 -215 897 -212T942 -206T978 -200T999 -197Q1013 -197 1016 -201T1020 -221V-340Q1020 -351 1017 -357T997 -371Q986 -376 968 -382T920 -396T849 -407T752 -412Q715 -412 675 -404T602 -373T548 -315T526 -223Q526 -161 548 -111T608 -16H606ZM791 684Q791 748 775 795T731 873T663 920T575 936Q528 936 488 921T418 875T373 796T356 684V676H791V684Z"  />
<glyph unicode="&#x11A;" horiz-adv-x="1139" d="M1034 55Q1034 17 993 12Q973 10 941 4T842 -7T736 -14T604 -16Q458 -16 355 18T191 145T131 403V1118Q131 1283 191 1376T354 1503T604 1538Q822 1538 993 1509Q1017 1506 1025 1497T1034 1466V1335Q1034 1318 1022 1306T993 1294H575Q486 1294 450 1256T414 1118V897H969Q986 897 998 885T1010 856V709Q1010 692 997 680T969 668H414V403Q414 304 450 266T575 227H993Q1012 227 1023 216T1034 186V55ZM997 1925Q997 1913 989 1905L796 1659Q780 1639 771 1634T743 1628H477Q458 1628 449 1634T424 1659L229 1905Q221 1913 221 1925Q221 1939 239 1939H415Q433 1939 441 1933T464 1911L610 1749L755 1911Q776 1932 781 1935T802 1939H979Q997 1939 997 1925Z"  />
<glyph unicode="&#x11B;" horiz-adv-x="1147" d="M791 676V684Q791 808 733 872T575 936Q511 936 462 909T384 825T356 684V676H791ZM606 -16Q477 -16 359 31T163 194T84 498V649Q84 806 141 925T310 1106T575 1169Q729 1169 839 1103T1006 920T1063 649V535Q1063 483 1022 483H354V477Q354 361 412 289T627 217Q713 217 813 234T977 272Q1020 285 1020 240V119Q1020 99 1010 88T977 66Q914 33 813 9T606 -16ZM960 1581Q960 1569 952 1561L759 1315Q743 1295 734 1290T706 1284H440Q421 1284 412 1290T387 1315L192 1561Q184 1569 184 1581Q184 1595 202 1595H378Q396 1595 404 1589T427 1567L573 1405L718 1567Q739 1588 744 1591T765 1595H942Q960 1595 960 1581Z"  />
<glyph unicode="&#x11E;" horiz-adv-x="1262" d="M383 911V612Q383 412 461 320T645 227Q752 227 848 233V756Q848 772 859 784T887 797H1090Q1106 797 1118 785T1130 756V68Q1130 28 1092 18Q1041 8 978 0T819 -12T645 -16Q555 -16 462 15T283 122T147 319T96 612V907Q96 1094 148 1219T288 1415T474 1511T682 1538Q773 1538 852 1519T993 1475T1085 1430Q1130 1404 1130 1374V1237Q1130 1187 1079 1206Q1003 1237 904 1265T702 1294Q537 1294 460 1208T383 911ZM1057 1934Q1057 1932 1057 1931T1055 1926Q1027 1797 937 1713T693 1629Q539 1629 450 1711T330 1926Q330 1930 330 1931T328 1934Q328 1948 349 1948H502Q523 1948 529 1924Q565 1789 693 1789Q821 1789 857 1924Q863 1948 883 1948H1037Q1057 1948 1057 1934Z"  />
<glyph unicode="&#x11F;" horiz-adv-x="1151" d="M571 -193Q653 -193 695 -177T751 -124T766 -10V6Q743 2 669 -7T569 -16Q406 -16 297 45T134 222T80 498V655Q80 815 134 931T297 1108T569 1169Q624 1169 676 1166T770 1157T881 1138T981 1116Q1014 1108 1025 1097T1036 1061V4Q1036 -140 986 -232T832 -367T571 -410Q467 -410 365 -385T195 -328Q182 -321 171 -314T156 -297T152 -274V-170Q152 -125 195 -137Q277 -157 381 -175T571 -193ZM766 221V930Q728 938 679 943T569 948Q445 948 398 871T350 655V498Q350 435 360 381T395 287T463 226T569 205Q605 205 664 210T766 221ZM975 1581Q975 1579 975 1578T973 1573Q945 1444 855 1360T611 1276Q457 1276 368 1358T248 1573Q248 1577 248 1578T246 1581Q246 1595 267 1595H420Q441 1595 447 1571Q483 1436 611 1436Q739 1436 775 1571Q781 1595 801 1595H955Q975 1595 975 1581Z"  />
<glyph unicode="&#x122;" horiz-adv-x="1262" d="M383 911V612Q383 412 461 320T645 227Q752 227 848 233V756Q848 772 859 784T887 797H1090Q1106 797 1118 785T1130 756V68Q1130 28 1092 18Q1041 8 978 0T819 -12T645 -16Q555 -16 462 15T283 122T147 319T96 612V907Q96 1094 148 1219T288 1415T474 1511T682 1538Q773 1538 852 1519T993 1475T1085 1430Q1130 1404 1130 1374V1237Q1130 1187 1079 1206Q1003 1237 904 1265T702 1294Q537 1294 460 1208T383 911ZM793 -129Q793 -132 792 -135T789 -143L680 -365Q672 -383 662 -394T635 -406H500Q469 -406 469 -381Q469 -378 469 -374T471 -365L526 -143Q531 -125 540 -115T567 -104H764Q780 -104 786 -111T793 -129Z"  />
<glyph unicode="&#x123;" horiz-adv-x="1151" d="M489 1311Q489 1314 490 1317T494 1325L602 1546Q608 1558 613 1566T624 1578T639 1585T662 1587H782Q796 1587 804 1582T813 1563Q813 1560 813 1556T811 1546L756 1325Q747 1286 715 1286H518Q489 1286 489 1311ZM571 -193Q633 -193 671 -185T731 -155T759 -99T766 -10V6Q750 3 724 -1T670 -8T614 -13T569 -16Q446 -16 354 19T201 121T110 282T80 498V655Q80 775 110 870T201 1032T354 1133T569 1169Q668 1169 776 1155T981 1116Q1016 1107 1026 1096T1036 1061V4Q1036 -105 1008 -183T921 -312T776 -386T571 -410Q513 -410 458 -402T353 -382T264 -356T195 -328Q172 -317 162 -306T152 -274V-170Q152 -125 195 -137Q222 -144 267 -153T364 -172T471 -187T571 -193ZM766 930Q751 933 729 936T681 942T626 946T569 948Q503 948 461 926T394 865T360 772T350 655V498Q350 435 359 382T393 289T460 227T569 205Q587 205 612 206T664 210T718 215T766 221V930Z"  />
<glyph unicode="&#x12A;" horiz-adv-x="547" d="M416 41Q416 24 403 12T375 0H172Q157 0 144 12T131 41V1483Q131 1499 143 1510T172 1522H375Q391 1522 403 1511T416 1483V41ZM634 1702Q634 1684 622 1675T593 1665H-42Q-58 1665 -70 1675T-83 1702V1818Q-83 1835 -72 1845T-42 1855H593Q612 1855 623 1846T634 1818V1702Z"  />
<glyph unicode="&#x12B;" horiz-adv-x="512" d="M391 43Q391 25 380 13T350 0H162Q144 0 133 13T121 43V1114Q121 1131 132 1143T162 1155H350Q369 1155 380 1144T391 1114V43ZM616 1393Q616 1375 604 1366T575 1356H-60Q-76 1356 -88 1366T-101 1393V1509Q-101 1526 -90 1536T-60 1546H575Q594 1546 605 1537T616 1509V1393Z"  />
<glyph unicode="&#x12E;" horiz-adv-x="547" d="M416 41Q416 27 415 20T408 8Q346 -44 310 -74T256 -123T234 -152T229 -176Q229 -195 243 -205T281 -215Q310 -215 337 -212T388 -206T427 -200T449 -197Q463 -197 466 -201T469 -221V-340Q469 -351 466 -357T446 -371Q435 -376 417 -382T373 -396T312 -407T236 -412Q186 -412 139 -400T56 -365T-3 -306T-25 -223Q-25 -182 -17 -152T10 -98T59 -50T131 0V1483Q131 1500 143 1511T172 1522H375Q392 1522 404 1511T416 1483V41Z"  />
<glyph unicode="&#x12F;" horiz-adv-x="549" d="M416 1350Q416 1333 404 1321T375 1309H176Q159 1309 146 1321T133 1350V1530Q133 1547 146 1559T176 1571H375Q392 1571 404 1559T416 1530V1350ZM377 -23Q345 -44 324 -61T291 -95T273 -126T268 -160Q268 -194 284 -204T344 -215Q366 -215 389 -212T432 -206T467 -200T487 -197Q501 -197 504 -201T508 -221V-340Q508 -351 505 -357T485 -371Q474 -376 456 -382T412 -396T351 -407T274 -412Q224 -412 177 -404T94 -372T36 -309T14 -203Q14 -166 20 -136T41 -80T80 -29T139 20V1114Q139 1131 151 1143T180 1155H369Q386 1155 398 1143T410 1114V31Q410 15 405 4T377 -23Z"  />
<glyph unicode="&#x130;" horiz-adv-x="547" d="M416 41Q416 24 403 12T375 0H172Q157 0 144 12T131 41V1483Q131 1499 143 1510T172 1522H375Q391 1522 403 1511T416 1483V41ZM408 1688Q408 1671 396 1659T367 1647H183Q166 1647 154 1660T142 1688V1883Q142 1899 153 1910T183 1922H367Q385 1922 396 1912T408 1883V1688Z"  />
<glyph unicode="&#x131;" horiz-adv-x="512" d="M391 43Q391 25 380 13T350 0H162Q144 0 133 13T121 43V1114Q121 1131 132 1143T162 1155H350Q369 1155 380 1144T391 1114V43Z"  />
<glyph unicode="&#x136;" horiz-adv-x="1286" d="M1237 18Q1237 0 1206 0H932Q899 0 885 23L416 721V41Q416 24 403 12T375 0H172Q157 0 144 12T131 41V1481Q131 1497 143 1508T172 1520H375Q391 1520 403 1509T416 1481V829L918 1503Q929 1520 965 1520H1198Q1237 1520 1237 1495Q1237 1481 1223 1462L698 784L1227 43Q1237 26 1237 18ZM756 -129Q756 -132 755 -135T752 -143L643 -365Q635 -383 625 -394T598 -406H463Q432 -406 432 -381Q432 -378 432 -374T434 -365L489 -143Q494 -125 503 -115T530 -104H727Q743 -104 749 -111T756 -129Z"  />
<glyph unicode="&#x137;" horiz-adv-x="1098" d="M1044 25Q1044 14 1036 7T1016 0H766Q751 0 734 13T707 41L385 508V43Q385 25 374 13T344 0H156Q138 0 127 13T115 43V1518Q115 1533 127 1546T156 1559H344Q361 1559 373 1547T385 1518V664L735 1130Q755 1155 782 1155H1012Q1042 1155 1042 1133Q1042 1123 1034 1112L623 606L1038 41Q1044 32 1044 25ZM711 -129Q711 -132 710 -135T707 -143L598 -365Q590 -383 580 -394T553 -406H418Q387 -406 387 -381Q387 -378 387 -374T389 -365L444 -143Q449 -125 458 -115T485 -104H682Q698 -104 704 -111T711 -129Z"  />
<glyph unicode="&#x139;" horiz-adv-x="1028" d="M993 55Q993 34 984 25T952 12Q906 1 792 -7T604 -16Q458 -16 355 18T191 145T131 403V1481Q131 1496 144 1509T172 1522H375Q390 1522 403 1509T416 1481V403Q416 303 450 265T575 227H952Q971 227 982 216T993 186V55ZM887 1925Q887 1917 879 1909L638 1655Q625 1641 616 1635T588 1628H412Q394 1628 394 1642Q394 1655 402 1663L597 1909Q612 1928 621 1933T650 1939H865Q887 1939 887 1925Z"  />
<glyph unicode="&#x13A;" horiz-adv-x="516" d="M393 43Q393 26 382 13T354 0H164Q146 0 135 13T123 43V1518Q123 1533 135 1546T164 1559H354Q370 1559 381 1547T393 1518V43ZM626 1928Q626 1920 618 1912L377 1658Q364 1644 355 1638T327 1631H151Q133 1631 133 1645Q133 1658 141 1666L336 1912Q351 1931 360 1936T389 1942H604Q626 1942 626 1928Z"  />
<glyph unicode="&#x13B;" horiz-adv-x="1028" d="M993 55Q993 34 984 25T952 12Q906 1 792 -7T604 -16Q458 -16 355 18T191 145T131 403V1481Q131 1496 144 1509T172 1522H375Q390 1522 403 1509T416 1481V403Q416 303 450 265T575 227H952Q971 227 982 216T993 186V55ZM676 -129Q676 -132 675 -135T672 -143L563 -365Q555 -383 545 -394T518 -406H383Q352 -406 352 -381Q352 -378 352 -374T354 -365L409 -143Q414 -125 423 -115T450 -104H647Q663 -104 669 -111T676 -129Z"  />
<glyph unicode="&#x13C;" horiz-adv-x="516" d="M393 43Q393 26 382 13T354 0H164Q146 0 135 13T123 43V1518Q123 1533 135 1546T164 1559H354Q370 1559 381 1547T393 1518V43ZM386 -129Q386 -132 385 -135T382 -143L273 -365Q265 -383 255 -394T228 -406H93Q62 -406 62 -381Q62 -378 62 -374T64 -365L119 -143Q124 -125 133 -115T160 -104H357Q373 -104 379 -111T386 -129Z"  />
<glyph unicode="&#x13D;" horiz-adv-x="1028" d="M993 55Q993 34 984 26T952 12Q929 7 887 2T796 -7T696 -13T604 -16Q504 -16 418 0T268 63T168 190T131 403V1481Q131 1498 143 1510T172 1522H375Q392 1522 404 1510T416 1481V403Q416 352 424 319T451 265T500 236T575 227H952Q969 227 981 215T993 186V55ZM985 1536Q985 1533 985 1529T983 1520L844 1096Q838 1074 829 1066T805 1057H625Q614 1057 610 1062T606 1077Q606 1082 606 1086T608 1096L713 1520Q718 1541 728 1550T754 1559H963Q985 1559 985 1536Z"  />
<glyph unicode="&#x13E;" horiz-adv-x="807" d="M393 43Q393 26 382 13T354 0H164Q147 0 135 13T123 43V1518Q123 1535 135 1547T164 1559H354Q371 1559 382 1547T393 1518V43ZM848 1536Q848 1533 848 1529T846 1520L707 1096Q700 1074 692 1066T668 1057H487Q476 1057 473 1062T469 1077Q469 1082 469 1086T471 1096L575 1520Q580 1541 590 1550T616 1559H825Q848 1559 848 1536Z"  />
<glyph unicode="&#x141;" horiz-adv-x="1049" d="M152 403V571L47 440Q38 428 27 428Q12 428 12 442V651Q12 674 27 692L152 850V1483Q152 1500 163 1511T190 1522H395Q412 1522 424 1510T436 1481V1120L561 1270Q572 1284 584 1284Q596 1284 596 1268V1061Q596 1034 580 1016L436 842V403Q436 303 471 265T596 227H973Q990 227 1002 215T1014 186V55Q1014 34 1005 25T973 12Q926 1 813 -7T625 -16Q478 -16 375 18T212 145T152 403Z"  />
<glyph unicode="&#x142;" horiz-adv-x="561" d="M573 1006Q573 985 559 969L418 795V43Q418 26 407 13T379 0H184Q168 0 156 13T143 43V535L18 391Q6 379 -2 379Q-12 379 -12 391V627Q-12 645 0 659L143 834V1518Q143 1533 156 1546T184 1559H379Q395 1559 406 1547T418 1518V1094L543 1241Q553 1251 559 1251Q566 1251 569 1245T573 1231V1006Z"  />
<glyph unicode="&#x143;" horiz-adv-x="1413" d="M1282 82Q1282 48 1258 24T1200 0H993Q946 0 918 13T868 74L414 1071Q406 1087 395 1087Q385 1087 385 1071V41Q385 23 374 12T346 0H172Q157 0 144 12T131 41V1440Q131 1474 155 1498T213 1522H434Q468 1522 487 1508T524 1456L1001 403Q1009 387 1018 387Q1028 387 1028 406V1483Q1028 1500 1039 1511T1067 1522H1243Q1260 1522 1271 1511T1282 1483V82ZM1075 1921Q1075 1913 1067 1905L826 1651Q813 1637 804 1631T776 1624H600Q582 1624 582 1638Q582 1651 590 1659L785 1905Q800 1924 809 1929T838 1935H1053Q1075 1935 1075 1921Z"  />
<glyph unicode="&#x144;" horiz-adv-x="1176" d="M1061 43Q1061 27 1049 14T1020 0H831Q814 0 803 13T791 43V719Q791 800 772 848T709 918T586 940Q492 940 385 918V43Q385 25 374 13T344 0H156Q138 0 127 13T115 43V1067Q115 1097 156 1108Q258 1136 375 1152T594 1169Q835 1169 948 1063T1061 721V43ZM963 1581Q963 1573 955 1565L714 1311Q701 1297 692 1291T664 1284H488Q470 1284 470 1298Q470 1311 478 1319L673 1565Q688 1584 697 1589T726 1595H941Q963 1595 963 1581Z"  />
<glyph unicode="&#x145;" horiz-adv-x="1413" d="M1282 82Q1282 48 1258 24T1200 0H993Q946 0 918 13T868 74L414 1071Q406 1087 395 1087Q385 1087 385 1071V41Q385 23 374 12T346 0H172Q157 0 144 12T131 41V1440Q131 1474 155 1498T213 1522H434Q468 1522 487 1508T524 1456L1001 403Q1009 387 1018 387Q1028 387 1028 406V1483Q1028 1500 1039 1511T1067 1522H1243Q1260 1522 1271 1511T1282 1483V82ZM842 -129Q842 -132 841 -135T838 -143L729 -365Q721 -383 711 -394T684 -406H549Q518 -406 518 -381Q518 -378 518 -374T520 -365L575 -143Q580 -125 589 -115T616 -104H813Q829 -104 835 -111T842 -129Z"  />
<glyph unicode="&#x146;" horiz-adv-x="1176" d="M1061 43Q1061 27 1049 14T1020 0H831Q814 0 803 13T791 43V719Q791 800 772 848T709 918T586 940Q492 940 385 918V43Q385 25 374 13T344 0H156Q138 0 127 13T115 43V1067Q115 1097 156 1108Q258 1136 375 1152T594 1169Q835 1169 948 1063T1061 721V43ZM750 -129Q750 -132 749 -135T746 -143L637 -365Q629 -383 619 -394T592 -406H457Q426 -406 426 -381Q426 -378 426 -374T428 -365L483 -143Q488 -125 497 -115T524 -104H721Q737 -104 743 -111T750 -129Z"  />
<glyph unicode="&#x147;" horiz-adv-x="1413" d="M1282 82Q1282 48 1258 24T1200 0H993Q946 0 918 13T868 74L414 1071Q406 1087 395 1087Q385 1087 385 1071V41Q385 23 374 12T346 0H172Q157 0 144 12T131 41V1440Q131 1474 155 1498T213 1522H434Q468 1522 487 1508T524 1456L1001 403Q1009 387 1018 387Q1028 387 1028 406V1483Q1028 1500 1039 1511T1067 1522H1243Q1260 1522 1271 1511T1282 1483V82ZM1093 1921Q1093 1909 1085 1901L892 1655Q876 1635 867 1630T839 1624H573Q554 1624 545 1630T520 1655L325 1901Q317 1909 317 1921Q317 1935 335 1935H511Q529 1935 537 1929T560 1907L706 1745L851 1907Q872 1928 877 1931T898 1935H1075Q1093 1935 1093 1921Z"  />
<glyph unicode="&#x148;" horiz-adv-x="1176" d="M1061 43Q1061 27 1049 14T1020 0H831Q814 0 803 13T791 43V719Q791 800 772 848T709 918T586 940Q492 940 385 918V43Q385 25 374 13T344 0H156Q138 0 127 13T115 43V1067Q115 1097 156 1108Q258 1136 375 1152T594 1169Q835 1169 948 1063T1061 721V43ZM975 1581Q975 1569 967 1561L774 1315Q758 1295 749 1290T721 1284H455Q436 1284 427 1290T402 1315L207 1561Q199 1569 199 1581Q199 1595 217 1595H393Q411 1595 419 1589T442 1567L588 1405L733 1567Q754 1588 759 1591T780 1595H957Q975 1595 975 1581Z"  />
<glyph unicode="&#x14C;" horiz-adv-x="1360" d="M1264 623Q1264 405 1190 262T984 51T680 -16Q508 -16 376 51T170 261T96 623V899Q96 1117 170 1260T376 1471T680 1538Q852 1538 984 1471T1190 1261T1264 899V623ZM977 623V899Q977 1101 905 1195T680 1290Q528 1290 456 1196T383 899V623Q383 422 455 327T680 231Q832 231 904 326T977 623ZM1039 1704Q1039 1686 1027 1677T998 1667H363Q347 1667 335 1677T322 1704V1820Q322 1837 333 1847T363 1857H998Q1017 1857 1028 1848T1039 1820V1704Z"  />
<glyph unicode="&#x14D;" horiz-adv-x="1147" d="M1063 494Q1063 348 1007 231T840 49T573 -16Q418 -16 307 49T140 231T84 494V659Q84 805 140 922T307 1104T573 1169Q730 1169 840 1104T1006 922T1063 659V494ZM793 494V659Q793 787 737 861T573 936Q467 936 411 862T354 659V494Q354 366 411 292T573 217Q679 217 736 291T793 494ZM932 1393Q932 1375 920 1366T891 1356H256Q240 1356 228 1366T215 1393V1509Q215 1526 226 1536T256 1546H891Q910 1546 921 1537T932 1509V1393Z"  />
<glyph unicode="&#x150;" horiz-adv-x="1360" d="M1264 623Q1264 405 1190 262T984 51T680 -16Q508 -16 376 51T170 261T96 623V899Q96 1117 170 1260T376 1471T680 1538Q852 1538 984 1471T1190 1261T1264 899V623ZM977 623V899Q977 1101 905 1195T680 1290Q528 1290 456 1196T383 899V623Q383 422 455 327T680 231Q832 231 904 326T977 623ZM1257 1921Q1257 1913 1249 1905L1007 1651Q992 1635 984 1630T958 1624H782Q763 1624 763 1638Q763 1651 772 1659L966 1905Q992 1935 1019 1935H1234Q1257 1935 1257 1921ZM827 1921Q827 1913 819 1905L577 1651Q563 1635 554 1630T528 1624H352Q333 1624 333 1638Q333 1651 341 1659L536 1905Q551 1924 560 1929T589 1935H804Q827 1935 827 1921Z"  />
<glyph unicode="&#x151;" horiz-adv-x="1147" d="M1063 494Q1063 348 1007 231T840 49T573 -16Q418 -16 307 49T140 231T84 494V659Q84 805 140 922T307 1104T573 1169Q730 1169 840 1104T1006 922T1063 659V494ZM793 494V659Q793 787 737 861T573 936Q467 936 411 862T354 659V494Q354 366 411 292T573 217Q679 217 736 291T793 494ZM1171 1581Q1171 1573 1163 1565L921 1311Q906 1295 898 1290T872 1284H696Q677 1284 677 1298Q677 1311 686 1319L880 1565Q906 1595 933 1595H1148Q1171 1595 1171 1581ZM741 1581Q741 1573 733 1565L491 1311Q477 1295 468 1290T442 1284H266Q247 1284 247 1298Q247 1311 255 1319L450 1565Q465 1584 474 1589T503 1595H718Q741 1595 741 1581Z"  />
<glyph unicode="&#x152;" horiz-adv-x="1991" d="M1886 55Q1886 17 1845 12Q1825 10 1793 4T1694 -7T1588 -14T1456 -16Q1323 -16 1228 11T1073 115Q998 45 904 15T688 -16Q516 -16 384 51T178 261T104 623V899Q104 1117 178 1260T384 1471T688 1538Q931 1538 1073 1407Q1125 1479 1223 1508T1456 1538Q1674 1538 1845 1509Q1869 1506 1877 1497T1886 1466V1335Q1886 1318 1874 1306T1845 1294H1427Q1338 1294 1302 1256T1266 1118V897H1821Q1838 897 1850 885T1862 856V709Q1862 692 1849 680T1821 668H1266V403Q1266 304 1302 266T1427 227H1845Q1864 227 1875 216T1886 186V55ZM983 573V948Q983 1290 688 1290Q536 1290 464 1196T391 899V623Q391 422 463 327T688 231Q983 231 983 573Z"  />
<glyph unicode="&#x153;" horiz-adv-x="1855" d="M1315 -16Q1070 -16 930 141Q799 -16 573 -16Q418 -16 307 49T140 231T84 494V659Q84 805 140 922T307 1104T573 1169Q796 1169 928 1018Q1060 1169 1284 1169Q1438 1169 1548 1104T1715 921T1772 649V535Q1772 483 1731 483H1063V477Q1063 404 1085 346T1166 253T1335 217Q1421 217 1521 234T1686 272Q1729 286 1729 240V119Q1729 99 1720 89T1686 66Q1623 33 1521 9T1315 -16ZM793 494V672Q793 751 767 811T691 903T573 936Q467 936 411 862T354 659V494Q354 366 411 292T573 217Q679 217 736 291T793 494ZM1499 676V684Q1499 808 1441 872T1284 936Q1221 936 1171 909T1093 824T1065 684V676H1499Z"  />
<glyph unicode="&#x154;" horiz-adv-x="1305" d="M1237 25Q1237 0 1212 0H963Q948 0 941 9T922 41L627 588H598Q582 588 527 590T455 594T416 596V41Q416 23 405 12T377 0H172Q157 0 144 12T131 41V1450Q131 1479 147 1492T197 1511Q365 1538 598 1538Q861 1538 1024 1429T1188 1075V1057Q1188 900 1115 795T911 639L1233 41Q1237 35 1237 25ZM905 1057V1075Q905 1190 830 1242T598 1294Q575 1294 506 1291T416 1286V825Q515 819 598 819Q759 819 832 872T905 1057ZM995 1925Q995 1917 987 1909L746 1655Q733 1641 724 1635T696 1628H520Q502 1628 502 1642Q502 1655 510 1663L705 1909Q720 1928 729 1933T758 1939H973Q995 1939 995 1925Z"  />
<glyph unicode="&#x155;" horiz-adv-x="745" d="M678 938Q658 939 639 939T586 940Q492 940 385 918V43Q385 25 374 13T344 0H156Q138 0 127 13T115 43V1067Q115 1097 156 1108Q258 1136 375 1152T594 1169Q646 1169 678 1165Q719 1161 719 1126V979Q719 938 678 938ZM791 1581Q791 1573 783 1565L542 1311Q529 1297 520 1291T492 1284H316Q298 1284 298 1298Q298 1311 306 1319L501 1565Q516 1584 525 1589T554 1595H769Q791 1595 791 1581Z"  />
<glyph unicode="&#x156;" horiz-adv-x="1305" d="M1237 25Q1237 0 1212 0H963Q948 0 941 9T922 41L627 588H598Q582 588 527 590T455 594T416 596V41Q416 23 405 12T377 0H172Q157 0 144 12T131 41V1450Q131 1479 147 1492T197 1511Q365 1538 598 1538Q861 1538 1024 1429T1188 1075V1057Q1188 900 1115 795T911 639L1233 41Q1237 35 1237 25ZM905 1057V1075Q905 1190 830 1242T598 1294Q575 1294 506 1291T416 1286V825Q515 819 598 819Q759 819 832 872T905 1057ZM813 -129Q813 -132 812 -135T809 -143L700 -365Q692 -383 682 -394T655 -406H520Q489 -406 489 -381Q489 -378 489 -374T491 -365L546 -143Q551 -125 560 -115T587 -104H784Q800 -104 806 -111T813 -129Z"  />
<glyph unicode="&#x157;" horiz-adv-x="745" d="M678 938Q658 939 639 939T586 940Q492 940 385 918V43Q385 25 374 13T344 0H156Q138 0 127 13T115 43V1067Q115 1097 156 1108Q258 1136 375 1152T594 1169Q646 1169 678 1165Q719 1161 719 1126V979Q719 938 678 938ZM421 -129Q421 -132 420 -135T417 -143L308 -365Q300 -383 290 -394T263 -406H128Q97 -406 97 -381Q97 -378 97 -374T99 -365L154 -143Q159 -125 168 -115T195 -104H392Q408 -104 414 -111T421 -129Z"  />
<glyph unicode="&#x158;" horiz-adv-x="1305" d="M1237 25Q1237 0 1212 0H963Q948 0 941 9T922 41L627 588H598Q582 588 527 590T455 594T416 596V41Q416 23 405 12T377 0H172Q157 0 144 12T131 41V1450Q131 1479 147 1492T197 1511Q365 1538 598 1538Q861 1538 1024 1429T1188 1075V1057Q1188 900 1115 795T911 639L1233 41Q1237 35 1237 25ZM905 1057V1075Q905 1190 830 1242T598 1294Q575 1294 506 1291T416 1286V825Q515 819 598 819Q759 819 832 872T905 1057ZM1040 1923Q1040 1911 1032 1903L839 1657Q823 1637 814 1632T786 1626H520Q501 1626 492 1632T467 1657L272 1903Q264 1911 264 1923Q264 1937 282 1937H458Q476 1937 484 1931T507 1909L653 1747L798 1909Q819 1930 824 1933T845 1937H1022Q1040 1937 1040 1923Z"  />
<glyph unicode="&#x159;" horiz-adv-x="745" d="M678 938Q658 939 639 939T586 940Q492 940 385 918V43Q385 25 374 13T344 0H156Q138 0 127 13T115 43V1067Q115 1097 156 1108Q258 1136 375 1152T594 1169Q646 1169 678 1165Q719 1161 719 1126V979Q719 938 678 938ZM808 1581Q808 1569 800 1561L607 1315Q591 1295 582 1290T554 1284H288Q269 1284 260 1290T235 1315L40 1561Q32 1569 32 1581Q32 1595 50 1595H226Q244 1595 252 1589T275 1567L421 1405L566 1567Q587 1588 592 1591T613 1595H790Q808 1595 808 1581Z"  />
<glyph unicode="&#x15A;" horiz-adv-x="1141" d="M520 227Q652 227 707 272T762 412Q762 471 728 512T592 612L322 774Q230 830 176 888T101 1011T80 1149Q80 1330 198 1434T578 1538Q680 1538 778 1513T930 1458Q953 1445 964 1434T975 1403V1264Q975 1214 924 1233Q868 1254 765 1274T580 1294Q365 1294 365 1151Q365 1101 398 1067T532 973L778 827Q886 763 946 699T1031 567T1055 412Q1055 299 1004 203T834 45T528 -16Q402 -16 298 13T152 66Q123 83 115 92T106 121V260Q106 307 158 291Q357 227 520 227ZM899 1925Q899 1917 891 1909L650 1655Q637 1641 628 1635T600 1628H424Q406 1628 406 1642Q406 1655 414 1663L609 1909Q624 1928 633 1933T662 1939H877Q899 1939 899 1925Z"  />
<glyph unicode="&#x15B;" horiz-adv-x="977" d="M467 205Q561 205 592 229T623 295Q623 330 603 353T532 408L252 580Q173 629 127 702T80 862Q80 1169 469 1169Q671 1169 827 1102Q850 1093 860 1082T870 1049V924Q870 879 827 891Q648 948 498 948Q420 948 385 931T350 872Q350 849 359 835T385 808T432 778L700 614Q817 543 857 472T897 317Q897 220 852 144T716 26T496 -16Q293 -16 135 51Q109 64 101 75T92 104V229Q92 274 135 262Q316 205 467 205ZM854 1581Q854 1573 846 1565L605 1311Q592 1297 583 1291T555 1284H379Q361 1284 361 1298Q361 1311 369 1319L564 1565Q579 1584 588 1589T617 1595H832Q854 1595 854 1581Z"  />
<glyph unicode="&#x15E;" horiz-adv-x="1141" d="M520 227Q588 227 634 239T709 274T750 332T762 412Q762 442 755 465T728 511T676 558T592 612L322 774Q250 816 204 860T130 950T91 1046T80 1149Q80 1233 106 1304T191 1428T345 1509T578 1538Q634 1538 687 1530T787 1510T870 1484T930 1458Q951 1446 963 1435T975 1403V1264Q975 1241 962 1233T924 1233Q899 1242 858 1252T768 1272T671 1288T580 1294Q466 1294 416 1257T365 1151Q365 1125 372 1105T399 1066T450 1024T532 973L778 827Q861 778 914 730T999 631T1043 526T1055 412Q1055 360 1044 309T1007 209T941 120T842 49T705 2T528 -16Q457 -16 393 -6T279 18T196 46T152 66Q126 81 116 91T106 121V260Q106 307 158 291Q192 280 233 269T320 248T416 233T520 227ZM717 -121Q717 -129 709 -137L465 -389Q453 -403 445 -410T418 -418H242Q223 -418 223 -403Q223 -398 224 -393T231 -383L424 -137Q438 -120 447 -113T477 -106H694Q705 -106 711 -110T717 -121Z"  />
<glyph unicode="&#x15F;" horiz-adv-x="977" d="M467 205Q518 205 549 212T596 232T618 261T623 295Q623 313 618 327T602 354T574 380T532 408L252 580Q214 603 183 633T129 699T93 776T80 862Q80 1169 469 1169Q587 1169 678 1148T827 1102Q852 1091 861 1080T870 1049V924Q870 879 827 891Q801 899 764 909T683 927T592 942T498 948Q423 948 387 932T350 872Q350 855 355 843T371 820T397 800T432 778L700 614Q764 575 803 537T863 461T890 387T897 317Q897 245 872 184T797 79T672 9T496 -16Q378 -16 286 5T135 51Q110 62 101 73T92 104V229Q92 274 135 262Q161 254 199 244T281 226T373 211T467 205ZM668 -84Q668 -92 659 -100L416 -352Q403 -366 395 -373T369 -381H193Q174 -381 174 -367Q174 -354 182 -346L375 -100Q388 -84 398 -77T428 -70H645Q668 -70 668 -84Z"  />
<glyph unicode="&#x160;" horiz-adv-x="1141" d="M520 227Q652 227 707 272T762 412Q762 471 728 512T592 612L322 774Q230 830 176 888T101 1011T80 1149Q80 1330 198 1434T578 1538Q680 1538 778 1513T930 1458Q953 1445 964 1434T975 1403V1264Q975 1214 924 1233Q868 1254 765 1274T580 1294Q365 1294 365 1151Q365 1101 398 1067T532 973L778 827Q886 763 946 699T1031 567T1055 412Q1055 299 1004 203T834 45T528 -16Q402 -16 298 13T152 66Q123 83 115 92T106 121V260Q106 307 158 291Q357 227 520 227ZM944 1925Q944 1913 936 1905L743 1659Q727 1639 718 1634T690 1628H424Q405 1628 396 1634T371 1659L176 1905Q168 1913 168 1925Q168 1939 186 1939H362Q380 1939 388 1933T411 1911L557 1749L702 1911Q723 1932 728 1935T749 1939H926Q944 1939 944 1925Z"  />
<glyph unicode="&#x161;" horiz-adv-x="977" d="M467 205Q561 205 592 229T623 295Q623 330 603 353T532 408L252 580Q173 629 127 702T80 862Q80 1169 469 1169Q671 1169 827 1102Q850 1093 860 1082T870 1049V924Q870 879 827 891Q648 948 498 948Q420 948 385 931T350 872Q350 849 359 835T385 808T432 778L700 614Q817 543 857 472T897 317Q897 220 852 144T716 26T496 -16Q293 -16 135 51Q109 64 101 75T92 104V229Q92 274 135 262Q316 205 467 205ZM874 1581Q874 1569 866 1561L673 1315Q657 1295 648 1290T620 1284H354Q335 1284 326 1290T301 1315L106 1561Q98 1569 98 1581Q98 1595 116 1595H292Q310 1595 318 1589T341 1567L487 1405L632 1567Q653 1588 658 1591T679 1595H856Q874 1595 874 1581Z"  />
<glyph unicode="&#x162;" horiz-adv-x="1174" d="M1128 1321Q1128 1303 1116 1294T1087 1284H729V41Q729 23 717 12T688 0H485Q470 0 457 12T444 41V1284H86Q69 1284 57 1294T45 1321V1483Q45 1499 56 1510T86 1522H1087Q1105 1522 1116 1512T1128 1483V1321ZM725 -129Q725 -132 724 -135T721 -143L612 -365Q604 -383 594 -394T567 -406H432Q401 -406 401 -381Q401 -378 401 -374T403 -365L458 -143Q463 -125 472 -115T499 -104H696Q712 -104 718 -111T725 -129Z"  />
<glyph unicode="&#x163;" horiz-adv-x="817" d="M782 35Q782 4 743 -2Q657 -16 582 -16Q460 -16 391 8T289 103T256 309V952L86 981Q45 988 45 1022V1114Q45 1131 56 1143T86 1155H256V1323Q256 1357 297 1364L487 1397H496Q528 1397 528 1366V1155H735Q754 1155 765 1144T776 1114V993Q776 976 764 964T735 952H528V309Q528 233 541 214T608 195H739Q782 195 782 164V35ZM572 -129Q572 -132 571 -135T568 -143L459 -365Q451 -383 441 -394T414 -406H279Q248 -406 248 -381Q248 -378 248 -374T250 -365L305 -143Q310 -125 319 -115T346 -104H543Q559 -104 565 -111T572 -129Z"  />
<glyph unicode="&#x164;" horiz-adv-x="1174" d="M1128 1321Q1128 1303 1116 1294T1087 1284H729V41Q729 23 717 12T688 0H485Q470 0 457 12T444 41V1284H86Q69 1284 57 1294T45 1321V1483Q45 1499 56 1510T86 1522H1087Q1105 1522 1116 1512T1128 1483V1321ZM975 1925Q975 1913 967 1905L774 1659Q758 1639 749 1634T721 1628H455Q436 1628 427 1634T402 1659L207 1905Q199 1913 199 1925Q199 1939 217 1939H393Q411 1939 419 1933T442 1911L588 1749L733 1911Q754 1932 759 1935T780 1939H957Q975 1939 975 1925Z"  />
<glyph unicode="&#x165;" horiz-adv-x="817" d="M866 1536Q866 1533 866 1529T864 1520L768 1262Q762 1240 754 1232T729 1223H598Q587 1223 584 1228T580 1243Q580 1248 580 1252T582 1262L643 1520Q648 1541 658 1550T684 1559H844Q866 1559 866 1536ZM782 35Q782 4 743 -2Q706 -8 661 -12T582 -16Q495 -16 433 -4T332 43T275 142T256 309V952L86 981Q69 984 57 994T45 1022V1114Q45 1131 57 1143T86 1155H256V1323Q256 1340 268 1350T297 1364L487 1397H496Q510 1397 519 1389T528 1366V1155H735Q752 1155 764 1143T776 1114V993Q776 976 764 964T735 952H528V309Q528 271 530 249T540 214T565 199T608 195H739Q782 195 782 164V35Z"  />
<glyph unicode="&#x16A;" horiz-adv-x="1372" d="M1249 563Q1249 402 1209 291T1095 113T918 15T686 -16Q558 -16 455 15T279 112T164 291T123 563V1483Q123 1499 134 1510T164 1522H367Q383 1522 395 1511T408 1483V563Q408 440 432 366T517 256T686 219Q795 219 856 256T941 366T965 563V1483Q965 1499 976 1510T1006 1522H1208Q1226 1522 1237 1512T1249 1483V563ZM1045 1704Q1045 1686 1033 1677T1004 1667H369Q353 1667 341 1677T328 1704V1820Q328 1837 339 1847T369 1857H1004Q1023 1857 1034 1848T1045 1820V1704Z"  />
<glyph unicode="&#x16B;" horiz-adv-x="1176" d="M115 1112Q115 1128 126 1141T156 1155H344Q362 1155 373 1143T385 1112V436Q385 376 395 335T428 267T491 228T590 215Q691 215 791 238V1112Q791 1128 802 1141T831 1155H1020Q1036 1155 1048 1142T1061 1112V88Q1061 58 1020 47Q910 17 797 2T582 -14Q459 -14 374 11T230 92T143 231T115 434V1112ZM946 1393Q946 1375 934 1366T905 1356H270Q254 1356 242 1366T229 1393V1509Q229 1526 240 1536T270 1546H905Q924 1546 935 1537T946 1509V1393Z"  />
<glyph unicode="&#x16E;" horiz-adv-x="1372" d="M1249 563Q1249 402 1209 291T1095 113T918 15T686 -16Q558 -16 455 15T279 112T164 291T123 563V1483Q123 1499 134 1510T164 1522H367Q383 1522 395 1511T408 1483V563Q408 440 432 366T517 256T686 219Q795 219 856 256T941 366T965 563V1483Q965 1499 976 1510T1006 1522H1208Q1226 1522 1237 1512T1249 1483V563ZM912 1833Q912 1771 881 1719T798 1638T686 1608Q626 1608 573 1638T490 1719T459 1833Q459 1926 525 1993T686 2060Q747 2060 798 2030T881 1947T912 1833ZM785 1835Q785 1876 756 1903T686 1931Q647 1931 620 1904T592 1835Q592 1795 619 1766T686 1737Q713 1737 735 1750T771 1786T785 1835Z"  />
<glyph unicode="&#x16F;" horiz-adv-x="1176" d="M115 1112Q115 1128 126 1141T156 1155H344Q362 1155 373 1143T385 1112V436Q385 376 395 335T428 267T491 228T590 215Q691 215 791 238V1112Q791 1128 802 1141T831 1155H1020Q1036 1155 1048 1142T1061 1112V88Q1061 58 1020 47Q910 17 797 2T582 -14Q459 -14 374 11T230 92T143 231T115 434V1112ZM813 1450Q813 1388 782 1336T699 1255T587 1225Q527 1225 474 1255T391 1336T360 1450Q360 1543 426 1610T587 1677Q648 1677 699 1647T782 1564T813 1450ZM686 1452Q686 1493 657 1520T587 1548Q548 1548 521 1521T493 1452Q493 1412 520 1383T587 1354Q614 1354 636 1367T672 1403T686 1452Z"  />
<glyph unicode="&#x170;" horiz-adv-x="1372" d="M1249 563Q1249 402 1209 291T1095 113T918 15T686 -16Q558 -16 455 15T279 112T164 291T123 563V1483Q123 1499 134 1510T164 1522H367Q383 1522 395 1511T408 1483V563Q408 440 432 366T517 256T686 219Q795 219 856 256T941 366T965 563V1483Q965 1499 976 1510T1006 1522H1208Q1226 1522 1237 1512T1249 1483V563ZM1266 1921Q1266 1913 1258 1905L1016 1651Q1001 1635 993 1630T967 1624H791Q772 1624 772 1638Q772 1651 781 1659L975 1905Q1001 1935 1028 1935H1243Q1266 1935 1266 1921ZM836 1921Q836 1913 828 1905L586 1651Q572 1635 563 1630T537 1624H361Q342 1624 342 1638Q342 1651 350 1659L545 1905Q560 1924 569 1929T598 1935H813Q836 1935 836 1921Z"  />
<glyph unicode="&#x171;" horiz-adv-x="1176" d="M115 1112Q115 1128 126 1141T156 1155H344Q362 1155 373 1143T385 1112V436Q385 376 395 335T428 267T491 228T590 215Q691 215 791 238V1112Q791 1128 802 1141T831 1155H1020Q1036 1155 1048 1142T1061 1112V88Q1061 58 1020 47Q910 17 797 2T582 -14Q459 -14 374 11T230 92T143 231T115 434V1112ZM1204 1581Q1204 1573 1196 1565L954 1311Q939 1295 931 1290T905 1284H729Q710 1284 710 1298Q710 1311 719 1319L913 1565Q939 1595 966 1595H1181Q1204 1595 1204 1581ZM774 1581Q774 1573 766 1565L524 1311Q510 1295 501 1290T475 1284H299Q280 1284 280 1298Q280 1311 288 1319L483 1565Q498 1584 507 1589T536 1595H751Q774 1595 774 1581Z"  />
<glyph unicode="&#x172;" horiz-adv-x="1372" d="M799 -61Q760 -87 737 -103T701 -131T686 -153T682 -176Q682 -195 696 -205T733 -215Q762 -215 790 -212T841 -206T880 -200T901 -197Q915 -197 918 -201T922 -221V-340Q922 -351 919 -357T899 -371Q888 -376 870 -382T825 -396T765 -407T688 -412Q638 -412 591 -400T508 -365T450 -306T428 -223Q428 -183 435 -154T460 -101T504 -56T569 -8Q469 4 387 40T247 145T156 316T123 563V1483Q123 1500 135 1511T164 1522H367Q384 1522 396 1511T408 1483V563Q408 476 420 411T464 304T549 240T686 219Q769 219 823 240T908 303T952 411T965 563V1483Q965 1500 977 1511T1006 1522H1208Q1225 1522 1237 1511T1249 1483V563Q1249 438 1225 345T1156 185T1048 75T907 10L799 -61Z"  />
<glyph unicode="&#x173;" horiz-adv-x="1176" d="M115 1112Q115 1129 127 1142T156 1155H344Q361 1155 373 1142T385 1112V436Q385 377 395 335T428 267T491 228T590 215Q615 215 644 217T701 223T752 231T791 238V1112Q791 1129 802 1142T831 1155H1020Q1037 1155 1049 1142T1061 1112V66Q1061 54 1053 49Q975 -3 929 -40T859 -102T828 -145T821 -176Q821 -195 835 -205T872 -215Q901 -215 929 -212T980 -206T1019 -200T1040 -197Q1054 -197 1057 -201T1061 -221V-340Q1061 -351 1058 -357T1038 -371Q1027 -376 1009 -382T965 -396T904 -407T827 -412Q777 -412 730 -405T647 -377T589 -318T567 -215Q567 -153 598 -105T686 -10Q658 -12 632 -13T582 -14Q462 -14 374 11T229 91T143 231T115 434V1112Z"  />
<glyph unicode="&#x178;" horiz-adv-x="1247" d="M1202 1491Q1202 1487 1198 1475L887 764Q835 645 762 614V41Q762 23 751 12T723 0H518Q502 0 491 11T479 41V614Q406 645 354 764L45 1475Q41 1487 41 1491Q41 1505 49 1513T74 1522H301Q328 1522 340 1489L586 879Q602 838 621 838Q641 838 657 879L903 1489Q915 1522 942 1522H1167Q1182 1522 1192 1514T1202 1491ZM954 1677Q954 1659 941 1648T911 1636H764Q748 1636 735 1647T721 1677V1857Q721 1873 734 1885T764 1898H911Q927 1898 940 1886T954 1857V1677ZM545 1677Q545 1659 532 1648T502 1636H354Q338 1636 325 1647T311 1677V1857Q311 1873 324 1885T354 1898H502Q518 1898 531 1886T545 1857V1677Z"  />
<glyph unicode="&#x179;" horiz-adv-x="1180" d="M1110 41Q1110 23 1098 12T1069 0H174Q70 0 70 76V188Q70 227 96 266L745 1239Q752 1247 752 1257Q752 1274 731 1274H162Q123 1274 123 1311V1483Q123 1500 134 1511T162 1522H987Q1035 1522 1065 1502T1096 1444V1325Q1096 1286 1067 1241L428 285Q420 273 420 262Q420 250 438 250H1069Q1088 250 1099 241T1110 213V41ZM973 1928Q973 1920 965 1912L724 1658Q711 1644 702 1638T674 1631H498Q480 1631 480 1645Q480 1658 488 1666L683 1912Q698 1931 707 1936T736 1942H951Q973 1942 973 1928Z"  />
<glyph unicode="&#x17A;" horiz-adv-x="979" d="M909 41Q909 23 897 12T868 0H152Q118 0 94 24T70 82V170Q70 200 96 236L592 918Q598 927 598 930Q598 936 586 936H123Q106 936 96 944T86 969V1114Q86 1131 97 1143T127 1155H823Q856 1155 880 1131T905 1071V954Q905 944 903 929T895 907L418 254L414 248Q414 240 426 240H872Q889 240 899 231T909 207V41ZM874 1581Q874 1573 866 1565L625 1311Q612 1297 603 1291T575 1284H399Q381 1284 381 1298Q381 1311 389 1319L584 1565Q599 1584 608 1589T637 1595H852Q874 1595 874 1581Z"  />
<glyph unicode="&#x17B;" horiz-adv-x="1180" d="M1110 41Q1110 23 1098 12T1069 0H174Q70 0 70 76V188Q70 227 96 266L745 1239Q752 1247 752 1257Q752 1274 731 1274H162Q123 1274 123 1311V1483Q123 1500 134 1511T162 1522H987Q1035 1522 1065 1502T1096 1444V1325Q1096 1286 1067 1241L428 285Q420 273 420 262Q420 250 438 250H1069Q1088 250 1099 241T1110 213V41ZM735 1686Q735 1669 723 1657T694 1645H510Q493 1645 481 1658T469 1686V1881Q469 1897 480 1908T510 1920H694Q712 1920 723 1910T735 1881V1686Z"  />
<glyph unicode="&#x17C;" horiz-adv-x="979" d="M909 41Q909 23 897 12T868 0H152Q118 0 94 24T70 82V170Q70 200 96 236L592 918Q598 927 598 930Q598 936 586 936H123Q106 936 96 944T86 969V1114Q86 1131 97 1143T127 1155H823Q856 1155 880 1131T905 1071V954Q905 944 903 929T895 907L418 254L414 248Q414 240 426 240H872Q889 240 899 231T909 207V41ZM622 1341Q622 1324 610 1312T581 1300H397Q380 1300 368 1313T356 1341V1536Q356 1552 367 1563T397 1575H581Q599 1575 610 1565T622 1536V1341Z"  />
<glyph unicode="&#x17D;" horiz-adv-x="1180" d="M1110 41Q1110 23 1098 12T1069 0H174Q70 0 70 76V188Q70 227 96 266L745 1239Q752 1247 752 1257Q752 1274 731 1274H162Q123 1274 123 1311V1483Q123 1500 134 1511T162 1522H987Q1035 1522 1065 1502T1096 1444V1325Q1096 1286 1067 1241L428 285Q420 273 420 262Q420 250 438 250H1069Q1088 250 1099 241T1110 213V41ZM1009 1923Q1009 1911 1001 1903L808 1657Q792 1637 783 1632T755 1626H489Q470 1626 461 1632T436 1657L241 1903Q233 1911 233 1923Q233 1937 251 1937H427Q445 1937 453 1931T476 1909L622 1747L767 1909Q788 1930 793 1933T814 1937H991Q1009 1937 1009 1923Z"  />
<glyph unicode="&#x17E;" horiz-adv-x="979" d="M909 41Q909 23 897 12T868 0H152Q118 0 94 24T70 82V170Q70 200 96 236L592 918Q598 927 598 930Q598 936 586 936H123Q106 936 96 944T86 969V1114Q86 1131 97 1143T127 1155H823Q856 1155 880 1131T905 1071V954Q905 944 903 929T895 907L418 254L414 248Q414 240 426 240H872Q889 240 899 231T909 207V41ZM907 1581Q907 1569 899 1561L706 1315Q690 1295 681 1290T653 1284H387Q368 1284 359 1290T334 1315L139 1561Q131 1569 131 1581Q131 1595 149 1595H325Q343 1595 351 1589T374 1567L520 1405L665 1567Q686 1588 691 1591T712 1595H889Q907 1595 907 1581Z"  />
<glyph unicode="&#x192;" horiz-adv-x="1266" d="M1190 1540V1534L1174 1415Q1172 1400 1158 1390T1124 1380H999Q926 1380 897 1356T858 1264L809 909H1092Q1108 909 1117 900T1126 877V870L1108 737Q1105 720 1091 708T1061 696H780L682 6Q658 -169 555 -243T291 -317Q199 -317 113 -303Q92 -299 84 -292T76 -272V-266L92 -147Q93 -132 107 -123T141 -113H266Q341 -113 370 -88T408 4L506 696H246Q229 696 219 706T209 731V737L227 870Q230 887 243 898T274 909H535L584 1264Q600 1384 654 1455T789 1555T975 1585Q1067 1585 1153 1571Q1190 1563 1190 1540Z"  />
<glyph unicode="&#x218;" horiz-adv-x="1141" d="M520 227Q652 227 707 272T762 412Q762 471 728 512T592 612L322 774Q230 830 176 888T101 1011T80 1149Q80 1330 198 1434T578 1538Q680 1538 778 1513T930 1458Q953 1445 964 1434T975 1403V1264Q975 1214 924 1233Q868 1254 765 1274T580 1294Q365 1294 365 1151Q365 1101 398 1067T532 973L778 827Q886 763 946 699T1031 567T1055 412Q1055 299 1004 203T834 45T528 -16Q402 -16 298 13T152 66Q123 83 115 92T106 121V260Q106 307 158 291Q357 227 520 227ZM702 -129Q702 -132 701 -135T698 -143L589 -365Q581 -383 571 -394T544 -406H409Q378 -406 378 -381Q378 -378 378 -374T380 -365L435 -143Q440 -125 449 -115T476 -104H673Q689 -104 695 -111T702 -129Z"  />
<glyph unicode="&#x219;" horiz-adv-x="977" d="M467 205Q561 205 592 229T623 295Q623 330 603 353T532 408L252 580Q173 629 127 702T80 862Q80 1169 469 1169Q671 1169 827 1102Q850 1093 860 1082T870 1049V924Q870 879 827 891Q648 948 498 948Q420 948 385 931T350 872Q350 849 359 835T385 808T432 778L700 614Q817 543 857 472T897 317Q897 220 852 144T716 26T496 -16Q293 -16 135 51Q109 64 101 75T92 104V229Q92 274 135 262Q316 205 467 205ZM649 -129Q649 -132 648 -135T645 -143L536 -365Q528 -383 518 -394T491 -406H356Q325 -406 325 -381Q325 -378 325 -374T327 -365L382 -143Q387 -125 396 -115T423 -104H620Q636 -104 642 -111T649 -129Z"  />
<glyph unicode="&#x21A;" horiz-adv-x="1174" d="M1128 1321Q1128 1304 1116 1294T1087 1284H729V41Q729 24 717 12T688 0H485Q468 0 456 12T444 41V1284H86Q69 1284 57 1294T45 1321V1483Q45 1500 57 1511T86 1522H1087Q1104 1522 1116 1511T1128 1483V1321ZM725 -129Q725 -132 724 -135T721 -143L612 -365Q604 -383 594 -394T567 -406H432Q418 -406 410 -401T401 -381Q401 -378 401 -374T403 -365L459 -143Q464 -125 473 -115T500 -104H696Q712 -104 718 -111T725 -129Z"  />
<glyph unicode="&#x21B;" horiz-adv-x="817" d="M782 35Q782 4 743 -2Q706 -8 661 -12T582 -16Q495 -16 433 -4T332 43T275 142T256 309V952L86 981Q69 984 57 994T45 1022V1114Q45 1131 57 1143T86 1155H256V1323Q256 1340 268 1350T297 1364L487 1397H496Q510 1397 519 1389T528 1366V1155H735Q752 1155 764 1143T776 1114V993Q776 976 764 964T735 952H528V309Q528 271 530 249T540 214T565 199T608 195H739Q782 195 782 164V35ZM571 -129Q571 -132 570 -135T567 -143L459 -365Q451 -383 441 -394T414 -406H279Q248 -406 248 -381Q248 -378 248 -374T250 -365L305 -143Q310 -125 319 -115T346 -104H543Q558 -104 564 -111T571 -129Z"  />
<glyph unicode="&#x2C6;" horiz-adv-x="838" d="M801 1298Q801 1284 782 1284H612Q601 1284 594 1287T579 1297T565 1311L420 1477L274 1311Q259 1295 251 1290T225 1284H55Q37 1284 37 1298Q37 1311 45 1319L233 1565Q251 1585 259 1590T287 1595H553Q572 1595 581 1590T606 1565L793 1319Q801 1311 801 1298Z"  />
<glyph unicode="&#x2C7;" horiz-adv-x="842" d="M809 1581Q809 1569 801 1561L608 1315Q592 1295 583 1290T555 1284H289Q270 1284 261 1290T236 1315L41 1561Q33 1569 33 1581Q33 1595 51 1595H227Q245 1595 253 1589T276 1567L422 1405L567 1567Q588 1588 593 1591T614 1595H791Q809 1595 809 1581Z"  />
<glyph unicode="&#x2C9;" horiz-adv-x="834" d="M776 1393Q776 1375 764 1366T735 1356H100Q84 1356 72 1366T59 1393V1509Q59 1526 70 1536T100 1546H735Q754 1546 765 1537T776 1509V1393Z"  />
<glyph unicode="&#x2D8;" horiz-adv-x="834" d="M782 1581Q782 1579 782 1578T780 1573Q752 1444 662 1360T418 1276Q264 1276 175 1358T55 1573Q55 1577 55 1578T53 1581Q53 1595 74 1595H227Q248 1595 254 1571Q290 1436 418 1436Q546 1436 582 1571Q588 1595 608 1595H762Q782 1595 782 1581Z"  />
<glyph unicode="&#x2D9;" horiz-adv-x="764" d="M516 1341Q516 1324 504 1312T475 1300H291Q274 1300 262 1313T250 1341V1536Q250 1552 261 1563T291 1575H475Q493 1575 504 1565T516 1536V1341Z"  />
<glyph unicode="&#x2DA;" horiz-adv-x="793" d="M623 1450Q623 1388 592 1336T509 1255T397 1225Q337 1225 284 1255T201 1336T170 1450Q170 1543 236 1610T397 1677Q458 1677 509 1647T592 1564T623 1450ZM496 1452Q496 1493 467 1520T397 1548Q358 1548 331 1521T303 1452Q303 1412 330 1383T397 1354Q424 1354 446 1367T482 1403T496 1452Z"  />
<glyph unicode="&#x2DB;" horiz-adv-x="780" d="M649 -354Q649 -372 627 -377Q533 -401 453 -401Q306 -401 221 -331T135 -129Q135 -91 145 -34T164 57Q165 63 168 68T175 75T190 76H354Q373 76 373 61Q373 58 373 56T371 51Q356 -37 356 -78Q356 -223 502 -223Q553 -223 616 -209Q623 -207 633 -207Q649 -207 649 -223V-354Z"  />
<glyph unicode="&#x2DC;" horiz-adv-x="983" d="M872 1513Q872 1284 645 1284Q610 1284 572 1296T502 1331L412 1399Q354 1442 326 1442Q268 1442 268 1372V1329Q268 1296 240 1296H123Q94 1296 94 1329V1372Q94 1602 324 1602Q404 1602 465 1556L555 1489Q608 1448 641 1448Q698 1448 698 1516V1559Q698 1591 727 1591H844Q872 1591 872 1559V1513Z"  />
<glyph unicode="&#x2DD;" horiz-adv-x="862" d="M936 1581Q936 1573 928 1565L686 1311Q671 1295 663 1290T637 1284H461Q442 1284 442 1298Q442 1311 451 1319L645 1565Q671 1595 698 1595H913Q936 1595 936 1581ZM506 1581Q506 1573 498 1565L256 1311Q242 1295 233 1290T207 1284H31Q12 1284 12 1298Q12 1311 20 1319L215 1565Q230 1584 239 1589T268 1595H483Q506 1595 506 1581Z"  />
<glyph unicode="&#x3C0;" horiz-adv-x="1364" d="M1296 930H1155V274Q1155 249 1162 239T1188 226T1257 223H1307Q1327 223 1327 201V10Q1327 -4 1323 -8T1305 -16Q1295 -18 1231 -21T1130 -25Q1037 -25 984 4T908 99T885 274V930H479V41Q479 0 451 0H240Q209 0 209 41V930H68Q50 930 44 936T37 961V1122Q37 1142 43 1148T68 1155H1296Q1314 1155 1320 1149T1327 1122V961Q1327 942 1321 936T1296 930Z"  />
<glyph unicode="&#x2013;" horiz-adv-x="909" d="M834 516Q834 501 822 490T793 479H115Q99 479 88 489T76 516V662Q76 680 87 690T115 700H793Q809 700 821 690T834 662V516Z"  />
<glyph unicode="&#x2014;" horiz-adv-x="1667" d="M1591 516Q1591 500 1579 490T1550 479H115Q99 479 88 489T76 516V662Q76 680 87 690T115 700H1550Q1568 700 1579 690T1591 662V516Z"  />
<glyph unicode="&#x2018;" horiz-adv-x="434" d="M414 1538Q414 1526 412 1520L307 1096Q299 1057 266 1057H57Q35 1057 35 1079Q35 1090 37 1096L176 1520Q187 1559 215 1559H395Q414 1559 414 1538Z"  />
<glyph unicode="&#x2019;" horiz-adv-x="434" d="M399 1536Q399 1526 397 1520L258 1096Q247 1057 219 1057H39Q20 1057 20 1077Q20 1090 23 1096L127 1520Q135 1559 168 1559H377Q399 1559 399 1536Z"  />
<glyph unicode="&#x201A;" horiz-adv-x="434" d="M428 287Q428 286 424 272L246 -158Q229 -199 207 -199H49Q35 -199 27 -191T18 -170Q18 -162 20 -158L145 272Q159 311 186 311H399Q428 311 428 287Z"  />
<glyph unicode="&#x201C;" horiz-adv-x="848" d="M827 1538Q827 1526 825 1520L721 1096Q713 1057 680 1057H471Q449 1057 449 1079Q449 1090 451 1096L590 1520Q601 1559 629 1559H809Q827 1559 827 1538ZM399 1538Q399 1526 397 1520L293 1096Q285 1057 252 1057H43Q20 1057 20 1079Q20 1090 23 1096L162 1520Q173 1559 201 1559H381Q399 1559 399 1538Z"  />
<glyph unicode="&#x201D;" horiz-adv-x="848" d="M827 1536Q827 1526 825 1520L686 1096Q675 1057 647 1057H467Q449 1057 449 1077Q449 1090 451 1096L555 1520Q563 1559 596 1559H805Q827 1559 827 1536ZM399 1536Q399 1526 397 1520L258 1096Q247 1057 219 1057H39Q20 1057 20 1077Q20 1090 23 1096L127 1520Q135 1559 168 1559H377Q399 1559 399 1536Z"  />
<glyph unicode="&#x201E;" horiz-adv-x="848" d="M860 287Q860 286 856 272L678 -158Q669 -181 662 -190T639 -199H481Q451 -199 451 -170Q451 -162 453 -158L578 272Q590 311 618 311H831Q860 311 860 287ZM414 287Q414 286 410 272L231 -158Q222 -181 215 -190T193 -199H35Q22 -199 13 -190T4 -170Q4 -162 6 -158L131 272Q143 311 172 311H385Q398 311 406 305T414 287Z"  />
<glyph unicode="&#x2020;" horiz-adv-x="854" d="M797 977Q797 944 758 944H555V29Q555 -12 522 -12H313Q281 -12 281 29V944H98Q59 944 59 977V1141Q59 1171 98 1171H281V1520Q281 1559 315 1559H522Q537 1559 546 1548T555 1520V1171H758Q797 1171 797 1141V977Z"  />
<glyph unicode="&#x2021;" horiz-adv-x="854" d="M797 547Q797 514 758 514H555V29Q555 -12 522 -12H313Q281 -12 281 29V514H98Q59 514 59 547V711Q59 741 98 741H281V944H98Q59 944 59 977V1141Q59 1171 98 1171H281V1520Q281 1559 315 1559H522Q537 1559 546 1548T555 1520V1171H758Q797 1171 797 1141V977Q797 944 758 944H555V741H758Q797 741 797 711V547Z"  />
<glyph unicode="&#x2022;" horiz-adv-x="811" d="M137 528V983Q137 1000 149 1012T178 1024H633Q650 1024 662 1012T674 983V528Q674 513 661 500T633 487H178Q163 487 150 500T137 528Z"  />
<glyph unicode="&#x2026;" horiz-adv-x="1415" d="M1335 41Q1335 23 1323 12T1294 0H1094Q1077 0 1065 12T1053 41V272Q1053 288 1064 299T1094 311H1294Q1312 311 1323 301T1335 272V41ZM850 41Q850 24 837 12T809 0H608Q593 0 580 12T567 41V272Q567 288 579 299T608 311H809Q825 311 837 300T850 272V41ZM365 41Q365 24 352 12T324 0H123Q106 0 94 12T82 41V272Q82 288 93 299T123 311H324Q340 311 352 300T365 272V41Z"  />
<glyph unicode="&#x2030;" horiz-adv-x="2365" d="M655 1020Q655 672 360 672Q219 672 143 759T66 1020V1186Q66 1301 100 1379T200 1494T360 1532Q503 1532 579 1447T655 1186V1020ZM471 1020V1186Q471 1286 444 1327T360 1368Q306 1368 278 1327T250 1186V1020Q250 921 278 879T360 836Q416 836 443 877T471 1020ZM1366 1505Q1366 1492 1358 1481L500 29Q488 7 480 1T457 -6H289Q268 -6 268 12Q268 26 276 37L1135 1487Q1148 1508 1155 1515T1180 1522H1346Q1366 1522 1366 1505ZM1577 338Q1577 164 1502 77T1282 -10Q1139 -10 1063 76T987 338V504Q987 678 1063 764T1282 850Q1425 850 1501 764T1577 504V338ZM1393 338V504Q1393 604 1366 645T1282 686Q1227 686 1199 645T1171 504V338Q1171 239 1199 197T1282 154Q1338 154 1365 195T1393 338ZM2300 338Q2300 164 2225 77T2005 -10Q1862 -10 1786 76T1710 338V504Q1710 678 1786 764T2005 850Q2148 850 2224 764T2300 504V338ZM2116 338V504Q2116 604 2089 645T2005 686Q1950 686 1922 645T1894 504V338Q1894 239 1922 197T2005 154Q2061 154 2088 195T2116 338Z"  />
<glyph unicode="&#x2039;" horiz-adv-x="801" d="M709 158Q709 135 678 135H467Q444 135 433 140T406 162L74 526Q57 543 57 578Q57 612 74 629L406 993Q418 1007 431 1013T467 1020H678Q709 1020 709 997Q709 989 702 983L332 578L702 172Q709 166 709 158Z"  />
<glyph unicode="&#x203A;" horiz-adv-x="801" d="M743 578Q743 543 727 526L395 162Q378 145 368 140T334 135H123Q92 135 92 158Q92 166 98 172L469 578L98 983Q92 989 92 997Q92 1020 123 1020H334Q358 1020 369 1014T395 993L727 629Q743 612 743 578Z"  />
<glyph unicode="&#x2044;" horiz-adv-x="674" d="M969 1505Q969 1492 961 1481L102 29Q89 6 82 0T59 -6H-109Q-129 -6 -129 12Q-129 26 -121 37L737 1487Q753 1511 759 1516T782 1522H948Q969 1522 969 1505Z"  />
<glyph unicode="&#x20AC;" horiz-adv-x="1257" d="M770 1538Q880 1538 976 1510T1108 1458Q1153 1433 1153 1403V1264Q1153 1214 1102 1233Q1069 1245 1010 1260T895 1285T788 1294Q644 1294 579 1230T498 1014H1001Q1015 1014 1024 1006T1034 983Q1034 980 1034 978T1032 973L1006 874Q993 834 965 834H492V694H913Q928 694 937 686T946 664Q946 660 946 658T944 653L918 555Q906 514 877 514H496Q511 411 544 348T636 256T788 227Q867 227 951 246T1102 289Q1153 308 1153 258V119Q1153 89 1108 63Q1067 40 972 12T770 -16Q552 -16 393 106T209 514H131Q116 514 103 526T90 555V653Q90 670 102 682T131 694H205V834H131Q116 834 103 846T90 874V973Q90 988 103 1001T131 1014H209Q229 1211 309 1328T507 1491T770 1538Z"  />
<glyph unicode="&#x2122;" horiz-adv-x="1055" d="M432 1450Q432 1432 410 1432H293V1006Q293 997 287 991T272 985H205Q198 985 191 991T184 1006V1432H66Q45 1432 45 1450V1503Q45 1512 51 1518T66 1524H410Q419 1524 425 1519T432 1503V1450ZM721 1182Q693 1182 678 1195T645 1241L567 1425H565V999Q565 985 551 985H485Q471 985 471 999V1501Q471 1507 477 1514T492 1522H604Q622 1522 627 1509L713 1286Q716 1278 721 1278Q726 1278 729 1286L819 1509Q824 1522 842 1522H950Q958 1522 964 1516T971 1501V999Q971 985 956 985H891Q877 985 877 999V1425H874L797 1241Q783 1212 766 1197T721 1182Z"  />
<glyph unicode="&#x2126;" horiz-adv-x="1356" d="M973 887V944Q973 1107 899 1196T678 1286Q531 1286 457 1196T383 944V887Q383 711 420 632T578 510Q596 504 601 496T606 459V43Q606 0 563 0H193Q145 0 145 43V215Q145 256 193 256H440V311Q240 379 168 528T96 887V944Q96 1086 138 1198T258 1388T444 1505T678 1546Q805 1546 913 1506T1097 1389T1217 1200T1260 944V887Q1260 757 1233 646T1130 446T915 311V256H1163Q1210 256 1210 215V43Q1210 0 1163 0H793Q750 0 750 43V459Q750 485 755 494T778 510Q900 553 936 632T973 887Z"  />
<glyph unicode="&#x2202;" horiz-adv-x="1204" d="M1135 956Q1135 744 1090 510Q986 -14 516 -14Q371 -14 270 36T120 180T70 406Q70 485 94 633Q123 805 197 913T381 1070T635 1118Q674 1118 719 1110T805 1084T870 1042Q864 1079 862 1087Q852 1197 815 1277T691 1407T457 1458Q341 1458 256 1442Q239 1439 232 1445T225 1464L236 1571Q241 1605 274 1610Q373 1632 504 1632Q714 1632 856 1550T1066 1316T1135 956ZM836 713Q836 810 792 857T647 905Q527 905 461 827T373 596Q350 452 350 399Q350 300 395 251T539 201Q617 201 672 236T762 340T811 510Q836 661 836 713Z"  />
<glyph unicode="&#x2206;" horiz-adv-x="1315" d="M1280 35Q1280 19 1270 10T1243 0H72Q56 0 46 9T35 35Q36 37 36 39T37 45L373 1329Q427 1538 657 1538Q888 1538 942 1329L1278 45Q1279 42 1279 40T1280 35ZM940 233L690 1266Q685 1285 679 1291T657 1298Q643 1298 637 1292T625 1266L375 233H940Z"  />
<glyph unicode="&#x220F;" horiz-adv-x="1450" d="M55 1522H1395Q1423 1522 1423 1487V1305Q1423 1285 1417 1279T1395 1272H1300V-113Q1300 -130 1288 -142T1260 -154H1057Q1040 -154 1028 -141T1016 -113V1272H434V-113Q434 -130 422 -142T393 -154H190Q174 -154 162 -141T150 -113V1272H55Q39 1272 33 1279T27 1305V1487Q27 1522 55 1522Z"  />
<glyph unicode="&#x2211;" horiz-adv-x="1087" d="M991 -121Q991 -154 963 -154H131Q96 -154 96 -113V63Q96 93 109 113L500 659Q506 670 506 684Q506 698 500 709L109 1255Q96 1275 96 1305V1481Q96 1522 131 1522H963Q991 1522 991 1489V1309Q991 1274 963 1274H414Q396 1274 408 1255L770 754Q782 735 782 713V655Q782 634 770 614L408 113Q396 94 414 94H963Q991 94 991 59V-121Z"  />
<glyph unicode="&#x2212;" horiz-adv-x="1241" d="M1098 721Q1098 688 1057 688H186Q145 688 145 721V881Q145 913 186 913H1057Q1098 913 1098 881V721Z"  />
<glyph unicode="&#x2215;" horiz-adv-x="674" d="M969 1505Q969 1492 961 1481L102 29Q89 6 82 0T59 -6H-109Q-129 -6 -129 12Q-129 26 -121 37L737 1487Q753 1511 759 1516T782 1522H948Q969 1522 969 1505Z"  />
<glyph unicode="&#x2219;" horiz-adv-x="494" d="M387 674Q387 656 375 645T346 633H145Q130 633 117 645T104 674V905Q104 921 116 932T145 944H346Q364 944 375 934T387 905V674Z"  />
<glyph unicode="&#x221A;" horiz-adv-x="1485" d="M680 84L1186 1757Q1193 1777 1198 1782T1221 1788H1436Q1460 1788 1460 1774Q1460 1771 1456 1759L872 -121Q863 -154 821 -154H524Q507 -154 499 -146T483 -117L231 707Q224 729 207 729H80Q57 729 57 754V952Q57 981 80 981H383Q415 981 424 950L680 84Z"  />
<glyph unicode="&#x221E;" horiz-adv-x="1278" d="M1208 750Q1208 660 1194 581T1144 434T1039 324T866 281H854Q712 281 614 379Q541 279 416 279H401Q266 279 193 349T95 523T70 748V797Q70 991 143 1128T412 1266H424Q488 1266 550 1241T659 1165Q699 1220 747 1244T864 1268H877Q1072 1268 1140 1133T1208 799V750ZM999 750V799Q999 940 977 1013T877 1087H866Q836 1087 815 1070T781 1016T756 925T731 770Q711 613 692 539Q760 459 856 459H866Q945 459 972 536T999 750ZM582 999Q511 1087 424 1087H412Q334 1087 307 1006T279 797V748Q279 661 286 600T321 498T403 457H414Q470 457 498 527T549 784Q571 947 582 999Z"  />
<glyph unicode="&#x222B;" horiz-adv-x="881" d="M575 1255V20Q575 -166 485 -236T221 -307Q176 -307 98 -291Q61 -282 61 -258V-137Q61 -102 92 -102H184Q258 -102 281 -79T305 20V1255Q305 1382 348 1454T467 1555T659 1583Q704 1583 782 1567Q819 1558 819 1534V1413Q819 1378 788 1378H696Q644 1378 620 1369T586 1332T575 1255Z"  />
<glyph unicode="&#x2248;" horiz-adv-x="1073" d="M918 1006Q918 776 690 776Q611 776 547 823L457 891Q401 934 371 934Q313 934 313 864V821Q313 788 285 788H168Q139 788 139 821V864Q139 1094 369 1094Q449 1094 510 1049L600 981Q653 940 686 940Q743 940 743 1008V1051Q743 1083 772 1083H889Q918 1083 918 1051V1006ZM918 596Q918 367 690 367Q655 367 617 379T547 414L457 481Q401 524 371 524Q313 524 313 455V412Q313 379 285 379H168Q139 379 139 412V455Q139 684 369 684Q408 684 445 673T510 639L600 571Q655 530 686 530Q743 530 743 598V641Q743 674 772 674H889Q918 674 918 641V596Z"  />
<glyph unicode="&#x2260;" horiz-adv-x="1237" d="M698 1481Q712 1522 737 1522H903Q920 1522 930 1512T934 1481L831 1153H1034Q1075 1153 1075 1120V977Q1075 944 1034 944H768L678 657H1034Q1075 657 1075 625V481Q1075 449 1034 449H614L489 43Q476 0 451 0H285Q266 0 257 13T252 43L377 449H205Q164 449 164 481V625Q164 657 205 657H442L530 944H205Q164 944 164 977V1120Q164 1153 205 1153H596L698 1481Z"  />
<glyph unicode="&#x2264;" horiz-adv-x="1241" d="M1028 313Q1028 301 1021 293T1004 285H778Q765 285 759 288T733 307L260 721Q232 748 223 763T213 801Q213 823 223 840T260 881L733 1294Q748 1307 755 1312T778 1317H1004Q1015 1317 1021 1309T1028 1288Q1028 1273 1016 1264L483 801L1016 338Q1028 329 1028 313ZM1098 2Q1098 -13 1086 -22T1057 -31H186Q170 -31 158 -22T145 2V117Q145 132 157 141T186 150H1057Q1073 150 1085 141T1098 117V2Z"  />
<glyph unicode="&#x2265;" horiz-adv-x="1241" d="M1028 801Q1028 777 1018 761T981 721L508 307Q496 296 487 291T463 285H238Q227 285 220 294T213 313Q213 329 225 338L758 801L225 1264Q213 1273 213 1288Q213 1299 219 1308T238 1317H463Q480 1317 488 1311T508 1294L981 881Q1005 861 1016 844T1028 801ZM1098 2Q1098 -13 1086 -22T1057 -31H186Q170 -31 158 -22T145 2V117Q145 132 157 141T186 150H1057Q1073 150 1085 141T1098 117V2Z"  />
<glyph unicode="&#x25CA;" horiz-adv-x="1110" d="M1040 743Q1040 697 1004 653L627 186Q587 141 555 141Q523 141 485 186L106 653Q70 697 70 743Q70 788 106 834L487 1309Q516 1343 555 1343Q594 1343 623 1309L1004 834Q1040 788 1040 743ZM793 741Q793 759 774 784L594 1016Q575 1038 555 1038Q535 1038 516 1016L336 784Q317 759 317 741Q317 724 338 694L514 473Q539 442 555 442Q573 442 596 473L772 694Q793 720 793 741Z"  />
<glyph unicode="&#xF001;" horiz-adv-x="1323" d="M1208 1350Q1208 1332 1196 1321T1167 1309H969Q953 1309 940 1320T926 1350V1530Q926 1546 939 1558T969 1571H1167Q1184 1571 1196 1559T1208 1530V1350ZM1202 43Q1202 25 1191 13T1161 0H973Q955 0 944 13T932 43V1114Q932 1131 943 1143T973 1155H1161Q1180 1155 1191 1144T1202 1114V43ZM764 1413Q764 1378 733 1378H641Q589 1378 565 1369T531 1332T520 1255V1155H717Q734 1155 746 1143T758 1114V991Q758 975 746 964T717 952H520V43Q520 25 509 13T479 0H293Q276 0 263 13T250 43V952L68 981Q27 988 27 1020V1114Q27 1131 38 1143T68 1155H250V1255Q250 1382 293 1454T412 1555T604 1583Q649 1583 727 1567Q764 1558 764 1534V1413Z"  />
<glyph unicode="&#xF002;" horiz-adv-x="1325" d="M1202 43Q1202 26 1191 13T1163 0H973Q955 0 944 13T932 43V1518Q932 1533 944 1546T973 1559H1163Q1179 1559 1190 1547T1202 1518V43ZM764 1413Q764 1378 733 1378H641Q589 1378 565 1369T531 1332T520 1255V1155H717Q734 1155 746 1143T758 1114V991Q758 975 746 964T717 952H520V43Q520 25 509 13T479 0H293Q276 0 263 13T250 43V952L68 981Q27 988 27 1020V1114Q27 1131 38 1143T68 1155H250V1255Q250 1382 293 1454T412 1555T604 1583Q649 1583 727 1567Q764 1558 764 1534V1413Z"  />
<glyph unicode="&#xF006;" horiz-adv-x="1364" d="M1296 930H1155V274Q1155 249 1162 239T1188 226T1257 223H1307Q1327 223 1327 201V10Q1327 -4 1323 -8T1305 -16Q1295 -18 1231 -21T1130 -25Q1037 -25 984 4T908 99T885 274V930H479V41Q479 0 451 0H240Q209 0 209 41V930H68Q50 930 44 936T37 961V1122Q37 1142 43 1148T68 1155H1296Q1314 1155 1320 1149T1327 1122V961Q1327 942 1321 936T1296 930Z"  />
<glyph unicode="&#xF6C3;" horiz-adv-x="850" d="M586 -129Q586 -132 585 -135T582 -143L473 -365Q465 -383 455 -394T428 -406H293Q262 -406 262 -381Q262 -378 262 -374T264 -365L319 -143Q324 -125 333 -115T360 -104H557Q573 -104 579 -111T586 -129Z"  />
<glyph unicode="&#xFB01;" horiz-adv-x="1323" d="M1208 1350Q1208 1332 1196 1321T1167 1309H969Q953 1309 940 1320T926 1350V1530Q926 1546 939 1558T969 1571H1167Q1184 1571 1196 1559T1208 1530V1350ZM1202 43Q1202 25 1191 13T1161 0H973Q955 0 944 13T932 43V1114Q932 1131 943 1143T973 1155H1161Q1180 1155 1191 1144T1202 1114V43ZM764 1413Q764 1378 733 1378H641Q589 1378 565 1369T531 1332T520 1255V1155H717Q734 1155 746 1143T758 1114V991Q758 975 746 964T717 952H520V43Q520 25 509 13T479 0H293Q276 0 263 13T250 43V952L68 981Q27 988 27 1020V1114Q27 1131 38 1143T68 1155H250V1255Q250 1382 293 1454T412 1555T604 1583Q649 1583 727 1567Q764 1558 764 1534V1413Z"  />
<glyph unicode="&#xFB02;" horiz-adv-x="1325" d="M1202 43Q1202 26 1191 13T1163 0H973Q955 0 944 13T932 43V1518Q932 1533 944 1546T973 1559H1163Q1179 1559 1190 1547T1202 1518V43ZM764 1413Q764 1378 733 1378H641Q589 1378 565 1369T531 1332T520 1255V1155H717Q734 1155 746 1143T758 1114V991Q758 975 746 964T717 952H520V43Q520 25 509 13T479 0H293Q276 0 263 13T250 43V952L68 981Q27 988 27 1020V1114Q27 1131 38 1143T68 1155H250V1255Q250 1382 293 1454T412 1555T604 1583Q649 1583 727 1567Q764 1558 764 1534V1413Z"  />

</font>
</defs>
</svg>
