<?xml version="1.0" standalone="no"?>
<!DOCTYPE svg PUBLIC "-//W3C//DTD SVG 1.1//EN" "http://www.w3.org/Graphics/SVG/1.1/DTD/svg11.dtd" >
<svg xmlns="http://www.w3.org/2000/svg">
<metadata></metadata>
<defs>
<font id="urbano_lt_conditalic" horiz-adv-x="400" >
<font-face units-per-em="1000" ascent="800" descent="-200" />
<missing-glyph horiz-adv-x="187" />
<glyph unicode="&#xfb01;" horiz-adv-x="375" d="M-3 0l130 425h-59l12 42h60l31 101q20 66 43 88.5t70 22.5q14 0 47 -6l-12 -38q-22 4 -27 4q-30 0 -44 -16q-13 -14 -29 -68l-27 -88h76l-13 -42h-76l-130 -425h-52zM197 0l143 467h52l-143 -467h-52zM379 619l19 60h62l-18 -60h-63z" />
<glyph unicode="&#xfb02;" horiz-adv-x="373" d="M-3 0l130 425h-59l12 42h60l31 101q20 66 43 88.5t70 22.5q14 0 47 -6l-12 -38q-22 4 -27 4q-30 0 -44 -16q-13 -14 -29 -68l-27 -88h76l-13 -42h-76l-130 -425h-52zM197 0l207 677h52l-207 -677h-52z" />
<glyph horiz-adv-x="1000" />
<glyph horiz-adv-x="1000" />
<glyph unicode="&#xd;" horiz-adv-x="1000" />
<glyph unicode=" "  horiz-adv-x="187" />
<glyph unicode="&#x09;" horiz-adv-x="187" />
<glyph unicode="&#xa0;" horiz-adv-x="187" />
<glyph unicode="!" horiz-adv-x="197" d="M-10 0l23 73h77l-23 -73h-77zM52 144l148 523h71l-174 -523h-45z" />
<glyph unicode="&#x22;" horiz-adv-x="271" d="M140 667h54l-7 -267h-40zM264 667h54l-7 -267h-40z" />
<glyph unicode="#" horiz-adv-x="600" d="M79 217l5 45h116l25 155h-116l5 45h116l32 205h51l-32 -205h156l31 205h51l-32 -205h112l-4 -45h-113l-24 -155h112l-5 -45h-114l-33 -217h-52l33 217h-155l-33 -217h-50l34 217h-116zM252 262h155l23 155h-155z" />
<glyph unicode="$" d="M21 103q0 30 18 90h59q-22 -58 -22 -85q0 -25 14.5 -38t47.5 -18l84 274q-52 54 -66.5 78.5t-14.5 60.5q0 87 50 139.5t132 52.5l15 51h24l-15 -51q49 -10 71 -32.5t22 -62.5q0 -26 -14 -71h-57q16 51 16 73q0 39 -52 48l-75 -245q51 -49 67.5 -77t16.5 -66 q0 -48 -18.5 -95.5t-47.5 -75.5q-43 -40 -128 -47l-18 -59h-24l18 59q-103 19 -103 97zM162 52q56 4 84 41q41 51 41 124q0 27 -10 46t-37 44zM196 475q0 -26 9.5 -45t34.5 -44l69 226q-49 -1 -78 -39q-35 -47 -35 -98z" />
<glyph unicode="%" horiz-adv-x="564" d="M42 -31l496 739h42l-492 -739h-46zM93 401q0 22 23 100t40 115q30 61 99 61q34 0 55.5 -17.5t21.5 -46.5q0 -31 -27 -117.5t-45 -112.5q-33 -46 -91 -46q-34 0 -55 18t-21 46zM133 403q0 -16 11 -26t28 -10q41 0 60 41q16 36 38 110.5t22 94.5q0 16 -11 25t-30 9 q-38 0 -56 -40q-17 -38 -39.5 -112.5t-22.5 -91.5zM295 54q0 22 23 100t40 115q30 61 99 61q34 0 55.5 -17.5t21.5 -46.5q0 -31 -27 -117.5t-45 -112.5q-33 -46 -91 -46q-34 0 -55 18t-21 46zM335 56q0 -16 11 -26t28 -10q41 0 60 41q16 36 38 110.5t22 94.5q0 16 -11 25 t-30 9q-38 0 -56 -40q-17 -38 -39.5 -112.5t-22.5 -91.5z" />
<glyph unicode="&#x26;" horiz-adv-x="425" d="M16 110q0 51 21.5 110.5t50.5 87.5q37 36 113 41q-74 16 -74 91q0 49 22.5 104t55.5 87q36 36 121 36h93l-13 -43h-65q-46 0 -70 -8t-40 -29q-17 -21 -35 -75t-18 -84q0 -33 22.5 -47t77.5 -14h63l35 115h56l-35 -115h63l-13 -43h-64l-99 -324h-133q-65 0 -95 23 q-40 30 -40 87zM70 104q0 -33 20.5 -47t69.5 -14h81l87 281h-87q-72 0 -100 -28q-29 -29 -50 -86t-21 -106z" />
<glyph unicode="'" horiz-adv-x="147" d="M143 667h54l-7 -267h-40z" />
<glyph unicode="(" horiz-adv-x="237" d="M26 -115q0 125 17 268q15 117 65 227.5t171 296.5h42q-145 -249 -194 -409.5t-59 -418.5h-42v36z" />
<glyph unicode=")" horiz-adv-x="237" d="M-63 -151q145 249 194 409.5t59 418.5h41q1 -15 1 -36q0 -269 -52 -420q-46 -135 -202 -372h-41z" />
<glyph unicode="*" d="M180 598l24 35l79 -59l31 98l38 -12l-30 -97h97v-40l-96 -1l37 -97l-36 -14l-37 95l-82 -61l-22 34l77 57z" />
<glyph unicode="+" d="M68 319v48h143v140h48v-140h142v-48h-142v-139h-48v139h-143z" />
<glyph unicode="," horiz-adv-x="180" d="M-45 -72l60 145h70l-86 -145h-44z" />
<glyph unicode="-" horiz-adv-x="148" d="M1 232l12 41h149l-13 -41h-148z" />
<glyph unicode="." horiz-adv-x="180" d="M-19 0l23 73h77l-22 -73h-78z" />
<glyph unicode="/" horiz-adv-x="278" d="M-80 -121l426 798h39l-425 -798h-40z" />
<glyph unicode="0" d="M18 97q0 34 26 117l86 281q34 111 76 145q43 37 109 37q61 0 96 -28t35 -77q0 -33 -30 -133l-95 -312q-41 -137 -171 -137q-64 0 -98 27.5t-34 79.5zM73 97q0 -30 21.5 -47t58.5 -17q46 0 73.5 26t46.5 89l93 305q25 82 25 119q0 28 -21 45t-56 17q-60 0 -88 -42 q-19 -26 -45 -111l-86 -282q-22 -71 -22 -102z" />
<glyph unicode="1" d="M135 0l185 606q-39 -44 -112 -66l17 54q70 36 121 83h51l-207 -677h-55z" />
<glyph unicode="2" d="M-22 0l14 44l295 338q98 111 98 192q0 28 -18.5 44t-51.5 16q-55 0 -84 -40q-20 -28 -36 -91h-56q23 93 56 129q44 45 121 45q58 0 91 -26.5t33 -71.5q0 -105 -115 -232l-272 -303h243l-13 -44h-305z" />
<glyph unicode="3" d="M11 90q0 33 21 98h57l-3 -12q-5 -22 -10 -39.5t-6.5 -23t-2.5 -11t-1 -11.5q0 -28 20 -43t57 -15q56 0 86 44q21 32 40.5 96t19.5 103q0 33 -30 46q-18 7 -68 8l14 46q7 -1 16 -1q82 0 115 58q9 15 16.5 34t13 38.5t9 38.5t3.5 33q0 26 -18.5 41.5t-49.5 15.5 q-19 0 -34 -4.5t-26.5 -14t-19.5 -20t-15.5 -27.5t-12.5 -30.5t-11 -34.5h-55q19 91 61 132.5t116 41.5q120 0 120 -97q0 -49 -21.5 -107t-50.5 -86q-36 -33 -86 -36q38 -13 53.5 -32t15.5 -52q0 -48 -23 -120.5t-48 -100.5q-49 -56 -136 -56q-59 0 -92.5 27t-33.5 73z" />
<glyph unicode="4" d="M5 182l13 44l328 451h94l-138 -451h79l-14 -44h-78l-56 -182h-55l56 182h-229zM79 226h168l122 400z" />
<glyph unicode="5" d="M24 91q0 38 21 94h56q-22 -69 -22 -95t19 -41.5t52 -15.5q69 0 103 65q20 41 42 117t22 108q0 28 -18.5 43.5t-51.5 15.5q-38 0 -63.5 -20t-45.5 -66h-58l121 371h256l-13 -44h-204l-79 -241q28 24 49.5 33.5t51.5 9.5q51 0 80.5 -26t29.5 -70q0 -40 -24 -127t-46 -126 q-50 -86 -152 -86q-60 0 -93 26.5t-33 74.5z" />
<glyph unicode="6" d="M25 96q0 45 20 110l103 335q20 65 64.5 100.5t106.5 35.5q55 0 87 -26t32 -70q0 -29 -12 -77h-54q11 50 11 74q0 26 -17 41t-48 15q-87 0 -123 -118l-47 -154q46 47 103 47q49 0 79.5 -26t30.5 -68t-23.5 -126.5t-46.5 -123.5q-45 -75 -144 -75q-58 0 -90 28t-32 78z M80 97q0 -30 18 -47t50 -17q68 0 98 59q19 37 39.5 110t20.5 104q0 60 -70 60q-66 0 -95 -53q-21 -40 -41 -111t-20 -105z" />
<glyph unicode="7" d="M51 0l349 623h-219l14 44h278l-13 -44l-345 -623h-64z" />
<glyph unicode="8" d="M21 91q0 41 20.5 110t42.5 100q17 24 37 36t57 19q-51 25 -51 76q0 36 17 90t39 90q41 65 130 65q121 0 121 -100q0 -37 -14.5 -86.5t-34.5 -80.5q-16 -25 -36 -38t-57 -22q33 -14 45.5 -30.5t12.5 -44.5q0 -38 -15 -96.5t-36 -100.5q-44 -88 -151 -88q-59 0 -93 27 t-34 74zM76 95q0 -62 72 -62q74 0 104 73q17 42 30 94.5t13 78.5t-20 40.5t-55 14.5q-59 0 -86 -48q-20 -34 -39 -96.5t-19 -94.5zM182 426q0 -25 18.5 -39t50.5 -14q37 0 60.5 21t41.5 69q26 73 26 114q0 26 -18 41.5t-48 15.5q-59 0 -89 -58q-16 -31 -29 -77.5t-13 -72.5z " />
<glyph unicode="9" d="M19 82q0 33 22 103h57q-24 -75 -24 -97q0 -55 73 -55q45 0 74 27.5t47 87.5l48 159q-45 -44 -103 -44q-49 0 -79 26.5t-30 69.5q0 46 29 135t55 125q42 58 130 58q56 0 91 -28t35 -72q0 -34 -28 -125l-102 -328q-20 -65 -65.5 -99.5t-109.5 -34.5q-54 0 -87 25.5 t-33 66.5zM159 363q0 -26 17.5 -41.5t47.5 -15.5q33 0 61.5 16t41.5 42q16 31 39 107t23 99q0 29 -19.5 46.5t-52.5 17.5q-61 0 -90 -53q-21 -40 -44.5 -114.5t-23.5 -103.5z" />
<glyph unicode=":" horiz-adv-x="180" d="M-19 0l23 73h77l-22 -73h-78zM101 394l23 73h78l-23 -73h-78z" />
<glyph unicode=";" horiz-adv-x="180" d="M-45 -72l60 145h70l-86 -145h-44zM101 394l23 73h77l-22 -73h-78z" />
<glyph unicode="&#x3c;" horiz-adv-x="500" d="M33 311v49l433 197v-55l-373 -166l373 -167v-55z" />
<glyph unicode="=" d="M68 273v48h333v-48h-333zM68 366v48h333v-48h-333z" />
<glyph unicode="&#x3e;" horiz-adv-x="500" d="M34 114v55l373 167l-373 166v55l433 -197v-49z" />
<glyph unicode="?" horiz-adv-x="305" d="M49 0l23 73h78l-23 -73h-78zM108 151q17 80 29.5 109t46.5 68q60 69 88 118q20 32 33.5 72t13.5 67q0 22 -13.5 34t-37.5 12q-52 0 -76 -53q-7 -15 -24 -76h-57q26 96 52 130q37 45 109 45q46 0 73.5 -23t27.5 -61q0 -52 -30 -124q-14 -33 -28 -53t-71 -87 q-41 -48 -53.5 -67t-19.5 -42q-12 -37 -18 -69h-45z" />
<glyph unicode="@" horiz-adv-x="757" d="M66 246q0 145 100.5 244.5t246.5 99.5q136 0 226.5 -84.5t90.5 -212.5q0 -95 -49 -167t-114 -72q-31 0 -51 19.5t-21 52.5q-47 -74 -125 -74q-62 0 -101 45.5t-39 117.5q0 86 51 145t124 59q87 0 116 -87l14 74h39l-43 -219q-6 -27 -6 -49q0 -23 12 -37t33 -14 q49 0 86.5 62.5t37.5 142.5q0 115 -79 189t-202 74q-130 0 -219 -89.5t-89 -219.5q0 -128 84 -217q89 -93 237 -93q110 0 219 53l13 -34q-111 -55 -232 -55q-162 0 -262 100q-46 47 -72 112t-26 134zM273 215q0 -56 29 -90.5t75 -34.5q54 0 90 51t36 128q0 51 -25.5 80.5 t-69.5 29.5q-56 0 -95.5 -48.5t-39.5 -115.5z" />
<glyph unicode="A" horiz-adv-x="432" d="M-50 0l368 672h78l-37 -672h-59l13 186h-202l-101 -186h-60zM137 231h178l24 376z" />
<glyph unicode="B" horiz-adv-x="427" d="M-6 0l204 667h142q58 0 89 -28.5t31 -81.5q0 -44 -16 -90t-40 -73q-23 -24 -47.5 -35.5t-66.5 -16.5q84 -15 84 -89q0 -53 -22 -115.5t-52 -94.5q-40 -43 -160 -43h-146zM65 45h84q89 0 119 47q20 31 35 82t15 87q0 63 -81 63h-87zM163 367h86q81 0 113 56 q17 28 29.5 67.5t12.5 65.5q0 31 -18 48.5t-50 17.5h-95z" />
<glyph unicode="C" horiz-adv-x="382" d="M16 87q0 42 27 130l72 237q42 138 81 177q46 46 124 46q61 0 94 -26.5t33 -75.5q0 -32 -16 -84h-59q19 62 19 84q0 26 -19 40.5t-54 14.5q-66 0 -97 -49q-14 -22 -22.5 -45t-33.5 -105l-72 -237q-21 -71 -21 -106q0 -24 20 -37.5t56 -13.5q49 0 76 30t52 111h59 q-17 -58 -28.5 -84t-29.5 -48q-47 -56 -133 -56q-60 0 -94 25.5t-34 71.5z" />
<glyph unicode="D" horiz-adv-x="438" d="M-7 0l204 667h129q80 0 111 -26q36 -30 36 -82q0 -48 -44 -201q-61 -217 -104 -283q-26 -40 -70 -57.5t-117 -17.5h-145zM64 45h71q56 0 85.5 9.5t50.5 35.5q27 34 85 223q61 201 61 244q0 65 -91 65h-86z" />
<glyph unicode="E" horiz-adv-x="370" d="M-6 0l204 667h259l-13 -45h-203l-78 -255h194l-14 -43h-193l-85 -279h213l-14 -45h-270z" />
<glyph unicode="F" horiz-adv-x="349" d="M-6 0l204 667h256l-14 -45h-199l-78 -255h194l-14 -43h-193l-99 -324h-57z" />
<glyph unicode="G" horiz-adv-x="413" d="M24 110q0 43 31 147l74 242q33 108 82 143t121 35q61 0 94.5 -27.5t33.5 -76.5q0 -22 -12 -74h-59q15 56 15 74q0 27 -21 42t-58 15q-56 0 -87.5 -32.5t-57.5 -117.5l-74 -244q-26 -87 -26 -125q0 -74 93 -74q41 0 80 16l70 231h-82l13 45h143l-95 -309q-78 -30 -140 -30 q-65 0 -101.5 32t-36.5 88z" />
<glyph unicode="H" horiz-adv-x="448" d="M-7 0l204 667h57l-92 -300h207l92 300h57l-204 -667h-57l99 324h-207l-99 -324h-57z" />
<glyph unicode="I" horiz-adv-x="184" d="M-6 0l205 672h57l-205 -672h-57z" />
<glyph unicode="J" horiz-adv-x="351" d="M-31 81q0 41 18 89h59q-21 -61 -21 -84q0 -49 69 -49q53 0 77 35q25 39 50 122l144 473h57l-155 -508q-31 -102 -63 -133q-40 -36 -116 -36q-58 0 -88.5 23.5t-30.5 67.5z" />
<glyph unicode="K" d="M-7 0l204 667h57l-204 -667h-57zM169 359l271 308h68l-280 -311l99 -356h-61z" />
<glyph unicode="L" horiz-adv-x="334" d="M-6 0l204 667h57l-190 -622h210l-14 -45h-267z" />
<glyph unicode="M" horiz-adv-x="618" d="M-7 0l204 667h99l-36 -592q14 38 53 108l266 484h102l-197 -667h-57l186 620l-345 -620h-64l35 620l-189 -620h-57z" />
<glyph unicode="N" horiz-adv-x="468" d="M-7 0l204 667h89l17 -608q9 53 46 175l132 433h57l-204 -667h-84l-19 618q-23 -102 -47 -181l-134 -437h-57z" />
<glyph unicode="O" horiz-adv-x="420" d="M16 88q0 45 15 92l97 318q19 61 38 93t48 52q49 34 117 34q61 0 98 -30t37 -79q0 -38 -32 -141l-74 -240q-26 -83 -48 -119t-61 -56q-42 -22 -99 -22q-65 0 -100.5 26t-35.5 72zM72 100q0 -30 23 -46.5t64 -16.5q51 0 85 31q33 30 63 129l76 249q27 89 27 123 q0 28 -23.5 44.5t-61.5 16.5q-53 0 -85 -29q-32 -27 -59 -118l-98 -319q-11 -37 -11 -64z" />
<glyph unicode="P" horiz-adv-x="403" d="M-6 0l204 667h125q69 0 100 -21q39 -28 39 -79q0 -53 -25 -120.5t-56 -95.5q-46 -43 -151 -43h-85l-94 -308h-57zM159 353h64q45 0 62 3t36 13q39 20 66 97q19 57 19 92t-18.5 49.5t-64.5 14.5h-82z" />
<glyph unicode="Q" horiz-adv-x="424" d="M16 93q0 37 16 88l101 329q30 99 83 135q48 32 115 32q61 0 97.5 -31t36.5 -82q0 -34 -15 -83l-99 -324q-31 -100 -98 -122l-1 -6q49 12 95 12h23l-14 -46q-45 3 -87 3q-34 0 -93 -6q-32 -2 -37 -2q-58 0 -90.5 27t-32.5 76zM72 96q0 -59 81 -59q58 0 90.5 31.5 t57.5 111.5l96 314q12 38 12 69q0 30 -23.5 48.5t-61.5 18.5q-53 0 -85 -31t-54 -105l-105 -343q-8 -26 -8 -55z" />
<glyph unicode="R" horiz-adv-x="434" d="M-7 0l204 667h151q57 0 89 -29t32 -79q0 -46 -17 -91.5t-46 -75.5q-17 -19 -38 -28.5t-63 -17.5q40 -10 56.5 -26t16.5 -44q0 -29 -9 -58l-45 -147q-8 -26 -8 -49q0 -12 1 -22h-59q1 48 8 69l46 151q10 32 10 56q0 27 -18 37.5t-62 10.5h-93l-99 -324h-57zM162 367h74 q89 0 124 44q20 26 36.5 72t16.5 77q0 62 -82 62h-91z" />
<glyph unicode="S" horiz-adv-x="391" d="M10 94q0 24 17 91h61q-22 -60 -22 -92q0 -26 19.5 -41t53.5 -15q56 0 92 33q24 21 40 61.5t16 79.5q0 41 -38 85q-13 15 -60 61q-59 58 -59 121q0 34 13.5 73t34.5 65q49 61 135 61q62 0 95.5 -26t33.5 -74q0 -25 -15 -74h-59q18 49 18 75q0 23 -19.5 37.5t-51.5 14.5 q-53 0 -91 -43t-38 -103q0 -29 13.5 -50t59.5 -67q43 -43 56 -62q28 -41 28 -91q0 -49 -19 -97.5t-50 -77.5q-52 -49 -140 -49q-58 0 -91 27.5t-33 76.5z" />
<glyph unicode="T" horiz-adv-x="360" d="M82 0l190 622h-149l14 45h353l-14 -45h-147l-190 -622h-57z" />
<glyph unicode="U" horiz-adv-x="453" d="M31 90q0 29 17 86l150 491h57l-156 -509q-12 -41 -12 -62q0 -27 21 -43t58 -16q51 0 91 32q20 17 33 44t36 103l138 451h57l-143 -469q-26 -83 -44.5 -117t-52.5 -56q-51 -35 -117 -35q-61 0 -97 27t-36 73z" />
<glyph unicode="V" horiz-adv-x="393" d="M91 0l51 667h59l-53 -605l301 605h61l-341 -667h-78z" />
<glyph unicode="W" horiz-adv-x="644" d="M69 0l73 667h54l-69 -603l276 603h83l-79 -611l287 611h58l-322 -667h-80l81 615l-281 -615h-81z" />
<glyph unicode="X" horiz-adv-x="393" d="M-67 0l267 359l-53 308h58l44 -256l194 256h63l-246 -321l60 -346h-57l-50 293l-219 -293h-61z" />
<glyph unicode="Y" horiz-adv-x="378" d="M87 0l89 290l-39 377h57l31 -313l214 313h59l-269 -389l-85 -278h-57z" />
<glyph unicode="Z" horiz-adv-x="387" d="M-33 0l18 58l407 564h-235l14 45h303l-14 -45l-419 -577h257l-14 -45h-317z" />
<glyph unicode="[" horiz-adv-x="287" d="M-50 -151l253 828h193l-14 -46h-138l-225 -737h145l-14 -45h-200z" />
<glyph unicode="\" horiz-adv-x="482" d="M146 677h37l225 -798h-36z" />
<glyph unicode="]" horiz-adv-x="287" d="M-89 -151l14 46h138l226 737h-146l14 45h200l-253 -828h-193z" />
<glyph unicode="^" horiz-adv-x="500" d="M32 375l182 293h73l182 -293h-62l-158 250l-156 -250h-61z" />
<glyph unicode="_" horiz-adv-x="500" d="M0 -71h500v-52h-500v52z" />
<glyph unicode="`" horiz-adv-x="500" d="M224 647h73l65 -121h-49z" />
<glyph unicode="a" horiz-adv-x="353" d="M7 70q0 45 22.5 98t51.5 76q36 28 96 34q17 1 75 2q5 0 12 1q28 92 28 112q0 18 -13 28.5t-36 10.5q-34 0 -60.5 -25.5t-37.5 -69.5h-51q35 135 154 135q44 0 70.5 -20t26.5 -53q0 -26 -10 -56l-105 -343h-46l18 59q-31 -35 -57.5 -49.5t-58.5 -14.5q-37 0 -58 20t-21 55 zM60 77q0 -20 13 -31t35 -11q25 0 50 18t43 49q14 25 20.5 43t29.5 95q-14 1 -32 1q-87 0 -119 -48q-15 -22 -27.5 -59t-12.5 -57z" />
<glyph unicode="b" horiz-adv-x="356" d="M-16 0l207 677h52l-81 -264q30 32 55 45.5t56 13.5q37 0 60 -19t23 -49q0 -29 -31 -137.5t-58 -172.5q-41 -99 -132 -99q-30 0 -50 10.5t-40 37.5l-13 -43h-48zM68 84q0 -22 17 -35.5t44 -13.5q37 0 61 25t44 83q69 207 69 249q0 18 -13.5 29t-36.5 11q-36 0 -67 -28 t-50 -79q-2 -4 -48 -156q-20 -66 -20 -85z" />
<glyph unicode="c" horiz-adv-x="302" d="M8 72q0 31 14 76l19 67q47 169 79 207q41 50 116 50q43 0 66 -18.5t23 -53.5q0 -29 -12 -69h-51q4 20 4 22q6 24 6 40q0 18 -12 28.5t-32 10.5q-33 0 -54 -19.5t-39 -66.5q-23 -60 -48.5 -152t-25.5 -114q0 -20 13.5 -32.5t36.5 -12.5q68 0 92 102h51q-21 -78 -55 -110 t-97 -32q-44 0 -69 20.5t-25 56.5z" />
<glyph unicode="d" horiz-adv-x="354" d="M4 66q0 42 50 192q28 85 43.5 119.5t36.5 56.5q36 38 87 38q55 0 87 -47l78 252h52l-207 -677h-48l14 48q-59 -53 -116 -53q-35 0 -56 19t-21 52zM57 74q0 -39 48 -39q54 0 88 56q20 32 57 143t39 144q2 24 -15 39t-45 15q-39 0 -60 -27.5t-53 -117.5q-59 -166 -59 -213z " />
<glyph unicode="e" horiz-adv-x="336" d="M6 66q0 39 39 170t63 171q40 69 122 69q49 0 77 -19t28 -52q0 -32 -47 -193h-194q-35 -97 -35 -137q0 -19 14.5 -29.5t38.5 -10.5q69 0 97 98h54q-21 -74 -56.5 -106t-98.5 -32q-49 0 -75.5 18.5t-26.5 52.5zM106 254h141q35 107 35 141q0 18 -14.5 29.5t-37.5 11.5 q-42 0 -66 -32q-24 -31 -58 -150z" />
<glyph unicode="f" horiz-adv-x="200" d="M-3 0l130 425h-59l12 42h60l31 101q20 66 43 88.5t70 22.5q14 0 47 -6l-12 -38q-22 4 -27 4q-30 0 -44 -16q-13 -14 -29 -68l-27 -88h76l-13 -42h-76l-130 -425h-52z" />
<glyph unicode="g" horiz-adv-x="353" d="M-38 -105q0 18 5 37h53q-5 -15 -5 -27q0 -40 52 -40q41 0 67 30q17 21 45 109l18 58q-48 -51 -101 -51q-40 0 -62.5 20.5t-22.5 56.5q0 30 24.5 117.5t53.5 159.5q15 38 26 55t28 30q32 22 72 22q64 0 97 -45l13 40h48l-142 -464q-20 -66 -35 -96t-37 -51 q-38 -36 -104 -36q-43 0 -68 20t-25 55zM64 94q0 -43 46 -43q55 0 88 57q23 40 55.5 136t36.5 135q2 23 -15 38t-45 15q-38 0 -62.5 -29.5t-46.5 -99.5q-57 -181 -57 -209z" />
<glyph unicode="h" horiz-adv-x="358" d="M-16 0l207 677h52l-82 -267q45 63 113 63q34 0 54.5 -19t20.5 -50q0 -32 -22 -102l-92 -302h-52l89 294q24 80 24 100q0 18 -11 28.5t-30 10.5q-87 0 -137 -163l-82 -270h-52z" />
<glyph unicode="i" horiz-adv-x="169" d="M-9 0l143 467h52l-143 -467h-52zM173 619l18 60h63l-19 -60h-62z" />
<glyph unicode="j" horiz-adv-x="162" d="M-127 -174l11 37q36 -1 50 12t29 62l163 530h52l-167 -546q-17 -56 -39.5 -77t-63.5 -21q-10 0 -35 3zM165 619l18 60h63l-19 -60h-62z" />
<glyph unicode="k" horiz-adv-x="316" d="M-17 0l207 677h52l-207 -677h-52zM126 271l173 196h62l-185 -199l75 -268h-59z" />
<glyph unicode="l" horiz-adv-x="159" d="M-16 0l207 677h52l-207 -677h-52z" />
<glyph unicode="m" horiz-adv-x="552" d="M-16 0l143 467h48l-16 -52q35 33 58.5 45t51.5 12q32 0 53.5 -20t21.5 -48v-4q52 72 119 72q36 0 59 -19t23 -48t-23 -103l-93 -302h-52l96 314q19 61 19 81q0 37 -44 37q-40 0 -71.5 -33t-50.5 -94l-93 -305h-52l97 318q17 55 17 74t-12 29.5t-33 10.5q-81 0 -121 -129 l-93 -303h-52z" />
<glyph unicode="n" horiz-adv-x="361" d="M-16 0l143 467h48l-19 -62q33 37 59.5 52t57.5 15q36 0 58.5 -18t22.5 -46t-22 -100l-94 -308h-52l97 319q18 58 18 75t-11.5 27.5t-31.5 10.5q-47 0 -81 -39q-32 -36 -62 -133l-79 -260h-52z" />
<glyph unicode="o" horiz-adv-x="351" d="M6 76q0 33 38 156.5t61 165.5q41 74 130 74q53 0 82.5 -20.5t29.5 -57.5q0 -44 -52 -204q-28 -88 -42 -117t-38 -47q-41 -31 -97 -31q-51 0 -81.5 22t-30.5 59zM59 82q0 -47 62 -47q45 0 72.5 37t53.5 133q13 52 31 107q16 45 16 76q0 20 -16 32t-43 12q-37 0 -59.5 -19 t-41.5 -68q-20 -50 -47.5 -146.5t-27.5 -116.5z" />
<glyph unicode="p" horiz-adv-x="357" d="M-70 -173l196 640h48l-18 -59q34 35 59.5 49.5t56.5 14.5q38 0 60 -19.5t22 -53.5q0 -23 -19.5 -96t-44.5 -145q-23 -68 -40.5 -97t-45.5 -46q-32 -20 -71 -20q-56 0 -84 49l-67 -217h-52zM67 83q0 -22 16 -35t42 -13q54 0 81 54q22 42 58.5 157.5t36.5 141.5 q0 44 -49 44q-54 0 -91 -63q-15 -23 -24 -48t-39 -116q-31 -96 -31 -122z" />
<glyph unicode="q" horiz-adv-x="356" d="M5 71q0 31 31 132t62 174q40 95 128 95q61 0 86 -55l15 50h48l-197 -645h-52l72 234q-32 -35 -56 -48t-55 -13q-36 0 -59 21t-23 55zM58 77q0 -17 14.5 -29.5t34.5 -12.5q65 0 116 116q19 43 42.5 122.5t23.5 101.5q0 26 -16 41.5t-43 15.5q-33 0 -55 -23.5t-45 -83.5 q-21 -56 -46.5 -143t-25.5 -105z" />
<glyph unicode="r" horiz-adv-x="220" d="M-16 0l143 467h48l-25 -81q25 44 50.5 63t60.5 19h11l-15 -51q-4 1 -10 1q-44 0 -77.5 -44.5t-64.5 -147.5l-69 -226h-52z" />
<glyph unicode="s" horiz-adv-x="301" d="M-10 68q0 24 17 74h53q-16 -55 -16 -67q0 -40 45 -40q53 0 78 45q23 42 23 74q0 17 -10 31t-37 34q-43 32 -57.5 52t-14.5 49q0 33 14.5 67.5t36.5 53.5q37 31 93 31q43 0 68.5 -19t25.5 -51q0 -19 -13 -67h-54q14 49 14 62q0 35 -43 35q-39 0 -60 -29q-29 -40 -29 -76 q0 -17 11.5 -32.5t42.5 -38.5q38 -30 51.5 -49.5t13.5 -45.5q0 -32 -15 -68.5t-37 -59.5q-38 -38 -108 -38q-93 0 -93 73z" />
<glyph unicode="t" horiz-adv-x="221" d="M30 53q0 10 14 55l97 317h-62l12 42h63l18 59l58 20l-24 -79h67l-13 -42h-67l-98 -319q-8 -25 -8 -40q0 -32 52 -32h19l-11 -36q-11 -2 -26 -2q-52 0 -69 12q-22 16 -22 45z" />
<glyph unicode="u" horiz-adv-x="357" d="M11 59q0 30 21 101l94 307h52l-99 -323q-15 -50 -15 -71q0 -17 11.5 -27.5t30.5 -10.5q49 0 86 50q25 32 50 112l82 270h52l-143 -467h-48l20 65q-33 -41 -58 -55.5t-63 -14.5q-73 0 -73 64z" />
<glyph unicode="v" horiz-adv-x="307" d="M47 0l39 467h50l-37 -413l210 413h51l-238 -467h-75z" />
<glyph unicode="w" horiz-adv-x="525" d="M38 0l48 467h54l-46 -396l200 396h72l-38 -402l199 402h51l-232 -467h-74l40 403l-201 -403h-73z" />
<glyph unicode="x" horiz-adv-x="281" d="M-65 0l183 258l-25 209h49l20 -161l113 161h54l-159 -226l32 -241h-53l-21 195l-137 -195h-56z" />
<glyph unicode="y" horiz-adv-x="300" d="M-32 -173l96 175l17 465h50l-22 -383l198 383h46l-333 -640h-52z" />
<glyph unicode="z" horiz-adv-x="263" d="M-45 0l13 44l270 387h-152l10 36h207l-15 -48l-268 -383h164l-11 -36h-218z" />
<glyph unicode="{" horiz-adv-x="287" d="M-1 -78q0 24 15 76l45 150q9 31 9 49q0 34 -37 47l12 39q35 10 54 30.5t32 62.5l51 166q22 70 63 102.5t107 32.5h15l-12 -42q-53 -1 -79.5 -21.5t-42.5 -72.5l-52 -167q-15 -48 -34.5 -73t-54.5 -39q31 -20 31 -55q0 -25 -11 -60l-48 -158q-11 -37 -11 -53 q0 -23 17 -33.5t57 -11.5l-13 -42h-12q-101 0 -101 73z" />
<glyph unicode="|" horiz-adv-x="500" d="M223 -167v834h55v-834h-55z" />
<glyph unicode="}" horiz-adv-x="287" d="M-58 -150l13 41q53 2 79.5 22t42.5 72l51 167q15 48 34.5 73t54.5 39q-31 20 -31 55q0 22 11 60l49 158q10 30 10 53t-17 33.5t-57 12.5l13 41h13q100 0 100 -72q0 -33 -14 -77l-46 -150q-9 -29 -9 -49q0 -34 37 -47l-12 -38q-35 -11 -54 -31.5t-32 -62.5l-50 -166 q-21 -70 -62.5 -102.5t-108.5 -32.5q-8 0 -15 1z" />
<glyph unicode="~" horiz-adv-x="667" d="M94 612q31 59 61 83t72 24q39 0 114 -38q71 -35 101 -35q29 0 50.5 17t45.5 58l35 -21q-54 -106 -138 -106q-21 0 -44.5 9t-93.5 42q-45 22 -74 22q-52 0 -95 -77z" />
<glyph unicode="&#xa1;" horiz-adv-x="197" d="M-71 -200l175 523h44l-148 -523h-71zM110 394l23 73h77l-23 -73h-77z" />
<glyph unicode="&#xa2;" d="M78 172q0 35 36 157.5t59 166.5q35 69 124 75l22 70h24l-22 -70q72 -10 72 -71q0 -27 -13 -69h-50q0 4 1 9t1.5 8.5t0.5 4.5q5 25 5 40q0 29 -29 38l-122 -397q61 5 84 103h51q-20 -77 -52.5 -108.5t-94.5 -33.5l-24 -78h-24l25 79q-34 4 -54 24t-20 52zM133 179 q0 -34 31 -43l121 394q-29 -5 -46 -23t-33 -61q-22 -59 -47.5 -151.5t-25.5 -115.5z" />
<glyph unicode="&#xa3;" d="M-40 0l13 44h65l93 305h-75l13 44h75l32 104q20 66 28.5 86t26.5 40q48 54 128 54q59 0 95 -29t36 -78q0 -23 -15 -73h-53q13 36 13 62q0 32 -22 50t-62 18q-55 0 -83 -40q-19 -30 -44 -112l-25 -82h133l-14 -44h-132l-93 -305h266l-14 -44h-385z" />
<glyph unicode="&#xa4;" horiz-adv-x="667" d="M104 587l29 30l92 -92q69 55 146 55q76 0 145 -54l92 90l29 -29l-91 -91q53 -69 53 -144q0 -77 -53 -143l92 -92l-29 -29l-92 92q-66 -53 -145 -53q-74 0 -145 52l-91 -91l-29 29l90 92q-54 66 -54 144q0 75 54 143zM190 353q0 -75 53 -128t128 -53t128 53t53 128 q0 74 -53 128t-126 54q-76 0 -129.5 -53t-53.5 -129z" />
<glyph unicode="&#xa5;" d="M54 265l13 44h121l-3 60h-99l13 44h81l-26 254h57l29 -310l213 310h61l-178 -254h87l-13 -44h-105l-39 -60h126l-14 -44h-139l-81 -265h-55l81 265h-130z" />
<glyph unicode="&#xa6;" horiz-adv-x="500" d="M223 153h55v-320h-55v320zM223 338v329h55v-329h-55z" />
<glyph unicode="&#xa7;" d="M-5 -12l27 46q88 -57 149 -57q49 0 79.5 27t30.5 70q0 36 -23 62t-87 60q-63 34 -87.5 63t-24.5 68q0 40 20 70.5t66 61.5q-33 37 -33 81q0 60 44 98.5t112 38.5q79 0 146 -52l-22 -46q-76 48 -131 48q-39 0 -65 -22.5t-26 -55.5q0 -34 31 -62q11 -9 82 -49 q56 -32 81 -63.5t25 -71.5q0 -41 -22.5 -76t-60.5 -53q33 -38 33 -88q0 -74 -46 -116.5t-125 -42.5t-173 61zM117 336q0 -21 13.5 -37.5t49.5 -39.5q18 -12 86 -51q65 40 65 87q0 38 -35 65q-19 15 -94 57l-16 10q-69 -48 -69 -91z" />
<glyph unicode="&#xa8;" horiz-adv-x="500" d="M254 551l18 60h63l-19 -60h-62zM379 551l19 60h62l-18 -60h-63z" />
<glyph unicode="&#xa9;" horiz-adv-x="773" d="M79 336q0 141 101 239.5t244 98.5q137 0 236 -100.5t99 -239.5q0 -141 -99.5 -241t-240.5 -100q-142 0 -241 100t-99 243zM119 336q0 -126 87.5 -214.5t212.5 -88.5q124 0 212 88.5t88 212.5q0 122 -87.5 211t-207.5 89q-138 0 -228 -100q-77 -85 -77 -198zM321 320v27 q0 118 8 141q17 50 92 50q50 0 74 -26q22 -23 22 -78v-14h-47l-1 11q0 43 -9 56q-13 15 -40 15q-38 0 -47 -32q-6 -23 -6 -123v-27q0 -100 6 -123q9 -32 47 -32q30 0 41 17q8 11 8 54l1 11h47v-14q0 -55 -22 -78q-24 -26 -74 -26q-75 0 -92 50q-8 23 -8 141z" />
<glyph unicode="&#xaa;" horiz-adv-x="279" d="M66 292l11 35h185l-11 -35h-185zM124 436q0 29 14 60.5t33 45.5q18 14 37.5 18t71.5 5q15 46 15 59q0 19 -26 19q-41 0 -54 -55h-41q21 89 101 89q28 0 45.5 -13t17.5 -34q0 -11 -6 -33l-63 -206h-38l7 23q-30 -26 -62 -26q-23 0 -37.5 13t-14.5 35zM167 443 q0 -22 26 -22q29 0 50 36q9 17 27 75h-15q-48 0 -66 -25q-22 -35 -22 -64z" />
<glyph unicode="&#xab;" horiz-adv-x="309" d="M45 0v256l143 211h41l-135 -223l-7 -244h-42zM161 0v256l142 211h42l-135 -223l-8 -244h-41z" />
<glyph unicode="&#xac;" horiz-adv-x="500" d="M33 215v51h433v-266h-55v215h-378z" />
<glyph unicode="&#xad;" horiz-adv-x="148" d="M1 232l12 41h149l-13 -41h-148z" />
<glyph unicode="&#xae;" horiz-adv-x="773" d="M79 336q0 141 101 239.5t244 98.5q137 0 236 -100.5t99 -239.5q0 -141 -99.5 -241t-240.5 -100q-142 0 -241 100t-99 243zM119 336q0 -126 87.5 -214.5t212.5 -88.5q124 0 212 88.5t88 212.5q0 122 -87.5 211t-207.5 89q-138 0 -228 -100q-77 -85 -77 -198zM318 133v400 h113q46 0 68 -25.5t22 -79.5q0 -39 -10 -58t-37 -30q25 -8 35 -25.5t10 -53.5v-128h-44v131q0 34 -13 46t-51 12h-49v-189h-44zM362 358h40q44 0 59 14.5t15 58.5q0 38 -13.5 52t-51.5 14h-49v-139z" />
<glyph unicode="&#xaf;" horiz-adv-x="500" d="M251 557l14 46h202l-14 -46h-202z" />
<glyph unicode="&#xb0;" horiz-adv-x="373" d="M149 545q0 55 39.5 93.5t96.5 38.5q53 0 92 -39.5t39 -93.5q0 -55 -39 -94.5t-94 -39.5q-56 0 -95 39.5t-39 95.5zM199 544q0 -35 24.5 -59.5t59.5 -24.5q34 0 58.5 25t24.5 59t-24.5 58.5t-57.5 24.5q-35 0 -60 -24.5t-25 -58.5z" />
<glyph unicode="&#xb1;" d="M32 79v48h333v-48h-333zM32 319v48h143v140h48v-140h142v-48h-142v-139h-48v139h-143z" />
<glyph unicode="&#xb2;" horiz-adv-x="264" d="M46 266l10 32l179 200q56 62 56 108q0 32 -39 32q-28 0 -41.5 -15.5t-25.5 -61.5h-44q15 62 36 83q27 29 78 29q37 0 58.5 -17t21.5 -45q0 -63 -70 -139l-156 -170h144l-11 -36h-196z" />
<glyph unicode="&#xb3;" horiz-adv-x="264" d="M66 324q0 22 14 63h45l-4 -12q-11 -38 -11 -48q0 -31 43 -31q31 0 47 22q12 18 23 55t11 59q0 16 -12 21.5t-49 6.5l11 37q6 -1 14 -1q46 0 64 30q24 42 24 81q0 31 -38 31q-26 0 -39.5 -15.5t-26.5 -61.5h-43q10 58 37.5 85t75.5 27q78 0 78 -61q0 -48 -27 -94 q-19 -31 -53 -42q28 -17 28 -48q0 -29 -14 -72t-29 -60q-31 -35 -88 -35q-37 0 -59 17t-22 46z" />
<glyph unicode="&#xb4;" horiz-adv-x="500" d="M319 526l89 121h74l-112 -121h-51z" />
<glyph unicode="&#xb5;" horiz-adv-x="357" d="M-70 -173l196 640h52l-99 -323q-15 -49 -15 -71q0 -17 11.5 -27.5t29.5 -10.5q48 0 87 50q24 32 49 112l83 270h52l-143 -467h-48l20 65q-33 -41 -58.5 -55.5t-62.5 -14.5q-31 0 -52 14l-50 -182h-52z" />
<glyph unicode="&#xb6;" d="M70 -120l132 432h-15q-49 0 -76 28t-27 79q0 54 25.5 109t67.5 91q55 48 149 48h182l-13 -40h-41l-228 -747h-45l228 747h-66l-229 -747h-44z" />
<glyph unicode="&#xb7;" horiz-adv-x="180" d="M44 207l23 73h77l-22 -73h-78z" />
<glyph unicode="&#xb8;" horiz-adv-x="500" d="M79 -176l87 122h45l-73 -122h-59z" />
<glyph unicode="&#xb9;" horiz-adv-x="264" d="M142 267l105 345q-22 -18 -65 -32l13 42q42 21 76 51h39l-124 -406h-44z" />
<glyph unicode="&#xba;" horiz-adv-x="279" d="M66 292l11 35h185l-11 -35h-185zM124 440q0 20 22.5 93t36.5 97q27 47 84 47q35 0 54 -13t19 -36q0 -18 -17.5 -79.5t-33.5 -101.5q-25 -59 -92 -59q-33 0 -53 14.5t-20 37.5zM167 445q0 -24 34 -24q25 0 40 20t29 74q13 47 18 63q9 24 9 43q0 23 -32 23q-21 0 -32.5 -10 t-22.5 -37q-11 -28 -27 -84t-16 -68z" />
<glyph unicode="&#xbb;" horiz-adv-x="308" d="M-33 0l135 223l8 244h41v-256l-142 -211h-42zM83 0l135 223l7 244h42l-1 -256l-142 -211h-41z" />
<glyph unicode="&#xbc;" horiz-adv-x="673" d="M142 267l105 345q-22 -18 -65 -32l13 42q42 21 76 51h39l-124 -406h-44zM174 0l366 667h43l-366 -667h-43zM389 107l9 32l200 267h65l-80 -263h48l-11 -36h-48l-33 -107h-43l32 107h-139zM449 143h90l63 204z" />
<glyph unicode="&#xbd;" horiz-adv-x="673" d="M142 267l105 345q-22 -18 -65 -32l13 42q42 21 76 51h39l-124 -406h-44zM164 0l366 667h43l-366 -667h-43zM373 0l11 32l178 199q57 63 57 108q0 32 -39 32q-28 0 -42 -15.5t-26 -61.5h-44q15 60 36 83q29 29 79 29q37 0 58.5 -17t21.5 -45q0 -63 -70 -139l-157 -169h144 l-11 -36h-196z" />
<glyph unicode="&#xbe;" horiz-adv-x="673" d="M66 324q0 22 14 63h45l-4 -12q-11 -38 -11 -48q0 -31 43 -31q31 0 47 22q12 18 23 55t11 59q0 16 -12 21.5t-49 6.5l11 37q6 -1 14 -1q46 0 64 30q24 42 24 81q0 31 -38 31q-26 0 -39.5 -15.5t-26.5 -61.5h-43q10 58 37.5 85t75.5 27q78 0 78 -61q0 -48 -27 -94 q-19 -31 -53 -42q28 -17 28 -48q0 -29 -14 -72t-29 -60q-31 -35 -88 -35q-37 0 -59 17t-22 46zM173 0l366 667h43l-365 -667h-44zM388 107l9 32l200 267h65l-80 -263h48l-11 -36h-48l-33 -107h-43l32 107h-139zM448 143h90l63 204z" />
<glyph unicode="&#xbf;" horiz-adv-x="299" d="M-72 -129q0 57 30 125q13 32 27 51t72 88q42 51 54 68.5t19 40.5q12 37 18 69h45q-16 -77 -29.5 -107t-46.5 -69q-57 -66 -89 -118q-46 -76 -46 -141q0 -20 14 -32.5t38 -12.5q51 0 75 53q8 20 24 77h57q-26 -97 -52 -130q-39 -45 -109 -45q-46 0 -73.5 22.5t-27.5 60.5z M152 394l23 73h78l-23 -73h-78z" />
<glyph unicode="&#xc0;" horiz-adv-x="432" d="M-50 0l368 672h78l-37 -672h-59l13 186h-202l-101 -186h-60zM137 231h178l24 376zM261 841h73l65 -120h-49z" />
<glyph unicode="&#xc1;" horiz-adv-x="432" d="M-50 0l368 672h78l-37 -672h-59l13 186h-202l-101 -186h-60zM137 231h178l24 376zM349 721l89 120h74l-112 -120h-51z" />
<glyph unicode="&#xc2;" horiz-adv-x="432" d="M-50 0l368 672h78l-37 -672h-59l13 186h-202l-101 -186h-60zM137 231h178l24 376zM264 721l110 122h63l47 -122h-51l-34 83l-92 -83h-43z" />
<glyph unicode="&#xc3;" horiz-adv-x="432" d="M-50 0l368 672h78l-37 -672h-59l13 186h-202l-101 -186h-60zM137 231h178l24 376zM275 743q20 83 75 83q14 0 23 -3.5t45 -24.5q15 -8 21 -8q22 0 36 37h42q-9 -40 -30 -63t-48 -23q-21 0 -66 26q-20 11 -26 11q-16 0 -30 -35h-42z" />
<glyph unicode="&#xc4;" horiz-adv-x="432" d="M-50 0l368 672h78l-37 -672h-59l13 186h-202l-101 -186h-60zM137 231h178l24 376zM284 742l18 63h65l-18 -63h-65zM416 742l18 63h65l-18 -63h-65z" />
<glyph unicode="&#xc5;" horiz-adv-x="432" d="M-50 0l368 672h78l-37 -672h-59l13 186h-202l-101 -186h-60zM137 231h178l24 376zM301 783q0 34 24 57.5t59 23.5q33 0 57 -24.5t24 -57.5q0 -34 -24 -58t-58 -24t-58 24.5t-24 58.5zM336 782q0 -20 14 -33.5t33 -13.5t33 13.5t14 33.5q0 19 -13.5 33t-32.5 14 q-20 0 -34 -13.5t-14 -33.5z" />
<glyph unicode="&#xc6;" horiz-adv-x="579" d="M-67 0l374 667h319l-14 -45h-220l-33 -255h201l-13 -43h-194l-37 -279h209l-13 -45h-257l26 197h-180l-108 -197h-60zM126 242h161l50 380z" />
<glyph unicode="&#xc7;" horiz-adv-x="382" d="M16 86q0 43 27 131l72 237q42 138 81 177q46 46 124 46q61 0 94 -26.5t33 -75.5q0 -32 -16 -84h-59q19 62 19 84q0 26 -19 40.5t-54 14.5q-66 0 -97 -49q-14 -22 -22.5 -45t-33.5 -105l-72 -237q-6 -20 -13.5 -57.5t-7.5 -48.5q0 -24 20 -37.5t56 -13.5q49 0 76.5 30 t52.5 111h58q-16 -57 -28 -83.5t-30 -48.5q-47 -56 -133 -56q-60 0 -94 25.5t-34 70.5zM28 -176l87 122h45l-72 -122h-60z" />
<glyph unicode="&#xc8;" horiz-adv-x="370" d="M-6 0l204 667h259l-13 -45h-203l-78 -255h194l-14 -43h-193l-85 -279h213l-14 -45h-270zM237 841h73l65 -120h-49z" />
<glyph unicode="&#xc9;" horiz-adv-x="370" d="M-6 0l204 667h259l-13 -45h-203l-78 -255h194l-14 -43h-193l-85 -279h213l-14 -45h-270zM318 721l89 120h74l-112 -120h-51z" />
<glyph unicode="&#xca;" horiz-adv-x="370" d="M-6 0l204 667h259l-13 -45h-203l-78 -255h194l-14 -43h-193l-85 -279h213l-14 -45h-270zM243 721l110 122h63l47 -122h-51l-34 83l-92 -83h-43z" />
<glyph unicode="&#xcb;" horiz-adv-x="370" d="M-6 0l204 667h259l-13 -45h-203l-78 -255h194l-14 -43h-193l-85 -279h213l-14 -45h-270zM259 742l18 63h65l-18 -63h-65zM391 742l18 63h65l-18 -63h-65z" />
<glyph unicode="&#xcc;" horiz-adv-x="184" d="M-6 0l205 672h57l-205 -672h-57zM139 841h69l59 -120h-49z" />
<glyph unicode="&#xcd;" horiz-adv-x="184" d="M-6 0l205 672h57l-205 -672h-57zM218 721l82 120h74l-104 -120h-52z" />
<glyph unicode="&#xce;" horiz-adv-x="184" d="M-6 0l205 672h57l-205 -672h-57zM150 721l100 122h64l36 -122h-51l-24 83l-82 -83h-43z" />
<glyph unicode="&#xcf;" horiz-adv-x="184" d="M-6 0l205 672h57l-205 -672h-57zM168 742l18 63h62l-18 -63h-62zM273 742l19 63h61l-18 -63h-62z" />
<glyph unicode="&#xd0;" horiz-adv-x="438" d="M-7 0l99 324h-60l13 43h60l92 300h129q80 0 111 -26q36 -30 36 -82q0 -46 -44 -201q-64 -221 -104 -283q-26 -40 -70 -57.5t-117 -17.5h-145zM64 45h71q56 0 85.5 9.5t50.5 35.5q27 33 85 223q61 199 61 244q0 65 -91 65h-86l-78 -255h120l-13 -43h-120z" />
<glyph unicode="&#xd1;" horiz-adv-x="468" d="M-7 0l204 667h89l17 -608q9 53 46 175l132 433h57l-204 -667h-84l-19 618q-23 -102 -47 -181l-134 -437h-57zM296 743q20 83 75 83q14 0 23 -3.5t45 -24.5q15 -8 21 -8q22 0 36 37h42q-9 -40 -30 -63t-48 -23q-20 0 -66 26q-20 11 -26 11q-16 0 -30 -35h-42z" />
<glyph unicode="&#xd2;" horiz-adv-x="420" d="M16 88q0 45 15 92l97 318q19 61 38 93t48 52q49 34 117 34q61 0 98 -30t37 -79q0 -38 -32 -141l-74 -240q-26 -83 -48 -119t-61 -56q-42 -22 -99 -22q-65 0 -100.5 26t-35.5 72zM72 100q0 -30 23 -46.5t64 -16.5q51 0 85 31q33 30 63 129l76 249q27 89 27 123 q0 28 -23.5 44.5t-61.5 16.5q-53 0 -85 -29q-32 -27 -59 -118l-98 -319q-11 -37 -11 -64zM251 841h73l65 -120h-49z" />
<glyph unicode="&#xd3;" horiz-adv-x="420" d="M16 88q0 45 15 92l97 318q19 61 38 93t48 52q49 34 117 34q61 0 98 -30t37 -79q0 -38 -32 -141l-74 -240q-26 -83 -48 -119t-61 -56q-42 -22 -99 -22q-65 0 -100.5 26t-35.5 72zM72 100q0 -30 23 -46.5t64 -16.5q51 0 85 31q33 30 63 129l76 249q27 89 27 123 q0 28 -23.5 44.5t-61.5 16.5q-53 0 -85 -29q-32 -27 -59 -118l-98 -319q-11 -37 -11 -64zM329 721l89 120h74l-112 -120h-51z" />
<glyph unicode="&#xd4;" horiz-adv-x="420" d="M16 88q0 45 15 92l97 318q19 61 38 93t48 52q49 34 117 34q61 0 98 -30t37 -79q0 -38 -32 -141l-74 -240q-26 -83 -48 -119t-61 -56q-42 -22 -99 -22q-65 0 -100.5 26t-35.5 72zM72 100q0 -30 23 -46.5t64 -16.5q51 0 85 31q33 30 63 129l76 249q27 89 27 123 q0 28 -23.5 44.5t-61.5 16.5q-53 0 -85 -29q-32 -27 -59 -118l-98 -319q-11 -37 -11 -64zM254 721l110 122h63l47 -122h-51l-34 83l-92 -83h-43z" />
<glyph unicode="&#xd5;" horiz-adv-x="420" d="M16 88q0 45 15 92l97 318q19 61 38 93t48 52q49 34 117 34q61 0 98 -30t37 -79q0 -38 -32 -141l-74 -240q-26 -83 -48 -119t-61 -56q-42 -22 -99 -22q-65 0 -100.5 26t-35.5 72zM72 100q0 -30 23 -46.5t64 -16.5q51 0 85 31q33 30 63 129l76 249q27 89 27 123 q0 28 -23.5 44.5t-61.5 16.5q-53 0 -85 -29q-32 -27 -59 -118l-98 -319q-11 -37 -11 -64zM276 743q20 83 75 83q14 0 23 -3.5t45 -24.5q15 -8 21 -8q22 0 36 37h42q-9 -40 -30 -63t-48 -23q-20 0 -66 26q-20 11 -26 11q-16 0 -30 -35h-42z" />
<glyph unicode="&#xd6;" horiz-adv-x="420" d="M16 88q0 45 15 92l97 318q19 61 38 93t48 52q49 34 117 34q61 0 98 -30t37 -79q0 -38 -32 -141l-74 -240q-26 -83 -48 -119t-61 -56q-42 -22 -99 -22q-65 0 -100.5 26t-35.5 72zM72 100q0 -30 23 -46.5t64 -16.5q51 0 85 31q33 30 63 129l76 249q27 89 27 123 q0 28 -23.5 44.5t-61.5 16.5q-53 0 -85 -29q-32 -27 -59 -118l-98 -319q-11 -37 -11 -64zM273 742l18 63h65l-18 -63h-65zM405 742l18 63h65l-18 -63h-65z" />
<glyph unicode="&#xd7;" d="M74 470l34 34l127 -127l124 125l34 -34l-124 -125l126 -126l-33 -34l-127 126l-125 -124l-34 34l125 124z" />
<glyph unicode="&#xd8;" horiz-adv-x="420" d="M-12 -23l42 62q-13 27 -13 50q0 38 15 91l97 318q19 62 37.5 93.5t48.5 51.5q49 34 117 34q57 0 96 -28l39 56l30 -22l-44 -64q14 -27 14 -51q0 -37 -32 -141l-74 -240q-26 -82 -48.5 -118.5t-61.5 -56.5q-41 -22 -98 -22q-54 0 -95 21l-40 -56zM72 83l319 526 q-25 21 -65 21q-52 0 -86 -29q-31 -28 -58 -118l-98 -319q-12 -38 -12 -72v-9zM95 54q25 -17 58 -17q46 0 78 20q24 16 40.5 46t35.5 94l76 249q27 88 27 129z" />
<glyph unicode="&#xd9;" horiz-adv-x="453" d="M31 90q0 29 17 86l150 491h57l-156 -509q-12 -41 -12 -62q0 -27 21 -43t58 -16q51 0 91 32q20 17 33 44t36 103l138 451h57l-143 -469q-26 -83 -44.5 -117t-52.5 -56q-51 -35 -117 -35q-61 0 -97 27t-36 73zM271 841h73l65 -120h-49z" />
<glyph unicode="&#xda;" horiz-adv-x="453" d="M31 90q0 29 17 86l150 491h57l-156 -509q-12 -41 -12 -62q0 -27 21 -43t58 -16q51 0 91 32q20 17 33 44t36 103l138 451h57l-143 -469q-26 -83 -44.5 -117t-52.5 -56q-51 -35 -117 -35q-61 0 -97 27t-36 73zM358 721l89 120h74l-112 -120h-51z" />
<glyph unicode="&#xdb;" horiz-adv-x="453" d="M31 90q0 29 17 86l150 491h57l-156 -509q-12 -41 -12 -62q0 -27 21 -43t58 -16q51 0 91 32q20 17 33 44t36 103l138 451h57l-143 -469q-26 -83 -44.5 -117t-52.5 -56q-51 -35 -117 -35q-61 0 -97 27t-36 73zM272 721l110 122h63l47 -122h-51l-34 83l-92 -83h-43z" />
<glyph unicode="&#xdc;" horiz-adv-x="453" d="M31 90q0 29 17 86l150 491h57l-156 -509q-12 -41 -12 -62q0 -27 21 -43t58 -16q51 0 91 32q20 17 33 44t36 103l138 451h57l-143 -469q-26 -83 -44.5 -117t-52.5 -56q-51 -35 -117 -35q-61 0 -97 27t-36 73zM299 742l18 63h65l-18 -63h-65zM431 742l18 63h65l-18 -63h-65 z" />
<glyph unicode="&#xdd;" horiz-adv-x="378" d="M87 0l89 290l-39 377h57l31 -313l214 313h59l-269 -389l-85 -278h-57zM311 721l89 120h74l-112 -120h-51z" />
<glyph unicode="&#xde;" horiz-adv-x="403" d="M-6 0l204 667h57l-33 -107h68q70 0 100 -21q39 -28 39 -79q0 -53 -25 -120.5t-56 -95.5q-44 -43 -150 -43h-86l-61 -201h-57zM126 246h65q44 0 61 3t36 13q39 20 66 97q19 57 19 92t-18.5 49.5t-63.5 14.5h-83z" />
<glyph unicode="&#xdf;" horiz-adv-x="413" d="M-17 0l173 564q18 59 55 86t98 27q108 0 108 -84q0 -45 -20 -83q-10 -19 -23.5 -32.5t-49.5 -39.5q-59 -42 -59 -82q0 -18 8.5 -37t37.5 -64q40 -64 40 -113q0 -63 -42 -105t-104 -42q-49 0 -76 20.5t-27 57.5q0 23 11 46h51q-9 -26 -9 -43q0 -41 48 -41q41 0 68 31.5 t27 80.5q0 38 -34 88q-52 77 -52 120q0 36 29 68q12 13 56 46q67 51 67 116q0 52 -60 52q-41 0 -64.5 -22.5t-39.5 -74.5l-165 -540h-52z" />
<glyph unicode="&#xe0;" horiz-adv-x="353" d="M7 70q0 45 22.5 98t51.5 76q36 28 96 34q17 1 75 2q5 0 12 1q28 92 28 112q0 18 -13 28.5t-36 10.5q-34 0 -60.5 -25.5t-37.5 -69.5h-51q35 135 154 135q44 0 70.5 -20t26.5 -53q0 -26 -10 -56l-105 -343h-46l18 59q-31 -35 -57.5 -49.5t-58.5 -14.5q-37 0 -58 20t-21 55 zM60 77q0 -20 13 -31t35 -11q25 0 50 18t43 49q14 25 20.5 43t29.5 95q-14 1 -32 1q-87 0 -119 -48q-15 -22 -27.5 -59t-12.5 -57zM160 647h73l65 -121h-49z" />
<glyph unicode="&#xe1;" horiz-adv-x="353" d="M7 70q0 45 22.5 98t51.5 76q36 28 96 34q17 1 75 2q5 0 12 1q28 92 28 112q0 18 -13 28.5t-36 10.5q-34 0 -60.5 -25.5t-37.5 -69.5h-51q35 135 154 135q44 0 70.5 -20t26.5 -53q0 -26 -10 -56l-105 -343h-46l18 59q-31 -35 -57.5 -49.5t-58.5 -14.5q-37 0 -58 20t-21 55 zM60 77q0 -20 13 -31t35 -11q25 0 50 18t43 49q14 25 20.5 43t29.5 95q-14 1 -32 1q-87 0 -119 -48q-15 -22 -27.5 -59t-12.5 -57zM258 526l89 121h74l-112 -121h-51z" />
<glyph unicode="&#xe2;" horiz-adv-x="353" d="M7 70q0 45 22.5 98t51.5 76q36 28 96 34q17 1 75 2q5 0 12 1q28 92 28 112q0 18 -13 28.5t-36 10.5q-34 0 -60.5 -25.5t-37.5 -69.5h-51q35 135 154 135q44 0 70.5 -20t26.5 -53q0 -26 -10 -56l-105 -343h-46l18 59q-31 -35 -57.5 -49.5t-58.5 -14.5q-37 0 -58 20t-21 55 zM60 77q0 -20 13 -31t35 -11q25 0 50 18t43 49q14 25 20.5 43t29.5 95q-14 1 -32 1q-87 0 -119 -48q-15 -22 -27.5 -59t-12.5 -57zM171 526l110 122h63l47 -122h-51l-34 83l-92 -83h-43z" />
<glyph unicode="&#xe3;" horiz-adv-x="353" d="M7 70q0 45 22.5 98t51.5 76q36 28 96 34q17 1 75 2q5 0 12 1q28 92 28 112q0 18 -13 28.5t-36 10.5q-34 0 -60.5 -25.5t-37.5 -69.5h-51q35 135 154 135q44 0 70.5 -20t26.5 -53q0 -26 -10 -56l-105 -343h-46l18 59q-31 -35 -57.5 -49.5t-58.5 -14.5q-37 0 -58 20t-21 55 zM60 77q0 -20 13 -31t35 -11q25 0 50 18t43 49q14 25 20.5 43t29.5 95q-14 1 -32 1q-87 0 -119 -48q-15 -22 -27.5 -59t-12.5 -57zM181 543q20 85 75 85q14 0 24 -5t30 -24q10 -8 21 -8q23 0 37 37h42q-10 -40 -31 -63.5t-48 -23.5q-23 0 -55 26q-15 12 -23 12 q-16 0 -30 -36h-42z" />
<glyph unicode="&#xe4;" horiz-adv-x="353" d="M7 70q0 45 22.5 98t51.5 76q36 28 96 34q17 1 75 2q5 0 12 1q28 92 28 112q0 18 -13 28.5t-36 10.5q-34 0 -60.5 -25.5t-37.5 -69.5h-51q35 135 154 135q44 0 70.5 -20t26.5 -53q0 -26 -10 -56l-105 -343h-46l18 59q-31 -35 -57.5 -49.5t-58.5 -14.5q-37 0 -58 20t-21 55 zM60 77q0 -20 13 -31t35 -11q25 0 50 18t43 49q14 25 20.5 43t29.5 95q-14 1 -32 1q-87 0 -119 -48q-15 -22 -27.5 -59t-12.5 -57zM187 551l18 60h63l-19 -60h-62zM312 551l19 60h62l-18 -60h-63z" />
<glyph unicode="&#xe5;" horiz-adv-x="353" d="M7 70q0 45 22.5 98t51.5 76q36 28 96 34q17 1 75 2q5 0 12 1q28 92 28 112q0 18 -13 28.5t-36 10.5q-34 0 -60.5 -25.5t-37.5 -69.5h-51q35 135 154 135q44 0 70.5 -20t26.5 -53q0 -26 -10 -56l-105 -343h-46l18 59q-31 -35 -57.5 -49.5t-58.5 -14.5q-37 0 -58 20t-21 55 zM60 77q0 -20 13 -31t35 -11q25 0 50 18t43 49q14 25 20.5 43t29.5 95q-14 1 -32 1q-87 0 -119 -48q-15 -22 -27.5 -59t-12.5 -57zM207 591q0 34 24 57.5t59 23.5q33 0 57 -24.5t24 -57.5q0 -34 -24 -58t-58 -24t-58 24.5t-24 58.5zM242 590q0 -20 14 -33.5t33 -13.5 t33 13.5t14 33.5q0 19 -13.5 33t-32.5 14q-20 0 -34 -13.5t-14 -33.5z" />
<glyph unicode="&#xe6;" horiz-adv-x="542" d="M7 74q0 49 24 96.5t61 71.5q28 19 60 24t114 5q28 89 28 114q0 22 -15.5 34.5t-42.5 12.5q-70 0 -92 -96h-53q17 70 52.5 103t93.5 33q69 0 94 -57q24 31 48.5 44t61.5 13q43 0 69 -20.5t26 -55.5q0 -37 -25 -123q-6 -19 -13 -44h-194q-13 -34 -25 -81.5t-12 -62.5 q0 -23 15.5 -36.5t40.5 -13.5q32 0 53.5 22t40.5 76h52q-22 -73 -56.5 -105.5t-89.5 -32.5q-40 0 -63 17t-36 55q-59 -72 -127 -72q-41 0 -65.5 21t-24.5 58zM60 79q0 -20 13.5 -32t36.5 -12q55 0 94 66q26 45 49 128q-2 1 -6 1q-12 2 -20 2q-81 0 -120 -39 q-19 -19 -33 -53.5t-14 -60.5zM317 271h142q24 93 24 117q0 44 -51 44q-41 0 -67.5 -37.5t-47.5 -123.5z" />
<glyph unicode="&#xe7;" horiz-adv-x="302" d="M-15 -176l87 122h45l-73 -122h-59zM7 72q0 25 14 76l19 67q46 167 79 207q41 50 116 50q43 0 66 -18.5t23 -53.5q0 -30 -12 -69h-51q4 20 4 22q6 24 6 40q0 18 -12 28.5t-32 10.5q-33 0 -54 -19.5t-39 -66.5q-23 -60 -48.5 -152t-25.5 -114q0 -20 14 -32.5t36 -12.5 q68 0 92 102h51q-20 -78 -54.5 -110t-96.5 -32q-45 0 -70 20.5t-25 56.5z" />
<glyph unicode="&#xe8;" horiz-adv-x="336" d="M6 66q0 39 39 170t63 171q40 69 122 69q49 0 77 -19t28 -52q0 -32 -47 -193h-194q-35 -97 -35 -137q0 -19 14.5 -29.5t38.5 -10.5q69 0 97 98h54q-21 -74 -56.5 -106t-98.5 -32q-49 0 -75.5 18.5t-26.5 52.5zM106 254h141q35 107 35 141q0 18 -14.5 29.5t-37.5 11.5 q-42 0 -66 -32q-24 -31 -58 -150zM148 647h73l65 -121h-49z" />
<glyph unicode="&#xe9;" horiz-adv-x="336" d="M6 66q0 39 39 170t63 171q40 69 122 69q49 0 77 -19t28 -52q0 -32 -47 -193h-194q-35 -97 -35 -137q0 -19 14.5 -29.5t38.5 -10.5q69 0 97 98h54q-21 -74 -56.5 -106t-98.5 -32q-49 0 -75.5 18.5t-26.5 52.5zM106 254h141q35 107 35 141q0 18 -14.5 29.5t-37.5 11.5 q-42 0 -66 -32q-24 -31 -58 -150zM232 526l89 121h74l-112 -121h-51z" />
<glyph unicode="&#xea;" horiz-adv-x="336" d="M6 66q0 39 39 170t63 171q40 69 122 69q49 0 77 -19t28 -52q0 -32 -47 -193h-194q-35 -97 -35 -137q0 -19 14.5 -29.5t38.5 -10.5q69 0 97 98h54q-21 -74 -56.5 -106t-98.5 -32q-49 0 -75.5 18.5t-26.5 52.5zM106 254h141q35 107 35 141q0 18 -14.5 29.5t-37.5 11.5 q-42 0 -66 -32q-24 -31 -58 -150zM156 526l110 122h63l47 -122h-51l-34 83l-92 -83h-43z" />
<glyph unicode="&#xeb;" horiz-adv-x="336" d="M6 66q0 39 39 170t63 171q40 69 122 69q49 0 77 -19t28 -52q0 -32 -47 -193h-194q-35 -97 -35 -137q0 -19 14.5 -29.5t38.5 -10.5q69 0 97 98h54q-21 -74 -56.5 -106t-98.5 -32q-49 0 -75.5 18.5t-26.5 52.5zM106 254h141q35 107 35 141q0 18 -14.5 29.5t-37.5 11.5 q-42 0 -66 -32q-24 -31 -58 -150zM183 551l18 60h63l-19 -60h-62zM308 551l19 60h62l-18 -60h-63z" />
<glyph unicode="&#xec;" horiz-adv-x="169" d="M-9 0l143 467h52l-143 -467h-52zM80 647h69l52 -121h-45z" />
<glyph unicode="&#xed;" horiz-adv-x="169" d="M-9 0l143 467h52l-143 -467h-52zM153 526l78 121h71l-98 -121h-51z" />
<glyph unicode="&#xee;" horiz-adv-x="169" d="M-9 0l143 467h52l-143 -467h-52zM90 526l97 122h63l32 -122h-50l-20 83l-79 -83h-43z" />
<glyph unicode="&#xef;" horiz-adv-x="169" d="M-9 0l143 467h52l-143 -467h-52zM113 551l18 60h59l-18 -60h-59zM212 551l18 60h59l-18 -60h-59z" />
<glyph unicode="&#xf0;" horiz-adv-x="351" d="M6 76q0 33 38 156.5t61 165.5q40 74 127 74q30 0 46 -8t30 -30q8 44 8 76q0 31 -9 61l-82 -31l-18 36l83 32q-30 33 -55 52l31 28q12 -7 35.5 -29t32.5 -34l82 31l20 -35l-82 -32q16 -45 16 -81q0 -78 -60 -272q-32 -102 -48 -141.5t-35 -58.5q-41 -41 -108 -41 q-52 0 -82.5 22t-30.5 59zM59 82q0 -47 62 -47q45 0 72.5 37t53.5 133q13 52 31 107q16 45 16 76q0 20 -16 32t-43 12q-37 0 -59.5 -19t-41.5 -68q-20 -50 -47.5 -146.5t-27.5 -116.5z" />
<glyph unicode="&#xf1;" horiz-adv-x="361" d="M-16 0l143 467h48l-19 -62q33 37 59.5 52t57.5 15q36 0 58.5 -18t22.5 -46t-22 -100l-94 -308h-52l97 319q18 58 18 75t-11.5 27.5t-31.5 10.5q-47 0 -81 -39q-32 -36 -62 -133l-79 -260h-52zM187 543q20 85 75 85q14 0 24 -5t30 -24q10 -8 21 -8q23 0 37 37h42 q-10 -40 -31 -63.5t-48 -23.5q-23 0 -55 26q-15 12 -23 12q-16 0 -30 -36h-42z" />
<glyph unicode="&#xf2;" horiz-adv-x="351" d="M6 76q0 33 38 156.5t61 165.5q41 74 130 74q53 0 82.5 -20.5t29.5 -57.5q0 -44 -52 -204q-28 -88 -42 -117t-38 -47q-41 -31 -97 -31q-51 0 -81.5 22t-30.5 59zM59 82q0 -47 62 -47q45 0 72.5 37t53.5 133q13 52 31 107q16 45 16 76q0 20 -16 32t-43 12q-37 0 -59.5 -19 t-41.5 -68q-20 -50 -47.5 -146.5t-27.5 -116.5zM159 647h73l65 -121h-49z" />
<glyph unicode="&#xf3;" horiz-adv-x="351" d="M6 76q0 33 38 156.5t61 165.5q41 74 130 74q53 0 82.5 -20.5t29.5 -57.5q0 -44 -52 -204q-28 -88 -42 -117t-38 -47q-41 -31 -97 -31q-51 0 -81.5 22t-30.5 59zM59 82q0 -47 62 -47q45 0 72.5 37t53.5 133q13 52 31 107q16 45 16 76q0 20 -16 32t-43 12q-37 0 -59.5 -19 t-41.5 -68q-20 -50 -47.5 -146.5t-27.5 -116.5zM242 526l89 121h74l-112 -121h-51z" />
<glyph unicode="&#xf4;" horiz-adv-x="351" d="M6 76q0 33 38 156.5t61 165.5q41 74 130 74q53 0 82.5 -20.5t29.5 -57.5q0 -44 -52 -204q-28 -88 -42 -117t-38 -47q-41 -31 -97 -31q-51 0 -81.5 22t-30.5 59zM59 82q0 -47 62 -47q45 0 72.5 37t53.5 133q13 52 31 107q16 45 16 76q0 20 -16 32t-43 12q-37 0 -59.5 -19 t-41.5 -68q-20 -50 -47.5 -146.5t-27.5 -116.5zM163 526l110 122h63l47 -122h-51l-34 83l-92 -83h-43z" />
<glyph unicode="&#xf5;" horiz-adv-x="351" d="M6 76q0 33 38 156.5t61 165.5q41 74 130 74q53 0 82.5 -20.5t29.5 -57.5q0 -44 -52 -204q-28 -88 -42 -117t-38 -47q-41 -31 -97 -31q-51 0 -81.5 22t-30.5 59zM59 82q0 -47 62 -47q45 0 72.5 37t53.5 133q13 52 31 107q16 45 16 76q0 20 -16 32t-43 12q-37 0 -59.5 -19 t-41.5 -68q-20 -50 -47.5 -146.5t-27.5 -116.5zM172 543q20 85 75 85q14 0 24 -5t30 -24q10 -8 21 -8q23 0 37 37h42q-10 -40 -31 -63.5t-48 -23.5q-22 0 -55 26q-15 12 -23 12q-16 0 -30 -36h-42z" />
<glyph unicode="&#xf6;" horiz-adv-x="351" d="M6 76q0 33 38 156.5t61 165.5q41 74 130 74q53 0 82.5 -20.5t29.5 -57.5q0 -44 -52 -204q-28 -88 -42 -117t-38 -47q-41 -31 -97 -31q-51 0 -81.5 22t-30.5 59zM59 82q0 -47 62 -47q45 0 72.5 37t53.5 133q13 52 31 107q16 45 16 76q0 20 -16 32t-43 12q-37 0 -59.5 -19 t-41.5 -68q-20 -50 -47.5 -146.5t-27.5 -116.5zM189 551l18 60h63l-19 -60h-62zM314 551l19 60h62l-18 -60h-63z" />
<glyph unicode="&#xf7;" d="M68 319v48h333v-48h-333zM200 153v73h70v-73h-70zM200 460v73h70v-73h-70z" />
<glyph unicode="&#xf8;" horiz-adv-x="351" d="M-21 -17l39 54q-12 23 -12 38q0 34 37.5 157t60.5 166q41 74 129 74q48 0 83 -18l37 48l25 -20l-39 -52q8 -20 8 -37q0 -41 -52 -203q-28 -89 -42 -118t-37 -46q-42 -31 -97 -31q-42 0 -79 18l-36 -47zM58 78l224 339q-19 15 -48 15q-40 0 -64.5 -26t-46.5 -92 q-56 -169 -65 -236zM73 49q20 -14 48 -14q45 0 71.5 36t54.5 134q2 9 14 47t21.5 73.5t13.5 58.5z" />
<glyph unicode="&#xf9;" horiz-adv-x="357" d="M11 59q0 30 21 101l94 307h52l-99 -323q-15 -50 -15 -71q0 -17 11.5 -27.5t30.5 -10.5q49 0 86 50q25 32 50 112l82 270h52l-143 -467h-48l20 65q-33 -41 -58 -55.5t-63 -14.5q-73 0 -73 64zM158 647h73l65 -121h-49z" />
<glyph unicode="&#xfa;" horiz-adv-x="357" d="M11 59q0 30 21 101l94 307h52l-99 -323q-15 -50 -15 -71q0 -17 11.5 -27.5t30.5 -10.5q49 0 86 50q25 32 50 112l82 270h52l-143 -467h-48l20 65q-33 -41 -58 -55.5t-63 -14.5q-73 0 -73 64zM246 526l89 121h74l-112 -121h-51z" />
<glyph unicode="&#xfb;" horiz-adv-x="357" d="M11 59q0 30 21 101l94 307h52l-99 -323q-15 -50 -15 -71q0 -17 11.5 -27.5t30.5 -10.5q49 0 86 50q25 32 50 112l82 270h52l-143 -467h-48l20 65q-33 -41 -58 -55.5t-63 -14.5q-73 0 -73 64zM167 526l110 122h63l47 -122h-51l-34 83l-92 -83h-43z" />
<glyph unicode="&#xfc;" horiz-adv-x="357" d="M11 59q0 30 21 101l94 307h52l-99 -323q-15 -50 -15 -71q0 -17 11.5 -27.5t30.5 -10.5q49 0 86 50q25 32 50 112l82 270h52l-143 -467h-48l20 65q-33 -41 -58 -55.5t-63 -14.5q-73 0 -73 64zM195 551l18 60h63l-19 -60h-62zM320 551l19 60h62l-18 -60h-63z" />
<glyph unicode="&#xfd;" horiz-adv-x="300" d="M-32 -173l96 175l17 465h50l-22 -383l198 383h46l-333 -640h-52zM210 526l89 121h74l-112 -121h-51z" />
<glyph unicode="&#xfe;" horiz-adv-x="357" d="M-70 -173l260 850h52l-82 -269q53 64 112 64q38 0 60 -19.5t22 -53.5q0 -23 -19.5 -96t-44.5 -145q-23 -68 -40.5 -97t-45.5 -46q-32 -20 -71 -20q-56 0 -84 49l-67 -217h-52zM67 83q0 -22 16 -35t42 -13q54 0 81 54q22 42 58.5 157.5t36.5 141.5q0 44 -49 44 q-54 0 -91 -63q-15 -23 -24 -48t-39 -116q-31 -96 -31 -122z" />
<glyph unicode="&#xff;" horiz-adv-x="300" d="M-32 -173l96 175l17 465h50l-22 -383l198 383h46l-333 -640h-52zM159 551l18 60h63l-19 -60h-62zM284 551l19 60h62l-18 -60h-63z" />
<glyph unicode="&#x152;" horiz-adv-x="610" d="M25 105q0 54 29 147l65 215q36 116 70 150q52 52 154 52q14 0 53 -1t57 -1h243l-13 -45h-195l-78 -255h185l-13 -43h-185l-85 -279h205l-14 -45h-245q-8 0 -43 -1t-44 -1q-75 0 -110.5 26t-35.5 81zM81 110q0 -34 24 -49.5t77 -15.5q28 0 75 6l174 570q-64 1 -73 1 q-82 0 -117.5 -32t-67.5 -135l-67 -217q-25 -83 -25 -128z" />
<glyph unicode="&#x153;" horiz-adv-x="537" d="M8 81q0 36 51 199q25 81 43 116t44 54q36 25 84 25q78 0 97 -61q43 61 113 61q44 0 69 -20t25 -56q0 -34 -36 -155q-3 -6 -10 -32h-191q-9 -24 -20.5 -70.5t-11.5 -59.5q0 -20 16 -33.5t40 -13.5q31 0 55 27t33 71h55q-16 -66 -53.5 -102t-90.5 -36q-68 0 -95 58 q-44 -58 -119 -58q-44 0 -71 23.5t-27 62.5zM61 81q0 -46 55 -46q64 0 93 73q11 26 49 154q31 103 31 124q0 23 -15.5 36t-43.5 13q-52 0 -75 -45q-21 -40 -57.5 -160t-36.5 -149zM311 254h137q33 112 33 140q0 41 -51 41q-46 0 -70 -40q-12 -19 -20.5 -43t-28.5 -98z" />
<glyph unicode="&#x178;" horiz-adv-x="378" d="M87 0l89 290l-39 377h57l31 -313l214 313h59l-269 -389l-85 -278h-57zM249 742l18 63h65l-18 -63h-65zM381 742l18 63h65l-18 -63h-65z" />
<glyph unicode="&#x2c6;" horiz-adv-x="500" d="M234 526l110 122h63l47 -122h-51l-34 83l-92 -83h-43z" />
<glyph unicode="&#x2dc;" horiz-adv-x="500" d="M246 543q20 85 75 85q14 0 24 -5t30 -24q10 -8 21 -8q23 0 37 37h42q-10 -40 -31 -63.5t-48 -23.5q-22 0 -55 26q-15 12 -23 12q-16 0 -30 -36h-42z" />
<glyph unicode="&#x2000;" horiz-adv-x="432" />
<glyph unicode="&#x2001;" horiz-adv-x="864" />
<glyph unicode="&#x2002;" horiz-adv-x="432" />
<glyph unicode="&#x2003;" horiz-adv-x="864" />
<glyph unicode="&#x2004;" horiz-adv-x="288" />
<glyph unicode="&#x2005;" horiz-adv-x="216" />
<glyph unicode="&#x2006;" horiz-adv-x="144" />
<glyph unicode="&#x2007;" horiz-adv-x="144" />
<glyph unicode="&#x2008;" horiz-adv-x="108" />
<glyph unicode="&#x2009;" horiz-adv-x="172" />
<glyph unicode="&#x200a;" horiz-adv-x="48" />
<glyph unicode="&#x2010;" horiz-adv-x="148" d="M1 232l12 41h149l-13 -41h-148z" />
<glyph unicode="&#x2011;" horiz-adv-x="148" d="M1 232l12 41h149l-13 -41h-148z" />
<glyph unicode="&#x2012;" horiz-adv-x="148" d="M1 232l12 41h149l-13 -41h-148z" />
<glyph unicode="&#x2013;" horiz-adv-x="404" d="M51 232l13 41h303l-12 -41h-304z" />
<glyph unicode="&#x2014;" horiz-adv-x="445" d="M1 232l12 41h446l-13 -41h-445z" />
<glyph unicode="&#x2018;" horiz-adv-x="175" d="M143 543l77 130h45l-54 -130h-68z" />
<glyph unicode="&#x2019;" horiz-adv-x="175" d="M141 536l54 131h68l-78 -131h-44z" />
<glyph unicode="&#x201a;" horiz-adv-x="175" d="M-43 -65l54 131h68l-78 -131h-44z" />
<glyph unicode="&#x201c;" horiz-adv-x="308" d="M143 543l77 130h45l-54 -130h-68zM276 543l78 130h44l-54 -130h-68z" />
<glyph unicode="&#x201d;" horiz-adv-x="308" d="M141 536l54 131h68l-78 -131h-44zM274 536l54 131h68l-77 -131h-45z" />
<glyph unicode="&#x201e;" horiz-adv-x="308" d="M-43 -65l54 131h68l-78 -131h-44zM90 -65l54 131h68l-77 -131h-45z" />
<glyph unicode="&#x2022;" horiz-adv-x="667" d="M196 339q0 58 41 98.5t100 40.5q55 0 95.5 -41t40.5 -97q0 -58 -40.5 -98.5t-97.5 -40.5t-98 40.5t-41 97.5z" />
<glyph unicode="&#x2026;" horiz-adv-x="540" d="M-19 0l23 73h77l-22 -73h-78zM161 0l23 73h77l-22 -73h-78zM341 0l23 73h77l-22 -73h-78z" />
<glyph unicode="&#x202f;" horiz-adv-x="172" />
<glyph unicode="&#x2039;" horiz-adv-x="193" d="M45 0v256l143 211h41l-135 -223l-7 -244h-42z" />
<glyph unicode="&#x203a;" horiz-adv-x="193" d="M-33 0l135 223l8 244h41v-256l-142 -211h-42z" />
<glyph unicode="&#x205f;" horiz-adv-x="216" />
<glyph unicode="&#x20ac;" horiz-adv-x="422" d="M18 262l30 48h44l15 48h-60l30 48h44l15 48q44 140 81 177q48 46 123 46q61 0 94.5 -26.5t33.5 -75.5q0 -31 -16 -84h-59q19 62 19 84q0 26 -19 40.5t-54 14.5q-66 0 -97 -49q-4 -7 -7 -12t-6.5 -12.5t-5.5 -12.5t-6.5 -18.5l-7.5 -22.5t-10 -32t-13 -40l-8 -25h150 l-30 -48h-134l-15 -48h119l-30 -48h-104l-20 -68q-6 -20 -13.5 -57t-7.5 -49q0 -24 20 -37.5t55 -13.5q50 0 77 29.5t52 111.5h59q-28 -97 -59 -132q-46 -56 -132 -56q-60 0 -94 25.5t-34 70.5q0 50 26 131l14 45h-59z" />
<glyph unicode="&#x2122;" horiz-adv-x="587" d="M107 287l105 345h-86l11 35h214l-10 -35h-85l-106 -345h-43zM264 287l116 380h66l-15 -308q33 61 96 172.5t76 135.5h68l-112 -380h-43l93 311l-177 -311h-45l15 310l-95 -310h-43z" />
<glyph unicode="&#xe000;" horiz-adv-x="465" d="M0 0v465h465v-465h-465z" />
</font>
</defs>
</svg>
