<?xml version="1.0" encoding="UTF-8"?><svg xmlns="http://www.w3.org/2000/svg" width="100%" height="100%"><defs><font id="web" horiz-adv-x="1320"><!--



NOTICE: This font software is the valuable property 
of Webtype LLC, The Font Bureau, Webtype and/or its 
suppliers and its use by you is covered under the terms 
of the Web Font license agreement between you and Webtype 
LLC. You may ONLY use this font software with the licensed 
web site. Except as specifically permitted by the license, 
you may not copy this font software. If you have any 
questions, please contact Webtype.com. 

For more information, please visit http://www.webtype.com/store/license/?id=23

Licensed to: nickmom.com

Serial number: SH-841
--><font-face font-family="" units-per-em="2048" panose-1="2 0 5 5 0 0 0 2 0 4" ascent="2232" descent="-797" alphabetic="0"/><missing-glyph horiz-adv-x="1024" d="M0 1434H1024V0H0V1434ZM102 102H922V1331H102V102Z"/><glyph unicode=" " horiz-adv-x="461"/><glyph unicode="!" horiz-adv-x="778" d="M244 291H535V0H244V291ZM250 1518H528L487 446H289L250 1518Z"/><glyph unicode="&quot;" horiz-adv-x="1085" d="M190 1518H438L416 877H213L190 1518ZM647 1518H895L870 877H672L647 1518Z"/><glyph unicode="#" horiz-adv-x="1540" d="M336 385H104V596H377L428 844H104V1055H469L551 1466H784L702 1055H963L1044 1466H1280L1198 1055H1436V844H1157L1106 596H1436V385H1067L989 0H756L831 385H573L496 0H260L336 385ZM879 586L934 854H657L604 586H879Z"/><glyph unicode="$" horiz-adv-x="1341" d="M575 -2Q464 15 388 68T274 199V0H86V487H279Q318 338 390 271T582 189V650Q407 685 316 735T180 864T135 1063Q135 1232 250 1336T575 1462V1595H768V1455Q924 1421 993 1290V1466H1180V1020H987Q952 1119 898 1175T762 1254V827Q977 786 1066 738T1200 612T1245 412Q1245 235 1118 124T768 -6V-193H575V-2ZM1012 401Q1012 489 958 537T762 617V189Q884 202 948 256T1012 401ZM371 1067Q371 988 418 941T582 863V1261Q371 1231 371 1067Z"/><glyph unicode="%" horiz-adv-x="2410" d="M524 508Q400 508 298 568T137 740T78 997Q78 1141 136 1253T297 1427T524 1489Q647 1489 750 1428T911 1255T969 997Q969 852 911 741T751 569T524 508ZM524 696Q626 696 689 778T752 997Q752 1133 690 1213T524 1294Q421 1294 359 1215T297 997Q297 860 359 778T524 696ZM1520 1466H1739L891 0H670L1520 1466ZM1888 -20Q1763 -20 1660 42T1500 215T1442 471Q1442 615 1499 726T1660 899T1888 961Q2012 961 2115 900T2275 728T2333 471Q2333 326 2276 215T2115 42T1888 -20ZM1888 168Q1990 168 2052 250T2114 471Q2114 606 2052 686T1888 766Q1785 766 1722 686T1659 471Q1659 333 1722 251T1888 168Z"/><glyph unicode="&amp;" horiz-adv-x="1767" d="M604 -16Q370 -16 231 95T92 403Q92 511 133 594T251 738T471 856Q428 997 428 1122Q428 1256 483 1349T635 1491T854 1540Q943 1540 1018 1500T1135 1388T1178 1221Q1178 1114 1135 1036T1012 898T756 766Q867 507 1049 362Q1132 452 1189 587T1294 905L1493 862Q1400 480 1231 270Q1339 215 1462 215Q1519 215 1604 231L1649 37Q1537 2 1427 2Q1236 2 1049 102Q866 -16 604 -16ZM627 180Q755 180 856 240Q659 414 539 690Q428 633 379 568T330 416Q330 307 408 244T627 180ZM690 922Q855 984 914 1048T973 1202Q973 1265 935 1301T836 1337Q756 1337 707 1280T657 1128Q657 1035 690 922Z"/><glyph unicode="'" horiz-adv-x="635" d="M190 1518H444L422 877H213L190 1518Z"/><glyph unicode="(" horiz-adv-x="1001" d="M639 -401Q516 -297 421 -138T273 215T219 623Q219 813 273 1009T426 1380T639 1651L807 1513Q646 1363 557 1128T467 627Q467 440 510 271T631 -37T807 -264L639 -401Z"/><glyph unicode=")" horiz-adv-x="1001" d="M197 -264Q356 -113 445 121T535 623Q535 809 492 978T371 1287T197 1513L362 1651Q486 1546 581 1387T730 1034T784 627Q784 437 730 240T574 -134T362 -401L197 -264Z"/><glyph unicode="*" horiz-adv-x="1212" d="M528 877L223 678L123 854L449 1016L123 1180L221 1354L528 1155L508 1518H702L682 1153L989 1354L1087 1182L760 1016L1087 852L989 680L682 879L700 516H508L528 877Z"/><glyph unicode="+" horiz-adv-x="1452" d="M610 614H205V829H610V1233H842V829H1247V614H842V207H610V614Z"/><glyph unicode="," horiz-adv-x="545" d="M127 -162Q214 -118 241 -88T268 0H127V295H418V80Q418 -32 398 -91T331 -193T188 -281L127 -162Z"/><glyph unicode="-" horiz-adv-x="897" d="M92 756H803V543H92V756Z"/><glyph unicode="." horiz-adv-x="545" d="M127 295H418V0H127V295Z"/><glyph unicode="/" horiz-adv-x="1090" d="M848 1518H1090L242 0H0L848 1518Z"/><glyph unicode="0" horiz-adv-x="1434" d="M717 -23Q438 -23 280 176T121 733Q121 1088 279 1288T717 1489Q899 1489 1034 1400T1241 1139T1313 733Q1313 378 1155 178T717 -23ZM717 188Q883 188 974 321T1065 733Q1065 998 978 1135T717 1272Q369 1272 369 733Q369 455 459 322T717 188Z"/><glyph unicode="1" horiz-adv-x="834" d="M61 199H334V1235Q227 1202 61 1202V1413Q326 1413 432 1466H571V199H813V0H61V199Z"/><glyph unicode="2" horiz-adv-x="1251" d="M70 231L434 498Q643 664 718 743T825 893T858 1057Q858 1160 795 1219T614 1278Q492 1278 410 1234T264 1104L72 1223Q166 1361 304 1425T639 1489Q851 1489 974 1379T1098 1079Q1098 956 1054 854T911 646T600 377L324 182H926V420H1128V0H70V231Z"/><glyph unicode="3" horiz-adv-x="1262" d="M608 -23Q394 -23 258 45T37 276L240 375Q301 267 382 224T598 180Q759 180 846 247T934 442Q934 580 821 639T453 698V883Q672 883 774 936T877 1098Q877 1186 814 1235T621 1284Q500 1284 420 1251T276 1135L92 1253Q254 1489 635 1489Q853 1489 982 1396T1112 1141Q1112 1022 1034 935T831 815Q989 786 1081 684T1174 434Q1174 222 1021 100T608 -23Z"/><glyph unicode="4" horiz-adv-x="1343" d="M592 193H807V381H66V545L733 1466H995L344 567H813L877 883H1034V567H1290V381H1034V193H1221V0H592V193Z"/><glyph unicode="5" horiz-adv-x="1315" d="M643 -23Q428 -23 289 49T72 276L276 375Q332 271 417 226T639 180Q805 180 893 261T981 494Q981 632 897 711T678 791Q597 791 507 772T342 717L147 803L217 1466H1112V1257H408L369 887Q421 924 526 951T741 979Q881 979 991 920T1161 750T1221 498Q1221 255 1068 116T643 -23Z"/><glyph unicode="6" horiz-adv-x="1341" d="M707 -25Q419 -25 265 155T111 666Q111 1060 325 1273T938 1487Q1003 1487 1049 1479L1030 1272Q985 1280 936 1280Q762 1280 638 1231T442 1077T352 797Q413 894 524 947T791 1001Q1007 1001 1134 868T1262 508Q1262 268 1112 122T707 -25ZM719 180Q859 180 939 264T1020 504Q1020 656 944 736T721 817Q626 817 545 780T417 674T369 512Q369 360 462 270T719 180Z"/><glyph unicode="7" horiz-adv-x="1245" d="M436 0Q454 367 596 708T969 1272H346V1006H135V1466H1212V1292Q1071 1167 958 970T773 524T684 0H436Z"/><glyph unicode="8" horiz-adv-x="1327" d="M662 -39Q483 -39 354 19T156 181T88 420Q88 565 161 663T371 807Q269 849 215 930T160 1122Q160 1234 220 1319T392 1452T662 1499Q820 1499 933 1452T1106 1319T1165 1122Q1165 1011 1105 927T940 807Q1084 764 1161 664T1239 420Q1239 285 1171 181T972 19T662 -39ZM662 156Q818 156 906 229T995 430Q995 561 907 639T662 717Q510 717 420 640T330 430Q330 300 420 228T662 156ZM662 879Q788 879 858 938T928 1100Q928 1195 860 1250T662 1305Q534 1305 466 1250T397 1100Q397 999 467 939T662 879Z"/><glyph unicode="9" horiz-adv-x="1341" d="M635 1489Q923 1489 1076 1311T1229 799Q1229 406 1016 192T401 -23Q355 -23 291 -12L311 190Q358 180 406 180Q544 180 647 208T819 291T930 434T987 666Q930 572 822 516T551 459Q333 459 207 595T80 956Q80 1199 230 1344T635 1489ZM623 1280Q481 1280 400 1196T319 956Q319 806 395 725T621 643Q716 643 797 680T925 786T973 948Q973 1098 881 1189T623 1280Z"/><glyph unicode=":" horiz-adv-x="586" d="M147 289H438V0H147V289ZM147 1143H438V854H147V1143Z"/><glyph unicode=";" horiz-adv-x="586" d="M147 -162Q232 -119 260 -89T289 0H147V289H438V80Q438 -70 390 -144T209 -281L147 -162ZM147 1143H438V854H147V1143Z"/><glyph unicode="&lt;" horiz-adv-x="1452" d="M256 610V809L1153 1251V1028L492 711L1153 391V166L256 610Z"/><glyph unicode="=" horiz-adv-x="1452" d="M217 594H1235V381H217V594ZM217 1063H1235V848H217V1063Z"/><glyph unicode="&gt;" horiz-adv-x="1452" d="M301 389L961 709L301 1028V1251L1196 809V608L301 166V389Z"/><glyph unicode="?" horiz-adv-x="1389" d="M526 428Q518 487 518 536Q518 655 576 732T778 885Q900 947 943 1000T987 1126Q987 1225 916 1275T709 1325Q587 1323 500 1281T350 1153L158 1272Q251 1410 388 1475T719 1540Q962 1540 1095 1437T1229 1149Q1229 1025 1156 924T922 743Q830 696 792 650T754 538Q754 495 764 428H526ZM502 272H791V0H502V272Z"/><glyph unicode="@" horiz-adv-x="2187" d="M1128 -338Q673 -338 420 -98T166 594Q166 874 285 1088T632 1423T1143 1544Q1413 1544 1611 1452T1916 1181T2023 754Q2023 422 1908 259T1556 96Q1423 96 1351 152T1276 305Q1221 208 1123 150T911 92Q743 92 652 198T561 498Q561 681 627 836T807 1073T1069 1155Q1304 1155 1382 952L1491 1130L1622 1114L1479 428Q1471 383 1471 347Q1472 231 1604 231Q1741 231 1808 359T1876 754Q1876 1066 1686 1236T1143 1407Q897 1407 705 1305T412 1021T311 594Q311 341 404 163T683 -108T1128 -201Q1294 -201 1441 -164T1698 -53L1769 -166Q1645 -249 1482 -293T1128 -338ZM973 276Q1069 276 1150 334T1277 494T1323 715Q1323 832 1262 895T1090 958Q997 958 927 900T819 739T780 512Q780 276 973 276Z"/><glyph unicode="A" horiz-adv-x="1686" d="M53 207H178L707 1528H985L1509 207H1630V0H1053V199H1262L1165 438H502L408 199H590V0H53V207ZM1098 618L834 1286L571 618H1098Z"/><glyph unicode="B" horiz-adv-x="1495" d="M53 207H246V1307H53V1518H852Q1097 1518 1226 1420T1356 1135Q1356 1010 1288 925T1098 803Q1248 769 1326 673T1405 428Q1405 220 1260 110T836 0H53V207ZM844 201Q999 201 1075 259T1151 446Q1151 690 844 690H489V201H844ZM834 874Q964 874 1033 932T1102 1098Q1102 1201 1032 1257T827 1313H489V874H834Z"/><glyph unicode="C" horiz-adv-x="1595" d="M801 -23Q597 -23 431 73T174 344T82 748Q82 976 172 1155T429 1438T793 1542Q1130 1542 1245 1323V1518H1454V1006H1231Q1152 1313 817 1313Q678 1313 567 1245T394 1049T332 752Q332 582 393 457T566 264T821 197Q1167 197 1282 543L1491 469Q1415 235 1233 106T801 -23Z"/><glyph unicode="D" horiz-adv-x="1591" d="M53 207H246V1307H53V1518H729Q1109 1518 1310 1326T1511 760Q1511 386 1299 193T700 0H53V207ZM735 209Q995 209 1127 349T1260 760Q1260 1038 1127 1171T715 1305H492V209H735Z"/><glyph unicode="E" horiz-adv-x="1421" d="M53 207H246V1307H53V1518H1290V1006H1069V1313H494V866H948V666H494V199H1085V547H1307V0H53V207Z"/><glyph unicode="F" horiz-adv-x="1378" d="M53 207H246V1307H53V1518H1284V1006H1059V1313H494V836H932V635H494V207H723V0H53V207Z"/><glyph unicode="G" horiz-adv-x="1659" d="M748 -23Q563 -23 409 75T168 347T82 748Q82 974 169 1152T422 1436T786 1542Q1122 1542 1235 1319V1518H1444V1016H1221Q1179 1163 1079 1238T811 1313Q673 1313 564 1245T394 1050T332 752Q332 580 392 453T563 258T819 190Q999 190 1121 291T1266 565H870V756H1487V0H1346L1292 256Q1226 127 1084 52T748 -23Z"/><glyph unicode="H" horiz-adv-x="1774" d="M53 207H246V1307H53V1518H737V1311H492V883H1282V1311H1036V1518H1720V1307H1528V207H1720V0H1036V203H1282V674H492V203H737V0H53V207Z"/><glyph unicode="I" horiz-adv-x="795" d="M53 207H274V1307H53V1518H741V1307H520V207H741V0H53V207Z"/><glyph unicode="J" horiz-adv-x="1071" d="M94 233Q250 190 356 190Q486 190 543 250T600 449V1307H387V1518H1018V1307H846V430Q846 214 729 97T391 -20Q206 -20 41 27L94 233Z"/><glyph unicode="K" horiz-adv-x="1638" d="M53 207H246V1307H53V1518H641V1313H489V705L1087 1313H926V1518H1538V1307H1337L950 915L1432 207H1585V0H969V195H1161L778 754L489 459V195H653V0H53V207Z"/><glyph unicode="L" horiz-adv-x="1380" d="M53 207H246V1307H53V1518H741V1307H494V199H1061V547H1286V0H53V207Z"/><glyph unicode="M" horiz-adv-x="2093" d="M53 207H248V1307H53V1518H578L1047 334L1513 1518H2040V1311H1845V207H2040V0H1399V203H1604V1194L1137 0H946L479 1194V203H688V0H53V207Z"/><glyph unicode="N" horiz-adv-x="1761" d="M53 207H246V1307H53V1518H543L1305 383V1307H1114V1518H1708V1307H1534V0H1296L475 1206V207H702V0H53V207Z"/><glyph unicode="O" horiz-adv-x="1677" d="M840 -25Q627 -25 450 75T176 351T80 760Q80 989 175 1164T448 1441T840 1542Q1054 1542 1232 1440T1504 1162T1597 760Q1597 532 1504 356T1232 78T840 -25ZM840 197Q983 197 1099 265T1281 461T1346 758Q1346 926 1281 1051T1101 1245T840 1313Q695 1313 579 1246T397 1052T332 758Q332 588 397 461T579 265T840 197Z"/><glyph unicode="P" horiz-adv-x="1509" d="M53 207H246V1307H53V1518H879Q1148 1518 1290 1393T1432 1034Q1432 802 1290 679T868 555H492V207H731V0H53V207ZM887 748Q1182 748 1182 1026Q1182 1174 1103 1242T866 1311H492V748H887Z"/><glyph unicode="Q" horiz-adv-x="1677" d="M1014 -383Q830 -383 736 -288T641 -4V12Q470 48 344 148T149 405T80 762Q80 991 170 1165T437 1441T840 1542Q1060 1542 1236 1444T1504 1170T1597 762Q1597 536 1510 369T1255 106T866 0Q868 -91 910 -129T1049 -168Q1183 -168 1343 -102L1411 -293Q1212 -383 1014 -383ZM840 197Q983 197 1099 265T1281 461T1346 758Q1346 926 1281 1051T1101 1245T840 1313Q695 1313 579 1246T397 1052T332 758Q332 588 397 461T579 265T840 197Z"/><glyph unicode="R" horiz-adv-x="1567" d="M53 207H248V1307H53V1518H842Q1110 1518 1253 1395T1397 1042Q1397 863 1308 751T1040 604L1319 207H1513V0H897V203H1047L795 575H489V203H653V0H53V207ZM856 764Q997 764 1071 827T1145 1034Q1145 1182 1066 1246T829 1311H489V764H856Z"/><glyph unicode="S" horiz-adv-x="1430" d="M766 -25Q590 -25 477 25T307 180V0H109V530H313Q341 353 445 271T739 188Q911 188 1001 246T1092 414Q1092 484 1058 528T960 600T729 655Q560 683 487 706T354 762T251 842T185 956T160 1112Q160 1243 225 1340T409 1489T676 1542Q827 1542 921 1500T1069 1368V1518H1270V1026H1063Q1035 1175 950 1248T702 1321Q560 1321 484 1267T408 1116Q408 1046 442 1001T544 926T762 872Q929 844 1004 822T1141 769T1244 690T1312 578T1337 422Q1337 216 1184 96T766 -25Z"/><glyph unicode="T" horiz-adv-x="1573" d="M451 201H664V1313H313V1006H94V1518H1479V1006H1260V1313H909V201H1120V0H451V201Z"/><glyph unicode="U" horiz-adv-x="1749" d="M872 -25Q677 -25 532 43T306 248T225 563V1307H53V1518H731V1311H473V586Q473 395 577 295T879 195Q1077 195 1179 293T1282 586V1311H1030V1518H1696V1307H1522V563Q1522 384 1442 248T1215 44T872 -25Z"/><glyph unicode="V" horiz-adv-x="1677" d="M172 1307H53V1518H641V1313H422L846 238L1272 1313H1077V1518H1624V1307H1499L969 -10H694L172 1307Z"/><glyph unicode="W" horiz-adv-x="2370" d="M215 1307H53V1518H643V1313H453L750 303L1094 1518H1296L1640 301L1937 1313H1733V1518H2316V1307H2157L1757 -10H1518L1186 1120L856 -10H616L215 1307Z"/><glyph unicode="X" horiz-adv-x="1669" d="M53 207H209L676 788L256 1307H96V1518H725V1313H541L852 922L1163 1313H995V1518H1573V1307H1413L991 770L1452 207H1616V0H963V199H1161L811 639L467 199H666V0H53V207Z"/><glyph unicode="Y" horiz-adv-x="1645" d="M487 201H702V582L186 1307H53V1518H674V1313H446L834 764L1214 1313H999V1518H1591V1307H1458L950 580V201H1165V0H487V201Z"/><glyph unicode="Z" horiz-adv-x="1358" d="M53 186L983 1321H305V1006H82V1518H1274V1329L344 193H1081V547H1303V0H53V186Z"/><glyph unicode="[" horiz-adv-x="1001" d="M238 1589H811V1386H481V-143H817V-338H238V1589Z"/><glyph unicode="\" horiz-adv-x="1090" d="M0 1518H242L1090 0H848L0 1518Z"/><glyph unicode="]" horiz-adv-x="1001" d="M184 -143H520V1386H193V1589H764V-338H184V-143Z"/><glyph unicode="^" horiz-adv-x="1452" d="M1268 571H1044L727 1231L408 571H184L627 1466H825L1268 571Z"/><glyph unicode="_" horiz-adv-x="928" d="M-76 -102H1004V-295H-76V-102Z"/><glyph unicode="`" horiz-adv-x="1208" d="M291 1456L367 1651L909 1393L848 1243L291 1456Z"/><glyph unicode="a" horiz-adv-x="1266" d="M850 203Q803 99 693 42T432 -16Q261 -16 166 74T70 326Q70 497 196 588T557 680Q693 680 838 649V678Q838 792 817 846T746 928T612 956Q527 956 437 935T272 877L180 1067Q276 1118 397 1146T639 1174Q866 1174 968 1063T1071 696V199H1243V10L897 -14L850 203ZM500 182Q657 182 747 254T838 444V508Q730 530 633 530Q301 530 301 348Q301 182 500 182Z"/><glyph unicode="b" horiz-adv-x="1417" d="M848 -18Q705 -18 599 40T432 203L381 -10L53 10V199H213V1360H43V1563L451 1593V936Q511 1045 620 1107T872 1169Q1085 1169 1208 1010T1331 573Q1331 397 1273 262T1107 54T848 -18ZM803 186Q941 186 1015 283T1090 567Q1090 753 1016 852T803 952Q646 952 549 847T451 567Q451 393 544 290T803 186Z"/><glyph unicode="c" horiz-adv-x="1266" d="M631 -18Q464 -18 341 56T152 263T86 573Q86 737 153 874T343 1089T616 1167Q740 1167 823 1121T946 987V1143H1130V711H940Q908 837 830 894T645 952Q504 952 416 846T328 569Q328 395 416 291T649 186Q767 186 844 244T969 422L1159 342Q1095 169 957 76T631 -18Z"/><glyph unicode="d" horiz-adv-x="1419" d="M547 -18Q402 -18 299 54T141 261T86 573Q86 751 143 885T311 1094T569 1169Q698 1169 800 1115T969 954V1362H760V1563L1204 1593V199H1397V10L1034 -14L985 223Q925 111 811 47T547 -18ZM612 186Q772 186 870 293T969 573Q969 749 874 851T612 954Q474 954 402 856T330 573Q330 386 402 286T612 186Z"/><glyph unicode="e" horiz-adv-x="1225" d="M608 -20Q446 -20 328 53T148 262T86 573Q86 745 153 881T343 1093T631 1169Q1114 1169 1114 610V508H326Q338 351 415 265T631 178Q748 178 828 216T977 344L1120 209Q1029 91 906 36T608 -20ZM633 967Q510 967 431 889T331 672H887V678Q887 818 820 892T633 967Z"/><glyph unicode="f" horiz-adv-x="883" d="M53 199H297V940H53V1143H297V1227Q297 1413 401 1510T694 1608Q822 1608 920 1583L881 1382Q784 1401 705 1401Q532 1401 532 1223V1143H860V940H532V199H860V0H53V199Z"/><glyph unicode="g" horiz-adv-x="1208" d="M496 -367Q256 -367 138 -296T20 -98Q20 2 93 70T295 164Q241 183 212 224T182 319Q182 363 207 405T274 479Q193 527 146 603T98 782Q98 960 231 1064T586 1169Q686 1169 776 1151L1085 1278L1141 1065H915Q1003 1016 1042 947T1081 774Q1081 608 946 509T586 410Q492 410 416 432Q389 403 389 371Q389 339 412 326T488 306T625 297Q857 291 968 262T1127 171T1176 -8Q1176 -186 1001 -276T496 -367ZM514 -193Q735 -193 835 -153T936 -25Q936 43 894 70T747 108T551 119Q425 119 344 74T262 -47Q262 -193 514 -193ZM586 569Q712 569 781 623T850 776Q850 874 782 926T586 979Q463 979 395 926T326 776Q326 678 395 624T586 569Z"/><glyph unicode="h" horiz-adv-x="1413" d="M53 199H215V1360H43V1563L451 1593V952Q502 1056 600 1112T836 1169Q1032 1169 1125 1061T1219 707V199H1391V0H811V199H983V662Q983 822 930 885T754 948Q451 948 451 647V199H625V0H53V199Z"/><glyph unicode="i" horiz-adv-x="743" d="M53 199H260V940H53V1137L498 1163V199H721V0H53V199ZM252 1540H508V1288H252V1540Z"/><glyph unicode="j" horiz-adv-x="608" d="M23 -156Q83 -162 135 -162Q199 -162 221 -129T244 -27V940H43V1137L481 1163V-18Q481 -201 400 -279T141 -358Q65 -358 4 -350L23 -156ZM236 1540H492V1288H236V1540Z"/><glyph unicode="k" horiz-adv-x="1346" d="M53 199H215V1360H43V1563L449 1593V553L840 954H664V1143H1221V940H1071L813 680L1157 199H1323V0H786V195H887L645 539L449 332V195H580V0H53V199Z"/><glyph unicode="l" horiz-adv-x="733" d="M53 199H250V1360H43V1563L487 1593V199H711V0H53V199Z"/><glyph unicode="m" horiz-adv-x="2144" d="M53 199H225V940H53V1137L393 1163L440 936Q488 1048 589 1108T834 1169Q930 1169 994 1143T1099 1068T1169 920Q1216 1038 1323 1103T1579 1169Q1711 1169 1792 1121T1912 976T1950 707V199H2122V0H1552V199H1714V662Q1714 780 1693 837T1625 921T1497 948Q1352 948 1279 877T1206 647V199H1366V0H809V199H969V662Q969 779 949 836T882 921T752 948Q607 948 534 877T461 647V199H623V0H53V199Z"/><glyph unicode="n" horiz-adv-x="1423" d="M53 199H225V940H53V1137L393 1163L440 936Q488 1048 595 1108T846 1169Q1042 1169 1135 1061T1229 707V199H1401V0H821V199H993V662Q993 822 940 885T764 948Q461 948 461 647V199H635V0H53V199Z"/><glyph unicode="o" horiz-adv-x="1303" d="M651 -23Q484 -23 356 51T157 263T86 573Q86 746 156 883T355 1094T651 1169Q817 1169 947 1094T1147 883T1217 573Q1217 400 1147 264T947 52T651 -23ZM651 186Q801 186 889 291T977 569Q977 741 890 846T651 952Q502 952 415 848T328 569Q328 395 415 291T651 186Z"/><glyph unicode="p" horiz-adv-x="1419" d="M43 -145H213V940H43V1137L383 1163L432 913Q493 1034 607 1101T872 1169Q1085 1169 1208 1010T1331 573Q1331 397 1273 262T1107 54T848 -18Q577 -18 451 205V-145H639V-338H43V-145ZM805 186Q943 186 1016 284T1090 567Q1090 756 1017 854T805 952Q646 952 549 847T451 567Q451 391 546 289T805 186Z"/><glyph unicode="q" horiz-adv-x="1419" d="M782 -145H969V215Q907 104 796 43T547 -18Q332 -18 209 141T86 575Q86 753 143 887T311 1095T569 1169Q711 1169 817 1112T987 948L1053 1163L1374 1137V940H1204V-145H1374V-338H782V-145ZM612 186Q770 186 869 294T969 575Q969 751 874 852T612 954Q475 954 403 857T330 575Q330 387 403 287T612 186Z"/><glyph unicode="r" horiz-adv-x="950" d="M53 199H225V940H53V1137L393 1163L442 915Q546 1133 809 1163L858 930Q461 909 461 600V199H670V0H53V199Z"/><glyph unicode="s" horiz-adv-x="1116" d="M612 -16Q480 -16 384 27T252 150V0H76V408H254Q322 168 582 168Q697 168 757 206T817 319Q817 364 793 393T721 439T539 477Q491 485 441 494T343 519T253 558T180 619T130 707T111 831Q111 983 224 1075T516 1167Q619 1167 704 1131T823 1030V1143H1001V784H817Q768 975 547 975Q451 975 399 939T346 834Q346 769 398 732T598 672L700 657Q887 629 969 551T1051 332Q1051 169 931 77T612 -16Z"/><glyph unicode="t" horiz-adv-x="958" d="M535 -16Q378 -16 308 58T238 307V940H23V1143H250L295 1477H475V1143H854V940H475V356Q475 278 487 251T527 211T604 199Q690 199 838 254L907 61Q751 -16 535 -16Z"/><glyph unicode="u" horiz-adv-x="1415" d="M586 -20Q450 -20 366 28T243 172T203 440V940H53V1137L438 1163V475Q438 316 490 251T668 186Q818 186 890 258T963 485V940H758V1137L1200 1163V199H1391V10L1030 -14L985 197Q939 96 833 38T586 -20Z"/><glyph unicode="v" horiz-adv-x="1311" d="M152 940H23V1143H575V944H393L666 199L940 944H776V1143H1288V940H1161L801 -12H514L152 940Z"/><glyph unicode="w" horiz-adv-x="1917" d="M160 940H23V1143H565V940H389L598 254L872 1143H1057L1329 248L1540 940H1350V1143H1894V940H1757L1454 -12H1212L958 797L705 -12H465L160 940Z"/><glyph unicode="x" horiz-adv-x="1333" d="M53 199H178L524 594L213 940H76V1143H610V958H492L709 715L920 958H811V1143H1288V940H1135L836 590L1188 199H1309V0H754V180H899L651 467L408 180H553V0H53V199Z"/><glyph unicode="y" horiz-adv-x="1300" d="M389 -360Q322 -360 243 -346T104 -309L162 -115Q284 -158 371 -158Q435 -158 471 -129T539 -33L152 940H23V1143H573V944H395L665 223L938 944H772V1143H1278V940H1153L743 -80Q683 -232 600 -296T389 -360Z"/><glyph unicode="z" horiz-adv-x="1106" d="M53 203L766 956H283V725H88V1143H1022V938L315 176H858V434H1053V0H53V203Z"/><glyph unicode="{" horiz-adv-x="1077" d="M651 -338Q489 -338 398 -263T307 -56L309 -16Q313 46 363 210Q415 384 415 432Q415 470 395 489T329 517T154 526V725Q282 725 328 733T395 761T415 820Q415 871 363 1043Q339 1120 323 1186T307 1307Q307 1438 400 1513T651 1589H893V1384H723Q638 1384 596 1350T554 1255Q554 1198 605 1023Q656 849 656 793Q656 668 506 627Q583 602 619 561T656 458Q656 402 605 228Q554 53 554 -4Q554 -68 599 -103T723 -139H893V-338H651Z"/><glyph unicode="|" horiz-adv-x="719" d="M238 1589H481V-338H238V1589Z"/><glyph unicode="}" horiz-adv-x="1077" d="M184 -139H354Q431 -139 477 -104T523 -4Q523 53 472 228Q421 402 421 458Q421 521 458 562T571 627Q421 668 421 793Q421 849 472 1023Q523 1198 523 1256Q523 1384 354 1384H184V1589H428Q587 1589 678 1513T770 1304L768 1268Q763 1200 716 1043Q690 960 677 906T663 820Q663 781 682 762T747 734T924 725V526Q796 526 750 518T683 490T663 432L664 414Q666 375 716 210Q742 123 755 62T770 -52Q770 -186 679 -262T428 -338H184V-139Z"/><glyph unicode="~" horiz-adv-x="1452" d="M201 664Q281 763 365 814T526 866Q582 866 637 847T743 806T842 764T932 745Q992 745 1036 780T1124 870L1264 758Q1177 650 1099 603T940 555Q884 555 830 574T724 616T625 659T535 678Q481 678 433 643T340 553L201 664Z"/><glyph unicode=" " horiz-adv-x="461"/><glyph unicode="¡" horiz-adv-x="778" d="M291 1071H489L528 0H250L291 1071ZM244 1518H535V1227H244V1518Z"/><glyph unicode="¢" horiz-adv-x="1208" d="M516 -6Q313 25 200 175T86 573Q86 718 139 845T290 1054T516 1156V1317H713V1152Q868 1117 926 987V1143H1110V711H920Q895 805 846 867T707 947V185Q792 202 850 260T948 422L1139 342Q1083 183 975 96T713 -9V-193H516V-6ZM328 569Q328 437 380 338T522 200V932Q433 895 381 797T328 569Z"/><glyph unicode="£" horiz-adv-x="1356" d="M61 184Q229 223 303 280T377 434Q377 494 361 544T324 645H61V823H250Q203 950 203 1069Q203 1258 334 1373T688 1489Q837 1489 961 1428T1163 1262L1010 1116Q951 1190 864 1233T684 1276Q573 1276 507 1216T440 1053Q440 948 487 823H920V645H553Q600 524 600 438Q600 350 561 274Q700 195 858 195Q1028 195 1028 352Q1028 418 1008 485L1212 528Q1241 429 1241 348Q1241 -12 864 -12Q641 -12 436 115Q306 23 106 -16L61 184Z"/><glyph unicode="¤" horiz-adv-x="1452" d="M104 266L299 463Q231 584 231 729Q231 872 297 987L104 1182L252 1333L442 1139Q559 1212 709 1212Q855 1212 975 1137L1171 1335L1319 1184L1120 987Q1186 868 1186 729Q1186 580 1114 459L1307 266L1161 117L965 311Q852 244 709 244Q564 244 449 311L252 117L104 266ZM709 420Q829 420 906 506T983 725Q983 860 906 945T709 1030Q590 1030 511 945T432 725Q432 593 510 507T709 420Z"/><glyph unicode="¥" horiz-adv-x="1395" d="M395 193H584V485H78V643H557L473 772H78V930H362L143 1262H-4V1466H592V1268H389L700 768L1006 1268H821V1466H1401V1262H1241L1022 930H1305V772H915L831 643H1305V485H805V193H991V0H395V193Z"/><glyph unicode="¦" horiz-adv-x="719" d="M238 469H481V-338H238V469ZM238 1589H481V782H238V1589Z"/><glyph unicode="§" horiz-adv-x="1239" d="M707 -344Q607 -344 526 -308T410 -205V-319H233V39H416Q440 -55 503 -102T676 -150Q862 -150 862 -8Q862 53 806 90T635 149Q417 190 327 233T190 352T143 535Q143 640 195 723T356 848Q172 927 172 1137Q172 1289 285 1382T578 1475Q682 1475 766 1438T885 1335V1450H1063V1092H879Q856 1182 789 1231T608 1280Q512 1280 460 1244T408 1139Q408 1077 464 1040T640 981Q857 942 951 898T1093 779T1141 594Q1141 366 909 287Q1012 239 1056 171T1100 -8Q1100 -160 992 -252T707 -344ZM717 346Q803 346 854 401T905 559Q905 627 859 676T733 754T567 782Q473 782 426 727T379 571Q379 502 423 452T546 374T717 346Z"/><glyph unicode="¨" horiz-adv-x="1208" d="M283 1522H504V1278H283V1522ZM705 1522H926V1278H705V1522Z"/><glyph unicode="©" horiz-adv-x="1679" d="M842 -25Q636 -25 460 80T182 367T80 760Q80 974 184 1157T464 1442T842 1544Q1044 1544 1218 1442T1497 1157T1602 760Q1602 550 1501 369T1225 81T842 -25ZM842 86Q1019 86 1167 176T1399 422T1483 760Q1483 943 1399 1099T1167 1344T842 1434Q664 1434 516 1345T282 1100T197 760Q197 576 282 419T517 174T842 86ZM821 268Q696 268 594 327T437 494T381 741Q381 885 439 996T598 1168T817 1229Q912 1229 975 1200T1079 1108V1212H1227V885H1073Q1025 1069 834 1069Q710 1069 632 980T553 741Q553 595 631 509T836 422Q935 422 1001 472T1104 633L1253 582Q1201 430 1090 349T821 268Z"/><glyph unicode="ª" horiz-adv-x="1237" d="M791 694Q753 611 665 567T449 522Q312 522 234 596T156 801Q156 942 259 1017T551 1092Q653 1092 778 1067V1087Q778 1180 761 1221T704 1284T594 1305Q442 1305 322 1241L250 1403Q411 1489 618 1489Q807 1489 892 1398T977 1106V707H1102V547L827 524L791 694ZM504 694Q636 694 707 748T778 897V944Q671 963 610 963Q487 963 420 931T352 819Q352 694 504 694ZM201 391H1020V205H201V391Z"/><glyph unicode="«" horiz-adv-x="1444" d="M176 571L485 1143H690L414 571L690 0H485L176 571ZM692 571L1001 1143H1206L930 571L1206 0H1001L692 571Z"/><glyph unicode="¬" horiz-adv-x="1452" d="M1001 614H193V829H1235V207H1001V614Z"/><glyph unicode="­" horiz-adv-x="897" d="M92 756H803V543H92V756Z"/><glyph unicode="®" horiz-adv-x="1460" d="M731 352Q573 352 439 433T229 651T152 948Q152 1107 229 1245T441 1464T731 1544Q886 1544 1020 1465T1231 1246T1309 948Q1309 788 1231 649T1020 431T731 352ZM731 444Q863 444 972 510T1145 694T1208 948Q1208 1084 1146 1200T973 1383T731 1450Q599 1450 487 1383T314 1200T252 948Q252 811 315 694T488 511T731 444ZM418 731H500V1180H418V1292H768Q889 1292 952 1236T1016 1075Q1016 917 872 879L979 731H1067V623H782V729H834L743 866H629V729H698V623H418V731ZM772 967Q887 967 887 1073Q887 1182 760 1182H629V967H772Z"/><glyph unicode="¯" horiz-adv-x="1208" d="M283 1470H926V1278H283V1470Z"/><glyph unicode="°" horiz-adv-x="1165" d="M582 508Q445 508 338 571T172 747T113 997Q113 1135 172 1248T338 1425T582 1489Q720 1489 828 1425T994 1248T1053 997Q1053 859 995 748T829 572T582 508ZM582 692Q702 692 776 777T850 995Q850 1128 776 1212T582 1296Q462 1296 389 1213T315 995Q315 861 388 777T582 692Z"/><glyph unicode="±" horiz-adv-x="1452" d="M610 692H205V907H610V1290H842V907H1247V692H842V305H610V692ZM205 215H1247V0H205V215Z"/><glyph unicode="²" horiz-adv-x="1038" d="M121 741L399 930Q557 1044 614 1116T672 1280Q672 1345 631 1382T510 1419Q427 1419 372 1390T270 1307L119 1409Q188 1503 288 1549T532 1595Q687 1595 777 1517T868 1298Q868 1173 797 1071T535 834L328 696H727V854H889V553H121V741Z"/><glyph unicode="³" horiz-adv-x="1004" d="M485 535Q176 535 68 756L233 829Q265 764 322 732T473 700Q579 700 635 743T692 866Q692 956 614 992T360 1028V1167Q511 1167 582 1199T653 1305Q653 1425 485 1425Q327 1425 254 1325L102 1415Q169 1508 267 1550T498 1593Q657 1593 751 1526T846 1348Q846 1263 793 1202T653 1120Q765 1098 827 1027T889 854Q889 706 778 621T485 535Z"/><glyph unicode="´" horiz-adv-x="1208" d="M299 1393L842 1649L918 1454L360 1243L299 1393Z"/><glyph unicode="µ" horiz-adv-x="1425" d="M213 940H43V1137L451 1159V475Q451 316 503 251T680 186Q830 186 902 259T975 485V940H768V1137L1210 1159V199H1403V4L1042 -20L995 197Q906 -6 608 -6Q491 -6 451 55V-338H215L213 940Z"/><glyph unicode="¶" horiz-adv-x="1452" d="M319 199H514V537Q125 597 125 989Q125 1222 265 1343T682 1464H1382V1262H1182V199H1382V0H954V526H743V0H319V199ZM954 711V1257H702Q523 1257 443 1192T362 983Q362 843 442 777T686 711H954Z"/><glyph unicode="·" horiz-adv-x="545" d="M127 891H418V592H127V891Z"/><glyph unicode="¸" horiz-adv-x="1208" d="M582 -473Q519 -473 455 -456T340 -410L410 -285Q452 -306 500 -317T586 -328Q660 -328 691 -305T723 -248Q723 -197 685 -184T600 -171L549 -174L475 -133L508 14H659L641 -92Q675 -82 710 -82Q793 -82 843 -130T893 -258Q893 -357 810 -415T582 -473Z"/><glyph unicode="¹" horiz-adv-x="784" d="M143 711H328V1391Q256 1366 143 1366V1542Q336 1542 410 1579H522V711H684V553H143V711Z"/><glyph unicode="º" horiz-adv-x="1223" d="M610 520Q475 520 370 581T209 754T152 1006Q152 1146 209 1257T370 1430T610 1491Q745 1491 850 1430T1013 1259T1071 1006Q1071 865 1014 754T851 582T610 520ZM610 702Q725 702 794 784T864 1001Q864 1135 796 1217T610 1300Q496 1300 427 1218T358 1001Q358 867 428 785T610 702ZM201 391H1022V205H201V391Z"/><glyph unicode="»" horiz-adv-x="1444" d="M442 0H238L514 571L238 1143H442L752 571L442 0ZM958 0H754L1030 571L754 1143H958L1268 571L958 0Z"/><glyph unicode="¼" horiz-adv-x="2140" d="M102 604H287V1286Q218 1262 102 1262V1436Q295 1436 369 1473H481V604H643V446H102V604ZM1354 1466H1577L729 0H504L1354 1466ZM1567 152H1716V270H1194V401L1659 1026H1874L1417 418H1720L1767 631H1901V418H2071V270H1901V152H2025V0H1567V152Z"/><glyph unicode="½" horiz-adv-x="2253" d="M102 604H287V1286Q218 1262 102 1262V1436Q295 1436 369 1473H481V604H643V446H102V604ZM1354 1466H1577L729 0H504L1354 1466ZM1374 188L1653 377Q1824 502 1875 571T1927 727Q1927 793 1886 830T1763 868Q1682 868 1627 838T1526 756L1374 856Q1442 952 1544 997T1788 1042Q1947 1042 2035 963T2124 745Q2124 623 2052 519T1790 281L1583 143H1982V301H2144V0H1374V188Z"/><glyph unicode="¾" horiz-adv-x="2265" d="M1479 1466H1702L852 0H629L1479 1466ZM1692 152H1841V270H1319V401L1784 1026H1997L1542 418H1845L1892 631H2025V418H2195V270H2025V152H2150V0H1692V152ZM455 430Q145 430 37 651L203 725Q235 662 291 629T440 596Q547 596 604 638T662 762Q662 852 585 889T330 926V1065Q481 1065 552 1097T623 1202Q623 1256 583 1289T453 1323Q294 1323 223 1221L72 1313Q194 1489 467 1489Q626 1489 720 1422T815 1243Q815 1158 762 1097T623 1016Q732 994 794 925T856 750Q856 601 746 516T455 430Z"/><glyph unicode="¿" horiz-adv-x="1389" d="M668 -23Q424 -23 292 80T160 369Q160 493 233 594T465 774Q560 822 596 869T634 986Q633 1030 625 1090H862Q870 1029 870 979Q870 861 811 784T610 633Q483 565 442 514T401 391Q401 292 472 243T680 193Q802 195 888 237T1036 365L1229 246Q1132 105 996 41T668 -23ZM598 1518H887V1245H598V1518Z"/><glyph unicode="À" horiz-adv-x="1686" d="M53 207H178L707 1528H985L1509 207H1630V0H1053V199H1262L1165 438H502L408 199H590V0H53V207ZM1098 618L834 1286L571 618H1098ZM514 1806L590 2001L1132 1743L1071 1593L514 1806Z"/><glyph unicode="Á" horiz-adv-x="1686" d="M53 207H178L707 1528H985L1509 207H1630V0H1053V199H1262L1165 438H502L408 199H590V0H53V207ZM1098 618L834 1286L571 618H1098ZM551 1743L1094 1999L1170 1804L612 1593L551 1743Z"/><glyph unicode="Â" horiz-adv-x="1686" d="M53 207H178L707 1528H985L1509 207H1630V0H1053V199H1262L1165 438H502L408 199H590V0H53V207ZM1098 618L834 1286L571 618H1098ZM441 1743L785 1949H897L1246 1743L1180 1610L842 1747L504 1610L441 1743Z"/><glyph unicode="Ã" horiz-adv-x="1686" d="M53 207H178L707 1528H985L1509 207H1630V0H1053V199H1262L1165 438H502L408 199H590V0H53V207ZM1098 618L834 1286L571 618H1098ZM398 1741Q473 1834 554 1885T703 1937Q755 1937 791 1920T857 1883T912 1846T971 1829Q1051 1829 1143 1947L1282 1837Q1218 1751 1135 1696T979 1640Q932 1640 898 1656T834 1693T775 1730T711 1747Q674 1747 627 1716T537 1628L398 1741Z"/><glyph unicode="Ä" horiz-adv-x="1686" d="M53 207H178L707 1528H985L1509 207H1630V0H1053V199H1262L1165 438H502L408 199H590V0H53V207ZM1098 618L834 1286L571 618H1098ZM521 1872H742V1628H521V1872ZM943 1872H1164V1628H943V1872Z"/><glyph unicode="Å" horiz-adv-x="1686" d="M53 207H178L676 1456Q623 1485 592 1539T561 1663Q561 1785 642 1868T842 1952Q956 1952 1039 1868T1122 1663Q1122 1597 1092 1544T1012 1460L1509 207H1630V0H1053V199H1262L1165 438H502L408 199H590V0H53V207ZM842 1518Q902 1518 941 1559T981 1663Q981 1727 941 1771T842 1815Q784 1815 743 1772T702 1663Q702 1600 742 1559T842 1518ZM1098 618L834 1286L571 618H1098Z"/><glyph unicode="Æ" horiz-adv-x="2320" d="M53 207H205L891 1307H719V1518H2189V1006H1966V1311H1391V866H1862V666H1391V203H1982V547H2206V0H940V199H1149V455H604L446 199H633V0H53V207ZM1149 639V1331L719 639H1149Z"/><glyph unicode="Ç" horiz-adv-x="1595" d="M801 -23Q597 -23 431 73T174 344T82 748Q82 976 172 1155T429 1438T793 1542Q1130 1542 1245 1323V1518H1454V1006H1231Q1152 1313 817 1313Q678 1313 567 1245T394 1049T332 752Q332 582 393 457T566 264T821 197Q1167 197 1282 543L1491 469Q1415 235 1233 106T801 -23ZM775 -473Q712 -473 648 -456T533 -410L603 -285Q645 -306 693 -317T779 -328Q853 -328 884 -305T916 -248Q916 -197 878 -184T793 -171L742 -174L668 -133L701 14H852L834 -92Q868 -82 903 -82Q986 -82 1036 -130T1086 -258Q1086 -357 1003 -415T775 -473Z"/><glyph unicode="È" horiz-adv-x="1421" d="M53 207H246V1307H53V1518H1290V1006H1069V1313H494V866H948V666H494V199H1085V547H1307V0H53V207ZM395 1806L471 2001L1013 1743L952 1593L395 1806Z"/><glyph unicode="É" horiz-adv-x="1421" d="M403 1743L946 1999L1022 1804L464 1593L403 1743ZM53 207H246V1307H53V1518H1290V1006H1069V1313H494V866H948V666H494V199H1085V547H1307V0H53V207Z"/><glyph unicode="Ê" horiz-adv-x="1421" d="M307 1743L651 1949H763L1112 1743L1046 1610L708 1747L370 1610L307 1743ZM53 207H246V1307H53V1518H1290V1006H1069V1313H494V866H948V666H494V199H1085V547H1307V0H53V207Z"/><glyph unicode="Ë" horiz-adv-x="1421" d="M387 1872H608V1628H387V1872ZM809 1872H1030V1628H809V1872ZM53 207H246V1307H53V1518H1290V1006H1069V1313H494V866H948V666H494V199H1085V547H1307V0H53V207Z"/><glyph unicode="Ì" horiz-adv-x="795" d="M53 207H274V1307H53V1518H741V1307H520V207H741V0H53V207ZM85 1806L161 2001L703 1743L642 1593L85 1806Z"/><glyph unicode="Í" horiz-adv-x="795" d="M53 207H274V1307H53V1518H741V1307H520V207H741V0H53V207ZM93 1743L636 1999L712 1804L154 1593L93 1743Z"/><glyph unicode="Î" horiz-adv-x="795" d="M53 207H274V1307H53V1518H741V1307H520V207H741V0H53V207ZM-3 1743L341 1949H453L802 1743L736 1610L398 1747L60 1610L-3 1743Z"/><glyph unicode="Ï" horiz-adv-x="795" d="M53 207H274V1307H53V1518H741V1307H520V207H741V0H53V207ZM77 1872H298V1628H77V1872ZM499 1872H720V1628H499V1872Z"/><glyph unicode="Ð" horiz-adv-x="1591" d="M53 207H246V674H82V879H246V1307H53V1518H729Q1109 1518 1310 1326T1511 760Q1511 386 1299 193T700 0H53V207ZM735 209Q995 209 1127 349T1260 760Q1260 1038 1127 1171T715 1305H492V879H786V674H492V209H735Z"/><glyph unicode="Ñ" horiz-adv-x="1761" d="M53 207H246V1307H53V1518H543L1305 383V1307H1114V1518H1708V1307H1534V0H1296L475 1206V207H702V0H53V207ZM436 1741Q511 1834 592 1885T741 1937Q793 1937 829 1920T895 1883T950 1846T1009 1829Q1089 1829 1181 1947L1320 1837Q1256 1751 1173 1696T1017 1640Q970 1640 936 1656T872 1693T813 1730T749 1747Q712 1747 665 1716T575 1628L436 1741Z"/><glyph unicode="Ò" horiz-adv-x="1677" d="M840 -25Q627 -25 450 75T176 351T80 760Q80 989 175 1164T448 1441T840 1542Q1054 1542 1232 1440T1504 1162T1597 760Q1597 532 1504 356T1232 78T840 -25ZM840 197Q983 197 1099 265T1281 461T1346 758Q1346 926 1281 1051T1101 1245T840 1313Q695 1313 579 1246T397 1052T332 758Q332 588 397 461T579 265T840 197ZM522 1806L598 2001L1140 1743L1079 1593L522 1806Z"/><glyph unicode="Ó" horiz-adv-x="1677" d="M530 1743L1073 1999L1149 1804L591 1593L530 1743ZM840 -25Q627 -25 450 75T176 351T80 760Q80 989 175 1164T448 1441T840 1542Q1054 1542 1232 1440T1504 1162T1597 760Q1597 532 1504 356T1232 78T840 -25ZM840 197Q983 197 1099 265T1281 461T1346 758Q1346 926 1281 1051T1101 1245T840 1313Q695 1313 579 1246T397 1052T332 758Q332 588 397 461T579 265T840 197Z"/><glyph unicode="Ô" horiz-adv-x="1677" d="M434 1743L778 1949H890L1239 1743L1173 1610L835 1747L497 1610L434 1743ZM840 -25Q627 -25 450 75T176 351T80 760Q80 989 175 1164T448 1441T840 1542Q1054 1542 1232 1440T1504 1162T1597 760Q1597 532 1504 356T1232 78T840 -25ZM840 197Q983 197 1099 265T1281 461T1346 758Q1346 926 1281 1051T1101 1245T840 1313Q695 1313 579 1246T397 1052T332 758Q332 588 397 461T579 265T840 197Z"/><glyph unicode="Õ" horiz-adv-x="1677" d="M840 -25Q627 -25 450 75T176 351T80 760Q80 989 175 1164T448 1441T840 1542Q1054 1542 1232 1440T1504 1162T1597 760Q1597 532 1504 356T1232 78T840 -25ZM840 197Q983 197 1099 265T1281 461T1346 758Q1346 926 1281 1051T1101 1245T840 1313Q695 1313 579 1246T397 1052T332 758Q332 588 397 461T579 265T840 197ZM391 1741Q466 1834 547 1885T696 1937Q748 1937 784 1920T850 1883T905 1846T964 1829Q1044 1829 1136 1947L1275 1837Q1211 1751 1128 1696T972 1640Q925 1640 891 1656T827 1693T768 1730T704 1747Q667 1747 620 1716T530 1628L391 1741Z"/><glyph unicode="Ö" horiz-adv-x="1677" d="M514 1872H735V1628H514V1872ZM936 1872H1157V1628H936V1872ZM840 -25Q627 -25 450 75T176 351T80 760Q80 989 175 1164T448 1441T840 1542Q1054 1542 1232 1440T1504 1162T1597 760Q1597 532 1504 356T1232 78T840 -25ZM840 197Q983 197 1099 265T1281 461T1346 758Q1346 926 1281 1051T1101 1245T840 1313Q695 1313 579 1246T397 1052T332 758Q332 588 397 461T579 265T840 197Z"/><glyph unicode="×" horiz-adv-x="1452" d="M264 408L578 723L264 1036L412 1186L727 872L1040 1186L1186 1036L872 723L1186 408L1040 258L727 573L410 258L264 408Z"/><glyph unicode="Ø" horiz-adv-x="1677" d="M840 -25Q679 -25 529 37L440 -111H219L362 133Q224 240 152 400T80 760Q80 989 175 1164T448 1441T840 1542Q1005 1542 1150 1480L1237 1628H1460L1317 1383Q1597 1163 1597 760Q1597 532 1504 356T1232 78T840 -25ZM840 190Q986 190 1102 259T1285 457T1352 758Q1352 1030 1190 1185L632 231Q728 190 840 190ZM326 758Q326 484 486 328L1042 1280Q946 1319 840 1319Q693 1319 576 1251T392 1056T326 758Z"/><glyph unicode="Ù" horiz-adv-x="1749" d="M872 -25Q677 -25 532 43T306 248T225 563V1307H53V1518H731V1311H473V586Q473 395 577 295T879 195Q1077 195 1179 293T1282 586V1311H1030V1518H1696V1307H1522V563Q1522 384 1442 248T1215 44T872 -25ZM559 1806L635 2001L1177 1743L1116 1593L559 1806Z"/><glyph unicode="Ú" horiz-adv-x="1749" d="M567 1743L1110 1999L1186 1804L628 1593L567 1743ZM872 -25Q677 -25 532 43T306 248T225 563V1307H53V1518H731V1311H473V586Q473 395 577 295T879 195Q1077 195 1179 293T1282 586V1311H1030V1518H1696V1307H1522V563Q1522 384 1442 248T1215 44T872 -25Z"/><glyph unicode="Û" horiz-adv-x="1749" d="M475 1743L819 1949H931L1280 1743L1214 1610L876 1747L538 1610L475 1743ZM872 -25Q677 -25 532 43T306 248T225 563V1307H53V1518H731V1311H473V586Q473 395 577 295T879 195Q1077 195 1179 293T1282 586V1311H1030V1518H1696V1307H1522V563Q1522 384 1442 248T1215 44T872 -25Z"/><glyph unicode="Ü" horiz-adv-x="1749" d="M553 1872H774V1628H553V1872ZM975 1872H1196V1628H975V1872ZM872 -25Q677 -25 532 43T306 248T225 563V1307H53V1518H731V1311H473V586Q473 395 577 295T879 195Q1077 195 1179 293T1282 586V1311H1030V1518H1696V1307H1522V563Q1522 384 1442 248T1215 44T872 -25Z"/><glyph unicode="Ý" horiz-adv-x="1645" d="M487 201H702V582L186 1307H53V1518H674V1313H446L834 764L1214 1313H999V1518H1591V1307H1458L950 580V201H1165V0H487V201ZM516 1743L1059 1999L1135 1804L577 1593L516 1743Z"/><glyph unicode="Þ" horiz-adv-x="1503" d="M53 207H246V1307H53V1518H492V1315H870Q1141 1315 1283 1196T1425 842Q1425 611 1285 492T862 373H492V201H731V0H53V207ZM881 561Q1176 561 1176 834Q1176 981 1097 1046T860 1112H492V561H881Z"/><glyph unicode="ß" horiz-adv-x="1436" d="M838 -16Q711 -16 614 6L659 221Q719 205 821 205Q960 205 1038 272T1116 483Q1116 630 1008 697T662 764V967Q1018 967 1018 1204Q1018 1415 780 1415Q666 1415 599 1364T532 1229V0H53V199H297V940H53V1143H297V1241Q297 1420 426 1521T782 1622Q1012 1622 1132 1527T1253 1245Q1253 1118 1181 1022T985 889Q1156 858 1256 749T1356 473Q1356 233 1223 109T838 -16Z"/><glyph unicode="à" horiz-adv-x="1266" d="M850 203Q803 99 693 42T432 -16Q261 -16 166 74T70 326Q70 497 196 588T557 680Q693 680 838 649V678Q838 792 817 846T746 928T612 956Q527 956 437 935T272 877L180 1067Q276 1118 397 1146T639 1174Q866 1174 968 1063T1071 696V199H1243V10L897 -14L850 203ZM500 182Q657 182 747 254T838 444V508Q730 530 633 530Q301 530 301 348Q301 182 500 182ZM318 1456L394 1651L936 1393L875 1243L318 1456Z"/><glyph unicode="á" horiz-adv-x="1266" d="M850 203Q803 99 693 42T432 -16Q261 -16 166 74T70 326Q70 497 196 588T557 680Q693 680 838 649V678Q838 792 817 846T746 928T612 956Q527 956 437 935T272 877L180 1067Q276 1118 397 1146T639 1174Q866 1174 968 1063T1071 696V199H1243V10L897 -14L850 203ZM500 182Q657 182 747 254T838 444V508Q730 530 633 530Q301 530 301 348Q301 182 500 182ZM326 1393L869 1649L945 1454L387 1243L326 1393Z"/><glyph unicode="â" horiz-adv-x="1266" d="M850 203Q803 99 693 42T432 -16Q261 -16 166 74T70 326Q70 497 196 588T557 680Q693 680 838 649V678Q838 792 817 846T746 928T612 956Q527 956 437 935T272 877L180 1067Q276 1118 397 1146T639 1174Q866 1174 968 1063T1071 696V199H1243V10L897 -14L850 203ZM500 182Q657 182 747 254T838 444V508Q730 530 633 530Q301 530 301 348Q301 182 500 182ZM230 1393L574 1599H686L1035 1393L969 1260L631 1397L293 1260L230 1393Z"/><glyph unicode="ã" horiz-adv-x="1266" d="M850 203Q803 99 693 42T432 -16Q261 -16 166 74T70 326Q70 497 196 588T557 680Q693 680 838 649V678Q838 792 817 846T746 928T612 956Q527 956 437 935T272 877L180 1067Q276 1118 397 1146T639 1174Q866 1174 968 1063T1071 696V199H1243V10L897 -14L850 203ZM500 182Q657 182 747 254T838 444V508Q730 530 633 530Q301 530 301 348Q301 182 500 182ZM187 1391Q262 1484 343 1535T492 1587Q544 1587 580 1570T646 1533T701 1496T760 1479Q840 1479 932 1597L1071 1487Q1007 1401 924 1346T768 1290Q721 1290 687 1306T623 1343T564 1380T500 1397Q463 1397 416 1366T326 1278L187 1391Z"/><glyph unicode="ä" horiz-adv-x="1266" d="M850 203Q803 99 693 42T432 -16Q261 -16 166 74T70 326Q70 497 196 588T557 680Q693 680 838 649V678Q838 792 817 846T746 928T612 956Q527 956 437 935T272 877L180 1067Q276 1118 397 1146T639 1174Q866 1174 968 1063T1071 696V199H1243V10L897 -14L850 203ZM500 182Q657 182 747 254T838 444V508Q730 530 633 530Q301 530 301 348Q301 182 500 182ZM310 1522H531V1278H310V1522ZM732 1522H953V1278H732V1522Z"/><glyph unicode="å" horiz-adv-x="1266" d="M850 203Q803 99 693 42T432 -16Q261 -16 166 74T70 326Q70 497 196 588T557 680Q693 680 838 649V678Q838 792 817 846T746 928T612 956Q527 956 437 935T272 877L180 1067Q276 1118 397 1146T639 1174Q866 1174 968 1063T1071 696V199H1243V10L897 -14L850 203ZM500 182Q657 182 747 254T838 444V508Q730 530 633 530Q301 530 301 348Q301 182 500 182ZM631 1243Q512 1243 431 1326T349 1528Q349 1649 430 1732T631 1815Q747 1815 829 1732T912 1528Q912 1410 830 1327T631 1243ZM631 1380Q689 1380 728 1422T768 1528Q768 1593 729 1635T631 1677Q571 1677 532 1634T492 1528Q492 1466 531 1423T631 1380Z"/><glyph unicode="æ" horiz-adv-x="1956" d="M432 -16Q261 -16 166 74T70 326Q70 499 196 589T557 680Q693 680 838 649V678Q838 793 816 847T745 928T612 956Q434 956 270 877L180 1067Q276 1118 397 1146T639 1174Q772 1174 852 1134T980 1000Q1123 1169 1364 1169Q1606 1169 1725 1030T1845 610V508H1057Q1069 351 1146 265T1362 178Q1477 178 1557 215T1708 344L1851 209Q1765 95 1642 38T1339 -20Q1036 -20 913 230Q769 -16 432 -16ZM500 182Q657 182 747 254T838 444V508Q730 530 633 530Q301 530 301 348Q301 182 500 182ZM1366 967Q1241 967 1162 889T1062 672H1618V678Q1618 817 1552 892T1366 967Z"/><glyph unicode="ç" horiz-adv-x="1266" d="M631 -18Q464 -18 341 56T152 263T86 573Q86 737 153 874T343 1089T616 1167Q740 1167 823 1121T946 987V1143H1130V711H940Q908 837 830 894T645 952Q504 952 416 846T328 569Q328 395 416 291T649 186Q767 186 844 244T969 422L1159 342Q1095 169 957 76T631 -18ZM609 -473Q546 -473 482 -456T367 -410L437 -285Q479 -306 527 -317T613 -328Q687 -328 718 -305T750 -248Q750 -197 712 -184T627 -171L576 -174L502 -133L535 14H686L668 -92Q702 -82 737 -82Q820 -82 870 -130T920 -258Q920 -357 837 -415T609 -473Z"/><glyph unicode="è" horiz-adv-x="1225" d="M608 -20Q446 -20 328 53T148 262T86 573Q86 745 153 881T343 1093T631 1169Q1114 1169 1114 610V508H326Q338 351 415 265T631 178Q748 178 828 216T977 344L1120 209Q1029 91 906 36T608 -20ZM633 967Q510 967 431 889T331 672H887V678Q887 818 820 892T633 967ZM301 1456L377 1651L919 1393L858 1243L301 1456Z"/><glyph unicode="é" horiz-adv-x="1225" d="M309 1393L852 1649L928 1454L370 1243L309 1393ZM608 -20Q446 -20 328 53T148 262T86 573Q86 745 153 881T343 1093T631 1169Q1114 1169 1114 610V508H326Q338 351 415 265T631 178Q748 178 828 216T977 344L1120 209Q1029 91 906 36T608 -20ZM633 967Q510 967 431 889T331 672H887V678Q887 818 820 892T633 967Z"/><glyph unicode="ê" horiz-adv-x="1225" d="M213 1393L557 1599H669L1018 1393L952 1260L614 1397L276 1260L213 1393ZM608 -20Q446 -20 328 53T148 262T86 573Q86 745 153 881T343 1093T631 1169Q1114 1169 1114 610V508H326Q338 351 415 265T631 178Q748 178 828 216T977 344L1120 209Q1029 91 906 36T608 -20ZM633 967Q510 967 431 889T331 672H887V678Q887 818 820 892T633 967Z"/><glyph unicode="ë" horiz-adv-x="1225" d="M293 1522H514V1278H293V1522ZM715 1522H936V1278H715V1522ZM608 -20Q446 -20 328 53T148 262T86 573Q86 745 153 881T343 1093T631 1169Q1114 1169 1114 610V508H326Q338 351 415 265T631 178Q748 178 828 216T977 344L1120 209Q1029 91 906 36T608 -20ZM633 967Q510 967 431 889T331 672H887V678Q887 818 820 892T633 967Z"/><glyph unicode="ì" horiz-adv-x="743" d="M53 199H260V940H53V1141L498 1163V199H721V0H53V199ZM-11 1456L65 1651L607 1393L546 1243L-11 1456Z"/><glyph unicode="í" horiz-adv-x="743" d="M69 1393L612 1649L688 1454L130 1243L69 1393ZM53 199H260V940H53V1141L498 1163V199H721V0H53V199Z"/><glyph unicode="î" horiz-adv-x="743" d="M-27 1393L317 1599H429L778 1393L712 1260L374 1397L36 1260L-27 1393ZM53 199H260V940H53V1141L498 1163V199H721V0H53V199Z"/><glyph unicode="ï" horiz-adv-x="743" d="M53 1522H274V1278H53V1522ZM475 1522H696V1278H475V1522ZM53 199H260V940H53V1141L498 1163V199H721V0H53V199Z"/><glyph unicode="ð" horiz-adv-x="1305" d="M600 1356L729 1394Q690 1442 637 1491L815 1630Q900 1556 968 1463L1196 1530V1354L1062 1315Q1219 1021 1219 610Q1219 424 1147 279T945 55T651 -23Q482 -23 354 50T156 255T86 555Q86 717 150 845T333 1045T606 1116Q716 1116 801 1076T936 965Q900 1120 828 1248L600 1182V1356ZM651 190Q802 190 889 293T977 559Q977 722 890 824T651 926Q502 926 415 825T328 559Q328 393 415 292T651 190Z"/><glyph unicode="ñ" horiz-adv-x="1423" d="M53 199H225V940H53V1137L393 1163L440 936Q488 1048 595 1108T846 1169Q1042 1169 1135 1061T1229 707V199H1401V0H821V199H993V662Q993 822 940 885T764 948Q461 948 461 647V199H635V0H53V199ZM266 1391Q341 1484 422 1535T571 1587Q623 1587 659 1570T725 1533T780 1496T839 1479Q919 1479 1011 1597L1150 1487Q1086 1401 1003 1346T847 1290Q800 1290 766 1306T702 1343T643 1380T579 1397Q542 1397 495 1366T405 1278L266 1391Z"/><glyph unicode="ò" horiz-adv-x="1303" d="M651 -23Q484 -23 356 51T157 263T86 573Q86 746 156 883T355 1094T651 1169Q817 1169 947 1094T1147 883T1217 573Q1217 400 1147 264T947 52T651 -23ZM651 186Q801 186 889 291T977 569Q977 741 890 846T651 952Q502 952 415 848T328 569Q328 395 415 291T651 186ZM338 1456L414 1651L956 1393L895 1243L338 1456Z"/><glyph unicode="ó" horiz-adv-x="1303" d="M346 1393L889 1649L965 1454L407 1243L346 1393ZM651 -23Q484 -23 356 51T157 263T86 573Q86 746 156 883T355 1094T651 1169Q817 1169 947 1094T1147 883T1217 573Q1217 400 1147 264T947 52T651 -23ZM651 186Q801 186 889 291T977 569Q977 741 890 846T651 952Q502 952 415 848T328 569Q328 395 415 291T651 186Z"/><glyph unicode="ô" horiz-adv-x="1303" d="M250 1393L594 1599H706L1055 1393L989 1260L651 1397L313 1260L250 1393ZM651 -23Q484 -23 356 51T157 263T86 573Q86 746 156 883T355 1094T651 1169Q817 1169 947 1094T1147 883T1217 573Q1217 400 1147 264T947 52T651 -23ZM651 186Q801 186 889 291T977 569Q977 741 890 846T651 952Q502 952 415 848T328 569Q328 395 415 291T651 186Z"/><glyph unicode="õ" horiz-adv-x="1303" d="M651 -23Q484 -23 356 51T157 263T86 573Q86 746 156 883T355 1094T651 1169Q817 1169 947 1094T1147 883T1217 573Q1217 400 1147 264T947 52T651 -23ZM651 186Q801 186 889 291T977 569Q977 741 890 846T651 952Q502 952 415 848T328 569Q328 395 415 291T651 186ZM207 1391Q282 1484 363 1535T512 1587Q564 1587 600 1570T666 1533T721 1496T780 1479Q860 1479 952 1597L1091 1487Q1027 1401 944 1346T788 1290Q741 1290 707 1306T643 1343T584 1380T520 1397Q483 1397 436 1366T346 1278L207 1391Z"/><glyph unicode="ö" horiz-adv-x="1303" d="M330 1522H551V1278H330V1522ZM752 1522H973V1278H752V1522ZM651 -23Q484 -23 356 51T157 263T86 573Q86 746 156 883T355 1094T651 1169Q817 1169 947 1094T1147 883T1217 573Q1217 400 1147 264T947 52T651 -23ZM651 186Q801 186 889 291T977 569Q977 741 890 846T651 952Q502 952 415 848T328 569Q328 395 415 291T651 186Z"/><glyph unicode="÷" horiz-adv-x="1452" d="M594 440H856V195H594V440ZM205 829H1247V614H205V829ZM594 1245H856V999H594V1245Z"/><glyph unicode="ø" horiz-adv-x="1303" d="M651 -23Q530 -23 420 20L342 -106H135L271 113Q181 194 134 311T86 573Q86 746 156 883T355 1094T651 1169Q775 1169 884 1125L971 1264H1174L1032 1033Q1121 952 1169 835T1217 573Q1217 400 1147 264T947 52T651 -23ZM651 180Q805 180 894 287T983 569Q983 737 903 841L521 204Q578 180 651 180ZM322 569Q322 406 398 302L781 937Q724 961 651 961Q499 961 411 855T322 569Z"/><glyph unicode="ù" horiz-adv-x="1415" d="M586 -20Q450 -20 366 28T243 172T203 440V940H53V1137L438 1163V475Q438 316 490 251T668 186Q818 186 890 258T963 485V940H758V1137L1200 1163V199H1391V10L1030 -14L985 197Q939 96 833 38T586 -20ZM391 1456L467 1651L1009 1393L948 1243L391 1456Z"/><glyph unicode="ú" horiz-adv-x="1415" d="M399 1393L942 1649L1018 1454L460 1243L399 1393ZM586 -20Q450 -20 366 28T243 172T203 440V940H53V1137L438 1163V475Q438 316 490 251T668 186Q818 186 890 258T963 485V940H758V1137L1200 1163V199H1391V10L1030 -14L985 197Q939 96 833 38T586 -20Z"/><glyph unicode="û" horiz-adv-x="1415" d="M291 1393L635 1599H747L1096 1393L1030 1260L692 1397L354 1260L291 1393ZM586 -20Q450 -20 366 28T243 172T203 440V940H53V1137L438 1163V475Q438 316 490 251T668 186Q818 186 890 258T963 485V940H758V1137L1200 1163V199H1391V10L1030 -14L985 197Q939 96 833 38T586 -20Z"/><glyph unicode="ü" horiz-adv-x="1415" d="M373 1522H594V1278H373V1522ZM795 1522H1016V1278H795V1522ZM586 -20Q450 -20 366 28T243 172T203 440V940H53V1137L438 1163V475Q438 316 490 251T668 186Q818 186 890 258T963 485V940H758V1137L1200 1163V199H1391V10L1030 -14L985 197Q939 96 833 38T586 -20Z"/><glyph unicode="ý" horiz-adv-x="1300" d="M389 -360Q322 -360 243 -346T104 -309L162 -115Q284 -158 371 -158Q435 -158 471 -129T539 -33L152 940H23V1143H573V944H395L665 223L938 944H772V1143H1278V940H1153L743 -80Q683 -232 600 -296T389 -360ZM358 1393L901 1649L977 1454L419 1243L358 1393Z"/><glyph unicode="þ" horiz-adv-x="1417" d="M43 -145H213V1360H43V1563L451 1593V936Q511 1045 620 1107T872 1169Q1085 1169 1208 1010T1331 573Q1331 397 1273 262T1107 54T848 -18Q577 -18 451 205V-145H639V-338H43V-145ZM803 186Q941 186 1015 283T1090 567Q1090 753 1016 852T803 952Q646 952 549 847T451 567Q451 393 544 290T803 186Z"/><glyph unicode="ÿ" horiz-adv-x="1300" d="M389 -360Q322 -360 243 -346T104 -309L162 -115Q284 -158 371 -158Q435 -158 471 -129T539 -33L152 940H23V1143H573V944H395L665 223L938 944H772V1143H1278V940H1153L743 -80Q683 -232 600 -296T389 -360ZM349 1522H570V1278H349V1522ZM771 1522H992V1278H771V1522Z"/><glyph unicode="ı" horiz-adv-x="743" d="M53 199H260V940H53V1141L498 1163V199H721V0H53V199Z"/><glyph unicode="Ŀ" horiz-adv-x="1380" d="M53 207H246V1307H53V1518H741V1307H494V199H1061V547H1286V0H53V207ZM915 1046H1159V794H915V1046Z"/><glyph unicode="ŀ" horiz-adv-x="776" d="M53 199H250V1360H43V1563L487 1593V199H711V0H53V199ZM647 914H873V663H647V914Z"/><glyph unicode="Œ" horiz-adv-x="2271" d="M862 0Q480 0 280 192T80 756Q80 1130 292 1324T891 1518H2140V1006H1919V1311H1343V866H1812V666H1343V203H1935V547H2157V0H862ZM1100 207V1303H856Q597 1303 465 1164T332 752Q332 474 465 341T879 207H1100Z"/><glyph unicode="œ" horiz-adv-x="2103" d="M1487 -20Q1210 -20 1083 194Q1015 94 907 36T651 -23Q484 -23 356 51T157 263T86 573Q86 746 156 883T355 1094T651 1169Q800 1169 910 1109T1088 946Q1156 1055 1263 1112T1509 1169Q1746 1169 1869 1032T1993 610V508H1204Q1216 351 1293 265T1509 178Q1626 178 1706 216T1855 344L1999 209Q1908 91 1785 36T1487 -20ZM651 186Q801 186 889 291T977 569Q977 741 890 846T651 952Q502 952 415 848T328 569Q328 395 415 291T651 186ZM1511 967Q1388 967 1309 889T1209 672H1765V678Q1765 817 1699 892T1511 967Z"/><glyph unicode="Š" horiz-adv-x="1430" d="M312 1806L377 1939L715 1802L1053 1939L1117 1806L770 1599H660L312 1806ZM766 -25Q590 -25 477 25T307 180V0H109V530H313Q341 353 445 271T739 188Q911 188 1001 246T1092 414Q1092 484 1058 528T960 600T729 655Q560 683 487 706T354 762T251 842T185 956T160 1112Q160 1243 225 1340T409 1489T676 1542Q827 1542 921 1500T1069 1368V1518H1270V1026H1063Q1035 1175 950 1248T702 1321Q560 1321 484 1267T408 1116Q408 1046 442 1001T544 926T762 872Q929 844 1004 822T1141 769T1244 690T1312 578T1337 422Q1337 216 1184 96T766 -25Z"/><glyph unicode="š" horiz-adv-x="1116" d="M413 1456L478 1589L816 1452L1154 1589L1218 1456L871 1249H761L413 1456ZM612 -16Q480 -16 384 27T252 150V0H76V408H254Q322 168 582 168Q697 168 757 206T817 319Q817 364 793 393T721 439T539 477Q491 485 441 494T343 519T253 558T180 619T130 707T111 831Q111 983 224 1075T516 1167Q619 1167 704 1131T823 1030V1143H1001V784H817Q768 975 547 975Q451 975 399 939T346 834Q346 769 398 732T598 672L700 657Q887 629 969 551T1051 332Q1051 169 931 77T612 -16Z"/><glyph unicode="Ÿ" horiz-adv-x="1645" d="M487 201H702V582L186 1307H53V1518H674V1313H446L834 764L1214 1313H999V1518H1591V1307H1458L950 580V201H1165V0H487V201ZM516 1872H737V1628H516V1872ZM938 1872H1159V1628H938V1872Z"/><glyph unicode="Ž" horiz-adv-x="1358" d="M275 1806L340 1939L678 1802L1016 1939L1080 1806L733 1599H623L275 1806ZM53 186L983 1321H305V1006H82V1518H1274V1329L344 193H1081V547H1303V0H53V186Z"/><glyph unicode="ž" horiz-adv-x="1106" d="M409 1456L474 1589L812 1452L1150 1589L1214 1456L867 1249H757L409 1456ZM53 203L766 956H283V725H88V1143H1022V938L315 176H858V434H1053V0H53V203Z"/><glyph unicode="ƒ" horiz-adv-x="1038" d="M356 713H115V915H356V1106Q356 1292 460 1390T754 1489Q893 1489 981 1464L940 1264Q860 1280 764 1280Q594 1280 594 1102V915H920V713H594V-338H356V713Z"/><glyph unicode="ˆ" horiz-adv-x="1208" d="M203 1393L547 1599H659L1008 1393L942 1260L604 1397L266 1260L203 1393Z"/><glyph unicode="ˇ" horiz-adv-x="1208" d="M201 1456L266 1589L604 1452L942 1589L1006 1456L659 1249H549L201 1456Z"/><glyph unicode="˙" horiz-adv-x="1208" d="M481 1532H725V1280H481V1532Z"/><glyph unicode="˚" horiz-adv-x="1208" d="M604 1243Q485 1243 404 1326T322 1528Q322 1649 403 1732T604 1815Q720 1815 802 1732T885 1528Q885 1410 803 1327T604 1243ZM604 1380Q662 1380 701 1422T741 1528Q741 1593 702 1635T604 1677Q544 1677 505 1634T465 1528Q465 1466 504 1423T604 1380Z"/><glyph unicode="˜" horiz-adv-x="1208" d="M160 1391Q235 1484 316 1535T465 1587Q517 1587 553 1570T619 1533T674 1496T733 1479Q813 1479 905 1597L1044 1487Q980 1401 897 1346T741 1290Q694 1290 660 1306T596 1343T537 1380T473 1397Q436 1397 389 1366T299 1278L160 1391Z"/><glyph unicode="̄" horiz-adv-x="1208" d="M283 1470H926V1278H283V1470Z"/><glyph unicode="μ" horiz-adv-x="1425" d="M213 940H43V1137L451 1159V475Q451 316 503 251T680 186Q830 186 902 259T975 485V940H768V1137L1210 1159V199H1403V4L1042 -20L995 197Q906 -6 608 -6Q491 -6 451 55V-338H215L213 940Z"/><glyph unicode="‒" horiz-adv-x="1372" d="M96 756H1276V543H96V756Z"/><glyph unicode="–" horiz-adv-x="1427" d="M92 756H1333V543H92V756Z"/><glyph unicode="—" horiz-adv-x="1874" d="M92 756H1780V543H92V756Z"/><glyph unicode="―" horiz-adv-x="2048" d="M0 543V756H2048V543H0Z"/><glyph unicode="‘" horiz-adv-x="545" d="M127 1135Q127 1260 146 1321T210 1427T352 1518L414 1401Q322 1352 299 1318T276 1214H418V920H127V1135Z"/><glyph unicode="’" horiz-adv-x="545" d="M131 1038Q219 1082 243 1116T268 1223H127V1518H418V1303Q418 1177 399 1115T334 1008T193 920L131 1038Z"/><glyph unicode="‚" horiz-adv-x="545" d="M131 -186Q217 -145 242 -110T268 0H127V295H418V80Q418 -47 399 -110T332 -217T193 -303L131 -186Z"/><glyph unicode="“" horiz-adv-x="975" d="M127 1139Q127 1262 146 1324T210 1431T350 1518L410 1401Q324 1357 299 1325T274 1219H414V928H127V1139ZM563 1139Q563 1267 582 1328T648 1434T784 1518L844 1401Q756 1356 733 1324T709 1219H848V928H563V1139Z"/><glyph unicode="”" horiz-adv-x="975" d="M131 1044Q220 1089 243 1123T266 1229H127V1518H414V1307Q414 1182 395 1120T327 1013T190 928L131 1044ZM565 1044Q654 1089 677 1123T700 1229H563V1518H848V1307Q848 1184 829 1122T765 1015T625 928L565 1044Z"/><glyph unicode="„" horiz-adv-x="975" d="M131 -184Q214 -143 240 -109T266 0H127V289H414V78Q414 -44 394 -107T326 -215T190 -299L131 -184ZM565 -184Q648 -143 674 -109T700 0H563V289H848V78Q848 -43 828 -106T762 -214T627 -299L565 -184Z"/><glyph unicode="†" horiz-adv-x="1165" d="M465 911H109V1126H465V1589H698V1126H1057V911H698V-340H465V911Z"/><glyph unicode="‡" horiz-adv-x="1165" d="M465 123H109V338H465V911H109V1126H465V1589H700V1126H1057V911H700V338H1057V123H700V-340H465V123Z"/><glyph unicode="•" horiz-adv-x="750" d="M195 817H555V428H195V817Z"/><glyph unicode="…" horiz-adv-x="1581" d="M127 295H418V0H127V295ZM645 295H936V0H645V295ZM1163 295H1454V0H1163V295Z"/><glyph unicode="‰" horiz-adv-x="3246" d="M483 508Q359 508 260 568T106 740T51 997Q51 1142 106 1254T260 1427T483 1489Q605 1489 704 1428T858 1256T913 997Q913 851 858 740T704 568T483 508ZM483 696Q582 696 639 776T696 997Q696 1136 639 1215T483 1294Q384 1294 326 1217T268 997Q268 856 326 776T483 696ZM1458 1466H1688L840 0H608L1458 1466ZM1819 -20Q1696 -20 1596 41T1441 213T1386 471Q1386 616 1441 727T1596 900T1819 961Q1942 961 2040 901T2194 729T2249 471Q2249 325 2194 214T2041 41T1819 -20ZM1819 168Q1918 168 1975 248T2032 471Q2032 608 1975 687T1819 766Q1720 766 1662 689T1604 471Q1604 328 1661 248T1819 168ZM2765 -20Q2642 -20 2543 40T2389 213T2333 471Q2333 616 2388 728T2543 900T2765 961Q2888 961 2986 901T3140 729T3195 471Q3195 325 3140 214T2987 41T2765 -20ZM2765 168Q2864 168 2921 248T2978 471Q2978 608 2921 687T2765 766Q2666 766 2608 689T2550 471Q2550 328 2607 248T2765 168Z"/><glyph unicode="′" horiz-adv-x="635" d="M272 1466H526L381 825H172L272 1466Z"/><glyph unicode="″" horiz-adv-x="1085" d="M272 1466H520L375 825H172L272 1466ZM729 1466H977L829 825H631L729 1466Z"/><glyph unicode="‹" horiz-adv-x="934" d="M176 571L485 1143H696L420 571L696 0H485L176 571Z"/><glyph unicode="›" horiz-adv-x="934" d="M449 0H238L514 571L238 1143H449L758 571L449 0Z"/><glyph unicode="⁄" horiz-adv-x="1071" d="M850 1466H1073L223 0H0L850 1466Z"/><glyph unicode="⁰" horiz-adv-x="1159" d="M580 537Q380 537 265 677T150 1067Q150 1315 265 1455T580 1595Q778 1595 893 1455T1008 1067Q1008 819 894 678T580 537ZM580 709Q805 709 805 1067Q805 1415 580 1415Q352 1415 352 1067Q352 709 580 709Z"/><glyph unicode="⁴" horiz-adv-x="1096" d="M475 702H625V823H102V954L567 1579H782L328 971H629L676 1184H809V971H979V823H809V702H934V553H475V702Z"/><glyph unicode="⁵" horiz-adv-x="1071" d="M530 535Q225 535 119 756L283 829Q317 764 374 731T524 698Q628 698 688 747T748 897Q748 986 693 1038T551 1090Q472 1090 420 1074T330 1040L172 1104L221 1577H866V1407H377L350 1169Q385 1198 457 1216T606 1235Q758 1235 851 1144T944 901Q944 729 835 632T530 535Z"/><glyph unicode="⁶" horiz-adv-x="1096" d="M573 537Q367 537 254 663T141 1020Q141 1298 290 1445T721 1593Q773 1593 827 1581L809 1415Q762 1425 717 1425Q543 1425 448 1350T340 1112Q378 1174 454 1213T641 1253Q796 1253 885 1160T975 909Q975 739 867 638T573 537ZM582 698Q671 698 724 751T778 905Q778 1003 728 1054T584 1106Q485 1106 418 1052T350 909Q350 815 411 757T582 698Z"/><glyph unicode="⁷" horiz-adv-x="973" d="M375 553Q415 1137 721 1421H299V1245H129V1579H909V1444Q765 1322 678 1089T578 553H375Z"/><glyph unicode="⁸" horiz-adv-x="1087" d="M543 526Q414 526 321 567T178 681T129 848Q129 950 180 1018T326 1118Q255 1146 216 1203T176 1335Q176 1413 219 1474T346 1568T543 1602Q657 1602 740 1568T866 1474T909 1335Q909 1261 870 1203T754 1118Q851 1088 906 1020T961 848Q961 755 912 682T769 567T543 526ZM543 680Q646 680 703 728T760 858Q760 944 702 994T543 1044Q442 1044 385 993T328 858Q328 777 384 729T543 680ZM543 1169Q622 1169 668 1208T715 1313Q715 1373 672 1408T543 1444Q459 1444 416 1409T373 1313Q373 1248 418 1209T543 1169Z"/><glyph unicode="⁹" horiz-adv-x="1096" d="M289 709Q339 700 381 700Q506 700 584 733T704 830T758 1012Q720 950 644 910T457 870Q303 870 212 966T121 1221Q121 1389 229 1492T524 1595Q731 1595 842 1469T954 1108Q954 833 806 685T375 537Q315 537 270 545L289 709ZM514 1020Q615 1020 680 1072T745 1212Q745 1310 684 1365T514 1421Q426 1421 373 1370T319 1219Q319 1124 368 1072T514 1020Z"/><glyph unicode="₀" horiz-adv-x="1159" d="M580 -351Q380 -351 265 -211T150 179Q150 427 265 567T580 707Q778 707 893 567T1008 179Q1008 -69 894 -210T580 -351ZM580 -179Q805 -179 805 179Q805 527 580 527Q352 527 352 179Q352 -179 580 -179Z"/><glyph unicode="₁" horiz-adv-x="784" d="M143 -177H328V503Q256 478 143 478V654Q336 654 410 691H522V-177H684V-335H143V-177Z"/><glyph unicode="₂" horiz-adv-x="1038" d="M121 -147L399 42Q557 156 614 228T672 392Q672 457 631 494T510 531Q427 531 372 502T270 419L119 521Q188 615 288 661T532 707Q687 707 777 629T868 410Q868 285 797 183T535 -54L328 -192H727V-34H889V-335H121V-147Z"/><glyph unicode="₃" horiz-adv-x="1004" d="M485 -353Q176 -353 68 -132L233 -59Q265 -124 322 -156T473 -188Q579 -188 635 -145T692 -22Q692 68 614 104T360 140V279Q511 279 582 311T653 417Q653 537 485 537Q327 537 254 437L102 527Q169 620 267 662T498 705Q657 705 751 638T846 460Q846 375 793 314T653 232Q765 210 827 139T889 -34Q889 -182 778 -267T485 -353Z"/><glyph unicode="₄" horiz-adv-x="1096" d="M475 -186H625V-65H102V66L567 691H782L328 83H629L676 296H809V83H979V-65H809V-186H934V-335H475V-186Z"/><glyph unicode="₅" horiz-adv-x="1071" d="M530 -353Q225 -353 119 -132L283 -59Q317 -124 374 -157T524 -190Q628 -190 688 -141T748 9Q748 98 693 150T551 202Q472 202 420 186T330 152L172 216L221 689H866V519H377L350 281Q385 310 457 328T606 347Q758 347 851 256T944 13Q944 -159 835 -256T530 -353Z"/><glyph unicode="₆" horiz-adv-x="1096" d="M573 -351Q367 -351 254 -225T141 132Q141 410 290 557T721 705Q773 705 827 693L809 527Q762 537 717 537Q543 537 448 462T340 224Q378 286 454 325T641 365Q796 365 885 272T975 21Q975 -149 867 -250T573 -351ZM582 -190Q671 -190 724 -137T778 17Q778 115 728 166T584 218Q485 218 418 164T350 21Q350 -73 411 -131T582 -190Z"/><glyph unicode="₇" horiz-adv-x="973" d="M375 -335Q415 249 721 533H299V357H129V691H909V556Q765 434 678 201T578 -335H375Z"/><glyph unicode="₈" horiz-adv-x="1087" d="M543 -362Q414 -362 321 -321T178 -207T129 -40Q129 62 180 130T326 230Q255 258 216 315T176 447Q176 525 219 586T346 680T543 714Q657 714 740 680T866 586T909 447Q909 373 870 315T754 230Q851 200 906 132T961 -40Q961 -133 912 -206T769 -321T543 -362ZM543 -208Q646 -208 703 -160T760 -30Q760 56 702 106T543 156Q442 156 385 105T328 -30Q328 -111 384 -159T543 -208ZM543 281Q622 281 668 320T715 425Q715 485 672 520T543 556Q459 556 416 521T373 425Q373 360 418 321T543 281Z"/><glyph unicode="₉" horiz-adv-x="1096" d="M289 -179Q339 -188 381 -188Q506 -188 584 -155T704 -58T758 124Q720 62 644 22T457 -18Q303 -18 212 78T121 333Q121 501 229 604T524 707Q731 707 842 581T954 220Q954 -55 806 -203T375 -351Q315 -351 270 -343L289 -179ZM514 132Q615 132 680 184T745 324Q745 422 684 477T514 533Q426 533 373 482T319 331Q319 236 368 184T514 132Z"/><glyph unicode="€" horiz-adv-x="1495" d="M860 -20Q649 -20 507 118T317 506H70V662H299L297 722L299 793H70V948H317Q363 1199 512 1342T874 1485Q1118 1485 1204 1313V1466H1399V1020H1204Q1149 1272 889 1272Q765 1272 677 1189T555 948H1042V793H532L530 733L532 662H1042V506H555Q590 343 675 265T877 186Q961 186 1023 213T1134 295T1233 461L1421 367Q1331 167 1193 74T860 -20Z"/><glyph unicode="™" horiz-adv-x="2421" d="M1049 711H1167V1364H1049V1518H1389L1671 811L1954 1518H2296V1366H2175V711H2296V559H1878V709H2003V1241L1735 559H1602L1335 1241V709H1462V559H1049V711ZM319 709H449V1366H264V1178H106V1518H967V1178H809V1366H625V709H754V559H319V709Z"/><glyph unicode="∕" horiz-adv-x="1071" d="M850 1466H1073L223 0H0L850 1466Z"/><glyph unicode="∙" horiz-adv-x="545" d="M127 891H418V592H127V891Z"/><glyph unicode="" horiz-adv-x="1866" d="M102 756Q102 989 200 1165T494 1443T930 1544Q1171 1544 1367 1444T1663 1168T1763 756Q1763 521 1665 345T1370 67T930 -35Q691 -35 494 67T200 347T102 756ZM438 756Q438 614 496 506T670 336T930 274Q1074 274 1192 335T1368 505T1427 756Q1427 898 1368 1005T1191 1174T930 1235Q788 1235 672 1174T497 1005T438 756ZM692 756Q692 859 757 920T930 981Q1036 981 1102 921T1169 756Q1169 650 1104 589T930 528Q822 528 757 589T692 756Z"/><glyph unicode="ﬀ" horiz-adv-x="1690" d="M907 199H1104V940H532V199H788V0H53V199H297V940H53V1143H297V1227Q297 1413 401 1510T694 1608Q771 1608 811 1604T909 1585L868 1384Q783 1401 705 1401Q532 1401 532 1223V1143H1104V1227Q1104 1413 1208 1510T1501 1608Q1629 1608 1729 1583L1688 1382Q1591 1401 1511 1401Q1339 1401 1339 1223V1143H1667V940H1339V199H1667V0H907V199Z"/><glyph unicode="ﬁ" horiz-adv-x="1585" d="M53 199H297V940H53V1143H297V1227Q297 1413 401 1510T694 1608Q830 1608 911 1585L872 1384Q787 1401 705 1401Q532 1401 532 1223V1143H778V940H532V199H778V0H53V199ZM897 199H1104V940H897V1137L1339 1163V199H1563V0H897V199ZM1096 1540H1350V1288H1096V1540Z"/><glyph unicode="ﬂ" horiz-adv-x="1585" d="M53 199H297V940H53V1143H297V1227Q297 1407 391 1507T659 1608Q778 1608 854 1587L819 1386Q750 1401 670 1401Q604 1401 568 1356T532 1223V1143H829V940H532V199H778V0H53V199ZM899 199H1104V1360H930V1563L1339 1593V199H1563V0H899V199Z"/><glyph unicode="ﬃ" horiz-adv-x="2408" d="M907 199H1104V940H532V199H788V0H53V199H297V940H53V1143H297V1227Q297 1413 401 1510T694 1608Q771 1608 811 1604T909 1585L868 1384Q783 1401 705 1401Q532 1401 532 1223V1143H1104V1227Q1104 1413 1208 1510T1501 1608Q1630 1608 1720 1585L1679 1384Q1594 1401 1511 1401Q1339 1401 1339 1223V1143H1599V940H1339V199H1599V0H907V199ZM1718 199H1925V940H1718V1137L2163 1163V199H2384V0H1718V199ZM1917 1540H2171V1288H1917V1540Z"/><glyph unicode="ﬄ" horiz-adv-x="2394" d="M907 199H1104V940H532V199H788V0H53V199H297V940H53V1143H297V1227Q297 1413 401 1510T694 1608Q771 1608 811 1604T909 1585L868 1384Q783 1401 705 1401Q532 1401 532 1223V1143H1104V1227Q1104 1408 1198 1508T1466 1608Q1587 1608 1663 1587L1626 1386Q1560 1401 1477 1401Q1411 1401 1375 1356T1339 1223V1143H1636V940H1339V199H1587V0H907V199ZM1706 199H1911V1360H1739V1563L2148 1593V199H2370V0H1706V199Z"/></font>
</defs>
</svg>
