<?xml version="1.0" standalone="no"?>
<!DOCTYPE svg PUBLIC "-//W3C//DTD SVG 1.1//EN" "http://www.w3.org/Graphics/SVG/1.1/DTD/svg11.dtd" >
<svg xmlns="http://www.w3.org/2000/svg">
<defs>
<font id="EndzoneSans-Bold" horiz-adv-x="1126" >
<font-face  font-family="Endzone Sans Bold" font-weight="800" font-stretch="normal" units-per-em="2048" panose-1="0 0 0 0 0 0 0 0 0 0" ascent="1536" descent="-512" x-height="1065" cap-height="1434" bbox="-139 -422 2417 1882" underline-thickness="102" underline-position="-102" unicode-range="U+0020-U+FB02"/>
<missing-glyph horiz-adv-x="512" />
<glyph glyph-name="fi" unicode="&#xfb01;" horiz-adv-x="1372" d="M924 1065h323v-1065h-323v1065zM1288 1331q0 -86 -52 -134t-150.5 -48t-150.5 48t-52 134t52 134t150.5 48t150.5 -48t52 -134zM754 817h-238v-817h-323v817h-146v248h146v192q0 258 348 259q152 0 225 -31v-264q-66 20 -150 20q-49 0 -73.5 -12t-26.5 -51v-113h238v-248 z" />
<glyph glyph-name="fl" unicode="&#xfb02;" horiz-adv-x="1372" d="M924 1495h323v-1495h-323v1495zM754 817h-238v-817h-323v817h-146v248h146v192q0 258 348 259q152 0 225 -31v-264q-66 20 -150 20q-49 0 -73.5 -12t-26.5 -51v-113h238v-248z" />
<glyph glyph-name=".notdef" horiz-adv-x="512" />
<glyph glyph-name=".null" horiz-adv-x="0" />
<glyph glyph-name="nonmarkingreturn" horiz-adv-x="682" />
<glyph glyph-name="space" unicode=" "  horiz-adv-x="512" />
<glyph glyph-bame="tab" unicode="&#x09;" horiz-adv-x="512" />
<glyph glyph-bame="uni00A0" unicode="&#xa0;" horiz-adv-x="512" />
<glyph glyph-name="exclam" unicode="!" horiz-adv-x="512" d="M125 440l-70 994h402l-70 -994h-262zM53 182q0 84 59.5 143.5t143.5 59.5t143.5 -59.5t59.5 -143.5t-59.5 -143t-143.5 -59t-143.5 59t-59.5 143z" />
<glyph glyph-name="quotedbl" unicode="&#x22;" horiz-adv-x="933" d="M125 942l-51 492h356l-51 -492h-254zM555 942l-51 492h356l-51 -492h-254z" />
<glyph glyph-name="numbersign" unicode="#" horiz-adv-x="1228" d="M61 1065h185v348h266v-348h205v348h266v-348h184v-266h-184v-185h184v-266h-184v-348h-266v348h-205v-348h-266v348h-185v266h185v185h-185v266zM512 799v-185h205v185h-205z" />
<glyph glyph-name="dollar" unicode="$" horiz-adv-x="999" d="M489 449q80 0 106 17t26 50q0 37 -40 52.5t-143 23.5q-184 14 -264 85t-80 204q0 172 95.5 260t326.5 88l59 184h195l-72 -203q109 -27 230 -92l-105 -235q-150 82 -291 82q-115 0 -114 -56q0 -33 40 -48t140 -25q190 -18 268 -91t78 -213q0 -180 -105.5 -264t-344.5 -84 l-58 -184h-194l69 201q-131 27 -256 100l105 236q159 -88 329 -88z" />
<glyph glyph-name="percent" unicode="%" horiz-adv-x="1720" d="M293 1163v-196q0 -66 86 -66t86 66v196q0 66 -86 66t-86 -66zM717 1178v-226q0 -256 -338 -256t-338 256v226q0 256 338 256t338 -256zM553 0h-287l901 1413h287zM1427 250v196q0 66 -86 66t-86 -66v-196q0 -66 86 -66t86 66zM1004 236v225q0 256 337.5 256t337.5 -256 v-225q0 -256 -337.5 -256t-337.5 256z" />
<glyph glyph-name="ampersand" unicode="&#x26;" horiz-adv-x="1382" d="M991 1130q0 -139 -64.5 -216.5t-252.5 -176.5q102 -115 252 -231q61 141 61 354h320q0 -307 -131 -528q84 -55 188 -113l-162 -239q-104 53 -225 133q-184 -133 -455 -133q-492 0 -491 399q0 156 49 246t205 186q-82 160 -82 297q0 178 96 262t305 84q387 0 387 -324z M729 299q-176 147 -301 301q-74 -59 -74 -160q0 -88 55.5 -131t145.5 -43q100 0 174 33zM502 1085q0 -66 33 -141q96 49 127.5 80t31.5 86q0 33 -25.5 56.5t-68.5 23.5q-49 0 -73.5 -31t-24.5 -74z" />
<glyph glyph-name="quotesingle" unicode="'" horiz-adv-x="503" d="M125 942l-51 492h356l-51 -492h-254z" />
<glyph glyph-name="parenleft" unicode="(" horiz-adv-x="552" d="M348 614.5q0 -288.5 47 -490.5t127 -390h-266q-205 381 -205 880.5t205 880.5h266q-80 -188 -127 -390t-47 -490.5z" />
<glyph glyph-name="parenright" unicode=")" horiz-adv-x="552" d="M205 614.5q0 288.5 -47 490.5t-127 390h266q205 -381 205 -880.5t-205 -880.5h-266q80 188 127 390t47 490.5z" />
<glyph glyph-name="asterisk" unicode="*" horiz-adv-x="655" d="M29 1157l49 154l147 -27l23 150h160l20 -150l150 27l49 -154l-135 -65l69 -134l-129 -94l-104 107l-105 -107l-129 94l70 134z" />
<glyph glyph-name="plus" unicode="+" d="M61 840h369v368h266v-368h369v-267h-369v-368h-266v368h-369v267z" />
<glyph glyph-name="comma" unicode="," horiz-adv-x="512" d="M459 156q0 -195 -266 -443l-123 90q74 76 73 140q0 57 -45 136t-45 116q0 76 59.5 132t143.5 56q86 0 144.5 -63.5t58.5 -163.5z" />
<glyph glyph-name="hyphen" unicode="-" horiz-adv-x="491" d="M446 731v-235h-401v235h401z" />
<glyph glyph-name="period" unicode="." horiz-adv-x="512" d="M53 182q0 84 59.5 142.5t143.5 58.5t143.5 -58.5t59.5 -142.5t-59.5 -143t-143.5 -59t-143.5 59t-59.5 143z" />
<glyph glyph-name="slash" unicode="/" horiz-adv-x="778" d="M328 -61h-318l441 1556h317z" />
<glyph glyph-name="zero" unicode="0" horiz-adv-x="1310" d="M655 1143q-133 0 -167.5 -67.5t-34.5 -258.5v-221q0 -190 34.5 -258t167.5 -68t168 68t35 258v221q0 190 -35 258t-168 68zM655 1434q303 0 429 -132.5t126 -441.5v-307q0 -309 -126 -441t-429 -132t-429 132t-126 441v307q0 309 126 441.5t429 132.5z" />
<glyph glyph-name="one" unicode="1" horiz-adv-x="813" d="M635 1434v-1434h-350v1141l-226 -17v222l340 88h236z" />
<glyph glyph-name="two" unicode="2" horiz-adv-x="1224" d="M1171 1038v-41q0 -189 -146 -293q-69 -49 -301 -148q-9 -4 -17 -7q-182 -78 -246 -126t-64 -122v-20l774 8v-289h-1097v236q0 115 30.5 199.5t98 146t139.5 100.5t188 86q190 76 253 114t63 97v41q0 76 -53.5 103.5t-167.5 27.5q-217 0 -430 -115l-113 256 q246 141 565 142q258 0 391 -92.5t133 -303.5z" />
<glyph glyph-name="three" unicode="3" horiz-adv-x="1249" d="M586 -20q-303 0 -547 135l115 258q207 -111 421 -111q143 0 205 37t62 123v4q0 84 -47 124t-164 40h-314v276h285q178 0 178 144v4q0 63 -41 100t-151 37q-201 0 -400 -102l-114 258q229 127 553 127q279 0 390 -106.5t111 -311.5v-4q0 -186 -176 -277q238 -78 238 -325 v-4q0 -426 -604 -426z" />
<glyph glyph-name="four" unicode="4" horiz-adv-x="1265" d="M57 510l658 924h295v-867h207v-262h-207v-305h-348v305h-605v205zM395 567h267v375z" />
<glyph glyph-name="five" unicode="5" horiz-adv-x="1224" d="M840 436v62q0 100 -49.5 137t-165.5 37q-96 0 -157.5 -33t-86.5 -70l-272 62v782h974v-305h-677v-244q109 90 321 90q461 0 461 -456v-62q0 -240 -153.5 -348t-457 -108t-546.5 135l114 258q207 -111 416 -111q145 0 212 36t67 138z" />
<glyph glyph-name="six" unicode="6" horiz-adv-x="1267" d="M1188 477q0 -246 -153.5 -371.5t-428.5 -125.5q-268 0 -417.5 139t-149.5 422v4q0 608 571 909l357 -80v-47q-222 -126 -304 -190q-155 -123 -227 -281q125 113 309 113q442 0 443 -488v-4zM842 467v4q0 229 -203 229q-166 0 -268 -116v-4q-10 -154 50 -242t185 -88 q119 0 177.5 51t58.5 166z" />
<glyph glyph-name="seven" unicode="7" d="M1071 1413v-203q-440 -559 -440 -1210h-387q0 309 122.5 615.5t292.5 502.5l-593 -10v305h1005z" />
<glyph glyph-name="eight" unicode="8" horiz-adv-x="1234" d="M842 420v4q0 96 -48.5 139t-179.5 43t-180 -43t-49 -139v-4q0 -158 229 -158q119 0 173.5 39t54.5 119zM614.5 868q100.5 0 133 42t32.5 110v4q0 127 -166 127q-168 0 -168 -127v-4q0 -68 34 -110t134.5 -42zM614.5 -20q-575.5 0 -575.5 430v4q0 219 197 329 q-135 98 -136 281v4q0 199 114 302.5t400.5 103.5t400 -103.5t113.5 -302.5v-4q0 -180 -135 -281q197 -111 197 -329v-4q0 -430 -575.5 -430z" />
<glyph glyph-name="nine" unicode="9" horiz-adv-x="1228" d="M39 936q0 246 153.5 372t428.5 126q268 0 417.5 -139.5t149.5 -422.5v-4q0 -608 -572 -909l-356 80v47q222 126 304 190q155 123 227 281q-125 -113 -310 -113q-442 0 -442 488v4zM385 946v-4q0 -229 203 -229q166 0 268 116v5q10 154 -50.5 241.5t-184.5 87.5 q-119 0 -177.5 -51t-58.5 -166z" />
<glyph glyph-name="colon" unicode=":" horiz-adv-x="512" d="M53 182q0 84 59.5 142.5t143.5 58.5t143.5 -58.5t59.5 -142.5t-59.5 -143t-143.5 -59t-143.5 59t-59.5 143zM53 760q0 84 59.5 143.5t143.5 59.5t143.5 -59.5t59.5 -143.5t-59.5 -142.5t-143.5 -58.5t-143.5 58.5t-59.5 142.5z" />
<glyph glyph-name="semicolon" unicode=";" horiz-adv-x="512" d="M53 760q0 84 59.5 143.5t143.5 59.5t143.5 -59.5t59.5 -143.5t-59.5 -142.5t-143.5 -58.5t-143.5 58.5t-59.5 142.5zM459 156q0 -195 -266 -443l-123 90q74 76 73 140q0 57 -45 136t-45 116q0 76 59.5 132t143.5 56q86 0 144.5 -63.5t58.5 -163.5z" />
<glyph glyph-name="less" unicode="&#x3c;" d="M1065 205l-1004 348v328l1004 348v-307l-629 -205l629 -205v-307z" />
<glyph glyph-name="equal" unicode="=" d="M61 635h1004v-266h-1004v266zM61 1044h1004v-266h-1004v266z" />
<glyph glyph-name="greater" unicode="&#x3e;" d="M1065 553l-1004 -348v307l627 205l-627 205v307l1004 -348v-328z" />
<glyph glyph-name="question" unicode="?" horiz-adv-x="1054" d="M293 182q0 84 59.5 143.5t143.5 59.5t143 -59.5t59 -143.5t-59 -143t-143 -59t-143.5 59t-59.5 143zM385 440q-29 55 -43 111.5t-13 121t40 124t112 102.5q118 67 140 94q20 25 20 60q0 96 -174 96q-145 0 -301 -82l-121 272q59 35 104.5 55.5t144.5 40t226 19.5 q252 0 371 -101.5t119 -269.5q0 -66 -14.5 -118t-33 -84.5t-56.5 -63.5t-63.5 -46t-79.5 -43l-81 -42q-74 -43 -92.5 -103.5t8.5 -142.5h-213z" />
<glyph glyph-name="at" unicode="@" horiz-adv-x="1632" d="M1241 244q96 20 152.5 123.5t56.5 283.5q0 276 -139.5 394t-466.5 118q-324 0 -470.5 -155.5t-146.5 -485t146.5 -485.5t470.5 -156q365 0 575 80l39 -113q-201 -94 -614 -94q-389 0 -575.5 191.5t-186.5 576.5t186.5 576.5t575.5 191.5q385 0 563 -161.5t178 -487.5 q0 -145 -38 -259t-135 -191.5t-247 -77.5h-184v112q-33 -45 -104.5 -87t-165.5 -42q-141 0 -220 68.5t-79 241.5v233q0 172 78.5 240.5t220.5 68.5q94 0 165.5 -42t104.5 -87v113h260v-688zM963 635q-80 72 -158 72q-117 0 -117 -107v-156q0 -106 117 -106q78 0 158 72v225z " />
<glyph glyph-name="A" unicode="A" horiz-adv-x="1392" d="M455 258l-76 -258h-359l472 1434h409l471 -1434h-358l-76 258h-483zM696 1085l-157 -540h315z" />
<glyph glyph-name="B" unicode="B" horiz-adv-x="1341" d="M754 0h-631v1434h641q229 0 336.5 -102.5t107.5 -266.5v-4q0 -119 -39 -192.5t-129 -116.5q229 -72 230 -342v-4q0 -197 -129 -301.5t-387 -104.5zM926 440q0 88 -45 131t-170 43h-254v-333h241q137 0 182.5 35.5t45.5 123.5zM864 1020q0 66 -32.5 99.5t-126.5 33.5h-248 v-276h229q59 0 97 11t54.5 34.5t21.5 45t5 52.5z" />
<glyph glyph-name="C" unicode="C" horiz-adv-x="1259" d="M102 512v410q0 262 140.5 397t472.5 135q160 0 267.5 -35t213.5 -102l-121 -268q-63 37 -103 55t-112 34.5t-153 16.5q-156 0 -214.5 -67.5t-58.5 -192.5v-356q0 -125 58.5 -192.5t214.5 -67.5q119 0 196.5 26.5t171.5 79.5l121 -268q-106 -68 -214 -102.5t-267 -34.5 q-332 0 -472.5 135t-140.5 397z" />
<glyph glyph-name="D" unicode="D" horiz-adv-x="1392" d="M958 539v356q0 260 -272 260h-231v-876h231q272 0 272 260zM1290 901v-369q0 -532 -604 -532h-563v1434h563q604 -1 604 -533z" />
<glyph glyph-name="E" unicode="E" horiz-adv-x="1234" d="M1153 0h-1030v1434h1030v-281h-696v-295h583v-274h-583v-303h696v-281z" />
<glyph glyph-name="F" unicode="F" horiz-adv-x="1165" d="M123 1434h981v-281h-647v-340h583v-274h-583v-539h-334v1434z" />
<glyph glyph-name="G" unicode="G" horiz-adv-x="1413" d="M696 279q180 0 297 69v201h-248v256h555v-805h-278v94q-53 -49 -152.5 -81.5t-203.5 -32.5q-301 0 -432.5 136t-131.5 396v410q0 264 140.5 398t490.5 134q188 0 309 -30.5t252 -102.5l-125 -277q-205 111 -442 111q-176 0 -234.5 -66.5t-58.5 -193.5v-356 q0 -127 53 -193.5t209 -66.5z" />
<glyph glyph-name="H" unicode="H" horiz-adv-x="1392" d="M936 584h-479v-584h-334v1434h334v-576h479v576h334v-1434h-334v584z" />
<glyph glyph-name="I" unicode="I" horiz-adv-x="600" d="M133 0v1434h334v-1434h-334z" />
<glyph glyph-name="J" unicode="J" horiz-adv-x="890" d="M299 289q76 0 110.5 38t34.5 119v988h334v-1051q0 -193 -105.5 -298t-314.5 -105q-182 0 -297 57l48 293q81 -41 190 -41z" />
<glyph glyph-name="K" unicode="K" horiz-adv-x="1488" d="M457 0h-334v1434h334v-648l483 648h426l-506 -609l557 -825h-446l-334 555l-180 -219v-336z" />
<glyph glyph-name="L" unicode="L" horiz-adv-x="1134" d="M1094 0h-971v1434h332v-1155h639v-279z" />
<glyph glyph-name="M" unicode="M" horiz-adv-x="1773" d="M631 1434l239 -824l238 824h543v-1434h-357l19 1073l-287 -940h-305l-287 940l19 -1073h-330v1434h508z" />
<glyph glyph-name="N" unicode="N" horiz-adv-x="1433" d="M1311 0h-381l-506 940l25 -940h-326v1434h381l506 -940l-25 940h326v-1434z" />
<glyph glyph-name="O" unicode="O" horiz-adv-x="1413" d="M434 905v-377q0 -260 272.5 -260t272.5 260v377q0 260 -272.5 260t-272.5 -260zM1311 922v-410q0 -532 -604.5 -532t-604.5 532v410q0 532 604.5 532t604.5 -532z" />
<glyph glyph-name="P" unicode="P" horiz-adv-x="1249" d="M123 1434h600q254 0 369.5 -123t115.5 -361v-4q0 -238 -115.5 -360.5t-369.5 -122.5h-266v-463h-334v1434zM864 946.5q0 110.5 -41 158.5t-141 48h-225v-414h225q100 0 141 48.5t41 159z" />
<glyph glyph-name="Q" unicode="Q" horiz-adv-x="1501" d="M1311 922v-410q0 -264 -148 -397q80 -61 150 -88l-146 -279q-47 20 -92 53t-64.5 49.5t-74.5 74t-66 67.5q-74 -12 -163 -12q-604 0 -605 532v410q0 532 604.5 532t604.5 -532zM434 905v-377q0 -201 166 -247q47 -12 107 -13l-76 174l170 138l27.5 -53.5l33.5 -64 t31.5 -50t40.5 -50.5q23 31 33 75t11 73t1 94v301q0 260 -272.5 260t-272.5 -260z" />
<glyph glyph-name="R" unicode="R" horiz-adv-x="1349" d="M1309 0h-394l-270 549h-188v-549h-334v1434h639q256 0 371.5 -110t115.5 -331v-4q0 -166 -61.5 -260t-204.5 -151zM905 991q0 92 -42 127t-154 35h-252v-324h252q113 0 154.5 35t41.5 127z" />
<glyph glyph-name="S" unicode="S" horiz-adv-x="1300" d="M627 -20q-332 0 -586 143l123 278q213 -117 463 -116q145 0 211.5 26.5t66.5 108.5q0 86 -58.5 114.5t-248.5 57.5q-281 43 -386.5 131t-105.5 297q0 219 153 326.5t427 107.5q299 0 543 -135l-125 -279q-197 106 -422 107q-229 0 -229 -121q0 -74 41 -102.5t194 -49.5 q152 -20 243 -44.5t171 -72.5t113.5 -127t33.5 -200q0 -246 -161.5 -348t-460.5 -102z" />
<glyph glyph-name="T" unicode="T" horiz-adv-x="1206" d="M436 0v1153h-395v281h1124v-281h-395v-1153h-334z" />
<glyph glyph-name="U" unicode="U" horiz-adv-x="1392" d="M696.5 -20q-331.5 0 -457.5 133t-126 450v871h333v-883q0 -76 6.5 -118t30 -83t75.5 -58.5t138 -17.5t138.5 17.5t76 58.5t29.5 83t6 118v883h334v-871q0 -317 -126 -450t-457.5 -133z" />
<glyph glyph-name="V" unicode="V" horiz-adv-x="1392" d="M696 348l318 1086h358l-471 -1434h-409l-472 1434h359z" />
<glyph glyph-name="W" unicode="W" horiz-adv-x="2031" d="M412 0l-328 1434h360l162 -877l240 877h354l236 -875l163 875h351l-330 -1434h-330l-274 965l-273 -965h-331z" />
<glyph glyph-name="X" unicode="X" horiz-adv-x="1398" d="M1333 1434l-377 -689l396 -745h-406l-248 512l-247 -512h-406l395 745l-377 689h404l231 -502l232 502h403z" />
<glyph glyph-name="Y" unicode="Y" horiz-adv-x="1310" d="M655 809l238 625h397l-465 -942l6 -492h-352l6 492l-465 942h398z" />
<glyph glyph-name="Z" unicode="Z" horiz-adv-x="1302" d="M1165 1137l-731 -858l776 10v-289h-1183v297l731 858l-690 -10v289h1097v-297z" />
<glyph glyph-name="bracketleft" unicode="[" horiz-adv-x="491" d="M51 1495h400v-195h-142v-1372h142v-194h-400v1761z" />
<glyph glyph-name="backslash" unicode="\" horiz-adv-x="778" d="M768 -61h-317l-441 1556h318z" />
<glyph glyph-name="bracketright" unicode="]" horiz-adv-x="491" d="M41 1495h399v-1761h-399v194h141v1372h-141v195z" />
<glyph glyph-name="asciicircum" unicode="^" d="M41 614l369 820h307l368 -820h-307l-215 506l-215 -506h-307z" />
<glyph glyph-name="underscore" unicode="_" horiz-adv-x="1024" d="M932 -170v-219h-840v219h840z" />
<glyph glyph-name="grave" unicode="`" horiz-adv-x="647" d="M334 1434l112 -287h-245l-174 287h307z" />
<glyph glyph-name="a" unicode="a" horiz-adv-x="1146" d="M70 297q0 201 146 293t515 92v53q0 84 -182 84t-397 -96l-21 270q193 92 451 92q256 0 364.5 -92t108.5 -270v-723h-303v115q-131 -135 -338 -135q-168 0 -256 83.5t-88 233.5zM395 346q0 -47 30 -77.5t83 -30.5q129 0 223 104v150q-184 0 -260 -34t-76 -112z" />
<glyph glyph-name="b" unicode="b" horiz-adv-x="1232" d="M840 432v201q0 84 -51.5 127t-139.5 43q-133 0 -223 -82v-377q90 -82 223 -82q88 0 139.5 43t51.5 127zM1161 670v-275q0 -207 -111.5 -311t-293.5 -104q-129 0 -221.5 50t-128.5 101v-131h-304v1495h324v-539q10 16 47 44t116 56.5t167 28.5q182 0 293.5 -104 t111.5 -311z" />
<glyph glyph-name="c" unicode="c" horiz-adv-x="1003" d="M573 -20q-246 0 -373.5 114.5t-127.5 331.5v213q0 217 128 331.5t373 114.5q231 0 388 -100l-117 -256q-141 74 -254 74q-197 0 -197 -178v-185q0 -178 197 -178q113 0 254 74l117 -256q-157 -100 -388 -100z" />
<glyph glyph-name="d" unicode="d" horiz-adv-x="1232" d="M393 633v-201q0 -84 51.5 -127t139.5 -43q133 0 223 82v377q-90 82 -223 82q-88 0 -139.5 -43t-51.5 -127zM72 395v275q0 207 111.5 311t293.5 104q88 0 167 -28.5t116 -56t47 -44.5v539h323v-1495h-303v131q-37 -51 -129 -101t-221 -50q-182 0 -293.5 104t-111.5 311z " />
<glyph glyph-name="e" unicode="e" d="M592 -20q-520 0 -520 446v213q0 217 125 331.5t370.5 114.5t370.5 -114.5t125 -331.5v-215h-666q-2 -92 48.5 -138t170.5 -46q190 0 351 88l104 -236q-198 -112 -479 -112zM397 631h340v22q0 170 -170 170t-170 -170v-22z" />
<glyph glyph-name="f" unicode="f" horiz-adv-x="798" d="M754 817h-238v-817h-323v817h-146v248h146v192q0 258 348 259q152 0 225 -31v-264q-66 20 -150 20q-49 0 -73.5 -12t-26.5 -51v-113h238v-248z" />
<glyph glyph-name="g" unicode="g" horiz-adv-x="1234" d="M809 0v150q-10 -16 -47 -44t-116 -57t-167 -29q-182 0 -293.5 104.5t-111.5 311.5v234q0 207 111.5 311t293.5 104q129 0 221.5 -50t128.5 -101v131h304v-1034q0 -236 -130.5 -338.5t-449.5 -102.5q-256 0 -430 91l20 260q217 -90 389 -91q158 0 217.5 35t59.5 115z M395 633v-160q0 -84 51.5 -127t139.5 -43q133 0 223 82v336q-90 82 -223 82q-88 0 -139.5 -43t-51.5 -127z" />
<glyph glyph-name="h" unicode="h" horiz-adv-x="1212" d="M647 797q-57 0 -129 -18.5t-112 -43.5v-735h-324v1495h324v-543q154 133 364 133q350 0 350 -280v-805h-325v674q-4 61 -33 92t-115 31z" />
<glyph glyph-name="i" unicode="i" horiz-adv-x="573" d="M125 1065h324v-1065h-324v1065zM489 1331q0 -86 -52 -134t-150.5 -48t-150.5 48t-52 134t52 134t150.5 48t150.5 -48t52 -134z" />
<glyph glyph-name="j" unicode="j" horiz-adv-x="573" d="M14 -145q109 0 111 79v1131h324v-1210q0 -137 -93.5 -207t-267.5 -70q-147 0 -227 27v268q63 -18 153 -18zM489 1331q0 -86 -52 -134t-150.5 -48t-150.5 48t-52 134t52 134t150.5 48t150.5 -48t52 -134z" />
<glyph glyph-name="k" unicode="k" horiz-adv-x="1202" d="M1157 1065l-409 -461l434 -604h-394l-247 377l-113 -129v-248h-324v1495h324v-856l311 426h418z" />
<glyph glyph-name="l" unicode="l" horiz-adv-x="573" d="M125 1495h324v-1495h-324v1495z" />
<glyph glyph-name="m" unicode="m" horiz-adv-x="1710" d="M698 0v682q-6 115 -94 115q-53 0 -103 -22.5t-73 -55.5v-719h-326v1065h301v-104q37 43 128.5 83.5t205.5 40.5q168 0 248 -127q33 39 133.5 83t214.5 44q121 0 203 -74.5t82 -205.5v-805h-324v670q0 127 -96 127q-51 0 -101 -22.5t-73 -55.5v-719h-326z" />
<glyph glyph-name="n" unicode="n" horiz-adv-x="1212" d="M426 735v-735h-324v1065h304v-129q166 150 374 149q176 0 258 -89t82 -232v-764h-325v653q0 66 -31 105t-117 39q-121 -1 -221 -62z" />
<glyph glyph-name="o" unicode="o" horiz-adv-x="1146" d="M573.5 246q92.5 0 141.5 47t49 133v213q0 86 -49 133t-141.5 47t-141.5 -47t-49 -133v-213q0 -86 49 -133t141.5 -47zM573.5 -20q-247.5 0 -380 115.5t-132.5 330.5v213q0 215 132.5 330.5t380 115.5t379.5 -115.5t132 -330.5v-213q0 -215 -132 -330.5t-379.5 -115.5z " />
<glyph glyph-name="p" unicode="p" horiz-adv-x="1232" d="M840 432v201q0 84 -51.5 127t-139.5 43q-133 0 -223 -82v-377q90 -82 223 -82q88 0 139.5 43t51.5 127zM1161 670v-275q0 -207 -111.5 -311t-293.5 -104q-88 0 -167 28.5t-116 56t-47 44.5v-498h-324v1454h304v-131q37 51 129 101t221 50q182 0 293.5 -104t111.5 -311z " />
<glyph glyph-name="q" unicode="q" horiz-adv-x="1232" d="M393 633v-201q0 -84 51.5 -127t139.5 -43q133 0 223 82v377q-90 82 -223 82q-88 0 -139.5 -43t-51.5 -127zM72 395v275q0 207 111.5 311t293.5 104q129 0 221.5 -50t128.5 -101v131h303v-1454h-323v498q-10 -16 -47 -44t-116 -56.5t-167 -28.5q-182 0 -293.5 104 t-111.5 311z" />
<glyph glyph-name="r" unicode="r" horiz-adv-x="835" d="M774 1065v-326q-66 18 -139 19q-55 0 -114.5 -20.5t-94.5 -53.5v-684h-324v1065h304v-143q86 164 270 163q57 0 98 -20z" />
<glyph glyph-name="s" unicode="s" horiz-adv-x="1081" d="M55 96l105 236q160 -88 370 -88q98 0 135 18.5t37 56.5q0 43 -39.5 58.5t-195.5 36.5q-207 27 -290 99.5t-83 217.5q0 166 114 260t349 94q252 0 453 -110l-105 -236q-150 82 -332 82q-156 0 -155 -67q0 -35 37 -51.5t174 -34.5q236 -31 316.5 -103.5t80.5 -230.5 q0 -354 -491 -354q-273 -1 -480 116z" />
<glyph glyph-name="t" unicode="t" horiz-adv-x="819" d="M766 817h-254v-502q6 -59 113 -59q68 0 141 18v-266q-78 -29 -215 -28q-365 0 -365 258v579h-149v248h149v199l326 45v-244h254v-248z" />
<glyph glyph-name="u" unicode="u" horiz-adv-x="1212" d="M786 330v735h324v-1065h-303v129q-166 -150 -375 -149q-176 0 -258 89t-82 232v764h326v-653q0 -66 30.5 -105t116.5 -39q121 1 221 62z" />
<glyph glyph-name="v" unicode="v" horiz-adv-x="1161" d="M582 309l217 756h348l-352 -1065h-428l-353 1065h359z" />
<glyph glyph-name="w" unicode="w" horiz-adv-x="1683" d="M1010 1065l180 -655l131 655h334l-242 -1065h-385l-188 645l-185 -645h-385l-241 1065h340l125 -674l188 674h328z" />
<glyph glyph-name="x" unicode="x" horiz-adv-x="1177" d="M430 0h-403l323 541l-313 524h409l148 -322l141 322h402l-312 -526l326 -539h-412l-157 324z" />
<glyph glyph-name="y" unicode="y" horiz-adv-x="1200" d="M592 420l207 645h364l-399 -1032l-123 -422h-410l181 444l-375 1010h360z" />
<glyph glyph-name="z" unicode="z" horiz-adv-x="1073" d="M115 1065h852v-256l-490 -526l514 6v-289h-911v256l487 528l-452 -8v289z" />
<glyph glyph-name="braceleft" unicode="{" horiz-adv-x="655" d="M195 16v328q0 100 -29 137t-113 37h-20v193h20q84 0 113 36.5t29 137.5v327q0 145 63.5 214t230.5 69h125v-195h-20q-84 0 -112.5 -36.5t-28.5 -137.5v-297q0 -150 -88 -215q88 -66 88 -215v-297q0 -100 28.5 -137t112.5 -37h20v-194h-125q-168 0 -231 68.5t-63 213.5z " />
<glyph glyph-name="bar" unicode="|" horiz-adv-x="401" d="M72 1495h258v-1761h-258v1761z" />
<glyph glyph-name="braceright" unicode="}" horiz-adv-x="655" d="M461 1212v-327q0 -100 28.5 -137t112.5 -37h21v-193h-21q-84 0 -112.5 -37t-28.5 -137v-328q0 -145 -63.5 -213.5t-231.5 -68.5h-125v194h20q84 0 113 37t29 137v297q0 150 88 215q-88 66 -88 215v297q0 100 -29 137t-113 37h-20v195h125q168 0 231.5 -69t63.5 -214z" />
<glyph glyph-name="asciitilde" unicode="~" horiz-adv-x="1024" d="M309 532q-113 0 -184 -63l-74 244q115 80 252 80q100 0 219 -49.5t189 -49.5q117 0 188 64l74 -244q-115 -80 -252 -80q-100 0 -221 49t-191 49z" />
<glyph glyph-name="exclamdown" unicode="&#xa1;" horiz-adv-x="512" d="M387 625l70 -1014h-402l70 1014h262zM459 883q0 -84 -59.5 -143.5t-143.5 -59.5t-143.5 59.5t-59.5 143.5t59.5 143t143.5 59t143.5 -59t59.5 -143z" />
<glyph glyph-name="cent" unicode="&#xa2;" horiz-adv-x="1003" d="M573 184h-49l-57 -184h-195l74 217q-274 90 -274 414v151q0 209 121.5 328t353.5 119l59 184h195l-70 -196q123 -23 230 -89l-117 -256q-141 74 -254 74q-197 0 -197 -178v-123q0 -178 197 -178q113 0 254 74l117 -256q-157 -101 -388 -101z" />
<glyph glyph-name="dieresis" unicode="&#xa8;" horiz-adv-x="647" d="M297 1331q0 -182 -172 -182t-172 182t172 182t172 -182zM694 1331q0 -182 -172 -182t-172 182t172 182t172 -182z" />
<glyph glyph-name="copyright" unicode="&#xa9;" horiz-adv-x="1576" d="M1495 706.5q0 -374.5 -177 -550.5t-529.5 -176t-529.5 176t-177 550.5t177 551t529.5 176.5t529.5 -176.5t177 -551zM1354 706.5q0 319.5 -138.5 460t-427 140.5t-427 -140.5t-138.5 -460t138.5 -460t427 -140.5t427 140.5t138.5 460zM668 649q0 -68 32.5 -100.5 t114.5 -32.5q18 0 35.5 2t36 7t30 8.5t31 12.5t26.5 12t29.5 16.5t28.5 15.5l94 -215q-156 -98 -327 -99q-209 0 -308.5 90.5t-99.5 274.5v131q0 184 99.5 274.5t308.5 90.5q186 0 327 -90l-94 -220q-131 70 -217 70q-82 0 -114.5 -34t-32.5 -99v-115z" />
<glyph glyph-name="ordfeminine" unicode="&#xaa;" horiz-adv-x="872" d="M45 866q0 145 105.5 219t384.5 74v23q0 12 -10.5 22t-40 18.5t-72.5 8.5q-137 0 -301 -72l-17 227q152 68 350.5 68t281.5 -71.5t83 -211.5v-530h-258v80q-96 -96 -244 -96q-131 0 -196.5 64t-65.5 177zM322 909q0 -27 17 -47t50 -20q80 0 146 59v103q-117 0 -165 -24 t-48 -71z" />
<glyph glyph-name="guillemotleft" unicode="&#xab;" horiz-adv-x="696" d="M61 748l267 153v-194l-113 -93l113 -92v-194l-267 153v267zM369 748l266 194v-205l-113 -123l113 -122v-205l-266 194v267z" />
<glyph glyph-name="registered" unicode="&#xae;" horiz-adv-x="512" d="M467 1249q0 -221 -211 -221t-211 221t211 221t211 -221zM422 1249.5q0 96.5 -40 140.5t-126 44t-126 -44t-40 -140.5t40 -140.5t126 -44t126 44t40 140.5zM223 1208v-102h-67v287h116q92 0 93 -84v-21q0 -55 -46 -74l43 -108h-73l-31 102h-35zM297 1300v13q-2 25 -31 24 h-43v-73h43q31 -1 31 36z" />
<glyph glyph-name="macron" unicode="&#xaf;" horiz-adv-x="647" d="M49 1434h549v-236h-549v236z" />
<glyph glyph-name="degree" unicode="&#xb0;" horiz-adv-x="573" d="M420 1198q0 55 -39 94t-94.5 39t-94 -39t-38.5 -94t38.5 -94t94 -39t94.5 39t39 94zM51 1198q0 96 69.5 166t166 70t166 -70t69.5 -166t-69.5 -165.5t-166 -69.5t-166 69.5t-69.5 165.5z" />
<glyph glyph-name="plusminus" unicode="&#xb1;" d="M61 1024h369v266h266v-266h369v-266h-369v-266h-266v266h-369v266zM61 389h1004v-266h-1004v266z" />
<glyph glyph-name="acute" unicode="&#xb4;" horiz-adv-x="647" d="M201 1147l112 287h308l-175 -287h-245z" />
<glyph glyph-name="periodcentered" unicode="&#xb7;" horiz-adv-x="512" d="M53 614q0 84 59.5 143.5t143.5 59.5t143.5 -59.5t59.5 -143.5t-59.5 -143t-143.5 -59t-143.5 59t-59.5 143z" />
<glyph glyph-name="cedilla" unicode="&#xb8;" horiz-adv-x="647" d="M379 -217q0 53 -131 94l37 123h102l-18 -68q109 -33 163 -73.5t54 -108.5q0 -160 -248 -160q-131 0 -217 41l37 123q59 -27 125 -26q96 0 96 55z" />
<glyph glyph-name="ordmasculine" unicode="&#xba;" horiz-adv-x="856" d="M428 850q57 0 89 29.5t32 81.5v159q0 51 -32 81t-89 30t-89 -30t-32 -81v-159q0 -51 32 -81t89 -30zM428 625q-188 0 -289.5 87t-101.5 249v161q0 160 101.5 246t289.5 86t289.5 -86t101.5 -246v-161q0 -162 -101.5 -249t-289.5 -87z" />
<glyph glyph-name="guillemotright" unicode="&#xbb;" horiz-adv-x="696" d="M635 481l-266 -153v194l112 92l-112 93v194l266 -153v-267zM328 481l-267 -194v205l113 122l-113 123v205l267 -194v-267z" />
<glyph glyph-name="questiondown" unicode="&#xbf;" horiz-adv-x="1054" d="M762 883q0 -84 -59.5 -143.5t-143.5 -59.5t-143.5 59.5t-59.5 143.5t59.5 143t143.5 59t143.5 -59t59.5 -143zM457 625h213q29 -55 43 -111.5t13 -121t-40 -124t-113 -102.5q-90 -51 -124.5 -84t-34.5 -80q0 -51 46 -78.5t128 -27.5q145 0 301 81l121 -272 q-59 -35 -104.5 -55.5t-144.5 -40t-226 -19.5q-252 0 -371 105.5t-119 275.5q0 57 8 103.5t28.5 81t39 59.5t54.5 50.5t59.5 38.5l69.5 38l69 37q74 43 92.5 103.5t-8.5 142.5z" />
<glyph glyph-name="Agrave" unicode="&#xc0;" horiz-adv-x="1392" d="M455 258l-76 -258h-359l472 1434h409l471 -1434h-358l-76 258h-483zM696 1085l-157 -540h315zM711 1823l112 -287h-245l-175 287h308z" />
<glyph glyph-name="Aacute" unicode="&#xc1;" horiz-adv-x="1392" d="M455 258l-76 -258h-359l472 1434h409l471 -1434h-358l-76 258h-483zM696 1085l-157 -540h315zM567 1536l113 287h307l-174 -287h-246z" />
<glyph glyph-name="Acircumflex" unicode="&#xc2;" horiz-adv-x="1392" d="M455 258l-76 -258h-359l472 1434h409l471 -1434h-358l-76 258h-483zM696 1085l-157 -540h315zM850 1823l184 -287h-235l-103 102l-102 -102h-236l185 287h307z" />
<glyph glyph-name="Atilde" unicode="&#xc3;" horiz-adv-x="1392" d="M455 258l-76 -258h-359l472 1434h409l471 -1434h-358l-76 258h-483zM696 1085l-157 -540h315zM856 1724q66 0 66 70h139q0 -162 -49 -224.5t-152 -62.5q-74 0 -172 49.5t-151 49.5q-66 0 -66 -70h-139q0 162 49 224.5t151 62.5q74 0 172.5 -49.5t151.5 -49.5z" />
<glyph glyph-name="Adieresis" unicode="&#xc4;" horiz-adv-x="1392" d="M455 258l-76 -258h-359l472 1434h409l471 -1434h-358l-76 258h-483zM696 1085l-157 -540h315zM670 1700q0 -182 -172 -182t-172 182t172 182t172 -182zM1067 1700q0 -182 -172 -182t-172 182t172 182t172 -182z" />
<glyph glyph-name="Aring" unicode="&#xc5;" horiz-adv-x="1392" d="M455 258l-76 -258h-359l472 1434h409l471 -1434h-358l-76 258h-483zM696 1085l-157 -540h315zM543 1669.5q0 63.5 45 108.5t108.5 45t108.5 -45t45 -108.5t-45 -108.5t-108.5 -45t-108.5 45t-45 108.5zM770 1669q0 31 -21.5 52.5t-52 21.5t-52 -21.5t-21.5 -52.5 t21.5 -52.5t52 -21.5t52 21.5t21.5 52.5z" />
<glyph glyph-name="AE" unicode="&#xc6;" horiz-adv-x="1931" d="M346 0h-346l772 1434h1077v-281h-696v-295h584v-274h-584v-303h696v-281h-1022l9 313h-322zM852 940l-211 -391h201z" />
<glyph glyph-name="Ccedilla" unicode="&#xc7;" horiz-adv-x="1259" d="M737 -217q0 53 -131 94l31 105q-287 14 -411 149t-124 381v410q0 262 140.5 397t472.5 135q160 0 267.5 -35t213.5 -102l-121 -268q-63 37 -103 55t-112 34.5t-153 16.5q-156 0 -214.5 -67.5t-58.5 -192.5v-356q0 -125 58.5 -192.5t214.5 -67.5q119 0 196.5 26.5 t171.5 79.5l121 -268q-205 -133 -457 -137l-12 -48q109 -33 163 -73.5t54 -108.5q0 -160 -248 -160q-131 0 -217 41l37 123q59 -27 125 -26q96 0 96 55z" />
<glyph glyph-name="Egrave" unicode="&#xc8;" horiz-adv-x="1234" d="M1153 0h-1030v1434h1030v-281h-696v-295h583v-274h-583v-303h696v-281zM694 1823l113 -287h-246l-174 287h307z" />
<glyph glyph-name="Eacute" unicode="&#xc9;" horiz-adv-x="1234" d="M1153 0h-1030v1434h1030v-281h-696v-295h583v-274h-583v-303h696v-281zM510 1536l113 287h307l-174 -287h-246z" />
<glyph glyph-name="Ecircumflex" unicode="&#xca;" horiz-adv-x="1234" d="M1153 0h-1030v1434h1030v-281h-696v-295h583v-274h-583v-303h696v-281zM811 1823l184 -287h-235l-103 102l-102 -102h-236l185 287h307z" />
<glyph glyph-name="Edieresis" unicode="&#xcb;" horiz-adv-x="1234" d="M1153 0h-1030v1434h1030v-281h-696v-295h583v-274h-583v-303h696v-281zM631 1700q0 -182 -172 -182t-172 182t172 182t172 -182zM1028 1700q0 -182 -172 -182t-172 182t172 182t172 -182z" />
<glyph glyph-name="Igrave" unicode="&#xcc;" horiz-adv-x="600" d="M133 0v1434h334v-1434h-334zM315 1823l113 -287h-246l-174 287h307z" />
<glyph glyph-name="Iacute" unicode="&#xcd;" horiz-adv-x="600" d="M133 0v1434h334v-1434h-334zM172 1536l113 287h307l-174 -287h-246z" />
<glyph glyph-name="Icircumflex" unicode="&#xce;" horiz-adv-x="600" d="M133 0v1434h334v-1434h-334zM455 1823l184 -287h-236l-102 102l-102 -102h-236l184 287h308z" />
<glyph glyph-name="Idieresis" unicode="&#xcf;" horiz-adv-x="600" d="M133 0v1434h334v-1434h-334zM274 1700q0 -182 -172 -182t-172 182t172 182t172 -182zM672 1700q0 -182 -172 -182t-172 182t172 182t172 -182z" />
<glyph glyph-name="Ntilde" unicode="&#xd1;" horiz-adv-x="1433" d="M1311 0h-381l-506 940l25 -940h-326v1434h381l506 -940l-25 940h326v-1434zM877 1724q66 0 65 70h139q0 -162 -49 -224.5t-151 -62.5q-74 0 -172.5 49.5t-151.5 49.5q-66 0 -65 -70h-140q0 162 49.5 224.5t151.5 62.5q74 0 172.5 -49.5t151.5 -49.5z" />
<glyph glyph-name="Ograve" unicode="&#xd2;" horiz-adv-x="1413" d="M434 905v-377q0 -260 272.5 -260t272.5 260v377q0 260 -272.5 260t-272.5 -260zM1311 922v-410q0 -532 -604.5 -532t-604.5 532v410q0 532 604.5 532t604.5 -532zM721 1823l113 -287h-246l-174 287h307z" />
<glyph glyph-name="Oacute" unicode="&#xd3;" horiz-adv-x="1413" d="M434 905v-377q0 -260 272.5 -260t272.5 260v377q0 260 -272.5 260t-272.5 -260zM1311 922v-410q0 -532 -604.5 -532t-604.5 532v410q0 532 604.5 532t604.5 -532zM578 1536l112 287h307l-174 -287h-245z" />
<glyph glyph-name="Ocircumflex" unicode="&#xd4;" horiz-adv-x="1413" d="M434 905v-377q0 -260 272.5 -260t272.5 260v377q0 260 -272.5 260t-272.5 -260zM1311 922v-410q0 -532 -604.5 -532t-604.5 532v410q0 532 604.5 532t604.5 -532zM860 1823l184 -287h-235l-102 102l-103 -102h-235l184 287h307z" />
<glyph glyph-name="Otilde" unicode="&#xd5;" horiz-adv-x="1413" d="M434 905v-377q0 -260 272.5 -260t272.5 260v377q0 260 -272.5 260t-272.5 -260zM1311 922v-410q0 -532 -604.5 -532t-604.5 532v410q0 532 604.5 532t604.5 -532zM866 1724q66 0 66 70h139q0 -162 -49 -224.5t-152 -62.5q-72 0 -170 49.5t-153 49.5q-66 0 -66 -70h-139 q0 162 49 224.5t152 62.5q72 0 170 -49.5t153 -49.5z" />
<glyph glyph-name="Odieresis" unicode="&#xd6;" horiz-adv-x="1413" d="M434 905v-377q0 -260 272.5 -260t272.5 260v377q0 260 -272.5 260t-272.5 -260zM1311 922v-410q0 -532 -604.5 -532t-604.5 532v410q0 532 604.5 532t604.5 -532zM680 1700q0 -182 -172 -182t-172 182t172 182t172 -182zM1077 1700q0 -182 -172 -182t-172 182t172 182 t172 -182z" />
<glyph glyph-name="multiply" unicode="&#xd7;" d="M47 379l328 328l-328 327l189 189l327 -328l328 328l188 -189l-327 -327l327 -328l-188 -189l-328 328l-327 -328z" />
<glyph glyph-name="Oslash" unicode="&#xd8;" horiz-adv-x="1413" d="M297 -102h-154l121 204q-162 133 -162 410v410q0 532 605 532q199 0 327 -55l82 137h154l-123 -207q164 -133 164 -407v-410q0 -532 -604 -532q-199 0 -328 55zM434 905v-377q0 -70 17 -112l421 710q-66 39 -165 39q-273 0 -273 -260zM979 905q0 66 -16 113l-424 -713 q61 -37 168 -37q272 0 272 260v377z" />
<glyph glyph-name="Ugrave" unicode="&#xd9;" horiz-adv-x="1392" d="M696.5 -20q-331.5 0 -457.5 133t-126 450v871h333v-883q0 -76 6.5 -118t30 -83t75.5 -58.5t138 -17.5t138.5 17.5t76 58.5t29.5 83t6 118v883h334v-871q0 -317 -126 -450t-457.5 -133zM711 1823l112 -287h-245l-175 287h308z" />
<glyph glyph-name="Uacute" unicode="&#xda;" horiz-adv-x="1392" d="M696.5 -20q-331.5 0 -457.5 133t-126 450v871h333v-883q0 -76 6.5 -118t30 -83t75.5 -58.5t138 -17.5t138.5 17.5t76 58.5t29.5 83t6 118v883h334v-871q0 -317 -126 -450t-457.5 -133zM567 1536l113 287h307l-174 -287h-246z" />
<glyph glyph-name="Ucircumflex" unicode="&#xdb;" horiz-adv-x="1392" d="M696.5 -20q-331.5 0 -457.5 133t-126 450v871h333v-883q0 -76 6.5 -118t30 -83t75.5 -58.5t138 -17.5t138.5 17.5t76 58.5t29.5 83t6 118v883h334v-871q0 -317 -126 -450t-457.5 -133zM850 1823l184 -287h-235l-103 102l-102 -102h-236l185 287h307z" />
<glyph glyph-name="Udieresis" unicode="&#xdc;" horiz-adv-x="1392" d="M696.5 -20q-331.5 0 -457.5 133t-126 450v871h333v-883q0 -76 6.5 -118t30 -83t75.5 -58.5t138 -17.5t138.5 17.5t76 58.5t29.5 83t6 118v883h334v-871q0 -317 -126 -450t-457.5 -133zM670 1700q0 -182 -172 -182t-172 182t172 182t172 -182zM1067 1700q0 -182 -172 -182 t-172 182t172 182t172 -182z" />
<glyph glyph-name="agrave" unicode="&#xe0;" horiz-adv-x="1146" d="M70 297q0 201 146 293t515 92v53q0 84 -182 84t-397 -96l-21 270q193 92 451 92q256 0 364.5 -92t108.5 -270v-723h-303v115q-131 -135 -338 -135q-168 0 -256 83.5t-88 233.5zM395 346q0 -47 30 -77.5t83 -30.5q129 0 223 104v150q-184 0 -260 -34t-76 -112zM588 1434 l112 -287h-245l-174 287h307z" />
<glyph glyph-name="aacute" unicode="&#xe1;" horiz-adv-x="1146" d="M70 297q0 201 146 293t515 92v53q0 84 -182 84t-397 -96l-21 270q193 92 451 92q256 0 364.5 -92t108.5 -270v-723h-303v115q-131 -135 -338 -135q-168 0 -256 83.5t-88 233.5zM395 346q0 -47 30 -77.5t83 -30.5q129 0 223 104v150q-184 0 -260 -34t-76 -112zM444 1147 l113 287h307l-174 -287h-246z" />
<glyph glyph-name="acircumflex" unicode="&#xe2;" horiz-adv-x="1146" d="M70 297q0 201 146 293t515 92v53q0 84 -182 84t-397 -96l-21 270q193 92 451 92q256 0 364.5 -92t108.5 -270v-723h-303v115q-131 -135 -338 -135q-168 0 -256 83.5t-88 233.5zM395 346q0 -47 30 -77.5t83 -30.5q129 0 223 104v150q-184 0 -260 -34t-76 -112zM727 1434 l184 -287h-235l-103 102l-102 -102h-235l184 287h307z" />
<glyph glyph-name="atilde" unicode="&#xe3;" horiz-adv-x="1146" d="M70 297q0 201 146 293t515 92v53q0 84 -182 84t-397 -96l-21 270q193 92 451 92q256 0 364.5 -92t108.5 -270v-723h-303v115q-131 -135 -338 -135q-168 0 -256 83.5t-88 233.5zM395 346q0 -47 30 -77.5t83 -30.5q129 0 223 104v150q-184 0 -260 -34t-76 -112zM733 1356 q66 0 66 69h139q0 -162 -49 -224t-152 -62q-74 0 -172 49t-151 49q-66 0 -66 -70h-139q0 162 49 224.5t152 62.5q74 0 172 -49t151 -49z" />
<glyph glyph-name="adieresis" unicode="&#xe4;" horiz-adv-x="1146" d="M70 297q0 201 146 293t515 92v53q0 84 -182 84t-397 -96l-21 270q193 92 451 92q256 0 364.5 -92t108.5 -270v-723h-303v115q-131 -135 -338 -135q-168 0 -256 83.5t-88 233.5zM395 346q0 -47 30 -77.5t83 -30.5q129 0 223 104v150q-184 0 -260 -34t-76 -112zM547 1331 q0 -182 -172 -182t-172 182t172 182t172 -182zM944 1331q0 -182 -172 -182t-172 182t172 182t172 -182z" />
<glyph glyph-name="aring" unicode="&#xe5;" horiz-adv-x="1146" d="M70 297q0 201 146 293t515 92v53q0 84 -182 84t-397 -96l-21 270q193 92 451 92q256 0 364.5 -92t108.5 -270v-723h-303v115q-131 -135 -338 -135q-168 0 -256 83.5t-88 233.5zM395 346q0 -47 30 -77.5t83 -30.5q129 0 223 104v150q-184 0 -260 -34t-76 -112zM420 1300.5 q0 63.5 45 108.5t108.5 45t108.5 -45t45 -108.5t-45 -108.5t-108.5 -45t-108.5 45t-45 108.5zM647 1300.5q0 30.5 -21.5 52t-52 21.5t-52 -21.5t-21.5 -52t21.5 -52t52 -21.5t52 21.5t21.5 52z" />
<glyph glyph-name="ae" unicode="&#xe6;" horiz-adv-x="1783" d="M1255 -20q-287 0 -411 131q-145 -131 -377 -131q-199 0 -298 77.5t-99 221.5q0 139 53 213.5t198.5 111.5t419.5 37v51q0 84 -28.5 111.5t-147.5 27.5q-164 0 -360 -106l-105 236q223 125 480 124q227 0 338 -100q113 100 313 100q244 0 366.5 -114.5t122.5 -331.5v-184 h-653v-4q0 -211 213 -211q184 0 344 88l105 -236q-200 -112 -474 -112zM395 328q0 -90 117 -90q76 0 126 24.5t107 83.5q-4 25 -4 80v29q-205 0 -275.5 -24.5t-70.5 -102.5zM1067 641h328v12q0 170 -164 170t-164 -170v-12z" />
<glyph glyph-name="ccedilla" unicode="&#xe7;" horiz-adv-x="1003" d="M588 -217q0 53 -131 94l30 107q-205 18 -310 131.5t-105 310.5v213q0 217 128 331.5t373 114.5q231 0 388 -100l-117 -256q-141 74 -254 74q-197 0 -197 -178v-185q0 -178 197 -178q113 0 254 74l117 -256q-154 -98 -371 -100l-12 -48q109 -33 163 -73.5t54 -108.5 q0 -160 -248 -160q-131 0 -217 41l37 123q59 -27 125 -26q96 0 96 55z" />
<glyph glyph-name="egrave" unicode="&#xe8;" d="M592 -20q-520 0 -520 446v213q0 217 125 331.5t370.5 114.5t370.5 -114.5t125 -331.5v-215h-666q-2 -92 48.5 -138t170.5 -46q190 0 351 88l104 -236q-198 -112 -479 -112zM578 1434l112 -287h-246l-174 287h308zM397 631h340v22q0 170 -170 170t-170 -170v-22z" />
<glyph glyph-name="eacute" unicode="&#xe9;" d="M592 -20q-520 0 -520 446v213q0 217 125 331.5t370.5 114.5t370.5 -114.5t125 -331.5v-215h-666q-2 -92 48.5 -138t170.5 -46q190 0 351 88l104 -236q-198 -112 -479 -112zM434 1147l113 287h307l-174 -287h-246zM397 631h340v22q0 170 -170 170t-170 -170v-22z" />
<glyph glyph-name="ecircumflex" unicode="&#xea;" d="M592 -20q-520 0 -520 446v213q0 217 125 331.5t370.5 114.5t370.5 -114.5t125 -331.5v-215h-666q-2 -92 48.5 -138t170.5 -46q190 0 351 88l104 -236q-198 -112 -479 -112zM717 1434l184 -287h-235l-103 102l-102 -102h-236l185 287h307zM397 631h340v22q0 170 -170 170 t-170 -170v-22z" />
<glyph glyph-name="edieresis" unicode="&#xeb;" d="M592 -20q-520 0 -520 446v213q0 217 125 331.5t370.5 114.5t370.5 -114.5t125 -331.5v-215h-666q-2 -92 48.5 -138t170.5 -46q190 0 351 88l104 -236q-198 -112 -479 -112zM934 1331q0 -182 -172 -182t-172 182t172 182t172 -182zM537 1331q0 -182 -172 -182t-172 182 t172 182t172 -182zM397 631h340v22q0 170 -170 170t-170 -170v-22z" />
<glyph glyph-name="igrave" unicode="&#xec;" horiz-adv-x="573" d="M125 1065h324v-1065h-324v1065zM301 1434l113 -287h-246l-174 287h307z" />
<glyph glyph-name="iacute" unicode="&#xed;" horiz-adv-x="573" d="M125 1065h324v-1065h-324v1065zM160 1147l112 287h308l-174 -287h-246z" />
<glyph glyph-name="icircumflex" unicode="&#xee;" horiz-adv-x="573" d="M125 1065h324v-1065h-324v1065zM440 1434l185 -287h-236l-102 102l-103 -102h-235l184 287h307z" />
<glyph glyph-name="idieresis" unicode="&#xef;" horiz-adv-x="573" d="M125 1065h324v-1065h-324v1065zM260 1331q0 -182 -172 -182t-172 182t172 182t172 -182zM657 1331q0 -182 -172 -182t-172 182t172 182t172 -182z" />
<glyph glyph-name="ntilde" unicode="&#xf1;" horiz-adv-x="1212" d="M426 735v-735h-324v1065h304v-129q166 150 374 149q176 0 258 -89t82 -232v-764h-325v653q0 66 -31 105t-117 39q-121 -1 -221 -62zM766 1356q66 0 65 69h140q0 -162 -49.5 -224t-151.5 -62q-74 0 -172 49t-152 49q-66 0 -65 -70h-139q0 162 49 224.5t151 62.5 q74 0 172.5 -49t151.5 -49z" />
<glyph glyph-name="ograve" unicode="&#xf2;" horiz-adv-x="1146" d="M573.5 246q92.5 0 141.5 47t49 133v213q0 86 -49 133t-141.5 47t-141.5 -47t-49 -133v-213q0 -86 49 -133t141.5 -47zM573.5 -20q-247.5 0 -380 115.5t-132.5 330.5v213q0 215 132.5 330.5t380 115.5t379.5 -115.5t132 -330.5v-213q0 -215 -132 -330.5t-379.5 -115.5z M588 1434l112 -287h-245l-174 287h307z" />
<glyph glyph-name="oacute" unicode="&#xf3;" horiz-adv-x="1146" d="M573.5 246q92.5 0 141.5 47t49 133v213q0 86 -49 133t-141.5 47t-141.5 -47t-49 -133v-213q0 -86 49 -133t141.5 -47zM573.5 -20q-247.5 0 -380 115.5t-132.5 330.5v213q0 215 132.5 330.5t380 115.5t379.5 -115.5t132 -330.5v-213q0 -215 -132 -330.5t-379.5 -115.5z M444 1147l113 287h307l-174 -287h-246z" />
<glyph glyph-name="ocircumflex" unicode="&#xf4;" horiz-adv-x="1146" d="M573.5 246q92.5 0 141.5 47t49 133v213q0 86 -49 133t-141.5 47t-141.5 -47t-49 -133v-213q0 -86 49 -133t141.5 -47zM573.5 -20q-247.5 0 -380 115.5t-132.5 330.5v213q0 215 132.5 330.5t380 115.5t379.5 -115.5t132 -330.5v-213q0 -215 -132 -330.5t-379.5 -115.5z M727 1434l184 -287h-235l-103 102l-102 -102h-235l184 287h307z" />
<glyph glyph-name="otilde" unicode="&#xf5;" horiz-adv-x="1146" d="M573.5 246q92.5 0 141.5 47t49 133v213q0 86 -49 133t-141.5 47t-141.5 -47t-49 -133v-213q0 -86 49 -133t141.5 -47zM573.5 -20q-247.5 0 -380 115.5t-132.5 330.5v213q0 215 132.5 330.5t380 115.5t379.5 -115.5t132 -330.5v-213q0 -215 -132 -330.5t-379.5 -115.5z M733 1356q66 0 66 69h139q0 -162 -49 -224t-152 -62q-74 0 -172 49t-151 49q-66 0 -66 -70h-139q0 162 49 224.5t152 62.5q74 0 172 -49t151 -49z" />
<glyph glyph-name="odieresis" unicode="&#xf6;" horiz-adv-x="1146" d="M573.5 246q92.5 0 141.5 47t49 133v213q0 86 -49 133t-141.5 47t-141.5 -47t-49 -133v-213q0 -86 49 -133t141.5 -47zM573.5 -20q-247.5 0 -380 115.5t-132.5 330.5v213q0 215 132.5 330.5t380 115.5t379.5 -115.5t132 -330.5v-213q0 -215 -132 -330.5t-379.5 -115.5z M547 1331q0 -182 -172 -182t-172 182t172 182t172 -182zM944 1331q0 -182 -172 -182t-172 182t172 182t172 -182z" />
<glyph glyph-name="divide" unicode="&#xf7;" d="M360 305q0 84 59.5 143.5t143.5 59.5t143.5 -59.5t59.5 -143.5t-59.5 -143.5t-143.5 -59.5t-143.5 59.5t-59.5 143.5zM360 1108q0 84 59.5 143.5t143.5 59.5t143.5 -59.5t59.5 -143.5t-59.5 -143.5t-143.5 -59.5t-143.5 59.5t-59.5 143.5zM61 840h1004v-267h-1004v267z " />
<glyph glyph-name="oslash" unicode="&#xf8;" horiz-adv-x="1167" d="M1044 1167l-108 -178q160 -117 160 -350v-213q0 -215 -132.5 -330.5t-379.5 -115.5q-133 0 -238 34l-70 -116h-153l106 176q-158 117 -157 352v213q0 215 132 330.5t380 115.5q133 0 235 -36l72 118h153zM584 246q92 0 141 47t49 133v213q0 35 -10 66l-268 -445 q35 -14 88 -14zM393 426q0 -41 8 -68l271 447q-43 14 -88 14q-92 0 -141.5 -47t-49.5 -133v-213z" />
<glyph glyph-name="ugrave" unicode="&#xf9;" horiz-adv-x="1212" d="M786 330v735h324v-1065h-303v129q-166 -150 -375 -149q-176 0 -258 89t-82 232v764h326v-653q0 -66 30.5 -105t116.5 -39q121 1 221 62zM621 1434l112 -287h-246l-174 287h308z" />
<glyph glyph-name="uacute" unicode="&#xfa;" horiz-adv-x="1212" d="M786 330v735h324v-1065h-303v129q-166 -150 -375 -149q-176 0 -258 89t-82 232v764h326v-653q0 -66 30.5 -105t116.5 -39q121 1 221 62zM477 1147l113 287h307l-174 -287h-246z" />
<glyph glyph-name="ucircumflex" unicode="&#xfb;" horiz-adv-x="1212" d="M786 330v735h324v-1065h-303v129q-166 -150 -375 -149q-176 0 -258 89t-82 232v764h326v-653q0 -66 30.5 -105t116.5 -39q121 1 221 62zM760 1434l184 -287h-235l-103 102l-102 -102h-236l185 287h307z" />
<glyph glyph-name="udieresis" unicode="&#xfc;" horiz-adv-x="1212" d="M786 330v735h324v-1065h-303v129q-166 -150 -375 -149q-176 0 -258 89t-82 232v764h326v-653q0 -66 30.5 -105t116.5 -39q121 1 221 62zM580 1331q0 -182 -172 -182t-172 182t172 182t172 -182zM977 1331q0 -182 -172 -182t-172 182t172 182t172 -182z" />
<glyph glyph-name="ydieresis" unicode="&#xff;" horiz-adv-x="1200" d="M592 420l207 645h364l-399 -1032l-123 -422h-410l181 444l-375 1010h360zM573 1331q0 -182 -172 -182t-172 182t172 182t172 -182zM971 1331q0 -182 -172 -182t-172 182t172 182t172 -182z" />
<glyph glyph-name="dotlessi" unicode="&#x131;" horiz-adv-x="573" d="M125 1065h324v-1065h-324v1065z" />
<glyph glyph-name="OE" unicode="&#x152;" horiz-adv-x="1863" d="M1802 0h-1095q-604 0 -605 532v369q0 532 605 533h1095v-281h-614v-295h502v-274h-502v-303h614v-281zM434 895v-356q0 -260 273 -260h149v876h-149q-273 0 -273 -260z" />
<glyph glyph-name="oe" unicode="&#x153;" horiz-adv-x="1845" d="M1294 -20q-258 0 -364 112q-109 -113 -346 -112q-248 0 -380 115.5t-132 330.5v213q0 215 132 330.5t380 115.5q238 0 346 -114q102 115 340 114q246 0 370.5 -114.5t124.5 -331.5v-215h-665q-2 -92 48 -138t171 -46q190 0 350 88l105 -236q-199 -112 -480 -112zM584 246 q92 0 141 47t49 133v213q0 86 -49 133t-141 47t-141.5 -47t-49.5 -133v-213q0 -86 49.5 -133t141.5 -47zM1100 631h340v22q0 170 -170 170t-170 -170v-22z" />
<glyph glyph-name="Ydieresis" unicode="&#x178;" horiz-adv-x="1310" d="M655 809l238 625h397l-465 -942l6 -492h-352l6 492l-465 942h398zM629 1700q0 -182 -172 -182t-172 182t172 182t172 -182zM1026 1700q0 -182 -172 -182t-172 182t172 182t172 -182z" />
<glyph glyph-name="circumflex" unicode="&#x2c6;" horiz-adv-x="647" d="M477 1434l185 -287h-236l-102 102l-103 -102h-235l184 287h307z" />
<glyph glyph-name="caron" unicode="&#x2c7;" horiz-adv-x="647" d="M170 1147l-184 287h235l103 -103l102 103h236l-185 -287h-307z" />
<glyph glyph-name="breve" unicode="&#x2d8;" horiz-adv-x="647" d="M323.5 1126q-100.5 0 -165 24t-93 71t-39 94t-10.5 119h174q0 -59 31 -81t102.5 -22t102.5 21.5t31 81.5h174q0 -72 -10.5 -119t-39 -94t-93 -71t-165 -24z" />
<glyph glyph-name="dotaccent" unicode="&#x2d9;" horiz-adv-x="647" d="M526 1331q0 -86 -52 -134t-150.5 -48t-150.5 48t-52 134t52 134t150.5 48t150.5 -48t52 -134z" />
<glyph glyph-name="ring" unicode="&#x2da;" horiz-adv-x="647" d="M170 1300.5q0 63.5 45 108.5t108.5 45t108.5 -45t45 -108.5t-45 -108.5t-108.5 -45t-108.5 45t-45 108.5zM397 1300.5q0 30.5 -21.5 52t-52 21.5t-52 -21.5t-21.5 -52t21.5 -52t52 -21.5t52 21.5t21.5 52z" />
<glyph glyph-name="ogonek" unicode="&#x2db;" horiz-adv-x="647" d="M303 -190q0 -82 111 -82q74 0 127 26l37 -123q-86 -41 -220 -41q-246 0 -245 185q0 104 91 177t195 103l88 -55q-184 -57 -184 -190z" />
<glyph glyph-name="tilde" unicode="&#x2dc;" horiz-adv-x="647" d="M483 1356q66 0 66 69h139q0 -162 -49 -224t-152 -62q-74 0 -172 49t-151 49q-66 0 -66 -70h-139q0 162 49 224.5t152 62.5q74 0 172 -49t151 -49z" />
<glyph glyph-name="hungarumlaut" unicode="&#x2dd;" horiz-adv-x="647" d="M365 1147l92 287h297l-144 -287h-245zM37 1147l92 287h297l-143 -287h-246z" />
<glyph glyph-name="endash" unicode="&#x2013;" horiz-adv-x="1024" d="M979 731v-235h-934v235h934z" />
<glyph glyph-name="emdash" unicode="&#x2014;" horiz-adv-x="2048" d="M2003 731v-235h-1958v235h1958z" />
<glyph glyph-name="quoteleft" unicode="&#x2018;" horiz-adv-x="610" d="M82 1075q0 213 266 461l123 -90q-74 -72 -74 -129q0 -49 45 -121t45 -129q0 -84 -59 -143.5t-143 -59.5q-86 0 -144.5 60.5t-58.5 150.5z" />
<glyph glyph-name="quoteright" unicode="&#x2019;" horiz-adv-x="610" d="M528 1305q0 -213 -266 -461l-123 90q74 72 74 129q0 49 -45 120.5t-45 129.5q0 84 59.5 143.5t143.5 59.5q86 0 144 -60.5t58 -150.5z" />
<glyph glyph-name="quotesinglbase" unicode="&#x201a;" horiz-adv-x="610" d="M487 174q0 -213 -266 -461l-123 90q74 72 74 129q0 49 -45 121t-45 129q0 84 59.5 143.5t143.5 59.5q86 0 144 -60.5t58 -150.5z" />
<glyph glyph-name="quotedblleft" unicode="&#x201c;" horiz-adv-x="1101" d="M82 1075q0 213 266 461l123 -90q-74 -72 -74 -129q0 -49 45 -121t45 -129q0 -84 -59 -143.5t-143 -59.5q-86 0 -144.5 60.5t-58.5 150.5zM573 1075q0 213 267 461l123 -90q-74 -72 -74 -129q0 -49 45 -121t45 -129q0 -84 -59.5 -143.5t-143.5 -59.5q-86 0 -144.5 60.5 t-58.5 150.5z" />
<glyph glyph-name="quotedblright" unicode="&#x201d;" horiz-adv-x="1101" d="M528 1305q0 -213 -266 -461l-123 90q74 72 74 129q0 49 -45 120.5t-45 129.5q0 84 59.5 143.5t143.5 59.5q86 0 144 -60.5t58 -150.5zM1020 1305q0 -213 -266 -461l-123 90q74 72 74 129q0 49 -45.5 120.5t-45.5 129.5q0 84 59.5 143.5t143.5 59.5q86 0 144.5 -60.5 t58.5 -150.5z" />
<glyph glyph-name="quotedblbase" unicode="&#x201e;" horiz-adv-x="1101" d="M487 174q0 -213 -266 -461l-123 90q74 72 74 129q0 49 -45 121t-45 129q0 84 59.5 143.5t143.5 59.5q86 0 144 -60.5t58 -150.5zM979 174q0 -213 -266 -461l-123 90q74 72 74 129q0 49 -45.5 121t-45.5 129q0 84 59.5 143.5t143.5 59.5q86 0 144.5 -60.5t58.5 -150.5z " />
<glyph glyph-name="dagger" unicode="&#x2020;" horiz-adv-x="839" d="M61 1219l256 -41l-41 256h287l-41 -256l256 41v-287l-256 41l41 -543h-287l41 543l-256 -41v287z" />
<glyph glyph-name="daggerdbl" unicode="&#x2021;" horiz-adv-x="839" d="M61 788l256 -40l-20 112l20 113l-256 -41v287l256 -41l-41 256h287l-41 -256l256 41v-287l-256 41l21 -113l-21 -112l256 40v-286l-256 41l41 -543h-287l41 543l-256 -41v286z" />
<glyph glyph-name="bullet" unicode="&#x2022;" horiz-adv-x="839" d="M207 614q0 88 62.5 150.5t150.5 62.5t150.5 -62.5t62.5 -150.5t-62.5 -150.5t-150.5 -62.5t-150.5 62.5t-62.5 150.5z" />
<glyph glyph-name="ellipsis" unicode="&#x2026;" horiz-adv-x="2048" d="M125 182q0 84 59.5 143.5t143.5 59.5t143 -59.5t59 -143.5t-59 -143t-143 -59t-143.5 59t-59.5 143zM821 182q0 84 59.5 143.5t143.5 59.5t143.5 -59.5t59.5 -143.5t-59.5 -143t-143.5 -59t-143.5 59t-59.5 143zM1518 182q0 84 59 143.5t143 59.5t143.5 -59.5 t59.5 -143.5t-59.5 -143t-143.5 -59t-143 59t-59 143z" />
<glyph glyph-name="perthousand" unicode="&#x2030;" horiz-adv-x="2457" d="M293 1163v-196q0 -66 86 -66t86 66v196q0 66 -86 66t-86 -66zM717 1178v-226q0 -256 -338 -256t-338 256v226q0 256 338 256t338 -256zM553 0h-287l901 1413h287zM1427 250v196q0 66 -86 66t-86 -66v-196q0 -66 86 -66t86 66zM1004 236v225q0 256 337.5 256t337.5 -256 v-225q0 -256 -337.5 -256t-337.5 256zM2165 250v196q0 66 -86 66t-86 -66v-196q0 -66 86 -66t86 66zM1741 236v225q0 256 338 256t338 -256v-225q0 -256 -338 -256t-338 256z" />
<glyph glyph-name="guilsinglleft" unicode="&#x2039;" horiz-adv-x="389" d="M61 748l267 153v-194l-113 -93l113 -92v-194l-267 153v267z" />
<glyph glyph-name="guilsinglright" unicode="&#x203a;" horiz-adv-x="389" d="M328 481l-267 -153v194l113 92l-113 93v194l267 -153v-267z" />
<glyph glyph-name="fraction" unicode="&#x2044;" horiz-adv-x="1228" d="M307 0h-287l902 1413h286z" />
<glyph glyph-name="Euro" unicode="&#x20ac;" horiz-adv-x="1259" d="M27 737v205h127v4q0 238 128 363t453 125q266 0 461 -127l-121 -269q-55 31 -91 48.5t-105.5 33t-151.5 15.5q-141 0 -189.5 -50.5t-52.5 -138.5v-4h555l-65 -205h-490v-61h494l-66 -205h-428v-4q4 -88 52.5 -138t189.5 -50q82 0 151.5 15t105.5 32.5t91 48.5l121 -269 q-195 -127 -461 -126q-326 0 -453.5 124.5t-127.5 362.5v4h-127v205h127v61h-127z" />
<glyph glyph-name="trademark" unicode="&#x2122;" horiz-adv-x="845" d="M143 1065v297h-102v72h289v-72h-101v-297h-86zM502 1434l61 -207l62 207h139v-369h-90l2 274l-74 -239h-76l-73 239l4 -274h-86v369h131z" />
<glyph glyph-name="minus" unicode="&#x2212;" d="M61 840h1004v-267h-1004v267z" />
<glyph glyph-name="approxequal" unicode="&#x2248;" d="M309 817q-113 0 -184 -63l-64 243q115 80 252 80q100 0 265 -49t235 -49q117 0 188 63l64 -243q-115 -80 -252 -80q-100 0 -267 49t-237 49zM309 436q-113 0 -184 -63l-64 243q115 80 252 80q100 0 265 -49t235 -49q117 0 188 64l64 -244q-115 -80 -252 -80 q-100 0 -267 49t-237 49z" />
<glyph glyph-name="notequal" unicode="&#x2260;" d="M195 211l90 158h-224v266h379l82 143h-461v266h615l133 228l123 -70l-92 -158h225v-266h-379l-84 -143h463v-266h-616l-132 -228z" />
<glyph glyph-name="lessequal" unicode="&#x2264;" d="M1065 451l-1004 307v246l1004 245v-256l-612 -125l612 -161v-256zM1065 164l-1004 305v207l1004 -307v-205z" />
<glyph glyph-name="greaterequal" unicode="&#x2265;" d="M1065 758l-1004 -307v256l611 161l-611 125v256l1004 -245v-246zM1065 469l-1004 -305v205l1004 307v-207z" />
<glyph glyph-name="uni2605" unicode="&#x2605;" horiz-adv-x="1597" d="M616 895l183 561l182 -561h592l-479 -350l184 -565l-479 350l-480 -350l183 565l-477 350h591z" />
<glyph glyph-name="doublegrave" horiz-adv-x="647" d="M518 1434l92 -287h-245l-144 287h297zM190 1434l93 -287h-246l-143 287h296z" />
</font>
</defs>
</svg>
