<?xml version="1.0" standalone="no"?>
<!DOCTYPE svg PUBLIC "-//W3C//DTD SVG 1.1//EN" "http://www.w3.org/Graphics/SVG/1.1/DTD/svg11.dtd" >
<svg xmlns="http://www.w3.org/2000/svg">
<metadata>
This is a custom SVG webfont generated by Font Squirrel.
Copyright   : C 2010 dot colon
Designer    : arro
</metadata>
<defs>
<font id="VegurLight" horiz-adv-x="1050" >
<font-face units-per-em="2048" ascent="1577" descent="-471" />
<missing-glyph horiz-adv-x="487" />
<glyph unicode=" "  horiz-adv-x="487" />
<glyph unicode="&#x09;" horiz-adv-x="487" />
<glyph unicode="&#xa0;" horiz-adv-x="487" />
<glyph unicode="!" horiz-adv-x="483" d="M176 45q0 29 18.5 47.5t47 18.5t47 -18.5t18.5 -47.5t-18.5 -47t-47 -18t-47 18t-18.5 47zM193 1389h98l-12 -1104h-74z" />
<glyph unicode="&#x22;" horiz-adv-x="516" d="M131 1401q-2 41 41 41h51l-20 -416h-64zM309 1401q-2 41 41 41h51l-20 -416h-64z" />
<glyph unicode="#" horiz-adv-x="1064" d="M111 451v61h208l54 324h-217v61h227l61 379h66l-61 -379h241l62 379h65l-61 -379h198v-61h-209l-53 -324h217v-61h-227l-61 -379h-66l61 379h-241l-62 -379h-65l61 379h-198zM385 512h242l53 324h-242z" />
<glyph unicode="$" d="M190 119l13 76q139 -57 282 -58q129 0 205 59.5t76 170.5q0 104 -58.5 164.5t-224.5 136.5q-139 63 -204.5 136t-65.5 181q0 123 76 197.5t196 91.5v199h66v-195q141 0 240 -49l-11 -72q-113 47 -229 47q-113 0 -181.5 -52t-68.5 -151q0 -106 54.5 -161.5t211.5 -126.5 q152 -70 219.5 -144.5t67.5 -177.5q0 -129 -83 -217t-222 -106v-191h-66v186q-156 1 -293 56z" />
<glyph unicode="%" horiz-adv-x="1691" d="M145 1019.5q0 149.5 77 249t206 99.5t206 -99.5t77 -249t-77 -248.5t-206 -99t-206 99t-77 248.5zM215 1020q0 -133 59.5 -210t153.5 -77t153.5 77t59.5 210t-59.5 210t-153.5 77t-153.5 -77t-59.5 -210zM336 -41l942 1450h78l-942 -1450h-78zM981 327.5q0 149.5 77 249 t206 99.5t205.5 -99.5t76.5 -249t-76.5 -248.5t-205.5 -99t-206 99t-77 248.5zM1051 328q0 -133 59 -210t153.5 -77t154 77t59.5 210t-59.5 209.5t-154 76.5t-153.5 -76.5t-59 -209.5z" />
<glyph unicode="&#x26;" horiz-adv-x="1314" d="M115 340q0 141 84 239.5t266 211.5v4q-92 106 -136 180t-44 158q0 127 90 201.5t200 74.5q123 0 198 -78t75 -190q0 -111 -64.5 -187.5t-203.5 -171.5v-4l444 -520h4q121 156 131 430h82q-14 -309 -168 -485l176 -203h-110l-121 143h-4q-182 -164 -461 -163 q-178 0 -308 97t-130 263zM205 352q0 -129 103.5 -214t258.5 -85q242 0 400 144v4l-451 536h-4q-164 -104 -235.5 -185t-71.5 -200zM375 1145q0 -82 32.5 -142.5t122.5 -166.5h5q121 80 172 141t51 158q0 90 -53.5 145t-133 55t-138 -52t-58.5 -138z" />
<glyph unicode="'" horiz-adv-x="391" d="M184 1401q-2 41 41 41h51l-20 -416h-63z" />
<glyph unicode="(" horiz-adv-x="602" d="M182 628.5q0 235.5 71 457t173 364.5h61q-236 -369 -235.5 -821.5t235.5 -821.5h-61q-102 143 -173 364.5t-71 457z" />
<glyph unicode=")" horiz-adv-x="602" d="M115 -193q236 369 235.5 821.5t-235.5 821.5h61q102 -143 173 -364.5t71 -457t-70.5 -456.5t-173.5 -365h-61z" />
<glyph unicode="*" horiz-adv-x="909" d="M135 1120l25 74l268 -107h4l-16 293h78l-17 -293h4l269 107l24 -74l-282 -73v-5l184 -225l-64 -45l-155 246h-4l-156 -246l-64 45l185 225v5z" />
<glyph unicode="+" horiz-adv-x="1249" d="M135 494v61h457v494h65v-494h457v-61h-457v-494h-65v494h-457z" />
<glyph unicode="," horiz-adv-x="393" d="M23 -338q80 219 122 395q8 33 45 33h68q-80 -240 -154 -412z" />
<glyph unicode="-" horiz-adv-x="735" d="M160 494v61h415v-61h-415z" />
<glyph unicode="." horiz-adv-x="401" d="M135 45q0 29 18.5 47.5t47 18.5t47 -18.5t18.5 -47.5t-18.5 -47t-47 -18t-47 18t-18.5 47z" />
<glyph unicode="/" horiz-adv-x="692" d="M-10 -76l641 1510h71l-641 -1510h-71z" />
<glyph unicode="0" d="M90 673.5q0 323.5 121 509t315.5 185.5t314.5 -185.5t120 -509t-120 -508.5t-314.5 -185t-315.5 185t-121 508.5zM180 674q0 -289 98.5 -455t248 -166t246.5 165t97 456t-97 455.5t-246.5 164.5t-248 -165.5t-98.5 -454.5z" />
<glyph unicode="1" d="M252 1196l342 152h41v-1348h-82v1239l-291 -115z" />
<glyph unicode="2" d="M135 0v61l277 349q236 299 303 410.5t67 205.5q0 121 -75.5 194.5t-214.5 73.5q-152 0 -283 -77l-10 73q137 78 313 78q164 0 262 -95t98 -239q0 -117 -83.5 -250t-358.5 -477l-184 -231v-4h645v-72h-756z" />
<glyph unicode="3" d="M133 45l10 74q145 -66 316 -66q150 0 253 82t103 217q0 133 -98.5 212t-290.5 87v76q137 10 246.5 101.5t109.5 220.5q0 117 -74.5 181t-215.5 64q-137 0 -275 -67l-10 73q137 68 305 68q162 0 261 -83t99 -210t-91 -223t-222 -137v-4q145 -27 245.5 -117t100.5 -225 q0 -184 -133 -286.5t-336 -102.5q-158 -1 -303 65z" />
<glyph unicode="4" d="M84 358v66l649 924h88v-918h178v-72h-178v-358h-82v358h-655zM180 430h559v414q0 240 2 387h-4l-557 -799v-2z" />
<glyph unicode="5" d="M145 39l11 74q143 -59 278 -60q160 0 272.5 94.5t112.5 243.5q0 162 -90 247t-244 85q-121 0 -215 -49l-73 2l20 672h625v-72h-551l-19 -526h7q100 47 225 47q178 0 291.5 -105.5t113.5 -273.5q0 -197 -139 -317.5t-344 -120.5q-158 0 -281 59z" />
<glyph unicode="6" d="M119 528q0 330 193.5 572.5t451.5 267.5l10 -74q-233 -33 -392 -230.5t-175 -461.5h4q39 102 137 158.5t211 56.5q164 0 270.5 -108.5t106.5 -276.5q0 -199 -117 -325.5t-289 -126.5q-178 0 -294.5 147t-116.5 401zM217 451q0 -162 93 -280t227 -118q127 0 218 98.5 t91 266.5q0 143 -86 234t-225 91q-137 0 -227.5 -83.5t-90.5 -208.5z" />
<glyph unicode="7" d="M147 1276v72h779v-74l-533 -1274h-84l535 1272v4h-697z" />
<glyph unicode="8" d="M119 326q0 139 83 230t234 157v4q-260 123 -260 334q0 135 106.5 226t260.5 91q143 0 248.5 -88t105.5 -215q0 -217 -276 -340v-4q158 -74 233.5 -158t75.5 -211q0 -174 -123 -273t-283 -99q-174 0 -289.5 93t-115.5 253zM207 346q0 -131 91 -212t226 -81q129 0 223.5 77 t94.5 206q0 231 -324 350q-311 -121 -311 -340zM264 1055q0 -205 268 -303q276 104 277 295q0 109 -75 179t-195.5 70t-197.5 -69.5t-77 -171.5z" />
<glyph unicode="9" d="M115 915q0 199 116.5 326t288.5 127q178 0 295 -147.5t117 -401.5q0 -330 -193.5 -572.5t-451.5 -266.5l-11 73q233 33 392 230.5t176 461.5h-4q-39 -102 -137.5 -158.5t-210.5 -56.5q-166 0 -271.5 108.5t-105.5 276.5zM205 930q0 -143 86 -234.5t225 -91.5 q137 0 227.5 83t90.5 210q0 162 -94.5 279.5t-225.5 117.5q-127 0 -218 -98t-91 -266z" />
<glyph unicode=":" horiz-adv-x="401" d="M135 45q0 29 18.5 47.5t47 18.5t47 -18.5t18.5 -47.5t-18.5 -47t-47 -18t-47 18t-18.5 47zM135 946.5q0 28.5 18.5 47t47 18.5t47 -18.5t18.5 -47t-18.5 -47t-47 -18.5t-47 18.5t-18.5 47z" />
<glyph unicode=";" horiz-adv-x="413" d="M23 -338q80 219 122 395q8 33 45 33h68q-80 -240 -154 -412zM147 946.5q0 28.5 18.5 47t47.5 18.5t47.5 -18.5t18.5 -47t-18.5 -47t-47.5 -18.5t-47.5 18.5t-18.5 47z" />
<glyph unicode="&#x3c;" horiz-adv-x="1015" d="M104 504v74l762 413v-73l-702 -375v-4l702 -375v-74z" />
<glyph unicode="=" horiz-adv-x="1290" d="M182 281v61h926v-61h-926zM182 707v61h926v-61h-926z" />
<glyph unicode="&#x3e;" horiz-adv-x="1015" d="M150 90v74l702 375v4l-702 375v73l761 -413v-74z" />
<glyph unicode="?" horiz-adv-x="786" d="M94 1364q117 57 260 57q141 0 229.5 -73.5t88.5 -196.5q0 -86 -44 -173t-153 -233q-76 -102 -103.5 -189t-27.5 -196v-75h-82v57q0 139 42 246.5t132 230.5q76 106 111 177t35 145q0 88 -63.5 147.5t-184.5 59.5q-125 0 -230 -58zM238 45q0 -29 18 -47t47 -18t47.5 18 t18.5 47t-18.5 47.5t-47.5 18.5t-47 -18.5t-18 -47.5z" />
<glyph unicode="@" horiz-adv-x="1798" d="M154 365q0 371 247.5 597t616.5 226q242 0 414 -181.5t172 -404.5q0 -221 -107.5 -360.5t-269.5 -139.5q-145 0 -174 164h-4q-94 -178 -279 -178q-88 0 -159.5 77t-71.5 195q0 233 137 378t354 145q88 0 170 -31l-65 -438q-39 -250 114 -250q119 0 201 110.5t82 292.5 q0 236 -152.5 397.5t-398.5 161.5q-319 0 -538.5 -208.5t-219.5 -514.5q0 -264 162 -434t399 -170q231 0 416 111l8 -57q-190 -115 -448 -115q-248 0 -427 183.5t-179 443.5zM608 381q0 -109 55.5 -170t131.5 -61q236 0 282 331l47 326q-57 14 -120 14q-176 0 -286 -125 t-110 -315z" />
<glyph unicode="A" horiz-adv-x="1177" d="M53 0l488 1389h84l487 -1389h-86l-168 489h-555l-168 -489h-82zM328 561h508l-250 727h-6z" />
<glyph unicode="B" horiz-adv-x="1054" d="M176 12v1366q158 20 285 21q217 0 334.5 -91t117.5 -241q0 -121 -80.5 -211t-191.5 -123v-4q141 -33 225 -122t84 -214q0 -193 -143 -298t-375 -105q-121 -1 -256 22zM258 80q104 -16 195 -17q188 0 297.5 86.5t109.5 231.5q0 133 -101.5 215t-285.5 82h-215v-598z M258 745h221q135 0 239.5 81t104.5 225q0 131 -97 202.5t-277 71.5q-106 0 -191 -14v-566z" />
<glyph unicode="C" horiz-adv-x="1187" d="M90 690q0 315 194.5 517t471.5 202q242 0 358 -63l-10 -74q-168 63 -342 63q-242 0 -412 -178t-170 -463q0 -293 161 -467t402 -174q178 0 340 66l11 -76q-147 -63 -371 -63q-264 0 -448.5 191t-184.5 519z" />
<glyph unicode="D" horiz-adv-x="1357" d="M176 4v1372q152 23 334 23q352 0 555 -179.5t203 -484.5q0 -330 -227.5 -537.5t-551.5 -207.5q-133 0 -313 14zM258 72q143 -8 252 -9q272 0 470 182.5t198 469.5q0 276 -177.5 443t-488.5 167q-139 0 -254 -14v-1239z" />
<glyph unicode="E" horiz-adv-x="991" d="M176 0v1389h682v-72h-600v-563h530v-72h-530v-610h619v-72h-701z" />
<glyph unicode="F" horiz-adv-x="911" d="M176 0v1389h682v-72h-600v-584h530v-71h-530v-662h-82z" />
<glyph unicode="G" horiz-adv-x="1277" d="M90 684q0 332 198.5 528.5t481.5 196.5q203 0 338 -66l-10 -79q-152 72 -334 71q-248 0 -416 -174t-168 -467t158 -462t405 -169q186 0 324 50v473h-346v71h428v-598q-180 -70 -426 -69q-272 0 -452.5 182t-180.5 512z" />
<glyph unicode="H" horiz-adv-x="1357" d="M176 0v1389h82v-637h842v637h82v-1389h-82v680h-842v-680h-82z" />
<glyph unicode="I" horiz-adv-x="434" d="M176 0v1389h82v-1389h-82z" />
<glyph unicode="J" horiz-adv-x="749" d="M12 8l11 74q74 -29 178 -29q139 0 220 92.5t81 290.5v953h82v-945q0 -233 -107.5 -348.5t-290.5 -115.5q-106 -1 -174 28z" />
<glyph unicode="K" horiz-adv-x="1079" d="M176 0v1389h82v-789h8l686 789h103l-594 -666l635 -723h-113l-571 664h-6l-148 -166v-498h-82z" />
<glyph unicode="L" horiz-adv-x="954" d="M176 0v1389h82v-1317h639v-72h-721z" />
<glyph unicode="M" horiz-adv-x="1646" d="M170 0l49 1389h103l491 -1254h6l502 1254h100l49 -1389h-81l-35 1278h-6l-496 -1237h-78l-487 1237h-6l-35 -1278h-76z" />
<glyph unicode="N" horiz-adv-x="1384" d="M170 0v1389h113l591 -897q137 -205 265 -412h6q-6 166 -6 412v897h75v-1389h-112l-592 897q-164 246 -264 410h-6q6 -164 6 -410v-897h-76z" />
<glyph unicode="O" horiz-adv-x="1437" d="M90 694.5q0 288.5 177 501.5t451.5 213t452 -213t177.5 -501.5t-177.5 -501.5t-452 -213t-451.5 213t-177 501.5zM180 694q0 -262 150.5 -451.5t388 -189.5t388 189.5t150.5 451.5t-150.5 451.5t-388 189.5t-388 -189.5t-150.5 -451.5z" />
<glyph unicode="P" horiz-adv-x="1011" d="M176 0v1372q133 27 260 27q236 0 367 -98.5t131 -272.5q0 -219 -152.5 -333.5t-382.5 -114.5q-59 0 -141 10v-590h-82zM258 664q72 -10 158 -11q188 0 308 94.5t120 260.5q0 160 -110.5 238.5t-303.5 78.5q-82 0 -172 -12v-649z" />
<glyph unicode="Q" horiz-adv-x="1437" d="M90 694.5q0 288.5 177 501.5t451.5 213t452 -213t177.5 -502q0 -229 -117 -416.5t-309 -261.5l75 -290l-79 -21l-70 289q-57 -14 -129 -14q-274 0 -451.5 213t-177.5 501.5zM180 694q0 -262 150.5 -451.5t388 -189.5t388 189.5t150.5 451.5t-150.5 451.5t-388 189.5 t-388 -189.5t-150.5 -451.5z" />
<glyph unicode="R" horiz-adv-x="1044" d="M176 0v1366q145 31 295 31q215 0 345 -94.5t130 -258.5q0 -141 -88 -237t-209 -131v-4q180 -51 228 -279q39 -197 100 -393h-96q-55 199 -90 381q-51 250 -283 250h-250v-631h-82zM258 702h236q160 0 261 86t101 236q0 147 -102.5 223t-288.5 76q-104 0 -207 -18v-603z " />
<glyph unicode="S" horiz-adv-x="1003" d="M104 31l11 75q143 -53 309 -53q150 0 253 78t103 211q0 125 -69.5 195.5t-245.5 150.5q-145 66 -225 154t-80 217q0 166 116.5 258t278.5 92q170 0 264 -49l-10 -74q-98 49 -254 49q-131 0 -219 -69.5t-88 -188.5q0 -127 68.5 -196.5t232.5 -145.5t241.5 -158.5 t77.5 -209.5q0 -170 -123.5 -278.5t-328.5 -108.5q-183 0 -312 51z" />
<glyph unicode="T" horiz-adv-x="970" d="M31 1317v72h909v-72h-414v-1317h-82v1317h-413z" />
<glyph unicode="U" horiz-adv-x="1204" d="M160 438v951h82v-930q0 -193 101 -299.5t265 -106.5q170 0 267.5 109.5t97.5 296.5v930h78v-920q0 -229 -125 -359t-322 -130q-195 0 -319.5 128.5t-124.5 329.5z" />
<glyph unicode="V" horiz-adv-x="1114" d="M33 1389h86l440 -1287h6l445 1287h82l-488 -1389h-84z" />
<glyph unicode="W" horiz-adv-x="1775" d="M41 1389h86l375 -1280h6l348 1280h82l344 -1280h6l379 1280h78l-424 -1389h-82l-342 1274h-6l-346 -1274h-84z" />
<glyph unicode="X" horiz-adv-x="995" d="M29 0l432 709l-418 680h96l363 -609h4l356 609h90l-409 -676l436 -713h-96l-381 643h-4l-379 -643h-90z" />
<glyph unicode="Y" horiz-adv-x="1042" d="M33 1389h98l397 -711h4l398 711h90l-451 -781v-608h-82v600z" />
<glyph unicode="Z" horiz-adv-x="1112" d="M90 0v72l803 1241v4h-739v72h829v-74l-801 -1239v-4h836v-72h-928z" />
<glyph unicode="[" horiz-adv-x="608" d="M209 -178v1612h301v-62h-236v-1489h236v-61h-301z" />
<glyph unicode="\" horiz-adv-x="692" d="M-10 1434h71l641 -1510h-71z" />
<glyph unicode="]" horiz-adv-x="608" d="M98 -117h236v1489h-236v62h301v-1612h-301v61z" />
<glyph unicode="^" horiz-adv-x="1093" d="M135 541l375 798h74l374 -798h-73l-334 733h-6l-336 -733h-74z" />
<glyph unicode="_" horiz-adv-x="1032" d="M53 -113h926v-61h-926v61z" />
<glyph unicode="`" horiz-adv-x="505" d="M88 1442h68q27 0 39 -23q57 -113 135 -239l-78 -4q-109 162 -164 266z" />
<glyph unicode="a" horiz-adv-x="950" d="M96 289q0 160 120 248t306 88q94 0 189 -17v45q0 145 -62.5 214t-202.5 69q-113 0 -233 -51l-8 69q131 53 264 54q156 0 240 -86t84 -242v-680h-76l-6 186h-4q-43 -98 -125 -152t-181 -54q-127 0 -216 87t-89 222zM186 299q0 -117 68 -184.5t172 -67.5q123 0 204 101.5 t81 261.5v131q-70 16 -170 16q-162 0 -258.5 -64.5t-96.5 -193.5z" />
<glyph unicode="b" horiz-adv-x="1132" d="M176 0v1475h82v-682h4q131 211 344 211q197 0 313.5 -134.5t116.5 -359.5q0 -236 -124 -383t-320 -147q-223 0 -330 210h-4l-6 -190h-76zM258 395q0 -152 97.5 -248t238.5 -96q152 0 252 120t100 323q0 201 -93 319.5t-263 118.5q-145 0 -238.5 -101.5t-93.5 -242.5v-193 z" />
<glyph unicode="c" horiz-adv-x="935" d="M96 483q0 248 137.5 384.5t356.5 136.5q184 0 272 -60l-8 -70q-119 57 -260 58q-180 0 -294 -110.5t-114 -315.5q0 -211 110 -333t292 -122q106 0 256 55l8 -69q-127 -57 -293 -57q-199 0 -331 139t-132 364z" />
<glyph unicode="d" horiz-adv-x="1132" d="M96 473q0 236 124 383.5t321 147.5q225 0 329 -211h4v682h82v-1475h-75l-7 190h-4q-131 -211 -344 -210q-197 0 -313.5 134t-116.5 359zM186 489q0 -201 93.5 -319.5t263.5 -118.5q143 0 237 101.5t94 242.5v193q0 150 -98 247t-237 97q-154 0 -253.5 -119t-99.5 -324z " />
<glyph unicode="e" horiz-adv-x="1005" d="M96 485q0 217 128 370t327 153q166 0 258 -123t92 -307q0 -45 -6 -89h-713q0 -207 102.5 -322.5t282.5 -115.5q131 0 240 51l8 -69q-119 -53 -278 -53q-190 0 -315.5 129.5t-125.5 375.5zM186 557h631q0 174 -71.5 276.5t-213.5 102.5q-147 0 -242.5 -110.5 t-103.5 -268.5z" />
<glyph unicode="f" horiz-adv-x="641" d="M74 911v72h162v102q0 199 94 304.5t239 105.5q76 0 129 -29l-8 -65q-55 23 -123 22q-115 0 -182.5 -78.5t-67.5 -234.5v-127h263v-72h-263v-911h-81v911h-162z" />
<glyph unicode="g" horiz-adv-x="1128" d="M96 481q0 233 123 378t318 145q225 0 329 -211h4l7 190h75v-848q0 -557 -473 -557q-180 0 -301 72l8 74q127 -74 297 -74q186 0 286.5 108.5t100.5 329.5v115h-4q-131 -211 -344 -211q-197 0 -311.5 132t-114.5 357zM186 498q0 -199 93.5 -317t259.5 -118 q143 0 237 101.5t94 243.5v180q0 150 -98 247t-237 97q-152 0 -250.5 -118.5t-98.5 -315.5z" />
<glyph unicode="h" horiz-adv-x="1073" d="M176 0v1475h82v-689h4q55 106 147.5 164t202.5 58q152 0 227.5 -99.5t75.5 -263.5v-645h-81v614q0 158 -57.5 239t-192.5 81q-139 0 -232.5 -103.5t-93.5 -248.5v-582h-82z" />
<glyph unicode="i" horiz-adv-x="434" d="M156 1243.5q0 26.5 17 44t44 17.5t44.5 -17.5t17.5 -44t-17.5 -44t-44.5 -17.5t-44 17.5t-17 44zM176 0v983h82v-983h-82z" />
<glyph unicode="j" horiz-adv-x="458" d="M-84 -348q143 27 214 118t71 298v915h82v-903q0 -236 -85 -350.5t-274 -151.5zM180 1243.5q0 26.5 17.5 44t44 17.5t44 -17.5t17.5 -44t-17.5 -44t-44 -17.5t-44 17.5t-17.5 44z" />
<glyph unicode="k" horiz-adv-x="935" d="M176 0v1475h82v-1043h6q43 49 171 187.5t237 250.5l106 113h107l-402 -403l455 -580h-104l-402 520h-6l-168 -176v-344h-82z" />
<glyph unicode="l" horiz-adv-x="434" d="M176 0v1475h82v-1475h-82z" />
<glyph unicode="m" horiz-adv-x="1640" d="M176 0v983h76l6 -201h4q111 221 326 222q106 0 176 -72t92 -182h6q113 254 338 254q141 0 212 -95.5t71 -267.5v-641h-82v610q0 162 -54.5 241t-177.5 79q-133 0 -216 -114t-83 -279v-537h-82v606q0 324 -231 324q-133 0 -216 -112.5t-83 -280.5v-537h-82z" />
<glyph unicode="n" horiz-adv-x="1073" d="M176 0v987h76l6 -201h4q55 106 147.5 164t202.5 58q152 0 227.5 -99.5t75.5 -263.5v-645h-81v614q0 158 -57.5 239t-192.5 81q-139 0 -232.5 -103.5t-93.5 -248.5v-582h-82z" />
<glyph unicode="o" horiz-adv-x="1089" d="M96 491.5q0 231.5 127 372t321.5 140.5t321.5 -140.5t127 -372t-127 -371.5t-321.5 -140t-321.5 140t-127 371.5zM186 491.5q0 -200.5 96.5 -320.5t262.5 -120t262 120t96 320.5t-96 320.5t-262 120t-262.5 -120t-96.5 -320.5z" />
<glyph unicode="p" horiz-adv-x="1132" d="M176 -401v1384h76l6 -190h4q131 211 344 211q197 0 313.5 -134.5t116.5 -359.5q0 -236 -124 -383t-320 -147q-223 0 -330 210h-4v-591h-82zM258 395q0 -152 97.5 -248t238.5 -96q152 0 252 120t100 323q0 201 -93 319.5t-263 118.5q-145 0 -238.5 -101.5t-93.5 -242.5 v-193z" />
<glyph unicode="q" horiz-adv-x="1132" d="M96 473q0 236 124 383.5t321 147.5q225 0 329 -211h4l7 190h75v-1384h-82v591h-4q-131 -211 -344 -210q-197 0 -313.5 134t-116.5 359zM186 489q0 -201 93.5 -319.5t263.5 -118.5q143 0 237 101.5t94 242.5v193q0 150 -98 247t-237 97q-154 0 -253.5 -119t-99.5 -324z " />
<glyph unicode="r" horiz-adv-x="557" d="M176 0v987h76l6 -252h4q39 121 107.5 192.5t156.5 80.5l-4 -97q-59 -10 -102 -37q-162 -104 -162 -428v-446h-82z" />
<glyph unicode="s" horiz-adv-x="798" d="M102 33l9 71q121 -53 245 -53q109 0 173.5 50.5t64.5 138.5q0 74 -49 126t-172 103q-223 94 -223 274q0 123 83.5 192t208.5 69q119 0 201 -46l-8 -69q-94 43 -189 43q-88 0 -149 -45t-61 -125q0 -86 38.5 -135t135.5 -90q143 -61 206.5 -125t63.5 -152 q0 -131 -93 -205.5t-241 -74.5t-244 53z" />
<glyph unicode="t" horiz-adv-x="624" d="M47 911v72h146v207h81v-207h226v-72h-226v-678q0 -182 142 -182q57 0 112 21l9 -66q-59 -27 -142 -26q-92 0 -147 56t-55 171v704h-146z" />
<glyph unicode="u" horiz-adv-x="1073" d="M158 342v641h82v-610q0 -158 57 -239t192 -81q137 0 231.5 103.5t94.5 249.5v577h82v-983h-76l-6 201h-4q-119 -221 -350 -221q-154 0 -228.5 99t-74.5 263z" />
<glyph unicode="v" horiz-adv-x="944" d="M39 983h88l348 -893h4l350 893h82l-395 -983h-84z" />
<glyph unicode="w" horiz-adv-x="1499" d="M47 983h90l295 -883h6l277 883h86l276 -883h6l293 883h82l-344 -983h-82l-274 874h-6l-277 -874h-86z" />
<glyph unicode="x" horiz-adv-x="905" d="M33 0l366 500v6l-346 477h103l290 -412h7l290 412h95l-342 -473v-6l370 -504h-102l-315 440h-7l-315 -440h-94z" />
<glyph unicode="y" horiz-adv-x="927" d="M39 983h88l350 -893h4l353 893h81l-399 -989q-80 -195 -176 -290t-242 -126l-8 74q115 25 196 98.5t138 216.5l12 31z" />
<glyph unicode="z" horiz-adv-x="849" d="M94 0v72l541 833v6h-494v72h586v-72l-541 -833v-6h572v-72h-664z" />
<glyph unicode="{" horiz-adv-x="673" d="M166 598v61q96 10 127 45t20 123l-32 291q-39 336 301 336v-61q-150 0 -200 -70t-36 -205l33 -289q10 -92 -15.5 -131t-97.5 -67v-4q72 -29 97.5 -68t15.5 -131l-33 -289q-14 -135 36 -204.5t200 -69.5v-62q-340 0 -301 336l32 291q10 88 -20.5 123t-126.5 45z" />
<glyph unicode="|" horiz-adv-x="487" d="M209 -512v2048h70v-2048h-70z" />
<glyph unicode="}" horiz-adv-x="673" d="M92 -135q150 0 200 69.5t36 204.5l-33 289q-10 92 15.5 131t97.5 68v4q-72 29 -97.5 67.5t-15.5 130.5l33 289q14 135 -36 205t-200 70v61q340 0 301 -336l-33 -291q-10 -88 21 -122.5t127 -45.5v-61q-96 -10 -127 -45t-21 -123l33 -291q39 -336 -301 -336v62z" />
<glyph unicode="~" horiz-adv-x="1224" d="M145 438q0 98 50.5 145.5t134.5 47.5q72 0 293 -76q219 -76 286 -76q57 0 82 31t27 100h61q0 -98 -50 -145t-134 -47q-72 0 -293 76q-227 76 -287 75q-57 0 -81.5 -30.5t-26.5 -100.5h-62z" />
<glyph unicode="&#xa5;" d="M119 1348h96l311 -600h6l314 600h88l-338 -594h291v-62h-318v-170h318v-61h-318v-461h-82v461h-317v61h317v170h-317v62h287z" />
<glyph unicode="&#xaa;" horiz-adv-x="950" d="M96 289q0 160 120 248t306 88q94 0 189 -17v45q0 145 -62.5 214t-202.5 69q-113 0 -233 -51l-8 69q131 53 264 54q156 0 240 -86t84 -242v-680h-76l-6 186h-4q-43 -98 -125 -152t-181 -54q-127 0 -216 87t-89 222zM186 299q0 -117 68 -184.5t172 -67.5q123 0 204 101.5 t81 261.5v131q-70 16 -170 16q-162 0 -258.5 -64.5t-96.5 -193.5z" />
<glyph unicode="&#xad;" horiz-adv-x="735" d="M160 494v61h415v-61h-415z" />
<glyph unicode="&#xb2;" d="M135 0v61l277 349q236 299 303 410.5t67 205.5q0 121 -75.5 194.5t-214.5 73.5q-152 0 -283 -77l-10 73q137 78 313 78q164 0 262 -95t98 -239q0 -117 -83.5 -250t-358.5 -477l-184 -231v-4h645v-72h-756z" />
<glyph unicode="&#xb3;" d="M133 45l10 74q145 -66 316 -66q150 0 253 82t103 217q0 133 -98.5 212t-290.5 87v76q137 10 246.5 101.5t109.5 220.5q0 117 -74.5 181t-215.5 64q-137 0 -275 -67l-10 73q137 68 305 68q162 0 261 -83t99 -210t-91 -223t-222 -137v-4q145 -27 245.5 -117t100.5 -225 q0 -184 -133 -286.5t-336 -102.5q-158 -1 -303 65z" />
<glyph unicode="&#xb9;" d="M252 1196l342 152h41v-1348h-82v1239l-291 -115z" />
<glyph unicode="&#xba;" horiz-adv-x="1089" d="M96 491.5q0 231.5 127 372t321.5 140.5t321.5 -140.5t127 -372t-127 -371.5t-321.5 -140t-321.5 140t-127 371.5zM186 491.5q0 -200.5 96.5 -320.5t262.5 -120t262 120t96 320.5t-96 320.5t-262 120t-262.5 -120t-96.5 -320.5z" />
<glyph unicode="&#xc0;" horiz-adv-x="1177" d="M379 1798h68q27 0 39 -23q57 -113 135 -239l-78 -4q-109 162 -164 266zM53 0l488 1389h84l487 -1389h-86l-168 489h-555l-168 -489h-82zM328 561h508l-250 727h-6z" />
<glyph unicode="&#xc2;" horiz-adv-x="1177" d="M172 1532l375 798h74l374 -798h-73l-334 733h-6l-336 -733h-74zM53 0l488 1389h84l487 -1389h-86l-168 489h-555l-168 -489h-82zM328 561h508l-250 727h-6z" />
<glyph unicode="&#xc3;" horiz-adv-x="1177" d="M116 1552q0 98 50.5 145.5t134.5 47.5q72 0 293 -76q219 -76 286 -76q57 0 82 31t27 100h61q0 -98 -50 -145t-134 -47q-72 0 -293 76q-227 76 -287 75q-57 0 -81.5 -30.5t-26.5 -100.5h-62zM53 0l488 1389h84l487 -1389h-86l-168 489h-555l-168 -489h-82zM328 561h508 l-250 727h-6z" />
<glyph unicode="&#xc4;" horiz-adv-x="1177" d="M53 0l488 1389h84l487 -1389h-86l-168 489h-555l-168 -489h-82zM328 561h508l-250 727h-6zM383 1550.5q0 26.5 17.5 44t44 17.5t44 -17.5t17.5 -44t-17.5 -44t-44 -17.5t-44 17.5t-17.5 44zM670 1550.5q0 26.5 17.5 44t44 17.5t44 -17.5t17.5 -44t-17.5 -44t-44 -17.5 t-44 17.5t-17.5 44z" />
<glyph unicode="&#xc5;" horiz-adv-x="1177" d="M53 0l488 1389h84l487 -1389h-86l-168 489h-555l-168 -489h-82zM328 561h508l-250 727h-6zM455 1560.5q0 51.5 37.5 86t91 34.5t91.5 -34.5t38 -86t-38 -86t-91.5 -34.5t-91 34.5t-37.5 86zM508 1560.5q0 -34.5 22.5 -56t53 -21.5t53 21.5t22.5 56t-22.5 56t-53 21.5 t-53 -21.5t-22.5 -56z" />
<glyph unicode="&#xc6;" horiz-adv-x="1576" d="M-12 0l643 1389h799v-72h-703l107 -563h555v-72h-541l115 -610h505v-72h-573l-90 489h-508l-225 -489h-84zM324 561h473l-135 739h-7z" />
<glyph unicode="&#xc8;" horiz-adv-x="991" d="M313 1798h68q27 0 39 -23q57 -113 135 -239l-78 -4q-109 162 -164 266zM176 0v1389h682v-72h-600v-563h530v-72h-530v-610h619v-72h-701z" />
<glyph unicode="&#xca;" horiz-adv-x="991" d="M106 1532l375 798h74l374 -798h-73l-334 733h-6l-336 -733h-74zM176 0v1389h682v-72h-600v-563h530v-72h-530v-610h619v-72h-701z" />
<glyph unicode="&#xcb;" horiz-adv-x="991" d="M176 0v1389h682v-72h-600v-563h530v-72h-530v-610h619v-72h-701zM334 1550.5q0 26.5 17.5 44t44 17.5t44 -17.5t17.5 -44t-17.5 -44t-44 -17.5t-44 17.5t-17.5 44zM621 1550.5q0 26.5 17 44t44 17.5t44 -17.5t17 -44t-17 -44t-44 -17.5t-44 17.5t-17 44z" />
<glyph unicode="&#xcc;" horiz-adv-x="434" d="M14 1798h68q27 0 39 -23q57 -113 135 -239l-78 -4q-109 162 -164 266zM176 0v1389h82v-1389h-82z" />
<glyph unicode="&#xce;" horiz-adv-x="434" d="M-195 1532l375 798h74l374 -798h-73l-334 733h-6l-336 -733h-74zM176 0v1389h82v-1389h-82z" />
<glyph unicode="&#xcf;" horiz-adv-x="434" d="M12 1550.5q0 26.5 17.5 44t44 17.5t44 -17.5t17.5 -44t-17.5 -44t-44 -17.5t-44 17.5t-17.5 44zM176 0v1389h82v-1389h-82zM299 1550.5q0 26.5 17.5 44t44 17.5t44 -17.5t17.5 -44t-17.5 -44t-44 -17.5t-44 17.5t-17.5 44z" />
<glyph unicode="&#xd1;" horiz-adv-x="1384" d="M225 1552q0 98 50.5 145.5t134.5 47.5q72 0 293 -76q219 -76 286 -76q57 0 82 31t27 100h61q0 -98 -50 -145t-134 -47q-72 0 -293 76q-227 76 -287 75q-57 0 -81.5 -30.5t-26.5 -100.5h-62zM170 0v1389h113l591 -897q137 -205 265 -412h6q-6 166 -6 412v897h75v-1389 h-112l-592 897q-164 246 -264 410h-6q6 -164 6 -410v-897h-76z" />
<glyph unicode="&#xd2;" horiz-adv-x="1437" d="M516 1798h68q27 0 39 -23q57 -113 135 -239l-78 -4q-109 162 -164 266zM90 694.5q0 288.5 177 501.5t451.5 213t452 -213t177.5 -501.5t-177.5 -501.5t-452 -213t-451.5 213t-177 501.5zM180 694q0 -262 150.5 -451.5t388 -189.5t388 189.5t150.5 451.5t-150.5 451.5 t-388 189.5t-388 -189.5t-150.5 -451.5z" />
<glyph unicode="&#xd4;" horiz-adv-x="1437" d="M307 1532l375 798h74l374 -798h-73l-334 733h-6l-336 -733h-74zM90 694.5q0 288.5 177 501.5t451.5 213t452 -213t177.5 -501.5t-177.5 -501.5t-452 -213t-451.5 213t-177 501.5zM180 694q0 -262 150.5 -451.5t388 -189.5t388 189.5t150.5 451.5t-150.5 451.5t-388 189.5 t-388 -189.5t-150.5 -451.5z" />
<glyph unicode="&#xd5;" horiz-adv-x="1437" d="M251 1552q0 98 50.5 145.5t134.5 47.5q72 0 293 -76q219 -76 286 -76q57 0 82 31t27 100h61q0 -98 -50 -145t-134 -47q-72 0 -293 76q-227 76 -287 75q-57 0 -81.5 -30.5t-26.5 -100.5h-62zM90 694.5q0 288.5 177 501.5t451.5 213t452 -213t177.5 -501.5t-177.5 -501.5 t-452 -213t-451.5 213t-177 501.5zM180 694q0 -262 150.5 -451.5t388 -189.5t388 189.5t150.5 451.5t-150.5 451.5t-388 189.5t-388 -189.5t-150.5 -451.5z" />
<glyph unicode="&#xd6;" horiz-adv-x="1437" d="M90 694.5q0 288.5 177 501.5t451.5 213t452 -213t177.5 -501.5t-177.5 -501.5t-452 -213t-451.5 213t-177 501.5zM180 694q0 -262 150.5 -451.5t388 -189.5t388 189.5t150.5 451.5t-150.5 451.5t-388 189.5t-388 -189.5t-150.5 -451.5zM514 1550.5q0 26.5 17.5 44 t44 17.5t44 -17.5t17.5 -44t-17.5 -44t-44 -17.5t-44 17.5t-17.5 44zM801 1550.5q0 26.5 17.5 44t44 17.5t44 -17.5t17.5 -44t-17.5 -44t-44 -17.5t-44 17.5t-17.5 44z" />
<glyph unicode="&#xd8;" horiz-adv-x="1437" d="M90 694q0 289 177 502t452 213q227 0 399 -158l146 181l53 -43l-150 -189q180 -209 181 -506q0 -289 -177.5 -501.5t-451.5 -212.5q-231 0 -402 159l-147 -182l-53 43l151 190q-178 211 -178 504zM180 694q0 -260 137 -438h5l745 930v4q-145 145 -348 145 q-238 0 -388.5 -189.5t-150.5 -451.5zM369 201q143 -147 350 -148q238 0 388 189.5t150 451.5q0 260 -139 441h-6l-743 -930v-4z" />
<glyph unicode="&#xd9;" horiz-adv-x="1204" d="M403 1798h68q27 0 39 -23q57 -113 135 -239l-78 -4q-109 162 -164 266zM160 438v951h82v-930q0 -193 101 -299.5t265 -106.5q170 0 267.5 109.5t97.5 296.5v930h78v-920q0 -229 -125 -359t-322 -130q-195 0 -319.5 128.5t-124.5 329.5z" />
<glyph unicode="&#xdb;" horiz-adv-x="1204" d="M192 1532l375 798h74l374 -798h-73l-334 733h-6l-336 -733h-74zM160 438v951h82v-930q0 -193 101 -299.5t265 -106.5q170 0 267.5 109.5t97.5 296.5v930h78v-920q0 -229 -125 -359t-322 -130q-195 0 -319.5 128.5t-124.5 329.5z" />
<glyph unicode="&#xdc;" horiz-adv-x="1204" d="M160 438v951h82v-930q0 -193 101 -299.5t265 -106.5q170 0 267.5 109.5t97.5 296.5v930h78v-920q0 -229 -125 -359t-322 -130q-195 0 -319.5 128.5t-124.5 329.5zM410 1550.5q0 26.5 17 44t44 17.5t44 -17.5t17 -44t-17 -44t-44 -17.5t-44 17.5t-17 44zM696 1550.5 q0 26.5 17.5 44t44 17.5t44 -17.5t17.5 -44t-17.5 -44t-44 -17.5t-44 17.5t-17.5 44z" />
<glyph unicode="&#xe0;" horiz-adv-x="950" d="M266 1397h68q27 0 39 -23q57 -113 135 -239l-78 -4q-109 162 -164 266zM96 289q0 160 120 248t306 88q94 0 189 -17v45q0 145 -62.5 214t-202.5 69q-113 0 -233 -51l-8 69q131 53 264 54q156 0 240 -86t84 -242v-680h-76l-6 186h-4q-43 -98 -125 -152t-181 -54 q-127 0 -216 87t-89 222zM186 299q0 -117 68 -184.5t172 -67.5q123 0 204 101.5t81 261.5v131q-70 16 -170 16q-162 0 -258.5 -64.5t-96.5 -193.5z" />
<glyph unicode="&#xe2;" horiz-adv-x="950" d="M57 1131l375 798h74l374 -798h-73l-334 733h-6l-336 -733h-74zM96 289q0 160 120 248t306 88q94 0 189 -17v45q0 145 -62.5 214t-202.5 69q-113 0 -233 -51l-8 69q131 53 264 54q156 0 240 -86t84 -242v-680h-76l-6 186h-4q-43 -98 -125 -152t-181 -54q-127 0 -216 87 t-89 222zM186 299q0 -117 68 -184.5t172 -67.5q123 0 204 101.5t81 261.5v131q-70 16 -170 16q-162 0 -258.5 -64.5t-96.5 -193.5z" />
<glyph unicode="&#xe3;" horiz-adv-x="950" d="M2 1151q0 98 50.5 145.5t134.5 47.5q72 0 293 -76q219 -76 286 -76q57 0 82 31t27 100h61q0 -98 -50 -145t-134 -47q-72 0 -293 76q-227 76 -287 75q-57 0 -81.5 -30.5t-26.5 -100.5h-62zM96 289q0 160 120 248t306 88q94 0 189 -17v45q0 145 -62.5 214t-202.5 69 q-113 0 -233 -51l-8 69q131 53 264 54q156 0 240 -86t84 -242v-680h-76l-6 186h-4q-43 -98 -125 -152t-181 -54q-127 0 -216 87t-89 222zM186 299q0 -117 68 -184.5t172 -67.5q123 0 204 101.5t81 261.5v131q-70 16 -170 16q-162 0 -258.5 -64.5t-96.5 -193.5z" />
<glyph unicode="&#xe4;" horiz-adv-x="950" d="M96 289q0 160 120 248t306 88q94 0 189 -17v45q0 145 -62.5 214t-202.5 69q-113 0 -233 -51l-8 69q131 53 264 54q156 0 240 -86t84 -242v-680h-76l-6 186h-4q-43 -98 -125 -152t-181 -54q-127 0 -216 87t-89 222zM186 299q0 -117 68 -184.5t172 -67.5q123 0 204 101.5 t81 261.5v131q-70 16 -170 16q-162 0 -258.5 -64.5t-96.5 -193.5zM279 1243.5q0 26.5 17 44t44 17.5t44 -17.5t17 -44t-17 -44t-44 -17.5t-44 17.5t-17 44zM565 1243.5q0 26.5 17.5 44t44 17.5t44 -17.5t17.5 -44t-17.5 -44t-44 -17.5t-44 17.5t-17.5 44z" />
<glyph unicode="&#xe5;" horiz-adv-x="950" d="M96 289q0 160 120 248t306 88q94 0 189 -17v45q0 145 -62.5 214t-202.5 69q-113 0 -233 -51l-8 69q131 53 264 54q156 0 240 -86t84 -242v-680h-76l-6 186h-4q-43 -98 -125 -152t-181 -54q-127 0 -216 87t-89 222zM186 299q0 -117 68 -184.5t172 -67.5q123 0 204 101.5 t81 261.5v131q-70 16 -170 16q-162 0 -258.5 -64.5t-96.5 -193.5zM350 1212.5q0 51.5 38 86t91 34.5t91 -34.5t38 -86t-38 -86t-91 -34.5t-91 34.5t-38 86zM403 1212.5q0 -34.5 23 -56t53.5 -21.5t53 21.5t22.5 56t-22.5 56t-53 21.5t-53.5 -21.5t-23 -56z" />
<glyph unicode="&#xe6;" horiz-adv-x="1595" d="M96 287q0 158 122 247t308 89q106 0 189 -15v45q0 145 -62.5 214t-201.5 69q-113 0 -234 -51l-8 69q131 53 264 54q260 0 311 -228h7q135 227 352 228q166 0 260 -124t94 -306q0 -45 -6 -89h-692q0 -207 102.5 -322.5t282.5 -115.5q111 0 219 51l8 -69q-119 -53 -258 -53 q-137 0 -247.5 71.5t-149.5 202.5h-4q-37 -131 -129.5 -202.5t-216.5 -71.5q-127 0 -218.5 86t-91.5 221zM186 297q0 -115 69 -182.5t175 -67.5q123 0 204 109.5t81 271.5v109v4q-59 14 -170 14q-162 0 -260.5 -64.5t-98.5 -193.5zM803 557h608q0 174 -71.5 276.5 t-215.5 102.5q-133 0 -223 -111.5t-98 -267.5z" />
<glyph unicode="&#xe8;" horiz-adv-x="1005" d="M348 1397h68q27 0 39 -23q57 -113 135 -239l-78 -4q-109 162 -164 266zM96 485q0 217 128 370t327 153q166 0 258 -123t92 -307q0 -45 -6 -89h-713q0 -207 102.5 -322.5t282.5 -115.5q131 0 240 51l8 -69q-119 -53 -278 -53q-190 0 -315.5 129.5t-125.5 375.5zM186 557 h631q0 174 -71.5 276.5t-213.5 102.5q-147 0 -242.5 -110.5t-103.5 -268.5z" />
<glyph unicode="&#xea;" horiz-adv-x="1005" d="M139 1131l375 798h74l374 -798h-73l-334 733h-6l-336 -733h-74zM96 485q0 217 128 370t327 153q166 0 258 -123t92 -307q0 -45 -6 -89h-713q0 -207 102.5 -322.5t282.5 -115.5q131 0 240 51l8 -69q-119 -53 -278 -53q-190 0 -315.5 129.5t-125.5 375.5zM186 557h631 q0 174 -71.5 276.5t-213.5 102.5q-147 0 -242.5 -110.5t-103.5 -268.5z" />
<glyph unicode="&#xeb;" horiz-adv-x="1005" d="M96 485q0 217 128 370t327 153q166 0 258 -123t92 -307q0 -45 -6 -89h-713q0 -207 102.5 -322.5t282.5 -115.5q131 0 240 51l8 -69q-119 -53 -278 -53q-190 0 -315.5 129.5t-125.5 375.5zM186 557h631q0 174 -71.5 276.5t-213.5 102.5q-147 0 -242.5 -110.5 t-103.5 -268.5zM315 1243.5q0 26.5 17.5 44t44 17.5t44 -17.5t17.5 -44t-17.5 -44t-44 -17.5t-44 17.5t-17.5 44zM602 1243.5q0 26.5 17.5 44t44 17.5t44 -17.5t17.5 -44t-17.5 -44t-44 -17.5t-44 17.5t-17.5 44z" />
<glyph unicode="&#xec;" horiz-adv-x="434" d="M14 1694h68q27 0 39 -23q57 -113 135 -239l-78 -4q-109 162 -164 266zM156 1243.5q0 26.5 17 44t44 17.5t44.5 -17.5t17.5 -44t-17.5 -44t-44.5 -17.5t-44 17.5t-17 44zM176 0v983h82v-983h-82z" />
<glyph unicode="&#xee;" horiz-adv-x="434" d="M-195 1428l375 798h74l374 -798h-73l-334 733h-6l-336 -733h-74zM156 1243.5q0 26.5 17 44t44 17.5t44.5 -17.5t17.5 -44t-17.5 -44t-44.5 -17.5t-44 17.5t-17 44zM176 0v983h82v-983h-82z" />
<glyph unicode="&#xef;" horiz-adv-x="434" d="M12 1243.5q0 26.5 17.5 44t44 17.5t44 -17.5t17.5 -44t-17.5 -44t-44 -17.5t-44 17.5t-17.5 44zM176 0v983h82v-983h-82zM299 1243.5q0 26.5 17.5 44t44 17.5t44 -17.5t17.5 -44t-17.5 -44t-44 -17.5t-44 17.5t-17.5 44z" />
<glyph unicode="&#xf1;" horiz-adv-x="1073" d="M79 1151q0 98 50.5 145.5t134.5 47.5q72 0 293 -76q219 -76 286 -76q57 0 82 31t27 100h61q0 -98 -50 -145t-134 -47q-72 0 -293 76q-227 76 -287 75q-57 0 -81.5 -30.5t-26.5 -100.5h-62zM176 0v987h76l6 -201h4q55 106 147.5 164t202.5 58q152 0 227.5 -99.5 t75.5 -263.5v-645h-81v614q0 158 -57.5 239t-192.5 81q-139 0 -232.5 -103.5t-93.5 -248.5v-582h-82z" />
<glyph unicode="&#xf2;" horiz-adv-x="1089" d="M342 1393h68q27 0 39 -23q57 -113 135 -239l-78 -4q-109 162 -164 266zM96 491.5q0 231.5 127 372t321.5 140.5t321.5 -140.5t127 -372t-127 -371.5t-321.5 -140t-321.5 140t-127 371.5zM186 491.5q0 -200.5 96.5 -320.5t262.5 -120t262 120t96 320.5t-96 320.5t-262 120 t-262.5 -120t-96.5 -320.5z" />
<glyph unicode="&#xf4;" horiz-adv-x="1089" d="M133 1127l375 798h74l374 -798h-73l-334 733h-6l-336 -733h-74zM96 491.5q0 231.5 127 372t321.5 140.5t321.5 -140.5t127 -372t-127 -371.5t-321.5 -140t-321.5 140t-127 371.5zM186 491.5q0 -200.5 96.5 -320.5t262.5 -120t262 120t96 320.5t-96 320.5t-262 120 t-262.5 -120t-96.5 -320.5z" />
<glyph unicode="&#xf5;" horiz-adv-x="1089" d="M77 1147q0 98 50.5 145.5t134.5 47.5q72 0 293 -76q219 -76 286 -76q57 0 82 31t27 100h61q0 -98 -50 -145t-134 -47q-72 0 -293 76q-227 76 -287 75q-57 0 -81.5 -30.5t-26.5 -100.5h-62zM96 491.5q0 231.5 127 372t321.5 140.5t321.5 -140.5t127 -372t-127 -371.5 t-321.5 -140t-321.5 140t-127 371.5zM186 491.5q0 -200.5 96.5 -320.5t262.5 -120t262 120t96 320.5t-96 320.5t-262 120t-262.5 -120t-96.5 -320.5z" />
<glyph unicode="&#xf6;" horiz-adv-x="1089" d="M96 491.5q0 231.5 127 372t321.5 140.5t321.5 -140.5t127 -372t-127 -371.5t-321.5 -140t-321.5 140t-127 371.5zM186 491.5q0 -200.5 96.5 -320.5t262.5 -120t262 120t96 320.5t-96 320.5t-262 120t-262.5 -120t-96.5 -320.5zM340 1243.5q0 26.5 17.5 44t44 17.5 t44 -17.5t17.5 -44t-17.5 -44t-44 -17.5t-44 17.5t-17.5 44zM627 1243.5q0 26.5 17.5 44t44 17.5t44 -17.5t17.5 -44t-17.5 -44t-44 -17.5t-44 17.5t-17.5 44z" />
<glyph unicode="&#xf8;" horiz-adv-x="1089" d="M96 492q0 231 127 371.5t322 140.5q139 0 250 -76l88 131l51 -33l-92 -137q152 -145 151 -397q0 -231 -127 -371.5t-321 -140.5q-143 0 -256 79l-86 -127l-51 33l90 135q-146 142 -146 392zM186 491.5q0 -200.5 95 -323.5h6l467 696v6q-88 61 -209 62q-166 0 -262.5 -120 t-96.5 -320.5zM332 121q92 -70 213 -70q166 0 262 120t96 321q0 199 -100 329h-6l-465 -694v-6z" />
<glyph unicode="&#xf9;" horiz-adv-x="1073" d="M326 1393h68q27 0 39 -23q57 -113 135 -239l-78 -4q-109 162 -164 266zM158 342v641h82v-610q0 -158 57 -239t192 -81q137 0 231.5 103.5t94.5 249.5v577h82v-983h-76l-6 201h-4q-119 -221 -350 -221q-154 0 -228.5 99t-74.5 263z" />
<glyph unicode="&#xfb;" horiz-adv-x="1073" d="M115 1127l375 798h74l374 -798h-73l-334 733h-6l-336 -733h-74zM158 342v641h82v-610q0 -158 57 -239t192 -81q137 0 231.5 103.5t94.5 249.5v577h82v-983h-76l-6 201h-4q-119 -221 -350 -221q-154 0 -228.5 99t-74.5 263z" />
<glyph unicode="&#xfc;" horiz-adv-x="1073" d="M158 342v641h82v-610q0 -158 57 -239t192 -81q137 0 231.5 103.5t94.5 249.5v577h82v-983h-76l-6 201h-4q-119 -221 -350 -221q-154 0 -228.5 99t-74.5 263zM338 1243.5q0 26.5 17.5 44t44 17.5t44 -17.5t17.5 -44t-17.5 -44t-44 -17.5t-44 17.5t-17.5 44zM625 1243.5 q0 26.5 17 44t44 17.5t44.5 -17.5t17.5 -44t-17.5 -44t-44.5 -17.5t-44 17.5t-17 44z" />
<glyph unicode="&#xff;" horiz-adv-x="927" d="M39 983h88l350 -893h4l353 893h81l-399 -989q-80 -195 -176 -290t-242 -126l-8 74q115 25 196 98.5t138 216.5l12 31zM287 1243.5q0 26.5 17.5 44t44 17.5t44 -17.5t17.5 -44t-17.5 -44t-44 -17.5t-44 17.5t-17.5 44zM573 1243.5q0 26.5 17.5 44t44.5 17.5t44 -17.5 t17 -44t-17 -44t-44 -17.5t-44.5 17.5t-17.5 44z" />
<glyph unicode="&#x152;" horiz-adv-x="2428" d="M1614 0v1389h682v-72h-600v-563h530v-72h-530v-610h619v-72h-701zM90 694.5q0 288.5 177 501.5t451.5 213t452 -213t177.5 -501.5t-177.5 -501.5t-452 -213t-451.5 213t-177 501.5zM180 694q0 -262 150.5 -451.5t388 -189.5t388 189.5t150.5 451.5t-150.5 451.5 t-388 189.5t-388 -189.5t-150.5 -451.5z" />
<glyph unicode="&#x153;" horiz-adv-x="2095" d="M1186 485q0 217 128 370t327 153q166 0 258 -123t92 -307q0 -45 -6 -89h-713q0 -207 102.5 -322.5t282.5 -115.5q131 0 240 51l8 -69q-119 -53 -278 -53q-190 0 -315.5 129.5t-125.5 375.5zM1276 557h631q0 174 -71.5 276.5t-213.5 102.5q-147 0 -242.5 -110.5 t-103.5 -268.5zM96 491.5q0 231.5 127 372t321.5 140.5t321.5 -140.5t127 -372t-127 -371.5t-321.5 -140t-321.5 140t-127 371.5zM186 491.5q0 -200.5 96.5 -320.5t262.5 -120t262 120t96 320.5t-96 320.5t-262 120t-262.5 -120t-96.5 -320.5z" />
<glyph unicode="&#x178;" horiz-adv-x="1042" d="M33 1389h98l397 -711h4l398 711h90l-451 -781v-608h-82v600zM334 1550.5q0 26.5 17.5 44t44 17.5t44 -17.5t17.5 -44t-17.5 -44t-44 -17.5t-44 17.5t-17.5 44zM621 1550.5q0 26.5 17 44t44 17.5t44 -17.5t17 -44t-17 -44t-44 -17.5t-44 17.5t-17 44z" />
<glyph unicode="&#x2c6;" horiz-adv-x="1093" d="M135 541l375 798h74l374 -798h-73l-334 733h-6l-336 -733h-74z" />
<glyph unicode="&#x2dc;" horiz-adv-x="487" d="M-467 143q0 98 50.5 145.5t134.5 47.5q72 0 293 -76q219 -76 286 -76q57 0 82 31t27 100h61q0 -98 -50 -145t-134 -47q-72 0 -293 76q-227 76 -287 75q-57 0 -81.5 -30.5t-26.5 -100.5h-62z" />
<glyph unicode="&#x2000;" horiz-adv-x="1165" />
<glyph unicode="&#x2001;" horiz-adv-x="2330" />
<glyph unicode="&#x2002;" horiz-adv-x="1165" />
<glyph unicode="&#x2003;" horiz-adv-x="2330" />
<glyph unicode="&#x2004;" horiz-adv-x="776" />
<glyph unicode="&#x2005;" horiz-adv-x="581" />
<glyph unicode="&#x2006;" horiz-adv-x="387" />
<glyph unicode="&#x2007;" horiz-adv-x="387" />
<glyph unicode="&#x2008;" horiz-adv-x="290" />
<glyph unicode="&#x2009;" horiz-adv-x="464" />
<glyph unicode="&#x200a;" horiz-adv-x="129" />
<glyph unicode="&#x2010;" horiz-adv-x="735" d="M160 494v61h415v-61h-415z" />
<glyph unicode="&#x2011;" horiz-adv-x="735" d="M160 494v61h415v-61h-415z" />
<glyph unicode="&#x2012;" horiz-adv-x="735" d="M160 494v61h415v-61h-415z" />
<glyph unicode="&#x2013;" horiz-adv-x="1024" d="M160 494v61h704v-61h-704z" />
<glyph unicode="&#x2014;" horiz-adv-x="2048" d="M160 494v61h1728v-61h-1728z" />
<glyph unicode="&#x2018;" horiz-adv-x="485" d="M131 1014q80 240 154 411l82 17q-80 -219 -123 -395q-8 -33 -45 -33h-68z" />
<glyph unicode="&#x2019;" horiz-adv-x="485" d="M119 1014q80 219 123 395q8 33 45 33h67q-80 -240 -153 -412z" />
<glyph unicode="&#x201c;" horiz-adv-x="684" d="M131 1014q80 240 154 411l82 17q-80 -219 -123 -395q-8 -33 -45 -33h-68zM330 1014q80 240 153 411l82 17q-80 -219 -123 -395q-8 -33 -45 -33h-67z" />
<glyph unicode="&#x201d;" horiz-adv-x="684" d="M119 1014q80 219 123 395q8 33 45 33h67q-80 -240 -153 -412zM317 1014q80 219 123 395q8 33 45 33h68q-80 -240 -154 -412z" />
<glyph unicode="&#x2026;" horiz-adv-x="1204" d="M938 45q0 29 18.5 47.5t47 18.5t47 -18.5t18.5 -47.5t-18.5 -47t-47 -18t-47 18t-18.5 47zM536 45q0 29 18.5 47.5t47 18.5t47 -18.5t18.5 -47.5t-18.5 -47t-47 -18t-47 18t-18.5 47zM135 45q0 29 18.5 47.5t47 18.5t47 -18.5t18.5 -47.5t-18.5 -47t-47 -18t-47 18 t-18.5 47z" />
<glyph unicode="&#x202f;" horiz-adv-x="464" />
<glyph unicode="&#x2039;" horiz-adv-x="1015" d="M104 504v74l762 413v-73l-702 -375v-4l702 -375v-74z" />
<glyph unicode="&#x203a;" horiz-adv-x="1015" d="M150 90v74l702 375v4l-702 375v73l761 -413v-74z" />
<glyph unicode="&#x205f;" horiz-adv-x="581" />
<glyph unicode="&#x2122;" horiz-adv-x="2617" d="M1141 0l49 1389h103l491 -1254h6l502 1254h100l49 -1389h-81l-35 1278h-6l-496 -1237h-78l-487 1237h-6l-35 -1278h-76zM31 1317v72h909v-72h-414v-1317h-82v1317h-413z" />
<glyph unicode="&#xe000;" horiz-adv-x="985" d="M0 985h985v-985h-985v985z" />
<glyph unicode="&#xfb01;" horiz-adv-x="1075" d="M797 1243.5q0 26.5 17 44t44 17.5t44.5 -17.5t17.5 -44t-17.5 -44t-44.5 -17.5t-44 17.5t-17 44zM817 0v983h82v-983h-82zM74 911v72h162v102q0 199 94 304.5t239 105.5q76 0 129 -29l-8 -65q-55 23 -123 22q-115 0 -182.5 -78.5t-67.5 -234.5v-127h263v-72h-263v-911 h-81v911h-162z" />
<glyph unicode="&#xfb02;" horiz-adv-x="1075" d="M817 0v1475h82v-1475h-82zM74 911v72h162v102q0 199 94 304.5t239 105.5q76 0 129 -29l-8 -65q-55 23 -123 22q-115 0 -182.5 -78.5t-67.5 -234.5v-127h263v-72h-263v-911h-81v911h-162z" />
<glyph unicode="&#xfb03;" horiz-adv-x="1716" d="M1438 1243.5q0 26.5 17 44t44 17.5t44.5 -17.5t17.5 -44t-17.5 -44t-44.5 -17.5t-44 17.5t-17 44zM1458 0v983h82v-983h-82zM715 911v72h162v102q0 199 94 304.5t239 105.5q76 0 129 -29l-8 -65q-55 23 -123 22q-115 0 -182.5 -78.5t-67.5 -234.5v-127h263v-72h-263v-911 h-81v911h-162zM74 911v72h162v102q0 199 94 304.5t239 105.5q76 0 129 -29l-8 -65q-55 23 -123 22q-115 0 -182.5 -78.5t-67.5 -234.5v-127h263v-72h-263v-911h-81v911h-162z" />
<glyph unicode="&#xfb04;" horiz-adv-x="1716" d="M1458 0v1475h82v-1475h-82zM715 911v72h162v102q0 199 94 304.5t239 105.5q76 0 129 -29l-8 -65q-55 23 -123 22q-115 0 -182.5 -78.5t-67.5 -234.5v-127h263v-72h-263v-911h-81v911h-162zM74 911v72h162v102q0 199 94 304.5t239 105.5q76 0 129 -29l-8 -65 q-55 23 -123 22q-115 0 -182.5 -78.5t-67.5 -234.5v-127h263v-72h-263v-911h-81v911h-162z" />
</font>
</defs>
</svg>
