<?xml version="1.0" standalone="no"?>
<!DOCTYPE svg PUBLIC "-//W3C//DTD SVG 1.1//EN" "http://www.w3.org/Graphics/SVG/1.1/DTD/svg11.dtd" >
<svg xmlns="http://www.w3.org/2000/svg">
<metadata></metadata>
<defs>
<font id="smiconsregular" horiz-adv-x="1830" >
<font-face units-per-em="2048" ascent="1536" descent="-512" />
<missing-glyph horiz-adv-x="1024" />
<glyph horiz-adv-x="2048" />
<glyph horiz-adv-x="2048" />
<glyph unicode="&#xd;" horiz-adv-x="2048" />
<glyph unicode=" "  horiz-adv-x="1024" />
<glyph unicode="&#x09;" horiz-adv-x="1024" />
<glyph unicode="&#xa0;" horiz-adv-x="1024" />
<glyph unicode="!" horiz-adv-x="1837" d="M82 -6q-53 90 24 217l635 1094q71 127 179 127q106 0 180 -127l633 -1094q76 -126 22 -217q-53 -92 -201 -92h-1271q-148 0 -201 92zM797 1014l53 -631h154l53 631h-260zM817 205q0 -44 33 -77.5t76 -33.5q46 0 78 33t32 78q0 47 -31.5 77.5t-78.5 30.5q-44 0 -76.5 -32 t-32.5 -76z" />
<glyph unicode="&#x22;" horiz-adv-x="1667" d="M61 49v529v14q0 93 7 169.5t25 158t48 145.5t79 123.5t115 100.5t159 68t208 34v-322q-135 0 -194 -94t-59 -303l-9 -2h172q37 0 63.5 -27t26.5 -65v-529q0 -37 -26.5 -63.5t-63.5 -26.5h-460q-37 0 -64 26.5t-27 63.5zM963 49v529q0 12 2 14q0 93 7 169.5t25 158 t48 145.5t79 123.5t115 100.5t159 68t208 34v-322q-136 0 -196 -94.5t-60 -302.5l-9 -2h172q37 0 64 -27t27 -65v-529q0 -37 -27 -63.5t-64 -26.5h-458q-37 0 -64.5 26.5t-27.5 63.5z" />
<glyph unicode="#" horiz-adv-x="1492" d="M66.5 966.5q-4.5 8.5 1.5 20.5l63 94q6 11 23.5 20t31.5 9h154v135q0 15 7.5 35t17.5 27l98 100q10 10 28.5 17.5t32.5 7.5h443q36 0 61 -25l107 -107q10 -10 18 -28.5t8 -32.5v-129h146q17 0 33 -8.5t22 -20.5l63 -94q7 -12 2.5 -20.5t-18.5 -8.5h-98v-1161 q0 -12 -11 -23.5t-24 -11.5h-1051q-12 0 -23.5 11.5t-11.5 23.5v1161h-106q-13 0 -17.5 8.5zM340 -53q0 -12 11.5 -23.5t23.5 -11.5h751q13 0 24 11.5t11 23.5v975q0 13 -9.5 23.5t-23.5 12.5h-571h-182q-14 0 -24.5 -10t-10.5 -26v-975zM440 45v776q0 13 11.5 24t25.5 11 h43q14 0 25.5 -11t11.5 -24v-776q0 -13 -11.5 -24t-25.5 -11h-43q-14 0 -25.5 11t-11.5 24zM489 1110h521v8v58q0 17 -7.5 35.5t-17.5 25.5l-18 20q-10 10 -29 17.5t-33 7.5h-317q-37 0 -62 -25l-12 -12q-25 -25 -25 -61v-66v-8zM690 45v776q0 13 11.5 24t25.5 11h43 q14 0 24.5 -11t10.5 -24v-776q0 -13 -10.5 -24t-24.5 -11h-43q-14 0 -25.5 11t-11.5 24zM940 45v776q0 12 11.5 23.5t23.5 11.5h45q13 0 24 -11.5t11 -23.5v-776q0 -12 -11 -23.5t-24 -11.5h-45q-12 0 -23.5 11.5t-11.5 23.5z" />
<glyph unicode="$" horiz-adv-x="1835" d="M71 1076q-18 36 0 72t60 34h361q23 0 42 -15.5t25 -38.5l37 -149h1030l10 31q6 23 24 36t42 13q16 0 20 -2q23 -6 37.5 -24.5t14.5 -43.5q0 -1 -1 -3t-2 -6.5t-2 -8.5l-180 -600q-6 -23 -24 -37.5t-41 -14.5h-854q-25 0 -44.5 15.5t-23.5 38.5l-166 669h-305 q-42 -2 -60 34zM631 840l92 -381h747l5 14l110 367h-954zM696.5 79q-7.5 32 2.5 64.5t36 55.5q30 33 74 40t81 -9t63 -51t24 -79q0 -58 -41 -99.5t-100 -41.5q-36 -2 -66.5 15t-48 45t-25 60zM793 719h254v-139h-222zM1167 580l2 139h248l-37 -139h-213zM1225 100 q0 59 41.5 100.5t99.5 41.5t99.5 -41.5t41.5 -100.5q0 -57 -42 -99t-99 -42t-99 42t-42 99z" />
<glyph unicode="%" horiz-adv-x="1832" d="M61 410v311q0 42 31 67q25 25 62 25h8l88 -8q71 173 219 289l-4 225v2v2q0 59 51 88q20 14 53 14q32 0 52 -14l262 -147q52 6 104 6q159 0 303 -53t250 -150q111 -98 171.5 -226.5t60.5 -273.5q0 -160 -76 -302.5t-211 -241.5l22 -197v-8q0 -37 -22 -62q-27 -30 -70 -30 h-303q-43 0 -70 30q-22 25 -22 62v10l4 37q-8 -2 -37 -2h-20l4 -35v-10q0 -32 -23 -62q-24 -30 -69 -30h-304q-42 0 -69 30q-23 30 -23 62v10l23 184q-178 122 -254 314l-90 -9h-8q-37 0 -62 25q-31 25 -31 68zM176 434l154 17l14 -45q68 -199 254 -318l31 -18l-27 -230h252 l-18 152l71 -8q36 -4 80 -4q49 0 96 6l74 8l-18 -154h252l-31 238l31 18q126 86 196 208.5t70 262.5q0 116 -50 222.5t-143 191.5q-95 83 -218.5 128.5t-258.5 45.5q-64 0 -108 -8l-19 -2l-278 158l4 -267l-25 -16q-161 -118 -217 -295l-14 -45l-154 14v-260zM422 701.5 q10 42.5 47 84.5q38 41 83.5 53.5t70.5 -10.5q23 -23 13 -67.5t-48 -85.5q-37 -41 -82 -53.5t-70 10.5q-24 26 -14 68.5zM963 1010q1 25 18.5 41t40.5 16h14q141 -21 235 -67q81 -40 142 -97q17 -14 17 -38.5t-17 -41.5q-15 -18 -41 -18q-23 0 -39 16q-52 48 -121 78 q-105 47 -186 51h-8q-23 0 -39 18t-16 42z" />
<glyph unicode="&#x26;" horiz-adv-x="1552" d="M61 424v405h512v512h406v-512h512v-405h-512v-512h-406v512h-512z" />
<glyph unicode="'" horiz-adv-x="1929" d="M61 801l2 2q181 181 420 276q246 97 480 97q236 0 479 -97q241 -95 422 -276q0 -4 4 -4l-115 -115l-4 4q-157 157 -364.5 241.5t-421.5 84.5t-421 -84.5t-364 -241.5q-2 0 -2 -2zM322 541q128 128 298 197t345 69t344.5 -69t296.5 -197l2 -2l-115 -115q0 2 -2 2 q-137 144 -332.5 195t-390.5 0t-332 -193zM578 285q100 104 243 142t286 0t243 -142q2 0 2 -2l-113 -113q-2 0 -2 2q-113 113 -274 113q-158 0 -271 -113zM838 27q56 54 130 54t128 -54l-129 -129z" />
<glyph unicode="(" horiz-adv-x="1314" d="M61 -160v895h154v262q0 179 127 306t305 127h8h9q118 0 217.5 -58t157 -158t57.5 -217v-262h157v-895h-1192zM432 735h449v262q0 88 -64 152q-63 63 -153 63h-7h-10q-90 0 -153 -63q-62 -65 -62 -152v-262zM522 4h271l-66 289q66 45 66 117q0 57 -39.5 96t-96.5 39 t-96 -39t-39 -96q0 -35 18.5 -66.5t49.5 -48.5z" />
<glyph unicode=")" horiz-adv-x="1826" d="M61 -162v897h822v262q0 179 127 306t307 127h6h8q180 0 307 -127t127 -306v-262h-217v60l74 69v27h-74v106q0 89 -63 152t-154 63h-4h-10q-91 0 -154 -63t-63 -152v-262h157v-897h-1196zM520 0h273l-68 291q31 19 49.5 50.5t18.5 66.5q0 57 -40 97t-96 40q-57 0 -97 -40 t-40 -97q0 -35 18.5 -66.5t49.5 -50.5z" />
<glyph unicode="*" horiz-adv-x="1552" d="M61 203l400 401l-400 400l316 315l399 -399l400 399l315 -315l-399 -400l399 -401l-315 -314l-400 400l-399 -400z" />
<glyph unicode="+" horiz-adv-x="1843" d="M61.5 578q-1.5 172 67.5 333q97 236 313 381t480 146q176 0 335 -68t274 -183t183 -274t68 -335q-1 -263 -146.5 -480t-380.5 -311q-237 -107 -504 -51.5t-438 233.5q-116 111 -183 274t-68.5 335zM406 537q0 -31 21.5 -53.5t53.5 -22.5h246q31 0 53.5 -21.5t22.5 -52.5 v-248q0 -31 21.5 -52t52.5 -21h84q31 0 53 21t22 52v248q0 31 21.5 52.5t52.5 21.5h248q31 0 52.5 22.5t21.5 53.5v84q0 31 -21.5 52t-52.5 21h-248q-31 0 -52.5 22.5t-21.5 53.5v248q0 31 -22 52.5t-53 21.5h-84q-31 0 -52.5 -21.5t-21.5 -52.5v-248q0 -31 -22.5 -53.5 t-53.5 -22.5h-246q-32 0 -53.5 -21t-21.5 -52v-84z" />
<glyph unicode="," horiz-adv-x="1832" d="M61 580q0 174 68 332.5t182.5 273t273.5 182.5t333 68t332 -68t272.5 -182.5t182 -273t67.5 -332.5q0 -210 -95 -392q-118 -232 -352 -360q-189 -104 -407 -104q-209 0 -398 98q-231 122 -358 354q-101 192 -101 404zM274 580q0 -71 25 -174l18 -52q50 13 93 13 q134 0 229 -95q94 -94 94 -227q0 -31 -10 -76q11 -6 25 -8q90 -22 170 -22q92 0 178 24q4 0 12.5 4t9.5 4q-10 52 -10 82q0 132 94 226q96 96 228 96q40 0 90 -13q10 26 16 54q23 97 23 164q3 127 -48.5 247t-138.5 207.5t-207 139.5t-247 49q-127 3 -247 -49t-208 -139.5 t-140 -207.5t-49 -247zM373 614v78h194v-78h-194zM479 948l58 56l137 -138l-56 -57zM680 1100l43 18l276 -436q52 -40 52 -102q0 -24 -11 -50q-17 -37 -48.5 -58t-69.5 -21q-20 0 -50 10q-36 13 -57.5 46.5t-21.5 72.5q0 4 1 11l1 7zM879 963v194h79v-194h-79zM1135 866 l139 138l55 -56l-139 -139zM1268 614v78h196v-78h-196z" />
<glyph unicode="-" horiz-adv-x="1845" d="M61 565q0 176 68.5 336t184 276t275 184.5t335.5 68.5t335 -68.5t274 -184.5t183 -276t68 -336q0 -174 -68 -332.5t-182.5 -274.5t-274.5 -184.5t-335 -68.5q-141 0 -272.5 44t-237.5 123.5t-186 185.5t-123.5 237t-43.5 270zM438 528q0 -40 29 -68t68 -28h770 q41 0 68.5 27.5t27.5 68.5v80q0 39 -28 68t-68 29h-770q-38 0 -67.5 -29.5t-29.5 -67.5v-80z" />
<glyph unicode="." horiz-adv-x="1832" d="M61 616q0 76 55.5 131.5t133.5 55.5q75 0 130.5 -56t55.5 -131q0 -78 -54 -133t-132 -55t-133.5 55t-55.5 133zM729 616q0 75 55.5 131t130.5 56q77 0 133 -55.5t56 -131.5q0 -78 -55.5 -133t-133.5 -55t-132 55t-54 133zM1395 616q0 76 55.5 131.5t132.5 55.5t133 -55.5 t56 -131.5q0 -78 -55.5 -133t-133.5 -55t-133 55t-55 133z" />
<glyph unicode="/" d="M61 223v617v260h371v334h967v-334h370v-260v-617h-370v-108l-279 -279h-688v387h-371zM299 342h133v227v37h111v-112v-547h465v278h280v269v112h111v-264h137v403h-1237v-403zM543 1100h745v223h-745v-223zM1436 874h215v109h-215v-109z" />
<glyph unicode="0" horiz-adv-x="1832" d="M61 616l258 258l261 -258h-105h-57q0 -205 145 -350q148 -145 355 -145q122 0 228.5 55.5t176.5 153.5l80 -82l57 -55q-98 -124 -240 -194.5t-302 -70.5q-140 0 -268.5 54.5t-221.5 146.5t-148 219.5t-55 267.5h-22h-4h-138zM371 1042q98 126 241.5 197.5t305.5 71.5 q184 4 345 -90t255 -255t90 -345v-5h57h107l-261 -258l-258 258h103h61v5q0 102 -39.5 194.5t-106 159t-159 106t-194.5 39.5q-123 0 -231.5 -58t-178.5 -157l-80 80z" />
<glyph unicode="1" horiz-adv-x="1533" d="M61 420q0 143 56 274t150.5 225.5t225.5 150.5t275 56q39 0 51 -2v162v146l101 -103l321 -321l43 -43l-43 -41l-321 -322l-101 -102v143v180q-50 4 -51 4q-171 0 -289 -118q-119 -119 -119 -289q0 -168 119 -287t289 -119q168 0 287 119t119 287v61h61h178h60v-61 q5 -186 -92 -351t-262 -262t-351 -92q-139 -4 -271 53t-228 153t-153.5 228t-54.5 271z" />
<glyph unicode="2" horiz-adv-x="1841" d="M61 575q-3 170 66.5 330.5t186 278t276.5 187t330 65.5q176 0 335.5 -68.5t274 -184t182.5 -275t68 -333.5q0 -176 -68 -335t-183 -274t-274 -183t-335 -68q-174 0 -333 68t-274.5 182.5t-183.5 274t-68 335.5zM365 515q0 -20 12 -32l285 -286q12 -12 34.5 -21.5 t40.5 -9.5h54q39 0 75 31l604 606q12 12 12 31.5t-12 31.5l-112 111q-12 12 -31 12t-33 -12l-497 -500q-12 -12 -32 -12t-32 12l-180 180q-12 12 -32 12t-32 -12l-112 -110q-12 -12 -12 -32z" />
<glyph unicode="3" d="M62 538.5q0 29.5 20 49.5l170 170q20 20 48 20t48 -20l279 -277q20 -20 48 -20t48 20l760 762q20 20 48 20t48 -20l170 -168q20 -20 20 -48t-20 -48l-922 -924q-21 -21 -54 -35t-62 -14h-80q-29 0 -61.5 14t-53.5 35l-434 434q-20 20 -20 49.5z" />
<glyph unicode="4" horiz-adv-x="1560" d="M61 -2v1436l1438 -719z" />
<glyph unicode="5" horiz-adv-x="1552" d="M61 2v1430h537v-1430h-537zM954 2v1430h537v-1430h-537z" />
<glyph unicode="6" horiz-adv-x="1554" d="M61 4v1430h1432v-1430h-1432z" />
<glyph unicode="7" horiz-adv-x="1861" d="M61 233v994l746 -373v373l993 -498l-993 -496v371z" />
<glyph unicode="8" horiz-adv-x="1861" d="M61 729l996 496v-373l743 373v-994l-743 373v-373z" />
<glyph unicode="9" horiz-adv-x="1843" d="M61.5 573q1.5 172 68.5 335t183 274q171 178 438 233.5t504 -51.5q235 -94 380.5 -311t146.5 -480q0 -176 -68 -335t-183 -274t-274 -183t-335 -68q-263 1 -479 146t-314 379q-69 163 -67.5 335zM590 131l883 442l-883 443v-885z" />
<glyph unicode=":" horiz-adv-x="1660" d="M61 -4l215 209q-2 10 -2 51v426q0 177 103 322q102 144 268 202q-8 19 -8 54q0 80 56.5 136t135.5 56q80 0 136.5 -56.5t56.5 -135.5q0 -30 -6 -54q165 -59 266 -202q104 -143 104 -322v-426q0 -41 -2 -51l215 -209q0 -35 -24 -59.5t-59 -24.5h-496q2 -6 2 -25 q0 -79 -56.5 -135.5t-136.5 -56.5q-79 0 -135.5 56.5t-56.5 135.5q0 3 1 12.5t1 12.5h-494q-35 0 -59.5 24.5t-24.5 59.5zM723 1260q0 -3 4 -31q65 10 102 10q41 0 103 -10q6 15 6 31q0 44 -32 75t-77 31q-44 0 -75 -31t-31 -75z" />
<glyph unicode=";" horiz-adv-x="1826" d="M61 129v229h203q56 0 121 45q61 39 162 140q1 1 149 159q139 148 219 213q162 131 312 134h180v188l358 -301l-358 -301v184h-180h-2q-50 0 -115 -45q-74 -50 -160 -139q-1 -1 -149 -158q-141 -150 -221 -215q-161 -130 -316 -133h-203zM61 819v230h207q124 -3 242 -84 q64 -41 135 -109l-86 -90l-31 -33l-39 -43l-55 47q-101 82 -166 82h-207zM850 319l90 97q56 56 66 69q23 -20 53 -45q107 -85 172 -82h176v193l358 -303l-358 -299v180h-176q-115 0 -246 82q-72 50 -135 108z" />
<glyph unicode="&#x3c;" horiz-adv-x="806" d="M61 383v457h230l454 456v-1368l-454 455h-230z" />
<glyph unicode="=" horiz-adv-x="1835" d="M61 143v906h1584v-224l129 -49v-360l-129 -51v-222h-1584zM213 295h1282v602h-1282v-602zM311 393v406h391l455 -406h-846z" />
<glyph unicode="&#x3e;" horiz-adv-x="1826" d="M61 379v457h230l454 456v-1368l-454 455h-230zM852 463q72 60 72 147q0 88 -72 148v4l70 135q70 -48 111.5 -124.5t41.5 -162.5q0 -87 -40.5 -162t-112.5 -122zM1010 154q122 69 193 191.5t71 264.5t-71 265t-193 192v4l67 133q156 -89 252 -250q96 -158 96 -344 q0 -185 -93.5 -344.5t-252.5 -247.5zM1165 1374l70 137q242 -134 385 -376q145 -242 145 -527q0 -282 -145 -524q-146 -243 -385 -373l-68 135q203 115 324 318q123 206 123 446q0 242 -123 445q-119 204 -326 319z" />
<glyph unicode="?" horiz-adv-x="1847" d="M61 573q0 234 116.5 433.5t315 315.5t431.5 116q176 0 336 -68.5t275 -184.5t183 -276t68 -336q1 -139 -42.5 -270t-123 -237t-186 -185.5t-238 -123.5t-272.5 -44q-139 0 -270.5 44t-238 124t-186.5 185.5t-124 236.5t-44 270zM606 1006l94 -179l21 17q5 5 22 14l17 8 q23 14 47 21q21 9 47 12q20 4 43 4q64 0 78 -20q22 -22 22 -64q0 -29 -14 -51q-22 -31 -43 -49l-57 -51q-36 -32 -62 -70q-26 -45 -41 -94q-10 -52 -10 -84q0 -5 1 -24.5t1 -24.5l2 -23h23h180v25q0 49 16 86q15 30 43 61q15 15 56.5 48.5t68.5 64.5q31 42 51 86 q21 53 21 127q0 118 -84 190q-79 70 -221 70q-94 0 -174 -25q-67 -20 -129 -63zM745 156q-3 -57 37 -97q37 -34 99 -34q66 0 100 34q39 33 39 97q0 60 -39 96q-41 35 -100 35q-58 0 -99 -35q-40 -40 -37 -96z" />
<glyph unicode="@" horiz-adv-x="1052" d="M61 983q0 187 134.5 322t322.5 135h8h9q191 0 323 -135q133 -136 133 -322q0 -73 -49 -221q-45 -146 -115 -318q-152 -374 -254 -579l-47 -103l-51 107q-39 83 -110 246q-79 181 -142 334q-48 118 -112 307q-50 158 -50 227zM315 1024q0 -88 61.5 -149.5t149.5 -61.5 q86 0 147.5 61.5t61.5 149.5q0 86 -61.5 147.5t-147.5 61.5q-88 0 -149.5 -61.5t-61.5 -147.5z" />
<glyph unicode="A" horiz-adv-x="1837" d="M61 965q0 110 78 188l203 203q76 76 186 76q113 0 189 -76l295 -295q72 -75 75 -176q0 -8 3 -11q0 -99 -64 -172l-143 142q8 13 8 30q0 27 -21 48l-295 295q-20 20 -46.5 20t-45.5 -20l-202 -203q-20 -20 -20 -47t20 -47l294 -295q21 -21 43 -21q18 0 31 8l144 -143 q-70 -61 -168 -61h-15q-102 3 -176 77l-295 295q-78 78 -78 185zM514 881.5q0 41.5 29 70.5t69.5 29t69.5 -29l604 -604q29 -29 29 -69.5t-29 -69.5t-69.5 -29t-69.5 29l-604 602q-29 29 -29 70.5zM750 270v11q0 97 61 170l141 -144q-6 -15 -6 -28q0 -25 21 -46l295 -294 q19 -20 46 -20t46 20l202 202q20 19 20 45.5t-20 46.5l-294 297q-19 19 -43 19q-20 0 -33 -8l-142 143q70 61 164 61h9h10q101 -3 176 -75l295 -295q76 -76 76 -189q0 -110 -76 -186l-203 -203q-78 -78 -188 -78q-107 0 -185 78l-297 297q-72 72 -75 176z" />
<glyph unicode="B" horiz-adv-x="1837" d="M61 565l29 -14q130 -39 199 -47q29 -4 65 -4.5t78 4.5q88 10 160 35q-120 51 -182 161q-39 65 -39 109v10q6 34 41 10q12 -8 18 -14q88 -88 338 -88q26 0 96 4l43 53v11q0 136 97 233q96 96 233 96q129 0 225 -90t105 -217l209 -100l-248 -80q-27 -52 -86 -102 q-43 -109 -125 -195q-181 -193 -506 -193q-100 0 -191 17.5t-158.5 44.5t-128.5 66t-100.5 74t-75.5 77t-53 66.5t-32 50.5zM1214 866q0 -38 28 -65t65 -27q41 0 67.5 26.5t26.5 65.5t-27 67t-67 28q-37 0 -65 -28.5t-28 -66.5z" />
<glyph unicode="C" horiz-adv-x="1837" d="M61 348q0 92 46 171.5t124 123.5q-12 35 -12 72q0 96 70 166q69 69 166 69q79 0 145 -51q64 132 187.5 211.5t271.5 79.5q213 0 360 -150q150 -147 150 -360q0 -25 -2 -31q94 -37 151.5 -122t57.5 -189q0 -138 -99 -240q-98 -98 -239 -98q-1 0 -9.5 1t-9.5 1h-1011h-2h-5 q-142 3 -241 102q-99 102 -99 244z" />
<glyph unicode="D" horiz-adv-x="1837" d="M62 571.5q0 173.5 67 331.5q136 322 457 459q160 68 333.5 68t331.5 -68q320 -135 457 -459q68 -158 68 -331.5t-68 -333.5q-136 -319 -457 -455q-158 -67 -331.5 -67t-333.5 67q-321 137 -457 455q-67 160 -67 333.5zM442 236.5q0 -33.5 23 -56.5l63 -63 q23 -23 56.5 -23t56.5 23l223 223q23 23 56.5 23t58.5 -23l221 -223q23 -23 56.5 -23t58.5 23l63 63q23 23 23 56.5t-23 58.5l-223 221q-23 25 -23 57.5t23 57.5l223 221q23 25 23 58.5t-23 56.5l-63 63q-25 23 -58.5 23t-56.5 -23l-221 -223q-25 -23 -58.5 -23t-56.5 23 l-223 223q-23 23 -56.5 23t-56.5 -23l-63 -63q-23 -23 -23 -56.5t23 -58.5l223 -221q23 -25 23 -57.5t-23 -57.5l-223 -221q-23 -25 -23 -58.5z" />
<glyph unicode="E" horiz-adv-x="1832" d="M61 606v19q3 2 10.5 11l12.5 15l66 64q66 62 102 92q45 40 133 98q167 110 338 156q83 25 171 27q11 0 21 1q77 -1 149 -17q80 -18 159 -48.5t148.5 -72.5t130.5 -84t110.5 -86t82.5 -77.5t54 -58.5l23 -24v-17l-25 -26q-15 -19 -66 -68t-102 -90q-140 -117 -293 -191 q-191 -90 -371 -90h-6q-113 -1 -233 39q-123 40 -213 94t-179.5 125.5t-131.5 113t-76 79.5zM631 608q0 -120 82 -202t200 -82q119 0 201 82q84 84 84 202q0 115 -84 199t-201 84q-116 0 -200 -84q-82 -82 -82 -199zM784 608q0 54 37 92t92 38t93 -38t38 -92t-38 -92 q-38 -37 -93 -37t-92 37q-37 38 -37 92z" />
<glyph unicode="F" horiz-adv-x="1337" d="M61 -242v1323l351 351v2h864v-1676h-1215zM201 -102h936v1396h-584v-352h-352v-1044z" />
<glyph unicode="G" horiz-adv-x="1843" d="M62 568q1 173 68 336t183 274q171 178 438 234q91 18 179 18q169 0 325 -70q235 -94 380.5 -311t146.5 -480q0 -176 -68 -335t-183 -274t-274 -183t-335 -68q-263 1 -479 145.5t-314 378.5q-68 160 -68 328q0 4 1 7zM227 569q0 -142 55.5 -270.5t149 -220.5t221.5 -146.5 t269 -54.5q165 0 311 75t244 206q-9 -2 -14.5 6.5t-6.5 28.5q0 40 6 49q13 -8 13 0q-8 3 -5 12q6 -5 13.5 -4t7.5 8q-7 0 -2 8q4 4 4 -2q4 0 6 4.5t2.5 10t1.5 6.5q0 -22 6 -25q2 -4 1 -6.5t-4 -5.5t-3 -4q-4 -4 -4 -13h-6q0 -6 -2 -18t-2 -14q-4 0 -4 -33q129 184 129 403 q0 46 -2 58q-15 0 -27 4q-2 0 -27 9t-36 5q0 2 -2 2q2 2 -9 21q-13 12 -16 2q-1 0 0.5 -5t4 -10t5.5 -6l4 -12q4 -1 1.5 -6t-1.5 -6q8 0 11 14q0 -2 2 -2q-2 -4 2 -12v-11q19 0 28 21q1 0 1.5 -2t1 -4.5t1.5 -3.5q4 -4 4.5 -10t4.5 -7q4 0 4 4v4q20 -8 0 -24l-2 -5 q-2 -5 -2 -9q0 -14 -9 -17l-16 -9q-16 -8 -16 -13q-6 0 -18 -5.5t-13 -9.5q-2 0 -12 -3.5t-11 -4.5q-9 0 -16.5 12.5t-9.5 12.5q0 1 -0.5 2t-1.5 3.5t-2 4.5q3 0 -2.5 12.5t-12 27t-6.5 17.5q-1 -1 -2.5 1t-3 5.5t-2.5 6.5t-1 5l-1 3l-14 24q-21 21 -21 27q21 0 21 8 q-4 2 -2 6q2 7 6 19q0 3 2 12t2 12q-1 0 -17 -4q-1 -3 -3.5 -2.5t-7.5 2.5l-5 2l-14 -1q-14 -1 -17 5q-5 5 -8 29q-3 6 -16 6q-5 0 -6.5 -2t-1 -5t2 -7t1.5 -6q6 0 -1 -10l-5 -9q-6 1 -12.5 12.5t-8.5 12.5q-2 2 -2 4q0 4 -4 4v2q1 2 1.5 4t0.5 4.5v4.5t-1 3.5t-3 1.5 q0 1 -16 9q-4 0 -11 6.5t-13 10.5t-9 1q0 -3 6 -12q3 1 11 -8.5t13 -8.5v-10q4 0 7.5 -2t5.5 -4l2 -2q-2 0 -8 2q-4 0 -4 -2v-2q3 -9 -9 -18q0 24 -6 24q-3 3 -13 9.5t-13 9.5q-1 0 -7 8t-10 8q-4 -4 -10 -4q-2 -7 -25 -2h-6q-4 -10 -8 -20.5t-5.5 -15t-2.5 -5.5 q0 -3 -5.5 -11t-6.5 -10q0 -1 -15.5 -3t-15.5 -3q-23 10 -23 27q-2 1 -0.5 19.5t4.5 21.5l4 -4q5 4 11 2.5t11 -1.5t5 5q9 0 6 -8q19 -6 19 6q-4 0 -4 4q8 11 -1.5 22.5t-9.5 12.5l-8 8q10 -8 21 -4q3 3 0 8v2q9 -10 12 -2q4 0 8 4q2 2 -2 2v12q7 -4 7.5 -3t1.5 6.5t5 7.5 q0 -3 1.5 -3t3.5 3l8 4q1 3 10 6t10 6q-6 3 -6 25q5 0 10 2.5t6.5 3t4.5 -3.5q0 -13 2 -13q9 -2 9 1q0 1 -1 6v4q-1 0 -10 20q-7 0 -11 -4q-4 0 -14.5 2t-13.5 2q-14 14 -13 14q-2 9 4 11h5q0 2 24.5 10t24.5 16q-14 0 16 27q22 16 29 16q4 0 19.5 4t29 7t16.5 0q45 0 45 -5 q2 0 7.5 -2t9 -3t6.5 1q6 2 22.5 -6t16.5 -14q-3 0 -24.5 -2t-29.5 -2v-4q5 0 11.5 -9.5t5.5 -13.5q3 0 10 4t10 4q0 -4 2.5 -6.5t5.5 -1t3 7.5l-2 9q1 4 9 6t9 6q-97 116 -235.5 181t-292.5 65q-131 0 -253 -49t-220 -138q2 -2 5.5 -0.5t5.5 3.5l3 3q0 -14 2 -16q6 0 6 -14 l5 1q5 1 8 0t5 -5h-10q0 -6 -1.5 -8t-6 -0.5t-6.5 1.5q-2 1 -4 1.5t-7.5 2t-6 -1t1.5 -8.5q2 0 5 -3t5 -3l26 -6q3 0 10.5 1t8.5 1q9 5 4 8q1 1 0 2.5t-3 3t-5 2.5q3 3 6.5 3.5t9 -0.5t6.5 -1l4 15q1 3 8.5 5t8.5 5q7 -2 10 -12q3 0 6 -6q19 -19 19 -7q12 -3 12 -22 q14 3 14 22q0 3 -2 5v2q2 2 7 0q5 -1 5 2q2 0 2 -4h17v-23q0 -4 -7 -7l-8 -3q-3 -7 -1.5 -9.5t11.5 -7.5t13 -8l-16 2q-1 0 -15.5 -2.5t-15.5 0.5q7 0 14 23q-14 3 -22 -11q0 -6 -8 -7t-9 -3q-3 0 -7 -2l-6 -3t-5 1q-5 -2 -8 -4.5t-4.5 -6.5t-2 -6t0 -8.5t0.5 -9.5 q22 -16 22 -24q13 0 37 -6q4 -7 8 -7q0 -8 19 -8q0 11 10 -6l4 -8q0 -8 6 -16q-5 0 -2 -3q5 -4 11.5 -2t6.5 7q-4 0 -4 12q-13 13 2 16q0 -7 11 0q8 5 0 8q6 19 0 25l-6 1q-5 1 -5 5q8 3 2 29h11q2 0 9 -2t12 -1.5t7 5.5q4 -2 6.5 -4.5t3 -4t3 -1.5t6.5 2q0 -2 8.5 -11.5 t9.5 -9.5q0 -6 4 -6l-2 -2v-2q15 0 15 2q4 0 8 5t4 11q3 0 8 -12t8 -12q0 -2 9.5 -12t9.5 -11q4 -4 4 -10q2 0 6 4t4 -2q2 0 8 -4t6 -8q-4 0 -5 -2t0 -4l1 -2q0 -2 -2 -3t-5 -1t-6 0.5t-6 0.5l-3 1q-2 -10 -12.5 -12.5t-22.5 -0.5t-23 0q-8 -5 -19 -18.5t-11 -20.5 q5 0 15 8.5t13 8.5q8 0 21 8q0 -1 1 -2t1 -2q-4 1 -6 -0.5t-1.5 -4t1.5 -4.5t2.5 -5.5t1.5 -4.5q7 -10 16 -10q-1 -1 -3.5 -2t-4.5 -2t-2 -2q-10 -3 -10 -6h-10v2l2 2h6v8q-3 0 -11.5 -3t-11.5 -3q-8 -8 -12 -8q-3 -22 -12 -25q-7 -2 -13 -8l-4 -2l-4 -4q-4 -4 -4 -10 q-6 -15 -6 -19q0 -2 -8 -12t-13 -10q-20 -20 -20 -33q2 -2 4 -15.5t4 -15.5v-6q0 -10 -8 -10q0 1 -2 3.5t-3.5 5t-0.5 3.5q0 12 -8 25q0 2 -2 2.5t-5 0.5h-6t-6 -1h-2q-3 6 -27 6l3 -3q2 -3 2 -7q-3 -1 -6.5 -2t-5.5 -1.5t-3 -0.5l-7 4q-7 5 -13 4q-12 0 -20.5 -10.5 t-8.5 -22.5q-2 0 -2 -17.5t2 -17.5q0 -3 4 -11t4 -11q4 0 13 -8.5t10 -8.5q0 -8 10 -8q6 4 8 10q-5 2 -3 7.5t7 7.5q0 -6 13 4l12 4q0 4 2 4q2 2 2 -2t-2 -6q-2 0 -6 -4l-2 -6q0 -15 -6 -21q0 -2 1.5 -8.5t0.5 -9.5h26v6q4 0 4.5 -13.5t3.5 -13.5q0 -3 2.5 -11t2.5 -11 q12 -6 8 -17q24 0 24 6q14 0 11 -14q8 0 12 6t5 11l1 6q0 6 4 2q4 0 8 4q2 2 4 2l7 4l4 -4q10 0 18 8l7 -10q8 -11 14 -11q20 0 26 3q6 -3 6 -7q1 0 3 -2t3 -2h3q1 -1 3 -1.5t3.5 -2t1.5 -4.5t5 -6t5 -4q2 0 2 -2l4 -4h2l19 -6q2 5 10 0l2 -2q4 -4 4 -5q6 -6 6 -9t2 -5 q1 -1 8 -22q-2 0 -2 -17q-2 0 0 -2q13 -7 13 4q3 0 10 -4t8 -4q-2 -5 3 -6.5t5 4.5q3 1 4.5 -1t2 -5t0.5 -6.5t-0.5 -6.5t-0.5 -4q3 0 9.5 3.5t9.5 3.5t5 -1t3 -0.5t4 3.5q12 -3 27 -17q12 -10 12.5 -30t-10.5 -27l-17 -21q0 -24 -2 -24q0 -29 -6 -29q0 -6 -5.5 -14.5 t-6.5 -11.5q-1 -1 -7.5 -6t-13 -9.5t-6.5 -5.5q-3 0 -8 -2t-8 -2l-4 -4q-5 -8 -4 -8q0 -29 -4 -33h-2q-7 -4 -5 -8q-4 0 -4 -2q-2 -2 -6 -2q-6 0 -11 -5.5t-5 -11.5q-2 -13 -12 -22l-9 -4q-6 -3 -6 -9v-16q-13 0 -16 -8q-12 0 -23 -8q0 -9 -4 -9q0 -5 -1.5 -6.5t-3.5 -1 t-4.5 1.5t-4.5 0q3 0 5 -9q1 -3 -1 -3q0 -4 -1 -6t-2 -3.5t-4 -4t-5 -4.5q-1 -1 -1.5 -2t-2.5 -4t-3.5 -4.5t-1.5 -0.5q0 -3 -1 -10t-1 -8v-6l5 4q0 6 4 2q8 -4 0 -4q-13 -13 -13 -19q-7 0 -10 -14q0 -4 2 -6q0 -1 0.5 -2t1.5 -3.5t2 -4.5q-1 1 -11.5 3.5t-24 7t-19.5 7.5 q0 76 8 76q0 18 4 18v29q-1 4 2.5 14.5t5.5 12.5q3 3 5.5 21t4 34t3.5 16q0 2 2.5 24t2.5 36t-3 24q5 0 -10 15q-5 5 -5 2q-11 0 -18.5 13.5t-7.5 25.5q-6 18 -6 20q2 0 -19 29l-6 10q-4 7 -3.5 10t3 10.5t2.5 12.5q-7 5 -3.5 22t9.5 17q0 5 6 8q3 -5 9 -2q5 5 2 8h-4v27 q0 17 -9 20q-3 2 -6 -0.5t-4 -9.5q-2 2 -16.5 5.5t-14.5 10.5q0 5 -6 13.5t-10 9.5q1 7 -12 16.5t-21 9.5q0 1 -4 3.5t-4 3.5q-3 0 -10.5 6t-11.5 6t-19.5 5t-19.5 5q-1 3 -13.5 6t-13.5 6q-6 0 -10 9.5t-4 17.5q0 9 -6 23t-13 14q0 6 -7.5 13t-12.5 7q-6 15 -10 15 q0 8 -13 18q-6 3 -6 0q-1 -3 5.5 -11t6.5 -11q2 0 17 -27q16 -23 6 -23q-7 0 -21 17l-4 12q-4 0 -9 11.5t-5 17.5l-12 24q0 21 -23 21l-14 18q0 5 -6.5 16t-10.5 11l-1 17q-2 17 -1 22q0 49 -20 63q-68 -139 -68 -295zM612 604q0 2 2 4q2 0 4 -2q0 -10 7 0q0 -6 -9 -6z M637 604q10 0 14 4q4 -1 14 -6.5t13 -5.5q12 -12 4 -12q-15 -3 -25 10q-10 0 -20 10zM657 569q9 0 9 -6h-2q-5 -2 -6.5 0t-0.5 6zM668 563q0 2 4 6q2 -2 2 -4q-2 -2 -6 -2zM688 569h14q-2 3 -4 9l10 -2q10 -3 13 -3v7l12 -13h-26q-2 -4 -9.5 -3.5t-9.5 5.5zM711 512q2 2 2 4 l2 -2q0 -2 -4 -2zM743 565v4l5 -2zM750 567v2q6 0 6 -2q-2 0 -4 -2q-2 0 -2 2zM782 821q0 3 9 6q0 -6 -9 -6zM975 993l4 4q3 9 -4 9q15 6 16 6v-2v-9q-2 -4 21 5q4 0 7 0.5t4.5 1t3 0.5t1.5 -1.5v-5.5q4 -6 6 -0.5t6 5.5v-5q2 -2 -2 -6q-9 -6 -20 -6h-23zM1018 565 q0 1 3 8.5t3 8.5q0 26 8 39q0 8 8 16q3 5 6.5 6t6.5 6q3 0 6.5 4t6.5 9l3 6q4 4 0 8q8 14 8 20q3 9 6 6h7q2 0 6 6.5t6 6.5q3 6 12 6q0 -3 14 0l7 2q14 14 28 14q5 2 12 1.5t19.5 -2t15.5 -1.5v4q6 -1 14.5 -19.5t8.5 -25.5h16q0 -8 21 -8q33 0 33 12q12 0 12 -12 q4 0 11.5 -0.5t17 -1.5t15.5 -3t5 -5l5 -6q5 -6 9 -6q0 -7 5.5 -18t9.5 -11q0 -16 10 -23q13 -31 24 -37q-1 -4 1.5 -9t5 -8.5t2.5 -4.5q3 -11 6 -14q0 -7 9.5 -23t16.5 -16q0 -2 -2 -4t0 -2l4 -2q13 0 13 2q21 0 33 6q0 -4 -5 -19t-4 -20q-6 0 -6 -10q-1 0 -5 -6.5t-7 -6.5 q0 -3 -19 -22q-1 -3 -11 -13.5t-11 -13.5q-21 -21 -21 -29l-2 -6q0 -43 7 -43q0 -2 2.5 -13.5t2.5 -18t-3 -11.5q0 -4 -4.5 -14t-4.5 -14q-3 0 -6.5 -3.5t-3.5 -5.5q-5 0 -9 -7l-5 -7q0 -5 -2 -22.5t-2 -22.5q4 2 -6 -25l-2 -4q-31 -23 -31 -34l-17 -25q-5 0 -21.5 -3.5 t-16.5 -4.5q-2 0 -9 -1t-13 -1t-9 2q0 3 -2 12.5t-2 13.5q-1 0 -4 7.5t-4 7.5q0 1 -5 13t-9.5 23t-2.5 11l-6 18q0 5 -5 21.5t-5 21.5q-3 0 -5.5 15.5t-0.5 17.5q0 12 8 45q3 19 -6 47q-9 10 -9 12q-12 6 -12 31q4 4 6 18.5t0 22.5q-4 2 -28 2q-2 8 -50 8l-20 -2 q-1 -4 -9.5 -3t-18 5.5t-9.5 6.5q-6 0 -15 9.5t-9 16.5q-6 1 -15.5 19t-9.5 26q-4 2 -5 6.5t0.5 8.5t4.5 4q0 6 -6 24zM1075 895q2 0 6 2q9 3 9 4q-8 0 -5 8q0 3 4 -1q3 -3 5 -1q4 0 7 1q1 1 1 0.5v-2.5v-5q-6 -24 -25 -24q-3 3 0 16q-2 0 -2 2zM1104 928q0 2 2 4q9 0 12 6 q10 0 2 -4l-2 -2v-8q4 0 9 4t6 4q0 -4 -5.5 -8.5t2.5 -8.5q10 -11 9 -12q13 0 10 -22q5 0 5.5 0.5t0.5 5.5q1 0 1 -4t-1 -4q-7 -11 -31 -11q0 9 -8 6q-6 -3 -6 3q0 4 2 6l2 6q4 0 14 2q-2 2 -4 2q-1 10 -4.5 13t-11.5 3q0 7 -2 9q-2 6 -2 10zM1108 864q2 0 2 2h6 q0 -5 -3 -5.5t-5 3.5zM1196 762q0 14 4 14q2 -4 4 2q5 0 2 -10q-3 -8 -10 -6zM1198 793q6 -3 6 0v2q6 -3 0 -11l-2 -2zM1227 745q3 3 6 0h4q2 -3 3.5 -2l4.5 3t4 2q0 -16 -22 -3zM1343 784q5 -5 5 -8q51 0 51 6q1 -3 2.5 -5t3 -1.5t2.5 4.5q2 -1 4.5 -3t9.5 -5t11 -2l12 6 q4 4 -2 4q0 7 -6 14t-12 11l-5 4q-3 0 -8 2t-8 2q-21 -4 -25 2q0 17 -18 14q-1 -3 -10 -19.5t-7 -25.5zM1489 815q-2 -6 -2 -10q0 -6 4 -6q0 -3 6 -13t6 -16q0 -1 -1.5 -10t1 -13t10.5 -6q2 -8 12.5 -9.5t12.5 5.5q-5 0 -6 9v10q0 6 -6 12h14q0 3 -4 9t-4 9q-2 0 -4 -2 q-6 -3 -6 -2v4q0 5 -0.5 6.5t-3.5 3t-5 3.5l-4 14q9 0 13 2q2 2 8 4q-3 3 -5 8t-5 7h-2q-4 0 -7 -3q-2 -1 -9.5 -5.5t-10.5 -4.5zM1495 274q0 3 4 7q0 -7 -2 -9z" />
<glyph unicode="H" horiz-adv-x="1808" d="M61 571l844 842l842 -842h-324v-774h-362v482h-311v-482h-375v774h-314z" />
<glyph unicode="I" horiz-adv-x="1835" d="M61 -164v643l322 856h1069l322 -856v-643h-1713zM276 479h404l100 -196h267l108 196h406l-215 660l-857 2z" />
<glyph unicode="J" d="M61 53l250 250l-168 168l756 88l-88 -758l-166 168l-250 -250zM356 692l50 103l403 -140zM780 844l58 10v-174zM930 590l88 756l166 -166l250 250l335 -336l-249 -250l168 -168zM997 299v174l58 -166zM1026 498l453 -39l-49 -103z" />
<glyph unicode="K" d="M61 888q0 148 72 273q74 126 199 198.5t272 72.5h9q103 0 200 -42q101 -44 175 -117.5t118 -174.5q42 -97 41 -200v-9q0 -78 -29 -170l651 -651v-344h-344h-2v264h-262v262h-262l-125 125q-92 -29 -170 -29q-147 0 -272 72.5t-199 197.5q-72 124 -72 272zM307 1006 q0 -74 55 -128.5t130 -54.5t128.5 54.5t53.5 128.5q0 75 -53.5 128.5t-128.5 53.5t-130 -53.5t-55 -128.5z" />
<glyph unicode="L" horiz-adv-x="1843" d="M62 575q2 172 68.5 335t182.5 274q171 178 438 234q91 19 179 18q169 0 325 -70q235 -94 380.5 -311t146.5 -480q0 -176 -68 -335t-183 -274t-274 -183t-335 -68q-263 1 -479 146t-314 379q-68 160 -68 328q1 3 1 7zM276 575q0 -176 86 -324t236 -235q149 -86 324 -86 t323 86q150 86 236 235t86 322v12q0 97 -30 190q-32 99 -93 180t-141 142t-179 93q-93 31 -190 31h-12q-130 0 -249.5 -51.5t-206.5 -138.5t-138.5 -206.5t-51.5 -249.5zM416 569v9q0 96 40 188q42 96 111.5 166t165.5 112q92 40 188 39h9.5h8.5q96 1 188 -39 q96 -42 165.5 -112t110.5 -166q39 -92 39 -188v-9.5v-9.5q0 -97 -39 -189q-41 -96 -111 -165.5t-165 -110.5q-91 -39 -188 -39h-9.5h-8.5q-97 0 -189 39q-96 41 -166 110q-68 70 -110 166q-40 92 -40 190v9zM561 612q0 -14 2 -18l86 -66q80 145 142 207q68 68 208 144 l-61 82q-6 2 -25 2h-11q-74 -1 -152 -51q-84 -54 -138 -138q-51 -80 -51 -154v-8zM1001 401q0 -35 24.5 -59.5t59.5 -24.5q33 0 57.5 24.5t24.5 59.5t-24.5 59.5t-57.5 24.5q-35 0 -59.5 -24.5t-24.5 -59.5z" />
<glyph unicode="M" horiz-adv-x="1839" d="M61 98v953q0 13 7 30l559 -479l-559 -536q-7 21 -7 32zM135 1149q28 4 29 4h1511q1 0 29 -4l-563 -481l-74 -62l-147 -119l-148 119l-74 62zM137 0l565 543l218 -178l219 178l563 -543q-20 -4 -27 -4h-1511q-7 0 -27 4zM1212 602l560 479q6 -15 6 -30v-953q0 -17 -6 -32z " />
<glyph unicode="N" horiz-adv-x="1828" d="M61 74v985q0 35 12.5 47t47.5 12h188v195q0 35 12.5 47t47.5 12h1339q35 0 47 -12t12 -47v-1342q0 -35 -12 -47t-47 -12h-221h-1118h-146q-58 0 -110 55q-52 52 -52 107zM164 74q0 -14 23 -37t36 -23h146h1118h180v1256h-1257v-152v-102v-912h-101v912h-145v-942z M543 219v76h977v-76h-977zM543 455v75h977v-75h-977zM543 682v457h456v-457h-456zM1141 766v76h379v-76h-379zM1141 999v76h379v-76h-379z" />
<glyph unicode="O" d="M61 -2v1046h142v-1046h-142zM344 -2v1046h107q62 123 126.5 198t122.5 75h424q44 0 96.5 -46t92.5 -104t73 -123h97v-1046h-1139zM742 1131.5q0 -23.5 16.5 -43t44.5 -19.5h213h2q37 -1 53 31q8 16 8 32.5t-8 32.5q-15 29 -48 29h-7h-213q-28 0 -44.5 -19.5t-16.5 -43z M1626 -2v1046h143v-1046h-143z" />
<glyph unicode="P" horiz-adv-x="1835" d="M61 948l1260 486l160 -418h293v-1014h-1350v2zM207 885l217 -568v652zM537 115h1124v788h-1124v-788zM549 1016h811l-105 272zM674 209l211 229l135 -86l252 363l78 -146l90 29l119 -389h-885zM678 670q0 44 31 75t74.5 31t74.5 -31q32 -31 32 -75t-32 -76 q-31 -31 -74.5 -31t-74.5 31q-31 32 -31 76z" />
<glyph unicode="Q" horiz-adv-x="1716" d="M61 473q0 171 71.5 327.5t197.5 268.5q39 33 88 33h8q52 -3 88 -45q33 -33 33 -84v-10q-3 -53 -45 -89q-86 -76 -133 -180t-47 -221v-11q0 -136 70 -257q74 -126 199 -200q120 -71 256 -71h11h9q101 0 197 42q101 43 174.5 116.5t117.5 173.5q41 97 41 198v9 q0 118 -46.5 221t-133.5 178q-40 37 -43 91v10q0 52 32 84q34 40 88 43h9q50 0 86 -33q126 -111 196 -266.5t70 -327.5q0 -162 -63 -310t-170 -255t-254.5 -170.5t-309.5 -63.5t-309.5 63.5t-254.5 170.5t-170 255t-63 310zM731 471v834q0 55 37.5 93t91.5 38t92.5 -38 t38.5 -93v-834q0 -54 -38.5 -92.5t-92.5 -38.5t-91.5 38.5t-37.5 92.5z" />
<glyph unicode="R" horiz-adv-x="1835" d="M61 0v1071h670l-26 -12q-174 -76 -289 -203h-142v-641h1072v178l213 144v-537h-1498zM393 422q0 99 33 184t85.5 144t122 107.5t137.5 77.5t138.5 49.5t117.5 28.5t81 11l25 2v258l641 -430l-641 -432v280q-194 0 -289 -14q-86 -9 -160 -35t-120.5 -55t-84 -64.5t-54 -58 t-26.5 -41.5z" />
<glyph unicode="S" horiz-adv-x="1796" d="M61 748q0 25 17 49q18 18 33 24q27 10 55 10h471q10 0 22 9q15 12 15 20l137 490q10 32 18 43q23 36 68 39q42 -3 68 -39q14 -28 20 -43l135 -490q0 -8 15 -20q12 -9 22 -9h471q20 0 41 -6q34 -10 47 -28q17 -24 17 -41v-8q0 -24 -21 -58q-2 -4 -33 -28l-376 -248 q-5 -2 -11.5 -15t-5.5 -20v-8l166 -486q8 -19 8 -47q0 -31 -14 -51q-26 -33 -62 -33h-2q-18 0 -29.5 4t-26.5 15t-17 12l-389 317q-7 7 -21 7q-15 0 -18 -7l-371 -315q-39 -28 -74 -31h-6q-32 0 -57 31q-17 27 -17 53q0 13 9 43l147 484v8q0 11 -5 23.5t-11 13.5l-379 250 q-28 20 -33 28q-23 30 -23 58z" />
<glyph unicode="T" d="M62 1303q0 57 38 94q38 38 95 38t94 -38l360 -359l973 246l129 -129l-760 -461l344 -344l305 29l129 -131l-331 -187l-189 -333l-129 131l29 303l-346 346l-459 -760l-129 129l246 973l-361 358q-38 38 -38 95z" />
<glyph unicode="U" horiz-adv-x="1835" d="M61 -59v176q0 34 38 80q56 67 175 118q21 8 111 60q195 112 371 145q-70 73 -148 275q-14 30 -22 98v33v73q0 31 -2 64v59v27q0 35 6 59q18 65 50 110.5t75.5 70.5t92 36t107.5 11q259 0 324 -228q4 -18 8 -59v-23q0 -38 -2 -61q-2 -33 -2 -66v-38q0 -41 -2 -68 q0 -50 -18 -98q-77 -198 -148 -275q103 -15 193 -55q111 -49 180 -90q95 -53 111 -60q110 -48 161.5 -102t51.5 -86l2 -10v-176h-1713z" />
<glyph unicode="V" horiz-adv-x="1832" d="M61 178v887q0 38 28 65t65 27h1044q38 0 65 -27t27 -65v-213l482 227v-919l-482 227v2v-211q0 -38 -27 -65t-65 -27h-1044q-37 0 -65 27t-28 65z" />
<glyph unicode="W" horiz-adv-x="1882" d="M61 111v1009q0 104 74 178t178 74h1008q29 0 49 -4l-182 -184h-875q-26 0 -44.5 -19t-18.5 -45v-1009q0 -25 18.5 -44.5t44.5 -19.5h1008q26 0 44.5 19.5t18.5 44.5v370l189 191v-561q0 -105 -74 -179q-73 -73 -178 -73h-1008q-105 0 -178 73q-74 74 -74 179zM696 244 l129 399l725 725l271 -270l-725 -725zM793 340l270 86l-182 182z" />
<glyph unicode="X" horiz-adv-x="1832" d="M61 244v368l228 252h377v-581q-31 43 -79 67.5t-102 24.5q-67 0 -122.5 -35.5t-81.5 -95.5h-220zM201 471h329v270h-202l-127 -151v-119zM336 150q0 63 43 106t106 43q62 0 106 -43t44 -106q0 -62 -44.5 -106t-105.5 -44q-63 0 -106 44t-43 106zM776 244v866h996v-866 h-136q-26 60 -81.5 95.5t-122.5 35.5q-66 0 -121 -35.5t-84 -95.5h-451zM1282 150q0 63 44 106t106 43q63 0 106 -43t43 -106q0 -62 -43 -106t-106 -44q-62 0 -106 44t-44 106z" />
<glyph unicode="Y" horiz-adv-x="1828" d="M61 440l332 310l197 -301l350 989l322 -1239l268 845l237 -759l-125 -33l-112 364l-281 -882l-327 1265l-297 -837l-258 395l-166 -156l-45 -41z" />
<glyph unicode="Z" horiz-adv-x="1824" d="M61 487q0 204 100 377.5t273.5 275.5t378.5 103v-756h760q0 -154 -60 -294t-161 -241t-241 -160.5t-294 -59.5t-294 59.5t-241 160.5t-161 241t-60 294zM1004 676v758h2q153 0 293 -60t242 -161.5t162 -242t60 -294.5h-759z" />
<glyph unicode="[" horiz-adv-x="1835" d="M61 616l875 758v-569h838v-379h-838v-567z" />
<glyph unicode="\" horiz-adv-x="1638" d="M61 -328v1514h183v94q0 72 40.5 111t114.5 39q73 0 115.5 -40.5t42.5 -109.5v-94h107v94q0 69 42 109.5t115 40.5q74 0 115 -39t41 -111v-94h106v94q0 69 42.5 109.5t115.5 40.5t115.5 -40.5t42.5 -109.5v-94h178v-1514h-1516zM168 -223h1302v1093h-1302v-1093zM307 1028 q0 -35 27 -60.5t65 -25.5t66.5 25.5t28.5 60.5v252q0 35 -28.5 60.5t-66.5 25.5t-65 -25.5t-27 -60.5v-252zM418 37l14 106q73 -28 150 -28q49 0 77.5 22t28.5 58q0 45 -35.5 66.5t-120.5 25.5v106q130 9 130 78q0 30 -20 43.5t-67 13.5q-59 0 -124 -30l-15 106 q73 31 172 31q91 0 145 -36.5t54 -94.5q0 -101 -133 -148v-2q149 -40 149 -151q0 -91 -70.5 -143t-185.5 -52q-67 0 -149 29zM727 1028q0 -36 27.5 -61t66.5 -25q37 0 64.5 25.5t27.5 60.5v252q0 35 -27.5 60.5t-64.5 25.5q-39 0 -66.5 -25t-27.5 -61v-252zM924 535l186 90 h64v-607h-130v451l-106 -41zM1149 1028q0 -35 27 -60.5t65 -25.5q39 0 66.5 25t27.5 61v252q0 36 -27.5 61t-66.5 25q-38 0 -65 -25.5t-27 -60.5v-252z" />
<glyph unicode="]" horiz-adv-x="1835" d="M61 426v379h836v569l877 -758l-877 -757v567h-836z" />
<glyph unicode="^" horiz-adv-x="1552" d="M61 -326v1674q0 35 26 60.5t63 25.5q35 0 60.5 -25.5t25.5 -60.5v-1674h-175zM336 438v817l55 15q123 32 127 33q103 24 174 34q70 13 129 20t114 8.5t85.5 -10.5t26.5 -38q0 -7 -5 -30.5t-8 -46.5t-3.5 -46.5t10.5 -37t34 -11.5l160 12q61 5 170 10l68 4q4 -4 11 -29.5 t6 -93.5t-24 -147q-23 -84 -26 -199q-3 -103 8 -200l8 -80q-49 -10 -88 -16q-76 -13 -188 -25q-51 -6 -98.5 -4.5t-83 8t-53 23.5t-9.5 41q31 98 -95 95q-123 -3 -376 -100q-32 -12 -67 -15t-46 3z" />
<glyph unicode="_" horiz-adv-x="1560" d="M61 406v407h1438v-407h-1438z" />
<glyph unicode="`" horiz-adv-x="1800" d="M61 -217v567l195 -196l311 311l178 -178l-311 -312l195 -194zM61 891v567h568l-195 -194l311 -312l-178 -178l-311 313zM1055 287l178 178l311 -311l195 194v-565h-568l195 194zM1055 952l311 312l-195 194h566v-567l-193 194l-311 -311z" />
<glyph unicode="a" horiz-adv-x="1720" d="M61 193q0 42 31 72t74 30t72.5 -29.5t29.5 -72.5v-17q28 -24 70 -45q33 -17 78 -47q100 -65 295 -68l65 310q9 200 15 393h-279l-106 24q-27 -34 -68 -34q-35 0 -59.5 24.5t-24.5 57.5q0 35 24 58t60 23q48 0 68 -36h389l6 196q-66 20 -107 75t-41 124q0 86 59.5 146.5 t145.5 60.5t146.5 -60.5t60.5 -146.5q0 -67 -41 -122t-104 -75q0 -2 4 -82l4 -116h387q20 36 67 36q36 0 60 -23t24 -58q0 -33 -24.5 -57.5t-59.5 -24.5q-44 0 -65 34l-109 -24h-276l12 -393l68 -316q14 -2 43 -2q134 0 202 45q101 61 197 127q-2 2 -2 13q0 32 19 57.5 t46 36.5t58 6t53 -29q24 -22 29 -53q2 -10 2 -19q0 -20 -8 -39q-11 -27 -37 -46t-58 -19q-3 0 -12 1t-12 1q-89 -77 -162 -121q-161 -105 -321 -155q-153 -90 -185 -90q-44 2 -194 92q-161 48 -320 153q-89 57 -162 121q-3 0 -11 -1t-11 -1q-43 0 -74 31t-31 74zM750 1231 q0 -44 32 -76.5t76 -32.5t77.5 32.5t33.5 76.5t-33 76t-78 32q-44 0 -76 -32t-32 -76z" />
<glyph unicode="b" horiz-adv-x="1798" d="M61 -10v1210l840 232l836 -232v-1210l-836 -234zM203 94l626 -172v899l-626 176v-903zM287 1118l612 -172l614 172l-612 168zM969 -80l628 174v901l-628 -174v-901z" />
<glyph unicode="c" horiz-adv-x="1828" d="M61 348q0 92 45 171t123 126q-10 42 -10 70q0 96 68 164q69 69 168 69q80 0 141 -49q64 132 187.5 211.5t271.5 79.5h14q94 0 182 -38q95 -41 164 -110t109 -164q39 -91 39 -187v-9q0 -25 -2 -31q94 -38 150 -122.5t56 -188.5q0 -137 -98 -238q-98 -98 -237 -98h-19h-405 v332h61h156q24 0 30 13.5t-8 33.5l-297 354q-17 20 -40 20t-40 -20l-297 -354q-18 -20 -11 -33.5t34 -13.5h156h61v-332h-405h-2h-3h-4v2q-139 0 -239 100q-99 102 -99 242z" />
<glyph unicode="d" horiz-adv-x="1839" d="M61 573q0 174 68 333t183.5 274.5t274.5 183.5t333 68q176 0 335 -68t273.5 -183.5t182 -274.5t67.5 -333q0 -176 -67.5 -335t-182 -273.5t-273.5 -182t-335 -67.5q-174 0 -333 67.5t-274.5 182t-183.5 273.5t-68 335zM276 573v-14q0 -120 49 -233q52 -120 140 -207.5 t208 -139.5q113 -49 233 -49h14q212 0 374 119l-897 899q-121 -171 -121 -375zM547 1098l897 -897q121 168 121 372v15q0 162 -84 306q-88 150 -239 238q-144 85 -307 85h-15q-208 0 -373 -119z" />
<glyph unicode="e" horiz-adv-x="1239" d="M61 -244l490 791h-328l955 885l-396 -701h324z" />
<glyph unicode="f" horiz-adv-x="1828" d="M61 -43q0 94 67 160.5t161 66.5t160.5 -66.5t66.5 -160.5t-66.5 -160.5t-160.5 -66.5t-161 66.5t-67 160.5zM61 522v328q225 0 433.5 -87t359.5 -241q155 -152 244.5 -360.5t89.5 -433.5h-328q-1 160 -61.5 304t-173.5 257q-112 112 -258 172.5t-306 60.5zM61 1104v330 q232 0 452.5 -61.5t406.5 -171.5t343 -267.5t267 -344.5t172.5 -408t64.5 -453h-327q0 187 -50 366t-139.5 329.5t-217.5 277.5t-279 215.5t-329 138t-364 49.5z" />
<glyph unicode="g" horiz-adv-x="1835" d="M61 2v72q0 6 2 13.5t23.5 28t60.5 36.5q1 1 21.5 13t36.5 20.5t40.5 20t49 19.5t45.5 11q-30 33 -59 110q-9 24 -9 82q0 2 -1 23.5t-0.5 37.5t3.5 23q21 90 129 90t132 -90q3 -7 3.5 -23t-0.5 -37.5t-1 -23.5q0 -58 -9 -82q-26 -69 -49 -98q-34 -20 -57.5 -44 t-33.5 -45.5t-13.5 -35t-3.5 -23.5v-2v-96h-310zM444 2v96q0 2 0.5 6.5t7 17.5t18 26t36 30t57.5 31q23 11 60 33q114 63 204 80q-33 39 -79 151q-4 8 -6.5 18t-4 17.5t-2 20t-0.5 18.5v21v20t-1 33t-0.5 49t3.5 32q34 125 176 125q146 0 183 -125q3 -11 3.5 -32t-0.5 -49 t-1 -33q0 -78 -13 -115q-46 -114 -81 -151q52 -8 106 -31q30 -12 102 -49q15 -8 29 -16t21.5 -12t9.5 -5q95 -42 119 -105v-6v-96h-947zM1294 455v22v10q0 13 4 25q24 90 132 90q107 0 131 -90q2 -8 2 -24t-1 -35.5t-1 -24.5q0 -58 -9 -82q-29 -77 -59 -110q34 -3 75.5 -20 t79.5 -39t40 -23q36 -16 59 -36t25 -32l2 -12v-72h-310v96v2q-9 88 -112 150q-27 45 -45 96q-11 29 -11 82q0 13 -2 27z" />
<glyph unicode="h" horiz-adv-x="1843" d="M61 575q0 147 54 295q11 25 33.5 41.5t46.5 16.5q2 0 22 -4l12 -2q57 113 147 202t202 144l-5 14q-7 32 8 61t46 41q146 52 295 52t297 -54q31 -10 46 -39t7 -61l-4 -14q232 -118 348 -346l12 2q20 4 23 4q26 0 49.5 -16.5t30.5 -41.5q51 -134 51 -295q0 -160 -51 -294 q-8 -25 -30.5 -41.5t-51.5 -16.5q-15 0 -21 2l-14 4q-55 -112 -144 -200.5t-202 -145.5l4 -14q8 -32 -7 -61t-46 -41q-146 -52 -295 -52q-151 0 -297 52q-31 12 -46 41t-8 61l5 14q-111 56 -202 145.5t-147 200.5l-14 -4q-4 -2 -20 -2q-24 0 -46.5 16.5t-33.5 41.5 q-54 148 -54 294zM147 575q0 -127 48 -266l337 84q-40 87 -40 182q0 96 43 183l-340 84q-48 -142 -48 -267zM578 319q38 -51 90 -90q13 23 34 35q13 8 37 8q26 0 37 -8q65 -33 148 -33q80 0 145 33q11 8 37 8q24 0 37 -8q27 -17 35 -33q48 33 90 88q-23 13 -35 37 q-6 16 -6.5 34t6.5 40q33 62 33 145q0 81 -33 146q-8 18 -7.5 36.5t7.5 37.5q16 25 35 36q-44 57 -90 89q-15 -25 -35 -33q-13 -8 -37 -8q-26 0 -37 8q-65 33 -147 33q-81 0 -146 -33q-11 -8 -37 -8q-24 0 -37 8q-22 13 -34 33q-46 -32 -90 -89q23 -16 34 -36q8 -18 8 -36.5 t-8 -37.5q-34 -69 -34 -146q0 -80 32 -145q7 -19 7 -37.5t-7 -36.5q-9 -24 -32 -37zM657 -152q124 -47 267 -47q140 0 264 47l-82 338q-85 -41 -183 -41t-184 41zM657 1303l82 -338q87 41 183 41q97 0 184 -41l82 338q-124 47 -266 47q-141 0 -265 -47zM1311 393l338 -84 q47 127 47 266q0 142 -45 267l-340 -84q41 -84 41 -183q0 -98 -41 -182z" />
<glyph unicode="i" horiz-adv-x="1843" d="M61 571v18q-1 161 65 313q70 160 188 278q118 116 278 186q152 66 312 66h18q176 0 335.5 -68.5t274 -184t182.5 -275t68 -333.5q0 -176 -68 -335t-183 -274t-274 -183t-335 -68q-174 0 -333.5 68t-275 182.5t-184 274t-68.5 335.5zM686 627l33 -92l12 8q30 26 62 47 q48 32 51 33q0 -13 -6 -43l-88 -373q-13 -73 -13 -123t21 -74q17 -20 53 -20q48 0 143 59q98 58 183 152l6 6l-4 8l-37 78l-10 -8q-34 -34 -70 -58q-39 -26 -51 -30v10q0 14 6 41l94 385q12 53 12 117q0 37 -12 61q-16 25 -45 25q-48 0 -145 -60q-107 -66 -189 -143z M895 1028q0 -52 27.5 -83.5t74.5 -31.5h2q59 0 99.5 42t40.5 100q0 45 -27 75q-35 35 -80 35q-60 -1 -98.5 -43t-38.5 -94z" />
<glyph unicode="j" horiz-adv-x="1828" d="M61 844q0 16 11 88q25 94 92 164l131 129q104 104 252 104q149 0 250 -104l157 -156l97 -98l67 -68q84 -85 99 -186q6 -30 6 -64q0 -13 -9 -71q-6 -18 -6 -25q-10 -34 -26 -70l-2 -2q-4 -11 -11 -18l-2 -4l-2 -2l-10 -15l-4 -6q-8 -8 -10 -14l-2 -2l-4 -4q-2 -4 -17 -19 l-57 -57l-8 10l-117 115q0 2 -5.5 14t-6.5 13l51 51l14 16q2 2 2 4v2l8 13l5 6l6 14v2q0 2 2 4q6 21 6 45q0 34 -14 66q-10 16 -29 41l-117 117l-80 79l-125 125q-43 43 -106.5 43t-106.5 -43l-131 -131q-25 -25 -37 -59q-6 -21 -6 -47q0 -22 6 -43q9 -39 37 -64l201 -200 q-2 -8 -2 -35q0 -49 8 -82q21 -131 119 -238q-82 25 -146 86l-4 4l-321 322q-38 38 -60 80q0 2 -2 2v2l-2 2v2q-39 74 -39 162zM608 498q0 34 6 71q0 3 3.5 12.5t3.5 12.5q11 38 28 70v2q4 12 10 18l3 4l2 2l10 15v2l4 4l12 14v2l4 4l17 19l57 57l8 -10l117 -115 q4 -4 6 -13.5t6 -13.5l-51 -51l-14 -16q0 -2 -2 -4v-2q-7 -7 -9 -13l-4 -6q-4 -4 -4 -14l-2 -2v-4q-8 -16 -8 -45q0 -34 14 -66q10 -16 29 -41l117 -117l82 -79l123 -125q43 -43 106 -43q67 0 107 43l131 131q24 24 36 59q7 28 7 47q0 15 -7 43q-10 44 -36 64l-201 200 q2 8 2 35q0 41 -6 82q-23 132 -121 238q80 -21 145 -86l4 -4l322 -322q39 -39 59 -80q0 -2 2 -2v-2l3 -2v-2q38 -66 38 -162q0 -30 -10 -88q-25 -94 -92 -164l-131 -129q-104 -104 -252 -104q-149 0 -250 104l-158 156l-96 98l-67 68q-78 78 -99 186q-4 54 -4 64z" />
<glyph unicode="k" d="M61 819q0 117 35 203t96.5 134t134 70.5t158.5 22.5q49 0 103 -18.5t97 -44t87.5 -61t70.5 -60.5t50 -51l22 -27q20 29 86 90q41 38 97 80q54 39 120.5 65.5t124.5 26.5q86 0 159 -22.5t134.5 -70.5t97 -134t35.5 -203q0 -62 -21.5 -129t-54.5 -121t-61.5 -91.5 t-52.5 -61.5l-23 -23l-641 -639l-641 639q-17 12 -73 84q-41 51 -66 94q-31 50 -52.5 119t-21.5 129z" />
<glyph unicode="l" horiz-adv-x="1935" d="M59 -41v305h306v-305h-306zM59 367v305h306v-305h-306zM59 774v305h306v-305h-306zM152 51h120v121h-120v-121zM152 459h120v121h-120v-121zM152 866h120v121h-120v-121zM471 -41v305h1415v-305h-1415zM471 367v305h1415v-305h-1415zM471 774v305h1415v-305h-1415z" />
<glyph unicode="m" horiz-adv-x="1665" d="M61 -109q0 106 95 183q94 76 227 76q67 0 141 -27v1051h4l897 212l179 44v-170v-1053q0 -105 -97 -180q-95 -74 -225 -74q-133 0 -227 76t-94 182t94 182t227 76q70 0 143 -27v631l-720 -172v-1014q-3 -107 -97 -180q-94 -76 -225 -76t-227 78q-95 77 -95 182z" />
<glyph unicode="n" horiz-adv-x="1617" d="M178 1077q0 152 97 251.5t260 105.5h786v-1717h-287v1573h-141v-1573h-289v1008q-36 -8 -76 -8q-69 0 -131 26q-99 42 -159 132t-60 202z" />
<glyph unicode="o" d="M61 -10v1075q0 23 14.5 37t37.5 14h77l60 121q7 19 29 32t45 13h323q23 0 45 -13t29 -32l57 -121h940q23 0 37 -14t14 -37v-1075q0 -23 -14 -37t-37 -14h-1605q-23 0 -37.5 14t-14.5 37z" />
<glyph unicode="p" horiz-adv-x="1841" d="M61 -283l150 465l942 942l313 -313l-942 -942zM375 184l53 -51l776 776l-51 54zM1260 1231l204 205l316 -314l-207 -204z" />
<glyph unicode="q" horiz-adv-x="1832" d="M61 586v485q0 104 74 178q76 76 180 76h863q105 0 178 -76q74 -74 74 -178v-485q0 -106 -74 -180t-178 -74h-611q-97 -97 -200.5 -145t-188.5 -48q-60 0 -69 19q-3 8 6 14q98 74 135 168q-83 24 -136 91.5t-53 154.5zM498 131q69 45 114 88h566q151 0 258 107 q108 108 108 260v481q96 -7 162 -80t66 -172v-487q0 -85 -53 -152.5t-136 -91.5q31 -92 135 -168q19 -15 -10 -25q-23 -10 -53 -10q-33 0 -96 17q-157 41 -291 178h-613q-87 0 -157 55z" />
<glyph unicode="r" d="M61 141l351 353v-236v-12h991q32 0 55 23.5t23 54.5v245l49 49l186 187v-533q0 -262 -262 -262h-1042v-221zM115 418v532q0 260 262 260h1042v222l350 -351l-350 -352v236v12h-991q-32 0 -55 -24t-23 -56v-244l-49 -49z" />
<glyph unicode="s" horiz-adv-x="1800" d="M76 924q40 198 172 325q132 133 324 172q65 13 130 13q125 0 246 -50q174 -71 282.5 -231.5t108.5 -355.5q0 -183 -96 -338l449 -451q47 -47 47 -110q0 -61 -41 -99q-39 -39 -96 -39q-66 0 -113 47l-449 449q-148 -98 -340 -98q-196 0 -354.5 107.5t-234.5 283.5 q-49 116 -49 240q0 66 14 135zM344 797q0 -147 105 -252t251 -105q147 0 252 105t105 252t-105 252q-104 104 -252 104q-147 0 -251 -104q-105 -105 -105 -252z" />
<glyph unicode="t" horiz-adv-x="1841" d="M61 573v18q-1 160 65 312q70 160 188 277q118 116 278 186q154 67 316 66h14q174 0 333 -68t274 -183.5t183 -274.5t68 -333q0 -176 -68 -335.5t-183 -274t-274 -182.5t-333 -68t-333.5 68t-275 182.5t-184 274t-68.5 335.5zM276 573v-17q0 -94 30 -185q32 -99 93 -179 t142 -141t180 -93q93 -30 189 -30h12h14q120 0 233 48q120 52 207.5 139.5t139.5 208.5q49 114 49 235v14v14q0 120 -49 233q-52 120 -139.5 208t-207.5 140q-113 49 -233 49h-14q-174 0 -323 -87t-236 -235.5t-87 -321.5zM831 539v467q0 13 11 24q13 10 26 10h95 q13 0 23.5 -10t10.5 -24v-396l340 -229q12 -9 15 -23q2 -2 2 -8q0 -9 -6 -18l-50 -80q-10 -13 -22 -16h-8q-12 0 -21 6l-395 264q-6 6 -10 6q-11 18 -11 27z" />
<glyph unicode="u" horiz-adv-x="1832" d="M61 -86v1378h1711v-1378h-1711zM205 57h1423v1094h-1423v-1094zM310 235.5q0 37.5 26 63.5t63 26t62 -26q26 -26 26 -63.5t-26 -63.5q-25 -25 -62 -25t-63 25q-26 26 -26 63.5zM310 972q0 37 26 62q26 26 63 26t62 -26q26 -25 26 -62t-26 -63q-25 -26 -62 -26t-63 26 t-26 63zM686 270v666h467v-666h-467zM807 371h223v241h-223v-241zM1346 235.5q0 37.5 26 63.5t63 26t62 -26q26 -26 26 -63.5t-26 -63.5q-25 -25 -62 -25t-63 25q-26 26 -26 63.5zM1346 972q0 37 26 62q26 26 63 26t62 -26q26 -25 26 -62t-26 -63q-25 -26 -62 -26t-63 26 t-26 63z" />
<glyph unicode="v" horiz-adv-x="1835" d="M61 125v967q0 21 14.5 35t37.5 14h354q0 2 2 2l47 98q7 18 30 31.5t44 13.5h653q23 0 45 -13t29 -32l49 -98v-2h356q23 0 37.5 -14t14.5 -35v-967q0 -23 -14.5 -37t-37.5 -14h-1609q-23 0 -37.5 14t-14.5 37zM547 614q0 -156 106 -262t262 -106q157 0 263 106 q108 108 108 262q0 155 -108 263t-263 108q-152 0 -260 -108t-108 -263z" />
<glyph unicode="w" d="M61 690q0 100 41 203q76 197 274.5 334.5t459.5 167.5q55 8 120 7q172 0 318 -50q205 -70 336 -213q134 -146 155 -326q4 -46 4 -65q-3 -150 -79 -287q-98 -169 -283 -281.5t-414 -136.5q-54 -6 -115.5 -6.5t-129.5 6.5q-164 -170 -359 -211q-52 -10 -84 -10 q-34 0 -61 10q-28 13 -8 27q163 126 163 272v25q-142 80 -228 200.5t-105 266.5q-5 57 -5 67z" />
<glyph unicode="x" horiz-adv-x="1832" d="M61 1065q0 2 35 37q73 -73 78 -80q53 -50 66 -57l28 -13q10 -2 17 -2q6 2 49 2q59 0 133 74q76 73 76 135v23v6q0 44 -13 63q-9 16 -90 97l-47 47q34 37 37 37h2q99 0 191 -56q92 -57 148 -150.5t56 -191.5q0 -59 -32 -116l157 -160l-200 -201q-5 0 -33 -4l-146 143 q-65 -30 -114 -30h-12l-178 54q-95 58 -153 154q-55 88 -55 177v12zM236 -76q0 35 24 56q6 3 12 12l414 414q9 6 12 12q22 22 58 22q18 0 39 -6l397 397q7 6 17.5 24t15.5 32q10 20 10 41q0 24 -12 51q-35 63 -123 78h-2q-23 0 -60 26l-16 15q-3 4 -11.5 12t-16.5 16l-9 7 l-12 12q-36 36 -39 47q-6 16 29 51l6 8l147 150q35 35 53 35q13 0 54 -41l12 -13q68 -64 76 -100q9 -42 49 -94q4 -5 37.5 -8.5t38.5 -8.5l243 -243q53 -53 74 -135q19 -71 19 -131q0 -18 -3 -33q-15 -198 -45 -275l-14 -45l-108 105q1 6 1.5 15.5t0.5 38.5t-2.5 57.5 t-11.5 65.5t-23 68.5t-39 61.5t-58 49h-6q-21 0 -69 -45l-447 -444q6 -21 6 -39q0 -36 -22 -58l-14 -12q-326 -329 -412 -412l-12 -14q-22 -22 -60 -22q-62 0 -121 58.5t-75 123.5q-2 6 -2 18zM1069 205q4 28 4 33l201 200l285 -284l192 -142l21 -78l-213 -213l-76 21 l-144 192zM1450 -45q0 -37 25.5 -62.5t62.5 -25.5q38 0 64 25.5t26 62.5q0 38 -26 64t-64 26q-37 0 -62.5 -26t-25.5 -64z" />
<glyph unicode="y" horiz-adv-x="1828" d="M61 483v199q0 19 12.5 34t32.5 19l254 47q19 5 25 17.5t-4 29.5l-148 218q-10 18 -7 37t16 32l139 139q14 14 34.5 16.5t37.5 -7.5l215 -148q13 -8 29.5 -2.5t17.5 23.5l47 254q5 19 20 32t33 13h199q19 0 35.5 -13.5t17.5 -31.5l47 -254q1 -18 17.5 -23.5t29.5 2.5 l217 148q14 10 35 7.5t35 -16.5l139 -139q15 -15 15 -37q0 -14 -7 -32l-147 -218q-10 -17 -4.5 -29.5t24.5 -17.5l254 -47q19 -5 32 -20t13 -33v-199q0 -19 -13.5 -35.5t-31.5 -17.5l-254 -47q-18 -1 -24.5 -16.5t4.5 -28.5l147 -217q8 -13 6 -36.5t-14 -35.5l-139 -139 q-12 -12 -34 -14t-36 8l-217 145q-13 11 -29.5 5.5t-17.5 -23.5l-47 -256q-1 -18 -17.5 -31.5t-35.5 -13.5h-199q-18 0 -33 13t-20 32l-47 256q-1 18 -17.5 23.5t-29.5 -5.5l-215 -145q-17 -10 -38.5 -8t-33.5 14l-139 139q-12 12 -15.5 35t6.5 37l148 217q11 13 4 28.5 t-25 16.5l-254 47q-20 1 -32.5 17t-12.5 36zM606 582q0 -127 90 -217q91 -91 217 -91q129 0 220 91q90 90 90 217q0 129 -90 219t-220 90q-127 0 -217 -90t-90 -219z" />
<glyph unicode="z" horiz-adv-x="1509" d="M63 1241v6q0 15 7 33q10 23 22 35l88 90q30 27 70 27h6l387 -35q44 -3 74 -37l717 -715q14 -12 14 -31.5t-14 -31.5l-521 -523q-15 -12 -32 -12q-19 0 -31 12l-717 717q-32 32 -35 76zM82 666l686 -686q48 -48 113 -48q64 0 112 48l361 360l80 -80q14 -14 14 -32t-14 -31 l-521 -521q-13 -14 -31 -14t-32 14l-717 717q-13 13 -24 34.5t-11 39.5zM200 1196q0 -42 29 -68q26 -26 68.5 -26t67.5 26q29 26 29 68t-29 68q-26 29 -68 29t-68 -29q-29 -26 -29 -68z" />
<glyph unicode="{" horiz-adv-x="1638" d="M61 612l758 877l758 -877h-569v-835h-379v835h-568z" />
<glyph unicode="|" horiz-adv-x="1832" d="M61 645v500q0 119 82 201q84 84 203 84h713q117 0 201 -84q83 -83 83 -201v-215h-213v215q0 29 -21 50.5t-50 21.5h-713q-29 0 -50.5 -21.5t-21.5 -50.5v-500q0 -29 21.5 -50.5t50.5 -21.5h6q-6 -35 -6 -71v-142q-121 0 -203 82t-82 203zM489 4v498q0 121 82 203 q83 83 203 83h713q118 0 201 -83q84 -84 84 -203v-498q0 -119 -84 -203t-201 -84h-713q-119 0 -203 84q-82 82 -82 203zM702 4q0 -31 20.5 -51.5t51.5 -20.5h713q29 0 49 20.5t20 51.5v498q0 31 -20 51t-49 20h-713q-31 0 -51.5 -20t-20.5 -51v-498z" />
<glyph unicode="}" horiz-adv-x="1638" d="M61 616h568v838h379v-838h569l-758 -874z" />
<glyph unicode="~" horiz-adv-x="1843" d="M61.5 571q1.5 172 68.5 335t183 274q171 178 438 233.5t504 -51.5q235 -94 380.5 -311t146.5 -480q0 -176 -68 -335t-183 -274t-274 -183t-335 -68q-263 1 -479 146t-314 379q-69 163 -67.5 335zM573 70h297l-79 -80h258l-80 80h297v475h-340l297 342h-230v276h-153v-276 h-230l295 -342h-332v-475zM662 156v303h518v-303h-518z" />
<glyph unicode="&#xa1;" horiz-adv-x="1224" d="M59 -178v1077l2 107l328 327h105h663v-1511h-1098zM184 -53h850v1263h-540v-311h-310v-952zM246 455h270v362h186v-362h271l-365 -383z" />
<glyph unicode="&#xa2;" horiz-adv-x="1232" d="M61 2v305h306v-305h-306zM61 408v305h306v-305h-306zM61 815v305h306v-305h-306zM467 2v305h305v-305h-305zM467 408v305h305v-305h-305zM467 815v305h305v-305h-305zM874 2v305h304v-305h-304zM874 408v305h304v-305h-304zM874 815v305h304v-305h-304z" />
<glyph unicode="&#xa3;" horiz-adv-x="1705" d="M29 1112v21q3 38 30 65l250 250q12 10 24.5 8t20.5 -16l201 -379q6 -13 3 -33.5t-13 -30.5l-92 -92q-29 -29 -29 -65q-2 0 0.5 -16t16 -50t38.5 -78t77.5 -111t123.5 -139q139 -139 248 -202q93 -49 129 -49l14 -2q40 0 68 28l106 107q10 12 30 15t32 -5l366 -215 q14 -8 16 -21t-10 -24l-249 -250q-24 -24 -66 -33q-6 -2 -23 -2q-57 0 -161 23q-56 13 -133 45q-166 67 -349 211q-154 121 -304 288.5t-220 294.5q-87 155 -119 276t-26 181zM780 807v100q129 -15 224 -110q93 -90 108 -222h-102q-18 84 -82 148q-63 63 -148 84zM780 1063 v121q156 -7 293 -92t222 -223t94 -294h-119q-18 194 -158 334q-139 139 -332 154zM780 1341v117q135 -2 267 -49.5t241.5 -131.5t194 -193t132.5 -241t50 -268h-119q-14 204 -118 375t-274.5 275.5t-373.5 115.5z" />
<glyph unicode="&#xa5;" horiz-adv-x="1470" d="M35 598q0 100 69.5 170t169.5 70q83 0 154 -56l541 285v6q0 100 69.5 170t169.5 70q96 0 168 -72t72 -168q0 -98 -72 -170q-69 -69 -168 -69q-92 0 -157 59l-539 -283q4 -12 0 -24l539 -283q65 59 157 59q97 0 168 -71q72 -72 72 -168t-72 -168t-168 -72 q-100 0 -169.5 70t-69.5 170v6l-541 287q-67 -58 -154 -58q-100 0 -170 70q-69 69 -69 170z" />
<glyph unicode="&#xa6;" horiz-adv-x="933" d="M61 428h811l-405 -506zM61 733l406 508l405 -508h-811z" />
<glyph unicode="&#xa7;" horiz-adv-x="1808" d="M39 571q0 141 44 273.5t124 239t186.5 187t238 124t271.5 43.5q267 -3 485 -148t312 -383q70 -163 69 -335.5t-68.5 -336t-184.5 -274.5q-111 -117 -275 -184.5t-337.5 -68.5t-336.5 69q-236 100 -382 315t-146 479zM666 924l36 -140l136 33v-469h-160v-143h489v143h-159 v643h-117z" />
<glyph unicode="&#xa8;" horiz-adv-x="2693" d="M43 506v334q0 31 24 55.5t56 24.5q16 0 98 -29q77 -27 121 -27q54 0 133 29q68 37 94 27h6q32 0 58 -24.5t26 -55.5v-334q0 -30 -25 -55t-59 -25q-4 -126 -8 -190l-16 -238l-14 -193h-371q-33 387 -43 621q-31 0 -55.5 26t-24.5 54zM104 1190q0 100 70 170q72 72 168 72 q100 0 170 -71t70 -171q0 -98 -70 -168q-67 -70 -170 -70q-98 0 -168 70t-70 168zM635 223q12 30 63 170q22 59 45.5 118.5t32.5 84.5q21 54 25 76t4 65q-30 0 -55 25t-25 55v23q0 37 28.5 58.5t73.5 21.5q86 -56 170 -56q89 0 166 56q105 0 105 -80v-23q0 -26 -12.5 -43 t-27.5 -22.5t-27.5 -15t-12.5 -23.5q0 -39 20 -103l29 -75q10 -23 119 -312h-203l-10 -203q-5 -141 -13 -215h-268q-5 60 -22 418h-205zM758 1190q0 100 70 171t169 71q96 0 168 -72t72 -170t-70 -168t-170 -70t-170 70q-69 69 -69 168zM1335 506v334q0 31 26 55.5t58 24.5 q20 0 99 -29q74 -27 118 -27q68 0 131 29q63 37 99 27h6q32 0 56 -24.5t24 -55.5v-334q0 -32 -24.5 -56t-55.5 -24q-11 -256 -43 -621h-371l-10 121l-10 131l-8 117q-11 176 -11 252q-35 0 -59.5 24.5t-24.5 55.5zM1395 1190q0 101 69 170q72 72 172 72q94 0 166 -72 t72 -170t-70 -168t-168 -70q-97 0 -170 70q-71 71 -71 168zM1931 223q19 56 82 223q42 113 55 142q31 84 31 131q0 7 -20.5 21t-41 34.5t-20.5 42.5v23q0 37 29.5 58.5t75.5 21.5q77 -56 168 -56q81 0 170 56q45 0 73.5 -21.5t28.5 -58.5v-23q0 -25 -12.5 -41.5t-27.5 -23 t-27.5 -17.5t-12.5 -26q0 -37 21 -101q6 -14 15 -41t13 -37q10 -23 28 -69.5t45 -120t44 -117.5h-203q-7 -220 -20 -418h-271q-10 119 -20 418h-203zM2054 1190q0 100 70 170q72 72 166 72q98 0 170 -72q71 -71 71 -170q0 -97 -71 -168q-70 -70 -170 -70q-98 0 -168 70 q-68 71 -68 168z" />
<glyph unicode="&#xab;" horiz-adv-x="1730" d="M27 242q0 69 41.5 124t107.5 74q103 255 274 380.5t420 125.5q135 0 250 -41t196.5 -110.5t136.5 -145.5t93 -162l152 170l-45 -620l-465 354l192 29q-86 171 -218.5 262.5t-293.5 91.5q-93 0 -174 -31t-141 -85t-104.5 -121t-75.5 -146q63 -63 63 -149q0 -85 -60.5 -145 t-146.5 -60q-84 0 -143 60t-59 145zM647 242q0 86 60 145t145 59q87 0 147 -59t60 -145q0 -85 -60.5 -145t-146.5 -60q-85 0 -145 60t-60 145z" />
<glyph unicode="&#xad;" horiz-adv-x="1845" d="M61 565q0 176 68.5 336t184 276t275 184.5t335.5 68.5t335 -68.5t274 -184.5t183 -276t68 -336q0 -174 -68 -332.5t-182.5 -274.5t-274.5 -184.5t-335 -68.5q-141 0 -272.5 44t-237.5 123.5t-186 185.5t-123.5 237t-43.5 270zM438 528q0 -40 29 -68t68 -28h770 q41 0 68.5 27.5t27.5 68.5v80q0 39 -28 68t-68 29h-770q-38 0 -67.5 -29.5t-29.5 -67.5v-80z" />
<glyph unicode="&#xb0;" horiz-adv-x="2265" d="M53 657v2q5 0 8 3q6 3 13 10q2 2 8 2q2 0 2 4q4 0 6 2q6 5 23 16l10 9q8 8 8 12v4q0 2 4 6q-2 2 -4 2q-9 -6 -10 -6q-2 2 -4 2q-6 -2 -8 -2q-7 0 -7 6q2 8 2 10t-2 2l-8 -2q-6 0 -12 13l-4 12v4q1 1 4 3q3 3 2 5v2q0 2 2 4t4 2q4 -2 6 -2q2 4 2 9q11 0 11 6q0 5 -5 10 q-2 0 -6 -4q0 -2 -4 -2q-10 0 -16 6q0 2 -2 4l-2 2l-6 6v2q7 0 22 15q11 -11 12 -11l2 6q0 9 -2 11q-6 0 -6 2l-4 4l-2 4q-2 2 -6 5t-7 5.5t-3 3.5q0 4 7 8.5t9 4.5l4 9q4 8 8 9q7 2 7 4l12 8q0 -2 2 -2l14 8q6 0 10 -4q3 -3 3 -8h4q-2 2 0 5t6 3q3 2 8 -10q1 5 7.5 0.5 t12.5 -4.5q2 2 7 2l8 -6q11 5 18 -2q17 0 21 -4q3 -1 10 -9t10 -8l4 4l-2 9q0 2 3 2q5 -1 5 -11q4 -4 9 -4q13 23 14 23t4 -1t4 -1q6 0 6 6q-4 8 0 8t13 -20l8 14q5 -23 14 -8l29 -17h12q8 -5 8 -8q-9 -9 -7 -10.5t11 -1.5h4h9l6 4q2 0 6 -4q2 0 5 -9t5 -9q1 0 3.5 3t2.5 5 l2 2q0 1 -3 6t-3 6l8 10q1 0 8.5 -5t8.5 -5q16 -4 24 -4h4v2v6q0 3 9 6l4 -6l-2 -8l6 -8h4q0 1 -1 5t-1 5q10 10 10 14v11l2 4l-16 14q3 9 0 19v2q8 11 8 18q-2 8 -2 10l2 17l-2 6q0 8 14 8h19v-2q-9 -6 -9 -8q-2 -9 -6 -23q0 2 -4 6h-4l-8 -4l8 -8q0 -1 -4 -6t-4 -6 q0 -5 7 -16l7 -11q0 -1 -2 -5t-2 -5q0 -3 7.5 -5.5t7.5 -6.5q-3 -7 -1 -12t5 -5q4 8 4 19h2q6 -6 6 -9l-2 -12q0 -12 8 -12q6 9 6 14q0 2 10 12q-6 6 -6 9l2 8q0 4 -11.5 11t-14.5 7q10 0 14 4l-5 3q-5 2 -9 5t-4 7v16l10 23q4 4 8 4h14q-14 -14 -14 -23q1 -2 0.5 -9 t5.5 -24q0 -4 8 -4q2 2 2 13q-2 4 -2 8q2 2 2 3.5v2t-2 4t-4 6.5q0 4 17 17l4 4q6 -21 6 -23q0 -3 -1 -7.5t-1 -6.5t2 -2q6 6 6 10l6 -8q1 0 2 2.5t2 5.5t2 4l6 6q-1 1 -3 2q-3 1 -3 2q-6 3 -14 11h8q15 0 15 -9q-4 -6 6 -18q2 0 2 -10q5 -10 9.5 -9t6.5 11q6 -6 6 -12 q-8 0 -8 -7q0 -6 12 -6l4 2q1 0 4.5 -3t4.5 -3q-9 -3 -9 -6l5 -2l8 4q4 0 6 -2q0 -1 -5.5 -3.5t-4.5 -8.5q0 -6 22 -25l23 -20q-6 -7 -6 -9l-5 -20l-8 10l-2 6q-4 13 -14 13h-2v-7q3 -17 6 -20l18 -18l-8 -7q0 -1 2 -5t2 -5v-2l-26 23l-2 -2q0 -2 7 -12t11 -11q-17 3 -20 6 h-9q-1 1 -3 5.5t-5 8t-6 3.5q0 2 -2 4q0 2 -2.5 6t-3.5 4q-4 0 -21 -10h-4l8 22h5q16 -3 16 0q-2 2 -2 10q0 7 4 7q3 0 9 -6.5t7 -6.5q7 0 7 9l2 2q0 6 -21 6l-4 10q0 6 -2 6q-26 45 -31 45q-6 0 -6 -12h-2l-2 4q-2 4 -6 4q-12 0 -21 -6q0 -1 9.5 -7t9.5 -9l-4 -15l2 -12v-8 q-3 -1 -4.5 -5t-2 -8t-1.5 -4q0 -2 -2 -3.5t-4 -1.5l-1 -1l15 -12q8 -8 10 -14h-4q-8 8 -14 8q-2 0 -3.5 -3t-3.5 -7.5t-4 -6.5q-9 9 -12 9q0 1 2 8t2 8q0 2 -2 2q-3 0 -3.5 -1t-1.5 -4t-3 -5q0 -1 -3 -2t-6.5 -3t-4.5 -5v-7q-29 -29 -29 -51q0 -9 3.5 -21t8.5 -12 q6 15 6 17h4q3 14 11 14q11 0 17 -6.5t11 -17.5t11 -17l4 -4q6 -6 6 -10q-4 -4 -4 -6l4 -4q-2 1 -3 -2q0 -9 12 -19q2 -1 3 -2q6 0 6 10v4l-2 9v14q17 17 17 29q0 8 -7.5 16t-7.5 10q8 6 8 8q-3 3 -3.5 9.5t1.5 7.5v10q-1 3 0.5 4.5t6.5 1.5q6 0 10 -4l2 4h4q4 0 12 -14 l9 -4q8 -4 8 -8v-17l10 -10q10 0 14 18l4 7q5 -5 12 -19t7 -18l-2 -4q0 -3 12 -21q12 0 12 -6q0 -1 -7 -6t-7 -6v-2l6 4t5 3t3 2t2 1q2 0 7.5 -4t5.5 -8l-2 -7q3 -8 -5 -22l13 -9q12 -10 12 -16q0 -10 -6 -10l-6 6q-3 -10 -6 -10q-6 0 -9 6l7 4l-10 2q-9 2 -9 6q8 25 8 27v4 h-2q-1 0 -9 -7t-9 -7q-8 2 -10 2h-5q1 -1 4 -3t5 -4t2 -3h-2q-3 0 -11 8q-12 4 -20 -4q4 -4 18 -4v-13h-2q-4 0 -4 -4v-6l2 -2l2 4l13 -8q3 0 6.5 3.5t3.5 6.5q1 0 1.5 -1.5t1.5 -4t3 -4.5v-2q-28 -14 -35 -21h-4v7q0 1 2 5t2 5q-8 -2 -20.5 -12.5t-12.5 -16.5q0 -1 3.5 -3 t3.5 -3q-22 -3 -25 -12q-4 -4 -8 -14.5t-4 -12.5l2 -6q0 -6 -6 -6q-13 -5 -27 -23q-2 -2 -2 -12q0 -2 4 -11.5t4 -17.5q0 -1 -1 -5t-1 -5q-4 0 -8 6t-4 8q0 9 -2 11q0 6 -6 6q-2 2 -17 2l-4 4h-8q-1 0 -5 -4t-7 -4q-5 2 -13 6h-6h-6q-14 -11 -16 -14q-2 0 -2 -3 q4 -14 -2 -20v-8q0 -15 2 -19q3 -16 20 -16h12q1 1 4.5 9t4.5 9q3 7 16 7q1 0 3 -1t3 -1q2 0 2 -3l-10 -24l6 -12l25 -11v-2l-2 -20q7 -7 16 -10l4 -2q-3 6 18 -3q4 0 8.5 5t4.5 10q4 4 12 4q6 2 10 6l4 -8l5 6h6h14q2 -2 2 -6q4 -2 6 -2q4 4 6 4q11 -6 13 -6l12 4v-2 q-4 -4 -4 -8q0 -3 20 -23v-14q3 -17 8 -17q1 4 7.5 4.5t7.5 -2.5q2 0 5 4.5t3 8.5l2 4l6 -12q6 -3 5 -10t-9 -13q0 -1 0.5 -1.5t4.5 0.5t11 5l3 -2l-3 -2q-2 -2 -2 -6v-2l2 -2l15 14q5 0 8 -6q2 -6 4 -8l4 4q4 -6 6 -6h21q8 -6 16 -9.5t9.5 -5.5t2 -4.5t0.5 -13.5 q0 -2 -2 -4t-6 -5t-6 -5q-6 -13 -10 -13v-6v-24q0 -13 -4 -17l-6 -6q0 -13 -9 -16h-6l-12 -6h-6q-11 -11 -14 -15v-2v-18l-9 -6l-4 -11l-18 -24q-4 -4 -8 -4h-9q-6 -3 -6 -6l6 -9q0 -8 -8 -16q-4 -2 -18 -2q-4 0 -8 -4q6 -16 -19 -19q0 -3 5 -6t5 -4t-5 -4t-5 -4 q-3 -3 0 -12q-14 0 -14 -9q0 -3 5 -9t5 -9q0 -2 -4 -6t-6 -4l2 -8l-12 -13q0 -1 3 -4t3 -4v-14q0 -2 4 -8t8 -7q4 -4 16 -4q-2 -2 -4 -2l-6 2q-6 0 -12 -14l-8 6q-11 0 -15 4q-4 0 -6 2v4q-22 25 -22 33l2 6q-3 16 4 39q0 2 -2 2q-4 0 -4 -8q-2 0 -2 4q5 6 4.5 14.5t3.5 8.5 l-4 8q0 1 4 5t4 7v23q4 4 4 6q0 1 -1 4t-1 4v4v4q10 27 10 35v10q0 9 4 13v2q0 4 -3 7l-3 3q4 0 6 -2l7 43v22q0 4 -5 9q-2 2 -20.5 11t-20.5 21q-4 15 -6 21q-1 3 -8.5 14t-7.5 12q0 3 4 11l2 4q0 1 -1 7t-1 7q0 4 12.5 20t12.5 19q-5 10 -5 12q-9 6 -12 6q-1 0 -6 -3 t-6 -3q-8 0 -23 15l-4 4l-6 8q0 2 -3.5 7t-4.5 5h-4q-5 0 -17 12l-4 3l-10 4l-4 4l-10 -8q-3 0 -15 6l-22 10q-21 9 -21 16l2 7q2 7 -6 10l-26 30q-5 10 -10 13l-3 6q-3 10 -6 10q-6 0 -6 -4q7 -11 19 -29q2 -6 6 -10q2 -6 10 -14v-2h-4q-4 10 -10 12.5t-6 5.5q0 5 -15 14 q2 2 2 7q0 2 -8 10q-1 1 -2 6t-2 6q-3 14 -10 17l-15 6q-5 5 -16.5 29t-11.5 30q0 3 4 17.5t4 17.5q0 7 -12 31q0 1 -6.5 7t-6.5 7t1 4t1 4q0 4 -7 17.5t-9 13.5q-4 4 -10 4q-20 14 -27 25q-1 1 -2 10t-2 10q-4 2 -8 2q0 1 -13.5 9.5t-15.5 8.5l-4 -2l-20 15q-5 0 -5 -15 l-4 2l-6 -4q-1 -1 -5.5 -5t-7.5 -7t-3 -6v-4q0 -10 -2 -12l-4 -2l-6 -7q-2 -2 -2 0l2 7q0 4 -5 4v4q6 0 12.5 9t6.5 15v4q3 13 10 13v6h-2q-5 0 -14 -12q0 -13 -6 -19q-1 -3 -6.5 -9t-6.5 -9l-16 -19q0 -2 -5 -0.5t-5 -1.5q0 -1 4 -5t4 -5h-2l-12 6q-1 0 -7 -6h-8 q-2 0 -10 -8q-8 0 -10 -2l-2 -2q2 -1 -0.5 -2.5t-6 -3.5t-4.5 -3q-2 0 -6 -4q-2 0 -2 2zM496 1053l8 4q6 0 16 -13q4 -2 15 -2q2 0 2 2q0 -7 -9 -10l4 -4q0 -5 6.5 -11.5t8.5 -6.5q3 0 6 6q3 -6 4 -6t2.5 0.5l4.5 1.5t5 2l6 8q0 -6 5 -6q9 6 10 5t12 -13q-6 -6 -6 -9l6 -6 q0 -1 -2 -3.5t-4 -2.5h-2q-8 0 -10 2q0 1 -4 1t-7 -1h-6q-4 -4 -6 -4l-16 6l-6 -2q-2 0 -4 2q-11 0 -11 15q4 14 -2 20v10l-2 2q-8 -8 -8 -10v-6v-10l4 -7q4 -7 4 -10q0 -7 -10 -5.5t-10 12.5v4q11 4 9 19.5t-13 25.5zM528 1217q0 7 13 10l4 2q0 6 4 6l2 -2l4 -4l6 2 q0 1 -3 5t-3 5q10 3 4 12q2 2 4 2q4 0 4 -10q0 -2 11 -6l10 -10q2 2 2 6q0 1 -5 7t-5 7q0 4 4 8q5 0 7 2t1 5l8 6q-4 4 -8 4q6 6 8 6l8 -8l13 -19h4v4q0 4 -7.5 12t-7.5 11q0 2 2 4h11q0 -14 14 -22l4 8q0 4 -6 10v4h6q0 -8 4 -8t4 8l29 -6q0 -1 -7 -6t-7 -6q0 -4 2 -4 q3 0 13 8t13 8q2 -10 4 -12q15 -15 15 -19q0 -5 -13 -18q-1 -1 -3.5 -2.5t-4.5 -3t-2 -2.5q-1 0 -3 -2t-3 -2q-9 -3 -18 -3q0 -2 -2 -2q6 -2 10 -6q-10 -5 -15 -10v-2h2q27 14 29 14h4q-3 -5 -16 -18t-14 -16l-5 -11l-8 -5q-8 -4 -8 -9q0 -2 6 -8v-2q-4 1 -8.5 4t-5.5 4 l-2 -2q6 -6 6 -8q0 -8 -5.5 -9t-10.5 2l-5 3q-4 -4 -3.5 -11t-4.5 -8l6 -4h2q0 4 2 6q19 0 3 -16q6 0 6 -4v-6h-11l2 -7l-12 -2l4 -8q0 -8 -10 -8q-2 0 -4 1t-2.5 1.5t-3 -1t-6.5 -5.5q0 -2 4 -2q2 4 22 -6l2 -2l-10 -17q-3 0 -7 4t-7 4q-3 -3 -12 0t-9 -4l-6 6 q-9 -7 -10.5 -6.5t-3.5 5t-6 4.5q8 8 18 14q-1 3 -5.5 8t-4.5 8v4q2 -2 10 -2q-2 -2 -2 -6q6 -11 14 -11.5t11 9.5l2 4v2q0 2 -2 2l-11 -6q-1 2 -2 4.5t-1.5 3.5t-0.5 2l4 9v4h-2q-1 0 -5 -1t-5 -1h-6l14 14l11 -6l12 6v2q2 0 2 2t-2 4l-6 2l-6 6l-5 11h-4q-4 0 -8 16v4 q4 6 4 8q0 -4 6 -4q4 -1 7.5 -9t3.5 -11q3 -9 12 -9q2 0 3 4.5t3 4.5v2q-1 0 -4 1t-4 1q0 3 -4.5 10.5t-5.5 9.5l8 3q8 3 12 3l2 2q-4 4 -4 7q0 4 16 4q2 2 5 2q-1 4 -5 4.5t-8 -0.5l-4 -2l8 16q0 6 -4 6l-4 -4l-4 -10q-2 -17 -14 -20v6h-2q-13 -9 -15 -9q-3 0 -6 3.5 t-4 3.5t-4 -1t-4 -1q-4 0 -4 4v4h2q1 0 5 -2t5 -2q4 0 4 6l2 2h8l7 4l-5 2l-10 -2q6 6 6 10l-8 -6q-4 -4 -8 -4h-8q0 -2 -2 -2h-4v4v6q8 8 8 12q0 2 -2 2q-2 -4 -8.5 -1.5t-8.5 -0.5zM578 408q0 4 5 7t7 3l6 -2q18 -3 29 -10l8 -9q-4 -4 -10 -4q-2 0 -14 7.5t-21 7.5 q-1 0 -3 -1t-3 -1q-2 0 -4 2zM646.5 1097q-0.5 5 2 7.5t8.5 5.5l7 2q2 0 2 4q12 0 16 4q14 13 14 15q0 4 -6 10q0 1 1.5 2t3.5 2t3 2q-4 4 -8 4q-1 0 -6 -2t-6 -2l-6 6v2q0 3 4 15l2 -5l24 29q4 -4 7 -4h6v2l-4 8q0 1 1 3t1 3q0 5 -6 11v2q3 1 5 3.5t5 2.5q5 0 11 -10.5 t7 -10.5l-14 25l14 8q4 0 17 10q3 -10 8 -10q2 0 2 2.5t-2 3.5h2q4 0 4 -12l10 -12l4 6q0 1 -4 6t-4 6q-2 2 -2 12q2 3 6 7l4 -5l2 2q0 3 2 3l2 -5q4 -4 5 -4q-7 0 -7 -4q0 -1 11 -12q2 0 10 -14l6 6l-6 6q0 1 0.5 2.5t1.5 5t2 6.5q6 -6 12 -6h4l-6 4l-4 4q-3 1 -8 10.5 t-8 10.5q0 2 2 2q16 0 22 -6l11 -15h2v6l-11 15q-4 4 -16 4v4v4h10v2q-2 4 -2 6l23 -22h6l-6 8h4v2q-4 4 -4 6q10 0 12 2q-3 6 -8 6v9q3 -3 4 -3h2v3l4 -3h4v3l-2 8q0 4 14 4q12 -2 37 -6q13 -9 15 -9q-3 -10 -15 -10l-14 2l-21 -8q-1 -1 -4 -1.5t-5.5 -2.5t-2.5 -6h2 q1 0 16.5 5t16.5 5q14 -4 16 -4q0 -1 4.5 2.5t8.5 7.5h2v-8q0 -1 -1 -6t-1 -6l8 4q5 0 10.5 -5t5.5 -9l-2 -7q-22 -16 -28 -16q-12 4 -13 4q-19 0 -33 -20v-2q2 -2 5 -2q1 0 15 8t15 8h15q4 -4 4 -6q1 -2 -3.5 -6.5l-8.5 -8.5l-5 -4h2q5 2 13 6q2 0 8 15q4 7 12 10 q2 -2 2 -14q0 -30 -16 -43v-4h4q12 0 12 24l12 19q7 -11 9 -11q4 0 10 11.5t10 11.5q1 0 11 -9.5t10 -11.5t-6.5 -9t-6.5 -9q-1 0 -5 -5t-5 -5h-8q-6 -6 -8 -6l-6 2q-5 0 -11 -9h4q3 2 6.5 3t6 1t2.5 -1h10q3 -1 3 -5t-2.5 -8t-6.5 -4q-2 0 -8 6q-1 0 -5 -6t-4 -8v-2h9l2 4 h4q0 -2 -5 -7t-5 -7l2 -15l-7 -4q-6 -6 -6 -10q4 -10 4 -12l-6 -9q-2 -2 -2 -8q0 -4 4 -4q7 0 11 4l-7 -10l7 -4q6 0 8 2q0 -20 -2 -20l-11 10q-4 0 -8 -7t-4 -10q0 -6 6 -6q1 -3 7 -10.5t6 -9.5v-2l-15 6q-1 -4 5 -14.5t8 -10.5q-17 -3 -17 -8q0 -2 1 -3t4 -3t5 -4 q2 0 2 -8h-6l-6 2q-4 -12 -4 -13h-6q-8 0 -10 -2l14 -14q14 -14 14 -22q0 -2 -4.5 -8.5t-5.5 -6.5q-4 0 -9 11l-5 12q-4 0 -4 -4q0 -3 4 -7q-12 -6 -12 -8q0 -4 2 -4h14q4 -4 10 -4q-4 -4 -24.5 -18.5t-22.5 -14.5q-4 0 -12 8v-4l4 -8q0 -5 -13 -19l-12 -14q0 5 -4 5 t-11 -8.5t-7 -10.5q0 -12 -4 -16l-6 -9q-7 -8 -7 -12q-6 -18 -8 -37h-2q-2 0 -6 11q-4 4 -8 4h-8q4 4 4 6q0 4 -12.5 20t-12.5 19t14 6v2q-14 3 -20 18q-6 12 -6 23q0 6 7.5 17t8.5 14l2 14q0 6 -8 6h-2q-2 0 -2 -2q4 -4 4 -8l-8 -10q0 3 -3.5 9.5t-4.5 8.5h10v2q0 6 -10 6 q3 6 6 6q1 0 6 -4t6 -4q4 0 4 4q0 5 -6 23q-9 3 -18 -6l-4 4q10 10 6 16q4 0 4 6q-7 11 -13 11q4 4 1 8t-8 16.5t-3 24.5q-22 22 -33 22l-8 -4q-7 -4 -12 -4q-13 0 -20 10l-5 11l-4 6v4l11 4q3 0 6 6l5 -1q5 -2 5 1v2q-4 4 -6 4l-17 -8h-2l4 4q-1 2 -4 7l-6 12t-2.5 9z M936 809l12 8q-17 0 -7 14q5 7 9 7q-1 -4 4.5 -7.5t8.5 -3.5q2 0 14 4l8 7q1 0 8.5 -8.5t7.5 -10.5q0 -5 -18 -18l-6 -6l-8 -2q-1 0 -10.5 2t-10.5 2q-2 0 -2 2l4 8q-2 2 -14 2zM979 350q10 35 10 45l-4 17l19 30q13 13 26 39q1 3 11.5 13.5t11.5 13.5q2 -2 4 -2h8 q14 0 16 2l13 6l45 6h4q2 0 10 -4q-4 0 -4 -6.5t3 -14t7 -10.5h15q1 0 4 -3t4 -3q11 -8 20 -8q1 0 8.5 8t8.5 8l16 -8q4 -4 6 -4q13 -3 23.5 0t19.5 -4q12 7 12 10v4q-1 1 1 7t4 12.5t2 7.5q0 4 -5 4q-2 -1 -4.5 -2t-3.5 -1.5t-2 -0.5t-5 2t-5 2q-24 -8 -29 -8q-4 0 -4 8 q2 6 2 8l-2 8v5l6 12h-2h-4q-10 -5 -10 -12q-6 6 -10 6l-2 -4l2 -11l-4 -8q-17 17 -17 31q0 4 -4 8q-20 12 -22 14l-15 17q-4 0 -4 -8q0 -3 4 -7q0 -1 2 -5t2 -5q4 0 17.5 -9t13.5 -11l-2 -4l-6 4h-2v-2q-1 -1 0.5 -2.5l2.5 -2.5t-1.5 -4.5t-9.5 -9.5h-2q-2 -6 -4 -6 q-5 2 -13 6q4 4 10 4q3 0 7 -4q4 12 4 13t-13.5 12t-13.5 12l-12 14q0 3 -4 3q-1 0 -9.5 -6.5t-9.5 -6.5q-9 6 -10 6q-6 0 -6 -8q2 -2 2 -4l-10 -6q-8 -8 -11 -14l-2 -7q0 -9 -8 -12q-2 -2 -14 -2q-6 -11 -19 2q-10 0 -10 4q-4 16 -4 17q0 6 1 14.5t1 13.5l6 4h15 q2 -2 12 -2q1 0 6 1t6 1q6 12 6 15q0 5 -3 9.5t-9 10t-10 10.5q0 3 2 3q1 0 7 -1.5t7 -1.5l-2 7q0 1 4.5 2l9 2t5.5 2q1 3 8 10t8 10q6 19 14 27v-8q2 0 8 6q3 15 3 20q0 12 12 21q0 -3 3 -9t7 -6l2 5q0 1 -1 5t-1 5q-4 4 -4 14q0 2 -2 2l-8 -7q-8 -7 -13 -7q-4 0 -10 10 t-6 12q2 2 2 4q0 3 -2 5v6q0 10 12 26t21 21l10 10v4v4q-1 4 9 20.5t10 18.5q0 4 -3 4q-4 0 -10 -6v-4q-2 4 -2 4.5t3 4t5 7.5l4 7q3 8 9 8q4 0 6 2q5 0 8 8q6 8 8 8h8l9 6q9 6 20 6q4 -2 6 -2h8q11 0 19 -8q0 -1 -3 -5t-3 -5q0 -4 4 -4q9 5 14 0q9 0 29 -14l12 -15 q0 -1 4 -5t4 -5q0 -6 -5 -13.5t-11 -7.5l-31 9q-2 0 -2 -2q-5 0 5 -7q5 -4 7 -2v-2l-4 -6q0 -2 4 -14q9 -4 9 -6l4 -4l4 8q0 1 -4 4t-4 4v4h4l8 -6q2 0 2 -2l2 -4q4 0 4 6l2 2q-4 6 -4 8q13 13 20 25v-10l7 -7l4 11q0 6 -2 8l-4 2q0 1 2 5t2 5t-0.5 2.5l-1.5 4.5t-2 5 q18 -3 18 -10q0 -1 -5 -5t-5 -5l8 -6q6 0 8 2q2 6 6 10q21 21 27 21h4v-5q0 -5 -6 -8q0 -4 4 -4q2 2 4 2q6 6 6 10q0 3 -2 5l2 2q1 0 5 -2t5 -2q0 -3 5 -3t8 9l2 -4l6 -7h2l2 2q0 6 -7 16l-7 11q0 2 2 4q0 -4 14 -10q10 0 14 -4l11 -12l22 -13v8q0 5 -12 17q-2 2 -2 12l-4 8 q10 15 12 17l6 28q6 7 8 7l2 2q7 -5 7 -7l-2 -2q0 -4 8 -4v-12q0 -4 -6 -10l6 -25l-2 -8v-10l4 -4l-2 -4l2 -13v-8l-6 -12q-4 -4 -19 -4l-2 -2v-2q8 -4 12 -4h7l8 6q0 2 4 2l2 2l2 8q0 2 1.5 3.5t2 3t-0.5 4.5t-5 7q5 6 10 7q-3 6 -12 6q-3 13 -0.5 19t-1.5 18q0 4 4 12 t4 16q0 1 1 4t1 4q2 -2 2 -10q0 -10 -2 -16l2 -2l3 10q3 9 7 10q23 -17 31 -20q2 0 2 -4q-2 -6 -2 -11q0 -12 6 -12l4 6q0 13 -2 17q-8 8 -8 12q-8 8 -8 12q0 13 -2 15q8 8 26 8q9 -4 11 -4l4 6q0 5 -4 11l-4 7q0 2 9.5 14t14.5 13q1 1 8.5 2t14 3.5t6.5 6.5v14q0 3 4 6t4 7 q2 -2 2 -10l4 -3q0 -2 -2 -2q-3 0 -8 5h-4q0 -3 4 -7v-4q0 -2 2 -2l4 2h2q2 0 2 -2l-2 -6v-2q10 0 10 8q0 4 -2 6h17q6 0 6 4l-6 15q0 12 22 12h10v-6l-4 -4q0 -3 6.5 -6t6.5 -4q-2 -5 -2 -11h2q2 -1 3.5 1t1.5 4l1 2h6q6 0 12 -3l2 -4l8 -8q3 -6 3 -18q0 -6 -5.5 -11.5 t-11.5 -7.5q-7 -7 -20 -24t-13 -21q0 -2 2 -2q19 17 27 21v6q0 2 4 6v-4q0 -4 4 -4q1 0 3 8t5 8q7 -3 7 -6l-2 -4q0 -10 24 -10l10 -8q4 -1 8.5 -2t7.5 -2t5 -1h6v2q-4 9 -4 11l2 2q1 0 6 -2t6 -2q23 0 23 -17q0 -4 -3 -6l-3 -2q0 -1 3 -5t3 -5l4 -12q7 -11 10 -11t3.5 3.5 t0.5 9.5t2 10q2 -2 3.5 -5t3 -4t5.5 -1q3 5 9.5 3.5t9.5 -7.5q10 0 10 12v10q0 4 7 8t10 4q14 0 14 -6l-4 -6l6 -12l2 -2q3 0 8 8t8 8q5 0 13 -8q4 0 4 -6q7 -7 10 -8q0 -11 6 -11q8 4 10 4q11 0 23 -6h8q2 -2 2 -4q0 -1 -1 -5t-1 -5t3 -5t3 -5l-2 -4v-9q4 4 6.5 8.5t3 7 t3 4t6.5 1.5l14 -4l8 4q5 0 8 -8q3 -9 11 -9l4 9l-6 8q0 4 8 4l2 2q12 0 24 -6q11 -3 33 -25q23 -16 23 -18q4 -4 4 -19q2 2 2 7q0 6 2 6q3 0 9.5 -4t10.5 -4v-5q0 -7 -10 -10l-2 -2v-14q-6 -1 -15.5 8.5t-11.5 9.5q-1 0 -4 -1t-4 -1l-6 15q-9 -5 -5.5 -12t-6.5 -15l-8 6 q-5 0 -5 -4l9 -10q6 -9 6 -15l-2 -8l-11 5q-10 2 -10 -9q-2 -2 -16 -11.5t-16 -17.5q-6 9 -13 9q-3 0 -8 -6.5t-6 -6.5q-4 4 -6 4q-6 0 -8.5 -2t-6.5 -14l-4 -2q0 -1 4.5 -4t4.5 -4q-3 -7 0 -17l-9 -8q0 -10 -2 -12l-32 -41v4q3 7 0 23q-1 6 -2 11.5t-2 8.5t-1 4q0 8 2 10 q11 13 11 15q13 18 39 41q2 2 2 6v6q0 1 2 6t2 6q0 4 -2 4q-4 0 -19 -20l-6 -8q-6 3 -6 18h-2q-4 -2 -6 -2q0 -2 -2 -2l-4 -2q-5 -5 -17 -25v-12l-12 -2q-4 0 -8 2t-6.5 4t-3.5 2l-11 -2q-6 0 -12 2l-6 4q-2 -2 -4 -2q0 -4 -6 -4q-12 -18 -41 -47l4 -10q0 2 4 6q0 -6 4 -10 q6 2 8 2q5 0 8 -6q2 0 2 -8l-2 -7q2 -2 2 -6q0 -3 -12 -39q-12 -20 -14 -22q0 -1 -9.5 -10t-11.5 -9l-8 2q-7 0 -10 -8q0 -10 -2 -12q-12 -4 -12 -10q8 -21 8 -23l-4 -6v-4q0 -3 -9 -12q0 2 -6 20l-3 5q-3 5 -3 9v7v2q0 2 -2 1q-1 0 -5 -2l-15 -6v3q0 2 3 5t3 5v2q0 2 -2 2 l-29 -19l8 -2q4 -8 17 -4q6 0 6 -4t-9 -10l-8 -6q0 -1 3 -5t5.5 -10t2.5 -10q0 -1 2.5 -3.5t3.5 -2.5q0 -10 -2 -12q0 -1 -5.5 -8.5t-5.5 -8.5q-9 -27 -43 -36q-17 0 -20 -7q0 5 -8 5q-15 -11 -17 -17q-2 -2 -2 -6v-2q13 -7 13 -10q16 -16 16 -23q0 -1 -3 -4t-3 -4 q-5 -7 -29 -21l2 5q0 4 -10 13t-12 9q-8 -2 -10 -2v-4q-3 0 -3 -2q0 -1 3.5 -4.5t5.5 -3.5q-1 -3 -3 -6q0 -2 -0.5 -3t-0.5 -2t0.5 -2t1.5 -3.5t2 -4.5q6 -6 16 -12q2 -4 4 -6q-5 -5 0 -17l-6 2h-4v-2q0 -4 4 -8q6 -10 16 -16q9 2 11 0l10 -10v-2q-12 6 -17 6q-4 0 -4 -4 q0 -3 5 -9t10 -6q12 -4 26 -4q3 -1 15 -4t23.5 -5.5t17.5 -2.5q4 0 9 2t9 2h12l13 6h18h2q-1 -3 -4.5 -4t-6.5 -1h-7l-4 1l-29 -14q-8 7 -13.5 8t-9.5 -1t-6 -1l-57 8q-14 0 -27 10q-6 5 -20 22.5t-17 20.5q-2 0 -2 -2t3.5 -6t3.5 -6q0 2 -6.5 6t-6.5 8q2 6 2 8q-1 3 -7.5 8 t-8.5 17v2q13 -3 16 -6q7 -3 23 -18v2q-21 41 -21 45v8l-2 4l2 8q0 1 -2 8t-2 8q1 1 2 5t2 6q-2 2 -4 2l-14 -15q-4 4 -4 7q10 19 -10 24q-3 17 -5 19q-18 0 -20 -2q-5 0 -8 -9l-13 -10l-24 -24q0 -1 -2 -3l-4 -2q0 -16 -2 -22q-2 -2 -2 -14q-9 -9 -11 -9q-4 0 -10 16.5 t-6 22.5l-8 11q-2 2 -2 12q-4 15 -2 18v8l-13 -2l-14 15q-14 14 -20 14l-19 -2q-20 0 -24 4q-10 10 -13 10q-2 -2 -6 -2q-1 0 -19.5 12.5t-19.5 12.5l-4 -2q0 -4 15 -25q2 -2 6 -2l1 -7q1 -7 5 -7q2 0 14 4l8 8q7 0 7 -10q18 -9 18 -12t-6 -15q0 -2 -2 -2.5t-4 -0.5l-2 1 q0 -6 2 -8l-15 -10l-20 -10q-36 -22 -47 -19q-13 23 -13 25q-2 4 -7 9t-8 9.5t-1 7.5v4q0 7 -4 11l-16 28q-8 16 -9 21q-2 0 -2 -10l-10 8v2v-4q2 -8 8 -13l25 -67l14 -10v-4q0 -1 3 -6.5t3 -6.5q3 -7 11 -16q0 -2 6 -2l39 6q6 0 6 -2q-2 -12 -6 -16l-9 -19q-59 -59 -59 -70 v-10v-12q6 -12 6 -18q0 -1 -3 -17.5t-3 -17.5q-6 -2 -17.5 -12.5t-11.5 -14.5q0 -1 2 -5t2 -5q0 -15 -6 -21l-4 -2l-4 -4q-2 -12 -15 -33t-26 -24q-8 0 -20 -4q-18 -6 -21 -6l-4 2q-6 3 -6 8q0 10 -2 12q0 3 -9.5 27.5t-8.5 32.5q0 4 -3 10q0 2 -4 6q0 8 -4 12q-12 9 -6 21 v10q0 8 2 10q10 10 10 12l-6 19q2 2 2 4l-3 3q-2 4 -4.5 10.5t-2.5 13.5q-18 9 -18 16q8 24 8 29q0 4 -2 4l-8 6h-11l-10 10q-2 2 -14 2q-3 0 -11 -5t-12 -5h-12l-27 -6q-23 11 -37 28l-10 19q0 1 -6 6t-6 6zM1020 653q0 1 5 4.5t5 4.5t-3 6t-3 6l18 12l7 -6q-5 -19 -5 -21 q0 -4 -7 -9t-9 -5zM1040 707l4 6q0 6 -4 6q-1 3 2 3.5t7 0.5l10 4l6 -2q-4 -4 -4 -6q1 -1 6 -4t8 -6q-18 -1 0 -21q1 -2 2.5 -3.5t3 -3.5t3 -3.5t3 -4t2.5 -4t2 -4t2 -4.5t1 -4l-4 -8v-6q0 -4 -5 -4l-32 -6l-4 2l3 2q3 2 5.5 4.5t3.5 5.5l-6 4q0 1 2 4t2 4v7q8 8 8 10t-12 2 q2 2 2 8q-6 2 -10 6q-3 3 -3 4q5 5 5 6h-5zM1348 119q0 3 3.5 10.5t2.5 15.5v9q18 18 30 36q5 -5 5 -16q0 -8 -4.5 -19t-6.5 -22l-10 -35q-3 -8 -12 -8q-4 0 -6 2q4 4 4 6zM1741 276v5q3 1 6 -5t6 -6q10 2 12 2q9 0 11 2v9q0 3 8 12t8 12q6 -6 16 -6v-2q-1 -1 -4 -2t-5.5 -3 t-2.5 -5q0 -9 6 -15q-10 -8 -10 -20l-2 -10l-6 -4l-12 6h-11q-3 1 -6 4t-5 6l-3 4q-6 9 -6 16zM1767 94q0 5 9.5 21t11.5 16q7 0 19.5 4t15.5 8q4 4 4 15q2 -2 4 -2q1 0 3.5 5t2.5 7l8 10l17 -10q4 0 8 7t4 13l-2 2l8 7q12 -4 14 -4h13l2 -9l-2 -10q0 -6 6 -11t12 -5 q6 -6 8 -6q6 3 6 8v8q0 26 5 31l8 -9q4 -4 4 -16l12 -10v-19q1 -4 13.5 -14t13.5 -14q1 -1 3 -7.5t3 -7.5q0 -2 8 -10q4 -12 2.5 -20.5t-9 -28.5t-9.5 -29q0 -4 -2 -6q-5 2 -12.5 -2t-8.5 -8q-1 0 -4 3t-4 3q-6 -6 -8 -6q-11 0 -15 4q-8 0 -8 16q-5 5 -7.5 9t-3 5.5t0 6 t0.5 6.5h-2l-10 -20h-2q-16 28 -21 28q-20 0 -41 -8h-6l-6 -8q-6 -2 -8 -2h-17q-8 -8 -14 -8q-14 0 -14 8l6 14q0 1 -2 6t-2 6q0 9 -4 13q-2 5 -5 10t-4.5 7t-1.5 3zM1870 473v12q0 7 4 11l8 4q0 6 4 6q0 7 8 10q0 -8 2 -8q3 0 13 10q0 1 10 8l10 11q2 2 2 6q0 10 -2 12 q-6 0 -6 4q-2 2 -2 4v2q4 -2 6 -2q4 0 9.5 7t5.5 12q0 4 -4 6l-5 2h6l3 4q-1 1 -3 2t-2 2q7 16 7 18v27q0 1 -1 6t-1 6l6 21l6 -39q0 -1 2 -6t2 -6l-14 -13q0 -1 4 -5t4 -5q-2 -2 -6 -2q0 -1 -1 -4t-1 -4q0 -9 8 -12q2 -2 12 -2q1 0 18 10q-2 0 -20 -19l-4 -4 q-17 -7 -10 -18t-4 -17l-5 -2q-2 -6 -8 -12q-2 -2 -6 -2q-1 0 -4 1t-4 1q0 -6 -4 -18q0 -4 -8 -9q-22 -3 -29 -14q-2 0 -2 4q0 -6 -4 -6zM1882 260q1 0 4.5 0.5t5 0t5 -3t8.5 -7.5h2v2q0 6 -2 8q2 0 6 -4q8 0 10 -2q12 -6 14 -6q20 -3 31 -17q0 -4 4 -8q5 -7 12.5 -11.5 t11.5 -4t5 1.5q0 -12 -8 -12q-6 0 -17 8l-12 8q-5 0 -12 -4l-6 -4q-7 0 -17 10q-3 3 -4 6.5t-4 3.5q-1 0 -2 2q-8 11 -12 13q-13 0 -15 2q-8 5 -8 18zM2091 -61q0 4 14.5 15.5t14.5 12.5q3 15 6 15l6 -2q2 0 4 2q4 -5 4 -7q-7 -17 -12 -22q-2 -2 -8 -2q3 -13 -21 -29h-2 q2 -1 2 2q0 5 -8 15zM2128 31l2 2q1 0 6 -6.5t6 -6.5l-2 -6q4 0 6 -2q1 -6 7.5 -7.5t7.5 1.5l4 -2l-4 -8q-3 -1 -7 -6t-8 -11l-4 -6v4l4 9q0 1 -6 4l-4 2q0 3 2 6t2 6q0 8 -2 10l-4 4q-6 6 -6 13z" />
<glyph unicode="&#xb1;" horiz-adv-x="1792" d="M76 1114l2 21q3 39 33 65l249 250q11 10 24 8t19 -16l201 -379q6 -13 3 -33.5t-13 -30.5l-92 -92q-26 -26 -29 -65q-2 0 0.5 -15.5t16 -49.5t38.5 -78.5t77.5 -111t123.5 -138.5q93 -93 178.5 -153t126.5 -77.5t70 -21.5l16 -2q40 0 68 28l106 107q12 12 31 15t31 -5 l366 -215q14 -8 16.5 -21t-9.5 -24l-250 -250q-27 -27 -66 -33q-6 -2 -22 -2q-64 0 -162 23q-58 13 -131 45q-162 66 -350 211q-154 121 -302 287.5t-223 295.5q-147 261 -147 457z" />
<glyph unicode="&#xb2;" horiz-adv-x="2152" d="M61 168v813h2030v-813h-2030zM152 260h1849v-41v670h-1849v-629zM264 373v405h1016v-405h-1016z" />
<glyph unicode="&#xb3;" horiz-adv-x="2668" d="M61 -33v1450l764 -254l-8 -1435zM135 694q0 -18 12 -32l93 -91q14 -13 32 -13t31 13q27 35 0 62l-92 92q-27 27 -64 0q-12 -13 -12 -31zM394 439.5q0 -17.5 12 -31.5l92 -93q12 -12 28.5 -12t28.5 12q13 13 13 31.5t-13 30.5l-90 92q-33 26 -59 0q-12 -12 -12 -29.5z M569 184q0 -18 13.5 -31.5t27.5 -13.5h97q19 0 31 13t12 32q0 17 -12 29t-31 12h-97q-17 0 -29 -12t-12 -29zM909 -285v1440l592 268l-4 -1439zM999 143q35 -27 62 0l90 93l8 20q6 32 -8 43q-31 22 -59 0l-93 -96q-26 -26 0 -60zM1255 399q32 -36 60 0l96 90l2 27 q6 25 -2 33q-35 35 -63 0l-93 -90q-26 -34 0 -60zM1589 -33l6 1454l248 -254v-819q0 18 -8 29l-92 92q-36 31 -64 0q-13 -12 -13 -29.5t13 -31.5l93 -93q28 -22 63 0q8 11 8 31v-637zM1843 346v2v-2zM1935 -281v1442l672 176l-2 -1427zM2019 399q28 -31 64 0l92 90l6 27 q3 27 -6 33q-13 17 -30 17t-29 -17l-97 -90q-20 -34 0 -60zM2262 684.5q0 -17.5 17 -29.5q11 -12 27 -12t27 12l96 90l6 25q3 21 -6 39q-12 11 -29.5 11t-29.5 -11l-91 -96q-17 -11 -17 -28.5z" />
<glyph unicode="&#xb4;" horiz-adv-x="1961" d="M53 -39v305h1827v-305h-1827zM53 367v305h1827v-305h-1827zM53 774v305h1827v-305h-1827z" />
<glyph unicode="&#xb6;" horiz-adv-x="1204" d="M31 1036q-5 131 96 239t250 107h762v-1663h-279v1524h-137v-1524h-279v977q-90 -16 -169.5 8t-131.5 75t-82 118.5t-30 138.5z" />
<glyph unicode="&#xb9;" horiz-adv-x="1191" d="M61 -98v1360q0 73 53.5 125.5t127.5 52.5h708q74 0 127 -52.5t53 -125.5v-1364q0 -73 -53 -126t-127 -53h-708q-73 0 -127 54.5t-54 128.5zM178 76h832v1186h-832v-1186zM475 1323h240v55h-240v-55zM546 -71.5q-14 -30.5 0 -61.5t48 -31q37 0 52 30.5t0 61.5t-52 31 q-34 0 -48 -30.5z" />
<glyph unicode="&#xbc;" horiz-adv-x="1871" d="M63 0v150h521v-150h-521zM63 244v151h521v-151h-521zM63 489v150h521v-150h-521zM63 733v152h521v-152h-521zM63 979v151h521v-151h-521zM678 0v150h520v-150h-520zM678 244v151h520v-151h-520zM678 489v150h520v-150h-520zM678 733v152h520v-152h-520zM678 979v151h520 v-151h-520zM1292 0v150h520v-150h-520zM1292 244v151h520v-151h-520zM1292 489v150h520v-150h-520zM1292 733v152h520v-152h-520zM1292 979v151h520v-151h-520z" />
<glyph unicode="&#xbd;" horiz-adv-x="1949" d="M61 -39v305h607v-305h-607zM61 367v305h607v-305h-607zM61 774v305h607v-305h-607zM774 -39v305h1114v-305h-1114zM774 367v305h1114v-305h-1114zM774 774v305h1114v-305h-1114zM866 53h930v121h-930v-121zM866 459h930v121h-930v-121zM866 866h930v121h-930v-121z" />
<glyph unicode="&#xbe;" horiz-adv-x="1613" d="M61 -55v1315q0 73 50 123.5t122 50.5h1147q72 0 122 -50.5t50 -123.5v-1315q0 -73 -50 -123.5t-122 -50.5h-1147q-72 0 -122 50.5t-50 123.5zM233 2h1147v1258h-1147v-1258zM750 -115q0 -35 28.5 -49.5t57 0t28.5 49.5q0 36 -28.5 50.5t-57 0t-28.5 -50.5z" />
<glyph unicode="&#xbf;" horiz-adv-x="1851" d="M61 100l459 385l309 -311l-376 -463l-15 23l152 243l-184 -223l-19 17l209 290l-238 -264l134 191l-160 -176l-19 32l240 375l-262 -354l-25 35l72 106l-98 -80l-29 25l176 166l-213 -144l268 314l-278 -299l-37 41l201 207l-232 -189zM563 530l836 678q19 17 51.5 39.5 t76.5 50.5t46 29q184 116 213 100q8 -3 -19 -67q-23 -54 -84 -150q-60 -93 -106 -149l-700 -844z" />
<glyph unicode="&#xc0;" horiz-adv-x="1368" d="M45 -199l641 641l639 -641h-319l-320 316l-317 -316h-324zM45 492l641 641l639 -641h-319l-320 315l-317 -315h-324z" />
<glyph unicode="&#xc3;" horiz-adv-x="1394" d="M59 442h320l319 -315l318 315h323l-641 -641zM59 1133h320l319 -316l318 316h323l-641 -641z" />
<glyph unicode="&#xc4;" horiz-adv-x="1705" d="M61 1108q0 38 28 65t67 27q38 0 66 -27t28 -65t-28 -67t-66 -29q-37 0 -66 29t-29 67zM219 422q-6 146 22.5 266t74.5 198t114.5 138t129 91t133 51.5t112 25.5t78.5 8h24h40q138 -10 235 -126q21 -25 39 -54q95 -156 93.5 -292t-93.5 -212q-9 -8 -23.5 -16t-26.5 -14.5 t-33 -14.5t-32 -12.5t-36 -13t-32 -11.5q-42 -15 -72 -30.5t-60 -40.5t-46.5 -62.5t-19.5 -85.5q-2 -61 15 -118t42.5 -98t50.5 -77t41 -69.5t12 -61.5q-11 -85 -102 -186q-89 -100 -180 -97q-31 0 -66 8.5t-83 34t-92 66t-89 112t-79.5 163.5t-59.5 229t-31 301zM301 1282 q-3 56 45 79.5t96 0t45 -79.5q0 -40 -27 -67t-65 -27t-66 28t-28 66zM581 1396.5q0 40.5 31 71.5t72 31t72 -31t31 -71.5t-31 -71.5t-72 -31t-72 31t-31 71.5zM893 1407q0 54 37.5 96.5t77.5 42.5q55 0 97 -40t42 -113q0 -131 -146 -131q-43 0 -75.5 42t-32.5 103z M1247.5 1309q8.5 61 87.5 153q50 56 123 68q71 15 113 -21q139 -115 10 -284q-49 -64 -102.5 -91.5t-100.5 -17.5t-80 53q-59 79 -50.5 140z" />
<glyph unicode="&#xc5;" horiz-adv-x="1949" d="M61 225v305h1827v-305h-1827zM61 633v303h914v-303h-914zM154 317h1642v121h-1642v-121z" />
<glyph unicode="&#xc6;" horiz-adv-x="720" d="M23 481l641 639v-319l-316 -320l316 -317v-324z" />
<glyph unicode="&#xc7;" horiz-adv-x="1787" d="M72 1022q0 162 116 281q117 114 287 114q175 0 289 -114l338 -336q121 -115 121 -279q0 -161 -121 -282q-44 -38 -51 -41l-113 110q-20 20 -35 49q6 1 47 33q60 60 60 135q0 82 -60 139l-327 320q-62 59 -138 59q-81 0 -143 -59q-57 -57 -57 -135q0 -82 57 -139l125 -119 q-45 -99 -45 -197q0 -41 2 -51l-236 231q-116 113 -116 281zM561 543q0 163 117 280l49 37l113 -110q24 -27 34 -45q-24 -15 -40 -31q-60 -60 -60 -137q0 -78 60 -138l325 -321q58 -58 139 -58q85 0 140 58q63 57 63 141q0 75 -47 119l-127 123q41 103 41 188q0 8 -4 62 l229 -222q117 -117 117 -282t-117 -279q-122 -116 -286 -116q-167 0 -289 116l-340 332q-117 117 -117 283z" />
<glyph unicode="&#xc9;" horiz-adv-x="1644" d="M53 973l348 348l711 -715l479 479v-1302h-1302l479 479z" />
<glyph unicode="&#xd1;" horiz-adv-x="907" d="M63 418v276h218v312q0 68 39.5 119.5t95 75.5t112.5 24h322v-283h-166q-71 0 -99 -29t-28 -92v-127h293v-276h-293v-715h-276v715h-218z" />
<glyph unicode="&#xd6;" horiz-adv-x="1847" d="M61 573q0 234 116.5 433.5t315 315.5t431.5 116q176 0 336 -68.5t275 -184.5t183 -276t68 -336q1 -139 -42.5 -270t-123 -237t-186 -185.5t-238 -123.5t-272.5 -44q-139 0 -270.5 44t-238 124t-186.5 185.5t-124 236.5t-44 270z" />
<glyph unicode="&#xd7;" horiz-adv-x="1570" d="M61 764l502 74l223 452l224 -452l499 -74l-360 -352l86 -500l-449 235l-448 -235l86 500z" />
<glyph unicode="&#xdc;" horiz-adv-x="1400" d="M61 -109v1278h89v-1189h1189v-89h-1278zM264 39v848h228v-848h-228zM602 39v1130h227v-1130h-227zM942 39v565h227v-565h-227z" />
<glyph unicode="&#xdf;" horiz-adv-x="937" d="M43 -41v1120h326v-188h-162v-748h162v-184h-326zM569 -41v186l164 2v748h-164v184h328v-1120h-328z" />
<glyph unicode="&#xe0;" horiz-adv-x="1849" />
<glyph unicode="&#xe1;" horiz-adv-x="1327" d="M25 797h319l320 -316l317 316h324l-641 -641z" />
<glyph unicode="&#xe2;" horiz-adv-x="1720" d="M61 193q0 42 31 72t74 30t72.5 -29.5t29.5 -72.5v-17q28 -24 70 -45q33 -17 78 -47q100 -65 295 -68l65 310q9 200 15 393h-279l-106 24q-27 -34 -68 -34q-35 0 -59.5 24.5t-24.5 57.5q0 35 24 58t60 23q48 0 68 -36h389l6 196q-66 20 -107 75t-41 124q0 86 59.5 146.5 t145.5 60.5t146.5 -60.5t60.5 -146.5q0 -67 -41 -122t-104 -75q0 -2 4 -82l4 -116h387q20 36 67 36q36 0 60 -23t24 -58q0 -33 -24.5 -57.5t-59.5 -24.5q-44 0 -65 34l-109 -24h-276l12 -393l68 -316q163 -9 245 43q101 61 197 127q-2 2 -2 13q0 32 19 57.5t46 36.5t58 6 t53 -29q24 -22 29 -53t-6 -58t-37 -46t-58 -19q-3 0 -12 1t-12 1q-89 -77 -162 -121q-161 -105 -321 -155q-153 -90 -185 -90q-44 2 -194 92q-161 48 -320 153q-89 57 -162 121q-3 0 -11 -1t-11 -1q-43 0 -74 31t-31 74zM750 1231q0 -44 32 -76.5t76 -32.5t77.5 32.5 t33.5 76.5t-33 76t-78 32q-44 0 -76 -32t-32 -76z" />
<glyph unicode="&#xe3;" horiz-adv-x="1622" d="M53 -168v1511h1512v-1511h-1512zM329 251q0 -33 23 -56l64 -64q23 -23 56 -23t56 23l224 223q23 23 56 23t58 -23l221 -223q23 -23 56.5 -23t58.5 23l64 64q23 23 23 56t-23 58l-224 221q-23 25 -23 57.5t23 57.5l224 221q23 25 23 58.5t-23 56.5l-64 63q-25 23 -58.5 23 t-56.5 -23l-221 -223q-25 -23 -58 -23t-56 23l-224 223q-23 23 -56 23t-56 -23l-64 -63q-23 -23 -23 -56.5t23 -58.5l223 -221q23 -25 23 -57.5t-23 -57.5l-223 -221q-23 -25 -23 -58z" />
<glyph unicode="&#xe5;" horiz-adv-x="1073" d="M59 251q0 33 23 58l223 221q23 25 23 57.5t-23 57.5l-223 221q-23 25 -23 58.5t23 56.5l63 63q23 23 56.5 23t56.5 -23l223 -223q23 -23 56.5 -23t58.5 23l221 223q23 23 56.5 23t58.5 -23l63 -63q23 -23 23 -56.5t-23 -58.5l-223 -221q-23 -25 -23 -57.5t23 -57.5 l223 -221q23 -25 23 -58t-23 -56l-63 -64q-25 -23 -58.5 -23t-56.5 23l-221 223q-25 23 -58.5 23t-56.5 -23l-223 -223q-23 -23 -56.5 -23t-56.5 23l-63 64q-23 23 -23 56z" />
<glyph unicode="&#xe6;" horiz-adv-x="1204" d="M31 1036q-5 131 96 239t250 107h762v-1663h-279v1524h-137v-1524h-279v977q-90 -16 -169.5 8t-131.5 75t-82 118.5t-30 138.5z" />
<glyph unicode="&#xe7;" horiz-adv-x="1636" d="M51 543q-4 150 57.5 292.5t166 246.5t247 165.5t291.5 57.5q154 0 294 -57.5t249 -166.5q107 -112 165 -250t58 -288q0 -152 -58 -292t-165 -251q-110 -107 -250 -165t-293 -58t-292 57.5t-247 165.5q-109 109 -166 248.5t-57 294.5zM162 543q0 -132 52 -253 t139.5 -208.5t208 -140t251.5 -52.5q128 -3 250 50t211 142t142 211.5t50 250.5q4 171 -86 323t-242.5 241t-324.5 85q-127 3 -248.5 -49.5t-210.5 -140.5t-142 -209.5t-50 -249.5z" />
<glyph unicode="&#xe8;" horiz-adv-x="2238" d="M43 569l1479 305v312l678 -617l-678 -616v311z" />
<glyph unicode="&#xe9;" horiz-adv-x="2234" d="M57 1116q273 -182 500 -244q16 -3 47 -10.5t43.5 -10t34 -5.5t41.5 -4l61 -4h93q211 0 622 6v342l678 -617l-678 -616v326h-545q-118 0 -225 45q-105 43 -187.5 107t-166.5 161q-74 86 -125 162.5t-103 173.5q-55 105 -63 123z" />
<glyph unicode="&#xea;" horiz-adv-x="1845" d="M58 573.5q0 175.5 67 335.5q139 325 461 461q160 69 335.5 69t335.5 -69q325 -136 461 -461q69 -160 69 -335.5t-69 -335.5q-137 -323 -461 -459q-160 -69 -335.5 -69t-335.5 69q-321 136 -461 459q-67 160 -67 335.5zM684 926l37 -140l135 33v-612h170v786h-117z" />
<glyph unicode="&#xeb;" horiz-adv-x="1824" d="M53.5 573.5q-0.5 176.5 67.5 335.5q139 324 463 461q160 69 335.5 69t335.5 -69q325 -136 461 -461q69 -160 69 -335.5t-69 -335.5q-137 -323 -461 -459q-160 -69 -335.5 -69t-335.5 69q-325 137 -461 459q-69 159 -69.5 335.5zM631 213h577v149h-340l127 97 q87 70 117 100q88 88 88 203v2q0 109 -73.5 174.5t-194.5 65.5q-96 0 -161.5 -36.5t-129.5 -123.5l121 -99q45 56 81.5 80.5t78.5 24.5q48 0 76 -25.5t28 -74.5q0 -46 -27.5 -83.5t-107.5 -105.5l-260 -211v-137z" />
<glyph unicode="&#xec;" horiz-adv-x="1824" d="M50 577.5q0 175.5 67 335.5q139 325 461 461q161 69 337 69t336 -69q323 -137 459 -461q69 -160 69 -335.5t-69 -335.5q-136 -323 -459 -459q-160 -69 -336 -69t-337 69q-321 136 -461 459q-67 160 -67 335.5zM551 510l27 -121h380v-168h164v168h105v139h-105v478h-145z M752 528l206 242v-242h-206z" />
<glyph unicode="&#xed;" horiz-adv-x="1816" d="M48 573.5q0 175.5 67 335.5q139 325 460 461q161 69 337.5 69t336.5 -69q326 -138 461 -461q69 -160 69 -335.5t-69 -335.5q-136 -322 -461 -459q-160 -69 -336.5 -69t-337.5 69q-320 135 -460 459q-67 160 -67 335.5zM621 313q114 -135 305 -135q127 0 203.5 70.5 t76.5 183.5v2q0 180 -211 219l199 189v129h-528v-148h307l-187 -186l27 -111h72q72 0 112.5 -25.5t40.5 -72.5v-2q0 -43 -30 -68.5t-80 -25.5q-106 0 -189 92z" />
<glyph unicode="&#xee;" horiz-adv-x="1824" d="M58 573.5q0 175.5 67 335.5q139 325 461 461q160 69 335.5 69t335.5 -69q325 -136 461 -461q69 -160 69 -335.5t-69 -335.5q-137 -323 -461 -459q-160 -69 -335.5 -69t-335.5 69q-321 136 -461 459q-67 160 -67 335.5zM629 276q122 -116 291 -116q135 0 216 73t81 197v2 q0 122 -73.5 186t-199.5 64q-53 0 -102 -14l8 135h332v149h-480l-22 -383l100 -65q76 28 129 28q64 0 102 -28.5t38 -77.5v-2q0 -51 -35 -80t-96 -29q-92 0 -187 86z" />
<glyph unicode="&#xef;" horiz-adv-x="1820" d="M49 573q0 176 69 337t185 277t276 184.5t336 68.5q141 0 273.5 -43.5t239 -124t187 -187t124 -239t43.5 -273.5t-43.5 -272.5t-124 -238t-187 -186.5t-239 -123.5t-273.5 -43.5q-176 0 -336 68.5t-276 184t-185 275.5t-69 336zM573 549q0 -202 93 -295q90 -84 225 -84 q129 0 213 76t84 194v2q0 116 -75.5 182t-199.5 66q-83 0 -159 -49q8 84 47.5 132t107.5 48q46 0 81 -14t79 -47l90 131q-57 45 -113.5 65.5t-130.5 20.5q-164 0 -253 -115.5t-89 -310.5v-2zM748 434v2q0 51 36 82t99 31q61 0 98 -32t37 -83v-2q0 -52 -36 -83.5t-97 -31.5 q-62 0 -99.5 32.5t-37.5 84.5z" />
<glyph unicode="&#xf1;" horiz-adv-x="1818" d="M44 573.5q0 175.5 67 335.5q139 325 460 461q161 69 337.5 69t336.5 -69q325 -136 461 -461q69 -160 69 -335.5t-69 -335.5q-137 -323 -461 -459q-160 -69 -336.5 -69t-337.5 69q-320 135 -460 459q-67 160 -67 335.5zM664 815h366l-348 -631h192l351 652v129h-561v-150z " />
<glyph unicode="&#xf2;" d="M60 573.5q0 175.5 67 335.5q139 325 461 461q160 69 336 69t336 -69q324 -136 460 -461q69 -160 69 -335.5t-69 -335.5q-137 -324 -460 -459q-160 -69 -336 -69t-336 69q-321 136 -461 459q-67 160 -67 335.5zM616 702q0 -116 75.5 -183.5t203.5 -67.5q95 0 160 53 q-8 -81 -50 -128.5t-110 -47.5q-87 0 -170 65l-90 -129q113 -94 256 -94q160 0 251 116t91 310v2q0 207 -94 295q-81 84 -224 84q-133 0 -216 -76.5t-83 -195.5v-3zM788 711v2q0 54 35.5 85t96.5 31q63 0 100 -32t37 -86v-2q0 -52 -36 -83.5t-97 -31.5q-63 0 -99.5 31.5 t-36.5 85.5z" />
<glyph unicode="&#xf3;" horiz-adv-x="1810" d="M50 573.5q0 175.5 67 335.5q139 325 461 461q161 69 337 69t336 -69q323 -137 459 -461q69 -160 69 -335.5t-69 -335.5q-136 -323 -459 -459q-160 -69 -336 -69t-337 69q-321 136 -461 459q-67 160 -67 335.5zM614 397q0 -100 83.5 -161.5t217.5 -61.5q135 0 218.5 62 t83.5 167v3q0 64 -31 106.5t-96 75.5q98 61 98 172v2q0 93 -76 153t-197 60q-122 0 -198 -60t-76 -153v-2q0 -111 98 -172q-125 -55 -125 -189v-2zM780 412v2q-7 60 64 85t142 0t63 -85v-2q0 -42 -37 -69.5t-97 -27.5q-61 0 -98 27.5t-37 69.5zM803 741v2q0 39 30 65t82 26 q50 0 80.5 -27t30.5 -66v-2q0 -42 -31 -68t-82 -26q-49 0 -79.5 26.5t-30.5 69.5z" />
<glyph unicode="&#xf4;" d="M49 573q0 176 69 337t185 277t276 184.5t336 68.5q141 0 273.5 -43.5t239 -124t187 -187t124 -239t43.5 -273.5t-43.5 -272.5t-124 -238t-187 -186.5t-239 -123.5t-273.5 -43.5q-176 0 -336 68.5t-276 184t-185 275.5t-69 336zM360 899l37 -139l135 33v-611h170v785h-116 zM795 571q0 -173 94 -286q95 -115 250 -115t250 115q98 116 98 288v2q0 171 -96 287q-95 115 -250 115q-156 0 -250 -117q-96 -116 -96 -287v-2zM971 573v2q0 109 46.5 178.5t121.5 69.5q74 0 123 -71.5t49 -178.5v-2q0 -107 -46.5 -176t-123.5 -69q-74 0 -122 70t-48 177z " />
<glyph unicode="&#xf5;" horiz-adv-x="1609" d="M45 -119v1397q0 25 16 41t41 16h1397q25 0 41 -16t16 -41v-1397q0 -25 -16 -41t-41 -16h-1397q-23 0 -40 17t-17 40zM121 -100h1360v1360h-1360v-1360zM291 180v150h1012v-150h-1012zM291 483v150h862v-150h-862zM291 786v150h710v-150h-710z" />
<glyph unicode="&#xf6;" horiz-adv-x="1628" d="M63 -119v1397q0 25 16.5 41t41.5 16h1397q25 0 41 -16t16 -41v-1397q0 -23 -17 -40t-40 -17h-1397q-25 0 -41.5 17t-16.5 40zM139 -100h1360v1360h-1360v-1360zM436 59v711h150v-711h-150zM739 59v863h150v-863h-150zM1042 59v1012h150v-1012h-150z" />
<glyph unicode="&#xf7;" horiz-adv-x="2271" d="M61 367q0 104 74 178q76 76 180 76q32 0 62 -9q57 236 248 402q189 165 438 186q28 89 -53 158l4 6q111 -51 108 -154q19 50 71 95.5t94.5 67.5t84.5 38l23 8l4 -8q-61 -36 -97 -79t-45 -75.5t-6 -62.5q230 -34 408 -195q177 -157 235 -387q27 9 62 9q105 0 178 -76 q76 -73 76 -178t-76 -181q-73 -73 -178 -73q-48 0 -94 18q-28 -80 -82 -154l-209 142q87 116 96 284q6 196 -96 295q-74 61 -154 70.5t-146.5 -23t-119.5 -96.5h-29q-53 64 -120.5 98t-148.5 25.5t-153 -70.5q-105 -96 -96 -299q9 -166 96 -282q2 0 2 -2l-210 -142 q-45 66 -84 154q-44 -18 -93 -18q-104 0 -180 73q-74 77 -74 181zM274 367q0 -23 14.5 -37.5t35.5 -14.5q19 0 34 15l-6 80q-13 8 -28 8q-20 0 -35 -15.5t-15 -35.5zM1913 328q16 -13 33 -13q32 0 45.5 25.5t0 51.5t-45.5 26q-16 0 -29 -8q0 -8 -4 -82z" />
<glyph unicode="&#xf8;" horiz-adv-x="1630" d="M63 -119v1397q0 24 17.5 40.5t42.5 16.5h1395q25 0 41 -16t16 -41v-1397q0 -25 -16 -41t-41 -16h-1395q-25 0 -42.5 17t-17.5 40zM139 -100h1360v1360h-1360v-1360zM365 582q0 180 122 311q126 132 304 141v-246q-76 -12 -129.5 -70.5t-53.5 -135.5q0 -88 61.5 -149.5 t149.5 -61.5q78 0 138.5 51t70.5 129h246q-12 -177 -144 -303q-132 -123 -311 -123q-119 -3 -225.5 60t-169 170t-59.5 227zM850 788v246q155 -9 270 -112l-174 -172q-42 32 -96 38zM987 707l174 174q101 -119 113 -271h-246q-10 58 -41 97z" />
<glyph unicode="&#xf9;" horiz-adv-x="1636" d="M61 -119v1397q0 24 17.5 40.5t42.5 16.5h1395q25 0 42 -16t17 -41v-1397q0 -23 -17 -40t-42 -17h-1395q-25 0 -42.5 17t-17.5 40zM137 -100h1362v1360h-1362v-1360zM258 338l383 432l90 104l279 -243l245 276l95 -2l14 -92l-342 -385l-2 2l-275 240l-378 -426l-107 -11z " />
<glyph unicode="&#xfa;" horiz-adv-x="1630" d="M61 -119v1397q0 24 17.5 40.5t42.5 16.5h1395q25 0 42 -16t17 -41v-1397q0 -23 -17 -40t-42 -17h-1395q-25 0 -42.5 17t-17.5 40zM137 -100h1362v1360h-1362v-1360zM309 186v150h758v-150h-758zM309 489v150h508v-150h-508zM309 793v149h404v-149h-404zM784 793v149h234 v-149h-234zM887 489v150h282v-150h-282zM1139 186v150h180v-150h-180z" />
<glyph unicode="&#xfb;" horiz-adv-x="1613" d="M45 -119v1397q0 25 16 41t41 16h1397q25 0 41 -16t16 -41v-1397q0 -25 -16 -41t-41 -16h-1397q-23 0 -40 17t-17 40zM121 -100h1360v1360h-1360v-1360zM225 293l418 528l297 -297l342 344v-575h-1057z" />
<glyph unicode="&#xfc;" horiz-adv-x="1617" d="M43 -119v1397q0 25 17 41t42 16h1395q25 0 42 -16t17 -41v-1397q0 -23 -17 -40t-42 -17h-1395q-25 0 -42 17t-17 40zM119 -100h1362v1360h-1362v-1360zM346 582q0 179 123 311t301 141v-424v-53v-6h483q-12 -178 -143 -303q-129 -123 -309 -123q-189 0 -322 133 q-133 136 -133 324zM829 651v383q153 -9 271 -112zM872 610l271 271q101 -119 110 -271h-381z" />
<glyph unicode="&#xff;" horiz-adv-x="720" d="M59 -160v324l316 317l-316 320v319l641 -639z" />
<glyph unicode="&#x152;" horiz-adv-x="1193" d="M66 68l532 825l532 -825h-1064z" />
<glyph unicode="&#x153;" horiz-adv-x="1144" d="M37 893h1065l-533 -825z" />
<glyph unicode="&#x178;" horiz-adv-x="1345" d="M33 160l639 641l641 -641h-324l-317 315l-320 -315h-319z" />
<glyph unicode="&#x2000;" horiz-adv-x="773" />
<glyph unicode="&#x2001;" horiz-adv-x="1546" />
<glyph unicode="&#x2002;" horiz-adv-x="773" />
<glyph unicode="&#x2003;" horiz-adv-x="1546" />
<glyph unicode="&#x2004;" horiz-adv-x="515" />
<glyph unicode="&#x2005;" horiz-adv-x="386" />
<glyph unicode="&#x2006;" horiz-adv-x="257" />
<glyph unicode="&#x2007;" horiz-adv-x="257" />
<glyph unicode="&#x2008;" horiz-adv-x="193" />
<glyph unicode="&#x2009;" horiz-adv-x="309" />
<glyph unicode="&#x200a;" horiz-adv-x="85" />
<glyph unicode="&#x2010;" horiz-adv-x="1845" d="M61 565q0 176 68.5 336t184 276t275 184.5t335.5 68.5t335 -68.5t274 -184.5t183 -276t68 -336q0 -174 -68 -332.5t-182.5 -274.5t-274.5 -184.5t-335 -68.5q-141 0 -272.5 44t-237.5 123.5t-186 185.5t-123.5 237t-43.5 270zM438 528q0 -40 29 -68t68 -28h770 q41 0 68.5 27.5t27.5 68.5v80q0 39 -28 68t-68 29h-770q-38 0 -67.5 -29.5t-29.5 -67.5v-80z" />
<glyph unicode="&#x2011;" horiz-adv-x="1845" d="M61 565q0 176 68.5 336t184 276t275 184.5t335.5 68.5t335 -68.5t274 -184.5t183 -276t68 -336q0 -174 -68 -332.5t-182.5 -274.5t-274.5 -184.5t-335 -68.5q-141 0 -272.5 44t-237.5 123.5t-186 185.5t-123.5 237t-43.5 270zM438 528q0 -40 29 -68t68 -28h770 q41 0 68.5 27.5t27.5 68.5v80q0 39 -28 68t-68 29h-770q-38 0 -67.5 -29.5t-29.5 -67.5v-80z" />
<glyph unicode="&#x2012;" horiz-adv-x="1845" d="M61 565q0 176 68.5 336t184 276t275 184.5t335.5 68.5t335 -68.5t274 -184.5t183 -276t68 -336q0 -174 -68 -332.5t-182.5 -274.5t-274.5 -184.5t-335 -68.5q-141 0 -272.5 44t-237.5 123.5t-186 185.5t-123.5 237t-43.5 270zM438 528q0 -40 29 -68t68 -28h770 q41 0 68.5 27.5t27.5 68.5v80q0 39 -28 68t-68 29h-770q-38 0 -67.5 -29.5t-29.5 -67.5v-80z" />
<glyph unicode="&#x2013;" horiz-adv-x="1398" d="M59 801h1282l-641 -641z" />
<glyph unicode="&#x2014;" horiz-adv-x="1388" d="M51 160l641 641l639 -641h-1280z" />
<glyph unicode="&#x2018;" horiz-adv-x="1662" d="M61 354q0 113 76 189q77 80 185 80q33 0 63 -9q61 252 256 422q194 173 449 197q27 83 -56 166l4 6q117 -57 113 -162q18 53 71 101t99.5 72.5t85.5 37.5l23 8l4 -8q-167 -102 -152 -227q167 -21 320 -125v-391q-72 62 -152.5 69t-148 -28.5t-121.5 -100.5h-29 q-41 50 -91 82.5t-106 45.5t-118 -4t-119 -66q-108 -105 -99 -316q9 -175 99 -297l2 -2l-217 -149q-44 67 -84 161q-46 -18 -96 -18q-107 0 -185 78q-76 76 -76 188zM279 354q0 -23 15 -38t38 -15q21 0 35 14q-7 54 -7 84q-18 11 -28 11q-23 0 -38 -16t-15 -40z" />
<glyph unicode="&#x2019;" horiz-adv-x="1662" d="M61 715v387q165 113 365 131q27 84 -55 166l4 6q115 -55 112 -162q14 40 47 77.5t73.5 63.5t72.5 42.5t61 27.5l25 8l4 -8q-167 -102 -152 -227q241 -38 420 -205q182 -170 240 -408q30 9 63 9q106 0 183 -80q78 -78 78 -189q0 -110 -78 -188t-183 -78q-49 0 -96 18 q-40 -94 -84 -161l-215 149q88 118 98 299q9 211 -98 312q-76 65 -158 74t-149.5 -26t-122.5 -102h-29q-54 67 -121 103t-148.5 29.5t-156.5 -68.5zM1296 315q14 -14 35 -14q23 0 38 15t15 38q0 24 -15 40t-38 16q-10 0 -28 -11q0 -30 -7 -84z" />
<glyph unicode="&#x201c;" horiz-adv-x="774" d="M59 481l641 639v-1280z" />
<glyph unicode="&#x201d;" horiz-adv-x="720" d="M53 -160v1280l641 -639z" />
<glyph unicode="&#x202f;" horiz-adv-x="309" />
<glyph unicode="&#x2039;" horiz-adv-x="1882" d="M84 106v725l432 -354l-424 -409q-8 21 -8 38zM84 969v92q0 41 30.5 71.5t71.5 30.5h1512q43 0 72.5 -29.5t29.5 -72.5v-92l-858 -703zM152 10l430 414l360 -295l363 295l428 -414q-15 -6 -35 -6h-1512q-16 0 -34 6zM643 782q0 -105 68 -182q80 -92 229 -92q70 0 123 20 q48 17 111 60l-27 41l-8 -6q-40 -28 -68 -37q-65 -27 -127 -27q-101 0 -168 55q-78 60 -78 166q0 90 66 162q74 74 197 74q65 0 118 -27q84 -47 84 -141q0 -66 -30 -109q-26 -39 -62 -39q-16 0 -22 9q-9 12 -9 20q0 1 1 7t1 9q0 1 2 6.5t4 12.5t3 10l47 156h-70l-12 -45 q-6 22 -21 37q-20 20 -59 20q-68 0 -107 -57q-45 -51 -45 -121q0 -48 29 -88q31 -31 72 -31t73 29q15 12 31 41v-6v-7q0 -18 17 -38q19 -19 51 -19q61 0 112 57q50 59 50 142q0 98 -78 164q-71 59 -187 59q-138 0 -227 -86q-84 -84 -84 -199zM862 756q0 38 27 90 q27 47 65 47q19 0 31 -12q10 -17 10 -33q0 -34 -24 -92t-62 -58q-18 0 -35 17q-12 15 -12 41zM1370 477l430 354v-725q0 -20 -6 -38z" />
<glyph unicode="&#x205f;" horiz-adv-x="386" />
<glyph unicode="&#x20ac;" horiz-adv-x="2007" d="M53 496l164 94l-149 110l180 52l-117 147h186l-77 170l182 -45l-35 184l168 -86l14 187l138 -127l61 178l102 -156l101 156l61 -178l137 127l15 -185l-262 -344q-69 118 -125 183q-71 86 -142 86q-22 0 -34 -2l-19 -5l-24 -16q-94 -73 -168 -188t-74 -211t67 -142 q268 -200 351 -303q59 -71 157 -71q97 0 154 75v2q238 332 455 555l151 -43l-147 -110l162 -94l-173 -70l136 -131l-189 -25l99 -159l-185 20l56 -178l-168 65v-186l-152 107l-35 -183l-123 144l-82 -170l-82 170l-122 -144l-37 183l-144 -107v186l-176 -65l58 178l-189 -20 l101 159l-187 25l135 131zM438 627q0 68 58 159q57 93 141 158q2 2 18 2q26 0 72 -61q43 -54 104 -144q56 -80 80 -104l15 -16l14 16q46 68 176 237q135 178 246 306q91 105 160 168q115 108 151 108q82 -3 187 -88q100 -81 100 -135q0 -10 -15 -21t-59 -38 q-177 -109 -340 -263q-293 -278 -563 -665q-27 -37 -72 -37q-53 0 -80 37q-49 61 -153 145q-63 55 -84 70q-21 17 -52.5 42t-53.5 42t-25 20q-25 22 -25 62z" />
<glyph unicode="&#x2122;" horiz-adv-x="2054" d="M61 -162q198 -24 275 111q40 64 43 141q3 87 37 150q76 149 266 161l295 -290q-80 -164 -219 -269q-59 -47 -128 -75t-155.5 -37t-193 18t-220.5 90zM713 467l51 43l31 25q6 4 7 17.5t1.5 30t17 42.5t49.5 53q23 44 91 57q35 3 57 -4l162 135q256 213 422 346 q20 17 52 39t76 48.5t48 29.5q183 121 211 101q13 0 -31 -80q-47 -86 -113 -187q-67 -107 -119 -168q-20 -22 -165 -194l-162 -191l-131 -157q6 -24 6 -31q0 -36 -37 -111q-41 -44 -98 -59q-27 -8 -47 -8l-29 -35q-38 -55 -39 -57z" />
<glyph unicode="&#xe000;" horiz-adv-x="1433" d="M0 0v1434h1434v-1434h-1434z" />
<glyph unicode="&#xfb01;" horiz-adv-x="2869" d="M137 608l877 758v-569h1696v-879h-381v498h-1315v-568z" />
<glyph unicode="&#xfb02;" horiz-adv-x="2553" d="M53 459v239h223q100 0 196 11.5t170.5 27t156 45t133 51.5t122.5 61t104 59.5t97 60.5q96 61 193.5 129t147.5 105l49 38l-134 238l506 -119l-129 -553l-127 246q-151 -98 -311.5 -196t-244 -146t-105.5 -60h1009v240l412 -358l-412 -361v240h-1009q38 -17 244.5 -141.5 t416.5 -260.5l127 246l129 -553l-506 -119l134 238q-175 137 -390 272q-64 40 -97 60.5t-104 59.5t-122.5 61t-133 51.5t-156 45t-170.5 27t-196 11.5q-223 0 -223 4z" />
</font>
</defs>
</svg>
