<?xml version="1.0" encoding="UTF-8"?><svg xmlns="http://www.w3.org/2000/svg" width="100%" height="100%"><defs><font id="web" horiz-adv-x="586"><!--



NOTICE: This font software is the valuable property 
of Webtype LLC, The Font Bureau, Webtype and/or its 
suppliers and its use by you is covered under the terms 
of the Web Font license agreement between you and Webtype 
LLC. You may ONLY use this font software with the licensed 
web site. Except as specifically permitted by the license, 
you may not copy this font software. If you have any 
questions, please contact Webtype.com. 

For more information, please visit http://www.webtype.com/store/license/?id=23

Licensed to: salon.rocketsociety.com

Serial number: SH-761
--><font-face font-family="" units-per-em="2048" panose-1="2 0 8 6 3 0 0 2 0 4" ascent="1934" descent="-523" alphabetic="0"/><missing-glyph horiz-adv-x="1024" d="M0 1434H1024V0H0V1434ZM102 102H922V1331H102V102Z"/><glyph unicode=" " horiz-adv-x="279"/><glyph unicode="!" horiz-adv-x="459" d="M92 1516H367L346 397H113L92 1516ZM88 270H371V0H88V270Z"/><glyph unicode="&quot;" horiz-adv-x="684" d="M383 1411V1516H633V1411L614 965H401L383 1411ZM51 1411V1516H303V1411L285 965H72L51 1411Z"/><glyph unicode="#" horiz-adv-x="885" d="M127 428H14V639H152L180 877H63V1087H205L254 1516H479L430 1087H535L582 1516H807L758 1087H872V877H733L705 639H823V428H680L633 0H406L455 428H354L305 0H78L127 428ZM485 625L516 891H401L373 625H485Z"/><glyph unicode="$" horiz-adv-x="780" d="M289 1677H506V1499Q569 1478 610 1437T677 1340T716 1221T735 1092L498 1065Q492 1140 482 1185T459 1254T428 1286T389 1294Q349 1294 331 1265T313 1184Q313 1135 324 1093T357 1012T407 936T471 860Q518 810 567 759T658 648T725 520T752 367Q752 224 692 132T506 10V-190H289V12Q214 32 166 78T88 186T45 319T23 463L262 485Q271 404 283 352T311 269T348 226T393 213Q440 213 464 238T489 317Q489 365 476 408T439 490T383 568T313 647Q268 695 222 746T137 856T75 985T51 1139Q51 1208 65 1268T110 1376T184 1457T289 1505V1677Z"/><glyph unicode="%" horiz-adv-x="1339" d="M305 639Q229 639 179 672T98 764T56 904T43 1081Q43 1182 57 1264T102 1406T184 1497T307 1530Q381 1530 431 1498T512 1408T556 1268T569 1087Q569 991 557 909T514 767T432 673T305 639ZM821 1516H1016L518 0H324L821 1516ZM1032 -14Q956 -14 906 19T825 110T783 250T770 426Q770 527 784 610T829 752T911 844T1034 877Q1108 877 1158 845T1239 755T1283 615T1296 434Q1296 338 1284 256T1241 114T1159 20T1032 -14ZM307 815Q323 815 332 828T346 873T352 956T354 1083Q354 1159 353 1209T346 1290T331 1333T305 1346Q289 1346 280 1334T266 1293T260 1213T258 1087Q258 1009 259 957T266 873T281 828T307 815ZM1034 162Q1050 162 1059 175T1073 220T1079 302T1081 430Q1081 511 1080 562T1073 642T1058 681T1032 692Q1016 692 1007 680T993 639T987 559T985 434Q985 353 986 301T993 218T1008 175T1034 162Z"/><glyph unicode="&amp;" horiz-adv-x="922" d="M377 -12Q290 -12 222 12T108 83T37 197T12 350Q12 426 29 492T76 616T143 721T221 811Q202 859 187 902T160 989T143 1076T137 1171Q137 1274 166 1343T241 1455T340 1514T444 1532Q522 1532 574 1509T658 1444T703 1348T717 1229Q717 1151 696 1085T640 963T562 860T477 774Q486 751 497 731T520 684Q548 628 576 581T633 492Q648 558 656 635T670 799H881Q871 662 851 541T797 319Q828 284 856 264T911 238V-4Q846 1 787 29T670 109Q616 50 545 19T377 -12ZM408 948Q450 1005 476 1072T502 1208Q502 1261 487 1290T440 1319Q403 1319 385 1283T367 1186Q367 1121 378 1063T408 948ZM403 193Q442 193 470 208T522 252Q480 306 441 369T362 504Q351 524 339 547T317 596Q293 548 277 489T260 367Q260 337 267 306T290 250T334 209T403 193Z"/><glyph unicode="'" horiz-adv-x="362" d="M51 1411V1516H311V1411L293 965H72L51 1411Z"/><glyph unicode="(" horiz-adv-x="557" d="M346 -420Q212 -214 139 26T66 553Q66 840 139 1080T346 1526L537 1462Q490 1364 452 1262T387 1048T345 814T330 553Q330 278 386 54T537 -356L346 -420V-420Z"/><glyph unicode=")" horiz-adv-x="557" d="M20 -354Q67 -257 105 -155T170 59T212 293T227 553Q227 691 213 815T171 1052T106 1267T20 1462L211 1526Q278 1423 330 1312T418 1080T473 828T492 553Q492 409 473 278T418 26T330 -206T211 -420L20 -354Z"/><glyph unicode="*" horiz-adv-x="938" d="M170 836L356 1055L63 1001V1237L371 1178L162 1407L373 1526L471 1247L571 1526L782 1409L582 1182L874 1237V1001L588 1055L780 836L573 717L471 991L373 717L170 836Z"/><glyph unicode="+" horiz-adv-x="819" d="M287 596H49V823H287V1169H530V823H768V596H530V250H287V596Z"/><glyph unicode="," horiz-adv-x="414" d="M190 0H66V301H348V12L225 -246H119L190 0Z"/><glyph unicode="-" horiz-adv-x="508" d="M43 737H465V520H43V737Z"/><glyph unicode="." horiz-adv-x="414" d="M66 301H348V0H66V301Z"/><glyph unicode="/" horiz-adv-x="672" d="M465 1516H690L205 0H-18L465 1516Z"/><glyph unicode="0" horiz-adv-x="797" d="M399 -14Q337 -14 286 1T195 50T124 143T73 286T43 488T33 758Q33 987 55 1136T123 1372T237 1495T399 1530Q491 1530 559 1495T673 1373T740 1136T762 758Q762 605 752 489T723 287T673 143T603 51T511 1T399 -14ZM399 205Q430 205 449 227T479 310T494 479T498 758Q498 929 494 1035T479 1201T448 1282T399 1303Q368 1303 349 1282T318 1202T302 1036T297 758Q297 587 301 479T317 310T348 227T399 205Z"/><glyph unicode="1" horiz-adv-x="612" d="M35 223H195V1262Q180 1247 160 1235T119 1213T77 1198T37 1192V1417Q86 1420 128 1444T199 1516H457V223H590V0H35V223Z"/><glyph unicode="2" horiz-adv-x="774" d="M31 33Q31 165 50 265T100 443T170 581T251 693T331 793T402 894T452 1010T471 1157Q471 1229 453 1266T393 1303Q374 1303 359 1294T331 1257T308 1177T291 1036L47 1053Q55 1158 74 1245T134 1396T237 1495T397 1530Q561 1530 644 1436T727 1153Q727 1072 709 1002T661 869T593 750T514 641T436 538T367 436T317 333T297 223H731V0H31V33Z"/><glyph unicode="3" horiz-adv-x="766" d="M373 -14Q267 -14 204 22T106 117T57 254T33 412L276 434Q284 356 293 310T315 239T343 207T379 199Q401 199 418 210T447 247T465 314T471 414Q471 508 462 566T428 656T362 698T256 709H227V905H264Q327 905 364 913T422 948T449 1023T455 1155Q455 1231 440 1271T377 1311Q359 1311 346 1302T321 1269T302 1206T287 1106L49 1135Q59 1228 83 1301T149 1425T250 1503T387 1530Q482 1530 543 1501T641 1421T691 1301T705 1153Q705 1074 693 1015T656 913T596 845T512 807Q568 789 608 760T673 685T709 574T721 418Q721 327 704 249T647 112T540 20T373 -14Z"/><glyph unicode="4" horiz-adv-x="803" d="M403 328H16V522L381 1516H662V543H772V328H662V0H403V328ZM418 543V1047H416L244 543H418Z"/><glyph unicode="5" horiz-adv-x="776" d="M367 -14Q298 -14 249 3T164 49T107 120T71 208T50 308T37 414L281 436Q288 362 296 316T316 243T342 208T377 199Q405 199 424 216T453 271T468 367T473 508Q473 590 468 645T453 733T427 779T391 793Q353 793 331 758T291 664L66 680L96 1516H688L676 1284H326L307 895Q318 923 334 946T372 987T425 1013T496 1022Q552 1022 595 996T669 911T715 754T731 514Q731 372 711 272T647 108T534 15T367 -14Z"/><glyph unicode="6" horiz-adv-x="764" d="M389 -14Q296 -14 229 28T118 161T54 393T33 731Q33 845 38 948T58 1140T99 1301T166 1424T265 1502T403 1530Q467 1530 516 1511T602 1451T664 1344T707 1184L487 1141Q481 1178 475 1207T459 1256T435 1287T399 1298Q365 1298 345 1275T313 1200T296 1068T289 870Q334 933 381 954T475 975Q530 975 570 956T640 902T687 821T716 717T731 599T735 471Q735 367 716 279T656 125T549 23T389 -14ZM397 190Q422 190 439 204T466 249T482 331T487 455Q487 592 469 654T399 717Q370 717 342 702T289 655Q290 529 295 441T313 297T346 216T397 190Z"/><glyph unicode="7" horiz-adv-x="682" d="M395 1284H16V1516H657V1290L346 0H78L395 1284Z"/><glyph unicode="8" horiz-adv-x="784" d="M393 -25Q292 -25 223 6T111 90T48 212T29 356Q29 427 46 487T92 600T158 698T236 784Q205 818 174 852T119 931T79 1034T63 1174Q63 1255 85 1322T150 1438T254 1513T393 1540Q474 1540 535 1513T637 1438T700 1322T721 1174Q721 1112 707 1058T670 957T615 867T549 788Q589 750 626 711T692 623T738 509T756 356Q756 277 733 208T664 87T550 5T393 -25ZM401 944Q437 993 460 1047T483 1176Q483 1319 399 1319Q359 1319 335 1285T311 1182Q311 1103 337 1048T401 944ZM389 188Q445 188 469 233T494 352Q494 397 486 435T463 506T430 568T389 625Q367 597 348 568T314 505T292 434T283 352Q283 317 289 287T307 235T340 201T389 188Z"/><glyph unicode="9" horiz-adv-x="764" d="M369 -14Q303 -14 252 5T162 65T99 171T59 330L279 373Q283 339 289 307T306 250T332 210T369 195Q401 195 421 222T452 304T467 444T473 645Q428 582 382 562T287 541Q205 541 154 583T75 695T37 855T27 1044Q27 1148 46 1237T106 1391T214 1493T375 1530Q468 1530 535 1488T645 1355T708 1123T729 784Q729 671 724 568T704 376T664 215T599 92T503 14T369 -14ZM365 784Q394 784 420 798T473 850Q472 976 467 1062T449 1202T417 1279T367 1303Q343 1303 326 1293T298 1255T281 1181T276 1061Q276 989 279 937T292 851T319 801T365 784Z"/><glyph unicode=":" horiz-adv-x="414" d="M68 1092H346V793H68V1092ZM68 297H346V0H68V297Z"/><glyph unicode=";" horiz-adv-x="414" d="M68 1092H346V793H68V1092ZM190 0H68V297H346V12L225 -246H119L190 0Z"/><glyph unicode="&lt;" horiz-adv-x="819" d="M115 559V770L694 1159V909L334 664L694 420V170L115 559Z"/><glyph unicode="=" horiz-adv-x="819" d="M57 965H762V750H57V965ZM57 580H762V365H57V580Z"/><glyph unicode="&gt;" horiz-adv-x="819" d="M125 420L485 666L125 909V1159L702 770V559L125 170V420Z"/><glyph unicode="?" horiz-adv-x="668" d="M182 397Q182 493 192 561T218 680T255 769T297 844Q316 877 334 909T366 980T388 1066T397 1176Q397 1203 395 1226T385 1267T366 1293T336 1303Q293 1303 272 1253T242 1087L-4 1112Q6 1223 33 1302T104 1431T209 1506T350 1530Q431 1530 488 1504T583 1432T637 1326T655 1198Q655 1114 641 1053T605 943T556 851T504 760Q486 727 471 692T445 615T427 519T420 397H182ZM160 270H442V0H160V270Z"/><glyph unicode="@" horiz-adv-x="1112" d="M557 -29Q426 -29 330 17T169 160T73 405T41 758Q41 960 78 1108T182 1353T345 1497T557 1544Q673 1544 767 1495T929 1348T1034 1108T1071 778Q1071 655 1056 569T1007 428T922 348T797 322Q747 322 713 334T656 367T620 414T600 469Q590 438 575 412T539 365T494 334T438 322Q384 322 349 352T293 437T267 565T266 729Q277 969 332 1089T498 1210Q546 1210 581 1180T627 1096L635 1192H817L778 590Q774 545 775 517T784 474T802 454T831 449Q854 449 875 458T911 502T936 603T946 784Q946 961 918 1086T837 1290T713 1405T553 1442Q465 1442 393 1409T269 1296T189 1087T160 764Q160 570 188 440T268 231T392 119T553 86Q588 86 631 90T717 103T798 124T862 154L907 51Q880 33 836 18T743 -7T645 -23T557 -29ZM510 500Q532 500 547 512T578 541L614 995Q605 1012 588 1024T555 1036Q538 1036 524 1023T498 978T478 890T465 750Q459 628 467 564T510 500Z"/><glyph unicode="A" horiz-adv-x="772" d="M250 1522H524L772 0H504L461 340H293L250 0H0L250 1522ZM446 522L397 930Q391 973 388 1013T379 1098H377Q372 1051 369 1012T358 930L307 522H446Z"/><glyph unicode="B" horiz-adv-x="788" d="M66 1516H360Q438 1516 505 1497T622 1433T699 1315T727 1133Q727 1042 714 981T677 880T622 818T557 782V778Q598 765 634 742T698 677T742 571T758 410Q758 294 729 216T650 89T532 21T385 0H66V1516ZM362 870Q387 870 407 879T441 911T463 976T471 1083Q471 1147 465 1187T445 1251T411 1282T362 1290H324V870H362ZM375 203Q436 203 466 258T496 442Q496 513 487 560T460 635T418 676T362 688H324V203H375Z"/><glyph unicode="C" horiz-adv-x="772" d="M406 -14Q311 -14 241 26T125 158T57 397T35 758Q35 971 57 1118T125 1357T240 1489T403 1530Q494 1530 558 1502T663 1407T723 1228T745 948L496 938Q494 1040 489 1107T473 1214T445 1270T403 1286Q370 1286 351 1257T321 1165T308 1001T305 758Q305 612 308 510T322 345T353 252T406 223Q433 223 450 237T479 288T497 392T506 565L756 555Q750 438 735 335T683 154T579 31T406 -14Z"/><glyph unicode="D" horiz-adv-x="821" d="M66 1516H326Q401 1516 464 1505T578 1463T668 1379T733 1241T772 1038T786 758Q786 598 772 480T732 277T666 139T575 54T462 12T326 0H66V1516ZM369 223Q418 223 447 249T491 337T511 502T516 758Q516 913 512 1014T492 1176T447 1260T367 1284H330V223H369Z"/><glyph unicode="E" horiz-adv-x="635" d="M66 1516H608V1284H330V913H524V696H330V223H618V0H66V1516Z"/><glyph unicode="F" horiz-adv-x="629" d="M66 1516H621V1284H330V897H545V682H330V0H66V1516Z"/><glyph unicode="G" horiz-adv-x="803" d="M365 -10Q276 -10 213 31T111 163T53 400T35 758Q35 969 57 1116T125 1355T240 1488T403 1530Q494 1530 555 1496T655 1390T713 1209T739 948L496 938Q494 1040 489 1107T473 1214T445 1270T403 1286Q370 1286 350 1256T320 1161T306 997T303 758Q303 619 305 518T319 350T354 251T418 219Q450 219 470 237T503 293T519 391T526 535H408V743H750V0H600L596 170H594Q586 134 567 102T518 44T450 5T365 -10Z"/><glyph unicode="H" horiz-adv-x="829" d="M66 1516H330V911H500V1516H764V0H500V694H330V0H66V1516Z"/><glyph unicode="I" horiz-adv-x="416" d="M76 1516H340V0H76V1516Z"/><glyph unicode="J" horiz-adv-x="608" d="M53 246Q88 232 122 224T195 215Q243 215 263 245T283 344V1516H549V326Q549 224 527 159T464 57T368 5T246 -10Q171 -10 108 4T-10 39L53 246Z"/><glyph unicode="K" horiz-adv-x="743" d="M66 1516H324V874Q363 1050 412 1198L514 1516H741L537 926L772 0H508L360 633L324 518V0H66V1516Z"/><glyph unicode="L" horiz-adv-x="612" d="M66 1516H330V223H604V0H66V1516Z"/><glyph unicode="M" horiz-adv-x="1001" d="M66 1516H379L500 575H502L623 1516H936V0H686V680Q686 761 687 838T688 975H684Q681 933 677 890T669 806T660 728T651 659L553 0H416L315 657Q310 691 307 724T299 795T291 876T283 973H279Q280 957 280 925T281 852T281 767T281 680V0H66V1516Z"/><glyph unicode="N" horiz-adv-x="805" d="M66 1516H313L430 1053Q453 956 477 848T520 633H524Q520 688 518 745T515 856T513 960T512 1049V1516H739V0H522L389 479Q361 579 332 679T285 891H281Q285 854 287 797T290 679T292 564T293 479V0H66V1516Z"/><glyph unicode="O" horiz-adv-x="821" d="M410 -14Q315 -14 245 27T128 161T58 400T35 758Q35 969 58 1116T128 1355T245 1488T410 1530Q504 1530 574 1489T691 1355T761 1116T784 758Q784 547 761 400T692 161T575 28T410 -14ZM410 223Q444 223 464 250T496 341T510 506T514 758Q514 907 511 1008T496 1171T465 1259T410 1286Q377 1286 357 1260T326 1171T311 1008T307 758Q307 609 310 507T325 341T357 251T410 223Z"/><glyph unicode="P" horiz-adv-x="768" d="M66 1516H373Q420 1516 466 1509T554 1481T632 1426T694 1337T735 1206T750 1026Q750 910 734 827T691 687T626 597T546 545T457 522T365 516H326V0H66V1516ZM369 739Q396 739 418 748T455 787T480 873T489 1022Q489 1109 480 1161T455 1240T417 1276T367 1284H326V739H369Z"/><glyph unicode="Q" horiz-adv-x="823" d="M633 -406Q521 -406 456 -374T356 -287T313 -157T303 2Q236 23 186 76T103 222T52 447T35 758Q35 969 58 1116T128 1355T245 1488T410 1530Q504 1530 575 1489T692 1355T762 1116T786 758Q786 579 768 445T714 218T629 72T514 2Q514 -52 522 -86T548 -139T594 -166T664 -174H707V-406H633ZM410 211Q444 211 464 240T496 335T510 504T514 758Q514 907 511 1008T496 1171T465 1259T410 1286Q377 1286 357 1260T326 1171T311 1008T307 758Q307 609 310 505T325 335T357 241T410 211Z"/><glyph unicode="R" horiz-adv-x="782" d="M66 1516H377Q455 1516 523 1490T641 1406T719 1256T748 1034Q748 878 709 779T604 635L766 0H506L373 549H324V0H66V1516ZM373 745Q400 745 420 758T455 803T476 891T483 1030Q483 1108 476 1157T455 1235T419 1273T371 1284H324V745H373Z"/><glyph unicode="S" horiz-adv-x="766" d="M383 -14Q274 -14 207 21T100 121T45 272T20 465L266 483Q274 402 283 349T305 265T337 220T385 207Q430 207 453 240T477 342Q477 390 461 431T418 512T356 590T283 672Q241 720 199 770T122 878T67 1004T45 1157Q45 1243 66 1312T129 1429T232 1504T373 1530Q469 1530 533 1501T637 1414T696 1273T723 1081L475 1059Q470 1140 462 1188T442 1261T414 1293T377 1300Q340 1300 324 1268T307 1184Q307 1128 322 1083T363 997T423 919T494 842Q537 795 580 748T659 643T715 517T737 356Q737 174 646 80T383 -14Z"/><glyph unicode="T" horiz-adv-x="672" d="M203 1284H4V1516H666V1284H469V0H203V1284Z"/><glyph unicode="U" horiz-adv-x="807" d="M401 -14Q304 -14 239 14T135 98T78 236T61 424V1516H326V440Q326 373 329 329T342 257T367 219T410 207Q435 207 451 217T477 254T490 325T494 436V1516H745V430Q745 322 728 240T670 101T564 15T401 -14Z"/><glyph unicode="V" horiz-adv-x="752" d="M0 1516H266L350 766Q359 678 367 579T383 383H387Q393 480 402 579T420 766L502 1516H752L512 -6H238L0 1516Z"/><glyph unicode="W" horiz-adv-x="1087" d="M10 1516H270L332 795Q337 723 342 643T350 475Q351 496 352 507Q353 515 353 514T352 485L381 795L467 1516H655L729 801Q733 758 737 719T744 642T751 563T756 475H758Q760 523 762 562T766 639T771 715T778 799L838 1516H1079L889 -4H645L545 958H543L442 -4H197L10 1516Z"/><glyph unicode="X" horiz-adv-x="748" d="M231 817L25 1516H285L395 1085L500 1516H719L512 799L752 0H492L350 537L211 0H-6L231 817Z"/><glyph unicode="Y" horiz-adv-x="709" d="M219 500L-16 1516H250L328 1110Q339 1042 350 970T369 840H373Q378 899 390 970T416 1110L489 1516H723L485 500V0H219V500Z"/><glyph unicode="Z" horiz-adv-x="682" d="M12 205L387 1290H45V1516H655V1303L281 217H655V0H12V205Z"/><glyph unicode="[" horiz-adv-x="510" d="M59 1516H487V1317H322V-219H487V-410H59V1516Z"/><glyph unicode="\" horiz-adv-x="670" d="M-18 1516H205L690 0H465L-18 1516Z"/><glyph unicode="]" horiz-adv-x="510" d="M23 -219H188V1317H23V1516H453V-410H23V-219Z"/><glyph unicode="^" horiz-adv-x="819" d="M301 1516H518L776 938H559L410 1298L260 938H43L301 1516Z"/><glyph unicode="_" horiz-adv-x="639" d="M-45 -92H684V-289H-45V-92Z"/><glyph unicode="`" horiz-adv-x="684" d="M104 1501H338L444 1192H260L104 1501Z"/><glyph unicode="a" horiz-adv-x="692" d="M219 -8Q177 -8 141 7T80 57T40 144T25 274Q25 443 120 554T399 719V801Q399 858 389 880T350 903Q318 903 303 878T274 793L55 825Q73 909 104 963T176 1049T267 1093T377 1106Q515 1106 576 1034T637 805V266Q637 167 640 105T653 0H414Q410 12 407 23T403 49T400 82T399 125Q370 65 327 29T219 -8ZM322 213Q343 213 365 228T399 258V545Q361 527 336 502T294 445T271 378T264 305Q264 213 322 213Z"/><glyph unicode="b" horiz-adv-x="735" d="M479 -10Q420 -10 377 25T305 123V0H55V1516H305V977Q316 998 332 1020T371 1062T420 1093T481 1106Q532 1106 573 1077T644 983T689 810T705 547Q705 391 689 285T644 113T572 19T479 -10ZM381 211Q399 211 412 223T433 272T445 373T449 545Q449 648 446 712T434 812T413 859T379 872Q354 872 335 856T305 825V256Q322 234 339 223T381 211Z"/><glyph unicode="c" horiz-adv-x="678" d="M354 -14Q192 -14 111 126T29 545Q29 1106 354 1106Q432 1106 486 1079T577 1000T634 874T662 705L422 690Q418 740 415 778T405 841T386 880T354 893Q332 893 317 878T293 823T280 717T276 547Q276 449 279 381T291 269T315 207T354 188Q373 188 386 200T407 240T419 309T426 412L662 403Q656 303 636 226T579 95T486 14T354 -14Z"/><glyph unicode="d" horiz-adv-x="735" d="M254 -10Q203 -10 162 18T91 110T47 281T31 543Q31 699 47 806T92 980T163 1076T256 1106Q315 1106 358 1070T430 971V1516H680V266Q680 167 683 105T698 0H442Q440 14 438 34T434 73Q432 94 430 117Q419 96 403 74T364 33T315 2T254 -10ZM358 213Q384 213 401 229T430 260V825Q415 848 397 862T356 877Q337 877 324 865T303 816T291 715T287 545Q287 441 290 376T302 275T323 226T358 213Z"/><glyph unicode="e" horiz-adv-x="692" d="M354 -14Q29 -14 29 545Q29 1106 354 1106Q425 1106 475 1083T560 1021T615 928T646 813T660 685T664 555V465H270Q270 333 288 261T356 188Q376 188 389 196T412 223T426 274T434 354L664 346Q654 262 632 195T574 82T483 11T354 -14ZM426 623Q425 697 422 749T411 833T390 880T354 895Q333 895 318 882T292 837T277 753T270 623H426Z"/><glyph unicode="f" horiz-adv-x="463" d="M98 897H10V1092H98V1237Q98 1301 110 1353T153 1441T239 1496T377 1516H457V1305H420Q380 1305 363 1285T346 1214V1092H455V897H346V0H98V897Z"/><glyph unicode="g" horiz-adv-x="702" d="M309 -410Q225 -410 166 -392T69 -343T14 -272T-4 -188Q-4 -152 7 -118T38 -53T84 2T139 43Q110 55 91 72T60 111T44 155T39 203Q39 222 45 245T65 292T97 339T141 383Q87 431 58 510T29 707Q29 808 53 883T118 1007T216 1081T338 1106Q468 1106 549 1016Q564 1036 583 1053T622 1084T661 1107T696 1120V862Q693 862 683 862T662 860T641 857T629 854Q637 822 641 786T645 707Q645 602 621 527T556 405T459 335T338 313Q316 313 297 315T258 324Q240 301 240 281Q240 259 251 247T297 227L408 207Q485 195 538 173T623 117T670 32T684 -86Q684 -157 657 -216T580 -319T461 -386T309 -410ZM338 498Q357 498 370 509T392 544T404 609T408 707Q408 767 405 807T393 870T372 903T338 913Q318 913 305 903T283 868T272 804T268 707Q268 649 272 609T284 545T305 509T338 498ZM334 -258Q391 -258 422 -221T453 -117Q453 -66 430 -35T344 6L283 18Q254 -17 240 -58T225 -137Q225 -193 253 -225T334 -258Z"/><glyph unicode="h" horiz-adv-x="739" d="M55 1516H305V973Q322 996 347 1019T403 1062T465 1094T528 1106Q566 1106 595 1097T645 1062T675 993T686 879V0H438V791Q438 833 430 852T399 872Q376 872 349 856T305 821V0H55V1516Z"/><glyph unicode="i" horiz-adv-x="375" d="M61 1475H313V1229H61V1475ZM63 1092H311V0H63V1092Z"/><glyph unicode="j" horiz-adv-x="375" d="M61 1475H313V1229H61V1475ZM-20 -203H10Q27 -203 37 -197T53 -181T61 -156T63 -127V1092H311V-98Q311 -186 296 -245T248 -341T166 -394T47 -410H-20V-203Z"/><glyph unicode="k" horiz-adv-x="668" d="M55 1516H291V618Q306 694 323 760T352 864L426 1092H641L494 682L668 0H430L336 440L291 297V0H55V1516Z"/><glyph unicode="l" horiz-adv-x="375" d="M63 1516H311V0H63V1516Z"/><glyph unicode="m" horiz-adv-x="1114" d="M55 1092H305V973Q322 996 347 1019T401 1062T462 1094T526 1106Q588 1106 625 1078T676 971Q695 996 722 1020T780 1064T842 1094T903 1106Q941 1106 970 1097T1020 1062T1050 993T1061 879V0H813V791Q813 833 805 852T772 872Q752 872 727 857T682 821V0H434V791Q434 833 426 852T395 872Q372 872 347 856T305 821V0H55V1092Z"/><glyph unicode="n" horiz-adv-x="739" d="M55 1092H305V973Q322 996 347 1019T403 1062T465 1094T528 1106Q566 1106 595 1097T645 1062T675 993T686 879V0H438V791Q438 833 430 852T399 872Q376 872 349 856T305 821V0H55V1092Z"/><glyph unicode="o" horiz-adv-x="711" d="M356 -14Q192 -14 111 126T29 545Q29 1106 356 1106Q518 1106 600 966T682 545Q682 267 600 127T356 -14ZM356 188Q379 188 394 204T417 260T429 370T432 547Q432 644 429 710T418 816T395 875T356 893Q333 893 318 878T293 824T280 718T276 547Q276 449 279 381T292 269T316 207T356 188Z"/><glyph unicode="p" horiz-adv-x="735" d="M55 1092H305V977Q316 998 332 1020T371 1062T420 1093T481 1106Q532 1106 573 1077T644 982T689 808T705 545Q705 389 689 283T644 112T572 18T479 -10Q420 -10 377 25T305 123V-410H55V1092ZM381 211Q399 211 412 223T433 272T445 373T449 543Q449 646 446 710T434 811T413 859T379 872Q354 872 335 856T305 825V256Q322 234 339 223T381 211Z"/><glyph unicode="q" horiz-adv-x="735" d="M430 117Q419 96 403 74T364 33T313 2T252 -10Q201 -10 160 18T91 110T47 281T31 543Q31 699 46 806T91 980T161 1076T254 1106Q313 1106 357 1070T430 971V1092H678V-410H430V117ZM356 213Q384 213 401 229T430 260V825Q413 848 396 862T354 877Q335 877 322 865T301 816T289 715T285 545Q285 441 288 376T300 275T322 226T356 213Z"/><glyph unicode="r" horiz-adv-x="532" d="M55 1092H305V924H307Q320 961 339 994T382 1053T434 1093T494 1108Q499 1108 504 1108T514 1106Q519 1105 524 1104L522 862H496Q430 862 382 837T305 780V0H55V1092Z"/><glyph unicode="s" horiz-adv-x="666" d="M334 -18Q247 -18 190 5T96 71T40 173T8 303L225 334Q241 249 268 212T328 174Q359 174 376 192T393 248Q393 277 381 301T349 347T302 391T246 440Q209 473 172 511T104 594T56 696T37 821Q37 902 64 957T133 1047T224 1097T319 1112Q386 1112 439 1096T530 1044T593 951T629 811L416 772Q410 813 403 839T386 881T363 903T332 909Q307 909 291 892T274 842Q274 812 286 786T317 736T363 689T418 641Q455 606 494 571T564 493T615 398T635 279Q635 213 615 158T557 64T462 4T334 -18Z"/><glyph unicode="t" horiz-adv-x="512" d="M342 -10Q287 -10 242 -2T163 30T112 95T94 203V897H8V1092H94V1466H342V1092H483V897H342V291Q342 253 346 230T359 195T383 178T420 174Q440 174 455 176T483 184V2Q469 -3 432 -6T342 -10Z"/><glyph unicode="u" horiz-adv-x="739" d="M211 -14Q173 -14 144 -5T95 30T64 99T53 213V1092H301V295Q301 253 309 233T342 213Q364 213 390 226T434 256V1092H684V0H434V119Q417 96 392 72T336 29T274 -2T211 -14Z"/><glyph unicode="v" horiz-adv-x="674" d="M6 1092H254L309 625Q314 584 318 547T327 471T335 394T344 311H346Q350 356 355 395T364 472T373 547T383 627L434 1092H668L489 -6H184L6 1092Z"/><glyph unicode="w" horiz-adv-x="963" d="M6 1092H254L303 594Q304 570 305 547T308 499T311 443T315 373H317Q320 409 323 439T330 495T336 545T342 592L418 1092H559L635 594Q641 546 647 491T659 373H662Q665 439 668 493T676 596L723 1092H954L803 -4H567L481 608H479L391 -4H158L6 1092Z"/><glyph unicode="x" horiz-adv-x="651" d="M205 555L18 1092H262L346 823L432 1092H633L446 578L649 0H408L305 303L203 0H0L205 555Z"/><glyph unicode="y" horiz-adv-x="655" d="M127 -410Q79 -410 36 -405T-35 -391L8 -182Q25 -185 41 -187T72 -190Q100 -190 119 -186T152 -170T173 -140T188 -90L201 -23L-10 1092H256L309 592Q317 533 321 472T332 342H336Q341 410 347 472T360 592L424 1092H668L432 -92Q417 -170 394 -229T336 -329T249 -389T127 -410Z"/><glyph unicode="z" horiz-adv-x="604" d="M20 166L307 897H51V1092H571V915L283 184H584V0H20V166Z"/><glyph unicode="{" horiz-adv-x="555" d="M412 -410Q270 -410 208 -344T145 -143V283Q145 344 139 378T117 429T78 449T20 453V653Q54 653 78 657T117 679T138 730T145 823V1249Q145 1316 159 1366T207 1449T297 1499T436 1516H545V1317H498Q470 1317 453 1311T425 1288T412 1247T408 1184V825Q408 752 400 706T373 631T328 585T264 555V551Q301 538 328 522T373 476T399 400T408 281V-102Q408 -138 412 -160T426 -196T454 -214T498 -219H545V-410H412V-410Z"/><glyph unicode="|" horiz-adv-x="461" d="M117 1516H344V-410H117V1516Z"/><glyph unicode="}" horiz-adv-x="555" d="M10 -219H57Q83 -219 100 -214T128 -196T143 -161T147 -102V281Q147 354 155 400T182 475T227 521T293 551V555Q255 568 228 584T182 630T156 706T147 825V1184Q147 1221 144 1246T131 1288T103 1310T57 1317H10V1516H119Q203 1516 259 1500T349 1450T397 1366T412 1249V823Q412 764 418 730T439 679T478 658T537 653V453Q502 453 478 450T440 430T419 379T412 283V-143Q412 -278 349 -344T145 -410H10V-219Z"/><glyph unicode="~" horiz-adv-x="819" d="M569 543Q520 543 476 556T394 586T323 617T264 631Q238 631 225 612T205 553L35 575Q50 711 103 784T260 858Q307 858 348 845T427 815T495 786T553 772Q579 772 590 787T610 844L784 821Q776 752 762 700T723 613T661 561T569 543Z"/><glyph unicode=" " horiz-adv-x="279"/><glyph unicode="¡" horiz-adv-x="459" d="M88 1516H371V1245H88V1516ZM113 1118H346L367 0H92L113 1118Z"/><glyph unicode="¢" horiz-adv-x="672" d="M240 1307H457V1090Q505 1074 540 1042T599 961T637 851T657 713L416 698Q413 745 410 782T400 844T382 883T350 897Q328 897 313 880T289 823T276 715T272 547Q272 452 275 384T287 272T311 207T350 186Q388 186 401 239T420 403L657 395Q648 234 601 135T457 2V-266H240V6Q131 49 77 184T23 545Q23 999 240 1085V1307Z"/><glyph unicode="£" horiz-adv-x="889" d="M217 -14Q169 -14 128 -1T57 42T10 115T-8 221Q-8 272 8 313T53 384T121 430T209 446Q257 446 294 429T356 377Q356 452 338 528T293 682H86V881H213Q201 919 190 953T171 1022T159 1093T154 1171Q154 1346 229 1438T451 1530Q523 1530 579 1511T673 1445T732 1320T752 1126L528 1108Q526 1162 523 1201T513 1266T494 1303T461 1315Q433 1315 416 1287T399 1180Q399 1138 404 1101T419 1029T440 957T465 881H672V682H526Q540 623 549 561T559 430Q559 373 551 326T526 238Q540 222 555 213T586 203Q609 203 624 215T648 258T660 341T664 475H874Q874 334 856 240T803 89T719 10T608 -14Q539 -14 494 11T418 74Q378 27 328 7T217 -14ZM240 141Q271 141 294 163T330 225Q311 257 291 280T238 303Q213 303 193 281T172 221Q172 181 192 161T240 141Z"/><glyph unicode="¥" horiz-adv-x="741" d="M238 174H27V375H238V469H27V666H201L2 1516H268L344 1112Q356 1044 368 974T387 846H389Q395 905 407 974T432 1112L508 1516H739L539 666H713V469H504V375H713V174H504V0H238V174Z"/><glyph unicode="¦" horiz-adv-x="461" d="M117 1516H344V678H117V1516ZM117 428H344V-410H117V428Z"/><glyph unicode="§" horiz-adv-x="809" d="M391 -430Q304 -430 244 -404T146 -325T88 -190T61 2L291 23Q295 -48 302 -94T320 -168T347 -206T387 -217Q463 -217 463 -100Q463 -51 450 -11T414 63T362 127T299 186Q257 224 216 263T140 349T83 455T55 588Q49 685 80 768T186 915Q146 971 122 1033T98 1174Q98 1257 117 1325T177 1443T277 1519T420 1546Q507 1546 567 1517T665 1432T723 1296T750 1114L516 1092Q512 1161 506 1207T488 1280T460 1319T422 1331Q346 1331 346 1217Q346 1158 365 1113T416 1028T487 955T565 883Q599 850 632 814T691 735T734 641T756 526Q761 430 730 347T625 201Q665 144 689 81T713 -59Q713 -142 693 -210T633 -328T533 -403T391 -430ZM463 365Q491 386 505 417T518 494Q518 523 510 549T486 600T452 648T410 694Q396 710 381 724T348 754Q320 731 306 699T293 621Q293 562 325 513T403 416Q417 402 432 390T463 365Z"/><glyph unicode="¨" horiz-adv-x="684" d="M383 1436H592V1192H383V1436ZM92 1436H299V1192H92V1436Z"/><glyph unicode="©" horiz-adv-x="934" d="M467 -29Q364 -29 284 31T149 196T66 445T37 754Q37 920 66 1064T151 1315T287 1483T469 1544Q571 1544 650 1484T785 1319T868 1071T897 762Q897 595 868 451T783 200T647 32T467 -29ZM467 66Q551 66 614 121T719 271T782 492T803 762Q803 904 783 1029T722 1248T618 1396T469 1450Q385 1450 322 1395T217 1245T154 1024T133 754Q133 612 153 487T214 268T318 120T467 66ZM471 317Q371 317 319 429T266 768Q266 1221 473 1221Q523 1221 556 1198T611 1133T643 1035T659 911L522 901Q519 932 516 958T508 1003T494 1032T471 1042Q454 1042 444 1023T429 967T422 881T420 768Q420 706 421 656T428 571T444 517T471 498Q496 498 507 530T524 639L664 631Q658 563 646 506T612 406T555 341T471 317Z"/><glyph unicode="ª" horiz-adv-x="575" d="M193 729Q164 729 139 740T95 775T66 837T55 930Q55 1044 122 1127T317 1251V1307Q317 1341 312 1356T289 1372Q269 1372 260 1354T242 1292L82 1323Q95 1385 116 1425T167 1488T232 1521T309 1530Q411 1530 455 1478T500 1315V930Q500 862 503 817T514 737L328 739Q325 753 322 769T319 809Q298 774 268 752T193 729ZM268 893Q281 893 294 901T317 918V1114Q270 1089 252 1045T233 952Q233 893 268 893Z"/><glyph unicode="«" horiz-adv-x="723" d="M332 549L473 1092H696L555 547L696 0H473L332 549ZM14 549L158 1092H381L240 547L381 0H158L14 549Z"/><glyph unicode="®" horiz-adv-x="678" d="M340 598Q272 598 223 634T143 733T96 883T80 1069Q80 1169 96 1256T145 1407T227 1507T342 1544Q408 1544 456 1508T537 1409T584 1260T600 1073Q600 972 584 886T536 735T454 635T340 598ZM340 657Q391 657 428 690T490 780T527 912T539 1073Q539 1159 528 1234T493 1365T432 1453T342 1485Q290 1485 252 1452T190 1362T153 1230T141 1069Q141 984 152 909T188 778T250 690T340 657ZM231 1339H336Q395 1339 429 1301T463 1171Q463 1111 452 1076T420 1022L469 823H377L334 1004H322V823H231V1339ZM332 1096Q352 1096 360 1111T369 1169Q369 1210 361 1224T332 1239H322V1096H332Z"/><glyph unicode="¯" horiz-adv-x="684" d="M123 1395H561V1192H123V1395Z"/><glyph unicode="°" horiz-adv-x="451" d="M225 973Q177 973 141 994T81 1052T45 1140T33 1251Q33 1312 45 1364T81 1453T141 1511T225 1532Q273 1532 309 1511T369 1453T405 1364T418 1251Q418 1191 406 1140T369 1052T309 994T225 973ZM225 1100Q250 1100 257 1138T264 1251Q264 1327 257 1367T225 1407Q202 1407 194 1367T186 1251Q186 1176 194 1138T225 1100Z"/><glyph unicode="±" horiz-adv-x="819" d="M45 311H293V670H45V885H293V1237H524V885H772V670H524V311H772V104H45V311Z"/><glyph unicode="²" horiz-adv-x="604" d="M74 596Q74 686 87 752T123 868T173 955T229 1026Q252 1054 273 1080T311 1136T338 1201T348 1282Q348 1370 303 1370Q290 1370 281 1365T264 1341T252 1291T242 1204L72 1214Q76 1280 90 1337T131 1435T200 1500T305 1524Q419 1524 471 1461T524 1280Q524 1223 510 1174T473 1083T422 1002T367 930Q329 882 299 836T264 733H526V571H74V596Z"/><glyph unicode="³" horiz-adv-x="600" d="M291 565Q223 565 181 587T114 645T77 731T59 834L233 850Q237 802 242 774T255 732T272 715T293 711Q306 711 316 717T332 738T342 780T346 846Q346 898 341 929T321 976T282 996T217 1001H195V1147H221Q260 1147 282 1150T317 1166T332 1203T336 1270Q336 1327 329 1349T293 1372Q282 1372 274 1368T260 1351T249 1315T240 1255L70 1272Q84 1393 141 1458T299 1524Q359 1524 400 1506T466 1456T503 1381T514 1288Q514 1191 485 1142T399 1075Q433 1064 456 1047T495 1001T517 932T524 836Q524 778 513 729T474 643T402 586T291 565Z"/><glyph unicode="´" horiz-adv-x="684" d="M348 1501H582L426 1192H242L348 1501Z"/><glyph unicode="µ" horiz-adv-x="741" d="M55 1092H303V279Q303 237 311 216T342 195Q365 195 392 208T436 240V1092H684V0H436V109Q419 86 392 62T332 27Q324 24 317 24T303 25V-410H55V1092Z"/><glyph unicode="¶" horiz-adv-x="952" d="M315 702Q257 703 206 729T115 806T54 932T31 1106Q31 1194 53 1269T112 1399T198 1485T303 1516H866V-410H621V1286H561V-410H315V702Z"/><glyph unicode="·" horiz-adv-x="489" d="M102 803H387V502H102V803Z"/><glyph unicode="¸" horiz-adv-x="684" d="M356 -406Q288 -406 234 -389T133 -348L182 -238Q194 -245 213 -253T254 -270T302 -283T354 -289Q376 -289 393 -275T410 -229Q410 -206 400 -194T373 -182Q359 -182 348 -189T326 -213L238 -176L287 2H406L381 -92Q390 -80 412 -72T455 -63Q478 -63 499 -72T536 -100T563 -148T573 -217Q573 -255 561 -289T523 -350T456 -391T356 -406Z"/><glyph unicode="¹" horiz-adv-x="465" d="M59 733H152V1319Q130 1307 108 1301T61 1294V1456Q97 1459 120 1472T160 1516H338V733H414V571H59V733Z"/><glyph unicode="º" horiz-adv-x="565" d="M283 723Q167 723 107 825T47 1126Q47 1326 107 1428T283 1530Q398 1530 458 1428T518 1126Q518 928 458 826T283 723ZM283 887Q299 887 308 898T322 937T328 1011T330 1126Q330 1190 329 1234T324 1307T310 1347T283 1360Q268 1360 259 1349T244 1312T238 1240T236 1126Q236 1062 237 1017T243 943T257 901T283 887Z"/><glyph unicode="»" horiz-adv-x="723" d="M483 547L342 1092H565L709 547L565 0H342L483 547ZM168 547L25 1092H250L391 547L250 0H25L168 547Z"/><glyph unicode="¼" horiz-adv-x="1280" d="M748 1516H946L551 0H350L748 1516ZM68 733H160V1319Q138 1307 116 1301T70 1294V1456Q105 1459 128 1472T168 1516H346V733H422V571H68V733ZM1004 193H750V326L975 944H1180V340H1247V193H1180V0H1004V193ZM1014 340V651L905 340H1014Z"/><glyph unicode="½" horiz-adv-x="1305" d="M743 1516H944L549 0H346L743 1516ZM68 733H160V1319Q138 1307 116 1301T70 1294V1456Q105 1459 128 1472T168 1516H346V733H422V571H68V733ZM805 25Q805 112 818 177T853 291T902 378T956 449Q979 477 1001 504T1040 562T1068 629T1079 711Q1079 797 1034 797Q1021 797 1012 792T995 769T983 718T973 631L803 641Q807 708 821 765T862 863T931 928T1036 952Q1150 952 1203 889T1257 709Q1257 649 1242 599T1202 504T1149 422T1092 348Q1056 302 1029 257T995 160H1257V0H805V25Z"/><glyph unicode="¾" horiz-adv-x="1380" d="M821 1516H1020L625 0H424L821 1516ZM303 565Q235 565 193 587T126 645T90 731T72 834L246 850Q250 802 255 774T267 732T284 715T305 711Q318 711 328 717T344 738T354 780T358 846Q358 898 353 929T333 976T294 996T229 1001H207V1147H233Q272 1147 294 1150T329 1166T344 1203T348 1270Q348 1327 341 1349T305 1372Q294 1372 286 1368T272 1351T261 1315T252 1255L82 1272Q96 1393 153 1458T311 1524Q371 1524 412 1506T478 1456T515 1381T526 1288Q526 1191 497 1142T412 1075Q446 1064 469 1047T508 1001T530 932T537 836Q537 778 525 729T486 643T414 586T303 565ZM1083 193H829V326L1055 944H1260V340H1327V193H1260V0H1083V193ZM1094 340V651L985 340H1094Z"/><glyph unicode="¿" horiz-adv-x="676" d="M225 1516H508V1245H225V1516ZM317 -14Q236 -14 179 12T84 84T30 189T12 317Q12 401 26 462T62 572T111 665T164 756Q182 789 197 824T223 901T241 996T248 1118H485Q485 1022 475 954T449 835T412 746T371 672Q351 639 333 607T301 536T279 450T270 340Q270 284 283 249T334 213Q355 213 370 225T396 263T414 329T426 428L672 403Q662 293 635 214T564 85T458 10T317 -14Z"/><glyph unicode="À" horiz-adv-x="772" d="M250 1522H524L772 0H504L461 340H293L250 0H0L250 1522ZM446 522L397 930Q391 973 388 1013T379 1098H377Q372 1051 369 1012T358 930L307 522H446ZM143 1898H377L483 1589H299L143 1898Z"/><glyph unicode="Á" horiz-adv-x="772" d="M250 1522H524L772 0H504L461 340H293L250 0H0L250 1522ZM446 522L397 930Q391 973 388 1013T379 1098H377Q372 1051 369 1012T358 930L307 522H446ZM397 1898H631L475 1589H291L397 1898Z"/><glyph unicode="Â" horiz-adv-x="772" d="M250 1522H524L772 0H504L461 340H293L250 0H0L250 1522ZM446 522L397 930Q391 973 388 1013T379 1098H377Q372 1051 369 1012T358 930L307 522H446ZM301 1898H471L614 1579H463L385 1708L305 1579H156L301 1898Z"/><glyph unicode="Ã" horiz-adv-x="772" d="M250 1522H524L772 0H504L461 340H293L250 0H0L250 1522ZM446 522L397 930Q391 973 388 1013T379 1098H377Q372 1051 369 1012T358 930L307 522H446ZM496 1554Q457 1554 429 1572T377 1611T335 1651T297 1669Q274 1669 263 1645T252 1558H115Q115 1730 155 1807T281 1884Q318 1884 346 1866T397 1827T439 1787T477 1769Q502 1769 513 1793T524 1880H661Q661 1793 651 1731T620 1630T568 1573T496 1554Z"/><glyph unicode="Ä" horiz-adv-x="772" d="M250 1522H524L772 0H504L461 340H293L250 0H0L250 1522ZM446 522L397 930Q391 973 388 1013T379 1098H377Q372 1051 369 1012T358 930L307 522H446ZM426 1833H635V1589H426V1833ZM135 1833H342V1589H135V1833Z"/><glyph unicode="Å" horiz-adv-x="772" d="M246 1499Q230 1522 221 1555T211 1632Q211 1684 223 1726T259 1797T314 1842T387 1858Q424 1858 456 1843T512 1798T549 1726T563 1632Q563 1587 554 1554T528 1495L772 0H504L461 340H293L250 0H0L246 1499ZM387 1524Q416 1524 429 1553T442 1628Q442 1675 429 1704T387 1733Q358 1733 345 1704T332 1628Q332 1583 345 1554T387 1524ZM446 522L397 930Q391 973 388 1013T379 1098H377Q372 1051 369 1012T358 930L307 522H446Z"/><glyph unicode="Æ" horiz-adv-x="1053" d="M346 1516H1026V1284H748V913H942V696H748V223H1034V0H481V340H315L242 0H4L346 1516ZM481 522V1190L354 522H481Z"/><glyph unicode="Ç" horiz-adv-x="772" d="M406 -14Q311 -14 241 26T125 158T57 397T35 758Q35 971 57 1118T125 1357T240 1489T403 1530Q494 1530 558 1502T663 1407T723 1228T745 948L496 938Q494 1040 489 1107T473 1214T445 1270T403 1286Q370 1286 351 1257T321 1165T308 1001T305 758Q305 612 308 510T322 345T353 252T406 223Q433 223 450 237T479 288T497 392T506 565L756 555Q750 438 735 335T683 154T579 31T406 -14ZM399 -406Q331 -406 277 -389T176 -348L225 -238Q237 -245 256 -253T297 -270T345 -283T397 -289Q419 -289 436 -275T453 -229Q453 -206 443 -194T416 -182Q402 -182 391 -189T369 -213L281 -176L330 2H449L424 -92Q433 -80 455 -72T498 -63Q521 -63 542 -72T579 -100T606 -148T616 -217Q616 -255 604 -289T566 -350T499 -391T399 -406Z"/><glyph unicode="È" horiz-adv-x="635" d="M66 1516H608V1284H330V913H524V696H330V223H618V0H66V1516ZM103 1898H337L443 1589H259L103 1898Z"/><glyph unicode="É" horiz-adv-x="635" d="M333 1898H567L411 1589H227L333 1898ZM66 1516H608V1284H330V913H524V696H330V223H618V0H66V1516Z"/><glyph unicode="Ê" horiz-adv-x="635" d="M257 1898H427L570 1579H419L341 1708L261 1579H112L257 1898ZM66 1516H608V1284H330V913H524V696H330V223H618V0H66V1516Z"/><glyph unicode="Ë" horiz-adv-x="635" d="M382 1833H591V1589H382V1833ZM91 1833H298V1589H91V1833ZM66 1516H608V1284H330V913H524V696H330V223H618V0H66V1516Z"/><glyph unicode="Ì" horiz-adv-x="416" d="M76 1516H340V0H76V1516ZM-28 1898H206L312 1589H128L-28 1898Z"/><glyph unicode="Í" horiz-adv-x="416" d="M76 1516H340V0H76V1516ZM218 1898H452L296 1589H112L218 1898Z"/><glyph unicode="Î" horiz-adv-x="416" d="M76 1516H340V0H76V1516ZM126 1898H296L439 1579H288L210 1708L130 1579H-19L126 1898Z"/><glyph unicode="Ï" horiz-adv-x="416" d="M76 1516H340V0H76V1516ZM251 1833H460V1589H251V1833ZM-40 1833H167V1589H-40V1833Z"/><glyph unicode="Ð" horiz-adv-x="821" d="M66 696H2V911H66V1516H326Q401 1516 464 1505T578 1463T668 1379T733 1241T772 1038T786 758Q786 598 772 480T732 277T666 139T575 54T462 12T326 0H66V696ZM369 223Q418 223 447 249T491 337T511 502T516 758Q516 913 512 1014T492 1176T447 1260T367 1284H330V911H410V696H330V223H369Z"/><glyph unicode="Ñ" horiz-adv-x="805" d="M66 1516H313L430 1053Q453 956 477 848T520 633H524Q520 688 518 745T515 856T513 960T512 1049V1516H739V0H522L389 479Q361 579 332 679T285 891H281Q285 854 287 797T290 679T292 564T293 479V0H66V1516ZM512 1554Q473 1554 445 1572T393 1611T351 1651T313 1669Q290 1669 279 1645T268 1558H131Q131 1730 171 1807T297 1884Q334 1884 362 1866T413 1827T455 1787T493 1769Q518 1769 529 1793T540 1880H677Q677 1793 667 1731T636 1630T584 1573T512 1554Z"/><glyph unicode="Ò" horiz-adv-x="821" d="M410 -14Q315 -14 245 27T128 161T58 400T35 758Q35 969 58 1116T128 1355T245 1488T410 1530Q504 1530 574 1489T691 1355T761 1116T784 758Q784 547 761 400T692 161T575 28T410 -14ZM410 223Q444 223 464 250T496 341T510 506T514 758Q514 907 511 1008T496 1171T465 1259T410 1286Q377 1286 357 1260T326 1171T311 1008T307 758Q307 609 310 507T325 341T357 251T410 223ZM172 1898H406L512 1589H328L172 1898Z"/><glyph unicode="Ó" horiz-adv-x="821" d="M418 1898H652L496 1589H312L418 1898ZM410 -14Q315 -14 245 27T128 161T58 400T35 758Q35 969 58 1116T128 1355T245 1488T410 1530Q504 1530 574 1489T691 1355T761 1116T784 758Q784 547 761 400T692 161T575 28T410 -14ZM410 223Q444 223 464 250T496 341T510 506T514 758Q514 907 511 1008T496 1171T465 1259T410 1286Q377 1286 357 1260T326 1171T311 1008T307 758Q307 609 310 507T325 341T357 251T410 223Z"/><glyph unicode="Ô" horiz-adv-x="821" d="M326 1898H496L639 1579H488L410 1708L330 1579H181L326 1898ZM410 -14Q315 -14 245 27T128 161T58 400T35 758Q35 969 58 1116T128 1355T245 1488T410 1530Q504 1530 574 1489T691 1355T761 1116T784 758Q784 547 761 400T692 161T575 28T410 -14ZM410 223Q444 223 464 250T496 341T510 506T514 758Q514 907 511 1008T496 1171T465 1259T410 1286Q377 1286 357 1260T326 1171T311 1008T307 758Q307 609 310 507T325 341T357 251T410 223Z"/><glyph unicode="Õ" horiz-adv-x="821" d="M410 -14Q315 -14 245 27T128 161T58 400T35 758Q35 969 58 1116T128 1355T245 1488T410 1530Q504 1530 574 1489T691 1355T761 1116T784 758Q784 547 761 400T692 161T575 28T410 -14ZM410 223Q444 223 464 250T496 341T510 506T514 758Q514 907 511 1008T496 1171T465 1259T410 1286Q377 1286 357 1260T326 1171T311 1008T307 758Q307 609 310 507T325 341T357 251T410 223ZM521 1554Q482 1554 454 1572T402 1611T360 1651T322 1669Q299 1669 288 1645T277 1558H140Q140 1730 180 1807T306 1884Q343 1884 371 1866T422 1827T464 1787T502 1769Q527 1769 538 1793T549 1880H686Q686 1793 676 1731T645 1630T593 1573T521 1554Z"/><glyph unicode="Ö" horiz-adv-x="821" d="M451 1833H660V1589H451V1833ZM160 1833H367V1589H160V1833ZM410 -14Q315 -14 245 27T128 161T58 400T35 758Q35 969 58 1116T128 1355T245 1488T410 1530Q504 1530 574 1489T691 1355T761 1116T784 758Q784 547 761 400T692 161T575 28T410 -14ZM410 223Q444 223 464 250T496 341T510 506T514 758Q514 907 511 1008T496 1171T465 1259T410 1286Q377 1286 357 1260T326 1171T311 1008T307 758Q307 609 310 507T325 341T357 251T410 223Z"/><glyph unicode="×" horiz-adv-x="819" d="M63 461L268 664L61 868L207 1012L410 803L614 1012L756 868L549 664L758 461L612 317L410 522L205 317L63 461Z"/><glyph unicode="Ø" horiz-adv-x="821" d="M725 1272Q754 1181 769 1055T784 758Q784 547 761 400T692 161T575 28T410 -14Q348 -14 297 3T203 59L137 -92L-23 -16L92 250Q63 341 49 466T35 758Q35 969 58 1116T128 1355T245 1488T410 1530Q533 1530 612 1460L678 1612L838 1536L725 1272ZM324 328Q338 274 358 249T410 223Q445 223 467 254T501 351T517 518T522 758V811L324 328ZM494 1194Q469 1286 410 1286Q375 1286 353 1256T319 1161T302 997T297 758V719L494 1194Z"/><glyph unicode="Ù" horiz-adv-x="807" d="M401 -14Q304 -14 239 14T135 98T78 236T61 424V1516H326V440Q326 373 329 329T342 257T367 219T410 207Q435 207 451 217T477 254T490 325T494 436V1516H745V430Q745 322 728 240T670 101T564 15T401 -14ZM163 1898H397L503 1589H319L163 1898Z"/><glyph unicode="Ú" horiz-adv-x="807" d="M409 1898H643L487 1589H303L409 1898ZM401 -14Q304 -14 239 14T135 98T78 236T61 424V1516H326V440Q326 373 329 329T342 257T367 219T410 207Q435 207 451 217T477 254T490 325T494 436V1516H745V430Q745 322 728 240T670 101T564 15T401 -14Z"/><glyph unicode="Û" horiz-adv-x="807" d="M317 1898H487L630 1579H479L401 1708L321 1579H172L317 1898ZM401 -14Q304 -14 239 14T135 98T78 236T61 424V1516H326V440Q326 373 329 329T342 257T367 219T410 207Q435 207 451 217T477 254T490 325T494 436V1516H745V430Q745 322 728 240T670 101T564 15T401 -14Z"/><glyph unicode="Ü" horiz-adv-x="807" d="M449 1833H658V1589H449V1833ZM158 1833H365V1589H158V1833ZM401 -14Q304 -14 239 14T135 98T78 236T61 424V1516H326V440Q326 373 329 329T342 257T367 219T410 207Q435 207 451 217T477 254T490 325T494 436V1516H745V430Q745 322 728 240T670 101T564 15T401 -14Z"/><glyph unicode="Ý" horiz-adv-x="709" d="M219 500L-16 1516H250L328 1110Q339 1042 350 970T369 840H373Q378 899 390 970T416 1110L489 1516H723L485 500V0H219V500ZM360 1898H594L438 1589H254L360 1898Z"/><glyph unicode="Þ" horiz-adv-x="774" d="M66 1516H326V1307H373Q420 1307 466 1299T554 1271T632 1216T694 1127T735 996T750 817Q750 700 734 617T691 478T626 387T546 336T457 313T365 307H326V0H66V1516ZM369 530Q396 530 417 539T452 578T475 664T483 813Q483 901 475 953T452 1032T416 1067T367 1075H326V530H369Z"/><glyph unicode="ß" horiz-adv-x="795" d="M506 -20Q447 -20 414 -6T360 29L403 229Q413 220 423 216T449 211Q465 211 479 223T503 264T518 337T524 449Q524 612 484 694T377 782V940Q396 943 415 954T449 991T473 1057T483 1161Q483 1252 466 1292T410 1333Q390 1333 376 1322T353 1285T339 1215T334 1106V0H82V1100Q82 1198 98 1275T151 1406T250 1488T403 1516Q556 1516 634 1434T713 1190Q713 1060 672 977T559 866Q658 837 712 725T766 410Q766 315 750 236T700 100T619 12T506 -20Z"/><glyph unicode="à" horiz-adv-x="692" d="M219 -8Q177 -8 141 7T80 57T40 144T25 274Q25 443 120 554T399 719V801Q399 858 389 880T350 903Q318 903 303 878T274 793L55 825Q73 909 104 963T176 1049T267 1093T377 1106Q515 1106 576 1034T637 805V266Q637 167 640 105T653 0H414Q410 12 407 23T403 49T400 82T399 125Q370 65 327 29T219 -8ZM322 213Q343 213 365 228T399 258V545Q361 527 336 502T294 445T271 378T264 305Q264 213 322 213ZM139 1501H373L479 1192H295L139 1501Z"/><glyph unicode="á" horiz-adv-x="692" d="M219 -8Q177 -8 141 7T80 57T40 144T25 274Q25 443 120 554T399 719V801Q399 858 389 880T350 903Q318 903 303 878T274 793L55 825Q73 909 104 963T176 1049T267 1093T377 1106Q515 1106 576 1034T637 805V266Q637 167 640 105T653 0H414Q410 12 407 23T403 49T400 82T399 125Q370 65 327 29T219 -8ZM322 213Q343 213 365 228T399 258V545Q361 527 336 502T294 445T271 378T264 305Q264 213 322 213ZM352 1501H586L430 1192H246L352 1501Z"/><glyph unicode="â" horiz-adv-x="692" d="M219 -8Q177 -8 141 7T80 57T40 144T25 274Q25 443 120 554T399 719V801Q399 858 389 880T350 903Q318 903 303 878T274 793L55 825Q73 909 104 963T176 1049T267 1093T377 1106Q515 1106 576 1034T637 805V266Q637 167 640 105T653 0H414Q410 12 407 23T403 49T400 82T399 125Q370 65 327 29T219 -8ZM322 213Q343 213 365 228T399 258V545Q361 527 336 502T294 445T271 378T264 305Q264 213 322 213ZM270 1501H440L583 1182H432L354 1311L274 1182H125L270 1501Z"/><glyph unicode="ã" horiz-adv-x="692" d="M219 -8Q177 -8 141 7T80 57T40 144T25 274Q25 443 120 554T399 719V801Q399 858 389 880T350 903Q318 903 303 878T274 793L55 825Q73 909 104 963T176 1049T267 1093T377 1106Q515 1106 576 1034T637 805V266Q637 167 640 105T653 0H414Q410 12 407 23T403 49T400 82T399 125Q370 65 327 29T219 -8ZM322 213Q343 213 365 228T399 258V545Q361 527 336 502T294 445T271 378T264 305Q264 213 322 213ZM471 1157Q432 1157 404 1175T352 1214T310 1254T272 1272Q249 1272 238 1248T227 1161H90Q90 1333 130 1410T256 1487Q293 1487 321 1469T372 1430T414 1390T452 1372Q477 1372 488 1396T499 1483H636Q636 1396 626 1334T595 1233T543 1176T471 1157Z"/><glyph unicode="ä" horiz-adv-x="692" d="M219 -8Q177 -8 141 7T80 57T40 144T25 274Q25 443 120 554T399 719V801Q399 858 389 880T350 903Q318 903 303 878T274 793L55 825Q73 909 104 963T176 1049T267 1093T377 1106Q515 1106 576 1034T637 805V266Q637 167 640 105T653 0H414Q410 12 407 23T403 49T400 82T399 125Q370 65 327 29T219 -8ZM322 213Q343 213 365 228T399 258V545Q361 527 336 502T294 445T271 378T264 305Q264 213 322 213ZM399 1436H608V1192H399V1436ZM108 1436H315V1192H108V1436Z"/><glyph unicode="å" horiz-adv-x="692" d="M219 -8Q177 -8 141 7T80 57T40 144T25 274Q25 443 120 554T399 719V801Q399 858 389 880T350 903Q318 903 303 878T274 793L55 825Q73 909 104 963T176 1049T267 1093T377 1106Q515 1106 576 1034T637 805V266Q637 167 640 105T653 0H414Q410 12 407 23T403 49T400 82T399 125Q370 65 327 29T219 -8ZM322 213Q343 213 365 228T399 258V545Q361 527 336 502T294 445T271 378T264 305Q264 213 322 213ZM348 1162Q308 1162 276 1178T222 1224T187 1296T174 1389Q174 1494 221 1554T348 1614Q386 1614 418 1599T473 1554T510 1483T524 1389Q524 1338 512 1296T477 1224T422 1178T348 1162ZM348 1278Q379 1278 391 1308T403 1385Q403 1430 391 1459T348 1489Q319 1489 307 1460T295 1385Q295 1338 307 1308T348 1278Z"/><glyph unicode="æ" horiz-adv-x="1047" d="M457 154Q425 84 366 39T217 -6Q175 -6 140 9T79 58T39 145T25 274Q25 443 120 554T399 719V801Q399 858 389 880T350 903Q318 903 303 878T274 793L55 825Q73 909 103 963T175 1049T266 1093T375 1106Q440 1106 480 1086T543 1024Q569 1058 610 1082T717 1106Q785 1106 834 1083T916 1021T970 928T1000 813T1014 685T1018 555V465H625Q625 333 642 261T711 188Q731 188 744 196T766 223T780 274T788 354L1018 346Q1008 262 986 195T928 82T837 11T709 -14Q619 -14 557 26T457 154ZM780 623Q779 696 776 747T765 832T744 880T709 895Q688 895 673 882T648 837T632 753T625 623H780ZM399 545Q362 527 337 502T295 445T272 378T264 305Q264 213 322 213Q345 213 373 227T422 270Q411 323 405 379T397 508Q397 517 397 526T399 545Z"/><glyph unicode="ç" horiz-adv-x="678" d="M354 -14Q192 -14 111 126T29 545Q29 1106 354 1106Q432 1106 486 1079T577 1000T634 874T662 705L422 690Q418 740 415 778T405 841T386 880T354 893Q332 893 317 878T293 823T280 717T276 547Q276 449 279 381T291 269T315 207T354 188Q373 188 386 200T407 240T419 309T426 412L662 403Q656 303 636 226T579 95T486 14T354 -14ZM611 -406Q543 -406 489 -389T388 -348L437 -238Q449 -245 468 -253T509 -270T557 -283T609 -289Q631 -289 648 -275T665 -229Q665 -206 655 -194T628 -182Q614 -182 603 -189T581 -213L493 -176L542 2H661L636 -92Q645 -80 667 -72T710 -63Q733 -63 754 -72T791 -100T818 -148T828 -217Q828 -255 816 -289T778 -350T711 -391T611 -406Z"/><glyph unicode="è" horiz-adv-x="692" d="M354 -14Q29 -14 29 545Q29 1106 354 1106Q425 1106 475 1083T560 1021T615 928T646 813T660 685T664 555V465H270Q270 333 288 261T356 188Q376 188 389 196T412 223T426 274T434 354L664 346Q654 262 632 195T574 82T483 11T354 -14ZM426 623Q425 697 422 749T411 833T390 880T354 895Q333 895 318 882T292 837T277 753T270 623H426ZM108 1501H342L448 1192H264L108 1501Z"/><glyph unicode="é" horiz-adv-x="692" d="M352 1501H586L430 1192H246L352 1501ZM354 -14Q29 -14 29 545Q29 1106 354 1106Q425 1106 475 1083T560 1021T615 928T646 813T660 685T664 555V465H270Q270 333 288 261T356 188Q376 188 389 196T412 223T426 274T434 354L664 346Q654 262 632 195T574 82T483 11T354 -14ZM426 623Q425 697 422 749T411 833T390 880T354 895Q333 895 318 882T292 837T277 753T270 623H426Z"/><glyph unicode="ê" horiz-adv-x="692" d="M262 1501H432L575 1182H424L346 1311L266 1182H117L262 1501ZM354 -14Q29 -14 29 545Q29 1106 354 1106Q425 1106 475 1083T560 1021T615 928T646 813T660 685T664 555V465H270Q270 333 288 261T356 188Q376 188 389 196T412 223T426 274T434 354L664 346Q654 262 632 195T574 82T483 11T354 -14ZM426 623Q425 697 422 749T411 833T390 880T354 895Q333 895 318 882T292 837T277 753T270 623H426Z"/><glyph unicode="ë" horiz-adv-x="692" d="M387 1436H596V1192H387V1436ZM96 1436H303V1192H96V1436ZM354 -14Q29 -14 29 545Q29 1106 354 1106Q425 1106 475 1083T560 1021T615 928T646 813T660 685T664 555V465H270Q270 333 288 261T356 188Q376 188 389 196T412 223T426 274T434 354L664 346Q654 262 632 195T574 82T483 11T354 -14ZM426 623Q425 697 422 749T411 833T390 880T354 895Q333 895 318 882T292 837T277 753T270 623H426Z"/><glyph unicode="ì" horiz-adv-x="375" d="M63 1092H311V0H63V1092ZM-53 1501H181L287 1192H103L-53 1501Z"/><glyph unicode="í" horiz-adv-x="375" d="M199 1501H433L277 1192H93L199 1501ZM63 1092H311V0H63V1092Z"/><glyph unicode="î" horiz-adv-x="375" d="M105 1501H275L418 1182H267L189 1311L109 1182H-40L105 1501ZM63 1092H311V0H63V1092Z"/><glyph unicode="ï" horiz-adv-x="375" d="M230 1436H439V1192H230V1436ZM-61 1436H146V1192H-61V1436ZM63 1092H311V0H63V1092Z"/><glyph unicode="ð" horiz-adv-x="715" d="M365 -14Q277 -14 214 23T109 130T49 303T29 537Q29 801 90 940T279 1079Q317 1079 347 1068T399 1036T435 990T457 932Q447 984 429 1054T377 1206L274 1161L225 1280L322 1323Q305 1357 284 1390T240 1458L430 1530Q455 1499 477 1468T520 1403L627 1448L674 1329L582 1284Q609 1224 628 1154T660 1000T679 814T686 592Q686 440 669 326T613 137T514 24T365 -14ZM358 209Q383 209 400 222T427 271T442 372T446 539Q446 630 442 691T428 788T401 840T358 856Q333 856 316 842T288 792T273 695T268 539Q268 444 272 381T286 280T314 225T358 209Z"/><glyph unicode="ñ" horiz-adv-x="739" d="M55 1092H305V973Q322 996 347 1019T403 1062T465 1094T528 1106Q566 1106 595 1097T645 1062T675 993T686 879V0H438V791Q438 833 430 852T399 872Q376 872 349 856T305 821V0H55V1092ZM480 1157Q441 1157 413 1175T361 1214T319 1254T281 1272Q258 1272 247 1248T236 1161H99Q99 1333 139 1410T265 1487Q302 1487 330 1469T381 1430T423 1390T461 1372Q486 1372 497 1396T508 1483H645Q645 1396 635 1334T604 1233T552 1176T480 1157Z"/><glyph unicode="ò" horiz-adv-x="711" d="M356 -14Q192 -14 111 126T29 545Q29 1106 356 1106Q518 1106 600 966T682 545Q682 267 600 127T356 -14ZM356 188Q379 188 394 204T417 260T429 370T432 547Q432 644 429 710T418 816T395 875T356 893Q333 893 318 878T293 824T280 718T276 547Q276 449 279 381T292 269T316 207T356 188ZM116 1501H350L456 1192H272L116 1501Z"/><glyph unicode="ó" horiz-adv-x="711" d="M362 1501H596L440 1192H256L362 1501ZM356 -14Q192 -14 111 126T29 545Q29 1106 356 1106Q518 1106 600 966T682 545Q682 267 600 127T356 -14ZM356 188Q379 188 394 204T417 260T429 370T432 547Q432 644 429 710T418 816T395 875T356 893Q333 893 318 878T293 824T280 718T276 547Q276 449 279 381T292 269T316 207T356 188Z"/><glyph unicode="ô" horiz-adv-x="711" d="M270 1501H440L583 1182H432L354 1311L274 1182H125L270 1501ZM356 -14Q192 -14 111 126T29 545Q29 1106 356 1106Q518 1106 600 966T682 545Q682 267 600 127T356 -14ZM356 188Q379 188 394 204T417 260T429 370T432 547Q432 644 429 710T418 816T395 875T356 893Q333 893 318 878T293 824T280 718T276 547Q276 449 279 381T292 269T316 207T356 188Z"/><glyph unicode="õ" horiz-adv-x="711" d="M356 -14Q192 -14 111 126T29 545Q29 1106 356 1106Q518 1106 600 966T682 545Q682 267 600 127T356 -14ZM356 188Q379 188 394 204T417 260T429 370T432 547Q432 644 429 710T418 816T395 875T356 893Q333 893 318 878T293 824T280 718T276 547Q276 449 279 381T292 269T316 207T356 188ZM465 1157Q426 1157 398 1175T346 1214T304 1254T266 1272Q243 1272 232 1248T221 1161H84Q84 1333 124 1410T250 1487Q287 1487 315 1469T366 1430T408 1390T446 1372Q471 1372 482 1396T493 1483H630Q630 1396 620 1334T589 1233T537 1176T465 1157Z"/><glyph unicode="ö" horiz-adv-x="711" d="M395 1436H604V1192H395V1436ZM104 1436H311V1192H104V1436ZM356 -14Q192 -14 111 126T29 545Q29 1106 356 1106Q518 1106 600 966T682 545Q682 267 600 127T356 -14ZM356 188Q379 188 394 204T417 260T429 370T432 547Q432 644 429 710T418 816T395 875T356 893Q333 893 318 878T293 824T280 718T276 547Q276 449 279 381T292 269T316 207T356 188Z"/><glyph unicode="÷" horiz-adv-x="819" d="M299 1165H518V903H299V1165ZM49 776H768V551H49V776ZM299 424H518V164H299V424Z"/><glyph unicode="ø" horiz-adv-x="711" d="M612 940Q647 871 664 772T682 545Q682 267 600 127T356 -14Q318 -14 283 -7T219 18L164 -109L18 -49L100 143Q65 215 47 314T29 545Q29 1106 356 1106Q397 1106 431 1097T496 1071L545 1188L692 1128L612 940ZM418 850Q407 873 393 883T356 893Q330 893 313 878T284 824T269 718T264 547V463L418 850ZM293 236Q313 188 356 188Q383 188 400 204T427 260T440 370T444 547V610L293 236Z"/><glyph unicode="ù" horiz-adv-x="739" d="M211 -14Q173 -14 144 -5T95 30T64 99T53 213V1092H301V295Q301 253 309 233T342 213Q364 213 390 226T434 256V1092H684V0H434V119Q417 96 392 72T336 29T274 -2T211 -14ZM131 1501H365L471 1192H287L131 1501Z"/><glyph unicode="ú" horiz-adv-x="739" d="M377 1501H611L455 1192H271L377 1501ZM211 -14Q173 -14 144 -5T95 30T64 99T53 213V1092H301V295Q301 253 309 233T342 213Q364 213 390 226T434 256V1092H684V0H434V119Q417 96 392 72T336 29T274 -2T211 -14Z"/><glyph unicode="û" horiz-adv-x="739" d="M285 1501H455L598 1182H447L369 1311L289 1182H140L285 1501ZM211 -14Q173 -14 144 -5T95 30T64 99T53 213V1092H301V295Q301 253 309 233T342 213Q364 213 390 226T434 256V1092H684V0H434V119Q417 96 392 72T336 29T274 -2T211 -14Z"/><glyph unicode="ü" horiz-adv-x="739" d="M410 1436H619V1192H410V1436ZM119 1436H326V1192H119V1436ZM211 -14Q173 -14 144 -5T95 30T64 99T53 213V1092H301V295Q301 253 309 233T342 213Q364 213 390 226T434 256V1092H684V0H434V119Q417 96 392 72T336 29T274 -2T211 -14Z"/><glyph unicode="ý" horiz-adv-x="655" d="M127 -410Q79 -410 36 -405T-35 -391L8 -182Q25 -185 41 -187T72 -190Q100 -190 119 -186T152 -170T173 -140T188 -90L201 -23L-10 1092H256L309 592Q317 533 321 472T332 342H336Q341 410 347 472T360 592L424 1092H668L432 -92Q417 -170 394 -229T336 -329T249 -389T127 -410ZM593 1501H827L671 1192H487L593 1501Z"/><glyph unicode="þ" horiz-adv-x="735" d="M55 1516H305V983Q316 1004 332 1026T371 1068T420 1099T481 1112Q532 1112 573 1082T644 986T689 811T705 547Q705 391 689 284T644 110T572 14T479 -16Q420 -16 377 19T305 117V-410H55V1516ZM381 205Q399 205 412 218T433 269T445 373T449 545Q449 648 446 713T434 815T413 865T379 879Q354 879 335 862T305 831V250Q322 228 339 217T381 205Z"/><glyph unicode="ÿ" horiz-adv-x="655" d="M127 -410Q79 -410 36 -405T-35 -391L8 -182Q25 -185 41 -187T72 -190Q100 -190 119 -186T152 -170T173 -140T188 -90L201 -23L-10 1092H256L309 592Q317 533 321 472T332 342H336Q341 410 347 472T360 592L424 1092H668L432 -92Q417 -170 394 -229T336 -329T249 -389T127 -410ZM638 1436H847V1192H638V1436ZM347 1436H554V1192H347V1436Z"/><glyph unicode="Ā" horiz-adv-x="772" d="M250 1522H524L772 0H504L461 340H293L250 0H0L250 1522ZM446 522L397 930Q391 973 388 1013T379 1098H377Q372 1051 369 1012T358 930L307 522H446ZM166 1792H604V1589H166V1792Z"/><glyph unicode="ā" horiz-adv-x="692" d="M219 -8Q177 -8 141 7T80 57T40 144T25 274Q25 443 120 554T399 719V801Q399 858 389 880T350 903Q318 903 303 878T274 793L55 825Q73 909 104 963T176 1049T267 1093T377 1106Q515 1106 576 1034T637 805V266Q637 167 640 105T653 0H414Q410 12 407 23T403 49T400 82T399 125Q370 65 327 29T219 -8ZM322 213Q343 213 365 228T399 258V545Q361 527 336 502T294 445T271 378T264 305Q264 213 322 213ZM127 1395H565V1192H127V1395Z"/><glyph unicode="Ă" horiz-adv-x="772" d="M250 1522H524L772 0H504L461 340H293L250 0H0L250 1522ZM446 522L397 930Q391 973 388 1013T379 1098H377Q372 1051 369 1012T358 930L307 522H446ZM387 1583Q331 1583 292 1601T229 1658T192 1755T176 1896H330Q334 1818 343 1776T387 1734Q404 1734 414 1744T429 1776T437 1827T442 1896H596Q593 1815 581 1756T545 1658T482 1602T387 1583Z"/><glyph unicode="ă" horiz-adv-x="692" d="M219 -8Q177 -8 141 7T80 57T40 144T25 274Q25 443 120 554T399 719V801Q399 858 389 880T350 903Q318 903 303 878T274 793L55 825Q73 909 104 963T176 1049T267 1093T377 1106Q515 1106 576 1034T637 805V266Q637 167 640 105T653 0H414Q410 12 407 23T403 49T400 82T399 125Q370 65 327 29T219 -8ZM322 213Q343 213 365 228T399 258V545Q361 527 336 502T294 445T271 378T264 305Q264 213 322 213ZM348 1186Q292 1186 253 1204T190 1261T153 1358T137 1499H291Q295 1421 304 1379T348 1337Q365 1337 375 1347T390 1379T398 1430T403 1499H557Q554 1418 542 1359T506 1261T443 1205T348 1186Z"/><glyph unicode="Ą" horiz-adv-x="772" d="M250 1522H524L772 0H504L461 340H293L250 0H0L250 1522ZM446 522L397 930Q391 973 388 1013T379 1098H377Q372 1051 369 1012T358 930L307 522H446ZM553 -403Q511 -403 482 -390T435 -355T408 -304T399 -242Q399 -208 408 -171T432 -100T468 -37T510 10H624Q610 -3 596 -25T569 -75T548 -133T540 -190Q540 -232 557 -252T600 -272Q632 -272 654 -257T700 -219L772 -279Q754 -303 732 -325T682 -364T623 -392T553 -403Z"/><glyph unicode="ą" horiz-adv-x="692" d="M219 -8Q177 -8 141 7T80 57T40 144T25 274Q25 443 120 554T399 719V801Q399 858 389 880T350 903Q318 903 303 878T274 793L55 825Q73 909 104 963T176 1049T267 1093T377 1106Q515 1106 576 1034T637 805V266Q637 167 640 105T653 0H414Q410 12 407 23T403 49T400 82T399 125Q370 65 327 29T219 -8ZM322 213Q343 213 365 228T399 258V545Q361 527 336 502T294 445T271 378T264 305Q264 213 322 213ZM463 -403Q421 -403 392 -390T345 -355T318 -304T309 -242Q309 -208 318 -171T342 -100T378 -37T420 10H534Q520 -3 506 -25T479 -75T458 -133T450 -190Q450 -232 467 -252T510 -272Q542 -272 564 -257T610 -219L682 -279Q664 -303 642 -325T592 -364T533 -392T463 -403Z"/><glyph unicode="Ć" horiz-adv-x="772" d="M391 1898H625L469 1589H285L391 1898ZM406 -14Q311 -14 241 26T125 158T57 397T35 758Q35 971 57 1118T125 1357T240 1489T403 1530Q494 1530 558 1502T663 1407T723 1228T745 948L496 938Q494 1040 489 1107T473 1214T445 1270T403 1286Q370 1286 351 1257T321 1165T308 1001T305 758Q305 612 308 510T322 345T353 252T406 223Q433 223 450 237T479 288T497 392T506 565L756 555Q750 438 735 335T683 154T579 31T406 -14Z"/><glyph unicode="ć" horiz-adv-x="678" d="M603 1501H837L681 1192H497L603 1501ZM354 -14Q192 -14 111 126T29 545Q29 1106 354 1106Q432 1106 486 1079T577 1000T634 874T662 705L422 690Q418 740 415 778T405 841T386 880T354 893Q332 893 317 878T293 823T280 717T276 547Q276 449 279 381T291 269T315 207T354 188Q373 188 386 200T407 240T419 309T426 412L662 403Q656 303 636 226T579 95T486 14T354 -14Z"/><glyph unicode="Ĉ" horiz-adv-x="772" d="M317 1898H487L630 1579H479L401 1708L321 1579H172L317 1898ZM406 -14Q311 -14 241 26T125 158T57 397T35 758Q35 971 57 1118T125 1357T240 1489T403 1530Q494 1530 558 1502T663 1407T723 1228T745 948L496 938Q494 1040 489 1107T473 1214T445 1270T403 1286Q370 1286 351 1257T321 1165T308 1001T305 758Q305 612 308 510T322 345T353 252T406 223Q433 223 450 237T479 288T497 392T506 565L756 555Q750 438 735 335T683 154T579 31T406 -14Z"/><glyph unicode="ĉ" horiz-adv-x="678" d="M266 1501H436L579 1182H428L350 1311L270 1182H121L266 1501ZM354 -14Q192 -14 111 126T29 545Q29 1106 354 1106Q432 1106 486 1079T577 1000T634 874T662 705L422 690Q418 740 415 778T405 841T386 880T354 893Q332 893 317 878T293 823T280 717T276 547Q276 449 279 381T291 269T315 207T354 188Q373 188 386 200T407 240T419 309T426 412L662 403Q656 303 636 226T579 95T486 14T354 -14Z"/><glyph unicode="Ċ" horiz-adv-x="772" d="M406 -14Q311 -14 241 26T125 158T57 397T35 758Q35 971 57 1118T125 1357T240 1489T403 1530Q494 1530 558 1502T663 1407T723 1228T745 948L496 938Q494 1040 489 1107T473 1214T445 1270T403 1286Q370 1286 351 1257T321 1165T308 1001T305 758Q305 612 308 510T322 345T353 252T406 223Q433 223 450 237T479 288T497 392T506 565L756 555Q750 438 735 335T683 154T579 31T406 -14ZM272 1835H528V1585H272V1835Z"/><glyph unicode="ċ" horiz-adv-x="678" d="M354 -14Q192 -14 111 126T29 545Q29 1106 354 1106Q432 1106 486 1079T577 1000T634 874T662 705L422 690Q418 740 415 778T405 841T386 880T354 893Q332 893 317 878T293 823T280 717T276 547Q276 449 279 381T291 269T315 207T354 188Q373 188 386 200T407 240T419 309T426 412L662 403Q656 303 636 226T579 95T486 14T354 -14ZM223 1438H479V1188H223V1438Z"/><glyph unicode="Č" horiz-adv-x="772" d="M156 1898H307L385 1769L463 1898H614L471 1579H301L156 1898ZM406 -14Q311 -14 241 26T125 158T57 397T35 758Q35 971 57 1118T125 1357T240 1489T403 1530Q494 1530 558 1502T663 1407T723 1228T745 948L496 938Q494 1040 489 1107T473 1214T445 1270T403 1286Q370 1286 351 1257T321 1165T308 1001T305 758Q305 612 308 510T322 345T353 252T406 223Q433 223 450 237T479 288T497 392T506 565L756 555Q750 438 735 335T683 154T579 31T406 -14Z"/><glyph unicode="č" horiz-adv-x="678" d="M119 1501H270L348 1372L426 1501H577L434 1182H264L119 1501ZM354 -14Q192 -14 111 126T29 545Q29 1106 354 1106Q432 1106 486 1079T577 1000T634 874T662 705L422 690Q418 740 415 778T405 841T386 880T354 893Q332 893 317 878T293 823T280 717T276 547Q276 449 279 381T291 269T315 207T354 188Q373 188 386 200T407 240T419 309T426 412L662 403Q656 303 636 226T579 95T486 14T354 -14Z"/><glyph unicode="Ď" horiz-adv-x="821" d="M164 1898H315L393 1769L471 1898H622L479 1579H309L164 1898ZM66 1516H326Q401 1516 464 1505T578 1463T668 1379T733 1241T772 1038T786 758Q786 598 772 480T732 277T666 139T575 54T462 12T326 0H66V1516ZM369 223Q418 223 447 249T491 337T511 502T516 758Q516 913 512 1014T492 1176T447 1260T367 1284H330V223H369Z"/><glyph unicode="ď" horiz-adv-x="735" d="M807 1391H731V1608H928V1403L840 1217H760L807 1391ZM254 -10Q203 -10 162 18T91 110T47 281T31 543Q31 699 47 806T92 980T163 1076T256 1106Q315 1106 358 1070T430 971V1516H680V266Q680 167 683 105T698 0H442Q440 14 438 34T434 73Q432 94 430 117Q419 96 403 74T364 33T315 2T254 -10ZM358 213Q384 213 401 229T430 260V825Q415 848 397 862T356 877Q337 877 324 865T303 816T291 715T287 545Q287 441 290 376T302 275T323 226T358 213Z"/><glyph unicode="Đ" horiz-adv-x="821" d="M66 696H2V911H66V1516H326Q401 1516 464 1505T578 1463T668 1379T733 1241T772 1038T786 758Q786 598 772 480T732 277T666 139T575 54T462 12T326 0H66V696ZM369 223Q418 223 447 249T491 337T511 502T516 758Q516 913 512 1014T492 1176T447 1260T367 1284H330V911H410V696H330V223H369Z"/><glyph unicode="đ" horiz-adv-x="735" d="M352 1348H432V1516H680V1348H735V1169H680V266Q680 167 683 105T698 0H444Q442 14 440 34T436 73Q434 94 432 117Q421 96 405 74T366 33T315 2T254 -10Q203 -10 162 18T93 110T49 281T33 543Q33 699 48 806T93 980T163 1076T256 1106Q315 1106 359 1070T432 971V1169H352V1348ZM358 213Q384 213 402 229T432 260V827Q415 849 397 863T356 877Q337 877 324 865T303 817T291 716T287 545Q287 441 290 376T302 275T323 226T358 213Z"/><glyph unicode="Ē" horiz-adv-x="635" d="M66 1516H608V1284H330V913H524V696H330V223H618V0H66V1516ZM122 1792H560V1589H122V1792Z"/><glyph unicode="ē" horiz-adv-x="692" d="M354 -14Q29 -14 29 545Q29 1106 354 1106Q425 1106 475 1083T560 1021T615 928T646 813T660 685T664 555V465H270Q270 333 288 261T356 188Q376 188 389 196T412 223T426 274T434 354L664 346Q654 262 632 195T574 82T483 11T354 -14ZM426 623Q425 697 422 749T411 833T390 880T354 895Q333 895 318 882T292 837T277 753T270 623H426ZM127 1395H565V1192H127V1395Z"/><glyph unicode="Ĕ" horiz-adv-x="635" d="M66 1516H608V1284H330V913H524V696H330V223H618V0H66V1516ZM329 1583Q273 1583 234 1601T171 1658T134 1755T118 1896H272Q276 1818 285 1776T329 1734Q346 1734 356 1744T371 1776T379 1827T384 1896H538Q535 1815 523 1756T487 1658T424 1602T329 1583Z"/><glyph unicode="ĕ" horiz-adv-x="692" d="M354 -14Q29 -14 29 545Q29 1106 354 1106Q425 1106 475 1083T560 1021T615 928T646 813T660 685T664 555V465H270Q270 333 288 261T356 188Q376 188 389 196T412 223T426 274T434 354L664 346Q654 262 632 195T574 82T483 11T354 -14ZM426 623Q425 697 422 749T411 833T390 880T354 895Q333 895 318 882T292 837T277 753T270 623H426ZM354 1186Q298 1186 259 1204T196 1261T159 1358T143 1499H297Q301 1421 310 1379T354 1337Q371 1337 381 1347T396 1379T404 1430T409 1499H563Q560 1418 548 1359T512 1261T449 1205T354 1186Z"/><glyph unicode="Ė" horiz-adv-x="635" d="M66 1516H608V1284H330V913H524V696H330V223H618V0H66V1516ZM214 1835H470V1585H214V1835Z"/><glyph unicode="ė" horiz-adv-x="692" d="M354 -14Q29 -14 29 545Q29 1106 354 1106Q425 1106 475 1083T560 1021T615 928T646 813T660 685T664 555V465H270Q270 333 288 261T356 188Q376 188 389 196T412 223T426 274T434 354L664 346Q654 262 632 195T574 82T483 11T354 -14ZM426 623Q425 697 422 749T411 833T390 880T354 895Q333 895 318 882T292 837T277 753T270 623H426ZM219 1438H475V1188H219V1438Z"/><glyph unicode="Ę" horiz-adv-x="635" d="M469 -403Q427 -403 398 -390T351 -355T324 -304T315 -242Q315 -208 324 -171T348 -100T384 -37T426 10H540Q526 -3 512 -25T485 -75T464 -133T456 -190Q456 -232 473 -252T516 -272Q548 -272 570 -257T616 -219L688 -279Q670 -303 648 -325T598 -364T539 -392T469 -403ZM66 1516H608V1284H330V913H524V696H330V223H618V0H66V1516Z"/><glyph unicode="ę" horiz-adv-x="692" d="M379 -403Q337 -403 308 -390T261 -355T234 -304T225 -242Q225 -208 234 -171T258 -100T294 -37T336 10H450Q436 -3 422 -25T395 -75T374 -133T366 -190Q366 -232 383 -252T426 -272Q458 -272 480 -257T526 -219L598 -279Q580 -303 558 -325T508 -364T449 -392T379 -403ZM354 -14Q29 -14 29 545Q29 1106 354 1106Q425 1106 475 1083T560 1021T615 928T646 813T660 685T664 555V465H270Q270 333 288 261T356 188Q376 188 389 196T412 223T426 274T434 354L664 346Q654 262 632 195T574 82T483 11T354 -14ZM426 623Q425 697 422 749T411 833T390 880T354 895Q333 895 318 882T292 837T277 753T270 623H426Z"/><glyph unicode="Ě" horiz-adv-x="635" d="M112 1898H263L341 1769L419 1898H570L427 1579H257L112 1898ZM66 1516H608V1284H330V913H524V696H330V223H618V0H66V1516Z"/><glyph unicode="ě" horiz-adv-x="692" d="M117 1501H268L346 1372L424 1501H575L432 1182H262L117 1501ZM354 -14Q29 -14 29 545Q29 1106 354 1106Q425 1106 475 1083T560 1021T615 928T646 813T660 685T664 555V465H270Q270 333 288 261T356 188Q376 188 389 196T412 223T426 274T434 354L664 346Q654 262 632 195T574 82T483 11T354 -14ZM426 623Q425 697 422 749T411 833T390 880T354 895Q333 895 318 882T292 837T277 753T270 623H426Z"/><glyph unicode="Ĝ" horiz-adv-x="803" d="M319 1898H489L632 1579H481L403 1708L323 1579H174L319 1898ZM365 -10Q276 -10 213 31T111 163T53 400T35 758Q35 969 57 1116T125 1355T240 1488T403 1530Q494 1530 555 1496T655 1390T713 1209T739 948L496 938Q494 1040 489 1107T473 1214T445 1270T403 1286Q370 1286 350 1256T320 1161T306 997T303 758Q303 619 305 518T319 350T354 251T418 219Q450 219 470 237T503 293T519 391T526 535H408V743H750V0H600L596 170H594Q586 134 567 102T518 44T450 5T365 -10Z"/><glyph unicode="ĝ" horiz-adv-x="702" d="M509 1501H679L822 1182H671L593 1311L513 1182H364L509 1501ZM309 -410Q225 -410 166 -392T69 -343T14 -272T-4 -188Q-4 -152 7 -118T38 -53T84 2T139 43Q110 55 91 72T60 111T44 155T39 203Q39 222 45 245T65 292T97 339T141 383Q87 431 58 510T29 707Q29 808 53 883T118 1007T216 1081T338 1106Q468 1106 549 1016Q564 1036 583 1053T622 1084T661 1107T696 1120V862Q693 862 683 862T662 860T641 857T629 854Q637 822 641 786T645 707Q645 602 621 527T556 405T459 335T338 313Q316 313 297 315T258 324Q240 301 240 281Q240 259 251 247T297 227L408 207Q485 195 538 173T623 117T670 32T684 -86Q684 -157 657 -216T580 -319T461 -386T309 -410ZM338 498Q357 498 370 509T392 544T404 609T408 707Q408 767 405 807T393 870T372 903T338 913Q318 913 305 903T283 868T272 804T268 707Q268 649 272 609T284 545T305 509T338 498ZM334 -258Q391 -258 422 -221T453 -117Q453 -66 430 -35T344 6L283 18Q254 -17 240 -58T225 -137Q225 -193 253 -225T334 -258Z"/><glyph unicode="Ğ" horiz-adv-x="803" d="M365 -10Q276 -10 213 31T111 163T53 400T35 758Q35 969 57 1116T125 1355T240 1488T403 1530Q494 1530 555 1496T655 1390T713 1209T739 948L496 938Q494 1040 489 1107T473 1214T445 1270T403 1286Q370 1286 350 1256T320 1161T306 997T303 758Q303 619 305 518T319 350T354 251T418 219Q450 219 470 237T503 293T519 391T526 535H408V743H750V0H600L596 170H594Q586 134 567 102T518 44T450 5T365 -10ZM403 1583Q347 1583 308 1601T245 1658T208 1755T192 1896H346Q350 1818 359 1776T403 1734Q420 1734 430 1744T445 1776T453 1827T458 1896H612Q609 1815 597 1756T561 1658T498 1602T403 1583Z"/><glyph unicode="ğ" horiz-adv-x="702" d="M309 -410Q225 -410 166 -392T69 -343T14 -272T-4 -188Q-4 -152 7 -118T38 -53T84 2T139 43Q110 55 91 72T60 111T44 155T39 203Q39 222 45 245T65 292T97 339T141 383Q87 431 58 510T29 707Q29 808 53 883T118 1007T216 1081T338 1106Q468 1106 549 1016Q564 1036 583 1053T622 1084T661 1107T696 1120V862Q693 862 683 862T662 860T641 857T629 854Q637 822 641 786T645 707Q645 602 621 527T556 405T459 335T338 313Q316 313 297 315T258 324Q240 301 240 281Q240 259 251 247T297 227L408 207Q485 195 538 173T623 117T670 32T684 -86Q684 -157 657 -216T580 -319T461 -386T309 -410ZM338 498Q357 498 370 509T392 544T404 609T408 707Q408 767 405 807T393 870T372 903T338 913Q318 913 305 903T283 868T272 804T268 707Q268 649 272 609T284 545T305 509T338 498ZM334 -258Q391 -258 422 -221T453 -117Q453 -66 430 -35T344 6L283 18Q254 -17 240 -58T225 -137Q225 -193 253 -225T334 -258ZM599 1186Q543 1186 504 1204T441 1261T404 1358T388 1499H542Q546 1421 555 1379T599 1337Q616 1337 626 1347T641 1379T649 1430T654 1499H808Q805 1418 793 1359T757 1261T694 1205T599 1186Z"/><glyph unicode="Ġ" horiz-adv-x="803" d="M365 -10Q276 -10 213 31T111 163T53 400T35 758Q35 969 57 1116T125 1355T240 1488T403 1530Q494 1530 555 1496T655 1390T713 1209T739 948L496 938Q494 1040 489 1107T473 1214T445 1270T403 1286Q370 1286 350 1256T320 1161T306 997T303 758Q303 619 305 518T319 350T354 251T418 219Q450 219 470 237T503 293T519 391T526 535H408V743H750V0H600L596 170H594Q586 134 567 102T518 44T450 5T365 -10ZM274 1835H530V1585H274V1835Z"/><glyph unicode="ġ" horiz-adv-x="702" d="M309 -410Q225 -410 166 -392T69 -343T14 -272T-4 -188Q-4 -152 7 -118T38 -53T84 2T139 43Q110 55 91 72T60 111T44 155T39 203Q39 222 45 245T65 292T97 339T141 383Q87 431 58 510T29 707Q29 808 53 883T118 1007T216 1081T338 1106Q468 1106 549 1016Q564 1036 583 1053T622 1084T661 1107T696 1120V862Q693 862 683 862T662 860T641 857T629 854Q637 822 641 786T645 707Q645 602 621 527T556 405T459 335T338 313Q316 313 297 315T258 324Q240 301 240 281Q240 259 251 247T297 227L408 207Q485 195 538 173T623 117T670 32T684 -86Q684 -157 657 -216T580 -319T461 -386T309 -410ZM338 498Q357 498 370 509T392 544T404 609T408 707Q408 767 405 807T393 870T372 903T338 913Q318 913 305 903T283 868T272 804T268 707Q268 649 272 609T284 545T305 509T338 498ZM334 -258Q391 -258 422 -221T453 -117Q453 -66 430 -35T344 6L283 18Q254 -17 240 -58T225 -137Q225 -193 253 -225T334 -258ZM466 1438H722V1188H466V1438Z"/><glyph unicode="Ģ" horiz-adv-x="803" d="M385 -301H287V-53H519V-289L416 -498H328L385 -301ZM365 -10Q276 -10 213 31T111 163T53 400T35 758Q35 969 57 1116T125 1355T240 1488T403 1530Q494 1530 555 1496T655 1390T713 1209T739 948L496 938Q494 1040 489 1107T473 1214T445 1270T403 1286Q370 1286 350 1256T320 1161T306 997T303 758Q303 619 305 518T319 350T354 251T418 219Q450 219 470 237T503 293T519 391T526 535H408V743H750V0H600L596 170H594Q586 134 567 102T518 44T450 5T365 -10Z"/><glyph unicode="ģ" horiz-adv-x="702" d="M223 1427L324 1636H414L356 1440H455V1192H223V1427ZM309 -410Q225 -410 166 -392T69 -343T14 -272T-4 -188Q-4 -152 7 -118T38 -53T84 2T139 43Q110 55 91 72T60 111T44 155T39 203Q39 222 45 245T65 292T97 339T141 383Q87 431 58 510T29 707Q29 808 53 883T118 1007T216 1081T338 1106Q468 1106 549 1016Q564 1036 583 1053T622 1084T661 1107T696 1120V862Q693 862 683 862T662 860T641 857T629 854Q637 822 641 786T645 707Q645 602 621 527T556 405T459 335T338 313Q316 313 297 315T258 324Q240 301 240 281Q240 259 251 247T297 227L408 207Q485 195 538 173T623 117T670 32T684 -86Q684 -157 657 -216T580 -319T461 -386T309 -410ZM338 498Q357 498 370 509T392 544T404 609T408 707Q408 767 405 807T393 870T372 903T338 913Q318 913 305 903T283 868T272 804T268 707Q268 649 272 609T284 545T305 509T338 498ZM334 -258Q391 -258 422 -221T453 -117Q453 -66 430 -35T344 6L283 18Q254 -17 240 -58T225 -137Q225 -193 253 -225T334 -258Z"/><glyph unicode="Ĥ" horiz-adv-x="829" d="M330 1898H500L643 1579H492L414 1708L334 1579H185L330 1898ZM66 1516H330V911H500V1516H764V0H500V694H330V0H66V1516Z"/><glyph unicode="ĥ" horiz-adv-x="739" d="M99 1898H269L412 1579H261L183 1708L103 1579H-46L99 1898ZM55 1516H305V973Q322 996 347 1019T403 1062T465 1094T528 1106Q566 1106 595 1097T645 1062T675 993T686 879V0H438V791Q438 833 430 852T399 872Q376 872 349 856T305 821V0H55V1516Z"/><glyph unicode="Ħ" horiz-adv-x="829" d="M4 1288H66V1516H330V1288H500V1516H764V1288H827V1073H764V0H500V649H330V0H66V1073H4V1288ZM500 864V1073H330V864H500Z"/><glyph unicode="ħ" horiz-adv-x="739" d="M0 1348H57V1516H305V1348H383V1169H305V973Q322 996 347 1019T403 1062T465 1094T528 1106Q566 1106 595 1097T645 1062T675 993T686 879V0H438V791Q438 833 430 853T399 874Q388 874 375 869T350 857T326 840T305 821V0H57V1169H0V1348Z"/><glyph unicode="Ĩ" horiz-adv-x="416" d="M76 1516H340V0H76V1516ZM321 1554Q282 1554 254 1572T202 1611T160 1651T122 1669Q99 1669 88 1645T77 1558H-60Q-60 1730 -20 1807T106 1884Q143 1884 171 1866T222 1827T264 1787T302 1769Q327 1769 338 1793T349 1880H486Q486 1793 476 1731T445 1630T393 1573T321 1554Z"/><glyph unicode="ĩ" horiz-adv-x="375" d="M63 1092H311V0H63V1092ZM300 1157Q261 1157 233 1175T181 1214T139 1254T101 1272Q78 1272 67 1248T56 1161H-81Q-81 1333 -41 1410T85 1487Q122 1487 150 1469T201 1430T243 1390T281 1372Q306 1372 317 1396T328 1483H465Q465 1396 455 1334T424 1233T372 1176T300 1157Z"/><glyph unicode="Ī" horiz-adv-x="416" d="M76 1516H340V0H76V1516ZM-9 1792H429V1589H-9V1792Z"/><glyph unicode="ī" horiz-adv-x="375" d="M63 1092H311V0H63V1092ZM-30 1395H408V1192H-30V1395Z"/><glyph unicode="Ĭ" horiz-adv-x="416" d="M76 1516H340V0H76V1516ZM212 1583Q156 1583 117 1601T54 1658T17 1755T1 1896H155Q159 1818 168 1776T212 1734Q229 1734 239 1744T254 1776T262 1827T267 1896H421Q418 1815 406 1756T370 1658T307 1602T212 1583Z"/><glyph unicode="ĭ" horiz-adv-x="375" d="M63 1092H311V0H63V1092ZM191 1186Q135 1186 96 1204T33 1261T-4 1358T-20 1499H134Q138 1421 147 1379T191 1337Q208 1337 218 1347T233 1379T241 1430T246 1499H400Q397 1418 385 1359T349 1261T286 1205T191 1186Z"/><glyph unicode="Į" horiz-adv-x="416" d="M76 1516H340V0H76V1516ZM128 -403Q86 -403 57 -390T10 -355T-17 -304T-26 -242Q-26 -208 -17 -171T7 -100T43 -37T85 10H199Q185 -3 171 -25T144 -75T123 -133T115 -190Q115 -232 132 -252T175 -272Q207 -272 229 -257T275 -219L347 -279Q329 -303 307 -325T257 -364T198 -392T128 -403Z"/><glyph unicode="į" horiz-adv-x="375" d="M61 1475H313V1229H61V1475ZM63 1092H311V0H63V1092ZM118 -403Q76 -403 47 -390T0 -355T-27 -304T-36 -242Q-36 -208 -27 -171T-3 -100T33 -37T75 10H189Q175 -3 161 -25T134 -75T113 -133T105 -190Q105 -232 122 -252T165 -272Q197 -272 219 -257T265 -219L337 -279Q319 -303 297 -325T247 -364T188 -392T118 -403Z"/><glyph unicode="İ" horiz-adv-x="416" d="M76 1516H340V0H76V1516ZM83 1835H339V1585H83V1835Z"/><glyph unicode="ı" horiz-adv-x="375" d="M63 1092H311V0H63V1092Z"/><glyph unicode="Ĳ" horiz-adv-x="1004" d="M76 1516H340V0H76V1516ZM448 246Q483 232 517 224T590 215Q638 215 658 245T678 344V1516H944V326Q944 224 922 159T859 57T763 5T641 -10Q566 -10 503 4T385 39L448 246Z"/><glyph unicode="ĳ" horiz-adv-x="750" d="M61 1475H313V1229H61V1475ZM63 1092H311V0H63V1092ZM436 1475H688V1229H436V1475ZM355 -203H385Q402 -203 412 -197T428 -181T436 -156T438 -127V1092H686V-98Q686 -186 671 -245T623 -341T541 -394T422 -410H355V-203Z"/><glyph unicode="Ĵ" horiz-adv-x="608" d="M330 1898H500L643 1579H492L414 1708L334 1579H185L330 1898ZM53 246Q88 232 122 224T195 215Q243 215 263 245T283 344V1516H549V326Q549 224 527 159T464 57T368 5T246 -10Q171 -10 108 4T-10 39L53 246Z"/><glyph unicode="ĵ" horiz-adv-x="375" d="M-20 -203H10Q45 -203 54 -181T63 -127V1092H311V-98Q311 -186 296 -245T248 -341T166 -394T47 -410H-20V-203ZM104 1501H274L417 1182H266L188 1311L108 1182H-41L104 1501Z"/><glyph unicode="Ķ" horiz-adv-x="743" d="M354 -301H256V-53H488V-289L385 -498H297L354 -301ZM66 1516H324V874Q363 1050 412 1198L514 1516H741L537 926L772 0H508L360 633L324 518V0H66V1516Z"/><glyph unicode="ķ" horiz-adv-x="668" d="M317 -301H219V-53H451V-289L348 -498H260L317 -301ZM55 1516H291V618Q306 694 323 760T352 864L426 1092H641L494 682L668 0H430L336 440L291 297V0H55V1516Z"/><glyph unicode="ĸ" horiz-adv-x="668" d="M57 1092H291V618Q306 694 323 760T352 864L426 1092H641L494 682L668 0H432L336 440L291 299V0H57V1092Z"/><glyph unicode="Ĺ" horiz-adv-x="612" d="M216 1898H450L294 1589H110L216 1898ZM66 1516H330V223H604V0H66V1516Z"/><glyph unicode="ĺ" horiz-adv-x="375" d="M202 1898H436L280 1589H96L202 1898ZM63 1516H311V0H63V1516Z"/><glyph unicode="Ļ" horiz-adv-x="612" d="M292 -301H194V-53H426V-289L323 -498H235L292 -301ZM66 1516H330V223H604V0H66V1516Z"/><glyph unicode="ļ" horiz-adv-x="375" d="M429 -301H331V-53H563V-289L460 -498H372L429 -301ZM63 1516H311V0H63V1516Z"/><glyph unicode="Ľ" horiz-adv-x="612" d="M467 1305H393V1516H575V1317L504 1124H416L467 1305ZM66 1516H330V223H604V0H66V1516Z"/><glyph unicode="ľ" horiz-adv-x="375" d="M438 1391H362V1608H557V1403L469 1217H391L438 1391ZM63 1516H311V0H63V1516Z"/><glyph unicode="Ŀ" horiz-adv-x="788" d="M481 920H707V684H481V920ZM66 1516H330V223H604V0H66V1516Z"/><glyph unicode="ŀ" horiz-adv-x="645" d="M395 762H621V528H395V762ZM61 1516H309V0H61V1516Z"/><glyph unicode="Ł" horiz-adv-x="612" d="M66 631L2 602V834L66 860V1516H330V971L406 1006V774L330 741V223H604V0H66V631Z"/><glyph unicode="ł" horiz-adv-x="414" d="M84 829L23 803V1012L84 1038V1516H332V1128L393 1155V946L332 920V0H84V829Z"/><glyph unicode="Ń" horiz-adv-x="805" d="M409 1898H643L487 1589H303L409 1898ZM66 1516H313L430 1053Q453 956 477 848T520 633H524Q520 688 518 745T515 856T513 960T512 1049V1516H739V0H522L389 479Q361 579 332 679T285 891H281Q285 854 287 797T290 679T292 564T293 479V0H66V1516Z"/><glyph unicode="ń" horiz-adv-x="739" d="M377 1501H611L455 1192H271L377 1501ZM55 1092H305V973Q322 996 347 1019T403 1062T465 1094T528 1106Q566 1106 595 1097T645 1062T675 993T686 879V0H438V791Q438 833 430 852T399 872Q376 872 349 856T305 821V0H55V1092Z"/><glyph unicode="Ņ" horiz-adv-x="805" d="M385 -301H287V-53H519V-289L416 -498H328L385 -301ZM66 1516H313L430 1053Q453 956 477 848T520 633H524Q520 688 518 745T515 856T513 960T512 1049V1516H739V0H522L389 479Q361 579 332 679T285 891H281Q285 854 287 797T290 679T292 564T293 479V0H66V1516Z"/><glyph unicode="ņ" horiz-adv-x="739" d="M352 -301H254V-53H486V-289L383 -498H295L352 -301ZM55 1092H305V973Q322 996 347 1019T403 1062T465 1094T528 1106Q566 1106 595 1097T645 1062T675 993T686 879V0H438V791Q438 833 430 852T399 872Q376 872 349 856T305 821V0H55V1092Z"/><glyph unicode="Ň" horiz-adv-x="805" d="M172 1898H323L401 1769L479 1898H630L487 1579H317L172 1898ZM66 1516H313L430 1053Q453 956 477 848T520 633H524Q520 688 518 745T515 856T513 960T512 1049V1516H739V0H522L389 479Q361 579 332 679T285 891H281Q285 854 287 797T290 679T292 564T293 479V0H66V1516Z"/><glyph unicode="ň" horiz-adv-x="739" d="M140 1501H291L369 1372L447 1501H598L455 1182H285L140 1501ZM55 1092H305V973Q322 996 347 1019T403 1062T465 1094T528 1106Q566 1106 595 1097T645 1062T675 993T686 879V0H438V791Q438 833 430 852T399 872Q376 872 349 856T305 821V0H55V1092Z"/><glyph unicode="Ŋ" horiz-adv-x="805" d="M66 1516H313L430 1053Q453 956 477 848T520 633H524Q521 688 519 745T515 856T513 960T512 1049V1516H739V-76Q739 -177 721 -241T669 -343T586 -395T475 -410Q400 -410 337 -396T219 -360L283 -156Q317 -170 351 -178T424 -186Q472 -186 492 -156T512 -57V39L389 481Q361 581 332 680T285 891H281Q285 854 287 797T290 679T292 564T293 481V0H66V1516Z"/><glyph unicode="ŋ" horiz-adv-x="739" d="M57 1092H305V973Q322 996 347 1019T403 1062T465 1094T528 1106Q566 1106 595 1097T645 1062T675 993T686 879V-98Q686 -186 671 -245T623 -341T541 -394T422 -410H354V-203H385Q420 -203 429 -181T438 -127V791Q438 833 430 853T399 874Q388 874 375 869T350 857T326 840T305 821V0H57V1092Z"/><glyph unicode="Ō" horiz-adv-x="821" d="M191 1792H629V1589H191V1792ZM410 -14Q315 -14 245 27T128 161T58 400T35 758Q35 969 58 1116T128 1355T245 1488T410 1530Q504 1530 574 1489T691 1355T761 1116T784 758Q784 547 761 400T692 161T575 28T410 -14ZM410 223Q444 223 464 250T496 341T510 506T514 758Q514 907 511 1008T496 1171T465 1259T410 1286Q377 1286 357 1260T326 1171T311 1008T307 758Q307 609 310 507T325 341T357 251T410 223Z"/><glyph unicode="ō" horiz-adv-x="711" d="M135 1395H573V1192H135V1395ZM356 -14Q192 -14 111 126T29 545Q29 1106 356 1106Q518 1106 600 966T682 545Q682 267 600 127T356 -14ZM356 188Q379 188 394 204T417 260T429 370T432 547Q432 644 429 710T418 816T395 875T356 893Q333 893 318 878T293 824T280 718T276 547Q276 449 279 381T292 269T316 207T356 188Z"/><glyph unicode="Ŏ" horiz-adv-x="821" d="M410 -14Q315 -14 245 27T128 161T58 400T35 758Q35 969 58 1116T128 1355T245 1488T410 1530Q504 1530 574 1489T691 1355T761 1116T784 758Q784 547 761 400T692 161T575 28T410 -14ZM410 223Q444 223 464 250T496 341T510 506T514 758Q514 907 511 1008T496 1171T465 1259T410 1286Q377 1286 357 1260T326 1171T311 1008T307 758Q307 609 310 507T325 341T357 251T410 223ZM412 1583Q356 1583 317 1601T254 1658T217 1755T201 1896H355Q359 1818 368 1776T412 1734Q429 1734 439 1744T454 1776T462 1827T467 1896H621Q618 1815 606 1756T570 1658T507 1602T412 1583Z"/><glyph unicode="ŏ" horiz-adv-x="711" d="M356 -14Q192 -14 111 126T29 545Q29 1106 356 1106Q518 1106 600 966T682 545Q682 267 600 127T356 -14ZM356 188Q379 188 394 204T417 260T429 370T432 547Q432 644 429 710T418 816T395 875T356 893Q333 893 318 878T293 824T280 718T276 547Q276 449 279 381T292 269T316 207T356 188ZM356 1186Q300 1186 261 1204T198 1261T161 1358T145 1499H299Q303 1421 312 1379T356 1337Q373 1337 383 1347T398 1379T406 1430T411 1499H565Q562 1418 550 1359T514 1261T451 1205T356 1186Z"/><glyph unicode="Ő" horiz-adv-x="821" d="M549 1898H791L635 1589H445L549 1898ZM254 1898H496L340 1589H150L254 1898ZM410 -14Q315 -14 245 27T128 161T58 400T35 758Q35 969 58 1116T128 1355T245 1488T410 1530Q504 1530 574 1489T691 1355T761 1116T784 758Q784 547 761 400T692 161T575 28T410 -14ZM410 223Q444 223 464 250T496 341T510 506T514 758Q514 907 511 1008T496 1171T465 1259T410 1286Q377 1286 357 1260T326 1171T311 1008T307 758Q307 609 310 507T325 341T357 251T410 223Z"/><glyph unicode="ő" horiz-adv-x="711" d="M493 1501H735L579 1192H389L493 1501ZM198 1501H440L284 1192H94L198 1501ZM356 -14Q192 -14 111 126T29 545Q29 1106 356 1106Q518 1106 600 966T682 545Q682 267 600 127T356 -14ZM356 188Q379 188 394 204T417 260T429 370T432 547Q432 644 429 710T418 816T395 875T356 893Q333 893 318 878T293 824T280 718T276 547Q276 449 279 381T292 269T316 207T356 188Z"/><glyph unicode="Œ" horiz-adv-x="1081" d="M522 1516H1055V1284H776V913H971V696H776V223H1063V0H522V4Q472 -14 410 -14Q315 -14 245 27T128 161T58 400T35 758Q35 969 58 1116T128 1355T245 1488T410 1530Q474 1530 522 1511V1516ZM410 223Q444 223 464 250T496 341T510 506T514 758Q514 907 511 1008T496 1171T465 1259T410 1286Q377 1286 357 1260T326 1171T311 1008T307 758Q307 609 310 507T325 341T357 251T410 223Z"/><glyph unicode="œ" horiz-adv-x="1096" d="M356 -14Q192 -14 111 126T29 545Q29 1106 356 1106Q483 1106 555 1010Q627 1106 758 1106Q828 1106 878 1083T963 1021T1018 928T1049 813T1063 685T1067 555V465H674Q674 333 691 261T760 188Q780 188 793 196T815 223T829 274T838 354L1067 346Q1057 262 1035 195T977 82T886 11T758 -14Q695 -14 645 9T557 82Q520 32 471 9T356 -14ZM829 623Q828 696 825 747T814 832T793 880T758 895Q737 895 722 882T697 837T681 753T674 623H829ZM356 188Q379 188 394 204T417 260T429 370T432 547Q432 644 429 710T418 816T395 875T356 893Q333 893 318 878T293 824T280 718T276 547Q276 449 279 381T292 269T316 207T356 188Z"/><glyph unicode="Ŕ" horiz-adv-x="782" d="M397 1898H631L475 1589H291L397 1898ZM66 1516H377Q455 1516 523 1490T641 1406T719 1256T748 1034Q748 878 709 779T604 635L766 0H506L373 549H324V0H66V1516ZM373 745Q400 745 420 758T455 803T476 891T483 1030Q483 1108 476 1157T455 1235T419 1273T371 1284H324V745H373Z"/><glyph unicode="ŕ" horiz-adv-x="532" d="M531 1501H765L609 1192H425L531 1501ZM55 1092H305V924H307Q320 961 339 994T382 1053T434 1093T494 1108Q499 1108 504 1108T514 1106Q519 1105 524 1104L522 862H496Q430 862 382 837T305 780V0H55V1092Z"/><glyph unicode="Ŗ" horiz-adv-x="782" d="M374 -301H276V-53H508V-289L405 -498H317L374 -301ZM66 1516H377Q455 1516 523 1490T641 1406T719 1256T748 1034Q748 878 709 779T604 635L766 0H506L373 549H324V0H66V1516ZM373 745Q400 745 420 758T455 803T476 891T483 1030Q483 1108 476 1157T455 1235T419 1273T371 1284H324V745H373Z"/><glyph unicode="ŗ" horiz-adv-x="532" d="M422 -301H324V-53H556V-289L453 -498H365L422 -301ZM55 1092H305V924H307Q320 961 339 994T382 1053T434 1093T494 1108Q499 1108 504 1108T514 1106Q519 1105 524 1104L522 862H496Q430 862 382 837T305 780V0H55V1092Z"/><glyph unicode="Ř" horiz-adv-x="782" d="M162 1898H313L391 1769L469 1898H620L477 1579H307L162 1898ZM66 1516H377Q455 1516 523 1490T641 1406T719 1256T748 1034Q748 878 709 779T604 635L766 0H506L373 549H324V0H66V1516ZM373 745Q400 745 420 758T455 803T476 891T483 1030Q483 1108 476 1157T455 1235T419 1273T371 1284H324V745H373Z"/><glyph unicode="ř" horiz-adv-x="532" d="M294 1501H445L523 1372L601 1501H752L609 1182H439L294 1501ZM55 1092H305V924H307Q320 961 339 994T382 1053T434 1093T494 1108Q499 1108 504 1108T514 1106Q519 1105 524 1104L522 862H496Q430 862 382 837T305 780V0H55V1092Z"/><glyph unicode="Ś" horiz-adv-x="766" d="M389 1898H623L467 1589H283L389 1898ZM383 -14Q274 -14 207 21T100 121T45 272T20 465L266 483Q274 402 283 349T305 265T337 220T385 207Q430 207 453 240T477 342Q477 390 461 431T418 512T356 590T283 672Q241 720 199 770T122 878T67 1004T45 1157Q45 1243 66 1312T129 1429T232 1504T373 1530Q469 1530 533 1501T637 1414T696 1273T723 1081L475 1059Q470 1140 462 1188T442 1261T414 1293T377 1300Q340 1300 324 1268T307 1184Q307 1128 322 1083T363 997T423 919T494 842Q537 795 580 748T659 643T715 517T737 356Q737 174 646 80T383 -14Z"/><glyph unicode="ś" horiz-adv-x="666" d="M599 1501H833L677 1192H493L599 1501ZM334 -18Q247 -18 190 5T96 71T40 173T8 303L225 334Q241 249 268 212T328 174Q359 174 376 192T393 248Q393 277 381 301T349 347T302 391T246 440Q209 473 172 511T104 594T56 696T37 821Q37 902 64 957T133 1047T224 1097T319 1112Q386 1112 439 1096T530 1044T593 951T629 811L416 772Q410 813 403 839T386 881T363 903T332 909Q307 909 291 892T274 842Q274 812 286 786T317 736T363 689T418 641Q455 606 494 571T564 493T615 398T635 279Q635 213 615 158T557 64T462 4T334 -18Z"/><glyph unicode="Ŝ" horiz-adv-x="766" d="M295 1898H465L608 1579H457L379 1708L299 1579H150L295 1898ZM383 -14Q274 -14 207 21T100 121T45 272T20 465L266 483Q274 402 283 349T305 265T337 220T385 207Q430 207 453 240T477 342Q477 390 461 431T418 512T356 590T283 672Q241 720 199 770T122 878T67 1004T45 1157Q45 1243 66 1312T129 1429T232 1504T373 1530Q469 1530 533 1501T637 1414T696 1273T723 1081L475 1059Q470 1140 462 1188T442 1261T414 1293T377 1300Q340 1300 324 1268T307 1184Q307 1128 322 1083T363 997T423 919T494 842Q537 795 580 748T659 643T715 517T737 356Q737 174 646 80T383 -14Z"/><glyph unicode="ŝ" horiz-adv-x="666" d="M507 1501H677L820 1182H669L591 1311L511 1182H362L507 1501ZM334 -18Q247 -18 190 5T96 71T40 173T8 303L225 334Q241 249 268 212T328 174Q359 174 376 192T393 248Q393 277 381 301T349 347T302 391T246 440Q209 473 172 511T104 594T56 696T37 821Q37 902 64 957T133 1047T224 1097T319 1112Q386 1112 439 1096T530 1044T593 951T629 811L416 772Q410 813 403 839T386 881T363 903T332 909Q307 909 291 892T274 842Q274 812 286 786T317 736T363 689T418 641Q455 606 494 571T564 493T615 398T635 279Q635 213 615 158T557 64T462 4T334 -18Z"/><glyph unicode="Ş" horiz-adv-x="766" d="M383 -14Q274 -14 207 21T100 121T45 272T20 465L266 483Q274 402 283 349T305 265T337 220T385 207Q430 207 453 240T477 342Q477 390 461 431T418 512T356 590T283 672Q241 720 199 770T122 878T67 1004T45 1157Q45 1243 66 1312T129 1429T232 1504T373 1530Q469 1530 533 1501T637 1414T696 1273T723 1081L475 1059Q470 1140 462 1188T442 1261T414 1293T377 1300Q340 1300 324 1268T307 1184Q307 1128 322 1083T363 997T423 919T494 842Q537 795 580 748T659 643T715 517T737 356Q737 174 646 80T383 -14ZM393 -406Q325 -406 271 -389T170 -348L219 -238Q231 -245 250 -253T291 -270T339 -283T391 -289Q413 -289 430 -275T447 -229Q447 -206 437 -194T410 -182Q396 -182 385 -189T363 -213L275 -176L324 2H443L418 -92Q427 -80 449 -72T492 -63Q515 -63 536 -72T573 -100T600 -148T610 -217Q610 -255 598 -289T560 -350T493 -391T393 -406Z"/><glyph unicode="ş" horiz-adv-x="666" d="M334 -18Q247 -18 190 5T96 71T40 173T8 303L225 334Q241 249 268 212T328 174Q359 174 376 192T393 248Q393 277 381 301T349 347T302 391T246 440Q209 473 172 511T104 594T56 696T37 821Q37 902 64 957T133 1047T224 1097T319 1112Q386 1112 439 1096T530 1044T593 951T629 811L416 772Q410 813 403 839T386 881T363 903T332 909Q307 909 291 892T274 842Q274 812 286 786T317 736T363 689T418 641Q455 606 494 571T564 493T615 398T635 279Q635 213 615 158T557 64T462 4T334 -18ZM605 -406Q537 -406 483 -389T382 -348L431 -238Q443 -245 462 -253T503 -270T551 -283T603 -289Q625 -289 642 -275T659 -229Q659 -206 649 -194T622 -182Q608 -182 597 -189T575 -213L487 -176L536 2H655L630 -92Q639 -80 661 -72T704 -63Q727 -63 748 -72T785 -100T812 -148T822 -217Q822 -255 810 -289T772 -350T705 -391T605 -406Z"/><glyph unicode="Š" horiz-adv-x="766" d="M154 1898H305L383 1769L461 1898H612L469 1579H299L154 1898ZM383 -14Q274 -14 207 21T100 121T45 272T20 465L266 483Q274 402 283 349T305 265T337 220T385 207Q430 207 453 240T477 342Q477 390 461 431T418 512T356 590T283 672Q241 720 199 770T122 878T67 1004T45 1157Q45 1243 66 1312T129 1429T232 1504T373 1530Q469 1530 533 1501T637 1414T696 1273T723 1081L475 1059Q470 1140 462 1188T442 1261T414 1293T377 1300Q340 1300 324 1268T307 1184Q307 1128 322 1083T363 997T423 919T494 842Q537 795 580 748T659 643T715 517T737 356Q737 174 646 80T383 -14Z"/><glyph unicode="š" horiz-adv-x="666" d="M362 1501H513L591 1372L669 1501H820L677 1182H507L362 1501ZM334 -18Q247 -18 190 5T96 71T40 173T8 303L225 334Q241 249 268 212T328 174Q359 174 376 192T393 248Q393 277 381 301T349 347T302 391T246 440Q209 473 172 511T104 594T56 696T37 821Q37 902 64 957T133 1047T224 1097T319 1112Q386 1112 439 1096T530 1044T593 951T629 811L416 772Q410 813 403 839T386 881T363 903T332 909Q307 909 291 892T274 842Q274 812 286 786T317 736T363 689T418 641Q455 606 494 571T564 493T615 398T635 279Q635 213 615 158T557 64T462 4T334 -18Z"/><glyph unicode="Ţ" horiz-adv-x="672" d="M319 -301H221V-53H453V-289L350 -498H262L319 -301ZM203 1284H4V1516H666V1284H469V0H203V1284Z"/><glyph unicode="ţ" horiz-adv-x="512" d="M204 -301H106V-53H338V-289L235 -498H147L204 -301ZM342 -10Q287 -10 242 -2T163 30T112 95T94 203V897H8V1092H94V1466H342V1092H483V897H342V291Q342 253 346 230T359 195T383 178T420 174Q440 174 455 176T483 184V2Q469 -3 432 -6T342 -10Z"/><glyph unicode="Ť" horiz-adv-x="672" d="M108 1898H259L337 1769L415 1898H566L423 1579H253L108 1898ZM203 1284H4V1516H666V1284H469V0H203V1284Z"/><glyph unicode="ť" horiz-adv-x="512" d="M469 1391H393V1608H588V1403L500 1217H420L469 1391ZM342 -10Q287 -10 242 -2T163 30T112 95T94 203V897H8V1092H94V1466H342V1092H483V897H342V291Q342 253 346 230T359 195T383 178T420 174Q440 174 455 176T483 184V2Q469 -3 432 -6T342 -10Z"/><glyph unicode="Ŧ" horiz-adv-x="672" d="M6 805H203V1286H6V1516H666V1286H469V805H666V590H469V0H203V590H6V805Z"/><glyph unicode="ŧ" horiz-adv-x="512" d="M8 639H96V897H8V1092H96V1466H342V1092H483V897H342V639H483V461H342V291Q342 253 346 230T359 195T383 178T420 174Q440 174 455 176T483 184V2Q469 -3 432 -6T342 -10Q288 -10 243 -2T165 30T114 95T96 203V461H8V639Z"/><glyph unicode="Ũ" horiz-adv-x="807" d="M401 -14Q304 -14 239 14T135 98T78 236T61 424V1516H326V440Q326 373 329 329T342 257T367 219T410 207Q435 207 451 217T477 254T490 325T494 436V1516H745V430Q745 322 728 240T670 101T564 15T401 -14ZM512 1554Q473 1554 445 1572T393 1611T351 1651T313 1669Q290 1669 279 1645T268 1558H131Q131 1730 171 1807T297 1884Q334 1884 362 1866T413 1827T455 1787T493 1769Q518 1769 529 1793T540 1880H677Q677 1793 667 1731T636 1630T584 1573T512 1554Z"/><glyph unicode="ũ" horiz-adv-x="739" d="M211 -14Q173 -14 144 -5T95 30T64 99T53 213V1092H301V295Q301 253 309 233T342 213Q364 213 390 226T434 256V1092H684V0H434V119Q417 96 392 72T336 29T274 -2T211 -14ZM480 1157Q441 1157 413 1175T361 1214T319 1254T281 1272Q258 1272 247 1248T236 1161H99Q99 1333 139 1410T265 1487Q302 1487 330 1469T381 1430T423 1390T461 1372Q486 1372 497 1396T508 1483H645Q645 1396 635 1334T604 1233T552 1176T480 1157Z"/><glyph unicode="Ū" horiz-adv-x="807" d="M401 -14Q304 -14 239 14T135 98T78 236T61 424V1516H326V440Q326 373 329 329T342 257T367 219T410 207Q435 207 451 217T477 254T490 325T494 436V1516H745V430Q745 322 728 240T670 101T564 15T401 -14ZM182 1792H620V1589H182V1792Z"/><glyph unicode="ū" horiz-adv-x="739" d="M211 -14Q173 -14 144 -5T95 30T64 99T53 213V1092H301V295Q301 253 309 233T342 213Q364 213 390 226T434 256V1092H684V0H434V119Q417 96 392 72T336 29T274 -2T211 -14ZM150 1395H588V1192H150V1395Z"/><glyph unicode="Ŭ" horiz-adv-x="807" d="M401 -14Q304 -14 239 14T135 98T78 236T61 424V1516H326V440Q326 373 329 329T342 257T367 219T410 207Q435 207 451 217T477 254T490 325T494 436V1516H745V430Q745 322 728 240T670 101T564 15T401 -14ZM403 1583Q347 1583 308 1601T245 1658T208 1755T192 1896H346Q350 1818 359 1776T403 1734Q420 1734 430 1744T445 1776T453 1827T458 1896H612Q609 1815 597 1756T561 1658T498 1602T403 1583Z"/><glyph unicode="ŭ" horiz-adv-x="739" d="M211 -14Q173 -14 144 -5T95 30T64 99T53 213V1092H301V295Q301 253 309 233T342 213Q364 213 390 226T434 256V1092H684V0H434V119Q417 96 392 72T336 29T274 -2T211 -14ZM371 1186Q315 1186 276 1204T213 1261T176 1358T160 1499H314Q318 1421 327 1379T371 1337Q388 1337 398 1347T413 1379T421 1430T426 1499H580Q577 1418 565 1359T529 1261T466 1205T371 1186Z"/><glyph unicode="Ů" horiz-adv-x="807" d="M403 1565Q363 1565 331 1581T277 1627T242 1699T229 1792Q229 1897 276 1957T403 2017Q441 2017 473 2002T528 1957T565 1886T579 1792Q579 1741 567 1699T532 1627T477 1581T403 1565ZM403 1681Q434 1681 446 1711T458 1788Q458 1833 446 1862T403 1892Q374 1892 362 1863T350 1788Q350 1741 362 1711T403 1681ZM401 -14Q304 -14 239 14T135 98T78 236T61 424V1516H326V440Q326 373 329 329T342 257T367 219T410 207Q435 207 451 217T477 254T490 325T494 436V1516H745V430Q745 322 728 240T670 101T564 15T401 -14Z"/><glyph unicode="ů" horiz-adv-x="739" d="M368 1162Q328 1162 296 1178T242 1224T207 1296T194 1389Q194 1494 241 1554T368 1614Q406 1614 438 1599T493 1554T530 1483T544 1389Q544 1338 532 1296T497 1224T442 1178T368 1162ZM368 1278Q399 1278 411 1308T423 1385Q423 1430 411 1459T368 1489Q339 1489 327 1460T315 1385Q315 1338 327 1308T368 1278ZM211 -14Q173 -14 144 -5T95 30T64 99T53 213V1092H301V295Q301 253 309 233T342 213Q364 213 390 226T434 256V1092H684V0H434V119Q417 96 392 72T336 29T274 -2T211 -14Z"/><glyph unicode="Ű" horiz-adv-x="807" d="M401 -14Q304 -14 239 14T135 98T78 236T61 424V1516H326V440Q326 373 329 329T342 257T367 219T410 207Q435 207 451 217T477 254T490 325T494 436V1516H745V430Q745 322 728 240T670 101T564 15T401 -14ZM540 1898H782L626 1589H436L540 1898ZM245 1898H487L331 1589H141L245 1898Z"/><glyph unicode="ű" horiz-adv-x="739" d="M211 -14Q173 -14 144 -5T95 30T64 99T53 213V1092H301V295Q301 253 309 233T342 213Q364 213 390 226T434 256V1092H684V0H434V119Q417 96 392 72T336 29T274 -2T211 -14ZM508 1501H750L594 1192H404L508 1501ZM213 1501H455L299 1192H109L213 1501Z"/><glyph unicode="Ų" horiz-adv-x="807" d="M400 -403Q358 -403 329 -390T282 -355T255 -304T246 -242Q246 -208 255 -171T279 -100T315 -37T357 10H471Q457 -3 443 -25T416 -75T395 -133T387 -190Q387 -232 404 -252T447 -272Q479 -272 501 -257T547 -219L619 -279Q601 -303 579 -325T529 -364T470 -392T400 -403ZM401 -14Q304 -14 239 14T135 98T78 236T61 424V1516H326V440Q326 373 329 329T342 257T367 219T410 207Q435 207 451 217T477 254T490 325T494 436V1516H745V430Q745 322 728 240T670 101T564 15T401 -14Z"/><glyph unicode="ų" horiz-adv-x="739" d="M482 -403Q440 -403 411 -390T364 -355T337 -304T328 -242Q328 -208 337 -171T361 -100T397 -37T439 10H553Q539 -3 525 -25T498 -75T477 -133T469 -190Q469 -232 486 -252T529 -272Q561 -272 583 -257T629 -219L701 -279Q683 -303 661 -325T611 -364T552 -392T482 -403ZM211 -14Q173 -14 144 -5T95 30T64 99T53 213V1092H301V295Q301 253 309 233T342 213Q364 213 390 226T434 256V1092H684V0H434V119Q417 96 392 72T336 29T274 -2T211 -14Z"/><glyph unicode="Ŵ" horiz-adv-x="1090" d="M465 1898H635L778 1579H627L549 1708L469 1579H320L465 1898ZM10 1516H270L332 795Q337 723 342 643T350 475Q351 496 352 507Q353 515 353 514T352 485L381 795L467 1516H655L729 801Q733 758 737 719T744 642T751 563T756 475H758Q760 523 762 562T766 639T771 715T778 799L838 1516H1079L889 -4H645L545 958H543L442 -4H197L10 1516Z"/><glyph unicode="ŵ" horiz-adv-x="965" d="M397 1501H567L710 1182H559L481 1311L401 1182H252L397 1501ZM6 1092H254L303 594Q304 570 305 547T308 499T311 443T315 373H317Q320 409 323 439T330 495T336 545T342 592L418 1092H559L635 594Q641 546 647 491T659 373H662Q665 439 668 493T676 596L723 1092H954L803 -4H567L481 608H479L391 -4H158L6 1092Z"/><glyph unicode="Ŷ" horiz-adv-x="709" d="M219 500L-16 1516H250L328 1110Q339 1042 350 970T369 840H373Q378 899 390 970T416 1110L489 1516H723L485 500V0H219V500ZM285 1898H455L598 1579H447L369 1708L289 1579H140L285 1898Z"/><glyph unicode="ŷ" horiz-adv-x="655" d="M127 -410Q79 -410 36 -405T-35 -391L8 -182Q25 -185 41 -187T72 -190Q100 -190 119 -186T152 -170T173 -140T188 -90L201 -23L-10 1092H256L309 592Q317 533 321 472T332 342H336Q341 410 347 472T360 592L424 1092H668L432 -92Q417 -170 394 -229T336 -329T249 -389T127 -410ZM507 1501H677L820 1182H669L591 1311L511 1182H362L507 1501Z"/><glyph unicode="Ÿ" horiz-adv-x="709" d="M219 500L-16 1516H250L328 1110Q339 1042 350 970T369 840H373Q378 899 390 970T416 1110L489 1516H723L485 500V0H219V500ZM410 1833H619V1589H410V1833ZM119 1833H326V1589H119V1833Z"/><glyph unicode="Ź" horiz-adv-x="682" d="M348 1898H582L426 1589H242L348 1898ZM12 205L387 1290H45V1516H655V1303L281 217H655V0H12V205Z"/><glyph unicode="ź" horiz-adv-x="604" d="M566 1501H800L644 1192H460L566 1501ZM20 166L307 897H51V1092H571V915L283 184H584V0H20V166Z"/><glyph unicode="Ż" horiz-adv-x="682" d="M12 205L387 1290H45V1516H655V1303L281 217H655V0H12V205ZM214 1835H470V1585H214V1835Z"/><glyph unicode="ż" horiz-adv-x="604" d="M20 166L307 897H51V1092H571V915L283 184H584V0H20V166ZM433 1438H689V1188H433V1438Z"/><glyph unicode="Ž" horiz-adv-x="682" d="M112 1898H263L341 1769L419 1898H570L427 1579H257L112 1898ZM12 205L387 1290H45V1516H655V1303L281 217H655V0H12V205Z"/><glyph unicode="ž" horiz-adv-x="604" d="M331 1501H482L560 1372L638 1501H789L646 1182H476L331 1501ZM20 166L307 897H51V1092H571V915L283 184H584V0H20V166Z"/><glyph unicode="ƒ" horiz-adv-x="569" d="M-84 -197H-47Q-7 -197 13 -179T41 -109L150 655H59L86 850H176L229 1237Q241 1321 262 1375T322 1461T422 1504T575 1516H625L596 1303H559Q519 1303 499 1285T471 1214L422 850H530L504 655H395L283 -131Q270 -222 250 -277T196 -361T109 -400T-20 -410H-113L-84 -197Z"/><glyph unicode="Ș" horiz-adv-x="766" d="M366 -301H268V-53H500V-289L397 -498H309L366 -301ZM383 -14Q274 -14 207 21T100 121T45 272T20 465L266 483Q274 402 283 349T305 265T337 220T385 207Q430 207 453 240T477 342Q477 390 461 431T418 512T356 590T283 672Q241 720 199 770T122 878T67 1004T45 1157Q45 1243 66 1312T129 1429T232 1504T373 1530Q469 1530 533 1501T637 1414T696 1273T723 1081L475 1059Q470 1140 462 1188T442 1261T414 1293T377 1300Q340 1300 324 1268T307 1184Q307 1128 322 1083T363 997T423 919T494 842Q537 795 580 748T659 643T715 517T737 356Q737 174 646 80T383 -14Z"/><glyph unicode="ș" horiz-adv-x="666" d="M315 -301H217V-53H449V-289L346 -498H258L315 -301ZM334 -18Q247 -18 190 5T96 71T40 173T8 303L225 334Q241 249 268 212T328 174Q359 174 376 192T393 248Q393 277 381 301T349 347T302 391T246 440Q209 473 172 511T104 594T56 696T37 821Q37 902 64 957T133 1047T224 1097T319 1112Q386 1112 439 1096T530 1044T593 951T629 811L416 772Q410 813 403 839T386 881T363 903T332 909Q307 909 291 892T274 842Q274 812 286 786T317 736T363 689T418 641Q455 606 494 571T564 493T615 398T635 279Q635 213 615 158T557 64T462 4T334 -18Z"/><glyph unicode="Ț" horiz-adv-x="672" d="M319 -301H221V-53H453V-289L350 -498H262L319 -301ZM203 1284H4V1516H666V1284H469V0H203V1284Z"/><glyph unicode="ț" horiz-adv-x="512" d="M204 -301H106V-53H338V-289L235 -498H147L204 -301ZM342 -10Q287 -10 242 -2T163 30T112 95T94 203V897H8V1092H94V1466H342V1092H483V897H342V291Q342 253 346 230T359 195T383 178T420 174Q440 174 455 176T483 184V2Q469 -3 432 -6T342 -10Z"/><glyph unicode="ə" horiz-adv-x="692" d="M340 1106Q502 1106 584 967T666 547Q666 -14 340 -14Q269 -14 219 9T134 71T80 164T48 279T34 406T31 537V627H424Q424 760 407 831T338 903Q318 903 305 895T282 867T268 816T258 737L31 745Q41 830 62 897T120 1010T211 1081T340 1106ZM268 469Q269 394 272 342T282 258T304 210T340 195Q361 195 376 208T401 254T416 338T424 469H268Z"/><glyph unicode="ˆ" horiz-adv-x="684" d="M258 1501H428L571 1182H420L342 1311L262 1182H113L258 1501Z"/><glyph unicode="ˇ" horiz-adv-x="684" d="M113 1501H264L342 1372L420 1501H571L428 1182H258L113 1501Z"/><glyph unicode="˘" horiz-adv-x="684" d="M344 1186Q288 1186 249 1204T186 1261T149 1358T133 1499H287Q291 1421 300 1379T344 1337Q361 1337 371 1347T386 1379T394 1430T399 1499H553Q550 1418 538 1359T502 1261T439 1205T344 1186Z"/><glyph unicode="˙" horiz-adv-x="684" d="M215 1438H471V1188H215V1438Z"/><glyph unicode="˚" horiz-adv-x="696" d="M348 1137Q308 1137 276 1153T222 1199T187 1271T174 1364Q174 1469 221 1529T348 1589Q386 1589 418 1574T473 1529T510 1458T524 1364Q524 1313 512 1271T477 1199T422 1153T348 1137ZM348 1253Q379 1253 391 1283T403 1360Q403 1405 391 1434T348 1464Q319 1464 307 1435T295 1360Q295 1313 307 1283T348 1253Z"/><glyph unicode="˛" horiz-adv-x="684" d="M289 -403Q247 -403 218 -390T171 -355T144 -304T135 -242Q135 -208 144 -171T168 -100T204 -37T246 10H360Q346 -3 332 -25T305 -75T284 -133T276 -190Q276 -232 293 -252T336 -272Q368 -272 390 -257T436 -219L508 -279Q490 -303 468 -325T418 -364T359 -392T289 -403Z"/><glyph unicode="˜" horiz-adv-x="684" d="M453 1157Q414 1157 386 1175T334 1214T292 1254T254 1272Q231 1272 220 1248T209 1161H72Q72 1333 112 1410T238 1487Q275 1487 303 1469T354 1430T396 1390T434 1372Q459 1372 470 1396T481 1483H618Q618 1396 608 1334T577 1233T525 1176T453 1157Z"/><glyph unicode="˝" horiz-adv-x="684" d="M481 1501H723L567 1192H377L481 1501ZM186 1501H428L272 1192H82L186 1501Z"/><glyph unicode="̦" horiz-adv-x="414" d="M190 -301H92V-53H324V-289L221 -498H133L190 -301Z"/><glyph unicode="μ" horiz-adv-x="741" d="M55 1092H303V279Q303 237 311 216T342 195Q365 195 392 208T436 240V1092H684V0H436V109Q419 86 392 62T332 27Q324 24 317 24T303 25V-410H55V1092Z"/><glyph unicode="Ẁ" horiz-adv-x="1090" d="M10 1516H270L332 795Q337 723 342 643T350 475Q351 496 352 507Q353 515 353 514T352 485L381 795L467 1516H655L729 801Q733 758 737 719T744 642T751 563T756 475H758Q760 523 762 562T766 639T771 715T778 799L838 1516H1079L889 -4H645L545 958H543L442 -4H197L10 1516ZM309 1898H543L649 1589H465L309 1898Z"/><glyph unicode="ẁ" horiz-adv-x="965" d="M6 1092H254L303 594Q304 570 305 547T308 499T311 443T315 373H317Q320 409 323 439T330 495T336 545T342 592L418 1092H559L635 594Q641 546 647 491T659 373H662Q665 439 668 493T676 596L723 1092H954L803 -4H567L481 608H479L391 -4H158L6 1092ZM243 1501H477L583 1192H399L243 1501Z"/><glyph unicode="Ẃ" horiz-adv-x="1090" d="M577 1898H811L655 1589H471L577 1898ZM10 1516H270L332 795Q337 723 342 643T350 475Q351 496 352 507Q353 515 353 514T352 485L381 795L467 1516H655L729 801Q733 758 737 719T744 642T751 563T756 475H758Q760 523 762 562T766 639T771 715T778 799L838 1516H1079L889 -4H645L545 958H543L442 -4H197L10 1516Z"/><glyph unicode="ẃ" horiz-adv-x="965" d="M489 1501H723L567 1192H383L489 1501ZM6 1092H254L303 594Q304 570 305 547T308 499T311 443T315 373H317Q320 409 323 439T330 495T336 545T342 592L418 1092H559L635 594Q641 546 647 491T659 373H662Q665 439 668 493T676 596L723 1092H954L803 -4H567L481 608H479L391 -4H158L6 1092Z"/><glyph unicode="Ẅ" horiz-adv-x="1090" d="M590 1833H799V1589H590V1833ZM299 1833H506V1589H299V1833ZM10 1516H270L332 795Q337 723 342 643T350 475Q351 496 352 507Q353 515 353 514T352 485L381 795L467 1516H655L729 801Q733 758 737 719T744 642T751 563T756 475H758Q760 523 762 562T766 639T771 715T778 799L838 1516H1079L889 -4H645L545 958H543L442 -4H197L10 1516Z"/><glyph unicode="ẅ" horiz-adv-x="965" d="M522 1436H731V1192H522V1436ZM231 1436H438V1192H231V1436ZM6 1092H254L303 594Q304 570 305 547T308 499T311 443T315 373H317Q320 409 323 439T330 495T336 545T342 592L418 1092H559L635 594Q641 546 647 491T659 373H662Q665 439 668 493T676 596L723 1092H954L803 -4H567L481 608H479L391 -4H158L6 1092Z"/><glyph unicode="Ỳ" horiz-adv-x="709" d="M219 500L-16 1516H250L328 1110Q339 1042 350 970T369 840H373Q378 899 390 970T416 1110L489 1516H723L485 500V0H219V500ZM122 1898H356L462 1589H278L122 1898Z"/><glyph unicode="ỳ" horiz-adv-x="655" d="M127 -410Q79 -410 36 -405T-35 -391L8 -182Q25 -185 41 -187T72 -190Q100 -190 119 -186T152 -170T173 -140T188 -90L201 -23L-10 1092H256L309 592Q317 533 321 472T332 342H336Q341 410 347 472T360 592L424 1092H668L432 -92Q417 -170 394 -229T336 -329T249 -389T127 -410ZM104 1501H338L444 1192H260L104 1501Z"/><glyph unicode=" " horiz-adv-x="1024"/><glyph unicode=" " horiz-adv-x="2048"/><glyph unicode=" " horiz-adv-x="410"/><glyph unicode=" " horiz-adv-x="410"/><glyph unicode="‒" horiz-adv-x="819" d="M82 737H739V520H82V737Z"/><glyph unicode="–" horiz-adv-x="788" d="M66 737H723V520H66V737Z"/><glyph unicode="—" horiz-adv-x="1012" d="M66 737H946V520H66V737Z"/><glyph unicode="―" horiz-adv-x="2048" d="M0 737H2048V520H0V737Z"/><glyph unicode="‘" horiz-adv-x="414" d="M66 1212L190 1516H295L225 1241H350V940H66V1212Z"/><glyph unicode="’" horiz-adv-x="414" d="M190 1214H66V1516H348V1243L225 940H119L190 1214Z"/><glyph unicode="‚" horiz-adv-x="414" d="M190 0H66V301H348V29L225 -274H119L190 0Z"/><glyph unicode="“" horiz-adv-x="764" d="M422 1221L543 1516H645L578 1247H698V956H422V1221ZM66 1221L186 1516H289L221 1247H342V956H66V1221Z"/><glyph unicode="”" horiz-adv-x="764" d="M543 1223H422V1516H698V1251L578 956H475L543 1223ZM186 1223H66V1516H342V1251L221 956H117L186 1223Z"/><glyph unicode="„" horiz-adv-x="764" d="M547 0H426V293H702V29L582 -268H479L547 0ZM182 0H61V293H338V29L217 -268H115L182 0Z"/><glyph unicode="†" horiz-adv-x="733" d="M272 801L43 782V1006L272 985L238 1516H494L461 985L690 1006V782L461 801L494 -410H238L272 801Z"/><glyph unicode="‡" horiz-adv-x="729" d="M270 35L43 14V238L270 219L242 559L270 889L43 870V1094L270 1073L238 1516H494L459 1073L686 1094V870L459 889L489 559L459 219L686 238V14L459 35L494 -410H238L270 35Z"/><glyph unicode="•" horiz-adv-x="856" d="M428 485Q380 485 340 502T270 551T224 624T207 717Q207 768 223 810T269 884T339 932T428 950Q476 950 516 933T586 884T632 811T649 717Q649 667 633 625T587 551T517 503T428 485Z"/><glyph unicode="…" horiz-adv-x="1251" d="M903 301H1186V0H903V301ZM483 301H768V0H483V301ZM66 301H348V0H66V301Z"/><glyph unicode="‰" horiz-adv-x="1884" d="M291 639Q214 639 163 672T82 764T40 904T27 1081Q27 1182 41 1264T86 1406T168 1497T291 1530Q364 1530 414 1498T495 1408T539 1268T553 1087Q553 991 541 909T498 767T418 673T291 639ZM807 1516H999L502 0H309L807 1516ZM1593 -14Q1517 -14 1467 19T1386 110T1344 250T1331 426Q1331 527 1345 610T1390 752T1472 844T1595 877Q1669 877 1719 845T1800 755T1844 615T1858 434Q1858 338 1845 256T1802 114T1720 20T1593 -14ZM1018 -14Q942 -14 892 19T811 110T769 250T756 426Q756 527 770 610T815 752T896 844T1020 877Q1094 877 1144 845T1225 755T1269 615T1282 434Q1282 338 1270 256T1227 114T1145 20T1018 -14ZM291 815Q307 815 316 828T330 873T336 956T338 1083Q338 1159 337 1209T330 1290T316 1333T291 1346Q275 1346 266 1334T252 1293T246 1213T244 1087Q244 1009 245 957T251 873T265 828T291 815ZM1595 162Q1611 162 1620 175T1634 220T1640 302T1642 430Q1642 511 1641 562T1634 642T1619 681T1593 692Q1577 692 1568 680T1554 639T1548 559T1546 434Q1546 353 1547 301T1554 218T1569 175T1595 162ZM1020 162Q1036 162 1045 175T1059 220T1065 302T1067 430Q1067 511 1066 562T1059 642T1044 681T1018 692Q1002 692 993 680T979 639T973 559T971 434Q971 353 972 301T979 218T994 175T1020 162Z"/><glyph unicode="′" horiz-adv-x="362" d="M80 1411L98 1516H358L244 965H23L80 1411Z"/><glyph unicode="″" horiz-adv-x="684" d="M412 1411L430 1516H680L565 965H350L412 1411ZM80 1411L98 1516H350L236 965H23L80 1411Z"/><glyph unicode="‹" horiz-adv-x="408" d="M14 549L158 1092H381L240 547L381 0H158L14 549Z"/><glyph unicode="›" horiz-adv-x="408" d="M168 547L25 1092H250L393 547L250 0H25L168 547Z"/><glyph unicode="⁄" horiz-adv-x="575" d="M385 1516H588L193 0H-12L385 1516Z"/><glyph unicode="⁰" horiz-adv-x="649" d="M326 565Q265 565 219 586T142 662T96 808T80 1044Q80 1186 95 1279T142 1426T219 1502T326 1524Q386 1524 431 1503T507 1427T553 1279T569 1044Q569 901 554 809T508 662T432 587T326 565ZM326 713Q344 713 355 725T372 773T380 874T383 1044Q383 1149 381 1213T372 1312T355 1358T326 1370Q307 1370 296 1359T278 1312T269 1213T266 1044Q266 939 268 874T277 774T295 726T326 713Z"/><glyph unicode="⁴" horiz-adv-x="641" d="M319 766H66V897L291 1516H496V911H563V766H496V573H319V766ZM330 911V1223L221 911H330Z"/><glyph unicode="⁵" horiz-adv-x="633" d="M311 565Q243 565 201 588T133 648T97 734T80 834L254 850Q258 804 263 776T274 733T290 714T313 709Q329 709 339 718T356 749T364 804T367 889Q367 940 364 972T354 1022T337 1048T313 1055Q292 1055 280 1036T260 985L104 997L123 1516H522L512 1350H279L270 1137Q283 1168 310 1188T383 1208Q420 1208 450 1193T502 1141T535 1044T547 893Q547 804 532 742T488 640T414 583T311 565Z"/><glyph unicode="⁶" horiz-adv-x="629" d="M317 565Q257 565 213 591T139 673T95 818T80 1030Q80 1147 90 1239T128 1394T202 1491T322 1524Q405 1524 460 1472T532 1303L375 1274Q369 1323 359 1349T322 1376Q303 1376 292 1365T274 1326T264 1248T258 1122Q287 1159 316 1172T373 1186Q425 1186 459 1159T514 1088T542 986T551 868Q551 803 538 748T496 652T423 588T317 565ZM324 715Q337 715 347 722T363 745T372 787T375 854Q375 941 367 981T324 1022Q307 1022 292 1015T260 985Q261 909 264 857T274 774T294 729T324 715Z"/><glyph unicode="⁷" horiz-adv-x="537" d="M287 1350H63V1516H467V1356L272 573H92L287 1350Z"/><glyph unicode="⁸" horiz-adv-x="643" d="M322 559Q258 559 212 578T135 630T91 705T76 795Q76 839 86 876T114 946T155 1006T203 1059Q184 1080 165 1101T131 1150T106 1214T96 1300Q96 1351 112 1393T159 1466T230 1513T322 1530Q372 1530 412 1513T482 1466T527 1394T543 1300Q543 1225 512 1167T436 1063Q461 1040 484 1016T525 960T554 889T565 795Q565 746 548 703T500 628T423 578T322 559ZM317 696Q355 696 368 723T381 795Q381 849 362 886T317 956Q291 922 273 885T254 795Q254 751 267 724T317 696ZM328 1163Q346 1192 359 1223T373 1298Q373 1384 324 1384Q274 1384 274 1303Q274 1255 289 1224T328 1163Z"/><glyph unicode="⁹" horiz-adv-x="629" d="M305 565Q222 565 167 615T94 782L252 811Q260 761 270 734T305 707Q323 707 334 719T352 760T362 839T369 965Q341 930 312 917T254 903Q203 903 169 930T114 1001T85 1103T76 1221Q76 1285 89 1340T131 1437T203 1501T309 1524Q370 1524 415 1498T490 1415T534 1270T549 1059Q549 941 539 849T501 694T426 598T305 565ZM303 1063Q320 1063 336 1069T369 1098Q367 1174 364 1226T353 1310T335 1356T305 1370Q277 1370 265 1340T252 1231Q252 1143 260 1103T303 1063Z"/><glyph unicode="₀" horiz-adv-x="649" d="M326 -415Q265 -415 219 -394T142 -318T96 -172T80 64Q80 206 95 299T142 446T219 522T326 544Q386 544 431 523T507 447T553 299T569 64Q569 -79 554 -171T508 -318T432 -393T326 -415ZM326 -267Q344 -267 355 -255T372 -207T380 -106T383 64Q383 169 381 233T372 332T355 378T326 390Q307 390 296 379T278 332T269 233T266 64Q266 -41 268 -106T277 -206T295 -254T326 -267Z"/><glyph unicode="₁" horiz-adv-x="465" d="M59 -247H152V339Q130 327 108 321T61 314V476Q97 479 120 492T160 536H338V-247H414V-409H59V-247Z"/><glyph unicode="₂" horiz-adv-x="604" d="M74 -384Q74 -294 87 -228T123 -112T173 -25T229 46Q252 74 273 100T311 156T338 221T348 302Q348 390 303 390Q290 390 281 385T264 361T252 311T242 224L72 234Q76 300 90 357T131 455T200 520T305 544Q419 544 471 481T524 300Q524 243 510 194T473 103T422 22T367 -50Q329 -98 299 -144T264 -247H526V-409H74V-384Z"/><glyph unicode="₃" horiz-adv-x="600" d="M291 -415Q223 -415 181 -393T114 -335T77 -249T59 -146L233 -130Q237 -178 242 -206T255 -248T272 -265T293 -269Q306 -269 316 -263T332 -242T342 -200T346 -134Q346 -82 341 -51T321 -4T282 16T217 21H195V167H221Q260 167 282 170T317 186T332 223T336 290Q336 347 329 369T293 392Q282 392 274 388T260 371T249 335T240 275L70 292Q84 413 141 478T299 544Q359 544 400 526T466 476T503 401T514 308Q514 211 485 162T399 95Q433 84 456 67T495 21T517 -48T524 -144Q524 -202 513 -251T474 -337T402 -394T291 -415Z"/><glyph unicode="₄" horiz-adv-x="641" d="M319 -214H66V-83L291 536H496V-69H563V-214H496V-407H319V-214ZM330 -69V243L221 -69H330Z"/><glyph unicode="₅" horiz-adv-x="633" d="M311 -415Q243 -415 201 -392T133 -332T97 -246T80 -146L254 -130Q258 -176 263 -204T274 -247T290 -266T313 -271Q329 -271 339 -262T356 -231T364 -176T367 -91Q367 -40 364 -8T354 42T337 68T313 75Q292 75 280 56T260 5L104 17L123 536H522L512 370H279L270 157Q283 188 310 208T383 228Q420 228 450 213T502 161T535 64T547 -87Q547 -176 532 -238T488 -340T414 -397T311 -415Z"/><glyph unicode="₆" horiz-adv-x="629" d="M317 -415Q257 -415 213 -389T139 -307T95 -162T80 50Q80 167 90 259T128 414T202 511T322 544Q405 544 460 492T532 323L375 294Q369 343 359 369T322 396Q303 396 292 385T274 346T264 268T258 142Q287 179 316 192T373 206Q425 206 459 179T514 108T542 6T551 -112Q551 -177 538 -232T496 -328T423 -392T317 -415ZM324 -265Q337 -265 347 -258T363 -235T372 -193T375 -126Q375 -39 367 1T324 42Q307 42 292 35T260 5Q261 -71 264 -123T274 -206T294 -251T324 -265Z"/><glyph unicode="₇" horiz-adv-x="537" d="M287 370H63V536H467V376L272 -407H92L287 370Z"/><glyph unicode="₈" horiz-adv-x="643" d="M322 -421Q258 -421 212 -402T135 -350T91 -275T76 -185Q76 -141 86 -104T114 -34T155 26T203 79Q184 100 165 121T131 170T106 234T96 320Q96 371 112 413T159 486T230 533T322 550Q372 550 412 533T482 486T527 414T543 320Q543 245 512 187T436 83Q461 60 484 36T525 -20T554 -91T565 -185Q565 -234 548 -277T500 -352T423 -402T322 -421ZM317 -284Q355 -284 368 -257T381 -185Q381 -131 362 -94T317 -24Q291 -58 273 -95T254 -185Q254 -229 267 -256T317 -284ZM328 183Q346 212 359 243T373 318Q373 404 324 404Q274 404 274 323Q274 275 289 244T328 183Z"/><glyph unicode="₉" horiz-adv-x="629" d="M305 -415Q222 -415 167 -365T94 -198L252 -169Q260 -219 270 -246T305 -273Q323 -273 334 -261T352 -220T362 -141T369 -15Q341 -50 312 -63T254 -77Q203 -77 169 -50T114 21T85 123T76 241Q76 305 89 360T131 457T203 521T309 544Q370 544 415 518T490 435T534 290T549 79Q549 -39 539 -131T501 -286T426 -382T305 -415ZM303 83Q320 83 336 89T369 118Q367 194 364 246T353 330T335 376T305 390Q277 390 265 360T252 251Q252 163 260 123T303 83Z"/><glyph unicode="€" horiz-adv-x="844" d="M467 -14Q388 -14 327 14T220 104T147 266T106 512H14V711H98Q97 718 97 731T96 758T96 786T96 807H14V1006H106Q118 1151 146 1251T219 1413T325 1502T465 1530Q555 1530 617 1499T719 1405T780 1248T809 1030L580 1018Q577 1100 569 1152T549 1235T518 1276T477 1288Q423 1288 398 1222T367 1006H516V807H367V711H516V512H369Q372 429 379 373T400 284T433 236T479 221Q507 221 527 232T560 274T581 359T592 500L817 489Q814 427 807 366T785 248T746 144T684 61T593 6T467 -14Z"/><glyph unicode="℗" horiz-adv-x="934" d="M467 -29Q362 -29 282 31T148 196T65 445T37 754Q37 920 66 1064T150 1315T286 1483T469 1544Q574 1544 654 1484T788 1319T869 1071T897 762Q897 595 869 451T785 200T650 32T467 -29ZM467 66Q553 66 616 121T720 271T782 492T803 762Q803 904 784 1029T724 1248T620 1396T469 1450Q383 1450 320 1395T216 1245T154 1024T133 754Q133 612 152 487T212 268T316 120T467 66ZM303 1196H479Q588 1196 639 1130T690 918Q690 839 675 785T632 698T565 650T477 635H459V342H303V1196ZM481 791Q495 791 506 795T526 811T540 848T545 913Q545 950 541 973T528 1010T508 1029T479 1034H459V791H481Z"/><glyph unicode="™" horiz-adv-x="1053" d="M442 1516H649L723 940L797 1516H1001V635H848V1174L782 635H657L588 1171V635H442V1516ZM135 1331H25V1516H401V1331H293V635H135V1331Z"/><glyph unicode="−" horiz-adv-x="819" d="M49 823H768V596H49V823Z"/><glyph unicode="√" horiz-adv-x="739" d="M27 1075H262L309 631Q313 589 316 554T323 483T329 412T334 334H338Q341 375 344 411T350 483T357 556T367 635L477 1513H715L467 -4H203L27 1075Z"/><glyph unicode="∞" horiz-adv-x="1024" d="M274 328Q223 328 178 350T100 422T47 548T27 735Q27 843 46 920T99 1048T178 1123T274 1147Q343 1147 403 1093T510 940Q558 1039 616 1093T743 1147Q799 1147 846 1123T926 1049T978 921T997 735Q997 626 979 549T927 422T846 351T743 328Q675 328 617 383T510 539Q464 439 404 384T274 328ZM297 547Q320 547 339 563T374 605T404 665T430 735Q418 771 404 805T374 867T339 911T297 928Q251 928 230 877T209 735Q209 647 230 597T297 547ZM725 547Q771 547 793 597T815 735Q815 825 793 876T725 928Q702 928 683 912T648 868T617 807T590 737Q603 701 617 667T647 606T683 563T725 547Z"/><glyph unicode="≈" horiz-adv-x="819" d="M582 322Q530 322 485 338T399 373T325 409T262 426Q250 426 239 424T219 414T201 392T184 352L14 375Q22 442 43 497T96 590T167 649T248 670Q296 670 339 654T421 620T493 585T555 569Q567 569 577 571T597 579T615 599T631 635L803 612Q796 542 776 488T726 397T659 341T582 322ZM584 727Q533 727 488 743T402 778T327 814T264 831Q252 831 241 829T221 819T203 797T186 758L16 780Q24 848 45 902T98 994T169 1052T250 1073Q298 1073 341 1058T423 1023T495 989T557 973Q569 973 579 975T598 984T616 1004T633 1038L805 1018Q798 948 778 894T728 802T661 746T584 727Z"/><glyph unicode="≠" horiz-adv-x="819" d="M238 369H53V575H285L328 754H53V961H375L459 1309H668L586 961H764V754H537L492 575H764V369H444L356 -2H150L238 369Z"/><glyph unicode="≤" horiz-adv-x="819" d="M109 723V932L692 1284V1036L340 825L692 618V369L109 723ZM76 317H741V104H76V317Z"/><glyph unicode="≥" horiz-adv-x="819" d="M137 618L489 827L137 1036V1284L721 932V723L137 369V618ZM76 317H741V104H76V317Z"/><glyph unicode="◊" horiz-adv-x="819" d="M41 758L330 1516H475L778 758L489 0H330L41 758ZM410 371Q417 387 427 416T451 481T477 556T504 633T529 703T549 756L406 1137L270 760L410 371Z"/><glyph unicode="✓" horiz-adv-x="739" d="M27 1075H262L309 631Q313 589 316 554T323 483T329 412T334 334H338Q341 375 344 411T350 483T357 556T367 635L477 1513H715L467 -4H203L27 1075Z"/><glyph unicode="" horiz-adv-x="1597" d="M416 1262L686 1243L674 1516H928L913 1243L1186 1262V1143H1303L1284 870L1556 883V629L1284 643L1303 373H1186V256L913 272L928 0H674L686 272L416 256V373H295L313 643L41 629V883L313 870L295 1143H416V1262ZM913 1071V870H1112L1100 1059L913 1071ZM686 1071L498 1059L485 870H686V1071ZM913 444L1100 457L1112 643H913V444ZM686 444V643H485L496 457L686 444Z"/><glyph unicode="ﬀ" horiz-adv-x="844" d="M98 897H10V1092H98V1239Q98 1303 111 1354T159 1442T257 1497T418 1516H430V1305H412Q392 1305 379 1301T359 1286T349 1258T346 1217V1092H479V1239Q479 1303 493 1354T545 1442T645 1497T807 1516H838V1305H801Q761 1305 743 1286T725 1217V1092H836V897H725V0H479V897H346V0H98V897Z"/><glyph unicode="ﬁ" horiz-adv-x="788" d="M98 897H10V1092H98V1239Q98 1303 110 1354T153 1442T239 1497T377 1516H420V1305H406Q377 1305 362 1290T346 1229V1092H418V897H346V0H98V897ZM477 1092H725V0H477V1092ZM475 1475H727V1229H475V1475Z"/><glyph unicode="ﬂ" horiz-adv-x="788" d="M98 897H10V1092H98V1239Q98 1303 110 1354T153 1442T239 1497T377 1516H420V1305H406Q377 1305 362 1290T346 1229V1092H418V897H346V0H98V897ZM477 1516H725V0H477V1516Z"/><glyph unicode="ﬃ" horiz-adv-x="1169" d="M98 897H10V1092H98V1239Q98 1303 111 1354T159 1442T257 1497T418 1516H430V1305H412Q392 1305 379 1301T359 1286T349 1258T346 1217V1092H479V1239Q479 1303 491 1354T533 1442T618 1497T756 1516H801V1305H784Q757 1305 741 1290T725 1229V1092H799V897H725V0H479V897H346V0H98V897ZM858 1092H1106V0H858V1092ZM856 1475H1108V1229H856V1475Z"/><glyph unicode="ﬄ" horiz-adv-x="1169" d="M98 897H10V1092H98V1239Q98 1303 111 1354T159 1442T257 1497T418 1516H430V1305H412Q392 1305 379 1301T359 1286T349 1258T346 1217V1092H479V1239Q479 1303 491 1354T533 1442T618 1497T756 1516H801V1305H784Q757 1305 741 1290T725 1229V1092H799V897H725V0H479V897H346V0H98V897ZM858 1516H1106V0H858V1516Z"/></font>
</defs>
</svg>
