<?xml version="1.0" standalone="no"?>
<!DOCTYPE svg PUBLIC "-//W3C//DTD SVG 1.1//EN" "http://www.w3.org/Graphics/SVG/1.1/DTD/svg11.dtd" >
<svg xmlns="http://www.w3.org/2000/svg">
<metadata></metadata>
<defs>
<font id="AmericanBoldItalic" horiz-adv-x="1349" >
<font-face units-per-em="2048" ascent="1536" descent="-512" />
<missing-glyph horiz-adv-x="471" />
<glyph unicode="&#xfb01;" horiz-adv-x="1277" d="M113 788l43 224h182q8 42 12 65q45 225 180 327.5t369 102.5q65 0 131.5 -11t97 -20t48.5 -16l-48 -160q-6 -20 -15 -28t-28 -8q-1 0 -69.5 13t-122.5 13q-105 0 -176 -57t-94 -172l-9 -49h572l-197 -1012h-276l153 788h-295l-153 -788h-277q86 445 154 788h-182z" />
<glyph unicode="&#xfb02;" horiz-adv-x="1228" d="M113 786l43 226h182l14 75q40 208 187 314t362 106q198 0 369 -57l-283 -1450h-276l250 1278q-42 14 -115 14q-176 0 -217 -198l-17 -82h164l-43 -226h-164l-153 -786h-277q88 443 154 786h-180z" />
<glyph horiz-adv-x="0" />
<glyph horiz-adv-x="0" />
<glyph unicode="&#xd;" horiz-adv-x="737" />
<glyph unicode=" "  horiz-adv-x="471" />
<glyph unicode="&#x09;" horiz-adv-x="471" />
<glyph unicode="&#xa0;" horiz-adv-x="471" />
<glyph unicode="!" horiz-adv-x="704" d="M164 0l47 248h248l-47 -248h-248zM256 406l152 974h297l-236 -974h-213z" />
<glyph unicode="&#x22;" horiz-adv-x="704" d="M205 1012l28 368h207l-114 -368h-121zM512 1012l29 368h204l-114 -368h-119z" />
<glyph unicode="#" d="M47 379l33 162h223l103 344h-201l33 162h219l100 335h215l-102 -335h215l102 335h213l-100 -335h200l-32 -162h-217l-103 -344h199l-33 -162h-217l-113 -379h-213l111 379h-213l-113 -379h-215l113 379h-207zM518 541h215l103 344h-215z" />
<glyph unicode="$" d="M102 29l68 235q132 -53 319 -53q145 0 218 50.5t73 125.5q0 107 -168 180l-94 43q-110 49 -181 138t-71 213q0 172 114 287.5t312 144.5l31 170h213l-31 -164q168 -9 248 -41l-70 -242q-123 51 -276 51q-115 0 -172 -48t-57 -109q0 -33 13 -59t41 -46.5t45.5 -30 t53.5 -26.5l88 -39q262 -118 262 -360q0 -172 -115 -297t-337 -160l-39 -207h-213l39 195q-198 6 -314 49z" />
<glyph unicode="%" horiz-adv-x="1695" d="M205 1018q0 169 108 285t283 116q80 0 143.5 -24.5t102 -66t58.5 -92t20 -106.5q0 -168 -105 -285.5t-280 -117.5q-86 0 -152 24.5t-103.5 67t-56 92.5t-18.5 107zM252 0h192l1092 1380h-190zM414 1030q0 -59 35.5 -99t91.5 -40q74 0 122 61t48 162q0 58 -33.5 99.5 t-91.5 41.5q-77 0 -124.5 -63t-47.5 -162zM899 268q0 170 107.5 286t281.5 116q157 0 241.5 -85t84.5 -202q0 -110 -45 -200.5t-134 -146.5t-206 -56q-86 0 -152 24.5t-103.5 66.5t-56 91.5t-18.5 105.5zM1108 281q0 -59 35.5 -98.5t91.5 -39.5q72 0 121 61.5t49 160.5 q0 58 -33.5 99.5t-91.5 41.5q-78 0 -125 -62.5t-47 -162.5z" />
<glyph unicode="&#x26;" horiz-adv-x="1699" d="M205 371q0 58 15.5 109.5t37 87.5t57 69t61.5 51.5t66.5 37.5t56 24.5t44.5 15.5q-32 40 -51 70t-38.5 92t-19.5 133q0 138 107 239t278 101q98 0 173 -25t117.5 -67t63.5 -90.5t21 -100.5q0 -65 -26 -124t-59 -96t-84 -72.5t-78.5 -49.5t-65.5 -31q94 -118 270 -282 q55 70 100 165t60 175h266q-15 -76 -47.5 -155t-72.5 -145t-72 -110.5t-64 -83.5l186 -164l-207 -174q-131 115 -176 158q-22 -19 -55.5 -40.5t-88 -48t-130 -43.5t-154.5 -17q-135 0 -246 46t-178 136.5t-67 208.5zM496 379q0 -75 62.5 -135t168.5 -60q117 0 242 92 q-61 57 -162 164t-143 162q-21 -8 -35.5 -15t-42 -26.5t-45 -41t-31.5 -59t-14 -81.5zM709 1075q0 -87 55 -168q84 45 133 94t49 111q0 37 -29 68.5t-83 31.5t-89.5 -36.5t-35.5 -100.5z" />
<glyph unicode="'" horiz-adv-x="399" d="M205 1012l28 368h207l-114 -368h-121z" />
<glyph unicode="(" horiz-adv-x="942" d="M184 72q0 192 42.5 383.5t102 331t137 270t131.5 200.5t103 123h242q-45 -51 -97.5 -124t-128 -206.5t-134 -277.5t-100.5 -338t-42 -385q0 -200 37.5 -370t81.5 -261h-227q-56 103 -102 273.5t-46 380.5z" />
<glyph unicode=")" horiz-adv-x="960" d="M0 -582q29 34 63.5 79.5t85 123.5t97 163t94.5 199t83 230t57 257t22 280q0 201 -38 371t-83 259h227q56 -104 102 -274t46 -379q0 -192 -42.5 -383.5t-101.5 -331.5t-136.5 -270t-132 -201t-103.5 -123h-240z" />
<glyph unicode="*" horiz-adv-x="768" d="M205 1124l69 138l177 -86l14 204h145l-63 -209l203 91l18 -140l-215 -41l113 -151l-134 -84l-69 182l-133 -182l-101 84l172 155z" />
<glyph unicode="+" d="M102 422l39 207h385l80 407h277l-80 -407h387l-39 -207h-387l-78 -397h-276l77 397h-385z" />
<glyph unicode="," horiz-adv-x="536" d="M0 -193q52 32 92 83t51 110h-106l47 246h248q-21 -105 -31 -160q-13 -65 -38 -118t-51 -85.5t-62 -59t-60.5 -38.5t-56.5 -25z" />
<glyph unicode="-" horiz-adv-x="917" d="M123 422l39 207h633l-39 -207h-633z" />
<glyph unicode="." horiz-adv-x="561" d="M61 0l48 248h247l-47 -248h-248z" />
<glyph unicode="/" horiz-adv-x="976" d="M41 0l797 1380h262l-795 -1380h-264z" />
<glyph unicode="0" d="M123 506q0 99 15.5 199t47 202t84.5 190t121.5 156.5t165 108t209.5 39.5q99 0 179.5 -33t132 -86.5t86 -125t49 -144.5t14.5 -150q0 -184 -51.5 -348.5t-139 -281t-206.5 -184.5t-250 -68q-88 0 -163 29.5t-128.5 80t-91 118t-56 143.5t-18.5 155zM381 504 q0 -61 12 -112.5t37.5 -95t71.5 -68.5t108 -25q91 0 173 85.5t134 241.5t52 342q0 45 -5.5 85t-20 81.5t-37.5 71.5t-62 49t-90 19q-165 0 -269 -181.5t-104 -492.5z" />
<glyph unicode="1" d="M379 1024l8 207q109 12 218 61.5t161 108.5h205l-271 -1401h-258l215 1114q-52 -32 -133 -58t-145 -32z" />
<glyph unicode="2" d="M92 0l41 213q291 264 346 317q68 65 102.5 99.5t80.5 83t68 78.5t45 68t31.5 70.5t8.5 67.5q0 30 -11.5 59.5t-35.5 57.5t-67.5 45t-100.5 17q-79 0 -144.5 -25.5t-99.5 -50.5l-59 219q27 17 65 33t120 32.5t177 16.5q103 0 188 -32.5t137.5 -86.5t81 -119t28.5 -133 q0 -53 -10.5 -103t-34 -95.5t-45.5 -81.5t-60 -77.5t-62 -66.5t-66.5 -65.5t-59.5 -57.5l-258 -256h481l-43 -227h-844z" />
<glyph unicode="3" d="M113 20l26 228q152 -45 258 -45q80 0 152.5 26.5t122 82.5t49.5 130q0 27 -11.5 53.5t-36 52t-71.5 41t-110 15.5h-127l41 211h63q139 0 240.5 59.5t101.5 145.5q0 61 -55.5 109.5t-163.5 48.5q-69 0 -134.5 -22.5t-90.5 -39.5l-58 207q132 78 346 78q196 0 306 -99.5 t110 -244.5q0 -58 -16.5 -109.5t-45.5 -87.5t-57.5 -63t-64 -46t-53.5 -27t-37 -15l-2 -9q17 -6 35.5 -15t47 -32t50 -52.5t37.5 -78.5t16 -108q0 -204 -160.5 -319t-427.5 -115q-155 0 -280 40z" />
<glyph unicode="4" d="M127 584l684 796h354l-161 -829h217l-43 -227h-217l-64 -324h-258l63 324h-557zM356 553h389l113 580h-8z" />
<glyph unicode="5" d="M170 16l37 226q129 -39 237 -39q159 0 257 68t98 184q0 82 -74 136t-231 54q-108 0 -205 -20l147 755h744l-45 -227h-484l-59 -309q6 4 33 9t57 5q176 0 282.5 -111t106.5 -262q0 -224 -173 -364.5t-472 -140.5q-158 0 -250 34q-1 0 -2 1t-2 1h-2z" />
<glyph unicode="6" d="M184 489q0 191 41 345.5t111.5 259t168 174.5t207 101.5t232.5 31.5q166 0 289 -49l-68 -209q-103 41 -221 41q-77 0 -143.5 -18t-112.5 -46.5t-84 -66.5t-61 -76t-39 -76.5t-22.5 -66.5t-6.5 -48l6 -4q111 97 299 97q174 0 277.5 -116.5t103.5 -285.5q0 -69 -19.5 -138 t-61.5 -134t-101 -115t-145.5 -80t-188.5 -30q-95 0 -173.5 28.5t-131 76.5t-88.5 113.5t-52 138.5t-16 152zM446 408q0 -37 12.5 -73t36 -67.5t64 -51t90.5 -19.5q117 0 187.5 76.5t70.5 181.5q0 51 -21 97t-68.5 79t-112.5 33q-111 0 -185 -72t-74 -184z" />
<glyph unicode="7" d="M207 0q105 282 281.5 592t367.5 561h-590l45 227h832l-41 -217q-169 -219 -335 -535.5t-278 -627.5h-282z" />
<glyph unicode="8" d="M135 315q0 247 346 394q-182 114 -182 325q0 163 127.5 265t345.5 102q111 0 198.5 -29.5t139 -77.5t78 -102.5t26.5 -110.5q0 -63 -23.5 -117.5t-56 -90.5t-81.5 -68.5t-84.5 -49t-81.5 -34.5q20 -12 40.5 -26.5t54.5 -47t59 -68t44 -87.5t19 -107q0 -179 -137 -292 t-392 -113q-205 0 -322.5 93t-117.5 242zM410 352q0 -65 54 -110t142 -45q93 0 161.5 49.5t68.5 122.5q0 39 -13 72t-39.5 60.5t-51.5 46t-64 42.5q-258 -91 -258 -238zM561 1032q0 -38 13.5 -71t38.5 -57.5t42.5 -38t44.5 -29.5q35 13 59 23t63.5 31.5t63.5 43t43 53.5 t19 68q0 58 -47 99.5t-143 41.5q-85 0 -141 -47t-56 -117z" />
<glyph unicode="9" d="M102 29l68 209q92 -41 221 -41q77 0 143 17.5t112 46t83.5 66.5t60.5 75.5t38.5 76t22 66.5t7.5 49l-6 4q-110 -96 -299 -96q-116 0 -203.5 55.5t-131.5 145.5t-44 200q0 69 19 138t61 134t101 114.5t146 79.5t189 30q118 0 209 -42.5t144 -115.5t79.5 -161.5 t26.5 -188.5q0 -160 -28 -294.5t-80 -233t-121.5 -173t-155 -120t-178.5 -68t-195 -22.5q-76 0 -144.5 11t-99.5 20.5t-45 17.5zM426 926q0 -80 54.5 -145.5t150.5 -65.5q110 0 184 73t74 185q0 80 -52.5 144.5t-150.5 64.5q-117 0 -188.5 -75.5t-71.5 -180.5z" />
<glyph unicode=":" horiz-adv-x="659" d="M102 0h248l47 248h-247zM199 504l49 248h248l-50 -248h-247z" />
<glyph unicode=";" horiz-adv-x="681" d="M102 -193q52 32 92.5 83t51.5 110h-107l47 246h248q-21 -105 -33 -160q-12 -65 -36.5 -118t-50.5 -85.5t-62 -59t-60.5 -38.5t-56.5 -25zM221 504l49 248h248l-49 -248h-248z" />
<glyph unicode="&#x3c;" d="M319 524l596 488l113 -138l-438 -352l293 -352l-152 -121z" />
<glyph unicode="=" d="M61 223l39 207h1053l-39 -207h-1053zM137 618l41 207h1053l-41 -207h-1053z" />
<glyph unicode="&#x3e;" d="M319 156l439 352l-293 352l151 121l412 -475l-596 -488z" />
<glyph unicode="?" horiz-adv-x="862" d="M246 0h246l49 248h-248zM289 1137l35 225q116 37 251 37q111 0 198 -29.5t138 -78.5t77 -105t26 -115q0 -46 -14 -90.5t-29.5 -74t-48.5 -66t-48 -50t-53 -44t-39 -31.5q-63 -53 -96 -84.5t-65 -79.5t-41 -98l-11 -47h-247q6 32 12 63q40 212 213 346q36 28 60 48.5 t50.5 49t40 57.5t13.5 58q0 55 -56.5 99t-165.5 44q-98 0 -200 -34z" />
<glyph unicode="@" horiz-adv-x="2060" d="M287 610q0 165 64.5 309.5t180 250.5t286 167.5t372.5 61.5q142 0 261.5 -33.5t200 -88.5t137 -127t82 -148.5t25.5 -153.5q0 -215 -139.5 -351.5t-347.5 -136.5q-57 0 -98.5 13t-63.5 34.5t-32 42t-13 42.5h-8q-9 -18 -21.5 -35t-38 -41.5t-67 -39t-92.5 -14.5 q-96 0 -161.5 67t-65.5 177q0 88 27.5 165t75 132.5t109.5 96t132.5 60t142.5 19.5q131 0 248 -28q-86 -267 -121 -373q-4 -13 -13 -39t-13 -39t-7.5 -31.5t-3.5 -33.5q0 -31 25 -49.5t63 -18.5q113 0 201 114t88 273q0 61 -18.5 121.5t-61 119t-104 103t-154.5 71.5 t-205 27q-97 0 -194.5 -30.5t-184 -90t-154 -140.5t-106.5 -191t-39 -232q0 -151 68 -269.5t196 -186.5t297 -68q66 0 133.5 15.5t101 29t58.5 27.5l-22 -127q-123 -53 -326 -53q-190 0 -349 77.5t-255 223t-96 329.5zM944 627q0 -54 23 -86.5t73 -32.5q31 0 58 18t47 51 t32 60.5t25 64.5l62 197q-23 14 -66 14q-94 0 -174 -81t-80 -205z" />
<glyph unicode="A" horiz-adv-x="1368" d="M-123 0l793 1380h327l248 -1380h-280l-54 305h-577l-172 -305h-285zM453 512h421l-94 588h-8z" />
<glyph unicode="B" horiz-adv-x="1294" d="M61 0l269 1380h487q94 0 168.5 -22t120 -56t75 -79.5t41 -88t11.5 -85.5q0 -53 -13.5 -98t-34.5 -76t-50 -56.5t-56.5 -41t-57.5 -26.5t-49.5 -15.5t-35.5 -6.5l-2 -6q27 -6 59.5 -25.5t67 -53t57.5 -89.5t23 -123q0 -190 -149 -311t-421 -121h-510zM377 223 q37 -6 131 -6q157 0 244.5 63.5t87.5 161.5q0 79 -61.5 130t-192.5 51h-133zM494 825h133q139 0 221 53t82 146q0 74 -54 120t-163 46q-30 0 -66 -1t-59.5 -2t-24.5 -1z" />
<glyph unicode="C" horiz-adv-x="1280" d="M102 635q0 116 30 225.5t95 208t157.5 172t228 117t296.5 43.5q263 0 432 -88l-118 -238q-137 90 -328 90q-213 0 -350 -152t-137 -386q0 -105 47 -197.5t144 -153.5t224 -61q135 0 254 57l29 -241q-148 -51 -338 -51q-137 0 -248.5 34.5t-188 94.5t-129 143.5t-76.5 179 t-24 203.5z" />
<glyph unicode="D" horiz-adv-x="1503" d="M61 0l269 1380h399q174 0 306 -51t210.5 -140.5t117 -201t38.5 -242.5q0 -143 -58 -276.5t-163.5 -238t-267.5 -167.5t-355 -63h-496zM399 233q40 -8 125 -8q139 0 251 46t181 123t105.5 173t36.5 201q0 171 -101.5 279t-275.5 108q-96 0 -146 -10z" />
<glyph unicode="E" horiz-adv-x="1126" d="M61 0l269 1380h817l-45 -227h-524l-64 -326h498l-45 -229h-498l-72 -371h529l-43 -227h-822z" />
<glyph unicode="F" horiz-adv-x="1126" d="M61 0l269 1380h817l-45 -227h-524l-64 -326h498l-45 -229h-498l-115 -598h-293z" />
<glyph unicode="G" horiz-adv-x="1556" d="M102 649q0 157 60 294.5t167.5 239t264.5 160t342 58.5q84 0 161.5 -7.5t126 -16.5t93 -22t59 -18.5t27.5 -11.5l-94 -248q-15 9 -40.5 20.5t-74.5 28.5t-120 28t-148 11q-148 0 -267 -71.5t-184 -193t-65 -269.5q0 -185 112.5 -300.5t315.5 -115.5q63 0 168 21l69 362 h-237l45 229h530l-151 -780q-33 -12 -84 -25t-146.5 -27.5t-183.5 -14.5q-353 0 -549.5 179.5t-196.5 489.5z" />
<glyph unicode="H" horiz-adv-x="1529" d="M61 0l269 1380h293l-109 -553h553l109 553h292l-268 -1380h-293l115 598h-553l-115 -598h-293z" />
<glyph unicode="I" horiz-adv-x="684" d="M61 0l269 1380h293l-269 -1380h-293z" />
<glyph unicode="J" horiz-adv-x="868" d="M-82 6l45 234q62 -25 143 -25t142 50.5t78 137.5l190 977h291q-162 -814 -189 -970q-12 -73 -34.5 -134.5t-60.5 -117t-88 -94.5t-121.5 -61.5t-157.5 -22.5q-151 0 -238 26z" />
<glyph unicode="K" horiz-adv-x="1243" d="M61 0l269 1380h282l-125 -639l547 639h332l-600 -684l403 -696h-335l-363 655l-127 -655h-283z" />
<glyph unicode="L" horiz-adv-x="956" d="M61 0l269 1380h293l-226 -1153h477l-43 -227h-770z" />
<glyph unicode="M" horiz-adv-x="1869" d="M-41 0l469 1380h344l111 -966h8l479 966h356l-61 -1380h-272l47 993h-8l-506 -993h-260l-113 993h-8l-322 -993h-264z" />
<glyph unicode="N" horiz-adv-x="1599" d="M61 0l269 1380h354l385 -968h8l189 968h272l-268 -1380h-340l-395 999h-9l-192 -999h-273z" />
<glyph unicode="O" horiz-adv-x="1630" d="M102 598q0 70 12 143.5t40 153t69.5 152t105 137.5t141.5 113t183.5 76t227.5 28q131 0 240.5 -36t183.5 -95.5t125 -139t74.5 -165t23.5 -174.5q0 -108 -25 -216t-84.5 -216.5t-145.5 -191.5t-220.5 -135t-298.5 -52q-155 0 -280 49.5t-205.5 134.5t-123.5 196.5 t-43 237.5zM408 606q0 -167 92 -279t258 -112q93 0 171.5 36t131.5 94.5t90.5 133t54.5 149.5t17 146q0 168 -93 279.5t-249 111.5q-96 0 -177 -36t-134.5 -93.5t-91 -132t-54 -149.5t-16.5 -148z" />
<glyph unicode="P" horiz-adv-x="1265" d="M61 0l269 1380h370q236 0 370 -107.5t134 -287.5q0 -229 -152 -362.5t-452 -133.5q-61 0 -149 11l-97 -500h-293zM492 709q24 -4 110 -4q131 0 215 71t84 176q0 84 -59.5 147.5t-179.5 63.5q-20 0 -50.5 -1t-31.5 -1z" />
<glyph unicode="Q" horiz-adv-x="1630" d="M102 598q0 70 12 143.5t40 153t69.5 152t105 137.5t141.5 113t183.5 76t227.5 28q131 0 240.5 -36t183.5 -95.5t125 -139t74.5 -165t23.5 -174.5q0 -95 -20 -192t-66.5 -196.5t-115 -180.5t-173.5 -142.5t-233 -85.5l24 -230h-246l-22 220q-182 15 -314 103t-196 220 t-64 291zM408 606q0 -136 63.5 -239.5t179.5 -137.5l-12 129h244l12 -120q81 28 145.5 88.5t103.5 136t59 155.5t20 156q0 168 -93 279.5t-249 111.5q-96 0 -177 -36t-134.5 -93.5t-91 -132t-54 -149.5t-16.5 -148z" />
<glyph unicode="R" horiz-adv-x="1271" d="M61 0l271 1380h413q103 0 184 -22t133 -59t86 -87.5t48 -103t14 -111.5q0 -63 -16 -116.5t-38.5 -90t-57 -67.5t-62 -48t-64.5 -32t-52 -19.5t-37 -9.5l223 -614h-307l-189 571h-145l-111 -571h-293zM506 784q24 -4 104 -4q124 0 201.5 58t77.5 149q0 76 -54.5 127 t-168.5 51q-70 0 -86 -4z" />
<glyph unicode="S" horiz-adv-x="1093" d="M-20 29l67 235q128 -51 322 -51q145 0 216.5 49.5t71.5 124.5q0 107 -168 180l-94 43q-110 51 -181 140t-71 211q0 199 149.5 319.5t399.5 120.5q206 0 340 -43l-71 -242q-123 51 -277 51q-115 0 -172 -48t-57 -109q0 -33 13 -59t41 -46.5t45.5 -30t53.5 -26.5l88 -39 q262 -118 262 -360q0 -96 -37.5 -179.5t-111 -149t-193 -103t-272.5 -37.5q-222 0 -364 49z" />
<glyph unicode="T" horiz-adv-x="1026" d="M102 1163l43 217h983l-43 -217h-346l-225 -1163h-291l226 1163h-347z" />
<glyph unicode="U" horiz-adv-x="1527" d="M143 416q0 29 4 63t8.5 56t13 59t11.5 51l144 735h290q-131 -679 -145 -747q-29 -141 -29 -191q0 -102 67.5 -164.5t180.5 -62.5q66 0 117.5 18.5t84.5 47.5t58 74t38 87t24 97l164 841h292l-172 -884q-24 -121 -69 -213t-117.5 -161.5t-180.5 -105.5t-249 -36 q-127 0 -230 36t-168.5 96.5t-101 138.5t-35.5 165z" />
<glyph unicode="V" horiz-adv-x="1398" d="M164 1380h301l137 -1093h12l557 1093h310l-742 -1380h-372z" />
<glyph unicode="W" horiz-adv-x="2041" d="M184 1380h267l47 -1069h8l469 1069h350l68 -1034h10l428 1034h272l-600 -1380h-329l-80 1063h-9l-464 -1063h-363z" />
<glyph unicode="X" horiz-adv-x="1314" d="M-102 0l591 700l-323 680h323l197 -452l363 452h327l-551 -653l344 -727h-329l-211 500l-383 -500h-348z" />
<glyph unicode="Y" horiz-adv-x="1271" d="M143 1380h308l178 -665l444 665h301l-655 -960l-82 -420h-291l80 420z" />
<glyph unicode="Z" horiz-adv-x="1122" d="M-41 0l37 184l756 969h-576l43 227h944l-37 -188l-751 -965h614l-43 -227h-987z" />
<glyph unicode="[" horiz-adv-x="950" d="M82 -614l389 1994h479l-43 -217h-221l-303 -1562h221l-43 -215h-479z" />
<glyph unicode="\" horiz-adv-x="929" d="M330 1380h268l270 -1380h-274z" />
<glyph unicode="]" horiz-adv-x="989" d="M0 -614l41 215h221l303 1562h-221l43 217h479l-389 -1994h-477z" />
<glyph unicode="^" horiz-adv-x="1030" d="M217 801l432 579h271l204 -579h-256l-118 352l-267 -352h-266z" />
<glyph unicode="_" horiz-adv-x="1040" d="M-94 -473l20 111h1047l-21 -111h-1046z" />
<glyph unicode="`" horiz-adv-x="548" d="M350 1380h221l105 -301h-125z" />
<glyph unicode="a" horiz-adv-x="1144" d="M51 297q0 94 42 162.5t117 106.5t164 55.5t197 17.5h189q6 42 6 51q0 21 -9.5 41.5t-31.5 42t-67.5 34.5t-108.5 13q-59 0 -118 -16.5t-98 -32.5t-50 -16q-25 0 -25 22q0 32 25 201q147 55 321 55q95 0 171.5 -19.5t125 -50.5t81.5 -72t46.5 -82t13.5 -83q0 -21 -2.5 -48 t-5.5 -46t-7 -42t-5 -28l-59 -303q-33 -161 -33 -260h-225q-37 0 -37 33l10 84h-8q-5 -8 -12.5 -18.5t-32.5 -33.5t-54.5 -40t-79.5 -31t-106 -14q-78 0 -142.5 28t-105.5 73.5t-63.5 101.5t-22.5 114zM346 307q0 -54 37 -91.5t106 -37.5q45 0 86 24t69 61.5t46.5 78.5 t26.5 80l10 53h-115q-131 0 -198.5 -47t-67.5 -121z" />
<glyph unicode="b" horiz-adv-x="1220" d="M51 29l281 1441h276l-102 -520h8q13 13 34.5 28.5t78 35.5t118.5 20q93 0 169.5 -36t124.5 -96t74 -134t26 -152q0 -296 -171 -466t-485 -170q-136 0 -253 15.5t-179 33.5zM362 209q50 -19 140 -19q59 0 118.5 27t110 75.5t82 124.5t31.5 165q0 101 -46 168t-143 67 q-94 0 -148.5 -75t-82.5 -220z" />
<glyph unicode="c" horiz-adv-x="1017" d="M82 457q0 162 82.5 295t224 207.5t311.5 74.5q182 0 318 -59q-4 -21 -22.5 -99t-20.5 -88q-7 -30 -31 -30q-11 0 -31.5 9t-43 20.5t-67 20.5t-97.5 9q-81 0 -155 -39.5t-123.5 -119t-49.5 -181.5q0 -123 73.5 -201.5t196.5 -78.5q54 0 121 24.5t72 24.5q11 0 17.5 -7.5 t6.5 -17.5q0 -20 -13 -93t-20 -103q-113 -45 -266 -45q-151 0 -262 64.5t-166 171.5t-55 241z" />
<glyph unicode="d" horiz-adv-x="1224" d="M82 432q0 132 51.5 246t137 191t198.5 121t236 44q108 0 196 -22l90 458h275q-212 -1087 -226 -1161q-29 -146 -49 -309h-217q-35 0 -35 35l9 74h-9q-8 -12 -24.5 -28.5t-49.5 -42t-85.5 -42t-112.5 -16.5q-92 0 -166.5 37t-121.5 100.5t-72 144t-25 170.5zM377 428 q0 -99 46.5 -165t139.5 -66q82 0 145 71t91 215l59 314q-70 20 -149 20q-131 0 -231.5 -111.5t-100.5 -277.5z" />
<glyph unicode="e" horiz-adv-x="1179" d="M82 471q0 129 46.5 237.5t124.5 178.5t178 108.5t208 38.5q116 0 207.5 -35t144.5 -92t80 -123t27 -135q0 -95 -29 -192h-694q0 -52 14.5 -97t45.5 -83.5t85.5 -61t126.5 -22.5q57 0 107.5 16.5t83 32.5t45.5 16q28 0 28 -31q0 -27 -13 -101.5t-19 -98.5 q-131 -47 -293 -47q-114 0 -210 39t-160 106t-99 156t-35 190zM393 614h416q0 3 2 22t2 32q0 59 -43 111t-131 52q-42 0 -78 -11t-59.5 -26.5t-43.5 -39.5t-30.5 -42t-19 -43t-10.5 -33.5t-5 -21.5z" />
<glyph unicode="f" horiz-adv-x="825" d="M102 788l45 224h181q12 57 16 80q81 417 502 417q135 0 205 -28l-50 -160q-5 -21 -11.5 -30t-22.5 -9q-3 0 -45 7t-84 7q-180 0 -222 -215l-12 -69h264l-43 -224h-264l-153 -788h-277q86 445 154 788h-183z" />
<glyph unicode="g" horiz-adv-x="1175" d="M-61 -211q0 55 22.5 101t52.5 73.5t70.5 48.5t66 29.5t48.5 13.5q-38 17 -67.5 57t-29.5 101q0 38 14.5 70t35 52.5t47 36.5t46.5 24t38 12q-14 7 -29.5 20t-39.5 40t-39 73.5t-15 103.5q0 167 126 275t351 108q62 0 166.5 -17.5t157.5 -17.5q127 0 215 13 q-23 -120 -27 -136q-5 -28 -16.5 -38.5t-40.5 -10.5h-80q22 -59 22 -127q0 -175 -124.5 -267.5t-327.5 -92.5q-74 0 -162 16q-27 -6 -50.5 -27t-23.5 -57q0 -78 135 -78h176q89 0 155.5 -14.5t107.5 -38t66 -59t34.5 -73.5t9.5 -85q0 -81 -45 -159t-123.5 -138.5t-194 -97.5 t-247.5 -37q-107 0 -190.5 16t-137.5 43t-89 66.5t-49.5 83t-14.5 94.5zM211 -158q0 -67 56.5 -111t176.5 -44q153 0 228.5 56.5t75.5 123.5q0 50 -42.5 86.5t-132.5 36.5h-180q-17 0 -33.5 1t-17.5 1q-19 -5 -36.5 -13.5t-41.5 -25t-38.5 -45.5t-14.5 -66zM422 659 q0 -65 44.5 -111t127.5 -46q79 0 139 55t60 137q0 68 -43.5 113t-126.5 45q-87 0 -144 -57.5t-57 -135.5z" />
<glyph unicode="h" horiz-adv-x="1212" d="M51 0l285 1470h276l-100 -520h8q10 12 32.5 28t80.5 36t125 20q87 0 156.5 -28t111 -74t63 -101t21.5 -114q0 -63 -18 -158l-109 -559h-274q92 480 104 543q16 78 16 125q0 65 -42.5 109t-120.5 44q-94 0 -151.5 -72t-80.5 -196l-108 -553h-275z" />
<glyph unicode="i" horiz-adv-x="577" d="M51 0h275l196 1012h-274zM287 1221l55 276h276l-55 -276h-276z" />
<glyph unicode="j" horiz-adv-x="606" d="M-328 -481q67 -27 207 -27q380 0 453 379l223 1141h-276q-185 -951 -222 -1133q-15 -84 -64.5 -128t-125.5 -44q-31 0 -70.5 8.5t-44.5 8.5q-13 0 -21 -5.5t-11 -12.5t-5 -19q-35 -131 -43 -168zM315 1219l56 278h276l-53 -278h-279z" />
<glyph unicode="k" horiz-adv-x="1069" d="M51 0l287 1470h276l-172 -886l371 428h317l-425 -473l278 -539h-307l-244 532l-104 -532h-277z" />
<glyph unicode="l" horiz-adv-x="571" d="M51 0l285 1468h276l-284 -1468h-277z" />
<glyph unicode="m" horiz-adv-x="1822" d="M51 0q114 592 137 707q31 160 48 305h210q37 0 37 -33l-16 -98h8q9 14 17.5 27t33 38t52 42.5t71.5 31.5t94 14q61 0 111.5 -16t79 -35.5t51 -48.5t29 -42t12.5 -28q9 16 19.5 30.5t38.5 42t60.5 47t86.5 35t115 15.5q93 0 167.5 -30t118 -78.5t66 -103.5t22.5 -111 q0 -49 -9 -104t-36 -189l-82 -418h-274q61 318 98 508q23 122 23 172q0 64 -40 102.5t-108 38.5q-80 0 -138.5 -68t-84.5 -194l-108 -559h-277q61 320 98 508q25 132 25 172q0 58 -35.5 98.5t-105.5 40.5q-93 0 -151 -72t-81 -196l-106 -551h-277z" />
<glyph unicode="n" horiz-adv-x="1212" d="M51 0q123 631 137 705q32 164 50 307h211q20 0 28 -10t8 -21q0 -9 -4.5 -34t-8.5 -45l-5 -21h10q6 11 16 25t34 38t53.5 43t76.5 33t99 14q70 0 129.5 -18.5t100 -50t69 -72.5t42 -85t13.5 -89q0 -66 -23 -174l-104 -545h-276q69 358 104 532q18 97 18 138 q0 64 -36 107.5t-113 43.5q-83 0 -154.5 -77.5t-97.5 -221.5l-102 -522h-275z" />
<glyph unicode="o" horiz-adv-x="1226" d="M82 434q0 123 40.5 232.5t114.5 191.5t185.5 130t245.5 48q116 0 208.5 -37t150 -101t88 -144.5t30.5 -171.5q0 -123 -40.5 -232.5t-114.5 -191.5t-185.5 -130t-245.5 -48q-116 0 -208.5 37t-150 101t-88 144.5t-30.5 171.5zM373 449q0 -66 18.5 -120t66.5 -92t120 -38 q112 0 194 109.5t82 258.5q0 66 -18.5 120t-66.5 92t-120 38q-111 0 -193.5 -109.5t-82.5 -258.5z" />
<glyph unicode="p" horiz-adv-x="1249" d="M-20 -473q215 1104 229 1178q38 213 47 307h215q35 0 35 -31l-10 -86h8q9 16 24.5 33t48.5 44t87.5 44.5t119.5 17.5q80 0 145.5 -24t109 -64t73 -94.5t42.5 -114t13 -123.5q0 -140 -51.5 -261t-135.5 -201.5t-191.5 -126t-219.5 -45.5q-139 0 -219 32l-94 -485h-276z M389 217q80 -20 141 -20q146 0 243 112.5t97 276.5q0 95 -45.5 164t-136.5 69q-94 0 -153.5 -74t-83.5 -213z" />
<glyph unicode="q" horiz-adv-x="1218" d="M82 397q0 293 181 465t503 172q97 0 192.5 -12.5t142.5 -23.5t66 -19l-280 -1452h-277l105 534h-8q-88 -81 -224 -81q-127 0 -220 59.5t-137 152.5t-44 205zM375 420q0 -39 9 -75.5t29.5 -71t59 -55.5t90.5 -21t92.5 24.5t68 70t46 97.5t31.5 119l57 293q-4 3 -21 8 t-51 10.5t-69 5.5q-151 0 -246.5 -116.5t-95.5 -288.5z" />
<glyph unicode="r" horiz-adv-x="868" d="M51 0q124 633 142 729q16 82 45 283h198q23 0 31 -9t8 -26q0 -9 -16 -117h8q9 18 24.5 38.5t50.5 55.5t92 57.5t124 22.5q37 0 73 -6.5t53.5 -13t24.5 -10.5q-7 -47 -32 -162q-10 -43 -39 -43q-6 0 -43 9t-78 9q-106 0 -184 -80.5t-113 -261.5l-92 -475h-277z" />
<glyph unicode="s" horiz-adv-x="876" d="M-20 35q8 34 49 170q10 31 34 31q11 0 45 -11.5t88 -23t113 -11.5q88 0 134 31t46 78q0 29 -18.5 53t-73.5 49l-59 29q-217 100 -217 270q0 64 25 121.5t75 106.5t137.5 77.5t200.5 28.5q161 0 297 -49q-4 -16 -23.5 -83t-21.5 -73q-12 -38 -39 -38q-6 0 -83.5 22.5 t-145.5 22.5q-70 0 -103.5 -25.5t-33.5 -67.5q0 -38 27 -63t85 -51l64 -29q192 -91 192 -278q0 -148 -126 -245t-345 -97q-81 0 -158.5 12.5t-110.5 23t-54 19.5z" />
<glyph unicode="t" horiz-adv-x="847" d="M102 791l43 221h183l53 280h278l-55 -280h264l-43 -224h-264l-76 -389q-12 -70 -12 -96q0 -52 29.5 -79t83.5 -27q20 0 59 7t43 7q27 0 27 -29q0 -20 -8 -89.5t-13 -92.5q-12 -5 -66.5 -12.5t-105.5 -7.5q-160 0 -247 80.5t-87 201.5q0 21 3.5 48.5t7 45.5t9.5 47t7 35 l70 353h-183z" />
<glyph unicode="u" horiz-adv-x="1212" d="M102 295q0 64 23 172l106 545h275q-70 -359 -105 -533q-18 -97 -18 -135q0 -65 35.5 -108t113.5 -43q82 0 154 77.5t100 221.5l101 520h274q-123 -631 -137 -703q-30 -154 -49 -309h-209q-39 0 -39 33q0 9 4.5 34t8.5 45l5 21h-8q-95 -156 -280 -156q-87 0 -157 28.5 t-112 74.5t-64 101.5t-22 113.5z" />
<glyph unicode="v" horiz-adv-x="1132" d="M123 1012h283l108 -744h10l391 744h279l-576 -1012h-313z" />
<glyph unicode="w" horiz-adv-x="1732" d="M143 1012h256l52 -699h14l330 699h303l82 -699h14l317 699h263l-482 -1014h-336l-61 692h-8l-326 -692h-334z" />
<glyph unicode="x" horiz-adv-x="1081" d="M-82 0l475 502l-243 510h294l138 -322l258 322h303l-428 -477l258 -535h-311l-140 330l-282 -330h-322z" />
<glyph unicode="y" horiz-adv-x="1128" d="M-184 -477q19 70 57 178q11 29 39 29q7 0 52.5 -9.5t78.5 -9.5q70 0 124.5 38.5t111.5 133.5l69 121l-227 1008h282l140 -639h10l342 639h295q-476 -821 -615 -1078q-92 -172 -140 -238q-107 -145 -253 -184q-66 -18 -145 -18q-138 0 -221 29z" />
<glyph unicode="z" horiz-adv-x="995" d="M0 -2l31 158l557 659h-398l39 197h766l-28 -146l-561 -669h436l-39 -199h-803z" />
<glyph unicode="{" horiz-adv-x="1019" d="M123 301l31 162q211 0 249 203l68 342q15 120 73 205.5t142.5 126t187.5 40.5h105l-41 -217q-181 0 -215 -178l-55 -289q-7 -37 -14.5 -65.5t-26.5 -73t-43.5 -75.5t-67 -59.5t-96.5 -39.5l-2 -6q141 -31 141 -189q0 -44 -8.5 -92.5t-13.5 -64.5q-4 -27 -18 -97.5 t-21 -107.5q-1 -4 -5 -22t-7 -37.5t-3 -34.5q0 -131 150 -131l-41 -215h-92q-128 0 -206.5 63.5t-78.5 196.5q0 41 25 170l45 239q16 64 16 113q0 62 -45.5 97.5t-132.5 35.5z" />
<glyph unicode="|" horiz-adv-x="585" d="M43 -614l389 1994h258l-389 -1994h-258z" />
<glyph unicode="}" horiz-adv-x="1019" d="M0 -614l41 215q180 0 215 180q51 265 55 287q7 37 14.5 65.5t26.5 72t43.5 74t67 58.5t96.5 39l2 10q-71 18 -106 69t-35 115q0 43 14 125l49 244q0 3 4 22t6.5 37.5t2.5 30.5q0 133 -150 133l41 217h107q270 0 270 -258q0 -30 -4 -61.5t-9.5 -56.5t-5.5 -27l-61 -311 q-6 -38 -6 -70q2 -60 45.5 -96.5t132.5 -36.5l-31 -162q-212 0 -250 -203l-67 -342q-35 -177 -142.5 -273.5t-261.5 -96.5h-104z" />
<glyph unicode="~" horiz-adv-x="1466" d="M205 555q53 48 143.5 92.5t200.5 44.5q58 0 107 -12.5t82.5 -31t65.5 -36.5t72 -30.5t85 -12.5q92 0 227 97l74 -164q-23 -25 -63.5 -55t-120 -60.5t-160.5 -30.5q-54 0 -102 12.5t-84 31t-70.5 36.5t-74 30.5t-81.5 12.5q-111 0 -215 -86z" />
<glyph unicode="&#xa1;" horiz-adv-x="702" d="M0 -440l225 975h213l-143 -975h-295zM242 692l49 248h248l-50 -248h-247z" />
<glyph unicode="&#xa2;" d="M207 453q0 226 156 387t389 186l34 180h228l-39 -190q114 -17 166 -47q-6 -47 -43 -187q-8 -28 -29 -28q-11 0 -31.5 9t-43.5 20.5t-67.5 20.5t-97.5 9q-81 0 -154 -40t-122 -120t-49 -182q0 -122 73 -200t195 -78q53 0 120 23.5t73 23.5q22 0 22 -23q0 -26 -31 -197 q-71 -28 -182 -40l-26 -140h-226l29 152q-163 39 -253.5 165t-90.5 296z" />
<glyph unicode="&#xa3;" d="M131 0l37 186q65 35 109 68.5t84 81.5t63 112.5t31 149.5h-203l39 203h162q0 5 -4.5 38.5t-7.5 72t-3 71.5q0 87 30 158t80.5 118.5t118.5 80t141 47t150 14.5q160 0 259 -33l-60 -213q-9 4 -31.5 10.5t-67.5 13.5t-91 7q-106 0 -177 -66t-71 -168q0 -93 8 -151h258 l-39 -203h-231q-19 -98 -47 -163t-63 -107.5t-101 -100.5h495l-43 -227h-825z" />
<glyph unicode="&#xa4;" d="M168 174l178 145q-51 92 -51 201q0 193 117 328l-97 117l174 145l105 -137q87 37 207 37q146 0 246 -62l172 152l135 -168l-162 -135q55 -101 55 -205q0 -196 -127 -336l88 -106l-174 -148l-98 131q-85 -33 -199 -33q-144 0 -250 66l-184 -158zM530 539q0 -87 60.5 -151 t163.5 -64q111 0 183.5 73t72.5 176q0 87 -59.5 150t-162.5 63q-105 0 -181.5 -69t-76.5 -178z" />
<glyph unicode="&#xa5;" d="M102 145l35 189h299l25 121h-299l37 186h188l-217 739h307l178 -665l451 665h293l-502 -739h170l-37 -186h-278l-23 -121h277l-37 -189h-277l-28 -145h-293l28 145h-297z" />
<glyph unicode="&#xa6;" horiz-adv-x="591" d="M33 -666l176 899h264l-176 -899h-264zM256 483l176 897h264l-176 -897h-264z" />
<glyph unicode="&#xa7;" horiz-adv-x="993" d="M-37 -438l72 205q10 -8 37 -22t85 -31t115 -17q87 0 134 39t47 94q0 34 -18 69.5t-35.5 55t-53.5 55.5q-29 33 -88 88q-154 154 -154 344q0 237 295 371q-92 107 -92 246q0 143 119 242.5t317 99.5q222 0 359 -66l-72 -205q-117 70 -239 70q-85 0 -132 -39.5t-47 -93.5 q0 -28 7.5 -52t27.5 -50t31.5 -38.5t40.5 -41.5l86 -86q156 -156 156 -346q0 -237 -297 -369q94 -117 94 -248q0 -141 -119.5 -240.5t-316.5 -99.5q-96 0 -180 14t-120.5 27t-58.5 25zM391 459q0 -57 24.5 -106t78.5 -101l36 -35q144 104 144 219q0 58 -25 107t-80 102 l-37 35q-141 -105 -141 -221z" />
<glyph unicode="&#xa8;" horiz-adv-x="798" d="M307 1163l43 217h217l-43 -217h-217zM725 1163l43 217h217l-43 -217h-217z" />
<glyph unicode="&#xa9;" horiz-adv-x="927" d="M205 1069q0 140 103 236t241 96q72 0 130.5 -26.5t94 -69t54 -93.5t18.5 -104q0 -141 -103 -235.5t-241 -94.5q-135 0 -216 85t-81 206zM268 1061q0 -91 63 -157t173 -66q119 0 198.5 80.5t79.5 199.5q0 92 -64.5 157.5t-170.5 65.5q-122 0 -200.5 -81t-78.5 -199z M365 1075q0 71 47 121.5t135 50.5q28 0 51 -4.5t32.5 -8.5t12.5 -7l-27 -53q-27 20 -73 20q-47 0 -79 -34.5t-32 -86.5q0 -37 26 -64.5t68 -27.5q22 0 58 12l6 -55q-30 -10 -76 -10q-74 0 -111.5 41.5t-37.5 105.5z" />
<glyph unicode="&#xaa;" horiz-adv-x="886" d="M205 459l31 153h579l-31 -153h-579zM270 920q0 61 27.5 106t76 69.5t106.5 36t128 11.5h123q2 8 2 33q0 31 -31.5 57.5t-107.5 26.5q-52 0 -111 -21.5t-61 -21.5q-16 0 -16 16q0 19 6.5 67t9.5 62q8 4 31.5 11.5t74 16.5t101.5 9q76 0 133.5 -18.5t89 -49t46.5 -63.5 t15 -68q0 -45 -14 -108l-37 -195q-16 -76 -22 -170h-146q-22 0 -22 21l6 55h-8q-1 -4 -7 -12.5t-21 -22t-34.5 -25t-51.5 -20t-69 -8.5q-98 0 -157.5 62.5t-59.5 142.5zM463 926q0 -34 24 -59t68 -25q57 0 96.5 51t50.5 108l7 35h-74q-85 0 -128.5 -30.5t-43.5 -79.5z" />
<glyph unicode="&#xab;" horiz-adv-x="1296" d="M82 483l526 455l129 -139l-372 -338l231 -322l-166 -121zM559 483l524 455l131 -139l-374 -338l231 -322l-164 -121z" />
<glyph unicode="&#xac;" d="M102 422l39 207h1047l-117 -604h-274l77 397h-772z" />
<glyph unicode="&#xad;" horiz-adv-x="917" d="M123 422l39 207h633l-39 -207h-633z" />
<glyph unicode="&#xae;" horiz-adv-x="925" d="M205 1065q0 140 103 236t241 96q72 0 130 -26.5t93 -69t53.5 -93.5t18.5 -104q0 -141 -102.5 -235.5t-239.5 -94.5q-136 0 -216.5 85t-80.5 206zM268 1057q0 -91 62.5 -157t173.5 -66q119 0 198.5 80.5t79.5 199.5q0 92 -64.5 157.5t-172.5 65.5q-121 0 -199 -81 t-78 -199zM403 936l62 311h94q55 0 80 -24.5t25 -61.5q0 -24 -9.5 -42t-24 -27t-23.5 -12.5t-17 -4.5l49 -139h-68l-43 129h-32l-25 -129h-68zM504 1114q4 -2 24 -2q28 0 45 13.5t17 33.5q0 17 -11.5 29t-37.5 12q-5 0 -10 -0.5t-7.5 -1t-3.5 -0.5z" />
<glyph unicode="&#xaf;" horiz-adv-x="616" d="M315 1204l35 176h453l-35 -176h-453z" />
<glyph unicode="&#xb0;" horiz-adv-x="669" d="M205 1110q0 123 82 207t217 84q55 0 101 -16.5t75 -42t49 -59t28.5 -66t8.5 -64.5q0 -126 -82.5 -209.5t-216.5 -83.5q-123 0 -192.5 76.5t-69.5 173.5zM344 1120q0 -51 35 -89t96 -38q65 0 108.5 43.5t43.5 104.5q0 53 -35 90t-96 37q-62 0 -107 -41.5t-45 -106.5z" />
<glyph unicode="&#xb1;" d="M20 0l39 207h1051l-39 -207h-1051zM139 618l41 207h385l64 326h276l-63 -326h389l-41 -207h-389l-64 -327h-276l63 327h-385z" />
<glyph unicode="&#xb2;" horiz-adv-x="563" d="M0 690l20 107q146 130 173 157q96 91 132.5 138.5t36.5 95.5q0 34 -27 62t-81 28q-39 0 -73 -13.5t-48 -25.5l-31 111q66 41 181 41q102 0 160.5 -56.5t58.5 -130.5q0 -30 -9 -59.5t-19 -50.5t-32.5 -48.5t-34.5 -40t-40 -39.5t-35 -34l-129 -129h241l-22 -113h-422z" />
<glyph unicode="&#xb3;" horiz-adv-x="561" d="M0 700l14 113q66 -22 129 -22q62 0 112 32.5t50 87.5q0 30 -27.5 55t-87.5 25h-63l20 107h31q70 0 121 29.5t51 72.5q0 30 -28 54t-82 24q-35 0 -68.5 -11t-44.5 -20l-29 105q70 39 174 39q98 0 152.5 -49.5t54.5 -122.5q0 -122 -137 -170v-9q92 -37 92 -143 q0 -102 -80 -159.5t-213 -57.5q-81 0 -141 20z" />
<glyph unicode="&#xb4;" horiz-adv-x="548" d="M291 1079l223 301h221l-321 -301h-123z" />
<glyph unicode="&#xb5;" d="M-20 -504l294 1516h275q-70 -359 -103 -533q-20 -108 -20 -135q0 -65 36.5 -108t112.5 -43q82 0 154 77.5t100 221.5l101 520h274q-121 -631 -135 -703q-30 -154 -49 -309h-211q-21 0 -29 10.5t-8 22.5q0 9 5 34l9 45l5 21h-11q-95 -156 -280 -156q-75 0 -148 27 l-98 -508h-274z" />
<glyph unicode="&#xb6;" horiz-adv-x="1290" d="M215 989q0 248 185 383t511 135h508l-37 -188h-141l-330 -1696h-186l330 1696h-156l-330 -1696h-188l194 1002q-37 3 -79.5 15t-94 40t-91.5 67t-67.5 102t-27.5 140z" />
<glyph unicode="&#xb7;" horiz-adv-x="622" d="M164 401l47 248h248l-47 -248h-248z" />
<glyph unicode="&#xb8;" horiz-adv-x="503" d="M-6 -430q93 20 155 63t62 101q0 33 -21.5 53t-66.5 20h-57l92 193h125l-82 -109q15 5 43 5q57 0 94 -42.5t37 -101.5q0 -105 -105.5 -182t-232.5 -94z" />
<glyph unicode="&#xb9;" horiz-adv-x="460" d="M82 1202l4 103q55 6 108.5 30.5t79.5 55.5h105l-135 -701h-129l106 557q-25 -16 -65.5 -29t-73.5 -16z" />
<glyph unicode="&#xba;" horiz-adv-x="905" d="M205 459l31 155h579l-31 -155h-579zM258 1010q0 165 103 277t276 112q148 0 228.5 -85t80.5 -208q0 -166 -103 -278.5t-276 -112.5q-75 0 -135 24.5t-97.5 65.5t-57 93.5t-19.5 111.5zM446 1018q0 -66 33 -114t101 -48q72 0 125 71.5t53 168.5q0 68 -32.5 116t-100.5 48 q-72 0 -125.5 -72.5t-53.5 -169.5z" />
<glyph unicode="&#xbb;" horiz-adv-x="1296" d="M82 168l375 340l-234 321l166 121l348 -467l-524 -454zM559 168l373 340l-232 321l166 121l348 -467l-526 -454z" />
<glyph unicode="&#xbc;" horiz-adv-x="1413" d="M190 0h144l1091 1380h-141zM350 1200l4 105q57 6 111.5 30t79.5 54h102l-135 -701h-129l109 557q-67 -38 -142 -45zM817 291l342 399h178l-82 -416h109l-21 -112h-110l-31 -162h-129l33 162h-279zM932 276h194l58 289h-8z" />
<glyph unicode="&#xbd;" horiz-adv-x="1433" d="M190 0h144l1091 1380h-141zM350 1200l4 105q57 6 111.5 30t79.5 54h102l-135 -701h-129l109 557q-67 -38 -142 -45zM909 0l21 106q145 131 172 158q97 92 133.5 139t36.5 95q0 33 -27.5 61.5t-81.5 28.5q-39 0 -73 -13.5t-48 -25.5l-30 110q66 41 180 41q102 0 160.5 -56 t58.5 -130q0 -30 -9 -59.5t-19 -50.5t-32.5 -48.5t-34.5 -40t-40 -39.5t-35 -34l-129 -129h242l-23 -113h-422z" />
<glyph unicode="&#xbe;" horiz-adv-x="1527" d="M276 700l15 113q66 -22 129 -22q62 0 112 32.5t50 87.5q0 30 -27.5 55t-87.5 25h-64l21 107h31q70 0 121 29.5t51 72.5q0 30 -28.5 54t-82.5 24q-35 0 -68.5 -11t-44.5 -20l-28 105q70 39 174 39q98 0 152.5 -49.5t54.5 -122.5q0 -122 -138 -170v-9q12 -5 23.5 -12 t29.5 -23.5t29 -44.5t11 -63q0 -102 -80 -159.5t-213 -57.5q-82 0 -142 20zM285 0l1093 1380h142l-1092 -1380h-143zM868 291l342 399h179l-82 -416h108l-20 -112h-111l-31 -162h-129l33 162h-278zM983 276h195l57 289h-8z" />
<glyph unicode="&#xbf;" horiz-adv-x="929" d="M0 -176q0 38 9.5 74.5t20.5 63.5t35 58.5t38 48.5t45 44.5t41 35t40 31.5q85 66 138 128t67 134l8 47h250q-6 -32 -12 -63q-43 -218 -215 -346q-76 -57 -120 -107.5t-44 -105.5t56.5 -99t164.5 -44q61 0 122 12.5t81 21.5l-37 -225q-106 -37 -250 -37q-111 0 -198.5 29.5 t-138 78.5t-76 105t-25.5 115zM471 647l47 248h248l-47 -248h-248z" />
<glyph unicode="&#xc0;" horiz-adv-x="1368" d="M-123 0l793 1380h327l248 -1380h-278l-56 305h-577l-172 -305h-285zM455 512h419l-94 588h-8zM600 1808h221l107 -301h-125z" />
<glyph unicode="&#xc1;" horiz-adv-x="1368" d="M-123 0l793 1380h327l248 -1380h-278l-56 305h-577l-172 -305h-285zM455 512h419l-94 588h-8zM770 1507l223 301h240l-320 -301h-143z" />
<glyph unicode="&#xc2;" horiz-adv-x="1368" d="M-123 0l793 1380h327l248 -1380h-278l-56 305h-577l-172 -305h-285zM455 512h419l-94 588h-8zM551 1507l244 301h202l127 -301h-143l-107 181l-176 -181h-147z" />
<glyph unicode="&#xc3;" horiz-adv-x="1368" d="M-123 0l793 1380h327l248 -1380h-278l-56 305h-577l-172 -305h-285zM446 1659q155 131 267 131q52 0 94 -15.5t65 -33.5t59 -33.5t77 -15.5q78 0 149 67l70 -104q-157 -129 -269 -129q-54 0 -95.5 15.5t-63.5 33.5t-58 33.5t-79 15.5q-75 0 -148 -70zM455 512h419 l-94 588h-8z" />
<glyph unicode="&#xc4;" horiz-adv-x="1368" d="M-123 0l793 1380h327l248 -1380h-278l-56 305h-577l-172 -305h-285zM455 512h419l-94 588h-8zM532 1546l41 217h218l-41 -217h-218zM950 1546l41 217h217l-41 -217h-217z" />
<glyph unicode="&#xc5;" horiz-adv-x="1368" d="M-123 0l793 1380h327l248 -1380h-278l-56 305h-577l-172 -305h-285zM455 512h419l-94 588h-8zM629 1597q0 94 59.5 157t153.5 63t147 -54t53 -129q0 -97 -62.5 -158t-152.5 -61q-94 0 -146 53.5t-52 128.5zM745 1606q0 -31 22 -53.5t62 -22.5t67.5 28.5t27.5 67.5 q0 31 -22.5 54.5t-61.5 23.5t-67 -28.5t-28 -69.5z" />
<glyph unicode="&#xc6;" horiz-adv-x="2007" d="M-82 0l1114 1380h996l-46 -227h-524l-63 -326h491l-45 -229h-491l-72 -371h528l-43 -227h-821l59 305h-491l-231 -305h-361zM676 512h364l115 588h-8z" />
<glyph unicode="&#xc7;" horiz-adv-x="1280" d="M102 635q0 116 30 225.5t95 208t157.5 172t228 117t296.5 43.5q263 0 432 -88l-118 -238q-137 90 -328 90q-213 0 -350 -151.5t-137 -386.5q0 -105 47 -197.5t144 -153.5t224 -61q60 0 119 13t87.5 24t47.5 22l29 -243q-119 -44 -297 -51l-66 -86q12 4 43 4 q58 0 95 -42.5t37 -101.5q0 -105 -104.5 -182t-231.5 -94l-43 94q93 20 155 63t62 101q0 33 -22.5 53.5t-67.5 20.5h-58l84 172q-151 12 -266 68.5t-185 146.5t-104.5 200t-34.5 238z" />
<glyph unicode="&#xc8;" horiz-adv-x="1126" d="M61 0h822l43 227h-531l72 371h500l45 229h-500l63 326h527l45 227h-817zM639 1808h221l107 -301h-123z" />
<glyph unicode="&#xc9;" horiz-adv-x="1126" d="M61 0h822l43 227h-531l72 371h500l45 229h-500l63 326h527l45 227h-817zM682 1507l223 301h219l-317 -301h-125z" />
<glyph unicode="&#xca;" horiz-adv-x="1126" d="M61 0h822l43 227h-531l72 371h500l45 229h-500l63 326h527l45 227h-817zM485 1507l244 301h205l127 -301h-141l-107 185l-176 -185h-152z" />
<glyph unicode="&#xcb;" horiz-adv-x="1132" d="M61 0l269 1380h817l-45 -227h-527l-63 -326h500l-45 -229h-500l-72 -371h531l-43 -227h-822zM473 1554l43 218h217l-43 -218h-217zM893 1554l43 218h217l-43 -218h-217z" />
<glyph unicode="&#xcc;" horiz-adv-x="684" d="M61 0h291l269 1382h-291zM244 1808h221l106 -301h-125z" />
<glyph unicode="&#xcd;" horiz-adv-x="684" d="M61 0h293l269 1380h-293zM436 1507l221 301h222l-320 -301h-123z" />
<glyph unicode="&#xce;" horiz-adv-x="684" d="M61 0l269 1380h293l-269 -1380h-293zM188 1575l43 217h218l-43 -217h-218zM608 1575l43 217h217l-43 -217h-217z" />
<glyph unicode="&#xcf;" horiz-adv-x="684" d="M61 0h293l269 1380h-293zM213 1507l244 301h202l129 -301h-141l-106 185l-179 -185h-149z" />
<glyph unicode="&#xd0;" horiz-adv-x="1544" d="M102 0l117 598h-113l46 229h112l107 553h399q174 0 306 -51t210.5 -140.5t117 -201t38.5 -242.5q0 -115 -36 -224t-108.5 -203t-172 -165t-236 -112t-291.5 -41h-496zM440 231q30 -6 125 -6q139 0 251 45.5t181 122.5t105.5 172.5t36.5 200.5q0 171 -101.5 280 t-275.5 109q-86 0 -146 -12l-61 -316h303l-45 -229h-303z" />
<glyph unicode="&#xd1;" horiz-adv-x="1599" d="M61 0l269 1380h354l385 -968h10l189 968h270l-268 -1380h-340l-395 1001h-9l-194 -1001h-271zM610 1681q28 25 62 49.5t95 52t112 27.5q52 0 93 -15.5t64 -33.5t58.5 -33.5t76.5 -15.5q74 0 150 68l70 -103q-151 -131 -269 -131q-54 0 -95.5 15.5t-63.5 34t-58 34 t-80 15.5q-73 0 -147 -68z" />
<glyph unicode="&#xd2;" horiz-adv-x="1630" d="M102 598q0 70 12 143.5t40 153t69.5 152t105 137.5t141.5 113t183.5 76t227.5 28q131 0 240.5 -36t183.5 -95.5t125 -139t74.5 -165t23.5 -174.5q0 -108 -25 -216t-84.5 -216.5t-145.5 -191.5t-220.5 -135t-298.5 -52q-155 0 -280 49.5t-205.5 134.5t-123.5 196.5 t-43 237.5zM408 606q0 -167 92 -279t258 -112q93 0 171.5 36t131.5 94.5t90.5 133t54.5 149.5t17 146q0 168 -93 279.5t-249 111.5q-96 0 -177 -36t-134.5 -93.5t-91 -132t-54 -149.5t-16.5 -148zM629 1808h219l108 -301h-125z" />
<glyph unicode="&#xd3;" horiz-adv-x="1630" d="M102 598q0 70 12 143.5t40 153t69.5 152t105 137.5t141.5 113t183.5 76t227.5 28q131 0 240.5 -36t183.5 -95.5t125 -139t74.5 -165t23.5 -174.5q0 -108 -25 -216t-84.5 -216.5t-145.5 -191.5t-220.5 -135t-298.5 -52q-155 0 -280 49.5t-205.5 134.5t-123.5 196.5 t-43 237.5zM408 606q0 -167 92 -279t258 -112q93 0 171.5 36t131.5 94.5t90.5 133t54.5 149.5t17 146q0 168 -93 279.5t-249 111.5q-96 0 -177 -36t-134.5 -93.5t-91 -132t-54 -149.5t-16.5 -148zM793 1507l221 301h221l-317 -301h-125z" />
<glyph unicode="&#xd4;" horiz-adv-x="1630" d="M102 598q0 70 12 143.5t40 153t69.5 152t105 137.5t141.5 113t183.5 76t227.5 28q131 0 240.5 -36t183.5 -95.5t125 -139t74.5 -165t23.5 -174.5q0 -108 -25 -216t-84.5 -216.5t-145.5 -191.5t-220.5 -135t-298.5 -52q-155 0 -280 49.5t-205.5 134.5t-123.5 196.5 t-43 237.5zM408 606q0 -167 92 -279t258 -112q93 0 171.5 36t131.5 94.5t90.5 133t54.5 149.5t17 146q0 168 -93 279.5t-249 111.5q-96 0 -177 -36t-134.5 -93.5t-91 -132t-54 -149.5t-16.5 -148zM625 1507l243 301h205l127 -301h-141l-107 185l-176 -185h-151z" />
<glyph unicode="&#xd5;" horiz-adv-x="1630" d="M102 598q0 70 12 143.5t40 153t69.5 152t105 137.5t141.5 113t183.5 76t227.5 28q131 0 240.5 -36t183.5 -95.5t125 -139t74.5 -165t23.5 -174.5q0 -108 -25 -216t-84.5 -216.5t-145.5 -191.5t-220.5 -135t-298.5 -52q-155 0 -280 49.5t-205.5 134.5t-123.5 196.5 t-43 237.5zM408 606q0 -167 92 -279t258 -112q93 0 171.5 36t131.5 94.5t90.5 133t54.5 149.5t17 146q0 168 -93 279.5t-249 111.5q-96 0 -177 -36t-134.5 -93.5t-91 -132t-54 -149.5t-16.5 -148zM565 1659q155 131 266 131q52 0 94 -15.5t65 -33.5t59 -33.5t77 -15.5 q79 0 150 67l70 -104q-157 -129 -269 -129q-54 0 -95.5 15.5t-64 33.5t-58.5 33.5t-79 15.5q-74 0 -147 -70z" />
<glyph unicode="&#xd6;" horiz-adv-x="1630" d="M102 598q0 70 12 143.5t40 153t69.5 152t105 137.5t141.5 113t183.5 76t227.5 28q131 0 240.5 -36t183.5 -95.5t125 -139t74.5 -165t23.5 -174.5q0 -108 -25 -216t-84.5 -216.5t-145.5 -191.5t-220.5 -135t-298.5 -52q-155 0 -280 49.5t-205.5 134.5t-123.5 196.5 t-43 237.5zM408 606q0 -167 92 -279t258 -112q93 0 171.5 36t131.5 94.5t90.5 133t54.5 149.5t17 146q0 168 -93 279.5t-249 111.5q-96 0 -177 -36t-134.5 -93.5t-91 -132t-54 -149.5t-16.5 -148zM608 1554l43 218h217l-43 -218h-217zM1026 1554l43 218h217l-43 -218h-217z " />
<glyph unicode="&#xd7;" d="M123 223l326 273l-222 274l234 195l219 -273l328 273l141 -174l-328 -275l215 -266l-231 -195l-217 267l-326 -273z" />
<glyph unicode="&#xd8;" horiz-adv-x="1581" d="M102 578q0 97 23 198t79.5 206t139.5 186t215 132.5t295 51.5q105 0 197 -25l120 225l175 -57l-129 -240q129 -81 195.5 -214t66.5 -279q0 -72 -12.5 -146.5t-40 -152t-68.5 -147t-102.5 -131.5t-136.5 -107.5t-175 -71.5t-215 -26q-102 0 -201 26l-110 -199l-172 58 l116 213q-126 78 -193 210t-67 290zM397 586q0 -188 111 -293l448 815q-50 16 -102 16q-93 0 -171 -34.5t-129.5 -90.5t-88 -127.5t-52.5 -144t-16 -141.5zM623 225q56 -16 112 -16q89 0 165 34.5t127 90.5t87.5 128t53 144.5t16.5 141.5q0 182 -113 292z" />
<glyph unicode="&#xd9;" horiz-adv-x="1527" d="M143 416q0 29 4 63t8.5 56t13 59t11.5 51l144 735h290q-131 -679 -145 -747q-29 -141 -29 -191q0 -102 67.5 -164.5t180.5 -62.5q66 0 117.5 18.5t84.5 47.5t58 74t38 87t24 97l164 841h292l-172 -884q-24 -121 -69 -213t-117.5 -161.5t-180.5 -105.5t-249 -36 q-127 0 -230 36t-168.5 96.5t-101 138.5t-35.5 165zM674 1808h221l106 -301h-124z" />
<glyph unicode="&#xda;" horiz-adv-x="1527" d="M143 416q0 29 4 63t8.5 56t13 59t11.5 51l144 735h290q-131 -679 -145 -747q-29 -141 -29 -191q0 -102 67.5 -164.5t180.5 -62.5q66 0 117.5 18.5t84.5 47.5t58 74t38 87t24 97l164 841h292l-172 -884q-24 -121 -69 -213t-117.5 -161.5t-180.5 -105.5t-249 -36 q-127 0 -230 36t-168.5 96.5t-101 138.5t-35.5 165zM856 1507l221 301h221l-319 -301h-123z" />
<glyph unicode="&#xdb;" horiz-adv-x="1527" d="M143 416q0 29 4 63t8.5 56t13 59t11.5 51l144 735h290q-131 -679 -145 -747q-29 -141 -29 -191q0 -102 67.5 -164.5t180.5 -62.5q66 0 117.5 18.5t84.5 47.5t58 74t38 87t24 97l164 841h292l-172 -884q-24 -121 -69 -213t-117.5 -161.5t-180.5 -105.5t-249 -36 q-127 0 -230 36t-168.5 96.5t-101 138.5t-35.5 165zM635 1507l244 301h202l129 -301h-139l-106 185l-179 -185h-151z" />
<glyph unicode="&#xdc;" horiz-adv-x="1527" d="M143 416q0 29 4 63t8.5 56t13 59t11.5 51l144 735h290q-131 -679 -145 -747q-29 -141 -29 -191q0 -102 67.5 -164.5t180.5 -62.5q66 0 117.5 18.5t84.5 47.5t58 74t38 87t24 97l164 841h292l-172 -884q-24 -121 -69 -213t-117.5 -161.5t-180.5 -105.5t-249 -36 q-127 0 -230 36t-168.5 96.5t-101 138.5t-35.5 165zM606 1556l43 218h217l-43 -218h-217zM1024 1556l43 218h219l-43 -218h-219z" />
<glyph unicode="&#xdd;" horiz-adv-x="1271" d="M143 1380h308l178 -665l444 665h301l-655 -960l-82 -420h-291l80 420zM637 1507l223 301h219l-317 -301h-125z" />
<glyph unicode="&#xde;" horiz-adv-x="1216" d="M61 0l269 1380h291l-50 -252h80q236 0 370 -108.5t134 -288.5q0 -228 -152.5 -361.5t-451.5 -133.5q-70 0 -150 10l-49 -246h-291zM442 457q24 -4 111 -4q131 0 215 71t84 176q0 84 -60 147.5t-180 63.5q-70 0 -82 -4z" />
<glyph unicode="&#xdf;" horiz-adv-x="1294" d="M51 0l193 991q102 516 608 516q102 0 182 -28t126 -72.5t69.5 -94.5t23.5 -100q0 -52 -13.5 -93.5t-43.5 -75t-51.5 -51t-63.5 -46.5l-41 -28q-4 -3 -24 -16.5t-25 -17t-20.5 -16t-20 -18.5t-14.5 -18.5t-13 -22.5t-6.5 -24.5t-3.5 -30.5q0 -64 84 -123l47 -35 q86 -60 124 -126.5t38 -147.5q0 -95 -65 -174t-174.5 -123.5t-237.5 -44.5q-131 0 -252 36q2 18 35 177q8 30 37 30q3 0 59.5 -18.5t108.5 -18.5q103 0 157 36.5t54 96.5q0 61 -80 117l-72 49q-66 43 -104.5 100.5t-38.5 153.5q0 60 22 109.5t52.5 80t78.5 62.5l56 37 q3 2 24 16.5t31 22t29 23.5t29 28.5t18 30t8 33.5q0 45 -46.5 79.5t-125.5 34.5q-112 0 -184.5 -71.5t-96.5 -194.5l-200 -1030h-277z" />
<glyph unicode="&#xe0;" horiz-adv-x="1144" d="M51 297q0 94 42 162.5t117 106.5t164 55.5t197 17.5h189q6 42 6 51q0 21 -10 41.5t-32 42t-67.5 34.5t-107.5 13q-59 0 -118 -16.5t-98 -32.5t-50 -16q-25 0 -25 22q0 32 25 201q147 55 321 55q95 0 171 -19.5t124.5 -50.5t81 -72t46 -82t13.5 -83q0 -69 -20 -166 l-57 -301q-33 -174 -33 -260h-225q-37 0 -37 33l10 84h-8q-5 -8 -12.5 -18.5t-32.5 -33.5t-54.5 -40t-79.5 -31t-106 -14q-78 0 -142.5 28t-105.5 73.5t-63.5 101.5t-22.5 114zM346 307q0 -54 37 -91.5t106 -37.5q45 0 86 24t69 61.5t46.5 78.5t26.5 80l10 53h-117 q-129 0 -196.5 -47t-67.5 -121zM412 1520h221l104 -301h-123z" />
<glyph unicode="&#xe1;" horiz-adv-x="1144" d="M51 297q0 94 42 162.5t117 106.5t164 55.5t197 17.5h189q6 42 6 51q0 21 -10 41.5t-32 42t-67.5 34.5t-107.5 13q-59 0 -118 -16.5t-98 -32.5t-50 -16q-25 0 -25 22q0 32 25 201q147 55 321 55q95 0 171 -19.5t124.5 -50.5t81 -72t46 -82t13.5 -83q0 -69 -20 -166 l-57 -301q-33 -174 -33 -260h-225q-37 0 -37 33l10 84h-8q-5 -8 -12.5 -18.5t-32.5 -33.5t-54.5 -40t-79.5 -31t-106 -14q-78 0 -142.5 28t-105.5 73.5t-63.5 101.5t-22.5 114zM346 307q0 -54 37 -91.5t106 -37.5q45 0 86 24t69 61.5t46.5 78.5t26.5 80l10 53h-117 q-129 0 -196.5 -47t-67.5 -121zM602 1219l225 301h220l-320 -301h-125z" />
<glyph unicode="&#xe2;" horiz-adv-x="1144" d="M51 297q0 94 42 162.5t117 106.5t164 55.5t197 17.5h189q6 42 6 51q0 21 -10 41.5t-32 42t-67.5 34.5t-107.5 13q-59 0 -118 -16.5t-98 -32.5t-50 -16q-25 0 -25 22q0 32 25 201q147 55 321 55q95 0 171 -19.5t124.5 -50.5t81 -72t46 -82t13.5 -83q0 -69 -20 -166 l-57 -301q-33 -174 -33 -260h-225q-37 0 -37 33l10 84h-8q-5 -8 -12.5 -18.5t-32.5 -33.5t-54.5 -40t-79.5 -31t-106 -14q-78 0 -142.5 28t-105.5 73.5t-63.5 101.5t-22.5 114zM346 307q0 -54 37 -91.5t106 -37.5q45 0 86 24t69 61.5t46.5 78.5t26.5 80l10 53h-117 q-129 0 -196.5 -47t-67.5 -121zM393 1219l244 301h205l125 -301h-140l-104 180l-178 -180h-152z" />
<glyph unicode="&#xe3;" horiz-adv-x="1144" d="M51 297q0 94 42 162.5t117 106.5t164 55.5t197 17.5h189q6 42 6 51q0 21 -10 41.5t-32 42t-67.5 34.5t-107.5 13q-59 0 -118 -16.5t-98 -32.5t-50 -16q-25 0 -25 22q0 32 25 201q147 55 321 55q95 0 171 -19.5t124.5 -50.5t81 -72t46 -82t13.5 -83q0 -69 -20 -166 l-57 -301q-33 -174 -33 -260h-225q-37 0 -37 33l10 84h-8q-5 -8 -12.5 -18.5t-32.5 -33.5t-54.5 -40t-79.5 -31t-106 -14q-78 0 -142.5 28t-105.5 73.5t-63.5 101.5t-22.5 114zM309 1366q155 131 269 131q52 0 93.5 -15.5t64 -33.5t58 -33.5t76.5 -15.5q81 0 152 67l68 -104 q-157 -129 -269 -129q-54 0 -95.5 15.5t-63.5 33.5t-58 33.5t-80 15.5q-32 0 -72 -18t-75 -51zM346 307q0 -54 37 -91.5t106 -37.5q45 0 86 24t69 61.5t46.5 78.5t26.5 80l10 53h-117q-129 0 -196.5 -47t-67.5 -121z" />
<glyph unicode="&#xe4;" horiz-adv-x="1144" d="M51 297q0 94 42 162.5t117 106.5t164 55.5t197 17.5h189q6 42 6 51q0 21 -10 41.5t-32 42t-67.5 34.5t-107.5 13q-59 0 -118 -16.5t-98 -32.5t-50 -16q-25 0 -25 22q0 32 25 201q147 55 321 55q95 0 171 -19.5t124.5 -50.5t81 -72t46 -82t13.5 -83q0 -69 -20 -166 l-57 -301q-33 -174 -33 -260h-225q-37 0 -37 33l10 84h-8q-5 -8 -12.5 -18.5t-32.5 -33.5t-54.5 -40t-79.5 -31t-106 -14q-78 0 -142.5 28t-105.5 73.5t-63.5 101.5t-22.5 114zM346 307q0 -54 37 -91.5t106 -37.5q45 0 86 24t69 61.5t46.5 78.5t26.5 80l10 53h-117 q-129 0 -196.5 -47t-67.5 -121zM369 1260l43 217h217l-43 -217h-217zM786 1260l43 217h218l-43 -217h-218z" />
<glyph unicode="&#xe5;" horiz-adv-x="1144" d="M51 297q0 94 42 162.5t117 106.5t164 55.5t197 17.5h189q6 42 6 51q0 21 -10 41.5t-32 42t-67.5 34.5t-107.5 13q-59 0 -118 -16.5t-98 -32.5t-50 -16q-25 0 -25 22q0 32 25 201q147 55 321 55q95 0 171 -19.5t124.5 -50.5t81 -72t46 -82t13.5 -83q0 -69 -20 -166 l-57 -301q-33 -174 -33 -260h-225q-37 0 -37 33l10 84h-8q-5 -8 -12.5 -18.5t-32.5 -33.5t-54.5 -40t-79.5 -31t-106 -14q-78 0 -142.5 28t-105.5 73.5t-63.5 101.5t-22.5 114zM346 307q0 -54 37 -91.5t106 -37.5q45 0 86 24t69 61.5t46.5 78.5t26.5 80l10 53h-117 q-129 0 -196.5 -47t-67.5 -121zM496 1315q0 94 60 156.5t155 62.5q94 0 146 -53.5t52 -128.5q0 -98 -61.5 -158.5t-151.5 -60.5q-94 0 -147 54t-53 128zM614 1323q0 -31 22 -53.5t62 -22.5q39 0 66 28.5t27 67.5q0 32 -21.5 54t-60.5 22q-40 0 -67.5 -28t-27.5 -68z" />
<glyph unicode="&#xe6;" horiz-adv-x="1826" d="M51 295q0 88 37 153t105 102.5t154.5 55t195.5 17.5h213q10 35 10 67q0 21 -10 41.5t-32 42t-67.5 34.5t-107.5 13q-59 0 -118 -16.5t-98 -33.5t-50 -17q-25 0 -25 22q0 29 9.5 102.5t15.5 98.5q15 7 50.5 18.5t113.5 25t157 13.5q244 0 344 -116q129 116 338 116 q94 0 172 -23.5t130 -62t88.5 -89t52.5 -103.5t16 -107q0 -32 -4 -67.5t-8.5 -57t-10.5 -44.5t-6 -25h-694q0 -52 14.5 -97t45 -84t85 -61.5t127.5 -22.5q57 0 107.5 16.5t83 33t45.5 16.5q29 0 29 -31q0 -27 -13 -101t-20 -99q-125 -45 -293 -45q-140 0 -248.5 55.5 t-175.5 152.5h-8q-6 -12 -14.5 -26t-42 -50t-74.5 -62t-113 -48t-156 -22q-89 0 -158.5 27.5t-110 73.5t-61 100.5t-20.5 113.5zM346 305q0 -52 37 -90.5t106 -38.5q50 0 91.5 22.5t68.5 60t43.5 78t24.5 83.5l8 39h-117q-130 0 -196 -40.5t-66 -113.5zM1040 614h414 q6 24 6 52q0 61 -43 113t-133 52q-57 0 -102.5 -20.5t-70 -47.5t-42 -62t-22.5 -53.5t-7 -33.5z" />
<glyph unicode="&#xe7;" horiz-adv-x="1015" d="M82 455q0 121 48.5 228.5t131 183.5t196.5 120.5t240 44.5q80 0 156 -13.5t109.5 -25.5t52.5 -22q-16 -89 -43 -185q-7 -30 -29 -30q-11 0 -31.5 9t-43.5 20.5t-67 20.5t-97 9q-81 0 -155 -40t-123.5 -120t-49.5 -182q0 -122 73.5 -200t196.5 -78q53 0 120 24.5t73 24.5 q10 0 16 -7.5t6 -17.5q0 -26 -31 -196q-107 -37 -221 -43l-67 -89q3 0 18 2.5t25 2.5q58 0 95.5 -42.5t37.5 -101.5q0 -105 -105.5 -182t-232.5 -94l-43 94q93 20 155 63t62 101q0 33 -21.5 53t-66.5 20h-59l86 175q-194 23 -303 154.5t-109 318.5z" />
<glyph unicode="&#xe8;" horiz-adv-x="1179" d="M82 471q0 129 46.5 237.5t124.5 178.5t178 108.5t208 38.5q116 0 207.5 -35t144.5 -92t80 -123t27 -135q0 -95 -29 -192h-694q0 -52 14.5 -97t45.5 -83.5t85.5 -61t126.5 -22.5q57 0 107.5 16.5t83 32.5t45.5 16q28 0 28 -31q0 -27 -13 -101.5t-19 -98.5 q-131 -47 -293 -47q-114 0 -210 39t-160 106t-99 156t-35 190zM393 614h416q0 3 2 22t2 32q0 59 -43 111t-131 52q-42 0 -78 -11t-59.5 -26.5t-43.5 -39.5t-30.5 -42t-19 -43t-10.5 -33.5t-5 -21.5zM467 1520h221l105 -301h-123z" />
<glyph unicode="&#xe9;" horiz-adv-x="1179" d="M82 471q0 129 46.5 237.5t124.5 178.5t178 108.5t208 38.5q116 0 207.5 -35t144.5 -92t80 -123t27 -135q0 -95 -29 -192h-694q0 -52 14.5 -97t45.5 -83.5t85.5 -61t126.5 -22.5q57 0 107.5 16.5t83 32.5t45.5 16q28 0 28 -31q0 -27 -13 -101.5t-19 -98.5 q-131 -47 -293 -47q-114 0 -210 39t-160 106t-99 156t-35 190zM393 614h416q0 3 2 22t2 32q0 59 -43 111t-131 52q-42 0 -78 -11t-59.5 -26.5t-43.5 -39.5t-30.5 -42t-19 -43t-10.5 -33.5t-5 -21.5zM606 1219l223 301h222l-320 -301h-125z" />
<glyph unicode="&#xea;" horiz-adv-x="1179" d="M82 471q0 129 46.5 237.5t124.5 178.5t178 108.5t208 38.5q116 0 207.5 -35t144.5 -92t80 -123t27 -135q0 -95 -29 -192h-694q0 -52 14.5 -97t45.5 -83.5t85.5 -61t126.5 -22.5q57 0 107.5 16.5t83 32.5t45.5 16q28 0 28 -31q0 -27 -13 -101.5t-19 -98.5 q-131 -47 -293 -47q-114 0 -210 39t-160 106t-99 156t-35 190zM393 614h416q0 3 2 22t2 32q0 59 -43 111t-131 52q-42 0 -78 -11t-59.5 -26.5t-43.5 -39.5t-30.5 -42t-19 -43t-10.5 -33.5t-5 -21.5zM401 1219l246 301h203l127 -301h-141l-107 184l-176 -184h-152z" />
<glyph unicode="&#xeb;" horiz-adv-x="1179" d="M82 471q0 129 46.5 237.5t124.5 178.5t178 108.5t208 38.5q116 0 207.5 -35t144.5 -92t80 -123t27 -135q0 -95 -29 -192h-694q0 -52 14.5 -97t45.5 -83.5t85.5 -61t126.5 -22.5q57 0 107.5 16.5t83 32.5t45.5 16q28 0 28 -31q0 -27 -13 -101.5t-19 -98.5 q-131 -47 -293 -47q-114 0 -210 39t-160 106t-99 156t-35 190zM360 1262l43 217h218l-43 -217h-218zM393 614h416q0 3 2 22t2 32q0 59 -43 111t-131 52q-42 0 -78 -11t-59.5 -26.5t-43.5 -39.5t-30.5 -42t-19 -43t-10.5 -33.5t-5 -21.5zM778 1262l43 217h219l-43 -217h-219z " />
<glyph unicode="&#xec;" horiz-adv-x="577" d="M51 0l197 1012h274l-196 -1012h-275zM158 1520h221l104 -301h-123z" />
<glyph unicode="&#xed;" horiz-adv-x="577" d="M51 0l197 1012h274l-196 -1012h-275zM354 1219l224 301h221l-322 -301h-123z" />
<glyph unicode="&#xee;" horiz-adv-x="577" d="M51 0l197 1012h274l-196 -1012h-275zM135 1219l246 301h205l125 -301h-142l-106 184l-176 -184h-152z" />
<glyph unicode="&#xef;" horiz-adv-x="577" d="M51 0l197 1012h274l-196 -1012h-275zM115 1262l43 217h217l-43 -217h-217zM535 1262l43 217h217l-43 -217h-217z" />
<glyph unicode="&#xf0;" horiz-adv-x="1306" d="M82 434q0 163 69.5 300.5t197 219.5t286.5 82q56 0 107.5 -11t84.5 -26t60 -33t37.5 -28t15.5 -16l6 6q-13 138 -67 239l-138 -75l-55 125l107 61q-7 7 -32.5 28.5t-29.5 24.5q-22 11 -22 33q0 15 24 45q61 70 111 113q93 -55 153 -121l166 98l62 -129l-146 -82 q105 -200 105 -487q0 -130 -22 -247.5t-70.5 -223.5t-120 -183t-177.5 -122t-235 -45q-116 0 -208.5 37t-150 101t-88 144.5t-30.5 171.5zM373 449q0 -66 18.5 -120t66.5 -92t120 -38q112 0 194 109.5t82 258.5q0 66 -18.5 120t-66.5 92t-120 38q-111 0 -193.5 -109.5 t-82.5 -258.5z" />
<glyph unicode="&#xf1;" horiz-adv-x="1277" d="M51 0q123 631 137 705q32 164 50 307h211q20 0 28 -10t8 -21q0 -9 -4.5 -34t-8.5 -45l-5 -21h10q6 11 16 25t34 38t53.5 43t76.5 33t99 14q70 0 129.5 -18.5t100 -50t69 -72.5t42 -85t13.5 -89q0 -66 -23 -174l-104 -545h-276q69 358 104 532q18 97 18 138 q0 64 -36 107.5t-113 43.5q-83 0 -154.5 -77.5t-97.5 -221.5l-102 -522h-275zM395 1368q28 25 62 49.5t95 52t112 27.5q52 0 93 -15.5t64 -33.5t58.5 -33.5t76.5 -15.5q75 0 150 67l70 -102q-151 -131 -269 -131q-54 0 -95.5 15.5t-63.5 33.5t-58 33.5t-80 15.5 q-74 0 -147 -67z" />
<glyph unicode="&#xf2;" horiz-adv-x="1226" d="M82 434q0 123 40.5 232.5t114.5 191.5t185.5 130t245.5 48q116 0 208.5 -37t150 -101t88 -144.5t30.5 -171.5q0 -123 -40.5 -232.5t-114.5 -191.5t-185.5 -130t-245.5 -48q-116 0 -208.5 37t-150 101t-88 144.5t-30.5 171.5zM373 449q0 -66 18.5 -120t66.5 -92t120 -38 q112 0 194 109.5t82 258.5q0 66 -18.5 120t-66.5 92t-120 38q-111 0 -193.5 -109.5t-82.5 -258.5zM412 1520h219l104 -301h-123z" />
<glyph unicode="&#xf3;" horiz-adv-x="1226" d="M82 434q0 123 40.5 232.5t114.5 191.5t185.5 130t245.5 48q116 0 208.5 -37t150 -101t88 -144.5t30.5 -171.5q0 -123 -40.5 -232.5t-114.5 -191.5t-185.5 -130t-245.5 -48q-116 0 -208.5 37t-150 101t-88 144.5t-30.5 171.5zM373 449q0 -66 18.5 -120t66.5 -92t120 -38 q112 0 194 109.5t82 258.5q0 66 -18.5 120t-66.5 92t-120 38q-111 0 -193.5 -109.5t-82.5 -258.5zM594 1219l223 301h221l-319 -301h-125z" />
<glyph unicode="&#xf4;" horiz-adv-x="1226" d="M82 434q0 123 40.5 232.5t114.5 191.5t185.5 130t245.5 48q116 0 208.5 -37t150 -101t88 -144.5t30.5 -171.5q0 -123 -40.5 -232.5t-114.5 -191.5t-185.5 -130t-245.5 -48q-116 0 -208.5 37t-150 101t-88 144.5t-30.5 171.5zM373 449q0 -66 18.5 -120t66.5 -92t120 -38 q112 0 194 109.5t82 258.5q0 66 -18.5 120t-66.5 92t-120 38q-111 0 -193.5 -109.5t-82.5 -258.5zM422 1219l246 301h202l127 -301h-143l-104 184l-179 -184h-149z" />
<glyph unicode="&#xf5;" horiz-adv-x="1226" d="M82 434q0 123 40.5 232.5t114.5 191.5t185.5 130t245.5 48q116 0 208.5 -37t150 -101t88 -144.5t30.5 -171.5q0 -123 -40.5 -232.5t-114.5 -191.5t-185.5 -130t-245.5 -48q-116 0 -208.5 37t-150 101t-88 144.5t-30.5 171.5zM373 449q0 -66 18.5 -120t66.5 -92t120 -38 q112 0 194 109.5t82 258.5q0 66 -18.5 120t-66.5 92t-120 38q-111 0 -193.5 -109.5t-82.5 -258.5zM403 1366q131 131 248 131q52 0 93 -15.5t63.5 -33.5t58 -33.5t76.5 -15.5q77 0 152 67l45 -104q-123 -129 -244 -129q-54 0 -95.5 15.5t-64 33.5t-58.5 33.5t-79 15.5 q-74 0 -149 -69z" />
<glyph unicode="&#xf6;" horiz-adv-x="1226" d="M82 434q0 123 40.5 232.5t114.5 191.5t185.5 130t245.5 48q116 0 208.5 -37t150 -101t88 -144.5t30.5 -171.5q0 -123 -40.5 -232.5t-114.5 -191.5t-185.5 -130t-245.5 -48q-116 0 -208.5 37t-150 101t-88 144.5t-30.5 171.5zM373 449q0 -66 18.5 -120t66.5 -92t120 -38 q112 0 194 109.5t82 258.5q0 66 -18.5 120t-66.5 92t-120 38q-111 0 -193.5 -109.5t-82.5 -258.5zM387 1260l43 217h215l-43 -217h-215zM805 1260l43 217h217l-43 -217h-217z" />
<glyph unicode="&#xf7;" d="M102 422l39 207h1047l-39 -207h-1047zM424 33l47 248h248l-47 -248h-248zM567 778l49 248h248l-49 -248h-248z" />
<glyph unicode="&#xf8;" horiz-adv-x="1224" d="M82 432q0 123 40.5 232.5t114.5 191.5t185.5 130t245.5 48q81 0 159 -20l123 213l148 -49l-133 -230q88 -61 133 -157.5t45 -208.5q0 -123 -40 -232.5t-113.5 -191.5t-185 -130t-245.5 -48q-73 0 -145 16l-125 -213l-137 63l122 211q-94 61 -143 160t-49 215zM373 446 q0 -94 39 -159l301 520q-30 10 -64 10q-110 0 -193 -111t-83 -260zM522 205q32 -8 56 -8q110 0 193 110.5t83 259.5q0 89 -35 152z" />
<glyph unicode="&#xf9;" horiz-adv-x="1212" d="M102 295q0 -58 22 -113.5t64 -101.5t112 -74.5t157 -28.5q185 0 280 156h8q-18 -80 -18 -100q0 -33 39 -33h209q19 155 49 309l137 703h-274q-74 -373 -101 -520q-28 -144 -100 -221.5t-154 -77.5q-78 0 -113.5 43t-35.5 108q0 38 18 135l105 533h-275 q-65 -330 -106 -545q-23 -108 -23 -172zM457 1520h219l106 -301h-125z" />
<glyph unicode="&#xfa;" horiz-adv-x="1212" d="M102 295q0 -58 22 -113.5t64 -101.5t112 -74.5t157 -28.5q185 0 280 156h8q-18 -80 -18 -100q0 -33 39 -33h209q19 155 49 309l137 703h-274q-74 -373 -101 -520q-28 -144 -100 -221.5t-154 -77.5q-78 0 -113.5 43t-35.5 108q0 38 18 135l105 533h-275 q-65 -330 -106 -545q-23 -108 -23 -172zM651 1219l226 301h219l-320 -301h-125z" />
<glyph unicode="&#xfb;" horiz-adv-x="1212" d="M102 295q0 -58 22 -113.5t64 -101.5t112 -74.5t157 -28.5q185 0 280 156h8q-18 -80 -18 -100q0 -33 39 -33h209q19 155 49 309l137 703h-274q-74 -373 -101 -520q-28 -144 -100 -221.5t-154 -77.5q-78 0 -113.5 43t-35.5 108q0 38 18 135l105 533h-275 q-65 -330 -106 -545q-23 -108 -23 -172zM438 1219l246 301h203l127 -301h-140l-106 184l-176 -184h-154z" />
<glyph unicode="&#xfc;" horiz-adv-x="1212" d="M102 295q0 -58 22 -113.5t64 -101.5t112 -74.5t157 -28.5q185 0 280 156h8q-18 -80 -18 -100q0 -33 39 -33h209q19 155 49 309l137 703h-274q-74 -373 -101 -520q-28 -144 -100 -221.5t-154 -77.5q-78 0 -113.5 43t-35.5 108q0 38 18 135l105 533h-275 q-65 -330 -106 -545q-23 -108 -23 -172zM420 1262l43 217h217l-43 -217h-217zM840 1262h217l43 217h-217z" />
<glyph unicode="&#xfd;" horiz-adv-x="1128" d="M-184 -477q83 -29 221 -29q88 0 161 25t120 55.5t98.5 98.5t77 112t74.5 136l3.5 7t3.5 6q62 115 215.5 384.5t276.5 481.5l123 212h-295l-342 -639h-10l-140 639h-282l227 -1008q-28 -53 -69 -121q-57 -95 -111.5 -133.5t-124.5 -38.5q-33 0 -78.5 9.5t-52.5 9.5 q-28 0 -39 -29q-38 -108 -57 -178zM645 1219l223 301h222l-322 -301h-123z" />
<glyph unicode="&#xfe;" horiz-adv-x="1249" d="M-20 -473l358 1853h276l-86 -446h9q95 100 247 100q99 0 174.5 -36t119.5 -97t65.5 -133.5t21.5 -153.5q0 -112 -33 -213t-91 -177t-133.5 -131.5t-163 -84t-177.5 -28.5q-61 0 -113.5 7t-74 13.5t-31.5 11.5l-94 -485h-274zM389 217q80 -20 141 -20q145 0 241.5 112.5 t96.5 276.5q0 95 -45 163t-135 68q-94 0 -154 -73.5t-85 -211.5z" />
<glyph unicode="&#xff;" horiz-adv-x="1128" d="M-184 -477q83 -29 221 -29q88 0 161 25t120 55.5t98.5 98.5t77 112t74.5 136l3.5 7t3.5 6q62 115 215.5 384.5t276.5 481.5l123 212h-295l-342 -639h-10l-140 639h-282l227 -1008q-28 -53 -69 -121q-57 -95 -111.5 -133.5t-124.5 -38.5q-33 0 -78.5 9.5t-52.5 9.5 q-28 0 -39 -29q-38 -108 -57 -178zM408 1260l41 215h217l-41 -215h-217zM825 1260h217l41 215h-217z" />
<glyph unicode="&#x152;" horiz-adv-x="2146" d="M102 600q0 100 24 204.5t82.5 213t144.5 192.5t223 137.5t305 53.5q274 0 444 -150l27 129h815l-43 -225h-525l-63 -326h492l-46 -229h-491l-72 -371h529l-45 -229h-820l9 49q-151 -69 -340 -69q-154 0 -279 49.5t-205 134.5t-123 197t-43 239zM408 608 q0 -108 38.5 -195.5t119.5 -142.5t192 -55q93 0 171.5 36t131.5 94.5t90.5 133t54.5 150t17 147.5q0 167 -93 277t-249 110q-96 0 -177 -35.5t-134.5 -93t-91 -131.5t-54 -148.5t-16.5 -146.5z" />
<glyph unicode="&#x153;" horiz-adv-x="1943" d="M82 432q0 166 69 301.5t204.5 218t314.5 82.5q226 0 356 -137q76 66 174 101.5t201 35.5q94 0 172.5 -23.5t131 -62t89 -89t52.5 -103.5t16 -107q0 -91 -31 -194h-692q0 -52 14.5 -97t45 -84t85 -61.5t127.5 -22.5q56 0 107 16.5t83.5 33t45.5 16.5q26 0 26 -31 q0 -29 -13 -105t-20 -95q-146 -45 -292 -45q-240 0 -379 155q-161 -155 -410 -155q-115 0 -207.5 37t-150.5 100t-88.5 143.5t-30.5 171.5zM373 446q0 -49 11 -91.5t34 -79t64 -57.5t96 -21q112 0 194 109.5t82 260.5q0 67 -18 120.5t-66 91.5t-121 38q-110 0 -193 -111 t-83 -260zM1155 614h416q4 16 4 52q0 37 -15 72.5t-56.5 64t-102.5 28.5q-42 0 -77.5 -11t-59 -26.5t-43.5 -40t-30.5 -42t-19.5 -43t-11 -33t-5 -21.5z" />
<glyph unicode="&#x178;" horiz-adv-x="1271" d="M143 1380h308l178 -665l444 665h301l-655 -960l-82 -420h-291l80 420zM508 1548l43 217h217l-43 -217h-217zM926 1548l43 217h217l-43 -217h-217z" />
<glyph unicode="&#x2c6;" horiz-adv-x="737" d="M289 1081l243 299h205l127 -299h-145l-105 185l-178 -185h-147z" />
<glyph unicode="&#x2dc;" horiz-adv-x="899" d="M305 1272q28 25 61.5 49.5t94.5 52t112 27.5q52 0 93.5 -15.5t64 -33.5t58.5 -33.5t77 -15.5q75 0 150 67l69 -102q-151 -131 -268 -131q-54 0 -95.5 15.5t-63.5 33.5t-58 33.5t-80 15.5q-73 0 -147 -68z" />
<glyph unicode="&#x2000;" horiz-adv-x="908" />
<glyph unicode="&#x2001;" horiz-adv-x="1817" />
<glyph unicode="&#x2002;" horiz-adv-x="908" />
<glyph unicode="&#x2003;" horiz-adv-x="1817" />
<glyph unicode="&#x2004;" horiz-adv-x="605" />
<glyph unicode="&#x2005;" horiz-adv-x="454" />
<glyph unicode="&#x2006;" horiz-adv-x="302" />
<glyph unicode="&#x2007;" horiz-adv-x="302" />
<glyph unicode="&#x2008;" horiz-adv-x="227" />
<glyph unicode="&#x2009;" horiz-adv-x="363" />
<glyph unicode="&#x200a;" horiz-adv-x="100" />
<glyph unicode="&#x2010;" horiz-adv-x="917" d="M123 422l39 207h633l-39 -207h-633z" />
<glyph unicode="&#x2011;" horiz-adv-x="917" d="M123 422l39 207h633l-39 -207h-633z" />
<glyph unicode="&#x2012;" horiz-adv-x="917" d="M123 422l39 207h633l-39 -207h-633z" />
<glyph unicode="&#x2013;" horiz-adv-x="1179" d="M123 422l39 207h895l-39 -207h-895z" />
<glyph unicode="&#x2014;" horiz-adv-x="1544" d="M123 422l39 207h1259l-39 -207h-1259z" />
<glyph unicode="&#x2018;" horiz-adv-x="538" d="M205 915q23 107 33 162q12 65 37 118t51 85.5t62.5 59t61 38.5t56.5 25l33 -47q-53 -32 -94 -82.5t-52 -110.5h109l-49 -248h-248z" />
<glyph unicode="&#x2019;" horiz-adv-x="495" d="M205 940q52 32 92 83t51 110h-106l47 247h248q-21 -106 -31 -161q-16 -79 -47.5 -139.5t-73.5 -96.5t-74.5 -54.5t-72.5 -33.5z" />
<glyph unicode="&#x201a;" horiz-adv-x="538" d="M0 -193q53 31 93.5 82t51.5 111h-108l49 248h248q-23 -107 -33 -162q-13 -65 -38 -118t-51 -85.5t-62 -59t-60.5 -38.5t-56.5 -25z" />
<glyph unicode="&#x201c;" horiz-adv-x="901" d="M205 915q21 107 31 162q13 65 38 118t51 85.5t62 59t60.5 38.5t56.5 25l33 -47q-52 -32 -93.5 -83t-52.5 -110h109l-49 -248h-246zM569 915q23 107 33 162q11 64 35 116.5t50.5 85t63 59.5t62 39.5t57.5 25.5l31 -47q-52 -32 -92 -83t-51 -110h106l-47 -248h-248z" />
<glyph unicode="&#x201d;" horiz-adv-x="862" d="M205 940q52 32 93 83t52 110h-108l49 247h246q-21 -106 -31 -161q-16 -79 -47.5 -139.5t-73.5 -96.5t-74.5 -54.5t-72.5 -33.5zM569 940q53 32 94 82.5t52 110.5h-107l47 247h248q-23 -106 -33 -161q-15 -79 -46.5 -139.5t-73.5 -96.5t-75 -54.5t-73 -33.5z" />
<glyph unicode="&#x201e;" horiz-adv-x="903" d="M0 -193q53 31 93.5 82t51.5 111h-106l47 248h248q-23 -107 -33 -162q-12 -65 -37 -118t-51 -85.5t-62.5 -59t-61 -38.5t-56.5 -25zM367 -193q52 32 93 83t52 110h-109l50 248h245q-20 -107 -30 -162q-13 -65 -38 -118t-51.5 -85.5t-62.5 -59t-60.5 -38.5t-56.5 -25z" />
<glyph unicode="&#x2022;" horiz-adv-x="802" d="M164 344l78 395h397l-78 -395h-397z" />
<glyph unicode="&#x2026;" horiz-adv-x="1656" d="M61 0l48 248h247l-47 -248h-248zM610 0l47 248h248l-47 -248h-248zM1157 0l47 248h248l-47 -248h-248z" />
<glyph unicode="&#x202f;" horiz-adv-x="363" />
<glyph unicode="&#x2039;" horiz-adv-x="819" d="M82 481l524 455l131 -139l-375 -338l234 -322l-166 -121z" />
<glyph unicode="&#x203a;" horiz-adv-x="964" d="M154 168l374 340l-231 321l166 121l348 -467l-526 -454z" />
<glyph unicode="&#x205f;" horiz-adv-x="454" />
<glyph unicode="&#x20ac;" d="M-10 426l98 192h33q0 70 6 125h-133l96 193h86q39 100 104 182.5t157 147t217.5 100t273.5 35.5q65 0 125.5 -6t102.5 -14.5t81 -20t60 -20t41 -17.5t22 -10l-121 -238q-137 90 -328 90q-130 0 -235.5 -61t-169.5 -168h674l-97 -193h-649q-10 -68 -10 -125h596l-96 -192 h-449q50 -95 144 -153t221 -58q135 0 254 57l28 -241q-148 -51 -338 -51q-136 0 -246.5 33.5t-187.5 94t-128 140.5t-77 178h-155z" />
<glyph unicode="&#x2122;" horiz-adv-x="1089" d="M205 1313l14 67h309l-14 -67h-111l-65 -342h-88l65 342h-110zM459 971l143 409h103l36 -297h9l145 297h113l-19 -409h-84l19 301h-9l-149 -301h-88l-35 301h-8l-90 -301h-86z" />
<glyph unicode="&#xe000;" horiz-adv-x="1013" d="M0 0v1014h1014v-1014h-1014z" />
<glyph unicode="&#xfb03;" horiz-adv-x="1849" d="M113 786l43 226h182l14 78q43 212 158 314.5t307 102.5q111 0 195 -28l-45 -158q-5 -20 -13.5 -29.5t-25.5 -9.5q-4 0 -38.5 6t-76.5 6q-145 0 -180 -180l-19 -102h295q9 42 13 65q45 225 179.5 327.5t368.5 102.5q41 0 81.5 -4t74 -11t56 -12.5t44.5 -12.5t23 -7 l-49 -160q-5 -19 -14 -27.5t-29 -8.5q-1 0 -69 13t-122 13q-106 0 -176.5 -58t-93.5 -173l-10 -47h571l-196 -1012h-277l154 786h-295l-154 -786h-276q85 443 153 786h-295l-153 -786h-277q86 443 154 786h-182z" />
<glyph unicode="&#xfb04;" horiz-adv-x="1802" d="M113 786l43 226h182l14 75q43 212 158 316t307 104q46 0 93.5 -7t71 -13t32.5 -10l-47 -158q-5 -20 -13.5 -29.5t-25.5 -9.5q-4 0 -38 6t-75 6q-147 0 -182 -180l-19 -100h295l15 75q38 207 189 313.5t366 106.5q94 0 183.5 -14t129 -25.5t51.5 -17.5l-282 -1450h-277 l250 1276q-32 16 -119 16q-175 0 -213 -198l-16 -82h164l-45 -226h-162l-154 -786h-276l153 786h-295l-153 -786h-277l154 786h-182z" />
</font>
</defs>
</svg>
