<?xml version="1.0" standalone="no"?>
<!DOCTYPE svg PUBLIC "-//W3C//DTD SVG 1.1//EN" "http://www.w3.org/Graphics/SVG/1.1/DTD/svg11.dtd" >
<svg xmlns="http://www.w3.org/2000/svg">
<metadata></metadata>
<defs>
<font id="AmericanBold" horiz-adv-x="1302" >
<font-face units-per-em="2048" ascent="1536" descent="-512" />
<missing-glyph horiz-adv-x="471" />
<glyph unicode="&#xfb01;" horiz-adv-x="1222" d="M51 788v224h182v63q0 432 510 432q47 0 92.5 -6t70 -12t50.5 -14t29 -9l-18 -176q-3 -28 -23 -28q-8 0 -71.5 13t-120.5 13q-113 0 -177.5 -56.5t-64.5 -172.5v-47h569v-1012h-274v788h-295v-788h-277v788h-182z" />
<glyph unicode="&#xfb02;" horiz-adv-x="1222" d="M51 788v224h180v78q0 105 38.5 186t106.5 130.5t156 75t193 25.5q135 0 227 -18t127 -37v-1452h-276v1280q-42 14 -105 14q-92 0 -141 -53t-49 -145v-84h190v-224h-190v-788h-277v788h-180z" />
<glyph horiz-adv-x="0" />
<glyph horiz-adv-x="0" />
<glyph unicode="&#xd;" horiz-adv-x="737" />
<glyph unicode=" "  horiz-adv-x="471" />
<glyph unicode="&#x09;" horiz-adv-x="471" />
<glyph unicode="&#xa0;" horiz-adv-x="471" />
<glyph unicode="!" horiz-adv-x="481" d="M184 1380h297l-45 -974h-213zM209 0v248h248v-248h-248z" />
<glyph unicode="&#x22;" horiz-adv-x="716" d="M102 1380h207l-43 -368h-121zM410 1380h204l-43 -368h-118z" />
<glyph unicode="#" d="M90 379v162h223l37 344h-200v162h219l34 335h215l-36 -335h215l37 335h213l-35 -335h200v-162h-217l-37 -344h199v-162h-217l-41 -379h-213l39 379h-213l-41 -379h-215l41 379h-207zM528 541h215l37 344h-215z" />
<glyph unicode="$" d="M209 963q0 143 88 243t260 133v170h205v-155q148 -3 229 -25l-22 -233q-99 32 -232 32q-239 0 -239 -145q0 -50 35 -82.5t102 -62.5l133 -58q51 -21 92 -43.5t86 -57.5t75.5 -75t50.5 -97t20 -122q0 -140 -81.5 -240.5t-248.5 -140.5v-213h-205v189h-14q-187 0 -322 36 l23 238q123 -49 284 -49q136 0 209.5 40.5t73.5 116.5q0 35 -13.5 62t-43.5 49.5t-60 37.5t-80 36l-127 51q-64 26 -107 52t-85.5 68t-64 103t-21.5 142z" />
<glyph unicode="%" horiz-adv-x="1687" d="M82 1075q0 156 84.5 251t263.5 95q170 0 259 -93.5t89 -252.5q0 -73 -20.5 -134.5t-61.5 -109.5t-109 -75t-157 -27q-168 0 -258 90.5t-90 255.5zM287 1075q0 -87 37 -134.5t106 -47.5t106 48.5t37 133.5q0 83 -36.5 132.5t-106.5 49.5q-71 0 -107 -49.5t-36 -132.5z M328 0h192l826 1382h-193zM909 326q0 75 19.5 136t60 109t109 74.5t159.5 26.5q170 0 259.5 -93.5t89.5 -252.5q0 -100 -35 -176t-115 -123t-199 -47q-168 0 -258 90.5t-90 255.5zM1114 326q0 -87 37 -135t106 -48t106.5 49t37.5 134q0 82 -37 132t-107 50q-71 0 -107 -49.5 t-36 -132.5z" />
<glyph unicode="&#x26;" horiz-adv-x="1533" d="M123 385q0 76 24 140t67.5 111t79.5 75t85 57q-38 40 -58 64t-50 69t-44 95.5t-14 107.5q0 53 25.5 105.5t71.5 96t118 70.5t158 27q169 0 269.5 -76.5t100.5 -204.5q0 -59 -18.5 -112.5t-43.5 -89.5t-63 -71t-62 -51.5t-56 -35.5q185 -175 334 -287q89 154 96 328h264 q0 -145 -49 -271.5t-109 -212.5l224 -167l-181 -181q-160 121 -215 164q-23 -21 -55.5 -42.5t-89 -49.5t-139 -45.5t-175.5 -17.5q-90 0 -175.5 24t-158 71.5t-117 127.5t-44.5 182zM410 389q0 -88 63 -146.5t174 -58.5q121 0 244 101q-71 57 -191.5 163t-173.5 160 q-116 -92 -116 -219zM481 1108q0 -39 17 -80t33.5 -63.5t43.5 -55.5q38 30 63 53t51 65t26 83t-30.5 71.5t-86.5 30.5q-53 0 -85 -29.5t-32 -74.5z" />
<glyph unicode="'" horiz-adv-x="411" d="M102 1380h207l-43 -368h-121z" />
<glyph unicode="(" horiz-adv-x="815" d="M164 399q0 167 33 331t85 290.5t98 212.5t91 147h242q-37 -55 -79.5 -146.5t-87 -219t-73.5 -291.5t-29 -324q0 -161 29 -325t73.5 -291.5t86.5 -219t80 -147.5h-242q-45 61 -91 147t-98 212.5t-85 291t-33 332.5z" />
<glyph unicode=")" horiz-adv-x="815" d="M102 -584q38 55 80.5 147t87 219.5t73 291.5t28.5 325q0 160 -28.5 324t-72.5 291t-87 219.5t-81 146.5h242q34 -46 70.5 -108t80.5 -159t77.5 -202t56 -241t22.5 -271q0 -136 -22.5 -272.5t-56 -241t-77.5 -202t-80.5 -159.5t-70.5 -108h-242z" />
<glyph unicode="*" horiz-adv-x="808" d="M123 1124l43 138l192 -86l-26 204h145l-22 -209l186 91l45 -140l-207 -41l142 -151l-117 -84l-105 182l-98 -182l-117 84l142 155z" />
<glyph unicode="+" d="M127 422v207h385v407h276v-407h388v-207h-388v-397h-276v397h-385z" />
<glyph unicode="," horiz-adv-x="452" d="M102 0v248h248v-127q0 -65 -15 -120.5t-35.5 -91.5t-51.5 -68t-53.5 -48t-51.5 -33l-41 47q107 99 107 193h-107z" />
<glyph unicode="-" horiz-adv-x="878" d="M123 422v207h633v-207h-633z" />
<glyph unicode="." horiz-adv-x="452" d="M102 0v248h248v-248h-248z" />
<glyph unicode="/" horiz-adv-x="913" d="M61 0l529 1380h262l-526 -1380h-265z" />
<glyph unicode="0" d="M123 690q0 120 15 221t53 193.5t97 156.5t151 102t212 38q84 0 156 -25.5t125 -68.5t96 -101.5t71 -123t46.5 -134.5t26.5 -134t8 -124q0 -106 -20 -207t-62.5 -192.5t-103.5 -160.5t-149.5 -109.5t-193.5 -40.5q-528 0 -528 710zM381 690q0 -252 60 -369.5t210 -117.5 q125 0 197 128.5t72 358.5q0 30 -1.5 61t-7.5 81.5t-16.5 94t-31 91t-48 81t-70 55.5t-94.5 22q-79 0 -132.5 -33t-83 -99.5t-42 -151t-12.5 -202.5z" />
<glyph unicode="1" d="M258 1231q106 12 206 61.5t140 108.5h205v-1401h-258v1114q-45 -32 -121.5 -58t-140.5 -32z" />
<glyph unicode="2" d="M217 1315q24 15 58 30.5t122.5 36.5t184.5 21q110 0 198.5 -32.5t144 -88.5t84.5 -128t29 -153q0 -138 -56 -255t-173 -261l-207 -258h481v-227h-843v215q239 262 284 315q135 161 190.5 261t55.5 184q0 89 -59 146t-176 57q-120 0 -252 -82z" />
<glyph unicode="3" d="M236 1325q148 76 382 76q181 0 296.5 -97.5t115.5 -261.5q0 -59 -17 -109.5t-41 -82t-55 -57t-53.5 -36.5t-42.5 -18v-8q25 -5 54 -18.5t64 -40.5t63 -63.5t46.5 -93.5t18.5 -124q0 -188 -140.5 -299.5t-391.5 -111.5q-64 0 -149 8.5t-110 13.5l-18 227q176 -26 246 -26 q125 0 212 52t87 151q0 198 -307 198h-84v211h63q129 0 216 49.5t87 139.5q0 75 -55.5 124.5t-173.5 49.5q-68 0 -137 -22.5t-99 -39.5z" />
<glyph unicode="4" d="M104 559l543 823h332v-829h219v-227h-219v-326h-256v326h-557zM334 553h389v580h-8z" />
<glyph unicode="5" d="M244 2v227q95 -28 221 -28q139 0 234.5 61.5t95.5 163.5q0 106 -83 162.5t-241 56.5q-123 0 -219 -33v768h741v-229h-483v-303q60 10 133 10q102 0 183 -33.5t131 -92t76 -134.5t26 -164q0 -210 -144 -333.5t-415 -123.5q-57 0 -114 5.5t-97.5 12.5t-44.5 7z" />
<glyph unicode="6" d="M162 590q0 199 49.5 355.5t137.5 255.5t205 150.5t255 51.5q115 0 240 -25l-31 -227q-83 29 -182 29q-77 0 -141.5 -21.5t-106.5 -58t-73 -78t-48 -87t-25 -79.5t-10 -61l4 -7q121 91 275 91q187 0 307.5 -117t120.5 -324q0 -61 -16 -122.5t-53 -122.5t-91 -108t-137 -76 t-183 -29q-119 0 -210 39t-144 99t-86.5 144t-45 162.5t-11.5 165.5zM434 424q0 -104 64 -169t161 -65q98 0 162 67t64 167q0 104 -65 168.5t-161 64.5q-95 0 -160 -64t-65 -169z" />
<glyph unicode="7" d="M233 1153v227h834v-215q-123 -245 -244 -587.5t-159 -577.5h-265q49 283 165.5 593t258.5 560h-590z" />
<glyph unicode="8" d="M176 332q0 52 16.5 101t37.5 82t57 68.5t57 51.5t57 40.5t39 26.5q-237 128 -237 330q0 75 29 141.5t83.5 118t141 81.5t194.5 30q118 0 207 -28t139 -75t74.5 -101.5t24.5 -113.5q0 -55 -16 -104t-39 -83.5t-59 -68.5t-66 -55t-70 -45q147 -84 212.5 -170.5t65.5 -200.5 q0 -160 -133 -269t-366 -109q-93 0 -173 21.5t-142 64t-98 111t-36 155.5zM440 354q0 -73 63 -114t159 -41q95 0 147.5 43t52.5 110q0 63 -51.5 118t-175.5 120q-26 -13 -54 -32t-62.5 -49.5t-56.5 -71.5t-22 -83zM457 1055q0 -37 14.5 -67.5t46 -58t59.5 -46t76 -45.5 q24 14 37 22t45.5 32t51 44.5t35 52t16.5 62.5q0 68 -52.5 107.5t-138.5 39.5q-82 0 -136 -41t-54 -102z" />
<glyph unicode="9" d="M162 942q0 61 16 122.5t53 123t90.5 108.5t136.5 76t183 29q117 0 207 -38t144 -98.5t88 -145.5t46.5 -168.5t12.5 -178.5q0 -198 -49.5 -351.5t-137.5 -248.5t-204.5 -143.5t-255.5 -48.5q-130 0 -240 22l31 227q100 -26 182 -26q67 0 124 16.5t96.5 43t72 62.5t51.5 72 t32.5 74t19.5 66t7 51l-6 4q-10 -9 -27.5 -20t-52.5 -29t-86 -29.5t-106 -11.5q-187 0 -307.5 117t-120.5 323zM414 956q0 -104 65.5 -168.5t161.5 -64.5q95 0 160 64t65 169q0 104 -64 169t-161 65q-99 0 -163 -67t-64 -167z" />
<glyph unicode=":" horiz-adv-x="452" d="M102 0h248v248h-248v-248zM102 504v248h248v-248h-248z" />
<glyph unicode=";" horiz-adv-x="466" d="M102 504v248h248v-248h-248zM117 0h106q0 -95 -106 -193l41 -47q29 17 51.5 33t53.5 48t51.5 68t35.5 91.5t15 120.5v127h-248v-248z" />
<glyph unicode="&#x3c;" d="M305 524l522 473l134 -143l-373 -332l373 -327l-132 -140z" />
<glyph unicode="=" d="M125 223v207h1053v-207h-1053zM125 618v207h1053v-207h-1053z" />
<glyph unicode="&#x3e;" d="M340 176l373 328l-373 332l133 143l522 -473l-524 -469z" />
<glyph unicode="?" horiz-adv-x="862" d="M123 1128l27 234q110 39 251 39q99 0 179.5 -24t131.5 -61t86 -84.5t49.5 -93t14.5 -87.5q0 -47 -10.5 -90t-23.5 -71.5t-36.5 -59.5t-37.5 -45t-40 -37t-30 -27q-75 -73 -106 -127.5t-31 -138.5v-49h-250v65q0 70 14.5 127.5t43.5 101.5t46.5 64.5t49.5 50.5 q68 68 93 105.5t25 89.5q0 68 -57.5 114.5t-161.5 46.5q-126 0 -227 -43zM301 0h248v248h-248v-248z" />
<glyph unicode="@" horiz-adv-x="1906" d="M164 651q0 155 68 294.5t183.5 239.5t276 159t338.5 59q144 0 265 -34.5t202 -90.5t138 -128.5t82.5 -146t25.5 -145.5q0 -103 -40.5 -196.5t-105.5 -158.5t-149 -103t-170 -38q-54 0 -93 15.5t-56.5 40t-25 45.5t-7.5 41h-9q-7 -14 -14 -26.5t-27 -34.5t-43.5 -38 t-62.5 -28t-84 -12q-99 0 -164 66t-65 198q0 131 62 235.5t164 160.5t222 56q64 0 130.5 -10t92.5 -18q-65 -355 -75 -412q-1 -6 -6.5 -30.5t-9 -46t-3.5 -34.5q0 -67 76 -67q100 0 180 115t80 299q0 61 -18.5 120.5t-59 114.5t-98 96.5t-141.5 66.5t-183 25 q-144 0 -272 -53.5t-217 -142.5t-141 -206.5t-52 -242.5q0 -271 159.5 -418t430.5 -147q98 0 190.5 28t137.5 58l-25 -143q-1 0 -26 -8.5t-37.5 -12t-46 -11t-62.5 -11t-73.5 -7t-92.5 -3.5q-119 0 -227.5 25.5t-204 79t-166 131.5t-111 189.5t-40.5 245.5zM819 637 q0 -127 96 -127q44 0 77.5 34.5t49 75t23.5 87.5l37 196q-24 12 -70 12q-80 0 -146.5 -77t-66.5 -201z" />
<glyph unicode="A" horiz-adv-x="1372" d="M2 0l524 1380h328l516 -1380h-291l-112 303h-578l-113 -303h-274zM467 510h422l-209 588h-8z" />
<glyph unicode="B" horiz-adv-x="1236" d="M164 0v1380h520q104 0 183.5 -21.5t127 -55.5t77.5 -81t41 -91.5t11 -94.5q0 -63 -21.5 -115.5t-48.5 -82t-64.5 -52.5t-57.5 -30.5t-39 -12.5v-8q27 -5 57.5 -17t68 -38t67 -61t49.5 -90t20 -121q0 -84 -27.5 -155.5t-84 -129.5t-154 -90.5t-227.5 -32.5h-498zM434 223 q41 -6 133 -6q141 0 215 52.5t74 150.5q0 201 -289 201h-133v-398zM434 825h135q262 0 262 183q0 180 -262 180q-31 0 -63 -0.5t-51.5 -1t-20.5 -0.5v-361z" />
<glyph unicode="C" horiz-adv-x="1269" d="M82 690q0 111 26.5 213t85 193.5t143.5 158.5t210 106.5t276 39.5q127 0 227 -27.5t138 -50.5l-78 -250l-22 13q-23 13 -32.5 17t-34.5 16t-45 17.5t-49.5 13t-62 10.5t-67.5 3q-196 0 -304 -123.5t-108 -349.5q0 -221 106 -348t306 -127q161 0 313 90l78 -250 q-27 -13 -67 -27.5t-126 -31t-172 -16.5q-178 0 -320 54.5t-233 150.5t-139.5 224.5t-48.5 280.5z" />
<glyph unicode="D" horiz-adv-x="1431" d="M164 0v1380h495q316 0 503.5 -183t187.5 -507q0 -117 -26 -219.5t-81.5 -189.5t-136 -149t-194.5 -97t-253 -35h-495zM455 231q36 -6 143 -6q221 0 338 121.5t117 343.5q0 227 -120.5 346t-334.5 119q-89 0 -143 -12v-912z" />
<glyph unicode="E" horiz-adv-x="1087" d="M164 0v1380h817v-227h-524v-326h497v-229h-497v-371h528v-227h-821z" />
<glyph unicode="F" horiz-adv-x="1083" d="M164 0v1380h817v-227h-524v-326h497v-229h-497v-598h-293z" />
<glyph unicode="G" horiz-adv-x="1490" d="M82 690q0 336 204 523.5t564 187.5q231 0 393 -58l-45 -249q-35 23 -127.5 46t-208.5 23q-217 0 -347 -125.5t-130 -347.5t131 -348.5t334 -126.5q156 0 205 21v362h-238v229h531v-770q-3 0 -11 -4q-231 -73 -487 -73q-368 0 -568 190.5t-200 519.5z" />
<glyph unicode="H" horiz-adv-x="1466" d="M164 0v1380h293v-553h553v553h293v-1380h-293v598h-553v-598h-293z" />
<glyph unicode="I" horiz-adv-x="620" d="M164 0v1380h293v-1380h-293z" />
<glyph unicode="J" horiz-adv-x="806" d="M20 0v238q69 -23 148 -23q81 0 131.5 49.5t50.5 136.5v979h293v-972q0 -90 -23.5 -165.5t-72 -135.5t-129 -93.5t-187.5 -33.5q-111 0 -211 20z" />
<glyph unicode="K" horiz-adv-x="1273" d="M164 0v1380h282v-641l455 641h324l-480 -665l529 -715h-369l-459 653v-653h-282z" />
<glyph unicode="L" horiz-adv-x="964" d="M164 0v1380h293v-1153h477v-227h-770z" />
<glyph unicode="M" horiz-adv-x="1857" d="M82 0l199 1380h346l297 -968l301 968h344l207 -1380h-279l-145 993h-9l-317 -993h-256l-305 993h-8l-129 -993h-246z" />
<glyph unicode="N" horiz-adv-x="1533" d="M164 0v1380h354l572 -970h10v970h270v-1380h-338l-590 999h-8v-999h-270z" />
<glyph unicode="O" horiz-adv-x="1552" d="M82 690q0 328 188.5 519.5t505.5 191.5q324 0 509 -196t185 -515q0 -211 -81 -370.5t-239 -249.5t-374 -90q-315 0 -504.5 189t-189.5 521zM385 690q0 -224 105 -349.5t286 -125.5q182 0 287.5 125.5t105.5 349.5q0 226 -107 349.5t-286 123.5q-178 0 -284.5 -123 t-106.5 -350z" />
<glyph unicode="P" horiz-adv-x="1193" d="M164 0v1380h450q237 0 367.5 -120.5t130.5 -317.5q0 -219 -133 -337t-373 -118q-30 0 -83 5t-68 8v-500h-291zM455 709q24 -4 92 -4q131 0 199.5 61.5t68.5 167.5t-70.5 167.5t-197.5 61.5q-76 0 -92 -4v-450z" />
<glyph unicode="Q" horiz-adv-x="1552" d="M82 690q0 329 188 520t506 191q215 0 373.5 -91t239.5 -251t81 -369q0 -255 -118.5 -433.5t-335.5 -244.5l74 -248h-259l-63 216q-312 2 -499 191t-187 519zM383 690q0 -198 83 -320.5t230 -148.5l-41 135h258l31 -106q106 50 164.5 163.5t58.5 276.5q0 225 -107 349 t-284 124q-179 0 -286 -123t-107 -350z" />
<glyph unicode="R" horiz-adv-x="1228" d="M164 0v1380h459q234 0 362.5 -109t128.5 -296q0 -79 -22 -144.5t-52.5 -103.5t-68 -65t-63 -37.5t-42.5 -12.5l342 -612h-319l-301 571h-131v-571h-293zM457 782q10 -2 86 -2q125 0 189.5 52t64.5 143q0 89 -66 138.5t-188 49.5q-26 0 -46 -0.5t-29.5 -1t-10.5 -0.5v-379 z" />
<glyph unicode="S" horiz-adv-x="1077" d="M82 993q0 183 137 295.5t397 112.5q159 0 277 -27l-23 -241q-112 34 -241 34q-130 0 -188 -41t-58 -108q0 -54 33.5 -88.5t107.5 -65.5l140 -57q53 -21 95 -42.5t88 -57t77 -77.5t51 -102t20 -131q0 -90 -33 -164t-99.5 -131.5t-177.5 -89.5t-257 -32q-191 0 -332 36 l23 246q135 -51 295 -51q139 0 215 43t76 121q0 69 -49.5 109t-153.5 81l-129 53q-52 21 -90 40.5t-78 51t-65.5 69t-41.5 92.5t-16 122z" />
<glyph unicode="T" horiz-adv-x="1044" d="M31 1163v217h983v-217h-346v-1163h-291v1163h-346z" />
<glyph unicode="U" horiz-adv-x="1470" d="M164 465v915h293v-843q0 -163 66 -242.5t212 -79.5q75 0 131.5 26.5t88 73.5t46.5 102t15 120v843h291v-886q0 -237 -149.5 -375.5t-422.5 -138.5q-143 0 -254.5 39t-179.5 106.5t-102.5 153.5t-34.5 186z" />
<glyph unicode="V" horiz-adv-x="1357" d="M20 1380h314l352 -1095h10l346 1095h295l-473 -1380h-372z" />
<glyph unicode="W" horiz-adv-x="1982" d="M31 1380h280l254 -1069h10l261 1069h342l270 -1036h10l228 1036h266l-334 -1380h-336l-287 1061h-8l-258 -1061h-354z" />
<glyph unicode="X" horiz-adv-x="1314" d="M20 0l457 698l-454 682h348l286 -454l279 454h295l-424 -655l487 -725h-358l-307 500l-293 -500h-316z" />
<glyph unicode="Y" horiz-adv-x="1271" d="M20 1380h322l307 -665l322 665h280l-467 -960v-420h-292v420z" />
<glyph unicode="Z" horiz-adv-x="1159" d="M90 0v182l596 971h-584v227h945v-188l-592 -965h622v-227h-987z" />
<glyph unicode="[" horiz-adv-x="733" d="M164 -614v1994h479v-217h-221v-1562h221v-215h-479z" />
<glyph unicode="\" horiz-adv-x="929" d="M61 1380h269l538 -1380h-274z" />
<glyph unicode="]" horiz-adv-x="724" d="M82 -399h221v1562h-221v217h479v-1994h-479v215z" />
<glyph unicode="^" horiz-adv-x="1030" d="M61 801l320 579h270l318 -579h-277l-186 352l-199 -352h-246z" />
<glyph unicode="_" horiz-adv-x="1040" d="M-4 -362h1048v-111h-1048v111z" />
<glyph unicode="`" horiz-adv-x="548" d="M82 1380h221l164 -301h-125z" />
<glyph unicode="a" horiz-adv-x="1095" d="M61 309q0 330 519 330h118v20q0 77 -58 119.5t-171 42.5q-77 0 -137 -16.5t-93.5 -32.5t-45.5 -16q-19 0 -19 20q-14 133 -18 193q172 65 362 65q226 0 341.5 -100.5t115.5 -290.5v-383q0 -134 18 -260h-239q-15 0 -23.5 7.5t-10.5 15t-3 22.5l-6 86h-9 q-34 -51 -118 -100t-205 -49q-141 0 -229.5 93t-88.5 234zM352 315q0 -61 39 -99t107 -38q92 0 146 75.5t54 188.5v33h-65q-281 0 -281 -160z" />
<glyph unicode="b" horiz-adv-x="1191" d="M143 29v1439h275v-546h8q23 33 97.5 69.5t181.5 36.5q405 0 405 -481q0 -92 -18 -172.5t-60.5 -154t-107 -126t-163.5 -83.5t-224 -31q-192 0 -394 49zM418 209q56 -19 143 -19q55 0 100 16.5t83 53t59.5 104t21.5 160.5q0 51 -8 96.5t-27 91t-59 72.5t-96 27 q-95 0 -156 -85t-61 -210v-307z" />
<glyph unicode="c" horiz-adv-x="995" d="M82 502q0 236 149.5 381t395.5 145q62 0 127.5 -14.5t100 -28.5t58.5 -27q0 -85 -6 -178q0 -28 -22 -28q-7 0 -23 8q-102 51 -203 51q-116 0 -200 -82t-84 -227q0 -137 78.5 -221t205.5 -84q27 0 52 3t46 8.5t35.5 10.5t31 11.5t20.5 7.5q37 16 41 16q18 0 18 -23 q10 -175 10 -184q-148 -67 -286 -67q-113 0 -211.5 34t-173 98t-117.5 164.5t-43 225.5z" />
<glyph unicode="d" horiz-adv-x="1212" d="M82 459q0 258 148.5 413.5t394.5 155.5q93 0 157 -24v464h277v-1159q0 -114 10 -309h-231q-22 0 -25 27l-8 94h-8q-9 -16 -25.5 -35t-49 -45.5t-86 -43.5t-118.5 -17q-98 0 -176 32.5t-125.5 83t-79 116.5t-43.5 127t-12 120zM373 483q0 -130 49.5 -209t146.5 -79 q92 0 152.5 72t60.5 214v310q-70 20 -141 20q-128 0 -198 -86.5t-70 -241.5z" />
<glyph unicode="e" horiz-adv-x="1140" d="M82 498q0 237 142.5 383.5t361.5 146.5q96 0 177 -26.5t134.5 -70.5t91 -101t54 -116.5t16.5 -119.5q0 -80 -15 -143h-671q3 -38 11.5 -71.5t30 -69.5t53.5 -61.5t85.5 -42t122.5 -16.5q102 0 217 50q33 14 37 14q15 0 18 -23q10 -135 10 -198q-39 -19 -119.5 -36 t-187.5 -17q-271 0 -420 134t-149 384zM379 608h389q0 3 1 11t1 12q0 32 -10 64.5t-30.5 62.5t-58.5 48.5t-87 18.5q-41 0 -75.5 -15t-56.5 -38t-38.5 -53t-24 -57.5t-10.5 -53.5z" />
<glyph unicode="f" horiz-adv-x="790" d="M41 791v221h182v78q0 108 33.5 189t95.5 130.5t144 73.5t184 24q80 0 172 -22l-18 -174q0 -29 -21 -29q-4 0 -21 3t-44.5 6t-59.5 3q-190 0 -190 -215v-67h264v-221h-264v-791h-275v791h-182z" />
<glyph unicode="g" horiz-adv-x="1142" d="M82 -203q0 41 14 78t34.5 62t48 46t49.5 32.5t44 19.5q-48 17 -84 61t-36 103q0 112 118 166q-157 88 -157 274q0 183 130.5 286t342.5 103q70 0 163 -18.5t148 -18.5q93 0 207 13v-160q0 -19 -7.5 -26t-27.5 -7h-98q45 -61 45 -143q0 -180 -121 -274.5t-322 -94.5 q-90 0 -122 8q-20 -5 -36 -23.5t-16 -41.5q0 -43 36.5 -60.5t107.5 -17.5h215q184 0 274 -68.5t90 -214.5q0 -170 -160 -281.5t-423 -111.5q-108 0 -191 19t-132.5 49t-80.5 72t-42 82.5t-11 86.5zM358 -162q0 -68 56.5 -109.5t158.5 -41.5q136 0 205.5 47t69.5 112 q0 53 -41 87t-123 34h-184q-41 0 -47 2q-31 -14 -63 -48.5t-32 -82.5zM383 657q0 -81 46.5 -131.5t143.5 -50.5q90 0 140.5 48.5t50.5 133.5q0 88 -50 137.5t-139 49.5q-90 0 -141 -50.5t-51 -136.5z" />
<glyph unicode="h" horiz-adv-x="1189" d="M143 0v1468h275v-569h8q97 135 303 135q160 0 249 -93t89 -230v-711h-276v637q0 86 -38.5 133t-109.5 47q-106 0 -165.5 -91.5t-59.5 -254.5v-471h-275z" />
<glyph unicode="i" horiz-adv-x="563" d="M143 0h275v1012h-275v-1012zM143 1221v276h277v-276h-277z" />
<glyph unicode="j" horiz-adv-x="571" d="M-164 -485q48 -21 178 -21q190 0 302 97t112 282v1139h-276v-1133q0 -82 -43 -126t-119 -44q-33 0 -75 7.5t-44 7.5q-20 0 -23 -27q-10 -145 -12 -182zM150 1219v278h278v-278h-278z" />
<glyph unicode="k" horiz-adv-x="1093" d="M143 0v1468h277v-884l287 428h329l-338 -461l375 -551h-344l-309 514v-514h-277z" />
<glyph unicode="l" horiz-adv-x="563" d="M143 0v1468h277v-1468h-277z" />
<glyph unicode="m" horiz-adv-x="1818" d="M143 1012h228q14 0 21.5 -5.5t8 -10t0.5 -13.5l2 -125h9q7 15 16 29.5t34 42t55 47.5t81 35.5t111 15.5q64 0 117 -18.5t86.5 -49.5t53.5 -58.5t33 -57.5q102 184 314 184q173 0 278 -101.5t105 -281.5v-645h-275v623q0 88 -38 140t-113 52q-87 0 -146 -80.5t-59 -206.5 v-528h-277v623q0 93 -39 142.5t-110 49.5q-93 0 -151 -83.5t-58 -203.5v-528h-274v707q0 77 -13 305z" />
<glyph unicode="n" horiz-adv-x="1206" d="M143 1012h230q26 0 26 -27l2 -127h9q48 84 119 127t188 43q81 0 145 -22t104.5 -58t67.5 -85t38 -99.5t11 -104.5v-659h-274v614q0 97 -42.5 149t-113.5 52q-100 0 -162.5 -91.5t-62.5 -244.5v-479h-274v702q0 90 -11 310z" />
<glyph unicode="o" horiz-adv-x="1196" d="M82 506q0 82 16.5 156t55.5 142.5t97.5 118t147 79.5t199.5 30q127 0 226.5 -40t162.5 -111t95 -166t32 -209q0 -109 -30 -201.5t-90 -166.5t-161.5 -116t-234.5 -42q-241 0 -378.5 138.5t-137.5 387.5zM373 506q0 -44 6 -84.5t22 -82.5t41 -72.5t65.5 -50t92.5 -19.5 q105 0 165 81.5t60 227.5q0 139 -58 224t-167 85q-105 0 -166 -80.5t-61 -228.5z" />
<glyph unicode="p" horiz-adv-x="1212" d="M143 1012h230q13 0 18.5 -6t7.5 -21l9 -106h6q98 149 280 149q98 0 176 -32.5t125.5 -82t79 -115t43.5 -126t12 -119.5q0 -259 -148.5 -416t-395.5 -157q-68 0 -156 22v-475h-276v1175q0 90 -11 310zM430 217q70 -20 141 -20q121 0 195 88t74 239q0 75 -22.5 139.5 t-72 107t-116.5 42.5q-86 0 -142.5 -80t-56.5 -227v-289z" />
<glyph unicode="q" horiz-adv-x="1196" d="M82 461q0 92 18.5 172.5t61.5 154t108.5 126t165.5 83.5t226 31q197 0 391 -47v-1454h-275v582h-8q-13 -16 -32 -32.5t-54.5 -41t-86 -40t-105.5 -15.5q-190 0 -300 132t-110 349zM367 481q0 -50 9 -96t30 -90.5t62 -71t97 -26.5q103 0 158 83.5t55 225.5v293 q-51 20 -143 20q-54 0 -99.5 -17t-84.5 -54t-61.5 -105t-22.5 -162z" />
<glyph unicode="r" horiz-adv-x="837" d="M143 1012h230q13 0 19.5 -4.5t7.5 -9.5t1 -13q0 -11 1 -63t2 -64h8q3 9 9.5 23.5t27.5 42t48.5 49t76.5 38.5t108 17q41 0 81 -8t54 -14q0 -143 -6 -191q0 -22 -18 -22q-15 0 -39 8q-33 10 -84 10q-48 0 -89 -18t-76 -56t-55 -106t-20 -160v-471h-274v727 q0 46 -2.5 103.5t-6 110.5t-4.5 71z" />
<glyph unicode="s" horiz-adv-x="901" d="M82 8l18 197q3 26 25 26q5 0 45 -8q122 -33 207 -33q86 0 127 21t41 70q0 34 -27.5 57t-91.5 49l-70 27q-25 9 -41.5 16t-46 22t-50 30t-45 39.5t-39.5 51.5t-25.5 64.5t-10.5 79.5q0 85 32 146.5t90 96.5t129.5 51.5t158.5 16.5q60 0 124 -8t97 -15t47 -12 q-3 -42 -18 -168q-3 -24 -10 -32.5t-21 -8.5q-9 0 -79 22.5t-136 22.5q-139 0 -139 -86q0 -43 30 -64.5t103 -47.5l108 -41q205 -81 205 -281q0 -73 -27 -130.5t-71 -94t-104.5 -61t-123 -34t-131.5 -9.5q-178 0 -280 28z" />
<glyph unicode="t" horiz-adv-x="804" d="M41 791v221h180v276h277v-276h264v-224h-264v-456q0 -65 32.5 -100t94.5 -35q37 0 75 8t41 8q22 0 25 -27q14 -135 18 -178q-126 -28 -219 -28q-184 0 -264 92.5t-80 263.5v455h-180z" />
<glyph unicode="u" horiz-adv-x="1206" d="M143 348v664h275v-627q0 -88 43.5 -138t113.5 -50q98 0 161 77.5t63 243.5v494h274v-703q0 -109 10 -309h-229q-27 0 -27 27l-2 127h-8q-8 -15 -19.5 -32t-39.5 -44t-61.5 -47.5t-87.5 -35.5t-115 -15q-93 0 -163.5 32.5t-110 87.5t-58.5 117.5t-19 130.5z" />
<glyph unicode="v" horiz-adv-x="1112" d="M20 1012h297l254 -742h9l245 742h267l-379 -1012h-312z" />
<glyph unicode="w" horiz-adv-x="1710" d="M41 1012h274l189 -699h14l193 699h303l217 -699h14l180 699h244l-285 -1012h-335l-197 690h-8l-191 -690h-331z" />
<glyph unicode="x" horiz-adv-x="1095" d="M20 0l377 500l-342 512h316l198 -324l203 324h277l-336 -480l362 -532h-332l-200 328l-228 -328h-295z" />
<glyph unicode="y" horiz-adv-x="1105" d="M0 -485q17 114 31 188q3 25 20 25q12 0 54 -9.5t69 -9.5q34 0 58 5t55 20.5t57.5 52.5t48.5 94l49 121l-426 1010h297l265 -641h8l217 641h282q-309 -823 -403 -1078q-30 -81 -56.5 -138.5t-68 -118.5t-88 -98t-114.5 -61t-150 -24q-84 0 -205 21z" />
<glyph unicode="z" horiz-adv-x="925" d="M61 0v156l443 659h-412v197h766v-146l-448 -669h454v-197h-803z" />
<glyph unicode="{" horiz-adv-x="811" d="M82 303v162q64 2 107.5 18.5t65 46t30 62t8.5 76.5v342q0 190 87 280t245 90h104v-215q-178 0 -178 -178v-289q0 -30 -1.5 -53t-7 -58t-18 -62t-32.5 -54.5t-53 -47t-77 -28.5v-16q52 -11 89.5 -39t56 -59t29 -75t12.5 -72.5t2 -65.5v-285q0 -93 47 -136.5t131 -43.5 v-215h-104q-158 0 -245 90t-87 280v340q0 94 -44 146.5t-167 58.5z" />
<glyph unicode="|" horiz-adv-x="585" d="M164 -614v1994h258v-1994h-258z" />
<glyph unicode="}" horiz-adv-x="827" d="M82 -444q184 0 184 184v293q0 32 1.5 55.5t7 60.5t18.5 65.5t33 57t54 49t79 29.5v12q-45 9 -79 29.5t-54 49.5t-33 57.5t-18.5 65.5t-7 61t-1.5 55v295q0 184 -184 184v221h108q161 0 250.5 -93t89.5 -288v-352q0 -45 8.5 -78.5t31 -63t66.5 -46.5t109 -19v-168 q-65 -2 -109 -18.5t-66.5 -46.5t-31 -63t-8.5 -78v-351q0 -195 -89.5 -288t-250.5 -93h-108v222z" />
<glyph unicode="~" horiz-adv-x="1241" d="M82 555q26 24 45.5 39t62.5 42t96.5 41.5t112.5 14.5q71 0 133.5 -19t101 -42.5t92 -42.5t108.5 -19q100 0 208 97l107 -164q-13 -18 -37 -39t-63 -47t-96 -43t-119 -17q-65 0 -129 19t-106 42.5t-97 42.5t-105 19q-112 0 -198 -86z" />
<glyph unicode="&#xa1;" horiz-adv-x="481" d="M0 -440l39 975h213l45 -975h-297zM25 692v248h247v-248h-247z" />
<glyph unicode="&#xa2;" d="M233 502q0 206 117 345t316 173v166h225v-168q93 -17 176 -57q0 -71 -8 -179q0 -30 -21 -30q-8 0 -37.5 15t-79.5 29.5t-108 14.5q-117 0 -202 -81.5t-85 -227.5q0 -137 79.5 -224.5t207.5 -87.5q59 0 108.5 15t78.5 30t38 15q21 0 21 -21q8 -140 8 -186q-1 0 -17.5 -8 t-29.5 -13t-34 -13t-45.5 -14t-49.5 -11v-166h-225v166q-192 32 -312.5 167.5t-120.5 350.5z" />
<glyph unicode="&#xa3;" d="M238 0v186q110 70 159 141.5t49 180.5q0 60 -4 92h-200v203h161q-1 5 -12.5 38t-19.5 61t-15.5 71t-7.5 80q0 73 26 132t71 99t106.5 67.5t130.5 39.5t145 12q71 0 138 -9.5t92 -17.5l-19 -217l-15 5q-15 4 -30 7t-38 7.5t-50.5 7t-56.5 2.5q-110 0 -161.5 -50 t-51.5 -128q0 -60 41 -207h260v-203h-231q0 -97 -16 -162.5t-42.5 -107.5t-81.5 -103h498v-227h-825z" />
<glyph unicode="&#xa4;" d="M131 150l141 139q-75 115 -75 252t75 252l-141 139l156 158l143 -152q100 59 223 59q119 0 221 -57l142 150l155 -158l-139 -137q78 -115 78 -254t-78 -254l139 -137l-155 -158l-142 149q-102 -57 -221 -57q-121 0 -223 57l-143 -149zM436 541q0 -91 63 -154t154 -63 q90 0 153.5 63.5t63.5 153.5q0 89 -64 153t-153 64q-90 0 -153.5 -63.5t-63.5 -153.5z" />
<glyph unicode="&#xa5;" d="M35 1380h321l308 -665l321 665h281l-361 -737h170v-188h-276v-121h276v-187h-276v-147h-293v147h-299v187h299v121h-299v188h190z" />
<glyph unicode="&#xa6;" horiz-adv-x="591" d="M164 233h264v-899h-264v899zM164 483v897h264v-897h-264z" />
<glyph unicode="&#xa7;" horiz-adv-x="993" d="M20 467q0 40 8.5 77.5t18 64t32.5 56t35 44t44 40t41 32t43 30.5q-57 43 -97.5 110.5t-40.5 143.5q0 155 116.5 245.5t299.5 90.5q164 0 324 -58l-31 -206q-132 61 -246 61q-70 0 -115.5 -33.5t-45.5 -91.5q0 -28 11 -53.5t36.5 -51.5t42.5 -40.5t53 -42.5q11 -8 110 -88 q44 -38 77 -71.5t66 -80t50.5 -102.5t17.5 -117q0 -32 -5 -61.5t-11 -52.5t-21 -48t-23.5 -39.5t-30.5 -36.5t-30 -30.5t-35 -28.5t-32 -24t-33 -23q58 -45 97.5 -111.5t39.5 -142.5q0 -155 -116 -245.5t-299 -90.5q-167 0 -324 57l31 207q132 -61 246 -61q70 0 115.5 33.5 t45.5 91.5q0 28 -11 53.5t-36.5 51.5t-42.5 40.5t-53 42.5q-23 17 -111 88q-95 77 -153 165.5t-58 205.5zM299 494q0 -69 35.5 -126.5t111.5 -117.5l43 -35q103 89 103 184q0 70 -36 126.5t-112 117.5l-43 35q-102 -88 -102 -184z" />
<glyph unicode="&#xa8;" horiz-adv-x="798" d="M82 1163v217h217v-217h-217zM500 1163v217h217v-217h-217z" />
<glyph unicode="&#xa9;" horiz-adv-x="833" d="M102 1087q0 129 92.5 221.5t221.5 92.5q130 0 222.5 -92.5t92.5 -221.5q0 -130 -92 -221.5t-223 -91.5q-129 0 -221.5 91.5t-92.5 221.5zM152 1087q0 -110 77.5 -188t186.5 -78q110 0 188 78t78 188q0 109 -78 187t-188 78q-109 0 -186.5 -78t-77.5 -187zM268 1083 q0 -72 41 -115.5t123 -43.5q30 0 72 14l-6 47q-18 -12 -70 -12t-75 33.5t-23 76.5q0 56 27.5 84.5t70.5 28.5q35 0 70 -14l6 49q-28 14 -72 14q-85 0 -124.5 -46t-39.5 -116z" />
<glyph unicode="&#xaa;" horiz-adv-x="956" d="M164 930q0 215 336 215h78v12q0 51 -38 79t-112 28q-25 0 -47 -2.5t-41 -8t-29 -8.5t-25 -9l-14 -7q-2 -1 -7 -3t-9 -3.5t-8 -1.5q-10 0 -10 12q-13 81 -13 127q118 41 236 41q147 0 221 -65t74 -189v-248q0 -80 12 -170h-156q-22 0 -22 29l-4 55h-8q-19 -33 -74 -64.5 t-135 -31.5q-91 0 -148 60.5t-57 152.5zM186 459v155h580v-155h-580zM352 934q0 -39 25.5 -64.5t68.5 -25.5q60 0 96 49.5t36 122.5v22h-43q-183 0 -183 -104z" />
<glyph unicode="&#xab;" horiz-adv-x="1185" d="M61 483l414 467l148 -129l-293 -338l295 -338l-150 -127zM522 483l414 467l147 -129l-295 -338l295 -338l-147 -127z" />
<glyph unicode="&#xac;" d="M127 422v207h1047v-604h-275v397h-772z" />
<glyph unicode="&#xad;" horiz-adv-x="878" d="M123 422v207h633v-207h-633z" />
<glyph unicode="&#xae;" horiz-adv-x="831" d="M102 1083q0 129 92.5 221.5t221.5 92.5q130 0 221.5 -92.5t91.5 -221.5q0 -131 -91.5 -222t-221.5 -91q-129 0 -221.5 91.5t-92.5 221.5zM152 1083q0 -110 77.5 -188t186.5 -78q110 0 188 78t78 188q0 109 -78 187t-188 78q-109 0 -186.5 -78t-77.5 -187zM324 934v311h92 q53 0 81.5 -25t28.5 -67q0 -60 -61 -84l76 -135h-64l-67 129h-31v-129h-55zM379 1104q4 -2 22 -2q70 0 70 53q0 24 -18.5 37.5t-51.5 13.5q-6 0 -11 -0.5t-7.5 -1t-3.5 -0.5v-100z" />
<glyph unicode="&#xaf;" horiz-adv-x="616" d="M82 1204v176h453v-176h-453z" />
<glyph unicode="&#xb0;" horiz-adv-x="796" d="M123 1124q0 116 80.5 196.5t195.5 80.5q114 0 194.5 -81t80.5 -196q0 -114 -80.5 -194t-194.5 -80q-115 0 -195.5 80t-80.5 194zM260 1124q0 -57 40.5 -98t98.5 -41q57 0 98.5 41t41.5 98q0 58 -41.5 99t-98.5 41q-58 0 -98.5 -40.5t-40.5 -99.5z" />
<glyph unicode="&#xb1;" d="M125 0v207h1051v-207h-1051zM125 618v207h385v326h276v-326h390v-207h-390v-327h-276v327h-385z" />
<glyph unicode="&#xb2;" horiz-adv-x="495" d="M20 1346q75 45 185 45q107 0 167 -58t60 -143q0 -69 -28.5 -127.5t-86.5 -130.5l-104 -129h242v-113h-422v107q121 130 141 157q67 79 95 130t28 94q0 44 -29.5 72t-87.5 28q-61 0 -127 -41z" />
<glyph unicode="&#xb3;" horiz-adv-x="497" d="M20 1352q70 39 193 39q90 0 147.5 -49t57.5 -132q0 -36 -12 -64t-31 -44t-33.5 -24.5t-28.5 -12.5v-8q17 -5 35.5 -15t39.5 -29t34.5 -52t13.5 -74q0 -94 -70.5 -150.5t-195.5 -56.5q-69 0 -129 12l-10 113q84 -12 125 -12q62 0 105.5 25.5t43.5 74.5q0 100 -153 100h-43 v105h32q64 0 108 24.5t44 69.5q0 37 -28 61.5t-87 24.5q-34 0 -70 -10.5t-49 -18.5z" />
<glyph unicode="&#xb4;" horiz-adv-x="548" d="M82 1079l164 301h221l-262 -301h-123z" />
<glyph unicode="&#xb5;" d="M180 -502v1514h275v-619q0 -100 45.5 -148t115.5 -48q101 0 160.5 83.5t59.5 247.5v484h274v-703q0 -109 10 -309h-229q-27 0 -27 27l-2 127h-8q-82 -174 -274 -174q-69 0 -125 18v-500h-275z" />
<glyph unicode="&#xb6;" horiz-adv-x="1290" d="M20 1049q0 226 146.5 342t400.5 116h559v-188h-141v-1698h-186v1698h-156v-1698h-188v1002q-56 3 -113.5 18.5t-116 49.5t-103.5 81.5t-73.5 119.5t-28.5 157z" />
<glyph unicode="&#xb7;" horiz-adv-x="534" d="M143 401v248h248v-248h-248z" />
<glyph unicode="&#xb8;" horiz-adv-x="503" d="M82 -442q79 16 135.5 62.5t56.5 107.5q0 35 -25.5 59.5t-82.5 24.5h-64l56 188h123l-62 -109q45 9 55 9q67 0 107.5 -42.5t40.5 -107.5q0 -93 -88.5 -173.5t-194.5 -96.5z" />
<glyph unicode="&#xb9;" horiz-adv-x="358" d="M0 1305q55 6 104.5 30.5t69.5 55.5h102v-701h-129v557q-23 -17 -60.5 -29.5t-70.5 -15.5z" />
<glyph unicode="&#xba;" horiz-adv-x="997" d="M164 1059q0 66 18 124.5t55.5 109t104.5 79.5t156 29q164 0 250 -95t86 -247q0 -71 -19 -131t-58.5 -108t-105.5 -75.5t-153 -27.5q-156 0 -245 90t-89 252zM209 459v155h579v-155h-579zM352 1059q0 -50 11.5 -92.5t46.5 -76.5t90 -34q68 0 107.5 54t39.5 149 q0 89 -38.5 145t-108.5 56q-68 0 -108 -52.5t-40 -148.5z" />
<glyph unicode="&#xbb;" horiz-adv-x="1185" d="M102 145l295 338l-295 338l150 129l412 -467l-412 -465zM563 145l293 338l-293 338l148 129l413 -467l-413 -465z" />
<glyph unicode="&#xbc;" horiz-adv-x="1413" d="M102 1305q55 6 104 30t70 54h103v-701h-129v557q-59 -38 -131 -45zM190 0h144l823 1380h-141zM764 279l31 -117h278v-162h129v162h109v112h-109v416h-168zM879 274l186 291h8v-291h-194z" />
<glyph unicode="&#xbd;" horiz-adv-x="1433" d="M102 1305q55 6 104 30t70 54h103v-701h-129v557q-59 -38 -131 -45zM190 0h144l823 1380h-141zM899 655q8 6 27 15t63 19.5t92 10.5q109 0 168.5 -57.5t59.5 -142.5q0 -69 -28.5 -127.5t-86.5 -130.5l-104 -129h241v-113h-422v106q122 131 142 158q68 80 96.5 130.5 t28.5 92.5q0 43 -30.5 72t-88.5 29q-61 0 -127 -41z" />
<glyph unicode="&#xbe;" horiz-adv-x="1527" d="M123 1352q0 2 22 11t70 18.5t100 9.5q90 0 147.5 -49t57.5 -132q0 -108 -104 -147v-8q17 -4 35.5 -14t39.5 -29t34.5 -52t13.5 -75q0 -94 -70.5 -149.5t-196.5 -55.5q-79 0 -129 10l-10 115q98 -14 125 -14q63 0 106.5 25.5t43.5 76.5q0 98 -154 98h-43v107h33 q64 0 106.5 24.5t42.5 69.5q0 38 -26.5 62t-85.5 24q-34 0 -69.5 -11.5t-49.5 -19.5zM285 0h143l823 1380h-141zM879 279l32 -117h277v-162h129v162h108v112h-108v416h-166zM995 274l185 291h8v-291h-193z" />
<glyph unicode="&#xbf;" horiz-adv-x="739" d="M0 -156q0 47 10.5 90t23.5 71.5t36.5 59.5t37.5 45t40 37t30 27q75 73 106 127.5t31 138.5v49h250v-65q0 -70 -14.5 -128t-43 -101.5t-46.5 -64t-49 -50.5q-48 -48 -68 -70.5t-35.5 -55.5t-15.5 -69q0 -68 57.5 -114.5t161.5 -46.5q126 0 227 43l-26 -234 q-110 -39 -252 -39q-99 0 -179.5 24t-131.5 61t-86 84.5t-49.5 93t-14.5 87.5zM313 647v248h248v-248h-248z" />
<glyph unicode="&#xc0;" horiz-adv-x="1374" d="M2 0l524 1380h330l516 -1380h-293l-112 305h-578l-115 -305h-272zM358 1808h220l165 -301h-125zM467 512h422l-209 590h-8z" />
<glyph unicode="&#xc1;" horiz-adv-x="1374" d="M2 0l524 1380h330l516 -1380h-293l-112 305h-578l-115 -305h-272zM467 512h422l-209 590h-8zM612 1507l166 301h219l-260 -301h-125z" />
<glyph unicode="&#xc2;" horiz-adv-x="1374" d="M2 0l524 1380h330l516 -1380h-293l-112 305h-578l-115 -305h-272zM393 1507l185 301h204l187 -301h-152l-139 181l-143 -181h-142zM467 512h422l-209 590h-8z" />
<glyph unicode="&#xc3;" horiz-adv-x="1372" d="M2 0l524 1380h328l516 -1380h-291l-112 305h-578l-115 -305h-272zM305 1661q107 129 219 129q52 0 97 -15.5t71.5 -33.5t65.5 -33.5t80 -15.5q80 0 137 69l67 -104q-107 -131 -221 -131q-54 0 -98.5 15.5t-70.5 33.5t-65 33.5t-83 15.5q-31 0 -67 -18t-66 -50zM467 512 h422l-209 590h-8z" />
<glyph unicode="&#xc4;" horiz-adv-x="1374" d="M2 0l524 1380h330l516 -1380h-291l-114 305h-578l-113 -305h-274zM360 1548v217h218v-217h-218zM469 512h420l-207 588h-8zM778 1548v217h217v-217h-217z" />
<glyph unicode="&#xc5;" horiz-adv-x="1374" d="M2 0l524 1380h330l516 -1380h-293l-112 305h-578l-113 -305h-274zM469 512h420l-203 590h-8zM473 1618q0 85 60 144t145 59q84 0 143.5 -59.5t59.5 -143.5t-59.5 -143.5t-143.5 -59.5q-85 0 -145 59t-60 144zM590 1618q0 -37 25.5 -62.5t62.5 -25.5q35 0 60.5 25.5 t25.5 62.5q0 35 -25.5 60.5t-60.5 25.5q-37 0 -62.5 -25.5t-25.5 -60.5z" />
<glyph unicode="&#xc6;" horiz-adv-x="1884" d="M-61 0l903 1380h936v-227h-525v-324h492v-229h-492v-373h529v-227h-821v305h-523l-194 -305h-305zM571 512h390v588h-9z" />
<glyph unicode="&#xc7;" horiz-adv-x="1269" d="M82 690q0 111 26.5 213t85 193.5t143.5 158.5t210 106.5t276 39.5q47 0 94 -5t81.5 -12t70 -17t55.5 -17.5t41 -15.5t23 -9l-78 -250q-5 3 -27.5 15t-37.5 19.5t-45 19.5t-57 18.5t-66 12t-80 5.5q-196 0 -304 -124t-108 -351q0 -221 106 -348t306 -127q111 0 198.5 32.5 t114.5 59.5l78 -250q-28 -14 -65.5 -28t-120 -31t-164.5 -18l-39 -70q20 8 55 8q67 0 107 -42t40 -107q0 -93 -88 -174t-194 -95l-57 76q78 16 135 63t57 107q0 36 -26 60t-83 24h-63l45 154q-155 14 -278 73.5t-203 153.5t-122 216t-42 263z" />
<glyph unicode="&#xc8;" horiz-adv-x="1087" d="M164 0h821v227h-530v371h499v229h-499v326h526v227h-817v-1380zM391 1808h221l164 -301h-123z" />
<glyph unicode="&#xc9;" horiz-adv-x="1087" d="M164 0h821v227h-530v371h499v229h-499v326h526v227h-817v-1380zM492 1507l165 301h220l-261 -301h-124z" />
<glyph unicode="&#xca;" horiz-adv-x="1087" d="M164 0h821v227h-530v371h499v229h-499v326h526v227h-817v-1380zM295 1507l186 301h205l184 -301h-149l-141 181l-142 -181h-143z" />
<glyph unicode="&#xcb;" horiz-adv-x="1087" d="M164 0v1380h817v-227h-526v-326h499v-229h-499v-371h530v-227h-821zM274 1554v218h218v-218h-218zM694 1554v218h217v-218h-217z" />
<glyph unicode="&#xcc;" horiz-adv-x="620" d="M-2 1808h221l164 -301h-125zM166 0h291v1382h-291v-1382z" />
<glyph unicode="&#xcd;" horiz-adv-x="620" d="M164 0h293v1380h-293v-1380zM246 1507l164 301h221l-262 -301h-123z" />
<glyph unicode="&#xce;" horiz-adv-x="620" d="M-8 1575v217h217v-217h-217zM170 0v1380h293v-1380h-293zM412 1575v217h217v-217h-217z" />
<glyph unicode="&#xcf;" horiz-adv-x="620" d="M23 1507l186 301h203l186 -301h-149l-142 181l-143 -181h-141zM164 0h293v1380h-293v-1380z" />
<glyph unicode="&#xd0;" horiz-adv-x="1443" d="M61 600v229h113v551h498q316 0 503 -182t187 -508q0 -116 -26 -218.5t-81 -189.5t-135.5 -149.5t-194.5 -97.5t-253 -35h-498v600h-113zM467 233q40 -8 141 -8q222 0 339.5 122.5t117.5 344.5q0 228 -121 346.5t-336 118.5q-51 0 -141 -10v-318h303v-229h-303v-367z" />
<glyph unicode="&#xd1;" horiz-adv-x="1536" d="M164 0h270v1001h8l590 -1001h340v1380h-270v-968h-10l-574 968h-354v-1380zM410 1681q107 129 219 129q52 0 97 -15.5t71.5 -33.5t65 -33.5t79.5 -15.5q77 0 137 68l68 -105q-110 -129 -221 -129q-54 0 -98.5 15.5t-70.5 34t-65.5 34t-83.5 15.5q-31 0 -67 -18t-66 -50z " />
<glyph unicode="&#xd2;" horiz-adv-x="1554" d="M82 692q0 328 189 519.5t507 191.5q216 0 374.5 -90.5t239.5 -250.5t81 -370q0 -157 -47 -288.5t-135 -225.5t-219.5 -146t-293.5 -52q-156 0 -284.5 48.5t-219.5 138.5t-141.5 224.5t-50.5 300.5zM385 692q0 -225 105 -350t288 -125q180 0 285.5 125.5t105.5 349.5 q0 226 -107 350.5t-284 124.5q-179 0 -286 -123.5t-107 -351.5zM461 1808h219l166 -301h-125z" />
<glyph unicode="&#xd3;" horiz-adv-x="1554" d="M82 692q0 328 189 519.5t507 191.5q216 0 374.5 -90.5t239.5 -250.5t81 -370q0 -157 -47 -288.5t-135 -225.5t-219.5 -146t-293.5 -52q-156 0 -284.5 48.5t-219.5 138.5t-141.5 224.5t-50.5 300.5zM385 692q0 -225 105 -350t288 -125q180 0 285.5 125.5t105.5 349.5 q0 226 -107 350.5t-284 124.5q-179 0 -286 -123.5t-107 -351.5zM713 1507l164 301h221l-260 -301h-125z" />
<glyph unicode="&#xd4;" horiz-adv-x="1554" d="M82 692q0 328 189 519.5t507 191.5q216 0 374.5 -90.5t239.5 -250.5t81 -370q0 -157 -47 -288.5t-135 -225.5t-219.5 -146t-293.5 -52q-156 0 -284.5 48.5t-219.5 138.5t-141.5 224.5t-50.5 300.5zM385 692q0 -225 105.5 -350t287.5 -125q181 0 287 126t106 349 q0 226 -107 350.5t-286 124.5t-286 -123.5t-107 -351.5zM492 1507l186 301h205l184 -301h-149l-142 181l-141 -181h-143z" />
<glyph unicode="&#xd5;" horiz-adv-x="1546" d="M74 692q0 328 189 519.5t507 191.5q215 0 373 -90.5t239.5 -250.5t81.5 -370q0 -211 -81 -371t-239 -250.5t-374 -90.5q-156 0 -284.5 48.5t-219.5 138.5t-141.5 224.5t-50.5 300.5zM377 692q0 -225 105 -350t288 -125q180 0 285.5 125.5t105.5 349.5q0 226 -107 350.5 t-284 124.5q-179 0 -286 -123.5t-107 -351.5zM397 1661q103 131 219 131q52 0 97 -15.5t71.5 -33.5t65.5 -33.5t80 -15.5q78 0 137 67l66 -104q-99 -129 -220 -129q-54 0 -98.5 15.5t-70.5 33.5t-65 33.5t-83 15.5q-31 0 -68 -18.5t-65 -51.5z" />
<glyph unicode="&#xd6;" horiz-adv-x="1554" d="M82 692q0 328 188.5 519.5t505.5 191.5q216 0 375 -90.5t240.5 -250.5t81.5 -370q0 -157 -47 -288.5t-135 -225.5t-220 -146t-295 -52q-315 0 -504.5 190t-189.5 522zM385 692q0 -225 104.5 -350t286.5 -125t287.5 125.5t105.5 349.5q0 226 -107 350.5t-286 124.5 q-178 0 -284.5 -123.5t-106.5 -351.5zM455 1554v218h217v-218h-217zM872 1554v218h218v-218h-218z" />
<glyph unicode="&#xd7;" d="M193 770l196 195l273 -273l274 273l174 -174l-272 -275l266 -266l-195 -195l-268 267l-272 -273l-174 174l272 273z" />
<glyph unicode="&#xd8;" horiz-adv-x="1552" d="M82 690q0 328 188.5 519.5t505.5 191.5q67 0 142 -10l75 219l193 -62l-76 -215q173 -83 266.5 -250.5t93.5 -392.5q0 -211 -81 -370.5t-239 -249.5t-374 -90q-76 0 -143 12l-68 -193l-190 62l65 188q-169 81 -263.5 246.5t-94.5 394.5zM385 690q0 -287 168 -407l311 874 q-58 8 -88 8q-178 0 -284.5 -123.5t-106.5 -351.5zM690 223q54 -8 86 -8q181 0 287 126t106 349q0 144 -44.5 247.5t-125.5 160.5z" />
<glyph unicode="&#xd9;" horiz-adv-x="1472" d="M164 467q0 -100 35 -186.5t103.5 -154.5t180 -107t254.5 -39q272 0 422 139.5t150 376.5v884h-293v-841q0 -65 -15 -120t-46.5 -102t-87 -73.5t-130.5 -26.5q-148 0 -214 79.5t-66 242.5v841h-293v-913zM416 1808h221l164 -301h-125z" />
<glyph unicode="&#xda;" horiz-adv-x="1472" d="M164 467q0 -79 21.5 -150.5t67 -133.5t111.5 -107t161 -70.5t210 -25.5q273 0 423.5 139.5t150.5 376.5v884h-293v-841q0 -65 -15 -120t-46.5 -102t-88 -73.5t-131.5 -26.5q-147 0 -213.5 79.5t-66.5 242.5v841h-291v-913zM672 1507l164 301h221l-262 -301h-123z" />
<glyph unicode="&#xdb;" horiz-adv-x="1470" d="M164 467q0 -79 21.5 -150.5t67 -133.5t111.5 -107t161 -70.5t210 -25.5q272 0 422 139.5t150 376.5v884h-291v-841q0 -65 -15 -120t-46.5 -102t-88 -73.5t-131.5 -26.5q-148 0 -214 79.5t-66 242.5v841h-291v-913zM451 1507l186 301h203l186 -301h-149l-142 181 l-143 -181h-141z" />
<glyph unicode="&#xdc;" horiz-adv-x="1470" d="M164 467v913h291v-841q0 -163 66 -242.5t214 -79.5q75 0 131.5 26.5t88 73.5t46.5 102t15 120v841h291v-884q0 -237 -150 -376.5t-422 -139.5q-115 0 -210 25.5t-161 70.5t-111.5 107t-67 133.5t-21.5 150.5zM424 1556v218h217v-218h-217zM842 1556v218h219v-218h-219z " />
<glyph unicode="&#xdd;" horiz-adv-x="1273" d="M20 1382l472 -962v-420h292v420l469 962h-280l-324 -665l-305 665h-324zM489 1507l166 301h219l-260 -301h-125z" />
<glyph unicode="&#xde;" horiz-adv-x="1185" d="M164 0v1380h291v-250h159q237 0 368.5 -120.5t131.5 -317.5q0 -220 -133.5 -337t-374.5 -117q-61 0 -151 10v-248h-291zM455 457q14 -2 92 -2q132 0 201 61t69 168q0 105 -71 167t-199 62q-76 0 -92 -4v-452z" />
<glyph unicode="&#xdf;" horiz-adv-x="1312" d="M143 0v991q0 118 30.5 209.5t80.5 148t121 93t145 51t160 14.5q88 0 161 -18.5t121.5 -48.5t82 -70t48.5 -83t15 -87q0 -69 -25.5 -123t-62 -86.5t-73 -60t-62 -59t-25.5 -68.5q0 -50 29.5 -84t81.5 -68l65 -43q97 -56 146 -134.5t49 -160.5t-36 -147.5t-96.5 -105 t-134.5 -60t-155 -20.5q-132 0 -242 20q0 20 1 99t1 98q0 26 19 26q6 0 41 -10q89 -27 143 -27q90 0 138 32.5t48 84.5q0 41 -25 70.5t-79 62.5l-119 72q-155 99 -155 268q0 58 19.5 105.5t49 76t63.5 55.5t63.5 47t49 47.5t19.5 59.5q0 55 -50 92t-141 37q-111 0 -173 -72 t-62 -194v-1030h-275z" />
<glyph unicode="&#xe0;" horiz-adv-x="1093" d="M61 309q0 330 519 330h118v20q0 77 -58 119.5t-171 42.5q-77 0 -137 -16.5t-93.5 -32.5t-45.5 -16q-19 0 -19 20q-14 133 -18 193q172 65 362 65q226 0 341.5 -100.5t115.5 -290.5v-383q0 -134 18 -260h-239q-15 0 -23.5 7.5t-10.5 15t-3 22.5l-6 86h-9 q-34 -51 -118 -100t-205 -49q-141 0 -229.5 93t-88.5 234zM188 1520h222l163 -301h-122zM352 315q0 -61 39 -99t107 -38q92 0 146 75.5t54 188.5v33h-65q-281 0 -281 -160z" />
<glyph unicode="&#xe1;" horiz-adv-x="1093" d="M61 309q0 330 519 330h118v20q0 77 -58 119.5t-171 42.5q-77 0 -137 -16.5t-93.5 -32.5t-45.5 -16q-19 0 -19 20q-14 133 -18 193q172 65 362 65q226 0 341.5 -100.5t115.5 -290.5v-383q0 -134 18 -260h-239q-15 0 -23.5 7.5t-10.5 15t-3 22.5l-6 86h-9 q-34 -51 -118 -100t-205 -49q-141 0 -229.5 93t-88.5 234zM352 315q0 -61 39 -99t107 -38q92 0 146 75.5t54 188.5v33h-65q-281 0 -281 -160zM438 1219l166 301h219l-260 -301h-125z" />
<glyph unicode="&#xe2;" horiz-adv-x="1093" d="M61 309q0 330 519 330h118v20q0 77 -58 119.5t-171 42.5q-77 0 -137 -16.5t-93.5 -32.5t-45.5 -16q-19 0 -19 20q-14 133 -18 193q172 65 362 65q226 0 341.5 -100.5t115.5 -290.5v-383q0 -134 18 -260h-239q-15 0 -23.5 7.5t-10.5 15t-3 22.5l-6 86h-9 q-34 -51 -118 -100t-205 -49q-141 0 -229.5 93t-88.5 234zM229 1219l185 301h204l185 -301h-150l-139 180l-143 -180h-142zM352 315q0 -61 39 -99t107 -38q92 0 146 75.5t54 188.5v33h-65q-281 0 -281 -160z" />
<glyph unicode="&#xe3;" horiz-adv-x="1093" d="M61 309q0 330 519 330h118v20q0 77 -58 119.5t-171 42.5q-77 0 -137 -16.5t-93.5 -32.5t-45.5 -16q-19 0 -19 20q-14 133 -18 193q172 65 362 65q226 0 341.5 -100.5t115.5 -290.5v-383q0 -134 18 -260h-239q-15 0 -23.5 7.5t-10.5 15t-3 22.5l-6 86h-9 q-34 -51 -118 -100t-205 -49q-141 0 -229.5 93t-88.5 234zM141 1368q107 129 219 129q52 0 97 -15.5t71.5 -33.5t65.5 -33.5t80 -15.5q76 0 137 69l66 -104q-107 -131 -220 -131q-54 0 -98.5 15.5t-70.5 33.5t-65 33.5t-83 15.5q-32 0 -69 -17t-64 -50zM352 315 q0 -61 39 -99t107 -38q92 0 146 75.5t54 188.5v33h-65q-281 0 -281 -160z" />
<glyph unicode="&#xe4;" horiz-adv-x="1093" d="M61 309q0 330 519 330h118v20q0 77 -58 119.5t-171 42.5q-77 0 -137 -16.5t-93.5 -32.5t-45.5 -16q-19 0 -19 20q-14 133 -18 193q172 65 362 65q226 0 341.5 -100.5t115.5 -290.5v-383q0 -134 18 -260h-239q-15 0 -23.5 7.5t-10.5 15t-3 22.5l-6 86h-9 q-34 -51 -118 -100t-205 -49q-141 0 -229.5 93t-88.5 234zM197 1260v217h217v-217h-217zM352 315q0 -61 39 -99t107 -38q92 0 146 75.5t54 188.5v33h-65q-281 0 -281 -160zM614 1260v217h217v-217h-217z" />
<glyph unicode="&#xe5;" horiz-adv-x="1093" d="M61 309q0 330 519 330h118v20q0 77 -58 119.5t-171 42.5q-77 0 -137 -16.5t-93.5 -32.5t-45.5 -16q-19 0 -19 20q-14 133 -18 193q172 65 362 65q226 0 341.5 -100.5t115.5 -290.5v-383q0 -134 18 -260h-239q-15 0 -23.5 7.5t-10.5 15t-3 22.5l-6 86h-9 q-34 -51 -118 -100t-205 -49q-141 0 -229.5 93t-88.5 234zM311 1333q0 83 59 142t142 59t142 -59t59 -142t-59 -141.5t-142 -58.5t-142 58.5t-59 141.5zM352 315q0 -61 39 -99t107 -38q92 0 146 75.5t54 188.5v33h-65q-281 0 -281 -160zM426 1333q0 -35 25.5 -60.5 t60.5 -25.5t60.5 25.5t25.5 60.5t-25.5 60.5t-60.5 25.5t-60.5 -25.5t-25.5 -60.5z" />
<glyph unicode="&#xe6;" horiz-adv-x="1748" d="M61 307q0 78 29.5 136.5t76.5 94t116.5 57.5t140.5 30t156 8h116v20q0 77 -57.5 120.5t-171.5 43.5q-76 0 -137 -16.5t-95 -33.5t-45 -17q-7 0 -12 5t-6.5 9.5t-1.5 7.5q-4 26 -9 96t-5 97q26 10 70 23t127.5 26.5t162.5 13.5q241 0 354 -110q134 110 326 110 q96 0 176.5 -26.5t134 -70.5t90.5 -101t53.5 -116.5t16.5 -119.5q0 -93 -12 -143h-672q2 -37 10.5 -70.5t30 -69.5t53.5 -62t85.5 -42.5t121.5 -16.5q31 0 62 4t56.5 11.5t43.5 13.5t35 13t20 8q32 16 39 16q16 0 19 -23q10 -145 10 -198q-153 -55 -309 -55q-338 0 -478 206 h-8q-13 -19 -30 -40t-53.5 -52.5t-78 -55t-104.5 -41t-131 -17.5q-141 0 -228.5 93t-87.5 234zM350 315q0 -62 39.5 -100.5t108.5 -38.5q91 0 144.5 74t53.5 186v35h-63q-283 0 -283 -156zM987 610h391v23q0 32 -9.5 64t-30 62.5t-58 49t-86.5 18.5q-51 0 -91 -22t-63 -57 t-36 -69.5t-17 -68.5z" />
<glyph unicode="&#xe7;" horiz-adv-x="995" d="M82 502q0 236 149.5 381t395.5 145q62 0 127.5 -14.5t100 -28.5t58.5 -27q0 -85 -6 -178q0 -28 -22 -28q-7 0 -23 8q-102 51 -203 51q-116 0 -200 -82t-84 -227q0 -137 78.5 -221t205.5 -84q27 0 52 3t46 8.5t35.5 10.5t31 11.5t20.5 7.5q37 16 41 16q18 0 18 -23 q10 -175 10 -184q-126 -56 -235 -65l-62 -109q40 8 56 8q67 0 107 -42t40 -107q0 -93 -88 -174.5t-194 -96.5l-58 78q79 16 136 62.5t57 107.5q0 35 -26 59.5t-83 24.5h-63l55 187q-209 18 -341 155t-132 367z" />
<glyph unicode="&#xe8;" horiz-adv-x="1140" d="M82 498q0 237 142.5 383.5t361.5 146.5q96 0 177 -26.5t134.5 -70.5t91 -101t54 -116.5t16.5 -119.5q0 -80 -15 -143h-671q3 -38 11.5 -71.5t30 -69.5t53.5 -61.5t85.5 -42t122.5 -16.5q102 0 217 50q33 14 37 14q15 0 18 -23q10 -135 10 -198q-39 -19 -119.5 -36 t-187.5 -17q-271 0 -420 134t-149 384zM254 1520h221l164 -301h-123zM379 608h389q0 3 1 11t1 12q0 32 -10 64.5t-30.5 62.5t-58.5 48.5t-87 18.5q-41 0 -75.5 -15t-56.5 -38t-38.5 -53t-24 -57.5t-10.5 -53.5z" />
<glyph unicode="&#xe9;" horiz-adv-x="1140" d="M82 498q0 237 142.5 383.5t361.5 146.5q96 0 177 -26.5t134.5 -70.5t91 -101t54 -116.5t16.5 -119.5q0 -80 -15 -143h-671q3 -38 11.5 -71.5t30 -69.5t53.5 -61.5t85.5 -42t122.5 -16.5q102 0 217 50q33 14 37 14q15 0 18 -23q10 -135 10 -198q-39 -19 -119.5 -36 t-187.5 -17q-271 0 -420 134t-149 384zM379 608h389q0 3 1 11t1 12q0 32 -10 64.5t-30.5 62.5t-58.5 48.5t-87 18.5q-41 0 -75.5 -15t-56.5 -38t-38.5 -53t-24 -57.5t-10.5 -53.5zM512 1219l164 301h221l-260 -301h-125z" />
<glyph unicode="&#xea;" horiz-adv-x="1140" d="M82 498q0 237 142.5 383.5t361.5 146.5q96 0 177 -26.5t134.5 -70.5t91 -101t54 -116.5t16.5 -119.5q0 -80 -15 -143h-671q3 -38 11.5 -71.5t30 -69.5t53.5 -61.5t85.5 -42t122.5 -16.5q102 0 217 50q33 14 37 14q15 0 18 -23q10 -135 10 -198q-39 -19 -119.5 -36 t-187.5 -17q-271 0 -420 134t-149 384zM301 1219l186 301h203l187 -301h-150l-141 180l-142 -180h-143zM379 608h389q0 3 1 11t1 12q0 32 -10 64.5t-30.5 62.5t-58.5 48.5t-87 18.5q-41 0 -75.5 -15t-56.5 -38t-38.5 -53t-24 -57.5t-10.5 -53.5z" />
<glyph unicode="&#xeb;" horiz-adv-x="1140" d="M82 498q0 237 142.5 383.5t361.5 146.5q96 0 177 -26.5t134.5 -70.5t91 -101t54 -116.5t16.5 -119.5q0 -80 -15 -143h-671q3 -38 11.5 -71.5t30 -69.5t53.5 -61.5t85.5 -42t122.5 -16.5q102 0 217 50q33 14 37 14q15 0 18 -23q10 -135 10 -198q-39 -19 -119.5 -36 t-187.5 -17q-271 0 -420 134t-149 384zM274 1262v217h218v-217h-218zM379 608h389q0 3 1 11t1 12q0 32 -10 64.5t-30.5 62.5t-58.5 48.5t-87 18.5q-41 0 -75.5 -15t-56.5 -38t-38.5 -53t-24 -57.5t-10.5 -53.5zM692 1262v217h219v-217h-219z" />
<glyph unicode="&#xec;" horiz-adv-x="563" d="M-45 1520h221l164 -301h-123zM143 0v1012h275v-1012h-275z" />
<glyph unicode="&#xed;" horiz-adv-x="563" d="M143 0v1012h275v-1012h-275zM211 1219l164 301h221l-262 -301h-123z" />
<glyph unicode="&#xee;" horiz-adv-x="563" d="M-8 1219l186 301h205l184 -301h-149l-142 180l-141 -180h-143zM143 0v1012h275v-1012h-275z" />
<glyph unicode="&#xef;" horiz-adv-x="563" d="M-37 1262v217h217v-217h-217zM143 0v1012h275v-1012h-275zM383 1262v217h217v-217h-217z" />
<glyph unicode="&#xf0;" horiz-adv-x="1193" d="M82 479q0 75 16 144t54.5 134.5t96.5 114t148 78t203 29.5q131 0 221 -47l4 6q-14 51 -46 113.5t-62 103.5l-154 -94l-80 125l129 80l-34 26q-34 25 -54 37q-14 8 -14 25q0 14 18 43q44 66 88 114q100 -51 179 -120l145 96l86 -127l-127 -82q213 -271 213 -754 q0 -85 -14.5 -160t-51 -147t-93.5 -123t-147 -82.5t-206 -31.5q-247 0 -382.5 134t-135.5 365zM373 479q0 -51 11.5 -99t35.5 -93.5t70.5 -73t109.5 -27.5q104 0 165.5 82t61.5 211q0 130 -58 212.5t-169 82.5q-104 0 -165.5 -79t-61.5 -216z" />
<glyph unicode="&#xf1;" horiz-adv-x="1208" d="M143 1012q13 -169 13 -307v-705h274v485q0 153 62.5 243.5t160.5 90.5q72 0 115 -51t43 -147v-621h274v666q0 54 -11 104t-38.5 99t-68 85t-104.5 58t-144 22q-116 0 -188.5 -45.5t-120.5 -130.5h-9q0 102 -2 127q0 27 -26 27h-230zM254 1368q107 129 219 129 q52 0 97 -15.5t71.5 -33.5t65 -33.5t79.5 -15.5q77 0 138 69l65 -104q-101 -131 -219 -131q-54 0 -98.5 15.5t-70.5 33.5t-65 33.5t-83 15.5q-32 0 -69.5 -17t-64.5 -50z" />
<glyph unicode="&#xf2;" horiz-adv-x="1196" d="M82 506q0 82 16.5 156t55.5 142.5t97.5 118t147 79.5t199.5 30q127 0 226.5 -40t162.5 -111t95 -166t32 -209q0 -109 -30 -201.5t-90 -166.5t-161.5 -116t-234.5 -42q-241 0 -378.5 138.5t-137.5 387.5zM270 1520h219l164 -301h-123zM373 506q0 -44 6 -84.5t22 -82.5 t41 -72.5t65.5 -50t92.5 -19.5q105 0 165 81.5t60 227.5q0 139 -58 224t-167 85q-105 0 -166 -80.5t-61 -228.5z" />
<glyph unicode="&#xf3;" horiz-adv-x="1196" d="M82 506q0 82 16.5 156t55.5 142.5t97.5 118t147 79.5t199.5 30q127 0 226.5 -40t162.5 -111t95 -166t32 -209q0 -109 -30 -201.5t-90 -166.5t-161.5 -116t-234.5 -42q-241 0 -378.5 138.5t-137.5 387.5zM373 506q0 -44 6 -84.5t22 -82.5t41 -72.5t65.5 -50t92.5 -19.5 q105 0 165 81.5t60 227.5q0 139 -58 224t-167 85q-105 0 -166 -80.5t-61 -228.5zM526 1219l164 301h221l-260 -301h-125z" />
<glyph unicode="&#xf4;" horiz-adv-x="1196" d="M82 506q0 82 16.5 156t55.5 142.5t97.5 118t147 79.5t199.5 30q127 0 226.5 -40t162.5 -111t95 -166t32 -209q0 -109 -30 -201.5t-90 -166.5t-161.5 -116t-234.5 -42q-241 0 -378.5 138.5t-137.5 387.5zM311 1219l187 301h202l187 -301h-152l-139 180l-143 -180h-142z M373 506q0 -44 6 -84.5t22 -82.5t41 -72.5t65.5 -50t92.5 -19.5q105 0 165 81.5t60 227.5q0 139 -58 224t-167 85q-105 0 -166 -80.5t-61 -228.5z" />
<glyph unicode="&#xf5;" horiz-adv-x="1196" d="M82 506q0 82 16.5 156t55.5 142.5t97.5 118t147 79.5t199.5 30q127 0 226.5 -40t162.5 -111t95 -166t32 -209q0 -109 -30 -201.5t-90 -166.5t-161.5 -116t-234.5 -42q-241 0 -378.5 138.5t-137.5 387.5zM221 1366q103 131 221 131q52 0 96 -15.5t71 -33.5t65.5 -33.5 t79.5 -15.5q78 0 137 67l65 -104q-99 -129 -219 -129q-54 0 -98.5 15.5t-70 33.5t-64.5 33.5t-82 15.5q-75 0 -135 -69zM373 506q0 -44 6 -84.5t22 -82.5t41 -72.5t65.5 -50t92.5 -19.5q105 0 165 81.5t60 227.5q0 139 -58 224t-167 85q-105 0 -166 -80.5t-61 -228.5z" />
<glyph unicode="&#xf6;" horiz-adv-x="1196" d="M82 506q0 82 16.5 156t55.5 142.5t97.5 118t147 79.5t199.5 30q127 0 226.5 -40t162.5 -111t95 -166t32 -209q0 -109 -30 -201.5t-90 -166.5t-161.5 -116t-234.5 -42q-241 0 -378.5 138.5t-137.5 387.5zM281 1260v217h215v-217h-215zM373 506q0 -44 6 -84.5t22 -82.5 t41 -72.5t65.5 -50t92.5 -19.5q105 0 165 81.5t60 227.5q0 139 -58 224t-167 85q-105 0 -166 -80.5t-61 -228.5zM698 1260v217h217v-217h-217z" />
<glyph unicode="&#xf7;" d="M127 422v207h1047v-207h-1047zM524 33v248h248v-248h-248zM524 778v248h248v-248h-248z" />
<glyph unicode="&#xf8;" horiz-adv-x="1198" d="M82 506q0 82 16.5 156t55.5 143t97 119t147 80t200 30q38 0 100 -8l78 201l158 -49l-78 -199q128 -62 194 -186t66 -287q0 -86 -18.5 -162.5t-58.5 -144t-99.5 -115.5t-147 -76t-194.5 -28q-59 0 -121 10l-82 -207l-149 63l76 197q-115 62 -177.5 180.5t-62.5 282.5z M373 506q0 -131 51 -211l201 518q-8 2 -25 2q-105 0 -166 -80.5t-61 -228.5zM547 203q24 -6 53 -6q105 0 166 82t61 227q0 156 -71 239z" />
<glyph unicode="&#xf9;" horiz-adv-x="1206" d="M143 348q0 -68 19 -130.5t58.5 -117.5t110 -87.5t163.5 -32.5q61 0 115 15t87.5 35.5t61.5 47.5t39.5 44t19.5 32h8q2 -102 2 -127q0 -27 27 -27h229q-10 200 -10 309v703h-274v-494q0 -166 -63 -243.5t-161 -77.5q-70 0 -113.5 50t-43.5 138v627h-275v-664zM324 1520 h219l166 -301h-125z" />
<glyph unicode="&#xfa;" horiz-adv-x="1206" d="M143 348q0 -68 19 -130.5t58.5 -117.5t110 -87.5t163.5 -32.5q61 0 115 15t87.5 35.5t61.5 47.5t39.5 44t19.5 32h8q2 -102 2 -127q0 -27 27 -27h229q-10 200 -10 309v703h-274v-494q0 -166 -63 -243.5t-161 -77.5q-70 0 -113.5 50t-43.5 138v627h-275v-664zM524 1219 l166 301h219l-260 -301h-125z" />
<glyph unicode="&#xfb;" horiz-adv-x="1206" d="M143 348q0 -68 19 -130.5t58.5 -117.5t110 -87.5t163.5 -32.5q61 0 115 15t87.5 35.5t61.5 47.5t39.5 44t19.5 32h8q2 -102 2 -127q0 -27 27 -27h229q-10 200 -10 309v703h-274v-494q0 -166 -63 -243.5t-161 -77.5q-70 0 -113.5 50t-43.5 138v627h-275v-664zM311 1219 l187 301h202l187 -301h-150l-141 180l-141 -180h-144z" />
<glyph unicode="&#xfc;" horiz-adv-x="1206" d="M143 348q0 -68 19 -130.5t58.5 -117.5t110 -87.5t163.5 -32.5q61 0 115 15t87.5 35.5t61.5 47.5t39.5 44t19.5 32h8q2 -102 2 -127q0 -27 27 -27h229q-10 200 -10 309v703h-274v-494q0 -166 -63 -243.5t-161 -77.5q-70 0 -113.5 50t-43.5 138v627h-275v-664zM285 1262 v217h217v-217h-217zM705 1262h217v217h-217v-217z" />
<glyph unicode="&#xfd;" horiz-adv-x="1105" d="M0 -485q80 -21 205 -21q82 0 149.5 24t114.5 61.5t88.5 98t68 118t56.5 138.5l403 1078h-282l-225 -641l-265 641h-297l424 -1010q-20 -51 -47 -121q-23 -57 -49.5 -94t-57 -52.5t-54.5 -20.5t-58 -5q-27 0 -69 9.5t-54 9.5q-16 0 -22 -25zM502 1219l164 301h221 l-262 -301h-123z" />
<glyph unicode="&#xfe;" horiz-adv-x="1202" d="M143 -473v1853h277v-475h8q95 123 256 123q98 0 176 -32.5t125.5 -83t79 -116.5t43.5 -127t12 -120q0 -258 -149 -413.5t-396 -155.5q-91 0 -155 24v-477h-277zM420 217q47 -20 141 -20q121 0 194.5 88t73.5 239q0 75 -22.5 139.5t-72 107t-116.5 42.5q-86 0 -142 -79.5 t-56 -227.5v-289z" />
<glyph unicode="&#xff;" horiz-adv-x="1105" d="M0 -485q80 -21 205 -21q82 0 149.5 24t114.5 61.5t88 98t67.5 118.5t55.5 138l405 1078h-282l-221 -641h-9l-262 641h-295l424 -1010q-20 -51 -47 -121q-22 -57 -49.5 -94t-58 -52.5t-54.5 -20.5t-57 -5q-27 0 -70 9.5t-55 9.5q-14 0 -20 -25zM256 1260v215h217v-215 h-217zM674 1260h217v215h-217v-215z" />
<glyph unicode="&#x152;" horiz-adv-x="2091" d="M82 690q0 329 188 520t506 191q229 0 391 -101v80h818v-227h-525v-326h492v-229h-492v-371h529v-227h-822v80q-165 -100 -391 -100q-316 0 -505 188.5t-189 521.5zM383 690q0 -224 105.5 -349.5t287.5 -125.5q180 0 285.5 126.5t105.5 348.5q0 226 -107 350.5t-284 124.5 q-179 0 -286 -123.5t-107 -351.5z" />
<glyph unicode="&#x153;" horiz-adv-x="1880" d="M82 502q0 82 16.5 156t55.5 142.5t97.5 118t147 79.5t199.5 30q239 0 377 -135q138 135 352 135q96 0 176 -26.5t133.5 -70.5t91 -101t54 -116.5t16.5 -119.5q0 -68 -12 -143h-672q14 -130 95 -195.5t206 -65.5q31 0 62 4t56.5 11.5t43.5 13.5t35 13t20 8q28 16 39 16 q16 0 19 -23q10 -145 10 -198q-153 -55 -309 -55q-268 0 -418 135q-132 -135 -375 -135q-240 0 -378 137t-138 385zM373 502q0 -43 6 -83t22 -81.5t41 -72t65.5 -49.5t92.5 -19q105 0 166 80t61 225q0 138 -59 223.5t-168 85.5q-105 0 -166 -80.5t-61 -228.5zM1118 610h391 v23q0 32 -10 64.5t-30.5 62.5t-58.5 48.5t-87 18.5q-51 0 -90.5 -22t-62.5 -57t-35.5 -69.5t-16.5 -68.5z" />
<glyph unicode="&#x178;" horiz-adv-x="1271" d="M20 1380h322l307 -665l322 665h280l-467 -960v-420h-292v420zM354 1548v217h217v-217h-217zM772 1548v217h217v-217h-217z" />
<glyph unicode="&#x2c6;" horiz-adv-x="737" d="M82 1079l184 301h205l184 -301h-149l-141 181l-142 -181h-141z" />
<glyph unicode="&#x2dc;" horiz-adv-x="899" d="M82 1272q107 129 219 129q52 0 97 -15.5t71.5 -33.5t65 -33.5t79.5 -15.5q75 0 138 67l65 -102q-101 -131 -219 -131q-54 0 -98.5 15.5t-70.5 33.5t-65 33.5t-83 15.5q-31 0 -68 -18t-66 -50z" />
<glyph unicode="&#x2000;" horiz-adv-x="910" />
<glyph unicode="&#x2001;" horiz-adv-x="1821" />
<glyph unicode="&#x2002;" horiz-adv-x="910" />
<glyph unicode="&#x2003;" horiz-adv-x="1821" />
<glyph unicode="&#x2004;" horiz-adv-x="607" />
<glyph unicode="&#x2005;" horiz-adv-x="455" />
<glyph unicode="&#x2006;" horiz-adv-x="303" />
<glyph unicode="&#x2007;" horiz-adv-x="303" />
<glyph unicode="&#x2008;" horiz-adv-x="227" />
<glyph unicode="&#x2009;" horiz-adv-x="364" />
<glyph unicode="&#x200a;" horiz-adv-x="101" />
<glyph unicode="&#x2010;" horiz-adv-x="878" d="M123 422v207h633v-207h-633z" />
<glyph unicode="&#x2011;" horiz-adv-x="878" d="M123 422v207h633v-207h-633z" />
<glyph unicode="&#x2012;" horiz-adv-x="878" d="M123 422v207h633v-207h-633z" />
<glyph unicode="&#x2013;" horiz-adv-x="1140" d="M123 422v207h895v-207h-895z" />
<glyph unicode="&#x2014;" horiz-adv-x="1505" d="M123 422v207h1259v-207h-1259z" />
<glyph unicode="&#x2018;" horiz-adv-x="432" d="M82 915v127q0 65 15 120.5t35 91t51 67.5t53 47.5t51 32.5l43 -45q-109 -100 -109 -193h109v-248h-248z" />
<glyph unicode="&#x2019;" horiz-adv-x="432" d="M102 940q33 31 52.5 54t38 61.5t18.5 77.5h-109v247h248v-127q0 -65 -15 -120.5t-35 -90.5t-52 -67t-53.5 -47t-51.5 -33z" />
<glyph unicode="&#x201a;" horiz-adv-x="452" d="M102 0v246h248v-127q0 -79 -20 -143t-55.5 -106t-64 -65t-65.5 -45l-43 47q109 100 109 193h-109z" />
<glyph unicode="&#x201c;" horiz-adv-x="798" d="M82 915v127q0 80 20 143.5t56.5 106t64.5 64.5t66 45l41 -45q-107 -99 -107 -193h107v-248h-248zM449 915v127q0 65 15 120.5t35 91t51.5 67.5t52.5 47t50 33l43 -45q-49 -45 -78.5 -91t-29.5 -102h108v-248h-247z" />
<glyph unicode="&#x201d;" horiz-adv-x="796" d="M102 940q33 31 52.5 54t38 61.5t18.5 77.5h-109v247h248v-127q0 -65 -15 -120.5t-35 -90.5t-52 -67t-53.5 -47t-51.5 -33zM469 940q49 47 77.5 92t28.5 101h-106v247h246v-127q0 -65 -15 -120.5t-34.5 -90.5t-51 -67t-53 -47t-51.5 -33z" />
<glyph unicode="&#x201e;" horiz-adv-x="817" d="M102 0v246h248v-127q0 -79 -20 -143t-55.5 -106t-64 -65t-65.5 -45l-43 47q109 100 109 193h-109zM467 0v246h248v-127q0 -64 -15 -119.5t-35.5 -91t-51.5 -67.5t-53.5 -48t-51.5 -33l-41 47q106 98 106 193h-106z" />
<glyph unicode="&#x2022;" horiz-adv-x="684" d="M143 344v395h398v-395h-398z" />
<glyph unicode="&#x2026;" horiz-adv-x="1548" d="M102 0v248h248v-248h-248zM651 0v248h248v-248h-248zM1198 0v248h248v-248h-248z" />
<glyph unicode="&#x202f;" horiz-adv-x="364" />
<glyph unicode="&#x2039;" horiz-adv-x="724" d="M61 483l414 467l148 -129l-293 -338l293 -338l-148 -127z" />
<glyph unicode="&#x203a;" horiz-adv-x="868" d="M174 145l295 338l-295 338l148 129l413 -467l-413 -465z" />
<glyph unicode="&#x205f;" horiz-adv-x="455" />
<glyph unicode="&#x20ac;" d="M47 424l59 194h48q-2 23 -2 72v53h-105l59 193h82q32 100 89.5 182.5t143 147t206.5 100t266 35.5q187 0 362 -78l-75 -248q-2 1 -34 18t-51.5 24.5t-57 20.5t-81 19t-92.5 6q-132 0 -226 -58.5t-140 -168.5h639l-60 -193h-622q0 -9 -1 -26.5t-1 -26.5q0 -26 4 -72h581 l-59 -194h-473q48 -100 139 -154.5t219 -54.5q164 0 316 90l75 -248q-24 -13 -65.5 -28.5t-126 -32t-170.5 -16.5q-270 0 -449 119.5t-251 324.5h-146z" />
<glyph unicode="&#x2122;" horiz-adv-x="917" d="M102 1327v53h279v-53h-111v-356h-57v356h-111zM381 971l63 409h60l96 -297l94 297h60l61 -409h-61l-39 301h-2l-99 -301h-39l-94 301h-2l-37 -301h-61z" />
<glyph unicode="&#xe000;" horiz-adv-x="1013" d="M0 0v1014h1014v-1014h-1014z" />
<glyph unicode="&#xfb03;" horiz-adv-x="1794" d="M51 788v224h182v78q0 206 116 311.5t304 105.5q106 0 172 -22l-18 -176q-3 -29 -21 -29q-7 0 -43.5 7t-70.5 7q-164 0 -164 -180v-102h297v63q0 97 25.5 172t70 123.5t110.5 79.5t140 44t164 13q47 0 92 -6t69 -12t51 -15l27 -8l-18 -176q0 -28 -20 -28q-9 0 -73 13 t-120 13q-115 0 -179.5 -56.5t-64.5 -172.5v-47h572v-1012h-277v788h-295v-788h-274v788h-297v-788h-275v788h-182z" />
<glyph unicode="&#xfb04;" horiz-adv-x="1794" d="M51 788v224h182v78q0 105 32 186t89.5 131t133 75t167.5 25q104 0 170 -22l-18 -176q0 -29 -21 -29q-5 0 -42 7t-70 7q-164 0 -164 -180v-102h295v78q0 139 66.5 234.5t175 139t249.5 43.5q204 0 355 -55v-1452h-275v1280q-56 14 -104 14q-92 0 -142.5 -53t-50.5 -145 v-84h191v-224h-191v-788h-274v788h-295v-788h-277v788h-182z" />
</font>
</defs>
</svg>
