<?xml version="1.0" standalone="no"?>
<!DOCTYPE svg PUBLIC "-//W3C//DTD SVG 1.1//EN" "http://www.w3.org/Graphics/SVG/1.1/DTD/svg11.dtd" >
<svg xmlns="http://www.w3.org/2000/svg">
<metadata></metadata>
<defs>
<font id="AmericanLightItalic" horiz-adv-x="1314" >
<font-face units-per-em="2048" ascent="1536" descent="-512" />
<missing-glyph horiz-adv-x="512" />
<glyph unicode="&#xfb01;" horiz-adv-x="942" d="M113 0q114 583 180 926h-176l16 86h176q15 67 19 90q36 202 138 289.5t275 87.5q103 0 160 -19l-10 -57q-7 -33 -31 -33q-4 0 -51 9.5t-86 9.5q-122 0 -191 -64.5t-94 -200.5l-20 -112h452l-196 -1012h-107l181 926h-347l-180 -926h-108z" />
<glyph unicode="&#xfb02;" horiz-adv-x="905" d="M102 0q115 583 181 926h-177l17 86h176q14 67 18 90q35 202 138 289.5t276 87.5q49 0 103 -8t78 -14t34 -9l-282 -1448h-107l266 1374q-60 15 -110 15q-122 0 -191 -64.5t-94 -200.5l-20 -112h237l-16 -86h-238l-180 -926h-109z" />
<glyph horiz-adv-x="0" />
<glyph horiz-adv-x="0" />
<glyph unicode="&#xd;" horiz-adv-x="737" />
<glyph unicode=" "  horiz-adv-x="512" />
<glyph unicode="&#x09;" horiz-adv-x="512" />
<glyph unicode="&#xa0;" horiz-adv-x="512" />
<glyph unicode="!" horiz-adv-x="561" d="M82 0l27 137h137l-27 -137h-137zM188 406l168 974h123l-213 -974h-78z" />
<glyph unicode="&#x22;" horiz-adv-x="477" d="M164 1036l41 346h106l-96 -346h-51zM371 1036l41 346h106l-96 -346h-51z" />
<glyph unicode="#" d="M33 358l16 88h244l149 488h-241l16 88h250l111 358h108l-111 -358h359l110 358h109l-111 -358h238l-16 -88h-246l-150 -488h246l-16 -88h-254l-107 -358h-108l106 358h-358l-107 -358h-108l108 358h-237zM401 446h359l149 488h-358z" />
<glyph unicode="$" d="M164 37l20 102q25 -10 61 -22t103.5 -24.5t128.5 -12.5q189 0 302.5 81t113.5 216q0 160 -207 270l-74 41q-120 63 -186 142t-66 200q0 141 108 240.5t282 122.5l34 176h109l-33 -168q159 -2 289 -41l-21 -98q-117 47 -280 47q-173 0 -273 -79t-100 -196q0 -93 54.5 -153 t156.5 -113l70 -39q250 -135 250 -352q0 -159 -111.5 -260t-308.5 -123l-39 -205h-109l39 199q-196 2 -313 49z" />
<glyph unicode="%" horiz-adv-x="1511" d="M164 944q0 81 19 158t57 143.5t102.5 107t146.5 40.5q98 0 153.5 -77.5t55.5 -185.5q0 -118 -35.5 -217t-110.5 -163t-177 -64q-97 0 -154 75.5t-57 182.5zM190 0l1092 1382h84l-1092 -1382h-84zM233 946q0 -87 40 -140.5t110 -53.5q58 0 106 34.5t78 90.5t46 123.5 t16 136.5q0 80 -41 134t-113 54q-52 0 -95 -27t-69.5 -69t-44.5 -94t-25.5 -99.5t-7.5 -89.5zM854 244q0 81 19.5 158t57 143t102.5 106.5t147 40.5q99 0 154 -76.5t55 -185.5q0 -118 -35.5 -217t-110.5 -163t-176 -64q-99 0 -156 75t-57 183zM924 246q0 -88 40 -141.5 t111 -53.5q77 0 134.5 59.5t83.5 144.5t26 179q0 82 -41 136.5t-113 54.5q-64 0 -113.5 -40t-76 -102t-39 -122.5t-12.5 -114.5z" />
<glyph unicode="&#x26;" horiz-adv-x="1458" d="M164 328q0 50 13.5 97.5t32.5 83.5t52 72t59 59t66 50t61.5 39.5t57.5 32.5q-86 153 -86 289q0 163 102.5 254.5t259.5 91.5q70 0 126 -22.5t88.5 -58.5t49.5 -76.5t17 -82.5q0 -48 -15.5 -93t-39 -80t-61 -70t-71.5 -59.5t-81 -50.5t-79.5 -41.5t-76.5 -35.5 q50 -89 154.5 -217t201.5 -229q172 189 234 499h106q-31 -173 -106.5 -325.5t-165.5 -245.5l188 -189l-84 -67q-133 141 -176 188q-182 -155 -424 -155q-171 0 -287 95t-116 247zM281 344q0 -114 86.5 -191t210.5 -77q206 0 348 135q-269 293 -373 469q-43 -25 -67 -39.5 t-68.5 -49.5t-70 -66.5t-46 -80t-20.5 -100.5zM528 1063q0 -118 66 -254q48 24 70.5 35t67.5 36t68 42t56 44.5t49 52t28.5 56t12.5 64.5q0 67 -46 117.5t-144 50.5q-88 0 -158 -68t-70 -176z" />
<glyph unicode="'" horiz-adv-x="272" d="M164 1036l43 346h106l-98 -346h-51z" />
<glyph unicode="(" horiz-adv-x="655" d="M123 76q0 191 43.5 382.5t103 330.5t139 270t133 200.5t103.5 122.5h92q-44 -50 -98 -125t-129 -208.5t-134.5 -276.5t-102 -331t-42.5 -369q0 -207 39 -383.5t84 -270.5h-84q-56 105 -101.5 276.5t-45.5 381.5z" />
<glyph unicode=")" horiz-adv-x="655" d="M-164 -580q43 48 97.5 124t129.5 209t134.5 276.5t102 332t42.5 369.5q0 206 -39 381.5t-84 269.5h84q55 -103 101.5 -275t46.5 -382q0 -139 -23 -277.5t-58.5 -252t-85.5 -224.5t-97.5 -193t-100.5 -158t-89 -120.5t-69 -79.5h-92z" />
<glyph unicode="*" horiz-adv-x="753" d="M164 1161l51 101l176 -86l17 206h106l-63 -208l206 88l15 -101l-217 -45l114 -153l-98 -62l-72 182l-137 -182l-72 62l170 157z" />
<glyph unicode="+" d="M102 573l17 89h469l90 460h106l-90 -460h471l-16 -89h-471l-90 -462h-107l90 462h-469z" />
<glyph unicode="," horiz-adv-x="403" d="M-41 -166q106 65 127 166h-78l31 160h160l-31 -160q-9 -47 -44.5 -91.5t-73 -70t-73.5 -41.5z" />
<glyph unicode="-" horiz-adv-x="880" d="M123 463l18 88h535l-19 -88h-534z" />
<glyph unicode="." horiz-adv-x="395" d="M0 0l31 160h159l-30 -160h-160z" />
<glyph unicode="/" horiz-adv-x="745" d="M-41 0l795 1382h114l-794 -1382h-115z" />
<glyph unicode="0" d="M123 504q0 106 16.5 210t49.5 204.5t87.5 186.5t124.5 151t166 102t207 37q100 0 181 -44t132 -117.5t78 -167t27 -196.5q0 -138 -25.5 -267t-79 -241.5t-128.5 -196t-180.5 -131.5t-229.5 -48q-100 0 -182 42.5t-134.5 114t-81 164.5t-28.5 197zM233 494 q0 -188 86.5 -303t237.5 -115q125 0 227.5 73t165.5 192t97 262t34 292q0 177 -86 292.5t-241 115.5q-81 0 -152 -30.5t-123 -81.5t-94.5 -120t-70 -143.5t-46.5 -153.5t-27 -148.5t-8 -131.5z" />
<glyph unicode="1" d="M369 1145v86q110 12 218 61t161 109h98l-273 -1401h-108l244 1253q-166 -96 -340 -108z" />
<glyph unicode="2" d="M113 0l20 104q377 363 432 414q171 162 227 226q119 137 134 259q2 20 2 41q0 45 -17.5 89t-51.5 83t-93.5 63t-134.5 24q-125 0 -250 -76l-41 78q18 15 49 33t102.5 37.5t151.5 19.5q98 0 176 -30.5t124.5 -80.5t70.5 -110.5t24 -124.5q0 -58 -13 -113t-41.5 -106 t-57 -92.5t-76 -90.5t-82 -81t-90.5 -81q-36 -32 -140 -132t-190 -183l-86 -84h653l-16 -86h-786z" />
<glyph unicode="3" d="M143 4l11 92q97 -20 213 -20q185 0 302 92.5t117 232.5q0 50 -16 95t-49 84t-92 62.5t-137 23.5h-127l16 88h135q155 0 268 89t113 220q0 42 -16 82.5t-48 77t-90 58.5t-133 22q-117 0 -221 -54l-35 80l14 7q14 7 28 13t40 15t52.5 15.5t63 11t73.5 4.5q94 0 168 -28.5 t118 -75.5t67 -104t23 -118q0 -65 -23 -122t-56.5 -95.5t-78 -70t-79.5 -48.5t-68 -28l-2 -7q34 -14 66 -38.5t63.5 -61t50.5 -89.5t19 -114q0 -179 -148.5 -294t-377.5 -115q-141 0 -224 18z" />
<glyph unicode="4" d="M143 506l734 876h178l-178 -915h249l-16 -88h-250l-74 -379h-108l74 379h-600zM236 467h534l160 825h-8z" />
<glyph unicode="5" d="M143 10l19 96q120 -30 233 -30q197 0 333 110.5t136 264.5q0 134 -92 215.5t-274 81.5q-23 0 -50 -3t-45 -6t-35.5 -6.5t-19.5 -3.5l127 653h645l-18 -88h-537l-90 -465q36 9 72 9q100 0 182.5 -31.5t135.5 -84t81.5 -118.5t28.5 -137q0 -144 -78.5 -254.5t-211.5 -168.5 t-298 -58q-180 0 -244 24z" />
<glyph unicode="6" d="M164 473q0 200 45 360t118.5 263.5t174 172t206.5 97.5t220 29q185 0 264 -35l-31 -96q-109 41 -231 41q-127 0 -233 -44t-172.5 -108.5t-116 -148.5t-72.5 -154t-33 -135l10 -2q134 166 365 166q205 0 325.5 -115.5t120.5 -286.5q0 -101 -36 -190.5t-101.5 -156.5 t-164.5 -105.5t-218 -38.5q-96 0 -172.5 28t-125.5 74.5t-82 110.5t-46.5 131.5t-13.5 142.5zM285 414q0 -50 13 -98t40.5 -91t66 -76t94.5 -52t122 -19q168 0 280.5 114t112.5 277q0 139 -93.5 229t-242.5 90q-101 0 -190.5 -46t-146 -133t-56.5 -195z" />
<glyph unicode="7" d="M205 0q60 166 148.5 342t199.5 350.5t203 306.5t213 295h-721l16 88h834l-19 -94q-213 -272 -423.5 -622t-327.5 -666h-123z" />
<glyph unicode="8" d="M184 299q0 45 14.5 88.5t34.5 76.5t55.5 67.5t64 57.5t73.5 50.5t71 41.5t68 36l2 8q-207 152 -207 334q0 70 21.5 127.5t58.5 95.5t88 64t108 37.5t120 11.5q101 0 175 -28t113 -74.5t56.5 -95t17.5 -99.5q0 -53 -17 -99t-42 -80t-72 -71t-89.5 -63t-111.5 -64l-2 -8 q131 -95 190.5 -173.5t59.5 -183.5q0 -160 -134.5 -265t-334.5 -105q-180 0 -280.5 88t-100.5 225zM293 303q0 -96 74 -161.5t213 -65.5q149 0 247.5 80.5t98.5 191.5q0 157 -248 320q-190 -80 -287.5 -167t-97.5 -198zM469 1065q0 -52 16.5 -96.5t49.5 -82t62.5 -62.5 t76.5 -58q45 26 63 37t56.5 34.5t54.5 35t45 33t41.5 36t30.5 35.5t25.5 39t13.5 40.5t6 45.5q0 31 -14 64t-43.5 64.5t-84 52t-125.5 20.5q-116 0 -195 -68.5t-79 -169.5z" />
<glyph unicode="9" d="M123 20l31 97q109 -41 231 -41q127 0 233 44t172.5 108.5t115.5 148.5t72 154t32 135l-6 2q-20 -22 -31.5 -34t-48.5 -41t-73 -45.5t-94 -31t-122 -14.5q-204 0 -324.5 115t-120.5 284q0 102 36 192t101 157t164.5 106t219.5 39q95 0 171 -28t125 -75t82 -111 t46.5 -131.5t13.5 -142.5q0 -200 -45 -360t-118.5 -263t-174 -171.5t-205.5 -97.5t-219 -29q-196 0 -264 34zM301 911q0 -140 92.5 -229.5t243.5 -89.5q100 0 189.5 46.5t146.5 133.5t57 195q0 63 -21.5 121.5t-62 106.5t-106.5 76.5t-148 28.5q-167 0 -279 -113.5 t-112 -275.5z" />
<glyph unicode=":" horiz-adv-x="473" d="M41 0l31 160h159l-30 -160h-160zM160 618l30 160h160l-31 -160h-159z" />
<glyph unicode=";" horiz-adv-x="522" d="M41 -166q106 65 127 166h-78l31 160h160l-31 -160q-9 -47 -44.5 -91.5t-73 -70t-73.5 -41.5zM209 618l31 160h159l-30 -160h-160z" />
<glyph unicode="&#x3c;" d="M418 547l426 414l53 -58l-362 -356l225 -357l-78 -57z" />
<glyph unicode="=" d="M131 375l19 88h960l-18 -88h-961zM205 756l18 88h961l-19 -88h-960z" />
<glyph unicode="&#x3e;" d="M418 190l360 357l-223 356l78 58l262 -414l-424 -414z" />
<glyph unicode="?" horiz-adv-x="919" d="M123 0h137l27 137h-137zM180 1264l29 90q123 41 211 41q178 0 277.5 -86.5t99.5 -210.5q0 -38 -10.5 -76t-24.5 -67t-39.5 -61t-43.5 -51t-50 -45.5t-45 -36.5t-41 -30q-179 -132 -213 -297l-6 -33h-109q4 27 8 41q14 73 41.5 132.5t66.5 104t61.5 65t60.5 49.5 q6 5 36.5 27t45 33.5t42.5 35.5t43 43.5t32.5 45t25.5 53t8 56.5q0 91 -72.5 153.5t-218.5 62.5q-31 0 -69.5 -5.5t-64.5 -12t-53 -14t-28 -7.5z" />
<glyph unicode="@" horiz-adv-x="1703" d="M123 596q0 96 27.5 193t79.5 187.5t131 169t176 136.5t221.5 91.5t261.5 33.5q132 0 241.5 -29.5t182.5 -79t123.5 -115t73 -135.5t22.5 -143q0 -119 -45 -222t-116.5 -170.5t-159.5 -105.5t-175 -38q-99 0 -145.5 43.5t-46.5 99.5h-8q-107 -141 -258 -141 q-96 0 -151.5 56.5t-55.5 158.5q0 90 41.5 179.5t111.5 161t173.5 116t218.5 44.5q72 0 128 -12t80 -22q-136 -365 -159 -420q-4 -10 -11.5 -30.5t-11 -30.5t-8 -24.5t-6.5 -26.5t-2 -23q0 -84 123 -84q51 0 116 34t126.5 93.5t104 155t42.5 204.5q0 68 -21 133.5 t-66.5 125.5t-110 106t-157.5 73t-204 27q-146 0 -288 -58.5t-253 -159.5t-179.5 -250t-68.5 -318q0 -242 151 -392.5t382 -150.5q165 0 313 69l-23 -69q-139 -51 -321 -51q-184 0 -321.5 80.5t-208 218t-70.5 311.5zM604 588q0 -73 36.5 -117.5t90.5 -44.5q186 0 295 283 l121 319q-31 23 -103 23q-86 0 -170 -48t-141.5 -118.5t-93 -150.5t-35.5 -146z" />
<glyph unicode="A" horiz-adv-x="1163" d="M-123 0l789 1382h129l245 -1382h-120l-62 362h-651l-205 -362h-125zM256 453h588l-137 800h-9z" />
<glyph unicode="B" horiz-adv-x="1216" d="M143 0l269 1382h325q103 0 182 -27.5t124.5 -73.5t68.5 -101t23 -115q0 -76 -29 -138t-70 -99t-91.5 -63t-88 -36t-65.5 -12v-8q26 -4 56.5 -15.5t66 -35t64 -55t47.5 -81.5t19 -108q0 -129 -74 -224.5t-193.5 -142.5t-266.5 -47h-367zM272 94q57 -10 201 -10 q195 0 326 90t131 238q0 111 -87.5 184.5t-256.5 73.5h-203zM401 758h160q133 0 237 34t165 101.5t61 159.5q0 104 -81.5 174.5t-250.5 70.5q-47 0 -113 -2t-73 -2z" />
<glyph unicode="C" horiz-adv-x="1169" d="M123 596q0 168 56 315t157.5 254t251 168.5t327.5 61.5q99 0 182 -15.5t114 -27.5t40 -19l-18 -100q-140 70 -328 70q-135 0 -255.5 -50t-211 -140.5t-143.5 -226.5t-53 -298q0 -220 136.5 -366t354.5 -146q62 0 129 14.5t101 27t57 23.5l-23 -110q-9 -6 -36.5 -15 t-93 -19.5t-140.5 -10.5q-140 0 -255.5 49t-191 133t-116.5 194t-41 234z" />
<glyph unicode="D" horiz-adv-x="1505" d="M143 6l267 1370q171 19 317 19q134 0 244 -33t185.5 -89.5t127 -134.5t75 -166t23.5 -186q0 -190 -66.5 -342t-185 -250t-280.5 -150t-356 -52q-228 0 -351 14zM272 100q92 -16 209 -16q130 0 246 26t217 82t174 137.5t114.5 199t41.5 259.5q0 108 -37 200.5 t-108.5 162.5t-184 109.5t-254.5 39.5q-47 0 -83 -3t-71 -9l-34 -6z" />
<glyph unicode="E" horiz-adv-x="1042" d="M143 0l269 1382h671l-18 -88h-561l-105 -536h531l-17 -88h-530l-113 -582h561l-16 -88h-672z" />
<glyph unicode="F" horiz-adv-x="1042" d="M143 0l269 1382h671l-18 -88h-561l-105 -536h531l-17 -88h-530l-129 -670h-111z" />
<glyph unicode="G" horiz-adv-x="1359" d="M123 588q0 167 58 315.5t159 257t247 171.5t314 63q99 0 187.5 -16t124 -29t44.5 -19l-20 -100q-20 10 -56.5 24t-115.5 31t-154 17q-147 0 -274 -59t-212.5 -157.5t-134 -228t-48.5 -270.5q0 -98 32 -189t90.5 -163.5t152 -116t206.5 -43.5q128 0 235 43l107 549h-336 l19 88h444l-137 -707q-130 -63 -318 -63q-127 0 -231.5 34t-174.5 91.5t-117.5 135.5t-69 163.5t-21.5 177.5z" />
<glyph unicode="H" horiz-adv-x="1597" d="M143 0l269 1382h110l-123 -624h822l122 624h111l-268 -1382h-111l129 670h-821l-129 -670h-111z" />
<glyph unicode="I" horiz-adv-x="665" d="M143 0l269 1382h110l-268 -1382h-111z" />
<glyph unicode="J" horiz-adv-x="720" d="M-164 8l17 90q77 -22 131 -22q116 0 184.5 64t91.5 179l207 1063h111q-176 -907 -207 -1063q-32 -169 -129.5 -251t-264.5 -82q-90 0 -141 22z" />
<glyph unicode="K" horiz-adv-x="1146" d="M143 0l269 1382h110l-129 -671l735 671h142l-742 -682l531 -700h-139l-529 698l-137 -698h-111z" />
<glyph unicode="L" horiz-adv-x="851" d="M143 0l269 1382h110l-252 -1294h541l-16 -88h-652z" />
<glyph unicode="M" horiz-adv-x="1777" d="M-20 0l440 1382h155l185 -1286h8l676 1286h170l-70 -1382h-114l73 1284h-8l-674 -1284h-153l-181 1284h-8l-391 -1284h-108z" />
<glyph unicode="N" horiz-adv-x="1611" d="M143 0l269 1382h137l567 -1202h8l234 1202h110l-268 -1382h-125l-573 1227h-8l-240 -1227h-111z" />
<glyph unicode="O" horiz-adv-x="1523" d="M123 586q0 170 51 319t142.5 257t225.5 170.5t294 62.5q170 0 300 -79t197.5 -213.5t67.5 -301.5q0 -184 -54.5 -338t-149.5 -257.5t-224 -160.5t-277 -57q-265 0 -419 166t-154 432zM242 559q0 -212 125.5 -346.5t326.5 -134.5q125 0 233.5 52.5t186.5 147t123 233.5 t45 304q0 98 -29.5 184.5t-85 155t-144 108.5t-198.5 40q-121 0 -227 -51.5t-185 -145.5t-125 -235.5t-46 -311.5z" />
<glyph unicode="P" horiz-adv-x="1163" d="M143 0l269 1382h260q217 0 333.5 -111t116.5 -282q0 -215 -161 -349t-429 -134q-124 0 -178 12l-100 -518h-111zM371 602q72 -8 170 -8q207 0 337 112.5t130 282.5q0 62 -20.5 115.5t-61 96.5t-107.5 68t-153 25q-126 0 -162 -6z" />
<glyph unicode="Q" horiz-adv-x="1523" d="M123 588q0 170 51 318.5t142.5 256.5t225.5 170t294 62q170 0 299.5 -78.5t197.5 -212.5t68 -301q0 -170 -47 -315.5t-129.5 -248.5t-195.5 -167.5t-245 -81.5l56 -226h-88l-56 222q-176 0 -307 78t-198.5 213.5t-67.5 310.5zM242 561q0 -207 120 -343t312 -142l-70 282 h92l68 -278q229 28 373.5 228.5t144.5 508.5q0 97 -29.5 184t-85 155t-144 107.5t-198.5 39.5q-122 0 -228 -51t-185 -144.5t-124.5 -235t-45.5 -311.5z" />
<glyph unicode="R" horiz-adv-x="1200" d="M143 0l269 1382h274q112 0 197 -29t135.5 -79t75 -112.5t24.5 -135.5q0 -92 -31 -167.5t-73 -119.5t-98 -78t-91.5 -46.5t-68.5 -20.5l239 -594h-121l-229 571h-280l-111 -571h-111zM383 666q35 -7 147 -7q214 0 345 100t131 263q0 55 -19.5 102t-60.5 86.5t-114 61.5 t-171 22q-101 0 -137 -6z" />
<glyph unicode="S" horiz-adv-x="923" d="M-61 33l20 104q144 -61 291 -61q191 0 304.5 79t113.5 214q0 160 -207 272l-76 41q-119 63 -184.5 142.5t-65.5 199.5q0 162 139.5 266.5t352.5 104.5q160 0 297 -41l-19 -99q-18 8 -49.5 17.5t-98 20t-134.5 10.5q-173 0 -273 -79t-100 -196q0 -93 54.5 -153t156.5 -113 l69 -39q250 -135 250 -352q0 -180 -139.5 -282.5t-382.5 -102.5q-202 0 -319 47z" />
<glyph unicode="T" horiz-adv-x="827" d="M41 1294l18 88h973l-18 -88h-432l-250 -1294h-111l250 1294h-430z" />
<glyph unicode="U" horiz-adv-x="1472" d="M143 387q0 88 23 201l156 794h110l-147 -757q-31 -152 -31 -207q0 -152 89 -247t273 -95q346 0 431 426l172 880h110l-176 -901q-16 -89 -43.5 -162t-72 -136t-104 -106t-142 -67t-183.5 -24q-109 0 -199 34t-147 91t-88 128.5t-31 147.5z" />
<glyph unicode="V" horiz-adv-x="1130" d="M102 1382h111l209 -1265h8l705 1265h118l-778 -1382h-139z" />
<glyph unicode="W" horiz-adv-x="1728" d="M143 1382h113l53 -1255h10l574 1255h154l92 -1255h10l541 1255h120l-606 -1382h-164l-92 1255h-8l-569 -1255h-160z" />
<glyph unicode="X" horiz-adv-x="1013" d="M-164 0l608 709l-303 673h129l250 -577l484 577h133l-564 -667l328 -715h-123l-280 625l-523 -625h-139z" />
<glyph unicode="Y" horiz-adv-x="978" d="M123 1382h113l219 -761l522 761h125l-615 -878l-98 -504h-110l98 506z" />
<glyph unicode="Z" horiz-adv-x="1015" d="M-82 0l21 98l1007 1196h-749l18 88h883l-19 -96l-1011 -1198h786l-16 -88h-920z" />
<glyph unicode="[" horiz-adv-x="622" d="M0 -614l389 1996h397l-18 -88h-291l-352 -1820h291l-19 -88h-397z" />
<glyph unicode="\" horiz-adv-x="620" d="M82 1382h104l271 -1382h-111z" />
<glyph unicode="]" horiz-adv-x="661" d="M-246 -614l17 88h290l353 1820h-291l18 88h398l-389 -1996h-396z" />
<glyph unicode="^" d="M279 803l442 579h94l219 -579h-112l-172 487l-361 -487h-110z" />
<glyph unicode="_" horiz-adv-x="1046" d="M-10 -473l20 111h1047l-21 -111h-1046z" />
<glyph unicode="`" horiz-adv-x="360" d="M41 1520h174l104 -301h-92z" />
<glyph unicode="a" horiz-adv-x="1005" d="M20 281q0 73 29.5 134t89 110t161 76.5t235.5 27.5h249q13 75 13 90q0 95 -72 157t-207 62q-68 0 -133 -18t-105.5 -36t-48.5 -18q-14 0 -14 17q0 2 1 9.5t1 8.5l10 68q17 7 51.5 18.5t106.5 26t133 14.5q182 0 282.5 -87t100.5 -214q0 -23 -3 -46.5t-10.5 -59.5 t-8.5 -43q-10 -54 -33.5 -172.5t-28.5 -145.5q-3 -21 -11 -66.5t-12.5 -73.5t-8.5 -62.5t-5 -57.5h-80q-28 0 -28 29q0 25 10 75l8 43h-8q-132 -161 -328 -161q-155 0 -245.5 87.5t-90.5 207.5zM133 289q0 -85 65.5 -149t178.5 -64q144 0 243 109.5t130 269.5l18 90h-242 q-105 0 -185 -24.5t-123 -64t-64 -82t-21 -85.5z" />
<glyph unicode="b" horiz-adv-x="1148" d="M82 18l283 1450h106l-117 -602h8q10 14 19.5 26.5t39 40t61 46t82.5 34t106 15.5q111 0 199 -59.5t133 -151t45 -194.5q0 -83 -25 -169.5t-80 -170.5t-132.5 -150t-193 -106.5t-251.5 -40.5q-151 0 -283 32zM205 100q64 -24 178 -24q118 0 223.5 49.5t175.5 127.5 t111 173t41 188q0 85 -30 157t-97 119.5t-160 47.5q-57 0 -110.5 -25.5t-104 -79t-91.5 -147t-65 -217.5z" />
<glyph unicode="c" horiz-adv-x="968" d="M102 436q0 161 70.5 295.5t202 215.5t297.5 81q84 0 156 -14.5t98.5 -25.5t42.5 -21l-17 -76q-8 -23 -22 -23q-8 0 -29.5 11t-48 24t-77 24t-109.5 11q-126 0 -231 -71t-162.5 -182t-57.5 -232q0 -68 20.5 -133t60 -120.5t107.5 -89.5t154 -34q57 0 107.5 16.5t82 33.5 t39.5 17q17 0 17 -16q0 -13 -15 -90q-115 -51 -233 -51q-106 0 -193 37.5t-143 100.5t-86.5 143.5t-30.5 168.5z" />
<glyph unicode="d" horiz-adv-x="1110" d="M102 393q0 115 35 216.5t96 177t142.5 130.5t176.5 83t196 28q57 0 119 -10.5t85 -18.5l90 469h109q-211 -1081 -225 -1155q-44 -224 -52 -313h-83q-27 0 -27 23q0 5 3 23.5t3 21.5l16 84h-8q-7 -13 -17.5 -27.5t-37.5 -41t-58.5 -46.5t-82 -35.5t-107.5 -15.5 q-114 0 -201 61.5t-129.5 153t-42.5 192.5zM215 418q0 -146 75 -244t208 -98q132 0 227.5 128.5t140.5 356.5l68 346q-15 8 -74.5 19.5t-120.5 11.5q-135 0 -254.5 -65.5t-194.5 -186t-75 -268.5z" />
<glyph unicode="e" horiz-adv-x="1142" d="M102 449q0 83 19 163.5t61.5 156t103.5 133t151 92t198 34.5q190 0 297.5 -107t107.5 -274q0 -37 -5 -73t-13 -70l-8 -33h-795q-2 -8 -2 -27q0 -110 57 -196t144.5 -129t185.5 -43q74 0 129 14t85 27.5t42 13.5q21 0 21 -18q0 -17 -4 -37l-9 -43q-14 -7 -43.5 -16 t-97.5 -20t-143 -11q-90 0 -168 25t-135 69.5t-97.5 103t-61 126t-20.5 139.5zM227 557h699q12 30 12 109q0 36 -12 73t-37.5 73t-61.5 64t-89 45t-115 17q-77 0 -142.5 -27.5t-108.5 -69t-75.5 -94.5t-48.5 -100.5t-21 -89.5z" />
<glyph unicode="f" horiz-adv-x="604" d="M102 0q113 583 181 926h-179l19 86h176q14 67 16 90q37 202 139.5 289.5t276.5 87.5q103 0 160 -19l-10 -57q-7 -33 -31 -33q-4 0 -51.5 9.5t-87.5 9.5q-120 0 -189 -64.5t-94 -200.5l-20 -112h299l-17 -86h-301l-180 -926h-107z" />
<glyph unicode="g" horiz-adv-x="1067" d="M-41 -180q0 42 11 80t26.5 64.5t40 50.5t42.5 37.5t44 27.5t34.5 17.5t22.5 8.5q-20 14 -37.5 43.5t-17.5 71.5q0 40 15 74.5t35.5 55.5t48.5 38.5t47 25t38 13.5q-112 89 -112 248q0 153 110.5 252.5t282.5 99.5q48 0 135 -12t145 -12t197 18q-8 -45 -12 -70 q-6 -37 -39 -37h-150q22 -16 51 -74.5t29 -135.5q0 -166 -109 -262.5t-284 -96.5q-86 0 -164 33q-48 -10 -103 -49.5t-55 -89.5q0 -43 36 -68t100 -25h217q88 0 155.5 -22.5t106.5 -61t58.5 -84.5t19.5 -98q0 -170 -145.5 -276.5t-407.5 -106.5q-108 0 -190.5 29.5t-129 78 t-69.5 103t-23 111.5zM76 -168q0 -45 18 -85.5t55 -75.5t102.5 -56t151.5 -21q182 0 296 83t114 206q0 68 -59 120t-183 52h-188q-95 0 -115 4q-16 -4 -37 -14t-49 -30t-51 -44.5t-39 -61.5t-16 -77zM305 674q0 -102 67.5 -169t194.5 -67q106 0 188.5 77.5t82.5 193.5 q0 91 -66 160t-192 69q-117 0 -196 -79.5t-79 -184.5z" />
<glyph unicode="h" horiz-adv-x="1132" d="M82 0l287 1468h106l-115 -598h9q13 19 33 40.5t57.5 50.5t94.5 48t122 19q151 0 242.5 -86.5t91.5 -224.5q0 -22 -3 -47.5t-8 -53.5t-6 -34l-114 -582h-107q101 517 113 580q1 5 5.5 30t7.5 48t3 44q0 100 -61 168t-185 68q-122 0 -223 -104.5t-135 -280.5l-107 -553 h-108z" />
<glyph unicode="i" horiz-adv-x="466" d="M82 0h108l197 1012h-108zM332 1303l22 112h113l-23 -112h-112z" />
<glyph unicode="j" horiz-adv-x="471" d="M-328 -485q54 -23 158 -23q130 0 212.5 76t117.5 254l231 1190h-108q-201 -1043 -238 -1225q-39 -203 -221 -203q-30 0 -65 7.5t-40 7.5q-19 0 -28 -29q-11 -32 -19 -55zM336 1303l22 112h113l-22 -112h-113z" />
<glyph unicode="k" horiz-adv-x="890" d="M82 0l287 1468h106l-176 -903l506 447h147l-528 -467l407 -545h-135l-403 532l-103 -532h-108z" />
<glyph unicode="l" horiz-adv-x="434" d="M82 0l285 1468h108l-285 -1468h-108z" />
<glyph unicode="m" horiz-adv-x="1748" d="M82 0q114 592 137 707q40 202 49 305h86q25 0 25 -21q0 -7 -21 -112h9q9 14 19 26.5t36 37t55 41.5t75 30.5t97 13.5q63 0 115 -17t83.5 -40.5t56 -55t34.5 -53t16 -41.5l18 27t26.5 34t38 41t48 38t61.5 35t73.5 22.5t87.5 9.5q139 0 229 -84t90 -205q0 -70 -22 -186 l-109 -553h-109q91 457 111 559q19 97 19 156q0 43 -13 81.5t-39.5 71t-72 51.5t-105.5 19q-115 0 -208 -101.5t-126 -269.5l-110 -567h-107q97 496 113 580q16 80 16 135q0 98 -60 160.5t-163 62.5q-130 0 -220 -105.5t-126 -287.5l-105 -545h-108z" />
<glyph unicode="n" horiz-adv-x="1132" d="M82 0q123 631 137 705q34 172 53 307h82q25 0 25 -19q0 -5 -2 -19l-2 -13l-19 -93h9q13 19 33 40.5t58 51.5t96 49t124 19q151 0 242.5 -86.5t91.5 -224.5q0 -43 -19 -135l-112 -582h-107q99 517 111 580q18 81 18 122q0 100 -61 168t-185 68q-122 0 -223 -104.5 t-135 -280.5l-107 -553h-108z" />
<glyph unicode="o" horiz-adv-x="1183" d="M102 430q0 169 66.5 304.5t191.5 214.5t287 79q194 0 314 -125t120 -313q0 -136 -42 -250.5t-114.5 -191.5t-171 -119.5t-210.5 -42.5q-202 0 -321.5 124t-119.5 320zM213 416q0 -149 90.5 -244.5t237.5 -95.5q188 0 309 144t121 376q0 144 -87.5 243t-246.5 99 q-181 0 -302.5 -141.5t-121.5 -380.5z" />
<glyph unicode="p" horiz-adv-x="1132" d="M-20 -473q213 1099 227 1173q35 176 51 312h90q21 0 21 -19q0 -7 -3.5 -27.5t-5.5 -23.5l-14 -84h8q14 22 32 43.5t54.5 54t92 52.5t120.5 20q96 0 170.5 -35t118.5 -93t66 -125.5t22 -139.5q0 -146 -48.5 -269t-132 -205.5t-197 -128.5t-242.5 -46q-58 0 -134.5 11 t-93.5 17l-94 -487h-108zM199 104q98 -28 198 -28q102 0 197 41.5t167.5 115t115.5 181.5t43 233q0 118 -72 203.5t-199 85.5t-234.5 -127.5t-148.5 -355.5z" />
<glyph unicode="q" horiz-adv-x="1169" d="M102 389q0 127 47.5 242.5t132.5 203.5t213.5 140.5t280.5 52.5q81 0 164 -13t127 -26l-283 -1462h-108l117 614h-9q-20 -24 -30 -35.5t-41 -38.5t-59.5 -41t-75 -27t-97.5 -13q-90 0 -164 36t-120 94.5t-70.5 129t-24.5 143.5zM213 391q0 -79 28.5 -149t91.5 -118 t150 -48q141 0 245.5 124t145.5 345l72 373q-63 18 -190 18q-103 0 -192.5 -34t-152.5 -89.5t-108.5 -127t-67.5 -146.5t-22 -148z" />
<glyph unicode="r" horiz-adv-x="720" d="M82 0q123 633 141 727q38 196 45 285h88q25 0 25 -19q0 -12 -11.5 -62.5t-11.5 -53.5h9q7 13 17.5 27.5t36.5 38t58 41t83.5 31t111.5 13.5q89 0 149 -20q-2 -6 -7 -32t-7 -32q-6 -22 -27 -22q-3 0 -48.5 8t-86.5 8q-118 0 -216.5 -100t-129.5 -267l-111 -571h-108z" />
<glyph unicode="s" horiz-adv-x="784" d="M0 10q0 1 5.5 28t6.5 38q7 28 33 28q1 0 79 -14t152 -14q121 0 200 56t79 140q0 64 -41 109t-123 80l-61 26q-82 35 -136.5 96.5t-54.5 155.5q0 121 99 205t270 84q72 0 133.5 -7t86.5 -13t36 -11q-6 -41 -10 -57q-8 -37 -31 -37q-3 0 -74 17.5t-151 17.5 q-107 0 -176.5 -50.5t-69.5 -131.5q0 -113 145 -176l90 -39q84 -36 132.5 -100.5t48.5 -147.5q0 -141 -105.5 -224t-304.5 -83q-70 0 -132.5 5.5t-89 10.5t-36.5 8z" />
<glyph unicode="t" horiz-adv-x="641" d="M102 926l17 86h188l43 223h107l-43 -223h309l-16 -86h-310q-117 -595 -121 -615q-10 -90 -10 -92q0 -66 44.5 -103.5t123.5 -37.5q25 0 58.5 7t35.5 7q19 0 19 -20l-6 -68q-63 -18 -129 -18q-115 0 -185.5 59t-70.5 162q0 24 20 141l115 578h-189z" />
<glyph unicode="u" horiz-adv-x="1132" d="M123 299q0 48 18 135l113 578h106q-98 -512 -110 -578q-19 -85 -19 -121q0 -101 61 -168t185 -67q121 0 225 108t134 275l108 551h107q-124 -627 -138 -701q-38 -217 -51 -311h-84q-24 0 -24 18q0 28 22 127h-8q-47 -70 -125.5 -114.5t-183.5 -44.5q-152 0 -244 87.5 t-92 225.5z" />
<glyph unicode="v" horiz-adv-x="899" d="M102 1012h105l141 -883h8l494 883h111l-570 -1012h-123z" />
<glyph unicode="w" horiz-adv-x="1411" d="M123 1012h102l56 -871h8l436 871h129l66 -871h8l438 871h107l-512 -1012h-136l-59 862h-12l-432 -862h-136z" />
<glyph unicode="x" horiz-adv-x="911" d="M-102 0l497 539l-245 473h122l199 -383l348 383h133l-428 -469l279 -543h-123l-231 453l-418 -453h-133z" />
<glyph unicode="y" horiz-adv-x="946" d="M-246 -492q11 44 17 64q10 27 26 27q1 0 38 -8.5t77 -8.5q105 0 180.5 63t145.5 193l88 162l-209 1012h121l168 -865h8l473 865h121q-502 -901 -639 -1149q-46 -84 -76.5 -132.5t-74 -100.5t-86 -78t-101.5 -43t-133 -17q-64 0 -144 16z" />
<glyph unicode="z" horiz-adv-x="858" d="M-20 0l18 98l737 828h-573l16 86h701l-17 -90l-743 -836h588l-17 -86h-710z" />
<glyph unicode="{" horiz-adv-x="706" d="M82 330l22 112q214 25 256 240q4 21 21 103t31 151t18 94q63 352 348 352h51l-14 -75q-110 0 -182 -55t-86 -167l-74 -385q-8 -40 -25 -81.5t-48 -87.5t-82.5 -83.5t-116.5 -56.5l-2 -10q86 -28 122.5 -92t36.5 -142q0 -29 -8 -75l-74 -385q-8 -31 -8 -66q0 -82 46 -119 t143 -37l-15 -75h-51q-225 0 -225 225q0 57 12 127q5 21 32.5 160t35.5 188q8 33 8 68q0 150 -172 172z" />
<glyph unicode="|" horiz-adv-x="579" d="M0 -612l389 1994h109l-389 -1994h-109z" />
<glyph unicode="}" horiz-adv-x="706" d="M-205 -612l15 75q226 0 268 222l76 385q8 40 25 81.5t48 87.5t82.5 83.5t116.5 56.5l2 10q-160 52 -160 236q0 39 6 73q35 169 76 385q6 35 6 66q0 82 -45 119t-143 37l16 75h52q225 0 225 -225q0 -57 -15 -127l-67 -348q-6 -37 -6 -68q0 -150 170 -172l-21 -112 q-216 -25 -258 -240l-67 -348q-68 -352 -351 -352h-51z" />
<glyph unicode="~" horiz-adv-x="1153" d="M82 512q145 102 280 102q67 0 126.5 -19t96 -42t89.5 -42t108 -19q92 0 215 73l33 -65q-127 -103 -280 -103q-52 0 -100.5 12.5t-85.5 30.5t-72 36.5t-75.5 31t-82.5 12.5q-67 0 -126.5 -23.5t-92.5 -50.5z" />
<glyph unicode="&#xa1;" horiz-adv-x="520" d="M0 -440h123l166 975h-78zM233 803l27 137h137l-26 -137h-138z" />
<glyph unicode="&#xa2;" d="M223 434q0 158 68 291t195 214.5t288 86.5l39 205h107l-39 -207q131 -14 209 -59q-4 -24 -17 -74q-7 -25 -22 -25q-8 0 -39.5 17.5t-90.5 35t-135 17.5q-95 0 -179.5 -41.5t-143.5 -109t-93 -155t-34 -177.5q0 -54 12 -106.5t39.5 -102t66.5 -86.5t97 -59.5t127 -22.5 q57 0 107.5 16.5t82 33.5t39.5 17q17 0 17 -18q0 -25 -15 -88q-25 -14 -92 -32.5t-139 -18.5l-43 -224h-109l47 232q-163 33 -256.5 157t-93.5 283z" />
<glyph unicode="&#xa3;" d="M156 0l18 90q126 70 207 221.5t88 339.5h-182l16 88h166q-8 124 -8 142q0 84 17 157.5t56 140.5t98 114.5t148.5 75.5t202.5 28q109 0 176 -15l-33 -94q-12 4 -62 10.5t-91 6.5q-97 0 -174.5 -33.5t-125.5 -90t-73 -126.5t-25 -146q0 -69 13 -170h370l-16 -88h-356 q-9 -112 -38.5 -209t-72.5 -165t-82 -112.5t-82 -78.5h647l-16 -86h-786z" />
<glyph unicode="&#xa4;" d="M133 256l160 127q-41 74 -41 170q0 208 129 340l-90 119l82 67l90 -118q109 67 246 67q161 0 262 -98l143 114l66 -83l-148 -117q41 -80 41 -164q0 -214 -131 -348l80 -107l-82 -67l-82 106q-111 -65 -237 -65q-166 0 -267 98l-155 -125zM336 543q0 -119 78.5 -196 t203.5 -77q160 0 264.5 114.5t104.5 299.5q0 114 -74.5 193t-210.5 79q-157 0 -261.5 -112.5t-104.5 -300.5z" />
<glyph unicode="&#xa5;" d="M152 317l16 89h305l27 137h-305l16 88h278l-221 751h121l191 -694l460 694h123l-510 -751h279l-19 -88h-305l-26 -137h305l-17 -89h-307l-61 -317h-107l62 317h-305z" />
<glyph unicode="&#xa6;" horiz-adv-x="579" d="M0 -614l170 876h109l-170 -876h-109zM219 506l170 876h109l-170 -876h-109z" />
<glyph unicode="&#xa7;" horiz-adv-x="1093" d="M41 -451l45 97l14 -7q14 -7 25.5 -12t35.5 -13t47.5 -13t57.5 -9t70 -4q126 0 212.5 72.5t86.5 183.5q0 73 -39 127t-113 109l-104 80q-195 144 -195 317q0 63 22 117.5t63 97t74.5 68.5t80.5 55q-82 88 -82 215q0 110 55.5 194.5t148 127.5t204.5 43q88 0 160 -12.5 t92 -20t51 -21.5l-45 -96l-14 7q-14 7 -25.5 12t-35.5 13t-47.5 13t-57.5 9t-70 4q-126 0 -212.5 -72.5t-86.5 -183.5q0 -73 38.5 -126t112.5 -108q10 -7 49.5 -38t55.5 -42q194 -144 194 -317q0 -63 -22 -118t-62 -97t-75 -69t-80 -54q82 -92 82 -217q0 -166 -117 -265.5 t-291 -99.5q-186 0 -303 53zM303 481q0 -114 150 -227q98 -74 147 -113l8 -8q185 125 185 277q0 114 -152 229q-98 72 -145 111q-9 5 -11 8q-182 -126 -182 -277z" />
<glyph unicode="&#xa8;" horiz-adv-x="653" d="M41 1116l33 160h159l-32 -160h-160zM420 1116l33 160h159l-32 -160h-160z" />
<glyph unicode="&#xa9;" horiz-adv-x="845" d="M205 1038q0 152 104.5 254.5t257.5 102.5q128 0 203.5 -77.5t75.5 -193.5q0 -145 -100.5 -251.5t-262.5 -106.5q-133 0 -205.5 78.5t-72.5 193.5zM256 1042q0 -99 58.5 -163t172.5 -64q137 0 222.5 90t85.5 215q0 97 -61 161.5t-173 64.5q-134 0 -219.5 -90.5 t-85.5 -213.5zM375 1065q0 -60 36 -101.5t109 -41.5q18 0 66 12l2 47q-18 -12 -60 -12q-47 0 -69.5 27.5t-22.5 68.5q0 60 35.5 94.5t81.5 34.5q47 0 74 -16l16 51q0 1 -12.5 4t-32 5.5t-35.5 2.5q-84 0 -136 -50t-52 -126z" />
<glyph unicode="&#xaa;" horiz-adv-x="913" d="M164 528l14 80h541l-17 -80h-538zM215 907q0 100 82.5 164t253.5 64h154q8 56 8 59q0 60 -45.5 96.5t-128.5 36.5q-44 0 -86.5 -11.5t-69 -22.5t-31.5 -11q-10 0 -10 10q0 24 10 64q5 3 30.5 12t72 18t86.5 9q120 0 185 -57t65 -140q0 -24 -15 -96l-39 -207 q-21 -102 -24 -172h-60q-18 0 -18 18q0 6 2 19t2 14l8 45h-8q-83 -104 -205 -104q-101 0 -160 57t-59 135zM299 913q0 -54 40.5 -93.5t111.5 -39.5q89 0 150 68.5t81 167.5l10 55h-149q-124 0 -184 -49t-60 -109z" />
<glyph unicode="&#xab;" horiz-adv-x="964" d="M102 481l424 414l56 -57l-363 -357l223 -354l-75 -59zM424 481l424 414l55 -57l-362 -357l223 -354l-76 -59z" />
<glyph unicode="&#xac;" d="M125 594l16 88h1049l-107 -551h-106l90 463h-942z" />
<glyph unicode="&#xad;" horiz-adv-x="880" d="M123 463l18 88h535l-19 -88h-534z" />
<glyph unicode="&#xae;" horiz-adv-x="845" d="M205 1040q0 152 104.5 253.5t257.5 101.5q128 0 203.5 -76.5t75.5 -192.5q0 -145 -100.5 -251.5t-262.5 -106.5q-133 0 -205.5 78.5t-72.5 193.5zM256 1044q0 -99 58.5 -163t172.5 -64q137 0 222.5 90t85.5 215q0 97 -61 160.5t-173 63.5q-134 0 -219.5 -90t-85.5 -212z M403 934l62 309h84q52 0 77 -22.5t25 -59.5q0 -26 -10.5 -45.5t-27 -29t-25 -12.5t-17.5 -5l50 -135h-58l-45 127h-35l-24 -127h-56zM492 1102h22q36 0 58 15.5t22 41.5q0 20 -15 32.5t-44 12.5h-23z" />
<glyph unicode="&#xaf;" horiz-adv-x="550" d="M41 1313l16 84h453l-16 -84h-453z" />
<glyph unicode="&#xb0;" horiz-adv-x="847" d="M164 1092q0 135 86 219t215 84q63 0 114.5 -22t82 -58t47 -78t16.5 -86q0 -142 -87 -224.5t-216 -82.5q-119 0 -188.5 74.5t-69.5 173.5zM248 1102q0 -78 51 -127t131 -49q89 0 150 65t61 146q0 72 -47 124t-129 52q-94 0 -155.5 -64.5t-61.5 -146.5z" />
<glyph unicode="&#xb1;" d="M20 0l17 88h1046l-16 -88h-1047zM145 643l17 88h469l90 461h106l-90 -461h471l-16 -88h-471l-90 -463h-107l90 463h-469z" />
<glyph unicode="&#xb2;" horiz-adv-x="534" d="M-20 690l10 51q188 180 217 207q97 94 136.5 147t39.5 111q0 47 -38 86t-101 39q-60 0 -125 -39l-25 51q58 46 150 46q103 0 156 -57t53 -130q0 -23 -4.5 -45.5t-16.5 -44.5t-21.5 -37.5t-30.5 -39t-31 -34t-36 -36t-34 -33.5l-189 -184h295l-12 -58h-393z" />
<glyph unicode="&#xb3;" horiz-adv-x="550" d="M20 696l9 64q45 -15 104 -15q89 0 149 42t60 110q0 53 -36.5 89t-112.5 36h-66l14 59h70q78 0 131 38.5t53 103.5q0 44 -34.5 76t-102.5 32q-59 0 -111 -26l-22 51q6 4 22 10.5t52 14.5t73 8q91 0 144 -49.5t53 -114.5q0 -40 -17 -73t-43.5 -53.5t-49 -33t-44.5 -18.5v-9 q38 -15 68.5 -53t30.5 -96q0 -91 -74 -149t-188 -58q-69 0 -132 14z" />
<glyph unicode="&#xb4;" horiz-adv-x="481" d="M41 1219l223 301h176l-305 -301h-94z" />
<glyph unicode="&#xb5;" d="M61 -473l289 1485h107q-99 -517 -111 -580q-18 -81 -18 -123q0 -100 60.5 -167.5t184.5 -67.5q122 0 223.5 105t135.5 280l106 553h109q-123 -631 -137 -703q-36 -189 -54 -309h-82q-24 0 -24 18q0 17 11 69t11 56h-8q-10 -15 -23 -30t-42 -40t-61 -43t-81.5 -32 t-103.5 -14q-182 0 -272 120l-113 -577h-107z" />
<glyph unicode="&#xb6;" horiz-adv-x="1128" d="M0 891q0 99 34 185t102.5 156t184.5 110t267 40h459l-17 -88h-143l-350 -1794h-107l350 1794h-280l-348 -1794h-109l209 1073q-42 11 -82.5 34t-80.5 60t-64.5 95t-24.5 129z" />
<glyph unicode="&#xb7;" horiz-adv-x="491" d="M164 438l26 137h138l-27 -137h-137z" />
<glyph unicode="&#xb8;" horiz-adv-x="430" d="M41 -475q31 6 59.5 14t67 24.5t66 37.5t47.5 54t20 73q0 44 -33 72t-90 28q-5 0 -21 -1t-20 -1l76 174h84l-88 -127q12 4 39 4q60 0 100.5 -35t40.5 -100q0 -46 -19.5 -87t-52 -70t-75 -50.5t-87 -33.5t-89.5 -15z" />
<glyph unicode="&#xb9;" horiz-adv-x="389" d="M41 1305q56 6 114 31.5t83 54.5h69l-137 -701h-72l119 610q-86 -51 -170 -55z" />
<glyph unicode="&#xba;" horiz-adv-x="999" d="M164 532l14 80h559l-14 -80h-559zM238 1006q0 167 98.5 278t257.5 111q127 0 205 -81.5t78 -205.5q0 -178 -101 -285.5t-252 -107.5q-131 0 -208.5 81.5t-77.5 209.5zM322 999q0 -93 56.5 -153t147.5 -60q116 0 191.5 90t75.5 234q0 89 -54.5 151t-152.5 62 q-112 0 -188 -88.5t-76 -235.5z" />
<glyph unicode="&#xbb;" horiz-adv-x="962" d="M41 129l360 360l-223 351l78 57l262 -414l-424 -413zM362 129l361 360l-223 351l78 57l262 -414l-424 -413z" />
<glyph unicode="&#xbc;" horiz-adv-x="1216" d="M0 0l1092 1382h84l-1092 -1382h-84zM195 1305q55 6 112 32t84 56h68l-135 -703h-74l119 610q-77 -48 -168 -55zM580 236l374 454h107l-88 -457h106l-10 -57h-106l-35 -176h-74l37 176h-301zM657 233h244l74 383h-8z" />
<glyph unicode="&#xbd;" horiz-adv-x="1257" d="M0 0l1092 1382h84l-1092 -1382h-84zM195 1305q55 6 112.5 31.5t83.5 54.5h68l-135 -701h-74l119 610q-77 -48 -168 -55zM743 0l11 51q188 180 217 207q97 94 136.5 147t39.5 111q0 47 -38 86t-101 39q-60 0 -125 -39l-25 51q56 45 150 45q54 0 95.5 -17t65.5 -45 t36 -59.5t12 -64.5q0 -27 -9 -55t-17 -46t-33 -47.5t-34 -39.5t-43 -43.5t-39 -38.5l-188 -185h295l-12 -57h-394z" />
<glyph unicode="&#xbe;" horiz-adv-x="1339" d="M123 0l1091 1382h84l-1091 -1382h-84zM160 696l8 64q45 -15 104 -15q89 0 149 42t60 110q0 53 -36.5 89t-112.5 36h-66l15 59h69q78 0 131.5 38.5t53.5 103.5q0 44 -35 76t-103 32q-58 0 -110 -26l-23 51q6 4 22.5 10.5t52.5 14.5t73 8q91 0 143.5 -49.5t52.5 -114.5 q0 -40 -16.5 -73t-43 -53.5t-49 -33t-44.5 -18.5v-9q38 -15 68 -53t30 -96q0 -91 -74 -149t-188 -58q-68 0 -131 14zM725 236l375 454h106l-88 -457h107l-11 -57h-106l-35 -176h-74l37 176h-301zM803 233h244l73 383h-8z" />
<glyph unicode="&#xbf;" horiz-adv-x="839" d="M0 -160q0 53 19.5 104.5t44.5 88t65 75t65 58t60 43.5q180 126 215 297l6 33h109q-7 -25 -9 -41q-12 -59 -35 -112t-44 -86t-55 -68t-50.5 -48.5t-46.5 -36.5q-8 -6 -43 -32.5t-53 -41t-48.5 -43.5t-46.5 -53t-29 -57.5t-13 -66.5q0 -92 72.5 -155t217.5 -63q92 0 215 41 l-26 -92q-123 -41 -213 -41q-177 0 -277 87.5t-100 209.5zM512 803l27 137h137l-27 -137h-137z" />
<glyph unicode="&#xc0;" horiz-adv-x="1165" d="M-123 0l791 1382h129l245 -1382h-120l-62 362h-653l-203 -362h-127zM258 453h588l-137 798h-9zM537 1808h135l106 -301h-53z" />
<glyph unicode="&#xc1;" horiz-adv-x="1202" d="M-123 0l791 1382h129l245 -1382h-122l-60 362h-653l-205 -362h-125zM256 453h588l-137 798h-9zM721 1507l223 301h135l-303 -301h-55z" />
<glyph unicode="&#xc2;" horiz-adv-x="1165" d="M-123 0h127l203 362h653l62 -362h120l-245 1382h-129zM258 453l442 798h9l137 -798h-588zM494 1507l235 301h160l129 -301h-49l-162 238l-254 -238h-59z" />
<glyph unicode="&#xc3;" horiz-adv-x="1239" d="M-123 0l789 1382h129l247 -1382h-122l-62 362h-653l-203 -362h-125zM256 453h588l-137 798h-9zM446 1653q23 29 81 62.5t130 33.5q64 0 139 -31.5t117 -31.5q59 0 102.5 19t65.5 38l35 -49q-97 -97 -209 -97q-67 0 -143 33t-117 33q-104 0 -168 -59z" />
<glyph unicode="&#xc4;" horiz-adv-x="1165" d="M-123 0l791 1382h129l245 -1382h-120l-62 362h-653l-203 -362h-127zM258 453h588l-137 798h-11zM518 1606l21 104h102l-20 -104h-103zM918 1606l20 104h104l-20 -104h-104z" />
<glyph unicode="&#xc5;" horiz-adv-x="1165" d="M-123 0l791 1382h129l245 -1382h-120l-62 362h-653l-203 -362h-127zM258 453h588l-137 798h-9zM565 1604q0 91 63.5 151t155.5 60q88 0 141.5 -53.5t53.5 -131.5q0 -93 -65 -153t-158 -60q-81 0 -136 52t-55 135zM631 1604q0 -56 37 -90.5t92 -34.5q61 0 106 43t45 108 q0 50 -35.5 86.5t-95.5 36.5q-58 0 -103.5 -42t-45.5 -107z" />
<glyph unicode="&#xc6;" horiz-adv-x="1693" d="M-205 0l1213 1382h727l-17 -88h-561l-104 -538h528l-16 -88h-529l-112 -580h559l-17 -88h-671l71 362h-610l-326 -362h-135zM334 451h551l155 800h-10z" />
<glyph unicode="&#xc7;" horiz-adv-x="1171" d="M123 598q0 169 56 315.5t157.5 253t251 167.5t327.5 61q100 0 184 -15.5t112 -27t42 -19.5l-20 -100q-23 12 -55 24.5t-111 29t-162 16.5q-135 0 -255.5 -49.5t-211 -139t-143.5 -225.5t-53 -299q0 -143 60.5 -260t173.5 -185.5t257 -68.5q88 0 169 23t118 42l-21 -110 q-13 -6 -36.5 -14t-86 -19t-133.5 -12l-71 -105q12 4 39 4q61 0 102 -35.5t41 -99.5q0 -57 -30 -105.5t-78.5 -79.5t-105 -49.5t-112.5 -21.5l-22 39q30 6 58 14t67 24.5t67 37.5t48 54t20 73q0 44 -34 72t-91 28q-5 0 -21 -1t-20 -1q13 23 68 154q-168 13 -293.5 101 t-188.5 220.5t-63 288.5z" />
<glyph unicode="&#xc8;" horiz-adv-x="1040" d="M143 0h670l16 88h-559l113 582h528l17 88h-529l105 536h559l18 88h-669zM686 1808h135l109 -301h-56z" />
<glyph unicode="&#xc9;" horiz-adv-x="1067" d="M143 0h670l16 88h-559l113 582h528l17 88h-529l105 536h559l18 88h-669zM752 1507l221 301h135l-303 -301h-53z" />
<glyph unicode="&#xca;" horiz-adv-x="1040" d="M143 0l269 1382h669l-18 -88h-559l-105 -536h529l-17 -88h-528l-113 -582h559l-16 -88h-670zM496 1507l239 301h158l127 -301h-55l-162 238l-254 -238h-53z" />
<glyph unicode="&#xcb;" horiz-adv-x="1040" d="M143 0h670l16 88h-559l113 582h528l17 88h-529l105 536h559l18 88h-669zM541 1606l20 104h103l-21 -104h-102zM940 1606h104l21 104h-104z" />
<glyph unicode="&#xcc;" horiz-adv-x="665" d="M225 0h111l268 1382h-110zM360 1808h136l106 -301h-53z" />
<glyph unicode="&#xcd;" horiz-adv-x="665" d="M225 0h111l268 1382h-110zM545 1507l221 301h137l-303 -301h-55z" />
<glyph unicode="&#xce;" horiz-adv-x="665" d="M225 0h111l268 1382h-110zM340 1606l20 104h105l-21 -104h-104zM741 1606h103l20 104h-102z" />
<glyph unicode="&#xcf;" horiz-adv-x="665" d="M225 0l269 1382h110l-268 -1382h-111zM311 1507l240 301h160l125 -301h-54l-164 238l-253 -238h-54z" />
<glyph unicode="&#xd0;" horiz-adv-x="1536" d="M143 659l17 89h157l121 624q171 19 318 19q134 0 244.5 -33t186 -89.5t127.5 -134.5t75.5 -166t23.5 -186q0 -191 -67 -343t-186 -250.5t-281.5 -150.5t-356.5 -52q-228 0 -350 14l129 659h-158zM301 94q92 -16 209 -16q131 0 247 26t216.5 82t173.5 137.5t114.5 199 t41.5 259.5q0 109 -37 202t-108 163.5t-183.5 110.5t-253.5 40q-47 0 -85 -4t-70.5 -10t-35.5 -6l-102 -530h455l-17 -89h-454z" />
<glyph unicode="&#xd1;" horiz-adv-x="1611" d="M143 0l269 1382h137l567 -1200h8l234 1200h110l-268 -1382h-125l-575 1229h-8l-238 -1229h-111zM674 1657q14 16 37.5 34.5t73.5 40t100 21.5q64 0 139.5 -32.5t116.5 -32.5q59 0 102.5 19t65.5 38l34 -47q-92 -96 -208 -96q-65 0 -142 31.5t-119 31.5q-100 0 -167 -57z " />
<glyph unicode="&#xd2;" horiz-adv-x="1525" d="M123 590q0 171 51 319t142.5 255.5t225.5 169t294 61.5q170 0 300 -78t198.5 -211.5t68.5 -300.5q0 -184 -55 -339t-150.5 -259.5t-224.5 -162.5t-277 -58q-176 0 -307 78.5t-198.5 214.5t-67.5 311zM242 563q0 -213 125.5 -349t326.5 -136q167 0 300.5 90.5t210.5 260.5 t77 390q0 98 -29 184.5t-84.5 154.5t-144 107.5t-199.5 39.5q-122 0 -228 -51t-185 -144.5t-124.5 -234.5t-45.5 -312zM612 1808h144l106 -301h-47z" />
<glyph unicode="&#xd3;" horiz-adv-x="1525" d="M123 590q0 229 87.5 411.5t251 288t376.5 105.5q170 0 299.5 -78t197.5 -211.5t68 -300.5q0 -184 -54.5 -339t-149.5 -259.5t-224 -162.5t-277 -58q-177 0 -308.5 78.5t-199 214.5t-67.5 311zM244 563q0 -214 124.5 -349.5t325.5 -135.5q257 0 423.5 204.5t166.5 536.5 q0 97 -29.5 184t-85 155t-144 107.5t-198.5 39.5q-122 0 -228 -51t-185 -144.5t-124.5 -234.5t-45.5 -312zM831 1507l211 301h154l-305 -301h-60z" />
<glyph unicode="&#xd4;" horiz-adv-x="1525" d="M123 590q0 171 51 319t142.5 255.5t225.5 169t294 61.5q170 0 300 -78t198.5 -211.5t68.5 -300.5q0 -184 -55 -339t-150 -259.5t-224 -162.5t-276 -58q-177 0 -308.5 78.5t-199 214.5t-67.5 311zM242 563q0 -213 125.5 -349t326.5 -136q126 0 234.5 53t186.5 148.5 t122.5 235t44.5 304.5q0 98 -29 184.5t-84.5 154.5t-144 107.5t-199.5 39.5q-121 0 -227 -51t-185 -144t-125 -234.5t-46 -312.5zM555 1507l236 301h159l129 -301h-49l-162 238l-254 -238h-59z" />
<glyph unicode="&#xd5;" horiz-adv-x="1523" d="M123 590q0 171 51 319t142.5 255.5t225.5 169t294 61.5q170 0 299.5 -78t197.5 -211.5t68 -300.5q0 -184 -54.5 -339t-149.5 -259.5t-224 -162.5t-277 -58q-177 0 -308 78.5t-198 214.5t-67 311zM242 563q0 -214 124.5 -349.5t325.5 -135.5q257 0 423.5 204.5 t166.5 536.5q0 98 -29 184.5t-84.5 154.5t-144 107.5t-199.5 39.5q-122 0 -228 -51t-185 -144.5t-124.5 -234.5t-45.5 -312zM510 1655q23 29 81 62.5t130 33.5q64 0 139.5 -32.5t116.5 -32.5q59 0 103.5 19.5t64.5 39.5l35 -49q-97 -97 -209 -97q-67 0 -143 33t-117 33 q-99 0 -168 -59z" />
<glyph unicode="&#xd6;" horiz-adv-x="1523" d="M123 590q0 171 51 319t142.5 255.5t225.5 169t294 61.5q170 0 299.5 -78t197.5 -211.5t68 -300.5q0 -184 -54.5 -339t-149.5 -259.5t-224 -162.5t-277 -58q-176 0 -307 78.5t-198.5 214.5t-67.5 311zM242 563q0 -213 125 -349t325 -136q257 0 423.5 204.5t166.5 536.5 q0 98 -29 184.5t-84.5 154.5t-144 107.5t-199.5 39.5q-122 0 -228 -51t-185 -144.5t-124.5 -234.5t-45.5 -312zM604 1608l19 104h104l-20 -104h-103zM1004 1608l20 104h104l-20 -104h-104z" />
<glyph unicode="&#xd7;" d="M143 285l402 338l-264 329l81 66l265 -328l401 336l62 -76l-402 -338l268 -331l-82 -66l-268 332l-401 -338z" />
<glyph unicode="&#xd8;" horiz-adv-x="1525" d="M123 588q0 170 51 318.5t143 256.5t226.5 170t294.5 62q145 0 260 -56l129 220l96 -41l-139 -232q105 -80 162 -205.5t57 -277.5q0 -184 -54.5 -338.5t-149.5 -259t-224 -162t-277 -57.5q-149 0 -260 51l-127 -213l-94 43l133 221q-109 80 -168 209.5t-59 290.5zM244 561 q0 -121 42.5 -221t121.5 -166l643 1079q-92 50 -224 50q-122 0 -228 -51t-185 -144.5t-124.5 -235t-45.5 -311.5zM483 123q92 -47 211 -47q257 0 423.5 204.5t166.5 536.5q0 115 -40.5 216t-117.5 167z" />
<glyph unicode="&#xd9;" horiz-adv-x="1474" d="M143 387q0 84 23 201l156 794h110l-147 -757q-31 -158 -31 -209q0 -73 20.5 -133t62.5 -107t113 -73.5t166 -26.5q170 0 282 114.5t151 311.5l172 880h110l-176 -903q-22 -112 -61 -198.5t-103 -154.5t-160.5 -104t-222.5 -36q-108 0 -198 34t-147.5 91t-88.5 128.5 t-31 147.5zM639 1808h135l107 -301h-54z" />
<glyph unicode="&#xda;" horiz-adv-x="1474" d="M143 387q0 84 23 201l156 794h110l-147 -757q-31 -158 -31 -209q0 -73 20.5 -133t62.5 -107t113 -73.5t166 -26.5q170 0 282 114.5t151 311.5l172 880h110l-176 -903q-22 -112 -61 -198.5t-103 -154.5t-160.5 -104t-222.5 -36q-108 0 -198 34t-147.5 91t-88.5 128.5 t-31 147.5zM809 1507l213 301h152l-304 -301h-61z" />
<glyph unicode="&#xdb;" horiz-adv-x="1474" d="M143 387q0 84 23 201l156 794h110l-147 -757q-31 -158 -31 -209q0 -73 20.5 -133t62.5 -107t113 -73.5t166 -26.5q170 0 282 114.5t151 311.5l172 880h110l-176 -903q-22 -112 -61 -198.5t-103 -154.5t-160.5 -104t-222.5 -36q-108 0 -198 34t-147.5 91t-88.5 128.5 t-31 147.5zM590 1507l241 301h158l127 -301h-55l-164 238l-252 -238h-55z" />
<glyph unicode="&#xdc;" horiz-adv-x="1474" d="M143 387q0 84 23 201l156 794h110l-147 -757q-31 -158 -31 -209q0 -73 20.5 -133t62.5 -107t113 -73.5t166 -26.5q170 0 282 114.5t151 311.5l172 880h110l-176 -903q-22 -112 -61 -198.5t-103 -154.5t-160.5 -104t-222.5 -36q-108 0 -198 34t-147.5 91t-88.5 128.5 t-31 147.5zM621 1606l20 102h102l-20 -102h-102zM1020 1606h104l21 102h-105z" />
<glyph unicode="&#xdd;" horiz-adv-x="978" d="M123 1382h110l220 -759l524 759h125l-617 -876l-98 -506h-111l99 506zM551 1507l211 301h153l-305 -301h-59z" />
<glyph unicode="&#xde;" horiz-adv-x="1153" d="M143 0l269 1382h110l-53 -272h149q217 0 335 -111.5t118 -283.5q0 -214 -161.5 -348t-430.5 -134q-119 0 -178 13l-47 -246h-111zM317 332q45 -10 170 -10q207 0 338 112.5t131 280.5q0 131 -87.5 219t-256.5 88q-125 0 -161 -6z" />
<glyph unicode="&#xdf;" horiz-adv-x="1132" d="M82 0l215 1104q19 105 65.5 185t109.5 126.5t132.5 69t143.5 22.5q75 0 136 -18t98.5 -45.5t63.5 -63t36 -68.5t10 -65q0 -100 -48.5 -162.5t-148.5 -113.5l-68 -35q-131 -68 -131 -170q0 -74 88 -145l64 -52q84 -65 127 -128t43 -150q0 -143 -112 -224t-294 -81 q-62 0 -118.5 7t-81 13t-31.5 10q5 39 18 74q10 23 23 23q5 0 31 -8.5t69 -17.5t90 -9q134 0 214.5 58t80.5 161q0 94 -110 184l-72 56q-31 23 -48.5 39t-42.5 45t-37.5 65t-12.5 78q0 154 184 250l68 35q74 38 108.5 83.5t34.5 112.5q0 63 -61.5 112.5t-176.5 49.5 q-125 0 -216 -75.5t-119 -221.5l-218 -1110h-106z" />
<glyph unicode="&#xe0;" horiz-adv-x="1005" d="M20 281q0 -120 90.5 -207.5t245.5 -87.5q196 0 328 161h8l-8 -51q-10 -50 -10 -67q0 -29 28 -29h80q1 23 5 57.5t8.5 62.5t12.5 73.5t11 66.5q5 27 28.5 145.5t33.5 172.5q2 11 6.5 34.5t7.5 38.5t5.5 36.5t2.5 39.5q0 127 -100.5 214t-282.5 87q-61 0 -133 -14.5 t-106.5 -26t-51.5 -18.5l-10 -68q0 -1 -1 -8.5t-1 -9.5q0 -17 14 -17q8 0 48.5 18t105.5 36t133 18q135 0 207 -62t72 -157q0 -15 -13 -90h-249q-134 0 -235.5 -27.5t-161 -76.5t-89 -110t-29.5 -134zM133 289q0 43 21 85.5t64 82t123 64t185 24.5h242q-14 -74 -18 -90 q-31 -160 -130 -269.5t-243 -109.5q-113 0 -178.5 64t-65.5 149zM387 1520h135l105 -301h-54z" />
<glyph unicode="&#xe1;" horiz-adv-x="1026" d="M20 281q0 -120 90.5 -207.5t245.5 -87.5q196 0 328 161h8l-10 -57q-8 -56 -8 -61q0 -29 28 -29h80q1 23 5 57.5t8.5 62.5t12.5 73.5t11 66.5q5 27 28.5 145.5t33.5 172.5q2 11 6.5 34.5t7.5 38.5t5.5 36.5t2.5 39.5q0 127 -100.5 214t-282.5 87q-61 0 -133 -14.5 t-106.5 -26t-51.5 -18.5l-10 -68q0 -1 -1 -8.5t-1 -9.5q0 -17 14 -17q8 0 48.5 18t105.5 36t133 18q135 0 207 -62t72 -157q0 -15 -13 -90h-249q-134 0 -235.5 -27.5t-161 -76.5t-89 -110t-29.5 -134zM133 289q0 43 21 85.5t64 82t123 64t185 24.5h242q-14 -74 -18 -90 q-31 -160 -130 -269.5t-243 -109.5q-113 0 -178.5 64t-65.5 149zM563 1219l223 301h138l-306 -301h-55z" />
<glyph unicode="&#xe2;" horiz-adv-x="1005" d="M20 281q0 -120 90.5 -207.5t245.5 -87.5q196 0 328 161h8l-12 -69q0 -2 -3 -21.5t-3 -27.5q0 -29 28 -29h80q1 23 5 57.5t8.5 62.5t12.5 73.5t11 66.5q5 27 28.5 145.5t33.5 172.5q2 11 6.5 34.5t7.5 38.5t5.5 36.5t2.5 39.5q0 127 -100.5 214t-282.5 87 q-61 0 -133 -14.5t-106.5 -26t-51.5 -18.5l-10 -68q0 -1 -1 -8.5t-1 -9.5q0 -17 14 -17q8 0 48.5 18t105.5 36t133 18q135 0 207 -62t72 -157q0 -15 -13 -90h-249q-134 0 -235.5 -27.5t-161 -76.5t-89 -110t-29.5 -134zM133 289q0 43 21 85.5t64 82t123 64t185 24.5h242 q-14 -74 -18 -90q-31 -160 -130 -269.5t-243 -109.5q-113 0 -178.5 64t-65.5 149zM344 1219l242 301h159l123 -301h-53l-162 235l-256 -235h-53z" />
<glyph unicode="&#xe3;" horiz-adv-x="1081" d="M20 281q0 73 29.5 134t89 110t161 76.5t235.5 27.5h249q13 75 13 90q0 95 -72 157t-207 62q-68 0 -133 -18t-105.5 -36t-48.5 -18q-14 0 -14 17q0 2 1 9.5t1 8.5l10 68q17 7 51.5 18.5t106.5 26t133 14.5q182 0 282.5 -87t100.5 -214q0 -23 -3 -46.5t-10.5 -59.5 t-8.5 -43q-10 -54 -33.5 -172.5t-28.5 -145.5q-3 -21 -11 -66.5t-12.5 -73.5t-8.5 -62.5t-5 -57.5h-80q-28 0 -28 29q0 6 2 19.5t4.5 28.5t3.5 19l8 51h-8q-132 -161 -328 -161q-155 0 -245.5 87.5t-90.5 207.5zM133 289q0 -85 65.5 -149t178.5 -64q144 0 243 109.5 t130 269.5l18 90h-242q-105 0 -185 -24.5t-123 -64t-64 -82t-21 -85.5zM309 1362q23 29 81 62.5t130 33.5q64 0 139.5 -31.5t116.5 -31.5q59 0 102.5 19t65.5 38l35 -49q-96 -96 -209 -96q-65 0 -141.5 32.5t-118.5 32.5q-107 0 -166 -59z" />
<glyph unicode="&#xe4;" horiz-adv-x="1005" d="M20 281q0 -120 90.5 -207.5t245.5 -87.5q196 0 328 161h8l-8 -45q-10 -62 -10 -73q0 -29 28 -29h80q1 23 5 57.5t8.5 62.5t12.5 73.5t11 66.5q5 27 28.5 145.5t33.5 172.5q2 11 6.5 34.5t7.5 38.5t5.5 36.5t2.5 39.5q0 127 -100.5 214t-282.5 87q-61 0 -133 -14.5 t-106.5 -26t-51.5 -18.5l-10 -68q0 -1 -1 -8.5t-1 -9.5q0 -17 14 -17q8 0 48.5 18t105.5 36t133 18q135 0 207 -62t72 -157q0 -15 -13 -90h-249q-134 0 -235.5 -27.5t-161 -76.5t-89 -110t-29.5 -134zM133 289q0 43 21 85.5t64 82t123 64t185 24.5h242q-14 -74 -18 -90 q-31 -160 -130 -269.5t-243 -109.5q-113 0 -178.5 64t-65.5 149zM369 1317l20 102h105l-21 -102h-104zM741 1317l21 102h104l-20 -102h-105z" />
<glyph unicode="&#xe5;" horiz-adv-x="1005" d="M20 281q0 73 29.5 134t89 110t161 76.5t235.5 27.5h249q13 75 13 90q0 95 -72 157t-207 62q-68 0 -133 -18t-105.5 -36t-48.5 -18q-14 0 -14 17q0 2 1 9.5t1 8.5l10 68q17 7 51.5 18.5t106.5 26t133 14.5q182 0 282.5 -87t100.5 -214q0 -23 -3 -46.5t-10.5 -59.5 t-8.5 -43q-10 -54 -33.5 -172.5t-28.5 -145.5q-3 -21 -11 -66.5t-12.5 -73.5t-8.5 -62.5t-5 -57.5h-80q-28 0 -28 29q0 6 2 19.5t4.5 29.5t3.5 20l8 49h-8q-132 -161 -328 -161q-155 0 -245.5 87.5t-90.5 207.5zM133 289q0 -85 65.5 -149t178.5 -64q144 0 243 109.5 t130 269.5l18 90h-242q-105 0 -185 -24.5t-123 -64t-64 -82t-21 -85.5zM424 1309q0 90 64.5 150.5t154.5 60.5q88 0 141.5 -53.5t53.5 -131.5q0 -93 -65.5 -153t-158.5 -60q-81 0 -135.5 52t-54.5 135zM492 1309q0 -56 37 -90.5t92 -34.5q59 0 104 43t45 108 q0 50 -34.5 86.5t-94.5 36.5q-58 0 -103.5 -42.5t-45.5 -106.5z" />
<glyph unicode="&#xe6;" horiz-adv-x="1794" d="M20 281q0 43 10 82t40.5 81t78.5 71.5t131 49t191 19.5h303q19 86 19 135q0 97 -72.5 158t-202.5 61q-68 0 -132.5 -18t-105 -36t-49.5 -18q-16 0 -16 19q0 21 14 84q148 59 291 59q139 0 230.5 -51t128.5 -137q146 188 405 188q190 0 299 -107.5t109 -273.5 q0 -72 -23 -149h-795q-2 -8 -2 -25q0 -84 32.5 -158.5t85.5 -126t122 -81t141 -29.5q74 0 129.5 13t85.5 26.5t41 13.5q21 0 21 -18q0 -35 -10 -80q-14 -7 -42 -16t-95 -20t-142 -11q-74 0 -141 19.5t-113.5 48t-85.5 66.5t-61 69.5t-37 62.5h-12q-10 -20 -21.5 -40 t-49.5 -65t-82.5 -77t-120.5 -58t-163 -26q-82 0 -147.5 25t-105 66.5t-60.5 93.5t-21 110zM133 291q0 -88 58.5 -150.5t170.5 -62.5q148 0 247.5 92t131.5 244l17 84h-273q-98 0 -170.5 -19t-110 -50.5t-54.5 -65.5t-17 -72zM883 584h698q0 2 3 31.5t3 50.5q0 46 -19.5 93 t-56 87.5t-98.5 66t-139 25.5t-142 -24.5t-107.5 -62.5t-74 -87t-47 -93.5t-20.5 -86.5z" />
<glyph unicode="&#xe7;" horiz-adv-x="968" d="M102 436q0 161 70.5 295.5t202.5 215.5t299 81q182 0 295 -63q-1 -8 -17 -74q-8 -25 -22 -25q-8 0 -29.5 11t-48 24t-77 24t-109.5 11q-125 0 -230 -70.5t-163 -181t-58 -231.5q0 -54 12 -106t39.5 -101.5t66.5 -87t97.5 -60t128.5 -22.5q56 0 106.5 16.5t81.5 33.5 t39 17q17 0 17 -18q0 -25 -15 -88q-13 -7 -39.5 -16.5t-77 -21t-96.5 -13.5l-71 -103q2 0 15 2t24 2q60 0 100.5 -36t40.5 -101q0 -57 -30 -105.5t-78.5 -79t-104 -48.5t-111.5 -21l-24 37q260 57 260 203q0 44 -33 73t-90 29q-7 0 -22 -2t-19 -2l68 154q-184 20 -291 148 t-107 300z" />
<glyph unicode="&#xe8;" horiz-adv-x="1142" d="M102 449q0 -72 20.5 -139.5t61 -126t97.5 -103t135 -69.5t168 -25q75 0 143 11t97.5 20t43.5 16l9 43q4 20 4 37q0 18 -21 18q-12 0 -42 -13.5t-85 -27.5t-129 -14q-73 0 -142 26t-124 72t-88 117t-33 155q0 17 2 25h795l8 33q8 34 13 70t5 73q0 167 -107.5 274 t-297.5 107q-108 0 -198 -34.5t-151 -92t-103.5 -133t-61.5 -156t-19 -163.5zM227 557q5 42 21 89.5t48.5 100.5t75.5 94.5t108.5 69t142.5 27.5q62 0 115 -17t89 -45t61.5 -64t37.5 -73t12 -73q0 -79 -12 -109h-699zM498 1520h135l104 -301h-53z" />
<glyph unicode="&#xe9;" horiz-adv-x="1142" d="M102 449q0 -72 20.5 -139.5t61 -126t97.5 -103t135 -69.5t168 -25q75 0 143 11t97.5 20t43.5 16l9 43q4 20 4 37q0 18 -21 18q-12 0 -42 -13.5t-85 -27.5t-129 -14q-73 0 -142 26t-124 72t-88 117t-33 155q0 17 2 25h795l8 33q8 34 13 70t5 73q0 167 -107.5 274 t-297.5 107q-108 0 -198 -34.5t-151 -92t-103.5 -133t-61.5 -156t-19 -163.5zM227 557q5 42 21 89.5t48.5 100.5t75.5 94.5t108.5 69t142.5 27.5q62 0 115 -17t89 -45t61.5 -64t37.5 -73t12 -73q0 -79 -12 -109h-699zM676 1219l223 301h135l-305 -301h-53z" />
<glyph unicode="&#xea;" horiz-adv-x="1142" d="M102 449q0 -72 20.5 -139.5t61 -126t97.5 -103t135 -69.5t168 -25q75 0 143 11t97.5 20t43.5 16l9 43q4 20 4 37q0 18 -21 18q-12 0 -42 -13.5t-85 -27.5t-129 -14q-73 0 -142 26t-124 72t-88 117t-33 155q0 17 2 25h795l8 33q8 34 13 70t5 73q0 167 -107.5 274 t-297.5 107q-108 0 -198 -34.5t-151 -92t-103.5 -133t-61.5 -156t-19 -163.5zM227 557q5 42 21 89.5t48.5 100.5t75.5 94.5t108.5 69t142.5 27.5q62 0 115 -17t89 -45t61.5 -64t37.5 -73t12 -73q0 -79 -12 -109h-699zM449 1219l241 301h160l123 -301h-55l-160 237l-256 -237 h-53z" />
<glyph unicode="&#xeb;" horiz-adv-x="1142" d="M102 449q0 -72 20.5 -139.5t61 -126t97.5 -103t135 -69.5t168 -25q75 0 143 11t97.5 20t43.5 16l9 43q4 20 4 37q0 18 -21 18q-12 0 -42 -13.5t-85 -27.5t-129 -14q-73 0 -142 26t-124 72t-88 117t-33 155q0 17 2 25h795l8 33q8 34 13 70t5 73q0 167 -107.5 274 t-297.5 107q-108 0 -198 -34.5t-151 -92t-103.5 -133t-61.5 -156t-19 -163.5zM227 557q5 42 21 89.5t48.5 100.5t75.5 94.5t108.5 69t142.5 27.5q62 0 115 -17t89 -45t61.5 -64t37.5 -73t12 -73q0 -79 -12 -109h-699zM481 1315l21 104h102l-20 -104h-103zM852 1315l20 104 h105l-21 -104h-104z" />
<glyph unicode="&#xec;" horiz-adv-x="466" d="M170 0h106l197 1012h-106zM248 1520h135l104 -301h-53z" />
<glyph unicode="&#xed;" horiz-adv-x="466" d="M164 0h106l197 1012h-107zM420 1219l223 301h135l-303 -301h-55z" />
<glyph unicode="&#xee;" horiz-adv-x="466" d="M162 0h108l197 1012h-109zM195 1219l241 301h160l123 -301h-53l-162 237l-256 -237h-53z" />
<glyph unicode="&#xef;" horiz-adv-x="466" d="M174 0h109l196 1012h-108zM236 1315l20 104h104l-20 -104h-104zM608 1315l21 104h104l-20 -104h-105z" />
<glyph unicode="&#xf0;" horiz-adv-x="1189" d="M102 432q0 169 66.5 304t191.5 213.5t287 78.5q166 0 283 -104l6 4q-44 193 -135 315l-219 -121l-29 74l197 111q-30 32 -97 82q-8 5 -8 16q0 23 55 78q28 -14 71.5 -50t74.5 -71l205 117l36 -74l-192 -107q26 -39 38 -58.5t45 -88.5t51 -133t34 -170.5t16 -222.5 q0 -150 -41 -272t-113.5 -202t-170.5 -122.5t-213 -42.5q-202 0 -320.5 124.5t-118.5 321.5zM211 418q0 -150 91.5 -246t238.5 -96q187 0 308.5 144t121.5 376q0 144 -87.5 243t-246.5 99q-183 0 -304.5 -141t-121.5 -379z" />
<glyph unicode="&#xf1;" horiz-adv-x="1216" d="M82 0h108q76 391 107 553q34 176 135 280.5t223 104.5q124 0 185 -68t61 -168q0 -21 -3 -44t-7.5 -48t-5.5 -30l-113 -580h107q79 406 112 582q19 92 19 133q0 138 -91.5 225.5t-242.5 87.5q-54 0 -103.5 -14t-81.5 -32.5t-61 -43.5t-42 -40t-23 -30h-9q0 2 6.5 30.5 t11.5 56.5t5 38q0 19 -25 19h-82q-19 -135 -53 -307zM426 1360q14 16 37.5 34.5t73.5 40t100 21.5q64 0 139.5 -32.5t116.5 -32.5q59 0 103.5 19.5t64.5 39.5l33 -49q-35 -39 -89 -67.5t-118 -28.5q-67 0 -143 31.5t-117 31.5q-101 0 -168 -57z" />
<glyph unicode="&#xf2;" horiz-adv-x="1183" d="M102 430q0 169 66.5 304.5t191.5 214.5t287 79q194 0 314 -125t120 -313q0 -136 -42 -250.5t-114.5 -191.5t-171 -119.5t-210.5 -42.5q-202 0 -321.5 124t-119.5 320zM213 416q0 -149 90.5 -244.5t237.5 -95.5q188 0 309 144t121 376q0 144 -87.5 243t-246.5 99 q-181 0 -302.5 -141.5t-121.5 -380.5zM508 1520h135l105 -301h-56z" />
<glyph unicode="&#xf3;" horiz-adv-x="1183" d="M102 430q0 169 66.5 304.5t191.5 214.5t287 79q194 0 314 -125t120 -313q0 -136 -42 -250.5t-114.5 -191.5t-171 -119.5t-210.5 -42.5q-202 0 -321.5 124t-119.5 320zM213 416q0 -149 90.5 -244.5t237.5 -95.5q188 0 309 144t121 376q0 144 -87.5 243t-246.5 99 q-181 0 -302.5 -141.5t-121.5 -380.5zM686 1219l223 301h135l-305 -301h-53z" />
<glyph unicode="&#xf4;" horiz-adv-x="1183" d="M102 430q0 169 66.5 304.5t191.5 214.5t287 79q194 0 314 -125t120 -313q0 -136 -42 -250.5t-114.5 -191.5t-171 -119.5t-210.5 -42.5q-202 0 -321.5 124t-119.5 320zM213 416q0 -149 90.5 -244.5t237.5 -95.5q188 0 309 144t121 376q0 144 -87.5 243t-246.5 99 q-181 0 -302.5 -141.5t-121.5 -380.5zM457 1219l241 301h160l123 -301h-53l-162 237l-256 -237h-53z" />
<glyph unicode="&#xf5;" horiz-adv-x="1183" d="M102 430q0 169 66.5 304.5t191.5 214.5t287 79q194 0 314 -125t120 -313q0 -136 -42 -250.5t-114.5 -191.5t-171 -119.5t-210.5 -42.5q-202 0 -321.5 124t-119.5 320zM213 416q0 -149 90.5 -244.5t237.5 -95.5q188 0 309 144t121 376q0 144 -87.5 243t-246.5 99 q-181 0 -302.5 -141.5t-121.5 -380.5zM377 1360q23 29 81 62.5t130 33.5q64 0 139.5 -31.5t116.5 -31.5q59 0 102.5 19t65.5 38l32 -49q-36 -38 -90 -67t-116 -29q-67 0 -143 32.5t-117 32.5q-99 0 -168 -59z" />
<glyph unicode="&#xf6;" horiz-adv-x="1183" d="M102 430q0 169 66.5 304.5t191.5 214.5t287 79q194 0 314 -125t120 -313q0 -136 -42 -250.5t-114.5 -191.5t-171 -119.5t-210.5 -42.5q-202 0 -321.5 124t-119.5 320zM213 416q0 -149 90.5 -244.5t237.5 -95.5q188 0 309 144t121 376q0 144 -87.5 243t-246.5 99 q-181 0 -302.5 -141.5t-121.5 -380.5zM492 1315l20 104h102l-20 -104h-102zM862 1315l21 104h104l-20 -104h-105z" />
<glyph unicode="&#xf7;" d="M102 573l17 89h1046l-16 -89h-1047zM471 215l31 160h160l-31 -160h-160zM596 848l31 160h159l-30 -160h-160z" />
<glyph unicode="&#xf8;" horiz-adv-x="1181" d="M102 430q0 169 66 304.5t191.5 214.5t287.5 79q24 0 70 -4l39 111h106l-47 -136q124 -47 194 -157t70 -252q0 -136 -42 -250.5t-114.5 -191.5t-171 -119.5t-210.5 -42.5q-39 0 -76 6l-47 -139h-107l56 161q-125 47 -195 157.5t-70 258.5zM211 416q0 -109 51 -193 t139 -121l289 832q-32 4 -53 4q-183 0 -304.5 -141.5t-121.5 -380.5zM492 78q14 -2 49 -2q187 0 307.5 144t120.5 376q0 105 -49 190t-140 125z" />
<glyph unicode="&#xf9;" horiz-adv-x="1132" d="M123 299q0 -138 92 -225.5t244 -87.5q105 0 183.5 44.5t125.5 114.5h8q-22 -99 -22 -127q0 -18 24 -18h84q13 94 51 311l138 701h-107q-79 -389 -108 -551q-30 -167 -134 -275t-225 -108q-124 0 -185 67t-61 168q0 35 19 121l110 578h-106q-80 -404 -113 -578 q-18 -87 -18 -135zM469 1520h135l105 -301h-54z" />
<glyph unicode="&#xfa;" horiz-adv-x="1132" d="M123 299q0 -138 92 -225.5t244 -87.5q105 0 183.5 44.5t125.5 114.5h8q-22 -99 -22 -127q0 -18 24 -18h84q13 94 51 311l138 701h-107q-79 -389 -108 -551q-30 -167 -134 -275t-225 -108q-124 0 -185 67t-61 168q0 35 19 121l110 578h-106q-80 -404 -113 -578 q-18 -87 -18 -135zM643 1219l223 301h138l-306 -301h-55z" />
<glyph unicode="&#xfb;" horiz-adv-x="1132" d="M123 299q0 -138 92 -225.5t244 -87.5q105 0 183.5 44.5t125.5 114.5h8q-22 -99 -22 -127q0 -18 24 -18h84q13 94 51 311l138 701h-107q-79 -389 -108 -551q-30 -167 -134 -275t-225 -108q-124 0 -185 67t-61 168q0 35 19 121l110 578h-106q-80 -404 -113 -578 q-18 -87 -18 -135zM422 1219l242 301h159l123 -301h-53l-162 235l-256 -235h-53z" />
<glyph unicode="&#xfc;" horiz-adv-x="1132" d="M123 299q0 -138 92 -225.5t244 -87.5q105 0 183.5 44.5t125.5 114.5h8q-22 -99 -22 -127q0 -18 24 -18h84q13 94 51 311l138 701h-107q-79 -389 -108 -551q-30 -167 -134 -275t-225 -108q-124 0 -185 67t-61 168q0 35 19 121l110 578h-106q-80 -404 -113 -578 q-18 -87 -18 -135zM451 1315l20 102h104l-20 -102h-104zM823 1315l21 102h104l-20 -102h-105z" />
<glyph unicode="&#xfd;" horiz-adv-x="946" d="M-246 -492q80 -16 144 -16q74 0 133 17t101.5 43t86 78t74 100.5t76.5 132.5l639 1149h-121l-473 -865h-8l-168 865h-121l209 -1012q-45 -84 -88 -162q-70 -130 -145.5 -193t-180.5 -63q-40 0 -77 8.5t-38 8.5q-16 0 -26 -27zM578 1219l225 301h135l-305 -301h-55z" />
<glyph unicode="&#xfe;" horiz-adv-x="1132" d="M-20 -471l376 1941h109l-119 -612h8q14 22 32 43.5t54.5 54t92 52.5t120.5 20q96 0 170.5 -35t118.5 -93t66 -125.5t22 -139.5q0 -146 -48.5 -268.5t-132 -205.5t-197 -129t-242.5 -46q-56 0 -129 11t-99 17l-94 -485h-108zM199 106q14 -7 75.5 -18.5t122.5 -11.5 q102 0 197 42t167 115.5t115.5 181.5t43.5 232q0 120 -72 205.5t-199 85.5t-233.5 -128t-149.5 -357z" />
<glyph unicode="&#xff;" horiz-adv-x="946" d="M-246 -492q80 -16 144 -16q74 0 133 17t101.5 43t86 78t74 100.5t76.5 132.5l639 1149h-121l-473 -865h-8l-168 865h-121l209 -1012q-45 -84 -88 -162q-70 -130 -145.5 -193t-180.5 -63q-40 0 -77 8.5t-38 8.5q-16 0 -26 -27zM383 1313l20 104h105l-21 -104h-104z M756 1313l20 104h105l-21 -104h-104z" />
<glyph unicode="&#x152;" horiz-adv-x="2043" d="M123 588q0 170 51 319t142.5 257t225.5 170.5t294 62.5q183 0 318 -90.5t198 -245.5l61 321h672l-19 -88h-559l-104 -538h528l-16 -88h-529l-114 -580h561l-16 -88h-672l37 193q-94 -100 -219 -153.5t-267 -53.5q-177 0 -308 78t-198 213.5t-67 310.5zM242 561 q0 -213 124.5 -349t325.5 -136q168 0 301.5 91t210 260t76.5 388q0 98 -29 185.5t-84.5 156t-144 108.5t-199.5 40q-121 0 -226.5 -51.5t-184.5 -145.5t-124.5 -235.5t-45.5 -311.5z" />
<glyph unicode="&#x153;" horiz-adv-x="2000" d="M102 430q0 169 66 304.5t191.5 214.5t287.5 79q141 0 245 -68.5t152 -185.5q66 116 178.5 185t268.5 69q191 0 299 -107t108 -274q0 -84 -24 -176h-797q-2 -6 -2 -27q0 -110 56.5 -196t143.5 -129t185 -43q74 0 129.5 14t86 27.5t42.5 13.5q19 0 19 -18q0 -11 -11 -80 q-14 -7 -43.5 -16t-97.5 -20t-143 -11q-160 0 -275 74.5t-168 197.5q-71 -129 -191 -200.5t-267 -71.5q-202 0 -320.5 124t-118.5 320zM211 416q0 -149 91.5 -244.5t238.5 -95.5q187 0 307.5 144t120.5 376q0 93 -36 169t-113 124.5t-183 48.5q-183 0 -304.5 -141.5 t-121.5 -380.5zM1083 557h701q10 50 10 109q0 46 -19.5 93t-56 87.5t-98.5 66t-139 25.5t-142.5 -27.5t-109 -69.5t-76 -94.5t-49 -100t-21.5 -89.5z" />
<glyph unicode="&#x178;" horiz-adv-x="978" d="M123 1382h110l220 -759l524 759h125l-617 -876l-98 -506h-111l99 506zM373 1608l20 104h105l-21 -104h-104zM774 1608l19 104h104l-20 -104h-103z" />
<glyph unicode="&#x2c6;" horiz-adv-x="606" d="M41 1219l242 301h157l125 -301h-55l-160 237l-256 -237h-53z" />
<glyph unicode="&#x2dc;" horiz-adv-x="751" d="M41 1368q14 16 38 34.5t74 40t99 21.5q64 0 139.5 -32.5t116.5 -32.5q59 0 103.5 19.5t64.5 39.5l35 -49q-96 -96 -209 -96q-65 0 -141.5 32.5t-118.5 32.5q-102 0 -166 -59z" />
<glyph unicode="&#x2000;" horiz-adv-x="907" />
<glyph unicode="&#x2001;" horiz-adv-x="1815" />
<glyph unicode="&#x2002;" horiz-adv-x="907" />
<glyph unicode="&#x2003;" horiz-adv-x="1815" />
<glyph unicode="&#x2004;" horiz-adv-x="605" />
<glyph unicode="&#x2005;" horiz-adv-x="453" />
<glyph unicode="&#x2006;" horiz-adv-x="302" />
<glyph unicode="&#x2007;" horiz-adv-x="302" />
<glyph unicode="&#x2008;" horiz-adv-x="226" />
<glyph unicode="&#x2009;" horiz-adv-x="363" />
<glyph unicode="&#x200a;" horiz-adv-x="100" />
<glyph unicode="&#x2010;" horiz-adv-x="880" d="M123 463l18 88h535l-19 -88h-534z" />
<glyph unicode="&#x2011;" horiz-adv-x="880" d="M123 463l18 88h535l-19 -88h-534z" />
<glyph unicode="&#x2012;" horiz-adv-x="880" d="M123 463l18 88h535l-19 -88h-534z" />
<glyph unicode="&#x2013;" horiz-adv-x="1241" d="M123 463l18 88h895l-18 -88h-895z" />
<glyph unicode="&#x2014;" horiz-adv-x="1603" d="M123 463l18 88h1258l-19 -88h-1257z" />
<glyph unicode="&#x2018;" horiz-adv-x="358" d="M164 1067q10 47 20 96q14 83 56.5 133.5t138.5 110.5l20 -35q-124 -78 -139 -168h68l-27 -137h-137z" />
<glyph unicode="&#x2019;" horiz-adv-x="356" d="M164 1077q56 35 93 79.5t44 90.5h-68l27 135h137q-10 -47 -18 -96q-17 -81 -59.5 -132t-137.5 -112z" />
<glyph unicode="&#x201a;" horiz-adv-x="403" d="M-41 -166q106 65 127 166h-78l31 160h160l-31 -160q-9 -47 -44.5 -91.5t-73 -70t-73.5 -41.5z" />
<glyph unicode="&#x201c;" horiz-adv-x="598" d="M164 1067q10 47 20 96q14 83 56.5 133.5t138.5 110.5l20 -35q-124 -78 -139 -168h68l-27 -137h-137zM406 1067q8 47 18 96q14 83 56.5 133.5t137.5 110.5l21 -35q-55 -35 -92.5 -79t-46.5 -89h67l-26 -137h-135z" />
<glyph unicode="&#x201d;" horiz-adv-x="595" d="M164 1077q55 34 91.5 79t45.5 91h-68l27 135h135q-8 -47 -18 -96q-14 -81 -56.5 -131.5t-138.5 -112.5zM403 1077q123 77 138 170h-68l27 135h137q-11 -47 -21 -96q-14 -81 -56 -131.5t-138 -112.5z" />
<glyph unicode="&#x201e;" horiz-adv-x="659" d="M-41 -166q106 65 127 166h-78l31 160h160l-31 -160q-9 -47 -44.5 -91.5t-73 -70t-73.5 -41.5zM215 -166q106 65 127 166h-78l31 160h160l-31 -160q-9 -47 -44.5 -91.5t-73 -70t-73.5 -41.5z" />
<glyph unicode="&#x2022;" horiz-adv-x="544" d="M164 414l35 182h182l-35 -182h-182z" />
<glyph unicode="&#x2026;" horiz-adv-x="1421" d="M0 0l27 137h137l-27 -137h-137zM526 0l27 137h137l-26 -137h-138zM1053 0l26 137h138l-27 -137h-137z" />
<glyph unicode="&#x202f;" horiz-adv-x="363" />
<glyph unicode="&#x2039;" horiz-adv-x="641" d="M102 483l422 412l56 -57l-363 -359l225 -352l-71 -51z" />
<glyph unicode="&#x203a;" horiz-adv-x="786" d="M113 127l362 360l-235 342l75 58l277 -404l-428 -411z" />
<glyph unicode="&#x205f;" horiz-adv-x="453" />
<glyph unicode="&#x20ac;" d="M41 520l63 88h132q0 108 24 207h-162l64 88h125q81 226 275.5 359t465.5 133q180 0 303 -45l-41 -93q-131 46 -272 46q-202 0 -365 -105.5t-241 -294.5h718l-40 -88h-707q-26 -103 -29 -207h643l-39 -88h-600q22 -194 155.5 -319t332.5 -125q130 0 287 65l-23 -110 q-9 -6 -36.5 -15t-93 -19.5t-140.5 -10.5q-129 0 -237 42t-183 115t-121.5 169.5t-58.5 207.5h-199z" />
<glyph unicode="&#x2122;" horiz-adv-x="837" d="M205 1335l10 47h250l-8 -47h-101l-61 -319h-53l63 319h-100zM430 1016l129 366h51l31 -266h8l131 266h58l-17 -366h-51l16 270h-8l-135 -270h-43l-25 268h-8l-88 -268h-49z" />
<glyph unicode="&#xe000;" horiz-adv-x="1013" d="M0 0v1014h1014v-1014h-1014z" />
<glyph unicode="&#xfb03;" horiz-adv-x="1402" d="M113 0q112 583 180 926h-176l16 86h176q17 87 21 110q35 195 131.5 276t259.5 81q103 0 160 -19l-11 -57q-4 -20 -10.5 -26.5t-19.5 -6.5q-4 0 -51.5 9.5t-86.5 9.5q-218 0 -264 -267l-20 -110h352q14 65 18 88q36 202 138.5 290.5t275.5 88.5q103 0 160 -19l-10 -57 q-7 -33 -31 -33q-4 0 -51 9.5t-86 9.5q-121 0 -190.5 -65t-94.5 -202l-20 -110h452l-196 -1012h-109l180 926h-344l-180 -926h-109l181 926h-355l-180 -926h-106z" />
<glyph unicode="&#xfb04;" horiz-adv-x="1415" d="M113 0q112 583 178 926h-176l16 86h178q17 89 21 112q34 194 130.5 274.5t260.5 80.5q103 0 160 -19l-13 -57q-3 -19 -10 -26t-20 -7q-3 0 -50.5 9.5t-87.5 9.5q-107 0 -173.5 -66.5t-88.5 -198.5l-22 -112h354q12 67 16 90q37 202 139.5 289.5t276.5 87.5q44 0 97 -8 t80.5 -14t35.5 -9l-282 -1448h-107l266 1374q-63 15 -110 15q-120 0 -189 -64.5t-94 -200.5l-22 -112h221l-17 -86h-221l-180 -926h-107l181 926h-355l-180 -926h-106z" />
</font>
</defs>
</svg>
