<?xml version="1.0" standalone="no"?>
<!DOCTYPE svg PUBLIC "-//W3C//DTD SVG 1.1//EN" "http://www.w3.org/Graphics/SVG/1.1/DTD/svg11.dtd" >
<svg xmlns="http://www.w3.org/2000/svg">
<metadata></metadata>
<defs>
<font id="AmericanItalic" horiz-adv-x="1280" >
<font-face units-per-em="2048" ascent="1536" descent="-512" />
<missing-glyph horiz-adv-x="512" />
<glyph unicode="&#xfb01;" horiz-adv-x="1077" d="M133 883l25 129h178q18 98 22 121q73 374 445 374q121 0 254 -43q-15 -66 -25 -92q-12 -29 -31 -29q-10 0 -77 18.5t-140 18.5q-114 0 -182.5 -69.5t-91.5 -186.5l-23 -112h521l-197 -1012h-152l172 883h-368l-172 -883h-152q104 542 172 883h-178z" />
<glyph unicode="&#xfb02;" horiz-adv-x="1097" d="M133 883l25 129h178q20 108 26 131q34 182 148 273t283 91q88 0 162 -9t102 -16.5t41 -13.5l-285 -1468h-151l264 1358q-59 22 -138 22q-226 0 -280 -256l-21 -112h232l-25 -129h-231l-172 -883h-152q104 542 172 883h-178z" />
<glyph horiz-adv-x="0" />
<glyph horiz-adv-x="0" />
<glyph unicode="&#xd;" horiz-adv-x="737" />
<glyph unicode=" "  horiz-adv-x="512" />
<glyph unicode="&#x09;" horiz-adv-x="512" />
<glyph unicode="&#xa0;" horiz-adv-x="512" />
<glyph unicode="!" horiz-adv-x="677" d="M164 0l31 160h159l-30 -160h-160zM264 406l168 974h164l-213 -974h-119z" />
<glyph unicode="&#x22;" horiz-adv-x="571" d="M205 1012l28 368h162l-114 -368h-76zM463 1012l29 368h161l-114 -368h-76z" />
<glyph unicode="#" d="M14 358l25 127h248l125 414h-236l25 125h250l108 356h139l-108 -356h295l108 356h140l-107 -356h238l-25 -125h-252l-125 -414h240l-25 -127h-252l-108 -358h-139l106 358h-293l-108 -358h-140l107 358h-236zM428 485h295l125 414h-295z" />
<glyph unicode="$" d="M123 16l29 150q122 -49 268 -49q169 0 284 74.5t115 191.5q0 82 -49 138.5t-139 105.5l-119 63q-105 57 -163 133.5t-58 192.5q0 147 101.5 246.5t285.5 128.5l33 172h157l-30 -162q159 -2 260 -33l-29 -143q-122 39 -278 39q-142 0 -239 -64t-97 -178q0 -128 155 -213 l111 -59q129 -69 194.5 -150.5t65.5 -191.5q0 -169 -113 -277.5t-305 -138.5l-39 -207h-157l36 195q-178 0 -280 36z" />
<glyph unicode="%" horiz-adv-x="1665" d="M205 948q0 196 99 324.5t249 128.5q118 0 182 -75t64 -185q0 -200 -101.5 -326.5t-246.5 -126.5q-119 0 -182.5 75.5t-63.5 184.5zM252 0l1094 1380h137l-1094 -1380h-137zM322 958q0 -76 34.5 -128t102.5 -52q90 0 155.5 101.5t65.5 253.5q0 78 -34.5 128t-100.5 50 q-94 0 -158.5 -105t-64.5 -248zM948 238q0 196 99 324t249 128q118 0 182 -75t64 -185q0 -199 -100.5 -324.5t-245.5 -125.5q-121 0 -184.5 74.5t-63.5 183.5zM1067 248q0 -76 34 -128t101 -52q90 0 156.5 101t66.5 253q0 78 -35 129t-100 51q-95 0 -159 -105t-64 -249z" />
<glyph unicode="&#x26;" horiz-adv-x="1413" d="M82 367q0 55 16 105.5t37 86.5t59 71.5t64 55.5t71.5 44t61.5 31t53 23q-30 49 -47 79.5t-37 91t-20 116.5q0 157 97.5 243.5t248.5 86.5q157 0 241.5 -77t84.5 -183q0 -62 -25.5 -117.5t-53.5 -89.5t-88.5 -73.5t-87.5 -53.5t-94 -45l-12 -6q62 -94 151.5 -207.5 t174.5 -198.5q155 203 205 451h149q-7 -133 -82.5 -290t-171.5 -261l160 -162l-123 -115q-115 117 -158 162q-25 -21 -55.5 -40.5t-88 -49t-134.5 -47.5t-160 -18q-182 0 -309 113t-127 274zM248 367q0 -104 77 -178t222 -74q154 0 315 118q-146 146 -348 443 q-23 -12 -36 -19.5t-44.5 -27t-52.5 -36.5t-48.5 -44t-44 -53t-28.5 -60t-12 -69zM500 1087q0 -95 80 -227q36 18 49 25t48.5 27.5t52.5 33t44 35.5t40 43t23.5 46.5t10.5 53.5q0 54 -40.5 97t-125.5 43q-78 0 -130 -48.5t-52 -128.5z" />
<glyph unicode="'" horiz-adv-x="313" d="M205 1012l31 368h159l-112 -368h-78z" />
<glyph unicode="(" horiz-adv-x="737" d="M164 178q0 129 22 258t57.5 235.5t83 207.5t96 178.5t99 145t89 109t69.5 68.5h139q-37 -38 -70.5 -76t-87.5 -109.5t-98 -143.5t-93 -175t-82 -209t-55 -240.5t-22 -272.5q0 -217 41 -416.5t84 -321.5h-117q-155 374 -155 762z" />
<glyph unicode=")" horiz-adv-x="735" d="M-164 -582q38 39 70 76t86.5 109t98 143.5t92.5 175t82 209t55 240t22 272.5q0 218 -41.5 418.5t-83.5 318.5h117q155 -366 155 -759q0 -129 -22 -258t-57.5 -235.5t-83 -208t-96 -179t-99 -145t-89 -109t-69.5 -68.5h-137z" />
<glyph unicode="*" horiz-adv-x="808" d="M205 1135l59 110l203 -94v229h127l-68 -231l230 96l12 -104l-236 -58l123 -170l-100 -63l-86 199l-154 -203l-75 61l184 183z" />
<glyph unicode="+" d="M82 555l24 127h453l86 442h158l-86 -442h438l-25 -127h-438l-86 -442h-157l86 442h-453z" />
<glyph unicode="," horiz-adv-x="362" d="M-41 -166q45 24 80.5 67.5t46.5 98.5h-78l31 160h160l-31 -160q-8 -43 -30.5 -80t-51 -61.5t-55.5 -39.5t-51 -22z" />
<glyph unicode="-" horiz-adv-x="784" d="M123 432l24 127h494l-25 -127h-493z" />
<glyph unicode="." horiz-adv-x="354" d="M0 0l31 160h159l-30 -160h-160z" />
<glyph unicode="/" horiz-adv-x="757" d="M0 0l795 1380h147l-795 -1380h-147z" />
<glyph unicode="0" d="M102 498q0 258 82 465t226 322.5t323 115.5q109 0 196 -42t140 -114.5t81 -164.5t28 -197q0 -200 -50.5 -371t-136 -286.5t-200 -180.5t-242.5 -65q-111 0 -198.5 42.5t-140.5 115t-80.5 164.5t-27.5 196zM262 504q0 -61 10 -116.5t32.5 -105.5t55.5 -86.5t81.5 -57.5 t107.5 -21q92 0 177 57t149.5 156t103.5 242.5t39 306.5q0 108 -30.5 193.5t-97 138.5t-159.5 53q-130 0 -238.5 -105t-169.5 -279.5t-61 -375.5z" />
<glyph unicode="1" d="M334 1106l6 135q110 9 216 54.5t159 105.5h147l-272 -1401h-156l234 1206q-167 -81 -334 -100z" />
<glyph unicode="2" d="M72 0l28 152q359 323 414 374q49 44 63 57t57.5 53.5t58.5 56.5t49 52.5t47 56.5t35 53t30 57.5t15.5 54.5t7.5 59q0 93 -77 165.5t-206 72.5q-120 0 -248 -82l-33 133q21 14 50 29t106 36t158 21q104 0 186 -32t130.5 -85.5t73.5 -118.5t25 -137q0 -44 -10.5 -88.5 t-26 -80.5t-42.5 -76.5t-50 -69t-59 -65t-59 -58t-60.5 -55.5t-54.5 -50l-373 -354h578l-27 -131h-786z" />
<glyph unicode="3" d="M123 4l14 135q22 -6 89.5 -15t119.5 -9q175 0 288.5 92t113.5 213q0 94 -69.5 159.5t-217.5 65.5h-123l24 127h132q149 0 253.5 78t104.5 199q0 87 -64.5 150t-191.5 63q-65 0 -132.5 -22t-96.5 -38l-13 135q16 9 47.5 21.5t96.5 27.5t127 15q97 0 173.5 -29t123 -77 t70.5 -106.5t24 -121.5q0 -82 -29.5 -149t-77 -109t-96.5 -67t-100 -35v-9q19 -4 41.5 -14.5t51 -33.5t51.5 -52.5t38.5 -77t15.5 -102.5q0 -129 -74 -229.5t-202 -154.5t-287 -54q-54 0 -108 5.5t-81 10.5t-36 8z" />
<glyph unicode="4" d="M102 537l732 843h233l-170 -872h252l-25 -127h-252l-73 -381h-156l74 381h-602zM254 508h487l142 723h-9z" />
<glyph unicode="5" d="M123 0l18 141q108 -24 226 -24q183 0 310.5 93.5t127.5 229.5q0 52 -19.5 99.5t-60 89t-113 66t-168.5 24.5q-56 0 -151 -19l131 680h672l-25 -127h-514l-80 -417q18 6 64 6q89 0 162.5 -23t122 -61.5t81.5 -90t47.5 -106t14.5 -112.5q0 -202 -167.5 -335.5 t-457.5 -133.5q-77 0 -141 7t-80 13z" />
<glyph unicode="6" d="M129 459q0 143 32.5 278t101 256t165.5 211.5t235.5 143.5t301.5 53q93 0 221 -19l-47 -141q-22 7 -83 15t-124 8q-77 0 -147.5 -19.5t-124 -51.5t-100 -75.5t-79 -89t-58 -93.5t-40 -88t-21.5 -75l7 -2q14 13 33 25.5t59 34.5t98.5 35.5t124.5 13.5q106 0 190 -33.5 t136.5 -90.5t80 -128.5t27.5 -151.5q0 -97 -35 -185t-99.5 -157.5t-166 -111t-225.5 -41.5q-101 0 -181.5 27t-132.5 72t-86 108t-48.5 130t-14.5 142zM311 399q0 -114 78.5 -197t216.5 -83q147 0 244.5 101t97.5 243q0 109 -77.5 192.5t-208.5 83.5q-156 0 -253.5 -101.5 t-97.5 -238.5z" />
<glyph unicode="7" d="M262 0q64 199 193.5 442.5t267.5 448t270 362.5h-684l25 127h833l-26 -135q-137 -175 -262 -363.5t-248.5 -428t-190.5 -453.5h-178z" />
<glyph unicode="8" d="M143 328q0 55 17 105t39.5 85.5t61.5 69.5t66.5 53t72 40.5t59.5 27.5t47 18q-36 23 -63.5 46.5t-61 62t-52 92t-18.5 116.5q0 159 120 258t331 99q95 0 171.5 -28t122.5 -73t70.5 -98t24.5 -108q0 -47 -12 -90t-30.5 -76t-48.5 -64t-56.5 -52.5t-65 -44t-63.5 -35.5 t-62 -30q238 -152 238 -327t-139 -285t-363 -110q-186 0 -296 100.5t-110 247.5zM309 330q0 -86 76 -149.5t195 -63.5q126 0 212.5 69.5t86.5 165.5q0 81 -59 146.5t-175 132.5q-38 -11 -75.5 -25.5t-87 -42t-86 -58.5t-62 -77.5t-25.5 -97.5zM481 1055q0 -80 47.5 -137.5 t145.5 -122.5q48 20 79.5 35t79.5 44.5t77 57t51 68.5t22 85q0 77 -61 129t-172 52q-113 0 -191 -59t-78 -152z" />
<glyph unicode="9" d="M102 -2l45 141q84 -22 207 -22q107 0 200 37t155 92t109.5 124.5t71.5 128.5t34 109l-6 2q-14 -12 -33 -25t-59 -34.5t-99 -35t-125 -13.5q-105 0 -189 33.5t-136.5 90t-80.5 128t-28 151.5q0 96 35 184.5t99.5 158.5t166.5 111.5t225 41.5q102 0 182.5 -27.5t132 -72.5 t86 -108t48.5 -129.5t14 -141.5q0 -143 -32 -278t-100 -256t-164.5 -211.5t-235 -143.5t-301.5 -53q-110 0 -222 18zM338 918q0 -110 78 -193.5t209 -83.5q157 0 254.5 101t97.5 239q0 114 -78.5 197.5t-216.5 83.5q-148 0 -246 -101t-98 -243z" />
<glyph unicode=":" horiz-adv-x="473" d="M41 0l31 160h159l-30 -160h-160zM160 618l30 160h160l-31 -160h-159z" />
<glyph unicode=";" horiz-adv-x="524" d="M41 -166q45 24 80.5 67.5t46.5 98.5h-78l31 160h160l-31 -160q-11 -56 -47 -102t-72.5 -69t-69.5 -32zM209 618l33 160h159l-32 -160h-160z" />
<glyph unicode="&#x3c;" d="M238 614l718 570l86 -103l-593 -473l397 -481l-123 -98z" />
<glyph unicode="=" d="M139 348l25 127h895l-25 -127h-895zM219 768l25 125h895l-25 -125h-895z" />
<glyph unicode="&#x3e;" d="M238 147l593 474l-397 481l123 98l485 -586l-716 -569z" />
<glyph unicode="?" horiz-adv-x="899" d="M123 0l31 160h159l-30 -160h-160zM147 1219l48 141q119 41 241 41q91 0 166 -28t120.5 -73.5t70 -99.5t24.5 -108q0 -45 -12 -87t-26.5 -70t-42.5 -60.5t-44.5 -47.5t-48.5 -43q-5 -5 -65 -57q-42 -36 -65.5 -58.5t-62 -63t-61.5 -81t-31 -80.5l-8 -41h-157q6 27 8 41 q14 70 41.5 130t67.5 108t62 70t60 55q13 11 56.5 46t63 53t47.5 49.5t40 62.5t12 65q0 76 -71.5 128.5t-212.5 52.5q-42 0 -94.5 -10.5t-80.5 -19t-45 -15.5z" />
<glyph unicode="@" horiz-adv-x="1765" d="M164 612q0 165 68 311t186 251t285.5 166t359.5 61q125 0 232 -32.5t180.5 -86t126 -122.5t77 -141.5t25.5 -144.5v-4q0 -94 -30.5 -177.5t-81 -143t-114.5 -103t-132 -65t-132 -21.5q-110 0 -159 44.5t-47 101.5h-9q-104 -144 -249 -144q-92 0 -150.5 65t-58.5 169 q0 92 42 181.5t110.5 156.5t163 108t194.5 41q157 0 249 -41q-139 -364 -159 -419q-2 -6 -11.5 -29.5t-15.5 -44t-6 -35.5q0 -36 28 -58t70 -22q65 0 129.5 34t116.5 92.5t84.5 147.5t32.5 191q0 86 -33 163t-95.5 138t-161.5 97t-222 36q-204 0 -375.5 -92t-274 -260 t-102.5 -377q0 -111 37 -211t105 -176t173 -121t232 -45q42 0 80 3.5t67.5 10.5t48.5 12.5t41 13t27 9.5l-18 -96q-84 -24 -273 -24t-341 84t-236 228.5t-84 319.5zM688 596q0 -60 31.5 -96.5t89.5 -36.5q71 0 128 68t97 174l103 262q-40 16 -111 16q-128 0 -233 -117 t-105 -270z" />
<glyph unicode="A" horiz-adv-x="1241" d="M-82 0l787 1380h165l248 -1380h-170l-55 338h-614l-187 -338h-174zM348 465h524l-120 729h-9z" />
<glyph unicode="B" horiz-adv-x="1257" d="M123 0l268 1380h350q89 0 160.5 -19.5t118 -51.5t78 -75t44.5 -87t13 -90q0 -52 -14.5 -98t-36.5 -79t-52 -60.5t-58.5 -45t-59.5 -31t-50 -19.5t-34 -9l-2 -8q11 -3 33 -12.5t54.5 -33.5t60 -54.5t47.5 -80t20 -106.5q0 -186 -152.5 -303t-418.5 -117h-369zM305 129 q44 -8 178 -8q105 0 199 39.5t153.5 112.5t59.5 161q0 98 -76 158.5t-233 60.5h-178zM432 776h178q95 0 180.5 33t141 97.5t55.5 146.5q0 91 -72 147.5t-213 56.5q-37 0 -79.5 -1t-70 -2t-28.5 -1z" />
<glyph unicode="C" horiz-adv-x="1179" d="M123 594q0 185 61 338t167.5 255t250 158t307.5 56q99 0 206.5 -21.5t146.5 -38.5l-62 -145q-146 68 -307 68q-83 0 -166 -24.5t-161.5 -77.5t-139 -129t-97 -187.5t-36.5 -243.5t53 -241.5t157.5 -176.5t241.5 -67q133 0 263 65v-143q-8 -6 -40.5 -18.5t-102 -26.5 t-140.5 -14q-180 0 -319 85.5t-211 224.5t-72 304z" />
<glyph unicode="D" horiz-adv-x="1507" d="M123 0l268 1380h318q172 0 303.5 -46t211.5 -128t120 -189t40 -237q0 -109 -28.5 -215t-94.5 -209.5t-163.5 -181.5t-247.5 -126t-334 -48h-393zM311 141q84 -14 205 -14q169 0 306.5 56t222 148.5t129.5 206.5t45 236q0 103 -32 189t-95.5 152t-168 103t-239.5 37 q-100 0 -158 -10z" />
<glyph unicode="E" horiz-adv-x="1085" d="M123 0l268 1380h694l-26 -127h-537l-92 -477h510l-25 -127h-509l-101 -518h541l-25 -131h-698z" />
<glyph unicode="F" horiz-adv-x="1081" d="M123 0l268 1380h690l-26 -127h-533l-92 -477h504l-25 -127h-503l-125 -649h-158z" />
<glyph unicode="G" horiz-adv-x="1501" d="M123 610q0 142 39 266t112.5 219.5t174 164.5t227.5 105t270 36q285 0 432 -76l-65 -137q-22 11 -59.5 25t-128.5 32.5t-183 18.5q-193 0 -340.5 -78t-230 -225.5t-82.5 -344.5q0 -99 33 -188t93.5 -159t155.5 -111t211 -41q114 0 226 45l94 487h-271l25 127h428 l-141 -725q-24 -10 -69.5 -23.5t-135.5 -30.5t-166 -17q-156 0 -281.5 51.5t-204.5 139.5t-121 200.5t-42 238.5z" />
<glyph unicode="H" horiz-adv-x="1576" d="M123 0l268 1380h158l-119 -604h748l118 604h158l-268 -1380h-158l125 649h-747l-125 -649h-158z" />
<glyph unicode="I" horiz-adv-x="669" d="M123 0l268 1380h156l-268 -1380h-156z" />
<glyph unicode="J" horiz-adv-x="751" d="M-123 2l27 135q60 -20 121 -20q96 0 158.5 50t82.5 150l207 1063h156q-172 -884 -203 -1042q-35 -178 -128 -268t-257 -90q-109 0 -164 22z" />
<glyph unicode="K" horiz-adv-x="1161" d="M123 0l268 1380h158l-127 -657l620 657h201l-647 -678l473 -702h-203l-450 694l-135 -694h-158z" />
<glyph unicode="L" horiz-adv-x="897" d="M123 0l268 1380h180l-243 -1253h487l-24 -127h-668z" />
<glyph unicode="M" horiz-adv-x="1888" d="M20 0l461 1380h199l170 -1165l625 1165h208l-61 -1380h-164l66 1176h-8l-621 -1176h-172l-160 1176h-8l-373 -1176h-162z" />
<glyph unicode="N" horiz-adv-x="1595" d="M123 0l268 1380h205l489 -1155h11l223 1155h154l-269 -1380h-190l-502 1184h-8l-230 -1184h-151z" />
<glyph unicode="O" horiz-adv-x="1536" d="M123 557q0 188 59 349t158.5 268.5t229.5 168t272 60.5q121 0 219.5 -34t162.5 -90.5t107.5 -132.5t62.5 -156t19 -165q0 -190 -59.5 -350.5t-159.5 -267.5t-231 -167t-275 -60q-261 0 -413 160t-152 417zM287 555q0 -196 112.5 -317t290.5 -121q162 0 291 95 t198.5 255.5t69.5 355.5q0 200 -114 321.5t-293 121.5q-115 0 -217 -52.5t-176.5 -144.5t-118 -225.5t-43.5 -288.5z" />
<glyph unicode="P" horiz-adv-x="1185" d="M123 0l268 1380h283q106 0 189 -22.5t135 -59.5t86 -88.5t47.5 -105.5t13.5 -115q0 -152 -80 -263t-215 -165.5t-307 -54.5q-98 0 -162 8l-100 -514h-158zM401 627q27 -6 129 -6q204 0 329.5 102.5t125.5 271.5q0 118 -92 194.5t-252 76.5q-22 0 -68.5 -2t-48.5 -2z" />
<glyph unicode="Q" horiz-adv-x="1533" d="M123 555q0 188 59 348.5t158.5 268t229.5 167.5t272 60q120 0 218 -34t162.5 -90.5t108 -132.5t62 -155.5t18.5 -163.5q0 -171 -48.5 -319.5t-132.5 -254t-194.5 -173t-236.5 -88.5l22 -224h-153l-23 216q-161 9 -280 84.5t-180.5 202t-61.5 288.5zM287 553 q0 -179 94.5 -296.5t249.5 -137.5l-25 237h156l22 -233q207 41 335 236.5t128 461.5q0 200 -113 320.5t-292 120.5q-115 0 -217 -52t-176.5 -143.5t-118 -225t-43.5 -288.5z" />
<glyph unicode="R" horiz-adv-x="1191" d="M123 0l268 1380h277q239 0 361 -101.5t122 -258.5q0 -70 -19.5 -130.5t-46.5 -100.5t-69 -74.5t-74 -52.5t-74.5 -34t-57.5 -19.5t-36 -8.5l217 -600h-164l-202 573h-232l-112 -573h-158zM418 696q48 -6 141 -6q185 0 307.5 90.5t122.5 235.5q0 118 -89 182t-259 64 q-80 0 -115 -7z" />
<glyph unicode="S" horiz-adv-x="1054" d="M41 16l29 150q35 -17 106.5 -33t161.5 -16q168 0 282.5 74.5t114.5 191.5q0 82 -49 138.5t-139 105.5l-117 63q-105 56 -163 132.5t-58 191.5q0 176 141.5 281.5t388.5 105.5q166 0 275 -33l-29 -143q-112 39 -278 39q-142 0 -239 -64t-97 -178q0 -73 42 -123t113 -90 l111 -59q131 -69 196.5 -150.5t65.5 -191.5q0 -202 -157.5 -315t-413.5 -113q-185 0 -287 36z" />
<glyph unicode="T" horiz-adv-x="1011" d="M123 1255l24 125h988l-25 -125h-416l-243 -1255h-158l244 1255h-414z" />
<glyph unicode="U" horiz-adv-x="1466" d="M123 420q0 34 2 66.5t7 66t8 51.5t10 52.5t8 39.5l133 684h158l-138 -708q-37 -171 -37 -254q0 -134 88.5 -217.5t233.5 -83.5q347 0 430 426l162 837h155l-161 -837q-20 -100 -50.5 -182.5t-80 -154.5t-113.5 -121t-153.5 -77t-198.5 -28q-219 0 -341 123t-122 317z" />
<glyph unicode="V" horiz-adv-x="1216" d="M143 1380h168l191 -1169h8l655 1169h174l-786 -1380h-174z" />
<glyph unicode="W" horiz-adv-x="1878" d="M164 1380h160l75 -1175h9l548 1175h201l105 -1175h8l524 1175h166l-631 -1380h-201l-100 1190h-8l-559 -1190h-195z" />
<glyph unicode="X" horiz-adv-x="1144" d="M-123 0l596 715l-291 665h183l221 -540h8l446 540h187l-561 -657l331 -723h-194l-254 590h-8l-475 -590h-189z" />
<glyph unicode="Y" horiz-adv-x="1028" d="M123 1380h162l209 -700h8l475 700h174l-610 -872l-99 -508h-157l98 508z" />
<glyph unicode="Z" horiz-adv-x="1097" d="M-41 0l25 135l938 1120h-703l25 125h895l-27 -133l-934 -1116h725l-24 -131h-920z" />
<glyph unicode="[" horiz-adv-x="671" d="M0 -614l389 1994h447l-27 -127h-289l-338 -1740h289l-25 -127h-446z" />
<glyph unicode="\" horiz-adv-x="667" d="M123 1380h151l271 -1380h-158z" />
<glyph unicode="]" horiz-adv-x="628" d="M-246 -614l25 127h289l338 1740h-291l26 127h447l-389 -1994h-445z" />
<glyph unicode="^" horiz-adv-x="1282" d="M229 799l457 581h143l224 -581h-138l-172 483l-362 -483h-152z" />
<glyph unicode="_" horiz-adv-x="1046" d="M-10 -473l20 111h1047l-21 -111h-1046z" />
<glyph unicode="`" horiz-adv-x="466" d="M334 1380h172l170 -305h-101z" />
<glyph unicode="a" horiz-adv-x="1087" d="M61 283q0 168 144.5 261t392.5 93h195q10 53 10 78q0 73 -63 127.5t-181 54.5q-66 0 -128.5 -18t-103 -36t-53.5 -18q-14 0 -14 17q0 38 21 125q119 65 284 65q98 0 175.5 -26.5t122.5 -70.5t68 -95.5t23 -106.5q0 -54 -18 -141l-64 -332q-20 -99 -34 -260h-123 q-31 0 -31 25q0 10 4 36.5t8 48.5l4 21h-8q-14 -19 -34.5 -39t-58 -48t-91.5 -46t-113 -18q-149 0 -241.5 91.5t-92.5 211.5zM219 295q0 -73 56.5 -125.5t152.5 -52.5q126 0 212 91t114 228l14 76h-184q-187 0 -276 -61.5t-89 -155.5z" />
<glyph unicode="b" horiz-adv-x="1187" d="M113 18l282 1450h152l-111 -561h8q8 11 25.5 27t51.5 40.5t85.5 41t108.5 16.5q84 0 155 -34t117 -89.5t72 -125.5t26 -144q0 -196 -85.5 -346t-238 -231.5t-347.5 -81.5q-82 0 -169.5 13t-131.5 25zM287 135q36 -18 153 -18q87 0 172 35t155 98t113.5 163t43.5 220 q0 110 -60.5 187t-163.5 77q-127 0 -218 -109t-134 -333z" />
<glyph unicode="c" horiz-adv-x="968" d="M102 457q0 137 49.5 248.5t132 181.5t187 107.5t219.5 37.5q157 0 279 -59q-8 -53 -23 -111q-6 -26 -26 -26q-11 0 -41 15t-81.5 30.5t-115.5 15.5q-90 0 -169.5 -38.5t-133 -101t-84.5 -141t-31 -159.5q0 -147 81.5 -243.5t229.5 -96.5q49 0 93.5 13.5t75 26.5t44.5 13 q19 0 19 -18q0 -33 -21 -125q-106 -47 -254 -47q-191 0 -310.5 139t-119.5 338z" />
<glyph unicode="d" horiz-adv-x="1167" d="M102 391q0 137 49.5 257t135 204t202.5 132t248 48q58 0 115.5 -9.5t73.5 -16.5l90 462h151q-211 -1087 -225 -1159q-33 -171 -47 -309h-125q-25 0 -25 25q0 9 5.5 35.5t10.5 48.5l5 22h-8q-43 -53 -82 -83q-90 -68 -195 -68q-175 0 -277 116t-102 295zM262 403 q0 -115 65.5 -200.5t184.5 -85.5q114 0 200 112t128 326l61 315q-90 27 -174 27q-87 0 -170 -35t-149 -97t-106 -156.5t-40 -205.5z" />
<glyph unicode="e" horiz-adv-x="1132" d="M102 473q0 110 35 210.5t98 178t160 124t213 46.5q114 0 199.5 -34.5t132 -91.5t68.5 -121t22 -134q0 -55 -10.5 -116t-18.5 -84h-739q0 -60 22 -118t64 -107t110.5 -79t153.5 -30q71 0 125.5 16.5t84 32.5t40.5 16q15 0 15 -16q0 -47 -21 -139q-127 -47 -270 -47 q-99 0 -181 28t-137.5 75t-93.5 111t-55 134t-17 145zM272 573h596q11 38 11 84q0 56 -28.5 109.5t-91 92t-145.5 38.5q-67 0 -123.5 -21.5t-93.5 -55.5t-64.5 -78.5t-41.5 -86t-19 -82.5z" />
<glyph unicode="f" horiz-adv-x="704" d="M123 883l24 129h177q20 100 24 123q33 185 148 278.5t290 93.5q109 0 164 -22l-20 -92q-9 -27 -31 -27q-3 0 -43 7t-80 7q-83 0 -143 -36.5t-90 -91t-45 -128.5l-23 -112h279l-25 -129h-278l-172 -883h-152q106 542 172 883h-176z" />
<glyph unicode="g" horiz-adv-x="1153" d="M-20 -168q0 56 20.5 104.5t47.5 79t63 56t59 36t43 17.5q-68 38 -68 123q0 37 14.5 69.5t33 52.5t47 38.5t43.5 25.5t36 15q-100 90 -100 225q0 153 110.5 255.5t299.5 102.5q96 0 186.5 -16.5t136.5 -16.5q110 0 181 13q-15 -80 -19 -94q-3 -18 -11 -24.5t-26 -6.5h-133 q53 -74 53 -172q0 -170 -118.5 -265.5t-296.5 -95.5q-80 0 -164 33q-39 -6 -77 -29.5t-38 -62.5q0 -34 33 -55t92 -21h178q100 0 174.5 -25t117 -68t63 -94t20.5 -110q0 -113 -73 -211.5t-200 -157.5t-276 -59q-123 0 -214 29.5t-141 79.5t-73.5 107t-23.5 122zM133 -141 q0 -101 79 -163.5t216 -62.5q75 0 149 26t128.5 66t88 90.5t33.5 98.5q0 72 -51 118t-170 46h-180q-68 0 -98 6q-29 -11 -60 -30t-62.5 -47t-52 -67t-20.5 -81zM371 672q0 -89 57.5 -144t169.5 -55q106 0 177 69t71 169q0 85 -56 141.5t-172 56.5q-111 0 -179 -69t-68 -168z " />
<glyph unicode="h" horiz-adv-x="1239" d="M113 0l286 1468h152l-115 -585h8q24 36 57 66t98.5 56.5t145.5 26.5q150 0 245 -87.5t95 -211.5q0 -68 -26 -194l-105 -539h-151q92 476 104 539q21 95 21 166q0 80 -56.5 136t-154.5 56q-129 0 -226 -109t-129 -288l-98 -500h-151z" />
<glyph unicode="i" horiz-adv-x="546" d="M113 0h153l197 1012h-154zM356 1276l31 160h160l-31 -160h-160z" />
<glyph unicode="j" horiz-adv-x="563" d="M-307 -483l24 94q9 29 29 29q3 0 36 -8.5t64 -8.5q89 0 147 44t75 130l235 1215h152q-177 -908 -226 -1162q-37 -189 -124.5 -272.5t-251.5 -83.5q-94 0 -160 23zM352 1276l31 160h160l-31 -160h-160z" />
<glyph unicode="k" horiz-adv-x="972" d="M113 0l286 1468h152l-176 -905l475 449h184l-504 -473l369 -539h-172l-358 532l-105 -532h-151z" />
<glyph unicode="l" horiz-adv-x="569" d="M113 0l284 1468h152l-285 -1468h-151z" />
<glyph unicode="m" horiz-adv-x="1853" d="M113 0q114 592 137 707q28 142 45 305h117q30 0 30 -19q-10 -75 -18 -110h8q96 149 285 149q50 0 93 -11t72 -31t50.5 -40t36 -45t21 -38.5t11.5 -28.5q8 14 20.5 31.5t43.5 48.5t67.5 54.5t94 41.5t121.5 18q160 0 256 -96t96 -229q0 -37 -10 -89l-119 -618h-152 q89 447 107 551q16 94 16 149q0 85 -54.5 141t-150.5 56q-118 0 -199 -92t-116 -270l-104 -535h-152q94 481 108 565q15 84 15 137q0 83 -52.5 139t-150.5 56q-114 0 -199 -92.5t-118 -269.5l-105 -535h-151z" />
<glyph unicode="n" horiz-adv-x="1239" d="M113 0q121 628 135 702q35 182 51 310h129q23 0 23 -19l-23 -121h8q17 27 39.5 51t59.5 50.5t91.5 42.5t118.5 16q150 0 245 -87.5t95 -211.5q0 -68 -26 -194l-105 -539h-151q92 476 104 539q21 95 21 166q0 80 -56.5 136t-154.5 56q-130 0 -225.5 -104.5t-131.5 -292.5 l-96 -500h-151z" />
<glyph unicode="o" horiz-adv-x="1218" d="M102 446q0 164 66 296t193.5 211t295.5 79q115 0 205.5 -41t144.5 -109t81.5 -149t27.5 -168q0 -165 -68 -298t-194.5 -210t-290.5 -77q-96 0 -175 28t-131 73.5t-88 107t-51.5 126t-15.5 131.5zM262 440q0 -57 17.5 -112t53 -104t98.5 -79t144 -30q116 0 205 66.5 t132.5 167.5t43.5 216q0 61 -18 117.5t-54.5 105.5t-100 79t-144.5 30q-167 0 -272 -133.5t-105 -323.5z" />
<glyph unicode="p" horiz-adv-x="1214" d="M41 -473q215 1103 229 1175q28 144 49 310h132q22 0 22 -17q0 -12 -5 -42t-10 -55l-5 -24h8q12 19 32 41t54.5 51t86 47.5t107.5 18.5q92 0 164.5 -33t116.5 -89t67 -126t23 -149q0 -148 -48 -272t-131.5 -207.5t-195.5 -129.5t-239 -46q-57 0 -125.5 10t-85.5 16 l-94 -479h-152zM313 141q78 -26 181 -26q118 0 222 64.5t169 182t65 259.5q0 113 -60.5 194.5t-170.5 81.5q-118 0 -212.5 -115t-131.5 -325z" />
<glyph unicode="q" horiz-adv-x="1187" d="M102 373q0 191 88.5 342t244 234t349.5 83q151 0 291 -39l-284 -1466h-152l113 577h-9q-20 -23 -52 -47.5t-97 -50.5t-133 -26q-86 0 -156.5 34.5t-113.5 91.5t-66 126t-23 141zM264 381q0 -67 21.5 -125t74 -99.5t129.5 -41.5q125 0 217 112.5t134 329.5l61 317 q-57 23 -178 23q-81 0 -161 -35t-147 -98.5t-109 -163.5t-42 -219z" />
<glyph unicode="r" horiz-adv-x="811" d="M113 0q123 633 141 727q31 163 43 285h117q11 0 16 -3.5t5.5 -7t0.5 -10.5q0 -19 -18 -123h8q17 23 26 34t41 40t63 45t83 30.5t111 14.5q77 0 143 -22q-4 -23 -14 -63.5t-11 -47.5q-7 -20 -20 -20q-10 0 -53.5 9t-87.5 9q-129 0 -218.5 -102.5t-126.5 -292.5l-98 -502 h-151z" />
<glyph unicode="s" horiz-adv-x="792" d="M0 8q8 47 27 109q9 28 30 28q5 0 75 -14t147 -14q110 0 179.5 47.5t69.5 116.5q0 92 -139 157l-63 29q-42 21 -73 41.5t-63.5 51.5t-49.5 73.5t-17 93.5q0 75 33.5 134.5t90 96t126 55.5t145.5 19q71 0 132 -7t86 -13t36 -11q-2 -6 -10.5 -45.5t-13.5 -54.5 q-10 -43 -33 -43q-7 0 -36 10t-77.5 19.5t-103.5 9.5q-92 0 -153.5 -42.5t-61.5 -113.5q0 -43 29 -75.5t102 -67.5l88 -43q83 -39 133.5 -102.5t50.5 -143.5q0 -105 -63 -181.5t-158.5 -112t-208.5 -35.5q-59 0 -119.5 6t-95 12t-41.5 10z" />
<glyph unicode="t" horiz-adv-x="751" d="M123 883l24 129h187l45 223h151l-45 -223h308l-25 -129h-307q-92 -473 -96 -496q-1 -8 -7.5 -36.5t-11 -57.5t-4.5 -51q0 -64 41.5 -95.5t103.5 -31.5q34 0 74 9t47 9q19 0 19 -18q0 -37 -17 -113q-69 -22 -149 -22q-129 0 -201 66t-72 173q0 33 21 148l100 516h-186z " />
<glyph unicode="u" horiz-adv-x="1239" d="M154 279q0 68 26 194l105 539h151q-92 -476 -104 -539q-21 -95 -21 -166q0 -80 53.5 -136t157.5 -56q130 0 225.5 104.5t131.5 292.5l96 500h151q-123 -629 -137 -703q-30 -154 -49 -309h-129q-23 0 -23 18q0 10 6 40.5t12 55.5l5 25h-8q-17 -26 -40 -49.5t-60 -50.5 t-91.5 -43t-117.5 -16q-163 0 -251.5 86t-88.5 213z" />
<glyph unicode="v" horiz-adv-x="987" d="M123 1012h168l149 -805h9l454 805h166l-577 -1012h-160z" />
<glyph unicode="w" horiz-adv-x="1531" d="M143 1012h154l63 -797h9l405 797h156l108 -797h9l383 797h163l-497 -1012h-183l-100 762h-8l-395 -762h-187z" />
<glyph unicode="x" horiz-adv-x="899" d="M-102 0l489 524l-240 488h172l170 -365h9l305 365h178l-416 -482l260 -530h-170l-196 412h-8l-367 -412h-186z" />
<glyph unicode="y" horiz-adv-x="1021" d="M-225 -481q7 36 30 108q6 25 25 25q2 0 44 -7t81 -7q171 0 287 210l90 160l-203 1004h170l143 -799h11l442 799h168q-463 -823 -602 -1073q-97 -174 -138 -232q-103 -145 -233 -189q-71 -24 -156 -24q-92 0 -159 25z" />
<glyph unicode="z" horiz-adv-x="845" d="M-41 0l27 139l688 746h-514l24 127h703l-27 -135l-688 -746h551l-25 -131h-739z" />
<glyph unicode="{" horiz-adv-x="757" d="M82 319l24 127q214 25 256 240l64 324q71 370 375 370h80l-25 -127q-120 0 -183.5 -56.5t-84.5 -166.5l-70 -348q-8 -40 -25 -81.5t-47 -88t-81.5 -84.5t-116.5 -57l-2 -9q160 -52 160 -235q0 -22 -9 -74l-55 -280q-12 -69 -12 -101q0 -77 49.5 -118t138.5 -41l-24 -127 h-52q-52 0 -99.5 15.5t-87 46.5t-62.5 83.5t-23 120.5q0 54 20 151l56 279q6 34 6 63q0 154 -170 174z" />
<glyph unicode="|" horiz-adv-x="724" d="M61 -614l390 1994h151l-389 -1994h-152z" />
<glyph unicode="}" horiz-adv-x="737" d="M-184 -614l24 127q122 0 186 55.5t85 165.5q11 57 26 136t25 130.5t16 81.5q8 40 25 81.5t47.5 88t82 84.5t116.5 57l2 8q-59 19 -96 59.5t-49.5 83t-12.5 91.5q0 30 8 76l53 280q15 86 15 101q0 77 -50.5 119t-138.5 42l25 127h51q52 0 98.5 -15.5t86 -46.5t62.5 -84.5 t23 -121.5q0 -54 -20 -151q-2 -10 -24 -124t-29 -153q-7 -40 -7 -66q0 -153 168 -172l-24 -127q-214 -25 -256 -239l-62 -324q-68 -370 -374 -370h-82z" />
<glyph unicode="~" horiz-adv-x="1273" d="M164 520q49 36 126.5 67t166.5 31q66 0 128 -19t102 -42t95.5 -42t110.5 -19q94 0 217 73l41 -106q-2 -1 -19.5 -11t-26.5 -15t-30 -15.5t-36 -16.5t-39 -14t-44.5 -12.5t-46 -8t-49.5 -3.5q-64 0 -126.5 19t-105 42t-97.5 42t-105 19q-103 0 -221 -73z" />
<glyph unicode="&#xa1;" horiz-adv-x="530" d="M0 -438h162l168 977h-119zM236 778l32 160h160l-33 -160h-159z" />
<glyph unicode="&#xa2;" d="M207 455q0 129 43.5 236t117.5 177t169 111.5t202 50.5l41 211h152l-41 -215q105 -13 182 -53q-2 -11 -10.5 -53.5t-11.5 -55.5q-7 -28 -27 -28q-5 0 -15.5 4.5t-13.5 5.5q-92 51 -209 51q-119 0 -216.5 -65.5t-149 -165.5t-51.5 -209q0 -146 82 -243t229 -97 q49 0 93.5 13.5t75 26.5t44.5 13q18 0 18 -20q0 -36 -20 -123q-89 -39 -207 -45l-39 -213h-151l41 223q-150 36 -239 165t-89 298z" />
<glyph unicode="&#xa3;" d="M139 0l27 139q129 68 203 196.5t73 297.5h-176l25 127h151q-12 96 -12 162q0 126 37.5 220t106.5 149.5t157 82.5t197 27q112 0 213 -29l-41 -135q-1 0 -10 3t-17.5 5.5t-24.5 6t-32.5 6t-39.5 4.5t-48 2q-159 0 -242.5 -88t-83.5 -246q0 -50 12 -170h334l-24 -127h-312 q-5 -76 -24.5 -145.5t-44 -120t-60 -99t-63.5 -78.5t-64 -63h594l-24 -127h-787z" />
<glyph unicode="&#xa4;" d="M92 270l164 131q-43 85 -43 174q0 188 123 320l-94 125l123 102l96 -133q102 51 223 51q158 0 262 -90l158 129l82 -102l-160 -127q47 -86 47 -176t-33.5 -175t-95.5 -151l94 -123l-120 -100l-101 129q-92 -47 -213 -47q-166 0 -268 92l-160 -129zM348 573q0 -46 15 -90 t44.5 -83t82 -63t120.5 -24q95 0 171.5 51.5t116.5 133t40 174.5q0 48 -15 92.5t-45 83.5t-83.5 62.5t-122.5 23.5q-137 0 -230.5 -105.5t-93.5 -255.5z" />
<glyph unicode="&#xa5;" d="M143 250l25 127h281l26 129h-280l24 127h217l-223 747h164l203 -700l489 700h174l-524 -747h246l-25 -127h-307l-27 -129h307l-24 -127h-307l-47 -250h-158l47 250h-281z" />
<glyph unicode="&#xa6;" horiz-adv-x="724" d="M61 -614l170 874h152l-170 -874h-152zM281 506l170 874h151l-170 -874h-151z" />
<glyph unicode="&#xa7;" horiz-adv-x="1081" d="M0 -455l51 144q102 -51 246 -51q124 0 188 55.5t64 134.5q0 84 -125 201q-46 40 -98 92q-33 31 -50 48.5t-47 53.5t-45.5 66.5t-28 75t-12.5 90.5q0 61 21.5 118t47.5 94t70 75.5t67.5 54.5t60.5 39q-82 97 -82 217q0 155 112 251.5t314 96.5q162 0 286 -45l-49 -144 q-104 52 -246 52q-124 0 -188.5 -56t-64.5 -135q0 -82 126 -201q16 -14 99 -92q33 -31 50 -48.5t46.5 -53.5t45 -67t28 -75.5t12.5 -91.5q0 -44 -11.5 -85.5t-26.5 -72.5t-42 -63.5t-46.5 -52t-52.5 -44t-46.5 -33.5t-42.5 -27q82 -97 82 -220q0 -154 -112 -250t-312 -96 q-165 0 -289 45zM307 487q0 -113 117 -221q74 -71 115 -110q196 126 196 258q0 110 -117 221q-73 69 -116 108q-46 -29 -85.5 -62t-74.5 -87t-35 -107z" />
<glyph unicode="&#xa8;" horiz-adv-x="735" d="M82 1221l31 159h159l-30 -159h-160zM461 1221l31 159h161l-32 -159h-160z" />
<glyph unicode="&#xa9;" horiz-adv-x="987" d="M266 1063q0 84 37.5 159.5t118 127t188.5 51.5q73 0 131.5 -26t93 -69t52.5 -92.5t18 -101.5q0 -141 -95.5 -239.5t-246.5 -98.5q-140 0 -218.5 86t-78.5 203zM324 1065q0 -94 64.5 -165t174.5 -71q72 0 129.5 27t90 70t49 89.5t16.5 92.5q0 97 -66 166t-176 69 q-129 0 -205.5 -83.5t-76.5 -194.5zM436 1063q0 -55 36.5 -97t102.5 -42q54 0 72 12l4 47q-20 -10 -61 -10q-47 0 -68.5 29t-21.5 65q0 57 33 93t83 36q45 0 72 -16l17 49q-32 16 -82 16q-80 0 -133.5 -51.5t-53.5 -130.5z" />
<glyph unicode="&#xaa;" horiz-adv-x="978" d="M205 514l18 100h541l-19 -100h-540zM276 913q0 109 94.5 170.5t254.5 61.5h127q6 33 6 49q0 48 -41 83.5t-117 35.5q-43 0 -83 -11.5t-66.5 -23.5t-34.5 -12q-10 0 -10 12q0 33 14 80q72 43 184 43q124 0 188 -58.5t64 -136.5q0 -32 -12 -92l-41 -215q-14 -66 -23 -168 h-80q-18 0 -18 17l8 69h-8q-13 -18 -31 -36.5t-62.5 -40t-94.5 -21.5q-97 0 -157.5 58t-60.5 136zM381 922q0 -46 36 -80.5t97 -34.5q83 0 139 59.5t72 147.5l10 49h-121q-121 0 -177 -40t-56 -101z" />
<glyph unicode="&#xab;" horiz-adv-x="1048" d="M123 485l426 412l76 -82l-351 -336l218 -346l-105 -65zM463 485l428 412l76 -82l-351 -336l218 -346l-107 -65z" />
<glyph unicode="&#xac;" d="M102 555l25 127h1049l-111 -573h-158l86 446h-891z" />
<glyph unicode="&#xad;" horiz-adv-x="784" d="M123 432l24 127h494l-25 -127h-493z" />
<glyph unicode="&#xae;" horiz-adv-x="985" d="M266 1063q0 62 22.5 121.5t63.5 108t108 78.5t148 30q74 0 132 -26t92.5 -69t52.5 -92.5t18 -101.5q0 -141 -95.5 -239.5t-244.5 -98.5q-140 0 -218.5 86t-78.5 203zM324 1065q0 -95 64 -165.5t175 -70.5q72 0 128.5 27t89 70t49 89.5t16.5 92.5q0 97 -65 166t-175 69 q-129 0 -205.5 -83.5t-76.5 -194.5zM463 938l61 311h80q51 0 79 -24.5t28 -59.5q0 -25 -10.5 -43.5t-26.5 -28t-25.5 -13t-17.5 -5.5l49 -137h-57l-45 129h-33l-27 -129h-55zM551 1108l8 -1q8 -1 14 -1q33 0 57.5 14t24.5 41q0 21 -16 35t-45 14q-6 0 -11.5 -0.5t-8 -1 t-3.5 -0.5z" />
<glyph unicode="&#xaf;" horiz-adv-x="638" d="M82 1274l22 106h453l-22 -106h-453z" />
<glyph unicode="&#xb0;" d="M205 1102q0 135 88 217t215 82t195.5 -76t68.5 -174q0 -141 -90 -222t-217 -81q-68 0 -120 23t-81.5 61t-44 81t-14.5 89zM299 1104q0 -66 47.5 -115t132.5 -49q80 0 138.5 59.5t58.5 147.5q0 62 -46 112t-132 50q-81 0 -140 -59.5t-59 -145.5z" />
<glyph unicode="&#xb1;" d="M-20 0l22 125h1051l-23 -125h-1050zM100 627l25 127h444l72 364h158l-72 -364h449l-25 -127h-449l-71 -369h-158l72 369h-445z" />
<glyph unicode="&#xb2;" horiz-adv-x="526" d="M-20 690l14 76q180 161 207 186q56 49 87.5 80t63 80t31.5 90q0 46 -38.5 82.5t-102.5 36.5t-125 -41l-17 68q72 43 158 43q101 0 154 -55t53 -132q0 -29 -9.5 -58.5t-21 -50.5t-35 -48.5t-37 -41t-41.5 -39.5t-36 -34l-187 -176h289l-14 -66h-393z" />
<glyph unicode="&#xb3;" horiz-adv-x="507" d="M0 694l8 68q48 -12 105 -12q87 0 143.5 45.5t56.5 105.5q0 47 -35 80t-108 33h-61l12 63h65q74 0 126.5 40t52.5 100q0 43 -32 74.5t-95 31.5q-33 0 -69 -12t-46 -19l-6 68q6 4 22.5 11t48.5 14.5t64 7.5q93 0 143.5 -50t50.5 -118q0 -77 -46.5 -121t-104.5 -55v-9 q32 -7 66 -41.5t34 -97.5q0 -98 -80 -158.5t-202 -60.5q-65 0 -113 12z" />
<glyph unicode="&#xb4;" horiz-adv-x="466" d="M242 1079l223 301h184l-305 -301h-102z" />
<glyph unicode="&#xb5;" d="M70 -508l295 1520h151q-92 -474 -104 -537q-19 -138 -19 -166q0 -82 52.5 -137t156.5 -55q130 0 224.5 104.5t131.5 292.5l99 498h151q-123 -627 -137 -701q-35 -180 -51 -311h-129q-21 0 -21 20q0 9 5 38.5t11 55.5l5 25h-8q-17 -26 -39.5 -49.5t-59.5 -50.5t-91.5 -43 t-117.5 -16q-154 0 -243 79l-111 -567h-151z" />
<glyph unicode="&#xb6;" horiz-adv-x="1015" d="M0 936q0 194 149 319t394 125h452l-22 -116h-131l-316 -1618h-145l315 1618h-196l-316 -1618h-145l192 989q-28 7 -54.5 18.5t-60 35t-58 55t-41.5 81.5t-17 111z" />
<glyph unicode="&#xb7;" horiz-adv-x="561" d="M164 414l33 159h159l-32 -159h-160z" />
<glyph unicode="&#xb8;" horiz-adv-x="534" d="M82 -428q28 6 64.5 19.5t80 36.5t72.5 60t29 79q0 31 -25 55t-80 24h-61l74 154h98l-53 -82q4 4 32 4q62 0 101 -39t39 -96q0 -73 -55 -135.5t-130 -97.5t-149 -41z" />
<glyph unicode="&#xb9;" horiz-adv-x="387" d="M41 1243l4 68q56 5 108.5 27.5t77.5 52.5h74l-135 -701h-78l117 602q-94 -41 -168 -49z" />
<glyph unicode="&#xba;" horiz-adv-x="1032" d="M205 512h559l18 100h-559zM252 1020q0 166 98 273.5t262 107.5q75 0 133.5 -26.5t93 -70t52.5 -96t18 -108.5q0 -169 -98.5 -275t-259.5 -106q-78 0 -138 27t-93.5 71.5t-50.5 95.5t-17 107zM354 1018q0 -51 19 -97.5t66.5 -81t115.5 -34.5q110 0 180 87.5t70 205.5 q0 85 -51 150t-152 65q-105 0 -176.5 -85.5t-71.5 -209.5z" />
<glyph unicode="&#xbb;" horiz-adv-x="1050" d="M82 156l352 338l-217 344l105 67l264 -420l-426 -409zM424 156l352 338l-219 344l107 67l264 -420l-428 -409z" />
<glyph unicode="&#xbc;" horiz-adv-x="1378" d="M61 0l1094 1380h100l-1093 -1380h-101zM205 1243v68q57 5 110 27t78 53h74l-135 -701h-80l119 602q-89 -41 -166 -49zM694 268l365 422h119l-86 -436h127l-13 -64h-127l-37 -190h-77l36 190h-301zM770 254h244l71 360h-8z" />
<glyph unicode="&#xbd;" horiz-adv-x="1396" d="M61 0l1094 1380h100l-1093 -1380h-101zM209 1243v68q56 5 108 27t78 53h74l-135 -701h-82l121 602q-95 -41 -164 -49zM788 0h394l12 66h-287q146 139 185 176q5 5 36.5 33.5t43 40.5t36.5 40.5t35.5 49t20.5 50t10 58.5q0 76 -53.5 131t-155.5 55q-40 0 -78.5 -10.5 t-54 -18.5t-23.5 -14l17 -67q61 41 123 41q65 0 103 -36t38 -83q0 -14 -2.5 -28t-9.5 -29t-13 -26.5t-19 -27.5t-21 -25.5t-26 -27.5l-27 -27t-31 -29.5t-31 -29.5l-207 -186z" />
<glyph unicode="&#xbe;" horiz-adv-x="1533" d="M205 692l8 68q48 -12 104 -12q87 0 144 45.5t57 105.5q0 47 -35 80t-108 33h-62l13 63h65q74 0 126 39t52 100q0 43 -32 75t-95 32q-33 0 -68.5 -11.5t-45.5 -19.5l-6 68q6 4 22.5 11t48.5 14.5t64 7.5q93 0 143.5 -50t50.5 -118q0 -77 -46.5 -121t-104.5 -55v-9 q32 -7 66 -41.5t34 -97.5q0 -98 -80.5 -158.5t-202.5 -60.5q-76 0 -112 12zM215 0l1096 1380h100l-1096 -1380h-100zM860 268l365 422h116l-84 -436h125l-12 -64h-125l-37 -190h-78l37 190h-301zM936 254h244l69 360h-8z" />
<glyph unicode="&#xbf;" horiz-adv-x="819" d="M0 -152q0 -54 25 -108t71 -99.5t121 -73.5t166 -28q123 0 242 41l45 141q-112 -45 -217 -45q-142 0 -214.5 53t-72.5 130q0 24 7 48t23 47t30.5 41t40 41t40 35t43.5 34.5t37 29.5q29 22 47.5 37.5t52.5 51.5t56.5 71t45 88.5t32.5 112.5l6 41h-158q-4 -25 -6 -41 q-6 -43 -29.5 -86t-63.5 -83.5t-64 -61.5t-64 -52q-4 -4 -31 -26t-37 -31q-42 -37 -63 -58t-52 -61t-45 -86.5t-14 -102.5zM506 780l31 160h159l-30 -160h-160z" />
<glyph unicode="&#xc0;" horiz-adv-x="1241" d="M-82 0h172l189 340h614l55 -340h170l-248 1380h-170zM348 467l397 729h9l120 -729h-526zM508 1808h172l170 -301h-100z" />
<glyph unicode="&#xc1;" horiz-adv-x="1273" d="M-82 0h174l187 340h616l53 -340h170l-248 1380h-163zM348 467l397 729h9l120 -729h-526zM743 1507l224 301h184l-305 -301h-103z" />
<glyph unicode="&#xc2;" horiz-adv-x="1241" d="M-82 0h174l187 338h614l55 -338h170l-248 1380h-165zM348 465l395 729h9l120 -729h-524zM561 1507l240 301h160l124 -301h-84l-131 193l-208 -193h-101z" />
<glyph unicode="&#xc3;" horiz-adv-x="1302" d="M-82 0h174l187 338h614l55 -338h170l-248 1380h-165zM348 465l395 729h9l120 -729h-524zM487 1659q1 1 29.5 21.5t51.5 34t67.5 27t91.5 13.5q52 0 128.5 -37t129.5 -37q35 0 71 15t55 30l19 15l50 -68q-105 -100 -240 -100q-53 0 -131 37t-131 37q-20 0 -38.5 -4 t-34.5 -12.5t-25 -14.5t-24 -17.5t-17 -13.5z" />
<glyph unicode="&#xc4;" horiz-adv-x="1241" d="M-82 0h174l187 338h614l55 -338h170l-248 1380h-165zM348 465l395 729h9l120 -729h-524zM541 1597l30 160h160l-31 -160h-159zM920 1597l30 160h160l-31 -160h-159z" />
<glyph unicode="&#xc5;" horiz-adv-x="1241" d="M-82 0h174l187 338h614l55 -338h170l-248 1380h-165zM348 465l395 729h9l120 -729h-524zM608 1602q0 86 66 152.5t164 66.5q86 0 135 -54.5t49 -128.5q0 -85 -65.5 -151t-163.5 -66q-86 0 -135.5 54t-49.5 127zM705 1612q0 -41 26.5 -70t73.5 -29q49 0 85 35.5t36 83.5 q0 37 -26.5 67t-72.5 30q-55 0 -88.5 -37t-33.5 -80z" />
<glyph unicode="&#xc6;" horiz-adv-x="1851" d="M-102 0l1194 1380h759l-24 -127h-537l-94 -479h510l-25 -127h-510l-100 -516h541l-25 -131h-698l65 336h-571l-287 -336h-198zM494 465h485l141 731h-8z" />
<glyph unicode="&#xc7;" horiz-adv-x="1179" d="M123 596q0 184 61.5 337t167.5 254.5t250 157.5t309 56q99 0 205 -21.5t146 -38.5l-62 -145q-146 68 -307 68q-83 0 -166 -24.5t-161.5 -77.5t-139 -128.5t-97 -186.5t-36.5 -243t53.5 -242t158 -177.5t240.5 -67.5q62 0 126 16t94.5 29.5t38.5 19.5l6 -143 q-12 -6 -36.5 -15.5t-85.5 -23.5t-122 -18l-51 -82q8 4 33 4q62 0 100.5 -38.5t38.5 -96.5q0 -73 -55 -136t-130 -98t-149 -41l-37 60q21 4 48.5 13t63.5 26t65 38t49 52t20 65q0 32 -24.5 56t-80.5 24h-61l74 154q-124 10 -227.5 63.5t-173 137t-108 190t-38.5 223.5z" />
<glyph unicode="&#xc8;" horiz-adv-x="1085" d="M123 0h698l25 131h-541l101 516h509l25 127h-510l92 479h537l26 127h-694zM508 1808h172l170 -301h-100z" />
<glyph unicode="&#xc9;" horiz-adv-x="1103" d="M123 0h698l25 131h-541l101 516h509l25 127h-510l92 479h537l26 127h-694zM696 1507l224 301h184l-305 -301h-103z" />
<glyph unicode="&#xca;" horiz-adv-x="1085" d="M123 0h698l25 131h-541l101 516h509l25 127h-510l92 479h537l26 127h-694zM504 1507l239 301h160l125 -301h-84l-131 193l-209 -193h-100z" />
<glyph unicode="&#xcb;" horiz-adv-x="1101" d="M123 0h698l25 131h-541l101 516h509l25 127h-510l92 479h537l26 127h-694zM532 1597l31 160h160l-31 -160h-160zM911 1597l31 160h160l-31 -160h-160z" />
<glyph unicode="&#xcc;" horiz-adv-x="669" d="M123 0h156l268 1380h-156zM207 1808h172l170 -301h-100z" />
<glyph unicode="&#xcd;" horiz-adv-x="669" d="M123 0h158l268 1380h-158zM399 1507l224 301h184l-305 -301h-103z" />
<glyph unicode="&#xce;" horiz-adv-x="669" d="M123 0h158l268 1380h-158zM231 1597l31 160h160l-31 -160h-160zM610 1597l31 160h160l-31 -160h-160z" />
<glyph unicode="&#xcf;" horiz-adv-x="669" d="M123 0h158l268 1380h-158zM236 1507l239 301h160l125 -301h-84l-131 193l-209 -193h-100z" />
<glyph unicode="&#xd0;" horiz-adv-x="1507" d="M123 0l127 647h-115l25 127h114l117 606h316q172 0 303.5 -46t212 -128t121 -189.5t40.5 -236.5q0 -90 -20.5 -178.5t-62 -177t-112 -164.5t-163.5 -134.5t-223.5 -92t-284.5 -33.5h-395zM311 143q96 -16 205 -16q136 0 252 37t197.5 99.5t140 146t86 176.5t27.5 190 q0 103 -32.5 189t-96 151.5t-167.5 102t-239 36.5q-98 0 -160 -10l-90 -471h406l-25 -127h-405z" />
<glyph unicode="&#xd1;" horiz-adv-x="1595" d="M123 0h151l230 1184h8l502 -1184h190l269 1380h-154l-223 -1155h-11l-489 1155h-205zM629 1659q2 1 30 21.5t50.5 34t67 27t91.5 13.5q52 0 128.5 -37t129.5 -37q35 0 71.5 15t55.5 30l19 15l49 -68q-105 -100 -240 -100q-53 0 -131 37t-131 37q-20 0 -38.5 -4 t-34.5 -12.5t-25 -14.5t-24 -17.5t-17 -13.5z" />
<glyph unicode="&#xd2;" horiz-adv-x="1536" d="M123 557q0 -257 152 -417t413 -160q144 0 275 60t231 167t159.5 267.5t59.5 350.5q0 85 -19 165t-62.5 156t-107.5 132.5t-162.5 90.5t-219.5 34q-142 0 -272 -60.5t-229.5 -168t-158.5 -268.5t-59 -349zM287 555q0 155 43.5 288.5t118 225.5t176.5 144.5t217 52.5 q179 0 293 -121.5t114 -321.5q0 -195 -69.5 -355.5t-198.5 -255.5t-291 -95q-178 0 -290.5 121t-112.5 317zM571 1808h172l170 -301h-100z" />
<glyph unicode="&#xd3;" horiz-adv-x="1536" d="M123 557q0 -257 152 -417t413 -160q144 0 275 60t231 167t159.5 267.5t59.5 350.5q0 85 -19 165t-62.5 156t-107.5 132.5t-162.5 90.5t-219.5 34q-142 0 -272 -60.5t-229.5 -168t-158.5 -268.5t-59 -349zM287 555q0 155 43.5 288.5t118 225.5t176.5 144.5t217 52.5 q179 0 293 -121.5t114 -321.5q0 -195 -69.5 -355.5t-198.5 -255.5t-291 -95q-178 0 -290.5 121t-112.5 317zM799 1507l223 301h184l-305 -301h-102z" />
<glyph unicode="&#xd4;" horiz-adv-x="1536" d="M123 557q0 -257 152 -417t413 -160q144 0 275 60t231 167t159.5 267.5t59.5 350.5q0 85 -19 165t-62.5 156t-107.5 132.5t-162.5 90.5t-219.5 34q-142 0 -272 -60.5t-229.5 -168t-158.5 -268.5t-59 -349zM287 555q0 155 43.5 288.5t118 225.5t176.5 144.5t217 52.5 q179 0 293 -121.5t114 -321.5q0 -195 -69.5 -355.5t-198.5 -255.5t-291 -95q-178 0 -290.5 121t-112.5 317zM584 1507l239 301h160l125 -301h-84l-131 193l-209 -193h-100z" />
<glyph unicode="&#xd5;" horiz-adv-x="1536" d="M123 557q0 -257 152 -417t413 -160q144 0 275 60t231 167t159.5 267.5t59.5 350.5q0 85 -19 165t-62.5 156t-107.5 132.5t-162.5 90.5t-219.5 34q-142 0 -272 -60.5t-229.5 -168t-158.5 -268.5t-59 -349zM287 555q0 155 43.5 288.5t118 225.5t176.5 144.5t217 52.5 q179 0 293 -121.5t114 -321.5q0 -195 -69.5 -355.5t-198.5 -255.5t-291 -95q-178 0 -290.5 121t-112.5 317zM526 1659q1 1 29.5 21.5t51.5 34t67.5 27t91.5 13.5q52 0 128.5 -37t129.5 -37q35 0 71 15t55 30l19 15l50 -68q-105 -100 -240 -100q-53 0 -131 37t-131 37 q-20 0 -38.5 -4t-34.5 -12.5t-25 -14.5t-24 -17.5t-17 -13.5z" />
<glyph unicode="&#xd6;" horiz-adv-x="1536" d="M123 557q0 -257 152 -417t413 -160q144 0 275 60t231 167t159.5 267.5t59.5 350.5q0 85 -19 165t-62.5 156t-107.5 132.5t-162.5 90.5t-219.5 34q-142 0 -272 -60.5t-229.5 -168t-158.5 -268.5t-59 -349zM287 555q0 155 43.5 288.5t118 225.5t176.5 144.5t217 52.5 q179 0 293 -121.5t114 -321.5q0 -195 -69.5 -355.5t-198.5 -255.5t-291 -95q-178 0 -290.5 121t-112.5 317zM598 1597l31 160h159l-30 -160h-160zM977 1597l31 160h159l-30 -160h-160z" />
<glyph unicode="&#xd7;" d="M152 297l385 321l-252 314l127 106l250 -313l376 317l88 -112l-374 -316l270 -333l-127 -107l-272 334l-381 -320z" />
<glyph unicode="&#xd8;" horiz-adv-x="1536" d="M123 557q0 188 59.5 349t159 268.5t229.5 168t271 60.5q127 0 223 -35l123 221l127 -45l-131 -235q116 -80 172.5 -210t56.5 -274q0 -190 -59.5 -350.5t-159.5 -267.5t-231 -167t-275 -60q-122 0 -215 34l-123 -221l-125 45l129 234q-111 75 -171 201t-60 284zM287 555 q0 -110 37.5 -199t105.5 -147l567 1028q-76 29 -153 29q-115 0 -217.5 -52.5t-177.5 -144.5t-118.5 -225.5t-43.5 -288.5zM539 143q68 -26 153 -26q161 0 289.5 95t198 255.5t69.5 355.5q0 227 -143 351z" />
<glyph unicode="&#xd9;" horiz-adv-x="1466" d="M123 420q0 34 2 66.5t7 66t8 51.5t10 52.5t8 39.5l133 684h158l-138 -708q-37 -171 -37 -254q0 -134 88.5 -217.5t233.5 -83.5q347 0 430 426l162 837h155l-161 -837q-20 -100 -50.5 -182.5t-80 -154.5t-113.5 -121t-153.5 -77t-198.5 -28q-219 0 -341 123t-122 317z M547 1808h172l170 -301h-101z" />
<glyph unicode="&#xda;" horiz-adv-x="1466" d="M123 420q0 34 2 66.5t7 66t8 51.5t10 52.5t8 39.5l133 684h158l-138 -708q-37 -171 -37 -254q0 -134 88.5 -217.5t233.5 -83.5q347 0 430 426l162 837h155l-161 -837q-20 -100 -50.5 -182.5t-80 -154.5t-113.5 -121t-153.5 -77t-198.5 -28q-219 0 -341 123t-122 317z M772 1507l223 301h185l-306 -301h-102z" />
<glyph unicode="&#xdb;" horiz-adv-x="1466" d="M123 420q0 34 2 66.5t7 66t8 51.5t10 52.5t8 39.5l133 684h158l-138 -708q-37 -171 -37 -254q0 -134 88.5 -217.5t233.5 -83.5q347 0 430 426l162 837h155l-161 -837q-20 -100 -50.5 -182.5t-80 -154.5t-113.5 -121t-153.5 -77t-198.5 -28q-219 0 -341 123t-122 317z M588 1507l239 301h160l125 -301h-84l-131 193l-209 -193h-100z" />
<glyph unicode="&#xdc;" horiz-adv-x="1466" d="M123 420q0 34 2 66.5t7 66t8 51.5t10 52.5t8 39.5l133 684h158l-138 -708q-37 -171 -37 -254q0 -134 88.5 -217.5t233.5 -83.5q347 0 430 426l162 837h155l-161 -837q-20 -100 -50.5 -182.5t-80 -154.5t-113.5 -121t-153.5 -77t-198.5 -28q-219 0 -341 123t-122 317z M575 1597l31 160h160l-31 -160h-160zM954 1597l31 160h160l-31 -160h-160z" />
<glyph unicode="&#xdd;" horiz-adv-x="1028" d="M123 1380h162l209 -700h8l475 700h174l-610 -872l-99 -508h-157l98 508zM571 1507l224 301h184l-305 -301h-103z" />
<glyph unicode="&#xde;" horiz-adv-x="1196" d="M123 0l268 1380h158l-51 -258h127q105 0 187.5 -22.5t134.5 -60t86 -89t47.5 -105.5t13.5 -114q0 -152 -80 -263t-215 -165.5t-307 -54.5q-90 0 -162 8l-49 -256h-158zM352 369q28 -7 127 -7q205 0 330 102.5t125 272.5q0 118 -91.5 194.5t-252.5 76.5q-21 0 -67 -2 t-48 -2z" />
<glyph unicode="&#xdf;" horiz-adv-x="1228" d="M113 0l198 1022q49 248 180.5 366.5t321.5 118.5q90 0 161 -25.5t111.5 -67.5t61 -88.5t20.5 -94.5q0 -97 -47 -158t-135 -110q-2 -1 -33.5 -19t-40.5 -24q-110 -65 -110 -146q0 -66 84 -127l96 -69q69 -49 103 -114.5t34 -127.5q0 -88 -37.5 -158t-100.5 -112 t-140.5 -64t-163.5 -22q-70 0 -134 8.5t-83 15.5q10 64 24 117q8 31 27 31q4 0 59.5 -17.5t108.5 -17.5q143 0 216 54.5t73 133.5q0 91 -97 160l-82 59q-27 19 -44 34t-43.5 44.5t-40 68.5t-13.5 85q0 42 12.5 79.5t31 65.5t47 54.5t54 44t58.5 36.5q9 5 27.5 15.5 t27.5 15.5q109 60 109 156q0 59 -54.5 109t-162.5 50q-119 0 -207.5 -87.5t-120.5 -247.5l-205 -1047h-151z" />
<glyph unicode="&#xe0;" horiz-adv-x="1087" d="M61 283q0 -120 92.5 -211.5t241.5 -91.5q59 0 113 18t91.5 46t58 48t34.5 39h8q-16 -83 -16 -106q0 -25 31 -25h123q14 161 34 260l64 332q18 87 18 141q0 55 -23 106.5t-68 95.5t-122.5 70.5t-175.5 26.5q-165 0 -284 -65q-21 -87 -21 -125q0 -17 14 -17q13 0 53.5 18 t103 36t128.5 18q118 0 181 -54.5t63 -127.5l-10 -78h-195q-248 0 -392.5 -93t-144.5 -261zM219 295q0 94 89 155.5t276 61.5h184q-12 -64 -14 -76q-28 -137 -114 -228t-212 -91q-96 0 -152.5 52.5t-56.5 125.5zM346 1507h172l170 -301h-100z" />
<glyph unicode="&#xe1;" horiz-adv-x="1087" d="M61 283q0 -120 92.5 -211.5t241.5 -91.5q59 0 113 18t91.5 46t58 48t34.5 39h8q-16 -83 -16 -106q0 -25 31 -25h123q14 161 34 260l64 332q18 87 18 141q0 55 -23 106.5t-68 95.5t-122.5 70.5t-175.5 26.5q-165 0 -284 -65q-21 -87 -21 -125q0 -17 14 -17q13 0 53.5 18 t103 36t128.5 18q118 0 181 -54.5t63 -127.5l-10 -78h-195q-248 0 -392.5 -93t-144.5 -261zM219 295q0 94 89 155.5t276 61.5h184q-12 -64 -14 -76q-28 -137 -114 -228t-212 -91q-96 0 -152.5 52.5t-56.5 125.5zM573 1206l224 301h184l-305 -301h-103z" />
<glyph unicode="&#xe2;" horiz-adv-x="1087" d="M61 283q0 -120 92.5 -211.5t241.5 -91.5q59 0 113 18t91.5 46t58 48t34.5 39h8q-16 -83 -16 -106q0 -25 31 -25h123q14 161 34 260l64 332q18 87 18 141q0 55 -23 106.5t-68 95.5t-122.5 70.5t-175.5 26.5q-165 0 -284 -65q-21 -87 -21 -125q0 -17 14 -17q13 0 53.5 18 t103 36t128.5 18q118 0 181 -54.5t63 -127.5l-10 -78h-195q-248 0 -392.5 -93t-144.5 -261zM219 295q0 94 89 155.5t276 61.5h184q-12 -64 -14 -76q-28 -137 -114 -228t-212 -91q-96 0 -152.5 52.5t-56.5 125.5zM379 1206l239 301h160l125 -301h-84l-131 193l-209 -193h-100 z" />
<glyph unicode="&#xe3;" horiz-adv-x="1087" d="M61 283q0 -120 92.5 -211.5t241.5 -91.5q59 0 113 18t91.5 46t58 48t34.5 39h8q-16 -83 -16 -106q0 -25 31 -25h123q14 161 34 260l64 332q18 87 18 141q0 55 -23 106.5t-68 95.5t-122.5 70.5t-175.5 26.5q-165 0 -284 -65q-21 -87 -21 -125q0 -17 14 -17q13 0 53.5 18 t103 36t128.5 18q118 0 181 -54.5t63 -127.5l-10 -78h-195q-248 0 -392.5 -93t-144.5 -261zM219 295q0 94 89 155.5t276 61.5h184q-12 -64 -14 -76q-28 -137 -114 -228t-212 -91q-96 0 -152.5 52.5t-56.5 125.5zM307 1348q1 1 29.5 21.5t51.5 34t67.5 27t91.5 13.5 q52 0 128.5 -37t129.5 -37q35 0 71 15t55 30l19 15l49 -68q-105 -100 -239 -100q-53 0 -131 36.5t-131 36.5q-20 0 -38.5 -3.5t-35.5 -13t-24.5 -14t-24.5 -17.5l-17 -13z" />
<glyph unicode="&#xe4;" horiz-adv-x="1087" d="M61 283q0 -120 92.5 -211.5t241.5 -91.5q59 0 113 18t91.5 46t58 48t34.5 39h8q-16 -83 -16 -106q0 -25 31 -25h123q14 161 34 260l64 332q18 87 18 141q0 55 -23 106.5t-68 95.5t-122.5 70.5t-175.5 26.5q-165 0 -284 -65q-21 -87 -21 -125q0 -17 14 -17q13 0 53.5 18 t103 36t128.5 18q118 0 181 -54.5t63 -127.5l-10 -78h-195q-248 0 -392.5 -93t-144.5 -261zM219 295q0 94 89 155.5t276 61.5h184q-12 -64 -14 -76q-28 -137 -114 -228t-212 -91q-96 0 -152.5 52.5t-56.5 125.5zM377 1276l31 160h159l-30 -160h-160zM756 1276l30 160h160 l-31 -160h-159z" />
<glyph unicode="&#xe5;" horiz-adv-x="1087" d="M61 283q0 -120 92.5 -211.5t241.5 -91.5q59 0 113 18t91.5 46t58 48t34.5 39h8q-16 -83 -16 -106q0 -25 31 -25h123q14 161 34 260l64 332q18 87 18 141q0 55 -23 106.5t-68 95.5t-122.5 70.5t-175.5 26.5q-165 0 -284 -65q-21 -87 -21 -125q0 -17 14 -17q13 0 53.5 18 t103 36t128.5 18q118 0 181 -54.5t63 -127.5l-10 -78h-195q-248 0 -392.5 -93t-144.5 -261zM219 295q0 94 89 155.5t276 61.5h184q-12 -64 -14 -76q-28 -137 -114 -228t-212 -91q-96 0 -152.5 52.5t-56.5 125.5zM434 1305q0 86 66 152.5t164 66.5q86 0 135 -54.5t49 -128.5 q0 -85 -66 -151t-164 -66q-86 0 -135 54t-49 127zM530 1315q0 -41 27 -69.5t74 -28.5q49 0 85 35.5t36 82.5q0 37 -26.5 67t-72.5 30q-55 0 -89 -37.5t-34 -79.5z" />
<glyph unicode="&#xe6;" horiz-adv-x="1798" d="M61 268q0 141 117 223t344 82h264q13 85 13 127q0 83 -60.5 140t-177.5 57q-67 0 -129.5 -18t-102.5 -36t-53 -18q-14 0 -14 19q0 45 19 123q126 65 286 65q128 0 215 -42t131 -113q139 155 359 155q115 0 201 -34.5t132.5 -91.5t68.5 -121t22 -134q0 -97 -31 -200h-737 q0 -60 22 -118t64 -107t110 -79t152 -30q72 0 126.5 16.5t84 32.5t39.5 16q16 0 16 -16q0 -22 -20 -139q-127 -47 -271 -47q-154 0 -259 62.5t-163 168.5h-10q-7 -17 -22.5 -40.5t-50.5 -59t-79.5 -63t-115 -48t-150.5 -20.5q-83 0 -150 25t-107.5 67t-61.5 92t-21 104z M221 279q0 -75 56 -118.5t151 -43.5q134 0 216 77.5t104 200.5l10 54h-213q-175 0 -249.5 -48.5t-74.5 -121.5zM938 573h596q10 35 10 84q0 41 -17 82.5t-48.5 77t-84 58t-116.5 22.5q-67 0 -123 -21.5t-93 -55t-64 -78t-41 -86t-19 -83.5z" />
<glyph unicode="&#xe7;" horiz-adv-x="968" d="M102 455q0 137 49.5 248.5t133 182t188 108.5t219.5 38q148 0 279 -59q-10 -64 -23 -113q-6 -26 -26 -26q-11 0 -29 12q-88 49 -209 49q-90 0 -169.5 -38t-133 -100t-84.5 -140.5t-31 -159.5q0 -148 81 -245t228 -97q50 0 95 13.5t75 26.5t43 13q19 0 19 -18 q0 -42 -19 -125q-84 -36 -196 -45l-53 -82q8 4 32 4q63 0 102.5 -39t39.5 -96q0 -73 -55.5 -136t-131 -98t-149.5 -41l-35 59q28 6 64.5 19.5t80 36.5t72.5 60t29 79q0 31 -25 55.5t-80 24.5h-61l74 154q-176 15 -285 151t-109 324z" />
<glyph unicode="&#xe8;" horiz-adv-x="1132" d="M102 473q0 -75 17 -145t55 -134t93.5 -111t137.5 -75t181 -28q143 0 270 47q21 92 21 139q0 16 -15 16q-11 0 -40.5 -16t-84 -32.5t-125.5 -16.5q-85 0 -153.5 30t-110.5 79t-64 107t-22 118h739q8 23 18.5 84t10.5 116q0 70 -22 134t-68.5 121t-132 91.5t-199.5 34.5 q-116 0 -213 -46.5t-160 -124t-98 -178t-35 -210.5zM272 573q5 41 19 82.5t41.5 86t64.5 78.5t93.5 55.5t123.5 21.5q83 0 145.5 -38.5t91 -92t28.5 -109.5q0 -45 -11 -84h-596zM375 1507h172l170 -301h-101z" />
<glyph unicode="&#xe9;" horiz-adv-x="1132" d="M102 473q0 -75 17 -145t55 -134t93.5 -111t137.5 -75t181 -28q143 0 270 47q21 92 21 139q0 16 -15 16q-11 0 -40.5 -16t-84 -32.5t-125.5 -16.5q-85 0 -153.5 30t-110.5 79t-64 107t-22 118h739q8 23 18.5 84t10.5 116q0 70 -22 134t-68.5 121t-132 91.5t-199.5 34.5 q-116 0 -213 -46.5t-160 -124t-98 -178t-35 -210.5zM272 573q5 41 19 82.5t41.5 86t64.5 78.5t93.5 55.5t123.5 21.5q83 0 145.5 -38.5t91 -92t28.5 -109.5q0 -45 -11 -84h-596zM557 1206l223 301h185l-306 -301h-102z" />
<glyph unicode="&#xea;" horiz-adv-x="1132" d="M102 473q0 -75 17 -145t55 -134t93.5 -111t137.5 -75t181 -28q143 0 270 47q21 92 21 139q0 16 -15 16q-11 0 -40.5 -16t-84 -32.5t-125.5 -16.5q-85 0 -153.5 30t-110.5 79t-64 107t-22 118h739q8 23 18.5 84t10.5 116q0 70 -22 134t-68.5 121t-132 91.5t-199.5 34.5 q-116 0 -213 -46.5t-160 -124t-98 -178t-35 -210.5zM272 573q5 41 19 82.5t41.5 86t64.5 78.5t93.5 55.5t123.5 21.5q83 0 145.5 -38.5t91 -92t28.5 -109.5q0 -45 -11 -84h-596zM406 1206l239 301h160l125 -301h-84l-131 193l-209 -193h-100z" />
<glyph unicode="&#xeb;" horiz-adv-x="1132" d="M102 473q0 -75 17 -145t55 -134t93.5 -111t137.5 -75t181 -28q143 0 270 47q21 92 21 139q0 16 -15 16q-11 0 -40.5 -16t-84 -32.5t-125.5 -16.5q-85 0 -153.5 30t-110.5 79t-64 107t-22 118h739q8 23 18.5 84t10.5 116q0 70 -22 134t-68.5 121t-132 91.5t-199.5 34.5 q-116 0 -213 -46.5t-160 -124t-98 -178t-35 -210.5zM272 573q5 41 19 82.5t41.5 86t64.5 78.5t93.5 55.5t123.5 21.5q83 0 145.5 -38.5t91 -92t28.5 -109.5q0 -45 -11 -84h-596zM358 1276l31 160h160l-31 -160h-160zM737 1276l31 160h160l-31 -160h-160z" />
<glyph unicode="&#xec;" horiz-adv-x="546" d="M113 0h151l197 1012h-152zM121 1507h172l170 -301h-101z" />
<glyph unicode="&#xed;" horiz-adv-x="546" d="M113 0h151l197 1012h-152zM332 1206l223 301h184l-305 -301h-102z" />
<glyph unicode="&#xee;" horiz-adv-x="546" d="M113 0h151l197 1012h-152zM150 1206l239 301h160l125 -301h-84l-131 193l-209 -193h-100z" />
<glyph unicode="&#xef;" horiz-adv-x="546" d="M113 0h153l197 1012h-154zM162 1276l31 160h159l-30 -160h-160zM541 1276l30 160h160l-31 -160h-159z" />
<glyph unicode="&#xf0;" horiz-adv-x="1292" d="M102 446q0 164 66 296t194 211t297 79q189 0 306 -123l10 6q-3 70 -31.5 152t-75.5 152l-221 -127l-51 92l201 121q-41 41 -86 69q-11 7 -11 17q0 32 84 116q94 -52 154 -121l195 117l57 -94l-182 -106q145 -219 145 -568q0 -124 -19 -232.5t-63.5 -206t-111 -166.5 t-168 -109.5t-228.5 -40.5q-96 0 -175 28t-131 73.5t-88 107t-51.5 126t-15.5 131.5zM262 440q0 -57 18 -112.5t53.5 -104t98.5 -78.5t143 -30q117 0 206 66.5t132 167.5t43 216q0 60 -18 117t-54.5 106t-99 79t-143.5 30q-112 0 -199.5 -63t-133.5 -166.5t-46 -227.5z" />
<glyph unicode="&#xf1;" horiz-adv-x="1239" d="M113 0h151q65 340 96 500q36 188 131.5 292.5t225.5 104.5q98 0 154.5 -56t56.5 -136q0 -71 -21 -166l-104 -539h151q70 365 105 539q26 126 26 194q0 124 -95 211.5t-245 87.5q-64 0 -118.5 -16t-91.5 -42.5t-59.5 -50.5t-39.5 -51h-8q23 105 23 121q0 19 -23 19h-129 q-16 -128 -51 -310zM391 1352q1 1 29.5 21.5t51.5 34t67.5 27t91.5 13.5q52 0 128.5 -37t129.5 -37q35 0 71 15t55 30l19 15l49 -68q-105 -100 -239 -100q-53 0 -131 36.5t-131 36.5q-20 0 -38.5 -3.5t-35.5 -13t-24.5 -14t-24.5 -17.5l-17 -13z" />
<glyph unicode="&#xf2;" horiz-adv-x="1218" d="M102 446q0 164 66 296t193.5 211t295.5 79q115 0 205.5 -41t144.5 -109t81.5 -149t27.5 -168q0 -165 -68 -298t-194.5 -210t-290.5 -77q-96 0 -175 28t-131 73.5t-88 107t-51.5 126t-15.5 131.5zM262 440q0 -57 17.5 -112t53 -104t98.5 -79t144 -30q116 0 205 66.5 t132.5 167.5t43.5 216q0 61 -18 117.5t-54.5 105.5t-100 79t-144.5 30q-167 0 -272 -133.5t-105 -323.5zM360 1507h172l170 -301h-100z" />
<glyph unicode="&#xf3;" horiz-adv-x="1218" d="M102 446q0 164 66 296t193.5 211t295.5 79q115 0 205.5 -41t144.5 -109t81.5 -149t27.5 -168q0 -165 -68 -298t-194.5 -210t-290.5 -77q-96 0 -175 28t-131 73.5t-88 107t-51.5 126t-15.5 131.5zM262 440q0 -57 17.5 -112t53 -104t98.5 -79t144 -30q116 0 205 66.5 t132.5 167.5t43.5 216q0 61 -18 117.5t-54.5 105.5t-100 79t-144.5 30q-167 0 -272 -133.5t-105 -323.5zM569 1206l224 301h184l-305 -301h-103z" />
<glyph unicode="&#xf4;" horiz-adv-x="1218" d="M102 446q0 164 66 296t193.5 211t295.5 79q115 0 205.5 -41t144.5 -109t81.5 -149t27.5 -168q0 -165 -68 -298t-194.5 -210t-290.5 -77q-96 0 -175 28t-131 73.5t-88 107t-51.5 126t-15.5 131.5zM262 440q0 -57 17.5 -112t53 -104t98.5 -79t144 -30q116 0 205 66.5 t132.5 167.5t43.5 216q0 61 -18 117.5t-54.5 105.5t-100 79t-144.5 30q-167 0 -272 -133.5t-105 -323.5zM375 1206l239 301h160l125 -301h-84l-131 193l-209 -193h-100z" />
<glyph unicode="&#xf5;" horiz-adv-x="1218" d="M102 446q0 164 66 296t193.5 211t295.5 79q115 0 205.5 -41t144.5 -109t81.5 -149t27.5 -168q0 -165 -68 -298t-194.5 -210t-290.5 -77q-96 0 -175 28t-131 73.5t-88 107t-51.5 126t-15.5 131.5zM262 440q0 -57 17.5 -112t53 -104t98.5 -79t144 -30q116 0 205 66.5 t132.5 167.5t43.5 216q0 61 -18 117.5t-54.5 105.5t-100 79t-144.5 30q-167 0 -272 -133.5t-105 -323.5zM334 1346q2 1 30 21.5t50.5 34t67 27t91.5 13.5q52 0 128.5 -37t129.5 -37q35 0 71.5 15t55.5 29l19 15l49 -67q-105 -100 -240 -100q-53 0 -131 36.5t-131 36.5 q-20 0 -38.5 -4t-35 -12.5t-24.5 -13.5t-24 -17.5t-17 -13.5z" />
<glyph unicode="&#xf6;" horiz-adv-x="1218" d="M102 446q0 164 66 296t193.5 211t295.5 79q115 0 205.5 -41t144.5 -109t81.5 -149t27.5 -168q0 -165 -68 -298t-194.5 -210t-290.5 -77q-96 0 -175 28t-131 73.5t-88 107t-51.5 126t-15.5 131.5zM262 440q0 -57 17.5 -112t53 -104t98.5 -79t144 -30q116 0 205 66.5 t132.5 167.5t43.5 216q0 61 -18 117.5t-54.5 105.5t-100 79t-144.5 30q-167 0 -272 -133.5t-105 -323.5zM412 1276l30 160h160l-31 -160h-159zM791 1276l30 160h160l-31 -160h-159z" />
<glyph unicode="&#xf7;" d="M102 555l25 127h1049l-25 -127h-1049zM477 215l31 160h160l-31 -160h-160zM602 848l31 160h160l-31 -160h-160z" />
<glyph unicode="&#xf8;" horiz-adv-x="1218" d="M102 446q0 164 66 296t194 211t297 79q90 0 170 -26l127 217l119 -39l-137 -236q88 -65 133 -167.5t45 -215.5q0 -165 -68 -298t-194.5 -210t-290.5 -77q-89 0 -172 26l-125 -217l-121 39l138 233q-90 66 -135.5 169.5t-45.5 215.5zM262 440q0 -67 26 -134t77 -116 l397 687q-50 20 -121 20q-167 0 -273 -133.5t-106 -323.5zM457 135q58 -20 118 -20q117 0 206 66.5t132 167.5t43 216q0 157 -100 254z" />
<glyph unicode="&#xf9;" horiz-adv-x="1239" d="M154 279q0 -127 88.5 -213t251.5 -86q63 0 117.5 16t91.5 43t60 50.5t40 49.5h8q-23 -98 -23 -121q0 -18 23 -18h129q19 155 49 309l137 703h-151q-65 -340 -96 -500q-36 -188 -131.5 -292.5t-225.5 -104.5q-104 0 -157.5 56t-53.5 136q0 71 21 166l104 539h-151 q-72 -365 -105 -539q-26 -126 -26 -194zM420 1507h172l170 -301h-100z" />
<glyph unicode="&#xfa;" horiz-adv-x="1239" d="M154 279q0 -127 88.5 -213t251.5 -86q63 0 117.5 16t91.5 43t60 50.5t40 49.5h8q-23 -98 -23 -121q0 -18 23 -18h129q19 155 49 309l137 703h-151q-65 -340 -96 -500q-36 -188 -131.5 -292.5t-225.5 -104.5q-104 0 -157.5 56t-53.5 136q0 71 21 166l104 539h-151 q-72 -365 -105 -539q-26 -126 -26 -194zM635 1206l223 301h184l-305 -301h-102z" />
<glyph unicode="&#xfb;" horiz-adv-x="1239" d="M154 279q0 -127 88.5 -213t251.5 -86q63 0 117.5 16t91.5 43t60 50.5t40 49.5h8q-23 -98 -23 -121q0 -18 23 -18h129q19 155 49 309l137 703h-151q-65 -340 -96 -500q-36 -188 -131.5 -292.5t-225.5 -104.5q-104 0 -157.5 56t-53.5 136q0 71 21 166l104 539h-151 q-72 -365 -105 -539q-26 -126 -26 -194zM440 1206l240 301h160l125 -301h-84l-131 193l-209 -193h-101z" />
<glyph unicode="&#xfc;" horiz-adv-x="1239" d="M154 279q0 -127 88.5 -213t251.5 -86q63 0 117.5 16t91.5 43t60 50.5t40 49.5h8q-23 -98 -23 -121q0 -18 23 -18h129q19 155 49 309l137 703h-151q-65 -340 -96 -500q-36 -188 -131.5 -292.5t-225.5 -104.5q-104 0 -157.5 56t-53.5 136q0 71 21 166l104 539h-151 q-72 -365 -105 -539q-26 -126 -26 -194zM457 1276l30 160h160l-31 -160h-159zM836 1276l30 160h160l-31 -160h-159z" />
<glyph unicode="&#xfd;" horiz-adv-x="1021" d="M-225 -481q67 -25 159 -25q59 0 111 12.5t91 29.5t78.5 51.5t65 62t59.5 80t52.5 85t53.5 95.5q11 19 16 29l602 1073h-168l-442 -799h-11l-143 799h-170l203 -1004q-49 -88 -90 -160q-116 -210 -287 -210q-39 0 -81 7t-44 7q-19 0 -25 -25zM537 1206l223 301h184 l-305 -301h-102z" />
<glyph unicode="&#xfe;" horiz-adv-x="1214" d="M41 -473l377 1939h151l-116 -592h8q12 19 32 41t54.5 51t86 47.5t107.5 18.5q92 0 164.5 -33t116.5 -89t67 -126t23 -149q0 -148 -48 -272t-131.5 -207.5t-195.5 -129.5t-239 -46q-57 0 -125.5 10t-85.5 16l-94 -479h-152zM313 141q78 -26 181 -26q118 0 222 64.5 t169 182t65 259.5q0 113 -60.5 194.5t-170.5 81.5q-118 0 -211.5 -114.5t-132.5 -325.5z" />
<glyph unicode="&#xff;" horiz-adv-x="1021" d="M-225 -481q67 -25 159 -25q59 0 111 12.5t91 29.5t78.5 51.5t65 62t59.5 80t52.5 85t53.5 95.5q11 19 16 29l602 1073h-168l-442 -799h-11l-143 799h-170l203 -1004q-49 -88 -90 -160q-116 -210 -287 -210q-39 0 -81 7t-44 7q-19 0 -25 -25zM362 1276l31 160h160 l-31 -160h-160zM741 1276l31 160h160l-31 -160h-160z" />
<glyph unicode="&#x152;" horiz-adv-x="2068" d="M123 557q0 188 59 349t158.5 268.5t229.5 168t272 60.5q335 0 487 -252l45 231h694l-24 -127h-537l-94 -481h512l-24 -127h-512l-101 -516h541l-25 -131h-698l29 147q-195 -167 -447 -167q-261 0 -413 160t-152 417zM287 555q0 -196 112.5 -317t290.5 -121q162 0 291 95 t198.5 255.5t69.5 355.5q0 200 -114 321.5t-293 121.5q-115 0 -217 -52.5t-176.5 -144.5t-118 -225.5t-43.5 -288.5z" />
<glyph unicode="&#x153;" horiz-adv-x="1980" d="M102 446q0 164 66 296t193.5 211t295.5 79q269 0 387 -213h9q67 99 170 156t233 57q92 0 166 -23.5t121 -61t78 -88.5t44 -102.5t13 -105.5q0 -55 -10.5 -116t-18.5 -84h-737q0 -60 22 -118t64 -107t110 -79t152 -30q71 0 125.5 16.5t84 32.5t40.5 16q16 0 16 -16 q0 -52 -20 -139q-136 -47 -272 -47q-96 0 -172.5 21.5t-126 59t-79.5 78t-48 88.5h-9q-21 -42 -59.5 -83t-92.5 -79t-128.5 -61.5t-155.5 -23.5q-96 0 -175 28t-131 73.5t-88 107t-51.5 126t-15.5 131.5zM262 440q0 -57 18 -112.5t53.5 -104t98.5 -78.5t143 -30 q116 0 205 66.5t132.5 167.5t43.5 216q0 61 -18 117.5t-54.5 105.5t-100 79t-144.5 30q-167 0 -272 -133.5t-105 -323.5zM1122 573h596q0 2 3.5 18t5.5 33t2 33q0 56 -28.5 109.5t-91.5 92t-147 38.5q-67 0 -123 -21.5t-93 -55.5t-64.5 -78.5t-41 -86t-18.5 -82.5z" />
<glyph unicode="&#x178;" horiz-adv-x="1028" d="M123 1380h162l209 -700h8l475 700h174l-610 -872l-99 -508h-157l98 508zM412 1597l30 160h160l-31 -160h-159zM791 1597l30 160h160l-31 -160h-159z" />
<glyph unicode="&#x2c6;" horiz-adv-x="688" d="M82 1079l242 301h159l123 -301h-84l-131 193l-207 -193h-102z" />
<glyph unicode="&#x2dc;" horiz-adv-x="856" d="M82 1307q1 1 29.5 21.5t51.5 34t67.5 27t91.5 13.5q52 0 128.5 -37t129.5 -37q17 0 34.5 4t30 8.5t27.5 12.5t22 12.5t18.5 13.5t12.5 9l49 -68q-105 -100 -239 -100q-55 0 -133.5 36.5t-129.5 36.5q-20 0 -38.5 -4t-35 -12.5t-24.5 -13.5t-24 -17.5t-17 -13.5z" />
<glyph unicode="&#x2000;" horiz-adv-x="910" />
<glyph unicode="&#x2001;" horiz-adv-x="1821" />
<glyph unicode="&#x2002;" horiz-adv-x="910" />
<glyph unicode="&#x2003;" horiz-adv-x="1821" />
<glyph unicode="&#x2004;" horiz-adv-x="607" />
<glyph unicode="&#x2005;" horiz-adv-x="455" />
<glyph unicode="&#x2006;" horiz-adv-x="303" />
<glyph unicode="&#x2007;" horiz-adv-x="303" />
<glyph unicode="&#x2008;" horiz-adv-x="227" />
<glyph unicode="&#x2009;" horiz-adv-x="364" />
<glyph unicode="&#x200a;" horiz-adv-x="101" />
<glyph unicode="&#x2010;" horiz-adv-x="784" d="M123 432l24 127h494l-25 -127h-493z" />
<glyph unicode="&#x2011;" horiz-adv-x="784" d="M123 432l24 127h494l-25 -127h-493z" />
<glyph unicode="&#x2012;" horiz-adv-x="784" d="M123 432l24 127h494l-25 -127h-493z" />
<glyph unicode="&#x2013;" horiz-adv-x="1187" d="M123 432l27 127h894l-26 -127h-895z" />
<glyph unicode="&#x2014;" horiz-adv-x="1552" d="M123 432l27 127h1259l-27 -127h-1259z" />
<glyph unicode="&#x2018;" horiz-adv-x="342" d="M164 1012l31 159q8 43 31 80t52 61.5t56 39.5t51 22l18 -37q-45 -24 -80.5 -67.5t-46.5 -98.5h78l-30 -159h-160z" />
<glyph unicode="&#x2019;" horiz-adv-x="280" d="M205 1055q45 24 80.5 67.5t46.5 98.5h-78l31 159h159l-30 -159q-11 -56 -47.5 -102t-73.5 -69t-70 -32z" />
<glyph unicode="&#x201a;" horiz-adv-x="362" d="M-41 -166q45 24 80.5 67.5t46.5 98.5h-78l31 160h160l-31 -160q-11 -56 -47.5 -102t-73.5 -69t-70 -32z" />
<glyph unicode="&#x201c;" horiz-adv-x="655" d="M164 1032l31 160q8 43 31 80t52 61.5t56 39.5t51 22l18 -37q-45 -24 -80.5 -67.5t-46.5 -98.5h78l-30 -160h-160zM477 1032l31 160q8 43 30.5 80t51 61.5t55.5 39.5t51 22l21 -37q-45 -24 -80.5 -67.5t-46.5 -98.5h78l-31 -160h-160z" />
<glyph unicode="&#x201d;" horiz-adv-x="593" d="M205 1055q45 24 80.5 67.5t46.5 98.5h-78l31 159h159l-30 -159q-11 -56 -47.5 -102t-73.5 -69t-70 -32zM518 1055q45 24 80 67.5t45 98.5h-78l33 159h160l-33 -159q-18 -86 -74.5 -136.5t-113.5 -66.5z" />
<glyph unicode="&#x201e;" horiz-adv-x="675" d="M-41 -166q45 24 80.5 67.5t46.5 98.5h-78l31 160h160l-31 -160q-8 -43 -30.5 -80t-51 -61.5t-55.5 -39.5t-51 -22zM272 -166q45 24 80.5 67.5t46.5 98.5h-77l30 160h160l-31 -160q-8 -43 -31 -80t-52 -61.5t-56 -39.5t-51 -22z" />
<glyph unicode="&#x2022;" horiz-adv-x="667" d="M164 375l49 250h250l-49 -250h-250z" />
<glyph unicode="&#x2026;" horiz-adv-x="1402" d="M0 0l31 160h159l-30 -160h-160zM524 0l31 160h160l-31 -160h-160zM1049 0l30 160h160l-31 -160h-159z" />
<glyph unicode="&#x202f;" horiz-adv-x="364" />
<glyph unicode="&#x2039;" horiz-adv-x="708" d="M123 485l428 412l76 -82l-353 -336l220 -346l-107 -65z" />
<glyph unicode="&#x203a;" horiz-adv-x="851" d="M154 156l352 338l-217 344l104 67l264 -420l-426 -409z" />
<glyph unicode="&#x205f;" horiz-adv-x="455" />
<glyph unicode="&#x20ac;" d="M0 489l92 127h82q3 80 19 166h-136l93 127h77q84 231 281 361.5t453 130.5q99 0 204 -21.5t148 -38.5l-62 -145q-146 68 -307 68q-104 0 -205 -37t-191.5 -119.5t-141.5 -198.5h716l-55 -127h-705q-15 -76 -18 -166h651l-55 -127h-584q32 -164 149 -268t292 -104 q65 0 129 15.5t92.5 28.5t40.5 21v-143q-15 -7 -42.5 -17.5t-99.5 -26t-143 -15.5q-121 0 -225.5 40t-179 109.5t-123 161.5t-64.5 198h-182z" />
<glyph unicode="&#x2122;" horiz-adv-x="1013" d="M266 1327l10 53h279l-10 -53h-109l-67 -356h-62l70 356h-111zM475 971l133 409h70l37 -297h8l137 297h72l-19 -409h-61l20 301h-8l-143 -301h-51l-35 301h-8l-90 -301h-62z" />
<glyph unicode="&#xe000;" horiz-adv-x="1013" d="M0 0v1014h1014v-1014h-1014z" />
<glyph unicode="&#xfb03;" horiz-adv-x="1597" d="M133 883l25 129h176q22 112 26 135q33 178 149.5 269t295.5 91q101 0 156 -22q-2 -11 -6 -29.5t-9 -38t-6 -24.5q-6 -27 -31 -27q-3 0 -41.5 7t-81.5 7q-228 0 -278 -256l-23 -112h371q21 104 25 127q72 368 452 368q137 0 244 -43q-11 -51 -25 -92q-8 -29 -26 -29 q-10 0 -78.5 18.5t-142.5 18.5q-115 0 -183.5 -69.5t-91.5 -186.5l-22 -112h522l-199 -1012h-151l172 883h-369l-172 -883h-152l172 883h-370l-172 -883h-152l172 883h-176z" />
<glyph unicode="&#xfb04;" horiz-adv-x="1617" d="M133 883l25 129h176q18 93 22 116q37 190 147.5 284.5t301.5 94.5q101 0 156 -22q-6 -36 -23 -92q-9 -27 -29 -27q-3 0 -41 7t-80 7q-122 0 -189.5 -71t-90.5 -185l-23 -112h373q19 102 23 125q73 370 444 370q75 0 148 -9.5t109 -18.5t36 -11l-285 -1468h-151l262 1358 q-44 22 -133 22q-231 0 -281 -256l-20 -112h231l-27 -129h-231l-170 -883h-154l172 883h-370l-172 -883h-152q106 542 172 883h-176z" />
</font>
</defs>
</svg>
