<?xml version="1.0" standalone="no"?>
<!DOCTYPE svg PUBLIC "-//W3C//DTD SVG 1.1//EN" "http://www.w3.org/Graphics/SVG/1.1/DTD/svg11.dtd" >
<svg xmlns="http://www.w3.org/2000/svg">
<metadata></metadata>
<defs>
<font id="AmericanRegular" horiz-adv-x="1273" >
<font-face units-per-em="2048" ascent="1536" descent="-512" />
<missing-glyph horiz-adv-x="512" />
<glyph unicode="&#xfb01;" horiz-adv-x="1064" d="M31 883v129h178v106q0 188 98 288.5t281 100.5q34 0 66 -2.5t54.5 -6t47 -9.5t37 -9.5t29.5 -9t20 -6.5l-8 -92q0 -29 -21 -29q-10 0 -79.5 18.5t-143.5 18.5q-115 0 -172.5 -70t-57.5 -186v-112h521v-1012h-152v883h-369v-883h-151v883h-178z" />
<glyph unicode="&#xfb02;" horiz-adv-x="1067" d="M31 883v129h178v106q0 185 101 287t272 102q38 0 74.5 -2t65 -5t52.5 -7t43.5 -8t31.5 -7.5t22.5 -6.5t11.5 -3v-1468h-152v1358q-59 22 -141 22q-118 0 -174 -71.5t-56 -184.5v-112h232v-129h-232v-883h-151v883h-178z" />
<glyph horiz-adv-x="0" />
<glyph horiz-adv-x="0" />
<glyph unicode="&#xd;" horiz-adv-x="737" />
<glyph unicode=" "  horiz-adv-x="512" />
<glyph unicode="&#x09;" horiz-adv-x="512" />
<glyph unicode="&#xa0;" horiz-adv-x="512" />
<glyph unicode="!" horiz-adv-x="618" d="M213 0v160h160v-160h-160zM213 1380h164l-23 -974h-118z" />
<glyph unicode="&#x22;" horiz-adv-x="665" d="M123 1380h162l-43 -368h-76zM381 1380h162l-43 -368h-76z" />
<glyph unicode="#" d="M76 358v127h248l45 414h-236v125h250l39 358h139l-39 -358h295l39 358h139l-37 -358h238v-125h-252l-45 -414h240v-127h-252l-39 -358h-139l36 358h-292l-39 -358h-140l37 358h-235zM465 485h295l45 414h-295z" />
<glyph unicode="$" d="M205 1032q0 140 87.5 235.5t260.5 123.5v172h158v-162q105 0 235 -29l-12 -145q-34 12 -103 24.5t-143 12.5q-148 0 -235.5 -57t-87.5 -169q0 -146 180 -219l137 -57q324 -134 324 -387q0 -130 -76.5 -229.5t-218.5 -139.5v-221h-158v197q-6 0 -17.5 -1t-17.5 -1 q-83 0 -171.5 10.5t-125.5 21.5l8 152q145 -47 275 -47q161 0 250.5 67.5t89.5 182.5q0 50 -19.5 91t-56 71.5t-73.5 51t-87 40.5l-131 55q-127 53 -199.5 137t-72.5 219z" />
<glyph unicode="%" horiz-adv-x="1734" d="M111 1073q0 156 80.5 251t250.5 95q162 0 246 -93t84 -253q0 -152 -82.5 -248t-247.5 -96q-160 0 -245.5 90t-85.5 254zM252 1073q0 -115 48.5 -177t141.5 -62q91 0 140 64t49 175q0 110 -48.5 176t-140.5 66q-95 0 -142.5 -65.5t-47.5 -176.5zM360 0h158l825 1380h-157z M938 326q0 156 81 251t251 95q161 0 245 -93.5t84 -252.5q0 -73 -19.5 -134.5t-58 -109.5t-103 -75t-148.5 -27q-160 0 -246 90.5t-86 255.5zM1079 324q0 -113 49.5 -176.5t141.5 -63.5q91 0 139.5 64.5t48.5 175.5t-47.5 176t-140.5 65q-95 0 -143 -65t-48 -176z" />
<glyph unicode="&#x26;" horiz-adv-x="1486" d="M156 373q0 47 10.5 91.5t25 77.5t40.5 67.5t45.5 55t53.5 47.5t50.5 38.5t48.5 33.5q-78 94 -105 139q-55 93 -55 179q0 132 89 215.5t223 83.5q164 0 254 -74.5t90 -198.5q0 -34 -10 -67.5t-24 -60t-38 -54.5t-43.5 -47t-49.5 -42t-47.5 -35t-46 -30.5t-36.5 -23.5 q83 -98 201.5 -220t211.5 -198q54 87 86.5 205.5t32.5 245.5h162q0 -160 -50.5 -307t-121.5 -234q20 -17 76.5 -61.5t103.5 -80.5l47 -36l-123 -109q-153 129 -204 174q-1 -1 -15.5 -12.5t-28 -22t-39.5 -27t-52 -30t-64 -28t-77 -24.5t-89.5 -16.5t-103.5 -6.5 q-62 0 -121 13.5t-115.5 44t-98.5 74.5t-67.5 111.5t-25.5 149.5zM317 381q0 -119 87 -192.5t229 -73.5q181 0 317 121q-155 131 -436 454q-2 -2 -31 -24.5t-52.5 -46t-52 -59t-45 -82t-16.5 -97.5zM424 1116q0 -35 10 -69t35 -73.5t37 -55t45 -58.5q98 62 133 95 q82 76 82 165q0 56 -44.5 100t-127.5 44q-74 0 -122 -44t-48 -104z" />
<glyph unicode="'" horiz-adv-x="405" d="M123 1380h160l-41 -368h-78z" />
<glyph unicode="(" horiz-adv-x="772" d="M221 399q0 135 22.5 271t56 241t77.5 202t80.5 159t70.5 108h125q-37 -55 -79.5 -146.5t-86.5 -219t-73 -291.5t-29 -324t28.5 -324t73 -291t86.5 -218.5t80 -147.5h-125q-34 46 -70.5 108t-80.5 159t-77.5 202t-56 241t-22.5 271z" />
<glyph unicode=")" horiz-adv-x="772" d="M106 -582q38 56 80 147.5t86.5 218.5t73.5 291t29 324t-29 324t-73.5 291.5t-87 219t-79.5 146.5h125q45 -61 91.5 -147t98.5 -212.5t85 -290.5t33 -331t-33 -331t-85 -290.5t-98.5 -212.5t-91.5 -147h-125z" />
<glyph unicode="*" horiz-adv-x="806" d="M127 1135l37 110l215 -94l-29 229h117l-23 -231l211 96l35 -110l-227 -52l158 -170l-97 -67l-116 203l-115 -203l-94 67l155 177z" />
<glyph unicode="+" d="M113 555v127h452v442h158v-442h438v-127h-438v-442h-158v442h-452z" />
<glyph unicode="," horiz-adv-x="421" d="M123 -166q94 65 94 166h-78v160h160v-160q0 -65 -48 -121.5t-101 -81.5z" />
<glyph unicode="-" horiz-adv-x="821" d="M164 432v127h493v-127h-493z" />
<glyph unicode="." horiz-adv-x="405" d="M123 0v160h160v-160h-160z" />
<glyph unicode="/" horiz-adv-x="823" d="M57 0l527 1380h147l-526 -1380h-148z" />
<glyph unicode="0" d="M125 690q0 109 17 209t56 193t97 160.5t146.5 108t197.5 40.5q103 0 189 -37.5t145.5 -103t100.5 -155.5t60 -194.5t19 -220.5q0 -204 -56 -362t-174 -253t-284 -95q-130 0 -230.5 56t-161.5 154.5t-91.5 224.5t-30.5 275zM283 690q0 -275 91 -424t263 -149 q92 0 161 42.5t110.5 120.5t62 180.5t20.5 229.5t-20 229.5t-61.5 181t-110.5 121t-162 42.5q-67 0 -122 -23.5t-91 -60t-63 -89.5t-41.5 -103.5t-23 -110t-11 -101.5t-2.5 -86z" />
<glyph unicode="1" d="M246 1231q108 12 207 61t139 109h147v-1401h-155v1212q-140 -74 -316 -94z" />
<glyph unicode="2" d="M164 1311l11 7q11 6 25 13.5t35.5 17.5t48.5 18.5t58 16.5t69.5 12.5t77.5 4.5q111 0 200.5 -35.5t144 -94t83.5 -130.5t29 -148q0 -67 -18.5 -132t-58 -131t-78.5 -119t-101 -126l-311 -354h584v-131h-787v137q307 330 352 381q68 81 96.5 116.5t68 90.5t53.5 89.5 t25 79.5t11 95q0 113 -78.5 194t-214.5 81q-141 0 -268 -82z" />
<glyph unicode="3" d="M225 1337q153 64 305 64q190 0 300 -103t110 -260q0 -216 -240 -321v-6q28 -4 60 -17t69 -40.5t66 -64.5t48.5 -94.5t19.5 -125.5q0 -170 -144 -279.5t-373 -109.5q-129 0 -192 18l-12 135q87 -18 196 -18q173 0 268 76t95 192q0 106 -81.5 184t-238.5 78h-137v127h131 q128 0 215.5 71.5t87.5 174.5q0 47 -16 89t-48 77.5t-88 56.5t-130 21q-48 0 -103 -14t-84.5 -26t-44.5 -20z" />
<glyph unicode="4" d="M139 524l574 856h223v-872h252v-127h-252v-381h-156v381h-602zM293 508h487v723h-8z" />
<glyph unicode="5" d="M256 139q73 -22 195 -22q69 0 128 10.5t111 34t89 58.5t58 87.5t21 118.5q0 125 -99 209t-288 84q-79 0 -174 -21v682h672v-127h-514v-426q44 11 120 11q200 0 322.5 -119.5t122.5 -296.5q0 -202 -142.5 -322t-416.5 -120q-54 0 -116.5 7t-80.5 11z" />
<glyph unicode="6" d="M156 567q0 172 35 312.5t96.5 236.5t146.5 161t183 94.5t208 29.5q71 0 199 -19l-18 -141q-88 23 -193 23q-87 0 -160.5 -27t-123.5 -71.5t-88 -98.5t-59 -112.5t-31.5 -108.5t-10.5 -90l6 -2q12 13 30 28t57.5 40t101 41t131.5 16q212 0 338 -119.5t126 -321.5 q0 -45 -10 -96.5t-41.5 -118t-81 -118.5t-139 -88.5t-205.5 -36.5q-90 0 -164 21t-124.5 55.5t-89 83.5t-60.5 100t-36 111.5t-18.5 111t-4.5 104.5zM328 428q0 -139 90.5 -224t228.5 -85q139 0 229.5 88t90.5 221q0 138 -92 224.5t-228 86.5t-227.5 -85t-91.5 -226z" />
<glyph unicode="7" d="M184 1253v127h834v-135q-149 -253 -277 -580.5t-198 -664.5h-162q48 266 193 627.5t294 625.5h-684z" />
<glyph unicode="8" d="M184 332q0 219 271 379q-36 21 -61 37t-64 49t-63.5 65.5t-43 81t-18.5 100.5q0 159 113.5 258t306.5 99q91 0 162.5 -18.5t116.5 -49t74.5 -72.5t41.5 -85.5t12 -90.5q0 -112 -59.5 -197.5t-202.5 -168.5q148 -79 221.5 -164.5t73.5 -196.5q0 -77 -31 -145t-88.5 -120 t-147 -82.5t-198.5 -30.5q-179 0 -297.5 93t-118.5 259zM346 332q0 -95 84 -155t207 -60q115 0 189.5 63t74.5 148q0 88 -68.5 160.5t-230.5 150.5q-34 -18 -58 -32t-65 -44.5t-66.5 -61t-46 -76t-20.5 -93.5zM367 1075q0 -94 62 -156t198 -133q108 73 149 110q94 87 94 173 q0 92 -69 144.5t-180 52.5q-109 0 -181.5 -55.5t-72.5 -135.5z" />
<glyph unicode="9" d="M143 942q0 31 5 66t19 80.5t36 87.5t60 84t86 72.5t119 49.5t155 19q90 0 164 -21t124.5 -55.5t89 -84t60.5 -100t36 -111t18.5 -110.5t4.5 -104q0 -173 -35.5 -313.5t-97 -236.5t-146.5 -161t-182.5 -94.5t-207.5 -29.5q-111 0 -201 20l20 139q73 -22 191 -22 q75 0 141 20.5t113 54t86 78.5t63.5 92t41 96.5t23.5 91t7 75.5l-6 4q-125 -125 -322 -125q-211 0 -338 119t-127 319zM309 952q0 -138 92 -224.5t228 -86.5q134 0 226.5 86t92.5 225t-91.5 225.5t-227.5 86.5q-139 0 -229.5 -89t-90.5 -223z" />
<glyph unicode=":" horiz-adv-x="405" d="M123 0v160h160v-160h-160zM123 618v160h160v-160h-160z" />
<glyph unicode=";" horiz-adv-x="421" d="M123 -166q94 65 94 166h-78v160h160v-160q0 -65 -48 -121.5t-101 -81.5zM139 618v160h160v-160h-160z" />
<glyph unicode="&#x3c;" d="M283 506l606 569l112 -108l-489 -463l487 -473l-110 -103z" />
<glyph unicode="=" d="M111 348v127h1052v-127h-1052zM111 768v125h1052v-125h-1052z" />
<glyph unicode="&#x3e;" d="M283 967l112 108l606 -569l-606 -578l-110 103l487 473z" />
<glyph unicode="?" horiz-adv-x="937" d="M162 1219l18 141q42 15 118.5 28t156.5 13q98 0 176.5 -28.5t126 -76t72 -105.5t24.5 -120q0 -47 -11 -91t-22 -71t-40.5 -66.5t-41 -52t-50.5 -53.5q-7 -8 -11 -12q-37 -38 -50.5 -52.5t-40 -47t-36.5 -55t-19.5 -56.5t-9.5 -70v-41h-157v41q0 202 161 357q11 11 39 38 t40.5 39.5t32.5 37.5t29.5 44t17 46.5t7.5 56.5q0 88 -75.5 144.5t-221.5 56.5q-57 0 -128 -16t-105 -29zM373 0v160h159v-160h-159z" />
<glyph unicode="@" horiz-adv-x="1837" d="M158 662q0 132 46.5 250t126.5 206t185 152.5t226 97.5t245 33q130 0 239 -32t183.5 -86t126.5 -126t76 -151t24 -162q0 -112 -35.5 -205t-94.5 -153t-134.5 -93t-157.5 -33q-98 0 -145.5 43.5t-56.5 102.5h-6q-10 -20 -28.5 -41.5t-47 -46t-70.5 -40.5t-88 -16 q-101 0 -170.5 67t-69.5 198q0 121 60 225.5t164 166.5t227 62q91 0 221 -39q-68 -364 -78 -419q-12 -75 -12 -93q0 -40 24.5 -68t71.5 -28q50 0 100.5 28t93 78.5t69 130.5t26.5 175q0 217 -142 352t-372 135q-137 0 -262.5 -49t-220 -135t-151 -214t-56.5 -276 q0 -163 72.5 -301.5t207.5 -222.5t304 -84q24 0 48.5 2t45 5t43 8.5t39 10t36 11.5t32 11.5t28 11.5t22.5 10.5t18.5 9t12.5 6.5l-20 -108q-150 -49 -336 -49q-109 0 -210 26t-188.5 81.5t-152.5 135t-102 192t-37 247.5zM680 621q0 -75 31.5 -116.5t85.5 -41.5 q86 0 137 68.5t70 173.5l51 262q-40 16 -90 16q-49 0 -99 -26t-91.5 -71.5t-68 -115t-26.5 -149.5z" />
<glyph unicode="A" horiz-adv-x="1236" d="M20 0l521 1380h159l517 -1380h-177l-120 338h-615l-123 -338h-162zM350 465h524l-262 729h-4z" />
<glyph unicode="B" horiz-adv-x="1183" d="M225 0v1380h383q97 0 175 -22t127 -57.5t81.5 -83t46 -94.5t13.5 -95q0 -58 -21.5 -109.5t-51 -84t-65 -58t-59.5 -36.5t-39 -15v-8q26 -5 57.5 -17.5t69.5 -39t68 -61.5t50.5 -89t20.5 -117q0 -174 -125.5 -283.5t-369.5 -109.5h-361zM383 129q44 -8 178 -8 q174 0 264 69.5t90 196.5q0 122 -85.5 194t-268.5 72h-178v-524zM383 776h178q158 0 241 61t83 183q0 237 -324 237q-37 0 -79.5 -1t-70 -2t-28.5 -1v-477z" />
<glyph unicode="C" horiz-adv-x="1198" d="M143 690q0 113 24.5 216t78 193.5t130.5 157.5t189 105.5t248 38.5q27 0 55.5 -2t52.5 -5.5t50.5 -8.5t45 -9.5t41 -10.5t33.5 -9.5t27.5 -8.5t18.5 -6l-33 -145q-160 68 -311 68q-76 0 -146 -21t-131.5 -66.5t-107 -111.5t-71.5 -162.5t-26 -212.5q0 -119 30.5 -221.5 t89 -182t152.5 -124.5t214 -45q32 0 64 3t60 8.5t52.5 11.5t47.5 13.5t37 12.5t29.5 11t16.5 7l33 -145q-183 -59 -324 -59q-160 0 -288 54.5t-211 150.5t-127 225t-44 280z" />
<glyph unicode="D" horiz-adv-x="1476" d="M225 0v1380h424q320 0 502 -181t182 -509q0 -117 -25.5 -219t-79.5 -189t-133.5 -149.5t-193 -97.5t-252.5 -35h-424zM385 135q48 -8 238 -8q268 0 407 145.5t139 417.5q0 282 -143 423.5t-403 141.5q-181 0 -238 -10v-1110z" />
<glyph unicode="E" horiz-adv-x="1046" d="M225 0v1380h695v-127h-537v-477h510v-127h-510v-518h541v-131h-699z" />
<glyph unicode="F" horiz-adv-x="1017" d="M225 0v1380h690v-127h-532v-477h504v-127h-504v-649h-158z" />
<glyph unicode="G" horiz-adv-x="1456" d="M143 690q0 113 26.5 216t83.5 193.5t139 157.5t200.5 105.5t261.5 38.5q103 0 199 -16t138.5 -29.5t70.5 -26.5l-41 -141q-1 0 -25 9.5t-55 19.5t-73 20.5t-96.5 17.5t-109.5 7q-137 0 -244 -43.5t-174 -121t-102 -181t-35 -226.5q0 -126 36.5 -230.5t105.5 -181 t175 -119t238 -42.5q136 0 252 45v487h-270v127h428v-717q-31 -13 -75.5 -27.5t-144.5 -33t-198 -18.5q-166 0 -301.5 54t-224.5 149t-137 225t-48 282z" />
<glyph unicode="H" horiz-adv-x="1513" d="M225 0v1380h158v-604h747v604h158v-1380h-158v649h-747v-649h-158z" />
<glyph unicode="I" horiz-adv-x="606" d="M225 0v1380h156v-1380h-156z" />
<glyph unicode="J" horiz-adv-x="710" d="M2 -2v143q11 -7 48 -15.5t77 -8.5q96 0 149.5 50t53.5 150v1063h155v-1042q0 -170 -93 -264t-251 -94q-85 0 -139 18z" />
<glyph unicode="K" horiz-adv-x="1171" d="M225 0v1380h158v-657l543 657h186l-559 -667l618 -713h-217l-571 694v-694h-158z" />
<glyph unicode="L" horiz-adv-x="892" d="M225 0v1380h181v-1253h487v-127h-668z" />
<glyph unicode="M" horiz-adv-x="1847" d="M123 0l192 1380h205l395 -1165l400 1165h203l206 -1380h-165l-164 1176h-6l-392 -1176h-178l-387 1176h-6l-141 -1176h-162z" />
<glyph unicode="N" horiz-adv-x="1531" d="M225 0v1380h205l713 -1128h10v1128h154v-1380h-213l-709 1151h-8v-1151h-152z" />
<glyph unicode="O" horiz-adv-x="1546" d="M143 690q0 330 170 520.5t459 190.5q197 0 340.5 -90.5t217 -250t73.5 -370.5q0 -210 -73 -369.5t-216.5 -250t-341.5 -90.5q-286 0 -457.5 189.5t-171.5 520.5zM311 690q0 -269 124 -421t337 -152t338 152.5t125 420.5q0 273 -126.5 423.5t-336.5 150.5 q-209 0 -335 -149.5t-126 -424.5z" />
<glyph unicode="P" horiz-adv-x="1155" d="M225 0v1380h338q231 0 360.5 -120.5t129.5 -305.5q0 -212 -134 -330t-372 -118q-92 0 -164 8v-514h-158zM383 627q27 -6 129 -6q186 0 282.5 86.5t96.5 238.5q0 151 -99 235.5t-280 84.5q-39 0 -68.5 -1t-44 -2t-16.5 -1v-635z" />
<glyph unicode="Q" horiz-adv-x="1546" d="M143 690q0 329 170.5 520t460.5 191q197 0 340 -90.5t216 -250t73 -370.5q0 -264 -116 -447t-329 -239l70 -237h-154l-65 215q-5 0 -17 -1t-18 -1q-287 0 -459 189.5t-172 520.5zM311 690q0 -268 123.5 -419.5t335.5 -153.5l-72 241h156l64 -219q149 46 233 189.5 t84 361.5q0 273 -126 424.5t-335 151.5q-211 0 -337 -150.5t-126 -425.5z" />
<glyph unicode="R" horiz-adv-x="1204" d="M225 0v1380h336q234 0 363 -108t129 -295q0 -82 -26 -149t-58.5 -104.5t-78.5 -66.5t-69 -37.5t-47 -15.5l328 -604h-172l-316 573h-231v-573h-158zM383 696q54 -6 143 -6q185 0 275 77t90 214q0 133 -92.5 207t-272.5 74q-108 0 -143 -7v-559z" />
<glyph unicode="S" horiz-adv-x="1048" d="M123 1032q0 168 124 269.5t367 101.5q102 0 252 -31l-12 -145q-34 12 -104 24.5t-144 12.5q-148 0 -234.5 -57t-86.5 -169q0 -147 178 -219l139 -57q324 -134 324 -387q0 -170 -129 -282.5t-359 -112.5q-84 0 -172 10t-127 22l8 152q145 -47 275 -47q162 0 252 67.5 t90 182.5q0 50 -19.5 91t-56 71.5t-74 51.5t-88.5 42l-129 53q-128 53 -201 137t-73 219z" />
<glyph unicode="T" horiz-adv-x="987" d="M0 1255v125h987v-125h-416v-1255h-157v1255h-414z" />
<glyph unicode="U" horiz-adv-x="1503" d="M225 543v837h158v-837q0 -213 90 -319.5t281 -106.5q82 0 145 20.5t105 57t68.5 90.5t38 117t11.5 141v837h156v-837q0 -124 -29 -224t-90 -177.5t-164 -119.5t-241 -42q-115 0 -205.5 29.5t-150.5 80t-99.5 123t-56.5 154t-17 176.5z" />
<glyph unicode="V" horiz-adv-x="1236" d="M20 1380h181l415 -1169h5l432 1169h164l-519 -1380h-174z" />
<glyph unicode="W" horiz-adv-x="1878" d="M41 1380h174l303 -1175h4l326 1175h196l334 -1175h6l297 1175h156l-362 -1380h-201l-336 1190h-4l-328 -1190h-194z" />
<glyph unicode="X" horiz-adv-x="1120" d="M0 0l457 715l-420 665h190l330 -540l346 540h178l-434 -657l473 -723h-205l-370 590l-367 -590h-178z" />
<glyph unicode="Y" horiz-adv-x="1028" d="M0 1380h172l348 -700l344 700h164l-440 -872v-508h-158v508z" />
<glyph unicode="Z" horiz-adv-x="1083" d="M82 0v135l735 1120h-719v125h895v-133l-723 -1116h731v-131h-919z" />
<glyph unicode="[" horiz-adv-x="733" d="M205 -614v1994h446v-127h-289v-1740h289v-127h-446z" />
<glyph unicode="\" horiz-adv-x="802" d="M57 1380h152l539 -1380h-158z" />
<glyph unicode="]" horiz-adv-x="733" d="M82 -487h291v1740h-291v127h446v-1994h-446v127z" />
<glyph unicode="^" horiz-adv-x="942" d="M51 799l342 581h144l337 -581h-149l-266 483l-269 -483h-139z" />
<glyph unicode="_" horiz-adv-x="1040" d="M-4 -362h1048v-111h-1048v111z" />
<glyph unicode="`" horiz-adv-x="466" d="M88 1380h174l164 -301h-92z" />
<glyph unicode="a" horiz-adv-x="1054" d="M82 307q0 87 43.5 153t118 103.5t164 55.5t192.5 18h141v39q0 40 -15 77.5t-45.5 70.5t-84.5 53t-125 20q-108 0 -246 -57q-30 -15 -37 -15q-16 0 -16 23q-6 111 -6 119q162 65 317 65q200 0 306 -98t106 -270v-404q0 -124 16 -260h-123q-17 0 -25 7t-9.5 14.5t-1.5 23.5 l-7 100h-4q-13 -19 -28 -36t-46 -42t-66 -43t-88.5 -31t-113.5 -13q-141 0 -229 93t-88 234zM238 309q0 -85 57 -138.5t156 -53.5q138 0 214 91t76 228v76h-153q-98 0 -169.5 -18.5t-109 -49t-54.5 -64.5t-17 -71z" />
<glyph unicode="b" horiz-adv-x="1142" d="M184 18v1450h152v-604h10q101 168 299 168q100 0 177.5 -40.5t124 -109.5t70 -153t23.5 -178q0 -115 -38.5 -217.5t-110 -181.5t-185 -125.5t-253.5 -46.5q-127 0 -269 38zM336 135q42 -18 158 -18q164 0 276.5 119.5t112.5 320.5q0 61 -15.5 119.5t-45.5 108.5t-82 81 t-117 31q-128 0 -207.5 -114t-79.5 -328v-320z" />
<glyph unicode="c" horiz-adv-x="927" d="M102 506q0 152 54 269t168 187t274 70q61 0 121.5 -12t91.5 -24t53 -23q0 -59 -4 -109q0 -28 -18 -28q-7 0 -31 12q-98 49 -197 49q-108 0 -190 -54t-123 -142t-41 -195q0 -166 96.5 -278.5t249.5 -112.5q120 0 195 45q32 16 41 16q18 0 18 -22q1 -16 3.5 -61.5 t2.5 -53.5q-139 -59 -270 -59q-229 0 -361.5 142t-132.5 384z" />
<glyph unicode="d" horiz-adv-x="1155" d="M102 444q0 96 22.5 183t68 161t109.5 128.5t152.5 85t192.5 30.5q91 0 160 -26v462h151v-1159q0 -140 13 -309h-133q-27 0 -27 27l-2 127h-6q-6 -14 -18.5 -32.5t-38 -44.5t-56.5 -46.5t-77.5 -35.5t-96.5 -15q-104 0 -186.5 41.5t-130.5 110t-72.5 148t-24.5 164.5z M258 467q0 -94 29 -172.5t89.5 -129t143.5 -50.5q121 0 204 116.5t83 323.5v315q-90 27 -164 27q-172 0 -278.5 -121t-106.5 -309z" />
<glyph unicode="e" horiz-adv-x="1095" d="M102 504q0 241 123.5 384.5t337.5 143.5q93 0 168.5 -27t123 -70t80 -101t45.5 -116.5t13 -119.5q0 -115 -8 -147h-727q2 -60 24.5 -116t65.5 -106.5t117.5 -81t171.5 -30.5q122 0 235 49q5 2 13 6.5t14 7t10 2.5q19 0 19 -22q1 -14 6 -127q-172 -53 -313 -53 q-257 0 -388 137.5t-131 386.5zM258 573h580v31q0 48 -13 95t-42 93.5t-86.5 75.5t-135.5 29q-67 0 -121 -23t-87 -58t-55 -80t-31 -85.5t-9 -77.5z" />
<glyph unicode="f" horiz-adv-x="628" d="M20 883v129h177v106q0 184 101 286.5t271 102.5q99 0 162 -22l-6 -92q-3 -27 -23 -27q-2 0 -41.5 7t-82.5 7q-118 0 -174 -71.5t-56 -184.5v-112h279v-129h-279v-883h-151v883h-177z" />
<glyph unicode="g" horiz-adv-x="1058" d="M82 -186q0 53 16.5 99t42.5 74.5t49 46t43 25.5q-92 38 -92 150q0 52 37 93.5t80 59.5q-24 15 -47 37t-49 57.5t-42 87.5t-16 113q0 169 111 272t313 103q62 0 142.5 -17.5t152.5 -17.5q119 0 195 13v-103q0 -19 -7.5 -26t-27.5 -7h-123q27 -29 49.5 -84.5t22.5 -115.5 q0 -120 -58.5 -205t-154 -124.5t-219.5 -39.5q-81 0 -138 17q-21 -5 -44 -24t-23 -50q0 -78 141 -78h162q199 0 296 -76.5t97 -220.5q0 -168 -138 -273.5t-370 -105.5q-102 0 -181.5 27t-126 73t-70 102t-23.5 118zM238 -166q0 -92 66 -145.5t196 -53.5q152 0 244 69.5 t92 156.5q0 72 -58 119t-188 47h-135q-24 0 -46 0.5t-35 1t-16 0.5q-46 -20 -83 -72.5t-37 -122.5zM264 662q0 -103 64.5 -168.5t189.5 -65.5q115 0 183.5 64t68.5 172q0 107 -66 172t-184 65q-119 0 -187.5 -67t-68.5 -172z" />
<glyph unicode="h" horiz-adv-x="1189" d="M184 0v1468h152v-616h6q105 180 330 180q160 0 257 -96t97 -266v-670h-152v629q0 134 -61.5 201t-161.5 67q-133 0 -224 -109.5t-91 -289.5v-498h-152z" />
<glyph unicode="i" horiz-adv-x="514" d="M176 1276v160h160v-160h-160zM180 0h154v1012h-154v-1012z" />
<glyph unicode="j" horiz-adv-x="485" d="M-164 -483q53 -23 141 -23q167 0 248.5 85t81.5 271v1162h-151v-1215q0 -86 -49 -130t-138 -44q-32 0 -66.5 8.5t-37.5 8.5q-18 0 -21 -29q-4 -57 -8 -94zM147 1276v160h160v-160h-160z" />
<glyph unicode="k" horiz-adv-x="950" d="M184 0v1468h152v-905l426 449h172l-440 -463l477 -549h-187l-448 532v-532h-152z" />
<glyph unicode="l" horiz-adv-x="520" d="M184 0v1468h152v-1468h-152z" />
<glyph unicode="m" horiz-adv-x="1796" d="M164 1012h125q11 0 17.5 -2t8.5 -9t2 -8v-10l5 -137h4q90 186 323 186q66 0 121 -21t89 -53t55 -64.5t28 -62.5q15 31 39 61t64.5 64t103.5 55t139 21q150 0 247 -93.5t97 -256.5v-682h-151v608q0 128 -53 208.5t-162 80.5q-90 0 -157.5 -62t-98.5 -151.5t-31 -187.5 v-496h-152v612q0 138 -57.5 211.5t-153.5 73.5q-128 0 -209 -115t-81 -299v-483h-152v707q0 130 -10 305z" />
<glyph unicode="n" horiz-adv-x="1179" d="M164 1012h129q26 0 26 -27l3 -141h6q16 26 28.5 43t43 47.5t63 49t85.5 33.5t114 15q156 0 255 -94t99 -262v-676h-152v635q0 125 -60.5 193.5t-162.5 68.5q-127 0 -221 -108t-94 -289v-500h-152v702q0 177 -10 310z" />
<glyph unicode="o" horiz-adv-x="1187" d="M102 506q0 82 15.5 155.5t52.5 142.5t92.5 118.5t140.5 79.5t191 30q122 0 216.5 -40t154 -111.5t90 -166t30.5 -208.5q0 -109 -28.5 -201.5t-86 -166.5t-154 -116t-222.5 -42q-230 0 -361 138.5t-131 387.5zM258 506q0 -57 9.5 -110t34 -105t61.5 -90.5t96.5 -62 t134.5 -23.5q157 0 246.5 103.5t89.5 287.5q0 176 -86.5 283.5t-249.5 107.5q-155 0 -245.5 -102t-90.5 -289z" />
<glyph unicode="p" horiz-adv-x="1134" d="M164 1012h131q27 0 27 -27l2 -127h6q8 18 28 43.5t54 56.5t88.5 52.5t115.5 21.5q104 0 186.5 -41.5t131 -110t73.5 -148.5t25 -165q0 -120 -36.5 -225.5t-104 -186.5t-172.5 -128t-234 -47q-81 0 -159 26v-479h-152v1175q0 115 -10 310zM326 141q87 -26 166 -26 q170 0 276 121t106 309q0 69 -17 132t-48.5 112.5t-82.5 78.5t-114 29q-121 0 -203.5 -116.5t-82.5 -323.5v-316z" />
<glyph unicode="q" horiz-adv-x="1142" d="M102 440q0 115 38.5 217.5t110.5 182t185.5 126t253.5 46.5q122 0 268 -39v-1467h-151v621h-10q-101 -168 -299 -168q-101 0 -179 40.5t-124 109.5t-69.5 153t-23.5 178zM260 434q0 -61 15.5 -119.5t45.5 -108.5t82 -81t117 -31q128 0 207.5 114.5t79.5 328.5v321 q-67 19 -158 19q-164 0 -276.5 -121t-112.5 -322z" />
<glyph unicode="r" horiz-adv-x="759" d="M164 1012h117q5 0 9 -1t6.5 -1.5t4.5 -3t3 -3.5t2 -4l1.5 -4.5t1 -5t0.5 -4.5q0 -12 1 -65t1 -64h6q10 19 21 36t38 44.5t58.5 47t83 34t111.5 14.5q65 0 131 -22q0 -53 -4 -111q0 -20 -17 -20q-10 0 -53.5 9t-87.5 9q-129 0 -199.5 -102.5t-70.5 -292.5v-502h-152v727 q0 159 -12 285z" />
<glyph unicode="s" horiz-adv-x="804" d="M82 741q0 93 51 160.5t132.5 99t183.5 31.5q126 0 225 -22q0 -11 -4 -109q-3 -43 -25 -43q-8 0 -31.5 10t-69.5 19.5t-108 9.5q-89 0 -144.5 -39.5t-55.5 -101.5q0 -57 36 -92.5t121 -65.5l99 -35q98 -34 164.5 -105t66.5 -171q0 -84 -32.5 -145.5t-91 -96t-128.5 -50 t-156 -15.5q-148 0 -221 22q0 16 6 115q0 28 25 28q7 0 34.5 -7t75 -14t105.5 -7q104 0 166.5 39t62.5 114q0 56 -41.5 94t-130.5 70l-69 27q-49 16 -86.5 35.5t-77 51.5t-61 81t-21.5 112z" />
<glyph unicode="t" horiz-adv-x="698" d="M20 883v129h187v223h151v-223h308v-129h-308v-574q0 -105 40 -149.5t124 -44.5q38 0 82 9t45 9q21 0 21 -29q4 -65 8 -102q-63 -22 -160 -22q-311 0 -311 329v574h-187z" />
<glyph unicode="u" horiz-adv-x="1179" d="M164 336v676h151v-635q0 -125 61 -193.5t163 -68.5q127 0 220 108t93 289v500h154v-703q0 -176 10 -309h-131q-13 0 -19.5 6.5t-7.5 22.5v139h-6q-16 -26 -28.5 -43t-43 -47.5t-63 -49t-85.5 -33.5t-114 -15q-156 0 -255 94.5t-99 261.5z" />
<glyph unicode="v" horiz-adv-x="1028" d="M41 1012h174l307 -805h8l297 805h160l-381 -1012h-160z" />
<glyph unicode="w" horiz-adv-x="1572" d="M61 1012h158l217 -797h8l252 797h160l262 -797h8l228 797h157l-301 -1012h-182l-250 762h-8l-246 -762h-186z" />
<glyph unicode="x" horiz-adv-x="927" d="M0 0l387 524l-334 488h185l245 -365l240 365h164l-324 -482l365 -530h-183l-280 412l-295 -412h-170z" />
<glyph unicode="y" horiz-adv-x="997" d="M-41 -483q4 38 10 110q3 25 21 25q3 0 46 -7t75 -7q92 0 152 43.5t102 158.5l57 156l-397 1016h182l297 -793h6l287 793h159q-303 -825 -393 -1073q-67 -180 -110 -252q-88 -146 -233 -181q-52 -12 -114 -12q-78 0 -147 23z" />
<glyph unicode="z" horiz-adv-x="862" d="M61 0v139l549 746h-520v127h703v-135l-549 -746h557v-131h-740z" />
<glyph unicode="{" horiz-adv-x="796" d="M102 319v127q209 25 209 240v324q0 189 91 279.5t241 90.5h51v-127q-110 0 -167.5 -57t-57.5 -166v-332q0 -40 -9 -81.5t-30.5 -88t-65.5 -84.5t-106 -57v-8q62 -19 106 -56.5t65.5 -83.5t30.5 -87.5t9 -81.5v-334q0 -108 57.5 -165.5t167.5 -57.5v-127h-51 q-149 0 -240.5 91t-91.5 281v324q0 212 -209 237z" />
<glyph unicode="|" horiz-adv-x="528" d="M184 -614v1994h152v-1994h-152z" />
<glyph unicode="}" horiz-adv-x="798" d="M102 -487q110 0 168 57.5t58 165.5v334q0 31 5 63.5t20 70.5t37.5 70.5t61.5 61t89 43.5v8q-62 19 -106.5 57t-66 84.5t-31 88t-9.5 81.5v332q0 109 -58 166t-168 57v127h52q151 0 241 -90t90 -280v-324q0 -215 211 -240v-127q-211 -25 -211 -237v-324q0 -190 -90.5 -281 t-240.5 -91h-52v127z" />
<glyph unicode="~" horiz-adv-x="1241" d="M125 629q96 65 167 88q61 20 120 20q66 0 128.5 -19t104 -42.5t98 -42.5t111.5 -19q95 0 201 74l53 -94q-28 -22 -62 -43t-97.5 -43.5t-123.5 -22.5q-64 0 -127 19t-106 42.5t-99 42.5t-106 19q-106 0 -207 -73z" />
<glyph unicode="&#xa1;" horiz-adv-x="372" d="M61 -438h164l-22 977h-119zM63 778v160h160v-160h-160z" />
<glyph unicode="&#xa2;" d="M254 504q0 208 105 350t300 170v215h152v-211q100 -10 207 -57q0 -59 -4 -109q0 -28 -19 -28q-6 0 -30 12q-98 49 -197 49q-108 0 -190 -54t-123 -142t-41 -195q0 -166 96.5 -278.5t247.5 -112.5q110 0 196 43q32 16 41 16q19 0 19 -22q0 -12 2 -53.5t2 -61.5 q-91 -44 -207 -55v-211h-152v213q-190 28 -297.5 166.5t-107.5 355.5z" />
<glyph unicode="&#xa3;" d="M266 0v131q199 119 199 377q0 75 -10 125h-185v127h160q-51 159 -51 274q0 167 120.5 268t321.5 101q85 0 180 -19l-14 -135q-102 17 -158 17q-132 0 -211 -68.5t-79 -183.5q0 -28 4.5 -60.5t12.5 -64.5t14.5 -55t15 -47.5t8.5 -26.5h334v-127h-312q2 -12 2 -58 q0 -93 -16.5 -169t-47 -128.5t-60 -86t-68.5 -64.5h627v-127h-787z" />
<glyph unicode="&#xa4;" d="M184 190l131 125q-67 103 -67 230q0 135 82 248l-123 127l102 102l123 -131q111 70 230 70q138 0 249 -84l127 122l103 -102l-131 -123q67 -103 67 -229q0 -139 -82 -248l123 -129l-102 -100l-125 129q-104 -68 -229 -68q-135 0 -248 82l-127 -121zM379 545 q0 -118 83 -201.5t200 -83.5q118 0 201 83t83 202q0 117 -83 199.5t-201 82.5q-117 0 -200 -82.5t-83 -199.5z" />
<glyph unicode="&#xa5;" d="M133 1380h174l346 -700l346 700h164l-379 -747h246v-127h-307v-129h307v-127h-307v-250h-158v250h-280v127h280v129h-280v127h217z" />
<glyph unicode="&#xa6;" horiz-adv-x="530" d="M184 260h152v-874h-152v874zM184 506v874h152v-874h-152z" />
<glyph unicode="&#xa7;" horiz-adv-x="976" d="M104 502q0 60 17.5 111.5t50.5 93t60.5 67.5t68.5 57q-58 58 -90.5 117t-32.5 135q0 154 107.5 236t279.5 82q135 0 266 -45l-22 -144q-2 1 -17 6.5t-28.5 10.5t-37.5 12t-46.5 11.5t-52 8t-58.5 3.5q-109 0 -171 -43t-62 -123q0 -27 10 -53.5t21 -44.5t36.5 -43.5 t37.5 -35.5t44.5 -35.5t38.5 -29.5q17 -13 113 -90q42 -33 69 -56t61 -60t53.5 -71.5t33.5 -81.5t14 -98q0 -60 -16.5 -111t-49.5 -92.5t-60 -67t-68 -58.5q58 -61 90.5 -119t32.5 -133q0 -154 -107.5 -236t-279.5 -82q-143 0 -267 45l23 144q128 -51 240 -51 q105 0 169 47.5t64 124.5q0 31 -11 59.5t-36 55t-42.5 42.5t-53 43t-45.5 35q-14 10 -56.5 44t-58.5 46q-45 37 -68.5 57.5t-60.5 59.5t-55.5 71.5t-33 80t-14.5 98.5zM266 522q0 -64 31 -120.5t129 -135.5l141 -112q57 50 99.5 114t42.5 117q0 64 -30.5 117t-129.5 133 l-141 113q-58 -47 -100 -110t-42 -116z" />
<glyph unicode="&#xa8;" horiz-adv-x="729" d="M104 1116v160h160v-160h-160zM483 1116v160h160v-160h-160z" />
<glyph unicode="&#xa9;" horiz-adv-x="874" d="M123 1087q0 129 92.5 221.5t222.5 92.5q129 0 221.5 -92.5t92.5 -221.5q0 -130 -92.5 -221.5t-221.5 -91.5q-131 0 -223 91.5t-92 221.5zM184 1087q0 -104 74.5 -177.5t179.5 -73.5q104 0 178 73.5t74 177.5t-74 178t-178 74t-179 -74t-75 -178zM289 1083q0 70 39.5 116 t124.5 46q43 0 71 -14l-6 -49q-35 14 -69 14q-43 0 -71 -28.5t-28 -84.5q0 -43 23.5 -76.5t75.5 -33.5q51 0 69 12l6 -47q-21 -14 -71 -14q-82 0 -123 43.5t-41 115.5z" />
<glyph unicode="&#xaa;" d="M205 928q0 57 28 100t76.5 67t106.5 36t125 12h94v24q0 58 -44 102t-132 44q-65 0 -162 -39q-2 -1 -7 -3t-9 -3.5t-7 -1.5q-12 0 -12 14q0 13 -1 41t-1 37q99 43 205 43q131 0 199.5 -64.5t68.5 -177.5v-262q0 -101 12 -168h-81q-14 0 -18.5 7t-6.5 22l-2 65h-4 q-10 -15 -24.5 -30.5t-41 -34.5t-67 -31t-88.5 -12q-92 0 -149.5 60.5t-57.5 152.5zM211 512v100h541v-100h-541zM305 930q0 -55 37 -90t102 -35q90 0 140.5 59t50.5 148v51h-100q-122 0 -176 -39.5t-54 -93.5z" />
<glyph unicode="&#xab;" horiz-adv-x="1046" d="M133 485l346 414l92 -72l-280 -342l280 -344l-94 -71zM475 485l346 414l92 -72l-280 -342l280 -344l-94 -71z" />
<glyph unicode="&#xac;" d="M113 555v127h1048v-573h-157v446h-891z" />
<glyph unicode="&#xad;" horiz-adv-x="821" d="M164 432v127h493v-127h-493z" />
<glyph unicode="&#xae;" horiz-adv-x="872" d="M123 1087q0 129 91.5 221.5t221.5 92.5t222 -92.5t92 -221.5q0 -130 -91.5 -221.5t-222.5 -91.5q-130 0 -221.5 91t-91.5 222zM184 1087q0 -104 74 -177.5t178 -73.5t178 73.5t74 177.5t-74 178t-178 74t-178 -74t-74 -178zM344 938v311h92q53 0 82 -25t29 -67 q0 -22 -8 -39t-19.5 -25.5t-20 -12.5t-14.5 -5l76 -137h-63l-70 129h-29v-129h-55zM399 1108l9 -1q8 -1 14 -1q70 0 70 53q0 24 -18.5 37.5t-51.5 13.5q-6 0 -11.5 -0.5t-8 -1t-3.5 -0.5v-100z" />
<glyph unicode="&#xaf;" horiz-adv-x="534" d="M41 1274v106h453v-106h-453z" />
<glyph unicode="&#xb0;" horiz-adv-x="1191" d="M123 1124q0 114 80.5 195.5t195.5 81.5q114 0 194.5 -81.5t80.5 -195.5t-80.5 -195t-194.5 -81q-115 0 -195.5 81t-80.5 195zM215 1124q0 -76 53.5 -130t130.5 -54q75 0 130 54t55 130t-55 130.5t-130 54.5q-76 0 -130 -54t-54 -131z" />
<glyph unicode="&#xb1;" d="M111 0v125h1050v-125h-1050zM111 627v127h444v364h158v-364h448v-127h-448v-369h-158v369h-444z" />
<glyph unicode="&#xb2;" horiz-adv-x="530" d="M74 1346l10 6q9 5 22.5 11t32 12.5t44.5 11t53 4.5q108 0 168.5 -61t60.5 -142q0 -64 -32.5 -121.5t-96.5 -134.5l-156 -176h293v-66h-395v68q156 165 176 190q77 91 103 134.5t26 101.5q0 57 -39.5 97t-107.5 40q-70 0 -136 -41z" />
<glyph unicode="&#xb3;" horiz-adv-x="516" d="M72 1360q75 31 153 31q94 0 149.5 -51.5t55.5 -129.5q0 -111 -121 -161v-2q18 -3 39 -13.5t42.5 -29.5t35.5 -52.5t14 -74.5q0 -87 -71.5 -142t-186.5 -55q-56 0 -96 10l-6 68q70 -10 98 -10q86 0 134 38.5t48 96.5q0 53 -40 92t-119 39h-70v63h66q64 0 107.5 35t43.5 88 q0 50 -35 86.5t-106 36.5q-53 0 -115 -31z" />
<glyph unicode="&#xb4;" horiz-adv-x="466" d="M41 1079l164 301h176l-246 -301h-94z" />
<glyph unicode="&#xb5;" d="M225 -508v1522h152v-637q0 -125 60.5 -193.5t162.5 -68.5q128 0 221.5 108t93.5 289v502h152v-705q0 -109 10 -309h-129q-14 0 -20 6t-6 23l-2 139h-7q-17 -26 -28.5 -43t-42 -47.5t-63 -49t-85.5 -33.5t-114 -15q-117 0 -203 53v-541h-152z" />
<glyph unicode="&#xb6;" horiz-adv-x="1177" d="M145 981q0 183 126.5 291t346.5 108h437v-116h-131v-1618h-146v1618h-196v-1618h-146v989q-35 4 -71.5 16.5t-76.5 40t-71 64.5t-51.5 96t-20.5 129z" />
<glyph unicode="&#xb7;" horiz-adv-x="618" d="M229 537v159h160v-159h-160z" />
<glyph unicode="&#xb8;" horiz-adv-x="415" d="M49 -449q45 8 91.5 30t83 61.5t36.5 85.5q0 117 -184 98l49 174h102l-47 -104q24 6 51 6q69 0 107.5 -42.5t38.5 -105.5q0 -98 -84 -173t-195 -89z" />
<glyph unicode="&#xb9;" horiz-adv-x="385" d="M20 1305q55 6 105 30.5t70 55.5h73v-701h-80v606q-63 -37 -155 -47z" />
<glyph unicode="&#xba;" d="M205 1059q0 67 17 125.5t53 108.5t100 79t149 29q155 0 237.5 -95t82.5 -247q0 -96 -31.5 -171.5t-105.5 -124t-183 -48.5q-150 0 -234.5 91t-84.5 253zM254 512v100h559v-100h-559zM305 1059q0 -48 11 -90.5t34.5 -80.5t68 -60.5t105.5 -22.5q102 0 160.5 67.5 t58.5 186.5q0 114 -56.5 184t-162.5 70q-100 0 -159.5 -66.5t-59.5 -187.5z" />
<glyph unicode="&#xbb;" horiz-adv-x="1046" d="M133 141l281 344l-281 342l90 72l348 -414l-344 -415zM475 141l281 344l-281 342l90 72l348 -414l-344 -415z" />
<glyph unicode="&#xbc;" horiz-adv-x="1271" d="M53 1305q55 6 104.5 30.5t69.5 55.5h74v-701h-80v606q-63 -37 -155 -47zM162 0h100l825 1380h-100zM762 266l22 -76h267v-190h79v190h125v64h-125v436h-118zM834 254l213 360h4v-360h-217z" />
<glyph unicode="&#xbd;" horiz-adv-x="1316" d="M123 1305q55 6 104.5 30.5t69.5 55.5h74v-701h-80v606q-63 -37 -156 -47zM231 0h99l825 1380h-100zM950 655l10 5q9 6 22.5 12t32 12.5t44.5 11t53 4.5q109 0 169 -61t60 -143q0 -62 -32.5 -119.5t-96.5 -134.5l-155 -176h293v-66h-396v68q156 165 176 190q55 65 76 92.5 t37.5 65t16.5 78.5q0 57 -40 97t-108 40q-69 0 -135 -41z" />
<glyph unicode="&#xbe;" horiz-adv-x="1406" d="M129 1360q70 31 152 31q95 0 149.5 -51.5t54.5 -129.5q0 -109 -118 -161v-2q43 -6 87 -49.5t44 -120.5q0 -87 -72.5 -142t-187.5 -55q-57 0 -97 10l-6 68q80 -10 101 -10q86 0 133 38.5t47 96.5q0 53 -40.5 92t-119.5 39h-68v63h66q65 0 108.5 35.5t43.5 87.5 q0 50 -35.5 86.5t-106.5 36.5q-13 0 -26.5 -2t-25 -5t-23.5 -7t-19 -7t-14.5 -6.5t-8.5 -3.5zM279 0h100l825 1380h-100zM870 266l25 -76h264v-190h80v190h125v64h-125v436h-117zM942 254l215 360h2v-360h-217z" />
<glyph unicode="&#xbf;" horiz-adv-x="714" d="M-2 -135q0 61 14 112.5t44.5 97.5t53.5 73t66 71q81 83 107 121q49 74 49 160v39h157v-41q0 -194 -161 -355q-6 -6 -39.5 -37.5t-41.5 -40.5t-31 -37t-30.5 -45.5t-15.5 -45t-8 -56.5q0 -89 74.5 -144.5t220.5 -55.5q58 0 130.5 15.5t104.5 29.5l-18 -144 q-138 -41 -277 -41q-97 0 -175.5 28t-126 74.5t-72.5 103t-25 118.5zM328 780v160h159v-160h-159z" />
<glyph unicode="&#xc0;" horiz-adv-x="1239" d="M20 0l521 1380h161l517 -1380h-179l-118 336h-617l-121 -336h-164zM324 1808h176l164 -301h-95zM350 465h524l-260 729h-6z" />
<glyph unicode="&#xc1;" horiz-adv-x="1239" d="M20 0l521 1380h161l517 -1380h-179l-120 336h-615l-123 -336h-162zM350 465h524l-260 729h-6zM555 1507l164 301h176l-246 -301h-94z" />
<glyph unicode="&#xc2;" horiz-adv-x="1236" d="M20 0h162l123 336h615l120 -336h177l-515 1380h-161zM350 465l258 731h4l262 -731h-524zM358 1507l183 301h159l183 -301h-95l-167 193l-170 -193h-93z" />
<glyph unicode="&#xc3;" horiz-adv-x="1236" d="M20 0l521 1380h161l515 -1380h-177l-120 336h-615l-123 -336h-162zM270 1649q14 17 37 37.5t73 44.5t101 24q65 0 146 -37t137 -37q54 0 123 60l55 -62q-33 -39 -89.5 -72.5t-123.5 -33.5q-66 0 -145.5 37t-137.5 37q-12 0 -23 -2t-22 -7t-19 -9t-17.5 -11.5t-14 -11 t-14 -12t-10.5 -9.5zM350 465h524l-262 731h-4z" />
<glyph unicode="&#xc4;" horiz-adv-x="1236" d="M20 0h162l123 336h615l118 -336h179l-517 1380h-159zM326 1597v160h159v-160h-159zM348 465l260 731h4l262 -731h-526zM705 1597v160h159v-160h-159z" />
<glyph unicode="&#xc5;" horiz-adv-x="1236" d="M20 0l521 1380h161l515 -1380h-177l-120 336h-615l-123 -336h-162zM350 465h524l-260 731h-6zM406 1616q0 82 59.5 140.5t144.5 58.5q83 0 143 -58.5t60 -140.5q0 -83 -59.5 -141t-143.5 -58q-85 0 -144.5 58t-59.5 141zM506 1616q0 -43 30.5 -74t73.5 -31t74 31t31 74 t-31 73.5t-74 30.5t-73.5 -30.5t-30.5 -73.5z" />
<glyph unicode="&#xc6;" horiz-adv-x="1802" d="M-10 0l948 1380h737v-127h-536v-479h510v-127h-510v-516h540v-131h-698v336h-584l-227 -336h-180zM483 465h498v731h-6z" />
<glyph unicode="&#xc7;" horiz-adv-x="1198" d="M143 690q0 112 24.5 215t77.5 194t130 157.5t189 105.5t247 39q159 0 326 -60l-35 -143q-1 0 -17.5 6.5t-23.5 9t-26 9.5t-32 10.5t-33.5 9t-39.5 8.5t-41.5 6.5t-46.5 5t-49 1.5q-97 0 -182 -34.5t-153 -102t-107.5 -180t-39.5 -257.5q0 -119 30 -221.5t88.5 -182 t153 -124.5t214.5 -45q137 0 305 67l35 -145q-148 -51 -287 -57l-39 -84q30 6 51 6q70 0 109 -43t39 -107q0 -97 -85 -172.5t-196 -87.5l-47 60q45 8 91 29.5t82 60.5t36 84q0 43 -26 71.5t-87 28.5h-69l43 154q-194 14 -333 111t-207.5 250t-68.5 347z" />
<glyph unicode="&#xc8;" horiz-adv-x="1046" d="M225 0h699v131h-541v516h510v127h-510v479h537v127h-695v-1380zM367 1808h174l166 -301h-95z" />
<glyph unicode="&#xc9;" horiz-adv-x="1046" d="M225 0h699v131h-541v516h510v127h-510v479h537v127h-695v-1380zM561 1507l164 301h174l-246 -301h-92z" />
<glyph unicode="&#xca;" horiz-adv-x="1046" d="M225 0h699v131h-541v516h510v127h-510v479h537v127h-695v-1380zM303 1507l182 301h158l184 -301h-94l-168 193l-170 -193h-92z" />
<glyph unicode="&#xcb;" horiz-adv-x="1046" d="M225 0h699v131h-541v516h510v127h-510v479h537v127h-695v-1380zM326 1597v160h159v-160h-159zM705 1597v160h159v-160h-159z" />
<glyph unicode="&#xcc;" horiz-adv-x="606" d="M61 1808h175l165 -301h-94zM250 0h156v1380h-156v-1380z" />
<glyph unicode="&#xcd;" horiz-adv-x="606" d="M225 1507l164 301h176l-246 -301h-94zM231 0h158v1380h-158v-1380z" />
<glyph unicode="&#xce;" horiz-adv-x="606" d="M33 1597v160h160v-160h-160zM233 0h158v1380h-158v-1380zM412 1597v160h159v-160h-159z" />
<glyph unicode="&#xcf;" horiz-adv-x="606" d="M41 1507l182 301h158l182 -301h-92l-170 195l-168 -195h-92zM221 0h158v1380h-158v-1380z" />
<glyph unicode="&#xd0;" horiz-adv-x="1478" d="M113 647v127h114v606h424q320 0 502 -181.5t182 -508.5q0 -117 -25.5 -219.5t-79.5 -189.5t-133.5 -149t-193 -97t-252.5 -35h-424v647h-114zM387 133q48 -8 238 -8q268 0 407 146t139 419q0 281 -143 423t-403 142q-181 0 -238 -10v-471h406v-127h-406v-514z" />
<glyph unicode="&#xd1;" horiz-adv-x="1531" d="M225 0h152v1153h8l709 -1153h213v1380h-154v-1128h-10l-713 1128h-205v-1380zM420 1649q17 19 38.5 38t72.5 43.5t102 24.5q64 0 145 -38t137 -38q12 0 24 2.5t23 7.5t20 9.5t18.5 12t14.5 11.5t12.5 11t8.5 8l58 -62q-33 -39 -89.5 -72.5t-123.5 -33.5q-66 0 -146.5 37 t-138.5 37q-16 0 -30.5 -4t-29.5 -13t-22.5 -14t-22.5 -17.5t-16 -13.5z" />
<glyph unicode="&#xd2;" horiz-adv-x="1546" d="M143 690q0 329 170.5 520t460.5 191q196 0 339.5 -90.5t216.5 -250t73 -370.5t-73 -370.5t-216 -249.5t-340 -90q-288 0 -459.5 188.5t-171.5 521.5zM311 690q0 -270 123.5 -421.5t337.5 -151.5q213 0 338 152.5t125 420.5q0 272 -126.5 423t-336.5 151q-209 0 -335 -150 t-126 -424zM477 1808h174l166 -301h-94z" />
<glyph unicode="&#xd3;" horiz-adv-x="1546" d="M143 690q0 329 170.5 520t460.5 191q197 0 340 -90.5t216 -250t73 -370.5t-73 -370.5t-216 -249.5t-340 -90q-288 0 -459.5 188.5t-171.5 521.5zM311 690q0 -270 124 -421.5t339 -151.5q211 0 336 152.5t125 420.5q0 271 -126.5 422.5t-334.5 151.5q-210 0 -336.5 -150 t-126.5 -424zM715 1507l164 301h174l-246 -301h-92z" />
<glyph unicode="&#xd4;" horiz-adv-x="1546" d="M143 690q0 -333 171.5 -521.5t459.5 -188.5q197 0 340 90t216 249.5t73 370.5t-73 370.5t-216.5 250t-339.5 90.5q-290 0 -460.5 -191t-170.5 -520zM311 690q0 274 126 424t335 150q210 0 336.5 -151t126.5 -423q0 -268 -125 -420.5t-338 -152.5q-214 0 -337.5 151.5 t-123.5 421.5zM508 1507l184 301h158l182 -301h-92l-170 193l-168 -193h-94z" />
<glyph unicode="&#xd5;" horiz-adv-x="1546" d="M143 690q0 329 170.5 520t460.5 191q196 0 339.5 -90.5t216.5 -250t73 -370.5t-73 -370.5t-216 -249.5t-340 -90q-288 0 -459.5 188.5t-171.5 521.5zM311 690q0 -270 123.5 -421.5t337.5 -151.5q213 0 338 152.5t125 420.5q0 272 -126.5 423t-336.5 151q-209 0 -335 -150 t-126 -424zM412 1649q17 19 38.5 38t72 43.5t100.5 24.5q65 0 145.5 -37t136.5 -37q54 0 123 60l55 -62q-33 -40 -88.5 -73t-122.5 -33t-146.5 37t-137.5 37q-25 0 -53 -14t-36.5 -21t-31.5 -27z" />
<glyph unicode="&#xd6;" horiz-adv-x="1546" d="M143 690q0 -333 171.5 -521.5t459.5 -188.5q197 0 340 90t216 249.5t73 370.5t-73 370.5t-216.5 250t-339.5 90.5q-290 0 -460.5 -191t-170.5 -520zM311 690q0 274 126 424t335 150q210 0 336.5 -151t126.5 -423q0 -268 -125 -420.5t-338 -152.5q-214 0 -337.5 151.5 t-123.5 421.5zM510 1597v160h160v-160h-160zM889 1597v160h160v-160h-160z" />
<glyph unicode="&#xd7;" d="M219 283l322 321l-314 311l111 113l313 -313l310 311l90 -90l-310 -311l314 -312l-113 -112l-313 313l-320 -319z" />
<glyph unicode="&#xd8;" horiz-adv-x="1544" d="M143 690q0 330 170 521.5t459 191.5q77 0 170 -21l72 205l135 -45l-74 -209q157 -83 241.5 -250.5t84.5 -392.5q0 -320 -166.5 -515t-462.5 -195q-84 0 -172 20l-74 -207l-133 45l76 213q-154 79 -240 244t-86 395zM311 690q0 -177 54 -304.5t155 -195.5l377 1059 q-66 17 -125 17q-209 0 -335 -150.5t-126 -425.5zM643 133q66 -16 129 -16q213 0 338 152.5t125 420.5q0 179 -56 307t-157 197z" />
<glyph unicode="&#xd9;" horiz-adv-x="1503" d="M225 541v839h158v-839q0 -211 90.5 -317.5t280.5 -106.5q102 0 174.5 30.5t113.5 89t59.5 133t18.5 171.5v839h158v-839q0 -124 -29 -224t-90 -176.5t-164 -118.5t-241 -42q-115 0 -205.5 29t-150.5 79.5t-99.5 122.5t-56.5 153.5t-17 176.5zM467 1808h174l164 -301h-92z " />
<glyph unicode="&#xda;" horiz-adv-x="1503" d="M225 541v839h158v-839q0 -211 90.5 -317.5t280.5 -106.5q102 0 174.5 30.5t113.5 89t59.5 133t18.5 171.5v839h158v-839q0 -98 -18 -181t-58 -154t-100.5 -120.5t-148.5 -77.5t-199 -28q-115 0 -205.5 29t-150.5 79.5t-99.5 122.5t-56.5 153.5t-17 176.5zM698 1507 l164 299h174l-245 -299h-93z" />
<glyph unicode="&#xdb;" horiz-adv-x="1503" d="M225 541v839h158v-839q0 -211 90.5 -317.5t280.5 -106.5q102 0 174.5 30.5t113.5 89t59.5 133t18.5 171.5v839h158v-839q0 -124 -29.5 -224t-90.5 -176.5t-163.5 -118.5t-240.5 -42q-115 0 -205.5 29t-150.5 79.5t-99.5 122.5t-56.5 153.5t-17 176.5zM500 1507l184 301 h158l182 -301h-92l-170 193l-168 -193h-94z" />
<glyph unicode="&#xdc;" horiz-adv-x="1503" d="M225 541q0 -95 17 -176.5t56.5 -153.5t99.5 -122.5t150.5 -79.5t205.5 -29q138 0 241 42t164 118.5t90 176.5t29 224v839h-158v-839q0 -97 -18.5 -171.5t-59.5 -133t-113.5 -89t-174.5 -30.5q-190 0 -280.5 106.5t-90.5 317.5v839h-158v-839zM469 1597v160h160v-160h-160 zM848 1597v160h160v-160h-160z" />
<glyph unicode="&#xdd;" horiz-adv-x="1028" d="M0 1380l430 -874v-506h158v506l440 874h-164l-344 -702l-348 702h-172zM428 1507l164 301h176l-246 -301h-94z" />
<glyph unicode="&#xde;" horiz-adv-x="1200" d="M225 0v1380h158v-256h180q231 0 361.5 -121t130.5 -305q0 -212 -135 -330t-373 -118q-92 0 -164 8v-258h-158zM383 369q36 -4 129 -4q186 0 283.5 87t97.5 238q0 149 -100 235.5t-281 86.5q-99 0 -129 -6v-637z" />
<glyph unicode="&#xdf;" horiz-adv-x="1206" d="M184 0v1022q0 238 121 361.5t313 123.5q90 0 164 -25.5t120 -67t70.5 -91.5t24.5 -102q0 -37 -9.5 -71t-18.5 -54t-35 -49.5t-36 -39t-44 -40.5q-9 -9 -29 -25q-35 -29 -50 -43.5t-30.5 -44t-15.5 -63.5q0 -44 23 -77t77 -67l111 -69q184 -114 184 -273t-107 -242 t-282 -83q-138 0 -207 24q0 84 2 123q0 25 15 25q6 0 29 -9t63.5 -17.5t89.5 -8.5q119 0 181.5 47.5t62.5 122.5q0 51 -29 90t-92 78l-98 61q-29 18 -45 29t-45.5 36.5t-45.5 50t-29.5 63t-13.5 81.5q0 41 9.5 78t21 61t36 52.5t37.5 41t42 38.5q6 4 11 8.5t10.5 9t9.5 8.5 q34 32 50 49.5t30 46.5t14 62q0 63 -61 107t-169 44q-122 0 -200 -89.5t-78 -245.5v-1047h-152z" />
<glyph unicode="&#xe0;" horiz-adv-x="1054" d="M82 309q0 87 43.5 152.5t118 103t164 56t192.5 18.5h141v39q0 40 -15 77t-45.5 69.5t-84.5 52.5t-125 20q-108 0 -246 -57q-33 -13 -37 -13q-6 0 -10 3t-5 6t-2 8t-1 6q0 18 -2 60t-2 57q147 67 317 67q200 0 305 -98.5t105 -271.5v-404q0 -134 18 -260h-123 q-13 0 -20.5 3.5t-10.5 11t-4 13.5t-1 17l-7 102h-4q-13 -19 -28 -36t-46 -42t-66 -43t-88.5 -31t-113.5 -13q-141 0 -229 93t-88 234zM193 1518h174l163 -301h-92zM238 311q0 -85 57 -138.5t156 -53.5q139 0 214.5 90.5t75.5 228.5v76h-153q-98 0 -169.5 -18.5t-109 -49.5 t-54.5 -64.5t-17 -70.5z" />
<glyph unicode="&#xe1;" horiz-adv-x="1054" d="M82 309q0 87 43 152.5t117.5 103t164.5 56t193 18.5h141v39q0 40 -15 77t-45.5 69.5t-84.5 52.5t-125 20q-108 0 -246 -57q-33 -13 -37 -13q-18 0 -18 23q-4 70 -4 117q147 67 317 67q200 0 305 -98.5t105 -271.5v-404q0 -134 18 -260h-125q-15 0 -23.5 7.5t-10 14.5 t-2.5 23l-7 102h-4q-12 -18 -27 -35.5t-45.5 -42.5t-65.5 -43t-88.5 -31t-113.5 -13q-141 0 -229 93t-88 234zM238 311q0 -86 56.5 -139t156.5 -53q137 0 213.5 91t76.5 228v76h-153q-98 0 -169.5 -18.5t-109 -49.5t-54.5 -64.5t-17 -70.5zM430 1217l164 301h174l-244 -301 h-94z" />
<glyph unicode="&#xe2;" horiz-adv-x="1054" d="M82 309q0 87 43.5 152.5t118 103t164 56t192.5 18.5h141v39q0 40 -15 77t-45.5 69.5t-84.5 52.5t-125 20q-108 0 -246 -57q-33 -13 -37 -13q-6 0 -10 3t-5 6t-2 8t-1 6q-4 70 -4 117q147 67 317 67q200 0 305 -98.5t105 -271.5v-404q0 -134 18 -260h-123q-16 0 -25 7.5 t-10.5 14.5t-2.5 23l-5 102h-6q-12 -18 -27 -35.5t-45.5 -42.5t-65.5 -43t-88.5 -31t-113.5 -13q-141 0 -229 93t-88 234zM219 1217l182 301h160l182 -301h-92l-170 194l-168 -194h-94zM238 311q0 -85 57 -138.5t156 -53.5q139 0 214.5 90.5t75.5 228.5v76h-153 q-98 0 -169.5 -18.5t-109 -49.5t-54.5 -64.5t-17 -70.5z" />
<glyph unicode="&#xe3;" horiz-adv-x="1054" d="M82 309q0 87 43 152.5t117.5 103t164.5 56t193 18.5h141v39q0 40 -15 77t-45.5 69.5t-84.5 52.5t-125 20q-108 0 -246 -57q-33 -13 -37 -13q-18 0 -18 23q-4 70 -4 117q147 67 317 67q200 0 305 -98.5t105 -271.5v-404q0 -134 18 -260h-123q-16 0 -25 7.5t-10.5 14.5 t-2.5 23l-5 102h-6q-12 -18 -27 -35.5t-45.5 -42.5t-65.5 -43t-88.5 -31t-113.5 -13q-141 0 -229 93t-88 234zM137 1341q14 18 38 39.5t74 45.5t101 24q65 0 146 -38t137 -38q59 0 121 62l57 -64q-35 -39 -91 -72.5t-122 -33.5t-146 37.5t-139 37.5q-16 0 -31 -4 t-28.5 -12.5t-22.5 -15t-21 -17t-15 -12.5zM238 311q0 -85 57 -138.5t156 -53.5q137 0 213.5 91t76.5 228v76h-153q-98 0 -169.5 -18.5t-109 -49.5t-54.5 -64.5t-17 -70.5z" />
<glyph unicode="&#xe4;" horiz-adv-x="1054" d="M82 309q0 87 43.5 152.5t118 103t164 56t192.5 18.5h141v39q0 40 -15 77t-45.5 69.5t-84.5 52.5t-125 20q-108 0 -246 -57q-33 -13 -37 -13q-6 0 -10 3t-5 6t-2 8t-1 6q-4 70 -4 117q147 67 317 67q200 0 305 -98.5t105 -271.5v-404q0 -134 18 -260h-123q-13 0 -20.5 3.5 t-10.5 11t-4 13.5t-1 17l-7 102h-4q-13 -19 -28 -36t-46 -42t-66 -43t-88.5 -31t-113.5 -13q-141 0 -229 93t-88 234zM209 1276v160h160v-160h-160zM238 311q0 -85 57 -138.5t156 -53.5q139 0 214.5 90.5t75.5 228.5v76h-153q-98 0 -169.5 -18.5t-109 -49.5t-54.5 -64.5 t-17 -70.5zM588 1276v160h160v-160h-160z" />
<glyph unicode="&#xe5;" horiz-adv-x="1056" d="M82 307q0 87 43.5 153t118 103.5t164 55.5t192.5 18h143v39q0 88 -67.5 154.5t-204.5 66.5q-124 0 -246 -59q-2 0 -16.5 -6.5t-20.5 -6.5q-16 0 -16 23q-6 111 -6 119q172 65 317 65q200 0 306 -98.5t106 -269.5v-404q0 -138 18 -260h-125q-16 0 -24 7t-9.5 14t-2.5 24 l-7 100h-4q-13 -19 -28 -36t-46 -42t-66 -43t-88.5 -31t-113.5 -13q-141 0 -229 93t-88 234zM238 309q0 -85 57 -138.5t156 -53.5q139 0 215.5 91.5t76.5 227.5v76h-155q-98 0 -169.5 -18.5t-109 -49t-54.5 -64.5t-17 -71zM279 1372q0 83 58.5 141t143.5 58t144 -58t59 -141 t-59 -140.5t-144 -57.5t-143.5 57.5t-58.5 140.5zM377 1372q0 -43 30.5 -73.5t73.5 -30.5t74 30.5t31 73.5t-31 74t-74 31t-73.5 -31t-30.5 -74z" />
<glyph unicode="&#xe6;" horiz-adv-x="1730" d="M82 289q0 130 101 215.5t294 85.5h-1h1h1h1h1h1h1h1h1h1h1h1h1h1h1h1h1h1h1h1h1h1h1h1h1h1h1h1h1h1h1h1h1h1h1h1h1h1h1h1h1h1h1h1h1h1h1h1h1h1h1h1h1h1h1h1h1h2h1h1h1h1h1h1h2h1h1h1h1h2h1h1h1h2h1h1h1h2h1h1h1h2h1h1h2h1h1h2h1h1h2h1h1h2h1h2h1h1h2h1h2h1h1h2h1h2h1h2h1 h2h1h2h1h1h2h1h2h2h1h2h1h2h1h2h1h2h1h2h1h2h2h1h2h1h2h2h1h2h2h1h2h1h2h2h1h2h2h1h2h2h1h2h2h1h2h2h2h1h2h2h2h1h2h2h2h1h2h2h2h1h2h2h2h2h1h2h2h2h2h1h2h2h2h2h2h1h2h2h9v86q0 40 -15 77.5t-45.5 70.5t-84.5 53t-125 20q-108 0 -246 -57q-3 -1 -11 -5.5t-15 -7t-11 -2.5 q-16 0 -16 23q-6 111 -6 119q162 65 317 65q263 0 361 -180q46 79 134.5 129.5t221.5 50.5q115 0 201.5 -37.5t134 -100t70 -133t22.5 -147.5q0 -117 -8 -149h-725q2 -47 15.5 -94t42.5 -93.5t71 -81.5t106 -57t142 -22q122 0 235 49q28 16 39 16q17 0 19 -22q4 -58 4 -127 q-172 -53 -314 -53q-317 0 -444 217h-4q-17 -31 -29 -50t-45 -54.5t-70 -57t-100 -38.5t-139 -17q-154 0 -248 88.5t-94 220.5zM238 295q0 -82 60 -130t163 -48q136 0 208 91t72 228v29h-260q-66 0 -115.5 -16t-76 -42t-39 -54t-12.5 -58zM895 590h578q0 1 1 13t1 18 q0 37 -7.5 73t-27.5 73.5t-50 65.5t-80 46t-114 18q-67 0 -120.5 -21.5t-86.5 -54.5t-55 -75.5t-30.5 -81t-8.5 -74.5z" />
<glyph unicode="&#xe7;" horiz-adv-x="927" d="M102 506q0 112 32 207.5t92.5 167t156 111.5t215.5 40q135 0 266 -59q0 -57 -4 -111q0 -26 -18 -26q-11 0 -31 10q-12 8 -31 17t-66.5 20.5t-99.5 11.5q-162 0 -258 -112.5t-96 -276.5q0 -166 96.5 -278.5t249.5 -112.5q109 0 195 43q32 16 41 16q18 0 18 -22 q1 -16 3.5 -61.5t2.5 -53.5q-124 -51 -231 -57l-39 -86q20 8 51 8q69 0 107.5 -43.5t38.5 -106.5q0 -97 -84 -172.5t-195 -87.5l-49 57q46 9 92 31t82.5 61.5t36.5 84.5q0 42 -26.5 70t-86.5 28h-71l45 158q-204 19 -319.5 158.5t-115.5 365.5z" />
<glyph unicode="&#xe8;" horiz-adv-x="1095" d="M102 504q0 -247 130.5 -385.5t385.5 -138.5q94 0 180.5 18.5t133.5 36.5q0 67 -4 125q0 22 -19 22q-2 0 -39 -14q-117 -51 -235 -51q-97 0 -171.5 31t-117 81.5t-64.5 107t-24 116.5h727l2 20q2 20 4 54.5t2 70.5q0 61 -13 119.5t-45.5 116.5t-80 101t-123 70t-168.5 27 q-214 0 -337.5 -143.5t-123.5 -384.5zM258 573q0 37 9 77.5t31 85.5t55 80t87 58t121 23q78 0 135.5 -29t86.5 -75.5t42 -93.5t13 -95q0 -25 -2 -31h-578zM276 1518h177l163 -301h-94z" />
<glyph unicode="&#xe9;" horiz-adv-x="1095" d="M102 504q0 -247 130.5 -385.5t385.5 -138.5q94 0 180.5 18.5t133.5 36.5q0 67 -4 125q0 22 -19 22q-4 0 -37 -14q-117 -51 -235 -51q-97 0 -172 31t-118 81.5t-65 107t-24 116.5h727l2 20q2 20 4 54.5t2 70.5q0 61 -13 119.5t-45.5 116.5t-80 101t-123 70t-168.5 27 q-214 0 -337.5 -143.5t-123.5 -384.5zM258 573q0 37 9 77.5t31 85.5t55 80t87 58t121 23q78 0 135.5 -29t86.5 -75.5t42 -93.5t13 -95v-31h-580zM512 1217l164 301h174l-246 -301h-92z" />
<glyph unicode="&#xea;" horiz-adv-x="1095" d="M102 504q0 -247 131 -385.5t388 -138.5q160 0 313 55q-5 117 -6 125q0 22 -19 22q-4 0 -37 -14q-117 -51 -235 -51q-97 0 -172 31t-118 81.5t-65 107t-24 116.5h727l2 20q2 20 4 54.5t2 70.5q0 61 -13 119.5t-45.5 116.5t-80 101t-123 70t-168.5 27q-214 0 -337.5 -143.5 t-123.5 -384.5zM258 573q0 37 9 77.5t31 85.5t55 80t87 58t121 23q78 0 135.5 -29t86.5 -75.5t42 -93.5t13 -95v-31h-580zM299 1217l182 301h158l184 -301h-94l-168 192l-170 -192h-92z" />
<glyph unicode="&#xeb;" horiz-adv-x="1095" d="M102 504q0 -247 130.5 -385.5t385.5 -138.5q94 0 180.5 18.5t133.5 36.5q0 67 -4 125q-2 22 -19 22q-2 0 -39 -14q-117 -51 -235 -51q-97 0 -171.5 31t-117 81.5t-64.5 107t-24 116.5h727l2 20q2 20 4 54.5t2 70.5q0 61 -13.5 119.5t-45.5 116.5t-80 101t-123 70t-168 27 q-214 0 -337.5 -143.5t-123.5 -384.5zM258 573q0 37 9 77.5t31 85.5t55 80t87 58t121 23q78 0 135.5 -29t86.5 -75.5t42 -93.5t13 -95q0 -25 -2 -31h-578zM289 1276v160h160v-160h-160zM668 1276v160h159v-160h-159z" />
<glyph unicode="&#xec;" horiz-adv-x="514" d="M-37 1516h174l166 -299h-94zM182 0h152v1012h-152v-1012z" />
<glyph unicode="&#xed;" horiz-adv-x="514" d="M184 0h152v1012h-152v-1012zM207 1217l164 299h176l-246 -299h-94z" />
<glyph unicode="&#xee;" horiz-adv-x="514" d="M-29 1217l183 299h157l185 -299h-95l-168 192l-170 -192h-92zM160 0h151v1012h-151v-1012z" />
<glyph unicode="&#xef;" horiz-adv-x="514" d="M-12 1276v160h159v-160h-159zM186 0h154v1012h-154v-1012zM367 1276v160h159v-160h-159z" />
<glyph unicode="&#xf0;" horiz-adv-x="1189" d="M102 479q0 74 16 143.5t53.5 135t92.5 114t140 78t190 29.5q164 0 264 -74l4 4q-50 170 -145 285l-207 -129l-61 98l182 117q-53 46 -101 72q-25 15 7 61q25 39 45 70q107 -61 176 -123l174 113l67 -101l-157 -98q101 -118 173 -325.5t72 -424.5q0 -84 -16 -160.5 t-53 -147.5t-92.5 -122.5t-140.5 -82.5t-191 -31q-226 0 -359 135.5t-133 363.5zM258 479q0 -49 9.5 -97t34 -97t61.5 -85.5t96.5 -59.5t134.5 -23q154 0 245 101.5t91 260.5q0 160 -86.5 262.5t-249.5 102.5q-152 0 -244 -98t-92 -267z" />
<glyph unicode="&#xf1;" horiz-adv-x="1179" d="M164 1012q10 -195 10 -310v-702h152v502q0 180 93.5 287.5t221.5 107.5q102 0 161.5 -68t59.5 -192v-637h154v678q0 167 -100 260.5t-257 93.5q-61 0 -113.5 -14.5t-85 -33t-63 -48.5t-43 -47.5t-28.5 -42.5h-4q-3 114 -3 139q0 27 -26 27h-129zM203 1341q12 13 26.5 26 t43 34t65.5 34t76 13q65 0 146.5 -37t137.5 -37q59 0 121 62l55 -64q-95 -106 -210 -106q-66 0 -146.5 36.5t-138.5 36.5q-25 0 -52.5 -13t-37.5 -21t-31 -27z" />
<glyph unicode="&#xf2;" horiz-adv-x="1187" d="M102 506q0 81 16 155.5t53.5 143t93 118t140 79.5t189.5 30q122 0 216.5 -40t154 -111.5t90 -166t30.5 -208.5q0 -109 -28 -201.5t-85.5 -166.5t-154 -116t-223.5 -42q-229 0 -360.5 138.5t-131.5 387.5zM258 506q0 -57 9.5 -110t34 -104.5t61.5 -89.5t96.5 -61.5 t134.5 -23.5q157 0 246.5 103t89.5 286q0 176 -86 283.5t-250 107.5q-154 0 -245 -102t-91 -289zM303 1518h176l164 -301h-94z" />
<glyph unicode="&#xf3;" horiz-adv-x="1187" d="M104 506q0 81 16 155.5t53.5 143t93 118t140 79.5t189.5 30q122 0 216.5 -40t154 -111.5t90 -166t30.5 -208.5q0 -109 -28.5 -201.5t-86 -166.5t-154 -116t-222.5 -42q-229 0 -360.5 138.5t-131.5 387.5zM260 506q0 -57 9.5 -110t34 -104.5t61.5 -89.5t96.5 -61.5 t134.5 -23.5q157 0 246.5 103t89.5 286q0 176 -86.5 283.5t-249.5 107.5q-155 0 -245.5 -102t-90.5 -289zM545 1217l164 301h174l-246 -301h-92z" />
<glyph unicode="&#xf4;" horiz-adv-x="1189" d="M102 506q0 81 16 155.5t53.5 143t93 118t140 79.5t189.5 30q122 0 217 -40t154.5 -111t90.5 -166t31 -209q0 -86 -17.5 -162.5t-55.5 -144t-95 -115.5t-140 -76t-185 -28q-229 0 -360.5 138.5t-131.5 387.5zM258 506q0 -57 9.5 -110t34 -104.5t61.5 -89.5t96.5 -61.5 t134.5 -23.5q157 0 246.5 103t89.5 286q0 176 -86 283.5t-250 107.5q-154 0 -245 -102t-91 -289zM330 1217l184 301h158l182 -301h-92l-170 192l-168 -192h-94z" />
<glyph unicode="&#xf5;" horiz-adv-x="1189" d="M102 506q0 81 16 155.5t53.5 143t93 118t140 79.5t189.5 30q162 0 275 -70t165.5 -186.5t52.5 -269.5q0 -86 -17.5 -162.5t-55.5 -144t-95 -115.5t-140 -76t-185 -28q-229 0 -360.5 138.5t-131.5 387.5zM250 1341q12 13 26.5 26t43 34t65.5 34t76 13q65 0 145.5 -37 t136.5 -37q61 0 123 62l56 -64q-35 -39 -90.5 -72.5t-120.5 -33.5q-67 0 -147 36.5t-138 36.5q-10 0 -20.5 -2t-18.5 -4.5t-18.5 -8t-15.5 -8.5t-14.5 -10.5t-12.5 -9.5t-12 -10l-9 -8zM258 506q0 -57 9.5 -110t34 -104.5t61.5 -89.5t96.5 -61.5t134.5 -23.5 q157 0 246.5 103t89.5 286q0 176 -86 283.5t-250 107.5q-154 0 -245 -102t-91 -289z" />
<glyph unicode="&#xf6;" horiz-adv-x="1189" d="M102 506q0 81 16 155.5t53.5 143t93 118t140 79.5t189.5 30q122 0 217 -40t154.5 -111t90.5 -166t31 -209q0 -86 -17.5 -162.5t-55.5 -144t-95 -115.5t-140 -76t-185 -28q-229 0 -360.5 138.5t-131.5 387.5zM258 506q0 -57 9.5 -110t34 -104.5t61.5 -89.5t96.5 -61.5 t134.5 -23.5q157 0 246.5 103t89.5 286q0 176 -86 283.5t-250 107.5q-154 0 -245 -102t-91 -289zM317 1276v160h160v-160h-160zM696 1276v160h160v-160h-160z" />
<glyph unicode="&#xf7;" d="M113 555v127h1048v-127h-1048zM553 215v160h160v-160h-160zM555 848v160h160v-160h-160z" />
<glyph unicode="&#xf8;" horiz-adv-x="1187" d="M102 506q0 81 16 155.5t53.5 143t93 118t140 79.5t189.5 30q68 0 127 -12l80 203l127 -39l-82 -209q119 -63 179 -185.5t60 -283.5q0 -109 -28 -201.5t-85.5 -166.5t-154 -116t-223.5 -42q-66 0 -127 12l-78 -203l-127 39l80 209q-115 61 -177.5 181t-62.5 288zM258 506 q0 -104 34.5 -194t108.5 -142l277 719q-54 8 -84 8q-154 0 -245 -102t-91 -289zM510 125q36 -8 84 -8q157 0 246.5 102.5t89.5 286.5q0 233 -142 336z" />
<glyph unicode="&#xf9;" horiz-adv-x="1179" d="M164 336q0 -167 99 -261.5t255 -94.5q61 0 114 15t85.5 33.5t63 49t43 47.5t28.5 43h4q2 -116 2 -139q0 -29 27 -29h131q-12 160 -12 309v705h-152v-502q0 -181 -93 -288t-220 -107q-102 0 -163 67.5t-61 192.5v637h-151v-678zM303 1518h174l164 -301h-92z" />
<glyph unicode="&#xfa;" horiz-adv-x="1179" d="M164 336q0 -167 99 -261.5t255 -94.5q61 0 114 15t85.5 33.5t63 49t43 47.5t28.5 43h4q2 -116 2 -139q0 -29 27 -29h131q-12 160 -12 309v705h-152v-502q0 -181 -93 -288t-220 -107q-102 0 -163 67.5t-61 192.5v637h-151v-678zM530 1217l164 301h174l-245 -301h-93z" />
<glyph unicode="&#xfb;" horiz-adv-x="1179" d="M164 336q0 -167 99 -261.5t255 -94.5q61 0 114 15t85.5 33.5t63 49t43 47.5t28.5 43h6q0 -116 2 -139q0 -29 27 -29h129q-10 133 -10 309v705h-154v-502q0 -181 -93 -288t-220 -107q-102 0 -163 67.5t-61 192.5v637h-151v-678zM311 1217l183 301h157l185 -301h-95 l-168 194l-170 -194h-92z" />
<glyph unicode="&#xfc;" horiz-adv-x="1179" d="M164 336q0 -167 99.5 -261.5t256.5 -94.5q61 0 113.5 15t84.5 33.5t62.5 49t43 47.5t28.5 43h6q2 -116 2 -139q0 -29 27 -29h129q-10 200 -10 309v705h-152v-502q0 -181 -93 -288t-222 -107q-102 0 -162 67.5t-60 192.5v637h-153v-678zM311 1276v160h160v-160h-160z M690 1276v160h160v-160h-160z" />
<glyph unicode="&#xfd;" horiz-adv-x="997" d="M-41 -483q69 -23 147 -23q61 0 112.5 12.5t90 32.5t72 54t56.5 67.5t46.5 83t39.5 90t38 99.5q1 4 2 6l393 1073h-159l-287 -795h-4l-299 795h-182l397 -1016q-30 -86 -57 -156q-42 -115 -102 -158.5t-152 -43.5q-32 0 -75 7t-46 7q-18 0 -21 -25zM451 1217l163 301h174 l-245 -301h-92z" />
<glyph unicode="&#xfe;" horiz-adv-x="1144" d="M184 -473v1939h152v-604h6q9 18 27.5 41.5t53 55t88.5 52.5t116 21q84 0 154.5 -27.5t117.5 -73.5t80 -107t48 -126t15 -133q0 -120 -36 -225.5t-103.5 -186t-172.5 -127t-234 -46.5q-30 0 -59.5 3.5t-45.5 7t-35 8.5t-20 5v-477h-152zM336 141q87 -26 166 -26 q170 0 276.5 121t106.5 309q0 146 -69 248t-193 102q-121 0 -204 -116t-83 -324v-314z" />
<glyph unicode="&#xff;" horiz-adv-x="997" d="M-41 -483q69 -23 147 -23q61 0 112.5 12.5t90 32.5t72 54t56.5 67.5t46.5 83t39.5 90t38 99.5q1 4 2 6l393 1073h-159l-287 -795h-4l-299 795h-182l397 -1016q-30 -86 -57 -156q-42 -115 -102 -158.5t-152 -43.5q-32 0 -75 7t-46 7q-18 0 -21 -25zM227 1276v160h160v-160 h-160zM606 1276v160h160v-160h-160z" />
<glyph unicode="&#x152;" horiz-adv-x="2056" d="M143 690q0 329 170.5 520t460.5 191q293 0 461 -195v174h694v-127h-536v-479h510v-127h-510v-516h540v-131h-698v172q-165 -192 -461 -192q-288 0 -459.5 188.5t-171.5 521.5zM311 690q0 -269 124.5 -421t338.5 -152q212 0 336.5 152.5t124.5 420.5q0 271 -126.5 422.5 t-334.5 151.5q-210 0 -336.5 -150t-126.5 -424z" />
<glyph unicode="&#x153;" horiz-adv-x="1923" d="M102 506q0 81 16 155.5t53.5 143t93 118t140 79.5t189.5 30q288 0 414 -209q60 100 157.5 154.5t227.5 54.5q93 0 168 -27t122.5 -70t79.5 -101t45 -116.5t13 -119.5q0 -111 -9 -147h-727q2 -60 24.5 -116t65.5 -106.5t117.5 -81t171.5 -30.5q123 0 236 49q28 16 39 16 q16 0 18 -22q4 -58 4 -127q-172 -53 -313 -53q-315 0 -440 208q-126 -208 -414 -208q-229 0 -360.5 138.5t-131.5 387.5zM258 506q0 -57 9.5 -110t34 -104.5t61.5 -89.5t96.5 -61.5t134.5 -23.5q157 0 246.5 102.5t89.5 286.5q0 176 -86 283.5t-250 107.5q-154 0 -245 -102 t-91 -289zM1085 573h580v31q0 38 -7 75t-26.5 77.5t-49.5 71t-80 50t-113 19.5q-67 0 -121 -23t-87 -58.5t-55.5 -80t-31.5 -85t-9 -77.5z" />
<glyph unicode="&#x178;" horiz-adv-x="1028" d="M0 1380l430 -874v-506h158v506l440 874h-164l-344 -702l-348 702h-172zM248 1597v160h160v-160h-160zM627 1597v160h159v-160h-159z" />
<glyph unicode="&#x2c6;" horiz-adv-x="655" d="M70 1135l182 301h160l182 -301h-94l-168 194l-168 -194h-94z" />
<glyph unicode="&#x2dc;" horiz-adv-x="819" d="M72 1327q14 18 38 39.5t74 45.5t101 24q64 0 145 -38t137 -38q11 0 22 2t19.5 5t18.5 8.5t16.5 9.5t15 10.5t12 10t10 9t7.5 6.5l57 -61q-34 -40 -90.5 -74.5t-122.5 -34.5t-146 38t-138 38q-13 0 -26.5 -3.5t-23.5 -7.5t-22.5 -12t-18 -13t-17 -14t-13.5 -11z" />
<glyph unicode="&#x2000;" horiz-adv-x="907" />
<glyph unicode="&#x2001;" horiz-adv-x="1815" />
<glyph unicode="&#x2002;" horiz-adv-x="907" />
<glyph unicode="&#x2003;" horiz-adv-x="1815" />
<glyph unicode="&#x2004;" horiz-adv-x="605" />
<glyph unicode="&#x2005;" horiz-adv-x="453" />
<glyph unicode="&#x2006;" horiz-adv-x="302" />
<glyph unicode="&#x2007;" horiz-adv-x="302" />
<glyph unicode="&#x2008;" horiz-adv-x="226" />
<glyph unicode="&#x2009;" horiz-adv-x="363" />
<glyph unicode="&#x200a;" horiz-adv-x="100" />
<glyph unicode="&#x2010;" horiz-adv-x="821" d="M164 432v127h493v-127h-493z" />
<glyph unicode="&#x2011;" horiz-adv-x="821" d="M164 432v127h493v-127h-493z" />
<glyph unicode="&#x2012;" horiz-adv-x="821" d="M164 432v127h493v-127h-493z" />
<glyph unicode="&#x2013;" horiz-adv-x="1222" d="M164 442v127h895v-127h-895z" />
<glyph unicode="&#x2014;" horiz-adv-x="1587" d="M164 442v127h1259v-127h-1259z" />
<glyph unicode="&#x2018;" horiz-adv-x="380" d="M102 1018v160q0 65 48.5 121t101.5 81l27 -37q-95 -65 -95 -165h78v-160h-160z" />
<glyph unicode="&#x2019;" horiz-adv-x="380" d="M102 1055q40 27 67.5 69.5t27.5 96.5h-78v159h160v-159q0 -65 -48.5 -121.5t-101.5 -81.5z" />
<glyph unicode="&#x201a;" horiz-adv-x="421" d="M123 -166q94 65 94 166h-78v160h160v-160q0 -65 -48 -121.5t-101 -81.5z" />
<glyph unicode="&#x201c;" horiz-adv-x="694" d="M102 1032v160q0 65 48.5 121.5t101.5 81.5l27 -37q-40 -27 -67.5 -69.5t-27.5 -96.5h78v-160h-160zM416 1032v160q0 65 48 121.5t101 81.5l27 -37q-94 -65 -94 -166h77v-160h-159z" />
<glyph unicode="&#x201d;" horiz-adv-x="694" d="M102 1055q40 27 67.5 69.5t27.5 96.5h-78v159h160v-159q0 -65 -48.5 -121.5t-101.5 -81.5zM416 1055q94 65 94 166h-78v159h160v-159q0 -65 -48.5 -121.5t-101.5 -81.5z" />
<glyph unicode="&#x201e;" horiz-adv-x="735" d="M123 -166q94 65 94 166h-78v160h160v-160q0 -65 -48 -121.5t-101 -81.5zM436 -166q94 65 94 166h-77v160h159v-160q0 -65 -48 -121.5t-101 -81.5z" />
<glyph unicode="&#x2022;" horiz-adv-x="630" d="M190 489v250h250v-250h-250z" />
<glyph unicode="&#x2026;" horiz-adv-x="1503" d="M145 0v160h160v-160h-160zM670 0v160h159v-160h-159zM1194 0v160h160v-160h-160z" />
<glyph unicode="&#x202f;" horiz-adv-x="363" />
<glyph unicode="&#x2039;" horiz-adv-x="704" d="M133 485l346 414l92 -72l-282 -342l282 -344l-94 -71z" />
<glyph unicode="&#x203a;" horiz-adv-x="847" d="M205 141l280 344l-280 342l90 72l348 -414l-344 -415z" />
<glyph unicode="&#x205f;" horiz-adv-x="453" />
<glyph unicode="&#x20ac;" d="M41 489l68 127h86q-2 25 -2 74q0 61 4 92h-156l68 127h108q27 106 79 193t130 155t189.5 106t246.5 38q157 0 324 -60l-33 -145q-160 68 -311 68q-158 0 -281.5 -89.5t-173.5 -265.5h694l-30 -127h-686q-5 -73 -5 -92q0 -49 2 -74h650l-31 -127h-598 q43 -171 160.5 -271.5t302.5 -100.5q28 0 56.5 2.5t52.5 6t49 9.5t43 11t38 11.5t30 10t23.5 9t14.5 5.5l35 -143q-183 -59 -326 -59q-262 0 -429 138t-220 371h-172z" />
<glyph unicode="&#x2122;" horiz-adv-x="958" d="M123 1327v53h278v-53h-110v-356h-58v356h-110zM401 971l64 409h59l97 -297l94 297h59l62 -409h-62l-39 301h-2l-98 -301h-39l-94 301h-2l-37 -301h-62z" />
<glyph unicode="&#xe000;" horiz-adv-x="1013" d="M0 0v1014h1014v-1014h-1014z" />
<glyph unicode="&#xfb03;" horiz-adv-x="1564" d="M31 883v129h176v106q0 184 101.5 286.5t271.5 102.5q98 0 161 -22l-6 -92q-3 -27 -22 -27q-3 0 -43 7t-82 7q-118 0 -174 -71.5t-56 -184.5v-112h371v106q0 188 98 288.5t281 100.5q34 0 66 -2.5t54.5 -6t47 -9.5t37 -9.5t29.5 -9t20 -6.5l-8 -92q0 -29 -21 -29 q-10 0 -79.5 18.5t-143.5 18.5q-115 0 -172 -70t-57 -186v-112h520v-1012h-152v883h-368v-883h-152v883h-371v-883h-151v883h-176z" />
<glyph unicode="&#xfb04;" horiz-adv-x="1585" d="M31 883v129h176v106q0 184 101.5 286.5t271.5 102.5q98 0 161 -22l-6 -92q-3 -27 -22 -27q-3 0 -43 7t-82 7q-118 0 -174 -71.5t-56 -184.5v-112h371v106q0 185 100.5 287t270.5 102q164 0 301 -39v-1468h-152v1358q-51 22 -139 22q-119 0 -174 -71.5t-55 -184.5v-112 h231v-129h-231v-883h-152v883h-371v-883h-151v883h-176z" />
</font>
</defs>
</svg>
