<?xml version="1.0" standalone="no"?>
<!DOCTYPE svg PUBLIC "-//W3C//DTD SVG 1.1//EN" "http://www.w3.org/Graphics/SVG/1.1/DTD/svg11.dtd" >
<svg xmlns="http://www.w3.org/2000/svg">
<metadata>
This is a custom SVG webfont generated by Font Squirrel.
Copyright   : Copyright  1990 2002 Adobe Systems Incorporated  All Rights Reserved  1981 2002 Heidelberger Druckmaschinen AG All rights reserved
Designer    : Adrian Frutiger
Foundry URL : httpwwwadobecomtype
</metadata>
<defs>
<font id="UniversLTStd59UltraCondensed" horiz-adv-x="681" >
<font-face units-per-em="2048" ascent="1483" descent="-565" />
<missing-glyph horiz-adv-x="380" />
<glyph unicode=" "  horiz-adv-x="380" />
<glyph unicode="&#x09;" horiz-adv-x="380" />
<glyph unicode="&#xa0;" horiz-adv-x="380" />
<glyph unicode="!" horiz-adv-x="454" d="M119 0v205h217v-205h-217zM119 1479h217l-29 -1141h-160z" />
<glyph unicode="&#x22;" horiz-adv-x="569" d="M68 1114v365h172v-365h-172zM330 1114v365h172v-365h-172z" />
<glyph unicode="#" horiz-adv-x="761" d="M8 449v135h150l32 311h-137v135h152l47 449h135l-47 -449h143l47 449h136l-48 -449h136v-135h-150l-33 -311h138v-135h-152l-47 -449h-135l47 449h-143l-48 -449h-135l47 449h-135zM293 584h143l33 311h-143z" />
<glyph unicode="$" horiz-adv-x="761" d="M55 252v176h205v-121q0 -160 119 -160q135 0 135 170q0 100 -34 164t-185 213q-121 121 -180.5 218.5t-59.5 232.5q0 305 262 346v160h111v-160q262 -25 262 -270v-140h-192v117q0 133 -115 133q-63 0 -93 -38t-30 -124q0 -82 38 -150.5t171 -207.5q150 -156 194 -241 t44 -218q0 -166 -66 -257t-213 -107v-160h-111v160q-123 12 -188 75q-74 68 -74 189z" />
<glyph unicode="%" horiz-adv-x="1251" d="M74 709v620q0 82 53 122t141 40t141.5 -40t53.5 -122v-620q0 -82 -53.5 -122t-141.5 -40t-141 40t-53 122zM209 739q0 -82 59.5 -82t59.5 82v559q0 82 -59.5 82t-59.5 -82v-559zM330 -12l465 1503h123l-465 -1503h-123zM788 150v620q0 82 53.5 122t141.5 40t141.5 -40 t53.5 -122v-620q0 -82 -53.5 -122t-141.5 -40t-141.5 40t-53.5 122zM924 180q0 -82 59 -82t59 82v559q0 82 -59 82t-59 -82v-559z" />
<glyph unicode="&#x26;" horiz-adv-x="833" d="M70 367q0 170 30.5 277.5t135.5 158.5q-111 205 -111 366q0 150 70.5 230t189.5 80q262 0 262 -281q0 -127 -52 -224t-161 -198l135 -338h4v310h172v-297q0 -190 -47 -254l90 -197h-204l-19 43q-82 -55 -207 -55q-168 0 -228 92t-60 287zM262 381q0 -131 23.5 -188.5 t87.5 -57.5q68 0 121 62l-195 452q-37 -53 -37 -268zM297 1180q0 -123 68 -271q66 82 88 142.5t22 138.5q0 141 -88 141q-90 1 -90 -151z" />
<glyph unicode="'" horiz-adv-x="380" d="M104 1114v365h172v-365h-172z" />
<glyph unicode="(" horiz-adv-x="454" d="M109 579.5q0 370.5 196 899.5h135q-45 -133 -92 -423t-47 -476.5t47 -476t92 -422.5h-135q-196 528 -196 898.5z" />
<glyph unicode=")" horiz-adv-x="454" d="M14 -319q45 133 92.5 422.5t47.5 476t-47.5 476.5t-92.5 423h136q197 -528 196.5 -899t-196.5 -899h-136z" />
<glyph unicode="*" horiz-adv-x="606" d="M27 1098l202 92l-202 92l55 102l178 -120l-8 215h102l-8 -215l178 120l56 -102l-203 -92l203 -92l-56 -103l-178 121l8 -215h-102l8 215l-178 -121z" />
<glyph unicode="+" horiz-adv-x="1228" d="M96 432v172h432v432h172v-432h433v-172h-433v-432h-172v432h-432z" />
<glyph unicode="," horiz-adv-x="380" d="M59 -123l45 365h218l-115 -365h-148z" />
<glyph unicode="-" horiz-adv-x="606" d="M55 438v160h496v-160h-496z" />
<glyph unicode="." horiz-adv-x="380" d="M70 0v242h241v-242h-241z" />
<glyph unicode="/" horiz-adv-x="606" d="M-4 -12l442 1503h172l-442 -1503h-172z" />
<glyph unicode="0" horiz-adv-x="761" d="M76 352v774q0 205 63.5 285t241.5 80t241.5 -80t63.5 -285v-774q0 -205 -63.5 -284.5t-241.5 -79.5t-241.5 79.5t-63.5 284.5zM268 319q0 -45 2 -68.5t11.5 -55t34 -46t65.5 -14.5t65.5 14.5t33.5 46t11.5 55t2.5 68.5v840q0 45 -2.5 68.5t-11.5 55.5t-33.5 46t-65.5 14 t-65.5 -14t-34 -46t-11.5 -55.5t-2 -68.5v-840z" />
<glyph unicode="1" horiz-adv-x="761" d="M164 1047v192q37 27 101.5 110t82.5 130h172v-1479h-192v1200h-4q-56 -73 -160 -153z" />
<glyph unicode="2" horiz-adv-x="761" d="M70 0v197l301 557q63 119 88.5 209t25.5 204q0 98 -25.5 137t-76.5 39q-57 0 -77.5 -34.5t-20.5 -114.5v-96h-193v114q0 154 60.5 216.5t226.5 62.5q174 0 236.5 -71.5t62.5 -258.5q0 -131 -18.5 -215t-75.5 -196l-310 -578h418v-172h-622z" />
<glyph unicode="3" horiz-adv-x="761" d="M76 352v47h192v-80q0 -184 113 -184t113 184v175q0 102 -36 140t-139 38h-51v172h66q92 0 122.5 34.5t30.5 143.5v164q0 90 -24.5 123.5t-71.5 33.5q-113 0 -112 -184v-49h-193q0 217 62.5 299t242.5 82q174 0 231.5 -86t57.5 -307q0 -190 -34 -252t-146 -82v-4 q74 -12 107.5 -37t56 -112t22.5 -259q0 -205 -63.5 -284.5t-241.5 -79.5t-241.5 79.5t-63.5 284.5z" />
<glyph unicode="4" horiz-adv-x="761" d="M45 360v168l328 951h254v-971h90v-148h-90v-360h-193v360h-389zM217 508h217v684h-4z" />
<glyph unicode="5" horiz-adv-x="761" d="M70 240v159h192v-131q0 -133 117 -133q43 0 69.5 18.5t37 56.5t12.5 63.5t2 70.5v315q0 141 -111 142q-51 0 -82 -40t-31 -114v-59h-192v891h573v-160h-381v-453h5q66 94 184 95q94 0 160.5 -61.5t66.5 -192.5v-422q0 -297 -319 -297q-150 0 -226.5 66.5t-76.5 185.5z " />
<glyph unicode="6" horiz-adv-x="761" d="M70 328v798q0 199 70.5 282t236.5 83q303 0 303 -260v-131h-193v71q0 88 -24.5 124t-85.5 36q-115 0 -115 -184v-273h4q63 86 193 87q133 0 183 -91.5t50 -265.5v-252q0 -207 -66.5 -285.5t-260.5 -78.5q-164 0 -229.5 73.5t-65.5 266.5zM262 319q0 -49 2 -72.5t12.5 -54 t35 -44t65.5 -13.5q33 0 54.5 9.5t32.5 21.5t16 41t6 48t1 64v345q0 137 -110 137q-59 0 -87 -44t-28 -143v-295z" />
<glyph unicode="7" horiz-adv-x="761" d="M53 1298v181h639v-189l-303 -1290h-213l324 1298h-447z" />
<glyph unicode="8" horiz-adv-x="761" d="M76 352v123q0 152 34.5 205t129.5 80v4q-88 20 -120 79.5t-32 194.5v138q0 164 64.5 239.5t228.5 75.5t228.5 -76t64.5 -239v-138q0 -135 -32 -194.5t-120 -79.5v-4q94 -27 129 -80t35 -205v-123q0 -205 -63.5 -284.5t-241.5 -79.5t-241.5 79.5t-63.5 284.5zM268 319 q0 -45 2 -68.5t11.5 -55t34 -46t65.5 -14.5t65.5 14.5t33.5 46t11.5 55t2.5 68.5v181q0 45 -2.5 68.5t-11.5 55t-33.5 46t-65.5 14.5t-65.5 -14.5t-34 -46t-11.5 -55t-2 -68.5v-181zM281 1044q0 -49 1 -71.5t6 -53t15 -43t29.5 -22.5t48.5 -10q47 0 70.5 23.5t26.5 46 t3 67.5v184q0 33 -1 50.5t-6 44t-14 39t-29.5 22.5t-49.5 10t-49.5 -10t-29.5 -22.5t-14 -39t-6 -44t-1 -50.5v-121z" />
<glyph unicode="9" horiz-adv-x="761" d="M70 874v252q0 207 66.5 286t260.5 79q164 0 229.5 -74t65.5 -266v-799q0 -199 -70.5 -281.5t-236.5 -82.5q-303 0 -303 260v131h192v-72q0 -88 25 -124t86 -36q115 0 115 185v272h-4q-63 -86 -193 -86q-133 0 -183 91t-50 265zM274 815q0 -137 111 -137q59 0 87 44 t28 142v295q0 49 -2 72.5t-12.5 54.5t-35 44t-65.5 13q-33 0 -54.5 -9t-32.5 -21.5t-16.5 -41t-6.5 -48t-1 -64.5v-344z" />
<glyph unicode=":" horiz-adv-x="380" d="M70 0v242h241v-242h-241zM70 786v242h241v-242h-241z" />
<glyph unicode=";" horiz-adv-x="380" d="M59 -123l45 365h218l-115 -365h-148zM70 786v242h241v-242h-241z" />
<glyph unicode="&#x3c;" horiz-adv-x="1228" d="M96 444v148l1037 457v-172l-826 -359l826 -358v-172z" />
<glyph unicode="=" horiz-adv-x="1228" d="M96 219v172h1037v-172h-1037zM96 645v172h1037v-172h-1037z" />
<glyph unicode="&#x3e;" horiz-adv-x="1228" d="M96 -12v172l826 358l-826 359v172l1037 -457v-148z" />
<glyph unicode="?" horiz-adv-x="645" d="M66 1124v131q0 129 64.5 182.5t195.5 53.5q150 0 207 -64.5t57 -214.5q0 -158 -51 -266l-64 -127q-45 -88 -62.5 -153.5t-17.5 -163.5v-168h-159v246q0 98 15 166.5t60 179.5l43 98q31 70 37 104.5t6 114.5q0 61 -15 87t-56 26q-68 0 -68 -101v-131h-192zM207 0v205h217 v-205h-217z" />
<glyph unicode="@" horiz-adv-x="1638" d="M68 741q0 313 229 531.5t555 218.5q295 0 507 -175t212 -444q0 -133 -54.5 -248.5t-133 -184t-160.5 -106.5t-148 -38q-121 0 -139 117h-4q-98 -117 -250 -117q-129 0 -205 94t-76 234q0 207 129 371.5t320 164.5q166 0 237 -149l41 118h148l-158 -542q-20 -82 -20 -101 q0 -43 49 -43q88 0 176 127t88 279q0 217 -165 356t-394 139q-270 0 -447.5 -180t-177.5 -430q0 -248 185.5 -423t455.5 -175q135 0 263.5 56.5t201.5 136.5h172q-104 -162 -274 -251t-371 -89q-334 0 -563 218t-229 535zM561 639q0 -86 46 -141.5t128 -55.5q119 0 206 127 t87 252q0 78 -50 134.5t-122 56.5q-119 0 -207 -120t-88 -253z" />
<glyph unicode="A" horiz-adv-x="909" d="M23 0l325 1479h238l301 -1479h-205l-68 377h-319l-68 -377h-204zM326 549h260l-127 713h-4z" />
<glyph unicode="B" horiz-adv-x="796" d="M76 0v1479h356q182 0 238.5 -74t56.5 -285q0 -209 -38 -275.5t-148 -80.5v-4q123 -23 159.5 -86.5t36.5 -251.5q0 -129 -11 -202t-47 -127t-102.5 -73.5t-179.5 -19.5h-321zM281 160h127q88 0 112.5 47t24.5 221q0 166 -23.5 211t-107.5 45h-133v-524zM281 844h118 q92 0 114 42t22 224q0 127 -30 168t-128 41h-96v-475z" />
<glyph unicode="C" horiz-adv-x="720" d="M53 354v748q0 389 346 389q150 0 223.5 -70.5t73.5 -197.5v-148h-192v103q0 154 -119 153q-76 0 -101.5 -56t-25.5 -198v-725q0 -119 32 -162t89 -43q125 0 125 177v102h192v-164q0 -129 -67.5 -201.5t-233.5 -72.5q-186 0 -264 92t-78 274z" />
<glyph unicode="D" horiz-adv-x="833" d="M76 0v1479h330q74 0 125 -8.5t91 -22.5t64.5 -47t40.5 -69t23.5 -100.5t10.5 -128t3 -165.5v-440q0 -291 -77 -394.5t-314 -103.5h-297zM281 172h98q111 0 145.5 68.5t34.5 265.5v508q0 174 -36 233.5t-161 59.5h-81v-1135z" />
<glyph unicode="E" horiz-adv-x="645" d="M76 0v1479h557v-172h-352v-463h331v-172h-331v-500h352v-172h-557z" />
<glyph unicode="F" horiz-adv-x="645" d="M76 0v1479h557v-172h-352v-463h331v-172h-331v-672h-205z" />
<glyph unicode="G" horiz-adv-x="833" d="M76 354v748q0 211 76.5 300t271.5 89q334 0 334 -268v-136h-205v76q0 78 -36 123t-95 45q-141 0 -141 -244v-745q0 -88 38.5 -141.5t102.5 -53.5q70 0 131 15v434h-135v172h340v-743q-160 -37 -338 -37q-186 0 -265 92t-79 274z" />
<glyph unicode="H" horiz-adv-x="833" d="M76 0v1479h205v-635h272v635h205v-1479h-205v672h-272v-672h-205z" />
<glyph unicode="I" horiz-adv-x="344" d="M70 0v1479h204v-1479h-204z" />
<glyph unicode="J" horiz-adv-x="645" d="M16 242v190h193v-145q0 -139 78 -140q51 0 67.5 39t16.5 109v1184h204v-1207q0 -285 -288 -284q-137 0 -204 55.5t-67 198.5z" />
<glyph unicode="K" horiz-adv-x="833" d="M76 0v1479h205v-674h4l323 674h205l-344 -695l369 -784h-230l-323 739h-4v-739h-205z" />
<glyph unicode="L" horiz-adv-x="645" d="M76 0v1479h205v-1307h344v-172h-549z" />
<glyph unicode="M" horiz-adv-x="1175" d="M76 0v1479h325l189 -1127h4l188 1127h318v-1479h-193v1331h-4l-209 -1331h-205l-229 1331h-4v-1331h-180z" />
<glyph unicode="N" horiz-adv-x="872" d="M76 0v1479h282l242 -1229h4v1229h193v-1479h-295l-242 1262h-4v-1262h-180z" />
<glyph unicode="O" horiz-adv-x="833" d="M70 354v748q0 389 346 389q190 0 269 -92t79 -275v-747q0 -389 -348 -389q-188 0 -267 92t-79 274zM274 342q0 -94 39 -144.5t103 -50.5q66 0 104.5 50.5t38.5 144.5v776q0 213 -143 213q-141 0 -142 -213v-776z" />
<glyph unicode="P" horiz-adv-x="796" d="M76 0v1479h338q207 0 269 -80t62 -338t-62 -338t-269 -80h-133v-643h-205zM281 815h106q104 0 129 39t25 207t-24.5 207t-129.5 39h-106v-492z" />
<glyph unicode="Q" horiz-adv-x="872" d="M70 354v748q0 389 346 389q190 0 269 -92t79 -275v-698q0 -203 -86 -299l4 -4q49 25 192 24v-147q-84 0 -252.5 -6t-205.5 -6q-188 0 -267 92t-79 274zM274 342q0 -94 39 -144.5t103 -50.5q66 0 104.5 50.5t38.5 144.5v776q0 213 -143 213q-141 0 -142 -213v-776z" />
<glyph unicode="R" horiz-adv-x="796" d="M76 0v1479h317q115 0 178.5 -15.5t98.5 -66.5t44 -120t9 -202q0 -158 -37 -228.5t-158 -107.5v-4q102 -10 144.5 -64.5t42.5 -160.5v-322q0 -127 12 -188h-192q-25 45 -25 133v334q0 106 -29.5 141t-130.5 35h-69v-643h-205zM281 815h53q121 0 152.5 43t31.5 209 q0 164 -21.5 202t-117.5 38h-98v-492z" />
<glyph unicode="S" horiz-adv-x="757" d="M53 252v176h205v-121q0 -160 119 -160q135 0 135 170q0 100 -34 164t-185 213q-121 121 -180.5 218.5t-59.5 232.5q0 178 83 262t253 84q150 0 240 -82q59 -55 59 -188v-140h-192v117q0 133 -115 133q-63 0 -93 -38t-30 -124q0 -82 38 -150.5t171 -207.5 q150 -156 194 -241t44 -218q0 -180 -79 -272t-255 -92q-147 0 -232.5 65.5t-85.5 198.5z" />
<glyph unicode="T" horiz-adv-x="720" d="M12 1307v172h697v-172h-246v-1307h-205v1307h-246z" />
<glyph unicode="U" horiz-adv-x="833" d="M70 334v1145h204v-1180q0 -78 33 -115t111 -37q76 0 108.5 37t32.5 115v1180h205v-1145q0 -346 -346 -346q-348 0 -348 346z" />
<glyph unicode="V" horiz-adv-x="872" d="M16 1479h205l213 -1176h4l213 1176h205l-301 -1479h-238z" />
<glyph unicode="W" horiz-adv-x="1366" d="M27 1479h211l147 -1217h4l164 1217h278l136 -1217h4l176 1217h192l-266 -1479h-250l-137 1237h-4l-174 -1237h-248z" />
<glyph unicode="X" horiz-adv-x="872" d="M16 0l320 768l-297 711h217l193 -521l192 521h205l-295 -731l305 -748h-217l-201 543l-217 -543h-205z" />
<glyph unicode="Y" horiz-adv-x="833" d="M31 1479h205l178 -623h4l205 623h180l-285 -873v-606h-205v606z" />
<glyph unicode="Z" horiz-adv-x="720" d="M23 0v186l460 1121h-403v172h608v-172l-461 -1135h471v-172h-675z" />
<glyph unicode="[" horiz-adv-x="454" d="M117 -319v1798h323v-148h-151v-1503h151v-147h-323z" />
<glyph unicode="\" horiz-adv-x="606" d="M-4 1491h172l442 -1503h-172z" />
<glyph unicode="]" horiz-adv-x="454" d="M14 -172h152v1503h-152v148h324v-1798h-324v147z" />
<glyph unicode="^" horiz-adv-x="1228" d="M117 631l418 848h159l418 -848h-172l-326 676l-325 -676h-172z" />
<glyph unicode="_" horiz-adv-x="1024" d="M0 -154h1024v-102h-1024v102z" />
<glyph unicode="`" horiz-adv-x="344" d="M-74 1520h205l141 -297h-122z" />
<glyph unicode="a" d="M51 268q0 150 14.5 208.5t55.5 101.5q37 39 89 51t210 12v166q0 49 -17.5 73.5t-62.5 24.5q-82 0 -82 -86v-94h-192v92q0 223 274 223q135 0 203.5 -59t68.5 -190v-791h-180v106q-12 -12 -28.5 -32.5t-26.5 -30.5q-55 -55 -137 -55q-96 0 -142.5 55t-46.5 225zM244 295 q0 -111 14 -141.5t61.5 -30.5t74 32.5t26.5 86.5v264h-62q-68 0 -91 -44t-23 -167z" />
<glyph unicode="b" d="M68 0v1479h192v-525h4q25 43 74 66q43 20 96 20q84 0 132 -62.5t48 -174.5v-578q0 -113 -48 -175t-132 -62q-119 0 -182 86h-4v-74h-180zM260 219q0 -53 22.5 -80.5t55.5 -27.5q41 0 62.5 31.5t21.5 115.5v508q0 139 -74 139q-88 0 -88 -168v-518z" />
<glyph unicode="c" horiz-adv-x="606" d="M43 244v520q0 131 71.5 203.5t198.5 72.5q125 0 187.5 -55t62.5 -149v-154h-180v113q0 111 -73.5 110.5t-73.5 -121.5v-565q0 -96 73.5 -96t73.5 100v123h180v-156q0 -106 -71.5 -154t-176.5 -48q-121 0 -196.5 61.5t-75.5 194.5z" />
<glyph unicode="d" d="M68 225v578q0 113 48 175t132 62q53 0 96 -20q49 -23 74 -66h4v525h192v-1479h-180v74h-4q-33 -41 -82 -63.5t-100 -22.5q-84 0 -132 62t-48 175zM260 258q0 -84 21.5 -115.5t62.5 -31.5q33 0 55.5 27.5t22.5 80.5v518q0 168 -88 168q-74 0 -74 -139v-508z" />
<glyph unicode="e" d="M61 244v520q0 131 73 203.5t206 72.5q127 0 204 -60t77 -196v-331h-367v-220q0 -70 22.5 -96t71.5 -26q92 0 92 133v94h181v-145q0 -88 -69 -146.5t-218 -58.5q-121 0 -197 61.5t-76 194.5zM254 588h186v200q0 70 -21.5 100t-70.5 30q-51 0 -72.5 -28t-21.5 -85v-217z " />
<glyph unicode="f" horiz-adv-x="417" d="M10 893v135h96v242q0 115 49.5 162t196.5 47h66v-148h-35q-84 0 -84 -88v-215h119v-135h-119v-893h-193v893h-96z" />
<glyph unicode="g" d="M68 262v541q0 113 48 175t132 62q63 0 103 -23.5t79 -80.5h4v92h180v-1128q0 -285 -276 -285q-252 0 -252 205v86h193v-80q0 -88 71.5 -88t71.5 117v256h-4q-55 -86 -170 -86q-84 0 -132 62t-48 175zM260 307q0 -84 21.5 -115.5t62.5 -31.5q33 0 55.5 27.5t22.5 80.5v529 q0 109 -86 108q-76 0 -76 -106v-492z" />
<glyph unicode="h" d="M70 0v1479h192v-537h4q20 47 68 74q47 25 98 24q80 0 130 -48t50 -154v-838h-192v801q0 92 -74 92q-84 0 -84 -109v-784h-192z" />
<glyph unicode="i" horiz-adv-x="344" d="M76 0v1028h192v-1028h-192zM76 1274v205h192v-205h-192z" />
<glyph unicode="j" horiz-adv-x="344" d="M-25 -238q61 2 81 17.5t20 68.5v1180h192v-1216q0 -111 -58 -153t-235 -44v147zM76 1274v205h192v-205h-192z" />
<glyph unicode="k" horiz-adv-x="645" d="M70 0v1479h192v-887h4l174 436h181l-187 -461l211 -567h-205l-174 528h-4v-528h-192z" />
<glyph unicode="l" horiz-adv-x="344" d="M76 0v1479h192v-1479h-192z" />
<glyph unicode="m" horiz-adv-x="1064" d="M86 0v1028h180v-86h4q25 41 75 69.5t108 28.5q106 0 168 -98q59 98 170 98q188 0 188 -202v-838h-193v801q0 92 -73 92q-84 0 -84 -109v-784h-193v801q0 92 -74 92q-84 0 -83 -109v-784h-193z" />
<glyph unicode="n" d="M70 0v1028h180v-86h4q29 47 74 72q45 27 104 26q80 0 130 -48t50 -154v-838h-192v801q0 92 -74 92q-84 0 -84 -109v-784h-192z" />
<glyph unicode="o" d="M68 244v520q0 131 71.5 203.5t200.5 72.5q123 0 198.5 -61t75.5 -195v-520q0 -131 -71.5 -203.5t-200.5 -72.5q-123 0 -198.5 61.5t-75.5 194.5zM260 252q0 -129 82 -129q80 0 80 129v524q0 129 -80 129q-82 0 -82 -129v-524z" />
<glyph unicode="p" d="M68 -373v1401h180v-115h4q47 127 182 127q84 0 132 -62.5t48 -174.5v-578q0 -113 -48 -175t-132 -62q-113 0 -174 69v-430h-192zM260 231q0 -53 22.5 -80.5t55.5 -27.5q41 0 62.5 31.5t21.5 115.5v484q0 139 -74 139q-88 0 -88 -168v-494z" />
<glyph unicode="q" d="M68 225v578q0 113 48 175t132 62q135 0 182 -127h4v115h180v-1401h-192v430q-61 -70 -174 -69q-84 0 -132 62t-48 175zM260 270q0 -84 21.5 -115.5t62.5 -31.5q33 0 55.5 27.5t22.5 80.5v494q0 168 -88 168q-74 0 -74 -139v-484z" />
<glyph unicode="r" horiz-adv-x="417" d="M70 0v1028h180v-106h4q33 72 66.5 95t105.5 23v-192q-80 0 -122 -28.5t-42 -104.5v-715h-192z" />
<glyph unicode="s" horiz-adv-x="606" d="M51 199v145h180v-141q0 -45 17.5 -62.5t54.5 -17.5q45 0 58.5 24.5t13.5 90.5q0 84 -17.5 117.5t-99.5 103.5l-43 37q-113 96 -134.5 138t-21.5 150q0 141 65.5 198.5t201.5 57.5q219 0 219 -186v-158h-172v99q0 61 -14.5 85.5t-53.5 24.5t-52 -20.5t-13 -73.5 q0 -76 19.5 -106.5t117.5 -116.5q115 -100 146.5 -156.5t31.5 -167.5q0 -152 -61.5 -214t-212.5 -62q-230 0 -230 211z" />
<glyph unicode="t" horiz-adv-x="417" d="M10 893v135h96v195l193 67v-262h119v-135h-119v-666q0 -55 22.5 -73.5t69.5 -18.5q31 0 49 6v-135q-68 -6 -125 -6q-113 0 -161 33t-48 104v756h-96z" />
<glyph unicode="u" d="M70 190v838h192v-801q0 -92 74 -92q84 0 84 109v784h192v-1028h-180v86h-4q-29 -47 -74 -72q-45 -27 -104 -26q-80 0 -130 48t-50 154z" />
<glyph unicode="v" d="M10 1028h199l133 -835h4l133 835h193l-230 -1028h-225z" />
<glyph unicode="w" horiz-adv-x="1099" d="M16 1028h205l101 -799h4l120 799h220l114 -799h4l107 799h192l-204 -1028h-220l-102 799h-4l-139 -799h-211z" />
<glyph unicode="x" horiz-adv-x="645" d="M-4 0l221 543l-199 485h213l101 -315h4l117 315h180l-203 -510l219 -518h-211l-123 362h-4l-123 -362h-192z" />
<glyph unicode="y" d="M12 1028h205l127 -743h4l129 743h193l-334 -1401h-180l90 387z" />
<glyph unicode="z" horiz-adv-x="493" d="M23 0v186l268 695h-268v147h448v-168l-276 -713h276v-147h-448z" />
<glyph unicode="{" horiz-adv-x="454" d="M-4 512v135q121 2 121 232v340q0 123 66.5 191.5t162.5 68.5h72v-148h-41q-88 0 -88 -151v-332q0 -121 -61.5 -187.5t-121.5 -80.5v-5q59 -12 121 -76.5t62 -187.5v-331q0 -152 88 -152h41v-147h-72q-96 0 -162.5 68.5t-66.5 191.5v340q0 229 -121 231z" />
<glyph unicode="|" horiz-adv-x="454" d="M141 -12v1503h172v-1503h-172z" />
<glyph unicode="}" horiz-adv-x="454" d="M37 -172h41q88 0 88 152v331q0 121 61.5 187.5t120.5 81.5v4q-59 12 -120.5 76.5t-61.5 187.5v332q0 152 -88 151h-41v148h72q96 0 162.5 -69t66.5 -191v-340q0 -229 121 -232v-135q-121 -2 -121 -231v-340q0 -123 -66.5 -191.5t-162.5 -68.5h-72v147z" />
<glyph unicode="~" horiz-adv-x="1228" d="M129 502q109 176 268 176q104 0 238 -76q123 -72 199 -72q90 0 180 158l86 -153q-109 -176 -269 -177q-98 0 -237 74t-199 74q-90 0 -180 -158z" />
<glyph unicode="&#xa1;" horiz-adv-x="454" d="M119 -373l28 1141h160l29 -1141h-217zM119 901v205h217v-205h-217z" />
<glyph unicode="&#xa2;" horiz-adv-x="761" d="M121 244v520q0 115 55 186.5t158 89.5v142h94v-142q109 -8 162 -65q51 -51 51 -139v-154h-180v113q0 111 -74 110.5t-74 -121.5v-565q0 -96 74 -96t74 100v123h180v-156q0 -96 -60.5 -145t-152.5 -57v-166h-94v166q-98 16 -152 73q-61 68 -61 183z" />
<glyph unicode="&#xa3;" horiz-adv-x="761" d="M18 0v160h93v563h-93v135h93l8 291q10 342 352 342q162 0 245 -77t83 -212v-125h-181v99q0 72 -36.5 113.5t-108.5 41.5q-80 0 -125 -46t-45 -132v-295h225v-135h-225v-563h479v-160h-764z" />
<glyph unicode="&#xa4;" horiz-adv-x="761" d="M59 475l68 70q-63 84 -63.5 194.5t63.5 194.5l-68 70l58 57l69 -68q86 63 201 64q104 0 188 -64l70 68l57 -57l-67 -70q63 -84 63 -195q0 -113 -63 -192l67 -72l-57 -57l-72 69q-78 -66 -186 -65q-117 0 -201 63l-69 -67zM186 739q0 -80 57.5 -137t137.5 -57t137 57 t57 137t-57 137.5t-137 57.5t-137.5 -57.5t-57.5 -137.5z" />
<glyph unicode="&#xa5;" horiz-adv-x="761" d="M31 1479h180l168 -623h4l188 623h160l-215 -727h172v-136h-211v-176h211v-135h-211v-305h-192v305h-211v135h211v176h-211v136h168z" />
<glyph unicode="&#xa6;" horiz-adv-x="454" d="M141 -12v561h172v-561h-172zM141 930v561h172v-561h-172z" />
<glyph unicode="&#xa7;" horiz-adv-x="606" d="M43 0v135q74 -12 164 -12q92 0 134 28.5t42 100.5q0 59 -35 106.5t-85 81t-100 70.5t-85 97.5t-35 142.5q0 86 22.5 138t90.5 95q-113 82 -113 252q0 143 73.5 199.5t219.5 56.5q72 0 194 -12v-136q-117 12 -174 13q-68 0 -100.5 -25.5t-32.5 -87.5q0 -57 35 -97 t84 -66.5t98 -60.5t84 -98.5t35 -160.5q0 -109 -41 -164t-98 -66v-4q61 -31 102 -101.5t41 -162.5q0 -137 -76.5 -205.5t-242.5 -68.5q-109 0 -201 12zM215 778q0 -57 20.5 -90t77.5 -72q41 33 57.5 58.5t16.5 70.5q0 111 -104 158q-68 -47 -68 -125z" />
<glyph unicode="&#xa8;" horiz-adv-x="344" d="M-66 1274v205h160v-205h-160zM250 1274v205h160v-205h-160z" />
<glyph unicode="&#xa9;" horiz-adv-x="1638" d="M68 739.5q0 309.5 220 530.5t531 221t531.5 -221t220.5 -530.5t-220.5 -530.5t-531.5 -221t-531 221t-220 530.5zM227 739q0 -254 171 -429t421 -175q248 0 420 176t172 428t-172 428t-420 176q-250 0 -421 -175t-171 -429zM412 739q0 199 114.5 326t309.5 127 q137 0 235 -83t119 -228h-160q-14 76 -70.5 119.5t-140.5 43.5q-119 0 -183.5 -83.5t-64.5 -221.5q0 -133 70 -219t186 -86q84 0 138.5 44t64.5 128h172q-27 -150 -127 -234.5t-239 -84.5q-188 0 -306 128.5t-118 323.5z" />
<glyph unicode="&#xaa;" horiz-adv-x="442" d="M35 1036.5q0 96.5 9 131t36 59.5q25 23 58.5 30t133.5 7v65q0 68 -47 68q-45 0 -45 -68v-26h-135v53q0 135 178 135q184 0 185 -154v-454h-123v59l-35 -35q-39 -33 -90 -33q-63 0 -94 33t-31 129.5zM170 1059q0 -55 8 -72.5t33 -17.5q61 0 61 67v133h-34 q-39 0 -53.5 -23.5t-14.5 -86.5z" />
<glyph unicode="&#xab;" d="M43 518l164 406h147l-118 -406l118 -405h-147zM328 518l164 406h147l-119 -406l119 -405h-147z" />
<glyph unicode="&#xac;" horiz-adv-x="1228" d="M96 645v172h1037v-598h-172v426h-865z" />
<glyph unicode="&#xad;" horiz-adv-x="606" d="M55 438v160h496v-160h-496z" />
<glyph unicode="&#xae;" horiz-adv-x="1638" d="M68 739q0 311 220 531.5t531 220.5t531.5 -220t220.5 -531.5t-220.5 -531.5t-531.5 -220t-531 221t-220 530zM227 739q0 -254 170 -429t422 -175q248 0 420 175t172 429t-172 429t-420 175q-252 0 -422 -175t-170 -429zM492 311v858h337q164 0 244 -59t80 -188 q0 -111 -61.5 -166.5t-157.5 -59.5l231 -385h-166l-225 371h-135v-371h-147zM639 805h154q63 0 101 6t68.5 37t30.5 86q0 113 -188 113h-166v-242z" />
<glyph unicode="&#xaf;" horiz-adv-x="344" d="M-98 1317v110h540v-110h-540z" />
<glyph unicode="&#xb0;" horiz-adv-x="819" d="M102 1184q0 127 90.5 217t217.5 90t217 -90t90 -217t-90 -217t-217 -90t-217.5 90t-90.5 217zM225 1184q0 -78 53.5 -131.5t131 -53.5t131 53.5t53.5 131.5t-53.5 131t-131 53t-131 -53t-53.5 -131z" />
<glyph unicode="&#xb1;" horiz-adv-x="1228" d="M96 0v172h1037v-172h-1037zM96 553v172h432v311h172v-311h433v-172h-433v-311h-172v311h-432z" />
<glyph unicode="&#xb2;" horiz-adv-x="491" d="M31 596v123q41 63 196 330q43 76 58.5 125t15.5 124q0 90 -51 90.5t-51 -94.5v-45h-160v70q4 96 45 134t166 38t168 -45t43 -162q0 -127 -62 -237l-202 -328h262v-123h-428z" />
<glyph unicode="&#xb3;" horiz-adv-x="491" d="M31 811v27h159v-37q0 -111 54 -111q57 0 57 111v94q0 53 -21.5 73.5t-80.5 20.5h-31v123h39q53 0 71.5 19.5t18.5 74.5v94q0 88 -45 89q-57 0 -57 -103v-26h-160q0 131 41 180q45 51 176 51q125 0 165 -51t40 -187q0 -113 -23.5 -149.5t-105.5 -48.5v-4 q78 -8 105.5 -50.5t27.5 -189.5q0 -127 -44 -175t-173 -48q-125 0 -169 48t-44 175z" />
<glyph unicode="&#xb4;" horiz-adv-x="344" d="M72 1223l141 297h205l-223 -297h-123z" />
<glyph unicode="&#xb5;" d="M70 -373v1401h192v-801q0 -92 74 -92q84 0 84 109v784h192v-1028h-180v86h-4q-10 -43 -37 -70q-29 -29 -61 -28q-39 0 -68 24v-385h-192z" />
<glyph unicode="&#xb6;" horiz-adv-x="819" d="M33 1153q0 154 89 240t230 86h369v-1479h-160v1356h-127v-1356h-160v838q-106 0 -173.5 92t-67.5 223z" />
<glyph unicode="&#xb7;" horiz-adv-x="380" d="M47 614.5q0 59.5 42 101.5t101.5 42t101.5 -42t42 -101.5t-42 -101.5t-101.5 -42t-101.5 42t-42 101.5z" />
<glyph unicode="&#xb8;" horiz-adv-x="344" d="M37 -338l16 64q53 -25 99 -25q49 0 70.5 21.5t21.5 50.5q0 33 -24.5 49t-53.5 16q-49 0 -90 -20l51 198h80l-27 -104l4 -4q12 4 56 4q59 0 99 -35t40 -94q0 -68 -56.5 -112t-142.5 -44q-100 0 -143 35z" />
<glyph unicode="&#xb9;" horiz-adv-x="491" d="M78 1200v135q25 16 65.5 67.5t51.5 80.5h147v-887h-160v696h-4q-34 -43 -100 -92z" />
<glyph unicode="&#xba;" horiz-adv-x="491" d="M59 1020v311q0 76 48.5 118t138.5 42q186 0 186 -148v-311q0 -76 -48 -117t-136 -41q-189 1 -189 146zM195 1044q0 -76 53 -75q49 0 49 75v277q0 76 -49 76q-53 0 -53 -76v-277z" />
<glyph unicode="&#xbb;" d="M43 113l119 405l-119 406h147l164 -406l-164 -405h-147zM328 113l118 405l-118 406h147l164 -406l-164 -405h-147z" />
<glyph unicode="&#xbc;" horiz-adv-x="1136" d="M68 1200v135q25 16 65.5 67.5t50.5 80.5h148v-887h-160v696h-4q-34 -43 -100 -92zM233 -12l465 1503h123l-465 -1503h-123zM575 205v110l213 572h224v-572h57v-110h-57v-205h-160v205h-277zM711 315h141v400h-4z" />
<glyph unicode="&#xbd;" horiz-adv-x="1136" d="M68 1200v135q25 16 65.5 67.5t50.5 80.5h148v-887h-160v696h-4q-34 -43 -100 -92zM215 -12l465 1503h123l-465 -1503h-123zM639 0v123q41 63 197 330q43 76 58 125t15 124q0 90 -51 90.5t-51 -94.5v-45h-160v70q4 96 45 134t166 38t168 -45t43 -162q0 -127 -61 -237 l-203 -328h262v-123h-428z" />
<glyph unicode="&#xbe;" horiz-adv-x="1136" d="M31 811v27h159v-37q0 -111 54 -111q57 0 57 111v94q0 53 -21.5 73.5t-80.5 20.5h-31v123h39q53 0 71.5 19.5t18.5 74.5v94q0 88 -45 89q-57 0 -57 -103v-26h-160q0 131 41 180q45 51 176 51q125 0 165 -51t40 -187q0 -113 -23.5 -149.5t-105.5 -48.5v-4 q78 -8 105.5 -50.5t27.5 -189.5q0 -127 -44 -175t-173 -48q-125 0 -169 48t-44 175zM293 -12l465 1503h123l-465 -1503h-123zM612 205v110l213 572h224v-572h57v-110h-57v-205h-160v205h-277zM748 315h141v400h-4z" />
<glyph unicode="&#xbf;" horiz-adv-x="645" d="M55 -106q0 158 51 266l64 127q45 88 62.5 153.5t17.5 163.5v168h160v-246q0 -98 -15.5 -166.5t-60.5 -179.5l-43 -98q-31 -70 -37 -104.5t-6 -114.5q0 -61 15.5 -87t55.5 -26q68 0 68 100v132h193v-132q0 -129 -64.5 -182t-196.5 -53q-150 0 -207 64.5t-57 214.5z M221 901v205h217v-205h-217z" />
<glyph unicode="&#xc0;" horiz-adv-x="909" d="M23 0l325 1479h238l301 -1479h-205l-68 377h-319l-68 -377h-204zM219 1878h205l141 -297h-123zM326 549h260l-127 713h-4z" />
<glyph unicode="&#xc1;" horiz-adv-x="909" d="M23 0l325 1479h238l301 -1479h-205l-68 377h-319l-68 -377h-204zM326 549h260l-127 713h-4zM365 1581l141 297h205l-224 -297h-122z" />
<glyph unicode="&#xc2;" horiz-adv-x="909" d="M23 0l325 1479h238l301 -1479h-205l-68 377h-319l-68 -377h-204zM184 1581l201 297h160l200 -297h-147l-133 174l-133 -174h-148zM326 549h260l-127 713h-4z" />
<glyph unicode="&#xc3;" horiz-adv-x="909" d="M23 0l325 1479h238l301 -1479h-205l-68 377h-319l-68 -377h-204zM164 1614q4 80 45 145q53 78 149 78q53 0 132 -38t100 -38q23 0 42 29t23 59h111q-4 -84 -51 -153.5t-144 -69.5q-53 0 -132 38t-99 38q-23 0 -42 -28.5t-24 -59.5h-110zM326 549h260l-127 713h-4z" />
<glyph unicode="&#xc4;" horiz-adv-x="909" d="M23 0l325 1479h238l301 -1479h-205l-68 377h-319l-68 -377h-204zM227 1632v205h160v-205h-160zM326 549h260l-127 713h-4zM543 1632v205h159v-205h-159z" />
<glyph unicode="&#xc5;" horiz-adv-x="909" d="M23 0l325 1479h238l301 -1479h-205l-68 377h-319l-68 -377h-204zM281 1708q0 78 54 131t130 53t130 -53t54 -131t-54 -131t-130 -53t-130 53t-54 131zM326 549h260l-127 713h-4zM375 1708q0 -37 26.5 -63.5t63.5 -26.5t63.5 26.5t26.5 63.5t-26.5 63.5t-63.5 26.5 t-63.5 -26.5t-26.5 -63.5z" />
<glyph unicode="&#xc6;" horiz-adv-x="1251" d="M23 0l458 1479h758v-172h-471l41 -463h410v-172h-396l43 -500h373v-172h-551l-29 377h-327l-105 -377h-204zM381 549h266l-57 737h-4z" />
<glyph unicode="&#xc7;" horiz-adv-x="720" d="M53 354v748q0 389 346 389q150 0 223.5 -70.5t73.5 -197.5v-148h-192v103q0 154 -119 153q-76 0 -101.5 -56t-25.5 -198v-725q0 -119 32 -162t89 -43q125 0 125 177v102h192v-164q0 -127 -64.5 -199.5t-225.5 -74.5l-21 -76l4 -4q12 4 55 4q59 0 99.5 -35t40.5 -94 q0 -68 -56.5 -112t-142.5 -44q-100 0 -143 35l16 64q53 -25 98 -25q49 0 71 21.5t22 50.5q0 33 -25 49t-53 16q-49 0 -90 -20l45 176q-147 14 -210 105t-63 255z" />
<glyph unicode="&#xc8;" horiz-adv-x="645" d="M76 0v1479h557v-172h-352v-463h331v-172h-331v-500h352v-172h-557zM102 1878h205l142 -297h-123z" />
<glyph unicode="&#xc9;" horiz-adv-x="645" d="M76 0v1479h557v-172h-352v-463h331v-172h-331v-500h352v-172h-557zM248 1581l141 297h205l-223 -297h-123z" />
<glyph unicode="&#xca;" horiz-adv-x="645" d="M68 1581l200 297h160l201 -297h-148l-133 174l-133 -174h-147zM76 0v1479h557v-172h-352v-463h331v-172h-331v-500h352v-172h-557z" />
<glyph unicode="&#xcb;" horiz-adv-x="645" d="M76 0v1479h557v-172h-352v-463h331v-172h-331v-500h352v-172h-557zM111 1632v205h159v-205h-159zM426 1632v205h160v-205h-160z" />
<glyph unicode="&#xcc;" horiz-adv-x="344" d="M-74 1878h205l141 -297h-122zM70 0v1479h204v-1479h-204z" />
<glyph unicode="&#xcd;" horiz-adv-x="344" d="M70 0v1479h204v-1479h-204zM72 1581l141 297h205l-223 -297h-123z" />
<glyph unicode="&#xce;" horiz-adv-x="344" d="M-109 1581l201 297h160l201 -297h-148l-133 174l-133 -174h-148zM70 0v1479h204v-1479h-204z" />
<glyph unicode="&#xcf;" horiz-adv-x="344" d="M-66 1632v205h160v-205h-160zM70 0v1479h204v-1479h-204zM250 1632v205h160v-205h-160z" />
<glyph unicode="&#xd0;" horiz-adv-x="833" d="M0 672v172h76v635h330q74 0 125 -8.5t91 -22.5t64.5 -47t40.5 -69t23.5 -100.5t10.5 -128t3 -165.5v-440q0 -291 -77 -394.5t-314 -103.5h-297v672h-76zM281 172h98q111 0 145.5 68.5t34.5 265.5v508q0 174 -36 233.5t-161 59.5h-81v-463h137v-172h-137v-500z" />
<glyph unicode="&#xd1;" horiz-adv-x="872" d="M76 0v1479h282l242 -1229h4v1229h193v-1479h-295l-242 1262h-4v-1262h-180zM135 1614q4 80 45 145q53 78 150 78q53 0 132 -38t99 -38q23 0 42.5 29t23.5 59h110q-4 -84 -51 -153.5t-143 -69.5q-53 0 -132 38t-100 38q-23 0 -42 -28.5t-23 -59.5h-111z" />
<glyph unicode="&#xd2;" horiz-adv-x="833" d="M70 354v748q0 389 346 389q190 0 269 -92t79 -275v-747q0 -389 -348 -389q-188 0 -267 92t-79 274zM172 1878h205l141 -297h-123zM274 342q0 -94 39 -144.5t103 -50.5q66 0 104.5 50.5t38.5 144.5v776q0 213 -143 213q-141 0 -142 -213v-776z" />
<glyph unicode="&#xd3;" horiz-adv-x="833" d="M70 354v748q0 389 346 389q190 0 269 -92t79 -275v-747q0 -389 -348 -389q-188 0 -267 92t-79 274zM274 342q0 -94 39 -144.5t103 -50.5q66 0 104.5 50.5t38.5 144.5v776q0 213 -143 213q-141 0 -142 -213v-776zM317 1581l142 297h205l-224 -297h-123z" />
<glyph unicode="&#xd4;" horiz-adv-x="833" d="M70 354v748q0 389 346 389q190 0 269 -92t79 -275v-747q0 -389 -348 -389q-188 0 -267 92t-79 274zM137 1581l201 297h160l200 -297h-147l-133 174l-133 -174h-148zM274 342q0 -94 39 -144.5t103 -50.5q66 0 104.5 50.5t38.5 144.5v776q0 213 -143 213q-141 0 -142 -213 v-776z" />
<glyph unicode="&#xd5;" horiz-adv-x="833" d="M70 354v748q0 389 346 389q190 0 269 -92t79 -275v-747q0 -389 -348 -389q-188 0 -267 92t-79 274zM117 1614q4 80 45 145q53 78 149 78q53 0 132 -38t100 -38q23 0 42 29t23 59h111q-4 -84 -51 -153.5t-144 -69.5q-53 0 -132 38t-99 38q-23 0 -42.5 -28.5t-23.5 -59.5 h-110zM274 342q0 -94 39 -144.5t103 -50.5q66 0 104.5 50.5t38.5 144.5v776q0 213 -143 213q-141 0 -142 -213v-776z" />
<glyph unicode="&#xd6;" horiz-adv-x="833" d="M70 354v748q0 389 346 389q190 0 269 -92t79 -275v-747q0 -389 -348 -389q-188 0 -267 92t-79 274zM180 1632v205h160v-205h-160zM274 342q0 -94 39 -144.5t103 -50.5q66 0 104.5 50.5t38.5 144.5v776q0 213 -143 213q-141 0 -142 -213v-776zM496 1632v205h159v-205h-159 z" />
<glyph unicode="&#xd7;" horiz-adv-x="1228" d="M145 162l357 356l-357 356l113 113l356 -356l357 356l112 -113l-356 -356l356 -356l-112 -113l-357 357l-356 -357z" />
<glyph unicode="&#xd8;" horiz-adv-x="833" d="M70 354v748q0 389 346 389q133 0 213 -49l49 131l76 -37l-58 -154q68 -82 68 -258v-747q0 -389 -348 -389q-145 0 -221 55l-41 -113l-76 37l51 137q-59 84 -59 250zM274 492h5l268 731q-6 45 -41 76.5t-90 31.5q-141 0 -142 -213v-626zM281 276q10 -57 43.5 -93t91.5 -36 q66 0 104.5 50.5t38.5 144.5v674h-4z" />
<glyph unicode="&#xd9;" horiz-adv-x="833" d="M70 334v1145h204v-1180q0 -78 33 -115t111 -37q76 0 108.5 37t32.5 115v1180h205v-1145q0 -346 -346 -346q-348 0 -348 346zM172 1878h205l141 -297h-123z" />
<glyph unicode="&#xda;" horiz-adv-x="833" d="M70 334v1145h204v-1180q0 -78 33 -115t111 -37q76 0 108.5 37t32.5 115v1180h205v-1145q0 -346 -346 -346q-348 0 -348 346zM317 1581l142 297h205l-224 -297h-123z" />
<glyph unicode="&#xdb;" horiz-adv-x="833" d="M70 334v1145h204v-1180q0 -78 33 -115t111 -37q76 0 108.5 37t32.5 115v1180h205v-1145q0 -346 -346 -346q-348 0 -348 346zM137 1581l201 297h160l200 -297h-147l-133 174l-133 -174h-148z" />
<glyph unicode="&#xdc;" horiz-adv-x="833" d="M70 334v1145h204v-1180q0 -78 33 -115t111 -37q76 0 108.5 37t32.5 115v1180h205v-1145q0 -346 -346 -346q-348 0 -348 346zM180 1632v205h160v-205h-160zM496 1632v205h159v-205h-159z" />
<glyph unicode="&#xdd;" horiz-adv-x="833" d="M31 1479h205l178 -623h4l205 623h180l-285 -873v-606h-205v606zM317 1581l142 297h205l-224 -297h-123z" />
<glyph unicode="&#xde;" horiz-adv-x="796" d="M76 0v1479h205v-246h133q207 0 269 -80t62 -338t-62 -338t-269 -80h-133v-397h-205zM281 569h106q104 0 129 39t25 207t-24.5 207t-129.5 39h-106v-492z" />
<glyph unicode="&#xdf;" horiz-adv-x="720" d="M70 0v1239q0 252 284 252q256 0 256 -213v-264q-31 -33 -42 -46.5t-25.5 -42t-14.5 -59.5q0 -14 2 -29.5t8.5 -34t11.5 -30.5t16.5 -35.5t16.5 -35t19 -39t19 -37.5q61 -125 75.5 -187.5t14.5 -200t-57.5 -193.5t-207.5 -56q-70 0 -124 10v123q72 -10 86 -10 q66 0 88 35.5t22 134.5q0 127 -90 307q-76 154 -88 223q-4 27 -4 53q0 109 82 195v170q0 61 -16.5 87.5t-55.5 26.5q-84 0 -84 -108v-1235h-192z" />
<glyph unicode="&#xe0;" d="M51 268q0 150 14.5 208.5t55.5 101.5q37 39 89 51t210 12v166q0 49 -17.5 73.5t-62.5 24.5q-82 0 -82 -86v-94h-192v92q0 223 274 223q135 0 203.5 -59t68.5 -190v-791h-180v106q-12 -12 -28.5 -32.5t-26.5 -30.5q-55 -55 -137 -55q-96 0 -142.5 55t-46.5 225zM96 1520 h205l141 -297h-123zM244 295q0 -111 14 -141.5t61.5 -30.5t74 32.5t26.5 86.5v264h-62q-68 0 -91 -44t-23 -167z" />
<glyph unicode="&#xe1;" d="M51 268q0 150 14.5 208.5t55.5 101.5q37 39 89 51t210 12v166q0 49 -17.5 73.5t-62.5 24.5q-82 0 -82 -86v-94h-192v92q0 223 274 223q135 0 203.5 -59t68.5 -190v-791h-180v106q-12 -12 -28.5 -32.5t-26.5 -30.5q-55 -55 -137 -55q-96 0 -142.5 55t-46.5 225zM242 1223 l141 297h205l-223 -297h-123zM244 295q0 -111 14 -141.5t61.5 -30.5t74 32.5t26.5 86.5v264h-62q-68 0 -91 -44t-23 -167z" />
<glyph unicode="&#xe2;" d="M51 268q0 150 14.5 208.5t55.5 101.5q37 39 89 51t210 12v166q0 49 -17.5 73.5t-62.5 24.5q-82 0 -82 -86v-94h-192v92q0 223 274 223q135 0 203.5 -59t68.5 -190v-791h-180v106q-12 -12 -28.5 -32.5t-26.5 -30.5q-55 -55 -137 -55q-96 0 -142.5 55t-46.5 225zM61 1223 l201 297h160l201 -297h-148l-133 174l-133 -174h-148zM244 295q0 -111 14 -141.5t61.5 -30.5t74 32.5t26.5 86.5v264h-62q-68 0 -91 -44t-23 -167z" />
<glyph unicode="&#xe3;" d="M41 1255q4 80 45 146q53 78 150 78q53 0 131.5 -38t99.5 -38q23 0 42 28.5t23 59.5h111q-4 -84 -51 -153.5t-143 -69.5q-53 0 -132 37.5t-100 37.5q-23 0 -42 -28.5t-23 -59.5h-111zM51 268q0 150 14.5 208.5t55.5 101.5q37 39 89 51t210 12v166q0 49 -17.5 73.5 t-62.5 24.5q-82 0 -82 -86v-94h-192v92q0 223 274 223q135 0 203.5 -59t68.5 -190v-791h-180v106q-12 -12 -28.5 -32.5t-26.5 -30.5q-55 -55 -137 -55q-96 0 -142.5 55t-46.5 225zM244 295q0 -111 14 -141.5t61.5 -30.5t74 32.5t26.5 86.5v264h-62q-68 0 -91 -44t-23 -167z " />
<glyph unicode="&#xe4;" d="M51 268q0 150 14.5 208.5t55.5 101.5q37 39 89 51t210 12v166q0 49 -17.5 73.5t-62.5 24.5q-82 0 -82 -86v-94h-192v92q0 223 274 223q135 0 203.5 -59t68.5 -190v-791h-180v106q-12 -12 -28.5 -32.5t-26.5 -30.5q-55 -55 -137 -55q-96 0 -142.5 55t-46.5 225zM104 1274 v205h160v-205h-160zM244 295q0 -111 14 -141.5t61.5 -30.5t74 32.5t26.5 86.5v264h-62q-68 0 -91 -44t-23 -167zM420 1274v205h160v-205h-160z" />
<glyph unicode="&#xe5;" d="M51 268q0 150 14.5 208.5t55.5 101.5q37 39 89 51t210 12v166q0 49 -17.5 73.5t-62.5 24.5q-82 0 -82 -86v-94h-192v92q0 223 274 223q135 0 203.5 -59t68.5 -190v-791h-180v106q-12 -12 -28.5 -32.5t-26.5 -30.5q-55 -55 -137 -55q-96 0 -142.5 55t-46.5 225z M158 1349.5q0 75.5 54 130t130 54.5t130 -54.5t54 -130t-54 -130t-130 -54.5t-130 54.5t-54 130zM244 295q0 -111 14 -141.5t61.5 -30.5t74 32.5t26.5 86.5v264h-62q-68 0 -91 -44t-23 -167zM252 1349.5q0 -36.5 26.5 -63t63.5 -26.5t63.5 26.5t26.5 63t-26.5 63.5t-63.5 27 t-63.5 -27t-26.5 -63.5z" />
<glyph unicode="&#xe6;" horiz-adv-x="985" d="M55 276q0 135 13.5 185.5t52.5 89.5q41 39 100.5 51t179.5 12v191q0 57 -15 78.5t-52 21.5q-74 0 -74 -110v-70h-192v80q0 111 62.5 173t170.5 62q80 0 133 -28.5t68 -65.5q55 94 192 94q236 0 236 -264v-297h-336v-250q0 -119 78 -118.5t78 129.5v75h180v-63 q0 -264 -248 -264q-141 0 -190 90q-31 -49 -71 -69.5t-120 -20.5q-141 0 -193.5 69t-52.5 219zM248 229q0 -70 15.5 -94t49.5 -24q49 0 68.5 25.5t19.5 99.5v243h-41q-66 0 -89 -27.5t-23 -101.5v-121zM594 614h156v148q0 84 -17.5 113.5t-64.5 29.5q-45 0 -59.5 -27.5 t-14.5 -97.5v-166z" />
<glyph unicode="&#xe7;" horiz-adv-x="606" d="M43 244v520q0 131 71.5 203.5t198.5 72.5q125 0 187.5 -55t62.5 -149v-154h-180v113q0 111 -73.5 110.5t-73.5 -121.5v-565q0 -96 73.5 -96t73.5 100v123h180v-156q0 -102 -64.5 -149t-162.5 -53l-21 -76l4 -4q12 4 56 4q59 0 99 -35t40 -94q0 -68 -56.5 -112t-142.5 -44 q-100 0 -143 35l16 64q53 -25 99 -25q49 0 70.5 21.5t21.5 50.5q0 33 -24.5 49t-53.5 16q-49 0 -90 -20l45 170q-213 37 -213 256z" />
<glyph unicode="&#xe8;" d="M61 244v520q0 131 73 203.5t206 72.5q127 0 204 -60t77 -196v-331h-367v-220q0 -70 22.5 -96t71.5 -26q92 0 92 133v94h181v-145q0 -88 -69 -146.5t-218 -58.5q-121 0 -197 61.5t-76 194.5zM96 1520h205l141 -297h-123zM254 588h186v200q0 70 -21.5 100t-70.5 30 q-51 0 -72.5 -28t-21.5 -85v-217z" />
<glyph unicode="&#xe9;" d="M61 244v520q0 131 73 203.5t206 72.5q127 0 204 -60t77 -196v-331h-367v-220q0 -70 22.5 -96t71.5 -26q92 0 92 133v94h181v-145q0 -88 -69 -146.5t-218 -58.5q-121 0 -197 61.5t-76 194.5zM242 1223l141 297h205l-223 -297h-123zM254 588h186v200q0 70 -21.5 100 t-70.5 30q-51 0 -72.5 -28t-21.5 -85v-217z" />
<glyph unicode="&#xea;" d="M61 244v520q0 131 73 203.5t206 72.5q127 0 204 -60t77 -196v-331h-367v-220q0 -70 22.5 -96t71.5 -26q92 0 92 133v94h181v-145q0 -88 -69 -146.5t-218 -58.5q-121 0 -197 61.5t-76 194.5zM61 1223l201 297h160l201 -297h-148l-133 174l-133 -174h-148zM254 588h186v200 q0 70 -21.5 100t-70.5 30q-51 0 -72.5 -28t-21.5 -85v-217z" />
<glyph unicode="&#xeb;" d="M61 244v520q0 131 73 203.5t206 72.5q127 0 204 -60t77 -196v-331h-367v-220q0 -70 22.5 -96t71.5 -26q92 0 92 133v94h181v-145q0 -88 -69 -146.5t-218 -58.5q-121 0 -197 61.5t-76 194.5zM104 1274v205h160v-205h-160zM254 588h186v200q0 70 -21.5 100t-70.5 30 q-51 0 -72.5 -28t-21.5 -85v-217zM420 1274v205h160v-205h-160z" />
<glyph unicode="&#xec;" horiz-adv-x="344" d="M-74 1520h205l141 -297h-122zM76 0v1028h192v-1028h-192z" />
<glyph unicode="&#xed;" horiz-adv-x="344" d="M72 1223l141 297h205l-223 -297h-123zM76 0v1028h192v-1028h-192z" />
<glyph unicode="&#xee;" horiz-adv-x="344" d="M-109 1223l201 297h160l201 -297h-148l-133 174l-133 -174h-148zM76 0v1028h192v-1028h-192z" />
<glyph unicode="&#xef;" horiz-adv-x="344" d="M-66 1274v205h160v-205h-160zM76 0v1028h192v-1028h-192zM250 1274v205h160v-205h-160z" />
<glyph unicode="&#xf0;" d="M68 244v520q0 129 69.5 202.5t192.5 73.5q33 0 70.5 -12t48.5 -29l4 5q-4 129 -60 223l-147 -72l-62 80l150 74q-63 70 -164 110l141 72q100 -41 162 -115l141 70l62 -80l-148 -72q86 -154 86 -479v-551q0 -131 -71.5 -203.5t-200.5 -72.5q-123 0 -198.5 61.5 t-75.5 194.5zM260 252q0 -129 82 -129q80 0 80 129v524q0 129 -80 129q-82 0 -82 -129v-524z" />
<glyph unicode="&#xf1;" d="M41 1255q4 80 45 146q53 78 150 78q53 0 131.5 -38t99.5 -38q23 0 42 28.5t23 59.5h111q-4 -84 -51 -153.5t-143 -69.5q-53 0 -132 37.5t-100 37.5q-23 0 -42 -28.5t-23 -59.5h-111zM70 0v1028h180v-86h4q29 47 74 72q45 27 104 26q80 0 130 -48t50 -154v-838h-192v801 q0 92 -74 92q-84 0 -84 -109v-784h-192z" />
<glyph unicode="&#xf2;" d="M68 244v520q0 131 71.5 203.5t200.5 72.5q123 0 198.5 -61t75.5 -195v-520q0 -131 -71.5 -203.5t-200.5 -72.5q-123 0 -198.5 61.5t-75.5 194.5zM96 1520h205l141 -297h-123zM260 252q0 -129 82 -129q80 0 80 129v524q0 129 -80 129q-82 0 -82 -129v-524z" />
<glyph unicode="&#xf3;" d="M68 244v520q0 131 71.5 203.5t200.5 72.5q123 0 198.5 -61t75.5 -195v-520q0 -131 -71.5 -203.5t-200.5 -72.5q-123 0 -198.5 61.5t-75.5 194.5zM242 1223l141 297h205l-223 -297h-123zM260 252q0 -129 82 -129q80 0 80 129v524q0 129 -80 129q-82 0 -82 -129v-524z" />
<glyph unicode="&#xf4;" d="M61 1223l201 297h160l201 -297h-148l-133 174l-133 -174h-148zM68 244v520q0 131 71.5 203.5t200.5 72.5q123 0 198.5 -61t75.5 -195v-520q0 -131 -71.5 -203.5t-200.5 -72.5q-123 0 -198.5 61.5t-75.5 194.5zM260 252q0 -129 82 -129q80 0 80 129v524q0 129 -80 129 q-82 0 -82 -129v-524z" />
<glyph unicode="&#xf5;" d="M41 1255q4 80 45 146q53 78 150 78q53 0 131.5 -38t99.5 -38q23 0 42 28.5t23 59.5h111q-4 -84 -51 -153.5t-143 -69.5q-53 0 -132 37.5t-100 37.5q-23 0 -42 -28.5t-23 -59.5h-111zM68 244v520q0 131 71.5 203.5t200.5 72.5q123 0 198.5 -61t75.5 -195v-520 q0 -131 -71.5 -203.5t-200.5 -72.5q-123 0 -198.5 61.5t-75.5 194.5zM260 252q0 -129 82 -129q80 0 80 129v524q0 129 -80 129q-82 0 -82 -129v-524z" />
<glyph unicode="&#xf6;" d="M68 244v520q0 131 71.5 203.5t200.5 72.5q123 0 198.5 -61t75.5 -195v-520q0 -131 -71.5 -203.5t-200.5 -72.5q-123 0 -198.5 61.5t-75.5 194.5zM104 1274v205h160v-205h-160zM260 252q0 -129 82 -129q80 0 80 129v524q0 129 -80 129q-82 0 -82 -129v-524zM420 1274v205 h160v-205h-160z" />
<glyph unicode="&#xf7;" horiz-adv-x="1228" d="M96 432v172h1037v-172h-1037zM471 94.5q0 59.5 42 101.5t101.5 42t101.5 -42t42 -101.5t-42 -101.5t-101.5 -42t-101.5 42t-42 101.5zM471 942q0 59 42 101t101.5 42t101.5 -42t42 -101t-42 -101t-101.5 -42t-101.5 42t-42 101z" />
<glyph unicode="&#xf8;" d="M61 -49l56 131q-49 55 -49 162v520q0 131 71.5 203.5t200.5 72.5q96 0 162 -36l55 131l64 -33l-62 -146q55 -61 55 -172v-520q0 -131 -71.5 -203.5t-200.5 -72.5q-100 0 -170 43l-47 -113zM260 244q4 -121 82 -121q80 0 80 129v377h-4zM260 426h4l158 381q-4 98 -80 98 q-82 0 -82 -129v-350z" />
<glyph unicode="&#xf9;" d="M70 190v838h192v-801q0 -92 74 -92q84 0 84 109v784h192v-1028h-180v86h-4q-29 -47 -74 -72q-45 -27 -104 -26q-80 0 -130 48t-50 154zM96 1520h205l141 -297h-123z" />
<glyph unicode="&#xfa;" d="M70 190v838h192v-801q0 -92 74 -92q84 0 84 109v784h192v-1028h-180v86h-4q-29 -47 -74 -72q-45 -27 -104 -26q-80 0 -130 48t-50 154zM242 1223l141 297h205l-223 -297h-123z" />
<glyph unicode="&#xfb;" d="M61 1223l201 297h160l201 -297h-148l-133 174l-133 -174h-148zM70 190v838h192v-801q0 -92 74 -92q84 0 84 109v784h192v-1028h-180v86h-4q-29 -47 -74 -72q-45 -27 -104 -26q-80 0 -130 48t-50 154z" />
<glyph unicode="&#xfc;" d="M70 190v838h192v-801q0 -92 74 -92q84 0 84 109v784h192v-1028h-180v86h-4q-29 -47 -74 -72q-45 -27 -104 -26q-80 0 -130 48t-50 154zM104 1274v205h160v-205h-160zM420 1274v205h160v-205h-160z" />
<glyph unicode="&#xfd;" d="M12 1028h205l127 -743h4l129 743h193l-334 -1401h-180l90 387zM242 1223l141 297h205l-223 -297h-123z" />
<glyph unicode="&#xfe;" d="M68 -373v1852h192v-566h4q47 127 170 127q84 0 132 -62.5t48 -174.5v-578q0 -113 -48 -175t-132 -62q-113 0 -174 69v-430h-192zM260 231q0 -53 22.5 -80.5t55.5 -27.5q41 0 62.5 31.5t21.5 115.5v484q0 139 -74 139q-88 0 -88 -168v-494z" />
<glyph unicode="&#xff;" d="M12 1028h205l127 -743h4l129 743h193l-334 -1401h-180l90 387zM104 1274v205h160v-205h-160zM420 1274v205h160v-205h-160z" />
<glyph unicode="&#x152;" horiz-adv-x="1175" d="M70 319v801q0 371 286 371q66 0 142 -6q16 0 68 -3t73 -3h485v-172h-352v-463h332v-172h-332v-500h352v-172h-485q-61 0 -141 -6q-12 0 -65.5 -3t-76.5 -3q-137 0 -211.5 87.5t-74.5 243.5zM274 338q0 -94 35 -136t127 -42q88 0 131 6v1147q-43 6 -114 6 q-100 0 -139.5 -55.5t-39.5 -221.5v-704z" />
<glyph unicode="&#x153;" horiz-adv-x="985" d="M51 217v567q0 117 61.5 186.5t182.5 69.5q156 0 203 -92q63 92 200 92q236 0 236 -264v-323h-336v-226q0 -117 78 -116.5t78 125.5v77h180v-61q0 -264 -248 -264q-123 0 -190 90q-55 -90 -207 -90q-109 0 -173.5 60t-64.5 169zM244 240q0 -129 82 -129q80 0 80 129v536 q0 129 -80 129q-82 0 -82 -129v-536zM598 588h156v174q0 84 -17.5 113.5t-64.5 29.5q-45 0 -59.5 -27.5t-14.5 -97.5v-192z" />
<glyph unicode="&#x178;" horiz-adv-x="833" d="M31 1479h205l178 -623h4l205 623h180l-285 -873v-606h-205v606zM180 1632v205h160v-205h-160zM496 1632v205h159v-205h-159z" />
<glyph unicode="&#x2c6;" horiz-adv-x="344" d="M-109 1223l201 297h160l201 -297h-148l-133 174l-133 -174h-148z" />
<glyph unicode="&#x2dc;" horiz-adv-x="344" d="M-129 1255q4 80 45 146q53 78 150 78q53 0 131.5 -38t99.5 -38q23 0 42 28.5t23 59.5h111q-4 -84 -51 -153.5t-143 -69.5q-53 0 -132 37.5t-100 37.5q-23 0 -42 -28.5t-23 -59.5h-111z" />
<glyph unicode="&#x2000;" horiz-adv-x="946" />
<glyph unicode="&#x2001;" horiz-adv-x="1892" />
<glyph unicode="&#x2002;" horiz-adv-x="946" />
<glyph unicode="&#x2003;" horiz-adv-x="1892" />
<glyph unicode="&#x2004;" horiz-adv-x="630" />
<glyph unicode="&#x2005;" horiz-adv-x="473" />
<glyph unicode="&#x2006;" horiz-adv-x="315" />
<glyph unicode="&#x2007;" horiz-adv-x="315" />
<glyph unicode="&#x2008;" horiz-adv-x="235" />
<glyph unicode="&#x2009;" horiz-adv-x="376" />
<glyph unicode="&#x200a;" horiz-adv-x="104" />
<glyph unicode="&#x2010;" horiz-adv-x="606" d="M55 438v160h496v-160h-496z" />
<glyph unicode="&#x2011;" horiz-adv-x="606" d="M55 438v160h496v-160h-496z" />
<glyph unicode="&#x2012;" horiz-adv-x="606" d="M55 438v160h496v-160h-496z" />
<glyph unicode="&#x2013;" horiz-adv-x="1024" d="M0 451v135h1024v-135h-1024z" />
<glyph unicode="&#x2014;" horiz-adv-x="2048" d="M0 451v135h2048v-135h-2048z" />
<glyph unicode="&#x2018;" horiz-adv-x="380" d="M59 1114l115 365h148l-46 -365h-217z" />
<glyph unicode="&#x2019;" horiz-adv-x="380" d="M59 1114l45 365h218l-115 -365h-148z" />
<glyph unicode="&#x201a;" horiz-adv-x="380" d="M59 -123l45 365h218l-115 -365h-148z" />
<glyph unicode="&#x201c;" horiz-adv-x="569" d="M20 1114l140 365h123l-52 -365h-211zM287 1114l114 365h148l-45 -365h-217z" />
<glyph unicode="&#x201d;" horiz-adv-x="569" d="M20 1114l52 365h211l-140 -365h-123zM287 1114l51 365h211l-139 -365h-123z" />
<glyph unicode="&#x201e;" horiz-adv-x="569" d="M20 -123l46 365h217l-115 -365h-148zM287 -123l45 365h217l-115 -365h-147z" />
<glyph unicode="&#x2022;" horiz-adv-x="1026" d="M143 739.5q0 153.5 107.5 262t261.5 108.5t262.5 -108.5t108.5 -262t-108.5 -261t-262.5 -107.5t-261.5 107.5t-107.5 261z" />
<glyph unicode="&#x2026;" horiz-adv-x="2048" d="M221 0v242h242v-242h-242zM903 0v242h242v-242h-242zM1585 0v242h242v-242h-242z" />
<glyph unicode="&#x202f;" horiz-adv-x="376" />
<glyph unicode="&#x2039;" horiz-adv-x="417" d="M53 518l164 406h148l-119 -406l119 -405h-148z" />
<glyph unicode="&#x203a;" horiz-adv-x="417" d="M53 113l119 405l-119 406h148l164 -406l-164 -405h-148z" />
<glyph unicode="&#x205f;" horiz-adv-x="473" />
<glyph unicode="&#x20ac;" horiz-adv-x="761" d="M20 532l33 136h119v176h-152l33 135h119v147q0 68 2 104t19.5 93t54.5 94q74 74 239 74q82 0 152 -21q59 -18 102 -53l-41 -160q-33 39 -86 64q-51 23 -112 22q-78 0 -111 -45q-27 -37 -26 -139v-180h278l-33 -135h-245v-176h206l-32 -136h-174v-249q0 -76 30 -111 q33 -37 107 -37q68 0 123 31q61 33 96 82v-189q-43 -31 -90 -49q-63 -23 -137 -22q-172 0 -244 69q-78 76 -78 295v180h-152z" />
<glyph unicode="&#x2122;" horiz-adv-x="2027" d="M131 1343v136h684v-136h-256v-712h-172v712h-256zM954 631v848h240l231 -607l230 607h241v-848h-159v676h-4l-252 -676h-111l-252 676h-4v-676h-160z" />
<glyph unicode="&#xe000;" horiz-adv-x="1030" d="M0 1030h1030v-1030h-1030v1030z" />
<glyph unicode="&#xfb01;" horiz-adv-x="720" d="M10 893v135h96v242q0 115 49.5 162t196.5 47h66v-148h-35q-84 0 -84 -88v-215h119v-135h-119v-893h-193v893h-96zM453 0v1028h192v-1028h-192zM453 1274v205h192v-205h-192z" />
<glyph unicode="&#xfb02;" horiz-adv-x="720" d="M10 893v135h96v242q0 115 49.5 162t196.5 47h66v-148h-35q-84 0 -84 -88v-215h119v-135h-119v-893h-193v893h-96zM453 0v1479h192v-1479h-192z" />
<glyph unicode="&#xfb03;" horiz-adv-x="1179" d="M912 0v1028h192v-1028h-192zM912 1274v205h192v-205h-192zM428 893v135h96v242q0 115 49.5 162t196.5 47h66v-148h-35q-84 0 -84 -88v-215h119v-135h-119v-893h-193v893h-96zM10 893v135h96v242q0 115 49.5 162t196.5 47h66v-148h-35q-84 0 -84 -88v-215h119v-135h-119 v-893h-193v893h-96z" />
<glyph unicode="&#xfb04;" horiz-adv-x="1179" d="M912 0v1479h192v-1479h-192zM428 893v135h96v242q0 115 49.5 162t196.5 47h66v-148h-35q-84 0 -84 -88v-215h119v-135h-119v-893h-193v893h-96zM10 893v135h96v242q0 115 49.5 162t196.5 47h66v-148h-35q-84 0 -84 -88v-215h119v-135h-119v-893h-193v893h-96z" />
</font>
</defs>
</svg>
