<?xml version="1.0" standalone="no"?><!DOCTYPE svg PUBLIC "-//W3C//DTD SVG 1.1//EN" "http://www.w3.org/Graphics/SVG/1.1/DTD/svg11.dtd" ><svg version="1.1" xmlns="http://www.w3.org/2000/svg"><defs><font horiz-adv-x="0" id="font"><font-face ascent="854" bbox="-222 -187 1007 863" cap-height="639" descent="-146" font-family="FC Zizou Sans Web" font-stretch="normal" font-style="normal" font-weight="500" units-per-em="1000" x-height="485" /><missing-glyph horiz-adv-x="496" /><glyph glyph-name=".null" horiz-adv-x="0" /><glyph d="M436 157H176L127 0H6L215 639H413L620 0H486ZM207 256H405L306 571Z" glyph-name="A" horiz-adv-x="626" unicode="A" /><glyph d="M392 163H187L123 0H3L257 639H787V532H521V363H767V266H521V95H787V0H392ZM226 262H392V542H336Z" glyph-name="AE" horiz-adv-x="838" unicode="&#198;" /><glyph d="M436 157H176L127 0H6L215 639H413L620 0H486ZM207 256H405L306 571ZM303 800H460L346 685H265Z" glyph-name="Aacute" horiz-adv-x="626" unicode="&#193;" /><glyph d="M436 157H176L127 0H6L215 639H413L620 0H486ZM207 256H405L306 571ZM244 800H382L462 685H381L313 733L245 685H164Z" glyph-name="Acircumflex" horiz-adv-x="626" unicode="&#194;" /><glyph d="M436 157H176L127 0H6L215 639H413L620 0H486ZM207 256H405L306 571ZM213 679Q185 679 165 698.5Q145 718 145 745Q145 773 165 792.5Q185 812 213 812Q241 812 261.5 792.5Q282 773 282 745Q282 718 261.5 698.5Q241 679 213 679ZM412 679Q385 679 364.5 698.5Q344 718 344 745Q344 773 364.5 792.5Q385 812 412 812Q441 812 461 792.5Q481 773 481 745Q481 718 461 698.5Q441 679 412 679Z" glyph-name="Adieresis" horiz-adv-x="626" unicode="&#196;" /><glyph d="M436 157H176L127 0H6L215 639H413L620 0H486ZM207 256H405L306 571ZM166 800H323L361 685H280Z" glyph-name="Agrave" horiz-adv-x="626" unicode="&#192;" /><glyph d="M436 157H176L127 0H6L215 639H413L620 0H486ZM207 256H405L306 571ZM270 763Q270 741 282.5 728.5Q295 716 313 716Q333 716 345.5 728.5Q358 741 358 763Q358 784 345.5 797.5Q333 811 313 811Q295 811 282.5 797.5Q270 784 270 763ZM213 763Q213 784 220.5 802Q228 820 241.5 833.5Q255 847 273.5 855Q292 863 313 863Q334 863 353 855Q372 847 385.5 833.5Q399 820 407 802Q415 784 415 763Q415 742 407 724Q399 706 385.5 692.5Q372 679 353 671Q334 663 313 663Q292 663 273.5 671Q255 679 241.5 692.5Q228 706 220.5 724Q213 742 213 763Z" glyph-name="Aring" horiz-adv-x="626" unicode="&#197;" /><glyph d="M436 157H176L127 0H6L215 639H413L620 0H486ZM207 256H405L306 571ZM172 681Q165 705 166.5 728Q168 751 177 769.5Q186 788 203.5 799Q221 810 246 810Q268 810 286.5 804.5Q305 799 320.5 793Q336 787 349 781.5Q362 776 373 776Q388 776 392.5 785Q397 794 399 814H453Q460 790 459 767Q458 744 449 725.5Q440 707 423 696Q406 685 382 685Q362 685 344 690Q326 695 310 701.5Q294 708 279.5 713Q265 718 252 718Q238 718 233 709.5Q228 701 226 681H172Z" glyph-name="Atilde" horiz-adv-x="626" unicode="&#195;" /><glyph d="M66 639H299Q402 639 459.5 598Q517 557 517 471Q517 402 480.5 365.5Q444 329 366 320V317Q451 311 496 277Q541 243 541 177Q541 136 529.5 103.5Q518 71 490 48Q462 25 414.5 12.5Q367 0 295 0H66ZM287 358Q344 358 369 381.5Q394 405 394 450Q394 539 294 539H195V358ZM289 92Q327 92 351.5 97.5Q376 103 390 114Q404 125 409 142Q414 159 414 182Q414 230 385 250.5Q356 271 287 271H195V92Z" glyph-name="B" horiz-adv-x="575" unicode="B" /><glyph d="M336 -15Q267 -15 210.5 7.5Q154 30 113.5 73Q73 116 51 179.5Q29 243 29 324V326Q29 401 49 461Q69 521 107.5 564Q146 607 201 630Q256 653 326 653Q406 653 452 632Q498 611 521 587V492Q492 513 448 529Q404 545 347 545Q255 545 209.5 496Q164 447 164 354V307Q164 193 214.5 139.5Q265 86 357 86Q379 86 403 90.5Q427 95 449.5 102.5Q472 110 491 120.5Q510 131 524 143V55Q501 29 454.5 7Q408 -15 336 -15Z" glyph-name="C" horiz-adv-x="558" unicode="C" /><glyph d="M302 -187Q273 -187 254.5 -180.5Q236 -174 228 -166V-122Q236 -125 248 -128Q260 -131 277 -131Q317 -131 317 -107Q317 -95 304 -87Q291 -79 253 -78V-6Q150 18 89.5 102Q29 186 29 324V326Q29 401 49 461Q69 521 107.5 564Q146 607 201 630Q256 653 326 653Q406 653 452 632Q498 611 521 587V492Q492 513 448 529Q404 545 347 545Q255 545 209.5 496Q164 447 164 354V307Q164 193 214.5 139.5Q265 86 357 86Q379 86 403 90.5Q427 95 449.5 102.5Q472 110 491 120.5Q510 131 524 143V55Q501 29 454.5 7Q408 -15 336 -15Q331 -15 326 -15Q321 -15 316 -14V-38Q361 -42 381 -61Q401 -80 401 -112Q401 -150 374 -168.5Q347 -187 302 -187Z" glyph-name="Ccedilla" horiz-adv-x="558" unicode="&#199;" /><glyph d="M66 639H315Q455 639 527.5 559.5Q600 480 600 328V326Q600 159 520.5 79.5Q441 0 296 0H66ZM285 95Q336 95 371.5 109.5Q407 124 429 151Q451 178 461 217.5Q471 257 471 308V355Q471 397 463 430Q455 463 436 486.5Q417 510 385 522Q353 534 305 534H195V95Z" glyph-name="D" horiz-adv-x="631" unicode="D" /><glyph glyph-name="DEL" horiz-adv-x="500" /><glyph d="M66 639H486V532H195V363H466V266H195V95H486V0H66Z" glyph-name="E" horiz-adv-x="537" unicode="E" /><glyph d="M271 800H428L314 685H233ZM66 639H486V532H195V363H466V266H195V95H486V0H66Z" glyph-name="Eacute" horiz-adv-x="537" unicode="&#201;" /><glyph d="M212 800H350L430 685H349L281 733L213 685H132ZM66 639H486V532H195V363H466V266H195V95H486V0H66Z" glyph-name="Ecircumflex" horiz-adv-x="537" unicode="&#202;" /><glyph d="M66 639H486V532H195V363H466V266H195V95H486V0H66ZM182 679Q154 679 134 698.5Q114 718 114 745Q114 773 134 792.5Q154 812 182 812Q210 812 230.5 792.5Q251 773 251 745Q251 718 230.5 698.5Q210 679 182 679ZM381 679Q354 679 333.5 698.5Q313 718 313 745Q313 773 333.5 792.5Q354 812 381 812Q410 812 430 792.5Q450 773 450 745Q450 718 430 698.5Q410 679 381 679Z" glyph-name="Edieresis" horiz-adv-x="537" unicode="&#203;" /><glyph d="M134 800H291L329 685H248ZM66 639H486V532H195V363H466V266H195V95H486V0H66Z" glyph-name="Egrave" horiz-adv-x="537" unicode="&#200;" /><glyph d="M20 364H79V639H328Q468 639 540.5 559.5Q613 480 613 328V326Q613 159 533.5 79.5Q454 0 309 0H79V271H20ZM298 95Q349 95 384.5 109.5Q420 124 442 151Q464 178 474 217.5Q484 257 484 308V355Q484 397 476 430Q468 463 449 486.5Q430 510 398 522Q366 534 318 534H205V364H353V271H205V95Z" glyph-name="Eth" horiz-adv-x="644" unicode="&#208;" /><glyph d="M207 350V299H392V228H210Q219 155 257 120Q295 85 367 85Q412 85 446 98Q480 111 506 134V48Q484 22 445.5 3.5Q407 -15 341 -15Q237 -15 167 46Q97 107 81 228H19V299H77V350H19V421H82Q90 474 112 517Q134 560 167 590Q200 620 243 636.5Q286 653 337 653Q403 653 442 636Q481 619 502 594V503Q476 523 443.5 535Q411 547 360 547Q291 547 254.5 514Q218 481 209 421H392V350Z" glyph-name="Euro" horiz-adv-x="536" unicode="&#8364;" /><glyph d="M66 639H487V532H195V340H465V239H195V0H66Z" glyph-name="F" horiz-adv-x="529" unicode="F" /><glyph d="M334 -15Q266 -15 210 7.5Q154 30 114.5 73Q75 116 53 179Q31 242 31 323V325Q31 400 53 460.5Q75 521 115.5 563.5Q156 606 213 629.5Q270 653 341 653Q414 653 460.5 634Q507 615 533 591V497Q507 514 461.5 529Q416 544 358 544Q267 544 216 492.5Q165 441 165 348V308Q165 192 211 138.5Q257 85 345 85Q368 85 390 88.5Q412 92 433 97V319H559V69Q527 35 469.5 10Q412 -15 334 -15Z" glyph-name="G" horiz-adv-x="608" unicode="G" /><glyph d="M66 639H195V377H464V639H594V0H464V273H195V0H66Z" glyph-name="H" horiz-adv-x="660" unicode="H" /><glyph d="M70 639H199V0H70Z" glyph-name="I" horiz-adv-x="269" unicode="I" /><glyph d="M70 639H199V0H70ZM125 800H282L168 685H87Z" glyph-name="Iacute" horiz-adv-x="269" unicode="&#205;" /><glyph d="M70 639H199V0H70ZM66 800H204L284 685H203L135 733L67 685H-14Z" glyph-name="Icircumflex" horiz-adv-x="269" unicode="&#206;" /><glyph d="M70 639H199V0H70ZM36 679Q8 679 -12 698.5Q-32 718 -32 745Q-32 773 -12 792.5Q8 812 36 812Q64 812 84.5 792.5Q105 773 105 745Q105 718 84.5 698.5Q64 679 36 679ZM235 679Q208 679 187.5 698.5Q167 718 167 745Q167 773 187.5 792.5Q208 812 235 812Q264 812 284 792.5Q304 773 304 745Q304 718 284 698.5Q264 679 235 679Z" glyph-name="Idieresis" horiz-adv-x="269" unicode="&#207;" /><glyph d="M70 639H199V0H70ZM-12 800H145L183 685H102Z" glyph-name="Igrave" horiz-adv-x="269" unicode="&#204;" /><glyph d="M139 -10Q93 -10 64 0Q35 10 20 23V106Q35 101 56.5 96.5Q78 92 108 92Q192 92 192 181V639H321V178Q321 91 277.5 40.5Q234 -10 139 -10Z" glyph-name="J" horiz-adv-x="380" unicode="J" /><glyph d="M195 345 441 639H580L322 341L585 0H434L195 319V0H66V639H195Z" glyph-name="K" horiz-adv-x="596" unicode="K" /><glyph d="M66 639H195V101H475V0H66Z" glyph-name="L" horiz-adv-x="504" unicode="L" /><glyph d="M80 196 8 159V257L80 294V639H209V360L401 459V361L209 262V101H489V0H80Z" glyph-name="Lslash" horiz-adv-x="518" unicode="&#321;" /><glyph d="M552 639H748V0H619V528L461 0H340L183 522V0H66V639H259L405 146Z" glyph-name="M" horiz-adv-x="814" unicode="M" /><glyph d="M66 639H253L488 146V639H601V0H432L180 520V0H66Z" glyph-name="N" horiz-adv-x="667" unicode="N" /><glyph d="M211 681Q204 705 205.5 728Q207 751 216 769.5Q225 788 242.5 799Q260 810 285 810Q307 810 325.5 804.5Q344 799 359.5 793Q375 787 388 781.5Q401 776 412 776Q427 776 431.5 785Q436 794 438 814H492Q499 790 498 767Q497 744 488 725.5Q479 707 462 696Q445 685 421 685Q401 685 383 690Q365 695 349 701.5Q333 708 318.5 713Q304 718 291 718Q277 718 272 709.5Q267 701 265 681H211ZM66 639H253L488 146V639H601V0H432L180 520V0H66Z" glyph-name="Ntilde" horiz-adv-x="667" unicode="&#209;" /><glyph d="M330 -15Q266 -15 211 6Q156 27 116 69Q76 111 53.5 174Q31 237 31 321V323Q31 398 50.5 459Q70 520 108.5 563Q147 606 202.5 629.5Q258 653 330 653Q402 653 457.5 629.5Q513 606 551 563Q589 520 608.5 459Q628 398 628 323V321Q628 237 606 174Q584 111 544 69Q504 27 449.5 6Q395 -15 330 -15ZM330 83Q414 83 454.5 135Q495 187 495 303V352Q495 397 486 433.5Q477 470 457 496Q437 522 405.5 536Q374 550 330 550Q286 550 254.5 536Q223 522 203 496Q183 470 174 433.5Q165 397 165 352V303Q165 187 205.5 135Q246 83 330 83Z" glyph-name="O" horiz-adv-x="660" unicode="O" /><glyph d="M331 0Q186 0 108.5 79.5Q31 159 31 326V328Q31 480 104 559.5Q177 639 317 639H795V532H532V363H775V266H532V95H795V0ZM161 308Q161 257 170 217.5Q179 178 200 150.5Q221 123 256 108.5Q291 94 342 94H402V533H327Q279 533 247 521Q215 509 196 486Q177 463 169 430Q161 397 161 355Z" glyph-name="OE" horiz-adv-x="846" unicode="&#338;" /><glyph d="M319 800H476L362 685H281ZM330 -15Q266 -15 211 6Q156 27 116 69Q76 111 53.5 174Q31 237 31 321V323Q31 398 50.5 459Q70 520 108.5 563Q147 606 202.5 629.5Q258 653 330 653Q402 653 457.5 629.5Q513 606 551 563Q589 520 608.5 459Q628 398 628 323V321Q628 237 606 174Q584 111 544 69Q504 27 449.5 6Q395 -15 330 -15ZM330 83Q414 83 454.5 135Q495 187 495 303V352Q495 397 486 433.5Q477 470 457 496Q437 522 405.5 536Q374 550 330 550Q286 550 254.5 536Q223 522 203 496Q183 470 174 433.5Q165 397 165 352V303Q165 187 205.5 135Q246 83 330 83Z" glyph-name="Oacute" horiz-adv-x="660" unicode="&#211;" /><glyph d="M260 800H398L478 685H397L329 733L261 685H180ZM330 -15Q266 -15 211 6Q156 27 116 69Q76 111 53.5 174Q31 237 31 321V323Q31 398 50.5 459Q70 520 108.5 563Q147 606 202.5 629.5Q258 653 330 653Q402 653 457.5 629.5Q513 606 551 563Q589 520 608.5 459Q628 398 628 323V321Q628 237 606 174Q584 111 544 69Q504 27 449.5 6Q395 -15 330 -15ZM330 83Q414 83 454.5 135Q495 187 495 303V352Q495 397 486 433.5Q477 470 457 496Q437 522 405.5 536Q374 550 330 550Q286 550 254.5 536Q223 522 203 496Q183 470 174 433.5Q165 397 165 352V303Q165 187 205.5 135Q246 83 330 83Z" glyph-name="Ocircumflex" horiz-adv-x="660" unicode="&#212;" /><glyph d="M229 679Q201 679 181 698.5Q161 718 161 745Q161 773 181 792.5Q201 812 229 812Q257 812 277.5 792.5Q298 773 298 745Q298 718 277.5 698.5Q257 679 229 679ZM428 679Q401 679 380.5 698.5Q360 718 360 745Q360 773 380.5 792.5Q401 812 428 812Q457 812 477 792.5Q497 773 497 745Q497 718 477 698.5Q457 679 428 679ZM330 -15Q266 -15 211 6Q156 27 116 69Q76 111 53.5 174Q31 237 31 321V323Q31 398 50.5 459Q70 520 108.5 563Q147 606 202.5 629.5Q258 653 330 653Q402 653 457.5 629.5Q513 606 551 563Q589 520 608.5 459Q628 398 628 323V321Q628 237 606 174Q584 111 544 69Q504 27 449.5 6Q395 -15 330 -15ZM330 83Q414 83 454.5 135Q495 187 495 303V352Q495 397 486 433.5Q477 470 457 496Q437 522 405.5 536Q374 550 330 550Q286 550 254.5 536Q223 522 203 496Q183 470 174 433.5Q165 397 165 352V303Q165 187 205.5 135Q246 83 330 83Z" glyph-name="Odieresis" horiz-adv-x="660" unicode="&#214;" /><glyph d="M182 800H339L377 685H296ZM330 -15Q266 -15 211 6Q156 27 116 69Q76 111 53.5 174Q31 237 31 321V323Q31 398 50.5 459Q70 520 108.5 563Q147 606 202.5 629.5Q258 653 330 653Q402 653 457.5 629.5Q513 606 551 563Q589 520 608.5 459Q628 398 628 323V321Q628 237 606 174Q584 111 544 69Q504 27 449.5 6Q395 -15 330 -15ZM330 83Q414 83 454.5 135Q495 187 495 303V352Q495 397 486 433.5Q477 470 457 496Q437 522 405.5 536Q374 550 330 550Q286 550 254.5 536Q223 522 203 496Q183 470 174 433.5Q165 397 165 352V303Q165 187 205.5 135Q246 83 330 83Z" glyph-name="Ograve" horiz-adv-x="660" unicode="&#210;" /><glyph d="M554 559Q628 470 628 323V321Q628 237 606 174Q584 111 544 69Q504 27 449.5 6Q395 -15 330 -15Q279 -15 233.5 -1.5Q188 12 151 38L107 -19H22L102 85Q68 127 49.5 185.5Q31 244 31 321V323Q31 398 50.5 459Q70 520 108.5 563Q147 606 202.5 629.5Q258 653 330 653Q434 653 504 604L544 656H629ZM330 83Q414 83 455.5 135Q497 187 497 303V352Q497 421 481 465L212 117Q232 98 261 90.5Q290 83 330 83ZM163 303Q163 225 176 180L440 522Q403 550 330 550Q286 550 254 536Q222 522 202 496Q182 470 172.5 433.5Q163 397 163 352Z" glyph-name="Oslash" horiz-adv-x="660" unicode="&#216;" /><glyph d="M188 681Q181 705 182.5 728Q184 751 193 769.5Q202 788 219.5 799Q237 810 262 810Q284 810 302.5 804.5Q321 799 336.5 793Q352 787 365 781.5Q378 776 389 776Q404 776 408.5 785Q413 794 415 814H469Q476 790 475 767Q474 744 465 725.5Q456 707 439 696Q422 685 398 685Q378 685 360 690Q342 695 326 701.5Q310 708 295.5 713Q281 718 268 718Q254 718 249 709.5Q244 701 242 681H188ZM330 -15Q266 -15 211 6Q156 27 116 69Q76 111 53.5 174Q31 237 31 321V323Q31 398 50.5 459Q70 520 108.5 563Q147 606 202.5 629.5Q258 653 330 653Q402 653 457.5 629.5Q513 606 551 563Q589 520 608.5 459Q628 398 628 323V321Q628 237 606 174Q584 111 544 69Q504 27 449.5 6Q395 -15 330 -15ZM330 83Q414 83 454.5 135Q495 187 495 303V352Q495 397 486 433.5Q477 470 457 496Q437 522 405.5 536Q374 550 330 550Q286 550 254.5 536Q223 522 203 496Q183 470 174 433.5Q165 397 165 352V303Q165 187 205.5 135Q246 83 330 83Z" glyph-name="Otilde" horiz-adv-x="660" unicode="&#213;" /><glyph d="M66 639H306Q424 639 480 583.5Q536 528 536 426Q536 323 477 268Q418 213 297 213H195V0H66ZM283 308Q354 308 381.5 338.5Q409 369 409 424Q409 478 384 507.5Q359 537 295 537H195V308Z" glyph-name="P" horiz-adv-x="562" unicode="P" /><glyph d="M330 -15Q266 -15 211 6Q156 27 116 69Q76 111 53.5 174Q31 237 31 321V323Q31 398 50.5 459Q70 520 108.5 563Q147 606 202.5 629.5Q258 653 330 653Q402 653 457.5 629.5Q513 606 551 563Q589 520 608.5 459Q628 398 628 323V321Q628 227 601 160.5Q574 94 526 52L624 -81H494L434 0Q386 -15 330 -15ZM330 81Q352 81 372 84L285 204H414L459 142Q495 196 495 303V352Q495 397 486 433.5Q477 470 457 496Q437 522 405.5 536Q374 550 330 550Q286 550 254.5 536Q223 522 203 496Q183 470 174 433.5Q165 397 165 352V303Q165 187 205.5 134Q246 81 330 81Z" glyph-name="Q" horiz-adv-x="660" unicode="Q" /><glyph d="M66 639H304Q416 639 474.5 590.5Q533 542 533 451Q533 370 486.5 324.5Q440 279 354 271L565 0H416L195 286V0H66ZM288 337Q353 337 378 362Q403 387 403 440Q403 491 378 514.5Q353 538 293 538H195V337Z" glyph-name="R" horiz-adv-x="577" unicode="R" /><glyph d="M245 -14Q166 -14 113.5 6Q61 26 33 53V149Q64 125 115 104.5Q166 84 231 84Q291 84 323.5 105Q356 126 356 176Q356 199 349 213Q342 227 320 238Q304 247 278 253.5Q252 260 222.5 266.5Q193 273 163.5 281Q134 289 112 301Q70 324 51.5 362.5Q33 401 33 458Q33 509 52 546Q71 583 102.5 606.5Q134 630 175.5 641Q217 652 261 652Q326 652 371 636.5Q416 621 442 597V500Q430 508 411 516.5Q392 525 369 531.5Q346 538 320 542Q294 546 268 546Q244 546 222.5 543Q201 540 185.5 531.5Q170 523 160.5 507Q151 491 151 465Q151 444 159.5 428.5Q168 413 191 402Q213 391 241.5 385Q270 379 300 373Q330 367 359 359Q388 351 410 336Q448 311 464.5 275.5Q481 240 481 187Q481 135 463 97Q445 59 413 34.5Q381 10 338 -2Q295 -14 245 -14Z" glyph-name="S" horiz-adv-x="511" unicode="S" /><glyph d="M100 800H181L249 752L317 800H398L318 685H180ZM245 -14Q166 -14 113.5 6Q61 26 33 53V149Q64 125 115 104.5Q166 84 231 84Q291 84 323.5 105Q356 126 356 176Q356 199 349 213Q342 227 320 238Q304 247 278 253.5Q252 260 222.5 266.5Q193 273 163.5 281Q134 289 112 301Q70 324 51.5 362.5Q33 401 33 458Q33 509 52 546Q71 583 102.5 606.5Q134 630 175.5 641Q217 652 261 652Q326 652 371 636.5Q416 621 442 597V500Q430 508 411 516.5Q392 525 369 531.5Q346 538 320 542Q294 546 268 546Q244 546 222.5 543Q201 540 185.5 531.5Q170 523 160.5 507Q151 491 151 465Q151 444 159.5 428.5Q168 413 191 402Q213 391 241.5 385Q270 379 300 373Q330 367 359 359Q388 351 410 336Q448 311 464.5 275.5Q481 240 481 187Q481 135 463 97Q445 59 413 34.5Q381 10 338 -2Q295 -14 245 -14Z" glyph-name="Scaron" horiz-adv-x="511" unicode="&#352;" /><glyph d="M218 532H23V639H543V532H347V0H218Z" glyph-name="T" horiz-adv-x="566" unicode="T" /><glyph d="M66 639H195V524H314Q423 524 479.5 472.5Q536 421 536 324Q536 227 476 176.5Q416 126 305 126H195V0H66ZM287 219Q356 219 382.5 246.5Q409 274 409 323Q409 370 385 396Q361 422 299 422H195V219Z" glyph-name="Thorn" horiz-adv-x="565" unicode="&#222;" /><glyph d="M59 639H188V238Q188 155 220.5 120Q253 85 328 85Q403 85 435 119.5Q467 154 467 237V639H596V262Q596 185 577 132Q558 79 522.5 46.5Q487 14 437.5 -0.5Q388 -15 328 -15Q268 -15 218.5 -0.5Q169 14 133.5 47Q98 80 78.5 133Q59 186 59 263Z" glyph-name="U" horiz-adv-x="655" unicode="U" /><glyph d="M317 800H474L360 685H279ZM59 639H188V238Q188 155 220.5 120Q253 85 328 85Q403 85 435 119.5Q467 154 467 237V639H596V262Q596 185 577 132Q558 79 522.5 46.5Q487 14 437.5 -0.5Q388 -15 328 -15Q268 -15 218.5 -0.5Q169 14 133.5 47Q98 80 78.5 133Q59 186 59 263Z" glyph-name="Uacute" horiz-adv-x="655" unicode="&#218;" /><glyph d="M258 800H396L476 685H395L327 733L259 685H178ZM59 639H188V238Q188 155 220.5 120Q253 85 328 85Q403 85 435 119.5Q467 154 467 237V639H596V262Q596 185 577 132Q558 79 522.5 46.5Q487 14 437.5 -0.5Q388 -15 328 -15Q268 -15 218.5 -0.5Q169 14 133.5 47Q98 80 78.5 133Q59 186 59 263Z" glyph-name="Ucircumflex" horiz-adv-x="655" unicode="&#219;" /><glyph d="M59 639H188V238Q188 155 220.5 120Q253 85 328 85Q403 85 435 119.5Q467 154 467 237V639H596V262Q596 185 577 132Q558 79 522.5 46.5Q487 14 437.5 -0.5Q388 -15 328 -15Q268 -15 218.5 -0.5Q169 14 133.5 47Q98 80 78.5 133Q59 186 59 263ZM227 679Q199 679 179 698.5Q159 718 159 745Q159 773 179 792.5Q199 812 227 812Q255 812 275.5 792.5Q296 773 296 745Q296 718 275.5 698.5Q255 679 227 679ZM426 679Q399 679 378.5 698.5Q358 718 358 745Q358 773 378.5 792.5Q399 812 426 812Q455 812 475 792.5Q495 773 495 745Q495 718 475 698.5Q455 679 426 679Z" glyph-name="Udieresis" horiz-adv-x="655" unicode="&#220;" /><glyph d="M180 800H337L375 685H294ZM59 639H188V238Q188 155 220.5 120Q253 85 328 85Q403 85 435 119.5Q467 154 467 237V639H596V262Q596 185 577 132Q558 79 522.5 46.5Q487 14 437.5 -0.5Q388 -15 328 -15Q268 -15 218.5 -0.5Q169 14 133.5 47Q98 80 78.5 133Q59 186 59 263Z" glyph-name="Ugrave" horiz-adv-x="655" unicode="&#217;" /><glyph d="M490 639H613L399 0H219L6 639H142L315 96Z" glyph-name="V" horiz-adv-x="618" unicode="V" /><glyph d="M758 639H879L735 0H573L451 508L329 0H164L20 639H151L258 124L385 639H522L650 124Z" glyph-name="W" horiz-adv-x="899" unicode="W" /><glyph d="M213 332 27 639H170L308 405L443 639H573L391 336L591 0H448L297 258L145 0H13Z" glyph-name="X" horiz-adv-x="605" unicode="X" /><glyph d="M217 235 3 639H142L288 352L432 639H560L346 236V0H217Z" glyph-name="Y" horiz-adv-x="563" unicode="Y" /><glyph d="M217 235 3 639H142L288 352L432 639H560L346 236V0H217ZM277 800H434L320 685H239Z" glyph-name="Yacute" horiz-adv-x="563" unicode="&#221;" /><glyph d="M217 235 3 639H142L288 352L432 639H560L346 236V0H217ZM187 679Q159 679 139 698.5Q119 718 119 745Q119 773 139 792.5Q159 812 187 812Q215 812 235.5 792.5Q256 773 256 745Q256 718 235.5 698.5Q215 679 187 679ZM386 679Q359 679 338.5 698.5Q318 718 318 745Q318 773 338.5 792.5Q359 812 386 812Q415 812 435 792.5Q455 773 455 745Q455 718 435 698.5Q415 679 386 679Z" glyph-name="Ydieresis" horiz-adv-x="563" unicode="&#376;" /><glyph d="M513 639V512L155 95H511V0H32V122L381 534H55V639Z" glyph-name="Z" horiz-adv-x="548" unicode="Z" /><glyph d="M136 800H217L285 752L353 800H434L354 685H216ZM513 639V512L155 95H511V0H32V122L381 534H55V639Z" glyph-name="Zcaron" horiz-adv-x="548" unicode="&#381;" /><glyph d="M165 -13Q102 -13 63 22.5Q24 58 24 118V119Q24 158 40 183Q56 208 82.5 223.5Q109 239 143.5 248.5Q178 258 216 267Q269 280 290 292Q311 304 311 329V332Q311 358 289.5 375.5Q268 393 212 393Q185 393 160.5 388Q136 383 115.5 375.5Q95 368 79 360Q63 352 54 345V426Q63 437 78.5 449.5Q94 462 116.5 472.5Q139 483 170 490Q201 497 240 497Q345 497 391 445Q437 393 437 302V133Q437 92 437.5 66.5Q438 41 440 26Q442 8 444 0H335Q329 11 325 25Q321 37 317.5 53Q314 69 313 88Q299 38 260.5 12.5Q222 -13 165 -13ZM220 63Q238 63 254 70.5Q270 78 283 93Q296 108 303.5 129.5Q311 151 311 180V245Q298 234 279.5 225Q261 216 240 208Q193 191 173 175Q153 159 153 130V125Q153 63 220 63Z" glyph-name="a" horiz-adv-x="480" unicode="a" /><glyph d="M165 -13Q102 -13 63 22.5Q24 58 24 118V119Q24 158 40 183Q56 208 82.5 223.5Q109 239 143.5 248.5Q178 258 216 267Q269 280 290 292Q311 304 311 329V332Q311 358 289.5 375.5Q268 393 212 393Q185 393 160.5 388Q136 383 115.5 375.5Q95 368 79 360Q63 352 54 345V426Q63 437 78.5 449.5Q94 462 116.5 472.5Q139 483 170 490Q201 497 240 497Q345 497 391 445Q437 393 437 302V133Q437 92 437.5 66.5Q438 41 440 26Q442 8 444 0H335Q329 11 325 25Q321 37 317.5 53Q314 69 313 88Q299 38 260.5 12.5Q222 -13 165 -13ZM220 63Q238 63 254 70.5Q270 78 283 93Q296 108 303.5 129.5Q311 151 311 180V245Q298 234 279.5 225Q261 216 240 208Q193 191 173 175Q153 159 153 130V125Q153 63 220 63ZM240 681H393L266 539H189Z" glyph-name="aacute" horiz-adv-x="480" unicode="&#225;" /><glyph d="M165 -13Q102 -13 63 22.5Q24 58 24 118V119Q24 158 40 183Q56 208 82.5 223.5Q109 239 143.5 248.5Q178 258 216 267Q269 280 290 292Q311 304 311 329V332Q311 358 289.5 375.5Q268 393 212 393Q185 393 160.5 388Q136 383 115.5 375.5Q95 368 79 360Q63 352 54 345V426Q63 437 78.5 449.5Q94 462 116.5 472.5Q139 483 170 490Q201 497 240 497Q345 497 391 445Q437 393 437 302V133Q437 92 437.5 66.5Q438 41 440 26Q442 8 444 0H335Q329 11 325 25Q321 37 317.5 53Q314 69 313 88Q299 38 260.5 12.5Q222 -13 165 -13ZM220 63Q238 63 254 70.5Q270 78 283 93Q296 108 303.5 129.5Q311 151 311 180V245Q298 234 279.5 225Q261 216 240 208Q193 191 173 175Q153 159 153 130V125Q153 63 220 63ZM176 677H304L390 539H309L240 604L171 539H90Z" glyph-name="acircumflex" horiz-adv-x="480" unicode="&#226;" /><glyph d="M205 681H358L231 539H154Z" glyph-name="acute" horiz-adv-x="400" unicode="&#180;" /><glyph d="M166 681H305L231 539H153Z" glyph-name="acute.pl" horiz-adv-x="400" /><glyph d="M190 800H347L233 685H152Z" glyph-name="acute.uc" horiz-adv-x="400" /><glyph d="M173 800H310L234 685H157Z" glyph-name="acute.ucpl" horiz-adv-x="400" /><glyph d="M165 -13Q102 -13 63 22.5Q24 58 24 118V119Q24 158 40 183Q56 208 82.5 223.5Q109 239 143.5 248.5Q178 258 216 267Q269 280 290 292Q311 304 311 329V332Q311 358 289.5 375.5Q268 393 212 393Q185 393 160.5 388Q136 383 115.5 375.5Q95 368 79 360Q63 352 54 345V426Q63 437 78.5 449.5Q94 462 116.5 472.5Q139 483 170 490Q201 497 240 497Q345 497 391 445Q437 393 437 302V133Q437 92 437.5 66.5Q438 41 440 26Q442 8 444 0H335Q329 11 325 25Q321 37 317.5 53Q314 69 313 88Q299 38 260.5 12.5Q222 -13 165 -13ZM220 63Q238 63 254 70.5Q270 78 283 93Q296 108 303.5 129.5Q311 151 311 180V245Q298 234 279.5 225Q261 216 240 208Q193 191 173 175Q153 159 153 130V125Q153 63 220 63ZM145 538Q117 538 97 557.5Q77 577 77 605Q77 632 97 651.5Q117 671 145 671Q173 671 193 651.5Q213 632 213 605Q213 577 193 557.5Q173 538 145 538ZM335 538Q307 538 287 557.5Q267 577 267 605Q267 632 287 651.5Q307 671 335 671Q363 671 383 651.5Q403 632 403 605Q403 577 383 557.5Q363 538 335 538Z" glyph-name="adieresis" horiz-adv-x="480" unicode="&#228;" /><glyph d="M176 -13Q105 -13 64.5 22.5Q24 58 24 118V119Q24 158 40 183Q56 208 82.5 223.5Q109 239 143.5 248.5Q178 258 216 267Q269 280 290 292Q311 304 311 329V332Q311 358 289 375.5Q267 393 210 393Q183 393 159 388Q135 383 114.5 376Q94 369 78.5 360.5Q63 352 54 345V426Q63 437 78 449.5Q93 462 115.5 472.5Q138 483 167.5 490Q197 497 235 497Q295 497 332.5 478Q370 459 390 424Q417 459 456.5 478Q496 497 547 497Q601 497 640 481Q679 465 705 437.5Q731 410 743.5 372.5Q756 335 756 293Q756 270 752.5 251Q749 232 744 216H438Q440 178 450.5 153Q461 128 480.5 113Q500 98 527.5 91.5Q555 85 591 85Q639 85 677 95.5Q715 106 737 118V48Q721 26 676 7.5Q631 -11 562 -11Q481 -11 424 18.5Q367 48 338 108Q330 72 314 48.5Q298 25 276.5 11.5Q255 -2 229 -7.5Q203 -13 176 -13ZM548 414Q499 414 469.5 380.5Q440 347 438 280H643V290Q643 356 617 385Q591 414 548 414ZM220 63Q238 63 254 69.5Q270 76 283 90Q296 104 303.5 124.5Q311 145 311 174V230V243V245Q298 234 279.5 225Q261 216 240 208Q193 191 173 175Q153 159 153 130V125Q153 63 220 63Z" glyph-name="ae" horiz-adv-x="779" unicode="&#230;" /><glyph d="M165 -13Q102 -13 63 22.5Q24 58 24 118V119Q24 158 40 183Q56 208 82.5 223.5Q109 239 143.5 248.5Q178 258 216 267Q269 280 290 292Q311 304 311 329V332Q311 358 289.5 375.5Q268 393 212 393Q185 393 160.5 388Q136 383 115.5 375.5Q95 368 79 360Q63 352 54 345V426Q63 437 78.5 449.5Q94 462 116.5 472.5Q139 483 170 490Q201 497 240 497Q345 497 391 445Q437 393 437 302V133Q437 92 437.5 66.5Q438 41 440 26Q442 8 444 0H335Q329 11 325 25Q321 37 317.5 53Q314 69 313 88Q299 38 260.5 12.5Q222 -13 165 -13ZM220 63Q238 63 254 70.5Q270 78 283 93Q296 108 303.5 129.5Q311 151 311 180V245Q298 234 279.5 225Q261 216 240 208Q193 191 173 175Q153 159 153 130V125Q153 63 220 63ZM84 681H237L287 539H207Z" glyph-name="agrave" horiz-adv-x="480" unicode="&#224;" /><glyph d="M236 -11Q185 -11 145.5 2Q106 15 79 38Q52 61 38 93.5Q24 126 24 164Q24 235 65 277Q106 319 175 349Q149 378 133 411Q117 444 117 488Q117 522 129.5 552Q142 582 165.5 604.5Q189 627 222.5 639.5Q256 652 298 652Q377 652 422 610Q467 568 467 501Q467 442 430 404.5Q393 367 333 338L432 214Q461 274 484 362H593Q573 296 549 240Q525 184 493 138L604 0H451L412 49Q337 -11 236 -11ZM254 75Q313 75 359 115L222 287Q183 264 167.5 237Q152 210 152 172Q152 130 178 102.5Q204 75 254 75ZM238 491Q238 459 252.5 432.5Q267 406 294 379Q329 403 344.5 432Q360 461 360 493Q360 523 345 543.5Q330 564 301 564Q275 564 256.5 545.5Q238 527 238 491Z" glyph-name="ampersand" horiz-adv-x="618" unicode="&amp;" /><glyph d="M45 125Q45 188 70.5 228.5Q96 269 152 269Q179 269 207.5 264Q236 259 263 252.5Q290 246 313 241Q336 236 352 236Q369 236 376.5 247Q384 258 386 281H465Q465 218 442 177.5Q419 137 364 137Q341 137 313.5 142Q286 147 258 153.5Q230 160 204 165Q178 170 159 170Q127 170 124 125ZM45 320Q45 383 70.5 423.5Q96 464 152 464Q179 464 207.5 459Q236 454 263 447.5Q290 441 313 436Q336 431 352 431Q369 431 376.5 442Q384 453 386 476H465Q465 413 442 372.5Q419 332 364 332Q341 332 313.5 337Q286 342 258 348.5Q230 355 204 360Q178 365 159 365Q127 365 124 320Z" glyph-name="approxequal" horiz-adv-x="509" unicode="&#8776;" /><glyph d="M165 -13Q102 -13 63 22.5Q24 58 24 118V119Q24 158 40 183Q56 208 82.5 223.5Q109 239 143.5 248.5Q178 258 216 267Q269 280 290 292Q311 304 311 329V332Q311 358 289.5 375.5Q268 393 212 393Q185 393 160.5 388Q136 383 115.5 375.5Q95 368 79 360Q63 352 54 345V426Q63 437 78.5 449.5Q94 462 116.5 472.5Q139 483 170 490Q201 497 240 497Q345 497 391 445Q437 393 437 302V133Q437 92 437.5 66.5Q438 41 440 26Q442 8 444 0H335Q329 11 325 25Q321 37 317.5 53Q314 69 313 88Q299 38 260.5 12.5Q222 -13 165 -13ZM220 63Q238 63 254 70.5Q270 78 283 93Q296 108 303.5 129.5Q311 151 311 180V245Q298 234 279.5 225Q261 216 240 208Q193 191 173 175Q153 159 153 130V125Q153 63 220 63ZM140 636Q140 657 147.5 675Q155 693 168.5 707Q182 721 200.5 729Q219 737 240 737Q261 737 280 729Q299 721 312.5 707Q326 693 334 675Q342 657 342 636Q342 615 334 597Q326 579 312.5 565.5Q299 552 280 544Q261 536 240 536Q219 536 200.5 544Q182 552 168.5 565.5Q155 579 147.5 597Q140 615 140 636ZM196 636Q196 613 209 600.5Q222 588 240 588Q260 588 272.5 600.5Q285 613 285 636Q285 658 272.5 671.5Q260 685 240 685Q222 685 209 671.5Q196 658 196 636Z" glyph-name="aring" horiz-adv-x="480" unicode="&#229;" /><glyph d="M298 423 213 557 128 423H35L140 639H286L391 423Z" glyph-name="asciicircum" horiz-adv-x="426" unicode="^" /><glyph d="M49 208Q41 235 42 261Q43 287 53 306.5Q63 326 81 338Q99 350 126 350Q147 350 163 344Q179 338 192 331Q205 324 215.5 318Q226 312 236 312Q251 312 256 321.5Q261 331 263 353H319Q327 326 326 300.5Q325 275 316 255.5Q307 236 289.5 224Q272 212 247 212Q228 212 212.5 218Q197 224 183.5 230.5Q170 237 157.5 243Q145 249 133 249Q119 249 113.5 239.5Q108 230 106 208H49Z" glyph-name="asciitilde" horiz-adv-x="371" unicode="~" /><glyph d="M29 459 126 494 29 527 73 601 148 538 128 639H222L203 539L278 601L321 527L223 494L321 459L278 384L202 449L222 347H128L148 450L73 384Z" glyph-name="asterisk" horiz-adv-x="350" unicode="*" /><glyph d="M399 116Q416 116 433 123.5Q450 131 464 145.5Q478 160 488.5 181.5Q499 203 503 231L505 244Q510 278 505 301.5Q500 325 489 340Q478 355 461.5 361.5Q445 368 427 368Q409 368 391.5 359Q374 350 360.5 330.5Q347 311 338.5 279Q330 247 330 201Q330 163 346.5 139.5Q363 116 399 116ZM505 128Q488 82 454.5 57Q421 32 372 32Q334 32 305 45Q276 58 256.5 81.5Q237 105 227 137.5Q217 170 217 209Q217 260 230.5 305Q244 350 269.5 384Q295 418 331 438Q367 458 412 458Q464 458 492 428Q520 398 527 354Q530 374 535.5 390.5Q541 407 547 420Q554 435 562 447H652L610 187Q602 145 609.5 124.5Q617 104 648 104Q693 104 722 156.5Q751 209 751 313Q751 385 728 435Q705 485 664.5 516.5Q624 548 569.5 562Q515 576 452 576Q377 576 315 550.5Q253 525 208.5 478Q164 431 139 365Q114 299 114 219Q114 70 197 -9Q280 -88 435 -88Q514 -88 583.5 -66Q653 -44 695 -12V-81Q678 -95 652 -109Q626 -123 592.5 -134Q559 -145 518 -152Q477 -159 432 -159Q344 -159 270.5 -133.5Q197 -108 143.5 -60Q90 -12 60.5 58Q31 128 31 217Q31 319 66 399.5Q101 480 159.5 536.5Q218 593 295 622.5Q372 652 456 652Q536 652 604.5 628.5Q673 605 723.5 561.5Q774 518 802.5 455Q831 392 831 313Q831 182 779 108.5Q727 35 635 35Q575 35 543 61.5Q511 88 505 128Z" glyph-name="at" horiz-adv-x="860" unicode="@" /><glyph d="M165 -13Q102 -13 63 22.5Q24 58 24 118V119Q24 158 40 183Q56 208 82.5 223.5Q109 239 143.5 248.5Q178 258 216 267Q269 280 290 292Q311 304 311 329V332Q311 358 289.5 375.5Q268 393 212 393Q185 393 160.5 388Q136 383 115.5 375.5Q95 368 79 360Q63 352 54 345V426Q63 437 78.5 449.5Q94 462 116.5 472.5Q139 483 170 490Q201 497 240 497Q345 497 391 445Q437 393 437 302V133Q437 92 437.5 66.5Q438 41 440 26Q442 8 444 0H335Q329 11 325 25Q321 37 317.5 53Q314 69 313 88Q299 38 260.5 12.5Q222 -13 165 -13ZM220 63Q238 63 254 70.5Q270 78 283 93Q296 108 303.5 129.5Q311 151 311 180V245Q298 234 279.5 225Q261 216 240 208Q193 191 173 175Q153 159 153 130V125Q153 63 220 63ZM105 551Q98 575 99 598Q100 621 109 639Q118 657 135 668Q152 679 178 679Q199 679 216 673.5Q233 668 247 662Q261 656 272.5 650.5Q284 645 295 645Q309 645 313.5 654Q318 663 320 683H374Q380 659 379.5 636Q379 613 370.5 595Q362 577 345.5 566Q329 555 305 555Q286 555 269.5 560.5Q253 566 238 572Q223 578 210 583.5Q197 589 185 589Q171 589 165.5 580Q160 571 158 551H105Z" glyph-name="atilde" horiz-adv-x="480" unicode="&#227;" /><glyph d="M337 -11Q268 -11 226.5 23.5Q185 58 168 119Q166 87 163 64.5Q160 42 155 28Q150 11 144 0H48V673H175V372Q182 396 196 419Q210 442 231 459Q252 476 280.5 486.5Q309 497 344 497Q391 497 427.5 479Q464 461 489 428.5Q514 396 527 350.5Q540 305 540 251V250Q540 186 524.5 137.5Q509 89 482 56Q455 23 418 6Q381 -11 337 -11ZM299 76Q351 76 381.5 116Q412 156 412 237V270Q412 333 383 368.5Q354 404 299 404Q273 404 250.5 394.5Q228 385 211.5 367Q195 349 185 322.5Q175 296 175 262V243Q175 199 185 167.5Q195 136 211.5 116Q228 96 250.5 86Q273 76 299 76Z" glyph-name="b" horiz-adv-x="569" unicode="b" /><glyph d="M120 673 348 -98H244L16 673Z" glyph-name="backslash" horiz-adv-x="348" unicode="\" /><glyph d="M176 -98H72V673H176Z" glyph-name="bar" horiz-adv-x="248" unicode="|" /><glyph d="M99 288Q136 283 161.5 271.5Q187 260 202 244.5Q217 229 223.5 210Q230 191 230 172Q230 152 226.5 133.5Q223 115 219 97.5Q215 80 211.5 63Q208 46 208 29Q208 6 212 -10.5Q216 -27 225 -40.5Q234 -54 247.5 -66.5Q261 -79 279 -93V-98H182Q165 -93 148.5 -83Q132 -73 118.5 -58Q105 -43 96.5 -23Q88 -3 88 22Q88 44 93.5 64.5Q99 85 106 104.5Q113 124 118.5 141.5Q124 159 124 176Q124 199 102.5 216.5Q81 234 30 238V341Q81 345 102.5 362.5Q124 380 124 403Q124 419 118.5 436.5Q113 454 106 472.5Q99 491 93.5 511Q88 531 88 553Q88 578 96.5 598Q105 618 118.5 633Q132 648 148.5 658Q165 668 182 673H279V668Q261 654 247.5 641.5Q234 629 225 615.5Q216 602 212 585Q208 568 208 546Q208 529 211.5 512.5Q215 496 219 479Q223 462 226.5 444Q230 426 230 406Q230 386 223.5 368Q217 350 202 334.5Q187 319 161.5 307.5Q136 296 99 291Z" glyph-name="braceleft" horiz-adv-x="308" unicode="{" /><glyph d="M210 291Q172 296 147 307.5Q122 319 107 334.5Q92 350 85.5 368Q79 386 79 406Q79 426 82.5 444Q86 462 89.5 479Q93 496 96.5 512.5Q100 529 100 546Q100 568 96 585Q92 602 83 615.5Q74 629 61 641.5Q48 654 30 668V673H127Q144 668 160.5 658Q177 648 190.5 633Q204 618 212 598Q220 578 220 553Q220 531 214.5 511Q209 491 202.5 472.5Q196 454 190.5 436.5Q185 419 185 403Q185 380 206.5 362.5Q228 345 279 341V238Q228 234 206.5 216.5Q185 199 185 176Q185 159 190.5 141.5Q196 124 202.5 104.5Q209 85 214.5 64.5Q220 44 220 22Q220 -3 212 -23Q204 -43 190.5 -58Q177 -73 160.5 -83Q144 -93 127 -98H30V-93Q48 -79 61 -66.5Q74 -54 83 -40.5Q92 -27 96 -10.5Q100 6 100 29Q100 63 89.5 97.5Q79 132 79 172Q79 191 85.5 210Q92 229 107 244.5Q122 260 147 271.5Q172 283 210 288Z" glyph-name="braceright" horiz-adv-x="308" unicode="}" /><glyph d="M70 673H336V582H183V-11H336V-98H70Z" glyph-name="bracketleft" horiz-adv-x="368" unicode="[" /><glyph d="M298 -98H32V-11H185V582H32V673H298Z" glyph-name="bracketright" horiz-adv-x="368" unicode="]" /><glyph d="M324 677Q326 652 320 627Q314 602 299 582Q284 562 259 549.5Q234 537 199 537Q164 537 139.5 549.5Q115 562 100 581.5Q85 601 79 626Q73 651 75 677H146Q145 653 157.5 635.5Q170 618 199 618Q229 618 241.5 635.5Q254 653 253 677Z" glyph-name="breve" horiz-adv-x="400" unicode="&#728;" /><glyph d="M320 802Q321 779 316 756Q311 733 296.5 715Q282 697 258.5 685.5Q235 674 200 674Q165 674 141.5 685.5Q118 697 103.5 715Q89 733 83.5 756Q78 779 79 802H148Q148 782 159.5 768.5Q171 755 200 755Q229 755 240 768.5Q251 782 251 802Z" glyph-name="breve.uc" horiz-adv-x="400" /><glyph d="M176 261V-98H72V261ZM176 331H72V673H176Z" glyph-name="brokenbar" horiz-adv-x="248" unicode="&#166;" /><glyph d="M170 154Q144 154 120 164.5Q96 175 78 192.5Q60 210 49 233.5Q38 257 38 284Q38 311 49 335Q60 359 78 377Q96 395 120 405.5Q144 416 170 416Q198 416 222 405.5Q246 395 264 377Q282 359 292.5 335Q303 311 303 284Q303 257 292.5 233.5Q282 210 264 192.5Q246 175 222 164.5Q198 154 170 154Z" glyph-name="bullet" horiz-adv-x="341" unicode="&#8226;" /><glyph d="M267 -12Q213 -12 169 6Q125 24 93.5 57Q62 90 45 137.5Q28 185 28 244V245Q28 309 48.5 356Q69 403 102 434.5Q135 466 177.5 481.5Q220 497 265 497Q334 497 371 483Q408 469 425 448V363Q401 379 368.5 388Q336 397 286 397Q259 397 235.5 389.5Q212 382 194 366Q176 350 166 324Q156 298 156 262V234Q156 155 190.5 118Q225 81 293 81Q337 81 373 94Q409 107 432 120V48Q415 25 374.5 6.5Q334 -12 267 -12Z" glyph-name="c" horiz-adv-x="458" unicode="c" /><glyph d="M50 677H131L200 612L269 677H350L264 539H136Z" glyph-name="caron" horiz-adv-x="400" unicode="&#711;" /><glyph d="M170 673H268L230 533H165Z" glyph-name="caron.alt" horiz-adv-x="400" /><glyph d="M51 800H132L200 752L268 800H349L269 685H131Z" glyph-name="caron.uc" horiz-adv-x="400" /><glyph d="M242 -187Q212 -187 194 -180.5Q176 -174 167 -166V-122Q175 -125 187.5 -128Q200 -131 217 -131Q257 -131 257 -107Q257 -95 244 -87Q231 -79 193 -78V-2Q117 19 72.5 83Q28 147 28 244V245Q28 309 48.5 356Q69 403 102 434.5Q135 466 177.5 481.5Q220 497 265 497Q334 497 371 483Q408 469 425 448V363Q401 379 368.5 388Q336 397 286 397Q259 397 235.5 389.5Q212 382 194 366Q176 350 166 324Q156 298 156 262V234Q156 155 190.5 118Q225 81 293 81Q337 81 373 94Q409 107 432 120V48Q415 25 374.5 6.5Q334 -12 267 -12H255V-38Q300 -42 320.5 -61Q341 -80 341 -112Q341 -150 314 -168.5Q287 -187 242 -187Z" glyph-name="ccedilla" horiz-adv-x="458" unicode="&#231;" /><glyph d="M208 0V-38Q253 -42 273 -61Q293 -80 293 -112Q293 -150 266 -168.5Q239 -187 194 -187Q165 -187 146.5 -180.5Q128 -174 120 -166V-122Q128 -125 140 -128Q152 -131 169 -131Q209 -131 209 -107Q209 -95 196 -87Q183 -79 145 -78V0Z" glyph-name="cedilla" horiz-adv-x="400" unicode="&#184;" /><glyph d="M188 -107 205 -5Q124 13 76 78Q28 143 28 244V245Q28 309 48.5 356Q69 403 102 434.5Q135 466 177.5 481.5Q220 497 265 497Q272 497 278.5 497Q285 497 292 496L305 574H376L361 486Q384 479 399.5 469Q415 459 425 448V364Q408 374 389 381.5Q370 389 345 393L291 81Q336 81 372.5 94Q409 107 432 120V48Q415 26 376.5 8Q338 -10 275 -12L259 -107ZM151 235Q151 123 222 93L275 398Q249 397 226 389Q203 381 186.5 364.5Q170 348 160.5 323Q151 298 151 262Z" glyph-name="cent" horiz-adv-x="458" unicode="&#162;" /><glyph d="M136 677H264L350 539H269L200 604L131 539H50Z" glyph-name="circumflex" horiz-adv-x="400" unicode="&#710;" /><glyph d="M131 800H269L349 685H268L200 733L132 685H51Z" glyph-name="circumflex.uc" horiz-adv-x="400" /><glyph d="M115 -9Q83 -9 60 14Q37 37 37 69Q37 102 60 125.5Q83 149 115 149Q147 149 170 125.5Q193 102 193 69Q193 53 187 39Q181 25 170.5 14.5Q160 4 145.5 -2.5Q131 -9 115 -9ZM115 297Q83 297 60 320Q37 343 37 375Q37 408 60 431.5Q83 455 115 455Q147 455 170 431.5Q193 408 193 375Q193 359 187 345Q181 331 170.5 320.5Q160 310 145.5 303.5Q131 297 115 297Z" glyph-name="colon" horiz-adv-x="228" unicode=":" /><glyph d="M21 -90Q59 1 59 88Q59 114 54 142H181Q182 134 182.5 126Q183 118 183 108Q183 47 163.5 1Q144 -45 105 -90Z" glyph-name="comma" horiz-adv-x="228" unicode="," /><glyph d="M369 37Q429 37 479.5 59.5Q530 82 567.5 120Q605 158 626 209Q647 260 647 317Q647 374 626 425.5Q605 477 567.5 516Q530 555 479.5 577.5Q429 600 369 600Q310 600 259.5 577.5Q209 555 172 516Q135 477 113.5 425.5Q92 374 92 317Q92 260 113.5 209Q135 158 172 120Q209 82 259.5 59.5Q310 37 369 37ZM381 136Q302 136 254.5 184.5Q207 233 207 324V326Q207 408 252 457Q297 506 375 506Q420 506 445.5 494.5Q471 483 485 470V406Q469 416 446 423.5Q423 431 394 431Q351 431 328 410Q305 389 305 342V313Q305 254 331 230.5Q357 207 400 207Q421 207 446 213.5Q471 220 485 232V175Q473 161 448.5 148.5Q424 136 381 136ZM369 -14Q298 -14 236.5 12Q175 38 130 83Q85 128 59.5 188.5Q34 249 34 317Q34 386 59.5 446.5Q85 507 130 552.5Q175 598 236.5 624.5Q298 651 369 651Q441 651 502.5 624.5Q564 598 608.5 552.5Q653 507 678.5 446.5Q704 386 704 317Q704 249 678.5 188.5Q653 128 608.5 83Q564 38 502.5 12Q441 -14 369 -14Z" glyph-name="copyright" horiz-adv-x="738" unicode="&#169;" /><glyph d="M228 -12Q181 -12 144 7Q107 26 81.5 60.5Q56 95 42.5 143Q29 191 29 248V249Q29 310 45 356Q61 402 88.5 433Q116 464 153.5 480Q191 496 233 496Q268 496 295 487Q322 478 341.5 462Q361 446 374 425.5Q387 405 394 382V673H521V0H421Q415 14 410 32Q405 47 401.5 67.5Q398 88 397 111Q388 85 374 62.5Q360 40 339.5 23.5Q319 7 291.5 -2.5Q264 -12 228 -12ZM270 77Q296 77 318.5 87.5Q341 98 358 118Q375 138 384.5 166.5Q394 195 394 231V249Q394 331 358 368Q322 405 270 405Q219 405 188.5 371Q158 337 158 266V232Q158 160 187 118.5Q216 77 270 77Z" glyph-name="d" horiz-adv-x="569" unicode="d" /><glyph d="M144 354H31V447H144V639H249V447H362V354H249V-98H144Z" glyph-name="dagger" horiz-adv-x="392" unicode="&#8224;" /><glyph d="M249 354V187H362V94H249V-98H144V94H31V187H144V354H31V447H144V639H249V447H362V354Z" glyph-name="daggerdbl" horiz-adv-x="392" unicode="&#8225;" /><glyph d="M181 352Q149 352 122 363.5Q95 375 75 395Q55 415 44 442Q33 469 33 500Q33 531 44 558Q55 585 75 605Q95 625 122 637Q149 649 181 649Q213 649 240.5 637Q268 625 288.5 605Q309 585 320.5 558Q332 531 332 500Q332 469 320.5 442Q309 415 288.5 395Q268 375 240.5 363.5Q213 352 181 352ZM181 420Q213 420 234 441.5Q255 463 255 500Q255 535 234 558Q213 581 181 581Q151 581 130.5 558Q110 535 110 500Q110 463 130.5 441.5Q151 420 181 420Z" glyph-name="degree" horiz-adv-x="365" unicode="&#176;" /><glyph d="M100 538Q72 538 52 557.5Q32 577 32 605Q32 632 52 651.5Q72 671 100 671Q128 671 148 651.5Q168 632 168 605Q168 577 148 557.5Q128 538 100 538ZM290 538Q262 538 242 557.5Q222 577 222 605Q222 632 242 651.5Q262 671 290 671Q318 671 338 651.5Q358 632 358 605Q358 577 338 557.5Q318 538 290 538Z" glyph-name="dieresis" horiz-adv-x="390" unicode="&#168;" /><glyph d="M95 679Q67 679 47 698.5Q27 718 27 745Q27 773 47 792.5Q67 812 95 812Q123 812 143.5 792.5Q164 773 164 745Q164 718 143.5 698.5Q123 679 95 679ZM294 679Q267 679 246.5 698.5Q226 718 226 745Q226 773 246.5 792.5Q267 812 294 812Q323 812 343 792.5Q363 773 363 745Q363 718 343 698.5Q323 679 294 679Z" glyph-name="dieresis.uc" horiz-adv-x="390" /><glyph d="M430 363V264H46V363ZM238 79Q210 79 189 99.5Q168 120 168 149Q168 178 189 198.5Q210 219 238 219Q267 219 287 198.5Q307 178 307 149Q307 120 287 99.5Q267 79 238 79ZM238 407Q210 407 189 427Q168 447 168 476Q168 505 189 526Q210 547 238 547Q267 547 287 526Q307 505 307 476Q307 447 287 427Q267 407 238 407Z" glyph-name="divide" horiz-adv-x="476" unicode="&#247;" /><glyph d="M124 -107 145 -4Q106 5 77.5 20Q49 35 31 53V144Q53 127 87 110.5Q121 94 163 86L202 273Q178 279 155 286Q132 293 114 304Q72 327 53 364Q34 401 34 458Q34 509 52.5 546Q71 583 101 607Q131 631 170.5 642Q210 653 252 653Q259 653 265.5 653Q272 653 279 652L293 718H364L348 641Q375 633 396.5 622Q418 611 432 597V505Q417 516 389 526.5Q361 537 328 544L292 370Q321 364 349 355.5Q377 347 400 332Q437 308 453.5 273.5Q470 239 470 188Q470 135 452 97Q434 59 403.5 34Q373 9 331 -3Q289 -15 241 -15Q234 -15 227 -15Q220 -15 214 -14L195 -107ZM315 241Q306 246 294.5 249.5Q283 253 269 257L233 79Q288 80 319.5 102.5Q351 125 351 176Q351 199 344 214.5Q337 230 315 241ZM188 398Q196 393 205 390Q214 387 224 384L259 552H258Q235 552 214.5 548.5Q194 545 179 535Q164 525 155 508.5Q146 492 146 465Q146 442 155 425.5Q164 409 188 398Z" glyph-name="dollar" horiz-adv-x="502" unicode="$" /><glyph d="M200 539Q170 539 149.5 560Q129 581 129 610Q129 639 149.5 660Q170 681 200 681Q230 681 250.5 660Q271 639 271 610Q271 581 250.5 560Q230 539 200 539Z" glyph-name="dotaccent" horiz-adv-x="400" unicode="&#729;" /><glyph d="M200 678Q170 678 149.5 699Q129 720 129 749Q129 778 149.5 799Q170 820 200 820Q230 820 250.5 799Q271 778 271 749Q271 720 250.5 699Q230 678 200 678Z" glyph-name="dotaccent.uc" horiz-adv-x="400" /><glyph d="M52 485H179V0H52Z" glyph-name="dotlessi" horiz-adv-x="230" unicode="&#305;" /><glyph d="M157 216Q159 178 169.5 153Q180 128 199.5 113Q219 98 246.5 91.5Q274 85 310 85Q358 85 396 95.5Q434 106 456 118V48Q440 26 395 7.5Q350 -11 281 -11Q162 -11 95 54Q28 119 28 243V244Q28 302 45.5 349Q63 396 94.5 429Q126 462 169.5 479.5Q213 497 264 497Q318 497 358 481Q398 465 424 437.5Q450 410 462.5 372.5Q475 335 475 293Q475 270 471.5 251Q468 232 463 216ZM266 414Q218 414 188.5 380.5Q159 347 157 280H361V290Q361 356 335.5 385Q310 414 266 414Z" glyph-name="e" horiz-adv-x="500" unicode="e" /><glyph d="M261 681H414L287 539H210ZM157 216Q159 178 169.5 153Q180 128 199.5 113Q219 98 246.5 91.5Q274 85 310 85Q358 85 396 95.5Q434 106 456 118V48Q440 26 395 7.5Q350 -11 281 -11Q162 -11 95 54Q28 119 28 243V244Q28 302 45.5 349Q63 396 94.5 429Q126 462 169.5 479.5Q213 497 264 497Q318 497 358 481Q398 465 424 437.5Q450 410 462.5 372.5Q475 335 475 293Q475 270 471.5 251Q468 232 463 216ZM266 414Q218 414 188.5 380.5Q159 347 157 280H361V290Q361 356 335.5 385Q310 414 266 414Z" glyph-name="eacute" horiz-adv-x="500" unicode="&#233;" /><glyph d="M195 677H323L409 539H328L259 604L190 539H109ZM157 216Q159 178 169.5 153Q180 128 199.5 113Q219 98 246.5 91.5Q274 85 310 85Q358 85 396 95.5Q434 106 456 118V48Q440 26 395 7.5Q350 -11 281 -11Q162 -11 95 54Q28 119 28 243V244Q28 302 45.5 349Q63 396 94.5 429Q126 462 169.5 479.5Q213 497 264 497Q318 497 358 481Q398 465 424 437.5Q450 410 462.5 372.5Q475 335 475 293Q475 270 471.5 251Q468 232 463 216ZM266 414Q218 414 188.5 380.5Q159 347 157 280H361V290Q361 356 335.5 385Q310 414 266 414Z" glyph-name="ecircumflex" horiz-adv-x="500" unicode="&#234;" /><glyph d="M164 538Q136 538 116 557.5Q96 577 96 605Q96 632 116 651.5Q136 671 164 671Q192 671 212 651.5Q232 632 232 605Q232 577 212 557.5Q192 538 164 538ZM354 538Q326 538 306 557.5Q286 577 286 605Q286 632 306 651.5Q326 671 354 671Q382 671 402 651.5Q422 632 422 605Q422 577 402 557.5Q382 538 354 538ZM157 216Q159 178 169.5 153Q180 128 199.5 113Q219 98 246.5 91.5Q274 85 310 85Q358 85 396 95.5Q434 106 456 118V48Q440 26 395 7.5Q350 -11 281 -11Q162 -11 95 54Q28 119 28 243V244Q28 302 45.5 349Q63 396 94.5 429Q126 462 169.5 479.5Q213 497 264 497Q318 497 358 481Q398 465 424 437.5Q450 410 462.5 372.5Q475 335 475 293Q475 270 471.5 251Q468 232 463 216ZM266 414Q218 414 188.5 380.5Q159 347 157 280H361V290Q361 356 335.5 385Q310 414 266 414Z" glyph-name="edieresis" horiz-adv-x="500" unicode="&#235;" /><glyph d="M157 216Q159 178 169.5 153Q180 128 199.5 113Q219 98 246.5 91.5Q274 85 310 85Q358 85 396 95.5Q434 106 456 118V48Q440 26 395 7.5Q350 -11 281 -11Q162 -11 95 54Q28 119 28 243V244Q28 302 45.5 349Q63 396 94.5 429Q126 462 169.5 479.5Q213 497 264 497Q318 497 358 481Q398 465 424 437.5Q450 410 462.5 372.5Q475 335 475 293Q475 270 471.5 251Q468 232 463 216ZM266 414Q218 414 188.5 380.5Q159 347 157 280H361V290Q361 356 335.5 385Q310 414 266 414ZM103 681H256L306 539H226Z" glyph-name="egrave" horiz-adv-x="500" unicode="&#232;" /><glyph d="M273 -14Q222 -14 177.5 -1.5Q133 11 100 35Q67 59 48.5 94Q30 129 30 174V182Q30 241 67 281Q104 321 171 338Q116 355 83.5 389.5Q51 424 51 479V484Q51 521 67.5 552Q84 583 113 605.5Q142 628 183 640Q224 652 273 652Q321 652 361.5 640Q402 628 431.5 606Q461 584 477 553Q493 522 493 485V479Q493 424 460 389.5Q427 355 373 338Q439 321 476.5 281.5Q514 242 514 183V175Q514 130 495.5 95Q477 60 444.5 35.5Q412 11 368 -1.5Q324 -14 273 -14ZM273 75Q321 75 351.5 99.5Q382 124 382 180V199Q382 249 353 276Q324 303 273 303Q220 303 191.5 276Q163 249 163 199V180Q163 124 193.5 99.5Q224 75 273 75ZM273 371Q318 371 344 393Q370 415 370 462V477Q370 514 345 538Q320 562 273 562Q225 562 200 538Q175 514 175 477V462Q175 415 201.5 393Q228 371 273 371Z" glyph-name="eight" horiz-adv-x="545" unicode="8" /><glyph d="M561 -9Q530 -9 507 14Q484 37 484 69Q484 102 507 125.5Q530 149 561 149Q594 149 617 125.5Q640 102 640 69Q640 37 617 14Q594 -9 561 -9ZM337 -9Q306 -9 283 14Q260 37 260 69Q260 102 283 125.5Q306 149 337 149Q370 149 393 125.5Q416 102 416 69Q416 37 393 14Q370 -9 337 -9ZM113 -9Q82 -9 59 14Q36 37 36 69Q36 102 59 125.5Q82 149 113 149Q146 149 169 125.5Q192 102 192 69Q192 37 169 14Q146 -9 113 -9Z" glyph-name="ellipsis" horiz-adv-x="676" unicode="&#8230;" /><glyph d="M38 309H904V229H38Z" glyph-name="emdash" horiz-adv-x="941" unicode="&#8212;" /><glyph d="M38 309H525V229H38Z" glyph-name="endash" horiz-adv-x="563" unicode="&#8211;" /><glyph d="M460 265V170H52V265ZM460 448V354H52V448Z" glyph-name="equal" horiz-adv-x="512" unicode="=" /><glyph d="M350 427Q330 462 302 494Q274 526 242 554L91 506L70 560L186 597Q156 618 125.5 635.5Q95 653 66 668V673H244Q258 665 273.5 655.5Q289 646 306 635L409 668L430 614L360 592Q390 565 418 531Q446 497 467.5 456.5Q489 416 502 369Q515 322 515 269V249Q515 181 495 131.5Q475 82 441 50.5Q407 19 363 4Q319 -11 271 -11Q223 -11 179.5 4Q136 19 102 50.5Q68 82 48 131Q28 180 28 248V250Q28 308 43.5 352Q59 396 85.5 426Q112 456 147.5 471Q183 486 222 486Q266 486 295.5 470.5Q325 455 349 426ZM271 72Q295 72 316 80Q337 88 352.5 107Q368 126 377 157Q386 188 386 234V270Q386 339 354.5 375.5Q323 412 271 412Q219 412 188 375.5Q157 339 157 270V234Q157 188 166 157Q175 126 190 107Q205 88 226 80Q247 72 271 72Z" glyph-name="eth" horiz-adv-x="544" unicode="&#240;" /><glyph d="M164 195H84L51 655H197ZM124 -9Q93 -9 70 13.5Q47 36 47 67Q47 99 70 122Q93 145 124 145Q140 145 154.5 138.5Q169 132 179.5 121.5Q190 111 196 97Q202 83 202 67Q202 52 196 38Q190 24 179.5 13.5Q169 3 154.5 -3Q140 -9 124 -9Z" glyph-name="exclam" horiz-adv-x="249" unicode="!" /><glyph d="M85 350H165L198 -110H52ZM125 554Q156 554 179 531.5Q202 509 202 478Q202 446 179 423Q156 400 125 400Q109 400 94.5 406.5Q80 413 69.5 423.5Q59 434 53 448Q47 462 47 478Q47 493 53 507Q59 521 69.5 531.5Q80 542 94.5 548Q109 554 125 554Z" glyph-name="exclamdown" horiz-adv-x="249" unicode="&#161;" /><glyph d="M82 485V517Q82 562 96 593Q110 624 132.5 643.5Q155 663 182.5 671.5Q210 680 238 680Q276 680 299.5 672Q323 664 335 653V588Q326 590 312 591Q298 592 284 592Q242 592 225.5 576.5Q209 561 209 525V485H335V399H209V0H82V399H16V485Z" glyph-name="f" horiz-adv-x="356" unicode="f" /><glyph d="M82 485V521Q82 562 94.5 592Q107 622 128 641.5Q149 661 175.5 670.5Q202 680 231 680Q266 680 286.5 672.5Q307 665 318 654V589Q310 590 301 591Q292 592 277 592Q242 592 225.5 577Q209 562 209 528V485H318V399H209V0H82V399H16V485ZM382 485H509V0H382ZM445 538Q415 538 394 558.5Q373 579 373 609Q373 639 394 660Q415 681 445 681Q476 681 497 660Q518 639 518 609Q518 579 497 558.5Q476 538 445 538Z" glyph-name="f_i" horiz-adv-x="562" unicode="&#64257;" /><glyph d="M82 485V521Q82 562 94.5 592Q107 622 128 641.5Q149 661 175.5 670.5Q202 680 231 680Q266 680 286.5 672.5Q307 665 318 654V589Q310 590 301 591Q292 592 277 592Q242 592 225.5 577Q209 562 209 528V485H318V399H209V0H82V399H16V485ZM382 673H507V0H382Z" glyph-name="f_l" horiz-adv-x="559" unicode="&#64258;" /><glyph d="M246 399Q303 399 344.5 384.5Q386 370 414 343Q442 316 455.5 278.5Q469 241 469 195Q469 150 452.5 112Q436 74 405.5 47Q375 20 330.5 5Q286 -10 229 -10Q186 -10 154.5 -4Q123 2 100.5 11Q78 20 62.5 32Q47 44 36 56V142Q65 122 103.5 106Q142 90 207 90Q273 90 304.5 120Q336 150 336 204Q336 261 302 289Q268 317 194 317Q146 317 115 309Q84 301 61 291H53V639H432V531H156V386Q177 392 199.5 395.5Q222 399 246 399Z" glyph-name="five" horiz-adv-x="503" unicode="5" /><glyph d="M107 408 117 502Q126 595 173.5 637.5Q221 680 288 680Q324 680 346.5 672Q369 664 381 653V579Q372 581 359 581.5Q346 582 332 582Q288 582 269 565Q250 548 245 504L235 408H360V317H225L177 -146H49L97 317H22V408Z" glyph-name="florin" horiz-adv-x="406" unicode="&#402;" /><glyph d="M438 639V221H534V124H438V0H309V124H26V247L269 639ZM112 221H309V536Z" glyph-name="four" horiz-adv-x="552" unicode="4" /><glyph d="M-139 0H-222L267 639H350Z" glyph-name="fraction" horiz-adv-x="128" unicode="&#8260;" /><glyph d="M260 -155Q217 -155 185 -149.5Q153 -144 130.5 -135.5Q108 -127 93.5 -116.5Q79 -106 70 -96V-5Q92 -23 130.5 -39Q169 -55 239 -55Q314 -55 354 -19.5Q394 16 394 84V135Q380 88 339 59Q298 30 229 30Q132 30 80.5 93Q29 156 29 263V264Q29 318 44.5 361Q60 404 87.5 434Q115 464 152.5 480Q190 496 234 496Q303 496 342.5 468.5Q382 441 402 385Q404 405 408.5 423.5Q413 442 418 456Q423 472 429 485H521V94Q521 -26 453 -90.5Q385 -155 260 -155ZM269 109Q294 109 317 118Q340 127 357 145Q374 163 384 189.5Q394 216 394 251V264Q394 335 358.5 370Q323 405 271 405Q220 405 189 371.5Q158 338 158 275V251Q158 183 186 146Q214 109 269 109Z" glyph-name="g" horiz-adv-x="566" unicode="g" /><glyph d="M286 680Q326 680 362 671.5Q398 663 425 645Q452 627 467.5 598.5Q483 570 483 530Q483 492 461 464.5Q439 437 412 416.5Q385 396 363 380Q341 364 341 349Q341 335 350.5 328Q360 321 377 313Q401 303 430.5 292.5Q460 282 480 271Q512 253 531 223Q550 193 550 144Q550 67 505.5 27Q461 -13 373 -13Q323 -13 288.5 -0.5Q254 12 230 32V113Q257 96 288 86.5Q319 77 358 77Q393 77 413.5 91Q434 105 434 135Q434 164 402 181Q384 190 360 198Q336 206 305 220Q268 236 251 262Q234 288 234 323Q234 357 254.5 383Q275 409 299.5 431.5Q324 454 344.5 477Q365 500 365 529Q365 560 343.5 576.5Q322 593 281 593Q230 593 202.5 559.5Q175 526 175 464V0H48V461Q48 516 65 557Q82 598 113.5 625.5Q145 653 189 666.5Q233 680 286 680Z" glyph-name="germandbls" horiz-adv-x="571" unicode="&#223;" /><glyph d="M44 681H197L247 539H167Z" glyph-name="grave" horiz-adv-x="400" unicode="`" /><glyph d="M53 800H210L248 685H167Z" glyph-name="grave.uc" horiz-adv-x="400" /><glyph d="M46 99V201L329 314L46 428V531L426 378V252Z" glyph-name="greater" horiz-adv-x="472" unicode="&gt;" /><glyph d="M426 281 46 138V241L322 344L46 447V551L426 408ZM46 0V98H426V0Z" glyph-name="greaterequal" horiz-adv-x="472" unicode="&#8805;" /><glyph d="M204 407 114 244 204 80H106L19 243L106 407ZM262 244 352 80H254L167 243L254 407H352Z" glyph-name="guillemotleft" horiz-adv-x="366" unicode="&#171;" /><glyph d="M162 80 252 243 162 407H260L347 244L260 80ZM104 243 14 407H112L199 244L112 80H14Z" glyph-name="guillemotright" horiz-adv-x="366" unicode="&#187;" /><glyph d="M106 409H210L120 246L210 82H106L19 245Z" glyph-name="guilsinglleft" horiz-adv-x="224" unicode="&#8249;" /><glyph d="M104 245 14 409H119L206 246L119 82H14Z" glyph-name="guilsinglright" horiz-adv-x="224" unicode="&#8250;" /><glyph d="M48 673H175V364Q189 427 234.5 462Q280 497 343 497Q415 497 457 455Q499 413 499 326V0H373V320Q373 400 292 400Q241 400 208 364.5Q175 329 175 262V0H48Z" glyph-name="h" horiz-adv-x="542" unicode="h" /><glyph d="M120 681H242L158 539H71ZM281 681H403L319 539H232Z" glyph-name="hungarumlaut" horiz-adv-x="400" unicode="&#733;" /><glyph d="M109 800H234L158 685H70ZM266 800H391L315 685H227Z" glyph-name="hungarumlaut.uc" horiz-adv-x="400" /><glyph d="M38 320H247V218H38Z" glyph-name="hyphen" horiz-adv-x="285" unicode="-" /><glyph d="M115 538Q85 538 64 558.5Q43 579 43 609Q43 639 64 660Q85 681 115 681Q146 681 167 660Q188 639 188 609Q188 579 167 558.5Q146 538 115 538ZM52 485H179V0H52Z" glyph-name="i" horiz-adv-x="231" unicode="i" /><glyph d="M122 681H275L148 539H71ZM52 485H179V0H52Z" glyph-name="iacute" horiz-adv-x="230" unicode="&#237;" /><glyph d="M53 677H181L267 539H186L117 604L48 539H-33ZM52 485H179V0H52Z" glyph-name="icircumflex" horiz-adv-x="230" unicode="&#238;" /><glyph d="M29 538Q0 538 -20 557.5Q-40 577 -40 605Q-40 632 -20 651.5Q0 671 29 671Q56 671 76.5 651.5Q97 632 97 605Q97 577 76.5 557.5Q56 538 29 538ZM203 538Q175 538 155 557.5Q135 577 135 605Q135 632 155 651.5Q175 671 203 671Q231 671 251 651.5Q271 632 271 605Q271 577 251 557.5Q231 538 203 538ZM52 485H179V0H52Z" glyph-name="idieresis" horiz-adv-x="230" unicode="&#239;" /><glyph d="M52 485H179V0H52ZM-39 681H114L164 539H84Z" glyph-name="igrave" horiz-adv-x="230" unicode="&#236;" /><glyph d="M115 538Q85 538 64 558.5Q43 579 43 609Q43 639 64 660Q85 681 115 681Q146 681 167 660Q188 639 188 609Q188 579 167 558.5Q146 538 115 538ZM179 -6Q179 -45 168.5 -73Q158 -101 139.5 -119Q121 -137 96 -145Q71 -153 42 -153Q4 -153 -17.5 -146Q-39 -139 -50 -130V-64Q-46 -65 -42 -65Q-38 -66 -32.5 -66Q-27 -66 -21 -66Q17 -66 34.5 -54Q52 -42 52 -8V485H179Z" glyph-name="j" horiz-adv-x="231" unicode="j" /><glyph d="M48 673H175V266L353 485H481L296 266L486 0H344L175 244V0H48Z" glyph-name="k" horiz-adv-x="490" unicode="k" /><glyph d="M52 673H177V0H52Z" glyph-name="l" horiz-adv-x="229" unicode="l" /><glyph d="M426 531V429L142 315L426 202V99L46 252V378Z" glyph-name="less" horiz-adv-x="472" unicode="&lt;" /><glyph d="M426 551V448L150 345L426 242V138L46 281V408ZM46 98H426V0H46Z" glyph-name="lessequal" horiz-adv-x="472" unicode="&#8804;" /><glyph d="M17 329 66 362V673H192V447L250 486V390L192 351V0H66V266L17 233Z" glyph-name="lslash" horiz-adv-x="259" unicode="&#322;" /><glyph d="M48 485H149Q156 469 161 451Q166 435 169.5 414Q173 393 173 370V363Q188 426 231 461.5Q274 497 334 497Q394 497 429 462.5Q464 428 469 357Q486 425 533 461Q580 497 639 497Q705 497 745 455Q785 413 785 326V0H658V320Q658 362 642.5 381Q627 400 589 400Q538 400 509.5 364.5Q481 329 480 262V0H353V320Q353 362 337.5 381Q322 400 284 400Q235 400 205.5 364.5Q176 329 175 262V0H48Z" glyph-name="m" horiz-adv-x="828" unicode="m" /><glyph d="M72 637H328V555H72Z" glyph-name="macron" horiz-adv-x="400" unicode="&#175;" /><glyph d="M70 777H330V695H70Z" glyph-name="macron.uc" horiz-adv-x="400" /><glyph d="M427 365V265H42V365Z" glyph-name="minus" horiz-adv-x="469" unicode="&#8722;" /><glyph d="M159 304 40 424 108 493 228 372 346 491 414 422 296 304 416 184 348 115 228 235 110 117 42 186Z" glyph-name="multiply" horiz-adv-x="456" unicode="&#215;" /><glyph d="M48 485H149Q156 469 161 451Q166 435 169.5 414Q173 393 173 370V360Q187 424 232 460.5Q277 497 343 497Q415 497 457 455Q499 413 499 326V0H373V320Q373 400 292 400Q241 400 208 364.5Q175 329 175 262V0H48Z" glyph-name="n" horiz-adv-x="542" unicode="n" /><glyph d="M106 8Q152 30 197.5 61Q243 92 281 129.5Q319 167 347.5 210.5Q376 254 389 301Q369 267 331.5 244Q294 221 234 221Q186 221 148 236Q110 251 84 278Q58 305 44 342.5Q30 380 30 426V431Q30 482 47.5 523.5Q65 565 96.5 594Q128 623 173 638.5Q218 654 274 654Q332 654 379.5 638Q427 622 461 590Q495 558 513.5 510Q532 462 532 399V382Q532 309 507.5 247.5Q483 186 447 137.5Q411 89 369.5 54.5Q328 20 294 0H106ZM278 304Q332 304 364.5 333Q397 362 399 410V440Q399 496 366.5 530.5Q334 565 276 565Q218 565 190 531.5Q162 498 162 441V428Q162 402 168.5 379.5Q175 357 188.5 340Q202 323 224 313.5Q246 304 278 304Z" glyph-name="nine" horiz-adv-x="566" unicode="9" /><glyph glyph-name="nonmarkingreturn" horiz-adv-x="184" /><glyph d="M365 448H460V354H321L279 265H460V170H234L188 72H104L150 170H52V265H195L237 354H52V448H281L324 539H408Z" glyph-name="notequal" horiz-adv-x="512" unicode="&#8800;" /><glyph d="M48 485H149Q156 469 161 451Q166 435 169.5 414Q173 393 173 370V360Q187 424 232 460.5Q277 497 343 497Q415 497 457 455Q499 413 499 326V0H373V320Q373 400 292 400Q241 400 208 364.5Q175 329 175 262V0H48ZM141 551Q134 575 135 598Q136 621 145 639Q154 657 171 668Q188 679 214 679Q235 679 252 673.5Q269 668 283 662Q297 656 308.5 650.5Q320 645 331 645Q345 645 349.5 654Q354 663 356 683H410Q416 659 415.5 636Q415 613 406.5 595Q398 577 381.5 566Q365 555 341 555Q322 555 305.5 560.5Q289 566 274 572Q259 578 246 583.5Q233 589 221 589Q207 589 201.5 580Q196 571 194 551H141Z" glyph-name="ntilde" horiz-adv-x="542" unicode="&#241;" /><glyph d="M264 181H186L157 0H70L99 181H27V280H115L130 376H57V475H146L173 639H260L233 475H311L338 639H425L398 475H471V376H382L367 280H440V181H351L322 0H235ZM202 280H280L295 376H217Z" glyph-name="numbersign" horiz-adv-x="498" unicode="#" /><glyph d="M271 -11Q223 -11 179.5 4Q136 19 102 50.5Q68 82 48 131Q28 180 28 248V250Q28 308 46 354Q64 400 96.5 431.5Q129 463 173.5 480Q218 497 271 497Q324 497 369 480Q414 463 446.5 431.5Q479 400 497 354.5Q515 309 515 251V249Q515 181 495 131.5Q475 82 441 50.5Q407 19 363 4Q319 -11 271 -11ZM271 72Q295 72 316 80Q337 88 352.5 107Q368 126 377 157Q386 188 386 234V270Q386 339 354.5 375.5Q323 412 271 412Q219 412 188 375.5Q157 339 157 270V234Q157 188 166 157Q175 126 190 107Q205 88 226 80Q247 72 271 72Z" glyph-name="o" horiz-adv-x="543" unicode="o" /><glyph d="M274 681H427L300 539H223ZM271 -11Q223 -11 179.5 4Q136 19 102 50.5Q68 82 48 131Q28 180 28 248V250Q28 308 46 354Q64 400 96.5 431.5Q129 463 173.5 480Q218 497 271 497Q324 497 369 480Q414 463 446.5 431.5Q479 400 497 354.5Q515 309 515 251V249Q515 181 495 131.5Q475 82 441 50.5Q407 19 363 4Q319 -11 271 -11ZM271 72Q295 72 316 80Q337 88 352.5 107Q368 126 377 157Q386 188 386 234V270Q386 339 354.5 375.5Q323 412 271 412Q219 412 188 375.5Q157 339 157 270V234Q157 188 166 157Q175 126 190 107Q205 88 226 80Q247 72 271 72Z" glyph-name="oacute" horiz-adv-x="543" unicode="&#243;" /><glyph d="M207 677H335L421 539H340L271 604L202 539H121ZM271 -11Q223 -11 179.5 4Q136 19 102 50.5Q68 82 48 131Q28 180 28 248V250Q28 308 46 354Q64 400 96.5 431.5Q129 463 173.5 480Q218 497 271 497Q324 497 369 480Q414 463 446.5 431.5Q479 400 497 354.5Q515 309 515 251V249Q515 181 495 131.5Q475 82 441 50.5Q407 19 363 4Q319 -11 271 -11ZM271 72Q295 72 316 80Q337 88 352.5 107Q368 126 377 157Q386 188 386 234V270Q386 339 354.5 375.5Q323 412 271 412Q219 412 188 375.5Q157 339 157 270V234Q157 188 166 157Q175 126 190 107Q205 88 226 80Q247 72 271 72Z" glyph-name="ocircumflex" horiz-adv-x="543" unicode="&#244;" /><glyph d="M176 538Q148 538 128 557.5Q108 577 108 605Q108 632 128 651.5Q148 671 176 671Q204 671 224 651.5Q244 632 244 605Q244 577 224 557.5Q204 538 176 538ZM366 538Q338 538 318 557.5Q298 577 298 605Q298 632 318 651.5Q338 671 366 671Q394 671 414 651.5Q434 632 434 605Q434 577 414 557.5Q394 538 366 538ZM271 -11Q223 -11 179.5 4Q136 19 102 50.5Q68 82 48 131Q28 180 28 248V250Q28 308 46 354Q64 400 96.5 431.5Q129 463 173.5 480Q218 497 271 497Q324 497 369 480Q414 463 446.5 431.5Q479 400 497 354.5Q515 309 515 251V249Q515 181 495 131.5Q475 82 441 50.5Q407 19 363 4Q319 -11 271 -11ZM271 72Q295 72 316 80Q337 88 352.5 107Q368 126 377 157Q386 188 386 234V270Q386 339 354.5 375.5Q323 412 271 412Q219 412 188 375.5Q157 339 157 270V234Q157 188 166 157Q175 126 190 107Q205 88 226 80Q247 72 271 72Z" glyph-name="odieresis" horiz-adv-x="543" unicode="&#246;" /><glyph d="M645 -11Q569 -11 521 18Q473 47 449 104Q422 44 374 16.5Q326 -11 267 -11Q220 -11 177 4Q134 19 101 50.5Q68 82 48 131Q28 180 28 248V250Q28 308 46 354Q64 400 96 431.5Q128 463 171.5 480Q215 497 267 497Q332 497 378.5 468.5Q425 440 450 384Q473 439 518 468Q563 497 628 497Q680 497 718.5 481Q757 465 782.5 437.5Q808 410 820.5 372.5Q833 335 833 293Q833 270 829.5 251Q826 232 821 216H513Q517 142 556.5 113.5Q596 85 668 85Q716 85 754 95.5Q792 106 814 118V48Q798 26 753.5 7.5Q709 -11 645 -11ZM271 72Q295 72 316 80Q337 88 352.5 107Q368 126 377 157Q386 188 386 234V270Q386 339 354.5 375.5Q323 412 271 412Q219 412 188 375.5Q157 339 157 270V234Q157 188 166 157Q175 126 190 107Q205 88 226 80Q247 72 271 72ZM624 414Q575 414 545 380.5Q515 347 513 280H719V290Q719 356 693 385Q667 414 624 414Z" glyph-name="oe" horiz-adv-x="858" unicode="&#339;" /><glyph d="M210 -155Q165 -155 141.5 -136Q118 -117 118 -85Q118 -52 145 -30.5Q172 -9 209 0H269Q234 -19 225 -35Q216 -51 216 -62Q216 -88 244 -88Q253 -88 260.5 -86Q268 -84 273 -82V-135Q258 -155 210 -155Z" glyph-name="ogonek" horiz-adv-x="400" unicode="&#731;" /><glyph d="M271 -11Q223 -11 179.5 4Q136 19 102 50.5Q68 82 48 131Q28 180 28 248V250Q28 308 46 354Q64 400 96.5 431.5Q129 463 173.5 480Q218 497 271 497Q324 497 369 480Q414 463 446.5 431.5Q479 400 497 354.5Q515 309 515 251V249Q515 181 495 131.5Q475 82 441 50.5Q407 19 363 4Q319 -11 271 -11ZM271 72Q295 72 316 80Q337 88 352.5 107Q368 126 377 157Q386 188 386 234V270Q386 339 354.5 375.5Q323 412 271 412Q219 412 188 375.5Q157 339 157 270V234Q157 188 166 157Q175 126 190 107Q205 88 226 80Q247 72 271 72ZM118 681H271L321 539H241Z" glyph-name="ograve" horiz-adv-x="543" unicode="&#242;" /><glyph d="M168 528 29 381H26V509L149 639H297V0H168Z" glyph-name="one" horiz-adv-x="373" unicode="1" /><glyph d="M161 0H79L568 639H651ZM100 560 21 479H19V568L90 639H198V258H100ZM463 93Q506 118 538 139Q570 160 590 180Q610 200 620 219Q630 238 630 258Q630 290 613 301.5Q596 313 567 313Q538 313 514 304Q490 295 471 283V342Q487 359 515.5 374.5Q544 390 592 390Q621 390 646 383Q671 376 690 361Q709 346 719.5 321.5Q730 297 730 263Q730 201 679 155Q628 109 525 71V70H730V0H463Z" glyph-name="onehalf" horiz-adv-x="761" unicode="&#189;" /><glyph d="M662 381V137H713V69H662V0H567V69H394V152L543 381ZM161 0H79L568 639H651ZM100 560 21 479H19V568L90 639H198V258H100ZM455 137H567V306Z" glyph-name="onequarter" horiz-adv-x="731" unicode="&#188;" /><glyph d="M118 303Q76 303 49 327Q22 351 22 391V392Q22 418 32.5 434.5Q43 451 61 461.5Q79 472 102 478.5Q125 485 151 491Q186 499 201 506.5Q216 514 216 530V531Q216 548 202 559Q188 570 149 570Q112 570 84 559Q56 548 43 539V597Q55 612 86.5 629.5Q118 647 175 647Q250 647 282 611Q314 575 314 511V402Q314 374 314.5 356.5Q315 339 316 329Q317 317 319 311H233Q230 318 226 327Q223 335 220.5 345.5Q218 356 217 369Q197 303 118 303ZM162 357Q184 357 200 376Q216 395 216 430V476Q208 468 197 462.5Q186 457 173 452Q147 441 134.5 430.5Q122 420 122 401V397Q122 357 162 357Z" glyph-name="ordfeminine" horiz-adv-x="351" unicode="&#170;" /><glyph d="M194 304Q161 304 130.5 314Q100 324 76 345Q52 366 38 399Q24 432 24 478V480Q24 520 37 551Q50 582 72.5 603.5Q95 625 126 636Q157 647 194 647Q230 647 261.5 636Q293 625 315.5 603.5Q338 582 351 551Q364 520 364 481V479Q364 432 350 399Q336 366 312 345Q288 324 257.5 314Q227 304 194 304ZM194 366Q208 366 220.5 371Q233 376 242.5 388Q252 400 257.5 419.5Q263 439 263 469V493Q263 538 244 560Q225 582 194 582Q163 582 144 560Q125 538 125 493V469Q125 410 145 388Q165 366 194 366Z" glyph-name="ordmasculine" horiz-adv-x="388" unicode="&#186;" /><glyph d="M453 425Q482 393 498.5 349.5Q515 306 515 251V249Q515 181 495 131.5Q475 82 441 50.5Q407 19 363 4Q319 -11 271 -11Q234 -11 199 -2.5Q164 6 135 25L100 -19H28L91 61Q62 93 45 139Q28 185 28 248V250Q28 308 46 354Q64 400 96.5 431.5Q129 463 173.5 480Q218 497 271 497Q349 497 408 461L440 501H513ZM388 270Q388 308 381 335L191 95Q216 71 271 71Q296 71 317 79.5Q338 88 354 107Q370 126 379 157Q388 188 388 234ZM155 234Q155 181 162 150L351 388Q324 412 271 412Q219 412 187 375.5Q155 339 155 270Z" glyph-name="oslash" horiz-adv-x="543" unicode="&#248;" /><glyph d="M271 -11Q223 -11 179.5 4Q136 19 102 50.5Q68 82 48 131Q28 180 28 248V250Q28 308 46 354Q64 400 96.5 431.5Q129 463 173.5 480Q218 497 271 497Q324 497 369 480Q414 463 446.5 431.5Q479 400 497 354.5Q515 309 515 251V249Q515 181 495 131.5Q475 82 441 50.5Q407 19 363 4Q319 -11 271 -11ZM271 72Q295 72 316 80Q337 88 352.5 107Q368 126 377 157Q386 188 386 234V270Q386 339 354.5 375.5Q323 412 271 412Q219 412 188 375.5Q157 339 157 270V234Q157 188 166 157Q175 126 190 107Q205 88 226 80Q247 72 271 72ZM136 551Q129 575 130 598Q131 621 140 639Q149 657 166 668Q183 679 209 679Q230 679 247 673.5Q264 668 278 662Q292 656 303.5 650.5Q315 645 326 645Q340 645 344.5 654Q349 663 351 683H405Q411 659 410.5 636Q410 613 401.5 595Q393 577 376.5 566Q360 555 336 555Q317 555 300.5 560.5Q284 566 269 572Q254 578 241 583.5Q228 589 216 589Q202 589 196.5 580Q191 571 189 551H136Z" glyph-name="otilde" horiz-adv-x="543" unicode="&#245;" /><glyph d="M48 485H149Q156 468 161 450Q166 434 169.5 412.5Q173 391 173 368V363Q179 391 193.5 415.5Q208 440 229.5 458Q251 476 280 486.5Q309 497 344 497Q391 497 427.5 479Q464 461 489 428.5Q514 396 527 350.5Q540 305 540 251V250Q540 186 524.5 137.5Q509 89 482 56Q455 23 418 6Q381 -11 337 -11Q271 -11 230 20.5Q189 52 175 106V-146H48ZM300 77Q351 77 381.5 115Q412 153 412 238V271Q412 333 383 368.5Q354 404 300 404Q248 404 211.5 367.5Q175 331 175 263V244Q175 199 185 167.5Q195 136 212 116Q229 96 251.5 86.5Q274 77 300 77Z" glyph-name="p" horiz-adv-x="569" unicode="p" /><glyph d="M217 -98V280H212Q124 280 76.5 327Q29 374 29 462Q29 545 75 592Q121 639 205 639H310V-98ZM359 -98V639H452V-98Z" glyph-name="paragraph" horiz-adv-x="518" unicode="&#182;" /><glyph d="M162 266Q162 204 173 151Q184 98 202 53Q220 8 244.5 -28.5Q269 -65 296 -93V-98H196Q177 -81 150.5 -49Q124 -17 100 29.5Q76 76 59 137.5Q42 199 42 275V308Q42 380 59 439.5Q76 499 100 545.5Q124 592 150.5 624Q177 656 196 673H296V668Q269 641 244.5 603Q220 565 202 519.5Q184 474 173 422.5Q162 371 162 317Z" glyph-name="parenleft" horiz-adv-x="316" unicode="(" /><glyph d="M155 309Q155 370 144 423.5Q133 477 114.5 522Q96 567 72 603.5Q48 640 21 668V673H121Q140 656 166.5 624Q193 592 217 545.5Q241 499 258 437.5Q275 376 275 300V267Q275 195 258 135.5Q241 76 217 29.5Q193 -17 166.5 -49Q140 -81 121 -98H21V-93Q48 -66 72 -28Q96 10 114.5 55.5Q133 101 144 152.5Q155 204 155 258Z" glyph-name="parenright" horiz-adv-x="316" unicode=")" /><glyph d="M669 152Q669 111 657 80Q645 49 624.5 28.5Q604 8 576 -2.5Q548 -13 516 -13Q485 -13 457 -2.5Q429 8 408 28.5Q387 49 375 80Q363 111 363 152V160Q363 197 374.5 226.5Q386 256 406.5 276.5Q427 297 455 308Q483 319 516 319Q583 319 626 277Q669 235 669 160ZM462 138Q462 90 476.5 71.5Q491 53 516 53Q542 53 556.5 71.5Q571 90 571 138V175Q571 214 558 231Q545 248 516 248Q489 248 475.5 231Q462 214 462 175ZM178 387Q204 387 218.5 405Q233 423 233 471V509Q233 547 220 564.5Q207 582 178 582Q151 582 137.5 564.5Q124 547 124 509V471Q124 423 138.5 405Q153 387 178 387ZM178 321Q147 321 119.5 331.5Q92 342 71 362.5Q50 383 38 413.5Q26 444 26 485V493Q26 530 37.5 560Q49 590 69.5 610.5Q90 631 117.5 642Q145 653 178 653Q212 653 240 642Q268 631 288.5 610.5Q309 590 320.5 560Q332 530 332 493V485Q332 444 320 413.5Q308 383 287 362.5Q266 342 238 331.5Q210 321 178 321ZM170 0H87L527 639H610Z" glyph-name="percent" horiz-adv-x="695" unicode="%" /><glyph d="M113 -9Q82 -9 59 14Q36 37 36 69Q36 102 59 125.5Q82 149 113 149Q146 149 169 125.5Q192 102 192 69Q192 37 169 14Q146 -9 113 -9Z" glyph-name="period" horiz-adv-x="228" unicode="." /><glyph d="M113 241Q82 241 59 264Q36 287 36 319Q36 352 59 375.5Q82 399 113 399Q146 399 169 375.5Q192 352 192 319Q192 287 169 264Q146 241 113 241Z" glyph-name="periodcentered" horiz-adv-x="228" unicode="&#183;" /><glyph d="M854 53Q880 53 894.5 71.5Q909 90 909 138V175Q909 214 896 231Q883 248 854 248Q827 248 813.5 231Q800 214 800 175V138Q800 90 814.5 71.5Q829 53 854 53ZM854 -13Q823 -13 795 -2.5Q767 8 746 28.5Q725 49 713 80Q701 111 701 152V160Q701 197 712.5 226.5Q724 256 744.5 276.5Q765 297 793 308Q821 319 854 319Q921 319 964 277Q1007 235 1007 160V152Q1007 111 995 80Q983 49 962.5 28.5Q942 8 914 -2.5Q886 -13 854 -13ZM516 -13Q485 -13 457 -2.5Q429 8 408 28.5Q387 49 375 80Q363 111 363 152V160Q363 197 374.5 226.5Q386 256 406.5 276.5Q427 297 455 308Q483 319 516 319Q583 319 626 277Q669 235 669 160V152Q669 111 657 80Q645 49 624.5 28.5Q604 8 576 -2.5Q548 -13 516 -13ZM516 53Q542 53 556.5 71.5Q571 90 571 138V175Q571 214 558 231Q545 248 516 248Q489 248 475.5 231Q462 214 462 175V138Q462 90 476.5 71.5Q491 53 516 53ZM178 387Q204 387 218.5 405Q233 423 233 471V509Q233 547 220 564.5Q207 582 178 582Q151 582 137.5 564.5Q124 547 124 509V471Q124 423 138.5 405Q153 387 178 387ZM178 321Q147 321 119.5 331.5Q92 342 71 362.5Q50 383 38 413.5Q26 444 26 485V493Q26 530 37.5 560Q49 590 69.5 610.5Q90 631 117.5 642Q145 653 178 653Q212 653 240 642Q268 631 288.5 610.5Q309 590 320.5 560Q332 530 332 493V485Q332 444 320 413.5Q308 383 287 362.5Q266 342 238 331.5Q210 321 178 321ZM527 639H610L170 0H87Z" glyph-name="perthousand" horiz-adv-x="1033" unicode="&#8240;" /><glyph d="M286 365H427V265H286V114H183V265H42V365H183V515H286Z" glyph-name="plus" horiz-adv-x="469" unicode="+" /><glyph d="M286 392H427V292H286V160H183V292H42V392H183V523H286ZM42 99H427V0H42Z" glyph-name="plusminus" horiz-adv-x="476" unicode="&#177;" /><glyph d="M394 110Q380 58 339.5 23Q299 -12 228 -12Q181 -12 144.5 7Q108 26 82 60.5Q56 95 42.5 143Q29 191 29 248V249Q29 310 45 356Q61 402 88.5 433Q116 464 153 480Q190 496 233 496Q302 496 341.5 465Q381 434 402 378Q404 399 408 418.5Q412 438 417 453Q422 471 429 485H521V-146H394ZM270 78Q296 78 318.5 88.5Q341 99 358 119Q375 139 384.5 167.5Q394 196 394 232V250Q394 291 384.5 320.5Q375 350 358 368.5Q341 387 318.5 396Q296 405 270 405Q219 405 188.5 371.5Q158 338 158 266V232Q158 161 187 119.5Q216 78 270 78Z" glyph-name="q" horiz-adv-x="569" unicode="q" /><glyph d="M166 -9Q135 -9 111.5 13.5Q88 36 88 67Q88 99 111 122Q134 145 165 145Q181 145 195.5 138.5Q210 132 220.5 121.5Q231 111 237 97Q243 83 243 67Q243 36 220.5 13.5Q198 -9 166 -9ZM111 195V237Q111 268 119.5 291.5Q128 315 141.5 334.5Q155 354 171.5 369.5Q188 385 203 400Q222 419 235.5 438.5Q249 458 249 484Q249 559 160 559Q85 559 25 522V605Q45 629 87.5 646.5Q130 664 190 664Q228 664 262 654Q296 644 321 623Q346 602 360.5 569.5Q375 537 375 492Q375 466 369.5 445Q364 424 354 407Q344 390 330.5 375Q317 360 301 345Q284 329 267.5 315.5Q251 302 237.5 287.5Q224 273 215.5 255.5Q207 238 207 214V195Z" glyph-name="question" horiz-adv-x="402" unicode="?" /><glyph d="M237 554Q268 554 291 531.5Q314 509 314 478Q314 446 291 423Q268 400 237 400Q221 400 206.5 406.5Q192 413 181.5 423.5Q171 434 165 448Q159 462 159 478Q159 493 165 507Q171 521 181.5 531.5Q192 542 206.5 548Q221 554 237 554ZM291 350V308Q291 277 282 253.5Q273 230 259.5 210.5Q246 191 230 175.5Q214 160 199 145Q180 126 166.5 106.5Q153 87 153 61Q153 -14 243 -14Q317 -14 377 23V-60Q357 -84 314.5 -101.5Q272 -119 212 -119Q174 -119 140 -109Q106 -99 81 -78Q56 -57 41.5 -24.5Q27 8 27 53Q27 105 48 137.5Q69 170 101 200Q118 216 134.5 229.5Q151 243 164.5 257.5Q178 272 186.5 289.5Q195 307 195 331V350Z" glyph-name="questiondown" horiz-adv-x="402" unicode="&#191;" /><glyph d="M54 423 36 639H157L139 423ZM218 423 201 639H322L304 423Z" glyph-name="quotedbl" horiz-adv-x="358" unicode="&quot;" /><glyph d="M24 -81Q55 2 55 85Q55 110 50 135H169Q172 121 172 103Q172 47 155 4Q138 -39 104 -81ZM198 -81Q230 4 230 85Q230 110 225 135H344Q345 128 345.5 120Q346 112 346 103Q346 47 329.5 4Q313 -39 279 -81Z" glyph-name="quotedblbase" horiz-adv-x="386" unicode="&#8222;" /><glyph d="M187 639Q156 556 156 473Q156 448 161 423H41Q40 431 39.5 438.5Q39 446 39 455Q39 512 56 554.5Q73 597 106 639ZM362 639Q331 556 331 473Q331 460 332 447Q333 434 336 423H216Q215 431 214.5 438.5Q214 446 214 455Q214 512 231 554.5Q248 597 282 639Z" glyph-name="quotedblleft" horiz-adv-x="386" unicode="&#8220;" /><glyph d="M24 423Q55 506 55 589Q55 614 50 639H169Q172 624 172 607Q172 550 155 507.5Q138 465 104 423ZM198 423Q230 508 230 589Q230 614 225 639H344Q345 631 345.5 623.5Q346 616 346 607Q346 550 329.5 507.5Q313 465 279 423Z" glyph-name="quotedblright" horiz-adv-x="386" unicode="&#8221;" /><glyph d="M187 639Q156 556 156 473Q156 448 161 423H41Q40 431 39.5 438.5Q39 446 39 455Q39 512 56 554.5Q73 597 106 639Z" glyph-name="quoteleft" horiz-adv-x="211" unicode="&#8216;" /><glyph d="M24 423Q55 506 55 589Q55 614 50 639H169Q172 624 172 607Q172 550 155 507.5Q138 465 104 423Z" glyph-name="quoteright" horiz-adv-x="211" unicode="&#8217;" /><glyph d="M24 -81Q55 2 55 85Q55 110 50 135H169Q172 121 172 103Q172 47 155 4Q138 -39 104 -81Z" glyph-name="quotesinglbase" horiz-adv-x="211" unicode="&#8218;" /><glyph d="M54 423 36 639H162L144 423Z" glyph-name="quotesingle" horiz-adv-x="198" unicode="&apos;" /><glyph d="M48 485H149Q156 468 161 448Q166 431 169.5 408Q173 385 173 359V332Q181 378 195 408.5Q209 439 227 457.5Q245 476 265.5 484Q286 492 306 492Q326 492 336 485.5Q346 479 352 469V376Q309 377 276 368.5Q243 360 220.5 339.5Q198 319 186.5 284.5Q175 250 175 199V0H48Z" glyph-name="r" horiz-adv-x="367" unicode="r" /><glyph d="M185 334Q151 334 122 346.5Q93 359 71.5 380.5Q50 402 38 430.5Q26 459 26 491Q26 523 38 551.5Q50 580 71.5 601.5Q93 623 122 635.5Q151 648 185 648Q219 648 248 635.5Q277 623 298 601.5Q319 580 331 551.5Q343 523 343 491Q343 459 331 430.5Q319 402 298 380.5Q277 359 248 346.5Q219 334 185 334ZM185 367Q212 367 234.5 376.5Q257 386 272.5 403Q288 420 297 442.5Q306 465 306 491Q306 517 297 539.5Q288 562 272.5 579Q257 596 234.5 606Q212 616 185 616Q158 616 135.5 606Q113 596 96.5 579Q80 562 71 539.5Q62 517 62 491Q62 465 71 442.5Q80 420 96.5 403Q113 386 135.5 376.5Q158 367 185 367ZM170 477V418H126V572H190Q219 572 235.5 560Q252 548 252 525Q252 487 216 480L260 418H210ZM184 500Q198 500 203 505Q208 510 208 521Q208 541 186 541H170V500Z" glyph-name="registered" horiz-adv-x="369" unicode="&#174;" /><glyph d="M95 636Q95 657 102.5 675Q110 693 123.5 707Q137 721 155.5 729Q174 737 195 737Q216 737 235 729Q254 721 267.5 707Q281 693 289 675Q297 657 297 636Q297 615 289 597Q281 579 267.5 565.5Q254 552 235 544Q216 536 195 536Q174 536 155.5 544Q137 552 123.5 565.5Q110 579 102.5 597Q95 615 95 636ZM151 636Q151 613 164 600.5Q177 588 195 588Q215 588 227.5 600.5Q240 613 240 636Q240 658 227.5 671.5Q215 685 195 685Q177 685 164 671.5Q151 658 151 636Z" glyph-name="ring" horiz-adv-x="390" unicode="&#730;" /><glyph d="M152 763Q152 741 164.5 728.5Q177 716 195 716Q215 716 227.5 728.5Q240 741 240 763Q240 784 227.5 797.5Q215 811 195 811Q177 811 164.5 797.5Q152 784 152 763ZM95 763Q95 784 102.5 802Q110 820 123.5 833.5Q137 847 155.5 855Q174 863 195 863Q216 863 235 855Q254 847 267.5 833.5Q281 820 289 802Q297 784 297 763Q297 742 289 724Q281 706 267.5 692.5Q254 679 235 671Q216 663 195 663Q174 663 155.5 671Q137 679 123.5 692.5Q110 706 102.5 724Q95 742 95 763Z" glyph-name="ring.uc" horiz-adv-x="390" /><glyph d="M203 -13Q140 -13 96.5 2Q53 17 27 40V121Q58 101 96.5 89Q135 77 188 77Q239 77 261.5 91Q284 105 284 135Q284 166 253 179Q240 184 221 187Q202 190 180 194Q158 198 136 203.5Q114 209 96 218Q60 237 44 266.5Q28 296 28 340Q28 382 44 412Q60 442 87 461Q114 480 149 488.5Q184 497 222 497Q271 497 310.5 485.5Q350 474 372 455V374Q346 387 309.5 397Q273 407 228 407Q188 407 163 394Q138 381 138 351Q138 336 144.5 326Q151 316 168 309Q186 302 208 298.5Q230 295 252.5 291Q275 287 296.5 282Q318 277 335 267Q370 249 385 221Q400 193 400 149Q400 108 385.5 78Q371 48 345 27.5Q319 7 282.5 -3Q246 -13 203 -13Z" glyph-name="s" horiz-adv-x="423" unicode="s" /><glyph d="M63 677H144L213 612L282 677H363L277 539H149ZM203 -13Q140 -13 96.5 2Q53 17 27 40V121Q58 101 96.5 89Q135 77 188 77Q239 77 261.5 91Q284 105 284 135Q284 166 253 179Q240 184 221 187Q202 190 180 194Q158 198 136 203.5Q114 209 96 218Q60 237 44 266.5Q28 296 28 340Q28 382 44 412Q60 442 87 461Q114 480 149 488.5Q184 497 222 497Q271 497 310.5 485.5Q350 474 372 455V374Q346 387 309.5 397Q273 407 228 407Q188 407 163 394Q138 381 138 351Q138 336 144.5 326Q151 316 168 309Q186 302 208 298.5Q230 295 252.5 291Q275 287 296.5 282Q318 277 335 267Q370 249 385 221Q400 193 400 149Q400 108 385.5 78Q371 48 345 27.5Q319 7 282.5 -3Q246 -13 203 -13Z" glyph-name="scaron" horiz-adv-x="423" unicode="&#353;" /><glyph d="M413 528Q387 541 352.5 551.5Q318 562 271 562Q231 562 207 551Q183 540 183 511Q183 481 215 468Q233 461 258 455.5Q283 450 311 444Q339 438 367 430.5Q395 423 420 411Q482 380 482 311Q482 261 452.5 230.5Q423 200 372 191Q402 175 421 149Q440 123 440 78Q440 39 426.5 10Q413 -19 388 -38.5Q363 -58 329 -68Q295 -78 253 -78Q186 -78 145 -62Q104 -46 77 -22V56Q109 36 144.5 23Q180 10 236 10Q284 10 303 23.5Q322 37 322 67Q322 96 289 109Q276 114 252.5 118.5Q229 123 201 129Q173 135 144 143Q115 151 93 163Q60 180 44.5 206.5Q29 233 29 268Q29 321 60 347.5Q91 374 141 384Q109 400 91.5 427.5Q74 455 74 500Q74 538 88 566.5Q102 595 127 614Q152 633 185.5 642.5Q219 652 258 652Q314 652 353 639.5Q392 627 413 607ZM308 224Q335 224 354.5 238Q374 252 374 278Q374 298 364 309Q354 320 332 326Q318 330 300 335Q282 340 263 344Q244 348 226.5 350.5Q209 353 196 353Q169 353 149 338.5Q129 324 129 299Q129 282 137 271.5Q145 261 164 253Q176 248 194 242.5Q212 237 231.5 233Q251 229 271 226.5Q291 224 308 224Z" glyph-name="section" horiz-adv-x="511" unicode="&#167;" /><glyph d="M23 -90Q60 2 60 88Q60 114 55 142H182Q185 125 185 108Q185 47 165.5 1Q146 -45 107 -90ZM121 297Q89 297 66 320Q43 343 43 375Q43 408 66 431.5Q89 455 121 455Q153 455 176 431.5Q199 408 199 375Q199 359 193 345Q187 331 176.5 320.5Q166 310 151.5 303.5Q137 297 121 297Z" glyph-name="semicolon" horiz-adv-x="228" unicode=";" /><glyph d="M22 639H458V501L230 0H97L340 533H22Z" glyph-name="seven" horiz-adv-x="488" unicode="7" /><glyph d="M478 631Q425 605 376.5 573.5Q328 542 287.5 504.5Q247 467 218 423.5Q189 380 176 332Q196 367 233 391Q270 415 327 415Q377 415 416 400Q455 385 481.5 358Q508 331 522 293.5Q536 256 536 211V206Q536 155 519.5 114.5Q503 74 471.5 45Q440 16 395 0.5Q350 -15 293 -15Q235 -15 187 2.5Q139 20 105 53Q71 86 52.5 133Q34 180 34 239V258Q34 335 62 397.5Q90 460 130 507.5Q170 555 215 588Q260 621 295 639H478ZM288 331Q234 331 202 302.5Q170 274 168 224V198Q168 142 200 108Q232 74 290 74Q348 74 376.5 108Q405 142 405 197V212Q405 237 398.5 258.5Q392 280 378 296Q364 312 341.5 321.5Q319 331 288 331Z" glyph-name="six" horiz-adv-x="566" unicode="6" /><glyph d="M104 -98H-1L227 673H332Z" glyph-name="slash" horiz-adv-x="348" unicode="/" /><glyph glyph-name="space" horiz-adv-x="184" unicode=" " /><glyph d="M126 -177Q137 -154 142 -132.5Q147 -111 147 -91Q147 -77 145.5 -66.5Q144 -56 142 -46H251Q255 -57 255 -72Q255 -101 242.5 -129Q230 -157 202 -177Z" glyph-name="space_uni0326" horiz-adv-x="400" /><glyph d="M271 684Q260 661 255 639.5Q250 618 250 598Q250 584 251.5 573.5Q253 563 255 553H146Q142 564 142 579Q142 608 154.5 636Q167 664 195 684Z" glyph-name="space_uni0326.alt" horiz-adv-x="400" /><glyph d="M37 353H91V441Q91 540 146 596.5Q201 653 298 653Q361 653 397 634.5Q433 616 453 589V502Q430 520 398.5 534Q367 548 319 548Q268 548 242 521Q216 494 216 429V353H371V269H216Q214 202 183.5 162.5Q153 123 98 100V99H448V0H24V135Q58 154 74.5 181.5Q91 209 91 260V269H37Z" glyph-name="sterling" horiz-adv-x="485" unicode="&#163;" /><glyph d="M238 -13Q209 -13 181 -6Q153 1 131 18.5Q109 36 95.5 65.5Q82 95 82 139V399H16V467Q47 469 66.5 478.5Q86 488 98.5 506Q111 524 118 552Q125 580 133 619H208V485H353V399H208V161Q208 114 227 96.5Q246 79 285 79Q305 79 322 83Q339 87 356 93V33Q344 16 316 1.5Q288 -13 238 -13Z" glyph-name="t" horiz-adv-x="381" unicode="t" /><glyph d="M337 -11Q271 -11 230 21Q189 53 175 106V-146H48V673H175V372Q182 396 196 419Q210 442 231.5 459Q253 476 281 486.5Q309 497 344 497Q391 497 427.5 479Q464 461 489 428.5Q514 396 527 350.5Q540 305 540 251V250Q540 186 524.5 137.5Q509 89 482 56Q455 23 418 6Q381 -11 337 -11ZM300 77Q351 77 381.5 115Q412 153 412 238V271Q412 333 383 368.5Q354 404 300 404Q248 404 211.5 367.5Q175 331 175 263V244Q175 199 185 167.5Q195 136 212 116Q229 96 251.5 86.5Q274 77 300 77Z" glyph-name="thorn" horiz-adv-x="569" unicode="&#254;" /><glyph d="M235 653Q280 653 319.5 642.5Q359 632 387.5 611Q416 590 432.5 558Q449 526 449 484Q449 421 411 380.5Q373 340 295 331V328Q380 320 425 281.5Q470 243 470 172Q470 84 407.5 37Q345 -10 232 -10Q190 -10 157.5 -3.5Q125 3 100 13.5Q75 24 57 37Q39 50 27 64V152Q59 125 103.5 108Q148 91 212 91Q273 91 304.5 116.5Q336 142 336 190Q336 237 307 260.5Q278 284 210 284H129V373H208Q267 373 293 395.5Q319 418 319 461Q319 545 207 545Q153 545 116.5 531Q80 517 50 497V583Q75 610 119.5 631.5Q164 653 235 653Z" glyph-name="three" horiz-adv-x="503" unicode="3" /><glyph d="M725 381V137H776V69H725V0H630V69H456V152L606 381ZM147 648Q175 648 200 642Q225 636 244 624Q263 612 273.5 593Q284 574 284 548Q284 510 259.5 485Q235 460 182 455V453Q239 448 267.5 426Q296 404 296 359Q296 305 254.5 278.5Q213 252 141 252Q89 252 59 265.5Q29 279 15 296V357Q34 342 61 332.5Q88 323 127 323Q159 323 177 335.5Q195 348 195 374Q195 423 125 423H80V484H124Q156 484 170 496.5Q184 509 184 529Q184 549 169.5 560Q155 571 122 571Q89 571 67.5 564Q46 557 28 546V604Q44 622 73 635Q102 648 147 648ZM225 0H142L632 639H714ZM518 137H630V306Z" glyph-name="threequarters" horiz-adv-x="794" unicode="&#190;" /><glyph d="M65 551Q58 575 59 598Q60 621 69 639Q78 657 95 668Q112 679 138 679Q159 679 176 673.5Q193 668 207 662Q221 656 232.5 650.5Q244 645 255 645Q269 645 273.5 654Q278 663 280 683H334Q340 659 339.5 636Q339 613 330.5 595Q322 577 305.5 566Q289 555 265 555Q246 555 229.5 560.5Q213 566 198 572Q183 578 170 583.5Q157 589 145 589Q131 589 125.5 580Q120 571 118 551H65Z" glyph-name="tilde" horiz-adv-x="400" unicode="&#732;" /><glyph d="M59 681Q52 705 53.5 728Q55 751 64 769.5Q73 788 90.5 799Q108 810 133 810Q155 810 173.5 804.5Q192 799 207.5 793Q223 787 236 781.5Q249 776 260 776Q275 776 279.5 785Q284 794 286 814H340Q347 790 346 767Q345 744 336 725.5Q327 707 310 696Q293 685 269 685Q249 685 231 690Q213 695 197 701.5Q181 708 166.5 713Q152 718 139 718Q125 718 120 709.5Q115 701 113 681H59Z" glyph-name="tilde.uc" horiz-adv-x="400" /><glyph d="M477 590 428 406H368L320 586V406H258V639H359L400 490L441 639H546V406H477ZM86 582H21V639H222V582H156V406H86Z" glyph-name="trademark" horiz-adv-x="588" unicode="&#8482;" /><glyph d="M25 133Q100 179 154.5 219Q209 259 245 296.5Q281 334 298 370Q315 406 315 444Q315 501 284 523Q253 545 203 545Q151 545 110 528Q69 511 38 489V577Q51 591 68.5 604.5Q86 618 109 629Q132 640 162 646.5Q192 653 230 653Q276 653 316.5 642Q357 631 386 607Q415 583 432 544Q449 505 449 449Q449 345 362.5 260.5Q276 176 110 100V99H452V0H25Z" glyph-name="two" horiz-adv-x="490" unicode="2" /><glyph d="M207 -12Q130 -12 87.5 32Q45 76 45 172V485H171V174Q171 123 191 100.5Q211 78 252 78Q303 78 334.5 115.5Q366 153 366 222V485H492V0H392Q385 17 381 35Q376 51 373 71Q370 91 370 113V119Q354 57 311 22.5Q268 -12 207 -12Z" glyph-name="u" horiz-adv-x="541" unicode="u" /><glyph d="M274 681H427L300 539H223ZM207 -12Q130 -12 87.5 32Q45 76 45 172V485H171V174Q171 123 191 100.5Q211 78 252 78Q303 78 334.5 115.5Q366 153 366 222V485H492V0H392Q385 17 381 35Q376 51 373 71Q370 91 370 113V119Q354 57 311 22.5Q268 -12 207 -12Z" glyph-name="uacute" horiz-adv-x="541" unicode="&#250;" /><glyph d="M205 677H333L419 539H338L269 604L200 539H119ZM207 -12Q130 -12 87.5 32Q45 76 45 172V485H171V174Q171 123 191 100.5Q211 78 252 78Q303 78 334.5 115.5Q366 153 366 222V485H492V0H392Q385 17 381 35Q376 51 373 71Q370 91 370 113V119Q354 57 311 22.5Q268 -12 207 -12Z" glyph-name="ucircumflex" horiz-adv-x="541" unicode="&#251;" /><glyph d="M174 538Q146 538 126 557.5Q106 577 106 605Q106 632 126 651.5Q146 671 174 671Q202 671 222 651.5Q242 632 242 605Q242 577 222 557.5Q202 538 174 538ZM364 538Q336 538 316 557.5Q296 577 296 605Q296 632 316 651.5Q336 671 364 671Q392 671 412 651.5Q432 632 432 605Q432 577 412 557.5Q392 538 364 538ZM207 -12Q130 -12 87.5 32Q45 76 45 172V485H171V174Q171 123 191 100.5Q211 78 252 78Q303 78 334.5 115.5Q366 153 366 222V485H492V0H392Q385 17 381 35Q376 51 373 71Q370 91 370 113V119Q354 57 311 22.5Q268 -12 207 -12Z" glyph-name="udieresis" horiz-adv-x="541" unicode="&#252;" /><glyph d="M207 -12Q130 -12 87.5 32Q45 76 45 172V485H171V174Q171 123 191 100.5Q211 78 252 78Q303 78 334.5 115.5Q366 153 366 222V485H492V0H392Q385 17 381 35Q376 51 373 71Q370 91 370 113V119Q354 57 311 22.5Q268 -12 207 -12ZM113 681H266L316 539H236Z" glyph-name="ugrave" horiz-adv-x="541" unicode="&#249;" /><glyph d="M-8 -59H375V-139H-8Z" glyph-name="underscore" horiz-adv-x="367" unicode="_" /><glyph glyph-name="uni00A0" horiz-adv-x="184" unicode="&#160;" /><glyph d="M8 485H139L267 99L385 485H504L338 0H180Z" glyph-name="v" horiz-adv-x="512" unicode="v" /><glyph d="M367 351 289 0H130L13 485H138L222 100L308 485H427L522 100L600 485H717L605 0H449Z" glyph-name="w" horiz-adv-x="730" unicode="w" /><glyph d="M169 246 23 485H164L265 306L363 485H491L348 249L506 0H365L252 189L140 0H12Z" glyph-name="x" horiz-adv-x="518" unicode="x" /><glyph d="M148 -156Q103 -156 79 -147.5Q55 -139 39 -125V-48Q58 -54 79 -58Q100 -62 130 -62Q165 -62 185.5 -47.5Q206 -33 214 -7L220 11H181L8 485H138L264 113L384 485H502L332 1Q318 -40 300.5 -69.5Q283 -99 261 -118.5Q239 -138 211.5 -147Q184 -156 148 -156Z" glyph-name="y" horiz-adv-x="510" unicode="y" /><glyph d="M148 -156Q103 -156 79 -147.5Q55 -139 39 -125V-48Q58 -54 79 -58Q100 -62 130 -62Q165 -62 185.5 -47.5Q206 -33 214 -7L220 11H181L8 485H138L264 113L384 485H502L332 1Q318 -40 300.5 -69.5Q283 -99 261 -118.5Q239 -138 211.5 -147Q184 -156 148 -156ZM264 681H417L290 539H213Z" glyph-name="yacute" horiz-adv-x="510" unicode="&#253;" /><glyph d="M148 -156Q103 -156 79 -147.5Q55 -139 39 -125V-48Q58 -54 79 -58Q100 -62 130 -62Q165 -62 185.5 -47.5Q206 -33 214 -7L220 11H181L8 485H138L264 113L384 485H502L332 1Q318 -40 300.5 -69.5Q283 -99 261 -118.5Q239 -138 211.5 -147Q184 -156 148 -156ZM164 538Q136 538 116 557.5Q96 577 96 605Q96 632 116 651.5Q136 671 164 671Q192 671 212 651.5Q232 632 232 605Q232 577 212 557.5Q192 538 164 538ZM354 538Q326 538 306 557.5Q286 577 286 605Q286 632 306 651.5Q326 671 354 671Q382 671 402 651.5Q422 632 422 605Q422 577 402 557.5Q382 538 354 538Z" glyph-name="ydieresis" horiz-adv-x="510" unicode="&#255;" /><glyph d="M196 125H43V196H196V247H43V318H176L10 639H146L265 393L383 639H507L339 318H474V247H321V196H474V125H321V0H196Z" glyph-name="yen" horiz-adv-x="517" unicode="&#165;" /><glyph d="M426 485V369L145 88H426V0H31V112L308 392H48V485Z" glyph-name="z" horiz-adv-x="457" unicode="z" /><glyph d="M86 677H167L236 612L305 677H386L300 539H172ZM426 485V369L145 88H426V0H31V112L308 392H48V485Z" glyph-name="zcaron" horiz-adv-x="457" unicode="&#382;" /><glyph d="M307 -15Q253 -15 204 3.5Q155 22 117 62Q79 102 56.5 163.5Q34 225 34 311V338Q34 415 54.5 474Q75 533 111 572.5Q147 612 197 632.5Q247 653 307 653Q367 653 417 632.5Q467 612 503 572.5Q539 533 559 474Q579 415 579 338V311Q579 225 557 163.5Q535 102 497.5 62Q460 22 410.5 3.5Q361 -15 307 -15ZM307 83Q338 83 363.5 94Q389 105 407.5 129Q426 153 436 192Q446 231 446 287V372Q446 460 410 505Q374 550 307 550Q240 550 204 505Q168 460 168 372V287Q168 231 178 192Q188 153 206.5 129Q225 105 250.5 94Q276 83 307 83Z" glyph-name="zero" horiz-adv-x="614" unicode="0" /></font>
</defs>
</svg>
