<?xml version="1.0" standalone="no"?>
<!DOCTYPE svg PUBLIC "-//W3C//DTD SVG 1.1//EN" "http://www.w3.org/Graphics/SVG/1.1/DTD/svg11.dtd" >
<svg xmlns="http://www.w3.org/2000/svg">
<metadata>
This is a custom SVG webfont generated by Font Squirrel.
Copyright   : 2011 Commercial Type
Designer    : Christian Schwartz
Foundry     : Commercial Type
Foundry URL : httpcommercialtypecom
</metadata>
<defs>
<font id="FCZizouSlabBold" horiz-adv-x="1370" >
<font-face units-per-em="2048" ascent="1749" descent="-299" />
<missing-glyph horiz-adv-x="350" />
<glyph unicode=" "  horiz-adv-x="350" />
<glyph unicode="&#x09;" horiz-adv-x="350" />
<glyph unicode="&#xa0;" horiz-adv-x="350" />
<glyph unicode="!" horiz-adv-x="528" d="M78 164q0 76 55 131t129 55q78 0 133.5 -55t55.5 -131t-55.5 -130t-133.5 -54q-74 0 -129 54t-55 130zM78 1346h373l-93 -908h-188z" />
<glyph unicode="&#x22;" horiz-adv-x="753" d="M53 1309h291l-39 -469h-213zM410 1309h290l-38 -469h-216z" />
<glyph unicode="#" horiz-adv-x="1038" d="M53 342v246h172l27 168h-137v245h178l49 308h209l-49 -308h141l49 308h209l-49 -308h133v-245h-174l-27 -168h138v-246h-177l-55 -342h-209l56 342h-142l-55 -342h-209l55 342h-133zM434 588h141l27 168h-141z" />
<glyph unicode="$" horiz-adv-x="1067" d="M51 106v267h244v-170q31 -10 88 -19l47 334q-129 27 -201 68q-166 96 -166 336q0 207 139.5 311t342.5 104h2l18 133h144l-21 -143q199 -31 285 -113v-262h-240v148q-31 10 -76 12l-45 -319q190 -39 262 -80q162 -96 162 -314q0 -211 -144 -320.5t-380 -109.5h-14 l-27 -188h-143l26 201q-205 26 -303 124zM348 958q0 -94 96 -124l29 -11l41 293q-166 -11 -166 -158zM526 176q199 12 199 164q0 55 -21.5 84t-76.5 47q-31 12 -58 16z" />
<glyph unicode="%" horiz-adv-x="1458" d="M43 989v17q0 152 93 241.5t239 89.5q147 0 240.5 -90t93.5 -241v-17q0 -160 -93.5 -252t-240.5 -92q-143 0 -237.5 92t-94.5 252zM188 0l902 1309h180l-901 -1309h-181zM285 1034v-76q0 -86 22.5 -119.5t67.5 -33.5q47 0 69.5 33.5t22.5 119.5v76q0 74 -21.5 104.5 t-70.5 30.5q-47 0 -68.5 -31.5t-21.5 -103.5zM750 315v17q0 152 93 243t238 91q147 0 240.5 -90.5t93.5 -243.5v-17q0 -160 -93 -251t-241 -91q-145 0 -238 91t-93 251zM991 285q0 -84 22.5 -118t67.5 -34q49 0 71 33t22 119v77q0 74 -22 104t-71 30q-47 0 -68.5 -31 t-21.5 -103v-77z" />
<glyph unicode="&#x26;" horiz-adv-x="1302" d="M37 350q0 252 311 377q-111 115 -110 258q0 154 111.5 252t293.5 98q180 0 280.5 -87t100.5 -236q0 -109 -67.5 -182.5t-204.5 -133.5l163 -190q47 109 78 235h256q-80 -250 -182 -411l88 -103h109v-227h-318l-84 100q-166 -123 -364 -123q-217 0 -339 101.5t-122 271.5z M367 371q0 -80 49 -132.5t145 -52.5t174 64l-272 323q-96 -69 -96 -202zM545 997q0 -113 110 -206q100 78 101 206q0 59 -29 95t-74 36t-76.5 -34t-31.5 -97z" />
<glyph unicode="'" horiz-adv-x="413" d="M53 1309h307l-36 -469h-232z" />
<glyph unicode="(" horiz-adv-x="647" d="M70 563v68q0 180 61.5 347t124.5 254t129 146h242v-10q-109 -121 -182.5 -314.5t-73.5 -404.5v-104q0 -444 256 -735v-11h-242q-47 43 -94 103.5t-100.5 155t-87 227.5t-33.5 278z" />
<glyph unicode=")" horiz-adv-x="647" d="M20 -190q109 121 182.5 314t73.5 404v105q0 444 -256 735v10h242q47 -43 94 -103.5t100.5 -154.5t87.5 -227t34 -279v-67q0 -180 -61.5 -347t-125 -254t-129.5 -147h-242v11z" />
<glyph unicode="*" horiz-adv-x="724" d="M47 944l201 62l-201 55l107 178l149 -135l-53 205h225l-51 -205l147 135l107 -178l-205 -55l205 -62l-107 -180l-149 143l53 -211h-225l55 211l-151 -143z" />
<glyph unicode="+" horiz-adv-x="948" d="M76 522v246h272v291h254v-291h270v-246h-270v-291h-254v291h-272z" />
<glyph unicode="," horiz-adv-x="530" d="M47 -152q84 203 84 402q0 59 -8 100h311q4 -33 4 -59q0 -135 -40 -237.5t-126 -205.5h-225z" />
<glyph unicode="-" horiz-adv-x="645" d="M88 420v262h469v-262h-469z" />
<glyph unicode="." horiz-adv-x="530" d="M74 170q0 80 56 137.5t134 57.5t134.5 -57.5t56.5 -137.5q0 -78 -56.5 -134t-134.5 -56t-134 56t-56 134z" />
<glyph unicode="/" horiz-adv-x="743" d="M-12 -201l479 1579h256l-479 -1579h-256z" />
<glyph unicode="0" horiz-adv-x="1275" d="M51 647v31q0 311 161 485t427 174t426 -174t160 -485v-31q0 -332 -164 -505t-422 -173q-256 0 -422 174t-166 504zM395 584q0 -205 62.5 -289t181.5 -84t180.5 84t61.5 289v176q0 324 -242 323q-244 0 -244 -323v-176z" />
<glyph unicode="1" horiz-adv-x="856" d="M39 762v311l231 236h363v-1082h184v-227h-729v227h215v805l-258 -270h-6z" />
<glyph unicode="2" horiz-adv-x="1007" d="M43 315q295 170 426 302.5t131 269.5q0 184 -207 184q-176 0 -327 -104v207q139 164 409 163q211 0 339 -104.5t128 -329.5q0 -412 -706 -670v-2h462v134h258v-365h-913v315z" />
<glyph unicode="3" horiz-adv-x="1040" d="M45 131v213q141 -117 377 -117q223 0 223 170q0 166 -231 166h-144v213h140q203 0 202 150q0 143 -209 143q-174 0 -313 -86v205q127 150 402 149q201 0 328.5 -90t127.5 -260q0 -131 -85 -212t-257 -99v-6q385 -31 385 -318q0 -184 -137 -278t-383 -94q-299 -1 -426 151 z" />
<glyph unicode="4" horiz-adv-x="1130" d="M43 360v277l492 672h403v-725h152v-224h-152v-133h152v-227h-621v227h143v133h-569zM264 584h348v473z" />
<glyph unicode="5" horiz-adv-x="1050" d="M61 119v207q152 -98 342 -99q242 0 242 194.5t-278 194.5q-137 0 -244 -43h-19v736h838v-367h-268v121h-322v-281q94 25 176 25q225 0 344 -105.5t119 -304.5q0 -195 -137 -306t-379 -111q-295 0 -414 139z" />
<glyph unicode="6" horiz-adv-x="1181" d="M51 500v41q0 139 52.5 269t135.5 226.5t160.5 162t155.5 110.5h446v-21q-217 -111 -373.5 -264.5t-209.5 -333.5q88 170 293 170q197 0 311.5 -111.5t114.5 -299.5v-11q0 -219 -145.5 -344t-387.5 -125q-248 0 -400.5 141.5t-152.5 389.5zM395 408q0 -100 52.5 -161 t150.5 -61q193 0 193 220v45q0 207 -197 206q-96 0 -147.5 -53t-51.5 -149v-47z" />
<glyph unicode="7" horiz-adv-x="1024" d="M35 874v435h942v-334l-447 -975h-342l484 1049h-369v-175h-268z" />
<glyph unicode="8" horiz-adv-x="1132" d="M45 356v17q0 117 74 197.5t213 117.5q-242 76 -242 287v10q0 160 128 255t349 95q217 0 345 -94t128 -254v-12q0 -209 -241 -287q137 -35 211.5 -115.5t74.5 -197.5v-17q0 -182 -144 -284.5t-374 -102.5q-233 0 -377.5 102.5t-144.5 282.5zM383 377q0 -193 184 -193 q182 0 183 193v45q0 184 -183 184q-184 0 -184 -184v-45zM406 932q0 -162 161.5 -162t161.5 162v31q0 70 -43 112.5t-119 42.5q-78 0 -119.5 -42t-41.5 -113v-31z" />
<glyph unicode="9" horiz-adv-x="1181" d="M45 868v9q0 213 149.5 337.5t387.5 124.5q256 0 402 -137t146 -407v-33q0 -131 -50 -259t-128 -225.5t-156.5 -167t-150.5 -110.5h-457v20q197 102 353.5 254t214.5 326q-94 -156 -301 -156q-186 0 -298 114.5t-112 309.5zM389 860q0 -213 197 -213q96 0 148 52.5 t52 148.5v53q0 100 -52 160.5t-150 60.5q-195 0 -195 -217v-45z" />
<glyph unicode=":" horiz-adv-x="538" d="M78 170q0 80 56 137.5t134 57.5t134.5 -57.5t56.5 -137.5q0 -78 -56.5 -134t-134.5 -56t-134 56t-56 134zM78 791q0 80 56 137t134 57t134.5 -57.5t56.5 -136.5q0 -78 -56.5 -134.5t-134.5 -56.5t-134 56.5t-56 134.5z" />
<glyph unicode=";" horiz-adv-x="559" d="M51 -152q84 203 84 402q0 59 -8 100h311q4 -33 4 -59q0 -135 -40 -237.5t-126 -205.5h-225zM100 791q0 80 56.5 137t134.5 57t134 -57.5t56 -136.5q0 -78 -56 -134.5t-134 -56.5t-134.5 56.5t-56.5 134.5z" />
<glyph unicode="&#x3c;" horiz-adv-x="966" d="M90 494v303l787 303v-250l-539 -203l539 -205v-252z" />
<glyph unicode="=" horiz-adv-x="1048" d="M100 319v228h848v-228h-848zM100 700v230h848v-230h-848z" />
<glyph unicode="&#x3e;" horiz-adv-x="966" d="M90 190v250l537 205l-537 203v252l787 -303v-303z" />
<glyph unicode="?" horiz-adv-x="864" d="M41 983v256q47 53 145.5 91t231.5 38q178 0 291.5 -87t113.5 -255q0 -96 -35.5 -170t-88 -118t-103.5 -82t-87 -86t-36 -107v-25h-240v86q0 72 28 131.5t66 100.5t76.5 76.5t66.5 77.5t28 87q0 141 -150 142q-10 0 -30.5 -1t-28.5 -1v-154h-248zM182 164q0 76 55.5 131 t129.5 55q78 0 134 -55t56 -131t-55.5 -130t-132.5 -54q-76 0 -131.5 54t-55.5 130z" />
<glyph unicode="@" horiz-adv-x="1755" d="M51 444q0 268 124 475t322.5 311.5t434.5 104.5q340 0 558 -189.5t218 -506.5q0 -268 -107.5 -415.5t-304.5 -147.5q-121 0 -193.5 49t-90.5 131q-70 -186 -262 -186q-152 0 -234 99t-82 261q0 213 108.5 356.5t278.5 143.5q96 0 154.5 -53.5t73.5 -143.5q20 104 75 174 h224l-84 -516q-9 -40 -9 -71q0 -27 7 -46q14 -41 69 -41q88 0 139.5 104.5t51.5 299.5q0 270 -162 396t-434 126q-305 0 -492.5 -194.5t-187.5 -513.5q0 -297 164.5 -454t482 -157t530.5 152v-162q-76 -63 -216 -109.5t-318 -46.5q-377 0 -607.5 206t-230.5 564zM709 422 q0 -150 114 -150q63 0 110.5 50.5t63.5 148.5l4 27q5 35 6 64q0 66 -26 103q-37 52 -106.5 52t-117.5 -71.5t-48 -223.5z" />
<glyph unicode="A" d="M33 0v227h78l342 1082h477l332 -1082h75v-227h-573v227h147l-45 150h-428l-43 -150h140v-227h-502zM502 596h301l-150 516z" />
<glyph unicode="B" horiz-adv-x="1212" d="M39 0v227h104v838h-104v244h596q481 0 481 -344q0 -141 -80 -214t-245 -92v-6q190 -12 283 -81.5t93 -206.5q0 -178 -121.5 -271.5t-418.5 -93.5h-588zM465 223h151q133 0 179.5 38t46.5 122t-52.5 122t-177.5 38h-147v-320zM465 745h147q188 0 189 162q0 156 -174 156 h-162v-318z" />
<glyph unicode="C" horiz-adv-x="1206" d="M45 664v4q0 307 169 488t462 181q158 0 275.5 -43t174.5 -100v-313h-288v192q-53 10 -136 10q-307 0 -307 -366v-86q0 -420 330 -420q70 0 137 12v193h275v-293q-53 -61 -168 -107.5t-271 -46.5q-303 0 -478 182.5t-175 512.5z" />
<glyph unicode="D" horiz-adv-x="1333" d="M39 0v227h104v838h-104v244h627q293 0 456.5 -163t163.5 -480v-4q0 -342 -174 -502t-483 -160h-590zM473 236h133q184 0 260 94t76 288v107q0 164 -65.5 241.5t-229.5 77.5h-174v-808z" />
<glyph unicode="E" horiz-adv-x="1144" d="M39 0v227h104v838h-104v244h1044v-428h-270v170h-340v-293h428v-236h-428v-297h352v183h271v-408h-1057z" />
<glyph unicode="F" horiz-adv-x="1120" d="M39 0v227h104v838h-104v244h1040v-424h-274v159h-332v-325h469v-250h-469v-242h174v-227h-608z" />
<glyph unicode="G" horiz-adv-x="1273" d="M45 662v4q0 305 181.5 488t484.5 183q305 0 442 -129v-327h-287v190q-63 12 -137 12q-158 0 -248 -98t-90 -285v-61q0 -225 83 -324.5t245 -99.5q76 0 158 16v240h-211v246h528v-570q-72 -74 -204 -126t-302 -52q-295 0 -469 181.5t-174 511.5z" />
<glyph unicode="H" horiz-adv-x="1406" d="M39 0v227h104v838h-104v244h571v-244h-137v-272h461v272h-137v244h571v-244h-104v-838h104v-227h-571v227h137v310h-461v-310h137v-227h-571z" />
<glyph unicode="I" horiz-adv-x="634" d="M39 0v227h113v838h-113v244h557v-244h-113v-838h113v-227h-557z" />
<glyph unicode="J" horiz-adv-x="829" d="M35 47v217q84 -31 176 -31q154 0 154 162v670h-136v244h562v-244h-95v-670q0 -197 -101 -308.5t-302 -111.5q-178 0 -258 72z" />
<glyph unicode="K" horiz-adv-x="1308" d="M39 0v227h104v838h-104v244h555v-244h-121v-379l389 379h-170v244h574v-244h-92l-379 -369l399 -469h80v-227h-582v227h115l-334 394v-394h121v-227h-555z" />
<glyph unicode="L" horiz-adv-x="1103" d="M39 0v227h106v838h-106v244h594v-244h-158v-813h316v184h274v-436h-1026z" />
<glyph unicode="M" horiz-adv-x="1718" d="M39 0v227h104v838h-104v244h584l237 -908l240 908h579v-244h-102v-838h102v-227h-553v227h125v817l-278 -1044h-299l-275 1026v-799h123v-227h-483z" />
<glyph unicode="N" horiz-adv-x="1427" d="M39 0v227h104v838h-104v244h575l408 -920v676h-139v244h508v-244h-103v-1065h-422l-456 999v-772h165v-227h-536z" />
<glyph unicode="O" horiz-adv-x="1384" d="M45 657v5q0 307 175 491t472 184t472 -184t175 -491v-5q0 -330 -182 -509t-465 -179q-281 0 -464 179t-183 509zM391 621q0 -410 301 -410q303 0 303 410v96q0 176 -75.5 271t-227.5 95q-301 0 -301 -366v-96z" />
<glyph unicode="P" horiz-adv-x="1200" d="M39 0v227h104v838h-104v244h616q506 0 506 -441q0 -442 -514 -442h-174v-199h174v-227h-608zM473 657h139q123 0 174.5 49.5t51.5 153.5q0 102 -48.5 149.5t-158.5 47.5h-158v-400z" />
<glyph unicode="Q" horiz-adv-x="1386" d="M45 657v5q0 307 175 491t472 184t472 -184t175 -491v-5q0 -346 -206 -532l43 -57h170v-228h-320v4l-8 -4l-121 158q-98 -29 -205 -29q-281 0 -464 179t-183 509zM391 621q0 -412 301 -412h43l-160 211h312l67 -90q41 94 41 291v96q0 176 -75.5 271t-227.5 95 q-301 0 -301 -366v-96z" />
<glyph unicode="R" horiz-adv-x="1251" d="M39 0v227h104v838h-104v244h625q246 0 375.5 -99.5t129.5 -291.5q0 -147 -80.5 -241.5t-236.5 -125.5l223 -324h144v-227h-367l-379 567v-340h117v-227h-551zM473 690h156q113 0 160 44t47 142.5t-47.5 139.5t-149.5 41h-166v-367z" />
<glyph unicode="S" horiz-adv-x="1091" d="M53 109v290h281v-182q80 -18 168 -18q217 0 217 155q0 82 -101 115q-25 10 -173 44t-220 75q-164 90 -164 334q0 207 139.5 311t340.5 104q147 0 262 -34.5t172 -92.5v-286h-279v159q-68 12 -133 13q-201 0 -201 -140q0 -84 91 -114q29 -10 194.5 -46t235.5 -77 q162 -96 161 -320q0 -213 -138 -321.5t-374 -108.5q-166 0 -292 39.5t-187 100.5z" />
<glyph unicode="T" horiz-adv-x="1257" d="M41 848v461h1176v-461h-263v211h-159v-832h133v-227h-598v227h133v832h-160v-211h-262z" />
<glyph unicode="U" horiz-adv-x="1406" d="M37 1065v244h561v-244h-137v-551q0 -150 53 -220.5t191 -70.5q135 0 189 71t54 218v553h-139v244h561v-244h-92v-502q0 -311 -143.5 -452.5t-430 -141.5t-431 142.5t-144.5 453.5v500h-92z" />
<glyph unicode="V" horiz-adv-x="1386" d="M33 1065v244h571v-244h-143l260 -887l264 887h-145v244h514v-244h-84l-340 -1065h-484l-333 1065h-80z" />
<glyph unicode="W" horiz-adv-x="1886" d="M33 1065v244h561v-244h-150l140 -741l225 985h342l229 -985l142 741h-152v244h483v-244h-69l-234 -1065h-397l-211 901l-197 -901h-407l-236 1065h-69z" />
<glyph unicode="X" horiz-adv-x="1347" d="M35 0v227h88l305 439l-278 399h-87v244h590v-244h-118l182 -268l186 268h-123v244h500v-244h-82l-280 -391l305 -447h88v-227h-606v227h129l-207 303l-209 -303h135v-227h-518z" />
<glyph unicode="Y" horiz-adv-x="1236" d="M33 1065v244h559v-244h-123l195 -354l190 354h-119v244h471v-244h-82l-333 -600v-238h135v-227h-600v227h135v228l-348 610h-80z" />
<glyph unicode="Z" horiz-adv-x="1146" d="M45 0v293l700 770h-383v-182h-274v428h1008v-310l-719 -776h446v185h275v-408h-1053z" />
<glyph unicode="[" horiz-adv-x="737" d="M119 -201v1579h575v-221h-291v-1145h291v-213h-575z" />
<glyph unicode="\" horiz-adv-x="743" d="M20 1378h256l480 -1579h-256z" />
<glyph unicode="]" horiz-adv-x="737" d="M41 12h293v1145h-293v221h575v-1579h-575v213z" />
<glyph unicode="^" horiz-adv-x="894" d="M57 848l209 461h363l209 -461h-228l-161 252l-164 -252h-228z" />
<glyph unicode="_" horiz-adv-x="751" d="M-16 -96h784v-195h-784v195z" />
<glyph unicode="`" horiz-adv-x="819" d="M80 1407h366l91 -303h-199z" />
<glyph unicode="a" horiz-adv-x="1062" d="M37 236v2q0 61 21.5 109t52 78t88 55.5t102.5 37.5l121 31q106 27 149 51.5t43 69.5v6q0 135 -172 135q-45 0 -84 -6v-158h-262v236q135 145 408 145q229 0 331.5 -108.5t102.5 -317.5v-323q0 -70 63 -70q12 0 33 4v-190q-53 -41 -163.5 -41t-174 50t-73.5 140 q-66 -199 -299 -199q-129 0 -208 71t-79 192zM365 264q0 -51 28.5 -80.5t79.5 -29.5q61 0 101 53t40 149v146q-35 -37 -116 -80q-72 -31 -102.5 -61.5t-30.5 -86.5v-10z" />
<glyph unicode="b" horiz-adv-x="1222" d="M31 0v227h94v908h-94v243h420v-592q27 96 110.5 169t212.5 73q190 0 298 -140t108 -368v-2q0 -256 -116 -398.5t-304 -142.5q-260 0 -336 271q-2 -74 -15.5 -136.5t-25.5 -86.5l-12 -25h-340zM451 498q0 -150 56 -226.5t148 -76.5q90 0 143.5 76.5t53.5 220.5v63 q0 113 -51 177.5t-146 64.5q-90 0 -147 -70t-57 -190v-39z" />
<glyph unicode="c" horiz-adv-x="960" d="M39 504v2q0 248 148.5 385t355.5 137q260 0 354 -102v-277h-260v154q-20 2 -62 2q-211 0 -210 -258v-49q0 -152 63.5 -216.5t196.5 -64.5q137 0 280 72v-187q-41 -53 -132 -90t-222 -37q-231 0 -371.5 139.5t-140.5 389.5z" />
<glyph unicode="d" horiz-adv-x="1222" d="M43 502v2q0 248 116.5 385t303.5 137q127 0 202.5 -65.5t106.5 -163.5v338h-131v243h457v-1151h92v-227h-352q-51 100 -56 229q-86 -252 -338 -252q-188 0 -294.5 144.5t-106.5 380.5zM371 477q0 -129 51 -202.5t145 -73.5q90 0 147.5 76.5t57.5 201.5v37q0 143 -55 215 t-150 72q-90 0 -143 -67.5t-53 -190.5v-68z" />
<glyph unicode="e" horiz-adv-x="1032" d="M39 502v2q0 244 141.5 384t360.5 140q217 0 334.5 -116.5t117.5 -307.5q0 -88 -32 -166h-594q8 -125 77.5 -171t212.5 -46q168 0 287 60v-172q-37 -53 -138 -92.5t-239 -39.5q-254 0 -391 134.5t-137 390.5zM367 584h335v20q0 221 -155 221q-172 1 -180 -241z" />
<glyph unicode="f" horiz-adv-x="739" d="M31 0v227h112v557h-112v220h112v28q0 182 99.5 271.5t253.5 89.5q150 0 211 -56v-178q-45 10 -101 10q-76 0 -107.5 -23.5t-31.5 -84.5v-57h240v-220h-240v-557h145v-227h-581z" />
<glyph unicode="g" horiz-adv-x="1220" d="M41 543v2q0 219 116.5 350t303.5 131q133 0 210 -53t126 -168q8 49 25.5 99t29.5 75l12 25h326v-271h-94v-512q0 -539 -576 -538q-295 0 -403 120v230q141 -106 344 -107q309 0 309 269v71q-70 -190 -321 -190q-197 0 -302.5 123t-105.5 344zM369 528q0 -127 51 -195.5 t145 -68.5q92 0 148.5 71t56.5 195v23q0 117 -56.5 183.5t-146.5 66.5t-144 -64.5t-54 -173.5v-37z" />
<glyph unicode="h" horiz-adv-x="1232" d="M31 0v227h94v908h-94v243h420v-610q35 123 121.5 191.5t218.5 68.5q152 0 235.5 -92t83.5 -270v-439h92v-227h-534v227h116v398q0 164 -141 163q-88 0 -140 -67.5t-52 -190.5v-303h120v-227h-540z" />
<glyph unicode="i" horiz-adv-x="587" d="M31 0v227h102v506h-102v271h426v-777h100v-227h-526zM119 1241q0 72 51 124t120.5 52t121 -52t51.5 -124q0 -70 -51.5 -121t-121 -51t-120.5 51t-51 121z" />
<glyph unicode="j" horiz-adv-x="555" d="M-68 -100q37 -6 76 -6q63 0 94 23.5t31 86.5v729h-102v271h426v-979q0 -172 -88 -258t-234 -86q-147 0 -203 45v174zM119 1241q0 72 51 124t120.5 52t121 -52t51.5 -124q0 -70 -51.5 -121t-121 -51t-120.5 51t-51 121z" />
<glyph unicode="k" horiz-adv-x="1116" d="M31 0v227h94v908h-94v243h420v-839l323 465h283v-271h-164l-133 -182l205 -324h120v-227h-337l-297 494v-267h92v-227h-512z" />
<glyph unicode="l" horiz-adv-x="591" d="M31 0v227h102v908h-102v243h428v-1151h100v-227h-528z" />
<glyph unicode="m" horiz-adv-x="1820" d="M31 0v227h94v506h-94v271h356q55 -100 55 -232v-12q37 123 122 195.5t208 72.5q246 0 277 -276q43 133 134 204.5t214 71.5q139 0 221 -92t82 -270v-439h90v-227h-526v227h110v398q0 84 -28.5 123.5t-94.5 39.5q-84 0 -130 -66.5t-46 -191.5v-303h107v-227h-539v227h107 v398q0 84 -29 123.5t-94 39.5q-82 0 -129 -66.5t-47 -191.5v-303h108v-227h-528z" />
<glyph unicode="n" horiz-adv-x="1232" d="M31 0v227h94v506h-94v271h356q55 -100 55 -232v-16q35 127 124 199.5t225 72.5q152 0 235.5 -92t83.5 -270v-439h92v-227h-534v227h116v398q0 164 -141 163q-88 0 -140 -67.5t-52 -190.5v-303h120v-227h-540z" />
<glyph unicode="o" horiz-adv-x="1124" d="M39 512v4q0 240 145.5 376t377 136t377.5 -136t146 -374v-4q0 -139 -43 -244.5t-117.5 -168t-166.5 -93.5t-197 -31q-221 0 -371.5 133.5t-150.5 401.5zM367 481q0 -297 194 -297q197 0 197 297v74q0 127 -53.5 193.5t-143.5 66.5t-142 -65.5t-52 -194.5v-74z" />
<glyph unicode="p" horiz-adv-x="1222" d="M31 -90h94v823h-94v271h356q55 -109 55 -240v-10q23 115 111 194.5t221 79.5q190 0 298 -140t108 -368v-2q0 -256 -116 -398.5t-304 -142.5q-125 0 -204 61.5t-105 168.5v-297h120v-209h-540v209zM451 502q0 -156 56 -230.5t150 -74.5q195 0 195 297v63q0 111 -51 175.5 t-143.5 64.5t-149.5 -69t-57 -189v-37z" />
<glyph unicode="q" horiz-adv-x="1222" d="M43 504v2q0 248 115.5 384t302.5 136q133 0 210 -56.5t128 -172.5q8 51 24.5 102t28.5 78l14 27h324v-271h-92v-823h92v-209h-539v209h121v301q-29 -100 -110.5 -167t-217.5 -67q-186 0 -293.5 147t-107.5 380zM371 479q0 -129 51 -203.5t145 -74.5q90 0 147.5 77.5 t57.5 200.5v37q0 143 -55.5 215t-149.5 72q-90 0 -143 -66.5t-53 -189.5v-68z" />
<glyph unicode="r" horiz-adv-x="854" d="M31 0v227h94v506h-94v271h356q55 -115 55 -273v-47q59 334 275 334q68 0 96 -53v-260q-20 1 -39 0q-155 0 -234 -60q-89 -68 -89 -248v-170h145v-227h-565z" />
<glyph unicode="s" horiz-adv-x="892" d="M39 78v221h254v-115q49 -8 115 -8q166 0 165 100q0 53 -67 76q-14 4 -138 23.5t-186 52.5q-137 74 -137 258q0 178 117 260t299 82q117 0 211 -26.5t139 -65.5v-223h-250v110q-53 6 -104 6q-150 0 -150 -98q0 -59 62 -74q12 -4 153.5 -24.5t198.5 -54.5q133 -74 133 -250 q0 -174 -113.5 -265.5t-318.5 -91.5q-258 1 -383 107z" />
<glyph unicode="t" horiz-adv-x="811" d="M31 780v181q121 12 172 79.5t90 227.5h186v-264h283v-224h-283v-409q0 -86 38 -123t124 -37q63 0 121 22v-155q-72 -104 -270 -105q-143 0 -239.5 76t-96.5 246v485h-125z" />
<glyph unicode="u" horiz-adv-x="1224" d="M31 733v271h415v-627q0 -178 142 -178q88 0 138 69.5t50 202.5v262h-135v271h459v-777h94v-227h-356q-49 111 -50 225v11q-37 -123 -121.5 -192t-211.5 -69q-332 0 -332 375v383h-92z" />
<glyph unicode="v" horiz-adv-x="1157" d="M27 733v271h538v-271h-116l172 -520l161 520h-120v271h468v-271h-92l-262 -733h-389l-270 733h-90z" />
<glyph unicode="w" horiz-adv-x="1603" d="M27 733v271h505v-256h-112l100 -523l160 779h317l174 -779l91 523h-117v256h432v-271h-86l-158 -733h-379l-141 672l-141 -672h-391l-166 733h-88z" />
<glyph unicode="x" horiz-adv-x="1144" d="M31 733v271h555v-250h-107l156 -187l147 187h-112v250h442v-271h-102l-205 -246l239 -260h68v-227h-559v207h141l-182 196l-184 -196h143v-207h-438v227h65l240 254l-213 252h-94z" />
<glyph unicode="y" horiz-adv-x="1155" d="M27 733v271h538v-271h-123l176 -483l162 483h-121v271h469v-271h-96l-266 -721q-57 -172 -151.5 -251.5t-247.5 -79.5q-150 0 -240 75v189q86 -29 178 -29q154 0 197 102l8 23h-119l-268 692h-96z" />
<glyph unicode="z" horiz-adv-x="972" d="M41 0v295l588 506h-314v-127h-247v330h854v-295l-609 -523h365v164h254v-350h-891z" />
<glyph unicode="{" horiz-adv-x="669" d="M45 469v248q188 14 188 114q0 37 -36.5 135.5t-36.5 166.5q0 96 57 158.5t143 86.5h236v-10q-76 -66 -105.5 -115t-29.5 -135q0 -45 20.5 -135t20.5 -147q0 -90 -67.5 -157t-223.5 -83v-6q154 -16 222.5 -84t68.5 -160q0 -55 -20.5 -149.5t-20.5 -137.5q0 -86 29.5 -135 t105.5 -114v-11h-236q-86 23 -143 86.5t-57 159.5q0 68 36.5 170t36.5 139q0 101 -188 115z" />
<glyph unicode="|" horiz-adv-x="497" d="M135 -201v1579h242v-1579h-242z" />
<glyph unicode="}" horiz-adv-x="669" d="M74 -190q76 66 105.5 114.5t29.5 134.5q0 43 -20.5 137.5t-20.5 149.5q0 92 68.5 159.5t222.5 84.5v6q-156 16 -223.5 82.5t-67.5 157.5q0 57 20.5 147t20.5 135q0 86 -29.5 135.5t-105.5 114.5v10h235q86 -25 143.5 -87t57.5 -158q0 -68 -37 -166.5t-37 -135.5 q0 -100 189 -114v-248q-188 -14 -189 -115q0 -37 37 -139t37 -170q0 -96 -57.5 -159.5t-143.5 -86.5h-235v11z" />
<glyph unicode="~" horiz-adv-x="759" d="M91 635q46 102 161 102q66 0 139.5 -39t91.5 -39q29 0 39 17.5t15 64.5h129q24 -66 24 -124q0 -55 -21 -104q-44 -101 -157 -101q-63 0 -138 38.5t-98 38.5q-49 0 -55 -81h-129q-24 63 -24 120q0 56 23 107z" />
<glyph unicode="&#xa1;" horiz-adv-x="528" d="M78 -229l92 907h188l93 -907h-373zM78 952.5q0 75.5 55 130t133 54.5q74 0 129.5 -54.5t55.5 -130t-55.5 -131t-129.5 -55.5q-78 0 -133 55.5t-55 131z" />
<glyph unicode="&#xa2;" horiz-adv-x="978" d="M39 504v2q0 246 152.5 384t359.5 138h14l21 148h139l-23 -158q156 -25 220 -94v-254h-197v137q-25 6 -51 6l-86 -614h39q141 0 303 77v-165q-39 -55 -136.5 -95.5t-234.5 -40.5h-4l-27 -194h-137l29 211q-174 37 -277.5 171t-103.5 341zM348 498q0 -207 107 -267l80 578 q-186 -29 -187 -260v-51z" />
<glyph unicode="&#xa3;" horiz-adv-x="1073" d="M45 0v330q63 33 94 79t33 134h-115v198h115v148q0 203 123 325.5t338 122.5q139 0 239.5 -36.5t141.5 -94.5v-297h-262v183q-49 4 -76 4q-182 0 -182 -224v-131h313v-198h-315q-12 -109 -75 -176.5t-177 -112.5v-2h503v121h273v-373h-971z" />
<glyph unicode="&#xa5;" horiz-adv-x="1142" d="M33 1067v242h516v-242h-96l151 -264l150 264h-97v242h455v-242h-76l-235 -369h213v-139h-285v-88h285v-139h-285v-105h141v-227h-598v227h142v105h-283v139h283v88h-283v139h209l-234 369h-73z" />
<glyph unicode="&#xa6;" horiz-adv-x="512" d="M135 -201v727h242v-727h-242zM135 684v694h242v-694h-242z" />
<glyph unicode="&#xa7;" horiz-adv-x="1060" d="M49 526q0 106 62.5 162.5t179.5 79.5q-156 63 -156 244q0 156 110.5 239.5t289.5 83.5q256 0 356 -96v-213h-248v104q-57 4 -88 5q-150 0 -149 -88q0 -53 63 -76q12 -4 182 -40t238 -73q123 -68 123 -203q0 -104 -62.5 -168.5t-179.5 -78.5q156 -72 156 -232 q0 -164 -106.5 -251t-293.5 -87q-281 0 -399 107v217h254v-107q31 -4 96 -4q84 0 118 22.5t34 69.5q0 41 -74 66q-23 6 -99.5 20.5t-154.5 36t-129 49.5q-123 68 -123 211zM297 612q0 -53 66 -75q41 -16 121.5 -33t140.5 -17q117 0 116 84q0 55 -77 78q-174 45 -254 45 q-51 0 -82 -22.5t-31 -59.5z" />
<glyph unicode="&#xa8;" horiz-adv-x="806" d="M33 1241.5q0 65.5 48 112.5t116 47q66 0 114.5 -47t48.5 -113q0 -63 -49 -110.5t-114 -47.5q-68 0 -116 46.5t-48 112zM446 1241q0 66 49.5 113t114.5 47q68 0 116 -47t48 -112.5t-48 -112t-116 -46.5q-66 0 -115 47.5t-49 110.5z" />
<glyph unicode="&#xa9;" horiz-adv-x="1503" d="M66 649q0 283 198.5 483.5t487.5 200.5q293 0 489.5 -199.5t196.5 -484.5q0 -283 -197 -480.5t-489 -197.5q-289 0 -487.5 198.5t-198.5 479.5zM190 649.5q0 -233.5 163 -399.5t399 -166q238 0 399.5 166t161.5 399q0 236 -162 404t-399 168q-236 0 -399 -169 t-163 -402.5zM416 666v4q0 164 96 263t254 99q162 0 240 -74v-186h-177v90q-12 2 -34 2q-137 0 -138 -157v-68q0 -190 146 -190h41v83h170v-163q-74 -78 -234 -78q-168 0 -266 98.5t-98 276.5z" />
<glyph unicode="&#xaa;" horiz-adv-x="802" d="M35 756v2q0 55 20.5 94t64.5 63.5t85 38t108 27.5q78 20 109 36.5t31 47.5v4q0 90 -119 90q-23 0 -55 -4v-106h-201v170q96 109 305 108q172 0 248 -80t76 -233v-221q0 -47 45 -48q6 0 13 1.5t9 1.5v-146q-41 -31 -127 -31q-84 0 -132 38t-54 100q-49 -139 -217 -140 q-94 0 -151.5 50.5t-57.5 136.5zM291 780q-1 -74 71 -73q41 0 66 34.5t25 100.5v104q-20 -23 -76 -55q-45 -20 -65.5 -42t-20.5 -61v-8z" />
<glyph unicode="&#xab;" horiz-adv-x="780" d="M31 496l174 340h233l-182 -338l182 -342h-233zM342 496l174 340h234l-183 -338l183 -342h-234z" />
<glyph unicode="&#xad;" horiz-adv-x="645" d="M88 420v262h469v-262h-469z" />
<glyph unicode="&#xae;" horiz-adv-x="763" d="M45 995.5q0 137.5 98.5 234.5t239.5 97q143 0 239.5 -97t96.5 -235q0 -139 -96.5 -235t-239.5 -96q-141 0 -239.5 97t-98.5 234.5zM127 995q0 -111 72.5 -184.5t183.5 -73.5q113 0 183.5 74t70.5 184.5t-71.5 186t-182.5 75.5t-183.5 -76.5t-72.5 -185.5zM254 842v323 h143q131 0 131 -100q0 -74 -67 -94l82 -129h-113l-74 123v-123h-102zM356 1016h23q27 0 37 9t10 32q0 37 -43 37h-27v-78z" />
<glyph unicode="&#xaf;" horiz-adv-x="819" d="M133 1126v193h555v-193h-555z" />
<glyph unicode="&#xb0;" horiz-adv-x="735" d="M51 1016q0 131 90 222t224 91q135 0 226 -91t91 -222t-91 -222.5t-226 -91.5q-133 0 -223.5 91.5t-90.5 222.5zM225 1016q0 -72 39 -115t101 -43q66 0 104.5 43t38.5 115q0 68 -40 113t-103 45q-59 0 -99.5 -45t-40.5 -113z" />
<glyph unicode="&#xb1;" horiz-adv-x="974" d="M76 0v246h796v-246h-796zM76 596v246h272v245h254v-245h270v-246h-270v-246h-254v246h-272z" />
<glyph unicode="&#xb2;" horiz-adv-x="1007" d="M43 0v315q295 170 426 302.5t131 269.5q0 184 -207 184q-176 0 -327 -104v207q139 164 409 163q211 0 339 -104.5t128 -329.5q0 -412 -706 -670v-2h462v134h258v-365h-913z" />
<glyph unicode="&#xb3;" horiz-adv-x="1040" d="M45 131v213q141 -117 377 -117q223 0 223 170q0 166 -231 166h-144v213h140q203 0 202 150q0 143 -209 143q-174 0 -313 -86v205q127 150 402 149q201 0 328.5 -90t127.5 -260q0 -131 -85 -212t-257 -99v-6q385 -31 385 -318q0 -184 -137 -278t-383 -94q-299 -1 -426 151 z" />
<glyph unicode="&#xb4;" horiz-adv-x="819" d="M287 1104l96 303h365l-273 -303h-188z" />
<glyph unicode="&#xb6;" horiz-adv-x="1107" d="M49 938q0 174 96.5 272.5t266.5 98.5h657v-244h-102v-1266h-215v1266h-101v-1266h-215v758h-10q-180 0 -278.5 99.5t-98.5 281.5z" />
<glyph unicode="&#xb7;" horiz-adv-x="530" d="M74 682q0 80 56 137.5t134 57.5t134.5 -57.5t56.5 -137.5q0 -78 -56.5 -134t-134.5 -56t-134 56t-56 134z" />
<glyph unicode="&#xb8;" horiz-adv-x="819" d="M244 -242q47 -18 100 -18q76 0 76 45q0 49 -127 51v164h141v-76q180 -12 180 -149q0 -78 -57 -118t-154 -40q-113 0 -159 43v98z" />
<glyph unicode="&#xb9;" horiz-adv-x="856" d="M39 762v311l231 236h363v-1082h184v-227h-729v227h215v805l-258 -270h-6z" />
<glyph unicode="&#xba;" horiz-adv-x="847" d="M37 954v4q0 174 107.5 271.5t279.5 97.5q170 0 278.5 -97t108.5 -269v-5q0 -195 -111.5 -290t-275.5 -95t-275.5 94t-111.5 289zM293 932q0 -205 131 -205q129 0 129 205v53q0 90 -35 135t-94 45q-61 0 -96 -45t-35 -135v-53z" />
<glyph unicode="&#xbb;" horiz-adv-x="780" d="M31 156l182 340l-182 340h233l174 -338l-174 -342h-233zM342 156l182 340l-182 340h233l175 -338l-175 -342h-233z" />
<glyph unicode="&#xbc;" horiz-adv-x="1605" d="M35 987v211l143 133h260v-633h109v-157h-477v157h125v441l-156 -152h-4zM213 0l1012 1309h196l-1011 -1309h-197zM889 225v178l315 388h281v-420h88v-146h-88v-75h88v-150h-410v150h88v75h-362zM1051 371h200v247z" />
<glyph unicode="&#xbd;" horiz-adv-x="1652" d="M35 987v211l143 133h260v-633h109v-157h-477v157h125v441l-156 -152h-4zM207 0l1012 1309h196l-1012 -1309h-196zM1020 0v238q188 94 261 152.5t73 129.5q0 98 -121 98q-104 0 -199 -59v143q92 104 271 105q139 0 221 -62.5t82 -195.5q0 -240 -461 -373v-2h285v62h182 v-236h-594z" />
<glyph unicode="&#xbe;" horiz-adv-x="1628" d="M35 621v143q90 -66 233 -66q129 0 129 88q0 84 -133 84h-82v144h80q115 0 115 76q0 72 -121 71q-102 0 -188 -45v137q80 94 260 95q133 0 216 -51.5t83 -157.5q0 -168 -230 -193v-4q256 -14 256 -192q0 -111 -90 -166.5t-254 -55.5q-194 1 -274 93zM236 0l1011 1309h197 l-1012 -1309h-196zM909 225v178l316 388h280v-420h88v-146h-88v-75h88v-150h-409v150h88v75h-363zM1071 371h201v247z" />
<glyph unicode="&#xbf;" horiz-adv-x="864" d="M41 90q0 96 36 170t87 118t103 82t88 86t36 107v25h240v-86q0 -72 -28 -131.5t-66.5 -100.5t-76.5 -76.5t-65.5 -77.5t-27.5 -87q0 -141 149 -142q10 0 29.5 1.5t29.5 1.5v153h248v-256q-47 -53 -145 -91t-232 -38q-178 0 -291.5 87t-113.5 255zM307 952.5 q0 75.5 55.5 130t133.5 54.5q76 0 131 -54.5t55 -130t-55.5 -131t-128.5 -55.5q-78 0 -134.5 55.5t-56.5 131z" />
<glyph unicode="&#xc0;" d="M33 0v227h78l342 1082h477l332 -1082h75v-227h-573v227h147l-45 150h-428l-43 -150h140v-227h-502zM360 1638h379l68 -241h-203zM502 596h301l-150 516z" />
<glyph unicode="&#xc1;" d="M33 0v227h78l342 1082h477l332 -1082h75v-227h-573v227h147l-45 150h-428l-43 -150h140v-227h-502zM502 596h301l-150 516zM573 1397l68 241h379l-244 -241h-203z" />
<glyph unicode="&#xc2;" d="M33 0v227h78l342 1082h477l332 -1082h75v-227h-573v227h147l-45 150h-428l-43 -150h140v-227h-502zM365 1397l161 241h328l162 -241h-199l-127 90l-127 -90h-198zM502 596h301l-150 516z" />
<glyph unicode="&#xc3;" d="M33 0v227h78l342 1082h477l332 -1082h75v-227h-573v227h147l-45 150h-428l-43 -150h140v-227h-502zM389 1386q-17 51 -16 97q0 56 24 106q45 90 154 90q68 0 155 -33.5t107 -33.5q29 0 40 16.5t15 59.5h127q17 -51 17 -98q0 -56 -24 -105q-44 -90 -148 -90 q-66 0 -155 33.5t-114 33.5q-29 0 -40 -16t-15 -60h-127zM502 596h301l-150 516z" />
<glyph unicode="&#xc4;" d="M33 0v227h78l342 1082h477l332 -1082h75v-227h-573v227h147l-45 150h-428l-43 -150h140v-227h-502zM311 1522q0 66 49.5 112.5t114.5 46.5q68 0 116 -47t48 -112.5t-48 -111.5t-116 -46q-66 0 -115 47.5t-49 110.5zM502 596h301l-150 516zM743 1521.5q0 65.5 48.5 112.5 t115.5 47q66 0 115 -47t49 -112q0 -63 -49 -110.5t-115 -47.5q-68 0 -116 46t-48 111.5z" />
<glyph unicode="&#xc5;" d="M33 0v227h78l342 1082h477l332 -1082h75v-227h-573v227h147l-45 150h-428l-43 -150h140v-227h-502zM467 1567q0 92 64.5 156.5t156.5 64.5q94 0 158.5 -64.5t64.5 -156.5q0 -90 -64.5 -154.5t-158.5 -64.5t-157.5 63.5t-63.5 155.5zM502 596h301l-150 516zM604 1567 q0 -41 23.5 -65.5t60.5 -24.5t62.5 24.5t25.5 65.5t-25.5 66.5t-62.5 25.5t-60.5 -25.5t-23.5 -66.5z" />
<glyph unicode="&#xc6;" horiz-adv-x="1779" d="M33 0v227h71l320 838h-123v244h1417v-428h-270v168h-305v-291h393v-236h-393v-297h317v183h271v-408h-1020v227h102v146h-369l-53 -146h133v-227h-491zM528 596h285v481h-104z" />
<glyph unicode="&#xc7;" horiz-adv-x="1206" d="M45 664v4q0 307 169 488t462 181q158 0 275.5 -43t174.5 -100v-313h-288v192q-53 10 -136 10q-307 0 -307 -366v-86q0 -420 330 -420q70 0 137 12v193h275v-293q-53 -61 -168 -107.5t-271 -46.5h-12v-45q180 -12 180 -149q0 -78 -57 -118t-154 -40q-113 0 -159 43v98 q45 -18 100 -18q76 0 76 45q0 49 -127 51v148q-236 43 -368 219t-132 461z" />
<glyph unicode="&#xc8;" horiz-adv-x="1144" d="M39 0v227h104v838h-104v244h1044v-428h-270v170h-340v-293h428v-236h-428v-297h352v183h271v-408h-1057zM266 1638h379l68 -241h-203z" />
<glyph unicode="&#xc9;" horiz-adv-x="1144" d="M39 0v227h104v838h-104v244h1044v-428h-270v170h-340v-293h428v-236h-428v-297h352v183h271v-408h-1057zM479 1397l68 241h379l-244 -241h-203z" />
<glyph unicode="&#xca;" horiz-adv-x="1144" d="M39 0v227h104v838h-104v244h1044v-428h-270v170h-340v-293h428v-236h-428v-297h352v183h271v-408h-1057zM270 1397l162 241h328l162 -241h-199l-127 90l-127 -90h-199z" />
<glyph unicode="&#xcb;" horiz-adv-x="1144" d="M39 0v227h104v838h-104v244h1044v-428h-270v170h-340v-293h428v-236h-428v-297h352v183h271v-408h-1057zM215 1522q0 66 49 112.5t115 46.5q68 0 116 -47t48 -112.5t-48.5 -111.5t-115.5 -46q-66 0 -115 47.5t-49 110.5zM647 1521.5q0 65.5 48 112.5t116 47q66 0 115 -47 t49 -112q0 -63 -49 -110.5t-115 -47.5q-68 0 -116 46t-48 111.5z" />
<glyph unicode="&#xcc;" horiz-adv-x="634" d="M-12 1638h379l67 -241h-203zM39 0v227h113v838h-113v244h557v-244h-113v-838h113v-227h-557z" />
<glyph unicode="&#xcd;" horiz-adv-x="634" d="M39 0v227h113v838h-113v244h557v-244h-113v-838h113v-227h-557zM201 1397l67 241h379l-244 -241h-202z" />
<glyph unicode="&#xce;" horiz-adv-x="634" d="M-8 1397l162 241h327l162 -241h-199l-127 90l-127 -90h-198zM39 0v227h113v838h-113v244h557v-244h-113v-838h113v-227h-557z" />
<glyph unicode="&#xcf;" horiz-adv-x="634" d="M-61 1522q0 66 49 112.5t114 46.5q68 0 116 -47t48 -112.5t-48 -111.5t-116 -46q-66 0 -114.5 47.5t-48.5 110.5zM39 0v227h113v838h-113v244h557v-244h-113v-838h113v-227h-557zM371 1521.5q0 65.5 48 112.5t116 47q66 0 114.5 -47t48.5 -112q0 -63 -49 -110.5 t-114 -47.5q-68 0 -116 46t-48 111.5z" />
<glyph unicode="&#xd0;" horiz-adv-x="1333" d="M31 535v227h112v303h-104v244h627q293 0 456.5 -163t163.5 -480v-4q0 -342 -174 -502t-483 -160h-590v227h104v308h-112zM465 236h141q184 0 260 94t76 288v107q0 164 -65.5 241.5t-229.5 77.5h-182v-282h266v-227h-266v-299z" />
<glyph unicode="&#xd1;" horiz-adv-x="1427" d="M39 0v227h104v838h-104v244h575l408 -920v676h-139v244h508v-244h-103v-1065h-422l-456 999v-772h165v-227h-536zM446 1386q-17 51 -16 97q0 56 25 106q45 90 153 90q68 0 155 -33.5t107 -33.5q29 0 40.5 16.5t15.5 59.5h127q17 -51 16 -98q0 -56 -23 -105 q-44 -90 -149 -90q-66 0 -155 33.5t-113 33.5q-29 0 -40 -16t-16 -60h-127z" />
<glyph unicode="&#xd2;" horiz-adv-x="1384" d="M45 657v5q0 307 175 491t472 184t472 -184t175 -491v-5q0 -330 -182 -509t-465 -179q-281 0 -464 179t-183 509zM362 1638h379l68 -241h-203zM391 621q0 -410 301 -410q303 0 303 410v96q0 176 -75.5 271t-227.5 95q-301 0 -301 -366v-96z" />
<glyph unicode="&#xd3;" horiz-adv-x="1384" d="M45 657v5q0 307 175 491t472 184t472 -184t175 -491v-5q0 -330 -182 -509t-465 -179q-281 0 -464 179t-183 509zM391 621q0 -410 301 -410q303 0 303 410v96q0 176 -75.5 271t-227.5 95q-301 0 -301 -366v-96zM575 1397l68 241h379l-244 -241h-203z" />
<glyph unicode="&#xd4;" horiz-adv-x="1384" d="M45 657v5q0 307 175 491t472 184t472 -184t175 -491v-5q0 -330 -182 -509t-465 -179q-281 0 -464 179t-183 509zM367 1397l161 241h328l162 -241h-199l-127 90l-127 -90h-198zM391 621q0 -410 301 -410q303 0 303 410v96q0 176 -75.5 271t-227.5 95q-301 0 -301 -366v-96 z" />
<glyph unicode="&#xd5;" horiz-adv-x="1384" d="M45 657v5q0 307 175 491t472 184t472 -184t175 -491v-5q0 -330 -182 -509t-465 -179q-281 0 -464 179t-183 509zM389 1386q-17 51 -16 97q0 56 24 106q45 90 154 90q68 0 155 -33.5t107 -33.5q29 0 40 16.5t15 59.5h127q17 -51 17 -98q0 -56 -24 -105q-44 -90 -148 -90 q-66 0 -155 33.5t-114 33.5q-29 0 -40 -16t-15 -60h-127zM391 621q0 -410 301 -410q303 0 303 410v96q0 176 -75.5 271t-227.5 95q-301 0 -301 -366v-96z" />
<glyph unicode="&#xd6;" horiz-adv-x="1384" d="M45 657v5q0 307 175 491t472 184t472 -184t175 -491v-5q0 -330 -182 -509t-465 -179q-281 0 -464 179t-183 509zM313 1522q0 66 49.5 112.5t114.5 46.5q68 0 116 -47t48 -112.5t-48 -111.5t-116 -46q-66 0 -115 47.5t-49 110.5zM391 621q0 -410 301 -410q303 0 303 410 v96q0 176 -75.5 271t-227.5 95q-301 0 -301 -366v-96zM745 1521.5q0 65.5 48.5 112.5t115.5 47q66 0 115 -47t49 -112q0 -63 -49 -110.5t-115 -47.5q-68 0 -116 46t-48 111.5z" />
<glyph unicode="&#xd7;" horiz-adv-x="946" d="M72 852l168 168l233 -236l227 230l168 -168l-227 -230l236 -235l-168 -168l-236 236l-227 -230l-168 168l227 229z" />
<glyph unicode="&#xd8;" horiz-adv-x="1384" d="M45 -39l164 207q-164 184 -164 489v5q0 307 176 491t473 184q211 0 367 -98l84 104h188l-159 -200q166 -182 165 -481v-5q0 -332 -181 -510t-464 -178q-211 0 -372 103l-89 -111h-188zM385 621q0 -125 21 -205l489 614q-72 53 -201 53q-154 0 -231.5 -96t-77.5 -270v-96z M483 274q70 -63 211 -63q307 0 307 410v96q0 102 -22 182z" />
<glyph unicode="&#xd9;" horiz-adv-x="1406" d="M37 1065v244h561v-244h-137v-551q0 -150 53 -220.5t191 -70.5q135 0 189 71t54 218v553h-139v244h561v-244h-92v-502q0 -311 -143.5 -452.5t-430 -141.5t-431 142.5t-144.5 453.5v500h-92zM375 1638h379l67 -241h-203z" />
<glyph unicode="&#xda;" horiz-adv-x="1406" d="M37 1065v244h561v-244h-137v-551q0 -150 53 -220.5t191 -70.5q135 0 189 71t54 218v553h-139v244h561v-244h-92v-502q0 -311 -143.5 -452.5t-430 -141.5t-431 142.5t-144.5 453.5v500h-92zM588 1397l67 241h379l-243 -241h-203z" />
<glyph unicode="&#xdb;" horiz-adv-x="1406" d="M37 1065v244h561v-244h-137v-551q0 -150 53 -220.5t191 -70.5q135 0 189 71t54 218v553h-139v244h561v-244h-92v-502q0 -311 -143.5 -452.5t-430 -141.5t-431 142.5t-144.5 453.5v500h-92zM379 1397l162 241h327l162 -241h-199l-126 90l-127 -90h-199z" />
<glyph unicode="&#xdc;" horiz-adv-x="1406" d="M37 1065v244h561v-244h-137v-551q0 -150 53 -220.5t191 -70.5q135 0 189 71t54 218v553h-139v244h561v-244h-92v-502q0 -311 -143.5 -452.5t-430 -141.5t-431 142.5t-144.5 453.5v500h-92zM324 1522q0 66 49 112.5t114 46.5q68 0 116 -47t48 -112.5t-48 -111.5t-116 -46 q-66 0 -114.5 47.5t-48.5 110.5zM756 1521.5q0 65.5 48 112.5t116 47q66 0 114.5 -47t48.5 -112q0 -63 -49 -110.5t-114 -47.5q-68 0 -116 46t-48 111.5z" />
<glyph unicode="&#xdd;" horiz-adv-x="1236" d="M33 1065v244h559v-244h-123l195 -354l190 354h-119v244h471v-244h-82l-333 -600v-238h135v-227h-600v227h135v228l-348 610h-80zM547 1397l67 241h379l-243 -241h-203z" />
<glyph unicode="&#xde;" horiz-adv-x="1202" d="M39 1309h606v-230h-172v-84h297q188 0 289.5 -89t101.5 -255q0 -162 -105.5 -254t-293.5 -92h-289v-92h172v-213h-606v227h104v838h-104v244zM473 514h219q145 0 146 123q0 113 -133 113h-232v-236z" />
<glyph unicode="&#xdf;" horiz-adv-x="1282" d="M31 0v227h112v557h-112v220h112q14 186 155.5 287.5t373.5 101.5q211 0 329.5 -81t118.5 -229q0 -72 -45 -135t-99 -98t-99.5 -70t-45.5 -57q0 -8 2.5 -13t6.5 -10.5t8 -9.5t13 -8t14.5 -7t17.5 -8t18 -8q182 -74 203 -86q137 -80 137 -268q0 -164 -97 -249t-288 -85 q-215 0 -321 97v225h250v-119q14 -2 49 -2q117 0 117 96q0 55 -68 88q-16 6 -84 29t-111 41q-147 66 -147 227q0 63 42 124t91 98.5t91 88t42 95.5q0 117 -155 117q-195 0 -195 -232v-915h-18v-29h-418z" />
<glyph unicode="&#xe0;" horiz-adv-x="1062" d="M37 236v2q0 61 21.5 109t52 78t88 55.5t102.5 37.5l121 31q106 27 149 51.5t43 69.5v6q0 135 -172 135q-45 0 -84 -6v-158h-262v236q135 145 408 145q229 0 331.5 -108.5t102.5 -317.5v-323q0 -70 63 -70q12 0 33 4v-190q-53 -41 -163.5 -41t-174 50t-73.5 140 q-66 -199 -299 -199q-129 0 -208 71t-79 192zM188 1407h367l90 -303h-199zM365 264q0 -51 28.5 -80.5t79.5 -29.5q61 0 101 53t40 149v146q-35 -37 -116 -80q-72 -31 -102.5 -61.5t-30.5 -86.5v-10z" />
<glyph unicode="&#xe1;" horiz-adv-x="1062" d="M37 236v2q0 61 21.5 109t52 78t88 55.5t102.5 37.5l121 31q106 27 149 51.5t43 69.5v6q0 135 -172 135q-45 0 -84 -6v-158h-262v236q135 145 408 145q229 0 331.5 -108.5t102.5 -317.5v-323q0 -70 63 -70q12 0 33 4v-190q-53 -41 -163.5 -41t-174 50t-73.5 140 q-66 -199 -299 -199q-129 0 -208 71t-79 192zM365 264q0 -51 28.5 -80.5t79.5 -29.5q61 0 101 53t40 149v146q-35 -37 -116 -80q-72 -31 -102.5 -61.5t-30.5 -86.5v-10zM395 1104l97 303h364l-272 -303h-189z" />
<glyph unicode="&#xe2;" horiz-adv-x="1062" d="M37 236v2q0 61 21.5 109t52 78t88 55.5t102.5 37.5l121 31q106 27 149 51.5t43 69.5v6q0 135 -172 135q-45 0 -84 -6v-158h-262v236q135 145 408 145q229 0 331.5 -108.5t102.5 -317.5v-323q0 -70 63 -70q12 0 33 4v-190q-53 -41 -163.5 -41t-174 50t-73.5 140 q-66 -199 -299 -199q-129 0 -208 71t-79 192zM190 1104l175 289h307l174 -289h-201l-127 115l-127 -115h-201zM365 264q0 -51 28.5 -80.5t79.5 -29.5q61 0 101 53t40 149v146q-35 -37 -116 -80q-72 -31 -102.5 -61.5t-30.5 -86.5v-10z" />
<glyph unicode="&#xe3;" horiz-adv-x="1062" d="M37 236v2q0 61 21.5 109t52 78t88 55.5t102.5 37.5l121 31q106 27 149 51.5t43 69.5v6q0 135 -172 135q-45 0 -84 -6v-158h-262v236q135 145 408 145q229 0 331.5 -108.5t102.5 -317.5v-323q0 -70 63 -70q12 0 33 4v-190q-53 -41 -163.5 -41t-174 50t-73.5 140 q-66 -199 -299 -199q-129 0 -208 71t-79 192zM225 1116q-19 54 -18 104q0 53 21 101q42 92 157 92q68 0 145.5 -33.5t98.5 -33.5q29 0 40 16t15 59h127q18 -54 18 -103q0 -53 -21 -101q-40 -92 -153 -93q-63 0 -145 34t-104 34q-27 0 -38.5 -16.5t-15.5 -59.5h-127zM365 264 q0 -51 28.5 -80.5t79.5 -29.5q61 0 101 53t40 149v146q-35 -37 -116 -80q-72 -31 -102.5 -61.5t-30.5 -86.5v-10z" />
<glyph unicode="&#xe4;" horiz-adv-x="1062" d="M37 236v2q0 61 21.5 109t52 78t88 55.5t102.5 37.5l121 31q106 27 149 51.5t43 69.5v6q0 135 -172 135q-45 0 -84 -6v-158h-262v236q135 145 408 145q229 0 331.5 -108.5t102.5 -317.5v-323q0 -70 63 -70q12 0 33 4v-190q-53 -41 -163.5 -41t-174 50t-73.5 140 q-66 -199 -299 -199q-129 0 -208 71t-79 192zM147 1241.5q0 65.5 48.5 112.5t115.5 47q66 0 115 -47t49 -113q0 -63 -49 -110.5t-115 -47.5q-68 0 -116 46.5t-48 112zM365 264q0 -51 28.5 -80.5t79.5 -29.5q61 0 101 53t40 149v146q-35 -37 -116 -80q-72 -31 -102.5 -61.5 t-30.5 -86.5v-10zM561 1241q0 66 49 113t115 47q68 0 116 -47t48 -112.5t-48 -112t-116 -46.5q-66 0 -115 47.5t-49 110.5z" />
<glyph unicode="&#xe5;" horiz-adv-x="1062" d="M37 236v2q0 61 21.5 109t52 78t88 55.5t102.5 37.5l121 31q106 27 149 51.5t43 69.5v6q0 135 -172 135q-45 0 -84 -6v-158h-262v236q135 145 408 145q229 0 331.5 -108.5t102.5 -317.5v-323q0 -70 63 -70q12 0 33 4v-190q-53 -41 -163.5 -41t-174 50t-73.5 140 q-66 -199 -299 -199q-129 0 -208 71t-79 192zM297 1307q0 90 64.5 154.5t156.5 64.5q94 0 158.5 -64.5t64.5 -154.5q0 -92 -64.5 -156t-158.5 -64t-157.5 64t-63.5 156zM365 264q0 -51 28.5 -80.5t79.5 -29.5q61 0 101 53t40 149v146q-35 -37 -116 -80q-72 -31 -102.5 -61.5 t-30.5 -86.5v-10zM432 1307q0 -43 24.5 -70t61.5 -27t62.5 27t25.5 70q0 41 -25.5 68.5t-62.5 27.5q-35 0 -60.5 -27.5t-25.5 -68.5z" />
<glyph unicode="&#xe6;" horiz-adv-x="1603" d="M37 242v2q0 74 27.5 126t88 87t115 52t148.5 40q109 27 150.5 51.5t41.5 69.5v6q0 135 -172 135q-43 0 -84 -6v-158h-262v236q135 145 402 145q233 0 317 -135q113 135 313 135q209 0 326 -116.5t117 -307.5q0 -82 -31 -166h-596q8 -125 78.5 -171t212.5 -46 q168 0 287 60v-172q-37 -53 -137.5 -92.5t-237.5 -39.5q-342 0 -457 226q-66 -229 -340 -230q-143 0 -225 71t-82 198zM365 264q0 -51 28.5 -80.5t79.5 -29.5q61 0 101 53t40 149v146q-35 -37 -116 -80q-72 -31 -102.5 -61.5t-30.5 -86.5v-10zM938 584h336v20 q0 221 -154 221q-174 1 -182 -241z" />
<glyph unicode="&#xe7;" horiz-adv-x="960" d="M39 504v2q0 248 148.5 385t355.5 137q260 0 354 -102v-277h-260v154q-20 2 -62 2q-211 0 -210 -258v-49q0 -152 63.5 -216.5t196.5 -64.5q137 0 280 72v-187q-41 -53 -132 -90t-222 -37h-29v-51q180 -12 180 -149q0 -78 -57 -118t-153 -40q-113 0 -160 43v98 q45 -18 100 -18q76 0 76 45q0 49 -127 51v162q-160 45 -251 175t-91 331z" />
<glyph unicode="&#xe8;" horiz-adv-x="1032" d="M39 502v2q0 244 141.5 384t360.5 140q217 0 334.5 -116.5t117.5 -307.5q0 -88 -32 -166h-594q8 -125 77.5 -171t212.5 -46q168 0 287 60v-172q-37 -53 -138 -92.5t-239 -39.5q-254 0 -391 134.5t-137 390.5zM217 1407h367l90 -303h-199zM367 584h335v20q0 221 -155 221 q-172 1 -180 -241z" />
<glyph unicode="&#xe9;" horiz-adv-x="1032" d="M39 502v2q0 244 141.5 384t360.5 140q217 0 334.5 -116.5t117.5 -307.5q0 -88 -32 -166h-594q8 -125 77.5 -171t212.5 -46q168 0 287 60v-172q-37 -53 -138 -92.5t-239 -39.5q-254 0 -391 134.5t-137 390.5zM367 584h335v20q0 221 -155 221q-172 1 -180 -241zM424 1104 l96 303h365l-273 -303h-188z" />
<glyph unicode="&#xea;" horiz-adv-x="1032" d="M39 502v2q0 244 141.5 384t360.5 140q217 0 334.5 -116.5t117.5 -307.5q0 -88 -32 -166h-594q8 -125 77.5 -171t212.5 -46q168 0 287 60v-172q-37 -53 -138 -92.5t-239 -39.5q-254 0 -391 134.5t-137 390.5zM219 1104l174 289h307l174 -289h-200l-127 115l-127 -115h-201 zM367 584h335v20q0 221 -155 221q-172 1 -180 -241z" />
<glyph unicode="&#xeb;" horiz-adv-x="1032" d="M39 502v2q0 244 141.5 384t360.5 140q217 0 334.5 -116.5t117.5 -307.5q0 -88 -32 -166h-594q8 -125 77.5 -171t212.5 -46q168 0 287 60v-172q-37 -53 -138 -92.5t-239 -39.5q-254 0 -391 134.5t-137 390.5zM176 1241.5q0 65.5 48 112.5t116 47q66 0 115 -47t49 -113 q0 -63 -49 -110.5t-115 -47.5q-68 0 -116 46.5t-48 112zM367 584h335v20q0 221 -155 221q-172 1 -180 -241zM590 1241q0 66 49 113t115 47q68 0 116 -47t48 -112.5t-48.5 -112t-115.5 -46.5q-66 0 -115 47.5t-49 110.5z" />
<glyph unicode="&#xec;" horiz-adv-x="587" d="M-53 1407h366l90 -303h-198zM31 0v227h102v506h-102v271h426v-777h100v-227h-526z" />
<glyph unicode="&#xed;" horiz-adv-x="587" d="M31 0v227h102v506h-102v271h426v-777h100v-227h-526zM154 1104l96 303h364l-272 -303h-188z" />
<glyph unicode="&#xee;" horiz-adv-x="587" d="M-51 1104l174 289h307l174 -289h-201l-127 115l-126 -115h-201zM31 0v227h102v506h-102v271h426v-777h100v-227h-526z" />
<glyph unicode="&#xef;" horiz-adv-x="587" d="M-78 1241.5q0 65.5 48 112.5t116 47t116 -47t48 -112.5t-48 -112t-116 -46.5t-116 46.5t-48 112zM31 0v227h102v506h-102v271h426v-777h100v-227h-526zM303 1241q0 66 49 113t115 47q68 0 117 -47t49 -113q0 -63 -49 -110.5t-117 -47.5q-66 0 -115 47.5t-49 110.5z" />
<glyph unicode="&#xf0;" horiz-adv-x="1130" d="M39 512v4q0 231 110.5 356t278.5 125q158 0 262 -129l2 2q-68 125 -203 248l-321 -90l-43 125l237 68q-111 78 -243 147v10h440q66 -35 115 -71l219 63l43 -125l-141 -41q291 -283 290 -645v-45q0 -268 -151.5 -402.5t-372.5 -134.5t-371.5 133.5t-150.5 401.5zM367 481 q0 -297 194 -297q197 0 197 297v74q0 127 -53.5 193.5t-143.5 66.5t-142 -65.5t-52 -194.5v-74z" />
<glyph unicode="&#xf1;" horiz-adv-x="1232" d="M31 0v227h94v506h-94v271h356q55 -100 55 -232v-16q35 127 124 199.5t225 72.5q152 0 235.5 -92t83.5 -270v-439h92v-227h-534v227h116v398q0 164 -141 163q-88 0 -140 -67.5t-52 -190.5v-303h120v-227h-540zM313 1116q-19 54 -18 104q0 53 21 101q42 92 157 92 q68 0 145.5 -33.5t98.5 -33.5q29 0 40 16t15 59h127q18 -54 18 -103q0 -53 -21 -101q-40 -92 -153 -93q-63 0 -145 34t-104 34q-27 0 -38.5 -16.5t-15.5 -59.5h-127z" />
<glyph unicode="&#xf2;" horiz-adv-x="1124" d="M39 512v4q0 240 145.5 376t377 136t377.5 -136t146 -374v-4q0 -139 -43 -244.5t-117.5 -168t-166.5 -93.5t-197 -31q-221 0 -371.5 133.5t-150.5 401.5zM233 1407h367l90 -303h-198zM367 481q0 -297 194 -297q197 0 197 297v74q0 127 -53.5 193.5t-143.5 66.5t-142 -65.5 t-52 -194.5v-74z" />
<glyph unicode="&#xf3;" horiz-adv-x="1124" d="M39 512v4q0 240 145.5 376t377 136t377.5 -136t146 -374v-4q0 -139 -43 -244.5t-117.5 -168t-166.5 -93.5t-197 -31q-221 0 -371.5 133.5t-150.5 401.5zM367 481q0 -297 194 -297q197 0 197 297v74q0 127 -53.5 193.5t-143.5 66.5t-142 -65.5t-52 -194.5v-74zM440 1104 l97 303h364l-272 -303h-189z" />
<glyph unicode="&#xf4;" horiz-adv-x="1124" d="M39 512v4q0 240 145.5 376t377 136t377.5 -136t146 -374v-4q0 -139 -43 -244.5t-117.5 -168t-166.5 -93.5t-197 -31q-221 0 -371.5 133.5t-150.5 401.5zM236 1104l174 289h307l174 -289h-201l-127 115l-127 -115h-200zM367 481q0 -297 194 -297q197 0 197 297v74 q0 127 -53.5 193.5t-143.5 66.5t-142 -65.5t-52 -194.5v-74z" />
<glyph unicode="&#xf5;" horiz-adv-x="1124" d="M39 512v4q0 240 145.5 376t377 136t377.5 -136t146 -374v-4q0 -139 -43 -244.5t-117.5 -168t-166.5 -93.5t-197 -31q-221 0 -371.5 133.5t-150.5 401.5zM270 1116q-19 54 -18 104q0 53 21 101q42 92 157 92q68 0 145.5 -33.5t98.5 -33.5q29 0 40 16t15 59h127 q18 -54 18 -103q0 -53 -21 -101q-40 -92 -153 -93q-63 0 -145 34t-104 34q-27 0 -38.5 -16.5t-15.5 -59.5h-127zM367 481q0 -297 194 -297q197 0 197 297v74q0 127 -53.5 193.5t-143.5 66.5t-142 -65.5t-52 -194.5v-74z" />
<glyph unicode="&#xf6;" horiz-adv-x="1124" d="M39 512v4q0 240 145.5 376t377 136t377.5 -136t146 -374v-4q0 -139 -43 -244.5t-117.5 -168t-166.5 -93.5t-197 -31q-221 0 -371.5 133.5t-150.5 401.5zM193 1241.5q0 65.5 48 112.5t115 47q66 0 115 -47t49 -113q0 -63 -49 -110.5t-115 -47.5q-68 0 -115.5 46.5 t-47.5 112zM367 481q0 -297 194 -297q197 0 197 297v74q0 127 -53.5 193.5t-143.5 66.5t-142 -65.5t-52 -194.5v-74zM606 1241q0 66 49.5 113t114.5 47q68 0 116 -47t48 -112.5t-48 -112t-116 -46.5q-66 0 -115 47.5t-49 110.5z" />
<glyph unicode="&#xf7;" horiz-adv-x="974" d="M88 516v246h799v-246h-799zM336 286.5q0 65.5 47 114t112.5 48.5t112.5 -48.5t47 -114t-47 -112.5t-112.5 -47t-112.5 47t-47 112.5zM336 987q0 68 47 116t112.5 48t112.5 -48t47 -116q0 -66 -47 -112t-112.5 -46t-112.5 47.5t-47 110.5z" />
<glyph unicode="&#xf8;" horiz-adv-x="1118" d="M39 -39l135 164q-135 139 -135 387v4q0 240 145.5 376t376.5 136q168 0 295 -76l64 76h159l-125 -151q131 -137 131 -359v-4q0 -139 -43 -244.5t-117.5 -168t-166.5 -93.5t-197 -31q-166 0 -291 72l-71 -88h-160zM360 481q0 -72 7 -123l338 410q-49 49 -144 49 q-90 0 -145.5 -67.5t-55.5 -194.5v-74zM418 227q45 -47 143 -47q203 0 203 301v74q0 47 -6 86z" />
<glyph unicode="&#xf9;" horiz-adv-x="1224" d="M31 733v271h415v-627q0 -178 142 -178q88 0 138 69.5t50 202.5v262h-135v271h459v-777h94v-227h-356q-49 111 -50 225v11q-37 -123 -121.5 -192t-211.5 -69q-332 0 -332 375v383h-92zM268 1407h367l90 -303h-199z" />
<glyph unicode="&#xfa;" horiz-adv-x="1224" d="M31 733v271h415v-627q0 -178 142 -178q88 0 138 69.5t50 202.5v262h-135v271h459v-777h94v-227h-356q-49 111 -50 225v11q-37 -123 -121.5 -192t-211.5 -69q-332 0 -332 375v383h-92zM475 1104l96 303h365l-272 -303h-189z" />
<glyph unicode="&#xfb;" horiz-adv-x="1224" d="M31 733v271h415v-627q0 -178 142 -178q88 0 138 69.5t50 202.5v262h-135v271h459v-777h94v-227h-356q-49 111 -50 225v11q-37 -123 -121.5 -192t-211.5 -69q-332 0 -332 375v383h-92zM270 1104l174 289h308l174 -289h-201l-127 115l-127 -115h-201z" />
<glyph unicode="&#xfc;" horiz-adv-x="1224" d="M31 733v271h415v-627q0 -178 142 -178q88 0 138 69.5t50 202.5v262h-135v271h459v-777h94v-227h-356q-49 111 -50 225v11q-37 -123 -121.5 -192t-211.5 -69q-332 0 -332 375v383h-92zM227 1241.5q0 65.5 48.5 112.5t115.5 47q66 0 115 -47t49 -113q0 -63 -49 -110.5 t-115 -47.5q-68 0 -116 46.5t-48 112zM641 1241q0 66 49 113t115 47q68 0 116 -47t48 -112.5t-48.5 -112t-115.5 -46.5q-66 0 -115 47.5t-49 110.5z" />
<glyph unicode="&#xfd;" horiz-adv-x="1155" d="M27 733v271h538v-271h-123l176 -483l162 483h-121v271h469v-271h-96l-266 -721q-57 -172 -151.5 -251.5t-247.5 -79.5q-150 0 -240 75v189q86 -29 178 -29q154 0 197 102l8 23h-119l-268 692h-96zM494 1104l96 303h364l-272 -303h-188z" />
<glyph unicode="&#xfe;" horiz-adv-x="1212" d="M23 -90h94v1225h-94v243h417v-592q29 96 113 169t213 73q190 0 296.5 -140t106.5 -368v-2q0 -256 -114.5 -398.5t-302.5 -142.5q-125 0 -205 62.5t-107 167.5v-297h121v-209h-538v209zM440 498q0 -150 56.5 -226.5t148.5 -76.5t144.5 76.5t52.5 220.5v63 q0 113 -51.5 177.5t-145.5 64.5q-90 0 -147.5 -70t-57.5 -190v-39z" />
<glyph unicode="&#xff;" horiz-adv-x="1155" d="M27 733v271h538v-271h-123l176 -483l162 483h-121v271h469v-271h-96l-266 -721q-57 -172 -151.5 -251.5t-247.5 -79.5q-150 0 -240 75v189q86 -29 178 -29q154 0 197 102l8 23h-119l-268 692h-96zM246 1241.5q0 65.5 48 112.5t116 47q66 0 114.5 -47t48.5 -113 q0 -63 -49 -110.5t-114 -47.5q-68 0 -116 46.5t-48 112zM659 1241q0 66 49.5 113t114.5 47q68 0 116 -47t48 -112.5t-48 -112t-116 -46.5q-66 0 -115 47.5t-49 110.5z" />
<glyph unicode="&#x152;" horiz-adv-x="1763" d="M45 662v4q0 317 160 480t450 163h1047v-428h-270v168h-293v-291h381v-236h-381v-297h305v183h270v-408h-1038q-631 0 -631 662zM377 618q0 -197 69.5 -289.5t251.5 -92.5h111v808h-133q-164 0 -231.5 -77.5t-67.5 -241.5v-107z" />
<glyph unicode="&#x153;" horiz-adv-x="1742" d="M37 512v4q0 240 141 376t361 136q258 0 372 -207q104 207 361 207q203 0 316.5 -117.5t113.5 -306.5q0 -92 -31 -166h-602q8 -121 82 -169t217 -48q168 0 287 60v-172q-39 -53 -135.5 -92.5t-219.5 -39.5q-289 0 -391 211q-115 -211 -370 -211q-209 0 -355.5 134.5 t-146.5 400.5zM365 481q0 -297 192.5 -297t192.5 297v74q0 127 -52.5 193.5t-140.5 66.5t-140 -65.5t-52 -194.5v-74zM1069 584h344v20q0 221 -158 221q-84 0 -133 -60t-53 -181z" />
<glyph unicode="&#x178;" horiz-adv-x="1236" d="M33 1065v244h559v-244h-123l195 -354l190 354h-119v244h471v-244h-82l-333 -600v-238h135v-227h-600v227h135v228l-348 610h-80zM285 1522q0 66 49 112.5t115 46.5q68 0 115.5 -47t47.5 -112.5t-48 -111.5t-115 -46q-66 0 -115 47.5t-49 110.5zM717 1521.5 q0 65.5 48 112.5t116 47q66 0 114.5 -47t48.5 -112q0 -63 -49 -110.5t-114 -47.5q-68 0 -116 46t-48 111.5z" />
<glyph unicode="&#x2c6;" horiz-adv-x="819" d="M82 1104l174 289h307l174 -289h-200l-127 115l-127 -115h-201z" />
<glyph unicode="&#x2dc;" horiz-adv-x="819" d="M117 1116q-39 113 3 205t156 92q68 0 146 -33.5t98 -33.5q29 0 40 16t15 59h127q37 -113 -3 -205t-152 -92q-63 0 -145.5 34t-104.5 34q-27 0 -38 -16.5t-15 -59.5h-127z" />
<glyph unicode="&#x2013;" horiz-adv-x="1210" d="M88 455v194h1034v-194h-1034z" />
<glyph unicode="&#x2014;" horiz-adv-x="2000" d="M88 455v194h1825v-194h-1825z" />
<glyph unicode="&#x2018;" horiz-adv-x="473" d="M72 897q0 225 147 412h211q-74 -188 -74 -377q0 -39 9 -92h-289q-4 28 -4 57z" />
<glyph unicode="&#x2019;" horiz-adv-x="473" d="M45 840q72 184 72 377q0 57 -8 92h288q4 -29 4 -60q0 -123 -35.5 -217t-111.5 -192h-209z" />
<glyph unicode="&#x201a;" horiz-adv-x="452" d="M33 -143q74 193 73 376q0 37 -8 95h287q6 -25 6 -60q0 -125 -36 -220t-113 -191h-209z" />
<glyph unicode="&#x201c;" horiz-adv-x="856" d="M72 897q0 225 147 412h211q-74 -188 -74 -377q0 -39 9 -92h-289q-4 28 -4 57zM455 897q0 223 145 412h211q-72 -184 -72 -377q0 -57 9 -92h-289q-4 28 -4 57z" />
<glyph unicode="&#x201d;" horiz-adv-x="856" d="M45 840q72 184 72 377q0 57 -8 92h288q4 -29 4 -60q0 -123 -35.5 -217t-111.5 -192h-209zM424 840q74 180 74 377q0 53 -6 92h286q4 -29 4 -60q0 -225 -145 -409h-213z" />
<glyph unicode="&#x201e;" horiz-adv-x="856" d="M45 -143q72 186 72 376q0 55 -8 95h288q4 -33 4 -60q0 -125 -35.5 -219t-111.5 -192h-209zM424 -143q74 184 74 376q0 51 -6 95h286q4 -33 4 -60q0 -227 -145 -411h-213z" />
<glyph unicode="&#x2022;" horiz-adv-x="724" d="M70 584q0 117 88 203.5t204 86.5q123 0 208 -86t85 -204q0 -121 -85 -205t-208 -84q-117 0 -204.5 85t-87.5 204z" />
<glyph unicode="&#x2026;" horiz-adv-x="1521" d="M74 170q0 80 56 137.5t134 57.5t134.5 -57.5t56.5 -137.5q0 -78 -56.5 -134t-134.5 -56t-134 56t-56 134zM569 170q0 80 56.5 137.5t134.5 57.5t134 -57.5t56 -137.5q0 -78 -56 -134t-134 -56t-134.5 56t-56.5 134zM1065 170q0 80 56.5 137.5t134 57.5t134 -57.5 t56.5 -137.5q0 -78 -56.5 -134t-134 -56t-134 56t-56.5 134z" />
<glyph unicode="&#x2039;" horiz-adv-x="485" d="M31 502l174 342h250l-183 -340l183 -342h-250z" />
<glyph unicode="&#x203a;" horiz-adv-x="485" d="M31 162l182 340l-182 342h248l176 -340l-176 -342h-248z" />
<glyph unicode="&#x20ac;" horiz-adv-x="1161" d="M33 459v139h110v4v86h-110v139h117q29 231 185.5 370.5t383.5 139.5q256 0 373 -131v-282h-269v161q-23 2 -69 2q-123 0 -192.5 -68.5t-82.5 -191.5h357v-139h-359v-90h359v-139h-351q43 -244 314 -244q188 0 307 90v-199q-117 -137 -381 -137q-227 0 -381 127t-190 363 h-121z" />
<glyph unicode="&#x2122;" horiz-adv-x="1308" d="M37 1108v201h495v-201h-122v74h-41v-258h49v-113h-264v113h49v258h-43v-74h-123zM569 811v113h41v266h-41v119h279l61 -250l62 250h303v-119h-41v-266h41v-113h-244v113h37v262l-94 -375h-135l-93 367v-254h37v-113h-213z" />
<glyph unicode="&#xe000;" horiz-adv-x="1004" d="M0 1005h1005v-1005h-1005v1005z" />
<glyph unicode="&#xfb01;" horiz-adv-x="1208" d="M31 1004h112v34q0 172 97.5 260t246.5 88q125 0 185 -51v-178q-31 6 -76 6q-72 0 -100.5 -23.5t-28.5 -80.5v-55h610v-777h101v-227h-529v227h105v557h-287v-557h111v-227h-547v227h112v557h-112v220zM739 1241q0 72 51.5 124t121 52t120.5 -52t51 -124q0 -70 -50 -121 t-121.5 -51t-122 51t-50.5 121z" />
<glyph unicode="&#xfb02;" horiz-adv-x="1243" d="M31 0v227h112v557h-112v220h112v63q0 160 85 242t225 82q123 0 180 -48v-178q-2 0 -28.5 1t-33.5 1q-104 0 -104 -96v-67h209v-220h-209v-557h137v-227h-573zM676 0v227h108v908h-86v243h412v-1151h100v-227h-534z" />
<glyph unicode="&#xfb03;" horiz-adv-x="1806" d="M31 1004h112v32q0 172 99.5 259t253.5 87q133 0 192 -51v-178q-61 6 -82 6q-76 0 -107.5 -22.5t-31.5 -79.5v-53h281v34q0 172 97 260t247 88q121 0 184 -51v-178q-31 6 -76 6q-72 0 -100.5 -23.5t-28.5 -80.5v-55h604v-777h101v-227h-525v227h99v557h-279v-557h107v-227 h-529v227h99v557h-281v-557h108v-227h-544v227h112v557h-112v220zM1335 1241q0 72 51.5 124t122.5 52q70 0 121 -52t51 -124q0 -70 -50 -121t-121.5 -51t-123 51t-51.5 121z" />
<glyph unicode="&#xfb04;" horiz-adv-x="1847" d="M31 0v227h112v557h-112v220h112v32q0 172 99.5 259t253.5 87q133 0 192 -51v-178q-61 6 -82 6q-76 0 -107.5 -22.5t-31.5 -79.5v-53h281v63q0 160 83.5 242t223.5 82q121 0 182 -48v-178q-2 0 -28.5 1t-32.5 1q-104 0 -105 -96v-67h209v-220h-209v-557h135v-227h-557v227 h99v557h-281v-557h108v-227h-544zM1280 0v227h109v908h-86v243h409v-1151h103v-227h-535z" />
</font>
</defs>
</svg>
