<?xml version="1.0" standalone="no"?><!DOCTYPE svg PUBLIC "-//W3C//DTD SVG 1.1//EN" "http://www.w3.org/Graphics/SVG/1.1/DTD/svg11.dtd" ><svg version="1.1" xmlns="http://www.w3.org/2000/svg"><defs><font horiz-adv-x="0" id="font"><font-face ascent="854" bbox="-222 -187 1003 861" cap-height="639" descent="-146" font-family="FC Zizou Slab Web" font-stretch="normal" font-style="normal" font-weight="600" units-per-em="1000" x-height="485" /><missing-glyph horiz-adv-x="496" /><glyph glyph-name=".null" horiz-adv-x="0" /><glyph d="M20 90H62L237 639H428L600 90H642V0H388V90H463L435 186H206L177 90H251V0H20ZM234 278H407L321 567Z" glyph-name="A" horiz-adv-x="661" unicode="A" /><glyph d="M721 534H538V363H747V267H538V93H729V185H835V0H351V90H408V185H211L173 90H246V0H20V90H60L242 542H178V639H828V449H721ZM249 278H408V542H355Z" glyph-name="AE" horiz-adv-x="868" unicode="&#198;" /><glyph d="M20 90H62L237 639H428L600 90H642V0H388V90H463L435 186H206L177 90H251V0H20ZM234 278H407L321 567ZM322 798H479L365 683H284Z" glyph-name="Aacute" horiz-adv-x="661" unicode="&#193;" /><glyph d="M20 90H62L237 639H428L600 90H642V0H388V90H463L435 186H206L177 90H251V0H20ZM234 278H407L321 567ZM400 683 332 731 264 683H183L263 798H401L481 683Z" glyph-name="Acircumflex" horiz-adv-x="661" unicode="&#194;" /><glyph d="M20 90H62L237 639H428L600 90H642V0H388V90H463L435 186H206L177 90H251V0H20ZM234 278H407L321 567ZM232 668Q204 668 184 687.5Q164 707 164 735Q164 762 184 781.5Q204 801 232 801Q260 801 280 781.5Q300 762 300 735Q300 707 280 687.5Q260 668 232 668ZM431 668Q403 668 383 687.5Q363 707 363 735Q363 762 383 781.5Q403 801 431 801Q459 801 479.5 781.5Q500 762 500 735Q500 707 479.5 687.5Q459 668 431 668Z" glyph-name="Adieresis" horiz-adv-x="661" unicode="&#196;" /><glyph d="M20 90H62L237 639H428L600 90H642V0H388V90H463L435 186H206L177 90H251V0H20ZM234 278H407L321 567ZM185 798H342L380 683H299Z" glyph-name="Agrave" horiz-adv-x="661" unicode="&#192;" /><glyph d="M20 90H62L237 639H428L600 90H642V0H388V90H463L435 186H206L177 90H251V0H20ZM234 278H407L321 567ZM331 714Q350 714 362.5 726.5Q375 739 375 760Q375 781 362.5 794.5Q350 808 331 808Q314 808 301 794.5Q288 781 288 760Q288 739 301 726.5Q314 714 331 714ZM331 661Q310 661 291.5 668.5Q273 676 259.5 689.5Q246 703 238.5 721Q231 739 231 760Q231 781 238.5 799.5Q246 818 259.5 831.5Q273 845 291.5 853Q310 861 331 861Q352 861 371 853Q390 845 403.5 831.5Q417 818 425 799.5Q433 781 433 760Q433 739 425 721Q417 703 403.5 689.5Q390 676 371 668.5Q352 661 331 661Z" glyph-name="Aring" horiz-adv-x="661" unicode="&#197;" /><glyph d="M20 90H62L237 639H428L600 90H642V0H388V90H463L435 186H206L177 90H251V0H20ZM234 278H407L321 567ZM191 681Q184 705 185.5 728Q187 751 196 769.5Q205 788 222.5 799Q240 810 265 810Q287 810 305.5 804.5Q324 799 339.5 793Q355 787 368 781.5Q381 776 392 776Q407 776 411.5 785Q416 794 418 814H472Q479 790 478 767Q477 744 468 725.5Q459 707 442 696Q425 685 401 685Q381 685 363 690Q345 695 329 701.5Q313 708 298.5 713Q284 718 271 718Q257 718 252 709.5Q247 701 245 681Z" glyph-name="Atilde" horiz-adv-x="661" unicode="&#195;" /><glyph d="M26 639H316Q419 639 476.5 598Q534 557 534 471Q534 402 497.5 365.5Q461 329 383 320V317Q468 311 513 277Q558 243 558 177Q558 136 546.5 103.5Q535 71 506.5 48Q478 25 430.5 12.5Q383 0 312 0H26V90H83V542H26ZM305 92Q343 92 367.5 97.5Q392 103 406 114Q420 125 425 142Q430 159 430 182Q430 230 401 250.5Q372 271 303 271H210V92ZM303 358Q360 358 385 381.5Q410 405 410 450Q410 539 310 539H210V358Z" glyph-name="B" horiz-adv-x="590" unicode="B" /><glyph d="M429 540Q390 550 340 550Q250 550 208 498.5Q166 447 166 351V309Q166 192 213 137.5Q260 83 350 83Q396 83 440 95V193H549V60Q537 47 517.5 33.5Q498 20 472 9.5Q446 -1 412.5 -8Q379 -15 340 -15Q270 -15 213 7.5Q156 30 115.5 73Q75 116 53 179.5Q31 243 31 324V326Q31 401 51 461Q71 521 109.5 564Q148 607 203.5 630Q259 653 330 653Q413 653 465.5 631Q518 609 541 584V449H429Z" glyph-name="C" horiz-adv-x="588" unicode="C" /><glyph d="M429 540Q390 550 340 550Q250 550 208 498.5Q166 447 166 351V309Q166 192 213 137.5Q260 83 350 83Q396 83 440 95V193H549V60Q537 47 517.5 33.5Q498 20 472 9.5Q446 -1 412.5 -8Q379 -15 340 -15H329V-38Q374 -42 394 -61Q414 -80 414 -112Q414 -150 387 -168.5Q360 -187 315 -187Q286 -187 267.5 -180.5Q249 -174 241 -166V-122Q249 -125 261 -128Q273 -131 290 -131Q330 -131 330 -107Q330 -95 317 -87Q304 -79 266 -78V-8Q158 14 94.5 99Q31 184 31 324V326Q31 401 51 461Q71 521 109.5 564Q148 607 203.5 630Q259 653 330 653Q413 653 465.5 631Q518 609 541 584V449H429Z" glyph-name="Ccedilla" horiz-adv-x="588" unicode="&#199;" /><glyph d="M26 639H331Q471 639 545.5 559.5Q620 480 620 328V326Q620 243 599 181.5Q578 120 538.5 79.5Q499 39 442 19.5Q385 0 312 0H26V90H83V542H26ZM301 95Q352 95 387.5 109.5Q423 124 444.5 151Q466 178 475.5 217.5Q485 257 485 308V355Q485 397 477.5 430Q470 463 451 486.5Q432 510 400.5 522Q369 534 321 534H212V95Z" glyph-name="D" horiz-adv-x="650" unicode="D" /><glyph d="M417 535H212V363H443V267H212V93H425V185H531V0H26V90H83V542H26V639H524V449H417Z" glyph-name="E" horiz-adv-x="564" unicode="E" /><glyph d="M284 798H441L327 683H246ZM417 535H212V363H443V267H212V93H425V185H531V0H26V90H83V542H26V639H524V449H417Z" glyph-name="Eacute" horiz-adv-x="564" unicode="&#201;" /><glyph d="M362 683 294 731 226 683H145L225 798H363L443 683ZM417 535H212V363H443V267H212V93H425V185H531V0H26V90H83V542H26V639H524V449H417Z" glyph-name="Ecircumflex" horiz-adv-x="564" unicode="&#202;" /><glyph d="M417 535H212V363H443V267H212V93H425V185H531V0H26V90H83V542H26V639H524V449H417ZM195 668Q167 668 147 687.5Q127 707 127 735Q127 762 147 781.5Q167 801 195 801Q223 801 243 781.5Q263 762 263 735Q263 707 243 687.5Q223 668 195 668ZM394 668Q366 668 346 687.5Q326 707 326 735Q326 762 346 781.5Q366 801 394 801Q422 801 442.5 781.5Q463 762 463 735Q463 707 442.5 687.5Q422 668 394 668Z" glyph-name="Edieresis" horiz-adv-x="564" unicode="&#203;" /><glyph d="M147 798H304L342 683H261ZM417 535H212V363H443V267H212V93H425V185H531V0H26V90H83V542H26V639H524V449H417Z" glyph-name="Egrave" horiz-adv-x="564" unicode="&#200;" /><glyph d="M21 364H83V542H26V639H331Q471 639 545.5 559.5Q620 480 620 328V326Q620 243 599 181.5Q578 120 538.5 79.5Q499 39 442 19.5Q385 0 312 0H26V90H83V271H21ZM301 95Q352 95 387.5 109.5Q423 124 444.5 151Q466 178 475.5 217.5Q485 257 485 308V355Q485 397 477.5 430Q470 463 451 486.5Q432 510 400.5 522Q369 534 321 534H210V364H358V271H210V95Z" glyph-name="Eth" horiz-adv-x="650" unicode="&#208;" /><glyph d="M353 -15Q246 -15 172 47Q98 109 81 230H19V294H77V346H19V410H80Q87 465 110 510.5Q133 556 169 587.5Q205 619 252.5 636Q300 653 357 653Q417 652 459 637Q501 622 522 597V461H416V547Q404 549 390.5 550Q377 551 363 551Q293 551 255 513Q217 475 209 410H401V346H208V294H401V230H211Q221 155 263.5 120Q306 85 380 85Q425 85 466 98Q507 111 533 134V48Q511 22 465 3.5Q419 -15 353 -15Z" glyph-name="Euro" horiz-adv-x="563" unicode="&#8364;" /><glyph d="M416 534H212V344H460V243H212V90H303V0H26V90H83V542H26V639H525V450H416Z" glyph-name="F" horiz-adv-x="551" unicode="F" /><glyph d="M337 339H575V69Q542 35 483 10Q424 -15 340 -15Q272 -15 215 7Q158 29 117 71.5Q76 114 53.5 177Q31 240 31 323V325Q31 400 53.5 460.5Q76 521 117 563.5Q158 606 216.5 629.5Q275 653 346 653Q427 653 476.5 634Q526 615 552 591V449H441V540Q421 545 399.5 547.5Q378 550 355 550Q266 550 215.5 497.5Q165 445 165 345V311Q165 193 213 139Q261 85 351 85Q377 85 401 88.5Q425 92 448 98V242H337Z" glyph-name="G" horiz-adv-x="620" unicode="G" /><glyph d="M404 90H478V274H212V90H287V0H26V90H83V542H26V639H287V542H212V376H478V542H404V639H665V542H608V90H665V0H404Z" glyph-name="H" horiz-adv-x="691" unicode="H" /><glyph d="M26 639H281V542H218V90H281V0H26V90H89V542H26Z" glyph-name="I" horiz-adv-x="307" unicode="I" /><glyph d="M26 639H281V542H218V90H281V0H26V90H89V542H26ZM144 798H301L187 683H106Z" glyph-name="Iacute" horiz-adv-x="307" unicode="&#205;" /><glyph d="M26 639H281V542H218V90H281V0H26V90H89V542H26ZM222 683 154 731 86 683H5L85 798H223L303 683Z" glyph-name="Icircumflex" horiz-adv-x="307" unicode="&#206;" /><glyph d="M26 639H281V542H218V90H281V0H26V90H89V542H26ZM55 668Q27 668 7 687.5Q-13 707 -13 735Q-13 762 7 781.5Q27 801 55 801Q83 801 103 781.5Q123 762 123 735Q123 707 103 687.5Q83 668 55 668ZM254 668Q226 668 206 687.5Q186 707 186 735Q186 762 206 781.5Q226 801 254 801Q282 801 302.5 781.5Q323 762 323 735Q323 707 302.5 687.5Q282 668 254 668Z" glyph-name="Idieresis" horiz-adv-x="307" unicode="&#207;" /><glyph d="M26 639H281V542H218V90H281V0H26V90H89V542H26ZM7 798H164L202 683H121Z" glyph-name="Igrave" horiz-adv-x="307" unicode="&#204;" /><glyph d="M118 639H374V542H322V177Q322 90 278 39.5Q234 -11 140 -11Q93 -11 64.5 -1Q36 9 21 22V106Q36 101 57.5 96Q79 91 111 91Q193 91 193 180V542H118Z" glyph-name="J" horiz-adv-x="400" unicode="J" /><glyph d="M346 90H411L212 316V90H282V0H26V90H83V542H26V639H282V542H212V335L425 542H346V639H601V542H554L344 339L564 90H609V0H346Z" glyph-name="K" horiz-adv-x="632" unicode="K" /><glyph d="M26 639H295V542H213V100H408V193H517V0H26V90H84V542H26Z" glyph-name="L" horiz-adv-x="543" unicode="L" /><glyph d="M26 639H295V542H213V347L407 443V363L213 266V100H408V193H517V0H26V90H84V202L22 171V252L84 283V542H26Z" glyph-name="Lslash" horiz-adv-x="528" unicode="&#321;" /><glyph d="M559 90H629V532L471 0H347L189 528V90H259V0H26V90H83V542H26V639H275L420 146L568 639H815V542H757V90H815V0H559Z" glyph-name="M" horiz-adv-x="840" unicode="M" /><glyph d="M435 639H676V542H619V0H446L192 524V90H274V0H26V90H83V542H26V639H274L510 142V542H435Z" glyph-name="N" horiz-adv-x="699" unicode="N" /><glyph d="M224 681Q217 705 218.5 728Q220 751 229 769.5Q238 788 255.5 799Q273 810 298 810Q320 810 338.5 804.5Q357 799 372.5 793Q388 787 401 781.5Q414 776 425 776Q440 776 444.5 785Q449 794 451 814H505Q512 790 511 767Q510 744 501 725.5Q492 707 475 696Q458 685 434 685Q414 685 396 690Q378 695 362 701.5Q346 708 331.5 713Q317 718 304 718Q290 718 285 709.5Q280 701 278 681ZM435 639H676V542H619V0H446L192 524V90H274V0H26V90H83V542H26V639H274L510 142V542H435Z" glyph-name="Ntilde" horiz-adv-x="699" unicode="&#209;" /><glyph d="M337 83Q421 83 465 135Q509 187 509 303V352Q509 442 467.5 496Q426 550 337 550Q248 550 206.5 496Q165 442 165 352V303Q165 187 209.5 135Q254 83 337 83ZM337 -15Q273 -15 217 6Q161 27 120 69Q79 111 55 174Q31 237 31 321V323Q31 398 52 459Q73 520 112 563Q151 606 208 629.5Q265 653 337 653Q409 653 466 629.5Q523 606 562.5 563Q602 520 623 459Q644 398 644 323V321Q644 237 620.5 174Q597 111 555.5 69Q514 27 458 6Q402 -15 337 -15Z" glyph-name="O" horiz-adv-x="674" unicode="O" /><glyph d="M331 0Q185 0 108 79.5Q31 159 31 326V328Q31 480 103.5 559.5Q176 639 316 639H817V449H710V534H531V363H736V267H531V93H718V185H824V0ZM160 308Q160 257 169 217.5Q178 178 199 151Q220 124 255 109.5Q290 95 342 95H402V534H326Q278 534 246 522Q214 510 195 486.5Q176 463 168 430Q160 397 160 355Z" glyph-name="OE" horiz-adv-x="857" unicode="&#338;" /><glyph d="M327 798H484L370 683H289ZM337 83Q421 83 465 135Q509 187 509 303V352Q509 442 467.5 496Q426 550 337 550Q248 550 206.5 496Q165 442 165 352V303Q165 187 209.5 135Q254 83 337 83ZM337 -15Q273 -15 217 6Q161 27 120 69Q79 111 55 174Q31 237 31 321V323Q31 398 52 459Q73 520 112 563Q151 606 208 629.5Q265 653 337 653Q409 653 466 629.5Q523 606 562.5 563Q602 520 623 459Q644 398 644 323V321Q644 237 620.5 174Q597 111 555.5 69Q514 27 458 6Q402 -15 337 -15Z" glyph-name="Oacute" horiz-adv-x="674" unicode="&#211;" /><glyph d="M405 683 337 731 269 683H188L268 798H406L486 683ZM337 83Q421 83 465 135Q509 187 509 303V352Q509 442 467.5 496Q426 550 337 550Q248 550 206.5 496Q165 442 165 352V303Q165 187 209.5 135Q254 83 337 83ZM337 -15Q273 -15 217 6Q161 27 120 69Q79 111 55 174Q31 237 31 321V323Q31 398 52 459Q73 520 112 563Q151 606 208 629.5Q265 653 337 653Q409 653 466 629.5Q523 606 562.5 563Q602 520 623 459Q644 398 644 323V321Q644 237 620.5 174Q597 111 555.5 69Q514 27 458 6Q402 -15 337 -15Z" glyph-name="Ocircumflex" horiz-adv-x="674" unicode="&#212;" /><glyph d="M238 668Q210 668 190 687.5Q170 707 170 735Q170 762 190 781.5Q210 801 238 801Q266 801 286 781.5Q306 762 306 735Q306 707 286 687.5Q266 668 238 668ZM437 668Q409 668 389 687.5Q369 707 369 735Q369 762 389 781.5Q409 801 437 801Q465 801 485.5 781.5Q506 762 506 735Q506 707 485.5 687.5Q465 668 437 668ZM337 83Q421 83 465 135Q509 187 509 303V352Q509 442 467.5 496Q426 550 337 550Q248 550 206.5 496Q165 442 165 352V303Q165 187 209.5 135Q254 83 337 83ZM337 -15Q273 -15 217 6Q161 27 120 69Q79 111 55 174Q31 237 31 321V323Q31 398 52 459Q73 520 112 563Q151 606 208 629.5Q265 653 337 653Q409 653 466 629.5Q523 606 562.5 563Q602 520 623 459Q644 398 644 323V321Q644 237 620.5 174Q597 111 555.5 69Q514 27 458 6Q402 -15 337 -15Z" glyph-name="Odieresis" horiz-adv-x="674" unicode="&#214;" /><glyph d="M190 798H347L385 683H304ZM337 83Q421 83 465 135Q509 187 509 303V352Q509 442 467.5 496Q426 550 337 550Q248 550 206.5 496Q165 442 165 352V303Q165 187 209.5 135Q254 83 337 83ZM337 -15Q273 -15 217 6Q161 27 120 69Q79 111 55 174Q31 237 31 321V323Q31 398 52 459Q73 520 112 563Q151 606 208 629.5Q265 653 337 653Q409 653 466 629.5Q523 606 562.5 563Q602 520 623 459Q644 398 644 323V321Q644 237 620.5 174Q597 111 555.5 69Q514 27 458 6Q402 -15 337 -15Z" glyph-name="Ograve" horiz-adv-x="674" unicode="&#210;" /><glyph d="M338 -15Q287 -15 241 -1.5Q195 12 157 38L112 -19H25L106 84Q71 126 51 184.5Q31 243 31 321V323Q31 398 52 459Q73 520 112.5 563Q152 606 209 629.5Q266 653 338 653Q391 653 435.5 640Q480 627 515 603L557 656H643L566 558Q604 515 624 455.5Q644 396 644 323V321Q644 237 620.5 174Q597 111 556 69Q515 27 459 6Q403 -15 338 -15ZM338 83Q421 83 466.5 135Q512 187 512 303V352Q512 421 493 466L219 117Q239 99 268.5 91Q298 83 338 83ZM163 303Q163 225 179 177L450 521Q410 550 338 550Q249 550 206 496Q163 442 163 352Z" glyph-name="Oslash" horiz-adv-x="674" unicode="&#216;" /><glyph d="M197 681Q190 705 191.5 728Q193 751 202 769.5Q211 788 228.5 799Q246 810 271 810Q293 810 311.5 804.5Q330 799 345.5 793Q361 787 374 781.5Q387 776 398 776Q413 776 417.5 785Q422 794 424 814H478Q485 790 484 767Q483 744 474 725.5Q465 707 448 696Q431 685 407 685Q387 685 369 690Q351 695 335 701.5Q319 708 304.5 713Q290 718 277 718Q263 718 258 709.5Q253 701 251 681ZM337 83Q421 83 465 135Q509 187 509 303V352Q509 442 467.5 496Q426 550 337 550Q248 550 206.5 496Q165 442 165 352V303Q165 187 209.5 135Q254 83 337 83ZM337 -15Q273 -15 217 6Q161 27 120 69Q79 111 55 174Q31 237 31 321V323Q31 398 52 459Q73 520 112 563Q151 606 208 629.5Q265 653 337 653Q409 653 466 629.5Q523 606 562.5 563Q602 520 623 459Q644 398 644 323V321Q644 237 620.5 174Q597 111 555.5 69Q514 27 458 6Q402 -15 337 -15Z" glyph-name="Otilde" horiz-adv-x="674" unicode="&#213;" /><glyph d="M26 639H323Q441 639 497 584.5Q553 530 553 430Q553 328 494 274.5Q435 221 314 221H212V90H303V0H26V90H83V542H26ZM300 316Q371 316 398.5 345.5Q426 375 426 428Q426 481 401 509Q376 537 312 537H212V316Z" glyph-name="P" horiz-adv-x="577" unicode="P" /><glyph d="M337 -15Q273 -15 217 6Q161 27 120 69Q79 111 55 174Q31 237 31 321V323Q31 398 52 459Q73 520 112 563Q151 606 208 629.5Q265 653 337 653Q409 653 466 629.5Q523 606 562.5 563Q602 520 623 459Q644 398 644 323V321Q644 227 615.5 160.5Q587 94 537 52L569 9H648V-81H513V-79L504 -81L444 1Q419 -7 392.5 -11Q366 -15 337 -15ZM337 82Q361 82 382 85L295 204H424L472 139Q511 191 511 303V352Q511 442 468.5 496Q426 550 337 550Q248 550 206 496Q164 442 164 352V303Q164 187 209 134.5Q254 82 337 82Z" glyph-name="Q" horiz-adv-x="676" unicode="Q" /><glyph d="M212 289V90H281V0H26V90H83V542H26V639H321Q433 639 491.5 590.5Q550 542 550 451Q550 371 504 326Q458 281 371 273L511 90H579V0H428ZM305 338Q370 338 395 363Q420 388 420 440Q420 491 395 514Q370 537 310 537H212V338Z" glyph-name="R" horiz-adv-x="599" unicode="R" /><glyph d="M353 544Q334 549 314.5 551.5Q295 554 276 554Q252 554 231 550Q210 546 194.5 536.5Q179 527 170 510Q161 493 161 468Q161 446 170 430Q179 414 203 403Q225 392 254.5 386Q284 380 315 374Q346 368 375 359.5Q404 351 427 336Q465 312 481.5 275.5Q498 239 498 188Q498 135 479.5 97Q461 59 429 34Q397 9 354 -3Q311 -15 261 -15Q178 -15 121.5 5Q65 25 36 51V189H146V94Q170 87 196 83Q222 79 250 79Q305 79 338 100.5Q371 122 371 174Q371 197 362.5 211.5Q354 226 332 237Q316 246 290 252.5Q264 259 234.5 265.5Q205 272 175 280Q145 288 123 300Q80 324 61 364Q42 404 42 458Q42 509 61 546Q80 583 111.5 607Q143 631 183 642Q223 653 266 653Q336 653 386 636.5Q436 620 462 596V461H353Z" glyph-name="S" horiz-adv-x="531" unicode="S" /><glyph d="M197 798 265 750 333 798H414L334 683H196L116 798ZM353 544Q334 549 314.5 551.5Q295 554 276 554Q252 554 231 550Q210 546 194.5 536.5Q179 527 170 510Q161 493 161 468Q161 446 170 430Q179 414 203 403Q225 392 254.5 386Q284 380 315 374Q346 368 375 359.5Q404 351 427 336Q465 312 481.5 275.5Q498 239 498 188Q498 135 479.5 97Q461 59 429 34Q397 9 354 -3Q311 -15 261 -15Q178 -15 121.5 5Q65 25 36 51V189H146V94Q170 87 196 83Q222 79 250 79Q305 79 338 100.5Q371 122 371 174Q371 197 362.5 211.5Q354 226 332 237Q316 246 290 252.5Q264 259 234.5 265.5Q205 272 175 280Q145 288 123 300Q80 324 61 364Q42 404 42 458Q42 509 61 546Q80 583 111.5 607Q143 631 183 642Q223 653 266 653Q336 653 386 636.5Q436 620 462 596V461H353Z" glyph-name="Scaron" horiz-adv-x="531" unicode="&#352;" /><glyph d="M478 538H371V90H444V0H169V90H242V538H135V426H28V639H585V426H478Z" glyph-name="T" horiz-adv-x="613" unicode="T" /><glyph d="M26 639H301V546H212V489H363Q454 489 503.5 444.5Q553 400 553 320Q553 239 500 194.5Q447 150 353 150H212V86H301V0H26V90H83V542H26ZM329 239Q380 239 403 258.5Q426 278 426 316Q426 389 340 389H212V239Z" glyph-name="Thorn" horiz-adv-x="578" unicode="&#222;" /><glyph d="M409 639H664V542H613V262Q613 186 594.5 133Q576 80 541.5 47Q507 14 457 -0.5Q407 -15 344 -15Q282 -15 232 0Q182 15 147.5 48Q113 81 94.5 134Q76 187 76 263V542H24V639H279V542H205V240Q205 159 237 122.5Q269 86 344 86Q419 86 451 122Q483 158 483 239V542H409Z" glyph-name="U" horiz-adv-x="688" unicode="U" /><glyph d="M334 798H491L377 683H296ZM409 639H664V542H613V262Q613 186 594.5 133Q576 80 541.5 47Q507 14 457 -0.5Q407 -15 344 -15Q282 -15 232 0Q182 15 147.5 48Q113 81 94.5 134Q76 187 76 263V542H24V639H279V542H205V240Q205 159 237 122.5Q269 86 344 86Q419 86 451 122Q483 158 483 239V542H409Z" glyph-name="Uacute" horiz-adv-x="688" unicode="&#218;" /><glyph d="M412 683 344 731 276 683H195L275 798H413L493 683ZM409 639H664V542H613V262Q613 186 594.5 133Q576 80 541.5 47Q507 14 457 -0.5Q407 -15 344 -15Q282 -15 232 0Q182 15 147.5 48Q113 81 94.5 134Q76 187 76 263V542H24V639H279V542H205V240Q205 159 237 122.5Q269 86 344 86Q419 86 451 122Q483 158 483 239V542H409Z" glyph-name="Ucircumflex" horiz-adv-x="688" unicode="&#219;" /><glyph d="M409 639H664V542H613V262Q613 186 594.5 133Q576 80 541.5 47Q507 14 457 -0.5Q407 -15 344 -15Q282 -15 232 0Q182 15 147.5 48Q113 81 94.5 134Q76 187 76 263V542H24V639H279V542H205V240Q205 159 237 122.5Q269 86 344 86Q419 86 451 122Q483 158 483 239V542H409ZM245 668Q217 668 197 687.5Q177 707 177 735Q177 762 197 781.5Q217 801 245 801Q273 801 293 781.5Q313 762 313 735Q313 707 293 687.5Q273 668 245 668ZM444 668Q416 668 396 687.5Q376 707 376 735Q376 762 396 781.5Q416 801 444 801Q472 801 492.5 781.5Q513 762 513 735Q513 707 492.5 687.5Q472 668 444 668Z" glyph-name="Udieresis" horiz-adv-x="688" unicode="&#220;" /><glyph d="M197 798H354L392 683H311ZM409 639H664V542H613V262Q613 186 594.5 133Q576 80 541.5 47Q507 14 457 -0.5Q407 -15 344 -15Q282 -15 232 0Q182 15 147.5 48Q113 81 94.5 134Q76 187 76 263V542H24V639H279V542H205V240Q205 159 237 122.5Q269 86 344 86Q419 86 451 122Q483 158 483 239V542H409Z" glyph-name="Ugrave" horiz-adv-x="688" unicode="&#217;" /><glyph d="M418 639H652V542H607L430 0H238L63 542H20V639H272V542H198L345 67L492 542H418Z" glyph-name="V" horiz-adv-x="672" unicode="V" /><glyph d="M458 483 347 0H178L59 542H20V639H270V542H193L276 112L400 639H540L665 112L749 542H671V639H897V542H858L740 0H573Z" glyph-name="W" horiz-adv-x="916" unicode="W" /><glyph d="M367 90H429L312 269L192 90H260V0H23V90H72L232 328L85 542H38V639H295V542H234L339 387L443 542H380V639H610V542H562L418 332L578 90H627V0H367Z" glyph-name="X" horiz-adv-x="650" unicode="X" /><glyph d="M20 639H269V542H202L314 334L426 542H359V639H581V542H537L367 235V90H440V0H165V90H238V233L63 542H20Z" glyph-name="Y" horiz-adv-x="601" unicode="Y" /><glyph d="M20 639H269V542H202L314 334L426 542H359V639H581V542H537L367 235V90H440V0H165V90H238V233L63 542H20ZM304 798H461L347 683H266Z" glyph-name="Yacute" horiz-adv-x="601" unicode="&#221;" /><glyph d="M20 639H269V542H202L314 334L426 542H359V639H581V542H537L367 235V90H440V0H165V90H238V233L63 542H20ZM215 668Q187 668 167 687.5Q147 707 147 735Q147 762 167 781.5Q187 801 215 801Q243 801 263 781.5Q283 762 283 735Q283 707 263 687.5Q243 668 215 668ZM414 668Q386 668 366 687.5Q346 707 346 735Q346 762 366 781.5Q386 801 414 801Q442 801 462.5 781.5Q483 762 483 735Q483 707 462.5 687.5Q442 668 414 668Z" glyph-name="Ydieresis" horiz-adv-x="601" unicode="&#376;" /><glyph d="M52 639H527V511L156 92H417V185H525V0H30V124L393 538H161V449H52Z" glyph-name="Z" horiz-adv-x="558" unicode="Z" /><glyph d="M220 798 288 750 356 798H437L357 683H219L139 798ZM52 639H527V511L156 92H417V185H525V0H30V124L393 538H161V449H52Z" glyph-name="Zcaron" horiz-adv-x="558" unicode="&#381;" /><glyph d="M55 432Q64 441 79 452.5Q94 464 116.5 474Q139 484 169.5 490.5Q200 497 239 497Q292 497 329.5 483.5Q367 470 391 445Q415 420 426 383.5Q437 347 437 302V122Q437 102 444.5 92Q452 82 474 82Q479 82 483 82Q487 82 492 83V9Q485 5 474 1Q465 -2 452.5 -4.5Q440 -7 423 -7Q374 -7 346 16Q318 39 313 88Q298 38 260 12.5Q222 -13 165 -13Q102 -13 63 20.5Q24 54 24 114V115Q24 154 40 179Q56 204 82 220.5Q108 237 142.5 247Q177 257 215 266Q268 279 289.5 292.5Q311 306 311 334V336Q311 366 290 388Q269 410 217 410Q201 410 187 408Q173 406 160 403V326H55ZM219 62Q255 62 283 92Q311 122 311 179V250Q297 237 279.5 228Q262 219 240 209Q217 200 200 192.5Q183 185 172.5 176.5Q162 168 157 157Q152 146 152 130V125Q152 95 169.5 78.5Q187 62 219 62Z" glyph-name="a" horiz-adv-x="510" unicode="a" /><glyph d="M55 432Q64 441 79 452.5Q94 464 116.5 474Q139 484 169.5 490.5Q200 497 239 497Q292 497 329.5 483.5Q367 470 391 445Q415 420 426 383.5Q437 347 437 302V122Q437 102 444.5 92Q452 82 474 82Q479 82 483 82Q487 82 492 83V9Q485 5 474 1Q465 -2 452.5 -4.5Q440 -7 423 -7Q374 -7 346 16Q318 39 313 88Q298 38 260 12.5Q222 -13 165 -13Q102 -13 63 20.5Q24 54 24 114V115Q24 154 40 179Q56 204 82 220.5Q108 237 142.5 247Q177 257 215 266Q268 279 289.5 292.5Q311 306 311 334V336Q311 366 290 388Q269 410 217 410Q201 410 187 408Q173 406 160 403V326H55ZM219 62Q255 62 283 92Q311 122 311 179V250Q297 237 279.5 228Q262 219 240 209Q217 200 200 192.5Q183 185 172.5 176.5Q162 168 157 157Q152 146 152 130V125Q152 95 169.5 78.5Q187 62 219 62ZM248 681H401L274 539H197Z" glyph-name="aacute" horiz-adv-x="510" unicode="&#225;" /><glyph d="M55 432Q64 441 79 452.5Q94 464 116.5 474Q139 484 169.5 490.5Q200 497 239 497Q292 497 329.5 483.5Q367 470 391 445Q415 420 426 383.5Q437 347 437 302V122Q437 102 444.5 92Q452 82 474 82Q479 82 483 82Q487 82 492 83V9Q485 5 474 1Q465 -2 452.5 -4.5Q440 -7 423 -7Q374 -7 346 16Q318 39 313 88Q298 38 260 12.5Q222 -13 165 -13Q102 -13 63 20.5Q24 54 24 114V115Q24 154 40 179Q56 204 82 220.5Q108 237 142.5 247Q177 257 215 266Q268 279 289.5 292.5Q311 306 311 334V336Q311 366 290 388Q269 410 217 410Q201 410 187 408Q173 406 160 403V326H55ZM219 62Q255 62 283 92Q311 122 311 179V250Q297 237 279.5 228Q262 219 240 209Q217 200 200 192.5Q183 185 172.5 176.5Q162 168 157 157Q152 146 152 130V125Q152 95 169.5 78.5Q187 62 219 62ZM182 677H312L399 539H316L247 604L178 539H95Z" glyph-name="acircumflex" horiz-adv-x="510" unicode="&#226;" /><glyph d="M201 681H354L227 539H150Z" glyph-name="acute" horiz-adv-x="400" unicode="&#180;" /><glyph d="M190 798H347L233 683H152Z" glyph-name="acute.uc" horiz-adv-x="400" /><glyph d="M55 432Q64 441 79 452.5Q94 464 116.5 474Q139 484 169.5 490.5Q200 497 239 497Q292 497 329.5 483.5Q367 470 391 445Q415 420 426 383.5Q437 347 437 302V122Q437 102 444.5 92Q452 82 474 82Q479 82 483 82Q487 82 492 83V9Q485 5 474 1Q465 -2 452.5 -4.5Q440 -7 423 -7Q374 -7 346 16Q318 39 313 88Q298 38 260 12.5Q222 -13 165 -13Q102 -13 63 20.5Q24 54 24 114V115Q24 154 40 179Q56 204 82 220.5Q108 237 142.5 247Q177 257 215 266Q268 279 289.5 292.5Q311 306 311 334V336Q311 366 290 388Q269 410 217 410Q201 410 187 408Q173 406 160 403V326H55ZM219 62Q255 62 283 92Q311 122 311 179V250Q297 237 279.5 228Q262 219 240 209Q217 200 200 192.5Q183 185 172.5 176.5Q162 168 157 157Q152 146 152 130V125Q152 95 169.5 78.5Q187 62 219 62ZM152 538Q123 538 103 557.5Q83 577 83 605Q83 632 103 651.5Q123 671 152 671Q179 671 199.5 651.5Q220 632 220 605Q220 577 199.5 557.5Q179 538 152 538ZM341 538Q313 538 293 557.5Q273 577 273 605Q273 632 293 651.5Q313 671 341 671Q369 671 389 651.5Q409 632 409 605Q409 577 389 557.5Q369 538 341 538Z" glyph-name="adieresis" horiz-adv-x="510" unicode="&#228;" /><glyph d="M174 -13Q105 -13 64.5 21Q24 55 24 116V117Q24 155 39.5 180Q55 205 81 221Q107 237 141.5 247Q176 257 214 266Q267 279 288 292.5Q309 306 309 334V336Q309 366 288 388Q267 410 215 410Q200 410 186 408Q172 406 159 403V326H53V432Q62 441 77 452.5Q92 464 114.5 474Q137 484 167 490.5Q197 497 236 497Q297 497 333.5 477.5Q370 458 388 423Q415 458 455.5 477.5Q496 497 548 497Q601 497 640 481Q679 465 705 437.5Q731 410 743.5 372.5Q756 335 756 293Q756 270 752.5 251Q749 232 744 216H438Q440 178 450.5 153Q461 128 480.5 113Q500 98 527.5 91.5Q555 85 591 85Q639 85 677 95.5Q715 106 737 118V48Q721 26 676 7.5Q631 -11 562 -11Q480 -11 423.5 19.5Q367 50 338 110Q322 40 278.5 13.5Q235 -13 174 -13ZM547 414Q499 414 469.5 380.5Q440 347 438 280H642V290Q642 356 616.5 385Q591 414 547 414ZM219 62Q256 62 283.5 92Q311 122 311 179V250Q297 237 279.5 228Q262 219 240 209Q217 200 200 192.5Q183 185 172.5 176.5Q162 168 157 157Q152 146 152 130V125Q152 95 169.5 78.5Q187 62 219 62Z" glyph-name="ae" horiz-adv-x="781" unicode="&#230;" /><glyph d="M55 432Q64 441 79 452.5Q94 464 116.5 474Q139 484 169.5 490.5Q200 497 239 497Q292 497 329.5 483.5Q367 470 391 445Q415 420 426 383.5Q437 347 437 302V122Q437 102 444.5 92Q452 82 474 82Q479 82 483 82Q487 82 492 83V9Q485 5 474 1Q465 -2 452.5 -4.5Q440 -7 423 -7Q374 -7 346 16Q318 39 313 88Q298 38 260 12.5Q222 -13 165 -13Q102 -13 63 20.5Q24 54 24 114V115Q24 154 40 179Q56 204 82 220.5Q108 237 142.5 247Q177 257 215 266Q268 279 289.5 292.5Q311 306 311 334V336Q311 366 290 388Q269 410 217 410Q201 410 187 408Q173 406 160 403V326H55ZM219 62Q255 62 283 92Q311 122 311 179V250Q297 237 279.5 228Q262 219 240 209Q217 200 200 192.5Q183 185 172.5 176.5Q162 168 157 157Q152 146 152 130V125Q152 95 169.5 78.5Q187 62 219 62ZM95 681H249L298 539H219Z" glyph-name="agrave" horiz-adv-x="510" unicode="&#224;" /><glyph d="M235 -11Q184 -11 144.5 2Q105 15 78 38Q51 61 37 93.5Q23 126 23 164Q23 235 64 277Q105 319 174 349Q148 378 132 411Q116 444 116 488Q116 522 128.5 552Q141 582 164 604.5Q187 627 220 639.5Q253 652 295 652Q378 652 423 610Q468 568 468 499Q468 441 432 403.5Q396 366 333 337L430 222Q444 251 455 285.5Q466 320 477 362H584Q565 301 542.5 247Q520 193 492 148L542 90H593V0H459V1L414 55Q377 23 333 6Q289 -11 235 -11ZM253 76Q314 76 361 119L221 287Q183 264 167.5 237.5Q152 211 152 172Q152 130 177.5 103Q203 76 253 76ZM237 491Q237 458 251 432Q265 406 293 379Q328 402 343 431Q358 460 358 494Q358 524 342.5 544Q327 564 298 564Q272 564 254.5 545Q237 526 237 491Z" glyph-name="ampersand" horiz-adv-x="619" unicode="&amp;" /><glyph d="M45 125Q45 188 70.5 228.5Q96 269 152 269Q179 269 207.5 264Q236 259 263 252.5Q290 246 313 241Q336 236 352 236Q369 236 376.5 247Q384 258 386 281H465Q465 218 442 177.5Q419 137 364 137Q341 137 313.5 142Q286 147 258 153.5Q230 160 204 165Q178 170 159 170Q127 170 124 125ZM45 320Q45 383 70.5 423.5Q96 464 152 464Q179 464 207.5 459Q236 454 263 447.5Q290 441 313 436Q336 431 352 431Q369 431 376.5 442Q384 453 386 476H465Q465 413 442 372.5Q419 332 364 332Q341 332 313.5 337Q286 342 258 348.5Q230 355 204 360Q178 365 159 365Q127 365 124 320Z" glyph-name="approxequal" horiz-adv-x="509" unicode="&#8776;" /><glyph d="M55 432Q64 441 79 452.5Q94 464 116.5 474Q139 484 169.5 490.5Q200 497 239 497Q292 497 329.5 483.5Q367 470 391 445Q415 420 426 383.5Q437 347 437 302V122Q437 102 444.5 92Q452 82 474 82Q479 82 483 82Q487 82 492 83V9Q485 5 474 1Q465 -2 452.5 -4.5Q440 -7 423 -7Q374 -7 346 16Q318 39 313 88Q298 38 260 12.5Q222 -13 165 -13Q102 -13 63 20.5Q24 54 24 114V115Q24 154 40 179Q56 204 82 220.5Q108 237 142.5 247Q177 257 215 266Q268 279 289.5 292.5Q311 306 311 334V336Q311 366 290 388Q269 410 217 410Q201 410 187 408Q173 406 160 403V326H55ZM219 62Q255 62 283 92Q311 122 311 179V250Q297 237 279.5 228Q262 219 240 209Q217 200 200 192.5Q183 185 172.5 176.5Q162 168 157 157Q152 146 152 130V125Q152 95 169.5 78.5Q187 62 219 62ZM246 589Q265 589 278 601.5Q291 614 291 636Q291 657 278 670.5Q265 684 246 684Q229 684 216 670.5Q203 657 203 636Q203 614 216 601.5Q229 589 246 589ZM246 536Q225 536 206.5 544Q188 552 174.5 565.5Q161 579 153.5 597Q146 615 146 636Q146 657 153.5 675Q161 693 174.5 707Q188 721 206.5 729Q225 737 246 737Q267 737 286 729Q305 721 318.5 707Q332 693 340 675Q348 657 348 636Q348 615 340 597Q332 579 318.5 565.5Q305 552 286 544Q267 536 246 536Z" glyph-name="aring" horiz-adv-x="510" unicode="&#229;" /><glyph d="M298 423 213 557 128 423H35L140 639H286L391 423Z" glyph-name="asciicircum" horiz-adv-x="426" unicode="^" /><glyph d="M49 208Q41 235 42 261Q43 287 53 306.5Q63 326 81 338Q99 350 126 350Q147 350 163 344Q179 338 192 331Q205 324 215.5 318Q226 312 236 312Q251 312 256 321.5Q261 331 263 353H319Q327 326 326 300.5Q325 275 316 255.5Q307 236 289.5 224Q272 212 247 212Q228 212 212.5 218Q197 224 183.5 230.5Q170 237 157.5 243Q145 249 133 249Q119 249 113.5 239.5Q108 230 106 208Z" glyph-name="asciitilde" horiz-adv-x="371" unicode="~" /><glyph d="M29 459 126 494 29 527 73 601 148 539 128 639H222L203 539L278 601L321 527L223 494L321 459L278 384L202 449L222 347H128L148 449L73 384Z" glyph-name="asterisk" horiz-adv-x="350" unicode="*" /><glyph d="M399 116Q416 116 433 123.5Q450 131 464 145.5Q478 160 488.5 181.5Q499 203 503 231L505 244Q510 278 505 301.5Q500 325 489 340Q478 355 461.5 361.5Q445 368 427 368Q409 368 391.5 359Q374 350 360.5 330.5Q347 311 338.5 279Q330 247 330 201Q330 163 346.5 139.5Q363 116 399 116ZM456 652Q536 652 604.5 628.5Q673 605 723.5 561.5Q774 518 802.5 455Q831 392 831 313Q831 182 779 108.5Q727 35 635 35Q575 35 543 61.5Q511 88 505 128Q488 82 454.5 57Q421 32 372 32Q334 32 305 45Q276 58 256.5 81.5Q237 105 227 137.5Q217 170 217 209Q217 260 230.5 305Q244 350 269.5 384Q295 418 331 438Q367 458 412 458Q464 458 492 428Q520 398 527 354Q530 374 535.5 390.5Q541 407 547 420Q554 435 562 447H652L610 187Q602 145 609.5 124.5Q617 104 648 104Q693 104 722 156.5Q751 209 751 313Q751 385 728 435Q705 485 664.5 516.5Q624 548 569.5 562Q515 576 452 576Q377 576 315 550.5Q253 525 208.5 478Q164 431 139 365Q114 299 114 219Q114 70 197 -9Q280 -88 435 -88Q514 -88 583.5 -66Q653 -44 695 -12V-81Q678 -95 652 -109Q626 -123 592.5 -134Q559 -145 518 -152Q477 -159 432 -159Q344 -159 270.5 -133.5Q197 -108 143.5 -60Q90 -12 60.5 58Q31 128 31 217Q31 319 66 399.5Q101 480 159.5 536.5Q218 593 295 622.5Q372 652 456 652Z" glyph-name="at" horiz-adv-x="858" unicode="@" /><glyph d="M55 432Q64 441 79 452.5Q94 464 116.5 474Q139 484 169.5 490.5Q200 497 239 497Q292 497 329.5 483.5Q367 470 391 445Q415 420 426 383.5Q437 347 437 302V122Q437 102 444.5 92Q452 82 474 82Q479 82 483 82Q487 82 492 83V9Q485 5 474 1Q465 -2 452.5 -4.5Q440 -7 423 -7Q374 -7 346 16Q318 39 313 88Q298 38 260 12.5Q222 -13 165 -13Q102 -13 63 20.5Q24 54 24 114V115Q24 154 40 179Q56 204 82 220.5Q108 237 142.5 247Q177 257 215 266Q268 279 289.5 292.5Q311 306 311 334V336Q311 366 290 388Q269 410 217 410Q201 410 187 408Q173 406 160 403V326H55ZM219 62Q255 62 283 92Q311 122 311 179V250Q297 237 279.5 228Q262 219 240 209Q217 200 200 192.5Q183 185 172.5 176.5Q162 168 157 157Q152 146 152 130V125Q152 95 169.5 78.5Q187 62 219 62ZM112 551Q105 575 105.5 598Q106 621 115 639.5Q124 658 141 669.5Q158 681 185 681Q206 681 223 675.5Q240 670 254 664Q268 658 279.5 652.5Q291 647 302 647Q316 647 320.5 656Q325 665 327 685H381Q387 661 387 638Q387 615 378.5 596.5Q370 578 353.5 566.5Q337 555 312 555Q293 555 276.5 560.5Q260 566 245 572Q230 578 217 583.5Q204 589 192 589Q178 589 172.5 580Q167 571 165 551Z" glyph-name="atilde" horiz-adv-x="510" unicode="&#227;" /><glyph d="M21 673H200V372Q207 396 221 419Q235 442 256.5 459Q278 476 306 486.5Q334 497 369 497Q416 497 452.5 479Q489 461 514.5 428.5Q540 396 553 350.5Q566 305 566 251V250Q566 186 550.5 137.5Q535 89 508 56Q481 23 443.5 6Q406 -11 362 -11Q293 -11 251.5 23.5Q210 58 193 119Q191 87 187.5 64.5Q184 42 180 28Q176 11 170 0H21V90H74V576H21ZM325 76Q376 76 406.5 116Q437 156 437 237V270Q437 333 408 368.5Q379 404 325 404Q273 404 236.5 367Q200 330 200 262V243Q200 199 210 167.5Q220 136 237 116Q254 96 276.5 86Q299 76 325 76Z" glyph-name="b" horiz-adv-x="593" unicode="b" /><glyph d="M120 673 348 -98H244L16 673Z" glyph-name="backslash" horiz-adv-x="347" unicode="\" /><glyph d="M172 -98H72V673H172Z" glyph-name="bar" horiz-adv-x="240" unicode="|" /><glyph d="M95 288Q132 283 157.5 271.5Q183 260 198 244.5Q213 229 219.5 210Q226 191 226 172Q226 152 222.5 133.5Q219 115 215 97.5Q211 80 207.5 63Q204 46 204 29Q204 6 208 -10.5Q212 -27 221 -40.5Q230 -54 243.5 -66.5Q257 -79 275 -93V-98H178Q161 -93 144.5 -83Q128 -73 114.5 -58Q101 -43 92.5 -23Q84 -3 84 22Q84 44 89.5 64.5Q95 85 102 104.5Q109 124 114.5 141.5Q120 159 120 176Q120 199 98.5 216.5Q77 234 26 238V341Q77 345 98.5 362.5Q120 380 120 403Q120 419 114.5 436.5Q109 454 102 472.5Q95 491 89.5 511Q84 531 84 553Q84 578 92.5 598Q101 618 114.5 633Q128 648 144.5 658Q161 668 178 673H275V668Q257 654 243.5 641.5Q230 629 221 615.5Q212 602 208 585Q204 568 204 546Q204 529 207.5 512.5Q211 496 215 479Q219 462 222.5 444Q226 426 226 406Q226 386 219.5 368Q213 350 198 334.5Q183 319 157.5 307.5Q132 296 95 291Z" glyph-name="braceleft" horiz-adv-x="317" unicode="{" /><glyph d="M222 291Q184 296 159 307.5Q134 319 119 334.5Q104 350 97.5 368Q91 386 91 406Q91 426 94.5 444Q98 462 102 479Q106 496 109.5 512.5Q113 529 113 546Q113 568 109 585Q105 602 96 615.5Q87 629 73.5 641.5Q60 654 42 668V673H139Q156 668 172.5 658Q189 648 202.5 633Q216 618 224.5 598Q233 578 233 553Q233 531 227.5 511Q222 491 215 472.5Q208 454 202.5 436.5Q197 419 197 403Q197 380 218.5 362.5Q240 345 291 341V238Q240 234 218.5 216.5Q197 199 197 176Q197 159 202.5 141.5Q208 124 215 104.5Q222 85 227.5 64.5Q233 44 233 22Q233 -3 224.5 -23Q216 -43 202.5 -58Q189 -73 172.5 -83Q156 -93 139 -98H42V-93Q60 -79 73.5 -66.5Q87 -54 96 -40.5Q105 -27 109 -10.5Q113 6 113 29Q113 46 109.5 63Q106 80 102 97.5Q98 115 94.5 133.5Q91 152 91 172Q91 191 97.5 210Q104 229 119 244.5Q134 260 159 271.5Q184 283 222 288Z" glyph-name="braceright" horiz-adv-x="317" unicode="}" /><glyph d="M66 673H332V582H179V-11H332V-98H66Z" glyph-name="bracketleft" horiz-adv-x="361" unicode="[" /><glyph d="M29 -98V-11H182V582H29V673H295V-98Z" glyph-name="bracketright" horiz-adv-x="361" unicode="]" /><glyph d="M327 677Q329 652 322.5 627Q316 602 300.5 582Q285 562 260 549.5Q235 537 199 537Q164 537 139 549.5Q114 562 98.5 581.5Q83 601 77 626Q71 651 73 677H145Q144 653 157 635.5Q170 618 199 618Q230 618 242.5 635.5Q255 653 254 677Z" glyph-name="breve" horiz-adv-x="400" unicode="&#728;" /><glyph d="M323 799Q324 776 318 753Q312 730 297.5 712Q283 694 259 682.5Q235 671 200 671Q165 671 140.5 682Q116 693 101.5 711Q87 729 81 752Q75 775 77 799H147Q148 779 159.5 765.5Q171 752 200 752Q229 752 240.5 765.5Q252 779 252 799Z" glyph-name="breve.uc" horiz-adv-x="400" /><glyph d="M172 261V-98H72V261ZM172 331H72V673H172Z" glyph-name="brokenbar" horiz-adv-x="244" unicode="&#166;" /><glyph d="M170 154Q144 154 120 164.5Q96 175 78 192.5Q60 210 49 233.5Q38 257 38 284Q38 311 49 335Q60 359 78 377Q96 395 120 405.5Q144 416 170 416Q198 416 222 405.5Q246 395 264 377Q282 359 292.5 335Q303 311 303 284Q303 257 292.5 233.5Q282 210 264 192.5Q246 175 222 164.5Q198 154 170 154Z" glyph-name="bullet" horiz-adv-x="341" unicode="&#8226;" /><glyph d="M324 405Q304 409 275 409Q251 409 228.5 401.5Q206 394 189 377.5Q172 361 162 334Q152 307 152 267V238Q152 154 187.5 119Q223 84 292 84Q335 84 373 98.5Q411 113 434 125V46Q417 26 375.5 7Q334 -12 267 -12Q213 -12 168.5 5Q124 22 91.5 55Q59 88 41.5 135.5Q24 183 24 244V245Q24 311 45 358.5Q66 406 99.5 437Q133 468 176 482.5Q219 497 264 497Q333 497 372 482.5Q411 468 429 450V328H324Z" glyph-name="c" horiz-adv-x="467" unicode="c" /><glyph d="M131 677 200 612 269 677H352L265 539H135L48 677Z" glyph-name="caron" horiz-adv-x="400" unicode="&#711;" /><glyph d="M132 798 200 750 268 798H349L269 683H131L51 798Z" glyph-name="caron.uc" horiz-adv-x="400" /><glyph d="M324 405Q304 409 275 409Q251 409 228.5 401.5Q206 394 189 377.5Q172 361 162 334Q152 307 152 267V238Q152 154 187.5 119Q223 84 292 84Q335 84 373 98.5Q411 113 434 125V46Q417 26 375.5 7Q334 -12 267 -12H254V-38Q299 -42 319 -61Q339 -80 339 -112Q339 -150 312 -168.5Q285 -187 240 -187Q211 -187 192.5 -180.5Q174 -174 166 -166V-122Q174 -125 186 -128Q198 -131 215 -131Q255 -131 255 -107Q255 -95 242 -87Q229 -79 191 -78V-2Q114 19 69 81.5Q24 144 24 244V245Q24 311 45 358.5Q66 406 99.5 437Q133 468 176 482.5Q219 497 264 497Q333 497 372 482.5Q411 468 429 450V328H324Z" glyph-name="ccedilla" horiz-adv-x="467" unicode="&#231;" /><glyph d="M208 0V-38Q253 -42 273 -61Q293 -80 293 -112Q293 -150 266 -168.5Q239 -187 194 -187Q165 -187 146.5 -180.5Q128 -174 120 -166V-122Q128 -125 140 -128Q152 -131 169 -131Q209 -131 209 -107Q209 -95 196 -87Q183 -79 145 -78V0Z" glyph-name="cedilla" horiz-adv-x="400" unicode="&#184;" /><glyph d="M352 406Q346 408 337 409Q328 410 320 410L278 79H293Q340 79 379.5 93Q419 107 442 120V50Q425 27 381.5 7.5Q338 -12 269 -12H267L255 -107H191L204 -4Q123 15 74.5 79.5Q26 144 26 244V245Q26 309 47 356Q68 403 102 434.5Q136 466 179 481.5Q222 497 267 497L277 574H341L331 493Q371 487 397 475Q423 463 436 448V337H352ZM148 238Q148 177 165.5 142Q183 107 216 92L256 410Q233 407 213.5 397.5Q194 388 179.5 371Q165 354 156.5 329Q148 304 148 268Z" glyph-name="cent" horiz-adv-x="469" unicode="&#162;" /><glyph d="M135 677H265L352 539H269L200 604L131 539H48Z" glyph-name="circumflex" horiz-adv-x="400" unicode="&#710;" /><glyph d="M268 683 200 731 132 683H51L131 798H269L349 683Z" glyph-name="circumflex.uc" horiz-adv-x="400" /><glyph d="M125 -9Q93 -9 70 14Q47 37 47 69Q47 102 70 125.5Q93 149 125 149Q157 149 180 125.5Q203 102 203 69Q203 53 197 39Q191 25 180.5 14.5Q170 4 155.5 -2.5Q141 -9 125 -9ZM125 297Q93 297 70 320Q47 343 47 375Q47 408 70 431.5Q93 455 125 455Q157 455 180 431.5Q203 408 203 375Q203 359 197 345Q191 331 180.5 320.5Q170 310 155.5 303.5Q141 297 125 297Z" glyph-name="colon" horiz-adv-x="250" unicode=":" /><glyph d="M32 -90Q69 2 69 88Q69 102 68 115.5Q67 129 64 142H191Q194 125 194 108Q194 47 174.5 1Q155 -45 116 -90Z" glyph-name="comma" horiz-adv-x="248" unicode="," /><glyph d="M369 -14Q298 -14 236.5 12Q175 38 130 83Q85 128 59.5 188.5Q34 249 34 317Q34 386 59.5 446.5Q85 507 130 552.5Q175 598 236.5 624.5Q298 651 369 651Q441 651 502.5 624.5Q564 598 608.5 552.5Q653 507 678.5 446.5Q704 386 704 317Q704 249 678.5 188.5Q653 128 608.5 83Q564 38 502.5 12Q441 -14 369 -14ZM369 37Q429 37 479.5 59.5Q530 82 567.5 120Q605 158 626 209Q647 260 647 317Q647 374 626 425.5Q605 477 567.5 516Q530 555 479.5 577.5Q429 600 369 600Q310 600 259.5 577.5Q209 555 172 516Q135 477 113.5 425.5Q92 374 92 317Q92 260 113.5 209Q135 158 172 120Q209 82 259.5 59.5Q310 37 369 37ZM381 137Q301 137 253.5 185.5Q206 234 206 325V327Q206 409 251.5 458Q297 507 375 507Q421 507 447.5 495.5Q474 484 488 471V388H410V434Q405 434 399 434.5Q393 435 388 435Q305 435 305 343V313Q305 256 327.5 230Q350 204 392 204Q397 204 403 204Q409 204 416 205V253H492V176Q480 162 452.5 149.5Q425 137 381 137Z" glyph-name="copyright" horiz-adv-x="738" unicode="&#169;" /><glyph d="M419 0Q413 16 408 34Q403 50 399.5 71Q396 92 395 115Q387 89 373 65.5Q359 42 338 25Q317 8 289.5 -2Q262 -12 226 -12Q179 -12 142 7Q105 26 79.5 60.5Q54 95 40.5 143Q27 191 27 248V249Q27 310 43 356Q59 402 86.5 433Q114 464 151.5 480Q189 496 231 496Q300 496 339 461.5Q378 427 393 378V576H322V673H519V90H572V0ZM268 77Q293 77 316 87.5Q339 98 356 118Q373 138 383 166.5Q393 195 393 231V249Q393 290 383 319.5Q373 349 356 368Q339 387 316 396Q293 405 268 405Q217 405 186 371Q155 337 155 266V232Q155 160 184 118.5Q213 77 268 77Z" glyph-name="d" horiz-adv-x="593" unicode="d" /><glyph d="M144 354H31V448H144V639H249V448H362V354H249V-98H144Z" glyph-name="dagger" horiz-adv-x="392" unicode="&#8224;" /><glyph d="M249 354V187H362V93H249V-98H144V93H31V187H144V354H31V448H144V639H249V448H362V354Z" glyph-name="daggerdbl" horiz-adv-x="392" unicode="&#8225;" /><glyph d="M29 500Q29 531 40.5 558Q52 585 72 605Q92 625 119 637Q146 649 178 649Q210 649 237.5 637Q265 625 285.5 605Q306 585 317.5 558Q329 531 329 500Q329 469 317.5 442Q306 415 285.5 395Q265 375 237.5 363.5Q210 352 178 352Q146 352 119 363.5Q92 375 72 395Q52 415 40.5 442Q29 469 29 500ZM107 500Q107 463 127 441.5Q147 420 178 420Q210 420 231 441.5Q252 463 252 500Q252 535 231 558Q210 581 178 581Q147 581 127 558Q107 535 107 500Z" glyph-name="degree" horiz-adv-x="358" unicode="&#176;" /><glyph d="M104 538Q75 538 55 557.5Q35 577 35 605Q35 632 55 651.5Q75 671 104 671Q131 671 151.5 651.5Q172 632 172 605Q172 577 151.5 557.5Q131 538 104 538ZM293 538Q265 538 245 557.5Q225 577 225 605Q225 632 245 651.5Q265 671 293 671Q321 671 341 651.5Q361 632 361 605Q361 577 341 557.5Q321 538 293 538Z" glyph-name="dieresis" horiz-adv-x="397" unicode="&#168;" /><glyph d="M98 668Q70 668 50 687.5Q30 707 30 735Q30 762 50 781.5Q70 801 98 801Q126 801 146 781.5Q166 762 166 735Q166 707 146 687.5Q126 668 98 668ZM297 668Q269 668 249 687.5Q229 707 229 735Q229 762 249 781.5Q269 801 297 801Q325 801 345.5 781.5Q366 762 366 735Q366 707 345.5 687.5Q325 668 297 668Z" glyph-name="dieresis.uc" horiz-adv-x="397" /><glyph d="M430 363V264H46V363ZM240 79Q212 79 191 99.5Q170 120 170 149Q170 178 191 198.5Q212 219 240 219Q269 219 289.5 198.5Q310 178 310 149Q310 120 289.5 99.5Q269 79 240 79ZM240 407Q212 407 191 427Q170 447 170 476Q170 505 191 526Q212 547 240 547Q269 547 289.5 526Q310 505 310 476Q310 447 289.5 427Q269 407 240 407Z" glyph-name="divide" horiz-adv-x="476" unicode="&#247;" /><glyph d="M362 472V550Q337 557 317 558L295 374Q329 367 361.5 359Q394 351 420 334Q458 310 475 274.5Q492 239 492 188Q492 135 473 97Q454 59 421.5 34Q389 9 346 -3Q303 -15 254 -15H249L238 -107H173L184 -10Q133 -2 96 15Q59 32 38 53V179H137V89Q151 84 165 80.5Q179 77 194 75L217 270Q193 275 169.5 282.5Q146 290 127 301Q45 346 45 458Q45 509 63.5 545.5Q82 582 112 605.5Q142 629 181.5 640.5Q221 652 263 653L271 718H336L328 649Q373 643 407 629.5Q441 616 461 597V472ZM331 238Q312 248 281 256L259 71Q309 74 339.5 96.5Q370 119 370 170Q370 196 361.5 211.5Q353 227 331 238ZM203 399Q216 392 231 388L252 560Q213 557 186 537.5Q159 518 159 469Q159 445 168.5 427.5Q178 410 203 399Z" glyph-name="dollar" horiz-adv-x="510" unicode="$" /><glyph d="M200 539Q170 539 149.5 560Q129 581 129 610Q129 639 149.5 660Q170 681 200 681Q230 681 250.5 660Q271 639 271 610Q271 581 250.5 560Q230 539 200 539Z" glyph-name="dotaccent" horiz-adv-x="400" unicode="&#729;" /><glyph d="M200 678Q170 678 149.5 699Q129 720 129 749Q129 778 149.5 799Q170 820 200 820Q230 820 250.5 799Q271 778 271 749Q271 720 250.5 699Q230 678 200 678Z" glyph-name="dotaccent.uc" horiz-adv-x="400" /><glyph d="M21 485H204V90H260V0H21V90H77V379H21Z" glyph-name="dotlessi" horiz-adv-x="281" unicode="&#305;" /><glyph d="M277 -11Q158 -11 91 53.5Q24 118 24 243V244Q24 303 42 350Q60 397 91.5 429.5Q123 462 166.5 479.5Q210 497 261 497Q315 497 354.5 481Q394 465 420 437.5Q446 410 458.5 372.5Q471 335 471 293Q471 270 467.5 251Q464 232 459 216H153Q155 178 165.5 153Q176 128 195.5 113Q215 98 242.5 91.5Q270 85 306 85Q354 85 392 95.5Q430 106 452 118V48Q436 26 391 7.5Q346 -11 277 -11ZM262 414Q214 414 184.5 380.5Q155 347 153 280H357V290Q357 356 331.5 385Q306 414 262 414Z" glyph-name="e" horiz-adv-x="497" unicode="e" /><glyph d="M266 681H419L292 539H215ZM277 -11Q158 -11 91 53.5Q24 118 24 243V244Q24 303 42 350Q60 397 91.5 429.5Q123 462 166.5 479.5Q210 497 261 497Q315 497 354.5 481Q394 465 420 437.5Q446 410 458.5 372.5Q471 335 471 293Q471 270 467.5 251Q464 232 459 216H153Q155 178 165.5 153Q176 128 195.5 113Q215 98 242.5 91.5Q270 85 306 85Q354 85 392 95.5Q430 106 452 118V48Q436 26 391 7.5Q346 -11 277 -11ZM262 414Q214 414 184.5 380.5Q155 347 153 280H357V290Q357 356 331.5 385Q306 414 262 414Z" glyph-name="eacute" horiz-adv-x="497" unicode="&#233;" /><glyph d="M200 677H330L417 539H334L265 604L196 539H113ZM277 -11Q158 -11 91 53.5Q24 118 24 243V244Q24 303 42 350Q60 397 91.5 429.5Q123 462 166.5 479.5Q210 497 261 497Q315 497 354.5 481Q394 465 420 437.5Q446 410 458.5 372.5Q471 335 471 293Q471 270 467.5 251Q464 232 459 216H153Q155 178 165.5 153Q176 128 195.5 113Q215 98 242.5 91.5Q270 85 306 85Q354 85 392 95.5Q430 106 452 118V48Q436 26 391 7.5Q346 -11 277 -11ZM262 414Q214 414 184.5 380.5Q155 347 153 280H357V290Q357 356 331.5 385Q306 414 262 414Z" glyph-name="ecircumflex" horiz-adv-x="497" unicode="&#234;" /><glyph d="M170 538Q141 538 121 557.5Q101 577 101 605Q101 632 121 651.5Q141 671 170 671Q197 671 217.5 651.5Q238 632 238 605Q238 577 217.5 557.5Q197 538 170 538ZM359 538Q331 538 311 557.5Q291 577 291 605Q291 632 311 651.5Q331 671 359 671Q387 671 407 651.5Q427 632 427 605Q427 577 407 557.5Q387 538 359 538ZM277 -11Q158 -11 91 53.5Q24 118 24 243V244Q24 303 42 350Q60 397 91.5 429.5Q123 462 166.5 479.5Q210 497 261 497Q315 497 354.5 481Q394 465 420 437.5Q446 410 458.5 372.5Q471 335 471 293Q471 270 467.5 251Q464 232 459 216H153Q155 178 165.5 153Q176 128 195.5 113Q215 98 242.5 91.5Q270 85 306 85Q354 85 392 95.5Q430 106 452 118V48Q436 26 391 7.5Q346 -11 277 -11ZM262 414Q214 414 184.5 380.5Q155 347 153 280H357V290Q357 356 331.5 385Q306 414 262 414Z" glyph-name="edieresis" horiz-adv-x="497" unicode="&#235;" /><glyph d="M277 -11Q158 -11 91 53.5Q24 118 24 243V244Q24 303 42 350Q60 397 91.5 429.5Q123 462 166.5 479.5Q210 497 261 497Q315 497 354.5 481Q394 465 420 437.5Q446 410 458.5 372.5Q471 335 471 293Q471 270 467.5 251Q464 232 459 216H153Q155 178 165.5 153Q176 128 195.5 113Q215 98 242.5 91.5Q270 85 306 85Q354 85 392 95.5Q430 106 452 118V48Q436 26 391 7.5Q346 -11 277 -11ZM262 414Q214 414 184.5 380.5Q155 347 153 280H357V290Q357 356 331.5 385Q306 414 262 414ZM113 681H267L316 539H237Z" glyph-name="egrave" horiz-adv-x="497" unicode="&#232;" /><glyph d="M269 -14Q218 -14 174 -1.5Q130 11 98 35Q66 59 47.5 94Q29 129 29 173V181Q29 240 65 280.5Q101 321 167 339Q114 355 82 390Q50 425 50 480V485Q50 522 65.5 553Q81 584 109.5 606Q138 628 178.5 640Q219 652 269 652Q318 652 358.5 640Q399 628 428 606Q457 584 472.5 553.5Q488 523 488 486V480Q488 426 455.5 391Q423 356 370 339Q436 321 472.5 280.5Q509 240 509 182V174Q509 129 490.5 94Q472 59 439.5 35Q407 11 363.5 -1.5Q320 -14 269 -14ZM269 75Q317 75 347 99.5Q377 124 377 180V199Q377 249 348.5 275.5Q320 302 269 302Q218 302 189.5 275.5Q161 249 161 199V180Q161 124 191 99.5Q221 75 269 75ZM269 372Q313 372 339 393.5Q365 415 365 462V477Q365 514 340 538Q315 562 269 562Q222 562 197.5 538Q173 514 173 477V462Q173 415 199 393.5Q225 372 269 372Z" glyph-name="eight" horiz-adv-x="537" unicode="8" /><glyph d="M572 -9Q540 -9 517 14Q494 37 494 69Q494 102 517 125.5Q540 149 572 149Q604 149 627 125.5Q650 102 650 69Q650 53 644 39Q638 25 627.5 14.5Q617 4 602.5 -2.5Q588 -9 572 -9ZM348 -9Q316 -9 293 14Q270 37 270 69Q270 102 293 125.5Q316 149 348 149Q380 149 403 125.5Q426 102 426 69Q426 53 420 39Q414 25 403.5 14.5Q393 4 378.5 -2.5Q364 -9 348 -9ZM124 -9Q92 -9 69 14Q46 37 46 69Q46 102 69 125.5Q92 149 124 149Q156 149 179 125.5Q202 102 202 69Q202 53 196 39Q190 25 179.5 14.5Q169 4 154.5 -2.5Q140 -9 124 -9Z" glyph-name="ellipsis" horiz-adv-x="696" unicode="&#8230;" /><glyph d="M48 309H914V229H48Z" glyph-name="emdash" horiz-adv-x="962" unicode="&#8212;" /><glyph d="M48 309H535V229H48Z" glyph-name="endash" horiz-adv-x="583" unicode="&#8211;" /><glyph d="M460 265V170H52V265ZM460 448V354H52V448Z" glyph-name="equal" horiz-adv-x="512" unicode="=" /><glyph d="M73 560 190 597Q160 618 129 636Q98 654 69 668V673H247Q261 665 276.5 656Q292 647 309 635L412 668L433 614L363 592Q393 565 421 531Q449 497 470.5 456.5Q492 416 505 369Q518 322 518 269V249Q518 181 497.5 131.5Q477 82 443 50.5Q409 19 364 4Q319 -11 271 -11Q223 -11 178 4Q133 19 99 50.5Q65 82 44.5 131Q24 180 24 248V250Q24 308 40 352Q56 396 83 426Q110 456 146 471Q182 486 222 486Q267 486 299.5 469Q332 452 355 423L356 424Q336 461 307.5 493Q279 525 246 554L94 506ZM271 72Q295 72 317 80Q339 88 355 107Q371 126 380.5 157Q390 188 390 234V270Q390 339 357 375.5Q324 412 271 412Q218 412 185.5 375.5Q153 339 153 270V234Q153 188 162.5 157Q172 126 188 107Q204 88 225.5 80Q247 72 271 72Z" glyph-name="eth" horiz-adv-x="546" unicode="&#240;" /><glyph d="M164 195H84L51 658H197ZM124 -9Q93 -9 70 13.5Q47 36 47 67Q47 99 70 122Q93 145 124 145Q140 145 154.5 138.5Q169 132 179.5 121.5Q190 111 196 97Q202 83 202 67Q202 52 196 38Q190 24 179.5 13.5Q169 3 154.5 -3Q140 -9 124 -9Z" glyph-name="exclam" horiz-adv-x="249" unicode="!" /><glyph d="M85 350H165L198 -113H52ZM125 554Q156 554 179 531.5Q202 509 202 478Q202 446 179 423Q156 400 125 400Q109 400 94.5 406.5Q80 413 69.5 423.5Q59 434 53 448Q47 462 47 478Q47 493 53 507Q59 521 69.5 531.5Q80 542 94.5 548Q109 554 125 554Z" glyph-name="exclamdown" horiz-adv-x="249" unicode="&#161;" /><glyph d="M21 485H83V517Q83 562 97 593Q111 624 133 643.5Q155 663 182.5 671.5Q210 680 237 680Q275 680 298 672Q321 664 334 653V585Q325 587 311 588Q297 589 283 589Q241 589 225 575Q209 561 209 528V485H334V397H209V90H291V0H21V90H83V397H21Z" glyph-name="f" horiz-adv-x="356" unicode="f" /><glyph d="M225 -10Q181 -10 149.5 -4Q118 2 95.5 11Q73 20 58 32Q43 44 32 56V142Q47 132 63 122.5Q79 113 99.5 106Q120 99 145 94.5Q170 90 202 90Q268 90 302 118Q336 146 336 201Q336 258 302 284.5Q268 311 194 311Q146 311 115 303Q84 295 61 285H53V639H444V472H338V538H156V380Q177 386 199.5 389.5Q222 393 246 393Q303 393 344.5 378.5Q386 364 414 338Q442 312 455.5 275Q469 238 469 192Q469 146 452.5 109Q436 72 404.5 45.5Q373 19 327.5 4.5Q282 -10 225 -10Z" glyph-name="five" horiz-adv-x="503" unicode="5" /><glyph d="M107 408 117 502Q126 595 173.5 637.5Q221 680 288 680Q324 680 346.5 672Q369 664 381 653V579Q372 581 359 581.5Q346 582 332 582Q288 582 269 565Q250 548 245 504L235 408H360V316H225L177 -146H49L97 316H22V408Z" glyph-name="florin" horiz-adv-x="406" unicode="&#402;" /><glyph d="M436 639V269H517V177H436V90H517V0H233V90H308V177H27V295L268 639ZM115 269H308V544Z" glyph-name="four" horiz-adv-x="544" unicode="4" /><glyph d="M-139 0H-222L267 639H350Z" glyph-name="fraction" horiz-adv-x="128" unicode="&#8260;" /><glyph d="M255 -155Q212 -155 180 -149.5Q148 -144 125.5 -135.5Q103 -127 88 -116.5Q73 -106 64 -96V-3Q75 -12 90 -21.5Q105 -31 125 -39.5Q145 -48 172 -53Q199 -58 235 -58Q311 -58 351 -22Q391 14 391 84V135Q376 88 335 59Q294 30 225 30Q128 30 76.5 93Q25 156 25 263V264Q25 318 40.5 361Q56 404 83.5 434Q111 464 148.5 480Q186 496 230 496Q299 496 338.5 468.5Q378 441 398 385Q400 405 404.5 423.5Q409 442 414 456Q419 472 425 485H570V379H517V94Q517 -31 448.5 -93Q380 -155 255 -155ZM265 109Q290 109 313 118Q336 127 353.5 145Q371 163 381 189.5Q391 216 391 251V264Q391 335 355 370Q319 405 267 405Q216 405 185 371.5Q154 338 154 275V251Q154 183 182 146Q210 109 265 109Z" glyph-name="g" horiz-adv-x="591" unicode="g" /><glyph d="M21 485H83Q84 534 102.5 570.5Q121 607 152 631.5Q183 656 225.5 668Q268 680 319 680Q360 680 396.5 672Q433 664 460 646Q487 628 503 600Q519 572 519 533Q519 495 496.5 467Q474 439 447 417Q420 395 397.5 378.5Q375 362 375 348Q375 334 384.5 328Q394 322 412 314Q436 303 465 292.5Q494 282 514 271Q546 253 565.5 222.5Q585 192 585 143Q585 66 540.5 26.5Q496 -13 408 -13Q356 -13 319.5 0Q283 13 258 33V140H360V74Q369 73 378 72.5Q387 72 398 72Q430 72 450 85.5Q470 99 470 131Q470 148 461 160.5Q452 173 436 181Q418 190 392.5 198.5Q367 207 336 220Q264 251 264 324Q264 347 274 366Q284 385 299 401Q314 417 332 432Q350 447 365 462Q380 477 390 493.5Q400 510 400 529Q400 559 378 576Q356 593 316 593Q265 593 237 563Q209 533 209 469V8H191V0H21V90H83V397H21Z" glyph-name="germandbls" horiz-adv-x="605" unicode="&#223;" /><glyph d="M48 681H202L251 539H172Z" glyph-name="grave" horiz-adv-x="400" unicode="`" /><glyph d="M53 798H210L248 683H167Z" glyph-name="grave.uc" horiz-adv-x="400" /><glyph d="M46 99V201L329 314L46 428V531L426 378V252Z" glyph-name="greater" horiz-adv-x="472" unicode="&gt;" /><glyph d="M426 281 46 138V241L322 344L46 447V551L426 408ZM46 0V98H426V0Z" glyph-name="greaterequal" horiz-adv-x="472" unicode="&#8805;" /><glyph d="M207 407 117 244 207 80H107L20 243L107 407ZM263 244 353 80H253L166 243L253 407H353Z" glyph-name="guillemotleft" horiz-adv-x="373" unicode="&#171;" /><glyph d="M166 80 256 243 166 407H266L353 244L266 80ZM110 243 20 407H120L207 244L120 80H20Z" glyph-name="guillemotright" horiz-adv-x="373" unicode="&#187;" /><glyph d="M211 409 121 246 211 82H107L20 245L107 409Z" glyph-name="guilsinglleft" horiz-adv-x="231" unicode="&#8249;" /><glyph d="M110 245 20 409H125L212 246L125 82H20Z" glyph-name="guilsinglright" horiz-adv-x="231" unicode="&#8250;" /><glyph d="M334 90H398V320Q398 400 318 400Q267 400 234.5 364.5Q202 329 200 262V90H266V0H21V90H74V576H21V673H200V364Q215 427 260 462Q305 497 369 497Q441 497 483 455Q525 413 525 326V90H574V0H334Z" glyph-name="h" horiz-adv-x="595" unicode="h" /><glyph d="M120 681H242L158 539H71ZM281 681H403L319 539H232Z" glyph-name="hungarumlaut" horiz-adv-x="400" unicode="&#733;" /><glyph d="M109 798H234L158 683H70ZM266 798H391L315 683H227Z" glyph-name="hungarumlaut.uc" horiz-adv-x="400" /><glyph d="M48 321H257V217H48Z" glyph-name="hyphen" horiz-adv-x="305" unicode="-" /><glyph d="M21 485H204V90H260V0H21V90H77V379H21ZM137 534Q108 534 86.5 555Q65 576 65 606Q65 635 86.5 656.5Q108 678 137 678Q166 678 187.5 656.5Q209 635 209 606Q209 576 187.5 555Q166 534 137 534Z" glyph-name="i" horiz-adv-x="281" unicode="i" /><glyph d="M131 681H284L157 539H80ZM21 485H204V90H260V0H21V90H77V379H21Z" glyph-name="iacute" horiz-adv-x="281" unicode="&#237;" /><glyph d="M65 677H195L282 539H199L130 604L61 539H-22ZM21 485H204V90H260V0H21V90H77V379H21Z" glyph-name="icircumflex" horiz-adv-x="281" unicode="&#238;" /><glyph d="M44 538Q16 538 -4 557.5Q-24 577 -24 605Q-24 632 -4 651.5Q16 671 44 671Q72 671 92 651.5Q112 632 112 605Q112 577 92 557.5Q72 538 44 538ZM214 538Q187 538 166.5 557.5Q146 577 146 605Q146 632 166.5 651.5Q187 671 214 671Q243 671 263 651.5Q283 632 283 605Q283 577 263 557.5Q243 538 214 538ZM21 485H204V90H260V0H21V90H77V379H21Z" glyph-name="idieresis" horiz-adv-x="281" unicode="&#239;" /><glyph d="M21 485H204V90H260V0H21V90H77V379H21ZM-22 681H132L181 539H102Z" glyph-name="igrave" horiz-adv-x="281" unicode="&#236;" /><glyph d="M21 485H204V-7Q204 -47 193 -75Q182 -103 163.5 -121Q145 -139 119.5 -147Q94 -155 66 -155Q28 -155 7 -148Q-14 -141 -25 -132V-65Q-16 -67 -6.5 -67Q3 -67 16 -67Q47 -67 62 -57.5Q77 -48 77 -15V379H21ZM137 534Q108 534 86.5 555Q65 576 65 606Q65 635 86.5 656.5Q108 678 137 678Q166 678 187.5 656.5Q209 635 209 606Q209 576 187.5 555Q166 534 137 534Z" glyph-name="j" horiz-adv-x="263" unicode="j" /><glyph d="M200 243V90H260V0H21V90H74V576H21V673H200V260L373 485H495V379H415L323 264L449 90H513V0H369Z" glyph-name="k" horiz-adv-x="534" unicode="k" /><glyph d="M21 673H204V90H261V0H21V90H78V576H21Z" glyph-name="l" horiz-adv-x="282" unicode="l" /><glyph d="M426 531V429L142 315L426 202V99L46 252V378Z" glyph-name="less" horiz-adv-x="472" unicode="&lt;" /><glyph d="M426 551V448L150 345L426 242V138L46 281V408ZM46 98H426V0H46Z" glyph-name="lessequal" horiz-adv-x="472" unicode="&#8804;" /><glyph d="M21 673H204V448L261 486V401L204 362V90H261V0H21V90H78V278L20 239V325L78 363V576H21Z" glyph-name="lslash" horiz-adv-x="282" unicode="&#322;" /><glyph d="M317 90H379V320Q379 362 363 381Q347 400 309 400Q261 400 231.5 364.5Q202 329 200 262V90H263V0H21V90H74V379H21V485H174Q181 469 186 451Q191 435 194.5 414Q198 393 198 370V363Q213 426 256 461.5Q299 497 359 497Q419 497 454 462.5Q489 428 494 357Q511 425 558 461Q605 497 664 497Q731 497 770.5 455Q810 413 810 326V90H860V0H621V90H684V320Q684 362 668 381Q652 400 614 400Q563 400 534.5 364.5Q506 329 505 262V90H566V0H317Z" glyph-name="m" horiz-adv-x="881" unicode="m" /><glyph d="M72 637H328V555H72Z" glyph-name="macron" horiz-adv-x="400" unicode="&#175;" /><glyph d="M70 777H330V695H70Z" glyph-name="macron.uc" horiz-adv-x="400" /><glyph d="M427 365V265H42V365Z" glyph-name="minus" horiz-adv-x="469" unicode="&#8722;" /><glyph d="M160 304 41 424 110 493 229 373 347 491 416 422 298 304 418 184 349 115 229 235 112 117 43 186Z" glyph-name="multiply" horiz-adv-x="459" unicode="&#215;" /><glyph d="M334 90H398V320Q398 400 318 400Q267 400 234.5 364.5Q202 329 200 262V90H266V0H21V90H74V379H21V485H174Q181 469 186 451Q191 435 194.5 414Q198 393 198 370V360Q213 424 258 460.5Q303 497 369 497Q441 497 483 455Q525 413 525 326V90H574V0H334Z" glyph-name="n" horiz-adv-x="595" unicode="n" /><glyph d="M106 8Q151 30 195 60.5Q239 91 276.5 128Q314 165 342.5 208Q371 251 385 298Q365 266 328 243.5Q291 221 234 221Q186 221 148 236Q110 251 83.5 278Q57 305 43 343Q29 381 29 427V432Q29 483 46.5 524Q64 565 96 594Q128 623 174 638.5Q220 654 276 654Q334 654 381 638Q428 622 461.5 590Q495 558 513.5 510Q532 462 532 398V380Q532 309 506 247.5Q480 186 443 137Q406 88 364.5 53Q323 18 292 0H106ZM278 304Q335 304 366.5 334Q398 364 398 415V440Q398 496 366.5 530.5Q335 565 276 565Q217 565 189.5 531.5Q162 498 162 442V427Q162 401 168 379Q174 357 188 340Q202 323 224 313.5Q246 304 278 304Z" glyph-name="nine" horiz-adv-x="564" unicode="9" /><glyph glyph-name="nonmarkingreturn" horiz-adv-x="175" /><glyph d="M365 448H460V354H321L279 265H460V170H234L188 72H104L150 170H52V265H195L237 354H52V448H281L324 539H408Z" glyph-name="notequal" horiz-adv-x="512" unicode="&#8800;" /><glyph d="M334 90H398V320Q398 400 318 400Q267 400 234.5 364.5Q202 329 200 262V90H266V0H21V90H74V379H21V485H174Q181 469 186 451Q191 435 194.5 414Q198 393 198 370V360Q213 424 258 460.5Q303 497 369 497Q441 497 483 455Q525 413 525 326V90H574V0H334ZM155 551Q148 575 148.5 598Q149 621 158 639.5Q167 658 184 669.5Q201 681 228 681Q249 681 266 675.5Q283 670 297 664Q311 658 322.5 652.5Q334 647 345 647Q359 647 363.5 656Q368 665 370 685H424Q430 661 430 638Q430 615 421.5 596.5Q413 578 396.5 566.5Q380 555 355 555Q336 555 319.5 560.5Q303 566 288 572Q273 578 260 583.5Q247 589 235 589Q221 589 215.5 580Q210 571 208 551Z" glyph-name="ntilde" horiz-adv-x="595" unicode="&#241;" /><glyph d="M399 476H469V375H382L367 281H438V180H351L322 0H235L264 180H186L157 0H70L99 180H29V281H115L130 375H59V476H147L173 639H260L234 476H312L338 639H425ZM202 281H280L295 375H217Z" glyph-name="numbersign" horiz-adv-x="498" unicode="#" /><glyph d="M271 72Q296 72 317.5 80Q339 88 355 107Q371 126 380.5 157Q390 188 390 234V270Q390 339 357.5 375.5Q325 412 271 412Q217 412 185 375.5Q153 339 153 270V234Q153 188 162 157Q171 126 187 107Q203 88 224.5 80Q246 72 271 72ZM271 -11Q222 -11 177.5 4Q133 19 99 50.5Q65 82 44.5 131Q24 180 24 248V250Q24 308 42.5 354Q61 400 93.5 431.5Q126 463 171.5 480Q217 497 271 497Q325 497 370.5 480Q416 463 448.5 431.5Q481 400 499.5 354.5Q518 309 518 251V249Q518 181 497.5 131.5Q477 82 443 50.5Q409 19 364.5 4Q320 -11 271 -11Z" glyph-name="o" horiz-adv-x="542" unicode="o" /><glyph d="M272 681H425L298 539H221ZM271 72Q296 72 317.5 80Q339 88 355 107Q371 126 380.5 157Q390 188 390 234V270Q390 339 357.5 375.5Q325 412 271 412Q217 412 185 375.5Q153 339 153 270V234Q153 188 162 157Q171 126 187 107Q203 88 224.5 80Q246 72 271 72ZM271 -11Q222 -11 177.5 4Q133 19 99 50.5Q65 82 44.5 131Q24 180 24 248V250Q24 308 42.5 354Q61 400 93.5 431.5Q126 463 171.5 480Q217 497 271 497Q325 497 370.5 480Q416 463 448.5 431.5Q481 400 499.5 354.5Q518 309 518 251V249Q518 181 497.5 131.5Q477 82 443 50.5Q409 19 364.5 4Q320 -11 271 -11Z" glyph-name="oacute" horiz-adv-x="542" unicode="&#243;" /><glyph d="M206 677H336L423 539H340L271 604L202 539H119ZM271 72Q296 72 317.5 80Q339 88 355 107Q371 126 380.5 157Q390 188 390 234V270Q390 339 357.5 375.5Q325 412 271 412Q217 412 185 375.5Q153 339 153 270V234Q153 188 162 157Q171 126 187 107Q203 88 224.5 80Q246 72 271 72ZM271 -11Q222 -11 177.5 4Q133 19 99 50.5Q65 82 44.5 131Q24 180 24 248V250Q24 308 42.5 354Q61 400 93.5 431.5Q126 463 171.5 480Q217 497 271 497Q325 497 370.5 480Q416 463 448.5 431.5Q481 400 499.5 354.5Q518 309 518 251V249Q518 181 497.5 131.5Q477 82 443 50.5Q409 19 364.5 4Q320 -11 271 -11Z" glyph-name="ocircumflex" horiz-adv-x="542" unicode="&#244;" /><glyph d="M177 538Q148 538 128 557.5Q108 577 108 605Q108 632 128 651.5Q148 671 177 671Q204 671 224.5 651.5Q245 632 245 605Q245 577 224.5 557.5Q204 538 177 538ZM366 538Q338 538 318 557.5Q298 577 298 605Q298 632 318 651.5Q338 671 366 671Q394 671 414 651.5Q434 632 434 605Q434 577 414 557.5Q394 538 366 538ZM271 72Q296 72 317.5 80Q339 88 355 107Q371 126 380.5 157Q390 188 390 234V270Q390 339 357.5 375.5Q325 412 271 412Q217 412 185 375.5Q153 339 153 270V234Q153 188 162 157Q171 126 187 107Q203 88 224.5 80Q246 72 271 72ZM271 -11Q222 -11 177.5 4Q133 19 99 50.5Q65 82 44.5 131Q24 180 24 248V250Q24 308 42.5 354Q61 400 93.5 431.5Q126 463 171.5 480Q217 497 271 497Q325 497 370.5 480Q416 463 448.5 431.5Q481 400 499.5 354.5Q518 309 518 251V249Q518 181 497.5 131.5Q477 82 443 50.5Q409 19 364.5 4Q320 -11 271 -11Z" glyph-name="odieresis" horiz-adv-x="542" unicode="&#246;" /><glyph d="M640 -11Q564 -11 516 18Q468 47 445 105Q418 44 370 16.5Q322 -11 262 -11Q216 -11 173 4Q130 19 97 50.5Q64 82 44 131Q24 180 24 248V250Q24 308 42 354Q60 400 91.5 431.5Q123 463 167 480Q211 497 262 497Q328 497 374.5 468.5Q421 440 446 384Q469 439 513.5 468Q558 497 624 497Q676 497 714.5 481Q753 465 778.5 437.5Q804 410 816.5 372.5Q829 335 829 293Q829 270 825.5 251Q822 232 817 216H508Q512 142 552 113.5Q592 85 664 85Q712 85 749.5 95.5Q787 106 810 118V48Q794 26 749.5 7.5Q705 -11 640 -11ZM267 72Q291 72 312 80Q333 88 348.5 107Q364 126 373 157Q382 188 382 234V270Q382 339 350.5 375.5Q319 412 267 412Q215 412 183.5 375.5Q152 339 152 270V234Q152 188 161 157Q170 126 185.5 107Q201 88 222 80Q243 72 267 72ZM619 414Q571 414 540.5 380.5Q510 347 508 280H715V290Q715 356 689 385Q663 414 619 414Z" glyph-name="oe" horiz-adv-x="854" unicode="&#339;" /><glyph d="M210 -155Q165 -155 141.5 -136Q118 -117 118 -85Q118 -52 145 -30.5Q172 -9 209 0H269Q234 -19 225 -35Q216 -51 216 -62Q216 -88 244 -88Q253 -88 260.5 -86Q268 -84 273 -82V-135Q258 -155 210 -155Z" glyph-name="ogonek" horiz-adv-x="400" unicode="&#731;" /><glyph d="M271 72Q296 72 317.5 80Q339 88 355 107Q371 126 380.5 157Q390 188 390 234V270Q390 339 357.5 375.5Q325 412 271 412Q217 412 185 375.5Q153 339 153 270V234Q153 188 162 157Q171 126 187 107Q203 88 224.5 80Q246 72 271 72ZM271 -11Q222 -11 177.5 4Q133 19 99 50.5Q65 82 44.5 131Q24 180 24 248V250Q24 308 42.5 354Q61 400 93.5 431.5Q126 463 171.5 480Q217 497 271 497Q325 497 370.5 480Q416 463 448.5 431.5Q481 400 499.5 354.5Q518 309 518 251V249Q518 181 497.5 131.5Q477 82 443 50.5Q409 19 364.5 4Q320 -11 271 -11ZM119 681H273L322 539H243Z" glyph-name="ograve" horiz-adv-x="542" unicode="&#242;" /><glyph d="M45 90H160V528L29 385H26V513L141 639H289V90H387V0H45Z" glyph-name="one" horiz-adv-x="413" unicode="1" /><glyph d="M482 97Q525 121 557 141.5Q589 162 610 181Q631 200 641 218.5Q651 237 651 258Q651 289 633 300.5Q615 312 587 312Q557 312 532 303Q507 294 488 281V342Q504 359 534 374.5Q564 390 612 390Q642 390 667 383.5Q692 377 710.5 362Q729 347 739.5 323.5Q750 300 750 266Q750 202 691.5 155.5Q633 109 535 72V70H680V105H755V0H482ZM178 0H95L584 639H667ZM35 327H99V565L22 486H21V575L90 645H197V327H252V263H35Z" glyph-name="onehalf" horiz-adv-x="778" unicode="&#189;" /><glyph d="M680 382V170H726V108H680V63H726V0H542V63H587V108H414V185L563 382ZM180 0H97L586 639H669ZM35 327H99V565L22 486H21V575L90 645H197V327H252V263H35ZM479 170H587V312Z" glyph-name="onequarter" horiz-adv-x="746" unicode="&#188;" /><glyph d="M42 600Q48 607 59 615Q70 623 86.5 630Q103 637 125.5 642Q148 647 178 647Q258 647 291 609.5Q324 572 324 506V386Q324 372 329.5 365.5Q335 359 349 359Q357 359 360 360V302Q355 298 347 295Q340 293 330.5 291Q321 289 308 289Q233 289 225 356Q214 322 187.5 304.5Q161 287 121 287Q76 287 48.5 310.5Q21 334 21 376V377Q21 404 32 422Q43 440 61.5 451.5Q80 463 104 470.5Q128 478 155 484Q192 492 207.5 501.5Q223 511 223 529V531Q223 551 209.5 565.5Q196 580 160 580Q138 580 123 576V523H42ZM165 344Q189 344 206 363.5Q223 383 223 420V470Q215 462 203.5 456Q192 450 178 443Q149 431 136 421Q123 411 123 389V385Q123 344 165 344Z" glyph-name="ordfeminine" horiz-adv-x="379" unicode="&#170;" /><glyph d="M200 352Q216 352 229.5 357Q243 362 253.5 375Q264 388 270 408.5Q276 429 276 461V486Q276 534 255.5 558Q235 582 200 582Q165 582 144 558Q123 534 123 486V461Q123 429 129 408.5Q135 388 145.5 375Q156 362 170 357Q184 352 200 352ZM200 288Q165 288 132.5 298.5Q100 309 75.5 331Q51 353 36 388Q21 423 21 471V472Q21 514 34.5 546.5Q48 579 72 601.5Q96 624 128.5 635.5Q161 647 200 647Q239 647 271.5 635.5Q304 624 328 601.5Q352 579 365.5 546.5Q379 514 379 473V472Q379 423 364 388.5Q349 354 324.5 331.5Q300 309 267.5 298.5Q235 288 200 288Z" glyph-name="ordmasculine" horiz-adv-x="400" unicode="&#186;" /><glyph d="M271 -11Q233 -11 197.5 -2.5Q162 6 132 25L96 -19H24L88 61Q59 93 41.5 139Q24 185 24 248V250Q24 308 42.5 354Q61 400 93.5 431.5Q126 463 171.5 480Q217 497 271 497Q311 497 346 487.5Q381 478 410 461L443 501H516L455 425Q485 393 501.5 349.5Q518 306 518 251V249Q518 181 497.5 131.5Q477 82 443 50.5Q409 19 364.5 4Q320 -11 271 -11ZM271 71Q296 71 317.5 79.5Q339 88 355.5 107Q372 126 381.5 157Q391 188 391 234V270Q391 306 383 336L189 97Q204 83 224.5 77Q245 71 271 71ZM151 234Q151 183 160 150L351 387Q323 412 271 412Q217 412 184 375.5Q151 339 151 270Z" glyph-name="oslash" horiz-adv-x="538" unicode="&#248;" /><glyph d="M271 72Q296 72 317.5 80Q339 88 355 107Q371 126 380.5 157Q390 188 390 234V270Q390 339 357.5 375.5Q325 412 271 412Q217 412 185 375.5Q153 339 153 270V234Q153 188 162 157Q171 126 187 107Q203 88 224.5 80Q246 72 271 72ZM271 -11Q222 -11 177.5 4Q133 19 99 50.5Q65 82 44.5 131Q24 180 24 248V250Q24 308 42.5 354Q61 400 93.5 431.5Q126 463 171.5 480Q217 497 271 497Q325 497 370.5 480Q416 463 448.5 431.5Q481 400 499.5 354.5Q518 309 518 251V249Q518 181 497.5 131.5Q477 82 443 50.5Q409 19 364.5 4Q320 -11 271 -11ZM136 551Q129 575 129.5 598Q130 621 139 639.5Q148 658 165 669.5Q182 681 209 681Q230 681 247 675.5Q264 670 278 664Q292 658 303.5 652.5Q315 647 326 647Q340 647 344.5 656Q349 665 351 685H405Q411 661 411 638Q411 615 402.5 596.5Q394 578 377.5 566.5Q361 555 336 555Q317 555 300.5 560.5Q284 566 269 572Q254 578 241 583.5Q228 589 216 589Q202 589 196.5 580Q191 571 189 551Z" glyph-name="otilde" horiz-adv-x="542" unicode="&#245;" /><glyph d="M21 485H174Q181 468 186 450Q191 434 194.5 412.5Q198 391 198 368V363Q204 391 218.5 415.5Q233 440 254.5 458Q276 476 305 486.5Q334 497 369 497Q416 497 452.5 479Q489 461 514.5 428.5Q540 396 553 350.5Q566 305 566 251V250Q566 186 550.5 137.5Q535 89 508 56Q481 23 443.5 6Q406 -11 362 -11Q296 -11 255.5 20.5Q215 52 200 106V-62H266V-146H21V-62H74V379H21ZM325 77Q377 77 407 115Q437 153 437 238V271Q437 333 408.5 368.5Q380 404 325 404Q299 404 276.5 394.5Q254 385 237 367Q220 349 210 323Q200 297 200 263V244Q200 199 210 167.5Q220 136 237 116Q254 96 276.5 86.5Q299 77 325 77Z" glyph-name="p" horiz-adv-x="593" unicode="p" /><glyph d="M215 -98V280H211Q122 280 75 327Q28 374 28 462Q28 545 73.5 592Q119 639 203 639H508V542H450V-98H357V542H308V-98Z" glyph-name="paragraph" horiz-adv-x="533" unicode="&#182;" /><glyph d="M158 266Q158 204 169 151Q180 98 198 53Q216 8 240.5 -28.5Q265 -65 292 -93V-98H192Q173 -81 146.5 -49Q120 -17 96 29.5Q72 76 55 137.5Q38 199 38 275V308Q38 380 55 439.5Q72 499 96 545.5Q120 592 146.5 624Q173 656 192 673H292V668Q265 641 240.5 603Q216 565 198 519.5Q180 474 169 422.5Q158 371 158 317Z" glyph-name="parenleft" horiz-adv-x="308" unicode="(" /><glyph d="M150 309Q150 370 139 423.5Q128 477 110 522Q92 567 67.5 603.5Q43 640 16 668V673H116Q135 656 161.5 624Q188 592 212 545.5Q236 499 253 437.5Q270 376 270 300V267Q270 195 253 135.5Q236 76 212 29.5Q188 -17 161.5 -49Q135 -81 116 -98H16V-93Q43 -66 67.5 -28Q92 10 110 55.5Q128 101 139 152.5Q150 204 150 258Z" glyph-name="parenright" horiz-adv-x="308" unicode=")" /><glyph d="M126 472Q126 424 140.5 406Q155 388 178 388Q204 388 218 406Q232 424 232 472V508Q232 547 218.5 564Q205 581 178 581Q152 581 139 564Q126 547 126 508ZM665 152Q665 111 653 80Q641 49 620.5 28.5Q600 8 572 -2.5Q544 -13 512 -13Q481 -13 453 -2.5Q425 8 404 28.5Q383 49 371 80Q359 111 359 152V160Q359 197 370.5 226.5Q382 256 402.5 276.5Q423 297 451 308Q479 319 512 319Q579 319 622 277Q665 235 665 160ZM459 138Q459 90 473.5 72.5Q488 55 512 55Q537 55 551 72.5Q565 90 565 138V174Q565 213 551.5 230Q538 247 512 247Q486 247 472.5 230Q459 213 459 174ZM178 321Q147 321 119.5 331.5Q92 342 71 362.5Q50 383 38 413.5Q26 444 26 485V493Q26 530 37.5 560Q49 590 69.5 610.5Q90 631 117.5 642Q145 653 178 653Q212 653 240 642Q268 631 288.5 610.5Q309 590 320.5 560Q332 530 332 493V485Q332 444 320 413.5Q308 383 287 362.5Q266 342 238 331.5Q210 321 178 321ZM166 0H87L527 639H606Z" glyph-name="percent" horiz-adv-x="691" unicode="%" /><glyph d="M124 -9Q92 -9 69 14Q46 37 46 69Q46 102 69 125.5Q92 149 124 149Q156 149 179 125.5Q202 102 202 69Q202 53 196 39Q190 25 179.5 14.5Q169 4 154.5 -2.5Q140 -9 124 -9Z" glyph-name="period" horiz-adv-x="248" unicode="." /><glyph d="M124 241Q92 241 69 264Q46 287 46 319Q46 352 69 375.5Q92 399 124 399Q156 399 179 375.5Q202 352 202 319Q202 303 196 289Q190 275 179.5 264.5Q169 254 154.5 247.5Q140 241 124 241Z" glyph-name="periodcentered" horiz-adv-x="248" unicode="&#183;" /><glyph d="M850 -13Q819 -13 791 -2.5Q763 8 742 28.5Q721 49 709 79.5Q697 110 697 151V159Q697 196 708.5 226Q720 256 740.5 276.5Q761 297 789 308Q817 319 850 319Q883 319 911.5 308Q940 297 960 276.5Q980 256 991.5 226Q1003 196 1003 159V151Q1003 110 991 79.5Q979 49 958.5 28.5Q938 8 910 -2.5Q882 -13 850 -13ZM850 54Q875 54 889 72Q903 90 903 138V174Q903 213 889.5 230Q876 247 850 247Q824 247 810.5 230Q797 213 797 174V138Q797 90 811.5 72Q826 54 850 54ZM527 639H606L166 0H87ZM512 54Q537 54 551 72Q565 90 565 138V174Q565 213 551.5 230Q538 247 512 247Q486 247 472.5 230Q459 213 459 174V138Q459 90 473.5 72Q488 54 512 54ZM178 320Q147 320 119.5 330.5Q92 341 71 361.5Q50 382 38 413Q26 444 26 485V493Q26 530 37.5 560Q49 590 69.5 610.5Q90 631 117.5 642Q145 653 178 653Q212 653 240 642Q268 631 288.5 610.5Q309 590 320.5 560Q332 530 332 493V485Q332 444 320 413Q308 382 287 361.5Q266 341 238 330.5Q210 320 178 320ZM512 -13Q481 -13 453 -2.5Q425 8 404 28.5Q383 49 371 79.5Q359 110 359 151V159Q359 196 370.5 226Q382 256 402.5 276.5Q423 297 451 308Q479 319 512 319Q545 319 573.5 308Q602 297 622 276.5Q642 256 653.5 226Q665 196 665 159V151Q665 110 653 79.5Q641 49 620.5 28.5Q600 8 572 -2.5Q544 -13 512 -13ZM178 388Q204 388 218 406Q232 424 232 472V508Q232 546 218.5 563.5Q205 581 178 581Q152 581 139 563.5Q126 546 126 508V472Q126 424 140.5 406Q155 388 178 388Z" glyph-name="perthousand" horiz-adv-x="1029" unicode="&#8240;" /><glyph d="M286 365H427V265H286V114H183V265H42V365H183V515H286Z" glyph-name="plus" horiz-adv-x="469" unicode="+" /><glyph d="M286 392H427V292H286V160H183V292H42V392H183V523H286ZM42 99H427V0H42Z" glyph-name="plusminus" horiz-adv-x="476" unicode="&#177;" /><glyph d="M326 -62H393V110Q378 58 337 23Q296 -12 226 -12Q179 -12 142 7Q105 26 79.5 60.5Q54 95 40.5 143Q27 191 27 248V249Q27 310 43 356Q59 402 86.5 433Q114 464 151 480Q188 496 231 496Q300 496 339.5 465Q379 434 400 378Q402 399 406 418.5Q410 438 415 453Q420 471 427 485H572V379H519V-62H572V-146H326ZM268 78Q293 78 316 88.5Q339 99 356 119Q373 139 383 167.5Q393 196 393 232V250Q393 291 383 320.5Q373 350 356 368.5Q339 387 316 396Q293 405 268 405Q217 405 186 371.5Q155 338 155 266V232Q155 161 184 119.5Q213 78 268 78Z" glyph-name="q" horiz-adv-x="593" unicode="q" /><glyph d="M257 491Q257 533 236 554.5Q215 576 168 576Q145 576 124 573V490H24V609Q46 632 88 649.5Q130 667 194 667Q233 667 267.5 657Q302 647 328 626.5Q354 606 369.5 574.5Q385 543 385 500Q385 458 372 428.5Q359 399 340 377.5Q321 356 298 339.5Q275 323 256 305.5Q237 288 224 268Q211 248 211 219V195H115V242Q115 293 137 325Q159 357 186 382Q213 407 235 431.5Q257 456 257 491ZM248 67Q248 52 242 38Q236 24 225.5 13.5Q215 3 200.5 -3Q186 -9 170 -9Q139 -9 116 13.5Q93 36 93 67Q93 99 116 122Q139 145 170 145Q186 145 200.5 138.5Q215 132 225.5 121.5Q236 111 242 97Q248 83 248 67Z" glyph-name="question" horiz-adv-x="410" unicode="?" /><glyph d="M153 54Q153 12 174 -9.5Q195 -31 242 -31Q263 -31 286 -28V55H386V-64Q364 -87 322 -104.5Q280 -122 216 -122Q177 -122 142.5 -112Q108 -102 82 -81.5Q56 -61 40.5 -29.5Q25 2 25 45Q25 87 38 116.5Q51 146 70 167.5Q89 189 112 205.5Q135 222 154 239.5Q173 257 186 277Q199 297 199 326V350H295V303Q295 252 273 220Q251 188 224 163Q197 138 175 113.5Q153 89 153 54ZM162 478Q162 493 168 507Q174 521 184.5 531.5Q195 542 209.5 548Q224 554 240 554Q271 554 294 531.5Q317 509 317 478Q317 446 294 423Q271 400 240 400Q224 400 209.5 406.5Q195 413 184.5 423.5Q174 434 168 448Q162 462 162 478Z" glyph-name="questiondown" horiz-adv-x="410" unicode="&#191;" /><glyph d="M52 423 34 639H155L138 423ZM213 423 195 639H316L298 423Z" glyph-name="quotedbl" horiz-adv-x="350" unicode="&quot;" /><glyph d="M25 -81Q56 2 56 85Q56 99 55 111.5Q54 124 51 135H171Q172 128 172.5 120Q173 112 173 103Q173 47 156 4Q139 -39 105 -81ZM196 -81Q227 2 227 85Q227 110 222 135H341Q344 121 344 103Q344 47 327 4Q310 -39 277 -81Z" glyph-name="quotedblbase" horiz-adv-x="384" unicode="&#8222;" /><glyph d="M43 423Q40 438 40 455Q40 512 57 554.5Q74 597 108 639H188Q173 597 165 555.5Q157 514 157 473Q157 448 162 423ZM214 423Q211 438 211 455Q211 512 228 554.5Q245 597 279 639H359Q328 556 328 473Q328 448 333 423Z" glyph-name="quotedblleft" horiz-adv-x="384" unicode="&#8220;" /><glyph d="M25 423Q56 506 56 589Q56 602 55 615Q54 628 51 639H171Q172 631 172.5 623.5Q173 616 173 607Q173 550 156 507.5Q139 465 105 423ZM196 423Q227 506 227 589Q227 614 222 639H341Q344 624 344 607Q344 550 327 507.5Q310 465 277 423Z" glyph-name="quotedblright" horiz-adv-x="384" unicode="&#8221;" /><glyph d="M43 423Q40 438 40 455Q40 512 57 554.5Q74 597 108 639H188Q173 597 165 555.5Q157 514 157 473Q157 448 162 423Z" glyph-name="quoteleft" horiz-adv-x="214" unicode="&#8216;" /><glyph d="M25 423Q56 506 56 589Q56 602 55 615Q54 628 51 639H171Q172 631 172.5 623.5Q173 616 173 607Q173 550 156 507.5Q139 465 106 423Z" glyph-name="quoteright" horiz-adv-x="214" unicode="&#8217;" /><glyph d="M22 -81Q53 2 53 85Q53 110 48 135H168Q169 128 169.5 120Q170 112 170 103Q170 47 153 4Q136 -39 102 -81Z" glyph-name="quotesinglbase" horiz-adv-x="208" unicode="&#8218;" /><glyph d="M52 423 34 639H160L142 423Z" glyph-name="quotesingle" horiz-adv-x="194" unicode="&apos;" /><glyph d="M21 485H174Q181 468 186 448Q191 431 194.5 408Q198 385 198 359V332Q206 378 220 408.5Q234 439 252 457.5Q270 476 290.5 484Q311 492 331 492Q351 492 361.5 485.5Q372 479 377 469V370Q334 371 301 363.5Q268 356 245.5 336.5Q223 317 211.5 283.5Q200 250 200 199V90H278V0H21V90H74V379H21Z" glyph-name="r" horiz-adv-x="401" unicode="r" /><glyph d="M185 334Q151 334 122 346.5Q93 359 71.5 380.5Q50 402 38 430.5Q26 459 26 491Q26 523 38 551.5Q50 580 71.5 601.5Q93 623 122 635.5Q151 648 185 648Q219 648 248 635.5Q277 623 298 601.5Q319 580 331 551.5Q343 523 343 491Q343 459 331 430.5Q319 402 298 380.5Q277 359 248 346.5Q219 334 185 334ZM185 367Q212 367 234.5 376.5Q257 386 272.5 403Q288 420 297 442.5Q306 465 306 491Q306 517 297 539.5Q288 562 272.5 579Q257 596 234.5 606Q212 616 185 616Q158 616 135.5 606Q113 596 96.5 579Q80 562 71 539.5Q62 517 62 491Q62 465 71 442.5Q80 420 96.5 403Q113 386 135.5 376.5Q158 367 185 367ZM170 477V418H126V572H190Q219 572 235.5 560Q252 548 252 525Q252 487 216 480L260 418H210ZM184 500Q198 500 203 505Q208 510 208 521Q208 541 186 541H170V500Z" glyph-name="registered" horiz-adv-x="369" unicode="&#174;" /><glyph d="M198 589Q217 589 230 601.5Q243 614 243 636Q243 657 230 670.5Q217 684 198 684Q181 684 168 670.5Q155 657 155 636Q155 614 168 601.5Q181 589 198 589ZM198 536Q177 536 158.5 544Q140 552 126.5 565.5Q113 579 105.5 597Q98 615 98 636Q98 657 105.5 675Q113 693 126.5 707Q140 721 158.5 729Q177 737 198 737Q219 737 238 729Q257 721 270.5 707Q284 693 292 675Q300 657 300 636Q300 615 292 597Q284 579 270.5 565.5Q257 552 238 544Q219 536 198 536Z" glyph-name="ring" horiz-adv-x="397" unicode="&#730;" /><glyph d="M198 714Q217 714 229.5 726.5Q242 739 242 760Q242 781 229.5 794.5Q217 808 198 808Q181 808 168 794.5Q155 781 155 760Q155 739 168 726.5Q181 714 198 714ZM198 661Q177 661 158.5 668.5Q140 676 126.5 689.5Q113 703 105.5 721Q98 739 98 760Q98 781 105.5 799.5Q113 818 126.5 831.5Q140 845 158.5 853Q177 861 198 861Q219 861 238 853Q257 845 270.5 831.5Q284 818 292 799.5Q300 781 300 760Q300 739 292 721Q284 703 270.5 689.5Q257 676 238 668.5Q219 661 198 661Z" glyph-name="ring.uc" horiz-adv-x="397" /><glyph d="M278 412Q264 414 250.5 415Q237 416 223 416Q182 416 159 402Q136 388 136 356Q136 324 167 311Q185 304 208 301Q231 298 254.5 294Q278 290 300.5 284.5Q323 279 341 268Q372 249 387.5 221.5Q403 194 403 149Q403 109 388.5 78.5Q374 48 348 28Q322 8 285.5 -2.5Q249 -13 205 -13Q140 -13 95.5 2Q51 17 25 39V141H128V77Q157 70 197 70Q245 70 267.5 84.5Q290 99 290 133Q290 165 261 178Q248 184 228 187.5Q208 191 185.5 195Q163 199 140 204.5Q117 210 98 219Q63 237 47 267Q31 297 31 341Q31 383 46 413Q61 443 87 461.5Q113 480 147.5 488.5Q182 497 221 497Q275 497 316.5 485Q358 473 379 456V352H278Z" glyph-name="s" horiz-adv-x="428" unicode="s" /><glyph d="M146 677 215 612 284 677H367L280 539H150L63 677ZM278 412Q264 414 250.5 415Q237 416 223 416Q182 416 159 402Q136 388 136 356Q136 324 167 311Q185 304 208 301Q231 298 254.5 294Q278 290 300.5 284.5Q323 279 341 268Q372 249 387.5 221.5Q403 194 403 149Q403 109 388.5 78.5Q374 48 348 28Q322 8 285.5 -2.5Q249 -13 205 -13Q140 -13 95.5 2Q51 17 25 39V141H128V77Q157 70 197 70Q245 70 267.5 84.5Q290 99 290 133Q290 165 261 178Q248 184 228 187.5Q208 191 185.5 195Q163 199 140 204.5Q117 210 98 219Q63 237 47 267Q31 297 31 341Q31 383 46 413Q61 443 87 461.5Q113 480 147.5 488.5Q182 497 221 497Q275 497 316.5 485Q358 473 379 456V352H278Z" glyph-name="scaron" horiz-adv-x="428" unicode="&#353;" /><glyph d="M420 508H320V564Q308 566 295.5 567Q283 568 270 568Q232 568 207.5 555Q183 542 183 512Q183 497 190 486Q197 475 214 468Q233 461 258.5 455.5Q284 450 311.5 444Q339 438 367.5 430.5Q396 423 421 411Q450 396 466.5 371Q483 346 483 311Q483 261 453.5 230.5Q424 200 373 191Q403 175 422 149Q441 123 441 78Q441 39 427.5 10Q414 -19 389 -38.5Q364 -58 330 -68Q296 -78 254 -78Q187 -78 142.5 -63.5Q98 -49 71 -26V74H172V13Q186 10 202.5 9Q219 8 237 8Q285 8 304 22.5Q323 37 323 67Q323 95 290 109Q277 114 253 118.5Q229 123 201 129Q173 135 144.5 143Q116 151 94 163Q29 197 29 268Q29 321 60.5 347.5Q92 374 142 384Q110 400 92.5 427.5Q75 455 75 500Q75 538 89 566.5Q103 595 128 614Q153 633 187 642.5Q221 652 261 652Q318 652 358 639.5Q398 627 420 607ZM309 224Q335 224 355 238Q375 252 375 278Q375 298 365 309Q355 320 333 326Q319 330 301 335Q283 340 264 344Q245 348 227.5 350.5Q210 353 197 353Q170 353 149.5 338.5Q129 324 129 299Q129 282 137 271.5Q145 261 165 253Q177 248 194.5 242.5Q212 237 232 233Q252 229 272 226.5Q292 224 309 224Z" glyph-name="section" horiz-adv-x="513" unicode="&#167;" /><glyph d="M33 -90Q70 2 70 88Q70 102 69 115.5Q68 129 65 142H192Q195 125 195 108Q195 47 175.5 1Q156 -45 117 -90ZM131 297Q99 297 76 320Q53 343 53 375Q53 408 76 431.5Q99 455 131 455Q163 455 186 431.5Q209 408 209 375Q209 359 203 345Q197 331 186.5 320.5Q176 310 161.5 303.5Q147 297 131 297Z" glyph-name="semicolon" horiz-adv-x="256" unicode=";" /><glyph d="M18 447V639H460V501L244 0H111L344 535H125V447Z" glyph-name="seven" horiz-adv-x="488" unicode="7" /><glyph d="M475 631Q424 606 375.5 574Q327 542 287.5 504.5Q248 467 218.5 424Q189 381 175 333Q194 367 231 391Q268 415 325 415Q374 415 413 400Q452 385 479 358Q506 331 520.5 293.5Q535 256 535 211V206Q535 155 518 114.5Q501 74 469 45Q437 16 391.5 0.5Q346 -15 289 -15Q232 -15 185 2.5Q138 20 104 52.5Q70 85 51 132Q32 179 32 238V257Q32 308 45 353Q58 398 79.5 436Q101 474 129 506.5Q157 539 186 564Q215 589 243 608Q271 627 293 639H475ZM286 331Q229 331 197 301Q165 271 165 219V198Q165 142 196.5 108Q228 74 288 74Q347 74 374.5 107.5Q402 141 402 196V212Q402 237 395.5 259Q389 281 375.5 297Q362 313 339.5 322Q317 331 286 331Z" glyph-name="six" horiz-adv-x="564" unicode="6" /><glyph d="M103 -98H-1L227 673H331Z" glyph-name="slash" horiz-adv-x="347" unicode="/" /><glyph glyph-name="space" horiz-adv-x="175" unicode=" " /><glyph d="M126 -177Q137 -154 142 -132.5Q147 -111 147 -91Q147 -77 145.5 -66.5Q144 -56 142 -46H251Q255 -57 255 -72Q255 -101 242.5 -129Q230 -157 202 -177Z" glyph-name="space_uni0326" horiz-adv-x="400" /><glyph d="M38 359H91V441Q91 490 106.5 529.5Q122 569 149.5 596.5Q177 624 216.5 638.5Q256 653 304 653Q370 653 412 635Q454 617 474 590V465H370V550Q358 552 345.5 553.5Q333 555 319 555Q268 555 242 526Q216 497 216 432V359H375V275H216V273Q216 205 185 165.5Q154 126 99 102V101H370V167H477V0H25V139Q59 158 75 184Q91 210 91 260V275H38Z" glyph-name="sterling" horiz-adv-x="510" unicode="&#163;" /><glyph d="M243 -13Q214 -13 185.5 -6Q157 1 135 18.5Q113 36 99.5 65.5Q86 95 86 139V394H21V466Q52 468 71.5 477.5Q91 487 103 505.5Q115 524 122.5 552Q130 580 137 619H213V485H358V394H213V163Q213 116 232.5 98.5Q252 81 291 81Q311 81 327.5 85Q344 89 361 95V33Q349 16 321 1.5Q293 -13 243 -13Z" glyph-name="t" horiz-adv-x="388" unicode="t" /><glyph d="M353 -11Q287 -11 246.5 21Q206 53 191 106V-62H257V-146H12V-62H65V576H12V673H191V372Q198 396 212 419Q226 442 247.5 459Q269 476 297 486.5Q325 497 360 497Q407 497 443.5 479Q480 461 505.5 428.5Q531 396 544 350.5Q557 305 557 251V250Q557 186 541.5 137.5Q526 89 499 56Q472 23 434.5 6Q397 -11 353 -11ZM316 76Q367 76 397.5 116Q428 156 428 237V270Q428 333 399 368.5Q370 404 316 404Q264 404 227.5 367Q191 330 191 262V243Q191 199 201 167.5Q211 136 228 116Q245 96 267.5 86Q290 76 316 76Z" glyph-name="thorn" horiz-adv-x="584" unicode="&#254;" /><glyph d="M232 653Q277 653 316.5 641.5Q356 630 385 608.5Q414 587 430.5 555Q447 523 447 482Q447 419 409 379.5Q371 340 293 331V328Q378 320 424 281Q470 242 470 169Q470 83 405 36.5Q340 -10 229 -10Q146 -10 97 13Q48 36 23 64V151Q55 124 100 107Q145 90 213 90Q273 90 304.5 115Q336 140 336 188Q336 236 306 260Q276 284 207 284H131V373H206Q265 373 291 395.5Q317 418 317 460Q317 546 204 546Q149 546 112 532Q75 518 45 498V583Q70 611 115.5 632Q161 653 232 653Z" glyph-name="three" horiz-adv-x="500" unicode="3" /><glyph d="M702 382V170H748V108H702V63H748V0H564V63H609V108H436V185L585 382ZM153 653Q181 653 206 647Q231 641 250 628Q269 615 279.5 596Q290 577 290 551Q290 514 265 489.5Q240 465 188 460V458Q303 449 303 363Q303 310 261 283.5Q219 257 147 257Q95 257 65 271Q35 285 19 302V362Q39 347 65.5 337.5Q92 328 133 328Q165 328 183 340.5Q201 353 201 379Q201 428 130 428H88V489H129Q162 489 176.5 501Q191 513 191 533Q191 576 127 576Q94 576 72.5 569Q51 562 34 551V609Q49 627 78.5 640Q108 653 153 653ZM198 0H115L604 639H687ZM501 170H609V312Z" glyph-name="threequarters" horiz-adv-x="768" unicode="&#190;" /><glyph d="M65 551Q58 575 58.5 598Q59 621 68 639.5Q77 658 94 669.5Q111 681 138 681Q159 681 176 675.5Q193 670 207 664Q221 658 232.5 652.5Q244 647 255 647Q269 647 273.5 656Q278 665 280 685H334Q340 661 340 638Q340 615 331.5 596.5Q323 578 306.5 566.5Q290 555 265 555Q246 555 229.5 560.5Q213 566 198 572Q183 578 170 583.5Q157 589 145 589Q131 589 125.5 580Q120 571 118 551Z" glyph-name="tilde" horiz-adv-x="400" unicode="&#732;" /><glyph d="M59 681Q52 705 53.5 728Q55 751 64 769.5Q73 788 90.5 799Q108 810 133 810Q155 810 173.5 804.5Q192 799 207.5 793Q223 787 236 781.5Q249 776 260 776Q275 776 279.5 785Q284 794 286 814H340Q347 790 346 767Q345 744 336 725.5Q327 707 310 696Q293 685 269 685Q249 685 231 690Q213 695 197 701.5Q181 708 166.5 713Q152 718 139 718Q125 718 120 709.5Q115 701 113 681Z" glyph-name="tilde.uc" horiz-adv-x="400" /><glyph d="M268 639H389L426 501L463 639H594V589H572V453H594V406H485V453H504V589H503L454 406H395L345 587V453H365V406H268V453H290V589H268ZM196 585H170V453H197V406H76V453H102V585H76V549H24V639H249V549H196Z" glyph-name="trademark" horiz-adv-x="616" unicode="&#8482;" /><glyph d="M26 132Q100 178 154.5 218.5Q209 259 245 296.5Q281 334 298.5 370Q316 406 316 444Q316 473 307.5 492.5Q299 512 284 524Q269 536 248.5 541Q228 546 204 546Q153 546 110.5 529.5Q68 513 37 491V577Q50 591 68 605Q86 619 109.5 629.5Q133 640 163 646.5Q193 653 230 653Q275 653 315 642Q355 631 385 606.5Q415 582 432 543Q449 504 449 447Q449 395 425.5 348Q402 301 358 257.5Q314 214 250 174Q186 134 104 96V95H354V164H458V0H26Z" glyph-name="two" horiz-adv-x="490" unicode="2" /><glyph d="M321 485H518V90H571V0H418Q411 17 406 35Q401 51 398 71Q395 91 395 113V119Q380 57 336.5 22.5Q293 -12 233 -12Q156 -12 113.5 32Q71 76 71 172V379H21V485H197V174Q197 123 216.5 100.5Q236 78 278 78Q329 78 360.5 115.5Q392 153 392 222V379H321Z" glyph-name="u" horiz-adv-x="592" unicode="u" /><glyph d="M288 681H441L314 539H237ZM321 485H518V90H571V0H418Q411 17 406 35Q401 51 398 71Q395 91 395 113V119Q380 57 336.5 22.5Q293 -12 233 -12Q156 -12 113.5 32Q71 76 71 172V379H21V485H197V174Q197 123 216.5 100.5Q236 78 278 78Q329 78 360.5 115.5Q392 153 392 222V379H321Z" glyph-name="uacute" horiz-adv-x="592" unicode="&#250;" /><glyph d="M222 677H352L439 539H356L287 604L218 539H135ZM321 485H518V90H571V0H418Q411 17 406 35Q401 51 398 71Q395 91 395 113V119Q380 57 336.5 22.5Q293 -12 233 -12Q156 -12 113.5 32Q71 76 71 172V379H21V485H197V174Q197 123 216.5 100.5Q236 78 278 78Q329 78 360.5 115.5Q392 153 392 222V379H321Z" glyph-name="ucircumflex" horiz-adv-x="592" unicode="&#251;" /><glyph d="M192 538Q163 538 143 557.5Q123 577 123 605Q123 632 143 651.5Q163 671 192 671Q219 671 239.5 651.5Q260 632 260 605Q260 577 239.5 557.5Q219 538 192 538ZM381 538Q353 538 333 557.5Q313 577 313 605Q313 632 333 651.5Q353 671 381 671Q409 671 429 651.5Q449 632 449 605Q449 577 429 557.5Q409 538 381 538ZM321 485H518V90H571V0H418Q411 17 406 35Q401 51 398 71Q395 91 395 113V119Q380 57 336.5 22.5Q293 -12 233 -12Q156 -12 113.5 32Q71 76 71 172V379H21V485H197V174Q197 123 216.5 100.5Q236 78 278 78Q329 78 360.5 115.5Q392 153 392 222V379H321Z" glyph-name="udieresis" horiz-adv-x="592" unicode="&#252;" /><glyph d="M321 485H518V90H571V0H418Q411 17 406 35Q401 51 398 71Q395 91 395 113V119Q380 57 336.5 22.5Q293 -12 233 -12Q156 -12 113.5 32Q71 76 71 172V379H21V485H197V174Q197 123 216.5 100.5Q236 78 278 78Q329 78 360.5 115.5Q392 153 392 222V379H321ZM135 681H289L338 539H259Z" glyph-name="ugrave" horiz-adv-x="592" unicode="&#249;" /><glyph d="M-8 -59H375V-139H-8Z" glyph-name="underscore" horiz-adv-x="367" unicode="_" /><glyph glyph-name="uni00A0" horiz-adv-x="175" unicode="&#160;" /><glyph d="M325 485H547V379H499L362 0H205L63 379H16V485H258V379H194L297 84L392 379H325Z" glyph-name="v" horiz-adv-x="563" unicode="v" /><glyph d="M391 349 312 0H153L60 379H16V485H249V383H182L247 87L337 485H461L558 87L618 383H548V485H759V379H715L627 0H471Z" glyph-name="w" horiz-adv-x="775" unicode="w" /><glyph d="M286 83H355L257 199L157 83H233V0H21V90H59L187 238L72 379H21V485H266V386H214L298 280L379 386H321V485H533V379H476L367 241L495 90H533V0H286Z" glyph-name="x" horiz-adv-x="554" unicode="x" /><glyph d="M323 485H544V379H495L355 1Q341 -40 324 -69.5Q307 -99 286 -118.5Q265 -138 237.5 -147Q210 -156 175 -156Q130 -156 105.5 -145.5Q81 -135 65 -120V-48Q84 -54 104 -58Q124 -62 152 -62Q193 -62 215.5 -47Q238 -32 249 -6L255 11H206L65 379H16V485H258V379H192L294 95L390 379H323Z" glyph-name="y" horiz-adv-x="560" unicode="y" /><glyph d="M323 485H544V379H495L355 1Q341 -40 324 -69.5Q307 -99 286 -118.5Q265 -138 237.5 -147Q210 -156 175 -156Q130 -156 105.5 -145.5Q81 -135 65 -120V-48Q84 -54 104 -58Q124 -62 152 -62Q193 -62 215.5 -47Q238 -32 249 -6L255 11H206L65 379H16V485H258V379H192L294 95L390 379H323ZM292 681H445L318 539H241Z" glyph-name="yacute" horiz-adv-x="560" unicode="&#253;" /><glyph d="M323 485H544V379H495L355 1Q341 -40 324 -69.5Q307 -99 286 -118.5Q265 -138 237.5 -147Q210 -156 175 -156Q130 -156 105.5 -145.5Q81 -135 65 -120V-48Q84 -54 104 -58Q124 -62 152 -62Q193 -62 215.5 -47Q238 -32 249 -6L255 11H206L65 379H16V485H258V379H192L294 95L390 379H323ZM197 538Q168 538 148 557.5Q128 577 128 605Q128 632 148 651.5Q168 671 197 671Q224 671 244.5 651.5Q265 632 265 605Q265 577 244.5 557.5Q224 538 197 538ZM386 538Q358 538 338 557.5Q318 577 318 605Q318 632 338 651.5Q358 671 386 671Q414 671 434 651.5Q454 632 454 605Q454 577 434 557.5Q414 538 386 538Z" glyph-name="ydieresis" horiz-adv-x="560" unicode="&#255;" /><glyph d="M490 267H339V215H490V151H339V90H414V0H138V90H213V151H62V215H213V267H62V331H186L60 545H20V639H256V545H194L286 377L377 545H314V639H532V545H492L365 331H490Z" glyph-name="yen" horiz-adv-x="552" unicode="&#165;" /><glyph d="M37 485H440V368L133 79H342V164H444V0H24V117L325 401H137V333H37Z" glyph-name="z" horiz-adv-x="470" unicode="z" /><glyph d="M173 677 242 612 311 677H394L307 539H177L90 677ZM37 485H440V368L133 79H342V164H444V0H24V117L325 401H137V333H37Z" glyph-name="zcaron" horiz-adv-x="470" unicode="&#382;" /><glyph d="M305 -15Q250 -15 200.5 4.5Q151 24 113.5 64Q76 104 54 165.5Q32 227 32 311V338Q32 415 52 474Q72 533 108 572.5Q144 612 194.5 632.5Q245 653 305 653Q365 653 415 632.5Q465 612 501 572.5Q537 533 557 474Q577 415 577 338V311Q577 227 555.5 165.5Q534 104 496.5 64Q459 24 409.5 4.5Q360 -15 305 -15ZM305 83Q335 83 360.5 93.5Q386 104 404.5 128Q423 152 433.5 190.5Q444 229 444 285V373Q444 462 408 506Q372 550 305 550Q238 550 201.5 506Q165 462 165 373V285Q165 229 175.5 190.5Q186 152 204.5 128Q223 104 248.5 93.5Q274 83 305 83Z" glyph-name="zero" horiz-adv-x="609" unicode="0" /></font>
</defs>
</svg>
