<?xml version="1.0" standalone="no"?><!DOCTYPE svg PUBLIC "-//W3C//DTD SVG 1.1//EN" "http://www.w3.org/Graphics/SVG/1.1/DTD/svg11.dtd" ><svg version="1.1" xmlns="http://www.w3.org/2000/svg"><defs><font horiz-adv-x="0" id="font"><font-face ascent="854" bbox="-196 -173 894 829" cap-height="639" descent="-146" font-family="FC Zizou Slab Web" font-stretch="normal" font-style="normal" font-weight="400" units-per-em="1000" x-height="475" /><missing-glyph horiz-adv-x="500" /><glyph glyph-name=".null" horiz-adv-x="0" /><glyph d="M21 45H72L273 639H369L570 45H621V0H412V45H508L453 210H185L130 45H225V0H21ZM202 262H436L319 613Z" glyph-name="A" horiz-adv-x="642" unicode="A" /><glyph d="M752 586H487V348H739V297H487V50H762V161H815V0H360V45H427V210H198L126 45H223V0H21V45H68L308 591H234V639H805V479H752ZM221 262H427V586H363Z" glyph-name="AE" horiz-adv-x="855" unicode="&#198;" /><glyph d="M21 45H72L273 639H369L570 45H621V0H412V45H508L453 210H185L130 45H225V0H21ZM202 262H436L319 613ZM349 788H435L336 687H291Z" glyph-name="Aacute" horiz-adv-x="642" unicode="&#193;" /><glyph d="M21 45H72L273 639H369L570 45H621V0H412V45H508L453 210H185L130 45H225V0H21ZM202 262H436L319 613ZM400 683 320 746 240 683H193L280 786H360L447 683Z" glyph-name="Acircumflex" horiz-adv-x="642" unicode="&#194;" /><glyph d="M21 45H72L273 639H369L570 45H621V0H412V45H508L453 210H185L130 45H225V0H21ZM202 262H436L319 613ZM239 681Q222 681 210.5 692.5Q199 704 199 721Q199 738 210.5 749.5Q222 761 239 761Q256 761 267.5 749.5Q279 738 279 721Q279 704 267.5 692.5Q256 681 239 681ZM403 681Q386 681 374 692.5Q362 704 362 721Q362 738 374 749.5Q386 761 403 761Q420 761 431.5 749.5Q443 738 443 721Q443 704 431.5 692.5Q420 681 403 681Z" glyph-name="Adieresis" horiz-adv-x="642" unicode="&#196;" /><glyph d="M21 45H72L273 639H369L570 45H621V0H412V45H508L453 210H185L130 45H225V0H21ZM202 262H436L319 613ZM208 788H294L352 687H307Z" glyph-name="Agrave" horiz-adv-x="642" unicode="&#192;" /><glyph d="M21 45H72L273 639H369L570 45H621V0H412V45H508L453 210H185L130 45H225V0H21ZM202 262H436L319 613ZM321 698Q340 698 353.5 711Q367 724 367 747Q367 769 353.5 782.5Q340 796 321 796Q302 796 289 782.5Q276 769 276 747Q276 724 289 711Q302 698 321 698ZM321 666Q286 666 262.5 689.5Q239 713 239 747Q239 781 262.5 805Q286 829 321 829Q356 829 379.5 805Q403 781 403 747Q403 713 379.5 689.5Q356 666 321 666Z" glyph-name="Aring" horiz-adv-x="642" unicode="&#197;" /><glyph d="M21 45H72L273 639H369L570 45H621V0H412V45H508L453 210H185L130 45H225V0H21ZM202 262H436L319 613ZM205 687Q197 724 212 750Q227 776 263 776Q281 776 297 771Q313 766 327.5 760Q342 754 355 749Q368 744 379 744Q393 744 398.5 753Q404 762 404 782H436Q444 745 431 719Q418 693 383 693Q367 693 351 698Q335 703 319.5 709Q304 715 290 720Q276 725 264 725Q237 725 238 687Z" glyph-name="Atilde" horiz-adv-x="642" unicode="&#195;" /><glyph d="M29 639H309Q391 639 442.5 598Q494 557 494 474Q494 410 461 369Q428 328 353 320V318Q433 313 475 275.5Q517 238 517 172Q517 133 506 101Q495 69 470 46.5Q445 24 404.5 12Q364 0 305 0H29V45H97V591H29ZM294 49Q341 49 372 56.5Q403 64 422 79Q441 94 448.5 117Q456 140 456 170Q456 235 416.5 263.5Q377 292 285 292H156V49ZM285 344Q365 344 399.5 375.5Q434 407 434 469Q434 534 398.5 560Q363 586 299 586H156V344Z" glyph-name="B" horiz-adv-x="556" unicode="B" /><glyph d="M470 567Q442 581 407.5 590Q373 599 329 599Q268 599 225 580.5Q182 562 154.5 528.5Q127 495 114 447.5Q101 400 101 343V319Q101 253 115 201Q129 149 157.5 112.5Q186 76 230 56.5Q274 37 333 37Q378 37 414.5 47.5Q451 58 480 74V167H533V59Q522 48 503.5 35.5Q485 23 460 12Q435 1 403 -6Q371 -13 332 -13Q263 -13 209 10.5Q155 34 117.5 77.5Q80 121 60 184Q40 247 40 326V328Q40 400 57.5 459.5Q75 519 111 561.5Q147 604 200.5 627.5Q254 651 326 651Q407 651 454.5 629Q502 607 523 582V479H470Z" glyph-name="C" horiz-adv-x="577" unicode="C" /><glyph d="M470 567Q442 581 407.5 590Q373 599 329 599Q268 599 225 580.5Q182 562 154.5 528.5Q127 495 114 447.5Q101 400 101 343V319Q101 253 115 201Q129 149 157.5 112.5Q186 76 230 56.5Q274 37 333 37Q378 37 414.5 47.5Q451 58 480 74V167H533V59Q522 48 503.5 35.5Q485 23 460 12Q435 1 403 -6Q371 -13 332 -13Q325 -13 318.5 -13Q312 -13 305 -12V-41Q346 -43 365 -61.5Q384 -80 384 -108Q384 -140 362 -156.5Q340 -173 303 -173Q277 -173 261 -166Q245 -159 237 -151V-123Q246 -128 259 -132Q272 -136 291 -136Q333 -136 333 -106Q333 -89 318.5 -79.5Q304 -70 265 -68V-6Q158 14 99 101Q40 188 40 326V328Q40 400 57.5 459.5Q75 519 111 561.5Q147 604 200.5 627.5Q254 651 326 651Q407 651 454.5 629Q502 607 523 582V479H470Z" glyph-name="Ccedilla" horiz-adv-x="577" unicode="&#199;" /><glyph d="M29 639H319Q391 639 442 618Q493 597 525 558Q557 519 572 462.5Q587 406 587 334V332Q587 174 516.5 87Q446 0 295 0H29V45H97V591H29ZM284 49Q351 49 397.5 67Q444 85 472.5 120Q501 155 513.5 206.5Q526 258 526 324V350Q526 405 516.5 448.5Q507 492 483 522.5Q459 553 417 569.5Q375 586 310 586H156V49Z" glyph-name="D" horiz-adv-x="627" unicode="D" /><glyph d="M440 586H156V348H427V297H156V50H450V161H503V0H29V45H97V591H29V639H493V479H440Z" glyph-name="E" horiz-adv-x="543" unicode="E" /><glyph d="M312 788H398L299 687H254ZM440 586H156V348H427V297H156V50H450V161H503V0H29V45H97V591H29V639H493V479H440Z" glyph-name="Eacute" horiz-adv-x="543" unicode="&#201;" /><glyph d="M364 683 284 746 204 683H157L244 786H324L411 683ZM440 586H156V348H427V297H156V50H450V161H503V0H29V45H97V591H29V639H493V479H440Z" glyph-name="Ecircumflex" horiz-adv-x="543" unicode="&#202;" /><glyph d="M440 586H156V348H427V297H156V50H450V161H503V0H29V45H97V591H29V639H493V479H440ZM202 681Q185 681 173.5 692.5Q162 704 162 721Q162 738 173.5 749.5Q185 761 202 761Q219 761 230.5 749.5Q242 738 242 721Q242 704 230.5 692.5Q219 681 202 681ZM366 681Q349 681 337 692.5Q325 704 325 721Q325 738 337 749.5Q349 761 366 761Q383 761 394.5 749.5Q406 738 406 721Q406 704 394.5 692.5Q383 681 366 681Z" glyph-name="Edieresis" horiz-adv-x="543" unicode="&#203;" /><glyph d="M171 788H257L315 687H270ZM440 586H156V348H427V297H156V50H450V161H503V0H29V45H97V591H29V639H493V479H440Z" glyph-name="Egrave" horiz-adv-x="543" unicode="&#200;" /><glyph d="M26 347H97V591H29V639H319Q391 639 442 618Q493 597 525 558Q557 519 572 462.5Q587 406 587 334V332Q587 174 516.5 87Q446 0 295 0H29V45H97V298H26ZM284 49Q351 49 397.5 67Q444 85 472.5 120Q501 155 513.5 206.5Q526 258 526 324V350Q526 405 516.5 448.5Q507 492 483 522.5Q459 553 417 569.5Q375 586 310 586H156V347H350V298H156V49Z" glyph-name="Eth" horiz-adv-x="627" unicode="&#208;" /><glyph d="M350 -13Q239 -13 170.5 54.5Q102 122 91 253H20V295H89V302V355V358H20V401H91Q97 458 117.5 504.5Q138 551 170.5 583.5Q203 616 247 633.5Q291 651 344 651Q407 651 448.5 631.5Q490 612 508 589V479H455V576Q433 587 407 593Q381 599 349 599Q257 599 207.5 546Q158 493 150 401H387V358H149V295H387V253H150Q158 145 210 91.5Q262 38 354 38Q407 38 449.5 57Q492 76 518 105V55Q499 29 454.5 8Q410 -13 350 -13Z" glyph-name="Euro" horiz-adv-x="555" unicode="&#8364;" /><glyph d="M442 586H156V329H441V278H156V45H256V0H29V45H97V591H29V639H495V479H442Z" glyph-name="F" horiz-adv-x="527" unicode="F" /><glyph d="M346 319H548V63Q519 33 467.5 10Q416 -13 343 -13Q275 -13 219 9Q163 31 123.5 73Q84 115 62 177.5Q40 240 40 321V323Q40 401 62 462Q84 523 123 565Q162 607 215.5 629Q269 651 332 651Q407 651 452.5 632.5Q498 614 526 588V479H474V571Q446 584 412.5 591.5Q379 599 336 599Q282 599 239 581.5Q196 564 165 531Q134 498 117.5 450Q101 402 101 341V314Q101 178 164.5 107.5Q228 37 346 37Q388 37 423.5 47Q459 57 488 72V271H346Z" glyph-name="G" horiz-adv-x="600" unicode="G" /><glyph d="M411 45H499V301H156V45H244V0H29V45H97V591H29V639H244V591H156V352H499V591H411V639H626V591H559V45H626V0H411Z" glyph-name="H" horiz-adv-x="655" unicode="H" /><glyph d="M29 639H236V591H163V45H236V0H29V45H103V591H29Z" glyph-name="I" horiz-adv-x="265" unicode="I" /><glyph d="M29 639H236V591H163V45H236V0H29V45H103V591H29ZM162 788H248L149 687H104Z" glyph-name="Iacute" horiz-adv-x="265" unicode="&#205;" /><glyph d="M29 639H236V591H163V45H236V0H29V45H103V591H29ZM213 683 133 746 53 683H6L93 786H173L260 683Z" glyph-name="Icircumflex" horiz-adv-x="265" unicode="&#206;" /><glyph d="M29 639H236V591H163V45H236V0H29V45H103V591H29ZM52 681Q35 681 23.5 692.5Q12 704 12 721Q12 738 23.5 749.5Q35 761 52 761Q69 761 80.5 749.5Q92 738 92 721Q92 704 80.5 692.5Q69 681 52 681ZM216 681Q199 681 187 692.5Q175 704 175 721Q175 738 187 749.5Q199 761 216 761Q233 761 244.5 749.5Q256 738 256 721Q256 704 244.5 692.5Q233 681 216 681Z" glyph-name="Idieresis" horiz-adv-x="265" unicode="&#207;" /><glyph d="M29 639H236V591H163V45H236V0H29V45H103V591H29ZM21 788H107L165 687H120Z" glyph-name="Igrave" horiz-adv-x="265" unicode="&#204;" /><glyph d="M128 639H339V591H274V142Q274 71 238.5 31.5Q203 -8 131 -8Q89 -8 62.5 3Q36 14 22 27V66Q39 57 60.5 49Q82 41 120 41Q214 41 214 150V591H128Z" glyph-name="J" horiz-adv-x="368" unicode="J" /><glyph d="M350 639H548V591H498L228 336L502 45H558V0H347V45H430L158 333L430 591H350ZM29 639H244V591H156V45H244V0H29V45H97V591H29Z" glyph-name="K" horiz-adv-x="583" unicode="K" /><glyph d="M29 639H244V591H156V50H432V166H485V0H29V45H97V591H29Z" glyph-name="L" horiz-adv-x="518" unicode="L" /><glyph d="M29 639H244V591H156V302L367 420V368L156 250V50H432V166H485V0H29V45H97V217L23 176V228L97 269V591H29Z" glyph-name="Lslash" horiz-adv-x="507" unicode="&#321;" /><glyph d="M564 45H651V591L440 0H363L152 591V45H239V0H29V45H97V591H29V639H193L403 44L616 639H778V591H711V45H778V0H564Z" glyph-name="M" horiz-adv-x="807" unicode="M" /><glyph d="M430 639H644V591H576V0H483L155 591H152V45H244V0H29V45H97V591H29V639H194L520 48V591H430Z" glyph-name="N" horiz-adv-x="671" unicode="N" /><glyph d="M226 687Q218 724 233 750Q248 776 284 776Q302 776 318 771Q334 766 348.5 760Q363 754 376 749Q389 744 400 744Q414 744 419.5 753Q425 762 425 782H457Q465 745 452 719Q439 693 404 693Q388 693 372 698Q356 703 340.5 709Q325 715 311 720Q297 725 285 725Q258 725 259 687ZM430 639H644V591H576V0H483L155 591H152V45H244V0H29V45H97V591H29V639H194L520 48V591H430Z" glyph-name="Ntilde" horiz-adv-x="671" unicode="&#209;" /><glyph d="M324 37Q434 37 491 107Q548 177 548 317V350Q548 405 535 451Q522 497 495 530Q468 563 425.5 581Q383 599 324 599Q266 599 224 581Q182 563 154.5 530Q127 497 114 451Q101 405 101 350V317Q101 177 158 107Q215 37 324 37ZM324 -13Q262 -13 209.5 8.5Q157 30 119.5 72.5Q82 115 61 178.5Q40 242 40 326V328Q40 403 58 463Q76 523 112 564.5Q148 606 201 628.5Q254 651 324 651Q394 651 447.5 628.5Q501 606 537 564.5Q573 523 591.5 463Q610 403 610 328V326Q610 242 589 178.5Q568 115 530.5 72.5Q493 30 440 8.5Q387 -13 324 -13Z" glyph-name="O" horiz-adv-x="649" unicode="O" /><glyph d="M740 586H477V348H727V297H477V50H750V161H803V0H334Q182 0 111 87Q40 174 40 332V334Q40 477 109.5 558Q179 639 323 639H793V479H740ZM100 324Q100 258 113 206.5Q126 155 155 120Q184 85 230.5 67Q277 49 344 49H418V586H331Q266 586 221.5 569.5Q177 553 150 522.5Q123 492 111.5 448.5Q100 405 100 350Z" glyph-name="OE" horiz-adv-x="843" unicode="&#338;" /><glyph d="M353 788H439L340 687H295ZM324 37Q434 37 491 107Q548 177 548 317V350Q548 405 535 451Q522 497 495 530Q468 563 425.5 581Q383 599 324 599Q266 599 224 581Q182 563 154.5 530Q127 497 114 451Q101 405 101 350V317Q101 177 158 107Q215 37 324 37ZM324 -13Q262 -13 209.5 8.5Q157 30 119.5 72.5Q82 115 61 178.5Q40 242 40 326V328Q40 403 58 463Q76 523 112 564.5Q148 606 201 628.5Q254 651 324 651Q394 651 447.5 628.5Q501 606 537 564.5Q573 523 591.5 463Q610 403 610 328V326Q610 242 589 178.5Q568 115 530.5 72.5Q493 30 440 8.5Q387 -13 324 -13Z" glyph-name="Oacute" horiz-adv-x="649" unicode="&#211;" /><glyph d="M404 683 324 746 244 683H197L284 786H364L451 683ZM324 37Q434 37 491 107Q548 177 548 317V350Q548 405 535 451Q522 497 495 530Q468 563 425.5 581Q383 599 324 599Q266 599 224 581Q182 563 154.5 530Q127 497 114 451Q101 405 101 350V317Q101 177 158 107Q215 37 324 37ZM324 -13Q262 -13 209.5 8.5Q157 30 119.5 72.5Q82 115 61 178.5Q40 242 40 326V328Q40 403 58 463Q76 523 112 564.5Q148 606 201 628.5Q254 651 324 651Q394 651 447.5 628.5Q501 606 537 564.5Q573 523 591.5 463Q610 403 610 328V326Q610 242 589 178.5Q568 115 530.5 72.5Q493 30 440 8.5Q387 -13 324 -13Z" glyph-name="Ocircumflex" horiz-adv-x="649" unicode="&#212;" /><glyph d="M243 681Q226 681 214.5 692.5Q203 704 203 721Q203 738 214.5 749.5Q226 761 243 761Q260 761 271.5 749.5Q283 738 283 721Q283 704 271.5 692.5Q260 681 243 681ZM407 681Q390 681 378 692.5Q366 704 366 721Q366 738 378 749.5Q390 761 407 761Q424 761 435.5 749.5Q447 738 447 721Q447 704 435.5 692.5Q424 681 407 681ZM324 37Q434 37 491 107Q548 177 548 317V350Q548 405 535 451Q522 497 495 530Q468 563 425.5 581Q383 599 324 599Q266 599 224 581Q182 563 154.5 530Q127 497 114 451Q101 405 101 350V317Q101 177 158 107Q215 37 324 37ZM324 -13Q262 -13 209.5 8.5Q157 30 119.5 72.5Q82 115 61 178.5Q40 242 40 326V328Q40 403 58 463Q76 523 112 564.5Q148 606 201 628.5Q254 651 324 651Q394 651 447.5 628.5Q501 606 537 564.5Q573 523 591.5 463Q610 403 610 328V326Q610 242 589 178.5Q568 115 530.5 72.5Q493 30 440 8.5Q387 -13 324 -13Z" glyph-name="Odieresis" horiz-adv-x="649" unicode="&#214;" /><glyph d="M212 788H298L356 687H311ZM324 37Q434 37 491 107Q548 177 548 317V350Q548 405 535 451Q522 497 495 530Q468 563 425.5 581Q383 599 324 599Q266 599 224 581Q182 563 154.5 530Q127 497 114 451Q101 405 101 350V317Q101 177 158 107Q215 37 324 37ZM324 -13Q262 -13 209.5 8.5Q157 30 119.5 72.5Q82 115 61 178.5Q40 242 40 326V328Q40 403 58 463Q76 523 112 564.5Q148 606 201 628.5Q254 651 324 651Q394 651 447.5 628.5Q501 606 537 564.5Q573 523 591.5 463Q610 403 610 328V326Q610 242 589 178.5Q568 115 530.5 72.5Q493 30 440 8.5Q387 -13 324 -13Z" glyph-name="Ograve" horiz-adv-x="649" unicode="&#210;" /><glyph d="M324 -13Q215 -13 142 49L90 -19H32L110 82Q76 125 58 185.5Q40 246 40 326V328Q40 403 58 463Q76 523 112 564.5Q148 606 201 628.5Q254 651 324 651Q435 651 506 594L554 656H611L538 562Q610 478 610 328V326Q610 242 589.5 178.5Q569 115 531.5 72.5Q494 30 441 8.5Q388 -13 324 -13ZM324 37Q435 37 492 107Q549 177 549 317V350Q549 403 539 446Q529 489 506 521L171 87Q224 37 324 37ZM101 317Q101 191 142 124L475 554Q421 599 324 599Q266 599 224 581Q182 563 154.5 530Q127 497 114 451Q101 405 101 350Z" glyph-name="Oslash" horiz-adv-x="649" unicode="&#216;" /><glyph d="M209 687Q201 724 216 750Q231 776 267 776Q285 776 301 771Q317 766 331.5 760Q346 754 359 749Q372 744 383 744Q397 744 402.5 753Q408 762 408 782H440Q448 745 435 719Q422 693 387 693Q371 693 355 698Q339 703 323.5 709Q308 715 294 720Q280 725 268 725Q241 725 242 687ZM324 37Q434 37 491 107Q548 177 548 317V350Q548 405 535 451Q522 497 495 530Q468 563 425.5 581Q383 599 324 599Q266 599 224 581Q182 563 154.5 530Q127 497 114 451Q101 405 101 350V317Q101 177 158 107Q215 37 324 37ZM324 -13Q262 -13 209.5 8.5Q157 30 119.5 72.5Q82 115 61 178.5Q40 242 40 326V328Q40 403 58 463Q76 523 112 564.5Q148 606 201 628.5Q254 651 324 651Q394 651 447.5 628.5Q501 606 537 564.5Q573 523 591.5 463Q610 403 610 328V326Q610 242 589 178.5Q568 115 530.5 72.5Q493 30 440 8.5Q387 -13 324 -13Z" glyph-name="Otilde" horiz-adv-x="649" unicode="&#213;" /><glyph d="M30 639H312Q406 639 454.5 587.5Q503 536 503 448Q503 354 446.5 306.5Q390 259 290 259H157V45H253V0H29V45H98V591H30ZM283 310Q371 310 407.5 346.5Q444 383 444 449Q444 515 412.5 550.5Q381 586 303 586H157V310Z" glyph-name="P" horiz-adv-x="533" unicode="P" /><glyph d="M327 -13Q264 -13 212 8.5Q160 30 122 72.5Q84 115 63 178.5Q42 242 42 326V328Q42 403 60 463Q78 523 114 564.5Q150 606 203.5 628.5Q257 651 327 651Q397 651 450 628.5Q503 606 539 564.5Q575 523 593.5 463Q612 403 612 328V326Q612 221 580.5 149Q549 77 493 36L552 -43H631V-88H521L447 10Q392 -13 327 -13ZM327 36Q353 36 375 39Q397 42 417 50L305 201H370L463 76Q551 141 551 317V350Q551 405 538 451Q525 497 497.5 530Q470 563 427.5 581Q385 599 327 599Q268 599 226 581Q184 563 156.5 530Q129 497 116 451Q103 405 103 350V317Q103 177 159.5 106.5Q216 36 327 36Z" glyph-name="Q" horiz-adv-x="655" unicode="Q" /><glyph d="M29 639H298Q348 639 385 626Q422 613 446 590Q470 567 482 535Q494 503 494 464Q494 419 480.5 386.5Q467 354 441.5 333Q416 312 380 302Q344 292 300 292H245L470 45H533V0H439L156 310V45H243V0H29V45H97V591H29ZM285 335Q367 335 400.5 367.5Q434 400 434 464Q434 492 426.5 515Q419 538 402 553.5Q385 569 357.5 577.5Q330 586 289 586H156V335Z" glyph-name="R" horiz-adv-x="555" unicode="R" /><glyph d="M373 576Q322 599 257 599Q228 599 201 594Q174 589 153.5 575Q133 561 120.5 537Q108 513 108 474Q108 441 118 417.5Q128 394 157 379Q180 367 209 361.5Q238 356 269 351Q300 346 331 339.5Q362 333 389 318Q422 299 440.5 266.5Q459 234 459 174Q459 125 441.5 90Q424 55 395 32Q366 9 328 -2Q290 -13 248 -13Q206 -13 173 -6.5Q140 0 114 10.5Q88 21 70 32.5Q52 44 40 55V166H93V75Q122 58 155.5 47.5Q189 37 245 37Q276 37 304 44.5Q332 52 354 68Q376 84 389 110Q402 136 402 173Q402 207 393 230.5Q384 254 359 268Q338 280 308.5 286.5Q279 293 247.5 298.5Q216 304 185.5 310Q155 316 132 327Q92 347 71 382.5Q50 418 50 475Q50 520 67 553Q84 586 111.5 608Q139 630 175.5 640.5Q212 651 251 651Q318 651 360.5 635Q403 619 426 598V479H373Z" glyph-name="S" horiz-adv-x="500" unicode="S" /><glyph d="M170 786 250 723 330 786H377L290 683H210L123 786ZM373 576Q322 599 257 599Q228 599 201 594Q174 589 153.5 575Q133 561 120.5 537Q108 513 108 474Q108 441 118 417.5Q128 394 157 379Q180 367 209 361.5Q238 356 269 351Q300 346 331 339.5Q362 333 389 318Q422 299 440.5 266.5Q459 234 459 174Q459 125 441.5 90Q424 55 395 32Q366 9 328 -2Q290 -13 248 -13Q206 -13 173 -6.5Q140 0 114 10.5Q88 21 70 32.5Q52 44 40 55V166H93V75Q122 58 155.5 47.5Q189 37 245 37Q276 37 304 44.5Q332 52 354 68Q376 84 389 110Q402 136 402 173Q402 207 393 230.5Q384 254 359 268Q338 280 308.5 286.5Q279 293 247.5 298.5Q216 304 185.5 310Q155 316 132 327Q92 347 71 382.5Q50 418 50 475Q50 520 67 553Q84 586 111.5 608Q139 630 175.5 640.5Q212 651 251 651Q318 651 360.5 635Q403 619 426 598V479H373Z" glyph-name="Scaron" horiz-adv-x="500" unicode="&#352;" /><glyph d="M484 586H317V45H405V0H169V45H257V586H90V465H35V639H539V465H484Z" glyph-name="T" horiz-adv-x="574" unicode="T" /><glyph d="M30 639H252V591H157V496H321Q412 496 458.5 450.5Q505 405 505 324Q505 237 449.5 195Q394 153 299 153H157V45H252V0H29V45H98V591H30ZM293 203Q374 203 410 233.5Q446 264 446 324Q446 385 415 414Q384 443 312 443H157V203Z" glyph-name="Thorn" horiz-adv-x="535" unicode="&#222;" /><glyph d="M430 639H637V591H575V235Q575 161 555.5 113Q536 65 502.5 37Q469 9 425 -2Q381 -13 332 -13Q284 -13 239.5 -2Q195 9 161.5 37.5Q128 66 108 114Q88 162 88 236V591H27V639H234V591H148V223Q148 168 161.5 132Q175 96 199.5 74.5Q224 53 257.5 44.5Q291 36 332 36Q372 36 406 44.5Q440 53 464.5 74Q489 95 502.5 131Q516 167 516 222V591H430Z" glyph-name="U" horiz-adv-x="664" unicode="U" /><glyph d="M361 788H447L348 687H303ZM430 639H637V591H575V235Q575 161 555.5 113Q536 65 502.5 37Q469 9 425 -2Q381 -13 332 -13Q284 -13 239.5 -2Q195 9 161.5 37.5Q128 66 108 114Q88 162 88 236V591H27V639H234V591H148V223Q148 168 161.5 132Q175 96 199.5 74.5Q224 53 257.5 44.5Q291 36 332 36Q372 36 406 44.5Q440 53 464.5 74Q489 95 502.5 131Q516 167 516 222V591H430Z" glyph-name="Uacute" horiz-adv-x="664" unicode="&#218;" /><glyph d="M412 683 332 746 252 683H205L292 786H372L459 683ZM430 639H637V591H575V235Q575 161 555.5 113Q536 65 502.5 37Q469 9 425 -2Q381 -13 332 -13Q284 -13 239.5 -2Q195 9 161.5 37.5Q128 66 108 114Q88 162 88 236V591H27V639H234V591H148V223Q148 168 161.5 132Q175 96 199.5 74.5Q224 53 257.5 44.5Q291 36 332 36Q372 36 406 44.5Q440 53 464.5 74Q489 95 502.5 131Q516 167 516 222V591H430Z" glyph-name="Ucircumflex" horiz-adv-x="664" unicode="&#219;" /><glyph d="M430 639H637V591H575V235Q575 161 555.5 113Q536 65 502.5 37Q469 9 425 -2Q381 -13 332 -13Q284 -13 239.5 -2Q195 9 161.5 37.5Q128 66 108 114Q88 162 88 236V591H27V639H234V591H148V223Q148 168 161.5 132Q175 96 199.5 74.5Q224 53 257.5 44.5Q291 36 332 36Q372 36 406 44.5Q440 53 464.5 74Q489 95 502.5 131Q516 167 516 222V591H430ZM251 681Q234 681 222.5 692.5Q211 704 211 721Q211 738 222.5 749.5Q234 761 251 761Q268 761 279.5 749.5Q291 738 291 721Q291 704 279.5 692.5Q268 681 251 681ZM415 681Q398 681 386 692.5Q374 704 374 721Q374 738 386 749.5Q398 761 415 761Q432 761 443.5 749.5Q455 738 455 721Q455 704 443.5 692.5Q432 681 415 681Z" glyph-name="Udieresis" horiz-adv-x="664" unicode="&#220;" /><glyph d="M220 788H306L364 687H319ZM430 639H637V591H575V235Q575 161 555.5 113Q536 65 502.5 37Q469 9 425 -2Q381 -13 332 -13Q284 -13 239.5 -2Q195 9 161.5 37.5Q128 66 108 114Q88 162 88 236V591H27V639H234V591H148V223Q148 168 161.5 132Q175 96 199.5 74.5Q224 53 257.5 44.5Q291 36 332 36Q372 36 406 44.5Q440 53 464.5 74Q489 95 502.5 131Q516 167 516 222V591H430Z" glyph-name="Ugrave" horiz-adv-x="664" unicode="&#217;" /><glyph d="M420 639H619V591H569L366 0H272L69 591H20V639H218V591H130L321 28L512 591H420Z" glyph-name="V" horiz-adv-x="639" unicode="V" /><glyph d="M437 564 290 0H198L66 591H20V639H219V591H127L248 35L405 639H474L631 35L752 591H655V639H854V591H809L677 0H585Z" glyph-name="W" horiz-adv-x="874" unicode="W" /><glyph d="M390 45H471L308 300L142 45H231V0H26V45H81L269 333L95 591H42V639H237V591H162L312 367L461 591H381V639H576V591H522L350 334L538 45H592V0H390Z" glyph-name="X" horiz-adv-x="618" unicode="X" /><glyph d="M19 639H220V591H132L292 294L452 591H361V639H560V591H510L319 243V45H408V0H171V45H260V243L69 591H19Z" glyph-name="Y" horiz-adv-x="579" unicode="Y" /><glyph d="M19 639H220V591H132L292 294L452 591H361V639H560V591H510L319 243V45H408V0H171V45H260V243L69 591H19ZM320 788H406L307 687H262Z" glyph-name="Yacute" horiz-adv-x="579" unicode="&#221;" /><glyph d="M19 639H220V591H132L292 294L452 591H361V639H560V591H510L319 243V45H408V0H171V45H260V243L69 591H19ZM210 681Q193 681 181.5 692.5Q170 704 170 721Q170 738 181.5 749.5Q193 761 210 761Q227 761 238.5 749.5Q250 738 250 721Q250 704 238.5 692.5Q227 681 210 681ZM374 681Q357 681 345 692.5Q333 704 333 721Q333 738 345 749.5Q357 761 374 761Q391 761 402.5 749.5Q414 738 414 721Q414 704 402.5 692.5Q391 681 374 681Z" glyph-name="Ydieresis" horiz-adv-x="579" unicode="&#376;" /><glyph d="M58 639H499V565L89 50H447V161H500V0H37V73L445 586H112V479H58Z" glyph-name="Z" horiz-adv-x="540" unicode="Z" /><glyph d="M198 786 278 723 358 786H405L318 683H238L151 786ZM58 639H499V565L89 50H447V161H500V0H37V73L445 586H112V479H58Z" glyph-name="Zcaron" horiz-adv-x="540" unicode="&#381;" /><glyph d="M59 427Q77 447 116.5 466.5Q156 486 220 486Q301 486 344 445.5Q387 405 388 328V96Q388 64 397.5 51Q407 38 431 38Q439 38 444 38.5Q449 39 455 40V6Q453 4 442 0.5Q431 -3 413 -3Q377 -3 355 17.5Q333 38 331 89V106Q318 51 279 20.5Q240 -10 175 -10Q110 -10 70 22.5Q30 55 30 115V116Q30 150 44 173Q58 196 82.5 211Q107 226 140 236Q173 246 210 254Q245 262 268 270Q291 278 305 288Q319 298 325 311.5Q331 325 331 343V345Q331 395 299.5 418.5Q268 442 214 442Q182 442 156.5 435Q131 428 111 418V341H59ZM190 31Q216 31 241.5 40Q267 49 287 69Q307 89 319 120Q331 151 331 195V271Q316 254 288.5 242Q261 230 214 217Q179 206 155 197.5Q131 189 116.5 178.5Q102 168 95.5 154.5Q89 141 89 121V117Q89 77 114 54Q139 31 190 31Z" glyph-name="a" horiz-adv-x="473" unicode="a" /><glyph d="M59 427Q77 447 116.5 466.5Q156 486 220 486Q301 486 344 445.5Q387 405 388 328V96Q388 64 397.5 51Q407 38 431 38Q439 38 444 38.5Q449 39 455 40V6Q453 4 442 0.5Q431 -3 413 -3Q377 -3 355 17.5Q333 38 331 89V106Q318 51 279 20.5Q240 -10 175 -10Q110 -10 70 22.5Q30 55 30 115V116Q30 150 44 173Q58 196 82.5 211Q107 226 140 236Q173 246 210 254Q245 262 268 270Q291 278 305 288Q319 298 325 311.5Q331 325 331 343V345Q331 395 299.5 418.5Q268 442 214 442Q182 442 156.5 435Q131 428 111 418V341H59ZM190 31Q216 31 241.5 40Q267 49 287 69Q307 89 319 120Q331 151 331 195V271Q316 254 288.5 242Q261 230 214 217Q179 206 155 197.5Q131 189 116.5 178.5Q102 168 95.5 154.5Q89 141 89 121V117Q89 77 114 54Q139 31 190 31ZM264 666H347L235 543H190Z" glyph-name="aacute" horiz-adv-x="473" unicode="&#225;" /><glyph d="M59 427Q77 447 116.5 466.5Q156 486 220 486Q301 486 344 445.5Q387 405 388 328V96Q388 64 397.5 51Q407 38 431 38Q439 38 444 38.5Q449 39 455 40V6Q453 4 442 0.5Q431 -3 413 -3Q377 -3 355 17.5Q333 38 331 89V106Q318 51 279 20.5Q240 -10 175 -10Q110 -10 70 22.5Q30 55 30 115V116Q30 150 44 173Q58 196 82.5 211Q107 226 140 236Q173 246 210 254Q245 262 268 270Q291 278 305 288Q319 298 325 311.5Q331 325 331 343V345Q331 395 299.5 418.5Q268 442 214 442Q182 442 156.5 435Q131 428 111 418V341H59ZM190 31Q216 31 241.5 40Q267 49 287 69Q307 89 319 120Q331 151 331 195V271Q316 254 288.5 242Q261 230 214 217Q179 206 155 197.5Q131 189 116.5 178.5Q102 168 95.5 154.5Q89 141 89 121V117Q89 77 114 54Q139 31 190 31ZM185 666H261L347 543H301L223 627L145 543H100Z" glyph-name="acircumflex" horiz-adv-x="473" unicode="&#226;" /><glyph d="M241 666H324L212 543H167Z" glyph-name="acute" horiz-adv-x="400" unicode="&#180;" /><glyph d="M223 788H309L210 687H165Z" glyph-name="acute.uc" horiz-adv-x="400" /><glyph d="M59 427Q77 447 116.5 466.5Q156 486 220 486Q301 486 344 445.5Q387 405 388 328V96Q388 64 397.5 51Q407 38 431 38Q439 38 444 38.5Q449 39 455 40V6Q453 4 442 0.5Q431 -3 413 -3Q377 -3 355 17.5Q333 38 331 89V106Q318 51 279 20.5Q240 -10 175 -10Q110 -10 70 22.5Q30 55 30 115V116Q30 150 44 173Q58 196 82.5 211Q107 226 140 236Q173 246 210 254Q245 262 268 270Q291 278 305 288Q319 298 325 311.5Q331 325 331 343V345Q331 395 299.5 418.5Q268 442 214 442Q182 442 156.5 435Q131 428 111 418V341H59ZM190 31Q216 31 241.5 40Q267 49 287 69Q307 89 319 120Q331 151 331 195V271Q316 254 288.5 242Q261 230 214 217Q179 206 155 197.5Q131 189 116.5 178.5Q102 168 95.5 154.5Q89 141 89 121V117Q89 77 114 54Q139 31 190 31ZM147 563Q130 563 118.5 574Q107 585 107 602Q107 619 118.5 630.5Q130 642 147 642Q164 642 175.5 630.5Q187 619 187 602Q187 585 175.5 574Q164 563 147 563ZM299 563Q282 563 270.5 574Q259 585 259 602Q259 619 270.5 630.5Q282 642 299 642Q316 642 327.5 630.5Q339 619 339 602Q339 585 327.5 574Q316 563 299 563Z" glyph-name="adieresis" horiz-adv-x="473" unicode="&#228;" /><glyph d="M178 -10Q112 -10 71 22.5Q30 55 30 115V116Q30 150 44 173Q58 196 82.5 211Q107 226 140 236Q173 246 210 254Q245 262 268 270Q291 278 305 288Q319 298 325 311.5Q331 325 331 343V345Q331 395 299.5 418.5Q268 442 215 442Q183 442 157 435.5Q131 429 111 418V341H59V427Q79 448 118 467Q157 486 221 486Q285 486 322 459.5Q359 433 372 382Q397 430 441 458Q485 486 545 486Q593 486 627.5 470.5Q662 455 684.5 428.5Q707 402 718 366Q729 330 729 288Q729 273 727.5 257Q726 241 723 227H387Q389 36 567 36Q618 36 657 49.5Q696 63 719 83V43Q705 26 664.5 8.5Q624 -9 562 -9Q480 -9 425.5 27Q371 63 347 132Q335 60 291 25Q247 -10 178 -10ZM545 443Q476 443 432.5 395Q389 347 387 264H676V271Q676 360 642 401.5Q608 443 545 443ZM188 31Q215 31 241 40.5Q267 50 287 69.5Q307 89 319 120Q331 151 331 195V271Q316 254 289 242Q262 230 214 217Q179 206 155 197.5Q131 189 116.5 178.5Q102 168 95.5 154.5Q89 141 89 121V117Q89 78 114 54.5Q139 31 188 31Z" glyph-name="ae" horiz-adv-x="763" unicode="&#230;" /><glyph d="M59 427Q77 447 116.5 466.5Q156 486 220 486Q301 486 344 445.5Q387 405 388 328V96Q388 64 397.5 51Q407 38 431 38Q439 38 444 38.5Q449 39 455 40V6Q453 4 442 0.5Q431 -3 413 -3Q377 -3 355 17.5Q333 38 331 89V106Q318 51 279 20.5Q240 -10 175 -10Q110 -10 70 22.5Q30 55 30 115V116Q30 150 44 173Q58 196 82.5 211Q107 226 140 236Q173 246 210 254Q245 262 268 270Q291 278 305 288Q319 298 325 311.5Q331 325 331 343V345Q331 395 299.5 418.5Q268 442 214 442Q182 442 156.5 435Q131 428 111 418V341H59ZM190 31Q216 31 241.5 40Q267 49 287 69Q307 89 319 120Q331 151 331 195V271Q316 254 288.5 242Q261 230 214 217Q179 206 155 197.5Q131 189 116.5 178.5Q102 168 95.5 154.5Q89 141 89 121V117Q89 77 114 54Q139 31 190 31ZM99 666H182L256 543H211Z" glyph-name="agrave" horiz-adv-x="473" unicode="&#224;" /><glyph d="M221 -10Q175 -10 139.5 3Q104 16 79.5 39.5Q55 63 42.5 94Q30 125 30 161Q30 199 42.5 227.5Q55 256 76 278Q97 300 125.5 317Q154 334 187 349Q158 382 138.5 420Q119 458 119 506Q119 536 129.5 562.5Q140 589 159.5 608.5Q179 628 206 639.5Q233 651 266 651Q327 651 368 614.5Q409 578 409 512Q409 450 370 409.5Q331 369 267 339L404 161Q424 199 441 246.5Q458 294 473 354H528Q508 284 486.5 224.5Q465 165 436 119L494 45H548V0H458L402 72Q368 33 324 11.5Q280 -10 221 -10ZM223 35Q313 35 373 111L217 316Q160 290 125.5 256Q91 222 91 163Q91 107 124 71Q157 35 223 35ZM175 506Q175 469 192.5 435.5Q210 402 241 369Q353 424 353 510Q353 553 329 577.5Q305 602 266 602Q224 602 199.5 576Q175 550 175 506Z" glyph-name="ampersand" horiz-adv-x="576" unicode="&amp;" /><glyph d="M54 186Q55 227 74.5 254Q94 281 137 281Q159 281 187.5 276.5Q216 272 244.5 266Q273 260 299.5 255.5Q326 251 344 251Q363 251 370.5 261.5Q378 272 380 294H428Q427 254 409.5 226.5Q392 199 350 199Q328 199 299.5 204Q271 209 241.5 215Q212 221 185.5 226Q159 231 141 231Q106 231 103 186ZM54 327Q55 367 73.5 395Q92 423 135 423Q157 423 186 418Q215 413 244 407Q273 401 299.5 396Q326 391 344 391Q363 391 370.5 401.5Q378 412 380 435H428Q427 394 409.5 367Q392 340 350 340Q328 340 299 345Q270 350 240.5 355.5Q211 361 184 366Q157 371 139 371Q106 371 103 327Z" glyph-name="approxequal" horiz-adv-x="480" unicode="&#8776;" /><glyph d="M59 427Q77 447 116.5 466.5Q156 486 220 486Q301 486 344 445.5Q387 405 388 328V96Q388 64 397.5 51Q407 38 431 38Q439 38 444 38.5Q449 39 455 40V6Q453 4 442 0.5Q431 -3 413 -3Q377 -3 355 17.5Q333 38 331 89V106Q318 51 279 20.5Q240 -10 175 -10Q110 -10 70 22.5Q30 55 30 115V116Q30 150 44 173Q58 196 82.5 211Q107 226 140 236Q173 246 210 254Q245 262 268 270Q291 278 305 288Q319 298 325 311.5Q331 325 331 343V345Q331 395 299.5 418.5Q268 442 214 442Q182 442 156.5 435Q131 428 111 418V341H59ZM190 31Q216 31 241.5 40Q267 49 287 69Q307 89 319 120Q331 151 331 195V271Q316 254 288.5 242Q261 230 214 217Q179 206 155 197.5Q131 189 116.5 178.5Q102 168 95.5 154.5Q89 141 89 121V117Q89 77 114 54Q139 31 190 31ZM224 576Q243 576 256.5 589Q270 602 270 625Q270 647 256.5 661Q243 675 224 675Q205 675 192 661Q179 647 179 625Q179 602 192 589Q205 576 224 576ZM224 545Q189 545 165.5 568Q142 591 142 625Q142 659 165.5 683Q189 707 224 707Q259 707 282.5 683Q306 659 306 625Q306 591 282.5 568Q259 545 224 545Z" glyph-name="aring" horiz-adv-x="473" unicode="&#229;" /><glyph d="M278 441 182 602 86 441H35L144 639H220L329 441Z" glyph-name="asciicircum" horiz-adv-x="364" unicode="^" /><glyph d="M44 230Q36 267 51 293.5Q66 320 102 320Q119 320 133.5 314.5Q148 309 160.5 302.5Q173 296 183.5 290.5Q194 285 203 285Q217 285 222.5 294Q228 303 228 324H261Q269 287 256 260.5Q243 234 208 234Q193 234 179 239.5Q165 245 151.5 251.5Q138 258 126 263.5Q114 269 104 269Q90 269 84 260Q78 251 78 230Z" glyph-name="asciitilde" horiz-adv-x="307" unicode="~" /><glyph d="M36 471 126 513 36 553 61 595 140 540 132 639H183L174 540L253 595L278 553L187 513L278 471L253 429L174 485L183 385H132L141 485L61 429Z" glyph-name="asterisk" horiz-adv-x="314" unicode="*" /><glyph d="M389 76Q412 76 435.5 85.5Q459 95 480 114.5Q501 134 516.5 164.5Q532 195 538 237L540 251Q546 290 539 320Q532 350 515.5 370Q499 390 475 400.5Q451 411 423 411Q397 411 371.5 400Q346 389 326 364Q306 339 293.5 299Q281 259 281 202Q281 143 308 109.5Q335 76 389 76ZM449 645Q525 645 591.5 622.5Q658 600 707 557Q756 514 784.5 451.5Q813 389 813 309Q813 244 800 193Q787 142 764 106Q741 70 708.5 51Q676 32 636 32Q578 32 553.5 65Q529 98 531 146Q515 91 474 61Q433 31 382 31Q310 31 267 77.5Q224 124 224 211Q224 270 240.5 316Q257 362 284.5 393.5Q312 425 348 441.5Q384 458 423 458Q484 458 517 425Q550 392 555 339Q558 361 563.5 381Q569 401 574 416Q580 434 586 449H629L585 177Q576 120 589.5 96Q603 72 639 72Q695 72 730.5 133Q766 194 766 309Q766 384 741 439.5Q716 495 673 531Q630 567 571.5 584.5Q513 602 447 602Q370 602 304 574.5Q238 547 188.5 496.5Q139 446 111 375Q83 304 83 217Q83 141 106 80Q129 19 172.5 -23.5Q216 -66 278.5 -89Q341 -112 420 -112Q501 -112 569.5 -89Q638 -66 680 -33V-74Q644 -105 575 -129.5Q506 -154 415 -154Q332 -154 262 -128.5Q192 -103 141.5 -55Q91 -7 63 62Q35 131 35 218Q35 318 69 397Q103 476 160 531Q217 586 292 615.5Q367 645 449 645Z" glyph-name="at" horiz-adv-x="845" unicode="@" /><glyph d="M59 427Q77 447 116.5 466.5Q156 486 220 486Q301 486 344 445.5Q387 405 388 328V96Q388 64 397.5 51Q407 38 431 38Q439 38 444 38.5Q449 39 455 40V6Q453 4 442 0.5Q431 -3 413 -3Q377 -3 355 17.5Q333 38 331 89V106Q318 51 279 20.5Q240 -10 175 -10Q110 -10 70 22.5Q30 55 30 115V116Q30 150 44 173Q58 196 82.5 211Q107 226 140 236Q173 246 210 254Q245 262 268 270Q291 278 305 288Q319 298 325 311.5Q331 325 331 343V345Q331 395 299.5 418.5Q268 442 214 442Q182 442 156.5 435Q131 428 111 418V341H59ZM190 31Q216 31 241.5 40Q267 49 287 69Q307 89 319 120Q331 151 331 195V271Q316 254 288.5 242Q261 230 214 217Q179 206 155 197.5Q131 189 116.5 178.5Q102 168 95.5 154.5Q89 141 89 121V117Q89 77 114 54Q139 31 190 31ZM115 558Q107 593 120.5 619.5Q134 646 170 646Q186 646 201 641Q216 636 229.5 630.5Q243 625 254.5 620Q266 615 275 615Q289 615 294 623.5Q299 632 299 652H331Q339 617 326.5 590.5Q314 564 280 564Q266 564 251 569Q236 574 222 580Q208 586 195 591Q182 596 171 596Q146 596 147 558Z" glyph-name="atilde" horiz-adv-x="473" unicode="&#227;" /><glyph d="M25 673H147V343Q161 410 213 448Q265 486 334 486Q380 486 416.5 469.5Q453 453 479 422Q505 391 519 346.5Q533 302 533 247V246Q533 182 517.5 134.5Q502 87 474.5 55Q447 23 410 7Q373 -9 330 -9Q260 -9 210.5 29Q161 67 146 129Q145 98 143 74.5Q141 51 139 34Q136 15 132 0H25V45H89V625H25ZM322 35Q392 35 433.5 84Q475 133 475 238V266Q475 347 434 393Q393 439 319 439Q284 439 253 426.5Q222 414 198.5 390Q175 366 161 332Q147 298 147 255V244Q147 188 162.5 148Q178 108 202.5 83Q227 58 258.5 46.5Q290 35 322 35Z" glyph-name="b" horiz-adv-x="567" unicode="b" /><glyph d="M73 673 307 -98H254L20 673Z" glyph-name="backslash" horiz-adv-x="310" unicode="\" /><glyph d="M132 -98H79V673H132Z" glyph-name="bar" horiz-adv-x="212" unicode="|" /><glyph d="M74 288Q131 279 155.5 252.5Q180 226 180 184Q180 164 175.5 144.5Q171 125 166 106Q161 87 156.5 68.5Q152 50 152 32Q152 -12 172 -39.5Q192 -67 232 -93V-98H179Q165 -92 150 -81.5Q135 -71 122.5 -55.5Q110 -40 101.5 -20Q93 0 93 25Q93 45 98.5 66.5Q104 88 110.5 109Q117 130 122.5 150Q128 170 128 188Q128 201 124 213.5Q120 226 109.5 235.5Q99 245 80 251.5Q61 258 31 260V319Q61 321 80 327.5Q99 334 109.5 343.5Q120 353 124 365Q128 377 128 391Q128 409 122.5 428.5Q117 448 110.5 468Q104 488 98.5 509Q93 530 93 550Q93 575 101.5 595.5Q110 616 122.5 631Q135 646 150 656.5Q165 667 179 673H232V668Q192 642 172 614.5Q152 587 152 543Q152 525 156.5 507.5Q161 490 166 471.5Q171 453 175.5 434Q180 415 180 395Q180 353 155.5 327Q131 301 74 291Z" glyph-name="braceleft" horiz-adv-x="285" unicode="{" /><glyph d="M211 291Q154 301 129.5 327Q105 353 105 395Q105 415 109.5 434Q114 453 119 471.5Q124 490 128.5 507.5Q133 525 133 543Q133 587 113 614.5Q93 642 53 668V673H106Q119 667 134.5 656.5Q150 646 162.5 631Q175 616 183.5 595.5Q192 575 192 550Q192 530 186.5 509Q181 488 174.5 468Q168 448 162.5 428.5Q157 409 157 391Q157 377 161 365Q165 353 175.5 343.5Q186 334 205 327.5Q224 321 254 319V260Q224 258 205 251.5Q186 245 175.5 235.5Q165 226 161 213.5Q157 201 157 188Q157 170 162.5 150Q168 130 174.5 109Q181 88 186.5 66.5Q192 45 192 25Q192 0 183.5 -20Q175 -40 162.5 -55.5Q150 -71 134.5 -81.5Q119 -92 106 -98H53V-93Q93 -67 113 -39.5Q133 -12 133 32Q133 50 128.5 68.5Q124 87 119 106Q114 125 109.5 144.5Q105 164 105 184Q105 226 129.5 252.5Q154 279 211 288Z" glyph-name="braceright" horiz-adv-x="285" unicode="}" /><glyph d="M80 673H302V625H135V-53H302V-98H80Z" glyph-name="bracketleft" horiz-adv-x="334" unicode="[" /><glyph d="M32 -98V-53H199V625H32V673H254V-98Z" glyph-name="bracketright" horiz-adv-x="334" unicode="]" /><glyph d="M302 660Q303 639 298 618Q293 597 280.5 580.5Q268 564 248 554Q228 544 199 544Q170 544 150 554Q130 564 118 580.5Q106 597 100.5 618Q95 639 97 660H137Q136 633 150.5 612Q165 591 199 591Q234 591 249 612Q264 633 263 660Z" glyph-name="breve" horiz-adv-x="400" unicode="&#728;" /><glyph d="M300 782Q301 763 295.5 744.5Q290 726 278 711Q266 696 246.5 687Q227 678 199 678Q172 678 152.5 687Q133 696 121 711Q109 726 104 744.5Q99 763 100 782H138Q138 760 151.5 743Q165 726 199 726Q234 726 248 743Q262 760 262 782Z" glyph-name="breve.uc" horiz-adv-x="400" /><glyph d="M132 271V-98H79V271ZM132 325H79V673H132Z" glyph-name="brokenbar" horiz-adv-x="212" unicode="&#166;" /><glyph d="M146 182Q125 182 106 190Q87 198 72.5 212.5Q58 227 49.5 246Q41 265 41 286Q41 307 49.5 326.5Q58 346 72.5 360Q87 374 106 382.5Q125 391 146 391Q168 391 187 382.5Q206 374 220 360Q234 346 242.5 326.5Q251 307 251 286Q251 265 242.5 246Q234 227 220 212.5Q206 198 187 190Q168 182 146 182Z" glyph-name="bullet" horiz-adv-x="292" unicode="&#8226;" /><glyph d="M350 427Q331 435 308.5 439Q286 443 257 443Q225 443 194.5 433Q164 423 141 401.5Q118 380 104 346Q90 312 90 265V236Q90 134 134.5 85Q179 36 259 36Q311 36 348.5 52.5Q386 69 410 89V45Q403 37 390 27.5Q377 18 358.5 10Q340 2 314.5 -3.5Q289 -9 258 -9Q207 -9 165 7.5Q123 24 93.5 56Q64 88 47.5 134.5Q31 181 31 241V244Q31 311 51 357.5Q71 404 103.5 432.5Q136 461 176 473.5Q216 486 255 486Q318 486 352.5 471Q387 456 402 440V346H350Z" glyph-name="c" horiz-adv-x="453" unicode="c" /><glyph d="M122 669 200 585 278 669H324L238 546H162L77 669Z" glyph-name="caron" horiz-adv-x="400" unicode="&#711;" /><glyph d="M120 786 200 723 280 786H327L240 683H160L73 786Z" glyph-name="caron.uc" horiz-adv-x="400" /><glyph d="M350 427Q331 435 308.5 439Q286 443 257 443Q225 443 194.5 433Q164 423 141 401.5Q118 380 104 346Q90 312 90 265V236Q90 134 134.5 85Q179 36 259 36Q311 36 348.5 52.5Q386 69 410 89V45Q403 37 390 27.5Q377 18 358.5 10Q340 2 314.5 -3.5Q289 -9 258 -9Q251 -9 244 -9Q237 -9 231 -8V-41Q272 -43 291 -61.5Q310 -80 310 -108Q310 -140 288 -156.5Q266 -173 229 -173Q203 -173 187 -166Q171 -159 163 -151V-123Q172 -128 185 -132Q198 -136 217 -136Q259 -136 259 -106Q259 -89 244.5 -79.5Q230 -70 191 -68V-1Q117 18 74 80Q31 142 31 241V244Q31 311 51 357.5Q71 404 103.5 432.5Q136 461 176 473.5Q216 486 255 486Q318 486 352.5 471Q387 456 402 440V346H350Z" glyph-name="ccedilla" horiz-adv-x="453" unicode="&#231;" /><glyph d="M191 0V-41Q232 -43 251 -61.5Q270 -80 270 -108Q270 -140 248 -156.5Q226 -173 189 -173Q163 -173 147 -166Q131 -159 123 -151V-123Q132 -128 145 -132Q158 -136 177 -136Q219 -136 219 -106Q219 -89 204.5 -79.5Q190 -70 151 -68V0Z" glyph-name="cedilla" horiz-adv-x="400" unicode="&#184;" /><glyph d="M353 426Q341 431 327.5 435Q314 439 298 441L240 37Q245 36 250 36Q255 36 260 36Q312 36 349 51Q386 66 411 86V47Q397 28 359 9.5Q321 -9 258 -9Q252 -9 246 -9Q240 -9 234 -8L220 -107H177L192 0Q117 19 74.5 81.5Q32 144 32 241V244Q32 310 52 356Q72 402 104 431Q136 460 176 473Q216 486 255 486H260L273 574H317L304 483Q344 478 367.5 465.5Q391 453 403 439V349H353ZM91 236Q91 158 119 110Q147 62 198 45L254 443Q222 442 193 431.5Q164 421 141 399Q118 377 104.5 344Q91 311 91 265Z" glyph-name="cent" horiz-adv-x="441" unicode="&#162;" /><glyph d="M162 666H238L324 543H278L200 627L122 543H77Z" glyph-name="circumflex" horiz-adv-x="400" unicode="&#710;" /><glyph d="M280 683 200 746 120 683H73L160 786H240L327 683Z" glyph-name="circumflex.uc" horiz-adv-x="400" /><glyph d="M93 -6Q75 -6 61.5 6.5Q48 19 48 37Q48 56 61.5 68.5Q75 81 93 81Q111 81 124 68.5Q137 56 137 37Q137 19 124 6.5Q111 -6 93 -6ZM93 295Q75 295 61.5 307.5Q48 320 48 338Q48 357 61.5 369.5Q75 382 93 382Q111 382 124 369.5Q137 357 137 338Q137 320 124 307.5Q111 295 93 295Z" glyph-name="colon" horiz-adv-x="181" unicode=":" /><glyph d="M36 -98Q50 -63 56 -30.5Q62 2 62 26Q62 39 60.5 52Q59 65 57 77H121Q123 66 124 57.5Q125 49 125 37Q125 -34 70 -98Z" glyph-name="comma" horiz-adv-x="181" unicode="," /><glyph d="M372 -14Q301 -14 239.5 12Q178 38 133 83Q88 128 62.5 188.5Q37 249 37 317Q37 386 62.5 446.5Q88 507 133 552.5Q178 598 239.5 624.5Q301 651 372 651Q444 651 505.5 624.5Q567 598 611.5 552.5Q656 507 681.5 446.5Q707 386 707 317Q707 249 681.5 188.5Q656 128 611.5 83Q567 38 505.5 12Q444 -14 372 -14ZM372 22Q435 22 488.5 45.5Q542 69 581 109.5Q620 150 642.5 203.5Q665 257 665 317Q665 377 642.5 431.5Q620 486 581 526.5Q542 567 488.5 591Q435 615 372 615Q310 615 256.5 591Q203 567 163.5 526.5Q124 486 101.5 431.5Q79 377 79 317Q79 257 101.5 203.5Q124 150 163.5 109.5Q203 69 256.5 45.5Q310 22 372 22ZM380 131Q302 131 256 182Q210 233 210 326V328Q210 413 252.5 463.5Q295 514 376 514Q421 514 446.5 501.5Q472 489 485 475V408H437V461Q413 470 382 470Q320 470 292.5 435Q265 400 265 339V320Q265 248 294.5 210Q324 172 385 172Q400 172 414.5 174.5Q429 177 443 182V241H491V173Q478 159 449.5 145Q421 131 380 131Z" glyph-name="copyright" horiz-adv-x="744" unicode="&#169;" /><glyph d="M341 673H478V45H541V0H436Q432 18 428 39Q425 57 423 81Q421 105 421 131Q413 99 396.5 73.5Q380 48 356.5 29Q333 10 303.5 0Q274 -10 240 -10Q194 -10 156 7Q118 24 91 57Q64 90 49 138Q34 186 34 248V250Q34 307 49.5 350.5Q65 394 92.5 424Q120 454 157.5 469.5Q195 485 238 485Q307 485 356.5 448.5Q406 412 421 346V625H341ZM248 34Q279 34 310 46Q341 58 365.5 83Q390 108 405.5 146.5Q421 185 421 238V248Q421 295 407 330.5Q393 366 370 390Q347 414 315.5 426.5Q284 439 250 439Q178 439 135 395.5Q92 352 92 264V237Q92 137 133.5 85.5Q175 34 248 34Z" glyph-name="d" horiz-adv-x="566" unicode="d" /><glyph d="M149 382H33V430H149V639H201V430H316V382H201V-98H149Z" glyph-name="dagger" horiz-adv-x="349" unicode="&#8224;" /><glyph d="M201 382V159H316V111H201V-98H149V111H33V159H149V382H33V430H149V639H201V430H316V382Z" glyph-name="daggerdbl" horiz-adv-x="349" unicode="&#8225;" /><glyph d="M31 525Q31 551 40.5 573.5Q50 596 66.5 613Q83 630 105.5 639.5Q128 649 154 649Q181 649 204 639.5Q227 630 244 613Q261 596 270.5 573.5Q280 551 280 525Q280 499 270.5 477Q261 455 244 438Q227 421 204 411.5Q181 402 154 402Q128 402 105.5 411.5Q83 421 66.5 438Q50 455 40.5 477Q31 499 31 525ZM79 525Q79 489 100.5 466.5Q122 444 154 444Q188 444 209.5 466.5Q231 489 231 525Q231 561 209.5 584.5Q188 608 154 608Q122 608 100.5 584.5Q79 561 79 525Z" glyph-name="degree" horiz-adv-x="310" unicode="&#176;" /><glyph d="M124 563Q107 563 95.5 574Q84 585 84 602Q84 619 95.5 630.5Q107 642 124 642Q141 642 152.5 630.5Q164 619 164 602Q164 585 152.5 574Q141 563 124 563ZM276 563Q259 563 247.5 574Q236 585 236 602Q236 619 247.5 630.5Q259 642 276 642Q293 642 304.5 630.5Q316 619 316 602Q316 585 304.5 574Q293 563 276 563Z" glyph-name="dieresis" horiz-adv-x="400" unicode="&#168;" /><glyph d="M118 681Q101 681 89.5 692.5Q78 704 78 721Q78 738 89.5 749.5Q101 761 118 761Q135 761 146.5 749.5Q158 738 158 721Q158 704 146.5 692.5Q135 681 118 681ZM282 681Q265 681 253 692.5Q241 704 241 721Q241 738 253 749.5Q265 761 282 761Q299 761 310.5 749.5Q322 738 322 721Q322 704 310.5 692.5Q299 681 282 681Z" glyph-name="dieresis.uc" horiz-adv-x="400" /><glyph d="M398 339V290H44V339ZM222 136Q204 136 190.5 148.5Q177 161 177 179Q177 198 190.5 210.5Q204 223 222 223Q240 223 253 210.5Q266 198 266 179Q266 161 253 148.5Q240 136 222 136ZM222 406Q204 406 190.5 418.5Q177 431 177 449Q177 468 190.5 480.5Q204 493 222 493Q240 493 253 480.5Q266 468 266 449Q266 431 253 418.5Q240 406 222 406Z" glyph-name="divide" horiz-adv-x="442" unicode="&#247;" /><glyph d="M367 483V576Q336 591 299 597L268 349Q297 344 326 337.5Q355 331 380 317Q413 297 432 265.5Q451 234 451 174Q451 125 434 90Q417 55 388 32Q359 9 321.5 -2Q284 -13 243 -13Q238 -13 233 -13Q228 -13 223 -12L212 -107H167L179 -7Q130 1 95.5 20.5Q61 40 43 57V165H96V73Q115 62 137 53.5Q159 45 185 40L218 304Q195 309 173.5 314.5Q152 320 135 329Q96 349 74 383.5Q52 418 52 475Q52 520 69 553Q86 586 114 608Q142 630 177.5 640.5Q213 651 249 651H260L269 718H314L305 647Q347 640 375 626.5Q403 613 421 597V483ZM351 269Q334 280 311 285.5Q288 291 262 296L229 35H240Q271 35 299 42.5Q327 50 348 66.5Q369 83 381.5 109.5Q394 136 394 173Q394 207 385 231Q376 255 351 269ZM160 378Q174 370 190.5 365Q207 360 224 357L254 601H253Q226 601 200 595Q174 589 154 574.5Q134 560 122 535.5Q110 511 110 474Q110 441 120.5 417.5Q131 394 160 378Z" glyph-name="dollar" horiz-adv-x="479" unicode="$" /><glyph d="M200 563Q183 563 170.5 574.5Q158 586 158 603Q158 620 170.5 632.5Q183 645 200 645Q217 645 229.5 632.5Q242 620 242 603Q242 586 229.5 574.5Q217 563 200 563Z" glyph-name="dotaccent" horiz-adv-x="400" unicode="&#729;" /><glyph d="M200 686Q183 686 170.5 698Q158 710 158 727Q158 744 170.5 756.5Q183 769 200 769Q217 769 229.5 756.5Q242 744 242 727Q242 710 229.5 698Q217 686 200 686Z" glyph-name="dotaccent.uc" horiz-adv-x="400" /><glyph d="M25 475H150V45H218V0H25V45H93V424H25Z" glyph-name="dotlessi" horiz-adv-x="243" unicode="&#305;" /><glyph d="M266 -9Q156 -9 93.5 55Q31 119 31 240V241Q31 295 47 340.5Q63 386 92 418Q121 450 160.5 468Q200 486 248 486Q296 486 331.5 470.5Q367 455 389.5 428.5Q412 402 423 366Q434 330 434 288Q434 273 433 257Q432 241 430 227H91Q92 131 136 83.5Q180 36 271 36Q322 36 361.5 49.5Q401 63 425 83V43Q411 26 369.5 8.5Q328 -9 266 -9ZM248 443Q179 443 136 395Q93 347 91 264H381V271Q381 360 346.5 401.5Q312 443 248 443Z" glyph-name="e" horiz-adv-x="468" unicode="e" /><glyph d="M289 666H372L260 543H215ZM266 -9Q156 -9 93.5 55Q31 119 31 240V241Q31 295 47 340.5Q63 386 92 418Q121 450 160.5 468Q200 486 248 486Q296 486 331.5 470.5Q367 455 389.5 428.5Q412 402 423 366Q434 330 434 288Q434 273 433 257Q432 241 430 227H91Q92 131 136 83.5Q180 36 271 36Q322 36 361.5 49.5Q401 63 425 83V43Q411 26 369.5 8.5Q328 -9 266 -9ZM248 443Q179 443 136 395Q93 347 91 264H381V271Q381 360 346.5 401.5Q312 443 248 443Z" glyph-name="eacute" horiz-adv-x="468" unicode="&#233;" /><glyph d="M210 666H286L372 543H326L248 627L170 543H125ZM266 -9Q156 -9 93.5 55Q31 119 31 240V241Q31 295 47 340.5Q63 386 92 418Q121 450 160.5 468Q200 486 248 486Q296 486 331.5 470.5Q367 455 389.5 428.5Q412 402 423 366Q434 330 434 288Q434 273 433 257Q432 241 430 227H91Q92 131 136 83.5Q180 36 271 36Q322 36 361.5 49.5Q401 63 425 83V43Q411 26 369.5 8.5Q328 -9 266 -9ZM248 443Q179 443 136 395Q93 347 91 264H381V271Q381 360 346.5 401.5Q312 443 248 443Z" glyph-name="ecircumflex" horiz-adv-x="468" unicode="&#234;" /><glyph d="M172 563Q155 563 143.5 574Q132 585 132 602Q132 619 143.5 630.5Q155 642 172 642Q189 642 200.5 630.5Q212 619 212 602Q212 585 200.5 574Q189 563 172 563ZM324 563Q307 563 295.5 574Q284 585 284 602Q284 619 295.5 630.5Q307 642 324 642Q341 642 352.5 630.5Q364 619 364 602Q364 585 352.5 574Q341 563 324 563ZM266 -9Q156 -9 93.5 55Q31 119 31 240V241Q31 295 47 340.5Q63 386 92 418Q121 450 160.5 468Q200 486 248 486Q296 486 331.5 470.5Q367 455 389.5 428.5Q412 402 423 366Q434 330 434 288Q434 273 433 257Q432 241 430 227H91Q92 131 136 83.5Q180 36 271 36Q322 36 361.5 49.5Q401 63 425 83V43Q411 26 369.5 8.5Q328 -9 266 -9ZM248 443Q179 443 136 395Q93 347 91 264H381V271Q381 360 346.5 401.5Q312 443 248 443Z" glyph-name="edieresis" horiz-adv-x="468" unicode="&#235;" /><glyph d="M266 -9Q156 -9 93.5 55Q31 119 31 240V241Q31 295 47 340.5Q63 386 92 418Q121 450 160.5 468Q200 486 248 486Q296 486 331.5 470.5Q367 455 389.5 428.5Q412 402 423 366Q434 330 434 288Q434 273 433 257Q432 241 430 227H91Q92 131 136 83.5Q180 36 271 36Q322 36 361.5 49.5Q401 63 425 83V43Q411 26 369.5 8.5Q328 -9 266 -9ZM248 443Q179 443 136 395Q93 347 91 264H381V271Q381 360 346.5 401.5Q312 443 248 443ZM124 666H207L281 543H236Z" glyph-name="egrave" horiz-adv-x="468" unicode="&#232;" /><glyph d="M251 -12Q204 -12 164.5 1Q125 14 96 38Q67 62 51 95.5Q35 129 35 170V177Q35 240 74 282Q113 324 180 340Q126 354 92 390Q58 426 58 485V490Q58 525 72 554.5Q86 584 111.5 605.5Q137 627 172.5 639Q208 651 252 651Q295 651 330.5 639Q366 627 391 605.5Q416 584 430 554.5Q444 525 444 491V485Q444 426 410 390Q376 354 322 340Q390 325 429 282.5Q468 240 468 178V171Q468 130 451.5 96.5Q435 63 406 39Q377 15 337.5 1.5Q298 -12 251 -12ZM251 36Q322 36 364.5 71Q407 106 407 172V186Q407 243 365.5 280.5Q324 318 251 318Q177 318 136.5 280.5Q96 243 96 186V172Q96 106 137.5 71Q179 36 251 36ZM251 360Q314 360 350.5 390.5Q387 421 387 478V490Q387 540 352 571Q317 602 252 602Q186 602 150.5 571Q115 540 115 490V478Q115 421 151 390.5Q187 360 251 360Z" glyph-name="eight" horiz-adv-x="503" unicode="8" /><glyph d="M425 -6Q407 -6 393.5 6.5Q380 19 380 37Q380 56 393.5 68.5Q407 81 425 81Q443 81 456 68.5Q469 56 469 37Q469 19 456 6.5Q443 -6 425 -6ZM258 -6Q240 -6 226.5 6.5Q213 19 213 37Q213 56 226.5 68.5Q240 81 258 81Q276 81 289 68.5Q302 56 302 37Q302 19 289 6.5Q276 -6 258 -6ZM91 -6Q73 -6 59.5 6.5Q46 19 46 37Q46 56 59.5 68.5Q73 81 91 81Q109 81 122 68.5Q135 56 135 37Q135 19 122 6.5Q109 -6 91 -6Z" glyph-name="ellipsis" horiz-adv-x="515" unicode="&#8230;" /><glyph d="M43 291H852V247H43Z" glyph-name="emdash" horiz-adv-x="895" unicode="&#8212;" /><glyph d="M43 291H489V247H43Z" glyph-name="endash" horiz-adv-x="533" unicode="&#8211;" /><glyph d="M428 263V213H48V263ZM428 410V361H48V410Z" glyph-name="equal" horiz-adv-x="476" unicode="=" /><glyph d="M85 556 212 607Q182 625 151 640Q120 655 91 668V673H178Q198 665 219.5 654Q241 643 264 629L365 670L381 637L301 604Q336 578 369 545Q402 512 427.5 470Q453 428 468 377Q483 326 483 265V247Q483 184 465 136Q447 88 416.5 55.5Q386 23 345 7Q304 -9 258 -9Q211 -9 169.5 7Q128 23 97.5 54.5Q67 86 49 134Q31 182 31 245V247Q31 301 47 345Q63 389 91 419.5Q119 450 157.5 466.5Q196 483 241 483Q292 483 331.5 464.5Q371 446 400 401L401 402Q377 461 337.5 505.5Q298 550 250 583L102 523ZM258 33Q293 33 323.5 44.5Q354 56 376.5 81Q399 106 412 144.5Q425 183 425 237V265Q425 307 412.5 340.5Q400 374 377.5 396.5Q355 419 324 431Q293 443 257 443Q182 443 136 396Q90 349 90 265V237Q90 183 103 144.5Q116 106 138.5 81Q161 56 191.5 44.5Q222 33 258 33Z" glyph-name="eth" horiz-adv-x="519" unicode="&#240;" /><glyph d="M127 149H82L70 660H138ZM105 -5Q88 -5 74.5 7.5Q61 20 61 38Q61 57 74.5 70Q88 83 105 83Q123 83 136 70Q149 57 149 38Q149 20 136 7.5Q123 -5 105 -5Z" glyph-name="exclam" horiz-adv-x="211" unicode="!" /><glyph d="M84 396H129L141 -115H73ZM106 550Q123 550 136.5 537.5Q150 525 150 507Q150 488 136.5 475Q123 462 106 462Q88 462 75 475Q62 488 62 507Q62 525 75 537.5Q88 550 106 550Z" glyph-name="exclamdown" horiz-adv-x="211" unicode="&#161;" /><glyph d="M23 475H94V535Q94 575 105 602Q116 629 133.5 646Q151 663 172.5 670.5Q194 678 215 678Q245 678 263 670Q281 662 289 651V623Q278 626 264.5 628.5Q251 631 236 631Q188 631 169.5 609Q151 587 151 541V475H289V431H151V45H241V0H25V45H94V431H23Z" glyph-name="f" horiz-adv-x="313" unicode="f" /><glyph d="M211 -9Q173 -9 145 -3Q117 3 95.5 12Q74 21 58.5 32.5Q43 44 32 55V103Q63 77 103 59Q143 41 208 41Q285 41 328 80.5Q371 120 371 197Q371 269 334 306Q297 343 215 343Q160 343 123.5 330.5Q87 318 61 303H53V639H407V497H353V586H106V366Q161 390 227 390Q330 390 381 335.5Q432 281 432 192Q432 147 417 109.5Q402 72 373.5 46Q345 20 304 5.5Q263 -9 211 -9Z" glyph-name="five" horiz-adv-x="471" unicode="5" /><glyph d="M115 389 133 540Q141 612 178 645Q215 678 264 678Q296 678 314.5 669Q333 660 341 650V619Q331 623 316.5 626Q302 629 283 629Q238 629 218 609Q198 589 193 546L174 389H306V343H169L111 -146H51L109 343H29V389Z" glyph-name="florin" horiz-adv-x="366" unicode="&#402;" /><glyph d="M381 639V231H470V182H381V45H470V0H228V45H321V182H26V252L289 639ZM69 231H321V602Z" glyph-name="four" horiz-adv-x="499" unicode="4" /><glyph d="M-148 0H-196L276 639H324Z" glyph-name="fraction" horiz-adv-x="128" unicode="&#8260;" /><glyph d="M248 -153Q176 -153 132 -133.5Q88 -114 70 -91V-45Q94 -68 137 -87Q180 -106 243 -106Q327 -106 373 -64.5Q419 -23 419 59V151Q412 120 395.5 95Q379 70 355 53Q331 36 301 26.5Q271 17 237 17Q144 17 88.5 79Q33 141 33 258V259Q33 312 48.5 354Q64 396 91 425Q118 454 155.5 469.5Q193 485 237 485Q306 485 355 453Q404 421 419 356Q421 403 427 438Q430 457 434 475H538V424H476V68Q476 12 459.5 -29.5Q443 -71 413 -98.5Q383 -126 341 -139.5Q299 -153 248 -153ZM246 60Q277 60 308 71Q339 82 363.5 105Q388 128 403.5 163.5Q419 199 419 249V259Q419 302 405.5 335.5Q392 369 369 392Q346 415 315 427Q284 439 250 439Q178 439 134.5 396Q91 353 91 272V247Q91 154 132 107Q173 60 246 60Z" glyph-name="g" horiz-adv-x="563" unicode="g" /><glyph d="M23 475H94V498Q94 544 108 578Q122 612 147.5 634.5Q173 657 208 668Q243 679 285 679Q313 679 341.5 672.5Q370 666 393 651Q416 636 430.5 610.5Q445 585 445 546Q445 510 421 480Q397 450 368.5 424.5Q340 399 316 376.5Q292 354 292 333Q292 317 299.5 307Q307 297 326 289Q352 278 386.5 269Q421 260 444 249Q477 231 496.5 203Q516 175 516 128Q516 63 474.5 27Q433 -9 361 -9Q313 -9 281 4Q249 17 227 34V123H279V49Q311 36 356 36Q402 36 431.5 59Q461 82 461 127Q461 179 420 201Q395 215 365 222.5Q335 230 302 244Q270 258 254.5 277.5Q239 297 239 327Q239 359 262.5 385.5Q286 412 314 437.5Q342 463 365.5 490Q389 517 389 551Q389 593 360 614.5Q331 636 283 636Q217 636 184 600.5Q151 565 151 497V0H25V45H94V431H23Z" glyph-name="germandbls" horiz-adv-x="539" unicode="&#223;" /><glyph d="M76 666H159L233 543H188Z" glyph-name="grave" horiz-adv-x="400" unicode="`" /><glyph d="M93 788H179L237 687H192Z" glyph-name="grave.uc" horiz-adv-x="400" /><glyph d="M45 124V177L351 309L45 441V495L395 344V275Z" glyph-name="greater" horiz-adv-x="439" unicode="&gt;" /><glyph d="M395 280 45 133V186L348 313L45 441V495L395 348ZM45 0V49H395V0Z" glyph-name="greaterequal" horiz-adv-x="439" unicode="&#8805;" /><glyph d="M173 401 78 245 173 91H116L22 245L116 401ZM196 245 291 91H234L140 245L234 401H291Z" glyph-name="guillemotleft" horiz-adv-x="315" unicode="&#171;" /><glyph d="M142 91 237 246 142 401H199L293 246L199 91ZM119 246 24 401H81L174 246L81 91H24Z" glyph-name="guillemotright" horiz-adv-x="315" unicode="&#187;" /><glyph d="M179 401 80 245 179 91H121L23 245L121 401Z" glyph-name="guilsinglleft" horiz-adv-x="201" unicode="&#8249;" /><glyph d="M122 246 23 401H80L178 246L80 91H23Z" glyph-name="guilsinglright" horiz-adv-x="201" unicode="&#8250;" /><glyph d="M346 45H420V338Q420 388 394.5 413Q369 438 312 438Q277 438 247.5 426Q218 414 196 391.5Q174 369 161 337.5Q148 306 147 266V45H222V0H25V45H89V625H25V673H147V341Q153 377 170.5 404.5Q188 432 212.5 450Q237 468 266.5 477Q296 486 326 486Q400 486 438.5 446Q477 406 477 328V45H536V0H346Z" glyph-name="h" horiz-adv-x="561" unicode="h" /><glyph d="M166 666H236L160 543H115ZM287 666H356L280 543H235Z" glyph-name="hungarumlaut" horiz-adv-x="400" unicode="&#733;" /><glyph d="M158 788H228L162 687H117ZM276 788H346L279 687H234Z" glyph-name="hungarumlaut.uc" horiz-adv-x="400" /><glyph d="M46 294H208V244H46Z" glyph-name="hyphen" horiz-adv-x="254" unicode="-" /><glyph d="M25 475H150V45H218V0H25V45H93V424H25ZM115 563Q98 563 85.5 574.5Q73 586 73 603Q73 620 85.5 632.5Q98 645 115 645Q132 645 144.5 632.5Q157 620 157 603Q157 586 144.5 574.5Q132 563 115 563Z" glyph-name="i" horiz-adv-x="243" unicode="i" /><glyph d="M145 666H228L116 543H71ZM25 475H150V45H218V0H25V45H93V424H25Z" glyph-name="iacute" horiz-adv-x="243" unicode="&#237;" /><glyph d="M66 666H142L228 543H182L104 627L26 543H-19ZM25 475H150V45H218V0H25V45H93V424H25Z" glyph-name="icircumflex" horiz-adv-x="243" unicode="&#238;" /><glyph d="M38 563Q21 563 9.5 574Q-2 585 -2 602Q-2 619 9.5 630.5Q21 642 38 642Q55 642 67 630.5Q79 619 79 602Q79 585 67 574Q55 563 38 563ZM171 563Q154 563 142.5 574Q131 585 131 602Q131 619 142.5 630.5Q154 642 171 642Q188 642 200 630.5Q212 619 212 602Q212 585 200 574Q188 563 171 563ZM25 475H150V45H218V0H25V45H93V424H25Z" glyph-name="idieresis" horiz-adv-x="243" unicode="&#239;" /><glyph d="M25 475H150V45H218V0H25V45H93V424H25ZM-20 666H63L137 543H92Z" glyph-name="igrave" horiz-adv-x="243" unicode="&#236;" /><glyph d="M23 475H148V-46Q148 -103 119.5 -127.5Q91 -152 49 -152Q23 -152 6.5 -146Q-10 -140 -17 -132V-101Q-7 -104 3 -105Q13 -106 27 -106Q62 -106 76.5 -93.5Q91 -81 91 -49V424H23ZM113 563Q96 563 83.5 574.5Q71 586 71 603Q71 620 83.5 632.5Q96 645 113 645Q130 645 142.5 632.5Q155 620 155 603Q155 586 142.5 574.5Q130 563 113 563Z" glyph-name="j" horiz-adv-x="218" unicode="j" /><glyph d="M25 673H147V45H223V0H25V45H89V625H25ZM149 248 357 475H440V424H373L214 251L394 45H459V0H367V1L364 0Z" glyph-name="k" horiz-adv-x="482" unicode="k" /><glyph d="M25 673H150V45H218V0H25V45H93V625H25Z" glyph-name="l" horiz-adv-x="243" unicode="l" /><glyph d="M395 495V442L89 310L395 178V124L45 275V344Z" glyph-name="less" horiz-adv-x="439" unicode="&lt;" /><glyph d="M395 495V442L90 314L395 186V133L45 280V348ZM45 49H395V0H45Z" glyph-name="lessequal" horiz-adv-x="439" unicode="&#8804;" /><glyph d="M25 673H150V423L218 480V427L150 370V45H218V0H25V45H93V322L24 264V318L93 375V625H25Z" glyph-name="lslash" horiz-adv-x="243" unicode="&#322;" /><glyph d="M320 45H393V341Q393 389 372 413.5Q351 438 300 438Q267 438 239.5 426Q212 414 192 391.5Q172 369 160 337.5Q148 306 147 266V45H221V0H25V45H89V424H25V475H131Q135 457 139 437Q142 420 144.5 398.5Q147 377 147 355V343Q153 379 169 406Q185 433 207.5 450.5Q230 468 257 477Q284 486 312 486Q378 486 411.5 448.5Q445 411 446 339Q452 376 469 403.5Q486 431 509 449.5Q532 468 560 477Q588 486 616 486Q684 486 719 446.5Q754 407 754 331V45H814V0H624V45H697V341Q697 389 676 413.5Q655 438 604 438Q537 438 495 392Q453 346 450 266V45H524V0H320Z" glyph-name="m" horiz-adv-x="838" unicode="m" /><glyph d="M92 613H308V568H92Z" glyph-name="macron" horiz-adv-x="400" unicode="&#175;" /><glyph d="M90 745H310V699H90Z" glyph-name="macron.uc" horiz-adv-x="400" /><glyph d="M398 339V290H44V339Z" glyph-name="minus" horiz-adv-x="442" unicode="&#8722;" /><glyph d="M182 308 49 443 84 477 216 343 349 477 384 443 251 308 384 174 349 139 216 273 84 139 49 174Z" glyph-name="multiply" horiz-adv-x="433" unicode="&#215;" /><glyph d="M346 45H420V338Q420 388 394.5 413Q369 438 312 438Q277 438 247.5 426Q218 414 196 391.5Q174 369 161 337.5Q148 306 147 266V45H222V0H25V45H89V424H25V475H131Q135 457 139 437Q142 420 144.5 398.5Q147 377 147 355V341Q153 377 170.5 404.5Q188 432 212.5 450Q237 468 266.5 477Q296 486 326 486Q400 486 438.5 446Q477 406 477 328V45H536V0H346Z" glyph-name="n" horiz-adv-x="561" unicode="n" /><glyph d="M121 5Q179 30 230 64.5Q281 99 320 141.5Q359 184 384 234.5Q409 285 416 342Q396 296 352 266.5Q308 237 239 237Q191 237 153 252.5Q115 268 88.5 295Q62 322 48.5 359Q35 396 35 439V444Q35 490 50 528.5Q65 567 93 594.5Q121 622 161 637Q201 652 252 652Q302 652 344 637Q386 622 416 592.5Q446 563 463 519.5Q480 476 480 419V397Q480 316 453.5 251Q427 186 387 136.5Q347 87 301 53Q255 19 215 0H121ZM251 283Q286 283 317 294Q348 305 370.5 324.5Q393 344 406 371.5Q419 399 419 431V446Q419 516 375.5 560Q332 604 252 604Q176 604 135.5 561Q95 518 95 447V439Q95 405 104 376.5Q113 348 132.5 327Q152 306 181 294.5Q210 283 251 283Z" glyph-name="nine" horiz-adv-x="519" unicode="9" /><glyph glyph-name="nonmarkingreturn" horiz-adv-x="182" /><glyph d="M314 410H428V361H290L242 263H428V213H218L165 104H112L165 213H48V263H190L238 361H48V410H262L312 512H364Z" glyph-name="notequal" horiz-adv-x="476" unicode="&#8800;" /><glyph d="M346 45H420V338Q420 388 394.5 413Q369 438 312 438Q277 438 247.5 426Q218 414 196 391.5Q174 369 161 337.5Q148 306 147 266V45H222V0H25V45H89V424H25V475H131Q135 457 139 437Q142 420 144.5 398.5Q147 377 147 355V341Q153 377 170.5 404.5Q188 432 212.5 450Q237 468 266.5 477Q296 486 326 486Q400 486 438.5 446Q477 406 477 328V45H536V0H346ZM170 558Q162 593 175.5 619.5Q189 646 225 646Q241 646 256 641Q271 636 284.5 630.5Q298 625 309.5 620Q321 615 330 615Q344 615 349 623.5Q354 632 354 652H386Q394 617 381.5 590.5Q369 564 335 564Q321 564 306 569Q291 574 277 580Q263 586 250 591Q237 596 226 596Q201 596 202 558Z" glyph-name="ntilde" horiz-adv-x="561" unicode="&#241;" /><glyph d="M352 447H430V396H343L321 260H399V209H313L280 0H233L266 209H156L123 0H76L109 209H31V260H117L139 396H61V447H148L179 639H226L195 447H305L336 639H383ZM164 260H274L296 396H186Z" glyph-name="numbersign" horiz-adv-x="462" unicode="#" /><glyph d="M258 33Q294 33 324.5 45Q355 57 377.5 82Q400 107 412.5 145.5Q425 184 425 237V265Q425 306 413 339Q401 372 379 395Q357 418 326 430.5Q295 443 258 443Q182 443 136 395Q90 347 90 265V237Q90 184 103 145.5Q116 107 138.5 82Q161 57 191.5 45Q222 33 258 33ZM258 -9Q210 -9 169 7Q128 23 97 54.5Q66 86 48.5 134Q31 182 31 245V247Q31 301 47 345.5Q63 390 92.5 421Q122 452 164 469Q206 486 258 486Q309 486 351 469Q393 452 422 421.5Q451 391 467 347Q483 303 483 249V247Q483 184 465.5 136Q448 88 417.5 55.5Q387 23 346 7Q305 -9 258 -9Z" glyph-name="o" horiz-adv-x="515" unicode="o" /><glyph d="M298 666H381L269 543H224ZM258 33Q294 33 324.5 45Q355 57 377.5 82Q400 107 412.5 145.5Q425 184 425 237V265Q425 306 413 339Q401 372 379 395Q357 418 326 430.5Q295 443 258 443Q182 443 136 395Q90 347 90 265V237Q90 184 103 145.5Q116 107 138.5 82Q161 57 191.5 45Q222 33 258 33ZM258 -9Q210 -9 169 7Q128 23 97 54.5Q66 86 48.5 134Q31 182 31 245V247Q31 301 47 345.5Q63 390 92.5 421Q122 452 164 469Q206 486 258 486Q309 486 351 469Q393 452 422 421.5Q451 391 467 347Q483 303 483 249V247Q483 184 465.5 136Q448 88 417.5 55.5Q387 23 346 7Q305 -9 258 -9Z" glyph-name="oacute" horiz-adv-x="515" unicode="&#243;" /><glyph d="M219 666H295L381 543H335L257 627L179 543H134ZM258 33Q294 33 324.5 45Q355 57 377.5 82Q400 107 412.5 145.5Q425 184 425 237V265Q425 306 413 339Q401 372 379 395Q357 418 326 430.5Q295 443 258 443Q182 443 136 395Q90 347 90 265V237Q90 184 103 145.5Q116 107 138.5 82Q161 57 191.5 45Q222 33 258 33ZM258 -9Q210 -9 169 7Q128 23 97 54.5Q66 86 48.5 134Q31 182 31 245V247Q31 301 47 345.5Q63 390 92.5 421Q122 452 164 469Q206 486 258 486Q309 486 351 469Q393 452 422 421.5Q451 391 467 347Q483 303 483 249V247Q483 184 465.5 136Q448 88 417.5 55.5Q387 23 346 7Q305 -9 258 -9Z" glyph-name="ocircumflex" horiz-adv-x="515" unicode="&#244;" /><glyph d="M181 563Q164 563 152.5 574Q141 585 141 602Q141 619 152.5 630.5Q164 642 181 642Q198 642 209.5 630.5Q221 619 221 602Q221 585 209.5 574Q198 563 181 563ZM333 563Q316 563 304.5 574Q293 585 293 602Q293 619 304.5 630.5Q316 642 333 642Q350 642 361.5 630.5Q373 619 373 602Q373 585 361.5 574Q350 563 333 563ZM258 33Q294 33 324.5 45Q355 57 377.5 82Q400 107 412.5 145.5Q425 184 425 237V265Q425 306 413 339Q401 372 379 395Q357 418 326 430.5Q295 443 258 443Q182 443 136 395Q90 347 90 265V237Q90 184 103 145.5Q116 107 138.5 82Q161 57 191.5 45Q222 33 258 33ZM258 -9Q210 -9 169 7Q128 23 97 54.5Q66 86 48.5 134Q31 182 31 245V247Q31 301 47 345.5Q63 390 92.5 421Q122 452 164 469Q206 486 258 486Q309 486 351 469Q393 452 422 421.5Q451 391 467 347Q483 303 483 249V247Q483 184 465.5 136Q448 88 417.5 55.5Q387 23 346 7Q305 -9 258 -9Z" glyph-name="odieresis" horiz-adv-x="515" unicode="&#246;" /><glyph d="M650 -9Q564 -9 513.5 29.5Q463 68 444 140Q423 65 373 28Q323 -9 253 -9Q208 -9 167.5 7Q127 23 96.5 54.5Q66 86 48.5 134Q31 182 31 245V247Q31 301 47 345.5Q63 390 92 421Q121 452 162 469Q203 486 253 486Q331 486 379 447.5Q427 409 446 341Q466 407 513 446.5Q560 486 633 486Q681 486 716.5 470.5Q752 455 774.5 428.5Q797 402 808 366Q819 330 819 288Q819 273 818 257Q817 241 814 227H475Q477 36 655 36Q706 36 746 49.5Q786 63 810 83V43Q796 26 754 8.5Q712 -9 650 -9ZM253 33Q288 33 318 44.5Q348 56 369.5 81Q391 106 403.5 144.5Q416 183 416 237V265Q416 349 371.5 396Q327 443 253 443Q179 443 134.5 396Q90 349 90 265V237Q90 183 102.5 144.5Q115 106 137 81Q159 56 188.5 44.5Q218 33 253 33ZM633 443Q564 443 520.5 395Q477 347 475 264H766V271Q766 360 731.5 401.5Q697 443 633 443Z" glyph-name="oe" horiz-adv-x="853" unicode="&#339;" /><glyph d="M207 -153Q170 -153 151 -135Q132 -117 132 -86Q132 -69 139.5 -54.5Q147 -40 158 -29.5Q169 -19 183 -11.5Q197 -4 209 0H249Q211 -18 196 -38.5Q181 -59 181 -79Q181 -94 190 -103.5Q199 -113 219 -113Q231 -113 239 -110.5Q247 -108 254 -104V-135Q249 -143 237.5 -148Q226 -153 207 -153Z" glyph-name="ogonek" horiz-adv-x="400" unicode="&#731;" /><glyph d="M258 33Q294 33 324.5 45Q355 57 377.5 82Q400 107 412.5 145.5Q425 184 425 237V265Q425 306 413 339Q401 372 379 395Q357 418 326 430.5Q295 443 258 443Q182 443 136 395Q90 347 90 265V237Q90 184 103 145.5Q116 107 138.5 82Q161 57 191.5 45Q222 33 258 33ZM258 -9Q210 -9 169 7Q128 23 97 54.5Q66 86 48.5 134Q31 182 31 245V247Q31 301 47 345.5Q63 390 92.5 421Q122 452 164 469Q206 486 258 486Q309 486 351 469Q393 452 422 421.5Q451 391 467 347Q483 303 483 249V247Q483 184 465.5 136Q448 88 417.5 55.5Q387 23 346 7Q305 -9 258 -9ZM133 666H216L290 543H245Z" glyph-name="ograve" horiz-adv-x="515" unicode="&#242;" /><glyph d="M46 45H167V583L34 441H31V508L152 639H226V45H336V0H46Z" glyph-name="one" horiz-adv-x="365" unicode="1" /><glyph d="M425 56Q513 115 561 164.5Q609 214 609 265Q609 305 587 321Q565 337 533 337Q501 337 476 326Q451 315 432 301V337Q447 354 472.5 367Q498 380 539 380Q589 380 623.5 353.5Q658 327 658 266Q658 203 603 148.5Q548 94 457 40V39H622V85H664V0H425ZM125 0H77L549 639H597ZM33 303H103V595L26 510H25V563L94 639H153V303H215V267H33Z" glyph-name="onehalf" horiz-adv-x="693" unicode="&#189;" /><glyph d="M570 372V143H620V105H570V36H620V0H470V36H522V105H352V156L500 372ZM125 0H77L549 639H597ZM33 303H103V595L26 510H25V563L94 639H153V303H215V267H33ZM387 143H522V338Z" glyph-name="onequarter" horiz-adv-x="645" unicode="&#188;" /><glyph d="M49 605Q62 619 90 632.5Q118 646 164 646Q224 646 255 616.5Q286 587 286 531V379Q286 359 292.5 350Q299 341 316 341Q321 341 324.5 341.5Q328 342 332 343V314Q330 313 322 309.5Q314 306 299 306Q272 306 255.5 321Q239 336 237 371V381Q228 343 200 322.5Q172 302 129 302Q84 302 56 324.5Q28 347 28 388V389Q28 414 38.5 430Q49 446 66.5 456.5Q84 467 107 474Q130 481 156 487Q203 497 220 509Q237 521 237 545V547Q237 578 216.5 593.5Q196 609 158 609Q121 609 92 596V544H49ZM144 335Q161 335 178 341Q195 347 208 360Q221 373 229 393Q237 413 237 441V493Q226 482 208 474Q190 466 162 458Q115 444 97 432Q79 420 79 394V391Q79 365 95.5 350Q112 335 144 335Z" glyph-name="ordfeminine" horiz-adv-x="355" unicode="&#170;" /><glyph d="M191 338Q238 338 269 369Q300 400 300 472V493Q300 548 270.5 579Q241 610 191 610Q140 610 110 579Q80 548 80 493V472Q80 400 111.5 369Q143 338 191 338ZM191 303Q158 303 128.5 314Q99 325 77 347Q55 369 42 402Q29 435 29 479V480Q29 556 73 601Q117 646 191 646Q263 646 307.5 601.5Q352 557 352 481V480Q352 435 339 402Q326 369 304.5 347Q283 325 253.5 314Q224 303 191 303Z" glyph-name="ordmasculine" horiz-adv-x="380" unicode="&#186;" /><glyph d="M258 -9Q220 -9 185.5 1Q151 11 123 31L84 -19H35L94 57Q65 89 48 135.5Q31 182 31 245V247Q31 301 47 345.5Q63 390 92.5 421Q122 452 164 469Q206 486 258 486Q298 486 332 475.5Q366 465 393 446L430 493H479L423 420Q452 389 467.5 346Q483 303 483 249V247Q483 184 465.5 136Q448 88 417.5 55.5Q387 23 346 7Q305 -9 258 -9ZM90 237Q90 189 98.5 154.5Q107 120 123 96L366 410Q322 443 258 443Q182 443 136 395Q90 347 90 265ZM258 33Q294 33 324.5 45Q355 57 377.5 82Q400 107 412.5 145.5Q425 184 425 237V265Q425 301 416.5 330Q408 359 393 381L150 66Q171 49 198.5 41Q226 33 258 33Z" glyph-name="oslash" horiz-adv-x="511" unicode="&#248;" /><glyph d="M258 33Q294 33 324.5 45Q355 57 377.5 82Q400 107 412.5 145.5Q425 184 425 237V265Q425 306 413 339Q401 372 379 395Q357 418 326 430.5Q295 443 258 443Q182 443 136 395Q90 347 90 265V237Q90 184 103 145.5Q116 107 138.5 82Q161 57 191.5 45Q222 33 258 33ZM258 -9Q210 -9 169 7Q128 23 97 54.5Q66 86 48.5 134Q31 182 31 245V247Q31 301 47 345.5Q63 390 92.5 421Q122 452 164 469Q206 486 258 486Q309 486 351 469Q393 452 422 421.5Q451 391 467 347Q483 303 483 249V247Q483 184 465.5 136Q448 88 417.5 55.5Q387 23 346 7Q305 -9 258 -9ZM149 558Q141 593 154.5 619.5Q168 646 204 646Q220 646 235 641Q250 636 263.5 630.5Q277 625 288.5 620Q300 615 309 615Q323 615 328 623.5Q333 632 333 652H365Q373 617 360.5 590.5Q348 564 314 564Q300 564 285 569Q270 574 256 580Q242 586 229 591Q216 596 205 596Q180 596 181 558Z" glyph-name="otilde" horiz-adv-x="515" unicode="&#245;" /><glyph d="M25 475H131Q135 457 139 437Q142 420 144.5 398.5Q147 377 147 355V343Q161 410 213 448Q265 486 334 486Q380 486 416.5 469.5Q453 453 479 422Q505 391 519 346.5Q533 302 533 247V246Q533 182 517.5 134.5Q502 87 474.5 55Q447 23 410 7Q373 -9 330 -9Q261 -9 211 28.5Q161 66 147 128V-103H225V-146H25V-103H89V424H25ZM322 35Q392 35 433.5 84Q475 133 475 238V266Q475 347 434 393Q393 439 319 439Q284 439 253 426.5Q222 414 198.5 390Q175 366 161 332Q147 298 147 255V244Q147 188 162.5 148Q178 108 202.5 83Q227 58 258.5 46.5Q290 35 322 35Z" glyph-name="p" horiz-adv-x="567" unicode="p" /><glyph d="M225 -98V301H207Q124 301 77.5 347Q31 393 31 474Q31 551 76.5 595Q122 639 200 639H450V591H384V-98H330V591H279V-98Z" glyph-name="paragraph" horiz-adv-x="478" unicode="&#182;" /><glyph d="M105 270Q105 206 117.5 152Q130 98 151 52.5Q172 7 199.5 -29Q227 -65 257 -93V-98H204Q181 -78 153.5 -44.5Q126 -11 102 36.5Q78 84 62 144Q46 204 46 277V306Q46 375 62 433.5Q78 492 102 538.5Q126 585 153.5 619Q181 653 204 673H257V668Q227 641 199.5 603.5Q172 566 151 520.5Q130 475 117.5 422.5Q105 370 105 313Z" glyph-name="parenleft" horiz-adv-x="278" unicode="(" /><glyph d="M173 305Q173 369 160.5 423Q148 477 127 522.5Q106 568 78.5 604Q51 640 21 668V673H74Q97 653 124.5 619.5Q152 586 176 538.5Q200 491 216 431Q232 371 232 298V269Q232 200 216 141.5Q200 83 176 36.5Q152 -10 124.5 -44Q97 -78 74 -98H21V-93Q51 -66 78.5 -28.5Q106 9 127 54.5Q148 100 160.5 152.5Q173 205 173 262Z" glyph-name="parenright" horiz-adv-x="278" unicode=")" /><glyph d="M81 487Q81 430 103 404Q125 378 162 378Q200 378 221.5 404Q243 430 243 487V511Q243 559 222 584.5Q201 610 162 610Q123 610 102 584.5Q81 559 81 511ZM588 145Q588 105 577 76Q566 47 547.5 27.5Q529 8 505 -1.5Q481 -11 454 -11Q427 -11 403 -1.5Q379 8 360 27.5Q341 47 330 76Q319 105 319 145V152Q319 223 357.5 262Q396 301 454 301Q512 301 550 262Q588 223 588 152ZM373 137Q373 80 395 54Q417 28 454 28Q491 28 513 54Q535 80 535 137V161Q535 209 514 234.5Q493 260 454 260Q415 260 394 234.5Q373 209 373 161ZM162 339Q135 339 111 348.5Q87 358 68.5 377.5Q50 397 39 426Q28 455 28 495V501Q28 536 38 564Q48 592 66 611.5Q84 631 108.5 641Q133 651 162 651Q221 651 259 611.5Q297 572 297 501V495Q297 455 286 426Q275 397 256.5 377.5Q238 358 213.5 348.5Q189 339 162 339ZM113 0H63L504 639H554Z" glyph-name="percent" horiz-adv-x="616" unicode="%" /><glyph d="M91 -6Q73 -6 59.5 6.5Q46 19 46 37Q46 56 59.5 68.5Q73 81 91 81Q109 81 122 68.5Q135 56 135 37Q135 19 122 6.5Q109 -6 91 -6Z" glyph-name="period" horiz-adv-x="181" unicode="." /><glyph d="M91 244Q73 244 59.5 256.5Q46 269 46 287Q46 306 59.5 318.5Q73 331 91 331Q109 331 122 318.5Q135 306 135 287Q135 269 122 256.5Q109 244 91 244Z" glyph-name="periodcentered" horiz-adv-x="181" unicode="&#183;" /><glyph d="M760 -11Q733 -11 709 -1.5Q685 8 666 27.5Q647 47 636 76Q625 105 625 145V152Q625 223 663.5 262Q702 301 760 301Q818 301 856 262Q894 223 894 152V145Q894 105 883 76Q872 47 854 27.5Q836 8 811.5 -1.5Q787 -11 760 -11ZM760 28Q797 28 819 54Q841 80 841 137V161Q841 209 820 234.5Q799 260 760 260Q721 260 700 234.5Q679 209 679 161V137Q679 80 701 54Q723 28 760 28ZM504 639H554L113 0H63ZM454 28Q491 28 513 54Q535 80 535 137V161Q535 209 514 234.5Q493 260 454 260Q415 260 394 234.5Q373 209 373 161V137Q373 80 395 54Q417 28 454 28ZM162 339Q135 339 111 348.5Q87 358 68.5 377.5Q50 397 39 426Q28 455 28 495V501Q28 536 38 564Q48 592 66 611.5Q84 631 108.5 641Q133 651 162 651Q221 651 259 611.5Q297 572 297 501V495Q297 455 286 426Q275 397 256.5 377.5Q238 358 213.5 348.5Q189 339 162 339ZM454 -11Q427 -11 403 -1.5Q379 8 360 27.5Q341 47 330 76Q319 105 319 145V152Q319 223 357.5 262Q396 301 454 301Q512 301 550 262Q588 223 588 152V145Q588 105 577 76Q566 47 547.5 27.5Q529 8 505 -1.5Q481 -11 454 -11ZM162 378Q200 378 221.5 404Q243 430 243 487V511Q243 559 222 584.5Q201 610 162 610Q123 610 102 584.5Q81 559 81 511V487Q81 430 103 404Q125 378 162 378Z" glyph-name="perthousand" horiz-adv-x="922" unicode="&#8240;" /><glyph d="M247 339H398V290H247V128H195V290H44V339H195V501H247Z" glyph-name="plus" horiz-adv-x="442" unicode="+" /><glyph d="M247 347H398V297H247V142H195V297H44V347H195V502H247ZM44 49H398V0H44Z" glyph-name="plusminus" horiz-adv-x="442" unicode="&#177;" /><glyph d="M342 -103H421V131Q413 99 396.5 73.5Q380 48 356.5 29Q333 10 303.5 0Q274 -10 240 -10Q194 -10 156 7Q118 24 91 57Q64 90 49 138Q34 186 34 248V250Q34 307 49.5 350.5Q65 394 92.5 424Q120 454 157.5 469.5Q195 485 238 485Q307 485 356.5 448.5Q406 412 421 345Q421 371 423 394.5Q425 418 428 436Q432 457 436 475H543V424H478V-103H543V-146H342ZM248 34Q279 34 310 46Q341 58 365.5 83Q390 108 405.5 146.5Q421 185 421 238V248Q421 295 407 330.5Q393 366 370 390Q347 414 315.5 426.5Q284 439 250 439Q178 439 135 395.5Q92 352 92 264V237Q92 137 133.5 85.5Q175 34 248 34Z" glyph-name="q" horiz-adv-x="567" unicode="q" /><glyph d="M292 506Q292 563 261.5 590Q231 617 175 617Q150 617 127 612Q104 607 84 599V514H32V610Q55 634 92 649.5Q129 665 183 665Q217 665 248 655.5Q279 646 302 626Q325 606 338.5 576Q352 546 352 506Q352 467 339 437.5Q326 408 306 384Q286 360 263.5 339Q241 318 221 295.5Q201 273 188 247.5Q175 222 175 189V149H127V195Q127 232 139 261Q151 290 169.5 314.5Q188 339 209.5 360Q231 381 249.5 403.5Q268 426 280 450.5Q292 475 292 506ZM198 38Q198 20 185 7.5Q172 -5 154 -5Q137 -5 123.5 7.5Q110 20 110 38Q110 57 123.5 70Q137 83 154 83Q172 83 185 70Q198 57 198 38Z" glyph-name="question" horiz-adv-x="386" unicode="?" /><glyph d="M94 39Q94 -18 124.5 -45Q155 -72 211 -72Q236 -72 259 -67Q282 -62 302 -54V31H354V-65Q331 -89 294 -104.5Q257 -120 203 -120Q168 -120 137.5 -110.5Q107 -101 84 -81Q61 -61 47.5 -31.5Q34 -2 34 39Q34 78 47 107.5Q60 137 80 161Q100 185 122.5 206Q145 227 165 249.5Q185 272 198 297.5Q211 323 211 356V396H259V350Q259 313 247 284Q235 255 216.5 230.5Q198 206 176.5 185Q155 164 136.5 141.5Q118 119 106 94.5Q94 70 94 39ZM188 507Q188 525 201 537.5Q214 550 232 550Q249 550 262.5 537.5Q276 525 276 507Q276 488 262.5 475Q249 462 232 462Q214 462 201 475Q188 488 188 507Z" glyph-name="questiondown" horiz-adv-x="386" unicode="&#191;" /><glyph d="M56 474 44 639H109L97 474ZM166 474 154 639H219L207 474Z" glyph-name="quotedbl" horiz-adv-x="263" unicode="&quot;" /><glyph d="M33 -90Q44 -57 48 -26.5Q52 4 52 27Q52 51 47 76H109Q111 66 111.5 57.5Q112 49 112 37Q112 5 101.5 -27.5Q91 -60 68 -90ZM147 -90Q158 -57 162 -26.5Q166 4 166 27Q166 39 165 52Q164 65 161 76H223Q225 66 225.5 57.5Q226 49 226 37Q226 5 215.5 -27.5Q205 -60 182 -90Z" glyph-name="quotedblbase" horiz-adv-x="275" unicode="&#8222;" /><glyph d="M51 474Q49 484 48.5 492.5Q48 501 48 513Q48 544 59 577Q70 610 93 639H128Q116 607 112.5 576Q109 545 109 522Q109 511 110 498Q111 485 114 474ZM165 474Q163 484 162.5 492.5Q162 501 162 513Q162 544 173 577Q184 610 207 639H242Q231 607 227 576Q223 545 223 522Q223 511 224 498Q225 485 228 474Z" glyph-name="quotedblleft" horiz-adv-x="275" unicode="&#8220;" /><glyph d="M33 474Q44 506 48 537Q52 568 52 591Q52 616 47 639H109Q111 629 111.5 620.5Q112 612 112 600Q112 569 101.5 536Q91 503 68 474ZM147 474Q158 506 162 537Q166 568 166 591Q166 603 165 615.5Q164 628 161 639H223Q225 629 225.5 620.5Q226 612 226 600Q226 569 215.5 536Q205 503 182 474Z" glyph-name="quotedblright" horiz-adv-x="275" unicode="&#8221;" /><glyph d="M52 474Q48 491 48 513Q48 544 59 577Q70 610 93 639H128Q116 607 112.5 576Q109 545 109 522Q109 511 110 498Q111 485 114 474Z" glyph-name="quoteleft" horiz-adv-x="160" unicode="&#8216;" /><glyph d="M33 474Q44 506 48 537Q52 568 52 591Q52 616 47 639H109Q111 629 111.5 620.5Q112 612 112 600Q112 569 101.5 536Q91 503 68 474Z" glyph-name="quoteright" horiz-adv-x="160" unicode="&#8217;" /><glyph d="M33 -90Q44 -57 48 -26.5Q52 4 52 27Q52 39 51 52Q50 65 47 76H109Q111 66 111.5 57.5Q112 49 112 37Q112 5 101.5 -27.5Q91 -60 68 -90Z" glyph-name="quotesinglbase" horiz-adv-x="160" unicode="&#8218;" /><glyph d="M56 474 44 639H109L97 474Z" glyph-name="quotesingle" horiz-adv-x="153" unicode="&apos;" /><glyph d="M25 475H131Q135 457 139 437Q142 420 144.5 398.5Q147 377 147 355V331Q159 407 196.5 444.5Q234 482 282 482Q301 482 309 478Q317 474 322 466V425Q279 427 246.5 417Q214 407 192 381.5Q170 356 158.5 313.5Q147 271 147 209V45H234V0H25V45H89V424H25Z" glyph-name="r" horiz-adv-x="352" unicode="r" /><glyph d="M182 348Q150 348 122 359.5Q94 371 73.5 391.5Q53 412 41.5 439Q30 466 30 497Q30 527 41.5 554.5Q53 582 73.5 602.5Q94 623 122 635Q150 647 182 647Q215 647 242.5 635Q270 623 290 602.5Q310 582 321.5 554.5Q333 527 333 497Q333 466 321.5 439Q310 412 290 391.5Q270 371 242.5 359.5Q215 348 182 348ZM182 373Q209 373 231.5 382.5Q254 392 270 409Q286 426 295 448.5Q304 471 304 497Q304 523 295 545.5Q286 568 270 585Q254 602 231.5 612Q209 622 182 622Q155 622 132.5 612Q110 602 93.5 585Q77 568 68 545.5Q59 523 59 497Q59 471 68 448.5Q77 426 93.5 409Q110 392 132.5 382.5Q155 373 182 373ZM159 489V423H128V578H186Q242 578 242 532Q242 512 229.5 501Q217 490 195 488L251 423H215ZM182 505Q199 505 205 511.5Q211 518 211 531Q211 542 205.5 548.5Q200 555 183 555H159V505Z" glyph-name="registered" horiz-adv-x="363" unicode="&#174;" /><glyph d="M201 576Q220 576 233.5 589Q247 602 247 625Q247 647 233.5 661Q220 675 201 675Q182 675 169 661Q156 647 156 625Q156 602 169 589Q182 576 201 576ZM201 545Q166 545 142.5 568Q119 591 119 625Q119 659 142.5 683Q166 707 201 707Q236 707 259.5 683Q283 659 283 625Q283 591 259.5 568Q236 545 201 545Z" glyph-name="ring" horiz-adv-x="400" unicode="&#730;" /><glyph d="M201 698Q220 698 233.5 711Q247 724 247 747Q247 769 233.5 782.5Q220 796 201 796Q182 796 169 782.5Q156 769 156 747Q156 724 169 711Q182 698 201 698ZM201 666Q166 666 142.5 689.5Q119 713 119 747Q119 781 142.5 805Q166 829 201 829Q236 829 259.5 805Q283 781 283 747Q283 713 259.5 689.5Q236 666 201 666Z" glyph-name="ring.uc" horiz-adv-x="400" /><glyph d="M292 430Q257 443 208 443Q158 443 126.5 422Q95 401 95 356Q95 332 102.5 316Q110 300 133 289Q152 280 174.5 275.5Q197 271 219.5 267Q242 263 264 258Q286 253 305 243Q334 228 350.5 202Q367 176 367 128Q367 95 354.5 69Q342 43 319.5 26Q297 9 266.5 0Q236 -9 200 -9Q136 -9 98.5 5.5Q61 20 35 41V128H87V53Q107 43 133 38Q159 33 195 33Q252 33 282 55.5Q312 78 312 126Q312 150 305.5 168.5Q299 187 276 198Q259 207 237.5 212Q216 217 193.5 221Q171 225 149.5 229.5Q128 234 110 242Q77 258 60 283Q43 308 43 353Q43 385 55 410Q67 435 88.5 452Q110 469 140 477.5Q170 486 205 486Q252 486 287.5 475.5Q323 465 344 448V360H292Z" glyph-name="s" horiz-adv-x="405" unicode="s" /><glyph d="M123 669 201 585 279 669H325L239 546H163L78 669ZM292 430Q257 443 208 443Q158 443 126.5 422Q95 401 95 356Q95 332 102.5 316Q110 300 133 289Q152 280 174.5 275.5Q197 271 219.5 267Q242 263 264 258Q286 253 305 243Q334 228 350.5 202Q367 176 367 128Q367 95 354.5 69Q342 43 319.5 26Q297 9 266.5 0Q236 -9 200 -9Q136 -9 98.5 5.5Q61 20 35 41V128H87V53Q107 43 133 38Q159 33 195 33Q252 33 282 55.5Q312 78 312 126Q312 150 305.5 168.5Q299 187 276 198Q259 207 237.5 212Q216 217 193.5 221Q171 225 149.5 229.5Q128 234 110 242Q77 258 60 283Q43 308 43 353Q43 385 55 410Q67 435 88.5 452Q110 469 140 477.5Q170 486 205 486Q252 486 287.5 475.5Q323 465 344 448V360H292Z" glyph-name="scaron" horiz-adv-x="405" unicode="&#353;" /><glyph d="M381 523H331V590Q314 596 294.5 599.5Q275 603 251 603Q202 603 173 581.5Q144 560 144 517Q144 494 153.5 477Q163 460 186 449Q204 440 228 433.5Q252 427 277.5 421Q303 415 329.5 408Q356 401 380 391Q411 377 432 351Q453 325 453 286Q453 235 422 206Q391 177 342 166Q368 151 383.5 126.5Q399 102 399 61Q399 28 387 2Q375 -24 353.5 -41.5Q332 -59 302 -68Q272 -77 237 -77Q174 -77 135.5 -60Q97 -43 75 -23V59H126V-11Q146 -21 172 -26.5Q198 -32 233 -32Q342 -32 342 58Q342 82 332.5 99Q323 116 300 128Q284 136 260 142.5Q236 149 209 156Q182 163 155.5 171Q129 179 108 189Q74 204 53 230Q32 256 32 295Q32 345 64.5 372.5Q97 400 151 407Q122 421 106 448Q90 475 90 515Q90 580 133.5 614.5Q177 649 247 649Q298 649 330.5 636.5Q363 624 381 607ZM306 189Q322 189 338.5 194.5Q355 200 368 211Q381 222 389.5 237Q398 252 398 272Q398 300 386 317.5Q374 335 346 346Q327 354 303 361Q279 368 255.5 373.5Q232 379 211.5 382.5Q191 386 180 386Q161 386 144 380.5Q127 375 113.5 365Q100 355 92 340Q84 325 84 307Q84 282 96.5 265.5Q109 249 134 237Q150 229 174.5 220.5Q199 212 224.5 205Q250 198 272 193.5Q294 189 306 189Z" glyph-name="section" horiz-adv-x="485" unicode="&#167;" /><glyph d="M42 -98Q56 -63 62 -30.5Q68 2 68 26Q68 39 66.5 52Q65 65 63 77H127Q129 66 130 57.5Q131 49 131 37Q131 -34 76 -98ZM93 295Q75 295 61.5 307.5Q48 320 48 338Q48 357 61.5 369.5Q75 382 93 382Q111 382 124 369.5Q137 357 137 338Q137 320 124 307.5Q111 295 93 295Z" glyph-name="semicolon" horiz-adv-x="181" unicode=";" /><glyph d="M28 479V639H439V568L200 0H138L386 587H81V479Z" glyph-name="seven" horiz-adv-x="468" unicode="7" /><glyph d="M413 634Q351 607 297 571Q243 535 202 492Q161 449 134.5 399Q108 349 101 294Q121 341 166 370Q211 399 279 399Q327 399 365 383.5Q403 368 429.5 341Q456 314 469.5 277Q483 240 483 198V193Q483 147 468 109Q453 71 425.5 44Q398 17 357.5 2Q317 -13 266 -13Q216 -13 174.5 3Q133 19 103 49.5Q73 80 56 123.5Q39 167 39 222V244Q39 324 67.5 388.5Q96 453 138.5 502.5Q181 552 229.5 586.5Q278 621 319 639H413ZM268 354Q233 354 202.5 343.5Q172 333 149.5 314Q127 295 113.5 269Q100 243 99 213V194Q99 123 142.5 79Q186 35 266 35Q343 35 383 77.5Q423 120 423 191V199Q423 233 414 261.5Q405 290 386 310.5Q367 331 337.5 342.5Q308 354 268 354Z" glyph-name="six" horiz-adv-x="519" unicode="6" /><glyph d="M56 -98H3L237 673H290Z" glyph-name="slash" horiz-adv-x="310" unicode="/" /><glyph glyph-name="space" horiz-adv-x="182" unicode=" " /><glyph d="M153 -164Q165 -141 169.5 -120.5Q174 -100 174 -83Q174 -62 170 -47H227Q229 -52 230 -58.5Q231 -65 231 -74Q231 -99 221 -122.5Q211 -146 191 -164Z" glyph-name="space_uni0326" horiz-adv-x="400" /><glyph d="M46 341H102V456Q102 502 116 538.5Q130 575 155.5 600Q181 625 216 638Q251 651 293 651Q324 651 348 645.5Q372 640 390 631.5Q408 623 420 612.5Q432 602 440 592V497H387V580Q369 589 347.5 594.5Q326 600 297 600Q234 600 196.5 564.5Q159 529 159 450V341H340V294H159V230Q159 193 152 165Q145 137 132 115.5Q119 94 100.5 78.5Q82 63 60 51V50H395V135H448V0H26V76Q65 99 83.5 132Q102 165 102 226V294H46Z" glyph-name="sterling" horiz-adv-x="490" unicode="&#163;" /><glyph d="M225 -9Q198 -9 173.5 -2Q149 5 131 21.5Q113 38 102 65Q91 92 91 132V429H23V461Q50 463 65.5 469.5Q81 476 90 491Q99 506 103.5 531.5Q108 557 112 597H148V475H306V429H148V132Q148 77 170 57.5Q192 38 230 38Q259 38 279 44.5Q299 51 317 62V29Q309 16 286.5 3.5Q264 -9 225 -9Z" glyph-name="t" horiz-adv-x="344" unicode="t" /><glyph d="M314 -9Q244 -9 194.5 29Q145 67 130 128V-103H209V-146H8V-103H73V625H6V673H130V343Q137 376 154.5 402.5Q172 429 196.5 447.5Q221 466 252 476Q283 486 318 486Q363 486 400 469.5Q437 453 463 422Q489 391 503 346.5Q517 302 517 247V246Q517 182 501.5 134.5Q486 87 458.5 55Q431 23 394 7Q357 -9 314 -9ZM305 35Q375 35 416.5 84Q458 133 458 238V266Q458 347 417 393Q376 439 302 439Q267 439 236 426.5Q205 414 181.5 390Q158 366 144 332Q130 298 130 255V244Q130 188 145.5 148Q161 108 185.5 83Q210 58 241.5 46.5Q273 35 305 35Z" glyph-name="thorn" horiz-adv-x="551" unicode="&#254;" /><glyph d="M218 651Q261 651 296.5 639.5Q332 628 357 606.5Q382 585 395.5 555Q409 525 409 489Q409 423 374.5 383.5Q340 344 278 334V332Q350 325 391 281.5Q432 238 432 165Q432 86 376.5 38.5Q321 -9 220 -9Q180 -9 149 -3Q118 3 94 13Q70 23 53 35.5Q36 48 24 61V110Q58 78 102.5 59.5Q147 41 218 41Q297 41 334.5 76.5Q372 112 372 177Q372 240 334 274Q296 308 211 308H132V356H211Q281 356 315.5 388.5Q350 421 350 479Q350 537 316 568Q282 599 215 599Q155 599 116 582.5Q77 566 43 541V587Q66 610 108 630.5Q150 651 218 651Z" glyph-name="three" horiz-adv-x="470" unicode="3" /><glyph d="M608 372V143H658V105H608V36H658V0H508V36H560V105H390V156L538 372ZM137 647Q188 647 221 621Q254 595 254 550Q254 512 233 489Q212 466 172 461V459Q217 455 242 430.5Q267 406 267 363Q267 316 232.5 289Q198 262 138 262Q90 262 62.5 275Q35 288 21 303V340Q41 323 66.5 312Q92 301 133 301Q175 301 196 320Q217 339 217 373Q217 406 196 423.5Q175 441 130 441H84V478H129Q168 478 186.5 495Q205 512 205 542Q205 604 130 604Q96 604 74 595.5Q52 587 33 573V608Q47 622 72 634.5Q97 647 137 647ZM154 0H106L578 639H626ZM425 143H560V338Z" glyph-name="threequarters" horiz-adv-x="683" unicode="&#190;" /><glyph d="M92 558Q84 593 97.5 619.5Q111 646 147 646Q163 646 178 641Q193 636 206.5 630.5Q220 625 231.5 620Q243 615 252 615Q266 615 271 623.5Q276 632 276 652H308Q316 617 303.5 590.5Q291 564 257 564Q243 564 228 569Q213 574 199 580Q185 586 172 591Q159 596 148 596Q123 596 124 558Z" glyph-name="tilde" horiz-adv-x="400" unicode="&#732;" /><glyph d="M84 687Q76 724 91 750Q106 776 142 776Q160 776 176 771Q192 766 206.5 760Q221 754 234 749Q247 744 258 744Q272 744 277.5 753Q283 762 283 782H315Q323 745 310 719Q297 693 262 693Q246 693 230 698Q214 703 198.5 709Q183 715 169 720Q155 725 143 725Q116 725 117 687Z" glyph-name="tilde.uc" horiz-adv-x="400" /><glyph d="M245 639H331L387 467L441 639H530V608H506V450H530V421H441V450H466V605L405 421H365L304 608H303V450H330V421H245V450H269V608H245ZM184 606H144V450H173V421H74V450H104V606H63V564H29V639H218V564H184Z" glyph-name="trademark" horiz-adv-x="556" unicode="&#8482;" /><glyph d="M29 73Q104 125 164 174Q224 223 266 271Q308 319 331 367Q354 415 354 464Q354 500 343.5 525.5Q333 551 314.5 567.5Q296 584 271 591.5Q246 599 217 599Q159 599 116.5 579Q74 559 42 530V579Q65 607 108.5 629Q152 651 219 651Q260 651 295.5 640Q331 629 357.5 606Q384 583 399 547.5Q414 512 414 463Q414 407 388.5 354.5Q363 302 317.5 251.5Q272 201 208.5 151Q145 101 70 51V50H373V135H426V0H29Z" glyph-name="two" horiz-adv-x="467" unicode="2" /><glyph d="M424 0Q420 18 416 38Q413 55 410.5 76Q408 97 408 120V131Q402 95 386 68.5Q370 42 347.5 24.5Q325 7 298 -1.5Q271 -10 242 -10Q159 -10 121.5 36.5Q84 83 84 169V424H25V475H141V159Q141 99 165 67.5Q189 36 251 36Q284 36 312.5 48.5Q341 61 362 83.5Q383 106 395 138Q407 170 408 209V424H339V475H466V45H530V0Z" glyph-name="u" horiz-adv-x="555" unicode="u" /><glyph d="M309 666H392L280 543H235ZM424 0Q420 18 416 38Q413 55 410.5 76Q408 97 408 120V131Q402 95 386 68.5Q370 42 347.5 24.5Q325 7 298 -1.5Q271 -10 242 -10Q159 -10 121.5 36.5Q84 83 84 169V424H25V475H141V159Q141 99 165 67.5Q189 36 251 36Q284 36 312.5 48.5Q341 61 362 83.5Q383 106 395 138Q407 170 408 209V424H339V475H466V45H530V0Z" glyph-name="uacute" horiz-adv-x="555" unicode="&#250;" /><glyph d="M230 666H306L392 543H346L268 627L190 543H145ZM424 0Q420 18 416 38Q413 55 410.5 76Q408 97 408 120V131Q402 95 386 68.5Q370 42 347.5 24.5Q325 7 298 -1.5Q271 -10 242 -10Q159 -10 121.5 36.5Q84 83 84 169V424H25V475H141V159Q141 99 165 67.5Q189 36 251 36Q284 36 312.5 48.5Q341 61 362 83.5Q383 106 395 138Q407 170 408 209V424H339V475H466V45H530V0Z" glyph-name="ucircumflex" horiz-adv-x="555" unicode="&#251;" /><glyph d="M192 563Q175 563 163.5 574Q152 585 152 602Q152 619 163.5 630.5Q175 642 192 642Q209 642 220.5 630.5Q232 619 232 602Q232 585 220.5 574Q209 563 192 563ZM344 563Q327 563 315.5 574Q304 585 304 602Q304 619 315.5 630.5Q327 642 344 642Q361 642 372.5 630.5Q384 619 384 602Q384 585 372.5 574Q361 563 344 563ZM424 0Q420 18 416 38Q413 55 410.5 76Q408 97 408 120V131Q402 95 386 68.5Q370 42 347.5 24.5Q325 7 298 -1.5Q271 -10 242 -10Q159 -10 121.5 36.5Q84 83 84 169V424H25V475H141V159Q141 99 165 67.5Q189 36 251 36Q284 36 312.5 48.5Q341 61 362 83.5Q383 106 395 138Q407 170 408 209V424H339V475H466V45H530V0Z" glyph-name="udieresis" horiz-adv-x="555" unicode="&#252;" /><glyph d="M424 0Q420 18 416 38Q413 55 410.5 76Q408 97 408 120V131Q402 95 386 68.5Q370 42 347.5 24.5Q325 7 298 -1.5Q271 -10 242 -10Q159 -10 121.5 36.5Q84 83 84 169V424H25V475H141V159Q141 99 165 67.5Q189 36 251 36Q284 36 312.5 48.5Q341 61 362 83.5Q383 106 395 138Q407 170 408 209V424H339V475H466V45H530V0ZM144 666H227L301 543H256Z" glyph-name="ugrave" horiz-adv-x="555" unicode="&#249;" /><glyph d="M-8 -91H359V-134H-8Z" glyph-name="underscore" horiz-adv-x="351" unicode="_" /><glyph glyph-name="uni00A0" horiz-adv-x="182" unicode="&#160;" /><glyph d="M336 475H512V424H466L308 0H225L64 424H18V475H195V424H125L269 34L409 424H336Z" glyph-name="v" horiz-adv-x="530" unicode="v" /><glyph d="M370 403 259 0H177L58 424H17V475H192V424H116L221 37L342 475H401L521 37L623 424H546V475H720V424H678L562 0H478Z" glyph-name="w" horiz-adv-x="736" unicode="w" /><glyph d="M307 43H391L257 215L122 43H211V0H24V45H65L222 243L81 424H24V475H214V427H146L265 273L383 427H312V475H498V424H437L300 245L456 45H498V0H307Z" glyph-name="x" horiz-adv-x="522" unicode="x" /><glyph d="M335 475H509V424H462L297 -21Q271 -92 239.5 -122.5Q208 -153 156 -153Q124 -153 102.5 -145.5Q81 -138 70 -125V-95Q84 -100 102.5 -103.5Q121 -107 144 -107Q181 -107 205.5 -89.5Q230 -72 244 -33L256 0H225L63 424H18V475H195V424H123L268 35L407 424H335Z" glyph-name="y" horiz-adv-x="527" unicode="y" /><glyph d="M335 475H509V424H462L297 -21Q271 -92 239.5 -122.5Q208 -153 156 -153Q124 -153 102.5 -145.5Q81 -138 70 -125V-95Q84 -100 102.5 -103.5Q121 -107 144 -107Q181 -107 205.5 -89.5Q230 -72 244 -33L256 0H225L63 424H18V475H195V424H123L268 35L407 424H335ZM307 666H390L278 543H233Z" glyph-name="yacute" horiz-adv-x="527" unicode="&#253;" /><glyph d="M335 475H509V424H462L297 -21Q271 -92 239.5 -122.5Q208 -153 156 -153Q124 -153 102.5 -145.5Q81 -138 70 -125V-95Q84 -100 102.5 -103.5Q121 -107 144 -107Q181 -107 205.5 -89.5Q230 -72 244 -33L256 0H225L63 424H18V475H195V424H123L268 35L407 424H335ZM190 563Q173 563 161.5 574Q150 585 150 602Q150 619 161.5 630.5Q173 642 190 642Q207 642 218.5 630.5Q230 619 230 602Q230 585 218.5 574Q207 563 190 563ZM342 563Q325 563 313.5 574Q302 585 302 602Q302 619 313.5 630.5Q325 642 342 642Q359 642 370.5 630.5Q382 619 382 602Q382 585 370.5 574Q359 563 342 563Z" glyph-name="ydieresis" horiz-adv-x="527" unicode="&#255;" /><glyph d="M474 265H299V202H474V160H299V45H388V0H151V45H240V160H73V202H240V265H73V308H226L71 593H24V639H222V593H133L271 334L409 593H319V639H514V593H467L311 308H474Z" glyph-name="yen" horiz-adv-x="539" unicode="&#165;" /><glyph d="M46 475H405V416L86 45H354V136H405V0H32V59L350 430H97V351H46Z" glyph-name="z" horiz-adv-x="441" unicode="z" /><glyph d="M151 669 229 585 307 669H353L267 546H191L106 669ZM46 475H405V416L86 45H354V136H405V0H32V59L350 430H97V351H46Z" glyph-name="zcaron" horiz-adv-x="441" unicode="&#382;" /><glyph d="M284 -13Q234 -13 190 6.5Q146 26 112 66Q78 106 58.5 166.5Q39 227 39 309V352Q39 425 56.5 481Q74 537 106.5 574.5Q139 612 184 631.5Q229 651 284 651Q339 651 384 631.5Q429 612 461.5 574.5Q494 537 511.5 481Q529 425 529 352V309Q529 227 509.5 166.5Q490 106 456.5 66Q423 26 378.5 6.5Q334 -13 284 -13ZM284 37Q368 37 418.5 102Q469 167 469 300V372Q469 478 422 538.5Q375 599 284 599Q194 599 146.5 538.5Q99 478 99 372V300Q99 167 150 102Q201 37 284 37Z" glyph-name="zero" horiz-adv-x="568" unicode="0" /></font>
</defs>
</svg>
