<?xml version="1.0" standalone="no"?>
<!DOCTYPE svg PUBLIC "-//W3C//DTD SVG 1.1//EN" "http://www.w3.org/Graphics/SVG/1.1/DTD/svg11.dtd" >
<svg xmlns="http://www.w3.org/2000/svg">
<metadata>
This is a custom SVG webfont generated by Font Squirrel.
Copyright   : Copyright c 2011 by Commercial Type All rights reserved
Designer    : Vincent Chan and Christian Schwartz
Foundry     : Commercial Type
Foundry URL : httpcommercialtypecom
</metadata>
<defs>
<font id="FCKaiserCondWebRegular" horiz-adv-x="671" >
<font-face units-per-em="2048" ascent="1772" descent="-276" />
<missing-glyph horiz-adv-x="184" />
<glyph unicode=" "  horiz-adv-x="184" />
<glyph unicode="&#x09;" horiz-adv-x="184" />
<glyph unicode="&#xa0;" horiz-adv-x="184" />
<glyph unicode="!" horiz-adv-x="284" d="M57 0v190h170v-190h-170zM57 340v1151h170v-1151h-170z" />
<glyph unicode="&#x22;" horiz-adv-x="438" d="M49 1149v342h139v-342h-139zM260 1149v342h141v-342h-141z" />
<glyph unicode="#" horiz-adv-x="782" d="M35 508v158h131l16 233h-121v158h132l28 434h152l-31 -434h135l29 434h149l-28 -434h121v-158h-132l-14 -233h121v-158h-131l-33 -508h-151l32 508h-135l-33 -508h-149l33 508h-121zM315 666h136l16 233h-135z" />
<glyph unicode="$" horiz-adv-x="696" d="M45 295v237h170v-237q0 -82 38 -121t91 -39h10q53 0 91 39t38 121v162q0 70 -19.5 111.5t-72.5 76.5l-196 139q-78 53 -112 120t-34 175v135q0 117 56.5 193t166.5 94v139h158v-139q106 -20 162.5 -94t56.5 -186v-207h-170v200q0 68 -35.5 105t-89.5 37h-10 q-53 0 -88 -37t-35 -105v-120q0 -59 14.5 -96t63.5 -70l199 -142q43 -29 73.5 -58.5t49 -66t26.5 -85t8 -113.5v-168q0 -129 -59 -208t-166 -97v-140h-158v140q-111 18 -169 96t-58 209z" />
<glyph unicode="%" horiz-adv-x="942" d="M25 1036v238q0 111 51 169t151 58h11q98 0 150 -58.5t52 -168.5v-238q0 -113 -53 -171t-149 -58h-11q-202 0 -202 229zM37 0l727 1491h139l-727 -1491h-139zM154 1028q0 -102 75 -102h7q76 0 75 102v252q0 104 -75 104h-7q-76 0 -75 -104v-252zM502 217v238q0 111 51 170 t152 59h10q98 0 150.5 -59.5t52.5 -169.5v-238q0 -111 -53.5 -170t-149.5 -59h-10q-100 0 -151.5 59t-51.5 170zM631 209q0 -102 76 -103h6q76 0 75 103v254q0 104 -75 104h-6q-76 0 -76 -104v-254z" />
<glyph unicode="&#x26;" horiz-adv-x="772" d="M43 326v209q0 221 158 266q-145 47 -146 254v131q0 145 72 233t219 88h14q145 0 217 -78.5t72 -211.5v-203h-172v203q0 139 -117 139h-12q-59 0 -88 -45t-29 -129v-146q0 -76 28 -123t91 -47h406v-143h-107v-723h-321q-147 0 -216 89.5t-69 236.5zM217 326 q0 -82 36 -131.5t95 -49.5h131v578h-133q-66 0 -97.5 -45t-31.5 -127v-225z" />
<glyph unicode="'" horiz-adv-x="243" d="M51 1149v342h142v-342h-142z" />
<glyph unicode="(" horiz-adv-x="397" d="M57 145v1029q0 172 74 266t203 94h22v-141h-2q-61 -2 -101 -58.5t-40 -167.5v-1017q0 -111 40 -167.5t101 -56.5h4v-143h-20q-133 0 -207 95t-74 267z" />
<glyph unicode=")" horiz-adv-x="397" d="M39 -74h4q61 0 101 56.5t40 167.5v1017q0 111 -40 167.5t-101 58.5h-2v141h22q129 0 203 -94t74 -266v-1029q0 -172 -73.5 -267t-207.5 -95h-20v143z" />
<glyph unicode="*" horiz-adv-x="450" d="M16 1223l117 69l-117 72l58 86l102 -68l-2 123h107l-5 -123l105 66l55 -86l-114 -70l114 -69l-55 -90l-105 67l5 -121h-109l4 121l-102 -67z" />
<glyph unicode="+" horiz-adv-x="667" d="M47 602v141h211v248h152v-248h211v-141h-211v-250h-152v250h-211z" />
<glyph unicode="," horiz-adv-x="284" d="M57 -141v331h170l-39 -331h-131z" />
<glyph unicode="-" horiz-adv-x="468" d="M51 543v145h367v-145h-367z" />
<glyph unicode="." horiz-adv-x="288" d="M57 0v190h174v-190h-174z" />
<glyph unicode="/" horiz-adv-x="495" d="M12 -225l291 1763h156l-291 -1763h-156z" />
<glyph unicode="0" horiz-adv-x="724" d="M55 293v907q0 147 79 227t220 80h15q139 0 221 -79.5t82 -227.5v-907q0 -147 -82 -228t-221 -81h-15q-141 0 -220 81t-79 228zM227 295q0 -84 37 -122t94 -38h9q53 0 91 38t38 122v901q0 84 -38 122t-91 38h-9q-57 0 -94 -38t-37 -122v-901z" />
<glyph unicode="1" horiz-adv-x="372" d="M18 1341v150h289v-1491h-170v1341h-119z" />
<glyph unicode="2" d="M37 0v279q0 47 5 83.5t16.5 67.5t29.5 60.5t45 62.5l266 340q41 51 53.5 89t12.5 97v135q0 68 -35 105t-88 37h-10q-53 0 -87 -37t-34 -105v-200h-172v207q0 131 74.5 208.5t216.5 77.5h16q141 0 217 -78.5t76 -214.5v-141q0 -49 -6 -84t-19.5 -65.5t-33.5 -59.5l-48 -65 l-260 -332q-20 -27 -32.5 -48.5t-18.5 -43t-8 -45t-2 -54.5v-126h424v-150h-598z" />
<glyph unicode="3" horiz-adv-x="698" d="M43 1014v184q0 147 76 228t217 81h16q139 0 218 -80.5t79 -228.5v-143q0 -104 -34.5 -168t-112.5 -86q152 -45 151 -266v-240q0 -150 -79.5 -230.5t-219.5 -80.5h-16q-141 0 -218 80.5t-77 228.5v239h166v-235q0 -86 39 -124t92 -38h10q51 0 90 38t39 124v252 q0 82 -30.5 127t-108.5 45h-70v147h70q76 0 105.5 46.5t29.5 121.5v158q0 86 -38 124t-89 38h-10q-53 0 -90 -38t-37 -124v-180h-168z" />
<glyph unicode="4" horiz-adv-x="714" d="M25 262v137l313 1092h260v-1083h96l-2 -146h-94v-262h-166v262h-407zM188 408h244v907z" />
<glyph unicode="5" horiz-adv-x="696" d="M55 834v657h590v-150h-422v-356h142q143 0 213.5 -78t70.5 -227v-385q0 -152 -74.5 -231.5t-214.5 -79.5h-16q-141 0 -214 80.5t-73 230.5v237h172v-237q0 -84 33 -122t86 -38h10q53 0 86 38t33 122v379q0 86 -32.5 123t-104.5 37h-285z" />
<glyph unicode="6" horiz-adv-x="708" d="M49 293v905q0 147 79 228t218 81h16q137 0 216 -80.5t79 -228.5v-184h-170v182q0 84 -36.5 122t-90.5 38h-8q-57 0 -93 -38t-36 -122v-315h158q141 0 211 -80t70 -228v-280q0 -147 -81 -228t-221 -81h-14q-139 0 -218 81t-79 228zM223 297q0 -84 37 -123t90 -39h10 q53 0 90 39t37 123v270q0 164 -135 164h-129v-434z" />
<glyph unicode="7" horiz-adv-x="647" d="M16 1341v150h607v-117l-306 -1374h-180l309 1341h-430z" />
<glyph unicode="8" horiz-adv-x="694" d="M41 293v303q0 92 38 155.5t118 90.5q-84 25 -118 94.5t-34 159.5v104q0 147 79 227t216 80h14q137 0 217 -79.5t80 -227.5v-104q0 -92 -34.5 -161t-118.5 -93q80 -27 118.5 -90.5t38.5 -155.5v-303q0 -147 -79.5 -228t-221.5 -81h-14q-141 0 -220 81t-79 228zM213 295 q0 -84 37 -122t92 -38h10q55 0 92 38t37 122v309q0 84 -36.5 122t-92.5 38h-10q-55 0 -92 -38t-37 -122v-309zM217 1069q0 -82 35 -121t90 -39h10q55 0 91 39t36 121v127q0 84 -35.5 122t-91.5 38h-10q-55 0 -90 -38t-35 -122v-127z" />
<glyph unicode="9" horiz-adv-x="712" d="M47 918v280q0 147 81 228t220 81h14q139 0 218 -80.5t79 -228.5v-905q0 -147 -77.5 -228t-219.5 -81h-16q-137 0 -216 80.5t-79 228.5v184h170v-182q0 -84 37 -122t90 -38h10q55 0 92 38t37 122v315h-159q-141 0 -211 80.5t-70 227.5zM221 926q0 -164 135 -164h131v432 q0 84 -37.5 123t-91.5 39h-10q-53 0 -90 -39t-37 -123v-268z" />
<glyph unicode=":" horiz-adv-x="290" d="M57 0v190h174v-190h-174zM57 780v189h174v-189h-174z" />
<glyph unicode=";" horiz-adv-x="290" d="M57 -141v331h170l-39 -331h-131zM57 778v191h174v-191h-174z" />
<glyph unicode="&#x3c;" horiz-adv-x="681" d="M53 602v156l555 266v-168l-401 -176l401 -176v-168z" />
<glyph unicode="=" horiz-adv-x="665" d="M47 492v143h571v-143h-571zM47 737v146h571v-146h-571z" />
<glyph unicode="&#x3e;" horiz-adv-x="681" d="M74 336v168l399 176l-399 176v168l555 -266v-156z" />
<glyph unicode="?" horiz-adv-x="655" d="M43 1016v205q0 129 64.5 207.5t203.5 78.5h19q141 0 206.5 -79.5t65.5 -210.5v-302q0 -135 -58.5 -206.5t-168.5 -71.5h-6v-324h-164v451h96q133 0 133 145v314q0 61 -27.5 99t-80.5 38h-11q-53 0 -79.5 -38t-26.5 -99v-207h-166zM199 0v190h172v-190h-172z" />
<glyph unicode="@" horiz-adv-x="1179" d="M53 246v674q0 279 144.5 423t408.5 144h25q258 0 375.5 -123t117.5 -389v-639q0 -166 -80.5 -251t-212.5 -85h-260q-117 0 -181 75t-64 222v571q0 147 64.5 222t182.5 75h267v-1024q80 2 114.5 46t34.5 141v645q0 117 -24.5 193.5t-70.5 121.5t-113.5 63.5t-153.5 18.5 h-21q-90 0 -165.5 -26.5t-131 -82t-87.5 -140.5t-32 -201v-672q0 -225 109 -330.5t289 -105.5h229v-115h-231q-113 0 -210 31.5t-169 98.5t-113 170.5t-41 248.5zM494 295q0 -76 23.5 -114t80.5 -38h76v875h-72q-109 0 -108 -146v-577z" />
<glyph unicode="A" horiz-adv-x="677" d="M6 0l213 1491h242l211 -1491h-176l-33 248h-256l-31 -248h-170zM227 397h217l-108 858z" />
<glyph unicode="B" horiz-adv-x="708" d="M57 0v1491h316q76 0 128 -22.5t86 -64.5t49 -100.5t15 -129.5v-117q0 -209 -145 -256q160 -45 160 -266v-201q0 -150 -65.5 -242t-215.5 -92h-328zM231 868h123q63 0 93 46.5t30 121.5v135q0 170 -125 170h-121v-473zM231 150h134q63 0 95 48t32 130v221q0 82 -32 127 t-98 45h-131v-571z" />
<glyph unicode="C" horiz-adv-x="722" d="M55 293v907q0 147 79 227t220 80h17q137 0 218 -80.5t81 -228.5v-184h-170v180q0 86 -39 124t-92 38h-9q-55 0 -94 -38t-39 -124v-897q0 -86 39 -124t94 -38h11q53 0 93 38t40 124v235h166v-239q0 -147 -81 -228t-218 -81h-17q-141 0 -220 81t-79 228z" />
<glyph unicode="D" horiz-adv-x="718" d="M57 0v1491h328q152 0 217.5 -91t65.5 -243v-825q0 -150 -65.5 -241t-217.5 -91h-328zM231 150h140q59 0 92 46t33 128v843q0 82 -33 128t-92 46h-140v-1191z" />
<glyph unicode="E" horiz-adv-x="567" d="M57 0v1491h467v-150h-293v-419h283v-150h-283v-622h293v-150h-467z" />
<glyph unicode="F" horiz-adv-x="550" d="M57 0v1491h467v-150h-293v-426h283v-151h-283v-764h-174z" />
<glyph unicode="G" horiz-adv-x="720" d="M55 303v897q0 147 79 227t220 80h17q137 0 217 -80.5t80 -228.5v-184h-170v182q0 84 -38 122t-91 38h-11q-57 0 -93 -38t-36 -122v-895q0 -84 33 -119t96 -35h140v465h-115v150h281v-762h-310q-299 0 -299 303z" />
<glyph unicode="H" horiz-adv-x="737" d="M59 0v1491h174v-627h271v627h174v-1491h-174v715h-271v-715h-174z" />
<glyph unicode="I" horiz-adv-x="288" d="M57 0v1491h172v-1491h-172z" />
<glyph unicode="J" horiz-adv-x="432" d="M25 0v150h75q45 0 74 32.5t29 108.5v1200h174v-1198q0 -145 -56.5 -219t-185.5 -74h-110z" />
<glyph unicode="K" horiz-adv-x="673" d="M57 0v1491h174v-688l248 688h180l-262 -709l269 -782h-183l-252 743v-743h-174z" />
<glyph unicode="L" horiz-adv-x="540" d="M57 0v1491h174v-1339h287v-152h-461z" />
<glyph unicode="M" horiz-adv-x="989" d="M57 0v1491h291l133 -1090l19 -221l16 221l119 1090h297v-1491h-160v1395l-24 -246l-144 -1149h-217l-151 1149l-23 235v-1384h-156z" />
<glyph unicode="N" horiz-adv-x="788" d="M57 0v1491h260l205 -954l53 -312v1266h158v-1491h-256l-209 967l-53 319v-1286h-158z" />
<glyph unicode="O" horiz-adv-x="727" d="M55 293v907q0 147 80 227t219 80h19q137 0 219 -79.5t82 -227.5v-907q0 -147 -82 -228t-219 -81h-19q-141 0 -220 81t-79 228zM227 295q0 -84 38 -122t93 -38h11q53 0 92 38t39 122v901q0 84 -39 122t-92 38h-11q-55 0 -93 -38t-38 -122v-901z" />
<glyph unicode="P" horiz-adv-x="681" d="M57 0v1491h314q78 0 132 -22.5t88 -64.5t48 -101.5t14 -135.5v-151q0 -78 -14 -140.5t-48 -106.5t-88 -68.5t-132 -24.5h-140v-676h-174zM231 825h125q63 0 93 50.5t30 130.5v170q0 80 -29.5 122.5t-93.5 42.5h-125v-516z" />
<glyph unicode="Q" horiz-adv-x="729" d="M55 293v907q0 147 80 227t219 80h19q137 0 219 -79.5t82 -227.5v-907q0 -127 -60.5 -204t-164.5 -97v-170h-168v168q-109 20 -167.5 97t-58.5 206zM227 295q0 -84 38 -122t93 -38h11q53 0 92 38t39 122v901q0 84 -39 122t-92 38h-11q-55 0 -93 -38t-38 -122v-901z" />
<glyph unicode="R" horiz-adv-x="696" d="M61 0v1491h314q150 0 213 -87t63 -233v-110q0 -207 -147 -256q72 -20 104.5 -73.5t32.5 -149.5v-582h-174v598q0 127 -111 127h-123v-725h-172zM233 874h125q63 0 92 49.5t29 127.5v123q0 168 -125 167h-121v-467z" />
<glyph unicode="S" horiz-adv-x="690" d="M39 295v237h170v-237q0 -82 37 -121t90 -39h12q53 0 91 39t38 121v162q0 70 -19.5 111.5t-72.5 76.5l-197 139q-78 53 -111.5 119t-33.5 176v135q0 135 75 214t216 79h18q141 0 216 -77.5t75 -208.5v-207h-170v200q0 68 -36 105t-89 37h-10q-53 0 -89 -37t-36 -105v-120 q0 -59 15.5 -96t64.5 -70l199 -142q43 -29 73.5 -58.5t49 -66t26.5 -85t8 -113.5v-168q0 -150 -77.5 -230.5t-219.5 -80.5h-18q-141 0 -218 80.5t-77 230.5z" />
<glyph unicode="T" horiz-adv-x="612" d="M18 1339v152h576v-152h-201v-1339h-174v1339h-201z" />
<glyph unicode="U" horiz-adv-x="729" d="M55 293v1198h172v-1194q0 -86 38 -123t93 -37h11q53 0 92 37t39 123v1194h174v-1198q0 -147 -81 -227t-220 -80h-19q-141 0 -220 80t-79 227z" />
<glyph unicode="V" horiz-adv-x="696" d="M6 1491h176l170 -1274l166 1274h170l-217 -1491h-240z" />
<glyph unicode="W" horiz-adv-x="1071" d="M16 1491h172l80 -967l21 -309l30 309l111 967h219l113 -967l33 -309l20 309l74 967h164l-133 -1491h-246l-113 983l-26 293l-25 -293l-109 -983h-243z" />
<glyph unicode="X" horiz-adv-x="712" d="M8 0l230 784l-215 707h180l151 -561l154 561h172l-213 -696l233 -795h-178l-170 635l-168 -635h-176z" />
<glyph unicode="Y" horiz-adv-x="661" d="M6 1491h176l160 -680l145 680h168l-225 -924v-567h-176v549z" />
<glyph unicode="Z" horiz-adv-x="595" d="M37 0v152l350 1187h-344v152h516v-152l-350 -1187h350v-152h-522z" />
<glyph unicode="[" horiz-adv-x="385" d="M57 -211v1739h291v-142h-135v-1454h135v-143h-291z" />
<glyph unicode="\" horiz-adv-x="497" d="M37 1538h156l290 -1763h-155z" />
<glyph unicode="]" horiz-adv-x="385" d="M37 -68h135v1454h-135v142h291v-1739h-291v143z" />
<glyph unicode="^" horiz-adv-x="622" d="M14 885l195 606h199l200 -606h-151l-148 452l-137 -452h-158z" />
<glyph unicode="_" horiz-adv-x="579" d="M12 -74h555v-131h-555v131z" />
<glyph unicode="`" horiz-adv-x="821" d="M268 1315v153l305 -90v-139z" />
<glyph unicode="a" horiz-adv-x="638" d="M39 283v112q0 143 60.5 211t195.5 68h123v237q0 117 -92 117h-9q-41 0 -66.5 -29.5t-25.5 -87.5v-145h-157v133q0 279 247 279h11q258 0 258 -279v-899h-289q-135 0 -195.5 70t-60.5 213zM205 279q0 -70 27.5 -101t86.5 -31h99v385h-99q-115 0 -114 -133v-120z" />
<glyph unicode="b" horiz-adv-x="663" d="M55 0v1491h168v-326h154q129 0 183 -74.5t54 -222.5v-571q0 -147 -54 -222t-183 -75h-322zM223 147h117q106 0 106 146v579q0 145 -106 146h-117v-871z" />
<glyph unicode="c" horiz-adv-x="649" d="M51 279v608q0 137 71 214t202 77h12q129 0 199.5 -77t70.5 -214v-121h-162v121q0 76 -31.5 108.5t-78.5 32.5h-8q-45 0 -77 -32.5t-32 -108.5v-606q0 -78 32 -111t77 -33h8q47 0 78.5 33t31.5 111v143h162v-145q0 -139 -70.5 -215t-199.5 -76h-12q-131 0 -202 77t-71 214 z" />
<glyph unicode="d" horiz-adv-x="663" d="M51 297v571q0 147 53.5 222t184.5 75h153v326h168v-1491h-321q-131 0 -184.5 75t-53.5 222zM219 293q0 -74 24.5 -110t82.5 -36h116v871h-116q-57 0 -82 -36t-25 -110v-579z" />
<glyph unicode="e" horiz-adv-x="655" d="M51 279v608q0 137 71 214t202 77h12q129 0 200.5 -77t71.5 -214v-344h-391v-262q0 -78 34 -111t81 -33h6q47 0 79 33t32 111v143h159v-143q0 -141 -68.5 -217t-201.5 -76h-10q-131 0 -204 77t-73 214zM217 684h227v203q0 76 -31.5 108.5t-78.5 32.5h-6q-47 0 -79 -32.5 t-32 -110.5v-201z" />
<glyph unicode="f" horiz-adv-x="411" d="M10 1018v147h90v72q0 125 48.5 189.5t173.5 64.5h79v-145h-51q-43 0 -62.5 -24t-19.5 -83v-74h133v-147h-133v-1018h-168v1018h-90z" />
<glyph unicode="g" horiz-adv-x="657" d="M51 322v550q0 145 52.5 219t183.5 74h321v-1171q0 -139 -72.5 -209t-195.5 -70h-10q-123 0 -193.5 71t-70.5 179v17h161v-13q0 -55 32 -81.5t73 -26.5h8q43 0 72.5 26.5t29.5 79.5v62h-155q-133 0 -184.5 73t-51.5 220zM219 317q0 -74 23.5 -107.5t79.5 -33.5h120v842 h-123q-53 0 -76.5 -34t-23.5 -107v-560z" />
<glyph unicode="h" horiz-adv-x="663" d="M55 0v1491h168v-326h150q133 0 185 -72.5t52 -218.5v-874h-166v883q0 70 -23.5 102.5t-80.5 32.5h-117v-1018h-168z" />
<glyph unicode="i" horiz-adv-x="278" d="M55 0v1165h168v-1165h-168zM55 1249v189h168v-189h-168z" />
<glyph unicode="j" horiz-adv-x="282" d="M-53 -131h30q47 0 65.5 24.5t18.5 83.5v1188h166v-1188q0 -125 -48 -189t-171 -64h-61v145zM61 1249v189h166v-189h-166z" />
<glyph unicode="k" horiz-adv-x="638" d="M55 0v1491h168v-868l236 542h172l-250 -575l260 -590h-182l-236 547v-547h-168z" />
<glyph unicode="l" horiz-adv-x="278" d="M55 0v1491h168v-1491h-168z" />
<glyph unicode="m" horiz-adv-x="972" d="M55 0v1165h629q133 0 184.5 -72.5t51.5 -220.5v-872h-166v881q0 72 -23.5 104.5t-81.5 32.5h-78v-1018h-168v1018h-180v-1018h-168z" />
<glyph unicode="n" d="M57 0v1165h320q133 0 185 -72.5t52 -220.5v-872h-165v881q0 72 -24 104.5t-81 32.5h-117v-1018h-170z" />
<glyph unicode="o" d="M51 279v608q0 137 74 214t205 77h10q133 0 207 -77t74 -214v-608q0 -137 -74 -214t-207 -77h-10q-131 0 -205 77t-74 214zM217 279q0 -76 34 -109t81 -33h6q47 0 81 33t34 109v608q0 76 -33 108.5t-82 32.5h-6q-47 0 -81 -32.5t-34 -108.5v-608z" />
<glyph unicode="p" horiz-adv-x="663" d="M55 -276v1441h322q129 0 183 -74.5t54 -222.5v-571q0 -147 -54 -222t-183 -75h-156v-276h-166zM221 147h119q106 0 106 146v579q0 145 -106 146h-119v-871z" />
<glyph unicode="q" horiz-adv-x="663" d="M51 297v571q0 147 53.5 222t184.5 75h321v-1441h-168v276h-153q-131 0 -184.5 75t-53.5 222zM219 293q0 -74 24.5 -110t82.5 -36h116v871h-116q-57 0 -82 -36t-25 -110v-579z" />
<glyph unicode="r" horiz-adv-x="436" d="M55 0v874q0 147 51.5 219t184.5 72h125v-147h-90q-59 0 -82 -34t-23 -105v-879h-166z" />
<glyph unicode="s" horiz-adv-x="614" d="M33 276v148h160v-158q0 -66 31.5 -97.5t76.5 -31.5h6q45 0 77 31t32 92v82q0 49 -16.5 78t-53.5 53l-176 125q-68 47 -101.5 101.5t-33.5 154.5v49q0 129 64.5 202t193.5 73h12q129 0 197.5 -75t68.5 -216v-121h-157v123q0 72 -32 105.5t-77 33.5h-6q-47 0 -75.5 -30.5 t-28.5 -90.5v-51q0 -47 17 -74.5t52 -52.5l185 -127q33 -25 57 -48.5t40.5 -52t24 -67.5t7.5 -90v-86q0 -125 -70 -197.5t-195 -72.5h-10q-131 0 -200.5 75.5t-69.5 212.5z" />
<glyph unicode="t" horiz-adv-x="428" d="M10 1018v147h111v226h168v-226h129v-147h-129v-1018h-168v1018h-111z" />
<glyph unicode="u" horiz-adv-x="663" d="M51 293v872h168v-880q0 -72 23.5 -105t79.5 -33h118v1018h166v-1165h-317q-133 0 -185.5 73t-52.5 220z" />
<glyph unicode="v" horiz-adv-x="634" d="M8 1165h174l103 -684l37 -280l36 280l103 684h164l-197 -1165h-215z" />
<glyph unicode="w" horiz-adv-x="974" d="M12 1165h172l72 -735l16 -225l21 215l104 745h187l106 -745l23 -227l16 237l74 735h160l-146 -1165h-213l-102 754l-15 159l-14 -159l-102 -754h-213z" />
<glyph unicode="x" horiz-adv-x="632" d="M6 0l203 612l-191 553h177l127 -413l124 413h162l-184 -559l201 -606h-174l-138 461l-139 -461h-168z" />
<glyph unicode="y" horiz-adv-x="630" d="M6 1165h176l148 -770l127 770h166l-281 -1441h-166l76 382z" />
<glyph unicode="z" horiz-adv-x="538" d="M25 0v147l319 871h-317v147h481v-147l-315 -871h321v-147h-489z" />
<glyph unicode="{" horiz-adv-x="501" d="M20 580v145h11q82 0 110 54q27 51 27 127v12l-8 335v16q0 124 60 192q65 73 194 73h57v-145h-4q-41 -2 -70.5 -10.5t-47 -27t-25.5 -48.5q-7 -25 -7 -60v-18l11 -297q1 -15 0 -30q0 -37 -3 -70q-5 -46 -19.5 -81.5t-42 -59t-70.5 -32.5q43 -8 70.5 -32.5t41.5 -62.5 t20 -85q4 -34 3 -71v-31l-11 -279v-18q0 -35 7 -61q8 -32 25.5 -50t47 -25.5t70.5 -9.5h4v-147h-51q-133 0 -199 72q-62 67 -61 193v15l8 326v11q0 75 -27 125q-29 54 -110 55h-11z" />
<glyph unicode="|" horiz-adv-x="256" d="M55 -225v1755h144v-1755h-144z" />
<glyph unicode="}" horiz-adv-x="501" d="M31 1389v145h57q129 0 194 -73q61 -68 60 -192v-16l-10 -335q0 -41 6 -77t21.5 -61.5t43 -40t68.5 -14.5h10v-145h-10q-41 0 -68.5 -14.5t-43 -40t-21.5 -60.5t-6 -76l10 -326v-15q0 -126 -61 -193q-66 -72 -199 -72h-51v147h2q43 2 71.5 9.5t47 26t26.5 49.5q7 25 7 61 q0 9 -1 18l-10 279q-1 16 -1 31q0 38 4 71q5 47 19.5 85t41 62.5t69.5 32.5q-86 16 -111 93q-22 65 -22 151v29l10 297q0 9 1 18q0 35 -7 60q-8 31 -26.5 49t-47 26t-71.5 11h-2z" />
<glyph unicode="~" horiz-adv-x="538" d="M35 530v5q0 188 133 188q33 0 56.5 -9t43.5 -20l38 -19q17 -9 40 -9q39 0 39 59h121v-4q-2 -98 -36 -144.5t-99 -46.5q-33 0 -56.5 9.5t-44.5 20.5l-39 21q-18 9 -38 9q-18 0 -28.5 -16.5t-10.5 -43.5h-119z" />
<glyph unicode="&#xa1;" horiz-adv-x="284" d="M57 -272v1151h170v-1151h-170zM57 1028v191h170v-191h-170z" />
<glyph unicode="&#xa2;" horiz-adv-x="645" d="M49 279v608q0 117 50 189.5t149 92.5v158h160v-158q94 -23 145 -94t51 -188v-121h-162v121q0 76 -31.5 108.5t-78.5 32.5h-8q-45 0 -77 -32.5t-32 -108.5v-606q0 -78 32 -111t77 -33h8q45 0 77.5 33t32.5 111v143h162v-145q0 -117 -51 -190t-145 -93v-158h-160v158 q-98 20 -148.5 93t-50.5 190z" />
<glyph unicode="&#xa3;" horiz-adv-x="720" d="M23 598v145h94v474q0 135 71.5 212.5t202.5 77.5h17q131 0 200.5 -77.5t69.5 -206.5v-209h-166v198q0 70 -29.5 107t-76.5 37h-11q-47 0 -76.5 -37t-29.5 -107v-469h274v-145h-274v-446h395v-152h-659v152h92v446h-94z" />
<glyph unicode="&#xa5;" horiz-adv-x="659" d="M-4 1491h178l168 -682l152 682h170l-220 -854h177v-133h-193v-94h193v-134h-193v-276h-174v276h-203v134h203v94h-203v133h176z" />
<glyph unicode="&#xa6;" horiz-adv-x="286" d="M68 -225v831h151v-831h-151zM68 778v752h151v-752h-151z" />
<glyph unicode="&#xa7;" horiz-adv-x="655" d="M41 737v490q0 129 71.5 204.5t198.5 75.5h21q129 0 201.5 -73.5t72.5 -216.5v-111h-160v111q0 74 -33.5 107.5t-80.5 33.5h-17q-47 0 -79.5 -31t-32.5 -94v-62q0 -47 19.5 -73.5t53.5 -48.5l175 -115q43 -29 74.5 -58.5t52 -69.5t29.5 -91t9 -121v-514q0 -129 -75.5 -205 t-200.5 -76h-18q-129 0 -204 75t-75 216v129h160v-139q0 -66 35.5 -98.5t83.5 -32.5h14q47 0 82 30.5t35 96.5v96q0 45 -18.5 70.5t-55.5 48.5l-168 106q-90 57 -130 133t-40 207zM197 745q0 -78 30.5 -128t85.5 -85l146 -92v146q0 78 -31 130t-84 87l-147 98v-156z" />
<glyph unicode="&#xa8;" horiz-adv-x="821" d="M211 1249v185h166v-185h-166zM453 1249v185h163v-185h-163z" />
<glyph unicode="&#xa9;" horiz-adv-x="1103" d="M33 651v187q0 154 30.5 275.5t93 206.5t159 131t229.5 46h16q127 0 223.5 -46t160 -131t95 -207t31.5 -275v-187q0 -154 -36 -276.5t-102.5 -206.5t-160.5 -129t-211 -45h-16q-256 0 -384 174t-128 483zM160 653q0 -123 20.5 -225t66.5 -174t117.5 -112t176.5 -40h22 q98 0 171 40t121 112t70.5 174t22.5 225v183q0 125 -22.5 226t-69.5 173t-119.5 110.5t-173.5 38.5h-22q-106 0 -179 -38.5t-118 -110.5t-64.5 -173t-19.5 -226v-183zM315 485v516q0 117 56.5 185.5t173.5 68.5h10q119 0 175 -67.5t56 -186.5v-96h-141v96q0 66 -24.5 93.5 t-63.5 27.5h-8q-41 0 -65.5 -28.5t-24.5 -92.5v-516q0 -59 24.5 -88.5t63.5 -29.5h10q39 0 63.5 29.5t24.5 88.5v113h141v-113q0 -117 -57 -184.5t-174 -67.5h-10q-117 0 -173.5 67.5t-56.5 184.5z" />
<glyph unicode="&#xaa;" horiz-adv-x="425" d="M27 971v43q0 88 43 139t139 51h63v117q0 70 -49 70h-6q-49 0 -49 -70v-68h-121v62q0 86 39 136t125 50h10q84 0 129 -44t45 -136v-537h-184q-96 0 -140 50.5t-44 136.5zM154 973q0 -78 69 -78h49v203h-49q-35 0 -52 -18.5t-17 -61.5v-45z" />
<glyph unicode="&#xab;" horiz-adv-x="610" d="M41 463v106l133 285h158l-150 -338l150 -338h-158zM268 516l150 338h157l-147 -338l147 -338h-157z" />
<glyph unicode="&#xad;" horiz-adv-x="468" d="M51 543v145h367v-145h-367z" />
<glyph unicode="&#xae;" horiz-adv-x="649" d="M33 1096v75q0 164 76.5 252t212.5 88h8q135 0 210.5 -88t75.5 -252v-75q0 -162 -75.5 -250t-210.5 -88h-8q-135 0 -212 87t-77 251zM113 1096q0 -129 49 -198t155 -69h17q94 0 149.5 69t55.5 198v73q0 135 -55.5 202t-149.5 67h-17q-106 0 -155 -66.5t-49 -202.5v-73z M215 918v440h129q47 0 72.5 -24.5t25.5 -73.5v-25q0 -72 -59 -88q33 -4 45 -20.5t12 -47.5v-161h-82v153q0 37 -39 37h-24v-190h-80zM295 1176h24q25 0 34 13t9 42v14q0 25 -9 36t-34 11h-24v-116z" />
<glyph unicode="&#xaf;" horiz-adv-x="819" d="M229 1270v139h361v-139h-361z" />
<glyph unicode="&#xb0;" horiz-adv-x="471" d="M25 1294q0 90 57 150.5t153.5 60.5t153.5 -60.5t57 -150.5q0 -88 -57 -149.5t-153.5 -61.5t-153.5 61.5t-57 149.5zM143 1294q0 -41 25 -69.5t68 -28.5q41 0 66.5 28.5t25.5 69.5t-26 70t-66 29q-43 0 -68 -29t-25 -70z" />
<glyph unicode="&#xb2;" d="M37 0v279q0 47 5 83.5t16.5 67.5t29.5 60.5t45 62.5l266 340q41 51 53.5 89t12.5 97v135q0 68 -35 105t-88 37h-10q-53 0 -87 -37t-34 -105v-200h-172v207q0 131 74.5 208.5t216.5 77.5h16q141 0 217 -78.5t76 -214.5v-141q0 -49 -6 -84t-19.5 -65.5t-33.5 -59.5l-48 -65 l-260 -332q-20 -27 -32.5 -48.5t-18.5 -43t-8 -45t-2 -54.5v-126h424v-150h-598z" />
<glyph unicode="&#xb3;" horiz-adv-x="698" d="M43 293v239h166v-235q0 -86 39 -124t92 -38h10q51 0 90 38t39 124v252q0 82 -30.5 127t-108.5 45h-70v147h70q76 0 105.5 46.5t29.5 121.5v158q0 86 -38 124t-89 38h-10q-53 0 -90 -38t-37 -124v-180h-168v184q0 147 76 228t217 81h16q139 0 218 -80.5t79 -228.5v-143 q0 -104 -34.5 -168t-112.5 -86q152 -45 151 -266v-240q0 -150 -79.5 -230.5t-219.5 -80.5h-16q-141 0 -218 81t-77 228z" />
<glyph unicode="&#xb4;" horiz-adv-x="821" d="M238 1239v139l305 90v-153z" />
<glyph unicode="&#xb6;" horiz-adv-x="737" d="M41 1071v84q0 76 13.5 137.5t45 105.5t81.5 68.5t124 24.5h375v-1491h-139v1362h-88v-1362h-136v735h-12q-141 0 -202.5 89t-61.5 247z" />
<glyph unicode="&#xb7;" horiz-adv-x="286" d="M55 606v191h174v-191h-174z" />
<glyph unicode="&#xb8;" horiz-adv-x="817" d="M299 -207h90q20 0 34.5 6t14.5 27v2q0 20 -14 26.5t-35 6.5h-72v139h101v-55q63 0 106 -25.5t43 -93.5v-4q0 -72 -48 -98.5t-107 -26.5h-113v96z" />
<glyph unicode="&#xb9;" horiz-adv-x="372" d="M18 1341v150h289v-1491h-170v1341h-119z" />
<glyph unicode="&#xba;" horiz-adv-x="446" d="M31 983v309q0 109 53 159t137 50h6q86 0 137.5 -50t51.5 -159v-309q0 -106 -53.5 -157.5t-135.5 -51.5h-6q-84 0 -137 51.5t-53 157.5zM158 985q0 -51 16 -72.5t47 -21.5h6q29 0 45.5 21.5t16.5 72.5v305q0 51 -16.5 72.5t-45.5 21.5h-6q-31 0 -47 -21.5t-16 -72.5v-305z " />
<glyph unicode="&#xbb;" horiz-adv-x="610" d="M35 178l147 338l-147 338h158l149 -338l-149 -338h-158zM279 178l149 338l-149 338h157l133 -285v-106l-133 -285h-157z" />
<glyph unicode="&#xbc;" horiz-adv-x="862" d="M35 0l608 1491h133l-610 -1491h-131zM66 1370v121h204v-696h-131v575h-73zM416 102v101l155 497h195v-485h63v-113h-63v-102h-127v102h-223zM535 215h104v363z" />
<glyph unicode="&#xbd;" horiz-adv-x="892" d="M35 0l608 1491h133l-610 -1491h-131zM66 1370v121h204v-696h-131v575h-73zM475 0v125q0 66 21.5 111t74.5 83l117 70q37 25 37 78v55q0 33 -13.5 52.5t-39.5 19.5h-6q-29 0 -43.5 -20.5t-14.5 -55.5v-92h-127v86q0 82 44 138q45 57 137 57h16q88 0 133 -53.5t45 -139.5 v-45q0 -59 -22.5 -101t-63.5 -71l-115 -70q-25 -16 -33 -33.5t-8 -39.5v-33h244v-121h-383z" />
<glyph unicode="&#xbe;" horiz-adv-x="962" d="M41 1272v35q0 86 43 141t141 55h15q92 0 139 -51t47 -127v-27q0 -113 -107 -131q63 -14 88 -57t25 -100v-31q0 -84 -49 -138.5t-143 -54.5h-15q-96 0 -140 54.5t-44 142.5v49h129v-47q0 -80 59 -80h7q57 0 57 76v35q0 41 -14.5 63.5t-53.5 22.5h-47v112h47 q39 0 52.5 20.5t13.5 55.5v25q0 33 -14.5 54.5t-43.5 21.5h-6q-57 0 -57 -84v-35h-129zM133 0l610 1491h134l-611 -1491h-133zM516 102v101l154 497h196v-485h62v-113h-62v-102h-129v102h-221zM633 215h104v358z" />
<glyph unicode="&#xbf;" horiz-adv-x="655" d="M51 0v303q0 135 58.5 206t169.5 71h6v325h166v-452h-97q-133 0 -133 -144v-313q0 -63 27.5 -100t81.5 -37h10q53 0 79.5 36.5t26.5 100.5v207h166v-207q0 -129 -65.5 -207t-202.5 -78h-18q-141 0 -208 79t-67 210zM285 1028v191h170v-191h-170z" />
<glyph unicode="&#xc0;" horiz-adv-x="677" d="M6 0l213 1491h242l211 -1491h-176l-33 248h-256l-31 -248h-170zM188 1614v147l301 -78v-133zM227 397h217l-108 858z" />
<glyph unicode="&#xc1;" horiz-adv-x="677" d="M6 0l213 1491h242l211 -1491h-176l-33 248h-256l-31 -248h-170zM190 1550v136l304 77v-149zM227 397h217l-108 858z" />
<glyph unicode="&#xc2;" horiz-adv-x="677" d="M6 0l213 1491h242l211 -1491h-176l-33 248h-256l-31 -248h-170zM172 1546v123l125 80h90l125 -80v-123l-170 74zM227 397h217l-108 858z" />
<glyph unicode="&#xc3;" horiz-adv-x="677" d="M6 0l213 1491h242l211 -1491h-176l-33 248h-256l-31 -248h-170zM137 1561q2 174 123 174q25 0 43.5 -7.5t33.5 -15.5l30 -15q14 -7 30 -7q35 0 35 49h113q-4 -174 -121 -174q-27 0 -46.5 7t-34.5 15l-29 16q-13 7 -29 7q-33 0 -33 -49h-115zM227 397h217l-108 858z" />
<glyph unicode="&#xc4;" horiz-adv-x="677" d="M6 0l213 1491h242l211 -1491h-176l-33 248h-256l-31 -248h-170zM135 1569v172h166v-172h-166zM227 397h217l-108 858zM381 1569v172h166v-172h-166z" />
<glyph unicode="&#xc5;" horiz-adv-x="677" d="M6 0l213 1491h242l211 -1491h-176l-33 248h-256l-31 -248h-170zM180 1683.5q0 67.5 45 109.5t117 42t118 -42t46 -109.5t-46 -110.5t-118 -43t-117 43t-45 110.5zM227 397h217l-108 858zM287 1683.5q0 -22.5 15 -38t40 -15.5t40 15.5t15 38t-15 38t-40 15.5t-40 -15.5 t-15 -38z" />
<glyph unicode="&#xc6;" horiz-adv-x="925" d="M2 0l334 1491h547v-150h-256v-419h245v-150h-245v-622h256v-150h-428v246h-230l-53 -246h-170zM258 397h197v910z" />
<glyph unicode="&#xc7;" horiz-adv-x="722" d="M55 293v907q0 147 79 227t220 80h17q137 0 218 -80.5t81 -228.5v-184h-170v180q0 86 -39 124t-92 38h-9q-55 0 -94 -38t-39 -124v-897q0 -86 39 -124t94 -38h11q53 0 93 38t40 124v235h166v-239q0 -147 -81 -228t-218 -81h-4v-39q63 0 106 -25.5t43 -93.5v-4 q0 -72 -48 -98.5t-108 -26.5h-112v96h90q20 0 34.5 6t14.5 27v2q0 20 -14.5 26.5t-34.5 6.5h-72v133q-100 23 -155.5 99.5t-55.5 199.5z" />
<glyph unicode="&#xc8;" horiz-adv-x="567" d="M57 0v1491h467v-150h-293v-419h283v-150h-283v-622h293v-150h-467zM135 1614v147l301 -78v-133z" />
<glyph unicode="&#xc9;" horiz-adv-x="567" d="M57 0v1491h467v-150h-293v-419h283v-150h-283v-622h293v-150h-467zM147 1550v136l304 77v-149z" />
<glyph unicode="&#xca;" horiz-adv-x="567" d="M57 0v1491h467v-150h-293v-419h283v-150h-283v-622h293v-150h-467zM119 1546v123l125 80h90l125 -80v-123l-170 74z" />
<glyph unicode="&#xcb;" horiz-adv-x="567" d="M57 0v1491h467v-150h-293v-419h283v-150h-283v-622h293v-150h-467zM82 1569v172h166v-172h-166zM328 1569v172h166v-172h-166z" />
<glyph unicode="&#xcc;" horiz-adv-x="288" d="M-6 1614v147l301 -78v-133zM57 0v1491h172v-1491h-172z" />
<glyph unicode="&#xcd;" horiz-adv-x="288" d="M-4 1550v136l303 77v-149zM57 0v1491h172v-1491h-172z" />
<glyph unicode="&#xce;" horiz-adv-x="288" d="M-25 1546v123l125 80h90l125 -80v-123l-170 74zM57 0v1491h172v-1491h-172z" />
<glyph unicode="&#xcf;" horiz-adv-x="288" d="M-55 1569v172h166v-172h-166zM57 0v1491h172v-1491h-172zM178 1569v172h166v-172h-166z" />
<glyph unicode="&#xd0;" horiz-adv-x="745" d="M16 700v136h68v655h328q152 0 217 -91t65 -243v-825q0 -150 -65.5 -241t-216.5 -91h-328v700h-68zM258 150h139q59 0 92 46t33 128v843q0 82 -32.5 128t-92.5 46h-139v-505h143v-136h-143v-550z" />
<glyph unicode="&#xd1;" horiz-adv-x="788" d="M57 0v1491h260l205 -954l53 -312v1266h158v-1491h-256l-209 967l-53 319v-1286h-158zM213 1561q2 174 123 174q25 0 43 -7.5t34 -15.5l29 -15q14 -7 31 -7q35 0 35 49h113q-4 -174 -121 -174q-27 0 -46.5 7t-34.5 15l-29 16q-13 7 -30 7q-33 0 -32 -49h-115z" />
<glyph unicode="&#xd2;" horiz-adv-x="729" d="M55 293v907q0 147 80 227t219 80h19q137 0 219 -79.5t82 -227.5v-907q0 -147 -82 -228t-219 -81h-19q-141 0 -220 81t-79 228zM213 1614v147l301 -78v-133zM227 295q0 -84 38 -122t93 -38h11q53 0 92 38t39 122v901q0 84 -39 122t-92 38h-11q-55 0 -93 -38t-38 -122v-901 z" />
<glyph unicode="&#xd3;" horiz-adv-x="729" d="M55 293v907q0 147 80 227t219 80h19q137 0 219 -79.5t82 -227.5v-907q0 -147 -82 -228t-219 -81h-19q-141 0 -220 81t-79 228zM215 1550v136l303 77v-149zM227 295q0 -84 38 -122t93 -38h11q53 0 92 38t39 122v901q0 84 -39 122t-92 38h-11q-55 0 -93 -38t-38 -122v-901z " />
<glyph unicode="&#xd4;" horiz-adv-x="729" d="M55 293v907q0 147 80 227t219 80h19q137 0 219 -79.5t82 -227.5v-907q0 -147 -82 -228t-219 -81h-19q-141 0 -220 81t-79 228zM197 1546v123l125 80h90l125 -80v-123l-170 74zM227 295q0 -84 38 -122t93 -38h11q53 0 92 38t39 122v901q0 84 -39 122t-92 38h-11 q-55 0 -93 -38t-38 -122v-901z" />
<glyph unicode="&#xd5;" horiz-adv-x="729" d="M55 293v907q0 147 80 227t219 80h19q137 0 219 -79.5t82 -227.5v-907q0 -147 -82 -228t-219 -81h-19q-141 0 -220 81t-79 228zM162 1561q2 174 123 174q25 0 43 -7.5t33 -15.5l30 -15q14 -7 31 -7q35 0 35 49h112q-4 -174 -120 -174q-27 0 -46.5 7t-34.5 15l-29 16 q-13 7 -30 7q-33 0 -33 -49h-114zM227 295q0 -84 38 -122t93 -38h11q53 0 92 38t39 122v901q0 84 -39 122t-92 38h-11q-55 0 -93 -38t-38 -122v-901z" />
<glyph unicode="&#xd6;" horiz-adv-x="729" d="M55 293v907q0 147 80 227t219 80h19q137 0 219 -79.5t82 -227.5v-907q0 -147 -82 -228t-219 -81h-19q-141 0 -220 81t-79 228zM160 1569v172h166v-172h-166zM227 295q0 -84 38 -122t93 -38h11q53 0 92 38t39 122v901q0 84 -39 122t-92 38h-11q-55 0 -93 -38t-38 -122 v-901zM406 1569v172h165v-172h-165z" />
<glyph unicode="&#xd7;" horiz-adv-x="661" d="M55 494l176 180l-176 182l103 100l174 -180l174 180l100 -98l-176 -182l176 -180l-100 -101l-176 178l-172 -178z" />
<glyph unicode="&#xd8;" horiz-adv-x="735" d="M49 -51l49 166q-41 72 -41 178v907q0 147 81 227t220 80h19q76 0 137 -28l16 63h148l-45 -166q45 -78 45 -176v-907q0 -147 -82 -228t-219 -81h-19q-76 0 -141 26l-18 -61h-150zM213 420l254 919q-35 27 -92 27h-13q-61 0 -105 -38t-44 -126v-782zM262 154q35 -29 98 -29 h13q59 0 104 38t45 124v792z" />
<glyph unicode="&#xd9;" horiz-adv-x="729" d="M55 293v1198h172v-1194q0 -86 38 -123t93 -37h11q53 0 92 37t39 123v1194h174v-1198q0 -147 -81 -227t-220 -80h-19q-141 0 -220 80t-79 227zM213 1614v147l301 -78v-133z" />
<glyph unicode="&#xda;" horiz-adv-x="729" d="M55 293v1198h172v-1194q0 -86 38 -123t93 -37h11q53 0 92 37t39 123v1194h174v-1198q0 -147 -81 -227t-220 -80h-19q-141 0 -220 80t-79 227zM215 1550v136l303 77v-149z" />
<glyph unicode="&#xdb;" horiz-adv-x="729" d="M55 293v1198h172v-1194q0 -86 38 -123t93 -37h11q53 0 92 37t39 123v1194h174v-1198q0 -147 -81 -227t-220 -80h-19q-141 0 -220 80t-79 227zM195 1546v123l124 80h91l125 -80v-123l-170 74z" />
<glyph unicode="&#xdc;" horiz-adv-x="729" d="M55 293v1198h172v-1194q0 -86 38 -123t93 -37h11q53 0 92 37t39 123v1194h174v-1198q0 -147 -81 -227t-220 -80h-19q-141 0 -220 80t-79 227zM160 1569v172h166v-172h-166zM406 1569v172h165v-172h-165z" />
<glyph unicode="&#xdd;" horiz-adv-x="661" d="M6 1491h176l160 -680l145 680h168l-225 -924v-567h-176v549zM193 1550v136l303 77v-149z" />
<glyph unicode="&#xde;" horiz-adv-x="702" d="M55 0v1491h174v-309h140q156 0 219 -86t63 -238v-151q0 -154 -63.5 -240t-218.5 -86h-140v-381h-174zM229 530h125q63 0 93 43t30 123v172q0 78 -29.5 121t-93.5 43h-125v-502z" />
<glyph unicode="&#xdf;" horiz-adv-x="700" d="M57 0v1194q0 147 73 227t212 80h16q135 0 211 -80t76 -227v-80q0 -104 -32.5 -166.5t-106.5 -87.5q80 -23 115.5 -87t35.5 -179v-285q0 -147 -76.5 -228t-215.5 -81h-78v152h73q51 0 88 37.5t37 123.5v293q0 82 -28.5 127t-106.5 45h-63v148h57q76 0 100.5 46t24.5 122 v94q0 86 -33 124t-82 38h-8q-53 0 -87 -38t-34 -124v-1188h-168z" />
<glyph unicode="&#xe0;" horiz-adv-x="638" d="M39 283v112q0 143 60.5 211t195.5 68h123v237q0 117 -92 117h-9q-41 0 -66.5 -29.5t-25.5 -87.5v-145h-157v133q0 279 247 279h11q258 0 258 -279v-899h-289q-135 0 -195.5 70t-60.5 213zM168 1315v153l305 -90v-139zM205 279q0 -70 27.5 -101t86.5 -31h99v385h-99 q-115 0 -114 -133v-120z" />
<glyph unicode="&#xe1;" horiz-adv-x="638" d="M39 283v112q0 143 60.5 211t195.5 68h123v237q0 117 -92 117h-9q-41 0 -66.5 -29.5t-25.5 -87.5v-145h-157v133q0 279 247 279h11q258 0 258 -279v-899h-289q-135 0 -195.5 70t-60.5 213zM195 1239v139l305 90v-153zM205 279q0 -70 27.5 -101t86.5 -31h99v385h-99 q-115 0 -114 -133v-120z" />
<glyph unicode="&#xe2;" horiz-adv-x="638" d="M39 283v112q0 143 60.5 211t195.5 68h123v237q0 117 -92 117h-9q-41 0 -66.5 -29.5t-25.5 -87.5v-145h-157v133q0 279 247 279h11q258 0 258 -279v-899h-289q-135 0 -195.5 70t-60.5 213zM158 1237v135l123 78h86l122 -78v-135l-165 82zM205 279q0 -70 27.5 -101 t86.5 -31h99v385h-99q-115 0 -114 -133v-120z" />
<glyph unicode="&#xe3;" horiz-adv-x="638" d="M39 283v112q0 143 60.5 211t195.5 68h123v237q0 117 -92 117h-9q-41 0 -66.5 -29.5t-25.5 -87.5v-145h-157v133q0 279 247 279h11q258 0 258 -279v-899h-289q-135 0 -195.5 70t-60.5 213zM117 1245q2 92 32.5 140.5t90.5 48.5q25 0 43 -7.5t33.5 -16.5l29.5 -16.5 t31 -7.5q33 0 33 52h114q-2 -86 -31.5 -137.5t-89.5 -51.5q-27 0 -46 7.5t-34.5 16.5l-28.5 16t-28 7q-33 0 -33 -51h-116zM205 279q0 -70 27.5 -101t86.5 -31h99v385h-99q-115 0 -114 -133v-120z" />
<glyph unicode="&#xe4;" horiz-adv-x="638" d="M39 283v112q0 143 60.5 211t195.5 68h123v237q0 117 -92 117h-9q-41 0 -66.5 -29.5t-25.5 -87.5v-145h-157v133q0 279 247 279h11q258 0 258 -279v-899h-289q-135 0 -195.5 70t-60.5 213zM119 1249v185h166v-185h-166zM205 279q0 -70 27.5 -101t86.5 -31h99v385h-99 q-115 0 -114 -133v-120zM360 1249v185h164v-185h-164z" />
<glyph unicode="&#xe5;" horiz-adv-x="638" d="M39 283v112q0 143 60.5 211t195.5 68h123v237q0 117 -92 117h-9q-41 0 -66.5 -29.5t-25.5 -87.5v-145h-157v133q0 279 247 279h11q258 0 258 -279v-899h-289q-135 0 -195.5 70t-60.5 213zM160 1382q0 70 45 115t119 45q72 0 117.5 -45t45.5 -115q0 -72 -46 -115.5 t-117 -43.5q-74 0 -119 43.5t-45 115.5zM205 279q0 -70 27.5 -101t86.5 -31h99v385h-99q-115 0 -114 -133v-120zM268 1382.5q0 -22.5 15.5 -39t40.5 -16.5q23 0 39 16.5t16 39t-16.5 39t-38.5 16.5q-27 0 -41.5 -16.5t-14.5 -39z" />
<glyph unicode="&#xe6;" horiz-adv-x="1007" d="M39 283v112q0 143 60.5 211t195.5 68h119v237q0 117 -90 117h-9q-41 0 -65.5 -29.5t-24.5 -87.5v-145h-157v133q0 279 245 279h11q66 0 114.5 -28t67.5 -71q18 41 67.5 70t108.5 29h10q129 0 199 -77t70 -214v-344h-379v-400h112q47 0 76 32t29 108v141h162v-139 q0 -285 -267 -285h-399q-135 0 -195.5 70t-60.5 213zM205 279q0 -70 27.5 -101t86.5 -31h95v385h-95q-115 0 -114 -133v-120zM582 684h215v203q0 76 -31 108.5t-74 32.5h-6q-45 0 -74.5 -32.5t-29.5 -110.5v-201z" />
<glyph unicode="&#xe7;" horiz-adv-x="649" d="M51 279v608q0 137 71 214t202 77h12q129 0 199.5 -77t70.5 -214v-121h-162v121q0 76 -31.5 108.5t-78.5 32.5h-8q-45 0 -77 -32.5t-32 -108.5v-606q0 -78 32 -111t77 -33h8q47 0 78.5 33t31.5 111v143h162v-145q0 -139 -70.5 -215t-199.5 -76h-4v-43q63 0 106 -25.5 t43 -93.5v-4q0 -72 -48 -98.5t-107 -26.5h-113v96h90q20 0 34.5 6t14.5 27v2q0 20 -14 26.5t-35 6.5h-72v139q-88 23 -134 95.5t-46 183.5z" />
<glyph unicode="&#xe8;" horiz-adv-x="655" d="M51 279v608q0 137 71 214t202 77h12q129 0 200.5 -77t71.5 -214v-344h-391v-262q0 -78 34 -111t81 -33h6q47 0 79 33t32 111v143h159v-143q0 -141 -68.5 -217t-201.5 -76h-10q-131 0 -204 77t-73 214zM176 1315v153l305 -90v-139zM217 684h227v203q0 76 -31.5 108.5 t-78.5 32.5h-6q-47 0 -79 -32.5t-32 -110.5v-201z" />
<glyph unicode="&#xe9;" horiz-adv-x="655" d="M51 279v608q0 137 71 214t202 77h12q129 0 200.5 -77t71.5 -214v-344h-391v-262q0 -78 34 -111t81 -33h6q47 0 79 33t32 111v143h159v-143q0 -141 -68.5 -217t-201.5 -76h-10q-131 0 -204 77t-73 214zM178 1239v139l305 90v-153zM217 684h227v203q0 76 -31.5 108.5 t-78.5 32.5h-6q-47 0 -79 -32.5t-32 -110.5v-201z" />
<glyph unicode="&#xea;" horiz-adv-x="655" d="M51 279v608q0 137 71 214t202 77h12q129 0 200.5 -77t71.5 -214v-344h-391v-262q0 -78 34 -111t81 -33h6q47 0 79 33t32 111v143h159v-143q0 -141 -68.5 -217t-201.5 -76h-10q-131 0 -204 77t-73 214zM164 1237v135l123 78h86l123 -78v-135l-166 82zM217 684h227v203 q0 76 -31.5 108.5t-78.5 32.5h-6q-47 0 -79 -32.5t-32 -110.5v-201z" />
<glyph unicode="&#xeb;" horiz-adv-x="655" d="M51 279v608q0 137 71 214t202 77h12q129 0 200.5 -77t71.5 -214v-344h-391v-262q0 -78 34 -111t81 -33h6q47 0 79 33t32 111v143h159v-143q0 -141 -68.5 -217t-201.5 -76h-10q-131 0 -204 77t-73 214zM129 1249v185h166v-185h-166zM217 684h227v203q0 76 -31.5 108.5 t-78.5 32.5h-6q-47 0 -79 -32.5t-32 -110.5v-201zM371 1249v185h164v-185h-164z" />
<glyph unicode="&#xec;" horiz-adv-x="278" d="M-12 1315v153l305 -90v-139zM55 0v1165h168v-1165h-168z" />
<glyph unicode="&#xed;" horiz-adv-x="278" d="M14 1243v143l256 89v-156zM55 0v1165h168v-1165h-168z" />
<glyph unicode="&#xee;" horiz-adv-x="278" d="M-25 1237v135l123 78h86l123 -78v-135l-166 82zM55 0v1165h168v-1165h-168z" />
<glyph unicode="&#xef;" horiz-adv-x="278" d="M-43 1249v185h156v-185h-156zM55 0v1165h168v-1165h-168zM166 1249v185h158v-185h-158z" />
<glyph unicode="&#xf0;" d="M51 279v608q0 137 73 214t193 77h7q27 0 68.5 -13.5t60.5 -36.5l-99 162l-161 -61v108l108 41l-68 113h166l35 -59l133 51v-109l-80 -31l56 -90q27 -47 43 -86t23 -83t9.5 -97t2.5 -129v-579q0 -137 -74 -214t-207 -77h-10q-131 0 -205 77t-74 214zM217 279 q0 -76 34 -109t81 -33h6q47 0 81 33t34 109v608q0 76 -33 108.5t-82 32.5h-6q-47 0 -81 -32.5t-34 -108.5v-608z" />
<glyph unicode="&#xf1;" d="M57 0v1165h320q133 0 185 -72.5t52 -220.5v-872h-165v881q0 72 -24 104.5t-81 32.5h-117v-1018h-170zM131 1245q2 92 33 140.5t90 48.5q25 0 43 -7.5t33.5 -16.5t30 -16.5t30.5 -7.5q33 0 33 52h115q-2 -86 -32 -137.5t-89 -51.5q-27 0 -46.5 7.5t-34.5 16.5t-28.5 16 t-27.5 7q-33 0 -33 -51h-117z" />
<glyph unicode="&#xf2;" d="M51 279v608q0 137 74 214t205 77h10q133 0 207 -77t74 -214v-608q0 -137 -74 -214t-207 -77h-10q-131 0 -205 77t-74 214zM184 1315v153l305 -90v-139zM217 279q0 -76 34 -109t81 -33h6q47 0 81 33t34 109v608q0 76 -33 108.5t-82 32.5h-6q-47 0 -81 -32.5t-34 -108.5 v-608z" />
<glyph unicode="&#xf3;" d="M51 279v608q0 137 74 214t205 77h10q133 0 207 -77t74 -214v-608q0 -137 -74 -214t-207 -77h-10q-131 0 -205 77t-74 214zM201 1239v139l305 90v-153zM217 279q0 -76 34 -109t81 -33h6q47 0 81 33t34 109v608q0 76 -33 108.5t-82 32.5h-6q-47 0 -81 -32.5t-34 -108.5 v-608z" />
<glyph unicode="&#xf4;" d="M51 279v608q0 137 74 214t205 77h10q133 0 207 -77t74 -214v-608q0 -137 -74 -214t-207 -77h-10q-131 0 -205 77t-74 214zM172 1237v135l123 78h86l123 -78v-135l-166 82zM217 279q0 -76 34 -109t81 -33h6q47 0 81 33t34 109v608q0 76 -33 108.5t-82 32.5h-6 q-47 0 -81 -32.5t-34 -108.5v-608z" />
<glyph unicode="&#xf5;" d="M51 279v608q0 137 74 214t205 77h10q133 0 207 -77t74 -214v-608q0 -137 -74 -214t-207 -77h-10q-131 0 -205 77t-74 214zM133 1245q2 92 33 140.5t90 48.5q25 0 43 -7.5t33.5 -16.5t30 -16.5t30.5 -7.5q33 0 33 52h115q-2 -86 -32 -137.5t-89 -51.5q-27 0 -46.5 7.5 t-34.5 16.5t-28.5 16t-27.5 7q-33 0 -33 -51h-117zM217 279q0 -76 34 -109t81 -33h6q47 0 81 33t34 109v608q0 76 -33 108.5t-82 32.5h-6q-47 0 -81 -32.5t-34 -108.5v-608z" />
<glyph unicode="&#xf6;" d="M51 279v608q0 137 74 214t205 77h10q133 0 207 -77t74 -214v-608q0 -137 -74 -214t-207 -77h-10q-131 0 -205 77t-74 214zM135 1249v185h166v-185h-166zM217 279q0 -76 34 -109t81 -33h6q47 0 81 33t34 109v608q0 76 -33 108.5t-82 32.5h-6q-47 0 -81 -32.5t-34 -108.5 v-608zM377 1249v185h164v-185h-164z" />
<glyph unicode="&#xf7;" horiz-adv-x="665" d="M47 602v141h571v-141h-571zM248 334v180h170v-180h-170zM248 831v181h170v-181h-170z" />
<glyph unicode="&#xf8;" d="M51 279v608q0 137 74 214t205 77h10q66 0 121 -23l14 49h137l-41 -135q23 -35 36.5 -81t13.5 -101v-608q0 -137 -74 -214t-207 -77h-10q-68 0 -119 18l-16 -45h-129l40 125q-55 78 -55 193zM201 291l207 731q-23 14 -58 14h-20q-51 0 -90 -32.5t-39 -110.5v-602zM266 139 q27 -10 53 -10h23q49 0 88 33t39 110v557z" />
<glyph unicode="&#xf9;" horiz-adv-x="663" d="M51 293v872h168v-880q0 -72 23.5 -105t79.5 -33h118v1018h166v-1165h-317q-133 0 -185.5 73t-52.5 220zM180 1315v153l305 -90v-139z" />
<glyph unicode="&#xfa;" horiz-adv-x="663" d="M51 293v872h168v-880q0 -72 23.5 -105t79.5 -33h118v1018h166v-1165h-317q-133 0 -185.5 73t-52.5 220zM182 1239v139l305 90v-153z" />
<glyph unicode="&#xfb;" horiz-adv-x="663" d="M51 293v872h168v-880q0 -72 23.5 -105t79.5 -33h118v1018h166v-1165h-317q-133 0 -185.5 73t-52.5 220zM168 1237v135l123 78h86l123 -78v-135l-166 82z" />
<glyph unicode="&#xfc;" horiz-adv-x="663" d="M51 293v872h168v-880q0 -72 23.5 -105t79.5 -33h118v1018h166v-1165h-317q-133 0 -185.5 73t-52.5 220zM131 1249v185h166v-185h-166zM373 1249v185h164v-185h-164z" />
<glyph unicode="&#xfd;" horiz-adv-x="630" d="M6 1165h176l148 -770l127 770h166l-281 -1441h-166l76 382zM170 1239v139l305 90v-153z" />
<glyph unicode="&#xfe;" horiz-adv-x="663" d="M55 -276v1767h166v-326h156q129 0 183 -74.5t54 -222.5v-571q0 -147 -54 -222t-183 -75h-156v-276h-166zM221 147h119q106 0 106 146v579q0 145 -106 146h-119v-871z" />
<glyph unicode="&#xff;" horiz-adv-x="630" d="M6 1165h176l148 -770l127 770h166l-281 -1441h-166l76 382zM119 1249v185h166v-185h-166zM360 1249v185h164v-185h-164z" />
<glyph unicode="&#x152;" horiz-adv-x="999" d="M55 307v877q0 147 77 227t210 80h614v-150h-292v-419h282v-150h-282v-622h292v-150h-614q-133 0 -210 80t-77 227zM227 311q0 -84 38 -122.5t93 -38.5h131v1189h-131q-55 0 -93 -37.5t-38 -121.5v-869z" />
<glyph unicode="&#x153;" horiz-adv-x="1058" d="M51 279v608q0 137 73 214t202 77h10q59 0 115.5 -27t83.5 -84q27 55 82 83t114 28h10q129 0 200 -77t71 -214v-344h-391v-262q0 -78 33.5 -111t80.5 -33h6q47 0 79 33t32 111v143h160v-143q0 -141 -68.5 -217t-200.5 -76h-10q-59 0 -114.5 27.5t-83.5 84.5 q-29 -57 -83.5 -84.5t-113.5 -27.5h-10q-129 0 -203 77t-74 214zM217 279q0 -76 34 -109t81 -33h6q47 0 81 31t34 98v623q0 74 -33 106.5t-82 32.5h-6q-47 0 -81 -32.5t-34 -108.5v-608zM621 684h227v203q0 76 -32 108.5t-79 32.5h-6q-47 0 -78.5 -32.5t-31.5 -110.5v-201z " />
<glyph unicode="&#x178;" horiz-adv-x="661" d="M6 1491h176l160 -680l145 680h168l-225 -924v-567h-176v549zM129 1569v172h166v-172h-166zM375 1569v172h166v-172h-166z" />
<glyph unicode="&#x2c6;" horiz-adv-x="819" d="M244 1237v135l123 78h86l122 -78v-135l-165 82z" />
<glyph unicode="&#x2dc;" horiz-adv-x="817" d="M207 1245q2 92 32.5 140.5t90.5 48.5q25 0 43 -7.5t33.5 -16.5t30 -16.5t30.5 -7.5q33 0 33 52h114q-2 -86 -31.5 -137.5t-88.5 -51.5q-27 0 -46.5 7.5t-35 16.5l-28.5 16t-28 7q-33 0 -32 -51h-117z" />
<glyph unicode="&#x2013;" horiz-adv-x="720" d="M51 543v145h619v-145h-619z" />
<glyph unicode="&#x2014;" horiz-adv-x="1200" d="M51 543v145h1098v-145h-1098z" />
<glyph unicode="&#x2018;" horiz-adv-x="272" d="M49 1153l37 338h129l-2 -338h-164z" />
<glyph unicode="&#x2019;" horiz-adv-x="268" d="M55 1153l2 338h164l-37 -338h-129z" />
<glyph unicode="&#x201a;" horiz-adv-x="270" d="M55 -139l2 338h164l-37 -338h-129z" />
<glyph unicode="&#x201c;" horiz-adv-x="495" d="M51 1153l37 338h129l-2 -338h-164zM274 1153l37 338h129l-2 -338h-164z" />
<glyph unicode="&#x201d;" horiz-adv-x="493" d="M55 1153l2 338h164l-37 -338h-129zM279 1153l2 338h163l-36 -338h-129z" />
<glyph unicode="&#x201e;" horiz-adv-x="493" d="M55 -139l2 338h164l-37 -338h-129zM279 -139l2 338h163l-36 -338h-129z" />
<glyph unicode="&#x2022;" horiz-adv-x="440" d="M37 696q0 39 14.5 72t39 57.5t58 39t72.5 14.5q78 0 130 -52.5t52 -130.5q0 -39 -14 -72.5t-38.5 -58t-57.5 -39t-72 -14.5q-78 0 -131 53t-53 131z" />
<glyph unicode="&#x2026;" horiz-adv-x="858" d="M59 0v190h174v-190h-174zM342 0v190h174v-190h-174zM625 0v190h172v-190h-172z" />
<glyph unicode="&#x2039;" horiz-adv-x="366" d="M41 463v106l131 285h158l-148 -338l148 -338h-158z" />
<glyph unicode="&#x203a;" horiz-adv-x="366" d="M35 178l149 338l-149 338h158l131 -285v-106l-131 -285h-158z" />
<glyph unicode="&#x20ac;" horiz-adv-x="763" d="M6 590v133h90v92h-90v133h90v252q0 147 80 227t219 80h17q137 0 218 -80.5t81 -228.5v-184l-170 -2v182q0 86 -39 124t-92 38h-9q-55 0 -94 -38t-39 -124v-246h221v-133h-221v-92h221v-133h-221v-293q0 -86 39 -124t94 -38h11q53 0 93 38t40 124v235h166v-239 q0 -147 -81 -228t-218 -81h-17q-141 0 -220 80.5t-79 228.5v297h-90z" />
<glyph unicode="&#x2122;" horiz-adv-x="720" d="M8 1405v86h238v-86h-72v-492h-96v492h-70zM274 913v578h166l47 -401l41 401h164v-578h-92v498l-63 -498h-103l-67 514v-514h-93z" />
<glyph unicode="&#xe000;" horiz-adv-x="1165" d="M0 1165h1165v-1165h-1165v1165z" />
<glyph unicode="&#xfb01;" horiz-adv-x="690" d="M10 1018v147h90v72q0 125 48.5 189.5t173.5 64.5h79v-145h-51q-43 0 -62.5 -24t-19.5 -83v-74h133v-147h-133v-1018h-168v1018h-90zM467 0v1165h168v-1165h-168zM467 1249v189h168v-189h-168z" />
<glyph unicode="&#xfb02;" horiz-adv-x="690" d="M10 1018v147h90v72q0 125 48.5 189.5t173.5 64.5h79v-145h-51q-43 0 -62.5 -24t-19.5 -83v-74h133v-147h-133v-1018h-168v1018h-90zM467 0v1491h168v-1491h-168z" />
<glyph unicode="&#xfb03;" horiz-adv-x="1101" d="M10 1018v147h90v72q0 125 48.5 189.5t173.5 64.5h79v-145h-51q-43 0 -62.5 -24t-19.5 -83v-74h133v-147h-133v-1018h-168v1018h-90zM422 1018v147h90v72q0 125 48 189.5t173 64.5h80v-145h-51q-43 0 -62.5 -24t-19.5 -83v-74h133v-147h-133v-1018h-168v1018h-90zM879 0 v1165h168v-1165h-168zM879 1249v189h168v-189h-168z" />
<glyph unicode="&#xfb04;" horiz-adv-x="1101" d="M10 1018v147h90v72q0 125 48.5 189.5t173.5 64.5h79v-145h-51q-43 0 -62.5 -24t-19.5 -83v-74h133v-147h-133v-1018h-168v1018h-90zM422 1018v147h90v72q0 125 48 189.5t173 64.5h80v-145h-51q-43 0 -62.5 -24t-19.5 -83v-74h133v-147h-133v-1018h-168v1018h-90zM879 0 v1491h168v-1491h-168z" />
</font>
</defs>
</svg>
