<?xml version="1.0" standalone="no"?><!DOCTYPE svg PUBLIC "-//W3C//DTD SVG 1.1//EN" "http://www.w3.org/Graphics/SVG/1.1/DTD/svg11.dtd" ><svg version="1.1" xmlns="http://www.w3.org/2000/svg"><defs><font horiz-adv-x="0" id="font"><font-face ascent="834" bbox="-38 -144 581 877" cap-height="728" descent="-166" font-family="FC Kaiser Cond Web" font-stretch="normal" font-style="normal" font-weight="200" units-per-em="1000" x-height="569" /><missing-glyph horiz-adv-x="108" /><glyph d="M11 0 136 728H182L306 0H273L244 175H72L43 0ZM77 204H239L159 697Z" glyph-name="A" horiz-adv-x="317" unicode="A" /><glyph d="M4 0 203 728H402V700H259V407H400V379H259V28H402V0H227V147H77L37 0ZM227 175V697L84 175Z" glyph-name="AE" horiz-adv-x="425" unicode="&#198;" /><glyph d="M11 0 136 728H182L306 0H273L244 175H72L43 0ZM77 204H239L159 697ZM103 794 223 836V807L103 767Z" glyph-name="Aacute" horiz-adv-x="317" unicode="&#193;" /><glyph d="M11 0 136 728H182L306 0H273L244 175H72L43 0ZM77 204H239L159 697ZM235 794V769L162 813L89 769V794L153 838H171Z" glyph-name="Acircumflex" horiz-adv-x="317" unicode="&#194;" /><glyph d="M11 0 136 728H182L306 0H273L244 175H72L43 0ZM77 204H239L159 697ZM104 827H135V775H104ZM187 827H218V775H187Z" glyph-name="Adieresis" horiz-adv-x="317" unicode="&#196;" /><glyph d="M11 0 136 728H182L306 0H273L244 175H72L43 0ZM77 204H239L159 697ZM219 766 99 806V835L219 793Z" glyph-name="Agrave" horiz-adv-x="317" unicode="&#192;" /><glyph d="M11 0 136 728H182L306 0H273L244 175H72L43 0ZM77 204H239L159 697ZM225 815Q225 788 207.5 771Q190 754 161 754Q133 754 115 771Q97 788 97 815Q97 842 115 859.5Q133 877 161 877Q190 877 207.5 859.5Q225 842 225 815ZM202 815Q202 833 191 844.5Q180 856 161 856Q142 856 131 844Q120 832 120 815Q120 798 131.5 786.5Q143 775 161 775Q180 775 191 786.5Q202 798 202 815Z" glyph-name="Aring" horiz-adv-x="317" unicode="&#197;" /><glyph d="M11 0 136 728H182L306 0H273L244 175H72L43 0ZM77 204H239L159 697ZM72 771Q73 797 84.5 812.5Q96 828 118 828Q131 828 141.5 822.5Q152 817 161.5 810.5Q171 804 180.5 798.5Q190 793 201 793Q224 793 226 825H250Q247 768 204 768Q190 768 179.5 773.5Q169 779 159.5 785.5Q150 792 141 797.5Q132 803 121 803Q109 803 102.5 794Q96 785 96 771Z" glyph-name="Atilde" horiz-adv-x="317" unicode="&#195;" /><glyph d="M165 728Q225 728 257.5 692Q290 656 290 578V524Q290 462 269.5 429.5Q249 397 208 387Q253 377 275.5 343Q298 309 298 243V158Q298 78 264.5 39Q231 0 168 0H36V728ZM165 28Q212 28 238.5 59.5Q265 91 265 158V246Q265 312 239 342Q213 372 165 372H68V28ZM163 399Q208 399 232.5 428Q257 457 257 522V578Q257 644 232 672Q207 700 162 700H68V399Z" glyph-name="B" horiz-adv-x="320" unicode="B" /><glyph d="M302 140Q302 102 291.5 74.5Q281 47 263 29Q245 11 221 2Q197 -7 170 -7H164Q137 -7 113 2Q89 11 71.5 29Q54 47 43.5 74.5Q33 102 33 140V588Q33 626 43 653.5Q53 681 71 699Q89 717 113 726Q137 735 164 735H170Q197 735 221 726Q245 717 263 699Q281 681 291.5 653.5Q302 626 302 588V512H270V588Q270 619 261.5 642Q253 665 239 679Q225 693 207 700Q189 707 170 707H165Q145 707 127 700Q109 693 95.5 679Q82 665 73.5 642Q65 619 65 588V141Q65 109 73.5 86.5Q82 64 95.5 49.5Q109 35 127 28.5Q145 22 165 22H170Q189 22 207.5 28.5Q226 35 239.5 49.5Q253 64 261.5 86.5Q270 109 270 141V244H302Z" glyph-name="C" horiz-adv-x="330" unicode="C" /><glyph d="M119 -124H149Q172 -124 185 -117Q198 -110 198 -90Q198 -71 184.5 -64Q171 -57 149 -57H132V-4Q89 5 61 40Q33 75 33 140V588Q33 626 43 653.5Q53 681 71 699Q89 717 113 726Q137 735 164 735H170Q197 735 221 726Q245 717 263 699Q281 681 291.5 653.5Q302 626 302 588V512H270V588Q270 619 261.5 642Q253 665 239 679Q225 693 207 700Q189 707 170 707H165Q145 707 127 700Q109 693 95.5 679Q82 665 73.5 642Q65 619 65 588V141Q65 109 73.5 86.5Q82 64 95.5 49.5Q109 35 127 28.5Q145 22 165 22H170Q189 22 207.5 28.5Q226 35 239.5 49.5Q253 64 261.5 86.5Q270 109 270 141V244H302V140Q302 102 291.5 74.5Q281 47 263 29Q245 11 221 2Q197 -7 170 -7H153V-39Q185 -39 205 -50Q225 -61 225 -90V-91Q225 -119 206 -131.5Q187 -144 152 -144H119Z" glyph-name="Ccedilla" horiz-adv-x="330" unicode="&#199;" /><glyph d="M172 728Q232 728 265.5 689Q299 650 299 569V159Q299 78 266 39Q233 0 173 0H36V728ZM171 28Q214 28 240.5 59Q267 90 267 158V571Q267 639 240.5 669.5Q214 700 170 700H68V28Z" glyph-name="D" horiz-adv-x="331" unicode="D" /><glyph d="M36 0V728H236V700H68V407H235V379H68V28H236V0Z" glyph-name="E" horiz-adv-x="258" unicode="E" /><glyph d="M81 794 201 836V807L81 767ZM36 0V728H236V700H68V407H235V379H68V28H236V0Z" glyph-name="Eacute" horiz-adv-x="258" unicode="&#201;" /><glyph d="M211 794V769L138 813L65 769V794L129 838H147ZM36 0V728H236V700H68V407H235V379H68V28H236V0Z" glyph-name="Ecircumflex" horiz-adv-x="258" unicode="&#202;" /><glyph d="M36 0V728H236V700H68V407H235V379H68V28H236V0ZM81 827H112V775H81ZM164 827H195V775H164Z" glyph-name="Edieresis" horiz-adv-x="258" unicode="&#203;" /><glyph d="M196 766 76 806V835L196 793ZM36 0V728H236V700H68V407H235V379H68V28H236V0Z" glyph-name="Egrave" horiz-adv-x="258" unicode="&#200;" /><glyph d="M5 389H45V728H180Q241 728 274.5 689Q308 650 308 569V159Q308 78 275 39Q242 0 182 0H45V363H5ZM180 28Q223 28 249.5 59Q276 90 276 158V571Q276 639 249.5 669.5Q223 700 178 700H77V389H185V363H77V28Z" glyph-name="Eth" horiz-adv-x="340" unicode="&#208;" /><glyph d="M214 312H83V141Q83 109 91.5 86.5Q100 64 114 49.5Q128 35 146 28.5Q164 22 183 22H189Q208 22 226 28.5Q244 35 258 49.5Q272 64 280.5 86.5Q289 109 289 141V244H320V140Q320 102 309.5 74.5Q299 47 281.5 29Q264 11 240 2Q216 -7 189 -7H182Q155 -7 131 2Q107 11 89.5 29Q72 47 61.5 74.5Q51 102 51 140V312H7V337H51V417H7V442H51V588Q51 626 61.5 653.5Q72 681 89.5 699Q107 717 131 726Q155 735 182 735H189Q216 735 240 726Q264 717 281.5 699Q299 681 309.5 653.5Q320 626 320 588V512H288V588Q288 619 279.5 642Q271 665 257.5 679Q244 693 226 700Q208 707 189 707H183Q163 707 145 700Q127 693 113.5 679Q100 665 91.5 642Q83 619 83 588V442H214V417H83V337H214Z" glyph-name="Euro" horiz-adv-x="349" unicode="&#8364;" /><glyph d="M68 378V0H36V728H236V700H68V406H235V378Z" glyph-name="F" horiz-adv-x="253" unicode="F" /><glyph d="M167 0Q106 0 69.5 32.5Q33 65 33 142V588Q33 664 69.5 699.5Q106 735 161 735H167Q221 735 257.5 699.5Q294 664 294 588V512H262V588Q262 652 234 679.5Q206 707 167 707H161Q122 707 93.5 679.5Q65 652 65 588V141Q65 77 94 52.5Q123 28 168 28H261V336H169V364H292V0Z" glyph-name="G" horiz-adv-x="327" unicode="G" /><glyph d="M269 371H68V0H36V728H68V399H269V728H301V0H269Z" glyph-name="H" horiz-adv-x="337" unicode="H" /><glyph d="M38 728H70V0H38Z" glyph-name="I" horiz-adv-x="109" unicode="I" /><glyph d="M38 728H70V0H38ZM-3 794 117 836V807L-3 767Z" glyph-name="Iacute" horiz-adv-x="109" unicode="&#205;" /><glyph d="M38 728H70V0H38ZM128 794V769L55 813L-18 769V794L46 838H64Z" glyph-name="Icircumflex" horiz-adv-x="109" unicode="&#206;" /><glyph d="M38 728H70V0H38ZM32 830V777H1V830ZM108 830V777H77V830Z" glyph-name="Idieresis" horiz-adv-x="109" unicode="&#207;" /><glyph d="M38 728H70V0H38ZM114 766 -6 806V835L114 793Z" glyph-name="Igrave" horiz-adv-x="109" unicode="&#204;" /><glyph d="M159 145Q159 67 129 33.5Q99 0 46 0H10V28H41Q78 28 102 54.5Q126 81 126 145V728H159Z" glyph-name="J" horiz-adv-x="195" unicode="J" /><glyph d="M68 371V0H36V728H68V379L250 728H284L100 376L285 0H251Z" glyph-name="K" horiz-adv-x="294" unicode="K" /><glyph d="M36 728H68V29H233V0H36Z" glyph-name="L" horiz-adv-x="246" unicode="L" /><glyph d="M1 295 44 318V728H76V336L188 397V369L76 308V29H241V0H44V290L1 267Z" glyph-name="Lslash" horiz-adv-x="250" unicode="&#321;" /><glyph d="M66 713V0H36V728H95L216 30L335 728H394V0H363V718L240 0H190Z" glyph-name="M" horiz-adv-x="429" unicode="M" /><glyph d="M83 633 66 698V0H36V728H87L268 100L283 39V728H313V0H267Z" glyph-name="N" horiz-adv-x="349" unicode="N" /><glyph d="M90 771Q91 797 102.5 812.5Q114 828 136 828Q149 828 159.5 822.5Q170 817 179.5 810.5Q189 804 198.5 798.5Q208 793 219 793Q242 793 244 825H268Q265 768 222 768Q208 768 197.5 773.5Q187 779 177.5 785.5Q168 792 159 797.5Q150 803 139 803Q127 803 120.5 794Q114 785 114 771ZM83 633 66 698V0H36V728H87L268 100L283 39V728H313V0H267Z" glyph-name="Ntilde" horiz-adv-x="349" unicode="&#209;" /><glyph d="M33 588Q33 626 43.5 653.5Q54 681 72 699Q90 717 114 726Q138 735 165 735H172Q199 735 223.5 726Q248 717 266 699Q284 681 294.5 653.5Q305 626 305 588V140Q305 102 294.5 74.5Q284 47 266 29Q248 11 223.5 2Q199 -7 172 -7H165Q138 -7 114 2Q90 11 72 29Q54 47 43.5 74.5Q33 102 33 140ZM273 588Q273 619 264.5 642Q256 665 242 679Q228 693 209.5 700Q191 707 172 707H166Q146 707 128 700Q110 693 96 679Q82 665 73.5 642Q65 619 65 588V141Q65 109 73.5 86.5Q82 64 96 49.5Q110 35 128 28.5Q146 22 166 22H172Q191 22 209.5 28.5Q228 35 242 49.5Q256 64 264.5 86.5Q273 109 273 141Z" glyph-name="O" horiz-adv-x="338" unicode="O" /><glyph d="M164 0Q137 0 113 9Q89 18 71.5 36Q54 54 43.5 81.5Q33 109 33 147V581Q33 619 43.5 646.5Q54 674 71.5 692Q89 710 113 719Q137 728 164 728H447V700H284V407H445V379H284V28H447V0ZM65 147Q65 115 73.5 92.5Q82 70 96 55.5Q110 41 128 34.5Q146 28 166 28H252V699H166Q146 699 128 692.5Q110 686 96 671.5Q82 657 73.5 634.5Q65 612 65 581Z" glyph-name="OE" horiz-adv-x="469" unicode="&#338;" /><glyph d="M109 794 229 836V807L109 767ZM33 588Q33 626 43.5 653.5Q54 681 72 699Q90 717 114 726Q138 735 165 735H172Q199 735 223.5 726Q248 717 266 699Q284 681 294.5 653.5Q305 626 305 588V140Q305 102 294.5 74.5Q284 47 266 29Q248 11 223.5 2Q199 -7 172 -7H165Q138 -7 114 2Q90 11 72 29Q54 47 43.5 74.5Q33 102 33 140ZM273 588Q273 619 264.5 642Q256 665 242 679Q228 693 209.5 700Q191 707 172 707H166Q146 707 128 700Q110 693 96 679Q82 665 73.5 642Q65 619 65 588V141Q65 109 73.5 86.5Q82 64 96 49.5Q110 35 128 28.5Q146 22 166 22H172Q191 22 209.5 28.5Q228 35 242 49.5Q256 64 264.5 86.5Q273 109 273 141Z" glyph-name="Oacute" horiz-adv-x="338" unicode="&#211;" /><glyph d="M244 794V769L171 813L98 769V794L162 838H180ZM33 588Q33 626 43.5 653.5Q54 681 72 699Q90 717 114 726Q138 735 165 735H172Q199 735 223.5 726Q248 717 266 699Q284 681 294.5 653.5Q305 626 305 588V140Q305 102 294.5 74.5Q284 47 266 29Q248 11 223.5 2Q199 -7 172 -7H165Q138 -7 114 2Q90 11 72 29Q54 47 43.5 74.5Q33 102 33 140ZM273 588Q273 619 264.5 642Q256 665 242 679Q228 693 209.5 700Q191 707 172 707H166Q146 707 128 700Q110 693 96 679Q82 665 73.5 642Q65 619 65 588V141Q65 109 73.5 86.5Q82 64 96 49.5Q110 35 128 28.5Q146 22 166 22H172Q191 22 209.5 28.5Q228 35 242 49.5Q256 64 264.5 86.5Q273 109 273 141Z" glyph-name="Ocircumflex" horiz-adv-x="338" unicode="&#212;" /><glyph d="M114 827H145V775H114ZM197 827H228V775H197ZM33 588Q33 626 43.5 653.5Q54 681 72 699Q90 717 114 726Q138 735 165 735H172Q199 735 223.5 726Q248 717 266 699Q284 681 294.5 653.5Q305 626 305 588V140Q305 102 294.5 74.5Q284 47 266 29Q248 11 223.5 2Q199 -7 172 -7H165Q138 -7 114 2Q90 11 72 29Q54 47 43.5 74.5Q33 102 33 140ZM273 588Q273 619 264.5 642Q256 665 242 679Q228 693 209.5 700Q191 707 172 707H166Q146 707 128 700Q110 693 96 679Q82 665 73.5 642Q65 619 65 588V141Q65 109 73.5 86.5Q82 64 96 49.5Q110 35 128 28.5Q146 22 166 22H172Q191 22 209.5 28.5Q228 35 242 49.5Q256 64 264.5 86.5Q273 109 273 141Z" glyph-name="Odieresis" horiz-adv-x="338" unicode="&#214;" /><glyph d="M229 766 109 806V835L229 793ZM33 588Q33 626 43.5 653.5Q54 681 72 699Q90 717 114 726Q138 735 165 735H172Q199 735 223.5 726Q248 717 266 699Q284 681 294.5 653.5Q305 626 305 588V140Q305 102 294.5 74.5Q284 47 266 29Q248 11 223.5 2Q199 -7 172 -7H165Q138 -7 114 2Q90 11 72 29Q54 47 43.5 74.5Q33 102 33 140ZM273 588Q273 619 264.5 642Q256 665 242 679Q228 693 209.5 700Q191 707 172 707H166Q146 707 128 700Q110 693 96 679Q82 665 73.5 642Q65 619 65 588V141Q65 109 73.5 86.5Q82 64 96 49.5Q110 35 128 28.5Q146 22 166 22H172Q191 22 209.5 28.5Q228 35 242 49.5Q256 64 264.5 86.5Q273 109 273 141Z" glyph-name="Ograve" horiz-adv-x="338" unicode="&#210;" /><glyph d="M37 588Q37 626 47.5 653.5Q58 681 76 699Q94 717 118.5 726Q143 735 170 735H177Q224 735 259 709L272 753H301L281 686Q295 668 302.5 644Q310 620 310 588V140Q310 102 299.5 74.5Q289 47 270.5 29Q252 11 228 2Q204 -7 177 -7H170Q144 -7 121.5 0.5Q99 8 82 23L67 -25H37L60 48Q49 65 43 88Q37 111 37 140ZM280 589Q280 608 276.5 623.5Q273 639 268 652L91 55Q105 37 126 28.5Q147 20 170 20H176Q196 20 215 26.5Q234 33 248.5 47.5Q263 62 271.5 84.5Q280 107 280 139ZM67 139Q67 110 75 86L249 680Q235 694 216 701Q197 708 177 708H171Q151 708 132 701.5Q113 695 98.5 680.5Q84 666 75.5 643.5Q67 621 67 589Z" glyph-name="Oslash" horiz-adv-x="346" unicode="&#216;" /><glyph d="M82 771Q83 797 94.5 812.5Q106 828 128 828Q141 828 151.5 822.5Q162 817 171.5 810.5Q181 804 190.5 798.5Q200 793 211 793Q234 793 236 825H260Q257 768 214 768Q200 768 189.5 773.5Q179 779 169.5 785.5Q160 792 151 797.5Q142 803 131 803Q119 803 112.5 794Q106 785 106 771ZM33 588Q33 626 43.5 653.5Q54 681 72 699Q90 717 114 726Q138 735 165 735H172Q199 735 223.5 726Q248 717 266 699Q284 681 294.5 653.5Q305 626 305 588V140Q305 102 294.5 74.5Q284 47 266 29Q248 11 223.5 2Q199 -7 172 -7H165Q138 -7 114 2Q90 11 72 29Q54 47 43.5 74.5Q33 102 33 140ZM273 588Q273 619 264.5 642Q256 665 242 679Q228 693 209.5 700Q191 707 172 707H166Q146 707 128 700Q110 693 96 679Q82 665 73.5 642Q65 619 65 588V141Q65 109 73.5 86.5Q82 64 96 49.5Q110 35 128 28.5Q146 22 166 22H172Q191 22 209.5 28.5Q228 35 242 49.5Q256 64 264.5 86.5Q273 109 273 141Z" glyph-name="Otilde" horiz-adv-x="338" unicode="&#213;" /><glyph d="M68 389H149Q198 389 224 419.5Q250 450 250 513V578Q250 641 224 670.5Q198 700 149 700H68ZM36 728H151Q282 728 282 577V514Q282 361 151 361H68V0H36Z" glyph-name="P" horiz-adv-x="303" unicode="P" /><glyph d="M33 588Q33 626 43.5 653.5Q54 681 72 699Q90 717 114 726Q138 735 165 735H172Q199 735 223.5 726Q248 717 266 699Q284 681 294.5 653.5Q305 626 305 588V140Q305 104 295.5 77.5Q286 51 270 33Q254 15 232 5.5Q210 -4 185 -6V-95H153V-6Q102 -2 67.5 33Q33 68 33 140ZM273 588Q273 619 264.5 642Q256 665 242 679Q228 693 209.5 700Q191 707 172 707H166Q146 707 128 700Q110 693 96 679Q82 665 73.5 642Q65 619 65 588V141Q65 109 73.5 86.5Q82 64 96 49.5Q110 35 128 28.5Q146 22 166 22H172Q191 22 209.5 28.5Q228 35 242 49.5Q256 64 264.5 86.5Q273 109 273 141Z" glyph-name="Q" horiz-adv-x="338" unicode="Q" /><glyph d="M69 0H36V728H164Q225 728 256.5 692Q288 656 288 578V533Q288 471 268 438.5Q248 406 207 395Q246 387 264 359.5Q282 332 282 273V0H249V275Q249 335 228.5 357.5Q208 380 163 380H69ZM162 408Q207 408 231.5 437Q256 466 256 531V578Q256 644 231 672Q206 700 161 700H69V408Z" glyph-name="R" horiz-adv-x="314" unicode="R" /><glyph d="M215 367Q234 354 247 340.5Q260 327 268.5 309.5Q277 292 281 270.5Q285 249 285 221V140Q285 65 249.5 29Q214 -7 158 -7H151Q95 -7 60 29Q25 65 25 140V244H57V141Q57 78 84 50Q111 22 151 22H157Q197 22 225 50.5Q253 79 253 141V220Q253 264 241 291Q229 318 195 341L95 409Q60 432 43 461Q26 490 26 539V590Q26 663 60.5 699Q95 735 151 735H158Q214 735 248.5 699Q283 663 283 591V512H251V590Q251 650 224 678.5Q197 707 157 707H151Q111 707 84.5 678.5Q58 650 58 590V541Q58 502 71.5 479Q85 456 114 436Z" glyph-name="S" horiz-adv-x="310" unicode="S" /><glyph d="M164 764H146L82 808V833L155 789L228 833V808ZM215 367Q234 354 247 340.5Q260 327 268.5 309.5Q277 292 281 270.5Q285 249 285 221V140Q285 65 249.5 29Q214 -7 158 -7H151Q95 -7 60 29Q25 65 25 140V244H57V141Q57 78 84 50Q111 22 151 22H157Q197 22 225 50.5Q253 79 253 141V220Q253 264 241 291Q229 318 195 341L95 409Q60 432 43 461Q26 490 26 539V590Q26 663 60.5 699Q95 735 151 735H158Q214 735 248.5 699Q283 663 283 591V512H251V590Q251 650 224 678.5Q197 707 157 707H151Q111 707 84.5 678.5Q58 650 58 590V541Q58 502 71.5 479Q85 456 114 436Z" glyph-name="Scaron" horiz-adv-x="310" unicode="&#352;" /><glyph d="M157 699V0H125V699H11V728H270V699Z" glyph-name="T" horiz-adv-x="281" unicode="T" /><glyph d="M68 567H160Q291 567 291 416V353Q291 201 160 201H68V0H36V728H68ZM68 539V230H158Q207 230 232.5 259.5Q258 289 258 352V417Q258 480 232.5 509.5Q207 539 158 539Z" glyph-name="Thorn" horiz-adv-x="315" unicode="&#222;" /><glyph d="M305 140Q305 102 294.5 74.5Q284 47 266 29Q248 11 224 2Q200 -7 172 -7H165Q138 -7 114 2Q90 11 72 29Q54 47 43.5 74.5Q33 102 33 140V728H65V141Q65 109 73.5 86.5Q82 64 96 50Q110 36 128 29Q146 22 166 22H172Q191 22 209 29Q227 36 241.5 50Q256 64 264.5 86.5Q273 109 273 141V728H305Z" glyph-name="U" horiz-adv-x="338" unicode="U" /><glyph d="M112 794 232 836V807L112 767ZM305 140Q305 102 294.5 74.5Q284 47 266 29Q248 11 224 2Q200 -7 172 -7H165Q138 -7 114 2Q90 11 72 29Q54 47 43.5 74.5Q33 102 33 140V728H65V141Q65 109 73.5 86.5Q82 64 96 50Q110 36 128 29Q146 22 166 22H172Q191 22 209 29Q227 36 241.5 50Q256 64 264.5 86.5Q273 109 273 141V728H305Z" glyph-name="Uacute" horiz-adv-x="338" unicode="&#218;" /><glyph d="M243 794V769L170 813L97 769V794L161 838H179ZM305 140Q305 102 294.5 74.5Q284 47 266 29Q248 11 224 2Q200 -7 172 -7H165Q138 -7 114 2Q90 11 72 29Q54 47 43.5 74.5Q33 102 33 140V728H65V141Q65 109 73.5 86.5Q82 64 96 50Q110 36 128 29Q146 22 166 22H172Q191 22 209 29Q227 36 241.5 50Q256 64 264.5 86.5Q273 109 273 141V728H305Z" glyph-name="Ucircumflex" horiz-adv-x="338" unicode="&#219;" /><glyph d="M305 140Q305 102 294.5 74.5Q284 47 266 29Q248 11 224 2Q200 -7 172 -7H165Q138 -7 114 2Q90 11 72 29Q54 47 43.5 74.5Q33 102 33 140V728H65V141Q65 109 73.5 86.5Q82 64 96 50Q110 36 128 29Q146 22 166 22H172Q191 22 209 29Q227 36 241.5 50Q256 64 264.5 86.5Q273 109 273 141V728H305ZM113 827H144V775H113ZM196 827H227V775H196Z" glyph-name="Udieresis" horiz-adv-x="338" unicode="&#220;" /><glyph d="M228 766 108 806V835L228 793ZM305 140Q305 102 294.5 74.5Q284 47 266 29Q248 11 224 2Q200 -7 172 -7H165Q138 -7 114 2Q90 11 72 29Q54 47 43.5 74.5Q33 102 33 140V728H65V141Q65 109 73.5 86.5Q82 64 96 50Q110 36 128 29Q146 22 166 22H172Q191 22 209 29Q227 36 241.5 50Q256 64 264.5 86.5Q273 109 273 141V728H305Z" glyph-name="Ugrave" horiz-adv-x="338" unicode="&#217;" /><glyph d="M312 728 185 0H138L10 728H43L162 34L280 728Z" glyph-name="V" horiz-adv-x="322" unicode="V" /><glyph d="M460 728 382 0H332L237 695L144 0H94L15 728H47L119 29L214 728H261L358 29L429 728Z" glyph-name="W" horiz-adv-x="475" unicode="W" /><glyph d="M268 0 155 350 42 0H9L134 380L17 728H50L155 410L261 728H293L176 382L301 0Z" glyph-name="X" horiz-adv-x="310" unicode="X" /><glyph d="M171 289V0H138V289L8 728H41L155 338L262 728H294Z" glyph-name="Y" horiz-adv-x="302" unicode="Y" /><glyph d="M171 289V0H138V289L8 728H41L155 338L262 728H294ZM101 794 221 836V807L101 767Z" glyph-name="Yacute" horiz-adv-x="302" unicode="&#221;" /><glyph d="M171 289V0H138V289L8 728H41L155 338L262 728H294ZM98 827H129V775H98ZM181 827H212V775H181Z" glyph-name="Ydieresis" horiz-adv-x="302" unicode="&#376;" /><glyph d="M49 29H255V0H17V29L222 699H22V728H255V699Z" glyph-name="Z" horiz-adv-x="272" unicode="Z" /><glyph d="M149 764H131L67 808V833L140 789L213 833V808ZM49 29H255V0H17V29L222 699H22V728H255V699Z" glyph-name="Zcaron" horiz-adv-x="272" unicode="&#381;" /><glyph d="M136 0Q81 0 52 32Q23 64 23 134V184Q23 254 52.5 285Q82 316 136 316H220V452Q220 502 200.5 523.5Q181 545 147 545H142Q112 545 90.5 524Q69 503 69 453V391H38V451Q38 516 67.5 544.5Q97 573 142 573H147Q195 573 223.5 544Q252 515 252 451V0ZM220 28V289H140Q99 289 77 265.5Q55 242 55 185V134Q55 77 77 52.5Q99 28 140 28Z" glyph-name="a" horiz-adv-x="285" unicode="a" /><glyph d="M136 0Q81 0 52 32Q23 64 23 134V184Q23 254 52.5 285Q82 316 136 316H220V452Q220 502 200.5 523.5Q181 545 147 545H142Q112 545 90.5 524Q69 503 69 453V391H38V451Q38 516 67.5 544.5Q97 573 142 573H147Q195 573 223.5 544Q252 515 252 451V0ZM220 28V289H140Q99 289 77 265.5Q55 242 55 185V134Q55 77 77 52.5Q99 28 140 28ZM84 647 211 697V668L84 620Z" glyph-name="aacute" horiz-adv-x="285" unicode="&#225;" /><glyph d="M136 0Q81 0 52 32Q23 64 23 134V184Q23 254 52.5 285Q82 316 136 316H220V452Q220 502 200.5 523.5Q181 545 147 545H142Q112 545 90.5 524Q69 503 69 453V391H38V451Q38 516 67.5 544.5Q97 573 142 573H147Q195 573 223.5 544Q252 515 252 451V0ZM220 28V289H140Q99 289 77 265.5Q55 242 55 185V134Q55 77 77 52.5Q99 28 140 28ZM217 645V617L144 671L71 617V645L135 697H153Z" glyph-name="acircumflex" horiz-adv-x="285" unicode="&#226;" /><glyph d="M121 647 248 697V668L121 620Z" glyph-name="acute" horiz-adv-x="387" unicode="&#180;" /><glyph d="M124 794 244 836V807L124 767Z" glyph-name="acute.uc" horiz-adv-x="388" /><glyph d="M136 0Q81 0 52 32Q23 64 23 134V184Q23 254 52.5 285Q82 316 136 316H220V452Q220 502 200.5 523.5Q181 545 147 545H142Q112 545 90.5 524Q69 503 69 453V391H38V451Q38 516 67.5 544.5Q97 573 142 573H147Q195 573 223.5 544Q252 515 252 451V0ZM220 28V289H140Q99 289 77 265.5Q55 242 55 185V134Q55 77 77 52.5Q99 28 140 28ZM88 684H119V630H88ZM167 684H198V630H167Z" glyph-name="adieresis" horiz-adv-x="285" unicode="&#228;" /><glyph d="M438 195V132Q438 65 406 32.5Q374 0 326 0H136Q81 0 52 32Q23 64 23 134V180Q23 250 52.5 281Q82 312 136 312H214V452Q214 501 195 523Q176 545 144 545H139Q110 545 89.5 523.5Q69 502 69 453V391H38V451Q38 515 66 544Q94 573 139 573H144Q178 573 201 555.5Q224 538 232 503Q242 537 268 555Q294 573 324 573H329Q376 573 407 539.5Q438 506 438 441V287H246V27H326Q358 27 383 52.5Q408 78 408 132V195ZM214 28V285H140Q99 285 77 261.5Q55 238 55 181V134Q55 77 77 52.5Q99 28 140 28ZM246 314H407V441Q407 494 383.5 519.5Q360 545 329 545H325Q294 545 270.5 520Q247 495 246 443Z" glyph-name="ae" horiz-adv-x="461" unicode="&#230;" /><glyph d="M136 0Q81 0 52 32Q23 64 23 134V184Q23 254 52.5 285Q82 316 136 316H220V452Q220 502 200.5 523.5Q181 545 147 545H142Q112 545 90.5 524Q69 503 69 453V391H38V451Q38 516 67.5 544.5Q97 573 142 573H147Q195 573 223.5 544Q252 515 252 451V0ZM220 28V289H140Q99 289 77 265.5Q55 242 55 185V134Q55 77 77 52.5Q99 28 140 28ZM205 618 78 667V696L205 646Z" glyph-name="agrave" horiz-adv-x="285" unicode="&#224;" /><glyph d="M338 376H282V0H153Q90 0 57.5 40Q25 80 25 163V247Q25 312 47 346Q69 380 114 390Q74 399 53 430Q32 461 32 518V577Q32 649 60.5 692Q89 735 154 735H160Q226 735 253.5 697Q281 659 281 587V514H249V588Q249 646 229 676.5Q209 707 160 707H155Q107 707 85.5 672Q64 637 64 577V515Q64 460 88.5 431.5Q113 403 160 403H338ZM250 28V376H159Q115 376 86.5 347.5Q58 319 58 249V163Q58 93 83.5 60.5Q109 28 156 28Z" glyph-name="ampersand" horiz-adv-x="347" unicode="&amp;" /><glyph d="M136 0Q81 0 52 32Q23 64 23 134V184Q23 254 52.5 285Q82 316 136 316H220V452Q220 502 200.5 523.5Q181 545 147 545H142Q112 545 90.5 524Q69 503 69 453V391H38V451Q38 516 67.5 544.5Q97 573 142 573H147Q195 573 223.5 544Q252 515 252 451V0ZM220 28V289H140Q99 289 77 265.5Q55 242 55 185V134Q55 77 77 52.5Q99 28 140 28ZM208 671Q208 643 190.5 625.5Q173 608 144 608Q115 608 97.5 625.5Q80 643 80 671Q80 699 97.5 717Q115 735 144 735Q173 735 190.5 717Q208 699 208 671ZM185 671Q185 689 173.5 701Q162 713 144 713Q125 713 113.5 701Q102 689 102 671Q102 653 113.5 641.5Q125 630 144 630Q162 630 173.5 641.5Q185 653 185 671Z" glyph-name="aring" horiz-adv-x="285" unicode="&#229;" /><glyph d="M226 458 132 695 41 458H11L114 728H150L255 458Z" glyph-name="asciicircum" horiz-adv-x="266" unicode="^" /><glyph d="M176 270Q159 270 147 277Q135 284 123.5 292Q112 300 101 307Q90 314 77 314Q60 314 53 302Q46 290 46 273H21V274Q22 302 34 321Q46 340 74 340Q90 340 102.5 333Q115 326 126 318Q137 310 148 303Q159 296 173 296Q190 296 197 308.5Q204 321 204 338H229V337Q228 308 216 289Q204 270 176 270Z" glyph-name="asciitilde" horiz-adv-x="250" unicode="~" /><glyph d="M170 587 108 625V553H86L87 625L24 587L13 606L76 643L13 681L24 699L87 661L86 735H108V662L170 699L181 681L117 643L181 606Z" glyph-name="asterisk" horiz-adv-x="193" unicode="*" /><glyph d="M367 27Q416 28 447 58.5Q478 89 478 164V481Q478 594 428 643.5Q378 693 281 693H272Q215 693 174.5 674.5Q134 656 108 623.5Q82 591 69.5 546Q57 501 57 448V121Q57 4 111 -53.5Q165 -111 264 -111H365V-134H264Q155 -134 92.5 -71.5Q30 -9 30 120V448Q30 506 43.5 555Q57 604 86 640Q115 676 161 696Q207 716 272 716H282Q395 716 450 659.5Q505 603 505 481V165Q505 120 494 89Q483 58 464.5 38Q446 18 420 9Q394 0 364 0H271Q218 0 188 32.5Q158 65 158 140V425Q158 495 185.5 532Q213 569 272 569H367ZM190 140Q190 79 212 53Q234 27 275 27H336V541H276Q231 541 210.5 512Q190 483 190 426Z" glyph-name="at" horiz-adv-x="536" unicode="@" /><glyph d="M136 0Q81 0 52 32Q23 64 23 134V184Q23 254 52.5 285Q82 316 136 316H220V452Q220 502 200.5 523.5Q181 545 147 545H142Q112 545 90.5 524Q69 503 69 453V391H38V451Q38 516 67.5 544.5Q97 573 142 573H147Q195 573 223.5 544Q252 515 252 451V0ZM220 28V289H140Q99 289 77 265.5Q55 242 55 185V134Q55 77 77 52.5Q99 28 140 28ZM57 624Q58 651 68.5 668.5Q79 686 102 686Q115 686 125 680Q135 674 144 666.5Q153 659 162 653Q171 647 182 647Q193 647 199 657Q205 667 205 683H229Q228 655 217.5 638Q207 621 186 621Q172 621 161.5 627Q151 633 142 640.5Q133 648 124 654Q115 660 105 660Q92 660 86.5 649.5Q81 639 81 624Z" glyph-name="atilde" horiz-adv-x="285" unicode="&#227;" /><glyph d="M33 728H64V569H155Q207 569 235 535.5Q263 502 263 432V138Q263 67 235.5 33.5Q208 0 155 0H33ZM64 28H149Q187 28 209 53.5Q231 79 231 137V432Q231 490 209 515.5Q187 541 149 541H64Z" glyph-name="b" horiz-adv-x="292" unicode="b" /><glyph d="M175 -81H146L24 746H54Z" glyph-name="backslash" horiz-adv-x="195" unicode="\" /><glyph d="M36 747H64V-110H36Z" glyph-name="bar" horiz-adv-x="101" unicode="|" /><glyph d="M203 -99H189Q127 -99 102.5 -63.5Q78 -28 80 31Q80 38 81.5 63.5Q83 89 84.5 118.5Q86 148 87.5 174Q89 200 89 208Q90 256 76 281.5Q62 307 22 307H17V335H22Q62 335 75.5 361.5Q89 388 88 433Q88 443 86.5 472Q85 501 83.5 532.5Q82 564 81 590.5Q80 617 80 623Q78 688 105.5 718Q133 748 188 748H203V720H196Q150 719 129 696.5Q108 674 110 619Q110 612 111 586Q112 560 113.5 529.5Q115 499 116.5 471.5Q118 444 118 434Q119 390 108 360Q97 330 65 322Q96 314 108 285.5Q120 257 118 206Q118 197 116.5 172Q115 147 113.5 119Q112 91 111 66.5Q110 42 110 35Q109 -18 127.5 -44Q146 -70 196 -71H203Z" glyph-name="braceleft" horiz-adv-x="222" unicode="{" /><glyph d="M19 -71H26Q76 -70 94.5 -44Q113 -18 112 35Q112 42 110.5 66.5Q109 91 107.5 119Q106 147 105 172Q104 197 104 206Q102 257 114 285.5Q126 314 157 322Q125 330 114 360Q103 390 104 434Q104 444 105 471.5Q106 499 107.5 529.5Q109 560 110.5 586Q112 612 112 619Q114 674 93 696.5Q72 719 26 720H19V748H34Q89 748 116.5 718Q144 688 142 623Q142 617 140.5 590.5Q139 564 137.5 532.5Q136 501 135 472Q134 443 134 433Q133 388 146.5 361.5Q160 335 200 335H205V307H200Q160 307 146 281.5Q132 256 133 208Q133 200 134.5 174Q136 148 137.5 118.5Q139 89 140.5 63.5Q142 38 142 31Q143 1 137.5 -23Q132 -47 119.5 -64Q107 -81 85.5 -90Q64 -99 33 -99H19Z" glyph-name="braceright" horiz-adv-x="222" unicode="}" /><glyph d="M139 717H62V-68H139V-95H32V744H139Z" glyph-name="bracketleft" horiz-adv-x="162" unicode="[" /><glyph d="M23 744H130V-95H23V-68H100V717H23Z" glyph-name="bracketright" horiz-adv-x="162" unicode="]" /><glyph d="M268 697Q266 655 244.5 634.5Q223 614 191 614Q159 614 137 634.5Q115 655 114 697H139Q140 669 154 654Q168 639 191 639Q214 639 228 654Q242 669 243 697Z" glyph-name="breve" horiz-adv-x="381" unicode="&#728;" /><glyph d="M269 842Q267 804 244.5 785Q222 766 190 766Q158 766 136 785Q114 804 112 842H137Q138 818 153 804.5Q168 791 190 791Q213 791 227.5 805Q242 819 244 842Z" glyph-name="breve.uc" horiz-adv-x="380" /><glyph d="M45 747H74V371H45ZM45 307H74V-110H45Z" glyph-name="brokenbar" horiz-adv-x="119" unicode="&#166;" /><glyph d="M22 340Q22 378 47.5 404Q73 430 111 430Q149 430 175 404Q201 378 201 340Q201 302 175 276Q149 250 111 250Q73 250 47.5 276Q22 302 22 340Z" glyph-name="bullet" horiz-adv-x="223" unicode="&#8226;" /><glyph d="M259 129Q259 63 226.5 29.5Q194 -4 146 -4H141Q93 -4 60 29.5Q27 63 27 129V440Q27 506 60 539.5Q93 573 141 573H146Q194 573 226.5 539.5Q259 506 259 440V391H228V440Q228 494 203 519.5Q178 545 146 545H141Q109 545 84 519.5Q59 494 59 440V129Q59 75 84 49.5Q109 24 141 24H146Q178 24 203 49.5Q228 75 228 129V195H259Z" glyph-name="c" horiz-adv-x="281" unicode="c" /><glyph d="M207 613H189L125 665V692L198 638L271 692V665Z" glyph-name="caron" horiz-adv-x="395" unicode="&#711;" /><glyph d="M207 764H189L125 808V833L198 789L271 833V808Z" glyph-name="caron.uc" horiz-adv-x="395" /><glyph d="M93 -124H123Q146 -124 159 -117Q172 -110 172 -90Q172 -71 158.5 -64Q145 -57 123 -57H106V1Q72 11 49.5 42.5Q27 74 27 129V440Q27 506 60 539.5Q93 573 141 573H146Q194 573 226.5 539.5Q259 506 259 440V391H228V440Q228 494 203 519.5Q178 545 146 545H141Q109 545 84 519.5Q59 494 59 440V129Q59 75 84 49.5Q109 24 141 24H146Q178 24 203 49.5Q228 75 228 129V195H259V129Q259 63 226.5 29.5Q194 -4 146 -4H141Q137 -4 133.5 -3.5Q130 -3 127 -3V-39Q159 -39 179 -50Q199 -61 199 -90V-91Q199 -119 180 -131.5Q161 -144 126 -144H93Z" glyph-name="ccedilla" horiz-adv-x="281" unicode="&#231;" /><glyph d="M151 -124H181Q204 -124 217 -117Q230 -110 230 -90Q230 -71 216.5 -64Q203 -57 181 -57H164V0H185V-39Q217 -39 237 -50Q257 -61 257 -90V-91Q257 -119 238 -131.5Q219 -144 184 -144H151Z" glyph-name="cedilla" horiz-adv-x="388" unicode="&#184;" /><glyph d="M135 -3Q91 1 62 33.5Q33 66 33 129V440Q33 502 62 534.5Q91 567 135 572V644H165V572Q208 567 236.5 534.5Q265 502 265 440V391H234V440Q234 494 209 519.5Q184 545 152 545H147Q115 545 90 519.5Q65 494 65 440V129Q65 75 90 49.5Q115 24 147 24H152Q184 24 209 49.5Q234 75 234 129V195H265V129Q265 67 236.5 34.5Q208 2 165 -3V-75H135Z" glyph-name="cent" horiz-adv-x="294" unicode="&#162;" /><glyph d="M271 645V617L198 671L125 617V645L189 697H207Z" glyph-name="circumflex" horiz-adv-x="395" unicode="&#710;" /><glyph d="M271 794V769L198 813L125 769V794L189 838H207Z" glyph-name="circumflex.uc" horiz-adv-x="395" /><glyph d="M70 65V0H38V65ZM70 463V398H38V463Z" glyph-name="colon" horiz-adv-x="108" unicode=":" /><glyph d="M70 65 58 -62H33L38 65Z" glyph-name="comma" horiz-adv-x="104" unicode="," /><glyph d="M331 454V492Q331 537 313.5 562.5Q296 588 259 588H254Q218 588 200.5 562Q183 536 183 492V233Q183 191 200.5 165Q218 139 254 139H259Q295 139 313 164.5Q331 190 331 233V281H358V233Q358 179 334 146Q310 113 259 113H254Q203 113 178.5 146Q154 179 154 233V492Q154 546 178.5 580Q203 614 254 614H259Q311 614 334.5 581Q358 548 358 492V454ZM20 418Q20 491 33 549Q46 607 74 647.5Q102 688 146.5 709.5Q191 731 253 731H262Q321 731 364.5 709.5Q408 688 436.5 647.5Q465 607 479 549Q493 491 493 418V309Q493 235 477.5 177.5Q462 120 432 79.5Q402 39 359 18Q316 -3 262 -3H253Q134 -3 77 79.5Q20 162 20 309ZM46 309Q46 241 58 187.5Q70 134 95 96.5Q120 59 159 39Q198 19 253 19H262Q312 19 350.5 39Q389 59 415 96.5Q441 134 454.5 187.5Q468 241 468 309V418Q468 485 456 538.5Q444 592 418.5 629.5Q393 667 354.5 687.5Q316 708 262 708H253Q196 708 157 687.5Q118 667 93 629.5Q68 592 57 538.5Q46 485 46 418Z" glyph-name="copyright" horiz-adv-x="514" unicode="&#169;" /><glyph d="M260 0H138Q84 0 57 33.5Q30 67 30 138V432Q30 502 57.5 535.5Q85 569 138 569H228V728H260ZM228 541H143Q105 541 83 515.5Q61 490 61 432V137Q61 79 83 53.5Q105 28 143 28H228Z" glyph-name="d" horiz-adv-x="292" unicode="d" /><glyph d="M11 587H86V728H116V587H191V560H116V0H86V560H11Z" glyph-name="dagger" horiz-adv-x="202" unicode="&#8224;" /><glyph d="M13 587H88V728H117V587H193V560H117V168H193V141H117V0H88V141H13V168H88V560H13Z" glyph-name="daggerdbl" horiz-adv-x="205" unicode="&#8225;" /><glyph d="M13 647Q13 684 36.5 709Q60 734 98 734Q137 734 161 709Q185 684 185 647Q185 611 161 586.5Q137 562 98 562Q60 562 36.5 586.5Q13 611 13 647ZM38 647Q38 621 54.5 602.5Q71 584 98 584Q127 584 143.5 602.5Q160 621 160 647Q160 673 143.5 692Q127 711 98 711Q71 711 54.5 692Q38 673 38 647Z" glyph-name="degree" horiz-adv-x="198" unicode="&#176;" /><glyph d="M117 684H148V630H117ZM196 684H227V630H196Z" glyph-name="dieresis" horiz-adv-x="342" unicode="&#168;" /><glyph d="M114 827H145V775H114ZM197 827H228V775H197Z" glyph-name="dieresis.uc" horiz-adv-x="342" /><glyph d="M27 316V343H264V316ZM130 260H162V193H130ZM130 464H162V397H130Z" glyph-name="divide" horiz-adv-x="291" unicode="&#247;" /><glyph d="M216 367Q235 354 248 340.5Q261 327 269.5 309.5Q278 292 282 270.5Q286 249 286 221V140Q286 68 253.5 32.5Q221 -3 170 -6V-65H140V-6Q89 -2 57.5 33.5Q26 69 26 140V244H58V141Q58 78 85.5 50Q113 22 153 22H159Q199 22 226.5 50Q254 78 254 141V220Q254 264 241.5 291Q229 318 196 341L97 409Q63 432 45.5 461Q28 490 28 539V590Q28 659 58.5 694.5Q89 730 140 734V791H170V734Q221 731 252.5 695.5Q284 660 284 591V512H252V590Q252 650 225.5 678.5Q199 707 159 707H153Q113 707 86.5 678.5Q60 650 60 590V541Q60 502 73.5 479Q87 456 116 436Z" glyph-name="dollar" horiz-adv-x="311" unicode="$" /><glyph d="M168 693H200V630H168Z" glyph-name="dotaccent" horiz-adv-x="369" unicode="&#729;" /><glyph d="M169 834H200V773H169Z" glyph-name="dotaccent.uc" horiz-adv-x="369" /><glyph d="M63 569V0H31V569Z" glyph-name="dotlessi" horiz-adv-x="93" unicode="&#305;" /><glyph d="M59 287V129Q59 102 66 82Q73 62 85 49.5Q97 37 112.5 30.5Q128 24 144 24H149Q165 24 180 30.5Q195 37 207 49.5Q219 62 226 82Q233 102 233 129V195H263V129Q263 62 230 29Q197 -4 149 -4H144Q96 -4 61.5 29.5Q27 63 27 129V440Q27 473 36.5 498Q46 523 61.5 539.5Q77 556 98 564.5Q119 573 143 573H148Q196 573 229.5 540Q263 507 263 441V287ZM59 314H232V441Q232 495 206 520Q180 545 148 545H144Q128 545 112.5 538.5Q97 532 85 519.5Q73 507 66 487Q59 467 59 440Z" glyph-name="e" horiz-adv-x="286" unicode="e" /><glyph d="M83 647 210 697V668L83 620ZM59 287V129Q59 102 66 82Q73 62 85 49.5Q97 37 112.5 30.5Q128 24 144 24H149Q165 24 180 30.5Q195 37 207 49.5Q219 62 226 82Q233 102 233 129V195H263V129Q263 62 230 29Q197 -4 149 -4H144Q96 -4 61.5 29.5Q27 63 27 129V440Q27 473 36.5 498Q46 523 61.5 539.5Q77 556 98 564.5Q119 573 143 573H148Q196 573 229.5 540Q263 507 263 441V287ZM59 314H232V441Q232 495 206 520Q180 545 148 545H144Q128 545 112.5 538.5Q97 532 85 519.5Q73 507 66 487Q59 467 59 440Z" glyph-name="eacute" horiz-adv-x="286" unicode="&#233;" /><glyph d="M219 645V617L146 671L73 617V645L137 697H155ZM59 287V129Q59 102 66 82Q73 62 85 49.5Q97 37 112.5 30.5Q128 24 144 24H149Q165 24 180 30.5Q195 37 207 49.5Q219 62 226 82Q233 102 233 129V195H263V129Q263 62 230 29Q197 -4 149 -4H144Q96 -4 61.5 29.5Q27 63 27 129V440Q27 473 36.5 498Q46 523 61.5 539.5Q77 556 98 564.5Q119 573 143 573H148Q196 573 229.5 540Q263 507 263 441V287ZM59 314H232V441Q232 495 206 520Q180 545 148 545H144Q128 545 112.5 538.5Q97 532 85 519.5Q73 507 66 487Q59 467 59 440Z" glyph-name="ecircumflex" horiz-adv-x="286" unicode="&#234;" /><glyph d="M91 684H122V630H91ZM170 684H201V630H170ZM59 287V129Q59 102 66 82Q73 62 85 49.5Q97 37 112.5 30.5Q128 24 144 24H149Q165 24 180 30.5Q195 37 207 49.5Q219 62 226 82Q233 102 233 129V195H263V129Q263 62 230 29Q197 -4 149 -4H144Q96 -4 61.5 29.5Q27 63 27 129V440Q27 473 36.5 498Q46 523 61.5 539.5Q77 556 98 564.5Q119 573 143 573H148Q196 573 229.5 540Q263 507 263 441V287ZM59 314H232V441Q232 495 206 520Q180 545 148 545H144Q128 545 112.5 538.5Q97 532 85 519.5Q73 507 66 487Q59 467 59 440Z" glyph-name="edieresis" horiz-adv-x="286" unicode="&#235;" /><glyph d="M59 287V129Q59 102 66 82Q73 62 85 49.5Q97 37 112.5 30.5Q128 24 144 24H149Q165 24 180 30.5Q195 37 207 49.5Q219 62 226 82Q233 102 233 129V195H263V129Q263 62 230 29Q197 -4 149 -4H144Q96 -4 61.5 29.5Q27 63 27 129V440Q27 473 36.5 498Q46 523 61.5 539.5Q77 556 98 564.5Q119 573 143 573H148Q196 573 229.5 540Q263 507 263 441V287ZM59 314H232V441Q232 495 206 520Q180 545 148 545H144Q128 545 112.5 538.5Q97 532 85 519.5Q73 507 66 487Q59 467 59 440ZM208 618 81 667V696L208 646Z" glyph-name="egrave" horiz-adv-x="286" unicode="&#232;" /><glyph d="M27 592Q27 665 63 700Q99 735 154 735H160Q214 735 251 700Q288 665 288 592V543Q288 487 265 453Q242 419 203 410Q241 402 265 368.5Q289 335 289 276V140Q289 64 252 28.5Q215 -7 160 -7H154Q99 -7 62 28.5Q25 64 25 140V276Q25 335 49 368.5Q73 402 111 410Q72 419 49.5 453Q27 487 27 543ZM257 277Q257 341 228.5 368.5Q200 396 161 396H153Q114 396 85.5 368.5Q57 341 57 277V141Q57 77 86 49.5Q115 22 154 22H160Q199 22 228 49.5Q257 77 257 141ZM255 591Q255 652 227 679.5Q199 707 160 707H154Q115 707 87 679.5Q59 652 59 591V539Q59 480 85.5 452Q112 424 153 424H161Q202 424 228.5 452Q255 480 255 539Z" glyph-name="eight" horiz-adv-x="314" unicode="8" /><glyph d="M33 63H65V0H33ZM132 63H164V0H132ZM231 63H264V0H231Z" glyph-name="ellipsis" horiz-adv-x="297" unicode="&#8230;" /><glyph d="M21 315H548V288H21Z" glyph-name="emdash" horiz-adv-x="569" unicode="&#8212;" /><glyph d="M21 315H318V288H21Z" glyph-name="endash" horiz-adv-x="338" unicode="&#8211;" /><glyph d="M292 399V371H32V399ZM292 296V268H32V296Z" glyph-name="equal" horiz-adv-x="325" unicode="=" /><glyph d="M86 643 152 668 119 728H150L177 678L246 705V682L188 659L244 559Q261 530 265.5 503Q270 476 270 434V128Q270 62 235.5 29Q201 -4 151 -4H146Q97 -4 62 29Q27 62 27 128V441Q27 474 36.5 498.5Q46 523 62 539.5Q78 556 99 564.5Q120 573 144 573H148Q175 573 196 561Q217 549 228 533L162 649L86 620ZM59 128Q59 74 85.5 49Q112 24 146 24H151Q185 24 211.5 49Q238 74 238 128V442Q238 495 211 520Q184 545 151 545H146Q112 545 85.5 520Q59 495 59 442Z" glyph-name="eth" horiz-adv-x="294" unicode="&#240;" /><glyph d="M38 154V728H70V154ZM70 63V0H38V63Z" glyph-name="exclam" horiz-adv-x="108" unicode="!" /><glyph d="M67 -134H35V440H67ZM67 532H35V595H67Z" glyph-name="exclamdown" horiz-adv-x="102" unicode="&#161;" /><glyph d="M91 541V0H59V541H12V569H59V617Q59 675 81 701.5Q103 728 148 728H173V700H152Q123 700 107 681.5Q91 663 91 617V569H173V541Z" glyph-name="f" horiz-adv-x="178" unicode="f" /><glyph d="M155 475Q227 475 257 439Q287 403 287 325V142Q287 65 251 29Q215 -7 162 -7H155Q102 -7 66.5 29Q31 65 31 142V244H63V142Q63 77 90.5 49.5Q118 22 156 22H161Q199 22 226.5 49.5Q254 77 254 142V324Q254 390 232 418Q210 446 152 446H31V728H281V700H62V475Z" glyph-name="five" horiz-adv-x="311" unicode="5" /><glyph d="M87 476 78 -133H47L56 476H8V504H56L58 611Q59 672 82 700Q105 728 155 728H182V700H159Q126 700 108 680.5Q90 661 89 611L87 504H182V476Z" glyph-name="florin" horiz-adv-x="193" unicode="&#402;" /><glyph d="M246 136V0H215V136H10V160L197 728H246V163H309L308 136ZM215 163V700L43 163Z" glyph-name="four" horiz-adv-x="315" unicode="4" /><glyph d="M294 728H321L35 0H9Z" glyph-name="fraction" horiz-adv-x="330" unicode="&#8260;" /><glyph d="M228 541H142Q104 541 82.5 515.5Q61 490 61 433V140Q61 83 82.5 57.5Q104 32 142 32H228ZM228 4H137Q29 4 29 141V432Q29 502 56.5 535.5Q84 569 137 569H259V-26Q259 -57 251 -78.5Q243 -100 229 -113.5Q215 -127 196 -133Q177 -139 155 -139H151Q130 -139 110.5 -133Q91 -127 75.5 -114.5Q60 -102 51 -82.5Q42 -63 42 -36V-27H72V-36Q72 -57 79.5 -71.5Q87 -86 98 -95Q109 -104 123 -107.5Q137 -111 151 -111H155Q169 -111 182.5 -107Q196 -103 206 -93.5Q216 -84 222 -68Q228 -52 228 -29Z" glyph-name="g" horiz-adv-x="291" unicode="g" /><glyph d="M118 432H152Q192 432 215.5 456.5Q239 481 239 532V589Q239 643 219.5 674Q200 705 155 705H150Q102 705 83 673Q64 641 64 584V0H32V584Q32 654 58.5 694Q85 734 149 734H156Q218 734 244.5 695Q271 656 271 590V535Q271 441 198 420Q240 412 261.5 380.5Q283 349 283 291V146Q283 74 250.5 37Q218 0 154 0H118V29H154Q250 29 250 146V293Q250 353 225.5 378.5Q201 404 153 404H118Z" glyph-name="germandbls" horiz-adv-x="307" unicode="&#223;" /><glyph d="M263 618 136 667V696L263 646Z" glyph-name="grave" horiz-adv-x="388" unicode="`" /><glyph d="M266 766 146 806V835L266 793Z" glyph-name="grave.uc" horiz-adv-x="388" /><glyph d="M41 472 285 347V318L41 193V225L255 332L41 440Z" glyph-name="greater" horiz-adv-x="316" unicode="&gt;" /><glyph d="M140 252 213 101H183L109 252L183 403H213ZM48 252 123 101H93L22 242V262L93 403H123Z" glyph-name="guillemotleft" horiz-adv-x="234" unicode="&#171;" /><glyph d="M94 252 21 403H51L125 252L51 101H21ZM186 252 111 403H141L212 262V242L141 101H111Z" glyph-name="guillemotright" horiz-adv-x="234" unicode="&#187;" /><glyph d="M48 252 123 101H93L22 242V262L93 403H123Z" glyph-name="guilsinglleft" horiz-adv-x="146" unicode="&#8249;" /><glyph d="M97 252 23 403H53L124 262V242L53 101H23Z" glyph-name="guilsinglright" horiz-adv-x="146" unicode="&#8250;" /><glyph d="M230 443Q230 498 211.5 519.5Q193 541 154 541H64V0H33V728H64V569H158Q213 569 237 540Q261 511 261 442V0H230Z" glyph-name="h" horiz-adv-x="291" unicode="h" /><glyph d="M174 717 147 619H120L145 717ZM244 717 217 619H190L216 717Z" glyph-name="hungarumlaut" horiz-adv-x="366" unicode="&#733;" /><glyph d="M245 855 219 764H192L217 855ZM170 855 145 764H117L142 855Z" glyph-name="hungarumlaut.uc" horiz-adv-x="366" /><glyph d="M21 315H184V288H21Z" glyph-name="hyphen" horiz-adv-x="204" unicode="-" /><glyph d="M67 569V0H35V569ZM35 630V685H67V630Z" glyph-name="i" horiz-adv-x="102" unicode="i" /><glyph d="M101 698V669L-6 621V649ZM63 569V0H31V569Z" glyph-name="iacute" horiz-adv-x="93" unicode="&#237;" /><glyph d="M121 645V617L48 671L-25 617V645L39 697H57ZM63 569V0H31V569Z" glyph-name="icircumflex" horiz-adv-x="93" unicode="&#238;" /><glyph d="M25 684V630H-5V684ZM99 684V630H69V684ZM63 569V0H31V569Z" glyph-name="idieresis" horiz-adv-x="93" unicode="&#239;" /><glyph d="M63 569V0H31V569ZM110 618 -17 667V696L110 646Z" glyph-name="igrave" horiz-adv-x="93" unicode="&#236;" /><glyph d="M-38 -108H-24Q6 -108 21 -89.5Q36 -71 36 -25V569H68V-25Q68 -83 47 -109.5Q26 -136 -19 -136H-38ZM36 630V685H68V630Z" glyph-name="j" horiz-adv-x="103" unicode="j" /><glyph d="M259 569 95 279 262 0H227L64 274V0H33V728H64V284L226 569Z" glyph-name="k" horiz-adv-x="264" unicode="k" /><glyph d="M67 0H35V728H67Z" glyph-name="l" horiz-adv-x="102" unicode="l" /><glyph d="M276 440 61 332 276 225V193L31 318V347L276 472Z" glyph-name="less" horiz-adv-x="316" unicode="&lt;" /><glyph d="M76 428 123 452V424L76 400V0H44V384L1 363V391L44 412V728H76Z" glyph-name="lslash" horiz-adv-x="126" unicode="&#322;" /><glyph d="M364 443Q364 498 346 519.5Q328 541 288 541H230V0H198V541H64V0H33V569H293Q347 569 371.5 540Q396 511 396 442V0H364Z" glyph-name="m" horiz-adv-x="426" unicode="m" /><glyph d="M262 639H120V666H262Z" glyph-name="macron" horiz-adv-x="382" unicode="&#175;" /><glyph d="M264 785H117V811H264Z" glyph-name="macron.uc" horiz-adv-x="382" /><glyph d="M25 316V343H261V316Z" glyph-name="minus" horiz-adv-x="287" unicode="&#8722;" /><glyph d="M31 242 114 328 31 415 50 435 133 348 217 435 237 415 153 328 237 242 217 223 133 308 50 223Z" glyph-name="multiply" horiz-adv-x="268" unicode="&#215;" /><glyph d="M231 443Q231 498 212.5 519.5Q194 541 155 541H65V0H33V569H160Q214 569 238.5 540Q263 511 263 442V0H231Z" glyph-name="n" horiz-adv-x="293" unicode="n" /><glyph d="M158 22Q177 22 194.5 29Q212 36 225 50.5Q238 65 246 87.5Q254 110 254 142V302H155Q83 302 54 338Q25 374 25 452V587Q25 625 35 653Q45 681 62 699Q79 717 102.5 726Q126 735 152 735H159Q185 735 208 726Q231 717 248.5 699Q266 681 276 653Q286 625 286 587V141Q286 103 276 75Q266 47 249 29Q232 11 209 2Q186 -7 159 -7H153Q126 -7 103 2Q80 11 63 29Q46 47 36.5 75Q27 103 27 141V216H58V142Q58 110 66 87.5Q74 65 87 50.5Q100 36 117 29Q134 22 153 22ZM57 453Q57 387 79.5 358.5Q102 330 160 330H254V586Q254 618 246 641Q238 664 224.5 678.5Q211 693 194 700Q177 707 158 707H153Q134 707 117 700Q100 693 86.5 678.5Q73 664 65 641Q57 618 57 586Z" glyph-name="nine" horiz-adv-x="316" unicode="9" /><glyph d="M231 443Q231 498 212.5 519.5Q194 541 155 541H65V0H33V569H160Q214 569 238.5 540Q263 511 263 442V0H231ZM58 624Q59 651 69.5 668.5Q80 686 103 686Q116 686 126 680Q136 674 145 666.5Q154 659 163 653Q172 647 183 647Q194 647 200 657Q206 667 206 683H230Q229 655 218.5 638Q208 621 187 621Q173 621 162.5 627Q152 633 143 640.5Q134 648 125 654Q116 660 106 660Q93 660 87.5 649.5Q82 639 82 624Z" glyph-name="ntilde" horiz-adv-x="293" unicode="&#241;" /><glyph d="M237 277H113L94 0H66L85 277H12V307H87L98 464H30V494H100L116 728H144L128 494H252L268 728H297L281 494H350V464H279L268 307H338V277H266L247 0H218ZM115 307H239L250 464H126Z" glyph-name="numbersign" horiz-adv-x="365" unicode="#" /><glyph d="M59 128Q59 74 85.5 49Q112 24 146 24H151Q185 24 211.5 49Q238 74 238 128V441Q238 495 211.5 520Q185 545 151 545H146Q112 545 85.5 520Q59 495 59 441ZM27 441Q27 507 62 540Q97 573 146 573H151Q201 573 235.5 540Q270 507 270 441V128Q270 62 235.5 29Q201 -4 151 -4H146Q97 -4 62 29Q27 62 27 128Z" glyph-name="o" horiz-adv-x="297" unicode="o" /><glyph d="M89 647 216 697V668L89 620ZM59 128Q59 74 85.5 49Q112 24 146 24H151Q185 24 211.5 49Q238 74 238 128V441Q238 495 211.5 520Q185 545 151 545H146Q112 545 85.5 520Q59 495 59 441ZM27 441Q27 507 62 540Q97 573 146 573H151Q201 573 235.5 540Q270 507 270 441V128Q270 62 235.5 29Q201 -4 151 -4H146Q97 -4 62 29Q27 62 27 128Z" glyph-name="oacute" horiz-adv-x="297" unicode="&#243;" /><glyph d="M223 645V617L150 671L77 617V645L141 697H159ZM59 128Q59 74 85.5 49Q112 24 146 24H151Q185 24 211.5 49Q238 74 238 128V441Q238 495 211.5 520Q185 545 151 545H146Q112 545 85.5 520Q59 495 59 441ZM27 441Q27 507 62 540Q97 573 146 573H151Q201 573 235.5 540Q270 507 270 441V128Q270 62 235.5 29Q201 -4 151 -4H146Q97 -4 62 29Q27 62 27 128Z" glyph-name="ocircumflex" horiz-adv-x="297" unicode="&#244;" /><glyph d="M95 684H126V630H95ZM174 684H205V630H174ZM59 128Q59 74 85.5 49Q112 24 146 24H151Q185 24 211.5 49Q238 74 238 128V441Q238 495 211.5 520Q185 545 151 545H146Q112 545 85.5 520Q59 495 59 441ZM27 441Q27 507 62 540Q97 573 146 573H151Q201 573 235.5 540Q270 507 270 441V128Q270 62 235.5 29Q201 -4 151 -4H146Q97 -4 62 29Q27 62 27 128Z" glyph-name="odieresis" horiz-adv-x="297" unicode="&#246;" /><glyph d="M474 195V129Q474 62 441 29Q408 -4 360 -4H355Q323 -4 294 15Q265 34 254 73Q243 34 213.5 15Q184 -4 151 -4H146Q97 -4 62 29Q27 62 27 128V441Q27 507 61.5 540Q96 573 146 573H150Q184 573 213.5 554.5Q243 536 254 497Q265 535 294 554Q323 573 355 573H360Q407 573 440.5 539.5Q474 506 474 441V287H270V128Q270 101 277.5 81.5Q285 62 297 49.5Q309 37 324 30.5Q339 24 355 24H360Q376 24 391 30.5Q406 37 418 49.5Q430 62 437 82Q444 102 444 129V195ZM59 128Q59 74 85.5 49Q112 24 146 24H151Q184 24 211 48.5Q238 73 238 126V441Q238 468 230.5 488Q223 508 211 520.5Q199 533 183 539Q167 545 151 545H146Q112 545 85.5 520Q59 495 59 441ZM270 314H443V441Q443 495 417 520Q391 545 359 545H355Q339 545 323.5 538.5Q308 532 296 519.5Q284 507 277 487.5Q270 468 270 441Z" glyph-name="oe" horiz-adv-x="500" unicode="&#339;" /><glyph d="M232 -135H213Q181 -135 165 -120.5Q149 -106 149 -83Q149 -60 161.5 -38.5Q174 -17 198 0H223Q202 -18 189 -38Q176 -58 176 -79Q176 -94 186.5 -104Q197 -114 220 -114H232Z" glyph-name="ogonek" horiz-adv-x="391" unicode="&#731;" /><glyph d="M59 128Q59 74 85.5 49Q112 24 146 24H151Q185 24 211.5 49Q238 74 238 128V441Q238 495 211.5 520Q185 545 151 545H146Q112 545 85.5 520Q59 495 59 441ZM27 441Q27 507 62 540Q97 573 146 573H151Q201 573 235.5 540Q270 507 270 441V128Q270 62 235.5 29Q201 -4 151 -4H146Q97 -4 62 29Q27 62 27 128ZM212 618 85 667V696L212 646Z" glyph-name="ograve" horiz-adv-x="297" unicode="&#242;" /><glyph d="M79 700H6V728H97V726H111V0H79Z" glyph-name="one" horiz-adv-x="153" unicode="1" /><glyph d="M305 728H331L45 0H19ZM302 179Q316 193 322 204Q328 215 328 233V261Q328 290 316 302Q304 314 286 314H282Q262 314 251 300.5Q240 287 240 261V224H215V260Q215 295 232.5 316Q250 337 282 337H287Q316 337 335 318Q354 299 354 260V233Q354 208 345.5 192Q337 176 320 160L267 113Q251 97 245.5 86Q240 75 240 54V24H356V0H213V50Q213 78 221 95Q229 112 251 132ZM81 704H36V728H96V726H107V398H81Z" glyph-name="onehalf" horiz-adv-x="387" unicode="&#189;" /><glyph d="M178 82 267 331H307V84H340V61H307V0H282V61H178ZM305 728H331L45 0H19ZM81 704H36V728H96V726H107V398H81ZM282 84V311L202 84Z" glyph-name="onequarter" horiz-adv-x="378" unicode="&#188;" /><glyph d="M94 383Q17 383 17 470V493Q17 538 36.5 558.5Q56 579 94 579H142V656Q142 711 97 711H95Q51 711 51 656V621H26V655Q26 693 44 713.5Q62 734 94 734H97Q130 734 148.5 715Q167 696 167 656V383ZM142 405V557H96Q70 557 56 543Q42 529 42 494V470Q42 437 56 421Q70 405 96 405Z" glyph-name="ordfeminine" horiz-adv-x="186" unicode="&#170;" /><glyph d="M19 641Q19 687 41 710Q63 733 97 733H100Q135 733 157 710Q179 687 179 641V471Q179 425 157 401.5Q135 378 100 378H97Q62 378 40.5 401.5Q19 425 19 471ZM44 472Q44 437 59 419Q74 401 97 401H100Q123 401 138 419Q153 437 153 472V640Q153 675 138 692.5Q123 710 100 710H97Q74 710 59 692.5Q44 675 44 640Z" glyph-name="ordmasculine" horiz-adv-x="198" unicode="&#186;" /><glyph d="M27 441Q27 507 61.5 540Q96 573 146 573H150Q192 573 223 550L235 588H263L243 529Q255 513 262 491Q269 469 269 441V128Q269 62 234.5 29Q200 -4 150 -4H146Q102 -4 73 19L60 -19H34L53 38Q27 72 27 128ZM56 127Q56 91 68 69L212 522Q186 546 152 546H145Q128 546 112 540Q96 534 83.5 521Q71 508 63.5 488.5Q56 469 56 442ZM240 442Q240 473 229 497L84 46Q96 34 111.5 28.5Q127 23 144 23H150Q167 23 183.5 29Q200 35 212.5 48Q225 61 232.5 80.5Q240 100 240 127Z" glyph-name="oslash" horiz-adv-x="296" unicode="&#248;" /><glyph d="M59 128Q59 74 85.5 49Q112 24 146 24H151Q185 24 211.5 49Q238 74 238 128V441Q238 495 211.5 520Q185 545 151 545H146Q112 545 85.5 520Q59 495 59 441ZM27 441Q27 507 62 540Q97 573 146 573H151Q201 573 235.5 540Q270 507 270 441V128Q270 62 235.5 29Q201 -4 151 -4H146Q97 -4 62 29Q27 62 27 128ZM63 624Q64 651 74.5 668.5Q85 686 108 686Q121 686 131 680Q141 674 150 666.5Q159 659 168 653Q177 647 188 647Q199 647 205 657Q211 667 211 683H235Q234 655 223.5 638Q213 621 192 621Q178 621 167.5 627Q157 633 148 640.5Q139 648 130 654Q121 660 111 660Q98 660 92.5 649.5Q87 639 87 624Z" glyph-name="otilde" horiz-adv-x="297" unicode="&#245;" /><glyph d="M33 569H154Q208 569 235.5 535.5Q263 502 263 431V137Q263 67 235 33.5Q207 0 154 0H64V-135H33ZM64 28H149Q187 28 209 53.5Q231 79 231 137V432Q231 490 209 515.5Q187 541 149 541H64Z" glyph-name="p" horiz-adv-x="292" unicode="p" /><glyph d="M264 0H237V702H183V0H156V395H144Q18 395 18 552V572Q18 646 46.5 687Q75 728 143 728H264Z" glyph-name="paragraph" horiz-adv-x="296" unicode="&#182;" /><glyph d="M33 580Q33 666 65.5 704.5Q98 743 148 743H153V716H151Q115 716 89 685Q63 654 63 579V81Q63 6 89 -25Q115 -56 151 -56H153V-83H149Q99 -83 66 -44.5Q33 -6 33 80Z" glyph-name="parenleft" horiz-adv-x="182" unicode="(" /><glyph d="M148 80Q148 -6 115 -44.5Q82 -83 32 -83H28V-56H30Q66 -56 92 -25Q118 6 118 81V579Q118 654 92 685Q66 716 30 716H28V743H33Q58 743 79 733.5Q100 724 115.5 704.5Q131 685 139.5 654Q148 623 148 580Z" glyph-name="parenright" horiz-adv-x="182" unicode=")" /><glyph d="M16 631Q16 682 38 707.5Q60 733 98 733H103Q142 733 163.5 707.5Q185 682 185 631V515Q185 465 163 439.5Q141 414 103 414H98Q60 414 38 439.5Q16 465 16 515ZM159 632Q159 671 144 690.5Q129 710 103 710H98Q72 710 57 690.5Q42 671 42 632V514Q42 476 57 457Q72 438 98 438H103Q129 438 144 457Q159 476 159 514ZM346 728H374L47 0H20ZM207 211Q207 262 229 288Q251 314 289 314H295Q334 314 355.5 288Q377 262 377 211V96Q377 46 355 20.5Q333 -5 295 -5H289Q251 -5 229 20Q207 45 207 96ZM351 213Q351 252 336 271.5Q321 291 295 291H289Q263 291 248 271.5Q233 252 233 213V95Q233 57 248 37.5Q263 18 289 18H295Q321 18 336 37.5Q351 57 351 95Z" glyph-name="percent" horiz-adv-x="392" unicode="%" /><glyph d="M70 65V0H38V65Z" glyph-name="period" horiz-adv-x="108" unicode="." /><glyph d="M36 377H68V312H36Z" glyph-name="periodcentered" horiz-adv-x="105" unicode="&#183;" /><glyph d="M159 632Q159 671 144 690.5Q129 710 103 710H98Q72 710 57 690.5Q42 671 42 632V514Q42 476 57 457Q72 438 98 438H103Q129 438 144 457Q159 476 159 514ZM185 515Q185 465 163 439.5Q141 414 103 414H98Q60 414 38 439.5Q16 465 16 515V631Q16 682 38 707.5Q60 733 98 733H103Q142 733 163.5 707.5Q185 682 185 631ZM19 0 346 728H374L47 0ZM349 213Q349 252 334 271.5Q319 291 293 291H288Q262 291 247 271.5Q232 252 232 213V95Q232 57 247 37.5Q262 18 288 18H293Q319 18 334 37.5Q349 57 349 95ZM375 96Q375 46 353 20.5Q331 -5 293 -5H288Q250 -5 228 20Q206 45 206 96V211Q206 262 228 288Q250 314 288 314H293Q332 314 353.5 288Q375 262 375 211ZM555 213Q555 252 540 271.5Q525 291 499 291H493Q467 291 452 271.5Q437 252 437 213V95Q437 57 452 37.5Q467 18 493 18H499Q525 18 540 37.5Q555 57 555 95ZM581 96Q581 46 559 20.5Q537 -5 499 -5H493Q455 -5 433 20Q411 45 411 96V211Q411 262 433 288Q455 314 493 314H499Q538 314 559.5 288Q581 262 581 211Z" glyph-name="perthousand" horiz-adv-x="596" unicode="&#8240;" /><glyph d="M146 316V193H116V316H12V343H116V464H146V343H250V316Z" glyph-name="plus" horiz-adv-x="262" unicode="+" /><glyph d="M260 -135H228V0H138Q85 0 57.5 33.5Q30 67 30 137V431Q30 502 57 535.5Q84 569 138 569H260ZM228 541H143Q105 541 83 515.5Q61 490 61 432V137Q61 79 83 53.5Q105 28 143 28H228Z" glyph-name="q" horiz-adv-x="292" unicode="q" /><glyph d="M148 349Q190 349 213 376.5Q236 404 236 461V596Q236 652 213.5 679.5Q191 707 151 707H146Q106 707 83.5 679.5Q61 652 61 596V513H29V596Q29 665 59 700Q89 735 145 735H152Q208 735 238 699.5Q268 664 268 595V461Q268 392 239 358Q210 324 159 324H148V150H117V349ZM149 63V0H117V63Z" glyph-name="question" horiz-adv-x="299" unicode="?" /><glyph d="M154 246Q112 246 89 218.5Q66 191 66 134V-1Q66 -58 88.5 -85Q111 -112 151 -112H156Q196 -112 218.5 -85Q241 -58 241 -1V82H273V-1Q273 -70 243 -105Q213 -140 157 -140H150Q94 -140 64 -104.5Q34 -69 34 0V133Q34 202 63 236.5Q92 271 143 271H154V444H185V246ZM185 531H153V594H185Z" glyph-name="questiondown" horiz-adv-x="304" unicode="&#191;" /><glyph d="M55 728V609H28V728ZM119 728V609H91V728Z" glyph-name="quotedbl" horiz-adv-x="145" unicode="&quot;" /><glyph d="M63 66 52 -58H27L32 66ZM129 66 117 -58H93L97 66Z" glyph-name="quotedblbase" horiz-adv-x="154" unicode="&#8222;" /><glyph d="M24 605 35 728H60L55 605ZM89 605 101 728H125L121 605Z" glyph-name="quotedblleft" horiz-adv-x="150" unicode="&#8220;" /><glyph d="M60 728 49 605H25L29 728ZM126 728 114 605H90L94 728Z" glyph-name="quotedblright" horiz-adv-x="149" unicode="&#8221;" /><glyph d="M24 604 35 727H59L55 604Z" glyph-name="quoteleft" horiz-adv-x="84" unicode="&#8216;" /><glyph d="M60 728 49 605H25L29 728Z" glyph-name="quoteright" horiz-adv-x="84" unicode="&#8217;" /><glyph d="M63 66 52 -58H27L32 66Z" glyph-name="quotesinglbase" horiz-adv-x="89" unicode="&#8218;" /><glyph d="M62 728V609H35V728Z" glyph-name="quotesingle" horiz-adv-x="97" unicode="&apos;" /><glyph d="M174 541H137Q98 541 81 519.5Q64 498 64 442V0H33V441Q33 510 55.5 539.5Q78 569 132 569H174Z" glyph-name="r" horiz-adv-x="183" unicode="r" /><glyph d="M19 576Q19 652 52 692.5Q85 733 148 733H153Q215 733 248.5 692.5Q282 652 282 576V539Q282 464 248.5 423Q215 382 153 382H148Q85 382 52 423Q19 464 19 539ZM38 539Q38 473 65 436Q92 399 148 399H154Q206 399 235 435.5Q264 472 264 539V575Q264 644 235.5 680Q207 716 154 716H148Q92 716 65 680Q38 644 38 575ZM180 452V530Q180 556 151 556H123V452H104V667H152Q175 667 187.5 656Q200 645 200 615V607Q200 591 194 580Q188 569 174 565Q188 562 193.5 553.5Q199 545 199 531V452ZM151 571Q182 571 182 606V613Q182 635 173.5 643Q165 651 148 651H123V571Z" glyph-name="registered" horiz-adv-x="302" unicode="&#174;" /><glyph d="M258 671Q258 643 240.5 625.5Q223 608 194 608Q165 608 147.5 625.5Q130 643 130 671Q130 699 147.5 717Q165 735 194 735Q223 735 240.5 717Q258 699 258 671ZM235 671Q235 689 223.5 701Q212 713 194 713Q175 713 163.5 701Q152 689 152 671Q152 653 163.5 641.5Q175 630 194 630Q212 630 223.5 641.5Q235 653 235 671Z" glyph-name="ring" horiz-adv-x="386" unicode="&#730;" /><glyph d="M257 815Q257 788 239.5 771Q222 754 193 754Q165 754 147 771Q129 788 129 815Q129 842 147 859.5Q165 877 193 877Q222 877 239.5 859.5Q257 842 257 815ZM234 815Q234 833 223 844.5Q212 856 193 856Q174 856 163 844Q152 832 152 815Q152 798 163.5 786.5Q175 775 193 775Q212 775 223 786.5Q234 798 234 815Z" glyph-name="ring.uc" horiz-adv-x="386" /><glyph d="M192 279Q223 257 237 230.5Q251 204 251 156V123Q251 60 219 28Q187 -4 139 -4H134Q84 -4 52.5 28.5Q21 61 21 127V195H51V126Q51 74 75 49Q99 24 133 24H138Q171 24 196 48.5Q221 73 221 124V155Q221 193 210 215Q199 237 173 255L86 316Q73 325 61.5 335Q50 345 41 358Q32 371 27 388.5Q22 406 22 429V450Q22 512 52 542.5Q82 573 132 573H138Q187 573 217.5 540Q248 507 248 440V392H218V441Q218 495 195 520Q172 545 138 545H133Q98 545 75 522Q52 499 52 451V429Q52 394 67.5 374.5Q83 355 103 341Z" glyph-name="s" horiz-adv-x="273" unicode="s" /><glyph d="M146 613H128L64 665V692L137 638L210 692V665ZM192 279Q223 257 237 230.5Q251 204 251 156V123Q251 60 219 28Q187 -4 139 -4H134Q84 -4 52.5 28.5Q21 61 21 127V195H51V126Q51 74 75 49Q99 24 133 24H138Q171 24 196 48.5Q221 73 221 124V155Q221 193 210 215Q199 237 173 255L86 316Q73 325 61.5 335Q50 345 41 358Q32 371 27 388.5Q22 406 22 429V450Q22 512 52 542.5Q82 573 132 573H138Q187 573 217.5 540Q248 507 248 440V392H218V441Q218 495 195 520Q172 545 138 545H133Q98 545 75 522Q52 499 52 451V429Q52 394 67.5 374.5Q83 355 103 341Z" glyph-name="scaron" horiz-adv-x="273" unicode="&#353;" /><glyph d="M56 94V43Q56 -70 147 -70H155Q200 -70 223 -41Q246 -12 246 37V70Q245 100 233 116.5Q221 133 198 148L100 210Q55 239 39.5 275.5Q24 312 24 374V600Q24 660 52.5 698Q81 736 142 736H151Q212 736 241.5 699.5Q271 663 271 594V552H240V594Q240 649 218 678.5Q196 708 151 708H143Q97 708 76 678Q55 648 55 600V579Q55 553 67.5 537Q80 521 102 506L196 445Q218 431 233.5 415.5Q249 400 258.5 381.5Q268 363 272 338.5Q276 314 276 282V38Q276 -25 245.5 -61.5Q215 -98 156 -98H147Q25 -98 25 44V94ZM213 175Q227 167 235 158.5Q243 150 246 142V280Q246 333 229.5 364.5Q213 396 176 420L87 479Q73 487 65 495.5Q57 504 54 512V375Q54 323 67.5 291Q81 259 119 236Z" glyph-name="section" horiz-adv-x="300" unicode="&#167;" /><glyph d="M71 65 59 -62H34L39 65ZM71 462V397H39V462Z" glyph-name="semicolon" horiz-adv-x="108" unicode=";" /><glyph d="M234 700H7V728H267V708L116 0H83Z" glyph-name="seven" horiz-adv-x="285" unicode="7" /><glyph d="M62 426H160Q232 426 261.5 390Q291 354 291 276V142Q291 104 281 76Q271 48 253.5 29.5Q236 11 213 2Q190 -7 163 -7H157Q130 -7 107 2Q84 11 66.5 29Q49 47 39 75Q29 103 29 141V587Q29 625 39 653Q49 681 66 699Q83 717 106.5 726Q130 735 156 735H163Q189 735 212 726Q235 717 252 699Q269 681 279 653Q289 625 289 587V512H257V587Q257 619 249 641.5Q241 664 228 678.5Q215 693 198 700Q181 707 162 707H157Q138 707 121 700Q104 693 91 678.5Q78 664 70 641.5Q62 619 62 587ZM62 398V142Q62 110 70 87.5Q78 65 91 50.5Q104 36 121.5 29Q139 22 157 22H163Q182 22 199 29Q216 36 229 50.5Q242 65 250 87.5Q258 110 258 142V275Q258 341 236 369.5Q214 398 156 398Z" glyph-name="six" horiz-adv-x="315" unicode="6" /><glyph d="M140 746H170L48 -81H19Z" glyph-name="slash" horiz-adv-x="194" unicode="/" /><glyph glyph-name="space" horiz-adv-x="108" unicode=" " /><glyph d="M204 -44 194 -133H170L175 -44Z" glyph-name="space_uni0326" horiz-adv-x="376" unicode="&#63171;" /><glyph d="M16 28H60V315H15V342H60V592Q60 657 88.5 696.5Q117 736 177 736H183Q298 736 298 593V512H267V592Q267 708 183 708H177Q134 708 113.5 676Q93 644 93 592V342H243V315H93V28H305V0H16Z" glyph-name="sterling" horiz-adv-x="326" unicode="&#163;" /><glyph d="M102 541V0H71V541H14V569H71V678H102V569H178V541Z" glyph-name="t" horiz-adv-x="183" unicode="t" /><glyph d="M33 728H64V569H154Q208 569 235.5 535.5Q263 502 263 431V137Q263 67 235 33.5Q207 0 154 0H64V-136H33ZM64 28H149Q187 28 209 53.5Q231 79 231 137V432Q231 490 209 515.5Q187 541 149 541H64Z" glyph-name="thorn" horiz-adv-x="292" unicode="&#254;" /><glyph d="M120 399H156Q202 399 227 428Q252 457 252 522V586Q252 649 225 678Q198 707 160 707H154Q115 707 88 678Q61 649 61 586V512H29V587Q29 662 63.5 698.5Q98 735 154 735H160Q215 735 250 698.5Q285 662 285 587V524Q285 461 264 428.5Q243 396 201 386Q245 376 267 342Q289 308 289 243V142Q289 65 252.5 29Q216 -7 162 -7H155Q101 -7 65 28.5Q29 64 29 141V244H60V142Q60 110 67.5 87Q75 64 88.5 49.5Q102 35 119 28.5Q136 22 156 22H161Q180 22 197.5 28.5Q215 35 228 49.5Q241 64 249 87Q257 110 257 143V246Q257 312 230.5 342Q204 372 156 372H120Z" glyph-name="three" horiz-adv-x="315" unicode="3" /><glyph d="M201 82 290 331H331V84H364V61H331V0H305V61H201ZM328 728H355L69 0H42ZM44 471Q44 442 55.5 429Q67 416 87 416H90Q110 416 122 429.5Q134 443 134 471V501Q134 533 121.5 547Q109 561 86 561H65V584H85Q131 584 131 637V658Q131 711 88 711H86Q44 711 44 657V632H18V657Q18 692 34.5 713Q51 734 85 734H89Q122 734 140 714.5Q158 695 158 660V639Q158 585 116 574Q161 561 161 500V470Q161 432 142 412Q123 392 90 392H86Q54 392 36 412.5Q18 433 18 471V503H44ZM305 84V308L226 84Z" glyph-name="threequarters" horiz-adv-x="403" unicode="&#190;" /><glyph d="M111 624Q112 651 122.5 668.5Q133 686 156 686Q169 686 179 680Q189 674 198 666.5Q207 659 216 653Q225 647 236 647Q247 647 253 657Q259 667 259 683H283Q282 655 271.5 638Q261 621 240 621Q226 621 215.5 627Q205 633 196 640.5Q187 648 178 654Q169 660 159 660Q146 660 140.5 649.5Q135 639 135 624Z" glyph-name="tilde" horiz-adv-x="393" unicode="&#732;" /><glyph d="M107 771Q108 797 119.5 812.5Q131 828 153 828Q166 828 176.5 822.5Q187 817 196.5 810.5Q206 804 215.5 798.5Q225 793 236 793Q259 793 261 825H285Q282 768 239 768Q225 768 214.5 773.5Q204 779 194.5 785.5Q185 792 176 797.5Q167 803 156 803Q144 803 137.5 794Q131 785 131 771Z" glyph-name="tilde.uc" horiz-adv-x="393" /><glyph d="M222 468 278 728H312V447H291V701L235 447H210L153 701V447H132V728H166ZM48 447V710H7V728H110V710H69V447Z" glyph-name="trademark" horiz-adv-x="329" unicode="&#8482;" /><glyph d="M202 417Q228 449 237.5 474.5Q247 500 247 539V590Q247 650 221 678.5Q195 707 156 707H150Q111 707 84.5 678.5Q58 650 58 590V512H26V591Q26 663 60 699Q94 735 149 735H156Q211 735 245 699Q279 663 279 590V538Q279 515 276.5 497Q274 479 267.5 463Q261 447 251 431.5Q241 416 226 398L103 241Q89 224 80 209.5Q71 195 66 181Q61 167 59 150.5Q57 134 57 113V28H279V0H24V113Q24 138 26.5 157Q29 176 35.5 192.5Q42 209 52 224.5Q62 240 77 259Z" glyph-name="two" horiz-adv-x="302" unicode="2" /><glyph d="M61 126Q61 71 79.5 49.5Q98 28 138 28H227V569H259V0H133Q79 0 54.5 29Q30 58 30 127V569H61Z" glyph-name="u" horiz-adv-x="291" unicode="u" /><glyph d="M82 647 209 697V668L82 620ZM61 126Q61 71 79.5 49.5Q98 28 138 28H227V569H259V0H133Q79 0 54.5 29Q30 58 30 127V569H61Z" glyph-name="uacute" horiz-adv-x="291" unicode="&#250;" /><glyph d="M218 645V617L145 671L72 617V645L136 697H154ZM61 126Q61 71 79.5 49.5Q98 28 138 28H227V569H259V0H133Q79 0 54.5 29Q30 58 30 127V569H61Z" glyph-name="ucircumflex" horiz-adv-x="291" unicode="&#251;" /><glyph d="M90 684H121V630H90ZM169 684H200V630H169ZM61 126Q61 71 79.5 49.5Q98 28 138 28H227V569H259V0H133Q79 0 54.5 29Q30 58 30 127V569H61Z" glyph-name="udieresis" horiz-adv-x="291" unicode="&#252;" /><glyph d="M61 126Q61 71 79.5 49.5Q98 28 138 28H227V569H259V0H133Q79 0 54.5 29Q30 58 30 127V569H61ZM207 618 80 667V696L207 646Z" glyph-name="ugrave" horiz-adv-x="291" unicode="&#249;" /><glyph d="M7 -73V-47H246V-73Z" glyph-name="underscore" horiz-adv-x="253" unicode="_" /><glyph glyph-name="uni00A0" horiz-adv-x="108" unicode="&#160;" /><glyph d="M269 569 162 0H118L10 569H42L140 39L238 569Z" glyph-name="v" horiz-adv-x="279" unicode="v" /><glyph d="M419 569 338 0H293L221 465L215 515L209 465L138 0H93L11 569H43L110 74L115 24L121 74L198 569H233L311 74L317 24L322 74L388 569Z" glyph-name="w" horiz-adv-x="430" unicode="w" /><glyph d="M255 569 154 300 261 0H229L133 271L38 0H7L113 300L11 569H43L134 328L224 569Z" glyph-name="x" horiz-adv-x="268" unicode="x" /><glyph d="M273 569 129 -136H98L132 33L10 569H43L147 91L241 569Z" glyph-name="y" horiz-adv-x="283" unicode="y" /><glyph d="M273 569 129 -136H98L132 33L10 569H43L147 91L241 569ZM85 647 212 697V668L85 620Z" glyph-name="yacute" horiz-adv-x="283" unicode="&#253;" /><glyph d="M273 569 129 -136H98L132 33L10 569H43L147 91L241 569ZM90 684H121V630H90ZM169 684H200V630H169Z" glyph-name="ydieresis" horiz-adv-x="283" unicode="&#255;" /><glyph d="M265 175H163V0H131V175H28V200H131V280H28V306H125L2 728H35L147 338L253 728H284L167 306H265V280H163V200H265Z" glyph-name="yen" horiz-adv-x="286" unicode="&#165;" /><glyph d="M18 541V569H219V541L47 29H219V0H15V29L188 541Z" glyph-name="z" horiz-adv-x="235" unicode="z" /><glyph d="M128 613H110L46 665V692L119 638L192 692V665ZM18 541V569H219V541L47 29H219V0H15V29L188 541Z" glyph-name="zcaron" horiz-adv-x="235" unicode="&#382;" /><glyph d="M33 588Q33 626 43 653.5Q53 681 70.5 699Q88 717 111 726Q134 735 161 735H167Q194 735 217.5 726Q241 717 258.5 699Q276 681 286 653.5Q296 626 296 588V140Q296 102 286 74.5Q276 47 258.5 29Q241 11 217.5 2Q194 -7 167 -7H161Q134 -7 111 2Q88 11 70.5 29Q53 47 43 74.5Q33 102 33 140ZM263 588Q263 619 255 642Q247 665 233.5 679Q220 693 203 700Q186 707 167 707H161Q142 707 125 700Q108 693 94.5 679Q81 665 73 642Q65 619 65 588V141Q65 109 73 86.5Q81 64 94.5 49.5Q108 35 125 28.5Q142 22 161 22H167Q186 22 203 28.5Q220 35 233.5 49.5Q247 64 255 86.5Q263 109 263 141Z" glyph-name="zero" horiz-adv-x="328" unicode="0" /></font>
</defs>
</svg>
