<?xml version="1.0" standalone="no"?>
<!DOCTYPE svg PUBLIC "-//W3C//DTD SVG 1.1//EN" "http://www.w3.org/Graphics/SVG/1.1/DTD/svg11.dtd" >
<svg xmlns="http://www.w3.org/2000/svg">
<metadata></metadata>
<defs>
<font id="bodoni_bk_btbook" horiz-adv-x="1024" >
<font-face units-per-em="2048" ascent="1556" descent="-492" />
<missing-glyph horiz-adv-x="512" />
<glyph horiz-adv-x="2048" />
<glyph horiz-adv-x="2048" />
<glyph unicode="&#xd;" horiz-adv-x="512" />
<glyph unicode=" "  horiz-adv-x="512" />
<glyph unicode="&#x09;" horiz-adv-x="512" />
<glyph unicode="&#xa0;" horiz-adv-x="512" />
<glyph unicode="!" horiz-adv-x="606" d="M186 82q0 54 31.5 85.5t85.5 31.5q53 0 85 -32.5t32 -84.5q0 -51 -33 -83t-88 -32q-49 0 -81 32.5t-32 82.5zM188 1223q0 72 30 109.5t87 37.5q58 0 88.5 -38t30.5 -109q0 -12 -13 -75q-75 -359 -81 -742h-49q-7 383 -80 742q-13 63 -13 75z" />
<glyph unicode="&#x22;" horiz-adv-x="678" d="M90 1362q0 48 22 74t62 26q41 0 63.5 -26t22.5 -74q0 -9 -3 -34q-1 -5 -1 -7l-66 -457h-32l-64 457q-2 17 -3 26t-1 15zM418 1360q0 49 22.5 75.5t63.5 26.5q40 0 62 -26t22 -74q0 -14 -0.5 -23t-1.5 -18l-68 -457h-31l-65 457q0 2 -1 6q-3 22 -3 33z" />
<glyph unicode="#" horiz-adv-x="1575" d="M104 467l43 115h322l100 286h-348l43 117h348l166 471h133l-168 -471h287l168 471h131l-166 -471h307l-40 -117h-310l-100 -286h332l-43 -115h-330l-166 -469h-133l166 469h-287l-166 -469h-131l166 469h-324zM600 582h289l102 286h-291z" />
<glyph unicode="$" d="M72 264q0 57 30.5 90t83.5 33q39 0 62.5 -26t23.5 -68q0 -60 -53 -89.5t-53 -39.5q0 -28 55.5 -65.5t134.5 -57.5v580q-111 36 -173 118.5t-62 194.5q0 111 61 195t174 128v119h52v-102q24 4 51.5 6t58.5 2q23 0 34.5 -0.5t20.5 -1.5v96h52v-98q127 -25 198.5 -91.5 t71.5 -158.5q0 -51 -30 -84t-77 -33q-38 0 -64 23.5t-26 58.5q0 50 51.5 80t51.5 43q0 29 -52.5 66t-123.5 47v-498q148 -43 221.5 -127.5t73.5 -214.5q0 -146 -74.5 -243t-220.5 -142v-197h-52v187q-20 -4 -45.5 -6t-58.5 -2q-25 0 -38 0.5t-23 1.5v-181h-52v187 q-126 19 -205 95.5t-79 174.5zM205 991q0 -61 38.5 -108.5t112.5 -77.5v405q-71 -26 -111 -83.5t-40 -135.5zM408 35q20 -2 33.5 -3t25.5 -1q24 0 49.5 2.5t56.5 7.5v510q-43 10 -84 22.5t-81 28.5v-567zM408 791q58 -18 102.5 -30t62.5 -15v493q-7 1 -16 1.5t-29 0.5 q-31 0 -61 -3t-59 -9v-438zM625 55q96 30 152.5 100t56.5 158q0 85 -51 139t-158 85v-482z" />
<glyph unicode="%" horiz-adv-x="1686" d="M94 786q0 84 36 169t103 163q74 84 153.5 128t158.5 44q71 0 120 -34t70 -99q22 -10 47 -15t54 -5q98 0 193.5 48t182.5 142h76l-799 -1382h-86l715 1235q-73 -45 -143 -67.5t-135 -22.5q-31 0 -52 2.5t-40 9.5v-15q0 -228 -125.5 -388t-294.5 -160q-109 0 -171.5 66 t-62.5 181zM250 735q0 -64 30.5 -99.5t86.5 -35.5q62 0 116 34.5t105 106.5q55 78 83.5 161.5t28.5 164.5q0 20 -0.5 31t-1.5 20q-57 19 -87.5 43t-49.5 64q-42 -4 -79.5 -31.5t-78.5 -83.5q-72 -104 -112.5 -203.5t-40.5 -171.5zM936 223q0 87 31.5 170.5t91.5 155.5 q73 89 156.5 137.5t164.5 48.5q101 0 155 -61.5t54 -175.5q0 -88 -35 -183.5t-96 -173.5q-63 -79 -135.5 -118t-153.5 -39q-104 0 -168.5 66t-64.5 173zM1092 178q0 -66 31.5 -99.5t93.5 -33.5q52 0 103.5 33t102.5 100q57 75 88 160.5t31 167.5q0 79 -34.5 122.5 t-98.5 43.5q-50 0 -97.5 -41t-105.5 -135q-56 -91 -85 -171.5t-29 -146.5z" />
<glyph unicode="&#x26;" horiz-adv-x="1458" d="M84 365q0 153 106.5 275.5t288.5 178.5l-59 101q-26 45 -39.5 91.5t-13.5 88.5q0 119 88 194.5t227 75.5q133 0 217 -67.5t84 -172.5q0 -92 -77.5 -165t-229.5 -123l328 -533q81 85 126.5 204t51.5 265h-176v47h395v-47h-168q-10 -165 -60 -292.5t-143 -221.5l133 -213 h166v-51h-368l-70 115q-108 -77 -200.5 -112.5t-184.5 -35.5q-186 0 -304 111.5t-118 286.5zM262 512q0 -71 29.5 -156.5t79.5 -158.5q50 -74 107.5 -109t127.5 -35q59 0 124 27t136 82l-364 610q-122 -37 -181 -101t-59 -159zM510 1178q0 -30 9 -62t26 -59l104 -178 q101 36 145 99.5t44 172.5q0 84 -44.5 130t-125.5 46q-69 0 -113.5 -43t-44.5 -106z" />
<glyph unicode="'" horiz-adv-x="348" d="M90 1360q0 50 21.5 76t62.5 26t63.5 -26t22.5 -74q0 -9 -3 -34q-1 -5 -1 -7l-66 -457h-32l-66 457q-1 8 -1.5 16t-0.5 23z" />
<glyph unicode="(" horiz-adv-x="639" d="M160 449q0 270 107.5 505t314.5 416v-45q-140 -130 -200 -328.5t-60 -554.5q0 -348 60 -544t200 -330v-45q-206 180 -314 416.5t-108 509.5z" />
<glyph unicode=")" horiz-adv-x="639" d="M53 -432q141 135 201.5 332t60.5 542q0 353 -60.5 552.5t-201.5 330.5v45q208 -181 316 -416t108 -505q0 -271 -108.5 -508t-315.5 -418v45z" />
<glyph unicode="*" d="M145 795q0 32 22 56t62 36q14 4 52 8q123 14 206 63q-71 44 -164 58.5t-96 15.5q-39 12 -60.5 36.5t-21.5 55.5q0 34 23.5 57t58.5 23q26 0 52.5 -15t52.5 -46q5 -7 16 -22q65 -92 152 -140v16q0 73 -35 162.5t-35 114.5q0 43 22.5 69.5t59.5 26.5q35 0 58.5 -24.5 t23.5 -63.5q0 -28 -35 -120.5t-35 -168.5v-12q78 40 150 137q15 20 22 29q24 28 50 41.5t57 13.5q32 0 54 -22t22 -56q0 -32 -22 -56t-62 -36q-15 -4 -51 -8q-124 -16 -207 -66q69 -42 162 -56.5t100 -16.5q35 -12 57.5 -38t22.5 -54q0 -34 -24 -57t-58 -23q-26 0 -52 15.5 t-53 47.5q-5 7 -16 22q-65 92 -152 140v-16q0 -73 35 -163.5t35 -115.5q0 -43 -22.5 -68.5t-59.5 -25.5q-35 0 -58.5 24.5t-23.5 63.5q0 28 35 120.5t35 168.5v12q-78 -40 -150 -137q-15 -20 -22 -29q-25 -29 -51 -43t-56 -14q-32 0 -54 23t-22 57z" />
<glyph unicode="+" horiz-adv-x="1706" d="M254 553v117h541v551h118v-551h539v-117h-539v-553h-118v553h-541z" />
<glyph unicode="," horiz-adv-x="512" d="M119 84q0 57 38 92t101 35q73 0 119.5 -51.5t46.5 -130.5q0 -94 -63.5 -187t-178.5 -166l-22 37q92 70 144 145.5t52 137.5q0 29 -7.5 45t-20.5 16q-4 0 -32 -36.5t-79 -36.5q-43 0 -70.5 27.5t-27.5 72.5z" />
<glyph unicode="-" horiz-adv-x="674" d="M88 324v141h498v-141h-498z" />
<glyph unicode="." horiz-adv-x="512" d="M135 92q0 54 32 86.5t85 32.5q58 0 91.5 -32t33.5 -87q0 -50 -35 -83.5t-86 -33.5q-52 0 -86.5 33.5t-34.5 83.5z" />
<glyph unicode="/" horiz-adv-x="557" d="M-33 -190l488 1560h75l-485 -1560h-78z" />
<glyph unicode="0" d="M53 635q0 292 130.5 477.5t328.5 185.5q199 0 329 -185t130 -478q0 -292 -131 -478t-328 -186q-89 0 -164.5 41t-142.5 125q-79 100 -115.5 218.5t-36.5 279.5zM262 635q0 -329 58.5 -470.5t191.5 -141.5q134 0 192 139.5t58 472.5q0 320 -60.5 469t-189.5 149 q-128 0 -189 -151.5t-61 -466.5z" />
<glyph unicode="1" d="M178 1241v43l430 16v-1249h236v-51h-664v51h260v1102q0 48 -30.5 68t-106.5 20h-125z" />
<glyph unicode="2" d="M51 0v96l332 320q160 153 237.5 283t77.5 243q0 135 -76.5 214t-205.5 79q-110 0 -187 -59t-77 -136q0 -12 4 -19t10 -7q2 0 8 2q33 10 68 10q43 0 68.5 -27t25.5 -71q0 -48 -28.5 -77.5t-74.5 -29.5q-59 0 -98 47t-39 121q0 134 112.5 222.5t287.5 88.5q187 0 300 -92.5 t113 -244.5q0 -102 -76.5 -211.5t-267.5 -272.5l-375 -321h525q68 0 94 27.5t43 138.5h53l-28 -324h-826z" />
<glyph unicode="3" d="M55 205q0 64 34.5 103.5t88.5 39.5q48 0 73 -27t25 -77q0 -29 -11.5 -50t-34.5 -34q-10 -5 -30 -10q-32 -8 -32 -25q0 -36 72.5 -71.5t162.5 -35.5q143 0 221 87t78 245q0 161 -78.5 238.5t-240.5 77.5q-34 0 -76.5 -6.5t-50.5 -6.5q-18 0 -29.5 10.5t-11.5 26.5 q0 14 11 22.5t28 8.5q6 0 37.5 -4t54.5 -4q157 0 223 69t66 236q0 127 -51.5 183t-167.5 56q-63 0 -113.5 -23t-50.5 -46q0 -2 37 -35.5t37 -75.5t-26 -67t-69 -25t-69.5 28t-26.5 74q0 90 90 151.5t230 61.5q166 0 274.5 -84.5t108.5 -214.5q0 -100 -72 -174t-221 -127 q173 -28 269.5 -116t96.5 -215q0 -168 -141.5 -281t-357.5 -113q-155 0 -256 66.5t-101 163.5z" />
<glyph unicode="4" d="M41 350v111q98 186 232 390t323 454h129v-895h182v151h45v-354h-45v143h-184v-299h147v-51h-469v51h144v299h-504zM86 410h465v745q-181 -252 -306.5 -450.5t-158.5 -280.5v-14z" />
<glyph unicode="5" d="M90 217q0 58 31.5 94.5t81.5 36.5q49 0 78.5 -28t29.5 -74q0 -33 -12.5 -54.5t-38.5 -33.5q-8 -5 -27 -9q-30 -6 -30 -22q0 -30 75.5 -68.5t161.5 -38.5q146 0 227 93t81 262t-90.5 264.5t-249.5 95.5q-50 0 -99 -13.5t-92 -39.5h-31l33 518q3 43 25 60.5t73 17.5h396 q35 0 56.5 12t35.5 39h33l2 -26v-9q0 -85 -57 -125.5t-177 -40.5h-344l-22 -385q65 28 130 42t134 14q191 0 319.5 -114.5t128.5 -283.5q0 -183 -141 -306.5t-356 -123.5q-148 0 -256.5 75.5t-108.5 170.5z" />
<glyph unicode="6" d="M51 508q0 183 79 338.5t232 277.5q99 77 220.5 121.5t267.5 57.5v-50q-260 -33 -408 -177t-170 -382q55 67 128 101t159 34q166 0 288 -123t122 -292q0 -192 -132 -319.5t-331 -127.5q-204 0 -329.5 149.5t-125.5 391.5zM256 424q0 -217 58.5 -310.5t191.5 -93.5 q140 0 198 95.5t58 337.5q0 164 -58.5 247.5t-173.5 83.5q-73 0 -141.5 -42t-120.5 -119q-6 -47 -9 -96.5t-3 -102.5z" />
<glyph unicode="7" d="M94 958l96 312h750v-35q-180 -317 -279.5 -560t-99.5 -364q0 -47 23.5 -125t23.5 -114q0 -48 -29 -74.5t-81 -26.5q-51 0 -84 39.5t-33 100.5q0 105 104 348t326 655h-522q-53 0 -78 -16.5t-41 -61.5l-29 -78h-47z" />
<glyph unicode="8" d="M43 311q0 145 99.5 239t275.5 114v12q-150 23 -239 104.5t-89 194.5q0 136 117 229.5t293 93.5q174 0 292.5 -94t118.5 -229q0 -116 -87.5 -198t-233.5 -101v-12q178 -26 272 -116.5t94 -234.5q0 -152 -125.5 -246t-330.5 -94q-204 0 -330.5 94.5t-126.5 243.5zM238 311 q0 -139 67 -212.5t195 -73.5q127 0 194.5 75.5t67.5 216.5q0 150 -70 234t-192 84q-121 0 -191.5 -87t-70.5 -237zM274 975q0 -124 63 -200.5t163 -76.5q106 0 166.5 73.5t60.5 203.5q0 131 -59.5 203.5t-167.5 72.5t-167 -72t-59 -204z" />
<glyph unicode="9" d="M39 852q0 196 130.5 321t334.5 125q213 0 333.5 -144t120.5 -400q0 -177 -79 -330.5t-234 -276.5q-98 -78 -219.5 -122.5t-267.5 -57.5l-2 49q259 31 405.5 172.5t181.5 395.5q-55 -70 -129 -107t-155 -37q-175 0 -297.5 119.5t-122.5 292.5zM244 852q0 -188 57.5 -277.5 t177.5 -89.5q73 0 143.5 43.5t118.5 118.5q6 46 8.5 107t2.5 153q0 174 -61 257t-187 83q-139 0 -199.5 -91t-60.5 -304z" />
<glyph unicode=":" horiz-adv-x="606" d="M182 92q0 54 32.5 86.5t84.5 32.5q58 0 91.5 -32t33.5 -87q0 -50 -34.5 -83.5t-86.5 -33.5t-86.5 33.5t-34.5 83.5zM182 680q0 53 32.5 86t84.5 33q58 0 91.5 -32.5t33.5 -86.5q0 -50 -34.5 -82.5t-86.5 -32.5q-53 0 -87 32.5t-34 82.5z" />
<glyph unicode=";" horiz-adv-x="606" d="M152 84q0 57 38 92t101 35q72 0 119 -51.5t47 -130.5q0 -94 -63.5 -187t-178.5 -166l-22 37q92 70 144 145.5t52 137.5q0 29 -7.5 45t-21.5 16q-3 0 -31 -36.5t-79 -36.5q-43 0 -70.5 27.5t-27.5 72.5zM172 684q0 53 32 85t85 32q58 0 91.5 -31.5t33.5 -85.5 q0 -50 -34 -83.5t-85 -33.5q-53 0 -88 33.5t-35 83.5z" />
<glyph unicode="&#x3c;" horiz-adv-x="1706" d="M264 559v103l1178 483v-127l-1000 -408l1000 -405v-129z" />
<glyph unicode="=" horiz-adv-x="1706" d="M254 360v117h1198v-117h-1198zM254 743v117h1198v-117h-1198z" />
<glyph unicode="&#x3e;" horiz-adv-x="1706" d="M264 76v129l1000 405l-1000 408v127l1178 -483v-103z" />
<glyph unicode="?" horiz-adv-x="901" d="M129 1128q0 104 83.5 173t211.5 69q145 0 241.5 -95t96.5 -239q0 -107 -55.5 -195t-188.5 -186q-143 -106 -143 -225q0 -10 0.5 -20t1.5 -21h-51q-3 29 -4.5 58t-2.5 59q0 108 27.5 175.5t95.5 131.5q21 19 60 53q162 140 162 244q0 93 -70 155t-176 62q-81 0 -149 -42 t-68 -81q0 -18 30 -23q19 -4 29 -7q34 -13 51 -33.5t17 -48.5q0 -39 -24.5 -62.5t-63.5 -23.5q-52 0 -81.5 32.5t-29.5 89.5zM256 82q0 53 30.5 85t80.5 32q56 0 89 -32t33 -85q0 -51 -33.5 -83t-88.5 -32q-49 0 -80 32.5t-31 82.5z" />
<glyph unicode="@" horiz-adv-x="2019" d="M145 537q0 204 86 381t250 313q131 110 291 165.5t344 55.5q347 0 553.5 -187t206.5 -499q0 -157 -58 -297t-163 -236q-57 -52 -123.5 -80t-134.5 -28q-97 0 -149 52.5t-58 158.5q-62 -106 -139 -158.5t-170 -52.5q-125 0 -201 92t-76 244q0 108 49 216t138 193 q65 64 144 100t155 36q87 0 143 -49.5t78 -145.5l53 180h143l-170 -610q0 -2 -1 -5q-17 -59 -17 -104q0 -47 25.5 -74.5t68.5 -27.5q34 0 79 17.5t85 48.5q122 90 187 231t65 315q0 140 -50 252t-153 203q-90 79 -216 122.5t-267 43.5q-187 0 -341.5 -58.5t-275.5 -175.5 q-130 -126 -197 -293.5t-67 -369.5q0 -175 57 -304.5t181 -234.5q114 -97 261 -146.5t320 -49.5q163 0 317.5 52t295.5 154l30 -36q-148 -110 -313 -166t-342 -56q-187 0 -342 46.5t-274 138.5q-151 113 -229.5 274.5t-78.5 358.5zM750 375q0 -93 40.5 -147t108.5 -54 q66 0 126 44.5t116 133.5q57 94 91 202.5t34 197.5q0 93 -47.5 153t-120.5 60q-54 0 -99 -31t-92 -100q-72 -108 -114.5 -234t-42.5 -225z" />
<glyph unicode="A" horiz-adv-x="1276" d="M18 0v51h160l459 1329h51l428 -1329h141v-51h-512v51h166l-135 432h-389l-143 -432h170v-51h-396zM406 543h352l-170 540z" />
<glyph unicode="B" horiz-adv-x="1239" d="M86 0v51h147v1243h-147v52h516q233 0 356 -80t123 -232q0 -126 -86 -208.5t-243 -108.5v-8q172 -29 273 -121t101 -219q0 -177 -138.5 -273t-393.5 -96h-508zM434 51h178q168 0 229.5 65t61.5 242t-70 250.5t-239 73.5h-160v-631zM434 733h152q165 0 226.5 62t61.5 233 q0 151 -61.5 208.5t-234.5 57.5h-144v-561z" />
<glyph unicode="C" horiz-adv-x="1231" d="M94 651q0 145 41 272t121 228q80 102 196 160.5t238 58.5q83 0 154.5 -25t142.5 -79l68 63h30v-340h-43q-42 165 -134 250.5t-226 85.5q-187 0 -271.5 -167t-84.5 -546q0 -179 16.5 -278t54.5 -162q41 -69 112 -109t153 -40q146 0 247 85.5t150 251.5h39v-360h-43l-64 66 q-61 -50 -142.5 -74.5t-182.5 -24.5q-252 0 -412 191.5t-160 492.5z" />
<glyph unicode="D" horiz-adv-x="1348" d="M90 0v51h152v1243h-152v52h492q323 0 498 -171t175 -487q0 -187 -64 -333.5t-190 -245.5q-72 -56 -168.5 -82.5t-230.5 -26.5h-512zM446 51h146q102 0 179.5 22t127.5 64q72 62 101.5 164t29.5 377q0 242 -25.5 346t-86.5 166q-55 54 -136.5 79t-208.5 25h-127v-1243z " />
<glyph unicode="E" horiz-adv-x="1235" d="M86 0v51h152v1243h-152v52h999v-324h-43q-23 154 -96 213t-252 59h-252v-569h41q131 0 186 47.5t65 165.5h42v-506h-43q-7 135 -69 188.5t-211 53.5h-11v-623h285q167 0 245.5 71.5t117.5 260.5h45l-21 -383h-1028z" />
<glyph unicode="F" horiz-adv-x="1120" d="M86 0v51h152v1243h-152v52h1001v-359h-43q-14 173 -88.5 240t-261.5 67h-252v-579h19q132 0 190.5 48.5t67.5 163.5l43 1v-502h-43q-11 125 -66 180.5t-170 55.5q-7 0 -20 -1.5t-21 -1.5v-608h160v-51h-516z" />
<glyph unicode="G" horiz-adv-x="1348" d="M92 655q0 148 45.5 277.5t132.5 232.5q86 102 194 153.5t232 51.5q95 0 179.5 -28t154.5 -82l74 71h29v-342h-43q-37 157 -137.5 244.5t-245.5 87.5q-199 0 -291 -161.5t-92 -510.5q0 -339 81.5 -485t268.5 -146q163 0 234 83.5t71 277.5v47h-191v47h537v-47h-123 q0 -221 -135.5 -340t-386.5 -119q-267 0 -427.5 187.5t-160.5 500.5z" />
<glyph unicode="H" horiz-adv-x="1460" d="M84 0v51h152v1243h-152v52h508v-52h-152v-569h580v569h-152v52h508v-52h-151v-1243h151v-51h-508v51h152v617h-580v-617h152v-51h-508z" />
<glyph unicode="I" horiz-adv-x="674" d="M61 0v51h170v1243h-170v52h549v-52h-174v-1243h174v-51h-549z" />
<glyph unicode="J" horiz-adv-x="788" d="M2 4q0 51 31 83t82 32q43 0 73.5 -31.5t30.5 -75.5q0 -29 -18.5 -61.5t-18.5 -38.5q0 -18 14.5 -27.5t41.5 -9.5q59 0 88.5 41t29.5 123v1255h-151v52h508v-52h-152v-1050q0 -211 -83.5 -316.5t-250.5 -105.5q-99 0 -162 51.5t-63 130.5z" />
<glyph unicode="K" horiz-adv-x="1341" d="M86 0v51h152v1243h-152v52h506v-52h-152v-1243h152v-51h-506zM463 705v20l538 569h-170v52h404v-52h-152l-469 -497l592 -744h113v-53h-508v51h162z" />
<glyph unicode="L" horiz-adv-x="1122" d="M63 0v51h168v1243h-161v52h551v-52h-185v-1243h277q152 0 225.5 69.5t118.5 258.5h39l-23 -379h-1010z" />
<glyph unicode="M" horiz-adv-x="1571" d="M90 0v51h148v1243h-148v52h406l284 -996l303 996h396v-52h-158v-1243h158v-51h-502v51h151v1225h-8l-389 -1276h-51l-363 1276h-16v-1225h152v-51h-363z" />
<glyph unicode="N" horiz-adv-x="1350" d="M82 0v51h151v1243h-149v52h391l574 -963v911h-152v52h373v-52h-156v-1327h-53l-764 1303v-1219h152v-51h-367z" />
<glyph unicode="O" horiz-adv-x="1350" d="M94 678q0 138 39.5 257t118.5 216q91 111 196 165t230 54q120 0 219.5 -48t183.5 -146q87 -102 133 -231.5t46 -276.5q0 -143 -43.5 -273t-124.5 -229q-83 -103 -183 -151t-231 -48q-136 0 -238.5 51t-187.5 160q-76 98 -117 227.5t-41 272.5zM326 586q0 -286 87 -427 t265 -141q177 0 263.5 141.5t86.5 430.5q0 422 -78 577.5t-272 155.5t-273 -159t-79 -578z" />
<glyph unicode="P" horiz-adv-x="1118" d="M80 0v51h151v1243h-151v52h467q279 0 415 -86t136 -263q0 -190 -150 -289.5t-436 -99.5h-84v-557h160v-51h-508zM428 662h90q202 0 284.5 74t82.5 259q0 174 -70 236.5t-293 62.5h-94v-632z" />
<glyph unicode="Q" horiz-adv-x="1350" d="M98 668q0 151 42.5 275.5t127.5 223.5t187 149t217 50q123 0 226 -49t189 -150q87 -101 131 -227.5t44 -273.5q0 -264 -133.5 -458.5t-337.5 -232.5q0 -9 -1.5 -26t-1.5 -25q0 -175 79.5 -251t260.5 -76h9v-46h-52q-275 0 -398.5 93.5t-123.5 300.5v30 q-202 38 -333.5 233t-131.5 460zM328 600q0 -295 87.5 -439.5t266.5 -144.5q174 0 261 140t87 417q0 440 -77 593t-273 153q-192 0 -272 -158t-80 -561z" />
<glyph unicode="R" horiz-adv-x="1348" d="M80 0v51h160v1243h-152v52h569q225 0 347 -78t122 -219q0 -140 -109.5 -225.5t-299.5 -94.5v-16q147 -26 239 -103t109 -188q9 -58 11 -168.5t18 -151.5q13 -36 37.5 -52.5t64.5 -16.5q24 0 50 6.5t54 19.5v-51q-50 -21 -97 -32t-89 -11q-128 0 -191 98t-73 316 q0 5 -1 14q-6 157 -63 219q-41 45 -100.5 69t-128.5 24h-119v-654h156v-51h-514zM438 758h119q207 0 277.5 60.5t70.5 217.5q0 147 -58.5 202.5t-232.5 55.5h-176v-536z" />
<glyph unicode="S" horiz-adv-x="1006" d="M80 -6v354h39q48 -150 151.5 -236.5t233.5 -86.5q145 0 244.5 91t99.5 222q0 154 -302 249q-24 7 -36 11q-258 82 -343 168.5t-85 234.5q0 166 109 270.5t284 104.5q130 0 243 -67q21 -13 25 -13q6 1 10.5 3.5t8.5 7.5l39 43h43v-308h-37q-49 145 -137.5 217t-216.5 72 q-116 0 -195.5 -69.5t-79.5 -169.5q0 -83 61 -136t200 -90q20 -5 61 -16q232 -62 307 -119q66 -51 100.5 -127t34.5 -172q0 -209 -123.5 -333t-333.5 -124q-147 0 -269 80q-20 13 -23 13t-7.5 -3t-9.5 -8l-61 -63h-35z" />
<glyph unicode="T" horiz-adv-x="1122" d="M23 956l18 390h1038l15 -390h-45q-27 185 -102 262.5t-228 77.5q-26 0 -38 -0.5t-21 -1.5l-1 -1243h166v-51h-538v51h170v1243q-13 1 -27 1.5t-41 0.5q-142 0 -212 -72.5t-109 -267.5h-45z" />
<glyph unicode="U" horiz-adv-x="1343" d="M80 1294v52h508v-52h-156v-942q0 -156 73 -237.5t212 -81.5q162 0 246 100.5t84 294.5v866h-154v52h369v-52h-154v-872q0 -232 -110.5 -344.5t-338.5 -112.5q-196 0 -308.5 100t-112.5 275v954h-158z" />
<glyph unicode="V" horiz-adv-x="1266" d="M25 1294v52h514v-52h-158l336 -991l330 991h-185v52h385v-52h-141l-440 -1327h-45l-447 1327h-149z" />
<glyph unicode="W" horiz-adv-x="1798" d="M39 1294v52h1229v-52h-101l-157 -422l207 -612l335 1034h-161v52h370v-52h-149l-434 -1327h-60l-229 674l-248 -674h-53l-420 1327h-129zM360 1294l328 -1028l172 471l-190 557h-310zM852 1294l123 -370l139 370h-262z" />
<glyph unicode="X" horiz-adv-x="1350" d="M41 0v51h172l369 592l-389 651h-144v52h520v-52h-145l281 -471l292 471h-166v52h402v-52h-170l-328 -524l432 -719h133v-51h-528v51h164l-324 539l-327 -539h174v-51h-418z" />
<glyph unicode="Y" horiz-adv-x="1251" d="M0 1294v52h545v-52h-172l342 -589l317 589h-201v52h420v-52h-155l-353 -663v-580h175v-51h-556v51h175v582l-390 661h-147z" />
<glyph unicode="Z" horiz-adv-x="1120" d="M29 0v72l784 1222h-401q-109 0 -170 -62.5t-92 -209.5h-56l23 324h919v-64l-790 -1231h362q182 0 264 73t111 261h53l-24 -385h-983z" />
<glyph unicode="[" horiz-adv-x="639" d="M197 -408v1754h421v-50h-276v-1654h276v-50h-421z" />
<glyph unicode="\" horiz-adv-x="557" d="M25 1370h77l488 -1560h-78z" />
<glyph unicode="]" horiz-adv-x="639" d="M20 -358h279v1654h-279v50h422v-1754h-422v50z" />
<glyph unicode="^" horiz-adv-x="2048" d="M412 897l522 565h178l520 -565h-92l-518 436l-520 -436h-90z" />
<glyph unicode="_" d="M0 -365h1024v-118h-1024v118z" />
<glyph unicode="`" d="M229 1200q0 31 20.5 50.5t53.5 19.5q20 0 40.5 -12t55.5 -48l289 -299h-67l-330 205q-31 20 -46.5 41t-15.5 43z" />
<glyph unicode="a" horiz-adv-x="899" d="M68 158q0 137 134.5 216t372.5 81v192q0 59 -39.5 87t-121.5 28q-65 0 -114.5 -23t-49.5 -47q0 -4 28.5 -31.5t28.5 -62.5q0 -38 -23 -62t-59 -24q-40 0 -63 26t-23 70q0 83 90 138t232 55q150 0 211 -47.5t61 -169.5v-447q0 -47 9 -61.5t32 -14.5q25 0 45 20.5t27 51.5 h33q-6 -70 -52.5 -113t-115.5 -43q-59 0 -92 33t-39 99q-39 -61 -117.5 -97.5t-169.5 -36.5q-104 0 -164.5 50t-60.5 133zM223 209q0 -70 42 -112t112 -42q87 0 142.5 45t55.5 117v193q-171 0 -261.5 -51.5t-90.5 -149.5z" />
<glyph unicode="b" horiz-adv-x="1012" d="M51 1v44h117v1262h-111v38q64 3 129 8t138 13v-719q38 78 99 115t152 37q153 0 260 -117.5t107 -290.5q0 -176 -107 -293.5t-266 -117.5q-88 0 -153 38t-103 113v-151q-58 8 -122.5 13t-139.5 8zM322 262q0 -102 67 -169.5t166 -67.5q111 0 157 82t46 292 q0 204 -45 280.5t-158 76.5q-98 0 -165.5 -76.5t-67.5 -190.5v-227z" />
<glyph unicode="c" horiz-adv-x="897" d="M70 377q0 181 119 301.5t300 120.5q133 0 218.5 -61.5t85.5 -153.5q0 -46 -27.5 -73.5t-73.5 -27.5q-38 0 -63 26t-25 64q0 36 30 71t30 44q0 29 -50 50.5t-122 21.5q-123 0 -179.5 -88t-56.5 -283q0 -196 52 -281t169 -85q106 0 182.5 58.5t106.5 164.5h49 q-32 -129 -123 -199t-227 -70q-173 0 -284 113t-111 287z" />
<glyph unicode="d" horiz-adv-x="1016" d="M63 389q0 174 108 292t267 118q89 0 153 -38.5t99 -113.5v658h-133v41h33q64 0 128.5 5t131.5 15v-1319h111v-47q-92 0 -154.5 -5t-112.5 -15v145q-41 -72 -108.5 -111t-149.5 -39q-157 0 -265 119.5t-108 294.5zM250 393q0 -206 48 -289.5t161 -83.5q89 0 161 68.5 t72 151.5v274q0 96 -71.5 168t-167.5 72q-110 0 -156.5 -82t-46.5 -279z" />
<glyph unicode="e" horiz-adv-x="897" d="M68 369q0 181 117.5 306.5t287.5 125.5q159 0 251 -89.5t107 -258.5h-573v-60q0 -203 52.5 -283.5t181.5 -80.5q109 0 185.5 58.5t104.5 164.5h45q-30 -137 -120.5 -206t-239.5 -69q-169 0 -284 113.5t-115 278.5zM264 510h383v20q0 124 -41.5 179t-134.5 55 q-96 0 -147.5 -63.5t-59.5 -190.5z" />
<glyph unicode="f" horiz-adv-x="561" d="M12 0v47h156v686h-154v47h154v103q0 241 81 362t240 121q83 0 134 -33t51 -86q0 -35 -20 -56.5t-52 -21.5q-38 0 -61 22t-23 58q0 9 2 21.5t2 15.5q0 16 -13.5 24.5t-37.5 8.5q-77 0 -111 -86.5t-34 -290.5v-162h159v-47h-159v-686h153v-47h-467z" />
<glyph unicode="g" horiz-adv-x="899" d="M59 -238q0 74 61 128.5t185 93.5q-105 7 -167 48.5t-62 104.5q0 72 53 115t158 57q-83 43 -119.5 96t-36.5 130q0 116 85 191t220 75q78 0 139.5 -26t102.5 -77q30 58 59 80.5t72 22.5q33 0 55.5 -21t22.5 -51q0 -32 -14 -49.5t-39 -17.5q-32 0 -52 26.5t-26 26.5 q-14 0 -29.5 -19.5t-15.5 -38.5q0 -1 11 -41.5t11 -80.5q0 -67 -37.5 -126.5t-101.5 -91.5q-59 -28 -179 -34q-33 -1 -50 -2q-112 -10 -165 -36.5t-53 -72.5q0 -28 25.5 -38.5t112.5 -10.5h311q133 0 197.5 -60t64.5 -184q0 -162 -110 -245t-328 -83q-167 0 -264 57.5 t-97 153.5zM195 -233q0 -79 67.5 -122.5t192.5 -43.5q155 0 245.5 61t90.5 166q0 87 -58.5 123.5t-204.5 36.5h-137q-96 -41 -146 -97.5t-50 -123.5zM293 547q0 -124 31.5 -171.5t107.5 -47.5q82 0 111.5 42.5t29.5 172.5q0 123 -30 170t-107 47t-110 -48.5t-33 -164.5z" />
<glyph unicode="h" horiz-adv-x="1012" d="M53 0v47h107v1258h-105v40q66 2 131 7t133 14v-786q45 110 121.5 166.5t180.5 56.5q107 0 167 -58t60 -161v-537h106v-47h-379v47h117v543q0 77 -31 114t-96 37q-98 0 -172 -101t-74 -239v-354h107v-47h-373z" />
<glyph unicode="i" horiz-adv-x="563" d="M63 0v47h138v692h-131v43h39q65 0 128.5 5t120.5 14v-754h119v-47h-414zM182 1200q0 42 30 71t73 29q42 0 72 -29.5t30 -70.5q0 -42 -30 -72t-72 -30q-43 0 -73 30t-30 72z" />
<glyph unicode="j" horiz-adv-x="541" d="M-92 -344q0 34 19.5 53t56.5 19q18 0 37.5 -12t35.5 -33q9 -12 18 -31q15 -31 40 -31q45 0 66.5 58t21.5 180v880h-135v43q74 0 147 5t143 14v-834q0 -180 -91.5 -298t-225.5 -118q-60 0 -96.5 29t-36.5 76zM174 1200q0 42 30 71t72 29t72.5 -29.5t30.5 -70.5 q0 -42 -30 -72t-73 -30q-42 0 -72 30t-30 72z" />
<glyph unicode="k" horiz-adv-x="1010" d="M57 0v47h113v1258h-107l1 41q56 3 114.5 7.5t151.5 12.5v-1319h114v-47h-387zM336 449l348 288h-135v45h336v-45h-127l-279 -233l387 -457h82v-47h-387v47h105z" />
<glyph unicode="l" horiz-adv-x="561" d="M41 1305v40q81 2 160 7t157 14v-1319h154v-47h-467v47h150v1258h-154z" />
<glyph unicode="m" horiz-adv-x="1460" d="M57 739v43q68 0 135.5 5t132.5 14l1 -197q47 100 114 148.5t158 48.5q101 0 158.5 -52t62.5 -146q40 97 109 147.5t164 50.5q110 0 165.5 -62.5t55.5 -185.5v-506h102v-47h-377v47h117v578q0 60 -26 90t-78 30q-93 0 -164.5 -94t-71.5 -219v-385h103v-47h-371v47h112v578 q0 64 -25.5 92t-84.5 28q-91 0 -160.5 -108t-69.5 -260v-330h105v-47h-365v47h107v692h-109z" />
<glyph unicode="n" horiz-adv-x="1010" d="M57 739v43h37q62 0 120 5t109 14l1 -228q44 113 120.5 170.5t182.5 57.5q107 0 167 -57t60 -160v-537h107v-47h-379v47h116v543q0 77 -31 114t-96 37q-99 0 -171 -99t-72 -241v-354h108v-47h-377v47h109v692h-111z" />
<glyph unicode="o" horiz-adv-x="897" d="M59 389q0 174 113.5 293t278.5 119q168 0 278.5 -117t110.5 -293q0 -173 -114.5 -293.5t-276.5 -120.5q-168 0 -279 117.5t-111 294.5zM248 389q0 -222 45 -297.5t156 -75.5q110 0 156 80t46 291q0 224 -44.5 297.5t-155.5 73.5q-112 0 -157.5 -78t-45.5 -291z" />
<glyph unicode="p" horiz-adv-x="1010" d="M43 -401h117v1140h-113v43q66 2 132 6t134 11v-181q31 85 99.5 133t158.5 48q155 0 263 -120.5t108 -295.5q0 -173 -107.5 -289.5t-263.5 -116.5q-86 0 -151.5 37.5t-104.5 108.5v-524h136v-48h-408v48zM317 295q0 -120 65 -195t165 -75q112 0 161.5 85.5t49.5 284.5 q0 189 -48.5 274t-154.5 85q-103 0 -170.5 -82.5t-67.5 -214.5v-162z" />
<glyph unicode="q" horiz-adv-x="1016" d="M68 379q0 180 108 300t266 120q87 0 151.5 -43t92.5 -121v164q76 -9 145 -13t138 -4v-43h-121v-1140h113v-48h-412v48h135v524q-41 -70 -103.5 -108t-138.5 -38q-163 0 -268.5 113t-105.5 289zM250 365q0 -174 49 -257t152 -83q107 0 173 78.5t66 209.5v158 q0 121 -68.5 203t-164.5 82q-109 0 -158 -92.5t-49 -298.5z" />
<glyph unicode="r" horiz-adv-x="674" d="M41 0v47h135v692h-131v43q79 0 152 5t137 13v-200q50 98 110 146.5t129 48.5q57 0 87 -27t30 -78q0 -38 -23.5 -61t-62.5 -23q-35 0 -60.5 25t-25.5 59q0 8 2 19t2 14q0 8 -2 11t-6 3q-55 0 -115.5 -96t-60.5 -197v-397h149v-47h-446z" />
<glyph unicode="s" horiz-adv-x="786" d="M88 0v264h49q30 -113 104 -175t177 -62q88 0 142 45t54 118q0 83 -199 121q-39 8 -61 13q-153 32 -208.5 83.5t-55.5 149.5q0 108 73 176t189 68q66 0 116.5 -17.5t80.5 -50.5l41 53h28v-227h-43q-21 98 -78 149.5t-145 51.5q-81 0 -131.5 -40t-50.5 -104q0 -82 233 -124 q39 -7 60 -11q118 -21 176.5 -79.5t58.5 -155.5q0 -125 -80.5 -198t-218.5 -73q-63 0 -119.5 24t-103.5 71l-47 -70h-41z" />
<glyph unicode="t" horiz-adv-x="559" d="M41 739v43h115v248q10 -1 21 -1.5t32 -0.5q30 0 55 2t45 6v-254h183v-43h-183v-579q0 -69 16.5 -91t61.5 -22q28 0 55.5 18.5t55.5 55.5l32 -25q-47 -65 -96.5 -93t-116.5 -28q-83 0 -122 40.5t-39 125.5v598h-115z" />
<glyph unicode="u" horiz-adv-x="1010" d="M43 739v43h45q71 0 124 4.5t95 13.5v-593q0 -103 30 -133.5t112 -30.5q97 0 164 79t67 200v417h-119v43h35q60 0 121.5 5t119.5 14l1 -754h108v-47h-43q-67 0 -120 -4.5t-99 -13.5v170q-44 -82 -119.5 -127t-169.5 -45q-125 0 -180 52.5t-55 174.5v532h-117z" />
<glyph unicode="v" horiz-adv-x="895" d="M39 739v43h367v-43h-109l199 -553l209 553h-132v43h281v-43h-94l-289 -764h-63l-273 764h-96z" />
<glyph unicode="w" horiz-adv-x="1235" d="M16 739v43h387v-43h-118l164 -530l188 573h61l195 -571l162 528h-140v43h299v-43h-104l-238 -764h-57l-201 582l-190 -582h-64l-233 764h-111z" />
<glyph unicode="x" horiz-adv-x="903" d="M27 0v47h116l238 330l-240 362h-110v43h383v-43h-101l158 -237l168 237h-111v43h293v-43h-119l-200 -282l274 -410h90v-47h-377v47h111l-188 283l-205 -283h117v-47h-297z" />
<glyph unicode="y" horiz-adv-x="899" d="M27 739v43h391v-43h-129l217 -522l201 522h-132v43h287v-43h-102l-367 -966q-44 -117 -92 -169.5t-111 -52.5q-47 0 -78.5 27.5t-31.5 67.5q0 35 22.5 58.5t57.5 23.5q42 0 66.5 -37t33.5 -37q15 0 35 32t45 97l84 221l-301 735h-96z" />
<glyph unicode="z" horiz-adv-x="782" d="M51 0v37l473 702h-196q-77 0 -119 -51.5t-57 -167.5h-50l13 262h594v-47l-471 -688h217q81 0 132 59.5t75 182.5h45l-13 -289h-643z" />
<glyph unicode="{" d="M176 606v60q165 15 223 74t58 216v213q0 200 81 273.5t298 73.5h10v-51q-142 -2 -194 -55.5t-52 -209.5v-143q0 -226 -61 -308.5t-226 -113.5q165 -31 226 -113.5t61 -308.5v-143q0 -156 51.5 -208.5t194.5 -54.5v-51h-10q-217 0 -298 73.5t-81 272.5v213q0 158 -59 218 t-222 73z" />
<glyph unicode="|" d="M449 -483v2048h126v-2048h-126z" />
<glyph unicode="}" d="M178 -193q143 2 194.5 54.5t51.5 208.5v143q0 226 61 308.5t226 113.5q-165 31 -226 113.5t-61 308.5v143q0 156 -52 209.5t-194 55.5v51h10q216 0 297.5 -74t81.5 -273v-213q0 -157 58 -216t223 -74v-60q-163 -13 -222 -73t-59 -218v-213q0 -198 -81.5 -272t-297.5 -74 h-10v51z" />
<glyph unicode="~" horiz-adv-x="1706" d="M178 461v133q105 73 202 109t185 36q56 0 116.5 -12.5t174.5 -52.5q12 -4 35 -13q164 -59 254 -59q85 0 176 36.5t209 119.5v-131q-101 -72 -197.5 -108t-189.5 -36q-43 0 -90.5 9t-100.5 26q-30 10 -87 31q-202 72 -302 72q-83 0 -173.5 -37.5t-211.5 -122.5z" />
<glyph unicode="&#xa0;" />
<glyph unicode="&#xa1;" horiz-adv-x="606" d="M186 1255q0 50 32 82.5t81 32.5q55 0 88 -31.5t33 -83.5t-32 -84t-85 -32q-54 0 -85.5 31t-31.5 85zM188 113q0 12 13 74q73 361 80 745h49q6 -384 81 -745q13 -62 13 -74q0 -71 -30.5 -108.5t-88.5 -37.5q-57 0 -87 37t-30 109z" />
<glyph unicode="&#xa2;" d="M121 377q0 175 118 300.5t279 125.5q15 0 65 -8q20 -3 31 -4l99 258h65l-100 -271q78 -24 122 -77t44 -123q0 -41 -27 -68t-67 -27q-44 0 -69.5 25.5t-25.5 69.5q0 34 30 67t30 43q0 16 -13 28t-38 21l-250 -680q24 -18 51.5 -26t62.5 -8q106 0 181.5 58.5t107.5 166.5 h47q-26 -129 -121 -200t-241 -71q-31 0 -59 4.5t-54 12.5l-98 -270h-72l113 303q-101 46 -156 137.5t-55 212.5zM307 391q0 -133 12 -191t39 -100l242 654h-5q-36 4 -52 4q-125 0 -180.5 -85.5t-55.5 -281.5z" />
<glyph unicode="&#xa3;" d="M43 135q0 77 50 122.5t134 45.5q39 0 84 -13t111 -44q1 7 2 18q6 45 6 62q0 55 -19.5 129t-60.5 174h-223v57h201q-29 57 -42.5 116.5t-13.5 129.5q0 161 100 263.5t255 102.5q120 0 200 -63.5t80 -159.5q0 -58 -29.5 -92.5t-78.5 -34.5q-44 0 -73.5 28t-29.5 71 q0 27 13 50t35 34q8 4 34.5 9t26.5 17q0 28 -51.5 59t-114.5 31q-94 0 -150.5 -58.5t-56.5 -156.5q0 -66 55 -212q33 -85 48 -134h233v-57h-219q4 -34 6 -66.5t2 -62.5q0 -71 -15.5 -141.5t-45.5 -143.5q55 -22 106 -33.5t96 -11.5q110 0 156.5 51t46.5 170h39 q1 -13 1.5 -28t0.5 -37q0 -164 -72 -259.5t-194 -95.5q-64 0 -125.5 32.5t-114.5 94.5q-55 -65 -108.5 -96t-110.5 -31q-81 0 -127.5 44t-46.5 120zM123 131q0 -46 25.5 -73t68.5 -27q52 0 96 29.5t76 86.5q-33 46 -75.5 70.5t-88.5 24.5q-45 0 -73.5 -31t-28.5 -80z" />
<glyph unicode="&#xa4;" d="M14 516l13 47h114q-1 14 -1.5 28t-0.5 44q0 19 1 41.5t3 60.5h-129l13 47h120q30 238 150.5 376t298.5 138q70 0 133.5 -25.5t106.5 -70.5l59 55h31v-339h-43q-43 166 -116 250.5t-173 84.5q-118 0 -176 -109.5t-68 -359.5h436l-12 -47h-424q0 -16 -1 -50t-1 -52v-72h385 l-12 -47h-371q8 -265 62.5 -379t171.5 -114q119 0 188.5 71.5t126.5 265.5h39v-360h-43l-59 61q-67 -55 -119 -72.5t-133 -17.5q-183 0 -298.5 146.5t-140.5 398.5h-131z" />
<glyph unicode="&#xa5;" horiz-adv-x="1083" d="M-45 1221v49h498v-49h-162l317 -568l303 568h-190v49h397v-49h-147l-189 -357h242v-47h-268l-92 -174h360v-47h-387v-547h164v-49h-498v49h164v547h-408v47h383l-106 174h-277v47h248l-211 357h-141z" />
<glyph unicode="&#xa6;" d="M449 -350v758h126v-758h-126zM449 674v758h126v-758h-126z" />
<glyph unicode="&#xa7;" d="M135 563q0 109 77.5 180.5t197.5 71.5h18q-105 88 -150 157.5t-45 141.5q0 109 82 182.5t205 73.5q119 0 197 -59.5t78 -147.5q0 -49 -29 -79.5t-76 -30.5q-39 0 -64.5 22.5t-25.5 57.5q0 31 33 70t33 52q0 27 -42 48.5t-100 21.5q-74 0 -121 -43.5t-47 -112.5 q0 -55 38.5 -111t142.5 -145l178 -151q90 -76 132 -146t42 -143q0 -107 -77.5 -177.5t-197.5 -70.5h-22q100 -77 149.5 -151.5t49.5 -149.5q0 -108 -87.5 -180t-222.5 -72q-123 0 -204.5 60t-81.5 145q0 52 28 82.5t76 30.5q38 0 64 -24.5t26 -61.5t-32.5 -72.5t-32.5 -44.5 q0 -30 43 -50t112 -20q84 0 136.5 43.5t52.5 112.5q0 53 -39.5 110t-136.5 140l-181 156q-89 77 -132.5 147t-43.5 137zM250 621q0 -36 22 -75.5t74 -94.5q86 -92 150.5 -136.5t113.5 -44.5q70 0 116 44t46 108q0 44 -27 90t-96 115q-81 79 -135.5 113t-99.5 34 q-71 0 -117.5 -44t-46.5 -109z" />
<glyph unicode="&#xa8;" d="M223 1067q0 40 29.5 69t69.5 29t70 -29t30 -69q0 -42 -29 -71t-71 -29t-70.5 28.5t-28.5 71.5zM604 1067q0 40 29.5 69t68.5 29q41 0 71 -29t30 -69q0 -42 -29 -71t-72 -29q-41 0 -69.5 28.5t-28.5 71.5z" />
<glyph unicode="&#xa9;" horiz-adv-x="1683" d="M139 678q0 140 53 268.5t152 229.5q98 99 228 152.5t272 53.5q137 0 266.5 -53.5t226.5 -150.5q98 -97 152.5 -228.5t54.5 -271.5t-53 -268t-154 -230q-98 -100 -225 -152.5t-270 -52.5t-269 52.5t-227 152.5t-154 227t-53 271zM225 678q0 -125 47 -238.5t136 -201.5 q88 -89 198.5 -135t235.5 -46q126 0 236.5 46t197.5 135q88 90 135 203t47 237t-47.5 240.5t-132.5 201.5q-86 87 -200.5 135t-233.5 48q-123 0 -237.5 -48.5t-200.5 -136.5q-88 -89 -134.5 -202.5t-46.5 -237.5zM426 664q0 186 116 312t285 126q74 0 148 -34t82 -34 q27 0 42 14.5t21 47.5h35l2 -314h-41q-34 137 -104 206t-176 69q-123 0 -185.5 -94.5t-62.5 -278.5q0 -189 67 -285t199 -96q86 0 156 43t127 131l34 -24q-58 -105 -143 -157t-199 -52q-167 0 -285 123t-118 297z" />
<glyph unicode="&#xaa;" horiz-adv-x="674" d="M51 909q0 97 101.5 152t279.5 55v135q0 41 -29.5 60.5t-91.5 19.5q-48 0 -85.5 -15.5t-37.5 -31.5q0 -3 21.5 -22.5t21.5 -44.5q0 -26 -18 -43t-43 -17q-30 0 -48 18.5t-18 49.5q0 58 67.5 96.5t174.5 38.5q112 0 158.5 -33.5t46.5 -118.5v-313q0 -34 6.5 -43.5 t24.5 -9.5t32.5 14t20.5 37h24q-4 -49 -39.5 -80t-87.5 -31q-43 0 -68 23.5t-30 68.5q-27 -41 -86.5 -66.5t-128.5 -25.5q-77 0 -122.5 35t-45.5 92zM168 944q0 -48 31.5 -77t83.5 -29q65 0 107 31t42 81v135q-130 0 -197 -35.5t-67 -105.5z" />
<glyph unicode="&#xab;" horiz-adv-x="989" d="M152 397q119 97 228 203.5t118 106.5q8 -1 12 -5.5t4 -13.5q0 -20 -52.5 -94t-154.5 -197l36 -45q169 -211 169 -250q0 -8 -4 -14t-10 -6q-13 0 -121 110.5t-225 204.5zM469 397q120 97 229 203.5t117 106.5t12 -4.5t4 -14.5q0 -20 -52 -94t-154 -197l36 -45 q168 -211 168 -250q0 -8 -4 -14t-10 -6q-12 0 -120.5 110.5t-225.5 204.5z" />
<glyph unicode="&#xac;" horiz-adv-x="1706" d="M254 741v117h1198v-502h-115v385h-1083z" />
<glyph unicode="&#xad;" horiz-adv-x="674" d="M88 324v141h498v-141h-498z" />
<glyph unicode="&#xae;" horiz-adv-x="1683" d="M139 678q0 140 53 268.5t152 229.5q98 99 228 152.5t272 53.5q138 0 268.5 -54t228.5 -152q97 -97 150 -228t53 -272q0 -137 -55.5 -267.5t-157.5 -232.5q-99 -99 -224.5 -150t-270.5 -51q-137 0 -263 52.5t-227 152.5t-154 227t-53 271zM225 678q0 -127 46.5 -239 t136.5 -201q88 -89 198.5 -135t235.5 -46q126 0 236.5 46t197.5 135q88 90 135 203t47 237t-47.5 241.5t-132.5 200.5q-86 87 -200.5 135t-233.5 48q-122 0 -236 -48t-202 -137t-134.5 -202.5t-46.5 -237.5zM469 291v40q72 3 99.5 24.5t27.5 76.5v516q0 55 -26 76t-101 25 v43h393q147 0 232.5 -54.5t85.5 -146.5q0 -76 -69.5 -124t-217.5 -75q93 -29 142 -77.5t71 -133.5q6 -22 11 -63q13 -88 59 -88q32 0 49.5 34t17.5 99h43v-12q0 -88 -40.5 -133.5t-119.5 -45.5q-46 0 -78.5 17t-48.5 49q-18 40 -21 113.5t-9 95.5q-20 68 -70.5 100.5 t-136.5 32.5h-33v-248q0 -54 26.5 -75.5t98.5 -25.5v-40h-385zM729 719q16 -1 32 -1.5t34 -0.5q112 0 173.5 45.5t61.5 128.5q0 73 -53 117.5t-143 44.5q-52 0 -78.5 -18.5t-26.5 -53.5v-262z" />
<glyph unicode="&#xaf;" d="M254 1004v124h516v-124h-516z" />
<glyph unicode="&#xb0;" horiz-adv-x="674" d="M55 1171q0 119 82.5 201t200.5 82q117 0 200 -83t83 -200q0 -116 -83.5 -199t-201.5 -83t-199.5 82t-81.5 200zM135 1171q0 -84 59.5 -143t143.5 -59t142.5 59t58.5 143t-58.5 142.5t-142.5 58.5t-143.5 -58.5t-59.5 -142.5z" />
<glyph unicode="&#xb1;" horiz-adv-x="1706" d="M254 41v117h1198v-117h-1198zM254 719v117h541v344h118v-344h539v-117h-539v-344h-118v344h-541z" />
<glyph unicode="&#xb2;" horiz-adv-x="676" d="M35 508v57l217 193q106 92 157.5 169.5t51.5 145.5q0 81 -50.5 128.5t-136.5 47.5q-72 0 -123 -35.5t-51 -80.5q0 -7 3 -12t6 -5l6 2q22 6 45 6q27 0 44 -16.5t17 -42.5q0 -28 -18.5 -46t-48.5 -18q-39 0 -65 28.5t-26 72.5q0 80 74.5 133t190.5 53q124 0 198 -55.5 t74 -147.5q0 -60 -49.5 -124.5t-177.5 -165.5l-248 -193h346q46 0 63 17t29 83h35l-20 -194h-543z" />
<glyph unicode="&#xb3;" horiz-adv-x="676" d="M37 631q0 38 22 62t58 24q32 0 48.5 -16.5t16.5 -47.5q0 -16 -8 -29t-23 -20q-6 -3 -19 -6q-21 -5 -21 -14q0 -22 47.5 -44t107.5 -22q94 0 145.5 52.5t51.5 148.5q0 95 -52 141.5t-159 46.5q-23 0 -50.5 -4t-31.5 -4q-12 0 -20.5 6.5t-8.5 16.5q0 8 7.5 13t19.5 5 q4 0 24.5 -2t36.5 -2q104 0 147.5 41.5t43.5 140.5q0 77 -34 110.5t-112 33.5q-41 0 -74.5 -14t-33.5 -27q0 -2 24.5 -22t24.5 -44q0 -25 -16.5 -40t-44.5 -15q-30 0 -47 16t-17 45q0 54 59.5 90.5t151.5 36.5q109 0 180.5 -51t71.5 -129q0 -59 -47 -103.5t-146 -76.5 q114 -17 178 -69.5t64 -129.5q0 -100 -93.5 -167.5t-236.5 -67.5q-103 0 -169 39.5t-66 97.5z" />
<glyph unicode="&#xb4;" d="M336 911l289 299q35 36 55.5 48t40.5 12q33 0 53.5 -19.5t20.5 -50.5q0 -22 -15.5 -43t-46.5 -41l-330 -205h-67z" />
<glyph unicode="&#xb5;" horiz-adv-x="1120" d="M-80 -330q0 40 64.5 273.5t105.5 427.5l109 514h147l-104 -492q-6 -30 -9.5 -58.5t-3.5 -53.5q0 -83 42 -129t118 -46q98 0 163.5 68.5t94.5 200.5l111 510h149l-114 -531q-13 -59 -17 -87.5t-4 -49.5q0 -48 26 -78t66 -30q35 0 65.5 18t51.5 51t41 93.5t39 60.5 q12 0 19 -10t7 -27q0 -25 -11 -66.5t-29 -83.5q-38 -82 -95 -122.5t-135 -40.5q-68 0 -108.5 51t-40.5 139v23q-46 -110 -116 -164t-165 -54q-96 0 -152.5 54.5t-70.5 161.5q-27 -136 -52 -339q-34 -272 -112 -272q-37 0 -58.5 23.5t-21.5 64.5z" />
<glyph unicode="&#xb6;" d="M76 1130q0 157 107.5 253t285.5 96h479v-78h-125v-1401h-94v1401h-182v-1401h-96v782q-173 8 -274 102.5t-101 245.5z" />
<glyph unicode="&#xb7;" horiz-adv-x="512" d="M137 639q0 57 32 90t87 33q53 0 86 -34t33 -89q0 -52 -34 -85.5t-85 -33.5q-53 0 -86 33t-33 86z" />
<glyph unicode="&#xb8;" d="M242 -371l34 78q61 -34 119.5 -53t104.5 -19q64 0 93.5 22.5t29.5 70.5q0 41 -30 64.5t-83 23.5q-14 0 -31 -2t-32 -4l-1 190h64v-112q16 2 31.5 3.5t29.5 2.5q87 0 135 -43.5t48 -120.5q0 -82 -58.5 -129t-160.5 -47q-55 0 -122 17t-171 58z" />
<glyph unicode="&#xb9;" horiz-adv-x="676" d="M117 1253v25l284 10v-749h156v-31h-438v31h172v661q0 29 -20 41t-70 12h-84z" />
<glyph unicode="&#xba;" horiz-adv-x="674" d="M45 1071q0 122 85 205.5t208 83.5q127 0 210 -81.5t83 -205.5q0 -121 -86.5 -206t-208.5 -85q-125 0 -208 82.5t-83 206.5zM186 1071q0 -155 33.5 -207.5t116.5 -52.5q84 0 118.5 56t34.5 202q0 156 -33.5 208t-117.5 52t-118 -54.5t-34 -203.5z" />
<glyph unicode="&#xbb;" horiz-adv-x="989" d="M158 688q0 9 4 13.5t12 5.5q9 0 117.5 -106.5t228.5 -203.5q-117 -94 -225 -204.5t-121 -110.5q-6 0 -10 6t-4 14q0 39 169 250l36 45q-103 123 -155 197t-52 94zM475 688q1 10 4.5 14t12.5 5q8 0 117 -106.5t229 -203.5q-118 -94 -226 -204.5t-120 -110.5q-6 0 -9.5 6 t-3.5 14q0 41 184 271l19 24q-102 123 -154.5 197t-52.5 94z" />
<glyph unicode="&#xbc;" horiz-adv-x="1632" d="M113 1253v25l270 10v-700h149v-29h-417v29h164v616q0 27 -19.5 38t-69.5 11h-77zM303 -29l938 1327h86l-936 -1327h-88zM1014 197v61q64 107 149 222.5t199 250.5h82v-502h115v84h28v-196h-28v80h-117v-168h94v-29h-297v29h92v168h-317zM1040 229h293v418 q-115 -145 -193.5 -255t-99.5 -154v-9z" />
<glyph unicode="&#xbd;" horiz-adv-x="1632" d="M113 1253v25l270 10v-700h149v-29h-417v29h164v616q0 27 -19.5 38t-69.5 11h-77zM303 -29l938 1327h86l-936 -1327h-88zM1020 0v53l209 180q101 87 149.5 159.5t48.5 135.5q0 76 -48 120t-130 44q-69 0 -117.5 -33t-48.5 -77q1 -7 3 -10.5t6 -4.5l6 2q19 6 41 6 q27 0 43 -15t16 -40q0 -27 -17.5 -43t-45.5 -16q-38 0 -62 25.5t-24 66.5q0 76 69.5 126t179.5 50q120 0 191.5 -52.5t71.5 -137.5q0 -57 -47.5 -117t-170.5 -154l-235 -180h330q42 0 58.5 16t27.5 76h32l-16 -180h-520z" />
<glyph unicode="&#xbe;" horiz-adv-x="1632" d="M35 674q0 36 21.5 58t56.5 22q29 0 45 -15t16 -43q0 -16 -7.5 -28t-21.5 -19q-5 -2 -17 -5q-21 -6 -22 -15q0 -20 46 -40t102 -20q89 0 138.5 49t49.5 138t-49 132.5t-151 43.5q-22 0 -49 -3t-31 -3q-13 0 -20 5.5t-7 14.5q0 7 6.5 11.5t18.5 5.5q4 0 23.5 -2.5 t33.5 -2.5q100 0 141 38.5t41 131.5q0 72 -32 104t-105 32q-40 0 -72 -13t-32 -26q0 -2 23.5 -20.5t23.5 -41.5q0 -24 -16 -38.5t-44 -14.5q-26 0 -42.5 16t-16.5 41q0 52 56.5 86.5t144.5 34.5q104 0 172.5 -48t68.5 -120q0 -56 -45 -97t-139 -71q108 -16 168.5 -65.5 t60.5 -120.5q0 -94 -88.5 -157.5t-224.5 -63.5q-97 0 -161 37.5t-64 91.5zM303 -29l938 1327h86l-936 -1327h-88zM1014 197v61q64 107 149 222.5t199 250.5h82v-502h115v84h28v-196h-28v80h-117v-168h94v-29h-297v29h92v168h-317zM1040 229h293v418q-115 -145 -193.5 -255 t-99.5 -154v-9z" />
<glyph unicode="&#xbf;" horiz-adv-x="901" d="M133 301q0 107 55 194t189 185q95 71 120 116.5t25 110.5q0 3 -1.5 15.5t-2.5 23.5h51q3 -29 4.5 -57t1.5 -58q0 -108 -27 -175.5t-95 -131.5q-21 -18 -60 -53q-162 -140 -162 -244q0 -93 70 -155t176 -62q81 0 149 42t68 81q0 18 -29 23q-20 4 -30 8q-35 13 -51.5 32.5 t-16.5 47.5q0 39 24.5 63.5t63.5 24.5q51 0 80 -32.5t29 -90.5q0 -104 -82.5 -173t-210.5 -69q-145 0 -241.5 95.5t-96.5 238.5zM406 1255q0 51 33.5 83t88.5 32q48 0 79.5 -32t31.5 -83q0 -52 -30.5 -84t-80.5 -32q-56 0 -89 31.5t-33 84.5z" />
<glyph unicode="&#xc0;" horiz-adv-x="1276" d="M18 0v51h160l459 1329h51l428 -1329h141v-51h-512v51h166l-135 432h-389l-143 -432h170v-51h-396zM376 1769q0 31 20.5 50.5t53.5 19.5q20 0 40.5 -12t55.5 -48l289 -299h-67l-330 205q-31 20 -46.5 41t-15.5 43zM406 543h352l-170 540z" />
<glyph unicode="&#xc1;" horiz-adv-x="1276" d="M18 0v51h160l459 1329h51l428 -1329h141v-51h-512v51h166l-135 432h-389l-143 -432h170v-51h-396zM406 543h352l-170 540zM483 1480l289 299q35 36 55.5 48t40.5 12q33 0 53.5 -19.5t20.5 -50.5q0 -22 -15.5 -43t-46.5 -41l-330 -205h-67z" />
<glyph unicode="&#xc2;" horiz-adv-x="1276" d="M18 0v51h160l459 1329h51l428 -1329h141v-51h-512v51h166l-135 432h-389l-143 -432h170v-51h-396zM368 1480l232 351h118l232 -351h-58l-233 211l-233 -211h-58zM406 543h352l-170 540z" />
<glyph unicode="&#xc3;" horiz-adv-x="1276" d="M18 0v51h160l459 1329h51l428 -1329h141v-51h-512v51h166l-135 432h-389l-143 -432h170v-51h-396zM372 1527q19 107 68 160t129 53q17 0 32.5 -2t30.5 -6l111 -30q16 -4 30 -6.5t25 -2.5q37 0 59 20t35 66h54q-20 -103 -68.5 -154.5t-126.5 -51.5q-21 0 -67 10q-4 1 -7 2 l-109 27q-19 4 -29.5 6t-18.5 2q-39 0 -60.5 -21t-36.5 -72h-51zM406 543h352l-170 540z" />
<glyph unicode="&#xc4;" horiz-adv-x="1276" d="M18 0v51h160l459 1329h51l428 -1329h141v-51h-512v51h166l-135 432h-389l-143 -432h170v-51h-396zM370 1636q0 40 29.5 69t69.5 29t70 -29t30 -69q0 -42 -29 -71t-71 -29t-70.5 28.5t-28.5 71.5zM406 543h352l-170 540zM751 1636q0 40 29.5 69t68.5 29q41 0 71 -29 t30 -69q0 -42 -29 -71t-72 -29q-41 0 -69.5 28.5t-28.5 71.5z" />
<glyph unicode="&#xc5;" horiz-adv-x="1276" d="M18 0v51h160l459 1329h51l428 -1329h141v-51h-512v51h166l-135 432h-389l-143 -432h170v-51h-396zM406 543h352l-170 540zM422 1688q0 101 69 170t171 69q101 0 171 -69t70 -170q0 -102 -70 -172t-171 -70t-170.5 70t-69.5 172zM512 1688q0 -64 43.5 -108t106.5 -44 q62 0 105.5 44t43.5 108q0 61 -44 105t-105 44q-63 0 -106.5 -43.5t-43.5 -105.5z" />
<glyph unicode="&#xc6;" horiz-adv-x="1798" d="M-4 0v51h137l477 953q2 3 5 9q38 80 38 128q0 72 -56 112.5t-157 40.5h-6v52h1241l4 -328h-46q-10 148 -72.5 212t-198.5 64h-311v-575q8 0 23 -1t22 -1q127 0 181 47t54 158v12h45v-504h-44q-3 125 -63.5 182.5t-189.5 57.5h-28v-619h311q141 0 211 70.5t108 257.5h48 l-21 -379h-1042v51h180v426h-436l-215 -426h149v-51h-348zM440 532h406v760h-25z" />
<glyph unicode="&#xc7;" horiz-adv-x="1231" d="M94 651q0 145 41 272t121 228q80 102 196 160.5t238 58.5q83 0 154.5 -25t142.5 -79l68 63h30v-340h-43q-42 165 -134 250.5t-226 85.5q-187 0 -271.5 -167t-84.5 -546q0 -179 16.5 -278t54.5 -162q41 -69 112 -109t153 -40q146 0 247 85.5t150 251.5h39v-360h-43l-64 66 q-61 -50 -142.5 -74.5t-182.5 -24.5q-252 0 -412 191.5t-160 492.5zM383 -371l34 78q61 -34 119.5 -53t104.5 -19q64 0 93.5 22.5t29.5 70.5q0 41 -30 64.5t-83 23.5q-14 0 -31 -2t-32 -4l-1 190h64v-112q16 2 31.5 3.5t29.5 2.5q87 0 135 -43.5t48 -120.5q0 -82 -58.5 -129 t-160.5 -47q-55 0 -122 17t-171 58z" />
<glyph unicode="&#xc8;" horiz-adv-x="1235" d="M86 0v51h152v1243h-152v52h999v-324h-43q-23 154 -96 213t-252 59h-252v-569h41q131 0 186 47.5t65 165.5h42v-506h-43q-7 135 -69 188.5t-211 53.5h-11v-623h285q167 0 245.5 71.5t117.5 260.5h45l-21 -383h-1028zM362 1769q0 31 20.5 50.5t53.5 19.5q20 0 40.5 -12 t55.5 -48l289 -299h-67l-330 205q-31 20 -46.5 41t-15.5 43z" />
<glyph unicode="&#xc9;" horiz-adv-x="1235" d="M86 0v51h152v1243h-152v52h999v-324h-43q-23 154 -96 213t-252 59h-252v-569h41q131 0 186 47.5t65 165.5h42v-506h-43q-7 135 -69 188.5t-211 53.5h-11v-623h285q167 0 245.5 71.5t117.5 260.5h45l-21 -383h-1028zM469 1480l289 299q35 36 55.5 48t40.5 12 q33 0 53.5 -19.5t20.5 -50.5q0 -22 -15.5 -43t-46.5 -41l-330 -205h-67z" />
<glyph unicode="&#xca;" horiz-adv-x="1235" d="M86 0v51h152v1243h-152v52h999v-324h-43q-23 154 -96 213t-252 59h-252v-569h41q131 0 186 47.5t65 165.5h42v-506h-43q-7 135 -69 188.5t-211 53.5h-11v-623h285q167 0 245.5 71.5t117.5 260.5h45l-21 -383h-1028zM354 1480l232 351h118l232 -351h-58l-233 211 l-233 -211h-58z" />
<glyph unicode="&#xcb;" horiz-adv-x="1235" d="M86 0v51h152v1243h-152v52h999v-324h-43q-23 154 -96 213t-252 59h-252v-569h41q131 0 186 47.5t65 165.5h42v-506h-43q-7 135 -69 188.5t-211 53.5h-11v-623h285q167 0 245.5 71.5t117.5 260.5h45l-21 -383h-1028zM356 1636q0 40 29.5 69t69.5 29t70 -29t30 -69 q0 -42 -29 -71t-71 -29t-70.5 28.5t-28.5 71.5zM737 1636q0 40 29.5 69t68.5 29q41 0 71 -29t30 -69q0 -42 -29 -71t-72 -29q-41 0 -69.5 28.5t-28.5 71.5z" />
<glyph unicode="&#xcc;" horiz-adv-x="674" d="M55 1769q0 31 20.5 50.5t53.5 19.5q20 0 40.5 -12t55.5 -48l289 -299h-67l-330 205q-31 20 -46.5 41t-15.5 43zM61 0v51h170v1243h-170v52h549v-52h-174v-1243h174v-51h-549z" />
<glyph unicode="&#xcd;" horiz-adv-x="674" d="M61 0v51h170v1243h-170v52h549v-52h-174v-1243h174v-51h-549zM162 1480l289 299q35 36 55.5 48t40.5 12q33 0 53.5 -19.5t20.5 -50.5q0 -22 -15.5 -43t-46.5 -41l-330 -205h-67z" />
<glyph unicode="&#xce;" horiz-adv-x="674" d="M47 1480l232 351h118l232 -351h-58l-233 211l-233 -211h-58zM61 0v51h170v1243h-170v52h549v-52h-174v-1243h174v-51h-549z" />
<glyph unicode="&#xcf;" horiz-adv-x="674" d="M49 1636q0 40 29.5 69t69.5 29t70 -29t30 -69q0 -42 -29 -71t-71 -29t-70.5 28.5t-28.5 71.5zM61 0v51h170v1243h-170v52h549v-52h-174v-1243h174v-51h-549zM430 1636q0 40 29.5 69t68.5 29q41 0 71 -29t30 -69q0 -42 -29 -71t-72 -29q-41 0 -69.5 28.5t-28.5 71.5z" />
<glyph unicode="&#xd0;" horiz-adv-x="1348" d="M0 666v59h242v569h-152v52h510q304 0 479.5 -176.5t175.5 -481.5q0 -189 -64 -335t-190 -244q-72 -57 -168 -83t-231 -26h-512v51h152v615h-242zM446 51h146q102 0 179.5 22t127.5 64q72 62 101.5 164t29.5 377q0 240 -25.5 345.5t-86.5 166.5q-49 46 -138 75t-188 29 h-146v-569h287v-59h-287v-615z" />
<glyph unicode="&#xd1;" horiz-adv-x="1350" d="M82 0v51h151v1243h-149v52h391l574 -963v911h-152v52h373v-52h-156v-1327h-53l-764 1303v-1219h152v-51h-367zM397 1527q19 107 68 160t129 53q17 0 32.5 -2t30.5 -6l111 -30q16 -4 30 -6.5t25 -2.5q37 0 59 20t35 66h54q-20 -103 -68.5 -154.5t-126.5 -51.5 q-21 0 -67 10q-4 1 -7 2l-109 27q-19 4 -29.5 6t-18.5 2q-39 0 -60.5 -21t-36.5 -72h-51z" />
<glyph unicode="&#xd2;" horiz-adv-x="1350" d="M94 678q0 138 39.5 257t118.5 216q91 111 196 165t230 54q120 0 219.5 -48t183.5 -146q87 -102 133 -231.5t46 -276.5q0 -143 -43.5 -273t-124.5 -229q-83 -103 -183 -151t-231 -48q-136 0 -238.5 51t-187.5 160q-76 98 -117 227.5t-41 272.5zM326 586q0 -286 87 -427 t265 -141q177 0 263.5 141.5t86.5 430.5q0 422 -78 577.5t-272 155.5t-273 -159t-79 -578zM393 1769q0 31 20.5 50.5t53.5 19.5q20 0 40.5 -12t55.5 -48l289 -299h-67l-330 205q-31 20 -46.5 41t-15.5 43z" />
<glyph unicode="&#xd3;" horiz-adv-x="1350" d="M94 678q0 138 39.5 257t118.5 216q91 111 196 165t230 54q120 0 219.5 -48t183.5 -146q87 -102 133 -231.5t46 -276.5q0 -143 -43.5 -273t-124.5 -229q-83 -103 -183 -151t-231 -48q-136 0 -238.5 51t-187.5 160q-76 98 -117 227.5t-41 272.5zM326 586q0 -286 87 -427 t265 -141q177 0 263.5 141.5t86.5 430.5q0 422 -78 577.5t-272 155.5t-273 -159t-79 -578zM500 1480l289 299q35 36 55.5 48t40.5 12q33 0 53.5 -19.5t20.5 -50.5q0 -22 -15.5 -43t-46.5 -41l-330 -205h-67z" />
<glyph unicode="&#xd4;" horiz-adv-x="1350" d="M94 678q0 138 39.5 257t118.5 216q91 111 196 165t230 54q120 0 219.5 -48t183.5 -146q87 -102 133 -231.5t46 -276.5q0 -143 -43.5 -273t-124.5 -229q-83 -103 -183 -151t-231 -48q-136 0 -238.5 51t-187.5 160q-76 98 -117 227.5t-41 272.5zM326 586q0 -286 87 -427 t265 -141q177 0 263.5 141.5t86.5 430.5q0 422 -78 577.5t-272 155.5t-273 -159t-79 -578zM385 1480l232 351h118l232 -351h-58l-233 211l-233 -211h-58z" />
<glyph unicode="&#xd5;" horiz-adv-x="1350" d="M94 678q0 138 39.5 257t118.5 216q91 111 196 165t230 54q120 0 219.5 -48t183.5 -146q87 -102 133 -231.5t46 -276.5q0 -143 -43.5 -273t-124.5 -229q-83 -103 -183 -151t-231 -48q-136 0 -238.5 51t-187.5 160q-76 98 -117 227.5t-41 272.5zM326 586q0 -286 87 -427 t265 -141q177 0 263.5 141.5t86.5 430.5q0 422 -78 577.5t-272 155.5t-273 -159t-79 -578zM389 1527q19 107 68 160t129 53q17 0 32.5 -2t30.5 -6l111 -30q16 -4 30 -6.5t25 -2.5q37 0 59 20t35 66h54q-20 -103 -68.5 -154.5t-126.5 -51.5q-21 0 -67 10q-4 1 -7 2l-109 27 q-19 4 -29.5 6t-18.5 2q-39 0 -60.5 -21t-36.5 -72h-51z" />
<glyph unicode="&#xd6;" horiz-adv-x="1350" d="M94 678q0 138 39.5 257t118.5 216q91 111 196 165t230 54q120 0 219.5 -48t183.5 -146q87 -102 133 -231.5t46 -276.5q0 -143 -43.5 -273t-124.5 -229q-83 -103 -183 -151t-231 -48q-136 0 -238.5 51t-187.5 160q-76 98 -117 227.5t-41 272.5zM326 586q0 -286 87 -427 t265 -141q177 0 263.5 141.5t86.5 430.5q0 422 -78 577.5t-272 155.5t-273 -159t-79 -578zM387 1636q0 40 29.5 69t69.5 29t70 -29t30 -69q0 -42 -29 -71t-71 -29t-70.5 28.5t-28.5 71.5zM768 1636q0 40 29.5 69t68.5 29q41 0 71 -29t30 -69q0 -42 -29 -71t-72 -29 q-41 0 -69.5 28.5t-28.5 71.5z" />
<glyph unicode="&#xd7;" horiz-adv-x="1706" d="M301 135l475 475l-475 477l80 82l477 -477l475 477l82 -82l-475 -477l475 -475l-82 -82l-475 475l-477 -475z" />
<glyph unicode="&#xd8;" horiz-adv-x="1350" d="M88 653q0 109 31.5 217.5t91.5 210.5q79 134 205.5 211.5t263.5 77.5q82 0 156 -24t139 -72l119 194h84l-142 -241q112 -113 171 -256.5t59 -302.5q0 -138 -45 -271t-125 -231q-83 -102 -186.5 -152.5t-231.5 -50.5q-90 0 -173 31t-165 94l-135 -217h-82l162 268 q-97 119 -147 249t-50 265zM328 639q0 -149 9 -233.5t30 -131.5l567 928q-43 60 -107 90.5t-147 30.5q-190 0 -271 -155.5t-81 -528.5zM399 190q42 -87 111 -129.5t170 -42.5q177 0 264.5 141.5t87.5 428.5q0 178 -13.5 313t-41.5 225z" />
<glyph unicode="&#xd9;" horiz-adv-x="1343" d="M80 1294v52h508v-52h-156v-942q0 -156 73 -237.5t212 -81.5q162 0 246 100.5t84 294.5v866h-154v52h369v-52h-154v-872q0 -232 -110.5 -344.5t-338.5 -112.5q-196 0 -308.5 100t-112.5 275v954h-158zM424 1769q0 31 20.5 50.5t53.5 19.5q20 0 40.5 -12t55.5 -48l289 -299 h-67l-330 205q-31 20 -46.5 41t-15.5 43z" />
<glyph unicode="&#xda;" horiz-adv-x="1343" d="M80 1294v52h508v-52h-156v-942q0 -156 73 -237.5t212 -81.5q162 0 246 100.5t84 294.5v866h-154v52h369v-52h-154v-872q0 -232 -110.5 -344.5t-338.5 -112.5q-196 0 -308.5 100t-112.5 275v954h-158zM531 1480l289 299q35 36 55.5 48t40.5 12q33 0 53.5 -19.5t20.5 -50.5 q0 -22 -15.5 -43t-46.5 -41l-330 -205h-67z" />
<glyph unicode="&#xdb;" horiz-adv-x="1343" d="M80 1294v52h508v-52h-156v-942q0 -156 73 -237.5t212 -81.5q162 0 246 100.5t84 294.5v866h-154v52h369v-52h-154v-872q0 -232 -110.5 -344.5t-338.5 -112.5q-196 0 -308.5 100t-112.5 275v954h-158zM416 1480l232 351h118l232 -351h-58l-233 211l-233 -211h-58z" />
<glyph unicode="&#xdc;" horiz-adv-x="1343" d="M80 1294v52h508v-52h-156v-942q0 -156 73 -237.5t212 -81.5q162 0 246 100.5t84 294.5v866h-154v52h369v-52h-154v-872q0 -232 -110.5 -344.5t-338.5 -112.5q-196 0 -308.5 100t-112.5 275v954h-158zM418 1636q0 40 29.5 69t69.5 29t70 -29t30 -69q0 -42 -29 -71t-71 -29 t-70.5 28.5t-28.5 71.5zM799 1636q0 40 29.5 69t68.5 29q41 0 71 -29t30 -69q0 -42 -29 -71t-72 -29q-41 0 -69.5 28.5t-28.5 71.5z" />
<glyph unicode="&#xdd;" horiz-adv-x="1251" d="M0 1294v52h545v-52h-172l342 -589l317 589h-201v52h420v-52h-155l-353 -663v-580h175v-51h-556v51h175v582l-390 661h-147zM451 1480l289 299q35 36 55.5 48t40.5 12q33 0 53.5 -19.5t20.5 -50.5q0 -22 -15.5 -43t-46.5 -41l-330 -205h-67z" />
<glyph unicode="&#xde;" horiz-adv-x="1118" d="M80 0v51h151v1243h-151v52h500v-52h-152v-213h119q280 0 415.5 -87.5t135.5 -268.5q0 -185 -150.5 -283t-435.5 -98h-84v-293h160v-51h-508zM428 397h90q203 0 285 73.5t82 258.5q0 174 -70 236.5t-293 62.5h-94v-631z" />
<glyph unicode="&#xdf;" horiz-adv-x="1010" d="M51 0v49h121v971q0 160 93 253t253 93q159 0 257.5 -87.5t98.5 -225.5q0 -87 -35.5 -155t-103.5 -112q-28 -18 -73.5 -29t-45.5 -22q0 -10 45.5 -24t73.5 -29q104 -53 151.5 -133t47.5 -201q0 -169 -86.5 -271t-231.5 -102q-88 0 -146 54t-58 133q0 49 25.5 78.5 t68.5 29.5q39 0 62.5 -23.5t23.5 -64.5q0 -34 -28.5 -66t-28.5 -46q0 -20 23.5 -36t55.5 -16q72 0 104 76t32 250q0 202 -58.5 278t-214.5 76q-18 1 -25 6t-8 19q1 23 49 27q42 3 71 10q70 15 104 81.5t34 186.5q0 159 -45.5 227t-150.5 68q-98 0 -141 -58.5t-43 -191.5 v-1073h-271z" />
<glyph unicode="&#xe0;" horiz-adv-x="899" d="M68 158q0 137 134.5 216t372.5 81v192q0 59 -39.5 87t-121.5 28q-65 0 -114.5 -23t-49.5 -47q0 -4 28.5 -31.5t28.5 -62.5q0 -38 -23 -62t-59 -24q-40 0 -63 26t-23 70q0 83 90 138t232 55q150 0 211 -47.5t61 -169.5v-447q0 -47 9 -61.5t32 -14.5q25 0 45 20.5t27 51.5 h33q-6 -70 -52.5 -113t-115.5 -43q-59 0 -92 33t-39 99q-39 -61 -117.5 -97.5t-169.5 -36.5q-104 0 -164.5 50t-60.5 133zM184 1200q0 31 20.5 50.5t53.5 19.5q20 0 40.5 -12t55.5 -48l289 -299h-67l-330 205q-31 20 -46.5 41t-15.5 43zM223 209q0 -70 42 -112t112 -42 q87 0 142.5 45t55.5 117v193q-171 0 -261.5 -51.5t-90.5 -149.5z" />
<glyph unicode="&#xe1;" horiz-adv-x="899" d="M68 158q0 137 134.5 216t372.5 81v192q0 59 -39.5 87t-121.5 28q-65 0 -114.5 -23t-49.5 -47q0 -4 28.5 -31.5t28.5 -62.5q0 -38 -23 -62t-59 -24q-40 0 -63 26t-23 70q0 83 90 138t232 55q150 0 211 -47.5t61 -169.5v-447q0 -47 9 -61.5t32 -14.5q25 0 45 20.5t27 51.5 h33q-6 -70 -52.5 -113t-115.5 -43q-59 0 -92 33t-39 99q-39 -61 -117.5 -97.5t-169.5 -36.5q-104 0 -164.5 50t-60.5 133zM223 209q0 -70 42 -112t112 -42q87 0 142.5 45t55.5 117v193q-171 0 -261.5 -51.5t-90.5 -149.5zM291 911l289 299q35 36 55.5 48t40.5 12 q33 0 53.5 -19.5t20.5 -50.5q0 -22 -15.5 -43t-46.5 -41l-330 -205h-67z" />
<glyph unicode="&#xe2;" horiz-adv-x="899" d="M68 158q0 137 134.5 216t372.5 81v192q0 59 -39.5 87t-121.5 28q-65 0 -114.5 -23t-49.5 -47q0 -4 28.5 -31.5t28.5 -62.5q0 -38 -23 -62t-59 -24q-40 0 -63 26t-23 70q0 83 90 138t232 55q150 0 211 -47.5t61 -169.5v-447q0 -47 9 -61.5t32 -14.5q25 0 45 20.5t27 51.5 h33q-6 -70 -52.5 -113t-115.5 -43q-59 0 -92 33t-39 99q-39 -61 -117.5 -97.5t-169.5 -36.5q-104 0 -164.5 50t-60.5 133zM176 911l232 351h118l232 -351h-58l-233 211l-233 -211h-58zM223 209q0 -70 42 -112t112 -42q87 0 142.5 45t55.5 117v193q-171 0 -261.5 -51.5 t-90.5 -149.5z" />
<glyph unicode="&#xe3;" horiz-adv-x="899" d="M68 158q0 137 134.5 216t372.5 81v192q0 59 -39.5 87t-121.5 28q-65 0 -114.5 -23t-49.5 -47q0 -4 28.5 -31.5t28.5 -62.5q0 -38 -23 -62t-59 -24q-40 0 -63 26t-23 70q0 83 90 138t232 55q150 0 211 -47.5t61 -169.5v-447q0 -47 9 -61.5t32 -14.5q25 0 45 20.5t27 51.5 h33q-6 -70 -52.5 -113t-115.5 -43q-59 0 -92 33t-39 99q-39 -61 -117.5 -97.5t-169.5 -36.5q-104 0 -164.5 50t-60.5 133zM180 958q19 107 68 160t129 53q17 0 32.5 -2t30.5 -6l111 -30q16 -4 30 -6.5t25 -2.5q37 0 59 20t35 66h54q-20 -103 -68.5 -154.5t-126.5 -51.5 q-21 0 -67 10q-4 1 -7 2l-109 27q-19 4 -29.5 6t-18.5 2q-39 0 -60.5 -21t-36.5 -72h-51zM223 209q0 -70 42 -112t112 -42q87 0 142.5 45t55.5 117v193q-171 0 -261.5 -51.5t-90.5 -149.5z" />
<glyph unicode="&#xe4;" horiz-adv-x="899" d="M68 158q0 137 134.5 216t372.5 81v192q0 59 -39.5 87t-121.5 28q-65 0 -114.5 -23t-49.5 -47q0 -4 28.5 -31.5t28.5 -62.5q0 -38 -23 -62t-59 -24q-40 0 -63 26t-23 70q0 83 90 138t232 55q150 0 211 -47.5t61 -169.5v-447q0 -47 9 -61.5t32 -14.5q25 0 45 20.5t27 51.5 h33q-6 -70 -52.5 -113t-115.5 -43q-59 0 -92 33t-39 99q-39 -61 -117.5 -97.5t-169.5 -36.5q-104 0 -164.5 50t-60.5 133zM178 1067q0 40 29.5 69t69.5 29t70 -29t30 -69q0 -42 -29 -71t-71 -29t-70.5 28.5t-28.5 71.5zM223 209q0 -70 42 -112t112 -42q87 0 142.5 45 t55.5 117v193q-171 0 -261.5 -51.5t-90.5 -149.5zM559 1067q0 40 29.5 69t68.5 29q41 0 71 -29t30 -69q0 -42 -29 -71t-72 -29q-41 0 -69.5 28.5t-28.5 71.5z" />
<glyph unicode="&#xe5;" horiz-adv-x="899" d="M68 158q0 137 134.5 216t372.5 81v192q0 59 -39.5 87t-121.5 28q-65 0 -114.5 -23t-49.5 -47q0 -4 28.5 -31.5t28.5 -62.5q0 -38 -23 -62t-59 -24q-40 0 -63 26t-23 70q0 83 90 138t232 55q150 0 211 -47.5t61 -169.5v-447q0 -47 9 -61.5t32 -14.5q25 0 45 20.5t27 51.5 h33q-6 -70 -52.5 -113t-115.5 -43q-59 0 -92 33t-39 99q-39 -61 -117.5 -97.5t-169.5 -36.5q-104 0 -164.5 50t-60.5 133zM209 1108q0 101 70 170.5t172 69.5q101 0 170 -69.5t69 -170.5q0 -102 -69 -172t-170 -70q-102 0 -172 70.5t-70 171.5zM223 209q0 -70 42 -112 t112 -42q87 0 142.5 45t55.5 117v193q-171 0 -261.5 -51.5t-90.5 -149.5zM301 1108q0 -63 43.5 -107.5t106.5 -44.5q62 0 105.5 44.5t43.5 107.5q0 61 -44 105t-105 44q-62 0 -106 -43.5t-44 -105.5z" />
<glyph unicode="&#xe6;" horiz-adv-x="1350" d="M55 170q0 132 135 210.5t367 78.5v168q0 76 -31.5 105.5t-111.5 29.5q-77 0 -127.5 -21t-50.5 -49q0 -6 27.5 -34t27.5 -60q0 -42 -21.5 -64t-62.5 -22q-39 0 -61.5 25t-22.5 67q0 85 86.5 141t220.5 56q72 0 135.5 -22.5t112.5 -65.5q49 44 110.5 66t135.5 22 q166 0 258 -87t92 -245v-14l-559 -1q-1 -15 -1.5 -32.5t-0.5 -50.5q0 -190 53.5 -267t181.5 -77q114 0 190 58.5t97 164.5h43q-20 -130 -107.5 -202.5t-224.5 -72.5q-110 0 -196 40.5t-144 117.5q-51 -77 -130 -117.5t-177 -40.5q-114 0 -179 52t-65 143zM209 209 q0 -75 39 -114.5t114 -39.5q95 0 145 50t50 145v169q-169 -4 -258.5 -58.5t-89.5 -151.5zM715 506h383q0 7 1 21.5t1 21.5q0 112 -43.5 162.5t-138.5 50.5t-143.5 -61.5t-59.5 -194.5z" />
<glyph unicode="&#xe7;" horiz-adv-x="897" d="M70 377q0 181 119 301.5t300 120.5q133 0 218.5 -61.5t85.5 -153.5q0 -46 -27.5 -73.5t-73.5 -27.5q-38 0 -63 26t-25 64q0 36 30 71t30 44q0 29 -50 50.5t-122 21.5q-123 0 -179.5 -88t-56.5 -283q0 -196 52 -281t169 -85q106 0 182.5 58.5t106.5 164.5h49 q-32 -129 -123 -199t-227 -70q-173 0 -284 113t-111 287zM179 -371l34 78q61 -34 119.5 -53t104.5 -19q64 0 93.5 22.5t29.5 70.5q0 41 -30 64.5t-83 23.5q-14 0 -31 -2t-32 -4l-1 190h64v-112q16 2 31.5 3.5t29.5 2.5q87 0 135 -43.5t48 -120.5q0 -82 -58.5 -129 t-160.5 -47q-55 0 -122 17t-171 58z" />
<glyph unicode="&#xe8;" horiz-adv-x="897" d="M68 369q0 181 117.5 306.5t287.5 125.5q159 0 251 -89.5t107 -258.5h-573v-60q0 -203 52.5 -283.5t181.5 -80.5q109 0 185.5 58.5t104.5 164.5h45q-30 -137 -120.5 -206t-239.5 -69q-169 0 -284 113.5t-115 278.5zM196 1200q0 31 20.5 50.5t53.5 19.5q20 0 40.5 -12 t55.5 -48l289 -299h-67l-330 205q-31 20 -46.5 41t-15.5 43zM264 510h383v20q0 124 -41.5 179t-134.5 55q-96 0 -147.5 -63.5t-59.5 -190.5z" />
<glyph unicode="&#xe9;" horiz-adv-x="897" d="M68 369q0 181 117.5 306.5t287.5 125.5q159 0 251 -89.5t107 -258.5h-573v-60q0 -203 52.5 -283.5t181.5 -80.5q109 0 185.5 58.5t104.5 164.5h45q-30 -137 -120.5 -206t-239.5 -69q-169 0 -284 113.5t-115 278.5zM264 510h383v20q0 124 -41.5 179t-134.5 55 q-96 0 -147.5 -63.5t-59.5 -190.5zM303 911l289 299q35 36 55.5 48t40.5 12q33 0 53.5 -19.5t20.5 -50.5q0 -22 -15.5 -43t-46.5 -41l-330 -205h-67z" />
<glyph unicode="&#xea;" horiz-adv-x="897" d="M68 369q0 181 117.5 306.5t287.5 125.5q159 0 251 -89.5t107 -258.5h-573v-60q0 -203 52.5 -283.5t181.5 -80.5q109 0 185.5 58.5t104.5 164.5h45q-30 -137 -120.5 -206t-239.5 -69q-169 0 -284 113.5t-115 278.5zM188 911l232 351h118l232 -351h-58l-233 211l-233 -211 h-58zM264 510h383v20q0 124 -41.5 179t-134.5 55q-96 0 -147.5 -63.5t-59.5 -190.5z" />
<glyph unicode="&#xeb;" horiz-adv-x="897" d="M68 369q0 181 117.5 306.5t287.5 125.5q159 0 251 -89.5t107 -258.5h-573v-60q0 -203 52.5 -283.5t181.5 -80.5q109 0 185.5 58.5t104.5 164.5h45q-30 -137 -120.5 -206t-239.5 -69q-169 0 -284 113.5t-115 278.5zM190 1067q0 40 29.5 69t69.5 29t70 -29t30 -69 q0 -42 -29 -71t-71 -29t-70.5 28.5t-28.5 71.5zM264 510h383v20q0 124 -41.5 179t-134.5 55q-96 0 -147.5 -63.5t-59.5 -190.5zM571 1067q0 40 29.5 69t68.5 29q41 0 71 -29t30 -69q0 -42 -29 -71t-72 -29q-41 0 -69.5 28.5t-28.5 71.5z" />
<glyph unicode="&#xec;" horiz-adv-x="563" d="M-23 1200q0 31 20.5 50.5t53.5 19.5q20 0 40.5 -12t55.5 -48l289 -299h-67l-330 205q-31 20 -46.5 41t-15.5 43zM63 0v47h138v692h-131v43h39q65 0 128.5 5t120.5 14v-754h119v-47h-414z" />
<glyph unicode="&#xed;" horiz-adv-x="563" d="M63 0v47h138v692h-131v43h39q65 0 128.5 5t120.5 14v-754h119v-47h-414zM84 911l289 299q35 36 55.5 48t40.5 12q33 0 53.5 -19.5t20.5 -50.5q0 -22 -15.5 -43t-46.5 -41l-330 -205h-67z" />
<glyph unicode="&#xee;" horiz-adv-x="563" d="M-31 911l232 351h118l232 -351h-58l-233 211l-233 -211h-58zM63 0v47h138v692h-131v43h39q65 0 128.5 5t120.5 14v-754h119v-47h-414z" />
<glyph unicode="&#xef;" horiz-adv-x="563" d="M-29 1067q0 40 29.5 69t69.5 29t70 -29t30 -69q0 -42 -29 -71t-71 -29t-70.5 28.5t-28.5 71.5zM63 0v47h138v692h-131v43h39q65 0 128.5 5t120.5 14v-754h119v-47h-414zM352 1067q0 40 29.5 69t68.5 29q41 0 71 -29t30 -69q0 -42 -29 -71t-72 -29q-41 0 -69.5 28.5 t-28.5 71.5z" />
<glyph unicode="&#xf0;" horiz-adv-x="897" d="M59 389q0 174 113.5 293t278.5 119q51 0 88 -7.5t69 -23.5q-21 69 -68.5 148.5t-119.5 166.5l-266 -122l-19 47l246 112q-41 45 -105.5 93.5t-156.5 103.5l14 33q85 -32 168.5 -79t165.5 -108l258 119l20 -47l-235 -111q165 -141 248.5 -314t83.5 -372 q0 -209 -108.5 -336t-284.5 -127q-168 0 -279 117.5t-111 294.5zM248 377q0 -212 45 -286.5t156 -74.5t156.5 80t45.5 295q0 224 -44.5 297.5t-155.5 73.5q-113 0 -158 -78.5t-45 -306.5z" />
<glyph unicode="&#xf1;" horiz-adv-x="1010" d="M57 739v43h37q62 0 120 5t109 14l1 -228q44 113 120.5 170.5t182.5 57.5q107 0 167 -57t60 -160v-537h107v-47h-379v47h116v543q0 77 -31 114t-96 37q-99 0 -171 -99t-72 -241v-354h108v-47h-377v47h109v692h-111zM219 958q19 107 68 160t129 53q17 0 32.5 -2t30.5 -6 l111 -30q16 -4 30 -6.5t25 -2.5q37 0 59 20t35 66h54q-20 -103 -68.5 -154.5t-126.5 -51.5q-21 0 -67 10q-4 1 -7 2l-109 27q-19 4 -29.5 6t-18.5 2q-39 0 -60.5 -21t-36.5 -72h-51z" />
<glyph unicode="&#xf2;" horiz-adv-x="897" d="M59 389q0 174 113.5 293t278.5 119q168 0 278.5 -117t110.5 -293q0 -173 -114.5 -293.5t-276.5 -120.5q-168 0 -279 117.5t-111 294.5zM166 1200q0 31 20.5 50.5t53.5 19.5q20 0 40.5 -12t55.5 -48l289 -299h-67l-330 205q-31 20 -46.5 41t-15.5 43zM248 389 q0 -222 45 -297.5t156 -75.5q110 0 156 80t46 291q0 224 -44.5 297.5t-155.5 73.5q-112 0 -157.5 -78t-45.5 -291z" />
<glyph unicode="&#xf3;" horiz-adv-x="897" d="M59 389q0 174 113.5 293t278.5 119q168 0 278.5 -117t110.5 -293q0 -173 -114.5 -293.5t-276.5 -120.5q-168 0 -279 117.5t-111 294.5zM248 389q0 -222 45 -297.5t156 -75.5q110 0 156 80t46 291q0 224 -44.5 297.5t-155.5 73.5q-112 0 -157.5 -78t-45.5 -291zM273 911 l289 299q35 36 55.5 48t40.5 12q33 0 53.5 -19.5t20.5 -50.5q0 -22 -15.5 -43t-46.5 -41l-330 -205h-67z" />
<glyph unicode="&#xf4;" horiz-adv-x="897" d="M59 389q0 174 113.5 293t278.5 119q168 0 278.5 -117t110.5 -293q0 -173 -114.5 -293.5t-276.5 -120.5q-168 0 -279 117.5t-111 294.5zM158 911l232 351h118l232 -351h-58l-233 211l-233 -211h-58zM248 389q0 -222 45 -297.5t156 -75.5q110 0 156 80t46 291 q0 224 -44.5 297.5t-155.5 73.5q-112 0 -157.5 -78t-45.5 -291z" />
<glyph unicode="&#xf5;" horiz-adv-x="897" d="M59 389q0 174 113.5 293t278.5 119q168 0 278.5 -117t110.5 -293q0 -173 -114.5 -293.5t-276.5 -120.5q-168 0 -279 117.5t-111 294.5zM162 958q19 107 68 160t129 53q17 0 32.5 -2t30.5 -6l111 -30q16 -4 30 -6.5t25 -2.5q37 0 59 20t35 66h54q-20 -103 -68.5 -154.5 t-126.5 -51.5q-21 0 -67 10q-4 1 -7 2l-109 27q-19 4 -29.5 6t-18.5 2q-39 0 -60.5 -21t-36.5 -72h-51zM248 389q0 -222 45 -297.5t156 -75.5q110 0 156 80t46 291q0 224 -44.5 297.5t-155.5 73.5q-112 0 -157.5 -78t-45.5 -291z" />
<glyph unicode="&#xf6;" horiz-adv-x="897" d="M59 389q0 174 113.5 293t278.5 119q168 0 278.5 -117t110.5 -293q0 -173 -114.5 -293.5t-276.5 -120.5q-168 0 -279 117.5t-111 294.5zM160 1067q0 40 29.5 69t69.5 29t70 -29t30 -69q0 -42 -29 -71t-71 -29t-70.5 28.5t-28.5 71.5zM248 389q0 -222 45 -297.5t156 -75.5 q110 0 156 80t46 291q0 224 -44.5 297.5t-155.5 73.5q-112 0 -157.5 -78t-45.5 -291zM541 1067q0 40 29.5 69t68.5 29q41 0 71 -29t30 -69q0 -42 -29 -71t-72 -29q-41 0 -69.5 28.5t-28.5 71.5z" />
<glyph unicode="&#xf7;" horiz-adv-x="1706" d="M254 553v117h1198v-117h-1198zM739 250q0 48 34 81.5t81 33.5t81 -34t34 -81t-33.5 -81t-81.5 -34t-81.5 33.5t-33.5 81.5zM739 971q0 47 34 80.5t81 33.5q48 0 81.5 -33.5t33.5 -80.5q0 -48 -33.5 -81.5t-81.5 -33.5q-49 0 -82 33.5t-33 81.5z" />
<glyph unicode="&#xf8;" horiz-adv-x="897" d="M66 391q0 178 106.5 292t271.5 114q49 0 89 -7t75 -22l109 197h69l-118 -228q85 -63 127.5 -148.5t42.5 -193.5q0 -178 -113 -299t-281 -121q-49 0 -90.5 10.5t-79.5 30.5l-110 -204h-70l125 237q-77 55 -115 139.5t-38 202.5zM248 393q0 -108 4.5 -166.5t15.5 -88.5 l314 573q-26 24 -60 35.5t-80 11.5q-107 0 -150.5 -77.5t-43.5 -287.5zM305 80q37 -30 71.5 -43.5t74.5 -13.5q112 0 156 79t44 316q0 119 -6 171.5t-20 72.5z" />
<glyph unicode="&#xf9;" horiz-adv-x="1010" d="M43 739v43h45q71 0 124 4.5t95 13.5v-593q0 -103 30 -133.5t112 -30.5q97 0 164 79t67 200v417h-119v43h35q60 0 121.5 5t119.5 14l1 -754h108v-47h-43q-67 0 -120 -4.5t-99 -13.5v170q-44 -82 -119.5 -127t-169.5 -45q-125 0 -180 52.5t-55 174.5v532h-117zM194 1200 q0 31 20.5 50.5t53.5 19.5q20 0 40.5 -12t55.5 -48l289 -299h-67l-330 205q-31 20 -46.5 41t-15.5 43z" />
<glyph unicode="&#xfa;" horiz-adv-x="1010" d="M43 739v43h45q71 0 124 4.5t95 13.5v-593q0 -103 30 -133.5t112 -30.5q97 0 164 79t67 200v417h-119v43h35q60 0 121.5 5t119.5 14l1 -754h108v-47h-43q-67 0 -120 -4.5t-99 -13.5v170q-44 -82 -119.5 -127t-169.5 -45q-125 0 -180 52.5t-55 174.5v532h-117zM301 911 l289 299q35 36 55.5 48t40.5 12q33 0 53.5 -19.5t20.5 -50.5q0 -22 -15.5 -43t-46.5 -41l-330 -205h-67z" />
<glyph unicode="&#xfb;" horiz-adv-x="1010" d="M43 739v43h45q71 0 124 4.5t95 13.5v-593q0 -103 30 -133.5t112 -30.5q97 0 164 79t67 200v417h-119v43h35q60 0 121.5 5t119.5 14l1 -754h108v-47h-43q-67 0 -120 -4.5t-99 -13.5v170q-44 -82 -119.5 -127t-169.5 -45q-125 0 -180 52.5t-55 174.5v532h-117zM186 911 l232 351h118l232 -351h-58l-233 211l-233 -211h-58z" />
<glyph unicode="&#xfc;" horiz-adv-x="1010" d="M43 739v43h45q71 0 124 4.5t95 13.5v-593q0 -103 30 -133.5t112 -30.5q97 0 164 79t67 200v417h-119v43h35q60 0 121.5 5t119.5 14l1 -754h108v-47h-43q-67 0 -120 -4.5t-99 -13.5v170q-44 -82 -119.5 -127t-169.5 -45q-125 0 -180 52.5t-55 174.5v532h-117zM188 1067 q0 40 29.5 69t69.5 29t70 -29t30 -69q0 -42 -29 -71t-71 -29t-70.5 28.5t-28.5 71.5zM569 1067q0 40 29.5 69t68.5 29q41 0 71 -29t30 -69q0 -42 -29 -71t-72 -29q-41 0 -69.5 28.5t-28.5 71.5z" />
<glyph unicode="&#xfd;" horiz-adv-x="899" d="M27 739v43h391v-43h-129l217 -522l201 522h-132v43h287v-43h-102l-367 -966q-44 -117 -92 -169.5t-111 -52.5q-47 0 -78.5 27.5t-31.5 67.5q0 35 22.5 58.5t57.5 23.5q42 0 66.5 -37t33.5 -37q15 0 35 32t45 97l84 221l-301 735h-96zM275 911l289 299q35 36 55.5 48 t40.5 12q33 0 53.5 -19.5t20.5 -50.5q0 -22 -15.5 -43t-46.5 -41l-330 -205h-67z" />
<glyph unicode="&#xfe;" horiz-adv-x="1010" d="M6 1305v40q90 2 167.5 7t141.5 14v-748q28 83 94 132t150 49q164 0 273.5 -118.5t109.5 -297.5q0 -173 -107.5 -289.5t-263.5 -116.5q-86 0 -151.5 37.5t-104.5 108.5v-524h136v-48h-408v48h117v1706h-154zM317 295q0 -120 65 -195t165 -75q112 0 161.5 85.5t49.5 284.5 q0 191 -49.5 275t-159.5 84q-98 0 -165 -84t-67 -213v-162z" />
<glyph unicode="&#xff;" horiz-adv-x="899" d="M27 739v43h391v-43h-129l217 -522l201 522h-132v43h287v-43h-102l-367 -966q-44 -117 -92 -169.5t-111 -52.5q-47 0 -78.5 27.5t-31.5 67.5q0 35 22.5 58.5t57.5 23.5q42 0 66.5 -37t33.5 -37q15 0 35 32t45 97l84 221l-301 735h-96zM162 1067q0 40 29.5 69t69.5 29 t70 -29t30 -69q0 -42 -29 -71t-71 -29t-70.5 28.5t-28.5 71.5zM543 1067q0 40 29.5 69t68.5 29q41 0 71 -29t30 -69q0 -42 -29 -71t-72 -29q-41 0 -69.5 28.5t-28.5 71.5z" />
<glyph unicode="&#x152;" horiz-adv-x="1911" d="M94 684q0 150 44 271t134 219q81 86 171.5 129t193.5 43h1126l9 -328h-48q-13 143 -90 210.5t-225 67.5h-291v-577h10q150 0 216.5 51t66.5 166h43v-506l-43 1q-2 128 -65 185.5t-203 57.5h-25v-623h316q149 0 225 74.5t108 253.5h50l-29 -379h-1139q-256 0 -405.5 184 t-149.5 500zM326 637q0 -327 72 -456.5t247 -129.5q140 0 208.5 82.5t68.5 251.5v584q0 177 -62.5 255.5t-202.5 78.5q-188 0 -259.5 -130t-71.5 -536z" />
<glyph unicode="&#x153;" horiz-adv-x="1460" d="M63 395q0 171 115.5 289.5t284.5 118.5q91 0 159 -33t115 -100q56 66 131 99.5t168 33.5q162 0 253 -88.5t91 -245.5v-14h-561v-127q0 -161 54 -229t178 -68q121 0 198 57.5t97 163.5h43q-19 -126 -113.5 -200.5t-237.5 -74.5q-102 0 -175 37t-124 113 q-48 -76 -119.5 -114t-166.5 -38q-164 0 -277 122t-113 298zM248 410q0 -220 43.5 -303.5t150.5 -83.5q118 0 166.5 80t48.5 282q0 232 -43.5 307.5t-156.5 75.5q-111 0 -160 -83t-49 -275zM820 508h384q0 14 1 33t1 22q0 102 -43.5 154.5t-128.5 52.5q-98 0 -151.5 -65.5 t-62.5 -196.5z" />
<glyph unicode="&#x178;" horiz-adv-x="1251" d="M0 1294v52h545v-52h-172l342 -589l317 589h-201v52h420v-52h-155l-353 -663v-580h175v-51h-556v51h175v582l-390 661h-147zM338 1636q0 40 29.5 69t69.5 29t70 -29t30 -69q0 -42 -29 -71t-71 -29t-70.5 28.5t-28.5 71.5zM719 1636q0 40 29.5 69t68.5 29q41 0 71 -29 t30 -69q0 -42 -29 -71t-72 -29q-41 0 -69.5 28.5t-28.5 71.5z" />
<glyph unicode="&#x2c6;" d="M221 911l232 351h118l232 -351h-58l-233 211l-233 -211h-58z" />
<glyph unicode="&#x2dc;" d="M225 958q19 107 68 160t129 53q17 0 32.5 -2t30.5 -6l111 -30q16 -4 30 -6.5t25 -2.5q37 0 59 20t35 66h54q-20 -103 -68.5 -154.5t-126.5 -51.5q-21 0 -67 10q-4 1 -7 2l-109 27q-19 4 -29.5 6t-18.5 2q-39 0 -60.5 -21t-36.5 -72h-51z" />
<glyph unicode="&#x2000;" horiz-adv-x="963" />
<glyph unicode="&#x2001;" horiz-adv-x="1927" />
<glyph unicode="&#x2002;" horiz-adv-x="963" />
<glyph unicode="&#x2003;" horiz-adv-x="1927" />
<glyph unicode="&#x2004;" horiz-adv-x="642" />
<glyph unicode="&#x2005;" horiz-adv-x="481" />
<glyph unicode="&#x2006;" horiz-adv-x="321" />
<glyph unicode="&#x2007;" horiz-adv-x="321" />
<glyph unicode="&#x2008;" horiz-adv-x="240" />
<glyph unicode="&#x2009;" horiz-adv-x="385" />
<glyph unicode="&#x200a;" horiz-adv-x="107" />
<glyph unicode="&#x2010;" horiz-adv-x="674" d="M88 324v141h498v-141h-498z" />
<glyph unicode="&#x2011;" horiz-adv-x="674" d="M88 324v141h498v-141h-498z" />
<glyph unicode="&#x2012;" horiz-adv-x="674" d="M88 324v141h498v-141h-498z" />
<glyph unicode="&#x2013;" d="M0 346v96h1024v-96h-1024z" />
<glyph unicode="&#x2014;" horiz-adv-x="2048" d="M0 346v96h2048v-96h-2048z" />
<glyph unicode="&#x2018;" horiz-adv-x="512" d="M104 1020q0 94 64 186.5t178 165.5l23 -37q-94 -70 -146.5 -145.5t-52.5 -136.5q0 -29 7.5 -45.5t21.5 -16.5q3 0 31 37t79 37q43 0 71 -28t28 -72q0 -57 -38.5 -92t-101.5 -35q-72 0 -118 51t-46 131z" />
<glyph unicode="&#x2019;" horiz-adv-x="512" d="M104 1245q0 58 37.5 92.5t100.5 34.5q72 0 119 -51.5t47 -130.5q0 -94 -64 -186.5t-178 -165.5l-23 36q93 70 145 145.5t52 137.5q0 30 -7 47t-20 17q-3 0 -31 -38t-79 -38q-43 0 -71 28t-28 72z" />
<glyph unicode="&#x201a;" horiz-adv-x="512" d="M104 84q0 57 37.5 92t100.5 35q72 0 119 -51.5t47 -130.5q0 -94 -64 -187t-178 -166l-23 37q93 70 145 145.5t52 137.5q0 30 -7 45.5t-20 15.5q-3 0 -31 -36.5t-79 -36.5q-43 0 -71 27.5t-28 72.5z" />
<glyph unicode="&#x201c;" horiz-adv-x="961" d="M102 1022q0 94 64 186.5t178 165.5l25 -37q-94 -70 -146.5 -145.5t-52.5 -136.5q0 -29 8 -46.5t21 -17.5q3 0 31 38t79 38q43 0 71 -28t28 -72q0 -57 -38.5 -92t-101.5 -35q-72 0 -119 51t-47 131zM553 1022q0 94 63.5 186.5t178.5 165.5l22 -37q-92 -69 -144 -144.5 t-52 -137.5q0 -30 7 -47t19 -17q3 0 31.5 38t79.5 38q43 0 70.5 -28t27.5 -72q0 -58 -37.5 -92.5t-99.5 -34.5q-73 0 -119.5 51t-46.5 131z" />
<glyph unicode="&#x201d;" horiz-adv-x="961" d="M104 1241q0 58 37.5 92.5t100.5 34.5q72 0 119 -51.5t47 -130.5q0 -94 -64 -187t-178 -165l-23 36q93 70 145 145.5t52 137.5q0 30 -7 47t-20 17q-3 0 -31 -38t-79 -38q-43 0 -71 28t-28 72zM553 1241q0 57 38.5 92t100.5 35q73 0 119.5 -51.5t46.5 -130.5 q0 -94 -63.5 -187t-178.5 -165l-22 36q92 70 144.5 145.5t52.5 137.5q0 29 -8 46.5t-21 17.5q-3 0 -30.5 -38t-78.5 -38q-43 0 -71.5 28t-28.5 72z" />
<glyph unicode="&#x201e;" horiz-adv-x="961" d="M104 84q0 57 37.5 92t100.5 35q72 0 119 -51.5t47 -130.5q0 -94 -64 -187t-178 -166l-23 37q93 70 145 145.5t52 137.5q0 30 -7 45.5t-20 15.5q-3 0 -31 -36.5t-79 -36.5q-43 0 -71 27.5t-28 72.5zM553 84q0 57 38.5 92t100.5 35q73 0 119.5 -51.5t46.5 -130.5 q0 -94 -63.5 -187t-178.5 -166l-22 37q92 70 144.5 145.5t52.5 137.5q0 29 -8 45t-21 16q-3 0 -30.5 -36.5t-78.5 -36.5q-43 0 -71.5 28t-28.5 72z" />
<glyph unicode="&#x2022;" horiz-adv-x="1208" d="M307 762q0 123 87 209t210 86q122 0 208.5 -86.5t86.5 -208.5t-87.5 -209.5t-209.5 -87.5q-123 0 -209 87t-86 210z" />
<glyph unicode="&#x2026;" horiz-adv-x="2048" d="M221 92q0 54 32 86.5t85 32.5q58 0 91.5 -32t33.5 -87q0 -50 -35 -83.5t-86 -33.5q-52 0 -86.5 33.5t-34.5 83.5zM903 92q0 54 32 86.5t85 32.5q58 0 91.5 -32t33.5 -87q0 -50 -35 -83.5t-86 -33.5q-52 0 -86.5 33.5t-34.5 83.5zM1587 92q0 54 32 86.5t85 32.5 q58 0 91.5 -32t33.5 -87q0 -50 -35 -83.5t-86 -33.5q-52 0 -86.5 33.5t-34.5 83.5z" />
<glyph unicode="&#x202f;" horiz-adv-x="385" />
<glyph unicode="&#x2039;" horiz-adv-x="672" d="M152 397q119 97 228 203.5t118 106.5q8 -1 12 -5.5t4 -13.5q0 -20 -52.5 -94t-154.5 -197l36 -45q169 -211 169 -250q0 -8 -4 -14t-10 -6q-13 0 -121 110.5t-225 204.5z" />
<glyph unicode="&#x203a;" horiz-adv-x="672" d="M158 688q0 9 4 13.5t12 5.5q9 0 117.5 -106.5t228.5 -203.5q-117 -94 -225 -204.5t-121 -110.5q-6 0 -10 6t-4 14q0 39 169 250l36 45q-103 123 -155 197t-52 94z" />
<glyph unicode="&#x205f;" horiz-adv-x="481" />
<glyph unicode="&#x20ac;" d="M14 516l13 47h114q-1 14 -1.5 28t-0.5 44q0 19 1 41.5t3 60.5h-129l13 47h120q30 238 150.5 376t298.5 138q70 0 133.5 -25.5t106.5 -70.5l59 55h31v-339h-43q-43 166 -116 250.5t-173 84.5q-118 0 -176 -109.5t-68 -359.5h436l-12 -47h-424q0 -16 -1 -50t-1 -52v-72h385 l-12 -47h-371q8 -265 62.5 -379t171.5 -114q119 0 188.5 71.5t126.5 265.5h39v-360h-43l-59 61q-67 -55 -119 -72.5t-133 -17.5q-183 0 -298.5 146.5t-140.5 398.5h-131z" />
<glyph unicode="&#x2122;" horiz-adv-x="1683" d="M244 1260l12 178h440l11 -178h-25q-8 79 -40.5 115t-96.5 36h-21v-426q0 -23 12 -37t33 -16l31 -2v-27h-248v27l31 2q21 1 33 15.5t12 37.5v426h-20q-64 0 -97 -36t-41 -115h-26zM788 903v27l34 2q21 2 32.5 16t11.5 37v371q0 23 -12.5 37t-34.5 16l-31 2v27h183 l141 -400l148 400h174v-25l-30 -2q-22 -2 -34 -15.5t-12 -37.5v-373q0 -24 12 -37.5t34 -15.5l30 -2v-27h-236v27l31 2q21 2 33 16t12 37v395l-178 -479h-15l-174 479v-395q0 -23 12.5 -37t34.5 -16l31 -2v-27h-197z" />
<glyph unicode="&#xe000;" horiz-adv-x="780" d="M0 0v780h780v-780h-780z" />
</font>
</defs>
</svg>
