<?xml version="1.0" standalone="no"?>
<!DOCTYPE svg PUBLIC "-//W3C//DTD SVG 1.1//EN" "http://www.w3.org/Graphics/SVG/1.1/DTD/svg11.dtd" >
<svg xmlns="http://www.w3.org/2000/svg">
<metadata>
This is a custom SVG webfont generated by Font Squirrel.
Copyright   : NA
</metadata>
<defs>
<font id="webfontVkLnVSAG" horiz-adv-x="944" >
<font-face units-per-em="2048" ascent="1638" descent="-410" />
<missing-glyph horiz-adv-x="342" />
<glyph unicode=" " horiz-adv-x="342" d="M0 0z" />
<glyph unicode="!" horiz-adv-x="524" d="M285 276q-23 0 -11 21q393 952 404 973q12 33 18 43t23.5 19t48.5 9h30h26h22q12 0 19 -1t14.5 -4t10.5 -7t5 -10q4 -10 -70 -160l-438 -821q-4 -6 -8 -15.5t-7 -13.5t-6.5 -10t-5.5 -9t-6 -6t-7 -4t-8 -2.5t-11 -1.5h-43zM135 98q12 43 47 82t74 51q49 16 82 -16.5 t16 -91.5q-29 -109 -110 -139q-51 -20 -90 18.5t-19 95.5z" />
<glyph unicode="&#x22;" horiz-adv-x="522" d="M541 1073l-37 -299h-35l-37 297q0 2 -4 26.5t-7 40t-4 43t1 46t10 37t23 26.5q31 23 69 -4q14 -10 22.5 -29.5t8.5 -48t-1 -50t-5 -51.5t-4 -34zM731 1073l-37 -299h-35l-36 297q0 2 -4.5 26.5l-7.5 40t-4 43t1 46t10.5 37t22.5 26.5q29 20 70 -4q14 -10 22 -29.5t8 -48 t-1 -50t-5 -51.5t-4 -34z" />
<glyph unicode="#" horiz-adv-x="1558" d="M1001 1325q37 0 43 -12q6 -10 -24 -53q-119 -147 -186 -248l-78 -127q74 4 123 4l108 -4q23 35 33 53q123 195 229 303l15 17q6 7 14 11.5t11 7.5t13.5 4t12.5 1h14h17h110q43 0 4 -51q-4 -2 -6 -6l-121 -138q-29 -33 -65.5 -85t-59.5 -89l-24 -34q70 0 190 -15l142 -20 q6 -2 9 -6t1 -7.5t-6 -5.5l-45 -43q-12 -10 -25.5 -11t-54.5 3l-262 23q-61 -84 -111 -183q100 -10 164 -18q135 -25 182 -41q12 -6 0 -16q-33 -29 -41 -35q-25 -14 -61 -6q-53 12 -127 21t-121 13l-47 5l-72 -123q-37 -68 -145 -305l-60 -125l-11 -16.5t-9 -9.5t-14.5 -7 t-24.5 -2h-49q-18 0 -11 28l107 293l119 262q-90 0 -146 -2l-123 -8q-39 -61 -86 -149q-82 -139 -161 -307q-18 -45 -30.5 -62.5t-29.5 -17.5h-63q-23 0 -2 47l98 246l98 223l-344 -35q-12 -2 -15 5t3 17q12 31 20.5 38.5t38.5 11.5l334 45l68 139l33 63l-332 -30 q-25 0 -15 22q27 41 34 46t46 10l314 34q164 264 235 365q51 76 66.5 84t99.5 8h59zM696 803q-37 -57 -55 -92l-59 -105q68 6 110 8q106 4 139 4q12 16 54 89l55 98q-10 0 -54 1t-71 1z" />
<glyph unicode="$" horiz-adv-x="1091" d="M963 1370q35 -4 14 -35l-55 -86q145 -88 127 -231q-6 -66 -52.5 -139.5t-101.5 -85.5q-72 -16 -139 16q-37 14 -8 59q53 74 79 121q2 6 14.5 26.5t16.5 37.5q18 57 -14 57q-10 0 -31 -41q-74 -119 -113 -197l-86 -182q8 -2 46 -13t47.5 -15.5t39 -15.5t41 -22.5t31 -28.5 t30.5 -38.5t19 -50.5q63 -172 -57 -340q-76 -96 -200 -150.5t-218 -50.5q-33 2 -88 10q-2 -4 -37 -57t-41 -63q-6 -6 -13 -17.5t-12 -17.5t-14.5 -11.5t-19.5 -5.5q-33 0 -49 2q-20 2 -2 25q98 133 119 168q-70 29 -127.5 87t-59.5 136q-4 57 30 109.5t93 81.5 q135 61 256 61q10 29 16 43l25 62q-2 0 -32 5l-41 7q-11 2 -36.5 11t-40 20.5t-31 32t-24.5 46.5q-27 74 10 179.5t107 189.5q100 121 230 169t239 32l59 88q15 16 54 12zM754 1110q-84 -27 -177.5 -120t-101.5 -161q-4 -33 12 -63q14 -31 52 -45l88 174q18 39 50 92l54 88z M514 500l-20 -54q23 -27 22 -43q0 -27 -14 -38q-18 -20 -41 -11q-63 -182 -92 -250q150 8 241 117q90 109 66 219q-20 76 -131 123q-21 -38 -31 -63zM385 340q-27 2 -68 -8q-49 -16 -61 -35q-57 -43 -53 -98q2 -12 8 -24.5t13 -20t18.5 -14.5l18.5 -11t19.5 -9t14.5 -5 q25 49 37 80z" />
<glyph unicode="%" horiz-adv-x="1406" d="M1012 1249q47 12 124.5 51t114.5 68q35 -20 88 -20q25 0 88.5 2t65.5 2q12 0 16 -9.5t-4 -17.5q-330 -397 -493 -612l-529 -719q-23 -29 -28 -31q-6 -2 -23 -2h-70q-39 0 -12 41l129 225q131 219 365.5 525.5t355.5 500.5l31 52q-137 -82 -221 -115q0 -4 -4.5 -19.5 t-6.5 -27.5q-106 -322 -354 -414q-158 -63 -250 8q-84 66 -69 170q12 100 94 194.5t203 149.5q98 41 170 47q25 18 36 27q31 23 64 18q105 -12 119 -94zM766 307q59 104 178 181t230 114q106 33 161 4q55 -27 64 -119q6 -86 -36 -181t-128 -173q-197 -182 -365 -147 q-100 20 -137 104q-18 49 -8 106.5t41 110.5zM793 1196q-150 -57 -230 -133q-43 -35 -75.5 -81t-26.5 -75q4 -39 51 -57q31 -12 74 3t78 42q147 111 129 301zM1200 469q-145 -51 -227 -129q-113 -102 -105 -158q8 -37 56 -55q57 -23 151 45q148 113 125 297z" />
<glyph unicode="&#x26;" horiz-adv-x="997" d="M682 809q-35 10 -37 20q-4 23 31 58q33 33 26 59q-6 33 -36 33q-20 0 -55.5 -22.5t-59.5 -51.5q-74 -90 -64 -155q8 -47 60 -48q23 0 96 7q45 4 37 -21q-4 -20 -8 -35q-6 -18 -12.5 -22t-24.5 -8l-38 -7.5t-38 -8.5l-35 -10q-25 -7 -37 -15l-33 -22q-22 -13 -37.5 -30.5 t-33.5 -42t-37 -55.5q-35 -57 -45 -121.5t12 -122.5q35 -80 131 -96q37 -4 92.5 14.5t94.5 55.5q18 20 33.5 60t3.5 71q-25 -12 -32 -16.5t-29.5 -13.5t-34 -9t-28 2t-30.5 10q-37 18 -33 72q4 37 36 77t77 58q90 45 164 25q117 131 235 110q59 -10 82 -67q8 -35 2 -54 q-16 -35 -41 -41q-12 31 -49 46q-37 18 -76 4q-61 -23 -82 -54q20 -47 19.5 -100t-12.5 -86q-31 -98 -112 -161.5t-179 -88.5q-199 -51 -328 72q-55 53 -78.5 125.5t-9.5 142.5q41 184 252 295q-86 55 -80 158q10 172 186 276q49 29 112 37t138 -16q88 -37 99 -131 q16 -82 -33 -131q-29 -20 -66 -27q-32 -4 -55 2z" />
<glyph unicode="'" horiz-adv-x="442" d="M729 1307q8 8 16.5 8t11.5 -6t1 -13l-62 -120q-16 -31 -56 -94.5t-69.5 -88t-78 -51.5t-103.5 -33q-16 -2 -20 14.5t14 22.5q66 27 98 82q23 43 21 90q-6 82 -2 92q14 49 63 58q8 2 23.5 0t21.5 -2q33 0 47 4q37 6 74 37z" />
<glyph unicode="(" horiz-adv-x="638" d="M1016 1384q43 0 63 2q-37 -29 -75 -73q-166 -170 -283 -348q-113 -176 -197 -373q-84 -205 -164 -551q-23 -84 -32 -99.5t-60 -35.5l-49 -19q-20 -10 -36.5 -0.5t-14.5 35.5q6 72 31 166q55 236 122.5 418t186.5 373q152 240 366 450q56 51 142 55z" />
<glyph unicode=")" horiz-adv-x="714" d="M53 -113q-59 -4 -63 -4q20 16 78 74q180 197 280 350q113 176 197 371q86 207 164 553q25 92 39 104q10 12 55 33q33 14 47 16q23 6 38 -2t13 -34q-6 -72 -31 -164q-53 -229 -120.5 -413.5t-188.5 -379.5q-147 -236 -366 -448q-56 -52 -142 -56z" />
<glyph unicode="*" horiz-adv-x="702" d="M879 1264q18 -12 20 -14.5t0 -18.5q-88 -117 -127 -180l162 51q10 4 18.5 2t5.5 -17q-6 -74 -12 -94q-2 -10 -22 -26q-23 -16 -138 -52q33 -35 50 -57l10 -10q6 -6 9 -10t6 -9.5t2 -11.5t-5 -12q-61 -86 -86 -88q-37 -4 -127 96q-2 -4 -12 -34l-26 -74q-15 -45 -25 -72 q-12 -33 -21.5 -39t-30.5 -2q-66 12 -86 24q-25 12 -27.5 22.5t7.5 33.5l16 51l19 59q2 10 7 24.5t7 24.5q-92 -14 -141 -20q-18 -2 -24.5 2t-4.5 16q4 31 16 103q8 41 33 47q10 4 73.5 12t80.5 13q-2 6 -17.5 41.5t-19.5 46.5q-23 55 -2 82q51 59 96 94q18 12 23 0 q12 -23 25.5 -53.5t27.5 -57.5q14 25 35 45q31 39 61 68q45 41 82 24l26 -13q22 -11 36 -17z" />
<glyph unicode="+" horiz-adv-x="940" d="M573 795h109q25 0 12 -31q-4 -14 -16 -35l-96 -182h20q18 0 34.5 2t29 2t24.5 2t20.5 3t18.5 4t14.5 4t13.5 4l12 4q3 1 14.5 5.5t15.5 6.5q12 6 18 2t4 -13q-16 -106 -100 -133q-23 -8 -92.5 -16t-122.5 -6l-70 -142q-47 -98 -62.5 -110t-58.5 -21q-41 -4 -82 -4 q-29 0 -18 27l119 264q-98 18 -209 -2q-23 0 -12 21q49 117 139 124q20 2 50 -1t58.5 -8t36.5 -5q16 29 27 45l80 137q25 41 39 48q12 4 30 4z" />
<glyph unicode="," horiz-adv-x="479" d="M385 250q8 8 16.5 8t11.5 -5t1 -13l-62 -121q-16 -31 -56 -94.5t-69.5 -88t-78 -50t-103.5 -31.5q-16 -2 -20.5 13t14.5 23q66 23 98 80q23 43 21 92q-6 78 -2 91q14 49 63 57q8 2 23.5 0t21.5 -2q31 0 47 4q43 12 74 37z" />
<glyph unicode="-" horiz-adv-x="851" d="M782 610q8 4 14.5 -2t2.5 -12q-33 -92 -69 -118.5t-122 -28.5q-98 -4 -258 18q-82 14 -147 2q-10 -2 -13.5 6t0.5 12q61 145 203 109q35 -10 62 -12q157 -29 327 26z" />
<glyph unicode="." horiz-adv-x="430" d="M137 51q-8 49 27 109.5t90 81.5q31 14 61 -2q35 -23 29 -78q-4 -37 -25.5 -87t-58.5 -75q-43 -29 -78 -10q-35 14 -45 61z" />
<glyph unicode="/" horiz-adv-x="663" d="M909 1362q16 2 27.5 1t19 -5t10.5 -9.5t2 -10.5t-5 -11q-264 -395 -375 -586q-106 -178 -330 -645q-4 -8 -10 -22.5t-9 -18.5t-8.5 -14t-8.5 -12t-10 -8.5t-14.5 -7.5t-16.5 -3t-21 -2q-25 -2 -47.5 -2t-10.5 37q20 74 48 145q106 287 200 490t244 434l102 154 q47 63 62.5 72.5t83.5 15.5l37 5q22 3 30 3z" />
<glyph unicode="0" d="M246 174v952l168 174h381l170 -174v-954l-170 -172h-381zM512 1059v-817h184v817h-184z" />
<glyph unicode="1" d="M612 1300h201v-1300h-268v1059h-154v176z" />
<glyph unicode="2" d="M233 907v219l168 174h381l168 -174v-352l-450 -434v-98h456v-242h-733v459l459 440v160h-182v-152h-267z" />
<glyph unicode="3" d="M403 0l-167 174v236h266v-168h182v286h-182v260h182v271h-182v-152h-266v219l167 174h381l168 -174v-323l-155 -146l155 -151v-334l-168 -172h-381z" />
<glyph unicode="4" d="M205 242l-101 247l463 811h289v-825h113v-233h-113v-242h-266v242h-385zM590 881l-219 -400h219v400z" />
<glyph unicode="5" d="M258 422h266v-180h185v319h-267l-184 187v552h633v-241h-367v-236h250l203 -207v-444l-168 -172h-381l-170 174v248z" />
<glyph unicode="6" d="M240 1126l170 174h381l167 -174v-237h-268v170h-184v-279h270l182 -168v-440l-167 -172h-381l-170 174v952zM506 522v-280h184v280h-184z" />
<glyph unicode="7" d="M342 932v368h834l-459 -1300h-275l371 1059h-203v-127h-268z" />
<glyph unicode="8" d="M233 1126l168 174h381l168 -174v-317l-125 -145l125 -136v-356l-168 -172h-381l-168 174v354l140 136l-140 145v317zM500 1059v-277h182v277h-182zM500 528v-286h182v286h-182z" />
<glyph unicode="9" d="M948 174l-168 -174h-381l-168 174v238h267v-170h182v278h-268l-181 168v440l168 172h381l168 -174v-952zM680 778v281h-182v-281h182z" />
<glyph unicode=":" horiz-adv-x="600" d="M135 51q-8 49 23.5 107.5t87.5 81.5q41 14 69 0q47 -27 33 -86q-33 -113 -90 -154q-43 -29 -76 -10q-37 14 -47 61zM324 465q-6 49 25.5 107.5t84.5 78.5q41 14 70 0q51 -27 33 -84q-31 -109 -88 -153q-43 -27 -78 -11q-37 15 -47 62z" />
<glyph unicode=";" horiz-adv-x="493" d="M264 465q-6 49 24.5 107.5t84.5 78.5q43 14 71 0q49 -27 31 -84q-27 -111 -88 -153q-43 -27 -78 -11q-35 13 -45 62zM397 250q14 12 24.5 7t6.5 -17q-106 -207 -158 -269q-88 -102 -213 -116q-16 -2 -19 13t13 23q72 27 99 80q23 43 20 92q-6 78 -2 91q14 49 65 57 q6 2 21.5 0t21.5 -2q31 0 48 4q40 10 73 37z" />
<glyph unicode="&#x3c;" horiz-adv-x="980" d="M182 449v190l776 289v-176l-593 -209l593 -209v-174z" />
<glyph unicode="=" horiz-adv-x="1005" d="M827 651q6 4 12.5 -2t2.5 -10q-33 -92 -67 -116.5t-124 -35.5q-176 -12 -372 29q-57 10 -150 -4q-10 -2 -13 6t1 12q25 57 63.5 85t72.5 27t69 -1q8 0 85.5 -9t90.5 -9q159 -23 329 28zM803 477q8 4 14 -2t2 -12q-33 -90 -66.5 -114.5t-123.5 -33.5q-51 -6 -165 1.5 t-206 25.5q-61 12 -154 -4q-8 -2 -11 5t-1 13q25 57 64 85t73.5 27t67.5 -1q12 -2 51 -6l80 -8q41 -4 45 -4q162 -23 330 28z" />
<glyph unicode="&#x3e;" horiz-adv-x="980" d="M979 639v-190l-776 -289v174l594 209l-594 209v176z" />
<glyph unicode="?" horiz-adv-x="972" d="M623 293q-16 -6 -21.5 -1t-1.5 15q41 131 141 246l117 131q119 133 165 224t19 192q-25 90 -143 117q-59 18 -147 0.5t-138 -66.5q-55 -59 -45 -139q8 -45 52 -66q16 -4 19 -14t-11 -23q-53 -35 -84 -41q-45 -10 -78 35q-59 88 -39 180q31 139 195 217q86 37 209.5 33 t205.5 -45q74 -39 110 -86t46 -125q18 -160 -244 -426q-43 -37 -65 -65q-51 -59 -97 -144q-8 -14 -17 -35l-13 -31q-4 -9 -13.5 -22.5t-22.5 -21.5t-34 -17q-28 -14 -65 -22zM524 49q-8 47 25 105.5t86 81.5q39 14 67 0q51 -31 33 -86q-33 -113 -90 -154q-41 -29 -76 -10 q-39 14 -45 63z" />
<glyph unicode="@" horiz-adv-x="1638" d="M1190 125q-53 20 -76.5 52t-34.5 91q-98 -162 -256 -157q-61 0 -121.5 29.5t-95.5 90.5q-45 88 -38 190.5t57 199.5q51 100 140 163.5t179 69.5q162 8 219 -127l31 100h197l-103 -370q-57 -182 -22 -217q23 -23 84 -17q115 23 186 193q47 98 40 235t-79 238 q-82 115 -228.5 162t-269.5 45q-375 -27 -553 -348q-74 -133 -77.5 -312.5t65.5 -312.5q78 -141 216 -212t286 -77q272 -18 557 156l43 -68q-229 -145 -491.5 -175t-452.5 67q-178 86 -269.5 236.5t-105.5 324.5q-16 178 56.5 354t250.5 305q168 119 411 141.5t408 -55.5 q272 -117 318 -422q16 -117 -28 -270.5t-152 -239.5q-63 -49 -145.5 -68.5t-145.5 5.5zM969 741q-74 -25 -131.5 -182.5t-59.5 -232.5q0 -72 53 -101q51 -23 99 0q72 33 121 165t59 220q12 84 -35 117q-18 16 -53 19t-53 -5z" />
<glyph unicode="A" horiz-adv-x="1273" d="M1475 985l-211 -387q33 4 50 4q11 0 15 -2q27 -10 31 -45q4 -39 -14 -57q-23 -23 -150 -35q-2 -4 -13 -24l-19 -32l-20 -38l-23 -44l-19 -43q-10 -24 -16.5 -43.5t-10.5 -38t-3 -32.5t7 -25q16 -28 50 -27q6 0 14 1q37 4 139 98t135 143v-84q-4 -8 -42 -51l-50 -57 q-23 -25 -82 -76t-86 -67q-66 -41 -123 -42q-36 0 -69 17q-47 25 -75 78t-32 104q-1 8 -1 18q0 90 75 238q-72 -6 -115 -10q-27 -2 -68.5 -6l-70.5 -7t-43 -3q-25 -49 -78 -181l-90 -215q-4 -23 -12 -27q-3 -2 -8 -2q-7 0 -17 5q-33 6 -91 25.5t-73 37.5q-8 10 1 39t38 88 l35 72q14 31 43 83t31 56q-15 -2 -33 -1q-27 0 -59 3q-75 16 -75 64q0 18 13 49q16 39 53 76q45 -23 117 -23q24 0 51 2q27 0 47 4q8 8 21 29l14 20l60 82q68 98 211 269l43 47q70 76 142.5 141.5t178.5 122.5q85 46 153 46q17 0 33 -3q47 -8 97.5 -41t70.5 -80q3 -7 3 -18 q1 -54 -80 -195zM889 582q102 4 119 4q2 4 35 57l55 86l124 200l101 165q37 56 37 74q0 26 -49 26h-2q-88 0 -280 -230q-194 -232 -281 -389q75 5 141 7z" />
<glyph unicode="B" horiz-adv-x="1261" d="M891 1270q39 -39 78 -111q151 131 286 131q41 0 80 -12q106 -31 138 -141q5 -19 5 -43q0 -42 -18 -97q-27 -84 -74 -135q-158 -174 -333 -200q199 -80 204 -250q0 -7 1 -13q0 -90 -53 -186q-56 -102 -171 -172q-106 -70 -226 -87q-30 -4 -58 -4q-88 0 -170 40 q-33 14 -66 51q-12 12 -23.5 29.5t-18.5 25.5t-15 8q-18 0 -49 -45q-49 -72 -64 -79q-4 -3 -13 -3q-20 0 -61 13l-50 16t-27.5 13.5t-24.5 21.5q-7 8 -7 20.5t7 28.5q14 33 55 103q14 23 23 36l446 775q64 103 64 145q0 8 -2 14q-6 20 -37 25h-3q-47 0 -134 -78 q-68 -61 -150 -213q-4 -18 -24 -4q-59 43 -59 85q0 11 3 21q23 88 113 192.5t194 135.5q41 11 79 11q91 1 155 -68zM807 698q135 33 273.5 128.5t189.5 220.5q15 32 15 55q0 17 -9 28q-16 25 -53 26q-5 0 -11 -1q-84 -6 -216 -144.5t-212 -287.5q-8 -14 -1.5 -20.5 t24.5 -4.5zM627 180q-4 -14 -5 -26q0 -40 46 -66q24 -13 55 -13q36 0 82 17q88 43 143.5 115t67.5 151q4 24 4 45q0 72 -43 113q-54 51 -124 51q-19 0 -40 -4q-61 -12 -122.5 -61t-92.5 -123q39 6 97 9q12 1 23 1q44 0 77 -10q31 -14 30 -53q0 -31 -26 -35q-66 -10 -97 -29 q-57 -33 -75 -82z" />
<glyph unicode="C" horiz-adv-x="913" d="M801 936q33 72 67 162q9 22 10 36q0 23 -26 23q-6 0 -12 1q-53 0 -105 -34q-100 -74 -196.5 -243.5t-145.5 -340.5q-38 -132 -38 -218q0 -25 3 -46q25 -123 103 -143q10 -3 22 -3q33 0 78 26q61 35 106.5 74.5t112.5 107.5q31 31 62 68q41 45 57 49q18 4 45 -17 q14 -14 6 -30q-51 -137 -158.5 -265.5t-242.5 -171.5q-33 -10 -68 -10q-48 0 -99 20q-89 34 -149 119q-66 96 -75 230q-3 35 -3 69q0 95 21 182q29 118 82 232q35 76 80 152.5t109.5 160.5t146.5 139.5t164 63.5q19 2 37 3q135 0 229 -132q16 -20 25.5 -40.5t9.5 -47.5 q0 -11 0.5 -25t0.5 -19q0 -14 -9 -43q-10 -32 -12.5 -39t-18.5 -45t-16 -40l-17 -39q-10 -25 -14 -33l-12 -25q-8 -17 -13.5 -22.5t-14.5 -15.5t-17.5 -13l-21.5 -7.5t-28.5 -6.5t-36.5 -2q-9 -1 -17 0q-55 0 -73 23q-1 2 -1 6q0 28 63 170z" />
<glyph unicode="D" horiz-adv-x="1259" d="M795 8q-24 -3 -50 -3q-132 0 -317 87l-51 -26l-51 -25q-39 -18 -61 -25l-53 -15q-29 -8 -51 -8h-5q-25 1 -47 9q-66 27 -78 90q-1 8 -1 16q0 54 48 97q37 37 122 47q33 4 60 4q45 0 78 -10q68 86 121 178q33 59 68.5 153.5t56.5 139.5q78 172 158.5 270t240.5 176 q-55 30 -134 30q-17 0 -36 -1q-102 -8 -180 -55q-189 -111 -189 -332v-23q0 -20 7 -51q4 -31 -9 -41q-9 -7 -21 -7q-20 0 -48 19q-41 25 -60 62q-23 48 -23 109q0 25 4 53q13 94 58 151q164 227 443 242q12 1 24 1q110 0 233 -50q136 -55 220 -178q66 -96 77 -237 q4 -44 3 -86q0 -90 -17 -168q-25 -114 -65 -206q-151 -346 -475 -387zM1061 1100q-57 -49 -97 -103.5t-58.5 -91.5t-57.5 -125q-119 -279 -295 -551l-18 -28q66 -39 116 -46q16 -2 33 -3q40 0 90 12q223 57 326 366q29 82 42 179q6 43 6 89q0 57 -9 121q-17 113 -78 181z " />
<glyph unicode="E" horiz-adv-x="919" d="M850 821q29 0 22 -24q-6 -33 -16 -58q-18 -51 -31 -51q-127 -6 -261 -66.5t-210 -183.5q-47 -79 -47 -148q0 -48 23 -91q37 -84 129 -95q8 -1 15 0q101 0 204 127q86 100 86 159q0 9 -2 18q-8 29 -43 38l-18 2l-109 -55q-16 -14 -60 -71q-4 -6 -12 -16.5l-13 -17.5 l-11 -16q-6 -8 -11.5 -12t-9.5 -4q-16 -2 -29 12q-15 12 -14 38q0 14 4 32q35 141 203 203q33 17 100 17h7q73 -1 108 -30q69 -52 69 -129q0 -10 -1 -20q-25 -223 -254 -361q-78 -47 -181 -51h-17q-92 0 -163 39q-164 92 -178 273q-2 23 -2 44q0 216 168 345q117 90 268 123 q-70 35 -101 107q-23 52 -23 105q0 20 3 41q33 197 238 289q76 32 146 33q89 0 167 -53q68 -47 91 -87q15 -26 16 -62q0 -19 -4 -40q-8 -37 -34 -96t-50 -74q-12 -6 -42 -6q-11 0 -25 1q-50 3 -66 12q-45 16 -31 45q0 2 28.5 51t36.5 80q3 8 3 16q0 25 -29 43q-14 5 -29 5 q-29 0 -63 -17q-66 -37 -111 -92.5t-47 -110.5q-1 -7 -1 -15q0 -26 11 -56q14 -38 49 -62q20 -14 92 -23q50 -4 62 -4z" />
<glyph unicode="F" horiz-adv-x="1171" d="M1432 1356q36 -4 73 -4q112 0 236 32q-49 -106 -113.5 -149t-175.5 -59q-54 -6 -102 -6.5t-90 6.5q-92 -94 -136.5 -167t-83.5 -186q53 0 68 6q18 14 51 68q20 31 42 42t59 9q20 0 29 -2t19.5 -5t7.5 -10t-5 -20l-21 -32q-2 -2 -29 -48l-52 -83q-24 -39 -53.5 -99.5 t-43.5 -109.5q-6 -25 -22 -25q-70 0 -86 12q-14 14 0 54q20 68 34 98h-30q-4 -2 -13.5 -4t-13.5 -2l-96 -205q-106 -229 -154 -297q-109 -158 -282 -193q-24 -4 -50 -3q-49 0 -103 13q-83 19 -134 79q-68 72 -68 179q0 42 10 89q16 59 70.5 128.5t128.5 88.5q15 6 40 6 q15 0 33 -2q48 -6 73 -31q23 -28 23 -53q0 -14 -12 -21t-44 -16q-129 -31 -176 -127q-10 -16 -10 -50v-18q3 -48 26 -77q37 -58 107 -58h14q78 8 140.5 77t121.5 208q61 156 76 207q-50 -12 -87 -12q-59 0 -83 30q-14 18 -17 43q-2 27 9.5 36t29.5 7q100 0 162 27 q10 4 19.5 10t18.5 14.5t15 12.5t15.5 16.5t12.5 17.5l12 20q9 15 11.5 18.5t12.5 23t12 21.5q2 4 8 14t8 16q10 20 20.5 36t18 29t17.5 28l16 22q6 8 20.5 23.5t19.5 22.5t25.5 26.5t29 29t35.5 35.5l42 41q-118 35 -213 35q-140 0 -227 -76q-100 -82 -101 -162 q0 -46 33 -57q23 -14 52 2q14 8 21 16.5t15.5 23.5t10.5 20q28 56 57 55h6q39 -2 39 -55v-11q0 -39 -29 -86q-57 -88 -160 -88h-10q-111 4 -155 101q-20 44 -21 101q0 18 2 37q8 81 49 138q143 196 486 196q68 0 145 -8z" />
<glyph unicode="G" horiz-adv-x="1017" d="M1029 1001q67 67 67 102q0 8 -4 15q-12 14 -39 33q-16 10 -41 12q-11 2 -23 2q-31 0 -63 -12q-129 -51 -260 -209t-209 -314.5t-95 -254.5q-5 -31 -5 -58q0 -86 55 -135q44 -32 90 -32q25 0 51 10q88 31 156.5 121t89.5 182l-64 -14q-101 -26 -143 -27q-20 0 -27 6 q-20 16 -12 59q8 37 32.5 78t59.5 58q27 10 225 18q99 4 156 4t72 -4q27 -6 31 -23q2 -5 2 -15q0 -20 -7 -58q-4 -16 -37 -23l-124 -26q35 -47 35 -77v-3q0 -29 -23 -80q-80 -164 -173 -244t-235 -102q-39 -7 -71 -8q-40 0 -70 12q-53 20 -129 102q-98 111 -124 206 q-11 40 -11 85q0 61 20 129q39 137 125 294t231.5 303.5t303.5 195.5q48 19 108 18q32 0 68 -5q102 -15 176 -77q80 -73 80 -149q0 -13 -2 -27q-4 -39 -58 -123q-37 -70 -94 -117q-10 -14 -39 -10q-51 0 -104 25q-31 12 -31 48q0 25 83 109z" />
<glyph unicode="H" horiz-adv-x="1159" d="M977 1092q-18 -78 -88 -242q-45 -102 -133 -260q14 0 57 3t59 1l357 516q94 137 145 169q39 24 117 24q25 0 55 -3q45 -6 49 -26q0 -6 -49 -70q-68 -82 -106 -133q-213 -276 -295 -405q-8 -12 -22.5 -38t-20.5 -34q8 0 46 1t42 1h3q34 0 46 -43q3 -15 3 -28 q0 -26 -13 -44q-14 -16 -127 -20q-20 -2 -54 -4t-42 -2l-11 -17q-12 -14 -25.5 -33.5t-21.5 -33.5q-47 -82 -63 -125q-18 -45 -18 -74q0 -13 3 -24q12 -32 43 -42q16 -3 31 -3q22 0 43 8q68 23 161 103.5t152 152.5v-88q-113 -135 -238 -219q-110 -72 -195 -72q-13 0 -25 2 q-96 8 -137 94q-18 35 -24 68q-1 9 -1 19q0 26 9 56q13 43 21.5 63.5t34.5 78.5q6 14 11 22l32 58q-90 -6 -137 -15q-88 -135 -233 -321q-78 -94 -90 -105q-13 -8 -43 -8q-21 0 -52 4q-14 2 -20 2q-103 12 -103 51q0 24 52 74q166 170 231 281q-59 -3 -103 -4q-36 0 -62 3 q-56 5 -66 29q-3 9 -3 19q0 29 23 67q12 18 22.5 26.5t18.5 9.5t31 1q35 2 138.5 5t127.5 5q41 61 121 215q147 270 147 358q0 14 -4 23q-14 31 -57 35q-3 0 -7 1q-71 0 -159 -122q-18 -23 -57 -88q-35 -61 -49 -65q-4 -2 -9 -2q-41 0 -73 18q-4 2 -7.5 6t-4.5 9.5t-2 8.5 t1 9l4 9l4 11.5t3 10.5q29 92 112.5 184t173.5 123q35 12 71 12q77 0 155 -55q98 -65 98 -149q0 -16 -4 -33z" />
<glyph unicode="I" horiz-adv-x="976" d="M1300 1249q11 -23 12 -37q0 -12 -7 -18q-57 -55 -96.5 -108.5t-55.5 -87.5l-55 -119q-33 -74 -51 -123q45 8 100 22q41 14 51 4q12 -6 14 -28.5t-10 -32.5q-49 -35 -219 -100l-68 -158l-51 -117q-18 -41 -60 -115.5t-79 -116.5t-93.5 -81t-115.5 -47q-27 -4 -53 -5 q-130 0 -225 111q-14 12 -15 25q0 10 10 20q33 33 55 33q12 0 21 -10q46 -52 105 -52q24 0 51 9q51 18 119.5 128.5t105.5 196.5t60 148q-164 0 -242 121q-31 47 -33 119v12q0 66 23 121q78 195 374 280q68 18 223 41q85 12 130 12q37 0 49 -8q1 -2 26 -39zM1059 1178h-17 q-107 0 -207 -48q-108 -51 -169 -151q-25 -47 -29 -103q-1 -8 -1 -16q0 -47 21 -86q36 -64 134 -64q9 0 18 1q4 10 24.5 55t25.5 57.5t23.5 51t29 55t30 50.5t34.5 55l38 51q23 30 47 57q9 9 9 19q0 6 -3 10q-4 6 -8 6z" />
<glyph unicode="J" horiz-adv-x="985" d="M1419 1229q0 -55 -14 -64q-18 -12 -115 -14l-383 -872q-63 -139 -125.5 -208t-179.5 -87q-18 -3 -38 -3q-56 0 -124 21q-92 29 -161 102q-71 76 -71 162q0 23 5 47q4 23 13.5 48.5t22.5 54t17 39.5q-55 0 -57 24q-1 6 -1 12q0 38 22 78q26 47 59 55.5t155 14.5 q74 4 121 4q31 0 49 -2q39 -6 39 -61q0 -76 -30 -97q-27 -16 -99 -16q-47 -68 -73 -145q-14 -42 -15 -76q0 -28 10 -49q21 -54 78 -54h8q72 2 124.5 67.5t113.5 219.5l293 709q-10 0 -52 -1t-46 -1q-47 2 -63.5 9t-24.5 25q-6 18 -6 36q0 31 18 63q23 37 106 37q330 4 342 4 h9q48 0 63 -21q10 -12 10 -61z" />
<glyph unicode="K" horiz-adv-x="1142" d="M928 758l-21 -43q76 23 161 99.5t146 170.5l48 68q76 113 136 174t134 69q12 2 23 2q54 0 100 -41q43 -35 51 -88q-45 -14 -78 -30.5t-92 -66.5t-131 -132l-57 -72q-190 -227 -463 -311q76 -37 104 -89q24 -43 24 -112q0 -15 -1 -30q-1 -19 -1 -37q0 -111 23 -127 q27 -14 49 -2q25 10 96.5 88t90.5 104v-86q-8 -12 -49 -60t-64 -69q-102 -98 -143 -125q-42 -27 -78 -26q-22 0 -43 10q-53 29 -67 88q-12 51 -11 135v27q2 16 3 44q1 34 1 52q0 32 -13 60q-15 32 -36 47q-236 -354 -281 -410q-20 -29 -35.5 -36t-48 -5t-75.5 19.5t-54 43.5 q-5 8 -5 19q0 5 1 11q2 9 4.5 16.5t8.5 17.5l11 18q5 8 15 22l18 22l21 27q14 17 23 30q33 39 47 61q160 219 252 391q55 100 131 269q2 6 11 26l13 30l12 27q7 17 9 28t4 24.5t1 25t-5 19.5q-16 31 -53 39q-5 1 -10 0q-39 0 -89 -41q-94 -84 -168 -275q-37 10 -61 43 q-16 33 -17 73q0 62 49 140q50 82 111 136q53 47 129 63q36 8 68 8q36 0 67 -10q121 -27 160 -125q12 -28 12 -67q0 -125 -118 -371z" />
<glyph unicode="L" horiz-adv-x="1316" d="M1284 625q-115 -47 -280 -62l-175 -313q147 -129 291 -129q92 0 183 53q23 12 65.5 45t63.5 55v-90l-64 -61q-94 -74 -131 -94q-57 -33 -121 -39q-31 -3 -57 -3t-47 3q-57 8 -145.5 50t-141.5 81q-82 -74 -183 -106q-55 -17 -105 -17q-42 0 -81 12q-109 37 -125 113 q-5 20 -4 38q0 64 54 120q79 81 205 81q74 0 165 -28l144 274q-179 109 -179 288v19q4 76 49.5 144.5t110.5 103.5q68 31 82 33q29 10 43 -18q12 -37 -4 -43q-135 -57 -168 -189q-7 -27 -7 -53q0 -69 48 -127q29 -37 70 -59l98 182q213 393 432 422q20 3 42 3q35 0 74 -8 q62 -13 105 -55q43 -39 56 -113q6 -35 5 -63q0 -32 -7 -55q-35 -145 -119 -238.5t-242 -156.5zM1051 670q59 0 125 18q270 78 362 352q11 36 11 65q0 40 -21 66q-32 34 -73 34q-6 0 -13 -1q-156 -14 -303 -340q-70 -149 -88 -194zM588 221q-55 18 -80 21q-27 4 -50 4 q-67 0 -102 -35q-17 -19 -17 -43q0 -29 26 -44q23 -13 47 -13q53 0 92 24.5t84 85.5z" />
<glyph unicode="M" horiz-adv-x="1579" d="M1030 1290q53 -39 84 -116l4 -17q61 80 144 130q48 30 96 30q33 0 65 -14q86 -37 86 -185q111 108 221 108q29 0 58 -7q70 -14 86 -64q3 -8 3 -18q0 -53 -71 -168l-172 -289l-204 -371q-20 -35 -39 -92q-7 -26 -7 -45q0 -46 37 -57q16 -6 33 -7q36 0 72 31 q129 100 205 213v-86q-82 -111 -189 -201q-102 -87 -192 -88h-9q-94 4 -143 89q-25 41 -25 95q0 95 76 230l131 232l185 301q24 39 24 59q0 6 -2 10q-16 27 -49 13q-29 -14 -55 -41q-47 -47 -86 -111q-264 -371 -432 -692q-53 -90 -62 -109q-8 -16 -14 -25.5t-12.5 -15.5 t-12.5 -8t-14 -3t-18.5 0t-24.5 -1q-31 -2 -51.5 -1t-33.5 6t-24 20q-4 6 -5 15t3 22l9 26q4 12 13 28.5t15 29t17 29.5l16 28q57 104 303 514l209 336q29 47 29 67q0 12 -12.5 17.5t-24.5 3.5q-29 -4 -53 -25q-6 -6 -36 -33.5t-42 -40.5q-70 -74 -121 -163l-232 -406 l-163 -299q-61 -119 -89 -148.5t-92 -31.5q-82 0 -98 29q-4 7 -4 16q0 14 8 35q14 35 53 106q6 12 11 19l426 790q66 122 66 162q0 8 -3 12q-20 39 -78 39h-2q-97 0 -198 -166q-23 -35 -62 -110q-2 -4 -9 -20.5t-13.5 -24t-14.5 -2.5q-60 24 -59 91q0 18 4 40q20 82 100 170 t166 123q43 16 92 24q25 4 51.5 4t55.5 -4q57 -8 96 -37z" />
<glyph unicode="N" horiz-adv-x="1323" d="M1055 1288q43 -47 49 -119q162 152 288 152q22 0 42 -4q47 -8 108.5 -42t75.5 -81q0 -20 4 -27q1 -2 1 -5q0 -8 -6 -24q-9 -24 -10 -32t-13.5 -32.5t-16.5 -31t-16.5 -29t-14.5 -26.5l-372 -649q-58 -95 -59 -162q0 -8 1 -16q2 -43 47 -54q10 -2 21 -2q51 0 112 58 q131 119 183 190v-86q-94 -125 -205 -208q-108 -81 -214 -81h-5q-98 4 -135 66q-25 39 -31 81q-2 14 -2 28q0 29 8 60q12 46 29.5 84t46.5 91l368 653q25 53 25 64q0 40 -55 43h-2q-41 0 -128 -91q-89 -93 -130 -155q-113 -164 -179 -268q-57 -94 -130.5 -237.5 t-118.5 -239.5l-46 -97q-20 -41 -37.5 -50t-54.5 -9q-123 0 -135 18q-5 8 -5 21q0 8 2 17q3 13 6 24.5t11.5 29t14.5 28.5l17 32q11 20 16 31l426 796q18 27 40 80q15 36 14 59q0 11 -3 19q-23 39 -72 41q-7 1 -14 1q-36 0 -65 -18q-34 -22 -85 -81q-18 -25 -69 -101 l-37 -59q-12 -23 -22.5 -30t-14.5 -5t-12 10q-39 43 -47.5 61.5t4.5 59.5q35 88 151.5 190.5t212.5 125.5q25 8 57 8q30 0 65 -7q73 -16 116 -63z" />
<glyph unicode="O" horiz-adv-x="1077" d="M1174 764q-20 -131 -107 -293q43 12 113 76q21 21 40 21q11 0 21 -7q23 -16 23 -30q0 -8 -7 -15q-109 -121 -251 -143l-64 -84q-250 -317 -416 -318h-2q-135 4 -211 121q-63 100 -62 241q0 185 109 439q78 174 234 350t299 205q37 7 70 7q117 0 200 -83q63 -61 63 -154 q0 -22 -3 -46q-12 -57 -39 -105q2 -21 1 -43q1 -62 -11 -139zM1079 1069q-14 70 -39 90q-17 15 -51 15h-16q-80 -10 -182.5 -135.5t-180.5 -276.5q-171 -319 -171 -475q0 -47 16 -80q29 -63 102 -64h4q118 0 285 248q-49 31 -82 92q-30 60 -30 141q0 41 7 87q23 137 99 245 q83 117 195 117q21 0 44 -4zM891 461q149 253 149 402q0 17 -2 32q-8 49 -32 61q-10 5 -20 5l-34 -13q-55 -35 -88 -123t-39 -184q-1 -18 -1 -35q0 -34 5 -61q31 -64 62 -84z" />
<glyph unicode="P" horiz-adv-x="1015" d="M717 1292q129 -41 172 -145q74 76 145 106q35 15 74 15q42 0 88 -17q80 -29 94 -110q6 -36 6 -74q0 -147 -89 -324q-112 -221 -285 -370q-63 -55 -166 -86q-61 -18 -108 -19q-31 0 -56 8q-70 23 -113 93l-137 -211l-84 -127q-27 -29 -46 -35q-15 -5 -46 -5q-10 0 -23 1 q-61 4 -84 43q-4 8 -6 15q-1 5 -1 11q0 7 2 21q1 6 7.5 17.5t8.5 16.5t10 19.5t12 20.5l494 786q39 59 62 116q16 39 17 62q0 10 -3 17q-8 31 -48 37q-6 1 -11 0q-57 0 -107 -54q-35 -37 -148 -211q-16 -23 -28.5 -19.5t-43.5 30.5q-29 18 -28 55q0 35 60 120q62 87 108 126 q66 59 145 78q34 8 67 9q45 -1 89 -16zM985 1069q-33 -16 -63.5 -54t-92.5 -126l-155 -219q-91 -128 -92 -165q0 -4 2 -7q6 -23 57 -37q14 -4 27 -4q47 0 98 43q94 78 198.5 264t104.5 254q0 33 -29 51q-12 8 -26 8t-29 -8z" />
<glyph unicode="Q" horiz-adv-x="1042" d="M907 242l-47 -66q30 -6 58 -6q69 0 118 37q-6 -63 -37.5 -126t-78.5 -79q-28 -10 -57 -10q-55 0 -113 37q-77 -56 -148 -56q-43 0 -84 21q-22 -8 -46 -8q-26 0 -53 9q-54 17 -89 71q-68 96 -74 252q-1 24 -1 47q0 131 30 252q35 142 92 260q86 174 209 302t270 130 q178 0 256 -152q54 -109 54 -240q0 -286 -259 -675zM688 217q141 236 205 395q108 268 108 405q0 58 -20 93q-29 51 -80 57q-6 0 -11 1q-68 0 -134 -70q-174 -186 -252 -462q-49 -174 -49 -319q0 -84 16 -157q45 43 110 55q35 7 64 7q23 0 43 -5z" />
<glyph unicode="R" horiz-adv-x="978" d="M1223 819q-49 -78 -110.5 -135t-138.5 -93t-116 -50.5t-115 -34.5q39 -33 57.5 -68t20.5 -56q1 -11 1 -28.5t-1 -41.5q-2 -48 -2 -72q4 -68 49 -84q13 -5 30 -6q35 0 87 24q92 43 115 62v-56l-80 -65q-156 -124 -257 -124q-16 0 -30 3q-49 12 -82 48t-30 89 q0 16 -1.5 76.5t-1.5 68.5q0 133 -14 152q-18 25 -55 18q-14 -4 -29.5 -17t-33.5 -45l-25 -47q-8 -15 -29 -61l-104 -210q-14 -33 -20.5 -42.5t-21 -15.5t-46.5 -8h-13q-28 0 -61 7q-41 9 -53 28q-7 19 -7 36q0 13 4 24q9 28 52 112l18 35l355 706q55 112 55 156q0 8 -2 14 q-12 57 -65 57q-8 0 -17 -1q-51 -8 -96 -64.5t-105 -161.5q0 -2 -6 -11t-9 -13t-10.5 -9.5t-15.5 -5.5q-33 0 -47 47q-6 19 -6 40q0 59 51 134q135 197 305 197h11q164 -10 241 -139q116 145 251 145q23 0 46 -4q109 -23 158 -131q23 -53 23 -120q0 -30 -5 -62 q-14 -107 -69 -197zM623 645q6 -20 34 -20q9 0 19 2q41 12 69 24q39 16 91 54q51 33 115.5 95t90.5 103q39 49 57 111q8 30 8 55q0 27 -9 49q-27 55 -78 56h-6q-34 0 -70 -23q-39 -25 -76 -76t-50 -73l-40 -66l-55 -100z" />
<glyph unicode="S" horiz-adv-x="1058" d="M827 1118q-66 -47 -127 -115.5t-63 -117.5q-1 -13 -1 -25q0 -100 79 -112q6 -2 52 -8.5t69.5 -12.5t62.5 -20.5t69.5 -41t53.5 -63.5q41 -63 43 -160v-12q0 -89 -29 -151q-104 -242 -385 -285q-32 -5 -65 -5q-69 0 -144 20q-111 30 -184 120q-33 39 -43 90q-4 21 -4 40 q0 26 8 48q27 68 97.5 117t150.5 68q25 11 87 11h10q71 -1 93 -28q27 -33 22 -54.5t-28 -23.5q-6 0 -43 -3t-52 -5t-47 -9t-50.5 -18.5t-40 -31t-35.5 -45.5q-14 -24 -14 -47q0 -20 12 -37q41 -63 129 -68h14q66 0 142 35q84 39 135 113q50 76 50 147q0 37 -13 72 q-8 25 -24.5 43t-29 29.5t-42.5 21.5l-41 14q-11 4 -50 11.5t-45 9.5q-2 0 -27.5 6t-36 8t-33 11.5t-33.5 18.5t-25.5 25.5t-22.5 36.5q-12 29 -12 68q0 43 15 98q28 104 75 178q170 250 413 251q11 0 23 -1q188 -14 256 -135q25 -41 25 -100.5t-27 -104.5 q-94 -150 -166 -153q-13 -1 -24 -1q-70 0 -95 31q-10 13 -9 28q0 16 11 34q8 12 35 46t42.5 56.5t26.5 53t7 53.5q-4 33 -37 47q-10 3 -20 2q-55 0 -140 -68z" />
<glyph unicode="T" horiz-adv-x="882" d="M1225 1352h12q218 0 389 69q-12 -78 -63.5 -143.5t-132.5 -91.5q-43 -16 -121 -23q-47 -4 -83 -3q-24 0 -42 1q-82 -100 -129 -185t-92 -210l-78 -227q-27 -82 -47.5 -136.5t-59.5 -130t-81 -125t-106.5 -92.5t-139.5 -61q-32 -7 -65 -7q-38 0 -78 9q-75 16 -130 76 q-53 51 -74 138q-11 48 -11 91q0 34 7 66q18 70 71.5 119t121.5 67q30 8 57 8q60 0 103 -39q12 -14 9 -28.5t-13 -16.5q-154 -37 -189 -180q-7 -26 -7 -49q0 -56 42 -92q39 -35 89 -36q14 0 28 3q72 18 121 104t98 230l92 280q41 129 95 211t204 232q-125 29 -225 28 q-177 0 -275 -90q-68 -60 -68 -126q0 -5 1 -11q8 -51 49 -70q17 -5 32 -5q21 0 39 9q53 31 87 136q0 8 10 14t23.5 1t19.5 -24q5 -29 4 -56v-17q-4 -94 -88 -140q-53 -24 -102 -23q-39 0 -74 15q-100 37 -127 152q-4 19 -4 40q0 33 9 72q15 66 60 115q147 164 492 165 q20 0 41 -1q184 -10 299 -12z" />
<glyph unicode="U" horiz-adv-x="1372" d="M829 350q-36 -77 -35 -103q0 -21 21 -31q16 -7 37 5q29 14 59 55q45 49 97 132q201 299 462 827q10 20 15.5 28.5t19 17.5t29.5 9q72 0 92 -2q8 0 24.5 -1t24.5 -1q35 0 41 -16q1 -3 1 -7q0 -12 -9 -34l-457 -858l-31 -64l-24 -47q-24 -44 -24 -74q0 -10 3 -19 q11 -34 26.5 -44t33.5 -12h2q39 0 130 84q93 86 146 157v-86l-26 -33q-72 -96 -181 -182q-85 -67 -154 -67q-20 0 -38 6q-37 10 -66.5 43t-41 56.5t-27.5 62.5q-55 -59 -85 -87t-85 -54q-42 -19 -84 -19l-27 2q-86 18 -123 96q-22 30 -21 74q0 10 1 20q6 57 22.5 99.5 t51.5 111.5l282 568q4 6 12.5 22t13.5 27.5t14.5 29t12.5 27.5l8 27q5 16 4 23t-3 18q-14 31 -43 34q-4 1 -9 1q-35 0 -83 -44q-80 -76 -164 -247q-27 0 -51 26q-23 23 -23 68q0 51 29 111q31 65 78 114q59 61 142 90q55 19 109 19q27 0 54 -4q117 -23 157 -121 q10 -27 10 -61q0 -96 -77 -251z" />
<glyph unicode="V" horiz-adv-x="1210" d="M723 461q-55 -113 -68 -201q-2 -12 11.5 -16t25.5 8q8 8 36 38l69 76l65 72l37 38l38 39q15 15 19 22q4 59 19 122q96 481 381 617q51 24 92 24q29 0 53 -12q47 -27 55 -84q3 -16 3 -33q0 -65 -36 -143q-46 -98 -97.5 -163.5t-141.5 -168.5q-188 -205 -194 -213 q16 -23 46.5 -28.5t59.5 2.5q43 14 80 45q12 10 25.5 13t24.5 -3q14 -8 14 -32q0 -36 -54 -74q-57 -39 -92 -50q-25 -5 -48 -5q-76 0 -132 57l-71 -69q-58 -56 -91 -93l-98 -123q-63 -80 -76 -94q-51 -60 -76 -60h-4q-66 10 -111 103q-41 82 -40 181q0 151 94 343l184 369 q59 111 59 153q0 10 -4 17q-18 29 -51 26q-23 -2 -44 -15t-49 -46t-45.5 -56.5t-51.5 -75.5l-50 -75q-4 -6 -13 -8t-13 6q-18 27 -35 76q-8 25 -8 45.5t8 38.5q33 82 146.5 170t199.5 92q10 1 21 1q49 0 107 -23q71 -28 102 -91q15 -31 15 -70q0 -34 -12 -72 q-13 -42 -26.5 -74t-36.5 -79zM1384 1137q-115 -49 -208 -212t-115 -280q74 59 223 234q68 78 107 178q12 31 20 55q2 7 3 13q0 8 -6 12q-5 3 -11 3t-13 -3z" />
<glyph unicode="W" horiz-adv-x="1503" d="M737.5 669.5q-55.5 -96.5 -93.5 -206t-44 -176.5q-2 -8 9.5 -12.5t17.5 1.5q41 39 164 222q68 102 152 254l138 252l52 98l32 61l26 48q7 13 19.5 32t18.5 23t19.5 11t25.5 8t33 1q63 0 77 -22q3 -4 4 -12q0 -21 -24 -72q-211 -375 -283 -576q-68 -195 -82 -317 q-2 -16 11.5 -20.5t27.5 9.5q31 20 117 99q88 88 141 153q-22 63 -21 134q0 90 35 192q62 182 183 322q94 109 159 109q6 0 11 -1q47 -10 68 -65q11 -34 11 -77q0 -97 -60 -237q-85 -201 -207 -366l-23 -31q18 -14 53 -14q37 0 90 32q33 27 54 21q18 -2 18 -33 q0 -20 -20 -39q-80 -67 -176 -67q-15 0 -31 2q-43 4 -62 22l-409 -391q-60 -60 -83 -60q-2 0 -3 1q-43 10 -70 86q-31 66 -31 181v27l-69 -79q-198 -221 -251 -222h-3q-39 6 -72 74q-25 53 -25 128q0 47 10 102q26 143 109 301l215 403q47 79 47 115q0 10 -4 16 q-12 27 -43 31q-20 2 -45 -8q-47 -29 -98 -113q-25 -37 -37 -61l-10 -24l-9 -20q-3 -7 -7.5 -15.5t-8.5 -12.5t-8 -6t-10 -2t-12 4q-16 6 -33 37.5t-17 60.5q0 92 142 227q106 106 220 106q30 0 60 -7q106 -23 140 -111q6 -15 5 -34q0 -80 -94 -244q-81 -156 -136.5 -252.5z M1640 1161q2 8 -4 15q-4 4 -11 4q-4 0 -9 -1q-14 -3 -31 -20q-102 -117 -171 -281q-51 -121 -50 -210q0 -32 6 -60q199 252 256 449q15 59 15 91q0 7 -1 13z" />
<glyph unicode="X" horiz-adv-x="956" d="M1497 1237q5 -14 5 -31q0 -31 -17 -70q-27 -60 -68 -100q-40 51 -93 51q-26 0 -54 -12q-45 -25 -129 -115t-158 -186l-135 -168v-211v-2q-2 -28 -2 -52q0 -142 51 -179q29 -19 56 -19q14 0 28 4q41 20 84 62l27 -41q-6 -8 -12.5 -19.5t-12.5 -19.5q-88 -131 -217 -135 q-90 0 -154 88q-41 57 -65 227q-29 -18 -137 -186l-86 -137q-33 -51 -52 -58q-9 -5 -20 -4h-8q-29 4 -59.5 21.5t-41.5 46.5q-2 5 -1 11q0 78 257 411q31 41 93.5 117.5t72.5 91.5v323q0 123 -14 141q-13 13 -34 13q-12 0 -28 -4q-47 -18 -84.5 -83t-76.5 -165 q-10 -23 -19.5 -30t-27.5 -5q-27 0 -54 33q-14 19 -14 50q0 35 18 85q86 223 260 270q27 11 67 11q26 0 58 -5q80 -12 125 -61q45 -53 45 -225v-82l136 149l91 102q30 32 89 87t110 77q37 16 72 15q13 0 27 -2q82 -17 102 -80z" />
<glyph unicode="Y" horiz-adv-x="1269" d="M811 246q16 -5 30 -6q23 0 40 15q27 24 65 91q8 16 44 77.5t57 100.5l329 594q14 35 54 96q39 59 79 62h162q29 0 29 -19q0 -9 -6 -22l-934 -1774q-4 -8 -12 -11q-3 -1 -6 -1l-11 4q-82 41 -100 96q-1 3 -1 7q0 37 66 176l176 368q-75 -59 -141 -59q-21 0 -41 6 q-70 23 -102 96q-19 38 -19 92q0 20 2 43q10 81 33 149.5t53 127.5l213 399q71 124 71 171q0 13 -5 20q-18 29 -55 22q-59 -10 -117.5 -95t-91.5 -167q-7 -19 -21 -18q-17 0 -43 26q-29 33 -35 64q-1 5 -1 11q0 38 44 108q51 80 109 137q84 89 191 89q26 0 53 -5 q141 -27 174 -127q7 -19 6 -44q0 -90 -88 -251l-250 -469q-39 -76 -39 -121t39 -59z" />
<glyph unicode="Z" horiz-adv-x="956" d="M469 1110q4 49 82 150q63 -24 134 -24q34 0 69 5q109 14 145 19q89 8 152 8q115 0 145 -27q18 -18 32.5 -58t14.5 -87q0 -9 -16 -29q-223 -180 -348 -311l-36 -37l-36 -37l-32 -33q-24 -25 -33 -36l-27 -32l-31 -37l-29 -36q-16 -20 -30 -42l-29 -44q-104 -156 -145 -256 q57 18 143 34q59 10 130 10q33 0 69 -2q113 -7 149 -63q27 -41 33 -155q0 -10 -6 -16q-4 -4 -9 -3h-4q-100 25 -297 29h-120q-154 0 -281 -10q-35 8 -90 98q-10 16 -10 40q0 68 84 194q113 170 258 323l70 71l60 56q24 23 67 59l61 51l75 61l74 61q39 29 33 43q-2 6 -12 7 t-24.5 0t-27.5 -3l-28 -4q-14 -2 -19 -3l-127 -20q-8 -2 -47 -9t-61.5 -9t-52 1t-45.5 17q-29 27 -27 86z" />
<glyph unicode="[" horiz-adv-x="712" d="M801 1296h-209v-1374h209v-53h-385v1477h385v-50z" />
<glyph unicode="\" horiz-adv-x="1300" d="M430 1309q-6 10 -5 18t15.5 13.5t38.5 2.5q8 0 31 -3l37 -5q70 -6 85 -15t60 -73l105 -153q150 -233 245 -438t197 -486q27 -70 49 -145q8 -37 -12 -37q-23 0 -45 2q-12 0 -21.5 2t-16.5 3t-14.5 7t-10.5 9t-8 13l-8 14q-3 5 -9 20.5t-10 21.5q-219 455 -330 643 q-74 125 -373 586z" />
<glyph unicode="]" horiz-adv-x="712" d="M340 1296v50h383v-1477h-383v53h207v1374h-207z" />
<glyph unicode="^" horiz-adv-x="530" d="M332 850q106 84 156.5 134t134.5 161h22q55 -184 139 -303l-14 -13q-84 59 -147 189q-174 -147 -291 -182v14z" />
<glyph unicode="_" horiz-adv-x="860" d="M989 -207v-63h-952v63h952z" />
<glyph unicode="`" horiz-adv-x="354" d="M565 1004q49 -72 131 -146l-10 -29q-78 35 -161 106t-111 146q-12 37 6 68q6 12 25.5 21.5t31.5 5.5q14 -4 20.5 -8.5t8.5 -6.5t7 -12t7 -16q4 -8 8 -23l2 -14q4 -10 5.5 -16.5t5.5 -14.5q12 -43 24 -61z" />
<glyph unicode="a" horiz-adv-x="722" d="M420 723h9q37 0 83 -14q51 -16 70 -37q27 37 42 43t60 6q49 0 94 -4q29 -4 8 -39l-159 -299q-8 -14 -58 -113q-21 -49 -21 -79q0 -28 19 -37t37 -9q38 0 74 37q119 113 160 174v-86q-88 -113 -190 -201q-93 -82 -162 -82q-6 0 -13 1q-84 8 -106 100q-75 -101 -154 -101 q-7 0 -14 1q-41 4 -80 33.5t-60 72.5q-26 59 -26 128q0 137 104 314q107 181 283 191zM403 584q-55 -18 -108 -97q-41 -66 -76 -182q-22 -71 -22 -113q0 -55 36 -63q5 -1 10 -1q43 0 95 66q57 73 88 137t59 138q2 4 6.5 16.5t6.5 17.5t4 15t2 16.5t-1 13.5t-5 13 q-20 28 -57 28q-18 1 -38 -5z" />
<glyph unicode="b" horiz-adv-x="577" d="M375 774q-27 -72 -33 -94q22 7 42 7q52 0 89 -46q45 -59 55 -183q4 -48 4 -86q0 -61 -10 -98q15 -15 39 -14q13 0 29 4q35 14 61 51l13 -65q-12 -35 -66 -49q-25 -7 -46 -7q-24 0 -44 9q-96 -211 -232 -213q-8 -1 -15 -1q-95 0 -155 93q-43 64 -43 168v18q4 117 35 233.5 t82 229.5l154 334q35 70 51 98q31 51 45 63.5t55 14.5q2 0 15 1q6 1 12 1t11 -1q11 -1 24.5 -2t24 -5t14.5 -12q0 -14 1 -20.5t-12 -31.5l-19 -38q-7 -14 -24 -41l-24 -41q-53 -101 -133 -277zM375 575q-20 -6 -21 -53q0 -39 11 -65q12 -51 61 -101q6 39 6 113q0 29 -8 57 q-8 27 -20 41q-8 10 -19 10q-4 0 -10 -2zM276 471q-29 -70 -46 -164t-17 -125q0 -51 27 -69q19 -10 34 -10q7 0 13 1q55 18 112 154q-45 33 -79 95.5t-44 117.5z" />
<glyph unicode="c" horiz-adv-x="606" d="M440 496q27 74 27 92q0 29 -33 20q-4 0 -39 -26q-66 -66 -111 -182q-41 -102 -41 -168q0 -9 1 -17q4 -72 57 -106q31 -18 67 -18q63 0 140 55q121 87 203 206v-86q-68 -100 -191 -195q-107 -83 -198 -83q-14 0 -27 2q-61 8 -115.5 46t-83.5 99q-26 52 -26 114q0 15 2 31 q8 79 31.5 141t58.5 116q115 184 258 186h10q42 0 95 -14q60 -16 98 -64q19 -25 19 -63q0 -40 -21 -95q-14 -37 -35 -56t-58 -23q-13 -2 -25 -2q-38 0 -59 20q-12 11 -12 31q0 17 8 39z" />
<glyph unicode="d" horiz-adv-x="745" d="M965 1241q46 0 45 -16q0 -14 -17 -51l-370 -783l-15 -31l-17 -37l-18 -39q-10 -24 -15 -42l-10 -37q-5 -18 -4 -32.5t7 -22.5q19 -29 51 -29q9 0 19 2q39 12 117.5 94t115.5 135v-86q-31 -53 -106.5 -126.5t-120.5 -100.5q-71 -42 -123 -42q-14 0 -27 3q-45 12 -65 96 q-110 -100 -192 -100q-15 0 -30 4q-92 20 -129 123q-10 35 -9 78q0 39 7 85q16 97 52 169q51 96 132 170.5t183 81.5q10 1 19 0q67 0 122 -37l183 393l22 51l16.5 39t15.5 31t11 21.5t11.5 15.5t9.5 9t10 5t11 2t15 2h17q4 0 38 1t38 1zM506 545q-10 37 -55 37 q-27 0 -60 -19q-57 -35 -98 -102q-51 -84 -74 -170q-20 -66 -20 -106q0 -53 34 -62q16 2 28 -1q2 -1 5 -1q10 0 21 10q14 12 22 16.5t21.5 23.5l20.5 28.5t19 30.5l16 32l14.5 30.5l13.5 29.5l73 161q23 39 19 62z" />
<glyph unicode="e" horiz-adv-x="563" d="M354 231q-18 -7 -46 -7q-11 0 -24 1q-46 4 -65 23q-20 -27 -20 -58q0 -39 24 -59q49 -42 98 -42l13 1q145 14 336 262v-86q-70 -82 -106 -121t-93 -88t-112 -64q-35 -10 -73 -10q-20 0 -40 3q-135 16 -185 127q-26 56 -25 122q0 126 91 289q100 170 229 178q10 1 19 1 q91 0 149 -72q32 -41 33 -97q0 -40 -16 -88q-60 -164 -187 -215zM354 582q-31 -16 -60.5 -78t-35.5 -90q-5 -18 -5 -32q0 -27 23 -30q12 -4 24 -4q16 0 30 8q40 24 69.5 73t29.5 110q0 29 -21 45q-12 6 -25 5z" />
<glyph unicode="f" horiz-adv-x="462" d="M629 1241q5 1 9 1q27 0 36 -23q3 -5 3 -11q0 -12 -11 -28l-164 -310l-156 -278q12 -41 31.5 -142.5t21.5 -164.5q38 -16 63 -17q15 0 25 6q41 18 86 74v-74q-33 -63 -79 -79q-16 -6 -46 -3t-47 13q0 -6 1 -12q0 -121 -40 -252q-41 -137 -135 -207q-53 -35 -102 -35 q-17 0 -33 4q-76 16 -108 96q-20 49 -23 111v12q0 57 17 122q19 73 41 134.5t59 145.5l23 59l23 60l11 32q-31 43 -29 98q6 43 36 72t71 33l137 268q63 121 96 172l30 52q15 28 17.5 35t15.5 16.5t23.5 10.5t40.5 3zM244 334q-2 -4 -11.5 -26.5t-19.5 -50.5l-18 -52 q-6 -20 -19 -58l-20 -60l-18 -56l-15 -56q-6 -23 -10 -47q-3 -20 -4 -35q0 -22 6 -40q9 -25 35 -26q4 0 8 1q33 6 67 96q67 180 68 288q0 49 -14 83q-25 25 -35 39z" />
<glyph unicode="g" horiz-adv-x="749" d="M731 678q35 0 45 -19q8 -10 -10 -47l-270 -563q184 27 393 303v-86q-35 -59 -127 -144t-168 -126q-14 -8 -52 -27l-68 -34q-30 -15 -38 -23l-65 -129q-29 -53 -64 -107.5t-85 -118t-109.5 -105.5t-114.5 -48q-9 -1 -18 -1q-62 0 -99 50q-26 35 -25 79q0 40 21 87 q45 92 166 191q80 68 227 131q20 53 31 88q-63 -54 -124 -54q-32 0 -62 15q-76 41 -84 176q-2 104 62.5 246.5t176.5 210.5q63 39 152 47q16 1 32 1q71 0 140 -30q14 27 21.5 32t25.5 5h90zM420 561q-51 -20 -92 -74q-49 -61 -92 -159q-50 -113 -50 -161q0 -35 29 -46 q9 -5 20 -5q20 0 44 17q66 45 147.5 177t85.5 186q1 7 1 12q0 28 -24 45q-19 11 -43 11q-12 0 -26 -3zM207 -209q-86 -39 -174 -123q-84 -80 -84 -128q0 -35 41 -36q20 0 47 21q31 20 74 88q45 67 96 178z" />
<glyph unicode="h" horiz-adv-x="786" d="M575 1290h103q17 -1 17 -19q0 -19 -19 -57l-295 -616q78 43 167 66q43 11 76 10q37 0 62 -12q45 -20 57 -66q4 -20 5 -40q0 -75 -60 -157l-31 -45q-120 -171 -119 -218q0 -18 12 -28t30 -10q10 0 22 2q104 16 293 252v-86q-131 -160 -214 -220t-167 -60q-100 0 -139 65 q-12 20 -13.5 47t4 48.5t21.5 54t26.5 50l33 52.5t28.5 43l70 105q15 21 15 39q0 12 -7 24q-8 20 -49 21q-18 0 -64 -13q-76 -23 -125 -77t-106 -177l-45 -92l-25 -54q-14 -32 -20 -44t-16.5 -30.5t-16.5 -24t-17.5 -13.5t-22.5 -10t-28 -2q-4 0 -17 -1t-21.5 0t-19.5 2 t-19.5 6t-12.5 13q-5 8 -5 20q0 6 1 13q2 10 6 20.5t11.5 27t13.5 28.5l16 34l19 38l164 338l313 637q6 10 17 31l16 30q4 8 14 21.5t17.5 18.5t18.5 10t25 5z" />
<glyph unicode="i" horiz-adv-x="405" d="M295 885q14 37 47 71.5t61 42.5q14 3 26 3q44 0 58 -41q7 -22 7 -44q0 -44 -27 -88q-39 -82 -105 -84h-10q-40 0 -61 29q-11 18 -12 43q1 29 16 68zM391 692q37 0 19 -41l-160 -319q-52 -110 -52 -160q0 -15 5 -25q17 -28 43 -27q9 0 18 3q41 10 129 99t115 130v-86 q-16 -27 -84 -98.5t-107 -101.5q-89 -82 -170 -82q-12 0 -24 2q-59 6 -82 63q-18 41 -18 93q0 97 65 231q127 272 129 274q16 35 21.5 38t37.5 7h115z" />
<glyph unicode="j" horiz-adv-x="321" d="M309 504l-188 -410q61 12 160.5 108.5t134.5 149.5v-86q-117 -143 -197 -205q-51 -41 -143 -77l-74 -127q-203 -362 -387 -381q-9 -1 -17 -1q-68 0 -110 46q-32 33 -32 85q0 25 7 54q41 156 314 287q109 51 129 63l29 68l36 80l228 497q12 23 22 25q6 2 17 2h41 q78 0 88 -14q2 -4 3 -10.5t-1 -16.5t-5 -18l-10 -24q-6 -15 -12 -26.5l-16.5 -33t-16.5 -35.5zM238 885q14 37 45.5 71.5t60.5 42.5q14 3 27 3q45 0 59 -41q7 -22 7 -45q0 -43 -25 -87q-47 -82 -109 -84h-10q-38 0 -60 29q-11 18 -11 43q1 29 16 68zM-176 -143 q-90 -35 -172 -113q-49 -45 -70 -95q-9 -22 -9 -39q0 -22 15 -34q7 -4 17 -4q12 0 26 7q27 13 43 36q35 47 58 82q45 68 92 160z" />
<glyph unicode="k" horiz-adv-x="641" d="M688 1346q33 -4 38 -18.5t-11 -41.5l-193 -377l-209 -401q90 35 172 106l35 30q20 17 26.5 23.5t17.5 13.5t17.5 9t16.5 4t25 2q16 1 28 1q52 0 66 -13q18 -16 0 -43q-16 -35 -89 -87t-159 -93q-43 -20 -90 -39q74 -37 100 -131q6 -20 13.5 -56t11.5 -53q8 -39 31 -39 q11 0 24 9q39 27 98.5 89t96.5 111v-86q-29 -45 -76 -102q-45 -53 -75 -85t-86 -64q-45 -25 -84 -25q-10 0 -19 2q-96 18 -117 133q-5 30 -5 53q0 14 2 26q5 30 -8.5 61.5t-56.5 64.5l-123 -238q-35 -68 -53 -89q-15 -18 -35 -18q-4 0 -8 1q-27 6 -49 12q-37 14 -43 24 q-2 3 -2 9q0 9 6 24l221 457l375 782q18 37 27.5 44.5t36.5 9.5q73 0 106 -2z" />
<glyph unicode="l" horiz-adv-x="425" d="M756 1401q16 0 22 -6q5 -5 5 -10t-9 -25l-305 -567l-211 -447q-53 -108 -53 -165q0 -16 4 -27q10 -28 45 -29q8 0 18 2q41 10 133.5 102.5t120.5 137.5v-91q-14 -27 -84.5 -99.5t-113.5 -108.5q-95 -83 -172 -84q-16 0 -31 4q-66 10 -86 63q-17 39 -17 90q0 100 66 248 l217 457l264 510q18 35 23.5 38t40.5 7h123z" />
<glyph unicode="m" horiz-adv-x="909" d="M373 690q18 0 24 -12q16 -31 23 -33q6 0 42 17.5t67 26.5q12 4 25 4q20 0 40 -9q18 -12 32.5 -47t28.5 -35q2 0 67 40q54 33 106 33q11 0 22 -1q37 -4 62 -24q28 -21 28 -52q0 -44 -98 -180l-47 -70q-78 -123 -78 -181q0 -14 4 -24q13 -35 40 -34q15 0 34 10q16 6 53 39 q35 29 102.5 100.5t83.5 93.5v-84q-82 -115 -184 -196q-100 -87 -201 -87q-23 0 -47 5q-61 10 -84 71q-5 13 -5 30q0 20 7 45q12 46 30.5 81t52.5 93l42 73l25 41q10 23 -0.5 34t-20.5 9q-18 -6 -41 -29q-31 -35 -63 -82q-23 -33 -94 -155l-97 -168q-18 -39 -35 -41 q-8 0 -16 2q-59 18 -80.5 30.5t-21.5 34.5q-4 25 37 84q70 123 116 195q45 74 60 113q12 20 -6.5 27t-30.5 -3q-14 -6 -45 -41q-35 -39 -70 -96q-55 -84 -110 -191l-62 -120q0 -2 -3 -8.5t-4 -7.5t-4 -7t-5 -6t-6.5 -5t-8.5 -3t-11 -1l-6 -2q-4 0 -7 3l-60 8q-37 10 -45 29 q-5 8 -5 17q0 6 2 13q3 10 5 18.5t10 21.5l12 24l13 27q8 17 15 28q233 457 239 471q4 10 9.5 16.5t8.5 11.5t8 8t8 4t11 2t12 1h14h17h64z" />
<glyph unicode="n" horiz-adv-x="673" d="M354 696q20 0 30.5 -7t17 -21.5t10.5 -20.5q4 0 34.5 13.5t67.5 19.5q12 2 28 2q30 0 72 -8q63 -20 64 -78q0 -27 -82 -166l-16 -29q-82 -135 -103 -198q-12 -35 1.5 -60.5t45.5 -23.5q41 2 123 81t135 150v-84q-80 -115 -199 -208q-95 -74 -170 -73q-20 0 -38 5 q-74 23 -96 78q-5 14 -6 33q0 93 124 305q8 14 13 22l28 51q14 18 -1 25.5t-27 3.5q-18 -2 -41 -21q-25 -23 -68 -79l-98 -158l-101 -193l-10 -20q-6 -12 -8 -15l-7 -11q-5 -7 -7 -8t-9.5 -3t-14.5 -2h-19q-63 0 -92 7q-23 6 -22 21q0 3 1 7q16 61 76 186l219 426 q14 27 24.5 37t16.5 12t22 2h82z" />
<glyph unicode="o" horiz-adv-x="657" d="M627 442q-27 -143 -64 -209q15 -9 32 -8q31 0 73 28q63 44 106 120l21 -74q-35 -68 -114 -117q-46 -28 -88 -28q-30 0 -58 14q-63 -96 -128 -139t-153 -43q-49 2 -106.5 32.5t-90.5 79.5q-28 57 -28 131q0 11 1 23q5 88 33 156q43 106 117 189t174 103q24 7 55 8 q28 0 60 -7q68 -13 111 -56q55 -52 55 -135q0 -32 -8 -68zM483 516q2 43 -39 59q-17 7 -34 7q-19 0 -37 -9q-68 -33 -117 -129t-59 -168q-5 -32 -5 -56q0 -60 27 -85q23 -19 47 -19q14 0 29 7q68 20 115 110q0 2 4 10.5t6 14.5q-32 52 -32 119q0 22 3 47q8 41 31 63 q22 25 61 29z" />
<glyph unicode="p" horiz-adv-x="645" d="M369 684q4 0 13 -18.5t21 -20.5q2 0 72 18q30 8 53 7q29 0 43 -13q51 -27 52 -112q0 -63 -39 -173t-80 -161q14 -11 34 -11q41 0 108 46q99 68 136 141v-88q-37 -74 -149 -135q-77 -42 -136 -42q-27 0 -51 9q-162 -154 -253 -154h-11q-68 12 -96 62l-207 -381 q-25 -45 -37 -58q-11 -12 -27 -12h-5q-59 10 -89 33q-14 14 -13 29q0 5 1 10q6 20 43 98q2 2 2 4l406 822q43 84 51 92t51 8h107zM434 477q0 20 -16 31q-12 7 -23 7q-4 0 -8 -1q-27 -8 -37 -18q-47 -35 -118.5 -159t-77.5 -171q-1 -6 -1 -12q0 -26 25 -31q7 -4 16 -4 q17 0 42 12q80 47 137 148.5t61 197.5z" />
<glyph unicode="q" horiz-adv-x="714" d="M285 647q70 21 111 21h13q42 -4 85 -23.5t51 -19.5q14 0 24.5 19.5t28.5 19.5h102q47 0 56 -27q2 -6 -1 -16.5t-13 -28.5l-16 -33q-7 -14 -24.5 -45t-25.5 -47l-215 -377q25 -8 51 -8q29 0 60 10q58 18 120 71.5t90 85.5l78 89q8 10 12 14v-86q-115 -141 -188.5 -202.5 t-146.5 -79.5q-18 -6 -66 -9l4 -24q4 -28 4 -62q0 -76 -19 -178q-28 -147 -100 -203q-51 -40 -99 -40q-14 0 -28 4q-78 18 -100 98q-10 33 -10 72t4 69.5t20.5 82.5t26.5 79l37 92l18 45q-38 -8 -68 -8q-67 0 -102 37q-53 47 -53 144q0 27 4 57q18 119 76 223 q82 141 199 184zM174 147q16 -20 48 -14t54 31q43 49 123 186q78 134 78 172t-33 51q-7 2 -14 3q-31 0 -80 -39q-88 -76 -149 -206q-39 -83 -40 -135q0 -30 13 -49zM317 -401q43 55 64 151q11 51 11 104q0 48 -9 97q-51 -70 -97 -188q-38 -96 -38 -144q0 -11 2 -18 q10 -31 26 -31q23 0 41 29z" />
<glyph unicode="r" horiz-adv-x="561" d="M369 186q-5 -16 -5 -27q0 -32 35 -38q6 -2 13 -2q45 0 120 72q86 83 142 161v-86q-78 -104 -188 -196q-103 -86 -179 -87q-5 0 -10 1q-78 8 -115 88q-11 16 -11 40.5t11 57.5q23 66 51.5 118t75.5 124l21 30q10 16 13 29.5t-11 15.5q-27 -6 -54.5 -6t-56.5 6 q-74 -170 -172 -270l-14 72q25 20 68.5 103t54.5 126q-23 14 -27 56q-1 12 -1 23q0 26 7 42q31 102 103 139q34 16 59 17q16 0 29 -7q25 -18 22 -53q0 -6 -5 -24.5t-6 -27.5t7 -21q18 -16 39 -7l18 17q18 14 33 12l168 -14q23 0 32 -11.5t7 -25.5q0 -12 -24.5 -51t-77 -113 t-76.5 -113q-51 -86 -68 -110q-22 -42 -28 -60z" />
<glyph unicode="s" horiz-adv-x="557" d="M451 813q8 5 20 6q6 0 14 -2q23 -4 29 -22q4 -12 0 -36t-16 -36l-15 -14q-8 -8 -18 -21q-8 -8 -19 -41q-3 -8 -2 -26q0 -37 11 -115q16 -102 16 -141q0 -137 -20 -226q35 20 107.5 94t103.5 119v-86q-137 -170 -242 -236q-75 -48 -146 -48q-29 0 -57 8q-102 29 -141 108 q-23 45 -24 146v11q0 92 16 146q18 6 41 29q121 131 186 209l94 117q39 51 62 57zM332 573q-78 -63 -164 -174q8 -26 8 -52q0 -24 -7 -47q-15 -48 -52 -64q12 -76 65 -95q18 -8 36 -8l75 35q45 43 58 128q8 53 8 99q0 29 -3 56q-8 69 -24 122z" />
<glyph unicode="t" horiz-adv-x="413" d="M535 868q-80 -123 -111 -182q4 0 27.5 -4t29.5 -4q45 -12 45 -47q0 -51 -22 -60q-47 -14 -162 -14l-47 -92q-106 -208 -106 -280q0 -16 6 -25q17 -35 51 -35q17 0 39 8q61 23 223 219v-86q-76 -98 -148 -162q-123 -111 -231 -111q-9 0 -18 1q-70 8 -101 72q-10 18 -12 43 q0 5 -1 11q0 21 6 49q7 36 12 56.5t21.5 65.5t20.5 54l23 54l63 162q-8 0 -21 1t-18 1q-20 2 -34 25q-12 20 4 58t43 42q57 8 104 8q10 18 103 164l98 148q14 23 24.5 35t19.5 20t18.5 11t21.5 4t26.5 0t34.5 1q55 0 66 -18q7 -10 6 -16q0 -9 -7 -24q-9 -17 -41.5 -66.5z " />
<glyph unicode="u" horiz-adv-x="710" d="M391 690q43 0 25 -35q-82 -147 -127 -239l-82 -172q-10 -22 -11 -37q0 -23 25 -31q33 -8 55 10q4 2 31 35l21 36q14 26 22 38q137 279 156 311q23 43 39 54.5t53 9.5h53q64 -5 65 -28q0 -22 -71 -153l-18 -30q-49 -88 -84 -181q-28 -75 -28 -116q0 -9 1 -17 q4 -16 21.5 -23t37.5 -1q51 14 136.5 99t117.5 132v-86q-227 -285 -352 -285q-16 0 -31 5q-80 25 -116 106q-118 -94 -202 -94q-17 0 -32 4q-51 12 -76 61q-13 26 -13 64q0 84 67 225l59 129l66 133l10 21q8 16 11 21.5t11.5 15.5t15.5 14t15 4h129z" />
<glyph unicode="v" horiz-adv-x="571" d="M442 344q4 -37 31 -65.5t64 -30.5q27 -2 61.5 13t44.5 36v-80q-43 -29 -105 -31h-14q-51 0 -67 15q-49 33 -68 71q-53 -76 -143 -217q-2 -2 -8.5 -12t-9.5 -13t-8 -11.5t-10 -11.5l-12 -7q-7 -4 -14.5 -6t-17.5 -2q-104 0 -137 24q-12 9 -12 45q0 38 14 107l6 31l88 458 q6 25 37 25q96 0 106 -14q4 -5 4 -18q0 -37 -30 -142q-12 -43 -39 -168q-18 -100 -21 -125q0 -10 3 -16t8.5 -6t9.5 6l63 84q16 25 53 76t43 61q8 129 54 213q56 95 133 94h10q45 -8 57 -43q3 -9 4 -19q0 -60 -96 -194q-8 -10 -12 -16q-54 -82 -70 -111zM506 653 q-29 -12 -47 -57l-27 -90l90 125q3 5 3 9.5t-3 7.5q-5 6 -12 6q-2 -1 -4 -1z" />
<glyph unicode="w" horiz-adv-x="909" d="M336 680q41 0 41 -19q0 -7 -6 -18q-92 -162 -135 -254q-51 -104 -62 -153q-2 -12 -2 -22q0 -30 25 -38q3 -1 6 -1q32 0 71 69q51 90 80 147q92 176 111 232q4 6 9 17t6 15t6.5 11.5t8.5 8.5t10 4t14 4t20 1q96 0 106 -27q2 -3 2 -7q0 -30 -63 -144l-25 -47 q-96 -186 -100 -242q0 -20 6 -35q8 -20 41 -24h2q50 0 115 82q31 37 51 82q-9 39 -9 77t9 76q12 63 48 123.5t81 85.5q18 10 35 10t32 -10q32 -18 33 -55q0 -12 -4 -27q-18 -59 -60 -171t-67 -155q27 -31 105.5 -30.5t121.5 49.5l5 -76q-57 -37 -122 -42q-6 -1 -13 0 q-60 0 -134 42q-78 -119 -147 -178q-61 -52 -142 -52q-11 0 -22 1q-88 2 -121 102q-91 -100 -191 -100q-14 0 -28 2q-76 16 -94 74q-7 20 -7 46q0 35 12 81q22 80 52 139l150 307q20 43 43 43zM795 614q-27 -16 -52 -77q-27 -86 -26 -125q0 -15 4 -23q12 6 31.5 52t37 97.5 t19.5 53.5q3 8 3 14q0 11 -8 10q-5 0 -9 -2z" />
<glyph unicode="x" horiz-adv-x="811" d="M467 657q41 -29 70 -174q82 76 163 142q43 38 94 38q9 0 19 -1q18 -4 26.5 -17.5t-3.5 -26.5q-137 -127 -209 -202l-74 -80q0 -4 3 -32t7 -49.5t11.5 -49t19.5 -47t29 -27.5q15 -7 31 -7q28 0 63 19q53 31 207 209v-86q-23 -39 -106 -119.5t-130 -117.5t-100 -42 q-9 -1 -17 -1q-42 0 -73 22q-27 18 -45.5 60.5t-23.5 66t-15 78.5q-86 -92 -154 -180q-33 -41 -45 -33q-29 18 -47 54q-13 25 -13 45q0 9 3 18q18 72 231 270q-37 160 -76 168q-16 2 -35.5 -11.5t-45 -48t-37.5 -54.5l-39 -64l-72 -115l-18 68l28 57l36 63q30 52 45 73 l44 60q29 38 60.5 58.5t68.5 30.5q29 9 53 8q39 0 66 -23z" />
<glyph unicode="y" horiz-adv-x="686" d="M659 702q12 0 19.5 -6t7.5 -16t-2 -18.5t-6 -19.5t-4 -13l-207 -537q45 2 98 35t101.5 81t76.5 82l52 62v-86q-39 -53 -112 -126.5t-120 -106.5q-59 -37 -149 -62l-41 -114q-43 -113 -135.5 -264.5t-182.5 -176.5q-24 -6 -46 -6q-47 0 -83 27q-51 44 -51 111 q0 182 279 366q84 57 102 76l35 100q-87 -90 -164 -90q-12 0 -25 2q-57 14 -84 72q-14 28 -13 67q0 97 81 262l98 213q33 66 88 66h76q32 0 32 -23q0 -15 -13 -41l-74 -145l-24 -44l-25 -48q-10 -18 -25.5 -49t-21.5 -46l-16 -40q-9 -25 -7 -33t2 -23q12 -23 39 -16 q12 2 24.5 7t23.5 18.5t19.5 25t21.5 34.5l21 37q7 13 23 46l25 49l94 189q4 10 15.5 32.5t16.5 30.5l15 24q10 15 18.5 20t21.5 10t30 5h75zM219 -143q-94 -59 -163.5 -135t-78.5 -132q-2 -11 -2 -20q0 -23 15 -35q14 -14 27 -14l14 4q65 17 188 332z" />
<glyph unicode="z" horiz-adv-x="714" d="M657 541q-8 -98 -115.5 -208t-232.5 -198q88 -23 140 -88q74 4 189.5 100.5t190.5 204.5v-86q-6 -16 -86.5 -100t-107.5 -107q-70 -51 -164 -88q3 -24 3 -49q0 -97 -43 -216q-54 -151 -171 -234q-49 -35 -120 -54q-42 -11 -80 -11q-26 0 -50 5q-39 8 -65.5 44t-26.5 82 q0 87 108 202q110 117 232 194l45 33q-4 16 -22.5 29.5t-40.5 13.5q-5 1 -10 1l-68 -25l-51 104l90 76q49 43 117.5 109.5t112.5 129t44 101.5q0 37 -24 47q-8 3 -20 3q-22 0 -56 -13q-51 -20 -74 -23q-23 -4 -72 -4h-12h-10q-2 0 -7 -1t-6 -3t-4.5 -7t-4.5 -11.5t-3 -16.5 q-29 -109 -78 -184q-35 -61 -61 -88l-10 74q55 90 69 155q14 57 15 105q0 31 10 43q27 23 49 16q16 -6 33.5 -6t36.5 6q4 0 106 35q66 23 96.5 31t78.5 10h9q42 0 66 -19q59 -38 55 -114zM311 -141q-201 -131 -264 -252q-20 -37 -20 -66q0 -18 16 -34q14 -14 37 -13h6 q57 6 102 49t70 104.5t38 115t15 96.5z" />
<glyph unicode="{" horiz-adv-x="1013" d="M1044 1247v-63q-109 -25 -149 -47q-39 -20 -61.5 -48t-30.5 -66t-10 -61.5t-2 -70.5v-117q0 -98 -19.5 -160.5t-70 -98.5t-105.5 -53.5t-156 -35.5q170 -20 248 -78q104 -76 105 -297v-69q0 -150 51 -219.5t207 -86.5v-65q-172 0 -273 59q-51 29 -80.5 64t-42 83 t-14.5 77.5t-2 91.5v114q0 152 -61.5 208.5t-217.5 76.5v82q131 18 187 57q47 33 68.5 80t22.5 68.5t1 85.5v131q0 66 1 90.5t15.5 69.5t44.5 79q33 35 76 58.5t101.5 36t84 15.5t82.5 9z" />
<glyph unicode="|" horiz-adv-x="671" d="M440 1292v-1538h-84v1538h84z" />
<glyph unicode="}" horiz-adv-x="1013" d="M-2 1186v63l84 -9t85 -15.5t101 -36t74 -58.5q33 -35 48.5 -79.5t16.5 -69.5t1 -90v-131v-30v-32q0 -8 1 -28.5t5 -30.5t10 -27.5t15.5 -30t23.5 -27.5t33 -28q49 -33 186 -59v-80q-154 -20 -214 -76.5t-60 -208.5v-114q0 -61 -2.5 -91t-14.5 -78t-43 -83t-82 -64 q-100 -59 -274 -59v65q160 16 211 86t51 220v69q0 221 100 297q80 59 250 78q-98 16 -154.5 33.5t-105.5 54.5t-68.5 98.5t-19.5 159.5v119q0 47 -2 70.5t-10 61.5t-33 64.5t-64 47.5q-40 24 -149 49z" />
<glyph unicode="~" horiz-adv-x="542" d="M791 946q29 -14 55 -5t36.5 18.5t27 31t26.5 31.5h31q-31 -137 -121 -168q-23 -8 -34 -11t-27.5 -2t-24.5 3t-40 12t-56 16q-92 33 -132 11q-14 -8 -20 -17.5t-9 -22t-3 -14.5h-39q8 53 38.5 100.5t78.5 59.5q23 10 58.5 5t57 -12t53.5 -19.5t44 -16.5z" />
<glyph unicode="&#xa0;" horiz-adv-x="976" d="M0 0z" />
<glyph unicode="&#xa2;" horiz-adv-x="862" d="M516 582v14l-223 -438q20 -29 49 -49q70 -41 159 8t210 159v-86q-70 -90 -172.5 -152.5t-204.5 -47.5q-45 0 -107 39l-88 -172l-59 26l94 193q-27 31 -37 59q-33 66 -24.5 144.5t31 140t57.5 117.5q117 180 260 186h41l84 164l78 2l-93 -182q61 -18 88 -62 q45 -51 -2 -158q-14 -39 -29.5 -56t-49.5 -21q-68 0 -88.5 18t-2.5 70zM428 582q-55 -47 -96 -136.5t-56 -169.5l160 312z" />
<glyph unicode="&#xa3;" horiz-adv-x="1351" d="M1163 846q-45 4 -129 18q-8 2 -10 10.5t4 12.5t31.5 26.5l36.5 32.5l31 33q22 23 31 39t16.5 37.5t5.5 42.5q-4 47 -50 73q-45 23 -96 -4q-39 -20 -75.5 -60t-76.5 -109.5t-58.5 -105.5t-59.5 -127t-43 -95h205q8 0 9 -7.5t-7 -13.5l-45 -47q-23 -20 -33 -25.5t-35 -5.5 h-139l-170 -333q121 -68 209 -80q98 -10 158.5 4t142.5 69q0 -6 -2 -50t-2 -52q-10 -20 -43 -51t-80 -55q-84 -41 -187.5 -35t-191.5 57q-51 31 -98 70q-78 -66 -158 -101q-170 -66 -268 9q-70 49 -66 122q4 98 111 160q115 63 303 8l127 258h-203q-8 0 -11 7.5t1 11.5 q59 70 69 74t35 4h152l96 196q45 94 82 156.5t91 128t125 100.5t157 39q139 4 200 -98q78 -125 -10 -295q-23 -41 -34 -48t-48 -1zM270 199q-74 29 -141.5 24.5t-89.5 -43.5q-14 -33 -2 -53q16 -31 69 -31q92 -1 164 103z" />
<glyph unicode="&#xa8;" horiz-adv-x="575" d="M707 829q-41 0 -69 27t-28 68t28 67.5t69 26.5t68.5 -27.5t27.5 -66.5q0 -41 -27.5 -68t-68.5 -27zM354 829q-41 0 -67.5 27t-26.5 68q0 39 27.5 66.5t66.5 27.5q41 0 69 -26.5t28 -67.5t-28 -68t-69 -27z" />
<glyph unicode="&#xaa;" horiz-adv-x="722" d="M420 723h9q37 0 83 -14q51 -16 70 -37q27 37 42 43t60 6q49 0 94 -4q29 -4 8 -39l-159 -299q-8 -14 -58 -113q-21 -49 -21 -79q0 -28 19 -37t37 -9q38 0 74 37q119 113 160 174v-86q-88 -113 -190 -201q-93 -82 -162 -82q-6 0 -13 1q-84 8 -106 100q-75 -101 -154 -101 q-7 0 -14 1q-41 4 -80 33.5t-60 72.5q-26 59 -26 128q0 137 104 314q107 181 283 191zM403 584q-55 -18 -108 -97q-41 -66 -76 -182q-22 -71 -22 -113q0 -55 36 -63q5 -1 10 -1q43 0 95 66q57 73 88 137t59 138q2 4 6.5 16.5t6.5 17.5t4 15t2 16.5t-1 13.5t-5 13 q-20 28 -57 28q-18 1 -38 -5z" />
<glyph unicode="&#xad;" horiz-adv-x="851" d="M782 610q8 4 14.5 -2t2.5 -12q-33 -92 -69 -118.5t-122 -28.5q-98 -4 -258 18q-82 14 -147 2q-10 -2 -13.5 6t0.5 12q61 145 203 109q35 -10 62 -12q157 -29 327 26z" />
<glyph unicode="&#xb1;" horiz-adv-x="1124" d="M1036 178v-139h-946v139h946zM633 928v-250h403v-139h-403v-250h-139v250h-404v139h404v250h139z" />
<glyph unicode="&#xb2;" d="M233 907v219l168 174h381l168 -174v-352l-450 -434v-98h456v-242h-733v459l459 440v160h-182v-152h-267z" />
<glyph unicode="&#xb3;" d="M403 0l-167 174v236h266v-168h182v286h-182v260h182v271h-182v-152h-266v219l167 174h381l168 -174v-323l-155 -146l155 -151v-334l-168 -172h-381z" />
<glyph unicode="&#xb4;" horiz-adv-x="350" d="M289 829l-10 29q88 78 133 146q12 16 26 61l3 9q1 3 2 8t3 14l5 14q2 14 6 23l4 12l3 9q1 3 3 6t6 5t9 4l16 7q14 4 33.5 -4.5t25.5 -22.5q16 -41 6 -68q-29 -78 -112.5 -147.5t-161.5 -104.5z" />
<glyph unicode="&#xb5;" horiz-adv-x="1179" d="M340 920v-607q0 -145 29 -194q27 -45 102 -49q117 0 195 163q74 162 77 420v267h189v-672q0 -92 18 -135q18 -41 60 -43q41 0 65 43q23 41 23 125v28h43q0 -10 2 -18v-27q0 -115 -49 -178q-43 -57 -136 -61q-100 0 -155 88q-49 82 -53 264q-47 -182 -125 -266 q-78 -82 -199 -86q-86 0 -150 53q-57 55 -81 158q0 -31 -2 -58q0 -133 65 -289q66 -160 66 -188q0 -41 -23 -64q-18 -18 -63 -22q-47 0 -68 35q-16 29 -20 108q0 4 1 19.5t2 43t1 56.5q4 131 4 182q0 117 -2 207q-4 180 -4 195v502h188z" />
<glyph unicode="&#xb9;" d="M612 1300h201v-1300h-268v1059h-154v176z" />
<glyph unicode="&#xba;" horiz-adv-x="657" d="M627 442q-27 -143 -64 -209q15 -9 32 -8q31 0 73 28q63 44 106 120l21 -74q-35 -68 -114 -117q-46 -28 -88 -28q-30 0 -58 14q-63 -96 -128 -139t-153 -43q-49 2 -106.5 32.5t-90.5 79.5q-28 57 -28 131q0 11 1 23q5 88 33 156q43 106 117 189t174 103q24 7 55 8 q28 0 60 -7q68 -13 111 -56q55 -52 55 -135q0 -32 -8 -68zM483 516q2 43 -39 59q-17 7 -34 7q-19 0 -37 -9q-68 -33 -117 -129t-59 -168q-5 -32 -5 -56q0 -60 27 -85q23 -19 47 -19q14 0 29 7q68 20 115 110q0 2 4 10.5t6 14.5q-32 52 -32 119q0 22 3 47q8 41 31 63 q22 25 61 29z" />
<glyph unicode="&#xbc;" horiz-adv-x="3158" d="M2419 242l-101 247l463 811h289v-825h113v-233h-113v-242h-266v242h-385zM2804 881l-219 -400h219v400zM1716 301q0 -41 39 -55q43 -14 69.5 9.5t65.5 90.5q8 16 44 77.5t57 100.5l329 594q14 35 54 96q39 59 79 62h162q43 0 23 -41l-934 -1774q-4 -8 -12.5 -11t-16.5 3 q-82 41 -100 96q-8 29 65 183l176 368q-98 -78 -182 -53q-70 23 -102 96q-27 53 -16.5 134t33 150t52.5 128l213 399q90 158 66 191q-18 29 -55 22q-59 -10 -117.5 -95t-91.5 -167q-16 -41 -64 8q-29 33 -35 64q-8 39 43.5 119t108.5 137q104 111 244 84q141 -27 174 -127 q31 -90 -82 -295l-250 -469q-41 -80 -39 -125zM2484 1403q-41 0 -69.5 27.5t-28.5 68.5q0 39 28.5 66.5t69.5 27.5t67.5 -26.5t26.5 -67.5t-26.5 -68.5t-67.5 -27.5zM2134 1403q-41 0 -68.5 27.5t-27.5 68.5q0 39 27.5 66.5t68.5 27.5q39 0 66.5 -27.5t27.5 -66.5 q0 -41 -27.5 -68.5t-66.5 -27.5zM612 1300h201v-1300h-268v1059h-154v176z" />
<glyph unicode="&#xbd;" horiz-adv-x="3158" d="M2447 907v219l168 174h381l168 -174v-352l-450 -434v-98h456v-242h-733v459l459 440v160h-182v-152h-267zM1716 301q0 -41 39 -55q43 -14 69.5 9.5t65.5 90.5q8 16 44 77.5t57 100.5l329 594q14 35 54 96q39 59 79 62h162q43 0 23 -41l-934 -1774q-4 -8 -12.5 -11 t-16.5 3q-82 41 -100 96q-8 29 65 183l176 368q-98 -78 -182 -53q-70 23 -102 96q-27 53 -16.5 134t33 150t52.5 128l213 399q90 158 66 191q-18 29 -55 22q-59 -10 -117.5 -95t-91.5 -167q-16 -41 -64 8q-29 33 -35 64q-8 39 43.5 119t108.5 137q104 111 244 84 q141 -27 174 -127q31 -90 -82 -295l-250 -469q-41 -80 -39 -125zM2484 1403q-41 0 -69.5 27.5t-28.5 68.5q0 39 28.5 66.5t69.5 27.5t67.5 -26.5t26.5 -67.5t-26.5 -68.5t-67.5 -27.5zM2134 1403q-41 0 -68.5 27.5t-27.5 68.5q0 39 27.5 66.5t68.5 27.5q39 0 66.5 -27.5 t27.5 -66.5q0 -41 -27.5 -68.5t-66.5 -27.5zM612 1300h201v-1300h-268v1059h-154v176z" />
<glyph unicode="&#xbe;" horiz-adv-x="3158" d="M2419 242l-101 247l463 811h289v-825h113v-233h-113v-242h-266v242h-385zM2804 881l-219 -400h219v400zM1716 301q0 -41 39 -55q43 -14 69.5 9.5t65.5 90.5q8 16 44 77.5t57 100.5l329 594q14 35 54 96q39 59 79 62h162q43 0 23 -41l-934 -1774q-4 -8 -12.5 -11t-16.5 3 q-82 41 -100 96q-8 29 65 183l176 368q-98 -78 -182 -53q-70 23 -102 96q-27 53 -16.5 134t33 150t52.5 128l213 399q90 158 66 191q-18 29 -55 22q-59 -10 -117.5 -95t-91.5 -167q-16 -41 -64 8q-29 33 -35 64q-8 39 43.5 119t108.5 137q104 111 244 84q141 -27 174 -127 q31 -90 -82 -295l-250 -469q-41 -80 -39 -125zM2484 1403q-41 0 -69.5 27.5t-28.5 68.5q0 39 28.5 66.5t69.5 27.5t67.5 -26.5t26.5 -67.5t-26.5 -68.5t-67.5 -27.5zM2134 1403q-41 0 -68.5 27.5t-27.5 68.5q0 39 27.5 66.5t68.5 27.5q39 0 66.5 -27.5t27.5 -66.5 q0 -41 -27.5 -68.5t-66.5 -27.5zM403 0l-167 174v236h266v-168h182v286h-182v260h182v271h-182v-152h-266v219l167 174h381l168 -174v-323l-155 -146l155 -151v-334l-168 -172h-381z" />
<glyph unicode="&#xc0;" horiz-adv-x="1273" d="M1475 985l-211 -387q55 6 65 2q27 -10 31 -45q4 -39 -14 -57q-23 -23 -150 -35q-2 -4 -13 -24l-19 -32l-20 -38l-23 -44l-19 -43q-10 -24 -16.5 -43.5t-10.5 -38t-3 -32.5t7 -25q18 -33 64 -26q37 4 139 98t135 143v-84q-4 -8 -42 -51l-50 -57q-23 -25 -82 -76t-86 -67 q-109 -68 -192 -25q-47 25 -75 78t-32 104q-8 92 74 256q-72 -6 -115 -10q-27 -2 -68.5 -6l-70.5 -7t-43 -3q-25 -49 -78 -181l-90 -215q-4 -23 -12.5 -27.5t-24.5 3.5q-33 6 -91 25.5t-73 37.5q-8 10 1 39t38 88l35 72q14 31 43 83t31 56q-37 -4 -92 2q-68 14 -74 56 q-4 18 12 57t53 76q59 -31 168 -21q27 0 47 4q8 8 21 29l14 20l60 82q68 98 211 269l43 47q70 76 142.5 141.5t179 122.5t185.5 43q47 -8 97.5 -41t70.5 -80q19 -45 -77 -213zM1403 1589q35 -51 127 -137l-10 -29q-76 35 -155 102.5t-108 141.5q-10 33 7 64q4 14 23.5 20 t33.5 2q8 -2 13 -4t9.5 -3t6.5 -4t3 -6t4 -9.5t5 -12.5t10 -35q2 -10 4 -16q0 -4 4 -12q9 -39 23 -62zM889 582q102 4 119 4q2 4 35 57l55 86l124 200l101 165q41 61 37 77q-6 23 -49 23q-88 2 -281.5 -230.5t-281.5 -388.5q75 5 141 7z" />
<glyph unicode="&#xc1;" horiz-adv-x="1273" d="M1475 985l-211 -387q55 6 65 2q27 -10 31 -45q4 -39 -14 -57q-23 -23 -150 -35q-2 -4 -13 -24l-19 -32l-20 -38l-23 -44l-19 -43q-10 -24 -16.5 -43.5t-10.5 -38t-3 -32.5t7 -25q18 -33 64 -26q37 4 139 98t135 143v-84q-4 -8 -42 -51l-50 -57q-23 -25 -82 -76t-86 -67 q-109 -68 -192 -25q-47 25 -75 78t-32 104q-8 92 74 256q-72 -6 -115 -10q-27 -2 -68.5 -6l-70.5 -7t-43 -3q-25 -49 -78 -181l-90 -215q-4 -23 -12.5 -27.5t-24.5 3.5q-33 6 -91 25.5t-73 37.5q-8 10 1 39t38 88l35 72q14 31 43 83t31 56q-37 -4 -92 2q-68 14 -74 56 q-4 18 12 57t53 76q59 -31 168 -21q27 0 47 4q8 8 21 29l14 20l60 82q68 98 211 269l43 47q70 76 142.5 141.5t179 122.5t185.5 43q47 -8 97.5 -41t70.5 -80q19 -45 -77 -213zM1440 1442l-10 28q96 90 126 138q12 23 23 61q2 6 3 8t2 7.5t3 13.5q6 29 10 35q2 4 5.5 9t4.5 8 t3 6t3 4t5 3l8 4q4 2 12 5q14 4 34 -3.5t24 -19.5q16 -31 6 -63q-29 -76 -106.5 -142.5t-155.5 -101.5zM889 582q102 4 119 4q2 4 35 57l55 86l124 200l101 165q41 61 37 77q-6 23 -49 23q-88 2 -281.5 -230.5t-281.5 -388.5q75 5 141 7z" />
<glyph unicode="&#xc2;" horiz-adv-x="1273" d="M1475 985l-211 -387q55 6 65 2q27 -10 31 -45q4 -39 -14 -57q-23 -23 -150 -35q-2 -4 -13 -24l-19 -32l-20 -38l-23 -44l-19 -43q-10 -24 -16.5 -43.5t-10.5 -38t-3 -32.5t7 -25q18 -33 64 -26q37 4 139 98t135 143v-84q-4 -8 -42 -51l-50 -57q-23 -25 -82 -76t-86 -67 q-109 -68 -192 -25q-47 25 -75 78t-32 104q-8 92 74 256q-72 -6 -115 -10q-27 -2 -68.5 -6l-70.5 -7t-43 -3q-25 -49 -78 -181l-90 -215q-4 -23 -12.5 -27.5t-24.5 3.5q-33 6 -91 25.5t-73 37.5q-8 10 1 39t38 88l35 72q14 31 43 83t31 56q-37 -4 -92 2q-68 14 -74 56 q-4 18 12 57t53 76q59 -31 168 -21q27 0 47 4q8 8 21 29l14 20l60 82q68 98 211 269l43 47q70 76 142.5 141.5t179 122.5t185.5 43q47 -8 97.5 -41t70.5 -80q19 -45 -77 -213zM1221 1442q109 86 159 135t133 162h25q57 -188 135 -303l-41 -15q-16 12 -30.5 27.5t-27.5 38.5 l-22 37q-8 14 -22 45l-21 43l-61 -56q-47 -43 -66.5 -58t-55.5 -36.5t-69 -31.5zM889 582q102 4 119 4q2 4 35 57l55 86l124 200l101 165q41 61 37 77q-6 23 -49 23q-88 2 -281.5 -230.5t-281.5 -388.5q75 5 141 7z" />
<glyph unicode="&#xc3;" horiz-adv-x="1273" d="M1475 985l-211 -387q55 6 65 2q27 -10 31 -45q4 -39 -14 -57q-23 -23 -150 -35q-2 -4 -13 -24l-19 -32l-20 -38l-23 -44l-19 -43q-10 -24 -16.5 -43.5t-10.5 -38t-3 -32.5t7 -25q18 -33 64 -26q37 4 139 98t135 143v-84q-4 -8 -42 -51l-50 -57q-23 -25 -82 -76t-86 -67 q-109 -68 -192 -25q-47 25 -75 78t-32 104q-8 92 74 256q-72 -6 -115 -10q-27 -2 -68.5 -6l-70.5 -7t-43 -3q-25 -49 -78 -181l-90 -215q-4 -23 -12.5 -27.5t-24.5 3.5q-33 6 -91 25.5t-73 37.5q-8 10 1 39t38 88l35 72q14 31 43 83t31 56q-37 -4 -92 2q-68 14 -74 56 q-4 18 12 57t53 76q59 -31 168 -21q27 0 47 4q8 8 21 29l14 20l60 82q68 98 211 269l43 47q70 76 142.5 141.5t179 122.5t185.5 43q47 -8 97.5 -41t70.5 -80q19 -45 -77 -213zM1561 1538l47 -6q16 -2 32.5 10t24.5 21.5t20.5 26t22.5 24.5h31q-10 -49 -41 -99.5t-82 -66.5 q-23 -8 -33 -11t-26.5 -2t-24.5 3t-40 12t-56 16q-96 31 -131 11q-14 -8 -20.5 -17.5t-9.5 -22t-5 -16.5h-39q10 55 41 101.5t76 58.5q18 12 58 5t58.5 -12t53.5 -19.5t43 -16.5zM889 582q102 4 119 4q2 4 35 57l55 86l124 200l101 165q41 61 37 77q-6 23 -49 23 q-88 2 -281.5 -230.5t-281.5 -388.5q75 5 141 7z" />
<glyph unicode="&#xc4;" horiz-adv-x="1273" d="M1475 985l-211 -387q55 6 65 2q27 -10 31 -45q4 -39 -14 -57q-23 -23 -150 -35q-2 -4 -13 -24l-19 -32l-20 -38l-23 -44l-19 -43q-10 -24 -16.5 -43.5t-10.5 -38t-3 -32.5t7 -25q18 -33 64 -26q37 4 139 98t135 143v-84q-4 -8 -42 -51l-50 -57q-23 -25 -82 -76t-86 -67 q-109 -68 -192 -25q-47 25 -75 78t-32 104q-8 92 74 256q-72 -6 -115 -10q-27 -2 -68.5 -6l-70.5 -7t-43 -3q-25 -49 -78 -181l-90 -215q-4 -23 -12.5 -27.5t-24.5 3.5q-33 6 -91 25.5t-73 37.5q-8 10 1 39t38 88l35 72q14 31 43 83t31 56q-37 -4 -92 2q-68 14 -74 56 q-4 18 12 57t53 76q59 -31 168 -21q27 0 47 4q8 8 21 29l14 20l60 82q68 98 211 269l43 47q70 76 142.5 141.5t179 122.5t185.5 43q47 -8 97.5 -41t70.5 -80q19 -45 -77 -213zM1647 1417q-41 0 -69 28t-28 68q0 39 28 67t69 28q39 0 67.5 -28t28.5 -66.5t-27.5 -67.5 t-68.5 -29zM1294 1417q-41 0 -68.5 29t-27.5 67.5t28.5 66.5t67.5 28t67 -28t28 -67q0 -41 -28 -68.5t-67 -27.5zM889 582q102 4 119 4q2 4 35 57l55 86l124 200l101 165q41 61 37 77q-6 23 -49 23q-88 2 -281.5 -230.5t-281.5 -388.5q75 5 141 7z" />
<glyph unicode="&#xc5;" horiz-adv-x="1273" d="M1475 985l-211 -387q55 6 65 2q27 -10 31 -45q4 -39 -14 -57q-23 -23 -150 -35q-2 -4 -13 -24l-19 -32l-20 -38l-23 -44l-19 -43q-10 -24 -16.5 -43.5t-10.5 -38t-3 -32.5t7 -25q18 -33 64 -26q37 4 139 98t135 143v-84q-4 -8 -42 -51l-50 -57q-23 -25 -82 -76t-86 -67 q-109 -68 -192 -25q-47 25 -75 78t-32 104q-8 92 74 256q-72 -6 -115 -10q-27 -2 -68.5 -6l-70.5 -7t-43 -3q-25 -49 -78 -181l-90 -215q-4 -23 -12.5 -27.5t-24.5 3.5q-33 6 -91 25.5t-73 37.5q-8 10 1 39t38 88l35 72q14 31 43 83t31 56q-37 -4 -92 2q-68 14 -74 56 q-4 18 12 57t53 76q59 -31 168 -21q27 0 47 4q8 8 21 29l14 20l60 82q68 98 211 269l43 47q70 76 142.5 141.5t179 122.5t185.5 43q47 -8 97.5 -41t70.5 -80q19 -45 -77 -213zM1503.5 1423q-71.5 0 -122 50.5t-50.5 122t50.5 121.5t121.5 50q76 0 124 -48t48 -124 q0 -74 -50 -123t-121.5 -49zM889 582q102 4 119 4q2 4 35 57l55 86l124 200l101 165q41 61 37 77q-6 23 -49 23q-88 2 -281.5 -230.5t-281.5 -388.5q75 5 141 7zM1401 1595q0 -41 29.5 -70.5t72.5 -29.5t73 29.5t30 70.5q0 43 -30 74t-73 31t-72.5 -31t-29.5 -74z" />
<glyph unicode="&#xc6;" horiz-adv-x="1712" d="M954 279q-6 88 11 157q-33 -2 -33 0q-72 -6 -115 -10q-27 -2 -68.5 -6l-70.5 -7t-43 -3q-25 -49 -78 -181l-90 -215q-4 -23 -12.5 -27.5t-24.5 3.5q-33 6 -91 25.5t-73 37.5q-8 10 1 39t38 88l35 72q14 31 43 83t31 56q-37 -4 -92 2q-68 14 -74 56q-4 18 12 57t53 76 q59 -31 168 -21q27 0 47 4q8 8 21 29l14 20l60 82q68 98 211 269l43 47q70 76 142.5 141.5t179 122.5t185.5 43q23 -6 27 -41q45 35 94 55q172 74 312 -20q70 -47 92 -87t12 -102q-8 -37 -33.5 -96t-50.5 -74q-18 -8 -67.5 -5t-65.5 12q-43 16 -33 45q2 4 16.5 26.5t30 52 t21.5 52.5q12 37 -29 59q-37 14 -92 -12q-66 -37 -111 -92.5t-47 -110.5q-4 -31 11.5 -70t50.5 -63q20 -14 90 -23q45 -4 63 -4q29 0 23 -24q-14 -51 -17 -58q-18 -51 -32 -51q-127 -6 -260.5 -66.5t-208.5 -183.5q-80 -133 -25 -239q37 -84 127 -95q106 -10 221 127 q98 115 82 177q-10 29 -41 38q-63 12 -129 -53q-10 -10 -57 -71q-4 -6 -12.5 -16.5t-13.5 -17.5l-11 -16q-6 -8 -11 -12t-10 -4q-18 -2 -30 12q-23 18 -10 70q35 139 202 203q37 18 108.5 17t108.5 -30q72 -53 68 -149q-12 -104 -77.5 -198.5t-176.5 -162.5 q-78 -47 -182.5 -51t-177.5 39q-165 91 -179 273zM1266 1044q12 76 63 150h-18q-88 2 -281.5 -230.5t-281.5 -388.5q76 4 141 7q102 4 119 4q6 8 43 18q27 29 67 64q115 88 266 123q-68 35 -99 107t-19 146z" />
<glyph unicode="&#xc7;" horiz-adv-x="913" d="M215 -203q47 133 166 185q-86 31 -148 118q-66 96 -76 229.5t19 251t82 232.5q35 76 80 152.5t109.5 160.5t146.5 139.5t164 63.5q160 20 266 -129q16 -20 25.5 -40.5t9.5 -47.5t1 -41t-9.5 -46t-12.5 -39t-18 -45t-16 -40l-17 -39q-10 -25 -14 -33l-12 -25 q-8 -17 -13.5 -22.5t-14.5 -15.5t-17.5 -13l-21.5 -7.5t-28.5 -6.5t-36.5 -2q-70 -4 -90 23q-10 14 62 176q33 72 67 162q25 59 -16 59q-68 0 -117 -33q-100 -74 -196.5 -243.5t-145.5 -340.5t-35 -264q25 -123 103 -143q39 -12 101.5 22.5t105.5 73.5l114 109q41 41 60 68 q41 49 57 49q23 0 45 -17q14 -12 6 -30q-49 -133 -153.5 -259t-235.5 -172q25 -18 41 -38q29 -33 31 -97.5t-19 -109.5q-29 -72 -100.5 -137.5t-142.5 -79.5q-68 -10 -95 24q-25 39 -8 88q10 47 70 66q59 20 82.5 35.5t23.5 42.5q0 43 -51 51q-41 10 -178 -25z" />
<glyph unicode="&#xc8;" horiz-adv-x="919" d="M850 821q29 0 22 -24q-6 -33 -16 -58q-18 -51 -31 -51q-127 -6 -261 -66.5t-210 -183.5q-80 -133 -24 -239q37 -84 129 -95q109 -10 219 127q100 117 84 177q-8 29 -43 38q-63 10 -127 -53q-16 -14 -60 -71q-4 -6 -12 -16.5l-13 -17.5l-11 -16q-6 -8 -11.5 -12t-9.5 -4 q-16 -2 -29 12q-23 18 -10 70q35 141 203 203q35 18 107.5 17t107.5 -30q78 -59 68 -149q-25 -223 -254 -361q-78 -47 -180.5 -51t-180.5 39q-164 92 -178 273q-18 248 166 389q117 90 268 123q-70 35 -101.5 107.5t-19.5 145.5q33 197 238 289q174 74 313 -20 q68 -47 91.5 -87t11.5 -102q-8 -37 -34 -96t-50 -74q-16 -8 -66.5 -5t-66.5 12q-45 16 -31 45q0 2 28.5 51t36.5 80q12 35 -26 59q-39 14 -92 -12q-66 -37 -111 -92.5t-47 -110.5q-4 -33 10.5 -71t48.5 -62q20 -14 92 -23q50 -4 62 -4zM928 1614q35 -51 125 -135l-11 -31 q-76 35 -153.5 102.5t-106.5 141.5q-12 37 6 63q4 12 23.5 20.5t32.5 4.5l15 -6q5 -2 9 -5.5t5 -5.5l4.5 -9t7.5 -13q2 -6 4 -13.5t4 -13.5t2 -8q2 -10 3 -16.5t5 -14.5q13 -41 25 -61z" />
<glyph unicode="&#xc9;" horiz-adv-x="919" d="M850 821q29 0 22 -24q-6 -33 -16 -58q-18 -51 -31 -51q-127 -6 -261 -66.5t-210 -183.5q-80 -133 -24 -239q37 -84 129 -95q109 -10 219 127q100 117 84 177q-8 29 -43 38q-63 10 -127 -53q-16 -14 -60 -71q-4 -6 -12 -16.5l-13 -17.5l-11 -16q-6 -8 -11.5 -12t-9.5 -4 q-16 -2 -29 12q-23 18 -10 70q35 141 203 203q35 18 107.5 17t107.5 -30q78 -59 68 -149q-25 -223 -254 -361q-78 -47 -180.5 -51t-180.5 39q-164 92 -178 273q-18 248 166 389q117 90 268 123q-70 35 -101.5 107.5t-19.5 145.5q33 197 238 289q174 74 313 -20 q68 -47 91.5 -87t11.5 -102q-8 -37 -34 -96t-50 -74q-16 -8 -66.5 -5t-66.5 12q-45 16 -31 45q0 2 28.5 51t36.5 80q12 35 -26 59q-39 14 -92 -12q-66 -37 -111 -92.5t-47 -110.5q-4 -33 10.5 -71t48.5 -62q20 -14 92 -23q50 -4 62 -4zM901 1452l-10 29q98 92 125 137 q12 20 24 61l3 10q1 3 2.5 8t3.5 13q10 33 12 35q4 6 8 17.5t9 13.5l22 8q14 4 33.5 -4t23.5 -21q20 -31 6 -63q-29 -74 -107.5 -141.5t-154.5 -102.5z" />
<glyph unicode="&#xca;" horiz-adv-x="919" d="M850 821q29 0 22 -24q-6 -33 -16 -58q-18 -51 -31 -51q-127 -6 -261 -66.5t-210 -183.5q-80 -133 -24 -239q37 -84 129 -95q109 -10 219 127q100 117 84 177q-8 29 -43 38q-63 10 -127 -53q-16 -14 -60 -71q-4 -6 -12 -16.5l-13 -17.5l-11 -16q-6 -8 -11.5 -12t-9.5 -4 q-16 -2 -29 12q-23 18 -10 70q35 141 203 203q35 18 107.5 17t107.5 -30q78 -59 68 -149q-25 -223 -254 -361q-78 -47 -180.5 -51t-180.5 39q-164 92 -178 273q-18 248 166 389q117 90 268 123q-70 35 -101.5 107.5t-19.5 145.5q33 197 238 289q174 74 313 -20 q68 -47 91.5 -87t11.5 -102q-8 -37 -34 -96t-50 -74q-16 -8 -66.5 -5t-66.5 12q-45 16 -31 45q0 2 28.5 51t36.5 80q12 35 -26 59q-39 14 -92 -12q-66 -37 -111 -92.5t-47 -110.5q-4 -33 10.5 -71t48.5 -62q20 -14 92 -23q50 -4 62 -4zM719 1477q102 78 153.5 129t139.5 163 h22q57 -184 140 -301l-44 -14q-12 8 -22 18.5t-21.5 25.5t-17.5 24.5t-17.5 30t-14.5 27.5l-15 33.5t-14 31.5q-8 -6 -51 -44l-54 -50q-12 -11 -44 -34.5t-55.5 -35t-47.5 -19.5z" />
<glyph unicode="&#xcb;" horiz-adv-x="919" d="M850 821q29 0 22 -24q-6 -33 -16 -58q-18 -51 -31 -51q-127 -6 -261 -66.5t-210 -183.5q-80 -133 -24 -239q37 -84 129 -95q109 -10 219 127q100 117 84 177q-8 29 -43 38q-63 10 -127 -53q-16 -14 -60 -71q-4 -6 -12 -16.5l-13 -17.5l-11 -16q-6 -8 -11.5 -12t-9.5 -4 q-16 -2 -29 12q-23 18 -10 70q35 141 203 203q35 18 107.5 17t107.5 -30q78 -59 68 -149q-25 -223 -254 -361q-78 -47 -180.5 -51t-180.5 39q-164 92 -178 273q-18 248 166 389q117 90 268 123q-70 35 -101.5 107.5t-19.5 145.5q33 197 238 289q174 74 313 -20 q68 -47 91.5 -87t11.5 -102q-8 -37 -34 -96t-50 -74q-16 -8 -66.5 -5t-66.5 12q-45 16 -31 45q0 2 28.5 51t36.5 80q12 35 -26 59q-39 14 -92 -12q-66 -37 -111 -92.5t-47 -110.5q-4 -33 10.5 -71t48.5 -62q20 -14 92 -23q50 -4 62 -4zM1126 1423q-41 0 -69.5 28t-28.5 69 q0 39 28.5 66.5t69.5 27.5t68 -26.5t27 -67.5t-28 -69t-67 -28zM774 1423q-41 0 -68.5 28t-27.5 69q0 39 27.5 66.5t68.5 27.5t67.5 -26.5t26.5 -67.5t-26.5 -69t-67.5 -28z" />
<glyph unicode="&#xcc;" horiz-adv-x="976" d="M1300 1249q20 -41 5 -55q-57 -55 -96.5 -108.5t-55.5 -87.5l-55 -119q-33 -74 -51 -123q45 8 100 22q41 14 51 4q12 -6 14 -28.5t-10 -32.5q-49 -35 -219 -100l-68 -158l-51 -117q-18 -41 -60 -115.5t-79 -116.5t-93.5 -81t-115.5 -47q-164 -27 -278 106q-27 23 -5 45 q51 51 76 23q66 -74 156 -43q51 18 119.5 128.5t105.5 196.5t60 148q-164 0 -242 121q-31 47 -33 119.5t23 132.5q78 195 374 280q68 18 222.5 41t179.5 4q1 -2 26 -39zM1153 1589q35 -55 123 -137l-8 -29q-78 35 -157 102.5t-105 141.5q-10 33 6 64q4 14 22.5 20t32.5 2 q8 -2 13 -4t9.5 -3t6.5 -4t3 -6t4 -9.5t5 -12.5q10 -14 10 -35q2 -10 4 -16q0 -4 4 -12q15 -46 27 -62zM1059 1178q-117 4 -224.5 -47.5t-168.5 -151.5q-25 -47 -29 -103.5t20 -101.5q39 -70 152 -63q4 10 24.5 55t25.5 57.5t23.5 51t29 55t30 50.5t34.5 55l38 51 q23 30 47 57q8 8 9 16t-3 13.5t-8 5.5z" />
<glyph unicode="&#xcd;" horiz-adv-x="976" d="M1300 1249q20 -41 5 -55q-57 -55 -96.5 -108.5t-55.5 -87.5l-55 -119q-33 -74 -51 -123q45 8 100 22q41 14 51 4q12 -6 14 -28.5t-10 -32.5q-49 -35 -219 -100l-68 -158l-51 -117q-18 -41 -60 -115.5t-79 -116.5t-93.5 -81t-115.5 -47q-164 -27 -278 106q-27 23 -5 45 q51 51 76 23q66 -74 156 -43q51 18 119.5 128.5t105.5 196.5t60 148q-164 0 -242 121q-31 47 -33 119.5t23 132.5q78 195 374 280q68 18 222.5 41t179.5 4q1 -2 26 -39zM1147 1423l-10 29q78 68 125 137q12 20 26 62q2 4 6 28q6 27 13 35q4 6 7 16.5t5 12.5t8 4t20.5 6 t32 -2t23.5 -20q16 -37 4 -64q-27 -74 -105.5 -141.5t-154.5 -102.5zM1059 1178q-117 4 -224.5 -47.5t-168.5 -151.5q-25 -47 -29 -103.5t20 -101.5q39 -70 152 -63q4 10 24.5 55t25.5 57.5t23.5 51t29 55t30 50.5t34.5 55l38 51q23 30 47 57q8 8 9 16t-3 13.5t-8 5.5z" />
<glyph unicode="&#xce;" horiz-adv-x="976" d="M1300 1249q20 -41 5 -55q-57 -55 -96.5 -108.5t-55.5 -87.5l-55 -119q-33 -74 -51 -123q45 8 100 22q41 14 51 4q12 -6 14 -28.5t-10 -32.5q-49 -35 -219 -100l-68 -158l-51 -117q-18 -41 -60 -115.5t-79 -116.5t-93.5 -81t-115.5 -47q-164 -27 -278 106q-27 23 -5 45 q51 51 76 23q66 -74 156 -43q51 18 119.5 128.5t105.5 196.5t60 148q-164 0 -242 121q-31 47 -33 119.5t23 132.5q78 195 374 280q68 18 222.5 41t179.5 4q1 -2 26 -39zM1006 1427q109 86 157.5 135.5t132.5 161.5h25q55 -184 137 -303l-43 -16q-16 12 -29.5 27.5 t-26.5 37.5l-23 38q-9 15 -23 45l-21 42q-18 -14 -62 -54t-65.5 -56.5t-56.5 -38t-68 -31.5zM1059 1178q-117 4 -224.5 -47.5t-168.5 -151.5q-25 -47 -29 -103.5t20 -101.5q39 -70 152 -63q4 10 24.5 55t25.5 57.5t23.5 51t29 55t30 50.5t34.5 55l38 51q23 30 47 57 q8 8 9 16t-3 13.5t-8 5.5z" />
<glyph unicode="&#xcf;" horiz-adv-x="976" d="M1300 1249q20 -41 5 -55q-57 -55 -96.5 -108.5t-55.5 -87.5l-55 -119q-33 -74 -51 -123q45 8 100 22q41 14 51 4q12 -6 14 -28.5t-10 -32.5q-49 -35 -219 -100l-68 -158l-51 -117q-18 -41 -60 -115.5t-79 -116.5t-93.5 -81t-115.5 -47q-164 -27 -278 106q-27 23 -5 45 q51 51 76 23q66 -74 156 -43q51 18 119.5 128.5t105.5 196.5t60 148q-164 0 -242 121q-31 47 -33 119.5t23 132.5q78 195 374 280q68 18 222.5 41t179.5 4q1 -2 26 -39zM1368 1403q-41 0 -69.5 27.5t-28.5 68.5q0 39 28.5 66.5t69.5 27.5t67.5 -26.5t26.5 -67.5t-26.5 -68.5 t-67.5 -27.5zM1016 1403q-39 0 -66.5 27.5t-27.5 68.5q0 39 27.5 66.5t66.5 27.5q41 0 68.5 -27.5t27.5 -66.5q0 -41 -27.5 -68.5t-68.5 -27.5zM1059 1178q-117 4 -224.5 -47.5t-168.5 -151.5q-25 -47 -29 -103.5t20 -101.5q39 -70 152 -63q4 10 24.5 55t25.5 57.5t23.5 51 t29 55t30 50.5t34.5 55l38 51q23 30 47 57q8 8 9 16t-3 13.5t-8 5.5z" />
<glyph unicode="&#xd1;" horiz-adv-x="1323" d="M1055 1288q43 -47 49 -119q190 178 330 148q47 -8 108.5 -42t75.5 -81q0 -20 4 -26.5t-5 -30t-10 -31.5t-13.5 -32.5t-16.5 -31t-16.5 -29t-14.5 -26.5l-372 -649q-66 -106 -58 -178q2 -43 47 -54q59 -14 133 56q131 119 183 190v-86q-94 -125 -205 -208t-219 -81 q-98 4 -135 66q-25 39 -31 81t6 88t29.5 84t46.5 91l368 653q27 57 25 66q-4 39 -55 41q-41 2 -130 -91t-130 -155q-113 -164 -179 -268q-57 -94 -130.5 -237.5t-118.5 -239.5l-46 -97q-20 -41 -37.5 -50t-54.5 -9q-123 0 -135 18q-4 6 -5 15.5t2 23t6 24.5t11.5 28.5 t14.5 28.5l17 32q11 20 16 31l426 796q18 27 39.5 80t11.5 78q-23 39 -72 41q-45 4 -79 -17.5t-85 -80.5q-18 -25 -69 -101l-37 -59q-12 -23 -22.5 -30t-14.5 -5t-12 10q-39 43 -47.5 61.5t4.5 59.5q35 88 151.5 190.5t212.5 125.5q49 16 122 0.5t116 -62.5zM1403 1556 q31 -6 47 -7t32.5 10.5t25 20.5t20.5 26.5t22 25.5h29q-29 -137 -119 -168l-35 -11t-28.5 -1t-24.5 3t-39 11.5t-55 16.5q-96 31 -131 10q-14 -8 -20.5 -17.5t-9.5 -22.5t-3 -15h-41q10 55 41 101t78 58q53 6 77.5 2t74 -22.5t59.5 -20.5z" />
<glyph unicode="&#xd2;" horiz-adv-x="1077" d="M1174 764q-20 -131 -107 -293q43 12 113 76q33 33 61 14q35 -25 16 -45q-109 -121 -251 -143l-64 -84q-252 -319 -418 -318q-135 4 -211 121q-145 233 47 680q78 174 234 350t299 205q164 31 270 -76q78 -76 60 -200q-12 -57 -39 -105q6 -76 -10 -182zM1079 1567 q10 -16 123 -137l-6 -29q-76 35 -155.5 102.5t-108.5 141.5q-10 33 6 65q6 12 24.5 19.5t32.5 3.5q12 -4 18.5 -7.5t8.5 -5.5t5 -12t7 -16q2 -6 10 -35q2 -10 5 -17q0 -4 4 -12q10 -38 26 -61zM891 461q166 281 147 434q-8 49 -32 61q-27 12 -54 -8q-55 -35 -88 -123 t-39 -184q-4 -55 4 -96q31 -64 62 -84zM1079 1069q-14 70 -39 90q-20 18 -67 15q-80 -10 -182.5 -135.5t-180.5 -276.5q-223 -416 -155 -555q29 -63 102 -64q119 -4 289 248q-49 31 -82 92q-45 90 -22.5 227.5t98.5 245.5q98 140 239 113z" />
<glyph unicode="&#xd3;" horiz-adv-x="1077" d="M1174 764q-20 -131 -107 -293q43 12 113 76q33 33 61 14q35 -25 16 -45q-109 -121 -251 -143l-64 -84q-252 -319 -418 -318q-135 4 -211 121q-145 233 47 680q78 174 234 350t299 205q164 31 270 -76q78 -76 60 -200q-12 -57 -39 -105q6 -76 -10 -182zM1042 1430l-8 30 q92 86 125 135q8 12 27 62l3 9q1 3 2 8t3 14l2 12q2 14 6 22q2 6 5 11.5t4 8.5t3.5 5t6.5 4t9 4t13 6q14 4 32.5 -4t24.5 -18q18 -31 7 -66q-29 -74 -108 -141t-157 -102zM891 461q166 281 147 434q-8 49 -32 61q-27 12 -54 -8q-55 -35 -88 -123t-39 -184q-4 -55 4 -96 q31 -64 62 -84zM1079 1069q-14 70 -39 90q-20 18 -67 15q-80 -10 -182.5 -135.5t-180.5 -276.5q-223 -416 -155 -555q29 -63 102 -64q119 -4 289 248q-49 31 -82 92q-45 90 -22.5 227.5t98.5 245.5q98 140 239 113z" />
<glyph unicode="&#xd4;" horiz-adv-x="1077" d="M1174 764q-20 -131 -107 -293q43 12 113 76q33 33 61 14q35 -25 16 -45q-109 -121 -251 -143l-64 -84q-252 -319 -418 -318q-135 4 -211 121q-145 233 47 680q78 174 234 350t299 205q164 31 270 -76q78 -76 60 -200q-12 -57 -39 -105q6 -76 -10 -182zM862 1442 q109 86 159 135t134 162h23q55 -184 137 -303l-43 -15q-20 14 -39 39t-28 41.5t-28.5 58.5t-25.5 52l-51 -45l-53 -46l-47 -37q-28 -22 -52 -34t-49 -20zM891 461q166 281 147 434q-8 49 -32 61q-27 12 -54 -8q-55 -35 -88 -123t-39 -184q-4 -55 4 -96q31 -64 62 -84z M1079 1069q-14 70 -39 90q-20 18 -67 15q-80 -10 -182.5 -135.5t-180.5 -276.5q-223 -416 -155 -555q29 -63 102 -64q119 -4 289 248q-49 31 -82 92q-45 90 -22.5 227.5t98.5 245.5q98 140 239 113z" />
<glyph unicode="&#xd5;" horiz-adv-x="1077" d="M1174 764q-20 -131 -107 -293q43 12 113 76q33 33 61 14q35 -25 16 -45q-109 -121 -251 -143l-64 -84q-252 -319 -418 -318q-135 4 -211 121q-145 233 47 680q78 174 234 350t299 205q164 31 270 -76q78 -76 60 -200q-12 -57 -39 -105q6 -76 -10 -182zM1200 1561 q31 -4 48.5 -6.5t33.5 10t23.5 20.5t20.5 25.5t22 25.5h32q-35 -137 -123 -166q-23 -8 -33 -11t-26 -2t-24.5 3t-40 12.5t-56.5 16.5q-100 27 -131 10q-14 -8 -20 -17t-9.5 -22.5t-5.5 -17.5h-41q31 137 119 162q20 10 58 5t58.5 -12.5l52.5 -19.5zM891 461q166 281 147 434 q-8 49 -32 61q-27 12 -54 -8q-55 -35 -88 -123t-39 -184q-4 -55 4 -96q31 -64 62 -84zM1079 1069q-14 70 -39 90q-20 18 -67 15q-80 -10 -182.5 -135.5t-180.5 -276.5q-223 -416 -155 -555q29 -63 102 -64q119 -4 289 248q-49 31 -82 92q-45 90 -22.5 227.5t98.5 245.5 q98 140 239 113z" />
<glyph unicode="&#xd6;" horiz-adv-x="1077" d="M1174 764q-20 -131 -107 -293q43 12 113 76q33 33 61 14q35 -25 16 -45q-109 -121 -251 -143l-64 -84q-252 -319 -418 -318q-135 4 -211 121q-145 233 47 680q78 174 234 350t299 205q164 31 270 -76q78 -76 60 -200q-12 -57 -39 -105q6 -76 -10 -182zM1262 1419 q-41 0 -69 28t-28 69q0 39 28 66.5t69 27.5q39 0 67.5 -28t28.5 -66q0 -41 -27.5 -69t-68.5 -28zM909 1419q-39 0 -66.5 28t-27.5 69q0 39 27.5 66.5t66.5 27.5q41 0 69 -28t28 -66q0 -41 -28 -69t-69 -28zM1079 1069q-14 70 -39 90q-20 18 -67 15q-80 -10 -182.5 -135.5 t-180.5 -276.5q-223 -416 -155 -555q29 -63 102 -64q119 -4 289 248q-49 31 -82 92q-45 90 -22.5 227.5t98.5 245.5q98 140 239 113zM891 461q166 281 147 434q-8 49 -32 61q-27 12 -54 -8q-55 -35 -88 -123t-39 -184q-4 -55 4 -96q31 -64 62 -84z" />
<glyph unicode="&#xd8;" horiz-adv-x="1077" d="M283 -49l63 98q-12 14 -33 43q-145 233 47 680q78 174 234 350t299 205q133 25 235 -45l31 49h78l-59 -96q63 -74 45 -184q-12 -57 -39 -105q6 -72 -13 -192q-18 -123 -104 -283q-16 -16 -22.5 -25.5t-7.5 -14.5t-9 -20.5t-22 -37.5l-64 -84q-252 -319 -418 -318 q-72 4 -125 37l-37 -57h-79zM610 762q-217 -403 -159 -547l593 940q-12 23 -71 19q-80 -10 -182.5 -135t-180.5 -277zM846 391q2 6 89 143.5t131 276.5t7 260l-579 -911q27 -16 63 -17q119 -4 289 248z" />
<glyph unicode="&#xd9;" horiz-adv-x="1372" d="M829 350q-41 -88 -34 -110q4 -16 20 -23.5t37 4.5q29 14 59 55q45 49 97 132q201 299 462 827q10 20 15.5 28.5t19 17.5t29.5 9q72 0 92 -2q8 0 24.5 -1t24.5 -1q35 0 41 -16q4 -12 -8 -41l-457 -858l-31 -64l-24 -47q-33 -59 -21.5 -93t27 -44t33.5 -12q39 -2 132 84 t146 157v-86l-26 -33q-72 -96 -181.5 -182t-191.5 -61q-37 10 -66.5 43t-41 56.5t-27.5 62.5q-55 -59 -85 -87t-85 -53.5t-111 -17.5q-86 18 -123 96q-27 37 -20.5 94.5t23 99.5t51.5 111l282 568q4 6 12.5 22t13.5 27.5t14.5 29t12.5 27.5l8 27q5 16 4 23t-3 18 q-14 31 -43 34q-37 6 -92 -43q-80 -76 -164 -247q-27 0 -51 26q-23 23 -23 62q-2 53 28.5 117.5t78.5 113.5q59 61 142 90t163 15q117 -23 157 -121q37 -102 -67 -312zM1270 1585q10 -16 123 -137l-9 -29q-76 35 -154.5 102.5t-107.5 141.5q-10 33 6 66q6 12 24.5 18t33.5 2 q12 -4 18 -7l8 -4q2 -1 5.5 -11.5t7.5 -16.5t10 -35q2 -10 4 -16q0 -4 4 -12q11 -39 27 -62z" />
<glyph unicode="&#xda;" horiz-adv-x="1372" d="M829 350q-41 -88 -34 -110q4 -16 20 -23.5t37 4.5q29 14 59 55q45 49 97 132q201 299 462 827q10 20 15.5 28.5t19 17.5t29.5 9q72 0 92 -2q8 0 24.5 -1t24.5 -1q35 0 41 -16q4 -12 -8 -41l-457 -858l-31 -64l-24 -47q-33 -59 -21.5 -93t27 -44t33.5 -12q39 -2 132 84 t146 157v-86l-26 -33q-72 -96 -181.5 -182t-191.5 -61q-37 10 -66.5 43t-41 56.5t-27.5 62.5q-55 -59 -85 -87t-85 -53.5t-111 -17.5q-86 18 -123 96q-27 37 -20.5 94.5t23 99.5t51.5 111l282 568q4 6 12.5 22t13.5 27.5t14.5 29t12.5 27.5l8 27q5 16 4 23t-3 18 q-14 31 -43 34q-37 6 -92 -43q-80 -76 -164 -247q-27 0 -51 26q-23 23 -23 62q-2 53 28.5 117.5t78.5 113.5q59 61 142 90t163 15q117 -23 157 -121q37 -102 -67 -312zM1255 1393l-8 30q96 90 125 138q8 14 25 59l6 31q10 33 12 35q4 6 7 15t5.5 11t9.5 6t19 8q14 4 32.5 -4 t24.5 -20q16 -37 7 -66q-29 -74 -109 -141t-156 -102z" />
<glyph unicode="&#xdb;" horiz-adv-x="1372" d="M829 350q-41 -88 -34 -110q4 -16 20 -23.5t37 4.5q29 14 59 55q45 49 97 132q201 299 462 827q10 20 15.5 28.5t19 17.5t29.5 9q72 0 92 -2q8 0 24.5 -1t24.5 -1q35 0 41 -16q4 -12 -8 -41l-457 -858l-31 -64l-24 -47q-33 -59 -21.5 -93t27 -44t33.5 -12q39 -2 132 84 t146 157v-86l-26 -33q-72 -96 -181.5 -182t-191.5 -61q-37 10 -66.5 43t-41 56.5t-27.5 62.5q-55 -59 -85 -87t-85 -53.5t-111 -17.5q-86 18 -123 96q-27 37 -20.5 94.5t23 99.5t51.5 111l282 568q4 6 12.5 22t13.5 27.5t14.5 29t12.5 27.5l8 27q5 16 4 23t-3 18 q-14 31 -43 34q-37 6 -92 -43q-80 -76 -164 -247q-27 0 -51 26q-23 23 -23 62q-2 53 28.5 117.5t78.5 113.5q59 61 142 90t163 15q117 -23 157 -121q37 -102 -67 -312zM1085 1440q109 86 159 135t134 160h23q53 -180 137 -303l-41 -15q-16 12 -29.5 26.5t-29 40l-21.5 35 t-23.5 48.5t-19.5 41l-51 -45l-53 -46l-46 -37q-28 -22 -52.5 -34t-49.5 -21z" />
<glyph unicode="&#xdc;" horiz-adv-x="1372" d="M829 350q-41 -88 -34 -110q4 -16 20 -23.5t37 4.5q29 14 59 55q45 49 97 132q201 299 462 827q10 20 15.5 28.5t19 17.5t29.5 9q72 0 92 -2q8 0 24.5 -1t24.5 -1q35 0 41 -16q4 -12 -8 -41l-457 -858l-31 -64l-24 -47q-33 -59 -21.5 -93t27 -44t33.5 -12q39 -2 132 84 t146 157v-86l-26 -33q-72 -96 -181.5 -182t-191.5 -61q-37 10 -66.5 43t-41 56.5t-27.5 62.5q-55 -59 -85 -87t-85 -53.5t-111 -17.5q-86 18 -123 96q-27 37 -20.5 94.5t23 99.5t51.5 111l282 568q4 6 12.5 22t13.5 27.5t14.5 29t12.5 27.5l8 27q5 16 4 23t-3 18 q-14 31 -43 34q-37 6 -92 -43q-80 -76 -164 -247q-27 0 -51 26q-23 23 -23 62q-2 53 28.5 117.5t78.5 113.5q59 61 142 90t163 15q117 -23 157 -121q37 -102 -67 -312zM1534 1419q-41 0 -69.5 28t-28.5 69q0 39 28.5 66.5t69.5 27.5q39 0 66.5 -28t27.5 -66.5t-27.5 -67.5 t-66.5 -29zM1182 1419q-39 0 -68 28t-29 69q0 39 29 66.5t68 27.5t66.5 -28t27.5 -66.5t-27.5 -67.5t-66.5 -29z" />
<glyph unicode="&#xdd;" horiz-adv-x="1269" d="M856 1450l-10 29q88 78 133 146q12 16 26 61l3 9q1 3 2 8t3 14l5 14q2 14 6 23l4 12l3 9q1 3 3 6t6 5t9 4l16 7q14 4 33.5 -4.5t25.5 -22.5q16 -41 6 -68q-29 -78 -112.5 -147.5t-161.5 -104.5zM811 246q16 -5 30 -6q23 0 40 15q27 24 65 91q8 16 44 77.5t57 100.5 l329 594q14 35 54 96q39 59 79 62h162q29 0 29 -19q0 -9 -6 -22l-934 -1774q-4 -8 -12 -11q-3 -1 -6 -1l-11 4q-82 41 -100 96q-1 3 -1 7q0 37 66 176l176 368q-75 -59 -141 -59q-21 0 -41 6q-70 23 -102 96q-19 38 -19 92q0 20 2 43q10 81 33 149.5t53 127.5l213 399 q71 124 71 171q0 13 -5 20q-18 29 -55 22q-59 -10 -117.5 -95t-91.5 -167q-7 -19 -21 -18q-17 0 -43 26q-29 33 -35 64q-1 5 -1 11q0 38 44 108q51 80 109 137q84 89 191 89q26 0 53 -5q141 -27 174 -127q7 -19 6 -44q0 -90 -88 -251l-250 -469q-39 -76 -39 -121t39 -59z " />
<glyph unicode="&#xdf;" horiz-adv-x="782" d="M555 592q4 74 32.5 121t82 105.5t88.5 121.5q39 70 17.5 122t-87.5 52q-61 0 -190 -229q-203 -373 -303 -680q-90 -279 -80 -352q6 -57 -51.5 -83t-79.5 29q-20 49 -22.5 110.5t17 134.5t41 134.5t58.5 145.5l23 59l23 60l11 32q-31 43 -29 98q6 43 36 72t71 33l137 268 q63 121 96 172q45 78 92.5 100.5t131.5 22.5q168 0 228 -108.5t-38 -264.5q-29 -45 -80 -108.5t-73.5 -102.5t-22.5 -82q0 -20 8 -69q18 -115 19 -141q0 -129 -23 -226q35 18 106.5 91t106.5 122v-86q-139 -170 -243.5 -236.5t-202.5 -39.5q-102 29 -142 108q-31 61 -30 178 q0 63 18 108.5t55 45.5q29 0 43.5 -25.5t14.5 -56.5q0 -86 -60 -112q12 -76 66 -95q57 -25 110 27q84 82 33 360q-8 33 -8 64z" />
<glyph unicode="&#xe0;" horiz-adv-x="722" d="M420 723q41 2 92 -14.5t70 -36.5q27 37 42 43t60 6q49 0 94 -4q29 -4 8 -39l-159 -299q-8 -14 -58 -113q-41 -96 -2 -116q57 -27 111 28q119 113 160 174v-86q-88 -113 -189.5 -202t-175.5 -80q-84 8 -106 100q-82 -111 -168 -100q-41 4 -80 33.5t-60 72.5 q-78 176 78 442q107 181 283 191zM545 989q12 -20 123 -139l-11 -27q-74 33 -152.5 100.5t-107.5 141.5q-12 35 6 65q6 12 24.5 20.5t33.5 4.5q12 -4 18 -8t8 -6t5.5 -11.5t7.5 -15.5q2 -6 4 -13l4 -13.5t2 -8.5q2 -10 3 -16t5 -14q11 -37 27 -60zM403 584q-55 -18 -108 -97 q-41 -66 -76 -182q-51 -162 14 -176q47 -8 104.5 64.5t88.5 137t59 138.5q2 4 6.5 16.5t6.5 17.5t4 15t2 16.5t-1 13.5t-5 13q-29 41 -95 23z" />
<glyph unicode="&#xe1;" horiz-adv-x="722" d="M420 723q41 2 92 -14.5t70 -36.5q27 37 42 43t60 6q49 0 94 -4q29 -4 8 -39l-159 -299q-8 -14 -58 -113q-41 -96 -2 -116q57 -27 111 28q119 113 160 174v-86q-88 -113 -189.5 -202t-175.5 -80q-84 8 -106 100q-82 -111 -168 -100q-41 4 -80 33.5t-60 72.5 q-78 176 78 442q107 181 283 191zM526 829l-8 29q104 104 125 139q8 12 25 60q2 6 3 8t2 7t3 13q8 31 10 35q4 6 7 16.5t5 12.5t9.5 5t19.5 7q14 4 32.5 -3t24.5 -21q16 -31 7 -64q-29 -74 -108 -141.5t-157 -102.5zM403 584q-55 -18 -108 -97q-41 -66 -76 -182 q-51 -162 14 -176q47 -8 104.5 64.5t88.5 137t59 138.5q2 4 6.5 16.5t6.5 17.5t4 15t2 16.5t-1 13.5t-5 13q-29 41 -95 23z" />
<glyph unicode="&#xe2;" horiz-adv-x="722" d="M420 723q41 2 92 -14.5t70 -36.5q27 37 42 43t60 6q49 0 94 -4q29 -4 8 -39l-159 -299q-8 -14 -58 -113q-41 -96 -2 -116q57 -27 111 28q119 113 160 174v-86q-88 -113 -189.5 -202t-175.5 -80q-84 8 -106 100q-82 -111 -168 -100q-41 4 -80 33.5t-60 72.5 q-78 176 78 442q107 181 283 191zM291 848q104 82 155.5 132t137.5 163h22q55 -184 137 -303l-43 -13q-20 14 -38.5 39t-27.5 41.5t-29 56.5l-25 52l-64 -55l-66 -57q-22 -17 -57 -38.5t-65 -31.5zM403 584q-55 -18 -108 -97q-41 -66 -76 -182q-51 -162 14 -176 q47 -8 104.5 64.5t88.5 137t59 138.5q2 4 6.5 16.5t6.5 17.5t4 15t2 16.5t-1 13.5t-5 13q-29 41 -95 23z" />
<glyph unicode="&#xe3;" horiz-adv-x="722" d="M420 723q41 2 92 -14.5t70 -36.5q27 37 42 43t60 6q49 0 94 -4q29 -4 8 -39l-159 -299q-8 -14 -58 -113q-41 -96 -2 -116q57 -27 111 28q119 113 160 174v-86q-88 -113 -189.5 -202t-175.5 -80q-84 8 -106 100q-82 -111 -168 -100q-41 4 -80 33.5t-60 72.5 q-78 176 78 442q107 181 283 191zM645 934q29 -14 56.5 -4t37 18t26.5 30.5t28 33.5h30q-10 -47 -41.5 -99.5t-81.5 -68.5l-33 -11.5t-27 -1l-23.5 3.5t-40 11t-56.5 16q-98 27 -131 8q-14 -8 -20.5 -17t-9.5 -20.5t-5 -15.5h-39q10 55 41 102.5t76 59.5q23 10 58.5 4 t58 -13t53.5 -19.5t43 -16.5zM403 584q-55 -18 -108 -97q-41 -66 -76 -182q-51 -162 14 -176q47 -8 104.5 64.5t88.5 137t59 138.5q2 4 6.5 16.5t6.5 17.5t4 15t2 16.5t-1 13.5t-5 13q-29 41 -95 23z" />
<glyph unicode="&#xe4;" horiz-adv-x="722" d="M420 723q41 2 92 -14.5t70 -36.5q27 37 42 43t60 6q49 0 94 -4q29 -4 8 -39l-159 -299q-8 -14 -58 -113q-41 -96 -2 -116q57 -27 111 28q119 113 160 174v-86q-88 -113 -189.5 -202t-175.5 -80q-84 8 -106 100q-82 -111 -168 -100q-41 4 -80 33.5t-60 72.5 q-78 176 78 442q107 181 283 191zM778 825q-41 0 -69.5 28t-28.5 66.5t28.5 66.5t69.5 28q39 0 66.5 -28t27.5 -66.5t-27.5 -66.5t-66.5 -28zM428 825q-41 0 -68.5 27t-27.5 68t27.5 67.5t68.5 26.5q39 0 66.5 -28t27.5 -66.5t-27.5 -66.5t-66.5 -28zM403 584 q-55 -18 -108 -97q-41 -66 -76 -182q-51 -162 14 -176q47 -8 104.5 64.5t88.5 137t59 138.5q2 4 6.5 16.5t6.5 17.5t4 15t2 16.5t-1 13.5t-5 13q-29 41 -95 23z" />
<glyph unicode="&#xe5;" horiz-adv-x="722" d="M420 723q41 2 92 -14.5t70 -36.5q27 37 42 43t60 6q49 0 94 -4q29 -4 8 -39l-159 -299q-8 -14 -58 -113q-41 -96 -2 -116q57 -27 111 28q119 113 160 174v-86q-88 -113 -189.5 -202t-175.5 -80q-84 8 -106 100q-82 -111 -168 -100q-41 4 -80 33.5t-60 72.5 q-78 176 78 442q107 181 283 191zM583.5 825q-71.5 0 -121.5 50.5t-50 122t50 121.5t122 50q76 0 124 -49t48 -123q0 -76 -50.5 -124t-122 -48zM403 584q-55 -18 -108 -97q-41 -66 -76 -182q-51 -162 14 -176q47 -8 104.5 64.5t88.5 137t59 138.5q2 4 6.5 16.5t6.5 17.5 t4 15t2 16.5t-1 13.5t-5 13q-29 41 -95 23zM481 997q0 -43 30 -73.5t73 -30.5t72.5 30.5t29.5 73.5q0 41 -29.5 71t-72.5 30t-73 -30t-30 -71z" />
<glyph unicode="&#xe6;" horiz-adv-x="935" d="M582 672q18 -18 22 -29q63 53 133 59q104 8 170 -71q55 -74 15 -185q-59 -164 -187 -215q-25 -10 -71 -6t-64 23q-20 -31 -20 -58q0 -39 24 -59q55 -47 111 -41q150 14 336 262v-86q-70 -82 -106 -121t-93 -88t-111.5 -64.5t-113.5 -6.5q-135 16 -185 127q-12 23 -14 43 q-41 -55 -59 -70q-86 -113 -170 -102q-41 4 -80 33.5t-60 72.5q-78 176 78 442q106 180 283 191q41 2 92.5 -14.5t69.5 -36.5zM233 129q49 -8 100.5 57.5t98.5 165.5q29 86 66 152q14 35 0 57q-29 41 -95 23q-55 -18 -108 -97q-41 -66 -76 -182q-52 -162 14 -176zM735 582 q-31 -16 -60.5 -78t-35.5 -90q-16 -57 18 -62q31 -8 54 4q80 47 98 172q4 37 -21 56q-24 12 -53 -2z" />
<glyph unicode="&#xe7;" horiz-adv-x="583" d="M104 -170q49 129 170 162q-127 33 -178 143q-33 66 -24.5 144.5t32 141t58.5 116.5q117 186 258 186t203 -78q39 -51 -2 -158q-31 -74 -92.5 -80t-84.5 19q-23 23 -4 70q27 74 27 92q0 25 -33 20q-4 0 -39 -26q-66 -66 -111.5 -181.5t-39.5 -185.5q0 -70 57 -106 q76 -43 189.5 26.5t220.5 216.5v-88q-55 -78 -157.5 -166t-180.5 -104q39 -8 63 -43q23 -31 25 -84t-15 -92q-27 -63 -86 -118.5t-120 -68.5q-57 -6 -78 23q-29 35 -10 74q14 39 61 55q86 27 86 67q0 33 -41 46q-35 8 -154 -23z" />
<glyph unicode="&#xe8;" horiz-adv-x="563" d="M354 231q-25 -10 -70.5 -6t-64.5 23q-20 -27 -20 -58q0 -39 24 -59q55 -47 111 -41q145 14 336 262v-86q-70 -82 -106 -121t-93 -88t-111.5 -64.5t-113.5 -6.5q-135 16 -185 127q-74 162 66 411q100 170 229 178q104 8 168 -71q55 -70 17 -185q-60 -164 -187 -215z M397 995q37 -57 125 -139l-10 -27q-74 33 -153.5 101.5t-106.5 140.5q-12 29 6 66q4 12 22.5 19t32.5 3q8 -2 13 -4l8 -4q4 -2 5 -3t3 -4t3 -6t4 -8.5t5 -11.5t11 -35q2 -10 4 -16q0 -4 4 -12q10 -40 24 -60zM354 582q-31 -16 -60.5 -78t-35.5 -90q-16 -57 18 -62 q29 -10 54 4q80 47 98 172q4 37 -20 56q-27 12 -54 -2z" />
<glyph unicode="&#xe9;" horiz-adv-x="563" d="M354 231q-25 -10 -70.5 -6t-64.5 23q-20 -27 -20 -58q0 -39 24 -59q55 -47 111 -41q145 14 336 262v-86q-70 -82 -106 -121t-93 -88t-111.5 -64.5t-113.5 -6.5q-135 16 -185 127q-74 162 66 411q100 170 229 178q104 8 168 -71q55 -70 17 -185q-60 -164 -187 -215z M354 829l-8 27q102 102 123 139q16 20 27 60q2 6 3 8t2 7t3 13q8 31 10 35q4 6 7 16.5t5 12.5t9.5 5t19.5 7q14 4 32.5 -3t24.5 -19q16 -33 6 -66q-29 -74 -108.5 -141.5t-155.5 -100.5zM354 582q-31 -16 -60.5 -78t-35.5 -90q-16 -57 18 -62q29 -10 54 4q80 47 98 172 q4 37 -20 56q-27 12 -54 -2z" />
<glyph unicode="&#xea;" horiz-adv-x="563" d="M354 231q-25 -10 -70.5 -6t-64.5 23q-20 -27 -20 -58q0 -39 24 -59q55 -47 111 -41q145 14 336 262v-86q-70 -82 -106 -121t-93 -88t-111.5 -64.5t-113.5 -6.5q-135 16 -185 127q-74 162 66 411q100 170 229 178q104 8 168 -71q55 -70 17 -185q-60 -164 -187 -215z M197 829q106 84 156 134.5t134 160.5h23q53 -178 137 -301l-41 -14q-16 10 -30.5 25.5t-27.5 38l-21.5 38t-22.5 45.5l-21 43l-51 -46q-37 -34 -53 -47l-45 -36q-29 -23 -52.5 -35t-48.5 -18zM354 582q-31 -16 -60.5 -78t-35.5 -90q-16 -57 18 -62q29 -10 54 4q80 47 98 172 q4 37 -20 56q-27 12 -54 -2z" />
<glyph unicode="&#xeb;" horiz-adv-x="563" d="M354 231q-25 -10 -70.5 -6t-64.5 23q-20 -27 -20 -58q0 -39 24 -59q55 -47 111 -41q145 14 336 262v-86q-70 -82 -106 -121t-93 -88t-111.5 -64.5t-113.5 -6.5q-135 16 -185 127q-74 162 66 411q100 170 229 178q104 8 168 -71q55 -70 17 -185q-60 -164 -187 -215z M647 825q-41 0 -68.5 28t-27.5 66.5t27.5 66.5t68.5 28t68.5 -28t27.5 -66.5t-27.5 -66.5t-68.5 -28zM295 825q-39 0 -66.5 28t-27.5 66.5t27.5 66.5t66.5 28q41 0 68.5 -26.5t27.5 -67.5t-27.5 -68t-68.5 -27zM354 582q-31 -16 -60.5 -78t-35.5 -90q-16 -57 18 -62 q29 -10 54 4q80 47 98 172q4 37 -20 56q-27 12 -54 -2z" />
<glyph unicode="&#xec;" horiz-adv-x="405" d="M391 692q37 0 19 -41l-160 -319q-68 -143 -47 -185q23 -37 61 -24q41 10 129 99t115 130v-86q-16 -27 -84 -98.5t-107 -101.5q-102 -94 -194 -80q-59 6 -82 63q-53 119 47 324q127 272 129 274q16 35 21.5 38t37.5 7h115zM332 993q20 -35 125 -139l-8 -27 q-76 33 -156 100.5t-109 141.5q-10 33 6 66q6 12 24.5 19t33.5 3q10 -4 15 -5t9 -5t5.5 -6t4.5 -9.5t5 -13.5q2 -4 10 -37q2 -10 4 -16q0 -4 4 -12q15 -46 27 -60z" />
<glyph unicode="&#xed;" horiz-adv-x="405" d="M391 692q37 0 19 -41l-160 -319q-68 -143 -47 -185q23 -37 61 -24q41 10 129 99t115 130v-86q-16 -27 -84 -98.5t-107 -101.5q-102 -94 -194 -80q-59 6 -82 63q-53 119 47 324q127 272 129 274q16 35 21.5 38t37.5 7h115zM317 829l-8 27q104 102 125 139q12 14 27 60 q2 6 2 12t4 16q0 18 10 35q4 6 7 16.5t5.5 12.5t9.5 5t19 7q14 4 32.5 -3t24.5 -19q16 -33 7 -66q-29 -74 -109 -141.5t-156 -100.5z" />
<glyph unicode="&#xee;" horiz-adv-x="405" d="M391 692q37 0 19 -41l-160 -319q-68 -143 -47 -185q23 -37 61 -24q41 10 129 99t115 130v-86q-16 -27 -84 -98.5t-107 -101.5q-102 -94 -194 -80q-59 6 -82 63q-53 119 47 324q127 272 129 274q16 35 21.5 38t37.5 7h115zM166 846q104 82 155.5 133t137.5 162h22 q53 -180 140 -303l-43 -13q-14 10 -27.5 23.5t-22 26t-20.5 33.5l-19 33q-6 11 -18 38t-16 35l-52 -45l-53 -46l-46 -37q-28 -22 -52.5 -34t-48.5 -21z" />
<glyph unicode="&#xef;" horiz-adv-x="405" d="M391 692q37 0 19 -41l-160 -319q-68 -143 -47 -185q23 -37 61 -24q41 10 129 99t115 130v-86q-16 -27 -84 -98.5t-107 -101.5q-102 -94 -194 -80q-59 6 -82 63q-53 119 47 324q127 272 129 274q16 35 21.5 38t37.5 7h115zM602 829q-41 0 -68.5 29t-27.5 70t27.5 67.5 t68.5 26.5t67.5 -27.5t26.5 -66.5q0 -41 -27.5 -70t-66.5 -29zM252 829q-41 0 -68.5 29t-27.5 70q0 39 27.5 66.5t68.5 27.5q39 0 66.5 -27.5t27.5 -66.5q0 -41 -27.5 -70t-66.5 -29z" />
<glyph unicode="&#xf1;" horiz-adv-x="673" d="M354 696q20 0 30.5 -7t17 -21.5t10.5 -20.5q4 0 34.5 13.5t67.5 19.5t100 -6q63 -20 64 -78q0 -27 -82 -166l-16 -29q-82 -135 -103 -198q-12 -35 1.5 -60.5t45.5 -23.5q41 2 123 81t135 150v-84q-80 -115 -199.5 -208t-207.5 -68q-74 23 -96 78q-31 82 118 338 q8 14 13 22l28 51q14 18 -1 25.5t-27 3.5q-18 -2 -41 -21q-25 -23 -68 -79l-98 -158l-101 -193l-10 -20q-6 -12 -8 -15l-7 -11q-5 -7 -7 -8t-9.5 -3t-14.5 -2h-19q-63 0 -91 7t-22 28q16 61 76 186l219 426q14 27 24.5 37t16.5 12t22 2h82zM639 932q29 -14 55.5 -4t36.5 18 t26.5 30.5t26.5 33.5h31q-31 -137 -121 -168l-34 -9q-11 -3 -27.5 -2.5t-24.5 3l-38.5 11.5t-57.5 15q-100 27 -131 8q-14 -8 -20.5 -17t-9.5 -21.5t-3 -14.5h-41q10 55 41 102.5t78 59.5q23 10 58.5 4t57 -13t53.5 -19.5t44 -16.5z" />
<glyph unicode="&#xf2;" horiz-adv-x="657" d="M627 442q-27 -143 -64 -209q45 -37 122 30t110 149v-103q-33 -76 -111 -126t-149 -15q-63 -96 -128 -139t-153 -43q-49 2 -106.5 32.5t-90.5 79.5q-33 66 -27.5 154t33.5 156q43 106 117 189t174 103q47 14 115 1t111 -56q76 -72 47 -203zM451 991q20 -37 122 -139 l-10 -27q-74 33 -153.5 100.5t-108.5 141.5q-12 35 6 66q6 12 24.5 20t33.5 4q12 -4 19 -8t9 -6t5 -11.5t8 -15.5q2 -6 10 -37q2 -8 3 -14t5 -14q13 -42 27 -60zM483 516q2 43 -39 59q-37 14 -71 -2q-68 -33 -117 -129t-59 -168q-16 -106 22 -141q37 -31 76 -12 q68 20 115 110q0 2 4 10.5t6 14.5q-43 70 -29 166q8 41 31 63q22 25 61 29z" />
<glyph unicode="&#xf3;" horiz-adv-x="657" d="M627 442q-27 -143 -64 -209q45 -37 122 30t110 149v-103q-33 -76 -111 -126t-149 -15q-63 -96 -128 -139t-153 -43q-49 2 -106.5 32.5t-90.5 79.5q-33 66 -27.5 154t33.5 156q43 106 117 189t174 103q47 14 115 1t111 -56q76 -72 47 -203zM444 825l-10 27q98 98 125 139 q12 18 25 60l3 9q1 3 2 7l3 12q8 31 10 37q4 6 7 13.5t4 9.5t5.5 6t9.5 6l15 6q12 4 31.5 -4t23.5 -20q18 -35 7 -66q-29 -74 -108 -141.5t-153 -100.5zM483 516q2 43 -39 59q-37 14 -71 -2q-68 -33 -117 -129t-59 -168q-16 -106 22 -141q37 -31 76 -12q68 20 115 110 q0 2 4 10.5t6 14.5q-43 70 -29 166q8 41 31 63q22 25 61 29z" />
<glyph unicode="&#xf4;" horiz-adv-x="657" d="M627 442q-27 -143 -64 -209q45 -37 122 30t110 149v-103q-33 -76 -111 -126t-149 -15q-63 -96 -128 -139t-153 -43q-49 2 -106.5 32.5t-90.5 79.5q-33 66 -27.5 154t33.5 156q43 106 117 189t174 103q47 14 115 1t111 -56q76 -72 47 -203zM240 848q104 82 155 132 t135 163h25q55 -184 137 -303l-43 -13q-16 10 -29.5 25.5t-27.5 38t-22.5 38t-22.5 45.5l-21 42l-50 -45l-52 -47q-16 -14 -45 -36t-53.5 -34t-49.5 -20zM483 516q2 43 -39 59q-37 14 -71 -2q-68 -33 -117 -129t-59 -168q-16 -106 22 -141q37 -31 76 -12q68 20 115 110 q0 2 4 10.5t6 14.5q-43 70 -29 166q8 41 31 63q22 25 61 29z" />
<glyph unicode="&#xf5;" horiz-adv-x="657" d="M627 442q-27 -143 -64 -209q41 -25 104.5 19.5t106.5 120.5l21 -74q-35 -68 -114 -117t-146 -14q-63 -96 -128 -139t-153 -43q-49 2 -106.5 32.5t-90.5 79.5q-33 66 -27.5 154t33.5 156q43 106 117 189t174 103q47 14 115 1t111 -56q76 -72 47 -203zM586 928q31 -6 47 -7 t32.5 10t24.5 20.5t20.5 26.5t22.5 26h31q-31 -137 -121 -168l-34 -10q-11 -3 -27.5 -2t-24.5 3t-39 11.5t-57 15.5q-94 31 -131 10q-14 -8 -20.5 -17t-9.5 -20.5t-5 -15.5h-37q10 53 40 100t75 60q23 10 59.5 5t58 -12.5t52.5 -19.5t43 -16zM483 516q2 43 -39 59 q-37 14 -71 -2q-68 -33 -117 -129t-59 -168q-16 -106 22 -141q37 -31 76 -12q68 20 115 110q0 2 4 10.5t6 14.5q-43 70 -29 166q8 41 31 63q22 25 61 29z" />
<glyph unicode="&#xf6;" horiz-adv-x="657" d="M649 817q-41 0 -68.5 27.5t-27.5 66.5t28.5 68t67.5 29t67.5 -29t28.5 -68t-27.5 -66.5t-68.5 -27.5zM297 817q-39 0 -66.5 27.5t-27.5 66.5t27.5 68t66.5 29q41 0 68.5 -28t27.5 -69t-27.5 -67.5t-68.5 -26.5zM627 442q-27 -143 -64 -209q41 -25 104.5 19.5t106.5 120.5 l21 -74q-35 -68 -114 -117t-146 -14q-63 -96 -128 -139t-153 -43q-49 2 -106.5 32.5t-90.5 79.5q-33 66 -27.5 154t33.5 156q43 106 117 189t174 103q47 14 115 1t111 -56q76 -72 47 -203zM483 516q2 43 -39 59q-37 14 -71 -2q-68 -33 -117 -129t-59 -168q-16 -106 22 -141 q37 -31 76 -12q68 20 115 110q0 2 4 10.5t6 14.5q-43 70 -29 166q8 41 31 63q22 25 61 29z" />
<glyph unicode="&#xf7;" horiz-adv-x="1124" d="M479 289q39 35 84 35q49 0 82 -33t33 -84q0 -49 -35 -82q-31 -35 -80 -35t-84 35q-33 37 -33 82q0 49 33 82zM1036 553v-139h-948v139h948zM479 840q35 31 84 34q49 0 80 -34q35 -35 35 -82q0 -49 -35 -82q-31 -35 -80 -35t-84 35q-33 33 -33 82t33 82z" />
<glyph unicode="&#xf8;" horiz-adv-x="657" d="M20 -6l60 76l-23 28q-33 66 -27.5 154t33.5 156q43 106 117 189t174 103q109 23 193 -28l26 33h78l-57 -74q57 -70 33 -189q-27 -143 -64 -209l-28 -65q-63 -96 -128 -139t-153 -43q-66 4 -129 43l-27 -35h-78zM508 432q18 37 -4 82q-289 -371 -289 -373q4 -4 4 -6 q37 -31 76 -12q68 20 115 110q0 2 9 4.5t11 8.5l20 32q9 15 13 20t9 15.5t9 20.5l13 31q8 18 11 41.5t3 25.5zM197 276q-6 -31 -7 -63l277 354q-4 2 -23 8q-37 14 -71 -2q-68 -33 -117 -129t-59 -168z" />
<glyph unicode="&#xf9;" horiz-adv-x="710" d="M391 690q43 0 25 -35q-82 -147 -127 -239l-82 -172q-27 -55 14 -68q33 -8 55 10q4 2 31 35l21 36q14 26 22 38q137 279 156 311q23 43 39 54.5t53 9.5h53q53 -4 64 -25q8 -12 -70 -156l-18 -30q-49 -88 -84 -181.5t-27 -132.5q4 -16 21.5 -23t37.5 -1q51 14 136.5 99 t117.5 132v-86q-256 -322 -383 -280q-80 25 -116 106q-141 -113 -234 -90q-51 12 -76 61q-43 84 54 289l59 129l66 133l10 21q8 16 11 21.5t11.5 15.5t15.5 14t15 4h129zM485 979q31 -51 125 -139l-8 -27q-76 33 -155.5 100.5t-108.5 141.5q-10 33 6 63q6 14 24.5 21.5 t32.5 3.5q12 -4 19.5 -7t9.5 -5.5t5 -12.5t7 -16q2 -4 11 -35q2 -10 4 -16q0 -4 4 -13q8 -36 24 -59z" />
<glyph unicode="&#xfa;" horiz-adv-x="710" d="M391 690q43 0 25 -35q-82 -147 -127 -239l-82 -172q-27 -55 14 -68q33 -8 55 10q4 2 31 35l21 36q14 26 22 38q137 279 156 311q23 43 39 54.5t53 9.5h53q53 -4 64 -25q8 -12 -70 -156l-18 -30q-49 -88 -84 -181.5t-27 -132.5q4 -16 21.5 -23t37.5 -1q51 14 136.5 99 t117.5 132v-86q-256 -322 -383 -280q-80 25 -116 106q-141 -113 -234 -90q-51 12 -76 61q-43 84 54 289l59 129l66 133l10 21q8 16 11 21.5t11.5 15.5t15.5 14t15 4h129zM479 805l-10 26q94 88 127 140q10 14 27 59q2 6 2 13.5t4 17.5q10 33 12 35l5 15q3 9 5 11t8.5 6.5 t18.5 8.5q14 4 33.5 -4.5t23.5 -20.5q18 -35 6 -65q-29 -74 -108.5 -141.5t-153.5 -100.5z" />
<glyph unicode="&#xfb;" horiz-adv-x="710" d="M391 690q43 0 25 -35q-82 -147 -127 -239l-82 -172q-27 -55 14 -68q33 -8 55 10q4 2 31 35l21 36q14 26 22 38q137 279 156 311q23 43 39 54.5t53 9.5h53q53 -4 64 -25q8 -12 -70 -156l-18 -30q-49 -88 -84 -181.5t-27 -132.5q4 -16 21.5 -23t37.5 -1q51 14 136.5 99 t117.5 132v-86q-256 -322 -383 -280q-80 25 -116 106q-141 -113 -234 -90q-51 12 -76 61q-43 84 54 289l59 129l66 133l10 21q8 16 11 21.5t11.5 15.5t15.5 14t15 4h129zM266 846q104 82 155.5 133t135.5 162h25q53 -180 135 -303l-41 -13q-16 10 -29.5 25.5t-28 38 t-22.5 38l-23 45.5l-20 42l-61 -56q-47 -43 -66.5 -58t-55.5 -36.5t-69 -32.5z" />
<glyph unicode="&#xfc;" horiz-adv-x="710" d="M391 690q43 0 25 -35q-82 -147 -127 -239l-82 -172q-27 -55 14 -68q33 -8 55 10q4 2 31 35l21 36q14 26 22 38q137 279 156 311q23 43 39 54.5t53 9.5h53q53 -4 64 -25q8 -12 -70 -156l-18 -30q-49 -88 -84 -181.5t-27 -132.5q4 -16 21.5 -23t37.5 -1q51 14 136.5 99 t117.5 132v-86q-256 -322 -383 -280q-80 25 -116 106q-141 -113 -234 -90q-51 12 -76 61q-43 84 54 289l59 129l66 133l10 21q8 16 11 21.5t11.5 15.5t15.5 14t15 4h129zM713 825q-41 0 -69 27t-28 68t28 67.5t69 26.5t68.5 -28t27.5 -66.5t-27.5 -66.5t-68.5 -28zM360 825 q-41 0 -67.5 28t-26.5 66.5t26.5 66.5t67.5 28t69 -28t28 -66.5t-28 -66.5t-69 -28z" />
<glyph unicode="&#xfd;" horiz-adv-x="686" d="M563 825l-10 29q88 78 133 146q12 16 26 61l3 9q1 3 2 8t3 14l5 14q2 14 6 23l4 12l3 9q1 3 3 6t6 5t9 4l16 7q14 4 33.5 -4.5t25.5 -22.5q16 -41 6 -68q-29 -78 -112.5 -147.5t-161.5 -104.5zM659 702q12 0 19.5 -6t7.5 -16t-2 -18.5t-6 -19.5t-4 -13l-207 -537 q45 2 98 35t101.5 81t76.5 82l52 62v-86q-39 -53 -112 -126.5t-120 -106.5q-59 -37 -149 -62l-41 -114q-43 -113 -135.5 -264.5t-182.5 -176.5q-24 -6 -46 -6q-47 0 -83 27q-51 44 -51 111q0 182 279 366q84 57 102 76l35 100q-87 -90 -164 -90q-12 0 -25 2q-57 14 -84 72 q-14 28 -13 67q0 97 81 262l98 213q33 66 88 66h76q32 0 32 -23q0 -15 -13 -41l-74 -145l-24 -44l-25 -48q-10 -18 -25.5 -49t-21.5 -46l-16 -40q-9 -25 -7 -33t2 -23q12 -23 39 -16q12 2 24.5 7t23.5 18.5t19.5 25t21.5 34.5l21 37q7 13 23 46l25 49l94 189q4 10 15.5 32.5 t16.5 30.5l15 24q10 15 18.5 20t21.5 10t30 5h75zM219 -143q-94 -59 -163.5 -135t-78.5 -132q-2 -11 -2 -20q0 -23 15 -35q14 -14 27 -14l14 4q65 17 188 332z" />
<glyph unicode="&#xff;" horiz-adv-x="686" d="M659 702q12 0 19.5 -6t7.5 -16t-2 -18.5t-6 -19.5t-4 -13l-207 -537q45 2 98 35t101.5 81t76.5 82l52 62v-86q-39 -53 -112 -126.5t-120 -106.5q-59 -37 -149 -62l-41 -114q-43 -113 -135.5 -264.5t-182.5 -176.5q-76 -18 -129 21q-55 47 -51 121q6 176 279 356 q84 57 102 76l35 100q-100 -104 -189 -88q-57 14 -84 72q-47 96 68 329l98 213q33 66 88 66h76q53 0 19 -64l-74 -145l-24 -44l-25 -48q-10 -18 -25.5 -49t-21.5 -46l-16 -40q-9 -25 -7 -33t2 -23q12 -23 39 -16q12 2 24.5 7t23.5 18.5t19.5 25t21.5 34.5l21 37q7 13 23 46 l25 49l94 189q4 10 15.5 32.5t16.5 30.5l15 24q10 15 18.5 20t21.5 10t30 5h75zM686 825q-41 0 -68.5 28t-27.5 66.5t27.5 66.5t68.5 28t68.5 -28t27.5 -66.5t-27.5 -66.5t-68.5 -28zM334 825q-39 0 -66.5 28t-27.5 66.5t27.5 66.5t66.5 28q41 0 68.5 -26.5t27.5 -67.5 t-27.5 -68t-68.5 -27zM219 -143q-94 -59 -163.5 -135t-78.5 -132q-8 -39 13 -55q20 -20 41 -10q65 17 188 332z" />
<glyph unicode="&#x152;" horiz-adv-x="1499" d="M911 6q-70 37 -116 100q-131 -135 -271 -135q-135 4 -211 121q-145 233 47 680q78 174 234 350t299 205q164 31 270 -76q47 51 123 82q63 33 152.5 30t156.5 -50q72 -47 94.5 -87t10.5 -102q-8 -37 -34 -96t-50 -74q-16 -8 -66.5 -5t-66.5 12q-45 16 -31 45 q2 4 16.5 26.5t28.5 52t23 52.5q10 39 -29 59q-37 14 -92 -12q-66 -37 -111 -92.5t-49 -110.5q-4 -33 12.5 -71t51.5 -62q20 -14 88 -23q49 -4 65 -4q27 0 23 -24q-12 -45 -17 -58q-2 -6 -5 -13t-5 -11t-4 -9.5t-4 -8.5t-5 -5t-5 -3t-7 -1q-127 -6 -260 -66.5t-206 -183.5 q-80 -127 -27 -239q41 -84 127 -95q109 -10 223 127q100 121 84 177q-10 29 -43 38q-63 12 -129 -53q-8 -8 -18.5 -19.5t-22.5 -27.5l-18 -24q-45 -63 -58 -66q-16 -2 -30 12q-23 23 -9 70q31 137 201 203q37 18 108.5 17t110.5 -30q76 -57 66 -149q-10 -102 -76 -197.5 t-178 -163.5q-76 -47 -180.5 -51t-180.5 39zM1061 1067q-41 213 -217 33q-119 -121 -234 -338q-223 -416 -155 -555q29 -63 102 -64q78 -2 184 86q-6 25 -6 50q-23 246 164 389q115 88 268 123q-33 16 -54 52t-27.5 63.5t-13.5 86t-11 74.5z" />
<glyph unicode="&#x153;" horiz-adv-x="933" d="M580 645q2 -2 5 -4t5 -5t4 -5q72 68 149 74q104 8 168 -72q55 -70 17 -184q-25 -68 -75 -128.5t-114 -87.5q-25 -12 -69.5 -7t-65.5 24q-20 -31 -20 -57q0 -37 26 -60q53 -47 109 -41q147 14 338 262v-86q-70 -82 -106 -120.5t-93 -88t-111.5 -64.5t-113.5 -7 q-106 10 -166 94q-88 -96 -213 -96q-49 2 -106.5 32.5t-90.5 79.5q-33 66 -27.5 154t33.5 156q43 106 117 189t174 103q47 14 115 1t111 -56zM426 186q-23 137 84 332q0 4 -4 21q0 16 -10.5 23t-30 10t-21.5 3q-37 14 -71 -2q-68 -33 -117 -129t-59 -168q-16 -106 22 -141 q37 -31 76 -12q106 32 131 63zM739.5 583.5q-30.5 -16.5 -60.5 -79t-36 -88.5q-14 -57 19 -62q29 -8 55 4q82 51 96 172q6 37 -18.5 53.5t-55 0z" />
<glyph unicode="&#x178;" horiz-adv-x="1269" d="M772 301q0 -41 39 -55q43 -14 69.5 9.5t65.5 90.5q8 16 44 77.5t57 100.5l329 594q14 35 54 96q39 59 79 62h162q43 0 23 -41l-934 -1774q-4 -8 -12.5 -11t-16.5 3q-82 41 -100 96q-8 29 65 183l176 368q-98 -78 -182 -53q-70 23 -102 96q-27 53 -16.5 134t33 150 t52.5 128l213 399q90 158 66 191q-18 29 -55 22q-59 -10 -117.5 -95t-91.5 -167q-16 -41 -64 8q-29 33 -35 64q-8 39 43.5 119t108.5 137q104 111 244 84q141 -27 174 -127q31 -90 -82 -295l-250 -469q-41 -80 -39 -125zM1249 1382l-10 29q104 104 127 139q10 16 23 60 q2 6 3 8t2 7t3 13q8 29 10 35q4 6 7 13.5t4 10.5t5 6t10 5l15 6q14 4 33.5 -3t23.5 -19q16 -33 6 -66q-29 -74 -107.5 -141.5t-154.5 -102.5z" />
<glyph unicode="&#x2c6;" horiz-adv-x="530" d="M506 1442q113 88 165 140t142 167h21q68 -201 145 -313l-45 -17q-12 8 -23.5 19.5t-21.5 26.5l-18 26q-7 10 -17 31l-15 30q-5 10 -15.5 34t-14.5 32q-18 -14 -65.5 -56l-70 -60.5t-59 -41t-69.5 -33.5z" />
<glyph unicode="&#x2dc;" horiz-adv-x="542" d="M848 1542q33 -6 50 -7t33.5 10t24.5 22l22 26q13 16 23 27h31q-10 -51 -42 -103.5t-83 -70.5q-25 -8 -37 -11t-30.5 -1t-24.5 3t-41 12t-57 17q-100 33 -135 11q-16 -8 -22.5 -18.5t-9.5 -23t-5 -16.5h-41q10 55 42 104.5t81 63.5q20 10 60 4t60.5 -12t55.5 -19z" />
<glyph unicode="&#x3bc;" horiz-adv-x="1179" d="M340 920v-607q0 -145 29 -194q27 -45 102 -49q117 0 195 163q74 162 77 420v267h189v-672q0 -92 18 -135q18 -41 60 -43q41 0 65 43q23 41 23 125v28h43q0 -10 2 -18v-27q0 -115 -49 -178q-43 -57 -136 -61q-100 0 -155 88q-49 82 -53 264q-47 -182 -125 -266 q-78 -82 -199 -86q-86 0 -150 53q-57 55 -81 158q0 -31 -2 -58q0 -133 65 -289q66 -160 66 -188q0 -41 -23 -64q-18 -18 -63 -22q-47 0 -68 35q-16 29 -20 108q0 4 1 19.5t2 43t1 56.5q4 131 4 182q0 117 -2 207q-4 180 -4 195v502h188z" />
<glyph unicode="&#x2000;" horiz-adv-x="897" />
<glyph unicode="&#x2001;" horiz-adv-x="1796" />
<glyph unicode="&#x2002;" horiz-adv-x="897" />
<glyph unicode="&#x2003;" horiz-adv-x="1796" />
<glyph unicode="&#x2004;" horiz-adv-x="598" />
<glyph unicode="&#x2005;" horiz-adv-x="448" />
<glyph unicode="&#x2006;" horiz-adv-x="299" />
<glyph unicode="&#x2007;" horiz-adv-x="299" />
<glyph unicode="&#x2008;" horiz-adv-x="223" />
<glyph unicode="&#x2009;" horiz-adv-x="358" />
<glyph unicode="&#x200a;" horiz-adv-x="98" />
<glyph unicode="&#x2010;" horiz-adv-x="851" d="M782 610q8 4 14.5 -2t2.5 -12q-33 -92 -69 -118.5t-122 -28.5q-98 -4 -258 18q-82 14 -147 2q-10 -2 -13.5 6t0.5 12q61 145 203 109q35 -10 62 -12q157 -29 327 26z" />
<glyph unicode="&#x2011;" horiz-adv-x="851" d="M782 610q8 4 14.5 -2t2.5 -12q-33 -92 -69 -118.5t-122 -28.5q-98 -4 -258 18q-82 14 -147 2q-10 -2 -13.5 6t0.5 12q61 145 203 109q35 -10 62 -12q157 -29 327 26z" />
<glyph unicode="&#x2012;" horiz-adv-x="851" d="M782 610q8 4 14.5 -2t2.5 -12q-33 -92 -69 -118.5t-122 -28.5q-98 -4 -258 18q-82 14 -147 2q-10 -2 -13.5 6t0.5 12q61 145 203 109q35 -10 62 -12q157 -29 327 26z" />
<glyph unicode="&#x2013;" horiz-adv-x="1480" d="M1481 610q8 4 14 -2t4 -12q-35 -90 -76 -116.5t-131 -28.5q-268 -12 -471 -7t-481 29q-82 8 -152 -4q-10 -2 -13 6t1 12q25 57 62.5 85t71.5 27t69 -3q80 -14 315 -23q242 -8 476.5 2t310.5 35z" />
<glyph unicode="&#x2014;" horiz-adv-x="1654" d="M1688 610q8 4 14 -2t2 -12q-35 -92 -71 -118.5t-124 -28.5q-698 -16 -1208 22q-98 8 -147 -2q-10 -2 -13.5 6t0.5 12q25 57 62 85t70.5 27t70.5 -3q143 -18 432 -23q625 -14 912 37z" />
<glyph unicode="&#x2018;" horiz-adv-x="395" d="M403 946q-8 -8 -16 -9t-12 4t-2 13l51 101l47 84q33 57 55 80l58 55q35 33 73.5 47t85.5 20q16 2 20.5 -14t-13.5 -22q-33 -12 -62 -37t-39 -47q-20 -41 -18 -88q6 -80 2 -93q-14 -51 -66 -55h-43q-37 0 -49 -2q-41 -10 -72 -37z" />
<glyph unicode="&#x2019;" horiz-adv-x="389" d="M721 1327q8 8 16 8t12.5 -5t2.5 -13q-106 -205 -158 -266q-86 -104 -213 -121q-16 -2 -19.5 14.5t13.5 22.5q74 29 98 82q23 43 21 90q-6 76 -2 92q14 49 65 57q6 2 21.5 0t23.5 -2q31 0 45 4q37 6 74 37z" />
<glyph unicode="&#x201c;" horiz-adv-x="706" d="M725 946q-20 -20 -29 -2q-2 4 0 10l62 121q16 31 56 94.5t69.5 88t78 51t103.5 32.5q16 2 20.5 -14t-14.5 -22q-33 -12 -60.5 -37t-37.5 -47q-23 -39 -21 -88q6 -80 2 -93q-14 -51 -65 -55h-43q-35 0 -47 -2q-41 -10 -74 -37zM401 946q-20 -20 -28 -2q-2 4 0 10 q41 84 60.5 120t57 96.5t68.5 87t79 52t103 31.5q16 2 20.5 -14t-13.5 -22q-33 -12 -62 -37t-39 -47q-20 -41 -18 -88q6 -80 2 -93q-14 -51 -66 -55h-43q-37 0 -49 -2q-39 -10 -72 -37z" />
<glyph unicode="&#x201d;" horiz-adv-x="700" d="M717 1327q8 8 16 8t11.5 -6t0.5 -12q-37 -74 -51 -100l-47 -84q-33 -57 -55 -80l-57 -56q-35 -33 -74 -47t-86 -20q-16 -2 -19.5 14.5t15.5 22.5q33 14 60.5 37.5t35.5 44.5q23 37 20 90q-4 82 0 92q10 49 64 57q6 2 22.5 0t22.5 -2q33 0 47 4q37 6 74 37zM1040 1327 q8 8 16.5 8t11.5 -6t1 -12q-37 -74 -51 -100l-47 -84q-33 -57 -56 -80l-57 -56q-35 -33 -74 -47t-86 -20q-16 -2 -19 14.5t15 22.5q72 29 101 82q20 39 18 90q-4 82 0 92q10 49 61 57q8 2 23.5 0t22.5 -2q33 0 47 4q36 6 73 37z" />
<glyph unicode="&#x2022;" horiz-adv-x="430" d="M176 469q-8 49 26 106.5t91 77.5q47 16 78 -6q27 -14 24 -72q-8 -106 -90 -153q-47 -29 -86 -10q-33 16 -43 57z" />
<glyph unicode="&#x2026;" horiz-adv-x="1290" d="M997 51q-8 49 27 109.5t90 81.5q31 14 61 -2q35 -23 29 -78q-4 -37 -25.5 -87t-58.5 -75q-43 -29 -78 -10q-35 14 -45 61zM567 51q-8 49 27 109.5t90 81.5q31 14 61 -2q35 -23 29 -78q-4 -37 -25.5 -87t-58.5 -75q-43 -29 -78 -10q-35 14 -45 61zM137 51q-8 49 27 109.5 t90 81.5q31 14 61 -2q35 -23 29 -78q-4 -37 -25.5 -87t-58.5 -75q-43 -29 -78 -10q-35 14 -45 61z" />
<glyph unicode="&#x202f;" horiz-adv-x="358" />
<glyph unicode="&#x2039;" horiz-adv-x="980" d="M182 449v190l776 289v-176l-593 -209l593 -209v-174z" />
<glyph unicode="&#x203a;" horiz-adv-x="980" d="M979 639v-190l-776 -289v174l594 209l-594 209v176z" />
<glyph unicode="&#x2044;" horiz-adv-x="1269" d="M772 301q0 -41 39 -55q43 -14 69.5 9.5t65.5 90.5q8 16 44 77.5t57 100.5l329 594q14 35 54 96q39 59 79 62h162q43 0 23 -41l-934 -1774q-4 -8 -12.5 -11t-16.5 3q-82 41 -100 96q-8 29 65 183l176 368q-98 -78 -182 -53q-70 23 -102 96q-27 53 -16.5 134t33 150 t52.5 128l213 399q90 158 66 191q-18 29 -55 22q-59 -10 -117.5 -95t-91.5 -167q-16 -41 -64 8q-29 33 -35 64q-8 39 43.5 119t108.5 137q104 111 244 84q141 -27 174 -127q31 -90 -82 -295l-250 -469q-41 -80 -39 -125zM1540 1403q-41 0 -69.5 27.5t-28.5 68.5 q0 39 28.5 66.5t69.5 27.5t67.5 -26.5t26.5 -67.5t-26.5 -68.5t-67.5 -27.5zM1190 1403q-41 0 -68.5 27.5t-27.5 68.5q0 39 27.5 66.5t68.5 27.5q39 0 66.5 -27.5t27.5 -66.5q0 -41 -27.5 -68.5t-66.5 -27.5z" />
<glyph unicode="&#x205f;" horiz-adv-x="448" />
<glyph unicode="&#x2122;" horiz-adv-x="2461" d="M1913 1290q53 -39 84 -116l4 -17q61 80 144 130q48 30 96 30q33 0 65 -14q86 -37 86 -185q111 108 221 108q29 0 58 -7q70 -14 86 -64q3 -8 3 -18q0 -53 -71 -168l-172 -289l-204 -371q-20 -35 -39 -92q-7 -26 -7 -45q0 -46 37 -57q16 -6 33 -7q36 0 72 31 q129 100 205 213v-86q-82 -111 -189 -201q-102 -87 -192 -88h-9q-94 4 -143 89q-25 41 -25 95q0 95 76 230l131 232l185 301q24 39 24 59q0 6 -2 10q-16 27 -49 13q-29 -14 -55 -41q-47 -47 -86 -111q-264 -371 -432 -692q-53 -90 -62 -109q-8 -16 -14 -25.5t-12.5 -15.5 t-12.5 -8t-14 -3t-18.5 0t-24.5 -1q-31 -2 -51.5 -1t-33.5 6t-24 20q-4 6 -5 15t3 22l9 26q4 12 13 28.5t15 29t17 29.5l16 28q57 104 303 514l209 336q29 47 29 67q0 12 -12.5 17.5t-24.5 3.5q-29 -4 -53 -25q-6 -6 -36 -33.5t-42 -40.5q-70 -74 -121 -163l-232 -406 l-163 -299q-61 -119 -89 -148.5t-92 -31.5q-82 0 -98 29q-4 7 -4 16q0 14 8 35q14 35 53 106q6 12 11 19l426 790q66 122 66 162q0 8 -3 12q-20 39 -78 39h-2q-97 0 -198 -166q-23 -35 -62 -110q-2 -4 -9 -20.5t-13.5 -24t-14.5 -2.5q-60 24 -59 91q0 18 4 40q20 82 100 170 t166 123q43 16 92 24q25 4 51.5 4t55.5 -4q57 -8 96 -37zM1225 1352h12q218 0 389 69q-12 -78 -63.5 -143.5t-132.5 -91.5q-43 -16 -121 -23q-47 -4 -83 -3q-24 0 -42 1q-82 -100 -129 -185t-92 -210l-78 -227q-27 -82 -47.5 -136.5t-59.5 -130t-81 -125t-106.5 -92.5 t-139.5 -61q-32 -7 -65 -7q-38 0 -78 9q-75 16 -130 76q-53 51 -74 138q-11 48 -11 91q0 34 7 66q18 70 71.5 119t121.5 67q30 8 57 8q60 0 103 -39q12 -14 9 -28.5t-13 -16.5q-154 -37 -189 -180q-7 -26 -7 -49q0 -56 42 -92q39 -35 89 -36q14 0 28 3q72 18 121 104t98 230 l92 280q41 129 95 211t204 232q-125 29 -225 28q-177 0 -275 -90q-68 -60 -68 -126q0 -5 1 -11q8 -51 49 -70q17 -5 32 -5q21 0 39 9q53 31 87 136q0 8 10 14t23.5 1t19.5 -24q5 -29 4 -56v-17q-4 -94 -88 -140q-53 -24 -102 -23q-39 0 -74 15q-100 37 -127 152q-4 19 -4 40 q0 33 9 72q15 66 60 115q147 164 492 165q20 0 41 -1q184 -10 299 -12z" />
<glyph unicode="&#xe000;" horiz-adv-x="680" d="M0 680h680v-680h-680v680z" />
<glyph unicode="&#xfb01;" horiz-adv-x="868" d="M758 885q14 37 47 71.5t61 42.5q14 3 26 3q44 0 58 -41q7 -22 7 -44q0 -44 -27 -88q-39 -82 -105 -84h-10q-40 0 -61 29q-11 18 -12 43q1 29 16 68zM854 692q37 0 19 -41l-160 -319q-52 -110 -52 -160q0 -15 5 -25q17 -28 43 -27q9 0 18 3q41 10 129 99t115 130v-86 q-16 -27 -84 -98.5t-107 -101.5q-89 -82 -170 -82q-12 0 -24 2q-59 6 -82 63q-18 41 -18 93q0 97 65 231q127 272 129 274q16 35 21.5 38t37.5 7h115zM629 1241q5 1 9 1q27 0 36 -23q3 -5 3 -11q0 -12 -11 -28l-164 -310l-156 -278q12 -41 31.5 -142.5t21.5 -164.5 q38 -16 63 -17q15 0 25 6q41 18 86 74v-74q-33 -63 -79 -79q-16 -6 -46 -3t-47 13q0 -6 1 -12q0 -121 -40 -252q-41 -137 -135 -207q-53 -35 -102 -35q-17 0 -33 4q-76 16 -108 96q-20 49 -23 111v12q0 57 17 122q19 73 41 134.5t59 145.5l23 59l23 60l11 32q-31 43 -29 98 q6 43 36 72t71 33l137 268q63 121 96 172l30 52q15 28 17.5 35t15.5 16.5t23.5 10.5t40.5 3zM244 334q-2 -4 -11.5 -26.5t-19.5 -50.5l-18 -52q-6 -20 -19 -58l-20 -60l-18 -56l-15 -56q-6 -23 -10 -47q-3 -20 -4 -35q0 -22 6 -40q9 -25 35 -26q4 0 8 1q33 6 67 96 q67 180 68 288q0 49 -14 83q-25 25 -35 39z" />
<glyph unicode="&#xfb02;" horiz-adv-x="888" d="M1219 1401q16 0 22 -6q5 -5 5 -10t-9 -25l-305 -567l-211 -447q-53 -108 -53 -165q0 -16 4 -27q10 -28 45 -29q8 0 18 2q41 10 133.5 102.5t120.5 137.5v-91q-14 -27 -84.5 -99.5t-113.5 -108.5q-95 -83 -172 -84q-16 0 -31 4q-66 10 -86 63q-17 39 -17 90q0 100 66 248 l217 457l264 510q18 35 23.5 38t40.5 7h123zM629 1241q5 1 9 1q27 0 36 -23q3 -5 3 -11q0 -12 -11 -28l-164 -310l-156 -278q12 -41 31.5 -142.5t21.5 -164.5q38 -16 63 -17q15 0 25 6q41 18 86 74v-74q-33 -63 -79 -79q-16 -6 -46 -3t-47 13q0 -6 1 -12q0 -121 -40 -252 q-41 -137 -135 -207q-53 -35 -102 -35q-17 0 -33 4q-76 16 -108 96q-20 49 -23 111v12q0 57 17 122q19 73 41 134.5t59 145.5l23 59l23 60l11 32q-31 43 -29 98q6 43 36 72t71 33l137 268q63 121 96 172l30 52q15 28 17.5 35t15.5 16.5t23.5 10.5t40.5 3zM244 334 q-2 -4 -11.5 -26.5t-19.5 -50.5l-18 -52q-6 -20 -19 -58l-20 -60l-18 -56l-15 -56q-6 -23 -10 -47q-3 -20 -4 -35q0 -22 6 -40q9 -25 35 -26q4 0 8 1q33 6 67 96q67 180 68 288q0 49 -14 83q-25 25 -35 39z" />
<glyph unicode="&#xfb03;" horiz-adv-x="1331" d="M1221 885q14 37 47 71.5t61 42.5q14 3 26 3q44 0 58 -41q7 -22 7 -44q0 -44 -27 -88q-39 -82 -105 -84h-10q-40 0 -61 29q-11 18 -12 43q1 29 16 68zM1317 692q37 0 19 -41l-160 -319q-52 -110 -52 -160q0 -15 5 -25q17 -28 43 -27q9 0 18 3q41 10 129 99t115 130v-86 q-16 -27 -84 -98.5t-107 -101.5q-89 -82 -170 -82q-12 0 -24 2q-59 6 -82 63q-18 41 -18 93q0 97 65 231q127 272 129 274q16 35 21.5 38t37.5 7h115zM1092 1241q5 1 9 1q27 0 36 -23q3 -5 3 -11q0 -12 -11 -28l-164 -310l-156 -278q12 -41 31.5 -142.5t21.5 -164.5 q38 -16 63 -17q15 0 25 6q41 18 86 74v-74q-33 -63 -79 -79q-16 -6 -46 -3t-47 13q0 -6 1 -12q0 -121 -40 -252q-41 -137 -135 -207q-53 -35 -102 -35q-17 0 -33 4q-76 16 -108 96q-20 49 -23 111v12q0 57 17 122q19 73 41 134.5t59 145.5l23 59l23 60l11 32q-31 43 -29 98 q6 43 36 72t71 33l137 268q63 121 96 172l30 52q15 28 17.5 35t15.5 16.5t23.5 10.5t40.5 3zM707 334q-2 -4 -11.5 -26.5t-19.5 -50.5l-18 -52q-6 -20 -19 -58l-20 -60l-18 -56l-15 -56q-6 -23 -10 -47q-3 -20 -4 -35q0 -22 6 -40q9 -25 35 -26q4 0 8 1q33 6 67 96 q67 180 68 288q0 49 -14 83q-25 25 -35 39zM629 1241q5 1 9 1q27 0 36 -23q3 -5 3 -11q0 -12 -11 -28l-164 -310l-156 -278q12 -41 31.5 -142.5t21.5 -164.5q38 -16 63 -17q15 0 25 6q41 18 86 74v-74q-33 -63 -79 -79q-16 -6 -46 -3t-47 13q0 -6 1 -12q0 -121 -40 -252 q-41 -137 -135 -207q-53 -35 -102 -35q-17 0 -33 4q-76 16 -108 96q-20 49 -23 111v12q0 57 17 122q19 73 41 134.5t59 145.5l23 59l23 60l11 32q-31 43 -29 98q6 43 36 72t71 33l137 268q63 121 96 172l30 52q15 28 17.5 35t15.5 16.5t23.5 10.5t40.5 3zM244 334 q-2 -4 -11.5 -26.5t-19.5 -50.5l-18 -52q-6 -20 -19 -58l-20 -60l-18 -56l-15 -56q-6 -23 -10 -47q-3 -20 -4 -35q0 -22 6 -40q9 -25 35 -26q4 0 8 1q33 6 67 96q67 180 68 288q0 49 -14 83q-25 25 -35 39z" />
<glyph unicode="&#xfb04;" horiz-adv-x="1351" d="M1682 1401q16 0 22 -6q5 -5 5 -10t-9 -25l-305 -567l-211 -447q-53 -108 -53 -165q0 -16 4 -27q10 -28 45 -29q8 0 18 2q41 10 133.5 102.5t120.5 137.5v-91q-14 -27 -84.5 -99.5t-113.5 -108.5q-95 -83 -172 -84q-16 0 -31 4q-66 10 -86 63q-17 39 -17 90q0 100 66 248 l217 457l264 510q18 35 23.5 38t40.5 7h123zM1092 1241q5 1 9 1q27 0 36 -23q3 -5 3 -11q0 -12 -11 -28l-164 -310l-156 -278q12 -41 31.5 -142.5t21.5 -164.5q38 -16 63 -17q15 0 25 6q41 18 86 74v-74q-33 -63 -79 -79q-16 -6 -46 -3t-47 13q0 -6 1 -12q0 -121 -40 -252 q-41 -137 -135 -207q-53 -35 -102 -35q-17 0 -33 4q-76 16 -108 96q-20 49 -23 111v12q0 57 17 122q19 73 41 134.5t59 145.5l23 59l23 60l11 32q-31 43 -29 98q6 43 36 72t71 33l137 268q63 121 96 172l30 52q15 28 17.5 35t15.5 16.5t23.5 10.5t40.5 3zM707 334 q-2 -4 -11.5 -26.5t-19.5 -50.5l-18 -52q-6 -20 -19 -58l-20 -60l-18 -56l-15 -56q-6 -23 -10 -47q-3 -20 -4 -35q0 -22 6 -40q9 -25 35 -26q4 0 8 1q33 6 67 96q67 180 68 288q0 49 -14 83q-25 25 -35 39zM629 1241q5 1 9 1q27 0 36 -23q3 -5 3 -11q0 -12 -11 -28 l-164 -310l-156 -278q12 -41 31.5 -142.5t21.5 -164.5q38 -16 63 -17q15 0 25 6q41 18 86 74v-74q-33 -63 -79 -79q-16 -6 -46 -3t-47 13q0 -6 1 -12q0 -121 -40 -252q-41 -137 -135 -207q-53 -35 -102 -35q-17 0 -33 4q-76 16 -108 96q-20 49 -23 111v12q0 57 17 122 q19 73 41 134.5t59 145.5l23 59l23 60l11 32q-31 43 -29 98q6 43 36 72t71 33l137 268q63 121 96 172l30 52q15 28 17.5 35t15.5 16.5t23.5 10.5t40.5 3zM244 334q-2 -4 -11.5 -26.5t-19.5 -50.5l-18 -52q-6 -20 -19 -58l-20 -60l-18 -56l-15 -56q-6 -23 -10 -47 q-3 -20 -4 -35q0 -22 6 -40q9 -25 35 -26q4 0 8 1q33 6 67 96q67 180 68 288q0 49 -14 83q-25 25 -35 39z" />
</font>
</defs>
</svg>
