<?xml version="1.0" standalone="no"?>
<!DOCTYPE svg PUBLIC "-//W3C//DTD SVG 1.1//EN" "http://www.w3.org/Graphics/SVG/1.1/DTD/svg11.dtd" >
<svg xmlns="http://www.w3.org/2000/svg">
<metadata>
This is a custom SVG webfont generated by Font Squirrel.
Copyright   : Copyright c 2007 by Tomas Brousil All rights reserved
Designer    : Tomas Brousil
Foundry     : Tomas Brousil
Foundry URL : httpwwwsuitcasetypecom
</metadata>
<defs>
<font id="KatarineStdRegular" horiz-adv-x="1062" >
<font-face units-per-em="2048" ascent="1638" descent="-410" />
<missing-glyph horiz-adv-x="471" />
<glyph unicode=" "  horiz-adv-x="471" />
<glyph unicode="&#x09;" horiz-adv-x="471" />
<glyph unicode="&#xa0;" horiz-adv-x="471" />
<glyph unicode="!" horiz-adv-x="438" d="M104 102.5q0 49.5 33 83t82 33.5t82 -33.5t33 -83t-33 -82t-82 -32.5t-82 32.5t-33 82zM113 1448q0 31 30 31h144q33 0 32 -31l-36 -1059q-2 -31 -33 -31h-70q-31 0 -30 31z" />
<glyph unicode="&#x22;" horiz-adv-x="659" d="M102 1448q0 31 31 31h123q31 0 31 -31l-33 -426q0 -29 -31 -29h-57q-31 0 -31 29zM373 1448q0 31 28 31h125q31 0 31 -31l-33 -426q0 -29 -30 -29h-58q-31 0 -30 29z" />
<glyph unicode="#" horiz-adv-x="1439" d="M74 461v78q0 31 30 30h201q33 0 43 29l86 272q10 37 -28 37h-154q-31 0 -31 31v78q0 31 31 31h197q35 0 45 32l124 398q9 23 32 23q3 0 7 -1l88 -26q31 -8 21 -37l-111 -353q-6 -37 29 -36h258q35 0 45 32l125 398q9 23 32 23q3 0 7 -1l88 -26q31 -8 21 -37l-111 -353 q-10 -37 29 -36h157q31 0 31 -31v-78q0 -31 -31 -31h-202q-35 0 -46 -28l-83 -273q-10 -37 28 -37h156q33 0 33 -30v-78q0 -31 -33 -31h-199q-37 0 -47 -33l-123 -395q-8 -22 -26 -22q-5 0 -11 2l-88 26q-29 8 -22 37l108 348q10 37 -26 37h-258q-35 0 -45 -33l-125 -395 q-8 -22 -26 -22q-5 0 -11 2l-88 26q-29 8 -23 37l111 348q6 37 -29 37h-156q-30 0 -30 31zM510 606q-2 -8 -2 -14q0 -23 31 -23h260q33 0 43 29l84 272q3 7 2 13q0 8 -4 14q-8 10 -25 10h-260q-33 0 -43 -28z" />
<glyph unicode="$" horiz-adv-x="1075" d="M119 428q0 31 31 31h98q33 0 33 -31q0 -129 71.5 -214t184.5 -85q111 0 184.5 73.5t73.5 176.5q0 80 -49.5 140.5t-124 95t-160.5 78.5t-161 89t-124 127t-49 193q0 154 88 260t244 131v221q0 31 30 31h99q31 0 30 -31v-221q164 -27 247 -144.5t83 -273.5q0 -33 -30 -33 h-99q-33 0 -33 33q0 123 -64.5 199t-182.5 76q-123 0 -186.5 -71t-63.5 -169q0 -70 36.5 -123t95 -89t130.5 -67.5t143.5 -69.5t130 -85t95 -122t36.5 -173q0 -150 -95 -259.5t-243 -133.5v-224q0 -31 -30 -30h-99q-31 0 -30 30v224q-156 27 -248 147.5t-92 292.5z" />
<glyph unicode="%" horiz-adv-x="1433" d="M94 965v299q0 102 63.5 167.5t172 65.5t171 -64.5t62.5 -168.5v-299q0 -104 -63.5 -170t-169.5 -66q-109 0 -172.5 66t-63.5 170zM223 967q0 -51 28 -84t79 -33q49 0 77.5 34t28.5 83v295q0 49 -28.5 81.5t-77.5 32.5q-51 0 -79 -32.5t-28 -81.5v-295zM248 63l819 1418 q10 16 24 16q9 0 19 -6l66 -37q27 -14 10 -43l-819 -1413q-12 -18 -27 -18q-9 0 -18 6l-64 34q-16 11 -16 26q0 8 6 17zM870 225v299q0 102 63.5 168t172 66t171 -64.5t62.5 -169.5v-299q0 -104 -63.5 -169.5t-169.5 -65.5q-109 0 -172.5 65.5t-63.5 169.5zM999 227 q0 -51 28 -83.5t79 -32.5q49 0 77.5 33.5t28.5 82.5v295q0 49 -28.5 82t-77.5 33q-51 0 -79 -33t-28 -82v-295z" />
<glyph unicode="&#x26;" horiz-adv-x="1308" d="M82 354q0 139 68.5 229.5t197.5 159.5q25 14 4 39l-35 35q-143 141 -143 311q0 168 106.5 269.5t268.5 101.5q156 0 264.5 -95t108.5 -259q0 -125 -79 -224.5t-188 -158.5q-39 -16 -10 -45l223 -223q18 -17 36.5 -17.5t35.5 17.5l184 184q23 23 43 -2l60 -60 q23 -23 0 -43l-185 -184q-17 -17 -17 -34.5t17 -35.5l215 -212q10 -12 10.5 -23.5t-10.5 -22.5l-71 -69q-23 -20 -45 2l-211 211q-18 18 -36 18t-36 -18l-80 -80q-78 -80 -150.5 -112.5t-164.5 -32.5q-180 0 -280.5 105t-100.5 269zM244 350q0 -104 61.5 -164.5t161.5 -60.5 q57 0 104 23.5t109 84.5l76 76q17 17 17 34.5t-17 35.5l-240 240q-17 17 -38 16q-15 0 -32 -8q-100 -57 -151 -121t-51 -156zM336 1131q0 -104 106 -211l43 -45q16 -16 35 -16q13 0 27 7q96 51 154.5 125t58.5 156q0 86 -56.5 144.5t-154.5 58.5q-96 0 -154.5 -59.5 t-58.5 -159.5z" />
<glyph unicode="'" horiz-adv-x="389" d="M102 1448q0 31 31 31h123q31 0 31 -31l-33 -426q0 -29 -31 -29h-57q-31 0 -31 29z" />
<glyph unicode="(" horiz-adv-x="503" d="M82 739q0 561 242 981q11 17 25 18q8 0 18 -5l79 -47q16 -9 17 -24q0 -9 -6 -20q-219 -387 -219 -903t219 -903q6 -11 6 -20q0 -14 -17 -23l-79 -47q-9 -5 -18 -5q-15 0 -25 17q-242 420 -242 981z" />
<glyph unicode=")" horiz-adv-x="503" d="M47 -164q219 387 219 903q0 515 -219 903q-6 11 -6 20q0 14 16 24l80 47q9 5 18 5q15 0 25 -18q242 -420 242 -981t-242 -981q-11 -17 -25 -17q-8 0 -18 5l-80 47q-16 9 -16 23q0 9 6 20z" />
<glyph unicode="*" horiz-adv-x="722" d="M47 1034q-3 8 -3 14q0 13 13 23l156 72q14 8 14 22.5t-14 22.5l-156 74q-14 8 -13 19q0 8 5 17l41 72q16 25 37 10l141 -96q12 -10 25.5 -2t11.5 27l-14 166q0 29 28 28h84q27 0 27 -28l-12 -166q-2 -18 11 -26.5t26 1.5l141 96q20 14 37 -10l41 -72q5 -9 5 -16 q0 -13 -15 -20l-154 -74q-14 -8 -14 -22.5t14 -22.5l156 -72q13 -9 12 -21q0 -7 -4 -16l-41 -73q-14 -25 -37 -11l-141 99q-12 10 -25.5 1.5t-13.5 -26.5l14 -168q0 -27 -27 -27h-84q-29 0 -28 27l14 168q2 18 -11 26.5t-26 -1.5l-141 -99q-25 -10 -37 11z" />
<glyph unicode="+" horiz-adv-x="868" d="M41 686v76q0 33 31 33h235q49 0 49 49v260q0 33 31 33h94q31 0 31 -33v-260q0 -49 49 -49h236q31 0 30 -33v-76q0 -31 -30 -31h-236q-49 0 -49 -51v-262q0 -31 -31 -31h-94q-31 0 -31 31v262q0 51 -49 51h-235q-31 0 -31 31z" />
<glyph unicode="," horiz-adv-x="354" d="M23 -309l118 471q6 29 33 28h131q27 0 28 -22q0 -9 -5 -23l-183 -460q-10 -25 -34 -25h-66q-26 0 -22 31z" />
<glyph unicode="-" horiz-adv-x="610" d="M41 496v82q0 33 31 32h467q31 0 30 -32v-82q0 -33 -30 -33h-467q-31 0 -31 33z" />
<glyph unicode="." horiz-adv-x="436" d="M102 106q0 53 32 83t87 30q51 0 82 -30.5t31 -82.5q0 -55 -31 -86.5t-82 -31.5q-55 0 -87 31.5t-32 86.5z" />
<glyph unicode="/" horiz-adv-x="598" d="M-47 -78l545 1675q8 22 27 23q5 0 12 -2l88 -29q22 -7 21 -28q0 -5 -1 -11l-545 -1675q-7 -22 -24 -22q-7 0 -15 4l-88 26q-22 7 -21 28q0 5 1 11z" />
<glyph unicode="0" horiz-adv-x="1058" d="M119 383v266q0 172 112.5 288t294.5 116q186 0 300 -116t114 -288v-266q0 -172 -112.5 -287.5t-297 -115.5t-298 115.5t-113.5 287.5zM279 383q0 -106 68.5 -181t182.5 -75q113 0 181.5 74.5t68.5 181.5v266q0 104 -69.5 179t-184.5 75q-111 0 -179 -74.5t-68 -179.5 v-266z" />
<glyph unicode="1" horiz-adv-x="856" d="M129 31v78q0 31 31 30h172q49 0 49 49v654q0 51 -49 51h-172q-31 0 -31 31v75q0 33 31 33h346q31 0 31 -33v-811q0 -49 49 -49h172q31 0 30 -30v-78q0 -31 -30 -31h-598q-31 0 -31 31z" />
<glyph unicode="2" horiz-adv-x="944" d="M80 31v84q0 39 24 55l428 324q139 111 140 231q0 92 -55.5 149.5t-153.5 57.5q-100 0 -154.5 -67.5t-54.5 -164.5q0 -31 -31 -30h-98q-33 0 -33 30q0 162 96.5 271.5t278.5 109.5q168 0 267.5 -99t99.5 -251q0 -201 -218 -350l-262 -195q-14 -8 -11 -24.5t22 -16.5h469 q33 0 32 -30v-84q0 -31 -32 -31h-723q-31 0 -31 31z" />
<glyph unicode="3" horiz-adv-x="997" d="M78 -43q0 31 31 31h98q33 0 33 -31q0 -115 68.5 -194.5t177 -79.5t180 71.5t71.5 218.5q0 123 -68.5 203t-193.5 80q-33 0 -33 27v94q0 29 33 29q96 0 167 70.5t71 197.5q0 102 -63.5 164.5t-170.5 62.5q-121 0 -179 -80t-58 -194q0 -31 -33 -31h-98q-31 0 -31 31 q0 186 106.5 306t296.5 120q174 0 282.5 -106.5t108.5 -274.5q0 -190 -174 -305q-35 -25 0 -43q92 -47 145.5 -139.5t53.5 -202.5q0 -215 -117.5 -332t-298.5 -117q-176 0 -290.5 120t-114.5 304z" />
<glyph unicode="4" horiz-adv-x="999" d="M57 31v90q0 20 6 45l336 958q8 21 27 21q7 0 14 -2l82 -31q31 -10 21 -41l-307 -881q-14 -41 20 -40h229q49 0 50 51v182q0 31 30 31h99q33 0 32 -31v-182q0 -51 49 -51h164q33 0 33 -31v-88q0 -31 -33 -31h-164q-49 0 -49 -49v-277q0 -33 -32 -32h-99q-31 0 -30 32v277 q0 49 -50 49h-397q-31 0 -31 31z" />
<glyph unicode="5" horiz-adv-x="1132" d="M160 -43q0 31 30 31h99q33 0 33 -31q0 -115 67.5 -194.5t175.5 -79.5q104 0 175 75.5t71 221.5v180q0 217 -184 217q-123 0 -234 -96q-14 -12 -28.5 -33t-25.5 -32t-28 -11h-88q-31 0 -30 31l51 763q2 33 32 33h617q33 0 33 -33v-86q0 -33 -33 -32h-444q-49 0 -50 -50 l-32 -374q-2 -25 15 -30t28 5q131 88 258 88q141 0 223 -87t82 -232v-224q0 -209 -116 -326.5t-292 -117.5t-290.5 120t-114.5 304z" />
<glyph unicode="6" horiz-adv-x="983" d="M78 428q0 135 69 336l263 717q7 22 25 22q7 0 16 -4l86 -35q33 -10 18 -39l-201 -553q-6 -12 1 -19t20 -3q74 27 164 27q174 0 270 -114t96 -319q0 -211 -113.5 -337.5t-308 -126.5t-300 120.5t-105.5 327.5zM240 432q0 -141 64.5 -222t174.5 -81q47 0 89 14.5t84 47 t66.5 98t24.5 155.5q0 291 -245 291q-190 0 -222 -88q-36 -109 -36 -215z" />
<glyph unicode="7" horiz-adv-x="897" d="M37 913v86q0 33 31 33h759q33 0 33 -33v-88q0 -23 -8 -45l-522 -1321q-8 -22 -29 -22q-6 0 -12 2l-86 31q-29 14 -19 41l494 1243q14 41 -21 41h-589q-31 -1 -31 32z" />
<glyph unicode="8" horiz-adv-x="1046" d="M98 1079q0 190 118 305t306 115q190 0 308 -114.5t118 -305.5q0 -102 -50 -201.5t-155 -152.5q-16 -8 -15 -21.5t15 -21.5q76 -41 124 -126t48 -185q0 -168 -104 -279.5t-289 -111.5q-182 0 -286.5 111.5t-104.5 279.5q0 100 48 185t124 126q14 8 15 21.5t-15 21.5 q-104 53 -154.5 151.5t-50.5 202.5zM260 1073q0 -104 73 -197.5t189 -93.5q119 0 191.5 93.5t72.5 197.5q0 123 -73.5 200t-190.5 77q-115 0 -188.5 -77t-73.5 -200zM291 372.5q0 -104.5 60.5 -174t170.5 -69.5q113 0 172.5 68.5t59.5 175.5q0 104 -63.5 182t-168.5 78 q-102 0 -166.5 -78t-64.5 -182.5z" />
<glyph unicode="9" horiz-adv-x="983" d="M78 588q0 209 113.5 337t308 128t300 -121t105.5 -328q0 -143 -69 -336l-263 -717q-7 -22 -26 -21q-8 0 -17 3l-86 33q-29 12 -18 41l203 551q6 12 -1 20t-20 4q-80 -29 -164 -28q-174 0 -270 113.5t-96 320.5zM240 588q0 -291 245 -291q190 0 222 86q37 100 36 217 q0 141 -64.5 221t-174.5 80q-47 0 -89 -14.5t-84 -46t-66.5 -97t-24.5 -155.5z" />
<glyph unicode=":" horiz-adv-x="436" d="M102 106q0 53 32 83t87 30q51 0 82 -30.5t31 -82.5q0 -55 -31 -86.5t-82 -31.5q-55 0 -87 31.5t-32 86.5zM102 930q0 51 32 81.5t87 30.5q51 0 82 -30.5t31 -81.5q0 -55 -31 -87t-82 -32q-55 0 -87 32t-32 87z" />
<glyph unicode=";" horiz-adv-x="436" d="M23 -309l118 471q6 29 33 28h131q39 0 23 -45l-183 -460q-10 -25 -34 -25h-66q-26 0 -22 31zM102 930q0 51 32 81.5t87 30.5q51 0 82 -30.5t31 -81.5q0 -55 -31 -87t-82 -32q-55 0 -87 32t-32 87z" />
<glyph unicode="&#x3c;" horiz-adv-x="868" d="M41 694v60q0 29 31 43l671 280q10 4 19 4q17 0 22 -18l35 -82q2 -6 2 -11q0 -16 -18 -24l-510 -201q-14 -4 -14 -16t14 -18l510 -199q18 -8 18 -25q0 -6 -2 -12l-35 -90q-7 -18 -23 -18q-8 0 -18 4l-671 280q-31 14 -31 43z" />
<glyph unicode="=" horiz-adv-x="868" d="M41 498v77q0 31 31 31h725q31 0 30 -31v-77q0 -31 -30 -31h-725q-31 0 -31 31zM41 872v78q0 31 31 31h725q31 0 30 -31v-78q0 -31 -30 -30h-725q-31 -1 -31 30z" />
<glyph unicode="&#x3e;" horiz-adv-x="868" d="M49 469q-2 6 -2 11q0 16 19 24l509 201q14 4 14.5 16t-14.5 18l-509 199q-18 8 -19 25q0 6 2 12l35 90q7 18 24 18q8 0 17 -4l672 -280q31 -14 30 -43v-60q0 -29 -30 -43l-672 -280q-10 -4 -18 -4q-17 0 -23 18z" />
<glyph unicode="?" horiz-adv-x="1017" d="M102 1075q0 178 104.5 301t305.5 123q186 0 294.5 -112.5t108.5 -280.5q0 -86 -33.5 -154.5t-82.5 -115.5l-99 -91q-49 -43 -84.5 -101t-37.5 -128l-5 -94q0 -31 -32 -31h-70q-31 0 -31 31l-4 88v19q0 75 28 138q32 71 80 118l96 94q48 45 82 103t34 128q0 96 -61.5 168 t-182.5 72q-119 0 -183.5 -76t-64.5 -199q0 -33 -33 -33h-98q-31 0 -31 33zM395 102.5q0 49.5 33 83t82 33.5t82 -33.5t33 -83t-33 -82t-82 -32.5t-82 32.5t-33 82z" />
<glyph unicode="@" horiz-adv-x="2035" d="M78 493.5q0 440.5 281.5 723t721.5 282.5q373 0 625 -233.5t252 -626.5q0 -162 -49 -292t-128 -208t-171 -118.5t-185 -40.5q-106 0 -176 67q-59 57 -59 145q0 15 2 31q2 12 -8 14.5t-19 -10.5q-150 -248 -336 -247q-106 0 -166.5 65.5t-60.5 171.5q0 92 32 305t66 303 q76 227 304 228q106 0 229 -90q10 -10 25.5 -5t17.5 23l2 25q6 27 33 26h90q31 0 24 -33l-96 -692q-4 -34 -4 -60q0 -59 22 -85q32 -37 95 -37q131 0 245.5 136t114.5 378q0 328 -206.5 520.5t-514.5 192.5q-371 0 -609.5 -240t-238.5 -618.5t239 -618.5t609 -240 q350 0 594 226q25 16 45 -4l58 -68q23 -23 -2 -43q-279 -258 -695 -258q-440 0 -721.5 282.5t-281.5 723zM756 244q0 -61 31.5 -93t80.5 -32q111 0 224.5 186.5t142.5 386.5l6 43q1 11 1 21q0 36 -17 55q-31 39 -90.5 69.5t-112.5 30.5q-137 0 -186 -143q-27 -84 -53.5 -264 t-26.5 -260z" />
<glyph unicode="A" d="M39 43l399 1407q10 29 37 29h111q29 0 39 -29l399 -1407q1 -6 1 -11q0 -23 -24 -28l-96 -29q-7 -2 -12 -2q-18 0 -25 25l-69 254q-10 35 -49 35h-437q-39 0 -49 -35l-69 -254q-6 -25 -25 -25q-6 0 -12 2l-97 29q-24 5 -23 28q0 5 1 11zM336 445q10 -9 26 -9h338 q27 0 35 20q4 10 4 18.5t-4 17.5l-178 663q-6 23 -26 24h-1q-18 0 -24 -24l-178 -663q-3 -10 -4 -20q1 -17 12 -27z" />
<glyph unicode="B" horiz-adv-x="1052" d="M160 31v1417q0 31 30 31h334q203 0 310.5 -116t107.5 -278q0 -209 -182 -311q-16 -10 -16.5 -22.5t16.5 -20.5q215 -111 215 -332q0 -160 -113.5 -279.5t-306.5 -119.5h-365q-30 0 -30 31zM322 201q0 -51 49 -51h172q117 0 193.5 71.5t76.5 190.5q0 111 -75.5 181.5 t-159.5 70.5h-207q-49 0 -49 -50v-413zM322 864q0 -51 49 -51h159q106 0 178 70.5t72 183.5q0 119 -73.5 190.5t-188.5 71.5h-147q-49 0 -49 -51v-414z" />
<glyph unicode="C" d="M78 739.5q0 358.5 123 559t372 200.5q193 0 302.5 -110.5t130.5 -311.5q0 -33 -33 -33h-99q-29 0 -30 31q-18 129 -87 202t-184 73q-334 0 -333.5 -610.5t333.5 -610.5q115 0 183.5 72.5t87.5 201.5q2 31 30 31h99q33 0 33 -33q-20 -201 -130 -311t-303 -110 q-250 0 -372.5 200.5t-122.5 559z" />
<glyph unicode="D" horiz-adv-x="1163" d="M160 31v1417q0 31 33 31h346q262 0 404 -191.5t142 -546.5q0 -358 -142 -549.5t-404 -191.5h-349q-30 0 -30 31zM322 201q0 -51 49 -51h166q186 0 286.5 148t100.5 443q0 289 -99.5 438.5t-287.5 149.5h-166q-49 0 -49 -51v-1077z" />
<glyph unicode="E" horiz-adv-x="968" d="M160 31v1417q0 31 30 31h668q33 0 33 -31v-88q0 -31 -33 -31h-487q-49 0 -49 -51v-414q0 -51 49 -51h354q33 0 33 -31v-88q0 -31 -33 -30h-354q-49 0 -49 -50v-413q0 -51 49 -51h487q33 0 33 -31v-88q0 -31 -33 -31h-668q-30 0 -30 31z" />
<glyph unicode="F" horiz-adv-x="927" d="M160 31v1417q0 31 30 31h664q33 0 33 -31v-88q0 -31 -33 -31h-483q-49 0 -49 -51v-414q0 -51 49 -51h350q33 0 33 -31v-88q0 -31 -33 -30h-350q-49 0 -49 -50v-583q0 -31 -33 -31h-99q-30 0 -30 31z" />
<glyph unicode="G" horiz-adv-x="1099" d="M78 739.5q0 358.5 123 559t372 200.5q193 0 302.5 -110.5t130.5 -311.5q0 -33 -33 -33h-99q-29 0 -30 31q-18 129 -87 202t-184 73q-334 0 -333.5 -610.5t333.5 -610.5q283 0 283 422q0 49 -47 49h-258q-31 0 -31 31v88q0 31 31 31h438q33 0 33 -31v-115 q0 -625 -449 -624q-250 0 -372.5 200.5t-122.5 559z" />
<glyph unicode="H" horiz-adv-x="1222" d="M160 31v1417q0 31 30 31h99q33 0 33 -31v-584q0 -51 49 -51h481q49 0 49 51v584q0 31 31 31h98q33 0 33 -31v-1417q0 -31 -33 -31h-98q-31 0 -31 31v583q0 49 -49 50h-481q-49 0 -49 -50v-583q0 -31 -33 -31h-99q-30 0 -30 31z" />
<glyph unicode="I" horiz-adv-x="727" d="M98 31v88q0 31 31 31h104q49 0 50 51v1077q0 51 -50 51h-104q-31 0 -31 31v88q0 31 31 31h467q33 0 33 -31v-88q0 -31 -33 -31h-102q-49 0 -50 -51v-1077q0 -51 50 -51h102q33 0 33 -31v-88q0 -31 -33 -31h-467q-31 0 -31 31z" />
<glyph unicode="J" horiz-adv-x="720" d="M74 31v88q0 31 30 31h111q90 0 137 48t47 134v1116q0 31 31 31h98q33 0 33 -31v-1104q0 -162 -93 -253t-249 -91h-115q-30 0 -30 31z" />
<glyph unicode="K" horiz-adv-x="1005" d="M160 31v1417q0 31 30 31h99q33 0 33 -31v-580q0 -20 19 -27t34 9l440 633q12 17 27 17q9 0 18 -7l74 -53q23 -18 8 -43l-424 -602q-13 -20 -13 -40t13 -38l438 -625q7 -11 7 -20q0 -14 -15 -25l-82 -57q-11 -7 -20 -7q-14 0 -25 15l-442 635q-12 20 -34.5 15t-22.5 -32 v-585q0 -31 -33 -31h-99q-30 0 -30 31z" />
<glyph unicode="L" horiz-adv-x="903" d="M160 31v1417q0 31 30 31h99q33 0 33 -31v-1247q0 -51 49 -51h463q33 0 32 -31v-88q0 -31 -32 -31h-644q-30 0 -30 31z" />
<glyph unicode="M" horiz-adv-x="1480" d="M160 31v1413q0 35 33 35h137q27 0 37 -27l352 -969q6 -18 19.5 -18t21.5 18l354 969q10 27 37 27h137q33 0 33 -35v-1413q0 -31 -33 -31h-98q-31 0 -31 31v999q0 23 -16.5 23t-22.5 -17l-291 -790q-10 -29 -36 -29h-107q-27 0 -37 29l-289 790q-4 10 -13 14.5t-17 -1 t-8 -19.5v-999q0 -31 -33 -31h-99q-30 0 -30 31z" />
<glyph unicode="N" horiz-adv-x="1259" d="M160 31v1417q0 31 30 31h123q37 0 52 -35l534 -1069q6 -14 22.5 -11t16.5 25v1059q0 31 31 31h98q33 0 33 -31v-1417q0 -31 -33 -31h-121q-35 0 -53 35l-533 1069q-8 14 -23 12t-15 -24v-1061q0 -31 -33 -31h-99q-30 0 -30 31z" />
<glyph unicode="O" horiz-adv-x="1167" d="M78 741q0 371 128 564.5t380 193.5q246 0 375 -195.5t129 -564.5q0 -371 -128 -565t-376 -194q-252 0 -380 194t-128 567zM240 741q0 -612 346 -612q342 0 342 610q0 297 -86 454t-256 157q-346 -1 -346 -609z" />
<glyph unicode="P" horiz-adv-x="1036" d="M160 31v1417q0 31 30 31h342q211 0 337 -116t126 -323q0 -201 -134 -318.5t-349 -117.5h-141q-49 0 -49 -49v-524q0 -31 -31 -31h-101q-30 0 -30 31zM322 805q0 -51 49 -51h143q141 0 230.5 77.5t89.5 208.5q0 137 -81 213t-223 76h-159q-49 0 -49 -51v-473z" />
<glyph unicode="Q" horiz-adv-x="1128" d="M78 741q0 371 128 564.5t380 193.5q246 0 375 -195.5t129 -564.5q0 -635 -361 -739q-39 -12 -51 -43t-12 -96q0 -90 50 -146.5t126 -56.5h96q33 0 33 -31v-88q0 -31 -33 -31h-84q-104 0 -178 36t-107.5 93.5t-48 111.5t-14.5 112q0 76 -11.5 100.5t-54.5 38.5 q-362 106 -362 741zM240 741q0 -612 346 -612q342 0 342 610q0 297 -86 454t-256 157q-346 -1 -346 -609z" />
<glyph unicode="R" horiz-adv-x="1060" d="M160 31v1417q0 31 30 31h342q211 0 337 -116t126 -323q0 -131 -60.5 -229t-162.5 -149q-31 -12 -14 -48l256 -542q5 -10 5 -19q0 -16 -20 -24l-90 -43q-9 -4 -15 -4q-17 0 -26 20l-264 573q-16 29 -53 29h-180q-49 0 -49 -49v-524q0 -31 -31 -31h-101q-30 0 -30 31z M322 805q0 -51 49 -51h143q141 0 230.5 77.5t89.5 208.5q0 137 -81 213t-223 76h-159q-49 0 -49 -51v-473z" />
<glyph unicode="S" horiz-adv-x="993" d="M78 428q0 31 31 31h98q33 0 33 -31q0 -129 71.5 -214t184.5 -85q111 0 184.5 73.5t73.5 176.5q0 80 -49.5 140.5t-124 95t-160.5 78.5t-161 89t-124 127t-49 193q0 174 111.5 285.5t300.5 111.5q203 0 306 -124t103 -300q0 -33 -30 -33h-99q-33 0 -33 33q0 123 -64.5 199 t-182.5 76q-123 0 -186.5 -71t-63.5 -169q0 -70 37 -123t95 -89t130 -67.5t143.5 -69.5t130 -85t95 -122t36.5 -173q0 -170 -120.5 -285.5t-298.5 -115.5q-188 0 -303 126.5t-115 321.5z" />
<glyph unicode="T" horiz-adv-x="960" d="M0 1360v88q0 31 31 31h897q33 0 33 -31v-88q0 -31 -33 -31h-318q-49 0 -49 -51v-1247q0 -31 -33 -31h-98q-31 0 -31 31v1247q0 51 -49 51h-319q-31 0 -31 31z" />
<glyph unicode="U" horiz-adv-x="1175" d="M139 397v1051q0 31 31 31h98q33 0 33 -31v-1051q0 -117 78 -192.5t209 -75.5t208.5 76t77.5 192v1051q0 31 33 31h99q31 0 30 -31v-1051q0 -182 -120.5 -299.5t-327.5 -117.5q-209 0 -329 117.5t-120 299.5z" />
<glyph unicode="V" d="M39 1436q-1 6 -1 10q0 23 23 29l97 28q7 2 12 3q18 0 25 -25l311 -1157q6 -23 25.5 -24t25.5 24l311 1157q6 25 25 25q6 0 12 -3l96 -28q24 -5 24 -29q0 -5 -1 -10l-399 -1407q-10 -29 -37 -29h-111q-29 0 -39 29z" />
<glyph unicode="W" horiz-adv-x="1538" d="M39 1442q-2 7 -2 12q0 21 24 27l97 18q8 3 14 3q18 0 23 -23l217 -1078q6 -25 25.5 -24.5t25.5 24.5l215 1049q6 29 37 29h110q31 0 37 -29l211 -1049q6 -25 25.5 -24.5t25.5 24.5l219 1078q8 22 28 22q5 0 11 -2l95 -18q25 -5 25 -25q0 -6 -3 -14l-307 -1413 q-10 -29 -39 -29h-109q-31 0 -36 29l-211 1036q-6 25 -26.5 25t-25.5 -25l-215 -1036q-6 -29 -34 -29h-111q-29 0 -39 29z" />
<glyph unicode="X" d="M49 1403q-6 10 -6 19q0 14 16 24l91 53q10 6 18 6q15 0 25 -18l313 -545q10 -16 26.5 -16t26.5 16l313 543q10 18 25 18q8 0 18 -6l80 -47q29 -16 11 -43l-359 -616q-13 -23 -13 -45t13 -44l367 -626q5 -10 5 -19q0 -15 -18 -24l-90 -53q-10 -7 -18 -7q-14 0 -23 19 l-315 549q-10 16 -27.5 16t-27.5 -16l-316 -547q-10 -17 -23 -18q-9 0 -20 8l-78 47q-17 9 -17 24q0 8 5 19l363 616q14 25 14 47.5t-14 42.5z" />
<glyph unicode="Y" horiz-adv-x="1001" d="M18 1405q-7 10 -6 18q0 14 19 25l88 49q10 7 19 7q14 0 24 -17l317 -615q8 -16 26.5 -16t26.5 16l316 611q10 19 24 19q9 0 19 -7l80 -45q18 -10 18 -25q0 -8 -6 -18l-387 -739q-10 -25 -10 -45v-592q0 -31 -33 -31h-98q-31 0 -31 31v590q0 25 -12 43z" />
<glyph unicode="Z" horiz-adv-x="962" d="M78 31v90q0 20 12 45l592 1122q10 14 4 27.5t-27 13.5h-550q-31 0 -31 31v88q0 31 31 31h743q33 0 33 -31v-90q0 -23 -15 -45l-591 -1123q-10 -14 -3 -27t27 -13h549q33 0 33 -31v-88q0 -31 -33 -31h-743q-31 0 -31 31z" />
<glyph unicode="[" horiz-adv-x="507" d="M102 -197v1872q0 31 31 31h344q31 0 31 -31v-78q0 -31 -31 -30h-170q-49 0 -49 -49v-1557q0 -49 49 -49h170q31 0 31 -31v-78q0 -31 -31 -30h-344q-31 -1 -31 30z" />
<glyph unicode="\" horiz-adv-x="593" d="M-47 1552q-1 5 -1 10q0 20 21 27l84 29q6 2 12 2q19 0 27 -23l545 -1675q3 -8 3 -14q0 -19 -23 -25l-84 -26q-8 -3 -15 -4q-17 0 -24 24z" />
<glyph unicode="]" horiz-adv-x="507" d="M0 -119q0 31 31 31h170q49 0 49 49v1557q0 49 -49 49h-170q-31 0 -31 30v78q0 31 31 31h344q31 0 31 -31v-1872q0 -31 -31 -30h-344q-31 0 -31 30v78z" />
<glyph unicode="^" horiz-adv-x="849" d="M106 768l228 688q8 23 28 23h123q25 0 29 -23l229 -686q4 -8 4 -15q0 -17 -22 -24l-94 -31q-8 -3 -14 -3q-17 0 -25 24l-156 485q-4 14 -17.5 14.5t-17.5 -14.5l-153 -485q-7 -24 -25 -24q-6 0 -14 3l-84 29q-21 6 -21 24q-1 7 2 15z" />
<glyph unicode="_" horiz-adv-x="1019" d="M0 -90q0 31 31 31h958q31 0 31 -31v-80q0 -33 -31 -33h-958q-31 0 -31 33v80z" />
<glyph unicode="`" horiz-adv-x="612" d="M113 1425l65 72q12 12 23 12q10 0 20 -10l277 -289q12 -10 11 -19q0 -9 -9 -17l-35 -39q-9 -12 -19 -12q-9 0 -20 10l-309 251q-12 11 -13 23q1 9 9 18z" />
<glyph unicode="a" horiz-adv-x="940" d="M78 279q0 170 110.5 250.5t343.5 80.5h101q33 0 33 31v41q0 131 -46.5 180t-125.5 49q-129 0 -289 -86q-25 -16 -39 15l-35 71q-10 23 10 37q178 104 363 105q317 0 317 -375v-647q0 -31 -30 -31h-82q-27 0 -31 25l-6 28q-6 18 -20.5 22.5t-24.5 -5.5q-135 -90 -269 -90 q-121 0 -200.5 86t-79.5 213zM233 291q0 -80 45.5 -128t127.5 -48q57 0 123.5 30.5t109.5 73.5q27 27 27 76v143q0 35 -35 35h-168q-94 0 -162 -42t-68 -140z" />
<glyph unicode="b" horiz-adv-x="968" d="M119 31v1417q0 31 31 31h94q31 0 30 -31v-465q0 -20 16.5 -24.5t26.5 4.5q135 90 254 90q139 0 219 -87t80 -233v-434q0 -145 -79.5 -232t-219.5 -87q-121 0 -258 90q-10 10 -24.5 6t-20.5 -23l-6 -28q-4 -25 -31 -25h-81q-31 0 -31 31zM274 295q0 -47 27 -76 q39 -39 107.5 -69.5t123.5 -30.5q182 0 183 219v356q0 217 -183 217q-55 0 -123.5 -30.5t-107.5 -69.5q-27 -27 -27 -76v-440z" />
<glyph unicode="c" horiz-adv-x="864" d="M78 516.5q0 536.5 393 536.5q152 0 240 -87t106 -239q4 -31 -31 -31h-94q-27 0 -33 23q-14 90 -63 142t-125 52q-238 0 -238 -397t238 -397q76 0 125 52t63 142q6 23 33 23h94q35 0 31 -33q-18 -150 -106 -236.5t-240 -86.5q-393 0 -393 536.5z" />
<glyph unicode="d" horiz-adv-x="968" d="M98 299v434q0 145 80 232.5t219 87.5q119 0 254 -90q10 -8 26.5 -4t16.5 24v465q0 31 31 31h94q31 0 31 -31v-1417q0 -31 -31 -31h-82q-27 0 -30 25l-7 28q-6 18 -20 22.5t-25 -5.5q-137 -90 -258 -90q-139 0 -219 87t-80 232zM254 338q0 -219 182 -219q55 0 124 30.5 t108 69.5q27 29 26 76v440q0 49 -26 76q-39 39 -107.5 69.5t-124.5 30.5q-182 0 -182 -217v-356z" />
<glyph unicode="e" horiz-adv-x="913" d="M78 520q0 285 110.5 409t288.5 124q180 0 269.5 -121t89.5 -336v-100q0 -45 -48 -45h-507q-39 0 -39 -43q0 -117 74 -208q65 -79 157 -79t264 84q25 14 39 -15l33 -69q12 -25 -12 -39q-172 -102 -330 -102q-186 0 -287.5 146t-101.5 394zM238 631q0 -45 45 -45h350 q45 0 45 45q0 135 -53.5 208.5t-153.5 73.5q-113 0 -173 -81.5t-60 -200.5z" />
<glyph unicode="f" horiz-adv-x="622" d="M51 924v75q0 33 31 33h90q49 0 49 49v45q0 352 344 353h49q29 0 29 -31v-80q0 -29 -31 -29h-53q-111 0 -146.5 -59t-35.5 -170v-29q0 -49 49 -49h147q31 0 31 -33v-75q0 -31 -31 -31h-147q-49 0 -49 -51v-811q0 -31 -31 -31h-94q-31 0 -31 31v811q0 51 -49 51h-90 q-31 0 -31 31z" />
<glyph unicode="g" horiz-adv-x="968" d="M98 299v434q0 145 80 232.5t219 87.5q125 0 258 -92q10 -8 24.5 -4t20.5 22l7 29q6 25 30 24h82q31 0 31 -33v-954q0 -250 -102.5 -403.5t-286.5 -153.5q-139 0 -326 98q-27 16 -16 41l37 76q14 31 41 16q10 -6 34 -18l35 -17q10 -5 30.5 -14.5t32 -13.5l30 -10 t31.5 -9.5t30.5 -5.5t34.5 -2q100 0 169.5 104.5t69.5 311.5q0 20 -16.5 26.5t-26.5 -3.5q-131 -88 -254 -88q-139 0 -219 87t-80 232zM254 338q0 -219 182 -219q55 0 124 30.5t108 69.5q27 29 26 76v440q0 49 -26 76q-39 39 -107.5 69.5t-124.5 30.5q-182 0 -182 -217v-356 z" />
<glyph unicode="h" horiz-adv-x="989" d="M119 31v1417q0 31 31 31h94q31 0 30 -31v-465q0 -20 16.5 -24.5t26.5 4.5q135 90 254 90q139 0 219 -87t80 -233v-702q0 -31 -30 -31h-95q-31 0 -30 31v663q0 217 -183 217q-55 0 -123.5 -30.5t-107.5 -69.5q-27 -27 -27 -76v-704q0 -31 -30 -31h-94q-31 0 -31 31z" />
<glyph unicode="i" horiz-adv-x="393" d="M88 1305q0 49 28.5 78.5t80 29.5t80 -29.5t28.5 -78.5q0 -51 -28.5 -80t-80 -29t-80 29t-28.5 80zM119 31v968q0 33 31 33h94q31 0 30 -33v-968q0 -31 -30 -31h-94q-31 0 -31 31z" />
<glyph unicode="j" horiz-adv-x="452" d="M-96 -383q0 31 30 31h46q117 0 155.5 62.5t38.5 183.5v1105q0 33 33 33h92q31 0 31 -33v-1114q0 -377 -355 -377h-41q-31 0 -30 31v78zM143 1305q0 49 29 78.5t80 29.5t79.5 -29.5t28.5 -78.5q0 -51 -28.5 -80t-79.5 -29t-80 29t-29 80z" />
<glyph unicode="k" horiz-adv-x="841" d="M119 31v1417q1 31 31 31h94q31 0 30 -31v-801q0 -16 13.5 -21t25.5 9l332 412q20 25 45 2l64 -52q27 -23 4 -47l-312 -377q-23 -29 -2 -57l359 -420q9 -12 9 -21q0 -13 -15 -22l-70 -63q-12 -11 -23 -11q-12 0 -22 13l-371 438q-10 12 -23.5 7t-13.5 -21v-385 q0 -31 -30 -31h-94q-30 0 -31 31z" />
<glyph unicode="l" horiz-adv-x="393" d="M119 31v1417q0 31 31 31h94q31 0 30 -31v-1417q0 -31 -30 -31h-94q-31 0 -31 31z" />
<glyph unicode="m" horiz-adv-x="1470" d="M119 31v968q0 33 31 33h81q25 0 31 -24l6 -29q6 -18 20.5 -22.5t24.5 4.5q45 31 69 45t70 30.5t91 16.5q152 0 223 -115q14 -20 37 -2q152 117 278 117q137 0 204 -85t67 -235v-702q0 -31 -31 -31h-94q-31 0 -31 31v663q0 111 -33 164t-121 53q-102 0 -202 -100 q-27 -27 -27 -74v-706q0 -31 -31 -31h-94q-31 0 -31 31v663q0 111 -32.5 164t-120.5 53q-102 0 -203 -100q-27 -27 -27 -76v-704q0 -31 -30 -31h-94q-31 0 -31 31z" />
<glyph unicode="n" horiz-adv-x="989" d="M119 31v968q0 33 31 33h81q25 0 31 -24l6 -29q6 -18 20.5 -22.5t24.5 4.5q133 92 258 92q139 0 219 -87t80 -233v-702q0 -31 -30 -31h-95q-31 0 -30 31v663q0 217 -183 217q-55 0 -123.5 -30.5t-107.5 -69.5q-27 -27 -27 -76v-704q0 -31 -30 -31h-94q-31 0 -31 31z" />
<glyph unicode="o" horiz-adv-x="974" d="M78 516q0 266 98 401.5t311 135.5t311.5 -135.5t98.5 -401.5t-98.5 -401t-311.5 -135t-311 135t-98 401zM233 516q0 -199 60.5 -298t194 -99t193.5 99t60 298t-60 298t-193.5 99t-194 -99t-60.5 -298z" />
<glyph unicode="p" horiz-adv-x="968" d="M119 -461v1460q0 33 31 33h81q25 0 31 -24l6 -29q6 -18 20.5 -22.5t24.5 4.5q133 92 258 92q139 0 219 -87t80 -233v-434q0 -145 -79.5 -232t-219.5 -87q-121 0 -254 88q-10 10 -26.5 5t-16.5 -26v-508q0 -31 -30 -31h-94q-31 0 -31 31zM274 295q0 -47 27 -76 q39 -39 107.5 -69.5t123.5 -30.5q182 0 183 219v356q0 217 -183 217q-55 0 -123.5 -30.5t-107.5 -69.5q-27 -27 -27 -76v-440z" />
<glyph unicode="q" horiz-adv-x="968" d="M98 299v434q0 145 80 232.5t219 87.5q125 0 258 -92q10 -8 24.5 -4t20.5 22l7 29q6 25 30 24h82q31 0 31 -33v-1460q0 -31 -31 -31h-94q-31 0 -31 31v508q0 20 -16 25.5t-27 -4.5q-131 -88 -254 -88q-139 0 -219 87t-80 232zM254 338q0 -219 182 -219q55 0 124 30.5 t108 69.5q27 29 26 76v440q0 49 -26 76q-39 39 -107.5 69.5t-124.5 30.5q-182 0 -182 -217v-356z" />
<glyph unicode="r" horiz-adv-x="630" d="M119 999q1 33 31 33h83q29 0 37 -35l9 -79q2 -16 16 -18.5t22 9.5q113 143 267 144q27 0 26 -29v-98q0 -29 -28 -29h-23q-106 0 -195.5 -99.5t-89.5 -219.5v-547q0 -31 -30 -31h-94q-31 0 -31 31v968z" />
<glyph unicode="s" horiz-adv-x="845" d="M78 283q0 31 31 30h94q31 0 30 -30q0 -70 52.5 -117t136.5 -47q76 0 133 45t57 115q0 72 -54 112.5t-132 61t-155.5 47t-132 91t-54.5 171.5q0 123 90 207t248 84q164 0 250 -83t86 -214q0 -31 -31 -31h-94q-31 0 -31 31q0 72 -49 114.5t-131 42.5t-132 -42t-50 -107.5 t54 -103t132 -58t155.5 -49.5t132 -96.5t54.5 -177.5q0 -123 -98.5 -211t-247.5 -88q-164 0 -254 88t-90 215z" />
<glyph unicode="t" horiz-adv-x="731" d="M18 924v75q0 33 31 33h119q41 0 41 39v195q0 33 31 32h94q31 0 31 -32v-195q0 -39 41 -39h221q31 0 30 -33v-75q0 -31 -30 -31h-221q-41 0 -41 -43v-539q0 -98 24.5 -144t85.5 -46q51 0 150 47q29 12 41 -16l32 -70q4 -8 4 -15q0 -15 -18 -24q-129 -63 -231 -63 q-244 0 -244 311v559q0 43 -41 43h-119q-31 0 -31 31z" />
<glyph unicode="u" horiz-adv-x="989" d="M119 299v700q0 33 31 33h94q31 0 30 -33v-661q0 -219 183 -219q55 0 123.5 30.5t107.5 69.5q27 29 27 76v704q0 33 30 33h95q31 0 30 -33v-968q0 -31 -30 -31h-82q-27 0 -31 25l-6 28q-6 18 -20.5 22.5t-24.5 -5.5q-137 -90 -258 -90q-139 0 -219 87t-80 232z" />
<glyph unicode="v" horiz-adv-x="892" d="M41 983q-4 8 -4 15q0 17 22 24l95 31q8 3 14 3q17 0 25 -24l241 -760q4 -14 17.5 -14t17.5 14l242 760q7 24 24 24q6 0 15 -3l84 -29q23 -8 23 -26q0 -6 -3 -13l-317 -962q-8 -23 -29 -23h-123q-20 0 -29 23z" />
<glyph unicode="w" horiz-adv-x="1388" d="M39 987q-3 8 -3 14q0 18 25 23l95 29q7 3 13 2q18 0 26 -23l208 -727q2 -14 16.5 -14t18.5 14l174 703q6 25 29 24h117q23 0 28 -24l175 -703q4 -14 17 -14t17 14l209 727q7 24 25 24q6 0 14 -3l84 -27q23 -5 23 -23q0 -6 -2 -14l-287 -966q-8 -23 -31 -23h-121 q-20 0 -28 23l-170 686q-2 14 -16.5 14t-18.5 -14l-170 -686q-4 -23 -27 -23h-121q-23 0 -30 23z" />
<glyph unicode="x" horiz-adv-x="847" d="M39 70l264 415q13 22 13 44t-13 44l-246 388q-18 25 9 43l79 51q10 6 19 5q14 0 24 -13l218 -345q20 -31 40 0l218 342q9 15 22 15q9 0 21 -6l75 -49q27 -14 11 -43l-248 -383q-13 -23 -13.5 -45t13.5 -44l266 -417q7 -11 7 -21q0 -14 -17 -22l-78 -52q-12 -8 -21 -7 q-13 0 -22 16l-236 374q-20 31 -41 0l-235 -374q-10 -14 -25 -14q-9 0 -20 5l-74 50q-17 11 -17 24q0 9 7 19z" />
<glyph unicode="y" horiz-adv-x="892" d="M41 983q-4 8 -4 15q0 17 22 24l95 31q8 3 14 3q17 0 25 -24l241 -760q4 -14 17.5 -14t17.5 14l242 760q7 24 24 24q6 0 15 -3l84 -29q23 -8 23 -26q0 -6 -3 -13l-483 -1472q-7 -22 -24 -22q-7 0 -15 3l-88 29q-29 8 -19 39l131 399q6 23 2 57z" />
<glyph unicode="z" horiz-adv-x="864" d="M98 31v80q0 20 13 45l454 694q10 14 3 28.5t-27 14.5h-412q-31 0 -31 31v75q0 33 31 33h606q31 0 31 -33v-77q0 -25 -12 -45l-451 -697q-10 -14 -3 -27.5t28 -13.5h407q31 0 31 -30v-78q0 -31 -31 -31h-606q-31 0 -31 31z" />
<glyph unicode="{" horiz-adv-x="620" d="M0 702v74q0 33 31 33h57q68 0 97.5 38t29.5 114v440q0 141 84 223t209 82h82q31 0 31 -31v-78q0 -31 -31 -30h-78q-141 0 -141 -146v-463q0 -82 -21.5 -121.5t-42 -56t-20.5 -41t20.5 -41t42 -56.5t21.5 -122v-463q0 -145 141 -145h78q31 0 31 -31v-78q0 -31 -31 -30h-82 q-125 0 -209 83t-84 222v440q0 76 -29.5 114t-97.5 38h-57q-31 -1 -31 32z" />
<glyph unicode="|" horiz-adv-x="481" d="M164 -279v2036q0 31 31 31h92q31 0 30 -31v-2036q0 -31 -30 -30h-92q-31 -1 -31 30z" />
<glyph unicode="}" horiz-adv-x="620" d="M0 -119q0 31 31 31h78q141 0 141 145v463q0 63 13 103.5t28.5 52.5t29 27.5t13.5 36t-13.5 36t-29 27.5t-28.5 52t-13 103v463q0 145 -141 146h-78q-31 0 -31 30v78q0 31 31 31h82q125 0 209 -83t84 -222v-440q0 -76 29.5 -114t96.5 -38h58q31 0 31 -33v-74 q0 -33 -31 -32h-58q-68 0 -97 -38t-29 -114v-440q0 -141 -84 -223t-209 -82h-82q-31 0 -31 30v78z" />
<glyph unicode="~" horiz-adv-x="1019" d="M43 590q20 150 99 224.5t180 74.5q61 0 111 -25.5t83 -61.5t61.5 -73t61.5 -62.5t70 -25.5q49 0 80.5 43t35.5 117q4 29 33 28h92q28 0 28 -26q0 -5 -1 -10q-20 -150 -99 -224.5t-180 -74.5q-76 0 -136 38.5t-92 85t-75 85t-86 38.5q-47 0 -78.5 -42t-37.5 -117 q0 -29 -31 -29h-92q-28 0 -28 26q0 5 1 11z" />
<glyph unicode="&#xa1;" horiz-adv-x="438" d="M104 928q0 49 33 82.5t82 33.5t82 -33.5t33 -82.5t-33 -82t-82 -33t-82 33t-33 82zM119 -416l37 1057q0 33 30 33h70q31 0 33 -33l37 -1057q0 -31 -33 -30h-143q-31 -1 -31 30z" />
<glyph unicode="&#xa2;" horiz-adv-x="897" d="M78 962.5q0 475.5 307 528.5v223q0 31 31 31h98q31 0 31 -31v-221q119 -20 187 -104q85 -105 86 -220q0 -26 -32 -26h-94q-27 0 -33 22q-14 90 -63 142.5t-125 52.5q-238 0 -238 -397.5t238 -397.5q76 0 125 52.5t63 142.5q6 23 33 22h94q31 0 32 -24q0 -117 -86 -221 q-69 -84 -187 -105v-219q0 -33 -31 -33h-98q-31 0 -31 33v219q-307 55 -307 530.5z" />
<glyph unicode="&#xa3;" horiz-adv-x="1040" d="M104 31v88q0 41 23 51q78 39 132 106.5t54 155.5v152q0 49 -49 49h-108q-31 0 -31 33v75q0 31 31 31h108q49 0 49 51v178q0 252 119 365t379 113h33q33 0 33 -31v-88q0 -31 -33 -31h-33q-199 0 -267.5 -76.5t-68.5 -294.5v-135q0 -51 49 -51h299q33 0 33 -31v-75 q0 -33 -33 -33h-299q-49 0 -49 -49v-168q0 -82 -28.5 -131t-81.5 -95q-8 -6 -9.5 -16t5 -17t18.5 -7h547q33 0 32 -31v-88q0 -31 -32 -31h-791q-31 0 -31 31z" />
<glyph unicode="&#xa4;" horiz-adv-x="1017" d="M55 1083q-11 11 -11 22.5t11 22.5l62 62q11 11 22 11l23 -11l145 -146q84 53 203 53.5t203 -53.5l143 142q11 11 23 11l22 -11l55 -56q11 -11 11.5 -22t-11.5 -23l-143 -143q57 -86 57 -207q0 -117 -53 -200l146 -146q10 -10 10 -21t-10 -22l-64 -63q-11 -10 -22 -10.5 t-21 10.5l-145 143q-86 -51 -201 -51q-119 0 -209 55l-141 -141q-11 -11 -23 -11l-22 11l-56 55q-11 11 -11 22.5t11 22.5l144 143q-53 84 -53 203q0 117 51 203zM293 735.5q0 -102.5 59.5 -165t157.5 -62.5t157.5 62.5t59.5 165t-59.5 166t-157.5 63.5t-157.5 -63.5 t-59.5 -166z" />
<glyph unicode="&#xa5;" horiz-adv-x="1136" d="M86 1405q-7 10 -7 18q0 14 19 25l88 49q10 7 20 7q14 0 23 -17l318 -615q10 -16 26.5 -16t26.5 16l315 611q10 19 25 19q9 0 18 -7l80 -45q17 -11 18 -26q0 -8 -5 -17l-344 -659q-12 -20 -4 -36t26 -16h258q33 0 33 -32v-76q0 -31 -33 -31h-289q-45 0 -45 -45v-481 q0 -31 -32 -31h-99q-31 0 -30 31v481q0 45 -46 45h-290q-31 0 -31 31v76q0 33 31 32h256q29 0 30.5 21.5t-6.5 30.5z" />
<glyph unicode="&#xa6;" horiz-adv-x="417" d="M164 -279v723q0 31 31 31h92q31 0 30 -31v-723q0 -31 -30 -30h-92q-31 -1 -31 30zM164 1034v723q0 31 31 31h92q31 0 30 -31v-723q0 -31 -30 -30h-92q-31 -1 -31 30z" />
<glyph unicode="&#xa7;" horiz-adv-x="958" d="M102 -137q0 31 33 30h94q33 0 33 -30q0 -100 59.5 -165t157.5 -65q92 0 155.5 58.5t63.5 144.5q0 70 -44 124t-108 87l-142 74q-77 41 -141 82t-108 116.5t-44 174.5q0 102 48 182t138 117q16 8 16 22t-14 23q-190 123 -190 317q0 150 98 247t270 97q184 0 276.5 -103.5 t92.5 -256.5q0 -31 -31 -31h-96q-31 0 -31 31q0 96 -54 155.5t-157 59.5q-100 0 -154.5 -55.5t-54.5 -137.5q0 -80 60.5 -138t146.5 -99t173 -88.5t147.5 -132.5t60.5 -203q0 -94 -50 -175t-134 -122q-35 -18 2 -43q182 -115 182 -322q0 -145 -107.5 -247.5t-269.5 -102.5 q-176 0 -276.5 107.5t-100.5 267.5zM268 502q0 -143 209 -234q90 0 154.5 69t64.5 157q0 145 -194 237q-100 0 -167 -72.5t-67 -156.5z" />
<glyph unicode="&#xa8;" horiz-adv-x="823" d="M102 1305q0 47 29 75.5t76 28.5q49 0 77.5 -28.5t28.5 -75.5q0 -49 -28.5 -78t-77.5 -29q-47 0 -76 29t-29 78zM510 1305q0 47 27.5 75.5t77 28.5t78 -28.5t28.5 -75.5q0 -49 -28.5 -78t-78 -29t-77 29t-27.5 78z" />
<glyph unicode="&#xa9;" horiz-adv-x="1748" d="M115 741q0 330 214 544t543 214q334 0 548 -214t214 -544q0 -334 -214 -547.5t-548 -213.5q-330 0 -543.5 213.5t-213.5 547.5zM262 741q0 -272 172 -447t438 -175q268 0 441.5 175t173.5 447q0 270 -173 444.5t-442 174.5q-266 0 -438 -174.5t-172 -444.5zM573 741 q0 418 310 418q121 0 191.5 -67.5t80.5 -184.5q0 -33 -31 -33h-82q-27 0 -32 23q-27 135 -127 135q-164 0 -164 -291q0 -289 164 -288q100 0 127 133q6 23 32 22h82q31 0 31 -30q-10 -117 -80.5 -184.5t-191.5 -67.5q-310 -1 -310 415z" />
<glyph unicode="&#xaa;" horiz-adv-x="505" d="M35 1147q0 86 54 126t173 40h51q16 0 17 14v14q0 84 -78 84q-55 0 -133 -34q-27 -14 -35 12l-23 45q-12 25 13 37q102 51 194 51q98 0 141.5 -53t43.5 -158v-295q0 -31 -31 -31h-57q-20 0 -25 19l-4 10q-6 20 -25 6q-68 -45 -131 -45q-61 0 -103 45t-42 113zM156 1155 q0 -66 67 -65q49 0 90 36q16 16 17 39v41q0 16 -19 17h-69q-86 0 -86 -68z" />
<glyph unicode="&#xab;" horiz-adv-x="1077" d="M113 508q-12 11 -12.5 22.5t12.5 22.5l368 373q11 10 23 10l22 -10l56 -58q25 -18 0 -43l-252 -254q-15 -15 -15.5 -31.5t15.5 -33.5l262 -260q23 -20 0 -43l-66 -66q-10 -10 -21 -10t-24 10zM487 508q-12 11 -12 22.5t12 22.5l369 373q11 10 23 10l22 -10l55 -58 q12 -9 12.5 -19.5t-12.5 -23.5l-251 -254q-15 -15 -15.5 -31.5t15.5 -33.5l262 -260q10 -10 10 -21t-10 -22l-66 -66q-10 -10 -21.5 -10t-23.5 10z" />
<glyph unicode="&#xac;" horiz-adv-x="868" d="M41 686v76q0 33 31 33h725q31 0 30 -33v-420q0 -31 -30 -31h-95q-31 0 -30 31v262q0 51 -49 51h-551q-31 0 -31 31z" />
<glyph unicode="&#xad;" horiz-adv-x="610" d="M41 496v82q0 33 31 32h467q31 0 30 -32v-82q0 -33 -30 -33h-467q-31 0 -31 33z" />
<glyph unicode="&#xae;" horiz-adv-x="1748" d="M115 741q0 330 214 544t543 214q334 0 548 -214t214 -544q0 -334 -214 -547.5t-548 -213.5q-330 0 -543.5 213.5t-213.5 547.5zM262 741q0 -272 172 -447t438 -175q268 0 441.5 175t173.5 447q0 270 -173 444.5t-442 174.5q-266 0 -438 -174.5t-172 -444.5zM645 371v739 q0 33 33 33h246q115 0 185.5 -73t70.5 -179q0 -150 -119 -213q-20 -12 -8 -31l110 -244q16 -29 -14 -41l-76 -34q-8 -3 -15 -3q-17 0 -28 17l-115 274q-12 25 -34 25h-54q-37 0 -36 -37v-233q0 -31 -31 -31h-82q-33 0 -33 31zM791 805q0 -37 36 -37h88q53 0 86 34t33 89 t-34.5 90t-86.5 35h-86q-37 0 -36 -37v-174z" />
<glyph unicode="&#xaf;" horiz-adv-x="757" d="M102 1266v73q0 31 31 31h492q31 0 30 -31v-73q0 -31 -30 -31h-492q-31 0 -31 31z" />
<glyph unicode="&#xb0;" horiz-adv-x="802" d="M41 1139q0 164 98.5 262t261.5 98q166 0 263.5 -98t97.5 -262q0 -166 -97.5 -263.5t-263.5 -97.5q-164 0 -262 97.5t-98 263.5zM184 1139q0 -102 60.5 -165t156.5 -63q98 0 159 62.5t61 165t-60.5 165t-159.5 62.5q-96 0 -156.5 -63.5t-60.5 -163.5z" />
<glyph unicode="&#xb1;" horiz-adv-x="868" d="M41 31v78q0 31 31 30h725q31 0 30 -30v-78q0 -31 -30 -31h-725q-31 0 -31 31zM41 686v76q0 33 31 33h235q49 0 49 49v260q0 33 31 33h94q31 0 31 -33v-260q0 -49 49 -49h236q31 0 30 -33v-76q0 -31 -30 -31h-236q-49 0 -49 -51v-262q0 -31 -31 -31h-94q-31 0 -31 31v262 q0 51 -49 51h-235q-31 0 -31 31z" />
<glyph unicode="&#xb2;" horiz-adv-x="632" d="M94 1268q0 98 58.5 161.5t166.5 63.5q98 0 159 -60.5t61 -148.5q0 -96 -93 -199l-167 -200q-8 -6 -4 -15.5t14 -9.5h221q29 0 29 -29v-63q0 -29 -29 -29h-385q-29 0 -29 29v63q0 25 17 46l252 294q47 59 47 111q0 37 -23.5 64.5t-69.5 27.5q-47 0 -71.5 -29.5 t-24.5 -76.5q0 -27 -28 -27h-72q-29 0 -29 27z" />
<glyph unicode="&#xb3;" horiz-adv-x="647" d="M94 952q0 29 29 29h72q29 0 28 -27q0 -43 26.5 -73.5t72 -30.5t74 27.5t28.5 83.5q0 49 -26.5 78.5t-80.5 29.5q-31 0 -30 18v76q0 23 30 23q41 0 68 26.5t27 73.5q0 39 -26 65.5t-64 26.5q-47 0 -71 -30.5t-24 -75.5q0 -27 -28 -27h-72q-27 0 -27 29q0 98 59.5 160.5 t166.5 62.5q92 0 152.5 -55.5t60.5 -136.5q0 -104 -88 -158q-20 -12 0 -21q102 -57 102 -168q0 -104 -64.5 -166.5t-164.5 -62.5q-104 0 -167 61.5t-63 161.5z" />
<glyph unicode="&#xb4;" horiz-adv-x="612" d="M113 1174q-9 9 -9 17q0 10 11 19l276 289q11 10 21 10q11 0 22 -12l66 -72q9 -10 9 -19q0 -11 -13 -22l-308 -251q-11 -9 -20 -9q-11 0 -21 11z" />
<glyph unicode="&#xb5;" horiz-adv-x="989" d="M119 -461v1460q0 33 31 33h94q31 0 30 -33v-661q0 -219 183 -219q55 0 123.5 30.5t107.5 69.5q27 29 27 76v704q0 33 30 33h95q31 0 30 -33v-968q0 -31 -30 -31h-82q-27 0 -31 25l-6 28q-6 18 -20.5 22.5t-24.5 -5.5q-123 -90 -238 -90q-68 0 -121 22q-14 10 -28.5 2 t-14.5 -35v-430q0 -31 -30 -31h-94q-31 0 -31 31z" />
<glyph unicode="&#xb6;" horiz-adv-x="1536" d="M31 1079q0 166 111.5 283t310.5 117h991q31 0 31 -31v-78q0 -31 -31 -31h-172q-49 0 -49 -51v-1749q0 -31 -31 -31h-94q-31 0 -31 33v1749q0 49 -49 49h-184q-53 0 -54 -47v-1753q0 -31 -30 -31h-95q-31 0 -30 31v1079q0 49 -50 50h-129q-193 0 -304 121.5t-111 289.5z " />
<glyph unicode="&#xb7;" horiz-adv-x="436" d="M102 741q0 51 32 82t87 31q51 0 82 -30.5t31 -82.5q0 -55 -31 -86.5t-82 -31.5q-55 0 -87 31.5t-32 86.5z" />
<glyph unicode="&#xb8;" horiz-adv-x="589" d="M109 -334l28 45q18 31 41 10q57 -45 113 -45q66 0 65 52q0 31 -34.5 53t-70.5 49t-36 68q0 39 43 102h104q-31 -43 -30 -66q0 -20 24.5 -37.5t53 -30.5t53 -49t24.5 -91q0 -74 -58 -119t-142 -45q-94 0 -170 65q-14 10 -14 23q0 7 6 16z" />
<glyph unicode="&#xb9;" horiz-adv-x="593" d="M104 1288q-9 10 -9 20t9 19l142 135q16 16 43 17h73q27 0 27 -29v-557q0 -33 31 -33h51q29 0 29 -29v-63q0 -29 -29 -29h-291q-31 0 -30 29v63q0 29 30 29h51q31 0 31 33v387q0 8 -8 11t-14 -3l-52 -53q-23 -18 -41 2z" />
<glyph unicode="&#xba;" horiz-adv-x="512" d="M35 1264q0 272 223 272q221 0 221 -272q0 -274 -221 -275q-223 1 -223 275zM158 1264q0 -168 100 -168q98 0 98 168q0 166 -98 166q-100 0 -100 -166z" />
<glyph unicode="&#xbb;" horiz-adv-x="1077" d="M113 201q-11 10 -11.5 20.5t11.5 22.5l260 258q15 16 15 32.5t-15 32.5l-254 256q-12 10 -12.5 21t12.5 22l57 60q11 10 23 10l22 -10l369 -373q25 -20 0 -45l-369 -369q-12 -12 -23.5 -12t-21.5 12zM487 201q-10 10 -10 20.5t10 22.5l261 258q15 16 15 32.5t-15 32.5 l-254 256q-12 10 -12.5 21t12.5 22l57 60q11 10 22 10l23 -10l369 -373q12 -10 12 -21.5t-12 -23.5l-369 -369q-12 -12 -23.5 -12t-21.5 12z" />
<glyph unicode="&#xbc;" horiz-adv-x="1388" d="M104 1288q-9 10 -9 20t9 19l142 135q16 16 43 17h73q27 0 27 -29v-557q0 -33 31 -33h51q29 0 29 -29v-63q0 -29 -29 -29h-291q-30 0 -30 29v63q0 29 30 29h51q31 0 31 33v387q0 8 -8 11t-14 -3l-52 -53q-23 -18 -41 2zM193 63l819 1418q10 16 24 16q9 0 19 -6l65 -37 q27 -14 10 -43l-819 -1413q-12 -18 -26 -18q-9 0 -19 6l-63 34q-16 11 -17 26q1 8 7 17zM807 182v68q0 18 8 37l164 446q6 21 23 21q6 0 14 -2l61 -25q27 -14 17 -37l-142 -391q-10 -27 11 -27h67q27 0 27 31v68q0 27 28 26h72q27 0 27 -26v-68q0 -31 30 -31h52q27 0 26 -26 v-64q0 -29 -26 -28h-52q-31 0 -30 -29v-96q0 -29 -27 -29h-72q-29 0 -28 29v96q0 29 -29 29h-192q-29 -1 -29 28z" />
<glyph unicode="&#xbd;" horiz-adv-x="1347" d="M100 1288q-9 10 -9 20t9 19l142 135q16 16 43 17h73q27 0 27 -29v-557q0 -33 31 -33h51q29 0 29 -29v-63q0 -29 -29 -29h-291q-31 0 -31 29v63q0 29 31 29h51q31 0 31 33v387q0 8 -8 11t-14 -3l-52 -53q-23 -18 -41 2zM184 63l820 1418q10 16 24 16q9 0 19 -6l65 -37 q27 -14 10 -43l-819 -1413q-12 -18 -27 -18q-9 0 -18 6l-63 34q-16 11 -17 26q0 8 6 17zM807 528q0 98 58.5 162t166.5 64q98 0 158.5 -60.5t60.5 -148.5q0 -96 -92 -199l-168 -201q-8 -6 -4 -15t14 -9h222q29 0 28 -29v-63q0 -29 -28 -29h-385q-29 0 -29 29v63q0 25 16 45 l252 295q47 59 47 111q0 37 -23.5 64.5t-68.5 27.5q-47 0 -71.5 -30t-24.5 -77q0 -27 -29 -26h-71q-29 -1 -29 26z" />
<glyph unicode="&#xbe;" horiz-adv-x="1441" d="M94 952q0 29 29 29h72q29 0 28 -27q0 -43 26.5 -73.5t72 -30.5t74 27.5t28.5 83.5q0 49 -26.5 78.5t-80.5 29.5q-31 0 -30 18v76q0 23 30 23q41 0 68 26.5t27 73.5q0 39 -26 65.5t-64 26.5q-47 0 -71 -30.5t-24 -75.5q0 -27 -28 -27h-72q-27 0 -27 29q0 98 59.5 160.5 t166.5 62.5q92 0 152.5 -55.5t60.5 -136.5q0 -104 -88 -158q-20 -12 0 -21q102 -57 102 -168q0 -104 -64.5 -166.5t-164.5 -62.5q-104 0 -167 61.5t-63 161.5zM242 63l819 1418q10 16 24 16q9 0 19 -6l65 -37q27 -14 11 -43l-820 -1413q-12 -18 -26 -18q-9 0 -19 6l-63 34 q-16 11 -17 26q1 8 7 17zM860 182v68q0 18 8 37l164 446q6 21 23 21q6 0 14 -2l61 -25q27 -14 17 -37l-141 -391q-10 -27 10 -27h67q27 0 27 31v68q0 27 29 26h71q27 0 27 -26v-68q0 -31 31 -31h51q27 0 27 -26v-64q0 -29 -27 -28h-51q-31 0 -31 -29v-96q0 -29 -27 -29h-71 q-29 0 -29 29v96q0 29 -29 29h-192q-29 -1 -29 28z" />
<glyph unicode="&#xbf;" horiz-adv-x="1017" d="M102 -76q0 86 34 154.5t83 116.5l98 90q49 43 86 101t39 128l4 94q-2 31 31 31h70q31 0 33 -33l4 -86v-20q0 -76 -28 -138q-32 -70 -80 -117l-96 -93q-48 -45 -82 -104.5t-34 -129.5q0 -96 61.5 -166.5t180.5 -70.5t184.5 75.5t65.5 198.5q0 33 30 33h99q31 0 30 -33 q0 -178 -104 -301t-305 -123q-184 0 -294 112.5t-110 280.5zM393 926q0 49 34 82.5t83 33.5t82 -33.5t33 -82.5t-33 -82t-82 -33t-83 33t-34 82z" />
<glyph unicode="&#xc0;" d="M39 43l399 1407q10 29 37 29h111q29 0 39 -29l399 -1407q1 -6 1 -11q0 -23 -24 -28l-96 -29q-7 -2 -12 -2q-18 0 -25 25l-69 254q-10 35 -49 35h-437q-39 0 -49 -35l-69 -254q-6 -25 -25 -25q-6 0 -12 2l-97 29q-24 5 -23 28q0 5 1 11zM211 1755l43 90q7 16 23 17 q8 0 18 -4l350 -191q25 -12 14 -37l-22 -45q-10 -29 -37 -14l-373 145q-19 9 -19 25q0 7 3 14zM336 445q10 -9 26 -9h338q27 0 35 20q4 10 4 18.5t-4 17.5l-178 663q-6 23 -26 24h-1q-18 0 -24 -24l-178 -663q-3 -10 -4 -20q1 -17 12 -27z" />
<glyph unicode="&#xc1;" d="M39 43l399 1407q10 29 37 29h111q29 0 39 -29l399 -1407q1 -6 1 -11q0 -23 -24 -28l-96 -29q-7 -2 -12 -2q-18 0 -25 25l-69 254q-10 35 -49 35h-437q-39 0 -49 -35l-69 -254q-6 -25 -25 -25q-6 0 -12 2l-97 29q-24 5 -23 28q0 5 1 11zM336 445q10 -9 26 -9h338 q27 0 35 19.5t0 36.5l-178 663q-6 23 -25.5 24t-25.5 -24l-178 -663q-3 -10 -4 -20q1 -17 12 -27zM406 1630q-3 7 -4 14q0 15 18 23l350 191q10 4 18 4q16 0 23 -17l43 -90q3 -7 3 -14q0 -16 -19 -25l-373 -145q-9 -5 -16 -5q-14 0 -21 19z" />
<glyph unicode="&#xc2;" d="M39 43l399 1407q10 29 37 29h111q29 0 39 -29l399 -1407q1 -6 1 -11q0 -23 -24 -28l-96 -29q-7 -2 -12 -2q-18 0 -25 25l-69 254q-10 35 -49 35h-437q-39 0 -49 -35l-69 -254q-6 -25 -25 -25q-6 0 -12 2l-97 29q-24 5 -23 28q0 5 1 11zM217 1614q-9 9 -8 18q0 12 16 23 l271 182q18 10 36 10l37 -10l273 -182q13 -9 13 -22q0 -8 -5 -17l-27 -45q-14 -18 -39 -10l-221 112q-31 12 -61 0l-221 -112q-27 -8 -39 10zM336 445q10 -9 26 -9h338q27 0 35 20q4 10 4 18.5t-4 17.5l-178 663q-6 23 -26 24h-1q-18 0 -24 -24l-178 -663q-3 -10 -4 -20 q1 -17 12 -27z" />
<glyph unicode="&#xc3;" d="M39 43l399 1407q10 29 37 29h111q29 0 39 -29l399 -1407q1 -6 1 -11q0 -23 -24 -28l-96 -29q-7 -2 -12 -2q-18 0 -25 25l-69 254q-10 35 -49 35h-437q-39 0 -49 -35l-69 -254q-6 -25 -25 -25q-6 0 -12 2l-97 29q-24 5 -23 28q0 5 1 11zM174 1649q49 84 98.5 123.5 t114.5 39.5q55 0 113.5 -33.5t105.5 -67.5t74 -34q49 0 117 95q16 27 43 4l43 -27q11 -8 11 -21q0 -10 -7 -24q-51 -84 -100.5 -124t-112.5 -40q-55 0 -113.5 34t-105.5 67.5t-74 33.5q-51 0 -117 -94q-18 -27 -43 -2l-43 27q-12 8 -12 20q0 10 8 23zM336 445q10 -9 26 -9 h338q27 0 35 20q4 10 4 18.5t-4 17.5l-178 663q-6 23 -26 24h-1q-18 0 -24 -24l-178 -663q-3 -10 -4 -20q1 -17 12 -27z" />
<glyph unicode="&#xc4;" d="M39 43l399 1407q10 29 37 29h111q29 0 39 -29l399 -1407q1 -6 1 -11q0 -23 -24 -28l-96 -29q-7 -2 -12 -2q-18 0 -25 25l-69 254q-10 35 -49 35h-437q-39 0 -49 -35l-69 -254q-6 -25 -25 -25q-6 0 -12 2l-97 29q-24 5 -23 28q0 5 1 11zM207 1669q0 49 28.5 78t75.5 29 q49 0 78 -29t29 -78q0 -47 -29 -75.5t-78 -28.5q-47 0 -75.5 28.5t-28.5 75.5zM336 445q10 -9 26 -9h338q27 0 35 19.5t0 36.5l-178 663q-6 23 -25.5 24t-25.5 -24l-178 -663q-3 -10 -4 -20q1 -17 12 -27zM647 1669q0 49 27.5 78t77 29t78 -29t28.5 -78q0 -47 -28.5 -75.5 t-78 -28.5t-77 28.5t-27.5 75.5z" />
<glyph unicode="&#xc5;" d="M39 43l399 1407q10 29 37 29h111q29 0 39 -29l399 -1407q1 -6 1 -11q0 -23 -24 -28l-96 -29q-7 -2 -12 -2q-18 0 -25 25l-69 254q-10 35 -49 35h-437q-39 0 -49 -35l-69 -254q-6 -25 -25 -25q-6 0 -12 2l-97 29q-24 5 -23 28q0 5 1 11zM336 445q10 -9 26 -9h338 q27 0 35 20q4 10 4 18.5t-4 17.5l-178 663q-6 23 -25.5 24t-25.5 -24l-178 -663q-3 -10 -4 -20q1 -17 12 -27zM340 1690q0 84 52 134t140 50q86 0 138.5 -50t52.5 -134q0 -86 -52.5 -136.5t-138.5 -50.5q-88 0 -140 50.5t-52 136.5zM453 1690q0 -84 79 -84q78 0 78 84 t-78 84q-79 0 -79 -84z" />
<glyph unicode="&#xc6;" horiz-adv-x="1648" d="M6 66l721 1376q16 37 61 37h752q31 0 31 -31v-88q0 -31 -31 -31h-489q-49 0 -50 -51v-414q0 -51 50 -51h356q31 0 31 -31v-88q0 -31 -31 -30h-356q-49 0 -50 -50v-413q0 -51 50 -51h489q31 0 31 -31v-88q0 -31 -31 -31h-668q-33 0 -32 31v207q0 49 -47 49h-459 q-33 0 -51 -33l-136 -264q-10 -18 -26 -18q-8 0 -17 3l-86 48q-18 9 -18 24q0 9 6 19zM396 452q7 -15 28 -16h371q45 0 45 51v777q0 20 -15 22h-3q-12 0 -19 -14l-404 -787q-6 -11 -6 -20q0 -7 3 -13z" />
<glyph unicode="&#xc7;" d="M78 739q0 358 123 559t372 201q193 0 302.5 -110.5t130.5 -311.5q0 -33 -33 -33h-99q-29 0 -30 31q-18 129 -87 202t-184 73q-334 0 -333.5 -610.5t333.5 -610.5q115 0 183.5 72.5t87.5 201.5q2 31 30 31h99q33 0 33 -33q-18 -182 -112.5 -290.5t-256.5 -126.5 q-18 -31 -19 -50q0 -20 25 -37.5t53.5 -30.5t53 -49t24.5 -91q0 -74 -58.5 -119t-142.5 -45q-94 0 -170 65q-23 16 -8 39l29 45q18 31 41 10q57 -45 113 -45q66 0 65 52q0 31 -35 53t-70.5 49t-35.5 68q0 37 30 84q-229 16 -341.5 214.5t-112.5 542.5z" />
<glyph unicode="&#xc8;" horiz-adv-x="968" d="M160 31v1417q0 31 30 31h668q33 0 33 -31v-88q0 -31 -33 -31h-487q-49 0 -49 -51v-414q0 -51 49 -51h354q33 0 33 -31v-88q0 -31 -33 -30h-354q-49 0 -49 -50v-413q0 -51 49 -51h487q33 0 33 -31v-88q0 -31 -33 -31h-668q-30 0 -30 31zM258 1755l43 90q7 16 23 17 q8 0 18 -4l350 -191q17 -9 18 -23q0 -6 -3 -14l-23 -45q-7 -19 -21 -19q-7 0 -16 5l-373 145q-19 9 -19 25q0 7 3 14z" />
<glyph unicode="&#xc9;" horiz-adv-x="968" d="M160 31v1417q0 31 30 31h668q33 0 33 -31v-88q0 -31 -33 -31h-487q-49 0 -49 -51v-414q0 -51 49 -51h354q33 0 33 -31v-88q0 -31 -33 -30h-354q-49 0 -49 -50v-413q0 -51 49 -51h487q33 0 33 -31v-88q0 -31 -33 -31h-668q-30 0 -30 31zM309 1630q-3 7 -3 14q0 15 18 23 l350 191q10 4 18 4q16 0 23 -17l43 -90q3 -7 3 -14q0 -16 -20 -25l-372 -145q-9 -5 -16 -5q-14 0 -21 19z" />
<glyph unicode="&#xca;" horiz-adv-x="968" d="M160 31v1417q0 31 30 31h668q33 0 33 -31v-88q0 -31 -33 -31h-487q-49 0 -49 -51v-414q0 -51 49 -51h354q33 0 33 -31v-88q0 -31 -33 -30h-354q-49 0 -49 -50v-413q0 -51 49 -51h487q33 0 33 -31v-88q0 -31 -33 -31h-668q-30 0 -30 31zM209 1614q-9 9 -9 18q0 12 17 23 l270 182q18 10 37 10l37 -10l273 -182q13 -9 12 -22q0 -8 -4 -17l-27 -45q-10 -13 -25 -13q-7 0 -14 3l-221 112q-31 12 -61 0l-222 -112q-8 -3 -15 -3q-15 0 -24 13z" />
<glyph unicode="&#xcb;" horiz-adv-x="968" d="M160 31v1417q0 31 30 31h668q33 0 33 -31v-88q0 -31 -33 -31h-487q-49 0 -49 -51v-414q0 -51 49 -51h354q33 0 33 -31v-88q0 -31 -33 -30h-354q-49 0 -49 -50v-413q0 -51 49 -51h487q33 0 33 -31v-88q0 -31 -33 -31h-668q-30 0 -30 31zM201 1669q0 49 28.5 78t75.5 29 q49 0 78 -29t29 -78q0 -47 -29 -75.5t-78 -28.5q-47 0 -75.5 28.5t-28.5 75.5zM641 1669q0 49 27.5 78t77 29t78 -29t28.5 -78q0 -47 -28.5 -75.5t-78 -28.5t-77 28.5t-27.5 75.5z" />
<glyph unicode="&#xcc;" horiz-adv-x="727" d="M66 1755l43 90q7 16 22 17q8 0 19 -4l350 -191q25 -12 14 -37l-22 -45q-10 -29 -37 -14l-373 145q-19 9 -19 25q0 7 3 14zM98 31v88q0 31 31 31h104q49 0 50 51v1077q0 51 -50 51h-104q-31 0 -31 31v88q0 31 31 31h467q33 0 33 -31v-88q0 -31 -33 -31h-102q-49 0 -50 -51 v-1077q0 -51 50 -51h102q33 0 33 -31v-88q0 -31 -33 -31h-467q-31 0 -31 31z" />
<glyph unicode="&#xcd;" horiz-adv-x="727" d="M98 31v88q0 31 31 31h104q49 0 50 51v1077q0 51 -50 51h-104q-31 0 -31 31v88q0 31 31 31h467q33 0 33 -31v-88q0 -31 -33 -31h-102q-49 0 -50 -51v-1077q0 -51 50 -51h102q33 0 33 -31v-88q0 -31 -33 -31h-467q-31 0 -31 31zM213 1630q-3 7 -3 14q0 15 17 23l351 191 q10 4 18 4q16 0 22 -17l44 -90q3 -7 2 -14q0 -16 -19 -25l-373 -145q-9 -5 -16 -5q-14 0 -20 19z" />
<glyph unicode="&#xce;" horiz-adv-x="727" d="M49 1614q-9 9 -8 18q0 12 16 23l271 182q18 10 37 10l36 -10l273 -182q13 -9 13 -22q0 -8 -5 -17l-27 -45q-14 -18 -39 -10l-221 112q-31 12 -61 0l-221 -112q-27 -8 -39 10zM98 31v88q0 31 31 31h104q49 0 50 51v1077q0 51 -50 51h-104q-31 0 -31 31v88q0 31 31 31h467 q33 0 33 -31v-88q0 -31 -33 -31h-102q-49 0 -50 -51v-1077q0 -51 50 -51h102q33 0 33 -31v-88q0 -31 -33 -31h-467q-31 0 -31 31z" />
<glyph unicode="&#xcf;" horiz-adv-x="727" d="M39 1669q0 49 28.5 78t75.5 29q49 0 78 -29t29 -78q0 -47 -28.5 -75.5t-78.5 -28.5q-47 0 -75.5 28.5t-28.5 75.5zM98 31v88q0 31 31 31h104q49 0 50 51v1077q0 51 -50 51h-104q-31 0 -31 31v88q0 31 31 31h467q33 0 33 -31v-88q0 -31 -33 -31h-102q-49 0 -50 -51v-1077 q0 -51 50 -51h102q33 0 33 -31v-88q0 -31 -33 -31h-467q-31 0 -31 31zM479 1669q0 49 28 78t77 29t77.5 -29t28.5 -78q0 -47 -28.5 -75.5t-77.5 -28.5t-77 28.5t-28 75.5z" />
<glyph unicode="&#xd0;" horiz-adv-x="1163" d="M0 702v72q0 33 31 33h129v641q0 31 33 31h346q262 0 404 -191.5t142 -546.5q0 -358 -142 -549.5t-404 -191.5h-349q-31 0 -30 31v641h-129q-31 -1 -31 30zM322 201q0 -51 49 -51h166q186 0 286.5 148t100.5 443q0 289 -99.5 438.5t-287.5 149.5h-166q-49 0 -49 -51v-471 h266q31 0 30 -33v-72q0 -31 -30 -30h-266v-471z" />
<glyph unicode="&#xd1;" horiz-adv-x="1259" d="M160 31v1417q0 31 30 31h123q37 0 52 -35l534 -1069q6 -14 22.5 -11t16.5 25v1059q0 31 31 31h98q33 0 33 -31v-1417q0 -31 -33 -31h-121q-35 0 -53 35l-533 1069q-8 14 -23 12t-15 -24v-1061q0 -31 -33 -31h-99q-30 0 -30 31zM268 1649q49 84 98.5 123.5t114.5 39.5 q55 0 113.5 -33.5t106 -67.5t73.5 -34q49 0 117 95q16 27 43 4l43 -27q11 -8 11 -21q0 -10 -7 -24q-51 -84 -100.5 -124t-112.5 -40q-55 0 -113.5 34t-105.5 67.5t-74 33.5q-51 0 -117 -94q-18 -27 -43 -2l-43 27q-12 8 -12 20q0 10 8 23z" />
<glyph unicode="&#xd2;" horiz-adv-x="1167" d="M78 741q0 371 128 564.5t380 193.5q246 0 375 -195.5t129 -564.5q0 -371 -128 -565t-376 -194q-252 0 -380 194t-128 567zM240 741q0 -612 346 -612q342 0 342 610q0 297 -86 454t-256 157q-346 -1 -346 -609zM313 1755l43 90q7 16 23 17q8 0 18 -4l351 -191 q17 -9 17 -23q0 -6 -3 -14l-23 -45q-7 -19 -21 -19q-7 0 -16 5l-372 145q-20 9 -20 25q0 7 3 14z" />
<glyph unicode="&#xd3;" horiz-adv-x="1167" d="M78 741q0 371 128 564.5t380 193.5q246 0 375 -195.5t129 -564.5q0 -371 -128 -565t-376 -194q-252 0 -380 194t-128 567zM240 741q0 -612 346 -612q342 0 342 610q0 297 -86 454t-256 157q-346 -1 -346 -609zM406 1630q-3 7 -4 14q0 15 18 23l350 191q10 4 18 4 q16 0 23 -17l43 -90q3 -7 3 -14q0 -16 -19 -25l-373 -145q-9 -5 -16 -5q-14 0 -21 19z" />
<glyph unicode="&#xd4;" horiz-adv-x="1167" d="M78 741q0 371 128 564.5t380 193.5q246 0 375 -195.5t129 -564.5q0 -371 -128 -565t-376 -194q-252 0 -380 194t-128 567zM240 741q0 -612 346 -612q342 0 342 610q0 297 -86 454t-256 157q-346 -1 -346 -609zM270 1614q-9 9 -8 18q0 12 17 23l270 182q18 10 37 10 l37 -10l272 -182q13 -9 13 -22q0 -8 -5 -17l-26 -45q-10 -13 -25 -13q-7 0 -14 3l-222 112q-31 12 -61 0l-221 -112q-8 -3 -15 -3q-15 0 -24 13z" />
<glyph unicode="&#xd5;" horiz-adv-x="1167" d="M78 741q0 371 128 564.5t380 193.5q246 0 375 -195.5t129 -564.5q0 -371 -128 -565t-376 -194q-252 0 -380 194t-128 567zM227 1649q49 84 98.5 123.5t114.5 39.5q55 0 113.5 -33.5t106 -67.5t73.5 -34q49 0 117 95q16 27 43 4l43 -27q11 -8 11 -21q0 -10 -7 -24 q-51 -84 -100 -124t-113 -40q-55 0 -113.5 34t-105.5 67.5t-74 33.5q-51 0 -117 -94q-18 -27 -43 -2l-43 27q-12 8 -12 20q0 10 8 23zM240 741q0 -612 346 -612q342 0 342 610q0 297 -86 454t-256 157q-346 -1 -346 -609z" />
<glyph unicode="&#xd6;" horiz-adv-x="1167" d="M78 741q0 371 128 564.5t380 193.5q246 0 375 -195.5t129 -564.5q0 -371 -128 -565t-376 -194q-252 0 -380 194t-128 567zM240 741q0 -612 346 -612q342 0 342 610q0 297 -86 454t-256 157q-346 -1 -346 -609zM258 1669q0 49 28.5 78t75.5 29q49 0 78 -29t29 -78 q0 -47 -28.5 -75.5t-78.5 -28.5q-47 0 -75.5 28.5t-28.5 75.5zM698 1669q0 49 28 78t77 29t77.5 -29t28.5 -78q0 -47 -28.5 -75.5t-77.5 -28.5t-77 28.5t-28 75.5z" />
<glyph unicode="&#xd7;" horiz-adv-x="868" d="M82 969q-10 11 -10 21.5t10 21.5l63 63q11 11 22 11t21 -11l213 -211q16 -18 34 -18t36 18l209 207q10 11 21 11t22 -11l57 -57q11 -11 11.5 -22.5t-11.5 -22.5l-207 -207q-17 -17 -17 -34.5t17 -35.5l213 -215q10 -11 10.5 -22t-10.5 -21l-63 -63q-11 -11 -22 -11.5 t-21 11.5l-215 213q-17 17 -35 17l-35 -17l-207 -207q-11 -11 -22 -11l-23 11l-57 57q-10 10 -10 21t10 22l207 209q18 18 18 35.5t-18 34.5z" />
<glyph unicode="&#xd8;" horiz-adv-x="1167" d="M78 741q0 371 128 564.5t380 193.5q137 0 241 -63l76 161q8 19 25 20q8 0 18 -5l74 -33q27 -16 14 -43l-94 -203q150 -197 150 -594q0 -371 -128 -565t-376 -194q-145 0 -246 63l-76 -162q-10 -19 -28 -19q-7 0 -15 3l-74 35q-29 14 -14 43l94 200q-149 192 -149 598z M240 741q0 -268 67 -422l453 971q-72 59 -174 60q-346 -1 -346 -609zM406 186q72 -57 180 -57q342 0 342 610q0 262 -70 418z" />
<glyph unicode="&#xd9;" horiz-adv-x="1175" d="M139 397v1051q0 31 31 31h98q33 0 33 -31v-1051q0 -117 78 -192.5t209 -75.5t208.5 76t77.5 192v1051q0 31 33 31h99q31 0 30 -31v-1051q0 -182 -120.5 -299.5t-327.5 -117.5q-209 0 -329 117.5t-120 299.5zM295 1755l43 90q7 16 23 17q8 0 18 -4l350 -191q17 -9 17 -23 q0 -6 -3 -14l-22 -45q-7 -19 -21 -19q-7 0 -16 5l-373 145q-19 9 -19 25q0 7 3 14z" />
<glyph unicode="&#xda;" horiz-adv-x="1175" d="M139 397v1051q0 31 31 31h98q33 0 33 -31v-1051q0 -117 78 -192.5t209 -75.5t208.5 76t77.5 192v1051q0 31 33 31h99q31 0 30 -31v-1051q0 -182 -120.5 -299.5t-327.5 -117.5q-209 0 -329 117.5t-120 299.5zM434 1630q-3 7 -3 14q0 15 18 23l350 191q10 4 18 4 q16 0 23 -17l43 -90q3 -7 3 -14q0 -16 -20 -25l-372 -145q-9 -5 -16 -5q-14 0 -21 19z" />
<glyph unicode="&#xdb;" horiz-adv-x="1175" d="M139 397v1051q0 31 31 31h98q33 0 33 -31v-1051q0 -117 78 -192.5t209 -75.5t208.5 76t77.5 192v1051q0 31 33 31h99q31 0 30 -31v-1051q0 -182 -120.5 -299.5t-327.5 -117.5q-209 0 -329 117.5t-120 299.5zM274 1614q-9 9 -8 18q0 12 17 23l270 182q18 10 37 10l37 -10 l272 -182q13 -9 13 -22q0 -8 -5 -17l-26 -45q-10 -13 -25 -13q-7 0 -14 3l-221 112q-31 12 -62 0l-221 -112q-8 -3 -15 -3q-15 0 -24 13z" />
<glyph unicode="&#xdc;" horiz-adv-x="1175" d="M139 397v1051q0 31 31 31h98q33 0 33 -31v-1051q0 -117 78 -192.5t209 -75.5t208.5 76t77.5 192v1051q0 31 33 31h99q31 0 30 -31v-1051q0 -182 -120.5 -299.5t-327.5 -117.5q-209 0 -329 117.5t-120 299.5zM264 1669q0 49 29 78t76 29q49 0 77.5 -29t28.5 -78 q0 -47 -28.5 -75.5t-77.5 -28.5q-47 0 -76 28.5t-29 75.5zM705 1669q0 49 27.5 78t76.5 29t77.5 -29t28.5 -78q0 -47 -28.5 -75.5t-77.5 -28.5t-76.5 28.5t-27.5 75.5z" />
<glyph unicode="&#xdd;" horiz-adv-x="1001" d="M18 1405q-7 10 -6 18q0 14 19 25l88 49q27 18 43 -10l317 -615q8 -16 26.5 -16t26.5 16l316 611q16 31 43 12l80 -45q18 -10 18 -25q0 -8 -6 -18l-387 -739q-10 -25 -10 -45v-592q0 -31 -33 -31h-98q-31 0 -31 31v590q0 25 -12 43zM373 1630q-3 7 -3 14q0 15 17 23 l350 191q10 4 18 4q16 0 23 -17l43 -90q3 -7 3 -14q0 -16 -19 -25l-373 -145q-9 -5 -16 -5q-14 0 -21 19z" />
<glyph unicode="&#xde;" horiz-adv-x="1036" d="M160 31v1417q0 31 30 31h99q33 0 33 -31v-221q0 -49 49 -49h161q211 0 337 -116t126 -323q0 -203 -134 -319.5t-349 -116.5h-141q-49 0 -49 -51v-221q0 -31 -31 -31h-101q-30 0 -30 31zM322 502q0 -49 49 -49h143q141 0 230.5 76.5t89.5 209.5q0 137 -82 213t-222 76 h-159q-45 0 -49 -45v-481z" />
<glyph unicode="&#xdf;" horiz-adv-x="960" d="M119 33v1118q0 156 92 252t250 96q145 0 235 -89t90 -232q0 -86 -48 -157t-96 -131.5t-48 -117.5q0 -43 31.5 -78t78 -65.5t91.5 -66.5t76.5 -97.5t31.5 -140.5q0 -139 -96 -231.5t-236 -92.5h-98q-31 0 -31 31v78q0 31 31 30h98q80 0 128.5 54.5t48.5 128.5q0 55 -32 99 t-77 77l-91 67q-46 35 -78 87.5t-32 118t30 125.5t66.5 99t66.5 89.5t30 95.5q0 78 -47 127t-125 49q-80 0 -132.5 -54.5t-52.5 -146.5v-1122q0 -33 -30 -33h-94q-31 0 -31 33z" />
<glyph unicode="&#xe0;" horiz-adv-x="940" d="M78 279q0 170 110.5 250.5t343.5 80.5h101q33 0 33 31v41q0 131 -46.5 180t-125.5 49q-129 0 -289 -86q-25 -16 -39 15l-35 71q-10 23 10 37q178 104 363 105q317 0 317 -375v-647q0 -31 -30 -31h-82q-27 0 -31 25l-6 28q-6 18 -20.5 22.5t-24.5 -5.5q-135 -90 -269 -90 q-121 0 -200.5 86t-79.5 213zM233 291q0 -80 45.5 -128t127.5 -48q57 0 123.5 30.5t109.5 73.5q27 27 27 76v143q0 35 -35 35h-168q-94 0 -162 -42t-68 -140zM268 1425l66 72q12 12 23 12q10 0 20 -10l276 -289q12 -10 12 -19t-10 -17l-34 -39q-9 -12 -19 -12q-9 0 -20 10 l-310 251q-12 11 -12 23q0 9 8 18z" />
<glyph unicode="&#xe1;" horiz-adv-x="940" d="M78 279q0 170 110.5 250.5t343.5 80.5h101q33 0 33 31v41q0 131 -46.5 180t-125.5 49q-129 0 -289 -86q-25 -16 -39 15l-35 71q-10 23 10 37q178 104 363 105q317 0 317 -375v-647q0 -31 -30 -31h-82q-27 0 -31 25l-6 28q-6 18 -20.5 22.5t-24.5 -5.5q-135 -90 -269 -90 q-121 0 -200.5 86t-79.5 213zM233 291q0 -80 45.5 -128t127.5 -48q57 0 123.5 30.5t109.5 73.5q27 27 27 76v143q0 35 -35 35h-168q-94 0 -162 -42t-68 -140zM344 1174q-9 9 -9 17q0 10 11 19l277 289q11 10 21 10q11 0 22 -12l65 -72q9 -10 9 -19q0 -11 -13 -22l-307 -251 q-11 -9 -21 -9q-11 0 -20 11z" />
<glyph unicode="&#xe2;" horiz-adv-x="940" d="M78 279q0 170 110.5 250.5t343.5 80.5h101q33 0 33 31v41q0 131 -46.5 180t-125.5 49q-129 0 -289 -86q-25 -16 -39 15l-35 71q-10 23 10 37q178 104 363 105q317 0 317 -375v-647q0 -31 -30 -31h-82q-27 0 -31 25l-6 28q-6 18 -20.5 22.5t-24.5 -5.5q-135 -90 -269 -90 q-121 0 -200.5 86t-79.5 213zM178 1171q-9 9 -9 19q0 11 13 22l254 238q19 16 39 16l39 -16l254 -238q12 -11 12 -22q0 -8 -6 -16l-35 -41q-16 -20 -39 -7l-194 148q-15 11 -31 11t-33 -11l-194 -148q-20 -14 -37 7zM233 291q0 -80 45.5 -128t127.5 -48q57 0 123.5 30.5 t109.5 73.5q27 27 27 76v143q0 35 -35 35h-168q-94 0 -162 -42t-68 -140z" />
<glyph unicode="&#xe3;" horiz-adv-x="940" d="M78 279q0 170 110.5 250.5t343.5 80.5h101q33 0 33 31v41q0 131 -46.5 180t-125.5 49q-129 0 -289 -86q-25 -16 -39 15l-35 71q-10 23 10 37q178 104 363 105q317 0 317 -375v-647q0 -31 -30 -31h-82q-27 0 -31 25l-6 28q-6 18 -20.5 22.5t-24.5 -5.5q-135 -90 -269 -90 q-121 0 -200.5 86t-79.5 213zM131 1284q92 164 207 164q55 0 108.5 -34t95.5 -67.5t68 -33.5q53 0 119 94q18 25 43 2l41 -27q14 -8 14 -21q0 -10 -8 -22q-51 -86 -98 -124.5t-111 -38.5q-55 0 -108 33.5t-95 67.5t-69 34q-49 0 -119 -94q-14 -27 -43 -5l-41 27 q-13 9 -13 22q0 10 9 23zM233 291q0 -80 45.5 -128t127.5 -48q57 0 123.5 30.5t109.5 73.5q27 27 27 76v143q0 35 -35 35h-168q-94 0 -162 -42t-68 -140z" />
<glyph unicode="&#xe4;" horiz-adv-x="940" d="M78 279q0 170 110.5 250.5t343.5 80.5h101q33 0 33 31v41q0 131 -46.5 180t-125.5 49q-129 0 -289 -86q-25 -16 -39 15l-35 71q-10 23 10 37q178 104 363 105q317 0 317 -375v-647q0 -31 -30 -31h-82q-27 0 -31 25l-6 28q-6 18 -20.5 22.5t-24.5 -5.5q-135 -90 -269 -90 q-121 0 -200.5 86t-79.5 213zM170 1305q0 47 28.5 75.5t75.5 28.5q49 0 78 -28.5t29 -75.5q0 -49 -28.5 -78t-78.5 -29q-47 0 -75.5 29t-28.5 78zM233 291q0 -80 45.5 -128t127.5 -48q57 0 123.5 30.5t109.5 73.5q27 27 27 76v143q0 35 -35 35h-168q-94 0 -162 -42t-68 -140 zM578 1305q0 47 27.5 75.5t76.5 28.5t77.5 -28.5t28.5 -75.5q0 -49 -28.5 -78t-77.5 -29t-76.5 29t-27.5 78z" />
<glyph unicode="&#xe5;" horiz-adv-x="940" d="M78 279q0 170 110.5 250.5t343.5 80.5h101q33 0 33 31v41q0 131 -46.5 180t-125.5 49q-129 0 -289 -86q-25 -16 -39 15l-35 71q-10 23 10 37q178 104 363 105q317 0 317 -375v-647q0 -31 -30 -31h-82q-27 0 -31 25l-6 28q-6 18 -20.5 22.5t-24.5 -5.5q-135 -90 -269 -90 q-121 0 -200.5 86t-79.5 213zM233 291q0 -80 45.5 -128t127.5 -48q57 0 123.5 30.5t109.5 73.5q27 27 27 76v143q0 35 -35 35h-168q-94 0 -162 -42t-68 -140zM295 1305q0 84 52 135t140 51q86 0 138.5 -51t52.5 -135q0 -86 -52.5 -136.5t-138.5 -50.5q-88 0 -140 50.5 t-52 136.5zM408 1305q0 -84 79 -84q78 0 78 84t-78 84q-79 0 -79 -84z" />
<glyph unicode="&#xe6;" horiz-adv-x="1505" d="M82 279q0 170 110.5 250.5t344.5 80.5h100q33 0 33 31v41q0 131 -46 180t-126 49q-121 0 -289 -86q-27 -12 -39 17l-33 69q-10 23 10 37q178 104 361 105q168 0 254 -140q14 -16 26 0q117 139 281 140q180 0 269 -121t89 -336v-100q0 -45 -47 -45h-508q-39 0 -39 -43 q0 -117 75 -208q65 -79 157 -79t264 84q25 14 39 -15l33 -69q12 -25 -12 -39q-172 -102 -330 -102q-190 0 -291 147q-12 20 -37 4q-106 -82 -184 -116.5t-178 -34.5q-127 0 -207 86t-80 213zM238 291q0 -80 45 -128t127 -48q57 0 123.5 30.5t109.5 73.5q27 27 27 76v143 q0 35 -35 35h-168q-94 0 -161.5 -42t-67.5 -140zM829 631q0 -45 45 -45h351q45 0 45 45q0 135 -53.5 208.5t-153.5 73.5q-113 0 -173.5 -81.5t-60.5 -200.5z" />
<glyph unicode="&#xe7;" horiz-adv-x="864" d="M78 516q0 537 393 537q152 0 240 -87t106 -239q4 -31 -31 -31h-94q-27 0 -33 23q-14 90 -63 142t-125 52q-238 0 -238 -397t238 -397q76 0 125 52t63 142q6 23 33 23h94q35 0 31 -33q-16 -133 -89 -218t-200 -101q-18 -31 -18 -50q0 -20 24.5 -37.5t53 -30.5t53.5 -49 t25 -91q0 -74 -58.5 -119t-142.5 -45q-94 0 -170 65q-23 16 -8 39l28 45q18 31 41 10q57 -45 113 -45q66 0 66 52q0 25 -23 45t-48.5 32.5t-48 36t-22.5 56.5q0 37 31 84q-346 30 -346 534z" />
<glyph unicode="&#xe8;" horiz-adv-x="913" d="M78 520q0 285 110.5 409t288.5 124q180 0 269.5 -121t89.5 -336v-100q0 -45 -48 -45h-507q-39 0 -39 -43q0 -117 74 -208q65 -79 157 -79t264 84q25 14 39 -15l33 -69q12 -25 -12 -39q-172 -102 -330 -102q-186 0 -287.5 146t-101.5 394zM225 1425l66 72q12 12 23 12 q10 0 20 -10l276 -289q23 -18 2 -36l-34 -39q-16 -23 -39 -2l-310 251q-12 11 -12 23q0 9 8 18zM238 631q0 -45 45 -45h350q45 0 45 45q0 135 -53.5 208.5t-153.5 73.5q-113 0 -173 -81.5t-60 -200.5z" />
<glyph unicode="&#xe9;" horiz-adv-x="913" d="M78 520q0 285 110.5 409t288.5 124q180 0 269.5 -121t89.5 -336v-100q0 -45 -48 -45h-507q-39 0 -39 -43q0 -117 74 -208q65 -79 157 -79t264 84q25 14 39 -15l33 -69q12 -25 -12 -39q-172 -102 -330 -102q-186 0 -287.5 146t-101.5 394zM238 631q0 -45 45 -45h350 q45 0 45 45q0 135 -53.5 208.5t-153.5 73.5q-113 0 -173 -81.5t-60 -200.5zM338 1174q-9 9 -9 17q0 10 11 19l276 289q11 10 21 10q11 0 22 -12l66 -72q9 -10 9 -19q0 -11 -13 -22l-307 -251q-11 -9 -21 -9q-11 0 -20 11z" />
<glyph unicode="&#xea;" horiz-adv-x="913" d="M78 520q0 285 110.5 409t288.5 124q180 0 269.5 -121t89.5 -336v-100q0 -45 -48 -45h-507q-39 0 -39 -43q0 -117 74 -208q65 -79 157 -79t264 84q25 14 39 -15l33 -69q12 -25 -12 -39q-172 -102 -330 -102q-186 0 -287.5 146t-101.5 394zM174 1171q-9 9 -9 19q0 11 13 22 l254 238q19 16 39 16l39 -16l254 -238q12 -11 12 -22q0 -8 -6 -16l-35 -41q-16 -20 -39 -7l-194 148q-15 11 -31 11t-33 -11l-194 -148q-20 -14 -37 7zM238 631q0 -45 45 -45h350q45 0 45 45q0 135 -53.5 208.5t-153.5 73.5q-113 0 -173 -81.5t-60 -200.5z" />
<glyph unicode="&#xeb;" horiz-adv-x="913" d="M78 520q0 285 110.5 409t288.5 124q180 0 269.5 -121t89.5 -336v-100q0 -45 -48 -45h-507q-39 0 -39 -43q0 -117 74 -208q65 -79 157 -79t264 84q25 14 39 -15l33 -69q12 -25 -12 -39q-172 -102 -330 -102q-186 0 -287.5 146t-101.5 394zM158 1305q0 47 28.5 75.5 t75.5 28.5q49 0 78 -28.5t29 -75.5q0 -49 -29 -78t-78 -29q-47 0 -75.5 29t-28.5 78zM238 631q0 -45 45 -45h350q45 0 45 45q0 135 -53.5 208.5t-153.5 73.5q-113 0 -173 -81.5t-60 -200.5zM565 1305q0 47 28 75.5t77 28.5t77.5 -28.5t28.5 -75.5q0 -49 -28.5 -78t-77.5 -29 t-77 29t-28 78z" />
<glyph unicode="&#xec;" horiz-adv-x="393" d="M-94 1425l65 72q12 12 23 12q10 0 20 -10l277 -289q12 -10 12 -19t-10 -17l-35 -39q-16 -23 -39 -2l-309 251q-12 11 -13 23q1 9 9 18zM119 31v968q0 33 31 33h94q31 0 30 -33v-968q0 -31 -30 -31h-94q-31 0 -31 31z" />
<glyph unicode="&#xed;" horiz-adv-x="393" d="M106 1174q-9 9 -8 17q0 10 11 19l276 289q11 10 21 10q11 0 22 -12l66 -72q9 -10 9 -19q0 -11 -14 -22l-307 -251q-23 -18 -41 2zM119 31v968q0 33 31 33h94q31 0 30 -33v-968q0 -31 -30 -31h-94q-31 0 -31 31z" />
<glyph unicode="&#xee;" horiz-adv-x="393" d="M-98 1171q-9 9 -10 19q0 11 14 22l254 238q19 16 39 16l39 -16l254 -238q12 -11 12 -22q0 -8 -6 -16l-35 -41q-16 -20 -39 -7l-195 148q-16 11 -32 11t-31 -11l-195 -148q-20 -14 -37 7zM119 31v968q1 33 31 33h94q31 0 30 -33v-968q0 -31 -30 -31h-94q-30 0 -31 31z" />
<glyph unicode="&#xef;" horiz-adv-x="393" d="M-109 1305q0 47 29 75.5t76 28.5q49 0 77.5 -28.5t28.5 -75.5q0 -49 -28.5 -78t-77.5 -29q-47 0 -76 29t-29 78zM119 31v968q0 33 31 33h94q31 0 30 -33v-968q0 -31 -30 -31h-94q-31 0 -31 31zM299 1305q0 47 27.5 75.5t77 28.5t78 -28.5t28.5 -75.5q0 -49 -28.5 -78 t-78 -29t-77 29t-27.5 78z" />
<glyph unicode="&#xf0;" horiz-adv-x="927" d="M98 322v350q0 145 81 232t218 87q117 0 211 -59q23 -12 36 -4t9 24q-31 139 -61 222l-160 -58q-29 -12 -41 19l-24 67q-8 31 18 39l156 57q-25 55 -66 125q-18 25 10 43l80 45q8 5 16 5q14 0 27 -17q45 -80 76 -149l162 59q29 12 41 -18l24 -68q4 -8 4 -15q0 -17 -22 -24 l-160 -59q117 -326 117 -709q0 -94 -15.5 -177t-53.5 -170t-118.5 -138t-197.5 -51q-172 0 -269.5 85t-97.5 257zM254 324q0 -205 211 -205q229 0 229 393q0 127 -11 184.5t-48 85.5q-92 68 -199 68q-88 0 -135 -55.5t-47 -161.5v-309z" />
<glyph unicode="&#xf1;" horiz-adv-x="989" d="M119 31v968q0 33 31 33h81q25 0 31 -24l6 -29q6 -18 20.5 -22.5t24.5 4.5q133 92 258 92q139 0 219 -87t80 -233v-702q0 -31 -30 -31h-95q-31 0 -30 31v663q0 217 -183 217q-55 0 -123.5 -30.5t-107.5 -69.5q-27 -27 -27 -76v-704q0 -31 -30 -31h-94q-31 0 -31 31z M156 1284q92 164 206 164q55 0 108.5 -34t95.5 -67.5t69 -33.5q53 0 119 94q18 25 43 2l41 -27q14 -8 14 -21q0 -10 -8 -22q-51 -86 -98.5 -124.5t-110.5 -38.5q-55 0 -108.5 33.5t-95.5 67.5t-69 34q-49 0 -118 -94q-14 -27 -43 -5l-41 27q-13 9 -14 22q1 10 10 23z" />
<glyph unicode="&#xf2;" horiz-adv-x="974" d="M78 516q0 266 98 401.5t311 135.5t311.5 -135.5t98.5 -401.5t-98.5 -401t-311.5 -135t-311 135t-98 401zM233 516q0 -199 60.5 -298t194 -99t193.5 99t60 298t-60 298t-193.5 99t-194 -99t-60.5 -298zM246 1425l65 72q12 12 23 12q10 0 20 -10l277 -289q12 -10 12 -19 t-10 -17l-35 -39q-9 -12 -19 -12q-9 0 -20 10l-309 251q-12 11 -13 23q1 9 9 18z" />
<glyph unicode="&#xf3;" horiz-adv-x="974" d="M78 516q0 266 98 401.5t311 135.5t311.5 -135.5t98.5 -401.5t-98.5 -401t-311.5 -135t-311 135t-98 401zM233 516q0 -199 60.5 -298t194 -99t193.5 99t60 298t-60 298t-193.5 99t-194 -99t-60.5 -298zM338 1174q-9 9 -9 17q0 10 11 19l276 289q11 10 21 10q11 0 22 -12 l66 -72q9 -10 9 -19q0 -11 -13 -22l-307 -251q-11 -9 -21 -9q-11 0 -20 11z" />
<glyph unicode="&#xf4;" horiz-adv-x="974" d="M78 516q0 266 98 401.5t311 135.5t311.5 -135.5t98.5 -401.5t-98.5 -401t-311.5 -135t-311 135t-98 401zM190 1171q-9 9 -9 19q0 11 14 22l254 238q19 16 38 16l39 -16l254 -238q12 -11 12 -22q0 -8 -6 -16l-34 -41q-16 -20 -39 -7l-195 148q-15 11 -31 11t-32 -11 l-195 -148q-20 -14 -37 7zM233 516q0 -199 60.5 -298t194 -99t193.5 99t60 298t-60 298t-193.5 99t-194 -99t-60.5 -298z" />
<glyph unicode="&#xf5;" horiz-adv-x="974" d="M78 516q0 266 98 401.5t311 135.5t311.5 -135.5t98.5 -401.5t-98.5 -401t-311.5 -135t-311 135t-98 401zM141 1284q92 164 207 164q55 0 108.5 -34t95.5 -67.5t69 -33.5q53 0 118 94q18 25 43 2l41 -27q14 -8 14 -21q0 -10 -8 -22q-51 -86 -98 -124.5t-110 -38.5 q-55 0 -108.5 33.5t-95.5 67.5t-69 34q-49 0 -119 -94q-14 -27 -43 -5l-41 27q-13 9 -13 22q0 10 9 23zM233 516q0 -199 60.5 -298t194 -99t193.5 99t60 298t-60 298t-193.5 99t-194 -99t-60.5 -298z" />
<glyph unicode="&#xf6;" horiz-adv-x="974" d="M78 516q0 266 98 401.5t311 135.5t311.5 -135.5t98.5 -401.5t-98.5 -401t-311.5 -135t-311 135t-98 401zM174 1305q0 47 28.5 75.5t76.5 28.5q49 0 77.5 -28.5t28.5 -75.5q0 -49 -28.5 -78t-77.5 -29q-47 0 -76 29t-29 78zM233 516q0 -199 60.5 -298t194 -99t193.5 99 t60 298t-60 298t-193.5 99t-194 -99t-60.5 -298zM582 1305q0 47 27.5 75.5t76.5 28.5t78 -28.5t29 -75.5q0 -49 -29 -78t-78 -29t-76.5 29t-27.5 78z" />
<glyph unicode="&#xf7;" horiz-adv-x="868" d="M41 686v76q0 33 31 33h725q31 0 30 -33v-76q0 -31 -30 -31h-725q-31 0 -31 31zM317 373q0 53 32 83.5t87 30.5q51 0 82 -30.5t31 -83.5q0 -55 -30 -86t-83 -31q-55 0 -87 31t-32 86zM319 1079q0 53 32 84t87 31q51 0 82 -32t31 -83q0 -55 -31 -85.5t-82 -30.5 q-55 0 -87 30.5t-32 85.5z" />
<glyph unicode="&#xf8;" horiz-adv-x="974" d="M78 516q0 266 98 401.5t311 135.5q92 0 168 -29l74 160q9 20 24 20q8 0 17 -6l59 -27q27 -14 15 -43l-80 -172q133 -127 133 -440q0 -266 -98.5 -401t-311.5 -135q-88 0 -168 26l-73 -160q-10 -19 -25 -19q-8 0 -16 5l-60 27q-27 16 -14 43l80 172q-133 131 -133 442z M233 516q0 -184 52 -285l309 662q-43 20 -107 20q-133 0 -193.5 -99t-60.5 -298zM381 139q43 -20 106 -20q133 0 193.5 99t60.5 298q0 182 -51 283z" />
<glyph unicode="&#xf9;" horiz-adv-x="989" d="M119 299v700q0 33 31 33h94q31 0 30 -33v-661q0 -219 183 -219q55 0 123.5 30.5t107.5 69.5q27 29 27 76v704q0 33 30 33h95q31 0 30 -33v-968q0 -31 -30 -31h-82q-27 0 -31 25l-6 28q-6 18 -20.5 22.5t-24.5 -5.5q-137 -90 -258 -90q-139 0 -219 87t-80 232zM233 1425 l66 72q12 12 23 12q10 0 20 -10l276 -289q12 -10 12 -19t-9 -17l-35 -39q-9 -12 -19 -12q-9 0 -20 10l-309 251q-12 11 -13 23q0 9 8 18z" />
<glyph unicode="&#xfa;" horiz-adv-x="989" d="M119 299v700q0 33 31 33h94q31 0 30 -33v-661q0 -219 183 -219q55 0 123.5 30.5t107.5 69.5q27 29 27 76v704q0 33 30 33h95q31 0 30 -33v-968q0 -31 -30 -31h-82q-27 0 -31 25l-6 28q-6 18 -20.5 22.5t-24.5 -5.5q-137 -90 -258 -90q-139 0 -219 87t-80 232zM358 1174 q-9 9 -8 17q0 10 10 19l277 289q11 10 21 10q11 0 22 -12l65 -72q9 -10 10 -19q0 -11 -14 -22l-307 -251q-11 -9 -20 -9q-11 0 -21 11z" />
<glyph unicode="&#xfb;" horiz-adv-x="989" d="M119 299v700q1 33 31 33h94q31 0 30 -33v-661q0 -219 183 -219q55 0 123.5 30.5t107.5 69.5q27 29 27 76v704q0 33 30 33h95q31 0 30 -33v-968q0 -31 -30 -31h-82q-27 0 -31 25l-6 28q-6 18 -20.5 22.5t-24.5 -5.5q-137 -90 -258 -90q-139 0 -219 87t-80 232zM197 1171 q-9 9 -10 19q0 11 14 22l254 238q19 16 39 16l38 -16l254 -238q12 -11 12 -22q0 -8 -5 -16l-35 -41q-10 -12 -22 -13q-8 0 -17 6l-195 148q-16 11 -32 11t-31 -11l-195 -148q-8 -6 -16 -6q-11 0 -21 13z" />
<glyph unicode="&#xfc;" horiz-adv-x="989" d="M119 299v700q0 33 31 33h94q31 0 30 -33v-661q0 -219 183 -219q55 0 123.5 30.5t107.5 69.5q27 29 27 76v704q0 33 30 33h95q31 0 30 -33v-968q0 -31 -30 -31h-82q-27 0 -31 25l-6 28q-6 18 -20.5 22.5t-24.5 -5.5q-137 -90 -258 -90q-139 0 -219 87t-80 232zM182 1305 q0 47 29 75.5t76 28.5q49 0 77.5 -28.5t28.5 -75.5q0 -49 -28.5 -78t-77.5 -29q-47 0 -76 29t-29 78zM590 1305q0 47 27.5 75.5t76.5 28.5t78 -28.5t29 -75.5q0 -49 -29 -78t-78 -29t-76.5 29t-27.5 78z" />
<glyph unicode="&#xfd;" horiz-adv-x="892" d="M41 983q-4 8 -4 15q0 17 22 24l95 31q29 12 39 -21l241 -760q4 -14 17.5 -14t17.5 14l242 760q10 33 39 21l84 -29q23 -8 23 -26q0 -6 -3 -13l-483 -1472q-7 -22 -24 -22q-7 0 -15 3l-88 29q-29 8 -19 39l131 399q6 23 2 57zM360 1174q-9 9 -8 17q0 10 11 19l276 289 q11 10 21 10q11 0 22 -12l66 -72q9 -10 9 -19q0 -11 -14 -22l-307 -251q-11 -9 -20 -9q-11 0 -21 11z" />
<glyph unicode="&#xfe;" horiz-adv-x="968" d="M119 -461v1909q0 31 31 31h94q31 0 30 -31v-465q0 -20 16.5 -24.5t26.5 4.5q135 90 254 90q139 0 219 -87t80 -233v-434q0 -145 -79.5 -232t-219.5 -87q-121 0 -254 88q-10 10 -24 5t-19 -26v-508q0 -31 -30 -31h-94q-31 0 -31 31zM274 295q0 -47 27 -76 q39 -39 107.5 -69.5t123.5 -30.5q182 0 183 219v356q0 217 -183 217q-55 0 -123.5 -30.5t-107.5 -69.5q-27 -27 -27 -76v-440z" />
<glyph unicode="&#xff;" horiz-adv-x="892" d="M41 983q-4 8 -4 15q0 17 22 24l95 31q29 12 39 -21l241 -760q4 -14 17.5 -14t17.5 14l242 760q10 33 39 21l84 -29q23 -8 23 -26q0 -6 -3 -13l-483 -1472q-7 -22 -24 -22q-7 0 -15 3l-88 29q-29 8 -19 39l131 399q6 23 2 57zM141 1305q0 47 29 75.5t76 28.5 q49 0 77.5 -28.5t28.5 -75.5q0 -49 -28.5 -78t-77.5 -29q-47 0 -76 29t-29 78zM549 1305q0 47 27.5 75.5t76.5 28.5t78 -28.5t29 -75.5q0 -49 -29 -78t-78 -29t-76.5 29t-27.5 78z" />
<glyph unicode="&#x152;" horiz-adv-x="1736" d="M78 741q0 371 125 564.5t370 193.5q193 0 320 -153q8 -12 21.5 -8.5t13.5 22.5v88q0 31 30 31h668q33 0 33 -31v-88q0 -31 -33 -31h-487q-49 0 -49 -51v-414q0 -51 49 -51h354q33 0 33 -31v-88q0 -31 -33 -30h-354q-49 0 -49 -50v-413q0 -51 49 -51h487q33 0 33 -31v-88 q0 -31 -33 -31h-668q-31 0 -30 31v88q0 12 -6.5 18t-14.5 5t-14 -9q-123 -154 -320 -153q-246 0 -370.5 194t-124.5 567zM240 741q0 -612 346 -612q342 0 342 610q0 297 -86 454t-256 157q-346 -1 -346 -609z" />
<glyph unicode="&#x153;" horiz-adv-x="1576" d="M78 516q0 266 98 401.5t311 135.5q215 0 318 -174q16 -23 31 0q111 174 305 174q180 0 269 -121t89 -336v-100q0 -45 -47 -45h-508q-39 0 -39 -43q0 -117 75 -208q65 -79 157 -79t264 84q25 14 39 -15l33 -69q12 -25 -13 -39q-172 -102 -330 -102q-178 0 -292 176 q-4 10 -14.5 10t-14.5 -10q-104 -176 -322 -176q-213 0 -311 135t-98 401zM233 512q0 -199 60.5 -296t194 -97t193.5 97t60 296q0 401 -254 401t-254 -401zM901 631q0 -45 45 -45h350q45 0 45 45q0 135 -53 208.5t-153 73.5q-113 0 -173.5 -81.5t-60.5 -200.5z" />
<glyph unicode="&#x178;" horiz-adv-x="1001" d="M18 1405q-7 10 -6 18q0 14 19 25l88 49q27 18 43 -10l317 -615q8 -16 26.5 -16t26.5 16l316 611q16 31 43 12l80 -45q18 -10 18 -25q0 -8 -6 -18l-387 -739q-10 -25 -10 -45v-592q0 -31 -33 -31h-98q-31 0 -31 31v590q0 25 -12 43zM180 1669q0 49 29 78t76 29 q49 0 77.5 -29t28.5 -78q0 -47 -28.5 -75.5t-77.5 -28.5q-47 0 -76 28.5t-29 75.5zM621 1669q0 49 27.5 78t76.5 29t77.5 -29t28.5 -78q0 -47 -28.5 -75.5t-77.5 -28.5t-76.5 28.5t-27.5 75.5z" />
<glyph unicode="&#x2c6;" horiz-adv-x="817" d="M111 1171q-9 9 -10 19q0 11 14 22l254 238q19 16 39 16l38 -16l254 -238q12 -11 12 -22q0 -8 -5 -16l-35 -41q-10 -12 -22 -13q-8 0 -17 6l-195 148q-16 11 -32 11t-31 -11l-195 -148q-8 -6 -16 -6q-11 0 -21 13z" />
<glyph unicode="&#x2dc;" horiz-adv-x="919" d="M117 1284q92 164 207 164q55 0 108 -34t95 -67.5t69 -33.5q53 0 119 94q18 25 43 2l41 -27q14 -8 14 -21q0 -10 -8 -22q-51 -86 -98.5 -124.5t-110.5 -38.5q-55 0 -108.5 33.5t-95.5 67.5t-68 34q-49 0 -119 -94q-14 -27 -43 -5l-41 27q-13 9 -14 22q1 10 10 23z" />
<glyph unicode="&#x2000;" horiz-adv-x="935" />
<glyph unicode="&#x2001;" horiz-adv-x="1873" />
<glyph unicode="&#x2002;" horiz-adv-x="935" />
<glyph unicode="&#x2003;" horiz-adv-x="1873" />
<glyph unicode="&#x2004;" horiz-adv-x="624" />
<glyph unicode="&#x2005;" horiz-adv-x="466" />
<glyph unicode="&#x2006;" horiz-adv-x="311" />
<glyph unicode="&#x2007;" horiz-adv-x="311" />
<glyph unicode="&#x2008;" horiz-adv-x="233" />
<glyph unicode="&#x2009;" horiz-adv-x="374" />
<glyph unicode="&#x200a;" horiz-adv-x="102" />
<glyph unicode="&#x2010;" horiz-adv-x="610" d="M41 496v82q0 33 31 32h467q31 0 30 -32v-82q0 -33 -30 -33h-467q-31 0 -31 33z" />
<glyph unicode="&#x2011;" horiz-adv-x="610" d="M41 496v82q0 33 31 32h467q31 0 30 -32v-82q0 -33 -30 -33h-467q-31 0 -31 33z" />
<glyph unicode="&#x2012;" horiz-adv-x="610" d="M41 496v82q0 33 31 32h467q31 0 30 -32v-82q0 -33 -30 -33h-467q-31 0 -31 33z" />
<glyph unicode="&#x2013;" horiz-adv-x="1134" d="M41 496v82q0 33 31 32h991q31 0 31 -32v-82q0 -33 -31 -33h-991q-31 0 -31 33z" />
<glyph unicode="&#x2014;" horiz-adv-x="2152" d="M41 496v82q0 33 31 32h2009q31 0 30 -32v-82q0 -33 -30 -33h-2009q-31 0 -31 33z" />
<glyph unicode="&#x2018;" horiz-adv-x="354" d="M27 1180l182 460q10 25 35 25h65q27 0 23 -31l-119 -471q-6 -29 -35 -28h-129q-42 0 -22 45z" />
<glyph unicode="&#x2019;" horiz-adv-x="354" d="M23 1165l118 471q6 29 33 29h131q27 0 28 -22q0 -9 -5 -23l-183 -461q-10 -25 -34 -24h-66q-26 -1 -22 30z" />
<glyph unicode="&#x201a;" horiz-adv-x="354" d="M23 -309l118 471q6 29 33 28h131q27 0 28 -22q0 -9 -5 -23l-183 -460q-10 -25 -34 -25h-66q-26 0 -22 31z" />
<glyph unicode="&#x201c;" horiz-adv-x="692" d="M29 1180l180 460q10 25 37 25h65q27 0 23 -31l-119 -471q-6 -29 -35 -28h-129q-29 0 -29 20q0 10 7 25zM367 1180l180 460q10 25 37 25h65q27 0 23 -31l-119 -471q-6 -29 -35 -28h-129q-29 0 -29 20q0 10 7 25z" />
<glyph unicode="&#x201d;" horiz-adv-x="692" d="M23 1165l118 471q6 29 33 29h131q39 0 23 -45l-183 -461q-10 -25 -34 -24h-66q-26 -1 -22 30zM360 1165l119 471q6 29 33 29h131q27 0 27 -22q0 -9 -4 -23l-183 -461q-10 -25 -34 -24h-66q-27 -1 -23 30z" />
<glyph unicode="&#x201e;" horiz-adv-x="692" d="M23 -309l118 471q6 29 33 28h131q39 0 23 -45l-183 -460q-10 -25 -34 -25h-66q-26 0 -22 31zM360 -309l119 471q6 29 33 28h131q27 0 27 -22q0 -9 -4 -23l-183 -460q-10 -25 -34 -25h-66q-27 0 -23 31z" />
<glyph unicode="&#x2022;" horiz-adv-x="776" d="M102 737q0 131 77 209t208 78t209 -78t78 -209t-77 -208.5t-210 -77.5q-131 0 -208 77.5t-77 208.5z" />
<glyph unicode="&#x2026;" horiz-adv-x="1503" d="M102 106q0 53 32 83t87 30q51 0 82 -30.5t31 -82.5q0 -55 -31 -86.5t-82 -31.5q-55 0 -87 31.5t-32 86.5zM635 106q0 53 31.5 83t87.5 30q53 0 82.5 -29.5t29.5 -83.5q0 -55 -29.5 -86.5t-82.5 -31.5q-55 0 -87 31.5t-32 86.5zM1167 106q0 53 32 83t87 30q53 0 84 -30.5 t31 -82.5q0 -55 -31 -86.5t-84 -31.5q-55 0 -87 31.5t-32 86.5z" />
<glyph unicode="&#x202f;" horiz-adv-x="374" />
<glyph unicode="&#x2039;" horiz-adv-x="702" d="M113 508q-12 11 -12.5 22.5t12.5 22.5l368 373q11 10 23 10l22 -10l56 -58q12 -9 12 -19.5t-12 -23.5l-252 -254q-15 -15 -15.5 -31.5t15.5 -33.5l262 -260q11 -10 11 -21t-11 -22l-66 -66q-10 -10 -21 -10t-24 10z" />
<glyph unicode="&#x203a;" horiz-adv-x="702" d="M113 201q-11 10 -11.5 20.5t11.5 22.5l260 258q15 16 15 32.5t-15 32.5l-254 256q-12 10 -12.5 21t12.5 22l57 60q11 10 23 10l22 -10l369 -373q12 -10 12 -21.5t-12 -23.5l-369 -369q-12 -12 -23.5 -12t-21.5 12z" />
<glyph unicode="&#x205f;" horiz-adv-x="466" />
<glyph unicode="&#x20ac;" horiz-adv-x="1232" d="M82 559v76q0 33 31 33h94q45 0 45 45v55q0 45 -45 45h-94q-31 0 -31 31v78q0 31 31 30h118q39 0 48 31q53 254 209.5 385t357.5 131q152 0 282 -59q21 -8 21 -26q0 -8 -4 -17l-33 -80q-10 -27 -41 -17q-106 49 -225 50q-133 -2 -240.5 -91.5t-152.5 -261.5q-2 -9 -3 -15 q0 -29 42 -30h452q33 0 33 -30v-78q0 -31 -33 -31h-485q-45 0 -45 -45v-55q0 -45 45 -45h383q33 0 32 -33v-76q0 -31 -32 -31h-350q-41 0 -42 -30q0 -7 3 -17q45 -172 152.5 -261t240.5 -91q119 0 225 49q31 10 41 -16l33 -80q5 -10 4 -18q0 -17 -21 -25q-131 -59 -282 -59 q-201 0 -357.5 131t-209.5 387q-8 31 -48 30h-118q-31 0 -31 31z" />
<glyph unicode="&#x2122;" horiz-adv-x="1155" d="M41 1399v51q0 29 29 29h354q31 0 31 -29v-51q0 -29 -31 -29h-84q-31 0 -31 -31v-389q0 -29 -28 -28h-66q-29 0 -29 28v389q0 31 -32 31h-84q-29 0 -29 29zM547 950v498q0 31 31 31h88q20 0 32 -23l93 -246q2 -6 6 -9t9 -1t7 10l94 246q10 23 31 23h86q29 0 29 -31v-498 q0 -29 -29 -28h-66q-29 0 -28 28l4 242q0 8 -5 11t-10.5 1t-7.5 -8l-55 -158q-6 -27 -27 -26h-55q-20 0 -29 26l-53 158q-2 6 -7 8t-10 -1t-5 -11l2 -242q0 -29 -27 -28h-67q-31 -1 -31 28z" />
<glyph unicode="&#xe000;" horiz-adv-x="1060" d="M0 1060h1060v-1060h-1060v1060z" />
<glyph unicode="&#xfb01;" horiz-adv-x="1058" d="M51 924v75q0 33 31 33h90q49 0 49 49q0 90 14.5 160t49 131.5t102.5 94t166 32.5q141 0 330 -98q27 -16 16 -41l-37 -76q-14 -31 -41 -16q-72 37 -99.5 49t-73.5 26.5t-89 14.5q-109 0 -145.5 -67.5t-36.5 -209.5q0 -49 49 -49h483q31 0 31 -33v-968q0 -31 -31 -31h-94 q-31 0 -31 31v811q0 51 -49 51h-309q-49 0 -49 -51v-811q0 -31 -31 -31h-94q-31 0 -31 31v811q0 51 -49 51h-90q-31 0 -31 31z" />
<glyph unicode="&#xfb02;" horiz-adv-x="1058" d="M51 924v75q0 33 31 33h90q49 0 49 49v45q0 352 344 353h344q31 0 31 -31v-1417q0 -31 -31 -31h-94q-31 0 -31 31v1259q0 49 -49 49h-176q-111 0 -146.5 -59t-35.5 -170v-29q0 -49 49 -49h143q31 0 31 -33v-75q0 -31 -31 -31h-143q-49 0 -49 -51v-811q0 -31 -31 -31h-94 q-31 0 -31 31v811q0 51 -49 51h-90q-31 0 -31 31z" />
<glyph unicode="&#xfb03;" horiz-adv-x="1622" d="M51 924v75q0 33 31 33h90q49 0 49 49v45q0 352 344 353h45q29 0 29 -31v-80q0 -29 -31 -29h-49q-111 0 -146.5 -59t-35.5 -170v-29q0 -49 49 -49h309q49 0 49 49q0 90 14.5 160t49.5 131.5t102.5 94t165.5 32.5q141 0 330 -98q27 -16 16 -41l-37 -76q-14 -31 -41 -16 q-72 37 -99.5 49t-73.5 26.5t-89 14.5q-109 0 -145.5 -67.5t-36.5 -209.5q0 -49 49 -49h484q31 0 30 -33v-968q0 -31 -30 -31h-95q-31 0 -30 31v811q0 51 -50 51h-309q-49 0 -49 -51v-811q0 -31 -31 -31h-94q-31 0 -31 31v811q0 51 -49 51h-309q-49 0 -49 -51v-811 q0 -31 -31 -31h-94q-31 0 -31 31v811q0 51 -49 51h-90q-31 0 -31 31z" />
<glyph unicode="&#xfb04;" horiz-adv-x="1622" d="M51 924v75q0 33 31 33h90q49 0 49 49v45q0 352 344 353h45q29 0 29 -31v-80q0 -29 -31 -29h-49q-111 0 -146.5 -59t-35.5 -170v-29q0 -49 49 -49h309q49 0 49 49v45q0 352 344 353h345q31 0 30 -31v-1417q0 -31 -30 -31h-95q-31 0 -30 31v1259q0 49 -50 49h-176 q-111 0 -146.5 -59t-35.5 -170v-29q0 -49 49 -49h144q31 0 30 -33v-75q0 -31 -30 -31h-144q-49 0 -49 -51v-811q0 -31 -31 -31h-94q-31 0 -31 31v811q0 51 -49 51h-309q-49 0 -49 -51v-811q0 -31 -31 -31h-94q-31 0 -31 31v811q0 51 -49 51h-90q-31 0 -31 31z" />
<glyph horiz-adv-x="0" />
</font>
</defs>
</svg>
