<?xml version="1.0" standalone="no"?>
<!DOCTYPE svg PUBLIC "-//W3C//DTD SVG 1.1//EN" "http://www.w3.org/Graphics/SVG/1.1/DTD/svg11.dtd" >
<svg xmlns="http://www.w3.org/2000/svg">
<metadata>
This is a custom SVG webfont generated by Font Squirrel.
Copyright   : Copyright c 2007 by Tomas Brousil All rights reserved
Foundry     : Tomas Brousil
</metadata>
<defs>
<font id="KatarineExpertsRegular" horiz-adv-x="518" >
<font-face units-per-em="2048" ascent="1638" descent="-410" />
<missing-glyph horiz-adv-x="374" />
<glyph unicode=" " horiz-adv-x="374" d="M-2 -20v143h379v-143h-379zM-2 1356v143h379v-143h-379z" />
<glyph unicode="!" horiz-adv-x="307" d="M-2 -20v143h311v-143h-311zM-2 1356v143h311v-143h-311zM61 1026q0 35 37 35h113q37 0 37 -35l-33 -358q0 -35 -35 -35h-49q-35 0 -37 35zM68 489q0 41 22.5 65t63.5 24q86 0 86 -89q0 -84 -86 -84t-86 84z" />
<glyph unicode="&#x26;" horiz-adv-x="643" d="M-2 -20v143h647v-143h-647zM-2 1356v143h647v-143h-647zM55 596q0 45 28 88t71 61q16 6 2 21l-15 16q-47 47 -47 113q0 76 59.5 127t139.5 51q86 0 141 -49t55 -125q0 -98 -98 -133q-10 -2 -12 -10t4 -13l35 -34q18 -20 37 -2l47 49q27 27 53 -2l33 -35q13 -13 13 -26 t-13 -25l-49 -52q-20 -20 0 -36l51 -52q13 -14 13 -27.5t-13 -25.5l-51 -53q-29 -25 -54 0l-49 51q-16 14 -35 -2l-12 -12q-53 -53 -143 -53q-86 0 -138.5 51t-52.5 139zM209 584q0 -23 15.5 -35t35.5 -12q25 0 43 14l12 10q20 18 0 39l-41 43q-10 10 -24 0q-41 -24 -41 -59 zM250 897q0 -16 10 -27l21 -20q6 -5 12 -5l12 5q31 16 31 41q0 43 -43 43q-18 0 -30.5 -11.5t-12.5 -25.5z" />
<glyph unicode="(" horiz-adv-x="860" d="M102 741q0 330 214 544t544 214h2v-143h-2q-266 0 -440 -174t-174 -441q0 -270 173 -444t441 -174h2v-143h-2q-330 0 -544 213.5t-214 547.5z" />
<glyph unicode=")" horiz-adv-x="864" d="M-2 -20v143h2q270 0 444 174t174 444q0 268 -174 441.5t-444 173.5h-2v143h2q334 0 548 -214t214 -544q0 -334 -214 -547.5t-548 -213.5h-2z" />
<glyph unicode="," horiz-adv-x="313" d="M-2 -20v143h317v-143h-317zM-2 1356v143h317v-143h-317zM57 307l43 228q0 25 29 24h82q18 0 23 -13q2 -5 2 -11q0 -9 -5 -19l-84 -215q-6 -20 -26 -20h-45q-20 0 -21 15q0 5 2 11z" />
<glyph unicode="-" d="M-2 -20v143h522v-143h-522zM-2 1356v143h522v-143h-522zM55 657v82q0 27 31 27h344q35 0 35 -29v-82q0 -27 -31 -26h-350q-29 -1 -29 28z" />
<glyph unicode="." horiz-adv-x="313" d="M-2 -20v143h317v-143h-317zM-2 1356v143h317v-143h-317zM78 481q0 37 21.5 58.5t56 21.5t56 -21.5t21.5 -58.5q0 -35 -21.5 -55t-56 -20t-56 20t-21.5 55z" />
<glyph unicode="/" horiz-adv-x="456" d="M-2 -20v143h461v-143h-461zM-2 1356v143h461v-143h-461zM25 287l266 944q6 22 27 22q6 0 14 -2l80 -20q22 -6 22 -27q0 -6 -2 -12l-264 -938q-8 -28 -31 -28q-5 0 -12 1l-80 21q-23 6 -23 25q0 6 3 14z" />
<glyph unicode="0" d="M-2 -20v143h522v-143h-522zM-2 1356v143h522v-143h-522zM43 612v256q0 92 58.5 148.5t158.5 56.5t158.5 -56t58.5 -149v-256q0 -96 -59.5 -151t-157.5 -55q-100 0 -158.5 56t-58.5 150zM184 618q0 -80 76 -79.5t76 79.5v242q0 35 -20.5 58.5t-55.5 23.5 q-37 0 -56.5 -23.5t-19.5 -58.5v-242z" />
<glyph unicode="1" d="M-2 -20v143h522v-143h-522zM-2 1356v143h522v-143h-522zM70 887q-9 13 -9 23q0 12 11 22l125 112q20 16 47 17h73q31 0 31 -33v-446q0 -31 31 -31h31q35 0 34 -31v-69q0 -33 -34 -33h-267q-33 0 -32 33v69q0 31 32 31h33q31 0 31 31v268q0 6 -3 9t-8.5 3t-9.5 -4l-28 -33 q-27 -20 -45 4z" />
<glyph unicode="2" d="M-2 -20v143h522v-143h-522zM-2 1356v143h522v-143h-522zM57 451v69q0 20 21 47l215 234q33 39 33 78q0 27 -16.5 46t-47.5 19q-66 0 -65 -74q0 -31 -33 -30h-76q-31 0 -31 30q0 90 53.5 146.5t151.5 56.5q92 0 147.5 -53t55.5 -137q0 -98 -94 -181l-119 -127 q-8 -8 -4 -16t14 -8h170q33 0 33 -31v-69q0 -33 -33 -33h-344q-31 0 -31 33z" />
<glyph unicode="3" d="M-2 -20v143h522v-143h-522zM-2 1356v143h522v-143h-522zM47 606q0 33 31 33h78q33 0 32 -29q0 -31 18.5 -51t53.5 -20q74 0 74 73q0 72 -78 72q-35 0 -35 21v79q0 23 35 23q31 0 50.5 19.5t19.5 50.5q0 29 -19.5 47t-48.5 18q-31 0 -48 -20.5t-17 -51.5q0 -29 -33 -28 h-74q-33 0 -33 30q0 90 55.5 145.5t157.5 55.5q84 0 140.5 -50t56.5 -122q0 -94 -78 -135q-6 -4 -6 -10t6 -8q90 -45 90 -144q0 -88 -59.5 -143t-155.5 -55q-98 0 -155.5 55t-57.5 145z" />
<glyph unicode="4" d="M-2 -20v143h522v-143h-522zM-2 1356v143h522v-143h-522zM33 565v74q0 14 10 41l141 371q7 22 25 22q7 0 16 -4l66 -27q31 -8 18 -41l-116 -309q-8 -27 8 -26h39q23 0 22 26v45q0 31 33 31h76q31 0 30 -31v-45q0 -27 27 -26h29q33 0 32 -33v-68q0 -33 -32 -33h-29 q-27 0 -27 -26v-57q0 -33 -30 -33h-76q-33 0 -33 33v57q0 16 -6 21t-20 5h-173q-30 0 -30 33z" />
<glyph unicode="5" d="M-2 -20v143h522v-143h-522zM-2 1356v143h522v-143h-522zM53 598q0 33 31 33h76q35 0 35 -27q0 -29 16 -47t47 -18q29 0 46.5 18t17.5 49v76q0 55 -48 55q-37 0 -61 -24q-27 -23 -41 -23h-74q-31 0 -30 33l20 305q2 33 33 33h282q33 0 33 -33v-65q0 -33 -33 -33h-165 q-27 0 -29 -27l-6 -82q-2 -23 18 -12q53 37 107 37q59 0 96 -34t37 -95v-127q0 -80 -54.5 -132t-144.5 -52q-102 0 -155.5 52t-53.5 140z" />
<glyph unicode="6" d="M-2 -20v143h522v-143h-522zM-2 1356v143h522v-143h-522zM47 614q0 78 45 177l111 260q11 21 27 21q7 0 16 -5l65 -29q31 -10 17 -43l-82 -159q-4 -8 0 -13.5t12 -3.5q18 6 39 6q76 0 125 -55t49 -149q0 -90 -58.5 -152.5t-152.5 -62.5q-96 0 -154.5 59t-58.5 149z M188 627q0 -88 68 -88q76 0 76 86q0 88 -68 88q-45 0 -63 -29q-13 -20 -13 -57z" />
<glyph unicode="7" d="M-2 -20v143h522v-143h-522zM-2 1356v143h522v-143h-522zM53 958v68q0 33 31 33h344q33 0 33 -33v-74q0 -6 -8 -39l-215 -493q-12 -23 -30 -23q-6 0 -11 2l-66 29q-27 8 -18 41l190 432q8 25 -12 25h-207q-31 -1 -31 32z" />
<glyph unicode="8" d="M-2 -20v143h522v-143h-522zM-2 1356v143h522v-143h-522zM47 596q0 98 86 145q14 8 0 19q-72 43 -72 131q0 80 56.5 131t140.5 51q88 0 144.5 -51t56.5 -131q0 -86 -74 -131q-14 -10 0 -19q86 -49 86 -145q0 -84 -55.5 -137t-157.5 -53q-100 0 -155.5 53t-55.5 137z M184 612q0 -33 20.5 -54t53.5 -21t54.5 21.5t21.5 53.5q0 31 -20.5 55.5t-55.5 24.5q-33 0 -53.5 -24.5t-20.5 -55.5zM190 878.5q0 -30.5 18.5 -51t49.5 -20.5t49.5 20.5t18.5 51.5q0 70 -68 69q-31 0 -49.5 -19.5t-18.5 -50z" />
<glyph unicode="9" d="M-2 -20v143h522v-143h-522zM-2 1356v143h522v-143h-522zM45 858q0 90 59.5 152.5t149.5 62.5q98 0 156.5 -59.5t58.5 -151.5q0 -84 -45 -176l-113 -260q-6 -21 -22 -21q-8 0 -19 5l-65 30q-33 12 -17 43l80 158q6 8 2 14.5t-14 1.5q-16 -4 -35 -4q-76 0 -126 55.5 t-50 149.5zM186 854q0 -88 68 -88q49 0 61 27q14 29 15 59q0 88 -72 88t-72 -86z" />
<glyph unicode=":" horiz-adv-x="313" d="M-2 -20v143h317v-143h-317zM-2 1356v143h317v-143h-317zM78 481q0 37 21.5 58.5t56 21.5t56 -21.5t21.5 -58.5q0 -35 -21.5 -55t-56 -20t-56 20t-21.5 55zM78 836q0 37 21.5 58t56 21t56 -21.5t21.5 -57.5q0 -35 -21.5 -55.5t-56 -20.5t-56 20.5t-21.5 55.5z" />
<glyph unicode=";" horiz-adv-x="313" d="M-2 -20v143h317v-143h-317zM-2 1356v143h317v-143h-317zM57 307l43 228q0 25 29 24h82q18 0 23 -13q2 -5 2 -11q0 -9 -5 -19l-84 -215q-6 -20 -26 -20h-45q-20 0 -21 15q0 5 2 11zM78 836q0 37 21.5 58t56 21t56 -21.5t21.5 -57.5q0 -35 -21.5 -55.5t-56 -20.5t-56 20.5 t-21.5 55.5z" />
<glyph unicode="&#x3c;" horiz-adv-x="1638" d="M70 711q-13 13 -13.5 26.5t13.5 26.5l1286 1286q17 17 33 17q5 0 10 -2q20 -7 20 -33v-533h221v-143h-348q-16 0 -16 16v367q0 10 -7 13t-16 -5l-989 -991q-18 -18 0 -37l989 -989q8 -8 15.5 -5t7.5 13v366q0 16 16 17h348v-144h-221v-532q0 -27 -20 -34q-5 -2 -10 -2 q-16 0 -33 18z" />
<glyph unicode="&#x3e;" horiz-adv-x="1638" d="M-2 -23v144h348q16 0 16 -17v-366q0 -10 7.5 -13.5t15.5 5.5l989 991q18 18 0 37l-989 989q-8 8 -15.5 5t-7.5 -13v-367q0 -16 -16 -16h-348v143h221v533q0 27 21 33q5 2 10 2q16 0 33 -17l1286 -1284q13 -13 13 -26.5t-13 -26.5l-1286 -1286q-17 -17 -33 -18q-5 0 -10 2 q-20 7 -21 34v532h-221z" />
<glyph unicode="?" horiz-adv-x="542" d="M-2 -20v143h547v-143h-547zM-2 1356v143h547v-143h-547zM63 870q0 92 58.5 147.5t159.5 55.5q88 0 143 -59.5t55 -122.5q0 -51 -21.5 -86t-47 -48.5t-48 -29.5t-24.5 -35l-4 -35q-2 -31 -35 -30h-51q-31 1 -35 35l-4 45q-4 47 56.5 93t60.5 79q0 61 -54 61q-55 0 -55 -70 q0 -37 -35 -36h-82q-37 -1 -37 36zM186 489q0 88 86 88.5t86 -88.5q0 -84 -86 -84t-86 84z" />
<glyph unicode="A" horiz-adv-x="610" d="M-2 -20v143h614v-143h-614zM-2 1356v143h614v-143h-614zM37 469l176 561q12 31 37 31h112q31 0 37 -31l174 -559q2 -7 3 -14q0 -20 -25 -31l-84 -27q-9 -3 -16 -3q-22 0 -29 28l-19 74q-6 16 -24 16h-158q-18 0 -22 -16l-21 -74q-7 -26 -31 -26q-6 0 -14 1l-74 25 q-26 9 -25 29q0 7 3 16zM240 659q-2 -8 2 -15t14 -7h88q23 0 18 22l-45 168q-2 10 -9 15q-4 2 -7.5 2t-7.5 -2q-8 -4 -10 -15z" />
<glyph unicode="B" horiz-adv-x="608" d="M-2 -20v143h612v-143h-612zM-2 1356v143h612v-143h-612zM94 455v569q0 37 37 37h193q96 0 154.5 -44t58.5 -128q0 -86 -80 -133q-8 -4 -8 -11.5t8 -11.5q37 -14 64.5 -52t27.5 -85q0 -78 -56.5 -128t-154.5 -50h-207q-37 0 -37 37zM250 580q0 -29 29 -29h53q29 0 46 16.5 t17 44.5q0 27 -20.5 46.5t-52.5 19.5h-43q-29 0 -29 -31v-67zM250 831q0 -31 29 -30h28q33 0 54.5 18.5t21.5 47t-17.5 45t-46.5 16.5h-40q-29 0 -29 -29v-68z" />
<glyph unicode="C" horiz-adv-x="614" d="M-2 -20v143h618v-143h-618zM-2 1356v143h618v-143h-618zM59 739.5q0 333.5 265 333.5q106 0 167.5 -57.5t67.5 -155.5q0 -37 -35 -37h-78q-37 0 -38 27q-16 90 -84 90q-109 0 -109 -200.5t109 -200.5q68 0 84 90q2 27 38 26h78q35 0 35 -37q-6 -98 -67.5 -155t-167.5 -57 q-265 0 -265 333.5z" />
<glyph unicode="D" horiz-adv-x="655" d="M-2 -20v143h659v-143h-659zM-2 1356v143h659v-143h-659zM96 455v569q0 37 35 37h184q143 0 212 -90t69 -231.5t-68.5 -231.5t-212.5 -90h-184q-35 0 -35 37zM250 580q0 -29 29 -29h36q127 0 127 188.5t-127 188.5h-36q-29 0 -29 -29v-319z" />
<glyph unicode="E" horiz-adv-x="563" d="M-2 -20v143h567v-143h-567zM-2 1356v143h567v-143h-567zM94 455v569q0 37 37 37h340q37 0 37 -37v-61q0 -35 -37 -35h-192q-29 0 -29 -29v-63q0 -31 29 -31h124q37 0 37 -35v-61q0 -35 -37 -35h-124q-29 0 -29 -33v-61q0 -29 29 -29h192q37 0 37 -35v-61q0 -37 -37 -37 h-340q-37 0 -37 37z" />
<glyph unicode="F" horiz-adv-x="538" d="M-2 -20v143h543v-143h-543zM-2 1356v143h543v-143h-543zM94 455v569q0 37 35 37h332q35 0 35 -37v-61q0 -35 -35 -35h-182q-29 0 -29 -29v-84q0 -31 29 -31h112q37 0 37 -34v-62q0 -35 -37 -35h-112q-29 0 -29 -32v-166q0 -37 -37 -37h-84q-35 0 -35 37z" />
<glyph unicode="G" horiz-adv-x="622" d="M-2 -20v143h627v-143h-627zM-2 1356v143h627v-143h-627zM59 739.5q0 333.5 265 333.5q106 0 166.5 -52t68.5 -151q0 -37 -35 -36h-78q-35 0 -38 24q-14 82 -84 82q-111 0 -111 -200.5t111 -200.5q35 0 58.5 22.5t23.5 54.5q0 29 -29 29h-47q-35 0 -35 37v49q0 37 35 37 h198q35 0 35 -37v-57q0 -268 -239 -268q-265 0 -265 333.5z" />
<glyph unicode="H" horiz-adv-x="690" d="M-2 -20v143h694v-143h-694zM-2 1356v143h694v-143h-694zM96 455v569q0 37 35 37h82q37 0 37 -37v-180q0 -39 37 -39h119q37 0 36 39v180q0 37 37 37h82q35 0 35 -37v-569q0 -37 -35 -37h-82q-37 0 -37 37v180q0 39 -36 39h-119q-37 0 -37 -39v-180q0 -37 -37 -37h-82 q-35 0 -35 37z" />
<glyph unicode="I" horiz-adv-x="483" d="M-2 -20v143h487v-143h-487zM-2 1356v143h487v-143h-487zM59 455v61q0 35 35 35h33q37 0 37 39v299q0 39 -37 39h-33q-35 0 -35 35v61q0 37 35 37h295q35 0 35 -37v-61q0 -35 -35 -35h-33q-37 0 -37 -39v-299q0 -39 37 -39h33q35 0 35 -35v-61q0 -37 -35 -37h-295 q-35 0 -35 37z" />
<glyph unicode="J" horiz-adv-x="464" d="M-2 -20v143h469v-143h-469zM-2 1356v143h469v-143h-469zM45 455v61q0 35 37 35h33q100 0 100 108v365q0 37 37 37h82q35 0 35 -37v-348q0 -117 -57.5 -187.5t-182.5 -70.5h-47q-37 0 -37 37z" />
<glyph unicode="K" horiz-adv-x="620" d="M-2 -20v143h625v-143h-625zM-2 1356v143h625v-143h-625zM94 455v569q0 37 37 37h82q37 0 37 -37v-160q0 -12 11 -16t22 6l161 207q11 15 25 15q12 0 27 -11l57 -49q33 -23 4 -51l-151 -183q-25 -27 0 -53l174 -207q11 -13 11 -24q0 -14 -18 -27l-65 -55q-13 -10 -25 -11 q-14 0 -26 15l-178 221q-8 10 -18.5 6t-10.5 -18v-174q0 -37 -37 -37h-82q-37 0 -37 37z" />
<glyph unicode="L" horiz-adv-x="530" d="M-2 -20v143h534v-143h-534zM-2 1356v143h534v-143h-534zM94 455v569q0 37 35 37h84q37 0 37 -37v-444q0 -29 29 -29h182q35 0 35 -35v-61q0 -37 -35 -37h-332q-35 0 -35 37z" />
<glyph unicode="M" horiz-adv-x="786" d="M-2 -20v143h790v-143h-790zM-2 1356v143h790v-143h-790zM96 455v569q0 37 35 37h107q27 0 41 -29l102 -268q4 -10 14.5 -10t14.5 10l100 268q12 29 39 29h106q37 0 37 -37v-569q0 -37 -37 -37h-82q-35 0 -34 37v256q0 14 -11.5 15t-15.5 -9l-47 -162q-8 -33 -35 -33h-72 q-29 0 -36 33l-46 162q-2 10 -14 9t-12 -15v-256q0 -37 -37 -37h-82q-35 0 -35 37z" />
<glyph unicode="N" horiz-adv-x="692" d="M-2 -20v143h696v-143h-696zM-2 1356v143h696v-143h-696zM96 455v569q0 37 35 37h88q37 0 53 -33l140 -291q6 -12 19 -10t13 16v281q0 37 35 37h82q37 0 37 -37v-569q0 -37 -37 -37h-88q-35 0 -53 33l-139 290q-2 6 -10.5 9.5t-14.5 -1t-6 -14.5v-280q0 -37 -37 -37h-82 q-35 0 -35 37z" />
<glyph unicode="O" horiz-adv-x="657" d="M-2 -20v143h661v-143h-661zM-2 1356v143h661v-143h-661zM59 741q0 162 69 247t202 85q131 0 199.5 -86t68.5 -246q0 -164 -68.5 -249.5t-199.5 -85.5q-133 0 -202 85.5t-69 249.5zM213 741q0 -203 117 -202q113 0 112 202q0 199 -112 199q-117 0 -117 -199z" />
<glyph unicode="P" horiz-adv-x="606" d="M-2 -20v143h610v-143h-610zM-2 1356v143h610v-143h-610zM96 455v569q0 37 35 37h217q92 0 152.5 -62.5t60.5 -148.5q0 -90 -61.5 -150.5t-145.5 -60.5h-75q-29 0 -29 -31v-153q0 -37 -37 -37h-82q-35 0 -35 37zM250 803q0 -31 29 -31h57q31 0 51.5 21.5t20.5 56.5 t-21.5 56.5t-52.5 21.5h-55q-29 0 -29 -29v-96z" />
<glyph unicode="Q" horiz-adv-x="657" d="M-2 -20v143h661v-143h-661zM-2 1356v143h661v-143h-661zM59 741q0 160 70 246t201 86t199.5 -86t68.5 -246q0 -117 -37 -196q-8 -23 4 -35l88 -88q15 -14 15 -27q0 -12 -13 -22l-59 -60q-13 -13 -26 -13t-25 13l-101 99q-14 10 -32 4q-31 -10 -82 -10q-131 0 -201 85.5 t-70 249.5zM213 741q0 -203 114.5 -202.5t114.5 202.5q0 199 -114.5 199t-114.5 -199z" />
<glyph unicode="R" horiz-adv-x="606" d="M-2 -20v143h610v-143h-610zM-2 1356v143h610v-143h-610zM96 455v569q0 37 35 37h217q92 0 152.5 -62.5t60.5 -148.5q0 -111 -86 -170q-14 -10 -6 -25l80 -166q12 -35 -17 -47l-75 -36q-9 -3 -18 -4q-21 0 -31 24l-80 195q-8 18 -25 18h-24q-29 0 -29 -31v-153 q0 -37 -37 -37h-82q-35 0 -35 37zM250 803q0 -31 29 -31h57q31 0 51.5 21.5t20.5 56.5t-21.5 56.5t-52.5 21.5h-55q-29 0 -29 -29v-96z" />
<glyph unicode="S" horiz-adv-x="579" d="M-2 -20v143h584v-143h-584zM-2 1356v143h584v-143h-584zM63 602q0 37 37 37h82q35 0 35 -37q0 -63 71.5 -63t71.5 59q0 35 -46 57.5t-101 36t-101 60.5t-46 125q0 86 56 141t164.5 55t164 -52t55.5 -142q0 -37 -35 -37h-84q-35 0 -35 37q0 61 -65 61q-68 0 -68 -57 q0 -35 46 -57.5t102.5 -36t102.5 -60.5t46 -125q0 -86 -59.5 -142t-167.5 -56q-111 0 -168.5 53t-57.5 143z" />
<glyph unicode="T" horiz-adv-x="524" d="M-2 -20v143h528v-143h-528zM-2 1356v143h528v-143h-528zM20 963v61q0 37 35 37h414q35 0 35 -37v-61q0 -35 -35 -35h-92q-37 0 -37 -39v-434q0 -37 -35 -37h-84q-37 0 -37 37v434q0 39 -37 39h-92q-35 0 -35 35z" />
<glyph unicode="U" horiz-adv-x="653" d="M-2 -20v143h657v-143h-657zM-2 1356v143h657v-143h-657zM84 1024q0 37 35 37h82q37 0 37 -37v-391q0 -43 23.5 -68.5t64.5 -25.5q43 0 67.5 25.5t24.5 68.5v391q0 37 37 37h82q35 0 34 -37v-391q0 -102 -65.5 -164.5t-179.5 -62.5q-113 0 -177.5 62t-64.5 165v391z" />
<glyph unicode="V" horiz-adv-x="610" d="M-2 -20v143h614v-143h-614zM-2 1356v143h614v-143h-614zM37 1008q-2 7 -3 13q0 20 25 30l84 28q8 2 16 3q24 0 31 -27l103 -404q2 -16 16.5 -16t18.5 16l104 404q8 27 32 27q7 0 15 -3l72 -24q26 -9 26 -30q0 -7 -4 -15l-176 -561q-8 -31 -35 -31h-114q-29 0 -35 31z" />
<glyph unicode="W" horiz-adv-x="897" d="M-2 -20v143h901v-143h-901zM-2 1356v143h901v-143h-901zM37 1008q-2 8 -2 14q0 24 28 29l87 22q33 10 43 -22l81 -338q4 -16 17.5 -16.5t17.5 16.5l66 317q4 31 35 31h92q27 0 35 -31l65 -317q4 -16 18.5 -16.5t16.5 16.5l80 338q7 28 31 28q6 0 12 -2l74 -20 q28 -7 27 -34q0 -5 -1 -11l-153 -563q-10 -31 -37 -31h-103q-27 0 -35 31l-65 301q-4 16 -18.5 16t-16.5 -16l-65 -301q-4 -31 -35 -31h-103q-27 0 -36 31z" />
<glyph unicode="X" horiz-adv-x="600" d="M-2 -20v143h604v-143h-604zM-2 1356v143h604v-143h-604zM45 502l141 207q23 29 0 57l-139 205q-10 12 -9 23q0 15 17 26l72 49q12 9 22 9q15 0 27 -17l111 -170q16 -25 35 0l108 170q11 18 26 18q11 0 25 -10l62 -43q17 -12 17 -29q0 -10 -7 -22l-139 -199q-18 -31 0 -59 l145 -211q7 -12 7 -23q0 -16 -17 -28l-72 -49q-14 -9 -24 -9q-15 0 -25 17l-115 178q-14 27 -34 0l-113 -176q-12 -16 -27 -16q-10 0 -22 8l-64 45q-18 12 -17 26q-1 11 9 23z" />
<glyph unicode="Y" horiz-adv-x="593" d="M-2 -20v143h598v-143h-598zM-2 1356v143h598v-143h-598zM35 979q-7 11 -7 21q0 16 17 28l70 45q12 7 22 7q16 0 27 -17l121 -209q16 -25 34 0l117 207q12 18 27 18q11 0 24 -10l62 -37q19 -13 19 -29q0 -11 -9 -22l-176 -285q-8 -14 -8 -30v-211q0 -37 -37 -37h-84 q-35 0 -35 26v222q0 14 -8 28z" />
<glyph unicode="Z" horiz-adv-x="569" d="M-2 -20v143h573v-143h-573zM-2 1356v143h573v-143h-573zM59 455v65q0 25 15 45l229 330q8 14 4 23.5t-20 9.5h-193q-35 0 -35 35v61q0 37 35 37h381q37 0 37 -37v-66q0 -25 -14 -45l-224 -329q-8 -14 -1.5 -23.5t22.5 -9.5h180q37 0 37 -35v-61q0 -37 -37 -37h-381 q-35 0 -35 37z" />
<glyph unicode="[" horiz-adv-x="860" d="M102 33v1413q0 53 52 53h708v-143h-590q-27 0 -26 -27v-1179q0 -27 26 -27h590v-143h-708q-52 0 -52 53z" />
<glyph unicode="]" horiz-adv-x="860" d="M-2 -20v143h590q27 0 26 27v1179q0 27 -26 27h-590v143h709q51 0 51 -53v-1413q0 -53 -51 -53h-709z" />
<glyph unicode="{" horiz-adv-x="737" d="M4 6l397 717q10 16 0 33l-397 717q-4 8 -4 13q0 13 20 13h719v-143h-463q-31 0 -16 -27l318 -573q10 -16 0 -33l-318 -573q-14 -27 16 -27h463v-143h-719q-20 0 -20 13q0 5 4 13z" />
<glyph unicode="}" horiz-adv-x="737" d="M-2 -20v143h463q31 0 16 27l-317 573q-10 16 0 33l317 573q14 27 -16 27h-463v143h719q20 0 20 -13q0 -6 -4 -13l-397 -717q-10 -16 0 -33l397 -717q4 -8 4 -13q0 -13 -20 -13h-719z" />
<glyph unicode="&#xa0;" horiz-adv-x="374" d="M-2 -20v143h379v-143h-379zM-2 1356v143h379v-143h-379z" />
<glyph unicode="&#xa1;" horiz-adv-x="307" d="M-2 -20v143h311v-143h-311zM-2 1356v143h311v-143h-311zM61 453l31 358q0 35 35 35h51q31 0 37 -35l31 -358q0 -35 -37 -35h-113q-35 0 -35 35zM68 989q0 84 86 84t86 -84q0 -41 -22.5 -64.5t-63.5 -23.5q-86 0 -86 88z" />
<glyph unicode="&#xad;" d="M-2 -20v143h522v-143h-522zM-2 1356v143h522v-143h-522zM55 657v82q0 27 31 27h344q35 0 35 -29v-82q0 -27 -31 -26h-350q-29 -1 -29 28z" />
<glyph unicode="&#xb2;" d="M-2 -20v143h522v-143h-522zM-2 1356v143h522v-143h-522zM57 451v69q0 20 21 47l215 234q33 39 33 78q0 27 -16.5 46t-47.5 19q-66 0 -65 -74q0 -31 -33 -30h-76q-31 0 -31 30q0 90 53.5 146.5t151.5 56.5q92 0 147.5 -53t55.5 -137q0 -98 -94 -181l-119 -127 q-8 -8 -4 -16t14 -8h170q33 0 33 -31v-69q0 -33 -33 -33h-344q-31 0 -31 33z" />
<glyph unicode="&#xb3;" d="M-2 -20v143h522v-143h-522zM-2 1356v143h522v-143h-522zM47 606q0 33 31 33h78q33 0 32 -29q0 -31 18.5 -51t53.5 -20q74 0 74 73q0 72 -78 72q-35 0 -35 21v79q0 23 35 23q31 0 50.5 19.5t19.5 50.5q0 29 -19.5 47t-48.5 18q-31 0 -48 -20.5t-17 -51.5q0 -29 -33 -28 h-74q-33 0 -33 30q0 90 55.5 145.5t157.5 55.5q84 0 140.5 -50t56.5 -122q0 -94 -78 -135q-6 -4 -6 -10t6 -8q90 -45 90 -144q0 -88 -59.5 -143t-155.5 -55q-98 0 -155.5 55t-57.5 145z" />
<glyph unicode="&#xb9;" d="M-2 -20v143h522v-143h-522zM-2 1356v143h522v-143h-522zM70 887q-9 13 -9 23q0 12 11 22l125 112q20 16 47 17h73q31 0 31 -33v-446q0 -31 31 -31h31q35 0 34 -31v-69q0 -33 -34 -33h-267q-33 0 -32 33v69q0 31 32 31h33q31 0 31 31v268q0 6 -3 9t-8.5 3t-9.5 -4l-28 -33 q-27 -20 -45 4z" />
<glyph unicode="&#xbf;" horiz-adv-x="542" d="M-2 -20v143h547v-143h-547zM-2 1356v143h547v-143h-547zM63 588q0 51 21.5 86t48.5 48t49.5 29.5t24.5 34.5l2 35q2 31 35 31h53q33 0 33 -35l4 -45q6 -47 -55.5 -93t-61.5 -79q0 -61 53 -61q55 0 56 69q0 37 34 37h82q37 0 37 -37q0 -92 -57 -147t-160 -55 q-88 0 -143.5 59.5t-55.5 122.5zM184 989q0 84 86 84q88 0 88 -84q0 -88 -88 -88q-41 0 -63.5 23.5t-22.5 64.5z" />
<glyph unicode="&#xc0;" horiz-adv-x="610" d="M-2 -20v143h614v-143h-614zM-2 1356v143h614v-143h-614zM37 469l176 561q12 31 37 31h112q31 0 37 -31l174 -559q2 -8 3 -14q0 -21 -25 -31l-84 -27q-9 -3 -17 -3q-21 0 -28 28l-19 72q-6 18 -24 18h-156q-23 0 -24 -18l-19 -72q-8 -27 -31 -27q-7 0 -16 2l-74 25 q-25 6 -25 29q1 7 3 16zM125 1217l33 63q9 19 25 19q10 0 22 -7l209 -123q16 -10 16 -22q0 -7 -4 -14l-14 -31q-12 -25 -43 -12l-226 84q-22 9 -22 26q0 8 4 17zM242 659q-2 -6 -2 -9q0 -13 18 -13h86q23 0 18 22l-43 168q-4 16 -18 16.5t-18 -16.5z" />
<glyph unicode="&#xc1;" horiz-adv-x="610" d="M-2 -20v143h614v-143h-614zM-2 1356v143h614v-143h-614zM37 469l176 561q12 31 37 31h112q31 0 37 -31l174 -559q2 -8 3 -14q0 -21 -25 -31l-84 -27q-9 -3 -17 -3q-21 0 -28 28l-19 72q-6 18 -24 18h-156q-23 0 -24 -18l-19 -72q-8 -27 -31 -27q-7 0 -16 2l-74 25 q-25 6 -25 29q1 7 3 16zM188 1133q-4 8 -4 14q0 13 17 22l209 123q12 7 22 7q16 0 25 -19l32 -63q4 -9 4 -17q0 -18 -22 -26l-225 -84q-31 -12 -43 12zM242 659q-2 -6 -2 -9q0 -13 18 -13h86q23 0 18 22l-43 168q-4 16 -18 16.5t-18 -16.5z" />
<glyph unicode="&#xc2;" horiz-adv-x="610" d="M-2 -20v143h614v-143h-614zM-2 1356v143h614v-143h-614zM37 469l176 561q12 31 37 31h112q31 0 37 -31l174 -559q2 -8 3 -14q0 -21 -25 -31l-84 -27q-9 -3 -17 -3q-21 0 -28 28l-19 72q-6 18 -24 18h-156q-23 0 -24 -18l-19 -72q-8 -27 -31 -27q-7 0 -16 2l-74 25 q-25 6 -25 29q1 7 3 16zM98 1143q-5 9 -5 16q0 12 11 21l160 108q17 12 35 12t37 -12l162 -108q11 -7 11 -18q0 -8 -7 -19l-19 -29q-12 -18 -34 -6l-125 53q-23 10 -45 0l-127 -53q-27 -12 -37 6zM242 659q-2 -6 -2 -9q0 -13 18 -13h86q23 0 18 22l-43 168q-4 16 -18 16.5 t-18 -16.5z" />
<glyph unicode="&#xc3;" horiz-adv-x="610" d="M-2 -20v143h614v-143h-614zM-2 1356v143h614v-143h-614zM37 469l176 561q12 31 37 31h112q31 0 37 -31l174 -559q2 -8 3 -14q0 -21 -25 -31l-84 -27q-9 -3 -17 -3q-21 0 -28 28l-19 72q-6 18 -24 18h-156q-23 0 -24 -18l-19 -72q-8 -27 -31 -27q-7 0 -16 2l-74 25 q-25 6 -25 29q1 7 3 16zM78 1186q31 53 60.5 73.5t72.5 20.5q53 0 106.5 -29.5t65.5 -29.5q33 0 57 36q14 23 49 3l25 -17q17 -12 17 -27q0 -11 -9 -24q-35 -55 -63.5 -74.5t-69.5 -19.5q-53 0 -106.5 30.5t-65.5 30.5q-31 0 -57 -37q-16 -27 -47 -2l-27 15q-17 12 -17 27 q0 11 9 24zM242 659q-2 -6 -2 -9q0 -13 18 -13h86q23 0 18 22l-43 168q-4 16 -18 16.5t-18 -16.5z" />
<glyph unicode="&#xc4;" horiz-adv-x="610" d="M-2 -20v143h614v-143h-614zM-2 1356v143h614v-143h-614zM37 469l176 561q12 31 37 31h112q31 0 37 -31l174 -559q2 -8 3 -14q0 -21 -25 -31l-84 -27q-9 -3 -17 -3q-21 0 -28 28l-19 72q-6 18 -24 18h-156q-23 0 -24 -18l-19 -72q-8 -27 -31 -27q-7 0 -16 2l-74 25 q-25 6 -25 29q1 7 3 16zM82 1194q0 39 22.5 62.5t63.5 23.5t64.5 -22.5t23.5 -63.5t-23.5 -63.5t-64.5 -22.5t-63.5 23.5t-22.5 62.5zM242 659q-2 -6 -2 -9q0 -13 18 -13h86q23 0 18 22l-43 168q-4 16 -18 16.5t-18 -16.5zM348 1194q0 39 22.5 62.5t63.5 23.5t64.5 -22.5 t23.5 -63.5t-23.5 -63.5t-64.5 -22.5t-63.5 23.5t-22.5 62.5z" />
<glyph unicode="&#xc5;" horiz-adv-x="610" d="M-2 -20v143h614v-143h-614zM-2 1356v143h614v-143h-614zM37 469l176 561q0 6 4 10q-51 35 -51 105q0 57 37 90t96 33q61 0 98 -33t37 -90q0 -63 -43 -96q4 -6 8 -19l174 -559q2 -8 3 -14q0 -21 -25 -31l-84 -27q-9 -4 -17 -3q-21 0 -28 28l-19 72q-6 18 -24 18h-156 q-23 0 -24 -18l-19 -72q-8 -27 -31 -27q-7 0 -16 2l-74 25q-25 6 -25 29q1 7 3 16zM242 659q-2 -6 -2 -9q0 -13 18 -13h86q22 0 18 22l-43 168q-4 16 -18 16.5t-18 -16.5zM256 1145q0 -43 45 -43q43 0 43 43t-43 43q-45 0 -45 -43z" />
<glyph unicode="&#xc6;" horiz-adv-x="903" d="M-2 -20v143h907v-143h-907zM-2 1356v143h907v-143h-907zM29 502l331 526q20 33 56 33h395q35 0 35 -37v-61q0 -35 -35 -35h-193q-29 0 -28 -29v-63q0 -31 28 -31h125q35 0 35 -35v-61q0 -35 -35 -35h-125q-29 0 -28 -33v-61q0 -29 28 -29h193q35 0 35 -35v-61 q0 -37 -35 -37h-340q-37 0 -37 37v51q0 29 -28 29h-162q-27 0 -41 -23l-51 -88q-13 -20 -28 -20q-9 0 -20 8l-65 41q-17 12 -18 28q1 10 8 21zM305 668q4 -10 19 -11h82q29 0 28 29v172q0 12 -10 13q-1 0 -2 1q-9 0 -14 -10l-101 -174q-4 -6 -3 -12q-1 -4 1 -8z" />
<glyph unicode="&#xc7;" horiz-adv-x="614" d="M-2 -20v143h618v-143h-618zM-2 1356v143h618v-143h-618zM59 739q0 334 265 334q106 0 166 -57q67 -64 67 -163q0 -30 -33 -30h-78q-37 0 -38 27q-18 90 -84 90q-111 0 -111 -200.5t111 -200.5q66 0 84 90q2 27 38 26h78q33 0 33 -30q0 -90 -57 -153q-51 -56 -140 -64 q-6 -10 -6 -15q0 -12 21.5 -20t44 -27.5t22.5 -58.5q0 -43 -33.5 -73t-85 -30t-102.5 37q-25 20 -6 45l14 21q18 33 45 8q20 -16 41 -16t21 16q0 8 -34 24.5t-34 40.5q0 20 19 48q-228 20 -228 331z" />
<glyph unicode="&#xc8;" horiz-adv-x="563" d="M-2 -20v143h567v-143h-567zM-2 1356v143h567v-143h-567zM94 455v569q0 37 37 37h342q35 0 35 -37v-61q0 -35 -35 -35h-194q-29 0 -29 -29v-63q0 -31 29 -31h124q37 0 37 -35v-61q0 -35 -37 -35h-124q-29 0 -29 -33v-61q0 -29 29 -29h194q35 0 35 -35v-61q0 -37 -35 -37 h-342q-37 0 -37 37zM125 1217l33 63q9 19 25 19q10 0 22 -7l209 -123q16 -10 16 -22q0 -7 -4 -14l-14 -31q-8 -16 -25 -17q-8 0 -18 5l-226 84q-22 9 -22 26q0 8 4 17z" />
<glyph unicode="&#xc9;" horiz-adv-x="563" d="M-2 -20v143h567v-143h-567zM-2 1356v143h567v-143h-567zM94 455v569q0 37 37 37h342q35 0 35 -37v-61q0 -35 -35 -35h-194q-29 0 -29 -29v-63q0 -31 29 -31h124q37 0 37 -35v-61q0 -35 -37 -35h-124q-29 0 -29 -33v-61q0 -29 29 -29h194q35 0 35 -35v-61q0 -37 -35 -37 h-342q-37 0 -37 37zM152 1133q-4 8 -5 14q0 13 17 22l209 123q12 7 22 7q16 0 25 -19l33 -63q4 -9 3 -17q0 -18 -22 -26l-225 -84q-10 -4 -19 -5q-16 0 -24 17z" />
<glyph unicode="&#xca;" horiz-adv-x="563" d="M-2 -20v143h567v-143h-567zM-2 1356v143h567v-143h-567zM94 455v569q0 37 37 37h342q35 0 35 -37v-61q0 -35 -35 -35h-194q-29 0 -29 -29v-63q0 -31 29 -31h124q37 0 37 -35v-61q0 -35 -37 -35h-124q-29 0 -29 -33v-61q0 -29 29 -29h194q35 0 35 -35v-61q0 -37 -35 -37 h-342q-37 0 -37 37zM98 1143q-5 9 -5 16q0 12 11 21l160 108q17 12 35 12t37 -12l162 -108q11 -7 11 -18q0 -8 -7 -19l-19 -29q-7 -11 -18 -11q-7 0 -16 5l-125 53q-23 10 -45 0l-127 -53q-11 -5 -19 -5q-12 0 -18 11z" />
<glyph unicode="&#xcb;" horiz-adv-x="563" d="M-2 -20v143h567v-143h-567zM-2 1356v143h567v-143h-567zM80 1194q0 39 23.5 62.5t62.5 23.5q41 0 64.5 -22.5t23.5 -63.5t-23.5 -63.5t-64.5 -22.5q-39 0 -62.5 23.5t-23.5 62.5zM94 455v569q0 37 37 37h342q35 0 35 -37v-61q0 -35 -35 -35h-194q-29 0 -29 -29v-63 q0 -31 29 -31h124q37 0 37 -35v-61q0 -35 -37 -35h-124q-29 0 -29 -33v-61q0 -29 29 -29h194q35 0 35 -35v-61q0 -37 -35 -37h-342q-37 0 -37 37zM346 1194q0 39 23.5 62.5t62.5 23.5q41 0 64.5 -22.5t23.5 -63.5t-23.5 -63.5t-64.5 -22.5q-39 0 -62.5 23.5t-23.5 62.5z" />
<glyph unicode="&#xcc;" horiz-adv-x="483" d="M-2 -20v143h487v-143h-487zM-2 1356v143h487v-143h-487zM59 455v61q0 35 35 35h33q37 0 37 39v299q0 39 -37 39h-33q-35 0 -35 35v61q0 37 35 37h293q35 0 35 -37v-61q0 -35 -35 -35h-33q-37 0 -37 -39v-299q0 -39 37 -39h33q35 0 35 -35v-61q0 -37 -35 -37h-293 q-35 0 -35 37zM74 1217l32 63q9 19 26 19q10 0 22 -7l208 -123q16 -10 17 -22q0 -7 -4 -14l-15 -31q-8 -16 -24 -17q-8 0 -19 5l-225 84q-22 9 -22 26q0 8 4 17z" />
<glyph unicode="&#xcd;" horiz-adv-x="483" d="M-2 -20v143h487v-143h-487zM-2 1356v143h487v-143h-487zM59 455v61q0 35 35 35h33q37 0 37 39v299q0 39 -37 39h-33q-35 0 -35 35v61q0 37 35 37h293q35 0 35 -37v-61q0 -35 -35 -35h-33q-37 0 -37 -39v-299q0 -39 37 -39h33q35 0 35 -35v-61q0 -37 -35 -37h-293 q-35 0 -35 37zM111 1133q-4 8 -5 14q0 13 17 22l209 123q12 7 22 7q16 0 25 -19l33 -63q4 -9 3 -17q0 -18 -22 -26l-225 -84q-10 -4 -18 -5q-16 0 -25 17z" />
<glyph unicode="&#xce;" horiz-adv-x="483" d="M-2 -20v143h487v-143h-487zM-2 1356v143h487v-143h-487zM41 1143q-5 9 -5 16q0 12 11 21l160 108q17 12 35 12t37 -12l161 -108q11 -7 12 -18q0 -8 -8 -19l-18 -29q-12 -18 -35 -6l-125 53q-23 10 -45 0l-127 -53q-27 -12 -37 6zM59 455v61q0 35 35 35h33q37 0 37 39v299 q0 39 -37 39h-33q-35 0 -35 35v61q0 37 35 37h293q35 0 35 -37v-61q0 -35 -35 -35h-33q-37 0 -37 -39v-299q0 -39 37 -39h33q35 0 35 -35v-61q0 -37 -35 -37h-293q-35 0 -35 37z" />
<glyph unicode="&#xcf;" horiz-adv-x="483" d="M-2 -20v143h487v-143h-487zM-2 1356v143h487v-143h-487zM23 1194q0 39 23.5 62.5t62.5 23.5q41 0 64.5 -23.5t23.5 -62.5t-23.5 -62.5t-64.5 -23.5q-39 0 -62.5 23.5t-23.5 62.5zM59 455v61q0 35 35 35h33q37 0 37 39v299q0 39 -37 39h-33q-35 0 -35 35v61q0 37 35 37 h293q35 0 35 -37v-61q0 -35 -35 -35h-33q-37 0 -37 -39v-299q0 -39 37 -39h33q35 0 35 -35v-61q0 -37 -35 -37h-293q-35 0 -35 37zM289 1194q0 39 23.5 62.5t62.5 23.5q41 0 64.5 -23.5t23.5 -62.5t-23.5 -62.5t-64.5 -23.5q-39 0 -62.5 23.5t-23.5 62.5z" />
<glyph unicode="&#xd0;" horiz-adv-x="655" d="M-2 -20v143h659v-143h-659zM-2 1356v143h659v-143h-659zM20 717v51q0 35 37 35h37v221q0 37 37 37h184q143 0 212 -90t69 -231.5t-68.5 -231.5t-212.5 -90h-184q-37 0 -37 37v227h-37q-37 0 -37 35zM250 580q0 -29 29 -29h34q129 0 129 188.5t-129 188.5h-34 q-29 0 -29 -29v-96h63q37 0 37 -35v-51q0 -35 -37 -35h-63v-102z" />
<glyph unicode="&#xd1;" horiz-adv-x="692" d="M-2 -20v143h696v-143h-696zM-2 1356v143h696v-143h-696zM94 455v569q0 37 37 37h86q41 0 53 -33l142 -291q6 -12 18 -10t12 16v281q0 37 35 37h84q37 0 37 -37v-569q0 -37 -37 -37h-88q-35 0 -53 33l-139 290q-4 6 -11.5 9.5t-13.5 -1t-6 -14.5v-280q0 -37 -37 -37h-82 q-37 0 -37 37zM123 1186q31 53 60.5 73.5t72.5 20.5q53 0 106.5 -29.5t65.5 -29.5q33 0 57 36q14 23 50 3l24 -17q17 -12 17 -27q0 -11 -9 -24q-35 -55 -63.5 -74.5t-69.5 -19.5q-53 0 -106.5 30.5t-65.5 30.5q-31 0 -57 -37q-16 -27 -47 -2l-27 15q-17 12 -17 27q0 11 9 24 z" />
<glyph unicode="&#xd2;" horiz-adv-x="657" d="M-2 -20v143h661v-143h-661zM-2 1356v143h661v-143h-661zM59 741q0 162 69 247t202 85q131 0 199.5 -86t68.5 -246q0 -164 -68.5 -249.5t-199.5 -85.5q-133 0 -202 85.5t-69 249.5zM166 1217l33 63q9 19 25 19q10 0 22 -7l209 -123q16 -10 16 -22q0 -7 -4 -14l-14 -31 q-12 -25 -43 -12l-226 84q-22 9 -22 26q0 8 4 17zM213 741q0 -203 117 -202q113 0 112 202q0 199 -112 199q-117 0 -117 -199z" />
<glyph unicode="&#xd3;" horiz-adv-x="657" d="M-2 -20v143h661v-143h-661zM-2 1356v143h661v-143h-661zM59 741q0 162 69 247t202 85q131 0 199.5 -86t68.5 -246q0 -164 -68.5 -249.5t-199.5 -85.5q-133 0 -202 85.5t-69 249.5zM190 1133q-4 8 -4 14q0 13 17 22l209 123q12 7 22 7q16 0 25 -19l33 -63q4 -9 3 -17 q0 -18 -22 -26l-225 -84q-31 -12 -43 12zM213 741q0 -203 117 -202q113 0 112 202q0 199 -112 199q-117 0 -117 -199z" />
<glyph unicode="&#xd4;" horiz-adv-x="657" d="M-2 -20v143h661v-143h-661zM-2 1356v143h661v-143h-661zM59 741q0 162 69 247t202 85q131 0 199.5 -86t68.5 -246q0 -164 -68.5 -249.5t-199.5 -85.5q-133 0 -202 85.5t-69 249.5zM127 1143q-5 9 -5 16q0 12 11 21l160 108q17 12 35 12t37 -12l161 -108q11 -7 12 -18 q0 -8 -8 -19l-18 -29q-12 -18 -35 -6l-125 53q-23 10 -45 0l-127 -53q-27 -12 -37 6zM213 741q0 -203 117 -202q113 0 112 202q0 199 -112 199q-117 0 -117 -199z" />
<glyph unicode="&#xd5;" horiz-adv-x="657" d="M-2 -20v143h661v-143h-661zM-2 1356v143h661v-143h-661zM59 741q0 162 69 247t202 85q131 0 199.5 -86t68.5 -246q0 -164 -68.5 -249.5t-199.5 -85.5q-133 0 -202 85.5t-69 249.5zM104 1186q31 53 61 73.5t73 20.5q53 0 106 -29.5t66 -29.5q33 0 57 36q14 23 49 3l25 -17 q17 -12 16 -27q0 -11 -8 -24q-35 -55 -63.5 -74.5t-69.5 -19.5q-53 0 -106.5 30.5t-65.5 30.5q-31 0 -58 -37q-16 -27 -47 -2l-26 15q-17 12 -17 27q-1 11 8 24zM213 741q0 -203 117 -202q113 0 112 202q0 199 -112 199q-117 0 -117 -199z" />
<glyph unicode="&#xd6;" horiz-adv-x="657" d="M-2 -20v143h661v-143h-661zM-2 1356v143h661v-143h-661zM59 741q0 162 69 247t202 85q131 0 199.5 -86t68.5 -246q0 -164 -68.5 -250t-199.5 -86q-133 0 -202 86t-69 250zM109 1194q0 39 23.5 62.5t62.5 23.5q41 0 64.5 -22.5t23.5 -63.5t-23.5 -63.5t-64.5 -22.5 q-39 0 -62.5 23.5t-23.5 62.5zM213 741q0 -203 117 -202q113 0 112 202q0 199 -112 199q-117 0 -117 -199zM375 1194q0 39 23.5 62.5t62.5 23.5q41 0 64.5 -22.5t23.5 -63.5t-23.5 -63.5t-64.5 -22.5q-39 0 -62.5 23.5t-23.5 62.5z" />
<glyph unicode="&#xd8;" horiz-adv-x="657" d="M-2 -20v143h661v-143h-661zM-2 1356v143h661v-143h-661zM59 741q0 162 69 247t202 85q55 0 92 -14l35 74q11 23 29 22q8 0 18 -4l26 -12q35 -16 19 -49l-39 -82q88 -84 88 -267q0 -164 -68.5 -249.5t-199.5 -85.5q-55 0 -94 12l-35 -74q-11 -21 -29 -21q-8 0 -18 5 l-27 12q-33 16 -18 47l38 82q-88 86 -88 272zM213 741q0 -59 10 -106l142 299q-16 6 -35 6q-117 0 -117 -199zM293 543q12 -4 37 -4q113 0 112 202q0 53 -10 99z" />
<glyph unicode="&#xd9;" horiz-adv-x="653" d="M-2 -20v143h657v-143h-657zM-2 1356v143h657v-143h-657zM84 1024q0 37 35 37h82q37 0 37 -37v-391q0 -43 23.5 -68.5t64.5 -25.5q43 0 67.5 25.5t24.5 68.5v391q0 37 37 37h82q35 0 34 -37v-391q0 -102 -65.5 -164.5t-179.5 -62.5q-113 0 -177.5 62t-64.5 165v391z M125 1217l33 63q9 19 25 19q10 0 22 -7l209 -123q16 -10 16 -22q0 -7 -4 -14l-14 -31q-8 -16 -25 -17q-8 0 -18 5l-226 84q-22 9 -22 26q0 8 4 17z" />
<glyph unicode="&#xda;" horiz-adv-x="653" d="M-2 -20v143h657v-143h-657zM-2 1356v143h657v-143h-657zM84 1024q0 37 35 37h82q37 0 37 -37v-391q0 -43 23.5 -68.5t64.5 -25.5q43 0 67.5 25.5t24.5 68.5v391q0 37 37 37h82q35 0 34 -37v-391q0 -102 -65.5 -164.5t-179.5 -62.5q-113 0 -177.5 62t-64.5 165v391z M229 1133q-4 8 -4 14q0 13 17 22l209 123q12 7 22 7q16 0 25 -19l32 -63q4 -9 4 -17q0 -18 -22 -26l-225 -84q-10 -4 -19 -5q-16 0 -24 17z" />
<glyph unicode="&#xdb;" horiz-adv-x="653" d="M-2 -20v143h657v-143h-657zM-2 1356v143h657v-143h-657zM84 1024q0 37 35 37h82q37 0 37 -37v-391q0 -43 23.5 -68.5t64.5 -25.5q43 0 67.5 25.5t24.5 68.5v391q0 37 37 37h82q35 0 34 -37v-391q0 -102 -65.5 -164.5t-179.5 -62.5q-113 0 -177.5 62t-64.5 165v391z M125 1143q-5 9 -5 16q0 12 11 21l160 108q17 12 35 12t36 -12l162 -108q11 -7 12 -18q0 -8 -8 -19l-18 -29q-7 -11 -18 -11q-7 0 -17 5l-125 53q-23 10 -45 0l-127 -53q-11 -5 -19 -5q-12 0 -18 11z" />
<glyph unicode="&#xdc;" horiz-adv-x="653" d="M-2 -20v143h657v-143h-657zM-2 1356v143h657v-143h-657zM84 1024q0 37 35 37h82q37 0 37 -37v-391q0 -43 23.5 -68.5t64.5 -25.5q43 0 67.5 25.5t24.5 68.5v391q0 37 37 37h82q35 0 34 -37v-391q0 -102 -65.5 -164.5t-179.5 -62.5q-113 0 -177.5 62t-64.5 165v391z M104 1194q0 39 24 62.5t62 23.5q41 0 65 -22.5t24 -63.5t-24 -63.5t-65 -22.5q-39 0 -62.5 23.5t-23.5 62.5zM371 1194q0 39 23.5 62.5t62.5 23.5q41 0 64.5 -22.5t23.5 -63.5t-23.5 -63.5t-64.5 -22.5q-39 0 -62.5 23.5t-23.5 62.5z" />
<glyph unicode="&#xdd;" horiz-adv-x="593" d="M-2 -20v143h598v-143h-598zM-2 1356v143h598v-143h-598zM37 977q-9 12 -9 23q0 15 17 28l70 43q31 20 51 -8l119 -209q18 -27 34 0l117 207q23 29 51 8l64 -39q18 -12 18 -26q0 -11 -10 -23l-176 -287q-8 -16 -8 -28v-211q0 -37 -37 -37h-82q-35 0 -35 26v222 q0 12 -10 28zM209 1133q-4 8 -4 14q0 13 16 22l209 123q12 7 22 7q16 0 25 -19l33 -63q4 -9 3 -17q0 -18 -21 -26l-226 -84q-10 -4 -18 -5q-16 0 -25 17z" />
<glyph unicode="&#xde;" horiz-adv-x="606" d="M-2 -20v143h610v-143h-610zM-2 1356v143h610v-143h-610zM94 455v569q0 37 37 37h82q37 0 37 -37v-43q0 -31 29 -31h69q92 0 152.5 -62.5t60.5 -148.5q0 -90 -61.5 -150.5t-145.5 -60.5h-75q-29 0 -29 -30v-43q0 -37 -37 -37h-82q-37 0 -37 37zM250 690q0 -29 29 -28h55 q33 0 53.5 21.5t20.5 56t-21.5 56t-52.5 21.5h-55q-29 0 -29 -29v-98z" />
<glyph unicode="&#x152;" horiz-adv-x="913" d="M-2 -20v143h917v-143h-917zM-2 1356v143h917v-143h-917zM59 741q0 160 59.5 246t174.5 86q86 0 135 -49q14 -18 14 2v4q0 31 37 31h340q37 0 37 -37v-61q0 -35 -37 -35h-192q-29 0 -29 -29v-63q0 -31 29 -31h127q35 0 34 -35v-61q0 -35 -34 -35h-127q-29 0 -29 -33v-61 q0 -29 29 -29h192q37 0 37 -35v-61q0 -37 -37 -37h-340q-37 0 -37 31v4q0 16 -14 2q-49 -49 -135 -49q-234 -1 -234 335zM213 741q0 -203 117 -202q113 0 112 202q0 199 -112 199q-117 0 -117 -199z" />
<glyph unicode="&#x178;" horiz-adv-x="593" d="M-2 -20v143h598v-143h-598zM-2 1356v143h598v-143h-598zM37 977q-9 12 -9 23q0 15 17 28l70 43q31 20 51 -8l119 -209q18 -27 34 0l117 207q23 29 51 8l64 -39q18 -12 18 -26q0 -11 -10 -23l-176 -287q-8 -16 -8 -28v-211q0 -37 -37 -37h-82q-35 0 -35 26v222 q0 12 -10 28zM82 1194q0 39 22.5 62.5t63.5 23.5t64.5 -22.5t23.5 -63.5t-23.5 -63.5t-64.5 -22.5t-63.5 23.5t-22.5 62.5zM348 1194q0 39 22.5 62.5t63.5 23.5t64.5 -22.5t23.5 -63.5t-23.5 -63.5t-64.5 -22.5t-63.5 23.5t-22.5 62.5z" />
<glyph unicode="&#x2000;" horiz-adv-x="1032" />
<glyph unicode="&#x2001;" horiz-adv-x="2066" />
<glyph unicode="&#x2002;" horiz-adv-x="1032" />
<glyph unicode="&#x2003;" horiz-adv-x="2066" />
<glyph unicode="&#x2004;" horiz-adv-x="688" />
<glyph unicode="&#x2005;" horiz-adv-x="516" />
<glyph unicode="&#x2006;" horiz-adv-x="344" />
<glyph unicode="&#x2007;" horiz-adv-x="344" />
<glyph unicode="&#x2008;" horiz-adv-x="258" />
<glyph unicode="&#x2009;" horiz-adv-x="411" />
<glyph unicode="&#x200a;" horiz-adv-x="114" />
<glyph unicode="&#x2010;" d="M-2 -20v143h522v-143h-522zM-2 1356v143h522v-143h-522zM55 657v82q0 27 31 27h344q35 0 35 -29v-82q0 -27 -31 -26h-350q-29 -1 -29 28z" />
<glyph unicode="&#x2011;" d="M-2 -20v143h522v-143h-522zM-2 1356v143h522v-143h-522zM55 657v82q0 27 31 27h344q35 0 35 -29v-82q0 -27 -31 -26h-350q-29 -1 -29 28z" />
<glyph unicode="&#x2012;" d="M-2 -20v143h522v-143h-522zM-2 1356v143h522v-143h-522zM55 657v82q0 27 31 27h344q35 0 35 -29v-82q0 -27 -31 -26h-350q-29 -1 -29 28z" />
<glyph unicode="&#x2013;" horiz-adv-x="1024" d="M-2 -20v1519h1028v-1519h-1028z" />
<glyph unicode="&#x2014;" horiz-adv-x="2048" d="M-2 -20v1519h2052v-1519h-2052z" />
<glyph unicode="&#x2026;" horiz-adv-x="940" d="M-2 -20v143h317v-143h-317zM-2 1356v143h317v-143h-317zM78 481q0 37 21.5 58.5t56 21.5t56 -21.5t21.5 -58.5q0 -35 -21.5 -55t-56 -20t-56 20t-21.5 55zM311 -20v143h318v-143h-318zM311 1356v143h318v-143h-318zM391 481q0 37 21.5 58.5t56.5 21.5t56.5 -21.5 t21.5 -58.5q0 -35 -21.5 -55t-56.5 -20t-56.5 20t-21.5 55zM625 -20v143h317v-143h-317zM625 1356v143h317v-143h-317zM705 481q0 37 21.5 58.5t56 21.5t56 -21.5t21.5 -58.5q0 -35 -21.5 -55t-56 -20t-56 20t-21.5 55z" />
<glyph unicode="&#x202f;" horiz-adv-x="411" />
<glyph unicode="&#x2039;" horiz-adv-x="1638" d="M70 711q-13 13 -13.5 26.5t13.5 26.5l1286 1286q17 17 33 17q5 0 10 -2q20 -7 20 -33v-533h221v-143h-348q-16 0 -16 16v367q0 10 -7 13t-16 -5l-989 -991q-18 -18 0 -37l989 -989q8 -8 15.5 -5t7.5 13v366q0 16 16 17h348v-144h-221v-532q0 -27 -20 -34q-5 -2 -10 -2 q-16 0 -33 18z" />
<glyph unicode="&#x203a;" horiz-adv-x="1638" d="M-2 -23v144h348q16 0 16 -17v-366q0 -10 7.5 -13.5t15.5 5.5l989 991q18 18 0 37l-989 989q-8 8 -15.5 5t-7.5 -13v-367q0 -16 -16 -16h-348v143h221v533q0 27 21 33q5 2 10 2q16 0 33 -17l1286 -1284q13 -13 13 -26.5t-13 -26.5l-1286 -1286q-17 -17 -33 -18q-5 0 -10 2 q-20 7 -21 34v532h-221z" />
<glyph unicode="&#x205f;" horiz-adv-x="516" />
<glyph unicode="&#x2122;" horiz-adv-x="1310" d="M-2 -20v143h528v-143h-528zM-2 1356v143h528v-143h-528zM20 963v61q0 37 35 37h414q35 0 35 -37v-61q0 -35 -35 -35h-92q-37 0 -37 -39v-434q0 -37 -35 -37h-84q-37 0 -37 37v434q0 39 -37 39h-92q-35 0 -35 35zM522 -20v143h791v-143h-791zM522 1356v143h791v-143h-791z M621 455v569q0 37 34 37h107q27 0 41 -29l102 -268q4 -10 14.5 -10t14.5 10l100 268q12 29 39 29h107q37 0 37 -37v-569q0 -37 -37 -37h-82q-35 0 -35 37v256q0 14 -11.5 15t-15.5 -9l-47 -162q-8 -33 -35 -33h-71q-29 0 -37 33l-45 162q-2 10 -14.5 9t-12.5 -15v-256 q0 -37 -37 -37h-82q-34 0 -34 37z" />
<glyph unicode="&#xe000;" horiz-adv-x="500" d="M0 0v0v0v0v0z" />
<glyph horiz-adv-x="0" />
</font>
</defs>
</svg>
