<?xml version="1.0" standalone="no"?>
<!DOCTYPE svg PUBLIC "-//W3C//DTD SVG 1.1//EN" "http://www.w3.org/Graphics/SVG/1.1/DTD/svg11.dtd" >
<svg xmlns="http://www.w3.org/2000/svg">
<metadata>
This is a custom SVG webfont generated by Font Squirrel.
Copyright   : Copyright c 2007 by Tomas Brousil All rights reserved
Designer    : Tomas Brousil
Foundry     : Tomas Brousil
Foundry URL : httpwwwsuitcasetypecom
</metadata>
<defs>
<font id="KatarineStdBold" horiz-adv-x="933" >
<font-face units-per-em="2048" ascent="1638" descent="-410" />
<missing-glyph horiz-adv-x="512" />
<glyph unicode=" "  horiz-adv-x="512" />
<glyph unicode="&#x09;" horiz-adv-x="512" />
<glyph unicode="&#xa0;" horiz-adv-x="512" />
<glyph unicode="!" horiz-adv-x="565" d="M102 1411q0 68 68 68h225q68 0 68 -68l-62 -887q-6 -68 -67 -67h-103q-61 0 -67 67zM109 156q0 80 47 127t126.5 47t127 -47t47.5 -127t-47.5 -127t-127 -47t-126.5 47t-47 127z" />
<glyph unicode="&#x22;" horiz-adv-x="886" d="M104 1415q-4 63 58 64h172q61 0 57 -64l-47 -487q-4 -57 -61 -58h-70q-55 0 -61 58zM496 1415q-4 63 57 64h172q61 0 57 -64l-47 -487q-4 -57 -61 -58h-70q-55 0 -61 58z" />
<glyph unicode="#" horiz-adv-x="1476" d="M41 424v111q0 68 68 67h147q45 0 55 41l45 195q4 14 -6 26q-10 10 -24 10h-97q-68 0 -67 68v111q0 68 67 67h148q45 0 55 41l68 293q13 52 57 53q11 0 25 -4l137 -30q53 -12 53 -60q0 -9 -2 -20l-53 -236q-4 -14 6 -25.5t25 -11.5h153q45 0 55 41l68 293q13 52 58 53 q11 0 24 -4l137 -30q53 -12 53 -60q0 -9 -2 -20l-53 -236q-4 -14 6 -25.5t25 -11.5h96q68 0 68 -67v-111q0 -68 -68 -68h-147q-45 0 -56 -40l-45 -195q-4 -14 6.5 -25.5t24.5 -11.5h96q68 0 68 -67v-111q0 -68 -68 -68h-147q-45 0 -56 -41l-67 -292q-13 -52 -58 -53 q-11 0 -24 3l-137 31q-53 12 -53 60q0 9 2 20l53 235q4 14 -6.5 25.5t-24.5 11.5h-154q-45 0 -55 -41l-67 -292q-13 -52 -58 -53q-11 0 -24 3l-138 31q-53 12 -53 60q0 9 2 20l54 235q4 14 -6.5 25.5t-24.5 11.5h-96q-68 0 -68 68zM596 639q-1 -4 -1 -8q0 -10 7 -18 q10 -11 25 -11h153q45 0 56 41l45 195q1 4 1 8q0 10 -8 17q-10 11 -24 11h-154q-45 0 -55 -40z" />
<glyph unicode="$" horiz-adv-x="1165" d="M102 440q0 68 68 68h164q68 0 67 -68q0 -86 51.5 -132t127.5 -46q86 0 135 43t49 109q0 57 -37 96t-95.5 61.5t-128 43t-140 50t-129 74.5t-95.5 127t-37 195q0 150 91.5 264.5t244.5 155.5v196q0 68 68 68h164q68 0 67 -68v-196q164 -41 245 -164t81 -279q0 -68 -68 -67 h-164q-68 0 -67 67q0 86 -51 132.5t-127 46.5q-86 0 -135.5 -43.5t-49.5 -108.5q0 -57 37 -96t95.5 -61.5t129 -43t140 -50.5t128 -75t95.5 -127t37 -194q0 -145 -88 -260t-238 -158v-199q0 -68 -67 -67h-164q-68 0 -68 67v195q-172 37 -254 160.5t-82 283.5z" />
<glyph unicode="%" horiz-adv-x="1454" d="M61 971v286q0 111 73 175.5t200 64.5t199.5 -64.5t72.5 -175.5v-286q0 -119 -75.5 -180.5t-196.5 -61.5q-125 0 -199 63.5t-74 178.5zM240 123l778 1347q21 37 52 38q18 0 40 -13l80 -47q37 -21 37 -54q0 -17 -10 -38l-779 -1346q-22 -37 -53 -37q-19 0 -41 13l-80 45 q-37 22 -37 53q0 18 13 39zM276 987q0 -53 57.5 -53t57.5 53v254q0 51 -57.5 51t-57.5 -51v-254zM848 231v287q0 111 72.5 175.5t199.5 64.5t200 -64.5t73 -175.5v-287q0 -119 -76 -180t-197 -61q-125 0 -198.5 63t-73.5 178zM1063 248q0 -53 57.5 -53t57.5 53v254 q0 51 -57.5 51t-57.5 -51v-254z" />
<glyph unicode="&#x26;" horiz-adv-x="1378" d="M82 399q0 117 60.5 211.5t168.5 141.5q35 14 4 45l-49 49q-90 90 -90 246q0 174 129 290.5t305 116.5q166 0 300 -111.5t134 -297.5q0 -109 -76.5 -196t-160.5 -120q-29 -10 -29 -25q0 -9 10 -20l109 -106q25 -25 50 -26q24 0 46 24l135 135q23 23 47 23q25 0 50 -25 l75 -76q24 -24 24 -48t-24 -48l-133 -133q-24 -23 -24 -48t26 -51l142 -141q25 -25 24.5 -49t-24.5 -47l-107 -107q-25 -24 -48.5 -23.5t-47.5 23.5l-141 141q-25 25 -51 26l-48 -23l-59 -60q-100 -111 -301 -110q-195 0 -310.5 113t-115.5 306zM383 379q0 -70 41 -105.5 t106 -35.5q80 0 148 67l18 19q25 25 25 48q0 25 -27 48l-125 125q-12 12 -29 12q-14 0 -30 -8q-127 -72 -127 -170zM475 1096q0 -53 45 -99l51 -51q13 -13 30 -13q13 0 28 9q117 68 116 154q0 53 -34.5 89t-102.5 36q-63 0 -98 -33t-35 -92z" />
<glyph unicode="'" horiz-adv-x="495" d="M104 1415q-4 63 58 64h172q61 0 57 -64l-47 -487q-4 -57 -61 -58h-70q-55 0 -61 58z" />
<glyph unicode="(" horiz-adv-x="620" d="M82 739q0 561 242 981q22 37 52 38q18 0 40 -13l127 -72q36 -22 36 -53q0 -18 -12 -39q-199 -360 -198.5 -841.5t198.5 -841.5q12 -21 12 -39q0 -31 -36 -54l-127 -71q-21 -13 -40 -13q-31 0 -52 37q-242 420 -242 981z" />
<glyph unicode=")" horiz-adv-x="620" d="M53 -102q199 360 199 841.5t-199 841.5q-12 21 -12 39q0 31 37 53l127 72q21 13 39 13q31 0 53 -38q242 -420 242 -981t-242 -981q-22 -37 -53 -37q-18 0 -39 13l-127 71q-36 22 -37 54q0 18 12 39z" />
<glyph unicode="*" horiz-adv-x="745" d="M51 1061q-7 13 -7 25q0 21 24 36l104 31q16 4 16 24.5t-16 24.5l-102 35q-26 13 -26 34q0 12 9 27l56 97q15 26 35 25q12 0 26 -9l80 -72q14 -14 30.5 -3.5t12.5 28.5l-23 106q0 45 45 46h115q45 0 45 -46l-20 -102q-6 -20 11 -30.5t32 3.5l77 70q14 9 26 9q20 0 36 -25 l55 -97q9 -15 9 -27q0 -21 -25 -34l-103 -35q-16 -4 -16 -24.5t16 -24.5l105 -31q24 -16 24 -36q0 -12 -8 -25l-57 -103q-17 -29 -36 -29q-12 0 -26 13l-79 74q-14 14 -32 5t-11 -30l22 -104q0 -45 -45 -45h-115q-45 0 -45 45l23 102q6 20 -10.5 30.5t-30.5 -1.5l-82 -74 q-15 -7 -27 -7q-22 0 -34 24z" />
<glyph unicode="+" d="M41 670v110q0 68 68 68h147q68 0 68 67v175q0 68 67 67h152q68 0 67 -67v-175q0 -68 68 -67h147q68 0 68 -68v-110q0 -68 -68 -68h-147q-68 0 -68 -67v-177q0 -68 -67 -67h-152q-68 0 -67 67v177q0 68 -68 67h-147q-68 0 -68 68z" />
<glyph unicode="," horiz-adv-x="450" d="M23 -279l100 515q10 53 63 53h189q37 0 49 -29q5 -11 5 -24q0 -19 -11 -39l-189 -492q-20 -45 -63 -45h-100q-45 0 -45 43q0 8 2 18z" />
<glyph unicode="-" horiz-adv-x="696" d="M41 500v129q0 68 68 67h479q68 0 67 -67v-129q0 -68 -67 -68h-479q-68 0 -68 68z" />
<glyph unicode="." horiz-adv-x="552" d="M102 156q0 80 47.5 127t127 47t127 -47t47.5 -127t-47.5 -127t-127 -47t-127 47t-47.5 127z" />
<glyph unicode="/" horiz-adv-x="696" d="M-76 -127l584 1804q17 48 57 48q13 0 29 -5l135 -45q47 -16 47 -57q0 -12 -4 -27l-584 -1802q-17 -49 -56 -49q-14 0 -30 6l-135 43q-47 16 -47 57q0 12 4 27z" />
<glyph unicode="0" horiz-adv-x="1153" d="M102 438v185q0 215 135.5 336.5t337.5 121.5q205 0 340.5 -121.5t135.5 -336.5v-185q0 -215 -135.5 -336.5t-340.5 -121.5q-203 0 -338 121.5t-135 336.5zM393 438q0 -86 52.5 -135t129.5 -49q82 0 133.5 49t51.5 135v185q0 86 -51.5 135t-133.5 49q-78 0 -130 -49 t-52 -135v-185z" />
<glyph unicode="1" horiz-adv-x="954" d="M113 68v110q0 68 67 68h117q68 0 68 69v430q0 70 -68 70h-117q-68 0 -67 68v110q0 68 67 68h404q68 0 67 -68v-678q0 -70 68 -69h117q68 0 67 -68v-110q0 -68 -67 -68h-656q-67 0 -67 68z" />
<glyph unicode="2" horiz-adv-x="1021" d="M61 68v127q0 74 68 118l442 258q80 49 80 125q0 43 -33.5 73t-97.5 30q-53 0 -94 -38t-41 -93q0 -68 -68 -68h-163q-68 0 -68 68q0 182 122 297.5t329 115.5q182 0 300.5 -105.5t118.5 -250.5q0 -236 -239 -340l-150 -66q-23 -10 -19.5 -33.5t25.5 -23.5h320q68 0 68 -67 v-127q0 -68 -68 -68h-764q-68 0 -68 68z" />
<glyph unicode="3" horiz-adv-x="1103" d="M61 23q0 68 68 67h164q68 0 67 -67q0 -76 47.5 -127.5t131.5 -51.5q78 0 131 46.5t53 123.5q0 197 -203 197q-39 0 -56.5 8t-17.5 35v186q0 35 17.5 44.5t56.5 9.5q82 0 127 44t45 121q0 59 -44 99.5t-109 40.5q-86 0 -127 -48.5t-41 -129.5q0 -68 -70 -68h-162 q-37 0 -52 15.5t-15 52.5q0 205 125 332.5t352 127.5q188 0 315 -115.5t127 -277.5q0 -88 -46 -171t-138 -130q-14 -8 -14 -21.5t14 -21.5q215 -106 215 -332q0 -197 -138.5 -323.5t-344.5 -126.5q-229 0 -353.5 128t-124.5 333z" />
<glyph unicode="4" horiz-adv-x="1062" d="M41 68v157q0 37 18 86l326 869q16 47 54 46q15 0 34 -7l143 -56q45 -19 45 -57q0 -14 -6 -31l-274 -735q-10 -29 -3 -43t25 -14h56q68 0 67 69v103q0 68 68 67h164q68 0 67 -67v-103q0 -70 68 -69h61q68 0 68 -68v-147q0 -68 -68 -68h-61q-68 0 -68 -70v-143 q0 -68 -67 -68h-164q-68 0 -68 68v143q0 70 -67 70h-350q-68 0 -68 68z" />
<glyph unicode="5" horiz-adv-x="1206" d="M143 23q0 37 15.5 52t52.5 15h162q70 0 69 -67q0 -82 41 -130.5t127 -48.5q63 0 108.5 48.5t45.5 107.5v190q0 131 -119 132q-94 0 -145 -46q-12 -10 -27.5 -31.5t-31 -32.5t-42.5 -11h-147q-68 0 -68 67l47 725q6 68 68 68h631q68 0 67 -68v-147q0 -68 -67 -68h-369 q-33 0 -48 -15t-19 -54l-23 -193q-2 -23 15.5 -26t27.5 6q37 25 108.5 49t141.5 24q125 0 212 -83t87 -207v-328q0 -160 -127 -274.5t-315 -114.5q-227 0 -352.5 128t-125.5 333z" />
<glyph unicode="6" horiz-adv-x="1075" d="M61 459q0 141 97 395l258 608q10 29 34 38q10 4 21 4q15 0 33 -7l141 -61q35 -16 42 -35t-5 -51l-174 -392q-8 -18 1 -28t28 -6q49 12 118 12q162 0 260.5 -125t98.5 -344q0 -203 -128 -345t-347 -142q-217 0 -347.5 136t-130.5 343zM360 481q0 -219 172 -219 q35 0 60.5 6t56.5 24.5t48.5 62.5t17.5 112q0 123 -42 174t-126 51q-55 0 -97 -24.5t-59 -57.5q-31 -61 -31 -129z" />
<glyph unicode="7" horiz-adv-x="960" d="M20 846v147q0 68 68 68h784q68 0 68 -68v-157q0 -37 -18 -86l-494 -1158q-16 -47 -54 -46q-15 0 -34 8l-143 55q-45 19 -45 57q0 14 6 31l442 1024q10 29 3 43t-25 14h-490q-68 0 -68 68z" />
<glyph unicode="8" horiz-adv-x="1118" d="M82 1059q0 195 125 317.5t352 122.5t352 -123t125 -317q0 -223 -188 -328q-37 -20 0 -43q72 -43 116 -122t44 -173q0 -178 -131.5 -295.5t-317.5 -117.5t-317 117.5t-131 295.5q0 94 44 173t115 122q37 23 0 43q-188 105 -188 328zM381 1036q0 -82 45 -135t133 -53 t133 53t45 135q0 76 -46 128.5t-132 52.5t-132 -52.5t-46 -128.5zM410 403q0 -61 37.5 -101t111.5 -40t112 40t38 101q0 162 -149.5 162t-149.5 -162z" />
<glyph unicode="9" horiz-adv-x="1075" d="M61 594q0 203 128 345t348 142q217 0 347 -136t130 -343q0 -141 -96 -395l-259 -608q-10 -29 -33 -38q-10 -4 -22 -4q-15 0 -33 7l-141 61q-35 16 -42 34.5t5 51.5l174 391q8 18 -1 28.5t-27 6.5q-49 -12 -119 -12q-162 0 -260.5 125t-98.5 344zM360 594q0 -123 42 -174 t126 -51q55 0 97.5 24.5t58.5 57.5q31 61 31 129q0 219 -172 219q-35 0 -60.5 -6.5t-56.5 -24.5t-48.5 -62t-17.5 -112z" />
<glyph unicode=":" horiz-adv-x="552" d="M102 156q0 80 47.5 127t127 47t127 -47t47.5 -127t-47.5 -127t-127 -47t-127 47t-47.5 127zM102 903q0 80 47.5 127t127 47t127 -47t47.5 -127t-47.5 -127t-127 -47t-127 47t-47.5 127z" />
<glyph unicode=";" horiz-adv-x="552" d="M23 -279l100 515q10 53 63 53h189q37 0 49 -29q5 -11 5 -24q0 -19 -11 -39l-189 -492q-20 -45 -63 -45h-100q-45 0 -45 43q0 8 2 18zM102 903q0 80 47.5 127t127 47t127 -47t47.5 -127t-47.5 -127t-127 -47t-127 47t-47.5 127z" />
<glyph unicode="&#x3c;" d="M41 668v112q0 47 59 70l672 280q19 8 37 9q9 0 17 -2q26 -6 34 -29l55 -147q4 -14 4 -26q0 -36 -38 -48l-406 -137q-16 -4 -16 -17.5t16 -17.5l406 -137q27 -10 34 -37q4 -13 4.5 -22.5t-4.5 -14.5l-55 -164q-10 -23 -35 -29q-8 -2 -16 -2q-17 0 -37 8l-672 281 q-59 23 -59 70z" />
<glyph unicode="=" d="M41 428v111q0 68 68 67h716q68 0 68 -67v-111q0 -68 -68 -68h-716q-68 0 -68 68zM41 909v111q0 68 68 67h716q68 0 68 -67v-111q0 -68 -68 -67h-716q-68 -1 -68 67z" />
<glyph unicode="&#x3e;" d="M18 909q-4 13 -4 22.5t4 14.5l56 164q10 23 35 29q8 2 16 2q17 0 37 -8l672 -281q59 -23 59 -70v-112q0 -47 -59 -70l-672 -281q-19 -8 -37 -8q-9 0 -17 2q-26 6 -34 29l-56 147q-4 14 -4 26q0 36 39 48l406 137q16 4 16 17.5t-16 17.5l-406 137q-27 10 -35 37z" />
<glyph unicode="?" horiz-adv-x="1128" d="M102 1038q0 205 126 333t352 128q199 0 322.5 -130t123.5 -286q0 -94 -34 -164.5t-82 -110.5t-97 -73t-85 -70.5t-40 -84.5l-4 -62q-6 -61 -68 -61h-104q-61 0 -66 67l-6 76q-1 12 -1 24q0 53 23 98q28 54 70.5 92t87 73t76 80t31.5 98q0 57 -40 104.5t-107 47.5 q-76 0 -127.5 -44.5t-51.5 -134.5q0 -68 -67 -67h-164q-68 -1 -68 67zM391 156q0 80 47 127t127 47t127 -47t47 -127t-47 -127t-127 -47t-127 47t-47 127z" />
<glyph unicode="@" horiz-adv-x="2002" d="M61 493.5q0 440.5 282 723t722 282.5q373 0 625 -233.5t252 -626.5q0 -162 -49.5 -292t-128 -208t-171 -118.5t-184.5 -40.5q-94 0 -163.5 48t-98.5 126q-4 14 -18.5 15t-26.5 -15q-82 -106 -151.5 -140t-170.5 -34q-109 0 -178.5 70.5t-69.5 195.5q0 131 34 339 q34 209 91 333q80 164 271 163q115 0 221 -82q6 -8 20.5 -5t20.5 18l2 6q16 43 68 43h145q57 0 57 -51q0 -8 -2 -17l-92 -655q-2 -11 -2 -21q0 -28 13 -51q17 -31 51 -30q84 0 164.5 105t80.5 298q0 279 -177 436.5t-433 157.5q-317 0 -527 -205t-210 -534.5t210 -534.5 t527 -205q248 0 420 111q23 16 43 16q29 0 51 -35l72 -106q15 -22 14 -42q0 -29 -33 -52q-248 -158 -567 -158q-440 0 -722 282.5t-282 723zM817 303q0 -76 55 -76q90 0 167 128t102 309l6 41q1 9 1 16q0 40 -26 67q-39 45 -116 46q-90 0 -119 -86q-18 -53 -44 -210 t-26 -235z" />
<glyph unicode="A" horiz-adv-x="1185" d="M27 100l405 1325q16 53 66 54h180q59 0 76 -54l405 -1325q5 -16 5 -28q0 -41 -50 -56l-158 -47q-16 -4 -28 -4q-43 0 -56 47l-47 185q-10 43 -65 43h-334q-55 0 -66 -43l-47 -185q-12 -50 -51 -49q-14 0 -33 6l-157 47q-49 16 -50 58q1 12 5 26zM465 598q-5 -15 -5 -27 q0 -15 7 -27q12 -22 47 -22h166q47 0 47 42q0 15 -6 34l-90 344q-6 33 -36 33t-40 -33z" />
<glyph unicode="B" horiz-adv-x="1140" d="M143 68v1343q0 68 68 68h418q203 0 310.5 -116t107.5 -278q0 -209 -183 -311q-16 -10 -16 -22.5t16 -20.5q215 -111 215 -332q0 -160 -113.5 -279.5t-306.5 -119.5h-448q-68 0 -68 68zM442 352q0 -70 68 -69h94q176 0 176 157.5t-176 157.5h-94q-68 0 -68 -70v-176z M442 950q0 -70 68 -69h61q176 0 176.5 157.5t-176.5 157.5h-61q-68 0 -68 -70v-176z" />
<glyph unicode="C" horiz-adv-x="1177" d="M61 739.5q0 196.5 46.5 346t127 238.5t182 132t222.5 43q215 0 351 -131q145 -139 145 -333q0 -64 -68 -64h-164q-33 0 -48 14t-19 45q-10 74 -64.5 130.5t-132.5 56.5q-121 0 -200 -110t-79 -368t79 -367.5t200 -109.5q78 0 132 56.5t65 130.5q4 31 19 45t48 14h164 q68 0 68 -64q0 -194 -145 -333q-136 -131 -351 -131q-121 0 -222.5 43t-182 132t-127 238.5t-46.5 346z" />
<glyph unicode="D" horiz-adv-x="1251" d="M143 68v1345q0 66 70 66h354q301 0 462 -201t161 -539q0 -340 -162 -539.5t-461 -199.5h-356q-68 0 -68 68zM442 352q0 -70 68 -69h51q170 0 250 110.5t80 345.5q0 223 -74 340t-256 117h-51q-68 0 -68 -70v-774z" />
<glyph unicode="E" horiz-adv-x="1073" d="M143 68v1343q0 68 68 68h733q68 0 68 -68v-147q0 -68 -68 -68h-434q-68 0 -68 -70v-176q0 -70 68 -69h301q68 0 68 -68v-147q0 -68 -68 -68h-301q-68 0 -68 -70v-176q0 -70 68 -69h434q68 0 68 -68v-147q0 -68 -68 -68h-733q-68 0 -68 68z" />
<glyph unicode="F" horiz-adv-x="1032" d="M143 68v1343q0 68 68 68h713q68 0 67 -68v-147q0 -68 -67 -68h-414q-68 0 -68 -70v-176q0 -70 68 -69h281q68 0 67 -68v-147q0 -68 -67 -68h-281q-68 0 -68 -70v-460q0 -68 -67 -68h-164q-68 0 -68 68z" />
<glyph unicode="G" horiz-adv-x="1204" d="M61 739.5q0 196.5 46.5 346t127 238.5t182 132t222.5 43q215 0 351 -131q145 -139 145 -333q0 -64 -68 -64h-164q-33 0 -48 14t-19 45q-10 74 -64.5 130.5t-132.5 56.5q-121 0 -200 -110t-79 -368t79 -367.5t200 -109.5q88 0 140 46t52 138q0 70 -67 70h-115 q-68 0 -67 68v147q0 68 67 68h426q68 0 68 -68v-147q0 -270 -124 -437t-380 -167q-121 0 -222.5 43t-182 132t-127 238.5t-46.5 346z" />
<glyph unicode="H" horiz-adv-x="1327" d="M143 68v1343q0 68 68 68h164q68 0 67 -68v-461q0 -70 68 -69h307q68 0 68 69v461q0 68 67 68h164q68 0 68 -68v-1343q0 -68 -68 -68h-164q-68 0 -67 68v460q0 70 -68 70h-307q-68 0 -68 -70v-460q0 -68 -67 -68h-164q-68 0 -68 68z" />
<glyph unicode="I" horiz-adv-x="864" d="M82 68v147q0 68 68 68h65q68 0 68 69v774q0 70 -68 70h-65q-68 0 -68 68v147q0 68 68 68h565q68 0 67 -68v-147q0 -68 -67 -68h-66q-68 0 -67 -70v-774q0 -70 67 -69h66q68 0 67 -68v-147q0 -68 -67 -68h-565q-68 0 -68 68z" />
<glyph unicode="J" horiz-adv-x="825" d="M41 68v147q0 68 68 68h106q168 0 168 166v962q0 68 68 68h163q68 0 68 -68v-934q0 -252 -121 -364.5t-313 -112.5h-139q-68 0 -68 68z" />
<glyph unicode="K" horiz-adv-x="1175" d="M143 68v1343q0 68 68 68h164q68 0 67 -68v-448q0 -27 25 -34t39 15l360 535q23 33 53 33q19 0 42 -15l124 -90q35 -24 35 -49q0 -21 -18 -43l-338 -484q-23 -32 -23 -64.5t23 -66.5l354 -505q15 -22 15 -42q0 -29 -33 -53l-142 -98q-23 -16 -42 -16q-28 0 -52 32 l-358 533q-14 23 -39 15.5t-25 -34.5v-464q0 -68 -67 -68h-164q-68 0 -68 68z" />
<glyph unicode="L" horiz-adv-x="991" d="M143 68v1343q0 68 68 68h164q68 0 67 -68v-1059q0 -70 68 -69h393q68 0 68 -68v-147q0 -68 -68 -68h-692q-68 0 -68 68z" />
<glyph unicode="M" horiz-adv-x="1585" d="M143 68v1343q0 68 68 68h217q49 0 70 -56l264 -759q10 -27 29.5 -27t29.5 27l266 759q20 55 70 56h217q68 0 68 -68v-1343q0 -68 -68 -68h-164q-68 0 -67 68v575q0 18 -9.5 26.5t-20.5 3.5t-17 -20l-140 -377q-20 -59 -77 -59h-172q-57 0 -78 59l-140 377q-6 14 -17 19.5 t-20.5 -2.5t-9.5 -27v-575q0 -68 -67 -68h-164q-68 0 -68 68z" />
<glyph unicode="N" horiz-adv-x="1347" d="M143 68v1343q0 68 68 68h190q70 0 99 -62l348 -733q10 -20 33.5 -18t23.5 30v715q0 68 68 68h164q68 0 67 -68v-1343q0 -68 -67 -68h-191q-70 0 -98 61l-348 736q-10 20 -34 18t-24 -31v-716q0 -68 -67 -68h-164q-68 0 -68 68z" />
<glyph unicode="O" horiz-adv-x="1271" d="M61 737q0 381 158 571.5t420 190.5q254 0 412.5 -196.5t158.5 -567t-156.5 -563t-414.5 -192.5q-262 0 -420 192t-158 565zM360 737q0 -238 76 -356.5t203 -118.5q123 0 197.5 120t74.5 353q0 236 -75.5 359t-196.5 123q-127 0 -203 -119t-76 -361z" />
<glyph unicode="P" horiz-adv-x="1138" d="M143 68v1343q0 68 68 68h399q223 0 355.5 -123t132.5 -346q0 -207 -132 -339t-360 -132h-96q-68 0 -68 -70v-401q0 -68 -67 -68h-164q-68 0 -68 68zM442 891q0 -70 68 -70h98q88 0 139.5 53.5t51.5 133.5q0 188 -191 188h-98q-68 0 -68 -70v-235z" />
<glyph unicode="Q" horiz-adv-x="1271" d="M61 737q0 381 158 571.5t420 190.5q254 0 412.5 -196.5t158.5 -567.5q0 -549 -346 -712q-41 -20 -56 -47t-15 -78q0 -106 110 -107h105q68 0 67 -67v-148q0 -68 -67 -68h-109q-203 0 -304 108t-101 282q0 49 -18.5 75.5t-61.5 46.5q-353 166 -353 717zM360 737 q0 -238 76 -356.5t203 -118.5q123 0 197.5 120t74.5 353q0 236 -75.5 359t-196.5 123q-127 0 -203 -119t-76 -361z" />
<glyph unicode="R" horiz-adv-x="1157" d="M143 68v1343q0 68 68 68h399q223 0 355.5 -123t132.5 -346q0 -125 -50.5 -227.5t-140.5 -157.5q-29 -16 -14 -47l213 -426q9 -20 9 -36q0 -35 -42 -55l-147 -73q-20 -9 -37 -10q-34 0 -53 40l-211 478q-12 25 -26.5 34t-45.5 9h-43q-68 0 -68 -70v-401q0 -68 -67 -68 h-164q-68 0 -68 68zM442 891q0 -70 68 -70h98q88 0 139.5 53.5t51.5 133.5q0 188 -191 188h-98q-68 0 -68 -70v-235z" />
<glyph unicode="S" horiz-adv-x="1083" d="M61 440q0 68 68 68h164q68 0 67 -68q0 -86 51.5 -132t127.5 -46q86 0 135 43t49 109q0 57 -37 96t-95.5 61.5t-128 43t-140 50t-129 74.5t-95.5 127t-37 195q0 184 135.5 311t348.5 127q242 0 359.5 -134t117.5 -327q0 -68 -68 -67h-163q-68 0 -68 67q0 86 -51 132.5 t-127 46.5q-86 0 -135.5 -43t-49.5 -109q0 -57 37 -96t95.5 -61.5t129 -43t140 -50.5t128 -75t95.5 -127t37 -194q0 -184 -135 -311t-348 -127q-242 0 -360 133.5t-118 326.5z" />
<glyph unicode="T" horiz-adv-x="1048" d="M0 1264v147q0 68 68 68h913q68 0 68 -68v-147q0 -68 -68 -68h-240q-68 0 -67 -70v-1058q0 -68 -68 -68h-164q-68 0 -67 68v1058q0 70 -68 70h-239q-68 0 -68 68z" />
<glyph unicode="U" horiz-adv-x="1265" d="M123 457v954q0 68 67 68h164q68 0 68 -68v-960q0 -90 59.5 -139.5t151.5 -49.5q90 0 150.5 49t60.5 140v960q0 68 67 68h164q68 0 68 -68v-954q0 -219 -136.5 -348t-376 -129t-373.5 129t-134 348z" />
<glyph unicode="V" horiz-adv-x="1185" d="M27 1378q-5 16 -5 29q0 41 50 55l157 47q16 4 29 5q43 0 55 -48l242 -929q6 -33 36 -33t40 33l241 929q12 50 52 50q14 0 32 -7l158 -47q49 -16 49 -57q0 -12 -4 -27l-405 -1325q-16 -53 -66 -53h-180q-59 0 -76 53z" />
<glyph unicode="W" horiz-adv-x="1722" d="M27 1389q-5 16 -5 28q0 41 50 56l157 30q16 4 29 4q43 0 55 -47l160 -842q6 -33 38 -32.5t38 32.5l151 807q12 53 76 54h180q51 0 66 -54l152 -807q6 -33 37.5 -32.5t37.5 32.5l160 842q13 47 56 47q13 0 28 -4l158 -30q50 -14 50 -56q0 -13 -5 -28l-324 -1336 q-16 -53 -76 -53h-180q-49 0 -65 53l-152 746q-6 33 -38 32.5t-38 -32.5l-151 -746q-16 -53 -66 -53h-180q-59 0 -76 53z" />
<glyph unicode="X" horiz-adv-x="1165" d="M55 160l326 526q16 28 16 54.5t-16 52.5l-324 522q-13 22 -13 40q0 30 36 52l149 90q22 13 41 13q31 0 52 -37l235 -410q10 -16 26.5 -16t26.5 16l232 405q22 38 53 39q19 0 41 -14l131 -80q37 -23 37 -52q0 -18 -14 -40l-318 -510q-16 -27 -16 -53t16 -51l336 -543 q14 -22 14 -41q0 -30 -37 -51l-157 -95q-18 -11 -34 -10q-29 0 -50 37l-244 426q-12 20 -28.5 20.5t-28.5 -20.5l-240 -420q-22 -36 -52 -35q-18 0 -40 13l-133 80q-36 22 -36 52q0 18 13 40z" />
<glyph unicode="Y" horiz-adv-x="1120" d="M25 1321q-13 21 -13 38q0 31 39 52l152 82q22 12 40 12q32 0 52 -37l250 -507q10 -16 26.5 -16.5t26.5 16.5l244 499q22 40 56 40q17 0 36 -9l135 -74q41 -20 41 -51q0 -17 -12 -39l-369 -694q-16 -27 -16 -53v-512q0 -68 -68 -68h-164q-68 0 -67 68v499q0 25 -17 51z " />
<glyph unicode="Z" horiz-adv-x="1042" d="M61 68v157q0 45 25 86l510 826q16 25 6 42t-39 17h-434q-68 0 -68 68v147q0 68 68 68h784q68 0 68 -68v-158q0 -45 -25 -86l-510 -825q-16 -25 -5.5 -42t38.5 -17h434q68 0 68 -68v-147q0 -68 -68 -68h-784q-68 0 -68 68z" />
<glyph unicode="[" horiz-adv-x="638" d="M102 -160v1798q0 68 68 68h401q68 0 68 -68v-110q0 -68 -68 -68h-114q-68 0 -68 -69v-1303q0 -70 68 -70h114q68 0 68 -67v-111q0 -68 -68 -67h-401q-68 -1 -68 67z" />
<glyph unicode="\" horiz-adv-x="696" d="M-76 1591q-4 15 -4 27q0 41 47 57l135 45q15 5 29 5q40 0 57 -48l584 -1804q4 -15 4 -27q0 -41 -47 -57l-135 -43q-16 -6 -30 -6q-39 0 -56 49z" />
<glyph unicode="]" horiz-adv-x="638" d="M0 -49q0 68 68 67h114q68 0 68 70v1303q0 70 -68 69h-114q-68 0 -68 68v110q0 68 68 68h401q68 0 68 -68v-1798q0 -68 -68 -67h-401q-68 0 -68 67v111z" />
<glyph unicode="^" horiz-adv-x="1038" d="M111 754l239 665q18 59 68 60h205q49 0 67 -60l238 -655q6 -17 6 -31q0 -39 -47 -57l-152 -55q-19 -8 -34 -8q-39 0 -52 49l-106 378q-10 29 -33 29t-33 -29l-106 -381q-15 -46 -58 -46q-14 0 -30 5l-131 48q-48 16 -48 55q0 15 7 33z" />
<glyph unicode="_" horiz-adv-x="1019" d="M0 -127q0 68 68 68h884q68 0 68 -68v-111q0 -68 -68 -67h-884q-68 0 -68 67v111z" />
<glyph unicode="`" horiz-adv-x="731" d="M117 1432l73 106q18 28 44 28q22 0 49 -22l323 -264q23 -16 24 -37q0 -15 -14 -33l-32 -49q-15 -23 -39 -23q-18 0 -41 13l-369 197q-32 20 -32 46q0 18 14 38z" />
<glyph unicode="a" horiz-adv-x="1038" d="M61 297q0 186 117 265t367 79h76q29 0 28 29v26q0 129 -143 129q-117 0 -256 -69q-19 -10 -35 -10q-35 0 -53 47l-43 98q-10 18 -4 46t32 40q213 104 402 104q115 0 193.5 -33.5t119.5 -98t57.5 -139.5t16.5 -175v-567q0 -68 -68 -68h-131q-47 0 -63 39l-6 14 q-16 31 -45 10q-125 -84 -265 -83q-127 0 -212 89t-85 228zM348 311q0 -102 119 -102q84 0 143 55q39 35 39 90v23q0 35 -35 35h-131q-135 -1 -135 -101z" />
<glyph unicode="b" horiz-adv-x="1050" d="M102 68v1343q0 68 68 68h152q68 0 67 -68v-383q0 -23 16.5 -26t26.5 6q111 74 244 73q123 0 208 -83t85 -207v-521q0 -125 -85 -207.5t-208 -82.5q-139 0 -260 83q-29 20 -45 -10l-6 -14q-16 -39 -64 -39h-131q-68 0 -68 68zM389 356q0 -51 39 -84q51 -45 135 -45 q119 0 119 131v344q0 131 -119 132q-84 0 -135 -46q-39 -33 -39 -83v-349z" />
<glyph unicode="c" horiz-adv-x="997" d="M61 530.5q0 274.5 111 412.5t350 138q186 0 295 -98t119 -270q0 -70 -64 -70h-143q-63 0 -74 47q-27 145 -133 146q-174 0 -174 -305.5t174 -305.5q106 0 133 146q10 47 74 47h143q63 0 64 -70q-10 -172 -118.5 -270t-295.5 -98q-240 0 -350.5 138t-110.5 412.5z" />
<glyph unicode="d" horiz-adv-x="1050" d="M82 791q0 125 85 207.5t208 82.5q133 0 243 -73q8 -8 25.5 -5t17.5 25v383q0 68 68 68h152q68 0 67 -68v-1343q0 -68 -67 -68h-131q-47 0 -64 39l-6 14q-16 31 -45 10q-121 -84 -260 -83q-123 0 -208 82.5t-85 207.5v521zM369 358q0 -131 118 -131q84 0 136 45 q39 33 39 84v349q0 51 -39 83q-51 45 -136 46q-119 0 -118 -132v-344z" />
<glyph unicode="e" horiz-adv-x="995" d="M61 514q0 285 120 426t341 141q412 0 412 -561v-65q0 -20 -16.5 -34.5t-36.5 -14.5h-482q-35 0 -34 -31q0 -7 2 -17q14 -59 68 -90.5t120 -31.5q25 0 48.5 4t49 14t40 15t41.5 20l32 16q18 9 33 9q35 0 55 -46l43 -98q6 -16 6 -29q0 -39 -47 -63q-63 -33 -97 -48.5 t-98.5 -32.5t-128.5 -17q-209 0 -340 123.5t-131 410.5zM360 678q0 -43 41 -43h193q41 0 41 43q0 72 -39 115t-98.5 43t-98.5 -43t-39 -115z" />
<glyph unicode="f" horiz-adv-x="753" d="M51 883v110q0 68 68 68h35q68 0 67 67v11q0 340 367 340h131q55 0 55 -66v-125q0 -33 -12 -44t-49 -11h-101q-104 0 -104 -90v-15q0 -68 67 -67h93q68 0 67 -68v-110q0 -68 -67 -68h-93q-68 0 -67 -67v-680q0 -68 -68 -68h-151q-68 0 -68 68v680q0 68 -67 67h-35 q-68 0 -68 68z" />
<glyph unicode="g" horiz-adv-x="1050" d="M82 270v521q0 125 85 207.5t208 82.5q139 0 260 -84q29 -20 45 11l6 14q16 39 64 39h131q68 0 67 -68v-954q0 -289 -132 -420t-339 -131q-63 0 -127.5 17.5t-98.5 33t-97 47.5q-47 24 -47 63q0 14 6 29l43 99q20 46 54 45q15 0 34 -8l31 -17q28 -14 42.5 -19t40 -15.5 t49 -14.5t48.5 -4q82 0 144.5 62.5t62.5 226.5q0 23 -17.5 25.5t-25.5 -5.5q-111 -74 -244 -73q-123 0 -208 82.5t-85 207.5zM369 358q0 -131 118 -131q84 0 136 45q39 33 39 84v349q0 51 -39 83q-51 45 -136 46q-119 0 -118 -132v-344z" />
<glyph unicode="h" horiz-adv-x="1071" d="M102 68v1343q0 68 68 68h152q68 0 67 -68v-383q0 -23 16.5 -26t26.5 6q111 74 244 73q123 0 208 -83t85 -207v-723q0 -68 -68 -68h-151q-68 0 -68 68v634q0 131 -119 132q-84 0 -135 -46q-39 -33 -39 -83v-637q0 -68 -67 -68h-152q-68 0 -68 68z" />
<glyph unicode="i" horiz-adv-x="491" d="M72 1341.5q0 79.5 47 127t127 47.5t127 -47.5t47 -127t-47 -127t-127 -47.5t-127 47.5t-47 127zM102 68v925q0 68 68 68h152q68 0 67 -68v-925q0 -68 -67 -68h-152q-68 0 -68 68z" />
<glyph unicode="j" horiz-adv-x="548" d="M-133 -313q0 68 67 67h58q168 0 168 172v1067q0 68 67 68h152q68 0 67 -68v-1030q0 -207 -103 -331t-318 -124h-91q-68 0 -67 68v111zM129 1341.5q0 79.5 47 127t127 47.5t127 -47.5t47 -127t-47 -127t-127 -47.5t-127 47.5t-47 127z" />
<glyph unicode="k" horiz-adv-x="968" d="M102 68v1343q0 68 68 68h152q68 0 67 -68v-672q0 -23 21.5 -30t38.5 12l266 338q22 30 48 30q22 0 46 -22l109 -90q32 -24 31 -50q0 -22 -23 -46l-248 -295q-23 -25 -23 -50t23 -51l246 -292q19 -19 18 -44q0 -31 -27 -51l-124 -104q-23 -20 -46 -20q-26 0 -49 28 l-252 320q-14 18 -34.5 12t-20.5 -33v-233q0 -68 -67 -68h-152q-68 0 -68 68z" />
<glyph unicode="l" horiz-adv-x="491" d="M102 68v1343q0 68 68 68h152q68 0 67 -68v-1343q0 -68 -67 -68h-152q-68 0 -68 68z" />
<glyph unicode="m" horiz-adv-x="1568" d="M102 68v925q0 68 68 68h131q47 0 64 -39l6 -14q16 -31 45 -11q121 84 239 84q129 0 207 -94q18 -18 39 0q135 94 293 94q121 0 196.5 -81.5t75.5 -208.5v-723q0 -68 -67 -68h-152q-68 0 -67 68v634q0 70 -22.5 101t-76.5 31q-63 0 -114 -46q-37 -29 -39 -73v-647 q0 -68 -68 -68h-151q-68 0 -68 68v634q0 70 -22.5 101t-75.5 31q-63 0 -115 -46q-39 -33 -39 -83v-637q0 -68 -67 -68h-152q-68 0 -68 68z" />
<glyph unicode="n" horiz-adv-x="1071" d="M102 68v925q0 68 68 68h131q47 0 64 -39l6 -14q16 -31 45 -11q121 84 260 84q123 0 208 -83t85 -207v-723q0 -68 -68 -68h-151q-68 0 -68 68v634q0 131 -119 132q-84 0 -135 -46q-39 -33 -39 -83v-637q0 -68 -67 -68h-152q-68 0 -68 68z" />
<glyph unicode="o" horiz-adv-x="1040" d="M61 530.5q0 274.5 111 412.5t350 138q457 0 457 -550.5t-457 -550.5q-240 0 -350.5 138t-110.5 412.5zM348 530.5q0 -305.5 174 -305.5q170 0 170 305.5t-170 305.5q-174 0 -174 -305.5z" />
<glyph unicode="p" horiz-adv-x="1050" d="M102 -424v1417q0 68 68 68h131q47 0 64 -39l6 -14q16 -31 45 -11q121 84 260 84q123 0 208 -83t85 -207v-521q0 -125 -85 -207.5t-208 -82.5q-133 0 -244 73q-10 8 -26.5 5t-16.5 -25v-457q0 -68 -67 -68h-152q-68 0 -68 68zM389 356q0 -51 39 -84q51 -45 135 -45 q119 0 119 131v344q0 131 -119 132q-84 0 -135 -46q-39 -33 -39 -83v-349z" />
<glyph unicode="q" horiz-adv-x="1050" d="M82 270v521q0 125 85 207.5t208 82.5q139 0 260 -84q29 -20 45 11l6 14q16 39 64 39h131q68 0 67 -68v-1417q0 -68 -67 -68h-152q-68 0 -67 68v457q0 23 -17.5 25.5t-25.5 -5.5q-111 -74 -244 -73q-123 0 -208 82.5t-85 207.5zM369 358q0 -131 118 -131q84 0 136 45 q39 33 39 84v349q0 51 -39 83q-51 45 -136 46q-119 0 -118 -132v-344z" />
<glyph unicode="r" horiz-adv-x="745" d="M102 993q0 68 68 68h145q59 0 74 -66l4 -49q2 -16 16.5 -18t22.5 10q90 143 246 143q20 0 33.5 -13t13.5 -34v-182q0 -57 -57 -57h-39q-100 0 -170 -71t-70 -179v-477q0 -68 -67 -68h-152q-68 0 -68 68v925z" />
<glyph unicode="s" d="M61 737q0 150 103.5 247t296 97t294 -91t101.5 -249q0 -68 -68 -67h-151q-68 0 -68 67q0 94 -108 95q-113 0 -113 -86q0 -47 54.5 -72t131 -41t153.5 -42t131 -93.5t54 -177.5q0 -147 -106.5 -245.5t-300.5 -98.5q-193 0 -298.5 91t-105.5 248q0 68 68 68h152 q68 0 67 -68q0 -43 31 -68.5t86 -25.5q121 0 121 86q0 47 -54.5 72t-131 41t-153.5 42t-131.5 93t-54.5 178z" />
<glyph unicode="t" horiz-adv-x="841" d="M10 883v110q0 68 68 68h55q68 0 68 67v140q0 68 67 67h152q68 0 67 -67v-140q0 -68 68 -67h158q68 0 67 -68v-110q0 -68 -67 -68h-158q-68 0 -68 -67v-418q0 -92 66 -92q43 0 123 41q19 11 36 10q34 0 54 -45l45 -101q9 -20 9 -35q0 -34 -42 -53q-57 -29 -85.5 -41 t-79 -23t-105.5 -11q-145 0 -226 81.5t-81 241.5v445q0 68 -68 67h-55q-68 0 -68 68z" />
<glyph unicode="u" horiz-adv-x="1071" d="M102 270v723q0 68 68 68h152q68 0 67 -68v-635q0 -131 119 -131q84 0 135 45q39 33 39 84v637q0 68 68 68h151q68 0 68 -68v-925q0 -68 -68 -68h-131q-47 0 -63 39l-7 14q-16 31 -45 10q-121 -84 -260 -83q-123 0 -208 82.5t-85 207.5z" />
<glyph unicode="v" horiz-adv-x="1001" d="M29 940q-6 17 -6 31q0 39 47 57l151 55q19 8 34 8q39 0 52 -49l170 -604q10 -29 32.5 -28.5t33.5 28.5l170 606q15 46 57 47q14 0 31 -6l131 -47q48 -16 48 -55q0 -15 -7 -33l-303 -891q-18 -59 -68 -59h-205q-49 0 -67 59z" />
<glyph unicode="w" horiz-adv-x="1443" d="M27 961q-4 12 -5 23q0 15 8 29q13 24 46 31l155 41q13 3 25 4q44 0 57 -51l107 -491q6 -29 32.5 -29t32.5 29l97 454q10 59 67 60h166q53 0 68 -60l96 -454q6 -29 32.5 -29t32.5 29l107 493q13 53 57 53q12 0 27 -3l135 -37q52 -11 52 -55q0 -13 -5 -29l-243 -910 q-18 -59 -68 -59h-186q-53 0 -68 59l-98 426q-4 29 -32 29t-34 -29l-96 -426q-10 -59 -68 -59h-186q-49 0 -68 59z" />
<glyph unicode="x" horiz-adv-x="942" d="M37 891q-15 23 -15 42q0 29 31 52l131 92q23 15 43 15q29 0 52 -31l165 -256q15 -23 31.5 -23t32.5 23l162 252q22 32 50 32q20 0 44 -16l115 -82q32 -24 32 -52q0 -20 -16 -42l-215 -305q-17 -26 -17 -51.5t17 -51.5l225 -321q16 -22 16 -41q0 -29 -34 -53l-131 -92 q-26 -17 -47 -18q-29 0 -47 34l-168 260q-13 24 -28.5 24t-33.5 -24l-162 -252q-24 -31 -52 -31q-20 0 -42 15l-115 80q-33 23 -33 51q0 20 17 43l215 307q18 26 18.5 51.5t-18.5 50.5z" />
<glyph unicode="y" horiz-adv-x="1001" d="M29 940q-6 17 -6 31q0 39 47 57l151 55q19 8 34 8q39 0 52 -49l170 -604q10 -29 32.5 -28.5t33.5 28.5l170 606q15 46 57 47q14 0 31 -6l131 -47q48 -16 48 -55q0 -15 -7 -33l-481 -1425q-17 -47 -57 -47q-14 0 -32 6l-131 49q-47 17 -46 56q0 14 5 30l105 313 q10 25 10 52q0 24 -8 49z" />
<glyph unicode="z" horiz-adv-x="954" d="M82 68v120q0 45 24 86l381 482q16 25 6 42t-38 17h-305q-68 0 -68 68v110q0 68 68 68h655q68 0 67 -68v-121q0 -45 -24 -86l-361 -481q-16 -25 -5.5 -42t38.5 -17h285q68 0 67 -68v-110q0 -68 -67 -68h-655q-68 0 -68 68z" />
<glyph unicode="{" horiz-adv-x="751" d="M0 684v111q0 68 68 67h36q111 0 111 111v401q0 152 98.5 242t235.5 90h135q68 0 68 -68v-110q0 -68 -68 -68h-115q-68 0 -67 -69v-430q0 -82 -21.5 -125t-42 -60.5t-20.5 -36t20.5 -36t42 -60.5t21.5 -125v-430q0 -70 67 -70h115q68 0 68 -67v-111q0 -68 -68 -67h-135 q-139 0 -236.5 91t-97.5 240v402q0 111 -111 110h-36q-68 0 -68 68z" />
<glyph unicode="|" horiz-adv-x="604" d="M164 -242v1962q0 68 67 68h142q68 0 67 -68v-1962q0 -68 -67 -67h-142q-67 -1 -67 67z" />
<glyph unicode="}" horiz-adv-x="751" d="M0 -49q0 68 68 67h114q68 0 68 70v430q0 63 13 105.5t28.5 56.5t29 28.5t13.5 31t-13.5 30.5t-29 28.5t-28.5 56.5t-13 106v430q0 70 -68 69h-114q-68 0 -68 68v110q0 68 68 68h135q139 0 236.5 -91t97.5 -241v-401q0 -111 110 -111h37q68 0 68 -67v-111q0 -68 -68 -68 h-37q-111 0 -110 -110v-402q0 -152 -98.5 -241.5t-235.5 -89.5h-135q-68 0 -68 67v111z" />
<glyph unicode="~" horiz-adv-x="1132" d="M43 616q25 190 118 285.5t234 95.5q74 0 129.5 -26.5t86 -64.5t52 -75.5t41 -64.5t41.5 -27q39 0 55.5 26t20.5 81q6 59 64 59h4h149q53 -5 53 -54q0 -8 -1 -17q-25 -190 -118 -285.5t-235 -95.5q-74 0 -129 26.5t-85.5 64.5t-52 75.5t-41 64.5t-42.5 27q-39 0 -55.5 -26 t-20.5 -81q-6 -59 -63 -59h-4h-150q-53 5 -52 54q0 8 1 17z" />
<glyph unicode="&#xa1;" horiz-adv-x="565" d="M102 -348l62 887q6 68 67 67h103q61 0 67 -67l62 -887q0 -68 -68 -68h-225q-68 0 -68 68zM109 907q0 80 47 127t126.5 47t127 -47t47.5 -127t-47.5 -127t-127 -47t-126.5 47t-47 127z" />
<glyph unicode="&#xa2;" horiz-adv-x="997" d="M61 948q0 444 295 529v200q0 68 68 68h164q68 0 67 -68v-194q127 -33 199 -124t82 -229q0 -70 -64 -69h-143q-63 0 -74 47q-27 145 -133 145q-174 0 -174 -305t174 -305q106 0 133 145q10 47 74 48h143q63 0 64 -70q-10 -137 -82 -229.5t-199 -124.5v-193q0 -68 -67 -67 h-164q-68 0 -68 67v199q-295 84 -295 530z" />
<glyph unicode="&#xa3;" horiz-adv-x="1175" d="M102 68v147q0 68 45 104q4 2 36 25t46.5 36t38 38.5t33.5 54.5t10 62v32q0 70 -67 70h-54q-68 0 -67 68v110q0 68 67 68h54q68 0 67 69v49q0 248 118 363t386 115h129q68 0 68 -68v-147q0 -68 -68 -68h-129q-113 0 -159 -47t-46 -154v-43q0 -70 68 -69h246q68 0 67 -68 v-110q0 -68 -67 -68h-246q-68 0 -68 -70v-32q0 -133 -71 -197q-18 -16 -12.5 -35.5t28.5 -19.5h471q68 0 68 -68v-147q0 -68 -68 -68h-856q-68 0 -68 68z" />
<glyph unicode="&#xa4;" horiz-adv-x="1103" d="M68 1038q-24 24 -24 47.5t24 47.5l94 94q24 24 47 23l47 -23l135 -137q74 29 160 28.5t160 -28.5l131 133q25 24 48.5 23.5t47.5 -23.5l92 -95q25 -25 25 -48t-25 -46l-131 -131q31 -74 31 -164q0 -86 -29 -159l135 -134q25 -25 25 -48.5t-25 -47.5l-92 -92 q-24 -25 -48 -25t-48 25l-133 131q-74 -29 -164 -29t-164 29l-127 -125q-23 -25 -46.5 -24.5t-47.5 24.5l-94 92q-24 24 -24 48t24 49l127 127q-27 68 -27 159q0 90 29 164zM395 739.5q0 -73.5 43 -119t113 -45.5t113 45.5t43 119t-43 118.5t-113 45t-113 -45t-43 -118.5z " />
<glyph unicode="&#xa5;" horiz-adv-x="1222" d="M76 1321q-13 21 -13 38q0 31 39 52l152 82q22 12 41 12q32 0 51 -37l250 -507q10 -16 26.5 -16.5t26.5 16.5l244 499q22 40 56 40q17 0 36 -9l135 -74q41 -20 41 -51q0 -17 -12 -39l-285 -534q-12 -20 -4 -36t27 -16h176q68 0 67 -67v-111q0 -68 -67 -67h-254 q-45 0 -45 -45v-383q0 -68 -68 -68h-164q-68 0 -67 68v383q0 45 -45 45h-254q-68 0 -68 67v111q0 68 68 67h166q29 0 31 21.5t-7 30.5z" />
<glyph unicode="&#xa6;" horiz-adv-x="604" d="M164 -242v731q0 68 67 68h142q68 0 67 -68v-731q0 -68 -67 -67h-142q-67 -1 -67 67zM164 989v731q0 68 67 68h142q68 0 67 -68v-731q0 -68 -67 -67h-142q-67 -1 -67 67z" />
<glyph unicode="&#xa7;" horiz-adv-x="1083" d="M102 1108q0 168 116 279.5t321 111.5q215 0 322.5 -112.5t107.5 -288.5q0 -68 -68 -68h-158q-68 0 -67 68q0 66 -37 101.5t-100 35.5q-72 0 -108 -32t-36 -87q0 -63 60.5 -108t145.5 -81t170 -81t145.5 -130t60.5 -206q0 -186 -131 -277q-29 -20 0 -45q135 -111 135 -309 q0 -166 -119 -278.5t-321 -112.5q-217 0 -326 112.5t-109 286.5q0 68 66 68h158q70 0 69 -68q0 -63 39 -99t103 -36q70 0 108.5 33t38.5 86q0 63 -60.5 107.5t-145.5 79t-170 78.5t-145.5 131t-60.5 210q0 195 130 277q33 20 2 45q-136 112 -136 309zM399 506 q0 -90 138 -154q70 0 108.5 37t38.5 92q0 88 -143 156q-68 0 -105 -38t-37 -93z" />
<glyph unicode="&#xa8;" horiz-adv-x="983" d="M102 1341.5q0 71.5 43 114.5t115 43t115 -43t43 -114.5t-43 -114.5t-115 -43t-115 43t-43 114.5zM565 1341.5q0 71.5 43 114.5t115 43t115 -43t43 -114.5t-43 -114.5t-115 -43t-115 43t-43 114.5z" />
<glyph unicode="&#xa9;" horiz-adv-x="1683" d="M82 741q0 330 214 544t544 214q334 0 548 -214t214 -544q0 -334 -214 -547.5t-548 -213.5q-330 0 -544 213.5t-214 547.5zM309 741q0 -233 149.5 -383.5t381.5 -150.5q233 0 383.5 150.5t150.5 383.5q0 231 -150.5 381t-383.5 150q-231 0 -381 -150t-150 -381zM489 739 q0 418 351 418q141 0 224 -74.5t89 -203.5q-4 -55 -51 -56h-117q-55 0 -61 37q-23 96 -84 96q-113 0 -113 -217q0 -211 113 -211q61 0 84 93q6 41 61 41h117q47 0 51 -60q-6 -129 -89 -202.5t-224 -73.5q-351 -1 -351 413z" />
<glyph unicode="&#xaa;" horiz-adv-x="567" d="M23 1159q0 82 49 120t170 38h65q10 0 10 12v6q0 37 -57 37q-45 0 -115 -26q-13 -6 -24 -6q-27 0 -41 34l-27 62q-10 12 -4 33.5t29 33.5q115 51 217 51q125 0 176 -62t51 -196v-241q0 -55 -51 -56h-90q-39 0 -45 25l-2 10q-6 27 -31 2q-51 -47 -123 -47q-66 0 -111.5 47 t-45.5 123zM219 1178q0 -31 39 -31q29 0 47 14q12 8 12 29v6q0 10 -12 10h-43q-43 1 -43 -28z" />
<glyph unicode="&#xab;" horiz-adv-x="1323" d="M109 483q-24 25 -24 49t24 48l401 399q24 24 47 23l47 -23l88 -86q25 -25 25 -49t-25 -47l-219 -217q-18 -20 -18 -39q0 -18 16 -35l231 -230q24 -24 24 -46.5t-24 -45.5l-98 -100q-24 -24 -48 -24l-46 22zM623 483q-25 25 -25 49t25 48l401 399q24 24 47 23l47 -23 l88 -86q24 -25 24 -49t-24 -47l-219 -217q-18 -20 -18 -39q0 -18 16 -35l232 -230q24 -24 23.5 -46.5t-23.5 -45.5l-99 -100q-25 -24 -49 -24q-23 0 -45 22z" />
<glyph unicode="&#xac;" d="M41 670v110q0 68 68 68h716q68 0 68 -68v-422q0 -68 -68 -67h-151q-68 0 -68 67v177q0 68 -67 67h-430q-68 0 -68 68z" />
<glyph unicode="&#xad;" horiz-adv-x="696" d="M41 500v129q0 68 68 67h479q68 0 67 -67v-129q0 -68 -67 -68h-479q-68 0 -68 68z" />
<glyph unicode="&#xae;" horiz-adv-x="1683" d="M82 741q0 330 214 544t544 214q334 0 548 -214t214 -544q0 -334 -214 -547.5t-548 -213.5q-330 0 -544 213.5t-214 547.5zM309 741q0 -233 149.5 -383.5t381.5 -150.5q233 0 383.5 150.5t150.5 383.5q0 231 -150.5 381t-383.5 150q-231 0 -381 -150t-150 -381zM561 397 v688q0 57 55 58h295q121 0 200 -83t79 -192q0 -131 -100 -213q-12 -16 -5 -30l91 -174q6 -15 5 -28q0 -31 -36 -46l-113 -53q-14 -6 -26 -6q-29 0 -50 34l-84 217q-8 23 -30 23h-6q-39 0 -39 -41v-154q0 -57 -56 -57h-125q-55 0 -55 57zM797 834q0 -39 39 -39h53 q29 0 47 21.5t18 52t-20.5 52t-46.5 21.5h-51q-39 0 -39 -41v-67z" />
<glyph unicode="&#xaf;" horiz-adv-x="872" d="M102 1278v90q0 68 68 68h532q68 0 68 -68v-90q0 -68 -68 -68h-532q-68 0 -68 68z" />
<glyph unicode="&#xb0;" horiz-adv-x="839" d="M41 1120q0 174 102.5 276.5t276.5 102.5t276.5 -102.5t102.5 -276.5t-102.5 -276.5t-276.5 -102.5t-276.5 102.5t-102.5 276.5zM264 1120.5q0 -73.5 43 -119t112.5 -45.5t112.5 45.5t43 119t-43 118.5t-112.5 45t-112.5 -45t-43 -118.5z" />
<glyph unicode="&#xb1;" d="M41 68v110q0 68 68 68h716q68 0 68 -68v-110q0 -68 -68 -68h-716q-68 0 -68 68zM41 670v110q0 68 68 68h147q68 0 68 67v175q0 68 67 67h152q68 0 67 -67v-175q0 -68 68 -67h147q68 0 68 -68v-110q0 -68 -68 -68h-147q-68 0 -68 -67v-177q0 -68 -67 -67h-152 q-68 0 -67 67v177q0 68 -68 67h-147q-68 0 -68 68z" />
<glyph unicode="&#xb2;" horiz-adv-x="636" d="M61 791v102q0 35 37 78l236 219q29 29 28 59q0 41 -43 41t-43 -45q0 -49 -51 -49h-110q-51 0 -52 49q0 113 68 180.5t188 67.5q117 0 186.5 -65.5t69.5 -174.5q0 -137 -133 -221l-84 -53q-12 -12 -7 -23.5t18 -11.5h155q51 0 51 -51v-102q0 -51 -51 -52h-411 q-52 1 -52 52z" />
<glyph unicode="&#xb3;" horiz-adv-x="667" d="M61 973q0 51 52 51h112q51 0 51 -45t57.5 -45t57.5 45q0 41 -61 41q-20 0 -29.5 1t-18 7t-8.5 21v116q0 18 9.5 26.5t17.5 9.5t29 1q51 0 51 45t-47 45t-47 -45q0 -43 -51 -43h-113q-29 0 -40 10.5t-11 38.5q0 111 69.5 177.5t202.5 66.5q102 0 174 -60.5t72 -142.5 q0 -119 -86 -155q-8 -4 -8 -12.5t8 -10.5q102 -47 102 -158q0 -96 -71.5 -162.5t-198.5 -66.5q-129 0 -202 64.5t-73 179.5z" />
<glyph unicode="&#xb4;" horiz-adv-x="731" d="M115 1210q-13 18 -13 33q0 20 23 37l324 264q27 22 48 22q25 0 44 -28l73 -106q14 -20 14 -38q0 -27 -32 -46l-369 -197q-23 -13 -40 -13q-24 0 -40 23z" />
<glyph unicode="&#xb5;" horiz-adv-x="1071" d="M102 -424v1417q0 68 68 68h152q68 0 67 -68v-635q0 -131 119 -131q84 0 135 45q39 33 39 84v637q0 68 68 68h151q68 0 68 -68v-925q0 -68 -68 -68h-131q-47 0 -63 39l-7 14q-6 14 -19 17.5t-26 -11.5q-25 -35 -68.5 -57t-86.5 -22t-72 14q-10 8 -24.5 1t-14.5 -32v-387 q0 -68 -67 -68h-152q-68 0 -68 68z" />
<glyph unicode="&#xb6;" horiz-adv-x="1667" d="M31 1042q0 190 129 313.5t356 123.5h1022q68 0 68 -68v-111q0 -68 -68 -67h-117q-68 0 -67 -68v-1589q0 -68 -68 -68h-151q-68 0 -68 70v1587q0 68 -68 68h-20q-68 0 -68 -68v-1589q0 -68 -67 -68h-152q-68 0 -67 66v954q0 68 -68 68h-51q-221 0 -348 123.5t-127 322.5z " />
<glyph unicode="&#xb7;" horiz-adv-x="552" d="M102 739q0 80 47.5 127t127 47t127 -47t47.5 -127t-47.5 -127t-127 -47t-127 47t-47.5 127z" />
<glyph unicode="&#xb8;" horiz-adv-x="661" d="M117 -291l28 39q24 33 52 34q20 0 43 -18q39 -33 79 -32q33 0 33 24q0 10 -32.5 28.5t-66.5 48.5t-34 67q0 45 49 100h144q-16 -23 -17 -37q0 -18 25.5 -35.5t56.5 -32t56.5 -54.5t25.5 -99q0 -80 -64.5 -138.5t-162.5 -58.5q-113 0 -195 66q-35 27 -35 58q1 19 15 40z " />
<glyph unicode="&#xb9;" horiz-adv-x="622" d="M78 1260q-12 20 -13 36q0 19 17 33l147 125q25 25 72 25h102q47 0 48 -52v-440q0 -43 43 -43h16q51 0 51 -51v-102q0 -51 -51 -52h-334q-51 0 -51 52v102q0 51 51 51h19q41 0 41 43v172q0 10 -9.5 13.5t-13.5 -3.5l-8 -6q-19 -15 -35 -14q-20 0 -35 22z" />
<glyph unicode="&#xba;" horiz-adv-x="565" d="M31 1271.5q0 282.5 252 282.5t252 -282.5t-252 -282.5t-252 282.5zM236 1271.5q0 -108.5 47 -108.5t47 108.5t-47 108.5t-47 -108.5z" />
<glyph unicode="&#xbb;" horiz-adv-x="1323" d="M106 788q-24 24 -23.5 47t23.5 46l99 100q25 24 49 24q23 0 45 -22l401 -401q25 -25 25 -49t-25 -48l-401 -399q-24 -24 -47 -24l-47 24l-88 86q-24 25 -24 49t24 47l219 217q18 20 18 39q0 18 -16 35zM621 788q-24 24 -24 47t24 46l98 100q24 24 48 24l46 -22l401 -401 q24 -25 24 -49t-24 -48l-401 -399q-24 -24 -47 -24l-47 24l-88 86q-25 25 -25 49t25 47l219 217q18 20 18 39q0 18 -16 35z" />
<glyph unicode="&#xbc;" horiz-adv-x="1452" d="M78 1260q-12 20 -13 36q0 19 17 33l147 125q25 25 72 25h102q47 0 48 -52v-440q0 -43 43 -43h16q51 0 51 -51v-102q0 -51 -51 -52h-334q-51 0 -51 52v102q0 51 51 51h19q41 0 41 43v172q0 10 -9.5 13.5t-13.5 -3.5l-8 -6q-19 -15 -35 -14q-20 0 -35 22zM236 123l778 1347 q21 37 52 38q18 0 40 -13l80 -47q37 -21 37 -54q0 -17 -11 -38l-778 -1346q-22 -37 -53 -37q-19 0 -41 13l-80 45q-37 22 -37 53q0 18 13 39zM803 156v110q0 25 16 64l158 391q13 34 41 34q11 0 24 -5l101 -39q35 -13 34 -42q0 -12 -6 -26l-120 -299q-14 -35 12 -35h2 q27 0 27 33v25q0 49 51 49h112q49 0 50 -49v-25q0 -33 32 -33h2q51 0 52 -51v-102q0 -51 -52 -52h-2q-20 0 -26 -7t-6 -25v-21q0 -51 -50 -51h-112q-51 0 -51 51v21q0 23 -7.5 27.5t-29.5 4.5h-201q-51 1 -51 52z" />
<glyph unicode="&#xbd;" horiz-adv-x="1378" d="M57 1260q-12 20 -12 36q0 19 16 33l148 125q25 25 72 25h102q47 0 47 -52v-440q0 -43 43 -43h16q51 0 52 -51v-102q0 -51 -52 -52h-333q-51 0 -52 52v102q0 51 52 51h18q41 0 41 43v172q0 10 -9 13.5t-13 -3.5l-9 -6q-19 -15 -35 -14q-20 0 -34 22zM195 123l778 1347 q21 37 52 38q18 0 40 -13l80 -47q37 -21 37 -54q0 -17 -11 -38l-778 -1346q-22 -37 -53 -37q-19 0 -41 13l-80 45q-37 22 -37 53q0 18 13 39zM803 51v103q0 35 37 77l235 220q29 29 29 59q0 41 -43 41t-43 -45q0 -49 -51 -49h-111q-51 0 -51 49q0 113 67.5 180.5t188.5 67.5 q117 0 186.5 -65.5t69.5 -174.5q0 -137 -133 -221l-84 -53q-12 -12 -7 -23.5t17 -11.5h156q51 0 51 -51v-103q0 -51 -51 -51h-412q-51 0 -51 51z" />
<glyph unicode="&#xbe;" horiz-adv-x="1497" d="M61 973q0 51 52 51h112q51 0 51 -45t57.5 -45t57.5 45q0 41 -61 41q-20 0 -29.5 1t-18 7t-8.5 21v116q0 18 9.5 26.5t17.5 9.5t29 1q51 0 51 45t-47 45t-47 -45q0 -43 -51 -43h-113q-29 0 -40 10.5t-11 38.5q0 111 69.5 177.5t202.5 66.5q102 0 174 -60.5t72 -142.5 q0 -119 -86 -155q-8 -4 -8 -12.5t8 -10.5q102 -47 102 -158q0 -96 -71.5 -162.5t-198.5 -66.5q-129 0 -202 64.5t-73 179.5zM260 123l778 1347q21 37 52 38q18 0 40 -13l80 -47q37 -21 38 -54q0 -17 -11 -38l-778 -1346q-22 -37 -54 -37q-19 0 -40 13l-80 45q-37 22 -38 53 q0 18 13 39zM848 156v110q0 25 16 64l158 391q13 34 41 34q11 0 24 -5l101 -39q35 -13 35 -42q0 -12 -6 -26l-121 -299q-14 -35 12 -35h2q27 0 27 33v25q0 49 51 49h112q49 0 50 -49v-25q0 -33 32 -33h2q51 0 52 -51v-102q0 -51 -52 -52h-2q-20 0 -26 -7t-6 -25v-21 q0 -51 -50 -51h-112q-51 0 -51 51v21q0 23 -7.5 27.5t-29.5 4.5h-201q-51 1 -51 52z" />
<glyph unicode="&#xbf;" horiz-adv-x="1128" d="M102 -31q0 94 34 165t82 111t97.5 72.5t85 70.5t39.5 85l4 62q6 61 68 61h104q61 0 66 -68l6 -75q1 -12 1 -25q0 -53 -22 -97q-28 -54 -71 -92t-87 -73t-76 -80t-32 -98q0 -57 40 -104.5t108 -47.5q76 0 127 44t51 134q0 68 68 68h163q68 0 68 -68q0 -205 -126 -332.5 t-351 -127.5q-199 0 -323 129.5t-124 285.5zM389 897q0 80 47 127t127 47t127 -47t47 -127t-47 -127t-127 -47t-127 47t-47 127z" />
<glyph unicode="&#xc0;" horiz-adv-x="1185" d="M27 100l405 1325q16 53 66 54h180q59 0 76 -54l405 -1325q5 -16 5 -28q0 -41 -50 -56l-158 -47q-16 -4 -28 -4q-43 0 -56 47l-47 185q-10 43 -65 43h-334q-55 0 -66 -43l-47 -185q-12 -50 -51 -49q-14 0 -33 6l-157 47q-49 16 -50 58q1 12 5 26zM246 1763l55 119 q14 36 45 36q19 0 43 -13l365 -205q30 -14 30 -39q0 -13 -8 -29l-22 -53q-14 -31 -46 -31q-14 0 -32 6l-397 132q-41 16 -41 46q0 14 8 31zM465 598q-5 -15 -5 -27q0 -15 7 -27q12 -22 47 -22h166q47 0 47 42q0 15 -6 34l-90 344q-6 33 -36 33t-40 -33z" />
<glyph unicode="&#xc1;" horiz-adv-x="1185" d="M27 100l405 1325q16 53 66 54h180q59 0 76 -54l405 -1325q5 -16 5 -28q0 -41 -50 -56l-158 -47q-16 -4 -28 -4q-43 0 -56 47l-47 185q-10 43 -65 43h-334q-55 0 -66 -43l-47 -185q-12 -50 -51 -49q-14 0 -33 6l-157 47q-49 16 -50 58q1 12 5 26zM416 1632q-8 16 -8 29 q0 25 30 39l365 205q25 13 43 13q31 0 45 -36l55 -119q8 -17 8 -31q0 -31 -41 -46l-397 -132q-18 -6 -32 -6q-32 0 -46 31zM465 598q-5 -15 -5 -27q0 -15 7 -27q12 -22 47 -22h166q47 0 47 42q0 15 -6 34l-90 344q-6 33 -36 33t-40 -33z" />
<glyph unicode="&#xc2;" horiz-adv-x="1185" d="M27 100l405 1325q16 53 66 54h180q59 0 76 -54l405 -1325q5 -16 5 -28q0 -41 -50 -56l-158 -47q-16 -4 -28 -4q-43 0 -56 47l-47 185q-10 43 -65 43h-334q-55 0 -66 -43l-47 -185q-12 -50 -51 -49q-14 0 -33 6l-157 47q-49 16 -50 58q1 12 5 26zM221 1610q-13 18 -13 33 q0 20 23 36l295 195q34 23 67.5 22.5t65.5 -22.5l295 -195q23 -16 24 -36q0 -15 -13 -33l-31 -51q-14 -19 -36 -20q-13 0 -30 7l-235 90q-19 8 -39.5 8.5t-40.5 -8.5l-236 -90q-16 -6 -29 -6q-23 0 -36 19zM465 598q-5 -15 -5 -27q0 -15 7 -27q12 -22 47 -22h166q47 0 47 42 q0 15 -6 34l-90 344q-6 33 -36 33t-40 -33z" />
<glyph unicode="&#xc3;" horiz-adv-x="1185" d="M27 100l405 1325q16 53 66 54h180q59 0 76 -54l405 -1325q5 -16 5 -28q0 -41 -50 -56l-158 -47q-16 -4 -28 -4q-43 0 -56 47l-47 185q-10 43 -65 43h-334q-55 0 -66 -43l-47 -185q-12 -50 -51 -49q-14 0 -33 6l-157 47q-49 16 -50 58q1 12 5 26zM186 1700 q104 178 252 178q72 0 137.5 -34t110.5 -67.5t69.5 -33.5t42 15.5t48.5 58.5q15 24 41 24q22 0 51 -18l43 -27q32 -20 32 -51q0 -21 -16 -47q-111 -178 -252 -178q-72 0 -137 33.5t-110 67.5t-70 34q-41 0 -90 -74q-16 -25 -42 -25q-22 0 -50 19l-43 27q-33 22 -34 51 q0 21 17 47zM465 598q-5 -15 -5 -27q0 -15 7 -27q12 -22 47 -22h166q47 0 47 42q0 15 -6 34l-90 344q-6 33 -36 33t-40 -33z" />
<glyph unicode="&#xc4;" horiz-adv-x="1185" d="M27 100l405 1325q16 53 66 54h180q59 0 76 -54l405 -1325q5 -16 5 -28q0 -41 -50 -56l-158 -47q-16 -4 -28 -4q-43 0 -56 47l-47 185q-10 43 -65 43h-334q-55 0 -66 -43l-47 -185q-12 -50 -51 -49q-14 0 -33 6l-157 47q-49 16 -50 58q1 12 5 26zM184 1714q0 72 43 115 t115 43t115 -43t43 -115t-43 -115t-115 -43t-115 43t-43 115zM465 598q-5 -15 -5 -27q0 -15 7 -27q12 -22 47 -22h166q47 0 47 42q0 15 -6 34l-90 344q-6 33 -36 33t-40 -33zM688 1714q0 72 43 115t115 43t115 -43t43 -115t-43 -115t-115 -43t-115 43t-43 115z" />
<glyph unicode="&#xc5;" horiz-adv-x="1185" d="M27 100l405 1325q16 53 66 54h180q59 0 76 -54l405 -1325q5 -16 5 -28q0 -41 -50 -56l-158 -47q-16 -4 -28 -4q-43 0 -56 47l-47 185q-10 43 -65 43h-334q-55 0 -66 -43l-47 -185q-12 -50 -51 -49q-14 0 -33 6l-157 47q-49 16 -50 58q1 12 5 26zM358 1735 q0 100 64.5 158.5t171.5 58.5q109 0 173 -58.5t64 -158.5q0 -98 -64.5 -156.5t-172.5 -58.5q-106 0 -171 58.5t-65 156.5zM465 598q-5 -15 -5 -27q0 -15 7 -27q12 -22 47 -22h166q47 0 47 42q0 15 -6 34l-90 344q-6 33 -36 33t-40 -33zM522 1737q0 -70 74 -70 q33 0 53.5 18.5t20.5 51.5q0 31 -20.5 50t-53.5 19q-35 0 -54.5 -19t-19.5 -50z" />
<glyph unicode="&#xc6;" horiz-adv-x="1779" d="M12 143l666 1278q18 35 35.5 46.5t56.5 11.5h881q68 0 67 -68v-147q0 -68 -67 -68h-434q-68 0 -68 -70v-176q0 -70 68 -69h301q68 0 67 -68v-147q0 -68 -67 -68h-301q-68 0 -68 -70v-176q0 -70 68 -69h434q68 0 67 -68v-147q0 -68 -67 -68h-733q-68 0 -68 68v102 q0 70 -68 70h-313q-45 0 -64.5 -11.5t-37.5 -48.5l-91 -172q-22 -40 -55 -40q-16 0 -35 9l-147 78q-37 20 -37 52q-1 16 10 36zM563 548q10 -26 47 -26h172q63 0 68 70v442q0 29 -25 34q-4 1 -7 1q-20 0 -32 -25l-217 -442q-10 -18 -10 -34q0 -10 4 -20z" />
<glyph unicode="&#xc7;" horiz-adv-x="1177" d="M61 739q0 197 46.5 346.5t127 238.5t182 132t222.5 43q215 0 351 -131q145 -139 145 -333q0 -64 -68 -64h-164q-33 0 -48 14t-19 45q-10 74 -64.5 130.5t-132.5 56.5q-121 0 -200 -110t-79 -368t79 -367.5t200 -109.5q78 0 132 56.5t65 130.5q4 31 19 45t48 14h164 q68 0 68 -64q0 -174 -122 -310q-114 -126 -298 -148q-6 -12 -6 -23q0 -18 25.5 -35.5t56 -32t56 -54.5t25.5 -99q0 -80 -64.5 -138.5t-162.5 -58.5q-113 0 -194 66q-35 27 -35 58q0 20 14 40l29 39q24 33 52 34q20 0 42 -18q39 -33 80 -32q33 0 33 24q0 10 -34 28.5 t-67 48.5t-33 67q0 41 35 84q-227 25 -366.5 212t-139.5 543z" />
<glyph unicode="&#xc8;" horiz-adv-x="1073" d="M143 68v1343q0 68 68 68h733q68 0 68 -68v-147q0 -68 -68 -68h-434q-68 0 -68 -70v-176q0 -70 68 -69h301q68 0 68 -68v-147q0 -68 -68 -68h-301q-68 0 -68 -70v-176q0 -70 68 -69h434q68 0 68 -68v-147q0 -68 -68 -68h-733q-68 0 -68 68zM254 1763l55 119q14 36 45 36 q19 0 43 -13l365 -205q30 -14 30 -39q0 -13 -8 -29l-22 -53q-14 -31 -46 -31q-14 0 -32 6l-397 132q-41 16 -41 46q0 14 8 31z" />
<glyph unicode="&#xc9;" horiz-adv-x="1073" d="M143 68v1343q0 68 68 68h733q68 0 68 -68v-147q0 -68 -68 -68h-434q-68 0 -68 -70v-176q0 -70 68 -69h301q68 0 68 -68v-147q0 -68 -68 -68h-301q-68 0 -68 -70v-176q0 -70 68 -69h434q68 0 68 -68v-147q0 -68 -68 -68h-733q-68 0 -68 68zM315 1632q-8 16 -7 29 q0 25 30 39l364 205q25 13 44 13q31 0 45 -36l55 -119q8 -17 8 -31q0 -31 -41 -46l-397 -132q-18 -6 -32 -6q-32 0 -46 31z" />
<glyph unicode="&#xca;" horiz-adv-x="1073" d="M143 68v1343q0 68 68 68h733q68 0 68 -68v-147q0 -68 -68 -68h-434q-68 0 -68 -70v-176q0 -70 68 -69h301q68 0 68 -68v-147q0 -68 -68 -68h-301q-68 0 -68 -70v-176q0 -70 68 -69h434q68 0 68 -68v-147q0 -68 -68 -68h-733q-68 0 -68 68zM197 1610q-13 18 -14 33 q0 20 24 36l295 195q34 23 67 22.5t66 -22.5l295 -195q23 -16 23 -36q0 -15 -13 -33l-31 -51q-14 -19 -36 -20q-13 0 -29 7l-236 90q-19 8 -39 8.5t-41 -8.5l-235 -90q-16 -6 -30 -6q-23 0 -36 19z" />
<glyph unicode="&#xcb;" horiz-adv-x="1073" d="M143 68v1343q0 68 68 68h733q68 0 68 -68v-147q0 -68 -68 -68h-434q-68 0 -68 -70v-176q0 -70 68 -69h301q68 0 68 -68v-147q0 -68 -68 -68h-301q-68 0 -68 -70v-176q0 -70 68 -69h434q68 0 68 -68v-147q0 -68 -68 -68h-733q-68 0 -68 68zM164 1714q0 72 43 115t114.5 43 t114.5 -43t43 -115t-43 -115t-114.5 -43t-114.5 43t-43 115zM668 1714q0 72 43 115t114.5 43t114.5 -43t43 -115t-43 -115t-114.5 -43t-114.5 43t-43 115z" />
<glyph unicode="&#xcc;" horiz-adv-x="864" d="M59 1763l56 119q14 36 44 36q19 0 44 -13l364 -205q30 -14 30 -39q0 -13 -7 -29l-23 -53q-14 -31 -45 -31q-14 0 -33 6l-397 132q-41 16 -41 46q0 14 8 31zM82 68v147q0 68 68 68h65q68 0 68 69v774q0 70 -68 70h-65q-68 0 -68 68v147q0 68 68 68h565q68 0 67 -68v-147 q0 -68 -67 -68h-66q-68 0 -67 -70v-774q0 -70 67 -69h66q68 0 67 -68v-147q0 -68 -67 -68h-565q-68 0 -68 68z" />
<glyph unicode="&#xcd;" horiz-adv-x="864" d="M82 68v147q0 68 68 68h65q68 0 68 69v774q0 70 -68 70h-65q-68 0 -68 68v147q0 68 68 68h565q68 0 67 -68v-147q0 -68 -67 -68h-66q-68 0 -67 -70v-774q0 -70 67 -69h66q68 0 67 -68v-147q0 -68 -67 -68h-565q-68 0 -68 68zM274 1632q-8 16 -7 29q0 25 30 39l365 205 q25 13 43 13q31 0 45 -36l55 -119q8 -17 8 -31q0 -31 -41 -46l-397 -132q-18 -6 -32 -6q-32 0 -46 31z" />
<glyph unicode="&#xce;" horiz-adv-x="864" d="M63 1610q-13 18 -13 33q0 20 24 36l295 195q34 23 67 22.5t66 -22.5l295 -195q23 -16 23 -36q0 -15 -13 -33l-31 -51q-14 -19 -36 -20q-13 0 -29 7l-236 90q-20 8 -40 8.5t-40 -8.5l-235 -90q-16 -6 -30 -6q-23 0 -36 19zM82 68v147q0 68 68 68h65q68 0 68 69v774 q0 70 -68 70h-65q-68 0 -68 68v147q0 68 68 68h565q68 0 67 -68v-147q0 -68 -67 -68h-66q-68 0 -67 -70v-774q0 -70 67 -69h66q68 0 67 -68v-147q0 -68 -67 -68h-565q-68 0 -68 68z" />
<glyph unicode="&#xcf;" horiz-adv-x="864" d="M25 1714q0 72 43 115t114.5 43t114.5 -43t43 -115t-43 -115t-114.5 -43t-114.5 43t-43 115zM82 68v147q0 68 68 68h65q68 0 68 69v774q0 70 -68 70h-65q-68 0 -68 68v147q0 68 68 68h565q68 0 67 -68v-147q0 -68 -67 -68h-66q-68 0 -67 -70v-774q0 -70 67 -69h66 q68 0 67 -68v-147q0 -68 -67 -68h-565q-68 0 -68 68zM528 1714q0 72 43 115t115 43t115 -43t43 -115t-43 -115t-115 -43t-115 43t-43 115z" />
<glyph unicode="&#xd0;" horiz-adv-x="1251" d="M0 696v90q0 68 68 68h75v559q0 66 70 66h354q301 0 462 -201t161 -539q0 -340 -162 -539.5t-461 -199.5h-356q-68 0 -68 68v561h-75q-68 -1 -68 67zM442 352q0 -70 68 -69h51q170 0 250 110.5t80 345.5q0 223 -74 340t-256 117h-51q-68 0 -68 -70v-272h158q68 0 68 -68 v-90q0 -68 -68 -67h-158v-277z" />
<glyph unicode="&#xd1;" horiz-adv-x="1347" d="M143 68v1343q0 68 68 68h190q70 0 99 -62l348 -733q10 -20 33.5 -18t23.5 30v715q0 68 68 68h164q68 0 67 -68v-1343q0 -68 -67 -68h-191q-70 0 -98 61l-348 736q-10 20 -34 18t-24 -31v-716q0 -68 -67 -68h-164q-68 0 -68 68zM268 1700q104 178 252 178q72 0 137.5 -34 t110.5 -67.5t69.5 -33.5t42 15.5t48.5 58.5q15 24 41 24q22 0 51 -18l43 -27q32 -20 32 -51q0 -21 -16 -47q-111 -178 -252 -178q-72 0 -137 33.5t-110 67.5t-70 34q-41 0 -90 -74q-16 -25 -42 -25q-22 0 -50 19l-43 27q-33 22 -34 51q0 21 17 47z" />
<glyph unicode="&#xd2;" horiz-adv-x="1271" d="M61 737q0 381 158 571.5t420 190.5q254 0 412.5 -196.5t158.5 -567t-156.5 -563t-414.5 -192.5q-262 0 -420 192t-158 565zM313 1763l56 119q14 36 44 36q19 0 44 -13l364 -205q30 -14 30 -39q0 -13 -7 -29l-23 -53q-14 -31 -45 -31q-14 0 -33 6l-397 132q-41 16 -41 46 q0 14 8 31zM360 737q0 -238 76 -356.5t203 -118.5q123 0 197.5 120t74.5 353q0 236 -75.5 359t-196.5 123q-127 0 -203 -119t-76 -361z" />
<glyph unicode="&#xd3;" horiz-adv-x="1271" d="M61 737q0 381 158 571.5t420 190.5q254 0 412.5 -196.5t158.5 -567t-156.5 -563t-414.5 -192.5q-262 0 -420 192t-158 565zM360 737q0 -238 76 -356.5t203 -118.5q123 0 197.5 120t74.5 353q0 236 -75.5 359t-196.5 123q-127 0 -203 -119t-76 -361zM432 1632q-8 16 -7 29 q0 25 30 39l364 205q25 13 44 13q31 0 44 -36l56 -119q8 -17 8 -31q0 -31 -41 -46l-398 -132q-18 -6 -32 -6q-32 0 -45 31z" />
<glyph unicode="&#xd4;" horiz-adv-x="1271" d="M61 737q0 381 158 571.5t420 190.5q254 0 412.5 -196.5t158.5 -567t-156.5 -563t-414.5 -192.5q-262 0 -420 192t-158 565zM270 1610q-13 18 -13 33q0 20 24 36l294 195q34 23 67.5 22.5t66.5 -22.5l295 -195q23 -16 23 -36q0 -15 -13 -33l-31 -51q-14 -19 -36 -20 q-13 0 -29 7l-236 90q-19 8 -39 8.5t-41 -8.5l-235 -90q-16 -6 -30 -6q-23 0 -36 19zM360 737q0 -238 76 -356.5t203 -118.5q123 0 197.5 120t74.5 353q0 236 -75.5 359t-196.5 123q-127 0 -203 -119t-76 -361z" />
<glyph unicode="&#xd5;" horiz-adv-x="1271" d="M61 737q0 381 158 571.5t420 190.5q254 0 412.5 -196.5t158.5 -567t-156.5 -563t-414.5 -192.5q-262 0 -420 192t-158 565zM229 1700q104 178 252 178q72 0 137.5 -34t110.5 -67.5t69.5 -33.5t42 15.5t48.5 58.5q15 24 41 24q22 0 51 -18l43 -27q32 -20 32 -51 q0 -21 -16 -47q-111 -178 -252 -178q-72 0 -137 33.5t-110 67.5t-70 34q-41 0 -90 -74q-16 -25 -42 -25q-22 0 -50 19l-43 27q-33 22 -34 51q0 21 17 47zM360 737q0 -238 76 -356.5t203 -118.5q123 0 197.5 120t74.5 353q0 236 -75.5 359t-196.5 123q-127 0 -203 -119 t-76 -361z" />
<glyph unicode="&#xd6;" horiz-adv-x="1271" d="M61 737q0 381 158 571.5t420 190.5q254 0 412.5 -196.5t158.5 -567t-156.5 -563t-414.5 -192.5q-262 0 -420 192t-158 565zM221 1714q0 72 43 115t115 43t115 -43t43 -114.5t-43 -115t-115 -43.5t-115 43t-43 115zM360 737q0 -238 76 -356.5t203 -118.5q123 0 197.5 120 t74.5 353q0 236 -75.5 359t-196.5 123q-127 0 -203 -119t-76 -361zM725 1714q0 72 43 115t114.5 43t114.5 -43t43 -114.5t-43 -115t-114.5 -43.5t-114.5 43t-43 115z" />
<glyph unicode="&#xd7;" d="M84 918q-24 24 -24 47t24 47l94 94q24 24 47 23l47 -23l146 -145q25 -24 48.5 -24t47.5 24l139 141q25 24 49 23.5t48 -23.5l92 -94q25 -25 24.5 -48.5t-24.5 -46.5l-140 -141q-24 -24 -23.5 -48t23.5 -48l146 -146q25 -24 24.5 -47.5t-24.5 -48.5l-92 -92 q-24 -24 -48 -24t-49 24l-145 145q-24 25 -48 25t-48 -25l-142 -139q-23 -25 -46 -24.5t-48 24.5l-94 92q-24 24 -23.5 48t23.5 49l141 139q25 25 25 49t-25 47z" />
<glyph unicode="&#xd8;" horiz-adv-x="1271" d="M61 737q0 381 158 571.5t420 190.5q109 0 207 -41l57 123q20 42 54 42q16 0 36 -9l82 -39q42 -20 42 -53q0 -16 -9 -35l-76 -164q178 -201 178 -588q0 -371 -156.5 -563t-414.5 -192q-111 0 -215 38l-57 -124q-20 -42 -55 -42q-16 0 -36 9l-81 39q-42 20 -42 53 q0 16 9 35l76 162q-177 198 -177 587zM360 737q0 -152 31 -254l334 715q-41 18 -86 19q-127 0 -203 -119t-76 -361zM547 281q43 -18 92 -19q123 0 197.5 120t74.5 353q0 147 -32 258z" />
<glyph unicode="&#xd9;" horiz-adv-x="1265" d="M123 457v954q0 68 67 68h164q68 0 68 -68v-960q0 -90 59.5 -139.5t151.5 -49.5q90 0 150.5 49t60.5 140v960q0 68 67 68h164q68 0 68 -68v-954q0 -219 -136.5 -348t-376 -129t-373.5 129t-134 348zM266 1763l56 119q14 36 44 36q19 0 44 -13l364 -205q30 -14 30 -39 q0 -13 -7 -29l-23 -53q-14 -31 -45 -31q-14 0 -33 6l-397 132q-41 16 -41 46q0 14 8 31z" />
<glyph unicode="&#xda;" horiz-adv-x="1265" d="M123 457v954q0 68 67 68h164q68 0 68 -68v-960q0 -90 59.5 -139.5t151.5 -49.5q90 0 150.5 49t60.5 140v960q0 68 67 68h164q68 0 68 -68v-954q0 -219 -136.5 -348t-376 -129t-373.5 129t-134 348zM469 1632q-8 16 -8 29q0 25 31 39l364 205q25 13 43 13q31 0 45 -36 l55 -119q8 -17 9 -31q0 -31 -41 -46l-398 -132q-18 -6 -32 -6q-32 0 -45 31z" />
<glyph unicode="&#xdb;" horiz-adv-x="1265" d="M123 457v954q0 68 67 68h164q68 0 68 -68v-960q0 -90 59.5 -139.5t151.5 -49.5q90 0 150.5 49t60.5 140v960q0 68 67 68h164q68 0 68 -68v-954q0 -219 -136.5 -348t-376 -129t-373.5 129t-134 348zM262 1610q-13 18 -13 33q0 20 23 36l295 195q34 23 67.5 22.5 t65.5 -22.5l295 -195q23 -16 24 -36q0 -15 -13 -33l-31 -51q-14 -19 -36 -20q-13 0 -30 7l-235 90q-19 8 -39.5 8.5t-40.5 -8.5l-236 -90q-16 -6 -29 -6q-23 0 -36 19z" />
<glyph unicode="&#xdc;" horiz-adv-x="1265" d="M123 457v954q0 68 67 68h164q68 0 68 -68v-960q0 -90 59.5 -139.5t151.5 -49.5q90 0 150.5 49t60.5 140v960q0 68 67 68h164q68 0 68 -68v-954q0 -219 -136.5 -348t-376 -129t-373.5 129t-134 348zM223 1708q0 72 43 115t115 43t115 -43t43 -115t-43 -115t-115 -43 t-115 43t-43 115zM727 1708q0 72 43 115t114.5 43t114.5 -43t43 -115t-43 -115t-114.5 -43t-114.5 43t-43 115z" />
<glyph unicode="&#xdd;" horiz-adv-x="1120" d="M25 1321q-13 21 -13 38q0 31 39 52l152 82q22 12 40 12q32 0 52 -37l250 -507q10 -16 26.5 -16.5t26.5 16.5l244 499q22 40 56 40q17 0 36 -9l135 -74q41 -20 41 -51q0 -17 -12 -39l-369 -694q-16 -27 -16 -53v-512q0 -68 -68 -68h-164q-68 0 -67 68v499q0 25 -17 51z M424 1632q-8 16 -8 29q0 25 30 39l365 205q25 13 43 13q31 0 45 -36l55 -119q8 -17 9 -31q0 -31 -41 -46l-398 -132q-18 -6 -32 -6q-32 0 -46 31z" />
<glyph unicode="&#xde;" horiz-adv-x="1138" d="M143 68v1343q0 68 68 68h164q68 0 67 -68v-133q0 -70 68 -70h100q223 0 355.5 -122.5t132.5 -346.5q0 -207 -132 -339t-360 -132h-96q-68 0 -68 -69v-131q0 -68 -67 -68h-164q-68 0 -68 68zM442 621q0 -70 68 -70h98q88 0 139.5 53t51.5 133q0 188 -191 189h-98 q-68 0 -68 -70v-235z" />
<glyph unicode="&#xdf;" horiz-adv-x="1058" d="M102 1067q0 201 110 316.5t290 115.5q170 0 284.5 -108.5t114.5 -268.5q0 -74 -23.5 -132t-51 -89t-51 -65.5t-23.5 -65.5q0 -33 27.5 -60.5t66.5 -53t78 -58.5t66.5 -90t27.5 -133q0 -156 -115 -265.5t-278 -109.5h-78q-68 0 -68 68v110q0 68 68 68h74q53 0 81.5 32.5 t28.5 79.5q0 43 -42 84t-91 73t-91 98.5t-42 156.5q0 74 38 140.5t74.5 121.5t36.5 103q0 41 -32.5 69.5t-79.5 28.5q-45 0 -79 -36t-34 -103v-1022q0 -43 -13.5 -57.5t-45.5 -14.5h-164q-37 0 -50.5 17.5t-13.5 54.5v995z" />
<glyph unicode="&#xe0;" horiz-adv-x="1038" d="M61 297q0 186 117 265t367 79h76q29 0 28 29v26q0 129 -143 129q-117 0 -256 -69q-19 -10 -35 -10q-35 0 -53 47l-43 98q-10 18 -4 46t32 40q213 104 402 104q115 0 193.5 -33.5t119.5 -98t57.5 -139.5t16.5 -175v-567q0 -68 -68 -68h-131q-47 0 -63 39l-6 14 q-16 31 -45 10q-125 -84 -265 -83q-127 0 -212 89t-85 228zM283 1432l73 106q18 28 44 28q22 0 49 -22l323 -264q23 -16 24 -37q0 -15 -14 -33l-32 -49q-15 -23 -40 -23q-18 0 -40 13l-369 197q-32 20 -32 46q0 18 14 38zM348 311q0 -102 119 -102q84 0 143 55q39 35 39 90 v23q0 35 -35 35h-131q-135 -1 -135 -101z" />
<glyph unicode="&#xe1;" horiz-adv-x="1038" d="M61 297q0 186 117 265t367 79h76q29 0 28 29v26q0 129 -143 129q-117 0 -256 -69q-19 -10 -35 -10q-35 0 -53 47l-43 98q-10 18 -4 46t32 40q213 104 402 104q115 0 193.5 -33.5t119.5 -98t57.5 -139.5t16.5 -175v-567q0 -68 -68 -68h-131q-47 0 -63 39l-6 14 q-16 31 -45 10q-125 -84 -265 -83q-127 0 -212 89t-85 228zM315 1210q-13 18 -13 33q0 20 24 37l323 264q27 22 49 22q25 0 43 -28l74 -106q14 -20 14 -38q0 -27 -32 -46l-369 -197q-23 -13 -41 -13q-24 0 -39 23zM348 311q0 -102 119 -102q84 0 143 55q39 35 39 90v23 q0 35 -35 35h-131q-135 -1 -135 -101z" />
<glyph unicode="&#xe2;" horiz-adv-x="1038" d="M61 297q0 186 117 265t367 79h76q29 0 28 29v26q0 129 -143 129q-117 0 -256 -69q-19 -10 -35 -10q-35 0 -53 47l-43 98q-10 18 -4 46t32 40q213 104 402 104q115 0 193.5 -33.5t119.5 -98t57.5 -139.5t16.5 -175v-567q0 -68 -68 -68h-131q-47 0 -63 39l-6 14 q-16 31 -45 10q-125 -84 -265 -83q-127 0 -212 89t-85 228zM170 1204q-13 18 -13 33q0 20 23 37l285 235q33 28 66 28t67 -28l285 -235q23 -16 23 -37q0 -15 -13 -33l-37 -51q-16 -22 -36 -22q-14 0 -29 10l-220 131q-19 12 -39 12t-40 -12l-220 -131q-16 -9 -29 -9 q-21 0 -36 21zM348 311q0 -102 119 -102q84 0 143 55q39 35 39 90v23q0 35 -35 35h-131q-135 -1 -135 -101z" />
<glyph unicode="&#xe3;" horiz-adv-x="1038" d="M61 297q0 186 117 265t367 79h76q29 0 28 29v26q0 129 -143 129q-117 0 -256 -69q-19 -10 -35 -10q-35 0 -53 47l-43 98q-10 18 -4 46t32 40q213 104 402 104q115 0 193.5 -33.5t119.5 -98t57.5 -139.5t16.5 -175v-567q0 -68 -68 -68h-131q-47 0 -63 39l-6 14 q-16 31 -45 10q-125 -84 -265 -83q-127 0 -212 89t-85 228zM152 1331q55 96 107 137t124 41t132 -33.5t100 -67.5t65 -34t42 15.5t48 58.5q15 24 41 24q22 0 51 -18l43 -27q32 -20 33 -50q0 -21 -16 -48q-63 -102 -112.5 -140t-119.5 -38q-72 0 -132 34t-100 67.5t-65 33.5 q-41 0 -90 -74q-16 -25 -42 -25q-22 0 -50 19l-43 27q-33 22 -34 51q1 21 18 47zM348 311q0 -102 119 -102q84 0 143 55q39 35 39 90v23q0 35 -35 35h-131q-135 -1 -135 -101z" />
<glyph unicode="&#xe4;" horiz-adv-x="1038" d="M61 297q0 186 117 265t367 79h76q29 0 28 29v26q0 129 -143 129q-117 0 -256 -69q-19 -10 -35 -10q-35 0 -53 47l-43 98q-10 18 -4 46t32 40q213 104 402 104q115 0 193.5 -33.5t119.5 -98t57.5 -139.5t16.5 -175v-567q0 -68 -68 -68h-131q-47 0 -63 39l-6 14 q-16 31 -45 10q-125 -84 -265 -83q-127 0 -212 89t-85 228zM133 1341.5q0 71.5 43 114.5t114.5 43t115 -43t43.5 -114.5t-43.5 -114.5t-115 -43t-114.5 43t-43 114.5zM348 311q0 -102 119 -102q84 0 143 55q39 35 39 90v23q0 35 -35 35h-131q-135 -1 -135 -101zM596 1341.5 q0 71.5 43 114.5t114.5 43t114.5 -43t43 -114.5t-43 -114.5t-114.5 -43t-114.5 43t-43 114.5z" />
<glyph unicode="&#xe5;" horiz-adv-x="1038" d="M61 297q0 186 117 265t367 79h76q29 0 28 29v26q0 129 -143 129q-117 0 -256 -69q-19 -10 -35 -10q-35 0 -53 47l-43 98q-10 18 -4 46t32 40q213 104 402 104q115 0 193.5 -33.5t119.5 -98t57.5 -139.5t16.5 -175v-567q0 -68 -68 -68h-131q-47 0 -63 39l-6 14 q-16 31 -45 10q-125 -84 -265 -83q-127 0 -212 89t-85 228zM297 1343q0 100 64.5 159t170.5 59q109 0 173.5 -58.5t64.5 -159.5q0 -98 -64.5 -156.5t-173.5 -58.5q-106 0 -170.5 58.5t-64.5 156.5zM348 311q0 -102 119 -102q84 0 143 55q39 35 39 90v23q0 35 -35 35h-131 q-135 -1 -135 -101zM461 1346q0 -70 74 -70q33 0 53 18.5t20 51.5q0 31 -20.5 50t-52.5 19q-35 0 -54.5 -19t-19.5 -50z" />
<glyph unicode="&#xe6;" horiz-adv-x="1603" d="M82 297q0 186 116.5 265t366.5 79h76q29 0 29 29v26q0 129 -144 129q-117 0 -256 -69q-19 -10 -35 -10q-35 0 -53 47l-43 98q-10 18 -4 46t33 40q213 104 401 104q147 0 262 -98q18 -12 33 0q127 98 266 98q412 0 412 -561v-65q0 -20 -16.5 -34.5t-36.5 -14.5h-481 q-35 0 -35 -31q0 -7 2 -17q14 -59 68.5 -90.5t119.5 -31.5q25 0 48.5 4t49 14t40 15t41.5 20l32 16q18 9 34 9q35 0 54 -46l43 -98q6 -16 6 -29q0 -39 -47 -63q-63 -33 -97 -48.5t-98.5 -32.5t-127.5 -17q-229 0 -353 143q-16 12 -32 0q-162 -143 -344 -143q-156 0 -243 87 t-87 230zM369 311q0 -102 118 -102q84 0 144 55q39 35 39 90v23q0 35 -35 35h-131q-135 -1 -135 -101zM969 678q0 -43 41 -43h192q41 0 41 43q0 72 -39 115t-98 43t-98 -43t-39 -115z" />
<glyph unicode="&#xe7;" horiz-adv-x="997" d="M61 530q0 274 111 412.5t350 138.5q186 0 295 -98t119 -270q0 -70 -64 -70h-143q-63 0 -74 47q-27 145 -133 146q-174 0 -174 -305.5t174 -305.5q106 0 133 146q10 47 74 47h143q63 0 64 -70q-10 -156 -101.5 -252t-246.5 -112q-4 -16 -4 -21q0 -18 25.5 -35.5t56 -32 t56.5 -54.5t26 -99q0 -80 -65 -138.5t-163 -58.5q-113 0 -194 66q-57 45 -21 98l29 39q41 57 94 16q39 -33 80 -32q33 0 33 24q0 10 -33 28.5t-66.5 48.5t-33.5 67q0 41 34 84q-381 42 -381 546z" />
<glyph unicode="&#xe8;" horiz-adv-x="995" d="M61 514q0 285 120 426t341 141q412 0 412 -561v-65q0 -20 -16.5 -34.5t-36.5 -14.5h-482q-35 0 -34 -31q0 -7 2 -17q14 -59 68 -90.5t120 -31.5q25 0 48.5 4t49 14t40 15t41.5 20l32 16q18 9 33 9q35 0 55 -46l43 -98q6 -16 6 -29q0 -39 -47 -63q-63 -33 -97 -48.5 t-98.5 -32.5t-128.5 -17q-209 0 -340 123.5t-131 410.5zM211 1432l74 106q18 28 43 28q22 0 49 -22l323 -264q23 -16 24 -37q0 -15 -13 -33l-33 -49q-15 -23 -39 -23q-18 0 -41 13l-369 197q-32 20 -32 46q0 18 14 38zM360 678q0 -43 41 -43h193q41 0 41 43q0 72 -39 115 t-98.5 43t-98.5 -43t-39 -115z" />
<glyph unicode="&#xe9;" horiz-adv-x="995" d="M61 514q0 285 120 426t341 141q412 0 412 -561v-65q0 -20 -16.5 -34.5t-36.5 -14.5h-482q-35 0 -34 -31q0 -7 2 -17q14 -59 68 -90.5t120 -31.5q25 0 48.5 4t49 14t40 15t41.5 20l32 16q18 9 33 9q35 0 55 -46l43 -98q6 -16 6 -29q0 -39 -47 -63q-63 -33 -97 -48.5 t-98.5 -32.5t-128.5 -17q-209 0 -340 123.5t-131 410.5zM319 1210q-13 18 -13 33q0 20 24 37l323 264q27 22 49 22q25 0 43 -28l74 -106q14 -20 14 -38q0 -27 -32 -46l-369 -197q-23 -13 -41 -13q-24 0 -39 23zM360 678q0 -43 41 -43h193q41 0 41 43q0 72 -39 115t-98.5 43 t-98.5 -43t-39 -115z" />
<glyph unicode="&#xea;" horiz-adv-x="995" d="M61 514q0 285 120 426t341 141q412 0 412 -561v-65q0 -20 -16.5 -34.5t-36.5 -14.5h-482q-35 0 -34 -31q0 -7 2 -17q14 -59 68 -90.5t120 -31.5q25 0 48.5 4t49 14t40 15t41.5 20l32 16q18 9 33 9q35 0 55 -46l43 -98q6 -16 6 -29q0 -39 -47 -63q-63 -33 -97 -48.5 t-98.5 -32.5t-128.5 -17q-209 0 -340 123.5t-131 410.5zM154 1204q-13 18 -14 33q0 20 24 37l285 235q33 28 66 28t67 -28l284 -235q23 -16 24 -37q0 -15 -13 -33l-37 -51q-16 -22 -37 -22q-14 0 -29 10l-219 131q-19 12 -39 12t-41 -12l-219 -131q-16 -9 -30 -9 q-21 0 -36 21zM360 678q0 -43 41 -43h193q41 0 41 43q0 72 -39 115t-98.5 43t-98.5 -43t-39 -115z" />
<glyph unicode="&#xeb;" horiz-adv-x="995" d="M61 514q0 285 120 426t341 141q412 0 412 -561v-65q0 -20 -16.5 -34.5t-36.5 -14.5h-482q-35 0 -34 -31q0 -7 2 -17q14 -59 68 -90.5t120 -31.5q25 0 48.5 4t49 14t40 15t41.5 20l32 16q18 9 33 9q35 0 55 -46l43 -98q6 -16 6 -29q0 -39 -47 -63q-63 -33 -97 -48.5 t-98.5 -32.5t-128.5 -17q-209 0 -340 123.5t-131 410.5zM123 1341.5q0 71.5 43 114.5t114.5 43t114.5 -43t43 -114.5t-43 -114.5t-114.5 -43t-114.5 43t-43 114.5zM360 678q0 -43 41 -43h193q41 0 41 43q0 72 -39 115t-98.5 43t-98.5 -43t-39 -115zM586 1341.5 q0 71.5 43 114.5t114.5 43t114.5 -43t43 -114.5t-43 -114.5t-114.5 -43t-114.5 43t-43 114.5z" />
<glyph unicode="&#xec;" horiz-adv-x="491" d="M-86 1432l74 106q18 28 43 28q22 0 49 -22l323 -264q23 -16 24 -37q0 -15 -13 -33l-33 -49q-15 -23 -39 -23q-18 0 -41 13l-369 197q-32 20 -32 46q0 18 14 38zM102 68v925q0 68 68 68h152q68 0 67 -68v-925q0 -68 -67 -68h-152q-68 0 -68 68z" />
<glyph unicode="&#xed;" horiz-adv-x="491" d="M96 1210q-13 18 -13 33q0 20 23 37l324 264q27 22 49 22q25 0 43 -28l74 -106q14 -20 14 -38q0 -27 -32 -46l-369 -197q-23 -13 -41 -13q-24 0 -39 23zM102 68v925q0 68 68 68h152q68 0 67 -68v-925q0 -68 -67 -68h-152q-68 0 -68 68z" />
<glyph unicode="&#xee;" horiz-adv-x="491" d="M-119 1204q-13 18 -13 33q0 20 23 37l285 235q33 28 66 28t67 -28l285 -235q23 -16 23 -37q0 -15 -13 -33l-37 -51q-16 -22 -36 -22q-14 0 -29 10l-219 131q-20 12 -40.5 12t-39.5 -12l-219 -131q-16 -9 -30 -9q-21 0 -36 21zM102 68v925q0 68 68 68h152q68 0 67 -68 v-925q0 -68 -67 -68h-152q-68 0 -68 68z" />
<glyph unicode="&#xef;" horiz-adv-x="491" d="M-141 1341.5q0 71.5 43 114.5t114.5 43t114.5 -43t43 -114.5t-43 -114.5t-114.5 -43t-114.5 43t-43 114.5zM102 68v925q0 68 68 68h152q68 0 67 -68v-925q0 -68 -67 -68h-152q-68 0 -68 68zM322 1341.5q0 71.5 43 114.5t114.5 43t114.5 -43t43 -114.5t-43 -114.5 t-114.5 -43t-114.5 43t-43 114.5z" />
<glyph unicode="&#xf0;" horiz-adv-x="1009" d="M82 387v342q0 121 85 206t208 85q111 0 196 -55q23 -12 36.5 -4t8.5 24q-25 80 -41 125l-116 -43q-17 -6 -31 -6q-39 0 -57 47l-31 84q-6 17 -6 30q0 39 47 56l104 39l-22 45q-11 22 -11 40q0 32 35 52l127 72q27 12 44 12q6 0 11 -2q17 -6 38 -37q16 -29 45 -86l129 47 q17 6 30 6q39 0 58 -47l30 -84q6 -17 6 -30q0 -39 -47 -56l-118 -43q109 -322 108 -702q0 -102 -20.5 -190.5t-66.5 -166t-134 -122.5t-209 -45q-203 0 -319.5 105t-116.5 302zM369 399q0 -94 44 -134t105 -40q72 0 109 57.5t37 206.5q0 205 -60 248q-41 35 -117 35 q-51 0 -84.5 -32.5t-33.5 -98.5v-242z" />
<glyph unicode="&#xf1;" horiz-adv-x="1071" d="M102 68v925q0 68 68 68h131q47 0 64 -39l6 -14q16 -31 45 -11q121 84 260 84q123 0 208 -83t85 -207v-723q0 -68 -68 -68h-151q-68 0 -68 68v634q0 131 -119 132q-84 0 -135 -46q-39 -33 -39 -83v-637q0 -68 -67 -68h-152q-68 0 -68 68zM150 1331q55 96 107 137t124 41 t132 -33.5t100 -67.5t64.5 -34t42 15.5t48.5 58.5q15 24 41 24q22 0 51 -18l43 -27q32 -20 33 -50q0 -21 -16 -48q-63 -102 -112.5 -140t-119.5 -38q-72 0 -132 34t-100 67.5t-65 33.5q-41 0 -90 -74q-16 -25 -42 -25q-22 0 -50 19l-43 27q-33 22 -34 51q1 21 18 47z" />
<glyph unicode="&#xf2;" horiz-adv-x="1040" d="M61 530.5q0 274.5 111 412.5t350 138q457 0 457 -550.5t-457 -550.5q-240 0 -350.5 138t-110.5 412.5zM211 1432l74 106q18 28 43 28q22 0 49 -22l323 -264q23 -16 24 -37q0 -15 -13 -33l-33 -49q-15 -23 -39 -23q-18 0 -41 13l-369 197q-32 20 -32 46q0 18 14 38z M348 530.5q0 -305.5 174 -305.5q170 0 170 305.5t-170 305.5q-174 0 -174 -305.5z" />
<glyph unicode="&#xf3;" horiz-adv-x="1040" d="M61 530.5q0 274.5 111 412.5t350 138q457 0 457 -550.5t-457 -550.5q-240 0 -350.5 138t-110.5 412.5zM328 1210q-13 18 -13 33q0 20 23 37l324 264q27 22 48 22q25 0 44 -28l73 -106q14 -20 14 -38q0 -27 -32 -46l-369 -197q-23 -13 -40 -13q-24 0 -40 23zM348 530.5 q0 -305.5 174 -305.5q170 0 170 305.5t-170 305.5q-174 0 -174 -305.5z" />
<glyph unicode="&#xf4;" horiz-adv-x="1040" d="M61 530.5q0 274.5 111 412.5t350 138q457 0 457 -550.5t-457 -550.5q-240 0 -350.5 138t-110.5 412.5zM162 1204q-13 18 -13 33q0 20 23 37l285 235q33 28 66 28t67 -28l284 -235q23 -16 24 -37q0 -15 -13 -33l-37 -51q-16 -22 -36 -22q-14 0 -30 10l-219 131 q-19 12 -39 12t-41 -12l-219 -131q-16 -9 -29 -9q-21 0 -36 21zM348 530.5q0 -305.5 174 -305.5q170 0 170 305.5t-170 305.5q-174 0 -174 -305.5z" />
<glyph unicode="&#xf5;" horiz-adv-x="1040" d="M61 530.5q0 274.5 111 412.5t350 138q457 0 457 -550.5t-457 -550.5q-240 0 -350.5 138t-110.5 412.5zM133 1331q55 96 107.5 137t124 41t132 -33.5t100.5 -67.5t64.5 -34t42 15.5t48.5 58.5q15 24 40 24q22 0 52 -18l43 -27q32 -20 32 -50q0 -21 -16 -48 q-63 -102 -112.5 -140t-118.5 -38q-72 0 -132.5 34t-100.5 67.5t-64 33.5q-41 0 -90 -74q-16 -25 -42 -25q-22 0 -50 19l-43 27q-33 22 -34 51q0 21 17 47zM348 530.5q0 -305.5 174 -305.5q170 0 170 305.5t-170 305.5q-174 0 -174 -305.5z" />
<glyph unicode="&#xf6;" horiz-adv-x="1040" d="M61 530.5q0 274.5 111 412.5t350 138q457 0 457 -550.5t-457 -550.5q-240 0 -350.5 138t-110.5 412.5zM133 1341.5q0 71.5 43 114.5t114.5 43t115 -43t43.5 -114.5t-43.5 -114.5t-115 -43t-114.5 43t-43 114.5zM348 530.5q0 -305.5 174 -305.5q170 0 170 305.5 t-170 305.5q-174 0 -174 -305.5zM596 1341.5q0 71.5 43 114.5t114.5 43t114.5 -43t43 -114.5t-43 -114.5t-114.5 -43t-114.5 43t-43 114.5z" />
<glyph unicode="&#xf7;" d="M41 670v110q0 68 68 68h716q68 0 68 -68v-110q0 -68 -68 -68h-716q-68 0 -68 68zM295 311q0 80 47 127t127 47t127 -47t47 -127t-47 -127t-127 -47t-127 47t-47 127zM295 1141q0 80 47 127t127 47t127 -47t47 -127t-47 -127t-127 -47t-127 47t-47 127z" />
<glyph unicode="&#xf8;" horiz-adv-x="1040" d="M61 530q0 274 111 412.5t350 138.5q76 0 146 -16l53 113q20 42 54 41q16 0 36 -9l43 -20q42 -20 42 -54q0 -16 -9 -36l-56 -119q147 -133 148 -451q0 -551 -457 -550q-80 0 -151 16l-52 -113q-20 -42 -54 -42q-16 0 -36 9l-43 21q-42 20 -42 54q0 16 10 36l55 119 q-148 128 -148 450zM348 530q0 -70 10 -131l201 432q-20 4 -37 5q-174 -1 -174 -306zM481 229q25 -4 41 -4q170 0 170 305q0 66 -10 132z" />
<glyph unicode="&#xf9;" horiz-adv-x="1071" d="M102 270v723q0 68 68 68h152q68 0 67 -68v-635q0 -131 119 -131q84 0 135 45q39 33 39 84v637q0 68 68 68h151q68 0 68 -68v-925q0 -68 -68 -68h-131q-47 0 -63 39l-7 14q-16 31 -45 10q-121 -84 -260 -83q-123 0 -208 82.5t-85 207.5zM164 1432l74 106q18 28 43 28 q22 0 49 -22l323 -264q23 -16 24 -37q0 -15 -13 -33l-33 -49q-15 -23 -39 -23q-18 0 -41 13l-369 197q-32 20 -32 46q0 18 14 38z" />
<glyph unicode="&#xfa;" horiz-adv-x="1071" d="M102 270v723q0 68 68 68h152q68 0 67 -68v-635q0 -131 119 -131q84 0 135 45q39 33 39 84v637q0 68 68 68h151q68 0 68 -68v-925q0 -68 -68 -68h-131q-47 0 -63 39l-7 14q-16 31 -45 10q-121 -84 -260 -83q-123 0 -208 82.5t-85 207.5zM410 1210q-13 18 -14 33 q0 20 24 37l323 264q27 22 49 22q25 0 44 -28l73 -106q14 -20 14 -38q0 -27 -32 -46l-369 -197q-23 -13 -41 -13q-24 0 -39 23z" />
<glyph unicode="&#xfb;" horiz-adv-x="1071" d="M102 270v723q0 68 68 68h152q68 0 67 -68v-635q0 -131 119 -131q84 0 135 45q39 33 39 84v637q0 68 68 68h151q68 0 68 -68v-925q0 -68 -68 -68h-131q-47 0 -63 39l-7 14q-16 31 -45 10q-121 -84 -260 -83q-123 0 -208 82.5t-85 207.5zM172 1204q-13 18 -13 33 q0 20 23 37l285 235q33 28 66 28t67 -28l285 -235q23 -16 23 -37q0 -15 -13 -33l-37 -51q-16 -22 -36 -22q-14 0 -29 10l-220 131q-20 12 -40 12t-39 -12l-220 -131q-16 -9 -29 -9q-21 0 -36 21z" />
<glyph unicode="&#xfc;" horiz-adv-x="1071" d="M102 270v723q0 68 68 68h152q68 0 67 -68v-635q0 -131 119 -131q84 0 135 45q39 33 39 84v637q0 68 68 68h151q68 0 68 -68v-925q0 -68 -68 -68h-131q-47 0 -63 39l-7 14q-16 31 -45 10q-121 -84 -260 -83q-123 0 -208 82.5t-85 207.5zM150 1341.5q0 71.5 43 114.5 t114.5 43t114.5 -43t43 -114.5t-43 -114.5t-114.5 -43t-114.5 43t-43 114.5zM612 1341.5q0 71.5 43 114.5t115 43t115 -43t43 -114.5t-43 -114.5t-115 -43t-115 43t-43 114.5z" />
<glyph unicode="&#xfd;" horiz-adv-x="1001" d="M29 940q-6 17 -6 31q0 39 47 57l151 55q19 8 34 8q39 0 52 -49l170 -604q10 -29 32.5 -28.5t33.5 28.5l170 606q15 46 57 47q14 0 31 -6l131 -47q48 -16 48 -55q0 -15 -7 -33l-481 -1425q-17 -47 -57 -47q-14 0 -32 6l-131 49q-47 17 -46 56q0 14 5 30l105 313 q10 25 10 52q0 24 -8 49zM383 1210q-13 18 -13 33q0 20 23 37l324 264q27 22 49 22q25 0 43 -28l74 -106q14 -20 13 -38q0 -27 -32 -46l-368 -197q-23 -13 -41 -13q-24 0 -39 23z" />
<glyph unicode="&#xfe;" horiz-adv-x="1050" d="M102 -424v1835q0 68 68 68h152q68 0 67 -68v-383q0 -23 16.5 -26t26.5 6q111 74 244 73q123 0 208 -83t85 -207v-521q0 -125 -85 -207.5t-208 -82.5q-133 0 -244 73q-10 8 -26.5 5t-16.5 -25v-457q0 -68 -67 -68h-152q-68 0 -68 68zM389 356q0 -51 39 -84q51 -45 135 -45 q119 0 119 131v344q0 131 -119 132q-84 0 -135 -46q-39 -33 -39 -83v-349z" />
<glyph unicode="&#xff;" horiz-adv-x="1001" d="M29 940q-6 17 -6 31q0 39 47 57l151 55q19 8 34 8q39 0 52 -49l170 -604q10 -29 32.5 -28.5t33.5 28.5l170 606q15 46 57 47q14 0 31 -6l131 -47q48 -16 48 -55q0 -15 -7 -33l-481 -1425q-17 -47 -57 -47q-14 0 -32 6l-131 49q-47 17 -46 56q0 14 5 30l105 313 q10 25 10 52q0 24 -8 49zM121 1341.5q0 71.5 43 114.5t114.5 43t114.5 -43t43 -114.5t-43 -114.5t-114.5 -43t-114.5 43t-43 114.5zM584 1341.5q0 71.5 43 114.5t114.5 43t114.5 -43t43 -114.5t-43 -114.5t-114.5 -43t-114.5 43t-43 114.5z" />
<glyph unicode="&#x152;" horiz-adv-x="1841" d="M61 737q0 381 141.5 571.5t379.5 190.5q170 0 292 -110q8 -8 22.5 -5.5t14.5 21.5v6q0 68 68 68h733q68 0 68 -68v-147q0 -68 -68 -68h-434q-68 0 -68 -70v-176q0 -70 68 -69h301q68 0 68 -68v-147q0 -68 -68 -68h-301q-68 0 -68 -70v-176q0 -70 68 -69h434q68 0 68 -68 v-147q0 -68 -68 -68h-733q-68 0 -68 68v6q0 18 -14 21t-23 -5q-123 -111 -292 -110q-236 0 -378.5 192t-142.5 565zM360 737q0 -238 76 -356.5t203 -118.5q123 0 197.5 120t74.5 353q0 236 -75.5 359t-196.5 123q-127 0 -203 -119t-76 -361z" />
<glyph unicode="&#x153;" horiz-adv-x="1626" d="M61 530.5q0 274.5 111 412.5t350 138q172 0 303 -120q14 -14 33 0q139 121 295 120q412 0 412 -561v-65q0 -20 -16.5 -34.5t-37.5 -14.5h-481q-35 0 -35 -31q0 -7 2 -17q14 -59 68.5 -90.5t120.5 -31.5q25 0 48 4t49 14l40 15t42 20l32 16q18 9 33 9q35 0 55 -46l43 -98 q6 -16 6 -29q0 -39 -47 -63q-63 -33 -97 -48.5t-98.5 -32.5t-128.5 -17q-164 0 -305 120q-14 14 -33 0q-127 -121 -303 -120q-240 0 -350.5 138t-110.5 412.5zM348 514q0 -152 41 -220.5t133 -68.5q90 0 130 68.5t40 220.5q0 322 -170 322q-174 0 -174 -322zM991 678 q0 -43 41 -43h193q41 0 41 43q0 72 -39 115t-98.5 43t-98.5 -43t-39 -115z" />
<glyph unicode="&#x178;" horiz-adv-x="1120" d="M25 1321q-13 21 -13 38q0 31 39 52l152 82q22 12 40 12q32 0 52 -37l250 -507q10 -16 26.5 -16.5t26.5 16.5l244 499q22 40 56 40q17 0 36 -9l135 -74q41 -20 41 -51q0 -17 -12 -39l-369 -694q-16 -27 -16 -53v-512q0 -68 -68 -68h-164q-68 0 -67 68v499q0 25 -17 51z M160 1714q0 72 43 115t114.5 43t114.5 -43t43 -115t-43 -115t-114.5 -43t-114.5 43t-43 115zM664 1714q0 72 43 115t114.5 43t114.5 -43t43 -115t-43 -115t-114.5 -43t-114.5 43t-43 115z" />
<glyph unicode="&#x2c6;" horiz-adv-x="952" d="M115 1204q-13 18 -13 33q0 20 23 37l285 235q33 28 66 28t67 -28l284 -235q23 -16 24 -37q0 -15 -13 -33l-37 -51q-16 -22 -37 -22q-14 0 -29 10l-219 131q-20 12 -40 12t-40 -12l-219 -131q-16 -9 -30 -9q-21 0 -35 21z" />
<glyph unicode="&#x2dc;" horiz-adv-x="1011" d="M121 1331q55 96 107.5 137t124 41t132 -33.5t100.5 -67.5t64.5 -34t42 15.5t47.5 58.5q15 24 41 24q22 0 51 -18l43 -27q32 -20 33 -50q0 -21 -16 -48q-63 -102 -112.5 -140t-119.5 -38q-72 0 -132 34t-100 67.5t-65 33.5q-41 0 -90 -74q-16 -25 -41 -25q-22 0 -51 19 l-43 27q-33 22 -33 51q0 21 17 47z" />
<glyph unicode="&#x2000;" horiz-adv-x="974" />
<glyph unicode="&#x2001;" horiz-adv-x="1949" />
<glyph unicode="&#x2002;" horiz-adv-x="974" />
<glyph unicode="&#x2003;" horiz-adv-x="1949" />
<glyph unicode="&#x2004;" horiz-adv-x="649" />
<glyph unicode="&#x2005;" horiz-adv-x="487" />
<glyph unicode="&#x2006;" horiz-adv-x="323" />
<glyph unicode="&#x2007;" horiz-adv-x="323" />
<glyph unicode="&#x2008;" horiz-adv-x="243" />
<glyph unicode="&#x2009;" horiz-adv-x="389" />
<glyph unicode="&#x200a;" horiz-adv-x="106" />
<glyph unicode="&#x2010;" horiz-adv-x="696" d="M41 500v129q0 68 68 67h479q68 0 67 -67v-129q0 -68 -67 -68h-479q-68 0 -68 68z" />
<glyph unicode="&#x2011;" horiz-adv-x="696" d="M41 500v129q0 68 68 67h479q68 0 67 -67v-129q0 -68 -67 -68h-479q-68 0 -68 68z" />
<glyph unicode="&#x2012;" horiz-adv-x="696" d="M41 500v129q0 68 68 67h479q68 0 67 -67v-129q0 -68 -67 -68h-479q-68 0 -68 68z" />
<glyph unicode="&#x2013;" horiz-adv-x="1134" d="M41 500v129q0 68 68 67h917q68 0 68 -67v-129q0 -68 -68 -68h-917q-68 0 -68 68z" />
<glyph unicode="&#x2014;" horiz-adv-x="2152" d="M41 500v129q0 68 68 67h1935q68 0 67 -67v-129q0 -68 -67 -68h-1935q-68 0 -68 68z" />
<glyph unicode="&#x2018;" horiz-adv-x="450" d="M27 1065q-5 11 -5 24q0 19 11 39l188 492q20 45 64 45h100q45 0 45 -43q0 -8 -2 -18l-100 -514q-10 -53 -64 -54h-188q-37 0 -49 29z" />
<glyph unicode="&#x2019;" horiz-adv-x="450" d="M23 1098l100 514q10 53 63 53h189q37 0 49 -29q5 -11 5 -24q0 -19 -11 -39l-189 -492q-20 -45 -63 -45h-100q-45 0 -45 44q0 8 2 18z" />
<glyph unicode="&#x201a;" horiz-adv-x="450" d="M23 -279l100 515q10 53 63 53h189q37 0 49 -29q5 -11 5 -24q0 -19 -11 -39l-189 -492q-20 -45 -63 -45h-100q-45 0 -45 43q0 8 2 18z" />
<glyph unicode="&#x201c;" horiz-adv-x="862" d="M27 1065q-5 11 -5 24q0 19 11 39l188 492q20 45 64 45h100q45 0 45 -43q0 -8 -2 -18l-100 -514q-10 -53 -64 -54h-188q-37 0 -49 29zM438 1065q-5 11 -5 24q0 19 11 39l189 492q20 45 63 45h101q45 0 44 -43q0 -8 -1 -18l-101 -514q-10 -53 -63 -54h-189q-37 0 -49 29z " />
<glyph unicode="&#x201d;" horiz-adv-x="862" d="M23 1098l100 514q10 53 63 53h189q37 0 49 -29q5 -11 5 -24q0 -19 -11 -39l-189 -492q-20 -45 -63 -45h-100q-45 0 -45 44q0 8 2 18zM434 1098l101 514q10 53 63 53h188q37 0 50 -29q5 -11 4 -24q0 -19 -11 -39l-188 -492q-20 -45 -63 -45h-101q-45 0 -44 44q-1 8 1 18z " />
<glyph unicode="&#x201e;" horiz-adv-x="862" d="M23 -279l100 515q10 53 63 53h189q37 0 49 -29q5 -11 5 -24q0 -19 -11 -39l-189 -492q-20 -45 -63 -45h-100q-45 0 -45 43q0 8 2 18zM434 -279l101 515q10 53 63 53h188q37 0 50 -29q5 -11 4 -24q0 -19 -11 -39l-188 -492q-20 -45 -63 -45h-101q-45 0 -44 43q-1 8 1 18z " />
<glyph unicode="&#x2022;" horiz-adv-x="917" d="M102 737q0 164 96.5 262.5t258.5 98.5q164 0 261 -98.5t97 -262.5q0 -166 -97 -265t-261 -99q-162 0 -258.5 99t-96.5 265z" />
<glyph unicode="&#x2026;" horiz-adv-x="1851" d="M102 156q0 80 47.5 127t127 47t127 -47t47.5 -127t-47.5 -127t-127 -47t-127 47t-47.5 127zM752 156q0 80 47 127t127 47t127 -47t47 -127t-47 -127t-127 -47t-127 47t-47 127zM1401 156q0 80 47 127t127 47t127 -47t47 -127t-47 -127t-127 -47t-127 47t-47 127z" />
<glyph unicode="&#x202f;" horiz-adv-x="389" />
<glyph unicode="&#x2039;" horiz-adv-x="808" d="M109 483q-24 25 -24 49t24 48l401 399q24 24 47 23l47 -23l88 -86q25 -25 25 -49t-25 -47l-219 -217q-18 -20 -18 -39q0 -18 16 -35l231 -230q24 -24 24 -46.5t-24 -45.5l-98 -100q-24 -24 -48 -24l-46 22z" />
<glyph unicode="&#x203a;" horiz-adv-x="808" d="M106 788q-24 24 -23.5 47t23.5 46l99 100q25 24 49 24q23 0 45 -22l401 -401q25 -25 25 -49t-25 -48l-401 -399q-24 -24 -47 -24l-47 24l-88 86q-24 25 -24 49t24 47l219 217q18 20 18 39q0 18 -16 35z" />
<glyph unicode="&#x205f;" horiz-adv-x="487" />
<glyph unicode="&#x20ac;" horiz-adv-x="1392" d="M82 504v110q0 68 68 68h57q45 0 45 45v25q0 45 -45 45h-57q-68 0 -68 67v111q0 68 68 67h98q47 0 59 33q82 209 252 316.5t381 107.5q174 0 326 -59q43 -18 43 -56q0 -15 -6 -32l-58 -138q-19 -43 -57 -43q-14 0 -31 7q-98 39 -217 39q-172 0 -278 -125q-14 -18 -5 -34 t27 -16h360q68 0 68 -67v-111q0 -68 -68 -67h-448q-45 0 -45 -45v-25q0 -45 45 -45h346q68 0 68 -68v-110q0 -68 -68 -68h-258q-18 0 -27.5 -15t5.5 -34q106 -125 278 -125q119 0 217 39q17 6 31 6q38 0 57 -43l58 -137q6 -17 6 -32q0 -38 -43 -56q-152 -59 -326 -59 q-211 0 -381 107.5t-252 315.5q-12 33 -59 33h-98q-68 0 -68 68z" />
<glyph unicode="&#x2122;" horiz-adv-x="1347" d="M41 1354v71q0 53 53 54h400q55 0 55 -54v-71q0 -53 -55 -54h-52q-43 0 -43 -47v-340q0 -53 -49 -53h-106q-53 0 -54 53v340q0 47 -40 47h-56q-53 1 -53 54zM608 913v514q0 51 51 52h136q31 0 55 -37l63 -162q4 -14 16.5 -13t16.5 13l62 162q16 37 55 37h129q53 0 53 -52 v-514q0 -29 -12 -41t-41 -12h-102q-53 0 -54 53l19 123q0 12 -13.5 15.5t-17.5 -7.5l-16 -34q-18 -49 -50 -49h-57q-18 0 -31.5 13t-17.5 36l-21 34q-4 10 -16 7.5t-12 -15.5l12 -123q0 -53 -49 -53h-107q-29 0 -40 12t-11 41z" />
<glyph unicode="&#xe000;" horiz-adv-x="1090" d="M0 1090h1090v-1090h-1090v1090z" />
<glyph unicode="&#xfb01;" horiz-adv-x="1189" d="M51 883v110q0 68 68 68h35q68 0 67 67q0 178 98.5 274.5t296.5 96.5q86 0 158 -18.5t187 -79.5q47 -26 46 -64q0 -13 -6 -28l-43 -99q-12 -29 -35.5 -40t-52.5 4q-127 70 -231 69q-78 0 -104.5 -29.5t-26.5 -85.5q0 -68 67 -67h445q68 0 67 -68v-925q0 -68 -67 -68h-152 q-68 0 -67 68v680q0 68 -68 67h-158q-68 0 -67 -67v-680q0 -68 -68 -68h-151q-68 0 -68 68v680q0 68 -67 67h-35q-68 0 -68 68z" />
<glyph unicode="&#xfb02;" horiz-adv-x="1189" d="M51 883v110q0 68 68 68h35q68 0 67 67v11q0 340 367 340h432q68 0 67 -68v-1343q0 -68 -67 -68h-152q-68 0 -67 68v1097q0 68 -68 68h-121q-104 0 -104 -90v-15q0 -68 67 -67h72q68 0 68 -68v-110q0 -68 -68 -68h-72q-68 0 -67 -67v-680q0 -68 -68 -68h-151q-68 0 -68 68 v680q0 68 -67 67h-35q-68 0 -68 68z" />
<glyph unicode="&#xfb03;" horiz-adv-x="1769" d="M51 883v110q0 68 68 68h35q68 0 67 67v11q0 340 367 340h110q55 0 56 -66v-125q0 -33 -12.5 -44t-49.5 -11h-80q-104 0 -104 -90v-15q0 -68 67 -67h158q68 0 68 67q0 178 98 274.5t297 96.5q86 0 157.5 -18.5t186.5 -79.5q47 -26 47 -64q0 -13 -6 -28l-43 -99 q-12 -29 -35.5 -40t-52.5 4q-127 70 -231 69q-78 0 -105 -29.5t-27 -85.5q0 -68 68 -67h444q68 0 68 -68v-925q0 -68 -68 -68h-151q-68 0 -68 68v680q0 68 -67 67h-158q-68 0 -68 -67v-680q0 -68 -67 -68h-152q-68 0 -67 68v680q0 68 -68 67h-158q-68 0 -67 -67v-680 q0 -68 -68 -68h-151q-68 0 -68 68v680q0 68 -67 67h-35q-68 0 -68 68z" />
<glyph unicode="&#xfb04;" horiz-adv-x="1769" d="M51 883v110q0 68 68 68h35q68 0 67 67v11q0 340 367 340h110q55 0 56 -66v-125q0 -33 -12.5 -44t-49.5 -11h-80q-104 0 -104 -90v-15q0 -68 67 -67h158q68 0 68 67v11q0 340 366 340h432q68 0 68 -68v-1343q0 -68 -68 -68h-151q-68 0 -68 68v1097q0 68 -67 68h-121 q-104 0 -105 -90v-15q0 -68 68 -67h72q68 0 67 -68v-110q0 -68 -67 -68h-72q-68 0 -68 -67v-680q0 -68 -67 -68h-152q-68 0 -67 68v680q0 68 -68 67h-158q-68 0 -67 -67v-680q0 -68 -68 -68h-151q-68 0 -68 68v680q0 68 -67 67h-35q-68 0 -68 68z" />
<glyph horiz-adv-x="0" />
</font>
</defs>
</svg>
