<?xml version="1.0" standalone="no"?>
<!DOCTYPE svg PUBLIC "-//W3C//DTD SVG 1.1//EN" "http://www.w3.org/Graphics/SVG/1.1/DTD/svg11.dtd" >
<svg xmlns="http://www.w3.org/2000/svg">
<metadata>
This is a custom SVG webfont generated by Font Squirrel.
Copyright   : Copyright c 2007 by Tomas Brousil All rights reserved
Designer    : Tomas Brousil
Foundry     : Tomas Brousil
Foundry URL : httpwwwsuitcasetypecom
</metadata>
<defs>
<font id="KatarineStdItalic" horiz-adv-x="919" >
<font-face units-per-em="2048" ascent="1638" descent="-410" />
<missing-glyph horiz-adv-x="448" />
<glyph unicode=" "  horiz-adv-x="448" />
<glyph unicode="&#x09;" horiz-adv-x="448" />
<glyph unicode="&#xa0;" horiz-adv-x="448" />
<glyph unicode="!" horiz-adv-x="415" d="M8 84q0 59 39 97t88 38q43 0 68.5 -28.5t25.5 -69.5q0 -57 -37.5 -95t-89.5 -38q-43 0 -68.5 28.5t-25.5 67.5zM92 389l113 1059q8 31 37 31h135q26 0 26 -20q0 -5 -2 -11l-182 -1059q-6 -31 -35 -31h-65q-29 0 -27 31z" />
<glyph unicode="&#x22;" horiz-adv-x="624" d="M168 1022l31 426q6 31 30 31h119q31 0 25 -31l-92 -426q-2 -29 -31 -29h-57q-27 0 -25 29zM424 1022l31 426q6 31 32 31h117q26 0 26 -22q0 -4 -1 -9l-90 -426q-6 -29 -33 -29h-57q-27 0 -25 29z" />
<glyph unicode="#" horiz-adv-x="1368" d="M33 461l8 78q8 31 35 30h190q31 0 45 29l119 272q16 37 -20 37h-146q-29 0 -26 31l12 78q2 31 33 31h188q35 0 47 32l174 398q12 23 33 23q3 0 6 -1l82 -26q25 -8 14 -37l-155 -353q-10 -37 22 -36h244q37 0 49 32l172 398q12 24 32 23q4 0 9 -1l82 -26q25 -8 12 -37 l-151 -353q-16 -37 18 -36h152q29 0 26 -31l-12 -78q-2 -31 -35 -31h-192q-29 0 -47 -28l-117 -273q-16 -37 20 -37h150q31 0 24 -30l-10 -78q-2 -31 -35 -31h-188q-37 0 -49 -33l-172 -395q-12 -22 -30 -22q-4 0 -9 2l-80 26q-27 8 -14 37l151 348q14 37 -22 37h-246 q-31 0 -47 -33l-172 -395q-12 -22 -30 -22q-4 0 -9 2l-80 26q-27 8 -14 37l151 348q14 37 -22 37h-148q-26 0 -22 31zM467 606q-5 -11 -5 -19q0 -18 25 -18h248q35 0 45 29l119 272q5 11 5 20q0 18 -25 17h-248q-31 0 -45 -28z" />
<glyph unicode="$" horiz-adv-x="1021" d="M70 428q6 31 32 31h95q33 0 26 -31q-5 -32 -4 -61q0 -89 42 -153q56 -85 163 -85q113 0 198 85t85 198q0 82 -55.5 141t-135.5 99t-158.5 85t-134 122t-55.5 185q0 168 102.5 295t270.5 154l32 221q2 31 33 31h94q29 0 27 -31l-33 -221q152 -27 214 -144q47 -89 47 -199 q0 -36 -5 -75q-6 -33 -37 -33h-94q-29 0 -22 33q4 29 4 56q0 85 -40 143q-52 76 -165 76q-121 0 -195.5 -80t-74.5 -193q0 -80 55 -139t134 -100l158 -85q79 -44 134 -121t55 -181q0 -184 -110.5 -310.5t-268.5 -152.5l-30 -224q-2 -31 -35 -30h-94q-27 0 -25 30l31 224 q-143 25 -213 146q-53 92 -53 213q0 39 6 81z" />
<glyph unicode="%" horiz-adv-x="1361" d="M143 965l41 299q14 104 83 168.5t173 64.5q102 0 154 -65q40 -51 40 -125q0 -21 -3 -43l-41 -299q-16 -106 -85 -171t-171.5 -65t-154.5 66q-40 50 -40 122q0 23 4 48zM162 63l977 1418q13 16 26 16q8 0 17 -6l55 -37q27 -12 6 -43l-977 -1413q-10 -18 -24 -18 q-8 0 -17 6l-57 34q-15 9 -15 22q0 9 9 21zM264 967q-2 -14 -2 -26q0 -34 17 -58q23 -33 69.5 -33t78.5 34t40 83l41 295q1 11 1 20q0 36 -17 61q-23 33 -70 33t-79 -32.5t-38 -81.5zM776 225l43 299q14 104 83 169t173 65q102 0 154 -66q40 -51 40 -125q0 -21 -3 -43 l-43 -299q-16 -106 -85 -170.5t-171.5 -64.5t-153.5 65q-40 51 -40 126q0 21 3 44zM899 227q-2 -14 -2 -26q0 -34 16 -58q23 -33 70 -32.5t79 34t38 82.5l41 295q2 13 2 25q0 33 -17 57q-23 33 -69.5 33t-78.5 -33t-38 -82z" />
<glyph unicode="&#x26;" horiz-adv-x="1243" d="M20 285q0 166 81 272.5t229 185.5q31 14 10 39l-27 35q-96 119 -96 248q0 193 123 313.5t289 120.5q139 0 224 -82t85 -209q0 -154 -94 -268.5t-217 -177.5q-39 -16 -17 -45l181 -223q15 -18 32 -18.5t35 18.5l203 184q20 23 41 -2l47 -60q7 -9 7 -17q0 -12 -13 -26 l-201 -184q-22 -20 -22 -40q0 -15 12 -30l174 -213q14 -25 -6 -45l-78 -69q-23 -20 -43 2l-170 211q-14 17 -31 17t-37 -17l-88 -80q-86 -80 -159.5 -112.5t-161.5 -32.5q-162 0 -237 91t-75 214zM176 309q0 -86 46 -135t134 -49q55 0 102.5 23.5t114.5 84.5l84 76 q22 20 23 40q0 15 -12 30l-195 239q-14 17 -33 17q-14 0 -30 -8q-115 -61 -174.5 -134t-59.5 -184zM373 1096q0 -84 73 -176l35 -46q12 -16 30 -15q12 0 28 7q111 59 177 141.5t66 170.5q0 72 -43 122t-131 50q-102 0 -168.5 -76t-66.5 -178z" />
<glyph unicode="'" horiz-adv-x="368" d="M168 1022l31 426q6 31 30 31h119q26 0 26 -22q0 -4 -1 -9l-92 -426q-2 -29 -31 -29h-57q-27 0 -25 29z" />
<glyph unicode="(" horiz-adv-x="479" d="M53 399q0 369 105.5 713t287.5 608q13 17 27 18l14 -5l70 -47q13 -8 13 -22q0 -10 -7 -22q-170 -248 -265 -563t-95 -645q0 -340 106 -598q10 -29 -18 -43l-82 -47q-9 -5 -17 -5q-14 0 -22 17q-117 287 -117 641z" />
<glyph unicode=")" horiz-adv-x="479" d="M-84 -164q170 248 264 564.5t94 643.5q0 344 -104 598q-10 31 16 44l84 47q9 5 17 5q14 0 22 -18q117 -287 117 -641q0 -369 -105.5 -712.5t-287.5 -608.5q-13 -17 -27 -17l-14 5l-70 47q-13 7 -13 21q0 9 7 22z" />
<glyph unicode="*" horiz-adv-x="688" d="M88 1034q-2 5 -2 11q0 14 16 26l158 72q14 8 16.5 22.5t-10.5 22.5l-137 74q-20 12 -2 36l47 72q18 25 37 10l121 -96q10 -10 23.5 -3t15.5 28l10 166q4 29 29 28h82q27 0 22 -28l-39 -166q-2 -18 9.5 -26.5t25.5 1.5l145 96q23 16 35 -10l31 -72q2 -6 2 -11 q0 -16 -18 -25l-156 -74q-16 -8 -18.5 -22.5t12.5 -22.5l135 -72q18 -14 6 -37l-53 -73q-14 -27 -35 -11l-121 99q-8 10 -22.5 1.5t-16.5 -26.5l-10 -168q-2 -27 -31 -27h-80q-23 0 -20 27l35 168q4 18 -6.5 26.5t-24.5 -1.5l-147 -99q-25 -10 -35 11z" />
<glyph unicode="+" horiz-adv-x="825" d="M33 686l10 76q6 33 33 33h223q47 0 53 49l39 260q2 33 35 33h88q27 0 25 -33l-37 -260q-1 -7 -1 -14q0 -36 40 -35h223q29 0 27 -33l-13 -76q-2 -31 -33 -31h-223q-47 0 -55 -51l-35 -262q-6 -31 -35 -31h-88q-29 0 -26 31l36 262q1 6 1 11q0 40 -41 40h-224 q-24 0 -23 21q0 5 1 10z" />
<glyph unicode="," horiz-adv-x="335" d="M-125 -309l176 471q12 29 39 28h123q26 0 26 -17q0 -11 -10 -28l-237 -460q-14 -25 -39 -25h-62q-18 0 -18 17q0 6 2 14z" />
<glyph unicode="-" horiz-adv-x="581" d="M4 496l12 82q2 33 35 32h443q29 0 26 -32l-12 -82q-6 -33 -35 -33h-442q-29 0 -27 33z" />
<glyph unicode="." horiz-adv-x="415" d="M8 80q0 68 37 103.5t92 35.5q47 0 70.5 -25.5t23.5 -66.5q0 -61 -35.5 -100t-91.5 -39q-47 0 -71.5 26.5t-24.5 65.5z" />
<glyph unicode="/" horiz-adv-x="567" d="M-156 -78l752 1675q10 22 28 23q5 0 11 -2l78 -29q18 -6 18 -22q0 -7 -4 -17l-754 -1675q-9 -22 -24 -22q-6 0 -15 4l-75 26q-19 5 -19 21q-1 8 4 18z" />
<glyph unicode="0" horiz-adv-x="1005" d="M63 383l37 266q25 172 148 288t295 116q178 0 270 -116q72 -90 72 -213q0 -36 -6 -75l-35 -266q-25 -172 -149 -287.5t-300 -115.5t-266 115q-71 91 -71 217q0 34 5 71zM215 383q-4 -24 -4 -46q0 -76 44 -134q56 -76 162.5 -76t182.5 74.5t92 181.5l35 266q4 24 4 47 q0 76 -43 133q-55 74 -166 74q-106 0 -181 -74.5t-89 -179.5z" />
<glyph unicode="1" horiz-adv-x="813" d="M25 31l10 78q6 31 33 30h163q47 0 54 49l92 654q1 8 1 14q0 37 -40 37h-164q-31 0 -24 31l10 75q2 33 35 33h327q31 0 25 -33l-115 -811q-1 -6 -1 -10q0 -38 42 -39h162q29 0 27 -30l-13 -78q-2 -31 -33 -31h-567q-26 0 -25 21q0 5 1 10z" />
<glyph unicode="2" horiz-adv-x="894" d="M-23 31l11 84q8 37 32 55l451 324q86 63 127 125.5t41 144.5q0 72 -41 120t-129 48q-96 0 -157.5 -67.5t-73.5 -166.5q-6 -29 -35 -28h-94q-31 0 -25 30q23 160 129 270.5t279 110.5q152 0 227.5 -84t75.5 -206q0 -129 -66.5 -228.5t-208.5 -195.5l-260 -181 q-16 -10 -14 -25.5t18 -15.5h447q27 0 24 -30l-12 -84q-6 -31 -33 -31h-688q-26 0 -26 21q0 5 1 10z" />
<glyph unicode="3" horiz-adv-x="946" d="M-35 -43q6 31 33 31h94q33 0 27 -31q-4 -27 -4 -51q0 -82 42 -144q54 -80 156 -79q113 0 199 91t86 259q0 92 -52 157.5t-161 65.5q-31 0 -27 27l13 94q2 29 37 28q96 0 179 85t83 229q0 80 -50.5 131t-140.5 51q-115 0 -181.5 -80t-82.5 -194q-6 -31 -37 -31h-92 q-31 0 -25 31q25 186 144 306t299 120q154 0 238.5 -91.5t84.5 -220.5q0 -240 -213 -374q-37 -25 -6 -43q72 -43 109 -119t37 -160q0 -229 -141.5 -370.5t-321.5 -141.5q-168 0 -260 119q-72 92 -72 225q0 38 6 80z" />
<glyph unicode="4" horiz-adv-x="948" d="M-43 31l12 90q4 27 17 55l448 948q11 21 28 21q6 0 13 -2l82 -31q27 -10 10 -41l-413 -881q-18 -41 14 -40h209q47 0 55 51l25 182q8 31 35 31h94q33 0 24 -31l-24 -182q-1 -8 -1 -14q0 -37 40 -37h157q29 0 27 -31l-12 -88q-6 -31 -37 -31h-156q-45 0 -53 -49l-39 -277 q-2 -33 -35 -32h-92q-29 0 -27 32l39 277q1 6 1 11q0 38 -42 38h-376q-24 0 -24 21q0 5 1 10z" />
<glyph unicode="5" horiz-adv-x="1077" d="M41 -43q6 31 35 31h94q31 0 25 -31q-4 -27 -4 -51q0 -82 41 -144q54 -80 157 -79q100 0 178 75.5t99 221.5l24 180q4 31 4 57q0 160 -149 160q-113 0 -236 -96q-16 -12 -31.5 -33t-28.5 -32t-28 -11h-82q-33 0 -26 31l155 763q6 33 35 33h588q26 0 25 -23q0 -5 -1 -10 l-12 -86q-2 -33 -35 -32h-422q-45 0 -53 -50l-84 -374q-6 -23 9.5 -29t27.5 4q137 88 256 88q135 0 202 -87q51 -67 51 -167q0 -31 -5 -65l-33 -224q-31 -209 -156.5 -326.5t-291.5 -117.5t-259 120q-74 95 -74 230q0 36 5 74z" />
<glyph unicode="6" horiz-adv-x="935" d="M23 328q0 180 120 436l351 717q10 23 25 23q7 0 16 -5l79 -35q25 -10 11 -39l-271 -553q-6 -12 -1 -18t20 -4q74 27 159 27q154 0 225.5 -92.5t71.5 -231.5q0 -262 -140 -417.5t-337 -155.5q-174 0 -251.5 99t-77.5 249zM178 356q0 -96 47 -161.5t146 -65.5 q131 0 217 108.5t86 278.5q0 219 -201 219q-184 0 -221 -88q-74 -156 -74 -291z" />
<glyph unicode="7" horiz-adv-x="851" d="M4 -403l647 1243q23 41 -14 41h-551q-31 0 -25 32l11 86q6 33 34 33h723q31 0 25 -33l-10 -88q-2 -23 -15 -45l-682 -1321q-16 -29 -43 -20l-86 31q-26 10 -14 41z" />
<glyph unicode="8" horiz-adv-x="993" d="M68 301q0 125 60 228.5t153 152.5q16 8 18 20.5t-12 22.5q-147 84 -148 293q0 213 137.5 347t329.5 134q158 0 253 -93t95 -251q0 -129 -62.5 -250t-184.5 -180q-18 -8 -20.5 -21.5t13.5 -21.5q123 -84 123 -256q0 -184 -122.5 -315t-307.5 -131q-156 0 -240.5 90 t-84.5 231zM223 324q0 -86 49.5 -140.5t141.5 -54.5q115 0 184.5 84t69.5 203q0 90 -48.5 153.5t-134.5 63.5q-113 0 -187.5 -96t-74.5 -213zM291 1034q0 -98 56 -175t159 -77q129 0 211 116t82 226q0 102 -58.5 164t-154.5 62q-119 0 -207 -90.5t-88 -225.5z" />
<glyph unicode="9" horiz-adv-x="935" d="M43 479q0 262 140.5 418t336.5 156q174 0 252 -100.5t78 -250.5q0 -188 -121 -434l-348 -717q-10 -23 -27 -22q-7 0 -16 4l-80 33q-25 14 -10 41l270 551q6 12 1 19t-19 5q-80 -29 -160 -28q-154 0 -225.5 93t-71.5 232zM199 514q0 -217 200 -217q182 0 224 86 q72 152 71 291q0 98 -47 162.5t-145 64.5q-131 0 -217 -108.5t-86 -278.5z" />
<glyph unicode=":" horiz-adv-x="415" d="M8 80q0 68 37 103.5t92 35.5q47 0 70.5 -25.5t23.5 -66.5q0 -61 -35.5 -100t-91.5 -39q-47 0 -71.5 26.5t-24.5 65.5zM123 903q0 66 37 102.5t94 36.5q45 0 69.5 -25.5t24.5 -66.5q0 -59 -36 -99t-91 -40q-49 0 -73.5 25.5t-24.5 66.5z" />
<glyph unicode=";" horiz-adv-x="415" d="M-125 -309l176 471q12 29 39 28h123q26 0 26 -17q0 -11 -10 -28l-237 -460q-14 -25 -39 -25h-62q-18 0 -18 17q0 6 2 14zM123 903q0 66 37 102.5t94 36.5q45 0 69.5 -25.5t24.5 -66.5q0 -59 -36 -99t-91 -40q-49 0 -73.5 25.5t-24.5 66.5z" />
<glyph unicode="&#x3c;" horiz-adv-x="825" d="M33 694l8 60q6 31 35 43l678 280q10 4 17 4q16 0 22 -18l20 -88q2 -4 2 -9q0 -7 -4 -14q-6 -12 -18 -14l-512 -201q-16 -6 -18.5 -17t11.5 -18l459 -198q25 -10 10 -37l-47 -82q-10 -18 -26 -18q-8 0 -17 4l-598 280q-24 13 -23 34q0 4 1 9z" />
<glyph unicode="=" horiz-adv-x="825" d="M6 498l10 77q6 31 33 31h688q29 0 27 -31l-12 -77q-2 -31 -33 -31h-690q-24 0 -24 21q0 5 1 10zM59 872l9 78q8 31 34 31h689q26 0 25 -21q0 -4 -1 -10l-10 -78q-2 -31 -35 -30h-688q-24 0 -24 21q0 4 1 9z" />
<glyph unicode="&#x3e;" horiz-adv-x="825" d="M10 477q-2 6 -2 11q0 18 23 26l512 199q14 6 16 17t-12 18l-457 198q-25 10 -10 37l47 82q10 18 25 18q7 0 16 -4l600 -280q22 -12 22 -33q0 -5 -2 -10l-8 -60q-2 -29 -32 -43l-680 -280q-10 -4 -18 -4q-16 0 -19 18z" />
<glyph unicode="?" horiz-adv-x="968" d="M287 1376q117 123 307 123q168 0 251 -97t83 -231q0 -102 -38 -182t-94.5 -132t-113.5 -99t-104.5 -108.5t-59.5 -133.5l-18 -94q-2 -31 -35 -31h-66q-31 0 -26 31l8 88q8 88 51 160.5t99 123.5l111 100q54 50 92 115.5t38 145.5q0 72 -45 133.5t-154 61.5 q-115 0 -186.5 -76t-89.5 -199q-2 -33 -33 -33h-94q-25 0 -25 29q0 81 41 161.5t101 143.5zM283 84q0 59 38.5 97t90.5 38q43 0 67.5 -27.5t24.5 -68.5q0 -59 -37 -97t-88 -38q-43 0 -69.5 28.5t-26.5 67.5z" />
<glyph unicode="@" horiz-adv-x="2035" d="M78 493.5q0 440.5 281.5 723t721.5 282.5q373 0 625 -233.5t252 -626.5q0 -162 -49 -292t-128 -208t-171 -118.5t-185 -40.5q-106 0 -176 67q-59 57 -59 145q0 15 2 31q2 12 -8 14.5t-19 -10.5q-150 -248 -336 -247q-106 0 -166.5 65.5t-60.5 171.5q0 92 32 305t66 303 q76 227 304 228q106 0 229 -90q10 -10 25.5 -5t17.5 23l2 25q6 27 33 26h90q31 0 24 -33l-96 -692q-4 -34 -4 -60q0 -59 22 -85q32 -37 95 -37q131 0 245.5 136t114.5 378q0 328 -206.5 520.5t-514.5 192.5q-371 0 -609.5 -240t-238.5 -618.5t239 -618.5t609 -240 q350 0 594 226q25 16 45 -4l58 -68q23 -23 -2 -43q-279 -258 -695 -258q-440 0 -721.5 282.5t-281.5 723zM756 244q0 -61 31.5 -93t80.5 -32q111 0 224.5 186.5t142.5 386.5l6 43q1 11 1 21q0 36 -17 55q-31 39 -90.5 69.5t-112.5 30.5q-137 0 -186 -143q-27 -84 -53.5 -264 t-26.5 -260z" />
<glyph unicode="A" horiz-adv-x="1009" d="M-61 43l577 1407q12 29 41 29h105q29 0 32 -29l180 -1407q2 -29 -26 -39l-90 -29q-7 -2 -13 -2q-17 0 -20 25l-27 254q-4 35 -43 35h-415q-37 0 -52 -35l-102 -254q-10 -24 -28 -24q-5 0 -11 1l-92 29q-20 7 -20 23q0 7 4 16zM283 492q-7 -18 -8 -30q0 -25 32 -26h322 q25 0 35 18q7 12 7 26q0 6 -1 12l-76 663q-2 14 -11 21q-5 3 -11 3q-5 0 -10 -2q-11 -5 -17 -22z" />
<glyph unicode="B" horiz-adv-x="999" d="M53 31l199 1417q6 31 33 31h317q170 0 258 -92.5t88 -227.5q0 -262 -221 -385q-16 -8 -18 -21.5t12 -21.5q162 -96 162 -262q0 -193 -132.5 -331t-326.5 -138h-346q-26 0 -26 21q0 5 1 10zM231 201q-2 -10 -2 -18q0 -33 41 -33h164q129 0 212 88t83 215q0 98 -63.5 154.5 t-149.5 56.5h-174q-47 0 -53 -50zM324 864q-1 -8 -2 -14q0 -37 40 -37h152q113 0 196 84t83 221q0 90 -56.5 150.5t-161.5 60.5h-139q-47 0 -55 -51z" />
<glyph unicode="C" horiz-adv-x="1009" d="M55 489q0 276 64.5 502t203 367t328.5 141q182 0 272 -110q80 -99 80 -271q0 -20 -2 -41q-2 -33 -32 -33h-95q-27 0 -26 31q0 129 -55.5 202t-163.5 73q-190 0 -304 -235.5t-114 -592.5q0 -393 248 -393q111 0 185.5 72.5t109.5 201.5q8 31 34 31h95q31 0 24 -33 q-47 -201 -166.5 -311t-302.5 -110q-188 0 -285.5 129.5t-97.5 379.5z" />
<glyph unicode="D" horiz-adv-x="1103" d="M53 31l199 1417q6 31 35 31h307q127 0 219 -44t141.5 -121t71 -164t21.5 -192q0 -422 -175.5 -690t-480.5 -268h-313q-26 0 -26 21q0 5 1 10zM231 201q-2 -10 -2 -18q0 -33 41 -33h140q229 0 356 222t127 566q0 174 -75 282.5t-247 108.5h-135q-47 0 -55 -51z" />
<glyph unicode="E" d="M53 31l199 1417q6 31 33 31h637q25 0 22 -31l-10 -88q-6 -31 -33 -31h-465q-47 0 -55 -51l-57 -414q-1 -8 -2 -14q0 -37 40 -37h338q29 0 27 -31l-12 -88q-6 -31 -35 -30h-338q-47 0 -53 -50l-58 -413q-2 -10 -2 -18q0 -33 41 -33h465q27 0 25 -31l-12 -88 q-6 -31 -33 -31h-637q-26 0 -26 21q0 5 1 10z" />
<glyph unicode="F" horiz-adv-x="880" d="M53 31l199 1417q6 31 33 31h633q26 0 25 -22q0 -4 -1 -9l-12 -88q-6 -31 -33 -31h-461q-47 0 -55 -51l-57 -414q-1 -8 -2 -14q0 -37 40 -37h334q29 0 27 -31l-12 -88q-6 -31 -35 -30h-334q-47 0 -53 -50l-82 -583q-6 -31 -35 -31h-94q-26 0 -26 21q0 5 1 10z" />
<glyph unicode="G" horiz-adv-x="1044" d="M55 502q0 264 62.5 484t201 366.5t332.5 146.5q182 0 272 -110q80 -99 80 -271q0 -20 -2 -41q-2 -33 -32 -33h-95q-27 0 -26 31q0 129 -55.5 202t-163.5 73q-135 0 -232.5 -121t-141.5 -307.5t-44 -413.5q0 -379 248 -379q270 0 327 422q1 7 2 13q0 36 -40 36h-244 q-27 0 -25 31l13 88q6 31 32 31h418q33 0 27 -31l-17 -115q-88 -625 -514 -624q-383 0 -383 522z" />
<glyph unicode="H" horiz-adv-x="1161" d="M53 31l199 1417q6 31 33 31h94q33 0 24 -31l-79 -584q-1 -8 -2 -14q0 -37 40 -37h457q47 0 55 51l80 584q8 31 35 31h94q26 0 27 -20q0 -5 -2 -11l-197 -1417q-6 -31 -34 -31h-95q-31 0 -24 31l82 583q1 6 0 11q0 38 -41 39h-457q-47 0 -53 -50l-82 -583q-6 -31 -35 -31 h-94q-26 0 -26 21q0 5 1 10z" />
<glyph unicode="I" horiz-adv-x="690" d="M-4 31l12 88q2 31 33 31h98q43 0 56 51l149 1077q1 8 1 14q0 37 -40 37h-98q-31 0 -25 31l11 88q2 31 34 31h445q27 0 24 -31l-10 -88q-6 -31 -35 -31h-98q-47 0 -55 -51l-150 -1077q-2 -10 -2 -18q0 -33 41 -33h98q31 0 25 -31l-12 -88q-6 -31 -33 -31h-445 q-26 0 -25 21q0 5 1 10z" />
<glyph unicode="J" horiz-adv-x="684" d="M-29 31l13 88q4 31 34 31h105q86 0 137 48t62 134l157 1116q4 31 35 31h94q24 0 25 -19q0 -5 -2 -12l-154 -1104q-23 -162 -123 -253t-248 -91h-110q-26 0 -26 21q0 5 1 10z" />
<glyph unicode="K" horiz-adv-x="956" d="M53 31l199 1417q6 31 33 31h94q33 0 24 -31l-79 -580q-4 -20 14 -27t35 9l506 633q15 19 28 19q10 0 19 -9l59 -66q11 -11 11 -22q0 -10 -9 -21l-487 -602q-18 -25 -19 -47q0 -15 8 -30l330 -625q14 -29 -16 -45l-84 -45q-11 -6 -20 -6q-14 0 -23 14l-330 635 q-8 20 -31.5 15t-25.5 -32l-82 -585q-6 -31 -35 -31h-94q-26 0 -26 21q0 5 1 10z" />
<glyph unicode="L" horiz-adv-x="858" d="M53 31l199 1417q6 31 33 31h94q33 0 24 -31l-172 -1247q-2 -10 -2 -18q0 -33 41 -33h441q29 0 26 -31l-12 -88q-6 -31 -35 -31h-612q-26 0 -26 21q0 5 1 10z" />
<glyph unicode="M" horiz-adv-x="1406" d="M53 31l199 1413q6 35 35 35h127q25 0 30 -27l199 -969q4 -18 16.5 -18t22.5 18l473 969q12 27 37 27h135q33 0 27 -35l-197 -1413q-6 -31 -35 -31h-94q-31 0 -24 31l139 999q2 23 -14.5 23t-22.5 -17l-385 -790q-12 -29 -41 -29h-102q-23 0 -29 29l-166 790 q-2 10 -10 14.5t-16.5 -1t-10.5 -19.5l-139 -999q-6 -31 -35 -31h-94q-26 0 -26 21q0 5 1 10z" />
<glyph unicode="N" horiz-adv-x="1196" d="M53 31l199 1417q6 31 33 31h116q33 0 45 -35l355 -1090q2 -8 10 -11t17.5 4t11.5 22l151 1079q4 31 33 31h94q29 0 27 -31l-199 -1417q-6 -31 -35 -31h-114q-33 0 -47 35l-353 1089q-2 8 -11 11.5t-17.5 -3t-10.5 -20.5l-151 -1081q-6 -31 -35 -31h-94q-26 0 -26 21 q0 5 1 10z" />
<glyph unicode="O" horiz-adv-x="1107" d="M57 496q0 266 66.5 489t207 368.5t331.5 145.5q193 0 292 -131t99 -383q0 -270 -70 -496.5t-210 -367.5t-324 -141q-392 0 -392 516zM211 518q0 -389 258 -389q131 0 231.5 123t149.5 310.5t49 400.5q0 387 -258 387q-133 0 -233.5 -123t-148.5 -309.5t-48 -399.5z" />
<glyph unicode="P" horiz-adv-x="983" d="M53 31l199 1417q2 31 33 31h305q205 0 304 -96.5t99 -264.5q0 -229 -150.5 -371.5t-389.5 -142.5h-119q-47 0 -53 -49l-74 -524q-6 -31 -33 -31h-96q-26 0 -26 21q0 5 1 10zM315 805q-1 -8 -1 -14q0 -37 40 -37h119q156 0 260.5 90t104.5 264q0 96 -66.5 158.5 t-198.5 62.5h-137q-47 0 -55 -51z" />
<glyph unicode="Q" horiz-adv-x="1073" d="M57 496q0 272 70 497.5t210 365.5t324.5 140t288 -126t103.5 -388q0 -381 -131 -650t-332 -331q-39 -12 -54.5 -43t-25.5 -100q-3 -22 -3 -42q0 -62 30 -105q39 -56 110 -56h94q29 0 25 -31l-12 -88q-6 -31 -33 -31h-84q-98 0 -163.5 37t-87 91.5t-32.5 114.5 q-5 27 -4 53q0 30 6 57q7 44 8 71q0 18 -4 29q-8 27 -47 39q-256 82 -256 496zM211 518q0 -389 258 -389q131 0 231.5 122t149.5 309.5t49 402.5q0 387 -258 387q-131 0 -231.5 -122t-149.5 -309.5t-49 -400.5z" />
<glyph unicode="R" horiz-adv-x="1007" d="M53 31l199 1417q2 31 33 31h305q195 0 299 -91.5t104 -269.5q0 -156 -74.5 -277.5t-195.5 -178.5q-31 -12 -21 -48l168 -546q8 -31 -20 -43l-86 -39q-9 -4 -15 -4q-16 0 -22 20l-172 573q-8 29 -43 29h-178q-47 0 -53 -49l-74 -524q-6 -31 -33 -31h-96q-26 0 -26 21 q0 5 1 10zM315 805q-1 -8 -1 -14q0 -37 40 -37h135q154 0 251.5 96t97.5 258q0 104 -72 162.5t-191 58.5h-139q-47 0 -55 -51z" />
<glyph unicode="S" horiz-adv-x="940" d="M29 428q6 31 32 31h95q33 0 26 -31q-18 -129 38 -214t163 -85q113 0 198 85t85 198q0 82 -55.5 141t-135.5 99t-158.5 85t-134 122t-55.5 185q0 186 126 320.5t325 134.5q131 0 212.5 -63.5t107.5 -156.5t11 -204q-6 -33 -37 -33h-94q-29 0 -22 33q16 123 -35 199 t-166 76q-121 0 -195.5 -80t-74.5 -193q0 -80 55 -139t134 -100l158 -85q79 -44 134 -121t55 -181q0 -209 -138 -340t-321 -131q-180 0 -270 126.5t-63 321.5z" />
<glyph unicode="T" horiz-adv-x="911" d="M88 1360l10 88q6 31 35 31h854q27 0 25 -31l-13 -88q-2 -31 -32 -31h-303q-47 0 -54 -51l-176 -1247q-6 -31 -33 -31h-94q-33 0 -26 31l176 1247q1 6 0 11q0 40 -41 40h-303q-27 0 -25 31z" />
<glyph unicode="U" horiz-adv-x="1116" d="M86 397l145 1051q8 31 35 31h94q31 0 25 -31l-147 -1051q-3 -24 -4 -45q0 -86 52 -147q65 -76 187.5 -76t207.5 76t101 192l148 1051q6 31 37 31h92q26 0 25 -22q0 -4 -1 -9l-147 -1051q-25 -182 -156 -299.5t-327 -117.5q-199 0 -296 117q-76 92 -77 225q0 36 6 75z" />
<glyph unicode="V" horiz-adv-x="1009" d="M135 1436q-2 29 29 39l90 28q6 2 11 3q16 0 20 -25l133 -1157q0 -14 9 -20.5t21.5 -1.5t18.5 22l457 1157q8 24 27 24q5 0 12 -2l92 -28q20 -6 20 -23q0 -7 -4 -16l-577 -1407q-10 -29 -37 -29h-105q-31 0 -35 29z" />
<glyph unicode="W" horiz-adv-x="1462" d="M137 1442q-4 33 27 39l90 18q6 1 11 1q22 0 22 -21l55 -1078q2 -25 20.5 -24.5t28.5 24.5l350 1049q8 29 41 29h105q29 0 28 -29l54 -1049q2 -25 21.5 -24.5t27.5 24.5l360 1078q8 22 27 22q5 0 12 -2l90 -18q19 -4 20 -23q0 -7 -3 -16l-492 -1413q-10 -29 -39 -29h-104 q-27 0 -31 29l-57 1036q-2 25 -20.5 25t-26.5 -25l-348 -1036q-10 -29 -37 -29h-105q-33 0 -33 29z" />
<glyph unicode="X" horiz-adv-x="1009" d="M-43 74l432 626q17 28 17 57q0 16 -5 31l-260 615q-12 25 17 43l78 53q10 6 18 6q14 0 22 -18l226 -547q8 -14 24.5 -14t26.5 14l371 545q11 16 25 16q7 0 16 -4l82 -47q13 -7 12 -19q0 -10 -10 -24l-426 -625q-21 -31 -21 -59q0 -16 6 -31l262 -616q10 -25 -16 -43 l-80 -53q-11 -7 -19 -7q-14 0 -22 19l-227 549q-6 16 -23.5 16t-27.5 -16l-371 -547q-11 -16 -25 -17q-8 0 -18 7l-80 47q-13 8 -13 20q0 10 9 23z" />
<glyph unicode="Y" horiz-adv-x="950" d="M111 1405q-4 8 -4 15q0 16 20 28l82 49q11 7 20 7q14 0 21 -17l215 -615q4 -16 21.5 -16t27.5 16l387 611q12 17 27 17q8 0 16 -5l80 -45q13 -7 13 -19q0 -10 -9 -24l-471 -739q-12 -16 -16 -45l-84 -592q-2 -31 -33 -31h-94q-29 0 -27 31l84 590q2 14 -6 43z" />
<glyph unicode="Z" horiz-adv-x="913" d="M-25 31l13 90q2 18 18 45l707 1122q12 14 8 27.5t-23 13.5h-512q-31 0 -24 31l12 88q6 31 33 31h708q27 0 25 -31l-12 -90q-2 -14 -19 -45l-708 -1123q-25 -41 18 -40h510q27 0 25 -31l-13 -88q-6 -31 -32 -31h-709q-26 0 -26 21q0 5 1 10z" />
<glyph unicode="[" horiz-adv-x="481" d="M-33 -197l262 1872q6 31 35 31h326q27 0 24 -31l-12 -78q-2 -31 -33 -30h-159q-47 0 -54 -49l-219 -1557q-1 -7 -1 -13q0 -36 40 -36h162q29 0 22 -31l-10 -78q-6 -31 -33 -30h-325q-26 0 -26 21q0 4 1 9z" />
<glyph unicode="\" horiz-adv-x="565" d="M72 1552q-4 29 26 37l80 29q6 2 11 2q17 0 22 -23l281 -1675q1 -5 1 -9q0 -21 -24 -30l-80 -26q-8 -3 -14 -4q-16 0 -19 24z" />
<glyph unicode="]" horiz-adv-x="481" d="M-129 -197l10 78q6 31 33 31h162q45 0 53 49l219 1557q1 6 1 10q0 38 -42 39h-162q-31 0 -24 30l10 78q6 31 35 31h326q29 0 26 -31l-264 -1872q-6 -31 -35 -30h-323q-26 0 -26 21q0 4 1 9z" />
<glyph unicode="^" horiz-adv-x="806" d="M102 768l316 688q12 23 31 23h116q23 0 27 -23l119 -686q2 -7 2 -13q0 -19 -25 -26l-88 -31q-8 -3 -14 -3q-16 0 -19 24l-80 485q-2 14 -14 14.5t-18 -14.5l-213 -485q-12 -23 -30 -23q-6 0 -11 2l-82 29q-18 6 -19 25q0 6 2 14z" />
<glyph unicode="_" horiz-adv-x="968" d="M-125 -170l10 80q6 31 31 31h911q26 0 26 -22q0 -4 -1 -9l-10 -80q-6 -33 -35 -33h-909q-24 0 -24 22q0 5 1 11z" />
<glyph unicode="`" horiz-adv-x="583" d="M203 1384q-11 8 -11.5 18.5t11.5 22.5l71 68q10 10 21 10l20 -10l222 -287q7 -8 7 -17q0 -11 -12 -22l-34 -32q-11 -11 -21 -11q-9 0 -18 9z" />
<glyph unicode="a" d="M23 211q0 92 31.5 309t64.5 305q76 227 303 228q109 0 229 -90q10 -10 25.5 -5t17.5 23l4 25q4 27 31 26h90q26 0 26 -23q0 -5 -1 -10l-135 -968q-6 -31 -35 -31h-88q-29 0 -23 29l35 186q2 8 -2 12t-11 2t-12 -8q-150 -242 -331 -241q-104 0 -161.5 63.5t-57.5 167.5z M174 244q0 -61 32 -93t81 -32q111 0 224.5 186.5t141.5 386.5l6 43l2 22q0 34 -16 54q-31 39 -91 69.5t-114 30.5q-137 0 -186 -143q-27 -84 -53.5 -264t-26.5 -260z" />
<glyph unicode="b" d="M14 31l199 1417q4 31 33 31h90q31 0 24 -31l-59 -416l-41 -215q-2 -14 8.5 -16t16.5 8q150 244 331 244q104 0 163 -63.5t59 -168.5q0 -92 -32 -310t-67 -306q-37 -109 -115.5 -167t-187.5 -58q-111 0 -229 90q-10 10 -25.5 5t-17.5 -24l-2 -24q-4 -27 -33 -27h-90 q-26 0 -26 21q0 5 1 10zM199 295q-1 -10 -2 -19q0 -34 18 -57q31 -39 90.5 -69.5t112.5 -30.5q137 0 186 145q27 84 53.5 264.5t26.5 257.5q0 61 -31.5 93t-81.5 32q-111 0 -224.5 -186t-141.5 -387z" />
<glyph unicode="c" horiz-adv-x="804" d="M33 373q0 307 131 493.5t328 186.5q152 0 288 -101q11 -8 12 -18q0 -8 -8 -19l-39 -71q-18 -29 -43 -15q-133 82 -245 82q-119 0 -197 -159.5t-78 -356.5q0 -127 43 -200.5t121 -73.5q119 0 268 82q31 14 37 -17l23 -69q6 -25 -17 -39q-164 -98 -315 -98 q-147 0 -228 102.5t-81 290.5z" />
<glyph unicode="d" d="M23 211q0 92 31.5 309t64.5 305q76 227 303 228q109 0 229 -90q10 -10 25.5 -5t17.5 23l66 467q2 31 31 31h90q31 0 26 -31l-198 -1417q-6 -31 -35 -31h-88q-31 0 -23 29l35 186q2 8 -2 12t-11 2t-12 -8q-150 -242 -331 -241q-104 0 -161.5 63.5t-57.5 167.5zM174 244 q0 -61 32 -93t81 -32q111 0 224.5 186.5t141.5 386.5l6 43l2 22q0 34 -16 54q-31 39 -91 69.5t-114 30.5q-137 0 -186 -143q-27 -84 -53.5 -264t-26.5 -260z" />
<glyph unicode="e" horiz-adv-x="847" d="M31 367q0 313 132 499.5t335 186.5q141 0 211.5 -75t70.5 -175q0 -94 -39 -167t-95 -113t-130 -64.5t-131 -31.5t-111 -7h-47q-45 0 -45 -45q4 -254 168 -254q117 0 273 86q31 14 36 -17l23 -69q6 -23 -16 -39q-168 -102 -328 -102q-154 0 -229.5 107.5t-77.5 279.5z M209 593q0 -38 41 -38h72q37 0 80.5 8t100 30.5t92.5 73t36 121.5q0 55 -36 90t-110 35q-106 0 -183 -92q-93 -112 -93 -228z" />
<glyph unicode="f" horiz-adv-x="571" d="M23 -461l182 1303q1 8 1 14q0 37 -40 37h-84q-33 0 -27 31l11 75q2 33 36 33h82q49 0 56 49l6 45q49 352 377 353h45q26 0 25 -22q0 -4 -1 -9l-10 -80q-6 -29 -35 -29h-51q-104 0 -146 -58t-59 -171l-4 -29q-1 -6 -1 -10q0 -38 42 -39h137q33 0 27 -33l-10 -75 q-6 -31 -35 -31h-139q-47 0 -54 -51l-184 -1303q-6 -31 -33 -31h-88q-32 0 -26 31z" />
<glyph unicode="g" d="M-43 -373l45 76q20 29 43 16q8 -4 34.5 -19t35 -20.5t30 -16.5t32.5 -14t29.5 -9.5t35 -8.5t34.5 -2q92 0 169 94.5t114 294.5l39 197q2 8 -2 12t-11 2t-12 -8q-150 -242 -331 -241q-104 0 -161.5 63t-57.5 168q0 92 31.5 309t64.5 305q76 227 303 228q109 0 229 -90 q10 -10 25.5 -5t17.5 23l4 25q4 27 31 26h90q26 0 26 -23q0 -5 -1 -10l-135 -972q-33 -238 -154 -388.5t-293 -150.5q-133 0 -295 98q-16 10 -15 24q0 8 5 17zM174 244q0 -61 32 -93t81 -32q111 0 224.5 186.5t141.5 386.5l6 43l2 22q0 34 -16 54q-31 39 -91 69.5t-114 30.5 q-137 0 -186 -143q-27 -84 -53.5 -264t-26.5 -260z" />
<glyph unicode="h" horiz-adv-x="940" d="M14 31l199 1417q4 31 33 31h90q29 0 24 -31l-59 -416l-41 -215q-2 -14 8.5 -16t16.5 8q154 244 331 244q121 0 178 -77q42 -58 42 -148q0 -29 -5 -62l-104 -735q-2 -31 -33 -31h-88q-33 0 -26 31l100 727q3 21 3 39q0 114 -112 114q-106 0 -220.5 -182t-153.5 -446 l-35 -252q-6 -31 -33 -31h-90q-26 0 -26 21q0 5 1 10z" />
<glyph unicode="i" horiz-adv-x="372" d="M14 31l136 968q6 33 34 33h88q31 0 25 -33l-135 -968q-4 -31 -33 -31h-90q-26 0 -26 21q0 5 1 10zM162 1282q0 59 34.5 95t86.5 36q88 0 88 -86q0 -59 -34 -95t-85 -36q-90 0 -90 86z" />
<glyph unicode="j" horiz-adv-x="430" d="M-260 -461l12 78q2 31 35 31h43q109 0 155 63.5t64 182.5l154 1105q6 33 35 33h88q31 0 24 -33l-155 -1114q-53 -377 -388 -377h-38q-31 0 -29 31zM215 1282q0 59 35 95t86 36q88 0 88 -86q0 -59 -34 -95t-85 -36q-90 0 -90 86z" />
<glyph unicode="k" horiz-adv-x="798" d="M14 31l199 1417q4 31 33 31h90q29 0 24 -31l-112 -801q-2 -16 9 -20t26 8l374 412q20 25 41 2l56 -64q8 -11 8 -22q0 -13 -12 -25l-347 -377q-27 -27 -12 -57l281 -420q16 -25 -10 -43l-76 -51q-14 -9 -24 -9q-12 0 -19 11l-289 438q-8 12 -22.5 7t-16.5 -21l-53 -385 q-4 -31 -33 -31h-90q-26 0 -26 21q0 5 1 10z" />
<glyph unicode="l" horiz-adv-x="372" d="M14 31l199 1417q4 31 33 31h90q29 0 24 -31l-198 -1417q-4 -31 -33 -31h-90q-26 0 -26 21q0 5 1 10z" />
<glyph unicode="m" horiz-adv-x="1409" d="M14 31l136 968q2 33 32 33h92q29 0 21 -31l-35 -184q-2 -14 8.5 -16t16.5 8q76 125 148.5 184.5t158.5 59.5q104 0 152 -66q36 -49 36 -122q0 -25 -4 -52q0 -10 9.5 -12t15.5 8q147 244 309 244q113 0 161 -77q35 -56 35 -141q0 -33 -6 -69l-102 -735q-6 -31 -31 -31h-92 q-31 0 -26 31l102 735q4 26 4 48q0 39 -12 62q-18 36 -78 35q-96 0 -204.5 -183t-145.5 -445l-35 -252q-6 -31 -31 -31h-92q-31 0 -25 31l103 735q4 25 3 46q0 40 -12 64q-19 36 -77 35q-98 0 -205.5 -182t-146.5 -446l-35 -252q-6 -31 -31 -31h-92q-26 0 -26 21q0 5 1 10z " />
<glyph unicode="n" horiz-adv-x="940" d="M14 31l136 968q6 33 34 33h88q31 0 23 -31l-35 -184q-2 -14 8.5 -16t16.5 8q154 244 331 244q121 0 178 -77q42 -58 42 -148q0 -29 -5 -62l-104 -735q-2 -31 -33 -31h-88q-33 0 -26 31l100 727q3 21 3 39q0 114 -112 114q-106 0 -220.5 -182t-153.5 -446l-35 -252 q-6 -31 -33 -31h-90q-26 0 -26 21q0 5 1 10z" />
<glyph unicode="o" horiz-adv-x="927" d="M31 342q0 193 48 348.5t160.5 259t274.5 103.5q156 0 241 -99.5t85 -265.5q0 -193 -49.5 -348.5t-162 -257.5t-274.5 -102q-156 0 -239.5 99t-83.5 263zM178 348q0 -104 50.5 -166.5t138.5 -62.5q109 0 183.5 82t107 204.5t32.5 276.5q0 104 -50 167.5t-138 63.5 q-158 0 -241 -163.5t-83 -401.5z" />
<glyph unicode="p" d="M-55 -461l205 1460q6 33 34 33h88q31 0 23 -31l-35 -184q-2 -14 8.5 -16t16.5 8q150 244 331 244q104 0 163 -63.5t59 -168.5q0 -92 -32 -310t-67 -306q-37 -109 -115.5 -167t-187.5 -58q-111 0 -229 90q-10 10 -24.5 5t-16.5 -24l-74 -512q-2 -31 -33 -31h-90 q-26 0 -25 22q0 4 1 9zM199 295q-1 -10 -2 -19q0 -34 18 -57q31 -39 90.5 -69.5t112.5 -30.5q137 0 186 145q27 84 53.5 264.5t26.5 257.5q0 61 -31.5 93t-81.5 32q-111 0 -224.5 -186t-141.5 -387z" />
<glyph unicode="q" d="M23 211q0 92 31.5 309t64.5 305q76 227 303 228q109 0 229 -90q10 -10 25.5 -5t17.5 23l4 25q4 27 31 26h90q26 0 26 -23q0 -5 -1 -10l-205 -1460q-6 -31 -35 -31h-88q-31 0 -24 31l65 461l41 215q2 8 -2 12t-11 2t-12 -8q-150 -242 -331 -241q-104 0 -161.5 63.5 t-57.5 167.5zM174 244q0 -61 32 -93t81 -32q111 0 224.5 186.5t141.5 386.5l6 43l2 22q0 34 -16 54q-31 39 -91 69.5t-114 30.5q-137 0 -186 -143q-27 -84 -53.5 -264t-26.5 -260z" />
<glyph unicode="r" horiz-adv-x="598" d="M14 31l136 968q6 33 34 33h88q29 0 23 -31l-35 -190q-2 -12 8.5 -14t16.5 8q70 121 153.5 184.5t159.5 63.5q27 0 23 -29l-15 -98q-4 -27 -33 -29q-125 -14 -232.5 -187t-145.5 -442l-33 -237q-6 -31 -33 -31h-90q-26 0 -26 21q0 5 1 10z" />
<glyph unicode="s" horiz-adv-x="802" d="M-2 117l41 69q16 29 41 17q131 -84 252 -84q72 0 124 56t52 128q0 53 -43 90t-105.5 59.5t-125 50t-105.5 82t-43 134.5q0 143 101.5 238.5t261.5 95.5q152 0 288 -101q11 -8 12 -18q0 -8 -8 -19l-39 -71q-16 -33 -43 -15q-76 49 -129 66.5t-120 17.5q-66 0 -117 -50 t-51 -118q0 -51 43 -84.5t104.5 -57t123.5 -52.5t105.5 -85t43.5 -140q0 -145 -106.5 -245.5t-264.5 -100.5q-154 0 -289 98q-10 8 -10 19q0 9 6 20z" />
<glyph unicode="t" horiz-adv-x="696" d="M45 924l10 75q2 33 35 33h111q39 0 45 39l26 195q4 33 35 32h88q31 0 25 -32l-27 -195q-6 -39 35 -39h209q26 0 26 -23q0 -5 -1 -10l-11 -75q-6 -31 -35 -31h-208q-39 0 -46 -43l-75 -539q-5 -42 -6 -74q0 -43 10 -70q16 -46 76 -46q49 0 143 45q31 16 41 -16l20 -68 q8 -25 -20 -39q-133 -63 -227 -63q-195 0 -196 221q0 41 7 90l80 559q1 6 1 11q0 32 -34 32h-112q-26 0 -26 21q0 5 1 10z" />
<glyph unicode="u" horiz-adv-x="940" d="M45 266l105 733q6 33 32 33h88q33 0 27 -33l-100 -727q-3 -23 -4 -41q0 -112 112 -112q106 0 221 183t154 446l35 251q6 33 33 33h90q26 0 25 -23q0 -5 -1 -10l-135 -968q-2 -31 -35 -31h-88q-31 0 -22 29l34 186q2 8 -2 12t-11 2t-11 -8q-152 -242 -332 -241 q-121 0 -177 76q-42 58 -42 148q-1 29 4 62z" />
<glyph unicode="v" horiz-adv-x="849" d="M74 983q-1 5 -1 10q0 22 23 29l88 31q8 3 14 3q16 0 19 -24l123 -760q4 -14 15.5 -14t17.5 14l338 760q9 23 28 23q7 0 15 -2l77 -29q19 -8 20 -23q0 -7 -5 -16l-436 -962q-12 -23 -31 -23h-115q-23 0 -26 23z" />
<glyph unicode="w" horiz-adv-x="1318" d="M74 987q-4 29 24 37l88 29q8 3 14 3q16 0 19 -24l96 -727q2 -14 14.5 -14t18.5 14l266 703q6 25 29 24h113q18 0 22 -24l68 -703q2 -14 14 -14t19 14l301 727q10 22 27 22q5 0 12 -1l84 -27q18 -6 18 -21q0 -7 -4 -16l-410 -966q-8 -23 -30 -23h-115q-23 0 -27 23 l-63 686q-2 14 -15.5 14t-17.5 -14l-258 -686q-8 -23 -29 -23h-114q-23 0 -27 23z" />
<glyph unicode="x" horiz-adv-x="806" d="M-55 70l309 417q19 26 19 54q0 17 -7 34l-182 386q-10 25 16 43l74 51q11 7 20 6q13 0 21 -14l160 -345q8 -14 19.5 -14t21.5 14l250 342q11 15 23 15q8 0 18 -6l75 -49q9 -7 9.5 -18t-9.5 -25l-286 -386q-22 -30 -22 -56q0 -16 7 -32l197 -415q14 -25 -17 -43l-73 -52 q-12 -10 -22 -9q-13 0 -19 18l-174 372q-14 35 -39 0l-273 -372q-13 -14 -25 -14q-8 0 -18 5l-71 50q-13 9 -13 20q0 10 11 23z" />
<glyph unicode="y" horiz-adv-x="849" d="M39 -438l186 415q14 29 11 56l-162 950q-6 31 22 39l88 31q29 12 33 -21l123 -760q4 -14 15.5 -14t17.5 14l338 760q12 33 43 21l77 -29q29 -12 15 -39l-666 -1472q-12 -29 -41 -19l-86 29q-24 8 -14 39z" />
<glyph unicode="z" horiz-adv-x="821" d="M-4 31l10 80q10 35 17 45l520 694q12 14 8 28.5t-25 14.5h-381q-31 0 -24 31l10 75q2 33 35 33h573q26 0 26 -23q0 -5 -1 -10l-10 -77q-4 -25 -21 -45l-512 -697q-12 -14 -8 -27.5t23 -13.5h378q29 0 27 -30l-12 -78q-2 -31 -33 -31h-576q-26 0 -25 21q0 5 1 10z" />
<glyph unicode="{" horiz-adv-x="589" d="M-4 702l8 74q6 33 35 33h55q123 0 142 152l63 440q18 141 110.5 223t211.5 82h75q31 0 27 -31l-12 -78q-4 -31 -35 -30h-72q-135 0 -153 -146l-68 -463q-8 -63 -26.5 -103t-35 -52t-31 -27.5t-18.5 -36.5q-2 -20 8.5 -35.5t23.5 -27.5t20.5 -50t-2.5 -106l-64 -463 q-18 -145 113 -145h73q31 0 25 -31l-10 -78q-4 -31 -35 -30h-76q-119 0 -187.5 83t-47.5 222l61 440q10 78 -12.5 115t-87.5 37h-56q-28 -1 -22 32z" />
<glyph unicode="|" horiz-adv-x="456" d="M14 -279l285 2036q6 31 33 31h88q31 0 26 -31l-286 -2036q-6 -31 -35 -30h-88q-24 0 -24 21q0 4 1 9z" />
<glyph unicode="}" horiz-adv-x="589" d="M-129 -197l10 78q6 31 33 31h74q133 0 155 145l64 463q8 63 26.5 103.5t35 52.5t30.5 27.5t18 35.5q4 25 -13 41.5t-33 56.5q-9 22 -8 57q0 28 5 64l66 463q3 21 3 39q0 107 -116 107h-76q-29 0 -24 30l10 78q6 31 35 31h78q119 0 186 -83q53 -65 53 -165q0 -27 -4 -57 l-63 -440q-3 -24 -3 -45q0 -45 15 -70q23 -37 88 -37h53q31 0 27 -33l-10 -74q-6 -33 -37 -32h-53q-66 0 -98.5 -37t-43.5 -115l-61 -440q-20 -141 -111.5 -223t-210.5 -82h-75q-29 -1 -25 30z" />
<glyph unicode="~" horiz-adv-x="968" d="M20 590q39 150 123 224.5t181 74.5q72 0 124 -39t76.5 -85t60.5 -85t77 -39q45 0 80.5 42t52.5 118q6 29 32 28h88q24 0 24 -19q0 -7 -3 -17q-41 -152 -124 -225.5t-179 -73.5q-72 0 -124 38.5t-76.5 85t-60.5 85t-77 38.5q-45 0 -82 -43t-51 -116q-6 -29 -33 -29h-88 q-24 0 -24 19q0 8 3 18z" />
<glyph unicode="&#xa1;" horiz-adv-x="415" d="M-49 -416l182 1057q6 33 37 33h66q27 0 24 -33l-113 -1057q-6 -31 -36 -30h-136q-26 0 -25 21q0 4 1 9zM123 911q0 57 39 95t88 38q43 0 68.5 -28.5t25.5 -67.5q0 -59 -38 -97t-89 -38q-43 0 -68.5 28.5t-25.5 69.5z" />
<glyph unicode="&#xa2;" horiz-adv-x="854" d="M92 793q0 303 100.5 483t278.5 215l31 223q6 31 35 31h94q31 0 24 -31l-30 -221q111 -20 165 -104q50 -78 50 -196v-17q-4 -33 -35 -33h-90q-27 0 -27 22q-2 92 -41 143.5t-110 51.5q-125 0 -210 -135t-85 -406q0 -254 182 -254q72 0 126 51.5t81 143.5q10 23 33 22h90 q33 0 26 -30q-33 -133 -111.5 -216t-195.5 -104l-29 -219q-6 -33 -34 -33h-93q-33 0 -26 33l31 219q-230 44 -230 361z" />
<glyph unicode="&#xa3;" horiz-adv-x="987" d="M0 31l12 88q4 39 29 51q80 39 140.5 106.5t72.5 155.5l20 152q1 7 2 13q0 36 -40 36h-103q-31 0 -24 33l10 75q6 31 35 31h102q47 0 53 51l25 178q35 250 164 364t376 114h33q24 0 25 -19q0 -5 -2 -12l-10 -88q-6 -31 -35 -31h-31q-188 0 -265 -76.5t-108 -294.5 l-18 -135q-1 -6 -1 -11q0 -40 42 -40h284q31 0 25 -31l-10 -75q-6 -33 -35 -33h-285q-47 0 -55 -49l-22 -168q-12 -82 -46 -131t-90 -95q-8 -6 -11 -16t2 -17t18 -7h520q29 0 22 -31l-12 -88q-2 -31 -31 -31h-751q-33 0 -27 31z" />
<glyph unicode="&#xa4;" horiz-adv-x="966" d="M2 344q-8 11 -8 20q0 13 14 25l154 143q-25 61 -25 132q0 162 80 274l-115 145q-18 23 4 45l70 62q10 11 21 11t22 -11l115 -146q90 53 200.5 53.5t186.5 -53.5l156 142q13 11 23 11t18 -11l47 -56q8 -11 8 -20q0 -13 -15 -25l-155 -143q29 -61 28 -135q0 -164 -83 -272 l118 -146q16 -23 -6 -43l-69 -63q-11 -11 -21.5 -11.5t-19.5 11.5l-117 143q-90 -51 -199 -51q-113 0 -190 55l-154 -141q-13 -11 -24 -11t-19 11zM274 690q0 -76 45.5 -129t133.5 -53q98 0 169.5 73.5t71.5 200.5q0 76 -45 129.5t-131 53.5q-102 0 -173 -76t-71 -199z" />
<glyph unicode="&#xa5;" horiz-adv-x="1079" d="M98 588l11 76q6 33 32 32h244q27 0 33 21.5t-2 30.5l-242 657q-12 27 19 43l92 49q10 6 18 6q13 0 21 -16l215 -615q6 -16 22.5 -16t28.5 16l387 611q10 19 24 19q8 0 17 -7l69 -45q12 -8 13 -20q0 -10 -8 -23l-418 -659q-14 -20 -9 -36t21 -16h246q29 0 26 -32l-12 -76 q-2 -31 -33 -31h-274q-43 0 -49 -45l-70 -481q-2 -31 -33 -31h-94q-31 0 -24 31l67 481q1 6 1 11q0 34 -38 34h-276q-26 0 -26 21q0 5 1 10z" />
<glyph unicode="&#xa6;" horiz-adv-x="397" d="M14 -279l101 723q4 31 35 31h86q29 0 24 -31l-100 -723q-6 -31 -35 -30h-88q-24 0 -24 21q0 4 1 9zM197 1034l102 723q6 31 33 31h88q31 0 26 -31l-104 -723q-4 -31 -31 -30h-88q-30 -1 -26 30z" />
<glyph unicode="&#xa7;" horiz-adv-x="911" d="M-23 -137q2 31 31 31h92q31 0 25 -31q-3 -23 -3 -44q0 -71 37 -121q48 -65 140 -65q96 0 168 69t72 167q0 70 -49.5 122t-117.5 90l-139 79q-70 41 -118.5 111.5t-48.5 164.5q0 121 60 217.5t163 139.5q16 6 19 21t-11 24q-139 106 -139 256q0 172 111.5 288.5 t291.5 116.5q174 0 248 -103q56 -79 56 -188q0 -33 -5 -69q-6 -31 -33 -31h-92q-29 0 -26 31q4 25 3 46q0 65 -31 109q-42 59 -138 60q-106 0 -169 -66t-63 -158q0 -68 49.5 -118.5t119 -87.5t138 -79t117.5 -114t49 -170q0 -117 -60 -213t-159 -145q-33 -16 -6 -43 q133 -96 133 -260q0 -170 -121.5 -291t-291.5 -121q-168 0 -247 108q-60 82 -60 194q-1 35 5 73zM219 475q0 -125 170 -207h5q84 0 159 76q78 78 78 178q0 129 -156 209q-104 0 -180 -84t-76 -172z" />
<glyph unicode="&#xa8;" horiz-adv-x="782" d="M210 1374q32 35 83 35q86 0 86 -81v-7q-2 -57 -35 -90t-82 -33q-41 0 -64 25q-22 23 -22 59q0 55 34 92zM597 1374q32 35 83 35q41 0 63 -24q21 -22 21 -57v-7q-2 -55 -34 -89t-81 -34q-43 0 -66 25q-22 23 -22 59q0 53 36 92z" />
<glyph unicode="&#xa9;" horiz-adv-x="1660" d="M100 612q0 246 114 451t306.5 320.5t415.5 115.5q297 0 462 -180t165 -445q0 -385 -249 -639.5t-591 -254.5q-295 0 -459 181t-164 451zM242 637q0 -219 131 -368.5t370 -149.5q283 0 480.5 212t197.5 519q0 217 -133 363.5t-370 146.5q-276 0 -476 -208t-200 -515z M535 618q0 242 94 391.5t268 149.5q115 0 172 -67q52 -61 52 -163q0 -11 -1 -22q0 -33 -33 -33h-77q-27 0 -27 23q-6 135 -102 135q-94 0 -149.5 -111.5t-55.5 -287.5q0 -180 123 -180q96 0 139 133q8 23 33 22h78q33 0 26 -30q-27 -117 -103.5 -184.5t-191.5 -67.5 q-245 -1 -245 292z" />
<glyph unicode="&#xaa;" horiz-adv-x="479" d="M88 1108q0 57 16.5 167.5t38.5 162.5q39 98 144 98q59 0 112 -43q4 -4 9.5 -5t9.5 2t4 9l2 8q6 18 27 19h61q29 0 25 -29l-68 -467q-2 -31 -29 -31h-61q-25 0 -19 25l11 55q2 10 -5.5 12.5t-11.5 -4.5q-68 -98 -155 -98q-51 0 -81 32t-30 87zM209 1145q0 -47 41 -47 q45 0 89 72.5t58 164.5l2 23q1 6 1 11q0 15 -9 26q-31 35 -74 35q-55 0 -71 -56q-12 -31 -24.5 -111.5t-12.5 -117.5z" />
<glyph unicode="&#xab;" horiz-adv-x="1024" d="M74 508q-7 9 -7 19q0 13 13 26l403 373q13 12 24.5 12t20.5 -12l45 -68q16 -23 -6 -45l-276 -254q-20 -19 -21 -38q0 -14 11 -27l208 -258q20 -20 -4 -43l-67 -56q-12 -11 -23.5 -11t-21.5 11zM430 508q-7 9 -7 19q0 13 13 26l406 373q12 12 23 12t20 -12l45 -68 q8 -11 8 -20q0 -13 -14 -25l-275 -254q-22 -19 -22 -38q0 -14 12 -27l209 -258q20 -23 -6 -43l-68 -56q-13 -11 -24 -11t-19 11z" />
<glyph unicode="&#xac;" horiz-adv-x="825" d="M33 686l10 76q6 33 33 33h688q29 0 27 -33l-60 -420q-6 -31 -35 -31h-88q-31 0 -24 31l34 262q1 8 2 14q0 37 -40 37h-525q-24 0 -23 21q0 5 1 10z" />
<glyph unicode="&#xad;" horiz-adv-x="581" d="M4 496l12 82q2 33 35 32h443q29 0 26 -32l-12 -82q-6 -33 -35 -33h-442q-29 0 -27 33z" />
<glyph unicode="&#xae;" horiz-adv-x="1660" d="M100 612q0 246 114 451t306.5 320.5t415.5 115.5q297 0 462 -180t165 -445q0 -385 -249 -639.5t-591 -254.5q-295 0 -459 181t-164 451zM242 637q0 -219 131 -368.5t370 -149.5q283 0 480.5 212t197.5 519q0 217 -133 363.5t-370 146.5q-276 0 -476 -208t-200 -515z M563 371l103 739q2 33 34 33h228q109 0 163 -61.5t54 -145.5q0 -92 -42 -158.5t-104 -99.5q-20 -12 -12 -31l72 -244q6 -31 -21 -41l-69 -32q-10 -4 -18 -4q-17 0 -23 18l-68 272q-8 25 -31 25h-57q-33 0 -39 -37l-33 -233q-6 -31 -34 -31h-78q-26 0 -26 20q-1 5 1 11z M760 805q-6 -37 31 -37h79q53 0 94.5 39t41.5 108q0 43 -26 72t-73 29h-82q-35 0 -41 -37z" />
<glyph unicode="&#xaf;" horiz-adv-x="718" d="M172 1266l10 73q6 31 33 31h465q31 0 29 -31l-13 -73q-2 -31 -32 -31h-465q-29 0 -27 31z" />
<glyph unicode="&#xb0;" horiz-adv-x="763" d="M90 1073q0 180 110.5 303t286.5 123q147 0 223 -82t76 -211q0 -182 -109.5 -305t-289.5 -123q-145 0 -221 83t-76 212zM227 1096q0 -78 46 -131.5t133 -53.5q111 0 176 79t65 194q0 78 -45 130t-131 52q-104 0 -174 -79.5t-70 -190.5z" />
<glyph unicode="&#xb1;" horiz-adv-x="825" d="M-59 31l10 78q6 31 33 30h688q29 0 26 -30l-12 -78q-2 -31 -33 -31h-688q-26 0 -25 21q0 5 1 10zM33 686l10 76q6 33 33 33h223q47 0 53 49l39 260q2 33 35 33h88q27 0 25 -33l-37 -260q-1 -7 -1 -14q0 -36 40 -35h223q29 0 27 -33l-13 -76q-2 -31 -33 -31h-223 q-47 0 -55 -51l-35 -262q-6 -31 -35 -31h-88q-29 0 -26 31l36 262q1 6 1 11q0 40 -41 40h-224q-24 0 -23 21q0 5 1 10z" />
<glyph unicode="&#xb2;" horiz-adv-x="602" d="M94 768l8 63q2 23 25 46l281 294q61 68 61 125q0 29 -18.5 53.5t-57.5 24.5q-45 0 -73.5 -29.5t-32.5 -76.5q-6 -27 -33 -27h-68q-25 0 -20 27q12 98 76.5 161.5t167.5 63.5q90 0 136 -52t46 -122q0 -113 -119 -234l-188 -200q-8 -6 -6 -15.5t12 -9.5h211q27 0 20 -29 l-8 -63q-4 -29 -29 -29h-366q-29 0 -25 29z" />
<glyph unicode="&#xb3;" horiz-adv-x="614" d="M121 952q2 29 29 29h67q29 0 25 -27q-1 -10 -2 -18q0 -31 17 -55q22 -31 65 -31q51 0 81.5 36t30.5 99q0 84 -88 84q-14 0 -20.5 3t-3.5 15l10 76q2 23 30 23q45 0 77 32.5t32 81.5q0 33 -20.5 55.5t-57.5 22.5q-43 0 -69.5 -30.5t-32.5 -75.5q-2 -27 -33 -27h-65 q-27 0 -25 29q14 98 79.5 160.5t168.5 62.5q84 0 131 -49t47 -115q0 -123 -109 -186q-16 -12 -2 -21q76 -49 76 -137q0 -111 -73.5 -185.5t-180.5 -74.5q-100 0 -149 62q-38 48 -38 118q0 20 3 43z" />
<glyph unicode="&#xb4;" horiz-adv-x="583" d="M164 1178q-5 7 -5 14q0 12 13 25l303 286q11 10 21 10q11 0 20 -12l55 -76q6 -10 6 -17q0 -13 -14 -24l-327 -251q-13 -9 -23 -9q-11 0 -18 11z" />
<glyph unicode="&#xb5;" horiz-adv-x="940" d="M-55 -461l205 1460q6 33 34 33h88q31 0 25 -33l-92 -661q-4 -31 -4 -58q0 -161 147 -161q51 0 120 30.5t114 69.5q29 31 34 76l99 704q6 33 37 33h88q24 0 23 -22q0 -5 -1 -11l-135 -968q-4 -31 -33 -31h-76q-27 0 -28 25l-2 28q-2 18 -15.5 22.5t-25.5 -5.5 q-127 -90 -236 -90q-70 0 -110 22q-11 6 -20 6q-23 0 -27 -39l-62 -430q-4 -31 -33 -31h-90q-26 0 -25 22q0 4 1 9z" />
<glyph unicode="&#xb6;" horiz-adv-x="1458" d="M72 1014q0 188 129 326.5t331 138.5h943q31 0 26 -31l-10 -78q-6 -31 -37 -31h-162q-47 0 -53 -51l-246 -1749q-6 -31 -32 -31h-91q-31 0 -24 33l246 1749q1 6 0 11q0 38 -41 38h-174q-51 0 -58 -47l-246 -1753q-6 -31 -34 -31h-88q-31 0 -25 31l152 1079q1 6 0 11 q0 38 -41 39h-121q-166 0 -255 99.5t-89 246.5z" />
<glyph unicode="&#xb7;" horiz-adv-x="415" d="M96 715q0 66 37 102.5t92 36.5q47 0 70.5 -25.5t23.5 -66.5q0 -61 -35.5 -100t-90.5 -39q-47 0 -72 25.5t-25 66.5z" />
<glyph unicode="&#xb8;" horiz-adv-x="559" d="M-47 -334l33 45q25 27 43 10q45 -45 98 -45q29 0 49.5 15.5t20.5 44.5q0 27 -28 47l-55 43q-28 23 -28 59q0 45 57 115h99q-39 -45 -39 -70q0 -20 18.5 -35.5t42 -25.5t42 -40t18.5 -73q0 -90 -65.5 -142t-149.5 -52q-90 0 -156 65q-7 7 -7 17t7 22z" />
<glyph unicode="&#xb9;" horiz-adv-x="565" d="M147 768l9 63q2 29 32 29h48q29 0 34 33l54 387q2 8 -4.5 11t-14.5 -3l-55 -53q-25 -18 -39 2l-35 51q-12 20 6 39l154 135q16 16 43 17h70q29 0 22 -29l-78 -557q-6 -33 23 -33h49q27 0 24 -29l-10 -63q-2 -29 -30 -29h-277q-26 0 -26 20q0 4 1 9z" />
<glyph unicode="&#xba;" horiz-adv-x="487" d="M27 1180q0 160 67.5 258t192.5 98q86 0 131 -50t45 -138q0 -160 -66.5 -259.5t-189.5 -99.5q-88 0 -134 51.5t-46 139.5zM145 1190q0 -94 72 -94q59 0 94 66.5t35 172.5q0 94 -72 95q-59 0 -94 -68t-35 -172z" />
<glyph unicode="&#xbb;" horiz-adv-x="1024" d="M35 205q-7 9 -7 17q0 12 13 26l276 254q20 19 21 38q0 14 -10 27l-209 258q-23 25 6 43l68 56q12 10 22.5 10t20.5 -10l299 -371q18 -25 -7 -45l-403 -371q-12 -12 -23 -12t-20 12zM391 205q-6 9 -6 18q0 13 12 25l277 254q20 19 20 38q0 14 -10 27l-209 258q-23 25 6 43 l68 56q12 10 23 10t20 -10l299 -371q8 -10 8 -20q0 -12 -12 -25l-406 -371q-12 -12 -23 -12t-20 12z" />
<glyph unicode="&#xbc;" horiz-adv-x="1318" d="M8 63l977 1418q11 16 25 16q8 0 18 -6l55 -37q15 -7 15 -20q0 -10 -8 -23l-977 -1413q-10 -18 -25 -18q-8 0 -16 6l-58 34q-15 9 -15 22q0 9 9 21zM66 768l8 63q2 29 32 29h48q29 0 34 33l54 387q2 8 -4.5 11t-14.5 -3l-55 -53q-25 -18 -39 2l-35 51q-12 20 6 39l154 135 q16 16 43 17h70q29 0 22 -29l-78 -557q-6 -33 23 -33h49q27 0 25 -29l-11 -63q-2 -29 -30 -29h-277q-26 0 -25 20q0 4 1 9zM608 182l10 68q4 27 11 37l219 446q8 21 25 21q6 0 14 -2l57 -25q23 -14 10 -37l-190 -391q-10 -27 6 -27h61q27 0 29 31l10 68q6 27 31 26h68 q29 0 22 -26l-10 -68q-2 -31 25 -31h49q24 0 23 -18q0 -4 -1 -8l-8 -64q-6 -29 -31 -28h-51q-25 0 -31 -29l-14 -96q-2 -29 -29 -29h-67q-27 0 -25 29l15 96q6 29 -25 29h-182q-23 -1 -21 28z" />
<glyph unicode="&#xbd;" horiz-adv-x="1280" d="M0 63l977 1418q11 16 25 16q8 0 18 -6l55 -37q15 -7 15 -20q0 -10 -9 -23l-977 -1413q-10 -18 -24 -18q-8 0 -17 6l-57 34q-15 9 -15 22q0 9 9 21zM61 768l9 63q2 29 32 29h48q29 0 34 33l54 387q2 8 -4.5 11t-14.5 -3l-55 -53q-25 -18 -39 2l-35 51q-12 20 6 39l154 135 q16 16 43 17h69q29 0 23 -29l-78 -557q-6 -33 23 -33h49q27 0 24 -29l-10 -63q-2 -29 -31 -29h-276q-26 0 -26 20q0 4 1 9zM586 29l8 63q2 23 24 45l281 295q61 68 62 125q0 29 -18.5 53.5t-57.5 24.5q-45 0 -74 -30t-33 -77q-6 -27 -33 -26h-67q-25 0 -21 26q12 98 77 162 t167 64q90 0 136 -52.5t46 -121.5q0 -113 -118 -234l-189 -201q-8 -6 -6 -15t12 -9h211q27 0 21 -29l-8 -63q-4 -29 -29 -29h-367q-28 0 -24 29z" />
<glyph unicode="&#xbe;" horiz-adv-x="1368" d="M39 952q2 29 29 29h67q29 0 25 -27q-1 -10 -2 -18q0 -31 17 -55q22 -31 65 -31q51 0 81.5 36t30.5 99q0 84 -88 84q-14 0 -20 3t-4 15l10 76q2 23 31 23q45 0 76.5 32.5t31.5 81.5q0 33 -20.5 55.5t-57.5 22.5q-43 0 -69.5 -30.5t-32.5 -75.5q-2 -27 -33 -27h-65 q-27 0 -25 29q14 98 79.5 160.5t168.5 62.5q84 0 131 -49t47 -115q0 -123 -109 -186q-16 -12 -2 -21q76 -49 76 -137q0 -111 -73.5 -185.5t-180.5 -74.5q-100 0 -149 62q-38 48 -38 118q0 20 3 43zM53 63l977 1418q11 16 25 16q8 0 18 -6l55 -37q15 -7 15 -20q0 -10 -8 -23 l-977 -1413q-10 -18 -24 -18q-8 0 -17 6l-58 34q-15 9 -15 22q0 9 9 21zM657 182l11 68q4 27 10 37l219 446q8 21 25 21q6 0 14 -2l57 -25q23 -14 11 -37l-191 -391q-10 -27 6 -27h62q27 0 28 31l11 68q6 27 30 26h68q29 0 22 -26l-10 -68q-2 -31 25 -31h49q24 0 23 -18 q0 -4 -1 -8l-8 -64q-6 -29 -31 -28h-51q-25 0 -30 -29l-15 -96q-2 -29 -28 -29h-68q-27 0 -25 29l15 96q6 29 -25 29h-182q-23 -1 -21 28z" />
<glyph unicode="&#xbf;" horiz-adv-x="968" d="M-23 -141q0 102 38 182t94.5 132t114 99t104.5 108.5t59 133.5l19 94q2 31 34 31h66q29 0 26 -33l-8 -86q-8 -88 -51 -160.5t-99 -122.5l-111 -101q-54 -50 -92 -115.5t-38 -145.5q0 -72 46 -133t155 -61q113 0 185.5 75.5t88.5 198.5q2 33 35 33h92q25 0 25 -25 q0 -82 -40.5 -164t-101.5 -145q-117 -123 -307 -123q-168 0 -251 97.5t-83 230.5zM401 907q0 57 38 96t87 39q43 0 70 -28.5t27 -67.5q0 -59 -39 -97t-90 -38q-43 0 -68 27.5t-25 68.5z" />
<glyph unicode="&#xc0;" horiz-adv-x="1009" d="M-61 43l577 1407q12 29 41 29h105q29 0 32 -29l180 -1407q2 -29 -26 -39l-90 -29q-7 -2 -13 -2q-17 0 -20 25l-27 254q-4 35 -43 35h-415q-37 0 -52 -35l-102 -254q-10 -24 -28 -24q-5 0 -11 1l-92 29q-20 7 -20 23q0 7 4 16zM283 492q-7 -18 -8 -30q0 -25 32 -26h322 q25 0 35 17.5t6 38.5l-76 663q-2 14 -11.5 20.5t-20.5 1t-17 -21.5zM346 1755l43 90q8 18 22 18q8 0 19 -5l305 -191q11 -7 11 -21q0 -7 -3 -16l-16 -45q-8 -20 -22 -20q-8 0 -17 6l-334 145q-14 8 -13 21q-1 8 5 18z" />
<glyph unicode="&#xc1;" horiz-adv-x="1009" d="M-61 43l577 1407q12 29 41 29h105q29 0 32 -29l180 -1407q2 -29 -26 -39l-90 -29q-7 -2 -13 -2q-17 0 -20 25l-27 254q-4 35 -43 35h-415q-37 0 -52 -35l-102 -254q-10 -24 -28 -24q-5 0 -11 1l-92 29q-20 7 -20 23q0 7 4 16zM283 492q-7 -18 -8 -30q0 -25 32 -26h322 q25 0 35 17.5t6 38.5l-76 663q-2 14 -11.5 20.5t-20.5 1t-17 -21.5zM502 1630q-2 5 -2 10q0 16 20 27l359 188q10 4 18 5q14 0 21 -15l36 -90q3 -6 3 -12q0 -17 -23 -27l-371 -143q-8 -4 -15 -4q-14 0 -22 16z" />
<glyph unicode="&#xc2;" horiz-adv-x="1009" d="M-61 43l577 1407q12 29 41 29h105q29 0 32 -29l180 -1407q2 -29 -26 -39l-90 -29q-7 -2 -13 -2q-17 0 -20 25l-27 254q-4 35 -43 35h-415q-37 0 -52 -35l-102 -254q-10 -24 -28 -24q-5 0 -11 1l-92 29q-20 7 -20 23q0 7 4 16zM283 492q-7 -18 -8 -30q0 -25 32 -26h322 q25 0 35 17.5t6 38.5l-76 663q-2 14 -11.5 20.5t-20.5 1t-17 -21.5zM328 1614q-6 9 -6 16q0 13 18 23l285 184q19 12 36.5 12t32.5 -12l234 -182q12 -10 12 -21q0 -8 -6 -16l-33 -45q-9 -15 -22 -15q-7 0 -15 5l-192 110q-27 12 -58 0l-227 -112q-8 -3 -15 -4q-14 0 -22 14z " />
<glyph unicode="&#xc3;" horiz-adv-x="1009" d="M-61 43l577 1407q12 29 41 29h105q29 0 32 -29l180 -1407q2 -29 -26 -39l-90 -29q-7 -2 -13 -2q-17 0 -20 25l-27 254q-4 35 -43 35h-415q-37 0 -52 -35l-102 -254q-10 -24 -28 -24q-5 0 -11 1l-92 29q-20 7 -20 23q0 7 4 16zM283 492q-7 -18 -8 -30q0 -25 32 -26h322 q25 0 35 17.5t6 38.5l-76 663q-2 14 -11.5 20.5t-20.5 1t-17 -21.5zM293 1606q-9 6 -9 15q0 11 11 28q57 84 106.5 123.5t110.5 39.5q66 0 148.5 -67.5t109.5 -67.5q55 0 133 95q16 23 45 4l35 -27q9 -7 9 -17q0 -12 -11 -28q-61 -86 -109.5 -125t-109.5 -39 q-49 0 -100.5 34t-92.5 67.5t-67 33.5q-55 0 -131 -94q-18 -20 -41 -2z" />
<glyph unicode="&#xc4;" horiz-adv-x="1009" d="M-61 43l577 1407q12 29 41 29h105q29 0 32 -29l180 -1407q2 -29 -26 -39l-90 -29q-7 -2 -13 -2q-17 0 -20 25l-27 254q-4 35 -43 35h-415q-37 0 -52 -35l-102 -254q-10 -24 -28 -24q-5 0 -11 1l-92 29q-20 7 -20 23q0 7 4 16zM283 492q-7 -18 -8 -30q0 -25 32 -26h322 q25 0 35 17.5t6 38.5l-76 663q-2 14 -11.5 20.5t-20.5 1t-17 -21.5zM326 1649q0 55 32.5 91t83.5 36q86 0 86 -84q0 -57 -32.5 -92t-83.5 -35q-41 0 -63.5 23.5t-22.5 60.5zM741 1649q0 55 33 91t86 36q86 0 86 -84q0 -57 -32.5 -92t-84.5 -35q-43 0 -65.5 22.5t-22.5 61.5z " />
<glyph unicode="&#xc5;" horiz-adv-x="1009" d="M-61 43l577 1407q12 29 41 29h105q29 0 32 -29l180 -1407q2 -29 -26 -39l-90 -29q-7 -2 -13 -2q-17 0 -20 25l-27 254q-4 35 -43 35h-415q-37 0 -52 -35l-102 -254q-10 -24 -28 -24q-5 0 -11 1l-92 29q-20 7 -20 23q0 7 4 16zM283 492q-7 -18 -8 -30q0 -25 32 -26h322 q25 0 35 17.5t6 38.5l-76 663q-2 14 -11.5 20.5t-20.5 1t-17 -21.5zM457 1657q0 96 61.5 156.5t149.5 60.5q74 0 114.5 -40t40.5 -110q0 -100 -59 -160.5t-150 -60.5q-76 0 -116.5 42t-40.5 112zM565 1671q0 -66 64 -65q41 0 64.5 28.5t23.5 75.5q0 63 -66 64 q-39 0 -62.5 -29t-23.5 -74z" />
<glyph unicode="&#xc6;" horiz-adv-x="1566" d="M-88 66l879 1376q20 37 63 37h713q27 0 24 -31l-10 -88q-6 -31 -35 -31h-463q-47 0 -55 -51l-57 -414q-1 -8 -1 -14q0 -37 40 -37h336q33 0 26 -31l-12 -88q-2 -31 -35 -30h-338q-45 0 -51 -50l-57 -413q-1 -8 -2 -14q0 -37 41 -37h462q29 0 27 -31l-12 -88 q-6 -31 -35 -31h-635q-31 0 -25 31l29 207q1 6 1 11q0 38 -40 38h-426q-35 0 -53 -33l-166 -264q-11 -19 -25 -19q-7 0 -16 4l-88 48q-12 8 -12 20q0 10 8 23zM371 436h344q41 0 49 51l106 758q2 16 -11 20h-4q-11 0 -19 -14l-482 -766q-9 -14 -9 -26q0 -23 26 -23z" />
<glyph unicode="&#xc7;" horiz-adv-x="1009" d="M55 489q0 276 64.5 502t203 367t328.5 141q182 0 272 -110q80 -99 80 -271q0 -20 -2 -41q-2 -33 -32 -33h-95q-27 0 -26 31q0 129 -55.5 202t-163.5 73q-190 0 -304 -235.5t-114 -592.5q0 -393 248 -393q111 0 185.5 72.5t109.5 201.5q8 31 34 31h95q31 0 24 -33 q-43 -182 -147.5 -290.5t-259.5 -126.5q-25 -31 -25 -54q0 -20 18.5 -35.5t42 -25.5t42 -40t18.5 -73q0 -90 -65.5 -142t-149.5 -52q-90 0 -156 65q-14 14 0 39l33 45q25 27 43 10q45 -45 98 -45q29 0 49.5 15.5t20.5 44.5q0 27 -28 47l-55 43q-28 23 -28 59q0 43 41 97 q-170 12 -257 141.5t-87 365.5z" />
<glyph unicode="&#xc8;" d="M53 31l199 1417q6 31 33 31h637q25 0 22 -31l-10 -88q-6 -31 -33 -31h-465q-47 0 -55 -51l-57 -414q-1 -8 -2 -14q0 -37 40 -37h338q29 0 27 -31l-12 -88q-6 -31 -35 -30h-338q-47 0 -53 -50l-58 -413q-2 -10 -2 -18q0 -33 41 -33h465q27 0 25 -31l-12 -88 q-6 -31 -33 -31h-637q-26 0 -26 21q0 5 1 10zM389 1755l43 90q8 18 22 18q8 0 19 -5l305 -191q11 -7 11 -21q0 -7 -3 -16l-16 -45q-8 -20 -22 -20q-8 0 -17 6l-334 145q-14 8 -13 21q-1 8 5 18z" />
<glyph unicode="&#xc9;" d="M53 31l199 1417q6 31 33 31h637q25 0 22 -31l-10 -88q-6 -31 -33 -31h-465q-47 0 -55 -51l-57 -414q-1 -8 -2 -14q0 -37 40 -37h338q29 0 27 -31l-12 -88q-6 -31 -35 -30h-338q-47 0 -53 -50l-58 -413q-2 -10 -2 -18q0 -33 41 -33h465q27 0 25 -31l-12 -88 q-6 -31 -33 -31h-637q-26 0 -26 21q0 5 1 10zM410 1630q-2 5 -2 10q0 16 20 27l358 188q10 4 18 5q14 0 21 -15l37 -90q3 -6 3 -12q0 -17 -23 -27l-371 -143q-8 -4 -15 -4q-14 0 -22 16z" />
<glyph unicode="&#xca;" d="M53 31l199 1417q6 31 33 31h637q25 0 22 -31l-10 -88q-6 -31 -33 -31h-465q-47 0 -55 -51l-57 -414q-1 -8 -2 -14q0 -37 40 -37h338q29 0 27 -31l-12 -88q-6 -31 -35 -30h-338q-47 0 -53 -50l-58 -413q-2 -10 -2 -18q0 -33 41 -33h465q27 0 25 -31l-12 -88 q-6 -31 -33 -31h-637q-26 0 -26 21q0 5 1 10zM322 1614q-6 9 -6 16q0 13 18 23l284 184q19 12 37 12t33 -12l234 -182q12 -10 12 -21q0 -8 -6 -16l-33 -45q-9 -15 -22 -15q-7 0 -15 5l-192 110q-27 12 -58 0l-227 -112q-8 -3 -15 -4q-14 0 -22 14z" />
<glyph unicode="&#xcb;" d="M53 31l199 1417q6 31 33 31h637q25 0 22 -31l-10 -88q-6 -31 -33 -31h-465q-47 0 -55 -51l-57 -414q-1 -8 -2 -14q0 -37 40 -37h338q29 0 27 -31l-12 -88q-6 -31 -35 -30h-338q-47 0 -53 -50l-58 -413q-2 -10 -2 -18q0 -33 41 -33h465q27 0 25 -31l-12 -88 q-6 -31 -33 -31h-637q-26 0 -26 21q0 5 1 10zM319 1649q0 55 33 91t84 36q86 0 86 -84q0 -57 -32.5 -92t-83.5 -35q-41 0 -64 23.5t-23 60.5zM735 1649q0 55 33 91t86 36q86 0 86 -84q0 -57 -33 -92t-84 -35q-41 0 -64.5 22.5t-23.5 61.5z" />
<glyph unicode="&#xcc;" horiz-adv-x="690" d="M-4 31l12 88q2 31 33 31h98q43 0 56 51l149 1077q1 8 1 14q0 37 -40 37h-98q-31 0 -25 31l11 88q2 31 34 31h445q27 0 24 -31l-10 -88q-6 -31 -35 -31h-98q-47 0 -55 -51l-150 -1077q-2 -10 -2 -18q0 -33 41 -33h98q31 0 25 -31l-12 -88q-6 -31 -33 -31h-445 q-26 0 -25 21q0 5 1 10zM207 1755l43 90q8 18 22 18q8 0 19 -5l305 -191q11 -7 11 -21q0 -7 -3 -16l-16 -45q-8 -20 -22 -20q-8 0 -17 6l-334 145q-14 8 -14 21q0 8 6 18z" />
<glyph unicode="&#xcd;" horiz-adv-x="690" d="M-4 31l12 88q2 31 33 31h98q43 0 56 51l149 1077q1 8 1 14q0 37 -40 37h-98q-31 0 -25 31l11 88q2 31 34 31h445q27 0 24 -31l-10 -88q-6 -31 -35 -31h-98q-47 0 -55 -51l-150 -1077q-2 -10 -2 -18q0 -33 41 -33h98q31 0 25 -31l-12 -88q-6 -31 -33 -31h-445 q-26 0 -25 21q0 5 1 10zM317 1630q-2 5 -1 10q0 16 20 27l358 188q10 4 18 5q14 0 21 -15l37 -90q3 -6 3 -12q0 -17 -23 -27l-371 -143q-8 -4 -15 -4q-14 0 -22 16z" />
<glyph unicode="&#xce;" horiz-adv-x="690" d="M-4 31l12 88q2 31 33 31h98q43 0 56 51l149 1077q1 8 1 14q0 37 -40 37h-98q-31 0 -25 31l11 88q2 31 34 31h445q27 0 24 -31l-10 -88q-6 -31 -35 -31h-98q-47 0 -55 -51l-150 -1077q-2 -10 -2 -18q0 -33 41 -33h98q31 0 25 -31l-12 -88q-6 -31 -33 -31h-445 q-26 0 -25 21q0 5 1 10zM170 1614q-6 9 -6 16q0 13 18 23l285 184q19 12 36.5 12t33.5 -12l233 -182q12 -10 12 -21q0 -8 -6 -16l-33 -45q-9 -15 -22 -15q-7 0 -14 5l-193 110q-27 12 -57 0l-228 -112q-8 -3 -15 -4q-14 0 -21 14z" />
<glyph unicode="&#xcf;" horiz-adv-x="690" d="M-4 31l12 88q2 31 33 31h98q43 0 56 51l149 1077q1 8 1 14q0 37 -40 37h-98q-31 0 -25 31l11 88q2 31 34 31h445q27 0 24 -31l-10 -88q-6 -31 -35 -31h-98q-47 0 -55 -51l-150 -1077q-2 -10 -2 -18q0 -33 41 -33h98q31 0 25 -31l-12 -88q-6 -31 -33 -31h-445 q-26 0 -25 21q0 5 1 10zM166 1649q0 55 32.5 91t84.5 36q86 0 86 -84q0 -57 -33 -92t-84 -35q-41 0 -63.5 23.5t-22.5 60.5zM582 1649q0 55 32.5 91t85.5 36q86 0 86 -84q0 -57 -32.5 -92t-83.5 -35q-43 0 -65.5 22.5t-22.5 61.5z" />
<glyph unicode="&#xd0;" horiz-adv-x="1103" d="M-4 702l8 72q2 33 35 33h123l90 641q6 31 35 31h307q127 0 219 -44t141.5 -121t71 -164t21.5 -192q0 -422 -175.5 -690t-480.5 -268h-313q-31 0 -25 31l90 641h-123q-26 0 -25 21q0 4 1 9zM231 201q-2 -10 -2 -18q0 -33 41 -33h140q229 0 356 222t127 566 q0 174 -75 282.5t-247 108.5h-135q-47 0 -55 -51l-66 -471h252q27 0 25 -33l-8 -72q-6 -31 -35 -30h-252z" />
<glyph unicode="&#xd1;" horiz-adv-x="1196" d="M53 31l199 1417q6 31 33 31h116q33 0 45 -35l355 -1090q2 -8 10 -11t17.5 4t11.5 22l151 1079q4 31 33 31h94q29 0 27 -31l-199 -1417q-6 -31 -35 -31h-114q-33 0 -47 35l-353 1089q-2 8 -11 11.5t-17.5 -3t-10.5 -20.5l-151 -1081q-6 -31 -35 -31h-94q-26 0 -26 21 q0 5 1 10zM381 1606q-9 6 -9 15q0 11 11 28q57 84 106.5 123.5t110.5 39.5q66 0 148.5 -67.5t109.5 -67.5q55 0 133 95q16 23 45 4l35 -27q9 -7 9 -17q0 -12 -11 -28q-61 -86 -109.5 -125t-109.5 -39q-63 0 -147.5 67.5t-112.5 67.5q-55 0 -131 -94q-18 -20 -41 -2z" />
<glyph unicode="&#xd2;" horiz-adv-x="1107" d="M57 496q0 266 66.5 489t207 368.5t331.5 145.5q193 0 292 -131t99 -383q0 -270 -70 -496.5t-210 -367.5t-324 -141q-392 0 -392 516zM211 518q0 -389 258 -389q131 0 231.5 123t149.5 310.5t49 400.5q0 387 -258 387q-133 0 -233.5 -123t-148.5 -309.5t-48 -399.5z M442 1755l43 90q8 18 23 18q8 0 18 -5l305 -191q11 -7 11 -21q0 -7 -2 -16l-17 -45q-8 -20 -22 -20q-8 0 -17 6l-333 145q-14 8 -14 21q-1 8 5 18z" />
<glyph unicode="&#xd3;" horiz-adv-x="1107" d="M57 496q0 266 66.5 489t207 368.5t331.5 145.5q193 0 292 -131t99 -383q0 -270 -70 -496.5t-210 -367.5t-324 -141q-392 0 -392 516zM211 518q0 -389 258 -389q131 0 231.5 123t149.5 310.5t49 400.5q0 387 -258 387q-133 0 -233.5 -123t-148.5 -309.5t-48 -399.5z M502 1630q-2 5 -2 10q0 16 20 27l359 188q10 4 18 5q14 0 21 -15l36 -90q3 -6 3 -12q0 -17 -23 -27l-371 -143q-8 -4 -15 -4q-14 0 -22 16z" />
<glyph unicode="&#xd4;" horiz-adv-x="1107" d="M57 496q0 266 66.5 489t207 368.5t331.5 145.5q193 0 292 -131t99 -383q0 -270 -70 -496.5t-210 -367.5t-324 -141q-392 0 -392 516zM211 518q0 -389 258 -389q131 0 231.5 123t149.5 310.5t49 400.5q0 387 -258 387q-133 0 -233.5 -123t-148.5 -309.5t-48 -399.5z M379 1614q-6 9 -6 16q0 13 18 23l285 184q19 12 36.5 12t32.5 -12l234 -182q12 -10 12 -21q0 -8 -6 -16l-33 -45q-9 -15 -22 -15q-7 0 -15 5l-192 110q-27 12 -57 0l-228 -112q-8 -3 -15 -4q-14 0 -22 14z" />
<glyph unicode="&#xd5;" horiz-adv-x="1107" d="M57 496q0 266 66.5 489t207 368.5t331.5 145.5q193 0 292 -131t99 -383q0 -270 -70 -496.5t-210 -367.5t-324 -141q-392 0 -392 516zM211 518q0 -389 258 -389q131 0 231.5 123t149.5 310.5t49 400.5q0 387 -258 387q-133 0 -233.5 -123t-148.5 -309.5t-48 -399.5z M342 1606q-9 6 -9 15q0 11 11 28q57 84 106.5 123.5t110.5 39.5q66 0 149 -67.5t109 -67.5q55 0 133 95q16 23 45 4l35 -27q9 -7 9 -17q0 -12 -11 -28q-61 -86 -109.5 -125t-109.5 -39q-49 0 -100.5 34t-92 67.5t-67.5 33.5q-55 0 -131 -94q-18 -20 -41 -2z" />
<glyph unicode="&#xd6;" horiz-adv-x="1107" d="M57 496q0 266 66.5 489t207 368.5t331.5 145.5q193 0 292 -131t99 -383q0 -270 -70 -496.5t-210 -367.5t-324 -141q-392 0 -392 516zM211 518q0 -389 258 -389q131 0 231.5 123t149.5 310.5t49 400.5q0 387 -258 387q-133 0 -233.5 -123t-148.5 -309.5t-48 -399.5z M375 1649q0 55 32.5 91t84.5 36q86 0 86 -84q0 -57 -33 -92t-84 -35q-41 0 -63.5 23.5t-22.5 60.5zM791 1649q0 55 32.5 91t85.5 36q86 0 86 -84q0 -57 -32.5 -92t-83.5 -35q-43 0 -65.5 22.5t-22.5 61.5z" />
<glyph unicode="&#xd7;" horiz-adv-x="825" d="M39 434q-7 9 -7 18q0 12 13 25l225 209q24 21 25 41q0 15 -14 29l-170 213q-16 23 6 43l69 63q11 11 21.5 11t19.5 -11l172 -211q13 -17 29.5 -17t36.5 17l227 207q12 10 23 10t20 -10l43 -57q9 -10 9 -20q0 -13 -15 -25l-223 -207q-23 -20 -24 -40q0 -15 14 -30 l170 -215q23 -20 -7 -43l-65 -63q-11 -10 -22 -10.5t-21 10.5l-174 213q-13 17 -29.5 17t-36.5 -17l-225 -207q-13 -11 -24 -11t-19 11z" />
<glyph unicode="&#xd8;" horiz-adv-x="1107" d="M14 -57l117 202q-74 125 -74 351q0 266 66.5 489t207 368.5t331.5 145.5q133 0 223 -65l94 163q11 19 26 20q8 0 17 -5l65 -33q14 -10 14 -24q0 -9 -5 -19l-119 -203q76 -133 76 -348q0 -270 -70 -496.5t-210 -367.5t-324 -141q-133 0 -226 63l-94 -162q-10 -19 -28 -19 q-7 0 -15 3l-63 35q-14 8 -14 22q-1 9 5 21zM211 518q0 -113 22 -199l568 971q-63 59 -160 60q-133 0 -233.5 -123t-148.5 -309.5t-48 -399.5zM307 188q63 -59 162 -59q131 0 231.5 123t149.5 310.5t49 400.5q0 115 -25 196z" />
<glyph unicode="&#xd9;" horiz-adv-x="1116" d="M86 397l145 1051q8 31 35 31h94q31 0 25 -31l-147 -1051q-3 -24 -4 -45q0 -86 52 -147q65 -76 187.5 -76t207.5 76t101 192l148 1051q6 31 37 31h92q26 0 25 -22q0 -4 -1 -9l-147 -1051q-25 -182 -156 -299.5t-327 -117.5q-199 0 -296 117q-76 92 -77 225q0 36 6 75z M424 1755l43 90q8 18 22 18q8 0 19 -5l305 -191q11 -7 11 -21q0 -7 -3 -16l-16 -45q-8 -20 -22 -20q-8 0 -17 6l-334 145q-14 8 -14 21q0 8 6 18z" />
<glyph unicode="&#xda;" horiz-adv-x="1116" d="M86 397l145 1051q8 31 35 31h94q31 0 25 -31l-147 -1051q-3 -24 -4 -45q0 -86 52 -147q65 -76 187.5 -76t207.5 76t101 192l148 1051q6 31 37 31h92q26 0 25 -22q0 -4 -1 -9l-147 -1051q-25 -182 -156 -299.5t-327 -117.5q-199 0 -296 117q-76 92 -77 225q0 36 6 75z M528 1630q-2 5 -2 10q0 16 21 27l358 188q10 4 18 5q14 0 21 -15l37 -90q3 -6 3 -12q0 -17 -23 -27l-371 -143q-8 -4 -15 -4q-14 0 -22 16z" />
<glyph unicode="&#xdb;" horiz-adv-x="1116" d="M86 397l145 1051q8 31 35 31h94q31 0 25 -31l-147 -1051q-3 -24 -4 -45q0 -86 52 -147q65 -76 187.5 -76t207.5 76t101 192l148 1051q6 31 37 31h92q26 0 25 -22q0 -4 -1 -9l-147 -1051q-25 -182 -156 -299.5t-327 -117.5q-199 0 -296 117q-76 92 -77 225q0 36 6 75z M383 1614q-6 9 -6 16q0 13 18 23l285 184q19 12 36.5 12t33.5 -12l233 -182q12 -10 12 -21q0 -8 -6 -16l-33 -45q-9 -15 -22 -15q-7 0 -14 5l-193 110q-27 12 -57 0l-228 -112q-8 -3 -15 -4q-14 0 -21 14z" />
<glyph unicode="&#xdc;" horiz-adv-x="1116" d="M86 397l145 1051q8 31 35 31h94q31 0 25 -31l-147 -1051q-3 -24 -4 -45q0 -86 52 -147q65 -76 187.5 -76t207.5 76t101 192l148 1051q6 31 37 31h92q26 0 25 -22q0 -4 -1 -9l-147 -1051q-25 -182 -156 -299.5t-327 -117.5q-199 0 -296 117q-76 92 -77 225q0 36 6 75z M381 1649q0 55 32.5 91t84.5 36q86 0 86 -84q0 -57 -33 -92t-84 -35q-41 0 -63.5 23.5t-22.5 60.5zM797 1649q0 55 32.5 91t85.5 36q86 0 86 -84q0 -57 -32.5 -92t-83.5 -35q-41 0 -64.5 22.5t-23.5 61.5z" />
<glyph unicode="&#xdd;" horiz-adv-x="950" d="M111 1405q-4 8 -4 15q0 16 20 28l82 49q29 18 41 -10l215 -615q4 -16 21.5 -16t27.5 16l387 611q18 27 43 12l80 -45q13 -7 13 -19q0 -10 -9 -24l-471 -739q-12 -16 -16 -45l-84 -592q-2 -31 -33 -31h-94q-29 0 -27 31l84 590q2 14 -6 43zM471 1630q-2 5 -2 10 q0 16 20 27l359 188q10 4 18 5q14 0 21 -15l37 -90q3 -6 2 -12q0 -17 -23 -27l-371 -143q-8 -4 -15 -4q-14 0 -21 16z" />
<glyph unicode="&#xde;" horiz-adv-x="983" d="M53 31l199 1417q6 31 33 31h94q33 0 24 -31l-28 -221q-1 -6 -1 -11q0 -38 42 -38h151q182 0 282.5 -95.5t100.5 -251.5q0 -252 -154.5 -390t-367.5 -138h-135q-49 0 -55 -51l-31 -221q-6 -31 -33 -31h-96q-26 0 -26 21q0 5 1 10zM272 502q-1 -6 0 -11q0 -38 41 -38h136 q141 0 243.5 91t102.5 257q0 100 -61.5 163.5t-186.5 63.5h-154q-43 0 -53 -45z" />
<glyph unicode="&#xdf;" horiz-adv-x="911" d="M-53 -459l225 1610q23 158 123 253t250 95q123 0 195.5 -72.5t72.5 -191.5q0 -72 -25.5 -133.5t-61.5 -103.5t-72 -78.5t-61.5 -78.5t-25.5 -85q0 -35 24.5 -67t59.5 -59.5t70 -58t59.5 -81t24.5 -113.5q0 -156 -110.5 -266.5t-254.5 -110.5h-92q-33 0 -29 31l13 78 q4 31 33 30h94q84 0 140 64.5t56 144.5q0 45 -24.5 84t-59.5 69l-69 59q-35 30 -59.5 74t-24.5 97q0 78 39 147.5t84 113.5t84 103.5t39 118.5q0 66 -37 104t-103 38q-78 0 -134 -54.5t-71 -146.5l-225 -1614q-6 -33 -31 -33h-92q-30 0 -24 33z" />
<glyph unicode="&#xe0;" horiz-adv-x="892" d="M23 211q0 92 31.5 309t64.5 305q76 227 303 228q109 0 229 -90q10 -10 25.5 -5t17.5 23l4 25q4 27 31 26h90q26 0 26 -23q0 -5 -1 -10l-135 -968q-6 -31 -35 -31h-88q-29 0 -23 29l35 186q2 8 -2 12t-11 2t-12 -8q-150 -242 -331 -241q-104 0 -161.5 63.5t-57.5 167.5z M174 244q0 -61 32 -93t81 -32q111 0 224.5 186.5t141.5 386.5l6 43l2 22q0 34 -16 54q-31 39 -91 69.5t-114 30.5q-137 0 -186 -143q-27 -84 -53.5 -264t-26.5 -260zM350 1384q-11 8 -11 18.5t11 22.5l72 68q10 10 20 10l21 -10l221 -287q7 -8 7 -17q0 -11 -11 -22l-35 -32 q-11 -11 -21 -11q-9 0 -18 9z" />
<glyph unicode="&#xe1;" horiz-adv-x="892" d="M23 211q0 92 31.5 309t64.5 305q76 227 303 228q109 0 229 -90q10 -10 25.5 -5t17.5 23l4 25q4 27 31 26h90q26 0 26 -23q0 -5 -1 -10l-135 -968q-6 -31 -35 -31h-88q-29 0 -23 29l35 186q2 8 -2 12t-11 2t-12 -8q-150 -242 -331 -241q-104 0 -161.5 63.5t-57.5 167.5z M174 244q0 -61 32 -93t81 -32q111 0 224.5 186.5t141.5 386.5l6 43l2 22q0 34 -16 54q-31 39 -91 69.5t-114 30.5q-137 0 -186 -143q-27 -84 -53.5 -264t-26.5 -260zM383 1178q-5 7 -5 14q0 12 13 25l303 286q11 10 21 10q11 0 20 -12l56 -76q6 -10 5 -17q0 -13 -14 -24 l-327 -251q-13 -9 -23 -9q-11 0 -18 11z" />
<glyph unicode="&#xe2;" horiz-adv-x="892" d="M23 211q0 92 31.5 309t64.5 305q76 227 303 228q109 0 229 -90q10 -10 25.5 -5t17.5 23l4 25q4 27 31 26h90q26 0 26 -23q0 -5 -1 -10l-135 -968q-6 -31 -35 -31h-88q-29 0 -23 29l35 186q2 8 -2 12t-11 2t-12 -8q-150 -242 -331 -241q-104 0 -161.5 63.5t-57.5 167.5z M174 244q0 -61 32 -93t81 -32q111 0 224.5 186.5t141.5 386.5l6 43l2 22q0 34 -16 54q-31 39 -91 69.5t-114 30.5q-137 0 -186 -143q-27 -84 -53.5 -264t-26.5 -260zM225 1169q-6 8 -6 17q0 12 12 22l279 242q20 17 39 17t37 -17l209 -238q8 -10 8 -19.5t-8 -18.5l-39 -39 q-10 -11 -21 -12l-16 7l-160 144q-14 11 -29.5 11t-31.5 -11l-205 -148q-9 -6 -17 -6q-11 0 -20 10z" />
<glyph unicode="&#xe3;" horiz-adv-x="892" d="M23 211q0 92 31.5 309t64.5 305q76 227 303 228q109 0 229 -90q10 -10 25.5 -5t17.5 23l4 25q4 27 31 26h90q31 0 25 -33l-135 -968q-6 -31 -35 -31h-88q-29 0 -23 29l35 186q2 8 -2 12t-11 2t-12 -8q-150 -242 -331 -241q-104 0 -161.5 63.5t-57.5 167.5zM174 244 q0 -61 32 -93t81 -32q111 0 224.5 186.5t141.5 386.5l6 43l2 22q0 34 -16 54q-31 39 -91 69.5t-114 30.5q-137 0 -186 -143q-27 -84 -53.5 -264t-26.5 -260zM199 1239q-10 7 -10.5 18.5t10.5 26.5q61 86 109 125t108 39q63 0 141 -67.5t107 -67.5q47 0 122 94q16 20 41 2 l37 -27q9 -7 9 -16q0 -11 -11 -27q-63 -88 -109 -125.5t-108 -37.5q-63 0 -141 67.5t-107 67.5q-49 0 -123 -94q-14 -23 -41 -5z" />
<glyph unicode="&#xe4;" horiz-adv-x="892" d="M23 211q0 92 31.5 309t64.5 305q76 227 303 228q109 0 229 -90q10 -10 25.5 -5t17.5 23l4 25q4 27 31 26h90q26 0 26 -23q0 -5 -1 -10l-135 -968q-6 -31 -35 -31h-88q-29 0 -23 29l35 186q2 8 -2 12t-11 2t-12 -8q-150 -242 -331 -241q-104 0 -161.5 63.5t-57.5 167.5z M174 244q0 -61 32 -93t81 -32q111 0 224.5 186.5t141.5 386.5l6 43l2 22q0 34 -16 54q-31 39 -91 69.5t-114 30.5q-137 0 -186 -143q-27 -84 -53.5 -264t-26.5 -260zM273 1374q32 35 83 35q86 0 87 -81q0 -4 -1 -7q-2 -57 -34.5 -90t-81.5 -33q-41 0 -65 25q-22 23 -22 59 q0 55 34 92zM660 1374q32 35 83 35q41 0 64 -24q21 -22 21 -57q0 -3 -1 -7q-2 -55 -33.5 -89t-80.5 -34q-43 0 -67 25q-22 23 -22 59q0 53 36 92z" />
<glyph unicode="&#xe5;" horiz-adv-x="892" d="M23 211q0 92 31.5 309t64.5 305q76 227 303 228q109 0 229 -90q10 -10 25.5 -5t17.5 23l4 25q4 27 31 26h90q26 0 26 -23q0 -5 -1 -10l-135 -968q-6 -31 -35 -31h-88q-29 0 -23 29l35 186q2 8 -2 12t-11 2t-12 -8q-150 -242 -331 -241q-104 0 -161.5 63.5t-57.5 167.5z M174 244q0 -61 32 -93t81 -32q111 0 224.5 186.5t141.5 386.5l6 43l2 22q0 34 -16 54q-31 39 -91 69.5t-114 30.5q-137 0 -186 -143q-27 -84 -53.5 -264t-26.5 -260zM358 1272q0 98 61.5 158.5t149.5 60.5q74 0 115 -41t41 -111q0 -98 -59.5 -159.5t-149.5 -61.5 q-76 0 -117 42t-41 112zM467 1286q0 -66 63 -65q41 0 64.5 28.5t23.5 75.5q0 63 -65 64q-39 0 -62.5 -28t-23.5 -75z" />
<glyph unicode="&#xe6;" horiz-adv-x="1398" d="M0 227q0 186 120 272.5t357 86.5h96q33 0 35 30l11 66q5 38 5 70q0 159 -137 159q-125 0 -286 -86q-27 -16 -37 15l-21 71q-8 20 15 37q182 104 358 104.5t225 -120.5q10 -18 29 -4q115 125 279 125q141 0 211.5 -75t70.5 -175q0 -94 -40 -165t-93 -106.5t-130 -56 t-130 -26t-111 -5.5h-49q-43 0 -45 -45v-12q0 -126 42 -194q44 -72 126 -72q117 0 275 86q29 14 36 -17l21 -69q6 -25 -16 -39q-168 -102 -328 -102q-172 0 -250 137q-14 25 -41 4q-193 -141 -344 -141q-121 0 -187.5 70.5t-66.5 176.5zM150 250q0 -55 34.5 -95t106.5 -40 q55 0 121.5 29.5t113.5 74.5q33 27 39 76l17 119q6 35 -29 35h-160q-243 0 -243 -199zM764 625q-1 -6 -1 -12q0 -33 42 -33h70q309 0 309 208q0 55 -37 90t-111 35q-104 0 -179 -87.5t-93 -200.5z" />
<glyph unicode="&#xe7;" horiz-adv-x="804" d="M33 373q0 307 131 493.5t328 186.5q152 0 288 -101q11 -8 12 -18q0 -8 -8 -19l-39 -71q-18 -29 -43 -15q-133 82 -245 82q-119 0 -197 -159.5t-78 -356.5q0 -127 43 -200.5t121 -73.5q119 0 268 82q31 14 37 -17l23 -69q6 -25 -17 -39q-129 -78 -260 -94q-25 -31 -24 -54 q0 -20 18.5 -35.5t42 -25.5t42 -40t18.5 -73q0 -90 -66 -142t-149 -52q-90 0 -156 65q-14 14 0 39l33 45q25 27 43 10q45 -45 98 -45q29 0 49.5 15.5t20.5 44.5q0 27 -28 47l-55 43q-28 23 -28 59q0 45 43 97q-127 14 -196.5 115.5t-69.5 275.5z" />
<glyph unicode="&#xe8;" horiz-adv-x="847" d="M31 367q0 313 132 499.5t335 186.5q141 0 211.5 -75t70.5 -175q0 -94 -39 -167t-95 -113t-130 -64.5t-131 -31.5t-111 -7h-47q-45 0 -45 -45q4 -254 168 -254q117 0 273 86q31 14 36 -17l23 -69q6 -23 -16 -39q-168 -102 -328 -102q-154 0 -229.5 107.5t-77.5 279.5z M209 593q0 -38 41 -38h72q37 0 80.5 8t100 30.5t92.5 73t36 121.5q0 55 -36 90t-110 35q-106 0 -183 -92q-93 -112 -93 -228zM309 1384q-11 8 -11 18.5t11 22.5l72 68q10 10 20 10l21 -10l221 -287q7 -8 7 -17q0 -11 -11 -22l-35 -32q-11 -11 -21 -11q-9 0 -18 9z" />
<glyph unicode="&#xe9;" horiz-adv-x="847" d="M31 367q0 313 132 499.5t335 186.5q141 0 211.5 -75t70.5 -175q0 -94 -39 -167t-95 -113t-130 -64.5t-131 -31.5t-111 -7h-47q-45 0 -45 -45q4 -254 168 -254q117 0 273 86q31 14 36 -17l23 -69q6 -23 -16 -39q-168 -102 -328 -102q-154 0 -229.5 107.5t-77.5 279.5z M209 593q0 -38 41 -38h72q37 0 80.5 8t100 30.5t92.5 73t36 121.5q0 55 -36 90t-110 35q-106 0 -183 -92q-93 -112 -93 -228zM377 1178q-5 7 -5 14q0 12 13 25l303 286q11 10 21 10q11 0 20 -12l55 -76q6 -10 6 -17q0 -13 -14 -24l-327 -251q-13 -9 -23 -9q-11 0 -18 11z " />
<glyph unicode="&#xea;" horiz-adv-x="847" d="M31 367q0 313 132 499.5t335 186.5q141 0 211.5 -75t70.5 -175q0 -94 -39 -167t-95 -113t-130 -64.5t-131 -31.5t-111 -7h-47q-45 0 -45 -45q4 -254 168 -254q117 0 273 86q31 14 36 -17l23 -69q6 -23 -16 -39q-168 -102 -328 -102q-154 0 -229.5 107.5t-77.5 279.5z M209 593q0 -38 41 -38h72q37 0 80.5 8t100 30.5t92.5 73t36 121.5q0 55 -36 90t-110 35q-106 0 -183 -92q-93 -112 -93 -228zM221 1169q-6 8 -6 17q0 12 12 22l279 242q20 17 39 17t37 -17l209 -238q8 -10 8 -19.5t-8 -18.5l-39 -39q-10 -11 -21 -12l-16 7l-160 144 q-14 11 -29.5 11t-31.5 -11l-205 -148q-9 -6 -17 -6q-11 0 -20 10z" />
<glyph unicode="&#xeb;" horiz-adv-x="847" d="M31 367q0 313 132 499.5t335 186.5q141 0 211.5 -75t70.5 -175q0 -94 -39 -167t-95 -113t-130 -64.5t-131 -31.5t-111 -7h-47q-45 0 -45 -45q4 -254 168 -254q117 0 273 86q31 14 36 -17l23 -69q6 -23 -16 -39q-168 -102 -328 -102q-154 0 -229.5 107.5t-77.5 279.5z M209 593q0 -38 41 -38h72q37 0 80.5 8t100 30.5t92.5 73t36 121.5q0 55 -36 90t-110 35q-106 0 -183 -92q-93 -112 -93 -228zM263 1374q32 35 83 35q86 0 86 -81v-7q-2 -57 -34.5 -90t-82.5 -33q-41 0 -64 25q-22 23 -22 59q0 55 34 92zM650 1374q32 35 83 35q41 0 64 -24 q21 -22 20 -57v-7q-2 -55 -33.5 -89t-81.5 -34q-43 0 -66 25q-22 23 -22 59q0 53 36 92z" />
<glyph unicode="&#xec;" horiz-adv-x="372" d="M6 1384q-11 8 -11 18.5t11 22.5l72 68q10 10 20 10l21 -10l221 -287q7 -8 7 -17q0 -11 -11 -22l-35 -32q-20 -20 -39 -2zM14 31l136 968q6 33 34 33h88q26 0 26 -23q0 -5 -1 -10l-135 -968q-4 -31 -33 -31h-90q-26 0 -26 21q0 5 1 10z" />
<glyph unicode="&#xed;" horiz-adv-x="372" d="M14 31l136 968q6 33 34 33h88q31 0 25 -33l-135 -968q-4 -31 -33 -31h-90q-26 0 -26 21q0 5 1 10zM158 1178q-5 7 -5 14q0 12 13 25l303 286q11 10 21 10q11 0 20 -12l55 -76q6 -10 6 -17q0 -13 -14 -24l-328 -251q-13 -9 -22 -9q-11 0 -19 11z" />
<glyph unicode="&#xee;" horiz-adv-x="372" d="M-37 1169q-6 8 -6 17q0 12 12 22l279 242q20 17 39 17t37 -17l208 -238q8 -10 8.5 -19.5t-8.5 -18.5l-38 -39q-18 -20 -37 -5l-160 144q-14 11 -29.5 11t-31.5 -11l-205 -148q-20 -14 -37 4zM14 31l136 968q6 33 34 33h88q26 0 26 -23q0 -5 -1 -10l-135 -968 q-4 -31 -33 -31h-90q-26 0 -26 21q0 5 1 10z" />
<glyph unicode="&#xef;" horiz-adv-x="372" d="M9 1374q32 35 83 35q86 0 86 -81v-7q-2 -57 -34.5 -90t-82.5 -33q-41 0 -64 25q-22 23 -22 59q0 55 34 92zM14 31l136 968q6 33 34 33h88q31 0 25 -33l-135 -968q-4 -31 -33 -31h-90q-26 0 -26 21q0 5 1 10zM396 1374q32 35 83 35q41 0 64 -24q21 -22 20 -57v-7 q-2 -55 -33.5 -89t-80.5 -34q-43 0 -67 25q-22 23 -22 59q0 53 36 92z" />
<glyph unicode="&#xf0;" horiz-adv-x="880" d="M31 279q0 82 23.5 225t47.5 237q29 104 110 177t202 73q113 0 192 -59q20 -12 33.5 -4t11.5 24q-6 123 -26 222l-160 -58q-31 -14 -37 19l-14 67q-6 31 24 39l156 57q-18 61 -47 125q-10 29 16 43l78 41q12 7 21 7q15 0 24 -19q27 -68 49 -145l164 59q31 10 37 -18 l12 -68q1 -5 1 -10q0 -21 -23 -29l-160 -59q35 -174 35 -365q0 -881 -467 -880q-147 0 -225 77t-78 222zM180 297q0 -74 40 -126t134 -52q141 0 216 168t75 401q0 63 -35 94q-76 68 -180 68q-76 0 -122 -44t-62 -104q-66 -233 -66 -405z" />
<glyph unicode="&#xf1;" horiz-adv-x="940" d="M14 31l136 968q6 33 34 33h88q31 0 23 -31l-35 -184q-2 -14 8.5 -16t16.5 8q154 244 331 244q121 0 178 -77q42 -58 42 -148q0 -29 -5 -62l-104 -735q-2 -31 -33 -31h-88q-33 0 -26 31l100 727q3 21 3 39q0 114 -112 114q-106 0 -220.5 -182t-153.5 -446l-35 -252 q-6 -31 -33 -31h-90q-26 0 -26 21q0 5 1 10zM223 1239q-10 7 -10 18.5t10 26.5q61 86 109.5 125t107.5 39q63 0 141 -67.5t107 -67.5q47 0 123 94q16 20 41 2l37 -27q9 -7 9 -16q0 -11 -11 -27q-63 -88 -109.5 -125.5t-107.5 -37.5q-63 0 -141 67.5t-107 67.5 q-49 0 -123 -94q-14 -23 -41 -5z" />
<glyph unicode="&#xf2;" horiz-adv-x="927" d="M31 342q0 193 48 348.5t160.5 259t274.5 103.5q156 0 241 -99.5t85 -265.5q0 -193 -49.5 -348.5t-162 -257.5t-274.5 -102q-156 0 -239.5 99t-83.5 263zM178 348q0 -104 50.5 -166.5t138.5 -62.5q109 0 183.5 82t107 204.5t32.5 276.5q0 104 -50 167.5t-138 63.5 q-158 0 -241 -163.5t-83 -401.5zM330 1384q-11 8 -11.5 18.5t11.5 22.5l71 68q10 10 21 10l20 -10l222 -287q7 -8 7 -17q0 -11 -12 -22l-34 -32q-11 -11 -21 -11q-9 0 -18 9z" />
<glyph unicode="&#xf3;" horiz-adv-x="927" d="M31 342q0 193 48 348.5t160.5 259t274.5 103.5q156 0 241 -99.5t85 -265.5q0 -193 -49.5 -348.5t-162 -257.5t-274.5 -102q-156 0 -239.5 99t-83.5 263zM178 348q0 -104 50.5 -166.5t138.5 -62.5q109 0 183.5 82t107 204.5t32.5 276.5q0 104 -50 167.5t-138 63.5 q-158 0 -241 -163.5t-83 -401.5zM377 1178q-5 7 -5 14q0 12 13 25l303 286q11 10 21 10q11 0 20 -12l55 -76q6 -10 6 -17q0 -13 -14 -24l-327 -251q-13 -9 -23 -9q-11 0 -18 11z" />
<glyph unicode="&#xf4;" horiz-adv-x="927" d="M31 342q0 193 48 348.5t160.5 259t274.5 103.5q156 0 241 -99.5t85 -265.5q0 -193 -49.5 -348.5t-162 -257.5t-274.5 -102q-156 0 -239.5 99t-83.5 263zM178 348q0 -104 50.5 -166.5t138.5 -62.5q109 0 183.5 82t107 204.5t32.5 276.5q0 104 -50 167.5t-138 63.5 q-158 0 -241 -163.5t-83 -401.5zM238 1169q-6 8 -6 17q0 12 12 22l278 242q20 17 39.5 17t36.5 -17l209 -238q8 -10 8 -19.5t-8 -18.5l-39 -39q-10 -11 -20 -12l-17 7l-160 144q-14 11 -29.5 11t-31.5 -11l-205 -148q-9 -6 -17 -6q-11 0 -20 10z" />
<glyph unicode="&#xf5;" horiz-adv-x="927" d="M31 342q0 193 48 348.5t160.5 259t274.5 103.5q156 0 241 -99.5t85 -265.5q0 -193 -49.5 -348.5t-162 -257.5t-274.5 -102q-156 0 -239.5 99t-83.5 263zM178 348q0 -104 50.5 -166.5t138.5 -62.5q109 0 183.5 82t107 204.5t32.5 276.5q0 104 -50 167.5t-138 63.5 q-158 0 -241 -163.5t-83 -401.5zM209 1239q-10 7 -10 18.5t10 26.5q61 86 109.5 125t107.5 39q49 0 97 -34t86 -67.5t65 -33.5q47 0 123 94q16 20 41 2l36 -27q9 -7 9 -16q0 -11 -11 -27q-63 -88 -109 -125.5t-108 -37.5q-63 0 -141 67.5t-106 67.5q-49 0 -123 -94 q-14 -23 -41 -5z" />
<glyph unicode="&#xf6;" horiz-adv-x="927" d="M31 342q0 193 48 348.5t160.5 259t274.5 103.5q156 0 241 -99.5t85 -265.5q0 -193 -49.5 -348.5t-162 -257.5t-274.5 -102q-156 0 -239.5 99t-83.5 263zM178 348q0 -104 50.5 -166.5t138.5 -62.5q109 0 183.5 82t107 204.5t32.5 276.5q0 104 -50 167.5t-138 63.5 q-158 0 -241 -163.5t-83 -401.5zM278 1374q32 35 82 35q86 0 87 -81q0 -4 -1 -7q-2 -57 -34.5 -90t-81.5 -33q-41 0 -65 25q-22 23 -21 59q0 55 34 92zM665 1374q32 35 83 35q41 0 63 -24q21 -22 21 -57q0 -3 -1 -7q-2 -55 -33.5 -89t-80.5 -34q-43 0 -67 25q-22 23 -21 59 q0 53 36 92z" />
<glyph unicode="&#xf7;" horiz-adv-x="825" d="M33 686l10 76q6 33 33 33h688q29 0 27 -33l-13 -76q-2 -31 -33 -31h-690q-24 0 -23 21q0 5 1 10zM248 348q0 66 38 102.5t93 36.5q45 0 69.5 -26.5t24.5 -65.5q0 -61 -36 -100t-91 -39q-49 0 -73.5 25.5t-24.5 66.5zM350 1055q0 66 38 102.5t93 36.5q45 0 69.5 -26.5 t24.5 -65.5q0 -61 -35.5 -100t-90.5 -39q-49 0 -74 25.5t-25 66.5z" />
<glyph unicode="&#xf8;" horiz-adv-x="927" d="M8 -98l103 180q-80 94 -80 260q0 193 48 348.5t160.5 259t274.5 103.5q78 0 141 -29l95 162q11 17 25 17q8 0 18 -5l57 -27q15 -9 15 -22q0 -9 -7 -21l-102 -176q84 -100 84 -264q0 -193 -49.5 -348.5t-162 -257.5t-274.5 -102q-84 0 -147 28l-94 -162q-10 -19 -25 -19 q-8 0 -16 5l-56 27q-17 10 -16 22q-1 10 8 21zM178 348q0 -70 21 -117l383 666q-37 16 -80 16q-158 0 -241 -163.5t-83 -401.5zM281 137q37 -18 86 -18q109 0 183.5 82t107 204.5t32.5 276.5q0 66 -22 121z" />
<glyph unicode="&#xf9;" horiz-adv-x="940" d="M45 266l105 733q6 33 32 33h88q33 0 27 -33l-100 -727q-3 -23 -4 -41q0 -112 112 -112q106 0 221 183t154 446l35 251q6 33 33 33h90q26 0 25 -23q0 -5 -1 -10l-135 -968q-2 -31 -35 -31h-88q-31 0 -22 29l34 186q2 8 -2 12t-11 2t-11 -8q-152 -242 -332 -241 q-121 0 -177 76q-42 58 -42 148q-1 29 4 62zM319 1384q-11 8 -11 18.5t11 22.5l72 68q10 10 21 10l20 -10l221 -287q8 -8 9 -17q0 -11 -13 -22l-35 -32q-11 -11 -21 -11q-9 0 -18 9z" />
<glyph unicode="&#xfa;" horiz-adv-x="940" d="M45 266l105 733q6 33 32 33h88q33 0 27 -33l-100 -727q-3 -23 -4 -41q0 -112 112 -112q106 0 221 183t154 446l35 251q6 33 33 33h90q26 0 25 -23q0 -5 -1 -10l-135 -968q-2 -31 -35 -31h-88q-31 0 -22 29l34 186q2 8 -2 12t-11 2t-11 -8q-152 -242 -332 -241 q-121 0 -177 76q-42 58 -42 148q-1 29 4 62zM397 1178q-5 7 -4 14q0 12 13 25l303 286q11 10 20 10q11 0 21 -12l55 -76q6 -10 5 -17q0 -13 -13 -24l-328 -251q-13 -9 -22 -9q-11 0 -19 11z" />
<glyph unicode="&#xfb;" horiz-adv-x="940" d="M45 266l105 733q6 33 32 33h88q33 0 27 -33l-100 -727q-3 -23 -4 -41q0 -112 112 -112q106 0 221 183t154 446l35 251q6 33 33 33h90q26 0 25 -23q0 -5 -1 -10l-135 -968q-2 -31 -35 -31h-88q-31 0 -22 29l34 186q2 8 -2 12t-11 2t-11 -8q-152 -242 -332 -241 q-121 0 -177 76q-42 58 -42 148q-1 29 4 62zM244 1169q-6 8 -6 17q0 12 12 22l278 242q20 17 39.5 17t36.5 -17l209 -238q8 -10 8 -19.5t-8 -18.5l-39 -39q-9 -11 -19 -12q-8 0 -18 7l-159 144q-14 11 -30 11t-32 -11l-205 -148q-9 -6 -17 -6q-11 0 -20 10z" />
<glyph unicode="&#xfc;" horiz-adv-x="940" d="M45 266l105 733q6 33 32 33h88q33 0 27 -33l-100 -727q-3 -23 -4 -41q0 -112 112 -112q106 0 221 183t154 446l35 251q6 33 33 33h90q26 0 25 -23q0 -5 -1 -10l-135 -968q-2 -31 -35 -31h-88q-31 0 -22 29l34 186q2 8 -2 12t-11 2t-11 -8q-152 -242 -332 -241 q-121 0 -177 76q-42 58 -42 148q-1 29 4 62zM288 1374q32 35 83 35q86 0 86 -81v-7q-2 -57 -35 -90t-82 -33q-41 0 -65 25q-22 23 -21 59q0 55 34 92zM675 1374q32 35 83 35q41 0 63 -24q21 -22 21 -57v-7q-2 -55 -34 -89t-81 -34q-43 0 -67 25q-22 23 -21 59q0 53 36 92z " />
<glyph unicode="&#xfd;" horiz-adv-x="849" d="M39 -438l186 415q14 29 11 56l-162 950q-6 31 22 39l88 31q29 12 33 -21l123 -760q4 -14 15.5 -14t17.5 14l338 760q12 33 43 21l77 -29q19 -8 20 -23q0 -7 -5 -16l-666 -1472q-9 -21 -27 -22q-6 0 -14 3l-86 29q-17 6 -17 23q0 7 3 16zM399 1178q-5 7 -4 14q0 12 13 25 l303 286q11 10 20 10q11 0 21 -12l55 -76q6 -10 5 -17q0 -13 -13 -24l-328 -251q-13 -9 -22 -9q-11 0 -19 11z" />
<glyph unicode="&#xfe;" d="M-55 -461l268 1909q4 31 33 31h90q31 0 24 -31l-59 -416l-41 -215q-2 -14 8.5 -16t16.5 8q150 244 331 244q104 0 163 -63.5t59 -168.5q0 -92 -32 -310t-67 -306q-37 -109 -115.5 -167t-187.5 -58q-111 0 -229 90q-10 10 -24.5 5t-16.5 -24l-74 -512q-2 -31 -33 -31h-90 q-26 0 -25 22q0 4 1 9zM199 295q-1 -10 -2 -19q0 -34 18 -57q31 -39 90.5 -69.5t112.5 -30.5q137 0 186 145q27 84 53.5 264.5t26.5 257.5q0 61 -31.5 93t-81.5 32q-111 0 -224.5 -186t-141.5 -387z" />
<glyph unicode="&#xff;" horiz-adv-x="849" d="M39 -438l186 415q14 29 11 56l-162 950q-6 31 22 39l88 31q29 12 33 -21l123 -760q4 -14 15.5 -14t17.5 14l338 760q12 33 43 21l77 -29q19 -8 20 -23q0 -7 -5 -16l-666 -1472q-9 -21 -27 -22q-6 0 -14 3l-86 29q-17 6 -17 23q0 7 3 16zM247 1374q32 35 83 35 q86 0 86 -81v-7q-2 -57 -35 -90t-82 -33q-41 0 -65 25q-22 23 -21 59q0 55 34 92zM634 1374q32 35 83 35q41 0 63 -24q21 -22 21 -57v-7q-2 -55 -34 -89t-81 -34q-43 0 -66 25q-22 23 -22 59q0 53 36 92z" />
<glyph unicode="&#x152;" horiz-adv-x="1648" d="M55 489q0 285 73 513.5t209 362.5t314 134q186 0 283 -153q8 -12 20.5 -8.5t14.5 22.5l12 88q6 31 35 31h635q25 0 22 -31l-10 -88q-6 -31 -33 -31h-465q-47 0 -55 -51l-57 -414q-1 -8 -2 -14q0 -37 41 -37h338q29 0 26 -31l-12 -88q-6 -31 -35 -30h-338q-47 0 -53 -50 l-57 -413q-2 -10 -3 -18q0 -33 41 -33h465q27 0 25 -31l-12 -88q-6 -31 -33 -31h-635q-33 0 -27 31l13 88q2 18 -9.5 22t-23.5 -8q-135 -154 -324 -153q-176 0 -279.5 120.5t-103.5 388.5zM211 518q0 -389 258 -389q160 0 271.5 173t142.5 470q14 109 14 198q0 379 -256 380 q-188 0 -309 -240t-121 -592z" />
<glyph unicode="&#x153;" horiz-adv-x="1486" d="M31 342q0 193 48 348.5t160.5 259t274.5 103.5q205 0 279 -166q10 -20 28 0q123 166 316 166q141 0 211.5 -75t70.5 -175q0 -94 -39 -167t-95 -113t-130 -64.5t-131 -31.5t-111 -7h-47q-45 0 -45 -45q4 -254 168 -254q117 0 273 86q31 14 36 -17l23 -69q6 -23 -16 -39 q-168 -102 -328 -102q-186 0 -262 170q-8 27 -27 0q-125 -170 -334 -170q-156 0 -239.5 99t-83.5 263zM178 348q0 -104 50.5 -166.5t138.5 -62.5q109 0 183.5 82t107 204.5t32.5 276.5q0 104 -50 167.5t-138 63.5q-158 0 -241 -163.5t-83 -401.5zM848 593q0 -38 41 -38h72 q37 0 80.5 8t100 30.5t92.5 73t36 121.5q0 55 -36 90t-110 35q-106 0 -183 -92q-93 -112 -93 -228z" />
<glyph unicode="&#x178;" horiz-adv-x="950" d="M111 1405q-4 8 -4 15q0 16 20 28l82 49q29 18 41 -10l215 -615q4 -16 21.5 -16t27.5 16l387 611q18 27 43 12l80 -45q13 -7 13 -19q0 -10 -9 -24l-471 -739q-12 -16 -16 -45l-84 -592q-2 -31 -33 -31h-94q-29 0 -27 31l84 590q2 14 -6 43zM301 1649q0 55 33 91t84 36 q86 0 86 -84q0 -57 -33 -92t-84 -35q-41 0 -63.5 23.5t-22.5 60.5zM717 1649q0 55 32.5 91t86.5 36q86 0 86 -84q0 -57 -33 -92t-84 -35q-43 0 -65.5 22.5t-22.5 61.5z" />
<glyph unicode="&#x2c6;" horiz-adv-x="776" d="M162 1169q-6 8 -6 17q0 12 12 22l278 242q20 17 39.5 17t36.5 -17l209 -238q8 -10 8 -19.5t-8 -18.5l-39 -39q-9 -11 -19 -12q-8 0 -18 7l-159 144q-14 11 -29.5 11t-32.5 -11l-205 -148q-9 -6 -17 -6q-11 0 -19 10z" />
<glyph unicode="&#x2dc;" horiz-adv-x="874" d="M186 1239q-10 7 -10 18.5t10 26.5q61 86 109.5 125t107.5 39q63 0 141.5 -67.5t106.5 -67.5q47 0 123 94q16 20 41 2l37 -27q9 -7 9 -16q0 -11 -11 -27q-63 -88 -109.5 -125.5t-107.5 -37.5q-63 0 -141 67.5t-107 67.5q-49 0 -123 -94q-14 -23 -41 -5z" />
<glyph unicode="&#x2000;" horiz-adv-x="935" />
<glyph unicode="&#x2001;" horiz-adv-x="1871" />
<glyph unicode="&#x2002;" horiz-adv-x="935" />
<glyph unicode="&#x2003;" horiz-adv-x="1871" />
<glyph unicode="&#x2004;" horiz-adv-x="622" />
<glyph unicode="&#x2005;" horiz-adv-x="466" />
<glyph unicode="&#x2006;" horiz-adv-x="311" />
<glyph unicode="&#x2007;" horiz-adv-x="311" />
<glyph unicode="&#x2008;" horiz-adv-x="233" />
<glyph unicode="&#x2009;" horiz-adv-x="372" />
<glyph unicode="&#x200a;" horiz-adv-x="102" />
<glyph unicode="&#x2010;" horiz-adv-x="581" d="M4 496l12 82q2 33 35 32h443q29 0 26 -32l-12 -82q-6 -33 -35 -33h-442q-29 0 -27 33z" />
<glyph unicode="&#x2011;" horiz-adv-x="581" d="M4 496l12 82q2 33 35 32h443q29 0 26 -32l-12 -82q-6 -33 -35 -33h-442q-29 0 -27 33z" />
<glyph unicode="&#x2012;" horiz-adv-x="581" d="M4 496l12 82q2 33 35 32h443q29 0 26 -32l-12 -82q-6 -33 -35 -33h-442q-29 0 -27 33z" />
<glyph unicode="&#x2013;" horiz-adv-x="1077" d="M4 496l12 82q2 33 35 32h940q27 0 25 -32l-12 -82q-2 -33 -33 -33h-940q-29 0 -27 33z" />
<glyph unicode="&#x2014;" horiz-adv-x="2043" d="M4 496l12 82q2 33 35 32h1907q27 0 24 -32l-12 -82q-2 -33 -33 -33h-1906q-29 0 -27 33z" />
<glyph unicode="&#x2018;" horiz-adv-x="335" d="M86 1180l238 460q14 25 38 25h64q25 0 16 -31l-178 -471q-12 -29 -39 -28h-123q-41 0 -16 45z" />
<glyph unicode="&#x2019;" horiz-adv-x="335" d="M82 1165l178 471q10 29 37 29h123q26 0 25 -18q0 -11 -9 -27l-239 -461q-10 -25 -35 -24h-64q-20 0 -20 15q0 6 4 15z" />
<glyph unicode="&#x201a;" horiz-adv-x="335" d="M-125 -309l176 471q12 29 39 28h123q26 0 26 -17q0 -11 -10 -28l-237 -460q-14 -25 -39 -25h-62q-18 0 -18 17q0 6 2 14z" />
<glyph unicode="&#x201c;" horiz-adv-x="657" d="M88 1180l238 460q14 25 39 25h63q23 0 14 -31l-178 -471q-10 -29 -37 -28h-123q-24 0 -23 18q0 11 7 27zM410 1180l237 460q14 25 37 25h64q20 0 20 -15q0 -6 -4 -16l-178 -471q-10 -29 -37 -28h-123q-24 0 -24 18q1 11 8 27z" />
<glyph unicode="&#x201d;" horiz-adv-x="657" d="M82 1165l178 471q10 29 37 29h123q26 0 25 -18q0 -11 -9 -27l-239 -461q-10 -25 -35 -24h-64q-20 0 -20 15q0 6 4 15zM403 1165l179 471q10 29 36 29h123q26 0 26 -18q0 -11 -9 -27l-240 -461q-10 -25 -37 -24h-63q-18 0 -18 14q-1 6 3 16z" />
<glyph unicode="&#x201e;" horiz-adv-x="657" d="M-125 -309l176 471q12 29 39 28h123q26 0 26 -17q0 -11 -10 -28l-237 -460q-14 -25 -39 -25h-62q-18 0 -18 17q0 6 2 14zM197 -309l178 471q10 29 35 28h122q25 0 26 -19q0 -10 -7 -26l-240 -460q-14 -25 -37 -25h-63q-18 0 -18 14q0 7 4 17z" />
<glyph unicode="&#x2022;" horiz-adv-x="737" d="M94 680q0 154 91 249t225 95q117 0 175 -65.5t58 -161.5q0 -156 -89 -251t-224 -95q-117 0 -176.5 65.5t-59.5 163.5z" />
<glyph unicode="&#x2026;" horiz-adv-x="1427" d="M8 80q0 68 37 103.5t92 35.5q47 0 70.5 -25.5t23.5 -66.5q0 -61 -35.5 -100t-91.5 -39q-47 0 -71.5 26.5t-24.5 65.5zM512 80q0 66 37 102.5t94 36.5q45 0 69.5 -25.5t24.5 -66.5q0 -59 -35.5 -99t-91.5 -40q-47 0 -72.5 26.5t-25.5 65.5zM1020 80q0 68 37 103.5t92 35.5 q47 0 70.5 -25.5t23.5 -66.5q0 -61 -36 -100t-91 -39q-47 0 -71.5 26.5t-24.5 65.5z" />
<glyph unicode="&#x202f;" horiz-adv-x="372" />
<glyph unicode="&#x2039;" horiz-adv-x="667" d="M74 508q-7 9 -7 19q0 13 13 26l403 373q13 12 24.5 12t20.5 -12l45 -68q7 -9 7 -19q0 -13 -13 -26l-276 -254q-20 -19 -21 -38q0 -14 11 -27l208 -258q20 -20 -4 -43l-67 -56q-12 -11 -23.5 -11t-21.5 11z" />
<glyph unicode="&#x203a;" horiz-adv-x="667" d="M35 205q-7 9 -7 17q0 12 13 26l276 254q20 19 21 38q0 14 -10 27l-209 258q-23 25 6 43l68 56q12 10 22.5 10t20.5 -10l299 -371q8 -11 7 -20q0 -13 -14 -25l-403 -371q-12 -12 -23 -12t-20 12z" />
<glyph unicode="&#x205f;" horiz-adv-x="466" />
<glyph unicode="&#x20ac;" horiz-adv-x="1171" d="M53 559l10 76q6 33 33 33h90q43 0 50 45l8 55q1 7 1 13q0 32 -36 32h-90q-29 0 -27 31l12 78q2 31 33 30h113q41 0 47 31q88 254 255 385t359 131q141 0 258 -59q17 -7 18 -22q0 -9 -7 -21l-39 -80q-16 -29 -43 -17q-98 49 -207 50q-127 -2 -240.5 -91.5t-183.5 -261.5 q-5 -13 -5 -21q0 -23 34 -24h432q29 0 26 -30l-12 -78q-2 -31 -33 -31h-463q-41 0 -49 -45l-8 -55q-1 -6 -1 -11q0 -34 38 -34h365q33 0 24 -33l-8 -76q-6 -31 -37 -31h-334q-42 0 -42 -34q0 -6 1 -13q18 -172 107.5 -261t216.5 -91q109 0 221 49q29 10 37 -16l18 -80 q8 -31 -22 -43q-133 -59 -275 -59q-193 0 -321.5 131t-147.5 387q0 31 -41 30h-110q-27 0 -25 31z" />
<glyph unicode="&#x2122;" horiz-adv-x="1097" d="M131 1399l8 51q6 29 31 29h338q31 0 24 -29l-8 -51q-2 -29 -30 -29h-80q-33 0 -35 -31l-55 -389q-2 -29 -29 -28h-66q-25 0 -22 28l55 389q4 31 -26 31h-80q-27 0 -25 29zM549 950l72 498q2 31 32 31h82q18 0 29 -23l51 -246q2 -10 10.5 -11t12.5 11l125 246q10 23 32 23 h82q25 0 23 -31l-70 -498q-2 -29 -31 -28h-63q-25 0 -23 28l37 242q0 8 -3 11t-9 1t-8 -8l-74 -158q-12 -27 -29 -26h-51q-20 0 -26 26l-27 158q-2 6 -7 8t-10.5 -1t-5.5 -11l-32 -242q-2 -29 -29 -28h-64q-28 -1 -26 28z" />
<glyph unicode="&#xe000;" horiz-adv-x="1060" d="M0 1060h1060v-1060h-1060v1060z" />
<glyph unicode="&#xfb01;" horiz-adv-x="985" d="M23 -461l182 1303q1 8 1 14q0 37 -40 37h-84q-29 0 -27 31l11 75q2 33 36 33h82q49 0 56 49q27 193 109.5 305.5t260.5 112.5q137 0 301 -98q16 -10 16 -24q0 -8 -5 -17l-45 -76q-18 -31 -41 -16q-63 37 -88 49t-67 26.5t-83 14.5q-102 0 -146 -66.5t-65 -210.5 q-1 -6 -1 -10q0 -38 42 -39h457q31 0 24 -33l-135 -968q-6 -31 -33 -31h-88q-33 0 -26 31l112 811q2 9 2 16q0 35 -41 35h-292q-47 0 -54 -51l-184 -1303q-6 -31 -33 -31h-88q-32 0 -26 31z" />
<glyph unicode="&#xfb02;" horiz-adv-x="985" d="M23 -461l182 1303q1 8 1 14q0 37 -40 37h-84q-33 0 -27 31l11 75q2 33 36 33h82q49 0 56 49l6 45q49 352 377 353h325q29 0 25 -31l-199 -1417q-6 -31 -33 -31h-88q-33 0 -26 31l176 1259q1 6 1 11q0 38 -40 38h-168q-104 0 -146 -58t-59 -171l-4 -29q-1 -6 -1 -10 q0 -38 42 -39h135q31 0 25 -33l-10 -75q-6 -31 -35 -31h-135q-47 0 -54 -51l-184 -1303q-6 -31 -33 -31h-88q-32 0 -26 31z" />
<glyph unicode="&#xfb03;" horiz-adv-x="1521" d="M23 -461l182 1303q1 8 1 14q0 37 -40 37h-84q-33 0 -27 31l11 75q2 33 36 33h82q49 0 56 49l6 45q49 352 377 353h41q31 0 24 -31l-10 -80q-6 -29 -35 -29h-47q-104 0 -146 -58t-59 -171l-4 -29q-1 -6 -1 -10q0 -38 42 -39h293q47 0 53 49q27 193 110 305.5t263 112.5 q137 0 301 -98q15 -11 15 -25q0 -8 -5 -16l-47 -76q-18 -29 -41 -16q-63 37 -86.5 49t-66.5 26.5t-82 14.5q-102 0 -147.5 -67.5t-65.5 -209.5q-1 -6 -1 -10q0 -38 42 -39h456q29 0 27 -33l-135 -968q-6 -31 -35 -31h-88q-29 0 -27 31l115 811q1 6 1 11q0 40 -42 40h-293 q-47 0 -53 -51l-115 -811q-6 -31 -33 -31h-88q-33 0 -26 31l112 811q1 8 2 14q0 37 -41 37h-292q-47 0 -54 -51l-184 -1303q-6 -31 -33 -31h-88q-32 0 -26 31z" />
<glyph unicode="&#xfb04;" horiz-adv-x="1521" d="M23 -461l182 1303q1 8 1 14q0 37 -40 37h-84q-33 0 -27 31l11 75q2 33 36 33h82q49 0 56 49l6 45q49 352 377 353h41q31 0 24 -31l-10 -80q-6 -29 -35 -29h-47q-104 0 -146 -58t-59 -171l-4 -29q-1 -6 -1 -10q0 -38 42 -39h293q47 0 53 49l6 45q49 352 377 353h326 q26 0 25 -22q0 -4 -1 -9l-196 -1417q-6 -31 -35 -31h-88q-31 0 -27 31l178 1259q1 6 1 11q0 38 -42 38h-168q-104 0 -146 -58t-58 -171l-4 -29q-1 -6 -1 -10q0 -38 42 -39h135q31 0 24 -33l-10 -75q-6 -31 -35 -31h-135q-47 0 -53 -51l-115 -811q-6 -31 -33 -31h-88 q-33 0 -26 31l112 811q1 8 2 14q0 37 -41 37h-292q-47 0 -54 -51l-184 -1303q-6 -31 -33 -31h-88q-32 0 -26 31z" />
<glyph horiz-adv-x="0" />
</font>
</defs>
</svg>
