<?xml version="1.0" standalone="no"?>
<!DOCTYPE svg PUBLIC "-//W3C//DTD SVG 1.1//EN" "http://www.w3.org/Graphics/SVG/1.1/DTD/svg11.dtd" >
<svg xmlns="http://www.w3.org/2000/svg">
<metadata>
This is a custom SVG webfont generated by Font Squirrel.
Copyright   : Copyright C 2011 Markanna Studios IncwwwSweetFontscom
Designer    : Mark van Bronkhorst
Foundry     : Mark van Bronkhorst Sweet Collection MVB Fonts
Foundry URL : wwwmvbfontscom
</metadata>
<defs>
<font id="SweetSansOnAirHeavy" horiz-adv-x="1452" >
<font-face units-per-em="2048" ascent="1577" descent="-471" />
<missing-glyph horiz-adv-x="348" />
<glyph unicode=" "  horiz-adv-x="348" />
<glyph unicode="&#x09;" horiz-adv-x="348" />
<glyph unicode="&#xa0;" horiz-adv-x="348" />
<glyph unicode="!" horiz-adv-x="604" d="M84 166q0 82 63.5 140.5t155.5 58.5q90 0 154.5 -59.5t64.5 -139.5q0 -82 -64.5 -139.5t-154.5 -57.5q-94 0 -156.5 56.5t-62.5 140.5zM117 954v383h370v-383l-69 -489h-232z" />
<glyph unicode="&#x22;" horiz-adv-x="1034" d="M70 1071v266h350v-266l-53 -381h-246zM612 1071v266h353v-266l-54 -381h-245z" />
<glyph unicode="#" horiz-adv-x="1759" d="M45 205v260h434l60 362h-373v258h414l61 369h203l-62 -369h330l62 369h202l-61 -369h397v-258h-438l-60 -362h377v-260h-420l-71 -434h-203l72 434h-330l-72 -434h-202l71 434h-391zM682 465h330l59 362h-330z" />
<glyph unicode="$" horiz-adv-x="1415" d="M43 213l186 229q174 -135 320 -182l59 291q-86 10 -146.5 22.5t-133 40t-116.5 68.5t-75 108.5t-31 157.5q0 117 49.5 205t132.5 135t178 69.5t204 22.5q25 0 82 -4l36 183h236l-45 -220q209 -51 340 -131l-189 -235q-86 55 -225 98l-47 -240q113 -14 195 -37.5 t154.5 -68.5t110.5 -123t38 -184q0 -231 -167 -346t-431 -115q-37 0 -53 2l-50 -246h-235l55 279q-225 57 -432 221zM455 971q0 -63 52 -89t161 -36l51 264q-8 0 -24.5 1t-24.5 1q-100 0 -157.5 -36.5t-57.5 -104.5zM737 223h25q117 0 182.5 44t65.5 120q0 68 -51.5 97.5 t-159.5 45.5z" />
<glyph unicode="%" horiz-adv-x="2101" d="M43 977q0 162 128 277.5t310 115.5q180 0 311.5 -115.5t131.5 -277.5q0 -164 -131 -280.5t-312 -116.5q-184 0 -311 115.5t-127 281.5zM338 976.5q0 -63.5 42 -110.5t101 -47q61 0 104.5 46t43.5 111.5t-43 111t-105 45.5q-59 0 -101 -46.5t-42 -110zM526 0l762 1337h287 l-762 -1337h-287zM1178 365q0 162 127 277.5t309 115.5q180 0 312 -117t132 -276q0 -164 -131 -281t-313 -117t-309 117t-127 281zM1473 365q0 -66 41.5 -112t99.5 -46q61 0 105 46t44 112q0 63 -44 109t-105 46q-57 0 -99 -46t-42 -109z" />
<glyph unicode="&#x26;" horiz-adv-x="1503" d="M20 412q0 289 324 413q-55 90 -55 185q0 166 134 269t325 103q170 0 393 -96l-129 -264q-53 27 -133 50.5t-131 23.5q-53 0 -80 -24.5t-27 -61.5q0 -66 125 -209l254 -289q119 133 223 307l248 -121q-139 -233 -289 -393l271 -305h-422l-88 100q-197 -133 -424 -133 q-70 0 -139.5 14.5t-139.5 48t-122 84t-85 127.5t-33 171zM371 436q0 -100 66.5 -146t144.5 -46q90 0 200 65l-293 336q-118 -80 -118 -209z" />
<glyph unicode="'" horiz-adv-x="491" d="M70 1071v266h352v-266l-53 -381h-246z" />
<glyph unicode="(" horiz-adv-x="755" d="M20 538.5q0 274.5 155 508t431 378.5l158 -196q-178 -106 -284.5 -291.5t-106.5 -398.5t105.5 -394.5t285.5 -289.5l-158 -197q-276 145 -431 375.5t-155 505z" />
<glyph unicode=")" horiz-adv-x="755" d="M-8 -145q180 109 285.5 290t105.5 394t-106.5 398t-284.5 292l158 196q276 -145 430.5 -378.5t154.5 -508t-154.5 -505t-430.5 -375.5z" />
<glyph unicode="*" horiz-adv-x="1118" d="M49 1001l64 195l319 -100l10 338h236l12 -334l318 96l63 -192l-319 -123l188 -271l-174 -129l-207 254l-205 -256l-174 131l189 271z" />
<glyph unicode="+" d="M84 418v276h436v365h332v-365h432v-276h-432v-365h-332v365h-436z" />
<glyph unicode="," horiz-adv-x="577" d="M45 -219q80 25 157 90.5t77 142.5v17q-41 -10 -62 -11q-66 0 -112 46.5t-46 113.5q0 78 63.5 131.5t153.5 53.5q104 0 177 -83t73 -216q0 -94 -36.5 -175t-99 -135.5t-126 -90.5t-135.5 -60z" />
<glyph unicode="-" horiz-adv-x="772" d="M78 395v297h616v-297h-616z" />
<glyph unicode="." horiz-adv-x="555" d="M59 166q0 82 63.5 140.5t153.5 58.5q92 0 156 -59.5t64 -139.5q0 -82 -63.5 -139.5t-156 -57.5t-155 56.5t-62.5 140.5z" />
<glyph unicode="/" horiz-adv-x="1103" d="M27 -244l704 1581h342l-704 -1581h-342z" />
<glyph unicode="0" horiz-adv-x="1519" d="M41 670q0 297 211 503.5t506 206.5q297 0 509 -206.5t212 -503.5q0 -293 -213 -503t-508 -210q-293 0 -505 210t-212 503zM391 670q0 -168 107.5 -293t259 -125t261 125t109.5 293q0 172 -109.5 293.5t-261 121.5t-259 -121.5t-107.5 -293.5z" />
<glyph unicode="1" horiz-adv-x="845" d="M-25 1155l414 182h297v-1337h-352v1006l-285 -129z" />
<glyph unicode="2" horiz-adv-x="1273" d="M53 1116q84 66 136.5 102.5t132 79.5t165.5 62.5t187 19.5q223 0 381.5 -101t158.5 -302q0 -84 -29.5 -152.5t-72.5 -113.5t-115.5 -86t-130 -63.5t-147.5 -51.5q-158 -51 -228.5 -102.5t-70.5 -118.5v-13h772v-276h-1126v221q0 119 44 214t129 163t186 115t237 84 q203 57 202 178q0 68 -53 98.5t-127 30.5q-123 0 -222.5 -52.5t-223.5 -156.5z" />
<glyph unicode="3" horiz-adv-x="1398" d="M-6 238l184 221q244 -225 500 -226q143 0 236.5 56.5t93.5 152.5q0 49 -32 80t-68 39t-77 8h-284v258h217q70 0 110.5 36t40.5 91q0 74 -60 112t-136 38q-193 0 -432 -205l-191 213q313 268 627 268q92 0 182 -21.5t174 -64.5t136.5 -121.5t52.5 -181.5q0 -143 -146 -237 q238 -96 238 -324q0 -221 -193.5 -347t-488.5 -126q-391 0 -684 281z" />
<glyph unicode="4" horiz-adv-x="1484" d="M0 272v197l907 868h324v-807h225v-258h-225v-272h-350v272h-881zM475 530h406v404h-23l-383 -395v-9z" />
<glyph unicode="5" horiz-adv-x="1386" d="M2 162l145 241q281 -170 541 -170q131 0 216 59.5t85 168.5q0 90 -67.5 133t-169.5 43q-182 0 -406 -135l-199 141v694h1076v-278h-762v-295q166 139 368 139q215 0 373 -113.5t158 -326.5q0 -129 -58.5 -229.5t-156.5 -159t-214 -88t-243 -29.5q-340 0 -686 205z" />
<glyph unicode="6" horiz-adv-x="1398" d="M43 645q0 332 226.5 533.5t535.5 201.5q213 0 500 -116l-144 -238q-166 78 -342 78t-300 -108.5t-138 -299.5q217 182 463 183q244 0 385 -130.5t141 -302.5q0 -205 -173 -347t-437 -142q-295 0 -506 183t-211 505zM401 502q39 -127 135.5 -198t217.5 -71 q115 0 191.5 63.5t76.5 147.5q0 70 -58.5 123.5t-179.5 53.5q-176 0 -383 -119z" />
<glyph unicode="7" horiz-adv-x="1234" d="M18 1040v297h1215v-258l-682 -1079h-434l684 1040h-783z" />
<glyph unicode="8" horiz-adv-x="1413" d="M41 399q0 123 70.5 211t189.5 135q-188 90 -188 261q0 119 96 208t228 129.5t274 40.5q137 0 267 -39.5t226 -132t96 -217.5q0 -180 -184 -250q117 -47 186.5 -136t69.5 -210q0 -135 -97 -239.5t-246.5 -155.5t-321.5 -51q-268 0 -467 121.5t-199 324.5zM410 418 q0 -86 90 -137.5t207 -51.5q119 0 208 51.5t89 137.5t-92.5 133t-205 47t-204.5 -47t-92 -133zM481 979q0 -63 59.5 -98t166.5 -35q109 0 167 34.5t58 98.5q0 72 -69.5 110.5t-155.5 38.5t-156 -38.5t-70 -110.5z" />
<glyph unicode="9" horiz-adv-x="1398" d="M29 891q0 205 173 347t437 142q295 0 506 -183t211 -505q0 -332 -226.5 -533.5t-535.5 -201.5q-213 0 -500 117l144 237q166 -78 342 -78q174 0 297.5 109t138.5 297q-213 -180 -461 -180q-244 0 -385 130t-141 302zM377 893q0 -70 58.5 -123t178.5 -53q178 0 381 117 q-37 127 -133 198.5t-217 71.5q-115 0 -191.5 -63.5t-76.5 -147.5z" />
<glyph unicode=":" horiz-adv-x="622" d="M94 166q0 80 62.5 138t154.5 58t155.5 -58t63.5 -138q0 -82 -63.5 -139.5t-155.5 -57.5t-154.5 56.5t-62.5 140.5zM94 817q0 84 62.5 141.5t154.5 57.5t155.5 -58.5t63.5 -140.5t-63.5 -138t-155.5 -56t-154.5 56t-62.5 138z" />
<glyph unicode=";" horiz-adv-x="606" d="M72 -219q80 25 156.5 90.5t76.5 142.5v17q-41 -10 -61 -11q-66 0 -112 46.5t-46 113.5q0 78 63.5 131.5t153.5 53.5q104 0 177 -83t73 -216q0 -94 -37 -175t-99.5 -135.5t-126 -90.5t-134.5 -60zM94 817q0 84 62.5 141.5t154.5 57.5t155.5 -58.5t63.5 -140.5t-63.5 -138 t-155.5 -56t-154.5 56t-62.5 138z" />
<glyph unicode="&#x3c;" d="M84 428v258l1200 385v-313l-678 -189v-24l678 -191v-311z" />
<glyph unicode="=" d="M84 172v281h1200v-281h-1200zM84 659v281h1200v-281h-1200z" />
<glyph unicode="&#x3e;" d="M84 43v311l678 191v24l-678 189v313l1200 -385v-258z" />
<glyph unicode="?" horiz-adv-x="1081" d="M33 1135q61 57 104 89.5t111.5 73.5t150.5 60.5t179 19.5q193 0 320.5 -83t127.5 -257q0 -127 -68.5 -208.5t-193.5 -155.5q-96 -55 -123 -90q-37 -47 -41 -119h-326q-2 68 13.5 125t37 95t66.5 78t77 61.5t93 60.5q6 4 26.5 16t29 17.5t24.5 17.5t23.5 20.5t16.5 19.5 t12 24.5t3 27.5q0 45 -37.5 70.5t-101.5 25.5q-82 0 -156.5 -44t-162.5 -130zM254 166q0 82 63.5 140.5t155.5 58.5t155.5 -59.5t63.5 -139.5q0 -82 -64.5 -139.5t-154.5 -57.5q-92 0 -155.5 57.5t-63.5 139.5z" />
<glyph unicode="@" horiz-adv-x="2160" d="M61 506q0 291 161 521t419 351t557 121q401 0 651 -212t250 -529q0 -147 -59.5 -276.5t-153.5 -214.5t-209.5 -133t-232.5 -48q-242 0 -277 182q-139 -180 -293 -180q-121 0 -211 96.5t-90 276.5q0 242 155 416t325 174q131 0 241 -168l45 145h318l-170 -514 q-31 -86 -31 -121q0 -61 70 -61q117 0 210 117.5t93 291.5q0 233 -173 383t-458 150q-223 0 -415.5 -93.5t-311.5 -271.5t-119 -403q0 -133 44 -247t117 -192.5t167 -134t196.5 -81t204.5 -25.5q137 0 295 44t279 105l78 -200q-119 -68 -301.5 -121t-360.5 -53 q-139 0 -279.5 34.5t-271.5 108.5t-233.5 178.5t-164 256t-61.5 327.5zM905 500q0 -125 86 -125q76 0 164 94l57 174q-18 53 -51 87t-69 34q-61 0 -124 -76.5t-63 -187.5z" />
<glyph unicode="A" horiz-adv-x="1497" d="M-20 0l620 1337h297l621 -1337h-392l-86 205h-598l-84 -205h-378zM557 483h369l-178 428h-13z" />
<glyph unicode="B" horiz-adv-x="1509" d="M123 0v1337h795q264 0 393 -139q80 -86 80 -192q0 -160 -166 -263q233 -109 233 -327q0 -164 -125 -289q-135 -127 -385 -127h-825zM483 281h437q88 0 129 41q39 39 38 98q0 57 -38 96q-45 45 -129 45h-437v-280zM483 819h389q80 0 117 37q33 33 33 82q0 47 -33 80 q-39 39 -117 39h-389v-238z" />
<glyph unicode="C" horiz-adv-x="1476" d="M43 670q0 293 208 500.5t527 207.5q180 0 357.5 -62.5t310.5 -166.5l-215 -234q-92 76 -204 119t-204 43q-182 0 -294.5 -118.5t-112.5 -290.5t115.5 -291t302.5 -119q219 0 436 203l217 -230q-307 -272 -699 -272q-330 0 -537.5 206t-207.5 505z" />
<glyph unicode="D" horiz-adv-x="1525" d="M123 0v1337h616q369 0 559 -200q178 -188 179 -467q0 -295 -189 -480q-195 -190 -549 -190h-616zM481 301h250q174 0 266 88q109 104 109 277q0 166 -98 270q-94 100 -277 100h-250v-735z" />
<glyph unicode="E" horiz-adv-x="1343" d="M123 0v1337h1143v-301h-785v-211h471v-288h-471v-236h830v-301h-1188z" />
<glyph unicode="F" horiz-adv-x="1253" d="M123 0v1337h1134v-301h-776v-211h471v-288h-471v-537h-358z" />
<glyph unicode="G" horiz-adv-x="1519" d="M41 670q0 295 216 501.5t527 206.5q336 0 648 -235l-228 -221q-88 72 -204.5 113.5t-213.5 41.5q-164 0 -269 -119.5t-105 -289.5q0 -168 104.5 -287t290.5 -119q170 0 285 72v182h-385v279h727v-615q-137 -100 -309.5 -158.5t-329.5 -58.5q-322 0 -538 206t-216 501z " />
<glyph unicode="H" horiz-adv-x="1501" d="M123 0v1337h360v-483h537v483h358v-1337h-358v563h-537v-563h-360z" />
<glyph unicode="I" horiz-adv-x="604" d="M123 0v1337h358v-1337h-358z" />
<glyph unicode="J" horiz-adv-x="1234" d="M-41 354l305 158q109 -250 275 -250q102 0 165.5 60.5t63.5 169.5v845h360v-845q0 -248 -162.5 -388.5t-424.5 -140.5q-400 0 -582 391z" />
<glyph unicode="K" horiz-adv-x="1507" d="M123 0v1337h360v-501l527 501h454l-567 -530l649 -807h-444l-457 575l-162 -153v-422h-360z" />
<glyph unicode="L" horiz-adv-x="1226" d="M123 0v1337h358v-1036h752v-301h-1110z" />
<glyph unicode="M" horiz-adv-x="1714" d="M123 0v1337h328l409 -675h4l408 675h319v-1337h-360v643h-10l-306 -498h-127l-305 498h-10v-643h-350z" />
<glyph unicode="N" horiz-adv-x="1501" d="M123 0v1337h301l592 -729h2v729h360v-1337h-303l-590 727h-2v-727h-360z" />
<glyph unicode="O" horiz-adv-x="1607" d="M41 672q0 293 221 499.5t539 206.5q319 0 543.5 -206.5t224.5 -499.5q0 -297 -224.5 -505t-544 -208t-539.5 208t-220 505zM412 672q0 -170 112.5 -292t276.5 -122q166 0 280.5 122t114.5 292q0 166 -114.5 285.5t-280.5 119.5q-164 0 -276.5 -118.5t-112.5 -286.5z" />
<glyph unicode="P" horiz-adv-x="1413" d="M123 0v1337h745q279 0 420 -153q111 -121 111 -281q0 -174 -131 -299q-139 -133 -400 -133h-387v-471h-358zM481 762h408q70 0 106 37q45 45 45 104q0 61 -43 105q-39 39 -108 39h-408v-285z" />
<glyph unicode="Q" horiz-adv-x="1607" d="M41 672q0 293 221 499.5t539 206.5q319 0 543.5 -206.5t224.5 -499.5q0 -164 -75 -308.5t-206 -244.5l162 -254l-320 -101l-137 218q-96 -23 -192 -23q-319 0 -539.5 208t-220.5 505zM412 672q0 -170 112.5 -292t276.5 -122h16l-137 215l317 102l107 -167q92 115 92 264 q0 166 -114.5 285.5t-280.5 119.5q-164 0 -276.5 -118.5t-112.5 -286.5z" />
<glyph unicode="R" horiz-adv-x="1484" d="M123 0v1337h745q272 0 416 -149q115 -121 115 -285q0 -244 -246 -371l307 -532h-405l-256 471h-318v-471h-358zM481 762h408q66 0 108.5 38t42.5 105q0 57 -39 101q-39 41 -112 41h-408v-285z" />
<glyph unicode="S" horiz-adv-x="1402" d="M18 207l193 244q297 -211 543 -211q121 0 191.5 46t70.5 113q0 66 -68.5 91.5t-218.5 37.5q-84 6 -131 11.5t-126 18.5t-124 30.5t-102.5 48.5t-88 71t-52 100t-21.5 134q0 119 51 207t137 136t181.5 70.5t199.5 22.5q186 0 358.5 -50t280.5 -114l-194 -249 q-225 131 -453 131q-86 0 -144.5 -37t-58.5 -98q0 -31 23.5 -52.5t61.5 -33t86.5 -18.5t99.5 -11q18 -2 28 -2q70 -4 114 -8.5t118 -16.5t122 -29.5t106.5 -49t92 -71.5t57 -101.5t23.5 -137.5q0 -240 -171 -355.5t-443 -115.5q-404 0 -742 248z" />
<glyph unicode="T" horiz-adv-x="1253" d="M6 1036v301h1241v-301h-440v-1036h-358v1036h-443z" />
<glyph unicode="U" horiz-adv-x="1427" d="M86 487v850h360v-850q0 -109 77 -169t190 -60q121 0 195.5 60.5t74.5 168.5v850h358v-850q0 -248 -174 -388t-454 -140q-272 0 -449.5 141t-177.5 387z" />
<glyph unicode="V" horiz-adv-x="1443" d="M-47 1337h399l369 -895h12l371 895h387l-621 -1337h-297z" />
<glyph unicode="W" horiz-adv-x="1947" d="M4 1337h385l215 -772h12l232 772h264l229 -772h13l215 772h375l-428 -1337h-326l-211 696h-12l-209 -696h-328z" />
<glyph unicode="X" horiz-adv-x="1513" d="M-29 0l568 686l-512 651h442l297 -391l309 391h430l-528 -641l551 -696h-445l-331 436l-349 -436h-432z" />
<glyph unicode="Y" horiz-adv-x="1269" d="M-61 1337h438l268 -411l264 411h420l-514 -731v-606h-360v606z" />
<glyph unicode="Z" horiz-adv-x="1325" d="M47 0v203l694 833h-655v301h1171v-202l-692 -834h692v-301h-1210z" />
<glyph unicode="[" horiz-adv-x="731" d="M111 -313v1724h585v-233h-254v-1258h254v-233h-585z" />
<glyph unicode="\" horiz-adv-x="1112" d="M53 1337h342l705 -1581h-342z" />
<glyph unicode="]" horiz-adv-x="731" d="M35 -80h254v1258h-254v233h586v-1724h-586v233z" />
<glyph unicode="^" d="M78 416l463 839h297l454 -839h-366l-230 446h-16l-234 -446h-368z" />
<glyph unicode="_" horiz-adv-x="1159" d="M-53 -205h1265v-219h-1265v219z" />
<glyph unicode="`" horiz-adv-x="925" d="M137 1434h307l205 -299h-287z" />
<glyph unicode="a" horiz-adv-x="1107" d="M20 313q0 150 115 247t305 97q158 0 265 -86v91q0 63 -47.5 97t-127.5 34q-139 0 -335 -66l-93 229q217 86 463 86q201 0 337 -75.5t136 -237.5v-516q0 -96 31 -213h-328q-10 41 -22 106q-66 -68 -127.5 -100.5t-167.5 -32.5q-182 0 -293 97.5t-111 242.5zM352 311.5 q0 -55.5 39 -85t107 -29.5q121 0 207 82v92q-66 70 -189 69q-82 0 -123 -36.5t-41 -92z" />
<glyph unicode="b" horiz-adv-x="1198" d="M53 0q27 141 27 299v1135h336v-504q129 113 260 112q205 0 346 -147t141 -385q0 -236 -141 -386.5t-346 -150.5q-158 0 -293 129l-10 -102h-320zM416 332q100 -84 200 -84q80 0 135.5 73.5t55.5 188.5q0 119 -53.5 187.5t-137.5 68.5q-98 0 -200 -86v-348z" />
<glyph unicode="c" horiz-adv-x="1050" d="M33 510q0 240 156.5 386t388.5 146q260 0 469 -176l-197 -219q-127 119 -232 119q-100 0 -166.5 -68.5t-66.5 -187.5q0 -113 71.5 -189.5t172 -76.5t241.5 133l195 -201q-59 -68 -185 -137.5t-292 -69.5q-229 0 -392 152.5t-163 388.5z" />
<glyph unicode="d" horiz-adv-x="1198" d="M35 510q0 238 141 385t346 147q131 0 260 -112v504h336v-1135q0 -158 27 -299h-320l-10 102q-135 -129 -293 -129q-205 0 -346 150.5t-141 386.5zM391 510q0 -115 55.5 -188.5t135.5 -73.5q100 0 200 84v348q-102 86 -200 86q-84 0 -137.5 -68.5t-53.5 -187.5z" />
<glyph unicode="e" horiz-adv-x="1112" d="M33 498q0 231 155.5 387.5t391.5 156.5q133 0 242.5 -50t185 -170t75.5 -296q0 -35 -6 -108h-721q25 -90 96.5 -142.5t176.5 -52.5q143 0 291 70l116 -211q-86 -49 -212 -81t-242 -32q-258 0 -403.5 153t-145.5 376zM358 614h406q0 86 -56.5 137.5t-121.5 51.5 q-181 -1 -228 -189z" />
<glyph unicode="f" horiz-adv-x="714" d="M18 772v238h162v137q0 162 105.5 235.5t255.5 73.5q145 0 207 -20l-21 -244q-82 10 -139 10q-33 0 -52.5 -15.5t-19.5 -39.5v-137h232v-238h-232v-772h-336v772h-162z" />
<glyph unicode="g" horiz-adv-x="1196" d="M35 504q0 244 139 391t346 147q74 0 155 -38.5t138 -94.5q6 63 16 107h314q-27 -141 -27 -299v-758q0 -184 -141 -304t-397 -120q-295 0 -496 160l162 190q166 -94 334 -94q96 0 149 42t53 106v165q-125 -111 -260 -110q-203 0 -344 143.5t-141 366.5zM389 504 q0 -100 56.5 -168t134.5 -68q96 0 200 84v328q-96 86 -200 86q-82 0 -136.5 -70.5t-54.5 -191.5z" />
<glyph unicode="h" horiz-adv-x="1130" d="M76 0v1434h336v-512q141 121 286 120q164 0 264.5 -103t100.5 -265v-674h-336v653q0 47 -37 80t-92 33q-51 0 -104.5 -30.5t-83.5 -69.5v-666h-334z" />
<glyph unicode="i" horiz-adv-x="487" d="M51 1296.5q0 71.5 55.5 122.5t135.5 51t137 -51t57 -122.5t-56 -121t-138 -49.5q-80 0 -135.5 49.5t-55.5 121zM76 0v1010h336v-1010h-336z" />
<glyph unicode="j" horiz-adv-x="493" d="M-104 -227q55 12 89.5 23t65.5 43t31 77v1094h336v-1094q0 -100 -41 -178t-106.5 -121t-138.5 -63.5t-148 -20.5zM55 1296.5q0 71.5 55.5 122.5t137.5 51q80 0 137 -51t57 -122.5t-56 -121t-138 -49.5t-137.5 49.5t-55.5 121z" />
<glyph unicode="k" horiz-adv-x="1118" d="M76 0v1434h336v-725l297 301h432l-393 -371l415 -639h-413l-240 416l-98 -92v-324h-336z" />
<glyph unicode="l" horiz-adv-x="487" d="M76 0v1434h336v-1434h-336z" />
<glyph unicode="m" horiz-adv-x="1716" d="M47 1010h309l17 -115q156 147 319 147q84 0 152.5 -40.5t107.5 -112.5q59 68 155.5 110.5t197.5 42.5q150 0 247 -104t97 -264v-674h-336v653q0 49 -39 81t-92 32q-86 0 -150 -98v-668h-338v653q0 47 -36.5 80t-92.5 33q-80 0 -151 -98v-668h-334v717q0 123 -33 293z" />
<glyph unicode="n" horiz-adv-x="1134" d="M47 1010h307q0 -2 8.5 -48.5t10.5 -66.5q133 147 344 147q145 0 247.5 -105.5t102.5 -262.5v-674h-336v653q0 49 -36 81t-93 32q-88 0 -188 -100v-666h-334v715q0 125 -33 295z" />
<glyph unicode="o" horiz-adv-x="1193" d="M33 510q0 229 156.5 380.5t406.5 151.5t407.5 -151.5t157.5 -380.5q0 -227 -158.5 -384t-406.5 -157t-405.5 157t-157.5 384zM375 510q0 -111 60.5 -188.5t160.5 -77.5q102 0 163.5 78.5t61.5 187.5q0 113 -60.5 184.5t-164.5 71.5q-102 0 -161.5 -71.5t-59.5 -184.5z " />
<glyph unicode="p" horiz-adv-x="1198" d="M53 1010h320l6 -111q143 143 297 143q207 0 347 -146t140 -388q0 -233 -142 -384t-345 -151q-150 0 -262 107v-504h-334v1141q0 152 -27 293zM416 328q102 -80 200 -80q80 0 135.5 74.5t55.5 185.5q0 119 -55.5 188.5t-135.5 69.5q-104 0 -200 -86v-352z" />
<glyph unicode="q" horiz-adv-x="1198" d="M35 508q0 242 140 388t347 146q154 0 297 -143l6 111h320q-27 -141 -27 -293v-1141h-334v504q-113 -106 -262 -107q-203 0 -345 151t-142 384zM391 508q0 -111 55.5 -185.5t135.5 -74.5q98 0 200 80v352q-96 86 -200 86q-80 0 -135.5 -69.5t-55.5 -188.5z" />
<glyph unicode="r" horiz-adv-x="749" d="M47 1010h305q2 -8 10.5 -59.5t10.5 -71.5q94 164 237 163q102 0 170 -38l-90 -306q-10 2 -39.5 10.5t-57.5 13.5t-46 5q-35 0 -59.5 -17.5t-71.5 -68.5v-641h-336v717q0 111 -33 293z" />
<glyph unicode="s" horiz-adv-x="1060" d="M23 119l110 227q84 -53 206 -94t218 -41q141 0 141 88q0 78 -161 88q-72 4 -99.5 6t-91 11.5t-93.5 20.5t-74 33.5t-64.5 52.5t-37 76t-16.5 103q0 184 130.5 270.5t312.5 86.5q119 0 261 -32t222 -67l-110 -227q-193 80 -357 80q-129 0 -129 -76q0 -33 23.5 -49.5 t48 -19.5t80.5 -5q72 -4 123 -9t126.5 -24.5t123 -52.5t82 -93t34.5 -144q0 -174 -135 -268.5t-350 -94.5q-272 0 -524 154z" />
<glyph unicode="t" horiz-adv-x="761" d="M-6 772v238h164v272h336v-272h231v-238h-231v-459q0 -43 23.5 -59t74.5 -16q16 0 33.5 2t40 4t39.5 4l20 -244q-49 -41 -229 -41q-141 0 -239.5 75t-98.5 234v500h-164z" />
<glyph unicode="u" horiz-adv-x="1134" d="M68 336v674h335v-654q0 -49 36 -80.5t93 -31.5q88 0 189 100v666h334v-715q0 -125 32 -295h-315l-10 115q-133 -147 -344 -148q-145 0 -247.5 105.5t-102.5 263.5z" />
<glyph unicode="v" horiz-adv-x="1064" d="M-31 1010h367l194 -566h13l205 566h348l-432 -1010h-265z" />
<glyph unicode="w" horiz-adv-x="1558" d="M4 1010h344l119 -568h12l158 568h295l155 -568h13l121 568h333l-309 -1010h-305l-156 549h-12l-156 -549h-305z" />
<glyph unicode="x" horiz-adv-x="1179" d="M-25 0l414 516l-393 494h416l178 -252l182 252h412l-393 -492l413 -518h-409l-205 276l-203 -276h-412z" />
<glyph unicode="y" horiz-adv-x="1044" d="M-31 1010h371l201 -504h12l219 504h346l-672 -1434h-350l269 541z" />
<glyph unicode="z" horiz-adv-x="1017" d="M37 0v180l463 572h-426v258h891v-183l-463 -569h463v-258h-928z" />
<glyph unicode="{" horiz-adv-x="774" d="M8 449v229q80 0 139.5 37t59.5 96v246q0 217 109.5 286.5t424.5 69.5v-233q-119 0 -159.5 -20.5t-40.5 -82.5v-266q0 -76 -55.5 -136.5t-147.5 -99.5v-4q201 -61 201 -245v-310q0 -59 41 -78.5t161 -19.5v-233q-322 0 -428 67.5t-106 284.5v289q0 123 -199 123z" />
<glyph unicode="|" horiz-adv-x="618" d="M133 -629v2482h322v-2482h-322z" />
<glyph unicode="}" horiz-adv-x="774" d="M33 -82q121 0 162 19.5t41 78.5v310q0 184 200 245v4q-92 39 -147.5 99.5t-55.5 136.5v266q0 61 -40.5 82t-159.5 21v233q315 0 424.5 -69.5t109.5 -286.5v-246q0 -59 59.5 -96t139.5 -37v-229q-199 0 -199 -123v-289q0 -217 -106.5 -284.5t-427.5 -67.5v233z" />
<glyph unicode="~" d="M-12 510q131 147 238.5 220t222.5 73q41 0 80.5 -8.5t66.5 -17.5t59.5 -27.5t45 -27.5t39 -29.5t28.5 -22.5q94 -76 137 -76q63 0 223 168l254 -158q-264 -303 -483 -303q-41 0 -81 8t-66.5 17.5t-59.5 28t-45 27.5t-38.5 29.5t-28.5 22.5q-94 76 -138 76 q-49 0 -204 -160z" />
<glyph unicode="&#xa1;" horiz-adv-x="600" d="M55 1171q0 82 64.5 139.5t154.5 57.5q94 0 157 -56.5t63 -140.5q0 -82 -63.5 -140t-156.5 -58q-90 0 -154.5 59t-64.5 139zM90 0v383l70 489h231l70 -489v-383h-371z" />
<glyph unicode="&#xa2;" horiz-adv-x="1200" d="M43 541q0 254 168 409.5t418 155.5q29 0 43 -2l30 149h236l-39 -196q135 -51 240 -135l-197 -220q-63 51 -119 80l-106 -536q109 18 246 139l194 -201q-35 -37 -89 -77.5t-162.5 -86t-223.5 -51.5l-51 -256h-236l56 283q-180 53 -294 199.5t-114 345.5zM395 541 q0 -168 135 -254l107 540q-106 -10 -174 -86.5t-68 -199.5z" />
<glyph unicode="&#xa3;" horiz-adv-x="1380" d="M63 0v274h82q111 0 152 49.5t41 198.5v94h-275v195h275v168q0 195 144.5 298t342.5 103q100 0 239.5 -37.5t262.5 -99.5l-135 -248q-199 109 -346 109q-61 0 -108.5 -48t-47.5 -136v-109h397v-195h-397v-94q0 -115 -42 -171t-140 -77h817v-274h-1262z" />
<glyph unicode="&#xa4;" horiz-adv-x="1533" d="M53 100l170 158q-82 133 -82 293t82 293l-170 157l219 220l174 -162q145 84 317.5 84t321.5 -86l177 164l219 -220l-172 -159q84 -135 84 -291q0 -158 -84 -293l172 -158l-219 -219l-177 162q-150 -84 -321.5 -84t-317.5 84l-174 -162zM494 551q0 -125 78.5 -214 t191.5 -89t194.5 89t81.5 214t-81.5 214t-194.5 89t-191.5 -89t-78.5 -214z" />
<glyph unicode="&#xa5;" horiz-adv-x="1511" d="M61 432v172h519v4l-95 137h-424v173h306l-287 419h424l260 -428l256 428h407l-286 -419h311v-173h-430l-92 -137v-4h522v-172h-522v-432h-350v432h-519z" />
<glyph unicode="&#xa6;" horiz-adv-x="618" d="M133 393h322v-858h-322v858zM133 788v844h322v-844h-322z" />
<glyph unicode="&#xa7;" horiz-adv-x="1376" d="M41 489q0 145 111 267q39 45 90 80l-21 41q-20 49 -20 124q0 131 77.5 221.5t185 126t230.5 35.5q246 0 480 -122l-132 -222q-219 92 -356 93q-139 0 -139 -93q0 -29 18 -47q33 -31 236 -59q311 -45 448 -201q82 -96 82 -219q0 -154 -123 -281q-39 -43 -78 -67 q16 -27 25 -51q16 -53 16 -113q0 -131 -78.5 -221t-185 -126t-227.5 -36q-238 0 -461 123l131 221q207 -92 336 -92q139 0 139 94q0 29 -14 45q-14 18 -52 31.5t-71 19t-117 17.5q-305 43 -438 184q-92 96 -92 227zM371 532q0 -53 28 -88q25 -27 75 -45t80 -23t91 -14 q186 -23 277 -55q29 25 39 41q41 59 40 123q0 53 -26 86q-53 66 -248 90q-16 2 -63.5 8.5t-74 10.5t-66.5 13t-70 19q-33 -27 -50 -53q-32 -56 -32 -113z" />
<glyph unicode="&#xa8;" horiz-adv-x="925" d="M86 1296.5q0 65.5 49 111.5t123 46t125 -46t51 -112q0 -63 -51 -108t-125 -45t-123 44t-49 109.5zM489 1296.5q0 65.5 49.5 111.5t123 46t125 -46t51.5 -112q0 -63 -51.5 -108t-125 -45t-123 44t-49.5 109.5z" />
<glyph unicode="&#xa9;" horiz-adv-x="2105" d="M45 551q0 258 136 476t368.5 344t507.5 126q414 0 708.5 -276.5t294.5 -669.5q0 -260 -135 -478t-365.5 -344t-502.5 -126q-274 0 -507 126t-369 344t-136 478zM287 551q0 -301 227 -513t543 -212q322 0 543 210t221 515q0 297 -223.5 511t-540.5 214q-311 0 -540.5 -216 t-229.5 -509zM530 551q0 215 154 359.5t401 144.5q219 0 431 -129l-130 -224q-137 88 -256 89q-111 0 -179 -69t-68 -171q0 -94 73.5 -152.5t182 -58.5t264.5 68l121 -213q-201 -121 -432 -121q-238 0 -400 133t-162 344z" />
<glyph unicode="&#xaa;" horiz-adv-x="960" d="M53 682q0 111 89 183.5t239 72.5q125 0 207 -66v68q0 96 -137 96q-100 0 -263 -47l-71 170q172 63 360 64q156 0 263.5 -56.5t107.5 -177.5v-381q0 -76 22 -157h-254q-10 29 -18 77q-35 -33 -58.5 -50t-68.5 -32.5t-102 -15.5q-143 0 -229.5 71.5t-86.5 180.5zM311 680 q0 -39 31 -61.5t84 -22.5q96 0 162 61v68q-51 51 -148 51q-66 0 -97.5 -27.5t-31.5 -68.5z" />
<glyph unicode="&#xab;" horiz-adv-x="1249" d="M41 465v125l213 264h358l-266 -319v-17l266 -315h-358zM559 518v17l258 319h359l-267 -319v-17l267 -315h-359z" />
<glyph unicode="&#xac;" d="M84 606v279h1200v-652h-332v373h-868z" />
<glyph unicode="&#xad;" horiz-adv-x="772" d="M78 395v297h616v-297h-616z" />
<glyph unicode="&#xae;" horiz-adv-x="1208" d="M55 889q0 209 158 359.5t387 150.5t391 -150.5t162 -359.5t-161 -355.5t-392 -146.5q-229 0 -387 146.5t-158 355.5zM170 891q0 -166 125 -280.5t307 -114.5t308 115.5t126 279.5t-127 283.5t-307 119.5t-306 -118.5t-126 -284.5zM373 657v502h311q84 0 140.5 -48 t56.5 -122q0 -102 -103 -139l119 -193h-166l-96 166h-119v-166h-143zM516 934h158q27 0 44 18.5t17 38.5q0 23 -17.5 41.5t-43.5 18.5h-158v-117z" />
<glyph unicode="&#xaf;" horiz-adv-x="925" d="M180 1163v217h565v-217h-565z" />
<glyph unicode="&#xb0;" horiz-adv-x="952" d="M37 907q0 162 128 277.5t310 115.5q180 0 311.5 -115.5t131.5 -277.5q0 -164 -131.5 -280.5t-311.5 -116.5q-184 0 -311 115.5t-127 281.5zM332 907.5q0 -63.5 42 -110.5t101 -47q61 0 104.5 46t43.5 111.5t-43 110.5t-105 45q-59 0 -101 -46t-42 -109.5z" />
<glyph unicode="&#xb1;" d="M84 0v279h1200v-279h-1200zM84 678v280h436v299h332v-299h432v-280h-432v-299h-332v299h-436z" />
<glyph unicode="&#xb2;" horiz-adv-x="1005" d="M66 1184q84 61 137 94t142 60.5t187 27.5q166 0 284 -69.5t118 -209.5q0 -66 -26.5 -116.5t-82 -86.5t-111 -59.5t-136.5 -50.5q-213 -68 -213 -102v-8h553v-213h-838v157q0 152 114.5 241t329.5 144q127 35 127 97q0 70 -110 69q-88 0 -162 -36t-168 -107z" />
<glyph unicode="&#xb3;" horiz-adv-x="1093" d="M27 608l145 166q184 -145 358 -145q96 0 159 32.5t63 86.5q0 68 -115 67h-215v195h153q53 0 82 19.5t29 47.5q0 41 -39 61.5t-86 20.5q-137 0 -311 -133l-152 168q240 172 465 172q94 0 182.5 -23.5t157 -87t68.5 -153.5q0 -74 -109 -146q174 -78 174 -217 q0 -145 -144 -231t-362 -86q-284 0 -503 186z" />
<glyph unicode="&#xb4;" horiz-adv-x="925" d="M276 1135l205 299h307l-225 -299h-287z" />
<glyph unicode="&#xb5;" horiz-adv-x="1165" d="M76 -424v1434h336v-654q0 -49 35.5 -80.5t93.5 -31.5q88 0 188 100v666h334v-715q0 -125 33 -295h-316l-10 115q-133 -147 -344 -148h-14v-391h-336z" />
<glyph unicode="&#x3bc;" horiz-adv-x="1165" d="M76 -424v1434h336v-654q0 -49 35.5 -80.5t93.5 -31.5q88 0 188 100v666h334v-715q0 -125 33 -295h-316l-10 115q-133 -147 -344 -148h-14v-391h-336z" />
<glyph unicode="&#xb6;" horiz-adv-x="1808" d="M39 928q0 410 487 409h1137v-1761h-313v1487h-213v-1487h-314v928h-297q-72 0 -138 14t-130.5 47t-113 81t-77 121t-28.5 161zM371 927.5q0 -73.5 47 -111.5t108 -38h297v285h-297q-63 0 -109 -31t-46 -104.5z" />
<glyph unicode="&#xb7;" d="M449 557q0 82 67.5 142.5t167.5 60.5q98 0 167 -60.5t69 -142.5q0 -86 -68 -144.5t-168 -58.5t-167.5 58.5t-67.5 144.5z" />
<glyph unicode="&#xb8;" horiz-adv-x="925" d="M133 -424l47 174q158 -23 197 -22q109 0 108 59q0 29 -31.5 49.5t-61.5 25.5t-50 5h-6v51l78 143h235l-45 -81q84 -39 119 -76q53 -53 53 -135q0 -104 -102.5 -169t-265.5 -65q-101 0 -275 41z" />
<glyph unicode="&#xb9;" horiz-adv-x="700" d="M4 1214l311 123h232v-886h-285v622l-199 -76z" />
<glyph unicode="&#xba;" horiz-adv-x="1003" d="M61 827q0 170 123 283t318 113q193 0 316.5 -113t123.5 -283q0 -168 -124 -283.5t-316.5 -115.5t-316.5 115.5t-124 283.5zM328 827q0 -82 47 -139t127 -57q78 0 126 58.5t48 137.5q0 84 -47 137.5t-127 53.5q-82 0 -128 -53.5t-46 -137.5z" />
<glyph unicode="&#xbb;" horiz-adv-x="1249" d="M74 203l266 315v17l-266 319h358l258 -319v-17l-258 -315h-358zM637 203l266 315v17l-266 319h358l213 -264v-125l-213 -262h-358z" />
<glyph unicode="&#xbc;" horiz-adv-x="2213" d="M0 1214l311 123h232v-886h-285v622l-199 -76zM383 0l762 1337h287l-762 -1337h-287zM1094 170v141l651 576h262v-522h162v-195h-162v-170h-283v170h-630zM1470 365h254v221h-16l-238 -215v-6z" />
<glyph unicode="&#xbd;" horiz-adv-x="2121" d="M0 1214l311 123h232v-886h-285v622l-199 -76zM383 0l762 1337h287l-762 -1337h-287zM1184 733q84 61 137 94t142 60.5t188 27.5q166 0 283.5 -69.5t117.5 -208.5q0 -66 -26.5 -117t-82 -87t-110.5 -59.5t-137 -49.5q-213 -68 -213 -103v-8h553v-213h-838v158 q0 152 114.5 240.5t329.5 144.5q127 35 127 96q0 70 -110 70q-88 0 -162 -36t-168 -108z" />
<glyph unicode="&#xbe;" horiz-adv-x="2617" d="M25 608l145 166q184 -145 358 -145q96 0 159 32.5t63 86.5q0 68 -115 67h-215v195h153q53 0 82 19.5t29 47.5q0 41 -39 61.5t-86 20.5q-137 0 -311 -133l-152 168q240 172 465 172q94 0 182 -23.5t157 -87t69 -153.5q0 -74 -109 -146q174 -78 174 -217 q0 -145 -144.5 -231t-361.5 -86q-284 0 -503 186zM786 0l762 1337h287l-762 -1337h-287zM1497 170v141l651 576h262v-522h162v-195h-162v-170h-282v170h-631zM1874 365h254v221h-17l-237 -215v-6z" />
<glyph unicode="&#xbf;" horiz-adv-x="1069" d="M23 299q0 127 68.5 209t193.5 156q96 55 123 90q37 47 41 118h325q2 -68 -13.5 -125t-37 -95t-66.5 -77.5t-76.5 -61t-93.5 -60.5q-6 -4 -26.5 -16.5t-28.5 -17.5t-24.5 -17.5t-23.5 -20.5t-16.5 -19.5t-12.5 -24.5t-3 -28q0 -45 38 -70.5t102 -25.5q82 0 156.5 44 t162.5 130l205 -184q-61 -57 -104.5 -90t-112 -74t-150.5 -60.5t-178 -19.5q-193 0 -320.5 83t-127.5 257zM356 1171q0 82 64.5 139.5t154.5 57.5q92 0 156 -57.5t64 -139t-63.5 -140t-156 -58.5t-156 59t-63.5 139z" />
<glyph unicode="&#xc0;" horiz-adv-x="1497" d="M-20 0l620 1337h297l621 -1337h-392l-86 205h-598l-84 -205h-378zM422 1778h307l205 -299h-287zM557 483h369l-178 428h-13z" />
<glyph unicode="&#xc1;" horiz-adv-x="1497" d="M-20 0l620 1337h297l621 -1337h-392l-86 205h-598l-84 -205h-378zM557 483h369l-178 428h-13zM561 1479l205 299h307l-225 -299h-287z" />
<glyph unicode="&#xc2;" horiz-adv-x="1497" d="M-20 0l620 1337h297l621 -1337h-392l-86 205h-598l-84 -205h-378zM373 1479l223 299h303l223 -299h-262l-112 153l-113 -153h-262zM557 483h369l-178 428h-13z" />
<glyph unicode="&#xc3;" horiz-adv-x="1497" d="M-20 0l620 1337h297l621 -1337h-392l-86 205h-598l-84 -205h-378zM328 1563q68 121 135 172t151 51q78 0 152 -49q78 -49 100 -49q25 0 48.5 17t36 32.5t34.5 46.5l174 -94q-121 -227 -285 -228q-66 0 -139 45q-8 4 -23.5 15.5t-22.5 15.5t-19.5 10t-22.5 9.5t-20 3.5 q-14 0 -26.5 -5.5t-25 -18.5t-19.5 -22.5t-20.5 -29t-17.5 -25.5zM557 483h369l-178 428h-13z" />
<glyph unicode="&#xc4;" horiz-adv-x="1497" d="M-20 0l620 1337h297l621 -1337h-392l-86 205h-598l-84 -205h-378zM371 1640.5q0 65.5 49 111.5t122.5 46t125 -46t51.5 -112q0 -63 -51.5 -108t-125 -45t-122.5 44t-49 109.5zM557 483h369l-178 428h-13zM774 1640.5q0 65.5 49 111.5t123 46t125 -46t51 -112 q0 -63 -51 -108t-125 -45t-123 44t-49 109.5z" />
<glyph unicode="&#xc5;" horiz-adv-x="1497" d="M-20 0l620 1337h297l621 -1337h-392l-86 205h-598l-84 -205h-378zM444 1651q0 100 78 171.5t219 71.5q139 0 218 -71.5t79 -171.5q0 -98 -78.5 -166t-218.5 -68q-141 0 -219 68t-78 166zM557 483h369l-178 428h-13zM635 1651q0 -41 30.5 -65.5t75.5 -24.5t76 24.5 t31 65.5q0 45 -31 75.5t-76 30.5t-75.5 -30.5t-30.5 -75.5z" />
<glyph unicode="&#xc6;" horiz-adv-x="2080" d="M-117 0l865 1337h1255v-301h-784v-211h471v-288h-471v-236h829v-301h-1188v205h-467l-131 -205h-379zM573 483h287v428h-12z" />
<glyph unicode="&#xc7;" horiz-adv-x="1476" d="M43 670q0 293 208 500.5t527 207.5q180 0 357.5 -62.5t310.5 -166.5l-215 -234q-92 76 -204 119t-204 43q-182 0 -294.5 -118.5t-112.5 -290.5t115.5 -291t302.5 -119q219 0 436 203l217 -230q-256 -225 -582 -264q59 -29 90 -63q53 -53 54 -135q0 -104 -102.5 -169 t-266.5 -65q-100 0 -274 41l47 174q158 -23 196 -22q109 0 109 59q0 29 -32 49.5t-61.5 25.5t-50.5 5h-6v51l29 53q-268 47 -431 242t-163 457z" />
<glyph unicode="&#xc8;" horiz-adv-x="1343" d="M123 0v1337h1143v-301h-785v-211h471v-288h-471v-236h830v-301h-1188zM369 1778h307l205 -299h-287z" />
<glyph unicode="&#xc9;" horiz-adv-x="1343" d="M123 0v1337h1143v-301h-785v-211h471v-288h-471v-236h830v-301h-1188zM508 1479l205 299h307l-225 -299h-287z" />
<glyph unicode="&#xca;" horiz-adv-x="1343" d="M123 0v1337h1143v-301h-785v-211h471v-288h-471v-236h830v-301h-1188zM319 1479l224 299h303l223 -299h-262l-113 153l-112 -153h-263z" />
<glyph unicode="&#xcb;" horiz-adv-x="1343" d="M123 0v1337h1143v-301h-785v-211h471v-288h-471v-236h830v-301h-1188zM317 1640.5q0 65.5 49.5 111.5t123 46t125 -46t51.5 -112q0 -63 -51.5 -108t-125 -45t-123 44t-49.5 109.5zM721 1640.5q0 65.5 49 111.5t123 46t125 -46t51 -112q0 -63 -51 -108t-125 -45t-123 44 t-49 109.5z" />
<glyph unicode="&#xcc;" horiz-adv-x="604" d="M-23 1778h308l204 -299h-286zM123 0v1337h358v-1337h-358z" />
<glyph unicode="&#xcd;" horiz-adv-x="604" d="M117 1479l205 299h307l-226 -299h-286zM123 0v1337h358v-1337h-358z" />
<glyph unicode="&#xce;" horiz-adv-x="604" d="M-72 1479l224 299h303l223 -299h-262l-113 153l-113 -153h-262zM123 0v1337h358v-1337h-358z" />
<glyph unicode="&#xcf;" horiz-adv-x="604" d="M-74 1640.5q0 65.5 49.5 111.5t123 46t124.5 -46t51 -112q0 -63 -51 -108t-124.5 -45t-123 44t-49.5 109.5zM123 0v1337h358v-1337h-358zM330 1640.5q0 65.5 49 111.5t122.5 46t125 -46t51.5 -112q0 -63 -51.5 -108t-125 -45t-122.5 44t-49 109.5z" />
<glyph unicode="&#xd0;" horiz-adv-x="1593" d="M2 557v240h188v540h617q369 0 559 -200q178 -188 178 -467q0 -295 -188 -480q-195 -190 -549 -190h-617v557h-188zM549 301h250q174 0 266 88q109 104 109 277q0 166 -99 270q-94 100 -276 100h-250v-239h321v-240h-321v-256z" />
<glyph unicode="&#xd1;" horiz-adv-x="1501" d="M123 0v1337h301l592 -729h2v729h360v-1337h-303l-590 727h-2v-727h-360zM330 1563q68 121 135 172t151 51q78 0 152 -49q78 -49 100 -49q25 0 48.5 17t36 32.5t34.5 46.5l174 -94q-121 -227 -284 -228q-66 0 -140 45q-8 4 -23.5 15.5t-22.5 15.5t-19.5 10t-22.5 9.5 t-20 3.5q-14 0 -26.5 -5.5t-25 -18.5t-19.5 -22.5t-20.5 -29t-17.5 -25.5z" />
<glyph unicode="&#xd2;" horiz-adv-x="1607" d="M41 672q0 293 221 499.5t539 206.5q319 0 543.5 -206.5t224.5 -499.5q0 -297 -224.5 -505t-544 -208t-539.5 208t-220 505zM412 672q0 -170 112.5 -292t276.5 -122q166 0 280.5 122t114.5 292q0 166 -114.5 285.5t-280.5 119.5q-164 0 -276.5 -118.5t-112.5 -286.5z M477 1778h307l205 -299h-287z" />
<glyph unicode="&#xd3;" horiz-adv-x="1607" d="M41 672q0 293 221 499.5t539 206.5q319 0 543.5 -206.5t224.5 -499.5q0 -297 -224.5 -505t-544 -208t-539.5 208t-220 505zM412 672q0 -170 112.5 -292t276.5 -122q166 0 280.5 122t114.5 292q0 166 -114.5 285.5t-280.5 119.5q-164 0 -276.5 -118.5t-112.5 -286.5z M616 1479l205 299h307l-225 -299h-287z" />
<glyph unicode="&#xd4;" horiz-adv-x="1607" d="M41 672q0 293 221 499.5t539 206.5q319 0 543.5 -206.5t224.5 -499.5q0 -297 -224.5 -505t-544 -208t-539.5 208t-220 505zM412 672q0 -170 112.5 -292t276.5 -122q166 0 280.5 122t114.5 292q0 166 -114.5 285.5t-280.5 119.5q-164 0 -276.5 -118.5t-112.5 -286.5z M428 1479l223 299h303l224 -299h-263l-112 153l-113 -153h-262z" />
<glyph unicode="&#xd5;" horiz-adv-x="1607" d="M41 672q0 293 221 499.5t539 206.5q319 0 543.5 -206.5t224.5 -499.5q0 -297 -224.5 -505t-544 -208t-539.5 208t-220 505zM383 1563q68 121 135.5 172t151.5 51q78 0 151 -49q78 -49 101 -49q25 0 48 17t35.5 32.5t34.5 46.5l174 -94q-121 -227 -284 -228q-66 0 -139 45 q-8 4 -23.5 15.5t-23 15.5t-19.5 10t-22.5 9.5t-20.5 3.5q-14 0 -26.5 -5.5t-25 -18.5t-19.5 -22.5t-20 -29t-18 -25.5zM412 672q0 -170 112.5 -292t276.5 -122q166 0 280.5 122t114.5 292q0 166 -114.5 285.5t-280.5 119.5q-164 0 -276.5 -118.5t-112.5 -286.5z" />
<glyph unicode="&#xd6;" horiz-adv-x="1607" d="M41 672q0 293 221 499.5t539 206.5q319 0 543.5 -206.5t224.5 -499.5q0 -297 -224.5 -505t-544 -208t-539.5 208t-220 505zM412 672q0 -170 112.5 -292t276.5 -122q166 0 280.5 122t114.5 292q0 166 -114.5 285.5t-280.5 119.5q-164 0 -276.5 -118.5t-112.5 -286.5z M426 1640.5q0 65.5 49 111.5t123 46t125 -46t51 -112q0 -63 -51 -108t-125 -45t-123 44t-49 109.5zM829 1640.5q0 65.5 49.5 111.5t123 46t125 -46t51.5 -112q0 -63 -51.5 -108t-125 -45t-123 44t-49.5 109.5z" />
<glyph unicode="&#xd7;" d="M76 877l221 208l389 -333l389 333l215 -208l-375 -320l379 -324l-221 -206l-391 331l-389 -331l-215 204l377 322z" />
<glyph unicode="&#xd8;" horiz-adv-x="1607" d="M41 672q0 293 221 499.5t539 206.5q166 0 309 -59l109 154l198 -136l-100 -143q119 -98 185.5 -234.5t66.5 -287.5q0 -297 -224.5 -505t-543.5 -208q-166 0 -309 59l-107 -153l-199 135l101 143q-246 214 -246 529zM412 672q0 -137 73 -244l441 629q-66 20 -125 20 q-164 0 -276.5 -118.5t-112.5 -286.5zM676 279q55 -20 125 -21q166 0 280.5 122t114.5 292q0 133 -78 239z" />
<glyph unicode="&#xd9;" horiz-adv-x="1427" d="M86 487v850h360v-850q0 -109 77 -169t190 -60q121 0 195.5 60.5t74.5 168.5v850h358v-850q0 -248 -174 -388t-454 -140q-272 0 -449.5 141t-177.5 387zM387 1778h307l205 -299h-287z" />
<glyph unicode="&#xda;" horiz-adv-x="1427" d="M86 487v850h360v-850q0 -109 77 -169t190 -60q121 0 195.5 60.5t74.5 168.5v850h358v-850q0 -248 -174 -388t-454 -140q-272 0 -449.5 141t-177.5 387zM526 1479l205 299h307l-225 -299h-287z" />
<glyph unicode="&#xdb;" horiz-adv-x="1427" d="M86 487v850h360v-850q0 -109 77 -169t190 -60q121 0 195.5 60.5t74.5 168.5v850h358v-850q0 -248 -174 -388t-454 -140q-272 0 -449.5 141t-177.5 387zM338 1479l223 299h303l223 -299h-262l-112 153l-113 -153h-262z" />
<glyph unicode="&#xdc;" horiz-adv-x="1427" d="M86 487v850h360v-850q0 -109 77 -169t190 -60q121 0 195.5 60.5t74.5 168.5v850h358v-850q0 -248 -174 -388t-454 -140q-272 0 -449.5 141t-177.5 387zM336 1640.5q0 65.5 49 111.5t123 46t125 -46t51 -112q0 -63 -51 -108t-125 -45t-123 44t-49 109.5zM739 1640.5 q0 65.5 49.5 111.5t123 46t124.5 -46t51 -112q0 -63 -51 -108t-124.5 -45t-123 44t-49.5 109.5z" />
<glyph unicode="&#xdd;" horiz-adv-x="1269" d="M-61 1337h438l268 -411l264 411h420l-514 -731v-606h-360v606zM449 1479l204 299h308l-226 -299h-286z" />
<glyph unicode="&#xde;" horiz-adv-x="1443" d="M123 0v1337h358v-235h428q279 0 420 -154q111 -121 111 -280q0 -174 -131 -299q-139 -133 -400 -133h-428v-236h-358zM481 526h449q70 0 106 37q45 45 45 105q0 61 -43 104q-39 39 -108 39h-449v-285z" />
<glyph unicode="&#xdf;" horiz-adv-x="1191" d="M70 0v979q0 242 143 360.5t346 118.5q223 0 356.5 -96t133.5 -258q0 -104 -68 -178t-143 -99q109 -31 216 -151.5t107 -286.5q0 -184 -152.5 -296.5t-441.5 -112.5l-20 245q135 0 208.5 51.5t73.5 135.5q0 96 -99 159.5t-189 73.5l20 244q74 14 115 63t41 113 q0 70 -44 106.5t-112 36.5q-66 0 -113 -57t-47 -176v-975h-331z" />
<glyph unicode="&#xe0;" horiz-adv-x="1107" d="M20 313q0 150 115 247t305 97q158 0 265 -86v91q0 63 -47.5 97t-127.5 34q-139 0 -335 -66l-93 229q217 86 463 86q201 0 337 -75.5t136 -237.5v-516q0 -96 31 -213h-328q-10 41 -22 106q-66 -68 -127.5 -100.5t-167.5 -32.5q-182 0 -293 97.5t-111 242.5zM240 1434h307 l205 -299h-287zM352 311.5q0 -55.5 39 -85t107 -29.5q121 0 207 82v92q-66 70 -189 69q-82 0 -123 -36.5t-41 -92z" />
<glyph unicode="&#xe1;" horiz-adv-x="1107" d="M20 313q0 150 115 247t305 97q158 0 265 -86v91q0 63 -47.5 97t-127.5 34q-139 0 -335 -66l-93 229q217 86 463 86q201 0 337 -75.5t136 -237.5v-516q0 -96 31 -213h-328q-10 41 -22 106q-66 -68 -127.5 -100.5t-167.5 -32.5q-182 0 -293 97.5t-111 242.5zM352 311.5 q0 -55.5 39 -85t107 -29.5q121 0 207 82v92q-66 70 -189 69q-82 0 -123 -36.5t-41 -92zM379 1135l205 299h307l-225 -299h-287z" />
<glyph unicode="&#xe2;" horiz-adv-x="1107" d="M20 313q0 150 115 247t305 97q158 0 265 -86v91q0 63 -47.5 97t-127.5 34q-139 0 -335 -66l-93 229q217 86 463 86q201 0 337 -75.5t136 -237.5v-516q0 -96 31 -213h-328q-10 41 -22 106q-66 -68 -127.5 -100.5t-167.5 -32.5q-182 0 -293 97.5t-111 242.5zM190 1135 l224 299h303l223 -299h-262l-113 153l-112 -153h-263zM352 311.5q0 -55.5 39 -85t107 -29.5q121 0 207 82v92q-66 70 -189 69q-82 0 -123 -36.5t-41 -92z" />
<glyph unicode="&#xe3;" horiz-adv-x="1107" d="M20 313q0 150 115 247t305 97q158 0 265 -86v91q0 63 -47.5 97t-127.5 34q-139 0 -335 -66l-93 229q217 86 463 86q201 0 337 -75.5t136 -237.5v-516q0 -96 31 -213h-328q-10 41 -22 106q-66 -68 -127.5 -100.5t-167.5 -32.5q-182 0 -293 97.5t-111 242.5zM145 1217 q68 121 135.5 172t151.5 51q78 0 152 -49q78 -49 100 -50q25 0 48.5 17.5t35.5 33t35 46.5l174 -95q-121 -227 -285 -227q-66 0 -139 45q-8 4 -23.5 15.5t-22.5 15.5t-19.5 10t-22.5 9t-21 3q-14 0 -26 -5t-24.5 -18t-19.5 -22.5t-20.5 -29t-17.5 -25.5zM352 311.5 q0 -55.5 39 -85t107 -29.5q121 0 207 82v92q-66 70 -189 69q-82 0 -123 -36.5t-41 -92z" />
<glyph unicode="&#xe4;" horiz-adv-x="1107" d="M20 313q0 150 115 247t305 97q158 0 265 -86v91q0 63 -47.5 97t-127.5 34q-139 0 -335 -66l-93 229q217 86 463 86q201 0 337 -75.5t136 -237.5v-516q0 -96 31 -213h-328q-10 41 -22 106q-66 -68 -127.5 -100.5t-167.5 -32.5q-182 0 -293 97.5t-111 242.5zM188 1296.5 q0 65.5 49.5 111.5t123 46t125 -46t51.5 -112q0 -63 -51.5 -108t-125 -45t-123 44t-49.5 109.5zM352 311.5q0 -55.5 39 -85t107 -29.5q121 0 207 82v92q-66 70 -189 69q-82 0 -123 -36.5t-41 -92zM592 1296.5q0 65.5 49 111.5t123 46t125 -46t51 -112q0 -63 -51 -108 t-125 -45t-123 44t-49 109.5z" />
<glyph unicode="&#xe5;" horiz-adv-x="1107" d="M20 313q0 150 115 247t305 97q158 0 265 -86v91q0 63 -47.5 97t-127.5 34q-139 0 -335 -66l-93 229q217 86 463 86q201 0 337 -75.5t136 -237.5v-516q0 -96 31 -213h-328q-10 41 -22 106q-66 -68 -127.5 -100.5t-167.5 -32.5q-182 0 -293 97.5t-111 242.5zM262 1346 q0 100 78 171.5t219 71.5q139 0 218 -71.5t79 -171.5q0 -98 -79 -166t-218 -68q-141 0 -219 68t-78 166zM352 311.5q0 -55.5 39 -85t107 -29.5q121 0 207 82v92q-66 70 -189 69q-82 0 -123 -36.5t-41 -92zM453 1346q0 -41 30.5 -66t75.5 -25t76 25t31 66q0 45 -31 75.5 t-76 30.5t-75.5 -30.5t-30.5 -75.5z" />
<glyph unicode="&#xe6;" horiz-adv-x="1781" d="M20 313q0 150 115 247t305 97q158 0 265 -86v91q0 63 -47.5 97t-127.5 34q-139 0 -335 -66l-93 229q217 86 463 86q207 0 332 -104l14 -12q150 117 338 116q133 0 243 -50t185.5 -170t75.5 -296q0 -35 -6 -108h-721q25 -90 96.5 -142.5t175.5 -52.5q143 0 291 70 l117 -211q-86 -49 -212 -81t-243 -32q-264 0 -413 164q-188 -160 -414 -160q-182 0 -293 97.5t-111 242.5zM352 311.5q0 -55.5 39 -85t107 -29.5q158 0 233 116q-6 16 -14 54q-80 74 -201 73q-82 0 -123 -36.5t-41 -92zM1028 614h406q0 86 -56.5 137.5t-122.5 51.5 q-180 -1 -227 -189z" />
<glyph unicode="&#xe7;" horiz-adv-x="1050" d="M33 510q0 240 156.5 386t388.5 146q260 0 469 -176l-197 -219q-127 119 -232 119q-100 0 -166.5 -68.5t-66.5 -187.5q0 -113 71.5 -189.5t172 -76.5t241.5 133l195 -201q-51 -57 -153.5 -119.5t-237.5 -81.5q76 -35 110 -71q53 -53 54 -135q0 -104 -102.5 -169 t-266.5 -65q-100 0 -274 41l47 174q158 -23 196 -22q109 0 109 59q0 29 -32 49.5t-61.5 25.5t-50.5 5h-6v51l39 72q-178 45 -290.5 185t-112.5 335z" />
<glyph unicode="&#xe8;" horiz-adv-x="1112" d="M33 498q0 231 155.5 387.5t391.5 156.5q133 0 242.5 -50t185 -170t75.5 -296q0 -35 -6 -108h-721q25 -90 96.5 -142.5t176.5 -52.5q143 0 291 70l116 -211q-86 -49 -212 -81t-242 -32q-258 0 -403.5 153t-145.5 376zM258 1434h307l205 -299h-287zM358 614h406 q0 86 -56.5 137.5t-121.5 51.5q-181 -1 -228 -189z" />
<glyph unicode="&#xe9;" horiz-adv-x="1112" d="M33 498q0 231 155.5 387.5t391.5 156.5q133 0 242.5 -50t185 -170t75.5 -296q0 -35 -6 -108h-721q25 -90 96.5 -142.5t176.5 -52.5q143 0 291 70l116 -211q-86 -49 -212 -81t-242 -32q-258 0 -403.5 153t-145.5 376zM358 614h406q0 86 -56.5 137.5t-121.5 51.5 q-181 -1 -228 -189zM397 1135l205 299h307l-225 -299h-287z" />
<glyph unicode="&#xea;" horiz-adv-x="1112" d="M33 498q0 231 155.5 387.5t391.5 156.5q133 0 242.5 -50t185 -170t75.5 -296q0 -35 -6 -108h-721q25 -90 96.5 -142.5t176.5 -52.5q143 0 291 70l116 -211q-86 -49 -212 -81t-242 -32q-258 0 -403.5 153t-145.5 376zM209 1135l223 299h303l223 -299h-262l-112 153 l-113 -153h-262zM358 614h406q0 86 -56.5 137.5t-121.5 51.5q-181 -1 -228 -189z" />
<glyph unicode="&#xeb;" horiz-adv-x="1112" d="M33 498q0 231 155.5 387.5t391.5 156.5q133 0 242.5 -50t185 -170t75.5 -296q0 -35 -6 -108h-721q25 -90 96.5 -142.5t176.5 -52.5q143 0 291 70l116 -211q-86 -49 -212 -81t-242 -32q-258 0 -403.5 153t-145.5 376zM207 1296.5q0 65.5 49 111.5t123 46t125 -46t51 -112 q0 -63 -51 -108t-125 -45t-123 44t-49 109.5zM358 614h406q0 86 -56.5 137.5t-121.5 51.5q-181 -1 -228 -189zM610 1296.5q0 65.5 49.5 111.5t123 46t124.5 -46t51 -112q0 -63 -51 -108t-124.5 -45t-123 44t-49.5 109.5z" />
<glyph unicode="&#xec;" horiz-adv-x="487" d="M-82 1434h307l205 -299h-287zM76 0v1010h336v-1010h-336z" />
<glyph unicode="&#xed;" horiz-adv-x="487" d="M57 1135l205 299h307l-225 -299h-287zM76 0v1010h336v-1010h-336z" />
<glyph unicode="&#xee;" horiz-adv-x="487" d="M-131 1135l223 299h303l223 -299h-262l-112 153l-113 -153h-262zM76 0v1010h336v-1010h-336z" />
<glyph unicode="&#xef;" horiz-adv-x="487" d="M-133 1296.5q0 65.5 49 111.5t123 46t125 -46t51 -112q0 -63 -51 -108t-125 -45t-123 44t-49 109.5zM76 0v1010h336v-1010h-336zM270 1296.5q0 65.5 49.5 111.5t123 46t124.5 -46t51 -112q0 -63 -51 -108t-124.5 -45t-123 44t-49.5 109.5z" />
<glyph unicode="&#xf0;" horiz-adv-x="1202" d="M35 510q0 211 140 351t362 140q133 0 235 -67q-78 115 -207 219l-332 -84l-49 141l226 58l-172 104l319 103q166 -106 188 -123l261 65l49 -141l-168 -43q276 -266 276 -658q0 -262 -157.5 -434t-407.5 -172q-248 0 -405.5 157t-157.5 384zM377 510q0 -111 60.5 -188.5 t160.5 -77.5q102 0 163.5 78.5t61.5 187.5q0 113 -60.5 184.5t-164.5 71.5q-102 0 -161.5 -71.5t-59.5 -184.5z" />
<glyph unicode="&#xf1;" horiz-adv-x="1134" d="M47 1010h307q0 -2 8.5 -48.5t10.5 -66.5q133 147 344 147q145 0 247.5 -105.5t102.5 -262.5v-674h-336v653q0 49 -36 81t-93 32q-88 0 -188 -100v-666h-334v715q0 125 -33 295zM145 1217q68 121 135.5 172t151.5 51q78 0 152 -49q78 -49 100 -50q25 0 48.5 17.5t35.5 33 t35 46.5l174 -95q-121 -227 -285 -227q-66 0 -139 45q-8 4 -23.5 15.5t-22.5 15.5t-19.5 10t-22.5 9t-21 3q-14 0 -26 -5t-24.5 -18t-19.5 -22.5t-20.5 -29t-17.5 -25.5z" />
<glyph unicode="&#xf2;" horiz-adv-x="1193" d="M33 510q0 229 156.5 380.5t406.5 151.5t407.5 -151.5t157.5 -380.5q0 -227 -158.5 -384t-406.5 -157t-405.5 157t-157.5 384zM270 1434h308l204 -299h-286zM375 510q0 -111 60.5 -188.5t160.5 -77.5q102 0 163.5 78.5t61.5 187.5q0 113 -60.5 184.5t-164.5 71.5 q-102 0 -161.5 -71.5t-59.5 -184.5z" />
<glyph unicode="&#xf3;" horiz-adv-x="1193" d="M33 510q0 229 156.5 380.5t406.5 151.5t407.5 -151.5t157.5 -380.5q0 -227 -158.5 -384t-406.5 -157t-405.5 157t-157.5 384zM375 510q0 -111 60.5 -188.5t160.5 -77.5q102 0 163.5 78.5t61.5 187.5q0 113 -60.5 184.5t-164.5 71.5q-102 0 -161.5 -71.5t-59.5 -184.5z M410 1135l204 299h308l-226 -299h-286z" />
<glyph unicode="&#xf4;" horiz-adv-x="1193" d="M33 510q0 229 156.5 380.5t406.5 151.5t407.5 -151.5t157.5 -380.5q0 -227 -158.5 -384t-406.5 -157t-405.5 157t-157.5 384zM221 1135l223 299h304l223 -299h-262l-113 153l-113 -153h-262zM375 510q0 -111 60.5 -188.5t160.5 -77.5q102 0 163.5 78.5t61.5 187.5 q0 113 -60.5 184.5t-164.5 71.5q-102 0 -161.5 -71.5t-59.5 -184.5z" />
<glyph unicode="&#xf5;" horiz-adv-x="1193" d="M33 510q0 229 156.5 380.5t406.5 151.5t407.5 -151.5t157.5 -380.5q0 -227 -158.5 -384t-406.5 -157t-405.5 157t-157.5 384zM176 1217q68 121 135.5 172t151.5 51q78 0 151 -49q78 -49 101 -50q25 0 48 17.5t35.5 33t35.5 46.5l174 -95q-121 -227 -285 -227 q-66 0 -139 45q-8 4 -23.5 15.5t-23 15.5t-19.5 10t-22.5 9t-20.5 3q-14 0 -26.5 -5t-24.5 -18t-19.5 -22.5t-20.5 -29l-17 -25.5zM375 510q0 -111 60.5 -188.5t160.5 -77.5q102 0 163.5 78.5t61.5 187.5q0 113 -60.5 184.5t-164.5 71.5q-102 0 -161.5 -71.5t-59.5 -184.5z " />
<glyph unicode="&#xf6;" horiz-adv-x="1193" d="M33 510q0 229 156.5 380.5t406.5 151.5t407.5 -151.5t157.5 -380.5q0 -227 -158.5 -384t-406.5 -157t-405.5 157t-157.5 384zM219 1296.5q0 65.5 49 111.5t123 46t125 -46t51 -112q0 -63 -51 -108t-125 -45t-123 44t-49 109.5zM375 510q0 -111 60.5 -188.5t160.5 -77.5 q102 0 163.5 78.5t61.5 187.5q0 113 -60.5 184.5t-164.5 71.5q-102 0 -161.5 -71.5t-59.5 -184.5zM623 1296.5q0 65.5 49 111.5t122.5 46t125 -46t51.5 -112q0 -63 -51.5 -108t-125 -45t-122.5 44t-49 109.5z" />
<glyph unicode="&#xf7;" d="M84 418v276h1200v-276h-1200zM477 154q0 74 60.5 126t148.5 52t148.5 -52.5t60.5 -125.5q0 -76 -59.5 -127.5t-149.5 -51.5t-149.5 51.5t-59.5 127.5zM477 954.5q0 75.5 60.5 127t148.5 51.5t148.5 -51.5t60.5 -127t-60.5 -127t-148.5 -51.5t-148.5 51.5t-60.5 127z" />
<glyph unicode="&#xf8;" horiz-adv-x="1193" d="M35 510q0 229 156.5 380.5t406.5 151.5q115 0 215 -34l92 131l178 -125l-84 -119q164 -154 164 -385q0 -227 -158.5 -384t-406.5 -157q-115 0 -219 39l-92 -133l-178 125l86 123q-160 156 -160 387zM354 510q0 -66 23 -127l280 401q-37 8 -59 9q-113 0 -178.5 -80 t-65.5 -203zM532 225q27 -8 66 -8q113 0 180.5 86t67.5 207q0 72 -25 129z" />
<glyph unicode="&#xf9;" horiz-adv-x="1134" d="M68 336v674h335v-654q0 -49 36 -80.5t93 -31.5q88 0 189 100v666h334v-715q0 -125 32 -295h-315l-10 115q-133 -147 -344 -148q-145 0 -247.5 105.5t-102.5 263.5zM242 1434h307l205 -299h-287z" />
<glyph unicode="&#xfa;" horiz-adv-x="1134" d="M68 336v674h335v-654q0 -49 36 -80.5t93 -31.5q88 0 189 100v666h334v-715q0 -125 32 -295h-315l-10 115q-133 -147 -344 -148q-145 0 -247.5 105.5t-102.5 263.5zM381 1135l205 299h307l-225 -299h-287z" />
<glyph unicode="&#xfb;" horiz-adv-x="1134" d="M68 336v674h335v-654q0 -49 36 -80.5t93 -31.5q88 0 189 100v666h334v-715q0 -125 32 -295h-315l-10 115q-133 -147 -344 -148q-145 0 -247.5 105.5t-102.5 263.5zM193 1135l223 299h303l223 -299h-262l-113 153l-112 -153h-262z" />
<glyph unicode="&#xfc;" horiz-adv-x="1134" d="M68 336v674h335v-654q0 -49 36 -80.5t93 -31.5q88 0 189 100v666h334v-715q0 -125 32 -295h-315l-10 115q-133 -147 -344 -148q-145 0 -247.5 105.5t-102.5 263.5zM190 1296.5q0 65.5 49.5 111.5t123 46t125 -46t51.5 -112q0 -63 -51.5 -108t-125 -45t-123 44 t-49.5 109.5zM594 1296.5q0 65.5 49 111.5t123 46t125 -46t51 -112q0 -63 -51 -108t-125 -45t-123 44t-49 109.5z" />
<glyph unicode="&#xfd;" horiz-adv-x="1044" d="M-31 1010h371l201 -504h12l219 504h346l-672 -1434h-350l269 541zM354 1135l205 299h307l-225 -299h-287z" />
<glyph unicode="&#xfe;" horiz-adv-x="1198" d="M76 -424v1858h336v-500q127 109 260 108q207 0 347 -146t140 -388q0 -233 -142.5 -384t-344.5 -151q-150 0 -262 107v-504h-334zM412 328q102 -80 200 -80q80 0 135.5 74.5t55.5 185.5q0 119 -55.5 188.5t-135.5 69.5q-104 0 -200 -86v-352z" />
<glyph unicode="&#xff;" horiz-adv-x="1044" d="M-31 1010h371l201 -504h12l219 504h346l-672 -1434h-350l269 541zM164 1296.5q0 65.5 49 111.5t123 46t125 -46t51 -112q0 -63 -51 -108t-125 -45t-123 44t-49 109.5zM567 1296.5q0 65.5 49.5 111.5t123 46t124.5 -46t51 -112q0 -63 -51 -108t-124.5 -45t-123 44 t-49.5 109.5z" />
<glyph unicode="&#x152;" horiz-adv-x="2420" d="M41 672q0 293 221 499.5t539 206.5q213 0 399 -157v116h1143v-301h-784v-211h471v-288h-471v-236h829v-301h-1188v117q-186 -158 -399 -158q-319 0 -539.5 208t-220.5 505zM412 672q0 -170 112.5 -292t276.5 -122q174 0 295 122t121 292q0 168 -121 286.5t-295 118.5 q-164 0 -276.5 -118.5t-112.5 -286.5z" />
<glyph unicode="&#x153;" horiz-adv-x="1900" d="M33 510q0 229 156.5 380.5t406.5 151.5q238 0 395 -161q156 162 377 161q133 0 242.5 -50t185.5 -170t76 -296q0 -35 -6 -108h-721q25 -90 96.5 -142.5t175.5 -52.5q143 0 291 70l117 -211q-86 -49 -212 -81t-243 -32q-236 0 -387 158q-158 -158 -387 -158 q-248 0 -405.5 157t-157.5 384zM375 510q0 -111 60.5 -188.5t160.5 -77.5q102 0 163.5 78.5t61.5 187.5q0 113 -60.5 184.5t-164.5 71.5q-102 0 -161.5 -71.5t-59.5 -184.5zM1147 614h405q0 86 -56 137.5t-122 51.5q-180 -1 -227 -189z" />
<glyph unicode="&#x178;" horiz-adv-x="1269" d="M-61 1337h438l268 -411l264 411h420l-514 -731v-606h-360v606zM258 1640.5q0 65.5 49 111.5t123 46t125 -46t51 -112q0 -63 -51 -108t-125 -45t-123 44t-49 109.5zM662 1640.5q0 65.5 49 111.5t122.5 46t125 -46t51.5 -112q0 -63 -51.5 -108t-125 -45t-122.5 44 t-49 109.5z" />
<glyph unicode="&#x2c6;" horiz-adv-x="925" d="M88 1135l223 299h303l224 -299h-263l-112 153l-113 -153h-262z" />
<glyph unicode="&#x2dc;" horiz-adv-x="925" d="M43 1217q68 121 135.5 172t151.5 51q78 0 151 -49q78 -49 101 -50q25 0 48 17.5t35.5 33t34.5 46.5l174 -95q-121 -227 -284 -227q-66 0 -139 45q-8 4 -23.5 15.5t-23 15.5t-19.5 10t-22.5 9t-20.5 3q-14 0 -26.5 -5t-24.5 -18t-19.5 -22.5t-20.5 -29t-18 -25.5z" />
<glyph unicode="&#x2000;" horiz-adv-x="946" />
<glyph unicode="&#x2001;" horiz-adv-x="1894" />
<glyph unicode="&#x2002;" horiz-adv-x="946" />
<glyph unicode="&#x2003;" horiz-adv-x="1894" />
<glyph unicode="&#x2004;" horiz-adv-x="630" />
<glyph unicode="&#x2005;" horiz-adv-x="473" />
<glyph unicode="&#x2006;" horiz-adv-x="315" />
<glyph unicode="&#x2007;" horiz-adv-x="315" />
<glyph unicode="&#x2008;" horiz-adv-x="235" />
<glyph unicode="&#x2009;" horiz-adv-x="378" />
<glyph unicode="&#x200a;" horiz-adv-x="104" />
<glyph unicode="&#x2010;" horiz-adv-x="772" d="M78 395v297h616v-297h-616z" />
<glyph unicode="&#x2011;" horiz-adv-x="772" d="M78 395v297h616v-297h-616z" />
<glyph unicode="&#x2012;" horiz-adv-x="772" d="M78 395v297h616v-297h-616z" />
<glyph unicode="&#x2013;" horiz-adv-x="1204" d="M78 414v278h1048v-278h-1048z" />
<glyph unicode="&#x2014;" horiz-adv-x="2082" d="M78 414v278h1927v-278h-1927z" />
<glyph unicode="&#x2018;" horiz-adv-x="548" d="M43 967q0 88 37 163.5t98.5 127t125 85t132.5 56.5l64 -156q-78 -18 -154 -70.5t-76 -109.5v-16q41 10 62 10q66 0 111.5 -46t45.5 -114q0 -78 -63.5 -131t-151.5 -53q-98 0 -164.5 70.5t-66.5 183.5z" />
<glyph unicode="&#x2019;" horiz-adv-x="540" d="M55 848q78 18 154 70.5t76 109.5v16q-41 -10 -62 -10q-66 0 -111.5 46t-45.5 114q0 78 63.5 131t151.5 53q98 0 164.5 -70.5t66.5 -183.5q0 -88 -37 -163.5t-98.5 -127t-125 -85t-132.5 -56.5z" />
<glyph unicode="&#x201a;" horiz-adv-x="565" d="M49 -186q78 18 154 70.5t76 109.5v16q-41 -10 -62 -10q-66 0 -112 46t-46 114q0 78 63.5 131t151.5 53q98 0 165 -70.5t67 -183.5q0 -88 -37 -164t-98.5 -127t-125 -84.5t-132.5 -56.5z" />
<glyph unicode="&#x201c;" horiz-adv-x="1120" d="M43 967q0 88 37 163.5t98.5 127t125 85t132.5 56.5l64 -156q-78 -18 -154 -70.5t-76 -109.5v-16q41 10 62 10q66 0 111.5 -46t45.5 -114q0 -78 -63.5 -131t-151.5 -53q-98 0 -164.5 70.5t-66.5 183.5zM614 967q0 88 37 163.5t98.5 127t125 85t133.5 56.5l63 -156 q-78 -18 -153.5 -70.5t-75.5 -109.5v-16q41 10 61 10q66 0 112 -46t46 -114q0 -78 -63.5 -131t-151.5 -53q-98 0 -165 70.5t-67 183.5z" />
<glyph unicode="&#x201d;" horiz-adv-x="1114" d="M55 848q78 18 154 70.5t76 109.5v16q-41 -10 -62 -10q-66 0 -111.5 46t-45.5 114q0 78 63.5 131t151.5 53q98 0 164.5 -70.5t66.5 -183.5q0 -88 -37 -163.5t-98.5 -127t-125 -85t-132.5 -56.5zM627 848q78 18 153.5 70.5t75.5 109.5v16q-41 -10 -61 -10q-66 0 -112 46 t-46 114q0 78 63.5 131t151.5 53q98 0 164.5 -70.5t66.5 -183.5q0 -88 -36.5 -163.5t-98 -127t-125 -85t-133.5 -56.5z" />
<glyph unicode="&#x201e;" horiz-adv-x="1136" d="M49 -186q78 18 154 70.5t76 109.5v16q-41 -10 -62 -10q-66 0 -112 46t-46 114q0 78 63.5 131t151.5 53q98 0 165 -70.5t67 -183.5q0 -88 -37 -164t-98.5 -127t-125 -84.5t-132.5 -56.5zM621 -186q78 18 153.5 70.5t75.5 109.5v16q-41 -10 -62 -10q-66 0 -111.5 46 t-45.5 114q0 78 63.5 131t151.5 53q98 0 164.5 -70.5t66.5 -183.5q0 -88 -36.5 -164t-98 -127t-125 -84.5t-133.5 -56.5z" />
<glyph unicode="&#x2022;" horiz-adv-x="880" d="M68 594q0 145 109.5 246.5t263 101.5t262 -101.5t108.5 -246.5t-108.5 -246.5t-262 -101.5t-263 101.5t-109.5 246.5z" />
<glyph unicode="&#x2026;" horiz-adv-x="1959" d="M133 166q0 82 63.5 140.5t153.5 58.5q92 0 155.5 -59.5t63.5 -139.5q0 -82 -63.5 -139.5t-155.5 -57.5t-154.5 56.5t-62.5 140.5zM762 166q0 82 63.5 140.5t153.5 58.5q92 0 155.5 -59.5t63.5 -139.5q0 -82 -63.5 -139.5t-155.5 -57.5t-154.5 56.5t-62.5 140.5zM1391 166 q0 82 63.5 140.5t153.5 58.5q92 0 155.5 -59.5t63.5 -139.5q0 -82 -63.5 -139.5t-155.5 -57.5t-154.5 56.5t-62.5 140.5z" />
<glyph unicode="&#x202f;" horiz-adv-x="378" />
<glyph unicode="&#x2039;" horiz-adv-x="686" d="M41 465v125l213 264h358l-266 -319v-17l266 -315h-358z" />
<glyph unicode="&#x203a;" horiz-adv-x="686" d="M74 203l266 315v17l-266 319h358l213 -264v-125l-213 -262h-358z" />
<glyph unicode="&#x205f;" horiz-adv-x="473" />
<glyph unicode="&#x20ac;" horiz-adv-x="1552" d="M59 432v172h177q-2 20 -3 66q0 27 5 75h-179v173h215q74 205 253.5 332.5t418.5 127.5q139 0 282.5 -47t241.5 -125l-167 -221q-147 106 -314 107q-213 0 -325 -174h419v-173h-483q-6 -41 -6 -77q0 -43 4 -64h485v-172h-426q53 -88 141.5 -138t200.5 -50q86 0 178.5 41 t161.5 104l170 -219q-240 -211 -553 -211q-252 0 -433 130t-253 343h-211z" />
<glyph unicode="&#x2122;" horiz-adv-x="1640" d="M51 1174v163h631v-163h-213v-506h-203v506h-215zM801 668v669h196l174 -307h3l176 307h188v-669h-203v307h-6l-155 -268h-19l-158 268h-6v-307h-190z" />
<glyph unicode="&#xe000;" horiz-adv-x="1010" d="M0 1010h1010v-1010h-1010v1010z" />
<glyph unicode="&#xfb01;" horiz-adv-x="1232" d="M18 772v238h162v137q0 162 105.5 235.5t255.5 73.5q145 0 207 -20l-21 -244q-82 10 -139 10q-33 0 -52.5 -15.5t-19.5 -39.5v-137h232v-238h-232v-772h-336v772h-162zM797 1296.5q0 71.5 55 122.5t135 51t137.5 -51t57.5 -122.5t-56.5 -121t-138.5 -49.5q-80 0 -135 49.5 t-55 121zM821 0v1010h336v-1010h-336z" />
<glyph unicode="&#xfb02;" horiz-adv-x="1232" d="M18 772v238h162v137q0 162 105.5 235.5t255.5 73.5q145 0 207 -20l-21 -244q-82 10 -139 10q-33 0 -52.5 -15.5t-19.5 -39.5v-137h232v-238h-232v-772h-336v772h-162zM821 0v1434h336v-1434h-336z" />
<glyph unicode="&#xfb03;" horiz-adv-x="1878" d="M18 772v238h162v137q0 162 105.5 235.5t255.5 73.5q145 0 207 -20l-21 -244q-82 10 -139 10q-33 0 -52.5 -15.5t-19.5 -39.5v-137h309v137q0 162 105.5 235.5t255.5 73.5q145 0 207 -20l-21 -244q-78 10 -139 10q-33 0 -52.5 -15.5t-19.5 -39.5v-137h232v-238h-232v-772 h-336v772h-309v-772h-336v772h-162zM1442 1296.5q0 71.5 55 122.5t135 51t137.5 -51t57.5 -122.5t-56.5 -121t-138.5 -49.5q-80 0 -135 49.5t-55 121zM1466 0v1010h336v-1010h-336z" />
<glyph unicode="&#xfb04;" horiz-adv-x="1878" d="M18 772v238h162v137q0 162 105.5 235.5t255.5 73.5q145 0 207 -20l-21 -244q-82 10 -139 10q-33 0 -52.5 -15.5t-19.5 -39.5v-137h309v137q0 162 105.5 235.5t255.5 73.5q145 0 207 -20l-21 -244q-78 10 -139 10q-33 0 -52.5 -15.5t-19.5 -39.5v-137h232v-238h-232v-772 h-336v772h-309v-772h-336v772h-162zM1466 0v1434h336v-1434h-336z" />
</font>
</defs>
</svg>
