<?xml version="1.0" standalone="no"?>
<!DOCTYPE svg PUBLIC "-//W3C//DTD SVG 1.1//EN" "http://www.w3.org/Graphics/SVG/1.1/DTD/svg11.dtd" >
<svg xmlns="http://www.w3.org/2000/svg">
<metadata>
This is a custom SVG webfont generated by Font Squirrel.
Copyright   : Copyright C 2011 Markanna Studios IncwwwSweetFontscom
Designer    : Mark van Bronkhorst
Foundry     : Mark van Bronkhorst Sweet Collection MVB Fonts
Foundry URL : wwwmvbfontscom
</metadata>
<defs>
<font id="SweetSansProBold" horiz-adv-x="1542" >
<font-face units-per-em="2048" ascent="1577" descent="-471" />
<missing-glyph horiz-adv-x="460" />
<glyph unicode=" "  horiz-adv-x="460" />
<glyph unicode="&#x09;" horiz-adv-x="460" />
<glyph unicode="&#xa0;" horiz-adv-x="460" />
<glyph unicode="!" horiz-adv-x="661" d="M139 141.5q0 71.5 55.5 122.5t135.5 51t136 -51t56 -122.5t-56 -122t-136 -50.5q-82 0 -136.5 50.5t-54.5 122zM174 983v354h311v-354l-61 -537h-188z" />
<glyph unicode="&#x22;" horiz-adv-x="1071" d="M119 1090v247h291v-247l-54 -359h-186zM662 1090v247h290v-247l-53 -359h-186z" />
<glyph unicode="#" horiz-adv-x="1810" d="M96 190v209h424l60 326h-367v205h405l62 334h184l-61 -334h332l61 334h184l-61 -334h393v-205h-432l-59 -326h372v-209h-409l-72 -389h-184l71 389h-331l-72 -389h-184l71 389h-387zM705 399h331l60 326h-332z" />
<glyph unicode="$" horiz-adv-x="1466" d="M88 190l158 185q193 -137 366 -176l33 293q-84 8 -145.5 18t-131 34.5t-113.5 59.5t-72.5 92.5t-28.5 132.5q0 102 46 178t124.5 116t168 59.5t189.5 19.5h33l18 168h193l-25 -188q231 -39 408 -142l-158 -188q-113 76 -285 109l-26 -240q80 -6 142 -16.5t135 -36 t120 -62.5t79 -100.5t32 -145.5q0 -203 -157 -301t-409 -98h-18l-25 -225h-192l26 244q-264 44 -485 210zM432 848q0 -94 240 -115l26 248h-22q-115 0 -179.5 -35t-64.5 -98zM780 180h8q129 0 206 40t77 114q0 68 -61.5 99.5t-196.5 43.5z" />
<glyph unicode="%" horiz-adv-x="2138" d="M96 909q0 147 121 254t293 107q170 0 294 -106.5t124 -254.5q0 -150 -124 -257t-294 -107q-172 0 -293 106t-121 258zM340 909q0 -68 50 -116t120 -48q72 0 123 48.5t51 115.5q0 66 -51 113t-123 47q-70 0 -120 -47t-50 -113zM586 0l739 1239h231l-737 -1239h-233z M1214 332q0 147 121 254.5t291 107.5t295 -107.5t125 -254.5q0 -150 -124 -256.5t-296 -106.5t-292 105.5t-120 257.5zM1458 331.5q0 -65.5 49 -113.5t119 -48q72 0 124 48t52 113.5t-52 114t-124 48.5q-70 0 -119 -48.5t-49 -114z" />
<glyph unicode="&#x26;" horiz-adv-x="1607" d="M139 377q0 272 316 393q-59 88 -60 182q0 156 125 250t301 94t381 -100l-123 -219q-137 76 -260 76q-63 0 -98 -29t-35 -68q0 -20 11.5 -45.5t24.5 -47t36.5 -49.5t38 -42t38 -36.5t25.5 -24.5l250 -260q117 125 223 292l217 -106q-129 -201 -278 -352l274 -285h-362 l-113 115q-211 -145 -450 -146q-119 0 -224.5 40t-181.5 135.5t-76 232.5zM428 397q0 -98 70.5 -144t160.5 -46q115 0 246 78l-319 329q-158 -78 -158 -217z" />
<glyph unicode="'" horiz-adv-x="530" d="M119 1090v247h291v-247l-52 -359h-186z" />
<glyph unicode="(" horiz-adv-x="823" d="M76 538.5q0 280.5 149.5 514t417.5 372.5l137 -168q-188 -106 -300.5 -299.5t-112.5 -419t112.5 -415t300.5 -297.5l-137 -168q-268 139 -417.5 369.5t-149.5 511z" />
<glyph unicode=")" horiz-adv-x="823" d="M43 -174q188 109 301 298t113 414.5t-113 419t-301 299.5l137 168q268 -139 418 -372.5t150 -514t-149.5 -511t-418.5 -369.5z" />
<glyph unicode="*" horiz-adv-x="1191" d="M98 1010l58 174l327 -97l15 347h198l17 -344l325 94l58 -172l-326 -123l191 -283l-150 -112l-215 264l-213 -264l-152 112l193 283z" />
<glyph unicode="+" d="M154 426v233h462v385h269v-385h458v-233h-458v-385h-269v385h-462z" />
<glyph unicode="," horiz-adv-x="647" d="M80 -238q88 25 171 90.5t83 143.5v16q-41 -10 -60 -10q-66 0 -112.5 43t-46.5 107q0 70 55 116.5t135 46.5q96 0 166 -74.5t70 -191.5q0 -92 -36 -170t-97.5 -130t-123 -86t-130.5 -56z" />
<glyph unicode="-" horiz-adv-x="827" d="M127 406v253h571v-253h-571z" />
<glyph unicode="." horiz-adv-x="610" d="M115 141.5q0 71.5 54 122.5t134 51t136.5 -51t56.5 -122.5t-55.5 -122t-137.5 -50.5q-80 0 -134 50.5t-54 122z" />
<glyph unicode="/" horiz-adv-x="1140" d="M78 -244l704 1581h275l-703 -1581h-276z" />
<glyph unicode="0" horiz-adv-x="1476" d="M94 582q0 258 188.5 439t454.5 181q264 0 454.5 -181t190.5 -439q0 -256 -190.5 -438.5t-454.5 -182.5t-453.5 181.5t-189.5 439.5zM373 582q0 -156 106.5 -268.5t257.5 -112.5q150 0 258.5 113.5t108.5 267.5q0 156 -108.5 267.5t-258.5 111.5q-152 0 -258 -110.5 t-106 -268.5z" />
<glyph unicode="1" horiz-adv-x="835" d="M35 1008l356 155h252v-1163h-281v899l-268 -117z" />
<glyph unicode="2" horiz-adv-x="1239" d="M106 977q96 74 157 113.5t165 75.5t221 36q199 0 340 -87t141 -259q0 -55 -16 -103t-38.5 -82t-66.5 -67t-75 -51t-90.5 -42t-87 -33t-88.5 -27q-139 -45 -206 -94.5t-67 -123.5v-12h713v-221h-995v186q0 199 140 317t382 183q217 59 217 168q0 61 -57.5 89t-137.5 28 q-115 0 -203.5 -45t-193.5 -133z" />
<glyph unicode="3" horiz-adv-x="1370" d="M49 205l156 184q209 -199 459 -199q141 0 234 52.5t93 142.5q0 66 -58.5 91.5t-129.5 25.5h-234v213h187q66 0 107.5 32.5t41.5 83.5q0 70 -62.5 105t-142.5 35q-193 0 -397 -183l-158 173q279 242 560 241q113 0 216 -30.5t184 -110.5t81 -195q0 -68 -40 -126t-93 -89 q219 -78 219 -280q0 -190 -173 -301t-435 -111q-357 0 -615 246z" />
<glyph unicode="4" horiz-adv-x="1441" d="M55 242v168l846 753h252v-710h213v-211h-213v-242h-281v242h-817zM451 453h421v374h-18q-31 -27 -179.5 -163t-223.5 -203v-8z" />
<glyph unicode="5" horiz-adv-x="1347" d="M63 135l125 195q225 -139 476 -140q129 0 220 52.5t91 148.5q0 80 -68.5 122t-169.5 42q-182 0 -389 -113l-164 117v604h949v-231h-697v-273q84 57 162 87t182 30q197 0 340.5 -99t143.5 -284q0 -113 -52.5 -198.5t-139.5 -136t-190.5 -75t-217.5 -24.5q-306 0 -601 176z " />
<glyph unicode="6" horiz-adv-x="1374" d="M98 561q0 291 200 466t478 175q213 0 451 -104l-125 -195q-145 70 -322 70q-168 0 -287.5 -100.5t-130.5 -274.5q213 166 447 166q223 0 350 -111.5t127 -261.5q0 -182 -152.5 -306t-388.5 -124q-266 0 -456.5 159.5t-190.5 440.5zM385 432q39 -115 136 -178.5t222 -63.5 q113 0 189 60.5t76 140.5q0 63 -59.5 111.5t-178.5 48.5q-180 0 -385 -119z" />
<glyph unicode="7" horiz-adv-x="1247" d="M84 922v241h1081v-221l-622 -942h-353l639 922h-745z" />
<glyph unicode="8" horiz-adv-x="1390" d="M100 342q0 113 70 190.5t180 110.5q-186 63 -186 234q0 152 167 239.5t367 87.5q123 0 240 -33.5t203 -112.5t86 -188q0 -174 -187 -227q111 -33 180.5 -110.5t69.5 -190.5q0 -174 -177 -279.5t-417 -105.5q-242 0 -419 105.5t-177 279.5zM397 360.5q0 -77.5 90.5 -126 t209 -48.5t207.5 47.5t89 126.5q0 78 -92 122t-204.5 44t-206 -44t-93.5 -121.5zM463 852q0 -123 233 -123q231 0 232 123q0 68 -72 104.5t-160 36.5t-160.5 -36.5t-72.5 -104.5z" />
<glyph unicode="9" horiz-adv-x="1370" d="M82 772q0 182 153.5 306t389.5 124q264 0 454.5 -159.5t190.5 -440.5q0 -291 -199 -466t-477 -175q-213 0 -451 105l123 192q150 -68 322 -68q168 0 286.5 99.5t129.5 271.5q-211 -164 -445 -164q-223 0 -350 112.5t-127 262.5zM360 772q0 -63 59.5 -112.5t180.5 -49.5 q178 0 383 119q-39 115 -137 178.5t-221 63.5q-113 0 -189 -60.5t-76 -138.5z" />
<glyph unicode=":" horiz-adv-x="681" d="M152 141.5q0 71.5 54 121.5t134 50t136 -50t56 -121.5t-55 -122t-137 -50.5q-80 0 -134 50.5t-54 122zM152 839.5q0 71.5 54 123t134 51.5t136 -51.5t56 -123t-55 -121.5t-137 -50q-80 0 -134 50t-54 121.5z" />
<glyph unicode=";" horiz-adv-x="688" d="M113 -238q88 25 171 90.5t83 143.5v16q-41 -10 -60 -10q-68 0 -114 43t-46 107q0 70 54.5 116.5t134.5 46.5q96 0 166.5 -74.5t70.5 -191.5q0 -92 -35.5 -170t-97 -130t-123 -86t-131.5 -56zM152 839.5q0 71.5 54 123t134 51.5t136 -51.5t56 -123t-55 -121.5t-137 -50 q-80 0 -134 50t-54 121.5z" />
<glyph unicode="&#x3c;" d="M154 428v231l1189 383v-264l-794 -223v-25l794 -223v-262z" />
<glyph unicode="=" d="M154 178v236h1189v-236h-1189zM154 672v235h1189v-235h-1189z" />
<glyph unicode="&#x3e;" d="M154 45v262l796 223v25l-796 223v264l1189 -383v-231z" />
<glyph unicode="?" horiz-adv-x="1175" d="M84 1128q119 121 238.5 184.5t308.5 63.5q190 0 314 -79.5t124 -252.5q0 -102 -48 -172.5t-134 -130.5q-20 -16 -106.5 -71.5t-122 -102.5t-40.5 -121h-266q-2 76 17.5 137.5t63.5 108.5t81 78t100.5 73t90.5 62q96 70 96 131q0 57 -51.5 89t-133.5 32q-109 0 -190.5 -47 t-167.5 -139zM332 141.5q0 71.5 55 122.5t135 51t136.5 -51t56.5 -122.5t-56.5 -122t-136.5 -50.5t-135 50.5t-55 122z" />
<glyph unicode="@" horiz-adv-x="2119" d="M96 506q0 276 150.5 494.5t392.5 333t524 114.5q377 0 612.5 -200.5t235.5 -502.5q0 -184 -93 -334.5t-228.5 -227.5t-272.5 -77q-96 0 -165.5 43.5t-80.5 135.5q-143 -176 -311 -176q-121 0 -207 90t-86 262q0 231 155 400t325 169q80 0 142 -49t97 -129l47 145h254 l-172 -524q-18 -55 -18 -82q0 -80 84 -80q113 0 212 122t99 300q0 227 -174 373.5t-455 146.5q-340 0 -583.5 -207.5t-243.5 -537.5q0 -162 64.5 -292t171 -209t232.5 -120t259 -41q135 0 286.5 39t254.5 90l65 -170q-104 -59 -277 -106t-339 -47q-133 0 -266.5 32.5 t-258.5 102.5t-221 168t-153.5 240.5t-57.5 310.5zM838 494q0 -150 108 -150q104 0 209 113l62 184q-16 66 -58.5 110t-93.5 44q-76 0 -151.5 -85t-75.5 -216z" />
<glyph unicode="A" d="M25 0l620 1337h252l621 -1337h-322l-123 283h-618l-121 -283h-309zM555 514h418l-203 473h-12z" />
<glyph unicode="B" horiz-adv-x="1650" d="M211 0v1337h801q236 0 358 -129q84 -88 84 -200q0 -84 -46 -157t-122 -112q115 -39 177.5 -126t62.5 -205q0 -164 -125 -287q-127 -121 -365 -121h-825zM506 242h520q92 0 148 51q47 51 47 117q0 61 -47 112q-57 57 -148 58h-520v-338zM506 801h471q86 0 129 43 q45 45 45 108q0 55 -41 97q-43 45 -133 45h-471v-293z" />
<glyph unicode="C" horiz-adv-x="1568" d="M98 670q0 295 205 501.5t522 206.5q180 0 352.5 -63.5t295.5 -169.5l-185 -193q-92 80 -211 126t-227 46q-199 0 -321.5 -132t-122.5 -324q0 -195 125.5 -326t328.5 -131q256 0 469 213l187 -191q-295 -274 -680 -274q-328 0 -533 205t-205 506z" />
<glyph unicode="D" horiz-adv-x="1650" d="M211 0v1337h629q338 0 524 -190q180 -186 180 -477q0 -305 -192 -494q-186 -176 -512 -176h-629zM504 252h325q109 0 169.5 22.5t117.5 73.5q123 123 123 320q0 193 -113 309q-55 55 -120.5 80.5t-176.5 25.5h-325v-831z" />
<glyph unicode="E" horiz-adv-x="1456" d="M211 0v1337h1114v-254h-821v-260h493v-252h-493v-319h868v-252h-1161z" />
<glyph unicode="F" horiz-adv-x="1357" d="M211 0v1337h1104v-254h-811v-270h493v-252h-493v-561h-293z" />
<glyph unicode="G" horiz-adv-x="1640" d="M96 670q0 295 214 501.5t524 206.5q338 0 634 -239l-194 -183q-84 78 -207 123t-231 45q-188 0 -311.5 -133t-123.5 -323q0 -186 121 -320.5t334 -134.5q209 0 340 90v225h-403v242h677v-600q-129 -96 -299 -152.5t-327 -56.5q-319 0 -533.5 206t-214.5 503z" />
<glyph unicode="H" horiz-adv-x="1642" d="M211 0v1337h295v-495h631v495h295v-1337h-295v594h-631v-594h-295z" />
<glyph unicode="I" horiz-adv-x="714" d="M211 0v1337h293v-1337h-293z" />
<glyph unicode="J" horiz-adv-x="1331" d="M12 328l248 129q106 -244 309 -244q127 0 204 70.5t77 199.5v854h295v-854q0 -246 -159 -384t-415 -138q-385 0 -559 367z" />
<glyph unicode="K" horiz-adv-x="1581" d="M211 0v1337h295v-581l612 581h369l-557 -522l657 -815h-370l-496 623l-215 -203v-420h-295z" />
<glyph unicode="L" horiz-adv-x="1329" d="M211 0v1337h293v-1085h786v-252h-1079z" />
<glyph unicode="M" horiz-adv-x="1853" d="M211 0v1337h281l438 -733h4l436 733h272v-1337h-294v776h-11l-374 -624h-82l-375 624h-10v-776h-285z" />
<glyph unicode="N" horiz-adv-x="1652" d="M211 0v1337h252l682 -829h2v829h295v-1337h-254l-680 827h-2v-827h-295z" />
<glyph unicode="O" horiz-adv-x="1710" d="M96 672q0 293 219.5 499.5t536.5 206.5t540.5 -206.5t223.5 -499.5q0 -297 -223.5 -505t-540.5 -208t-536.5 207t-219.5 506zM403 672q0 -190 130.5 -325.5t318.5 -135.5q190 0 323.5 135t133.5 326q0 186 -133.5 319t-323.5 133q-188 0 -318.5 -133t-130.5 -319z" />
<glyph unicode="P" horiz-adv-x="1523" d="M211 0v1337h741q266 0 404 -147q109 -121 108 -275q0 -172 -127 -294q-135 -129 -385 -129h-448v-492h-293zM504 739h459q100 0 153 52q53 53 53 122q0 68 -49 121q-53 55 -157 56h-459v-351z" />
<glyph unicode="Q" horiz-adv-x="1710" d="M96 672q0 293 219.5 499.5t536.5 206.5t540.5 -206.5t223.5 -499.5q0 -176 -84 -327.5t-229 -250.5l165 -250l-270 -86l-149 226q-94 -25 -197 -25q-317 0 -536.5 207t-219.5 506zM403 672q0 -190 130.5 -325.5t318.5 -135.5q29 0 45 2l-154 231l269 88l139 -210 q158 141 158 350q0 186 -133.5 319t-323.5 133q-188 0 -318.5 -133t-130.5 -319z" />
<glyph unicode="R" horiz-adv-x="1597" d="M211 0v1337h741q262 0 402 -145q111 -117 110 -277q0 -127 -72.5 -224t-197.5 -152l313 -539h-336l-270 492h-397v-492h-293zM504 739h479q78 0 132 50.5t54 125.5q0 70 -47 117q-53 57 -159 58h-459v-351z" />
<glyph unicode="S" horiz-adv-x="1495" d="M74 223l166 201q281 -225 573 -225q133 0 219 50t86 140t-83 125t-255 49q-78 4 -129 9.5t-123.5 17.5t-122 28.5t-103.5 45t-85 67.5t-52.5 95.5t-21.5 127.5q0 117 50.5 203t133.5 132t175 67.5t194 21.5q190 0 357.5 -55t271.5 -125l-168 -205q-193 143 -469 144 q-109 0 -180.5 -41t-71.5 -123q0 -27 11.5 -48.5t38 -36t49 -23.5t70.5 -15t74 -9t83 -7l24 -3q70 -4 113 -8t117 -16t121 -28.5t104 -48.5t90 -72t56.5 -102t23.5 -138q0 -233 -168 -346t-434 -113q-411 0 -735 264z" />
<glyph unicode="T" horiz-adv-x="1368" d="M53 1083v254h1262v-254h-484v-1083h-292v1083h-486z" />
<glyph unicode="U" horiz-adv-x="1593" d="M186 481v856h295v-856q0 -127 89 -198.5t225 -71.5q141 0 229 70.5t88 199.5v856h295v-856q0 -246 -170 -384t-442 -138q-266 0 -437.5 139t-171.5 383z" />
<glyph unicode="V" horiz-adv-x="1531" d="M18 1337h332l416 -970h12l416 970h319l-620 -1337h-254z" />
<glyph unicode="W" horiz-adv-x="2045" d="M59 1337h320l256 -878h12l275 878h215l272 -878h12l258 878h308l-428 -1337h-279l-252 795h-12l-250 -795h-279z" />
<glyph unicode="X" horiz-adv-x="1538" d="M20 0l568 686l-512 651h368l332 -440l348 440h355l-529 -641l553 -696h-368l-371 485l-387 -485h-357z" />
<glyph unicode="Y" horiz-adv-x="1372" d="M6 1337h365l325 -465l324 465h344l-530 -727v-610h-295v610z" />
<glyph unicode="Z" horiz-adv-x="1396" d="M96 0v172l758 911h-719v254h1145v-174l-758 -911h758v-252h-1184z" />
<glyph unicode="[" horiz-adv-x="782" d="M166 -315v1726h536v-209h-266v-1308h266v-209h-536z" />
<glyph unicode="\" horiz-adv-x="1146" d="M104 1337h277l702 -1581h-274z" />
<glyph unicode="]" horiz-adv-x="782" d="M80 -106h266v1308h-266v209h536v-1726h-536v209z" />
<glyph unicode="^" d="M166 426l457 829h262l448 -829h-301l-270 522h-17l-276 -522h-303z" />
<glyph unicode="_" horiz-adv-x="1234" d="M-12 -229h1259v-195h-1259v195z" />
<glyph unicode="`" horiz-adv-x="1015" d="M211 1430h274l185 -300h-238z" />
<glyph unicode="a" horiz-adv-x="1224" d="M78 315q0 143 117.5 237.5t320.5 94.5q182 0 287 -82v101q0 76 -57.5 113.5t-153.5 37.5q-88 0 -191.5 -29.5t-169.5 -64.5l-84 203q213 106 467 106q195 0 328 -73.5t133 -229.5v-534q0 -106 29 -195h-270q-10 33 -25 115q-68 -66 -142.5 -103t-193.5 -37 q-178 0 -286.5 96.5t-108.5 243.5zM350 315q0 -63 48 -101t134 -38q152 0 271 111v96q-84 72 -232 72q-115 0 -168 -39.5t-53 -100.5z" />
<glyph unicode="b" horiz-adv-x="1294" d="M137 0q23 117 23 285v1149h274v-535q133 133 283 133q203 0 344 -147.5t141 -380.5q0 -236 -140 -384.5t-345 -148.5q-178 0 -309 148q-4 -74 -13 -119h-258zM434 311q104 -111 242 -110q98 0 164.5 84t66.5 219t-65.5 216t-165.5 81q-125 0 -242 -113v-377z" />
<glyph unicode="c" horiz-adv-x="1142" d="M90 503.5q0 235.5 154.5 382t382.5 146.5q256 0 446 -170l-170 -180q-121 119 -256 119q-113 0 -189.5 -82t-76.5 -215t81 -219t195 -86q129 0 269 135l168 -168q-53 -63 -177 -130t-290 -67q-223 0 -380 149.5t-157 385z" />
<glyph unicode="d" horiz-adv-x="1294" d="M92 504q0 233 141.5 380.5t344.5 147.5q150 0 282 -123v525h275v-1149q0 -168 22 -285h-258q-8 45 -12 119q-131 -147 -309 -148q-205 0 -345.5 148.5t-140.5 384.5zM387 504q0 -135 66.5 -219t164.5 -84q137 0 242 110v377q-117 113 -242 113q-100 0 -165.5 -81 t-65.5 -216z" />
<glyph unicode="e" horiz-adv-x="1208" d="M90 492q0 229 150.5 384.5t380.5 155.5q205 0 353 -130t148 -386q0 -37 -4 -84h-760q18 -111 92 -177.5t197 -66.5q170 0 307 103l129 -174q-86 -66 -213 -107t-258 -41q-244 0 -383 151t-139 372zM365 614h481q-2 98 -70.5 153.5t-157.5 55.5q-196 0 -253 -209z" />
<glyph unicode="f" horiz-adv-x="774" d="M68 797v202h172v158q0 156 95 227.5t228 71.5q141 0 211 -35l-29 -209q-68 23 -139 23q-43 0 -68.5 -20.5t-25.5 -57.5v-158h246v-202h-246v-797h-272v797h-172z" />
<glyph unicode="g" horiz-adv-x="1294" d="M92 498q0 240 139.5 387t346.5 147q90 0 173 -48t136 -110q0 63 14 130h254q-23 -119 -22 -287v-764q0 -180 -135.5 -299t-381.5 -119q-295 0 -475 162l144 158q141 -104 331 -105q115 0 179.5 54.5t64.5 138.5v170q-127 -131 -282 -131q-205 0 -345.5 144.5 t-140.5 371.5zM385 498q0 -127 66.5 -207t164.5 -80q123 0 244 111v366q-113 113 -244 113q-98 0 -164.5 -83t-66.5 -220z" />
<glyph unicode="h" horiz-adv-x="1245" d="M158 0v1434h272v-539q137 137 289 137q170 0 275.5 -101.5t105.5 -258.5v-672h-275v662q0 57 -48 98t-120 41q-129 0 -227 -129v-672h-272z" />
<glyph unicode="i" horiz-adv-x="587" d="M131 1302.5q0 61.5 47 105.5t114.5 44t116 -44t48.5 -105q0 -59 -47.5 -102.5t-116.5 -43.5q-68 0 -115 42t-47 103.5zM158 0v999h272v-999h-272z" />
<glyph unicode="j" horiz-adv-x="587" d="M-31 -264q43 10 68.5 18t57.5 27.5t47.5 51.5t15.5 77v1089h272v-1089q0 -190 -118.5 -283.5t-268.5 -93.5zM129 1302.5q0 61.5 47 105.5t117 44q68 0 116 -44t48 -105q0 -59 -47.5 -102.5t-117 -43.5t-116.5 42t-47 103.5z" />
<glyph unicode="k" horiz-adv-x="1196" d="M158 0v1434h274v-797l363 362h358l-391 -364l432 -635h-338l-289 453l-135 -125v-328h-274z" />
<glyph unicode="l" horiz-adv-x="598" d="M162 0v1434h274v-1434h-274z" />
<glyph unicode="m" horiz-adv-x="1841" d="M131 999h252q12 -55 18 -131q147 164 314 164q96 0 173 -47t120 -129q131 176 335 176q150 0 251.5 -102.5t101.5 -257.5v-672h-275v662q0 57 -46 98t-111 41q-111 0 -199 -129v-672h-277v662q0 57 -44 98t-111 41q-104 0 -201 -129v-672h-272v717q0 141 -29 282z" />
<glyph unicode="n" horiz-adv-x="1249" d="M131 999h250q16 -74 20 -131q137 164 336 164q154 0 259.5 -102.5t105.5 -257.5v-672h-275v662q0 57 -47 98t-118 41q-113 0 -230 -129v-672h-272v715q0 143 -29 284z" />
<glyph unicode="o" horiz-adv-x="1269" d="M90 504q0 225 151.5 376.5t391.5 151.5q242 0 394.5 -151.5t152.5 -376.5q0 -227 -154 -381t-393.5 -154t-391 154t-151.5 381zM371 504q0 -129 70.5 -219t191.5 -90q123 0 195.5 90t72.5 219q0 127 -72.5 214t-195.5 87q-121 0 -191.5 -87t-70.5 -214z" />
<glyph unicode="p" horiz-adv-x="1294" d="M137 999h258q6 -37 11 -125q131 158 311 158q205 0 345 -147.5t140 -384.5q0 -231 -141 -380t-344 -149q-162 0 -285 129v-524h-272v1141q0 163 -23 282zM434 309q119 -109 242 -108q98 0 164.5 84t66.5 215q0 135 -66.5 218t-164.5 83q-135 0 -242 -113v-379z" />
<glyph unicode="q" horiz-adv-x="1294" d="M92 500q0 238 140.5 385t345.5 147q180 0 311 -158q4 88 10 125h258q-23 -119 -22 -282v-1141h-273v524q-123 -129 -284 -129q-203 0 -344.5 149t-141.5 380zM387 500q0 -131 66.5 -215t164.5 -84q123 0 242 108v379q-106 113 -242 113q-98 0 -164.5 -83t-66.5 -218z" />
<glyph unicode="r" horiz-adv-x="837" d="M131 999h250q14 -78 20 -149q53 88 112.5 135t150.5 47q100 0 153 -41l-76 -250q-72 29 -135 29q-35 0 -65.5 -18.5t-51 -41t-55.5 -67.5v-643h-274v717q0 126 -29 282z" />
<glyph unicode="s" horiz-adv-x="1140" d="M78 117l96 194q219 -135 416 -135q94 0 146 32t52 85q0 33 -18 55.5t-55 33.5t-64.5 14t-72.5 7q-74 4 -112 8.5t-103.5 14.5t-101.5 29.5t-75 50.5t-56 80t-17 114q0 174 124.5 255t301.5 81q123 0 256 -34.5t211 -71.5l-97 -195q-195 90 -360.5 90t-165.5 -96 q0 -25 13.5 -42t29.5 -26.5t48 -15.5t51.5 -7t54.5 -3q74 -4 122 -8t122.5 -23.5t120.5 -51.5t81 -92.5t35 -142.5q0 -172 -132 -262t-343 -90q-266 0 -508 152z" />
<glyph unicode="t" horiz-adv-x="825" d="M45 797v202h174v283h273v-283h245v-202h-245v-518q0 -88 108 -89q45 0 127 15l21 -205q-49 -39 -218 -39q-127 0 -219 71.5t-92 225.5v539h-174z" />
<glyph unicode="u" horiz-adv-x="1247" d="M145 328v671h275v-661q0 -59 46 -99t120 -40q117 0 229 129v671h272v-716q0 -150 25 -283h-254q-8 45 -12 129q-143 -162 -336 -162q-154 0 -259.5 102.5t-105.5 258.5z" />
<glyph unicode="v" horiz-adv-x="1142" d="M31 999h303l235 -630h13l247 630h283l-432 -999h-219z" />
<glyph unicode="w" horiz-adv-x="1622" d="M53 999h287l160 -639h12l180 639h248l180 -639h13l155 639h281l-318 -999h-260l-174 612h-12l-176 -612h-258z" />
<glyph unicode="x" horiz-adv-x="1218" d="M31 0l413 512l-393 487h344l213 -301l217 301h340l-391 -487l414 -512h-338l-242 324l-237 -324h-340z" />
<glyph unicode="y" horiz-adv-x="1140" d="M29 999h305l241 -596h13l264 596h281l-674 -1423h-285l260 516z" />
<glyph unicode="z" horiz-adv-x="1091" d="M86 0v152l522 634h-483v213h862v-153l-522 -635h522v-211h-901z" />
<glyph unicode="{" horiz-adv-x="825" d="M51 461v205q86 0 148.5 47t62.5 125v227q2 213 99.5 280.5t383.5 67.5v-209q-127 0 -168.5 -24.5t-44.5 -104.5v-237q0 -100 -61 -171t-152 -94v-10q211 -33 211 -262v-285q0 -76 43 -99t172 -23v-209q-291 0 -388 65.5t-97 276.5v274q0 160 -209 160z" />
<glyph unicode="|" horiz-adv-x="708" d="M219 -629v2482h258v-2482h-258z" />
<glyph unicode="}" horiz-adv-x="825" d="M78 -106q125 0 170 23.5t45 98.5v285q0 229 211 262v10q-90 23 -151.5 93.5t-61.5 171.5v237q-2 80 -45 104.5t-168 24.5v209q287 0 385 -67.5t100 -280.5v-227q0 -78 62.5 -125t148.5 -47v-205q-211 0 -211 -160v-274q0 -211 -97 -276.5t-388 -65.5v209z" />
<glyph unicode="~" d="M66 500q125 139 225 206.5t209 67.5q74 0 144.5 -27.5t100 -49t76.5 -60.5q100 -84 162 -84q88 0 244 164l209 -129q-250 -285 -459 -285q-25 0 -49.5 3t-45 7t-42 12.5t-37 14.5t-34.5 18.5t-29.5 18.5t-27 19.5t-22.5 18.5t-21.5 17t-17.5 14q-98 78 -159 78 q-74 0 -224 -155z" />
<glyph unicode="&#xa1;" horiz-adv-x="649" d="M100 841.5q0 71.5 56.5 122t136.5 50.5q82 0 136 -50.5t54 -122t-55 -122.5t-135 -51t-136.5 51t-56.5 122.5zM137 0l62 537h188l62 -537v-354h-312v354z" />
<glyph unicode="&#xa2;" horiz-adv-x="1251" d="M94 469q0 219 159 356.5t394 137.5q29 0 43 -2l33 147h192l-38 -178q137 -37 253 -127l-165 -174q-72 51 -150 80l-115 -514q141 12 277 122l166 -161q-55 -59 -183.5 -122t-300.5 -65l-51 -233h-190l57 260q-168 47 -274.5 174t-106.5 299zM383 469q0 -166 154 -244 l112 510q-117 -6 -191.5 -77.5t-74.5 -188.5z" />
<glyph unicode="&#xa3;" horiz-adv-x="1454" d="M113 0v221h80q106 0 145 42t39 171v103h-264v168h264v147q0 170 140 260t333 90q98 0 234.5 -37t252.5 -96l-123 -197q-203 98 -354 99q-78 0 -137 -40t-59 -114v-112h442v-168h-442v-103q0 -100 -40 -148t-137 -65h850v-221h-1224z" />
<glyph unicode="&#xa4;" horiz-adv-x="1570" d="M109 88l167 156q-86 133 -86 294.5t86 295.5l-167 157l184 183l168 -158q145 94 321 94t326 -94l172 158l182 -183l-170 -157q88 -137 88 -295t-88 -295l170 -156l-182 -184l-172 157q-150 -94 -326 -94t-321 94l-168 -157zM481 539q0 -133 88 -228.5t213 -95.5 q127 0 217.5 95.5t90.5 228.5t-90.5 228t-217.5 95q-125 0 -213 -95t-88 -228z" />
<glyph unicode="&#xa5;" horiz-adv-x="1591" d="M121 375v147h530v6l-94 119h-436v150h319l-288 366h354l299 -391l295 391h336l-289 -366h326v-150h-443l-92 -119v-6h535v-147h-535v-375h-287v375h-530z" />
<glyph unicode="&#xa6;" horiz-adv-x="708" d="M219 393h258v-860h-258v860zM219 788v844h258v-844h-258z" />
<glyph unicode="&#xa7;" horiz-adv-x="1447" d="M106 430q0 129 105 234q37 37 102 71l-20 35q-23 51 -23 111q0 162 140.5 242.5t326.5 80.5q244 0 445 -102l-113 -184q-178 78 -336 77q-178 0 -178 -90q0 -29 18 -41q8 -6 18.5 -12t26.5 -10l29 -7q12 -3 37 -7.5t39 -5.5t45 -5t47 -6q322 -39 455 -172q84 -84 84 -197 q0 -139 -111 -239q-43 -39 -98 -68q18 -25 24 -43q20 -47 21 -102q0 -162 -141.5 -243t-323.5 -81q-236 0 -438 105l114 182q174 -78 328 -78q176 0 176 92q0 27 -16 43q-35 33 -244 56q-315 39 -448 163q-91 84 -91 201zM383 465q0 -51 37 -88q63 -59 264 -78 q203 -18 295 -51q25 16 41 35q57 57 57 125q0 49 -37 86q-66 63 -264 81q-14 2 -66.5 7.5t-80 9.5t-71.5 12t-77 21q-12 -8 -45 -41q-53 -58 -53 -119z" />
<glyph unicode="&#xa8;" horiz-adv-x="1015" d="M127 1280q0 55 43 96t104 41q63 0 107.5 -41t44.5 -96q0 -57 -44 -96t-107.5 -39t-105.5 39t-42 96zM586 1280q0 55 43 96t106.5 41t107.5 -41t44 -96q0 -57 -44 -96t-107.5 -39t-106.5 39t-43 96z" />
<glyph unicode="&#xa9;" horiz-adv-x="2109" d="M96 549q0 373 283 635t680 262q395 0 674.5 -262t279.5 -635t-279.5 -635t-674.5 -262q-397 0 -680 262t-283 635zM301 549q0 -295 224.5 -504t533.5 -209q313 0 531 208t218 505q0 293 -219 504t-530 211q-309 0 -533.5 -212t-224.5 -503zM555 551q0 203 142.5 339 t373.5 136q217 0 418 -139l-105 -182q-139 106 -290 106q-119 0 -194 -74.5t-75 -185.5q0 -102 80 -167t195 -65q137 0 299 91l98 -177q-94 -66 -187 -98.5t-233 -32.5q-221 0 -371.5 125t-150.5 324z" />
<glyph unicode="&#xaa;" horiz-adv-x="954" d="M66 680q0 104 91 173t246 69q127 0 209 -54v64q0 102 -153 102q-133 0 -275 -65l-67 157q160 76 360 76q152 0 254.5 -52t102.5 -167v-391q0 -80 20 -141h-219q-8 25 -17 77q-37 -33 -62.5 -50t-74.5 -33.5t-110 -16.5q-137 0 -221 71.5t-84 180.5zM287 680 q0 -41 34.5 -65.5t96.5 -24.5q119 0 194 76v59q-70 45 -163 45q-162 0 -162 -90z" />
<glyph unicode="&#xab;" horiz-adv-x="1286" d="M94 457v116l207 258h307l-258 -309v-16l258 -305h-307zM604 506v16l248 309h307l-258 -309v-16l258 -305h-307z" />
<glyph unicode="&#xac;" d="M154 627v233h1189v-629h-270v396h-919z" />
<glyph unicode="&#xad;" horiz-adv-x="827" d="M127 406v253h571v-253h-571z" />
<glyph unicode="&#xae;" horiz-adv-x="1286" d="M106 893q0 203 155 349.5t378 146.5q225 0 383 -146.5t158 -349.5q0 -205 -158 -348.5t-383 -143.5t-379 142.5t-154 349.5zM209 895q0 -166 125 -281.5t305 -115.5q184 0 310 115.5t126 281.5q0 164 -127 282.5t-309 118.5q-180 0 -305 -118.5t-125 -282.5zM412 664v491 h311q84 0 138 -45t54 -115q0 -96 -106 -137l121 -194h-148l-102 174h-141v-174h-127zM539 940h178q29 0 49 18.5t20 38.5q0 25 -19 42.5t-48 17.5h-180v-117z" />
<glyph unicode="&#xaf;" horiz-adv-x="1015" d="M231 1171v191h551v-191h-551z" />
<glyph unicode="&#xb0;" horiz-adv-x="1015" d="M90 929.5q0 155.5 116 263t302 107.5q184 0 302 -107.5t118 -262.5q0 -154 -118 -261.5t-302 -107.5q-186 0 -302 106.5t-116 262zM332 929.5q0 -71.5 48 -119.5t128 -48t129 48t49 119.5t-49 121t-129 49.5t-128 -49.5t-48 -121z" />
<glyph unicode="&#xb1;" d="M154 0v233h1189v-233h-1189zM154 662v235h462v317h269v-317h458v-235h-458v-318h-269v318h-462z" />
<glyph unicode="&#xb2;" horiz-adv-x="991" d="M78 1192q78 57 128 89t136 59.5t180 27.5q162 0 276.5 -67.5t114.5 -200.5q0 -57 -25.5 -105.5t-57 -77t-92 -57.5t-95.5 -41t-102 -33q-111 -35 -162 -66.5t-51 -78.5v-4h565v-186h-807v149q0 274 424 383q162 45 162 117q0 76 -144 76q-90 0 -162.5 -35t-156.5 -103z " />
<glyph unicode="&#xb3;" horiz-adv-x="1093" d="M35 608l133 152q168 -147 364 -148q111 0 181.5 35t70.5 98q0 80 -135 80h-196v176h165q45 0 72 23t27 55q0 49 -46 73t-106 24q-158 0 -317 -138l-137 146q229 184 456 184q90 0 175 -23.5t152 -85t67 -149.5q0 -100 -97 -160q162 -61 162 -215q0 -147 -139 -231 t-352 -84q-293 0 -500 188z" />
<glyph unicode="&#xb4;" horiz-adv-x="1015" d="M344 1130l184 300h277l-221 -300h-240z" />
<glyph unicode="&#xb5;" horiz-adv-x="1265" d="M147 -449v1438h275v-661q0 -55 47 -95t119 -40q117 0 229 129v667h273v-706q0 -152 26 -283h-256q-8 55 -12 125q-135 -162 -334 -162q-57 0 -92 25v-437h-275z" />
<glyph unicode="&#x3bc;" horiz-adv-x="1265" d="M147 -449v1438h275v-661q0 -55 47 -95t119 -40q117 0 229 129v667h273v-706q0 -152 26 -283h-256q-8 55 -12 125q-135 -162 -334 -162q-57 0 -92 25v-437h-275z" />
<glyph unicode="&#xb6;" horiz-adv-x="1826" d="M88 934q0 403 469 403h1077v-1761h-252v1532h-213v-1532h-249v940h-357q-190 0 -332.5 104.5t-142.5 313.5zM358 934q0 -94 62.5 -141.5t142.5 -47.5h357v363h-363q-199 0 -199 -174z" />
<glyph unicode="&#xb7;" d="M541 543q0 76 59 130t150 54q86 0 147 -54.5t61 -130t-60 -129t-148 -53.5q-90 0 -149.5 52.5t-59.5 130.5z" />
<glyph unicode="&#xb8;" horiz-adv-x="1015" d="M190 -422l39 146q182 -29 222 -29q135 0 135 67q0 37 -40 52.5t-81 15.5q-29 0 -47 -6l-27 59l84 166h184l-55 -115q88 -14 154.5 -58t66.5 -126q0 -94 -98 -154.5t-254 -60.5q-103 0 -283 43z" />
<glyph unicode="&#xb9;" horiz-adv-x="679" d="M12 1219l287 118h217v-886h-244v663l-209 -84z" />
<glyph unicode="&#xba;" horiz-adv-x="976" d="M70 817q0 164 119.5 274.5t298 110.5t298 -110.5t119.5 -274.5t-119.5 -276.5t-298 -112.5t-298 112.5t-119.5 276.5zM297 817q0 -90 51 -150.5t139 -60.5t140.5 60.5t52.5 150.5q0 88 -51 146.5t-141.5 58.5t-140.5 -57.5t-50 -147.5z" />
<glyph unicode="&#xbb;" horiz-adv-x="1286" d="M127 201l256 305v16l-256 309h305l250 -309v-16l-250 -305h-305zM678 201l256 305v16l-256 309h305l209 -258v-116l-209 -256h-305z" />
<glyph unicode="&#xbc;" horiz-adv-x="2199" d="M8 1219l287 118h217v-886h-244v663l-209 -84zM397 0l762 1337h234l-760 -1337h-236zM1083 178v137l678 572h215v-531h168v-178h-168v-178h-241v178h-652zM1421 356h314v250h-17q-18 -14 -128.5 -105t-168.5 -141v-4z" />
<glyph unicode="&#xbd;" horiz-adv-x="2101" d="M8 1219l287 118h217v-886h-244v663l-209 -84zM397 0l762 1337h234l-760 -1337h-236zM1188 741q80 59 129 89t135 59t180 29q162 0 276.5 -68t114.5 -201q0 -57 -25.5 -105t-57 -77t-91 -57.5t-95.5 -41t-103 -32.5q-111 -35 -161 -66.5t-50 -79.5v-4h565v-186h-807v150 q0 154 113.5 243.5t310.5 138.5q160 45 160 117q0 76 -142 76q-154 0 -319 -137z" />
<glyph unicode="&#xbe;" horiz-adv-x="2621" d="M35 608l133 152q168 -147 364 -148q109 0 180.5 36t71.5 97q0 80 -135 80h-198v176h165q47 0 74 23t27 55q0 49 -47 73t-107 24q-154 0 -317 -138l-135 146q225 184 456 184q90 0 174 -23.5t150.5 -85t66.5 -149.5q0 -100 -96 -160q164 -59 164 -215q0 -147 -140.5 -231 t-353.5 -84q-290 0 -497 188zM819 0l762 1337h234l-760 -1337h-236zM1505 178v137l678 572h215v-531h168v-178h-168v-178h-241v178h-652zM1843 356h314v250h-17q-18 -14 -128.5 -105t-168.5 -141v-4z" />
<glyph unicode="&#xbf;" horiz-adv-x="1159" d="M72 -61q0 102 48 172.5t134 130.5q20 16 106 71.5t122 102.5t40 121h266q2 -76 -17 -137.5t-63 -108.5t-81 -78t-100.5 -73t-90.5 -62q-96 -70 -96 -131q0 -57 51 -89t133 -32q109 0 191 47t168 139l174 -157q-119 -121 -239 -184.5t-308 -63.5q-190 0 -314 80t-124 252z M426 841.5q0 71.5 56.5 122t136 50.5t135 -50.5t55.5 -122t-55.5 -122.5t-135 -51t-136 51t-56.5 122.5z" />
<glyph unicode="&#xc0;" d="M25 0l620 1337h252l621 -1337h-322l-123 283h-618l-121 -283h-309zM451 1769h292l205 -282h-246zM555 514h418l-203 473h-12z" />
<glyph unicode="&#xc1;" d="M25 0l620 1337h252l621 -1337h-322l-123 283h-618l-121 -283h-309zM555 514h418l-203 473h-12zM592 1487l205 282h293l-254 -282h-244z" />
<glyph unicode="&#xc2;" d="M25 0l620 1337h252l621 -1337h-322l-123 283h-618l-121 -283h-309zM418 1487l217 285h270l215 -285h-215l-135 151l-137 -151h-215zM555 514h418l-203 473h-12z" />
<glyph unicode="&#xc3;" d="M25 0l620 1337h252l621 -1337h-322l-123 283h-618l-121 -283h-309zM375 1565q61 109 122.5 154.5t137.5 45.5q74 0 147 -51q82 -51 106.5 -51t48.5 17.5t35 31.5t34 45l151 -82q-113 -205 -260 -205q-70 0 -141 48l-19.5 13l-19.5 13t-16.5 11.5t-17.5 10.5t-17.5 5 t-18.5 2q-12 0 -23.5 -5t-19.5 -10.5t-18.5 -17.5t-15.5 -19.5t-16 -22.5t-15 -21zM555 514h418l-203 473h-12z" />
<glyph unicode="&#xc4;" d="M25 0l620 1337h252l621 -1337h-322l-123 283h-618l-121 -283h-309zM389 1634q0 55 43 96.5t105 41.5q63 0 107 -41t44 -97q0 -57 -44 -96t-107.5 -39t-105.5 39t-42 96zM555 514h418l-203 473h-12zM848 1634q0 55 43 96.5t106.5 41.5t107.5 -41t44 -97q0 -57 -44 -96 t-107.5 -39t-106.5 39t-43 96z" />
<glyph unicode="&#xc5;" d="M25 0l620 1337h252l621 -1337h-322l-123 283h-618l-121 -283h-309zM485 1640q0 96 74 163t205 67q129 0 203.5 -67.5t74.5 -162t-74.5 -158t-203.5 -63.5q-133 0 -206 63.5t-73 157.5zM555 514h418l-203 473h-12zM645 1640q0 -45 34 -72.5t85 -27.5t85 27.5t34 72.5 q0 47 -34 80t-85 33t-85 -33t-34 -80z" />
<glyph unicode="&#xc6;" horiz-adv-x="2193" d="M-47 0l917 1337h1190v-254h-819v-260h492v-252h-492v-319h866v-252h-1159v283h-485l-193 -283h-317zM616 514h332v473h-10z" />
<glyph unicode="&#xc7;" horiz-adv-x="1568" d="M98 670q0 295 205 501.5t522 206.5q180 0 352.5 -63.5t295.5 -169.5l-185 -193q-92 80 -211 126t-227 46q-199 0 -321.5 -132t-122.5 -324q0 -195 125.5 -326t328.5 -131q256 0 469 213l187 -191q-276 -256 -631 -272l-13 -27q88 -14 155 -58t67 -126q0 -94 -98.5 -154.5 t-254.5 -60.5q-102 0 -282 43l39 146q182 -29 221 -29q135 0 135 67q0 37 -40 52.5t-81 15.5q-29 0 -47 -6l-27 59l43 86q-272 41 -438 237t-166 464z" />
<glyph unicode="&#xc8;" horiz-adv-x="1456" d="M211 0v1337h1114v-254h-821v-260h493v-252h-493v-319h868v-252h-1161zM449 1769h292l205 -282h-246z" />
<glyph unicode="&#xc9;" horiz-adv-x="1456" d="M211 0v1337h1114v-254h-821v-260h493v-252h-493v-319h868v-252h-1161zM590 1487l205 282h292l-253 -282h-244z" />
<glyph unicode="&#xca;" horiz-adv-x="1456" d="M211 0v1337h1114v-254h-821v-260h493v-252h-493v-319h868v-252h-1161zM416 1487l217 285h270l215 -285h-215l-135 151l-137 -151h-215z" />
<glyph unicode="&#xcb;" horiz-adv-x="1456" d="M211 0v1337h1114v-254h-821v-260h493v-252h-493v-319h868v-252h-1161zM387 1634q0 55 43 96.5t105 41.5q63 0 107 -41t44 -97q0 -57 -44 -96t-107.5 -39t-105.5 39t-42 96zM846 1634q0 55 43 96.5t106.5 41.5t107.5 -41t44 -97q0 -57 -44 -96t-107.5 -39t-106.5 39 t-43 96z" />
<glyph unicode="&#xcc;" horiz-adv-x="714" d="M39 1769h293l205 -282h-246zM211 0v1337h293v-1337h-293z" />
<glyph unicode="&#xcd;" horiz-adv-x="714" d="M180 1487l205 282h293l-254 -282h-244zM211 0v1337h293v-1337h-293z" />
<glyph unicode="&#xce;" horiz-adv-x="714" d="M6 1487l217 285h271l215 -285h-215l-136 151l-137 -151h-215zM211 0v1337h293v-1337h-293z" />
<glyph unicode="&#xcf;" horiz-adv-x="714" d="M-23 1634q0 55 43 96.5t105 41.5q63 0 107 -41t44 -97q0 -57 -44 -96t-107.5 -39t-105.5 39t-42 96zM211 0v1337h293v-1337h-293zM436 1634q0 55 43 96.5t106.5 41.5t107.5 -41t44 -97q0 -57 -44 -96t-107.5 -39t-106.5 39t-43 96z" />
<glyph unicode="&#xd0;" horiz-adv-x="1712" d="M76 575v213h196v549h629q338 0 524 -190q180 -186 181 -477q0 -305 -193 -494q-186 -176 -512 -176h-629v575h-196zM565 252h326q109 0 169 22.5t118 73.5q123 123 122 320q0 193 -112 309q-55 55 -121 80.5t-176 25.5h-326v-295h359v-213h-359v-323z" />
<glyph unicode="&#xd1;" horiz-adv-x="1652" d="M211 0v1337h252l682 -829h2v829h295v-1337h-254l-680 827h-2v-827h-295zM430 1565q61 109 122.5 154.5t137.5 45.5q74 0 148 -51q82 -51 106.5 -51t48 17.5t34.5 31.5t34 45l151 -82q-113 -205 -260 -205q-72 0 -141 48l-19.5 13l-19.5 13t-16.5 11.5t-17.5 10.5t-17 5 t-19 2q-12 0 -23 -5t-19.5 -10.5t-18.5 -17.5t-15 -19.5t-16.5 -22.5t-15.5 -21z" />
<glyph unicode="&#xd2;" horiz-adv-x="1710" d="M96 672q0 293 219.5 499.5t536.5 206.5t540.5 -206.5t223.5 -499.5q0 -297 -223.5 -505t-540.5 -208t-536.5 207t-219.5 506zM403 672q0 -190 130.5 -325.5t318.5 -135.5q190 0 323.5 135t133.5 326q0 186 -133.5 319t-323.5 133q-188 0 -318.5 -133t-130.5 -319z M535 1769h292l205 -282h-246z" />
<glyph unicode="&#xd3;" horiz-adv-x="1710" d="M96 672q0 293 219.5 499.5t536.5 206.5t540.5 -206.5t223.5 -499.5q0 -297 -223.5 -505t-540.5 -208t-536.5 207t-219.5 506zM403 672q0 -190 130.5 -325.5t318.5 -135.5q190 0 323.5 135t133.5 326q0 186 -133.5 319t-323.5 133q-188 0 -318.5 -133t-130.5 -319z M676 1487l205 282h293l-254 -282h-244z" />
<glyph unicode="&#xd4;" horiz-adv-x="1710" d="M96 672q0 293 219.5 499.5t536.5 206.5t540.5 -206.5t223.5 -499.5q0 -297 -223.5 -505t-540.5 -208t-536.5 207t-219.5 506zM403 672q0 -190 130.5 -325.5t318.5 -135.5q190 0 323.5 135t133.5 326q0 186 -133.5 319t-323.5 133q-188 0 -318.5 -133t-130.5 -319z M502 1487l217 285h270l215 -285h-215l-135 151l-137 -151h-215z" />
<glyph unicode="&#xd5;" horiz-adv-x="1710" d="M96 672q0 293 219.5 499.5t536.5 206.5t540.5 -206.5t223.5 -499.5q0 -297 -223.5 -505t-540.5 -208t-536.5 207t-219.5 506zM403 672q0 -190 130.5 -325.5t318.5 -135.5q190 0 323.5 135t133.5 326q0 186 -133.5 319t-323.5 133q-188 0 -318.5 -133t-130.5 -319z M459 1565q61 109 122.5 154.5t137.5 45.5q74 0 147 -51q82 -51 106.5 -51t48 17.5t35 31.5t34.5 45l151 -82q-113 -205 -260 -205q-72 0 -141 48l-19.5 13l-19.5 13t-16.5 11.5t-17.5 10.5t-17.5 5t-18.5 2q-12 0 -23.5 -5t-19.5 -10.5t-18.5 -17.5t-15.5 -19.5t-16 -22.5 t-15 -21z" />
<glyph unicode="&#xd6;" horiz-adv-x="1710" d="M96 672q0 293 219.5 499.5t536.5 206.5t540.5 -206.5t223.5 -499.5q0 -297 -223.5 -505t-540.5 -208t-536.5 207t-219.5 506zM403 672q0 -190 130.5 -325.5t318.5 -135.5q190 0 323.5 135t133.5 326q0 186 -133.5 319t-323.5 133q-188 0 -318.5 -133t-130.5 -319z M473 1634q0 55 43 96.5t105 41.5q63 0 107 -41t44 -97q0 -57 -44 -96t-107.5 -39t-105.5 39t-42 96zM932 1634q0 55 43 96.5t106.5 41.5t107.5 -41t44 -97q0 -57 -44 -96t-107.5 -39t-106.5 39t-43 96z" />
<glyph unicode="&#xd7;" d="M158 883l182 174l412 -352l409 352l178 -172l-399 -342l401 -342l-182 -172l-411 350l-412 -350l-176 170l399 342z" />
<glyph unicode="&#xd8;" horiz-adv-x="1710" d="M96 672q0 293 219.5 499.5t536.5 206.5q164 0 322 -65l114 164l176 -119l-108 -156q123 -98 191.5 -236.5t68.5 -293.5q0 -297 -223.5 -505t-540.5 -208q-162 0 -320 64l-112 -162l-176 119l106 153q-254 211 -254 539zM403 672q0 -174 111 -305l506 725q-86 33 -168 32 q-188 0 -318.5 -133t-130.5 -319zM686 242q76 -31 166 -31q190 0 323.5 135t133.5 326q0 172 -115 299z" />
<glyph unicode="&#xd9;" horiz-adv-x="1593" d="M186 481v856h295v-856q0 -127 89 -198.5t225 -71.5q141 0 229 70.5t88 199.5v856h295v-856q0 -246 -170 -384t-442 -138q-266 0 -437.5 139t-171.5 383zM475 1769h293l205 -282h-246z" />
<glyph unicode="&#xda;" horiz-adv-x="1593" d="M186 481v856h295v-856q0 -127 89 -198.5t225 -71.5q141 0 229 70.5t88 199.5v856h295v-856q0 -246 -170 -384t-442 -138q-266 0 -437.5 139t-171.5 383zM616 1487l205 282h293l-254 -282h-244z" />
<glyph unicode="&#xdb;" horiz-adv-x="1593" d="M186 481v856h295v-856q0 -127 89 -198.5t225 -71.5q141 0 229 70.5t88 199.5v856h295v-856q0 -246 -170 -384t-442 -138q-266 0 -437.5 139t-171.5 383zM442 1487l217 285h271l215 -285h-215l-135 151l-138 -151h-215z" />
<glyph unicode="&#xdc;" horiz-adv-x="1593" d="M186 481v856h295v-856q0 -127 89 -198.5t225 -71.5q141 0 229 70.5t88 199.5v856h295v-856q0 -246 -170 -384t-442 -138q-266 0 -437.5 139t-171.5 383zM414 1634q0 55 43 96.5t104 41.5q63 0 107.5 -41t44.5 -97q0 -57 -44 -96t-107.5 -39t-105.5 39t-42 96zM872 1634 q0 55 43 96.5t106.5 41.5t108 -41t44.5 -97q0 -57 -44.5 -96t-108 -39t-106.5 39t-43 96z" />
<glyph unicode="&#xdd;" horiz-adv-x="1372" d="M6 1337h365l325 -465l324 465h344l-530 -727v-610h-295v610zM508 1487l205 282h293l-254 -282h-244z" />
<glyph unicode="&#xde;" horiz-adv-x="1564" d="M211 0v1337h293v-245h489q266 0 404 -148q109 -121 108 -274q0 -172 -127 -295q-135 -129 -385 -129h-489v-246h-293zM504 494h500q100 0 153 51q53 53 53 123q0 68 -49 120q-53 55 -157 56h-500v-350z" />
<glyph unicode="&#xdf;" horiz-adv-x="1255" d="M158 0v1018q0 223 131 331.5t317 108.5q199 0 321 -97t122 -249q0 -111 -73 -189.5t-153 -105.5q119 -33 233.5 -152.5t114.5 -289.5q0 -176 -140 -285.5t-396 -109.5l-21 204q135 0 209 56.5t74 148.5q0 63 -36 117.5t-89 88.5t-103.5 54.5t-90.5 26.5l20 203 q84 16 130 74.5t46 129.5q0 76 -48 119t-118 43q-74 0 -127 -58.5t-53 -170.5v-1016h-270z" />
<glyph unicode="&#xe0;" horiz-adv-x="1224" d="M78 315q0 143 117.5 237.5t320.5 94.5q182 0 287 -82v101q0 76 -57.5 113.5t-153.5 37.5q-88 0 -191.5 -29.5t-169.5 -64.5l-84 203q213 106 467 106q195 0 328 -73.5t133 -229.5v-534q0 -106 29 -195h-270q-10 33 -25 115q-68 -66 -142.5 -103t-193.5 -37 q-178 0 -286.5 96.5t-108.5 243.5zM315 1430h275l184 -300h-237zM350 315q0 -63 48 -101t134 -38q152 0 271 111v96q-84 72 -232 72q-115 0 -168 -39.5t-53 -100.5z" />
<glyph unicode="&#xe1;" horiz-adv-x="1224" d="M78 315q0 143 117.5 237.5t320.5 94.5q182 0 287 -82v101q0 76 -57.5 113.5t-153.5 37.5q-88 0 -191.5 -29.5t-169.5 -64.5l-84 203q213 106 467 106q195 0 328 -73.5t133 -229.5v-534q0 -106 29 -195h-270q-10 33 -25 115q-68 -66 -142.5 -103t-193.5 -37 q-178 0 -286.5 96.5t-108.5 243.5zM350 315q0 -63 48 -101t134 -38q152 0 271 111v96q-84 72 -232 72q-115 0 -168 -39.5t-53 -100.5zM449 1130l184 300h276l-221 -300h-239z" />
<glyph unicode="&#xe2;" horiz-adv-x="1224" d="M78 315q0 143 117.5 237.5t320.5 94.5q182 0 287 -82v101q0 76 -57.5 113.5t-153.5 37.5q-88 0 -191.5 -29.5t-169.5 -64.5l-84 203q213 106 467 106q195 0 328 -73.5t133 -229.5v-534q0 -106 29 -195h-270q-10 33 -25 115q-68 -66 -142.5 -103t-193.5 -37 q-178 0 -286.5 96.5t-108.5 243.5zM260 1133l217 288h271l215 -288h-215l-136 155l-137 -155h-215zM350 315q0 -63 48 -101t134 -38q152 0 271 111v96q-84 72 -232 72q-115 0 -168 -39.5t-53 -100.5z" />
<glyph unicode="&#xe3;" horiz-adv-x="1224" d="M78 315q0 143 117.5 237.5t320.5 94.5q182 0 287 -82v101q0 76 -57.5 113.5t-153.5 37.5q-88 0 -191.5 -29.5t-169.5 -64.5l-84 203q213 106 467 106q195 0 328 -73.5t133 -229.5v-534q0 -106 29 -195h-270q-10 33 -25 115q-68 -66 -142.5 -103t-193.5 -37 q-178 0 -286.5 96.5t-108.5 243.5zM217 1208q61 111 122.5 157t137.5 46q74 0 148 -51q76 -51 106 -51q53 0 117 94l151 -82q-113 -205 -260 -205q-72 0 -141 47q-6 4 -19.5 13.5t-19.5 13.5l-16.5 11t-17.5 10t-17 5.5t-19 2.5q-14 0 -26 -5.5t-24.5 -18.5t-18.5 -20.5 t-20.5 -29t-18.5 -25.5zM350 315q0 -63 48 -101t134 -38q152 0 271 111v96q-84 72 -232 72q-115 0 -168 -39.5t-53 -100.5z" />
<glyph unicode="&#xe4;" horiz-adv-x="1224" d="M78 315q0 143 117.5 237.5t320.5 94.5q182 0 287 -82v101q0 76 -57.5 113.5t-153.5 37.5q-88 0 -191.5 -29.5t-169.5 -64.5l-84 203q213 106 467 106q195 0 328 -73.5t133 -229.5v-534q0 -106 29 -195h-270q-10 33 -25 115q-68 -66 -142.5 -103t-193.5 -37 q-178 0 -286.5 96.5t-108.5 243.5zM231 1280q0 55 43 96t105 41q63 0 107 -41t44 -96q0 -57 -44 -96t-107.5 -39t-105.5 39t-42 96zM350 315q0 -63 48 -101t134 -38q152 0 271 111v96q-84 72 -232 72q-115 0 -168 -39.5t-53 -100.5zM690 1280q0 55 43 96t106.5 41t107.5 -41 t44 -96q0 -57 -44 -96t-107.5 -39t-106.5 39t-43 96z" />
<glyph unicode="&#xe5;" horiz-adv-x="1224" d="M78 315q0 143 117.5 237.5t320.5 94.5q182 0 287 -82v101q0 76 -57.5 113.5t-153.5 37.5q-88 0 -191.5 -29.5t-169.5 -64.5l-84 203q213 106 467 106q195 0 328 -73.5t133 -229.5v-534q0 -106 29 -195h-270q-10 33 -25 115q-68 -66 -142.5 -103t-193.5 -37 q-178 0 -286.5 96.5t-108.5 243.5zM328 1331q0 96 73.5 163t204.5 67q129 0 204 -67t75 -163q0 -92 -75 -155.5t-204 -63.5q-133 0 -205.5 63.5t-72.5 155.5zM350 315q0 -63 48 -101t134 -38q152 0 271 111v96q-84 72 -232 72q-115 0 -168 -39.5t-53 -100.5zM487 1331 q0 -45 34 -72.5t85 -27.5t85 27.5t34 72.5q0 49 -34 82t-85 33t-85 -33t-34 -82z" />
<glyph unicode="&#xe6;" horiz-adv-x="1918" d="M78 315q0 143 117.5 237.5t320.5 94.5q188 0 291 -82v101q0 76 -59.5 113.5t-155.5 37.5q-88 0 -191.5 -29.5t-169.5 -64.5l-84 203q213 106 467 106q270 0 359 -141l8 -10q61 70 154.5 110.5t191.5 40.5q133 0 243.5 -49t186.5 -169t76 -296q0 -37 -4 -86h-760 q18 -106 94 -175t189 -69q172 0 315 103l129 -174q-195 -147 -467 -148q-262 0 -411 183q-186 -180 -445 -181q-178 0 -286.5 97t-108.5 247zM350 315q0 -63 48 -101t134 -38q176 0 295 137q-12 37 -18 68q-98 74 -238 74q-115 0 -168 -39.5t-53 -100.5zM1073 614h483 q0 98 -68.5 153.5t-156.5 55.5q-203 0 -258 -209z" />
<glyph unicode="&#xe7;" horiz-adv-x="1142" d="M90 504q0 236 154.5 382t382.5 146q256 0 446 -170l-170 -180q-121 119 -256 119q-113 0 -189.5 -82t-76.5 -215t81 -219t195 -86q129 0 269 135l168 -168q-29 -33 -75 -69t-140.5 -76.5t-196.5 -49.5l-16 -37q88 -14 154.5 -58t66.5 -126q0 -94 -98.5 -154.5 t-253.5 -60.5q-102 0 -283 43l39 146q182 -29 221 -29q135 0 135 67q0 37 -40 52.5t-81 15.5q-29 0 -47 -6l-26 59l49 101q-178 39 -295 179t-117 341z" />
<glyph unicode="&#xe8;" horiz-adv-x="1208" d="M90 492q0 229 150.5 384.5t380.5 155.5q205 0 353 -130t148 -386q0 -37 -4 -84h-760q18 -111 92 -177.5t197 -66.5q170 0 307 103l129 -174q-86 -66 -213 -107t-258 -41q-244 0 -383 151t-139 372zM326 1430h274l184 -300h-237zM365 614h481q-2 98 -70.5 153.5 t-157.5 55.5q-196 0 -253 -209z" />
<glyph unicode="&#xe9;" horiz-adv-x="1208" d="M90 492q0 229 150.5 384.5t380.5 155.5q205 0 353 -130t148 -386q0 -37 -4 -84h-760q18 -111 92 -177.5t197 -66.5q170 0 307 103l129 -174q-86 -66 -213 -107t-258 -41q-244 0 -383 151t-139 372zM365 614h481q-2 98 -70.5 153.5t-157.5 55.5q-196 0 -253 -209z M459 1130l184 300h277l-222 -300h-239z" />
<glyph unicode="&#xea;" horiz-adv-x="1208" d="M90 492q0 229 150.5 384.5t380.5 155.5q205 0 353 -130t148 -386q0 -37 -4 -84h-760q18 -111 92 -177.5t197 -66.5q170 0 307 103l129 -174q-86 -66 -213 -107t-258 -41q-244 0 -383 151t-139 372zM270 1133l217 288h271l215 -288h-215l-135 155l-138 -155h-215zM365 614 h481q-2 98 -70.5 153.5t-157.5 55.5q-196 0 -253 -209z" />
<glyph unicode="&#xeb;" horiz-adv-x="1208" d="M90 492q0 229 150.5 384.5t380.5 155.5q205 0 353 -130t148 -386q0 -37 -4 -84h-760q18 -111 92 -177.5t197 -66.5q170 0 307 103l129 -174q-86 -66 -213 -107t-258 -41q-244 0 -383 151t-139 372zM242 1280q0 55 43 96t104 41q63 0 107.5 -41t44.5 -96q0 -57 -44 -96 t-107.5 -39t-105.5 39t-42 96zM365 614h481q-2 98 -70.5 153.5t-157.5 55.5q-196 0 -253 -209zM700 1280q0 55 43 96t106.5 41t107.5 -41t44 -96q0 -57 -44 -96t-107.5 -39t-106.5 39t-43 96z" />
<glyph unicode="&#xec;" horiz-adv-x="587" d="M-2 1430h274l185 -300h-238zM158 0v999h272v-999h-272z" />
<glyph unicode="&#xed;" horiz-adv-x="587" d="M131 1130l184 300h277l-221 -300h-240zM158 0v999h272v-999h-272z" />
<glyph unicode="&#xee;" horiz-adv-x="587" d="M-57 1133l217 288h270l215 -288h-215l-135 155l-137 -155h-215zM158 0v999h272v-999h-272z" />
<glyph unicode="&#xef;" horiz-adv-x="587" d="M-86 1280q0 55 43 96t104 41q63 0 107.5 -41t44.5 -96q0 -57 -44 -96t-107.5 -39t-105.5 39t-42 96zM158 0v999h272v-999h-272zM373 1280q0 55 43 96t106.5 41t107.5 -41t44 -96q0 -57 -44 -96t-107.5 -39t-106.5 39t-43 96z" />
<glyph unicode="&#xf0;" horiz-adv-x="1292" d="M92 492q0 213 137.5 356t343.5 143q156 0 277 -102q-68 135 -209 266l-326 -96l-49 141l236 70q-72 53 -183 123l279 71q139 -94 166 -114l262 77l49 -141l-176 -53q274 -270 275 -678q0 -270 -155 -428t-390 -158q-229 0 -383 153t-154 370zM373 493.5 q0 -122.5 70.5 -208.5t183.5 -86q119 0 193.5 86t74.5 208.5t-73.5 204.5t-194.5 82q-115 0 -184.5 -82t-69.5 -204.5z" />
<glyph unicode="&#xf1;" horiz-adv-x="1249" d="M131 999h250q16 -74 20 -131q137 164 336 164q154 0 259.5 -102.5t105.5 -257.5v-672h-275v662q0 57 -47 98t-118 41q-113 0 -230 -129v-672h-272v715q0 143 -29 284zM227 1208q61 111 123 157t137 46q74 0 148 -51q76 -51 106 -51q53 0 117 94l152 -82 q-113 -205 -260 -205q-70 0 -142 47q-6 4 -19.5 13.5t-19.5 13.5t-16 11t-17.5 10t-17.5 5.5t-18 2.5q-14 0 -26.5 -5.5t-25 -18.5t-18.5 -20.5t-20.5 -29t-18.5 -25.5z" />
<glyph unicode="&#xf2;" horiz-adv-x="1269" d="M90 504q0 225 151.5 376.5t391.5 151.5q242 0 394.5 -151.5t152.5 -376.5q0 -227 -154 -381t-393.5 -154t-391 154t-151.5 381zM338 1430h274l185 -300h-238zM371 504q0 -129 70.5 -219t191.5 -90q123 0 195.5 90t72.5 219q0 127 -72.5 214t-195.5 87q-121 0 -191.5 -87 t-70.5 -214z" />
<glyph unicode="&#xf3;" horiz-adv-x="1269" d="M90 504q0 225 151.5 376.5t391.5 151.5q242 0 394.5 -151.5t152.5 -376.5q0 -227 -154 -381t-393.5 -154t-391 154t-151.5 381zM371 504q0 -129 70.5 -219t191.5 -90q123 0 195.5 90t72.5 219q0 127 -72.5 214t-195.5 87q-121 0 -191.5 -87t-70.5 -214zM471 1130l184 300 h277l-221 -300h-240z" />
<glyph unicode="&#xf4;" horiz-adv-x="1269" d="M90 504q0 225 151.5 376.5t391.5 151.5q242 0 394.5 -151.5t152.5 -376.5q0 -227 -154 -381t-393.5 -154t-391 154t-151.5 381zM283 1133l217 288h270l215 -288h-215l-135 155l-137 -155h-215zM371 504q0 -129 70.5 -219t191.5 -90q123 0 195.5 90t72.5 219 q0 127 -72.5 214t-195.5 87q-121 0 -191.5 -87t-70.5 -214z" />
<glyph unicode="&#xf5;" horiz-adv-x="1269" d="M90 504q0 225 151.5 376.5t391.5 151.5q242 0 394.5 -151.5t152.5 -376.5q0 -227 -154 -381t-393.5 -154t-391 154t-151.5 381zM240 1208q61 111 122.5 157t137.5 46q74 0 147 -51q76 -51 107 -51q53 0 116 94l152 -82q-113 -205 -260 -205q-70 0 -141 47 q-6 4 -19.5 13.5t-20 13.5t-16.5 11t-17 10t-17.5 5.5t-18.5 2.5q-14 0 -26.5 -5.5t-24.5 -18.5t-18.5 -20.5t-20.5 -29t-19 -25.5zM371 504q0 -129 70.5 -219t191.5 -90q123 0 195.5 90t72.5 219q0 127 -72.5 214t-195.5 87q-121 0 -191.5 -87t-70.5 -214z" />
<glyph unicode="&#xf6;" horiz-adv-x="1269" d="M90 504q0 225 151.5 376.5t391.5 151.5q242 0 394.5 -151.5t152.5 -376.5q0 -227 -154 -381t-393.5 -154t-391 154t-151.5 381zM254 1280q0 55 43 96t104 41q63 0 107.5 -41t44.5 -96q0 -57 -44 -96t-107.5 -39t-105.5 39t-42 96zM371 504q0 -129 70.5 -219t191.5 -90 q123 0 195.5 90t72.5 219q0 127 -72.5 214t-195.5 87q-121 0 -191.5 -87t-70.5 -214zM713 1280q0 55 43 96t106.5 41t107.5 -41t44 -96q0 -57 -44 -96t-107.5 -39t-106.5 39t-43 96z" />
<glyph unicode="&#xf7;" d="M154 426v233h1189v-233h-1189zM571 141q0 66 52.5 112t128 46t128 -46t52.5 -112q0 -68 -51.5 -112.5t-129 -44.5t-129 44.5t-51.5 112.5zM571 942.5q0 65.5 52.5 111.5t128 46t128 -46t52.5 -111.5t-52.5 -112t-128 -46.5t-128 46.5t-52.5 112z" />
<glyph unicode="&#xf8;" horiz-adv-x="1269" d="M90 504q0 225 151.5 376.5t393.5 151.5q123 0 229 -45l99 139l147 -104l-92 -131q164 -154 164 -387q0 -227 -154 -381t-393 -154q-123 0 -232 45l-96 -139l-149 105l94 133q-162 155 -162 391zM360 504q0 -100 41 -178l332 475q-43 18 -98 18q-127 0 -201 -90t-74 -225z M535 199q43 -18 100 -19q127 0 202.5 94.5t75.5 229.5q0 94 -43 176z" />
<glyph unicode="&#xf9;" horiz-adv-x="1247" d="M145 328v671h275v-661q0 -59 46 -99t120 -40q117 0 229 129v671h272v-716q0 -150 25 -283h-254q-8 45 -12 129q-143 -162 -336 -162q-154 0 -259.5 102.5t-105.5 258.5zM326 1430h274l184 -300h-237z" />
<glyph unicode="&#xfa;" horiz-adv-x="1247" d="M145 328v671h275v-661q0 -59 46 -99t120 -40q117 0 229 129v671h272v-716q0 -150 25 -283h-254q-8 45 -12 129q-143 -162 -336 -162q-154 0 -259.5 102.5t-105.5 258.5zM459 1130l184 300h277l-222 -300h-239z" />
<glyph unicode="&#xfb;" horiz-adv-x="1247" d="M145 328v671h275v-661q0 -59 46 -99t120 -40q117 0 229 129v671h272v-716q0 -150 25 -283h-254q-8 45 -12 129q-143 -162 -336 -162q-154 0 -259.5 102.5t-105.5 258.5zM270 1133l217 288h271l215 -288h-215l-135 155l-138 -155h-215z" />
<glyph unicode="&#xfc;" horiz-adv-x="1247" d="M145 328v671h275v-661q0 -59 46 -99t120 -40q117 0 229 129v671h272v-716q0 -150 25 -283h-254q-8 45 -12 129q-143 -162 -336 -162q-154 0 -259.5 102.5t-105.5 258.5zM242 1280q0 55 43 96t104 41q63 0 107.5 -41t44.5 -96q0 -57 -44 -96t-107.5 -39t-105.5 39t-42 96z M700 1280q0 55 43 96t106.5 41t107.5 -41t44 -96q0 -57 -44 -96t-107.5 -39t-106.5 39t-43 96z" />
<glyph unicode="&#xfd;" horiz-adv-x="1140" d="M29 999h305l241 -596h13l264 596h281l-674 -1423h-285l260 516zM414 1130l184 300h276l-221 -300h-239z" />
<glyph unicode="&#xfe;" horiz-adv-x="1294" d="M158 -424v1858h272v-531q129 129 283 129q205 0 346 -147.5t141 -384.5q0 -231 -141 -380t-346 -149q-160 0 -283 129v-524h-272zM430 309q119 -109 244 -108q98 0 164.5 84t66.5 215q0 135 -67.5 218t-163.5 83q-131 0 -244 -113v-379z" />
<glyph unicode="&#xff;" horiz-adv-x="1140" d="M29 999h305l241 -596h13l264 596h281l-674 -1423h-285l260 516zM197 1280q0 55 43 96t104 41q63 0 107.5 -41t44.5 -96q0 -57 -44 -96t-107.5 -39t-105.5 39t-42 96zM655 1280q0 55 43 96t106.5 41t107.5 -41t44 -96q0 -57 -44 -96t-107.5 -39t-106.5 39t-43 96z" />
<glyph unicode="&#x152;" horiz-adv-x="2555" d="M96 672q0 293 217 499.5t529 206.5q293 0 469 -196v155h1114v-254h-821v-260h493v-252h-493v-319h868v-252h-1161v154q-180 -195 -469 -195q-313 0 -529.5 207t-216.5 506zM403 672q0 -190 128 -325.5t311 -135.5q201 0 339 135t138 326q0 186 -138.5 319t-338.5 133 q-184 0 -311.5 -133t-127.5 -319z" />
<glyph unicode="&#x153;" horiz-adv-x="2019" d="M88 504q0 223 155.5 375.5t389.5 152.5q123 0 231.5 -52t173.5 -142q66 90 169.5 142t219.5 52q133 0 244 -49t186.5 -169t75.5 -296q0 -39 -4 -86h-760q18 -106 94 -175t189 -69q172 0 315 103l129 -174q-195 -147 -466 -148q-129 0 -232.5 50.5t-165.5 138.5 q-68 -88 -174 -138.5t-225 -50.5q-231 0 -388 156t-157 379zM369 504q0 -129 71.5 -219t192.5 -90t194.5 90t73.5 219q0 127 -72.5 214t-195.5 87q-121 0 -192.5 -87t-71.5 -214zM1178 614h479q0 98 -68.5 153.5t-156.5 55.5q-199 0 -254 -209z" />
<glyph unicode="&#x178;" horiz-adv-x="1372" d="M6 1337h365l325 -465l324 465h344l-530 -727v-610h-295v610zM305 1634q0 55 43 96.5t105 41.5q63 0 107 -41t44 -97q0 -57 -44 -96t-107.5 -39t-105.5 39t-42 96zM764 1634q0 55 43 96.5t106.5 41.5t107.5 -41t44 -97q0 -57 -44 -96t-107.5 -39t-106.5 39t-43 96z" />
<glyph unicode="&#x2c6;" horiz-adv-x="1015" d="M156 1133l217 288h270l215 -288h-215l-135 155l-137 -155h-215z" />
<glyph unicode="&#x2dc;" horiz-adv-x="1015" d="M113 1208q61 111 122.5 157t137.5 46q74 0 147 -51q76 -51 107 -51q53 0 116 94l152 -82q-113 -205 -260 -205q-70 0 -141 47q-6 4 -19.5 13.5t-19.5 13.5l-16.5 11t-17.5 10t-17.5 5.5t-18.5 2.5q-14 0 -26.5 -5.5t-24.5 -18.5t-18.5 -20.5t-20.5 -29t-19 -25.5z" />
<glyph unicode="&#x2000;" horiz-adv-x="933" />
<glyph unicode="&#x2001;" horiz-adv-x="1869" />
<glyph unicode="&#x2002;" horiz-adv-x="933" />
<glyph unicode="&#x2003;" horiz-adv-x="1869" />
<glyph unicode="&#x2004;" horiz-adv-x="622" />
<glyph unicode="&#x2005;" horiz-adv-x="466" />
<glyph unicode="&#x2006;" horiz-adv-x="311" />
<glyph unicode="&#x2007;" horiz-adv-x="311" />
<glyph unicode="&#x2008;" horiz-adv-x="233" />
<glyph unicode="&#x2009;" horiz-adv-x="372" />
<glyph unicode="&#x200a;" horiz-adv-x="102" />
<glyph unicode="&#x2010;" horiz-adv-x="827" d="M127 406v253h571v-253h-571z" />
<glyph unicode="&#x2011;" horiz-adv-x="827" d="M127 406v253h571v-253h-571z" />
<glyph unicode="&#x2012;" horiz-adv-x="827" d="M127 406v253h571v-253h-571z" />
<glyph unicode="&#x2013;" horiz-adv-x="1288" d="M129 426v233h1030v-233h-1030z" />
<glyph unicode="&#x2014;" horiz-adv-x="2217" d="M129 426v233h1960v-233h-1960z" />
<glyph unicode="&#x2018;" horiz-adv-x="622" d="M94 979q0 88 35 161.5t95.5 123t119.5 81t127 54.5l61 -144q-84 -20 -164.5 -77.5t-80.5 -122.5v-17q41 10 59 11q66 0 111 -42t45 -104q0 -68 -53.5 -114t-131.5 -46q-92 0 -157.5 67t-65.5 169z" />
<glyph unicode="&#x2019;" horiz-adv-x="618" d="M98 864q84 20 165 77.5t81 123.5v16q-41 -10 -57 -10q-66 0 -111 42t-45 106q0 68 53.5 113.5t130.5 45.5q90 0 156 -67.5t66 -169.5q0 -88 -35 -161t-94.5 -122t-119 -81t-126.5 -54z" />
<glyph unicode="&#x201a;" horiz-adv-x="632" d="M84 -209q84 20 165 77.5t81 123.5v16q-41 -10 -60 -10q-66 0 -110.5 42t-44.5 105q0 68 53 114t131 46q92 0 157.5 -66.5t65.5 -170.5q0 -88 -34.5 -161t-94 -122t-120 -81t-128.5 -54z" />
<glyph unicode="&#x201c;" horiz-adv-x="1187" d="M94 979q0 88 35 161.5t95.5 123t119.5 81t127 54.5l61 -144q-84 -20 -164.5 -77.5t-80.5 -122.5v-17q41 10 59 11q66 0 111 -42t45 -104q0 -68 -53.5 -114t-131.5 -46q-92 0 -157.5 67t-65.5 169zM659 979q0 88 35 161.5t95.5 123t120 81t126.5 54.5l62 -144 q-84 -20 -165 -77.5t-81 -122.5v-17q41 10 59 11q66 0 111 -42t45 -104q0 -68 -53 -114t-131 -46q-92 0 -158 67t-66 169z" />
<glyph unicode="&#x201d;" horiz-adv-x="1183" d="M98 864q84 20 165 77.5t81 123.5v16q-41 -10 -57 -10q-66 0 -111 42t-45 106q0 68 53.5 113.5t130.5 45.5q90 0 156 -67.5t66 -169.5q0 -88 -35 -161t-94.5 -122t-119 -81t-126.5 -54zM664 864q84 20 164.5 77.5t80.5 123.5v16q-41 -10 -57 -10q-66 0 -111 42t-45 106 q0 68 53.5 113.5t131.5 45.5q90 0 155.5 -67.5t65.5 -169.5q0 -88 -35 -161t-94.5 -122t-118.5 -81t-127 -54z" />
<glyph unicode="&#x201e;" horiz-adv-x="1198" d="M84 -209q84 20 165 77.5t81 123.5v16q-41 -10 -60 -10q-66 0 -110.5 42t-44.5 105q0 68 53 114t131 46q92 0 157.5 -66.5t65.5 -170.5q0 -88 -34.5 -161t-94 -122t-120 -81t-128.5 -54zM649 -209q84 20 165 77.5t81 123.5v16q-41 -10 -59 -10q-66 0 -111 42t-45 105 q0 68 53 114t131 46q92 0 157.5 -66.5t65.5 -170.5q0 -88 -34.5 -161t-94 -122t-120 -81t-127.5 -54z" />
<glyph unicode="&#x2022;" horiz-adv-x="927" d="M111 598q0 139 103 236.5t248.5 97.5t249 -97.5t103.5 -236.5q0 -137 -103.5 -234.5t-249 -97.5t-248.5 97.5t-103 234.5z" />
<glyph unicode="&#x2026;" horiz-adv-x="2048" d="M168 141.5q0 71.5 55.5 122.5t135 51t135 -51t55.5 -122.5t-55.5 -122t-135.5 -50.5q-82 0 -136 50.5t-54 122zM831 141.5q0 71.5 55.5 122.5t135.5 51t135 -51t55 -122.5t-55 -122t-135 -50.5q-82 0 -136.5 50.5t-54.5 122zM1495 141.5q0 71.5 55.5 122.5t135 51 t135 -51t55.5 -122.5t-55.5 -122t-134.5 -50.5q-82 0 -136.5 50.5t-54.5 122z" />
<glyph unicode="&#x202f;" horiz-adv-x="372" />
<glyph unicode="&#x2039;" horiz-adv-x="735" d="M94 457v116l207 258h307l-258 -309v-16l258 -305h-307z" />
<glyph unicode="&#x203a;" horiz-adv-x="735" d="M127 201l256 305v16l-256 309h305l209 -258v-116l-209 -256h-305z" />
<glyph unicode="&#x205f;" horiz-adv-x="466" />
<glyph unicode="&#x20ac;" horiz-adv-x="1599" d="M106 375v147h170q-2 18 -2 60q0 20 5 65h-173v150h207q72 180 243 291.5t394 111.5q143 0 282.5 -44t237.5 -118l-153 -184q-150 111 -346 111q-215 0 -336 -168h465v-150h-527q-6 -33 -6 -67q0 -39 4 -58h529v-147h-471q53 -82 144 -130t204 -48q98 0 196.5 37.5 t169.5 99.5l154 -182q-238 -190 -543 -191q-227 0 -401 114.5t-242 299.5h-205z" />
<glyph unicode="&#x2122;" horiz-adv-x="1744" d="M100 1194v143h617v-143h-219v-526h-179v526h-219zM862 668v669h174l191 -333h2l192 333h168v-669h-178v354h-6l-174 -299h-19l-176 299h-6v-354h-168z" />
<glyph unicode="&#xe000;" horiz-adv-x="1000" d="M0 1000h1000v-1000h-1000v1000z" />
<glyph unicode="&#xfb01;" horiz-adv-x="1363" d="M68 797v202h172v158q0 156 95 227.5t228 71.5q141 0 211 -35l-29 -209q-68 23 -139 23q-43 0 -68.5 -20.5t-25.5 -57.5v-158h246v-202h-246v-797h-272v797h-172zM907 1302.5q0 61.5 47 105.5t115 44t117 -44t49 -105q0 -59 -48 -102.5t-118 -43.5q-68 0 -115 42 t-47 103.5zM934 0v999h274v-999h-274z" />
<glyph unicode="&#xfb02;" horiz-adv-x="1376" d="M68 797v202h172v158q0 156 95 227.5t228 71.5q141 0 211 -35l-29 -209q-68 23 -139 23q-43 0 -68.5 -20.5t-25.5 -57.5v-158h246v-202h-246v-797h-272v797h-172zM940 0v1434h272v-1434h-272z" />
<glyph unicode="&#xfb03;" horiz-adv-x="2052" d="M68 797v202h172v158q0 156 95 227.5t228 71.5q141 0 211 -35l-29 -209q-68 23 -139 23q-43 0 -68.5 -20.5t-25.5 -57.5v-158h416v158q0 156 95 227.5t228 71.5q141 0 211 -35l-28 -209q-68 23 -140 23q-43 0 -68.5 -20.5t-25.5 -57.5v-158h246v-202h-246v-797h-272v797 h-416v-797h-272v797h-172zM1595 1302.5q0 61.5 47.5 105.5t115 44t116.5 -44t49 -105q0 -59 -48 -102.5t-118 -43.5q-68 0 -115 42t-47 103.5zM1622 0v999h274v-999h-274z" />
<glyph unicode="&#xfb04;" horiz-adv-x="2064" d="M68 797v202h172v158q0 156 95 227.5t228 71.5q141 0 211 -35l-29 -209q-68 23 -139 23q-43 0 -68.5 -20.5t-25.5 -57.5v-158h416v158q0 156 95 227.5t228 71.5q141 0 211 -35l-28 -209q-68 23 -140 23q-43 0 -68.5 -20.5t-25.5 -57.5v-158h246v-202h-246v-797h-272v797 h-416v-797h-272v797h-172zM1628 0v1434h273v-1434h-273z" />
</font>
</defs>
</svg>
