<?xml version="1.0" standalone="no"?>
<!DOCTYPE svg PUBLIC "-//W3C//DTD SVG 1.1//EN" "http://www.w3.org/Graphics/SVG/1.1/DTD/svg11.dtd" >
<svg xmlns="http://www.w3.org/2000/svg">
<defs>
<font id="EndzoneSlab-Medium" horiz-adv-x="907" >
<font-face  font-family="Endzone Slab Medium" font-weight="600" font-stretch="normal" units-per-em="2048" panose-1="0 0 0 0 0 0 0 0 0 0" ascent="1536" descent="-512" x-height="1065" cap-height="1434" bbox="-43 -410 2402 1845" underline-thickness="102" underline-position="-102" unicode-range="U+0020-U+FB02"/>
<missing-glyph horiz-adv-x="460" />
<glyph glyph-name="fi" unicode="&#xfb01;" horiz-adv-x="1402" d="M629 0h-512v152l116 30v692h-151v150l151 41v176q0 129 82 202t230 73q125 0 203 -31v-193q-68 23 -144 23q-125 0 -125 -103v-147h232v-191h-232v-692l150 -39v-143zM1341 0h-475v152l117 30v701l-117 30v152h359v-883l116 -30v-152zM940 1337q0 63 41 102.5t113 39.5 q70 0 110.5 -39t40.5 -103q0 -66 -41 -104.5t-110 -38.5q-72 0 -113 38.5t-41 104.5z" />
<glyph glyph-name="fl" unicode="&#xfb02;" horiz-adv-x="1392" d="M629 0h-512v152l116 30v692h-151v150l151 41v176q0 129 82 202t230 73q125 0 203 -31v-193q-68 23 -144 23q-125 0 -125 -103v-147h232v-191h-232v-692l150 -39v-143zM1331 0h-475v152l117 30v1131l-117 30v152h358v-1313l117 -30v-152z" />
<glyph glyph-name=".notdef" horiz-adv-x="460" />
<glyph glyph-name=".null" horiz-adv-x="0" />
<glyph glyph-name="nonmarkingreturn" horiz-adv-x="682" />
<glyph glyph-name="space" unicode=" "  horiz-adv-x="460" />
<glyph glyph-bame="tab" unicode="&#x09;" horiz-adv-x="460" />
<glyph glyph-bame="uni00A0" unicode="&#xa0;" horiz-adv-x="460" />
<glyph glyph-name="exclam" unicode="!" horiz-adv-x="512" d="M170 440l-66 994h304l-66 -994h-172zM102 135.5q0 65.5 45.5 109.5t108.5 44q66 0 111 -45t45 -109q0 -66 -46.5 -110.5t-109.5 -44.5t-108.5 45t-45.5 110.5z" />
<glyph glyph-name="quotedbl" unicode="&#x22;" horiz-adv-x="794" d="M129 942l-45 492h270l-47 -492h-178zM487 942l-45 492h271l-47 -492h-179z" />
<glyph glyph-name="numbersign" unicode="#" horiz-adv-x="1228" d="M78 1065h194v348h205v-348h277v348h204v-348h195v-205h-195v-307h195v-205h-195v-348h-204v348h-277v-348h-205v348h-194v205h194v307h-194v205zM477 860v-307h277v307h-277z" />
<glyph glyph-name="dollar" unicode="$" horiz-adv-x="1118" d="M496 391q221 0 221 113q0 61 -52.5 86.5t-181.5 36.5q-201 14 -291 81.5t-90 196.5q0 164 105.5 244t343.5 80l70 186h174l-84 -205q106 -25 215 -84l-80 -180q-156 82 -307 82q-102 0 -149.5 -22.5t-47.5 -77.5q0 -57 52 -79t179 -32q203 -16 293 -87t90 -212 q0 -162 -111.5 -245t-355.5 -83l-69 -190h-174l82 205q-139 27 -260 98l79 182q175 -94 349 -94z" />
<glyph glyph-name="percent" unicode="%" horiz-adv-x="1720" d="M270 1155v-180q0 -109 129 -109t129 109v180q0 111 -129 111t-129 -111zM733 1157v-184q0 -276 -334 -277q-332 0 -331 277v184q0 276 331 277q334 -1 334 -277zM528 0h-237l903 1423h238zM1450 268v181q0 111 -129 110.5t-129 -110.5v-181q0 -109 129 -109t129 109z M989 266v185q0 276 332 276q334 0 334 -276v-185q0 -276 -334 -276q-332 0 -332 276z" />
<glyph glyph-name="ampersand" unicode="&#x26;" horiz-adv-x="1419" d="M965 1128q0 -137 -79 -220t-268 -175q127 -147 351 -311q66 100 88 254l-99 24v160h445v-160l-105 -26q-31 -221 -141 -379q129 -84 213 -127l-125 -188q-141 78 -246 149q-195 -150 -464 -149q-225 0 -347 100t-122 303q0 145 55 236.5t190 173.5q-98 168 -98 315 q0 346 387 346q365 0 365 -326zM807 266q-236 182 -383 367q-117 -80 -117 -219q0 -109 66.5 -162t177.5 -53q145 -1 256 67zM444 1098q0 -94 62 -207q135 63 183 106t48 123q0 63 -36.5 97t-102.5 34q-72 0 -113 -40.5t-41 -112.5z" />
<glyph glyph-name="quotesingle" unicode="'" horiz-adv-x="436" d="M129 942l-45 492h270l-47 -492h-178z" />
<glyph glyph-name="parenleft" unicode="(" horiz-adv-x="501" d="M297 614.5q0 -288.5 47 -490.5t127 -390h-205q-205 381 -205 880.5t205 880.5h205q-80 -188 -127 -390t-47 -490.5z" />
<glyph glyph-name="parenright" unicode=")" horiz-adv-x="501" d="M205 614.5q0 288.5 -47 490.5t-127 390h205q205 -381 204.5 -880.5t-204.5 -880.5h-205q80 188 127 390t47 490.5z" />
<glyph glyph-name="asterisk" unicode="*" horiz-adv-x="675" d="M53 1178l37 114l172 -30l25 172h119l24 -172l172 30l37 -114l-158 -76l84 -156l-96 -69l-123 124l-121 -124l-96 69l82 156z" />
<glyph glyph-name="plus" unicode="+" horiz-adv-x="1126" d="M61 809h400v399h205v-399h399v-205h-399v-399h-205v399h-400v205z" />
<glyph glyph-name="comma" unicode="," horiz-adv-x="512" d="M412 129q0 -193 -215 -397l-93 67q78 78 78 133q0 41 -40 97.5t-40 105.5q0 66 45.5 110t108.5 44q66 0 111 -46t45 -114z" />
<glyph glyph-name="hyphen" unicode="-" horiz-adv-x="716" d="M614 707v-187h-512v187h512z" />
<glyph glyph-name="period" unicode="." horiz-adv-x="512" d="M102 135.5q0 65.5 45.5 109.5t108.5 44q66 0 111 -45t45 -109q0 -66 -46.5 -110.5t-109.5 -44.5t-108.5 45t-45.5 110.5z" />
<glyph glyph-name="slash" unicode="/" horiz-adv-x="1054" d="M328 -61h-256l655 1556h256z" />
<glyph glyph-name="zero" unicode="0" horiz-adv-x="1277" d="M639 1217q-170 0 -218 -75t-48 -251v-367q0 -178 48 -251.5t218 -73.5t219 74.5t49 250.5v367q0 176 -49 251t-219 75zM639 1434q270 0 399 -118t129 -384v-451q0 -264 -130 -382.5t-398 -118.5t-398 118.5t-130 382.5v451q0 266 129 384t399 118z" />
<glyph glyph-name="one" unicode="1" horiz-adv-x="847" d="M111 1366l286 74h181v-1235l210 -55v-150h-677v150l213 55v1012l-213 -17v166z" />
<glyph glyph-name="two" unicode="2" horiz-adv-x="1216" d="M956 389h170v-389h-1042v113q0 176 50 291.5t145.5 192.5t277.5 165q195 95 234 123q77 57 77 141v4q0 113 -61.5 158t-188.5 45q-135 0 -201.5 -51.5t-58.5 -173.5v-4h-247v4q-14 229 110.5 327.5t399.5 98.5q268 0 381.5 -94.5t113.5 -303.5v-4q0 -47 -12 -88 t-24.5 -70.5t-51.5 -65.5l-60.5 -54.5t-87 -55l-94 -52t-118.5 -60.5q-203 -104 -269.5 -175t-66.5 -206q57 0 286.5 1t286.5 1z" />
<glyph glyph-name="three" unicode="3" horiz-adv-x="1216" d="M590 -20q-260 0 -399.5 101t-116.5 333v4h243v-4q-8 -125 49.5 -178.5t223.5 -53.5q162 0 232.5 53.5t70.5 167.5v5q0 121 -66.5 183t-220.5 62h-157v183h157q119 0 172 51t53 153v4q0 96 -55 142.5t-184 46.5q-127 0 -189.5 -51.5t-54.5 -169.5v-4h-244v4 q-23 217 101.5 319.5t386.5 102.5q264 0 378.5 -97.5t114.5 -292.5v-4q0 -203 -161 -290q223 -96 223 -355v-4q0 -411 -557 -411z" />
<glyph glyph-name="four" unicode="4" horiz-adv-x="1212" d="M47 559l633 881h242v-869h213v-182h-213v-190l139 -37v-162h-545v160l152 39v190h-621v170zM668 571l2 545l-383 -547z" />
<glyph glyph-name="five" unicode="5" horiz-adv-x="1259" d="M608 -20q-555 0 -512 434v4h244v-4q0 -125 56.5 -178.5t211.5 -53.5q166 0 234.5 70t68.5 215v4q0 145 -66.5 215t-209.5 70q-250 0 -307 -170h-201v833h956v-221l-727 6v-373q113 127 342 127q225 0 347 -122.5t122 -360.5v-4q0 -491 -559 -491z" />
<glyph glyph-name="six" unicode="6" horiz-adv-x="1261" d="M1184 475q0 -496 -555 -495q-274 0 -409.5 145t-135.5 422v4q0 178 52 328.5t143.5 259t197 184.5t230.5 131l276 -57v-33q-502 -217 -614 -578q143 156 370 156q444 0 445 -463v-4zM930 463v4q0 272 -258 272q-106 0 -196.5 -51t-147.5 -129v-4q-8 -373 301 -373 q156 0 228.5 68t72.5 213z" />
<glyph glyph-name="seven" unicode="7" horiz-adv-x="1134" d="M1069 1419v-166q-225 -266 -338 -562t-113 -691h-278q0 344 127 656.5t332 560.5l-494 -5l-47 -172h-172v379h983z" />
<glyph glyph-name="eight" unicode="8" horiz-adv-x="1236" d="M913 406v4q0 121 -67.5 180t-227 59t-227 -59.5t-67.5 -179.5v-4q0 -111 69.5 -164.5t225 -53.5t225 53.5t69.5 164.5zM618 840q129 0 181.5 52t52.5 148v4q0 180 -233.5 180.5t-233.5 -180.5v-4q0 -200 233 -200zM618.5 -20q-548.5 0 -548.5 421v5q0 244 217 344 q-156 88 -156 288v4q0 190 110.5 291t376.5 101q268 0 378 -100.5t110 -291.5v-4q0 -201 -156 -288q217 -100 217 -344v-5q0 -421 -548.5 -421z" />
<glyph glyph-name="nine" unicode="9" horiz-adv-x="1261" d="M78 940q0 494 555 494q545 0 545 -566v-4q0 -178 -52.5 -329.5t-144.5 -260t-196.5 -184.5t-229.5 -131l-276 57v35q500 217 614 576q-145 -156 -371 -156q-444 0 -444 465v4zM332 950v-4q0 -270 258 -270q106 0 197.5 51t146.5 129v4q4 184 -73 278.5t-228 94.5 q-156 0 -228.5 -68t-72.5 -215z" />
<glyph glyph-name="colon" unicode=":" horiz-adv-x="512" d="M102 135.5q0 65.5 45.5 109.5t108.5 44q66 0 111 -45t45 -109q0 -66 -46.5 -110.5t-109.5 -44.5t-108.5 45t-45.5 110.5zM102 809q0 63 45.5 108.5t108.5 45.5q66 0 111 -45.5t45 -109t-46.5 -109.5t-109.5 -46t-108.5 45t-45.5 111z" />
<glyph glyph-name="semicolon" unicode=";" horiz-adv-x="512" d="M102 809q0 63 45.5 108.5t108.5 45.5q66 0 111 -45.5t45 -109t-46.5 -109.5t-109.5 -46t-108.5 45t-45.5 111zM412 129q0 -193 -215 -397l-93 67q78 78 78 133q0 41 -40 97.5t-40 105.5q0 66 45.5 110t108.5 44q66 0 111 -46t45 -114z" />
<glyph glyph-name="less" unicode="&#x3c;" horiz-adv-x="1126" d="M1065 205l-1004 389v235l1004 390v-230l-731 -276l731 -277v-231z" />
<glyph glyph-name="equal" unicode="=" horiz-adv-x="1126" d="M61 604h1004v-205h-1004v205zM61 1014h1004v-205h-1004v205z" />
<glyph glyph-name="greater" unicode="&#x3e;" horiz-adv-x="1126" d="M1065 594l-1004 -389v231l730 277l-730 276v230l1004 -390v-235z" />
<glyph glyph-name="question" unicode="?" horiz-adv-x="1050" d="M326 135q0 63 45 108.5t110 45.5q63 0 108.5 -44t45.5 -109.5t-45 -110.5t-108.5 -45t-109.5 44.5t-46 110.5zM553 440h-147q-135 293 126 437q124 68 151 98q36 40 36 104q0 86 -56.5 118t-170.5 32q-174 0 -334 -90l-92 204q190 111 452 111q467 0 467 -358 q0 -49 -7 -90t-27.5 -75t-36 -55.5t-55.5 -49l-57.5 -39t-72.5 -42l-74 -40.5q-84 -47 -105.5 -107t3.5 -158z" />
<glyph glyph-name="at" unicode="@" horiz-adv-x="1650" d="M1219 242q106 10 168.5 114.5t62.5 294.5q0 276 -139.5 394t-466.5 118q-324 0 -470.5 -155.5t-146.5 -485t146.5 -485.5t470.5 -156q365 0 575 80l39 -113q-201 -94 -614 -94q-389 0 -575.5 191.5t-186.5 576.5t186.5 576.5t575.5 191.5q385 0 563 -161.5t178 -487.5 q0 -145 -38 -259t-135 -191.5t-247 -77.5h-149v123q-100 -141 -295 -142q-303 0 -303 340v178q0 338 303 338q195 0 295 -141v123h203v-690zM1001 639q-92 121 -210 121q-80 0 -117 -38t-37 -130v-139q0 -92 37 -130t117 -38q117 0 210 123v231z" />
<glyph glyph-name="A" unicode="A" horiz-adv-x="1456" d="M489 408l-67 -209l151 -39v-160h-532v164l127 35l412 1235h299l411 -1235l125 -35v-164h-541v160l152 39l-68 209h-469zM725 1165l-176 -575h350z" />
<glyph glyph-name="B" unicode="B" horiz-adv-x="1380" d="M92 1434h727q233 0 338 -93.5t105 -291.5v-5q0 -201 -177 -280q238 -84 238 -342v-4q0 -215 -118 -316.5t-363 -101.5h-750v164l131 35v1036l-131 35v164zM1065 428q0 121 -60.5 173t-224.5 52h-301v-446h305q162 0 221.5 51t59.5 170zM1004 1036q0 102 -50.5 146.5 t-191.5 44.5h-283v-385h291q133 0 183.5 48t50.5 146z" />
<glyph glyph-name="C" unicode="C" horiz-adv-x="1323" d="M1231 68q-182 -88 -490 -88q-367 0 -513 168.5t-146 566.5v4q0 397 146.5 566t512.5 169q313 0 490 -88v-338h-170l-51 184q-100 29 -262 29q-240 0 -320 -117.5t-80 -404.5v-4q0 -287 80 -404.5t320 -117.5q152 0 262 28l51 185h170v-338z" />
<glyph glyph-name="D" unicode="D" horiz-adv-x="1425" d="M692 0h-600v164l131 35v1036l-131 35v164h600q367 0 509 -162t142 -553v-4q0 -391 -142 -553t-509 -162zM479 1227v-1020h232q98 0 164.5 21.5t106.5 57.5t61.5 102.5t28.5 139t7 187.5v4q0 115 -7 187.5t-28.5 139t-61.5 102.5t-106.5 57.5t-164.5 21.5h-232z" />
<glyph glyph-name="E" unicode="E" horiz-adv-x="1310" d="M479 637v-430h541l49 182h170v-389h-1147v164l131 35v1036l-131 35v164h1147v-390h-170l-49 183h-541v-398h322l30 117h146v-426h-146l-30 117h-322z" />
<glyph glyph-name="F" unicode="F" horiz-adv-x="1263" d="M983 915v-426h-143l-31 117h-330v-407l150 -39v-160h-537v164l131 35v1036l-131 35v164h1131v-390h-170l-49 183h-525v-428h330l31 116h143z" />
<glyph glyph-name="G" unicode="G" horiz-adv-x="1406" d="M836 557v158h526v-162l-129 -35v-518h-180l-23 84q-143 -104 -344 -104q-324 0 -464 172t-140 563v4q0 395 149.5 565t513.5 170q313 0 492 -88v-338h-170l-51 184q-102 29 -264 29q-238 0 -321 -120t-83 -402v-4q0 -281 73 -401.5t273 -120.5q176 0 295 88l-4 237z" />
<glyph glyph-name="H" unicode="H" horiz-adv-x="1591" d="M1114 645h-635v-446l150 -39v-160h-537v164l131 35v1036l-131 35v164h537v-160l-150 -39v-397h635v397l-151 39v160h536v-164l-129 -35v-1036l129 -35v-164h-536v160l151 39v446z" />
<glyph glyph-name="I" unicode="I" horiz-adv-x="761" d="M659 0h-557v160l152 39v1036l-152 39v160h557v-160l-149 -39v-1036l149 -39v-160z" />
<glyph glyph-name="J" unicode="J" horiz-adv-x="882" d="M438 340v895l-149 39v160h542v-164l-131 -35v-905q0 -168 -96 -259t-270 -91q-156 0 -252 51l39 207q78 -41 172 -41q145 0 145 143z" />
<glyph glyph-name="K" unicode="K" horiz-adv-x="1454" d="M1233 1239l-387 -414l446 -630l127 -33v-162h-559v164l105 29l-306 444l-180 -193v-245l152 -39v-160h-539v164l131 35v1036l-131 35v164h539v-160l-152 -39v-487l455 495l-98 29v162h524v-162z" />
<glyph glyph-name="L" unicode="L" horiz-adv-x="1181" d="M479 1235v-1028h443l49 182h170v-389h-1049v164l131 35v1036l-131 35v164h537v-160z" />
<glyph glyph-name="M" unicode="M" horiz-adv-x="1837" d="M565 1434l353 -830l354 830h473v-164l-129 -35v-1036l129 -35v-164h-539v160l152 39l14 886l-350 -819h-207l-350 819l14 -886l150 -39v-160h-537v164l131 35v1036l-131 35v164h473z" />
<glyph glyph-name="N" unicode="N" horiz-adv-x="1554" d="M1372 0h-317l-609 1098l13 -899l149 -39v-160h-516v164l131 35v1036l-131 35v164h451l606 -1096l-12 897l-150 39v160h516v-164l-131 -35v-1235z" />
<glyph glyph-name="O" unicode="O" horiz-adv-x="1445" d="M82 715v4q0 399 141.5 567t499.5 168t499.5 -168t141.5 -567v-4q0 -397 -141.5 -566t-499.5 -169t-499.5 169t-141.5 566zM1100 715v4q0 291 -72 406.5t-305 115.5q-121 0 -195.5 -29.5t-113.5 -99.5t-52.5 -159t-13.5 -234v-4q0 -145 13.5 -234.5t52.5 -159t113.5 -99 t195.5 -29.5q233 0 305 115.5t72 406.5z" />
<glyph glyph-name="P" unicode="P" horiz-adv-x="1314" d="M479 532v-333l150 -39v-160h-537v164l131 35v1036l-131 35v164h680q258 0 369.5 -107.5t111.5 -341.5v-4q0 -233 -111.5 -341t-369.5 -108h-293zM999 979q0 135 -49 191.5t-188 56.5h-283v-494h283q139 0 188 56.5t49 189.5z" />
<glyph glyph-name="Q" unicode="Q" horiz-adv-x="1445" d="M82 715v4q0 399 141.5 567t499.5 168t499.5 -168t141.5 -567v-4q0 -367 -117 -533q111 -53 207 -65l-47 -221q-180 27 -344 139q-135 -55 -340 -55q-358 0 -499.5 169t-141.5 566zM1100 715v4q0 291 -72 406.5t-305 115.5q-121 0 -195.5 -29.5t-113.5 -99.5t-52.5 -159 t-13.5 -234v-4q0 -145 13.5 -234.5t52.5 -159t113.5 -99t195.5 -29.5q88 0 154 18q-72 76 -148 182l100 135q80 -113 201 -204q70 110 70 391z" />
<glyph glyph-name="R" unicode="R" horiz-adv-x="1454" d="M1397 0h-523v164l103 26l-207 402h-291v-393l150 -39v-160h-537v164l131 35v1036l-131 35v164h748q258 0 371.5 -100.5t113.5 -321.5q0 -342 -297 -391l240 -422l129 -35v-164zM1071 1012q0 119 -51 167t-193 48h-348v-428h348q139 0 191.5 48t52.5 165z" />
<glyph glyph-name="S" unicode="S" horiz-adv-x="1286" d="M678 1245q-170 0 -251 -42t-81 -152q0 -100 66.5 -137t253.5 -64q319 -47 436 -132t117 -302q0 -436 -615 -436q-309 0 -520 104v322h170l47 -170q123 -45 293 -46q199 0 281.5 49.5t82.5 163.5q0 111 -73.5 155t-278.5 73q-301 45 -410.5 133t-109.5 287q0 403 582 403 q309 0 487 -88v-338h-170l-53 184q-102 33 -254 33z" />
<glyph glyph-name="T" unicode="T" horiz-adv-x="1361" d="M403 160l150 39v1028h-281l-49 -183h-172v390h1260v-390h-170l-51 183h-281v-1028l152 -39v-160h-558v160z" />
<glyph glyph-name="U" unicode="U" horiz-adv-x="1495" d="M428 1235v-758q0 -141 68.5 -211.5t255.5 -70.5q184 0 253.5 70.5t69.5 211.5v758l-151 39v160h536v-164l-129 -35v-725q0 -135 -26.5 -229.5t-91 -165t-179 -103t-286.5 -32.5q-227 0 -356.5 61t-177.5 172t-48 293v729l-131 35v164h543v-160z" />
<glyph glyph-name="V" unicode="V" horiz-adv-x="1456" d="M731 268l303 967l-149 39v160h530v-164l-125 -35l-411 -1235h-299l-412 1235l-127 35v164h541v-160l-150 -39z" />
<glyph glyph-name="W" unicode="W" horiz-adv-x="2058" d="M442 0l-260 1235l-127 35v164h541v-160l-150 -39l162 -907l279 1106h291l278 -1112l164 913l-150 39v160h533v-164l-127 -35l-260 -1235h-313l-275 1075l-272 -1075h-314z" />
<glyph glyph-name="X" unicode="X" horiz-adv-x="1466" d="M729 565l-262 -366l133 -37v-162h-543v164l133 35l381 532l-356 504l-131 35v164h555v-162l-133 -37l231 -330l238 330l-133 37v162h542v-164l-133 -35l-356 -494l383 -542l131 -35v-164h-555v162l133 37z" />
<glyph glyph-name="Y" unicode="Y" horiz-adv-x="1406" d="M713 717l272 518l-143 39v160h538v-164l-129 -35l-420 -729v-307l152 -39v-160h-557v160l149 39v307l-417 729l-131 35v164h555v-160l-144 -39z" />
<glyph glyph-name="Z" unicode="Z" horiz-adv-x="1259" d="M1178 1212l-830 -1003l639 2l51 178h170v-389h-1157v221l830 1006l-562 -2l-51 -181h-170v390h1080v-222z" />
<glyph glyph-name="bracketleft" unicode="[" horiz-adv-x="471" d="M61 1495h359v-164h-152v-1433h152v-164h-359v1761z" />
<glyph glyph-name="backslash" unicode="\" horiz-adv-x="1054" d="M983 -61h-256l-655 1556h256z" />
<glyph glyph-name="bracketright" unicode="]" horiz-adv-x="471" d="M51 1495h359v-1761h-359v164h152v1433h-152v164z" />
<glyph glyph-name="asciicircum" unicode="^" horiz-adv-x="1126" d="M51 614l400 820h227l397 -820h-229l-283 592l-280 -592h-232z" />
<glyph glyph-name="underscore" unicode="_" horiz-adv-x="1024" d="M932 -211v-178h-840v178h840z" />
<glyph glyph-name="grave" unicode="`" d="M438 1434l113 -287h-195l-174 287h256z" />
<glyph glyph-name="a" unicode="a" horiz-adv-x="1132" d="M135 997q156 88 395 88q248 0 342.5 -92t94.5 -288l-2 -523l116 -30v-152h-338v145q-43 -68 -132 -116.5t-226 -48.5q-141 0 -232.5 85t-91.5 224q0 111 43 183.5t134.5 110.5t204 53t280.5 17v56q0 96 -40 139t-169 43q-96 0 -170 -29l-35 -133h-174v268zM723 324v178 q-96 0 -160.5 -6.5t-126 -23.5t-91.5 -55t-30 -95q0 -68 41 -104t109 -36q168 1 258 142z" />
<glyph glyph-name="b" unicode="b" horiz-adv-x="1241" d="M1159 535v-5q0 -289 -97 -419.5t-306 -130.5q-211 0 -346 165v-145h-338v152l116 30v1131l-116 30v152h358v-555q129 145 326 145q209 0 306 -130.5t97 -419.5zM686 182q133 0 182.5 83t49.5 265v5q0 184 -49.5 267t-182.5 83q-160 0 -256 -148v-407q96 -148 256 -148z " />
<glyph glyph-name="c" unicode="c" horiz-adv-x="1069" d="M571 -20q-270 0 -384.5 129t-114.5 421v5q0 293 114.5 421.5t384.5 128.5q287 0 414 -120v-244h-182l-29 117q-66 49 -199 49q-156 0 -210 -82t-54 -270v-5q0 -186 54.5 -269t209.5 -83q127 0 179.5 41t48.5 125v4h203v-4q14 -190 -89.5 -277t-345.5 -87z" />
<glyph glyph-name="d" unicode="d" horiz-adv-x="1230" d="M82 535q0 289 97 419.5t306 130.5q197 0 326 -145v373l-117 30v152h359v-1313l116 -30v-152h-338v145q-135 -166 -346 -165q-209 0 -306 131t-97 419v5zM555 182q160 0 256 148v407q-96 147 -256 148q-133 0 -182 -83t-49 -267v-5q0 -182 49 -265t182 -83z" />
<glyph glyph-name="e" unicode="e" horiz-adv-x="1114" d="M1042 449h-720q0 -145 58 -208t206 -63q131 0 185 32t52 112v4h207v-4q14 -184 -96.5 -263t-349.5 -79q-276 0 -394 130t-118 420v5q0 291 115.5 420.5t377.5 129.5q258 0 367.5 -129t109.5 -424v-83zM565 889q-129 0 -186 -62.5t-57 -191.5h469q0 135 -47.5 194.5 t-178.5 59.5z" />
<glyph glyph-name="f" unicode="f" horiz-adv-x="784" d="M629 0h-512v152l116 30v692h-151v150l151 41v176q0 129 82 202t230 73q125 0 203 -31v-193q-68 23 -144 23q-125 0 -125 -103v-147h232v-191h-232v-692l150 -39v-143z" />
<glyph glyph-name="g" unicode="g" horiz-adv-x="1220" d="M82 551v4q0 281 97 405.5t306 124.5q215 0 346 -165v145h338v-152l-116 -30v-883q0 -205 -124 -307.5t-403 -102.5q-231 0 -383 84v211q174 -94 377 -94q154 0 222.5 43t68.5 135v195q-123 -143 -326 -144q-209 0 -306 126t-97 405zM555 223q160 0 256 148v366 q-96 147 -256 148q-133 0 -182 -77t-49 -253v-4q0 -174 49 -251t182 -77z" />
<glyph glyph-name="h" unicode="h" horiz-adv-x="1277" d="M440 735v-553l117 -30v-152h-475v152l117 30v1131l-117 30v152h358v-553q125 143 340 143q135 0 229.5 -73.5t94.5 -202.5v-627l117 -30v-152h-359v731q-2 139 -157 139q-177 0 -265 -135z" />
<glyph glyph-name="i" unicode="i" horiz-adv-x="618" d="M557 0h-475v152l117 30v701l-117 30v152h358v-883l117 -30v-152zM156 1337q0 63 41 102.5t112 39.5q70 0 111 -39t41 -103q0 -66 -41 -104.5t-111 -38.5q-72 0 -112.5 38.5t-40.5 104.5z" />
<glyph glyph-name="j" unicode="j" horiz-adv-x="585" d="M78 -209q63 0 92 22.5t29 77.5v992l-117 30v152h358v-1202q0 -131 -78.5 -202t-228.5 -71q-113 0 -176 31v193q55 -23 121 -23zM156 1337q0 63 41 102.5t112 39.5q70 0 111 -39t41 -103q0 -66 -41 -104.5t-111 -38.5q-72 0 -112.5 38.5t-40.5 104.5z" />
<glyph glyph-name="k" unicode="k" horiz-adv-x="1243" d="M1022 879l-268 -267l319 -430l113 -30v-152h-490v152l90 24l-194 287l-156 -152l4 -129l117 -30v-152h-475v152l117 30v1131l-117 30v152h358l-4 -942l328 332l-94 28v152h469v-152z" />
<glyph glyph-name="l" unicode="l" horiz-adv-x="608" d="M547 0h-475v152l116 30v1131l-116 30v152h358v-1313l117 -30v-152z" />
<glyph glyph-name="m" unicode="m" horiz-adv-x="1794" d="M440 739v-557l117 -30v-152h-475v152l117 30v701l-117 30v152h338v-139q125 160 338 159q197 0 252 -163q47 63 135 113t207 50q117 0 195.5 -69.5t78.5 -198.5v-635l117 -30v-152h-359v752q-2 119 -122 118q-143 0 -230 -131v-557l117 -30v-152h-356v745q0 125 -123 125 q-144 0 -230 -131z" />
<glyph glyph-name="n" unicode="n" horiz-adv-x="1271" d="M440 735v-553l117 -30v-152h-475v152l117 30v701l-117 30v152h338v-145q129 166 360 165q135 0 229.5 -73.5t94.5 -202.5v-627l117 -30v-152h-359v731q-2 139 -157 139q-177 0 -265 -135z" />
<glyph glyph-name="o" unicode="o" horiz-adv-x="1146" d="M573 -20q-270 0 -385.5 130t-115.5 420v5q0 293 115.5 421.5t385.5 128.5q272 0 387 -129t115 -421v-5q0 -293 -115 -421.5t-387 -128.5zM573.5 178q155.5 0 208 80t52.5 272v5q0 195 -51.5 273.5t-209.5 78.5q-156 0 -208 -79t-52 -273v-5q0 -193 52.5 -272.5t208 -79.5 z" />
<glyph glyph-name="p" unicode="p" horiz-adv-x="1241" d="M756 -20q-197 0 -326 145v-332l137 -37v-145h-495v151l116 31v1090l-116 30v152h338v-145q131 166 346 165q209 0 306 -131t97 -419v-5q0 -289 -97 -419.5t-306 -130.5zM686 885q-160 0 -256 -148v-407q96 -147 256 -148q133 0 182.5 83t49.5 265v5q0 184 -49.5 267 t-182.5 83z" />
<glyph glyph-name="q" unicode="q" horiz-adv-x="1230" d="M82 530v5q0 289 97 419.5t306 130.5q215 0 346 -165v145h338v-152l-116 -30v-1090l116 -31v-151h-495v145l137 37v332q-129 -145 -326 -145q-209 0 -306 130.5t-97 419.5zM555 885q-133 0 -182 -83t-49 -267v-5q0 -182 49 -265t182 -83q160 0 256 148v407 q-96 148 -256 148z" />
<glyph glyph-name="r" unicode="r" horiz-adv-x="847" d="M578 0h-496v152l117 30v701l-117 30v152h334v-180q41 82 112.5 141t171.5 59q55 0 97 -20v-240q-57 16 -123 17q-63 0 -129 -37t-105 -88v-535l138 -35v-147z" />
<glyph glyph-name="s" unicode="s" horiz-adv-x="1044" d="M532 891q-113 0 -164 -26.5t-51 -98.5q0 -63 50.5 -87t199.5 -40q236 -27 321 -93.5t85 -228.5q0 -338 -477 -337q-244 0 -416 92l2 272h176l35 -137q88 -33 207 -33q125 0 182 31t57 100.5t-47 94t-211 42.5q-231 27 -313 95.5t-82 218.5q0 158 107.5 243.5t326.5 85.5 q248 0 400 -79v-275h-177l-34 135q-66 25 -177 25z" />
<glyph glyph-name="t" unicode="t" horiz-adv-x="776" d="M694 874h-254v-589q0 -57 27 -81t86 -24q76 0 149 25v-193q-86 -33 -208 -32q-145 0 -223 70.5t-78 203.5v620h-142v148l142 37v203l247 32v-229h254v-191z" />
<glyph glyph-name="u" unicode="u" horiz-adv-x="1241" d="M831 332v551l-116 30v152h358v-883l117 -30v-152h-338v147q-131 -168 -360 -167q-135 0 -229.5 73.5t-94.5 202.5v627l-117 30v152h359v-725q0 -143 157 -143q178 0 264 135z" />
<glyph glyph-name="v" unicode="v" horiz-adv-x="1157" d="M598 221l205 664l-117 28v152h440v-152l-96 -24l-293 -889h-317l-293 889l-96 24v152h481v-152l-117 -28z" />
<glyph glyph-name="w" unicode="w" horiz-adv-x="1679" d="M344 0l-207 889l-96 24v152h469v-152l-109 -28l121 -615l223 795h238l221 -793l123 613l-108 28v152h419v-152l-96 -24l-207 -889h-293l-202 727l-203 -727h-293z" />
<glyph glyph-name="x" unicode="x" horiz-adv-x="1243" d="M399 174l103 -22v-152h-447v152l97 26l301 383l-265 326l-96 26v152h508v-152l-98 -22l153 -193l160 193l-98 22v152h436v-152l-96 -26l-275 -332l310 -377l96 -26v-152h-512v152l102 22l-192 242z" />
<glyph glyph-name="y" unicode="y" horiz-adv-x="1208" d="M635 283l221 602l-117 28v152h439v-152l-95 -24l-311 -780l-172 -498h-297l207 426l-383 850l-96 26v152h497v-152l-116 -28z" />
<glyph glyph-name="z" unicode="z" horiz-adv-x="1054" d="M983 0h-911v203l594 674l-349 -5l-38 -143h-177v336h850v-201l-594 -674l412 3l39 145h174v-338z" />
<glyph glyph-name="braceleft" unicode="{" horiz-adv-x="624" d="M205 16v344q0 100 -29 137.5t-113 37.5h-20v161h20q84 0 113 37t29 137v342q0 145 63.5 214t231.5 69h73v-164h-20q-84 0 -112.5 -37t-28.5 -137v-321q0 -160 -90 -222q90 -61 90 -219v-323q0 -100 28.5 -137t112.5 -37h20v-164h-73q-168 0 -231.5 68.5t-63.5 213.5z" />
<glyph glyph-name="bar" unicode="|" horiz-adv-x="350" d="M72 1495h207v-1761h-207v1761z" />
<glyph glyph-name="braceright" unicode="}" horiz-adv-x="624" d="M420 1212v-342q0 -100 28.5 -137t112.5 -37h21v-161h-21q-84 0 -112.5 -37t-28.5 -138v-344q0 -145 -63.5 -213.5t-231.5 -68.5h-74v164h21q84 0 112.5 36.5t28.5 137.5v323q0 158 90 219q-90 61 -90 222v321q0 100 -28.5 137t-112.5 37h-21v164h74q168 0 231.5 -69 t63.5 -214z" />
<glyph glyph-name="asciitilde" unicode="~" horiz-adv-x="1024" d="M309 559q-109 0 -192 -63l-60 192q115 80 252 80q96 0 217 -49t187 -49q106 0 196 63l60 -192q-115 -80 -252 -80q-94 0 -219.5 49t-188.5 49z" />
<glyph glyph-name="exclamdown" unicode="&#xa1;" horiz-adv-x="512" d="M344 625l64 -1014h-304l66 1014h174zM412 931.5q0 -63.5 -46.5 -109.5t-109.5 -46t-108.5 45t-45.5 111q0 63 45.5 108t108.5 45q66 0 111 -45t45 -108.5z" />
<glyph glyph-name="cent" unicode="&#xa2;" horiz-adv-x="1036" d="M317 711v-4q0 -174 53.5 -246t211.5 -72q127 0 179 41t48 125v4h203v-4q14 -190 -89.5 -277.5t-344.5 -87.5h-52l-69 -190h-174l82 213q-152 39 -219.5 156.5t-67.5 337.5v4q0 283 112.5 399.5t387.5 116.5h30l72 188h174l-86 -207q137 -29 197.5 -113.5t50.5 -232.5v-4 h-207v4q4 84 -48 125t-179 41q-158 0 -211.5 -70.5t-53.5 -246.5z" />
<glyph glyph-name="dieresis" unicode="&#xa8;" d="M397 1331.5q0 -65.5 -36.5 -104.5t-102 -39t-102.5 39t-37 104.5t37 105.5t102.5 40t102 -40t36.5 -105.5zM791 1331.5q0 -65.5 -37 -104.5t-102.5 -39t-102.5 39t-37 104.5t37 105.5t102.5 40t102.5 -40t37 -105.5z" />
<glyph glyph-name="copyright" unicode="&#xa9;" horiz-adv-x="1576" d="M1495 706.5q0 -374.5 -177 -550.5t-529.5 -176t-529.5 176t-177 550.5t177 551t529.5 176.5t529.5 -176.5t177 -551zM1354 706.5q0 319.5 -138.5 460t-427 140.5t-427 -140.5t-138.5 -460t138.5 -460t427 -140.5t427 140.5t138.5 460zM621 647q0 -98 44 -139t148 -41 q102 0 234 65l69 -170q-145 -86 -311 -86q-403 0 -404 353v155q0 352 404 353q178 0 311 -82l-69 -170q-135 63 -234 63q-104 0 -148 -41t-44 -139v-121z" />
<glyph glyph-name="ordfeminine" unicode="&#xaa;" horiz-adv-x="849" d="M100 1389q115 66 314 65q188 0 268 -70.5t80 -216.5v-391l88 -24v-113h-275v104q-84 -121 -270 -120q-106 0 -181 64.5t-75 166.5q0 162 123 220.5t387 58.5v38q0 63 -31.5 88t-126.5 25q-72 0 -135 -22l-24 -76h-142v203zM559 891v125q-150 0 -222.5 -24.5t-72.5 -100.5 q0 -49 29 -76t78 -27q122 1 188 103z" />
<glyph glyph-name="guillemotleft" unicode="&#xab;" horiz-adv-x="634" d="M61 727l236 143v-163l-102 -93l102 -92v-164l-236 144v225zM338 727l235 184v-174l-102 -123l102 -122v-175l-235 185v225z" />
<glyph glyph-name="registered" unicode="&#xae;" horiz-adv-x="512" d="M467 1249q0 -221 -211 -221t-211 221t211 221t211 -221zM422 1249.5q0 96.5 -40 140.5t-126 44t-126 -44t-40 -140.5t40 -140.5t126 -44t126 44t40 140.5zM217 1212v-106h-55v287h106q90 0 90 -86v-15q0 -53 -45 -71l45 -115h-61l-35 106h-45zM301 1300v13q0 35 -35 35 h-49v-88h49q35 -1 35 40z" />
<glyph glyph-name="macron" unicode="&#xaf;" d="M152 1411h606v-188h-606v188z" />
<glyph glyph-name="degree" unicode="&#xb0;" horiz-adv-x="573" d="M420 1198q0 55 -39 94t-94.5 39t-94 -39t-38.5 -94t38.5 -94t94 -39t94.5 39t39 94zM51 1198q0 96 69.5 166t166 70t166 -70t69.5 -166t-69.5 -165.5t-166 -69.5t-166 69.5t-69.5 165.5z" />
<glyph glyph-name="plusminus" unicode="&#xb1;" horiz-adv-x="1126" d="M61 963h400v307h205v-307h399v-205h-399v-307h-205v307h-400v205zM61 348h1004v-205h-1004v205z" />
<glyph glyph-name="acute" unicode="&#xb4;" d="M356 1147l113 287h256l-174 -287h-195z" />
<glyph glyph-name="periodcentered" unicode="&#xb7;" horiz-adv-x="440" d="M66 614q0 66 45 111t110 45q63 0 108.5 -45t45.5 -110.5t-44 -109.5t-109.5 -44t-110.5 45t-45 108z" />
<glyph glyph-name="cedilla" unicode="&#xb8;" d="M530 -227.5q0 63.5 -143 98.5l39 129h86l-20 -78q201 -47 200 -176q0 -74 -58.5 -115t-171 -41t-190.5 37l35 109q59 -27 119 -27q104 0 104 63.5z" />
<glyph glyph-name="ordmasculine" unicode="&#xba;" horiz-adv-x="864" d="M432 625q-205 0 -291 96t-86 317v2q0 221 86 317.5t291 96.5t291 -96t86 -318v-2q0 -221 -86 -317t-291 -96zM432 803q104 0 138 53t34 182v2q0 129 -33.5 182.5t-138.5 53.5q-102 0 -137 -53.5t-35 -182.5v-2q0 -129 35 -182t137 -53z" />
<glyph glyph-name="guillemotright" unicode="&#xbb;" horiz-adv-x="634" d="M573 502l-235 -144v164l102 92l-102 93v163l235 -143v-225zM297 502l-236 -185v175l103 122l-103 123v174l236 -184v-225z" />
<glyph glyph-name="questiondown" unicode="&#xbf;" horiz-adv-x="1050" d="M725 931.5q0 -63.5 -45 -109.5t-111 -46q-63 0 -108 45t-45 111q0 63 44 108t109.5 45t110.5 -45t45 -108.5zM498 625h147q137 -291 -127 -437q-74 -41 -105.5 -62.5t-56 -59t-24.5 -91.5q0 -86 57 -122.5t170 -36.5q174 0 334 90l92 -205q-190 -111 -453 -111 q-467 0 -466 371q0 35 5 66.5t11 56.5t21.5 49.5t24.5 40.5t34.5 37.5l38 32t44 31t45 27.5l52.5 28.5l53 29.5q84 47 107 107t-4 158z" />
<glyph glyph-name="Agrave" unicode="&#xc0;" horiz-adv-x="1456" d="M489 408l-67 -209l151 -39v-160h-532v164l127 35l412 1235h299l411 -1235l125 -35v-164h-541v160l152 39l-68 209h-469zM725 1165l-176 -575h350zM715 1802l112 -286h-194l-174 286h256z" />
<glyph glyph-name="Aacute" unicode="&#xc1;" horiz-adv-x="1456" d="M489 408l-67 -209l151 -39v-160h-532v164l127 35l412 1235h299l411 -1235l125 -35v-164h-541v160l152 39l-68 209h-469zM725 1165l-176 -575h350zM629 1516l112 286h256l-174 -286h-194z" />
<glyph glyph-name="Acircumflex" unicode="&#xc2;" horiz-adv-x="1456" d="M489 408l-67 -209l151 -39v-160h-532v164l127 35l412 1235h299l411 -1235l125 -35v-164h-541v160l152 39l-68 209h-469zM725 1165l-176 -575h350zM846 1802l215 -286h-195l-139 122l-137 -122h-195l215 286h236z" />
<glyph glyph-name="Atilde" unicode="&#xc3;" horiz-adv-x="1456" d="M489 408l-67 -209l151 -39v-160h-532v164l127 35l412 1235h299l411 -1235l125 -35v-164h-541v160l152 39l-68 209h-469zM725 1165l-176 -575h350zM897 1704q66 0 66 76h129q0 -256 -195 -256q-61 0 -178 51t-162 51q-66 0 -65 -74h-130q0 256 197 256q63 0 178 -52 t160 -52z" />
<glyph glyph-name="Adieresis" unicode="&#xc4;" horiz-adv-x="1456" d="M489 408l-67 -209l151 -39v-160h-532v164l127 35l412 1235h299l411 -1235l125 -35v-164h-541v160l152 39l-68 209h-469zM725 1165l-176 -575h350zM670 1699.5q0 -65.5 -37 -104.5t-102.5 -39t-102.5 39t-37 104.5t37 105.5t102.5 40t102.5 -40t37 -105.5zM1063 1699.5 q0 -65.5 -37 -104.5t-102.5 -39t-102.5 39t-37 104.5t37 105.5t102.5 40t102.5 -40t37 -105.5z" />
<glyph glyph-name="Aring" unicode="&#xc5;" horiz-adv-x="1456" d="M489 408l-67 -209l151 -39v-160h-532v164l127 35l412 1235h299l411 -1235l125 -35v-164h-541v160l152 39l-68 209h-469zM725 1165l-176 -575h350zM573 1669.5q0 63.5 45.5 108.5t109 45t108.5 -45t45 -108.5t-45 -108.5t-108.5 -45t-109 45t-45.5 108.5zM811 1669 q0 35 -24.5 59.5t-59.5 24.5t-58.5 -24.5t-23.5 -59.5t23.5 -58.5t58.5 -23.5t59.5 23.5t24.5 58.5z" />
<glyph glyph-name="AE" unicode="&#xc6;" horiz-adv-x="2029" d="M1196 637v-430h543l47 182h172v-389h-1149v164l131 35v149h-414l-86 -160l97 -24v-164h-496v164l131 35l678 1235h1108v-390h-172l-47 183h-543v-398h324l30 117h144v-426h-144l-30 117h-324zM631 541h309v575z" />
<glyph glyph-name="Ccedilla" unicode="&#xc7;" horiz-adv-x="1323" d="M784 -227.5q0 63.5 -143 98.5l33 111q-328 14 -460 184t-132 549v4q0 397 146.5 566t512.5 169q313 0 490 -88v-338h-170l-51 184q-100 29 -262 29q-240 0 -320 -117.5t-80 -404.5v-4q0 -287 80 -404.5t320 -117.5q152 0 262 28l51 185h170v-338q-174 -84 -471 -88 l-15 -58q201 -47 201 -176q0 -74 -58.5 -115t-171 -41t-190.5 37l35 109q59 -27 119 -27q104 0 104 63.5z" />
<glyph glyph-name="Egrave" unicode="&#xc8;" horiz-adv-x="1310" d="M479 637v-430h541l49 182h170v-389h-1147v164l131 35v1036l-131 35v164h1147v-390h-170l-49 183h-541v-398h322l30 117h146v-426h-146l-30 117h-322zM674 1802l112 -286h-194l-174 286h256z" />
<glyph glyph-name="Eacute" unicode="&#xc9;" horiz-adv-x="1310" d="M479 637v-430h541l49 182h170v-389h-1147v164l131 35v1036l-131 35v164h1147v-390h-170l-49 183h-541v-398h322l30 117h146v-426h-146l-30 117h-322zM565 1516l113 286h256l-174 -286h-195z" />
<glyph glyph-name="Ecircumflex" unicode="&#xca;" horiz-adv-x="1310" d="M479 637v-430h541l49 182h170v-389h-1147v164l131 35v1036l-131 35v164h1147v-390h-170l-49 183h-541v-398h322l30 117h146v-426h-146l-30 117h-322zM795 1802l215 -286h-195l-139 122l-137 -122h-195l215 286h236z" />
<glyph glyph-name="Edieresis" unicode="&#xcb;" horiz-adv-x="1310" d="M479 637v-430h541l49 182h170v-389h-1147v164l131 35v1036l-131 35v164h1147v-390h-170l-49 183h-541v-398h322l30 117h146v-426h-146l-30 117h-322zM618 1699.5q0 -65.5 -36.5 -104.5t-102 -39t-102.5 39t-37 104.5t37 105.5t102.5 40t102 -40t36.5 -105.5zM1012 1699.5 q0 -65.5 -37 -104.5t-102.5 -39t-102.5 39t-37 104.5t37 105.5t102.5 40t102.5 -40t37 -105.5z" />
<glyph glyph-name="Igrave" unicode="&#xcc;" horiz-adv-x="761" d="M659 0h-557v160l152 39v1036l-152 39v160h557v-160l-149 -39v-1036l149 -39v-160zM369 1802l112 -286h-194l-174 286h256z" />
<glyph glyph-name="Iacute" unicode="&#xcd;" horiz-adv-x="761" d="M659 0h-557v160l152 39v1036l-152 39v160h557v-160l-149 -39v-1036l149 -39v-160zM281 1516l112 286h256l-174 -286h-194z" />
<glyph glyph-name="Icircumflex" unicode="&#xce;" horiz-adv-x="761" d="M659 0h-557v160l152 39v1036l-152 39v160h557v-160l-149 -39v-1036l149 -39v-160zM500 1802l215 -286h-195l-139 122l-137 -122h-195l215 286h236z" />
<glyph glyph-name="Idieresis" unicode="&#xcf;" horiz-adv-x="761" d="M659 0h-557v160l152 39v1036l-152 39v160h557v-160l-149 -39v-1036l149 -39v-160zM334 1699.5q0 -65.5 -37 -104.5t-102.5 -39t-102.5 39t-37 104.5t37 105.5t102.5 40t102.5 -40t37 -105.5zM707 1699.5q0 -65.5 -37 -104.5t-102.5 -39t-102.5 39t-37 104.5t37 105.5 t102.5 40t102.5 -40t37 -105.5z" />
<glyph glyph-name="Ntilde" unicode="&#xd1;" horiz-adv-x="1554" d="M1372 0h-317l-609 1098l13 -899l149 -39v-160h-516v164l131 35v1036l-131 35v164h451l606 -1096l-12 897l-150 39v160h516v-164l-131 -35v-1235zM946 1704q66 0 66 76h129q0 -256 -195 -256q-61 0 -178 51t-162 51q-66 0 -65 -74h-129q0 256 196 256q63 0 178 -52 t160 -52z" />
<glyph glyph-name="Ograve" unicode="&#xd2;" horiz-adv-x="1445" d="M82 715v4q0 399 141.5 567t499.5 168t499.5 -168t141.5 -567v-4q0 -397 -141.5 -566t-499.5 -169t-499.5 169t-141.5 566zM1100 715v4q0 291 -72 406.5t-305 115.5q-121 0 -195.5 -29.5t-113.5 -99.5t-52.5 -159t-13.5 -234v-4q0 -145 13.5 -234.5t52.5 -159t113.5 -99 t195.5 -29.5q233 0 305 115.5t72 406.5zM711 1802l112 -286h-194l-174 286h256z" />
<glyph glyph-name="Oacute" unicode="&#xd3;" horiz-adv-x="1445" d="M82 715v4q0 399 141.5 567t499.5 168t499.5 -168t141.5 -567v-4q0 -397 -141.5 -566t-499.5 -169t-499.5 169t-141.5 566zM1100 715v4q0 291 -72 406.5t-305 115.5q-121 0 -195.5 -29.5t-113.5 -99.5t-52.5 -159t-13.5 -234v-4q0 -145 13.5 -234.5t52.5 -159t113.5 -99 t195.5 -29.5q233 0 305 115.5t72 406.5zM623 1516l112 286h256l-174 -286h-194z" />
<glyph glyph-name="Ocircumflex" unicode="&#xd4;" horiz-adv-x="1445" d="M82 715v4q0 399 141.5 567t499.5 168t499.5 -168t141.5 -567v-4q0 -397 -141.5 -566t-499.5 -169t-499.5 169t-141.5 566zM1100 715v4q0 291 -72 406.5t-305 115.5q-121 0 -195.5 -29.5t-113.5 -99.5t-52.5 -159t-13.5 -234v-4q0 -145 13.5 -234.5t52.5 -159t113.5 -99 t195.5 -29.5q233 0 305 115.5t72 406.5zM842 1802l215 -286h-195l-139 122l-137 -122h-195l215 286h236z" />
<glyph glyph-name="Otilde" unicode="&#xd5;" horiz-adv-x="1445" d="M82 715v4q0 399 141.5 567t499.5 168t499.5 -168t141.5 -567v-4q0 -397 -141.5 -566t-499.5 -169t-499.5 169t-141.5 566zM1100 715v4q0 291 -72 406.5t-305 115.5q-121 0 -195.5 -29.5t-113.5 -99.5t-52.5 -159t-13.5 -234v-4q0 -145 13.5 -234.5t52.5 -159t113.5 -99 t195.5 -29.5q233 0 305 115.5t72 406.5zM893 1704q66 0 65 76h129q0 -256 -194 -256q-61 0 -178 51t-162 51q-66 0 -66 -74h-129q0 256 197 256q63 0 178 -52t160 -52z" />
<glyph glyph-name="Odieresis" unicode="&#xd6;" horiz-adv-x="1445" d="M82 715v4q0 399 141.5 567t499.5 168t499.5 -168t141.5 -567v-4q0 -397 -141.5 -566t-499.5 -169t-499.5 169t-141.5 566zM1100 715v4q0 291 -72 406.5t-305 115.5q-121 0 -195.5 -29.5t-113.5 -99.5t-52.5 -159t-13.5 -234v-4q0 -145 13.5 -234.5t52.5 -159t113.5 -99 t195.5 -29.5q233 0 305 115.5t72 406.5zM666 1699.5q0 -65.5 -37 -104.5t-102.5 -39t-102.5 39t-37 104.5t37 105.5t102.5 40t102.5 -40t37 -105.5zM1059 1699.5q0 -65.5 -37 -104.5t-102.5 -39t-102.5 39t-37 104.5t37 105.5t102.5 40t102.5 -40t37 -105.5z" />
<glyph glyph-name="multiply" unicode="&#xd7;" horiz-adv-x="1126" d="M63 352l357 355l-357 356l146 143l354 -354l357 354l143 -143l-354 -356l354 -355l-143 -145l-357 356l-354 -356z" />
<glyph glyph-name="Oslash" unicode="&#xd8;" horiz-adv-x="1384" d="M1251 1536l-116 -197q199 -156 198 -622q0 -397 -141 -567t-500 -170q-209 0 -336 53l-80 -135h-143l117 194q-106 84 -152.5 235.5t-46.5 389.5q0 399 141.5 568t499.5 169q207 0 334 -53l82 135h143zM315 717q0 -291 70 -400l520 885q-78 39 -213 39 q-121 0 -196.5 -29.5t-114.5 -100.5t-52.5 -160t-13.5 -234zM1067 717q0 295 -70 397l-520 -883q78 -39 215 -38q121 0 196 29.5t113.5 100t52 160t13.5 234.5z" />
<glyph glyph-name="Ugrave" unicode="&#xd9;" horiz-adv-x="1495" d="M428 1235v-758q0 -141 68.5 -211.5t255.5 -70.5q184 0 253.5 70.5t69.5 211.5v758l-151 39v160h536v-164l-129 -35v-725q0 -135 -26.5 -229.5t-91 -165t-179 -103t-286.5 -32.5q-227 0 -356.5 61t-177.5 172t-48 293v729l-131 35v164h543v-160zM735 1802l113 -286h-195 l-174 286h256z" />
<glyph glyph-name="Uacute" unicode="&#xda;" horiz-adv-x="1495" d="M428 1235v-758q0 -141 68.5 -211.5t255.5 -70.5q184 0 253.5 70.5t69.5 211.5v758l-151 39v160h536v-164l-129 -35v-725q0 -135 -26.5 -229.5t-91 -165t-179 -103t-286.5 -32.5q-227 0 -356.5 61t-177.5 172t-48 293v729l-131 35v164h543v-160zM647 1516l113 286h256 l-174 -286h-195z" />
<glyph glyph-name="Ucircumflex" unicode="&#xdb;" horiz-adv-x="1495" d="M428 1235v-758q0 -141 68.5 -211.5t255.5 -70.5q184 0 253.5 70.5t69.5 211.5v758l-151 39v160h536v-164l-129 -35v-725q0 -135 -26.5 -229.5t-91 -165t-179 -103t-286.5 -32.5q-227 0 -356.5 61t-177.5 172t-48 293v729l-131 35v164h543v-160zM866 1802l215 -286h-194 l-139 122l-138 -122h-194l215 286h235z" />
<glyph glyph-name="Udieresis" unicode="&#xdc;" horiz-adv-x="1495" d="M428 1235v-758q0 -141 68.5 -211.5t255.5 -70.5q184 0 253.5 70.5t69.5 211.5v758l-151 39v160h536v-164l-129 -35v-725q0 -135 -26.5 -229.5t-91 -165t-179 -103t-286.5 -32.5q-227 0 -356.5 61t-177.5 172t-48 293v729l-131 35v164h543v-160zM690 1699.5 q0 -65.5 -37 -104.5t-102.5 -39t-102 39t-36.5 104.5t36.5 105.5t102 40t102.5 -40t37 -105.5zM1083 1699.5q0 -65.5 -36.5 -104.5t-102 -39t-102.5 39t-37 104.5t37 105.5t102.5 40t102 -40t36.5 -105.5z" />
<glyph glyph-name="agrave" unicode="&#xe0;" horiz-adv-x="1132" d="M135 997q156 88 395 88q248 0 342.5 -92t94.5 -288l-2 -523l116 -30v-152h-338v145q-43 -68 -132 -116.5t-226 -48.5q-141 0 -232.5 85t-91.5 224q0 111 43 183.5t134.5 110.5t204 53t280.5 17v56q0 96 -40 139t-169 43q-96 0 -170 -29l-35 -133h-174v268zM723 324v178 q-96 0 -160.5 -6.5t-126 -23.5t-91.5 -55t-30 -95q0 -68 41 -104t109 -36q168 1 258 142zM516 1434l113 -287h-195l-174 287h256z" />
<glyph glyph-name="aacute" unicode="&#xe1;" horiz-adv-x="1132" d="M135 997q156 88 395 88q248 0 342.5 -92t94.5 -288l-2 -523l116 -30v-152h-338v145q-43 -68 -132 -116.5t-226 -48.5q-141 0 -232.5 85t-91.5 224q0 111 43 183.5t134.5 110.5t204 53t280.5 17v56q0 96 -40 139t-169 43q-96 0 -170 -29l-35 -133h-174v268zM723 324v178 q-96 0 -160.5 -6.5t-126 -23.5t-91.5 -55t-30 -95q0 -68 41 -104t109 -36q168 1 258 142zM446 1147l113 287h256l-174 -287h-195z" />
<glyph glyph-name="acircumflex" unicode="&#xe2;" horiz-adv-x="1132" d="M135 997q156 88 395 88q248 0 342.5 -92t94.5 -288l-2 -523l116 -30v-152h-338v145q-43 -68 -132 -116.5t-226 -48.5q-141 0 -232.5 85t-91.5 224q0 111 43 183.5t134.5 110.5t204 53t280.5 17v56q0 96 -40 139t-169 43q-96 0 -170 -29l-35 -133h-174v268zM723 324v178 q-96 0 -160.5 -6.5t-126 -23.5t-91.5 -55t-30 -95q0 -68 41 -104t109 -36q168 1 258 142zM647 1434l215 -287h-194l-140 123l-137 -123h-194l215 287h235z" />
<glyph glyph-name="atilde" unicode="&#xe3;" horiz-adv-x="1132" d="M135 997q156 88 395 88q248 0 342.5 -92t94.5 -288l-2 -523l116 -30v-152h-338v145q-43 -68 -132 -116.5t-226 -48.5q-141 0 -232.5 85t-91.5 224q0 111 43 183.5t134.5 110.5t204 53t280.5 17v56q0 96 -40 139t-169 43q-96 0 -170 -29l-35 -133h-174v268zM723 324v178 q-96 0 -160.5 -6.5t-126 -23.5t-91.5 -55t-30 -95q0 -68 41 -104t109 -36q168 1 258 142zM698 1335q66 0 66 76h129q0 -256 -195 -256q-63 0 -180 51t-160 51q-66 0 -65 -73h-129q0 256 196 256q61 0 178 -52.5t160 -52.5z" />
<glyph glyph-name="adieresis" unicode="&#xe4;" horiz-adv-x="1132" d="M135 997q156 88 395 88q248 0 342.5 -92t94.5 -288l-2 -523l116 -30v-152h-338v145q-43 -68 -132 -116.5t-226 -48.5q-141 0 -232.5 85t-91.5 224q0 111 43 183.5t134.5 110.5t204 53t280.5 17v56q0 96 -40 139t-169 43q-96 0 -170 -29l-35 -133h-174v268zM723 324v178 q-96 0 -160.5 -6.5t-126 -23.5t-91.5 -55t-30 -95q0 -68 41 -104t109 -36q168 1 258 142zM471 1331.5q0 -65.5 -37 -104.5t-102.5 -39t-102 39t-36.5 104.5t36.5 105.5t102 40t102.5 -40t37 -105.5zM864 1331.5q0 -65.5 -36.5 -104.5t-102.5 -39t-102.5 39t-36.5 104.5 t36.5 105.5t102.5 40t102.5 -40t36.5 -105.5z" />
<glyph glyph-name="aring" unicode="&#xe5;" horiz-adv-x="1132" d="M135 997q156 88 395 88q248 0 342.5 -92t94.5 -288l-2 -523l116 -30v-152h-338v145q-43 -68 -132 -116.5t-226 -48.5q-141 0 -232.5 85t-91.5 224q0 111 43 183.5t134.5 110.5t204 53t280.5 17v56q0 96 -40 139t-169 43q-96 0 -170 -29l-35 -133h-174v268zM723 324v178 q-96 0 -160.5 -6.5t-126 -23.5t-91.5 -55t-30 -95q0 -68 41 -104t109 -36q168 1 258 142zM375 1300.5q0 63.5 45 108.5t108.5 45t108.5 -45t45 -108.5t-45 -108.5t-108.5 -45t-108.5 45t-45 108.5zM612 1300.5q0 34.5 -24.5 59t-59 24.5t-58.5 -24.5t-24 -59t25 -58 t57 -23.5q35 0 59.5 23.5t24.5 58z" />
<glyph glyph-name="ae" unicode="&#xe6;" horiz-adv-x="1763" d="M313 311q0 -133 152 -133q178 0 266 137q-8 59 -10 84q-2 14 -2 82q-217 0 -311.5 -36t-94.5 -134zM1233 -20q-285 0 -406 161q-156 -162 -424 -161q-156 0 -249 80.5t-93 224.5q0 207 155 282.5t507 75.5v66q0 96 -40 139t-169 43q-98 0 -172 -29l-33 -133h-176v268 q156 88 395 88q250 0 338 -116q121 117 348 116q258 0 368 -129t110 -424v-83h-721q0 -145 58 -208t206 -63q131 0 185.5 32t52.5 112v4h206v-4q14 -184 -96 -263t-350 -79zM1214 889q-129 0 -186 -62.5t-57 -191.5h469q0 135 -47.5 194.5t-178.5 59.5z" />
<glyph glyph-name="ccedilla" unicode="&#xe7;" horiz-adv-x="1069" d="M627 -227.5q0 63.5 -144 98.5l33 111q-240 12 -342 142t-102 406v5q0 293 114.5 421.5t384.5 128.5q287 0 414 -120v-244h-182l-29 117q-66 49 -199 49q-156 0 -210 -82t-54 -270v-5q0 -186 54.5 -269t209.5 -83q127 0 179.5 41t48.5 125v4h203v-4q12 -184 -84.5 -271 t-319.5 -93l-14 -58q201 -47 200 -176q0 -74 -58 -115t-171 -41t-190 37l34 109q59 -27 119 -27q105 0 105 63.5z" />
<glyph glyph-name="egrave" unicode="&#xe8;" horiz-adv-x="1114" d="M553 1434l113 -287h-195l-174 287h256zM1042 449h-720q0 -145 58 -208t206 -63q131 0 185 32t52 112v4h207v-4q14 -184 -96.5 -263t-349.5 -79q-276 0 -394 130t-118 420v5q0 291 115.5 420.5t377.5 129.5q258 0 367.5 -129t109.5 -424v-83zM565 889q-129 0 -186 -62.5 t-57 -191.5h469q0 135 -47.5 194.5t-178.5 59.5z" />
<glyph glyph-name="eacute" unicode="&#xe9;" horiz-adv-x="1114" d="M467 1147l113 287h256l-174 -287h-195zM1042 449h-720q0 -145 58 -208t206 -63q131 0 185 32t52 112v4h207v-4q14 -184 -96.5 -263t-349.5 -79q-276 0 -394 130t-118 420v5q0 291 115.5 420.5t377.5 129.5q258 0 367.5 -129t109.5 -424v-83zM565 889q-129 0 -186 -62.5 t-57 -191.5h469q0 135 -47.5 194.5t-178.5 59.5z" />
<glyph glyph-name="ecircumflex" unicode="&#xea;" horiz-adv-x="1114" d="M684 1434l215 -287h-194l-140 123l-137 -123h-195l216 287h235zM1042 449h-720q0 -145 58 -208t206 -63q131 0 185 32t52 112v4h207v-4q14 -184 -96.5 -263t-349.5 -79q-276 0 -394 130t-118 420v5q0 291 115.5 420.5t377.5 129.5q258 0 367.5 -129t109.5 -424v-83z M565 889q-129 0 -186 -62.5t-57 -191.5h469q0 135 -47.5 194.5t-178.5 59.5z" />
<glyph glyph-name="edieresis" unicode="&#xeb;" horiz-adv-x="1114" d="M508 1331.5q0 -65.5 -37 -104.5t-102.5 -39t-102.5 39t-37 104.5t37 105.5t102.5 40t102.5 -40t37 -105.5zM901 1331.5q0 -65.5 -37 -104.5t-102.5 -39t-102 39t-36.5 104.5t36.5 105.5t102 40t102.5 -40t37 -105.5zM1042 449h-720q0 -145 58 -208t206 -63q131 0 185 32 t52 112v4h207v-4q14 -184 -96.5 -263t-349.5 -79q-276 0 -394 130t-118 420v5q0 291 115.5 420.5t377.5 129.5q258 0 367.5 -129t109.5 -424v-83zM565 889q-129 0 -186 -62.5t-57 -191.5h469q0 135 -47.5 194.5t-178.5 59.5z" />
<glyph glyph-name="igrave" unicode="&#xec;" horiz-adv-x="618" d="M557 0h-475v152l117 30v701l-117 30v152h358v-883l117 -30v-152zM293 1434l113 -287h-195l-174 287h256z" />
<glyph glyph-name="iacute" unicode="&#xed;" horiz-adv-x="618" d="M557 0h-475v152l117 30v701l-117 30v152h358v-883l117 -30v-152zM207 1147l112 287h256l-174 -287h-194z" />
<glyph glyph-name="icircumflex" unicode="&#xee;" horiz-adv-x="618" d="M557 0h-475v152l117 30v701l-117 30v152h358v-883l117 -30v-152zM424 1434l215 -287h-195l-137 123l-139 -123h-195l215 287h236z" />
<glyph glyph-name="idieresis" unicode="&#xef;" horiz-adv-x="618" d="M557 0h-475v152l117 30v701l-117 30v152h358v-883l117 -30v-152zM270 1331.5q0 -65.5 -36.5 -104.5t-102.5 -39q-68 0 -104.5 39t-36.5 104.5t38 105.5t103.5 40t102 -40t36.5 -105.5zM623 1331.5q0 -65.5 -37 -104.5t-102.5 -39t-102.5 39t-37 104.5t37 105.5t102.5 40 t102.5 -40t37 -105.5z" />
<glyph glyph-name="ntilde" unicode="&#xf1;" horiz-adv-x="1271" d="M440 735v-553l117 -30v-152h-475v152l117 30v701l-117 30v152h338v-145q129 166 360 165q135 0 229.5 -73.5t94.5 -202.5v-627l117 -30v-152h-359v731q-2 139 -157 139q-177 0 -265 -135zM805 1335q66 0 65 76h129q0 -256 -194 -256q-63 0 -180 51t-160 51q-66 0 -66 -73 h-129q0 256 197 256q61 0 178 -52.5t160 -52.5z" />
<glyph glyph-name="ograve" unicode="&#xf2;" horiz-adv-x="1146" d="M573 -20q-270 0 -385.5 130t-115.5 420v5q0 293 115.5 421.5t385.5 128.5q272 0 387 -129t115 -421v-5q0 -293 -115 -421.5t-387 -128.5zM573.5 178q155.5 0 208 80t52.5 272v5q0 195 -51.5 273.5t-209.5 78.5q-156 0 -208 -79t-52 -273v-5q0 -193 52.5 -272.5t208 -79.5 zM561 1434l113 -287h-195l-174 287h256z" />
<glyph glyph-name="oacute" unicode="&#xf3;" horiz-adv-x="1146" d="M573 -20q-270 0 -385.5 130t-115.5 420v5q0 293 115.5 421.5t385.5 128.5q272 0 387 -129t115 -421v-5q0 -293 -115 -421.5t-387 -128.5zM573.5 178q155.5 0 208 80t52.5 272v5q0 195 -51.5 273.5t-209.5 78.5q-156 0 -208 -79t-52 -273v-5q0 -193 52.5 -272.5t208 -79.5 zM473 1147l113 287h256l-174 -287h-195z" />
<glyph glyph-name="ocircumflex" unicode="&#xf4;" horiz-adv-x="1146" d="M573 -20q-270 0 -385.5 130t-115.5 420v5q0 293 115.5 421.5t385.5 128.5q272 0 387 -129t115 -421v-5q0 -293 -115 -421.5t-387 -128.5zM573.5 178q155.5 0 208 80t52.5 272v5q0 195 -51.5 273.5t-209.5 78.5q-156 0 -208 -79t-52 -273v-5q0 -193 52.5 -272.5t208 -79.5 zM692 1434l215 -287h-194l-140 123l-137 -123h-194l215 287h235z" />
<glyph glyph-name="otilde" unicode="&#xf5;" horiz-adv-x="1146" d="M573 -20q-270 0 -385.5 130t-115.5 420v5q0 293 115.5 421.5t385.5 128.5q272 0 387 -129t115 -421v-5q0 -293 -115 -421.5t-387 -128.5zM573.5 178q155.5 0 208 80t52.5 272v5q0 195 -51.5 273.5t-209.5 78.5q-156 0 -208 -79t-52 -273v-5q0 -193 52.5 -272.5t208 -79.5 zM743 1335q66 0 66 76h129q0 -256 -195 -256q-63 0 -180 51t-160 51q-66 0 -65 -73h-129q0 256 197 256q61 0 177.5 -52.5t159.5 -52.5z" />
<glyph glyph-name="odieresis" unicode="&#xf6;" horiz-adv-x="1146" d="M573 -20q-270 0 -385.5 130t-115.5 420v5q0 293 115.5 421.5t385.5 128.5q272 0 387 -129t115 -421v-5q0 -293 -115 -421.5t-387 -128.5zM573.5 178q155.5 0 208 80t52.5 272v5q0 195 -51.5 273.5t-209.5 78.5q-156 0 -208 -79t-52 -273v-5q0 -193 52.5 -272.5t208 -79.5 zM516 1331.5q0 -65.5 -37 -104.5t-102.5 -39t-102 39t-36.5 104.5t36.5 105.5t102 40t102.5 -40t37 -105.5zM909 1331.5q0 -65.5 -36.5 -104.5t-102 -39t-102.5 39t-37 104.5t37 105.5t102.5 40t102 -40t36.5 -105.5z" />
<glyph glyph-name="divide" unicode="&#xf7;" horiz-adv-x="1126" d="M410 299q0 66 45 110t108 44q66 0 111 -45.5t45 -108.5q0 -66 -46 -111t-109.5 -45t-108.5 45t-45 111zM410 1116q0 63 45 108.5t108 45.5q66 0 111 -45t45 -108.5t-46 -109.5t-109.5 -46t-108.5 44.5t-45 110.5zM61 809h1004v-205h-1004v205z" />
<glyph glyph-name="oslash" unicode="&#xf8;" horiz-adv-x="1136" d="M569 -20q-135 0 -231 30l-66 -112h-143l98 170q-160 123 -159 462v5q0 293 114.5 421.5t386.5 128.5q139 0 232 -32l65 114h144l-99 -170q160 -123 160 -462v-5q0 -291 -116 -420.5t-386 -129.5zM309 530q0 -182 39 -254l344 592q-49 18 -123 19q-158 0 -209 -79 t-51 -273v-5zM569 178q156 0 208 80t52 272v5q0 176 -41 251l-344 -591q53 -17 125 -17z" />
<glyph glyph-name="ugrave" unicode="&#xf9;" horiz-adv-x="1241" d="M831 332v551l-116 30v152h358v-883l117 -30v-152h-338v147q-131 -168 -360 -167q-135 0 -229.5 73.5t-94.5 202.5v627l-117 30v152h359v-725q0 -143 157 -143q178 0 264 135zM565 1434l113 -287h-195l-174 287h256z" />
<glyph glyph-name="uacute" unicode="&#xfa;" horiz-adv-x="1241" d="M831 332v551l-116 30v152h358v-883l117 -30v-152h-338v147q-131 -168 -360 -167q-135 0 -229.5 73.5t-94.5 202.5v627l-117 30v152h359v-725q0 -143 157 -143q178 0 264 135zM477 1147l113 287h256l-174 -287h-195z" />
<glyph glyph-name="ucircumflex" unicode="&#xfb;" horiz-adv-x="1241" d="M831 332v551l-116 30v152h358v-883l117 -30v-152h-338v147q-131 -168 -360 -167q-135 0 -229.5 73.5t-94.5 202.5v627l-117 30v152h359v-725q0 -143 157 -143q178 0 264 135zM696 1434l215 -287h-194l-139 123l-138 -123h-194l215 287h235z" />
<glyph glyph-name="udieresis" unicode="&#xfc;" horiz-adv-x="1241" d="M831 332v551l-116 30v152h358v-883l117 -30v-152h-338v147q-131 -168 -360 -167q-135 0 -229.5 73.5t-94.5 202.5v627l-117 30v152h359v-725q0 -143 157 -143q178 0 264 135zM520 1331.5q0 -65.5 -37 -104.5t-102.5 -39t-102 39t-36.5 104.5t36.5 105.5t102 40t102.5 -40 t37 -105.5zM913 1331.5q0 -65.5 -36.5 -104.5t-102 -39t-102.5 39t-37 104.5t37 105.5t102.5 40t102 -40t36.5 -105.5z" />
<glyph glyph-name="ydieresis" unicode="&#xff;" horiz-adv-x="1208" d="M635 283l221 602l-117 28v152h439v-152l-95 -24l-311 -780l-172 -498h-297l207 426l-383 850l-96 26v152h497v-152l-116 -28zM551 1331.5q0 -65.5 -37 -104.5t-102.5 -39t-102.5 39t-37 104.5t37 105.5t102.5 40t102.5 -40t37 -105.5zM944 1331.5q0 -65.5 -37 -104.5 t-102.5 -39t-102 39t-36.5 104.5t36.5 105.5t102 40t102.5 -40t37 -105.5z" />
<glyph glyph-name="dotlessi" unicode="&#x131;" horiz-adv-x="618" d="M557 0h-475v152l117 30v701l-117 30v152h358v-883l117 -30v-152z" />
<glyph glyph-name="OE" unicode="&#x152;" horiz-adv-x="1902" d="M733 1434h1098v-390h-172l-47 183h-482v-398h273l31 117h143v-426h-143l-31 117h-273v-430h482l47 182h172v-389h-1098q-367 0 -509 162t-142 553v4q0 391 142 553t509 162zM874 207v1020h-159q-98 0 -165 -21.5t-107 -57.5t-61.5 -102.5t-28.5 -139t-7 -187.5v-4 q0 -143 11.5 -227.5t49 -153t112.5 -97t196 -30.5h159z" />
<glyph glyph-name="oe" unicode="&#x153;" horiz-adv-x="1873" d="M1802 465h-721v-4q2 -154 59.5 -218.5t205.5 -64.5q133 0 187 32t50 112v4h209v-4q12 -184 -98.5 -263t-347.5 -79q-291 0 -392 151q-98 -152 -381 -151q-272 0 -386.5 129t-114.5 421v5q0 293 114.5 421.5t386.5 128.5q281 0 381 -151q100 152 371 151q260 0 368.5 -129 t108.5 -424v-67zM573.5 178q155.5 0 208 80t52.5 272v5q0 195 -52.5 273.5t-208.5 78.5q-158 0 -209 -79t-51 -273v-5q0 -193 52.5 -272.5t208 -79.5zM1325 889q-129 0 -184.5 -64.5t-59.5 -201.5v-5h469v5q-4 143 -48 204.5t-177 61.5z" />
<glyph glyph-name="Ydieresis" unicode="&#x178;" horiz-adv-x="1406" d="M713 717l272 518l-143 39v160h538v-164l-129 -35l-420 -729v-307l152 -39v-160h-557v160l149 39v307l-417 729l-131 35v164h555v-160l-144 -39zM649 1699.5q0 -65.5 -37 -104.5t-102.5 -39t-102 39t-36.5 104.5t36.5 105.5t102 40t102.5 -40t37 -105.5zM1042 1699.5 q0 -65.5 -36.5 -104.5t-102 -39t-102.5 39t-37 104.5t37 105.5t102.5 40t102 -40t36.5 -105.5z" />
<glyph glyph-name="circumflex" unicode="&#x2c6;" d="M571 1434l215 -287h-194l-137 123l-140 -123h-194l215 287h235z" />
<glyph glyph-name="caron" unicode="&#x2c7;" d="M336 1147l-215 287h194l140 -123l137 123h194l-215 -287h-235z" />
<glyph glyph-name="breve" unicode="&#x2d8;" d="M454.5 1126q-186.5 0 -257 80t-70.5 228h158q0 -78 37.5 -108t132 -30t131.5 30t37 108h159q0 -147 -70.5 -227.5t-257 -80.5z" />
<glyph glyph-name="dotaccent" unicode="&#x2d9;" d="M608 1331.5q0 -65.5 -41 -104.5t-112.5 -39t-113.5 39t-42 104.5t42 105.5t113.5 40t112.5 -40t41 -105.5z" />
<glyph glyph-name="ring" unicode="&#x2da;" d="M301 1300.5q0 63.5 45 108.5t108.5 45t108.5 -45t45 -108.5t-45 -108.5t-108.5 -45t-108.5 45t-45 108.5zM537 1300.5q0 34.5 -24 59t-58.5 24.5t-59 -24.5t-24.5 -59t24.5 -58t59.5 -23.5q33 0 57.5 23.5t24.5 58z" />
<glyph glyph-name="ogonek" unicode="&#x2db;" d="M424 -195q0 -96 111 -96q57 0 110 25l33 -109q-74 -35 -180 -35q-229 0 -230 189q0 106 84 177t178 97l88 -53q-86 -23 -140 -74t-54 -121z" />
<glyph glyph-name="tilde" unicode="&#x2dc;" d="M625 1335q66 0 65 76h129q0 -256 -196 -256q-61 0 -178 51t-160 51q-66 0 -66 -73h-129q0 256 195 256q63 0 180 -52.5t160 -52.5z" />
<glyph glyph-name="hungarumlaut" unicode="&#x2dd;" d="M219 1147l103 287h245l-153 -287h-195zM496 1147l102 287h246l-154 -287h-194z" />
<glyph glyph-name="endash" unicode="&#x2013;" horiz-adv-x="1024" d="M956 707v-187h-886v187h886z" />
<glyph glyph-name="emdash" unicode="&#x2014;" horiz-adv-x="2048" d="M1980 707v-187h-1910v187h1910z" />
<glyph glyph-name="quoteleft" unicode="&#x2018;" horiz-adv-x="489" d="M76 1124q0 197 215 398l90 -68q-76 -78 -76 -133q0 -41 40 -97.5t40 -105.5q0 -63 -46 -108t-109.5 -45t-108.5 45.5t-45 113.5z" />
<glyph glyph-name="quoteright" unicode="&#x2019;" horiz-adv-x="495" d="M416 1315q0 -195 -215 -395l-92 67q78 76 77 133q0 41 -40 96.5t-40 104.5q0 63 45.5 108.5t108.5 45.5q66 0 111 -46t45 -114z" />
<glyph glyph-name="quotesinglbase" unicode="&#x201a;" horiz-adv-x="495" d="M395 129q0 -193 -215 -397l-92 67q78 78 78 133q0 41 -40 97.5t-40 105.5q0 66 45 110t109 44q66 0 110.5 -46t44.5 -114z" />
<glyph glyph-name="quotedblleft" unicode="&#x201c;" horiz-adv-x="868" d="M76 1124q0 197 215 398l90 -68q-76 -78 -76 -133q0 -41 40 -97.5t40 -105.5q0 -63 -46 -108t-109.5 -45t-108.5 45.5t-45 113.5zM455 1124q0 197 215 398l90 -68q-76 -78 -76 -133q0 -41 40 -97.5t40 -105.5q0 -63 -46 -108t-109.5 -45t-108.5 45.5t-45 113.5z" />
<glyph glyph-name="quotedblright" unicode="&#x201d;" horiz-adv-x="868" d="M416 1315q0 -195 -215 -395l-92 67q78 76 77 133q0 41 -40 96.5t-40 104.5q0 63 45.5 108.5t108.5 45.5q66 0 111 -46t45 -114zM795 1315q0 -195 -215 -395l-93 67q78 76 78 133q0 41 -40 96.5t-40 104.5q0 63 44 108.5t110 45.5t111 -46t45 -114z" />
<glyph glyph-name="quotedblbase" unicode="&#x201e;" horiz-adv-x="868" d="M395 129q0 -193 -215 -397l-92 67q78 78 78 133q0 41 -40 97.5t-40 105.5q0 66 45 110t109 44q66 0 110.5 -46t44.5 -114zM774 129q0 -193 -215 -397l-92 67q78 78 78 133q0 41 -40 97.5t-40 105.5q0 66 44 110t109.5 44t110.5 -46t45 -114z" />
<glyph glyph-name="dagger" unicode="&#x2020;" horiz-adv-x="839" d="M61 1178l297 -41l-41 297h205l-41 -297l297 41v-205l-297 41l41 -584h-205l41 584l-297 -41v205z" />
<glyph glyph-name="daggerdbl" unicode="&#x2021;" horiz-adv-x="839" d="M502 860l-21 -153l297 41v-205l-297 41l41 -584h-205l41 584l-297 -41v205l297 -41l-20 153l20 154l-297 -41v205l297 -41l-41 297h205l-41 -297l297 41v-205l-297 41z" />
<glyph glyph-name="bullet" unicode="&#x2022;" horiz-adv-x="839" d="M207 614q0 88 62.5 150.5t150.5 62.5t150.5 -62.5t62.5 -150.5t-62.5 -150.5t-150.5 -62.5t-150.5 62.5t-62.5 150.5z" />
<glyph glyph-name="ellipsis" unicode="&#x2026;" horiz-adv-x="2048" d="M188 135q0 63 45.5 108.5t111 45.5t109.5 -44t44 -109.5t-45 -110.5t-109 -45q-66 0 -111 44.5t-45 110.5zM870 135.5q0 65.5 44 109.5t110 44t111 -45t45 -109q0 -66 -45 -110.5t-111 -44.5q-63 0 -108.5 45t-45.5 110.5zM1550 135q0 63 45 108.5t111 45.5 q63 0 108.5 -44t45.5 -109.5t-45.5 -110.5t-109 -45t-109.5 44.5t-46 110.5z" />
<glyph glyph-name="perthousand" unicode="&#x2030;" horiz-adv-x="2467" d="M270 1155v-180q0 -109 129 -109t129 109v180q0 111 -129 111t-129 -111zM733 1157v-184q0 -276 -334 -277q-332 0 -331 277v184q0 276 331 277q334 -1 334 -277zM528 0h-237l903 1423h238zM1450 268v181q0 111 -129 110.5t-129 -110.5v-181q0 -109 129 -109t129 109z M989 266v185q0 276 332 276q334 0 334 -276v-185q0 -276 -334 -276q-332 0 -332 276zM2198 268v181q0 111 -129.5 110.5t-129.5 -110.5v-181q0 -109 129.5 -109t129.5 109zM1737 266v185q0 276 331 276q334 0 334 -276v-185q0 -276 -334 -276q-331 0 -331 276z" />
<glyph glyph-name="guilsinglleft" unicode="&#x2039;" horiz-adv-x="368" d="M61 727l246 143v-163l-112 -93l112 -92v-164l-246 144v225z" />
<glyph glyph-name="guilsinglright" unicode="&#x203a;" horiz-adv-x="368" d="M307 502l-246 -144v164l113 92l-113 93v163l246 -143v-225z" />
<glyph glyph-name="fraction" unicode="&#x2044;" horiz-adv-x="1228" d="M283 0h-238l903 1423h238z" />
<glyph glyph-name="Euro" unicode="&#x20ac;" horiz-adv-x="1316" d="M49 942h162q8 244 147.5 368t429.5 124q260 0 445 -119l-90 -201q-170 96 -359 96q-158 0 -236.5 -62.5t-88.5 -205.5h624l-55 -174h-569v-123h553l-56 -174h-497q10 -141 89 -203.5t236 -62.5q188 0 359 96l90 -201q-195 -121 -445 -120q-291 0 -430 123.5t-147 367.5 h-162v174h160v123h-160v174z" />
<glyph glyph-name="trademark" unicode="&#x2122;" horiz-adv-x="833" d="M158 1065v313h-111v56h285v-56h-111v-313h-63zM489 1434l89 -230l90 230h94v-369h-66l2 289l-90 -236h-59l-90 236l4 -289h-66v369h92z" />
<glyph glyph-name="minus" unicode="&#x2212;" horiz-adv-x="1126" d="M61 809h1004v-205h-1004v205z" />
<glyph glyph-name="approxequal" unicode="&#x2248;" horiz-adv-x="1126" d="M309 844q-109 0 -192 -64l-56 193q115 80 252 80q100 0 266 -49.5t236 -49.5q106 0 197 64l53 -193q-115 -80 -252 -80q-100 0 -267 49.5t-237 49.5zM309 463q-109 0 -192 -64l-56 193q115 80 252 80q100 0 266 -49.5t236 -49.5q106 0 197 64l53 -193q-115 -80 -252 -79 q-100 0 -267 49t-237 49z" />
<glyph glyph-name="notequal" unicode="&#x2260;" horiz-adv-x="1126" d="M195 211l108 188h-242v205h361l119 205h-480v205h598l150 258l123 -70l-109 -188h242v-205h-360l-119 -205h479v-205h-598l-150 -258z" />
<glyph glyph-name="lessequal" unicode="&#x2264;" horiz-adv-x="1126" d="M1065 451l-1004 317v195l1004 286v-205l-694 -184l694 -205v-204zM1065 164l-1004 311v180l1004 -311v-180z" />
<glyph glyph-name="greaterequal" unicode="&#x2265;" horiz-adv-x="1126" d="M1065 768l-1004 -317v204l695 205l-695 184v205l1004 -286v-195zM1065 475l-1004 -311v180l1004 311v-180z" />
</font>
</defs>
</svg>
