<?xml version="1.0" standalone="no"?>
<!DOCTYPE svg PUBLIC "-//W3C//DTD SVG 1.1//EN" "http://www.w3.org/Graphics/SVG/1.1/DTD/svg11.dtd" >
<svg xmlns="http://www.w3.org/2000/svg">
<metadata></metadata>
<defs>
<font id="FlamaBasicRegular" horiz-adv-x="1376" >
<font-face units-per-em="2048" ascent="1638" descent="-410" />
<missing-glyph horiz-adv-x="499" />
<glyph horiz-adv-x="0" />
<glyph horiz-adv-x="2048" />
<glyph unicode=" "  horiz-adv-x="499" />
<glyph unicode="&#x09;" horiz-adv-x="499" />
<glyph unicode="&#xa0;" horiz-adv-x="499" />
<glyph unicode="!" horiz-adv-x="583" d="M190 0v262h201v-262h-201zM193 1004v456h198v-456l-41 -590h-114z" />
<glyph unicode="&#x22;" horiz-adv-x="806" d="M150 1247v215h174v-215l-29 -266h-115zM483 1247v215h174v-215l-30 -266h-115z" />
<glyph unicode="#" horiz-adv-x="1183" d="M41 387l22 121h218l84 463h-232l23 116h223l63 363h117l-59 -363h334l61 363h119l-62 -363h217l-16 -116h-219l-82 -463h223l-18 -121h-223l-68 -393h-119l66 393h-332l-66 -393h-118l65 393h-221zM401 508h332l82 463h-334z" />
<glyph unicode="$" horiz-adv-x="1118" d="M94 397l166 64q80 -205 309 -205q115 0 190 49t75 137q0 36 -12.5 64.5t-30 47.5t-47.5 35t-54 25t-59 19q-12 4 -107 28.5t-108 28.5q-132 36 -196 112.5t-64 205.5q0 142 95 234t249 110v209h147v-211q127 -16 217.5 -77t130.5 -169l-159 -64q-79 156 -275 156 q-92 0 -157.5 -47.5t-65.5 -132.5q0 -64 43.5 -102.5t140.5 -65.5l203 -55q66 -18 115.5 -43t91 -63.5t63 -96.5t21.5 -133q0 -141 -101 -239t-268 -118v-215h-147v211q-150 12 -259.5 93.5t-146.5 207.5z" />
<glyph unicode="%" horiz-adv-x="1585" d="M104 956v277q0 64 22.5 113.5t62 79t88 44.5t104.5 15q77 0 139 -25t103 -84t41 -145v-281q0 -117 -83 -180t-200 -63q-122 0 -199.5 63.5t-77.5 185.5zM240 948q0 -61 35 -96t106 -35q72 0 109.5 37t37.5 94v297q0 57 -37.5 95t-107.5 38q-69 0 -106 -37.5t-37 -95.5 v-297zM258 0l961 1468h129l-959 -1468h-131zM920 223v277q0 125 79.5 190.5t198.5 65.5q121 0 202 -63t81 -191v-281q0 -117 -84 -180.5t-201 -63.5q-119 0 -197.5 62t-78.5 184zM1055 219q0 -62 35.5 -96.5t107.5 -34.5q70 0 107.5 37t37.5 96v293q0 58 -37.5 96.5 t-107.5 38.5t-106.5 -37t-36.5 -98v-295z" />
<glyph unicode="&#x26;" horiz-adv-x="1562" d="M129 379q0 136 89 254.5t274 179.5q-173 180 -173 328q0 51 13.5 98.5t46.5 93t81.5 79.5t125.5 54.5t172 20.5q180 0 284.5 -92.5t104.5 -225.5q0 -145 -100 -248t-254 -151l315 -342q62 117 100 244l160 -23q-39 -174 -139 -348l280 -301h-262l-162 170 q-192 -199 -491 -199q-213 0 -339 115t-126 293zM326 399q0 -121 85 -193.5t224 -72.5q96 0 189 39t155 113l-391 426q-127 -41 -194.5 -128t-67.5 -184zM528 1153q0 -36 20 -78.5t41.5 -71t55.5 -67.5q31 -34 53 -62q127 39 195 109t68 182q0 88 -58.5 135.5t-140.5 47.5 q-113 0 -173.5 -54t-60.5 -141z" />
<glyph unicode="'" horiz-adv-x="475" d="M150 1247v215h174v-215l-29 -266h-115z" />
<glyph unicode="(" horiz-adv-x="636" d="M184 563q0 236 67 487.5t208 436.5l104 -4q-119 -240 -170 -444t-51 -476q0 -497 223 -932l-106 -4q-91 109 -156 287t-92 343.5t-27 305.5z" />
<glyph unicode=")" horiz-adv-x="636" d="M76 -369q219 433 219 932q0 273 -50.5 477t-168.5 443l104 4q140 -185 207.5 -437t67.5 -487q0 -140 -27.5 -305.5t-93 -343.5t-156.5 -287z" />
<glyph unicode="*" horiz-adv-x="870" d="M80 1237l57 92l242 -135v266h113v-266l241 135l58 -92l-248 -143l166 -232l-97 -63l-176 248l-176 -248l-96 63l162 232z" />
<glyph unicode="+" horiz-adv-x="1150" d="M49 586v127h463v465h129v-465h461v-127h-461v-463h-129v463h-463z" />
<glyph unicode="," horiz-adv-x="481" d="M141 4v256h201v-250l-84 -264h-100l49 258h-66z" />
<glyph unicode="-" horiz-adv-x="735" d="M88 498v161h559v-161h-559z" />
<glyph unicode="." horiz-adv-x="481" d="M141 0v262h201v-262h-201z" />
<glyph unicode="/" horiz-adv-x="704" d="M-27 -322l547 1799h146l-543 -1799h-150z" />
<glyph unicode="0" horiz-adv-x="1202" d="M113 399v654q0 105 40.5 189t109.5 137t157 80.5t186 27.5q100 0 186.5 -27.5t153.5 -80t105.5 -136.5t38.5 -190v-650q0 -102 -40.5 -185t-108.5 -136t-154.5 -81t-182.5 -28q-98 0 -185 26t-156 76.5t-109.5 134t-40.5 189.5zM315 408q0 -117 77 -195t212 -78 q134 0 209.5 78.5t75.5 198.5v647q0 114 -76 191t-209 77t-211 -78.5t-78 -197.5v-643z" />
<glyph unicode="1" horiz-adv-x="1034" d="M100 0v145h344v1141l-319 -47l-14 137l448 90h76v-1321h321v-145h-856z" />
<glyph unicode="2" horiz-adv-x="1120" d="M115 1067v53q0 177 122.5 273t323.5 96q206 0 318 -108.5t112 -284.5q0 -41 -4.5 -80t-16.5 -79t-22 -71.5t-33.5 -72t-36.5 -65t-45.5 -67.5t-47 -62t-54 -65t-53 -61.5t-57.5 -64.5l-220 -242v-2h613v-164h-867v127l437 504q102 115 153 224.5t51 250.5 q0 100 -62 162.5t-183 62.5q-111 0 -178.5 -58.5t-67.5 -158.5v-47h-182z" />
<glyph unicode="3" horiz-adv-x="1146" d="M121 315v60h188v-45q0 -97 78.5 -148t194.5 -51t191 75t75 202q0 65 -21.5 114.5t-52 76.5t-70.5 44t-71 22t-60 5h-172v161h164q118 0 185 62.5t67 189.5q0 64 -22 113t-58 76.5t-77.5 41t-86.5 13.5q-116 0 -185 -57t-69 -164v-25h-184v52q0 155 120 254.5t323 99.5 q112 0 197.5 -33.5t134 -89t72.5 -119.5t24 -133q0 -124 -58.5 -219.5t-171.5 -126.5v-8q118 -32 198.5 -123.5t80.5 -226.5q0 -103 -38.5 -187t-105 -137.5t-153.5 -82t-185 -28.5q-219 0 -335.5 98t-116.5 244z" />
<glyph unicode="4" horiz-adv-x="1191" d="M104 391v152l564 919h215l-576 -915h416v276l188 119v-395h193v-156h-193v-391h-188v391h-619z" />
<glyph unicode="5" horiz-adv-x="1136" d="M119 301v74h186v-43q0 -94 76.5 -146.5t187.5 -52.5q54 0 100.5 16.5t86 52.5t62 102t22.5 155v61q0 126 -76.5 191t-188.5 65q-142 0 -253 -104l-172 26l45 764h770v-176h-613l-24 -444q138 98 321 98q71 0 138.5 -23.5t125 -68t92.5 -119.5t35 -168v-112 q0 -230 -132.5 -353t-342.5 -123q-108 0 -194.5 27t-140.5 73.5t-82.5 104.5t-28.5 123z" />
<glyph unicode="6" horiz-adv-x="1163" d="M117 399v662q0 130 64 228t171.5 148t241.5 50q201 0 318.5 -94.5t117.5 -255.5v-50h-186v29q0 101 -69 157t-185 56q-128 0 -199.5 -73.5t-71.5 -188.5v-303q59 79 156 124.5t201 45.5q161 0 267 -90.5t106 -237.5v-237q0 -186 -132 -291t-339 -105q-202 0 -331.5 118.5 t-129.5 307.5zM319 391q0 -107 72 -182.5t199 -75.5t195.5 66t68.5 166v190q0 49 -15.5 87.5t-40 63t-58.5 41t-68.5 23t-71.5 6.5q-65 0 -128 -31t-108 -94t-45 -143v-117z" />
<glyph unicode="7" horiz-adv-x="1105" d="M111 1284v176h921v-145q-84 -90 -156 -188.5t-141.5 -225.5t-119.5 -262.5t-83 -300.5t-38 -338h-215q11 244 88 495t188.5 449.5t243.5 339.5h-688z" />
<glyph unicode="8" horiz-adv-x="1148" d="M106 352v82q0 106 61.5 189.5t158.5 121.5q-92 32 -146.5 111t-54.5 174v72q0 92 37.5 166.5t100.5 121.5t142.5 72t167.5 25q89 0 168.5 -22t143.5 -65t101.5 -113.5t37.5 -160.5q2 -87 0 -112q0 -87 -57.5 -161t-149.5 -105q97 -30 161 -115.5t64 -192.5v-80 q0 -180 -132 -283.5t-339 -103.5q-210 0 -337.5 99.5t-127.5 279.5zM305 365q0 -106 78 -172t190 -66q120 0 195.5 64t75.5 180v65q0 60 -24 106t-63.5 72t-85.5 39t-96 13q-112 0 -191 -57t-79 -169v-75zM315 1042q0 -75 41 -127.5t98.5 -75t123.5 -22.5q102 0 180 62.5 t78 164.5v76q0 73 -40 123.5t-98 71t-129 20.5q-101 0 -177.5 -59.5t-76.5 -161.5v-72z" />
<glyph unicode="9" horiz-adv-x="1163" d="M111 856v229q0 187 132 294.5t339 107.5q202 0 330 -117t128 -305v-668q0 -129 -65 -226.5t-173 -146.5t-241 -49q-201 0 -316.5 94t-115.5 257v49h186v-31q0 -101 69 -157t185 -56q128 0 199.5 74.5t71.5 189.5v303q-51 -90 -148 -134t-209 -44q-161 0 -266.5 93.5 t-105.5 242.5zM303 907q0 -59 23 -105t60.5 -71.5t81 -38t89.5 -12.5q64 0 128 31.5t109.5 95t45.5 143.5v121q0 107 -72 184.5t-199 77.5q-126 0 -196 -69t-70 -170v-187z" />
<glyph unicode=":" horiz-adv-x="481" d="M141 0v262h201v-262h-201zM141 737v260h201v-260h-201z" />
<glyph unicode=";" horiz-adv-x="481" d="M141 4v256h201v-250l-84 -264h-100l49 258h-66zM141 737v260h201v-260h-201z" />
<glyph unicode="&#x3c;" horiz-adv-x="1150" d="M84 600v105l922 419l57 -114l-795 -357l793 -364l-57 -115z" />
<glyph unicode="=" horiz-adv-x="1150" d="M49 383v125h1053v-125h-1053zM49 791v127h1053v-127h-1053z" />
<glyph unicode="&#x3e;" horiz-adv-x="1150" d="M88 1010l57 114l924 -419v-105l-919 -426l-58 115l793 364z" />
<glyph unicode="?" horiz-adv-x="1083" d="M123 1049v71q0 73 24 133.5t65 102.5t97 71t119.5 42.5t132.5 13.5q192 0 303 -99t111 -276q1 -62 -14.5 -117t-46.5 -100t-61 -77.5t-73 -70.5q-13 -12 -47 -41t-50.5 -45.5t-38.5 -43.5t-32.5 -56.5t-11.5 -62.5v-95h-172v97q4 84 37 142.5t100 125.5q16 16 59 55.5 t63.5 62t48.5 59.5t40 75.5t12 81.5q0 106 -66.5 168.5t-174.5 62.5q-44 0 -86 -11t-80.5 -33.5t-62 -64.5t-23.5 -98v-73h-172zM412 0v262h200v-262h-200z" />
<glyph unicode="@" horiz-adv-x="1964" d="M123 524q1 174 50 323.5t136.5 259t206 187t259.5 116t296 38.5q154 0 295 -49t249.5 -136.5t173 -219t64.5 -285.5q0 -138 -36.5 -252t-97 -188t-140 -125t-162.5 -73t-168 -22h-121l27 146h-6q-56 -79 -144.5 -124.5t-168.5 -45.5q-133 0 -212 70.5t-79 197.5 q0 42 8 78l45 268q30 172 142 270.5t268 98.5q84 0 156.5 -39.5t95.5 -116.5h6l26 143h154l-143 -839q76 5 147 40t132 100.5t97.5 174t36.5 246.5q0 103 -37.5 194.5t-101.5 159t-147.5 116.5t-178.5 74t-192 25q-131 0 -251 -33t-221 -99.5t-175 -160.5t-116 -223.5 t-42 -281.5q0 -271 139 -453t361 -248q137 -37 295 -37q218 0 436 64l28 -101q-203 -77 -487 -77q-83 0 -185.5 14.5t-170.5 38.5q-119 42 -217 110.5t-173.5 164.5t-116.5 226.5t-40 284.5zM709 375q0 -78 53.5 -120t142.5 -42q98 0 181.5 74.5t103.5 189.5l33 197 q1 6 3.5 22.5t2.5 24.5q0 98 -62.5 148.5t-150.5 50.5q-100 0 -168 -58.5t-88 -163.5l-45 -274q-6 -36 -6 -49z" />
<glyph unicode="A" horiz-adv-x="1355" d="M43 0l545 1462h186l539 -1462h-211l-135 387h-584l-139 -387h-201zM440 557h469l-231 664h-2z" />
<glyph unicode="B" horiz-adv-x="1306" d="M158 0v1462h581q202 0 316 -94t114 -274q0 -112 -61 -199t-178 -127v-2q135 -27 208.5 -124.5t73.5 -229.5q0 -99 -37.5 -179t-100.5 -130t-143 -76.5t-169 -26.5h-604zM358 172h365q131 0 210 64t79 186q0 121 -78 181.5t-211 60.5h-365v-492zM358 834h340 q122 0 198.5 60t76.5 173t-73.5 168t-197.5 55h-344v-456z" />
<glyph unicode="C" horiz-adv-x="1323" d="M121 469v487q0 158 75 278.5t202.5 183.5t287.5 63q146 0 265.5 -52t193.5 -156.5t74 -244.5v-63h-191v41q0 140 -99 218.5t-247 78.5q-97 0 -177 -37t-131.5 -116t-51.5 -187v-478q0 -152 104 -241.5t266 -89.5q146 0 241 78t95 219v26h191v-51q0 -142 -72.5 -246.5 t-190.5 -155.5t-264 -51q-118 0 -221.5 32.5t-181.5 94t-123 156.5t-45 213z" />
<glyph unicode="D" horiz-adv-x="1372" d="M158 0v1460h551q154 0 276.5 -59.5t194 -175t71.5 -269.5v-442q0 -119 -44 -217.5t-118.5 -162.5t-172 -99t-205.5 -35h-553zM358 178h342q152 0 251.5 86.5t99.5 237.5v461q0 144 -98.5 232.5t-258.5 88.5h-336v-1106z" />
<glyph unicode="E" horiz-adv-x="1239" d="M158 0v1462h962v-178h-762v-444h652v-176h-652v-486h768v-178h-968z" />
<glyph unicode="F" horiz-adv-x="1161" d="M158 0v1462h940v-178h-740v-453h619v-176h-619v-655h-200z" />
<glyph unicode="G" horiz-adv-x="1349" d="M121 469v494q0 158 75 278.5t202 183t286 62.5q109 0 205 -28.5t170 -82.5t117 -139t43 -190v-62h-191v39q0 139 -98 212t-248 73q-97 0 -177 -37t-131.5 -116t-51.5 -187v-484q0 -152 104 -241.5t266 -89.5q147 0 243.5 77.5t96.5 217.5v120h-393v181h584v-324 q0 -142 -72.5 -246.5t-191 -155.5t-267.5 -51q-118 0 -221.5 32.5t-181.5 94t-123 156.5t-45 213z" />
<glyph unicode="H" horiz-adv-x="1404" d="M158 0v1460h200v-620h689v620h200v-1460h-200v664h-689v-664h-200z" />
<glyph unicode="I" horiz-adv-x="516" d="M158 0v1460h200v-1460h-200z" />
<glyph unicode="J" horiz-adv-x="1204" d="M92 430v102h201v-77q0 -299 299 -299q127 0 197.5 89t70.5 216v999h201v-1016q0 -93 -32 -176.5t-91.5 -149t-153.5 -104.5t-209 -39q-226 0 -354.5 114.5t-128.5 340.5z" />
<glyph unicode="K" horiz-adv-x="1337" d="M158 0v1460h200v-735l668 735h244l-531 -573l574 -887h-234l-473 739l-248 -254v-485h-200z" />
<glyph unicode="L" horiz-adv-x="1161" d="M158 0v1460h200v-1282h740v-178h-940z" />
<glyph unicode="M" horiz-adv-x="1662" d="M158 0v1460h245l431 -901h4l419 901h248v-1460h-194v1106h-4l-396 -825h-159l-396 821h-6v-1102h-192z" />
<glyph unicode="N" horiz-adv-x="1423" d="M158 0v1462h198l713 -1116h4v1116h193v-1462h-197l-717 1126h-4v-1126h-190z" />
<glyph unicode="O" d="M121 469v487q0 162 80 285t207 184.5t278 61.5q158 0 286 -60.5t205.5 -179t77.5 -274.5v-467q0 -162 -79.5 -285.5t-206 -185.5t-277.5 -62q-117 0 -220 33t-181.5 94t-124 156.5t-45.5 212.5zM322 485q0 -152 104 -241.5t266 -89.5q96 0 177 36t134.5 115t53.5 189v487 q0 152 -105 240t-270 88q-72 0 -136 -22.5t-114.5 -64.5t-80 -109t-29.5 -150v-478z" />
<glyph unicode="P" horiz-adv-x="1255" d="M158 0v1460h547q215 0 347 -119.5t132 -324.5q0 -91 -31.5 -171t-90.5 -142.5t-153.5 -99t-212.5 -36.5h-338v-567h-200zM358 737h299q154 0 241 71t87 208q0 134 -84 204t-223 70h-320v-553z" />
<glyph unicode="Q" d="M121 469v487q0 162 80 285t207 184.5t278 61.5q158 0 286 -60.5t205.5 -179t77.5 -274.5v-467q0 -135 -54 -242.5t-150 -177.5l235 -143l-135 -150l-295 203q-98 -23 -164 -23q-117 0 -220 33t-181.5 94t-124 156.5t-45.5 212.5zM322 485q0 -152 104 -241.5t266 -89.5 q96 0 177 36t134.5 115t53.5 189v487q0 152 -105 240t-270 88q-72 0 -136 -22.5t-114.5 -64.5t-80 -109t-29.5 -150v-478z" />
<glyph unicode="R" horiz-adv-x="1298" d="M158 0v1460h536q215 0 349.5 -117t134.5 -325q0 -151 -85.5 -267.5t-248.5 -154.5l403 -596h-221l-389 575h-279v-575h-200zM358 743h301q154 0 238 70t84 207q0 139 -86.5 205.5t-239.5 66.5h-297v-549z" />
<glyph unicode="S" horiz-adv-x="1239" d="M61 330l183 69q43 -118 145 -182.5t242 -64.5q141 0 234 62.5t93 176.5q0 97 -56.5 151t-160.5 85l-266 71q-162 44 -247 132.5t-85 248.5q0 123 64.5 217t173.5 142.5t244 48.5q118 0 217 -30t175 -96t111 -163l-174 -70q-92 189 -333 189q-115 0 -198 -56.5t-83 -164.5 q0 -82 58 -136.5t175 -87.5l269 -73q313 -82 313 -391q0 -192 -148 -312.5t-384 -120.5q-207 0 -359 91.5t-203 263.5z" />
<glyph unicode="T" horiz-adv-x="1218" d="M53 1288v172h1112v-172h-454v-1288h-201v1288h-457z" />
<glyph unicode="U" horiz-adv-x="1392" d="M145 485v975h201v-944q0 -173 93.5 -265.5t258.5 -92.5q168 0 260 92q89 89 89 251v11v948h200v-960q1 -244 -150.5 -384.5t-402.5 -140.5q-115 0 -213 31t-174 92t-119 160t-43 227z" />
<glyph unicode="V" horiz-adv-x="1208" d="M16 1460h207l379 -1184h2l381 1184h209l-494 -1468h-198z" />
<glyph unicode="W" horiz-adv-x="1802" d="M41 1460h207l268 -1145h2l297 1145h176l293 -1147h4l273 1147h200l-379 -1468h-188l-291 1151h-4l-291 -1151h-190z" />
<glyph unicode="X" horiz-adv-x="1185" d="M12 0l469 762l-430 698h230l315 -542l326 542h219l-432 -702l469 -758h-234l-352 590l-356 -590h-224z" />
<glyph unicode="Y" horiz-adv-x="1210" d="M29 1460h221l358 -665l355 665h219l-480 -862v-598h-194v600z" />
<glyph unicode="Z" horiz-adv-x="1169" d="M68 0v160l755 1128h-723v172h977v-153l-753 -1129h766v-178h-1022z" />
<glyph unicode="[" horiz-adv-x="768" d="M279 -395v1982h440v-104h-279v-1772h279v-106h-440z" />
<glyph unicode="\" horiz-adv-x="704" d="M33 1489h143l531 -1712h-148z" />
<glyph unicode="]" horiz-adv-x="768" d="M49 -289h279v1772h-279v104h440v-1982h-440v106z" />
<glyph unicode="^" horiz-adv-x="1067" d="M207 301l235 924h199l219 -924h-164l-157 762l-172 -762h-160z" />
<glyph unicode="_" horiz-adv-x="1024" d="M0 -139h1024v-123h-1024v123z" />
<glyph unicode="`" horiz-adv-x="657" d="M109 1538h215l186 -338h-148z" />
<glyph unicode="a" horiz-adv-x="1071" d="M84 283q0 78 33.5 140t89 99.5t122 56.5t138.5 19h289v127q0 186 -232 186q-96 0 -160.5 -35.5t-64.5 -105.5v-35h-168v29q0 63 23 113.5t61 83.5t90 55t107.5 31.5t115.5 9.5q68 0 126.5 -9.5t112 -32t91 -58t60 -90t22.5 -124.5v-501q0 -45 5 -131.5t11 -110.5h-182 q-2 16 -6 72l-4 57h-4q-61 -89 -139 -120.5t-187 -31.5q-154 0 -252 82t-98 224zM266 293q0 -82 60 -125t157 -43q144 0 208.5 68.5t64.5 185.5v82h-260q-230 0 -230 -168z" />
<glyph unicode="b" horiz-adv-x="1124" d="M145 0v1460h185v-577h4q50 89 135 131.5t172 42.5q171 0 279 -102.5t108 -280.5v-293q0 -101 -34 -181t-92.5 -128.5t-131 -73.5t-154.5 -25q-93 0 -173 47.5t-115 122.5h-6v-143h-177zM330 393q0 -118 76.5 -190t187.5 -72q100 0 173 60.5t73 177.5v305q0 100 -69 161.5 t-181 61.5q-100 0 -180 -77t-80 -204v-223z" />
<glyph unicode="c" horiz-adv-x="1030" d="M96 393v221q0 205 125 323t320 118q182 0 303 -100t121 -275v-25h-181v31q0 93 -66 153t-175 60q-115 0 -184.5 -70t-69.5 -194v-246q0 -119 67 -188.5t191 -69.5q109 0 173 59t64 154v23h181v-19q0 -175 -118.5 -275t-299.5 -100q-198 0 -324.5 111.5t-126.5 308.5z" />
<glyph unicode="d" horiz-adv-x="1124" d="M96 356v295q0 101 33 180.5t90.5 127.5t129 73t153.5 25q92 0 171.5 -46.5t114.5 -121.5h7v571h184v-1460h-180v160h-2q-48 -87 -139.5 -137t-174.5 -50q-171 0 -279 102.5t-108 280.5zM283 360q0 -100 69.5 -162.5t182.5 -62.5q101 0 180.5 73.5t79.5 201.5v229 q0 118 -77.5 190t-189.5 72q-62 0 -115.5 -23t-91.5 -78.5t-38 -135.5v-304z" />
<glyph unicode="e" horiz-adv-x="1067" d="M96 395v213q0 208 129.5 327.5t325.5 119.5q116 0 210 -44t153 -138t59 -224v-176h-684v-90q0 -116 76 -184t200 -68q77 0 141.5 36.5t108.5 96.5l141 -84q-63 -107 -168 -157t-233 -50q-130 0 -232 45t-164.5 142t-62.5 235zM289 602h499v49q0 114 -65.5 181t-177.5 67 q-111 0 -183.5 -71.5t-72.5 -190.5v-35z" />
<glyph unicode="f" horiz-adv-x="655" d="M49 889v145h172v162q0 145 73.5 221t213.5 76q62 0 117 -12v-160q-47 8 -99 8q-120 0 -120 -125v-170h215v-145h-215v-889h-185v889h-172z" />
<glyph unicode="g" horiz-adv-x="1112" d="M96 393v252q0 131 55.5 226.5t142.5 140.5t193 45q94 0 181 -46.5t125 -129.5v153h180v-989q0 -93 -28.5 -174t-84 -145.5t-146.5 -102t-208 -37.5q-81 0 -156.5 23t-139 72.5t-95.5 119.5l172 68q82 -133 235 -133q127 0 199 75t72 203v168q-49 -86 -130 -128t-178 -42 q-181 0 -285 101t-104 280zM285 389q0 -102 68.5 -164.5t183.5 -62.5q48 0 92 15.5t81.5 46.5t60 84.5t22.5 121.5v215q0 116 -77 184t-186 68q-63 0 -116.5 -23t-91 -78.5t-37.5 -136.5v-270z" />
<glyph unicode="h" horiz-adv-x="1128" d="M145 0v1462h185v-590h6q51 90 135.5 137.5t181.5 47.5q164 0 253 -97.5t89 -261.5v-698h-186v639q0 128 -55.5 192t-157.5 64q-116 0 -191 -79t-75 -216v-600h-185z" />
<glyph unicode="i" horiz-adv-x="473" d="M145 0v1034h185v-1034h-185zM145 1221v237h185v-237h-185z" />
<glyph unicode="j" horiz-adv-x="509" d="M-39 -244q46 -4 74 -4q135 0 135 148v1134h186v-1147q0 -295 -313 -295q-37 0 -82 5v159zM172 1221v237h186v-237h-186z" />
<glyph unicode="k" horiz-adv-x="1050" d="M145 0v1462h187v-909l434 481h223l-362 -385l387 -649h-209l-305 520l-168 -178v-342h-187z" />
<glyph unicode="l" horiz-adv-x="612" d="M145 262v1198h187v-1202q0 -51 29 -82t90 -31q24 0 112 9v-142q-87 -24 -176 -24q-242 0 -242 274z" />
<glyph unicode="m" horiz-adv-x="1771" d="M143 0v1034h179v-160h4q53 90 137.5 136.5t187.5 46.5q212 0 293 -189h2q56 90 145.5 139.5t198.5 49.5q152 0 247 -90t95 -250v-717h-184v639q0 124 -53.5 190t-159.5 66q-111 0 -181.5 -79.5t-72.5 -199.5v-616h-184v641q-3 254 -213 254q-45 0 -89 -17.5t-82 -50 t-61.5 -87.5t-23.5 -122v-618h-185z" />
<glyph unicode="n" horiz-adv-x="1128" d="M145 0v1034h179v-162h4q53 90 138.5 137.5t186.5 47.5q164 0 253 -97.5t89 -261.5v-698h-186v639q0 128 -55.5 192t-157.5 64q-116 0 -191 -79t-75 -216v-600h-185z" />
<glyph unicode="o" horiz-adv-x="1081" d="M96 377v256q0 100 36.5 181.5t98.5 133.5t141 79.5t167 27.5q195 0 321.5 -113t126.5 -305v-240q0 -100 -36 -181.5t-97.5 -134t-141 -80.5t-167.5 -28q-128 0 -228.5 45t-160.5 138t-60 221zM283 379q0 -113 70 -180.5t192 -67.5q117 0 185.5 64t68.5 190v268 q0 111 -69 177.5t-191 66.5q-115 0 -185.5 -65t-70.5 -187v-266z" />
<glyph unicode="p" horiz-adv-x="1124" d="M145 -397v1431h179v-151h4q53 86 140 130t173 44q171 0 279 -101.5t108 -279.5v-295q0 -101 -33 -181t-90 -128.5t-128.5 -73.5t-153.5 -25q-93 0 -172.5 47.5t-114.5 122.5h-6v-540h-185zM330 393q0 -118 76.5 -190t187.5 -72q100 0 173 60.5t73 177.5v303 q0 100 -69 162.5t-181 62.5q-101 0 -180.5 -74t-79.5 -202v-228z" />
<glyph unicode="q" horiz-adv-x="1124" d="M96 356v295q0 101 33 180.5t90.5 127.5t129 73t153.5 25q92 0 172 -46.5t117 -121.5h4v147h184v-1433h-180v551h-4q-48 -85 -138 -133t-174 -48q-171 0 -279 102.5t-108 280.5zM283 360q0 -100 69.5 -162.5t182.5 -62.5q101 0 180.5 73.5t79.5 201.5v229q0 118 -77.5 190 t-189.5 72q-62 0 -115.5 -23t-91.5 -78.5t-38 -135.5v-304z" />
<glyph unicode="r" horiz-adv-x="790" d="M135 0v1034h180v-194h4q54 103 154.5 158t206.5 55q44 0 78 -6v-173q-39 7 -94 7q-150 0 -245.5 -86.5t-96.5 -241.5v-553h-187z" />
<glyph unicode="s" horiz-adv-x="1013" d="M72 154l129 100q117 -129 303 -129q96 0 165.5 43t69.5 123q0 72 -46.5 104t-160.5 54l-124 24q-289 54 -289 266q0 143 108 231.5t277 88.5q258 0 377 -144l-131 -94q-97 94 -252 94q-89 0 -143 -40.5t-54 -108.5q0 -26 11 -46.5t27 -34t46.5 -25t58 -19t72.5 -16.5 l154 -33q125 -26 193.5 -94.5t68.5 -180.5q0 -83 -37.5 -149.5t-99 -107.5t-135.5 -63t-152 -22q-299 0 -436 179z" />
<glyph unicode="t" horiz-adv-x="702" d="M37 885v149h166v320h184v-320h266v-149h-266v-613q0 -67 32.5 -94.5t96.5 -27.5q65 0 143 16v-160q-81 -24 -188 -24q-118 0 -193 59t-75 184v660h-166z" />
<glyph unicode="u" horiz-adv-x="1120" d="M133 338v696h186v-637q0 -128 57 -192t159 -64q116 0 190 79t74 216v598h184v-1034h-178v162h-4q-53 -90 -139 -137.5t-185 -47.5q-165 0 -254.5 98.5t-89.5 262.5z" />
<glyph unicode="v" horiz-adv-x="985" d="M29 1034h196l269 -801h2l272 801h188l-372 -1038h-185z" />
<glyph unicode="w" horiz-adv-x="1552" d="M33 1034h194l228 -798h2l239 798h166l234 -796h4l229 796h193l-330 -1038h-182l-232 797h-4l-233 -797h-183z" />
<glyph unicode="x" horiz-adv-x="1003" d="M31 0l364 539l-336 495h215l230 -352l229 352h213l-338 -493l365 -541h-213l-258 391l-258 -391h-213z" />
<glyph unicode="y" horiz-adv-x="1005" d="M33 1034h200l281 -780h4l268 780h189l-438 -1194q-48 -127 -134.5 -189.5t-197.5 -62.5q-57 0 -125 15v157q75 -14 123 -14q56 0 95.5 31t59.5 84l62 164z" />
<glyph unicode="z" horiz-adv-x="952" d="M68 0v141l565 744h-537v149h774v-141l-567 -739h580v-154h-815z" />
<glyph unicode="{" horiz-adv-x="669" d="M88 559v129q58 10 74 30.5t16 72.5v464q0 100 47 152.5t129 52.5h242v-119h-213q-41 0 -41 -45v-471q0 -80 -26.5 -126.5t-84.5 -69.5v-8q66 -28 88.5 -68t22.5 -127v-639q0 -45 41 -45h213v-119h-242q-82 0 -129 52.5t-47 152.5v606q0 65 -19 92t-71 33z" />
<glyph unicode="|" horiz-adv-x="665" d="M256 -109v1594h154v-1594h-154z" />
<glyph unicode="}" horiz-adv-x="669" d="M72 -258h215q41 0 41 45v639q0 87 22 127t86 68v8q-57 23 -82.5 69.5t-25.5 126.5v471q0 45 -41 45h-215v119h243q82 0 129.5 -52.5t47.5 -152.5v-464q0 -52 16 -72.5t74 -30.5v-129q-52 -6 -71 -33t-19 -92v-606q0 -100 -47.5 -152.5t-129.5 -52.5h-243v119z" />
<glyph unicode="~" horiz-adv-x="1150" d="M53 543q19 101 68 161t133 60q56 0 323 -35t324 -35q10 0 18 1t15 5t12 6.5t10.5 10t8 11t7.5 14t6.5 13.5t6.5 16.5t6 16.5l107 -20q-45 -223 -197 -223q-57 0 -327 34.5t-324 34.5q-33 0 -49 -19t-39 -73z" />
<glyph unicode="&#xa1;" horiz-adv-x="583" d="M190 106l43 592h117l41 -592v-456h-201v456zM190 852v260h201v-260h-201z" />
<glyph unicode="&#xa2;" horiz-adv-x="1099" d="M145 438v307q0 170 96.5 273t256.5 121v207h159v-209q143 -19 229.5 -105.5t86.5 -224.5v-51h-178v43q0 81 -62.5 135.5t-163.5 54.5q-107 0 -173 -63.5t-66 -175.5v-304q0 -106 64.5 -169.5t180.5 -63.5q101 0 160.5 53.5t59.5 136.5v46h178v-52q0 -143 -86 -230 t-230 -106v-200h-159v200q-162 18 -257.5 115t-95.5 262z" />
<glyph unicode="&#xa3;" horiz-adv-x="1202" d="M113 0v160h168v512h-148v123h148v292q0 106 35.5 186t96.5 125.5t133 67t154 21.5q174 0 280.5 -95.5t106.5 -263.5v-61h-188v68q0 89 -60 141.5t-155 52.5q-94 0 -154.5 -57t-60.5 -162v-315h428v-123h-428v-512h653l-39 -160h-970z" />
<glyph unicode="&#xa4;" horiz-adv-x="1001" d="M102 403l107 109q-66 98 -66 205t64 201q-99 99 -105 108l84 84l105 -102q98 69 211 69q114 0 209 -69l102 102l86 -84l-102 -104q65 -94 65 -205t-67 -207l104 -107l-86 -84l-104 105q-95 -66 -205 -66q-113 0 -211 66l-107 -105zM276 715q0 -98 62 -169t164 -71 q109 0 168 68.5t59 173.5q0 103 -62 174.5t-163 71.5q-110 0 -169 -70t-59 -178z" />
<glyph unicode="&#xa5;" horiz-adv-x="1216" d="M27 1460h225l356 -616l355 616h221l-469 -778h422v-133h-435v-549h-196v549h-428v133h418z" />
<glyph unicode="&#xa6;" horiz-adv-x="892" d="M387 -98v737h119v-737h-119zM387 786v674h119v-674h-119z" />
<glyph unicode="&#xa7;" horiz-adv-x="1150" d="M164 117v71h158v-43q0 -89 69.5 -138.5t190.5 -49.5q118 0 188 51t70 129q0 32 -11 56.5t-25 40t-41.5 29.5t-46.5 21t-54 17l-201 59q-268 83 -268 287q0 81 40 149.5t123 112.5q-87 44 -125 101t-38 143q0 136 103 222.5t294 86.5q184 0 288.5 -79t104.5 -224v-61h-156 v55q0 75 -64.5 121.5t-178.5 46.5q-103 0 -165.5 -40.5t-62.5 -119.5q0 -55 44.5 -88t117.5 -57l213 -80q45 -16 78.5 -31t71 -39.5t61 -52t39.5 -67.5t16 -87q0 -177 -159 -260q169 -75 166 -243q0 -149 -117 -244.5t-316 -95.5q-75 0 -143.5 16t-129.5 49t-97.5 94 t-36.5 142zM358 657q0 -38 30 -69.5t64 -47t74 -26.5l156 -47q73 23 113.5 67.5t40.5 100.5q0 53 -40.5 85.5t-107.5 55.5l-180 60q-65 -22 -107.5 -68.5t-42.5 -110.5z" />
<glyph unicode="&#xa8;" horiz-adv-x="954" d="M190 1202v225h185v-225h-185zM578 1202v225h184v-225h-184z" />
<glyph unicode="&#xa9;" horiz-adv-x="1890" d="M119 711q0 170 61 322.5t167.5 265.5t261 179t333.5 66q186 0 343 -66t263 -179t165 -265t59 -323q0 -137 -37 -263t-109 -230.5t-171.5 -182t-231.5 -121t-281 -43.5q-191 0 -347.5 65t-260 178.5t-159.5 266.5t-56 330zM242 711q0 -170 55.5 -311.5t151 -235 t223.5 -144.5t274 -51q143 0 271.5 53t224.5 148t152.5 235.5t56.5 305.5q0 168 -57.5 308.5t-155.5 232.5t-226 143t-270 51q-144 0 -271.5 -51.5t-223 -144t-150.5 -232.5t-55 -307zM535 545v311q0 185 113.5 291t297.5 106q180 0 291 -89t111 -249v-59h-170v49 q0 91 -56 146t-172 55q-117 0 -176 -70t-59 -184v-303q0 -114 57.5 -180t177.5 -66q113 0 171.5 57t58.5 138v55h168v-53q0 -161 -112.5 -252.5t-289.5 -91.5q-186 0 -298.5 99.5t-112.5 289.5z" />
<glyph unicode="&#xaa;" horiz-adv-x="823" d="M117 952q0 57 22.5 99.5t55.5 66t79 38t83 18.5t77 4h117v77q0 62 -35.5 94.5t-99.5 32.5q-60 0 -100 -27.5t-40 -80.5v-27h-126v29q0 102 79.5 154.5t200.5 52.5q53 0 98.5 -12.5t83 -37.5t59 -68t21.5 -99v-332q0 -80 8 -158h-133l-6 90q-39 -56 -97.5 -81t-117.5 -25 q-96 0 -162.5 49.5t-66.5 142.5zM152 524v125h544v-125h-544zM260 971q0 -51 35.5 -79t91.5 -28q62 0 111 38t49 102v88h-111q-37 0 -64 -4t-54.5 -15.5t-42.5 -37t-15 -64.5z" />
<glyph unicode="&#xab;" horiz-adv-x="1155" d="M88 547l406 399l92 -84l-271 -315l273 -314l-92 -81zM567 547l404 399l94 -84l-270 -315l272 -314l-94 -81z" />
<glyph unicode="&#xac;" horiz-adv-x="1312" d="M104 592v129h1074v-533h-146v404h-928z" />
<glyph unicode="&#xad;" horiz-adv-x="735" d="M88 498v161h559v-161h-559z" />
<glyph unicode="&#xae;" horiz-adv-x="1021" d="M86 1073q0 185 121.5 310.5t308.5 125.5q194 0 314 -124t120 -312q0 -181 -121.5 -307.5t-312.5 -126.5q-196 0 -313 125t-117 309zM172 1073q0 -162 101 -260t243 -98q91 0 169.5 42t128.5 125t50 191q0 164 -101 265.5t-247 101.5q-145 0 -244.5 -100.5t-99.5 -266.5z M346 834v495h203q76 0 125 -40t49 -109q0 -53 -28.5 -93t-80.5 -55q5 -7 62 -96t67 -102h-104l-119 188h-78v-188h-96zM442 1092h90q45 0 70 21.5t25 60.5t-26 59t-71 20h-88v-161z" />
<glyph unicode="&#xaf;" horiz-adv-x="829" d="M141 1229v160h547v-160h-547z" />
<glyph unicode="&#xb0;" horiz-adv-x="724" d="M133 1268q0 94 66 161.5t163 67.5q100 0 166 -66.5t66 -158.5q0 -95 -68 -160t-164 -65q-100 0 -164.5 63.5t-64.5 157.5zM229 1268q0 -57 38.5 -96t94.5 -39q57 0 97.5 39t40.5 96q0 58 -39.5 99.5t-98.5 41.5q-57 0 -95 -41t-38 -100z" />
<glyph unicode="&#xb1;" horiz-adv-x="1150" d="M66 750v127h444v448h131v-448h444v-127h-444v-447h-131v447h-444zM76 18v129h997v-129h-997z" />
<glyph unicode="&#xb2;" horiz-adv-x="708" d="M88 1354v39q0 105 74 162t196 57q123 0 188.5 -64t65.5 -168q0 -42 -14 -85.5t-29 -73.5t-51 -76t-53 -65t-62 -68l-100 -109v-4h322v-121h-523v99l267 297q94 106 94 204v6q0 49 -29.5 80t-89.5 31q-54 0 -85.5 -31t-31.5 -82v-28h-139z" />
<glyph unicode="&#xb3;" horiz-adv-x="718" d="M82 961v32h141v-26q0 -48 37.5 -72.5t95.5 -24.5q56 0 92.5 35.5t36.5 95.5q0 31 -11 55t-27 37t-36.5 21.5t-37 11t-31.5 2.5h-76v109h76q127 0 127 125q0 58 -35 87.5t-84 29.5q-56 0 -88.5 -27.5t-32.5 -77.5v-18h-141v30q0 95 71.5 154t194.5 59q125 0 191.5 -63 t66.5 -154q0 -69 -32.5 -120.5t-94.5 -69.5v-4q68 -18 111 -68.5t43 -124.5q0 -80 -44 -136.5t-108 -80.5t-139 -24q-130 0 -198 56.5t-68 150.5z" />
<glyph unicode="&#xb4;" horiz-adv-x="657" d="M141 1202l189 338h213l-254 -338h-148z" />
<glyph unicode="&#xb5;" horiz-adv-x="1110" d="M137 -365v1405h193v-692q0 -88 57 -143t150 -55q88 0 161.5 67.5t73.5 169.5v653h193v-710q0 -51 16 -83.5t63 -37.5v-215q-56 3 -100.5 21t-71.5 45.5t-42 57.5t-21 62q-86 -205 -283 -205q-74 0 -132 34t-89 95l-12 -4l45 -452z" />
<glyph unicode="&#xb6;" horiz-adv-x="1271" d="M145 961q0 95 29.5 184.5t81.5 159.5t130 112.5t167 42.5h608v-112h-137v-1532h-127v1532h-240v-1532h-125v655q-101 7 -177.5 49.5t-121 111.5t-66.5 151.5t-22 177.5z" />
<glyph unicode="&#xb8;" horiz-adv-x="589" d="M63 -285q107 -39 185 -39q65 0 97 16.5t32 55.5q0 35 -42.5 50t-123.5 22l-41 4l41 227h94l-26 -137q247 -4 247 -160q0 -80 -69.5 -133t-192.5 -53q-101 0 -201 39v108z" />
<glyph unicode="&#xb9;" horiz-adv-x="649" d="M90 778v105h174v573l-164 -20l-10 100l254 57h70v-710h161v-105h-485z" />
<glyph unicode="&#xba;" horiz-adv-x="831" d="M123 1036v164q0 138 81 212.5t212 74.5q135 0 215 -72.5t80 -212.5v-164q0 -137 -82.5 -208.5t-212.5 -71.5q-135 0 -214 70t-79 208zM145 524v125h547v-125h-547zM268 1034q0 -168 148 -168q149 0 149 172v170q0 166 -147 166q-150 0 -150 -172v-168z" />
<glyph unicode="&#xbb;" horiz-adv-x="1132" d="M90 236l272 315l-272 313l94 82l404 -395l-404 -399zM569 236l273 315l-273 313l95 82l403 -395l-405 -399z" />
<glyph unicode="&#xbc;" horiz-adv-x="1724" d="M90 645v105h174v573l-164 -20l-10 100l254 57h70v-710h161v-105h-485zM373 -4l801 1464h129l-799 -1464h-131zM995 199v110l316 510h166l-326 -504h199v136l143 94v-230h98v-116h-98v-199h-143v199h-355z" />
<glyph unicode="&#xbd;" horiz-adv-x="1724" d="M90 645v105h174v573l-164 -20l-10 100l254 57h70v-710h161v-105h-485zM373 -4l801 1464h129l-799 -1464h-131zM1049 575v39q0 105 74 162.5t196 57.5q123 0 188.5 -64t65.5 -168q0 -42 -14 -85.5t-29.5 -74t-50.5 -76t-53 -65.5t-62 -68l-100 -108v-4h321v-121h-522v98 l266 297q94 106 94 205v6q0 49 -29 80t-89 31q-54 0 -85.5 -31t-31.5 -82v-29h-139z" />
<glyph unicode="&#xbe;" horiz-adv-x="1724" d="M82 827v33h141v-26q0 -48 37.5 -72.5t95.5 -24.5q56 0 92.5 35.5t36.5 95.5q0 31 -11 55t-27 37t-36.5 21.5t-37 11t-31.5 2.5h-76v109h76q127 0 127 125q0 58 -35 87.5t-84 29.5q-56 0 -88.5 -27.5t-32.5 -77.5v-18h-141v30q0 95 71.5 154t194.5 59q125 0 191.5 -63 t66.5 -154q0 -69 -32.5 -120.5t-94.5 -69.5v-4q68 -18 111 -68.5t43 -124.5q0 -80 -44 -136.5t-108 -80.5t-139 -24q-130 0 -198 56t-68 150zM397 -4l801 1464h129l-799 -1464h-131zM995 199v110l316 510h166l-326 -504h199v136l143 94v-230h98v-116h-98v-199h-143v199h-355 z" />
<glyph unicode="&#xbf;" horiz-adv-x="1083" d="M121 4q0 29 4.5 56.5t10.5 50.5t19 48.5t22.5 43t29 42t31 38t36 38t35.5 35t38.5 36t37.5 34.5q52 45 80 89.5t31 102.5v93h172v-95q-4 -84 -37.5 -143t-100.5 -125q-17 -17 -50 -48t-52 -49.5t-44.5 -49t-39.5 -56t-24.5 -60t-10.5 -71.5q0 -107 65.5 -169t174.5 -62 q44 0 86 10.5t80.5 33t62 64t23.5 97.5v75h172v-71q0 -120 -63.5 -204.5t-161 -122.5t-216.5 -38q-191 0 -301 99.5t-110 277.5zM483 852v260h201v-260h-201z" />
<glyph unicode="&#xc0;" horiz-adv-x="1355" d="M43 0l545 1462h186l539 -1462h-211l-135 387h-584l-139 -387h-201zM354 1944h215l187 -338h-148zM440 557h469l-231 664h-2z" />
<glyph unicode="&#xc1;" horiz-adv-x="1355" d="M43 0l545 1462h186l539 -1462h-211l-135 387h-584l-139 -387h-201zM440 557h469l-231 664h-2zM604 1591l189 338h213l-254 -338h-148z" />
<glyph unicode="&#xc2;" horiz-adv-x="1355" d="M43 0l545 1462h186l539 -1462h-211l-135 387h-584l-139 -387h-201zM375 1587l209 338h178l201 -338h-177l-112 221l-125 -221h-174zM440 557h469l-231 664h-2z" />
<glyph unicode="&#xc3;" horiz-adv-x="1355" d="M43 0l545 1462h186l539 -1462h-211l-135 387h-584l-139 -387h-201zM301 1626q18 101 74.5 163t144.5 62q58 0 162.5 -33.5t159.5 -33.5q39 0 58 24t32 70l121 -27q-18 -103 -72 -165t-139 -62q-57 0 -164.5 35t-161.5 35q-32 0 -50.5 -20.5t-39.5 -74.5zM440 557h469 l-231 664h-2z" />
<glyph unicode="&#xc4;" horiz-adv-x="1355" d="M43 0l545 1462h186l539 -1462h-211l-135 387h-584l-139 -387h-201zM395 1618v225h185v-225h-185zM440 557h469l-231 664h-2zM782 1618v225h185v-225h-185z" />
<glyph unicode="&#xc5;" horiz-adv-x="1355" d="M43 0l545 1462h186l539 -1462h-211l-135 387h-584l-139 -387h-201zM440 557h469l-231 664h-2zM481 1769q0 81 55.5 138t139.5 57q91 0 144.5 -50.5t53.5 -133.5t-56.5 -139t-139.5 -56q-92 0 -144.5 53t-52.5 131zM575 1772q0 -48 30 -76.5t73 -28.5t72.5 29.5t29.5 77.5 t-27.5 78t-76.5 30q-45 0 -73 -31t-28 -79z" />
<glyph unicode="&#xc6;" horiz-adv-x="2043" d="M37 0l811 1462h1077v-178h-762v-444h654v-176h-654v-486h768v-178h-968v395h-494l-221 -395h-211zM549 563h414v740z" />
<glyph unicode="&#xc7;" horiz-adv-x="1323" d="M121 469v487q0 158 75 278.5t202.5 183.5t287.5 63q146 0 265.5 -52t193.5 -156.5t74 -244.5v-63h-191v41q0 140 -99 218.5t-247 78.5q-97 0 -177 -37t-131.5 -116t-51.5 -187v-478q0 -152 104 -241.5t266 -89.5q146 0 241 78t95 219v26h191v-51q0 -106 -41 -192 t-111.5 -142t-164 -86.5t-200.5 -32.5l-10 -59q248 -4 248 -160q0 -80 -69.5 -133t-192.5 -53q-101 0 -201 39v108q107 -39 185 -39q65 0 97 16.5t32 55.5q0 35 -42.5 50t-123.5 22l-41 4l26 153q-215 21 -352 150t-137 342z" />
<glyph unicode="&#xc8;" horiz-adv-x="1239" d="M158 0v1462h962v-178h-762v-444h652v-176h-652v-486h768v-178h-968zM397 1927h215l187 -338h-148z" />
<glyph unicode="&#xc9;" horiz-adv-x="1239" d="M158 0v1462h962v-178h-762v-444h652v-176h-652v-486h768v-178h-968zM553 1595l188 338h213l-254 -338h-147z" />
<glyph unicode="&#xca;" horiz-adv-x="1239" d="M158 0v1462h962v-178h-762v-444h652v-176h-652v-486h768v-178h-968zM377 1587l209 338h178l201 -338h-177l-112 221l-125 -221h-174z" />
<glyph unicode="&#xcb;" horiz-adv-x="1239" d="M158 0v1462h962v-178h-762v-444h652v-176h-652v-486h768v-178h-968zM379 1591v226h184v-226h-184zM766 1591v226h184v-226h-184z" />
<glyph unicode="&#xcc;" horiz-adv-x="516" d="M-61 1927h215l186 -338h-147zM158 0v1460h200v-1460h-200z" />
<glyph unicode="&#xcd;" horiz-adv-x="516" d="M158 0v1460h200v-1460h-200zM190 1591l189 338h213l-254 -338h-148z" />
<glyph unicode="&#xce;" horiz-adv-x="516" d="M-35 1604l209 338h178l201 -338h-176l-113 221l-125 -221h-174zM158 0v1460h200v-1460h-200z" />
<glyph unicode="&#xcf;" horiz-adv-x="516" d="M-27 1608v225h185v-225h-185zM158 0v1460h200v-1460h-200zM360 1608v225h185v-225h-185z" />
<glyph unicode="&#xd0;" horiz-adv-x="1413" d="M59 680v141h140v639h551q154 0 276.5 -59.5t194 -175t71.5 -269.5v-442q0 -119 -44 -217.5t-118.5 -162.5t-172 -99t-205.5 -35h-553v680h-140zM399 178h342q152 0 251.5 86.5t99.5 237.5v461q0 144 -98.5 232.5t-258.5 88.5h-336v-463h396v-141h-396v-502z" />
<glyph unicode="&#xd1;" horiz-adv-x="1423" d="M158 0v1462h198l713 -1116h4v1116h193v-1462h-197l-717 1126h-4v-1126h-190zM358 1614q18 100 75 162.5t145 62.5q58 0 162 -33.5t159 -33.5q39 0 58 24t32 70l121 -27q-18 -103 -72 -165t-139 -62q-57 0 -164.5 34.5t-161.5 34.5q-32 0 -50.5 -20t-39.5 -74z" />
<glyph unicode="&#xd2;" d="M121 469v487q0 162 80 285t207 184.5t278 61.5q158 0 286 -60.5t205.5 -179t77.5 -274.5v-467q0 -162 -79.5 -285.5t-206 -185.5t-277.5 -62q-117 0 -220 33t-181.5 94t-124 156.5t-45.5 212.5zM322 485q0 -152 104 -241.5t266 -89.5q96 0 177 36t134.5 115t53.5 189v487 q0 152 -105 240t-270 88q-72 0 -136 -22.5t-114.5 -64.5t-80 -109t-29.5 -150v-478zM385 1927h215l186 -338h-147z" />
<glyph unicode="&#xd3;" d="M121 469v487q0 162 80 285t207 184.5t278 61.5q158 0 286 -60.5t205.5 -179t77.5 -274.5v-467q0 -162 -79.5 -285.5t-206 -185.5t-277.5 -62q-117 0 -220 33t-181.5 94t-124 156.5t-45.5 212.5zM322 485q0 -152 104 -241.5t266 -89.5q96 0 177 36t134.5 115t53.5 189v487 q0 152 -105 240t-270 88q-72 0 -136 -22.5t-114.5 -64.5t-80 -109t-29.5 -150v-478zM600 1608l188 338h213l-253 -338h-148z" />
<glyph unicode="&#xd4;" d="M121 469v487q0 162 80 285t207 184.5t278 61.5q158 0 286 -60.5t205.5 -179t77.5 -274.5v-467q0 -162 -79.5 -285.5t-206 -185.5t-277.5 -62q-117 0 -220 33t-181.5 94t-124 156.5t-45.5 212.5zM322 485q0 -152 104 -241.5t266 -89.5q96 0 177 36t134.5 115t53.5 189v487 q0 152 -105 240t-270 88q-72 0 -136 -22.5t-114.5 -64.5t-80 -109t-29.5 -150v-478zM393 1587l209 338h178l201 -338h-176l-113 221l-125 -221h-174z" />
<glyph unicode="&#xd5;" d="M121 469v487q0 162 80 285t207 184.5t278 61.5q158 0 286 -60.5t205.5 -179t77.5 -274.5v-467q0 -162 -79.5 -285.5t-206 -185.5t-277.5 -62q-117 0 -220 33t-181.5 94t-124 156.5t-45.5 212.5zM305 1626q18 101 74.5 163t144.5 62q58 0 162.5 -33.5t159.5 -33.5 q39 0 58 24t32 70l121 -27q-18 -103 -72 -165t-139 -62q-57 0 -164.5 35t-161.5 35q-32 0 -50.5 -20.5t-39.5 -74.5zM322 485q0 -152 104 -241.5t266 -89.5q96 0 177 36t134.5 115t53.5 189v487q0 152 -105 240t-270 88q-72 0 -136 -22.5t-114.5 -64.5t-80 -109t-29.5 -150 v-478z" />
<glyph unicode="&#xd6;" d="M121 469v487q0 162 80 285t207 184.5t278 61.5q158 0 286 -60.5t205.5 -179t77.5 -274.5v-467q0 -162 -79.5 -285.5t-206 -185.5t-277.5 -62q-117 0 -220 33t-181.5 94t-124 156.5t-45.5 212.5zM322 485q0 -152 104 -241.5t266 -89.5q96 0 177 36t134.5 115t53.5 189v487 q0 152 -105 240t-270 88q-72 0 -136 -22.5t-114.5 -64.5t-80 -109t-29.5 -150v-478zM401 1595v226h185v-226h-185zM788 1595v226h185v-226h-185z" />
<glyph unicode="&#xd7;" horiz-adv-x="1146" d="M113 281l368 370l-368 375l92 92l368 -373l367 371l92 -92l-366 -369l376 -364l-94 -96l-377 366l-368 -373z" />
<glyph unicode="&#xd8;" d="M121 469v487q0 162 80 285t207 184.5t278 61.5q216 0 367 -111l102 164l96 -63l-112 -179q116 -132 116 -325v-467q0 -162 -79.5 -285.5t-206 -185.5t-277.5 -62q-186 0 -330 78l-98 -157l-98 61l102 164q-147 134 -147 350zM322 485q0 -111 57 -190l575 924 q-107 90 -272 90q-72 0 -136 -22.5t-114.5 -64.5t-80 -109t-29.5 -150v-478zM465 215q91 -61 227 -61q96 0 177 36t134.5 115t53.5 189v487q0 74 -29 137z" />
<glyph unicode="&#xd9;" horiz-adv-x="1392" d="M145 485v975h201v-944q0 -173 93.5 -265.5t258.5 -92.5q168 0 260 91.5t89 262.5v948h200v-960q1 -244 -150.5 -384.5t-402.5 -140.5q-115 0 -213 31t-174 92t-119 160t-43 227zM416 1927h215l186 -338h-147z" />
<glyph unicode="&#xda;" horiz-adv-x="1392" d="M145 485v975h201v-944q0 -173 93.5 -265.5t258.5 -92.5q168 0 260 91.5t89 262.5v948h200v-960q1 -244 -150.5 -384.5t-402.5 -140.5q-115 0 -213 31t-174 92t-119 160t-43 227zM653 1591l189 338h213l-254 -338h-148z" />
<glyph unicode="&#xdb;" horiz-adv-x="1392" d="M145 485v975h201v-944q0 -173 93.5 -265.5t258.5 -92.5q168 0 260 91.5t89 262.5v948h200v-960q1 -244 -150.5 -384.5t-402.5 -140.5q-115 0 -213 31t-174 92t-119 160t-43 227zM438 1587l209 338h178l201 -338h-176l-113 221l-125 -221h-174z" />
<glyph unicode="&#xdc;" horiz-adv-x="1392" d="M145 485v975h201v-944q0 -173 93.5 -265.5t258.5 -92.5q168 0 260 91.5t89 262.5v948h200v-960q1 -244 -150.5 -384.5t-402.5 -140.5q-115 0 -213 31t-174 92t-119 160t-43 227zM412 1595v226h184v-226h-184zM799 1595v226h184v-226h-184z" />
<glyph unicode="&#xdd;" horiz-adv-x="1210" d="M29 1460h221l358 -665l355 665h219l-480 -862v-598h-194v600zM530 1589l189 338h213l-254 -338h-148z" />
<glyph unicode="&#xde;" horiz-adv-x="1261" d="M158 0v1460h200v-252h347q215 0 347 -119.5t132 -326.5q0 -91 -31.5 -170.5t-90.5 -142t-153.5 -98.5t-212.5 -36h-338v-315h-200zM358 485h299q154 0 241 71t87 208q0 134 -84 204t-223 70h-320v-553z" />
<glyph unicode="&#xdf;" horiz-adv-x="1310" d="M49 887v147h160v39q0 182 129.5 300t351.5 118q214 0 329.5 -101t115.5 -270q0 -115 -62 -211.5t-178 -140.5v-6q91 -23 158.5 -64t106 -93.5t57 -109.5t18.5 -120q0 -117 -60 -209.5t-158 -141.5t-212 -47q-164 0 -252 33l25 164q107 -29 200 -29q117 0 186.5 62 t69.5 176q0 61 -23.5 109t-61.5 78t-88.5 49.5t-100 27.5t-101.5 8v142h58q102 38 163.5 124t61.5 183q0 109 -68.5 166t-193.5 57q-130 0 -202 -74.5t-72 -173.5v-1079h-197v887h-160z" />
<glyph unicode="&#xe0;" horiz-adv-x="1071" d="M84 283q0 78 33.5 140t89 99.5t122 56.5t138.5 19h289v127q0 186 -232 186q-96 0 -160.5 -35.5t-64.5 -105.5v-35h-168v29q0 63 23 113.5t61 83.5t90 55t107.5 31.5t115.5 9.5q68 0 126.5 -9.5t112 -32t91 -58t60 -90t22.5 -124.5v-501q0 -45 5 -131.5t11 -110.5h-182 q-2 16 -6 72l-4 57h-4q-61 -89 -139 -120.5t-187 -31.5q-154 0 -252 82t-98 224zM238 1538h215l186 -338h-147zM266 293q0 -82 60 -125t157 -43q144 0 208.5 68.5t64.5 185.5v82h-260q-230 0 -230 -168z" />
<glyph unicode="&#xe1;" horiz-adv-x="1071" d="M84 283q0 78 33.5 140t89 99.5t122 56.5t138.5 19h289v127q0 186 -232 186q-96 0 -160.5 -35.5t-64.5 -105.5v-35h-168v29q0 63 23 113.5t61 83.5t90 55t107.5 31.5t115.5 9.5q68 0 126.5 -9.5t112 -32t91 -58t60 -90t22.5 -124.5v-501q0 -45 5 -131.5t11 -110.5h-182 q-2 16 -6 72l-4 57h-4q-61 -89 -139 -120.5t-187 -31.5q-154 0 -252 82t-98 224zM266 293q0 -82 60 -125t157 -43q144 0 208.5 68.5t64.5 185.5v82h-260q-230 0 -230 -168zM442 1202l189 338h213l-254 -338h-148z" />
<glyph unicode="&#xe2;" horiz-adv-x="1071" d="M84 283q0 78 33.5 140t89 99.5t122 56.5t138.5 19h289v127q0 186 -232 186q-96 0 -160.5 -35.5t-64.5 -105.5v-35h-168v29q0 63 23 113.5t61 83.5t90 55t107.5 31.5t115.5 9.5q68 0 126.5 -9.5t112 -32t91 -58t60 -90t22.5 -124.5v-501q0 -45 5 -131.5t11 -110.5h-182 q-2 16 -6 72l-4 57h-4q-61 -89 -139 -120.5t-187 -31.5q-154 0 -252 82t-98 224zM242 1198l209 338h178l200 -338h-176l-112 221l-125 -221h-174zM266 293q0 -82 60 -125t157 -43q144 0 208.5 68.5t64.5 185.5v82h-260q-230 0 -230 -168z" />
<glyph unicode="&#xe3;" horiz-adv-x="1071" d="M84 283q0 78 33.5 140t89 99.5t122 56.5t138.5 19h289v127q0 186 -232 186q-96 0 -160.5 -35.5t-64.5 -105.5v-35h-168v29q0 63 23 113.5t61 83.5t90 55t107.5 31.5t115.5 9.5q68 0 126.5 -9.5t112 -32t91 -58t60 -90t22.5 -124.5v-501q0 -45 5 -131.5t11 -110.5h-182 q-2 16 -6 72l-4 57h-4q-61 -89 -139 -120.5t-187 -31.5q-154 0 -252 82t-98 224zM147 1221q18 100 75 162.5t145 62.5q58 0 162 -34t159 -34q39 0 58 24.5t32 70.5l121 -27q-18 -103 -72 -165t-139 -62q-57 0 -164.5 34.5t-161.5 34.5q-32 0 -50.5 -20t-39.5 -74zM266 293 q0 -82 60 -125t157 -43q144 0 208.5 68.5t64.5 185.5v82h-260q-230 0 -230 -168z" />
<glyph unicode="&#xe4;" horiz-adv-x="1071" d="M84 283q0 78 33.5 140t89 99.5t122 56.5t138.5 19h289v127q0 186 -232 186q-96 0 -160.5 -35.5t-64.5 -105.5v-35h-168v29q0 63 23 113.5t61 83.5t90 55t107.5 31.5t115.5 9.5q68 0 126.5 -9.5t112 -32t91 -58t60 -90t22.5 -124.5v-501q0 -45 5 -131.5t11 -110.5h-182 q-2 16 -6 72l-4 57h-4q-61 -89 -139 -120.5t-187 -31.5q-154 0 -252 82t-98 224zM250 1202v225h184v-225h-184zM266 293q0 -82 60 -125t157 -43q144 0 208.5 68.5t64.5 185.5v82h-260q-230 0 -230 -168zM637 1202v225h184v-225h-184z" />
<glyph unicode="&#xe5;" horiz-adv-x="1071" d="M84 283q0 78 33.5 140t89 99.5t122 56.5t138.5 19h289v127q0 186 -232 186q-96 0 -160.5 -35.5t-64.5 -105.5v-35h-168v29q0 63 23 113.5t61 83.5t90 55t107.5 31.5t115.5 9.5q68 0 126.5 -9.5t112 -32t91 -58t60 -90t22.5 -124.5v-501q0 -45 5 -131.5t11 -110.5h-182 q-2 16 -6 72l-4 57h-4q-61 -89 -139 -120.5t-187 -31.5q-154 0 -252 82t-98 224zM266 293q0 -82 60 -125t157 -43q144 0 208.5 68.5t64.5 185.5v82h-260q-230 0 -230 -168zM338 1362q0 81 55 137.5t139 56.5q91 0 145 -50.5t54 -133.5t-56.5 -138.5t-139.5 -55.5 q-92 0 -144.5 53t-52.5 131zM432 1364q0 -48 30 -76t73 -28t72.5 29t29.5 77t-28 78.5t-77 30.5q-45 0 -72.5 -31.5t-27.5 -79.5z" />
<glyph unicode="&#xe6;" horiz-adv-x="1724" d="M84 283q0 78 33.5 140t89 99.5t122 56.5t138.5 19h289v127q0 186 -232 186q-96 0 -160.5 -35.5t-64.5 -105.5v-35h-168v29q0 63 23 113.5t61 83.5t90 55t107.5 31.5t115.5 9.5q259 0 349 -142q59 68 144.5 104t186.5 36q116 0 209.5 -44t153 -138t59.5 -224v-176h-684 v-90q0 -116 76.5 -184t200.5 -68q76 0 141 37t109 96l145 -86q-130 -205 -406 -205q-137 0 -242 53t-159 156q-106 -205 -377 -205q-154 0 -252 82t-98 224zM266 293q0 -82 60 -125t157 -43q269 0 273 252v84h-260q-230 0 -230 -168zM946 602h500v49q0 114 -66 181t-178 67 q-110 0 -182.5 -70t-73.5 -188v-39z" />
<glyph unicode="&#xe7;" horiz-adv-x="1030" d="M96 393v221q0 205 125 323t320 118q182 0 303 -100t121 -275v-25h-181v31q0 93 -66 153t-175 60q-115 0 -184.5 -70t-69.5 -194v-246q0 -119 67 -188.5t191 -69.5q109 0 173 59t64 154v23h181v-19q0 -165 -107.5 -264.5t-275.5 -108.5l-11 -61q248 -4 248 -160 q0 -80 -69.5 -133t-192.5 -53q-101 0 -201 39v108q107 -39 185 -39q65 0 97 16.5t32 55.5q0 35 -42.5 50t-123.5 22l-41 4l26 151q-176 15 -284.5 125.5t-108.5 292.5z" />
<glyph unicode="&#xe8;" horiz-adv-x="1067" d="M96 395v213q0 208 129.5 327.5t325.5 119.5q116 0 210 -44t153 -138t59 -224v-176h-684v-90q0 -116 76 -184t200 -68q77 0 141.5 36.5t108.5 96.5l141 -84q-63 -107 -168 -157t-233 -50q-130 0 -232 45t-164.5 142t-62.5 235zM242 1538h215l186 -338h-147zM289 602h499 v49q0 114 -65.5 181t-177.5 67q-111 0 -183.5 -71.5t-72.5 -190.5v-35z" />
<glyph unicode="&#xe9;" horiz-adv-x="1067" d="M96 395v213q0 208 129.5 327.5t325.5 119.5q116 0 210 -44t153 -138t59 -224v-176h-684v-90q0 -116 76 -184t200 -68q77 0 141.5 36.5t108.5 96.5l141 -84q-63 -107 -168 -157t-233 -50q-130 0 -232 45t-164.5 142t-62.5 235zM289 602h499v49q0 114 -65.5 181t-177.5 67 q-111 0 -183.5 -71.5t-72.5 -190.5v-35zM477 1202l189 338h213l-254 -338h-148z" />
<glyph unicode="&#xea;" horiz-adv-x="1067" d="M96 395v213q0 208 129.5 327.5t325.5 119.5q116 0 210 -44t153 -138t59 -224v-176h-684v-90q0 -116 76 -184t200 -68q77 0 141.5 36.5t108.5 96.5l141 -84q-63 -107 -168 -157t-233 -50q-130 0 -232 45t-164.5 142t-62.5 235zM242 1198l209 338h178l200 -338h-176 l-112 221l-125 -221h-174zM289 602h499v49q0 114 -65.5 181t-177.5 67q-111 0 -183.5 -71.5t-72.5 -190.5v-35z" />
<glyph unicode="&#xeb;" horiz-adv-x="1067" d="M96 395v213q0 208 129.5 327.5t325.5 119.5q116 0 210 -44t153 -138t59 -224v-176h-684v-90q0 -116 76 -184t200 -68q77 0 141.5 36.5t108.5 96.5l141 -84q-63 -107 -168 -157t-233 -50q-130 0 -232 45t-164.5 142t-62.5 235zM250 1202v225h184v-225h-184zM289 602h499 v49q0 114 -65.5 181t-177.5 67q-111 0 -183.5 -71.5t-72.5 -190.5v-35zM637 1202v225h184v-225h-184z" />
<glyph unicode="&#xec;" horiz-adv-x="473" d="M-86 1538h215l186 -338h-147zM145 0v1034h185v-1034h-185z" />
<glyph unicode="&#xed;" horiz-adv-x="473" d="M145 0v1034h185v-1034h-185zM160 1202l188 338h213l-254 -338h-147z" />
<glyph unicode="&#xee;" horiz-adv-x="473" d="M-57 1198l209 338h178l200 -338h-176l-112 221l-125 -221h-174zM145 0v1034h185v-1034h-185z" />
<glyph unicode="&#xef;" horiz-adv-x="473" d="M-49 1202v225h184v-225h-184zM145 0v1034h185v-1034h-185zM338 1202v225h184v-225h-184z" />
<glyph unicode="&#xf0;" horiz-adv-x="1077" d="M94 383v248q0 193 118 305t300 123q51 4 94 -12l-106 172l-219 -60l-56 115l201 57l-86 133l184 54l88 -140l226 58l55 -115l-209 -57q217 -349 246 -392q53 -87 53 -235v-238q0 -102 -34.5 -183.5t-95.5 -133.5t-141 -79.5t-173 -27.5q-200 0 -322.5 104.5t-122.5 303.5 zM287 387q0 -119 63.5 -187.5t188.5 -68.5q124 0 188 69.5t64 196.5v250q0 121 -61.5 191.5t-184.5 70.5q-121 0 -189.5 -71t-68.5 -197v-254z" />
<glyph unicode="&#xf1;" horiz-adv-x="1128" d="M145 0v1034h179v-162h4q53 90 138.5 137.5t186.5 47.5q164 0 253 -97.5t89 -261.5v-698h-186v639q0 128 -55.5 192t-157.5 64q-116 0 -191 -79t-75 -216v-600h-185zM190 1221q18 100 75 162.5t145 62.5q58 0 162 -34t159 -34q39 0 58 24.5t32 70.5l121 -27 q-18 -103 -72 -165t-139 -62q-57 0 -164 34.5t-161 34.5q-33 0 -51.5 -20.5t-39.5 -73.5z" />
<glyph unicode="&#xf2;" horiz-adv-x="1081" d="M96 377v256q0 100 36.5 181.5t98.5 133.5t141 79.5t167 27.5q195 0 321.5 -113t126.5 -305v-240q0 -100 -36 -181.5t-97.5 -134t-141 -80.5t-167.5 -28q-128 0 -228.5 45t-160.5 138t-60 221zM236 1538h215l186 -338h-148zM283 379q0 -113 70 -180.5t192 -67.5 q117 0 185.5 64t68.5 190v268q0 111 -69 177.5t-191 66.5q-115 0 -185.5 -65t-70.5 -187v-266z" />
<glyph unicode="&#xf3;" horiz-adv-x="1081" d="M96 377v256q0 100 36.5 181.5t98.5 133.5t141 79.5t167 27.5q195 0 321.5 -113t126.5 -305v-240q0 -100 -36 -181.5t-97.5 -134t-141 -80.5t-167.5 -28q-128 0 -228.5 45t-160.5 138t-60 221zM283 379q0 -113 70 -180.5t192 -67.5q117 0 185.5 64t68.5 190v268 q0 111 -69 177.5t-191 66.5q-115 0 -185.5 -65t-70.5 -187v-266zM444 1202l189 338h213l-254 -338h-148z" />
<glyph unicode="&#xf4;" horiz-adv-x="1081" d="M96 377v256q0 100 36.5 181.5t98.5 133.5t141 79.5t167 27.5q195 0 321.5 -113t126.5 -305v-240q0 -100 -36 -181.5t-97.5 -134t-141 -80.5t-167.5 -28q-128 0 -228.5 45t-160.5 138t-60 221zM246 1198l209 338h178l201 -338h-177l-112 221l-125 -221h-174zM283 379 q0 -113 70 -180.5t192 -67.5q117 0 185.5 64t68.5 190v268q0 111 -69 177.5t-191 66.5q-115 0 -185.5 -65t-70.5 -187v-266z" />
<glyph unicode="&#xf5;" horiz-adv-x="1081" d="M96 377v256q0 100 36.5 181.5t98.5 133.5t141 79.5t167 27.5q195 0 321.5 -113t126.5 -305v-240q0 -100 -36 -181.5t-97.5 -134t-141 -80.5t-167.5 -28q-128 0 -228.5 45t-160.5 138t-60 221zM152 1221q18 101 74.5 163t144.5 62q58 0 162 -34t159 -34q39 0 58 24.5 t32 70.5l121 -27q-18 -103 -72 -165t-139 -62q-57 0 -164 34.5t-161 34.5q-33 0 -51.5 -20.5t-39.5 -73.5zM283 379q0 -113 70 -180.5t192 -67.5q117 0 185.5 64t68.5 190v268q0 111 -69 177.5t-191 66.5q-115 0 -185.5 -65t-70.5 -187v-266z" />
<glyph unicode="&#xf6;" horiz-adv-x="1081" d="M96 377v256q0 100 36.5 181.5t98.5 133.5t141 79.5t167 27.5q195 0 321.5 -113t126.5 -305v-240q0 -100 -36 -181.5t-97.5 -134t-141 -80.5t-167.5 -28q-128 0 -228.5 45t-160.5 138t-60 221zM254 1202v225h184v-225h-184zM283 379q0 -113 70 -180.5t192 -67.5 q117 0 185.5 64t68.5 190v268q0 111 -69 177.5t-191 66.5q-115 0 -185.5 -65t-70.5 -187v-266zM641 1202v225h184v-225h-184z" />
<glyph unicode="&#xf7;" horiz-adv-x="1150" d="M55 586v127h1041v-127h-1041zM479 172v227h193v-227h-193zM479 899v229h193v-229h-193z" />
<glyph unicode="&#xf8;" horiz-adv-x="1083" d="M96 377v256q0 100 36.5 181.5t98.5 133.5t141 79.5t167 27.5q123 0 219 -47l76 141l92 -45l-80 -150q141 -115 141 -317v-240q0 -100 -36 -181.5t-97.5 -134t-141 -80.5t-167.5 -28q-102 0 -199 33l-74 -139l-94 45l76 141q-158 110 -158 324zM283 379q0 -105 55 -166 l344 651q-64 33 -143 33q-115 0 -185.5 -65t-70.5 -187v-266zM422 154q58 -23 123 -23q117 0 185.5 64t68.5 190v268q0 79 -39 140z" />
<glyph unicode="&#xf9;" horiz-adv-x="1120" d="M133 338v696h186v-637q0 -128 57 -192t159 -64q116 0 190 79t74 216v598h184v-1034h-178v162h-4q-53 -90 -139 -137.5t-185 -47.5q-165 0 -254.5 98.5t-89.5 262.5zM283 1538h215l186 -338h-147z" />
<glyph unicode="&#xfa;" horiz-adv-x="1120" d="M133 338v696h186v-637q0 -128 57 -192t159 -64q116 0 190 79t74 216v598h184v-1034h-178v162h-4q-53 -90 -139 -137.5t-185 -47.5q-165 0 -254.5 98.5t-89.5 262.5zM504 1202l188 338h213l-254 -338h-147z" />
<glyph unicode="&#xfb;" horiz-adv-x="1120" d="M133 338v696h186v-637q0 -128 57 -192t159 -64q116 0 190 79t74 216v598h184v-1034h-178v162h-4q-53 -90 -139 -137.5t-185 -47.5q-165 0 -254.5 98.5t-89.5 262.5zM272 1198l209 338h178l201 -338h-176l-113 221l-125 -221h-174z" />
<glyph unicode="&#xfc;" horiz-adv-x="1120" d="M133 338v696h186v-637q0 -128 57 -192t159 -64q116 0 190 79t74 216v598h184v-1034h-178v162h-4q-53 -90 -139 -137.5t-185 -47.5q-165 0 -254.5 98.5t-89.5 262.5zM285 1202v225h184v-225h-184zM672 1202v225h184v-225h-184z" />
<glyph unicode="&#xfd;" horiz-adv-x="1005" d="M33 1034h200l281 -780h4l268 780h189l-438 -1194q-48 -127 -134.5 -189.5t-197.5 -62.5q-57 0 -125 15v157q75 -14 123 -14q56 0 95.5 31t59.5 84l62 164zM436 1202l189 338h213l-254 -338h-148z" />
<glyph unicode="&#xfe;" horiz-adv-x="1124" d="M145 -397v1859h183v-579h4q54 87 139 130.5t170 43.5q171 0 279 -101.5t108 -279.5v-295q0 -101 -33 -181t-90 -128.5t-128.5 -73.5t-153.5 -25q-93 0 -172.5 47.5t-114.5 122.5h-6v-540h-185zM330 393q0 -118 76.5 -190t187.5 -72q100 0 173 60.5t73 177.5v303 q0 100 -69 162.5t-181 62.5q-101 0 -180.5 -74t-79.5 -202v-228z" />
<glyph unicode="&#xff;" horiz-adv-x="1005" d="M33 1034h200l281 -780h4l268 780h189l-438 -1194q-48 -127 -134.5 -189.5t-197.5 -62.5q-57 0 -125 15v157q75 -14 123 -14q56 0 95.5 31t59.5 84l62 164zM246 1202v225h184v-225h-184zM633 1202v225h184v-225h-184z" />
<glyph unicode="&#x152;" horiz-adv-x="2138" d="M121 469v487q0 163 76.5 285.5t200.5 184t274 61.5q116 0 218.5 -35t168.5 -100v110h960v-178h-762v-444h654v-176h-654v-486h768v-178h-966v121q-68 -69 -169.5 -108.5t-211.5 -39.5q-117 0 -217.5 32.5t-176.5 94t-119.5 156.5t-43.5 213zM322 485q0 -152 104 -241.5 t266 -89.5q96 0 177 36t134.5 115t53.5 189v487q0 152 -105 240t-270 88q-72 0 -136 -22.5t-114.5 -64.5t-80 -109t-29.5 -150v-478z" />
<glyph unicode="&#x153;" horiz-adv-x="1769" d="M96 377v256q0 100 36.5 181.5t98.5 133.5t141 79.5t167 27.5q244 0 356 -168q58 81 151 124.5t207 43.5q116 0 210 -44t153 -138t59 -224v-176h-684v-94q0 -114 77 -181t200 -67q76 0 141 37t109 96l143 -82q-133 -209 -404 -209q-118 0 -213 42.5t-153 123.5 q-59 -80 -149 -123t-197 -43q-128 0 -228.5 45t-160.5 138t-60 221zM283 379q0 -113 70 -180.5t192 -67.5q114 0 184 66t70 190v266q0 111 -69 177.5t-191 66.5q-115 0 -185.5 -65t-70.5 -187v-266zM991 602h500v49q0 114 -66 181t-178 67q-111 0 -183.5 -71.5t-72.5 -190.5 v-35z" />
<glyph unicode="&#x178;" horiz-adv-x="1210" d="M29 1460h221l358 -665l355 665h219l-480 -862v-598h-194v600zM322 1561v233h182v-233h-182zM721 1561v233h182v-233h-182z" />
<glyph unicode="&#x2c6;" horiz-adv-x="796" d="M104 1198l209 338h179l200 -338h-176l-113 221l-124 -221h-175z" />
<glyph unicode="&#x2dc;" horiz-adv-x="940" d="M100 1221q18 101 74.5 163t144.5 62q58 0 162.5 -34t159.5 -34q39 0 58 24.5t32 70.5l121 -27q-18 -103 -72 -165t-139 -62q-57 0 -164.5 34.5t-161.5 34.5q-32 0 -50.5 -20t-39.5 -74z" />
<glyph unicode="&#x2000;" horiz-adv-x="982" />
<glyph unicode="&#x2001;" horiz-adv-x="1964" />
<glyph unicode="&#x2002;" horiz-adv-x="982" />
<glyph unicode="&#x2003;" horiz-adv-x="1964" />
<glyph unicode="&#x2004;" horiz-adv-x="654" />
<glyph unicode="&#x2005;" horiz-adv-x="491" />
<glyph unicode="&#x2006;" horiz-adv-x="327" />
<glyph unicode="&#x2007;" horiz-adv-x="327" />
<glyph unicode="&#x2008;" horiz-adv-x="245" />
<glyph unicode="&#x2009;" horiz-adv-x="392" />
<glyph unicode="&#x200a;" horiz-adv-x="109" />
<glyph unicode="&#x2010;" horiz-adv-x="735" d="M88 498v161h559v-161h-559z" />
<glyph unicode="&#x2011;" horiz-adv-x="735" d="M88 498v161h559v-161h-559z" />
<glyph unicode="&#x2012;" horiz-adv-x="735" d="M88 498v161h559v-161h-559z" />
<glyph unicode="&#x2013;" horiz-adv-x="974" d="M0 547v135h975v-135h-975z" />
<glyph unicode="&#x2014;" horiz-adv-x="1589" d="M0 547v135h1589v-135h-1589z" />
<glyph unicode="&#x2018;" horiz-adv-x="487" d="M141 958v250l84 262h101l-50 -256h66v-256h-201z" />
<glyph unicode="&#x2019;" horiz-adv-x="489" d="M145 1212v258h201v-249l-82 -263h-100l51 254h-70z" />
<glyph unicode="&#x201a;" horiz-adv-x="489" d="M145 4v256h201v-250l-82 -264h-100l49 258h-68z" />
<glyph unicode="&#x201c;" horiz-adv-x="829" d="M141 958v250l84 262h101l-50 -256h66v-256h-201zM483 958v250l84 262h99l-50 -256h68v-256h-201z" />
<glyph unicode="&#x201d;" horiz-adv-x="829" d="M145 1212v258h201v-249l-82 -263h-100l49 254h-68zM485 1212v258h201v-249l-82 -263h-100l49 254h-68z" />
<glyph unicode="&#x201e;" horiz-adv-x="829" d="M145 4v256h201v-250l-82 -264h-100l49 258h-68zM485 4v256h201v-250l-82 -264h-100l49 258h-68z" />
<glyph unicode="&#x2022;" horiz-adv-x="802" d="M178 748q0 94 65 159.5t160 65.5q94 0 159 -65.5t65 -159.5t-65 -160t-159 -66q-95 0 -160 66t-65 160z" />
<glyph unicode="&#x2026;" horiz-adv-x="1460" d="M162 0v262h200v-262h-200zM629 0v262h202v-262h-202zM1098 0v262h200v-262h-200z" />
<glyph unicode="&#x202f;" horiz-adv-x="392" />
<glyph unicode="&#x2039;" horiz-adv-x="677" d="M88 547l406 399l92 -84l-271 -315l273 -314l-92 -81z" />
<glyph unicode="&#x203a;" horiz-adv-x="677" d="M90 236l272 315l-272 313l94 82l404 -395l-404 -399z" />
<glyph unicode="&#x205f;" horiz-adv-x="491" />
<glyph unicode="&#x20ac;" horiz-adv-x="1472" d="M111 506v119h196v200h-196v117h196v41q0 226 152.5 365t388.5 139q223 0 368.5 -121.5t145.5 -331.5v-63h-193v41q0 140 -99 218.5t-247 78.5q-142 0 -229.5 -86t-87.5 -242v-39h518v-117h-518v-200h518v-119h-518v-31q0 -151 87 -236t241 -85q147 0 241 78t94 219v26 h193v-51q0 -142 -72.5 -246.5t-190.5 -155.5t-265 -51q-239 0 -383 130t-144 366v37h-196z" />
<glyph unicode="&#x2122;" horiz-adv-x="1351" d="M86 1364v98h483v-98h-184v-535h-113v535h-186zM670 829v633h133l147 -315l146 315h135v-633h-105l-2 451l-137 -303h-76l-139 301v-449h-102z" />
<glyph unicode="&#xe000;" horiz-adv-x="1034" d="M0 0v1034h1034v-1034h-1034z" />
</font>
</defs>
</svg>
