<?xml version="1.0" standalone="no"?>
<!DOCTYPE svg PUBLIC "-//W3C//DTD SVG 1.1//EN" "http://www.w3.org/Graphics/SVG/1.1/DTD/svg11.dtd" >
<svg xmlns="http://www.w3.org/2000/svg">
<metadata>
This is a custom SVG webfont generated by Font Squirrel.
Copyright   : Copyright 2011 Adobe Systems Incorporated All rights reserved
</metadata>
<defs>
<font id="GRDGROTESKCONDENSEDMEDIUPLAIN" horiz-adv-x="532" >
<font-face units-per-em="2048" ascent="1638" descent="-410" />
<missing-glyph horiz-adv-x="500" />
<glyph unicode=" " />
<glyph unicode="!" d="M133 92v21l123 123h20l123 -123v-21l-123 -123h-20zM164 1188v235l10 11h184l11 -11v-235l-41 -830l-11 -10h-102l-10 10z" />
<glyph unicode="&#x22;" horiz-adv-x="901" d="M164 1229v194l10 11h184l11 -11v-194l-41 -277l-11 -10h-102l-10 10zM532 1229v194l11 11h184l10 -11v-194l-41 -277l-10 -10h-102l-11 10z" />
<glyph unicode="#" horiz-adv-x="1228" d="M82 451v184l10 10h178l17 205h-174l-11 10v184l11 11h192l23 286l10 11h205l10 -11l-23 -286h205l23 286l10 11h205l10 -11l-22 -286h176l10 -11v-184l-10 -10h-195l-16 -205h190l10 -10v-184l-10 -11h-209l-26 -348l-11 -10h-204l-11 10l27 348h-205l-26 -348l-11 -10 h-204l-11 10l27 348h-160zM496 645h204l17 205h-205z" />
<glyph unicode="$" horiz-adv-x="1064" d="M51 266l154 113h20q68 -147 205 -191v490q-154 72 -241 161t-87 236q0 145 89.5 248.5t238.5 130.5v174l10 10h185l10 -10v-174q88 -23 170 -86t127 -139l-144 -113h-20q-66 74 -133 113v-404q76 -35 128 -67.5t107.5 -81.5t84 -116.5t28.5 -149.5q0 -150 -98.5 -271 t-249.5 -155v-179l-10 -10h-185l-10 10v172q-131 20 -233.5 96t-145.5 193zM317 1075q0 -84 113 -149v317q-113 -43 -113 -168zM635 197q133 63 133 213q0 94 -133 172v-385z" />
<glyph unicode="%" horiz-adv-x="1638" d="M82 1116q0 137 99.5 232.5t238.5 95.5t238.5 -95.5t99.5 -232.5t-99.5 -232.5t-238.5 -95.5t-238.5 95.5t-99.5 232.5zM225 10l942 1413l21 11h215l10 -11l-942 -1413l-20 -10h-215zM287 1116.5q0 -61.5 39 -102.5t94 -41t94 41t39 102.5t-39 102.5t-94 41t-94 -41 t-39 -102.5zM881 317.5q0 137.5 99 232.5t238.5 95t238.5 -95t99 -232.5t-99 -232.5t-238.5 -95t-238.5 95t-99 232.5zM1085 317.5q0 -61.5 39 -102.5t94.5 -41t94.5 41t39 102.5t-39 102.5t-94.5 41t-94.5 -41t-39 -102.5z" />
<glyph unicode="&#x26;" horiz-adv-x="1392" d="M82 414q0 233 235 374q-123 135 -122 308q0 154 101 261t257 107t257 -107.5t101 -260.5q0 -104 -71.5 -198.5t-184.5 -149.5q43 -55 134.5 -155.5t101.5 -111.5q86 111 174 287h217l8 -10q-88 -193 -246 -430q49 -49 162 -157t166 -159l-10 -12h-297q-51 41 -164 154 q-168 -184 -389 -185q-184 0 -307 129.5t-123 315.5zM297 414q0 -96 63.5 -168t151.5 -72q61 0 125.5 36t110.5 97q-102 102 -308 328q-143 -90 -143 -221zM410 1096q0 -113 112 -226q174 109 174 226q0 70 -41 117t-100 47t-102 -47t-43 -117z" />
<glyph unicode="'" d="M164 1229v194l10 11h184l11 -11v-194l-41 -277l-11 -10h-102l-10 10z" />
<glyph unicode="(" horiz-adv-x="614" d="M82 471q0 324 73.5 581t172.5 423h215l10 -11q-106 -152 -186 -414t-80 -579t79.5 -579.5t186.5 -413.5l-10 -10h-215q-98 166 -172 422.5t-74 580.5z" />
<glyph unicode=")" horiz-adv-x="614" d="M61 -522q106 152 186.5 414t80.5 579t-80 579.5t-187 413.5l11 11h215q98 -166 171.5 -423t73.5 -581t-73.5 -581t-171.5 -422h-215z" />
<glyph unicode="*" horiz-adv-x="901" d="M82 952v11l266 102l-266 102v11l82 143h10l225 -164l-41 266l11 11h163l11 -11l-41 -266l225 164h10l82 -143v-11l-266 -102l266 -102v-11l-82 -143h-10l-225 164l41 -266l-11 -11h-163l-11 11l41 266l-225 -164h-10z" />
<glyph unicode="+" horiz-adv-x="1064" d="M133 655v185l10 10h287v287l10 10h185l10 -10v-287h287l10 -10v-185l-10 -10h-287v-287l-10 -10h-185l-10 10v287h-287z" />
<glyph unicode="," d="M51 -195q113 33 113 205v185l10 10h184l11 -10v-175q0 -109 -68 -172t-188 -63q-31 0 -62 10v10z" />
<glyph unicode="-" horiz-adv-x="819" d="M82 389v184l10 11h635l10 -11v-184l-10 -10h-635z" />
<glyph unicode="." d="M164 10v185l10 10h184l11 -10v-185l-11 -10h-184z" />
<glyph unicode="/" horiz-adv-x="655" d="M20 -502l410 1925l10 11h185l10 -11l-410 -1925l-10 -10h-184z" />
<glyph unicode="0" horiz-adv-x="894" d="M92 315v787q0 139 97.5 236.5t236.5 97.5h31q137 0 235.5 -97.5t98.5 -236.5v-787q0 -135 -98.5 -233t-235.5 -98h-31q-137 0 -235.5 98t-98.5 233zM274 334q0 -63 47.5 -111.5t110.5 -48.5h19q66 0 112.5 47t46.5 113v756q0 66 -47 113.5t-112 47.5h-19 q-63 0 -110.5 -48t-47.5 -113v-756z" />
<glyph unicode="1" d="M164 10v1260l10 20l184 154l11 -10v-1424l-11 -10h-184z" />
<glyph unicode="2" horiz-adv-x="983" d="M152 1122q0 135 98 230.5t235 95.5h31q139 0 236.5 -95.5t97.5 -230.5q0 -90 -29.5 -172t-58.5 -119l-29 -38q-47 -57 -131 -144.5t-123 -134.5t-73.5 -130t-34.5 -179h477l2 -205h-696v201q0 63 13 123.5t44 119t55.5 100.5t71.5 94t67.5 74.5t68.5 67.5t50 47 q74 72 111 140.5t37 101.5l-2 35q0 63 -47.5 110.5t-112.5 47.5h-12q-61 0 -107.5 -41t-50.5 -99h-188z" />
<glyph unicode="3" horiz-adv-x="886" d="M88 309v31h184v-18q0 -63 47.5 -109.5t114.5 -46.5q74 0 123 46t49 110v192q0 61 -46 107.5t-107 46.5h-56v188h2h2h2h3h2h2h2h4h2h2h4h2h4h2h4h2h4h2h5h4h2h4h4h18q53 8 89 52t36 100v98q0 63 -47 110.5t-110 47.5h-15q-61 0 -107 -41t-51 -99h-188q0 135 98.5 230.5 t235.5 95.5h33q137 0 234 -95t97 -231v-129q0 -145 -98 -233q98 -94 98 -234v-219q0 -135 -97 -231t-234 -96q-158 0 -262.5 96t-104.5 231z" />
<glyph unicode="4" horiz-adv-x="1038" d="M25 432h481v-420l10 -8h182l9 8v420h200l8 8v162l-8 12h-200v807l-9 13h-176l-497 -820v-182zM236 614l268 451l2 -451h-270z" />
<glyph unicode="5" horiz-adv-x="884" d="M86 315v19h188q0 -66 47.5 -113t112.5 -47h15q68 0 116.5 47t48.5 113v289q0 68 -49 113.5t-116 45.5h-15q-61 0 -106 -40t-54 -101h-188v6v787h645v-207h-465v-293q78 37 160 37h33q141 0 240.5 -98.5t99.5 -239.5v-318q0 -137 -99.5 -235t-240.5 -98h-33 q-139 0 -239.5 98t-100.5 235z" />
<glyph unicode="6" horiz-adv-x="897" d="M102 313v254q0 43 4 62v491q0 137 98.5 236.5t237.5 99.5h33q137 0 234.5 -98t97.5 -238l-180 -10q0 66 -47.5 112t-114.5 46h-16q-63 0 -110.5 -46t-47.5 -112v-242q70 35 143 35h35q137 0 235.5 -98t98.5 -238v-254q0 -137 -98.5 -234t-235.5 -97h-35q-135 0 -233.5 97 t-98.5 234zM285 332q0 -66 47 -114t114 -48h15q63 0 110 48t47 114v225q0 66 -47 112t-110 46h-15q-68 0 -114.5 -46t-46.5 -112v-225z" />
<glyph unicode="7" horiz-adv-x="917" d="M96 1243l10 -10h449l-309 -1221l10 -12h178l12 12l367 1411l-10 11h-697l-10 -11v-180z" />
<glyph unicode="8" horiz-adv-x="899" d="M98 305v217q0 139 101 236q-100 94 -101 233v127q0 135 99.5 232.5t236.5 97.5h33q139 0 237.5 -97.5t98.5 -232.5v-127q0 -139 -98 -233q98 -98 98 -236v-217q0 -135 -98.5 -232.5t-237.5 -97.5h-33q-137 0 -236.5 97.5t-99.5 232.5zM281 317q0 -63 47 -110t112 -47h21 q66 0 113 46t47 111v189q0 63 -46.5 108t-107.5 48h-33q-63 -2 -108 -47.5t-45 -108.5v-189zM281 1001q0 -55 35.5 -99t91.5 -54h26h33h27q55 10 91 54t36 99v103q0 63 -47.5 110.5t-112.5 47.5h-21q-63 0 -111 -47.5t-48 -110.5v-103z" />
<glyph unicode="9" horiz-adv-x="886" d="M102 315l177 11q0 -63 47 -109.5t112 -46.5h17q63 0 108 46t45 110v247q-74 -33 -141 -32h-33q-135 0 -231.5 96t-96.5 233v260q0 133 96.5 229.5t231.5 96.5h33q133 0 229.5 -96t96.5 -230v-260q0 -43 -5 -61v-494q0 -135 -96 -232t-233 -97h-31q-133 0 -229.5 97 t-96.5 232zM287 879q0 -63 46 -108.5t109 -45.5h15q68 0 112.5 45t44.5 109v233q0 63 -46 111.5t-111 48.5h-15q-63 0 -109 -48t-46 -112v-233z" />
<glyph unicode=":" d="M164 10v185l10 10h184l11 -10v-185l-11 -10h-184zM164 666v184l10 10h184l11 -10v-184l-11 -11h-184z" />
<glyph unicode=";" d="M51 -195q113 33 113 205v185l10 10h184l11 -10v-175q0 -109 -68 -172t-188 -63q-31 0 -62 10v10zM164 666v184l10 10h184l11 -10v-184l-11 -11h-184z" />
<glyph unicode="&#x37e;" d="M51 -195q113 33 113 205v185l10 10h184l11 -10v-175q0 -109 -68 -172t-188 -63q-31 0 -62 10v10zM164 666v184l10 10h184l11 -10v-184l-11 -11h-184z" />
<glyph unicode="&#x3c;" horiz-adv-x="1064" d="M113 666v163l10 11l799 317l10 -10v-205l-10 -10l-533 -184l533 -185l10 -10v-205l-10 -10l-799 317z" />
<glyph unicode="=" horiz-adv-x="1064" d="M133 451v184l10 10h779l10 -10v-184l-10 -11h-779zM133 860v184l10 11h779l10 -11v-184l-10 -10h-779z" />
<glyph unicode="&#x3e;" horiz-adv-x="1064" d="M133 348v205l10 10l533 185l-533 184l-10 10v205l10 10l799 -317l10 -11v-163l-10 -11l-799 -317z" />
<glyph unicode="?" horiz-adv-x="880" d="M41 1208q55 119 153.5 187.5t225.5 68.5q168 0 273.5 -101t105.5 -257q0 -82 -34 -155.5t-82 -124t-96 -94.5t-82 -87t-34 -82q0 -43 14.5 -66.5t57.5 -56.5l-127 -129q-59 37 -109.5 103.5t-50.5 148.5q0 66 34 123t82 103.5t96 91.5t82 102t34 123q0 68 -47.5 111 t-116.5 43q-139 0 -225 -154h-11zM276 92v21l123 123h21l123 -123v-21l-123 -123h-21z" />
<glyph unicode="@" horiz-adv-x="1720" d="M123 491.5q0 317.5 217 532.5t520 215q307 0 522 -207t215 -500q0 -205 -98 -327.5t-229 -122.5q-78 0 -132.5 16.5t-103.5 65.5q-98 -82 -215 -82q-113 0 -205 67.5t-92 188.5q0 256 461 297q0 113 -127 113q-141 0 -272 -93l-11 11l82 204q92 51 205 52q139 0 223 -85 t84 -247v-180q0 -86 26 -120t77 -34q57 0 95 71.5t38 204.5q0 221 -160 377t-383 156t-383 -168t-160 -405.5t160 -405.5t383 -168q154 0 277 82h20l72 -154q-166 -102 -369 -102q-303 0 -520 215t-217 532.5zM717 338q0 -82 102 -82q74 0 164 51v164q-129 -8 -197.5 -43 t-68.5 -90z" />
<glyph unicode="A" horiz-adv-x="1167" d="M47 12l434 1418l6 8h189l12 -8l430 -1418l-8 -12h-205l-12 12l-98 361h-422l-103 -361l-10 -12h-203zM428 578h307l-151 526z" />
<glyph unicode="B" horiz-adv-x="991" d="M88 12v1413l8 9h353q152 0 257 -104.5t105 -256.5v-45q0 -133 -80 -229q84 -49 134 -136.5t50 -189.5v-88q0 -160 -110.5 -272.5t-269.5 -112.5h-252h-2h-185zM295 864h133q70 0 121 52.5t51 123.5v15q0 72 -50 122t-122 50h-133v-363zM301 213h213q74 0 127 55.5 t53 130.5v54q0 76 -53 129t-127 53h-213v-422z" />
<glyph unicode="C" horiz-adv-x="1230" d="M129 496v442q0 236 150.5 376t355.5 140q184 0 325.5 -112.5t167.5 -319.5h-208q-27 111 -103 167t-178 56q-154 0 -232.5 -83t-78.5 -265v-299v-63q0 -168 85 -256.5t214 -88.5q229 0 286 181h209q-39 -180 -177 -284.5t-310 -104.5q-209 0 -357.5 135t-148.5 379z" />
<glyph unicode="D" horiz-adv-x="1093" d="M137 6v1415l13 13h342q203 0 346 -132.5t143 -369.5v-438q0 -227 -145.5 -360.5t-343.5 -133.5h-342zM338 201h160q143 0 214.5 80.5t71.5 255.5v358q0 168 -79.5 253t-206.5 85h-160v-1032z" />
<glyph unicode="E" horiz-adv-x="944" d="M164 10v1413l10 11h676l10 -11v-184l-10 -10h-481v-338h372l11 -10v-185l-11 -10h-372v-481h460l11 -10v-185l-11 -10h-655z" />
<glyph unicode="F" horiz-adv-x="964" d="M141 10v1413l11 11h702l10 -11v-184l-10 -10h-508v-338h375l10 -10v-185l-10 -10h-375v-676l-10 -10h-184z" />
<glyph unicode="G" horiz-adv-x="1163" d="M80 502v436q0 236 148.5 376t349.5 140q197 0 342 -122t161 -343h-204q-23 125 -102 190.5t-189 65.5q-152 0 -228.5 -83t-76.5 -263v-299v-61q0 -168 82.5 -257t209.5 -89q309 0 310 346h-305v204h503v-204v-37q0 -236 -149.5 -376t-354 -140t-351 135t-146.5 381z" />
<glyph unicode="H" horiz-adv-x="1155" d="M123 10v1413l10 11h184l11 -11v-532h493v532l10 11h185l10 -11v-1413l-10 -10h-185l-10 10v676h-493v-676l-11 -10h-184z" />
<glyph unicode="I" d="M164 10v1413l10 11h184l11 -11v-1413l-11 -10h-184z" />
<glyph unicode="J" horiz-adv-x="942" d="M20 236l164 81h21q45 -133 174 -133q104 0 149 65.5t45 201.5v972l11 11h184l10 -11v-1044q0 -186 -108.5 -298t-290.5 -112q-281 1 -359 267z" />
<glyph unicode="K" horiz-adv-x="1163" d="M164 10v1413l10 11h184l11 -11v-491l344 491l20 11h205l10 -11l-424 -604l541 -809l-10 -10h-226l-20 10l-440 676v-676l-11 -10h-184z" />
<glyph unicode="L" horiz-adv-x="948" d="M164 8v1417l8 9h188l9 -9v-1220h422l8 -10v-187l-8 -8h-619z" />
<glyph unicode="M" horiz-adv-x="1583" d="M164 10v1413l10 11h174l21 -11l409 -624l430 624l21 11h174l10 -11v-1413l-10 -10h-184l-11 10v1051l-420 -615h-20l-399 615v-1051l-11 -10h-184z" />
<glyph unicode="N" horiz-adv-x="1327" d="M164 10v1413l10 11h195l20 -11l553 -1020v1020l10 11h185l10 -11v-1413l-10 -10h-195l-20 10l-553 1020v-1020l-11 -10h-184z" />
<glyph unicode="O" horiz-adv-x="1220" d="M106 494v440q0 236 151 377t355 141q207 0 355.5 -135t148.5 -383v-440q0 -238 -149.5 -379.5t-354.5 -141.5q-209 0 -357.5 136.5t-148.5 384.5zM307 532q0 -172 84 -260t217 -88q154 0 232 83t78 265v302v59q0 172 -84 261t-213 89q-158 0 -236 -83t-78 -267v-361z" />
<glyph unicode="P" horiz-adv-x="862" d="M74 12v1413l8 9h352q152 0 257.5 -104.5t105.5 -256.5v-155q0 -152 -105.5 -259.5t-257.5 -107.5h-153v-539l-15 -12h-184zM281 754h133q70 0 121 52t51 124v125q0 72 -51.5 122t-120.5 50h-133v-473z" />
<glyph unicode="Q" horiz-adv-x="1224" d="M90 498v434q0 233 148.5 371.5t349.5 138.5q205 0 351 -133t146 -377v-434q0 -127 -55 -244l154 -137v-13l-121 -139h-14l-148 133q-133 -111 -313 -110q-205 0 -351.5 134t-146.5 376zM287 537q0 -168 83 -256t214 -88q100 0 170 40l-127 111v14l123 136h12l108 -99 q16 51 17 142v297v59q0 168 -82 255t-209 87q-154 0 -231.5 -82t-77.5 -260v-297v-59z" />
<glyph unicode="R" horiz-adv-x="1038" d="M98 12v1413l8 9h388q152 0 257 -104.5t105 -256.5v-92q0 -104 -53 -191.5t-141 -132.5l342 -645l-11 -10h-221l-10 10l-320 602h-137v-602l-14 -12h-185zM305 817h168q70 0 121 52.5t51 123.5v62q0 72 -50 122t-122 50h-168v-410z" />
<glyph unicode="S" horiz-adv-x="909" d="M51 274q49 -135 148.5 -211.5t232.5 -76.5q170 0 290 131t120 319q0 102 -41 185.5t-102.5 132.5t-134 94t-134 75.5t-102.5 72.5t-41 87q0 68 35.5 110t91.5 42q51 0 84.5 -25.5t79.5 -85.5h18l137 111q-113 209 -319 209q-141 0 -238.5 -104.5t-97.5 -256.5 q0 -109 57.5 -188.5t139 -127.5t162.5 -92t138.5 -103.5t57.5 -135.5q0 -106 -56.5 -172.5t-144.5 -66.5q-143 0 -225 198h-19z" />
<glyph unicode="T" horiz-adv-x="1081" d="M82 1239v184l10 11h881l10 -11v-184l-10 -10h-338v-1219l-10 -10h-185l-10 10v1219h-338z" />
<glyph unicode="U" horiz-adv-x="1081" d="M92 510q0 -256 123 -391t326 -135q199 0 319.5 140t120.5 386v913l-10 11h-185l-12 -11v-858q0 -201 -48 -283.5t-194 -82.5q-123 0 -178 91t-55 275v858l-10 11h-187l-10 -11v-913z" />
<glyph unicode="V" horiz-adv-x="1159" d="M172 1421l8 13h205l12 -13l187 -1001l190 1001l10 13h203l10 -13l-311 -1413l-6 -8h-188l-13 8z" />
<glyph unicode="W" horiz-adv-x="1540" d="M41 1425l10 9h203l10 -9l213 -1036l182 1036l13 9h205l10 -9l209 -1036l186 1036l8 9h205l6 -9l-303 -1415l-10 -10h-184l-7 10l-221 928l-201 -928l-6 -10h-184l-10 10z" />
<glyph unicode="X" horiz-adv-x="913" d="M72 10l282 707l-282 706l8 11h184l12 -11l181 -450l182 450l10 11h185l10 -11l-285 -706l285 -707l-10 -10h-183l-12 10l-182 451l-181 -451l-12 -10h-184z" />
<glyph unicode="Y" horiz-adv-x="884" d="M25 1421l12 13h184l12 -13l201 -512l203 512l12 13h182l13 -13l-312 -770v-645l-6 -6h-182l-12 6v651z" />
<glyph unicode="Z" horiz-adv-x="901" d="M53 10l488 1219h-451l-10 10v184l10 11h746l10 -11l-490 -1218h457l10 -12v-183l-10 -10h-750z" />
<glyph unicode="[" horiz-adv-x="614" d="M82 -522v1986l10 11h430l10 -11v-184l-10 -10h-235v-1598h235l10 -10v-184l-10 -10h-430z" />
<glyph unicode="\" horiz-adv-x="655" d="M20 1423l11 11h184l10 -11l410 -1925l-10 -10h-185l-10 10z" />
<glyph unicode="]" horiz-adv-x="614" d="M82 -338l10 10h236v1598h-236l-10 10v184l10 11h430l10 -11v-1986l-10 -10h-430l-10 10v184z" />
<glyph unicode="^" horiz-adv-x="1064" d="M123 625l317 798l11 11h163l11 -11l317 -798l-10 -11h-205l-10 11l-185 532l-184 -532l-10 -11h-205z" />
<glyph unicode="_" horiz-adv-x="1024" d="M82 -113l10 11h840l10 -11v-184l-10 -10h-840l-10 10v184z" />
<glyph unicode="`" horiz-adv-x="1249" d="M266 1362l8 10h238l20 -10l277 -297l-10 -10h-185l-20 10z" />
<glyph unicode="a" horiz-adv-x="888" d="M63 258q0 61 14.5 110.5t49.5 86.5t68.5 62.5t95 50t103.5 39t118 34.5q18 6 54 16.5t46 14.5v20q0 70 -48 124t-122 54q-66 0 -114.5 -56t-48.5 -126h-193q0 154 110.5 256.5t258.5 102.5h8q141 0 243.5 -104.5t102.5 -246.5v-696h-197v92q-115 -96 -268 -96 q-119 0 -199 64.5t-82 197.5zM260 270q2 -96 119 -96q43 0 113.5 35t119.5 74v213q-2 0 -10 -2t-10 -2q-49 -12 -72.5 -18.5t-72 -22t-74 -30.5t-57 -37t-44 -50.5t-12.5 -63.5z" />
<glyph unicode="b" horiz-adv-x="970" d="M106 10v1413l11 11h182l12 -11v-430q96 66 199 66q143 0 245.5 -101.5t102.5 -285.5v-301q0 -176 -103.5 -281.5t-244.5 -105.5q-115 0 -199 63v-37l-12 -10h-182zM311 281q23 -45 67 -75t97 -30h7q83 0 126 50q45 52 45 169v226q0 113 -49 171t-123 58q-49 0 -99 -29.5 t-71 -75.5v-464z" />
<glyph unicode="c" horiz-adv-x="909" d="M80 328v383q0 141 103.5 245.5t244.5 104.5h43q141 0 245.5 -104.5t104.5 -245.5v-21h-196q0 68 -50.5 121t-117.5 53h-15q-68 0 -118 -53t-50 -121v-55v-176v-125q0 -68 50.5 -121t117.5 -53h15q68 0 118 53t50 121h196v-6q0 -145 -103.5 -248t-246.5 -103h-43 q-143 0 -245.5 103t-102.5 248z" />
<glyph unicode="d" horiz-adv-x="987" d="M109 371q0 -176 103 -281.5t245 -105.5q115 0 198 63v-37l13 -10h182l10 10v1413l-10 11h-182l-13 -11v-428q-96 66 -198 66q-143 0 -245.5 -101.5t-102.5 -285.5v-303zM313 395v238q0 113 49.5 171t122.5 58q49 0 99.5 -29.5t70.5 -74.5v-477q-23 -45 -66.5 -75 t-96.5 -30h-7q-83 0 -127 50q-45 52 -45 169z" />
<glyph unicode="e" horiz-adv-x="931" d="M88 328v383q0 145 103.5 248.5t250.5 103.5h31q145 0 241.5 -102.5t96.5 -249.5v-211h-530v-156q-2 -82 48 -136t117 -54h21q72 0 125 56t51 134h182q0 -156 -102 -262.5t-250 -106.5h-31q-147 0 -250.5 105t-103.5 248zM281 664h352v55q0 66 -49 115t-117 49h-21 q-66 0 -115.5 -49.5t-49.5 -114.5v-55z" />
<glyph unicode="f" horiz-adv-x="661" d="M59 844v194h162v23q0 184 64.5 273t203.5 89q59 0 103 -22v-162l-14 -8q-37 14 -74 14q-47 0 -71.5 -31.5t-24.5 -138.5v-37h192v-194h-192v-836l-15 -8h-164l-8 8v836h-162z" />
<glyph unicode="g" horiz-adv-x="876" d="M63 330v372q0 141 100.5 241.5t242.5 100.5h34q80 0 154 -36v18l12 10h185l10 -10v-1153q0 -180 -92.5 -284.5t-247.5 -104.5q-14 0 -40 1t-90.5 17.5t-114.5 48t-91 103.5t-43 170h12h185q0 -94 78 -134q41 -21 82 -21l76 18q79 37 79 133v41v164q-78 -39 -154 -39h-34 q-141 0 -242 101.5t-101 242.5zM250 340q0 -68 48 -115t116 -47h18q68 0 120 47t52 115v346q0 66 -52 116t-120 50h-18q-68 0 -116 -49t-48 -117v-346z" />
<glyph unicode="h" horiz-adv-x="962" d="M111 6v109v1304l14 15h182l6 -15v-438q106 68 203 68q143 0 244.5 -102.5t101.5 -284.5v-291v-332v-33l-6 -6h-190l-7 6v109v276v211q0 104 -50 163.5t-120 59.5q-51 0 -101 -29.5t-75 -78.5v-441v-237v-33l-6 -6h-182z" />
<glyph unicode="i" d="M164 10v1018l10 10h184l11 -10v-1018l-11 -10h-184zM164 1139v174l14 14h174l15 -14v-174l-15 -15h-174z" />
<glyph unicode="j" d="M-41 -338l10 10q41 -20 82 -20q55 0 84 38t29 156v1182l10 10h184l11 -10v-1171q0 -399 -297 -400q-72 0 -113 21v184zM162 1139v174l14 14h174l15 -14v-174l-15 -15h-174z" />
<glyph unicode="k" horiz-adv-x="931" d="M164 10v1413l10 11h184l11 -11v-729l245 334l21 10h201l10 -10l-314 -416l359 -602l-10 -10h-205l-21 10l-286 479v-479l-11 -10h-184z" />
<glyph unicode="l" horiz-adv-x="487" d="M137 10v1413l10 11h185l10 -11v-1413l-10 -10h-185z" />
<glyph unicode="m" horiz-adv-x="1515" d="M98 10v1018l11 10h182l10 -10v-37q80 57 203 58q166 0 268 -127q35 66 115 96.5t147 30.5q145 0 250 -106.5t105 -285.5v-292v-60v-301l-11 -4h-188l-10 4v295v129v203q0 225 -176 225q-119 -6 -152 -133v-6v-53v-295v-60v-299l-10 -10h-187l-12 10v295v129v203 q0 119 -45 171q-42 48 -119 48h-12q-49 0 -94 -28.5t-72 -71.5v-746l-10 -10h-182z" />
<glyph unicode="n" horiz-adv-x="1009" d="M121 10v297v721l10 10h186l11 -10v-37q92 61 200 62q141 0 247 -105.5t106 -283.5v-293l-4 -62v-295l-11 -14h-184l-10 14v293v125v205q0 119 -45 172q-43 51 -127 51h-6q-51 -2 -96.5 -32.5t-69.5 -75.5v-443v-299l-11 -10h-186z" />
<glyph unicode="o" horiz-adv-x="929" d="M98 324v383q0 143 102.5 245.5t245.5 102.5h37q143 0 245.5 -102.5t102.5 -245.5v-383q0 -143 -102 -246t-246 -103h-37q-143 0 -245.5 103t-102.5 246zM291 332q0 -68 48 -117t118 -49h16q70 0 118 49t48 117v362q0 70 -48 118t-118 48h-16q-70 0 -118 -48t-48 -118 v-362z" />
<glyph unicode="p" horiz-adv-x="962" d="M96 -389l10 -10h183l12 10v438q96 -66 199 -65q143 0 245.5 101t102.5 286v293q0 176 -103.5 281.5t-244.5 105.5q-115 0 -199 -64v37l-12 10h-183l-10 -10v-1413zM301 297v457q23 45 67 74.5t97 29.5h6q83 0 127 -50q45 -52 45 -169v-217q0 -113 -49 -171t-123 -58 q-49 0 -99.5 29.5t-70.5 74.5z" />
<glyph unicode="q" horiz-adv-x="960" d="M98 371v293q0 176 103.5 281.5t244.5 105.5q115 0 199 -64v37l12 10h183l10 -10v-1413l-10 -10h-183l-12 10v438q-96 -66 -199 -65q-143 0 -245.5 101.5t-102.5 285.5zM303 422q0 -113 49 -171t123 -58q49 0 99.5 29.5t70.5 74.5v457q-23 45 -66.5 74.5t-97.5 29.5h-6 q-83 0 -127 -50q-45 -52 -45 -169v-217z" />
<glyph unicode="r" horiz-adv-x="731" d="M164 10l10 -10h184l11 10v760q37 43 119.5 67.5t166.5 24.5v195q-180 0 -286 -62v31l-11 10h-184l-10 -10v-1016z" />
<glyph unicode="s" horiz-adv-x="706" d="M51 102q14 -14 39 -34.5t105.5 -54t164.5 -33.5q141 0 223.5 83.5t82.5 208.5q0 164 -164 297q-18 14 -60.5 45t-60.5 45q-111 88 -113 148q-2 33 21.5 56.5t62.5 23.5q84 0 168 -82l123 133q-4 6 -12 15.5t-36 34t-57.5 42t-77.5 31.5q-42 13 -87 12h-13 q-125 -4 -203.5 -77.5t-78.5 -200.5q0 -84 40 -153t132 -142l100 -80q68 -53 90 -83q21 -27 21 -57q0 -47 -25.5 -71.5t-68.5 -24.5q-82 0 -203 95z" />
<glyph unicode="t" horiz-adv-x="819" d="M74 844l10 -10h219l-4 -824l10 -10h180l11 10v824h219l10 10v168l-10 10h-219v276l-11 13h-176l-10 -11v-278h-219l-10 -10v-168z" />
<glyph unicode="u" horiz-adv-x="978" d="M102 375v293l4 61v295l11 14h184l10 -14v-293v-125v-205q0 -119 45 -172q43 -51 127 -51h6q51 2 96.5 33t69.5 76v442v299l11 10h186l10 -10v-297v-721l-10 -10h-186l-11 10v37q-92 -61 -200 -61q-141 0 -247 105.5t-106 283.5z" />
<glyph unicode="v" horiz-adv-x="923" d="M61 1026l11 10h204l11 -10l184 -692l184 692l11 10h204l11 -10l-308 -1016l-10 -10h-184l-10 10z" />
<glyph unicode="w" horiz-adv-x="1638" d="M143 1026l11 10h204l11 -10l143 -733l215 692l10 10h164l10 -10l215 -692l144 733l10 10h205l10 -10l-246 -1016l-10 -10h-205l-10 10l-205 606l-205 -606l-10 -10h-205l-10 10z" />
<glyph unicode="x" horiz-adv-x="983" d="M72 10l321 531l-303 483l10 12h197l20 -12l191 -307l188 307l19 12h198l9 -12l-301 -483l321 -531l-10 -10h-199l-18 10l-207 342l-211 -342l-16 -10h-201z" />
<glyph unicode="y" horiz-adv-x="1126" d="M61 -317l11 10q174 0 256 164l123 256l-349 913l11 10h204l21 -10l225 -618l228 618l20 10h203l10 -10l-522 -1262q-72 -125 -166 -190.5t-264 -65.5l-11 15v160z" />
<glyph unicode="z" horiz-adv-x="862" d="M41 10l395 824h-346l-8 10v184l10 10h666l10 -10l-403 -823h419l11 -10v-185l-11 -10h-733z" />
<glyph unicode="{" horiz-adv-x="778" d="M82 379v184l10 10q109 0 162 57.5t53 147.5q0 53 -10 143.5t-10 143.5q0 205 109.5 307.5t289.5 102.5l10 -11v-184l-10 -10q-94 0 -139 -56.5t-45 -148.5q0 -53 10 -143.5t10 -143.5q0 -201 -153 -307q154 -106 153 -307q0 -53 -10 -143.5t-10 -143.5q0 -92 45 -148.5 t139 -56.5l10 -10v-184l-10 -10q-180 0 -289.5 102t-109.5 307q0 53 10 143.5t10 143.5q0 90 -53 147.5t-162 57.5z" />
<glyph unicode="|" d="M164 -604v2027l10 11h184l11 -11v-2027l-11 -10h-184z" />
<glyph unicode="}" horiz-adv-x="778" d="M82 -338l10 10q94 0 139 56.5t45 148.5q0 53 -10 143.5t-10 143.5q0 201 154 307q-154 106 -154 307q0 53 10 143.5t10 143.5q0 92 -45 148.5t-139 56.5l-10 10v184l10 11q180 0 290 -102.5t110 -307.5q0 -53 -10.5 -143.5t-10.5 -143.5q0 -90 53.5 -147.5t161.5 -57.5 l10 -10v-184l-10 -10q-109 0 -162 -57.5t-53 -147.5q0 -53 10.5 -143.5t10.5 -143.5q0 -205 -110 -307t-290 -102l-10 10v184z" />
<glyph unicode="~" horiz-adv-x="1064" d="M102 645q45 100 115 168t162 68q66 0 196 -41t234 -41q82 0 143 61l11 -10q-45 -100 -115 -168t-162 -68q-66 0 -196 41t-234 41q-82 0 -143 -61z" />
<glyph unicode="&#xa0;" />
<glyph unicode="&#xaa;" horiz-adv-x="888" d="M63 258q0 61 14.5 110.5t49.5 86.5t68.5 62.5t95 50t103.5 39t118 34.5q18 6 54 16.5t46 14.5v20q0 70 -48 124t-122 54q-66 0 -114.5 -56t-48.5 -126h-193q0 154 110.5 256.5t258.5 102.5h8q141 0 243.5 -104.5t102.5 -246.5v-696h-197v92q-115 -96 -268 -96 q-119 0 -199 64.5t-82 197.5zM260 270q2 -96 119 -96q43 0 113.5 35t119.5 74v213q-2 0 -10 -2t-10 -2q-49 -12 -72.5 -18.5t-72 -22t-74 -30.5t-57 -37t-44 -50.5t-12.5 -63.5z" />
<glyph unicode="&#xad;" horiz-adv-x="819" d="M82 389v184l10 11h635l10 -11v-184l-10 -10h-635z" />
<glyph unicode="&#xb2;" horiz-adv-x="983" d="M152 1122q0 135 98 230.5t235 95.5h31q139 0 236.5 -95.5t97.5 -230.5q0 -90 -29.5 -172t-58.5 -119l-29 -38q-47 -57 -131 -144.5t-123 -134.5t-73.5 -130t-34.5 -179h477l2 -205h-696v201q0 63 13 123.5t44 119t55.5 100.5t71.5 94t67.5 74.5t68.5 67.5t50 47 q74 72 111 140.5t37 101.5l-2 35q0 63 -47.5 110.5t-112.5 47.5h-12q-61 0 -107.5 -41t-50.5 -99h-188z" />
<glyph unicode="&#xb3;" horiz-adv-x="886" d="M88 309v31h184v-18q0 -63 47.5 -109.5t114.5 -46.5q74 0 123 46t49 110v192q0 61 -46 107.5t-107 46.5h-56v188h2h2h2h3h2h2h2h4h2h2h4h2h4h2h4h2h4h2h5h4h2h4h4h18q53 8 89 52t36 100v98q0 63 -47 110.5t-110 47.5h-15q-61 0 -107 -41t-51 -99h-188q0 135 98.5 230.5 t235.5 95.5h33q137 0 234 -95t97 -231v-129q0 -145 -98 -233q98 -94 98 -234v-219q0 -135 -97 -231t-234 -96q-158 0 -262.5 96t-104.5 231z" />
<glyph unicode="&#xb9;" d="M164 10v1260l10 20l184 154l11 -10v-1424l-11 -10h-184z" />
<glyph unicode="&#xba;" horiz-adv-x="929" d="M98 324v383q0 143 102.5 245.5t245.5 102.5h37q143 0 245.5 -102.5t102.5 -245.5v-383q0 -143 -102 -246t-246 -103h-37q-143 0 -245.5 103t-102.5 246zM291 332q0 -68 48 -117t118 -49h16q70 0 118 49t48 117v362q0 70 -48 118t-118 48h-16q-70 0 -118 -48t-48 -118 v-362z" />
<glyph unicode="&#xc0;" horiz-adv-x="1167" d="M47 12l434 1418l6 8h189l12 -8l430 -1418l-8 -12h-205l-12 12l-98 361h-422l-103 -361l-10 -12h-203zM246 1782l8 10h258l20 -10l277 -256l-10 -10h-205l-21 10zM428 578h307l-151 526z" />
<glyph unicode="&#xc1;" horiz-adv-x="1163" d="M47 12l434 1418l6 8h189l12 -8l430 -1418l-8 -12h-205l-12 12l-98 361h-422l-103 -361l-10 -12h-203zM379 1526l276 256l21 10h258l8 -10l-328 -256l-20 -10h-205zM428 578h307l-151 526z" />
<glyph unicode="&#xc2;" horiz-adv-x="1167" d="M172 1586l317 798l11 11h163l11 -11l317 -798l-10 -11h-205l-10 11l-185 532l-184 -532l-10 -11h-205zM47 12l434 1418l6 8h189l12 -8l430 -1418l-8 -12h-205l-12 12l-98 361h-422l-103 -361l-10 -12h-203zM428 578h307l-151 526z" />
<glyph unicode="&#xc3;" horiz-adv-x="1167" d="M151 1606q45 100 115 168t162 68q66 0 196 -41t234 -41q82 0 143 61l11 -10q-45 -100 -115 -168t-162 -68q-66 0 -196 41t-234 41q-82 0 -143 -61zM47 12l434 1418l6 8h189l12 -8l430 -1418l-8 -12h-205l-12 12l-98 361h-422l-103 -361l-10 -12h-203zM428 578h307 l-151 526z" />
<glyph unicode="&#xc7;" horiz-adv-x="1241" d="M129 496v442q0 236 150.5 376t355.5 140q184 0 325.5 -112.5t167.5 -319.5h-208q-27 111 -103 167t-178 56q-154 0 -232.5 -83t-78.5 -265v-299v-63q0 -168 85 -256.5t214 -88.5q229 0 286 181h209q-39 -180 -177 -284.5t-310 -104.5q-209 0 -357.5 135t-148.5 379z M492 -471l51 338l20 10h185l10 -10l-103 -338l-10 -10h-143z" />
<glyph unicode="&#xc8;" horiz-adv-x="1011" d="M123 1782l8 10h258l21 -10l276 -256l-10 -10h-205l-20 10zM164 10v1413l10 11h676l10 -11v-184l-10 -10h-481v-338h372l11 -10v-185l-11 -10h-372v-481h460l11 -10v-185l-11 -10h-655z" />
<glyph unicode="&#xc9;" horiz-adv-x="1024" d="M164 10v1413l10 11h676l10 -11v-184l-10 -10h-481v-338h372l11 -10v-185l-11 -10h-372v-481h460l11 -10v-185l-11 -10h-655zM338 1526l276 256l21 10h258l8 -10l-328 -256l-20 -10h-205z" />
<glyph unicode="&#xca;" horiz-adv-x="944" d="M103 1586l317 798l11 11h163l11 -11l317 -798l-10 -11h-205l-10 11l-185 532l-184 -532l-10 -11h-205zM164 10v1413l10 11h676l10 -11v-184l-10 -10h-481v-338h372l11 -10v-185l-11 -10h-372v-481h460l11 -10v-185l-11 -10h-655z" />
<glyph unicode="&#xcc;" d="M-61 1782l8 10h258l20 -10l236 -256l-10 -10h-205l-21 10zM164 10v1413l10 11h184l11 -11v-1413l-11 -10h-184z" />
<glyph unicode="&#xcd;" d="M72 1526l235 256l21 10h258l8 -10l-287 -256l-20 -10h-205zM164 10v1413l10 11h184l11 -11v-1413l-11 -10h-184z" />
<glyph unicode="&#xce;" d="M-143 1586l317 798l11 11h163l11 -11l317 -798l-10 -11h-205l-10 11l-185 532l-184 -532l-10 -11h-205zM164 10v1413l10 11h184l11 -11v-1413l-11 -10h-184z" />
<glyph unicode="&#xd1;" horiz-adv-x="1327" d="M225 1606q45 100 115 168t162 68q66 0 196 -41t234 -41q82 0 143 61l11 -10q-45 -100 -115 -168t-162 -68q-66 0 -196 41t-234 41q-82 0 -143 -61zM164 10v1413l10 11h195l20 -11l553 -1020v1020l10 11h185l10 -11v-1413l-10 -10h-195l-20 10l-553 1020v-1020l-11 -10 h-184z" />
<glyph unicode="&#xd2;" horiz-adv-x="1232" d="M106 494v440q0 236 151 377t355 141q207 0 355.5 -135t148.5 -383v-440q0 -238 -149.5 -379.5t-354.5 -141.5q-209 0 -357.5 136.5t-148.5 384.5zM307 532q0 -172 84 -260t217 -88q154 0 232 83t78 265v302v59q0 172 -84 261t-213 89q-158 0 -236 -83t-78 -267v-361z M307 1782l8 10h258l21 -10l276 -256l-10 -10h-205l-20 10z" />
<glyph unicode="&#xd3;" horiz-adv-x="1216" d="M106 494v440q0 236 151 377t355 141q207 0 355.5 -135t148.5 -383v-440q0 -238 -149.5 -379.5t-354.5 -141.5q-209 0 -357.5 136.5t-148.5 384.5zM307 532q0 -172 84 -260t217 -88q154 0 232 83t78 265v302v59q0 172 -84 261t-213 89q-158 0 -236 -83t-78 -267v-361z M420 1526l276 256l21 10h258l8 -10l-328 -256l-20 -10h-205z" />
<glyph unicode="&#xd4;" horiz-adv-x="1220" d="M203 1586l317 798l11 11h163l11 -11l317 -798l-10 -11h-205l-10 11l-185 532l-184 -532l-10 -11h-205zM106 494v440q0 236 151 377t355 141q207 0 355.5 -135t148.5 -383v-440q0 -238 -149.5 -379.5t-354.5 -141.5q-209 0 -357.5 136.5t-148.5 384.5zM307 532 q0 -172 84 -260t217 -88q154 0 232 83t78 265v302v59q0 172 -84 261t-213 89q-158 0 -236 -83t-78 -267v-361z" />
<glyph unicode="&#xd5;" horiz-adv-x="1220" d="M182 1606q45 100 115 168t162 68q66 0 196 -41t234 -41q82 0 143 61l11 -10q-45 -100 -115 -168t-162 -68q-66 0 -196 41t-234 41q-82 0 -143 -61zM106 494v440q0 236 151 377t355 141q207 0 355.5 -135t148.5 -383v-440q0 -238 -149.5 -379.5t-354.5 -141.5 q-209 0 -357.5 136.5t-148.5 384.5zM307 532q0 -172 84 -260t217 -88q154 0 232 83t78 265v302v59q0 172 -84 261t-213 89q-158 0 -236 -83t-78 -267v-361z" />
<glyph unicode="&#xd9;" horiz-adv-x="1081" d="M92 510q0 -256 123 -391t326 -135q199 0 319.5 140t120.5 386v913l-10 11h-185l-12 -11v-858q0 -201 -48 -283.5t-194 -82.5q-123 0 -178 91t-55 275v858l-10 11h-187l-10 -11v-913zM164 1782l8 10h258l21 -10l276 -256l-10 -10h-205l-20 10z" />
<glyph unicode="&#xda;" horiz-adv-x="1093" d="M92 510q0 -256 123 -391t326 -135q199 0 319.5 140t120.5 386v913l-10 11h-185l-12 -11v-858q0 -201 -48 -283.5t-194 -82.5q-123 0 -178 91t-55 275v858l-10 11h-187l-10 -11v-913zM461 1526l276 256l21 10h258l8 -10l-328 -256l-20 -10h-205z" />
<glyph unicode="&#xdb;" horiz-adv-x="1081" d="M127 1586l317 798l11 11h163l11 -11l317 -798l-10 -11h-205l-10 11l-185 532l-184 -532l-10 -11h-205zM92 510q0 -256 123 -391t326 -135q199 0 319.5 140t120.5 386v913l-10 11h-185l-12 -11v-858q0 -201 -48 -283.5t-194 -82.5q-123 0 -178 91t-55 275v858l-10 11h-187 l-10 -11v-913z" />
<glyph unicode="&#xe0;" horiz-adv-x="1003" d="M125 1409l8 10h238l20 -10l277 -297l-11 -10h-184l-20 10zM145 258q0 61 14.5 110.5t49.5 86.5t68.5 62.5t95 50t103.5 39t118 34.5q18 6 54 16.5t46 14.5v20q0 70 -48 124t-122 54q-66 0 -115 -56t-49 -126h-192q0 154 110.5 256.5t258.5 102.5h8q141 0 243.5 -104.5 t102.5 -246.5v-696h-197v92q-115 -96 -268 -96q-119 0 -199 64.5t-82 197.5zM342 270q2 -96 119 -96q43 0 113.5 35t119.5 74v213q-2 0 -10 -2t-10 -2q-49 -12 -72.5 -18.5t-72 -22t-74 -30.5t-57 -37t-44 -50.5t-12.5 -63.5z" />
<glyph unicode="&#xe1;" horiz-adv-x="931" d="M63 258q0 61 14.5 110.5t49.5 86.5t68.5 62.5t95 50t103.5 39t118 34.5q18 6 54 16.5t46 14.5v20q0 70 -48 124t-122 54q-66 0 -114.5 -56t-48.5 -126h-193q0 154 110.5 256.5t258.5 102.5h8q141 0 243.5 -104.5t102.5 -246.5v-696h-197v92q-115 -96 -268 -96 q-119 0 -199 64.5t-82 197.5zM260 270q2 -96 119 -96q43 0 113.5 35t119.5 74v213q-2 0 -10 -2t-10 -2q-49 -12 -72.5 -18.5t-72 -22t-74 -30.5t-57 -37t-44 -50.5t-12.5 -63.5zM307 1126l277 297l20 11h238l8 -11l-328 -297l-20 -10h-185z" />
<glyph unicode="&#xe2;" horiz-adv-x="888" d="M49 1188l317 798l11 11h163l11 -11l317 -798l-10 -11h-205l-10 11l-185 532l-184 -532l-10 -11h-205zM63 258q0 61 14.5 110.5t49.5 86.5t68.5 62.5t95 50t103.5 39t118 34.5q18 6 54 16.5t46 14.5v20q0 70 -48 124t-122 54q-66 0 -114.5 -56t-48.5 -126h-193 q0 154 110.5 256.5t258.5 102.5h8q141 0 243.5 -104.5t102.5 -246.5v-696h-197v92q-115 -96 -268 -96q-119 0 -199 64.5t-82 197.5zM260 270q2 -96 119 -96q43 0 113.5 35t119.5 74v213q-2 0 -10 -2t-10 -2q-49 -12 -72.5 -18.5t-72 -22t-74 -30.5t-57 -37t-44 -50.5 t-12.5 -63.5z" />
<glyph unicode="&#xe3;" horiz-adv-x="888" d="M28 1208q45 100 115 168t162 68q66 0 196 -41t234 -41q82 0 143 61l11 -10q-45 -100 -115 -168t-162 -68q-66 0 -196 41t-234 41q-82 0 -143 -61zM63 258q0 61 14.5 110.5t49.5 86.5t68.5 62.5t95 50t103.5 39t118 34.5q18 6 54 16.5t46 14.5v20q0 70 -48 124t-122 54 q-66 0 -114.5 -56t-48.5 -126h-193q0 154 110.5 256.5t258.5 102.5h8q141 0 243.5 -104.5t102.5 -246.5v-696h-197v92q-115 -96 -268 -96q-119 0 -199 64.5t-82 197.5zM260 270q2 -96 119 -96q43 0 113.5 35t119.5 74v213q-2 0 -10 -2t-10 -2q-49 -12 -72.5 -18.5t-72 -22 t-74 -30.5t-57 -37t-44 -50.5t-12.5 -63.5z" />
<glyph unicode="&#xe7;" horiz-adv-x="1044" d="M182 328v383q0 141 103.5 245.5t244.5 104.5h43q141 0 246 -104.5t105 -245.5v-21h-197q0 68 -50 121t-118 53h-14q-68 0 -118 -53t-50 -121v-55v-176v-125q0 -68 50 -121t118 -53h14q68 0 118 53t50 121h197v-6q0 -145 -103.5 -248t-247.5 -103h-43q-143 0 -245.5 103 t-102.5 248zM389 -471l51 338l21 10h184l10 -10l-102 -338l-10 -10h-144z" />
<glyph unicode="&#xe8;" horiz-adv-x="923" d="M88 328v383q0 145 103.5 248.5t250.5 103.5h31q145 0 241.5 -102.5t96.5 -249.5v-211h-530v-156q-2 -82 48 -136t117 -54h21q72 0 125 56t51 134h182q0 -156 -102 -262.5t-250 -106.5h-31q-147 0 -250.5 105t-103.5 248zM123 1444l8 10h238l20 -10l277 -297l-11 -10h-184 l-20 10zM281 664h352v55q0 66 -49 115t-117 49h-21q-66 0 -115.5 -49.5t-49.5 -114.5v-55z" />
<glyph unicode="&#xe9;" horiz-adv-x="940" d="M88 328v383q0 145 103.5 248.5t250.5 103.5h31q145 0 241.5 -102.5t96.5 -249.5v-211h-530v-156q-2 -82 48 -136t117 -54h21q72 0 125 56t51 134h182q0 -156 -102 -262.5t-250 -106.5h-31q-147 0 -250.5 105t-103.5 248zM276 1126l277 297l20 11h238l8 -11l-327 -297 l-21 -10h-184zM281 664h352v55q0 66 -49 115t-117 49h-21q-66 0 -115.5 -49.5t-49.5 -114.5v-55z" />
<glyph unicode="&#xea;" horiz-adv-x="931" d="M49 1196l317 798l11 11h163l11 -11l317 -798l-10 -11h-205l-10 11l-185 532l-184 -532l-10 -11h-205zM88 328v383q0 145 103.5 248.5t250.5 103.5h31q145 0 241.5 -102.5t96.5 -249.5v-211h-530v-156q-2 -82 48 -136t117 -54h21q72 0 125 56t51 134h182 q0 -156 -102 -262.5t-250 -106.5h-31q-147 0 -250.5 105t-103.5 248zM281 664h352v55q0 66 -49 115t-117 49h-21q-66 0 -115.5 -49.5t-49.5 -114.5v-55z" />
<glyph unicode="&#xec;" d="M-41 1362l8 10h217l21 -10l215 -297l-10 -10h-185l-20 10zM164 10v942l10 11h184l11 -11v-942l-11 -10h-184z" />
<glyph unicode="&#xed;" d="M113 1065l215 297l20 10h217l8 -10l-245 -297l-21 -10h-184zM164 10v942l10 11h184l11 -11v-942l-11 -10h-184z" />
<glyph unicode="&#xee;" d="M-143 1461l317 798l11 11h163l11 -11l317 -798l-10 -11h-205l-10 11l-185 532l-184 -532l-10 -11h-205zM164 10v1018l10 10h184l11 -10v-1018l-11 -10h-184zM164 1139v174l14 14h174l15 -14v-174l-15 -15h-174z" />
<glyph unicode="&#xf1;" horiz-adv-x="1009" d="M69 1208q45 100 115 168t162 68q66 0 196 -41t234 -41q82 0 143 61l11 -10q-45 -100 -115 -168t-162 -68q-66 0 -196 41t-234 41q-82 0 -143 -61zM121 10v297v721l10 10h186l11 -10v-37q92 61 200 62q141 0 247 -105.5t106 -283.5v-293l-4 -62v-295l-11 -14h-184l-10 14 v293v125v205q0 119 -45 172q-43 51 -127 51h-6q-51 -2 -96.5 -32.5t-69.5 -75.5v-443v-299l-11 -10h-186z" />
<glyph unicode="&#xf2;" horiz-adv-x="935" d="M98 324v383q0 143 102.5 245.5t245.5 102.5h37q143 0 245.5 -102.5t102.5 -245.5v-383q0 -143 -102 -246t-246 -103h-37q-143 0 -245.5 103t-102.5 246zM123 1423l8 11h238l20 -11l277 -297l-11 -10h-184l-20 10zM291 332q0 -68 48 -117t118 -49h16q70 0 118 49t48 117 v362q0 70 -48 118t-118 48h-16q-70 0 -118 -48t-48 -118v-362z" />
<glyph unicode="&#xf3;" horiz-adv-x="964" d="M98 324v383q0 143 102.5 245.5t245.5 102.5h37q143 0 245.5 -102.5t102.5 -245.5v-383q0 -143 -102 -246t-246 -103h-37q-143 0 -245.5 103t-102.5 246zM276 1126l277 297l20 11h238l8 -11l-327 -297l-21 -10h-184zM291 332q0 -68 48 -117t118 -49h16q70 0 118 49t48 117 v362q0 70 -48 118t-118 48h-16q-70 0 -118 -48t-48 -118v-362z" />
<glyph unicode="&#xf4;" horiz-adv-x="929" d="M55 1188l317 798l11 11h163l11 -11l317 -798l-10 -11h-205l-10 11l-185 532l-184 -532l-10 -11h-205zM98 324v383q0 143 102.5 245.5t245.5 102.5h37q143 0 245.5 -102.5t102.5 -245.5v-383q0 -143 -102 -246t-246 -103h-37q-143 0 -245.5 103t-102.5 246zM291 332 q0 -68 48 -117t118 -49h16q70 0 118 49t48 117v362q0 70 -48 118t-118 48h-16q-70 0 -118 -48t-48 -118v-362z" />
<glyph unicode="&#xf5;" horiz-adv-x="929" d="M34 1208q45 100 115 168t162 68q66 0 196 -41t234 -41q82 0 143 61l11 -10q-45 -100 -115 -168t-162 -68q-66 0 -196 41t-234 41q-82 0 -143 -61zM98 324v383q0 143 102.5 245.5t245.5 102.5h37q143 0 245.5 -102.5t102.5 -245.5v-383q0 -143 -102 -246t-246 -103h-37 q-143 0 -245.5 103t-102.5 246zM291 332q0 -68 48 -117t118 -49h16q70 0 118 49t48 117v362q0 70 -48 118t-118 48h-16q-70 0 -118 -48t-48 -118v-362z" />
<glyph unicode="&#xf9;" horiz-adv-x="997" d="M102 375v293l4 61v295l11 14h184l10 -14v-293v-125v-205q0 -119 45 -172t133 -51q51 2 96.5 33t69.5 76v442v299l11 10h186l10 -10v-297v-721l-10 -10h-186l-11 10v37q-92 -61 -200 -61q-141 0 -247 105.5t-106 283.5zM174 1423l8 11h238l20 -11l277 -297l-10 -10h-185 l-20 10z" />
<glyph unicode="&#xfa;" horiz-adv-x="985" d="M102 375v293l4 61v295l11 14h184l10 -14v-293v-125v-205q0 -119 45 -172t133 -51q51 2 96.5 33t69.5 76v442v299l11 10h186l10 -10v-297v-721l-10 -10h-186l-11 10v37q-92 -61 -200 -61q-141 0 -247 105.5t-106 283.5zM307 1126l277 297l20 11h238l8 -11l-328 -297 l-20 -10h-185z" />
<glyph unicode="&#xfb;" horiz-adv-x="978" d="M74 1188l317 798l11 11h163l11 -11l317 -798l-10 -11h-205l-10 11l-185 532l-184 -532l-10 -11h-205zM102 375v293l4 61v295l11 14h184l10 -14v-293v-125v-205q0 -119 45 -172q43 -51 127 -51h6q51 2 96.5 33t69.5 76v442v299l11 10h186l10 -10v-297v-721l-10 -10h-186 l-11 10v37q-92 -61 -200 -61q-141 0 -247 105.5t-106 283.5z" />
<glyph unicode="&#x152;" horiz-adv-x="2164" d="M1385 10v1413l10 11h676l10 -11v-184l-10 -10h-481v-338h372l11 -10v-185l-11 -10h-372v-481h460l11 -10v-185l-11 -10h-655zM106 494v440q0 236 151 377t355 141q207 0 355.5 -135t148.5 -383v-440q0 -238 -149.5 -379.5t-354.5 -141.5q-209 0 -357.5 136.5 t-148.5 384.5zM307 532q0 -172 84 -260t217 -88q154 0 232 83t78 265v302v59q0 172 -84 261t-213 89q-158 0 -236 -83t-78 -267v-361z" />
<glyph unicode="&#x153;" horiz-adv-x="1861" d="M1018 328v383q0 145 103.5 248.5t250.5 103.5h31q145 0 241.5 -102.5t96.5 -249.5v-211h-530v-156q-2 -82 48 -136t117 -54h21q72 0 125 56t51 134h182q0 -156 -102 -262.5t-250 -106.5h-31q-147 0 -250.5 105t-103.5 248zM1211 664h352v55q0 66 -49 115t-117 49h-21 q-66 0 -115.5 -49.5t-49.5 -114.5v-55zM98 324v383q0 143 102.5 245.5t245.5 102.5h37q143 0 245.5 -102.5t102.5 -245.5v-383q0 -143 -102 -246t-246 -103h-37q-143 0 -245.5 103t-102.5 246zM291 332q0 -68 48 -117t118 -49h16q70 0 118 49t48 117v362q0 70 -48 118 t-118 48h-16q-70 0 -118 -48t-48 -118v-362z" />
<glyph unicode="&#x2c6;" horiz-adv-x="1064" d="M123 625l317 798l11 11h163l11 -11l317 -798l-10 -11h-205l-10 11l-185 532l-184 -532l-10 -11h-205z" />
<glyph unicode="&#x2000;" horiz-adv-x="1196" />
<glyph unicode="&#x2001;" horiz-adv-x="2394" />
<glyph unicode="&#x2002;" horiz-adv-x="1196" />
<glyph unicode="&#x2003;" horiz-adv-x="2394" />
<glyph unicode="&#x2004;" horiz-adv-x="796" />
<glyph unicode="&#x2005;" horiz-adv-x="598" />
<glyph unicode="&#x2006;" horiz-adv-x="397" />
<glyph unicode="&#x2007;" horiz-adv-x="397" />
<glyph unicode="&#x2008;" horiz-adv-x="299" />
<glyph unicode="&#x2009;" horiz-adv-x="477" />
<glyph unicode="&#x200a;" horiz-adv-x="131" />
<glyph unicode="&#x2010;" horiz-adv-x="819" d="M82 389v184l10 11h635l10 -11v-184l-10 -10h-635z" />
<glyph unicode="&#x2011;" horiz-adv-x="819" d="M82 389v184l10 11h635l10 -11v-184l-10 -10h-635z" />
<glyph unicode="&#x2012;" horiz-adv-x="819" d="M82 389v184l10 11h635l10 -11v-184l-10 -10h-635z" />
<glyph unicode="&#x2013;" horiz-adv-x="1024" d="M82 389v184l10 11h840l10 -11v-184l-10 -10h-840z" />
<glyph unicode="&#x2014;" horiz-adv-x="2048" d="M82 389v184l10 11h1864l10 -11v-184l-10 -10h-1864z" />
<glyph unicode="&#x2018;" d="M164 952v195q0 139 88 213t229 74v-11q-68 -37 -90 -92t-22 -174v-205l-11 -10h-184z" />
<glyph unicode="&#x2019;" d="M51 942v10q68 37 90.5 92.5t22.5 174.5v204l10 11h184l11 -11v-194q0 -139 -88.5 -213t-229.5 -74z" />
<glyph unicode="&#x201c;" horiz-adv-x="901" d="M164 952v195q0 139 88 213t229 74v-11q-68 -37 -90 -92t-22 -174v-205l-11 -10h-184zM532 1014v133q0 139 88.5 213t229.5 74v-11q-68 -37 -90.5 -92t-22.5 -174v-143l-10 -10h-184z" />
<glyph unicode="&#x201d;" horiz-adv-x="901" d="M51 942v10q68 37 90.5 92.5t22.5 174.5v204l10 11h184l11 -11v-194q0 -139 -88.5 -213t-229.5 -74zM420 1004v10q68 37 90 92t22 174v143l11 11h184l10 -11v-133q0 -139 -88 -212.5t-229 -73.5z" />
<glyph unicode="&#x2026;" horiz-adv-x="1597" d="M1229 10v185l10 10h184l11 -10v-185l-11 -10h-184zM696 10v185l10 10h184l11 -10v-185l-11 -10h-184zM164 10v185l10 10h184l11 -10v-185l-11 -10h-184z" />
<glyph unicode="&#x202f;" horiz-adv-x="477" />
<glyph unicode="&#x2039;" horiz-adv-x="1064" d="M113 666v163l10 11l799 317l10 -10v-205l-10 -10l-533 -184l533 -185l10 -10v-205l-10 -10l-799 317z" />
<glyph unicode="&#x203a;" horiz-adv-x="1064" d="M133 348v205l10 10l533 185l-533 184l-10 10v205l10 10l799 -317l10 -11v-163l-10 -11l-799 -317z" />
<glyph unicode="&#x205f;" horiz-adv-x="598" />
<glyph unicode="&#x20ac;" horiz-adv-x="1638" d="M31 430l153 184l21 11h65q-4 29 -4 92q0 47 2 71h-227l-10 11l153 184l21 10h114q86 209 277.5 340t427.5 131q279 0 492 -153v-236l-11 -10q-217 184 -481 184q-139 0 -258 -69.5t-188 -186.5h722l11 -10v-184l-11 -11h-794q-4 -49 -4 -71q0 -53 8 -92h627l10 -11v-184 l-10 -10h-547q72 -109 186.5 -172.5t247.5 -63.5q264 0 481 185l11 -11v-235q-213 -154 -492 -154q-231 0 -418.5 124t-277.5 327h-287z" />
<glyph unicode="&#x2122;" horiz-adv-x="2664" d="M1245 10v1413l10 11h174l21 -11l409 -624l430 624l21 11h174l10 -11v-1413l-10 -10h-184l-11 10v1051l-420 -615h-20l-399 615v-1051l-11 -10h-184zM82 1239v184l10 11h881l10 -11v-184l-10 -10h-338v-1219l-10 -10h-185l-10 10v1219h-338z" />
<glyph unicode="&#xe000;" horiz-adv-x="1035" d="M0 1035h1035v-1035h-1035v1035z" />
<glyph unicode="&#xfb01;" horiz-adv-x="1193" d="M826 10v1018l10 10h184l11 -10v-1018l-11 -10h-184zM826 1139v174l14 14h174l15 -14v-174l-15 -15h-174zM59 844v194h162v23q0 184 64.5 273t203.5 89q59 0 103 -22v-162l-14 -8q-37 14 -74 14q-47 0 -71.5 -31.5t-24.5 -138.5v-37h192v-194h-192v-836l-15 -8h-164l-8 8 v836h-162z" />
<glyph unicode="&#xfb02;" horiz-adv-x="1148" d="M799 10v1413l10 11h185l10 -11v-1413l-10 -10h-185zM59 844v194h162v23q0 184 64.5 273t203.5 89q59 0 103 -22v-162l-14 -8q-37 14 -74 14q-47 0 -71.5 -31.5t-24.5 -138.5v-37h192v-194h-192v-836l-15 -8h-164l-8 8v836h-162z" />
<glyph unicode="&#xfb03;" horiz-adv-x="1855" d="M1487 10v1018l10 10h184l11 -10v-1018l-11 -10h-184zM1487 1139v174l14 14h174l15 -14v-174l-15 -15h-174zM721 844v194h162v23q0 184 64.5 273t203.5 89q59 0 103 -22v-162l-14 -8q-37 14 -74 14q-47 0 -71.5 -31.5t-24.5 -138.5v-37h192v-194h-192v-836l-15 -8h-164 l-8 8v836h-162zM59 844v194h162v23q0 184 64.5 273t203.5 89q59 0 103 -22v-162l-14 -8q-37 14 -74 14q-47 0 -71.5 -31.5t-24.5 -138.5v-37h192v-194h-192v-836l-15 -8h-164l-8 8v836h-162z" />
<glyph unicode="&#xfb04;" horiz-adv-x="1810" d="M1460 10v1413l10 11h185l10 -11v-1413l-10 -10h-185zM721 844v194h162v23q0 184 64.5 273t203.5 89q59 0 103 -22v-162l-14 -8q-37 14 -74 14q-47 0 -71.5 -31.5t-24.5 -138.5v-37h192v-194h-192v-836l-15 -8h-164l-8 8v836h-162zM59 844v194h162v23q0 184 64.5 273 t203.5 89q59 0 103 -22v-162l-14 -8q-37 14 -74 14q-47 0 -71.5 -31.5t-24.5 -138.5v-37h192v-194h-192v-836l-15 -8h-164l-8 8v836h-162z" />
</font>
</defs>
</svg>
