<?xml  version="1.0" encoding="UTF-8"?>
<!DOCTYPE svg PUBLIC "-//W3C//DTD SVG 1.0//EN" "http://www.w3.org/TR/2001/REC-SVG-20010904/DTD/svg10.dtd" >
<svg xmlns="http://www.w3.org/2000/svg" >
<metadata>
<version>1.0</version>
<id><![CDATA[ITC Franklin Gothic W01 Dm]]></id>
<vendor>Monotype Imaging Inc.</vendor>
<credits>
<name>Fonts.com WebFonts</name>
<URL>http://webfonts.fonts.com</URL>
<role>Home of the Web fonts</role>
</credits>
<license>
<URL>http://webfonts.fonts.com/Legal</URL>
</license>
<copyright><![CDATA[Font software Copyright 1989, 2001 Adobe Systems Incorporated. Typeface designs Copyright 2006 International Typeface Corporation. All rights reserved.]]></copyright>
<trademark><![CDATA[ITC Franklin Gothic is a registered trademark of International Typeface Corporation.]]></trademark>
<licensee>
<name></name>
</licensee>
</metadata>
<defs >
<font horiz-adv-x="536" id="426ce955-d5bd-4a77-b077-402088f77e65">
<font-face font-family="" panose-1="2 11 7 3 5 0 0 2 0 4" ascent="934" descent="-250" units-per-em="1000" alphabetic="0">
</font-face>
<missing-glyph horiz-adv-x="300" />

<glyph unicode="&#xA;" />
<glyph unicode="&#xD;" horiz-adv-x="0" />
<glyph unicode=" " horiz-adv-x="300" />
<glyph unicode="!" horiz-adv-x="320" d="M64 686H257L207 205H114L64 686ZM82 0V155H239V0H82Z"  />
<glyph unicode="&quot;" horiz-adv-x="460" d="M417 686V556L375 427H321L279 556V686H417ZM181 686V556L139 427H85L43 556V686H181Z"  />
<glyph unicode="#" horiz-adv-x="600" d="M244 274H346L372 393H268L244 274ZM328 696L289 501H390L429 696H534L495 501H575V393H477L453 274H547V166H429L396 0H290L323 166H222L189 0H83L116 166H25V274H138L162 393H66V501H183L222 696H328Z"  />
<glyph unicode="$" horiz-adv-x="600" d="M341 -75H259V20H258Q218 24 183 36T118 70T69 123T39 195L177 226Q191 175 225 156T309 137Q325 137 343 140T375 151T399 172T409 205Q409 225 397 237T368 257T332 269T298 276Q255 285 215 297T143 331T92 387T72 473Q72 514 86 548T125 608T184 650T257 672H259V752H341V673Q413 668 466 632T543 525L417 483Q403 524 377 541T307 558Q292 558 277 556T248 548T227 530T219 499Q219 481 228 470T251 452T281 441T311 434Q329 430 350 426T393 416T435 403T472 385Q514 359 537 320T561 230Q561 183 543 146T495 81T424 39T341 20V-75Z"  />
<glyph unicode="%" horiz-adv-x="700" d="M535 291Q515 291 505 278T491 247T487 210T486 177Q486 164 486 145T491 107T506 77T535 64Q555 64 565 76T580 105T585 140T586 173Q586 192 585 214T579 255Q574 272 564 281T535 291ZM535 0Q498 0 472 15T428 55T402 112T394 177Q394 210 402 241T427 298T471 338T535 353Q572 353 599 338T644 299T669 243T678 177Q678 143 670 111T645 55T600 15T535 0ZM503 686H580L199 0H120L503 686ZM168 624Q148 624 138 611T124 580T120 543T119 510Q119 497 119 478T124 440T139 410T168 397Q188 397 198 409T213 438T218 473T219 506Q219 525 218 547T212 588Q207 605 197 614T168 624ZM168 333Q131 333 105 348T61 388T35 445T27 510Q27 543 35 574T60 631T104 671T168 686Q205 686 232 671T277 632T302 576T311 510Q311 476 303 444T278 388T233 348T168 333Z"  />
<glyph unicode="&amp;" horiz-adv-x="720" d="M264 310Q228 298 206 277T183 213Q183 191 192 173T216 143T250 123T292 116Q322 116 351 126T404 156L264 310ZM12 207Q12 245 26 275T63 330T117 371T181 400Q157 431 138 462T118 535Q118 578 136 609T185 659T253 687T329 696Q370 696 407 686T472 654T516 601T533 525Q533 462 497 424T405 364L501 259Q527 286 540 322T562 393L704 374Q691 314 662 260T592 158Q608 142 623 134T662 126Q671 126 681 126T704 129V9Q671 0 637 0Q589 0 554 14T487 64Q437 25 387 8T273 -10Q227 -10 181 0T97 37Q57 66 35 111T12 207ZM270 540Q270 517 290 495T336 446Q363 456 386 474T409 525Q409 557 387 575T333 593Q309 593 290 580T270 540Z"  />
<glyph unicode="&apos;" horiz-adv-x="300" d="M219 686V556L177 427H123L81 556V686H219Z"  />
<glyph unicode="(" horiz-adv-x="380" d="M294 686Q233 588 205 478T176 252Q176 142 205 33T291 -171H182Q114 -78 76 31T38 255Q38 372 75 483T184 686H294Z"  />
<glyph unicode=")" horiz-adv-x="380" d="M153 686Q225 594 262 483T299 255Q299 140 261 31T155 -171H46Q103 -77 132 32T161 252Q161 367 133 477T43 686H153Z"  />
<glyph unicode="*" horiz-adv-x="600" d="M260 686H340L335 535L477 587L502 510L357 468L450 349L385 302L300 427L216 301L151 349L244 468L98 510L123 586L265 535L260 686Z"  />
<glyph unicode="+" horiz-adv-x="600" d="M360 530V348H542V228H360V46H240V228H58V348H240V530H360Z"  />
<glyph unicode="&#x2c;" horiz-adv-x="300" d="M228 15L127 -160H71L149 0H71V156H228V15Z"  />
<glyph unicode="-" horiz-adv-x="240" d="M234 312V202H0V312H234Z"  />
<glyph unicode="." horiz-adv-x="300" d="M72 0V155H229V0H72Z"  />
<glyph unicode="/" horiz-adv-x="600" d="M-15 -171L475 686H576L87 -171H-15Z"  />
<glyph unicode="0" horiz-adv-x="600" d="M298 581Q258 581 238 554T209 490T200 412T199 345Q199 307 201 270T211 196Q215 178 221 162T238 134T263 115T298 108Q341 108 361 134T390 199Q397 231 399 267T402 337Q402 373 400 417T389 497Q381 534 360 557T298 581ZM297 -10Q225 -10 175 22T93 105T47 219T32 344Q32 406 46 468T92 581T174 664T297 696Q370 696 422 665T506 584T553 471T568 344Q568 280 554 217T507 104T423 22T297 -10Z"  />
<glyph unicode="1" horiz-adv-x="600" d="M54 549Q86 559 119 571T183 599T240 636T286 686H402V124H592V0H37V124H245V511L54 409V549Z"  />
<glyph unicode="2" horiz-adv-x="600" d="M554 0H39V133L90 171L294 327Q311 342 328 358T360 393T383 433T392 480Q392 520 365 545T299 570Q269 570 248 559T213 530T192 488T181 438L39 470Q61 579 127 637T307 696Q356 696 397 686T477 644Q515 614 535 573T556 483Q556 417 529 372T453 284Q408 246 359 214T259 150L237 137H566L554 0Z"  />
<glyph unicode="3" horiz-adv-x="600" d="M263 414Q283 414 306 416T346 429Q362 440 371 458T381 496Q381 513 373 529T353 556Q339 569 322 574T286 579Q243 579 218 555T183 490L41 513Q51 558 75 592T132 649T207 684T293 696Q336 696 380 686T459 653T516 595T538 509Q538 452 505 414T420 360V358Q482 345 520 304T558 196Q558 148 537 108T477 40Q436 11 390 1T293 -10Q242 -10 198 0T113 43Q35 103 20 199L166 220Q174 170 206 142T289 113Q310 113 329 118T362 135T386 164T395 204Q395 231 382 254T343 287Q332 291 318 292T289 294T260 295T234 294H202V414H263Z"  />
<glyph unicode="4" horiz-adv-x="600" d="M578 274V157H482V0H322V157H22V274L299 686H482V274H578ZM331 274V563L143 274H331Z"  />
<glyph unicode="5" horiz-adv-x="600" d="M193 393Q223 425 260 438T341 452Q431 452 497 391Q532 357 546 318T561 230Q561 182 544 137T492 58Q452 20 401 5T295 -10Q246 -10 202 1T123 37T62 97T25 185L175 207Q184 162 214 140T290 117Q336 117 368 145T400 220Q400 267 369 297T290 328Q263 328 235 314T193 275L62 297L89 686H521L504 545H204L193 393Z"  />
<glyph unicode="6" horiz-adv-x="600" d="M305 104Q355 104 381 137T407 217Q407 261 379 290T305 320Q283 320 264 312T231 289T209 255T201 214Q201 167 229 136T305 104ZM417 476Q414 496 407 515T387 548T358 572T318 581Q278 581 254 561T216 509T199 442T194 375V352H196Q206 373 222 387T259 412T301 426T346 431Q391 431 431 416T500 372T547 305T565 220Q565 175 546 132T495 56Q458 21 413 6T316 -10Q239 -10 185 19T98 96T49 208T34 340Q34 369 37 400T48 463T67 525T95 579Q136 642 190 669T318 696Q408 696 472 649T555 513L417 476Z"  />
<glyph unicode="7" horiz-adv-x="600" d="M557 564Q513 514 480 456T420 337Q407 308 397 272T379 197T367 120T363 51L365 0H181Q179 76 196 149T245 293Q276 362 316 427T413 544H65L77 686H557V564Z"  />
<glyph unicode="8" horiz-adv-x="600" d="M446 370Q503 346 538 307T573 203Q573 152 551 110T487 39Q445 11 392 1T290 -10Q248 -10 203 -3T121 27Q77 53 53 93T28 185Q28 247 62 282T151 338Q106 361 79 400T52 492Q52 539 73 580T132 648Q167 674 212 685T303 696Q345 696 389 686T468 655T526 598T549 513Q549 462 520 426T446 370ZM259 286Q223 275 198 254T173 191Q173 164 184 147T214 119T255 104T300 99Q317 99 337 102T376 113T406 136T418 172Q418 198 403 216T365 246T317 267T271 282L259 286ZM340 415Q371 424 390 446T409 501Q409 526 400 543T376 572T340 588T298 593Q280 593 264 589T234 576T213 553T205 519Q205 494 219 478T253 450T297 430T340 415Z"  />
<glyph unicode="9" horiz-adv-x="600" d="M293 583Q272 583 253 575T221 552T199 519T191 478Q191 433 219 404T293 375Q314 375 333 383T366 405T388 438T396 478Q396 522 367 552T293 583ZM196 183Q205 149 228 130T287 111Q316 111 340 125T378 165Q385 178 390 197T398 237T402 283T404 330Q373 292 336 276T250 259Q203 259 165 274T98 317T55 383T39 469Q39 525 59 567T113 638T193 681T292 696Q367 696 419 667T502 591T548 482T562 354Q562 291 548 227T501 109Q463 46 408 18T281 -10Q194 -10 135 30T55 156L196 183Z"  />
<glyph unicode=":" horiz-adv-x="300" d="M75 353V508H232V353H75ZM75 0V155H232V0H75Z"  />
<glyph unicode=";" horiz-adv-x="300" d="M71 353V508H228V353H71ZM228 15L127 -160H71L149 0H71V156H228V15Z"  />
<glyph unicode="&lt;" horiz-adv-x="600" d="M55 348L544 530V400L230 288L544 176V46L55 228V348Z"  />
<glyph unicode="=" horiz-adv-x="600" d="M542 228V108H58V228H542ZM542 468V348H58V468H542Z"  />
<glyph unicode="&gt;" horiz-adv-x="600" d="M544 348V228L55 46V176L369 288L55 400V530L544 348Z"  />
<glyph unicode="?" horiz-adv-x="540" d="M187 0V155H344V0H187ZM201 213Q201 253 203 278T213 321T240 357T291 398Q317 417 332 437T348 491Q348 529 326 550T265 572Q238 572 220 561T191 531T174 491T167 446L29 466Q35 517 54 559T106 632T181 679T277 696Q323 696 365 683T439 643T491 578T511 491Q511 431 480 387T400 311Q379 297 366 288T344 266T332 238T330 194H201V213Z"  />
<glyph unicode="@" horiz-adv-x="800" d="M657 88Q619 49 560 20T422 -10Q347 -10 281 16T167 90T90 202T61 344Q61 419 88 483T164 595T277 669T416 696Q478 696 533 677T635 618Q683 578 711 526T739 411Q739 336 714 284T652 200T576 153T507 139Q484 139 468 150T453 186Q435 166 410 155T362 143Q331 143 303 156T253 191T218 243T205 307Q205 349 218 387T257 456T317 504T395 522Q430 522 459 509T509 467L519 515H607L562 242Q560 228 559 219T571 209Q579 209 594 222T625 259T651 313T663 380Q663 437 644 480T592 553T513 598T414 613Q355 613 307 593T225 536T173 451T154 344Q154 282 174 232T232 147T319 93T429 74Q483 74 528 92T607 136L657 88ZM317 322Q317 289 335 265T388 240Q409 240 426 249T456 272T475 306T482 345Q482 379 463 401T408 424Q388 424 372 415T343 392T324 359T317 322Z"  />
<glyph unicode="A" horiz-adv-x="640" d="M375 267L302 508L229 267H375ZM627 0H454L412 141H190L147 0H6L226 686H412L627 0Z"  />
<glyph unicode="B" horiz-adv-x="660" d="M225 127H336Q358 127 383 128T427 142Q444 153 453 172T463 213Q463 233 452 251T424 279T385 290T343 292H225V127ZM225 414H334Q355 414 378 415T419 430Q433 441 440 458T448 492Q448 511 440 527T414 554Q405 559 394 561T370 564T345 565T322 564H225V414ZM372 686Q412 686 453 682T529 656Q613 603 613 506Q613 447 578 410T489 358V356Q553 343 592 298T632 185Q632 140 608 102T548 37Q529 23 508 16T464 5T418 1T372 0H65V686H372Z"  />
<glyph unicode="C" horiz-adv-x="660" d="M449 420Q449 448 443 475T424 522T389 554T334 567Q292 567 267 543T230 483T214 407T210 336Q210 301 213 263T230 194T270 142T342 121Q370 121 391 132T426 161T449 202T461 250L617 240Q611 181 588 135T529 56T443 7T334 -10Q257 -10 201 19T106 96T50 209T31 343Q31 414 50 478T107 590T204 667T339 696Q468 696 535 626T617 431L449 420Z"  />
<glyph unicode="D" horiz-adv-x="660" d="M220 129H274Q324 129 358 143T421 202Q441 235 450 273T459 350Q459 391 447 432T410 505Q382 541 350 550T275 560H220V129ZM259 686Q296 686 330 684T397 674T460 651T518 609Q574 556 599 488T624 345Q624 276 603 212T535 95Q484 39 422 20T286 0H60V686H259Z"  />
<glyph unicode="E" horiz-adv-x="580" d="M222 553V414H482V285H222V133H552V0H62V686H552V553H222Z"  />
<glyph unicode="F" horiz-adv-x="540" d="M221 553V397H482V268H221V0H61V686H549V553H221Z"  />
<glyph unicode="G" horiz-adv-x="660" d="M315 239V367H597V0H524L501 79Q463 32 419 11T314 -10Q239 -10 185 19T97 96T46 206T30 337Q30 407 47 471T101 586T194 666T328 696Q440 696 510 633T597 461L445 440Q442 466 434 489T411 529T375 557T324 567Q282 567 256 543T217 483T199 407T194 335Q194 302 199 264T220 194T262 141T331 120Q384 120 416 153T445 239H315Z"  />
<glyph unicode="H" horiz-adv-x="660" d="M592 0H432V283H220V0H60V686H220V418H432V686H592V0Z"  />
<glyph unicode="I" horiz-adv-x="300" d="M225 0H65V686H225V0Z"  />
<glyph unicode="J" horiz-adv-x="400" d="M338 210Q338 152 326 111T289 42T222 3T123 -10L15 1V134Q35 131 54 129T93 126Q113 126 132 131T164 154Q175 168 176 190T178 230V686H338V210Z"  />
<glyph unicode="K" horiz-adv-x="640" d="M221 363L436 686H590L425 441L631 0H454L318 297L221 158V0H65V686H221V363Z"  />
<glyph unicode="L" horiz-adv-x="500" d="M494 136V0H58V686H218V136H494Z"  />
<glyph unicode="M" horiz-adv-x="880" d="M477 0H367L200 559H198V0H63V686H314L434 275L560 686H811V0H651V559H647L477 0Z"  />
<glyph unicode="N" horiz-adv-x="660" d="M590 0H453L190 461H186V0H62V686H235L464 283H466V686H590V0Z"  />
<glyph unicode="O" horiz-adv-x="660" d="M327 565Q285 565 261 545T223 487Q211 456 206 416T201 344Q201 312 205 273T222 200T260 144T327 121Q369 121 392 141T430 199Q442 231 446 270T451 343Q451 381 446 422T426 498T388 549T327 565ZM327 -10Q257 -10 202 15T105 98Q67 152 50 215T33 344Q33 412 50 475T104 588T195 666T327 696Q396 696 449 672T545 591Q582 540 600 474T619 344Q619 285 603 220T554 106Q514 47 456 19T327 -10Z"  />
<glyph unicode="P" horiz-adv-x="620" d="M312 379Q341 379 365 382T410 409Q421 422 426 437T432 470Q432 490 424 509T399 542Q380 556 357 558T311 561H222V379H312ZM222 0H62V686H320Q371 686 416 681T505 647Q594 584 594 476Q594 427 576 381T520 302Q498 284 475 274T428 260T378 255T325 254H222V0Z"  />
<glyph unicode="Q" horiz-adv-x="660" d="M33 344Q33 412 50 475T104 588T195 666T327 696Q396 696 449 672T545 591Q582 540 600 474T619 344Q619 297 611 251T586 164T541 88T476 32Q474 3 492 -9T537 -21Q562 -21 597 -15V-137Q583 -140 569 -142T541 -144Q502 -144 474 -137T427 -114T397 -72T381 -5Q367 -8 354 -9T327 -10Q257 -10 202 15T105 98Q67 152 50 215T33 344ZM201 344Q201 312 205 273T222 200T260 144T327 121Q369 121 392 141T430 199Q442 231 446 270T451 343Q451 381 446 422T426 498T388 549T327 565Q285 565 261 545T223 487Q211 456 206 416T201 344Z"  />
<glyph unicode="R" horiz-adv-x="660" d="M225 389H313Q338 389 363 389T411 403Q431 415 441 436T451 481Q451 501 440 520T412 551Q402 557 389 560T362 564T334 565T309 564H225V389ZM225 0H65V686H354Q400 686 445 682T530 651Q572 623 594 577T617 480Q617 451 609 424T586 373T548 331T498 303L625 0H447L342 271H225V0Z"  />
<glyph unicode="S" horiz-adv-x="600" d="M409 490Q394 534 366 552T291 571Q275 571 258 569T228 559T205 540T196 507Q196 488 206 476T231 457T263 445T295 438Q316 433 340 428T387 417T433 401T474 380Q516 352 540 311T564 218Q564 167 542 122T479 46Q437 14 385 2T280 -10Q232 -10 187 1T105 35T42 94T3 180L151 214Q166 160 203 139T294 117Q311 117 330 120T364 132T390 155T401 191Q401 212 388 225T357 247T318 260T281 268Q235 277 192 290T114 326T60 386T39 479Q39 527 57 568T113 640Q151 672 194 684T285 696Q330 696 370 688T444 660T503 611T545 535L409 490Z"  />
<glyph unicode="T" horiz-adv-x="540" d="M519 550H347V0H187V550H13V686H519V550Z"  />
<glyph unicode="U" horiz-adv-x="660" d="M600 271Q600 243 600 215T594 159T577 108T544 62Q502 20 446 5T333 -10Q306 -10 278 -8T222 1T169 19T123 49Q97 71 83 96T62 150T54 209T52 271V686H226V271Q226 247 227 217T241 165Q257 138 286 129T344 119Q368 119 398 127T443 156Q459 179 460 211T462 271V686H600V271Z"  />
<glyph unicode="V" horiz-adv-x="600" d="M386 0H213L7 686H178L316 196L458 686H593L386 0Z"  />
<glyph unicode="W" horiz-adv-x="900" d="M716 0H558L446 454H444L336 0H180L3 686H167L272 224H274L385 686H533L648 224H650L656 254L756 686H888L716 0Z"  />
<glyph unicode="X" horiz-adv-x="640" d="M412 367L624 0H438L301 249L163 0H10L222 365L34 686H221L332 477L449 686H599L412 367Z"  />
<glyph unicode="Y" horiz-adv-x="600" d="M381 289V0H221V289L4 686H190L322 425L452 686H596L381 289Z"  />
<glyph unicode="Z" horiz-adv-x="660" d="M265 131H623V0H69V117L415 556H93V686H612V568L265 131Z"  />
<glyph unicode="[" horiz-adv-x="380" d="M298 -171H82V686H298V622H198V-109H298V-171Z"  />
<glyph unicode="\" horiz-adv-x="600" d="M513 -171L24 686H125L615 -171H513Z"  />
<glyph unicode="]" horiz-adv-x="380" d="M82 -109H182V622H82V686H298V-171H82V-109Z"  />
<glyph unicode="^" horiz-adv-x="600" d="M236 686H360L530 261H417L299 560L182 261H69L236 686Z"  />
<glyph unicode="_" horiz-adv-x="500" d="M500 -75V-125H0V-75H500Z"  />
<glyph unicode="`" horiz-adv-x="380" d="M315 618L291 559L65 638L95 725L315 618Z"  />
<glyph unicode="a" horiz-adv-x="540" d="M345 243Q324 241 297 237T245 222T203 195T186 150Q186 120 203 102T251 83Q274 83 293 94T325 125Q341 149 343 172T345 223V243ZM359 0Q354 20 353 39T352 79Q320 34 284 12T190 -10Q156 -10 127 -1T77 26T43 71T30 134Q30 191 61 228T144 285Q188 302 243 307T345 317V329Q345 346 344 364T332 396Q322 409 306 414T272 420Q237 420 211 402T184 346L45 359Q51 405 74 435T131 484T206 510T287 518Q306 518 328 516T371 508T413 494T448 472Q467 456 477 438T491 400T495 357Q495 336 495 313V76Q495 56 497 38T505 0H359Z"  />
<glyph unicode="b" horiz-adv-x="540" d="M56 686H203V444H207Q244 518 331 518Q385 518 421 494T480 431T511 346T520 254Q520 204 510 157T475 72T411 13T314 -10Q287 -10 266 -5T228 11T197 38T169 78Q155 61 149 41T136 0H56V686ZM205 213Q205 192 207 170T222 128Q244 93 284 93Q315 93 332 110T356 153T365 205T367 254Q367 275 366 303T357 357T333 399T286 417Q259 417 243 404T219 372T208 329T205 286V213Z"  />
<glyph unicode="c" horiz-adv-x="540" d="M364 315Q364 332 360 348T346 377T322 398T287 406Q257 406 239 393T212 358T199 311T196 261Q196 238 197 212T207 163T232 126T281 111Q320 111 340 137T364 199L504 191Q499 144 480 107T431 43T360 4T273 -10Q215 -10 170 9T93 63T45 145T28 249Q28 307 45 356T95 442T175 498T282 518Q326 518 365 505T433 466T481 404T504 323L364 315Z"  />
<glyph unicode="d" horiz-adv-x="540" d="M343 282Q343 300 342 323T333 367T312 401T272 415Q240 415 223 397T197 353T187 297T185 244Q185 223 187 198T198 150T222 112T266 96Q286 96 303 108T330 137T341 173T343 212V282ZM350 0V79H348Q327 38 295 14T213 -10Q159 -10 124 13T68 74T39 158T30 248Q30 293 38 341T67 428T124 493T216 518Q259 518 289 504T343 454V686H490V0H350Z"  />
<glyph unicode="e" horiz-adv-x="540" d="M363 316Q362 337 358 356T344 389T318 413T278 422Q254 422 237 414T208 391T191 357T183 316H363ZM184 229L183 204Q183 159 208 127T281 95Q298 95 314 101T343 117T363 142T371 175L507 165Q507 159 502 144T486 109T456 68T413 30T353 1T276 -10Q219 -10 173 9T94 62T43 143T25 247Q25 303 41 352T89 438T167 496T272 518Q326 518 376 495T458 428T500 333T510 229H184Z"  />
<glyph unicode="f" horiz-adv-x="300" d="M216 0H69V381H10V495H69Q69 528 71 564T92 630Q115 665 154 681T235 697Q239 697 248 697T270 696T294 694T319 690V577Q302 579 291 579T263 580Q245 580 236 575T222 559T217 536T216 506V495H306V381H216V0Z"  />
<glyph unicode="g" horiz-adv-x="560" d="M421 -40Q421 -30 416 -24T402 -13T385 -8T367 -5Q354 -4 331 -4T280 -2T223 0T168 3Q154 -2 145 -12T136 -38Q136 -56 146 -65T173 -79Q197 -86 228 -87T283 -89Q296 -89 319 -89T365 -84T404 -70T421 -40ZM271 437Q236 437 213 417T190 361Q190 323 212 304T271 284Q307 284 333 303T359 362Q359 400 333 418T271 437ZM40 359Q40 405 62 435T119 484T195 510T273 518Q343 518 408 496Q415 554 440 574T523 595Q545 595 564 591V496Q554 498 545 499T525 501Q504 501 487 491T466 457Q487 434 496 412T506 358Q506 313 485 283T430 236T356 211T280 203Q259 203 237 205T195 210Q184 204 177 195T170 173Q170 143 199 134Q209 131 223 130T252 127T282 125T308 124L372 121Q405 119 439 114T500 94T544 54T561 -14Q561 -65 530 -99T454 -152Q412 -169 362 -174T267 -179Q247 -179 220 -178T163 -174T106 -163T55 -143T19 -110T5 -61Q5 -22 31 0T93 31Q64 45 46 66T28 122Q28 146 37 163T60 194T92 217T130 235Q88 251 64 282T40 359Z"  />
<glyph unicode="h" horiz-adv-x="540" d="M488 0H341V274Q341 290 341 312Q341 334 336 354T318 387T282 401Q262 401 242 392T212 363Q202 343 201 320T199 274V0H52V686H199V438H201Q208 457 222 472T253 497T291 512T333 518Q368 518 402 505T460 463Q483 433 485 397T488 323V0Z"  />
<glyph unicode="i" horiz-adv-x="260" d="M202 554H55V696H202V554ZM202 0H55V508H202V0Z"  />
<glyph unicode="j" horiz-adv-x="260" d="M201 554H54V696H201V554ZM201 44Q201 11 201 -13T199 -54T195 -84T187 -105Q176 -126 160 -140T125 -163T83 -175T39 -179Q19 -179 -1 -176T-42 -170V-52Q-24 -55 -7 -55Q15 -55 27 -46T46 -22T53 9T54 44V508H201V44Z"  />
<glyph unicode="k" horiz-adv-x="560" d="M557 0H392L285 230L203 130V0H56V686H203V275L251 342L392 508H537L392 335L557 0Z"  />
<glyph unicode="l" horiz-adv-x="260" d="M55 686H202V0H55V686Z"  />
<glyph unicode="m" horiz-adv-x="820" d="M189 508V430H191Q211 475 246 496T332 518Q383 518 415 497T471 430Q491 475 531 496T619 518Q653 518 686 506T743 466Q756 451 761 433T769 396T771 356T770 317V0H623V269Q623 276 623 288Q623 301 623 314Q623 327 623 339T620 358Q614 382 597 390T557 399Q537 399 519 389T493 360T484 316T483 269V0H336V269Q336 289 336 312T332 354T312 387T270 400Q241 400 226 388T204 356T197 313T196 269V0H49V508H189Z"  />
<glyph unicode="n" horiz-adv-x="540" d="M50 508H189V422H191Q214 471 247 494T337 518Q373 518 406 506T462 462Q472 448 478 430T486 391T489 351T490 314V0H343V273Q343 292 343 314Q343 337 338 356T318 388T276 401Q256 401 240 391T214 363Q203 341 200 319T197 273V0H50V508Z"  />
<glyph unicode="o" horiz-adv-x="540" d="M269 421Q239 421 223 406T198 367T187 318T185 270Q185 248 186 217T195 158T219 109T268 88Q299 88 316 104T342 145T353 198T355 249Q355 279 353 312T339 375Q330 400 313 410T269 421ZM268 518Q328 518 373 497T450 440T497 355T513 250Q513 196 496 149T447 66T370 10T268 -10Q209 -10 165 10T89 67T43 151T27 255Q27 310 43 358T89 442T165 497T268 518Z"  />
<glyph unicode="p" horiz-adv-x="540" d="M196 508V433H198Q218 475 249 496T330 518Q381 518 417 496T480 430Q504 389 511 345T518 253Q518 206 509 159T477 75T417 14T324 -10Q286 -10 255 6T207 56H205V-171H58V508H196ZM205 235Q205 211 205 182T219 132Q230 115 247 105T285 94Q313 94 329 112T353 156T362 209T364 257Q364 276 362 303T353 355T330 397T286 414Q264 414 247 403T220 373Q209 353 207 331T205 285V235Z"  />
<glyph unicode="q" horiz-adv-x="540" d="M345 53Q323 21 297 6T229 -10Q172 -10 134 13T72 73T39 158T29 255Q29 304 40 351T75 436T139 495T235 518Q287 518 320 501T381 437Q393 454 402 471T419 508H499Q496 487 494 463T492 407V-171H345V53ZM348 298Q348 318 345 339T333 377T309 406T268 417Q237 417 221 400T196 357T187 304T185 255Q185 229 186 196T199 140Q207 120 225 107T265 94Q284 94 300 105T327 133Q341 153 344 176T348 222V298Z"  />
<glyph unicode="r" horiz-adv-x="340" d="M196 508V413H198Q204 433 212 453T234 488T265 511T307 518L332 516V369Q290 371 265 357T227 318T210 261T206 194V0H59V508H196Z"  />
<glyph unicode="s" horiz-adv-x="500" d="M338 356Q328 392 302 408T239 424Q228 424 215 422T190 415T171 402T163 379Q163 355 185 346T242 332T315 322T389 300T445 252T468 163Q468 123 450 89T400 32Q365 8 325 -1T242 -10Q202 -10 165 -3T96 22T43 68T10 140L137 158Q141 138 152 125T179 105T213 94T249 90Q259 90 274 92T304 99T328 114T338 138Q338 151 333 159T320 171T301 178T281 181Q268 182 247 185T204 193T162 202T130 211Q85 227 58 263T30 348Q30 395 48 427T98 480T167 509T247 518Q322 518 371 488T447 385L338 356Z"  />
<glyph unicode="t" horiz-adv-x="380" d="M344 392H235V190Q235 165 237 149T245 124T265 112T303 108Q313 108 326 109T352 112V1Q330 -4 305 -7T260 -10Q228 -10 191 -4T129 23Q114 36 106 53T93 89T89 129T88 168V392H5V509H94L107 658L235 668V509H344V392Z"  />
<glyph unicode="u" horiz-adv-x="540" d="M350 0V87H348Q330 39 293 15T203 -10Q165 -10 133 1T79 47Q58 80 56 115T54 188V508H201V188Q201 173 202 159T209 133T226 115T257 108Q282 108 301 121T331 157Q339 174 339 194Q339 215 339 235V508H486V0H350Z"  />
<glyph unicode="v" horiz-adv-x="480" d="M299 0H182L8 508H164L262 186L361 508H472L299 0Z"  />
<glyph unicode="w" horiz-adv-x="740" d="M580 0H448L369 326H367L288 0H162L5 508H162L243 197H245L322 508H457L530 196H532L617 508H733L580 0Z"  />
<glyph unicode="x" horiz-adv-x="540" d="M349 273L520 0H349L244 175L140 0H12L180 273L35 508H206L287 370L368 508H495L349 273Z"  />
<glyph unicode="y" horiz-adv-x="480" d="M316 32Q302 -11 289 -49T255 -115T201 -160T114 -177Q78 -177 42 -171V-56Q62 -59 79 -61T116 -63Q153 -63 170 -50T197 0L12 508H171L268 206L361 508H471L316 32Z"  />
<glyph unicode="z" horiz-adv-x="420" d="M399 414L173 109H409V0H9V109L233 406H28V508H399V414Z"  />
<glyph unicode="{" horiz-adv-x="380" d="M132 561Q132 593 144 616T175 655T217 678T264 686H330V597H293Q276 597 267 593T253 582T248 566T247 548V352Q246 325 236 308T210 282T179 268T151 263V261Q163 260 179 258T210 245T235 216T247 164V-33Q247 -42 247 -50T252 -66T266 -77T293 -82H330V-171H261Q239 -171 216 -164T175 -141T144 -102T132 -45V165Q132 187 122 198T99 215T71 221Q57 221 50 221V306Q57 306 71 306Q85 306 98 309T122 322T132 350V561Z"  />
<glyph unicode="|" horiz-adv-x="300" d="M210 750V-250H90V750H210Z"  />
<glyph unicode="}" horiz-adv-x="380" d="M248 -45Q248 -78 236 -101T205 -140T162 -163T115 -171H50V-82H87Q104 -82 113 -78T127 -66T132 -51T133 -33V164Q134 197 144 216T170 245T201 257T229 261V263Q217 264 201 268T170 281T145 308T133 352V548Q133 557 133 566T128 581T114 592T87 597H50V686H117Q139 686 162 679T204 656T235 617T248 561V350Q248 332 258 323T281 310T308 306Q322 306 330 306V221Q322 221 308 221Q295 221 282 216T258 199T248 165V-45Z"  />
<glyph unicode="~" horiz-adv-x="600" d="M44 230Q44 265 54 300T87 364Q97 377 114 386T153 398T199 396T249 377L362 311Q397 290 417 290Q437 290 446 301T458 331T461 367H555Q555 332 545 297T512 233Q501 220 484 211T446 199T400 201T350 220L224 287Q192 305 175 303T151 289T142 260T141 230H44Z"  />
<glyph unicode="&#xA0;" horiz-adv-x="300" />
<glyph unicode="&#xA1;" horiz-adv-x="320" d="M207 306L255 -168H65L114 306H207ZM82 363V518H239V363H82Z"  />
<glyph unicode="&#xA2;" horiz-adv-x="600" d="M349 -27H268V103Q220 109 183 131T121 187T84 262T71 351Q71 397 83 439T120 516T181 571T268 597V704H349V597Q427 588 472 539T529 415L396 407Q391 444 374 470T313 496Q282 496 264 481T236 443T224 394T221 343Q221 320 225 297T239 254T267 222T313 209Q355 209 374 233T396 296L526 286Q517 210 471 163T349 103V-27Z"  />
<glyph unicode="&#xA3;" horiz-adv-x="600" d="M140 419Q138 436 136 454T133 489Q133 540 149 578T194 643T263 683T353 696Q419 696 473 664T549 566L421 515Q414 542 399 561T351 581Q324 581 306 561Q294 548 291 532T288 499Q288 484 291 464T296 427L297 419H410V313H309Q312 255 294 210T231 129H321Q375 129 405 150T450 224L589 182Q578 139 558 106T501 45Q460 14 419 7T327 0H12V129H31Q46 129 64 129T96 133Q132 145 147 177T163 244Q163 261 161 278T156 313H61V419H140Z"  />
<glyph unicode="&#xA4;" horiz-adv-x="600" d="M482 105L415 171Q387 155 360 147T300 139Q268 139 241 147T186 172L118 105L47 176L114 243Q98 270 90 297T81 357Q81 389 89 417T114 473L47 540L118 610L185 544Q212 559 240 568T300 577Q332 577 360 568T416 543L482 610L553 540L486 473Q502 447 510 418T519 357Q519 325 511 298T486 243L553 176L482 105ZM413 357Q413 381 404 401T380 437T345 462T300 471Q276 471 256 462T220 438T196 402T187 357Q187 334 196 314T220 278T256 254T300 245Q323 245 343 253T379 277T404 312T413 357Z"  />
<glyph unicode="&#xA5;" horiz-adv-x="600" d="M557 439V350H396L363 289V281H557V192H363V0H230V192H36V281H230V289L197 350H36V439H148L14 686H187L318 425L448 686H579L445 439H557Z"  />
<glyph unicode="&#xA6;" horiz-adv-x="300" d="M210 175V-175H90V175H210ZM210 675V325H90V675H210Z"  />
<glyph unicode="&#xA7;" horiz-adv-x="600" d="M243 364Q227 356 215 343T203 310Q203 284 216 271T251 247L370 197Q384 206 395 221T407 253Q407 272 396 285T370 309T336 327T304 339L243 364ZM240 93Q210 104 181 118T129 151T92 198T78 262Q78 311 94 347T146 416Q119 438 108 465T96 527Q96 565 114 599T164 656Q198 680 236 688T315 696Q387 696 443 667T530 570L423 540Q409 577 378 590T310 603Q299 603 285 601T258 593T237 577T228 552Q228 536 236 525T258 507T286 494T313 483L399 449Q426 438 450 424T492 391T520 348T531 291Q531 246 515 213T467 149Q543 103 543 13Q543 -38 523 -75T470 -136T394 -171T305 -182Q266 -182 228 -173T156 -146T97 -99T58 -30L184 -6Q210 -44 239 -63T316 -82Q330 -82 347 -79T379 -70T404 -51T414 -21Q414 -1 400 15T364 43T321 63T283 78L240 93Z"  />
<glyph unicode="&#xA8;" horiz-adv-x="420" d="M127 590Q103 590 88 607T72 648Q72 672 88 689T129 706Q152 706 168 689T185 648Q185 624 168 607T127 590ZM289 590Q265 590 250 607T234 648Q234 672 250 689T291 706Q314 706 330 689T347 648Q347 624 330 607T289 590Z"  />
<glyph unicode="&#xA9;" horiz-adv-x="740" d="M470 417Q464 449 440 465T382 481Q356 481 337 470T304 441T285 399T278 348Q278 322 285 298T306 254T339 223T385 211Q417 211 442 229T470 279H550Q546 247 531 222T494 180T444 153T385 143Q341 143 305 158T243 201T203 266T189 346Q189 390 202 427T241 492T302 534T383 550Q447 550 493 515T550 417H470ZM370 74Q427 74 474 94T556 149T610 234T630 344Q630 403 611 452T557 537T475 593T370 613Q312 613 265 593T183 538T129 453T110 344Q110 284 129 235T182 150T264 94T370 74ZM370 -10Q296 -10 232 17T120 93T45 205T17 344Q17 417 44 481T120 593T232 668T370 696Q443 696 507 669T620 593T695 481T723 344Q723 270 696 206T620 93T508 18T370 -10Z"  />
<glyph unicode="&#xAA;" horiz-adv-x="360" d="M231 531Q217 529 200 527T166 518T139 502T128 475Q128 457 139 446T170 435Q201 435 218 460Q229 474 230 488T231 519V531ZM36 600Q40 628 55 646T92 676T140 691T193 696Q219 696 248 690T298 668Q311 659 317 648T325 625T328 599Q328 586 328 573V431Q328 406 335 385H240Q237 397 236 409T235 432Q215 405 192 392T130 379Q86 379 56 400T26 465Q26 499 47 522T100 556Q129 566 165 569T231 575V582Q231 593 231 603T222 623Q216 631 205 634T183 637Q160 637 144 627T126 593L36 600Z"  />
<glyph unicode="&#xAB;" horiz-adv-x="400" d="M63 288L149 435H200L149 288L200 144H149L63 288ZM200 288L286 435H337L286 288L337 144H286L200 288Z"  />
<glyph unicode="&#xAC;" horiz-adv-x="600" d="M434 348H45V468H554V172H434V348Z"  />
<glyph unicode="&#xAD;" horiz-adv-x="240" d="M234 312V202H0V312H234Z"  />
<glyph unicode="&#xAE;" horiz-adv-x="740" d="M99 467Q99 434 112 405T147 353T199 317T262 304Q295 304 324 317T376 352T412 404T425 467Q425 500 412 530T377 582T325 618T262 631Q230 631 201 618T149 583T113 530T99 467ZM50 467Q50 513 66 552T111 619T178 664T262 680Q306 680 345 664T412 620T457 552T474 467Q474 422 458 384T413 317T346 272T262 255Q217 255 178 271T111 316T66 383T50 467ZM230 482H259Q271 482 286 487T301 513Q301 523 293 529T263 536H230V482ZM230 357H171V578H278Q283 578 296 577T324 570T350 551T362 512Q362 496 357 486T346 469T332 459T321 453L362 357H300L265 437H230V357Z"  />
<glyph unicode="&#xAF;" horiz-adv-x="460" d="M387 609H72V681H387V609Z"  />
<glyph unicode="&#xB0;" horiz-adv-x="400" d="M273 547Q273 576 252 597T200 619Q185 619 172 613T148 598T133 575T127 547Q127 516 148 495T200 473Q230 473 251 494T273 547ZM350 546Q350 515 338 488T306 440T258 408T200 396Q169 396 142 408T94 440T62 487T50 546Q50 577 61 604T93 651T141 684T200 696Q231 696 258 684T305 652T338 604T350 546Z"  />
<glyph unicode="&#xB1;" horiz-adv-x="600" d="M547 283H353V83H247V283H53V390H247V591H353V390H547V283ZM547 -50H53V57H547V-50Z"  />
<glyph unicode="&#xB2;" horiz-adv-x="360" d="M344 278H9V358L175 475Q197 493 217 514T238 566Q238 590 221 605T178 620Q139 620 122 597T101 541L9 560Q23 626 66 661T183 696Q215 696 241 690T294 665Q345 628 345 568Q345 529 328 502T278 449Q249 426 217 407T152 368L138 363V361H351L344 278Z"  />
<glyph unicode="&#xB3;" horiz-adv-x="360" d="M123 527H163Q175 527 190 528T216 536Q239 551 239 576Q239 587 234 596T221 612Q212 620 201 623T177 626Q149 626 133 611T111 572L18 586Q32 640 78 668T182 696Q210 696 238 690T289 670T326 635T341 584Q341 550 320 527T265 494V492Q305 485 329 461T354 396Q354 367 341 343T302 302Q276 285 245 279T182 272Q149 272 120 278T65 304Q14 341 5 398L99 410Q105 381 125 364T179 346Q206 346 227 359T248 401Q248 417 240 431T215 451Q201 456 180 456T144 455H123V527Z"  />
<glyph unicode="&#xB4;" horiz-adv-x="400" d="M326 639L99 557L74 617L292 725L326 639Z"  />
<glyph unicode="&#xB5;" horiz-adv-x="540" d="M342 0V87H340Q322 39 285 15T194 -10V-171H47V508H194V188Q194 173 195 159T202 133T218 115T249 108Q274 108 293 121T323 157Q331 174 331 194Q331 215 331 235V508H478V0H342Z"  />
<glyph unicode="&#xB6;" horiz-adv-x="540" d="M449 -179H377V618H294V-179H222V252Q183 256 149 267T87 302T41 362T17 453Q12 495 26 537T69 612T141 665T238 686H525V618H449V-179Z"  />
<glyph unicode="&#xB7;" horiz-adv-x="300" d="M71 211V366H228V211H71Z"  />
<glyph unicode="&#xB8;" horiz-adv-x="340" d="M173 -40L189 -38Q204 -38 219 -43T245 -58T264 -81T272 -111Q272 -130 264 -145T242 -170T211 -186T176 -192Q147 -192 120 -184T69 -160L85 -120Q100 -129 120 -136T159 -143Q172 -143 183 -136T194 -115Q194 -105 189 -98T175 -86T156 -80T138 -78L109 -80L138 0H188L173 -40Z"  />
<glyph unicode="&#xB9;" horiz-adv-x="360" d="M11 613Q53 624 94 642T162 696H237V354H361V278H0V354H135V589L11 527V613Z"  />
<glyph unicode="&#xBA;" horiz-adv-x="360" d="M180 638Q160 638 149 629T133 606T127 576T125 547Q125 534 125 516T131 480T147 450T179 438Q199 438 210 448T227 472T234 503T236 534Q236 552 234 572T225 610Q214 638 180 638ZM179 696Q218 696 247 684T297 649T327 598T338 535Q338 502 327 474T296 424T246 391T179 379Q141 379 112 391T63 425T33 476T22 538Q22 571 32 600T63 650T112 684T179 696Z"  />
<glyph unicode="&#xBB;" horiz-adv-x="400" d="M251 144H200L251 288L200 435H251L337 288L251 144ZM114 144H63L114 288L63 435H114L200 288L114 144Z"  />
<glyph unicode="&#xBC;" horiz-adv-x="900" d="M724 337L602 164H724V337ZM890 164V94H828V0H724V94H529V164L709 412H828V164H890ZM656 686H753L372 0H276L656 686ZM21 613Q63 624 105 642T172 696H247V354H371V278H10V354H145V589L21 527V613Z"  />
<glyph unicode="&#xBD;" horiz-adv-x="900" d="M21 613Q63 624 104 642T172 696H247V354H371V278H10V354H145V589L21 527V613ZM882 0H547V80L581 102L713 196Q736 215 756 236T777 288Q777 312 760 327T716 342Q678 342 661 319T640 263L547 282Q561 348 604 382T722 417Q754 417 780 411T832 386Q857 368 870 344T884 290Q884 250 866 223T817 170Q788 147 756 128T690 90L676 84V82H890L882 0ZM633 686H730L349 0H253L633 686Z"  />
<glyph unicode="&#xBE;" horiz-adv-x="900" d="M724 337L602 164H724V337ZM890 164V94H828V0H724V94H529V164L709 412H828V164H890ZM626 686H723L342 0H246L626 686ZM128 527H168Q180 527 195 528T221 536Q244 551 244 576Q244 587 239 596T226 612Q217 620 206 623T182 626Q154 626 138 611T116 572L23 586Q37 640 83 668T187 696Q215 696 243 690T294 670T331 635T346 584Q346 550 325 527T270 494V492Q310 485 334 461T359 396Q359 367 346 343T307 302Q281 285 250 279T187 272Q154 272 125 278T70 304Q19 341 10 398L104 410Q110 381 130 364T184 346Q211 346 232 359T253 401Q253 417 245 431T220 451Q206 456 185 456T149 455H128V527Z"  />
<glyph unicode="&#xBF;" horiz-adv-x="540" d="M197 363V518H354V363H197ZM340 310Q340 266 338 239T326 193T299 157T250 117Q224 98 209 78T193 24Q193 -14 215 -36T276 -58Q303 -58 320 -47T349 -17T366 23T374 68L511 49Q505 -2 486 -44T435 -117T360 -165T263 -182Q217 -182 175 -169T101 -129T49 -64T29 24Q29 84 61 128T141 204Q159 215 172 224T193 245T206 271T211 310H340Z"  />
<glyph unicode="&#xC0;" horiz-adv-x="640" d="M375 267L302 508L229 267H375ZM627 0H454L412 141H190L147 0H6L226 686H412L627 0ZM414 796L390 737L164 816L194 903L414 796Z"  />
<glyph unicode="&#xC1;" horiz-adv-x="640" d="M375 267L302 508L229 267H375ZM627 0H454L412 141H190L147 0H6L226 686H412L627 0ZM475 817L248 735L223 795L441 903L475 817Z"  />
<glyph unicode="&#xC2;" horiz-adv-x="640" d="M375 267L302 508L229 267H375ZM627 0H454L412 141H190L147 0H6L226 686H412L627 0ZM401 754L314 809L229 754H127L314 904L507 754H401Z"  />
<glyph unicode="&#xC3;" horiz-adv-x="640" d="M375 267L302 508L229 267H375ZM627 0H454L412 141H190L147 0H6L226 686H412L627 0ZM135 808Q161 834 187 849T252 865Q271 865 287 861T318 849Q332 842 345 837T373 832Q393 832 414 846T450 874L495 824Q473 797 443 777T376 757Q356 757 338 762T304 774Q288 780 275 785T250 791Q232 791 213 780Q204 775 196 769T180 756L135 808Z"  />
<glyph unicode="&#xC4;" horiz-adv-x="640" d="M375 267L302 508L229 267H375ZM627 0H454L412 141H190L147 0H6L226 686H412L627 0ZM391 768Q367 768 352 785T336 826Q336 850 352 867T393 884Q416 884 432 867T449 826Q449 802 432 785T391 768ZM229 768Q205 768 190 785T174 826Q174 850 190 867T231 884Q254 884 270 867T287 826Q287 802 270 785T229 768Z"  />
<glyph unicode="&#xC5;" horiz-adv-x="640" d="M375 267L302 508L229 267H375ZM627 0H454L412 141H190L147 0H6L226 686H412L627 0ZM313 736Q293 736 276 744T247 766T227 798T220 835Q220 854 227 872T246 903T276 925T313 934Q355 934 382 906T410 835Q410 793 382 765T313 736ZM314 797Q330 797 341 808T352 835Q352 850 342 861T315 873Q299 873 288 862T277 834Q277 819 288 808T314 797Z"  />
<glyph unicode="&#xC6;" horiz-adv-x="900" d="M381 273V520H379L269 273H381ZM381 158H222L149 0H10L324 686H857V553H541V414H794V285H541V133H857V0H381V158Z"  />
<glyph unicode="&#xC7;" horiz-adv-x="660" d="M449 420Q449 448 443 475T424 522T389 554T334 567Q292 567 267 543T230 483T214 407T210 336Q210 301 213 263T230 194T270 142T342 121Q370 121 391 132T426 161T449 202T461 250L617 240Q604 125 532 59T345 -9L333 -40L349 -38Q364 -38 379 -43T405 -58T424 -81T432 -111Q432 -130 424 -145T402 -170T371 -186T336 -192Q307 -192 280 -184T229 -160L245 -120Q260 -129 280 -136T319 -143Q332 -143 343 -136T354 -115Q354 -105 349 -98T335 -86T316 -80T298 -78L269 -80L295 -8Q228 -1 179 30T96 109T47 217T31 343Q31 414 50 478T107 590T204 667T339 696Q468 696 535 626T617 431L449 420Z"  />
<glyph unicode="&#xC8;" horiz-adv-x="580" d="M222 553V414H482V285H222V133H552V0H62V686H552V553H222ZM403 796L379 737L153 816L183 903L403 796Z"  />
<glyph unicode="&#xC9;" horiz-adv-x="580" d="M222 553V414H482V285H222V133H552V0H62V686H552V553H222ZM464 817L237 735L212 795L430 903L464 817Z"  />
<glyph unicode="&#xCA;" horiz-adv-x="580" d="M222 553V414H482V285H222V133H552V0H62V686H552V553H222ZM388 754L301 809L216 754H114L301 904L494 754H388Z"  />
<glyph unicode="&#xCB;" horiz-adv-x="580" d="M222 553V414H482V285H222V133H552V0H62V686H552V553H222ZM388 768Q364 768 349 785T333 826Q333 850 349 867T390 884Q413 884 429 867T446 826Q446 802 429 785T388 768ZM226 768Q202 768 187 785T171 826Q171 850 187 867T228 884Q251 884 267 867T284 826Q284 802 267 785T226 768Z"  />
<glyph unicode="&#xCC;" horiz-adv-x="300" d="M225 0H65V686H225V0ZM230 796L206 737L-20 816L10 903L230 796Z"  />
<glyph unicode="&#xCD;" horiz-adv-x="300" d="M225 0H65V686H225V0ZM316 817L89 735L64 795L282 903L316 817Z"  />
<glyph unicode="&#xCE;" horiz-adv-x="300" d="M225 0H65V686H225V0ZM232 754L145 809L60 754H-42L145 904L338 754H232Z"  />
<glyph unicode="&#xCF;" horiz-adv-x="300" d="M225 0H65V686H225V0ZM226 768Q202 768 187 785T171 826Q171 850 187 867T228 884Q251 884 267 867T284 826Q284 802 267 785T226 768ZM64 768Q40 768 25 785T9 826Q9 850 25 867T66 884Q89 884 105 867T122 826Q122 802 105 785T64 768Z"  />
<glyph unicode="&#xD0;" horiz-adv-x="660" d="M220 418H329V283H220V129H274Q324 129 358 143T421 202Q441 235 450 273T459 350Q459 391 447 432T410 505Q382 541 350 550T275 560H220V418ZM259 686Q296 686 330 684T397 674T460 651T518 609Q574 556 599 488T624 345Q624 276 603 212T535 95Q484 39 422 20T286 0H60V283H-1V418H60V686H259Z"  />
<glyph unicode="&#xD1;" horiz-adv-x="660" d="M590 0H453L190 461H186V0H62V686H235L464 283H466V686H590V0ZM152 808Q178 834 204 849T269 865Q288 865 304 861T335 849Q349 842 362 837T390 832Q410 832 431 846T467 874L512 824Q490 797 460 777T393 757Q373 757 355 762T321 774Q305 780 292 785T267 791Q249 791 230 780Q221 775 213 769T197 756L152 808Z"  />
<glyph unicode="&#xD2;" horiz-adv-x="660" d="M327 565Q285 565 261 545T223 487Q211 456 206 416T201 344Q201 312 205 273T222 200T260 144T327 121Q369 121 392 141T430 199Q442 231 446 270T451 343Q451 381 446 422T426 498T388 549T327 565ZM327 -10Q257 -10 202 15T105 98Q67 152 50 215T33 344Q33 412 50 475T104 588T195 666T327 696Q396 696 449 672T545 591Q582 540 600 474T619 344Q619 285 603 220T554 106Q514 47 456 19T327 -10ZM415 796L391 737L165 816L195 903L415 796Z"  />
<glyph unicode="&#xD3;" horiz-adv-x="660" d="M327 565Q285 565 261 545T223 487Q211 456 206 416T201 344Q201 312 205 273T222 200T260 144T327 121Q369 121 392 141T430 199Q442 231 446 270T451 343Q451 381 446 422T426 498T388 549T327 565ZM327 -10Q257 -10 202 15T105 98Q67 152 50 215T33 344Q33 412 50 475T104 588T195 666T327 696Q396 696 449 672T545 591Q582 540 600 474T619 344Q619 285 603 220T554 106Q514 47 456 19T327 -10ZM498 817L271 735L246 795L464 903L498 817Z"  />
<glyph unicode="&#xD4;" horiz-adv-x="660" d="M327 565Q285 565 261 545T223 487Q211 456 206 416T201 344Q201 312 205 273T222 200T260 144T327 121Q369 121 392 141T430 199Q442 231 446 270T451 343Q451 381 446 422T426 498T388 549T327 565ZM327 -10Q257 -10 202 15T105 98Q67 152 50 215T33 344Q33 412 50 475T104 588T195 666T327 696Q396 696 449 672T545 591Q582 540 600 474T619 344Q619 285 603 220T554 106Q514 47 456 19T327 -10ZM411 754L324 809L239 754H137L324 904L517 754H411Z"  />
<glyph unicode="&#xD5;" horiz-adv-x="660" d="M327 565Q285 565 261 545T223 487Q211 456 206 416T201 344Q201 312 205 273T222 200T260 144T327 121Q369 121 392 141T430 199Q442 231 446 270T451 343Q451 381 446 422T426 498T388 549T327 565ZM327 -10Q257 -10 202 15T105 98Q67 152 50 215T33 344Q33 412 50 475T104 588T195 666T327 696Q396 696 449 672T545 591Q582 540 600 474T619 344Q619 285 603 220T554 106Q514 47 456 19T327 -10ZM146 808Q172 834 198 849T263 865Q282 865 298 861T329 849Q343 842 356 837T384 832Q404 832 425 846T461 874L506 824Q484 797 454 777T387 757Q367 757 349 762T315 774Q299 780 286 785T261 791Q243 791 224 780Q215 775 207 769T191 756L146 808Z"  />
<glyph unicode="&#xD6;" horiz-adv-x="660" d="M327 565Q285 565 261 545T223 487Q211 456 206 416T201 344Q201 312 205 273T222 200T260 144T327 121Q369 121 392 141T430 199Q442 231 446 270T451 343Q451 381 446 422T426 498T388 549T327 565ZM327 -10Q257 -10 202 15T105 98Q67 152 50 215T33 344Q33 412 50 475T104 588T195 666T327 696Q396 696 449 672T545 591Q582 540 600 474T619 344Q619 285 603 220T554 106Q514 47 456 19T327 -10ZM405 768Q381 768 366 785T350 826Q350 850 366 867T407 884Q430 884 446 867T463 826Q463 802 446 785T405 768ZM243 768Q219 768 204 785T188 826Q188 850 204 867T245 884Q268 884 284 867T301 826Q301 802 284 785T243 768Z"  />
<glyph unicode="&#xD7;" horiz-adv-x="600" d="M512 474L375 337L517 195L442 120L300 262L163 124L87 200L224 337L82 479L157 554L299 412L436 549L512 474Z"  />
<glyph unicode="&#xD8;" horiz-adv-x="660" d="M394 546Q380 556 364 561T330 567Q286 567 260 541T221 478T205 398T201 323Q201 296 204 270T215 217L394 546ZM262 139Q290 120 322 120Q367 120 392 145T431 206T447 285T450 360Q450 386 448 412T439 463L262 139ZM526 618Q550 592 567 560T596 493T613 421T618 349Q618 283 602 219T547 100Q506 41 448 16T319 -10Q285 -10 256 -4T195 16L144 -69H53L129 65Q103 92 85 125T55 193T38 266T33 341Q33 404 49 467T101 583Q143 646 201 671T332 696Q365 696 397 690T459 669L496 748H589L526 618Z"  />
<glyph unicode="&#xD9;" horiz-adv-x="660" d="M600 271Q600 243 600 215T594 159T577 108T544 62Q502 20 446 5T333 -10Q306 -10 278 -8T222 1T169 19T123 49Q97 71 83 96T62 150T54 209T52 271V686H226V271Q226 247 227 217T241 165Q257 138 286 129T344 119Q368 119 398 127T443 156Q459 179 460 211T462 271V686H600V271ZM400 796L376 737L150 816L180 903L400 796Z"  />
<glyph unicode="&#xDA;" horiz-adv-x="660" d="M600 271Q600 243 600 215T594 159T577 108T544 62Q502 20 446 5T333 -10Q306 -10 278 -8T222 1T169 19T123 49Q97 71 83 96T62 150T54 209T52 271V686H226V271Q226 247 227 217T241 165Q257 138 286 129T344 119Q368 119 398 127T443 156Q459 179 460 211T462 271V686H600V271ZM532 817L305 735L280 795L498 903L532 817Z"  />
<glyph unicode="&#xDB;" horiz-adv-x="660" d="M600 271Q600 243 600 215T594 159T577 108T544 62Q502 20 446 5T333 -10Q306 -10 278 -8T222 1T169 19T123 49Q97 71 83 96T62 150T54 209T52 271V686H226V271Q226 247 227 217T241 165Q257 138 286 129T344 119Q368 119 398 127T443 156Q459 179 460 211T462 271V686H600V271ZM420 754L333 809L248 754H146L333 904L526 754H420Z"  />
<glyph unicode="&#xDC;" horiz-adv-x="660" d="M600 271Q600 243 600 215T594 159T577 108T544 62Q502 20 446 5T333 -10Q306 -10 278 -8T222 1T169 19T123 49Q97 71 83 96T62 150T54 209T52 271V686H226V271Q226 247 227 217T241 165Q257 138 286 129T344 119Q368 119 398 127T443 156Q459 179 460 211T462 271V686H600V271ZM413 768Q389 768 374 785T358 826Q358 850 374 867T415 884Q438 884 454 867T471 826Q471 802 454 785T413 768ZM251 768Q227 768 212 785T196 826Q196 850 212 867T253 884Q276 884 292 867T309 826Q309 802 292 785T251 768Z"  />
<glyph unicode="&#xDD;" horiz-adv-x="600" d="M381 289V0H221V289L4 686H190L322 425L452 686H596L381 289ZM522 817L295 735L270 795L488 903L522 817Z"  />
<glyph unicode="&#xDE;" horiz-adv-x="620" d="M312 279Q341 279 365 282T410 309Q421 322 426 337T432 370Q432 390 424 409T399 442Q380 456 357 458T311 461H222V279H312ZM222 0H62V686H222V586H320Q371 586 416 581T505 547Q594 484 594 376Q594 327 576 281T520 202Q498 184 475 174T428 160T378 155T325 154H222V0Z"  />
<glyph unicode="&#xDF;" horiz-adv-x="660" d="M77 334H25V440H77Q75 500 95 547T151 628T239 678T354 696Q389 696 422 689T485 664Q520 644 540 615T561 546Q561 498 523 462T425 413Q405 409 390 406T374 395Q374 390 383 386T401 380Q510 349 570 299T630 175Q630 136 612 101T563 42Q528 13 484 2T394 -10Q332 -10 276 9L315 104Q338 97 359 92T407 87Q422 87 437 90T463 101T482 120T490 148Q490 165 481 177T457 198Q437 211 413 220T366 240Q345 249 326 259T292 282T269 314T260 358Q260 389 276 415T315 463Q330 466 347 471T378 484T401 504T411 533Q411 548 404 559T385 578T359 589T330 593Q304 593 282 581T248 547Q234 521 234 493T233 437V-57H77V334Z"  />
<glyph unicode="&#xE0;" horiz-adv-x="540" d="M345 243Q324 241 297 237T245 222T203 195T186 150Q186 120 203 102T251 83Q274 83 293 94T325 125Q341 149 343 172T345 223V243ZM359 0Q354 20 353 39T352 79Q320 34 284 12T190 -10Q156 -10 127 -1T77 26T43 71T30 134Q30 191 61 228T144 285Q188 302 243 307T345 317V329Q345 346 344 364T332 396Q322 409 306 414T272 420Q237 420 211 402T184 346L45 359Q51 405 74 435T131 484T206 510T287 518Q306 518 328 516T371 508T413 494T448 472Q467 456 477 438T491 400T495 357Q495 336 495 313V76Q495 56 497 38T505 0H359ZM371 618L347 559L121 638L151 725L371 618Z"  />
<glyph unicode="&#xE1;" horiz-adv-x="540" d="M345 243Q324 241 297 237T245 222T203 195T186 150Q186 120 203 102T251 83Q274 83 293 94T325 125Q341 149 343 172T345 223V243ZM359 0Q354 20 353 39T352 79Q320 34 284 12T190 -10Q156 -10 127 -1T77 26T43 71T30 134Q30 191 61 228T144 285Q188 302 243 307T345 317V329Q345 346 344 364T332 396Q322 409 306 414T272 420Q237 420 211 402T184 346L45 359Q51 405 74 435T131 484T206 510T287 518Q306 518 328 516T371 508T413 494T448 472Q467 456 477 438T491 400T495 357Q495 336 495 313V76Q495 56 497 38T505 0H359ZM454 639L227 557L202 617L420 725L454 639Z"  />
<glyph unicode="&#xE2;" horiz-adv-x="540" d="M345 243Q324 241 297 237T245 222T203 195T186 150Q186 120 203 102T251 83Q274 83 293 94T325 125Q341 149 343 172T345 223V243ZM359 0Q354 20 353 39T352 79Q320 34 284 12T190 -10Q156 -10 127 -1T77 26T43 71T30 134Q30 191 61 228T144 285Q188 302 243 307T345 317V329Q345 346 344 364T332 396Q322 409 306 414T272 420Q237 420 211 402T184 346L45 359Q51 405 74 435T131 484T206 510T287 518Q306 518 328 516T371 508T413 494T448 472Q467 456 477 438T491 400T495 357Q495 336 495 313V76Q495 56 497 38T505 0H359ZM362 576L275 631L190 576H88L275 726L468 576H362Z"  />
<glyph unicode="&#xE3;" horiz-adv-x="540" d="M345 243Q324 241 297 237T245 222T203 195T186 150Q186 120 203 102T251 83Q274 83 293 94T325 125Q341 149 343 172T345 223V243ZM359 0Q354 20 353 39T352 79Q320 34 284 12T190 -10Q156 -10 127 -1T77 26T43 71T30 134Q30 191 61 228T144 285Q188 302 243 307T345 317V329Q345 346 344 364T332 396Q322 409 306 414T272 420Q237 420 211 402T184 346L45 359Q51 405 74 435T131 484T206 510T287 518Q306 518 328 516T371 508T413 494T448 472Q467 456 477 438T491 400T495 357Q495 336 495 313V76Q495 56 497 38T505 0H359ZM101 640Q127 666 153 681T218 697Q237 697 253 693T284 681T311 669T339 664Q359 664 380 678T416 706L461 656Q439 629 409 609T342 589Q322 589 304 594T270 606T241 617T216 623Q198 623 179 612Q170 607 162 601T146 588L101 640Z"  />
<glyph unicode="&#xE4;" horiz-adv-x="540" d="M345 243Q324 241 297 237T245 222T203 195T186 150Q186 120 203 102T251 83Q274 83 293 94T325 125Q341 149 343 172T345 223V243ZM359 0Q354 20 353 39T352 79Q320 34 284 12T190 -10Q156 -10 127 -1T77 26T43 71T30 134Q30 191 61 228T144 285Q188 302 243 307T345 317V329Q345 346 344 364T332 396Q322 409 306 414T272 420Q237 420 211 402T184 346L45 359Q51 405 74 435T131 484T206 510T287 518Q306 518 328 516T371 508T413 494T448 472Q467 456 477 438T491 400T495 357Q495 336 495 313V76Q495 56 497 38T505 0H359ZM200 590Q176 590 161 607T145 648Q145 672 161 689T202 706Q225 706 241 689T258 648Q258 624 241 607T200 590ZM362 590Q338 590 323 607T307 648Q307 672 323 689T364 706Q387 706 403 689T420 648Q420 624 403 607T362 590Z"  />
<glyph unicode="&#xE5;" horiz-adv-x="540" d="M345 243Q324 241 297 237T245 222T203 195T186 150Q186 120 203 102T251 83Q274 83 293 94T325 125Q341 149 343 172T345 223V243ZM359 0Q354 20 353 39T352 79Q320 34 284 12T190 -10Q156 -10 127 -1T77 26T43 71T30 134Q30 191 61 228T144 285Q188 302 243 307T345 317V329Q345 346 344 364T332 396Q322 409 306 414T272 420Q237 420 211 402T184 346L45 359Q51 405 74 435T131 484T206 510T287 518Q306 518 328 516T371 508T413 494T448 472Q467 456 477 438T491 400T495 357Q495 336 495 313V76Q495 56 497 38T505 0H359ZM281 619Q297 619 308 630T319 657Q319 672 309 683T282 695Q266 695 255 684T244 656Q244 641 255 630T281 619ZM280 558Q260 558 243 566T214 588T194 620T187 657Q187 676 194 694T213 725T243 747T280 756Q322 756 349 728T377 657Q377 615 349 587T280 558Z"  />
<glyph unicode="&#xE6;" horiz-adv-x="820" d="M476 229Q475 204 478 180T492 138T521 108T570 97Q608 97 629 118T658 175L790 164Q771 79 712 35T566 -10Q508 -10 458 11T373 80Q341 37 293 14T191 -10Q159 -10 131 -4T78 25Q52 47 41 73T30 133Q30 195 61 230T140 283T241 307T341 317V337Q341 353 341 369T329 399Q318 411 301 416T267 421Q231 421 208 400T182 344L47 356Q51 399 72 429T125 479T195 508T272 518Q316 518 352 508T424 471Q457 497 489 507T564 518Q618 518 666 495T745 426Q774 382 782 331T790 229H476ZM341 243Q319 242 292 238T240 224T200 196T183 150Q183 121 201 103T248 84Q269 84 288 94T319 122Q336 146 338 170T341 222V243ZM652 317Q650 338 646 357T633 390T609 413T568 422Q545 422 529 413T501 390T485 356T477 317H652Z"  />
<glyph unicode="&#xE7;" horiz-adv-x="540" d="M364 315Q364 332 360 348T346 377T322 398T287 406Q257 406 239 393T212 358T199 311T196 261Q196 238 197 212T207 163T232 126T281 111Q320 111 340 137T364 199L504 191Q499 145 481 109T434 47T367 7T285 -9L273 -40L289 -38Q304 -38 319 -43T345 -58T364 -81T372 -111Q372 -130 364 -145T342 -170T311 -186T276 -192Q247 -192 220 -184T169 -160L185 -120Q200 -129 220 -136T259 -143Q272 -143 283 -136T294 -115Q294 -105 289 -98T275 -86T256 -80T238 -78L209 -80L236 -6Q186 -1 148 20T83 75T42 153T28 249Q28 307 45 356T95 442T175 498T282 518Q326 518 365 505T433 466T481 404T504 323L364 315Z"  />
<glyph unicode="&#xE8;" horiz-adv-x="540" d="M363 316Q362 337 358 356T344 389T318 413T278 422Q254 422 237 414T208 391T191 357T183 316H363ZM184 229L183 204Q183 159 208 127T281 95Q298 95 314 101T343 117T363 142T371 175L507 165Q507 159 502 144T486 109T456 68T413 30T353 1T276 -10Q219 -10 173 9T94 62T43 143T25 247Q25 303 41 352T89 438T167 496T272 518Q326 518 376 495T458 428T500 333T510 229H184ZM369 618L345 559L119 638L149 725L369 618Z"  />
<glyph unicode="&#xE9;" horiz-adv-x="540" d="M363 316Q362 337 358 356T344 389T318 413T278 422Q254 422 237 414T208 391T191 357T183 316H363ZM184 229L183 204Q183 159 208 127T281 95Q298 95 314 101T343 117T363 142T371 175L507 165Q507 159 502 144T486 109T456 68T413 30T353 1T276 -10Q219 -10 173 9T94 62T43 143T25 247Q25 303 41 352T89 438T167 496T272 518Q326 518 376 495T458 428T500 333T510 229H184ZM441 639L214 557L189 617L407 725L441 639Z"  />
<glyph unicode="&#xEA;" horiz-adv-x="540" d="M363 316Q362 337 358 356T344 389T318 413T278 422Q254 422 237 414T208 391T191 357T183 316H363ZM184 229L183 204Q183 159 208 127T281 95Q298 95 314 101T343 117T363 142T371 175L507 165Q507 159 502 144T486 109T456 68T413 30T353 1T276 -10Q219 -10 173 9T94 62T43 143T25 247Q25 303 41 352T89 438T167 496T272 518Q326 518 376 495T458 428T500 333T510 229H184ZM360 576L273 631L188 576H86L273 726L466 576H360Z"  />
<glyph unicode="&#xEB;" horiz-adv-x="540" d="M363 316Q362 337 358 356T344 389T318 413T278 422Q254 422 237 414T208 391T191 357T183 316H363ZM184 229L183 204Q183 159 208 127T281 95Q298 95 314 101T343 117T363 142T371 175L507 165Q507 159 502 144T486 109T456 68T413 30T353 1T276 -10Q219 -10 173 9T94 62T43 143T25 247Q25 303 41 352T89 438T167 496T272 518Q326 518 376 495T458 428T500 333T510 229H184ZM194 590Q170 590 155 607T139 648Q139 672 155 689T196 706Q219 706 235 689T252 648Q252 624 235 607T194 590ZM356 590Q332 590 317 607T301 648Q301 672 317 689T358 706Q381 706 397 689T414 648Q414 624 397 607T356 590Z"  />
<glyph unicode="&#xEC;" horiz-adv-x="260" d="M202 0H55V508H202V0ZM217 618L193 559L-33 638L-3 725L217 618Z"  />
<glyph unicode="&#xED;" horiz-adv-x="260" d="M202 0H55V508H202V0ZM296 639L69 557L44 617L262 725L296 639Z"  />
<glyph unicode="&#xEE;" horiz-adv-x="260" d="M202 0H55V508H202V0ZM215 576L128 631L43 576H-59L128 726L321 576H215Z"  />
<glyph unicode="&#xEF;" horiz-adv-x="260" d="M202 0H55V508H202V0ZM49 590Q25 590 10 607T-6 648Q-6 672 10 689T51 706Q74 706 90 689T107 648Q107 624 90 607T49 590ZM211 590Q187 590 172 607T156 648Q156 672 172 689T213 706Q236 706 252 689T269 648Q269 624 252 607T211 590Z"  />
<glyph unicode="&#xF0;" horiz-adv-x="540" d="M399 626Q422 589 442 548T477 463T500 378T509 298Q509 236 498 181T458 83T385 15T272 -10Q213 -10 169 10T93 67T47 151T31 255Q31 306 43 352T83 433T152 490T255 511Q275 511 295 505T336 480Q325 509 314 533T288 581L151 526L119 597L244 647Q239 655 233 663T220 681L325 725Q332 717 339 709T353 691L504 752L536 681L399 626ZM273 421Q243 421 227 406T202 367T191 318T189 270Q189 248 190 217T199 158T223 109T272 88Q303 88 320 104T346 145T357 198T359 249Q359 279 357 312T343 375Q334 400 317 410T273 421Z"  />
<glyph unicode="&#xF1;" horiz-adv-x="540" d="M50 508H189V422H191Q214 471 247 494T337 518Q373 518 406 506T462 462Q472 448 478 430T486 391T489 351T490 314V0H343V273Q343 292 343 314Q343 337 338 356T318 388T276 401Q256 401 240 391T214 363Q203 341 200 319T197 273V0H50V508ZM90 640Q116 666 142 681T207 697Q226 697 242 693T273 681T300 669T328 664Q348 664 369 678T405 706L450 656Q428 629 398 609T331 589Q311 589 293 594T259 606T230 617T205 623Q187 623 168 612Q159 607 151 601T135 588L90 640Z"  />
<glyph unicode="&#xF2;" horiz-adv-x="540" d="M269 421Q239 421 223 406T198 367T187 318T185 270Q185 248 186 217T195 158T219 109T268 88Q299 88 316 104T342 145T353 198T355 249Q355 279 353 312T339 375Q330 400 313 410T269 421ZM268 518Q328 518 373 497T450 440T497 355T513 250Q513 196 496 149T447 66T370 10T268 -10Q209 -10 165 10T89 67T43 151T27 255Q27 310 43 358T89 442T165 497T268 518ZM358 618L334 559L108 638L138 725L358 618Z"  />
<glyph unicode="&#xF3;" horiz-adv-x="540" d="M269 421Q239 421 223 406T198 367T187 318T185 270Q185 248 186 217T195 158T219 109T268 88Q299 88 316 104T342 145T353 198T355 249Q355 279 353 312T339 375Q330 400 313 410T269 421ZM268 518Q328 518 373 497T450 440T497 355T513 250Q513 196 496 149T447 66T370 10T268 -10Q209 -10 165 10T89 67T43 151T27 255Q27 310 43 358T89 442T165 497T268 518ZM449 639L222 557L197 617L415 725L449 639Z"  />
<glyph unicode="&#xF4;" horiz-adv-x="540" d="M269 421Q239 421 223 406T198 367T187 318T185 270Q185 248 186 217T195 158T219 109T268 88Q299 88 316 104T342 145T353 198T355 249Q355 279 353 312T339 375Q330 400 313 410T269 421ZM268 518Q328 518 373 497T450 440T497 355T513 250Q513 196 496 149T447 66T370 10T268 -10Q209 -10 165 10T89 67T43 151T27 255Q27 310 43 358T89 442T165 497T268 518ZM355 576L268 631L183 576H81L268 726L461 576H355Z"  />
<glyph unicode="&#xF5;" horiz-adv-x="540" d="M269 421Q239 421 223 406T198 367T187 318T185 270Q185 248 186 217T195 158T219 109T268 88Q299 88 316 104T342 145T353 198T355 249Q355 279 353 312T339 375Q330 400 313 410T269 421ZM268 518Q328 518 373 497T450 440T497 355T513 250Q513 196 496 149T447 66T370 10T268 -10Q209 -10 165 10T89 67T43 151T27 255Q27 310 43 358T89 442T165 497T268 518ZM89 640Q115 666 141 681T206 697Q225 697 241 693T272 681T299 669T327 664Q347 664 368 678T404 706L449 656Q427 629 397 609T330 589Q310 589 292 594T258 606T229 617T204 623Q186 623 167 612Q158 607 150 601T134 588L89 640Z"  />
<glyph unicode="&#xF6;" horiz-adv-x="540" d="M269 421Q239 421 223 406T198 367T187 318T185 270Q185 248 186 217T195 158T219 109T268 88Q299 88 316 104T342 145T353 198T355 249Q355 279 353 312T339 375Q330 400 313 410T269 421ZM268 518Q328 518 373 497T450 440T497 355T513 250Q513 196 496 149T447 66T370 10T268 -10Q209 -10 165 10T89 67T43 151T27 255Q27 310 43 358T89 442T165 497T268 518ZM187 590Q163 590 148 607T132 648Q132 672 148 689T189 706Q212 706 228 689T245 648Q245 624 228 607T187 590ZM349 590Q325 590 310 607T294 648Q294 672 310 689T351 706Q374 706 390 689T407 648Q407 624 390 607T349 590Z"  />
<glyph unicode="&#xF7;" horiz-adv-x="600" d="M58 348H542V228H58V348ZM240 46V166H360V46H240ZM240 410V530H360V410H240Z"  />
<glyph unicode="&#xF8;" horiz-adv-x="540" d="M426 464Q470 426 491 371T513 250Q513 196 496 149T447 66T370 10T268 -10Q212 -10 170 9L131 -61H52L111 44Q69 80 48 134T27 255Q27 310 43 358T89 442T165 497T268 518Q325 518 370 498L408 564H483L426 464ZM224 104Q243 88 268 88Q299 88 316 104T342 145T353 198T355 249Q355 268 354 288T350 329L224 104ZM318 406Q301 421 269 421Q239 421 223 406T198 367T187 318T185 270Q185 253 185 230T190 182L318 406Z"  />
<glyph unicode="&#xF9;" horiz-adv-x="540" d="M350 0V87H348Q330 39 293 15T203 -10Q165 -10 133 1T79 47Q58 80 56 115T54 188V508H201V188Q201 173 202 159T209 133T226 115T257 108Q282 108 301 121T331 157Q339 174 339 194Q339 215 339 235V508H486V0H350ZM336 618L312 559L86 638L116 725L336 618Z"  />
<glyph unicode="&#xFA;" horiz-adv-x="540" d="M350 0V87H348Q330 39 293 15T203 -10Q165 -10 133 1T79 47Q58 80 56 115T54 188V508H201V188Q201 173 202 159T209 133T226 115T257 108Q282 108 301 121T331 157Q339 174 339 194Q339 215 339 235V508H486V0H350ZM454 639L227 557L202 617L420 725L454 639Z"  />
<glyph unicode="&#xFB;" horiz-adv-x="540" d="M350 0V87H348Q330 39 293 15T203 -10Q165 -10 133 1T79 47Q58 80 56 115T54 188V508H201V188Q201 173 202 159T209 133T226 115T257 108Q282 108 301 121T331 157Q339 174 339 194Q339 215 339 235V508H486V0H350ZM353 576L266 631L181 576H79L266 726L459 576H353Z"  />
<glyph unicode="&#xFC;" horiz-adv-x="540" d="M350 0V87H348Q330 39 293 15T203 -10Q165 -10 133 1T79 47Q58 80 56 115T54 188V508H201V188Q201 173 202 159T209 133T226 115T257 108Q282 108 301 121T331 157Q339 174 339 194Q339 215 339 235V508H486V0H350ZM188 590Q164 590 149 607T133 648Q133 672 149 689T190 706Q213 706 229 689T246 648Q246 624 229 607T188 590ZM350 590Q326 590 311 607T295 648Q295 672 311 689T352 706Q375 706 391 689T408 648Q408 624 391 607T350 590Z"  />
<glyph unicode="&#xFD;" horiz-adv-x="480" d="M316 32Q302 -11 289 -49T255 -115T201 -160T114 -177Q78 -177 42 -171V-56Q62 -59 79 -61T116 -63Q153 -63 170 -50T197 0L12 508H171L268 206L361 508H471L316 32ZM452 639L225 557L200 617L418 725L452 639Z"  />
<glyph unicode="&#xFE;" horiz-adv-x="540" d="M205 686V433H207Q234 518 330 518Q381 518 417 496T480 430Q504 389 511 345T518 253Q518 206 509 159T477 75T417 14T324 -10Q286 -10 255 6T207 56H205V-171H58V686H205ZM205 235Q205 211 205 182T219 132Q230 115 247 105T285 94Q313 94 329 112T353 156T362 209T364 257Q364 276 362 303T353 355T330 397T286 414Q264 414 247 403T220 373Q209 353 207 331T205 285V235Z"  />
<glyph unicode="&#xFF;" horiz-adv-x="480" d="M316 32Q302 -11 289 -49T255 -115T201 -160T114 -177Q78 -177 42 -171V-56Q62 -59 79 -61T116 -63Q153 -63 170 -50T197 0L12 508H171L268 206L361 508H471L316 32ZM177 590Q153 590 138 607T122 648Q122 672 138 689T179 706Q202 706 218 689T235 648Q235 624 218 607T177 590ZM339 590Q315 590 300 607T284 648Q284 672 300 689T341 706Q364 706 380 689T397 648Q397 624 380 607T339 590Z"  />
<glyph unicode="&#x131;" horiz-adv-x="260" d="M202 0H55V508H202V0Z"  />
<glyph unicode="&#x152;" horiz-adv-x="960" d="M423 515Q406 541 384 552T327 565Q285 565 261 545T223 487Q211 456 206 416T201 344Q201 312 205 273T222 200T260 144T327 121Q356 121 381 134T423 174V515ZM583 553V414H841V285H583V133H906V0H419Q396 -5 373 -7T327 -10Q257 -10 202 15T105 98Q67 152 50 215T33 344Q33 412 50 475T104 588T195 666T327 696Q376 696 419 686H906V553H583Z"  />
<glyph unicode="&#x153;" horiz-adv-x="860" d="M505 229Q504 205 508 181T522 139T552 109T600 97Q638 97 662 117T692 175L828 164Q820 122 800 90T749 36T682 2T602 -10Q553 -10 516 1T438 41Q402 15 362 3T276 -10Q217 -10 172 10T95 67T47 151T31 256Q31 313 48 361T96 444T174 498T279 518Q324 518 363 506T438 465Q473 490 511 504T593 518Q646 518 695 498T778 435Q795 413 805 388T820 337T827 283T828 229H505ZM279 419Q246 419 228 401T202 357T191 302T189 248Q189 224 191 196T203 144T231 104T280 87Q311 87 329 104T355 147T365 202T367 254Q367 277 365 306T355 360T329 402T279 419ZM686 317Q684 338 680 357T665 391T639 414T597 423Q574 423 558 414T530 390T512 356T505 317H686Z"  />
<glyph unicode="&#x160;" horiz-adv-x="600" d="M409 490Q394 534 366 552T291 571Q275 571 258 569T228 559T205 540T196 507Q196 488 206 476T231 457T263 445T295 438Q316 433 340 428T387 417T433 401T474 380Q516 352 540 311T564 218Q564 167 542 122T479 46Q437 14 385 2T280 -10Q232 -10 187 1T105 35T42 94T3 180L151 214Q166 160 203 139T294 117Q311 117 330 120T364 132T390 155T401 191Q401 212 388 225T357 247T318 260T281 268Q235 277 192 290T114 326T60 386T39 479Q39 527 57 568T113 640Q151 672 194 684T285 696Q330 696 370 688T444 660T503 611T545 535L409 490ZM298 754L105 904H212L298 847L383 904H486L298 754Z"  />
<glyph unicode="&#x161;" horiz-adv-x="500" d="M338 356Q328 392 302 408T239 424Q228 424 215 422T190 415T171 402T163 379Q163 355 185 346T242 332T315 322T389 300T445 252T468 163Q468 123 450 89T400 32Q365 8 325 -1T242 -10Q202 -10 165 -3T96 22T43 68T10 140L137 158Q141 138 152 125T179 105T213 94T249 90Q259 90 274 92T304 99T328 114T338 138Q338 151 333 159T320 171T301 178T281 181Q268 182 247 185T204 193T162 202T130 211Q85 227 58 263T30 348Q30 395 48 427T98 480T167 509T247 518Q322 518 371 488T447 385L338 356ZM250 576L57 726H164L250 669L335 726H438L250 576Z"  />
<glyph unicode="&#x178;" horiz-adv-x="600" d="M381 289V0H221V289L4 686H190L322 425L452 686H596L381 289ZM390 768Q366 768 351 785T335 826Q335 850 351 867T392 884Q415 884 431 867T448 826Q448 802 431 785T390 768ZM228 768Q204 768 189 785T173 826Q173 850 189 867T230 884Q253 884 269 867T286 826Q286 802 269 785T228 768Z"  />
<glyph unicode="&#x17D;" horiz-adv-x="660" d="M265 131H623V0H69V117L415 556H93V686H612V568L265 131ZM358 754L165 904H272L358 847L443 904H546L358 754Z"  />
<glyph unicode="&#x17E;" horiz-adv-x="420" d="M399 414L173 109H409V0H9V109L233 406H28V508H399V414ZM225 576L32 726H139L225 669L310 726H413L225 576Z"  />
<glyph unicode="&#x192;" horiz-adv-x="600" d="M265 523Q275 573 287 613T322 682T381 726T475 742L552 735L533 622Q520 624 508 626T483 628Q458 628 446 619T427 595T419 561T411 523H503L486 426H396L330 55Q324 21 315 -16T284 -81Q255 -118 212 -132T123 -147L48 -140L68 -26L118 -31Q141 -31 153 -25T173 -7T182 20T188 55L250 426H187L208 523H265Z"  />
<glyph unicode="&#x2C6;" horiz-adv-x="500" d="M334 576L247 631L162 576H60L247 726L440 576H334Z"  />
<glyph unicode="&#x2C7;" horiz-adv-x="520" d="M262 576L69 726H176L262 669L347 726H450L262 576Z"  />
<glyph unicode="&#x2DA;" horiz-adv-x="320" d="M159 609Q175 609 186 620T197 647Q197 662 187 673T160 685Q144 685 133 674T122 646Q122 631 133 620T159 609ZM158 548Q138 548 121 556T92 578T72 610T65 647Q65 666 72 684T91 715T121 737T158 746Q200 746 227 718T255 647Q255 605 227 577T158 548Z"  />
<glyph unicode="&#x2DC;" horiz-adv-x="500" d="M70 640Q96 666 122 681T187 697Q206 697 222 693T253 681T280 669T308 664Q328 664 349 678T385 706L430 656Q408 629 378 609T311 589Q291 589 273 594T239 606T210 617T185 623Q167 623 148 612Q139 607 131 601T115 588L70 640Z"  />
<glyph unicode="&#x2013;" horiz-adv-x="500" d="M462 312V202H36V312H462Z"  />
<glyph unicode="&#x2014;" horiz-adv-x="1000" d="M1000 312V202H0V312H1000Z"  />
<glyph unicode="&#x2018;" horiz-adv-x="300" d="M158 550H228V406H82V532L172 686H228L158 550Z"  />
<glyph unicode="&#x2019;" horiz-adv-x="300" d="M152 543H82V686H228V561L138 406H82L152 543Z"  />
<glyph unicode="&#x201A;" horiz-adv-x="300" d="M218 0L135 -139H82L153 0H82V141H218V0Z"  />
<glyph unicode="&#x201C;" horiz-adv-x="480" d="M341 550H411V406H265V532L355 686H411L341 550ZM145 550H215V406H69V532L159 686H215L145 550Z"  />
<glyph unicode="&#x201D;" horiz-adv-x="480" d="M69 406L139 543H69V686H215V561L125 406H69ZM265 406L335 543H265V686H411V561L321 406H265Z"  />
<glyph unicode="&#x201E;" horiz-adv-x="480" d="M209 0L126 -139H73L144 0H73V141H209V0ZM407 0L322 -139H269L337 0H269V141H407V0Z"  />
<glyph unicode="&#x2020;" horiz-adv-x="600" d="M369 667V492H541V377H369V-174H230V377H58V492H230V667H369Z"  />
<glyph unicode="&#x2021;" horiz-adv-x="600" d="M369 667V492H541V377H369V136H542V20H370V-174H231V20H58V136H231V377H58V492H230V667H369Z"  />
<glyph unicode="&#x2022;" horiz-adv-x="600" d="M446 343Q446 313 435 287T403 241T356 210T299 198Q269 198 243 209T197 239T166 285T154 343Q154 374 165 400T195 446T242 477T299 489Q329 489 356 478T403 447T434 401T446 343Z"  />
<glyph unicode="&#x2026;" horiz-adv-x="1000" d="M754 0V155H911V0H754ZM421 0V155H578V0H421ZM88 0V155H245V0H88Z"  />
<glyph unicode="&#x2030;" horiz-adv-x="1040" d="M168 624Q148 624 138 611T124 580T120 543T119 510Q119 497 119 478T124 440T139 410T168 397Q188 397 198 409T213 438T218 473T219 506Q219 525 218 547T212 588Q207 605 197 614T168 624ZM168 333Q131 333 105 348T61 388T35 445T27 510Q27 543 35 574T60 631T104 671T168 686Q205 686 232 671T277 632T302 576T311 510Q311 476 303 444T278 388T233 348T168 333ZM871 291Q851 291 841 278T827 247T823 210T822 177Q822 164 822 145T827 107T842 77T871 64Q891 64 901 76T916 105T921 140T922 173Q922 192 921 214T915 255Q910 272 900 281T871 291ZM871 0Q834 0 808 15T764 55T738 112T730 177Q730 210 738 241T763 298T807 338T871 353Q908 353 935 338T980 299T1005 243T1014 177Q1014 143 1006 111T981 55T936 15T871 0ZM535 291Q515 291 505 278T491 247T487 210T486 177Q486 164 486 145T491 107T506 77T535 64Q555 64 565 76T580 105T585 140T586 173Q586 192 585 214T579 255Q574 272 564 281T535 291ZM535 0Q498 0 472 15T428 55T402 112T394 177Q394 210 402 241T427 298T471 338T535 353Q572 353 599 338T644 299T669 243T678 177Q678 143 670 111T645 55T600 15T535 0ZM503 686H580L199 0H120L503 686Z"  />
<glyph unicode="&#x2039;" horiz-adv-x="260" d="M61 288L147 435H198L147 288L198 144H147L61 288Z"  />
<glyph unicode="&#x203A;" horiz-adv-x="260" d="M112 144H61L112 288L61 435H112L198 288L112 144Z"  />
<glyph unicode="&#x20AC;" horiz-adv-x="600" d="M552 522Q478 576 406 576Q364 576 331 541Q302 511 292 471H533L498 381H284Q283 373 283 364T282 346Q282 335 282 326Q282 317 283 309H470L434 219H291Q292 198 300 179T323 145T357 122T397 113Q427 113 459 134Q492 158 502 186L625 134Q601 62 538 25Q481 -8 402 -8Q180 -8 126 219H30L64 309H115Q114 325 114 330T114 342Q114 349 114 358T115 381H30L64 471H129Q181 696 403 696Q513 696 599 638L552 522Z"  />
<glyph unicode="&#x2122;" horiz-adv-x="1000" d="M417 608H294V282H197V608H74V686H417V608ZM926 282H838V608H836L719 282H667L550 608H548V282H460V686H602L693 447L784 686H926V282Z"  />
<glyph unicode="&#xE300;" horiz-adv-x="380" d="M317 796L293 737L67 816L97 903L317 796Z"  />
<glyph unicode="&#xE301;" horiz-adv-x="400" d="M328 817L101 735L76 795L294 903L328 817Z"  />
<glyph unicode="&#xE302;" horiz-adv-x="500" d="M334 754L247 809L162 754H60L247 904L440 754H334Z"  />
<glyph unicode="&#xE303;" horiz-adv-x="520" d="M262 754L69 904H176L262 847L347 904H450L262 754Z"  />
<glyph unicode="&#xE304;" horiz-adv-x="500" d="M67 808Q93 834 119 849T184 865Q203 865 219 861T250 849Q264 842 277 837T305 832Q325 832 346 846T382 874L427 824Q405 797 375 777T308 757Q288 757 270 762T236 774Q220 780 207 785T182 791Q164 791 145 780Q136 775 128 769T112 756L67 808Z"  />
<glyph unicode="&#xE305;" horiz-adv-x="420" d="M291 768Q267 768 252 785T236 826Q236 850 252 867T293 884Q316 884 332 867T349 826Q349 802 332 785T291 768ZM129 768Q105 768 90 785T74 826Q74 850 90 867T131 884Q154 884 170 867T187 826Q187 802 170 785T129 768Z"  />
<glyph unicode="&#xE308;" horiz-adv-x="320" d="M159 736Q139 736 122 744T93 766T73 798T66 835Q66 854 73 872T92 903T122 925T159 934Q201 934 228 906T256 835Q256 793 228 765T159 736ZM160 797Q176 797 187 808T198 835Q198 850 188 861T161 873Q145 873 134 862T123 834Q123 819 134 808T160 797Z"  />

</font>
</defs>
</svg>
