<?xml  version="1.0" encoding="UTF-8"?>
<!DOCTYPE svg PUBLIC "-//W3C//DTD SVG 1.0//EN" "http://www.w3.org/TR/2001/REC-SVG-20010904/DTD/svg10.dtd" >
<svg xmlns="http://www.w3.org/2000/svg" >
<metadata>
<version>1.0</version>
<id><![CDATA[Didot W01 Roman]]></id>
<vendor>Monotype Imaging Inc.</vendor>
<credits>
<name>Fonts.com WebFonts</name>
<URL>http://webfonts.fonts.com</URL>
<role>Home of the Web fonts</role>
</credits>
<license>
<URL>http://webfonts.fonts.com/Legal</URL>
</license>
<copyright><![CDATA[Part of the digitally encoded machine readable outline data for producing the Typefaces provided is copyrighted © 2008 Linotype GmbH, www.linotype.com. All rights reserved. This software is the property of Linotype GmbH, and may not be reproduced, used, displayed, modified, disclosed or transferred without the express written approval of Linotype GmbH.  The digitally encoded machine readable software for producing the Typefaces licensed to you is copyrighted (c) 1992 Adobe Systems. All Rights Reserved. This software is the property of Adobe Systems Incorporated and its licensors, and may not be reproduced, used, displayed, modified, disclosed or transferred without the express written approval of Adobe. Linotype Didot is a trademark of Linotype GmbH and may be registered in certain jurisdictions. This typeface is original artwork of Adrian Frutiger and Linotype Design Studio. The design may be protected in certain jurisdictions.]]></copyright>
<trademark><![CDATA[Linotype Didot is a trademark of Linotype GmbH and may be registered in certain jurisdictions.]]></trademark>
<licensee>
<name></name>
</licensee>
</metadata>
<defs >
<font horiz-adv-x="538" id="972bb961-7f13-4e8d-8c1f-034e3f4e7517">
<font-face font-family="" panose-1="0 0 5 0 0 0 0 0 0 0" ascent="941" descent="-299" units-per-em="1000" alphabetic="0">
</font-face>
<missing-glyph horiz-adv-x="278" />

<glyph unicode="&#xA;" />
<glyph unicode="&#xD;" horiz-adv-x="0" />
<glyph unicode=" " horiz-adv-x="278" />
<glyph unicode="!" horiz-adv-x="314" d="M116 591Q115 600 114 614T112 642T110 667T109 683Q109 703 122 716T157 730Q179 730 192 717T205 683Q205 679 204 668T202 642T200 614T198 591L167 178H147L116 591ZM104 42Q104 64 119 79T157 95Q179 95 194 80T210 42Q210 20 195 5T157 -11Q135 -11 120 4T104 42Z"  />
<glyph unicode="&quot;" horiz-adv-x="444" d="M261 661Q260 669 260 676T260 692Q260 709 265 719T285 730Q300 730 305 720T310 692Q310 684 310 677T309 661L294 441H276L261 661ZM135 661Q134 669 134 676T134 692Q134 709 139 719T159 730Q174 730 179 720T184 692Q184 684 184 677T183 661L168 441H150L135 661Z"  />
<glyph unicode="#" horiz-adv-x="556" d="M129 237H-4L3 255H136L208 453H75L82 471H215L302 712H323L236 471H405L492 712H513L426 471H559L552 453H419L347 255H480L473 237H340L254 0H233L319 237H150L64 0H43L129 237ZM326 255L398 453H229L157 255H326Z"  />
<glyph unicode="$" horiz-adv-x="667" d="M75 215H86Q102 139 129 96T189 32T254 6T315 0V325L257 342Q175 366 134 408T93 518Q93 563 109 601T154 667T223 711T312 727H315V788H329V727Q359 725 379 719T415 706T443 694T469 688Q482 688 486 691T499 709H513V529H501Q495 563 482 595T448 652T398 693T329 713V430L412 406Q426 402 454 392T511 360T561 306T583 221Q583 175 566 133T516 58T436 6T329 -14V-84H315V-14Q297 -14 283 -13T257 -11T231 -6T203 1Q183 7 160 15T120 23Q105 23 100 17T90 0H75V215ZM315 434V713H312Q288 713 259 707T205 685T164 643T147 577Q147 545 159 523T192 484T239 458T291 441L315 434ZM329 0Q382 0 416 16T470 56T498 108T506 161Q506 197 494 222T464 263T423 290T381 306L329 321V0Z"  />
<glyph unicode="%" horiz-adv-x="778" d="M570 727L588 718L208 -14L190 -5L570 727ZM222 397Q187 397 156 411T101 449T65 502T51 563Q51 598 67 628T108 680T162 714T217 727Q245 727 275 714T329 679T369 626T385 561Q385 529 370 499T332 447T280 411T222 397ZM219 411Q269 411 292 447T315 571Q315 650 289 681T215 713Q185 713 167 700T139 665T125 618T121 568Q121 482 144 447T219 411ZM393 152Q393 187 409 217T450 269T504 303T559 316Q587 316 617 303T671 268T711 215T727 150Q727 118 712 88T674 36T622 0T564 -14Q529 -14 498 0T443 38T407 91T393 152ZM463 157Q463 71 486 36T561 0Q611 0 634 36T657 160Q657 239 631 270T557 302Q527 302 509 289T481 254T467 207T463 157Z"  />
<glyph unicode="&amp;" horiz-adv-x="778" d="M75 208Q75 260 93 299T140 367T203 419T269 459Q258 481 247 510T236 582Q236 616 248 642T279 688T322 717T372 727Q410 727 436 703T463 628Q463 598 454 576T430 536T397 507T363 486L537 154Q566 203 576 251T587 347Q587 395 583 423T567 467T538 486T491 491V505H681V491Q655 491 639 484T615 462T604 424T601 367Q601 326 597 294T586 236T568 186T544 139Q570 91 590 64T636 36Q652 36 661 45T676 68T683 98T685 131H699Q699 89 688 62T661 17T623 -7T583 -14Q562 -14 547 -10T521 4T499 28T477 61Q465 49 447 36T407 12T357 -6T299 -14Q236 -14 193 10T124 69T86 142T75 208ZM358 498Q375 508 391 519T420 545T441 580T449 627Q449 661 433 687T376 713Q350 713 331 690T311 632Q311 606 325 570T358 498ZM161 292Q161 247 177 198T219 107T277 40T343 13Q379 13 410 30T470 74L275 448Q223 421 192 386T161 292Z"  />
<glyph unicode="&apos;" horiz-adv-x="278" d="M115 661Q114 669 114 676T114 692Q114 709 119 719T139 730Q154 730 159 720T164 692Q164 684 164 677T163 661L148 441H130L115 661Z"  />
<glyph unicode="(" horiz-adv-x="278" d="M79 216Q79 325 101 413T150 567T203 670T235 718L251 708Q168 587 134 466T99 216Q99 88 133 -33T251 -276L235 -286Q228 -277 203 -239T151 -135T101 18T79 216Z"  />
<glyph unicode=")" horiz-adv-x="278" d="M27 -276Q110 -155 144 -34T179 216Q179 344 145 465T27 708L43 718Q50 709 75 671T127 567T177 414T199 216Q199 107 177 19T128 -135T75 -238T43 -286L27 -276H27Z"  />
<glyph unicode="*" horiz-adv-x="444" d="M223 330Q200 330 190 344T180 373Q180 383 185 394T197 421T210 462T219 524Q186 503 167 482T135 445T112 419T86 409Q65 409 55 422T44 451Q44 465 50 473T65 487Q72 491 83 491T112 495T156 505T217 530Q181 547 156 554T112 565T83 568T64 573Q55 578 49 586T43 609Q43 624 53 637T85 651Q101 651 111 641T134 615T166 578T218 536Q216 573 210 597T197 638T185 666T179 687Q179 701 189 715T222 730Q245 730 255 716T265 687Q265 677 260 666T248 639T235 598T226 536Q259 557 278 578T310 615T333 641T359 651Q380 651 390 638T401 609Q401 595 395 587T380 573Q373 569 362 569T332 565T289 555T228 530Q263 513 288 506T332 495T361 492T380 487Q389 482 395 474T401 451Q401 436 391 423T359 409Q343 409 333 419T310 445T278 482T226 524Q228 487 234 463T248 422T260 394T266 373Q266 359 256 345T223 330Z"  />
<glyph unicode="+" horiz-adv-x="600" d="M74 287H278V500H321V287H526V247H321V32H278V247H74V287Z"  />
<glyph unicode="&#x2c;" horiz-adv-x="278" d="M67 43Q67 66 84 83T128 100Q147 100 162 91T189 68T205 35T211 -3Q211 -32 199 -60T170 -113T133 -155T98 -183L89 -171Q118 -150 136 -131T165 -94T179 -62T183 -38Q183 -6 165 14Q148 -11 122 -11Q103 -11 85 3T67 43Z"  />
<glyph unicode="-" horiz-adv-x="370" d="M92 251H278V185H92V251Z"  />
<glyph unicode="." horiz-adv-x="278" d="M86 42Q86 64 101 79T139 95Q161 95 176 80T192 42Q192 20 177 5T139 -11Q117 -11 102 4T86 42Z"  />
<glyph unicode="/" horiz-adv-x="296" d="M273 718L293 712L23 -6L3 0L273 718Z"  />
<glyph unicode="0" horiz-adv-x="520" d="M260 -14Q188 -14 143 21T71 110T36 230T26 357Q26 417 35 482T71 602T142 692T260 727Q332 727 377 692T449 603T484 483T494 357Q494 296 485 231T449 111T378 21T260 -14ZM260 0Q302 0 328 21T368 85T388 196T394 357Q394 450 389 517T369 627T328 692T260 713Q218 713 192 692T152 628T132 517T126 357Q126 264 131 197T151 86T192 21T260 0Z"  />
<glyph unicode="1" horiz-adv-x="520" d="M124 14H235V648Q220 637 201 626L87 561L79 574Q145 611 199 645T301 727H321V14H432V0H124V14Z"  />
<glyph unicode="2" horiz-adv-x="520" d="M12 14Q51 47 83 75T144 130T199 185T252 245Q316 323 339 396T363 531Q363 621 333 667T236 713Q185 713 152 691T119 628Q119 614 125 600T132 570Q132 553 120 545T92 536Q71 536 56 547T41 587Q41 613 56 638T97 683T159 715T236 727Q294 727 335 710T404 666T444 603T457 531Q457 486 444 448T409 375T357 310T296 248Q251 203 208 162T112 74H341Q400 74 426 102T458 181H469V0H12V14Z"  />
<glyph unicode="3" horiz-adv-x="520" d="M42 145Q44 131 52 107T79 59T133 18T223 0Q254 0 281 9T327 42T358 107T369 214Q369 247 364 279T344 337T303 379T235 395Q200 395 171 385T117 356L108 372Q116 376 124 380T142 388T167 396T202 406Q246 418 275 436T320 478T343 531T350 594Q350 618 345 639T328 677T297 703T247 713Q214 713 193 705T161 685T145 662T141 643Q141 616 149 602T158 577Q158 559 146 552T116 545Q72 545 72 588Q72 601 80 624T110 671T166 710T255 727Q303 727 338 712T397 675T431 626T442 575Q442 533 418 503T361 453T295 422T245 408V406Q288 404 328 389T399 348T448 285T466 204Q466 164 449 125T400 55T324 5T225 -14Q175 -14 140 -1T82 35T46 85T28 142L42 145Z"  />
<glyph unicode="4" horiz-adv-x="520" d="M31 175Q68 255 101 322T162 439T209 523T237 568Q273 625 295 656T334 704T361 723T388 727Q414 727 421 720T429 703Q429 698 424 691T396 663Q373 641 354 621T317 582T284 543T250 503Q190 432 143 350T53 192H316V459H402V192H491V175H402V14H491V0H227V14H316V175H31H31Z"  />
<glyph unicode="5" horiz-adv-x="520" d="M43 102Q43 125 58 134T94 144Q115 144 127 134T140 104Q140 97 140 88T139 73Q139 28 164 14T231 0Q264 0 288 11T330 50T355 125T364 246Q364 288 358 322T338 380T298 417T234 430Q189 430 159 417T110 384T82 344T68 308L57 311L120 727H153Q168 712 183 697T217 670T259 651T312 644Q332 644 349 647T382 660T414 686T451 727L462 720Q435 683 413 655T370 609T324 581T269 572Q251 572 236 574T203 583T165 597T119 618L81 375L83 373Q106 406 146 425T240 444Q294 444 335 426T405 377T447 309T461 230Q461 200 450 159T411 79T336 13T218 -14Q165 -14 132 -1T78 31T51 69T43 102Z"  />
<glyph unicode="6" horiz-adv-x="520" d="M263 -14Q218 -14 177 3T103 57T52 155T32 301Q32 390 54 467T117 603T210 694T327 727Q365 727 390 716T431 687T453 649T460 610Q460 588 446 573T406 558Q360 558 360 592Q360 601 363 608T371 623T380 641T384 666Q384 692 367 702T321 713Q283 713 254 695T204 648T169 581T146 505T132 430T122 367L124 365Q144 401 182 422T268 444Q322 444 363 424T431 371T473 298T488 219Q488 174 470 132T422 58T350 6T263 -14ZM157 57Q168 32 192 16T263 0Q302 0 326 15T363 58Q377 87 382 124T388 222Q388 285 379 325T356 385Q343 405 321 417T266 430Q216 430 186 409T141 362Q132 345 129 325T126 280Q126 203 131 152T157 57Z"  />
<glyph unicode="7" horiz-adv-x="520" d="M110 19Q110 38 122 49T153 79Q196 121 225 154T275 218T312 279T345 344Q371 398 388 447T414 534T428 598T433 632H186Q135 632 110 604T79 527H68V712H457Q452 625 431 537T385 374T337 246T306 175Q274 106 252 68T214 11T184 -10T156 -14Q142 -14 126 -6T110 19Z"  />
<glyph unicode="8" horiz-adv-x="520" d="M38 174Q38 217 56 249T101 304T157 342T208 366Q179 379 154 394T110 430T81 479T70 547Q70 586 87 619T133 676T196 713T269 727Q303 727 336 717T394 687T435 640T451 578Q451 546 440 522T410 477T367 439T317 406Q346 392 375 375T428 333T467 278T482 208Q482 164 466 124T420 54T346 5T247 -14Q203 -14 165 0T98 39T54 98T38 174ZM303 413Q315 420 327 431T351 460T369 502T376 557Q376 587 372 615T357 665T325 700T269 713Q209 713 174 676T139 580Q139 548 148 525T176 485Q183 478 197 469T228 451T264 432T303 413ZM120 167Q120 134 127 104T151 51T194 14T259 0Q292 0 318 16T363 57T392 112T402 169Q402 212 387 240T346 289T288 326T222 359Q189 343 169 323T138 278T124 226T120 167Z"  />
<glyph unicode="9" horiz-adv-x="520" d="M52 104Q52 138 69 150T108 163Q132 163 142 152T152 128Q152 120 148 113T140 98T132 80T128 54Q128 31 149 16T214 0Q254 0 285 16T339 73T372 180T384 348H382Q377 338 367 325T339 299T298 277T242 268Q191 268 151 288T82 341T39 414T24 494Q24 542 44 584T97 658T170 708T252 727Q293 727 333 712T406 660T459 559T479 398Q479 306 465 240T429 127T378 54T320 11T265 -9T219 -14Q189 -14 159 -6T105 18T67 55T52 104ZM249 282Q260 282 282 286T328 306T368 350T385 430Q385 459 383 493T377 560T367 620T350 664Q341 680 320 696T253 713Q214 713 189 698T150 655T130 587T124 495Q124 455 127 417T143 349T181 301T249 282Z"  />
<glyph unicode=":" horiz-adv-x="278" d="M139 334Q117 334 102 349T86 387Q86 409 101 424T139 440Q161 440 176 425T192 387Q192 365 177 350T139 334ZM86 42Q86 64 101 79T139 95Q161 95 176 80T192 42Q192 20 177 5T139 -11Q117 -11 102 4T86 42Z"  />
<glyph unicode=";" horiz-adv-x="278" d="M139 334Q117 334 102 349T86 387Q86 409 101 424T139 440Q161 440 176 425T192 387Q192 365 177 350T139 334ZM67 43Q67 66 84 83T128 100Q147 100 162 91T189 68T205 35T211 -3Q211 -32 199 -60T170 -113T133 -155T98 -183L89 -171Q118 -150 136 -131T165 -94T179 -62T183 -38Q183 -6 165 14Q148 -11 122 -11Q103 -11 85 3T67 43Z"  />
<glyph unicode="&lt;" horiz-adv-x="593" d="M12 244L580 480V460L45 240L580 20V0L12 236V244Z"  />
<glyph unicode="=" horiz-adv-x="593" d="M56 335H536V317H56V335ZM56 163H536V145H56V163Z"  />
<glyph unicode="&gt;" horiz-adv-x="593" d="M12 20L548 240L12 460V480L580 244V236L12 0V20Z"  />
<glyph unicode="?" horiz-adv-x="407" d="M130 429H146Q157 406 172 393T213 380Q231 380 244 388T265 415T278 468T282 553Q282 602 278 634T265 684T244 709T218 716Q210 716 200 714T180 708T165 695T158 676Q158 667 161 660T169 645T178 629T182 611Q182 596 171 586T142 576Q124 576 110 585T96 617Q96 632 103 652T127 689T167 718T224 730Q281 730 316 686T351 553Q351 516 344 483T320 423T279 382T217 366Q190 366 173 378T146 400V178H130V429ZM84 42Q84 64 99 79T137 95Q159 95 174 80T190 42Q190 20 175 5T137 -11Q115 -11 100 4T84 42Z"  />
<glyph unicode="@" horiz-adv-x="833" d="M41 340Q41 420 74 491T164 615T297 699T459 730Q534 730 595 707T700 644T768 550T792 434Q792 382 775 333T729 244T664 182T590 158Q560 158 543 168T516 193T505 223T501 247Q481 202 449 180T378 158Q348 158 323 169T280 200T252 246T242 301Q242 349 262 392T312 468T381 520T455 540Q459 540 473 539T502 531T532 509T552 466L571 529H629L561 297Q555 275 553 261T551 239Q551 221 557 210T571 193T589 185T607 183Q634 183 663 204T716 260T756 340T772 433Q772 487 752 537T692 625T594 685T462 708Q377 708 307 676T187 592T108 474T80 338Q80 268 106 208T179 104T291 34T435 8Q498 8 568 29T705 102L718 84Q701 72 676 55T614 23T531 -3T426 -14Q350 -14 281 10T158 81T73 192T41 340ZM315 282Q315 267 318 250T330 217T352 192T389 182Q407 182 421 189T447 206T466 230T480 256Q483 263 492 285T510 336T527 395T534 449Q534 459 530 471T518 493T496 509T466 516Q436 516 409 493T361 436T328 360T315 282Z"  />
<glyph unicode="A" horiz-adv-x="741" d="M-1 14H87L357 730H381L653 14H742V0H434V14H545L440 292H208L103 14H214V0H-1V14ZM434 306L324 597L214 306H434Z"  />
<glyph unicode="B" horiz-adv-x="667" d="M30 14H141V698H30V712H205Q220 712 235 712T267 714Q283 714 298 714T327 715Q400 715 447 698T521 655T558 600T568 546Q568 513 554 485T515 436T458 402T391 385V383Q427 380 464 368T532 333T582 277T601 201Q601 156 584 119T533 54T447 12T326 -4Q312 -4 299 -4T270 -2Q255 -1 239 -1T205 0H30V14ZM333 389Q361 389 384 396T423 420T449 468T458 544Q458 596 445 627T410 675T362 696T309 701Q291 701 273 701T241 698V389H333ZM241 14Q253 13 267 12T309 10Q356 10 389 19T444 50T476 110T486 203Q486 283 452 329T351 375H241V14Z"  />
<glyph unicode="C" horiz-adv-x="722" d="M192 83Q143 132 110 199T77 354Q77 429 104 497T179 617T292 699T434 730Q465 730 489 724T532 711T567 697T598 691Q618 691 626 697T642 712H657V512H646Q637 550 623 587T584 652T521 698T425 716Q372 716 334 700T270 656T229 592T205 515T195 433T192 354Q192 249 209 180T256 71T330 15T425 -1Q492 -1 533 18T599 67T637 136T660 213H671V0H656Q649 8 640 14T612 21Q597 21 580 16T540 3T489 -9T427 -15Q364 -15 305 8T192 83Z"  />
<glyph unicode="D" horiz-adv-x="815" d="M30 14H141V698H30V712H216Q230 712 244 712T272 714Q286 714 300 714T328 715Q358 715 381 714T425 711T464 704T504 692Q565 672 609 639T682 561T724 465T738 356Q738 290 722 238T678 145T613 75T532 27Q508 16 487 10T443 1T393 -3T331 -4Q316 -4 299 -4T265 -2Q248 -1 232 -1T200 0H30V14ZM241 14Q258 12 280 11T330 10Q364 10 397 13T461 28T518 61T566 118Q598 172 610 228T623 352Q623 431 608 495T559 605T467 676T326 701Q301 701 281 700T241 698V14Z"  />
<glyph unicode="E" horiz-adv-x="704" d="M30 14H141V698H30V712H602V539H591Q578 578 563 607T527 657T477 688T407 698H241V389H306Q339 389 362 395T401 417T429 462T452 536H463V225H452Q445 254 438 281T417 329T381 362T322 375H241V14H430Q485 14 521 37T581 93T615 161T629 219H640V0H30V14Z"  />
<glyph unicode="F" horiz-adv-x="667" d="M30 14H141V698H30V712H602V539H591Q578 578 563 607T527 657T477 688T407 698H241V374H306Q339 374 362 380T401 402T429 447T452 521H463V210H452Q445 239 438 266T417 314T381 347T322 360H241V14H352V0H30V14Z"  />
<glyph unicode="G" horiz-adv-x="796" d="M193 83Q143 133 110 201T77 354Q77 411 90 456T121 536T159 593T192 629Q237 674 295 702T427 730Q465 730 489 724T532 711T564 697T597 691Q617 691 625 696T642 712H657V512H646Q642 538 631 573T595 640T530 694T426 716Q351 716 306 685T235 602T201 485T192 354Q192 309 196 264T209 179T236 105T280 47Q310 20 342 10T425 -1Q456 -1 487 9T542 41T582 94T598 171V255H469V269H774V255H694V28H682Q671 39 664 43T642 47Q624 47 606 38T563 16T505 -5T425 -15Q354 -15 299 8T193 83Z"  />
<glyph unicode="H" horiz-adv-x="815" d="M30 14H141V698H30V712H352V698H241V371H574V698H463V712H785V698H674V14H785V0H463V14H574V357H241V14H352V0H30V14Z"  />
<glyph unicode="I" horiz-adv-x="388" d="M33 14H144V698H33V712H355V698H244V14H355V0H33V14Z"  />
<glyph unicode="J" horiz-adv-x="463" d="M14 94Q14 124 31 142T81 161Q96 161 106 156T121 145T129 130T132 116Q132 105 129 97T123 81T117 64T114 41Q114 18 127 9T164 -1Q193 -1 211 20T229 96V698H118V712H440V698H329V183Q329 142 321 106T293 43T241 1T163 -15Q131 -15 104 -8T57 14T26 49T14 94Z"  />
<glyph unicode="K" horiz-adv-x="741" d="M30 14H141V698H30V712H344V698H241V380H251L553 698H449V712H656V698H573L319 429L682 14H748V0H459V14H549L249 366H241V14H344V0H30V14Z"  />
<glyph unicode="L" horiz-adv-x="685" d="M30 14H141V698H30V712H352V698H241V14H419Q507 14 557 69T630 219H641V0H30V14Z"  />
<glyph unicode="M" horiz-adv-x="870" d="M26 14H137V698H26V712H251L436 174H438L623 712H844V698H733V14H844V0H522V14H633V692H631L392 -1L154 685H152V14H263V0H26V14Z"  />
<glyph unicode="N" horiz-adv-x="722" d="M21 14H132V698H21V712H235L573 167H575V698H464V712H701V698H590V-14H570L149 657H147V14H258V0H21V14Z"  />
<glyph unicode="O" horiz-adv-x="832" d="M68 357Q68 437 99 505T180 623T292 701T416 730Q482 730 544 702T656 623T734 505T764 357Q764 287 737 220T663 101T553 17T416 -15Q341 -15 277 16T167 98T94 217T68 357ZM183 357Q183 267 195 200T235 88T307 21T416 -1Q480 -1 524 21T597 88T637 200T649 357Q649 426 640 490T606 605T535 686T416 716Q343 716 298 686T227 606T192 491T183 357Z"  />
<glyph unicode="P" horiz-adv-x="648" d="M30 14H141V698H30V712H218Q232 712 246 712T274 714Q288 714 301 714T329 715Q386 715 434 702T518 663T574 603T594 525Q594 480 571 445T510 386T422 349T316 336Q302 336 280 338T241 344V14H352V0H30V14ZM241 358Q261 354 283 352T322 350Q396 350 437 393T479 525Q479 576 469 610T438 664T382 693T299 701Q280 701 265 700T241 698V358Z"  />
<glyph unicode="Q" horiz-adv-x="832" d="M324 -1Q267 14 220 49T139 132T87 238T68 357Q68 435 98 503T178 621T290 701T416 730Q482 730 544 702T656 623T734 505T764 357Q764 287 737 220T663 101T553 17T416 -15Q397 -15 378 -12L377 -15Q392 -23 405 -30T435 -42T470 -52T517 -59Q546 -62 571 -80T617 -121Q630 -136 640 -146T663 -163T693 -173T736 -176V-190Q649 -189 598 -183T515 -164T463 -129T417 -73Q395 -44 370 -26T324 -1ZM183 357Q183 267 195 200T235 88T307 21T416 -1Q480 -1 524 21T597 88T637 200T649 357Q649 426 640 490T606 605T535 686T416 716Q343 716 298 686T227 606T192 491T183 357Z"  />
<glyph unicode="R" horiz-adv-x="722" d="M30 14H141V698H30V712H220Q232 712 244 712T268 714Q280 714 292 714T316 715Q375 715 420 709T504 671Q539 644 553 610T568 546Q568 531 563 508T539 460T485 415T392 387V385Q408 383 435 378T491 359T544 325T578 269Q584 249 586 224T590 171T593 119T599 77Q605 51 618 30T660 9Q673 9 687 14T712 30L721 19Q716 15 710 11T693 2T669 -4T633 -7Q593 -7 567 3T524 32T501 80T490 147L483 238Q479 288 463 316T426 357T381 372T341 375H241V14H352V0H30V14ZM241 389H333Q361 389 384 396T423 420T449 468T458 544Q458 596 445 627T410 675T362 696T309 701Q291 701 273 701T241 698V389Z"  />
<glyph unicode="S" horiz-adv-x="667" d="M75 215H86Q97 161 114 124T153 63T197 26T243 7T288 0T329 -1Q382 -1 416 15T470 55T498 108T506 161Q506 196 493 221T460 263T417 292T372 309L257 344Q176 369 135 410T93 520Q93 565 109 603T154 670T223 714T312 730Q347 730 370 724T411 711T441 697T469 691Q482 691 486 694T499 712H513V531H501Q495 567 481 600T443 659T388 700T312 716Q288 716 259 710T205 687T164 645T147 579Q147 547 160 525T193 487T239 461T291 442L412 404Q431 398 460 388T516 358T563 305T583 221Q583 174 566 132T515 57T435 5T329 -15Q308 -15 292 -15T262 -12T234 -8T203 0Q183 6 160 14T120 22Q105 22 100 16T90 0H75V215Z"  />
<glyph unicode="T" horiz-adv-x="684" d="M181 14H292V698H234Q214 698 189 695T139 675T90 625T49 529H38V712H646V529H635Q618 590 595 624T546 675T495 694T450 698H392V14H503V0H181V14Z"  />
<glyph unicode="U" horiz-adv-x="759" d="M21 712H343V698H232V215Q232 155 242 114T274 47T326 10T397 -1Q453 -1 496 15T570 74Q580 87 587 100T600 130T609 172T612 233V698H501V712H738V698H627V213Q627 171 618 137T581 65Q554 29 506 7T379 -15Q259 -15 196 44T132 225V698H21V712Z"  />
<glyph unicode="V" horiz-adv-x="722" d="M-12 712H297V698H186L408 118L627 698H518V712H734V698H644L375 -15H350L78 698H-12V712Z"  />
<glyph unicode="W" horiz-adv-x="1074" d="M-10 712H291V698H187L393 118H395L528 487L452 698H368V712H668V698H559L765 118H767L977 698H870V712H1084V698H994L735 -15H710L538 465H536L362 -15H335L80 698H-10V712Z"  />
<glyph unicode="X" horiz-adv-x="759" d="M28 14H124L324 348L111 698H28V712H326V698H230L390 435L550 698H454V712H662V698H566L399 421L648 14H731V0H431V14H527L332 334L141 14H237V0H28V14Z"  />
<glyph unicode="Y" horiz-adv-x="704" d="M203 14H314V301L89 698H-2V712H304V698H204L404 346L593 698H492V712H706V698H609L414 333V14H525V0H203V14Z"  />
<glyph unicode="Z" horiz-adv-x="648" d="M105 712H582L163 14H383Q433 14 460 28T508 63Q530 83 553 124T587 219H598V0H45L462 698H307Q226 698 181 656T116 538H105V712Z"  />
<glyph unicode="[" horiz-adv-x="278" d="M122 712H247V692H142V-260H247V-280H122V712Z"  />
<glyph unicode="\" horiz-adv-x="296" d="M293 0L273 -6L3 712L23 718L293 0Z"  />
<glyph unicode="]" horiz-adv-x="278" d="M156 -280H31V-260H136V692H31V712H156V-280Z"  />
<glyph unicode="^" horiz-adv-x="593" d="M292 712H301L473 305H452L296 674L141 305H119L292 712Z"  />
<glyph unicode="_" horiz-adv-x="500" d="M0 -75H500V-106H0V-75Z"  />
<glyph unicode="`" horiz-adv-x="278" d="M20 674Q15 678 9 684T2 701Q2 715 12 725T36 736Q50 736 58 728T87 696L205 552H191L20 674Z"  />
<glyph unicode="a" horiz-adv-x="481" d="M478 11Q465 1 447 -6T403 -14Q355 -14 334 6T304 64H302Q298 55 291 42T270 16T231 -5T170 -14Q128 -14 103 -5T64 19T46 50T41 83Q41 118 55 139T91 172T141 193T197 210Q230 221 251 229T285 248T301 277T306 325Q306 349 303 368T292 400T269 421T229 428Q196 428 175 417T153 379Q153 362 156 346T159 321Q159 307 149 298T120 288Q87 288 79 300T71 331Q71 353 81 373T110 408T159 433T227 442Q273 442 304 431T354 400T381 356T389 304V55Q389 26 398 16T424 6Q435 6 447 10T470 22L478 11ZM303 245H301Q299 232 268 219L193 189Q161 176 144 153T127 94Q127 79 130 63T141 35T163 14T201 6Q234 6 254 20T285 55T299 100T303 145V245Z"  />
<glyph unicode="b" horiz-adv-x="593" d="M28 14H105V707H28V721H191V349H193Q207 388 241 415T330 442Q373 442 411 424T478 375T524 303T541 217Q541 171 524 130T476 56T407 5T323 -14Q289 -14 266 -3T227 25T203 58T191 87H189V0H28V14ZM441 229Q441 275 436 311T419 374T384 414T326 428Q289 428 265 415T226 382Q215 368 209 352T198 314T193 264T191 196Q191 163 196 128T215 65T254 18T322 0Q363 0 387 16T423 62T438 134T441 229Z"  />
<glyph unicode="c" horiz-adv-x="481" d="M446 110Q443 99 435 79T408 38T358 2T276 -14Q238 -14 197 -2T122 36T67 106T45 212Q45 261 63 303T113 376T187 424T278 442Q305 442 333 436T385 416T424 381T440 328Q440 307 427 294T388 280Q371 280 356 287T340 313Q340 327 347 347T354 380Q354 403 331 415T278 428Q256 428 233 423T190 395T158 329T145 209Q145 166 150 128T170 62T210 17T277 0Q321 0 349 13T394 44T419 82T431 113L446 110Z"  />
<glyph unicode="d" horiz-adv-x="593" d="M325 721H488V14H565V0H404V87H402Q398 75 390 58T367 25T328 -2T270 -14Q226 -14 187 5T117 56T70 129T52 217Q52 262 69 303T115 374T182 423T263 442Q318 442 352 415T400 349H402V707H325V721ZM152 229Q152 177 155 135T170 62T206 16T271 0Q313 0 338 18T378 64T397 128T402 196Q402 235 401 263T395 314T384 352T367 382Q352 402 328 415T267 428Q232 428 210 414T175 374T157 312T152 229Z"  />
<glyph unicode="e" horiz-adv-x="500" d="M146 248Q146 238 146 228T145 201Q145 168 149 132T166 67T206 19T277 0Q321 0 349 13T394 44T419 82T431 113L446 110Q443 99 435 79T408 38T358 2T276 -14Q226 -14 184 2T110 48T62 119T45 212Q45 256 62 297T110 371T182 422T270 442Q298 442 330 432T389 400T435 340T454 248H146ZM352 262Q354 276 354 288T354 313Q354 347 348 369T330 404T302 422T266 428Q232 428 210 415T175 378T156 325T147 262H352Z"  />
<glyph unicode="f" horiz-adv-x="303" d="M-2 14H75V415H-2V429H75V482Q75 517 78 542T88 587T102 621T120 648Q146 681 185 705T268 730Q301 730 324 721T363 697T385 667T392 637Q392 618 381 602T344 586Q331 586 315 592T298 618Q298 635 307 648T317 679Q317 701 299 708T262 716Q221 716 191 680T161 568V429H285V415H161V14H252V0H-2V14Z"  />
<glyph unicode="g" horiz-adv-x="519" d="M44 65Q44 92 54 111T78 145T109 169T139 184Q81 224 81 292Q81 327 98 355T141 402T198 432T259 442Q304 442 336 424T384 391Q395 410 416 426T470 442Q490 442 507 434T524 397Q524 379 513 370T489 361Q475 361 469 369T459 386T449 403T434 411Q424 411 414 403T395 383Q404 373 418 349T432 289Q432 259 417 234T378 190T321 161T254 150Q219 150 193 159T153 176Q142 171 130 165T107 150T89 129T82 100Q82 85 88 75T103 60T125 53T150 51H308Q378 51 419 18T461 -88Q461 -132 442 -168T392 -230T319 -271T235 -286Q196 -286 164 -277T107 -253T70 -215T56 -166Q56 -140 66 -119T93 -81T131 -52T173 -32V-30Q107 -30 76 -9T44 65ZM356 295Q356 318 353 341T341 384T312 416T259 428Q208 428 182 397T156 295Q156 265 160 241T177 200T209 173T260 164Q312 164 334 196T356 295ZM194 -30Q181 -38 168 -46T144 -68T127 -98T120 -142Q120 -178 132 -201T164 -239T208 -260T255 -266Q291 -266 320 -255T371 -226T404 -183T416 -133Q416 -77 386 -54T302 -30H194Z"  />
<glyph unicode="h" horiz-adv-x="611" d="M25 14H102V707H25V721H188V328H190Q195 341 207 360T239 397T289 427T360 440Q426 440 467 408T509 306V14H586V0H346V14H423V337Q423 376 405 401T347 426Q315 426 286 412T235 373T201 314T188 240V14H265V0H25V14Z"  />
<glyph unicode="i" horiz-adv-x="296" d="M93 662Q93 684 108 699T146 715Q168 715 183 700T199 662Q199 640 184 625T146 609Q124 609 109 624T93 662ZM28 14H105V415H28V429H191V14H268V0H28V14Z"  />
<glyph unicode="j" horiz-adv-x="296" d="M93 662Q93 684 108 699T146 715Q168 715 183 700T199 662Q199 640 184 625T146 609Q124 609 109 624T93 662ZM28 429H191V-20Q191 -68 189 -99T182 -151T173 -182T163 -204Q151 -228 136 -244T104 -269T70 -282T39 -286Q23 -286 4 -281T-31 -264T-59 -236T-71 -195Q-71 -171 -58 -159T-26 -147Q-8 -147 1 -156T10 -182Q10 -194 7 -205T3 -233Q3 -253 16 -262T45 -272Q74 -272 89 -249T105 -173V415H28V429Z"  />
<glyph unicode="k" horiz-adv-x="537" d="M28 14H105V707H28V721H191V243H202L401 415H330V429H485V415H425L269 281L490 14H533V0H308V14H379L202 229H191V14H246V0H28V14Z"  />
<glyph unicode="l" horiz-adv-x="296" d="M28 14H105V707H28V721H191V14H268V0H28V14Z"  />
<glyph unicode="m" horiz-adv-x="870" d="M20 14H97V415H20V429H181V324H183Q204 384 243 412T339 440Q389 440 427 418T478 345H480Q487 363 499 380T529 410T571 432T627 440Q773 440 773 291V14H850V0H610V14H687V354Q687 388 669 407T618 426Q593 426 568 417T523 388T491 339T478 269V14H555V0H315V14H392V340Q392 384 374 405T326 426Q305 426 280 416T234 383T198 324T183 236V14H260V0H20V14Z"  />
<glyph unicode="n" horiz-adv-x="611" d="M25 14H102V415H25V429H186V322H188Q194 335 205 355T237 394T287 426T360 440Q426 440 467 408T509 306V14H586V0H346V14H423V337Q423 376 405 401T347 426Q315 426 286 412T235 373T201 314T188 240V14H265V0H25V14Z"  />
<glyph unicode="o" horiz-adv-x="556" d="M45 214Q45 263 66 305T121 377T196 425T278 442Q318 442 359 425T434 378T489 305T511 214Q511 167 491 126T439 53T364 4T278 -14Q234 -14 192 4T118 53T65 125T45 214ZM145 214Q145 143 156 101T185 37T227 7T278 0Q305 0 329 7T371 36T400 101T411 214Q411 274 403 314T379 380T337 417T278 428Q244 428 219 417T178 381T153 315T145 214Z"  />
<glyph unicode="p" horiz-adv-x="593" d="M28 -266H105V415H28V429H189V345H191Q206 387 240 414T330 442Q373 442 411 424T478 375T524 303T541 217Q541 171 524 130T476 56T407 5T323 -14Q289 -14 266 -3T227 24T204 56T193 83H191V-266H268V-280H28V-266ZM441 229Q441 275 436 311T419 374T384 414T326 428Q289 428 265 415T226 382Q215 368 209 352T198 314T193 264T191 196Q191 163 196 128T215 65T254 18T322 0Q363 0 387 16T423 62T438 134T441 229Z"  />
<glyph unicode="q" horiz-adv-x="593" d="M325 -266H402V83H400Q397 73 389 57T366 25T328 -2T270 -14Q226 -14 187 5T117 56T70 129T52 217Q52 262 69 303T115 374T182 423T263 442Q318 442 352 415T402 345H404V429H565V415H488V-266H565V-280H325V-266ZM152 229Q152 177 155 135T170 62T206 16T271 0Q313 0 338 18T378 64T397 128T402 196Q402 235 401 263T395 314T384 352T367 382Q352 402 328 415T267 428Q232 428 210 414T175 374T157 312T152 229Z"  />
<glyph unicode="r" horiz-adv-x="407" d="M27 14H104V415H27V429H188V328H190Q194 343 203 362T228 398T266 428T321 440Q344 440 361 433T389 414T405 387T410 357Q410 324 395 313T360 302Q316 302 316 330Q316 339 318 344T322 355T327 368T329 388Q329 420 294 420Q278 420 260 408T227 373T201 318T190 243V14H277V0H27V14Z"  />
<glyph unicode="s" horiz-adv-x="426" d="M56 140H67Q74 116 85 92T114 47T160 13T225 0Q257 0 282 19T307 83Q307 121 288 136T242 161L164 188Q149 193 132 200T99 221T75 256T65 310Q65 338 76 362T106 404T151 432T209 442Q231 442 244 439T268 432T286 425T305 421Q316 421 321 429H332V315H321Q314 337 305 357T284 394T253 419T209 428Q161 428 135 407T108 349Q108 317 130 301T197 270L270 246Q317 230 347 202T377 128Q377 101 367 75T336 30T286 -2T218 -14Q196 -14 178 -10T144 0T115 9T91 14Q80 14 75 10T67 0H56V140Z"  />
<glyph unicode="t" horiz-adv-x="333" d="M17 429H94V558Q102 555 109 553T133 551Q148 551 159 554T180 566V429H322V415H180V88Q180 60 185 43T200 16T219 3T240 0Q275 0 296 25T324 84L338 79Q335 66 329 50T311 20T278 -4T228 -14Q153 -14 124 15T94 97V415H17V429Z"  />
<glyph unicode="u" horiz-adv-x="593" d="M569 0H408V101H406Q397 81 385 61T354 24T311 -3T253 -14Q213 -14 188 -5T149 14Q142 19 134 26T118 47T106 80T101 131V415H24V429H187V122Q187 96 190 74T204 36T230 10T272 0Q294 0 317 13T360 50T393 107T406 183V415H330V429H492V14H569V0Z"  />
<glyph unicode="v" horiz-adv-x="481" d="M-18 429H224V415H142L271 101L405 415H323V429H475V415H421L232 -33L50 415H-18V429Z"  />
<glyph unicode="w" horiz-adv-x="741" d="M-4 429H237V415H154L266 103L370 350L345 415H303V429H502V415H435L551 105L676 415H582V429H745V415H692L513 -33L377 330L225 -33L64 415H-4V429Z"  />
<glyph unicode="x" horiz-adv-x="481" d="M15 14H68L205 198L56 415H0V429H235V415H156L259 265L367 415H293V429H440V415H387L268 251L431 14H486V0H252V14H331L214 184L88 14H162V0H15V14Z"  />
<glyph unicode="y" horiz-adv-x="481" d="M-5 429H240V415H156L285 101L420 415H337V429H490V415H436L271 29Q252 -14 235 -57T201 -145Q187 -181 173 -208T144 -252T110 -277T68 -286Q39 -286 22 -277T-6 -256T-19 -231T-22 -209Q-22 -184 -8 -172T26 -159Q33 -159 41 -160T56 -166T68 -177T73 -194Q73 -208 65 -220T56 -248Q56 -261 63 -265T82 -269Q98 -269 111 -262T138 -237T164 -193T193 -125L237 -13L64 415H-5V429Z"  />
<glyph unicode="z" horiz-adv-x="426" d="M72 429H389L140 14H281Q310 14 328 25T358 54T376 92T389 130H397L384 0H36L285 415H199Q174 415 156 414T122 403T94 374T66 317H58L72 429Z"  />
<glyph unicode="{" horiz-adv-x="333" d="M337 694Q282 691 253 673T209 629T193 571T190 511V433Q190 391 189 362T185 313T174 279T156 254Q144 242 131 235T104 224T80 219T62 216Q68 215 79 214T104 208T130 197T156 178Q167 167 174 154T184 120T189 70T190 -1V-79Q190 -108 192 -139T209 -196T252 -241T337 -262V-280Q328 -279 315 -278T288 -274T258 -264T229 -247Q207 -230 195 -210T178 -166T171 -113T170 -50V57Q170 93 165 118T146 162T105 192T34 213V219Q78 228 104 240T145 270T165 313T170 375V482Q170 516 171 545T177 598T195 642T229 679Q242 690 257 696T287 705T315 710T337 712V694Z"  />
<glyph unicode="|" horiz-adv-x="222" d="M101 750H121V-250H101V750Z"  />
<glyph unicode="}" horiz-adv-x="333" d="M-4 -262Q51 -259 80 -241T124 -197T140 -139T143 -79V-1Q143 41 144 70T148 119T159 153T177 178Q189 190 202 197T229 208T253 213T271 216Q265 217 254 218T229 224T203 235T177 254Q166 265 159 278T149 312T144 362T143 433V511Q143 540 141 571T124 628T81 673T-4 694V712Q5 711 18 710T45 706T75 696T104 679Q126 662 138 642T155 598T162 545T163 482V375Q163 339 168 314T187 270T228 240T299 219V213Q255 204 229 192T188 162T168 119T163 57V-50Q163 -84 162 -113T156 -166T138 -210T104 -247Q90 -258 75 -264T46 -273T18 -278T-4 -280V-262Z"  />
<glyph unicode="~" horiz-adv-x="593" d="M577 320Q572 304 564 281T540 237T501 200T442 185Q431 185 414 188T356 207L234 254Q217 261 194 268T147 276Q118 276 99 264T67 233T47 196T34 162H16Q21 179 29 202T53 246T92 281T153 296Q165 296 178 294T203 288T225 281T240 275L364 228Q397 215 414 210T446 205Q490 205 516 238T559 320H577Z"  />
<glyph unicode="&#xA0;" horiz-adv-x="278" />
<glyph unicode="&#xA1;" horiz-adv-x="314" d="M210 389Q210 367 195 352T157 336Q135 336 120 351T104 389Q104 411 119 426T157 442Q179 442 194 427T210 389ZM198 -160Q199 -169 200 -183T202 -211T204 -236T205 -252Q205 -272 192 -285T157 -299Q135 -299 122 -286T109 -252Q109 -248 110 -237T112 -211T114 -183T116 -160L147 253H167L198 -160Z"  />
<glyph unicode="&#xA2;" horiz-adv-x="520" d="M170 15Q123 39 91 87T59 212Q59 261 77 303T127 376T201 424T292 442Q303 442 315 441T339 437L371 517L384 513L352 434Q372 429 390 421T423 399T445 368T454 328Q454 307 441 294T402 280Q385 280 370 287T354 313Q354 327 361 347T368 380Q368 401 345 416L196 44Q211 23 234 12T291 0Q335 0 363 13T408 44T433 82T445 113L460 110Q457 99 449 79T422 38T372 2T290 -14Q264 -14 236 -9T182 10L146 -82L133 -78L170 15ZM332 421Q323 424 312 426T289 428Q266 428 243 423T201 395T171 329T159 209Q159 164 165 126T188 59L332 421Z"  />
<glyph unicode="&#xA3;" horiz-adv-x="630" d="M73 390H171Q160 419 152 447T143 508Q143 547 158 586T201 656T269 707T360 727Q391 727 418 719T467 695T500 660T512 617Q512 557 456 557Q439 557 429 566T418 591Q418 603 421 612T428 629T435 645T439 664Q439 677 432 686T413 702T388 710T362 713Q335 713 313 704T276 674T252 616T243 526Q243 517 243 509T244 488T246 451T250 390H424V376H251Q254 349 257 317T263 253T268 198T270 161Q270 141 269 126T262 94Q304 87 346 82T424 76Q453 76 473 79T507 89T530 108T545 140L557 135Q547 107 535 81T506 33T465 -1T410 -14Q389 -14 372 -10T341 0T318 12T302 23L249 60Q227 28 206 14T150 0Q120 0 101 15T82 55Q82 61 85 70T96 89T120 104T159 111Q169 111 181 110T206 106T229 101T249 96Q251 109 252 121T253 142Q253 168 245 197T224 257T199 318T177 376H73V390ZM96 55Q96 42 101 34T114 20T133 13T152 11Q172 11 194 21T238 67Q199 97 151 97Q133 97 115 87T96 55Z"  />
<glyph unicode="&#xA4;" horiz-adv-x="556" d="M127 220Q94 258 85 295T75 357Q75 393 88 429T128 494L64 558L77 571L141 507Q170 533 204 546T278 560Q316 560 350 546T414 507L479 571L492 558L428 494Q447 473 457 452T473 412T479 380T481 357Q481 349 480 334T473 301T458 262T428 220L492 156L479 143L414 207Q384 178 347 166T277 154Q250 154 228 160T189 174T160 192T141 207L77 143L64 156L127 220ZM95 357Q95 319 109 286T148 228T206 189T278 174Q316 174 349 188T407 227T446 285T461 357Q461 395 447 428T408 486T350 525T278 540Q240 540 207 526T149 487T110 429T95 357Z"  />
<glyph unicode="&#xA5;" horiz-adv-x="556" d="M152 14H240V302H56V316H238L187 426H56V440H181L64 698H-5V712H252V698H164L325 332L468 698H391V712H561V698H486L386 440H513V426H380L338 316H513V302H336V14H424V0H152V14Z"  />
<glyph unicode="&#xA6;" horiz-adv-x="222" d="M101 675H121V325H101V675ZM101 175H121V-175H101V175Z"  />
<glyph unicode="&#xA7;" horiz-adv-x="520" d="M144 101Q96 130 76 164T56 251Q56 291 69 320T99 371T132 404T157 421Q148 430 137 442T116 470T100 506T93 552Q93 585 106 616T145 673T206 714T287 730Q359 730 398 697T438 619Q438 593 428 579T390 564Q368 564 360 573T352 598Q352 621 359 634T367 666Q367 688 347 702T287 716Q254 716 229 706T188 678T163 639T155 591Q155 546 180 517T242 465L377 383Q403 367 420 352T446 320T460 284T464 241Q464 208 453 181T427 132T393 94T361 66Q375 55 389 41T416 9T436 -31T444 -81Q444 -112 431 -147T393 -211T331 -260T245 -280Q198 -280 165 -268T109 -238T77 -197T67 -155Q67 -135 77 -118T114 -101Q131 -101 145 -108T160 -137Q160 -147 157 -155T150 -170T143 -185T140 -202Q140 -208 145 -218T162 -239T194 -258T247 -266Q277 -266 301 -256T343 -226T371 -180T381 -122Q381 -85 363 -53T301 6L144 101ZM351 75Q386 101 404 128T422 191Q422 228 407 250T360 293L194 394Q187 398 181 402T169 412Q139 395 115 368T90 303Q90 268 115 235T176 181L351 75Z"  />
<glyph unicode="&#xA8;" horiz-adv-x="278" d="M186 662Q186 681 199 694T232 708Q251 708 264 695T278 662Q278 643 265 630T232 616Q213 616 200 629T186 662ZM0 662Q0 681 13 694T46 708Q65 708 78 695T92 662Q92 643 79 630T46 616Q27 616 14 629T0 662Z"  />
<glyph unicode="&#xA9;" horiz-adv-x="833" d="M45 358Q45 435 74 502T154 620T272 700T417 730Q494 730 561 701T679 621T759 503T789 358Q789 281 760 214T680 96T562 16T417 -14Q340 -14 273 15T155 95T75 213T45 358ZM65 358Q65 285 92 221T168 109T280 34T417 6Q490 6 554 33T666 109T741 221T769 358Q769 431 742 495T666 607T554 682T417 710Q344 710 280 683T168 607T93 495T65 358ZM570 148H561Q557 153 552 157T535 161Q526 161 516 158T492 150T462 143T424 139Q386 139 351 153T283 198Q254 227 234 267T214 361Q214 406 230 447T274 518T342 567T428 586Q447 586 461 583T486 575T507 567T526 563Q538 563 543 566T553 575H562V455H555Q550 478 542 500T518 539T480 567T422 578Q374 578 347 557T305 503T287 433T283 361Q283 298 293 257T321 191T365 158T422 148Q462 148 487 159T527 189T549 230T563 276H570V148Z"  />
<glyph unicode="&#xAA;" horiz-adv-x="313" d="M313 472Q305 466 293 462T264 457Q232 457 219 469T200 503H198Q197 498 193 491T180 476T154 463T113 457Q86 457 70 462T44 476T32 495T29 515Q29 546 47 558T96 581L166 604Q200 616 200 660Q200 686 192 701T151 716Q129 716 115 710T101 689Q101 681 103 674T105 658Q105 650 99 644T80 638Q58 638 53 645T48 664Q48 690 73 710T150 730Q180 730 200 723T232 705T250 678T255 647V500Q255 483 261 477T278 471Q293 471 308 480L313 472ZM198 611H196Q194 608 190 604T175 595L127 578Q107 570 97 557T86 521Q86 503 94 489T133 474Q154 474 167 481T187 501T196 526T198 552V611Z"  />
<glyph unicode="&#xAB;" horiz-adv-x="407" d="M347 348Q305 337 280 308T255 218Q255 157 280 128T347 88L344 77Q314 81 287 91T239 118T206 160T193 218Q193 251 205 276T238 318T286 345T344 359L347 348ZM214 348Q172 337 147 308T122 218Q122 157 147 128T214 88L211 77Q181 81 154 91T106 118T73 160T60 218Q60 251 72 276T105 318T153 345T211 359L214 348Z"  />
<glyph unicode="&#xAC;" horiz-adv-x="593" d="M516 317H56V335H536V145H516V317Z"  />
<glyph unicode="&#xAD;" horiz-adv-x="370" d="M92 251H278V185H92V251Z"  />
<glyph unicode="&#xAE;" horiz-adv-x="490" d="M59 544Q59 582 73 616T113 675T172 715T245 730Q283 730 317 716T376 676T416 616T431 544Q431 505 417 472T377 413T317 373T245 358Q206 358 173 372T114 412T74 471T59 544ZM69 544Q69 508 83 476T121 420T177 382T245 368Q281 368 313 382T369 420T407 476T421 544Q421 580 407 612T369 668T313 706T245 720Q209 720 177 706T121 668T83 612T69 544ZM193 640H162V644H214Q221 644 227 644T241 645Q257 645 269 643T292 633Q302 625 306 616T310 598Q310 594 309 588T302 575T288 563T262 555V554Q266 553 273 552T289 547T303 537T313 522Q316 511 316 495T319 469Q321 462 324 456T335 450Q344 450 350 456L352 453Q349 451 344 449T328 446Q306 446 299 457T289 488L287 514Q286 527 282 534T271 546T259 550T248 551H220V452H251V448H162V452H193V640ZM220 555H245Q260 555 269 563T279 598Q279 626 266 633T238 641Q233 641 228 641T220 640V555Z"  />
<glyph unicode="&#xAF;" horiz-adv-x="278" d="M-1 633H279V602H-1V633Z"  />
<glyph unicode="&#xB0;" horiz-adv-x="400" d="M65 592Q65 620 75 644T104 687T147 716T200 727Q228 727 252 717T295 688T324 645T335 592Q335 564 325 540T296 497T253 468T200 457Q172 457 148 467T105 496T76 539T65 592ZM85 592Q85 568 94 547T118 511T155 486T200 477Q224 477 245 486T281 510T306 547T315 592Q315 616 306 637T282 673T245 698T200 707Q176 707 155 698T119 674T94 637T85 592Z"  />
<glyph unicode="&#xB1;" horiz-adv-x="593" d="M286 263H56V281H286V480H306V281H536V263H306V66H286V263ZM56 18H536V0H56V18Z"  />
<glyph unicode="&#xB2;" horiz-adv-x="333" d="M10 302Q52 336 91 370T160 441T208 520T226 611Q226 631 222 649T209 682T185 704T149 713Q118 713 100 701T82 668Q82 660 86 651T90 630Q90 608 65 608Q49 608 39 615T28 642Q28 659 38 674T66 701T106 720T153 727Q184 727 209 717T253 689T282 649T292 602Q292 581 283 558T258 514T226 473T192 439L86 344H233Q251 344 261 351T276 367T284 387T287 403H299V291H10V302Z"  />
<glyph unicode="&#xB3;" horiz-adv-x="333" d="M35 382Q45 334 74 315T139 295Q167 295 185 304T213 329T227 367T231 417Q231 474 213 499T152 525Q127 525 108 516T78 501L69 514Q78 518 90 524T121 535Q139 539 156 545T188 562T211 593T220 643Q220 680 205 696T158 713Q123 713 110 698T96 672Q96 664 102 654T108 635Q108 623 100 619T78 614Q49 614 49 643Q49 658 56 673T79 700T115 719T164 727Q194 727 216 718T253 696T275 666T282 634Q282 612 272 596T245 569T210 549T175 536V534Q238 523 268 489T299 418Q299 391 287 367T254 323T205 293T144 281Q105 281 82 294T45 324T27 357T20 380L35 382Z"  />
<glyph unicode="&#xB4;" horiz-adv-x="278" d="M215 696Q235 720 243 728T266 736Q280 736 290 726T300 701Q300 690 294 684T282 674L111 552H97L215 696Z"  />
<glyph unicode="&#xB5;" horiz-adv-x="593" d="M101 415H24V429H187V122Q187 96 190 74T204 36T230 10T272 0Q294 0 317 13T360 50T393 107T406 183V415H329V429H492V14H569V0H408V101H406Q397 78 383 58T350 21T310 -4T262 -14Q235 -14 218 -1T189 30H187V-280H101V415Z"  />
<glyph unicode="&#xB6;" horiz-adv-x="593" d="M491 148Q491 54 468 -13T387 -124Q360 -144 332 -156T279 -174T233 -182T199 -184Q158 -184 135 -173T99 -147T84 -118T81 -96Q81 -71 96 -58T134 -45Q154 -45 165 -53T176 -75Q176 -78 174 -86T170 -102T166 -117T164 -127Q164 -135 170 -145T196 -156Q202 -156 212 -153T234 -142T257 -119T278 -81Q285 -62 289 -36T295 21T298 84T299 148V290Q267 291 230 294T150 314Q124 324 102 342T62 385T36 440T26 504Q26 564 56 612T138 683Q160 693 181 699T224 708T267 711T314 712H569V698H491V148ZM405 698H314V148Q314 76 311 21T297 -74T262 -136T200 -170Q275 -167 316 -135T377 -57T401 44T405 148V698Z"  />
<glyph unicode="&#xB7;" horiz-adv-x="278" d="M86 264Q86 286 101 301T139 317Q161 317 176 302T192 264Q192 242 177 227T139 211Q117 211 102 226T86 264Z"  />
<glyph unicode="&#xB8;" horiz-adv-x="278" d="M186 0H206L137 -72L139 -74Q147 -68 159 -64T188 -60Q196 -60 209 -63T236 -76T260 -103T270 -147Q270 -192 239 -217T165 -242Q142 -242 122 -233T88 -212L96 -200Q107 -208 123 -216T162 -225Q178 -225 188 -218T203 -199T211 -174T213 -146Q213 -120 204 -100T166 -80Q151 -80 142 -84T126 -93L112 -78L186 0Z"  />
<glyph unicode="&#xB9;" horiz-adv-x="333" d="M79 305H149V673Q135 664 126 658T106 647T85 637T58 623L51 634Q92 654 126 675T191 727H207V305H277V291H79V305Z"  />
<glyph unicode="&#xBA;" horiz-adv-x="361" d="M34 595Q34 625 48 650T83 693T130 720T180 730Q204 730 230 721T277 693T313 650T327 595Q327 564 313 539T278 495T230 467T180 457Q156 457 130 467T83 495T48 538T34 595ZM101 596Q101 530 119 501T180 471Q223 471 241 500T260 596Q260 653 244 684T180 716Q134 716 118 685T101 596Z"  />
<glyph unicode="&#xBB;" horiz-adv-x="407" d="M193 88Q235 99 260 128T285 218Q285 279 260 308T193 348L196 359Q226 355 253 345T301 318T334 276T347 218Q347 185 335 160T302 118T254 91T196 77L193 88ZM60 88Q102 99 127 128T152 218Q152 279 127 308T60 348L63 359Q93 355 120 345T168 318T201 276T214 218Q214 185 202 160T169 118T121 91T63 77L60 88Z"  />
<glyph unicode="&#xBC;" horiz-adv-x="834" d="M592 727L610 718L230 -14L212 -5L592 727ZM120 305H190V673Q176 664 167 658T147 647T126 637T99 623L92 634Q133 654 167 675T232 727H248V305H318V291H120V305ZM576 14H630V103H451Q469 137 488 174T526 248T565 316T602 373Q618 396 628 408T646 427T661 434T678 436Q705 436 705 420Q705 415 699 409T681 391T650 361T605 314Q585 293 567 268T531 217T500 166T474 119H630V278H688V119H742V103H688V14H742V0H576V14Z"  />
<glyph unicode="&#xBD;" horiz-adv-x="834" d="M589 727L607 718L227 -14L209 -5L589 727ZM117 305H187V673Q173 664 164 658T144 647T123 637T96 623L89 634Q130 654 164 675T229 727H245V305H315V291H117V305ZM456 11Q498 45 537 79T606 150T654 229T672 320Q672 340 668 358T655 391T631 413T595 422Q564 422 546 410T528 377Q528 369 532 360T536 339Q536 317 511 317Q495 317 485 324T474 351Q474 368 484 383T512 410T552 429T599 436Q630 436 655 426T699 398T728 358T738 311Q738 290 729 267T704 223T672 182T638 148L532 53H679Q697 53 707 60T722 76T730 96T733 112H745V0H456V11Z"  />
<glyph unicode="&#xBE;" horiz-adv-x="834" d="M607 727L625 718L245 -14L227 -5L607 727ZM91 382Q101 334 130 315T195 295Q223 295 241 304T269 329T283 367T287 417Q287 474 269 499T208 525Q183 525 164 516T134 501L125 514Q134 518 146 524T177 535Q195 539 212 545T244 562T267 593T276 643Q276 680 261 696T214 713Q179 713 166 698T152 672Q152 664 158 654T164 635Q164 623 156 619T134 614Q105 614 105 643Q105 658 112 673T135 700T171 719T220 727Q250 727 272 718T309 696T331 666T338 634Q338 612 328 596T301 569T266 549T231 536V534Q294 523 324 489T355 418Q355 391 343 367T310 323T261 293T200 281Q161 281 138 294T101 324T83 357T76 380L91 382ZM591 14H645V103H466Q484 137 503 174T541 248T580 316T617 373Q633 396 643 408T661 427T676 434T693 436Q720 436 720 420Q720 415 714 409T696 391T665 361T620 314Q600 293 582 268T546 217T515 166T489 119H645V278H703V119H757V103H703V14H757V0H591V14Z"  />
<glyph unicode="&#xBF;" horiz-adv-x="407" d="M323 389Q323 367 308 352T270 336Q248 336 233 351T217 389Q217 411 232 426T270 442Q292 442 307 427T323 389ZM277 2H261Q250 25 235 38T194 51Q176 51 163 43T142 16T129 -37T125 -122Q125 -172 129 -203T142 -253T163 -278T189 -285Q197 -285 207 -283T227 -277T242 -264T249 -245Q249 -236 245 -229T237 -214T229 -199T225 -180Q225 -165 236 -155T265 -145Q283 -145 297 -154T311 -186Q311 -201 304 -221T280 -258T240 -287T183 -299Q126 -299 91 -255T56 -122Q56 -85 63 -52T87 8T128 49T190 65Q217 65 234 53T261 31V253H277V2Z"  />
<glyph unicode="&#xC0;" horiz-adv-x="741" d="M-1 14H87L357 730H381L653 14H742V0H434V14H545L440 292H208L103 14H214V0H-1V14ZM434 306L324 597L214 306H434ZM252 879Q247 883 241 889T234 906Q234 920 244 930T268 941Q282 941 290 933T319 901L437 757H423L252 879Z"  />
<glyph unicode="&#xC1;" horiz-adv-x="741" d="M-1 14H87L357 730H381L653 14H742V0H434V14H545L440 292H208L103 14H214V0H-1V14ZM434 306L324 597L214 306H434ZM447 901Q467 925 475 933T498 941Q512 941 522 931T532 906Q532 895 526 889T514 879L343 757H329L447 901Z"  />
<glyph unicode="&#xC2;" horiz-adv-x="741" d="M-1 14H87L357 730H381L653 14H742V0H434V14H545L440 292H208L103 14H214V0H-1V14ZM434 306L324 597L214 306H434ZM343 924H399L512 757H498L371 862L244 757H230L343 924Z"  />
<glyph unicode="&#xC3;" horiz-adv-x="741" d="M-1 14H87L357 730H381L653 14H742V0H434V14H545L440 292H208L103 14H214V0H-1V14ZM434 306L324 597L214 306H434ZM527 883Q526 878 521 862T504 827T473 795T426 781Q405 781 388 788T354 805Q338 813 323 820T291 828Q274 828 263 823T245 809T234 793T229 781H215Q219 804 229 822T252 853T281 873T311 880Q328 880 345 873T380 857Q397 848 414 841T448 833Q464 833 476 839T495 855T507 872T513 883H527Z"  />
<glyph unicode="&#xC4;" horiz-adv-x="741" d="M-1 14H87L357 730H381L653 14H742V0H434V14H545L440 292H208L103 14H214V0H-1V14ZM434 306L324 597L214 306H434ZM418 848Q418 867 431 880T464 894Q483 894 496 881T510 848Q510 829 497 816T464 802Q445 802 432 815T418 848ZM232 848Q232 867 245 880T278 894Q297 894 310 881T324 848Q324 829 311 816T278 802Q259 802 246 815T232 848Z"  />
<glyph unicode="&#xC5;" horiz-adv-x="741" d="M-1 14H87L357 730H381L653 14H742V0H434V14H545L440 292H208L103 14H214V0H-1V14ZM434 306L324 597L214 306H434ZM371 934Q381 934 397 929T427 914T452 886T463 843Q463 825 456 809T435 780T406 761T371 753Q353 753 337 760T307 780T287 808T279 843Q279 868 289 885T314 913T344 929T371 934ZM371 923Q355 923 346 917T331 899T325 873T323 843Q323 798 335 781T371 764Q395 764 407 781T419 843Q419 858 418 872T411 898T397 916T371 923Z"  />
<glyph unicode="&#xC6;" horiz-adv-x="944" d="M-9 14H51L450 698H352V712H845V547H834Q824 582 811 607T783 649Q764 673 742 685T676 698H566V389H606Q633 389 652 400T685 429T705 471T718 521H729V243H718Q713 269 706 293T685 335T653 364T606 375H566V14H671Q699 14 717 16T749 24T773 36T792 54Q818 82 837 123T866 200H877V0H355V14H466V295H231L68 14H179V0H-9V14ZM466 698H464L239 309H466V698Z"  />
<glyph unicode="&#xC7;" horiz-adv-x="722" d="M671 0H656Q649 8 640 14T612 21Q597 21 580 16T540 3T489 -9T427 -15Q423 -15 420 -14L366 -72L368 -74Q376 -68 388 -64T417 -60Q425 -60 438 -63T465 -76T489 -103T499 -147Q499 -192 468 -217T394 -242Q371 -242 351 -233T317 -212L325 -200Q336 -208 352 -216T391 -225Q407 -225 417 -218T432 -199T440 -174T442 -146Q442 -120 433 -100T395 -80Q380 -80 371 -84T355 -93L341 -78L402 -14Q345 -10 293 13T192 83Q143 132 110 199T77 354Q77 453 115 526T219 653Q265 691 314 710T434 730Q465 730 489 724T532 711T567 697T598 691Q618 691 626 697T642 712H657V512H646Q637 550 623 587T584 652T521 698T425 716Q372 716 334 700T270 656T229 592T205 515T195 433T192 354Q192 249 209 180T256 71T330 15T425 -1Q492 -1 533 18T599 67T637 136T660 213H671V0Z"  />
<glyph unicode="&#xC8;" horiz-adv-x="704" d="M30 14H141V698H30V712H602V539H591Q578 578 563 607T527 657T477 688T407 698H241V389H306Q339 389 362 395T401 417T429 462T452 536H463V225H452Q445 254 438 281T417 329T381 362T322 375H241V14H430Q485 14 521 37T581 93T615 161T629 219H640V0H30V14ZM233 879Q228 883 222 889T215 906Q215 920 225 930T249 941Q263 941 271 933T300 901L418 757H404L233 879Z"  />
<glyph unicode="&#xC9;" horiz-adv-x="704" d="M30 14H141V698H30V712H602V539H591Q578 578 563 607T527 657T477 688T407 698H241V389H306Q339 389 362 395T401 417T429 462T452 536H463V225H452Q445 254 438 281T417 329T381 362T322 375H241V14H430Q485 14 521 37T581 93T615 161T629 219H640V0H30V14ZM428 901Q448 925 456 933T479 941Q493 941 503 931T513 906Q513 895 507 889T495 879L324 757H310L428 901Z"  />
<glyph unicode="&#xCA;" horiz-adv-x="704" d="M30 14H141V698H30V712H602V539H591Q578 578 563 607T527 657T477 688T407 698H241V389H306Q339 389 362 395T401 417T429 462T452 536H463V225H452Q445 254 438 281T417 329T381 362T322 375H241V14H430Q485 14 521 37T581 93T615 161T629 219H640V0H30V14ZM324 924H380L493 757H479L352 862L225 757H211L324 924Z"  />
<glyph unicode="&#xCB;" horiz-adv-x="704" d="M30 14H141V698H30V712H602V539H591Q578 578 563 607T527 657T477 688T407 698H241V389H306Q339 389 362 395T401 417T429 462T452 536H463V225H452Q445 254 438 281T417 329T381 362T322 375H241V14H430Q485 14 521 37T581 93T615 161T629 219H640V0H30V14ZM399 848Q399 867 412 880T445 894Q464 894 477 881T491 848Q491 829 478 816T445 802Q426 802 413 815T399 848ZM213 848Q213 867 226 880T259 894Q278 894 291 881T305 848Q305 829 292 816T259 802Q240 802 227 815T213 848Z"  />
<glyph unicode="&#xCC;" horiz-adv-x="388" d="M33 14H144V698H33V712H355V698H244V14H355V0H33V14ZM75 879Q70 883 64 889T57 906Q57 920 67 930T91 941Q105 941 113 933T142 901L260 757H246L75 879Z"  />
<glyph unicode="&#xCD;" horiz-adv-x="388" d="M33 14H144V698H33V712H355V698H244V14H355V0H33V14ZM270 901Q290 925 298 933T321 941Q335 941 345 931T355 906Q355 895 349 889T337 879L166 757H152L270 901Z"  />
<glyph unicode="&#xCE;" horiz-adv-x="388" d="M33 14H144V698H33V712H355V698H244V14H355V0H33V14ZM166 924H222L335 757H321L194 862L67 757H53L166 924Z"  />
<glyph unicode="&#xCF;" horiz-adv-x="388" d="M33 14H144V698H33V712H355V698H244V14H355V0H33V14ZM241 848Q241 867 254 880T287 894Q306 894 319 881T333 848Q333 829 320 816T287 802Q268 802 255 815T241 848ZM55 848Q55 867 68 880T101 894Q120 894 133 881T147 848Q147 829 134 816T101 802Q82 802 69 815T55 848Z"  />
<glyph unicode="&#xD0;" horiz-adv-x="815" d="M30 14H141V375H30V389H141V698H30V712H216Q230 712 244 712T272 714Q286 714 300 714T328 715Q358 715 381 714T425 711T464 704T504 692Q565 672 609 639T682 561T724 465T738 356Q738 290 722 238T678 145T613 75T532 27Q508 16 487 10T443 1T393 -3T331 -4Q316 -4 299 -4T265 -2Q248 -1 232 -1T200 0H30V14ZM241 389H389V375H241V14Q258 12 280 11T330 10Q364 10 397 13T461 28T518 61T566 118Q598 172 610 228T623 352Q623 431 608 495T559 605T467 676T326 701Q301 701 281 700T241 698V389Z"  />
<glyph unicode="&#xD1;" horiz-adv-x="722" d="M21 14H132V698H21V712H235L573 167H575V698H464V712H701V698H590V-14H570L149 657H147V14H258V0H21V14ZM517 883Q516 878 511 862T494 827T463 795T416 781Q395 781 378 788T344 805Q328 813 313 820T281 828Q264 828 253 823T235 809T224 793T219 781H205Q209 804 219 822T242 853T271 873T301 880Q318 880 335 873T370 857Q387 848 404 841T438 833Q454 833 466 839T485 855T497 872T503 883H517Z"  />
<glyph unicode="&#xD2;" horiz-adv-x="832" d="M68 357Q68 437 99 505T180 623T292 701T416 730Q482 730 544 702T656 623T734 505T764 357Q764 287 737 220T663 101T553 17T416 -15Q341 -15 277 16T167 98T94 217T68 357ZM183 357Q183 267 195 200T235 88T307 21T416 -1Q480 -1 524 21T597 88T637 200T649 357Q649 426 640 490T606 605T535 686T416 716Q343 716 298 686T227 606T192 491T183 357ZM297 879Q292 883 286 889T279 906Q279 920 289 930T313 941Q327 941 335 933T364 901L482 757H468L297 879Z"  />
<glyph unicode="&#xD3;" horiz-adv-x="832" d="M68 357Q68 437 99 505T180 623T292 701T416 730Q482 730 544 702T656 623T734 505T764 357Q764 287 737 220T663 101T553 17T416 -15Q341 -15 277 16T167 98T94 217T68 357ZM183 357Q183 267 195 200T235 88T307 21T416 -1Q480 -1 524 21T597 88T637 200T649 357Q649 426 640 490T606 605T535 686T416 716Q343 716 298 686T227 606T192 491T183 357ZM492 901Q512 925 520 933T543 941Q557 941 567 931T577 906Q577 895 571 889T559 879L388 757H374L492 901Z"  />
<glyph unicode="&#xD4;" horiz-adv-x="832" d="M68 357Q68 437 99 505T180 623T292 701T416 730Q482 730 544 702T656 623T734 505T764 357Q764 287 737 220T663 101T553 17T416 -15Q341 -15 277 16T167 98T94 217T68 357ZM183 357Q183 267 195 200T235 88T307 21T416 -1Q480 -1 524 21T597 88T637 200T649 357Q649 426 640 490T606 605T535 686T416 716Q343 716 298 686T227 606T192 491T183 357ZM388 924H444L557 757H543L416 862L289 757H275L388 924Z"  />
<glyph unicode="&#xD5;" horiz-adv-x="832" d="M68 357Q68 437 99 505T180 623T292 701T416 730Q482 730 544 702T656 623T734 505T764 357Q764 287 737 220T663 101T553 17T416 -15Q341 -15 277 16T167 98T94 217T68 357ZM183 357Q183 267 195 200T235 88T307 21T416 -1Q480 -1 524 21T597 88T637 200T649 357Q649 426 640 490T606 605T535 686T416 716Q343 716 298 686T227 606T192 491T183 357ZM572 883Q571 878 566 862T549 827T518 795T471 781Q450 781 433 788T399 805Q383 813 368 820T336 828Q319 828 308 823T290 809T279 793T274 781H260Q264 804 274 822T297 853T326 873T356 880Q373 880 390 873T425 857Q442 848 459 841T493 833Q509 833 521 839T540 855T552 872T558 883H572Z"  />
<glyph unicode="&#xD6;" horiz-adv-x="832" d="M68 357Q68 437 99 505T180 623T292 701T416 730Q482 730 544 702T656 623T734 505T764 357Q764 287 737 220T663 101T553 17T416 -15Q341 -15 277 16T167 98T94 217T68 357ZM183 357Q183 267 195 200T235 88T307 21T416 -1Q480 -1 524 21T597 88T637 200T649 357Q649 426 640 490T606 605T535 686T416 716Q343 716 298 686T227 606T192 491T183 357ZM463 848Q463 867 476 880T509 894Q528 894 541 881T555 848Q555 829 542 816T509 802Q490 802 477 815T463 848ZM277 848Q277 867 290 880T323 894Q342 894 355 881T369 848Q369 829 356 816T323 802Q304 802 291 815T277 848Z"  />
<glyph unicode="&#xD7;" horiz-adv-x="593" d="M296 227L88 19L75 33L282 240L75 447L88 461L296 253L504 461L517 447L310 240L517 33L504 19L296 227Z"  />
<glyph unicode="&#xD8;" horiz-adv-x="832" d="M246 34Q205 58 173 93T117 170T81 259T68 357Q68 435 98 503T178 621T290 701T416 730Q498 730 572 687L625 792L638 786L585 680Q624 656 656 623T713 548T750 459T764 357Q764 287 737 220T663 101T553 17T416 -15Q372 -15 333 -5T258 26L207 -77L194 -71L246 34ZM561 664Q535 689 500 702T416 716Q343 716 298 686T227 606T192 491T183 357Q183 249 200 175T258 58L561 664ZM269 48Q321 -1 416 -1Q480 -1 524 21T597 88T637 200T649 357Q649 400 646 442T634 523T610 595T572 654L269 48Z"  />
<glyph unicode="&#xD9;" horiz-adv-x="759" d="M21 712H343V698H232V215Q232 155 242 114T274 47T326 10T397 -1Q453 -1 496 15T570 74Q580 87 587 100T600 130T609 172T612 233V698H501V712H738V698H627V213Q627 171 618 137T581 65Q554 29 506 7T379 -15Q259 -15 196 44T132 225V698H21V712ZM277 879Q272 883 266 889T259 906Q259 920 269 930T293 941Q307 941 315 933T344 901L462 757H448L277 879Z"  />
<glyph unicode="&#xDA;" horiz-adv-x="759" d="M21 712H343V698H232V215Q232 155 242 114T274 47T326 10T397 -1Q453 -1 496 15T570 74Q580 87 587 100T600 130T609 172T612 233V698H501V712H738V698H627V213Q627 171 618 137T581 65Q554 29 506 7T379 -15Q259 -15 196 44T132 225V698H21V712ZM472 901Q492 925 500 933T523 941Q537 941 547 931T557 906Q557 895 551 889T539 879L368 757H354L472 901Z"  />
<glyph unicode="&#xDB;" horiz-adv-x="759" d="M21 712H343V698H232V215Q232 155 242 114T274 47T326 10T397 -1Q453 -1 496 15T570 74Q580 87 587 100T600 130T609 172T612 233V698H501V712H738V698H627V213Q627 171 618 137T581 65Q554 29 506 7T379 -15Q259 -15 196 44T132 225V698H21V712ZM368 924H424L537 757H523L396 862L269 757H255L368 924Z"  />
<glyph unicode="&#xDC;" horiz-adv-x="759" d="M21 712H343V698H232V215Q232 155 242 114T274 47T326 10T397 -1Q453 -1 496 15T570 74Q580 87 587 100T600 130T609 172T612 233V698H501V712H738V698H627V213Q627 171 618 137T581 65Q554 29 506 7T379 -15Q259 -15 196 44T132 225V698H21V712ZM443 848Q443 867 456 880T489 894Q508 894 521 881T535 848Q535 829 522 816T489 802Q470 802 457 815T443 848ZM257 848Q257 867 270 880T303 894Q322 894 335 881T349 848Q349 829 336 816T303 802Q284 802 271 815T257 848Z"  />
<glyph unicode="&#xDD;" horiz-adv-x="704" d="M203 14H314V301L89 698H-2V712H304V698H204L404 346L593 698H492V712H706V698H609L414 333V14H525V0H203V14ZM448 901Q468 925 476 933T499 941Q513 941 523 931T533 906Q533 895 527 889T515 879L344 757H330L448 901Z"  />
<glyph unicode="&#xDE;" horiz-adv-x="648" d="M30 14H141V698H30V712H352V698H241V590Q252 590 276 591T329 593Q386 593 434 580T518 541T574 481T594 403Q594 358 571 323T510 264T422 227T316 214Q302 214 280 216T241 222V14H352V0H30V14ZM241 236Q261 232 283 230T322 228Q396 228 437 271T479 403Q479 454 469 488T438 542T382 571T299 579Q280 579 265 578T241 576V236Z"  />
<glyph unicode="&#xDF;" horiz-adv-x="611" d="M33 14H110V479Q110 528 117 566T147 639Q165 667 187 684T234 712T282 726T326 730Q355 730 381 723T427 699T459 657T471 596Q471 559 459 537T432 501L392 462Q384 454 376 444T368 416Q368 382 407 349L494 274Q560 217 560 146Q560 104 544 74T502 25T445 -2T386 -11Q365 -11 340 -7T294 7T258 33T244 76Q244 105 257 117T293 130Q311 130 322 121T333 96Q333 83 325 69T316 41Q316 23 331 13T392 3Q441 3 467 26T493 101Q493 123 488 139T472 170T450 196T422 222L342 293Q320 312 308 332T295 375Q295 400 307 417T342 451L384 484Q418 510 436 534T454 601Q454 631 444 652T417 687T380 707T338 713Q299 713 272 699T228 659T204 601T196 531V0H33V14Z"  />
<glyph unicode="&#xE0;" horiz-adv-x="481" d="M478 11Q465 1 447 -6T403 -14Q355 -14 334 6T304 64H302Q298 55 291 42T270 16T231 -5T170 -14Q128 -14 103 -5T64 19T46 50T41 83Q41 118 55 139T91 172T141 193T197 210Q230 221 251 229T285 248T301 277T306 325Q306 349 303 368T292 400T269 421T229 428Q196 428 175 417T153 379Q153 362 156 346T159 321Q159 307 149 298T120 288Q87 288 79 300T71 331Q71 353 81 373T110 408T159 433T227 442Q273 442 304 431T354 400T381 356T389 304V55Q389 26 398 16T424 6Q435 6 447 10T470 22L478 11ZM303 245H301Q299 232 268 219L193 189Q161 176 144 153T127 94Q127 79 130 63T141 35T163 14T201 6Q234 6 254 20T285 55T299 100T303 145V245ZM122 674Q117 678 111 684T104 701Q104 715 114 725T138 736Q152 736 160 728T189 696L307 552H293L122 674Z"  />
<glyph unicode="&#xE1;" horiz-adv-x="481" d="M478 11Q465 1 447 -6T403 -14Q355 -14 334 6T304 64H302Q298 55 291 42T270 16T231 -5T170 -14Q128 -14 103 -5T64 19T46 50T41 83Q41 118 55 139T91 172T141 193T197 210Q230 221 251 229T285 248T301 277T306 325Q306 349 303 368T292 400T269 421T229 428Q196 428 175 417T153 379Q153 362 156 346T159 321Q159 307 149 298T120 288Q87 288 79 300T71 331Q71 353 81 373T110 408T159 433T227 442Q273 442 304 431T354 400T381 356T389 304V55Q389 26 398 16T424 6Q435 6 447 10T470 22L478 11ZM303 245H301Q299 232 268 219L193 189Q161 176 144 153T127 94Q127 79 130 63T141 35T163 14T201 6Q234 6 254 20T285 55T299 100T303 145V245ZM317 696Q337 720 345 728T368 736Q382 736 392 726T402 701Q402 690 396 684T384 674L213 552H199L317 696Z"  />
<glyph unicode="&#xE2;" horiz-adv-x="481" d="M478 11Q465 1 447 -6T403 -14Q355 -14 334 6T304 64H302Q298 55 291 42T270 16T231 -5T170 -14Q128 -14 103 -5T64 19T46 50T41 83Q41 118 55 139T91 172T141 193T197 210Q230 221 251 229T285 248T301 277T306 325Q306 349 303 368T292 400T269 421T229 428Q196 428 175 417T153 379Q153 362 156 346T159 321Q159 307 149 298T120 288Q87 288 79 300T71 331Q71 353 81 373T110 408T159 433T227 442Q273 442 304 431T354 400T381 356T389 304V55Q389 26 398 16T424 6Q435 6 447 10T470 22L478 11ZM303 245H301Q299 232 268 219L193 189Q161 176 144 153T127 94Q127 79 130 63T141 35T163 14T201 6Q234 6 254 20T285 55T299 100T303 145V245ZM213 719H269L382 552H368L241 657L114 552H100L213 719Z"  />
<glyph unicode="&#xE3;" horiz-adv-x="481" d="M478 11Q465 1 447 -6T403 -14Q355 -14 334 6T304 64H302Q298 55 291 42T270 16T231 -5T170 -14Q128 -14 103 -5T64 19T46 50T41 83Q41 118 55 139T91 172T141 193T197 210Q230 221 251 229T285 248T301 277T306 325Q306 349 303 368T292 400T269 421T229 428Q196 428 175 417T153 379Q153 362 156 346T159 321Q159 307 149 298T120 288Q87 288 79 300T71 331Q71 353 81 373T110 408T159 433T227 442Q273 442 304 431T354 400T381 356T389 304V55Q389 26 398 16T424 6Q435 6 447 10T470 22L478 11ZM303 245H301Q299 232 268 219L193 189Q161 176 144 153T127 94Q127 79 130 63T141 35T163 14T201 6Q234 6 254 20T285 55T299 100T303 145V245ZM397 678Q396 673 391 657T374 622T343 590T296 576Q275 576 258 583T224 600Q208 608 193 615T161 623Q144 623 133 618T115 604T104 588T99 576H85Q89 599 99 617T122 648T151 668T181 675Q198 675 215 668T250 652Q267 643 284 636T318 628Q334 628 346 634T365 650T377 667T383 678H397Z"  />
<glyph unicode="&#xE4;" horiz-adv-x="481" d="M478 11Q465 1 447 -6T403 -14Q355 -14 334 6T304 64H302Q298 55 291 42T270 16T231 -5T170 -14Q128 -14 103 -5T64 19T46 50T41 83Q41 118 55 139T91 172T141 193T197 210Q230 221 251 229T285 248T301 277T306 325Q306 349 303 368T292 400T269 421T229 428Q196 428 175 417T153 379Q153 362 156 346T159 321Q159 307 149 298T120 288Q87 288 79 300T71 331Q71 353 81 373T110 408T159 433T227 442Q273 442 304 431T354 400T381 356T389 304V55Q389 26 398 16T424 6Q435 6 447 10T470 22L478 11ZM303 245H301Q299 232 268 219L193 189Q161 176 144 153T127 94Q127 79 130 63T141 35T163 14T201 6Q234 6 254 20T285 55T299 100T303 145V245ZM288 662Q288 681 301 694T334 708Q353 708 366 695T380 662Q380 643 367 630T334 616Q315 616 302 629T288 662ZM102 662Q102 681 115 694T148 708Q167 708 180 695T194 662Q194 643 181 630T148 616Q129 616 116 629T102 662Z"  />
<glyph unicode="&#xE5;" horiz-adv-x="481" d="M478 11Q465 1 447 -6T403 -14Q355 -14 334 6T304 64H302Q298 55 291 42T270 16T231 -5T170 -14Q128 -14 103 -5T64 19T46 50T41 83Q41 118 55 139T91 172T141 193T197 210Q230 221 251 229T285 248T301 277T306 325Q306 349 303 368T292 400T269 421T229 428Q196 428 175 417T153 379Q153 362 156 346T159 321Q159 307 149 298T120 288Q87 288 79 300T71 331Q71 353 81 373T110 408T159 433T227 442Q273 442 304 431T354 400T381 356T389 304V55Q389 26 398 16T424 6Q435 6 447 10T470 22L478 11ZM303 245H301Q299 232 268 219L193 189Q161 176 144 153T127 94Q127 79 130 63T141 35T163 14T201 6Q234 6 254 20T285 55T299 100T303 145V245ZM241 741Q251 741 267 736T297 721T322 693T333 650Q333 632 326 616T305 587T276 568T241 560Q223 560 207 567T177 587T157 615T149 650Q149 675 159 692T184 720T214 736T241 741ZM241 730Q225 730 216 724T201 706T195 680T193 650Q193 605 205 588T241 571Q265 571 277 588T289 650Q289 665 288 679T281 705T267 723T241 730Z"  />
<glyph unicode="&#xE6;" horiz-adv-x="722" d="M396 248Q396 237 396 228T395 207Q395 164 398 127T414 61T450 17T514 0Q533 0 555 6T598 24T634 58T656 109L671 105Q668 95 661 75T636 36T587 1T504 -14Q435 -14 388 14T319 103H317Q315 88 308 68T283 30T237 -1T164 -14Q122 -14 97 -5T58 19T40 50T35 83Q35 109 42 126T62 156T95 177T139 194L237 225Q274 236 293 258T313 327Q313 347 309 365T295 397T267 419T223 428Q190 428 169 417T147 379Q147 362 150 346T153 321Q153 307 143 298T114 288Q81 288 73 300T65 331Q65 353 75 373T104 408T153 433T221 442Q258 442 283 435T324 419T349 399T362 383Q368 388 379 398T409 417T451 434T506 442Q524 442 553 434T609 405T656 346T676 248H396ZM579 262Q580 278 581 295T582 330Q582 378 563 403T509 428Q456 428 430 388T397 262H579ZM309 257H307Q300 245 291 237T262 220L187 189Q155 176 138 153T121 94Q121 79 124 63T135 35T157 14T195 6Q234 6 257 25T291 74T306 136T309 199V257Z"  />
<glyph unicode="&#xE7;" horiz-adv-x="481" d="M446 110Q443 99 435 80T410 40T364 5T289 -14L233 -72L235 -74Q243 -68 255 -64T284 -60Q292 -60 305 -63T332 -76T356 -103T366 -147Q366 -192 335 -217T261 -242Q238 -242 218 -233T184 -212L192 -200Q203 -208 219 -216T258 -225Q274 -225 284 -218T299 -199T307 -174T309 -146Q309 -120 300 -100T262 -80Q247 -80 238 -84T222 -93L208 -78L268 -14Q230 -13 191 -1T119 39T66 108T45 212Q45 261 63 303T113 376T187 424T278 442Q305 442 333 436T385 416T424 381T440 328Q440 307 427 294T388 280Q371 280 356 287T340 313Q340 327 347 347T354 380Q354 403 331 415T275 428Q252 428 229 423T187 395T157 329T145 209Q145 166 150 128T170 62T210 17T277 0Q321 0 349 13T394 44T419 82T431 113L446 110Z"  />
<glyph unicode="&#xE8;" horiz-adv-x="500" d="M146 248Q146 238 146 228T145 201Q145 168 149 132T166 67T206 19T277 0Q321 0 349 13T394 44T419 82T431 113L446 110Q443 99 435 79T408 38T358 2T276 -14Q226 -14 184 2T110 48T62 119T45 212Q45 256 62 297T110 371T182 422T270 442Q298 442 330 432T389 400T435 340T454 248H146ZM352 262Q354 276 354 288T354 313Q354 347 348 369T330 404T302 422T266 428Q232 428 210 415T175 378T156 325T147 262H352ZM131 674Q126 678 120 684T113 701Q113 715 123 725T147 736Q161 736 169 728T198 696L316 552H302L131 674Z"  />
<glyph unicode="&#xE9;" horiz-adv-x="500" d="M146 248Q146 238 146 228T145 201Q145 168 149 132T166 67T206 19T277 0Q321 0 349 13T394 44T419 82T431 113L446 110Q443 99 435 79T408 38T358 2T276 -14Q226 -14 184 2T110 48T62 119T45 212Q45 256 62 297T110 371T182 422T270 442Q298 442 330 432T389 400T435 340T454 248H146ZM352 262Q354 276 354 288T354 313Q354 347 348 369T330 404T302 422T266 428Q232 428 210 415T175 378T156 325T147 262H352ZM326 696Q346 720 354 728T377 736Q391 736 401 726T411 701Q411 690 405 684T393 674L222 552H208L326 696Z"  />
<glyph unicode="&#xEA;" horiz-adv-x="500" d="M146 248Q146 238 146 228T145 201Q145 168 149 132T166 67T206 19T277 0Q321 0 349 13T394 44T419 82T431 113L446 110Q443 99 435 79T408 38T358 2T276 -14Q226 -14 184 2T110 48T62 119T45 212Q45 256 62 297T110 371T182 422T270 442Q298 442 330 432T389 400T435 340T454 248H146ZM352 262Q354 276 354 288T354 313Q354 347 348 369T330 404T302 422T266 428Q232 428 210 415T175 378T156 325T147 262H352ZM222 719H278L391 552H377L250 657L123 552H109L222 719Z"  />
<glyph unicode="&#xEB;" horiz-adv-x="500" d="M146 248Q146 238 146 228T145 201Q145 168 149 132T166 67T206 19T277 0Q321 0 349 13T394 44T419 82T431 113L446 110Q443 99 435 79T408 38T358 2T276 -14Q226 -14 184 2T110 48T62 119T45 212Q45 256 62 297T110 371T182 422T270 442Q298 442 330 432T389 400T435 340T454 248H146ZM352 262Q354 276 354 288T354 313Q354 347 348 369T330 404T302 422T266 428Q232 428 210 415T175 378T156 325T147 262H352ZM297 662Q297 681 310 694T343 708Q362 708 375 695T389 662Q389 643 376 630T343 616Q324 616 311 629T297 662ZM111 662Q111 681 124 694T157 708Q176 708 189 695T203 662Q203 643 190 630T157 616Q138 616 125 629T111 662Z"  />
<glyph unicode="&#xEC;" horiz-adv-x="296" d="M28 14H105V415H28V429H191V14H268V0H28V14ZM29 674Q24 678 18 684T11 701Q11 715 21 725T45 736Q59 736 67 728T96 696L214 552H200L29 674Z"  />
<glyph unicode="&#xED;" horiz-adv-x="296" d="M28 14H105V415H28V429H191V14H268V0H28V14ZM224 696Q244 720 252 728T275 736Q289 736 299 726T309 701Q309 690 303 684T291 674L120 552H106L224 696Z"  />
<glyph unicode="&#xEE;" horiz-adv-x="296" d="M28 14H105V415H28V429H191V14H268V0H28V14ZM120 719H176L289 552H275L148 657L21 552H7L120 719Z"  />
<glyph unicode="&#xEF;" horiz-adv-x="296" d="M28 14H105V415H28V429H191V14H268V0H28V14ZM195 662Q195 681 208 694T241 708Q260 708 273 695T287 662Q287 643 274 630T241 616Q222 616 209 629T195 662ZM9 662Q9 681 22 694T55 708Q74 708 87 695T101 662Q101 643 88 630T55 616Q36 616 23 629T9 662Z"  />
<glyph unicode="&#xF0;" horiz-adv-x="556" d="M243 620Q220 640 190 662T118 704L125 715Q162 700 199 681T272 637L391 707L397 696L283 629Q329 597 370 556T443 464T492 355T511 232Q511 169 489 123T433 47T358 1T278 -14Q234 -14 192 4T118 53T65 125T45 214Q45 263 66 305T121 377T196 425T278 442Q316 442 340 432T379 402L381 404Q370 440 354 472T320 532T284 579T253 611L133 540L127 551L243 620ZM145 214Q145 143 156 101T185 37T227 7T278 0Q305 0 329 7T371 36T400 101T411 214Q411 274 403 314T379 380T337 417T278 428Q244 428 219 417T178 381T153 315T145 214Z"  />
<glyph unicode="&#xF1;" horiz-adv-x="611" d="M25 14H102V415H25V429H186V322H188Q194 335 205 355T237 394T287 426T360 440Q426 440 467 408T509 306V14H586V0H346V14H423V337Q423 376 405 401T347 426Q315 426 286 412T235 373T201 314T188 240V14H265V0H25V14ZM462 678Q461 673 456 657T439 622T408 590T361 576Q340 576 323 583T289 600Q273 608 258 615T226 623Q209 623 198 618T180 604T169 588T164 576H150Q154 599 164 617T187 648T216 668T246 675Q263 675 280 668T315 652Q332 643 349 636T383 628Q399 628 411 634T430 650T442 667T448 678H462Z"  />
<glyph unicode="&#xF2;" horiz-adv-x="556" d="M45 214Q45 263 66 305T121 377T196 425T278 442Q318 442 359 425T434 378T489 305T511 214Q511 167 491 126T439 53T364 4T278 -14Q234 -14 192 4T118 53T65 125T45 214ZM145 214Q145 143 156 101T185 37T227 7T278 0Q305 0 329 7T371 36T400 101T411 214Q411 274 403 314T379 380T337 417T278 428Q244 428 219 417T178 381T153 315T145 214ZM159 674Q154 678 148 684T141 701Q141 715 151 725T175 736Q189 736 197 728T226 696L344 552H330L159 674Z"  />
<glyph unicode="&#xF3;" horiz-adv-x="556" d="M45 214Q45 263 66 305T121 377T196 425T278 442Q318 442 359 425T434 378T489 305T511 214Q511 167 491 126T439 53T364 4T278 -14Q234 -14 192 4T118 53T65 125T45 214ZM145 214Q145 143 156 101T185 37T227 7T278 0Q305 0 329 7T371 36T400 101T411 214Q411 274 403 314T379 380T337 417T278 428Q244 428 219 417T178 381T153 315T145 214ZM354 696Q374 720 382 728T405 736Q419 736 429 726T439 701Q439 690 433 684T421 674L250 552H236L354 696Z"  />
<glyph unicode="&#xF4;" horiz-adv-x="556" d="M45 214Q45 263 66 305T121 377T196 425T278 442Q318 442 359 425T434 378T489 305T511 214Q511 167 491 126T439 53T364 4T278 -14Q234 -14 192 4T118 53T65 125T45 214ZM145 214Q145 143 156 101T185 37T227 7T278 0Q305 0 329 7T371 36T400 101T411 214Q411 274 403 314T379 380T337 417T278 428Q244 428 219 417T178 381T153 315T145 214ZM250 719H306L419 552H405L278 657L151 552H137L250 719Z"  />
<glyph unicode="&#xF5;" horiz-adv-x="556" d="M45 214Q45 263 66 305T121 377T196 425T278 442Q318 442 359 425T434 378T489 305T511 214Q511 167 491 126T439 53T364 4T278 -14Q234 -14 192 4T118 53T65 125T45 214ZM145 214Q145 143 156 101T185 37T227 7T278 0Q305 0 329 7T371 36T400 101T411 214Q411 274 403 314T379 380T337 417T278 428Q244 428 219 417T178 381T153 315T145 214ZM434 678Q433 673 428 657T411 622T380 590T333 576Q312 576 295 583T261 600Q245 608 230 615T198 623Q181 623 170 618T152 604T141 588T136 576H122Q126 599 136 617T159 648T188 668T218 675Q235 675 252 668T287 652Q304 643 321 636T355 628Q371 628 383 634T402 650T414 667T420 678H434Z"  />
<glyph unicode="&#xF6;" horiz-adv-x="556" d="M45 214Q45 263 66 305T121 377T196 425T278 442Q318 442 359 425T434 378T489 305T511 214Q511 167 491 126T439 53T364 4T278 -14Q234 -14 192 4T118 53T65 125T45 214ZM145 214Q145 143 156 101T185 37T227 7T278 0Q305 0 329 7T371 36T400 101T411 214Q411 274 403 314T379 380T337 417T278 428Q244 428 219 417T178 381T153 315T145 214ZM325 662Q325 681 338 694T371 708Q390 708 403 695T417 662Q417 643 404 630T371 616Q352 616 339 629T325 662ZM139 662Q139 681 152 694T185 708Q204 708 217 695T231 662Q231 643 218 630T185 616Q166 616 153 629T139 662Z"  />
<glyph unicode="&#xF7;" horiz-adv-x="593" d="M243 399Q243 421 258 436T296 452Q318 452 333 437T349 399Q349 377 334 362T296 346Q274 346 259 361T243 399ZM56 249H536V231H56V249ZM243 81Q243 103 258 118T296 134Q318 134 333 119T349 81Q349 59 334 44T296 28Q274 28 259 43T243 81Z"  />
<glyph unicode="&#xF8;" horiz-adv-x="556" d="M171 16Q117 44 81 96T45 214Q45 263 66 305T121 377T196 425T278 442Q301 442 325 436T372 418L416 506L429 500L385 412Q411 398 434 378T474 332T501 277T511 214Q511 167 491 126T439 53T364 4T278 -14Q227 -14 183 9L140 -78L127 -72L171 16ZM362 398Q346 415 325 421T278 428Q244 428 219 417T178 381T153 315T145 214Q145 145 155 104T183 40L362 398ZM193 29Q210 11 232 6T278 0Q305 0 329 7T371 36T400 101T411 214Q411 280 402 322T373 387L193 29Z"  />
<glyph unicode="&#xF9;" horiz-adv-x="593" d="M569 0H408V101H406Q397 81 385 61T354 24T311 -3T253 -14Q213 -14 188 -5T149 14Q142 19 134 26T118 47T106 80T101 131V415H24V429H187V122Q187 96 190 74T204 36T230 10T272 0Q294 0 317 13T360 50T393 107T406 183V415H330V429H492V14H569V0ZM178 674Q173 678 167 684T160 701Q160 715 170 725T194 736Q208 736 216 728T245 696L363 552H349L178 674Z"  />
<glyph unicode="&#xFA;" horiz-adv-x="593" d="M569 0H408V101H406Q397 81 385 61T354 24T311 -3T253 -14Q213 -14 188 -5T149 14Q142 19 134 26T118 47T106 80T101 131V415H24V429H187V122Q187 96 190 74T204 36T230 10T272 0Q294 0 317 13T360 50T393 107T406 183V415H330V429H492V14H569V0ZM373 696Q393 720 401 728T424 736Q438 736 448 726T458 701Q458 690 452 684T440 674L269 552H255L373 696Z"  />
<glyph unicode="&#xFB;" horiz-adv-x="593" d="M569 0H408V101H406Q397 81 385 61T354 24T311 -3T253 -14Q213 -14 188 -5T149 14Q142 19 134 26T118 47T106 80T101 131V415H24V429H187V122Q187 96 190 74T204 36T230 10T272 0Q294 0 317 13T360 50T393 107T406 183V415H330V429H492V14H569V0ZM269 719H325L438 552H424L297 657L170 552H156L269 719Z"  />
<glyph unicode="&#xFC;" horiz-adv-x="593" d="M569 0H408V101H406Q397 81 385 61T354 24T311 -3T253 -14Q213 -14 188 -5T149 14Q142 19 134 26T118 47T106 80T101 131V415H24V429H187V122Q187 96 190 74T204 36T230 10T272 0Q294 0 317 13T360 50T393 107T406 183V415H330V429H492V14H569V0ZM344 662Q344 681 357 694T390 708Q409 708 422 695T436 662Q436 643 423 630T390 616Q371 616 358 629T344 662ZM158 662Q158 681 171 694T204 708Q223 708 236 695T250 662Q250 643 237 630T204 616Q185 616 172 629T158 662Z"  />
<glyph unicode="&#xFD;" horiz-adv-x="481" d="M-5 429H240V415H156L285 101L420 415H337V429H490V415H436L271 29Q252 -14 235 -57T201 -145Q187 -181 173 -208T144 -252T110 -277T68 -286Q39 -286 22 -277T-6 -256T-19 -231T-22 -209Q-22 -184 -8 -172T26 -159Q33 -159 41 -160T56 -166T68 -177T73 -194Q73 -208 65 -220T56 -248Q56 -261 63 -265T82 -269Q98 -269 111 -262T138 -237T164 -193T193 -125L237 -13L64 415H-5V429ZM317 696Q337 720 345 728T368 736Q382 736 392 726T402 701Q402 690 396 684T384 674L213 552H199L317 696Z"  />
<glyph unicode="&#xFE;" horiz-adv-x="593" d="M28 -266H105V707H28V721H191V348H193Q197 360 206 376T232 407T272 432T330 442Q373 442 411 424T478 375T524 303T541 217Q541 171 524 130T476 56T407 5T323 -14Q289 -14 266 -3T227 24T204 56T193 83H191V-266H268V-280H28V-266ZM441 229Q441 275 436 311T419 374T384 414T326 428Q289 428 265 415T226 382Q215 368 209 352T198 314T193 264T191 196Q191 163 196 128T215 65T254 18T322 0Q363 0 387 16T423 62T438 134T441 229Z"  />
<glyph unicode="&#xFF;" horiz-adv-x="481" d="M-5 429H240V415H156L285 101L420 415H337V429H490V415H436L271 29Q252 -14 235 -57T201 -145Q187 -181 173 -208T144 -252T110 -277T68 -286Q39 -286 22 -277T-6 -256T-19 -231T-22 -209Q-22 -184 -8 -172T26 -159Q33 -159 41 -160T56 -166T68 -177T73 -194Q73 -208 65 -220T56 -248Q56 -261 63 -265T82 -269Q98 -269 111 -262T138 -237T164 -193T193 -125L237 -13L64 415H-5V429ZM304 662Q304 681 317 694T350 708Q369 708 382 695T396 662Q396 643 383 630T350 616Q331 616 318 629T304 662ZM118 662Q118 681 131 694T164 708Q183 708 196 695T210 662Q210 643 197 630T164 616Q145 616 132 629T118 662Z"  />
<glyph unicode="&#x131;" horiz-adv-x="296" d="M28 14H105V415H28V429H191V14H268V0H28V14Z"  />
<glyph unicode="&#x152;" horiz-adv-x="1074" d="M999 0H556Q523 0 490 -3Q473 -4 457 -5T423 -6Q398 -6 379 -4T343 2T311 12T278 26Q237 45 199 77T132 152T86 247T68 359Q68 413 85 461T130 550T189 620T252 668Q302 696 343 707T436 718Q465 718 497 715Q512 714 527 713T557 712H977V539H966Q953 578 938 607T902 657T852 688T782 698H632V389H681Q714 389 737 395T776 417T804 462T827 536H838V225H827Q820 254 813 281T792 329T756 362T697 375H632V14H801Q847 14 880 37T937 93T972 161T988 219H999V0ZM532 692Q510 697 483 700T432 704Q357 704 309 677T233 601T194 488T183 347Q183 237 205 161T271 54Q297 35 331 22T423 8Q456 8 482 11T532 21V692Z"  />
<glyph unicode="&#x153;" horiz-adv-x="852" d="M45 214Q45 263 66 305T121 377T196 425T278 442Q307 442 334 434T385 413T425 386T450 360Q464 373 480 387T518 414T564 434T622 442Q650 442 682 432T741 400T787 340T806 248H498Q498 238 498 228T497 201Q497 168 501 132T518 67T558 19T629 0Q673 0 701 13T746 44T771 82T783 113L798 110Q795 99 787 79T760 38T710 2T628 -14Q591 -14 563 -7T514 11T476 36T447 64Q435 51 419 38T383 13T336 -6T278 -14Q234 -14 192 4T118 53T65 125T45 214ZM704 262Q706 276 706 288T706 313Q706 347 700 369T682 404T654 422T618 428Q584 428 562 415T527 378T508 325T499 262H704ZM145 214Q145 143 156 101T185 37T227 7T278 0Q305 0 329 7T371 36T400 101T411 214Q411 274 403 314T379 380T337 417T278 428Q244 428 219 417T178 381T153 315T145 214Z"  />
<glyph unicode="&#x160;" horiz-adv-x="667" d="M75 215H86Q97 161 114 124T153 63T197 26T243 7T288 0T329 -1Q382 -1 416 15T470 55T498 108T506 161Q506 196 493 221T460 263T417 292T372 309L257 344Q176 369 135 410T93 520Q93 565 109 603T154 670T223 714T312 730Q347 730 370 724T411 711T441 697T469 691Q482 691 486 694T499 712H513V531H501Q495 567 481 600T443 659T388 700T312 716Q288 716 259 710T205 687T164 645T147 579Q147 547 160 525T193 487T239 461T291 442L412 404Q431 398 460 388T516 358T563 305T583 221Q583 174 566 132T515 57T435 5T329 -15Q308 -15 292 -15T262 -12T234 -8T203 0Q183 6 160 14T120 22Q105 22 100 16T90 0H75V215ZM362 757H306L193 924H207L334 819L461 924H475L362 757Z"  />
<glyph unicode="&#x161;" horiz-adv-x="426" d="M56 140H67Q74 116 85 92T114 47T160 13T225 0Q257 0 282 19T307 83Q307 121 288 136T242 161L164 188Q149 193 132 200T99 221T75 256T65 310Q65 338 76 362T106 404T151 432T209 442Q231 442 244 439T268 432T286 425T305 421Q316 421 321 429H332V315H321Q314 337 305 357T284 394T253 419T209 428Q161 428 135 407T108 349Q108 317 130 301T197 270L270 246Q317 230 347 202T377 128Q377 101 367 75T336 30T286 -2T218 -14Q196 -14 178 -10T144 0T115 9T91 14Q80 14 75 10T67 0H56V140ZM241 552H185L72 719H86L213 614L340 719H354L241 552Z"  />
<glyph unicode="&#x178;" horiz-adv-x="704" d="M203 14H314V301L89 698H-2V712H304V698H204L404 346L593 698H492V712H706V698H609L414 333V14H525V0H203V14ZM419 848Q419 867 432 880T465 894Q484 894 497 881T511 848Q511 829 498 816T465 802Q446 802 433 815T419 848ZM233 848Q233 867 246 880T279 894Q298 894 311 881T325 848Q325 829 312 816T279 802Q260 802 247 815T233 848Z"  />
<glyph unicode="&#x17D;" horiz-adv-x="648" d="M105 712H582L163 14H383Q433 14 460 28T508 63Q530 83 553 124T587 219H598V0H45L462 698H307Q226 698 181 656T116 538H105V712ZM352 757H296L183 924H197L324 819L451 924H465L352 757Z"  />
<glyph unicode="&#x17E;" horiz-adv-x="426" d="M72 429H389L140 14H281Q310 14 328 25T358 54T376 92T389 130H397L384 0H36L285 415H199Q174 415 156 414T122 403T94 374T66 317H58L72 429ZM241 552H185L72 719H86L213 614L340 719H354L241 552Z"  />
<glyph unicode="&#x192;" horiz-adv-x="520" d="M57 355H192Q197 407 211 471T253 593T321 688T420 727Q438 727 457 722T493 705T521 675T532 630Q532 610 520 599T487 587Q471 587 459 595T446 625Q446 635 448 641T454 653T460 663T463 677Q463 688 458 695T446 706T430 711T414 713Q384 713 365 694T333 647T314 584T303 519Q298 477 293 437T285 355H416V341H284Q275 278 266 215T245 90T222 -26T194 -128Q170 -203 139 -241T57 -280Q39 -280 22 -274T-9 -258T-30 -232T-38 -199Q-38 -175 -24 -167T5 -159Q21 -159 31 -167T41 -185Q41 -196 33 -210T25 -237Q25 -253 36 -259T64 -266Q107 -266 127 -226T156 -92L191 341H57V355Z"  />
<glyph unicode="&#x2C6;" horiz-adv-x="278" d="M111 719H167L280 552H266L139 657L12 552H-2L111 719Z"  />
<glyph unicode="&#x2C7;" horiz-adv-x="278" d="M167 552H111L-2 719H12L139 614L266 719H280L167 552Z"  />
<glyph unicode="&#x2DA;" horiz-adv-x="278" d="M139 741Q149 741 165 736T195 721T220 693T231 650Q231 632 224 616T203 587T174 568T139 560Q121 560 105 567T75 587T55 615T47 650Q47 675 57 692T82 720T112 736T139 741ZM139 730Q123 730 114 724T99 706T93 680T91 650Q91 605 103 588T139 571Q163 571 175 588T187 650Q187 665 186 679T179 705T165 723T139 730Z"  />
<glyph unicode="&#x2DC;" horiz-adv-x="278" d="M295 678Q294 673 289 657T272 622T241 590T194 576Q173 576 156 583T122 600Q106 608 91 615T59 623Q42 623 31 618T13 604T2 588T-3 576H-17Q-13 599 -3 617T20 648T49 668T79 675Q96 675 113 668T148 652Q165 643 182 636T216 628Q232 628 244 634T263 650T275 667T281 678H295Z"  />
<glyph unicode="&#x2013;" horiz-adv-x="500" d="M0 225H500V211H0V225Z"  />
<glyph unicode="&#x2014;" horiz-adv-x="1000" d="M130 225H870V211H130V225Z"  />
<glyph unicode="&#x2018;" horiz-adv-x="278" d="M189 718Q160 697 142 677T113 640T99 609T95 585Q95 552 113 533Q130 558 156 558Q175 558 193 544T211 504Q211 481 194 464T150 447Q130 447 115 456T89 479T73 511T67 550Q67 579 79 607T108 659T145 701T180 730L189 718Z"  />
<glyph unicode="&#x2019;" horiz-adv-x="278" d="M89 459Q118 480 136 499T165 536T179 568T183 592Q183 624 165 644Q148 619 122 619Q103 619 85 633T67 673Q67 696 84 713T128 730Q147 730 162 721T189 698T205 665T211 627Q211 598 199 570T170 517T133 475T98 447L89 459Z"  />
<glyph unicode="&#x201A;" horiz-adv-x="278" d="M91 -167Q106 -155 121 -141T150 -110T172 -75T181 -35Q181 -15 175 -3T165 14Q159 7 149 -2T121 -11Q99 -11 84 3T69 41Q69 61 85 78T127 96Q152 96 168 85T193 59T205 27T209 0Q209 -32 198 -59T169 -109T133 -149T99 -177L91 -167Z"  />
<glyph unicode="&#x201C;" horiz-adv-x="444" d="M363 720Q348 708 333 694T304 663T282 628T273 588Q273 568 279 556T289 539Q295 546 305 555T333 564Q355 564 370 550T385 512Q385 492 369 475T327 457Q301 457 285 468T260 494T248 526T245 553Q245 585 256 612T285 662T321 702T355 730L363 720ZM177 720Q162 708 147 694T118 663T96 628T87 588Q87 568 93 556T103 539Q109 546 119 555T147 564Q169 564 184 550T199 512Q199 492 183 475T141 457Q115 457 99 468T74 494T62 526T59 553Q59 585 70 612T99 662T135 702T169 730L177 720Z"  />
<glyph unicode="&#x201D;" horiz-adv-x="444" d="M267 467Q282 479 297 493T326 524T348 559T357 599Q357 619 351 631T341 648Q335 641 325 632T297 623Q275 623 260 637T245 675Q245 695 261 712T303 730Q328 730 344 719T369 693T381 661T385 634Q385 602 374 575T345 525T309 485T275 457L267 467ZM81 467Q96 479 111 493T140 524T162 559T171 599Q171 619 165 631T155 648Q149 641 139 632T111 623Q89 623 74 637T59 675Q59 695 75 712T117 730Q142 730 158 719T183 693T195 661T199 634Q199 602 188 575T159 525T123 485T89 457L81 467Z"  />
<glyph unicode="&#x201E;" horiz-adv-x="444" d="M267 -167Q282 -155 297 -141T326 -110T348 -75T357 -35Q357 -15 351 -3T341 14Q335 7 325 -2T297 -11Q275 -11 260 3T245 41Q245 61 261 78T303 96Q328 96 344 85T369 59T381 27T385 0Q385 -32 374 -59T345 -109T309 -149T275 -177L267 -167ZM81 -167Q96 -155 111 -141T140 -110T162 -75T171 -35Q171 -15 165 -3T155 14Q149 7 139 -2T111 -11Q89 -11 74 3T59 41Q59 61 75 78T117 96Q142 96 158 85T183 59T195 27T199 0Q199 -32 188 -59T159 -109T123 -149T89 -177L81 -167Z"  />
<glyph unicode="&#x2020;" horiz-adv-x="520" d="M253 3Q253 64 246 103T228 165T206 199T186 216Q207 231 220 250T240 297T250 362T253 452Q238 452 221 452T187 449T155 442T128 432Q114 424 104 418T77 411Q54 411 42 426T30 459Q30 477 42 492T77 507Q93 507 103 501T128 486Q139 480 154 476T187 470T221 467T253 466Q253 519 251 544T245 582Q239 612 226 637T212 683Q212 700 224 715T260 730Q283 730 295 715T308 683Q308 663 295 638T275 582Q272 570 270 545T267 466Q282 466 299 466T333 469T365 476T392 486Q406 494 416 500T443 507Q466 507 478 492T490 459Q490 441 478 426T443 411Q427 411 417 417T392 432Q381 438 366 442T333 448T299 451T267 452Q267 400 269 363T279 298T300 251T334 216Q326 210 315 199T293 165T275 103T267 3V-280H253V3Z"  />
<glyph unicode="&#x2021;" horiz-adv-x="520" d="M260 730Q283 730 295 715T308 683Q308 663 295 638T275 582Q272 570 270 545T267 466Q282 466 299 466T333 469T365 476T392 486Q406 494 416 500T443 507Q466 507 478 492T490 459Q490 441 478 426T443 411Q427 411 417 417T392 432Q381 438 366 442T333 448T299 451T267 452Q267 402 269 366T279 303T300 257T334 222Q313 207 300 188T280 141T270 78T267 -8Q282 -8 299 -8T333 -5T365 2T392 12Q406 20 416 26T443 33Q466 33 478 18T490 -15Q490 -33 478 -48T443 -63Q427 -63 417 -57T392 -42Q381 -36 366 -32T333 -26T299 -23T267 -22Q267 -75 269 -100T275 -138Q281 -168 294 -193T308 -239Q308 -256 296 -271T260 -286Q237 -286 225 -271T212 -239Q212 -219 225 -194T245 -138Q248 -126 250 -101T253 -22Q238 -22 221 -22T187 -25T155 -32T128 -42Q114 -50 104 -56T77 -63Q54 -63 42 -48T30 -15Q30 3 42 18T77 33Q93 33 103 27T128 12Q139 6 154 2T187 -4T221 -7T253 -8Q253 41 251 77T241 141T220 187T186 222Q207 237 220 256T240 303T250 366T253 452Q238 452 221 452T187 449T155 442T128 432Q114 424 104 418T77 411Q54 411 42 426T30 459Q30 477 42 492T77 507Q93 507 103 501T128 486Q139 480 154 476T187 470T221 467T253 466Q253 519 251 544T245 582Q239 612 226 637T212 683Q212 700 224 715T260 730Z"  />
<glyph unicode="&#x2022;" horiz-adv-x="500" d="M72 356Q72 393 86 425T124 482T180 520T250 534Q287 534 319 520T376 482T414 426T428 356Q428 319 414 287T376 230T320 192T250 178Q213 178 181 192T124 230T86 286T72 356Z"  />
<glyph unicode="&#x2026;" horiz-adv-x="1000" d="M780 42Q780 64 795 79T833 95Q855 95 870 80T886 42Q886 20 871 5T833 -11Q811 -11 796 4T780 42ZM447 42Q447 64 462 79T500 95Q522 95 537 80T553 42Q553 20 538 5T500 -11Q478 -11 463 4T447 42ZM114 42Q114 64 129 79T167 95Q189 95 204 80T220 42Q220 20 205 5T167 -11Q145 -11 130 4T114 42Z"  />
<glyph unicode="&#x2030;" horiz-adv-x="1000" d="M507 727L525 718L145 -14L127 -5L507 727ZM191 434Q167 434 142 445T95 476T59 522T45 581Q45 610 59 636T94 683T141 715T191 727Q222 727 249 714T298 679T331 631T343 580Q343 554 331 528T298 481T250 447T191 434ZM195 448Q213 448 228 453T255 474T273 516T280 588Q280 628 272 653T251 691T223 708T193 713Q151 713 130 683T108 586Q108 544 114 517T131 475T158 454T195 448ZM803 -14Q779 -14 754 -3T707 28T671 74T657 133Q657 162 671 188T706 235T753 267T803 279Q834 279 861 266T910 231T943 183T955 132Q955 106 943 80T910 33T862 -1T803 -14ZM457 -14Q433 -14 408 -3T361 28T325 74T311 133Q311 162 325 188T360 235T407 267T457 279Q488 279 515 266T564 231T597 183T609 132Q609 106 597 80T564 33T516 -1T457 -14ZM807 0Q825 0 840 5T867 26T885 68T892 140Q892 180 884 205T863 243T835 260T805 265Q763 265 742 235T720 138Q720 96 726 69T743 27T770 6T807 0ZM461 0Q479 0 494 5T521 26T539 68T546 140Q546 180 538 205T517 243T489 260T459 265Q417 265 396 235T374 138Q374 96 380 69T397 27T424 6T461 0Z"  />
<glyph unicode="&#x2039;" horiz-adv-x="278" d="M216 348Q174 337 149 308T124 218Q124 157 149 128T216 88L213 77Q183 81 156 91T108 118T75 160T62 218Q62 251 74 276T107 318T155 345T213 359L216 348Z"  />
<glyph unicode="&#x203A;" horiz-adv-x="278" d="M62 88Q104 99 129 128T154 218Q154 279 129 308T62 348L65 359Q95 355 122 345T170 318T203 276T216 218Q216 185 204 160T171 118T123 91T65 77L62 88Z"  />
<glyph unicode="&#x20AC;" horiz-adv-x="520" d="M479 0H467Q460 12 453 16T437 21Q432 21 426 19T404 9Q388 1 370 -7T314 -15Q277 -15 249 -7T201 13T166 38T144 63Q127 84 113 112T89 171T71 236T61 302H5L9 316H60V321Q60 334 60 346T59 371Q59 385 60 396T63 423H5L9 437H65Q67 452 69 467T76 496Q84 528 95 559T125 620Q142 646 165 668T218 705Q241 716 265 721T315 727Q350 727 369 718T396 703L407 696Q411 693 415 691T427 688Q437 688 442 692Q451 699 454 709H467V529H458Q454 557 445 588T420 646Q403 675 379 694T314 713Q289 713 261 703T208 657Q198 643 192 627T180 594Q175 576 172 556T166 514T162 473T160 437H422L418 423H160V415Q160 403 160 392T159 369Q159 359 159 350T160 330V316H386L383 302H160Q160 284 161 257T164 201T171 145T181 100Q187 81 196 64T220 33Q233 21 256 10T314 -1Q353 -1 385 17Q402 27 415 42T437 74Q445 89 451 107T461 141T467 172T470 193H479V0Z"  />
<glyph unicode="&#x2122;" horiz-adv-x="981" d="M495 701H439V712H561L660 423L760 712H879V701H823V333H879V322H708V333H765V688L635 317L507 685V333H564V322H439V333H495V701ZM212 701H182Q173 701 160 700T133 689T106 662T83 609H74V712H408V609H399Q390 643 377 661T351 689T324 699T300 701H270V333H327V322H156V333H212V701Z"  />
<glyph unicode="&#xE000;" horiz-adv-x="278" d="M20 879Q15 883 9 889T2 906Q2 920 12 930T36 941Q50 941 58 933T87 901L205 757H191L20 879Z"  />
<glyph unicode="&#xE002;" horiz-adv-x="278" d="M215 901Q235 925 243 933T266 941Q280 941 290 931T300 906Q300 895 294 889T282 879L111 757H97L215 901Z"  />
<glyph unicode="&#xE004;" horiz-adv-x="278" d="M111 924H167L280 757H266L139 862L12 757H-2L111 924Z"  />
<glyph unicode="&#xE006;" horiz-adv-x="278" d="M167 757H111L-2 924H12L139 819L266 924H280L167 757Z"  />
<glyph unicode="&#xE009;" horiz-adv-x="278" d="M295 883Q294 878 289 862T272 827T241 795T194 781Q173 781 156 788T122 805Q106 813 91 820T59 828Q42 828 31 823T13 809T2 793T-3 781H-17Q-13 804 -3 822T20 853T49 873T79 880Q96 880 113 873T148 857Q165 848 182 841T216 833Q232 833 244 839T263 855T275 872T281 883H295Z"  />
<glyph unicode="&#xE00B;" horiz-adv-x="278" d="M186 867Q186 886 199 899T232 913Q251 913 264 900T278 867Q278 848 265 835T232 821Q213 821 200 834T186 867ZM0 867Q0 886 13 899T46 913Q65 913 78 900T92 867Q92 848 79 835T46 821Q27 821 14 834T0 867Z"  />
<glyph unicode="&#xE011;" horiz-adv-x="278" d="M139 934Q149 934 165 929T195 914T220 886T231 843Q231 825 224 809T203 780T174 761T139 753Q121 753 105 760T75 780T55 808T47 843Q47 868 57 885T82 913T112 929T139 934ZM139 923Q123 923 114 917T99 899T93 873T91 843Q91 798 103 781T139 764Q163 764 175 781T187 843Q187 858 186 872T179 898T165 916T139 923Z"  />

</font>
</defs>
</svg>
