<?xml version="1.0" standalone="no"?>
<!DOCTYPE svg PUBLIC "-//W3C//DTD SVG 1.1//EN" "http://www.w3.org/Graphics/SVG/1.1/DTD/svg11.dtd" >
<svg xmlns="http://www.w3.org/2000/svg">
<metadata>
This is a custom SVG webfont generated by Font Squirrel.
Copyright   : Copyright Gerard Mariscalchi 199198
</metadata>
<defs>
<font id="ComicStripPosterRegular" horiz-adv-x="1142" >
<font-face units-per-em="2048" ascent="1638" descent="-410" />
<missing-glyph horiz-adv-x="1024" />
<glyph unicode=" "  horiz-adv-x="1024" />
<glyph unicode="&#x09;" horiz-adv-x="1024" />
<glyph unicode="&#xa0;" horiz-adv-x="1024" />
<glyph unicode="!" horiz-adv-x="921" d="M156 88q0 78 87 152.5t251 74.5q90 0 154.5 -32.5t64.5 -100.5q0 -96 -120 -170.5t-214 -74.5q-223 -1 -223 151zM276 410q4 629 89 1157h479q-176 -541 -232 -1078q-43 -3 -336 -79z" />
<glyph unicode="&#x22;" horiz-adv-x="921" d="M164 1520q100 18 225 18q-12 -113 -12 -235q0 -78 6 -177q-78 -6 -197 -22q-22 174 -22 416zM526 1520q100 18 226 18q-12 -113 -13 -235q0 -78 6 -177q-78 -6 -196 -22q-23 174 -23 416z" />
<glyph unicode="#" horiz-adv-x="1687" d="M76 1098h55q74 0 279 8q0 49 -2 106.5t-5.5 127t-5.5 110.5q27 0 85.5 3t90.5 5l134 4q0 -14 12 -338q70 6 221 19q0 49 -5 160.5t-7 162.5q178 6 217 7q66 0 102 -3q0 -8 2 -123.5t4 -179.5q109 10 318 27q20 -154 22 -315q-178 -8 -333 -17q6 -84 6 -219 q47 4 162.5 13.5t175.5 13.5q20 -102 20 -324q-57 -4 -196.5 -11t-157.5 -7q0 -233 -6 -334l-299 -33q4 61 4 201v143q-12 0 -240 -12v-100q0 -152 -4 -209l-289 -31q4 139 4 231v95q-147 -8 -293 -9l-38 305h69q20 0 256 11q-2 37 -5 113.5t-5 113.5q-225 -8 -307 -8z M723 827q0 -37 1 -112.5t1 -114.5q168 10 236 16q-2 37 -4.5 112t-4.5 114q-77 -7 -229 -15z" />
<glyph unicode="$" horiz-adv-x="1351" d="M37 1059q0 182 133 311t322 174v187h286v-166q276 -10 428 -74l-119 -375q-164 78 -356 78q-340 0 -340 -137q0 -49 49 -70.5t127 -25t171 -4.5t187.5 -18t172.5 -57t127 -131.5t49 -230.5q0 -178 -136.5 -316t-359.5 -192v-200h-286v176q-279 10 -437 104q49 285 80 400 q51 -47 183.5 -93.5t252.5 -46.5q139 0 246 29t107 88q0 55 -38 84t-100.5 34t-142.5 8t-163 4t-162.5 25.5t-142 68.5t-100.5 137.5t-38 228.5z" />
<glyph unicode="%" horiz-adv-x="1515" d="M92 1165q0 143 111.5 257t267.5 114q121 0 197.5 -64.5t76.5 -154.5q0 -160 -110.5 -272.5t-294.5 -112.5q-113 0 -180.5 67.5t-67.5 165.5zM125 74q104 90 460.5 663.5t479.5 798.5q78 -59 223 -135q-4 -6 -178 -308t-394 -642t-399 -539q-96 72 -192 162zM324 1208 q0 -84 79 -84q47 0 79 43t32 93q0 76 -82 75q-43 0 -75.5 -42t-32.5 -85zM799 227q0 178 105.5 319.5t250.5 141.5q111 0 182.5 -80t71.5 -192q0 -201 -102.5 -340t-276.5 -139q-104 0 -167.5 83.5t-63.5 206.5zM1006 281q0 -96 75 -97q43 0 75 47.5t32 108.5q0 82 -76 82 q-41 0 -73.5 -46t-32.5 -95z" />
<glyph unicode="&#x26;" horiz-adv-x="1708" d="M86 379q0 123 70.5 228.5t218.5 209.5q-72 121 -93.5 197t-21.5 160q0 129 110.5 245.5t303.5 116.5q197 0 332 -112.5t135 -260.5q0 -127 -62.5 -217t-197.5 -172q96 -92 196 -166q80 98 131 271q137 -82 299 -136q-45 -154 -157 -317q117 -74 256 -129 q-25 -66 -92.5 -168t-133.5 -168q-141 72 -213 119q-47 31 -71 47q-207 -186 -506 -186q-242 0 -373 116.5t-131 321.5zM436 410q0 -63 47 -100.5t107 -37.5q121 0 237 72q-125 92 -262 244q-129 -100 -129 -178zM569 1145q0 -47 18.5 -84t76.5 -86q72 31 113.5 73t41.5 82 q0 45 -39 77t-98 32q-49 0 -81 -23.5t-32 -70.5z" />
<glyph unicode="'" horiz-adv-x="409" d="M33 1085q41 51 98 164t72 162q213 0 268 12q-33 -74 -115 -192.5t-139 -167.5q-151 16 -184 22z" />
<glyph unicode="(" horiz-adv-x="614" d="M127 580q0 287 46 506t153 497q66 -12 213 -14q-104 -598 -105 -955q0 -383 64 -735q-39 -2 -114 -6t-116 -4q-141 342 -141 711z" />
<glyph unicode=")" horiz-adv-x="655" d="M129 -117q104 598 104 955q0 383 -63 735q131 10 229 10q141 -342 142 -711q0 -287 -46 -506t-153 -497q-86 14 -213 14z" />
<glyph unicode="*" horiz-adv-x="679" d="M45 1278q59 68 92 135q35 -29 94 -57q-4 23 -8 121q12 -2 33 -2q70 0 133 8q-2 -12 -2 -47q0 -8 1 -24.5t1 -22.5q39 33 76 86q63 -49 117 -117q-12 -14 -101 -107q31 -14 78 -34.5t64 -26.5q-33 -98 -76 -160q-37 14 -96 43q14 -63 24 -121q-90 -29 -178 -28 q-2 8 -10 49t-15 74q-41 -41 -90 -78q-27 41 -106 135q43 29 110 96q-82 39 -141 78z" />
<glyph unicode="+" horiz-adv-x="1171" d="M109 758q162 0 307 8v111q0 76 -2 127t-6 88q141 2 278 32q2 -27 5 -140.5t7 -190.5q166 16 318 45q12 -63 18 -242q-215 -43 -344 -53v-58v-77q0 -78 -8 -177q-82 -20 -221 -20q-10 0 -25.5 1t-21.5 1q4 201 4 250v53q-141 -8 -295 -8v29q0 78 -14 221z" />
<glyph unicode="," horiz-adv-x="901" d="M61 -283q82 137 162 323.5t101 272.5q436 18 444 19q-43 -117 -153.5 -316.5t-213.5 -334.5q-252 11 -340 36z" />
<glyph unicode="-" horiz-adv-x="1171" d="M164 817q416 0 766 70q18 -154 18 -285q-346 -72 -766 -72q0 127 -18 287z" />
<glyph unicode="." horiz-adv-x="901" d="M201 164q0 100 103.5 181t223.5 81q113 0 173.5 -61.5t60.5 -143.5q0 -86 -88 -171t-223 -85q-250 0 -250 199z" />
<glyph unicode="/" horiz-adv-x="1083" d="M-27 12q602 846 936 1620q135 -74 260 -108q-201 -459 -423 -829.5t-545 -815.5q-63 35 -130 76t-98 57z" />
<glyph unicode="0" d="M14 653q0 313 160 546t401 233q219 0 375 -180.5t156 -501.5q0 -332 -157.5 -552.5t-438.5 -220.5q-219 0 -357.5 202t-138.5 474zM352 688q0 -178 61.5 -263t161.5 -85q94 0 153.5 114.5t59.5 274.5q0 53 -4 96t-17 91.5t-35.5 81t-62.5 54t-96 21.5q-92 0 -156.5 -120 t-64.5 -265z" />
<glyph unicode="1" d="M217 801l12 207q0 45 -8 79q106 35 163.5 98.5t90.5 178.5q227 0 387 47q-63 -457 -63 -856q0 -299 28 -555q-201 -2 -403 -20q0 539 49 931q-111 -108 -256 -110z" />
<glyph unicode="2" d="M70 1212q215 221 520 222q453 0 452 -400q0 -537 -778 -737q395 16 778 70q-25 -236 -24 -367q-207 12 -422 12q-178 0 -471 -12q0 266 -33 422q270 92 422 239.5t152 256.5q0 90 -39 128.5t-117 38.5q-180 0 -344 -153q-16 147 -96 280z" />
<glyph unicode="3" d="M8 158q123 137 205 270q141 -123 295 -123q88 0 144.5 35t56.5 104q0 59 -46.5 92t-119.5 33q-125 0 -228 -28q0 182 -73 358q172 61 327 160q-139 -14 -444 -17q-4 205 -23 340q311 0 490.5 16.5t378.5 61.5q31 -135 30 -381q-211 -180 -475 -295l2 -2q78 20 189 21 q150 0 249 -82t99 -238q0 -233 -155.5 -374.5t-379.5 -141.5q-299 1 -522 191z" />
<glyph unicode="4" d="M53 633q258 317 389 760q266 2 547 55q-70 -399 -74 -840q18 2 195 17v-47q0 -78 8 -238q-57 -8 -107 -14.5t-67 -8.5l-16 -2q0 -197 22 -329q-289 6 -319 6q-92 0 -105 -4v-2v2q0 164 13 305l-459 -14q0 186 -27 354zM360 582l201 6q14 219 70 551q-35 -129 -112 -288.5 t-159 -268.5z" />
<glyph unicode="5" d="M20 172q88 195 115 285q53 -74 141.5 -124t174.5 -50q111 0 174 45t63 125q0 84 -61.5 128t-155.5 44q-184 0 -321 -52q106 377 106 818q434 2 741 59q-55 -174 -55 -342q-250 -25 -379 -25q0 -125 -22 -209q41 20 139 21q174 0 276.5 -103.5t102.5 -318.5 q0 -137 -53.5 -238.5t-146.5 -158t-201.5 -82t-237.5 -25.5q-115 0 -221.5 57.5t-178.5 145.5z" />
<glyph unicode="6" d="M72 596q0 369 152.5 610.5t412.5 241.5q221 0 354 -76q-104 -135 -143 -301q-59 53 -191 53q-92 0 -173 -93t-109 -210q98 139 313 140q59 0 124 -27t128.5 -79t104 -148.5t40.5 -219.5q0 -133 -45 -235t-120.5 -161.5t-165.5 -89.5t-189 -30q-55 0 -115.5 16.5 t-130 61.5t-123 112.5t-89 180.5t-35.5 254zM467 449q0 -131 156 -132q55 0 97 55.5t42 127.5q0 139 -156 139q-61 0 -100 -55t-39 -135z" />
<glyph unicode="7" d="M49 1051q55 195 55 366q342 -18 523 -18q256 0 475 35q-20 -135 -21 -322q-223 -231 -351 -503.5t-181 -608.5q-207 0 -373 -25q45 340 176 613.5t363 509.5q-359 -6 -666 -47z" />
<glyph unicode="8" d="M57 369q0 127 76 228t209 194q-121 94 -163 167.5t-42 161.5q0 53 20.5 109.5t67.5 117t143.5 99.5t227.5 39q86 0 176 -32t162 -110.5t72 -187.5q0 -172 -215 -336q72 -47 102.5 -68.5t75.5 -62.5t61.5 -75.5t30.5 -88t14 -123.5q0 -158 -139 -292t-389 -134 q-236 0 -363 107t-127 287zM391 432q0 -61 53.5 -98t112.5 -35h6q78 2 124 44t46 91q0 51 -39 95t-143 108q-82 -63 -121 -109.5t-39 -95.5zM459 1102q0 -35 20.5 -63.5t91.5 -75.5q131 86 131 157q0 45 -32.5 74t-87.5 29q-123 0 -123 -121z" />
<glyph unicode="9" d="M74 184q121 100 176 209q82 -121 227 -121q92 0 156.5 73t89.5 165t25 186q-25 -109 -103 -175t-196 -66q-53 0 -110.5 24.5t-113 74.5t-90.5 145.5t-35 220.5q0 242 134.5 382t328.5 140q229 0 366.5 -150.5t137.5 -464.5q0 -379 -144.5 -614.5t-408.5 -235.5 q-172 0 -274.5 52.5t-165.5 154.5zM442 963q0 -184 113 -185q61 0 101 57.5t40 153.5q0 57 -36.5 92t-88.5 35q-53 0 -91 -45t-38 -108z" />
<glyph unicode=":" horiz-adv-x="942" d="M285 164q0 100 103.5 181t223.5 81q113 0 173.5 -61.5t60.5 -143.5q0 -86 -88 -171t-223 -85q-250 0 -250 199zM285 946q0 100 103.5 181t223.5 81q113 0 173.5 -61.5t60.5 -142.5q0 -86 -88 -171t-223 -85q-250 -1 -250 198z" />
<glyph unicode=";" horiz-adv-x="942" d="M61 -283q82 137 162 323.5t101 272.5q436 18 444 19q-43 -117 -153.5 -316.5t-213.5 -334.5q-252 11 -340 36zM291 942q0 100 103.5 181t223.5 81q113 0 173.5 -61.5t60.5 -143.5q0 -86 -88 -171t-223 -85q-250 0 -250 199z" />
<glyph unicode="&#x3c;" horiz-adv-x="1171" d="M158 737q301 326 563 785l221 -121q-74 -123 -217 -322.5t-236 -314.5q43 -45 117 -136t124 -158t141.5 -190.5t103.5 -138.5l-230 -123q-272 445 -587 719z" />
<glyph unicode="=" horiz-adv-x="1171" d="M135 1034q156 0 390.5 22.5t383.5 47.5q10 -102 11 -287q-90 -14 -367 -34.5t-393 -20.5zM166 561q156 0 390.5 22.5t383.5 47.5q0 -20 3 -72.5t5 -108t2 -106.5q-90 -14 -366.5 -34.5t-393.5 -20.5z" />
<glyph unicode="&#x3e;" horiz-adv-x="1171" d="M209 141q12 14 103 138t141.5 191t124 158t116.5 136q-92 115 -235.5 314.5t-216.5 322.5l221 121q262 -459 563 -785q-315 -274 -588 -719z" />
<glyph unicode="?" horiz-adv-x="1433" d="M29 1051q2 41 5 79.5t10 76.5t12 64.5t15.5 64.5t15.5 54.5t18.5 56.5t15.5 50q90 31 223 50.5t234 19.5q373 0 587.5 -105.5t214.5 -290.5q0 -111 -54 -205t-134 -152t-174 -100t-168 -58.5t-119 -16.5l-18 -176q-43 0 -79 1t-54.5 2t-30.5 1q-207 0 -281 -55l76 465 q485 18 485 210q0 106 -256 107q-272 0 -544 -143zM188 135q0 100 103.5 181t224.5 81q233 0 234 -204q0 -86 -88.5 -171t-223.5 -85q-250 -1 -250 198z" />
<glyph unicode="@" horiz-adv-x="2007" d="M78 770q0 281 135 502t346 335.5t451 114.5q252 0 435 -67.5t285.5 -189.5t149.5 -269t47 -330q0 -242 -131 -394.5t-321 -152.5q-242 0 -361 156q-111 -98 -276 -98q-133 0 -216 99t-83 237q0 215 131 361.5t301 146.5q106 0 182 -54l12 41q72 -16 252 -16 q-29 -68 -56.5 -189.5t-27.5 -201.5q0 -70 35 -108t88 -38q59 0 92 50.5t33 136.5q0 262 -151.5 406.5t-415.5 144.5q-254 0 -428 -185.5t-174 -437.5q0 -268 156.5 -419.5t445.5 -151.5q117 0 278 71q70 -160 125 -235q-199 -121 -495 -121q-373 0 -608.5 248t-235.5 608z M821 770q0 -123 92 -123q53 0 89 60.5t36 138.5q0 106 -86 106q-51 0 -91 -59.5t-40 -122.5z" />
<glyph unicode="A" horiz-adv-x="1376" d="M4 57q270 545 479 1438q180 66 437 74q207 -987 456 -1501q-260 -76 -383 -131q-25 63 -55.5 146t-40.5 112h-446q-88 -213 -113 -258q-156 81 -334 120zM575 524h213q-59 219 -86 447q-27 -136 -127 -447z" />
<glyph unicode="B" horiz-adv-x="1378" d="M82 0v1497q209 78 461 78q682 0 682 -375q0 -92 -63.5 -186t-153.5 -152q322 -119 321 -424q0 -471 -803 -471q-190 0 -444 33zM475 264h27q416 0 416 176q0 100 -108 143.5t-335 45.5v-365zM475 948q135 2 252 52.5t117 125.5q0 125 -240 125q-74 0 -129 -8v-295z" />
<glyph unicode="C" horiz-adv-x="1275" d="M55 674q0 211 73 382t195.5 276.5t279.5 161.5t333 56q76 0 151 -12l13 -457q-100 27 -201 27q-180 0 -303 -111.5t-123 -289.5q0 -176 103.5 -280.5t267.5 -104.5q193 0 330 110l61 -383q-197 -113 -490 -112q-141 0 -258.5 41.5t-196.5 111.5t-132.5 166t-78 200.5 t-24.5 217.5z" />
<glyph unicode="D" horiz-adv-x="1480" d="M78 0v1462q279 76 534 76q61 0 116.5 -4t142.5 -20.5t158 -44t147.5 -84t129 -131t87 -190.5t34.5 -259q0 -207 -87 -369t-236.5 -259t-334.5 -146t-394 -49q-174 0 -297 18zM475 360q238 4 399.5 119t161.5 314q0 106 -36.5 184t-101 120t-137.5 61.5t-159 19.5 q-78 0 -127 -11v-807z" />
<glyph unicode="E" horiz-adv-x="1155" d="M84 -23v1528q492 29 967 33l-39 -293q-53 4 -125 4q-158 0 -387 -14v-262q72 6 217 6h98q72 0 103 -2l-44 -313h-104q-137 0 -270 -11v-313q322 20 618 20l-57 -370q-158 10 -307 10h-52q-131 0 -202 -2q-262 -9 -416 -21z" />
<glyph unicode="F" horiz-adv-x="1013" d="M86 0v1466q446 51 985 64l-35 -373q-395 -8 -547 -24v-297q156 10 388 10l-31 -336q-213 -4 -357 -4v-520q-170 14 -403 14z" />
<glyph unicode="G" horiz-adv-x="1550" d="M63 670q0 391 222.5 629.5t543.5 238.5q254 0 385 -53l-124 -342q-115 39 -252 39q-152 0 -272 -127t-120 -361q0 -223 87.5 -322.5t230.5 -99.5q104 0 174 85t70 200q-219 -33 -365 -65l29 307q311 72 878 157l-30 -315q-80 -10 -107 -18q-76 -702 -692 -703 q-129 0 -245 45t-209 133t-148.5 236t-55.5 336z" />
<glyph unicode="H" horiz-adv-x="1452" d="M-2 852q100 16 182 27v630q162 29 395 29q-18 -227 -18 -608q96 10 418 33v548q117 23 381 23v-207q0 -836 26 -1327q-379 -16 -407 -18v641q-201 -6 -414 -23l2 -610q-88 10 -297 10h-86v571q-90 -8 -170 -22z" />
<glyph unicode="I" horiz-adv-x="686" d="M145 -18v1542q215 18 381 22q-12 -334 -12 -622q0 -430 39 -924q-154 0 -408 -18z" />
<glyph unicode="J" horiz-adv-x="1114" d="M-27 436l340 127q2 -137 47.5 -216t120.5 -79q96 0 139.5 123t43.5 418v57v29l-13 635q129 18 400 41v-723q0 -909 -611 -909q-195 0 -331 135t-136 362z" />
<glyph unicode="K" horiz-adv-x="1253" d="M74 -20v1521q199 37 356 47v-600q98 180 264 341t357 274l159 -277q-307 -188 -526 -483q84 -125 250 -288t317 -259l-225 -315q-174 113 -334 281.5t-262 340.5v-565h-45q-104 0 -311 -18z" />
<glyph unicode="L" horiz-adv-x="927" d="M51 -20v1525q168 29 383 45v-1173q229 27 537 33l-94 -410q-451 0 -826 -20z" />
<glyph unicode="M" horiz-adv-x="1771" d="M57 10l320 1491q137 29 389 37l131 -932l285 930q225 0 383 -27l164 -1509q-213 0 -404 -25l-65 885l-242 -860q-203 -10 -328 -27l-119 762l-120 -762q-218 25 -394 37z" />
<glyph unicode="N" horiz-adv-x="1314" d="M78 -33v1534q166 33 389 45l418 -899v852q170 35 375 45q-39 -569 -39 -1544q-195 -12 -361 -35l-430 907q12 -547 25 -872q-254 -15 -377 -33z" />
<glyph unicode="O" horiz-adv-x="1472" d="M47 711q0 197 67.5 361.5t176 269t240 162t264.5 57.5q154 0 270.5 -46.5t186 -119t113.5 -176t59.5 -204t15.5 -216.5q0 -352 -201 -596t-539 -244q-309 0 -481 202t-172 550zM467 713q0 -150 67.5 -238t180.5 -88q139 0 224 119t85 262q0 158 -68.5 241t-179.5 83 q-143 0 -226 -109.5t-83 -269.5z" />
<glyph unicode="P" horiz-adv-x="1329" d="M61 -31v1534q328 66 603 66q94 0 179 -11.5t174 -42t152.5 -81t104.5 -133t41 -191.5q0 -291 -246 -513t-620 -253v-338q-75 -12 -388 -37zM449 713q154 10 289.5 111.5t135.5 222.5q0 154 -251 153q-94 0 -174 -29v-458z" />
<glyph unicode="Q" horiz-adv-x="1474" d="M49 711q0 197 67.5 361.5t176 269t240 162t264.5 57.5q154 0 270.5 -46.5t186 -119t113.5 -176t59.5 -204t15.5 -216.5q0 -338 -178 -570l215 -321l-312 -199l-168 311q-135 -61 -297 -61q-309 0 -481 202t-172 550zM408 715q0 -180 81.5 -288t219.5 -108q61 0 116 23 l-102 186l242 154l75 -113q43 102 43 213q0 190 -84 291t-217 101q-174 0 -274 -132t-100 -327z" />
<glyph unicode="R" horiz-adv-x="1357" d="M76 0v1473q297 66 594 65q141 0 257.5 -19.5t214 -61.5t153 -115.5t55.5 -176.5q0 -184 -156 -328.5t-340 -191.5l492 -420l-240 -288l-655 610v-547h-375zM451 797q80 12 164.5 38.5t169.5 91t85 146.5q0 57 -60 89t-140 32q-113 0 -219 -23v-374z" />
<glyph unicode="S" horiz-adv-x="1497" d="M59 1038q0 74 19.5 140.5t76 138.5t145.5 123t243.5 85t357.5 34q209 0 453 -31l-119 -400q-262 61 -490 62q-313 0 -313 -133q0 -49 55.5 -78t143.5 -42t194.5 -24.5t212 -37t193.5 -67.5t143.5 -126t55.5 -203q0 -160 -116 -275.5t-304.5 -173t-423.5 -57.5 q-272 0 -484 66l121 385q86 -39 227.5 -62.5t249.5 -23.5q133 0 216 19.5t108 41t25 45.5q0 41 -54.5 63.5t-141.5 34t-193.5 24t-212 41t-192.5 74.5t-141.5 138t-54.5 219z" />
<glyph unicode="T" horiz-adv-x="1271" d="M-4 1141l49 368q504 39 1135 39h106l-61 -329q-254 -8 -359 -15l-90 -1204q-186 0 -426 -16l103 1198q-217 -12 -457 -41z" />
<glyph unicode="U" horiz-adv-x="1456" d="M57 696q0 406 125 842l385 -102q-117 -395 -116 -744q0 -182 78.5 -271t215.5 -89q131 0 200 97t69 263v10q0 147 -17 291q-2 8 -3 19.5t-1 19.5q-6 70 -18 152q-2 10 -41 256q233 45 385 98q88 -475 88 -842q0 -127 -17.5 -231.5t-62.5 -204.5t-119.5 -170 t-196.5 -111.5t-282 -41.5q-197 0 -334 61t-207.5 173t-100.5 238.5t-30 286.5z" />
<glyph unicode="V" horiz-adv-x="1302" d="M-29 1518l500 26q135 -457 177 -634t50 -310q10 180 47 339t183 607l432 -20l-465 -1526l-422 -41q-164 816 -502 1559z" />
<glyph unicode="W" horiz-adv-x="1732" d="M0 1499q244 39 444 45l74 -735l174 571q156 61 342 80l99 -633l219 719q180 -6 409 -30l-481 -1516q-174 0 -381 -16l-80 723l-209 -730q-203 23 -381 23z" />
<glyph unicode="X" horiz-adv-x="1359" d="M-76 23l527 772l-488 704l479 82l263 -416l272 400q182 -6 401 -72l-465 -664l476 -757q-166 -27 -377 -90l-344 497l-361 -512q-211 48 -383 56z" />
<glyph unicode="Y" horiz-adv-x="1253" d="M-12 1417q174 88 344 129l297 -549l280 519q106 18 281 18q55 0 129 -4l-524 -926l6 -604q-254 0 -383 -14v663z" />
<glyph unicode="Z" horiz-adv-x="1196" d="M-35 0l60 395l798 793l-688 -25l43 350l1059 23q-84 -223 -88 -473l-707 -721l736 18q-66 -215 -66 -360h-1147z" />
<glyph unicode="[" horiz-adv-x="1064" d="M133 1880q324 23 807 98q14 -100 14 -323q-244 -37 -450 -53q-8 -336 -8 -785q0 -184 2 -504.5t2 -441.5q252 20 465 59q14 -209 14 -315q-377 -72 -807 -72q0 45 1 135.5t1 137.5q0 364 -41 2064z" />
<glyph unicode="\" horiz-adv-x="1083" d="M-51 1524q125 35 260 108q334 -774 936 -1620q-31 -16 -97.5 -57t-129.5 -76q-324 444 -546 815t-423 830z" />
<glyph unicode="]" horiz-adv-x="1064" d="M113 -406q6 39 14 133.5t20 190.5q25 0 70 1t66 1q123 0 307 -10q0 94 2 407.5t2 503.5q0 485 -8 821q-213 16 -451 17q0 223 15 323h53q348 2 755 -45q-4 -139 -17 -648t-19.5 -838.5t-6.5 -630.5q0 -47 1.5 -137.5t1.5 -135.5q-383 47 -805 47z" />
<glyph unicode="^" horiz-adv-x="942" d="M70 821q123 45 199.5 143.5t129.5 295.5l160 43q41 -199 110.5 -318t192.5 -205q-10 -88 -29.5 -209.5t-27.5 -218.5q-276 190 -322 486q-47 -164 -143 -281t-221 -176q-6 82 -12.5 142.5t-17.5 142t-19 155.5z" />
<glyph unicode="_" horiz-adv-x="1433" d="M0 -367h1434v-208h-1434v208z" />
<glyph unicode="`" horiz-adv-x="1433" d="M262 1778l291 231q82 -117 195.5 -234.5t203.5 -177.5l-223 -170q-211 128 -467 351z" />
<glyph unicode="a" horiz-adv-x="1425" d="M80 401q0 201 115.5 328t345.5 127q143 0 229 -40t168 -124q0 162 -80 223.5t-240 61.5q-174 0 -356 -51l-41 293q236 84 580 84q207 0 345 -126t140 -364v-45q0 -88 -3 -219t-3 -164q0 -283 86 -360q-193 0 -451 -50q-10 78 -10 95q-197 -88 -467 -88 q-131 0 -244.5 114.5t-113.5 304.5zM395 432q0 -53 62.5 -79.5t140.5 -26.5q143 0 299 43q-182 156 -348 155q-78 0 -116 -27.5t-38 -64.5z" />
<glyph unicode="b" horiz-adv-x="1404" d="M88 2v1659q186 49 418 51q-39 -430 -49 -727q47 127 163.5 207t270.5 80q86 0 165 -31t149.5 -96.5t113.5 -190.5t43 -292q0 -309 -187.5 -501t-443.5 -192q-74 0 -244 17q-120 10 -399 16zM436 451q121 -84 242 -84q145 0 221 70.5t76 180.5q0 98 -54.5 150.5 t-138.5 52.5q-123 0 -214 -95t-132 -275z" />
<glyph unicode="c" horiz-adv-x="1189" d="M63 569q0 338 217.5 542t548.5 204q131 0 287 -37q-63 -190 -69 -360q-94 35 -191 34q-168 0 -277.5 -91t-109.5 -245q0 -127 103.5 -200.5t228.5 -73.5q150 0 262 55q31 -168 111 -321q-203 -115 -510 -115q-115 0 -219.5 37t-191.5 108.5t-138.5 191t-51.5 271.5z" />
<glyph unicode="d" horiz-adv-x="1460" d="M72 606q0 332 152.5 508t398.5 176q215 0 344 -108v493q158 25 385 41q-16 -485 -17 -885q0 -412 45 -835q-215 0 -413 -41v119q-150 -115 -377 -115q-92 0 -177 33t-165 103.5t-128 202.5t-48 308zM440 606q-2 -156 86 -229.5t215 -73.5q123 0 226 88v354 q-127 156 -275 156q-115 0 -182.5 -90t-69.5 -197v-8z" />
<glyph unicode="e" horiz-adv-x="1386" d="M92 664q0 139 41 256.5t106.5 195.5t148.5 132.5t165 79t160 24.5q137 0 243.5 -39t190.5 -126t129 -241.5t45 -372.5l-813 -67q41 -92 130 -140.5t198 -48.5q195 0 358 86q20 -170 92 -290q-113 -74 -233.5 -105t-300.5 -31q-289 0 -474.5 173.5t-185.5 513.5zM481 782 l477 39q-27 184 -202 185q-96 0 -174 -57.5t-101 -166.5z" />
<glyph unicode="f" horiz-adv-x="1054" d="M66 881l188 14v336q0 61 10 118.5t42 124t81 114.5t138 80t204 32q348 0 500 -230q-123 -135 -197 -262q-100 131 -225 131q-39 0 -64.5 -7t-51 -30.5t-42 -67.5t-26 -120t-9.5 -184l430 37q-16 -158 -16 -349l-405 -32v-39q0 -12 -1 -25q0 -216 33 -522 q-236 -6 -413 -31l4 578l-176 -12q8 131 8 180q0 60 -12 166z" />
<glyph unicode="g" horiz-adv-x="1372" d="M55 713q0 150 47.5 266.5t124 185t167.5 104.5t188 36q203 0 311 -76q12 80 18 94l398 -27q-70 -203 -70 -579v-125q0 -219 10 -381q12 -227 13 -252q0 -125 -39 -217t-97.5 -143.5t-148.5 -81t-170 -38.5t-182 -9q-193 0 -323 28.5t-245 98.5q96 154 131 366 q199 -129 482 -129q113 0 168 65.5t55 151.5v109q-84 -78 -246 -78q-78 0 -155.5 18.5t-157.5 65.5t-141.5 116.5t-99.5 181.5t-38 249zM446 737q0 -135 59.5 -220t176.5 -85q90 0 145.5 57.5t55.5 165.5q0 135 -60.5 214t-163.5 79q-213 0 -213 -211z" />
<glyph unicode="h" horiz-adv-x="1343" d="M94 2v1659q186 49 418 51q-39 -430 -49 -727q160 287 428 287q178 0 271 -131t93 -479q0 -240 -41 -662h-374q27 131 26 616q0 47 -6 89.5t-23.5 92.5t-56.5 79.5t-94 29.5q-113 0 -169 -112.5t-56 -251.5q0 -168 33 -557q-121 10 -400 16z" />
<glyph unicode="i" horiz-adv-x="651" d="M109 1419q0 100 102 193.5t272 93.5q43 0 81 -29.5t38 -95.5q0 -80 -114.5 -180.5t-249.5 -100.5q-57 0 -93 34t-36 85zM129 0q37 549 37 864q0 115 -4 275q219 0 381 51q-6 -227 -6 -537q0 -440 14 -671z" />
<glyph unicode="j" horiz-adv-x="663" d="M-303 -492q51 221 51 381q86 -63 178 -63q121 0 162 158.5t41 560.5q0 252 -27 749q201 14 439 95q-20 -831 -21 -1119q0 -446 -153.5 -645.5t-444.5 -199.5q-82 -1 -225 83zM72 1518q0 100 102 193t272 93q45 0 83 -29.5t38 -95.5q0 -80 -114.5 -181t-251.5 -101 q-57 0 -93 34t-36 87z" />
<glyph unicode="k" horiz-adv-x="1153" d="M59 2v1659q186 49 418 51q-39 -430 -49 -727q131 100 360 385q66 -45 156 -121q68 -55 111 -94q-174 -233 -289 -332q96 -162 230 -331.5t247 -274.5q-160 -147 -262 -278q-78 57 -232.5 263t-259.5 392q-39 -45 -63 -66q0 -154 33 -542q-121 10 -400 16z" />
<glyph unicode="l" horiz-adv-x="649" d="M119 0v1688q197 25 360 24h39q-4 -172 -10 -727v-98q0 -270 18 -901q-257 14 -407 14z" />
<glyph unicode="m" horiz-adv-x="1974" d="M94 2v1225q172 43 383 45q-8 -121 -14 -287q47 127 151.5 207t214.5 80q133 0 226.5 -84t118.5 -254q31 121 127 217t221 96q70 0 124 -12t109 -50t90 -100.5t57.5 -170t22.5 -252.5q0 -276 -39 -678l-377 16q27 131 27 616q0 45 -7 89.5t-23.5 93.5t-52.5 78.5t-85 29.5 q-176 0 -176 -364q0 -96 12 -543l-428 -16l2 16q10 84 18.5 303t8.5 313q0 47 -5 90.5t-20.5 92.5t-48.5 78.5t-82 29.5q-188 0 -188 -364q0 -168 33 -557q-121 10 -400 16z" />
<glyph unicode="n" horiz-adv-x="1482" d="M113 2v1225q172 43 397 45q-25 -174 -25 -336q35 135 159 223t290 88q90 0 160.5 -22.5t138 -81t105.5 -181t38 -300.5q0 -276 -39 -678l-403 16q27 266 27 551q0 43 -8.5 94t-30 114.5t-69.5 105.5t-116 42q-225 0 -225 -364q0 -162 14 -557q-225 12 -413 16z" />
<glyph unicode="o" horiz-adv-x="1411" d="M70 594q0 293 191.5 497.5t508.5 204.5q250 0 404.5 -165.5t154.5 -415.5q0 -139 -42 -267.5t-123 -232.5t-217 -166.5t-308 -62.5q-260 0 -414.5 160.5t-154.5 447.5zM457 637q0 -152 61.5 -224.5t167.5 -72.5q129 0 204 98.5t75 225.5q0 147 -57.5 215.5t-180.5 68.5 q-115 0 -192.5 -93t-77.5 -218z" />
<glyph unicode="p" horiz-adv-x="1435" d="M129 -500v1727q172 43 383 45q-25 -174 -25 -336q98 311 428 311q227 0 354.5 -161.5t127.5 -421.5q0 -272 -172 -454.5t-402 -182.5q-203 0 -323 114q10 -295 28 -657q-120 10 -399 16zM496 473q0 -166 4 -272l114 200q55 -55 144 -55q117 0 180 77t63 175 q0 287 -233 287q-121 0 -196.5 -115t-75.5 -297z" />
<glyph unicode="q" horiz-adv-x="1384" d="M92 808q14 81 50 164t91.5 143.5t145.5 98t207 37.5q211 0 317 -131v123q211 27 383 29q-16 -242 -16 -674v-125q0 -465 35 -973q-279 -6 -400 -16v657q-41 -45 -126 -76.5t-173 -31.5q-221 0 -376 163q-153 161 -152 436q0 95 14 176zM442 637q0 -104 71 -186t165 -82 q156 0 225 114v342q-70 102 -196 103q-129 0 -197 -86t-68 -205z" />
<glyph unicode="r" horiz-adv-x="976" d="M78 2v1225q172 43 397 45q-14 -88 -20 -199q66 82 185.5 128t258.5 46q115 0 197 -37q-162 -180 -267 -467q-57 133 -165 134q-186 0 -187 -334q0 -162 15 -557q-226 12 -414 16z" />
<glyph unicode="s" horiz-adv-x="1368" d="M109 850q2 199 172 333t479 134q207 0 397 -49l-104 -320q-139 35 -267 35q-90 0 -175 -23.5t-85 -74.5q0 -35 44 -48.5t114 -15.5t154 -2t169 -14t154.5 -47t113.5 -108t44 -185q0 -164 -96.5 -278.5t-234.5 -164t-296 -49.5q-207 0 -325.5 25t-251.5 80l112 323 q178 -109 422 -108q115 0 200 30.5t85 88.5q0 51 -62 72q-52 18 -124 18h-29q-31 -1 -63 -2q-65 0 -137 6q-108 8 -199 30.5t-151 102.5t-60 211z" />
<glyph unicode="t" horiz-adv-x="933" d="M-33 872q16 158 17 349l198 18v217q209 4 383 29q-12 -203 -12 -209l369 31q-8 -131 -9 -181q0 -57 13 -165l-383 -35v-185q0 -176 20.5 -265t58 -117.5t113.5 -28.5q59 0 109 14q33 -197 106 -340q-135 -35 -293 -35q-115 0 -203.5 32t-138 80t-81 114.5t-42 124 t-10.5 118.5v455l-141 -14z" />
<glyph unicode="u" horiz-adv-x="1431" d="M102 449q0 78 18.5 283.5t18.5 330.5q0 80 -6 166q160 35 389 45q6 -66 6 -133q0 -129 -23.5 -336t-23.5 -254q0 -115 47 -166t146 -51q76 0 139.5 34.5t85.5 84.5q4 373 64 764q182 39 403 53q-70 -342 -70 -668q0 -307 76 -504q-174 -45 -389 -127q-31 80 -41 150 q-182 -150 -387 -150q-209 0 -331 131.5t-122 346.5z" />
<glyph unicode="v" horiz-adv-x="1232" d="M-35 1180q248 94 402 139q90 -195 159.5 -468t87.5 -491q18 201 97.5 494t158.5 483q190 -49 414 -125q-74 -143 -141.5 -312t-100 -265t-104.5 -327.5t-96 -307.5h-484q-2 10 -37.5 146.5t-46 171t-44 155.5t-55 183.5t-57.5 164t-73 187.5t-80 172z" />
<glyph unicode="w" horiz-adv-x="1777" d="M90 1180q213 61 432 96q41 -375 49 -914q86 385 250 891q170 37 330 45q6 -442 23 -849q53 199 144 477t142 397q209 -55 357 -135q-242 -557 -377 -1188q-219 0 -527 -39q0 8 -39 547q-94 -367 -133 -537q-166 18 -249 19q-115 0 -242 -13q-8 209 -57.5 578t-102.5 625z " />
<glyph unicode="x" horiz-adv-x="1167" d="M12 1087q217 131 369 240l272 -340l230 328q215 -102 336 -144l-328 -479l395 -485q-190 -133 -307 -260l-328 385l-262 -381q-96 55 -356 155l366 521z" />
<glyph unicode="y" horiz-adv-x="1366" d="M113 1253q201 18 428 80l229 -766q49 367 234 756l405 -88q-98 -205 -186 -448.5t-137.5 -415.5t-116 -345t-134 -279.5t-179 -172.5t-263.5 -66q-63 178 -160 345q86 0 183.5 57t130.5 141z" />
<glyph unicode="z" horiz-adv-x="1236" d="M14 197q203 287 666 753q-375 -14 -580 -63q49 262 82 366q381 63 1043 64q-25 -184 -84 -410q-113 -74 -235 -191.5t-197.5 -206.5t-176.5 -216q240 20 510 20q129 0 244 -20q-70 -233 -139 -373q-242 47 -592 47q-236 0 -526 -30q-15 74 -15 260z" />
<glyph unicode="{" horiz-adv-x="946" d="M133 725l14 121h70q68 0 68 135q0 86 -23.5 205t-23.5 213q0 131 74.5 198.5t185.5 67.5q147 0 231 -27l-47 -245q-84 16 -111 16h-14q-35 0 -60.5 -27.5t-25.5 -60.5q0 -59 23 -160q20 -86 20 -164q0 -131 -106 -206q117 -47 116 -187q0 -57 -39 -229q-23 -104 -22 -129 v-10q0 -68 57 -68q72 0 178 14l-26 -256q-141 -23 -226 -22q-111 0 -166 65.5t-55 171.5q0 100 27 231.5t27 258.5q0 41 -25 68.5t-57 27.5h-2z" />
<glyph unicode="|" horiz-adv-x="532" d="M158 -84q6 362 6 746q0 190 -2 514.5t-2 445.5l215 10q0 -571 33 -1706z" />
<glyph unicode="}" horiz-adv-x="946" d="M223 -70l47 246q84 -16 111 -16h14q35 0 60.5 27.5t25.5 60.5q0 59 -22 160q-20 86 -21 163q0 131 107 207q-117 47 -117 187q0 57 39 229q23 104 22 129v10q0 68 -57 68q-72 0 -178 -15l27 256q141 23 225 23q111 0 166 -65.5t55 -172.5q0 -100 -26.5 -231t-26.5 -258 q0 -41 24.5 -68.5t57.5 -27.5h2l61 2l-14 -121h-70q-68 0 -67 -135q0 -86 23.5 -205t23.5 -213q0 -131 -75 -198.5t-185 -67.5q-148 -1 -232 26z" />
<glyph unicode="~" horiz-adv-x="940" d="M-4 864q100 66 207 66q125 0 229 -56q135 -72 246 -71q127 0 201 74q45 -109 63 -252q-35 -45 -95.5 -72t-117.5 -27q-88 0 -225 68q-86 43 -209 43q-131 0 -236 -55q-22 186 -63 282z" />
<glyph unicode="&#xa1;" horiz-adv-x="921" d="M-2 -197q59 535 231 1078q33 4 83 15t132 31.5t142 33.5q-82 -522 -88 -1158h-500zM188 1202q0 80 64.5 135.5t135.5 74t134 18.5q223 0 223 -152q0 -78 -87 -152.5t-250 -74.5q-86 0 -153 40.5t-67 110.5z" />
<glyph unicode="&#xa2;" horiz-adv-x="1171" d="M53 584q0 209 135.5 374.5t348.5 258.5q4 154 16 258q125 29 233 28q-6 -92 -10 -219q76 10 133 10q49 0 72 -4q12 -68 12 -178q0 -72 -20 -168q-63 8 -125 8q-193 0 -324 -114q-109 -96 -108 -240q0 -74 76.5 -123t191.5 -49q186 0 367 111q55 -166 77 -349 q-147 -72 -378 -86q-4 -80 -13 -155q-125 -29 -233 -29q6 82 10 191q-221 18 -341 168.5t-120 306.5z" />
<glyph unicode="&#xa3;" horiz-adv-x="1351" d="M45 592v266q72 0 160 8q0 172 43 306.5t115.5 211t157.5 115.5t177 39q180 0 278.5 -43t215.5 -172l-195 -233q-47 84 -103 120.5t-144 36.5q-80 0 -120 -105.5t-44 -260.5q154 4 305 6q0 -23 -1 -51.5t-4 -91t-5 -128.5q-233 0 -293 -2q-6 -207 -19 -309q272 41 691 41 q-16 -45 -40 -100.5t-36.5 -85t-25.5 -71.5t-21 -89q-504 0 -992 -63q57 410 58 665q-66 0 -158 -10z" />
<glyph unicode="&#xa4;" horiz-adv-x="1351" d="M51 514l33 203l74 8q10 43 20 72q-31 -2 -115 -11l31 205q20 2 54 4t63 4l57 5q135 276 394.5 405t691.5 129l-97 -307q-176 0 -326.5 -49t-234.5 -140q315 39 523 70q-12 -59 -50 -219q-569 -61 -608 -66q-18 -35 -31 -77q248 25 598 75q-2 -63 -49 -213 q-313 -39 -577 -59q4 -121 74.5 -199t177.5 -78q205 0 342 93l164 -293q-80 -51 -233 -95t-322 -44q-117 0 -216.5 29.5t-183.5 91t-132 169t-48 250.5q0 29 2 45z" />
<glyph unicode="&#xa5;" horiz-adv-x="1351" d="M16 1317q131 61 365 98q94 -293 297 -622q193 342 262 606q254 12 379 33q-143 -346 -293 -619q29 0 84 1t80 1q-25 -117 -25 -229q-20 0 -66 -2t-121 -4t-118 -5v-83q250 8 330 8q-25 -90 -25 -217q-49 0 -153.5 -3.5t-149.5 -3.5v-323q-111 12 -182 12q-78 0 -170 -10 v297q-217 -16 -332 -33q0 156 -28 215q217 25 366 37v84q-274 -27 -338 -33q0 141 -28 228q39 4 190 18q-224 334 -324 549z" />
<glyph unicode="&#xa7;" horiz-adv-x="1228" d="M111 1241q0 129 88 217t226 125t318 37q94 0 167 -10.5t99.5 -18.5t94.5 -30l-131 -310q-176 70 -352 70q-201 0 -201 -74q0 -39 72.5 -63.5t177 -42t208 -45t176 -93t72.5 -165.5q0 -158 -172 -269q186 -84 187 -229q0 -182 -174 -291.5t-459 -109.5q-207 0 -387 88 q6 55 57 290q68 -45 168 -75.5t176 -30.5q301 0 301 76q0 37 -52 61.5t-129 36.5t-168 35.5t-168 55.5t-129 100.5t-52 166.5q0 160 129 252q-143 86 -143 246zM442 797q0 -76 86 -103q18 -6 62 -16q25 -6 53 -12q66 14 112 44.5t46 59.5q0 37 -30 53.5t-128 46.5 q-49 14 -129 25q-35 -20 -53.5 -49t-18.5 -49z" />
<glyph unicode="&#xa8;" horiz-adv-x="1433" d="M219 1632q0 113 73 207t175 94q61 0 115.5 -44t54.5 -146q0 -123 -71.5 -209t-192.5 -86q-61 0 -107.5 53t-46.5 131zM838 1632q0 113 71.5 207t175.5 94q59 0 112.5 -44t53.5 -146q0 -123 -71.5 -209t-190.5 -86q-59 0 -105 53t-46 131z" />
<glyph unicode="&#xa9;" horiz-adv-x="2015" d="M78 770q0 281 135 502t346 335.5t451 114.5q252 0 435 -67.5t285.5 -189.5t149.5 -269t47 -330q0 -199 -58.5 -366.5t-175 -300.5t-314 -209t-457.5 -76q-373 0 -608.5 248t-235.5 608zM391 770q0 -283 167 -437.5t456 -154.5t438.5 189.5t149.5 474.5q0 260 -153 415.5 t-435 155.5q-180 0 -325.5 -95t-221.5 -240.5t-76 -307.5zM543 766q0 250 144 389t341 139q215 0 291 -114l-154 -185q-45 39 -149 39q-84 0 -154.5 -69.5t-70.5 -161.5q0 -145 71.5 -210t184.5 -65q92 0 157 41l131 -137q-117 -137 -323 -137q-205 0 -337 120t-132 351z " />
<glyph unicode="&#xaa;" horiz-adv-x="901" d="M20 852q106 -6 213 -6q197 0 455 22q12 -90 12 -166q-225 -25 -456 -24q-104 0 -211 6q-1 70 -13 168zM31 1214q0 143 91 232.5t236 89.5q102 0 150 -53q0 4 1 22.5t3 30.5q18 2 63 2q63 0 103 -4q-20 -68 -21 -287q0 -154 13 -311q-133 0 -170 -6q0 16 -1 40.5t-1 28.5 q-74 -68 -183 -67q-131 0 -207.5 82.5t-76.5 199.5zM215 1210q0 -66 37 -100.5t90 -34.5q61 0 103 44t42 134q0 53 -35.5 89t-91.5 36q-61 0 -103 -43t-42 -125z" />
<glyph unicode="&#xab;" horiz-adv-x="1843" d="M6 643q289 313 596 850q72 -131 121 -180q55 -55 133 -90q-100 -168 -489 -539q115 -92 271.5 -244.5t229.5 -249.5q-51 -37 -95 -75.5t-64.5 -61t-60.5 -67.5t-54 -62q-273 445 -588 719zM717 643q289 313 596 850q72 -131 121 -180q55 -55 133 -90q-100 -168 -490 -539 q115 -92 271.5 -244.5t230.5 -249.5q-51 -37 -95 -75.5t-64.5 -61t-60.5 -67.5t-54 -62q-273 445 -588 719z" />
<glyph unicode="&#xad;" horiz-adv-x="1171" d="M164 817q416 0 766 70q18 -154 18 -285q-346 -72 -766 -72q0 127 -18 287z" />
<glyph unicode="&#xae;" horiz-adv-x="2015" d="M78 770q0 281 135 502t346 335.5t450.5 114.5t420 -67.5t287 -188t158.5 -271.5t52 -329q0 -199 -58.5 -366.5t-175 -300.5t-314 -209t-457.5 -76q-373 0 -608.5 248t-235.5 608zM391 770q0 -283 167 -437.5t456 -154.5t438.5 189.5t149.5 474.5q0 260 -153 415.5 t-435 155.5q-180 0 -325.5 -95t-221.5 -240.5t-76 -307.5zM623 371q41 205 41 422q0 190 -19 376q172 80 410 80q178 0 280.5 -70.5t102.5 -181.5q0 -240 -269 -340q49 -53 121 -100t111 -55q-66 -70 -219 -176q-109 78 -240 229q-2 -98 -20 -215q-145 0 -299 31zM934 995 q10 -51 10 -176q76 4 139.5 46t63.5 93q0 27 -27.5 46.5t-83.5 19.5q-49 0 -102 -29z" />
<glyph unicode="&#xaf;" horiz-adv-x="1433" d="M283 1708q94 6 427.5 31.5t477.5 29.5l6 -268q-53 -2 -104 -2h-35q-199 0 -752 -45z" />
<glyph unicode="&#xb0;" horiz-adv-x="1228" d="M160 1214q0 129 93 225.5t234 96.5q139 0 225.5 -79t86.5 -197q0 -141 -93.5 -234.5t-261.5 -93.5q-131 0 -207.5 82.5t-76.5 199.5zM365 1210q0 -53 28.5 -83.5t77.5 -30.5q61 0 93 42t32 115q0 49 -30.5 77t-76.5 28q-57 0 -90.5 -41t-33.5 -107z" />
<glyph unicode="&#xb2;" d="M70 1212q215 221 520 222q453 0 452 -400q0 -537 -778 -737q395 16 778 70q-25 -236 -24 -367q-207 12 -422 12q-178 0 -471 -12q0 266 -33 422q270 92 422 239.5t152 256.5q0 90 -39 128.5t-117 38.5q-180 0 -344 -153q-16 147 -96 280z" />
<glyph unicode="&#xb3;" d="M8 158q123 137 205 270q141 -123 295 -123q88 0 144.5 35t56.5 104q0 59 -46.5 92t-119.5 33q-125 0 -228 -28q0 182 -73 358q172 61 327 160q-139 -14 -444 -17q-4 205 -23 340q311 0 490.5 16.5t378.5 61.5q31 -135 30 -381q-211 -180 -475 -295l2 -2q78 20 189 21 q150 0 249 -82t99 -238q0 -233 -155.5 -374.5t-379.5 -141.5q-299 1 -522 191z" />
<glyph unicode="&#xb4;" horiz-adv-x="1433" d="M385 1610q225 131 430 411l334 -243q-264 -229 -498 -351z" />
<glyph unicode="&#xb6;" horiz-adv-x="1802" d="M307 1030q0 172 108.5 291t260 168t323.5 49q229 0 752 -86q-6 -184 -6 -455q0 -348 53 -1572q-285 29 -424 63q-49 872 -49 1417v115q0 121 4 192q-100 18 -186 19q-92 0 -165 -60.5t-73 -175.5q0 -104 76 -183t174 -114q4 -158 51 -1276q-285 29 -424 64 q-10 569 -32 1014q-443 186 -443 530z" />
<glyph unicode="&#xb8;" horiz-adv-x="1433" d="M250 -369q63 109 156 308q98 -10 210 -11q86 0 162 9q-43 -98 -168 -355q-170 0 -360 49z" />
<glyph unicode="&#xb9;" d="M217 801l12 207q0 45 -8 79q106 35 163.5 98.5t90.5 178.5q227 0 387 47q-63 -457 -63 -856q0 -299 28 -555q-201 -2 -403 -20q0 539 49 931q-111 -108 -256 -110z" />
<glyph unicode="&#xba;" horiz-adv-x="901" d="M20 836q455 0 668 53q12 -90 12 -166q-207 -55 -667 -55q-1 70 -13 168zM31 1214q0 129 93 225.5t234 96.5q139 0 225.5 -79t86.5 -197q0 -141 -93.5 -234.5t-261.5 -93.5q-131 0 -207.5 82.5t-76.5 199.5zM215 1210q0 -66 37 -100.5t90 -34.5q61 0 103 44t42 134 q0 53 -35.5 89t-91 36t-100.5 -43t-45 -125z" />
<glyph unicode="&#xbb;" horiz-adv-x="1843" d="M266 190q74 96 230.5 249t271.5 245q-389 371 -489 539q53 25 93 53.5t72.5 74.5t44 64.5t43.5 77.5q307 -537 596 -850q-315 -274 -587 -719q-14 16 -54.5 61.5t-60.5 68t-64.5 61t-95.5 75.5zM977 190q74 96 230.5 249t271.5 245q-389 371 -490 539q53 25 93 53.5 t73 74.5t44 64.5t44 77.5q307 -537 596 -850q-315 -274 -588 -719q-14 16 -54 61.5t-60.5 68t-64.5 61t-95 75.5z" />
<glyph unicode="&#xbc;" horiz-adv-x="3391" d="M2302 633q258 317 389 760q266 2 547 55q-70 -399 -74 -840q18 2 195 17v-47q0 -78 8 -238q-57 -8 -107 -14.5t-67 -8.5l-16 -2q0 -197 22 -329q-289 6 -319 6q-92 0 -105 -4v-2v2q0 164 13 305l-459 -14q0 186 -27 354zM2609 582l201 6q14 219 70 551 q-35 -129 -112 -288.5t-159 -268.5zM1174 47q518 686 901 1399q39 -35 85 -52.5t144 -29.5q-418 -750 -932 -1419q-110 34 -198 102zM217 801l12 207q0 45 -8 79q106 35 163.5 98.5t90.5 178.5q227 0 387 47q-63 -457 -63 -856q0 -299 28 -555q-201 -2 -403 -20 q0 539 49 931q-111 -108 -256 -110z" />
<glyph unicode="&#xbd;" horiz-adv-x="3391" d="M2319 1212q215 221 520 222q453 0 452 -400q0 -537 -778 -737q395 16 778 70q-25 -236 -24 -367q-207 12 -422 12q-178 0 -471 -12q0 266 -33 422q270 92 422 239.5t152 256.5q0 90 -39 128.5t-117 38.5q-180 0 -344 -153q-16 147 -96 280zM1174 47q518 686 901 1399 q39 -35 85 -52.5t144 -29.5q-418 -750 -932 -1419q-110 34 -198 102zM217 801l12 207q0 45 -8 79q106 35 163.5 98.5t90.5 178.5q227 0 387 47q-63 -457 -63 -856q0 -299 28 -555q-201 -2 -403 -20q0 539 49 931q-111 -108 -256 -110z" />
<glyph unicode="&#xbe;" horiz-adv-x="3391" d="M2302 633q258 317 389 760q266 2 547 55q-70 -399 -74 -840q18 2 195 17v-47q0 -78 8 -238q-57 -8 -107 -14.5t-67 -8.5l-16 -2q0 -197 22 -329q-289 6 -319 6q-92 0 -105 -4v-2v2q0 164 13 305l-459 -14q0 186 -27 354zM2609 582l201 6q14 219 70 551 q-35 -129 -112 -288.5t-159 -268.5zM1174 47q518 686 901 1399q39 -35 85 -52.5t144 -29.5q-418 -750 -932 -1419q-110 34 -198 102zM8 158q123 137 205 270q141 -123 295 -123q88 0 144.5 35t56.5 104q0 59 -46.5 92t-119.5 33q-125 0 -228 -28q0 182 -73 358 q172 61 327 160q-139 -14 -444 -17q-4 205 -23 340q311 0 490.5 16.5t378.5 61.5q31 -135 30 -381q-211 -180 -475 -295l2 -2q78 20 189 21q150 0 249 -82t99 -238q0 -233 -155.5 -374.5t-379.5 -141.5q-299 1 -522 191z" />
<glyph unicode="&#xbf;" horiz-adv-x="1433" d="M29 199q0 111 54 205t134 152t174 100t168 58.5t119 16.5l18 176q43 0 79 -1t54.5 -2t30.5 -1q207 0 281 55l-76 -464q-485 -18 -485 -211q0 -106 256 -107q272 0 544 143q-2 -41 -5 -79.5t-10 -76.5t-12 -64.5t-15.5 -64.5t-15.5 -54.5t-18.5 -56.5t-15.5 -50 q-90 -31 -223 -50.5t-234 -19.5q-373 0 -587.5 106t-214.5 290zM651 1210q0 100 103.5 181.5t224.5 81.5q233 0 233 -205q0 -86 -88 -171t-223 -85q-250 -1 -250 198z" />
<glyph unicode="&#xc0;" horiz-adv-x="1376" d="M4 57q270 545 479 1438q180 66 437 74q207 -987 456 -1501q-260 -76 -383 -131q-25 63 -55.5 146t-40.5 112h-446q-88 -213 -113 -258q-156 81 -334 120zM168 1970l291 232q82 -117 195.5 -235t203.5 -177l-223 -170q-211 127 -467 350zM575 524h213q-59 219 -86 447 q-27 -136 -127 -447z" />
<glyph unicode="&#xc1;" horiz-adv-x="1376" d="M4 57q270 545 479 1438q180 66 437 74q207 -987 456 -1501q-260 -76 -383 -131q-25 63 -55.5 146t-40.5 112h-446q-88 -213 -113 -258q-156 81 -334 120zM479 1761q225 131 430 412l334 -244q-264 -229 -498 -350zM575 524h213q-59 219 -86 447q-27 -136 -127 -447z" />
<glyph unicode="&#xc2;" horiz-adv-x="1376" d="M4 57q270 545 479 1438q180 66 437 74q207 -987 456 -1501q-260 -76 -383 -131q-25 63 -55.5 146t-40.5 112h-446q-88 -213 -113 -258q-156 81 -334 120zM274 1853q233 68 347 306h245q39 -125 117 -201t215 -125q-8 -61 -76 -254q-139 12 -249.5 85t-143.5 194 q-90 -236 -397 -256q-6 37 -26 113.5t-32 137.5zM575 524h213q-59 219 -86 447q-27 -136 -127 -447z" />
<glyph unicode="&#xc3;" horiz-adv-x="1376" d="M4 57q270 545 479 1438q180 66 437 74q207 -987 456 -1501q-260 -76 -383 -131q-25 63 -55.5 146t-40.5 112h-446q-88 -213 -113 -258q-156 81 -334 120zM188 1933q147 70 258 70q139 0 246 -45q147 -61 262 -62q137 0 263 84q43 -98 83 -278q-193 -119 -288 -119 q-117 0 -236 59q-115 57 -217 58q-147 0 -291 -53q-39 184 -80 286zM575 524h213q-59 219 -86 447q-27 -136 -127 -447z" />
<glyph unicode="&#xc4;" horiz-adv-x="1376" d="M4 57q270 545 479 1438q180 66 437 74q207 -987 456 -1501q-260 -76 -383 -131q-25 63 -55.5 146t-40.5 112h-446q-88 -213 -113 -258q-156 81 -334 120zM219 1786q0 113 73 207t175 94q61 0 115.5 -44t54.5 -147q0 -123 -71.5 -208.5t-192.5 -85.5q-61 0 -107.5 53 t-46.5 131zM575 524h213q-59 219 -86 447q-27 -136 -127 -447zM838 1786q0 113 71.5 207t175.5 94q59 0 112.5 -44t53.5 -147q0 -123 -71.5 -208.5t-190.5 -85.5q-59 0 -105 53t-46 131z" />
<glyph unicode="&#xc5;" horiz-adv-x="1376" d="M4 57q270 545 479 1438q180 66 437 74q207 -987 456 -1501q-260 -76 -383 -131q-25 63 -55.5 146t-40.5 112h-446q-88 -213 -113 -258q-156 81 -334 120zM385 1851q0 160 126 288t298 128q135 0 220 -72.5t85 -173.5q0 -178 -123 -304t-327 -126q-127 0 -203 74.5 t-76 185.5zM575 524h213q-59 219 -86 447q-27 -136 -127 -447zM653 1907q0 -98 95 -99q55 0 92 50.5t37 109.5q0 39 -25 63.5t-70 24.5q-53 0 -91 -47t-38 -102z" />
<glyph unicode="&#xc6;" horiz-adv-x="1921" d="M-49 -12q158 256 405.5 729t397.5 801l1104 20q-31 -152 -31 -309v-27q-29 -2 -199 -6t-260 -8q-8 -160 -8 -195v-41h323q-10 -102 -10 -188q0 -14 1 -51t1 -60q-55 0 -133 -3t-108 -3q-49 0 -74 2q0 -211 10 -313q12 0 39 -1t41 -1q45 0 198.5 3t268.5 3 q-10 -172 -10 -256v-84q-627 0 -918 -14q-14 150 -14 315q-240 0 -391 -12l-176 -289zM735 653q25 0 117 4.5t127 4.5v75q0 227 20 477z" />
<glyph unicode="&#xc7;" horiz-adv-x="1275" d="M55 674q0 211 73 382t195.5 276.5t279.5 161.5t333 56q76 0 151 -12l13 -457q-100 27 -201 27q-180 0 -303 -111.5t-123 -289.5q0 -176 103.5 -280.5t267.5 -104.5q193 0 330 110l61 -383q-197 -113 -490 -112q-141 0 -258.5 41.5t-196.5 111.5t-132.5 166t-78 200.5 t-24.5 217.5zM418 -346q63 109 155 307q98 -10 211 -10q86 0 162 8q-43 -98 -168 -354q-170 0 -360 49z" />
<glyph unicode="&#xc8;" horiz-adv-x="1155" d="M84 -23v1528q492 29 967 33l-39 -293q-53 4 -125 4q-158 0 -387 -14v-262q72 6 217 6h98q72 0 103 -2l-44 -313h-104q-137 0 -270 -11v-313q322 20 618 20l-57 -370q-158 10 -307 10h-52q-131 0 -202 -2q-262 -9 -416 -21zM106 1933l291 232q82 -117 196 -235t204 -177 l-224 -170q-211 127 -467 350z" />
<glyph unicode="&#xc9;" horiz-adv-x="1155" d="M84 -23v1528q492 29 967 33l-39 -293q-53 4 -125 4q-158 0 -387 -14v-262q72 6 217 6h98q72 0 103 -2l-44 -313h-104q-137 0 -270 -11v-313q322 20 618 20l-57 -370q-158 10 -307 10h-52q-131 0 -202 -2q-262 -9 -416 -21zM315 1729q225 131 430 411l334 -244 q-264 -229 -497 -350z" />
<glyph unicode="&#xca;" horiz-adv-x="1155" d="M84 -23v1528q492 29 967 33l-39 -293q-53 4 -125 4q-158 0 -387 -14v-262q72 6 217 6h98q72 0 103 -2l-44 -313h-104q-137 0 -270 -11v-313q322 20 618 20l-57 -370q-158 10 -307 10h-52q-131 0 -202 -2q-262 -9 -416 -21zM106 1862q233 68 347 305h245q39 -125 117 -201 t215 -125q-8 -61 -76 -254q-139 12 -249.5 85t-143.5 194q-90 -236 -397 -256q-6 37 -26 114t-32 138z" />
<glyph unicode="&#xcb;" horiz-adv-x="1155" d="M84 -23v1528q492 29 967 33l-39 -293q-53 4 -125 4q-158 0 -387 -14v-262q72 6 217 6h98q72 0 103 -2l-44 -313h-104q-137 0 -270 -11v-313q322 20 618 20l-57 -370q-158 10 -307 10h-52q-131 0 -202 -2q-262 -9 -416 -21zM84 1804q0 113 72.5 207t175.5 94 q61 0 115.5 -44t54.5 -146q0 -123 -72 -209t-192 -86q-61 0 -107.5 53t-46.5 131zM702 1804q0 113 72 207t176 94q59 0 112.5 -44t53.5 -146q0 -123 -71.5 -209t-190.5 -86q-59 0 -105.5 53t-46.5 131z" />
<glyph unicode="&#xcc;" horiz-adv-x="686" d="M145 -18v1542q215 18 381 22q-12 -334 -12 -622q0 -430 39 -924q-154 0 -408 -18zM145 1946l291 231q82 -117 195.5 -234.5t204.5 -177.5l-224 -170q-211 128 -467 351z" />
<glyph unicode="&#xcd;" horiz-adv-x="686" d="M145 -18v1542q215 18 381 22q-12 -334 -12 -622q0 -430 39 -924q-154 0 -408 -18zM188 1806q225 131 430 412l334 -244q-264 -229 -497 -350z" />
<glyph unicode="&#xce;" horiz-adv-x="686" d="M145 -18v1542q215 18 381 22q-12 -334 -12 -622q0 -430 39 -924q-154 0 -408 -18zM145 1866q233 68 347 305h245q39 -125 117 -201t215 -125q-8 -61 -76 -254q-139 12 -249.5 85t-143.5 194q-90 -236 -397 -256q-6 37 -26 114t-32 138z" />
<glyph unicode="&#xcf;" horiz-adv-x="686" d="M145 -18v1542q215 18 381 22q-12 -334 -12 -622q0 -430 39 -924q-154 0 -408 -18zM145 1786q0 113 73 207t175 94q61 0 115.5 -44t54.5 -147q0 -123 -71.5 -208.5t-192.5 -85.5q-61 0 -107.5 53t-46.5 131zM764 1786q0 113 71.5 207t176.5 94q59 0 112.5 -44t53.5 -147 q0 -123 -72 -208.5t-191 -85.5q-59 0 -105 53t-46 131z" />
<glyph unicode="&#xd0;" horiz-adv-x="1611" d="M0 625v282l209 11v544q279 76 534 76q61 0 116.5 -4t143 -20.5t158 -44t147 -84t129 -131t87.5 -190.5t35 -259q0 -207 -87.5 -369t-237 -259t-334.5 -146t-394 -49q-174 0 -297 18v635zM606 360q238 4 399.5 119t161.5 314q0 106 -36.5 184t-101 120t-137.5 61.5 t-159 19.5q-78 0 -127 -11v-227l215 10v-282l-215 -11v-297z" />
<glyph unicode="&#xd1;" horiz-adv-x="1314" d="M78 -33v1534q166 33 389 45l418 -899v852q170 35 375 45q-39 -569 -39 -1544q-195 -12 -361 -35l-430 907q12 -547 25 -872q-254 -15 -377 -33zM127 1931q147 70 258 70q139 0 246 -45q147 -61 262 -62q137 0 262 84q43 -98 84 -278q-193 -119 -289 -119q-117 0 -235 59 q-115 57 -217 58q-147 0 -291 -53q-39 184 -80 286z" />
<glyph unicode="&#xd2;" horiz-adv-x="1472" d="M47 711q0 197 67.5 361.5t176 269t240 162t264.5 57.5q154 0 270.5 -46.5t186 -119t113.5 -176t59.5 -204t15.5 -216.5q0 -352 -201 -596t-539 -244q-309 0 -481 202t-172 550zM250 1950l291 231q82 -117 195.5 -234.5t203.5 -177.5l-223 -170q-211 128 -467 351z M467 713q0 -150 67.5 -238t180.5 -88q139 0 224 119t85 262q0 158 -68.5 241t-179.5 83q-143 0 -226 -109.5t-83 -269.5z" />
<glyph unicode="&#xd3;" horiz-adv-x="1472" d="M47 711q0 197 67.5 361.5t176 269t240 162t264.5 57.5q154 0 270.5 -46.5t186 -119t113.5 -176t59.5 -204t15.5 -216.5q0 -352 -201 -596t-539 -244q-309 0 -481 202t-172 550zM467 713q0 -150 67.5 -238t180.5 -88q139 0 224 119t85 262q0 158 -68.5 241t-179.5 83 q-143 0 -226 -109.5t-83 -269.5zM561 1774q225 131 430 411l334 -243q-264 -229 -498 -351z" />
<glyph unicode="&#xd4;" horiz-adv-x="1472" d="M47 711q0 197 67.5 361.5t176 269t240 162t264.5 57.5q154 0 270.5 -46.5t186 -119t113.5 -176t59.5 -204t15.5 -216.5q0 -352 -201 -596t-539 -244q-309 0 -481 202t-172 550zM328 1878q233 68 346 305h246q39 -125 116.5 -200.5t214.5 -124.5q-8 -61 -75 -254 q-139 12 -250 84.5t-144 193.5q-90 -236 -397 -256q-6 37 -25.5 114t-31.5 138zM467 713q0 -150 67.5 -238t180.5 -88q139 0 224 119t85 262q0 158 -68.5 241t-179.5 83q-143 0 -226 -109.5t-83 -269.5z" />
<glyph unicode="&#xd5;" horiz-adv-x="1472" d="M47 711q0 197 67.5 361.5t176 269t240 162t264.5 57.5q154 0 270.5 -46.5t186 -119t113.5 -176t59.5 -204t15.5 -216.5q0 -352 -201 -596t-539 -244q-309 0 -481 202t-172 550zM188 1948q147 70 258 69q139 0 246 -45q147 -61 262 -61q137 0 263 84q43 -98 83 -279 q-193 -119 -288 -119q-117 0 -236 60q-115 57 -217 57q-147 0 -291 -53q-39 185 -80 287zM467 713q0 -150 67.5 -238t180.5 -88q139 0 224 119t85 262q0 158 -68.5 241t-179.5 83q-143 0 -226 -109.5t-83 -269.5z" />
<glyph unicode="&#xd6;" horiz-adv-x="1472" d="M47 711q0 197 67.5 361.5t176 269t240 162t264.5 57.5q154 0 270.5 -46.5t186 -119t113.5 -176t59.5 -204t15.5 -216.5q0 -352 -201 -596t-539 -244q-309 0 -481 202t-172 550zM332 1776q0 113 72.5 207t175.5 94q61 0 115.5 -44t54.5 -147q0 -123 -72 -209t-193 -86 q-61 0 -107 53.5t-46 131.5zM467 713q0 -150 67.5 -238t180.5 -88q139 0 224 119t85 262q0 158 -68.5 241t-179.5 83q-143 0 -226 -109.5t-83 -269.5zM950 1776q0 113 72 207t176 94q59 0 112.5 -44t53.5 -147q0 -123 -71.5 -209t-190.5 -86q-59 0 -105.5 53.5t-46.5 131.5z " />
<glyph unicode="&#xd7;" horiz-adv-x="1171" d="M168 952q109 63 229 148l201 -248l180 260q106 -59 236 -100l-248 -369l264 -324q-72 -43 -184 -165l-230 270l-184 -268q-57 35 -250 110l258 363z" />
<glyph unicode="&#xd8;" horiz-adv-x="1548" d="M117 655q0 227 88 428t252 326t362 125q129 0 242 -45l80 166q203 -100 229 -111q-41 -96 -98 -209q82 -80 129 -217t47 -297q0 -246 -84 -445.5t-257 -323.5t-409 -124q-117 0 -227 56q-92 -129 -115 -152q-86 80 -200 141q12 14 118 168q-157 188 -157 514zM487 702 q0 -113 33 -200q147 240 248 413q27 45 62.5 114t62.5 118q-51 14 -94 14q-127 0 -219.5 -139.5t-92.5 -319.5zM702 322q47 -14 93 -15q131 0 217 144.5t86 341.5q0 80 -17 149q-133 -244 -252 -424q-25 -39 -35 -55.5t-11 -18.5t-18.5 -29t-62.5 -93z" />
<glyph unicode="&#xd9;" horiz-adv-x="1456" d="M57 696q0 406 125 842l385 -102q-117 -395 -116 -744q0 -182 78.5 -271t215.5 -89q131 0 200 97t69 263v10q0 147 -17 291q-2 8 -3 19.5t-1 19.5q-6 70 -18 152q-2 10 -41 256q233 45 385 98q88 -475 88 -842q0 -127 -17.5 -231.5t-62.5 -204.5t-119.5 -170 t-196.5 -111.5t-282 -41.5q-197 0 -334 61t-207.5 173t-100.5 238.5t-30 286.5zM274 1896l291 232q82 -117 195.5 -234.5t204.5 -177.5l-224 -170q-211 127 -467 350z" />
<glyph unicode="&#xda;" horiz-adv-x="1456" d="M57 696q0 406 125 842l385 -102q-117 -395 -116 -744q0 -182 78.5 -271t215.5 -89q131 0 200 97t69 263v10q0 147 -17 291q-2 8 -3 19.5t-1 19.5q-6 70 -18 152q-2 10 -41 256q233 45 385 98q88 -475 88 -842q0 -127 -17.5 -231.5t-62.5 -204.5t-119.5 -170 t-196.5 -111.5t-282 -41.5q-197 0 -334 61t-207.5 173t-100.5 238.5t-30 286.5zM504 1733q225 131 430 411l334 -243q-264 -229 -498 -351z" />
<glyph unicode="&#xdb;" horiz-adv-x="1456" d="M57 696q0 406 125 842l385 -102q-117 -395 -116 -744q0 -182 78.5 -271t215.5 -89q131 0 200 97t69 263v10q0 147 -17 291q-2 8 -3 19.5t-1 19.5q-6 70 -18 152q-2 10 -41 256q233 45 385 98q88 -475 88 -842q0 -127 -17.5 -231.5t-62.5 -204.5t-119.5 -170 t-196.5 -111.5t-282 -41.5q-197 0 -334 61t-207.5 173t-100.5 238.5t-30 286.5zM299 1845q233 68 346 305h246q39 -125 116.5 -200.5t215.5 -124.5q-8 -61 -76 -254q-139 12 -250 85t-143 193q-90 -236 -398 -256q-6 37 -25.5 114t-31.5 138z" />
<glyph unicode="&#xdc;" horiz-adv-x="1456" d="M57 696q0 406 125 842l385 -102q-117 -395 -116 -744q0 -182 78.5 -271t215.5 -89q131 0 200 97t69 263v10q0 147 -17 291q-2 8 -3 19.5t-1 19.5q-6 70 -18 152q-2 10 -41 256q233 45 385 98q88 -475 88 -842q0 -127 -17.5 -231.5t-62.5 -204.5t-119.5 -170 t-196.5 -111.5t-282 -41.5q-197 0 -334 61t-207.5 173t-100.5 238.5t-30 286.5zM281 1825q0 113 72.5 207t174.5 94q61 0 115.5 -44t54.5 -147q0 -123 -71.5 -209t-192.5 -86q-61 0 -107 53.5t-46 131.5zM899 1825q0 113 71.5 207t176.5 94q59 0 112.5 -44t53.5 -147 q0 -123 -72 -209t-190 -86q-59 0 -105.5 53.5t-46.5 131.5z" />
<glyph unicode="&#xdd;" horiz-adv-x="1253" d="M-12 1417q174 88 344 129l297 -549l280 519q106 18 281 18q55 0 129 -4l-524 -926l6 -604q-254 0 -383 -14v663zM385 1745q225 131 430 412l334 -244q-264 -229 -498 -350z" />
<glyph unicode="&#xde;" horiz-adv-x="1327" d="M61 -80v1583q184 39 388 53v-188q133 35 299 35q236 0 400.5 -145.5t164.5 -423.5q0 -129 -48 -238t-130 -184.5t-193 -129t-235.5 -79t-257.5 -25.5v-221q-157 -37 -388 -37zM449 547q215 0 347 64.5t132 205.5q0 111 -81 175.5t-210 64.5q-98 0 -188 -29v-481z" />
<glyph unicode="&#xdf;" horiz-adv-x="1392" d="M47 442q0 225 39 435t117 391.5t214 290t312 108.5q168 0 266.5 -108.5t98.5 -274.5q0 -203 -117 -340q178 -2 293.5 -104.5t115.5 -276.5q0 -287 -177 -446.5t-468 -159.5q-90 0 -163 25q8 47 8 131v51v84q147 0 289.5 89t142.5 195q0 86 -141 86q-168 0 -297 -116 q-20 170 -97 305q106 98 191.5 239.5t85.5 223.5q0 23 -14.5 40t-38.5 17q-41 0 -92.5 -67.5t-100.5 -183t-82 -300t-33 -389.5q0 -174 31 -330q-106 -61 -354 -145q-29 278 -29 530z" />
<glyph unicode="&#xe0;" horiz-adv-x="1425" d="M80 401q0 201 115.5 328t345.5 127q143 0 229 -40t168 -124q0 162 -80 223.5t-240 61.5q-174 0 -356 -51l-41 293q236 84 580 84q207 0 345 -126t140 -364v-45q0 -88 -3 -219t-3 -164q0 -283 86 -360q-193 0 -451 -50q-10 78 -10 95q-197 -88 -467 -88 q-131 0 -244.5 114.5t-113.5 304.5zM262 1700l291 231q82 -117 195.5 -234.5t203.5 -176.5l-223 -170q-211 127 -467 350zM395 432q0 -53 62.5 -79.5t140.5 -26.5q143 0 299 43q-182 156 -348 155q-78 0 -116 -27.5t-38 -64.5z" />
<glyph unicode="&#xe1;" horiz-adv-x="1425" d="M80 401q0 201 115.5 328t345.5 127q143 0 229 -40t168 -124q0 162 -80 223.5t-240 61.5q-174 0 -356 -51l-41 293q236 84 580 84q207 0 345 -126t140 -364v-45q0 -88 -3 -219t-3 -164q0 -283 86 -360q-193 0 -451 -50q-10 78 -10 95q-197 -88 -467 -88 q-131 0 -244.5 114.5t-113.5 304.5zM385 1532q225 131 430 412l334 -244q-264 -229 -498 -350zM395 432q0 -53 62.5 -79.5t140.5 -26.5q143 0 299 43q-182 156 -348 155q-78 0 -116 -27.5t-38 -64.5z" />
<glyph unicode="&#xe2;" horiz-adv-x="1425" d="M80 401q0 201 115.5 328t345.5 127q143 0 229 -40t168 -124q0 162 -80 223.5t-240 61.5q-174 0 -356 -51l-41 293q236 84 580 84q207 0 345 -126t140 -364v-45q0 -88 -3 -219t-3 -164q0 -283 86 -360q-193 0 -451 -50q-10 78 -10 95q-197 -88 -467 -88 q-131 0 -244.5 114.5t-113.5 304.5zM274 1636q233 68 347 306h245q39 -125 117 -201t215 -125q-8 -61 -76 -254q-139 12 -249.5 85t-143.5 193q-90 -236 -397 -256q-6 37 -26 114t-32 138zM395 432q0 -53 62.5 -79.5t140.5 -26.5q143 0 299 43q-182 156 -348 155 q-78 0 -116 -27.5t-38 -64.5z" />
<glyph unicode="&#xe3;" horiz-adv-x="1425" d="M80 401q0 201 115.5 328t345.5 127q143 0 229 -40t168 -124q0 162 -80 223.5t-240 61.5q-174 0 -356 -51l-41 293q236 84 580 84q207 0 345 -126t140 -364v-45q0 -88 -3 -219t-3 -164q0 -283 86 -360q-193 0 -451 -50q-10 78 -10 95q-197 -88 -467 -88 q-131 0 -244.5 114.5t-113.5 304.5zM188 1739q147 70 258 69q139 0 246 -45q147 -61 262 -61q137 0 263 84q43 -98 83 -279q-193 -119 -288 -118q-117 0 -236 59q-115 57 -217 57q-147 0 -291 -53q-39 185 -80 287zM395 432q0 -53 62.5 -79.5t140.5 -26.5q143 0 299 43 q-182 156 -348 155q-78 0 -116 -27.5t-38 -64.5z" />
<glyph unicode="&#xe4;" horiz-adv-x="1425" d="M80 401q0 201 115.5 328t345.5 127q143 0 229 -40t168 -124q0 162 -80 223.5t-240 61.5q-174 0 -356 -51l-41 293q236 84 580 84q207 0 345 -126t140 -364v-45q0 -88 -3 -219t-3 -164q0 -283 86 -360q-193 0 -451 -50q-10 78 -10 95q-197 -88 -467 -88 q-131 0 -244.5 114.5t-113.5 304.5zM219 1536q0 113 73 207t175 94q61 0 115.5 -44t54.5 -146q0 -123 -71.5 -209t-192.5 -86q-61 0 -107.5 53t-46.5 131zM395 432q0 -53 62.5 -79.5t140.5 -26.5q143 0 299 43q-182 156 -348 155q-78 0 -116 -27.5t-38 -64.5zM838 1536 q0 113 71.5 207t175.5 94q59 0 112.5 -44t53.5 -146q0 -123 -71.5 -209t-190.5 -86q-59 0 -105 53t-46 131z" />
<glyph unicode="&#xe5;" horiz-adv-x="1425" d="M80 401q0 201 115.5 328t345.5 127q143 0 229 -40t168 -124q0 162 -80 223.5t-240 61.5q-174 0 -356 -51l-41 293q236 84 580 84q207 0 345 -126t140 -364v-45q0 -88 -3 -219t-3 -164q0 -283 86 -360q-193 0 -451 -50q-10 78 -10 95q-197 -88 -467 -88 q-131 0 -244.5 114.5t-113.5 304.5zM307 1610q0 160 126 287.5t298 127.5q135 0 220 -72.5t85 -172.5q0 -178 -122.5 -304t-327.5 -126q-127 0 -203 74.5t-76 185.5zM395 432q0 -53 62.5 -79.5t140.5 -26.5q143 0 299 43q-182 156 -348 155q-78 0 -116 -27.5t-38 -64.5z M575 1665q0 -98 95 -98q55 0 92 50t37 109q0 39 -24.5 64t-69.5 25q-53 0 -91.5 -47.5t-38.5 -102.5z" />
<glyph unicode="&#xe6;" horiz-adv-x="2234" d="M80 401q0 201 115.5 328t345.5 127q215 0 348 -86q-104 264 -307 264q-217 0 -320 -108l-41 293q209 133 490 133q262 0 393 -244q139 244 420 244q137 0 243.5 -39t190.5 -126t129 -241.5t45 -372.5l-848 -65q63 -80 162.5 -135.5t200.5 -55.5q195 0 358 86 q20 -170 92 -290q-113 -74 -233.5 -105t-300.5 -31q-242 0 -461 183q-225 -178 -543 -178q-211 0 -345 110t-134 309zM395 432q0 -53 62.5 -79.5t140.5 -26.5q156 0 334 49q-74 63 -185.5 106t-197.5 43q-78 0 -116 -27.5t-38 -64.5zM1292 782l477 39q-27 184 -202 185 q-96 0 -174 -57.5t-101 -166.5z" />
<glyph unicode="&#xe7;" horiz-adv-x="1189" d="M63 569q0 338 217.5 542t548.5 204q131 0 287 -37q-63 -190 -69 -360q-94 35 -191 34q-168 0 -277.5 -91t-109.5 -245q0 -127 103.5 -200.5t228.5 -73.5q150 0 262 55q31 -168 111 -321q-203 -115 -510 -115q-115 0 -219.5 37t-191.5 108.5t-138.5 191t-51.5 271.5z M340 -328q63 109 156 308q98 -10 211 -11q86 0 161 8q-43 -98 -168 -354q-170 0 -360 49z" />
<glyph unicode="&#xe8;" horiz-adv-x="1386" d="M92 664q0 139 41 256.5t106.5 195.5t148.5 132.5t165 79t160 24.5q137 0 243.5 -39t190.5 -126t129 -241.5t45 -372.5l-813 -67q41 -92 130 -140.5t198 -48.5q195 0 358 86q20 -170 92 -290q-113 -74 -233.5 -105t-300.5 -31q-289 0 -474.5 173.5t-185.5 513.5zM262 1741 l291 231q82 -117 195.5 -234.5t203.5 -176.5l-223 -170q-211 127 -467 350zM481 782l477 39q-27 184 -202 185q-96 0 -174 -57.5t-101 -166.5z" />
<glyph unicode="&#xe9;" horiz-adv-x="1386" d="M92 664q0 139 41 256.5t106.5 195.5t148.5 132.5t165 79t160 24.5q137 0 243.5 -39t190.5 -126t129 -241.5t45 -372.5l-813 -67q41 -92 130 -140.5t198 -48.5q195 0 358 86q20 -170 92 -290q-113 -74 -233.5 -105t-300.5 -31q-289 0 -474.5 173.5t-185.5 513.5zM385 1565 q225 131 430 411l334 -243q-264 -229 -498 -351zM481 782l477 39q-27 184 -202 185q-96 0 -174 -57.5t-101 -166.5z" />
<glyph unicode="&#xea;" horiz-adv-x="1386" d="M92 664q0 139 41 256.5t106.5 195.5t148.5 132.5t165 79t160 24.5q137 0 243.5 -39t190.5 -126t129 -241.5t45 -372.5l-813 -67q41 -92 130 -140.5t198 -48.5q195 0 358 86q20 -170 92 -290q-113 -74 -233.5 -105t-300.5 -31q-289 0 -474.5 173.5t-185.5 513.5zM274 1655 q233 68 347 305h245q39 -125 117 -201t215 -125q-8 -61 -76 -254q-139 12 -249.5 85t-143.5 194q-90 -236 -397 -256q-6 37 -26 114t-32 138zM481 782l477 39q-27 184 -202 185q-96 0 -174 -57.5t-101 -166.5z" />
<glyph unicode="&#xeb;" horiz-adv-x="1386" d="M92 664q0 139 41 256.5t106.5 195.5t148.5 132.5t165 79t160 24.5q137 0 243.5 -39t190.5 -126t129 -241.5t45 -372.5l-813 -67q41 -92 130 -140.5t198 -48.5q195 0 358 86q20 -170 92 -290q-113 -74 -233.5 -105t-300.5 -31q-289 0 -474.5 173.5t-185.5 513.5zM248 1559 q0 113 72.5 207t175.5 94q61 0 115.5 -44t54.5 -147q0 -123 -72 -209t-193 -86q-61 0 -107 53.5t-46 131.5zM481 782l477 39q-27 184 -202 185q-96 0 -174 -57.5t-101 -166.5zM866 1559q0 113 72 207t176 94q59 0 112.5 -44t53.5 -147q0 -123 -71.5 -209t-190.5 -86 q-59 0 -105.5 53.5t-46.5 131.5z" />
<glyph unicode="&#xec;" horiz-adv-x="651" d="M129 0q37 549 37 864q0 33 -1 89.5t-2 166t-1 232.5q219 0 381 51q-6 -547 -6 -750q0 -440 14 -671zM129 1778l291 231q82 -117 195.5 -234.5t203.5 -177.5l-223 -170q-211 128 -467 351z" />
<glyph unicode="&#xed;" horiz-adv-x="651" d="M129 0q37 549 37 864q0 33 -1 89.5t-2 166t-1 232.5q219 0 381 51q-6 -547 -6 -750q0 -440 14 -671zM164 1610q225 131 430 411l334 -243q-264 -229 -498 -351z" />
<glyph unicode="&#xee;" horiz-adv-x="651" d="M129 0q37 549 37 864q0 33 -1 89.5t-2 166t-1 232.5q219 0 381 51q-6 -547 -6 -750q0 -440 14 -671zM129 1702q233 68 346 305h246q39 -125 116.5 -200.5t215.5 -125.5q-8 -61 -76 -254q-139 12 -250 85t-143 194q-90 -236 -398 -256q-6 37 -25.5 114t-31.5 138z" />
<glyph unicode="&#xef;" horiz-adv-x="651" d="M129 0q37 549 37 864q0 33 -1 89.5t-2 166t-1 232.5q219 0 381 51q-6 -547 -6 -750q0 -440 14 -671zM129 1632q0 113 72.5 207t175.5 94q61 0 115.5 -44t54.5 -146q0 -123 -72 -209t-192 -86q-61 0 -107.5 53t-46.5 131zM748 1632q0 113 71.5 207t175.5 94 q59 0 112.5 -44t53.5 -146q0 -123 -71.5 -209t-190.5 -86q-59 0 -105 53t-46 131z" />
<glyph unicode="&#xf0;" horiz-adv-x="1460" d="M72 606q0 262 157.5 436.5t393.5 174.5q215 0 344 -109v199l-224 12v283l224 -13v115q158 25 385 41q0 -10 -2 -69.5t-4 -104.5l219 -12v-283l-226 12q-4 -377 -4 -457q0 -412 45 -835q-215 0 -413 -41v119q-150 -115 -377 -115q-92 0 -177 33t-165 103.5t-128 202.5 t-48 308zM440 578q0 -127 90.5 -201t210.5 -74q123 0 226 88v281q-127 156 -275 155q-117 0 -184.5 -73.5t-67.5 -175.5z" />
<glyph unicode="&#xf1;" horiz-adv-x="1482" d="M113 2v1225q172 43 397 45q-25 -174 -25 -336q35 135 159 223t290 88q90 0 160.5 -22.5t138 -81t105.5 -181t38 -300.5q0 -276 -39 -678l-403 16q27 266 27 551q0 43 -8.5 94t-30 114.5t-69.5 105.5t-116 42q-225 0 -225 -364q0 -162 14 -557q-225 12 -413 16zM188 1763 q147 70 258 70q139 0 246 -45q147 -61 262 -62q137 0 263 84q43 -98 83 -278q-193 -119 -288 -119q-117 0 -236 60q-115 57 -217 57q-147 0 -291 -53q-39 184 -80 286z" />
<glyph unicode="&#xf2;" horiz-adv-x="1411" d="M70 594q0 293 191.5 497.5t508.5 204.5q250 0 404.5 -165.5t154.5 -415.5q0 -139 -42 -267.5t-123 -232.5t-217 -166.5t-308 -62.5q-260 0 -414.5 160.5t-154.5 447.5zM119 1698l291 231q82 -117 195.5 -234.5t203.5 -176.5l-223 -170q-211 127 -467 350zM457 637 q0 -152 61.5 -224.5t167.5 -72.5q129 0 204 98.5t75 225.5q0 147 -57.5 215.5t-180.5 68.5q-115 0 -192.5 -93t-77.5 -218z" />
<glyph unicode="&#xf3;" horiz-adv-x="1411" d="M70 594q0 293 191.5 497.5t508.5 204.5q250 0 404.5 -165.5t154.5 -415.5q0 -139 -42 -267.5t-123 -232.5t-217 -166.5t-308 -62.5q-260 0 -414.5 160.5t-154.5 447.5zM457 637q0 -152 61.5 -224.5t167.5 -72.5q129 0 204 98.5t75 225.5q0 147 -57.5 215.5t-180.5 68.5 q-115 0 -192.5 -93t-77.5 -218zM483 1536q225 131 430 412l334 -244q-264 -229 -497 -350z" />
<glyph unicode="&#xf4;" horiz-adv-x="1411" d="M70 594q0 293 191.5 497.5t508.5 204.5q250 0 404.5 -165.5t154.5 -415.5q0 -139 -42 -267.5t-123 -232.5t-217 -166.5t-308 -62.5q-260 0 -414.5 160.5t-154.5 447.5zM274 1636q233 68 347 306h245q39 -125 117 -201t215 -125q-8 -61 -76 -254q-139 12 -249.5 85 t-143.5 193q-90 -236 -397 -256q-6 37 -26 114t-32 138zM457 637q0 -152 61.5 -224.5t167.5 -72.5q129 0 204 98.5t75 225.5q0 147 -57.5 215.5t-180.5 68.5q-115 0 -192.5 -93t-77.5 -218z" />
<glyph unicode="&#xf5;" horiz-adv-x="1411" d="M70 594q0 293 191.5 497.5t508.5 204.5q250 0 404.5 -165.5t154.5 -415.5q0 -139 -42 -267.5t-123 -232.5t-217 -166.5t-308 -62.5q-260 0 -414.5 160.5t-154.5 447.5zM188 1739q147 70 258 69q139 0 246 -45q147 -61 262 -61q137 0 263 84q43 -98 83 -279 q-193 -119 -288 -118q-117 0 -236 59q-115 57 -217 57q-147 0 -291 -53q-39 185 -80 287zM457 637q0 -152 61.5 -224.5t167.5 -72.5q129 0 204 98.5t75 225.5q0 147 -57.5 215.5t-180.5 68.5q-115 0 -192.5 -93t-77.5 -218z" />
<glyph unicode="&#xf6;" horiz-adv-x="1411" d="M70 594q0 293 191.5 497.5t508.5 204.5q250 0 404.5 -165.5t154.5 -415.5q0 -139 -42 -267.5t-123 -232.5t-217 -166.5t-308 -62.5q-260 0 -414.5 160.5t-154.5 447.5zM219 1536q0 113 73 207t175 94q61 0 115.5 -44t54.5 -146q0 -123 -71.5 -209t-192.5 -86 q-61 0 -107.5 53t-46.5 131zM457 637q0 -152 61.5 -224.5t167.5 -72.5q129 0 204 98.5t75 225.5q0 147 -57.5 215.5t-180.5 68.5q-115 0 -192.5 -93t-77.5 -218zM838 1536q0 113 71.5 207t175.5 94q59 0 112.5 -44t53.5 -146q0 -123 -71.5 -209t-190.5 -86q-59 0 -105 53 t-46 131z" />
<glyph unicode="&#xf7;" horiz-adv-x="1171" d="M57 827q555 0 1049 70q18 -193 18 -295q-481 -72 -954 -72h-92q-1 104 -21 297zM326 176q0 84 89 153.5t189 69.5q94 0 146.5 -52t52.5 -122q0 -74 -75 -146.5t-189 -72.5q-213 0 -213 170zM385 1124q0 84 89 154t190 70q94 0 146 -52.5t52 -121.5q0 -74 -74.5 -147 t-189.5 -73q-213 0 -213 170z" />
<glyph unicode="&#xf8;" horiz-adv-x="1411" d="M70 594q0 293 191.5 497.5t508.5 204.5q86 0 174 -26l68 129l196 -96q-41 -86 -67 -140q188 -166 188 -448q0 -139 -42 -267.5t-123 -232.5t-217 -166.5t-308 -62.5q-106 0 -188 26q-86 -119 -109 -149l-197 114q6 8 103 148q-178 162 -178 469zM457 637q0 -74 24 -154 q119 186 281 463q-10 2 -35 2q-115 0 -192.5 -93t-77.5 -218zM670 340h16q129 0 204 98.5t75 225.5q0 76 -19 137q-120 -215 -276 -461z" />
<glyph unicode="&#xf9;" horiz-adv-x="1431" d="M102 449q0 78 18.5 283.5t18.5 330.5q0 80 -6 166q160 35 389 45q6 -66 6 -133q0 -129 -23.5 -336t-23.5 -254q0 -115 47 -166t146 -51q76 0 139.5 34.5t85.5 84.5q4 373 64 764q182 39 403 53q-70 -342 -70 -668q0 -307 76 -504q-174 -45 -389 -127q-31 80 -41 150 q-182 -150 -387 -150q-209 0 -331 131.5t-122 346.5zM262 1702l291 231q82 -117 195.5 -234.5t203.5 -176.5l-223 -170q-211 127 -467 350z" />
<glyph unicode="&#xfa;" horiz-adv-x="1431" d="M102 449q0 78 18.5 283.5t18.5 330.5q0 80 -6 166q160 35 389 45q6 -66 6 -133q0 -129 -23.5 -336t-23.5 -254q0 -115 47 -166t146 -51q76 0 139.5 34.5t85.5 84.5q4 373 64 764q182 39 403 53q-70 -342 -70 -668q0 -307 76 -504q-174 -45 -389 -127q-31 80 -41 150 q-182 -150 -387 -150q-209 0 -331 131.5t-122 346.5zM508 1532q225 131 430 412l334 -244q-264 -229 -498 -350z" />
<glyph unicode="&#xfb;" horiz-adv-x="1431" d="M102 449q0 78 18.5 283.5t18.5 330.5q0 80 -6 166q160 35 389 45q6 -66 6 -133q0 -129 -23.5 -336t-23.5 -254q0 -115 47 -166t146 -51q76 0 139.5 34.5t85.5 84.5q4 373 64 764q182 39 403 53q-70 -342 -70 -668q0 -307 76 -504q-174 -45 -389 -127q-31 80 -41 150 q-182 -150 -387 -150q-209 0 -331 131.5t-122 346.5zM274 1636q233 68 347 306h245q39 -125 117 -201t215 -125q-8 -61 -76 -254q-139 12 -249.5 85t-143.5 193q-90 -236 -397 -256q-6 37 -26 114t-32 138z" />
<glyph unicode="&#xfc;" horiz-adv-x="1431" d="M102 449q0 78 18.5 283.5t18.5 330.5q0 80 -6 166q160 35 389 45q6 -66 6 -133q0 -129 -23.5 -336t-23.5 -254q0 -115 47 -166t146 -51q76 0 139.5 34.5t85.5 84.5q4 373 64 764q182 39 403 53q-70 -342 -70 -668q0 -307 76 -504q-174 -45 -389 -127q-31 80 -41 150 q-182 -150 -387 -150q-209 0 -331 131.5t-122 346.5zM266 1536q0 113 73 207t175 94q61 0 115.5 -44t54.5 -146q0 -123 -71.5 -209t-192.5 -86q-61 0 -107.5 53t-46.5 131zM885 1536q0 113 71.5 207t176.5 94q59 0 112 -44t53 -146q0 -123 -71.5 -209t-190.5 -86 q-59 0 -105 53t-46 131z" />
<glyph unicode="&#xfd;" horiz-adv-x="1366" d="M113 1253q201 18 428 80l229 -766q49 367 234 756l405 -88q-98 -205 -186 -448.5t-137.5 -415.5t-116 -345t-134 -279.5t-179 -172.5t-263.5 -66q-63 178 -160 345q86 0 183.5 57t130.5 141zM492 1610q225 131 430 411l333 -243q-264 -229 -497 -351z" />
<glyph unicode="&#xfe;" horiz-adv-x="1435" d="M129 -401v1917q172 43 383 45q-6 -117 -10 -361q166 74 336 74q236 0 397.5 -166t161.5 -418q0 -272 -172 -454.5t-402 -182.5q-205 0 -321 74v-72q0 -242 26 -473q-200 1 -399 17zM496 442q84 -70 217 -69q123 0 205.5 81t82.5 193q0 125 -86 194.5t-221 69.5 q-98 0 -196 -34z" />
<glyph unicode="&#xff;" horiz-adv-x="1366" d="M113 1253q201 18 428 80l229 -766q49 367 234 756l405 -88q-98 -205 -186 -448.5t-137.5 -415.5t-116 -345t-134 -279.5t-179 -172.5t-263.5 -66q-63 178 -160 345q86 0 183.5 57t130.5 141zM281 1595q0 113 72.5 207t174.5 94q61 0 115.5 -44t54.5 -146 q0 -123 -71.5 -209t-192.5 -86q-61 0 -107 53t-46 131zM899 1595q0 113 71.5 207t176.5 94q59 0 112.5 -44t53.5 -146q0 -123 -72 -209t-190 -86q-59 0 -105.5 53t-46.5 131z" />
<glyph unicode="&#x152;" horiz-adv-x="2107" d="M47 711q0 197 67.5 361.5t176 269t240 162t264.5 57.5q158 0 282 -52q436 25 908 29l-39 -379q-53 4 -125 4q-158 0 -387 -14v-176q72 6 217 6h98q72 0 102 -2l-43 -365h-104q-137 0 -270 -10v-215q322 20 618 21l-57 -418q-158 10 -307 10h-52q-131 0 -202 -2 q-262 -8 -416 -21v52q-143 -70 -318 -70q-309 0 -481 202t-172 550zM467 713q0 -150 67.5 -238t180.5 -88q139 0 224 119t85 262q0 158 -68.5 241t-179.5 83q-143 0 -226 -109.5t-83 -269.5z" />
<glyph unicode="&#x153;" horiz-adv-x="2310" d="M82 612q0 309 201.5 524.5t535.5 215.5q244 0 404 -154q180 154 393 154q137 0 243.5 -39t190.5 -126t129 -241.5t45 -372.5l-813 -67q41 -92 130 -140.5t198 -48.5q195 0 358 86q20 -170 92 -290q-113 -74 -233.5 -105t-300.5 -31q-301 0 -479 179q-193 -178 -496 -179 q-274 0 -436 167t-162 468zM489 657q0 -160 64.5 -235.5t175.5 -75.5q135 0 214 103.5t79 236.5q0 156 -59.5 227.5t-190.5 71.5q-121 0 -202 -98.5t-81 -229.5zM1384 782l478 39q-27 184 -203 185q-96 0 -174 -57.5t-101 -166.5z" />
<glyph unicode="&#x178;" horiz-adv-x="1253" d="M-12 1417q174 88 344 129l297 -549l280 519q106 18 281 18q55 0 129 -4l-524 -926l6 -604q-254 0 -383 -14v663zM158 1806q0 113 72.5 207t175.5 94q61 0 115 -44t54 -146q0 -123 -71.5 -209t-192.5 -86q-61 0 -107 53t-46 131zM776 1806q0 113 72 207t176 94 q59 0 112.5 -44t53.5 -146q0 -123 -71.5 -209t-190.5 -86q-59 0 -105.5 53t-46.5 131z" />
<glyph unicode="&#x2c6;" horiz-adv-x="1433" d="M274 1702q233 68 347 305h245q39 -125 117 -200.5t215 -125.5q-8 -61 -76 -254q-139 12 -249.5 85t-143.5 194q-90 -236 -397 -256q-6 37 -26 114t-32 138z" />
<glyph unicode="&#x2dc;" horiz-adv-x="1433" d="M188 1763q147 70 258 70q139 0 246 -45q147 -61 262 -62q137 0 263 84q43 -98 83 -278q-193 -119 -288 -119q-117 0 -236 60q-115 57 -217 57q-147 0 -291 -53q-39 184 -80 286z" />
<glyph unicode="&#x2000;" horiz-adv-x="1132" />
<glyph unicode="&#x2001;" horiz-adv-x="2267" />
<glyph unicode="&#x2002;" horiz-adv-x="1132" />
<glyph unicode="&#x2003;" horiz-adv-x="2267" />
<glyph unicode="&#x2004;" horiz-adv-x="755" />
<glyph unicode="&#x2005;" horiz-adv-x="565" />
<glyph unicode="&#x2006;" horiz-adv-x="376" />
<glyph unicode="&#x2007;" horiz-adv-x="376" />
<glyph unicode="&#x2008;" horiz-adv-x="282" />
<glyph unicode="&#x2009;" horiz-adv-x="452" />
<glyph unicode="&#x200a;" horiz-adv-x="124" />
<glyph unicode="&#x2010;" horiz-adv-x="1171" d="M164 817q416 0 766 70q18 -154 18 -285q-346 -72 -766 -72q0 127 -18 287z" />
<glyph unicode="&#x2011;" horiz-adv-x="1171" d="M164 817q416 0 766 70q18 -154 18 -285q-346 -72 -766 -72q0 127 -18 287z" />
<glyph unicode="&#x2012;" horiz-adv-x="1171" d="M164 817q416 0 766 70q18 -154 18 -285q-346 -72 -766 -72q0 127 -18 287z" />
<glyph unicode="&#x2013;" horiz-adv-x="1482" d="M-12 819q16 0 480 19.5t1013 21.5l10 -285q-76 0 -171 1.5t-126 1.5q-291 0 -558 -7.5t-428 -14.5t-196 -7z" />
<glyph unicode="&#x2014;" horiz-adv-x="1974" d="M-12 819q51 0 260 10.5t655.5 20.5t1068.5 10l10 -285q-276 0 -453 1.5t-248 1.5h-87q-291 0 -558 -7.5t-428 -14.5t-196 -7z" />
<glyph unicode="&#x2018;" horiz-adv-x="921" d="M195 973q113 299 321 567q104 -6 234 -35q-143 -236 -218 -512q-220 0 -337 -20z" />
<glyph unicode="&#x2019;" horiz-adv-x="921" d="M193 1006q143 236 217 512q221 0 338 20q-113 -299 -322 -567q-104 6 -233 35z" />
<glyph unicode="&#x201c;" horiz-adv-x="1439" d="M193 973q113 299 321 567q104 -6 234 -35q-143 -236 -218 -512q-220 0 -337 -20zM711 973q113 299 321 567q104 -6 234 -35q-143 -236 -217 -512q-221 0 -338 -20z" />
<glyph unicode="&#x201d;" horiz-adv-x="1439" d="M193 1006q143 236 217 512q221 0 338 20q-113 -299 -322 -567q-104 6 -233 35zM711 1006q143 236 217 512q221 0 338 20q-113 -299 -322 -567q-104 6 -233 35z" />
<glyph unicode="&#x2022;" horiz-adv-x="1228" d="M291 707q0 143 111.5 256.5t267.5 113.5q121 0 197.5 -64.5t76.5 -154.5q0 -160 -110.5 -272.5t-294.5 -112.5q-113 0 -180.5 68t-67.5 166z" />
<glyph unicode="&#x2026;" horiz-adv-x="2785" d="M201 164q0 100 103.5 181t223.5 81q113 0 173.5 -61.5t60.5 -143.5q0 -86 -88 -171t-223 -85q-250 0 -250 199zM1067 174q0 106 107.5 193.5t234.5 87.5q115 0 179.5 -65.5t64.5 -153.5q0 -90 -92.5 -180.5t-233.5 -90.5q-260 0 -260 209zM1968 188q0 117 107.5 210.5 t234.5 93.5q115 0 179.5 -72t64.5 -164q0 -98 -92 -195.5t-232 -97.5q-262 0 -262 225z" />
<glyph unicode="&#x202f;" horiz-adv-x="452" />
<glyph unicode="&#x2039;" horiz-adv-x="1130" d="M6 643q289 313 596 850q72 -131 121 -180q55 -55 133 -90q-100 -168 -489 -539q115 -92 271.5 -244.5t229.5 -249.5q-51 -37 -95 -75.5t-64.5 -61t-60.5 -67.5t-54 -62q-273 445 -588 719z" />
<glyph unicode="&#x203a;" horiz-adv-x="1130" d="M266 190q74 96 230.5 249t271.5 245q-389 371 -489 539q53 25 93 53.5t72.5 74.5t44 64.5t43.5 77.5q307 -537 596 -850q-315 -274 -587 -719q-14 16 -54.5 61.5t-60.5 68t-64.5 61t-95.5 75.5z" />
<glyph unicode="&#x2044;" horiz-adv-x="1105" d="M31 47q518 686 901 1399q39 -35 85 -52.5t144 -29.5q-418 -750 -932 -1419q-110 34 -198 102z" />
<glyph unicode="&#x205f;" horiz-adv-x="565" />
<glyph unicode="&#x2122;" horiz-adv-x="1433" d="M37 1292q8 158 8 217l504 29q0 -92 -2 -205l-162 -14q8 -268 27 -422q-125 -31 -240 -31h-18q18 213 24 437zM508 895q31 311 106 610q29 16 105 30.5t141 16.5q0 -88 20.5 -240.5t43.5 -221.5l157 454q43 -6 226 -51q-2 -39 -2 -111q0 -248 69 -464q-27 -16 -89 -32 t-101 -18q-41 231 -41 424q-74 -193 -107 -389q-53 -2 -211 -35q-57 166 -86 379q-33 -227 -39 -381q-67 21 -192 29z" />
<glyph unicode="&#xe000;" horiz-adv-x="1325" d="M0 1325h1325v-1325h-1325v1325z" />
<glyph unicode="&#xfb01;" horiz-adv-x="1705" d="M1164 1419q0 100 102 193.5t272 93.5q43 0 81 -29.5t38 -95.5q0 -80 -114.5 -180.5t-249.5 -100.5q-57 0 -93 34t-36 85zM1184 0q37 549 37 864q0 115 -4 275q219 0 381 51q-6 -227 -6 -537q0 -440 14 -671zM66 881l188 14v336q0 61 10 118.5t42 124t81 114.5t138 80 t204 32q348 0 500 -230q-123 -135 -197 -262q-100 131 -225 131q-39 0 -64.5 -7t-51 -30.5t-42 -67.5t-26 -120t-9.5 -184l430 37q-16 -158 -16 -349l-405 -32v-39q0 -12 -1 -25q0 -216 33 -522q-236 -6 -413 -31l4 578l-176 -12q8 131 8 180q0 60 -12 166z" />
<glyph unicode="&#xfb02;" horiz-adv-x="1703" d="M1174 0v1688q197 25 360 24h39q-4 -172 -10 -727v-98q0 -270 18 -901q-257 14 -407 14zM66 881l188 14v336q0 61 10 118.5t42 124t81 114.5t138 80t204 32q348 0 500 -230q-123 -135 -197 -262q-100 131 -225 131q-39 0 -64.5 -7t-51 -30.5t-42 -67.5t-26 -120t-9.5 -184 l430 37q-16 -158 -16 -349l-405 -32v-39q0 -12 -1 -25q0 -216 33 -522q-236 -6 -413 -31l4 578l-176 -12q8 131 8 180q0 60 -12 166z" />
<glyph unicode="&#xfb03;" horiz-adv-x="2760" d="M2218 1419q0 100 102 193.5t272 93.5q43 0 81 -29.5t38 -95.5q0 -80 -114.5 -180.5t-249.5 -100.5q-57 0 -93 34t-36 85zM2238 0q37 549 37 864q0 115 -4 275q219 0 381 51q-6 -227 -6 -537q0 -440 14 -671zM1121 881l188 14v336q0 61 10 118.5t42 124t81 114.5t138 80 t204 32q348 0 500 -230q-123 -135 -197 -262q-100 131 -225 131q-39 0 -64.5 -7t-51 -30.5t-42 -67.5t-26 -120t-9.5 -184l430 37q-16 -158 -16 -349l-405 -32v-39q0 -12 -1 -25q0 -216 33 -522q-236 -6 -413 -31l4 578l-176 -12q8 131 8 180q0 60 -12 166zM66 881l188 14 v336q0 61 10 118.5t42 124t81 114.5t138 80t204 32q348 0 500 -230q-123 -135 -197 -262q-100 131 -225 131q-39 0 -64.5 -7t-51 -30.5t-42 -67.5t-26 -120t-9.5 -184l430 37q-16 -158 -16 -349l-405 -32v-39q0 -12 -1 -25q0 -216 33 -522q-236 -6 -413 -31l4 578l-176 -12 q8 131 8 180q0 60 -12 166z" />
<glyph unicode="&#xfb04;" horiz-adv-x="2758" d="M2228 0v1688q197 25 360 24h39q-4 -172 -10 -727v-98q0 -270 18 -901q-257 14 -407 14zM1121 881l188 14v336q0 61 10 118.5t42 124t81 114.5t138 80t204 32q348 0 500 -230q-123 -135 -197 -262q-100 131 -225 131q-39 0 -64.5 -7t-51 -30.5t-42 -67.5t-26 -120 t-9.5 -184l430 37q-16 -158 -16 -349l-405 -32v-39q0 -12 -1 -25q0 -216 33 -522q-236 -6 -413 -31l4 578l-176 -12q8 131 8 180q0 60 -12 166zM66 881l188 14v336q0 61 10 118.5t42 124t81 114.5t138 80t204 32q348 0 500 -230q-123 -135 -197 -262q-100 131 -225 131 q-39 0 -64.5 -7t-51 -30.5t-42 -67.5t-26 -120t-9.5 -184l430 37q-16 -158 -16 -349l-405 -32v-39q0 -12 -1 -25q0 -216 33 -522q-236 -6 -413 -31l4 578l-176 -12q8 131 8 180q0 60 -12 166z" />
</font>
</defs>
</svg>
