<?xml version="1.0" encoding="utf-8"?>
<!DOCTYPE svg PUBLIC "-//W3C//DTD SVG 1.1//EN" "http://www.w3.org/Graphics/SVG/1.1/DTD/svg11.dtd">
<svg version="1.1" id="Layer_1" xmlns="http://www.w3.org/2000/svg" xmlns:xlink="http://www.w3.org/1999/xlink" x="0px" y="0px"
	 width="214px" height="50px" viewBox="0 0 214 50" enable-background="new 0 0 214 50" xml:space="preserve">
    <defs>
        <g id="zillow-logo">
    		<path d="M31.88,1.279C28.731,2.734,19.674,9.676,14.8,13.323c5.932-1.965,20.198-5.108,27.5-5.278
    			C40.019,6.447,33.608,2.119,31.88,1.279z"/>
    		<path d="M3.408,46.118c2.011-0.881,21.079-7.186,38.611-8.23c0.381-1.467,2.306-6.385,2.656-7.723
    			c-18.196,1.289-32.984,6.682-38.927,9.414L3.408,46.118z"/>
    		<path d="M43.663,8.992c0,0-17.702,17.66-20.471,20.191c5.381-1.934,16.412-4.227,23.412-4.643
    			c0.812-2.466,1.673-4.253,1.673-4.253l9.37-0.926C57.646,19.362,50.527,13.643,43.663,8.992z"/>
    		<path d="M6.439,37.681C12.019,31.981,32.074,13.6,32.074,13.6c-10.433,2.418-21.326,5.706-25.22,7.462L1,27.042
    			c4.89-1.039,6.471-1.242,10.046-1.764L6.439,37.681z"/>
			<path d="M157.134,40.358c-2.243,2.529-5.174,4.08-9.712,4.08c-7.988,0-13.219-5.977-13.219-15.229
				c0-9.254,5.288-15.403,13.219-15.403c4.196,0,7.469,1.437,9.999,4.427c2.358,2.759,3.394,5.976,3.394,10.746
				C160.813,34.036,159.664,37.485,157.134,40.358z M150.869,21.05c-0.745-0.977-1.952-1.552-3.332-1.552
				c-1.842,0-3.333,1.15-3.967,2.988c-0.516,1.552-0.803,3.623-0.805,6.55c0,3.393,0.346,5.922,0.978,7.416
				c0.69,1.607,2.414,2.414,3.907,2.414c3.334,0,4.771-2.99,4.771-9.943C152.423,24.956,151.902,22.371,150.869,21.05z
				 M194.425,43.806h-7.067l-2.644-10.113c-0.633-2.355-1.323-5.172-1.667-7.127c-0.229-1.379-0.287-1.781-0.459-2.931
				c-0.175,1.265-0.23,1.667-0.689,3.79c-0.574,2.531-1.84,7.588-2.528,10.348l-1.495,6.033h-7.184l-8.193-29.427h7.859
				l2.346,10.981c0.745,3.391,1.665,9.139,1.665,9.139s0.748-5.23,2.126-10.23l2.76-9.884h7.24l2.355,9.71
				c1.321,5.459,2.187,10.404,2.187,10.404c0.172-1.266,0.804-5.863,1.608-9.6l2.238-10.516h7.934L194.425,43.806z M120.507,43.786
				h7.872l-0.056-42.507l-7.874,1.782L120.507,43.786z M105.204,43.786h7.872l-0.055-42.507l-7.874,1.782L105.204,43.786z
				 M89.929,43.864l0.013-25.875l7.674-1.719l0.014,27.595h-7.701V43.864z M93.779,14.569c-2.587,0-4.712-2.125-4.712-4.77
				c0-2.644,2.183-4.771,4.826-4.771c2.587,0,4.655,2.126,4.655,4.771S96.423,14.569,93.779,14.569z M82.588,43.806H57.646v-5.631
				l15.078-25.896c1.092-1.838,1.68-3.262,1.68-3.262s-0.875-0.072-3.289-0.072H58.816l1.782-6.666h23.907v5.804L69.313,34.671
				c-0.864,1.436-1.492,2.6-1.492,2.6s1.778-0.016,3.387-0.016h13.448L82.588,43.806z"/>
			<path d="M209.036,13.854c-2.017,0-3.671-1.625-3.671-3.708s1.654-3.708,3.671-3.708
				c2.001,0,3.676,1.625,3.676,3.708C212.712,12.228,211.037,13.854,209.036,13.854z M209.036,7.045
				c-1.647,0-2.952,1.356-2.952,3.101c0,1.734,1.305,3.109,2.952,3.109c1.634,0,2.958-1.375,2.958-3.109
				C211.994,8.401,210.67,7.045,209.036,7.045z M209.859,12.208l-0.356-0.647c-0.288-0.508-0.478-0.788-0.709-1.016
				c-0.078-0.081-0.14-0.12-0.269-0.13v1.793h-0.678V8.063h1.267c0.926,0,1.345,0.538,1.345,1.186c0,0.638-0.409,1.136-1.025,1.136
				c0.147,0.08,0.418,0.479,0.639,0.828l0.607,0.996L209.859,12.208L209.859,12.208z M208.525,8.62v1.316h0.357
				c0.359,0,0.549-0.049,0.668-0.179c0.119-0.11,0.19-0.289,0.19-0.499c0-0.418-0.229-0.638-0.837-0.638H208.525z"/>
        </g>
    </defs>
    <g class="logo-shadow" transform="translate(.2,1.7)">
        <use xlink:href="#zillow-logo" />
    </g>
    <g class="logo">
        <use xlink:href="#zillow-logo" />
    </g>
    <style>
        .logo{
            fill: white;
        }
        .logo-shadow{
            fill: black;
            opacity: 0.3;
        }
    </style>
</svg>
