<?xml version="1.0" encoding="utf-8"?>
<!-- Generator: Adobe Illustrator 16.0.0, SVG Export Plug-In . SVG Version: 6.00 Build 0)  -->
<!DOCTYPE svg PUBLIC "-//W3C//DTD SVG 1.1//EN" "http://www.w3.org/Graphics/SVG/1.1/DTD/svg11.dtd">
<svg version="1.1" id="Layer_1" xmlns="http://www.w3.org/2000/svg" xmlns:xlink="http://www.w3.org/1999/xlink" x="0px" y="0px"
	 width="180px" height="39px" viewBox="0 0 180 39" enable-background="new 0 0 180 39" xml:space="preserve">
     <style>
        path {
            fill: #fff;
        }
     </style>
<g>
	<g>
		<path fill-rule="evenodd" clip-rule="evenodd" d="M26.732,0.774c-2.649,1.223-10.269,7.065-14.37,10.133
			c4.991-1.653,16.994-4.298,23.137-4.441C33.58,5.121,28.186,1.481,26.732,0.774z"/>
		<path fill-rule="evenodd" clip-rule="evenodd" d="M2.775,38.5c1.692-0.742,17.737-6.044,32.488-6.923
			c0.321-1.235,1.94-5.372,2.234-6.498C22.188,26.163,9.745,30.7,4.745,33L2.775,38.5z"/>
		<path fill-rule="evenodd" clip-rule="evenodd" d="M36.646,7.262c0,0-14.894,14.858-17.225,16.99
			c4.528-1.627,13.81-3.557,19.698-3.906c0.684-2.075,1.408-3.579,1.408-3.579l7.883-0.78C48.411,15.988,42.422,11.178,36.646,7.262
			z"/>
		<path fill-rule="evenodd" clip-rule="evenodd" d="M5.327,31.403c4.694-4.796,21.568-20.262,21.568-20.262
			c-8.778,2.034-17.943,4.8-21.22,6.278L0.75,22.452c4.114-0.875,5.444-1.046,8.453-1.485L5.327,31.403z"/>
	</g>
	<g>
		<g>
			<path fill-rule="evenodd" clip-rule="evenodd" d="M133.155,33.655c-1.886,2.129-4.353,3.432-8.171,3.432
				c-6.722,0-11.122-5.026-11.122-12.812c0-7.786,4.449-12.96,11.122-12.96c3.531,0,6.285,1.208,8.413,3.724
				c1.984,2.322,2.854,5.028,2.854,9.041C136.25,28.336,135.283,31.238,133.155,33.655z M127.884,17.408
				c-0.628-0.821-1.643-1.305-2.804-1.305c-1.549,0-2.805,0.968-3.337,2.514c-0.434,1.306-0.677,3.046-0.678,5.512
				c0,2.854,0.291,4.981,0.823,6.238c0.581,1.354,2.031,2.033,3.288,2.033c2.804,0,4.014-2.515,4.014-8.366
				C129.19,20.696,128.755,18.521,127.884,17.408z M164.531,36.555h-5.947l-2.224-8.508c-0.532-1.982-1.113-4.353-1.402-5.997
				c-0.192-1.161-0.241-1.499-0.386-2.465c-0.147,1.064-0.195,1.402-0.58,3.19c-0.484,2.129-1.549,6.385-2.129,8.705l-1.257,5.075
				h-6.045l-6.893-24.758h6.614l1.974,9.239c0.626,2.853,1.399,7.689,1.399,7.689s0.63-4.401,1.79-8.608l2.321-8.317h6.093
				l1.981,8.172c1.113,4.593,1.837,8.752,1.837,8.752c0.146-1.065,0.678-4.934,1.355-8.076l1.884-8.849h6.673L164.531,36.555z
				 M102.336,36.54h6.625l-0.046-35.766l-6.626,1.499L102.336,36.54z M89.461,36.54h6.625L96.039,0.774l-6.624,1.499L89.461,36.54z
				 M76.609,36.605l0.011-21.772l6.457-1.447l0.012,23.219H76.609z M79.85,11.956c-2.177,0-3.965-1.79-3.965-4.014
				c0-2.225,1.835-4.014,4.059-4.014c2.178,0,3.918,1.79,3.918,4.014C83.862,10.167,82.074,11.956,79.85,11.956z M70.433,36.555
				H49.446v-4.737l12.687-21.789c0.919-1.546,1.414-2.744,1.414-2.744s-0.737-0.06-2.768-0.06H50.431l1.5-5.609h20.116V6.5
				L59.263,28.869c-0.727,1.208-1.255,2.186-1.255,2.186s1.496-0.011,2.849-0.011h11.315L70.433,36.555z"/>
		</g>
		<g>
			<path d="M176.824,11.354c-1.694,0-3.087-1.368-3.087-3.12c0-1.753,1.393-3.121,3.087-3.121
				c1.686,0,3.095,1.368,3.095,3.121C179.918,9.986,178.509,11.354,176.824,11.354z M176.824,5.625c-1.386,0-2.482,1.14-2.482,2.608
				c0,1.459,1.097,2.616,2.482,2.616c1.375,0,2.49-1.156,2.49-2.616C179.313,6.766,178.199,5.625,176.824,5.625z M177.519,9.969
				l-0.301-0.544c-0.242-0.427-0.402-0.663-0.596-0.855c-0.067-0.067-0.117-0.102-0.227-0.109v1.509h-0.569V6.481h1.065
				c0.779,0,1.131,0.454,1.131,0.999c0,0.536-0.343,0.956-0.865,0.956c0.127,0.067,0.353,0.402,0.538,0.696l0.511,0.838H177.519z
				 M176.395,6.95v1.107h0.302c0.301,0,0.46-0.042,0.562-0.151c0.1-0.091,0.16-0.244,0.16-0.419c0-0.352-0.193-0.537-0.706-0.537
				H176.395z"/>
		</g>
	</g>
</g>
</svg>
