<?xml version="1.0" standalone="no"?>
<!DOCTYPE svg PUBLIC "-//W3C//DTD SVG 1.1//EN" "http://www.w3.org/Graphics/SVG/1.1/DTD/svg11.dtd" >
<svg xmlns="http://www.w3.org/2000/svg">
<metadata>
This is a custom SVG webfont generated by Font Squirrel.
Copyright   : Copyright c 2009 by Hollister Co All rights reserved
Designer    : Hollister Co
Foundry     : Hollister Co
Foundry URL : httpwwwhollistercocom
</metadata>
<defs>
<font id="webfontyBWOkJeo" horiz-adv-x="815" >
<font-face units-per-em="2048" ascent="1638" descent="-410" />
<missing-glyph horiz-adv-x="409" />
<glyph unicode=" "  horiz-adv-x="409" />
<glyph unicode="&#x09;" horiz-adv-x="409" />
<glyph unicode="&#xa0;" horiz-adv-x="409" />
<glyph unicode="!" horiz-adv-x="468" d="M174 182h117q39 0 39 -35v-106q0 -41 -39 -41h-117q-39 0 -39 41v106q0 35 39 35zM160 1434h145q39 0 39 -35l-25 -1008q0 -41 -38 -41h-99q-39 0 -39 41l-22 1008q0 35 39 35z" />
<glyph unicode="&#x22;" horiz-adv-x="661" d="M264 1389v-453q0 -45 -39 -45h-102q-18 0 -29.5 13.5t-11.5 31.5v453q0 45 41 45h102q39 0 39 -45zM580 1389v-453q0 -45 -39 -45h-103q-18 0 -29.5 13.5t-11.5 31.5v453q0 45 41 45h103q39 0 39 -45z" />
<glyph unicode="#" horiz-adv-x="1009" d="M731 1434h68q20 0 30.5 -8.5t8.5 -26.5l-56 -375h129q41 0 35 -39l-8 -51q-6 -39 -35 -39h-141l-45 -299h145q41 0 35 -39l-8 -51q-6 -39 -35 -39h-156l-63 -426q-6 -41 -39 -41h-68q-45 0 -39 41l64 426h-193l-63 -426q-6 -41 -39 -41h-68q-45 0 -38 41l63 426h-117 q-20 0 -32.5 11t-8.5 28l9 51q6 39 40 39h127l46 299h-132q-20 0 -32.5 11.5t-8.5 27.5l9 51q6 39 41 39h143l55 375q6 35 39 35h68q20 0 30.5 -8.5t8.5 -26.5l-56 -375h193l55 375q6 35 39 35zM424 895l-45 -299h192l45 299h-192z" />
<glyph unicode="$" horiz-adv-x="839" d="M242 311q27 -98 108 -123v459q-281 205 -280 449q0 127 79.5 223t200.5 119v39q0 45 39 45h51q18 0 29.5 -13.5t11.5 -31.5v-39q111 -18 183.5 -91t95.5 -182q8 -31 -23 -37l-123 -26q-33 -8 -45 26q-33 80 -88 107v-442q291 -203 291 -447q0 -143 -83 -235.5 t-208 -114.5v-53q0 -45 -41 -45h-51q-39 0 -39 45v51q-106 16 -185 87t-114 193q-8 31 23 37l123 27q35 8 45 -27zM578 346.5q0 108.5 -97 198.5v-348q97 41 97 149.5zM264 1100q0 -106 86 -199v334q-86 -37 -86 -135z" />
<glyph unicode="%" horiz-adv-x="1064" d="M282.5 815q-104.5 0 -171 56.5t-66.5 164.5v176q0 109 66.5 165.5t171 56.5t170 -56.5t65.5 -165.5v-176q0 -109 -65.5 -165t-170 -56zM176 1212v-174q0 -113 107 -112q104 0 104 112v174q0 113 -104 113q-107 0 -107 -113zM788.5 0q-104.5 0 -171 56.5t-66.5 164.5v176 q0 109 66.5 165t171 56t170 -56t65.5 -165v-176q0 -109 -65.5 -165t-170 -56zM682 397v-174q0 -113 106 -112q104 0 105 112v174q0 113 -105 113q-106 0 -106 -113zM915 1411l-626 -1388q-16 -33 -47 -33h-58q-43 0 -28 33l626 1388q16 33 47 33h58q42 0 28 -33z" />
<glyph unicode="&#x26;" horiz-adv-x="1130" d="M92 373q0 190 195 379q18 18 6 45q-115 170 -115 348q0 133 85 216t222 83q145 0 230.5 -77t85.5 -212q0 -66 -49.5 -149.5t-89 -127.5t-105.5 -110q-12 -16 0 -39l182 -295q18 -29 37 -2l115 137q16 23 47 6l80 -55q33 -23 10 -51l-158 -178q-23 -29 -6 -58l129 -206 q14 -27 -20 -27h-146q-31 0 -47 27l-37 63q-16 29 -49 0q-113 -100 -266 -100q-145 0 -240.5 107.5t-95.5 275.5zM494 1286q-57 0 -93 -37t-36 -100q0 -78 61 -209q8 -16 15.5 -21.5t16.5 -3t23 14.5q133 111 133 239q0 55 -32.5 86t-87.5 31zM610 250q25 20 4 49l-188 297 q-27 39 -57 4q-90 -100 -90 -219q0 -100 49 -159.5t129 -59.5q65 0 153 88z" />
<glyph unicode="'" horiz-adv-x="440" d="M311 1389v-453q0 -45 -39 -45h-102q-18 0 -29.5 13.5t-11.5 31.5v453q0 45 41 45h102q39 0 39 -45z" />
<glyph unicode="(" horiz-adv-x="700" d="M418 -2q-35 35 -70 83t-78 133t-68.5 215t-25.5 284v4q0 156 27.5 287t73 217t77 131t64.5 78q23 23 37 6l63 -76q16 -16 2 -35q-160 -227 -160 -608q0 -406 158 -619q10 -12 0 -26l-57 -74q-18 -23 -43 0z" />
<glyph unicode=")" horiz-adv-x="700" d="M283 -2q-25 -23 -43 0l-58 74q-10 14 0 26q158 213 158 619q0 381 -160 608q-14 18 2 35l64 76q14 16 37 -6q33 -33 64.5 -78t76.5 -131t72.5 -217.5t27.5 -286.5v-4q0 -154 -25.5 -284t-68.5 -215t-77.5 -133t-69.5 -83z" />
<glyph unicode="*" horiz-adv-x="684" d="M328 1434h16q39 0 39 -41l-8 -170q0 -23 20 -15l160 60q35 12 49 -25l6 -14q14 -37 -26 -49l-164 -47q-23 -6 -8 -25l106 -131q20 -29 -8 -55l-12 -11q-29 -25 -56 11l-94 141q-12 18 -24 0l-95 -141q-27 -35 -55 -11l-12 11q-29 27 -8 55l108 135q12 16 -8 23l-166 45 q-41 12 -27 49l7 14q14 37 49 25l162 -62q18 -6 18 15l-8 172q0 41 39 41z" />
<glyph unicode="+" horiz-adv-x="1191" d="M504 635v350q0 39 35 39h106q41 0 41 -39v-350q0 -31 31 -31h352q39 0 39 -35v-106q0 -41 -39 -41h-352q-31 0 -31 -31v-352q0 -39 -41 -39h-106q-35 0 -35 39v352q0 31 -31 31h-350q-39 0 -39 41v106q0 35 39 35h350q31 0 31 31z" />
<glyph unicode="," horiz-adv-x="391" d="M170 0h-33q-39 0 -39 41v106q0 35 39 35h117q39 0 39 -35v-108q0 -18 -4 -27l-68 -153q-6 -14 -22 -15h-37q-18 0 -15 17l33 127q4 12 -10 12z" />
<glyph unicode="-" horiz-adv-x="702" d="M147 604h408q39 0 39 -35v-106q0 -41 -39 -41h-408q-39 0 -38 41v106q-1 35 38 35z" />
<glyph unicode="." horiz-adv-x="391" d="M137 182h117q39 0 39 -35v-106q0 -41 -39 -41h-117q-39 0 -39 41v106q0 35 39 35z" />
<glyph unicode="/" horiz-adv-x="1030" d="M774 1434h123q51 0 35 -37l-619 -1354q-20 -43 -47 -43h-141q-39 0 -21 43l615 1354q14 37 55 37z" />
<glyph unicode="0" horiz-adv-x="872" d="M586 344v743q0 162 -149.5 162t-149.5 -162v-743q0 -162 149.5 -162t149.5 162zM772 1122v-813q0 -172 -86 -246.5t-250 -74.5q-162 0 -249 85t-87 236v813q0 152 87 237t249 85q164 0 250 -75t86 -247z" />
<glyph unicode="1" horiz-adv-x="528" d="M229 41v1159q0 18 -20 6q-8 -4 -73 -47l-70 -47q-23 -12 -23 21v137q0 18 29 37l159 116q14 10 43 11h115q35 0 35 -35v-1358q0 -41 -35 -41h-121q-39 0 -39 41z" />
<glyph unicode="2" horiz-adv-x="776" d="M49 1120q0 160 92 242t232 82q141 0 234 -89t93 -251q0 -102 -86 -275l-315 -630q-12 -23 14 -23h332q35 0 35 -35v-100q0 -41 -35 -41h-530q-39 0 -39 41v109q0 33 14 59l383 733q49 96 49 162q0 76 -42 116t-107.5 40t-105.5 -38t-40 -102q0 -35 -41 -35h-102 q-35 0 -35 35z" />
<glyph unicode="3" horiz-adv-x="792" d="M528 311v254q0 129 -145 129q-41 0 -41 33v90q0 41 41 41q145 0 145 131v133q0 139 -145 140q-70 0 -108.5 -38t-38.5 -102q0 -33 -39 -32h-99q-35 0 -35 32v37q0 137 90.5 211t229.5 74q315 0 315 -322v-133q0 -158 -100 -213q100 -61 100 -211v-254q0 -322 -315 -321 q-139 0 -229.5 73.5t-90.5 210.5v37q0 33 35 33h99q39 0 39 -33q0 -63 38.5 -101t108.5 -38q145 0 145 139z" />
<glyph unicode="4" horiz-adv-x="843" d="M29 221v107q0 51 8 73l321 998q10 35 56 35h114q35 0 25 -35l-315 -989q-12 -39 24 -39h215q31 0 31 30v377q0 35 37 35h117q37 0 36 -35v-377q0 -31 31 -30h27q31 0 30 -31v-127q0 -31 -30 -31h-27q-31 0 -31 -30v-117q0 -35 -36 -35h-117q-37 0 -37 35v117q0 31 -31 30 h-407q-41 0 -41 39z" />
<glyph unicode="5" horiz-adv-x="800" d="M215 690h-31h-71q-35 0 -35 35v674q0 35 35 35h518q43 0 43 -37v-115q0 -35 -43 -35h-328q-41 0 -41 -41v-262q0 -63 57 -43q90 33 154 33q236 0 236 -338v-240q0 -172 -82 -270t-228 -98q-147 0 -223 74.5t-92 181.5q-6 47 37 47h104q33 0 51 -43q31 -76 123 -76 q115 0 115 139v326q0 152 -115 151q-63 0 -149 -86q-12 -12 -35 -12z" />
<glyph unicode="6" horiz-adv-x="784" d="M395 -12q-147 0 -240.5 99t-93.5 259v684q0 195 79 304.5t229 109.5q84 0 146.5 -26.5t94 -69.5t47 -81t19.5 -75q4 -31 -3 -39t-28 -8h-108q-37 0 -52 43q-25 72 -106 72q-55 0 -91 -44.5t-36 -119.5v-176q0 -39 29 -19q70 53 184 53q135 0 195.5 -92t60.5 -227v-289 q0 -160 -90.5 -259t-235.5 -99zM244 586v-226q0 -86 37.5 -136t113.5 -50q143 0 144 186v226q0 186 -144 186q-76 0 -113.5 -50t-37.5 -136z" />
<glyph unicode="7" horiz-adv-x="915" d="M776 1397v-107q0 -39 -18 -90l-385 -1161q-10 -39 -47 -39h-115q-47 0 -33 39l387 1180q10 31 -30 30h-244q-31 0 -31 -30v-39q0 -31 -31 -31h-104q-31 0 -31 31v217q0 37 35 37h612q35 0 35 -37z" />
<glyph unicode="8" horiz-adv-x="823" d="M413.5 1444q315.5 0 315.5 -322v-161q0 -158 -100 -213q100 -61 100 -211v-228q0 -322 -315.5 -321.5t-315.5 321.5v228q0 150 101 211q-100 55 -101 213v161q0 322 315.5 322zM268 516v-207q0 -139 145.5 -139t145.5 139v207q0 139 -145.5 139t-145.5 -139zM268 1122 v-143q0 -139 145.5 -139t145.5 139v143q0 139 -145.5 139t-145.5 -139z" />
<glyph unicode="9" horiz-adv-x="782" d="M387 1444q147 0 240.5 -99.5t93.5 -259.5v-684q0 -195 -79 -304t-228 -109q-84 0 -146.5 26.5t-94.5 69.5t-47 81t-20 75q-4 31 3.5 39t27.5 8h109q37 0 51 -43q25 -72 106 -72q55 0 91 44t36 120v176q0 41 -28 18q-70 -53 -185 -53q-135 0 -195.5 92.5t-60.5 227.5v288 q0 160 90.5 259.5t235.5 99.5zM539 846v225q0 86 -38 136t-114 50q-143 0 -143 -186v-225q0 -186 143 -187q76 0 114 50.5t38 136.5z" />
<glyph unicode=":" horiz-adv-x="391" d="M137 182h117q39 0 39 -35v-106q0 -41 -39 -41h-117q-39 0 -39 41v106q0 35 39 35zM137 623h117q39 0 39 -35v-107q0 -41 -39 -41h-117q-39 0 -39 41v107q0 35 39 35z" />
<glyph unicode=";" horiz-adv-x="391" d="M137 627h117q39 0 39 -35v-107q0 -41 -39 -41h-117q-39 0 -39 41v107q0 35 39 35zM170 0h-33q-39 0 -39 41v106q0 35 39 35h117q39 0 39 -35v-108q0 -18 -4 -27l-68 -153q-6 -14 -22 -15h-37q-18 0 -15 17l33 127q4 12 -10 12z" />
<glyph unicode="&#x3c;" horiz-adv-x="1208" d="M1065 782l-659 -270q-14 -4 -14.5 -10t14.5 -10l659 -269q41 -16 41 -45v-127q0 -20 -11.5 -31.5t-29.5 -3.5l-922 387q-41 16 -41 46v108q0 29 41 45l922 387q18 8 29.5 -3t11.5 -30v-129q0 -29 -41 -45z" />
<glyph unicode="=" horiz-adv-x="1208" d="M141 387h926q39 0 39 -35v-106q0 -41 -39 -41h-926q-39 0 -39 41v106q0 35 39 35zM141 801h926q39 0 39 -35v-107q0 -41 -39 -41h-926q-39 0 -39 41v107q0 35 39 35z" />
<glyph unicode="&#x3e;" horiz-adv-x="1208" d="M803 512l-660 270q-41 16 -41 45v129q0 18 11.5 29.5t29.5 3.5l922 -387q41 -16 41 -45v-108q0 -29 -41 -46l-922 -387q-18 -8 -29.5 3.5t-11.5 31.5v127q0 29 41 45l660 269q14 4 14 10t-14 10z" />
<glyph unicode="?" horiz-adv-x="808" d="M328 182h116q39 0 39 -35v-106q0 -41 -39 -41h-116q-39 0 -39 41v106q0 35 39 35zM94 1186q33 117 122 187.5t222 70.5q119 0 186.5 -68.5t67.5 -185.5q0 -82 -27.5 -151.5t-82.5 -168.5q-33 -55 -50.5 -94t-33 -106.5t-15.5 -151.5v-137q0 -41 -39 -41h-116 q-39 0 -39 41v197q0 147 104 344q4 6 19.5 33.5t19.5 35.5t16.5 30.5t17.5 33t12 30t10.5 30.5t6.5 26.5t3 29.5q0 37 -23.5 64t-60.5 27q-82 0 -129 -113q-12 -35 -45 -27l-123 27q-33 6 -23 37z" />
<glyph unicode="@" horiz-adv-x="1191" d="M717 334q-8 20 -23 4l-4 -4q-68 -66 -174 -66q-115 0 -185.5 93.5t-68.5 213.5q2 141 93 236.5t216 95.5q133 0 174 -84q10 -14 13 -14q6 0 8 14l2 15q2 27 29 26h77q14 0 23.5 -5t7.5 -17q-76 -432 -76 -445q0 -23 27 -22q78 0 125 77.5t47 170.5q0 180 -123 288.5 t-291 108.5q-186 0 -319 -133t-133 -314q0 -186 133 -320t319 -134q135 0 248 76q10 8 20.5 8t20.5 -13l51 -63q4 -4 4 -12q0 -10 -8 -19q-143 -106 -336 -106q-242 0 -412.5 172t-170.5 411q0 242 174 412t407 170q227 0 388 -152.5t161 -377.5q0 -152 -96 -257.5 t-221 -105.5q-100 0 -127 72zM614 791q-84 0 -135 -70t-51 -154q0 -74 38 -129t101 -55q84 0 125 79t41 165q0 66 -31 115t-88 49z" />
<glyph unicode="A" horiz-adv-x="847" d="M678 39l-55 229q-8 41 -52 41h-290q-43 0 -54 -41l-47 -229q-2 -16 -17.5 -27.5t-33.5 -11.5h-98q-30 0 -30 26q0 6 1 13l320 1360q6 35 47 35h116q41 0 47 -35l318 -1360q2 -9 2 -16q0 -23 -27 -23h-100q-37 0 -47 39zM322 487h210q18 0 28 12q6 8 7 19q0 5 -2 10 l-129 529q-2 14 -10 14t-10 -14l-123 -529q-2 -9 -2 -15q0 -26 31 -26z" />
<glyph unicode="B" horiz-adv-x="874" d="M326 168h90q88 0 134 69.5t46 186.5q0 109 -47 182.5t-133 73.5h-90q-25 0 -25 -23v-467q0 -22 25 -22zM416 1266h-90q-25 0 -25 -23v-375q0 -23 25 -22h90q84 0 132 59.5t48 149.5q0 92 -48 151.5t-132 59.5zM469 0h-313q-27 0 -38.5 12.5t-11.5 40.5v1327 q0 29 11.5 41.5t38.5 12.5h313q131 0 226.5 -99.5t95.5 -279.5q0 -197 -156 -279q156 -84 156 -352q0 -229 -91.5 -326.5t-230.5 -97.5z" />
<glyph unicode="C" horiz-adv-x="833" d="M92 309v813q0 152 88 237t250 85q164 0 251 -75t87 -247v-80q0 -35 -35 -34h-121q-39 0 -39 34v45q0 162 -143 162t-143 -162v-743q0 -162 143 -162t143 162v45q0 35 39 35h121q35 0 35 -35v-80q0 -172 -87 -245.5t-251 -73.5q-162 0 -250 83.5t-88 235.5z" />
<glyph unicode="D" horiz-adv-x="878" d="M596 350v733q0 182 -158 183h-108q-29 0 -29 -29v-1040q0 -29 29 -29h108q158 0 158 182zM791 1083v-733q0 -180 -86.5 -265t-266.5 -85h-297q-35 0 -35 35v1364q0 35 35 35h297q180 0 266.5 -85.5t86.5 -265.5z" />
<glyph unicode="E" horiz-adv-x="825" d="M711 1255h-369q-41 0 -41 -43v-362q0 -41 41 -41h289q37 0 37 -39v-102q0 -37 -37 -37h-289q-41 0 -41 -43v-371q0 -39 41 -39h369q39 0 39 -41v-96q0 -41 -39 -41h-566q-39 0 -39 37v1362q0 35 39 35h566q39 0 39 -35v-103q0 -41 -39 -41z" />
<glyph unicode="F" d="M143 1434h570q39 0 39 -37v-103q0 -39 -39 -39h-377q-35 0 -35 -38v-369q0 -39 35 -39h297q41 0 41 -41v-98q0 -39 -41 -39h-297q-35 0 -35 -41v-549q0 -41 -39 -41h-119q-37 0 -37 41v1356q0 37 37 37z" />
<glyph unicode="G" horiz-adv-x="915" d="M573 344v209q0 29 -28 29h-88q-35 0 -35 39v104q0 35 35 35h276q35 0 35 -35v-416q0 -172 -87 -245.5t-251 -73.5q-162 0 -250 84t-88 235v813q0 152 88 237t250 85q164 0 251 -75t87 -247v-80q0 -35 -35 -34h-121q-39 0 -39 34v45q0 162 -143 162t-143 -162v-743 q0 -162 143 -162t143 162z" />
<glyph unicode="H" horiz-adv-x="892" d="M557 631h-219q-37 0 -37 -41v-547q0 -43 -39 -43h-115q-41 0 -41 43v1356q0 35 41 35h115q39 0 39 -35v-549q0 -41 37 -41h219q41 0 41 41v549q0 35 35 35h125q35 0 35 -35v-1356q0 -43 -37 -43h-123q-35 0 -35 43v547q0 41 -41 41z" />
<glyph unicode="I" horiz-adv-x="444" d="M319 1399v-1358q0 -41 -34 -41h-121q-39 0 -39 41v1358q0 35 39 35h121q34 0 34 -35z" />
<glyph unicode="J" horiz-adv-x="663" d="M8 104q-10 11 -10 22t10 21l92 86q27 23 54 0q55 -51 118 -51q104 0 105 140v1077q0 35 39 35h121q35 0 34 -35v-1071q0 -174 -80.5 -256t-201.5 -82q-154 -1 -281 114z" />
<glyph unicode="K" horiz-adv-x="899" d="M322 811l305 588q16 35 57 35h117q35 0 20 -27l-274 -500q-15 -28 -15 -53q0 -17 7 -33l327 -782q5 -11 5 -19q0 -20 -31 -20h-129q-33 0 -49 39l-236 559q-8 20 -22.5 20t-22.5 -16l-64 -121q-16 -33 -16 -69v-373q0 -39 -41 -39h-110q-43 0 -44 39v1358q0 37 44 37h110 q41 0 41 -37v-584q0 -16 12 -10q5 2 9 8z" />
<glyph unicode="L" horiz-adv-x="794" d="M336 178h379q39 0 39 -41v-94q0 -43 -39 -43h-565q-43 0 -44 43v1354q0 37 44 37h112q39 0 39 -37v-1184q0 -35 35 -35z" />
<glyph unicode="M" horiz-adv-x="1185" d="M870 877l-211 -578q-12 -33 -51 -33h-33q-39 0 -51 33l-211 578q-10 12 -12 -9v-829q0 -39 -39 -39h-117q-39 0 -39 39v1362q0 33 44 33h120q37 0 49 -33l263 -717q10 -25 20 0l262 717q12 33 49 33h121q43 0 43 -33v-1362q0 -39 -39 -39h-116q-39 0 -39 39v829 q0 14 -4.5 16.5t-8.5 -7.5z" />
<glyph unicode="N" horiz-adv-x="960" d="M326 1401l321 -844q10 -12 12 8v830q0 39 39 39h117q39 0 39 -39v-1362q0 -33 -43 -33h-121q-37 0 -49 33l-322 844q-10 12 -12 -9v-829q0 -39 -39 -39h-116q-39 0 -39 39v1362q0 33 43 33h120q38 0 50 -33z" />
<glyph unicode="O" horiz-adv-x="858" d="M573 344v743q0 162 -143 162t-143 -162v-743q0 -162 143 -162t143 162zM768 1122v-813q0 -172 -87 -245.5t-251 -73.5q-162 0 -250 84t-88 235v813q0 152 88 237t250 85q164 0 251 -75t87 -247z" />
<glyph unicode="P" horiz-adv-x="823" d="M301 1237v-477q0 -29 29 -29h78q188 0 188 189v155q0 90 -48 140.5t-140 50.5h-78q-29 0 -29 -29zM106 35v1364q0 35 35 35h305q158 0 251.5 -101.5t93.5 -257.5v-155q0 -164 -90.5 -259.5t-254.5 -95.5h-116q-29 0 -29 -28v-502q0 -35 -35 -35h-125q-35 0 -35 35z" />
<glyph unicode="Q" horiz-adv-x="821" d="M768 1122v-813q0 -70 -16 -129l79 -61q15 -11 15 -25q0 -13 -12 -28l-35 -46q-14 -18 -31 -17q-12 0 -27 9l-63 47q-80 -70 -248 -69q-162 0 -250 84t-88 235v813q0 152 88 237t250 85q164 0 251 -75t87 -247zM504 197l-92 71q-31 23 -4 54l38 47q25 29 54 6l71 -58 q2 8 2 27v743q0 162 -143 162t-143 -162v-743q0 -162 143 -162q45 1 74 15z" />
<glyph unicode="R" horiz-adv-x="866" d="M618 618q-16 -10 -8 -32l178 -557q2 -6 2 -11q0 -18 -26 -18h-125q-49 0 -55 29l-154 508q-8 29 -35 28h-65q-29 0 -29 -28v-502q0 -35 -35 -35h-125q-35 0 -35 35v1364q0 35 35 35h275q158 0 251 -101.5t93 -257.5v-155q0 -104 -40.5 -187.5t-101.5 -114.5zM301 1237 v-477q0 -29 29 -29h47q188 0 188 189v155q0 90 -48 140.5t-140 50.5h-47q-29 0 -29 -29z" />
<glyph unicode="S" horiz-adv-x="839" d="M242 311q39 -129 168 -129q74 0 121 46t47 118q0 88 -51.5 150.5t-161.5 140.5q-139 100 -217 207.5t-78 251.5q0 145 101 246.5t240.5 101.5t230.5 -76t118 -203q8 -31 -23 -37l-123 -26q-33 -8 -45 26q-47 121 -157 121q-61 0 -104.5 -43t-43.5 -106q0 -80 47 -150.5 t164 -152.5q297 -207 297 -451q0 -164 -107.5 -260t-254.5 -96q-123 0 -221.5 71.5t-137.5 212.5q-2 6 -2 12q0 20 25 25l123 27q35 8 45 -27z" />
<glyph unicode="T" horiz-adv-x="825" d="M791 1391v-97q0 -39 -41 -39h-199q-41 0 -41 -41v-1179q0 -35 -37 -35h-121q-37 0 -37 35v1179q0 41 -41 41h-200q-41 0 -41 39v97q0 43 41 43h676q41 0 41 -43z" />
<glyph unicode="U" horiz-adv-x="888" d="M596 344v1055q0 35 39 35h121q35 0 35 -35v-1090q0 -172 -90.5 -245.5t-254.5 -73.5q-162 0 -252 84t-90 235v1090q0 35 39 35h121q35 0 35 -35v-1055q0 -162 147 -162q150 0 150 162z" />
<glyph unicode="V" horiz-adv-x="851" d="M838 1395l-299 -1360q-6 -35 -47 -35h-132q-41 0 -47 35l-299 1360q-1 7 -1 13q0 26 30 26h111q43 0 51 -39l211 -951q2 -14 10 -14t10 14l211 951q8 39 51 39h111q30 0 30 -26q0 -6 -1 -13z" />
<glyph unicode="W" horiz-adv-x="1251" d="M786 35l-151 842q-2 14 -10.5 14t-10.5 -14l-151 -842q-6 -35 -47 -35h-103q-41 0 -47 35l-235 1360q-1 6 -1 10q0 28 29 29h111q45 0 51 -39l144 -828q2 -14 10 -14t10 14l143 828q6 39 45 39h103q39 0 45 -39l143 -828q2 -14 10.5 -14t10.5 14l143 828q6 39 51 39h111 q30 0 29 -29v-10l-236 -1360q-6 -35 -47 -35h-102q-42 0 -48 35z" />
<glyph unicode="X" d="M606 29l-180 452q-14 39 -29 0l-180 -452q-12 -29 -47 -29h-123q-28 0 -28 16q0 5 4 13l276 690q7 17 7 34.5t-7 34.5l-242 609q-14 37 19 37h123q37 0 45 -27l153 -379q14 -39 29 0l154 379q8 27 45 27h123q33 0 18 -37l-242 -609q-7 -17 -7 -34.5t7 -34.5l277 -690 q3 -7 3 -13q0 -16 -28 -16h-123q-35 0 -47 29z" />
<glyph unicode="Y" horiz-adv-x="774" d="M293 41v532q0 70 -14 103l-283 721q-4 11 -4 19q0 18 22 18h123q37 0 45 -27l195 -492q14 -35 29 0l194 492q8 27 45 27h123q23 0 23 -18q0 -8 -5 -19l-282 -721q-16 -39 -17 -103v-532q0 -41 -34 -41h-121q-39 0 -39 41z" />
<glyph unicode="Z" horiz-adv-x="747" d="M78 209l381 1008q14 39 -21 38h-297q-37 0 -37 37v105q0 37 37 37h512q37 0 37 -37v-117q0 -25 -12 -55l-381 -1008q-8 -16 -2 -27.5t22 -11.5h336q37 0 37 -37v-104q0 -37 -37 -37h-551q-37 0 -36 37v117q0 24 12 55z" />
<glyph unicode="[" horiz-adv-x="569" d="M266 1309v-1336q0 -31 31 -30h170q31 0 31 -31v-33q0 -31 -31 -31h-361q-35 0 -34 37v1512q0 37 34 37h361q31 0 31 -31v-33q0 -31 -31 -31h-170q-31 1 -31 -30z" />
<glyph unicode="\" horiz-adv-x="1030" d="M133 1434h123q39 0 55 -37l615 -1354q18 -43 -21 -43h-141q-27 0 -47 43l-619 1354q-16 37 35 37z" />
<glyph unicode="]" horiz-adv-x="569" d="M303 -27v1336q0 31 -31 30h-170q-31 0 -30 31v33q0 31 30 31h361q35 0 35 -37v-1512q0 -37 -35 -37h-361q-31 0 -30 31v33q0 31 30 31h170q31 -1 31 30z" />
<glyph unicode="^" horiz-adv-x="1191" d="M846 641l-242 535q-10 25 -22 0l-240 -535q-18 -41 -45 -41h-135q-18 0 -29.5 11.5t-3.5 29.5l342 752q8 16 12 23t12.5 12.5t20.5 5.5h160q27 0 45 -41l342 -752q8 -18 -3 -29.5t-30 -11.5h-139q-27 0 -45 41z" />
<glyph unicode="_" horiz-adv-x="993" d="M39 -150h915q39 0 39 -34v-23q0 -41 -39 -41h-915q-39 0 -39 41v23q0 34 39 34z" />
<glyph unicode="`" horiz-adv-x="481" d="M414 1151q14 -33 -17 -33h-100q-25 0 -35 15q-12 14 -100 141t-94 133q-8 10 -2 18.5t20 8.5h186q33 0 43 -25z" />
<glyph unicode="a" horiz-adv-x="792" d="M526 39v16q0 37 -20 13q-66 -78 -191 -78q-117 0 -187.5 75.5t-70.5 225.5q0 324 420 323q39 0 39 39v105q0 51 -35 76.5t-78 25.5q-76 0 -114 -65q-8 -14 -39 -9l-113 29q-25 6 -12 33q41 86 116.5 136t161.5 50q137 0 218 -78.5t81 -210.5v-706q0 -39 -32 -39h-111 q-33 0 -33 39zM516 326v110q0 16 -12 27.5t-29 11.5q-92 0 -153.5 -49t-61.5 -145q0 -66 36 -98.5t93 -32.5q55 0 91 49t36 127z" />
<glyph unicode="b" horiz-adv-x="796" d="M719 721v-418q0 -139 -65.5 -226t-207.5 -87q-86 0 -151 43q-20 14 -21 -6q0 -27 -38 -27h-109q-39 0 -39 41v1358q0 35 39 35h109q39 0 38 -35v-393q0 -29 21 -15q66 43 151 43q141 0 207 -87t66 -226zM274 758v-492q0 -27 38 -60.5t89 -33.5q131 0 131 190v300 q0 190 -131 190q-51 0 -89 -33.5t-38 -60.5z" />
<glyph unicode="c" horiz-adv-x="763" d="M256 688v-352q0 -162 147 -162q53 0 90 26.5t37 78.5q0 27 29 26h129q29 0 29 -26q0 -119 -83 -204t-222 -85q-158 0 -250 94t-92 283v290q0 188 92 282.5t250 94.5q139 0 222 -85t83 -204q0 -27 -29 -26h-129q-29 0 -29 26q0 51 -36.5 78t-90.5 27q-147 0 -147 -162z " />
<glyph unicode="d" horiz-adv-x="794" d="M76 303v418q0 139 65.5 226t206.5 87q86 0 152 -43q20 -14 20 15v393q0 35 39 35h109q39 0 39 -35v-1358q0 -41 -39 -41h-109q-39 0 -39 27q0 20 -20 6q-66 -43 -152 -43q-141 0 -206.5 87t-65.5 226zM520 266v492q0 27 -38 60.5t-89 33.5q-131 0 -131 -190v-300 q0 -190 131 -190q51 0 89 33.5t38 60.5z" />
<glyph unicode="e" horiz-adv-x="792" d="M254 416v-56q0 -186 147 -186q57 0 84 16.5t43 53.5q18 43 56 43h94q41 0 41 -32q0 -8 -2 -17q-29 -106 -105.5 -177t-210.5 -71q-143 0 -237 105.5t-94 264.5v308q0 160 93 263t238 103q143 0 233.5 -103.5t90.5 -262.5v-189q0 -41 -45 -41h-406q-20 1 -20 -22z M401.5 850q-73.5 0 -110.5 -51t-37 -131v-29q0 -20 20 -21h254q20 0 21 21v29q0 80 -37 131t-110.5 51z" />
<glyph unicode="f" horiz-adv-x="499" d="M457 1444q31 0 30 -31v-117q0 -31 -30 -30q-66 0 -89.5 -41t-23.5 -125v-45q0 -31 31 -31h61q31 0 31 -31v-116q0 -31 -31 -31h-61q-31 0 -31 -31v-774q0 -41 -39 -41h-108q-39 0 -39 41v774q0 31 -31 31h-64q-31 0 -30 31v116q0 31 30 31h64q31 0 31 31v47 q0 342 299 342z" />
<glyph unicode="g" horiz-adv-x="794" d="M520 -27v45q0 29 -20 15q-66 -43 -152 -43q-141 0 -206.5 87t-65.5 226v418q0 139 65.5 226t206.5 87q86 0 152 -43q20 -14 20 6q0 27 39 27h109q39 0 39 -41v-983q0 -184 -82 -281.5t-234 -97.5q-264 0 -313 256q-2 7 -2 13q0 28 43 28h102q20 0 31.5 -7t24 -34 t22.5 -40t34.5 -23.5t63.5 -10.5q123 0 123 170zM520 266v492q0 27 -38 60.5t-89 33.5q-131 0 -131 -190v-300q0 -190 131 -190q51 0 89 33.5t38 60.5z" />
<glyph unicode="h" horiz-adv-x="800" d="M526 41v739q0 90 -102 90q-51 0 -98 -38.5t-47 -71.5v-719q0 -41 -39 -41h-109q-39 0 -39 41v1358q0 35 39 35h109q39 0 39 -35v-455q0 -31 18 -8q88 98 203 98q111 0 162 -54t51 -177v-762q0 -41 -39 -41h-109q-39 0 -39 41z" />
<glyph unicode="i" horiz-adv-x="403" d="M147 1434h109q39 0 39 -35v-92q0 -41 -39 -41h-109q-39 0 -38 41v92q-1 35 38 35zM147 1024h109q39 0 39 -35v-948q0 -41 -39 -41h-109q-39 0 -38 41v948q-1 35 38 35z" />
<glyph unicode="j" horiz-adv-x="468" d="M233 1434h109q39 0 39 -35v-92q0 -41 -39 -41h-109q-39 0 -38 41v92q-1 35 38 35zM195 -45v68v966q0 35 38 35h109q39 0 39 -35v-944v-90q0 -166 -94 -250t-201 -84q-61 0 -90 12q-13 6 -13 21q0 9 5 20l10 33q10 33 20.5 60.5t12.5 35.5q10 25 37 19q8 -2 22 -2 q49 0 77 41t28 94z" />
<glyph unicode="k" horiz-adv-x="772" d="M371 414l-88 -138q-8 -12 -9 -40v-195q0 -41 -38 -41h-109q-39 0 -39 41v1358q0 35 39 35h109q39 0 38 -35v-803q0 -16 13 -10q4 2 8 8l244 405q14 25 45 25h112q28 0 29 -17q0 -10 -10 -26l-195 -326q-10 -16 0 -41l234 -559q10 -21 9 -34q0 -21 -24 -21h-147 q-37 0 -45 23l-156 391q-8 20 -20 0z" />
<glyph unicode="l" horiz-adv-x="405" d="M147 1434h109q39 0 39 -35v-1358q0 -41 -39 -41h-109q-39 0 -38 41v1358q-1 35 38 35z" />
<glyph unicode="m" horiz-adv-x="1214" d="M686 936q10 -18 31 0q2 2 13 11t15.5 13.5t15.5 13.5t18 13l20 11l21 12l24 10q14 6 26.5 8t27.5 4t32 2q111 0 162 -54t51 -177v-762q0 -41 -39 -41h-109q-39 0 -39 41v739q0 90 -102 90q-51 0 -98 -38.5t-47 -71.5v-719q0 -41 -39 -41h-109q-39 0 -39 41v739 q0 90 -102 90q-51 0 -98.5 -38.5t-47.5 -71.5v-719q0 -41 -38 -41h-109q-39 0 -39 41v948q0 35 39 35h98q39 0 39 -35v-45q0 -31 19 -8q88 98 213 98q76 0 118.5 -21.5t71.5 -76.5z" />
<glyph unicode="n" horiz-adv-x="796" d="M522 41v739q0 90 -102 90q-51 0 -98.5 -38.5t-47.5 -71.5v-719q0 -41 -38 -41h-109q-39 0 -39 41v948q0 35 39 35h98q39 0 39 -35v-45q0 -31 19 -8q88 98 213 98q111 0 162 -54t51 -177v-762q0 -41 -39 -41h-109q-39 0 -39 41z" />
<glyph unicode="o" d="M403.5 -10q-155.5 0 -244.5 94t-89 283v290q0 188 89 282.5t244.5 94.5t244.5 -94t89 -283v-290q0 -188 -89 -282.5t-244.5 -94.5zM403.5 174q147.5 0 147.5 162v352q0 162 -147.5 162t-147.5 -162v-352q0 -162 147.5 -162z" />
<glyph unicode="p" horiz-adv-x="804" d="M719 721v-418q0 -139 -65.5 -226t-207.5 -87q-86 0 -151 43q-20 14 -21 -15v-362q0 -35 -38 -35h-109q-39 0 -39 35v1327q0 41 39 41h109q39 0 38 -27q0 -20 21 -6q66 43 151 43q141 0 207 -87t66 -226zM274 758v-492q0 -27 38 -60.5t89 -33.5q131 0 131 190v300 q0 190 -131 190q-51 0 -89 -33.5t-38 -60.5z" />
<glyph unicode="q" horiz-adv-x="796" d="M78 303v418q0 139 65.5 226t206.5 87q86 0 152 -43q20 -14 20 6q0 27 39 27h109q39 0 39 -41v-1327q0 -35 -39 -35h-109q-39 0 -39 35v362q0 29 -20 15q-66 -43 -152 -43q-141 0 -206.5 87t-65.5 226zM522 266v492q0 27 -38 60.5t-89 33.5q-131 0 -131 -190v-300 q0 -190 131 -190q51 0 89 33.5t38 60.5z" />
<glyph unicode="r" horiz-adv-x="618" d="M272 989v-47q0 -18 13 -18q4 0 14 6l27 15l26 16q90 49 195 49q14 0 23.5 -11.5t9.5 -23.5v-127q0 -35 -33 -35q-129 0 -213 -65q-61 -55 -62 -142v-565q0 -41 -39 -41h-108q-39 0 -39 41v948q0 35 39 35h108q39 0 39 -35z" />
<glyph unicode="s" horiz-adv-x="661" d="M340 170q41 0 67.5 26.5t26.5 67.5q0 25 -10 47.5t-33.5 44t-39 33.5t-51.5 37t-46 31q-109 76 -159 138t-50 165q0 111 84 192.5t193 81.5q78 0 154.5 -46t117.5 -161q12 -31 -10 -39l-121 -43q-25 -8 -37 19q-39 90 -111 90q-33 0 -60.5 -25.5t-27.5 -66.5 q0 -35 20.5 -66.5t37 -46t61.5 -42t53 -34.5q217 -147 217 -311q0 -111 -88 -191.5t-198 -80.5q-74 0 -149 46t-120 157q-16 37 19 47l110 36q31 10 41 -14q37 -92 109 -92z" />
<glyph unicode="t" horiz-adv-x="528" d="M426 -10q-299 0 -299 342v483q0 31 -31 31h-57q-31 0 -31 31v116q0 31 31 31h57q31 0 31 31v164q0 41 39 41h108q39 0 39 -41v-164q0 -31 31 -31h82q31 0 31 -31v-116q0 -31 -31 -31h-82q-31 0 -31 -31v-481q0 -84 23.5 -125t89.5 -41q31 0 31 -31v-117q0 -30 -31 -30z " />
<glyph unicode="u" horiz-adv-x="786" d="M264 983v-739q0 -90 103 -90q51 0 98 38.5t47 71.5v719q0 41 39 41h108q39 0 39 -41v-948q0 -35 -39 -35h-98q-39 0 -39 35v45q0 31 -18 8q-88 -98 -213 -98q-111 0 -162 54t-51 177v762q0 41 39 41h108q39 0 39 -41z" />
<glyph unicode="v" horiz-adv-x="720" d="M195 983l155 -582q4 -14 10.5 -14t10.5 14l155 582q10 41 47 41h109q39 0 39 -28q0 -6 -2 -13l-258 -946q-10 -37 -43 -37h-115q-33 0 -43 37l-258 946q-2 7 -2 13q0 28 39 28h108q38 0 48 -41z" />
<glyph unicode="w" horiz-adv-x="1032" d="M643 37l-115 561q-2 14 -10 14t-10 -14l-115 -561q-8 -37 -43 -37h-114q-35 0 -43 37l-183 946q-1 6 -1 12q0 29 38 29h109q39 0 47 -41l110 -582q2 -14 10.5 -14t10.5 14l110 586q8 37 43 37h62q35 0 43 -37l110 -586q2 -14 10.5 -14t10.5 14l111 582q8 41 47 41h108 q38 0 38 -29q0 -5 -1 -12l-182 -946q-8 -37 -43 -37h-115q-35 0 -43 37z" />
<glyph unicode="x" horiz-adv-x="671" d="M668 987l-224 -432q-12 -25 0 -49l242 -469q2 -6 3 -11q0 -8 -6 -15q-9 -11 -32 -11h-112q-31 0 -47 37l-142 282q-12 25 -24 0l-142 -282q-16 -37 -47 -37h-112q-23 0 -32 11q-6 7 -6 15q0 5 3 11l239 469q12 25 0 49l-221 432q-6 14 3 25.5t32 11.5h113q31 0 47 -37 l123 -246q12 -25 24 0l123 246q16 37 47 37h113q23 0 32 -11.5t3 -25.5z" />
<glyph unicode="y" horiz-adv-x="729" d="M725 983l-311 -1141q-31 -111 -114 -166t-185 -55q-25 0 -25 29v119q0 39 25 38q109 0 145 173q4 17 4 35q0 30 -10 67l-246 901q-2 7 -2 13q0 28 39 28h109q37 0 47 -41l155 -582q4 -14 10.5 -14t10.5 14l155 582q10 41 48 41h108q39 0 39 -28q0 -6 -2 -13z" />
<glyph unicode="z" horiz-adv-x="724" d="M664 807l-390 -590q-10 -16 -1.5 -27.5t26.5 -11.5h344q35 0 35 -37v-104q0 -37 -35 -37h-557q-41 0 -41 39v96q0 59 14 82l390 590q10 16 1.5 27.5t-26.5 11.5h-328q-35 0 -35 37v104q0 37 35 37h541q41 0 41 -39v-96q0 -59 -14 -82z" />
<glyph unicode="{" horiz-adv-x="679" d="M72 618v52q0 31 26 37q84 20 84 155v402q0 98 46 144t161 46h193q27 0 26 -29v-41q0 -27 -26 -26h-138q-72 0 -71 -98v-386q0 -106 -50.5 -163.5t-99.5 -63.5v-6q49 -6 99.5 -63.5t50.5 -163.5v-391q0 -98 71 -99h138q27 0 26 -26v-39q0 -29 -26 -29h-193q-115 0 -161 45 t-46 143v408q0 74 -25.5 111.5t-58.5 46.5q-26 1 -26 34z" />
<glyph unicode="|" horiz-adv-x="440" d="M317 1409v-1378q0 -41 -34 -41h-121q-39 0 -39 41v1378q0 35 39 35h121q34 0 34 -35z" />
<glyph unicode="}" horiz-adv-x="679" d="M608 666v-52q0 -31 -26 -36q-84 -20 -84 -156v-402q0 -98 -46 -144t-161 -46h-193q-27 0 -26 29v41q0 27 26 26h138q72 0 71 99v385q0 106 50.5 163.5t99.5 63.5v6q-49 6 -99.5 63.5t-50.5 163.5v392q0 98 -71 98h-138q-27 0 -26 26v39q0 29 26 29h193q115 0 161 -45 t46 -143v-408q0 -74 25.5 -111.5t58.5 -46.5q26 -1 26 -34z" />
<glyph unicode="~" horiz-adv-x="1265" d="M838 350q-96 0 -232 76q-92 51 -164 51q-96 0 -176 -94q-16 -18 -22 -18t-15 18l-59 117q-12 23 20 55q51 53 122 87t130 34q31 0 59.5 -6t43.5 -13l50 -22l50 -23l41 -18l40 -19q13 -6 33.5 -13t39 -10t39.5 -3q47 0 92 29.5t69 68.5q20 35 37 0l60 -117q12 -23 -21 -55 q-120 -125 -237 -125z" />
<glyph unicode="&#xa1;" horiz-adv-x="473" d="M295 1059h-117q-39 0 -39 35v106q0 41 39 41h117q39 0 39 -41v-106q0 -35 -39 -35zM309 -193h-145q-39 0 -39 35l22 1008q0 41 39 41h99q39 0 39 -41l24 -1008q0 -35 -39 -35z" />
<glyph unicode="&#xa2;" horiz-adv-x="763" d="M403 174q53 0 90 26.5t37 78.5q0 27 29 26h129q29 0 29 -26q0 -119 -83 -204t-222 -85q-49 0 -101 10l-39 -158q-10 -37 -39 -37h-71q-27 0 -17 37l52 211q-127 94 -127 314v290q0 188 92 282.5t250 94.5q20 0 28 -2l35 137q8 33 47 33h58q39 0 28 -33l-43 -172 q72 -37 112 -105.5t40 -146.5q0 -27 -29 -26h-129q-29 0 -29 26q0 45 -30 72l-160 -635q24 -8 63 -8zM256 688v-352q0 -53 10 -82l148 596h-11q-147 0 -147 -162z" />
<glyph unicode="&#xa3;" horiz-adv-x="876" d="M586 328v26q0 39 35 39h120q23 0 31 -8t8 -31v-100q0 -131 -88 -197.5t-196 -66.5q-160 0 -238 84q-68 -57 -149 -82q-18 -10 -27.5 0t-10.5 16t-1 19v125q0 27 39 49q145 82 145 344q0 47 -8 98h-131q-45 0 -45 41v76q0 41 45 41h102q-4 16 -28.5 91t-34 123t-9.5 101 q0 141 92.5 234.5t225.5 93.5t219 -76t86 -221v-100q0 -23 -8 -31t-31 -8h-121q-35 0 -35 39v63q0 72 -30.5 105.5t-79.5 33.5q-53 0 -84 -45t-31 -119q0 -53 29 -147t37 -137h155q25 0 35 -8.5t10 -32.5v-76q0 -25 -10 -33t-35 -8h-131q6 -55 6 -125q0 -176 -77 -309 q47 -37 108 -37q66 0 88.5 40t22.5 116z" />
<glyph unicode="&#xa4;" horiz-adv-x="923" d="M43 739.5q0 100.5 57 208.5q12 23 -2 37l-51 53q-31 31 -2 58l61 59q27 27 56 -2l53 -51q14 -14 39 0q94 53 206.5 53t207.5 -55q25 -12 39 2l53 51q29 29 55 2l62 -59q29 -27 -3 -58l-51 -53q-14 -14 -2 -37q57 -92 57.5 -208.5t-57.5 -209.5q-12 -23 2 -36l51 -54 q31 -31 3 -57l-62 -59q-27 -27 -55 2l-53 51q-14 14 -39 2q-94 -55 -207 -55t-207 53q-25 14 -39 0l-53 -51q-29 -29 -56 -2l-61 59q-29 27 2 57l51 54q14 14 2 36q-57 109 -57 209.5zM231 739.5q0 -100.5 67 -170t163 -69.5t162.5 69.5t66.5 170t-66.5 170t-162.5 69.5 t-163 -69.5t-67 -170z" />
<glyph unicode="&#xa5;" horiz-adv-x="985" d="M393 494h-289q-33 0 -32 26v74q0 29 32 29h287q-4 33 -12 53l-64 162l-211 2q-33 0 -32 26v74q0 29 32 29h160l-168 428q-14 37 19 37h123q37 0 45 -27l194 -492q14 -35 29 0l194 492q8 27 45 27h123q33 0 19 -37l-168 -428h162q33 0 32 -29v-74q0 -16 -6 -21t-26 -5 h-213l-64 -164q-14 -33 -16 -53h293q33 0 32 -29v-74q0 -16 -6 -21t-26 -5h-293v-453q0 -41 -35 -41h-121q-39 0 -39 41v453z" />
<glyph unicode="&#xa6;" horiz-adv-x="440" d="M317 1409v-524q0 -41 -34 -41h-121q-39 0 -39 41v524q0 35 39 35h121q34 0 34 -35zM317 555v-524q0 -41 -34 -41h-121q-39 0 -39 41v524q0 35 39 35h121q34 0 34 -35z" />
<glyph unicode="&#xa7;" horiz-adv-x="993" d="M287 782q0 -49 137 -196.5t192 -147.5q37 0 64 27t27 61q0 47 -136.5 193.5t-197.5 146.5q-39 0 -62.5 -24.5t-23.5 -59.5zM211 -41q-37 33 -6 57q35 23 88 68q16 10 26.5 6t26.5 -29q53 -76 131 -75q115 0 115 100q0 47 -50 110.5t-122 130.5l-145 136 q-73 70 -123 150.5t-50 152.5q0 96 60.5 156.5t161.5 70.5q-98 74 -99 209q0 109 73 175.5t212 66.5q147 0 262 -125q29 -33 0 -53l-82 -60q-29 -20 -63 19q-55 63 -117 63q-102 0 -102 -90q0 -47 50 -106.5t121 -120.5l141 -127q71 -66 121 -144.5t50 -152.5 q0 -100 -57.5 -167t-157.5 -69q98 -94 98 -215q0 -117 -73.5 -191.5t-188.5 -74.5q-162 0 -301 129z" />
<glyph unicode="&#xa8;" horiz-adv-x="581" d="M109 1368h108q39 0 39 -35v-110q0 -41 -39 -41h-108q-39 0 -39 41v110q0 35 39 35zM365 1368h108q39 0 39 -35v-110q0 -41 -39 -41h-108q-39 0 -39 41v110q0 35 39 35z" />
<glyph unicode="&#xa9;" horiz-adv-x="1716" d="M858 -10q-305 0 -525 202.5t-220 524.5q0 213 104.5 382t273 257t367.5 88t368 -88t273.5 -257t104.5 -382q0 -322 -220.5 -524.5t-525.5 -202.5zM1411 717q0 248 -160.5 410.5t-392.5 162.5q-236 0 -394.5 -161.5t-158.5 -411.5t159 -412t394 -162q231 0 392 163 t161 411zM756 543v360q0 47 28.5 75t73.5 28q47 0 76 -27t29 -76v-29q0 -20 22 -20h111q20 0 20 20v70q0 102 -79 164.5t-179 62.5q-106 0 -181 -61t-75 -166v-442q0 -104 75 -166t181 -62q100 0 179 62.5t79 165.5v69q0 20 -20 21h-111q-23 0 -22 -21v-28q0 -49 -29 -76 t-76 -27q-45 0 -73.5 28t-28.5 75z" />
<glyph unicode="&#xaa;" horiz-adv-x="456" d="M352 823v11q0 14 -6 14q-4 -2 -6 -6q-43 -49 -121 -49q-74 0 -119 48t-45 142q0 205 267 205q25 0 24 24v68q0 31 -22.5 47t-49.5 16q-49 0 -71 -43q-6 -8 -25 -4l-72 19q-16 4 -8 20q27 55 75 87t101 32q86 0 138.5 -50t52.5 -132v-449q0 -25 -21 -24h-71q-21 -1 -21 24 zM346 1006v69q0 25 -27 25q-59 0 -97 -31t-38 -94q0 -80 80 -80q35 0 58.5 31t23.5 80z" />
<glyph unicode="&#xab;" horiz-adv-x="1007" d="M330 528q-12 -16 0 -32l196 -265q18 -25 -10 -24h-147q-14 0 -33 24l-189 252q-23 31 3 64l186 246q18 25 33 24h153q29 0 10 -24zM662 528q-12 -16 0 -32l196 -265q18 -25 -10 -24h-148q-14 0 -32 24l-189 252q-23 31 2 64l187 246q18 25 32 24h154q29 0 10 -24z" />
<glyph unicode="&#xac;" horiz-adv-x="1259" d="M1126 768v-520q0 -39 -41 -39h-106q-35 0 -35 39v346q0 31 -31 31h-741q-39 0 -39 41v106q0 35 39 35h913q41 0 41 -39z" />
<glyph unicode="&#xad;" horiz-adv-x="702" d="M147 604h408q39 0 39 -35v-106q0 -41 -39 -41h-408q-39 0 -38 41v106q-1 35 38 35z" />
<glyph unicode="&#xae;" horiz-adv-x="1716" d="M858 -10q-305 0 -525 202.5t-220 524.5q0 213 104.5 382t273 257t367.5 88t368 -88t273.5 -257t104.5 -382q0 -322 -220.5 -524.5t-525.5 -202.5zM1411 717q0 248 -160.5 410.5t-392.5 162.5q-236 0 -394.5 -161.5t-158.5 -411.5t159 -412t394 -162q231 0 392 163 t161 411zM1034 678q-8 -6 -4 -21l121 -364q6 -18 -14 -19h-121q-31 0 -35 19l-96 317q-6 18 -23 19h-63q-18 0 -19 -19v-313q0 -23 -20 -23h-121q-23 0 -23 23v852q0 23 23 22h233q102 0 180 -65.5t78 -159.5v-96q0 -117 -96 -172zM780 1026v-233q0 -18 19 -19h51 q117 0 117 119v31q0 121 -117 120h-51q-19 0 -19 -18z" />
<glyph unicode="&#xaf;" horiz-adv-x="681" d="M100 1262h482q39 0 39 -35v-47q0 -41 -39 -41h-482q-39 0 -39 41v47q0 35 39 35z" />
<glyph unicode="&#xb0;" horiz-adv-x="794" d="M397.5 997q71.5 0 117.5 50.5t46 121.5q0 74 -46 124t-117.5 50t-118 -50t-46.5 -124q0 -72 46.5 -122t118 -50zM397 887q-121 0 -203.5 82t-82.5 200q0 121 82.5 203t203.5 82t204 -82t83 -203q0 -119 -83 -200.5t-204 -81.5z" />
<glyph unicode="&#xb1;" horiz-adv-x="1265" d="M541 758v209q0 39 34 39h107q41 0 41 -39v-209q0 -31 31 -31h342q39 0 39 -35v-106q0 -41 -39 -41h-342q-31 0 -31 -31v-209q0 -39 -41 -39h-107q-35 0 -34 39v209q0 31 -31 31h-340q-39 0 -39 41v106q0 35 39 35h340q31 0 31 31zM170 182h926q39 0 39 -35v-106 q0 -41 -39 -41h-926q-39 0 -39 41v106q0 35 39 35z" />
<glyph unicode="&#xb2;" horiz-adv-x="593" d="M61 1208q0 111 74 173.5t176 62.5q94 0 157.5 -53.5t63.5 -137.5q0 -176 -114 -346q-25 -35 -57 -74l-50 -63l-20 -25q-10 -16 12 -16h197q29 0 28 -29v-98q0 -33 -28 -33h-408q-31 0 -31 33v92q0 35 11 49l48 58l48 57l40 51q24 31 44 64l43 71q55 100 55 185 q0 55 -55 55q-27 0 -45.5 -21.5t-18.5 -54.5q0 -29 -34 -28h-107q-29 -1 -29 28z" />
<glyph unicode="&#xb3;" horiz-adv-x="579" d="M213 1194h-125q-20 0 -20 29q0 96 64.5 153.5t158.5 57.5q92 0 155.5 -57.5t63.5 -153.5v-66q0 -86 -84 -133q41 -14 66.5 -56t25.5 -91v-127q0 -96 -63.5 -149.5t-163.5 -53.5q-127 0 -178.5 59.5t-51.5 175.5q0 27 23 27h127q23 0 22 -27q0 -80 62 -80q55 0 55 80v97 q0 33 -18.5 47t-77.5 14q-27 0 -27 21v100q0 27 27 26q92 0 92 70v66q0 63 -55 63t-55 -69q0 -23 -23 -23z" />
<glyph unicode="&#xb4;" horiz-adv-x="481" d="M68 1151q84 223 98 258q10 25 43 25h186q14 0 20.5 -8.5t-1.5 -18.5q-6 -6 -94.5 -133t-100.5 -141q-10 -14 -35 -15h-100q-30 0 -16 33z" />
<glyph unicode="&#xb5;" horiz-adv-x="792" d="M272 -10v-297q0 -41 -39 -41h-108q-39 0 -39 41v1290q0 41 39 41h108q39 0 39 -41v-739q0 -90 103 -90q51 0 98 38.5t47 71.5v719q0 41 39 41h109q39 0 39 -41v-948q0 -35 -39 -35h-99q-39 0 -39 35v45q0 31 -18 8q-88 -98 -213 -98h-27z" />
<glyph unicode="&#xb6;" horiz-adv-x="1107" d="M436 -158v856q-170 0 -272.5 101.5t-102.5 261.5q0 373 414 373h531q41 0 41 -43v-45q0 -39 -41 -39h-29q-41 0 -41 -41v-1424q0 -35 -37 -35h-90q-37 0 -37 35v1424q0 41 -41 41h-96q-35 0 -35 -41v-1424q0 -35 -37 -35h-90q-37 0 -37 35z" />
<glyph unicode="&#xb7;" horiz-adv-x="391" d="M137 621h117q39 0 39 -35v-107q0 -41 -39 -41h-117q-39 0 -39 41v107q0 35 39 35z" />
<glyph unicode="&#xb8;" horiz-adv-x="548" d="M115 -326q78 -20 106 -20q109 0 109 78q0 49 -54.5 63.5t-93.5 -4.5q-14 -4 -22 4l-23 19q-10 8 -4 16l125 170h92l-80 -117q25 4 37 4q74 0 127 -41t53 -108q0 -86 -70.5 -139.5t-160.5 -53.5q-74 0 -172 33q-25 8 -18 33l14 49q6 22 35 14z" />
<glyph unicode="&#xb9;" horiz-adv-x="436" d="M27 1366l92 68q14 10 49 10h117q29 0 28 -29v-817q0 -29 -32 -29h-129q-29 0 -29 29v649q0 20 -19 8l-77 -51q-20 -14 -21 15v112q1 21 21 35z" />
<glyph unicode="&#xba;" horiz-adv-x="423" d="M288.5 791q-104.5 0 -166 56t-61.5 165v221q0 109 61.5 165t166 56t165 -56.5t60.5 -164.5v-221q0 -109 -60.5 -165t-165 -56zM193 1233v-219q0 -113 96 -113q51 0 72.5 25.5t21.5 87.5v219q0 61 -21.5 87t-72.5 26q-96 0 -96 -113z" />
<glyph unicode="&#xbb;" horiz-adv-x="1007" d="M678 528l-203 265q-18 25 10 24h154q14 0 33 -24l186 -246q25 -33 2 -64l-188 -252q-18 -25 -33 -24h-147q-29 0 -11 24l197 265q12 16 0 32zM346 528l-203 265q-18 25 11 24h153q14 0 33 -24l186 -246q25 -33 2 -64l-188 -252q-18 -25 -33 -24h-147q-29 0 -10 24 l196 265q12 16 0 32z" />
<glyph unicode="&#xbc;" horiz-adv-x="1368" d="M1276 254v-125q0 -14 -12 -14h-27q-16 0 -16 -11v-79q0 -25 -23 -25h-113q-27 0 -26 25v79q-4 10 -12 11h-289q-20 0 -21 24v103q0 18 4 47l201 624q16 23 35 23h115q10 0 15 -7t1 -16l-199 -624q-4 -23 17 -23h121q12 0 12 21v233q0 27 26 27h113q23 0 23 -27v-233 q0 -18 14 -19h27q14 0 14 -14zM113 1366l92 68q14 10 49 10h117q29 0 28 -29v-817q0 -29 -32 -29h-129q-29 0 -29 29v649q0 20 -19 8l-77 -51q-20 -14 -21 15v112q1 21 21 35zM991 1434h90q31 0 39 -8.5t-4 -28.5l-760 -1374q-18 -33 -51 -33h-102q-45 0 -21 43l754 1364 q20 37 55 37z" />
<glyph unicode="&#xbd;" horiz-adv-x="1390" d="M827 639q0 111 74 173t176 62q94 0 157.5 -53t63.5 -137q0 -176 -114 -346q-25 -35 -57 -75l-50 -62l-20 -25q-10 -16 12 -16h197q29 0 28 -29v-98q0 -33 -28 -33h-408q-31 0 -31 33v92q0 35 11 49l48 57l48 58l40 51q24 31 44 63l43 72q55 100 55 184q0 55 -55 56 q-27 0 -45.5 -21.5t-18.5 -54.5q0 -29 -34 -29h-107q-29 0 -29 29zM113 1366l92 68q14 10 49 10h117q29 0 28 -29v-817q0 -29 -32 -29h-129q-29 0 -29 29v649q0 20 -19 8l-77 -51q-20 -14 -21 15v112q1 21 21 35zM991 1434h90q31 0 39 -8.5t-4 -28.5l-760 -1374 q-18 -33 -51 -33h-102q-45 0 -21 43l754 1364q20 37 55 37z" />
<glyph unicode="&#xbe;" horiz-adv-x="1447" d="M1356 248v-109q0 -25 -21 -24h-18q-16 0 -17 -17v-73q0 -25 -22 -25h-113q-27 0 -26 25v75q0 14 -17 15h-284q-20 0 -21 24v103q0 35 14 77l191 594q8 23 35 23h114q25 0 17 -23l-199 -624q-6 -23 17 -23h112q20 0 21 21v233q0 27 26 27h113q23 0 22 -27v-233 q0 -18 17 -19h20q19 0 19 -20zM244 1194h-125q-20 0 -21 29q0 96 64.5 153.5t159.5 57.5q92 0 155.5 -57.5t63.5 -153.5v-66q0 -86 -84 -133q41 -14 66.5 -56t25.5 -91v-127q0 -96 -63.5 -149.5t-163.5 -53.5q-127 0 -178.5 59.5t-51.5 175.5q0 27 23 27h127q23 0 22 -27 q0 -80 62 -80q55 0 55 80v97q0 33 -18.5 47t-77.5 14q-27 0 -27 21v100q0 27 27 26q92 0 92 70v66q0 63 -55.5 63t-55.5 -69q1 -23 -22 -23zM1079 1434h90q31 0 39.5 -8.5t-4.5 -28.5l-760 -1374q-18 -33 -51 -33h-102q-45 0 -21 43l754 1364q20 37 55 37z" />
<glyph unicode="&#xbf;" horiz-adv-x="808" d="M485 1069h-116q-39 0 -39 35v106q0 41 39 41h116q39 0 39 -41v-106q0 -35 -39 -35zM719 66q-33 -117 -122 -188t-222 -71q-119 0 -186.5 69t-67.5 185q0 82 27.5 152t82.5 168q33 55 50.5 94t33 106.5t15.5 151.5v137q0 41 39 41h116q39 0 39 -41v-196q0 -147 -104 -344 q-4 -6 -19.5 -34t-19.5 -36t-16.5 -30.5t-17.5 -33t-12 -30t-10 -30.5t-6.5 -26.5t-3.5 -29.5q0 -37 23.5 -63.5t60.5 -26.5q82 0 129 112q12 35 45 27l123 -27q33 -5 23 -36z" />
<glyph unicode="&#xc0;" horiz-adv-x="847" d="M623 268l55 -229q10 -39 47 -39h100q35 0 25 39l-318 1360q-6 35 -47 35h-116q-41 0 -47 -35l-320 -1360q-8 -39 29 -39h98q18 0 33.5 11.5t17.5 27.5l47 229q10 41 54 41h290q44 0 52 -41zM532 487h-210q-39 0 -29 41l123 529q2 14 10 14t10 -14l129 -529 q4 -18 -5.5 -29.5t-27.5 -11.5zM489 1528q14 -33 -16 -33h-100q-25 0 -35 14q-12 14 -100 141.5t-95 133.5q-8 10 -2 18t21 8h186q33 0 43 -24z" />
<glyph unicode="&#xc1;" horiz-adv-x="847" d="M623 268l55 -229q10 -39 47 -39h100q35 0 25 39l-318 1360q-6 35 -47 35h-116q-41 0 -47 -35l-320 -1360q-8 -39 29 -39h98q18 0 33.5 11.5t17.5 27.5l47 229q10 41 54 41h290q44 0 52 -41zM532 487h-210q-39 0 -29 41l123 529q2 14 10 14t10 -14l129 -529 q4 -18 -5.5 -29.5t-27.5 -11.5zM350 1528q84 223 99 258q10 25 43 24h186q14 0 20.5 -8t-2.5 -18q-6 -6 -94 -133t-100 -142q-10 -14 -35 -14h-100q-31 0 -17 33z" />
<glyph unicode="&#xc2;" horiz-adv-x="847" d="M678 39l-55 229q-8 41 -52 41h-290q-43 0 -54 -41l-47 -229q-2 -16 -17.5 -27.5t-33.5 -11.5h-98q-37 0 -29 39l320 1360q6 35 47 35h116q41 0 47 -35l318 -1360q10 -39 -25 -39h-100q-37 0 -47 39zM322 487h210q18 0 27.5 11.5t5.5 29.5l-129 529q-2 14 -10 14t-10 -14 l-123 -529q-10 -41 29 -41zM414 1675l-72 -155q-14 -25 -45 -25h-98q-16 0 -21.5 10.5t2.5 20.5l121 256q16 29 51 28h148q35 0 51 -28l121 -256q8 -10 3 -20.5t-22 -10.5h-98q-31 0 -45 25l-74 155q-10 27 -22 0z" />
<glyph unicode="&#xc3;" horiz-adv-x="847" d="M623 268l55 -229q10 -39 47 -39h100q35 0 25 39l-318 1360q-6 35 -47 35h-116q-41 0 -47 -35l-320 -1360q-8 -39 29 -39h98q18 0 33.5 11.5t17.5 27.5l47 229q10 41 54 41h290q44 0 52 -41zM532 487h-210q-39 0 -29 41l123 529q2 14 10 14t10 -14l129 -529 q4 -18 -5.5 -29.5t-27.5 -11.5zM549 1495q-53 0 -123 35q-78 39 -121 39q-68 0 -78 -60q-2 -25 -24 -24h-60q-14 0 -19 4t-3 18q18 82 64 143.5t128 61.5q45 0 131 -39q84 -37 115 -37q72 0 76 66q2 20 24 20h58q12 0 18 -5t4 -15q-18 -96 -67 -151.5t-123 -55.5z" />
<glyph unicode="&#xc4;" horiz-adv-x="847" d="M678 39l-55 229q-8 41 -52 41h-290q-43 0 -54 -41l-47 -229q-2 -16 -17.5 -27.5t-33.5 -11.5h-98q-37 0 -29 39l320 1360q6 35 47 35h116q41 0 47 -35l318 -1360q10 -39 -25 -39h-100q-37 0 -47 39zM322 487h210q18 0 27.5 11.5t5.5 29.5l-129 529q-2 14 -10 14t-10 -14 l-123 -529q-10 -41 29 -41zM246 1704h108q39 0 39 -35v-110q0 -41 -39 -41h-108q-39 0 -39 41v110q0 35 39 35zM502 1704h108q39 0 39 -35v-110q0 -41 -39 -41h-108q-39 0 -39 41v110q0 35 39 35z" />
<glyph unicode="&#xc5;" horiz-adv-x="847" d="M623 268l55 -229q10 -39 47 -39h100q35 0 25 39l-318 1360q-6 35 -47 35h-116q-41 0 -47 -35l-320 -1360q-8 -39 29 -39h98q18 0 33.5 11.5t17.5 27.5l47 229q10 41 54 41h290q44 0 52 -41zM532 487h-210q-39 0 -29 41l123 529q2 14 10 14t10 -14l129 -529 q4 -18 -5.5 -29.5t-27.5 -11.5zM248 1663q0 74 52 126t126 52t126 -52t52 -126t-52 -126t-126 -52t-126 52t-52 126zM346 1663q0 -33 23.5 -56.5t56.5 -23.5t54.5 23.5t21.5 56.5t-21.5 54.5t-54.5 21.5t-56.5 -21.5t-23.5 -54.5z" />
<glyph unicode="&#xc6;" horiz-adv-x="1341" d="M573 309h-223q-37 0 -53 -41l-86 -229q-16 -39 -51 -39h-99q-41 0 -28 39l477 1360q10 35 47 35h672q39 0 39 -35v-103q0 -41 -39 -41h-369q-41 0 -41 -43v-362q0 -41 41 -41h289q37 0 37 -39v-102q0 -37 -37 -37h-289q-41 0 -41 -43v-371q0 -39 41 -39h369q39 0 39 -41 v-96q0 -41 -39 -41h-557q-18 0 -32.5 11.5t-14.5 27.5v229q-1 41 -52 41zM414 487h178q33 0 33 41v629q0 8 -4.5 12.5t-9.5 0t-7 -12.5l-219 -629q-6 -18 3.5 -29.5t25.5 -11.5z" />
<glyph unicode="&#xc7;" horiz-adv-x="833" d="M250 -326q78 -20 106 -20q109 0 109 78q0 49 -54.5 63.5t-93.5 -4.5q-14 -4 -22 4l-23 19q-10 8 -4 16l119 162q-143 10 -219 93t-76 224v813q0 152 88 237t250 85q164 0 251 -75t87 -247v-80q0 -35 -35 -34h-121q-39 0 -39 34v45q0 162 -143 162t-143 -162v-743 q0 -162 143 -162t143 162v45q0 35 39 35h121q35 0 35 -35v-80q0 -301 -289 -317l-73 -109q25 4 36 4q74 0 127.5 -41t53.5 -108q0 -86 -71 -139.5t-161 -53.5q-74 0 -172 33q-25 8 -18 33l14 49q6 22 35 14z" />
<glyph unicode="&#xc8;" horiz-adv-x="825" d="M342 1255h369q39 0 39 41v103q0 35 -39 35h-566q-39 0 -39 -35v-1362q0 -37 39 -37h566q39 0 39 41v96q0 41 -39 41h-369q-41 0 -41 39v371q0 43 41 43h289q37 0 37 37v102q0 39 -37 39h-289q-41 0 -41 41v362q0 43 41 43zM590 1528q14 -33 -17 -33h-100q-25 0 -35 14 q-12 14 -100 141.5t-94 133.5q-8 10 -2 18t20 8h187q33 0 43 -24z" />
<glyph unicode="&#xc9;" horiz-adv-x="825" d="M342 1255h369q39 0 39 41v103q0 35 -39 35h-566q-39 0 -39 -35v-1362q0 -37 39 -37h566q39 0 39 41v96q0 41 -39 41h-369q-41 0 -41 39v371q0 43 41 43h289q37 0 37 37v102q0 39 -37 39h-289q-41 0 -41 41v362q0 43 41 43zM283 1528q84 223 98 258q10 25 43 24h186 q14 0 20.5 -8t-1.5 -18q-6 -6 -94.5 -133t-100.5 -142q-10 -14 -35 -14h-100q-30 0 -16 33z" />
<glyph unicode="&#xca;" horiz-adv-x="825" d="M711 1255h-369q-41 0 -41 -43v-362q0 -41 41 -41h289q37 0 37 -39v-102q0 -37 -37 -37h-289q-41 0 -41 -43v-371q0 -39 41 -39h369q39 0 39 -41v-96q0 -41 -39 -41h-566q-39 0 -39 37v1362q0 35 39 35h566q39 0 39 -35v-103q0 -41 -39 -41zM410 1675l-72 -155 q-14 -25 -45 -25h-98q-16 0 -21.5 10.5t2.5 20.5l121 256q16 29 51 28h148q35 0 51 -28l121 -256q8 -10 3 -20.5t-22 -10.5h-98q-31 0 -45 25l-74 155q-10 27 -22 0z" />
<glyph unicode="&#xcb;" horiz-adv-x="825" d="M711 1255h-369q-41 0 -41 -43v-362q0 -41 41 -41h289q37 0 37 -39v-102q0 -37 -37 -37h-289q-41 0 -41 -43v-371q0 -39 41 -39h369q39 0 39 -41v-96q0 -41 -39 -41h-566q-39 0 -39 37v1362q0 35 39 35h566q39 0 39 -35v-103q0 -41 -39 -41zM254 1704h108q39 0 39 -35 v-110q0 -41 -39 -41h-108q-39 0 -39 41v110q0 35 39 35zM510 1704h108q39 0 39 -35v-110q0 -41 -39 -41h-108q-39 0 -39 41v110q0 35 39 35z" />
<glyph unicode="&#xcc;" horiz-adv-x="444" d="M319 41v1358q0 35 -34 35h-121q-39 0 -39 -35v-1358q0 -41 39 -41h121q34 0 34 41zM328 1528q14 -33 -17 -33h-100q-25 0 -35 14q-12 14 -100 141.5t-94 133.5q-8 10 -2 18t20 8h186q33 0 43 -24z" />
<glyph unicode="&#xcd;" horiz-adv-x="444" d="M319 41v1358q0 35 -34 35h-121q-39 0 -39 -35v-1358q0 -41 39 -41h121q34 0 34 41zM117 1528q84 223 98 258q10 25 43 24h186q14 0 20.5 -8t-1.5 -18q-6 -6 -94 -133t-101 -142q-10 -14 -35 -14h-100q-30 0 -16 33z" />
<glyph unicode="&#xce;" horiz-adv-x="444" d="M319 1399v-1358q0 -41 -34 -41h-121q-39 0 -39 41v1358q0 35 39 35h121q34 0 34 -35zM209 1675l-72 -155q-14 -25 -45 -25h-98q-16 0 -21.5 10.5t2.5 20.5l121 256q16 29 51 28h148q35 0 51 -28l121 -256q8 -10 3 -20.5t-21 -10.5h-99q-31 0 -45 25l-74 155q-10 27 -22 0 z" />
<glyph unicode="&#xcf;" horiz-adv-x="444" d="M319 1399v-1358q0 -41 -34 -41h-121q-39 0 -39 41v1358q0 35 39 35h121q34 0 34 -35zM39 1704h108q39 0 39 -35v-110q0 -41 -39 -41h-108q-39 0 -39 41v110q0 35 39 35zM295 1704h108q39 0 39 -35v-110q0 -41 -39 -41h-108q-39 0 -39 41v110q0 35 39 35z" />
<glyph unicode="&#xd0;" horiz-adv-x="878" d="M791 1083v-733q0 -180 -86.5 -265t-266.5 -85h-297q-35 0 -35 35v596h-67q-39 0 -39 41v102q0 35 39 35h67v590q0 35 35 35h297q180 0 266.5 -85.5t86.5 -265.5zM301 809h102q39 0 39 -35v-102q0 -41 -39 -41h-102v-434q0 -29 29 -29h108q158 0 158 182v733 q0 182 -158 183h-108q-29 0 -29 -29v-428z" />
<glyph unicode="&#xd1;" horiz-adv-x="960" d="M647 557l-321 844q-12 33 -50 33h-120q-43 0 -43 -33v-1362q0 -39 39 -39h116q39 0 39 39v829q0 14 4 16.5t8 -7.5l322 -844q12 -33 49 -33h121q43 0 43 33v1362q0 39 -39 39h-117q-39 0 -39 -39v-830q0 -14 -4 -16t-8 8zM606 1495q-53 0 -123 35q-78 39 -121 39 q-68 0 -77 -60q-2 -25 -25 -24h-59q-14 0 -19.5 4t-3.5 18q18 82 64.5 143.5t128.5 61.5q45 0 131 -39q84 -37 114 -37q72 0 76 66q2 20 25 20h57q12 0 18.5 -5t4.5 -15q-18 -96 -67.5 -151.5t-123.5 -55.5z" />
<glyph unicode="&#xd2;" horiz-adv-x="858" d="M573 1087v-743q0 -162 -143 -162t-143 162v743q0 162 143 162t143 -162zM768 309v813q0 172 -87 247t-251 75q-162 0 -250 -85t-88 -237v-813q0 -152 88 -235.5t250 -83.5q164 0 251 73.5t87 245.5zM522 1526q14 -33 -16 -33h-100q-25 0 -35 14q-12 14 -100.5 141.5 t-94.5 133.5q-8 10 -2 18t21 8h186q33 0 43 -24z" />
<glyph unicode="&#xd3;" horiz-adv-x="858" d="M573 1087v-743q0 -162 -143 -162t-143 162v743q0 162 143 162t143 -162zM768 309v813q0 172 -87 247t-251 75q-162 0 -250 -85t-88 -237v-813q0 -152 88 -235.5t250 -83.5q164 0 251 73.5t87 245.5zM340 1528q84 223 98 258q10 25 43 24h187q14 0 20 -8t-2 -18 q-6 -6 -94 -133t-100 -142q-10 -14 -35 -14h-101q-30 0 -16 33z" />
<glyph unicode="&#xd4;" horiz-adv-x="858" d="M573 344v743q0 162 -143 162t-143 -162v-743q0 -162 143 -162t143 162zM768 1122v-813q0 -172 -87 -245.5t-251 -73.5q-162 0 -250 84t-88 235v813q0 152 88 237t250 85q164 0 251 -75t87 -247zM418 1675l-72 -155q-14 -25 -45 -25h-98q-16 0 -21.5 10.5t2.5 20.5 l121 256q16 29 51 28h148q35 0 51 -28l121 -256q8 -10 3 -20.5t-22 -10.5h-98q-31 0 -45 25l-74 155q-10 27 -22 0z" />
<glyph unicode="&#xd5;" horiz-adv-x="858" d="M573 1087v-743q0 -162 -143 -162t-143 162v743q0 162 143 162t143 -162zM768 309v813q0 172 -87 247t-251 75q-162 0 -250 -85t-88 -237v-813q0 -152 88 -235.5t250 -83.5q164 0 251 73.5t87 245.5zM555 1495q-53 0 -123 35q-78 39 -121 39q-68 0 -78 -60q-2 -25 -24 -24 h-59q-14 0 -19.5 4t-3.5 18q18 82 64.5 143.5t127.5 61.5q45 0 132 -39q82 -37 114 -37q72 0 76 66q2 20 25 20h57q12 0 18.5 -5t3.5 -15q-18 -96 -67 -151.5t-123 -55.5z" />
<glyph unicode="&#xd6;" horiz-adv-x="858" d="M573 344v743q0 162 -143 162t-143 -162v-743q0 -162 143 -162t143 162zM768 1122v-813q0 -172 -87 -245.5t-251 -73.5q-162 0 -250 84t-88 235v813q0 152 88 237t250 85q164 0 251 -75t87 -247zM248 1704h108q39 0 39 -35v-110q0 -41 -39 -41h-108q-39 0 -39 41v110 q0 35 39 35zM504 1704h108q39 0 39 -35v-110q0 -41 -39 -41h-108q-39 0 -39 41v110q0 35 39 35z" />
<glyph unicode="&#xd7;" horiz-adv-x="1193" d="M449 504l-320 323q-29 25 -4 52l76 75q29 29 57 0l320 -323q20 -25 43 0l319 323q25 29 51 4l76 -75q29 -29 0 -58l-319 -321q-23 -23 0 -45l317 -318q29 -29 0 -57l-76 -76q-27 -25 -51 4l-317 320q-23 23 -43 0l-316 -318q-29 -29 -57 0l-76 76q-25 27 4 51l316 318 q23 22 0 45z" />
<glyph unicode="&#xd8;" horiz-adv-x="858" d="M768 1122v-813q0 -172 -87 -245.5t-251 -73.5q-141 0 -229 65l-49 -110q-23 -51 -54 -51h-75q-27 0 -32 10t9 41l109 243q-16 55 -17 121v813q0 152 88 237t250 85q139 0 221 -53l54 114q18 43 65 43h55q59 0 41 -43l-116 -252q18 -55 18 -131zM430 182q143 0 143 162 v578l-284 -621q18 -119 141 -119zM430 1249q-143 0 -143 -162v-567l280 623q-18 106 -137 106z" />
<glyph unicode="&#xd9;" horiz-adv-x="888" d="M596 1399v-1055q0 -162 -150 -162q-147 0 -147 162v1055q0 35 -35 35h-121q-39 0 -39 -35v-1090q0 -152 90.5 -235.5t251.5 -83.5q164 0 254.5 73.5t90.5 245.5v1090q0 35 -35 35h-121q-39 0 -39 -35zM582 1528q14 -33 -17 -33h-100q-25 0 -35 14q-12 14 -100 141.5 t-94 133.5q-8 10 -2 18t20 8h186q33 0 43 -24z" />
<glyph unicode="&#xda;" horiz-adv-x="888" d="M596 1399v-1055q0 -162 -150 -162q-147 0 -147 162v1055q0 35 -35 35h-121q-39 0 -39 -35v-1090q0 -152 90.5 -235.5t251.5 -83.5q164 0 254.5 73.5t90.5 245.5v1090q0 35 -35 35h-121q-39 0 -39 -35zM330 1528q84 223 98 258q10 25 43 24h186q14 0 20.5 -8t-1.5 -18 q-6 -6 -94 -133t-101 -142q-10 -14 -35 -14h-100q-30 0 -16 33z" />
<glyph unicode="&#xdb;" horiz-adv-x="888" d="M596 344v1055q0 35 39 35h121q35 0 35 -35v-1090q0 -172 -90.5 -245.5t-254.5 -73.5q-162 0 -252 84t-90 235v1090q0 35 39 35h121q35 0 35 -35v-1055q0 -162 147 -162q150 0 150 162zM436 1675l-71 -155q-14 -25 -46 -25h-98q-16 0 -21 10.5t3 20.5l121 256q16 29 51 28 h147q35 0 51 -28l121 -256q8 -10 3 -20.5t-21 -10.5h-98q-31 0 -46 25l-73 155q-13 27 -23 0z" />
<glyph unicode="&#xdc;" horiz-adv-x="888" d="M596 344v1055q0 35 39 35h121q35 0 35 -35v-1090q0 -172 -90.5 -245.5t-254.5 -73.5q-162 0 -252 84t-90 235v1090q0 35 39 35h121q35 0 35 -35v-1055q0 -162 147 -162q150 0 150 162zM262 1704h109q39 0 39 -35v-110q0 -41 -39 -41h-109q-39 0 -39 41v110q0 35 39 35z M518 1704h109q39 0 39 -35v-110q0 -41 -39 -41h-109q-39 0 -39 41v110q0 35 39 35z" />
<glyph unicode="&#xdd;" horiz-adv-x="784" d="M293 573v-532q0 -41 39 -41h121q35 0 34 41v532q0 63 17 103l282 721q14 37 -18 37h-123q-37 0 -45 -27l-194 -492q-14 -35 -29 0l-195 492q-8 27 -45 27h-123q-33 0 -18 -37l283 -721q14 -33 14 -103zM266 1528q84 223 99 258q10 25 43 24h186q14 0 20.5 -8t-2.5 -18 q-6 -6 -94 -133t-100 -142q-10 -14 -35 -14h-100q-31 0 -17 33z" />
<glyph unicode="&#xde;" horiz-adv-x="823" d="M106 35v1364q0 35 35 35h125q35 0 35 -35v-221h145q158 0 251.5 -101.5t93.5 -257.5v-155q0 -164 -90.5 -259.5t-254.5 -95.5h-116q-29 0 -29 -28v-246q0 -35 -35 -35h-125q-35 0 -35 35zM301 981v-477q0 -29 29 -29h78q188 0 188 189v155q0 90 -48 140.5t-140 50.5h-78 q-29 0 -29 -29z" />
<glyph unicode="&#xdf;" horiz-adv-x="831" d="M96 41v1061q0 156 86 249t246 93q158 0 244 -93.5t86 -248.5v-113q0 -158 -101 -213q100 -61 101 -231v-215q0 -137 -84 -233.5t-207 -96.5h-29q-20 0 -26 9t-6 36v98q0 23 7 31t25 8q137 0 137 148v215q0 150 -112 149q-41 0 -41 33v90q0 41 41 41q63 0 87.5 34t24.5 97 v113q0 72 -39.5 116t-107.5 44t-106.5 -44t-38.5 -116v-1061q0 -41 -39 -41h-109q-39 0 -39 41z" />
<glyph unicode="&#xe0;" horiz-adv-x="804" d="M539 55v-16q0 -39 32 -39h111q33 0 33 39v706q0 131 -81 210t-218 79q-86 0 -162 -50t-117 -136q-12 -27 13 -33l112 -29q31 -6 39 9q39 66 115 65q43 0 77.5 -25.5t34.5 -76.5v-105q0 -39 -39 -39q-420 0 -419 -323q0 -150 70.5 -225.5t187.5 -75.5q125 0 190 78 q21 24 21 -13zM528 436v-110q0 -78 -35.5 -127t-91.5 -49q-57 0 -93 32.5t-36 98.5q0 96 61.5 145t153.5 49q16 0 28.5 -11.5t12.5 -27.5zM477 1151q14 -33 -16 -33h-101q-25 0 -34 15q-12 14 -100.5 141t-94.5 133q-8 10 -2 18.5t21 8.5h186q33 0 43 -25z" />
<glyph unicode="&#xe1;" horiz-adv-x="804" d="M332 1151q84 223 98 258q10 25 43 25h186q14 0 20.5 -8.5t-1.5 -18.5q-6 -6 -94 -133t-101 -141q-10 -14 -34 -15h-101q-30 0 -16 33zM526 55v-16q0 -39 33 -39h111q33 0 32 39v706q0 131 -80.5 210t-218.5 79q-86 0 -161.5 -50t-116.5 -136q-12 -27 12 -33l113 -29 q31 -6 39 9q39 66 114 65q43 0 78 -25.5t35 -76.5v-105q0 -39 -39 -39q-420 0 -420 -323q0 -150 71 -225.5t187 -75.5q125 0 191 78q20 24 20 -13zM516 436v-110q0 -78 -36 -127t-91 -49q-57 0 -93 32.5t-36 98.5q0 96 61.5 145t153.5 49q16 0 28.5 -11.5t12.5 -27.5z" />
<glyph unicode="&#xe2;" horiz-adv-x="804" d="M539 39v16q0 37 -21 13q-66 -78 -190 -78q-117 0 -187.5 75.5t-70.5 225.5q0 324 419 323q39 0 39 39v105q0 51 -34.5 76.5t-77.5 25.5q-76 0 -115 -65q-8 -14 -39 -9l-112 29q-25 6 -13 33q41 86 117 136t162 50q137 0 218 -78.5t81 -210.5v-706q0 -39 -33 -39h-111 q-32 0 -32 39zM528 326v110q0 16 -12 27.5t-29 11.5q-92 0 -153.5 -49t-61.5 -145q0 -66 36 -98.5t93 -32.5q55 0 91 49t36 127zM401 1298l-71 -155q-14 -25 -45 -25h-99q-16 0 -21 10.5t3 20.5l121 256q16 29 51 29h147q35 0 52 -29l120 -256q8 -10 3 -20.5t-21 -10.5h-98 q-31 0 -45 25l-74 155q-11 27 -23 0z" />
<glyph unicode="&#xe3;" horiz-adv-x="804" d="M539 55v-16q0 -39 32 -39h111q33 0 33 39v706q0 131 -81 210t-218 79q-86 0 -162 -50t-117 -136q-12 -27 13 -33l112 -29q31 -6 39 9q39 66 115 65q43 0 77.5 -25.5t34.5 -76.5v-105q0 -39 -39 -39q-420 0 -419 -323q0 -150 70.5 -225.5t187.5 -75.5q125 0 190 78 q21 24 21 -13zM528 436v-110q0 -78 -35.5 -127t-91.5 -49q-57 0 -93 32.5t-36 98.5q0 96 61.5 145t153.5 49q16 0 28.5 -11.5t12.5 -27.5zM537 1116q-53 0 -123 35q-78 39 -121 39q-68 0 -78 -60q-2 -25 -25 -24h-59q-14 0 -19.5 4t-2.5 18q18 82 64 143.5t128 61.5 q45 0 131 -39q84 -37 115 -37q72 0 76 66q2 20 24 20h58q12 0 18 -5t4 -15q-18 -96 -67 -151.5t-123 -55.5z" />
<glyph unicode="&#xe4;" horiz-adv-x="804" d="M539 39v16q0 37 -21 13q-66 -78 -190 -78q-117 0 -187.5 75.5t-70.5 225.5q0 324 419 323q39 0 39 39v105q0 51 -34.5 76.5t-77.5 25.5q-76 0 -115 -65q-8 -14 -39 -9l-112 29q-25 6 -13 33q41 86 117 136t162 50q137 0 218 -78.5t81 -210.5v-706q0 -39 -33 -39h-111 q-32 0 -32 39zM528 326v110q0 16 -12 27.5t-29 11.5q-92 0 -153.5 -49t-61.5 -145q0 -66 36 -98.5t93 -32.5q55 0 91 49t36 127zM242 1368h108q39 0 39 -35v-110q0 -41 -39 -41h-108q-39 0 -39 41v110q0 35 39 35zM498 1368h108q39 0 39 -35v-110q0 -41 -39 -41h-108 q-39 0 -39 41v110q0 35 39 35z" />
<glyph unicode="&#xe5;" horiz-adv-x="804" d="M539 55v-16q0 -39 32 -39h111q33 0 33 39v706q0 131 -81 210t-218 79q-86 0 -162 -50t-117 -136q-12 -27 13 -33l112 -29q31 -6 39 9q39 66 115 65q43 0 77.5 -25.5t34.5 -76.5v-105q0 -39 -39 -39q-420 0 -419 -323q0 -150 70.5 -225.5t187.5 -75.5q125 0 190 78 q21 24 21 -13zM528 436v-110q0 -78 -35.5 -127t-91.5 -49q-57 0 -93 32.5t-36 98.5q0 96 61.5 145t153.5 49q16 0 28.5 -11.5t12.5 -27.5zM242 1284q0 74 52 126t126 52t126 -52t52 -126t-52 -126t-126 -52t-126 52t-52 126zM340 1284q0 -33 23.5 -56.5t56.5 -23.5 t54.5 23.5t21.5 56.5t-21.5 54.5t-54.5 21.5t-56.5 -21.5t-23.5 -54.5z" />
<glyph unicode="&#xe6;" horiz-adv-x="1251" d="M713 399v-39q0 -23 5 -51t18.5 -68t45 -65.5t78.5 -25.5q98 0 127 94q12 43 55 43h95q51 0 39 -49q-29 -106 -106 -177t-210 -71q-143 0 -239 106q-86 -106 -256 -106q-123 0 -210 77.5t-87 223.5q0 328 419 327q39 0 39 39v101q0 51 -34.5 76.5t-77.5 25.5 q-76 0 -115 -65q-8 -14 -39 -9l-113 29q-25 6 -12 33q41 86 117 136t162 50q145 0 207 -86q63 86 239 86q143 0 233.5 -103.5t90.5 -262.5v-189q0 -41 -45 -41h-387q-39 0 -39 -39zM526 326v110q0 16 -12 27.5t-29 11.5q-92 0 -153.5 -49t-61.5 -145q0 -66 36 -98.5 t93 -32.5q55 0 91 49t36 127zM1008 657v11q0 82 -37 137t-111 55q-70 0 -106.5 -51t-40.5 -127v-25q0 -39 39 -39h217q39 0 39 39z" />
<glyph unicode="&#xe7;" horiz-adv-x="763" d="M231 -326q76 -20 107 -20q109 0 108 78q0 49 -54 63.5t-93 -4.5q-14 -4 -23 4l-22 19q-10 8 -4 16l119 162q-139 12 -219 106.5t-80 268.5v290q0 188 92 282.5t250 94.5q139 0 222 -85t83 -204q0 -27 -29 -26h-129q-29 0 -29 26q0 51 -36.5 78t-90.5 27q-147 0 -147 -162 v-352q0 -162 147 -162q53 0 90 26.5t37 78.5q0 27 29 26h129q29 0 29 -26q0 -106 -68.5 -188.5t-185.5 -96.5l-76 -111q25 4 37 4q74 0 127 -41t53 -108q0 -86 -70.5 -139.5t-160.5 -53.5q-74 0 -172 33q-25 8 -19 33l15 49q5 22 34 14z" />
<glyph unicode="&#xe8;" horiz-adv-x="792" d="M254 360v56q0 23 20 22h406q45 0 45 41v189q0 160 -90 263t-234 103q-145 0 -238 -103.5t-93 -262.5v-308q0 -160 94 -265t237 -105q133 0 210 70.5t106 177.5q12 49 -39 49h-94q-37 0 -56 -43q-16 -37 -42.5 -53.5t-84.5 -16.5q-147 0 -147 186zM401.5 850 q73.5 0 110.5 -51t37 -131v-29q0 -20 -21 -21h-254q-20 0 -20 21v29q0 80 37 131t110.5 51zM477 1151q14 -33 -16 -33h-101q-25 0 -34 15q-12 14 -100.5 141t-94.5 133q-8 10 -2 18.5t21 8.5h186q33 0 43 -25z" />
<glyph unicode="&#xe9;" horiz-adv-x="792" d="M254 360v56q0 23 20 22h406q45 0 45 41v189q0 160 -90 263t-234 103q-145 0 -238 -103.5t-93 -262.5v-308q0 -160 94 -265t237 -105q133 0 210 70.5t106 177.5q12 49 -39 49h-94q-37 0 -56 -43q-16 -37 -42.5 -53.5t-84.5 -16.5q-147 0 -147 186zM401.5 850 q73.5 0 110.5 -51t37 -131v-29q0 -20 -21 -21h-254q-20 0 -20 21v29q0 80 37 131t110.5 51zM332 1151q84 223 98 258q10 25 43 25h186q14 0 20.5 -8.5t-1.5 -18.5q-6 -6 -94 -133t-101 -141q-10 -14 -34 -15h-101q-30 0 -16 33z" />
<glyph unicode="&#xea;" horiz-adv-x="792" d="M254 416v-56q0 -186 147 -186q57 0 84 16.5t43 53.5q18 43 56 43h94q51 0 39 -49q-29 -106 -105.5 -177t-210.5 -71q-143 0 -237 105.5t-94 264.5v308q0 160 93 263t238 103q143 0 233.5 -103.5t90.5 -262.5v-189q0 -41 -45 -41h-406q-20 1 -20 -22zM401.5 850 q-73.5 0 -110.5 -51t-37 -131v-29q0 -20 20 -21h254q20 0 21 21v29q0 80 -37 131t-110.5 51zM389 1298l-72 -155q-14 -25 -45 -25h-98q-16 0 -21.5 10.5t3.5 20.5l120 256q16 29 52 29h147q35 0 51 -29l121 -256q8 -10 3 -20.5t-21 -10.5h-99q-31 0 -45 25l-73 155 q-11 27 -23 0z" />
<glyph unicode="&#xeb;" horiz-adv-x="792" d="M254 416v-56q0 -186 147 -186q57 0 84 16.5t43 53.5q18 43 56 43h94q51 0 39 -49q-29 -106 -105.5 -177t-210.5 -71q-143 0 -237 105.5t-94 264.5v308q0 160 93 263t238 103q143 0 233.5 -103.5t90.5 -262.5v-189q0 -41 -45 -41h-406q-20 1 -20 -22zM401.5 850 q-73.5 0 -110.5 -51t-37 -131v-29q0 -20 20 -21h254q20 0 21 21v29q0 80 -37 131t-110.5 51zM223 1368h109q39 0 39 -35v-110q0 -41 -39 -41h-109q-39 0 -39 41v110q0 35 39 35zM479 1368h109q39 0 39 -35v-110q0 -41 -39 -41h-109q-39 0 -39 41v110q0 35 39 35z" />
<glyph unicode="&#xec;" horiz-adv-x="419" d="M264 1024h-108q-39 0 -39 -35v-948q0 -41 39 -41h108q39 0 39 41v948q0 35 -39 35zM311 1151q14 -33 -16 -33h-100q-25 0 -35 15q-12 14 -100.5 141t-94.5 133q-8 10 -2 18.5t21 8.5h186q33 0 43 -25z" />
<glyph unicode="&#xed;" horiz-adv-x="419" d="M264 1024h-108q-39 0 -39 -35v-948q0 -41 39 -41h108q39 0 39 41v948q0 35 -39 35zM109 1151q84 223 98 258q10 25 43 25h186q14 0 20.5 -8.5t-1.5 -18.5q-6 -6 -94.5 -133t-100.5 -141q-10 -14 -35 -15h-100q-30 0 -16 33z" />
<glyph unicode="&#xee;" horiz-adv-x="419" d="M156 1024h108q39 0 39 -35v-948q0 -41 -39 -41h-108q-39 0 -39 41v948q0 35 39 35zM197 1298l-72 -155q-14 -25 -45 -25h-98q-16 0 -21.5 10.5t2.5 20.5l121 256q16 29 51 29h148q35 0 51 -29l121 -256q8 -10 3 -20.5t-22 -10.5h-98q-31 0 -45 25l-74 155q-10 27 -22 0z " />
<glyph unicode="&#xef;" horiz-adv-x="419" d="M156 1024h108q39 0 39 -35v-948q0 -41 -39 -41h-108q-39 0 -39 41v948q0 35 39 35zM27 1368h108q39 0 39 -35v-110q0 -41 -39 -41h-108q-39 0 -39 41v110q0 35 39 35zM283 1368h108q39 0 39 -35v-110q0 -41 -39 -41h-108q-39 0 -39 41v110q0 35 39 35z" />
<glyph unicode="&#xf0;" horiz-adv-x="847" d="M479 967q14 -2 20.5 5t2.5 19q-12 37 -39 90q-12 25 -41 15l-182 -70q-23 -10 -35 23l-33 90q-8 29 12 37l129 47q41 16 27 39q-25 39 -88 112q-16 23 16 31l107 27q20 6 47 -23q16 -16 72 -88q20 -27 53 -14l174 65q27 10 39 -22l31 -84q12 -31 -19 -41l-135 -51 q-27 -12 -14 -37l4 -7l10 -21l15 -33q9 -19 18.5 -47t18.5 -59.5t18.5 -72.5t15.5 -85t10 -98.5t4 -111.5v-6v-16v-213q0 -188 -89 -282.5t-244.5 -94.5t-244.5 94t-89 283v229q0 188 89 282.5t244 94.5q43 0 76 -6zM403.5 174q147.5 0 147.5 162v287q0 6 -1 18t-1 18 q-12 129 -146 129q-147 0 -147 -161v-291q0 -162 147.5 -162z" />
<glyph unicode="&#xf1;" horiz-adv-x="788" d="M522 780v-739q0 -41 39 -41h109q39 0 39 41v762q0 123 -51.5 177t-161.5 54q-125 0 -213 -98q-18 -23 -19 8v45q0 35 -39 35h-98q-39 0 -39 -35v-948q0 -41 39 -41h109q39 0 38 41v719q0 33 47.5 71.5t98.5 38.5q102 0 102 -90zM522 1116q-53 0 -123 35q-78 39 -120 39 q-68 0 -78 -60q-2 -25 -25 -24h-59q-14 0 -19.5 4t-3.5 18q18 82 64.5 143.5t128.5 61.5q45 0 131 -39q82 -37 114 -37q72 0 76 66q2 20 25 20h57q12 0 18.5 -5t4.5 -15q-18 -96 -67.5 -151.5t-123.5 -55.5z" />
<glyph unicode="&#xf2;" d="M403.5 -10q155.5 0 244.5 94t89 283v290q0 188 -89 282.5t-244.5 94.5t-244.5 -94t-89 -283v-290q0 -188 89 -282.5t244.5 -94.5zM403.5 174q-147.5 0 -147.5 162v352q0 162 147.5 162t147.5 -162v-352q0 -162 -147.5 -162zM586 1151q14 -33 -17 -33h-100q-25 0 -35 15 q-12 14 -100 141t-94 133q-8 10 -2 18.5t20 8.5h186q33 0 43 -25z" />
<glyph unicode="&#xf3;" d="M403.5 -10q155.5 0 244.5 94t89 283v290q0 188 -89 282.5t-244.5 94.5t-244.5 -94t-89 -283v-290q0 -188 89 -282.5t244.5 -94.5zM403.5 174q-147.5 0 -147.5 162v352q0 162 147.5 162t147.5 -162v-352q0 -162 -147.5 -162zM256 1151q84 223 98 258q10 25 43 25h187 q14 0 20 -8.5t-2 -18.5q-6 -6 -94 -133t-100 -141q-10 -14 -35 -15h-101q-30 0 -16 33z" />
<glyph unicode="&#xf4;" d="M403.5 -10q-155.5 0 -244.5 94t-89 283v290q0 188 89 282.5t244.5 94.5t244.5 -94t89 -283v-290q0 -188 -89 -282.5t-244.5 -94.5zM403.5 174q147.5 0 147.5 162v352q0 162 -147.5 162t-147.5 -162v-352q0 -162 147.5 -162zM395 1298l-71 -155q-14 -25 -45 -25h-99 q-16 0 -21 10.5t3 20.5l121 256q16 29 51 29h147q35 0 51 -29l121 -256q8 -10 3 -20.5t-21 -10.5h-98q-31 0 -45 25l-74 155q-13 27 -23 0z" />
<glyph unicode="&#xf5;" d="M403.5 -10q155.5 0 244.5 94t89 283v290q0 188 -89 282.5t-244.5 94.5t-244.5 -94t-89 -283v-290q0 -188 89 -282.5t244.5 -94.5zM403.5 174q-147.5 0 -147.5 162v352q0 162 147.5 162t147.5 -162v-352q0 -162 -147.5 -162zM530 1116q-53 0 -122 35q-78 39 -121 39 q-68 0 -78 -60q-2 -25 -25 -24h-59q-14 0 -19.5 4t-3.5 18q18 82 64.5 143.5t128.5 61.5q45 0 131 -39q82 -37 115 -37q72 0 75 66q2 20 25 20h57q12 0 18.5 -5t4.5 -15q-18 -96 -67.5 -151.5t-123.5 -55.5z" />
<glyph unicode="&#xf6;" d="M403.5 -10q-155.5 0 -244.5 94t-89 283v290q0 188 89 282.5t244.5 94.5t244.5 -94t89 -283v-290q0 -188 -89 -282.5t-244.5 -94.5zM403.5 174q147.5 0 147.5 162v352q0 162 -147.5 162t-147.5 -162v-352q0 -162 147.5 -162zM227 1368h109q39 0 39 -35v-110q0 -41 -39 -41 h-109q-39 0 -39 41v110q0 35 39 35zM483 1368h109q39 0 39 -35v-110q0 -41 -39 -41h-109q-39 0 -39 41v110q0 35 39 35z" />
<glyph unicode="&#xf7;" horiz-adv-x="1191" d="M436 923.5q0 65.5 47 112.5t113 47t113 -47t47 -112.5t-47 -111.5t-113 -46t-113 46t-47 111.5zM436 102.5q0 65.5 47 111.5t113 46t113 -46t47 -111.5t-47 -112.5t-113 -47t-113 47t-47 112.5zM1059 604h-926q-39 0 -39 -35v-106q0 -41 39 -41h926q39 0 39 41v106 q0 35 -39 35z" />
<glyph unicode="&#xf8;" d="M403 -10q-86 0 -155 28l-94 -208q-10 -25 -17.5 -31t-21.5 -6h-72q-33 0 -16 37l127 278q-84 96 -84 279v290q0 188 89 282.5t244 94.5q94 0 162 -33l78 168q18 33 47 33h58q43 0 28 -33l-112 -247q74 -96 73 -265v-290q0 -188 -89 -282.5t-245 -94.5zM403 850 q-147 0 -147 -162v-352q0 -35 2 -49l244 534q-36 29 -99 29zM403 174q147 0 148 162v352q0 23 -2 33l-240 -522q35 -25 94 -25z" />
<glyph unicode="&#xf9;" horiz-adv-x="786" d="M264 244v739q0 41 -39 41h-108q-39 0 -39 -41v-762q0 -123 51 -177t162 -54q125 0 213 98q18 23 18 -8v-45q0 -35 39 -35h98q39 0 39 35v948q0 41 -39 41h-108q-39 0 -39 -41v-719q0 -33 -47 -71.5t-98 -38.5q-103 0 -103 90zM559 1151q14 -33 -16 -33h-101q-25 0 -34 15 q-12 14 -100.5 141t-94.5 133q-8 10 -2 18.5t20 8.5h187q33 0 43 -25z" />
<glyph unicode="&#xfa;" horiz-adv-x="786" d="M264 244v739q0 41 -39 41h-108q-39 0 -39 -41v-762q0 -123 51 -177t162 -54q125 0 213 98q18 23 18 -8v-45q0 -35 39 -35h98q39 0 39 35v948q0 41 -39 41h-108q-39 0 -39 -41v-719q0 -33 -47 -71.5t-98 -38.5q-103 0 -103 90zM231 1151q84 223 99 258q10 25 43 25h186 q14 0 20.5 -8.5t-1.5 -18.5q-6 -6 -94.5 -133t-100.5 -141q-10 -14 -35 -15h-100q-31 0 -17 33z" />
<glyph unicode="&#xfb;" horiz-adv-x="786" d="M264 983v-739q0 -90 103 -90q51 0 98 38.5t47 71.5v719q0 41 39 41h108q39 0 39 -41v-948q0 -35 -39 -35h-98q-39 0 -39 35v45q0 31 -18 8q-88 -98 -213 -98q-111 0 -162 54t-51 177v762q0 41 39 41h108q39 0 39 -41zM373 1298l-72 -155q-14 -25 -45 -25h-98 q-16 0 -21.5 10.5t2.5 20.5l121 256q16 29 51 29h148q35 0 51 -29l121 -256q8 -10 3 -20.5t-22 -10.5h-98q-31 0 -45 25l-74 155q-10 27 -22 0z" />
<glyph unicode="&#xfc;" horiz-adv-x="786" d="M264 983v-739q0 -90 103 -90q51 0 98 38.5t47 71.5v719q0 41 39 41h108q39 0 39 -41v-948q0 -35 -39 -35h-98q-39 0 -39 35v45q0 31 -18 8q-88 -98 -213 -98q-111 0 -162 54t-51 177v762q0 41 39 41h108q39 0 39 -41zM203 1368h108q39 0 39 -35v-110q0 -41 -39 -41h-108 q-39 0 -39 41v110q0 35 39 35zM459 1368h108q39 0 39 -35v-110q0 -41 -39 -41h-108q-39 0 -39 41v110q0 35 39 35z" />
<glyph unicode="&#xfd;" horiz-adv-x="704" d="M408 -158l311 1141q10 41 -37 41h-109q-37 0 -47 -41l-155 -582q-4 -14 -10.5 -14t-10.5 14l-155 582q-10 41 -48 41h-108q-47 0 -37 -41l246 -901q16 -59 6 -102q-37 -172 -145 -173q-25 0 -25 -38v-119q0 -29 25 -29q102 0 185 55t114 166zM240 1151q84 223 98 258 q10 25 43 25h186q14 0 20.5 -8.5t-1.5 -18.5q-6 -6 -94.5 -133t-100.5 -141q-10 -14 -35 -15h-100q-30 0 -16 33z" />
<glyph unicode="&#xfe;" horiz-adv-x="806" d="M719 721v-418q0 -139 -65.5 -226t-207.5 -87q-86 0 -151 43q-20 14 -21 -15v-362q0 -35 -38 -35h-109q-39 0 -39 35v1743q0 35 39 35h109q39 0 38 -35v-395v-7v-6q2 -12 21 0q66 43 151 43q141 0 207 -87t66 -226zM274 758v-492q0 -27 38 -60.5t89 -33.5q131 0 131 190 v300q0 190 -131 190q-51 0 -89 -33.5t-38 -60.5z" />
<glyph unicode="&#xff;" horiz-adv-x="704" d="M719 983l-311 -1141q-31 -111 -114 -166t-185 -55q-25 0 -25 29v119q0 39 25 38q109 0 145 173q10 43 -6 102l-246 901q-10 41 37 41h108q37 0 48 -41l155 -582q4 -14 10.5 -14t10.5 14l155 582q10 41 47 41h109q47 0 37 -41zM168 1368h108q39 0 39 -35v-110 q0 -41 -39 -41h-108q-39 0 -39 41v110q0 35 39 35zM424 1368h108q39 0 39 -35v-110q0 -41 -39 -41h-108q-39 0 -39 41v110q0 35 39 35z" />
<glyph unicode="&#x152;" horiz-adv-x="1288" d="M571 340v754q0 162 -143 161.5t-143 -161.5v-754q0 -162 143 -162t143 162zM1176 0h-748q-162 0 -250 84t-88 235v793q0 152 88 237t250 85h748q39 0 38 -35v-103q0 -41 -38 -41h-369q-41 0 -41 -43v-362q0 -41 41 -41h289q37 0 37 -39v-102q0 -37 -37 -37h-289 q-41 0 -41 -43v-371q0 -39 41 -39h369q39 0 38 -41v-96q1 -41 -38 -41z" />
<glyph unicode="&#x153;" horiz-adv-x="1275" d="M403 -10q-156 0 -244.5 94t-88.5 283v290q0 188 89 282.5t244 94.5q158 0 248 -98q94 98 234 98q143 0 233 -103.5t90 -262.5v-189q0 -41 -45 -41h-405q-20 0 -21 -18v-74q0 -37 7.5 -69.5t43 -67.5t97.5 -35q57 0 83.5 16.5t43.5 53.5q18 43 55 43h94q51 0 39 -49 q-29 -106 -105.5 -177t-209.5 -71q-139 0 -234 98q-84 -98 -248 -98zM403.5 174q147.5 0 147.5 162v352q0 162 -147.5 162t-147.5 -162v-352q0 -162 147.5 -162zM885 850q-72 0 -109 -49t-39 -125v-43q0 -14 21 -15h254q20 0 20 21v29q0 80 -36.5 131t-110.5 51z" />
<glyph unicode="&#x178;" horiz-adv-x="784" d="M293 41v532q0 70 -14 103l-283 721q-14 37 18 37h123q37 0 45 -27l195 -492q14 -35 29 0l194 492q8 27 45 27h123q33 0 18 -37l-282 -721q-16 -39 -17 -103v-532q0 -41 -34 -41h-121q-39 0 -39 41zM217 1704h109q39 0 39 -35v-110q0 -41 -39 -41h-109q-39 0 -39 41v110 q0 35 39 35zM473 1704h109q39 0 39 -35v-110q0 -41 -39 -41h-109q-39 0 -39 41v110q0 35 39 35z" />
<glyph unicode="&#x2c6;" horiz-adv-x="622" d="M299 1298l-72 -155q-14 -25 -45 -25h-98q-16 0 -21.5 10.5t3.5 20.5l120 256q16 29 52 29h147q35 0 51 -29l121 -256q8 -10 3 -20.5t-21 -10.5h-99q-31 0 -45 25l-73 155q-11 27 -23 0z" />
<glyph unicode="&#x2dc;" horiz-adv-x="745" d="M492 1116q-53 0 -123 35q-78 39 -121 39q-68 0 -78 -60q-2 -25 -25 -24h-59q-14 0 -19.5 4t-3.5 18q18 82 64.5 143.5t128.5 61.5q45 0 131 -39q84 -37 115 -37q72 0 76 66q2 20 24 20h57q12 0 18.5 -5t4.5 -15q-18 -96 -67 -151.5t-123 -55.5z" />
<glyph unicode="&#x2000;" horiz-adv-x="919" />
<glyph unicode="&#x2001;" horiz-adv-x="1841" />
<glyph unicode="&#x2002;" horiz-adv-x="919" />
<glyph unicode="&#x2003;" horiz-adv-x="1841" />
<glyph unicode="&#x2004;" horiz-adv-x="612" />
<glyph unicode="&#x2005;" horiz-adv-x="458" />
<glyph unicode="&#x2006;" horiz-adv-x="305" />
<glyph unicode="&#x2007;" horiz-adv-x="305" />
<glyph unicode="&#x2008;" horiz-adv-x="229" />
<glyph unicode="&#x2009;" horiz-adv-x="366" />
<glyph unicode="&#x200a;" horiz-adv-x="100" />
<glyph unicode="&#x2010;" horiz-adv-x="702" d="M147 604h408q39 0 39 -35v-106q0 -41 -39 -41h-408q-39 0 -38 41v106q-1 35 38 35z" />
<glyph unicode="&#x2011;" horiz-adv-x="702" d="M147 604h408q39 0 39 -35v-106q0 -41 -39 -41h-408q-39 0 -38 41v106q-1 35 38 35z" />
<glyph unicode="&#x2012;" horiz-adv-x="702" d="M147 604h408q39 0 39 -35v-106q0 -41 -39 -41h-408q-39 0 -38 41v106q-1 35 38 35z" />
<glyph unicode="&#x2013;" horiz-adv-x="1159" d="M147 584h865q39 0 39 -35v-68q0 -41 -39 -41h-865q-39 0 -38 41v68q-1 35 38 35z" />
<glyph unicode="&#x2014;" horiz-adv-x="2101" d="M147 584h1807q39 0 39 -35v-68q0 -41 -39 -41h-1807q-39 0 -38 41v68q-1 35 38 35z" />
<glyph unicode="&#x2018;" horiz-adv-x="542" d="M297 1288h33q39 0 39 -41v-106q0 -35 -39 -35h-117q-39 0 -39 35v108q0 18 4 27l68 154q6 14 22 14h37q18 0 14 -17l-32 -127q-4 -12 10 -12z" />
<glyph unicode="&#x2019;" horiz-adv-x="542" d="M246 1251h-33q-39 0 -39 41v107q0 35 39 35h117q39 0 39 -35v-109q0 -18 -4 -26l-68 -154q-6 -14 -23 -14h-36q-18 0 -15 16l33 127q2 12 -10 12z" />
<glyph unicode="&#x201a;" horiz-adv-x="391" d="M170 0h-33q-39 0 -39 41v106q0 35 39 35h117q39 0 39 -35v-108q0 -18 -4 -27l-68 -153q-6 -14 -22 -15h-37q-18 0 -15 17l33 127q4 12 -10 12z" />
<glyph unicode="&#x201c;" horiz-adv-x="806" d="M297 1288h33q39 0 39 -41v-106q0 -35 -39 -35h-117q-39 0 -39 35v108q0 18 4 27l68 154q6 14 22 14h37q18 0 14 -17l-32 -127q-4 -12 10 -12zM561 1288h33q39 0 39 -41v-106q0 -35 -39 -35h-117q-39 0 -39 35v108q0 18 4 27l68 154q6 14 22 14h37q18 0 15 -17l-33 -127 q-2 -12 10 -12z" />
<glyph unicode="&#x201d;" horiz-adv-x="806" d="M510 1251h-33q-39 0 -39 41v107q0 35 39 35h117q39 0 39 -35v-109q0 -18 -4 -26l-68 -154q-6 -14 -22 -14h-37q-18 0 -15 16l33 127q4 12 -10 12zM246 1251h-33q-39 0 -39 41v107q0 35 39 35h117q39 0 39 -35v-109q0 -18 -4 -26l-68 -154q-6 -14 -23 -14h-36 q-18 0 -15 16l33 127q2 12 -10 12z" />
<glyph unicode="&#x201e;" horiz-adv-x="655" d="M170 0h-33q-39 0 -39 41v106q0 35 39 35h117q39 0 39 -35v-108q0 -18 -4 -27l-68 -153q-6 -14 -22 -15h-37q-18 0 -15 17l33 127q4 12 -10 12zM434 0h-33q-39 0 -39 41v106q0 35 39 35h117q39 0 39 -35v-108q0 -18 -4 -27l-68 -153q-6 -14 -22 -15h-37q-18 0 -14 17 l32 127q2 12 -10 12z" />
<glyph unicode="&#x2022;" horiz-adv-x="991" d="M137 675.5q0 149.5 104.5 254t254 104.5t254 -104.5t104.5 -254t-104.5 -254t-254 -104.5t-254 104.5t-104.5 254z" />
<glyph unicode="&#x2026;" horiz-adv-x="1226" d="M162 182h117q39 0 38 -35v-106q0 -41 -38 -41h-117q-39 0 -39 41v106q0 35 39 35zM555 182h117q39 0 39 -35v-106q0 -41 -39 -41h-117q-39 0 -39 41v106q0 35 39 35zM948 182h117q39 0 39 -35v-106q0 -41 -39 -41h-117q-39 0 -39 41v106q0 35 39 35z" />
<glyph unicode="&#x202f;" horiz-adv-x="366" />
<glyph unicode="&#x2039;" horiz-adv-x="675" d="M330 528q-12 -16 0 -32l196 -265q18 -25 -10 -24h-147q-14 0 -33 24l-189 252q-23 31 3 64l186 246q18 25 33 24h153q29 0 10 -24z" />
<glyph unicode="&#x203a;" horiz-adv-x="675" d="M346 528l-203 265q-18 25 11 24h153q14 0 33 -24l186 -246q25 -33 2 -64l-188 -252q-18 -25 -33 -24h-147q-29 0 -10 24l196 265q12 16 0 32z" />
<glyph unicode="&#x205f;" horiz-adv-x="458" />
<glyph unicode="&#x2122;" horiz-adv-x="1773" d="M1430 1073l-144 -280q-14 -33 -53 -33t-53 33l-144 280q-12 20 -12 -8v-410q0 -39 -39 -39h-106q-39 0 -39 39v746q0 33 43 33h108q33 0 49 -33l183 -361q10 -25 20 0l182 361q16 33 50 33h108q43 0 43 -33v-746q0 -39 -39 -39h-106q-39 0 -39 39v410q0 28 -12 8z M727 1391v-76q0 -39 -41 -39h-156q-41 0 -41 -41v-584q0 -35 -36 -35h-111q-37 0 -37 35v584q0 41 -41 41h-155q-41 0 -41 39v76q0 43 41 43h577q41 0 41 -43z" />
<glyph unicode="&#xe000;" horiz-adv-x="1025" d="M0 1025h1025v-1025h-1025v1025z" />
<glyph unicode="&#xfb01;" horiz-adv-x="845" d="M457 1444q31 0 30 -31v-117q0 -31 -30 -30q-66 0 -89.5 -41t-23.5 -125v-45q0 -31 31 -31h61q31 0 31 -31v-116q0 -31 -31 -31h-61q-31 0 -31 -31v-774q0 -41 -39 -41h-108q-39 0 -39 41v774q0 31 -31 31h-64q-31 0 -30 31v116q0 31 30 31h64q31 0 31 31v47 q0 342 299 342zM610 1434h109q39 0 39 -35v-92q0 -41 -39 -41h-109q-39 0 -39 41v92q0 35 39 35zM610 1024h109q39 0 39 -35v-948q0 -41 -39 -41h-109q-39 0 -39 41v948q0 35 39 35z" />
<glyph unicode="&#xfb02;" horiz-adv-x="845" d="M457 1444q31 0 30 -31v-117q0 -31 -30 -30q-66 0 -89.5 -41t-23.5 -125v-45q0 -31 31 -31h61q31 0 31 -31v-116q0 -31 -31 -31h-61q-31 0 -31 -31v-774q0 -41 -39 -41h-108q-39 0 -39 41v774q0 31 -31 31h-64q-31 0 -30 31v116q0 31 30 31h64q31 0 31 31v47 q0 342 299 342zM610 1434h109q39 0 39 -35v-1358q0 -41 -39 -41h-109q-39 0 -39 41v1358q0 35 39 35z" />
<glyph unicode="&#xfb03;" horiz-adv-x="1402" d="M1146 1434h109q39 0 39 -35v-92q0 -41 -39 -41h-109q-39 0 -38 41v92q-1 35 38 35zM1146 1024h109q39 0 39 -35v-948q0 -41 -39 -41h-109q-39 0 -38 41v948q-1 35 38 35zM957 1444q31 0 30 -31v-117q0 -31 -30 -30q-66 0 -89.5 -41t-23.5 -125v-45q0 -31 31 -31h61 q31 0 31 -31v-116q0 -31 -31 -31h-61q-31 0 -31 -31v-774q0 -41 -39 -41h-108q-39 0 -39 41v774q0 31 -31 31h-64q-31 0 -30 31v116q0 31 30 31h64q31 0 31 31v47q0 342 299 342zM457 1444q31 0 30 -31v-117q0 -31 -30 -30q-66 0 -89.5 -41t-23.5 -125v-45q0 -31 31 -31h61 q31 0 31 -31v-116q0 -31 -31 -31h-61q-31 0 -31 -31v-774q0 -41 -39 -41h-108q-39 0 -39 41v774q0 31 -31 31h-64q-31 0 -30 31v116q0 31 30 31h64q31 0 31 31v47q0 342 299 342z" />
<glyph unicode="&#xfb04;" horiz-adv-x="1404" d="M1146 1434h109q39 0 39 -35v-1358q0 -41 -39 -41h-109q-39 0 -38 41v1358q-1 35 38 35zM957 1444q31 0 30 -31v-117q0 -31 -30 -30q-66 0 -89.5 -41t-23.5 -125v-45q0 -31 31 -31h61q31 0 31 -31v-116q0 -31 -31 -31h-61q-31 0 -31 -31v-774q0 -41 -39 -41h-108 q-39 0 -39 41v774q0 31 -31 31h-64q-31 0 -30 31v116q0 31 30 31h64q31 0 31 31v47q0 342 299 342zM457 1444q31 0 30 -31v-117q0 -31 -30 -30q-66 0 -89.5 -41t-23.5 -125v-45q0 -31 31 -31h61q31 0 31 -31v-116q0 -31 -31 -31h-61q-31 0 -31 -31v-774q0 -41 -39 -41h-108 q-39 0 -39 41v774q0 31 -31 31h-64q-31 0 -30 31v116q0 31 30 31h64q31 0 31 31v47q0 342 299 342z" />
</font>
</defs>
</svg>
