<?xml version="1.0" encoding="UTF-8" standalone="no"?>
<!-- Created with Inkscape (http://www.inkscape.org/) -->

<svg
   xmlns:dc="http://purl.org/dc/elements/1.1/"
   xmlns:cc="http://creativecommons.org/ns#"
   xmlns:rdf="http://www.w3.org/1999/02/22-rdf-syntax-ns#"
   xmlns:svg="http://www.w3.org/2000/svg"
   xmlns="http://www.w3.org/2000/svg"
   version="1.1"
   width="140"
   height="140">
    <g
      stroke-width="15"
      stroke-linecap="round"
      stroke="#000"
      transform="translate(70, 70)">
        <animateTransform
          attributeName="transform"
          attributeType="XML"
          calcMode="discrete"
          additive="sum"
          type="rotate"
          values="30;60;90;120;150;180;210;240;270;300;330;360"
          dur="1s"
          repeatCount="indefinite"/>
        <line x1="0" y1="-35" x2="0" y2="-60"/>
        <line x1="0" y1="-35" x2="0" y2="-60" transform="rotate(30, 0, 0)" opacity=".08"/>
        <line x1="0" y1="-35" x2="0" y2="-60" transform="rotate(60, 0, 0)" opacity=".16"/>
        <line x1="0" y1="-35" x2="0" y2="-60" transform="rotate(90, 0, 0)" opacity=".25"/>
        <line x1="0" y1="-35" x2="0" y2="-60" transform="rotate(120, 0, 0)" opacity=".33"/>
        <line x1="0" y1="-35" x2="0" y2="-60" transform="rotate(150, 0, 0)" opacity=".42"/>
        <line x1="0" y1="-35" x2="0" y2="-60" transform="rotate(180, 0, 0)" opacity=".5"/>
        <line x1="0" y1="-35" x2="0" y2="-60" transform="rotate(210, 0, 0)" opacity=".58"/>
        <line x1="0" y1="-35" x2="0" y2="-60" transform="rotate(240, 0, 0)" opacity=".67"/>
        <line x1="0" y1="-35" x2="0" y2="-60" transform="rotate(270, 0, 0)" opacity=".75"/>
        <line x1="0" y1="-35" x2="0" y2="-60" transform="rotate(300, 0, 0)" opacity=".83"/>
        <line x1="0" y1="-35" x2="0" y2="-60" transform="rotate(330, 0, 0)" opacity=".9"/>
    </g>
</svg>
