<?xml version="1.0" standalone="no"?>
<!DOCTYPE svg PUBLIC "-//W3C//DTD SVG 1.1//EN" "http://www.w3.org/Graphics/SVG/1.1/DTD/svg11.dtd" >
<svg xmlns="http://www.w3.org/2000/svg">
<metadata>
This is a custom SVG webfont generated by Font Squirrel.
Copyright   : 2009 Mike Abbink published by FSI FontShop International GmbH
Designer    : Mike Abbink
Foundry     : FSI
Foundry URL : httpwwwfontfontcom
</metadata>
<defs>
<font id="webfontAmpSO4YU" horiz-adv-x="1085" >
<font-face units-per-em="2048" ascent="1626" descent="-422" />
<missing-glyph horiz-adv-x="440" />
<glyph horiz-adv-x="0" />
<glyph horiz-adv-x="0" />
<glyph unicode="&#xd;" horiz-adv-x="440" />
<glyph unicode=" "  horiz-adv-x="440" />
<glyph unicode="&#x09;" horiz-adv-x="440" />
<glyph unicode="&#xa0;" horiz-adv-x="440" />
<glyph unicode="!" horiz-adv-x="575" d="M225 -29q-57 0 -97 40t-40 98q0 57 40 96t97 39t96 -39t39 -96t-39 -97.5t-96 -40.5zM281 1276h243l-202 -899h-115z" />
<glyph unicode="&#x22;" horiz-adv-x="731" d="M567 1430h207l-121 -443h-110zM240 1430h206l-120 -443h-111z" />
<glyph unicode="#" d="M735 383l-57 -383h-117l60 383h-232l-57 -383h-117l59 383h-215l17 117h215l43 276h-213l16 117h215l60 385h114l-59 -385h231l60 385h114l-59 -385h213l-16 -117h-215l-41 -276h211l-17 -117h-213zM408 500h229l43 276h-231z" />
<glyph unicode="$" d="M408 -20q-90 2 -177.5 13t-152.5 25q16 88 22 161t11 159h86q0 -57 11 -103.5t37.5 -80t73 -52t115.5 -18.5q123 0 191.5 59.5t68.5 165.5q0 59 -35.5 104.5t-89 84.5t-116 77.5t-115.5 87t-89 110t-36 147.5q0 80 29.5 146.5t83 113.5t127 76.5t163.5 35.5l31 187h86 l-28 -185q98 -4 175.5 -19t125.5 -32q-12 -66 -19.5 -139.5t-13.5 -147.5h-84q0 70 -21.5 116t-54.5 72.5t-74 38t-82 11.5q-119 0 -177 -58.5t-58 -148.5q0 -59 36 -105t90 -88t116.5 -83t117 -89.5t90 -107.5t35.5 -137q0 -86 -31.5 -154.5t-87 -118t-130 -80 t-160.5 -40.5l-35 -215h-86z" />
<glyph unicode="%" d="M131 -88l-96 55l911 1354l92 -59zM256 735q-100 0 -158.5 56.5t-58.5 154.5q0 74 23.5 138.5t66.5 112.5t102.5 77t130.5 29q100 0 159 -55.5t59 -153.5q0 -74 -24 -139.5t-67 -113.5t-102 -77t-131 -29zM276 821q39 0 72 23.5t56.5 60.5t36 84t12.5 96q0 63 -29 97.5 t-80 34.5q-41 0 -73.5 -23t-56.5 -59.5t-36 -83.5t-12 -95q0 -66 29.5 -100.5t80.5 -34.5zM758 -25q-100 0 -158.5 56.5t-58.5 154.5q0 74 23.5 138.5t65.5 112.5t101.5 77t132.5 29q100 0 158.5 -56.5t58.5 -154.5q0 -74 -23.5 -138.5t-66.5 -113.5t-102 -77t-131 -28z M778 61q39 0 72 22.5t55.5 59.5t34.5 84t12 97q0 133 -106 133q-41 0 -74 -22.5t-56.5 -59.5t-35.5 -84t-12 -96q0 -66 29.5 -100t80.5 -34z" />
<glyph unicode="&#x26;" horiz-adv-x="1488" d="M473 -29q-84 0 -154.5 22.5t-121 62.5t-79 96.5t-28.5 123.5q0 72 25.5 132.5t71.5 111.5t109.5 93t139.5 75q-53 70 -91 132.5t-38 133.5q0 78 34 142.5t92.5 110.5t137 71t168.5 25q139 0 226.5 -62.5t87.5 -161.5q0 -59 -24.5 -110t-71 -95.5t-114 -85t-151.5 -81.5 q25 -35 69 -89l90 -108l86 -101l56 -65l56 63q29 34 53 70.5t39.5 72.5t15.5 68q0 23 -13.5 37.5t-47.5 18.5l-62 10l13 72q18 0 46.5 -2t59.5 -3l62 -2q32 -1 59 -1q53 0 103 3t89 5l-12 -72l-49 -8q-63 -10 -98 -53t-76 -113q-35 -59 -76 -116.5t-98 -112.5 q76 -86 143.5 -143.5t153.5 -69.5l-11 -68q-25 -10 -57.5 -17.5t-71.5 -7.5q-104 0 -175.5 37t-139.5 119q-66 -63 -172.5 -111.5t-253.5 -48.5zM559 100q92 0 162 30t117 71l-72 83l-95 112l-98 119l-77 99q-92 -53 -138.5 -128.5t-46.5 -159.5q0 -96 65.5 -161t182.5 -65z M633 776q45 27 87 56.5t73.5 64.5t50 73t18.5 81q0 27 -9 54.5t-26.5 49t-43 34.5t-60.5 13q-80 0 -137.5 -55t-57.5 -146q0 -57 29 -111.5t76 -113.5z" />
<glyph unicode="'" horiz-adv-x="403" d="M240 1430h206l-120 -443h-111z" />
<glyph unicode="(" horiz-adv-x="647" d="M432 -379q-143 131 -223 319.5t-80 397.5q0 156 44 308.5t123 291.5t186.5 261t234.5 218l43 -59q-129 -139 -217 -262t-143.5 -247t-80 -257t-24.5 -291q0 -164 47 -317.5t156 -302.5z" />
<glyph unicode=")" horiz-adv-x="647" d="M-100 -319q129 137 218 261t144 247.5t80 257t25 290.5q0 164 -47.5 316.5t-155.5 304.5l65 59q143 -133 223 -320.5t80 -396.5q0 -156 -44 -308t-122.5 -291.5t-186 -262.5t-234.5 -217z" />
<glyph unicode="*" horiz-adv-x="876" d="M201 862l243 187l-272 92l49 157l256 -176l2 289h166l-90 -297l274 88l52 -158l-306 -8l166 -233l-137 -98l-100 292l-170 -233z" />
<glyph unicode="+" d="M477 459h-426v119h426v421h131v-421h424v-119h-424v-459h-131v459z" />
<glyph unicode="," horiz-adv-x="575" d="M33 -242q59 53 99 123t40 156q0 41 -9 77t-24 60l207 76q14 -27 21.5 -62.5t7.5 -74.5q0 -68 -26.5 -130.5t-69.5 -114.5t-95.5 -92t-101.5 -63z" />
<glyph unicode="-" horiz-adv-x="737" d="M141 621h469l-18 -121h-469z" />
<glyph unicode="." horiz-adv-x="575" d="M227 -20q-57 0 -97 40.5t-40 96.5q0 57 40 97t97 40q55 0 95 -40t40 -97q0 -55 -40 -96t-95 -41z" />
<glyph unicode="/" horiz-adv-x="710" d="M-66 -209l838 1661l113 -43l-838 -1659z" />
<glyph unicode="0" d="M461 -29q-96 0 -171 34t-125 97.5t-76 151.5t-26 199q0 162 41 314.5t118 271t188.5 191.5t255.5 73q98 0 172.5 -34t124 -97.5t75 -151.5t25.5 -199q0 -162 -41 -315.5t-118 -272t-189.5 -190.5t-253.5 -72zM475 84q98 0 169 71.5t117 183.5t68.5 246t22.5 261 q0 190 -52 268t-151 78q-96 0 -166.5 -71.5t-117 -183.5t-69 -249t-22.5 -266q0 -186 52.5 -262t148.5 -76z" />
<glyph unicode="1" d="M162 68l172 10q18 2 32.5 7t24.5 22.5t19.5 49t17.5 85.5l127 800q2 10 3 17.5t1 11.5q0 27 -31 27q-14 0 -30.5 -3l-42.5 -8l-136 -28l-10 61q12 4 50 20l90 37l109 46l110 47l90 39q39 16 51 22l-172 -1089q-6 -35 -8 -58.5t-2 -40.5q0 -29 14 -47t49 -20l162 -8 l-10 -68q-18 0 -64.5 1t-99.5 2l-105 2q-51 1 -79 1q-31 0 -80 -1l-101 -2q-51 -1 -96 -2t-63 -1z" />
<glyph unicode="2" d="M33 86l281 255q126 118 214 224.5t135.5 205.5t47.5 202q0 92 -49.5 142t-159.5 50q-66 0 -125.5 -18.5t-118.5 -50.5l-20 71q66 51 158.5 93.5t215.5 42.5q158 0 248 -73t90 -202q0 -113 -54 -218t-146.5 -210.5t-214.5 -214.5l-261 -225l447 2q63 0 93 30.5t56 83.5h72 q-35 -86 -55.5 -148t-38.5 -128h-828z" />
<glyph unicode="3" d="M295 -29q-63 0 -126 6.5t-99 16.5l34 96q31 -8 78 -13t99 -5q72 0 140 19.5t122.5 57t87.5 95t33 131.5q0 104 -96.5 165.5t-264.5 61.5l19 82q76 4 146.5 32.5t125.5 75t88 105.5t33 125t-49.5 105.5t-143.5 39.5q-63 0 -121.5 -16t-117.5 -47l-17 72q57 47 152.5 87 t210.5 40q154 0 232.5 -64.5t78.5 -169.5q0 -61 -25.5 -119.5t-68.5 -106.5t-96.5 -83t-108.5 -51q119 -23 183.5 -96.5t64.5 -178.5q0 -100 -50.5 -185t-133 -146.5t-190 -96.5t-220.5 -35z" />
<glyph unicode="4" d="M557 279h-580l15 79l786 930h133l-135 -862h225l-30 -147h-219l-43 -279h-195zM582 426l96 604l-500 -604h404z" />
<glyph unicode="5" d="M305 -29q-51 0 -107.5 4.5t-95.5 14.5l27 90q31 -6 81 -10t87 -4q80 0 149.5 26.5t120.5 71.5t81 106.5t30 130.5q0 109 -81 178.5t-226 69.5q-33 0 -68 -2t-76 -10l138 641h444q53 0 76.5 19.5t42.5 60.5h80l-74 -246h-492l-65 -293q18 4 43.5 6t48.5 2q98 0 177 -24.5 t135.5 -71.5t87 -114.5t30.5 -151.5q0 -102 -45 -192.5t-125 -157t-188.5 -105.5t-235.5 -39z" />
<glyph unicode="6" d="M461 -29q-88 0 -154.5 34t-111.5 92.5t-68 139t-23 173.5q0 178 59.5 339.5t164 284.5t244 196t298.5 73q47 0 87 -4.5t77 -12.5l-28 -96q-31 6 -63 10t-66 4q-92 0 -177.5 -43t-154 -115.5t-116.5 -168t-69 -197.5q51 53 130 88t155 35q141 0 232.5 -84t91.5 -238 q0 -98 -35 -189t-100.5 -163t-159.5 -115t-213 -43zM500 76q49 0 95 30.5t80 83t54.5 119t20.5 140.5q0 98 -46.5 159.5t-138.5 61.5q-61 0 -119.5 -23.5t-103.5 -62.5q-23 -96 -23 -199q0 -141 41.5 -225t139.5 -84z" />
<glyph unicode="7" d="M193 -4q68 147 145.5 296.5t163.5 293t177 278.5t183 254h-438q-59 0 -95 -33.5t-59 -99.5h-84l95 293h774l-13 -82q-219 -315 -378.5 -620.5t-282.5 -618.5z" />
<glyph unicode="8" d="M436 -29q-92 0 -159.5 23.5t-111.5 62.5t-64.5 89.5t-20.5 103.5q0 70 26.5 127t72.5 105t106.5 87t130.5 72q-92 59 -142.5 130t-50.5 163q0 74 37 140.5t100.5 117.5t146.5 81t175 30q86 0 148.5 -19.5t102.5 -53.5t59.5 -80t19.5 -97q0 -61 -28 -113.5t-72 -95.5 t-99 -76t-111 -57q121 -66 187.5 -142.5t66.5 -185.5q0 -90 -44 -166t-117.5 -130t-167 -85t-191.5 -31zM477 72q49 0 96.5 18.5t83 51t57 78.5t21.5 99q0 84 -60.5 146.5t-172.5 120.5q-43 -23 -85 -53.5t-75 -69.5t-53.5 -86t-20.5 -103q0 -88 57.5 -145t151.5 -57z M612 764q96 47 154.5 113.5t58.5 158.5q0 68 -42 118t-128 50q-96 0 -156.5 -62.5t-60.5 -150.5q0 -84 48 -132t126 -95z" />
<glyph unicode="9" d="M246 -29q-49 0 -88 4.5t-76 12.5l27 96q31 -6 63.5 -10t67.5 -4q92 0 176 43t152.5 115.5t117.5 168t70 197.5q-51 -53 -130 -88t-155 -35q-141 0 -232.5 84t-91.5 238q0 98 35 189t100.5 163t160 115t212.5 43q88 0 155 -34t111 -92.5t66.5 -139.5t22.5 -173 q0 -178 -59.5 -340t-163 -284.5t-242.5 -195.5t-299 -73zM551 604q61 0 119.5 23.5t103.5 62.5q10 47 15.5 98.5t5.5 100.5q0 141 -40 225t-141 84q-49 0 -94 -30.5t-78.5 -83t-54 -119t-20.5 -140.5q0 -98 45 -159.5t139 -61.5z" />
<glyph unicode=":" horiz-adv-x="575" d="M346 741q-57 0 -97 41t-40 97q0 57 40 97t97 40q55 0 95 -40t40 -97q0 -55 -40 -96.5t-95 -41.5zM227 -20q-57 0 -97 40.5t-40 96.5q0 57 40 97t97 40q55 0 95 -40t40 -97q0 -55 -40 -96t-95 -41z" />
<glyph unicode=";" horiz-adv-x="575" d="M33 -242q59 53 99 123t40 156q0 41 -9 77t-24 60l207 76q14 -27 21.5 -62.5t7.5 -74.5q0 -68 -26.5 -130.5t-69.5 -114.5t-95.5 -92t-101.5 -63zM389 741q-57 0 -97 41t-40 97q0 57 40 97t97 40q55 0 95 -40t40 -97q0 -55 -40 -96.5t-95 -41.5z" />
<glyph unicode="&#x3c;" d="M205 498l590 532l84 -88l-496 -444l496 -445l-84 -88z" />
<glyph unicode="=" d="M70 424h944v-119h-944v119zM70 733h944v-119h-944v119z" />
<glyph unicode="&#x3e;" d="M205 53l495 445l-495 444l84 88l590 -532l-590 -533z" />
<glyph unicode="?" horiz-adv-x="774" d="M203 387q-6 90 18.5 156.5t66.5 118t91 92.5t93 82t72.5 86t28.5 104q0 66 -43 103.5t-131 37.5q-51 0 -105 -15t-106 -44l-18 86q25 18 56.5 36.5t71.5 35t87 27t98 10.5q154 0 234 -66t80 -176q0 -86 -36 -144.5t-90.5 -104.5t-116.5 -86t-117.5 -86t-92.5 -106.5 t-39 -146.5h-102zM231 -20q-57 0 -97 40.5t-40 96.5q0 57 40 97t97 40t96.5 -40t39.5 -97q0 -55 -39.5 -96t-96.5 -41z" />
<glyph unicode="@" horiz-adv-x="1593" d="M672 -143q-135 0 -242.5 41t-182.5 114.5t-114 175t-39 222.5q0 188 64.5 350t178.5 279.5t270.5 185t342.5 67.5q145 0 256 -43t184.5 -113.5t110.5 -163.5t37 -192q0 -117 -35 -224t-95 -188t-143 -130.5t-182 -49.5q-86 0 -132 55.5t-44 127.5h-2q-16 -31 -40.5 -63 t-55.5 -57.5t-69 -40.5t-78 -15q-92 0 -152.5 71.5t-60.5 188.5q0 111 34.5 206t94 165.5t141.5 111.5t176 41q41 0 79 -8t70 -8q18 0 43 3t41 9l-75 -492q-6 -47 -6 -75q0 -47 18 -84t74 -37q51 0 104 37.5t95 102.5t69 153t27 188t-38 181t-103.5 136.5t-157 85 t-195.5 29.5q-145 0 -275 -57.5t-230.5 -159.5t-159 -244.5t-58.5 -312.5q0 -111 33 -199t96.5 -149.5t153.5 -94t205 -32.5q86 0 164.5 15.5t144.5 37.5l18 -84q-66 -27 -164 -45t-196 -18zM717 307q27 0 52.5 13.5t48 33t41 43t28.5 45.5l69 428q-16 6 -38.5 9.5 t-45.5 3.5q-55 0 -103 -30t-84 -82t-55.5 -127t-19.5 -163q0 -82 29 -128t78 -46z" />
<glyph unicode="A" horiz-adv-x="1310" d="M-66 72l58 10q53 10 87 53t71 113l550 1036l170 23l207 -1057q16 -90 40 -125t65 -45l45 -8l-10 -72q-41 2 -104.5 4t-125.5 2q-33 0 -76 -1l-85 -2q-42 -1 -78.5 -2t-55.5 -1l13 72l83 10q35 4 55.5 28.5t20.5 59.5q0 10 -1 25.5t-3 27.5l-45 250h-420l-123 -244 q-14 -29 -24 -53t-10 -49q0 -16 8 -29.5t28 -17.5l84 -8l-10 -72q-39 2 -106.5 4t-122.5 2t-105.5 -2t-89.5 -4zM799 571l-88 519l-265 -519h353z" />
<glyph unicode="B" horiz-adv-x="1200" d="M530 -4q-68 0 -148.5 4t-137.5 4h-62q-33 0 -66.5 -1t-63 -2t-48.5 -1l10 72l76 12q41 6 66.5 38t42.5 126l125 780q4 23 5 46.5t1 41.5q0 68 -72 80l-63 10l10 72q39 -2 106 -2h131q43 0 80 1t70 1l67 2q35 2 76 2q180 0 283.5 -70.5t103.5 -205.5q0 -66 -26.5 -120.5 t-68.5 -95t-95 -68.5t-109 -38v-2q53 -8 101.5 -29.5t84 -56.5t56 -82t20.5 -104q0 -100 -43 -177t-118.5 -129.5t-176 -80t-217.5 -27.5zM567 100q59 0 111.5 22.5t92.5 62.5t62.5 95.5t22.5 122.5q0 102 -67.5 156.5t-184.5 54.5q-47 0 -76.5 -1t-60.5 -3l-57 -372 q-6 -41 -7 -60q0 -41 38 -59.5t126 -18.5zM627 719q129 0 199.5 74.5t70.5 187.5q0 96 -57.5 146.5t-157.5 50.5h-64q-33 0 -61 -4l-72 -451q33 -4 64 -4h78z" />
<glyph unicode="C" horiz-adv-x="1234" d="M621 -27q-131 0 -232.5 40t-171.5 111t-105.5 167t-35.5 209q0 168 57 315.5t159.5 255t243 170t306.5 62.5q104 0 198.5 -18.5t165.5 -41.5q-12 -78 -19 -137t-13 -137h-91q-2 111 -65.5 171t-202.5 60q-115 0 -208 -52t-159.5 -145.5t-103.5 -220.5t-37 -274 q0 -92 23.5 -171t68.5 -136.5t109.5 -90t148.5 -32.5q147 0 223 58.5t109 168.5h90q-18 -86 -31 -154l-24 -126q-72 -18 -172 -35t-231 -17z" />
<glyph unicode="D" horiz-adv-x="1376" d="M492 -4q-84 0 -137.5 4t-112.5 4h-62q-33 0 -66.5 -1t-63.5 -2t-48 -1l12 72l74 12q20 2 37.5 10t31 26.5t23.5 49.5t19 78l123 770q4 23 6 43t2 37q0 86 -74 98l-63 8l12 72q39 -2 106.5 -3t128.5 -1q70 2 141.5 5t157.5 3q135 0 238.5 -38t174.5 -107.5t106.5 -168 t35.5 -221.5q0 -170 -61.5 -308t-170 -236.5t-254.5 -151.5t-316 -53zM551 100q117 0 212 48.5t162.5 134.5t104.5 202.5t37 253.5q0 98 -25.5 179t-74.5 137.5t-120 88.5t-163 32h-57q-33 0 -70 -5l-145 -921q-4 -18 -5 -36.5t-1 -31.5q0 -43 33.5 -62.5t111.5 -19.5z" />
<glyph unicode="E" horiz-adv-x="1134" d="M946 -6q-29 2 -81 3t-112.5 3t-119 3t-96.5 1h-342q-37 0 -73 -1t-67.5 -2t-48.5 -1l10 72l74 12q20 2 37.5 10t31 26.5t24 49.5t18.5 78l121 782q4 23 6 40t2 34q0 47 -17.5 65.5t-48.5 24.5l-71 12l10 72q16 0 47 -1t67.5 -2t73.5 -1h168q55 0 111.5 1t107.5 1h96 q43 0 85 1t78 2t60.5 2t30.5 3l-21 -149q-11 -80 -15 -140h-82l-4 95q-2 37 -23.5 58t-75.5 21l-350 2l-70 -460h252q53 0 70.5 13t28.5 42l32 90h82q-10 -43 -19 -93l-18 -99q-8 -41 -14 -99l-10 -98h-80l-6 82q-2 29 -15.5 45t-66.5 16h-252l-59 -372q-6 -41 -6 -62 q0 -35 27.5 -52.5t111.5 -17.5h215q55 0 83.5 19.5t47.5 60.5l55 117h82l-26 -86q-13 -45 -24 -87t-19.5 -79t-12.5 -57z" />
<glyph unicode="F" horiz-adv-x="1071" d="M18 72l74 12q20 2 36.5 10t30 26.5t24 49.5t18.5 78l123 782q6 43 6 74q0 49 -17.5 66.5t-48.5 23.5l-71 12l12 72q16 0 47 -1t67.5 -2t71.5 -1h166q57 0 114.5 1t110.5 1h97q86 2 146 4t103 4q-10 -68 -20 -149.5t-16 -139.5h-82l-4 95q-2 37 -22.5 58t-74.5 21l-350 2 l-76 -489h246q53 0 70.5 13.5t27.5 41.5l33 90h80q-8 -39 -17 -90l-18 -100q-8 -41 -14 -100l-10 -97h-82l-4 80q-2 29 -15.5 45.5t-66.5 16.5h-246l-53 -334q-6 -43 -6 -70q0 -53 19 -71.5t48 -22.5l117 -12l-12 -72q-18 0 -56.5 1t-83.5 1l-88 2q-43 2 -76 2q-35 0 -73 -1 l-76 -2q-37 -1 -69.5 -2t-51.5 -1z" />
<glyph unicode="G" horiz-adv-x="1318" d="M616 -27q-125 0 -225 37t-169.5 106.5t-107.5 167t-38 218.5q0 172 59.5 319.5t163.5 254t247.5 167t309.5 60.5q102 0 196.5 -16.5t164.5 -37.5q-12 -86 -20.5 -170t-12.5 -139h-86q2 117 -65.5 188.5t-209.5 71.5q-117 0 -212 -52t-162.5 -144.5t-104.5 -219.5 t-37 -276q0 -96 23.5 -176t68.5 -136.5t109.5 -87t146.5 -30.5q45 0 96.5 9t92.5 28l28 194q4 23 7.5 49.5t3.5 40.5q0 47 -16.5 65.5t-47.5 24.5l-67 13l10 71q39 -2 108.5 -4t147.5 -2q66 0 135.5 2t108.5 4l-11 -71l-67 -13q-41 -8 -65.5 -40.5t-39.5 -122.5l-43 -287 q-74 -23 -180.5 -44.5t-239.5 -21.5z" />
<glyph unicode="H" horiz-adv-x="1505" d="M16 72l78 12q43 6 67.5 42t39.5 122l125 782q4 23 6 40t2 32q0 47 -17.5 66.5t-48.5 25.5l-71 12l10 72q18 0 50 -1t67.5 -2t74.5 -1h144q39 0 74.5 1t66.5 2t49 1l-10 -72l-78 -12q-45 -6 -69.5 -36t-38.5 -118l-50 -321h600l50 311q4 23 6 40t2 32q0 47 -17.5 66.5 t-48.5 25.5l-69 12l10 72q39 -2 116.5 -3t147.5 -1h70q39 0 74.5 1t66.5 2t49 1l-10 -72l-78 -12q-43 -8 -68.5 -37t-39.5 -117l-123 -792q-6 -43 -6 -72q0 -47 17 -67.5t46 -24.5l72 -12l-11 -72q-39 2 -116.5 3t-147.5 1h-73q-37 0 -73 -1t-66.5 -2t-49.5 -1l10 72l78 12 q43 6 67.5 42t39.5 122l59 366h-602l-55 -366q-4 -23 -6 -42.5t-2 -31.5q0 -47 17 -66.5t48 -23.5l72 -12l-11 -72q-18 0 -48.5 1t-67.5 2t-76 1h-145q-37 0 -73 -1t-66.5 -2t-49.5 -1z" />
<glyph unicode="I" horiz-adv-x="690" d="M10 72l78 12q43 6 69.5 37t41.5 117l125 792q6 43 6 72q0 47 -17.5 66.5t-48.5 25.5l-71 12l10 72q18 0 50 -1t69.5 -2t76.5 -1h144q39 0 74.5 1t66.5 2t49 1l-10 -72l-78 -12q-45 -6 -70.5 -37t-39.5 -117l-123 -792q-6 -43 -6 -72q0 -47 17 -67.5t46 -24.5l72 -12 l-11 -72q-18 0 -49.5 1t-67.5 2t-75 1h-145q-37 0 -74 -1t-69 -2t-50 -1z" />
<glyph unicode="J" horiz-adv-x="651" d="M-78 -334q-23 0 -52.5 1t-51.5 5l45 140q20 -4 50 -8.5t50 -4.5q45 0 75 8.5t49 28t30.5 53t19.5 84.5l168 1057q6 43 6 74q0 47 -17.5 65.5t-47.5 24.5l-70 12l10 72q18 0 50 -1t68 -2t75 -1h143q39 0 75 1t66.5 2t49.5 1l-11 -72l-77 -12q-23 -4 -40.5 -11t-29.5 -24.5 t-22.5 -45.5t-16.5 -73l-147 -942q-16 -98 -51 -177t-90.5 -136t-132.5 -88t-173 -31z" />
<glyph unicode="K" horiz-adv-x="1277" d="M16 72l78 12q43 6 66.5 38t38.5 116l125 792q4 23 6 42.5t2 31.5q0 43 -17.5 63.5t-50.5 26.5l-69 12l10 72q18 0 50 -1t67.5 -2t74.5 -1h144q39 0 74.5 1t66.5 2t49 1l-10 -72l-78 -12q-43 -6 -67.5 -37t-38.5 -117l-125 -792q-6 -43 -6 -72q0 -47 17 -67.5t48 -24.5 l70 -12l-11 -72q-39 2 -116.5 3t-147.5 1h-71q-37 0 -73 -1t-66.5 -2t-49.5 -1zM1075 -20q-84 0 -150.5 29.5t-119.5 101.5q-25 35 -60.5 90t-76.5 126l-88 153l-97 173l406 398q31 31 55.5 61.5t24.5 56.5q0 14 -13.5 25.5t-60.5 15.5l10 68q39 -2 104.5 -3t120.5 -1 q47 0 108.5 1t100.5 3l-10 -70q-96 -8 -172 -56t-172 -142l-299 -285l186 -312q82 -132 152 -218q35 -43 81 -82t107 -45l-10 -66q-23 -12 -57.5 -17t-69.5 -5z" />
<glyph unicode="L" horiz-adv-x="1034" d="M885 -6q-29 2 -70 3l-85 2l-85 2q-41 1 -67 1l-322 2h-61q-37 0 -74 -1t-69 -2t-46 -1l10 72l74 12q20 2 37.5 10t31 26.5t24 49.5t18.5 78l123 782q6 43 6 70q0 51 -16.5 69.5t-47.5 24.5l-71 12l10 72q18 0 50 -1t68.5 -2t75.5 -1h148q41 0 80 1t72.5 2t52.5 1l-11 -72 l-94 -12q-41 -6 -68.5 -38t-41.5 -126l-125 -790q-6 -41 -6 -62q0 -35 27.5 -53.5t111.5 -18.5h153q55 0 84 19.5t47 60.5l56 117h84l-26 -86l-25 -87q-12 -42 -20.5 -79t-12.5 -57z" />
<glyph unicode="M" horiz-adv-x="1781" d="M-41 72l70 12q53 8 88 42t57 124l193 774q14 51 14 86q0 41 -21.5 60.5t-62.5 25.5l-61 10l10 72q39 -2 88 -2h196q29 0 57.5 1t51.5 1l209 -997l512 997q23 0 51.5 -1t54.5 -1h195q47 0 86 2l-10 -72l-74 -12q-41 -6 -67.5 -32.5t-36.5 -86.5q-2 -10 -3.5 -24.5 t-1.5 -30.5l-57 -776q-2 -31 -2 -57.5t8 -48t24.5 -35t45.5 -19.5l61 -12l-10 -72q-39 2 -110.5 3t-139.5 1h-76q-41 0 -78.5 -1t-71.5 -2t-52 -1l10 72l82 12q53 8 75.5 47t26.5 111l58 788l-537 -1030h-121l-213 1020l-192 -772q-4 -23 -10.5 -45.5t-6.5 -42.5 q0 -35 20.5 -56.5t55.5 -25.5l59 -6l-10 -72q-39 2 -106.5 3t-132.5 1q-72 0 -118 -1t-87 -3z" />
<glyph unicode="N" horiz-adv-x="1472" d="M10 72l80 12q43 6 69.5 42t41.5 128l123 776q6 43 6 76q0 47 -17.5 65.5t-52.5 24.5l-67 10l10 72q39 -2 73 -2h156q29 0 74 2l594 -967l112 713q4 23 6.5 42t2.5 32q0 47 -16.5 69.5t-51.5 26.5l-74 12l11 72q39 -2 97 -3t128 -1q68 0 116 1t87 3l-11 -72l-73 -12 q-51 -10 -74 -45t-37 -125l-162 -1036h-106l-625 1018l-119 -752q-6 -43 -6 -74q0 -51 17.5 -71.5t48.5 -24.5l71 -12l-10 -72q-39 2 -95 3t-122 1q-72 0 -124 -1t-93 -3z" />
<glyph unicode="O" horiz-adv-x="1370" d="M588 -27q-127 0 -223.5 40t-161 111t-96 167t-31.5 211q0 154 51 297t144.5 255.5t225.5 180.5t294 68q129 0 225 -39t160.5 -110t96.5 -167t32 -211q0 -154 -51.5 -298t-145.5 -256.5t-226 -180.5t-294 -68zM616 78q113 0 200 66.5t144.5 170t87 230.5t29.5 248 q0 88 -19.5 162.5t-57 129t-96 85t-138.5 30.5q-111 0 -197 -64.5t-144 -166t-89 -227.5t-31 -248q0 -90 18.5 -167t57.5 -132.5t97 -86t138 -30.5z" />
<glyph unicode="P" horiz-adv-x="1140" d="M14 72l76 12q20 2 37.5 10t31 26.5t24 49.5t18.5 78l125 782q6 43 6 74q0 47 -15.5 65.5t-50.5 24.5l-69 12l10 72q39 -2 106 -2h129q72 0 146 3t166 3q170 0 274.5 -80t104.5 -225q0 -104 -43 -185t-116 -136.5t-166 -84t-194 -28.5q-41 0 -81.5 1t-73.5 5l-47 -301 q-6 -47 -6 -76q0 -47 17 -65.5t48 -22.5l98 -12l-10 -72q-18 0 -53 1t-76 2t-84 1h-147q-39 0 -76 -1t-68.5 -2t-50.5 -1zM614 649q135 0 215 81t80 235q0 96 -54 154.5t-157 58.5h-71q-37 0 -70 -4l-82 -519q61 -6 139 -6z" />
<glyph unicode="Q" horiz-adv-x="1370" d="M989 -348q-94 0 -165.5 39t-131 93t-112 109.5t-103.5 88.5q-98 14 -174 60t-126 113.5t-75.5 155.5t-25.5 191q0 154 50 297t144.5 255.5t225.5 180.5t295 68q127 0 223 -39t160.5 -110t97.5 -167t33 -211q0 -139 -42 -270t-119 -238.5t-183.5 -181.5t-237.5 -98 q47 -29 94 -66l80 -65q57 -47 113.5 -67.5t109.5 -20.5q12 0 28.5 1t33.5 3l-15 -84q-20 -12 -72.5 -24.5t-105.5 -12.5zM616 78q113 0 200 66.5t144.5 170t87 230.5t29.5 248q0 88 -19.5 162.5t-58 129t-97 85t-138.5 30.5q-111 0 -197 -64.5t-144 -166t-89 -227.5 t-31 -248q0 -90 19.5 -167t57.5 -132.5t97 -86t139 -30.5z" />
<glyph unicode="R" horiz-adv-x="1263" d="M1102 -20q-94 0 -164 43t-111 100q-45 59 -105 160.5t-132 267.5h-72q-27 0 -57 4l-49 -307q-6 -47 -6 -76q0 -47 17 -65.5t48 -22.5l94 -12l-10 -72q-18 0 -52 1t-74 2t-83 1h-147q-39 0 -75 -1t-67.5 -2t-50.5 -1l10 72l74 12q20 2 37.5 10t31 26.5t24 49.5t18.5 78 l125 782q4 23 6 40t2 34q0 45 -16.5 64.5t-51.5 25.5l-69 12l10 72q39 -2 106 -2h129q72 0 151 3t171 3q170 0 274.5 -79t104.5 -222q0 -70 -26.5 -133.5t-73 -115.5t-108 -90t-130.5 -56q55 -125 120.5 -232.5t129.5 -179.5q35 -41 83 -70.5t101 -35.5l-10 -66 q-23 -10 -58.5 -16t-68.5 -6zM590 657q145 0 236.5 77t91.5 231q0 98 -58.5 155.5t-163.5 57.5h-71q-37 0 -66 -4l-80 -510q29 -4 49.5 -5.5t61.5 -1.5z" />
<glyph unicode="S" horiz-adv-x="1021" d="M383 -29q-92 2 -182 17.5t-156 31.5q16 90 22.5 161t12.5 157h86q-2 -131 55.5 -197.5t179.5 -66.5q123 0 192 64.5t69 170.5q0 59 -36 104.5t-91.5 84.5t-118 77.5t-117.5 87t-91 110t-36 147.5t34 156.5t94 120.5t144 78t185 28q111 0 190.5 -17.5t132.5 -38.5 q-12 -66 -19 -140.5t-13 -148.5h-82q0 70 -19.5 116t-50.5 74t-71 40t-81 12q-117 0 -176 -61.5t-59 -151.5q0 -59 37 -105t91 -88t118.5 -83t119 -89.5t91 -107.5t36.5 -137q0 -96 -38.5 -171t-105 -127t-157 -80t-190.5 -28z" />
<glyph unicode="T" horiz-adv-x="1161" d="M242 72l84 12q20 2 37.5 10t31 26.5t23.5 49.5t18 78l146 926q-47 2 -103 2h-96q-80 0 -115 -26t-51 -71l-29 -88h-84q6 23 13.5 57.5t14.5 74.5l15 83l15 80q51 -4 121.5 -5t145.5 -3t146 -2h254q72 0 148 2t146.5 3t123.5 5l-20 -160t-15 -135h-86v88q0 45 -27.5 71 t-107.5 26h-96q-55 0 -102 -2l-146 -926q-6 -43 -6 -72q0 -49 17.5 -68.5t48.5 -23.5l79 -12l-12 -72q-18 0 -50 1t-69 2l-74 2q-38 1 -71 1q-35 0 -76 -1l-80 -2q-39 -1 -72.5 -2t-52.5 -1z" />
<glyph unicode="U" horiz-adv-x="1425" d="M645 -20q-98 0 -179 29.5t-138.5 80.5t-89 121t-31.5 149q0 16 2 43t6 48l92 579q6 45 6 76q-2 47 -18 64.5t-47 23.5l-62 12l11 72q39 -2 113.5 -3t144.5 -1h71q41 0 78 1t69 2t50 1l-10 -72l-86 -12q-43 -6 -70 -38t-41 -126l-92 -590q-6 -41 -6 -73q0 -133 78.5 -202 t214.5 -69q160 0 252 88t118 254l93 586q4 23 6 41t2 35q0 47 -17.5 67.5t-48.5 26.5l-76 12l11 72q39 -2 96 -3t127 -1q66 0 114 1t87 3l-11 -72l-69 -12q-47 -8 -71 -43t-40 -127l-94 -600q-33 -209 -175.5 -326.5t-369.5 -117.5z" />
<glyph unicode="V" horiz-adv-x="1294" d="M276 1030q-16 86 -38.5 123t-69.5 45l-45 8l10 72q39 -2 111.5 -4t136.5 -2q31 0 72 1l81 2q40 1 74.5 2t53.5 1l-11 -72l-82 -10q-35 -4 -55 -22.5t-20 -51.5q0 -12 1 -30.5t5 -36.5l143 -854l414 848q14 27 23.5 51t9.5 47q0 20 -12.5 34.5t-37.5 18.5l-75 6l10 72 q39 -2 105.5 -4t123.5 -2q55 0 102.5 2t86.5 4l-11 -72l-61 -10q-47 -10 -80 -52t-70 -114l-528 -1046h-166z" />
<glyph unicode="W" horiz-adv-x="1931" d="M281 1030q-14 84 -40 122t-69 46l-43 8l10 72q41 -2 105.5 -4t126.5 -2q33 0 71 1l77 2q38 1 71 2t51 1l-10 -72l-70 -10q-33 -4 -52.5 -23.5t-19.5 -54.5q0 -10 2.5 -32.5t6.5 -41.5l127 -831l350 711l-19 106q-16 86 -40.5 123t-69.5 45l-41 8l10 72q39 -2 105.5 -4 t130.5 -2q33 0 72 1l78 2q38 1 72 2t52 1l-10 -72l-78 -10q-33 -4 -53.5 -23.5t-20.5 -54.5q0 -12 2 -32.5t6 -38.5l127 -836l394 838l23 54q11 26 11 46q0 16 -13 30.5t-40 18.5l-84 8l10 72q39 -2 110 -4t128 -2q55 0 101.5 2t84.5 4l-10 -72l-59 -10q-55 -10 -86 -55 t-64 -111l-510 -1046h-157l-136 780l-380 -780h-162z" />
<glyph unicode="X" horiz-adv-x="1288" d="M-57 72l37 4q55 8 111 57t102 103l352 411l-244 475q-18 37 -40.5 53.5t-65.5 24.5l-35 6l10 72q18 0 50 -1t68 -2t72 -1h148q43 0 86 1t80 2t55 1l-10 -72l-74 -6q-39 -4 -61.5 -22.5t-22.5 -47.5q0 -20 8.5 -40.5t20.5 -42.5l141 -275l219 277q23 29 35 53t12 47 q0 18 -11 31.5t-38 17.5l-65 8l10 72q39 -2 107.5 -3t123.5 -1q53 0 116 1t101 3l-10 -72l-37 -6q-53 -10 -111.5 -58t-111.5 -112l-291 -352l264 -500q27 -47 56.5 -70.5t66.5 -29.5l33 -6l-10 -72q-18 0 -50 1t-68 2l-74 2q-38 1 -70 1q-33 0 -77 -1l-87 -2q-43 -1 -80 -2 t-55 -1l10 72l74 6q33 4 53 20.5t22 46.5q0 23 -5 39.5t-21 44.5l-166 322l-266 -322q-49 -57 -49 -96q0 -18 11 -33.5t44 -19.5l51 -8l-10 -72q-18 0 -48 1t-63 2l-66 2q-34 1 -61 1q-53 0 -110.5 -2t-96.5 -4z" />
<glyph unicode="Y" horiz-adv-x="1245" d="M285 72l77 12q41 6 69 38t42 126l43 278l-248 547q-20 43 -42.5 79t-67.5 46l-41 8l10 72q39 -2 109.5 -4t134.5 -2h73l84 2q43 2 79 3t55 1l-11 -72l-80 -8q-35 -4 -56 -25.5t-21 -54.5q0 -16 7 -36l13 -35l172 -402l295 404l37 53q18 27 18 49q0 16 -10 29.5t-35 17.5 l-82 8l11 72q39 -2 109.5 -4t127.5 -2q53 0 100.5 2t85.5 4l-10 -72l-51 -8q-53 -10 -92 -50t-96 -118l-363 -479l-47 -303q-4 -23 -5 -45.5t-1 -34.5q0 -45 17.5 -62.5t45.5 -21.5l74 -12l-10 -72q-18 0 -49 1t-67 2t-75 1h-145q-39 0 -76 -1t-68.5 -2t-50.5 -1z" />
<glyph unicode="Z" horiz-adv-x="1118" d="M934 -4l-140 4q-73 2 -140.5 3t-129.5 1h-104q-111 0 -225.5 -1t-223.5 -5l11 76l884 1102h-434q-63 0 -96 -25t-49 -72l-29 -88h-94l15 60l19 73l19 80q10 41 16 78q82 -2 150 -3t128 -2t116 -1h110q111 0 208 1t208 3l-12 -74l-881 -1097h469q61 0 94 25.5t54 66.5 l45 94h92l-19 -63l-21 -75l-23 -81q-11 -41 -17 -80z" />
<glyph unicode="[" horiz-adv-x="643" d="M377 1425h371l-15 -79h-203l-264 -1663h205l-12 -80h-369z" />
<glyph unicode="\" horiz-adv-x="710" d="M119 1432l117 20l315 -1679l-117 -21z" />
<glyph unicode="]" horiz-adv-x="643" d="M-86 -317h205l262 1663h-205l14 79h369l-287 -1822h-368z" />
<glyph unicode="^" horiz-adv-x="1128" d="M111 549l395 729h121l391 -729l-121 -47l-332 612l-329 -612z" />
<glyph unicode="_" horiz-adv-x="911" d="M-113 -205h930l-18 -114h-930z" />
<glyph unicode="`" horiz-adv-x="716" d="M156 1382l114 109l258 -305l-55 -56z" />
<glyph unicode="a" horiz-adv-x="1077" d="M324 -29q-123 0 -189.5 92.5t-66.5 233.5q0 166 53 298t140 224t198.5 142.5t230.5 50.5q43 0 90 -6.5t82 -6.5q23 0 52.5 3.5t50.5 9.5l-115 -729q-4 -23 -6 -49.5t-2 -49.5q0 -76 65 -75q29 0 54.5 10t48.5 24l20 -55q-33 -35 -96.5 -69.5t-149.5 -34.5 q-76 0 -105.5 37.5t-29.5 103.5q0 10 2 27.5t6 33.5h-4q-23 -41 -56.5 -78.5t-76.5 -68.5t-92 -49.5t-104 -18.5zM403 123q78 0 142.5 50t105.5 114l92 596q-18 12 -40.5 16t-51.5 4q-76 0 -143.5 -48t-118.5 -129t-80.5 -189.5t-29.5 -231.5q0 -76 32.5 -129t91.5 -53z" />
<glyph unicode="b" horiz-adv-x="1054" d="M358 -16q-72 0 -139 10t-129 26l174 1108l5 43q3 27 3 39q0 39 -24.5 56.5t-89.5 33.5l8 62q90 16 176 37.5t172 52.5l-100 -621h2q23 37 55.5 71t73.5 61.5t87 44t95 16.5q61 0 111.5 -24.5t84 -67.5t52 -103.5t18.5 -130.5q0 -166 -55 -298t-144 -224t-204 -142 t-232 -50zM397 94q76 0 145.5 47t123 128t86 189.5t32.5 231.5q0 76 -37.5 129t-99.5 53q-78 0 -144.5 -50t-105.5 -113l-94 -594q39 -21 94 -21z" />
<glyph unicode="c" horiz-adv-x="837" d="M430 -29q-90 0 -158.5 29t-114.5 82t-71 128t-25 165q0 141 48.5 260t127 205t180 134t206.5 48q72 0 132 -15.5t107 -41.5l-65 -150q-47 35 -101.5 54.5t-107.5 19.5q-61 0 -118.5 -29t-101.5 -87t-71 -148t-27 -211q0 -141 59.5 -222t174.5 -81q72 0 132 19.5t107 45.5 l19 -43q-12 -25 -43 -52.5t-76 -52t-100.5 -41t-112.5 -16.5z" />
<glyph unicode="d" horiz-adv-x="1079" d="M328 -29q-61 0 -110.5 24.5t-84.5 67.5t-53.5 102.5t-18.5 131.5q0 166 54.5 297t143.5 222t202.5 140.5t232.5 49.5q18 0 38 -2.5l36 -4.5l18 129q4 16 6.5 43t2.5 39q0 39 -23.5 56.5t-91.5 33.5l10 62q88 16 174 37.5t172 52.5l-182 -1169q-4 -23 -6 -49.5t-2 -49.5 q0 -76 65 -75q29 0 54.5 10t48.5 24l20 -55q-33 -35 -96.5 -69.5t-149.5 -34.5q-76 0 -105.5 37.5t-29.5 103.5q0 12 2 30.5t7 30.5h-5q-23 -41 -56.5 -78.5t-76.5 -68.5t-92 -49.5t-104 -18.5zM408 123q78 0 142 50t105 114l93 590q-35 20 -93 20q-76 0 -144.5 -47 t-121.5 -127t-85 -187.5t-32 -230.5q0 -76 38.5 -129t97.5 -53z" />
<glyph unicode="e" horiz-adv-x="905" d="M424 -29q-180 0 -269 102.5t-89 284.5q0 133 42 254t113.5 212t169.5 145.5t209 54.5q127 0 198.5 -52t71.5 -147q0 -166 -153.5 -265t-440.5 -118q0 -4 -1 -15t-1 -19q0 -137 55.5 -217t170.5 -80q72 0 127 19.5t102 45.5l19 -43q-12 -25 -43 -52.5t-74 -52t-96.5 -41 t-110.5 -16.5zM283 522q92 8 164.5 36t125 68t80 88t27.5 101q0 49 -25.5 78t-74.5 29q-47 0 -94.5 -27t-89.5 -78t-71.5 -126t-41.5 -169z" />
<glyph unicode="f" horiz-adv-x="626" d="M-125 -416q-51 0 -100 15l41 135q23 -10 56.5 -14.5t55.5 -4.5q76 0 115 42t55 141l156 993h-154l17 108h155q14 86 54.5 168t99.5 144.5t137 100.5t170 38q31 0 73 -8t68 -15l-38 -137q-12 6 -33 11.5t-42.5 9.5t-43 6t-35.5 2q-76 0 -123 -42t-63 -140l-23 -138h211 l-16 -108h-211l-133 -842q-14 -90 -49 -174t-92.5 -148.5t-134.5 -103.5t-173 -39z" />
<glyph unicode="g" horiz-adv-x="1050" d="M305 -416q-55 0 -122.5 13.5t-114.5 31.5l43 135q51 -23 114.5 -35t126.5 -12q119 0 178.5 65.5t81.5 188.5l17 92q4 25 7 41.5t6 28.5l6 24l7 25h-2q-23 -37 -55.5 -74.5t-73.5 -68.5t-90 -49.5t-104 -18.5q-61 0 -110.5 24.5t-83.5 67.5t-52 102.5t-18 131.5 q0 166 53 298t141 224t200.5 142.5t229.5 50.5q43 0 91 -6.5t83 -6.5q23 0 51.5 3.5t49.5 9.5l-146 -922q-14 -92 -49 -182t-96.5 -163t-151.5 -117t-217 -44zM410 123q78 0 139 50t102 114l94 596q-18 12 -41.5 16t-52.5 4q-76 0 -143.5 -48t-119.5 -129t-83 -189.5 t-31 -231.5q0 -76 38.5 -129t97.5 -53z" />
<glyph unicode="h" horiz-adv-x="1097" d="M801 -16q-78 0 -113 42t-35 111q0 27 4.5 56.5t10.5 58.5l73 389q14 78 15 111q0 53 -22.5 85.5t-82.5 32.5q-70 0 -136 -46t-116 -97l-112 -727h-199l174 1124q4 20 6 47t2 39q0 39 -23.5 56.5t-90.5 33.5l10 62q90 16 176 37.5t172 52.5l-98 -614h4q23 31 56.5 63.5 t75.5 60t88 45t91 17.5q123 0 174 -67.5t51 -178.5q0 -18 -3 -49t-13 -82l-72 -371l-7 -47q-3 -20 -3 -45q0 -74 70 -73q29 0 55.5 9t50.5 25l21 -55q-41 -39 -104.5 -72.5t-149.5 -33.5z" />
<glyph unicode="i" horiz-adv-x="581" d="M287 -16q-78 0 -114 42t-36 111q0 27 5 56.5l10 58.5l69 459q4 18 7 43.5t3 44.5q0 37 -23.5 55t-90.5 35l10 61q88 16 174 38t172 50l-119 -762q-10 -57 -10 -94q0 -72 68 -71q29 0 55.5 9t50.5 25l21 -55q-41 -39 -103.5 -72.5t-148.5 -33.5zM410 1210q-55 0 -92 37 t-37 90q0 51 36.5 88t92.5 37q53 0 91 -36.5t38 -88.5q0 -53 -38 -90t-91 -37z" />
<glyph unicode="j" horiz-adv-x="557" d="M-125 -416q-51 0 -100 15l41 135q23 -10 56.5 -14.5t55.5 -4.5q76 0 115 42t55 141l127 817q4 20 6 46.5t2 39.5q0 39 -23.5 56t-90.5 34l10 61q178 29 346 86l-153 -989q-14 -90 -49 -174t-91.5 -148.5t-133.5 -103.5t-173 -39zM397 1210q-53 0 -91 37t-38 90 q0 51 38 88t91 37q55 0 92 -36.5t37 -88.5q0 -53 -37 -90t-92 -37z" />
<glyph unicode="k" horiz-adv-x="1017" d="M801 -16q-74 0 -119 35.5t-88 101.5q-39 59 -90 157.5t-119 245.5l272 316q59 70 123 121t150 51q47 0 96 -17l-43 -166q-23 6 -47.5 9.5t-44.5 3.5q-57 0 -104.5 -31t-92.5 -78l-131 -135q59 -121 119.5 -228.5t108.5 -172.5q29 -41 55 -62.5t61 -21.5q53 0 97 30 l22 -53q-33 -41 -91 -73.5t-134 -32.5zM264 1128q4 16 6 43t2 39q0 39 -24.5 56.5t-89.5 33.5l8 62q90 16 176 37.5t172 52.5l-225 -1452h-199z" />
<glyph unicode="l" horiz-adv-x="552" d="M260 -16q-78 0 -113.5 41t-35.5 110q0 23 5 61l9 66l135 866l5 43q3 27 3 39q0 39 -24.5 56.5t-89.5 33.5l8 62q90 16 176 37.5t172 50.5l-184 -1174q-4 -29 -6.5 -52t-2.5 -40q0 -74 70 -73q29 0 55.5 9t51.5 25l20 -55q-41 -39 -104.5 -72.5t-149.5 -33.5z" />
<glyph unicode="m" horiz-adv-x="1634" d="M1337 -16q-78 0 -112.5 42t-34.5 111q0 27 4 56.5t10 58.5l74 389q14 78 14 111q0 53 -21.5 85.5t-80.5 32.5q-33 0 -64.5 -14t-62.5 -35.5t-58 -47.5l-49 -46q-2 -16 -3 -32.5t-5 -32.5l-102 -662h-199l101 645l7 58q3 26 3 49q0 53 -23.5 85.5t-83.5 32.5 q-31 0 -60.5 -13t-59 -33.5t-56.5 -46.5l-49 -48l-113 -729h-200l112 713q2 20 5 46.5t3 39.5q0 39 -23.5 56t-90.5 34l8 61q90 16 177 38t173 50l-35 -200h4q23 31 52.5 64.5t66.5 60t79 44t91 17.5q109 0 161 -57.5t60 -147.5q25 33 58 69t71.5 66.5t85 50t97.5 19.5 q123 0 174 -67.5t51 -178.5q0 -18 -3 -49t-13 -82l-72 -371l-7 -47q-3 -20 -3 -45q0 -74 69 -73q29 0 55.5 9t51.5 25l20 -55q-41 -39 -104.5 -72.5t-149.5 -33.5z" />
<glyph unicode="n" horiz-adv-x="1124" d="M827 -16q-78 0 -112.5 42t-34.5 111q0 27 4 56.5t10 58.5l74 389q14 78 14 111q0 53 -22.5 85.5t-81.5 32.5q-70 0 -136.5 -46t-115.5 -97l-113 -727h-200l112 713q2 20 5 46.5t3 39.5q0 39 -24.5 56t-89.5 34l8 61q90 16 177 38t173 50l-35 -200h4q23 31 57 63.5t76 60 t88 45t91 17.5q123 0 174 -67.5t51 -178.5q0 -18 -3 -49t-13 -82l-72 -371l-7 -47q-3 -20 -3 -45q0 -74 69 -73q29 0 55.5 9t51.5 25l20 -55q-41 -39 -104.5 -72.5t-149.5 -33.5z" />
<glyph unicode="o" horiz-adv-x="1015" d="M412 -29q-78 0 -140.5 27t-107.5 78t-69.5 121.5t-24.5 160.5q0 135 38.5 256t109.5 212.5t169 144.5t217 53q76 0 139.5 -26.5t108.5 -78t69.5 -123t24.5 -159.5q0 -135 -39 -256t-109.5 -212t-168.5 -144.5t-217 -53.5zM449 74q68 0 120 47t87.5 125t55 175t19.5 200 q0 301 -162 301q-68 0 -121 -47.5t-88.5 -125t-55 -176t-19.5 -198.5q0 -301 164 -301z" />
<glyph unicode="p" horiz-adv-x="1079" d="M-78 -328l62 9q41 8 65.5 40.5t38.5 124.5l137 867q2 20 5 46.5t3 39.5q0 39 -24.5 56t-89.5 34l8 61q174 31 342 88l-39 -221h2q23 39 56.5 76t74.5 65.5t88 47t101 18.5q61 0 111 -24.5t84 -67.5t52.5 -103.5t18.5 -130.5q0 -166 -54.5 -297t-143.5 -222t-201.5 -139 t-231.5 -48q-20 0 -39.5 1t-34.5 5l-22 -150l-7 -52q-3 -22 -3 -38q0 -45 19 -60t48 -17l88 -9l-10 -69q-18 0 -54 1t-76 2l-81 2q-41 1 -70 1q-59 0 -126.5 -2t-106.5 -4zM426 100q76 0 144.5 47.5t121.5 127t85 187t32 228.5q0 76 -38 129t-97 53q-78 0 -144.5 -50 t-105.5 -113l-90 -588q35 -21 92 -21z" />
<glyph unicode="q" horiz-adv-x="1054" d="M397 -330l76 8q43 4 70.5 40t42.5 122l55 326h-2q-23 -37 -55.5 -72t-72.5 -62.5t-86 -44t-97 -16.5q-61 0 -111.5 24.5t-84.5 67.5t-52.5 102.5t-18.5 131.5q0 166 54.5 298t143.5 224t202.5 142.5t232.5 50.5q43 0 90 -6.5t82 -6.5q23 0 52.5 3.5t50.5 9.5l-185 -1172 l-6 -51q-2 -18 -2 -35q0 -39 13.5 -54t37.5 -19l68 -11l-10 -67q-39 2 -107.5 4t-132.5 2q-31 0 -68 -1l-73 -2l-67 -2q-32 -1 -50 -1zM408 123q78 0 142 50t105 114l93 596q-18 12 -41 16t-52 4q-76 0 -144.5 -48t-121.5 -129t-85 -189.5t-32 -231.5q0 -76 38.5 -129 t97.5 -53z" />
<glyph unicode="r" horiz-adv-x="763" d="M225 717l5 43q3 27 3 39q0 39 -24.5 56t-89.5 34l8 61q174 31 342 88q0 -4 -6 -39l-13 -75l-14 -77q-6 -36 -6 -42h4q23 41 52.5 79t64.5 67.5t74 47t82 17.5q55 0 92 -12l-51 -189q-18 10 -43 13t-52 3q-66 0 -125 -37.5t-106 -101.5l-109 -692h-200z" />
<glyph unicode="s" horiz-adv-x="804" d="M305 -27q-78 0 -149.5 19.5t-137.5 48.5l80 143q66 -45 135.5 -64.5t135.5 -19.5q76 0 119.5 37t43.5 90q0 33 -16 61.5t-44 53.5t-62 46l-72 44q-37 20 -75 47t-68.5 59.5t-50 74.5t-19.5 96q0 63 31.5 120.5t86 100.5t124 68.5t145.5 25.5q63 0 128 -19.5t118 -46.5 l-78 -145q-45 33 -101.5 58.5t-142.5 25.5q-57 0 -94 -29.5t-37 -81.5q0 -53 35 -91t94 -79l95 -61q48 -31 87 -67.5t64 -85t25 -115.5q0 -76 -39 -134.5t-97.5 -98.5t-129.5 -60.5t-134 -20.5z" />
<glyph unicode="t" horiz-adv-x="698" d="M313 -16q-84 0 -125 48t-41 118q0 27 4 53l7 59l98 629h-129l12 74q117 35 182.5 110.5t102.5 161.5h84l-37 -238h229l-18 -108h-229l-93 -602q-4 -23 -6 -43.5t-2 -42.5q0 -88 88 -88q47 0 87 10t77 27l14 -56q-45 -41 -126 -76.5t-179 -35.5z" />
<glyph unicode="u" horiz-adv-x="1126" d="M373 -18q-123 0 -175.5 68.5t-52.5 178.5q0 23 3.5 54.5t7.5 62.5l55 352q4 16 6 43t2 39q0 39 -23.5 56.5t-91.5 33.5l11 62q182 31 346 88l-105 -658q-6 -41 -8 -64.5t-2 -43.5q0 -53 23.5 -85t83.5 -32q70 0 134 46t113 96l109 704l207 37l-119 -756l-7 -51 q-3 -23 -3 -45q0 -63 65 -64q29 0 55.5 9.5t49.5 25.5l20 -53q-41 -39 -100 -72.5t-141 -33.5q-72 0 -107 38.5t-35 106.5v27q0 18 4 34h-2q-23 -35 -57.5 -70.5t-76.5 -65.5t-90 -49t-99 -19z" />
<glyph unicode="v" horiz-adv-x="966" d="M209 762q-4 57 -19.5 94t-56.5 37q-23 0 -44 -14.5t-40 -30.5l-26 59q35 39 94 78t133 39q72 0 107.5 -53t43.5 -142l54 -632h4q96 147 156.5 251.5t95 180.5t47 131t12.5 102q0 23 -10 57.5t-27 57.5l187 49q20 -25 29 -62.5t9 -66.5q0 -111 -140 -333t-386 -570h-151z " />
<glyph unicode="w" horiz-adv-x="1472" d="M209 762q-4 59 -19.5 95t-56.5 36q-23 0 -44 -14.5t-40 -30.5l-26 59q33 39 95 78t136 39t107.5 -53t39.5 -142l43 -632h7l297 497l-23 289l195 43l49 -829h6q92 141 150.5 245.5t92 181t46 134t12.5 104.5q0 23 -10.5 57.5t-26.5 57.5l186 49q18 -25 28.5 -62.5 t10.5 -66.5q0 -111 -134 -330t-380 -567h-157l-37 522l-326 -522h-162z" />
<glyph unicode="x" horiz-adv-x="1007" d="M29 -18q-18 0 -39 2t-41 10l45 162q41 -10 69 -11q135 0 345 349l-113 297q-16 43 -41 67.5t-59 24.5q-51 0 -107 -49l-33 51q16 23 42 46t58.5 42.5t69.5 32t78 12.5q72 0 111 -36t63 -99q8 -18 20 -49l23 -65q12 -34 22.5 -67.5l18.5 -58.5q59 106 106.5 178t90.5 115 t86 60.5t96 17.5q18 0 35.5 -2t40.5 -11l-45 -159l-37 6q-14 4 -31 4q-25 0 -52.5 -9t-62 -41t-79.5 -92.5t-105 -160.5l131 -342q16 -43 41 -67.5t60 -24.5q23 0 49 11t55 38l33 -51q-16 -23 -42 -46.5t-58.5 -43t-69.5 -31.5t-78 -12q-72 0 -108.5 35.5t-65.5 99.5l-26 66 l-27 77l-27 76l-20 61q-63 -111 -114.5 -188.5t-101 -127.5t-98.5 -73.5t-108 -23.5z" />
<glyph unicode="y" horiz-adv-x="966" d="M-41 -416q-16 0 -38.5 1t-39.5 5l19 156q25 -6 50 -8t48 -2q109 2 182.5 71.5t134.5 192.5l-131 762q-4 23 -9 46t-14 41.5t-22.5 31t-34.5 12.5q-20 0 -41.5 -14.5t-42.5 -30.5l-24 59q33 39 92 78t133 39q76 0 107.5 -55.5t46.5 -139.5l104 -641h6q88 137 144.5 235.5 t88.5 173.5t43 137.5t11 127.5q0 23 -10 57.5t-27 57.5l185 49q20 -25 29 -62.5t9 -66.5q0 -80 -42 -180.5t-117.5 -225t-180.5 -276.5l-229 -334q-100 -147 -198.5 -222t-231.5 -75z" />
<glyph unicode="z" horiz-adv-x="907" d="M-33 14l666 822q-27 -2 -51.5 -3.5t-46.5 -1.5q-61 0 -111.5 8.5t-95.5 8.5q-59 0 -98.5 -23.5t-61.5 -93.5l-49 25q6 49 18.5 96t32.5 84t52 59.5t79 22.5q37 0 90 -4t110.5 -10.5t113 -10.5t92.5 -4q35 0 76.5 12.5t60.5 28.5l59 -37l-670 -829q23 2 43.5 3t42.5 1 q78 0 148 -10.5t127 -10.5q68 0 106.5 29t63.5 100l51 -26q-8 -51 -19.5 -100.5t-33 -87t-57 -61.5t-93.5 -24q-61 0 -124.5 4.5t-124 10.5t-114.5 10t-97 4q-37 0 -72 -5t-62 -28z" />
<glyph unicode="{" horiz-adv-x="663" d="M338 -397q-72 0 -126 41t-54 133q0 10 1 22.5t3 24.5l65 405q8 49 5 94.5t-21 78t-52 53t-87 20.5l12 80q104 2 160.5 70.5t72.5 173.5l66 407q8 57 32.5 99.5t57.5 69t73 38.5t81 12h151l-14 -77h-78q-72 0 -101.5 -44t-39.5 -118l-64 -402q-18 -113 -88.5 -178 t-163.5 -88v-6q86 -27 134.5 -96.5t29.5 -186.5l-63 -395q-6 -37 -6 -63q0 -45 21.5 -67.5t74.5 -22.5h82l-15 -78h-149z" />
<glyph unicode="|" horiz-adv-x="714" d="M299 1516h117v-2005h-117v2005z" />
<glyph unicode="}" horiz-adv-x="663" d="M-94 -319h82q72 0 99.5 39.5t39.5 115.5l63 397q18 117 88 185.5t166 93.5v6q-86 25 -135 92.5t-30 180.5l63 397q6 37 6 63q0 47 -21.5 72t-76.5 25h-80l14 77h150q74 0 127 -41t53 -133q0 -10 -1 -22t-3 -23l-66 -411q-8 -51 -4 -96.5t22.5 -78t52.5 -52t85 -19.5 l-12 -80q-104 -2 -160.5 -70.5t-73.5 -173.5l-65 -401q-10 -57 -34 -99t-57.5 -69t-73.5 -40t-81 -13h-149z" />
<glyph unicode="~" horiz-adv-x="1116" d="M745 369q-53 0 -106 26.5t-102 61.5q-35 25 -85.5 53.5t-93.5 28.5q-53 0 -94 -38t-63 -83l-78 51q16 33 39.5 69.5t54.5 66.5t69 49.5t85 19.5q74 0 134 -33t116 -74q31 -23 65.5 -40t77.5 -17q51 0 93 35t65 82l71 -49q-16 -35 -38.5 -72t-54.5 -67.5t-71 -50 t-84 -19.5z" />
<glyph unicode="&#xa1;" horiz-adv-x="575" d="M342 1024q57 0 97 -40t40 -97t-40 -96t-97 -39t-96 38.5t-39 96.5q0 57 39 97t96 40zM287 -281h-244l203 899h114z" />
<glyph unicode="&#xa2;" d="M481 -27q-84 4 -148.5 36t-107.5 85t-65.5 125t-22.5 156q0 125 41 237.5t111.5 198.5t163 141.5t194.5 65.5l35 215h90l-35 -213q72 -4 121 -21.5t88 -35.5l-59 -142q-31 23 -74 43.5t-96 26.5l-123 -780q70 0 130 19.5t105 45.5l21 -43q-27 -47 -103.5 -94t-173.5 -62 l-38 -243h-91zM348 414q0 -47 7 -92.5t25.5 -84t49.5 -69.5t76 -45l121 768q-125 -23 -202 -147.5t-77 -329.5z" />
<glyph unicode="&#xa3;" d="M76 59q135 66 207.5 167.5t72.5 236.5q0 35 -2 68.5t-4 52.5h-164l13 94h141q-6 37 -13.5 90t-7.5 115q0 98 35 175t96.5 129t145.5 79.5t182 27.5q72 0 136.5 -11t101.5 -21l-17 -101q-33 10 -84 20.5t-110 10.5q-135 0 -202.5 -86t-67.5 -223q0 -57 8 -109.5t14 -95.5 h299l-14 -94h-277q0 -14 1 -34t1 -40q0 -66 -22.5 -129.5t-57 -116.5t-76.5 -92t-81 -57h358q53 0 83 18.5t48 56.5l58 121h81l-47 -163q-25 -87 -39 -152q-53 2 -124.5 4t-129.5 2l-299 2h-65q-37 0 -73 -1t-66.5 -2t-46.5 -1z" />
<glyph unicode="&#xa4;" horiz-adv-x="1052" d="M102 35l156 194q-104 117 -104 271q0 74 26.5 143.5t75.5 124.5l-152 193l103 75l147 -196q82 41 172 41q51 0 96.5 -10.5t82.5 -26.5q4 6 25 35l46 62l46 64q22 30 26 35l104 -77l-153 -191q100 -117 100 -272q0 -74 -25.5 -143.5t-74.5 -127.5l153 -194l-104 -74 l-148 199q-41 -18 -83 -28.5t-91 -10.5q-98 0 -174 35q-4 -6 -26 -35l-47 -63l-48 -62q-23 -29 -26 -35zM526 250q55 0 95.5 20.5t66 55t38.5 80t13 94.5t-13 95t-38.5 81t-65.5 56.5t-96 21.5q-53 0 -94 -21.5t-67.5 -56.5t-40 -81t-13.5 -95t13.5 -94.5t40 -80t67.5 -55 t94 -20.5z" />
<glyph unicode="&#xa5;" d="M172 561h256l-166 494q-20 59 -46 96t-73 47l-41 8l11 72q39 -2 110.5 -4t134.5 -2h72l82 2q41 2 76 3t53 1l-10 -72l-70 -6q-35 -4 -58.5 -25.5t-23.5 -54.5q0 -16 3 -36.5t10 -36.5l114 -394l240 396l29.5 54t15.5 46q0 45 -47 51l-70 6l10 72q39 -2 108 -4t126 -2 q55 0 102 2t86 4l-10 -72l-53 -8q-55 -10 -98.5 -50t-90.5 -118l-292 -469h276l-14 -84h-281l-20 -139h278l-12 -86h-281v-4q-4 -23 -5 -45.5t-1 -34.5q0 -45 17.5 -62.5t46.5 -21.5l73 -12l-10 -72q-18 0 -49 1t-66.5 2t-74.5 1h-146q-39 0 -76.5 -1t-69.5 -2t-50 -1l10 72 l78 12q41 6 68.5 38t41.5 126v4h-274l14 86h275l22 139h-274z" />
<glyph unicode="&#xa6;" horiz-adv-x="708" d="M299 262h111v-774h-111v774zM299 1536h111v-754h-111v754z" />
<glyph unicode="&#xa7;" d="M342 -285q-78 0 -142.5 15.5t-111.5 36.5q2 8 4 41.5t5 73.5t6 74t3 42h82q-2 -94 46.5 -138t127.5 -44q35 0 68 13t58.5 35.5t41 55.5t15.5 72q0 72 -53.5 138.5t-118 139t-117.5 154.5t-53 184q0 98 54 177t142 135q-53 66 -53 157q0 78 33 141.5t87 107.5t127 68.5 t152 24.5q78 0 148 -16.5t104 -32.5q-2 -10 -6 -44t-7 -74t-6 -74.5t-3 -42.5h-84q2 100 -39 145t-133 45q-72 0 -125 -49t-53 -131q0 -49 24.5 -94t62.5 -90.5t82 -92.5t81.5 -99t62.5 -110.5t25 -126.5q0 -100 -55.5 -180t-143.5 -133q27 -39 43 -85t16 -93 q0 -74 -33.5 -134.5t-90 -102.5t-128 -65.5t-145.5 -23.5zM621 299q35 25 62.5 64.5t27.5 89.5q0 45 -27 95t-65.5 101t-82.5 98.5t-77 88.5q-35 -25 -60.5 -67t-25.5 -93q0 -47 26.5 -96.5t64.5 -98.5t81 -96z" />
<glyph unicode="&#xa8;" horiz-adv-x="716" d="M168 1143q-47 0 -80 31.5t-33 80.5q0 47 33 80t80 33q49 0 81 -32.5t32 -80.5q0 -49 -32 -80.5t-81 -31.5zM549 1143q-47 0 -80 31.5t-33 80.5q0 47 33 80t80 33q49 0 81 -32.5t32 -80.5q0 -49 -32 -80.5t-81 -31.5z" />
<glyph unicode="&#xa9;" horiz-adv-x="1523" d="M774 250q-88 0 -155.5 29.5t-113.5 83t-69.5 124t-23.5 154.5q0 80 27.5 150.5t79.5 122t124 81t162 29.5q66 0 117 -9t92 -26q0 -41 1 -87t5 -87h-68q-10 59 -48 95t-111 36q-106 0 -164 -85t-58 -216q0 -66 14.5 -123t42 -100t68.5 -68.5t95 -25.5q72 0 116.5 31.5 t55.5 95.5h67q-4 -41 -6 -87t-2 -83q-49 -16 -114.5 -25.5t-133.5 -9.5zM766 -29q-139 0 -262 52.5t-214 142.5t-143.5 212t-52.5 261q0 137 52.5 259t143.5 211t214 141.5t262 52.5t261 -52.5t213 -141.5t144.5 -211t53.5 -259q0 -139 -53.5 -261t-144.5 -212t-213 -142.5 t-261 -52.5zM766 66q121 0 224.5 43t178 118.5t116.5 181t42 230.5t-42 229.5t-116.5 180t-178 117.5t-224.5 42t-224.5 -42t-178 -117.5t-116.5 -180t-42 -229.5t42 -230.5t116.5 -181t178 -118.5t224.5 -43z" />
<glyph unicode="&#xaa;" horiz-adv-x="823" d="M303 541q-94 0 -142 68.5t-48 172.5q0 117 37.5 212.5t101 164t145.5 106.5t170 38q25 0 64 -4.5t63 -4.5q14 0 35 3t45 12l-86 -543q-6 -37 -6 -59q0 -25 13.5 -40.5t35.5 -15.5q31 0 62 21l20 -45q-25 -25 -71 -50.5t-111 -25.5q-51 0 -77 27.5t-26 66.5v21q0 12 4 20 h-4q-14 -25 -36.5 -50.5t-52 -47t-63.5 -34.5t-73 -13zM360 664q47 0 92.5 34.5t73.5 75.5l68 430q-23 8 -55 8q-51 0 -96.5 -34.5t-79 -94t-54 -136.5t-20.5 -159q0 -49 17 -86.5t54 -37.5z" />
<glyph unicode="&#xab;" horiz-adv-x="1048" d="M1026 858l-342 -369l221 -352l-59 -47l-363 410l492 409zM649 858l-342 -369l221 -352l-59 -47l-363 410l492 409z" />
<glyph unicode="&#xac;" d="M877 508h-791v119h913v-410h-122v291z" />
<glyph unicode="&#xad;" horiz-adv-x="737" d="M141 621h469l-18 -121h-469z" />
<glyph unicode="&#xae;" horiz-adv-x="1523" d="M766 -29q-139 0 -262 52.5t-214 142.5t-143.5 212t-52.5 261q0 137 52.5 259t143.5 211t214 141.5t262 52.5t261 -52.5t213 -141.5t144.5 -211t53.5 -259q0 -139 -53.5 -261t-144.5 -212t-213 -142.5t-261 -52.5zM766 66q121 0 224.5 43t178 118.5t116.5 181t42 230.5 t-42 229.5t-116.5 180t-178 117.5t-224.5 42t-224.5 -42t-178 -117.5t-116.5 -180t-42 -229.5t42 -230.5t116.5 -181t178 -118.5t224.5 -43zM1047 260q-45 0 -81 19.5t-63 48.5q-35 35 -75 100.5t-83 153.5h-32q-16 0 -33 2v-166q0 -45 10 -61.5t33 -20.5l53 -10v-56 q-39 2 -82 2h-162q-47 0 -86 -2v56l56 10q16 4 25.5 19.5t9.5 62.5v436q0 53 -15.5 68.5t-44.5 19.5l-31 2v64q39 -2 82 -2h125q23 0 42.5 1t37.5 1h49q111 0 183.5 -48.5t72.5 -148.5q0 -80 -43 -132t-106 -75q35 -68 66.5 -119t60.5 -86q23 -25 43 -44t59 -33v-50 q-14 -8 -32.5 -10t-38.5 -2zM739 662q66 0 105 37.5t39 107.5q0 55 -36 88t-97 33h-35q-12 0 -25 -2h-10v-260q16 -2 31.5 -3t27.5 -1z" />
<glyph unicode="&#xaf;" horiz-adv-x="716" d="M88 1276h576l-19 -121h-575z" />
<glyph unicode="&#xb0;" horiz-adv-x="702" d="M455 862q-55 0 -105.5 21.5t-87.5 58.5t-58.5 86t-21.5 105q0 55 21.5 104t58.5 87t87 59.5t106 21.5q55 0 105 -21.5t87 -59.5t58.5 -87t21.5 -104t-21.5 -104.5t-58.5 -86.5t-86 -58.5t-106 -21.5zM455 979q66 0 106.5 45t40.5 109q0 63 -41 108t-106 45 q-63 0 -104.5 -45t-41.5 -108t41.5 -108.5t104.5 -45.5z" />
<glyph unicode="&#xb1;" d="M471 459h-426v119h426v421h131v-421h424v-119h-424v-459h-131v459zM57 -94h981v-119h-981v119z" />
<glyph unicode="&#xb2;" horiz-adv-x="708" d="M104 684q49 39 117 85t129.5 96t104.5 107.5t43 119.5q0 47 -32 75.5t-87 28.5q-43 0 -80 -13.5t-82 -39.5l-10 63q41 35 107.5 66t148.5 31q98 0 152.5 -45.5t54.5 -122.5q0 -61 -31 -116.5t-82 -106t-114.5 -95.5t-131.5 -82q25 0 91.5 1t136.5 1q35 0 54 18.5t38 57.5 h65q-23 -49 -41 -99t-32 -98h-529z" />
<glyph unicode="&#xb3;" horiz-adv-x="636" d="M129 694q25 -8 55.5 -14t59.5 -6q92 0 137 40t45 101q0 47 -50 76t-147 29l13 65q98 4 149 45t51 100q0 31 -22.5 50.5t-61.5 19.5q-43 0 -77.5 -8t-69.5 -29l-8 64q35 27 91 51.5t130 24.5q92 0 140 -37t48 -95q0 -35 -13 -63.5t-34.5 -52t-48.5 -41t-53 -25.5v-4 q57 -10 97 -49t40 -92q0 -59 -28.5 -105.5t-78 -80t-117 -51t-145.5 -17.5q-35 0 -69.5 4t-63.5 14z" />
<glyph unicode="&#xb4;" horiz-adv-x="716" d="M156 1190l325 301l105 -115l-381 -246z" />
<glyph unicode="&#xb5;" horiz-adv-x="1126" d="M29 -397l45 222q25 120 41 230l102 643q4 16 6 43t2 39q0 39 -23.5 56.5t-90.5 33.5l10 62q182 31 346 88l-105 -658q-6 -41 -8 -63.5t-2 -44.5q0 -53 21.5 -85t81.5 -32q70 0 133 46t112 96l109 704l207 37l-119 -756l-7 -51q-3 -23 -3 -45q0 -70 65 -70q29 0 53.5 9.5 t49.5 25.5l22 -47q-41 -39 -100 -72.5t-141 -33.5q-72 0 -107 38.5t-35 106.5v27q0 18 4 34h-2q-23 -35 -56.5 -70.5t-75.5 -65.5t-90 -49t-99 -19q-29 0 -54.5 7t-46.5 17l-9 -101q-5 -54 -11 -107.5t-13 -103.5l-14 -91h-198z" />
<glyph unicode="&#xb6;" horiz-adv-x="1169" d="M500 418q-80 0 -146.5 24.5t-116 70.5t-77 112.5t-27.5 148.5q0 109 42 201t111.5 159.5t160 105.5t188.5 38h555l-10 -70l-76 -12q-41 -6 -68.5 -38t-42.5 -126l-223 -1429h-106l245 1575h-182l-246 -1575h-108z" />
<glyph unicode="&#xb7;" horiz-adv-x="573" d="M283 436q-59 0 -101.5 42t-42.5 102q0 61 42 101t102 40q59 0 101 -40t42 -101q0 -59 -42 -101.5t-101 -42.5z" />
<glyph unicode="&#xb8;" horiz-adv-x="716" d="M287 -424q-20 0 -49 4t-48 10l15 68q16 -8 43.5 -13t50.5 -5q53 0 91 28.5t38 73.5q0 35 -33 58.5t-104 27.5l78 184h77l-43 -104q66 -6 110 -42t44 -89q0 -92 -73.5 -146.5t-196.5 -54.5z" />
<glyph unicode="&#xb9;" horiz-adv-x="577" d="M199 1180l331 135l-84 -537q-10 -63 -3.5 -77.5t26.5 -16.5l98 -10l-10 -58q-18 0 -47 1l-59 3l-60 2q-29 1 -49 1q-23 0 -52 -1l-62 -2q-32 -1 -60.5 -2.5t-46.5 -1.5l10 58l102 10q20 2 31.5 16.5t22.5 77.5l55 344q2 25 -16 25q-6 0 -16.5 -2t-20.5 -6l-94 -25z" />
<glyph unicode="&#xba;" horiz-adv-x="800" d="M387 541q-123 0 -196.5 76.5t-73.5 207.5q0 98 29.5 184.5t85 152t131 103.5t167.5 38q123 0 196 -76t73 -205q0 -98 -30 -186t-84 -154t-130 -103.5t-168 -37.5zM416 627q47 0 85 33.5t65.5 87t42 122t14.5 140.5q0 102 -32 154.5t-87 52.5q-47 0 -86 -33t-66.5 -86.5 t-42 -122t-14.5 -137.5q0 -104 33 -157.5t88 -53.5z" />
<glyph unicode="&#xbb;" horiz-adv-x="1048" d="M33 145l342 369l-221 352l59 47l362 -409l-491 -410zM410 145l342 369l-222 352l60 47l362 -409l-491 -410z" />
<glyph unicode="&#xbc;" horiz-adv-x="1499" d="M147 1180l332 135l-84 -537q-10 -63 -4 -77.5t27 -16.5l98 -10l-10 -58q-18 0 -47 1l-60 3l-59 2q-29 1 -49 1q-23 0 -52 -1l-62 -2q-32 -1 -60.5 -2.5t-46.5 -1.5l10 58l102 10q20 2 31.5 16.5t22.5 77.5l55 344q2 25 -17 25q-6 0 -16 -2t-20 -6l-95 -25zM188 -25 l1057 1352l76 -59l-1057 -1348zM1116 137h-348l12 74l445 483h131l-72 -440h137l-35 -117h-118l-21 -137h-151zM1135 254l45 283l-265 -283h220z" />
<glyph unicode="&#xbd;" horiz-adv-x="1509" d="M147 1180l332 135l-84 -537q-10 -63 -4 -77.5t27 -16.5l98 -10l-10 -58q-18 0 -47 1l-60 3l-59 2q-29 1 -49 1q-23 0 -52 -1l-62 -2q-32 -1 -60.5 -2.5t-46.5 -1.5l10 58l102 10q20 2 31.5 16.5t22.5 77.5l55 344q2 25 -17 25q-6 0 -16 -2t-20 -6l-95 -25zM188 -25 l1057 1352l76 -59l-1057 -1348zM776 68q49 39 117 85t129 96t104 107.5t43 118.5q0 47 -31.5 76t-86.5 29q-43 0 -80 -13.5t-82 -40.5l-10 64q41 35 107.5 65.5t148.5 30.5q98 0 152 -45t54 -123q0 -61 -30.5 -116.5t-81.5 -105.5t-114.5 -95t-131.5 -82q25 0 91.5 1 t135.5 1q35 0 54.5 18.5t38.5 57.5h65q-23 -49 -41 -99.5t-33 -97.5h-528z" />
<glyph unicode="&#xbe;" horiz-adv-x="1503" d="M145 694q25 -8 55.5 -14t59.5 -6q92 0 137 40t45 101q0 47 -50 76t-146 29l12 65q98 4 149.5 45t51.5 100q0 31 -22.5 50.5t-61.5 19.5q-43 0 -78 -8t-70 -29l-8 64q35 27 91.5 51.5t129.5 24.5q92 0 140.5 -37t48.5 -95q0 -35 -13.5 -63.5t-35 -52t-48 -41t-53.5 -25.5 v-4q57 -10 97 -49t40 -92q0 -59 -28.5 -105.5t-77.5 -80t-116.5 -51t-145.5 -17.5q-35 0 -70 4t-63 14zM250 -25l1057 1352l75 -59l-1056 -1348zM1110 137h-348l12 74l445 483h131l-72 -440h137l-35 -117h-118l-21 -137h-151zM1128 254l46 283l-265 -283h219z" />
<glyph unicode="&#xbf;" horiz-adv-x="774" d="M555 608q6 -90 -18.5 -156.5t-66.5 -117.5t-91 -92t-93 -82t-73 -86t-29 -105q0 -66 43 -103.5t131 -37.5q51 0 105.5 15.5t105.5 43.5l19 -86q-25 -18 -57.5 -36.5t-72.5 -35t-86 -26.5t-98 -10q-154 0 -233.5 65.5t-79.5 175.5q0 86 36 144.5t90 104.5t116.5 86t118 86 t92.5 106.5t39 146.5h102zM526 1016q57 0 97.5 -41t40.5 -96q0 -57 -40 -97.5t-98 -40.5q-57 0 -96 40t-39 98q0 55 39 96t96 41z" />
<glyph unicode="&#xc0;" horiz-adv-x="1310" d="M-66 72l58 10q53 10 87 53t71 113l550 1036l170 23l207 -1057q16 -90 40 -125t65 -45l45 -8l-10 -72q-41 2 -104.5 4t-125.5 2q-33 0 -76 -1l-85 -2q-42 -1 -78.5 -2t-55.5 -1l13 72l83 10q35 4 55.5 28.5t20.5 59.5q0 10 -1 25.5t-3 27.5l-45 250h-420l-123 -244 q-14 -29 -24 -53t-10 -49q0 -16 8 -29.5t28 -17.5l84 -8l-10 -72q-39 2 -106.5 4t-122.5 2t-105.5 -2t-89.5 -4zM799 571l-88 519l-265 -519h353zM559 1612l115 108l258 -305l-55 -55z" />
<glyph unicode="&#xc1;" horiz-adv-x="1310" d="M-66 72l58 10q53 10 87 53t71 113l550 1036l170 23l207 -1057q16 -90 40 -125t65 -45l45 -8l-10 -72q-41 2 -104.5 4t-125.5 2q-33 0 -76 -1l-85 -2q-42 -1 -78.5 -2t-55.5 -1l13 72l83 10q35 4 55.5 28.5t20.5 59.5q0 10 -1 25.5t-3 27.5l-45 250h-420l-123 -244 q-14 -29 -24 -53t-10 -49q0 -16 8 -29.5t28 -17.5l84 -8l-10 -72q-39 2 -106.5 4t-122.5 2t-105.5 -2t-89.5 -4zM799 571l-88 519l-265 -519h353zM649 1419l326 301l104 -114l-381 -246z" />
<glyph unicode="&#xc2;" horiz-adv-x="1310" d="M-66 72l58 10q53 10 87 53t71 113l550 1036l170 23l207 -1057q16 -90 40 -125t65 -45l45 -8l-10 -72q-41 2 -104.5 4t-125.5 2q-33 0 -76 -1l-85 -2q-42 -1 -78.5 -2t-55.5 -1l13 72l83 10q35 4 55.5 28.5t20.5 59.5q0 10 -1 25.5t-3 27.5l-45 250h-420l-123 -244 q-14 -29 -24 -53t-10 -49q0 -16 8 -29.5t28 -17.5l84 -8l-10 -72q-39 2 -106.5 4t-122.5 2t-105.5 -2t-89.5 -4zM799 571l-88 519l-265 -519h353zM492 1415l350 299l250 -299l-64 -55l-215 188l-274 -188z" />
<glyph unicode="&#xc3;" horiz-adv-x="1310" d="M-66 72l58 10q53 10 87 53t71 113l550 1036l170 23l207 -1057q16 -90 40 -125t65 -45l45 -8l-10 -72q-41 2 -104.5 4t-125.5 2q-33 0 -76 -1l-85 -2q-42 -1 -78.5 -2t-55.5 -1l13 72l83 10q35 4 55.5 28.5t20.5 59.5q0 10 -1 25.5t-3 27.5l-45 250h-420l-123 -244 q-14 -29 -24 -53t-10 -49q0 -16 8 -29.5t28 -17.5l84 -8l-10 -72q-39 2 -106.5 4t-122.5 2t-105.5 -2t-89.5 -4zM799 571l-88 519l-265 -519h353zM944 1399q-45 0 -83 16.5t-73 34.5l-60 32q-30 15 -69 15q-41 0 -75.5 -23.5t-57.5 -58.5l-57 37q14 29 34.5 59.5t48.5 57 t60.5 43t69.5 16.5q45 0 83 -16.5t73 -34.5q33 -18 63.5 -32.5t65.5 -14.5q43 0 77.5 25.5t57.5 60.5l57 -39q-12 -29 -33.5 -60.5t-49 -58t-61.5 -43t-71 -16.5z" />
<glyph unicode="&#xc4;" horiz-adv-x="1310" d="M-66 72l58 10q53 10 87 53t71 113l550 1036l170 23l207 -1057q16 -90 40 -125t65 -45l45 -8l-10 -72q-41 2 -104.5 4t-125.5 2q-33 0 -76 -1l-85 -2q-42 -1 -78.5 -2t-55.5 -1l13 72l83 10q35 4 55.5 28.5t20.5 59.5q0 10 -1 25.5t-3 27.5l-45 250h-420l-123 -244 q-14 -29 -24 -53t-10 -49q0 -16 8 -29.5t28 -17.5l84 -8l-10 -72q-39 2 -106.5 4t-122.5 2t-105.5 -2t-89.5 -4zM799 571l-88 519l-265 -519h353zM625 1405q-47 0 -80 31.5t-33 81.5q0 47 33 79.5t80 32.5q49 0 80.5 -32.5t31.5 -79.5q0 -49 -31.5 -81t-80.5 -32zM1006 1405 q-47 0 -80 31.5t-33 81.5q0 47 32.5 79.5t80.5 32.5q49 0 80.5 -32.5t31.5 -79.5q0 -49 -31.5 -81t-80.5 -32z" />
<glyph unicode="&#xc5;" horiz-adv-x="1310" d="M-66 72l58 10q53 10 87 53t71 113l550 1036l170 23l207 -1057q16 -90 40 -125t65 -45l45 -8l-10 -72q-41 2 -104.5 4t-125.5 2q-33 0 -76 -1l-85 -2q-42 -1 -78.5 -2t-55.5 -1l13 72l83 10q35 4 55.5 28.5t20.5 59.5q0 10 -1 25.5t-3 27.5l-45 250h-420l-123 -244 q-14 -29 -24 -53t-10 -49q0 -16 8 -29.5t28 -17.5l84 -8l-10 -72q-39 2 -106.5 4t-122.5 2t-105.5 -2t-89.5 -4zM799 571l-88 519l-265 -519h353zM809 1364q-35 0 -66.5 13.5t-56 37t-40 55t-15.5 68.5q0 76 54 126t124 50t124 -50t54 -126q0 -37 -15.5 -68.5t-40 -55 t-56 -37t-66.5 -13.5zM809 1440q41 0 65.5 28.5t24.5 69.5q0 43 -24.5 71.5t-65.5 28.5t-65.5 -28.5t-24.5 -71.5q0 -41 24.5 -69.5t65.5 -28.5z" />
<glyph unicode="&#xc6;" horiz-adv-x="1769" d="M1583 -6q-29 2 -69 3l-81 2l-81 2q-39 1 -64 1h-106q-41 0 -88 1t-90 1h-173q-37 0 -72.5 -1t-67.5 -2t-46 -1l10 72l74 12q20 2 37.5 10t31 26.5t25 49.5t17.5 78l32 225h-378l-170 -244q-18 -29 -30.5 -51t-12.5 -47q0 -16 13 -31.5t36 -19.5l51 -8l-10 -72 q-18 0 -49 1l-65 2l-69 2q-35 1 -63 1q-53 0 -107.5 -2t-93.5 -4l10 72l48 10q59 12 109 57t97 109l615 854q10 14 17 28.5t7 24.5q0 37 -41 43l-57 8l10 72q25 0 58 -1l66 -2q34 -1 65 -1h57q147 0 266 1t201 1h92q51 0 97.5 1t81 2t42.5 3q-10 -70 -20 -148.5t-16 -138.5 h-80l-7 95q-2 37 -22.5 58t-73.5 21l-350 2l-72 -460h254q53 0 70.5 13t28.5 42l30 90h74l-18 -88l-19 -104q-4 -20 -8 -48l-6 -53q-2 -27 -5 -52l-5 -44h-72l-4 82q-2 29 -15.5 45t-66.5 16h-254l-64 -401q-4 -25 -2 -44.5t15.5 -32.5t42 -19.5t80.5 -6.5h217 q55 0 84.5 19.5t48.5 60.5l53 117h84l-26 -86q-13 -45 -24 -87l-21 -79q-9 -37 -13 -57zM889 571l90 584h-14l-404 -584h328z" />
<glyph unicode="&#xc7;" horiz-adv-x="1234" d="M453 -424q-20 0 -49 4t-48 10l15 68q16 -8 43.5 -13t50.5 -5q53 0 91 28.5t38 73.5q0 35 -33 58.5t-104 27.5l63 152q-109 14 -190.5 59t-139 113.5t-86 156.5t-28.5 191q0 168 57 315.5t159.5 255t243 170t306.5 62.5q104 0 198.5 -18.5t165.5 -41.5q-12 -78 -19 -137 t-13 -137h-91q-2 111 -65.5 171t-202.5 60q-115 0 -208 -52t-159.5 -145.5t-103.5 -220.5t-37 -274q0 -92 23.5 -171t68.5 -136.5t109.5 -90t148.5 -32.5q147 0 223 58.5t109 168.5h90q-18 -86 -31 -154l-24 -126q-72 -18 -172 -35t-231 -17h-25l-27 -65q66 -6 110 -42 t44 -89q0 -92 -73.5 -146.5t-196.5 -54.5z" />
<glyph unicode="&#xc8;" horiz-adv-x="1134" d="M946 -6q-29 2 -81 3t-112.5 3t-119 3t-96.5 1h-342q-37 0 -73 -1t-67.5 -2t-48.5 -1l10 72l74 12q20 2 37.5 10t31 26.5t24 49.5t18.5 78l121 782q4 23 6 40t2 34q0 47 -17.5 65.5t-48.5 24.5l-71 12l10 72q16 0 47 -1t67.5 -2t73.5 -1h168q55 0 111.5 1t107.5 1h96 q43 0 85 1t78 2t60.5 2t30.5 3l-21 -149q-11 -80 -15 -140h-82l-4 95q-2 37 -23.5 58t-75.5 21l-350 2l-70 -460h252q53 0 70.5 13t28.5 42l32 90h82q-10 -43 -19 -93l-18 -99q-8 -41 -14 -99l-10 -98h-80l-6 82q-2 29 -15.5 45t-66.5 16h-252l-59 -372q-6 -41 -6 -62 q0 -35 27.5 -52.5t111.5 -17.5h215q55 0 83.5 19.5t47.5 60.5l55 117h82l-26 -86q-13 -45 -24 -87t-19.5 -79t-12.5 -57zM459 1612l114 108l258 -305l-55 -55z" />
<glyph unicode="&#xc9;" horiz-adv-x="1134" d="M946 -6q-29 2 -81 3t-112.5 3t-119 3t-96.5 1h-342q-37 0 -73 -1t-67.5 -2t-48.5 -1l10 72l74 12q20 2 37.5 10t31 26.5t24 49.5t18.5 78l121 782q4 23 6 40t2 34q0 47 -17.5 65.5t-48.5 24.5l-71 12l10 72q16 0 47 -1t67.5 -2t73.5 -1h168q55 0 111.5 1t107.5 1h96 q43 0 85 1t78 2t60.5 2t30.5 3l-21 -149q-11 -80 -15 -140h-82l-4 95q-2 37 -23.5 58t-75.5 21l-350 2l-70 -460h252q53 0 70.5 13t28.5 42l32 90h82q-10 -43 -19 -93l-18 -99q-8 -41 -14 -99l-10 -98h-80l-6 82q-2 29 -15.5 45t-66.5 16h-252l-59 -372q-6 -41 -6 -62 q0 -35 27.5 -52.5t111.5 -17.5h215q55 0 83.5 19.5t47.5 60.5l55 117h82l-26 -86q-13 -45 -24 -87t-19.5 -79t-12.5 -57zM549 1419l325 301l105 -114l-381 -246z" />
<glyph unicode="&#xca;" horiz-adv-x="1134" d="M946 -6q-29 2 -81 3t-112.5 3t-119 3t-96.5 1h-342q-37 0 -73 -1t-67.5 -2t-48.5 -1l10 72l74 12q20 2 37.5 10t31 26.5t24 49.5t18.5 78l121 782q4 23 6 40t2 34q0 47 -17.5 65.5t-48.5 24.5l-71 12l10 72q16 0 47 -1t67.5 -2t73.5 -1h168q55 0 111.5 1t107.5 1h96 q43 0 85 1t78 2t60.5 2t30.5 3l-21 -149q-11 -80 -15 -140h-82l-4 95q-2 37 -23.5 58t-75.5 21l-350 2l-70 -460h252q53 0 70.5 13t28.5 42l32 90h82q-10 -43 -19 -93l-18 -99q-8 -41 -14 -99l-10 -98h-80l-6 82q-2 29 -15.5 45t-66.5 16h-252l-59 -372q-6 -41 -6 -62 q0 -35 27.5 -52.5t111.5 -17.5h215q55 0 83.5 19.5t47.5 60.5l55 117h82l-26 -86q-13 -45 -24 -87t-19.5 -79t-12.5 -57zM391 1415l350 299l250 -299l-63 -55l-215 188l-275 -188z" />
<glyph unicode="&#xcb;" horiz-adv-x="1134" d="M946 -6q-29 2 -81 3t-112.5 3t-119 3t-96.5 1h-342q-37 0 -73 -1t-67.5 -2t-48.5 -1l10 72l74 12q20 2 37.5 10t31 26.5t24 49.5t18.5 78l121 782q4 23 6 40t2 34q0 47 -17.5 65.5t-48.5 24.5l-71 12l10 72q16 0 47 -1t67.5 -2t73.5 -1h168q55 0 111.5 1t107.5 1h96 q43 0 85 1t78 2t60.5 2t30.5 3l-21 -149q-11 -80 -15 -140h-82l-4 95q-2 37 -23.5 58t-75.5 21l-350 2l-70 -460h252q53 0 70.5 13t28.5 42l32 90h82q-10 -43 -19 -93l-18 -99q-8 -41 -14 -99l-10 -98h-80l-6 82q-2 29 -15.5 45t-66.5 16h-252l-59 -372q-6 -41 -6 -62 q0 -35 27.5 -52.5t111.5 -17.5h215q55 0 83.5 19.5t47.5 60.5l55 117h82l-26 -86q-13 -45 -24 -87t-19.5 -79t-12.5 -57zM524 1405q-47 0 -79.5 31.5t-32.5 81.5q0 47 32.5 79.5t79.5 32.5q49 0 81 -32.5t32 -79.5q0 -49 -32 -81t-81 -32zM905 1405q-47 0 -79.5 31.5 t-32.5 81.5q0 47 32.5 79.5t79.5 32.5q49 0 81 -32.5t32 -79.5q0 -49 -32 -81t-81 -32z" />
<glyph unicode="&#xcc;" horiz-adv-x="690" d="M10 72l78 12q43 6 69.5 37t41.5 117l125 792q6 43 6 72q0 47 -17.5 66.5t-48.5 25.5l-71 12l10 72q18 0 50 -1t69.5 -2t76.5 -1h144q39 0 74.5 1t66.5 2t49 1l-10 -72l-78 -12q-45 -6 -70.5 -37t-39.5 -117l-123 -792q-6 -43 -6 -72q0 -47 17 -67.5t46 -24.5l72 -12 l-11 -72q-18 0 -49.5 1t-67.5 2t-75 1h-145q-37 0 -74 -1t-69 -2t-50 -1zM248 1612l114 108l259 -305l-56 -55z" />
<glyph unicode="&#xcd;" horiz-adv-x="690" d="M10 72l78 12q43 6 69.5 37t41.5 117l125 792q6 43 6 72q0 47 -17.5 66.5t-48.5 25.5l-71 12l10 72q18 0 50 -1t69.5 -2t76.5 -1h144q39 0 74.5 1t66.5 2t49 1l-10 -72l-78 -12q-45 -6 -70.5 -37t-39.5 -117l-123 -792q-6 -43 -6 -72q0 -47 17 -67.5t46 -24.5l72 -12 l-11 -72q-18 0 -49.5 1t-67.5 2t-75 1h-145q-37 0 -74 -1t-69 -2t-50 -1zM338 1419l326 301l104 -114l-381 -246z" />
<glyph unicode="&#xce;" horiz-adv-x="690" d="M10 72l78 12q43 6 69.5 37t41.5 117l125 792q6 43 6 72q0 47 -17.5 66.5t-48.5 25.5l-71 12l10 72q18 0 50 -1t69.5 -2t76.5 -1h144q39 0 74.5 1t66.5 2t49 1l-10 -72l-78 -12q-45 -6 -70.5 -37t-39.5 -117l-123 -792q-6 -43 -6 -72q0 -47 17 -67.5t46 -24.5l72 -12 l-11 -72q-18 0 -49.5 1t-67.5 2t-75 1h-145q-37 0 -74 -1t-69 -2t-50 -1zM180 1415l350 299l250 -299l-63 -55l-215 188l-275 -188z" />
<glyph unicode="&#xcf;" horiz-adv-x="690" d="M10 72l78 12q43 6 69.5 37t41.5 117l125 792q6 43 6 72q0 47 -17.5 66.5t-48.5 25.5l-71 12l10 72q18 0 50 -1t69.5 -2t76.5 -1h144q39 0 74.5 1t66.5 2t49 1l-10 -72l-78 -12q-45 -6 -70.5 -37t-39.5 -117l-123 -792q-6 -43 -6 -72q0 -47 17 -67.5t46 -24.5l72 -12 l-11 -72q-18 0 -49.5 1t-67.5 2t-75 1h-145q-37 0 -74 -1t-69 -2t-50 -1zM313 1405q-47 0 -79.5 31.5t-32.5 81.5q0 47 32.5 79.5t79.5 32.5q49 0 81 -32.5t32 -79.5q0 -49 -32 -81t-81 -32zM694 1405q-47 0 -79.5 31.5t-32.5 81.5q0 47 32.5 79.5t79.5 32.5q49 0 81 -32.5 t32 -79.5q0 -49 -32 -81t-81 -32z" />
<glyph unicode="&#xd0;" horiz-adv-x="1396" d="M131 700h166l51 318q4 23 6 43t2 37q0 86 -73 98l-64 8l12 72q39 -2 107 -3t129 -1q70 2 141.5 5t157.5 3q135 0 238.5 -38t174 -107.5t106.5 -168t36 -221.5q0 -170 -61.5 -308t-170 -236.5t-255 -151.5t-316.5 -53q-84 0 -137 4t-113 4h-61q-33 0 -67 -1t-63.5 -2 t-47.5 -1l12 72l74 12q41 6 67.5 37t42.5 127l58 356h-168zM578 100q117 0 212 48.5t162.5 134.5t104.5 202.5t37 253.5q0 98 -26 179t-75 137.5t-119.5 88.5t-162.5 32h-58q-33 0 -69 -5l-74 -471h176l-16 -96h-176l-56 -354q-4 -18 -5 -36.5t-1 -31.5q0 -43 34 -62.5 t112 -19.5z" />
<glyph unicode="&#xd1;" horiz-adv-x="1472" d="M10 72l80 12q43 6 69.5 42t41.5 128l123 776q6 43 6 76q0 47 -17.5 65.5t-52.5 24.5l-67 10l10 72q39 -2 73 -2h156q29 0 74 2l594 -967l112 713q4 23 6.5 42t2.5 32q0 47 -16.5 69.5t-51.5 26.5l-74 12l11 72q39 -2 97 -3t128 -1q68 0 116 1t87 3l-11 -72l-73 -12 q-51 -10 -74 -45t-37 -125l-162 -1036h-106l-625 1018l-119 -752q-6 -43 -6 -74q0 -51 17.5 -71.5t48.5 -24.5l71 -12l-10 -72q-39 2 -95 3t-122 1q-72 0 -124 -1t-93 -3zM1018 1399q-45 0 -83 16.5t-73 34.5l-60 32q-30 15 -69 15q-41 0 -75.5 -23.5t-57.5 -58.5l-57 37 q14 29 34.5 59.5t48 57t60.5 43t70 16.5q45 0 83 -16.5t72 -34.5q33 -18 64 -32.5t65 -14.5q43 0 78 25.5t58 60.5l57 -39q-12 -29 -33.5 -60.5t-49.5 -58t-61.5 -43t-70.5 -16.5z" />
<glyph unicode="&#xd2;" horiz-adv-x="1370" d="M588 -27q-127 0 -223.5 40t-161 111t-96 167t-31.5 211q0 154 51 297t144.5 255.5t225.5 180.5t294 68q129 0 225 -39t160.5 -110t96.5 -167t32 -211q0 -154 -51.5 -298t-145.5 -256.5t-226 -180.5t-294 -68zM616 78q113 0 200 66.5t144.5 170t87 230.5t29.5 248 q0 88 -19.5 162.5t-57 129t-96 85t-138.5 30.5q-111 0 -197 -64.5t-144 -166t-89 -227.5t-31 -248q0 -90 18.5 -167t57.5 -132.5t97 -86t138 -30.5zM569 1612l115 108l258 -305l-55 -55z" />
<glyph unicode="&#xd3;" horiz-adv-x="1370" d="M588 -27q-127 0 -223.5 40t-161 111t-96 167t-31.5 211q0 154 51 297t144.5 255.5t225.5 180.5t294 68q129 0 225 -39t160.5 -110t96.5 -167t32 -211q0 -154 -51.5 -298t-145.5 -256.5t-226 -180.5t-294 -68zM616 78q113 0 200 66.5t144.5 170t87 230.5t29.5 248 q0 88 -19.5 162.5t-57 129t-96 85t-138.5 30.5q-111 0 -197 -64.5t-144 -166t-89 -227.5t-31 -248q0 -90 18.5 -167t57.5 -132.5t97 -86t138 -30.5zM659 1419l326 301l105 -114l-381 -246z" />
<glyph unicode="&#xd4;" horiz-adv-x="1370" d="M588 -27q-127 0 -223.5 40t-161 111t-96 167t-31.5 211q0 154 51 297t144.5 255.5t225.5 180.5t294 68q129 0 225 -39t160.5 -110t96.5 -167t32 -211q0 -154 -51.5 -298t-145.5 -256.5t-226 -180.5t-294 -68zM616 78q113 0 200 66.5t144.5 170t87 230.5t29.5 248 q0 88 -19.5 162.5t-57 129t-96 85t-138.5 30.5q-111 0 -197 -64.5t-144 -166t-89 -227.5t-31 -248q0 -90 18.5 -167t57.5 -132.5t97 -86t138 -30.5zM502 1415l350 299l250 -299l-64 -55l-215 188l-274 -188z" />
<glyph unicode="&#xd5;" horiz-adv-x="1370" d="M588 -27q-127 0 -223.5 40t-161 111t-96 167t-31.5 211q0 154 51 297t144.5 255.5t225.5 180.5t294 68q129 0 225 -39t160.5 -110t96.5 -167t32 -211q0 -154 -51.5 -298t-145.5 -256.5t-226 -180.5t-294 -68zM616 78q113 0 200 66.5t144.5 170t87 230.5t29.5 248 q0 88 -19.5 162.5t-57 129t-96 85t-138.5 30.5q-111 0 -197 -64.5t-144 -166t-89 -227.5t-31 -248q0 -90 18.5 -167t57.5 -132.5t97 -86t138 -30.5zM954 1399q-45 0 -82.5 16.5t-72.5 34.5l-61 32q-30 15 -68 15q-41 0 -76 -23.5t-57 -58.5l-58 37q14 29 35 59.5t48.5 57 t60 43t69.5 16.5q45 0 83 -16.5t73 -34.5q33 -18 63.5 -32.5t65.5 -14.5q43 0 78 25.5t57 60.5l57 -39q-12 -29 -33.5 -60.5t-49 -58t-61.5 -43t-71 -16.5z" />
<glyph unicode="&#xd6;" horiz-adv-x="1370" d="M588 -27q-127 0 -223.5 40t-161 111t-96 167t-31.5 211q0 154 51 297t144.5 255.5t225.5 180.5t294 68q129 0 225 -39t160.5 -110t96.5 -167t32 -211q0 -154 -51.5 -298t-145.5 -256.5t-226 -180.5t-294 -68zM616 78q113 0 200 66.5t144.5 170t87 230.5t29.5 248 q0 88 -19.5 162.5t-57 129t-96 85t-138.5 30.5q-111 0 -197 -64.5t-144 -166t-89 -227.5t-31 -248q0 -90 18.5 -167t57.5 -132.5t97 -86t138 -30.5zM635 1405q-47 0 -80 31.5t-33 81.5q0 47 33 79.5t80 32.5q49 0 81 -32.5t32 -79.5q0 -49 -32 -81t-81 -32zM1016 1405 q-47 0 -80 31.5t-33 81.5q0 47 33 79.5t80 32.5q49 0 80.5 -32.5t31.5 -79.5q0 -49 -31.5 -81t-80.5 -32z" />
<glyph unicode="&#xd7;" d="M102 143l355 357l-353 362l89 86l350 -358l354 358l80 -80l-354 -360l358 -361l-90 -90l-356 363l-349 -363z" />
<glyph unicode="&#xd8;" horiz-adv-x="1370" d="M129 -63l113 149q-84 72 -125 178.5t-41 237.5q0 154 51 297t144.5 255.5t225.5 180.5t294 68q96 0 173.5 -23t137.5 -63l133 176l72 -50l-140 -182q68 -72 103 -170t35 -215q0 -154 -51.5 -298t-145.5 -256.5t-226 -180.5t-294 -68q-82 0 -150.5 17.5t-124.5 46.5 l-114 -150zM305 494q0 -156 51 -258l643 847q-39 55 -97 86t-136 31q-111 0 -197 -64.5t-144 -166t-89 -227t-31 -248.5zM616 78q113 0 200 66.5t144.5 170t87 230.5t29.5 248q0 57 -8 109t-25 97l-636 -837q77 -84 208 -84z" />
<glyph unicode="&#xd9;" horiz-adv-x="1425" d="M645 -20q-98 0 -179 29.5t-138.5 80.5t-89 121t-31.5 149q0 16 2 43t6 48l92 579q6 45 6 76q-2 47 -18 64.5t-47 23.5l-62 12l11 72q39 -2 113.5 -3t144.5 -1h71q41 0 78 1t69 2t50 1l-10 -72l-86 -12q-43 -6 -70 -38t-41 -126l-92 -590q-6 -41 -6 -73q0 -133 78.5 -202 t214.5 -69q160 0 252 88t118 254l93 586q4 23 6 41t2 35q0 47 -17.5 67.5t-48.5 26.5l-76 12l11 72q39 -2 96 -3t127 -1q66 0 114 1t87 3l-11 -72l-69 -12q-47 -8 -71 -43t-40 -127l-94 -600q-33 -209 -175.5 -326.5t-369.5 -117.5zM651 1612l115 108l258 -305l-55 -55z" />
<glyph unicode="&#xda;" horiz-adv-x="1425" d="M645 -20q-98 0 -179 29.5t-138.5 80.5t-89 121t-31.5 149q0 16 2 43t6 48l92 579q6 45 6 76q-2 47 -18 64.5t-47 23.5l-62 12l11 72q39 -2 113.5 -3t144.5 -1h71q41 0 78 1t69 2t50 1l-10 -72l-86 -12q-43 -6 -70 -38t-41 -126l-92 -590q-6 -41 -6 -73q0 -133 78.5 -202 t214.5 -69q160 0 252 88t118 254l93 586q4 23 6 41t2 35q0 47 -17.5 67.5t-48.5 26.5l-76 12l11 72q39 -2 96 -3t127 -1q66 0 114 1t87 3l-11 -72l-69 -12q-47 -8 -71 -43t-40 -127l-94 -600q-33 -209 -175.5 -326.5t-369.5 -117.5zM743 1419l326 301l105 -114l-381 -246z " />
<glyph unicode="&#xdb;" horiz-adv-x="1425" d="M645 -20q-98 0 -179 29.5t-138.5 80.5t-89 121t-31.5 149q0 16 2 43t6 48l92 579q6 45 6 76q-2 47 -18 64.5t-47 23.5l-62 12l11 72q39 -2 113.5 -3t144.5 -1h71q41 0 78 1t69 2t50 1l-10 -72l-86 -12q-43 -6 -70 -38t-41 -126l-92 -590q-6 -41 -6 -73q0 -133 78.5 -202 t214.5 -69q160 0 252 88t118 254l93 586q4 23 6 41t2 35q0 47 -17.5 67.5t-48.5 26.5l-76 12l11 72q39 -2 96 -3t127 -1q66 0 114 1t87 3l-11 -72l-69 -12q-47 -8 -71 -43t-40 -127l-94 -600q-33 -209 -175.5 -326.5t-369.5 -117.5zM586 1415l350 299l250 -299l-64 -55 l-215 188l-274 -188z" />
<glyph unicode="&#xdc;" horiz-adv-x="1425" d="M645 -20q-98 0 -179 29.5t-138.5 80.5t-89 121t-31.5 149q0 16 2 43t6 48l92 579q6 45 6 76q-2 47 -18 64.5t-47 23.5l-62 12l11 72q39 -2 113.5 -3t144.5 -1h71q41 0 78 1t69 2t50 1l-10 -72l-86 -12q-43 -6 -70 -38t-41 -126l-92 -590q-6 -41 -6 -73q0 -133 78.5 -202 t214.5 -69q160 0 252 88t118 254l93 586q4 23 6 41t2 35q0 47 -17.5 67.5t-48.5 26.5l-76 12l11 72q39 -2 96 -3t127 -1q66 0 114 1t87 3l-11 -72l-69 -12q-47 -8 -71 -43t-40 -127l-94 -600q-33 -209 -175.5 -326.5t-369.5 -117.5zM717 1405q-47 0 -80 31.5t-33 81.5 q0 47 33 79.5t80 32.5q49 0 80.5 -32.5t31.5 -79.5q0 -49 -31.5 -81t-80.5 -32zM1098 1405q-47 0 -80 31.5t-33 81.5q0 47 33 79.5t80 32.5q49 0 80.5 -32.5t31.5 -79.5q0 -49 -31.5 -81t-80.5 -32z" />
<glyph unicode="&#xdd;" horiz-adv-x="1245" d="M285 72l77 12q41 6 69 38t42 126l43 278l-248 547q-20 43 -42.5 79t-67.5 46l-41 8l10 72q39 -2 109.5 -4t134.5 -2h73l84 2q43 2 79 3t55 1l-11 -72l-80 -8q-35 -4 -56 -25.5t-21 -54.5q0 -16 7 -36l13 -35l172 -402l295 404l37 53q18 27 18 49q0 16 -10 29.5t-35 17.5 l-82 8l11 72q39 -2 109.5 -4t127.5 -2q53 0 100.5 2t85.5 4l-10 -72l-51 -8q-53 -10 -92 -50t-96 -118l-363 -479l-47 -303q-4 -23 -5 -45.5t-1 -34.5q0 -45 17.5 -62.5t45.5 -21.5l74 -12l-10 -72q-18 0 -49 1t-67 2t-75 1h-145q-39 0 -76 -1t-68.5 -2t-50.5 -1zM635 1419 l326 301l104 -114l-381 -246z" />
<glyph unicode="&#xde;" horiz-adv-x="1116" d="M14 72l76 12q20 2 37.5 10t31 26.5t24 49.5t18.5 78l125 782q6 43 6 72q0 51 -17.5 68.5t-48.5 23.5l-69 12l10 72h364l-41 -268q59 4 105 4h88q172 0 272.5 -80t100.5 -229q0 -98 -41 -176t-111 -133.5t-164 -85t-198 -29.5h-86q-43 0 -78 2q-8 -47 -10 -71t-2 -40 q0 -47 17 -65.5t46 -22.5l94 -12l-10 -72q-18 0 -52 1t-74 2t-81 1h-147q-39 0 -76 -1t-68.5 -2t-50.5 -1zM571 385q135 0 218 78t83 227q0 100 -55 159.5t-160 59.5q-35 0 -69.5 -1t-73.5 -5l-80 -512q31 -4 63.5 -5t73.5 -1z" />
<glyph unicode="&#xdf;" horiz-adv-x="1130" d="M-127 -416q-53 0 -102 15l39 135q25 -10 57.5 -14.5t56.5 -4.5q76 0 115 42t55 141l174 1124q12 84 54.5 162t108 136t150.5 93t183 35q166 0 250 -66.5t84 -171.5q0 -55 -18.5 -100t-49.5 -82t-68.5 -67.5t-76.5 -55.5q-57 -39 -97 -72.5t-40 -80.5q0 -25 14 -45.5 t38.5 -40t54.5 -38.5l60 -40q33 -25 65 -52.5t56.5 -60.5t40 -68.5t15.5 -76.5q0 -84 -38 -149.5t-102.5 -109.5t-147.5 -67.5t-173 -23.5q-47 0 -103.5 11t-97.5 23l64 146q55 -31 114.5 -48.5t112.5 -17.5q86 0 135 40t49 118q0 66 -46 113t-103 86l-68 49 q-33 25 -58.5 52.5t-42 60t-16.5 73.5q0 45 17.5 81t44 66.5t58.5 56.5l63 48q59 43 97 98.5t38 141.5q0 70 -44 111.5t-122 41.5q-100 0 -161.5 -69.5t-78.5 -178.5l-164 -1034q-14 -90 -48.5 -174t-91 -148.5t-133.5 -103.5t-173 -39z" />
<glyph unicode="&#xe0;" horiz-adv-x="1077" d="M324 -29q-123 0 -189.5 92.5t-66.5 233.5q0 166 53 298t140 224t198.5 142.5t230.5 50.5q43 0 90 -6.5t82 -6.5q23 0 52.5 3.5t50.5 9.5l-115 -729q-4 -23 -6 -49.5t-2 -49.5q0 -76 65 -75q29 0 54.5 10t48.5 24l20 -55q-33 -35 -96.5 -69.5t-149.5 -34.5 q-76 0 -105.5 37.5t-29.5 103.5q0 10 2 27.5t6 33.5h-4q-23 -41 -56.5 -78.5t-76.5 -68.5t-92 -49.5t-104 -18.5zM403 123q78 0 142.5 50t105.5 114l92 596q-18 12 -40.5 16t-51.5 4q-76 0 -143.5 -48t-118.5 -129t-80.5 -189.5t-29.5 -231.5q0 -76 32.5 -129t91.5 -53z M393 1368l115 109l258 -306l-55 -55z" />
<glyph unicode="&#xe1;" horiz-adv-x="1077" d="M324 -29q-123 0 -189.5 92.5t-66.5 233.5q0 166 53 298t140 224t198.5 142.5t230.5 50.5q43 0 90 -6.5t82 -6.5q23 0 52.5 3.5t50.5 9.5l-115 -729q-4 -23 -6 -49.5t-2 -49.5q0 -76 65 -75q29 0 54.5 10t48.5 24l20 -55q-33 -35 -96.5 -69.5t-149.5 -34.5 q-76 0 -105.5 37.5t-29.5 103.5q0 10 2 27.5t6 33.5h-4q-23 -41 -56.5 -78.5t-76.5 -68.5t-92 -49.5t-104 -18.5zM403 123q78 0 142.5 50t105.5 114l92 596q-18 12 -40.5 16t-51.5 4q-76 0 -143.5 -48t-118.5 -129t-80.5 -189.5t-29.5 -231.5q0 -76 32.5 -129t91.5 -53z M483 1176l326 301l104 -115l-381 -246z" />
<glyph unicode="&#xe2;" horiz-adv-x="1077" d="M324 -29q-123 0 -189.5 92.5t-66.5 233.5q0 166 53 298t140 224t198.5 142.5t230.5 50.5q43 0 90 -6.5t82 -6.5q23 0 52.5 3.5t50.5 9.5l-115 -729q-4 -23 -6 -49.5t-2 -49.5q0 -76 65 -75q29 0 54.5 10t48.5 24l20 -55q-33 -35 -96.5 -69.5t-149.5 -34.5 q-76 0 -105.5 37.5t-29.5 103.5q0 10 2 27.5t6 33.5h-4q-23 -41 -56.5 -78.5t-76.5 -68.5t-92 -49.5t-104 -18.5zM403 123q78 0 142.5 50t105.5 114l92 596q-18 12 -40.5 16t-51.5 4q-76 0 -143.5 -48t-118.5 -129t-80.5 -189.5t-29.5 -231.5q0 -76 32.5 -129t91.5 -53z M326 1171l350 299l250 -299l-64 -55l-215 189l-274 -189z" />
<glyph unicode="&#xe3;" horiz-adv-x="1077" d="M324 -29q-123 0 -189.5 92.5t-66.5 233.5q0 166 53 298t140 224t198.5 142.5t230.5 50.5q43 0 90 -6.5t82 -6.5q23 0 52.5 3.5t50.5 9.5l-115 -729q-4 -23 -6 -49.5t-2 -49.5q0 -76 65 -75q29 0 54.5 10t48.5 24l20 -55q-33 -35 -96.5 -69.5t-149.5 -34.5 q-76 0 -105.5 37.5t-29.5 103.5q0 10 2 27.5t6 33.5h-4q-23 -41 -56.5 -78.5t-76.5 -68.5t-92 -49.5t-104 -18.5zM403 123q78 0 142.5 50t105.5 114l92 596q-18 12 -40.5 16t-51.5 4q-76 0 -143.5 -48t-118.5 -129t-80.5 -189.5t-29.5 -231.5q0 -76 32.5 -129t91.5 -53z M780 1153q-45 0 -83 16.5t-72 34.5l-61 32q-30 15 -68 15q-41 0 -76 -23.5t-58 -58.5l-57 37q14 29 34.5 59.5t48.5 57.5t60.5 43t69.5 16q45 0 83 -16t73 -35q33 -18 63.5 -32.5t65.5 -14.5q43 0 77.5 25.5t57.5 60.5l57 -39q-12 -29 -33.5 -60.5t-49 -58t-61.5 -43 t-71 -16.5z" />
<glyph unicode="&#xe4;" horiz-adv-x="1077" d="M324 -29q-123 0 -189.5 92.5t-66.5 233.5q0 166 53 298t140 224t198.5 142.5t230.5 50.5q43 0 90 -6.5t82 -6.5q23 0 52.5 3.5t50.5 9.5l-115 -729q-4 -23 -6 -49.5t-2 -49.5q0 -76 65 -75q29 0 54.5 10t48.5 24l20 -55q-33 -35 -96.5 -69.5t-149.5 -34.5 q-76 0 -105.5 37.5t-29.5 103.5q0 10 2 27.5t6 33.5h-4q-23 -41 -56.5 -78.5t-76.5 -68.5t-92 -49.5t-104 -18.5zM403 123q78 0 142.5 50t105.5 114l92 596q-18 12 -40.5 16t-51.5 4q-76 0 -143.5 -48t-118.5 -129t-80.5 -189.5t-29.5 -231.5q0 -76 32.5 -129t91.5 -53z M459 1159q-47 0 -80 32t-33 81q0 47 33 79.5t80 32.5q49 0 80.5 -32.5t31.5 -79.5q0 -49 -31.5 -81t-80.5 -32zM840 1159q-47 0 -80 32t-33 81q0 47 33 79.5t80 32.5q49 0 80.5 -32.5t31.5 -79.5q0 -49 -31.5 -81t-80.5 -32z" />
<glyph unicode="&#xe5;" horiz-adv-x="1077" d="M324 -29q-123 0 -189.5 92.5t-66.5 233.5q0 166 53 298t140 224t198.5 142.5t230.5 50.5q43 0 90 -6.5t82 -6.5q23 0 52.5 3.5t50.5 9.5l-115 -729q-4 -23 -6 -49.5t-2 -49.5q0 -76 65 -75q29 0 54.5 10t48.5 24l20 -55q-33 -35 -96.5 -69.5t-149.5 -34.5 q-76 0 -105.5 37.5t-29.5 103.5q0 10 2 27.5t6 33.5h-4q-23 -41 -56.5 -78.5t-76.5 -68.5t-92 -49.5t-104 -18.5zM403 123q78 0 142.5 50t105.5 114l92 596q-18 12 -40.5 16t-51.5 4q-76 0 -143.5 -48t-118.5 -129t-80.5 -189.5t-29.5 -231.5q0 -76 32.5 -129t91.5 -53z M643 1120q-35 0 -66.5 13.5t-56 37t-40 55t-15.5 68.5q0 76 54 126t124 50t124 -50t54 -126q0 -37 -15 -68.5t-40 -55t-56.5 -37t-66.5 -13.5zM643 1196q41 0 65.5 28.5t24.5 69.5q0 43 -24.5 72t-65.5 29t-65.5 -29t-24.5 -72q0 -41 24.5 -69.5t65.5 -28.5z" />
<glyph unicode="&#xe6;" horiz-adv-x="1437" d="M958 -29q-127 0 -206.5 50.5t-120.5 144.5q-25 -35 -60.5 -70t-83 -62.5t-104.5 -45t-127 -17.5q-104 0 -167.5 59.5t-63.5 151.5q0 98 51 166t135 110t190.5 59.5t214.5 17.5l25 118q6 31 6 66q0 82 -51 124t-150 42q-70 0 -129 -14.5t-110 -39.5l-2 70q25 23 62.5 44.5 t81.5 38.5t92 28.5t96 11.5q215 0 278 -135q61 59 142 97t176 38q129 0 200.5 -52t71.5 -147q0 -166 -157.5 -261t-438.5 -115q-2 -18 -2 -27v-14q0 -137 55.5 -217t169.5 -80q72 0 127 19.5t103 45.5l20 -43q-12 -25 -43 -52.5t-74 -52t-96.5 -41t-110.5 -16.5zM358 113 q78 0 143.5 38.5t106.5 92.5q-10 57 -10 114q0 20 1 42t3 44q-76 0 -143.5 -13t-117.5 -41t-80 -68.5t-30 -96.5q0 -51 33 -81.5t94 -30.5zM819 537q92 8 165 33.5t124 62.5t78.5 83t27.5 99q0 49 -26.5 78t-75.5 29q-45 0 -92 -27t-88 -76t-72 -120.5t-41 -161.5z" />
<glyph unicode="&#xe7;" horiz-adv-x="837" d="M283 -424q-20 0 -49 4t-48 10l15 68q16 -8 43.5 -13t50.5 -5q53 0 91 28.5t38 73.5q0 35 -33 58.5t-104 27.5l63 152q-141 23 -215 129t-74 266q0 141 48.5 260t127 205t180 134t206.5 48q72 0 132 -15.5t107 -41.5l-65 -150q-47 35 -101.5 54.5t-107.5 19.5 q-61 0 -118.5 -29t-101.5 -87t-71 -148t-27 -211q0 -141 59.5 -222t174.5 -81q72 0 132 19.5t107 45.5l19 -43q-12 -25 -43 -52.5t-76 -52t-100.5 -41t-112.5 -16.5h-4l-27 -63q66 -6 110 -42t44 -89q0 -92 -73.5 -146.5t-196.5 -54.5z" />
<glyph unicode="&#xe8;" horiz-adv-x="905" d="M424 -29q-180 0 -269 102.5t-89 284.5q0 133 42 254t113.5 212t169.5 145.5t209 54.5q127 0 198.5 -52t71.5 -147q0 -166 -153.5 -265t-440.5 -118q0 -4 -1 -15t-1 -19q0 -137 55.5 -217t170.5 -80q72 0 127 19.5t102 45.5l19 -43q-12 -25 -43 -52.5t-74 -52t-96.5 -41 t-110.5 -16.5zM283 522q92 8 164.5 36t125 68t80 88t27.5 101q0 49 -25.5 78t-74.5 29q-47 0 -94.5 -27t-89.5 -78t-71.5 -126t-41.5 -169zM336 1368l115 109l258 -306l-56 -55z" />
<glyph unicode="&#xe9;" horiz-adv-x="905" d="M424 -29q-180 0 -269 102.5t-89 284.5q0 133 42 254t113.5 212t169.5 145.5t209 54.5q127 0 198.5 -52t71.5 -147q0 -166 -153.5 -265t-440.5 -118q0 -4 -1 -15t-1 -19q0 -137 55.5 -217t170.5 -80q72 0 127 19.5t102 45.5l19 -43q-12 -25 -43 -52.5t-74 -52t-96.5 -41 t-110.5 -16.5zM283 522q92 8 164.5 36t125 68t80 88t27.5 101q0 49 -25.5 78t-74.5 29q-47 0 -94.5 -27t-89.5 -78t-71.5 -126t-41.5 -169zM426 1176l326 301l104 -115l-381 -246z" />
<glyph unicode="&#xea;" horiz-adv-x="905" d="M424 -29q-180 0 -269 102.5t-89 284.5q0 133 42 254t113.5 212t169.5 145.5t209 54.5q127 0 198.5 -52t71.5 -147q0 -166 -153.5 -265t-440.5 -118q0 -4 -1 -15t-1 -19q0 -137 55.5 -217t170.5 -80q72 0 127 19.5t102 45.5l19 -43q-12 -25 -43 -52.5t-74 -52t-96.5 -41 t-110.5 -16.5zM283 522q92 8 164.5 36t125 68t80 88t27.5 101q0 49 -25.5 78t-74.5 29q-47 0 -94.5 -27t-89.5 -78t-71.5 -126t-41.5 -169zM268 1171l350 299l250 -299l-63 -55l-215 189l-275 -189z" />
<glyph unicode="&#xeb;" horiz-adv-x="905" d="M424 -29q-180 0 -269 102.5t-89 284.5q0 133 42 254t113.5 212t169.5 145.5t209 54.5q127 0 198.5 -52t71.5 -147q0 -166 -153.5 -265t-440.5 -118q0 -4 -1 -15t-1 -19q0 -137 55.5 -217t170.5 -80q72 0 127 19.5t102 45.5l19 -43q-12 -25 -43 -52.5t-74 -52t-96.5 -41 t-110.5 -16.5zM283 522q92 8 164.5 36t125 68t80 88t27.5 101q0 49 -25.5 78t-74.5 29q-47 0 -94.5 -27t-89.5 -78t-71.5 -126t-41.5 -169zM401 1159q-47 0 -79.5 32t-32.5 81q0 47 32.5 79.5t79.5 32.5q49 0 81 -32.5t32 -79.5q0 -49 -32 -81t-81 -32zM782 1159 q-47 0 -79.5 32t-32.5 81q0 47 32.5 79.5t79.5 32.5q49 0 81 -32.5t32 -79.5q0 -49 -32 -81t-81 -32z" />
<glyph unicode="&#xec;" horiz-adv-x="581" d="M287 -16q-78 0 -114 42t-36 111q0 27 5 56.5l10 58.5l69 459q4 18 7 43.5t3 44.5q0 37 -23.5 55t-90.5 35l10 61q88 16 174 38t172 50l-119 -762q-10 -57 -10 -94q0 -72 68 -71q29 0 55.5 9t50.5 25l21 -55q-41 -39 -103.5 -72.5t-148.5 -33.5zM147 1368l115 109 l258 -306l-55 -55z" />
<glyph unicode="&#xed;" horiz-adv-x="581" d="M287 -16q-78 0 -114 42t-36 111q0 27 5 56.5l10 58.5l69 459q4 18 7 43.5t3 44.5q0 37 -23.5 55t-90.5 35l10 61q88 16 174 38t172 50l-119 -762q-10 -57 -10 -94q0 -72 68 -71q29 0 55.5 9t50.5 25l21 -55q-41 -39 -103.5 -72.5t-148.5 -33.5zM238 1176l325 301 l105 -115l-381 -246z" />
<glyph unicode="&#xee;" horiz-adv-x="581" d="M287 -16q-78 0 -114 42t-36 111q0 27 5 56.5l10 58.5l69 459q4 18 7 43.5t3 44.5q0 37 -23.5 55t-90.5 35l10 61q88 16 174 38t172 50l-119 -762q-10 -57 -10 -94q0 -72 68 -71q29 0 55.5 9t50.5 25l21 -55q-41 -39 -103.5 -72.5t-148.5 -33.5zM80 1171l350 299l250 -299 l-64 -55l-215 189l-274 -189z" />
<glyph unicode="&#xef;" horiz-adv-x="581" d="M287 -16q-78 0 -114 42t-36 111q0 27 5 56.5l10 58.5l69 459q4 18 7 43.5t3 44.5q0 37 -23.5 55t-90.5 35l10 61q88 16 174 38t172 50l-119 -762q-10 -57 -10 -94q0 -72 68 -71q29 0 55.5 9t50.5 25l21 -55q-41 -39 -103.5 -72.5t-148.5 -33.5zM211 1159q-47 0 -80 32 t-33 81q0 47 33 79.5t80 32.5q49 0 81 -32.5t32 -79.5q0 -49 -32 -81t-81 -32zM592 1159q-47 0 -80 32t-33 81q0 47 33 79.5t80 32.5q49 0 81 -32.5t32 -79.5q0 -49 -32 -81t-81 -32z" />
<glyph unicode="&#xf0;" horiz-adv-x="1091" d="M436 -29q-86 0 -154.5 28t-116.5 78t-72.5 118.5t-24.5 150.5q0 115 41 216.5t110.5 176t161.5 118.5t194 44q33 0 66 -6t62.5 -17.5t52 -24.5t37.5 -26q-6 111 -52.5 204t-132.5 159l-223 -156l-55 94l180 123q-68 35 -146.5 53.5t-170.5 18.5l10 102q131 0 239.5 -21.5 t198.5 -62.5l238 166l57 -90l-191 -131q141 -96 210 -244.5t69 -332.5q0 -141 -41 -274.5t-116.5 -237t-184.5 -165t-246 -61.5zM481 86q66 0 123.5 53.5t99 137t66.5 187t25 202.5v39q-23 29 -71 57.5t-108 28.5q-74 0 -134 -36t-102 -96.5t-64.5 -141.5t-22.5 -171 q0 -129 50 -194.5t138 -65.5z" />
<glyph unicode="&#xf1;" horiz-adv-x="1124" d="M827 -16q-78 0 -112.5 42t-34.5 111q0 27 4 56.5t10 58.5l74 389q14 78 14 111q0 53 -22.5 85.5t-81.5 32.5q-70 0 -136.5 -46t-115.5 -97l-113 -727h-200l112 713q2 20 5 46.5t3 39.5q0 39 -24.5 56t-89.5 34l8 61q90 16 177 38t173 50l-35 -200h4q23 31 57 63.5t76 60 t88 45t91 17.5q123 0 174 -67.5t51 -178.5q0 -18 -3 -49t-13 -82l-72 -371l-7 -47q-3 -20 -3 -45q0 -74 69 -73q29 0 55.5 9t51.5 25l20 -55q-41 -39 -104.5 -72.5t-149.5 -33.5zM838 1153q-45 0 -83 16.5t-73 34.5l-60 32q-30 15 -69 15q-41 0 -76 -23.5t-57 -58.5l-58 37 q14 29 35 59.5t48.5 57.5t60.5 43t69 16q45 0 83 -16t73 -35q33 -18 63.5 -32.5t65.5 -14.5q43 0 78 25.5t57 60.5l58 -39q-12 -29 -34 -60.5t-49.5 -58t-61 -43t-70.5 -16.5z" />
<glyph unicode="&#xf2;" horiz-adv-x="1015" d="M412 -29q-78 0 -140.5 27t-107.5 78t-69.5 121.5t-24.5 160.5q0 135 38.5 256t109.5 212.5t169 144.5t217 53q76 0 139.5 -26.5t108.5 -78t69.5 -123t24.5 -159.5q0 -135 -39 -256t-109.5 -212t-168.5 -144.5t-217 -53.5zM449 74q68 0 120 47t87.5 125t55 175t19.5 200 q0 301 -162 301q-68 0 -121 -47.5t-88.5 -125t-55 -176t-19.5 -198.5q0 -301 164 -301zM369 1368l114 109l258 -306l-55 -55z" />
<glyph unicode="&#xf3;" horiz-adv-x="1015" d="M412 -29q-78 0 -140.5 27t-107.5 78t-69.5 121.5t-24.5 160.5q0 135 38.5 256t109.5 212.5t169 144.5t217 53q76 0 139.5 -26.5t108.5 -78t69.5 -123t24.5 -159.5q0 -135 -39 -256t-109.5 -212t-168.5 -144.5t-217 -53.5zM449 74q68 0 120 47t87.5 125t55 175t19.5 200 q0 301 -162 301q-68 0 -121 -47.5t-88.5 -125t-55 -176t-19.5 -198.5q0 -301 164 -301zM461 1176l325 301l105 -115l-381 -246z" />
<glyph unicode="&#xf4;" horiz-adv-x="1015" d="M412 -29q-78 0 -140.5 27t-107.5 78t-69.5 121.5t-24.5 160.5q0 135 38.5 256t109.5 212.5t169 144.5t217 53q76 0 139.5 -26.5t108.5 -78t69.5 -123t24.5 -159.5q0 -135 -39 -256t-109.5 -212t-168.5 -144.5t-217 -53.5zM449 74q68 0 120 47t87.5 125t55 175t19.5 200 q0 301 -162 301q-68 0 -121 -47.5t-88.5 -125t-55 -176t-19.5 -198.5q0 -301 164 -301zM303 1171l350 299l250 -299l-63 -55l-215 189l-275 -189z" />
<glyph unicode="&#xf5;" horiz-adv-x="1015" d="M412 -29q-78 0 -140.5 27t-107.5 78t-69.5 121.5t-24.5 160.5q0 135 38.5 256t109.5 212.5t169 144.5t217 53q76 0 139.5 -26.5t108.5 -78t69.5 -123t24.5 -159.5q0 -135 -39 -256t-109.5 -212t-168.5 -144.5t-217 -53.5zM449 74q68 0 120 47t87.5 125t55 175t19.5 200 q0 301 -162 301q-68 0 -121 -47.5t-88.5 -125t-55 -176t-19.5 -198.5q0 -301 164 -301zM756 1153q-45 0 -83 16.5t-73 34.5l-60 32q-30 15 -69 15q-41 0 -76 -23.5t-57 -58.5l-57 37q14 29 34.5 59.5t48 57.5t60.5 43t70 16q45 0 82.5 -16t72.5 -35q33 -18 63.5 -32.5 t65.5 -14.5q43 0 78 25.5t57 60.5l58 -39q-12 -29 -34 -60.5t-49.5 -58t-61 -43t-70.5 -16.5z" />
<glyph unicode="&#xf6;" horiz-adv-x="1015" d="M412 -29q-78 0 -140.5 27t-107.5 78t-69.5 121.5t-24.5 160.5q0 135 38.5 256t109.5 212.5t169 144.5t217 53q76 0 139.5 -26.5t108.5 -78t69.5 -123t24.5 -159.5q0 -135 -39 -256t-109.5 -212t-168.5 -144.5t-217 -53.5zM449 74q68 0 120 47t87.5 125t55 175t19.5 200 q0 301 -162 301q-68 0 -121 -47.5t-88.5 -125t-55 -176t-19.5 -198.5q0 -301 164 -301zM434 1159q-47 0 -79.5 32t-32.5 81q0 47 32.5 79.5t79.5 32.5q49 0 81 -32.5t32 -79.5q0 -49 -32 -81t-81 -32zM815 1159q-47 0 -80 32t-33 81q0 47 33 79.5t80 32.5q49 0 81 -32.5 t32 -79.5q0 -49 -32 -81t-81 -32z" />
<glyph unicode="&#xf7;" d="M541 70q-53 0 -91 35.5t-38 89.5q0 53 37.5 90t91.5 37q53 0 91 -37t38 -90t-38 -89t-91 -36zM541 758q-53 0 -91 36.5t-38 90.5q0 53 37.5 90t91.5 37q53 0 91 -37t38 -90t-38 -90t-91 -37zM4 600h1075v-119h-1075v119z" />
<glyph unicode="&#xf8;" horiz-adv-x="1015" d="M10 -68l129 172q-70 98 -69 254q0 135 38.5 256t109.5 212.5t169 144.5t217 53q106 0 191 -55l114 153l70 -51l-121 -160q88 -100 88 -274q0 -135 -39 -256t-109.5 -212t-169 -144.5t-216.5 -53.5q-125 0 -213 70l-121 -160zM449 74q68 0 120 47t87.5 125t55 175 t19.5 200q0 33 -2 60.5t-6 51.5l-414 -547q40 -112 140 -112zM285 336q0 -18 2 -37l407 539q-43 84 -125 84q-68 0 -121 -47.5t-88.5 -125t-55 -176t-19.5 -198.5v-39z" />
<glyph unicode="&#xf9;" horiz-adv-x="1126" d="M373 -18q-123 0 -175.5 68.5t-52.5 178.5q0 23 3.5 54.5t7.5 62.5l55 352q4 16 6 43t2 39q0 39 -23.5 56.5t-91.5 33.5l11 62q182 31 346 88l-105 -658q-6 -41 -8 -64.5t-2 -43.5q0 -53 23.5 -85t83.5 -32q70 0 134 46t113 96l109 704l207 37l-119 -756l-7 -51 q-3 -23 -3 -45q0 -63 65 -64q29 0 55.5 9.5t49.5 25.5l20 -53q-41 -39 -100 -72.5t-141 -33.5q-72 0 -107 38.5t-35 106.5v27q0 18 4 34h-2q-23 -35 -57.5 -70.5t-76.5 -65.5t-90 -49t-99 -19zM426 1368l115 109l258 -306l-56 -55z" />
<glyph unicode="&#xfa;" horiz-adv-x="1126" d="M373 -18q-123 0 -175.5 68.5t-52.5 178.5q0 23 3.5 54.5t7.5 62.5l55 352q4 16 6 43t2 39q0 39 -23.5 56.5t-91.5 33.5l11 62q182 31 346 88l-105 -658q-6 -41 -8 -64.5t-2 -43.5q0 -53 23.5 -85t83.5 -32q70 0 134 46t113 96l109 704l207 37l-119 -756l-7 -51 q-3 -23 -3 -45q0 -63 65 -64q29 0 55.5 9.5t49.5 25.5l20 -53q-41 -39 -100 -72.5t-141 -33.5q-72 0 -107 38.5t-35 106.5v27q0 18 4 34h-2q-23 -35 -57.5 -70.5t-76.5 -65.5t-90 -49t-99 -19zM518 1176l326 301l104 -115l-381 -246z" />
<glyph unicode="&#xfb;" horiz-adv-x="1126" d="M373 -18q-123 0 -175.5 68.5t-52.5 178.5q0 23 3.5 54.5t7.5 62.5l55 352q4 16 6 43t2 39q0 39 -23.5 56.5t-91.5 33.5l11 62q182 31 346 88l-105 -658q-6 -41 -8 -64.5t-2 -43.5q0 -53 23.5 -85t83.5 -32q70 0 134 46t113 96l109 704l207 37l-119 -756l-7 -51 q-3 -23 -3 -45q0 -63 65 -64q29 0 55.5 9.5t49.5 25.5l20 -53q-41 -39 -100 -72.5t-141 -33.5q-72 0 -107 38.5t-35 106.5v27q0 18 4 34h-2q-23 -35 -57.5 -70.5t-76.5 -65.5t-90 -49t-99 -19zM360 1171l351 299l250 -299l-64 -55l-215 189l-274 -189z" />
<glyph unicode="&#xfc;" horiz-adv-x="1126" d="M373 -18q-123 0 -175.5 68.5t-52.5 178.5q0 23 3.5 54.5t7.5 62.5l55 352q4 16 6 43t2 39q0 39 -23.5 56.5t-91.5 33.5l11 62q182 31 346 88l-105 -658q-6 -41 -8 -64.5t-2 -43.5q0 -53 23.5 -85t83.5 -32q70 0 134 46t113 96l109 704l207 37l-119 -756l-7 -51 q-3 -23 -3 -45q0 -63 65 -64q29 0 55.5 9.5t49.5 25.5l20 -53q-41 -39 -100 -72.5t-141 -33.5q-72 0 -107 38.5t-35 106.5v27q0 18 4 34h-2q-23 -35 -57.5 -70.5t-76.5 -65.5t-90 -49t-99 -19zM492 1159q-47 0 -80 32t-33 81q0 47 32.5 79.5t80.5 32.5q49 0 80.5 -32.5 t31.5 -79.5q0 -49 -31.5 -81t-80.5 -32zM872 1159q-47 0 -79.5 32t-32.5 81q0 47 32.5 79.5t79.5 32.5q49 0 81 -32.5t32 -79.5q0 -49 -32 -81t-81 -32z" />
<glyph unicode="&#xfd;" horiz-adv-x="966" d="M-47 -416q-16 0 -39 1t-39 5l19 156q25 -6 50 -8t48 -2q109 2 182.5 71.5t134.5 192.5l-131 762q-4 23 -9 46t-14.5 41.5t-22.5 31t-34 12.5q-20 0 -41.5 -14.5t-42.5 -30.5l-24 59q33 39 92 78t133 39q76 0 107.5 -55.5t46.5 -139.5l104 -641h6q88 137 144.5 235.5 t88 173.5t43 137.5t11.5 127.5q0 23 -10.5 57.5t-26.5 57.5l184 49q20 -25 29.5 -62.5t9.5 -66.5q0 -80 -42 -180.5t-117.5 -225t-180.5 -276.5l-229 -334q-100 -147 -198.5 -222t-231.5 -75zM428 1176l326 301l104 -115l-381 -246z" />
<glyph unicode="&#xfe;" horiz-adv-x="1054" d="M-102 -328l61 9q39 8 64.5 40.5t39.5 124.5l201 1282q4 16 6 43t2 39q0 39 -23.5 56.5t-90.5 33.5l10 62q88 16 174 37.5t172 52.5l-98 -614h2q23 35 55.5 68.5t73.5 59t87 42t95 16.5q61 0 110.5 -24.5t84 -67.5t53 -103.5t18.5 -130.5q0 -166 -55 -298t-145 -224 t-204 -142t-233 -50q-20 0 -38.5 1t-36.5 3l-19 -140l-7 -52q-3 -22 -3 -38q0 -45 19.5 -60t48.5 -17l90 -9l-11 -69q-18 0 -54 1t-77 3l-82 2h-69q-59 0 -126 -2t-106 -4zM397 94q76 0 145.5 47t123 128t86 189.5t32.5 231.5q0 76 -37.5 129t-97.5 53q-78 0 -144.5 -50 t-105.5 -113l-94 -594q39 -21 92 -21z" />
<glyph unicode="&#xff;" horiz-adv-x="966" d="M-47 -416q-16 0 -39 1t-39 5l19 156q25 -6 50 -8t48 -2q109 2 182.5 71.5t134.5 192.5l-131 762q-4 23 -9 46t-14.5 41.5t-22.5 31t-34 12.5q-20 0 -41.5 -14.5t-42.5 -30.5l-24 59q33 39 92 78t133 39q76 0 107.5 -55.5t46.5 -139.5l104 -641h6q88 137 144.5 235.5 t88 173.5t43 137.5t11.5 127.5q0 23 -10.5 57.5t-26.5 57.5l184 49q20 -25 29.5 -62.5t9.5 -66.5q0 -80 -42 -180.5t-117.5 -225t-180.5 -276.5l-229 -334q-100 -147 -198.5 -222t-231.5 -75zM401 1159q-47 0 -79.5 32t-32.5 81q0 47 32.5 79.5t79.5 32.5q49 0 81 -32.5 t32 -79.5q0 -49 -32 -81t-81 -32zM782 1159q-47 0 -79.5 32t-32.5 81q0 47 32.5 79.5t79.5 32.5q49 0 81 -32.5t32 -79.5q0 -49 -32 -81t-81 -32z" />
<glyph unicode="&#x131;" horiz-adv-x="581" d="M287 -16q-78 0 -114 42t-36 111q0 27 5 56.5l10 58.5l69 459q4 18 7 43.5t3 44.5q0 37 -23.5 55t-90.5 35l10 61q88 16 174 38t172 50l-119 -762q-10 -57 -10 -94q0 -72 68 -71q29 0 55.5 9t50.5 25l21 -55q-41 -39 -103.5 -72.5t-148.5 -33.5z" />
<glyph unicode="&#x132;" horiz-adv-x="1341" d="M10 72l78 12q43 6 69.5 37t41.5 117l125 792q6 43 6 72q0 47 -17.5 66.5t-48.5 25.5l-71 12l10 72q18 0 50 -1t69.5 -2t76.5 -1h144q39 0 74.5 1t66.5 2t49 1l-10 -72l-78 -12q-45 -6 -70.5 -37t-39.5 -117l-123 -792q-6 -43 -6 -72q0 -47 17 -67.5t46 -24.5l72 -12 l-11 -72q-18 0 -49.5 1t-67.5 2t-75 1h-145q-37 0 -74 -1t-69 -2t-50 -1zM612 -334q-23 0 -52.5 1t-51.5 5l45 140q20 -4 50 -8.5t50 -4.5q45 0 75 8.5t49.5 28t30.5 53t19 84.5l168 1057q6 43 6 74q0 47 -17 65.5t-48 24.5l-70 12l11 72q18 0 49.5 -1t67.5 -2t75 -1h143 q39 0 75 1t66.5 2t49.5 1l-10 -72l-78 -12q-23 -4 -40.5 -11t-29.5 -24.5t-22.5 -45.5t-16.5 -73l-147 -942q-16 -98 -51 -177t-90.5 -136t-132.5 -88t-173 -31z" />
<glyph unicode="&#x133;" horiz-adv-x="1138" d="M287 -16q-78 0 -114 42t-36 111q0 27 5 56.5l10 58.5l69 459q4 18 7 43.5t3 44.5q0 37 -23.5 55t-90.5 35l10 61q88 16 174 38t172 50l-119 -762q-10 -57 -10 -94q0 -72 68 -71q29 0 55.5 9t50.5 25l21 -55q-41 -39 -103.5 -72.5t-148.5 -33.5zM410 1210q-55 0 -92 37 t-37 90q0 51 36.5 88t92.5 37q53 0 91 -36.5t38 -88.5q0 -53 -38 -90t-91 -37zM457 -416q-51 0 -101 15l41 135q23 -10 56.5 -14.5t56.5 -4.5q76 0 115 42t55 141l127 817q4 20 6 46.5t2 39.5q0 39 -23.5 56t-91.5 34l11 61q178 29 346 86l-154 -989q-14 -90 -49 -174 t-91 -148.5t-133 -103.5t-173 -39zM979 1210q-53 0 -91 37t-38 90q0 51 38 88t91 37q55 0 92 -36.5t37 -88.5q0 -53 -37 -90t-92 -37z" />
<glyph unicode="&#x141;" horiz-adv-x="1058" d="M45 459l238 155l65 416q6 43 6 70q0 51 -16 69.5t-47 24.5l-72 12l10 72q18 0 50 -1t69 -2t76 -1h147q41 0 80 1t73 2t52 1l-10 -72l-94 -12q-41 -6 -69 -38t-42 -126l-41 -260l244 160l47 -76l-309 -203l-66 -411q-6 -41 -6 -62q0 -35 27.5 -53.5t111.5 -18.5h154 q55 0 84 19.5t47 60.5l55 117h84l-25 -86l-26 -87q-12 -42 -20.5 -79t-12.5 -57q-29 2 -69 3l-85 2l-85 2q-41 1 -68 1l-321 2h-62q-37 0 -73.5 -1t-68.5 -2t-46 -1l10 72l74 12q20 2 37.5 10t31 26.5t23.5 49.5t18 78l39 248l-174 -113z" />
<glyph unicode="&#x142;" horiz-adv-x="602" d="M37 516l166 107l80 505l5 43q3 27 3 39q0 39 -24.5 56.5t-90.5 33.5l8 62q90 16 176 37.5t172 50.5l-108 -684l135 86l45 -72l-196 -125l-60 -379q-4 -29 -6 -52t-2 -40q0 -74 70 -73q29 0 55.5 9t50.5 25l21 -55q-41 -39 -104.5 -72.5t-149.5 -33.5q-78 0 -114 41 t-36 110q0 23 5 61l9 66l39 252l-108 -70z" />
<glyph unicode="&#x152;" horiz-adv-x="1759" d="M588 -27q-127 0 -223.5 40t-161 111t-96 167t-31.5 211q0 154 51 297t144.5 255.5t225.5 180.5t294 68q66 0 115.5 -9.5t86.5 -19.5h295q111 0 199 2q45 0 89 1t81 1t62.5 1t35.5 3l-20.5 -148.5t-16.5 -138.5h-82l-4 95q-2 37 -23.5 58t-74.5 21l-348 2l-72 -460h252 q53 0 70.5 13t27.5 42l33 90h72l-18 -96l-17 -96l-13.5 -95.5t-11.5 -101.5h-71l-6 82q-2 29 -14.5 45t-65.5 16h-254l-62 -391q-6 -29 -6 -47q2 -35 29.5 -50.5t109.5 -15.5h217q55 0 85 20.5t49 59.5l53 117h84l-26 -86l-25 -87q-12 -42 -20.5 -79t-12.5 -57q-29 2 -70 3 l-86 2q-45 1 -85 2t-64 1l-385 2h-45q-23 0 -45 -2q-45 -14 -94.5 -21.5t-110.5 -7.5zM616 78q51 0 96.5 14t80.5 39q23 35 34 117l123 782q12 76 2 113q-72 57 -186 57q-111 0 -197 -64.5t-144 -166t-89 -227.5t-31 -248q0 -90 18.5 -167t57.5 -132.5t97 -86t138 -30.5z " />
<glyph unicode="&#x153;" horiz-adv-x="1562" d="M410 -29q-80 0 -143.5 29t-107.5 80t-66.5 121.5t-22.5 156.5q0 131 37.5 252t108.5 213t170 146.5t224 54.5q115 0 185.5 -51t103.5 -131q66 82 160 132t198 50q129 0 201 -52t72 -147q0 -166 -154.5 -265t-441.5 -118q0 -4 -1 -15t-1 -19q0 -137 55 -217t170 -80 q72 0 127 19.5t102 45.5l21 -43q-12 -25 -43 -52.5t-74 -52t-96 -41t-111 -16.5q-117 0 -196.5 46t-114.5 133q-68 -82 -156.5 -130.5t-205.5 -48.5zM449 74q70 0 124 47t91.5 125t57 175t19.5 200q0 147 -39.5 224t-128.5 77q-72 0 -126 -49.5t-91 -127t-55 -175 t-18 -195.5q0 -145 40 -223t126 -78zM942 522q90 8 164 36t126 68t79.5 88t27.5 101q0 49 -26.5 78t-75.5 29q-45 0 -93 -27t-89 -78t-72 -126t-41 -169z" />
<glyph unicode="&#x160;" horiz-adv-x="1021" d="M383 -29q-92 2 -182 17.5t-156 31.5q16 90 22.5 161t12.5 157h86q-2 -131 55.5 -197.5t179.5 -66.5q123 0 192 64.5t69 170.5q0 59 -36 104.5t-91.5 84.5t-118 77.5t-117.5 87t-91 110t-36 147.5t34 156.5t94 120.5t144 78t185 28q111 0 190.5 -17.5t132.5 -38.5 q-12 -66 -19 -140.5t-13 -148.5h-82q0 70 -19.5 116t-50.5 74t-71 40t-81 12q-117 0 -176 -61.5t-59 -151.5q0 -59 37 -105t91 -88t118.5 -83t119 -89.5t91 -107.5t36.5 -137q0 -96 -38.5 -171t-105 -127t-157 -80t-190.5 -28zM371 1659l61 55l217 -188l273 188l49 -55 l-348 -299z" />
<glyph unicode="&#x161;" horiz-adv-x="804" d="M305 -27q-78 0 -149.5 19.5t-137.5 48.5l80 143q66 -45 135.5 -64.5t135.5 -19.5q76 0 119.5 37t43.5 90q0 33 -16 61.5t-44 53.5t-62 46l-72 44q-37 20 -75 47t-68.5 59.5t-50 74.5t-19.5 96q0 63 31.5 120.5t86 100.5t124 68.5t145.5 25.5q63 0 128 -19.5t118 -46.5 l-78 -145q-45 33 -101.5 58.5t-142.5 25.5q-57 0 -94 -29.5t-37 -81.5q0 -53 35 -91t94 -79l95 -61q48 -31 87 -67.5t64 -85t25 -115.5q0 -76 -39 -134.5t-97.5 -98.5t-129.5 -60.5t-134 -20.5zM231 1415l62 55l217 -188l272 188l49 -55l-348 -299z" />
<glyph unicode="&#x178;" horiz-adv-x="1245" d="M285 72l77 12q41 6 69 38t42 126l43 278l-248 547q-20 43 -42.5 79t-67.5 46l-41 8l10 72q39 -2 109.5 -4t134.5 -2h73l84 2q43 2 79 3t55 1l-11 -72l-80 -8q-35 -4 -56 -25.5t-21 -54.5q0 -16 7 -36l13 -35l172 -402l295 404l37 53q18 27 18 49q0 16 -10 29.5t-35 17.5 l-82 8l11 72q39 -2 109.5 -4t127.5 -2q53 0 100.5 2t85.5 4l-10 -72l-51 -8q-53 -10 -92 -50t-96 -118l-363 -479l-47 -303q-4 -23 -5 -45.5t-1 -34.5q0 -45 17.5 -62.5t45.5 -21.5l74 -12l-10 -72q-18 0 -49 1t-67 2t-75 1h-145q-39 0 -76 -1t-68.5 -2t-50.5 -1zM608 1405 q-47 0 -79.5 31.5t-32.5 81.5q0 47 32.5 79.5t79.5 32.5q49 0 81 -32.5t32 -79.5q0 -49 -32 -81t-81 -32zM989 1405q-47 0 -79.5 31.5t-32.5 81.5q0 47 32.5 79.5t79.5 32.5q49 0 81 -32.5t32 -79.5q0 -49 -32 -81t-81 -32z" />
<glyph unicode="&#x17d;" horiz-adv-x="1118" d="M934 -4l-140 4q-73 2 -140.5 3t-129.5 1h-104q-111 0 -225.5 -1t-223.5 -5l11 76l884 1102h-434q-63 0 -96 -25t-49 -72l-29 -88h-94l15 60l19 73l19 80q10 41 16 78q82 -2 150 -3t128 -2t116 -1h110q111 0 208 1t208 3l-12 -74l-881 -1097h469q61 0 94 25.5t54 66.5 l45 94h92l-19 -63l-21 -75l-23 -81q-11 -41 -17 -80zM416 1659l61 55l217 -188l273 188l49 -55l-348 -299z" />
<glyph unicode="&#x17e;" horiz-adv-x="907" d="M-33 14l666 822q-27 -2 -51.5 -3.5t-46.5 -1.5q-61 0 -111.5 8.5t-95.5 8.5q-59 0 -98.5 -23.5t-61.5 -93.5l-49 25q6 49 18.5 96t32.5 84t52 59.5t79 22.5q37 0 90 -4t110.5 -10.5t113 -10.5t92.5 -4q35 0 76.5 12.5t60.5 28.5l59 -37l-670 -829q23 2 43.5 3t42.5 1 q78 0 148 -10.5t127 -10.5q68 0 106.5 29t63.5 100l51 -26q-8 -51 -19.5 -100.5t-33 -87t-57 -61.5t-93.5 -24q-61 0 -124.5 4.5t-124 10.5t-114.5 10t-97 4q-37 0 -72 -5t-62 -28zM260 1415l62 55l217 -188l272 188l49 -55l-348 -299z" />
<glyph unicode="&#x17f;" horiz-adv-x="575" d="M-125 -416q-51 0 -100 15l41 135q23 -10 56.5 -14.5t55.5 -4.5q76 0 115 42t55 141l174 1101q14 86 53.5 168t98.5 144.5t138 100.5t171 38q31 0 73 -8t68 -15l-38 -137q-12 6 -33 11.5t-42.5 9.5t-43 6t-35.5 2q-76 0 -123 -42t-63 -140l-172 -1088q-14 -90 -49 -174 t-92.5 -148.5t-134.5 -103.5t-173 -39z" />
<glyph unicode="&#x192;" d="M104 -416q-27 0 -51 4t-49 11l39 137q25 -10 57.5 -15.5t57.5 -5.5q74 0 112.5 42t55.5 141l133 856h-152l15 96h153q14 86 54 167t99.5 144.5t138.5 101t171 37.5q31 0 73 -8t68 -16l-39 -137q-12 6 -32.5 11t-42 9t-43 7t-35.5 3q-76 0 -123 -42t-64 -140l-24 -137h215 l-14 -96h-215l-111 -705q-14 -90 -49 -174t-91.5 -148.5t-133.5 -103.5t-173 -39z" />
<glyph unicode="&#x2bb;" horiz-adv-x="468" d="M541 1405q-59 -55 -99.5 -125t-40.5 -156q0 -41 9.5 -75.5t23.5 -59.5l-207 -76q-27 57 -26 138q0 68 26.5 129t69.5 113.5t95 92t102 64.5z" />
<glyph unicode="&#x2bc;" horiz-adv-x="468" d="M137 958q59 55 99 125t40 156q0 41 -9 76t-23 59l207 76q27 -57 26 -137q0 -68 -26.5 -129.5t-69.5 -113.5t-95.5 -92t-101.5 -65z" />
<glyph unicode="&#x2c6;" horiz-adv-x="716" d="M59 1190l351 299l249 -299l-63 -55l-215 188l-275 -188z" />
<glyph unicode="&#x2c7;" horiz-adv-x="716" d="M59 1430l62 55l217 -189l272 189l49 -55l-348 -300z" />
<glyph unicode="&#x2c9;" horiz-adv-x="716" d="M88 1276h576l-19 -121h-575z" />
<glyph unicode="&#x2d8;" horiz-adv-x="716" d="M309 1143q-117 0 -192.5 70.5t-75.5 207.5l98 17q4 -92 52.5 -140.5t127.5 -48.5q82 0 142.5 51.5t89.5 137.5l125 -17q-23 -68 -60.5 -120t-87 -87.5t-106 -53t-113.5 -17.5z" />
<glyph unicode="&#x2d9;" horiz-adv-x="716" d="M358 1139q-55 0 -94 39t-39 94t39 95t94 40t94.5 -39t39.5 -94t-39.5 -95t-94.5 -40z" />
<glyph unicode="&#x2da;" horiz-adv-x="716" d="M358 1139q-35 0 -66.5 13t-56 36.5t-40 55.5t-15.5 69q0 76 54.5 126t123.5 50q70 0 124.5 -50t54.5 -126q0 -37 -15.5 -69t-40 -55.5t-56.5 -36.5t-67 -13zM358 1214q41 0 66 29t25 70q0 43 -25 71.5t-66 28.5t-65.5 -28.5t-24.5 -71.5q0 -41 24.5 -70t65.5 -29z" />
<glyph unicode="&#x2db;" horiz-adv-x="716" d="M365 -451q-90 0 -135.5 48.5t-45.5 117.5q0 43 20.5 85t52.5 80t71 69t75 51h62l-51 -53q-27 -29 -50.5 -61.5t-38 -69.5t-14.5 -76q0 -43 24.5 -72.5t76.5 -29.5q68 0 110 22l-4 -57q-23 -23 -62.5 -38.5t-90.5 -15.5z" />
<glyph unicode="&#x2dc;" horiz-adv-x="716" d="M496 1143q-45 0 -83 16.5t-73 34.5l-60 32q-30 15 -69 15q-41 0 -76 -23.5t-57 -58.5l-58 37q14 29 35 59.5t48.5 57t60.5 43t69 16.5q45 0 83 -16.5t73 -34.5q33 -18 63.5 -32.5t65.5 -14.5q43 0 78 25.5t57 60.5l58 -39q-12 -29 -34 -60.5t-49.5 -58t-61 -43 t-70.5 -16.5z" />
<glyph unicode="&#x2dd;" horiz-adv-x="716" d="M25 1188l260 252l102 -117l-313 -193zM344 1188l258 252l103 -117l-314 -193z" />
<glyph unicode="&#x300;" horiz-adv-x="2" d="M-645 1368l115 109l258 -306l-56 -55z" />
<glyph unicode="&#x301;" horiz-adv-x="2" d="M-553 1176l326 301l104 -115l-381 -246z" />
<glyph unicode="&#x302;" horiz-adv-x="2" d="M-711 1171l351 299l249 -299l-63 -55l-215 189l-275 -189z" />
<glyph unicode="&#x303;" horiz-adv-x="2" d="M-258 1153q-45 0 -83 16.5t-73 34.5l-60 32q-30 15 -69 15q-41 0 -75.5 -23.5t-57.5 -58.5l-57 37q14 29 34.5 59.5t48 57.5t60.5 43t70 16q45 0 83 -16t72 -35q33 -18 64 -32.5t65 -14.5q43 0 78 25.5t58 60.5l57 -39q-12 -29 -33.5 -60.5t-49.5 -58t-61.5 -43 t-70.5 -16.5z" />
<glyph unicode="&#x304;" horiz-adv-x="2" d="M-643 1292h575l-18 -121h-576z" />
<glyph unicode="&#x306;" horiz-adv-x="2" d="M-406 1143q-117 0 -192.5 70.5t-75.5 207.5l99 17q4 -92 52 -140.5t128 -48.5q82 0 142 51.5t89 137.5l125 -17q-23 -68 -60.5 -120t-87 -87.5t-106 -53t-113.5 -17.5z" />
<glyph unicode="&#x307;" horiz-adv-x="2" d="M-176 1165q-55 0 -92 37t-37 90q0 51 37 88t92 37q53 0 91 -37t38 -88q0 -53 -38 -90t-91 -37z" />
<glyph unicode="&#x308;" horiz-adv-x="2" d="M-547 1159q-47 0 -79.5 32t-32.5 81q0 47 32.5 79.5t79.5 32.5q49 0 81 -32.5t32 -79.5q0 -49 -32 -81t-81 -32zM-166 1159q-47 0 -80 32t-33 81q0 47 33 79.5t80 32.5q49 0 81 -32.5t32 -79.5q0 -49 -32 -81t-81 -32z" />
<glyph unicode="&#x30a;" horiz-adv-x="2" d="M-362 1120q-35 0 -67 13.5t-56.5 37t-40 55t-15.5 68.5q0 76 54.5 126t124.5 50t124 -50t54 -126q0 -37 -15.5 -68.5t-40 -55t-56 -37t-66.5 -13.5zM-362 1196q41 0 65.5 28.5t24.5 69.5q0 43 -25 72t-65 29q-41 0 -66 -29t-25 -72q0 -41 25 -69.5t66 -28.5z" />
<glyph unicode="&#x30b;" horiz-adv-x="2" d="M-692 1194l260 252l102 -117l-313 -192zM-373 1194l258 252l103 -117l-314 -192z" />
<glyph unicode="&#x30c;" horiz-adv-x="2" d="M-643 1415l61 55l217 -188l273 188l49 -55l-348 -299z" />
<glyph unicode="&#x312;" horiz-adv-x="2" d="M-201 1485q-47 -41 -73.5 -92.5t-26.5 -116.5q0 -31 8 -57.5t19 -44.5l-166 -60q-20 45 -21 105q0 51 20.5 97t52.5 86t72 70.5t78 49.5z" />
<glyph unicode="&#x313;" horiz-adv-x="2" d="M-428 907q47 41 73.5 92.5t26.5 116.5q0 31 -8 57.5t-18 45.5l166 59q20 -45 20 -104q0 -51 -20.5 -97.5t-53 -86.5t-71.5 -70.5t-78 -49.5z" />
<glyph unicode="&#x326;" horiz-adv-x="2" d="M-385 -438q47 41 73.5 92t26.5 117q0 31 -8 57.5t-18 44.5l166 59q20 -45 20 -104q0 -51 -20.5 -97t-53 -86t-71.5 -71t-78 -49z" />
<glyph unicode="&#x327;" horiz-adv-x="2" d="M-428 -424q-20 0 -49 4t-47 10l14 68q16 -8 44 -13t50 -5q53 0 91 28.5t38 73.5q0 35 -32.5 58.5t-104.5 27.5l78 184h78l-43 -104q66 -6 109.5 -42t43.5 -89q0 -92 -73.5 -146.5t-196.5 -54.5z" />
<glyph unicode="&#x328;" horiz-adv-x="2" d="M-350 -424q-90 0 -135 48t-45 118q0 43 20.5 85t52 80t70.5 68.5t76 51.5h61l-51 -54q-27 -29 -50.5 -61.5t-37.5 -69.5t-14 -75q0 -43 24.5 -73t75.5 -30q68 0 110 23l-4 -58q-23 -23 -62.5 -38t-90.5 -15z" />
<glyph unicode="&#x394;" horiz-adv-x="1214" d="M-41 82l727 1210h105l325 -1204l-14 -88h-1155zM909 123l-252 942l-569 -942h821z" />
<glyph unicode="&#x3a9;" horiz-adv-x="1384" d="M45 121q0 59 -6 139h74q10 -57 28.5 -86t77.5 -29l215 -2l15 95q-147 39 -234.5 147.5t-87.5 267.5q0 141 55.5 260t149.5 206t219 135.5t266 48.5q117 0 212 -32t163 -90.5t104.5 -142.5t36.5 -188q0 -111 -36.5 -211t-101.5 -181t-154 -138.5t-193 -81.5l-14 -95l219 2 q59 0 86.5 29t54.5 86h74q-29 -80 -47.5 -139.5t-34.5 -120.5h-479l49 319q80 14 143.5 66.5t109.5 128.5t70.5 168t24.5 188q0 160 -82 245t-223 85q-104 0 -186.5 -46t-139.5 -124t-87 -179t-30 -212q0 -133 56.5 -213t156.5 -107l-51 -319h-473v121z" />
<glyph unicode="&#x3bc;" horiz-adv-x="1126" d="M29 -397l45 222q25 120 41 230l102 643q4 16 6 43t2 39q0 39 -23.5 56.5t-90.5 33.5l10 62q182 31 346 88l-105 -658q-6 -41 -8 -63.5t-2 -44.5q0 -53 21.5 -85t81.5 -32q70 0 133 46t112 96l109 704l207 37l-119 -756l-7 -51q-3 -23 -3 -45q0 -70 65 -70q29 0 53.5 9.5 t49.5 25.5l22 -47q-41 -39 -100 -72.5t-141 -33.5q-72 0 -107 38.5t-35 106.5v27q0 18 4 34h-2q-23 -35 -56.5 -70.5t-75.5 -65.5t-90 -49t-99 -19q-29 0 -54.5 7t-46.5 17l-9 -101q-5 -54 -11 -107.5t-13 -103.5l-14 -91h-198z" />
<glyph unicode="&#x3c0;" horiz-adv-x="1335" d="M924 -20q-72 0 -113 37.5t-41 113.5q0 47 12.5 125t33 173t46 199.5t53.5 205.5h-370l-168 -834h-72q-39 0 -79 -1t-80 -3t-70 -6v65q100 18 144 69.5t67 160.5l121 549h-62q-57 0 -106.5 -19.5t-83.5 -91.5l-52 31q14 47 37 92t55.5 78.5t76.5 54t104 20.5h938l-64 -165 h-211l-69 -361q-29 -156 -29 -235q0 -51 21.5 -76t58.5 -25q29 0 57.5 17.5t50.5 52.5l52 -31q-18 -35 -45 -70.5t-60 -63.5t-71.5 -45t-81.5 -17z" />
<glyph unicode="&#x2000;" horiz-adv-x="860" />
<glyph unicode="&#x2001;" horiz-adv-x="1720" />
<glyph unicode="&#x2002;" horiz-adv-x="860" />
<glyph unicode="&#x2003;" horiz-adv-x="1720" />
<glyph unicode="&#x2004;" horiz-adv-x="573" />
<glyph unicode="&#x2005;" horiz-adv-x="430" />
<glyph unicode="&#x2006;" horiz-adv-x="286" />
<glyph unicode="&#x2007;" />
<glyph unicode="&#x2008;" horiz-adv-x="575" />
<glyph unicode="&#x2009;" horiz-adv-x="344" />
<glyph unicode="&#x200a;" horiz-adv-x="94" />
<glyph unicode="&#x200b;" horiz-adv-x="0" />
<glyph unicode="&#x2010;" horiz-adv-x="737" d="M141 621h469l-18 -121h-469z" />
<glyph unicode="&#x2011;" horiz-adv-x="737" d="M141 621h469l-18 -121h-469z" />
<glyph unicode="&#x2012;" horiz-adv-x="737" d="M141 621h469l-18 -121h-469z" />
<glyph unicode="&#x2013;" horiz-adv-x="1112" d="M119 623h885l-19 -138h-885z" />
<glyph unicode="&#x2014;" horiz-adv-x="1802" d="M119 623h1575l-21 -138h-1573z" />
<glyph unicode="&#x2018;" horiz-adv-x="468" d="M541 1405q-59 -55 -99.5 -125t-40.5 -156q0 -41 9.5 -75.5t23.5 -59.5l-207 -76q-27 57 -26 138q0 68 26.5 129t69.5 113.5t95 92t102 64.5z" />
<glyph unicode="&#x2019;" horiz-adv-x="468" d="M137 958q59 55 99 125t40 156q0 41 -9 76t-23 59l207 76q27 -57 26 -137q0 -68 -26.5 -129.5t-69.5 -113.5t-95.5 -92t-101.5 -65z" />
<glyph unicode="&#x201a;" horiz-adv-x="468" d="M-53 -227q59 55 99 124.5t40 155.5q0 41 -9 76t-24 59l207 76q27 -57 27 -137q0 -68 -27 -129t-70 -113.5t-95 -92.5t-101 -64z" />
<glyph unicode="&#x201c;" horiz-adv-x="854" d="M926 1405q-59 -55 -99.5 -125t-40.5 -156q0 -41 9.5 -75.5t23.5 -59.5l-207 -76q-27 57 -26 138q0 68 26.5 129t69.5 113.5t95 92t102 64.5zM541 1405q-59 -55 -99.5 -125t-40.5 -156q0 -41 9.5 -75.5t23.5 -59.5l-207 -76q-27 57 -26 138q0 68 26.5 129t69.5 113.5 t95 92t102 64.5z" />
<glyph unicode="&#x201d;" horiz-adv-x="854" d="M137 958q59 55 99 125t40 156q0 41 -9 76t-23 59l207 76q27 -57 26 -137q0 -68 -26.5 -129.5t-69.5 -113.5t-95.5 -92t-101.5 -65zM522 958q59 55 99.5 125t40.5 156q0 41 -9.5 76t-23.5 59l207 76q27 -57 26 -137q0 -68 -26.5 -129.5t-69.5 -113.5t-95.5 -92t-101.5 -65 z" />
<glyph unicode="&#x201e;" horiz-adv-x="854" d="M332 -227q59 55 99 124.5t40 155.5q0 41 -9 76t-24 59l207 76q27 -57 27 -137q0 -68 -27 -129t-70 -113.5t-95 -92.5t-101 -64zM-53 -227q59 55 99 124.5t40 155.5q0 41 -9 76t-24 59l207 76q27 -57 27 -137q0 -68 -27 -129t-70 -113.5t-95 -92.5t-101 -64z" />
<glyph unicode="&#x2020;" horiz-adv-x="1146" d="M477 528l88 310l-215 -27h-217l21 141h217l209 -26l6 258l39 246h157l-39 -246l-75 -258l215 26h215l-21 -141h-215l-209 27l-10 -312l-184 -923h-88z" />
<glyph unicode="&#x2021;" horiz-adv-x="1146" d="M393 -113l74 258l-215 -26h-217l20 139h217l209 -27l6 297l88 310l-217 -27h-217l23 141h217l209 -26l6 258l37 246h158l-39 -246l-74 -258l215 26h215l-23 -141h-215l-206 27l-11 -312l-84 -295l215 27h215l-20 -139h-215l-209 26l-6 -258l-43 -284h-158z" />
<glyph unicode="&#x2022;" horiz-adv-x="847" d="M424 299q-55 0 -105.5 20.5t-87 57.5t-58 86t-21.5 104q0 57 21.5 107.5t58 87.5t87 58.5t105.5 21.5t105.5 -21.5t87 -58.5t58 -87t21.5 -108q0 -55 -21.5 -104t-58 -86t-87 -57.5t-105.5 -20.5z" />
<glyph unicode="&#x2026;" horiz-adv-x="1495" d="M227 -20q-57 0 -97 40.5t-40 96.5q0 57 40 97t97 40q55 0 95 -40t40 -97q0 -55 -40 -96t-95 -41zM686 -20q-57 0 -97 40.5t-40 96.5q0 57 40 97t97 40q55 0 95 -40t40 -97q0 -55 -40 -96t-95 -41zM1147 -20q-57 0 -97 40.5t-40 96.5q0 57 40 97t97 40q55 0 95 -40t40 -97 q0 -55 -40 -96t-95 -41z" />
<glyph unicode="&#x202f;" horiz-adv-x="344" />
<glyph unicode="&#x2030;" d="M281 752q-96 0 -152.5 55t-56.5 151q0 70 22.5 133.5t63.5 109.5t98 74t129 28q98 0 154.5 -54.5t56.5 -150.5q0 -72 -22.5 -134.5t-64.5 -109.5t-100 -74.5t-128 -27.5zM301 836q39 0 70.5 22.5t53 58t34 80.5t12.5 93q0 131 -104 131q-39 0 -71 -22.5t-54.5 -58.5 t-34.5 -81t-12 -92q0 -66 28.5 -98.5t77.5 -32.5zM152 -23q-96 0 -152.5 55.5t-56.5 149.5q0 72 22.5 134.5t63.5 109.5t98 74.5t129 27.5q98 0 154.5 -54t56.5 -150q0 -72 -22.5 -134.5t-64.5 -109.5t-100 -75t-128 -28zM174 61q39 0 69.5 22.5t52 58.5t34 81t12.5 92 q0 129 -104 129q-39 0 -71 -22.5t-54.5 -57t-34.5 -80.5t-12 -91q0 -66 29.5 -99t78.5 -33zM768 -23q-96 0 -151.5 55.5t-55.5 149.5q0 72 22.5 134.5t63.5 109.5t98.5 74.5t128.5 27.5q98 0 153.5 -54t55.5 -150q0 -72 -22.5 -134.5t-64.5 -109.5t-100 -75t-128 -28z M791 61q39 0 70.5 22.5t53 58.5t34 81t12.5 92q0 129 -107 129q-39 0 -70.5 -22.5t-54 -57t-35 -80.5t-12.5 -91q0 -66 30 -99t79 -33zM0 666l1108 125l12 -109l-1108 -123z" />
<glyph unicode="&#x2039;" horiz-adv-x="679" d="M657 860l-340 -371l220 -354l-60 -49l-371 414l502 413z" />
<glyph unicode="&#x203a;" horiz-adv-x="679" d="M33 143l340 371l-219 354l59 50l371 -414l-502 -414z" />
<glyph unicode="&#x2044;" horiz-adv-x="288" d="M-395 -25l1057 1352l75 -59l-1056 -1348z" />
<glyph unicode="&#x205f;" horiz-adv-x="430" />
<glyph unicode="&#x2070;" horiz-adv-x="731" d="M373 590q-127 0 -193.5 70.5t-66.5 189.5q0 92 26.5 175t75.5 144.5t121 97.5t162 36q129 0 194.5 -72t65.5 -189q0 -94 -26.5 -176t-77 -143t-122 -97t-159.5 -36zM385 672q53 0 92 35.5t63.5 93t37 126t12.5 134.5q0 86 -27.5 122t-81.5 36q-53 0 -91 -36t-62.5 -92.5 t-36.5 -128t-12 -143.5q0 -80 28.5 -113.5t77.5 -33.5z" />
<glyph unicode="&#x2074;" horiz-adv-x="708" d="M408 743h-349l13 74l444 483h131l-72 -440h138l-35 -117h-119l-20 -137h-152zM426 860l45 283l-264 -283h219z" />
<glyph unicode="&#x2075;" horiz-adv-x="620" d="M291 1167l-33 -114q10 2 29.5 3t36.5 1q115 0 183 -54.5t68 -140.5q0 -59 -28.5 -109.5t-78.5 -86t-119.5 -56t-149.5 -20.5q-29 0 -66 2t-61 6l28 82q16 -4 45 -6t50 -2q94 0 153.5 42t59.5 107q0 43 -44.5 74t-125.5 31q-43 0 -93 -6l88 370h281q33 0 48.5 11.5 t25.5 33.5h55l-49 -168h-303z" />
<glyph unicode="&#x2076;" horiz-adv-x="679" d="M453 1036q88 0 144 -46t56 -132q0 -51 -22.5 -99t-63.5 -85t-102.5 -59.5t-136.5 -22.5q-115 0 -171.5 67.5t-56.5 171.5q0 98 37 183.5t101.5 149t152.5 100t189 36.5q31 0 57.5 -2t48.5 -8l-22 -78q-33 8 -80 9q-98 0 -176 -61.5t-115 -172.5q35 23 77 36t83 13z M266 809q0 -68 21.5 -103.5t70.5 -35.5q27 0 50.5 14t41 37.5t27.5 53.5t10 61q0 47 -23.5 75.5t-72.5 28.5q-31 0 -61.5 -9t-57.5 -26q-6 -47 -6 -96z" />
<glyph unicode="&#x2077;" horiz-adv-x="591" d="M125 614q80 158 180.5 301.5t200.5 253.5h-238q-37 0 -57.5 -18t-32.5 -51h-59l61 190h490l-8 -59q-131 -154 -227.5 -317.5t-164.5 -325.5z" />
<glyph unicode="&#x2078;" horiz-adv-x="677" d="M88 739q0 33 16.5 62.5t44 54.5t62.5 46.5t74 37.5q-45 29 -77 64.5t-32 91.5q0 41 23.5 78.5t64.5 66.5t95.5 45.5t113.5 16.5q117 0 166 -39t49 -93q0 -33 -15.5 -59.5t-42 -50t-59 -40.5t-65.5 -32q27 -14 52.5 -29.5t46 -36t32.5 -47t12 -61.5q0 -51 -28.5 -92 t-74.5 -70.5t-106.5 -46t-124.5 -16.5q-119 0 -173 45t-54 104zM481 774q0 41 -34.5 69.5t-81.5 53.5q-53 -23 -93.5 -60.5t-40.5 -82.5q0 -39 31 -63.5t80 -24.5q53 0 96 30.5t43 77.5zM344 1135q0 -37 21.5 -60.5t56.5 -44.5q57 20 88 54t31 69q0 31 -21.5 52.5 t-66.5 21.5q-47 0 -78 -26.5t-31 -65.5z" />
<glyph unicode="&#x2079;" horiz-adv-x="684" d="M354 858q-88 0 -143 46t-55 130q0 51 21.5 99.5t63.5 85t101 59t137 22.5q117 0 173.5 -66.5t56.5 -170.5q0 -98 -37 -184t-101.5 -149.5t-152.5 -100.5t-189 -37q-33 0 -58.5 2t-49.5 10l22 78q35 -8 80 -8q98 0 175 60.5t114 170.5q-35 -23 -77 -35t-81 -12zM541 1083 q0 70 -20.5 106t-71.5 36q-25 0 -48.5 -14.5t-42 -38t-29 -53t-10.5 -60.5q0 -47 25 -76t74 -29q29 0 59.5 8.5t54.5 24.5q9 41 9 96z" />
<glyph unicode="&#x2080;" horiz-adv-x="731" d="M223 -362q-127 0 -193.5 70.5t-66.5 189.5q0 92 26.5 175t76 144.5t121 97t161.5 35.5q129 0 194.5 -71.5t65.5 -188.5q0 -94 -26.5 -176t-76.5 -143.5t-122 -97t-160 -35.5zM236 -281q53 0 92 36t63.5 93.5t36.5 126t12 134.5q0 86 -27.5 121.5t-80.5 35.5t-91 -35.5 t-62.5 -92t-37 -128t-12.5 -143.5q0 -80 29 -114t78 -34z" />
<glyph unicode="&#x2081;" horiz-adv-x="577" d="M49 227l332 135l-84 -536q-10 -63 -4 -77.5t26 -16.5l99 -11l-10 -57q-18 0 -48 1l-59 2l-59 2q-29 1 -49 1q-23 0 -53 -1l-61 -2q-32 -1 -60.5 -2t-47.5 -1l11 57l102 11q20 2 31.5 16t21.5 78l56 344q2 25 -17 25q-6 0 -16 -2.5t-21 -6.5l-94 -24z" />
<glyph unicode="&#x2082;" horiz-adv-x="708" d="M-45 -279q49 39 116.5 85.5t129 96.5t104.5 107.5t43 118.5q0 47 -31.5 75.5t-87.5 28.5q-43 0 -79.5 -13t-81.5 -40l-11 64q41 35 107.5 65.5t148.5 30.5q98 0 152.5 -45t54.5 -123q0 -61 -30.5 -116.5t-82 -105.5t-115 -95t-130.5 -82q25 0 91 1t136 1q35 0 54.5 18.5 t37.5 56.5h66q-23 -49 -41.5 -99t-32.5 -97h-528z" />
<glyph unicode="&#x2083;" horiz-adv-x="636" d="M-20 -258q25 -8 55.5 -14.5t58.5 -6.5q92 0 137 40t45 102q0 47 -50 75.5t-146 28.5l12 66q98 4 149.5 45t51.5 100q0 31 -22.5 50.5t-61.5 19.5q-43 0 -78 -8.5t-70 -28.5l-8 63q35 27 91.5 51.5t129.5 24.5q92 0 140.5 -37t48.5 -94q0 -35 -13.5 -63.5t-35 -52t-48 -41 t-53.5 -25.5v-4q57 -10 97.5 -49t40.5 -93q0 -59 -29 -105t-78 -80t-116.5 -51t-145.5 -17q-35 0 -70 4t-63 14z" />
<glyph unicode="&#x2084;" horiz-adv-x="708" d="M258 -213h-348l12 74l445 483h131l-72 -440h137l-35 -117h-118l-21 -137h-151zM276 -96l46 282l-265 -282h219z" />
<glyph unicode="&#x2085;" horiz-adv-x="620" d="M141 215l-32 -115q10 2 29.5 3t35.5 1q115 0 183.5 -54t68.5 -140q0 -59 -28.5 -109.5t-79 -86.5t-120 -56t-149.5 -20q-29 0 -65.5 2t-61.5 6l29 82q16 -4 45 -6.5t49 -2.5q94 0 153.5 42t59.5 108q0 43 -44 73.5t-126 30.5q-43 0 -92 -6l88 371h281q33 0 48 11t25 34 h56l-50 -168h-303z" />
<glyph unicode="&#x2086;" horiz-adv-x="679" d="M303 84q88 0 144.5 -46t56.5 -132q0 -51 -22.5 -99.5t-63.5 -85t-102.5 -59t-137.5 -22.5q-115 0 -171 67.5t-56 171.5q0 98 37 183t101.5 148.5t152.5 100.5t188 37q31 0 57.5 -2t49.5 -8l-23 -78q-33 8 -80 8q-98 0 -176 -61.5t-115 -171.5q35 23 77 36t83 13z M117 -143q0 -68 21.5 -104t70.5 -36q27 0 50.5 14.5t40.5 38t27.5 53.5t10.5 60q0 47 -23.5 76t-72.5 29q-31 0 -61.5 -9.5t-57.5 -25.5q-6 -47 -6 -96z" />
<glyph unicode="&#x2087;" horiz-adv-x="591" d="M-25 -338q80 158 180.5 301t200.5 254h-237q-37 0 -57.5 -18.5t-32.5 -51.5h-60l62 191h489l-8 -59q-131 -154 -227.5 -318t-163.5 -326z" />
<glyph unicode="&#x2088;" horiz-adv-x="677" d="M-61 -213q0 33 16 62.5t44 54t62.5 46t73.5 38.5q-45 29 -76.5 64.5t-31.5 90.5q0 41 23.5 79t64.5 66.5t95 45t114 16.5q117 0 166 -39t49 -92q0 -33 -15.5 -59.5t-42 -50t-59.5 -41t-66 -31.5q27 -14 52.5 -29.5t46 -36t33 -47t12.5 -61.5q0 -51 -29 -92t-75 -71 t-106.5 -46t-123.5 -16q-119 0 -173 45t-54 104zM332 -178q0 41 -35 69.5t-82 53.5q-53 -23 -93 -61t-40 -83q0 -39 30.5 -63.5t80.5 -24.5q53 0 96 31t43 78zM195 182q0 -37 21.5 -60.5t55.5 -43.5q57 20 88 54t31 69q0 31 -21.5 52t-66.5 21q-47 0 -77.5 -26.5 t-30.5 -65.5z" />
<glyph unicode="&#x2089;" horiz-adv-x="684" d="M205 -94q-88 0 -143.5 46t-55.5 130q0 51 21.5 99t63.5 85t101.5 59.5t137.5 22.5q117 0 173 -66.5t56 -170.5q0 -98 -37 -184.5t-101.5 -150t-152.5 -100t-188 -36.5q-33 0 -58.5 2t-50.5 10l23 78q35 -8 80 -9q98 0 175 60.5t113 171.5q-35 -23 -76.5 -35t-80.5 -12z M391 131q0 70 -20.5 105.5t-71.5 35.5q-25 0 -48.5 -14t-42 -37.5t-28.5 -53.5t-10 -61q0 -47 24.5 -75.5t73.5 -28.5q29 0 59.5 8t55.5 25q8 41 8 96z" />
<glyph unicode="&#x20ac;" d="M43 829h131q37 102 97.5 189.5t139 150t173 98.5t202.5 36q90 0 171 -18.5t143 -41.5l-17.5 -137t-15.5 -137h-82q-2 111 -54 171t-169 60q-72 0 -130.5 -27.5t-105.5 -76.5t-82.5 -118t-58.5 -149h465l-14 -84h-471q-10 -51 -15.5 -103t-7.5 -105h461l-15 -86h-446 q4 -82 23.5 -151t53.5 -119t83 -78.5t114 -28.5q123 0 189.5 59.5t95.5 169.5h84q-18 -86 -30.5 -155.5t-20.5 -127.5q-59 -18 -151.5 -34.5t-204.5 -16.5q-106 0 -190.5 36t-143 99.5t-91 152.5t-38.5 194h-131l14 86h117q6 113 32 208h-118z" />
<glyph unicode="&#x2122;" horiz-adv-x="1574" d="M680 731l43 8q18 2 31.5 15.5t23.5 48.5l80 309q6 20 9 36.5t7 33.5q4 37 -24 41l-41 4l6 53q39 -2 55 -2h101q33 0 59 2l98 -424l230 424q25 -2 51 -2h96q20 0 60 2l-6 -53l-41 -4q-39 -4 -41 -56l-27 -364q-4 -33 5 -48.5t30 -19.5l28 -4l-6 -49q-39 2 -65 2h-129 q-35 0 -74 -2l6 49l41 8q33 6 37 56l25 317l-238 -430h-78l-100 436l-82 -321q-4 -25 1 -41.5t28 -20.5l30 -4l-8 -49q-39 2 -61 2h-107q-23 0 -61 -2zM233 731l50 6q16 4 28.5 15.5t18.5 48.5l61 407h-88q-31 0 -43 -10t-18 -29l-13 -47h-55q6 27 14.5 75t12.5 83 q76 -2 144.5 -3t127.5 -1q61 0 130 1t136 3l-9 -82q-5 -47 -9 -76h-55v47q0 16 -9.5 27.5t-40.5 11.5h-88l-63 -407q-4 -33 3 -46.5t26 -17.5l43 -6l-7 -49q-39 2 -81 2h-148q-35 0 -74 -2z" />
<glyph unicode="&#x2126;" horiz-adv-x="1384" d="M45 121q0 59 -6 139h74q10 -57 28.5 -86t77.5 -29l215 -2l15 95q-147 39 -234.5 147.5t-87.5 267.5q0 141 55.5 260t149.5 206t219 135.5t266 48.5q117 0 212 -32t163 -90.5t104.5 -142.5t36.5 -188q0 -111 -36.5 -211t-101.5 -181t-154 -138.5t-193 -81.5l-14 -95l219 2 q59 0 86.5 29t54.5 86h74q-29 -80 -47.5 -139.5t-34.5 -120.5h-479l49 319q80 14 143.5 66.5t109.5 128.5t70.5 168t24.5 188q0 160 -82 245t-223 85q-104 0 -186.5 -46t-139.5 -124t-87 -179t-30 -212q0 -133 56.5 -213t156.5 -107l-51 -319h-473v121z" />
<glyph unicode="&#x2153;" horiz-adv-x="1503" d="M199 1180l331 135l-84 -537q-10 -63 -3.5 -77.5t26.5 -16.5l98 -10l-10 -58q-18 0 -47 1l-59 3l-60 2q-29 1 -49 1q-23 0 -52 -1l-62 -2q-32 -1 -60.5 -2.5t-46.5 -1.5l10 58l102 10q20 2 31.5 16.5t22.5 77.5l55 344q2 25 -16 25q-6 0 -16.5 -2t-20.5 -6l-94 -25z M182 -25l1057 1352l76 -59l-1057 -1348zM901 88q25 -8 55.5 -14t59.5 -6q92 0 137 39.5t45 101.5q0 47 -50 75.5t-147 28.5l13 66q98 4 149 45t51 100q0 31 -22.5 50.5t-61.5 19.5q-43 0 -77.5 -8t-69.5 -29l-8 64q35 27 91 51t130 24q92 0 140 -36.5t48 -94.5 q0 -35 -13 -63.5t-34.5 -52t-48 -41t-53.5 -25.5v-4q57 -10 97 -49t40 -92q0 -59 -28.5 -105.5t-77.5 -80.5t-117 -51t-145 -17q-35 0 -70 4t-64 14z" />
<glyph unicode="&#x2154;" horiz-adv-x="1634" d="M104 684q49 39 117 85t129.5 96t104.5 107.5t43 119.5q0 47 -32 75.5t-87 28.5q-43 0 -80 -13.5t-82 -39.5l-10 63q41 35 107.5 66t148.5 31q98 0 152.5 -45.5t54.5 -122.5q0 -61 -31 -116.5t-82 -106t-114.5 -95.5t-131.5 -82q25 0 91.5 1t136.5 1q35 0 54 18.5t38 57.5 h65q-23 -49 -41 -99t-32 -98h-529zM313 -25l1057 1352l76 -59l-1057 -1348zM1032 88q25 -8 55.5 -14t59.5 -6q92 0 137 39.5t45 101.5q0 47 -50 75.5t-146 28.5l12 66q98 4 149.5 45t51.5 100q0 31 -23 50.5t-61 19.5q-43 0 -78 -8t-70 -29l-8 64q35 27 91 51t130 24 q92 0 140.5 -36.5t48.5 -94.5q0 -35 -13.5 -63.5t-35 -52t-48 -41t-53.5 -25.5v-4q57 -10 97 -49t40 -92q0 -59 -28.5 -105.5t-77.5 -80.5t-117 -51t-145 -17q-35 0 -70 4t-64 14z" />
<glyph unicode="&#x2155;" horiz-adv-x="1486" d="M199 1180l331 135l-84 -537q-10 -63 -3.5 -77.5t26.5 -16.5l98 -10l-10 -58q-18 0 -47 1l-59 3l-60 2q-29 1 -49 1q-23 0 -52 -1l-62 -2q-32 -1 -60.5 -2.5t-46.5 -1.5l10 58l102 10q20 2 31.5 16.5t22.5 77.5l55 344q2 25 -16 25q-6 0 -16.5 -2t-20.5 -6l-94 -25z M182 -25l1057 1352l76 -59l-1057 -1348zM1063 561l-33 -115q10 2 29.5 3.5t36.5 1.5q115 0 183.5 -54.5t68.5 -140.5q0 -59 -29 -109.5t-79 -86t-119.5 -56t-149.5 -20.5q-29 0 -66 2t-61 6l28 82q16 -4 45 -6t50 -2q94 0 153.5 42t59.5 107q0 43 -44 73.5t-126 30.5 q-43 0 -92 -6l88 371h280q33 0 48.5 11.5t25.5 33.5h55l-49 -168h-303z" />
<glyph unicode="&#x2156;" horiz-adv-x="1601" d="M104 684q49 39 117 85t129.5 96t104.5 107.5t43 119.5q0 47 -32 75.5t-87 28.5q-43 0 -80 -13.5t-82 -39.5l-10 63q41 35 107.5 66t148.5 31q98 0 152.5 -45.5t54.5 -122.5q0 -61 -31 -116.5t-82 -106t-114.5 -95.5t-131.5 -82q25 0 91.5 1t136.5 1q35 0 54 18.5t38 57.5 h65q-23 -49 -41 -99t-32 -98h-529zM295 -25l1057 1352l75 -59l-1056 -1348zM1176 561l-33 -115q10 2 29.5 3.5t35.5 1.5q115 0 183.5 -54.5t68.5 -140.5q0 -59 -28.5 -109.5t-78.5 -86t-120 -56t-150 -20.5q-29 0 -65.5 2t-61.5 6l29 82q16 -4 45 -6t49 -2q94 0 153.5 42 t59.5 107q0 43 -44 73.5t-126 30.5q-43 0 -92 -6l88 371h281q33 0 48 11.5t26 33.5h55l-49 -168h-303z" />
<glyph unicode="&#x2157;" horiz-adv-x="1474" d="M129 694q25 -8 55.5 -14t59.5 -6q92 0 137 40t45 101q0 47 -50 76t-147 29l13 65q98 4 149 45t51 100q0 31 -22.5 50.5t-61.5 19.5q-43 0 -77.5 -8t-69.5 -29l-8 64q35 27 91 51.5t130 24.5q92 0 140 -37t48 -95q0 -35 -13 -63.5t-34.5 -52t-48.5 -41t-53 -25.5v-4 q57 -10 97 -49t40 -92q0 -59 -28.5 -105.5t-78 -80t-117 -51t-145.5 -17.5q-35 0 -69.5 4t-63.5 14zM168 -25l1057 1352l75 -59l-1056 -1348zM1049 561l-33 -115q10 2 29.5 3.5t35.5 1.5q115 0 183.5 -54.5t68.5 -140.5q0 -59 -28.5 -109.5t-78.5 -86t-120 -56t-150 -20.5 q-29 0 -65.5 2t-61.5 6l29 82q16 -4 45 -6t49 -2q94 0 153.5 42t59.5 107q0 43 -44 73.5t-126 30.5q-43 0 -92 -6l88 371h281q33 0 48 11.5t26 33.5h55l-49 -168h-303z" />
<glyph unicode="&#x2158;" horiz-adv-x="1595" d="M408 743h-349l13 74l444 483h131l-72 -440h138l-35 -117h-119l-20 -137h-152zM426 860l45 283l-264 -283h219zM289 -25l1057 1352l75 -59l-1056 -1348zM1169 561l-32 -115q10 2 29.5 3.5t35.5 1.5q115 0 183.5 -54.5t68.5 -140.5q0 -59 -28.5 -109.5t-79 -86t-120 -56 t-149.5 -20.5q-29 0 -65.5 2t-61.5 6l29 82q16 -4 45 -6t49 -2q94 0 153.5 42t59.5 107q0 43 -44 73.5t-126 30.5q-43 0 -92 -6l88 371h281q33 0 48 11.5t25 33.5h56l-49 -168h-304z" />
<glyph unicode="&#x2159;" horiz-adv-x="1548" d="M199 1180l331 135l-84 -537q-10 -63 -3.5 -77.5t26.5 -16.5l98 -10l-10 -58q-18 0 -47 1l-59 3l-60 2q-29 1 -49 1q-23 0 -52 -1l-62 -2q-32 -1 -60.5 -2.5t-46.5 -1.5l10 58l102 10q20 2 31.5 16.5t22.5 77.5l55 344q2 25 -16 25q-6 0 -16.5 -2t-20.5 -6l-94 -25z M182 -25l1057 1352l76 -59l-1057 -1348zM1225 430q88 0 144 -46t56 -132q0 -51 -22.5 -99.5t-63.5 -85t-102 -59t-137 -22.5q-115 0 -171.5 67.5t-56.5 171.5q0 98 37 183.5t101.5 149t152.5 100t189 36.5q31 0 57.5 -2t48.5 -8l-22 -78q-33 8 -80 8q-98 0 -176 -61 t-115 -172q35 23 77 36t83 13zM1038 203q0 -68 21.5 -104t70.5 -36q27 0 50.5 14.5t41 38t28 53.5t10.5 60q0 47 -24 76t-73 29q-31 0 -61.5 -9.5t-57.5 -25.5q-6 -47 -6 -96z" />
<glyph unicode="&#x215a;" horiz-adv-x="1568" d="M291 1167l-33 -114q10 2 29.5 3t36.5 1q115 0 183 -54.5t68 -140.5q0 -59 -28.5 -109.5t-78.5 -86t-119.5 -56t-149.5 -20.5q-29 0 -66 2t-61 6l28 82q16 -4 45 -6t50 -2q94 0 153.5 42t59.5 107q0 43 -44.5 74t-125.5 31q-43 0 -93 -6l88 370h281q33 0 48.5 11.5 t25.5 33.5h55l-49 -168h-303zM203 -25l1057 1352l75 -59l-1056 -1348zM1245 430q88 0 144.5 -46t56.5 -132q0 -51 -22.5 -99.5t-63.5 -85t-102.5 -59t-137.5 -22.5q-115 0 -171 67.5t-56 171.5q0 98 37 183.5t101.5 149t152.5 100t188 36.5q31 0 57.5 -2t49.5 -8l-23 -78 q-33 8 -80 8q-98 0 -176 -61t-115 -172q35 23 77 36t83 13zM1059 203q0 -68 21.5 -104t70.5 -36q27 0 50.5 14.5t41 38t27.5 53.5t10 60q0 47 -23.5 76t-72.5 29q-31 0 -61.5 -9.5t-57.5 -25.5q-6 -47 -6 -96z" />
<glyph unicode="&#x215b;" horiz-adv-x="1544" d="M199 1180l331 135l-84 -537q-10 -63 -3.5 -77.5t26.5 -16.5l98 -10l-10 -58q-18 0 -47 1l-59 3l-60 2q-29 1 -49 1q-23 0 -52 -1l-62 -2q-32 -1 -60.5 -2.5t-46.5 -1.5l10 58l102 10q20 2 31.5 16.5t22.5 77.5l55 344q2 25 -16 25q-6 0 -16.5 -2t-20.5 -6l-94 -25z M182 -25l1057 1352l76 -59l-1057 -1348zM860 133q0 33 16.5 62.5t44 54t62.5 46t74 38.5q-45 29 -77 64.5t-32 90.5q0 41 23.5 79t64.5 67t95.5 45t113.5 16q117 0 166 -39t49 -92q0 -33 -15 -59.5t-42 -50t-59.5 -41t-65.5 -31.5q27 -14 52.5 -29.5t46 -36t32.5 -47 t12 -61.5q0 -51 -28.5 -92t-74.5 -71t-106.5 -46t-124.5 -16q-119 0 -173 45t-54 104zM1253 168q0 41 -34.5 69.5t-81.5 53.5q-53 -23 -93 -60.5t-40 -83.5q0 -39 30.5 -63.5t79.5 -24.5q53 0 96 31t43 78zM1116 528q0 -37 21.5 -60.5t56.5 -43.5q57 20 88 54t31 69 q0 31 -21.5 52.5t-66.5 21.5q-47 0 -78 -27t-31 -66z" />
<glyph unicode="&#x215c;" horiz-adv-x="1583" d="M129 694q25 -8 55.5 -14t59.5 -6q92 0 137 40t45 101q0 47 -50 76t-147 29l13 65q98 4 149 45t51 100q0 31 -22.5 50.5t-61.5 19.5q-43 0 -77.5 -8t-69.5 -29l-8 64q35 27 91 51.5t130 24.5q92 0 140 -37t48 -95q0 -35 -13 -63.5t-34.5 -52t-48.5 -41t-53 -25.5v-4 q57 -10 97 -49t40 -92q0 -59 -28.5 -105.5t-78 -80t-117 -51t-145.5 -17.5q-35 0 -69.5 4t-63.5 14zM219 -25l1057 1352l76 -59l-1057 -1348zM897 133q0 33 16.5 62.5t44 54t62.5 46t74 38.5q-45 29 -77 64.5t-32 90.5q0 41 23.5 79t64.5 67t95.5 45t113.5 16q117 0 166 -39 t49 -92q0 -33 -15.5 -59.5t-42 -50t-59 -41t-65.5 -31.5q27 -14 52.5 -29.5t46 -36t32.5 -47t12 -61.5q0 -51 -28.5 -92t-74.5 -71t-106.5 -46t-124.5 -16q-119 0 -173 45t-54 104zM1290 168q0 41 -34.5 69.5t-81.5 53.5q-53 -23 -93.5 -60.5t-40.5 -83.5q0 -39 31 -63.5 t80 -24.5q53 0 96 31t43 78zM1153 528q0 -37 21.5 -60.5t56.5 -43.5q57 20 88 54t31 69q0 31 -21.5 52.5t-66.5 21.5q-47 0 -78 -27t-31 -66z" />
<glyph unicode="&#x215d;" horiz-adv-x="1560" d="M291 1167l-33 -114q10 2 29.5 3t36.5 1q115 0 183 -54.5t68 -140.5q0 -59 -28.5 -109.5t-78.5 -86t-119.5 -56t-149.5 -20.5q-29 0 -66 2t-61 6l28 82q16 -4 45 -6t50 -2q94 0 153.5 42t59.5 107q0 43 -44.5 74t-125.5 31q-43 0 -93 -6l88 370h281q33 0 48.5 11.5 t25.5 33.5h55l-49 -168h-303zM199 -25l1056 1352l76 -59l-1057 -1348zM874 133q0 33 16.5 62.5t44.5 54t62.5 46t73.5 38.5q-45 29 -76.5 64.5t-31.5 90.5q0 41 23.5 79t64.5 67t95 45t114 16q117 0 166 -39t49 -92q0 -33 -15.5 -59.5t-42 -50t-59.5 -41t-66 -31.5 q27 -14 52.5 -29.5t46 -36t33 -47t12.5 -61.5q0 -51 -29 -92t-75 -71t-106.5 -46t-123.5 -16q-119 0 -173.5 45t-54.5 104zM1268 168q0 41 -35 69.5t-82 53.5q-53 -23 -93 -60.5t-40 -83.5q0 -39 30.5 -63.5t79.5 -24.5q53 0 96.5 31t43.5 78zM1130 528q0 -37 22 -60.5 t56 -43.5q57 20 88 54t31 69q0 31 -21.5 52.5t-66.5 21.5q-47 0 -78 -27t-31 -66z" />
<glyph unicode="&#x215e;" horiz-adv-x="1437" d="M125 614q80 158 180.5 301.5t200.5 253.5h-238q-37 0 -57.5 -18t-32.5 -51h-59l61 190h490l-8 -59q-131 -154 -227.5 -317.5t-164.5 -325.5zM76 -25l1057 1352l75 -59l-1056 -1348zM754 133q0 33 16 62.5t44 54t62.5 46t73.5 38.5q-45 29 -76.5 64.5t-31.5 90.5 q0 41 23.5 79t64.5 67t95 45t114 16q117 0 166 -39t49 -92q0 -33 -15.5 -59.5t-42 -50t-59.5 -41t-66 -31.5q27 -14 52.5 -29.5t46 -36t33 -47t12.5 -61.5q0 -51 -29 -92t-75 -71t-106.5 -46t-123.5 -16q-119 0 -173 45t-54 104zM1147 168q0 41 -35 69.5t-82 53.5 q-53 -23 -93 -60.5t-40 -83.5q0 -39 30.5 -63.5t80.5 -24.5q53 0 96 31t43 78zM1010 528q0 -37 21.5 -60.5t55.5 -43.5q57 20 88 54t31 69q0 31 -21.5 52.5t-66.5 21.5q-47 0 -77.5 -27t-30.5 -66z" />
<glyph unicode="&#x215f;" horiz-adv-x="866" d="M199 1180l331 135l-84 -537q-10 -63 -3.5 -77.5t26.5 -16.5l98 -10l-10 -58q-18 0 -47 1l-59 3l-60 2q-29 1 -49 1q-23 0 -52 -1l-62 -2q-32 -1 -60.5 -2.5t-46.5 -1.5l10 58l102 10q20 2 31.5 16.5t22.5 77.5l55 344q2 25 -16 25q-6 0 -16.5 -2t-20.5 -6l-94 -25z M182 -25l1057 1352l76 -59l-1057 -1348z" />
<glyph unicode="&#x2202;" horiz-adv-x="1081" d="M453 -29q-74 0 -138.5 24.5t-112.5 72t-75 117t-27 161.5q0 125 39 224.5t102.5 169t145.5 105.5t168 36q80 0 141.5 -29t98.5 -68q2 23 3 40.5t1 37.5q0 76 -11.5 136.5t-42 103.5t-88 65.5t-149.5 22.5q-20 0 -50 -3t-61.5 -9.5t-60.5 -14.5t-49 -18l-17 123 q49 16 119 25.5t123 9.5q125 0 218 -37t156.5 -106.5t95.5 -167t32 -220.5q0 -147 -35 -290.5t-105.5 -257t-175 -183.5t-245.5 -70zM485 76q80 0 134.5 57t88 144.5t51 192.5t23.5 204q-27 33 -80 61.5t-108 28.5q-63 0 -112.5 -31t-84.5 -86t-53 -132t-18 -169 q0 -133 40.5 -201.5t118.5 -68.5z" />
<glyph unicode="&#x2206;" horiz-adv-x="1214" d="M-41 82l727 1210h105l325 -1204l-14 -88h-1155zM909 123l-252 942l-569 -942h821z" />
<glyph unicode="&#x220f;" horiz-adv-x="1669" d="M86 -231l74 12q20 2 35.5 10t25.5 26.5t16.5 49.5t6.5 78v1345q0 47 -6.5 78t-16.5 48.5t-25.5 25.5t-35.5 12l-74 12v64q12 0 49 -1t85 -2t104.5 -1t108.5 -1t93 -1h559q33 0 108 1l155 2q80 1 148.5 2t86.5 1v-64l-76 -12q-20 -4 -35.5 -12t-26.5 -25.5t-16.5 -48.5 t-5.5 -78l2 -1345q0 -47 5.5 -78t16.5 -49.5t26.5 -26.5t35.5 -10l74 -12v-64q-18 0 -50 1t-68 2l-73 2q-38 1 -71 1t-72 -1l-75 -2q-37 -1 -69 -2t-50 -1v64l73 12q20 2 36 10t26 26.5t16 49.5t6 78v1468h-755v-1468q0 -47 5 -78t16 -49.5t26.5 -26.5t36.5 -10l73 -12v-64 q-18 0 -50 1t-68 2l-75 2q-38 1 -71 1q-35 0 -72 -1l-74 -2q-36 -1 -68 -2t-50 -1v64z" />
<glyph unicode="&#x2211;" horiz-adv-x="1339" d="M1223 -283q-29 2 -73 3l-91 2q-47 1 -89 2.5t-67 1.5h-670q-41 0 -85 -1t-78 -1v67l606 803l-602 866v64q18 0 56 -1t82 -2t87 -1h524q49 0 106.5 1t109 2t92 3t59.5 4q0 -35 3 -76l6 -83q3 -42 7 -81t8 -67h-67l-33 112q-10 35 -34.5 57.5t-78.5 22.5l-639 4l510 -741 l-587 -787l759 3q53 0 80 19t41 60l37 123h68l-15 -98q-8 -57 -15 -112.5t-12 -102t-5 -66.5z" />
<glyph unicode="&#x2212;" d="M137 600h809v-119h-809v119z" />
<glyph unicode="&#x2215;" d="M901 1479l98 -47l-815 -1655l-100 49z" />
<glyph unicode="&#x2219;" d="M543 299q-55 0 -105.5 20.5t-87.5 57.5t-58.5 86t-21.5 104q0 57 21.5 107.5t58.5 87.5t87 58.5t106 21.5q55 0 105 -21.5t87 -58.5t58.5 -87t21.5 -108q0 -55 -21.5 -104t-58.5 -86t-87 -57.5t-105 -20.5z" />
<glyph unicode="&#x221a;" horiz-adv-x="1038" d="M197 655h-162l10 117h256l158 -571h4l565 1192l115 -43l-662 -1352h-102z" />
<glyph unicode="&#x221e;" horiz-adv-x="1595" d="M1208 223q-53 0 -97 12.5t-91 39t-100.5 69.5t-120.5 105q-59 -55 -110.5 -97.5t-101.5 -70t-102.5 -41t-113.5 -13.5t-116.5 18.5t-98.5 55.5t-69 90t-26 121t28 124t74 98t104.5 65.5t119.5 23.5q51 0 95 -12t92.5 -37.5t101.5 -68.5l123 -105q57 53 107 95t100.5 70 t102.5 42t116 14q61 0 116.5 -19.5t98.5 -56t68.5 -90t25.5 -120.5q0 -66 -27.5 -123.5t-74 -99.5t-105 -65.5t-119.5 -23.5zM408 336q72 0 141 44t168 142q-61 51 -107.5 86t-83.5 56.5t-66.5 29.5t-60.5 8q-96 0 -155.5 -52t-59.5 -136q0 -47 20.5 -81t53.5 -55.5 t73 -31.5t77 -10zM1196 344q96 0 154.5 52.5t58.5 135.5q0 47 -20.5 81t-53 55.5t-72.5 31t-77 9.5t-72 -10.5t-71.5 -33t-77.5 -57.5t-93 -84q61 -51 107.5 -84.5t85.5 -55.5t69.5 -31t61.5 -9z" />
<glyph unicode="&#x222b;" horiz-adv-x="800" d="M-37 -516q-51 0 -94 9t-72 24l51 139q29 -16 73 -27.5t91 -11.5q86 0 140.5 76t70.5 194l139 1094q14 113 56.5 213t106 176t145.5 120t178 44q41 0 85 -9t73 -22l-52 -139q-31 14 -72.5 25.5t-80.5 11.5q-86 0 -143.5 -73t-73.5 -191l-140 -1094q-14 -109 -55 -209 t-103.5 -178t-144.5 -125t-178 -47z" />
<glyph unicode="&#x2248;" d="M729 178q-53 0 -106.5 26.5t-102.5 61.5q-35 25 -86 53.5t-94 28.5q-53 0 -94 -39t-64 -84l-76 51q16 35 40 71t54.5 65.5t68.5 49t83 19.5q76 0 135.5 -31.5t114.5 -72.5q33 -23 66.5 -40.5t76.5 -17.5q53 0 94.5 35t63.5 82l74 -49q-16 -35 -39 -71.5t-54.5 -67.5 t-70.5 -50.5t-84 -19.5zM729 532q-53 0 -106.5 27t-102.5 62q-35 25 -86 52t-94 27q-53 0 -94 -37.5t-64 -82.5l-76 51q16 35 40 70.5t54.5 65.5t68.5 49.5t83 19.5q76 0 135.5 -32t114.5 -73q33 -23 66.5 -41t76.5 -18q53 0 94.5 35.5t63.5 83.5l74 -50q-16 -35 -39 -71.5 t-54.5 -67.5t-70.5 -50.5t-84 -19.5z" />
<glyph unicode="&#x2260;" d="M70 733h520l172 279l96 -60l-135 -219h291v-119h-365l-117 -190h482v-119h-553l-185 -299l-98 60l148 239h-256v119h329l117 190h-446v119z" />
<glyph unicode="&#x2264;" d="M55 457v121l971 428v-127l-827 -363l827 -362v-127zM57 -94h971v-119h-971v119z" />
<glyph unicode="&#x2265;" d="M57 154l830 362l-828 363v127l969 -428v-121l-971 -430v127zM57 -94h971v-119h-971v119z" />
<glyph unicode="&#x22c5;" d="M543 436q-59 0 -101.5 42t-42.5 102q0 61 42 101t102 40q59 0 101 -40t42 -101q0 -59 -42 -101.5t-101 -42.5z" />
<glyph unicode="&#x25ca;" horiz-adv-x="1044" d="M49 670l424 698h86l426 -698l-424 -697h-86zM846 653l-340 557l-318 -526l338 -553z" />
<glyph unicode="&#xe000;" horiz-adv-x="1020" d="M0 1020h1020v-1020h-1020v1020z" />
<glyph unicode="&#xfb00;" horiz-adv-x="1236" d="M485 -416q-51 0 -100 15l41 135q23 -10 56.5 -14.5t56.5 -4.5q76 0 114.5 42t55.5 141l155 993h-407l-133 -842q-14 -90 -49 -174t-92.5 -148.5t-134.5 -103.5t-173 -39q-51 0 -100 15l41 135q23 -10 56.5 -14.5t55.5 -4.5q76 0 115 42t55 141l156 993h-154l17 108h155 q14 86 53.5 165t98.5 137.5t136 93.5t169 35q31 0 74 -8.5t69 -16.5l-41 -135q-25 10 -73.5 19t-79.5 9q-74 0 -121 -42t-63 -140l-21 -117h410q14 86 54 168t99.5 144.5t137 100.5t169.5 38q31 0 73 -8t69 -15l-39 -137q-12 6 -32.5 11.5t-42 9.5t-43 6t-36.5 2 q-76 0 -123 -42t-63 -140l-23 -138h211l-16 -108h-211l-133 -842q-14 -90 -49 -174t-92.5 -148.5t-134.5 -103.5t-173 -39z" />
<glyph unicode="&#xfb01;" horiz-adv-x="1189" d="M-125 -416q-51 0 -100 15l41 135q23 -10 56.5 -14.5t55.5 -4.5q76 0 115 42t55 141l154 993h-154l19 108h155q16 102 63.5 186.5t115 142.5t150.5 90t173 32q92 0 179 -15.5t147 -33.5l-56 -160q-59 35 -146 56.5t-179 21.5q-61 0 -101 -14.5t-65 -42t-39 -68.5t-22 -92 l-19 -103h236q100 0 201.5 5.5t181.5 23.5l-140 -752q-6 -33 -8 -54t-2 -38q0 -74 68 -73q29 0 55.5 9t50.5 25l21 -55q-41 -39 -103.5 -72.5t-148.5 -33.5q-78 0 -114 42t-36 111q0 27 5 56.5l10 58.5l79 459l7 43q4 18 4 34q0 43 -22.5 73t-94.5 30h-268l-131 -842 q-14 -90 -49 -174t-92.5 -148.5t-134.5 -103.5t-173 -39z" />
<glyph unicode="&#xfb02;" horiz-adv-x="1171" d="M-125 -416q-51 0 -100 15l41 135q23 -10 56.5 -14.5t55.5 -4.5q76 0 115 42t55 141l156 993h-154l17 108h155q16 102 60.5 186.5t106 142.5t137 90t155.5 32q74 0 132.5 -16.5t105.5 -32.5l77 22q36 10 82 27l-184 -1174q-4 -29 -6 -52t-2 -40q0 -74 70 -73q29 0 55 9 t49 25l23 -55q-41 -39 -104.5 -72.5t-149.5 -33.5q-78 0 -114 41t-36 110q0 23 4 60.5t10 66.5l131 852q4 23 7.5 54.5t3.5 48.5q0 29 -18.5 48t-48.5 30.5t-66.5 16.5t-71.5 5q-90 0 -132 -55.5t-59 -153.5l-16 -109h211l-16 -108h-211l-133 -842q-14 -90 -49 -174 t-92.5 -148.5t-134.5 -103.5t-173 -39z" />
<glyph unicode="&#xfb03;" horiz-adv-x="1800" d="M485 -416q-51 0 -100 15l41 135q23 -10 56.5 -14.5t56.5 -4.5q76 0 114.5 42t55.5 141l153 993h-407l-131 -842q-14 -90 -49 -174t-92.5 -148.5t-134.5 -103.5t-173 -39q-51 0 -100 15l41 135q23 -10 56.5 -14.5t55.5 -4.5q76 0 115 42t55 141l154 993h-154l19 108h155 q14 86 53.5 165t98.5 137.5t136 93.5t169 35q31 0 74 -8.5t69 -16.5l-41 -135q-25 10 -73.5 19t-79.5 9q-74 0 -121 -42t-63 -140l-21 -117h410q16 102 63 186.5t114.5 142.5t150.5 90t173 32q92 0 179.5 -15.5t146.5 -33.5l-55 -160q-59 35 -146.5 56.5t-179.5 21.5 q-61 0 -101 -14.5t-64.5 -42t-39 -68.5t-22.5 -92l-19 -103h236q100 0 201.5 5.5t181.5 23.5l-139 -752q-6 -33 -8.5 -54t-2.5 -38q0 -74 68 -73q29 0 55.5 9t50.5 25l21 -55q-41 -39 -103.5 -72.5t-148.5 -33.5q-78 0 -113.5 42t-35.5 111q0 27 5 56.5t9 58.5l80 459l6 43 q4 18 4 34q0 43 -22.5 73t-94.5 30h-268l-131 -842q-14 -90 -49 -174t-92.5 -148.5t-134.5 -103.5t-173 -39z" />
<glyph unicode="&#xfb04;" horiz-adv-x="1781" d="M485 -416q-51 0 -100 15l41 135q23 -10 56.5 -14.5t56.5 -4.5q76 0 114.5 42t55.5 141l155 993h-407l-133 -842q-14 -90 -49 -174t-92.5 -148.5t-134.5 -103.5t-173 -39q-51 0 -100 15l41 135q23 -10 56.5 -14.5t55.5 -4.5q76 0 115 42t55 141l156 993h-154l17 108h155 q14 86 53.5 165t98.5 137.5t136 93.5t169 35q31 0 74 -8.5t69 -16.5l-41 -135q-25 10 -73.5 19t-79.5 9q-74 0 -121 -42t-63 -140l-21 -117h410q16 102 60 186.5t105.5 142.5t137.5 90t155 32q74 0 132.5 -16.5t105.5 -32.5l77 22q36 10 83 27l-185 -1174q-4 -29 -6 -52 t-2 -40q0 -74 70 -73q29 0 55.5 9t48.5 25l23 -55q-41 -39 -104.5 -72.5t-149.5 -33.5q-78 0 -114 41t-36 110q0 23 6 61l9 66l131 852q4 23 7 54.5t3 48.5q0 29 -18.5 48t-48 30.5t-66.5 16.5t-72 5q-90 0 -133 -57.5t-59 -167.5l-15 -93h211l-16 -108h-211l-133 -842 q-14 -90 -49 -174t-92.5 -148.5t-134.5 -103.5t-173 -39z" />
<glyph unicode="&#xfb06;" horiz-adv-x="1486" d="M305 -27q-78 0 -149.5 19.5t-137.5 48.5l80 143q66 -45 135.5 -64.5t135.5 -19.5q76 0 119.5 37t43.5 90q0 33 -16 61.5t-44 53.5t-62 46l-72 44q-37 20 -75 47t-68.5 59.5t-50 74.5t-19.5 96q0 63 31.5 120.5t86 100.5t124 67.5t145.5 24.5q57 0 109 -14 q-18 27 -28.5 63.5t-10.5 75.5q0 135 101 219t275 84q76 0 136.5 -21.5t103.5 -58.5t65.5 -87t22.5 -107q0 -37 -8 -81l-18 -96h229l-19 -108h-229l-92 -602q-4 -23 -6 -43.5t-2 -42.5q0 -88 88 -88q47 0 87 10t77 27l14 -56q-45 -41 -126 -76.5t-179 -35.5q-84 0 -125 48 t-41 118q0 27 3 53l7 59l98 629h-133l13 74q104 27 169.5 80t65.5 139q0 80 -60.5 130t-164.5 50q-117 0 -189.5 -56.5t-72.5 -158.5q0 -53 22.5 -104.5t63.5 -86.5l-78 -145q-45 33 -101.5 58.5t-142.5 25.5q-57 0 -94 -29.5t-37 -81.5q0 -53 35 -91t94 -79l95 -61 q48 -31 87 -67.5t64 -85t25 -115.5q0 -76 -39 -134.5t-97.5 -98.5t-129.5 -60.5t-134 -20.5z" />
</font>
</defs>
</svg>
