<?xml version="1.0" encoding="UTF-8"?><svg xmlns="http://www.w3.org/2000/svg" width="100%" height="100%"><defs><font id="web" horiz-adv-x="1340"><!--



NOTICE: This font software is the valuable property 
of Webtype LLC, The Font Bureau, Webtype and/or its 
suppliers and its use by you is covered under the terms 
of the Web Font license agreement between you and Webtype 
LLC. You may ONLY use this font software with the licensed 
web site. Except as specifically permitted by the license, 
you may not copy this font software. If you have any 
questions, please contact Webtype.com. 

For more information, please visit http://www.webtype.com/store/license/?id=23

Licensed to: nickmom.com

Serial number: SH-840
--><font-face font-family="" units-per-em="2048" panose-1="2 0 6 5 0 0 0 2 0 4" ascent="2232" descent="-797" alphabetic="0"/><missing-glyph horiz-adv-x="1024" d="M0 1434H1024V0H0V1434ZM102 102H922V1331H102V102Z"/><glyph unicode=" " horiz-adv-x="449"/><glyph unicode="!" horiz-adv-x="807" d="M231 336H573V0H231V336ZM240 1518H567L526 467H279L240 1518Z"/><glyph unicode="&quot;" horiz-adv-x="1143" d="M182 1518H477L455 838H205L182 1518ZM666 1518H963L938 838H690L666 1518Z"/><glyph unicode="#" horiz-adv-x="1569" d="M317 356H104V610H367L410 815H104V1071H457L537 1466H819L739 1071H961L1040 1466H1323L1243 1071H1464V815H1196L1153 610H1464V356H1104L1032 0H750L821 356H602L530 0H246L317 356ZM881 596L928 831H682L635 596H881Z"/><glyph unicode="$" horiz-adv-x="1372" d="M573 6Q468 28 401 79T301 195V0H80V500H309Q365 272 582 234V633Q404 664 312 714T173 846T127 1049Q127 1224 243 1330T573 1459V1599H803V1449Q944 1413 1010 1298V1466H1229V1010H999Q938 1169 795 1211V846Q1007 812 1101 765T1244 637T1292 430Q1292 247 1163 134T803 -1V-193H573V6ZM1010 418Q1010 491 963 531T795 598V234Q1010 262 1010 418ZM412 1055Q412 987 453 949T582 886V1220Q412 1192 412 1055Z"/><glyph unicode="%" horiz-adv-x="2501" d="M543 494Q411 494 303 555T134 730T72 991Q72 1137 133 1251T303 1427T543 1489Q672 1489 780 1427T949 1250T1010 991Q1010 844 949 731T780 556T543 494ZM543 717Q637 717 692 792T748 991Q748 1113 692 1186T543 1260Q447 1260 391 1186T334 991Q334 866 390 792T543 717ZM1540 1466H1808L958 0H690L1540 1466ZM1962 -20Q1831 -20 1723 42T1553 218T1491 479Q1491 625 1552 739T1722 915T1962 977Q2092 977 2200 914T2369 738T2429 479Q2429 332 2369 219T2199 43T1962 -20ZM1962 205Q2055 205 2111 278T2167 479Q2167 602 2111 673T1962 745Q1867 745 1810 673T1753 479Q1753 352 1810 279T1962 205Z"/><glyph unicode="&amp;" horiz-adv-x="1808" d="M614 -16Q366 -16 225 97T84 406Q84 561 171 670T465 856Q424 993 424 1106Q424 1238 477 1334T635 1485T879 1540Q974 1540 1053 1499T1179 1382T1225 1208Q1225 1097 1182 1015T1059 872T811 745Q916 525 1077 403Q1153 485 1205 606T1300 895L1538 842Q1453 490 1296 301Q1386 256 1495 256Q1558 256 1634 274L1688 39Q1569 2 1454 2Q1261 2 1073 94Q876 -16 614 -16ZM647 219Q753 219 836 262Q660 417 547 659Q455 612 414 555T373 424Q373 326 445 273T647 219ZM729 928Q875 979 928 1038T981 1180Q981 1236 949 1267T860 1298Q791 1298 747 1246T702 1106Q702 1023 729 928Z"/><glyph unicode="'" horiz-adv-x="670" d="M182 1518H487L465 838H205L182 1518Z"/><glyph unicode="(" horiz-adv-x="1036" d="M631 -401Q506 -297 407 -128T259 232T211 623Q211 808 262 1002T415 1375T631 1651L838 1499Q674 1332 592 1109T510 627Q510 443 551 278T667 -23T838 -250L631 -401Z"/><glyph unicode=")" horiz-adv-x="1036" d="M201 -250Q364 -82 445 139T526 623Q526 807 485 972T371 1270T201 1499L406 1651Q532 1543 626 1386T773 1034T827 627Q827 440 775 246T621 -126T406 -401L201 -250Z"/><glyph unicode="*" horiz-adv-x="1235" d="M526 840L236 645L117 856L432 1006L117 1159L233 1368L526 1174L500 1520H731L707 1169L999 1368L1118 1161L799 1006L1118 854L1001 647L707 842L731 496H500L526 840Z"/><glyph unicode="+" horiz-adv-x="1470" d="M592 592H197V852H592V1247H879V852H1274V592H879V195H592V592Z"/><glyph unicode="," horiz-adv-x="580" d="M125 -164Q230 -113 256 -83T283 0H119V340H461V96Q461 -34 439 -98T364 -209T197 -305L125 -164Z"/><glyph unicode="-" horiz-adv-x="881" d="M84 793H795V535H84V793Z"/><glyph unicode="." horiz-adv-x="580" d="M119 340H461V0H119V340Z"/><glyph unicode="/" horiz-adv-x="1143" d="M848 1518H1143L295 0H0L848 1518Z"/><glyph unicode="0" horiz-adv-x="1464" d="M733 -23Q543 -23 403 67T188 329T113 733Q113 968 187 1139T402 1399T733 1489Q1020 1489 1186 1289T1352 733Q1352 500 1277 329T1062 68T733 -23ZM733 233Q887 233 970 357T1053 733Q1053 985 970 1105T733 1225Q414 1225 414 733Q414 233 733 233Z"/><glyph unicode="1" horiz-adv-x="866" d="M66 236H328V1190Q221 1157 66 1157V1413Q345 1413 451 1466H616V236H846V0H66V236Z"/><glyph unicode="2" horiz-adv-x="1298" d="M74 272L479 547Q698 695 778 797T858 1032Q858 1123 802 1178T633 1233Q520 1233 442 1192T305 1069L66 1212Q160 1353 306 1421T666 1489Q892 1489 1020 1376T1149 1065Q1149 877 1047 729T692 410L397 211H944V434H1184V0H74V272Z"/><glyph unicode="3" horiz-adv-x="1298" d="M639 -25Q405 -25 255 47T20 281L274 403Q329 305 408 263T618 221Q771 221 849 280T928 453Q928 576 820 625T457 674V891Q679 891 776 935T874 1079Q874 1243 637 1243Q520 1243 444 1212T307 1106L80 1249Q245 1491 655 1491Q808 1491 923 1447T1098 1323T1159 1137Q1159 1021 1085 934T883 813Q1041 784 1130 683T1219 434Q1219 293 1147 190T943 31T639 -25Z"/><glyph unicode="4" horiz-adv-x="1386" d="M602 225H813V391H66V584L731 1466H1049L399 608H819L889 909H1087V608H1329V391H1087V225H1264V0H602V225Z"/><glyph unicode="5" horiz-adv-x="1354" d="M670 -25Q440 -25 290 50T59 283L311 401Q367 303 450 262T662 221Q809 221 892 289T975 500Q975 620 900 690T696 760Q622 760 536 743T381 696L145 788L215 1466H1153V1217H444L410 889Q465 929 569 955T780 981Q999 981 1132 850T1266 500Q1266 254 1108 115T670 -25Z"/><glyph unicode="6" horiz-adv-x="1376" d="M723 -25Q429 -25 266 158T102 672Q102 1068 314 1278T930 1489Q1022 1489 1106 1473L1063 1225Q998 1239 922 1239Q678 1239 548 1137T395 805Q458 901 568 952T823 1004Q1045 1004 1175 870T1305 510Q1305 265 1148 120T723 -25ZM735 219Q863 219 937 293T1012 500Q1012 632 941 702T737 772Q649 772 574 740T455 648T412 508Q412 376 497 298T735 219Z"/><glyph unicode="7" horiz-adv-x="1286" d="M438 0Q440 353 581 686T961 1237H377V985H127V1466H1251V1270Q1029 1086 893 751T737 0H438Z"/><glyph unicode="8" horiz-adv-x="1360" d="M678 -39Q492 -39 358 19T152 184T80 424Q80 567 153 664T362 807Q261 849 207 932T152 1120Q152 1233 214 1318T394 1451T678 1499Q845 1499 963 1452T1144 1319T1206 1120Q1206 1012 1148 929T987 807Q1129 762 1204 665T1280 424Q1280 289 1208 183T1001 19T678 -39ZM678 190Q822 190 903 256T985 438Q985 556 903 624T678 692Q538 692 457 624T375 438Q375 323 455 257T678 190ZM678 893Q789 893 854 945T920 1087Q920 1171 859 1220T678 1270Q560 1270 499 1221T438 1087Q438 998 503 946T678 893Z"/><glyph unicode="9" horiz-adv-x="1376" d="M651 1489Q949 1489 1111 1309T1274 795Q1274 396 1060 187T446 -23Q359 -23 272 -8L313 236Q376 221 453 221Q628 221 740 268T910 406T979 655Q920 561 808 509T551 457Q333 457 203 591T72 956Q72 1202 229 1345T651 1489ZM641 1237Q509 1237 436 1163T362 958Q362 826 434 757T637 688Q777 688 871 759T965 950Q965 1083 878 1160T641 1237Z"/><glyph unicode=":" horiz-adv-x="621" d="M139 334H481V0H139V334ZM139 1153H481V821H139V1153Z"/><glyph unicode=";" horiz-adv-x="621" d="M145 -164Q250 -113 276 -83T303 0H139V334H481V96Q481 -27 457 -93T378 -209T217 -305L145 -164ZM139 1153H481V821H139V1153Z"/><glyph unicode="&lt;" horiz-adv-x="1470" d="M250 600V821L1165 1272V1006L545 711L1165 416V145L250 600Z"/><glyph unicode="=" horiz-adv-x="1470" d="M209 608H1262V350H209V608ZM209 1094H1262V836H209V1094Z"/><glyph unicode="&gt;" horiz-adv-x="1470" d="M305 414L926 709L305 1004V1272L1221 819V598L305 145V414Z"/><glyph unicode="?" horiz-adv-x="1415" d="M518 438Q511 493 511 539Q511 662 569 740T780 893Q873 940 908 968T961 1030T979 1108Q979 1278 717 1278Q491 1274 377 1118L143 1270Q237 1409 381 1475T735 1542Q987 1542 1129 1436T1272 1139Q1272 1014 1201 914T973 735Q871 685 835 641T798 527Q798 489 805 438H518ZM492 307H834V0H492V307Z"/><glyph unicode="@" horiz-adv-x="2179" d="M1126 -338Q818 -338 597 -230T264 87T152 594Q152 877 271 1089T622 1422T1145 1544Q1417 1544 1618 1451T1924 1182T2028 760Q2028 88 1544 88Q1409 88 1332 142T1247 299Q1193 203 1096 147T889 90Q724 90 634 196T543 502Q543 685 610 838T790 1072T1049 1153Q1281 1153 1354 961L1475 1130L1634 1112L1493 438Q1482 389 1482 352Q1482 236 1606 236Q1738 236 1806 362T1874 760Q1874 1067 1685 1233T1145 1399Q899 1399 705 1301T408 1023T305 594Q305 346 397 170T675 -99T1126 -193Q1292 -193 1438 -157T1686 -55L1759 -178Q1640 -253 1478 -295T1126 -338ZM977 307Q1063 307 1136 358T1251 501T1292 698Q1292 806 1238 864T1083 922Q999 922 936 869T839 723T805 518Q805 307 977 307Z"/><glyph unicode="A" horiz-adv-x="1704" d="M49 248H170L676 1528H1032L1538 248H1655V0H1036V236H1237L1155 446H526L444 236H623V0H49V248ZM1075 657L840 1260L606 657H1075Z"/><glyph unicode="B" horiz-adv-x="1522" d="M49 248H227V1264H49V1518H870Q1125 1518 1259 1420T1393 1128Q1393 1006 1322 921T1126 799Q1280 766 1361 671T1442 426Q1442 216 1295 108T858 0H49V248ZM856 240Q995 240 1065 291T1135 455Q1135 563 1066 614T854 666H522V240H856ZM840 883Q962 883 1023 935T1085 1081Q1085 1272 829 1272H522V883H840Z"/><glyph unicode="C" horiz-adv-x="1612" d="M813 -23Q601 -23 431 74T169 346T76 748Q76 973 165 1152T425 1436T791 1542Q1124 1542 1237 1333V1518H1487V985H1221Q1142 1264 829 1264Q701 1264 598 1201T438 1021T381 752Q381 599 437 485T598 308T834 246Q993 246 1100 322T1266 565L1526 479Q1447 244 1259 111T813 -23Z"/><glyph unicode="D" horiz-adv-x="1614" d="M49 248H227V1264H49V1518H735Q1129 1518 1334 1328T1540 760Q1540 387 1324 194T707 0H49V248ZM739 254Q1233 254 1233 760Q1233 1016 1109 1136T719 1257H524V254H739Z"/><glyph unicode="E" horiz-adv-x="1448" d="M49 248H227V1264H49V1518H1327V985H1061V1272H526V885H952V645H526V238H1079V563H1348V0H49V248Z"/><glyph unicode="F" horiz-adv-x="1403" d="M49 248H227V1264H49V1518H1323V985H1051V1272H526V858H938V618H526V248H754V0H49V248Z"/><glyph unicode="G" horiz-adv-x="1671" d="M745 -23Q559 -23 404 75T163 350T76 748Q76 971 163 1150T419 1435T784 1542Q1111 1542 1227 1329V1518H1475V985H1212Q1175 1121 1077 1192T823 1264Q696 1264 595 1202T437 1023T381 752Q381 511 505 374T836 236Q1002 236 1114 323T1247 553H872V788H1516V0H1348L1286 248Q1217 121 1076 49T745 -23Z"/><glyph unicode="H" horiz-adv-x="1780" d="M49 248H227V1264H49V1518H760V1270H526V901H1253V1270H1018V1518H1731V1264H1554V248H1731V0H1018V242H1253V653H526V242H760V0H49V248Z"/><glyph unicode="I" horiz-adv-x="803" d="M49 248H252V1264H49V1518H754V1264H551V248H754V0H49V248Z"/><glyph unicode="J" horiz-adv-x="1090" d="M94 272Q242 231 354 231Q476 231 530 285T584 465V1264H387V1518H1040V1264H883V434Q883 218 758 98T408 -23Q296 -23 212 -12T33 27L94 272Z"/><glyph unicode="K" horiz-adv-x="1647" d="M49 248H227V1264H49V1518H666V1274H522V739L1075 1274H915V1518H1554V1264H1372L999 905L1454 248H1597V0H946V229H1126L786 715L522 455V229H676V0H49V248Z"/><glyph unicode="L" horiz-adv-x="1407" d="M49 248H227V1264H49V1518H754V1264H526V238H1055V563H1327V0H49V248Z"/><glyph unicode="M" horiz-adv-x="2101" d="M49 248H227V1264H49V1518H633L1049 428L1466 1518H2052V1272H1872V248H2052V0H1399V242H1579V1141L1151 0H936L508 1141V242H694V0H49V248Z"/><glyph unicode="N" horiz-adv-x="1772" d="M49 248H227V1264H49V1518H582L1286 467V1264H1118V1518H1722V1264H1565V0H1274L504 1128V248H705V0H49V248Z"/><glyph unicode="O" horiz-adv-x="1698" d="M850 -25Q631 -25 449 76T170 353T74 760Q74 990 169 1164T447 1440T850 1542Q1069 1542 1252 1441T1530 1165T1626 760Q1626 528 1530 353T1252 76T850 -25ZM850 244Q984 244 1091 306T1259 486T1319 756Q1319 907 1259 1023T1091 1201T850 1264Q716 1264 609 1202T441 1024T381 756Q381 604 440 488T607 308T850 244Z"/><glyph unicode="P" horiz-adv-x="1534" d="M49 248H227V1264H49V1518H881Q1166 1518 1316 1393T1466 1022Q1466 781 1317 657T866 532H526V248H750V0H49V248ZM883 762Q1020 762 1091 821T1163 1012Q1163 1147 1090 1208T862 1270H526V762H883Z"/><glyph unicode="Q" horiz-adv-x="1698" d="M1012 -391Q817 -391 714 -294T611 -11L612 25Q358 86 216 280T74 762Q74 991 166 1166T439 1442T850 1542Q1080 1542 1261 1442T1534 1167T1626 762Q1626 542 1541 377T1285 116T885 10Q887 -73 927 -105T1057 -137Q1124 -137 1206 -120T1360 -74L1438 -303Q1230 -391 1012 -391ZM850 244Q984 244 1091 306T1259 486T1319 756Q1319 907 1259 1023T1091 1201T850 1264Q716 1264 609 1202T441 1024T381 756Q381 604 440 488T607 308T850 244Z"/><glyph unicode="R" horiz-adv-x="1579" d="M49 248H227V1264H49V1518H842Q1127 1518 1277 1391T1427 1028Q1427 856 1346 746T1102 594L1354 248H1530V0H887V242H1024L811 555H520V242H670V0H49V248ZM854 776Q990 776 1057 832T1124 1020Q1124 1153 1051 1211T823 1270H520V776H854Z"/><glyph unicode="S" horiz-adv-x="1466" d="M797 -25Q625 -25 508 21T330 174V0H94V563H338Q365 392 468 310T756 227Q919 227 1002 278T1085 426Q1085 486 1054 524T962 585T743 633Q537 661 434 697T270 787T176 916T143 1096Q143 1228 208 1327T399 1484T680 1542Q835 1542 933 1500T1083 1370V1518H1319V985H1081Q1055 1132 963 1207T721 1282Q590 1282 518 1235T446 1100Q446 1040 478 1002T570 939T778 893Q846 883 917 872T1056 842T1184 793T1289 716T1360 601T1386 438Q1386 225 1229 100T797 -25Z"/><glyph unicode="T" horiz-adv-x="1591" d="M449 238H645V1274H342V985H82V1518H1509V985H1249V1274H946V238H1143V0H449V238Z"/><glyph unicode="U" horiz-adv-x="1761" d="M879 -25Q674 -25 525 44T291 253T207 575V1264H49V1518H756V1270H506V612Q506 427 602 334T885 240Q1264 240 1264 612V1270H1016V1518H1712V1264H1554V575Q1554 393 1469 254T1235 45T879 -25Z"/><glyph unicode="V" horiz-adv-x="1694" d="M164 1264H49V1518H684V1274H467L858 268L1251 1274H1057V1518H1645V1264H1526L1014 -10H666L164 1264Z"/><glyph unicode="W" horiz-adv-x="2353" d="M207 1264H49V1518H676V1274H496L748 342L1063 1518H1315L1630 342L1882 1274H1688V1518H2304V1264H2144L1780 -10H1475L1176 1057L879 -10H573L207 1264Z"/><glyph unicode="X" horiz-adv-x="1673" d="M49 248H184L639 784L227 1264H86V1518H752V1274H578L864 932L1145 1274H989V1518H1587V1264H1444L1032 760L1477 248H1624V0H934V236H1116L801 616L494 236H676V0H49V248Z"/><glyph unicode="Y" horiz-adv-x="1651" d="M485 238H680V569L168 1264H49V1518H705V1274H483L842 784L1190 1274H983V1518H1602V1264H1483L981 569V238H1176V0H485V238Z"/><glyph unicode="Z" horiz-adv-x="1389" d="M49 223L965 1284H344V985H76V1518H1313V1282L406 227H1071V563H1339V0H49V223Z"/><glyph unicode="[" horiz-adv-x="1036" d="M229 1589H854V1348H524V-106H860V-338H229V1589Z"/><glyph unicode="\" horiz-adv-x="1143" d="M0 1518H295L1143 0H848L0 1518Z"/><glyph unicode="]" horiz-adv-x="1036" d="M176 -106H512V1348H184V1589H807V-338H176V-106Z"/><glyph unicode="^" horiz-adv-x="1470" d="M1298 551H1030L735 1174L440 551H172L625 1466H846L1298 551Z"/><glyph unicode="_" horiz-adv-x="928" d="M-76 -90H1004V-315H-76V-90Z"/><glyph unicode="`" horiz-adv-x="1208" d="M272 1460L356 1692L926 1432L856 1249L272 1460Z"/><glyph unicode="a" horiz-adv-x="1286" d="M840 203Q790 96 681 39T424 -18Q255 -18 158 76T61 334Q61 511 190 611T549 711Q669 711 827 678V690Q827 782 808 828T745 898T627 922Q538 922 444 902T274 846L170 1077Q263 1126 395 1155T659 1184Q896 1184 1003 1071T1110 711V236H1266V12L891 -16L840 203ZM524 221Q666 221 746 283T827 451V489Q736 508 643 508Q483 508 412 472T340 362Q340 290 385 256T524 221Z"/><glyph unicode="b" horiz-adv-x="1434" d="M870 -18Q729 -18 626 35T461 190L397 -10L49 10V236H193V1323H39V1565L481 1595V952Q540 1064 648 1122T895 1180Q1039 1180 1143 1106T1301 894T1356 580Q1356 403 1298 267T1129 56T870 -18ZM801 229Q926 229 993 318T1061 569Q1061 739 994 827T801 915Q657 915 569 821T481 569Q481 410 566 320T801 229Z"/><glyph unicode="c" horiz-adv-x="1278" d="M641 -18Q466 -18 339 56T145 265T78 580Q78 743 147 881T341 1098T616 1176Q730 1176 816 1134T942 1004V1153H1159V705H932Q872 915 662 915Q532 915 453 820T373 573Q373 418 450 324T664 229Q759 229 824 273T950 430L1194 315Q1034 -18 641 -18Z"/><glyph unicode="d" horiz-adv-x="1436" d="M539 -18Q395 -18 291 55T133 264T78 580Q78 757 136 894T303 1105T561 1180Q693 1180 791 1129T950 977V1327H756V1565L1241 1595V236H1415V10L1026 -16L975 217Q915 104 800 43T539 -18ZM631 229Q775 229 862 326T950 580Q950 738 867 828T631 918Q506 918 440 831T373 580Q373 412 440 321T631 229Z"/><glyph unicode="e" horiz-adv-x="1245" d="M616 -23Q365 -23 222 138T78 580Q78 753 147 890T344 1104T647 1180Q895 1180 1021 1038T1147 590V477H369Q406 217 645 217Q747 217 818 254T944 377L1169 240Q1086 105 950 41T616 -23ZM651 936Q539 936 466 873T371 686H877V700Q877 803 814 869T651 936Z"/><glyph unicode="f" horiz-adv-x="909" d="M49 236H283V911H49V1153H283V1202Q283 1390 393 1492T705 1595Q852 1595 948 1571L905 1331Q786 1348 727 1348Q649 1348 610 1310T571 1190V1153H889V911H571V236H889V0H49V236Z"/><glyph unicode="g" horiz-adv-x="1239" d="M502 -367Q261 -367 135 -301T8 -102Q8 -3 80 64T285 156Q234 173 201 216T168 317Q168 362 195 407T268 485Q82 587 82 788Q82 968 222 1074T598 1180Q691 1180 793 1163L1110 1309L1178 1059H954Q1043 1012 1081 945T1120 776Q1120 612 979 515T598 418Q510 418 436 434Q416 410 416 385Q416 356 434 344T493 326T637 317Q871 314 990 286T1162 195T1214 8Q1214 -176 1034 -271T502 -367ZM532 -168Q736 -168 828 -133T920 -18Q920 43 880 67T740 100T560 109Q445 109 373 70T301 -37Q301 -168 532 -168ZM598 602Q711 602 774 646T838 776Q838 864 775 907T598 950Q482 950 422 904T362 776Q362 694 424 648T598 602Z"/><glyph unicode="h" horiz-adv-x="1430" d="M49 236H195V1323H39V1565L483 1595V954Q533 1063 631 1121T866 1180Q1064 1180 1159 1069T1255 715V236H1409V0H803V236H965V655Q965 793 917 851T756 909Q483 909 483 645V236H645V0H49V236Z"/><glyph unicode="i" horiz-adv-x="754" d="M49 236H240V911H49V1145L528 1174V236H733V0H49V236ZM231 1565H537V1280H231V1565Z"/><glyph unicode="j" horiz-adv-x="635" d="M20 -125L119 -129Q182 -129 203 -99T225 -6V911H41V1145L514 1174V14Q514 -188 429 -273T137 -358Q46 -358 2 -352L20 -125ZM217 1565H522V1280H217V1565Z"/><glyph unicode="k" horiz-adv-x="1362" d="M49 236H195V1323H39V1565L479 1595V592L840 934H676V1153H1249V911H1110L866 684L1190 236H1341V0H772V229H860L655 522L479 350V229H598V0H49V236Z"/><glyph unicode="l" horiz-adv-x="743" d="M49 236H229V1323H39V1565L518 1595V236H723V0H49V236Z"/><glyph unicode="m" horiz-adv-x="2161" d="M49 236H205V911H49V1145L416 1174L467 940Q515 1058 617 1119T864 1180Q960 1180 1025 1153T1132 1076T1204 930Q1249 1045 1351 1112T1610 1180Q1804 1180 1895 1072T1987 715V236H2140V0H1546V236H1696V655Q1696 760 1678 810T1617 885T1501 909Q1369 909 1304 847T1239 645V236H1389V0H801V236H950V655Q950 801 906 855T754 909Q624 909 559 847T494 645V236H643V0H49V236Z"/><glyph unicode="n" horiz-adv-x="1440" d="M49 236H205V911H49V1145L416 1174L467 940Q515 1056 622 1118T877 1180Q1073 1180 1169 1069T1266 715V236H1419V0H813V236H975V655Q975 793 927 851T766 909Q494 909 494 645V236H655V0H49V236Z"/><glyph unicode="o" horiz-adv-x="1329" d="M666 -23Q398 -23 238 142T78 580Q78 757 151 894T358 1105T666 1180Q839 1180 972 1106T1178 894T1251 580Q1251 402 1178 264T973 52T666 -23ZM666 229Q803 229 882 322T961 573Q961 731 883 823T666 915Q527 915 449 823T371 573Q371 416 449 323T666 229Z"/><glyph unicode="p" horiz-adv-x="1434" d="M41 -111H195V911H41V1145L406 1174L461 926Q517 1044 628 1112T895 1180Q1039 1180 1143 1106T1301 894T1356 580Q1356 403 1298 267T1129 56T870 -18Q602 -18 483 199V-111H647V-338H41V-111ZM803 229Q928 229 994 317T1061 569Q1061 738 994 826T803 915Q659 915 571 821T483 569Q483 411 567 320T803 229Z"/><glyph unicode="q" horiz-adv-x="1434" d="M784 -111H950V209Q893 98 785 40T539 -18Q324 -18 201 144T78 582Q78 758 135 894T302 1105T561 1180Q846 1180 975 971L1053 1174L1395 1145V911H1241V-111H1395V-338H784V-111ZM631 229Q776 229 863 326T950 582Q950 741 866 829T631 918Q504 918 439 831T373 582Q373 412 439 321T631 229Z"/><glyph unicode="r" horiz-adv-x="958" d="M49 236H205V911H49V1145L416 1174L471 924Q524 1032 610 1090T821 1167L889 883Q692 876 593 804T494 586V236H676V0H49V236Z"/><glyph unicode="s" horiz-adv-x="1155" d="M645 -16Q502 -16 403 28T272 147V0H66V412H276Q311 311 389 260T608 209Q714 209 765 238T817 330Q817 368 796 391T734 429T541 465Q412 483 355 499T252 541T171 604T119 697T100 825Q100 985 218 1081T522 1178Q637 1178 724 1139T842 1040V1153H1049V784H831Q808 861 746 899T565 938Q387 938 387 827Q387 773 433 743T625 692L729 680Q930 655 1015 574T1100 348Q1100 177 978 81T645 -16Z"/><glyph unicode="t" horiz-adv-x="1016" d="M551 -18Q388 -18 311 63T233 328V911H20V1153H250L305 1487H524V1153H909V911H524V395Q524 320 535 294T572 256T649 244Q761 244 877 287L956 55Q791 -18 551 -18Z"/><glyph unicode="u" horiz-adv-x="1436" d="M575 -20Q375 -20 282 87T188 444V911H49V1145L477 1174V485Q477 345 526 288T686 231Q821 231 886 295T952 494V911H762V1145L1241 1174V236H1415V10L1028 -16L979 197Q932 97 825 39T575 -20Z"/><glyph unicode="v" horiz-adv-x="1329" d="M141 911H20V1153H602V918H432L678 229L926 918H770V1153H1309V911H1192L848 -12H485L141 911Z"/><glyph unicode="w" horiz-adv-x="1935" d="M147 911H20V1153H586V911H428L604 283L866 1153H1081L1341 274L1520 911H1346V1153H1915V911H1786L1501 -12H1194L967 739L739 -12H432L147 911Z"/><glyph unicode="x" horiz-adv-x="1366" d="M49 236H164L500 592L193 911H70V1153H655V940H539L739 727L932 940H823V1153H1325V911H1180L893 590L1235 236H1346V0H739V207H874L651 451L436 207H571V0H49V236Z"/><glyph unicode="y" horiz-adv-x="1321" d="M395 -360Q304 -360 216 -347T76 -315L160 -82Q287 -121 371 -121Q416 -121 453 -105T522 -38L141 911H20V1153H604V918H438L679 259L930 918H772V1153H1300V911H1186L780 -80Q717 -233 626 -296T395 -360Z"/><glyph unicode="z" horiz-adv-x="1151" d="M49 242L758 934H315V705H84V1153H1069V907L371 205H872V457H1102V0H49V242Z"/><glyph unicode="{" horiz-adv-x="1112" d="M653 -338Q490 -338 396 -261T301 -48Q301 -5 313 48T388 313Q407 379 407 415Q407 455 386 474T318 500T145 508V745Q266 745 315 753T385 779T407 839Q407 874 388 941Q322 1164 312 1212T301 1300Q301 1436 396 1512T653 1589H936V1348H766Q601 1348 601 1221L602 1200Q607 1158 650 1015Q699 852 699 797Q699 668 549 627Q699 583 699 454L698 432Q693 378 650 237Q616 126 609 92T601 31Q601 -34 643 -69T766 -104H936V-338H653Z"/><glyph unicode="|" horiz-adv-x="754" d="M229 1589H524V-338H229V1589Z"/><glyph unicode="}" horiz-adv-x="1112" d="M176 -104H346Q425 -104 468 -70T511 30L510 51Q506 97 463 237Q413 396 413 454Q413 583 563 627Q413 668 413 797Q413 856 463 1015Q496 1122 503 1157T511 1221Q511 1348 346 1348H176V1589H459Q620 1589 715 1513T811 1300L809 1264Q804 1202 758 1052Q726 947 717 908T706 842Q706 783 754 764T967 745V508Q837 508 791 500T726 473T706 411L707 395Q711 355 758 201Q788 104 799 52T811 -49Q811 -185 717 -261T459 -338H176V-104Z"/><glyph unicode="~" horiz-adv-x="1470" d="M193 672Q371 891 539 891Q595 891 649 872T753 831T849 789T934 770Q987 770 1031 802T1124 897L1288 762Q1110 543 942 543Q886 543 833 562T729 603T633 645T547 664Q460 664 356 537L193 672Z"/><glyph unicode=" " horiz-adv-x="449"/><glyph unicode="¡" horiz-adv-x="807" d="M281 1053H528L567 0H240L281 1053ZM233 1518H575V1184H233V1518Z"/><glyph unicode="¢" horiz-adv-x="1231" d="M504 -5Q299 31 189 184T78 580Q78 721 130 846T279 1054T504 1161V1319H739V1154Q874 1117 928 1004V1153H1145V705H918Q894 785 852 838T733 911V228Q874 265 944 444L1174 346Q1054 36 739 -8V-193H504V-5ZM371 573Q371 471 406 387T512 258V880Q443 836 407 755T371 573Z"/><glyph unicode="£" horiz-adv-x="1384" d="M51 223Q214 255 288 307T362 451Q362 528 322 627H55V834H242Q197 949 197 1061Q197 1257 337 1373T711 1489Q868 1489 1002 1431T1223 1270L1026 1087Q967 1154 883 1192T707 1231Q606 1231 546 1178T485 1034Q485 954 524 834H926V627H594Q631 526 631 457Q631 375 598 303Q732 236 866 236Q956 236 994 276T1032 395Q1032 451 1014 522L1264 565Q1288 458 1288 387Q1288 -12 874 -12Q660 -12 453 111Q327 23 96 -18L51 223Z"/><glyph unicode="¤" horiz-adv-x="1468" d="M102 283L291 471Q225 587 225 733Q225 869 285 981L102 1165L281 1350L467 1161Q583 1221 721 1221Q857 1221 977 1159L1169 1352L1346 1167L1157 979Q1217 863 1217 733Q1217 590 1149 471L1337 283L1159 100L963 297Q857 244 721 244Q585 244 479 297L281 100L102 283ZM721 449Q832 449 904 527T977 727Q977 850 905 927T721 1004Q609 1004 538 927T467 727Q467 606 538 528T721 449Z"/><glyph unicode="¥" horiz-adv-x="1456" d="M414 227H594V422H90V631H559L483 745H90V952H334L152 1221H14V1466H639V1229H451L737 776L1014 1229H846V1466H1444V1221H1296L1114 952H1356V745H973L897 631H1354V422H860V227H1038V0H414V227Z"/><glyph unicode="¦" horiz-adv-x="754" d="M229 469H524V-338H229V469ZM229 1589H524V784H229V1589Z"/><glyph unicode="§" horiz-adv-x="1278" d="M739 -348Q629 -348 547 -312T430 -211V-326H223V45H440Q490 -121 696 -121Q862 -121 862 2Q862 55 809 86T634 136Q420 169 329 211T189 329T141 516Q141 628 194 708T354 827Q162 911 162 1126Q162 1285 278 1382T584 1479Q695 1479 782 1442T903 1341V1454H1110V1085H893Q844 1249 627 1249Q449 1249 449 1128Q449 1074 505 1043T681 995Q873 967 974 926T1129 807T1182 614Q1182 386 946 309Q1065 254 1107 187T1149 4Q1149 -158 1036 -253T739 -348ZM725 367Q809 367 854 418T899 559Q899 621 858 667T747 738T596 764Q424 764 424 571Q424 508 463 463T571 392T725 367Z"/><glyph unicode="¨" horiz-adv-x="1208" d="M252 1546H518V1280H252V1546ZM692 1546H958V1280H692V1546Z"/><glyph unicode="©" horiz-adv-x="1665" d="M834 -25Q628 -25 452 80T174 367T72 760Q72 974 176 1157T456 1442T834 1544Q1040 1544 1215 1439T1492 1152T1593 760Q1593 554 1495 374T1221 84T834 -25ZM834 94Q1008 94 1153 181T1382 422T1466 760Q1466 942 1383 1096T1155 1338T834 1425Q657 1425 511 1338T282 1095T199 760Q199 575 284 420T516 180T834 94ZM813 272Q684 272 581 330T422 496T365 741Q365 884 422 994T580 1165T801 1227Q988 1227 1061 1108V1210H1227V877H1053Q1006 1042 825 1042Q708 1042 636 961T563 743Q563 609 636 529T827 449Q930 449 989 499T1081 643L1247 584Q1198 434 1085 353T813 272Z"/><glyph unicode="ª" horiz-adv-x="1247" d="M778 688Q744 610 657 564T440 518Q302 518 225 595T147 803Q147 944 252 1020T543 1096Q635 1096 768 1069V1090Q768 1196 730 1234T604 1272Q531 1272 452 1255T322 1212L236 1405Q303 1442 411 1465T631 1489Q829 1489 916 1399T1004 1114V729H1118V541L819 518L778 688ZM522 717Q638 717 703 764T768 897V928Q692 944 618 944Q489 944 434 917T379 827Q379 778 413 748T522 717ZM195 403H1034V186H195V403Z"/><glyph unicode="«" horiz-adv-x="1511" d="M172 575L481 1153H733L457 575L733 0H481L172 575ZM719 575L1028 1153H1278L1001 575L1278 0H1028L719 575Z"/><glyph unicode="¬" horiz-adv-x="1470" d="M975 592H184V852H1262V195H975V592Z"/><glyph unicode="­" horiz-adv-x="881" d="M84 793H795V535H84V793Z"/><glyph unicode="®" horiz-adv-x="1444" d="M723 352Q567 352 432 432T220 650T143 948Q143 1108 219 1246T431 1465T723 1546Q879 1546 1013 1465T1224 1246T1300 948Q1300 789 1224 652T1014 434T723 352ZM723 451Q854 451 962 516T1133 696T1196 948Q1196 1084 1134 1201T963 1383T723 1448Q590 1448 481 1383T310 1201T248 948Q248 812 309 697T480 517T723 451ZM410 748H483V1165H410V1288H756Q881 1288 947 1234T1014 1071Q1014 920 881 879L977 748H1055V627H768V745H817L739 860H627V745H690V627H410V748ZM760 969Q814 969 841 991T868 1067Q868 1120 837 1143T743 1167H627V969H760Z"/><glyph unicode="¯" horiz-adv-x="1208" d="M252 1511H958V1280H252V1511Z"/><glyph unicode="°" horiz-adv-x="1165" d="M582 500Q441 500 331 564T159 743T98 995Q98 1133 158 1246T329 1424T582 1489Q723 1489 834 1426T1006 1248T1067 995Q1067 856 1006 742T834 564T582 500ZM582 719Q693 719 760 795T827 989Q827 1108 761 1184T582 1260Q471 1260 405 1184T338 989Q338 871 405 795T582 719Z"/><glyph unicode="±" horiz-adv-x="1470" d="M592 715H197V975H592V1337H879V975H1274V715H879V346H592V715ZM197 260H1274V0H197V260Z"/><glyph unicode="²" horiz-adv-x="1067" d="M123 772L430 967Q576 1060 624 1121T672 1266Q672 1323 636 1358T520 1393Q443 1393 392 1364T297 1286L115 1403Q189 1505 295 1551T551 1597Q719 1597 811 1515T903 1290Q903 1163 832 1062T594 856L371 717H741V864H926V555H123V772Z"/><glyph unicode="³" horiz-adv-x="1028" d="M506 537Q334 537 227 594T63 766L258 852Q317 729 485 729Q585 729 636 767T688 874Q688 953 616 984T362 1016V1174Q516 1174 583 1201T651 1294Q651 1341 615 1371T496 1401Q341 1401 276 1309L100 1413Q227 1595 512 1595Q678 1595 778 1528T879 1346Q879 1264 826 1203T686 1120Q798 1099 858 1030T918 856Q918 708 805 623T506 537Z"/><glyph unicode="´" horiz-adv-x="1208" d="M283 1430L852 1690L938 1458L352 1247L283 1430Z"/><glyph unicode="µ" horiz-adv-x="1442" d="M195 911H41V1145L483 1171V485Q483 345 532 288T692 231Q827 231 892 295T958 494V911H768V1145L1247 1171V236H1421V6L1034 -20L985 197Q940 98 842 50T606 2Q514 2 483 47V-338H195V911Z"/><glyph unicode="¶" horiz-adv-x="1491" d="M313 236H494V516Q301 552 209 666T117 975Q117 1217 263 1341T702 1466H1415V1223H1229V236H1415V0H952V502H770V0H313V236ZM952 721V1217H727Q560 1217 484 1157T408 967Q408 839 482 780T709 721H952Z"/><glyph unicode="·" horiz-adv-x="580" d="M119 930H461V582H119V930Z"/><glyph unicode="¸" horiz-adv-x="1208" d="M588 -485Q443 -485 330 -420L408 -279Q500 -322 586 -322Q655 -322 685 -299T715 -244Q715 -172 595 -172L541 -174L469 -133L502 14H674L655 -92Q693 -80 734 -80Q816 -80 865 -128T915 -260Q915 -363 827 -424T588 -485Z"/><glyph unicode="¹" horiz-adv-x="786" d="M129 737H307V1364Q235 1339 129 1339V1544Q245 1544 307 1553T406 1581H537V737H690V555H129V737Z"/><glyph unicode="º" horiz-adv-x="1237" d="M618 514Q403 514 272 648T141 1004Q141 1224 272 1357T618 1491Q836 1491 966 1356T1096 1004Q1096 785 966 650T618 514ZM618 729Q723 729 785 803T848 997Q848 1117 786 1191T618 1266Q513 1266 452 1191T391 997Q391 879 452 804T618 729ZM195 403H1042V186H195V403Z"/><glyph unicode="»" horiz-adv-x="1511" d="M485 0H233L510 575L233 1153H485L795 575L485 0ZM1030 0H780L1057 575L780 1153H1030L1339 575L1030 0Z"/><glyph unicode="¼" horiz-adv-x="2214" d="M109 631H287V1255Q218 1231 109 1231V1436Q224 1436 286 1445T385 1473H516V631H670V446H109V631ZM1370 1466H1634L784 0H520L1370 1466ZM1626 174H1772V279H1245V430L1708 1026H1960L1507 446H1776L1827 649H1987V446H2150V279H1987V174H2105V0H1626V174Z"/><glyph unicode="½" horiz-adv-x="2331" d="M109 631H287V1255Q218 1231 109 1231V1436Q224 1436 286 1445T385 1473H516V631H670V446H109V631ZM1370 1466H1634L784 0H520L1370 1466ZM1427 217L1735 412Q1882 507 1929 567T1976 711Q1976 768 1940 803T1825 838Q1692 838 1602 731L1419 848Q1493 950 1599 996T1855 1042Q2022 1042 2115 961T2208 735Q2208 609 2138 509T1898 301L1675 162H2046V309H2230V0H1427V217Z"/><glyph unicode="¾" horiz-adv-x="2333" d="M1491 1466H1753L905 0H641L1491 1466ZM1745 174H1890V279H1364V430L1829 1026H2081L1626 446H1896L1948 649H2107V446H2269V279H2107V174H2224V0H1745V174ZM471 432Q300 432 193 488T29 662L223 748Q282 625 451 625Q551 625 602 663T653 770Q653 847 583 879T328 911V1069Q484 1069 550 1097T616 1190Q616 1236 580 1266T461 1296Q306 1296 242 1204L66 1309Q193 1491 477 1491Q644 1491 744 1423T844 1241Q844 1159 792 1099T651 1016Q761 995 822 927T883 752Q883 603 770 518T471 432Z"/><glyph unicode="¿" horiz-adv-x="1415" d="M682 -25Q427 -25 285 81T143 379Q143 506 215 607T444 782Q545 832 582 877T619 991Q619 1028 612 1079H899Q905 1027 905 984Q905 860 849 782T637 625Q548 583 512 554T457 492T438 412Q438 242 688 242Q814 242 897 282T1038 401L1274 248Q1176 106 1031 41T682 -25ZM584 1518H926V1210H584V1518Z"/><glyph unicode="À" horiz-adv-x="1704" d="M49 248H170L676 1528H1032L1538 248H1655V0H1036V236H1237L1155 446H526L444 236H623V0H49V248ZM1075 657L840 1260L606 657H1075ZM510 1802L594 2034L1164 1774L1094 1591L510 1802Z"/><glyph unicode="Á" horiz-adv-x="1704" d="M49 248H170L676 1528H1032L1538 248H1655V0H1036V236H1237L1155 446H526L444 236H623V0H49V248ZM1075 657L840 1260L606 657H1075ZM541 1772L1110 2032L1196 1800L610 1589L541 1772Z"/><glyph unicode="Â" horiz-adv-x="1704" d="M49 248H170L676 1528H1032L1538 248H1655V0H1036V236H1237L1155 446H526L444 236H623V0H49V248ZM1075 657L840 1260L606 657H1075ZM428 1763L791 1982H914L1278 1763L1200 1604L852 1745L506 1604L428 1763Z"/><glyph unicode="Ã" horiz-adv-x="1704" d="M49 248H170L676 1528H1032L1538 248H1655V0H1036V236H1237L1155 446H526L444 236H623V0H49V248ZM1075 657L840 1260L606 657H1075ZM387 1751Q459 1844 546 1903T715 1962Q766 1962 802 1946T867 1911T921 1876T979 1860Q1060 1860 1149 1976L1313 1843Q1238 1745 1150 1689T987 1632Q939 1632 905 1648T841 1683T785 1719T723 1735Q688 1735 642 1707T551 1616L387 1751Z"/><glyph unicode="Ä" horiz-adv-x="1704" d="M49 248H170L676 1528H1032L1538 248H1655V0H1036V236H1237L1155 446H526L444 236H623V0H49V248ZM1075 657L840 1260L606 657H1075ZM500 1888H766V1622H500V1888ZM940 1888H1206V1622H940V1888Z"/><glyph unicode="Å" horiz-adv-x="1704" d="M49 248H170L653 1473Q610 1502 585 1550T559 1661Q559 1788 644 1874T852 1960Q974 1960 1058 1872T1143 1661Q1143 1602 1118 1554T1053 1473L1538 248H1655V0H1036V236H1237L1155 446H526L444 236H623V0H49V248ZM852 1520Q909 1520 947 1560T985 1661Q985 1722 947 1764T852 1806Q797 1806 758 1765T719 1661Q719 1600 758 1560T852 1520ZM1075 657L840 1260L606 657H1075Z"/><glyph unicode="Æ" horiz-adv-x="2347" d="M49 248H190L823 1264H653V1518H2226V985H1960V1268H1425V885H1862V645H1425V242H1978V563H2247V0H924V236H1133V457H616L479 236H653V0H49V248ZM1133 672V1292L748 672H1133Z"/><glyph unicode="Ç" horiz-adv-x="1612" d="M813 -23Q601 -23 431 74T169 346T76 748Q76 973 165 1152T425 1436T791 1542Q1124 1542 1237 1333V1518H1487V985H1221Q1142 1264 829 1264Q701 1264 598 1201T438 1021T381 752Q381 599 437 485T598 308T834 246Q993 246 1100 322T1266 565L1526 479Q1447 244 1259 111T813 -23ZM791 -485Q646 -485 533 -420L611 -279Q703 -322 789 -322Q858 -322 888 -299T918 -244Q918 -172 798 -172L744 -174L672 -133L705 14H877L858 -92Q896 -80 937 -80Q1019 -80 1068 -128T1118 -260Q1118 -363 1030 -424T791 -485Z"/><glyph unicode="È" horiz-adv-x="1448" d="M49 248H227V1264H49V1518H1327V985H1061V1272H526V885H952V645H526V238H1079V563H1348V0H49V248ZM391 1802L475 2034L1045 1774L975 1591L391 1802Z"/><glyph unicode="É" horiz-adv-x="1448" d="M402 1772L971 2032L1057 1800L471 1589L402 1772ZM49 248H227V1264H49V1518H1327V985H1061V1272H526V885H952V645H526V238H1079V563H1348V0H49V248Z"/><glyph unicode="Ê" horiz-adv-x="1448" d="M299 1763L662 1982H785L1149 1763L1071 1604L723 1745L377 1604L299 1763ZM49 248H227V1264H49V1518H1327V985H1061V1272H526V885H952V645H526V238H1079V563H1348V0H49V248Z"/><glyph unicode="Ë" horiz-adv-x="1448" d="M371 1888H637V1622H371V1888ZM811 1888H1077V1622H811V1888ZM49 248H227V1264H49V1518H1327V985H1061V1272H526V885H952V645H526V238H1079V563H1348V0H49V248Z"/><glyph unicode="Ì" horiz-adv-x="803" d="M49 248H252V1264H49V1518H754V1264H551V248H754V0H49V248ZM70 1802L154 2034L724 1774L654 1591L70 1802Z"/><glyph unicode="Í" horiz-adv-x="803" d="M49 248H252V1264H49V1518H754V1264H551V248H754V0H49V248ZM81 1772L650 2032L736 1800L150 1589L81 1772Z"/><glyph unicode="Î" horiz-adv-x="803" d="M49 248H252V1264H49V1518H754V1264H551V248H754V0H49V248ZM-22 1763L341 1982H464L828 1763L750 1604L402 1745L56 1604L-22 1763Z"/><glyph unicode="Ï" horiz-adv-x="803" d="M49 248H252V1264H49V1518H754V1264H551V248H754V0H49V248ZM50 1888H316V1622H50V1888ZM490 1888H756V1622H490V1888Z"/><glyph unicode="Ð" horiz-adv-x="1614" d="M49 248H227V649H70V893H227V1264H49V1518H735Q1129 1518 1334 1328T1540 760Q1540 387 1324 194T707 0H49V248ZM739 254Q1233 254 1233 760Q1233 1016 1109 1136T719 1257H524V893H807V649H524V254H739Z"/><glyph unicode="Ñ" horiz-adv-x="1772" d="M49 248H227V1264H49V1518H582L1286 467V1264H1118V1518H1722V1264H1565V0H1274L504 1128V248H705V0H49V248ZM422 1751Q494 1844 581 1903T750 1962Q801 1962 837 1946T902 1911T956 1876T1014 1860Q1095 1860 1184 1976L1348 1843Q1273 1745 1185 1689T1022 1632Q974 1632 940 1648T876 1683T820 1719T758 1735Q723 1735 677 1707T586 1616L422 1751Z"/><glyph unicode="Ò" horiz-adv-x="1698" d="M850 -25Q631 -25 449 76T170 353T74 760Q74 990 169 1164T447 1440T850 1542Q1069 1542 1252 1441T1530 1165T1626 760Q1626 528 1530 353T1252 76T850 -25ZM850 244Q984 244 1091 306T1259 486T1319 756Q1319 907 1259 1023T1091 1201T850 1264Q716 1264 609 1202T441 1024T381 756Q381 604 440 488T607 308T850 244ZM516 1802L600 2034L1170 1774L1100 1591L516 1802Z"/><glyph unicode="Ó" horiz-adv-x="1698" d="M527 1772L1096 2032L1182 1800L596 1589L527 1772ZM850 -25Q631 -25 449 76T170 353T74 760Q74 990 169 1164T447 1440T850 1542Q1069 1542 1252 1441T1530 1165T1626 760Q1626 528 1530 353T1252 76T850 -25ZM850 244Q984 244 1091 306T1259 486T1319 756Q1319 907 1259 1023T1091 1201T850 1264Q716 1264 609 1202T441 1024T381 756Q381 604 440 488T607 308T850 244Z"/><glyph unicode="Ô" horiz-adv-x="1698" d="M424 1763L787 1982H910L1274 1763L1196 1604L848 1745L502 1604L424 1763ZM850 -25Q631 -25 449 76T170 353T74 760Q74 990 169 1164T447 1440T850 1542Q1069 1542 1252 1441T1530 1165T1626 760Q1626 528 1530 353T1252 76T850 -25ZM850 244Q984 244 1091 306T1259 486T1319 756Q1319 907 1259 1023T1091 1201T850 1264Q716 1264 609 1202T441 1024T381 756Q381 604 440 488T607 308T850 244Z"/><glyph unicode="Õ" horiz-adv-x="1698" d="M850 -25Q631 -25 449 76T170 353T74 760Q74 990 169 1164T447 1440T850 1542Q1069 1542 1252 1441T1530 1165T1626 760Q1626 528 1530 353T1252 76T850 -25ZM850 244Q984 244 1091 306T1259 486T1319 756Q1319 907 1259 1023T1091 1201T850 1264Q716 1264 609 1202T441 1024T381 756Q381 604 440 488T607 308T850 244ZM383 1751Q455 1844 542 1903T711 1962Q762 1962 798 1946T863 1911T917 1876T975 1860Q1056 1860 1145 1976L1309 1843Q1234 1745 1146 1689T983 1632Q935 1632 901 1648T837 1683T781 1719T719 1735Q684 1735 638 1707T547 1616L383 1751Z"/><glyph unicode="Ö" horiz-adv-x="1698" d="M496 1888H762V1622H496V1888ZM936 1888H1202V1622H936V1888ZM850 -25Q631 -25 449 76T170 353T74 760Q74 990 169 1164T447 1440T850 1542Q1069 1542 1252 1441T1530 1165T1626 760Q1626 528 1530 353T1252 76T850 -25ZM850 244Q984 244 1091 306T1259 486T1319 756Q1319 907 1259 1023T1091 1201T850 1264Q716 1264 609 1202T441 1024T381 756Q381 604 440 488T607 308T850 244Z"/><glyph unicode="×" horiz-adv-x="1470" d="M248 414L557 723L248 1030L428 1212L735 905L1044 1212L1221 1030L913 723L1221 416L1044 231L735 541L426 231L248 414Z"/><glyph unicode="Ø" horiz-adv-x="1698" d="M850 -25Q699 -25 558 26L467 -127H190L348 142Q213 248 144 406T74 760Q74 990 169 1164T447 1440T850 1542Q1000 1542 1141 1491L1233 1645H1511L1352 1374Q1490 1266 1558 1109T1626 760Q1626 528 1530 353T1252 76T850 -25ZM850 236Q987 236 1095 299T1265 481T1327 756Q1327 988 1195 1131L684 263Q762 236 850 236ZM371 756Q371 523 502 381L1011 1248Q933 1274 850 1274Q712 1274 603 1210T432 1028T371 756Z"/><glyph unicode="Ù" horiz-adv-x="1761" d="M879 -25Q674 -25 525 44T291 253T207 575V1264H49V1518H756V1270H506V612Q506 427 602 334T885 240Q1264 240 1264 612V1270H1016V1518H1712V1264H1554V575Q1554 393 1469 254T1235 45T879 -25ZM548 1802L632 2034L1202 1774L1132 1591L548 1802Z"/><glyph unicode="Ú" horiz-adv-x="1761" d="M559 1772L1128 2032L1214 1800L628 1589L559 1772ZM879 -25Q674 -25 525 44T291 253T207 575V1264H49V1518H756V1270H506V612Q506 427 602 334T885 240Q1264 240 1264 612V1270H1016V1518H1712V1264H1554V575Q1554 393 1469 254T1235 45T879 -25Z"/><glyph unicode="Û" horiz-adv-x="1761" d="M461 1763L824 1982H947L1311 1763L1233 1604L885 1745L539 1604L461 1763ZM879 -25Q674 -25 525 44T291 253T207 575V1264H49V1518H756V1270H506V612Q506 427 602 334T885 240Q1264 240 1264 612V1270H1016V1518H1712V1264H1554V575Q1554 393 1469 254T1235 45T879 -25Z"/><glyph unicode="Ü" horiz-adv-x="1761" d="M531 1888H797V1622H531V1888ZM971 1888H1237V1622H971V1888ZM879 -25Q674 -25 525 44T291 253T207 575V1264H49V1518H756V1270H506V612Q506 427 602 334T885 240Q1264 240 1264 612V1270H1016V1518H1712V1264H1554V575Q1554 393 1469 254T1235 45T879 -25Z"/><glyph unicode="Ý" horiz-adv-x="1651" d="M485 238H680V569L168 1264H49V1518H705V1274H483L842 784L1190 1274H983V1518H1602V1264H1483L981 569V238H1176V0H485V238ZM504 1772L1073 2032L1159 1800L573 1589L504 1772Z"/><glyph unicode="Þ" horiz-adv-x="1524" d="M49 248H227V1264H49V1518H526V1335H870Q1456 1335 1456 858Q1456 617 1310 500T856 383H526V238H750V0H49V248ZM872 606Q1019 606 1086 665T1153 848Q1153 979 1081 1036T852 1094H526V606H872Z"/><glyph unicode="ß" horiz-adv-x="1470" d="M883 -18Q749 -18 649 6L702 266Q762 250 856 250Q982 250 1047 313T1112 496Q1112 625 1019 684T707 743V979Q1026 979 1026 1192Q1026 1380 803 1380Q695 1380 633 1336T571 1212L570 1021V604L571 0H49V236H283V911H49V1153H283V1235Q283 1425 418 1526T801 1628Q1056 1628 1184 1531T1313 1247Q1313 1121 1243 1025T1044 889Q1212 857 1307 748T1403 475Q1403 230 1272 106T883 -18Z"/><glyph unicode="à" horiz-adv-x="1286" d="M840 203Q790 96 681 39T424 -18Q255 -18 158 76T61 334Q61 511 190 611T549 711Q669 711 827 678V690Q827 782 808 828T745 898T627 922Q538 922 444 902T274 846L170 1077Q263 1126 395 1155T659 1184Q896 1184 1003 1071T1110 711V236H1266V12L891 -16L840 203ZM524 221Q666 221 746 283T827 451V489Q736 508 643 508Q483 508 412 472T340 362Q340 290 385 256T524 221ZM311 1460L395 1692L965 1432L895 1249L311 1460Z"/><glyph unicode="á" horiz-adv-x="1286" d="M840 203Q790 96 681 39T424 -18Q255 -18 158 76T61 334Q61 511 190 611T549 711Q669 711 827 678V690Q827 782 808 828T745 898T627 922Q538 922 444 902T274 846L170 1077Q263 1126 395 1155T659 1184Q896 1184 1003 1071T1110 711V236H1266V12L891 -16L840 203ZM524 221Q666 221 746 283T827 451V489Q736 508 643 508Q483 508 412 472T340 362Q340 290 385 256T524 221ZM322 1430L891 1690L977 1458L391 1247L322 1430Z"/><glyph unicode="â" horiz-adv-x="1286" d="M840 203Q790 96 681 39T424 -18Q255 -18 158 76T61 334Q61 511 190 611T549 711Q669 711 827 678V690Q827 782 808 828T745 898T627 922Q538 922 444 902T274 846L170 1077Q263 1126 395 1155T659 1184Q896 1184 1003 1071T1110 711V236H1266V12L891 -16L840 203ZM524 221Q666 221 746 283T827 451V489Q736 508 643 508Q483 508 412 472T340 362Q340 290 385 256T524 221ZM219 1421L582 1640H705L1069 1421L991 1262L643 1403L297 1262L219 1421Z"/><glyph unicode="ã" horiz-adv-x="1286" d="M840 203Q790 96 681 39T424 -18Q255 -18 158 76T61 334Q61 511 190 611T549 711Q669 711 827 678V690Q827 782 808 828T745 898T627 922Q538 922 444 902T274 846L170 1077Q263 1126 395 1155T659 1184Q896 1184 1003 1071T1110 711V236H1266V12L891 -16L840 203ZM524 221Q666 221 746 283T827 451V489Q736 508 643 508Q483 508 412 472T340 362Q340 290 385 256T524 221ZM178 1409Q250 1502 337 1561T506 1620Q557 1620 593 1604T658 1569T712 1534T770 1518Q851 1518 940 1634L1104 1501Q1029 1403 941 1347T778 1290Q730 1290 696 1306T632 1341T576 1377T514 1393Q479 1393 433 1365T342 1274L178 1409Z"/><glyph unicode="ä" horiz-adv-x="1286" d="M840 203Q790 96 681 39T424 -18Q255 -18 158 76T61 334Q61 511 190 611T549 711Q669 711 827 678V690Q827 782 808 828T745 898T627 922Q538 922 444 902T274 846L170 1077Q263 1126 395 1155T659 1184Q896 1184 1003 1071T1110 711V236H1266V12L891 -16L840 203ZM524 221Q666 221 746 283T827 451V489Q736 508 643 508Q483 508 412 472T340 362Q340 290 385 256T524 221ZM291 1546H557V1280H291V1546ZM731 1546H997V1280H731V1546Z"/><glyph unicode="å" horiz-adv-x="1286" d="M840 203Q790 96 681 39T424 -18Q255 -18 158 76T61 334Q61 511 190 611T549 711Q669 711 827 678V690Q827 782 808 828T745 898T627 922Q538 922 444 902T274 846L170 1077Q263 1126 395 1155T659 1184Q896 1184 1003 1071T1110 711V236H1266V12L891 -16L840 203ZM524 221Q666 221 746 283T827 451V489Q736 508 643 508Q483 508 412 472T340 362Q340 290 385 256T524 221ZM643 1247Q523 1247 437 1331T350 1544Q350 1671 435 1757T643 1843Q765 1843 849 1755T934 1544Q934 1420 849 1334T643 1247ZM643 1403Q700 1403 738 1443T776 1544Q776 1604 738 1646T643 1688Q588 1688 549 1647T510 1544Q510 1482 549 1443T643 1403Z"/><glyph unicode="æ" horiz-adv-x="1968" d="M424 -18Q255 -18 158 76T61 334Q61 511 190 611T549 711Q669 711 827 678V690Q827 782 808 828T745 898T627 922Q536 922 440 901T274 846L170 1077Q263 1126 395 1155T659 1184Q785 1184 864 1148T991 1031Q1136 1180 1370 1180Q1618 1180 1744 1038T1870 590V477H1092Q1129 217 1368 217Q1470 217 1541 254T1667 377L1892 240Q1809 105 1673 41T1339 -23Q1028 -23 905 219Q836 101 713 42T424 -18ZM524 221Q666 221 746 283T827 451V489Q736 508 643 508Q486 508 413 474T340 367Q340 221 524 221ZM1374 936Q1262 936 1189 873T1094 686H1599V692Q1599 800 1538 868T1374 936Z"/><glyph unicode="ç" horiz-adv-x="1278" d="M641 -18Q466 -18 339 56T145 265T78 580Q78 743 147 881T341 1098T616 1176Q730 1176 816 1134T942 1004V1153H1159V705H932Q872 915 662 915Q532 915 453 820T373 573Q373 418 450 324T664 229Q759 229 824 273T950 430L1194 315Q1034 -18 641 -18ZM623 -485Q478 -485 365 -420L443 -279Q535 -322 621 -322Q690 -322 720 -299T750 -244Q750 -172 630 -172L576 -174L504 -133L537 14H709L690 -92Q728 -80 769 -80Q851 -80 900 -128T950 -260Q950 -363 862 -424T623 -485Z"/><glyph unicode="è" horiz-adv-x="1245" d="M616 -23Q365 -23 222 138T78 580Q78 753 147 890T344 1104T647 1180Q895 1180 1021 1038T1147 590V477H369Q406 217 645 217Q747 217 818 254T944 377L1169 240Q1086 105 950 41T616 -23ZM651 936Q539 936 466 873T371 686H877V700Q877 803 814 869T651 936ZM295 1460L379 1692L949 1432L879 1249L295 1460Z"/><glyph unicode="é" horiz-adv-x="1245" d="M306 1430L875 1690L961 1458L375 1247L306 1430ZM616 -23Q365 -23 222 138T78 580Q78 753 147 890T344 1104T647 1180Q895 1180 1021 1038T1147 590V477H369Q406 217 645 217Q747 217 818 254T944 377L1169 240Q1086 105 950 41T616 -23ZM651 936Q539 936 466 873T371 686H877V700Q877 803 814 869T651 936Z"/><glyph unicode="ê" horiz-adv-x="1245" d="M203 1421L566 1640H689L1053 1421L975 1262L627 1403L281 1262L203 1421ZM616 -23Q365 -23 222 138T78 580Q78 753 147 890T344 1104T647 1180Q895 1180 1021 1038T1147 590V477H369Q406 217 645 217Q747 217 818 254T944 377L1169 240Q1086 105 950 41T616 -23ZM651 936Q539 936 466 873T371 686H877V700Q877 803 814 869T651 936Z"/><glyph unicode="ë" horiz-adv-x="1245" d="M275 1546H541V1280H275V1546ZM715 1546H981V1280H715V1546ZM616 -23Q365 -23 222 138T78 580Q78 753 147 890T344 1104T647 1180Q895 1180 1021 1038T1147 590V477H369Q406 217 645 217Q747 217 818 254T944 377L1169 240Q1086 105 950 41T616 -23ZM651 936Q539 936 466 873T371 686H877V700Q877 803 814 869T651 936Z"/><glyph unicode="ì" horiz-adv-x="754" d="M49 236H240V911H49V1149L528 1174V236H733V0H49V236ZM-18 1460L66 1692L636 1432L566 1249L-18 1460Z"/><glyph unicode="í" horiz-adv-x="754" d="M55 1430L624 1690L710 1458L124 1247L55 1430ZM49 236H240V911H49V1149L528 1174V236H733V0H49V236Z"/><glyph unicode="î" horiz-adv-x="754" d="M-48 1421L315 1640H438L802 1421L724 1262L376 1403L30 1262L-48 1421ZM49 236H240V911H49V1149L528 1174V236H733V0H49V236Z"/><glyph unicode="ï" horiz-adv-x="754" d="M24 1546H290V1280H24V1546ZM464 1546H730V1280H464V1546ZM49 236H240V911H49V1149L528 1174V236H733V0H49V236Z"/><glyph unicode="ð" horiz-adv-x="1331" d="M602 1348L723 1379Q686 1428 633 1479L852 1636Q943 1556 1017 1453L1237 1509V1315L1117 1284Q1253 1003 1253 635Q1253 438 1181 289T974 59T666 -23Q487 -23 354 48T149 251T78 549Q78 707 141 832T321 1026T594 1096Q691 1096 777 1060T920 944Q892 1078 826 1211L602 1155V1348ZM666 236Q803 236 882 323T961 555Q961 702 882 788T666 874Q529 874 450 788T371 555Q371 410 449 323T666 236Z"/><glyph unicode="ñ" horiz-adv-x="1440" d="M49 236H205V911H49V1145L416 1174L467 940Q515 1056 622 1118T877 1180Q1073 1180 1169 1069T1266 715V236H1419V0H813V236H975V655Q975 793 927 851T766 909Q494 909 494 645V236H655V0H49V236ZM256 1409Q328 1502 415 1561T584 1620Q635 1620 671 1604T736 1569T790 1534T848 1518Q929 1518 1018 1634L1182 1501Q1107 1403 1019 1347T856 1290Q808 1290 774 1306T710 1341T654 1377T592 1393Q557 1393 511 1365T420 1274L256 1409Z"/><glyph unicode="ò" horiz-adv-x="1329" d="M666 -23Q398 -23 238 142T78 580Q78 757 151 894T358 1105T666 1180Q839 1180 972 1106T1178 894T1251 580Q1251 402 1178 264T973 52T666 -23ZM666 229Q803 229 882 322T961 573Q961 731 883 823T666 915Q527 915 449 823T371 573Q371 416 449 323T666 229ZM333 1460L417 1692L987 1432L917 1249L333 1460Z"/><glyph unicode="ó" horiz-adv-x="1329" d="M344 1430L913 1690L999 1458L413 1247L344 1430ZM666 -23Q398 -23 238 142T78 580Q78 757 151 894T358 1105T666 1180Q839 1180 972 1106T1178 894T1251 580Q1251 402 1178 264T973 52T666 -23ZM666 229Q803 229 882 322T961 573Q961 731 883 823T666 915Q527 915 449 823T371 573Q371 416 449 323T666 229Z"/><glyph unicode="ô" horiz-adv-x="1329" d="M241 1421L604 1640H727L1091 1421L1013 1262L665 1403L319 1262L241 1421ZM666 -23Q398 -23 238 142T78 580Q78 757 151 894T358 1105T666 1180Q839 1180 972 1106T1178 894T1251 580Q1251 402 1178 264T973 52T666 -23ZM666 229Q803 229 882 322T961 573Q961 731 883 823T666 915Q527 915 449 823T371 573Q371 416 449 323T666 229Z"/><glyph unicode="õ" horiz-adv-x="1329" d="M666 -23Q398 -23 238 142T78 580Q78 757 151 894T358 1105T666 1180Q839 1180 972 1106T1178 894T1251 580Q1251 402 1178 264T973 52T666 -23ZM666 229Q803 229 882 322T961 573Q961 731 883 823T666 915Q527 915 449 823T371 573Q371 416 449 323T666 229ZM200 1409Q272 1502 359 1561T528 1620Q579 1620 615 1604T680 1569T734 1534T792 1518Q873 1518 962 1634L1126 1501Q1051 1403 963 1347T800 1290Q752 1290 718 1306T654 1341T598 1377T536 1393Q501 1393 455 1365T364 1274L200 1409Z"/><glyph unicode="ö" horiz-adv-x="1329" d="M313 1546H579V1280H313V1546ZM753 1546H1019V1280H753V1546ZM666 -23Q398 -23 238 142T78 580Q78 757 151 894T358 1105T666 1180Q839 1180 972 1106T1178 894T1251 580Q1251 402 1178 264T973 52T666 -23ZM666 229Q803 229 882 322T961 573Q961 731 883 823T666 915Q527 915 449 823T371 573Q371 416 449 323T666 229Z"/><glyph unicode="÷" horiz-adv-x="1470" d="M584 444H887V176H584V444ZM197 852H1274V592H197V852ZM584 1268H887V997H584V1268Z"/><glyph unicode="ø" horiz-adv-x="1329" d="M666 -23Q544 -23 439 14L354 -119H106L258 123Q78 291 78 580Q78 757 151 894T358 1105T666 1180Q789 1180 891 1142L981 1284H1229L1071 1034Q1251 868 1251 580Q1251 402 1178 264T973 52T666 -23ZM666 217Q808 217 889 313T971 573Q971 708 913 800L562 232Q608 217 666 217ZM360 573Q360 442 415 350L763 914Q716 928 666 928Q522 928 441 832T360 573Z"/><glyph unicode="ù" horiz-adv-x="1436" d="M575 -20Q375 -20 282 87T188 444V911H49V1145L477 1174V485Q477 345 526 288T686 231Q821 231 886 295T952 494V911H762V1145L1241 1174V236H1415V10L1028 -16L979 197Q932 97 825 39T575 -20ZM385 1460L469 1692L1039 1432L969 1249L385 1460Z"/><glyph unicode="ú" horiz-adv-x="1436" d="M396 1430L965 1690L1051 1458L465 1247L396 1430ZM575 -20Q375 -20 282 87T188 444V911H49V1145L477 1174V485Q477 345 526 288T686 231Q821 231 886 295T952 494V911H762V1145L1241 1174V236H1415V10L1028 -16L979 197Q932 97 825 39T575 -20Z"/><glyph unicode="û" horiz-adv-x="1436" d="M272 1421L635 1640H758L1122 1421L1044 1262L696 1403L350 1262L272 1421ZM575 -20Q375 -20 282 87T188 444V911H49V1145L477 1174V485Q477 345 526 288T686 231Q821 231 886 295T952 494V911H762V1145L1241 1174V236H1415V10L1028 -16L979 197Q932 97 825 39T575 -20Z"/><glyph unicode="ü" horiz-adv-x="1436" d="M348 1546H614V1280H348V1546ZM788 1546H1054V1280H788V1546ZM575 -20Q375 -20 282 87T188 444V911H49V1145L477 1174V485Q477 345 526 288T686 231Q821 231 886 295T952 494V911H762V1145L1241 1174V236H1415V10L1028 -16L979 197Q932 97 825 39T575 -20Z"/><glyph unicode="ý" horiz-adv-x="1321" d="M395 -360Q304 -360 216 -347T76 -315L160 -82Q287 -121 371 -121Q416 -121 453 -105T522 -38L141 911H20V1153H604V918H438L679 259L930 918H772V1153H1300V911H1186L780 -80Q717 -233 626 -296T395 -360ZM351 1430L920 1690L1006 1458L420 1247L351 1430Z"/><glyph unicode="þ" horiz-adv-x="1434" d="M39 -111H193V1323H39V1565L481 1595V952Q540 1064 648 1122T895 1180Q1039 1180 1143 1106T1301 894T1356 580Q1356 403 1298 267T1129 56T870 -18Q727 -18 634 38T481 199V-111H645V-338H39V-111ZM801 229Q926 229 993 318T1061 569Q1061 739 994 827T801 915Q657 915 569 821T481 569Q481 410 566 320T801 229Z"/><glyph unicode="ÿ" horiz-adv-x="1321" d="M395 -360Q304 -360 216 -347T76 -315L160 -82Q287 -121 371 -121Q416 -121 453 -105T522 -38L141 911H20V1153H604V918H438L679 259L930 918H772V1153H1300V911H1186L780 -80Q717 -233 626 -296T395 -360ZM334 1546H600V1280H334V1546ZM774 1546H1040V1280H774V1546Z"/><glyph unicode="ı" horiz-adv-x="754" d="M49 236H240V911H49V1149L528 1174V236H733V0H49V236Z"/><glyph unicode="Ŀ" horiz-adv-x="1407" d="M49 248H227V1264H49V1518H754V1264H526V238H1055V563H1327V0H49V248ZM918 1066H1213V792H918V1066Z"/><glyph unicode="ŀ" horiz-adv-x="809" d="M49 236H229V1323H39V1565L518 1595V236H723V0H49V236ZM703 949H998V675H703V949Z"/><glyph unicode="Œ" horiz-adv-x="2306" d="M879 0Q485 0 280 190T74 758Q74 1131 290 1324T907 1518H2185V985H1917V1268H1384V885H1821V645H1384V242H1937V563H2204V0H879ZM1090 252V1257H874Q381 1257 381 750Q381 494 506 373T895 252H1090Z"/><glyph unicode="œ" horiz-adv-x="2114" d="M1485 -23Q1220 -23 1088 166Q936 -23 666 -23Q398 -23 238 142T78 580Q78 757 151 894T358 1105T666 1180Q944 1180 1097 982Q1238 1180 1518 1180Q1766 1180 1891 1037T2017 590V477H1239Q1257 349 1324 283T1516 217Q1618 217 1689 254T1815 377L2040 240Q1958 106 1821 42T1485 -23ZM666 229Q803 229 882 322T961 573Q961 731 883 823T666 915Q527 915 449 823T371 573Q371 416 449 323T666 229ZM1520 936Q1410 936 1337 873T1242 686H1747V692Q1747 801 1685 868T1520 936Z"/><glyph unicode="Š" horiz-adv-x="1466" d="M307 1815L385 1974L733 1833L1081 1974L1157 1815L795 1595H672L307 1815ZM797 -25Q625 -25 508 21T330 174V0H94V563H338Q365 392 468 310T756 227Q919 227 1002 278T1085 426Q1085 486 1054 524T962 585T743 633Q537 661 434 697T270 787T176 916T143 1096Q143 1228 208 1327T399 1484T680 1542Q835 1542 933 1500T1083 1370V1518H1319V985H1081Q1055 1132 963 1207T721 1282Q590 1282 518 1235T446 1100Q446 1040 478 1002T570 939T778 893Q846 883 917 872T1056 842T1184 793T1289 716T1360 601T1386 438Q1386 225 1229 100T797 -25Z"/><glyph unicode="š" horiz-adv-x="1155" d="M406 1473L484 1632L832 1491L1180 1632L1256 1473L894 1253H771L406 1473ZM645 -16Q502 -16 403 28T272 147V0H66V412H276Q311 311 389 260T608 209Q714 209 765 238T817 330Q817 368 796 391T734 429T541 465Q412 483 355 499T252 541T171 604T119 697T100 825Q100 985 218 1081T522 1178Q637 1178 724 1139T842 1040V1153H1049V784H831Q808 861 746 899T565 938Q387 938 387 827Q387 773 433 743T625 692L729 680Q930 655 1015 574T1100 348Q1100 177 978 81T645 -16Z"/><glyph unicode="Ÿ" horiz-adv-x="1651" d="M485 238H680V569L168 1264H49V1518H705V1274H483L842 784L1190 1274H983V1518H1602V1264H1483L981 569V238H1176V0H485V238ZM492 1888H758V1622H492V1888ZM932 1888H1198V1622H932V1888Z"/><glyph unicode="Ž" horiz-adv-x="1389" d="M268 1815L346 1974L694 1833L1042 1974L1118 1815L756 1595H633L268 1815ZM49 223L965 1284H344V985H76V1518H1313V1282L406 227H1071V563H1339V0H49V223Z"/><glyph unicode="ž" horiz-adv-x="1151" d="M406 1473L484 1632L832 1491L1180 1632L1256 1473L894 1253H771L406 1473ZM49 242L758 934H315V705H84V1153H1069V907L371 205H872V457H1102V0H49V242Z"/><glyph unicode="ƒ" horiz-adv-x="1083" d="M354 672H121V913H354V1096Q354 1285 465 1387T776 1489Q932 1489 1024 1466L977 1225Q893 1241 799 1241Q721 1241 682 1203T643 1085V913H961V672H643V-338H354V672Z"/><glyph unicode="ˆ" horiz-adv-x="1208" d="M180 1421L543 1640H666L1030 1421L952 1262L604 1403L258 1262L180 1421Z"/><glyph unicode="ˇ" horiz-adv-x="1208" d="M178 1473L256 1632L604 1491L952 1632L1028 1473L666 1253H543L178 1473Z"/><glyph unicode="˙" horiz-adv-x="1208" d="M457 1554H752V1280H457V1554Z"/><glyph unicode="˚" horiz-adv-x="1208" d="M604 1247Q484 1247 398 1331T311 1544Q311 1671 396 1757T604 1843Q726 1843 810 1755T895 1544Q895 1420 810 1334T604 1247ZM604 1403Q661 1403 699 1443T737 1544Q737 1604 699 1646T604 1688Q549 1688 510 1647T471 1544Q471 1482 510 1443T604 1403Z"/><glyph unicode="˜" horiz-adv-x="1208" d="M139 1409Q211 1502 298 1561T467 1620Q518 1620 554 1604T619 1569T673 1534T731 1518Q812 1518 901 1634L1065 1501Q990 1403 902 1347T739 1290Q691 1290 657 1306T593 1341T537 1377T475 1393Q440 1393 394 1365T303 1274L139 1409Z"/><glyph unicode="̄" horiz-adv-x="1208" d="M252 1511H958V1280H252V1511Z"/><glyph unicode="μ" horiz-adv-x="1442" d="M195 911H41V1145L483 1171V485Q483 345 532 288T692 231Q827 231 892 295T958 494V911H768V1145L1247 1171V236H1421V6L1034 -20L985 197Q940 98 842 50T606 2Q514 2 483 47V-338H195V911Z"/><glyph unicode="‒" horiz-adv-x="1372" d="M82 793H1292V535H82V793Z"/><glyph unicode="–" horiz-adv-x="1473" d="M84 793H1386V535H84V793Z"/><glyph unicode="—" horiz-adv-x="1915" d="M84 793H1831V535H84V793Z"/><glyph unicode="―" horiz-adv-x="2048" d="M0 535V793H2048V535H0Z"/><glyph unicode="‘" horiz-adv-x="580" d="M119 1092Q119 1235 141 1303T217 1420T381 1520L453 1376Q351 1326 325 1293T299 1188H461V848H119V1092Z"/><glyph unicode="’" horiz-adv-x="580" d="M127 989Q223 1035 253 1069T283 1178H119V1518H461V1274Q461 1127 439 1060T364 945T199 848L127 989Z"/><glyph unicode="‚" horiz-adv-x="580" d="M127 -188Q225 -143 254 -109T283 0H119V340H461V96Q461 -51 439 -118T362 -234T199 -332L127 -188Z"/><glyph unicode="“" horiz-adv-x="1047" d="M119 1100Q119 1243 141 1309T217 1423T377 1518L446 1378Q348 1331 322 1298T295 1194H455V860H119V1100ZM594 1100Q594 1242 616 1309T691 1423T850 1518L920 1378Q824 1332 796 1299T768 1194H928V860H594V1100Z"/><glyph unicode="”" horiz-adv-x="1047" d="M127 999Q223 1047 251 1080T279 1186H119V1518H455V1280Q455 1138 433 1072T358 957T197 860L127 999ZM602 999Q698 1047 726 1080T754 1186H594V1518H928V1280Q928 1137 906 1070T831 955T672 860L602 999Z"/><glyph unicode="„" horiz-adv-x="1047" d="M127 -186Q223 -140 251 -107T279 0H119V334H455V94Q455 -45 432 -112T355 -230T197 -326L127 -186ZM602 -186Q698 -140 726 -107T754 0H594V334H928V94Q928 -44 906 -112T829 -230T672 -326L602 -186Z"/><glyph unicode="†" horiz-adv-x="1202" d="M457 864H100V1126H457V1589H743V1126H1102V864H743V-340H457V864Z"/><glyph unicode="‡" horiz-adv-x="1202" d="M457 123H100V385H457V864H100V1126H457V1589H745V1126H1102V864H745V385H1102V123H745V-340H457V123Z"/><glyph unicode="•" horiz-adv-x="778" d="M186 842H592V406H186V842Z"/><glyph unicode="…" horiz-adv-x="1677" d="M119 340H461V0H119V340ZM668 340H1010V0H668V340ZM1217 340H1559V0H1217V340Z"/><glyph unicode="‰" horiz-adv-x="3508" d="M543 494Q411 494 303 555T134 730T72 991Q72 1137 133 1251T303 1427T543 1489Q672 1489 780 1427T949 1250T1010 991Q1010 844 949 731T780 556T543 494ZM543 717Q637 717 692 792T748 991Q748 1113 692 1186T543 1260Q447 1260 391 1186T334 991Q334 866 390 792T543 717ZM1540 1466H1808L958 0H690L1540 1466ZM1962 -20Q1831 -20 1723 42T1553 218T1491 479Q1491 625 1552 739T1722 915T1962 977Q2092 977 2200 914T2369 738T2429 479Q2429 332 2369 219T2199 43T1962 -20ZM1962 205Q2055 205 2111 278T2167 479Q2167 602 2111 673T1962 745Q1867 745 1810 673T1753 479Q1753 352 1810 279T1962 205ZM2970 -20Q2839 -20 2731 42T2561 218T2499 479Q2499 625 2560 739T2730 915T2970 977Q3099 977 3207 915T3376 738T3437 479Q3437 332 3376 219T3207 43T2970 -20ZM2970 205Q3062 205 3118 278T3174 479Q3174 602 3118 673T2970 745Q2875 745 2818 673T2761 479Q2761 352 2818 279T2970 205Z"/><glyph unicode="′" horiz-adv-x="670" d="M264 1466H569L424 786H164L264 1466Z"/><glyph unicode="″" horiz-adv-x="1143" d="M264 1466H559L414 786H164L264 1466ZM748 1466H1044L897 786H649L748 1466Z"/><glyph unicode="‹" horiz-adv-x="977" d="M172 575L481 1153H743L467 575L743 0H481L172 575Z"/><glyph unicode="›" horiz-adv-x="977" d="M496 0H233L510 575L233 1153H496L805 575L496 0Z"/><glyph unicode="⁄" horiz-adv-x="1112" d="M850 1466H1114L264 0H0L850 1466Z"/><glyph unicode="⁰" horiz-adv-x="1171" d="M586 539Q381 539 260 679T139 1069Q139 1317 259 1457T586 1597Q792 1597 912 1456T1032 1069Q1032 823 912 681T586 539ZM586 739Q793 739 793 1069Q793 1384 586 1384Q379 1384 379 1069Q379 739 586 739Z"/><glyph unicode="⁴" horiz-adv-x="1114" d="M475 729H621V831H94V983L557 1581H809L356 999H625L676 1204H836V999H999V831H836V729H954V555H475V729Z"/><glyph unicode="⁵" horiz-adv-x="1057" d="M528 537Q204 537 94 766L289 852Q349 727 518 727Q615 727 669 770T723 903Q723 979 674 1025T543 1071Q429 1071 338 1028L150 1096L201 1579H874V1380H381L356 1174Q396 1203 465 1221T614 1239Q769 1239 861 1149T954 905Q954 728 843 633T528 537Z"/><glyph unicode="⁶" horiz-adv-x="1110" d="M582 539Q370 539 251 667T131 1026Q131 1305 280 1450T711 1595Q778 1595 864 1581L827 1384Q772 1399 705 1399Q548 1399 463 1333T365 1120Q402 1177 476 1216T659 1255Q818 1255 909 1163T1001 911Q1001 740 889 640T582 539ZM588 729Q671 729 719 775T768 907Q768 993 722 1039T592 1085Q500 1085 439 1038T377 913Q377 829 433 779T588 729Z"/><glyph unicode="⁷" horiz-adv-x="1010" d="M373 555Q386 849 473 1056T723 1401H322V1233H125V1581H938V1430Q790 1311 705 1086T608 555H373Z"/><glyph unicode="⁸" horiz-adv-x="1106" d="M551 528Q417 528 321 568T173 682T121 852Q121 1052 315 1120Q244 1151 206 1208T168 1335Q168 1457 270 1530T551 1604Q671 1604 756 1571T887 1476T934 1335Q934 1261 894 1204T782 1120Q987 1053 987 852Q987 758 934 684T783 569T551 528ZM551 707Q646 707 698 750T750 868Q750 947 697 991T551 1036Q459 1036 407 991T354 868Q354 796 405 752T551 707ZM551 1176Q626 1176 666 1212T707 1305Q707 1359 667 1391T551 1423Q477 1423 437 1391T397 1305Q397 1249 437 1213T551 1176Z"/><glyph unicode="⁹" horiz-adv-x="1110" d="M285 741Q358 729 408 729Q572 729 654 792T748 1008Q710 951 636 912T453 872Q296 872 204 966T111 1221Q111 1394 224 1495T530 1597Q745 1597 862 1469T979 1108Q979 833 834 686T401 539Q318 539 248 551L285 741ZM520 1042Q612 1042 673 1088T735 1212Q735 1296 679 1345T522 1395Q441 1395 392 1350T342 1219Q342 1135 388 1089T520 1042Z"/><glyph unicode="₀" horiz-adv-x="1171" d="M586 -351Q381 -351 260 -211T139 179Q139 427 259 567T586 707Q792 707 912 566T1032 179Q1032 -67 912 -209T586 -351ZM586 -151Q793 -151 793 179Q793 494 586 494Q379 494 379 179Q379 -151 586 -151Z"/><glyph unicode="₁" horiz-adv-x="786" d="M129 -153H307V474Q235 449 129 449V654Q245 654 307 663T406 691H537V-153H690V-335H129V-153Z"/><glyph unicode="₂" horiz-adv-x="1067" d="M123 -118L430 77Q576 170 624 231T672 376Q672 433 636 468T520 503Q443 503 392 474T297 396L115 513Q189 615 295 661T551 707Q719 707 811 625T903 400Q903 273 832 172T594 -34L371 -173H741V-26H926V-335H123V-118Z"/><glyph unicode="₃" horiz-adv-x="1028" d="M506 -353Q334 -353 227 -296T63 -124L258 -38Q317 -161 485 -161Q585 -161 636 -123T688 -16Q688 63 616 94T362 126V284Q516 284 583 311T651 404Q651 451 615 481T496 511Q341 511 276 419L100 523Q227 705 512 705Q678 705 778 638T879 456Q879 374 826 313T686 230Q798 209 858 140T918 -34Q918 -182 805 -267T506 -353Z"/><glyph unicode="₄" horiz-adv-x="1114" d="M475 -161H621V-59H94V93L557 691H809L356 109H625L676 314H836V109H999V-59H836V-161H954V-335H475V-161Z"/><glyph unicode="₅" horiz-adv-x="1057" d="M528 -353Q204 -353 94 -124L289 -38Q349 -163 518 -163Q615 -163 669 -120T723 13Q723 89 674 135T543 181Q429 181 338 138L150 206L201 689H874V490H381L356 284Q396 313 465 331T614 349Q769 349 861 259T954 15Q954 -162 843 -257T528 -353Z"/><glyph unicode="₆" horiz-adv-x="1110" d="M582 -351Q370 -351 251 -223T131 136Q131 415 280 560T711 705Q778 705 864 691L827 494Q772 509 705 509Q548 509 463 443T365 230Q402 287 476 326T659 365Q818 365 909 273T1001 21Q1001 -150 889 -250T582 -351ZM588 -161Q671 -161 719 -115T768 17Q768 103 722 149T592 195Q500 195 439 148T377 23Q377 -61 433 -111T588 -161Z"/><glyph unicode="₇" horiz-adv-x="1010" d="M373 -335Q386 -41 473 166T723 511H322V343H125V691H938V540Q790 421 705 196T608 -335H373Z"/><glyph unicode="₈" horiz-adv-x="1106" d="M551 -362Q417 -362 321 -322T173 -208T121 -38Q121 162 315 230Q244 261 206 318T168 445Q168 567 270 640T551 714Q671 714 756 681T887 586T934 445Q934 371 894 314T782 230Q987 163 987 -38Q987 -132 934 -206T783 -321T551 -362ZM551 -183Q646 -183 698 -140T750 -22Q750 57 697 101T551 146Q459 146 407 101T354 -22Q354 -94 405 -138T551 -183ZM551 286Q626 286 666 322T707 415Q707 469 667 501T551 533Q477 533 437 501T397 415Q397 359 437 323T551 286Z"/><glyph unicode="₉" horiz-adv-x="1110" d="M285 -149Q358 -161 408 -161Q572 -161 654 -98T748 118Q710 61 636 22T453 -18Q296 -18 204 76T111 331Q111 504 224 605T530 707Q745 707 862 579T979 218Q979 -57 834 -204T401 -351Q318 -351 248 -339L285 -149ZM520 152Q612 152 673 198T735 322Q735 406 679 455T522 505Q441 505 392 460T342 329Q342 245 388 199T520 152Z"/><glyph unicode="€" horiz-adv-x="1526" d="M885 -18Q674 -18 527 107T326 461H63V670H297L295 719L297 784H63V991H324Q379 1224 530 1354T887 1485Q1127 1485 1214 1317V1466H1444V1010H1212Q1180 1119 1108 1173T911 1227Q809 1227 730 1169T612 991H1059V784H575L573 734L575 670H1059V461H614Q653 345 728 289T903 233Q1020 233 1100 291T1243 483L1477 369Q1288 -18 885 -18Z"/><glyph unicode="™" horiz-adv-x="2460" d="M1067 725H1178V1339H1067V1518H1442L1700 856L1958 1518H2335V1343H2224V725H2335V553H1909V723H2021V1217L1769 553H1624L1372 1217V723H1487V553H1067V725ZM319 721H442V1346H279V1167H98V1518H991V1167H813V1346H649V721H770V553H319V721Z"/><glyph unicode="∕" horiz-adv-x="1112" d="M850 1466H1114L264 0H0L850 1466Z"/><glyph unicode="∙" horiz-adv-x="580" d="M119 930H461V582H119V930Z"/><glyph unicode="" horiz-adv-x="1866" d="M102 756Q102 989 200 1165T494 1443T930 1544Q1171 1544 1367 1444T1663 1168T1763 756Q1763 521 1665 345T1370 67T930 -35Q691 -35 494 67T200 347T102 756ZM438 756Q438 614 496 506T670 336T930 274Q1074 274 1192 335T1368 505T1427 756Q1427 898 1368 1005T1191 1174T930 1235Q788 1235 672 1174T497 1005T438 756ZM692 756Q692 859 757 920T930 981Q1036 981 1102 921T1169 756Q1169 650 1104 589T930 528Q822 528 757 589T692 756Z"/><glyph unicode="ﬀ" horiz-adv-x="1724" d="M913 236H1098V911H571V236H813V0H49V236H283V911H49V1153H283V1202Q283 1390 393 1492T705 1595Q797 1595 841 1590T930 1573L887 1333Q795 1346 766 1347T727 1348Q649 1348 610 1310T571 1190V1153H1098V1202Q1098 1390 1208 1492T1520 1595Q1667 1595 1763 1571L1720 1331Q1601 1348 1542 1348Q1464 1348 1425 1310T1386 1190V1153H1704V911H1386V236H1704V0H913V236Z"/><glyph unicode="ﬁ" horiz-adv-x="1612" d="M49 236H283V911H49V1153H283V1202Q283 1390 393 1492T705 1595Q852 1595 942 1573L893 1333Q791 1348 727 1348Q649 1348 610 1310T571 1190V1153H809V911H571V236H809V0H49V236ZM909 236H1098V911H909V1145L1386 1174V236H1591V0H909V236ZM1090 1565H1395V1280H1090V1565Z"/><glyph unicode="ﬂ" horiz-adv-x="1612" d="M49 236H283V911H49V1153H283V1202Q283 1391 386 1493T674 1595Q816 1595 877 1581L831 1335Q773 1348 696 1348Q634 1348 603 1312T571 1190V1153H846V911H571V236H809V0H49V236ZM909 236H1098V1323H938V1565L1386 1595V236H1591V0H909V236Z"/><glyph unicode="ﬃ" horiz-adv-x="2437" d="M913 236H1098V911H571V236H813V0H49V236H283V911H49V1153H283V1202Q283 1390 393 1492T705 1595Q797 1595 841 1590T930 1573L887 1333Q795 1346 766 1347T727 1348Q649 1348 610 1310T571 1190V1153H1098V1202Q1098 1390 1208 1492T1520 1595Q1671 1595 1755 1573L1708 1333Q1606 1348 1542 1348Q1464 1348 1425 1310T1386 1190V1153H1632V911H1386V236H1632V0H913V236ZM1733 236H1923V911H1733V1145L2212 1174V236H2417V0H1733V236ZM1915 1565H2220V1280H1915V1565Z"/><glyph unicode="ﬄ" horiz-adv-x="2427" d="M913 236H1098V911H571V236H813V0H49V236H283V911H49V1153H283V1202Q283 1390 393 1492T705 1595Q797 1595 841 1590T930 1573L887 1333Q795 1346 766 1347T727 1348Q649 1348 610 1310T571 1190V1153H1098V1202Q1098 1391 1201 1493T1489 1595Q1614 1595 1692 1577L1647 1335Q1586 1348 1511 1348Q1449 1348 1418 1312T1386 1190V1153H1661V911H1386V236H1624V0H913V236ZM1724 236H1913V1323H1753V1565L2202 1595V236H2406V0H1724V236Z"/></font>
</defs>
</svg>
