<?xml version="1.0" encoding="utf-8"?>
<!-- Generator: Adobe Illustrator 16.1.0, SVG Export Plug-In . SVG Version: 6.00 Build 0)  -->
<!DOCTYPE svg PUBLIC "-//W3C//DTD SVG 1.1//EN" "http://www.w3.org/Graphics/SVG/1.1/DTD/svg11.dtd">
<svg version="1.1" id="Layer_1" xmlns="http://www.w3.org/2000/svg" xmlns:xlink="http://www.w3.org/1999/xlink" x="0px" y="0px"
	 width="65.497px" height="65.492px" viewBox="0 0 65.497 65.492" enable-background="new 0 0 65.497 65.492" xml:space="preserve">
<g>
<filter id="dropshadow" height="130%">
  <feGaussianBlur in="SourceAlpha" stdDeviation="3"/> <!-- stdDeviation is how much to blur -->
    <feOffset dx="0" dy="1" result="offsetblur"/> <!-- how much to offset -->
    <feMerge> 
          <feMergeNode/> <!-- this contains the offset blurred image -->
      <feMergeNode in="SourceGraphic"/> <!-- this contains the element that the filter is applied to -->
   </feMerge>
</filter>
	<path style="filter:url(#dropshadow)" fill="#000000" d="M3.724,32.873l5.811-5.811c0.91-0.91,2.38-0.91,3.291,0l9.521,9.451c0.91,0.91,2.38,0.91,3.29,0
		l25.973-26.043c0.91-0.91,2.381-0.91,3.291,0l5.811,5.741c0.91,0.91,0.91,2.38,0,3.291L29.206,51.075
		c-0.91,0.91-2.66,1.681-3.99,1.681h-2.73c-1.26,0-3.01-0.771-3.92-1.681L3.724,36.233C2.813,35.324,2.813,33.783,3.724,32.873z"/>
	<path fill="#FFFFFF" d="M3.724,32.873l5.811-5.811c0.91-0.91,2.38-0.91,3.291,0l9.521,9.451c0.91,0.91,2.38,0.91,3.29,0
		l25.973-26.043c0.91-0.91,2.381-0.91,3.291,0l5.811,5.741c0.91,0.91,0.91,2.38,0,3.291L29.206,51.075
		c-0.91,0.91-2.66,1.681-3.99,1.681h-2.73c-1.26,0-3.01-0.771-3.92-1.681L3.724,36.233C2.813,35.324,2.813,33.783,3.724,32.873z"/>
</g>
</svg>
