<?xml version="1.0" standalone="no"?><!DOCTYPE svg PUBLIC "-//W3C//DTD SVG 1.1//EN" "http://www.w3.org/Graphics/SVG/1.1/DTD/svg11.dtd" ><svg version="1.1" xmlns="http://www.w3.org/2000/svg"><defs><font horiz-adv-x="0" id="font"><font-face ascent="790" bbox="-177 -219 1272 923" cap-height="693" descent="-210" font-family="Guardian EgypTT" font-stretch="normal" font-style="normal" font-weight="600" units-per-em="1000" x-height="527" /><missing-glyph horiz-adv-x="497" /><glyph glyph-name=".null" horiz-adv-x="0" /><glyph d="M4 80 64 97 278 693H435L643 97L703 80V0H389V80L459 97L423 211H220L182 97L254 80V0H4ZM246 293H397L326 517H321Z" glyph-name="A" horiz-adv-x="707" unicode="A" /><glyph d="M261 80V0H4V80L62 98L372 605L312 614V693H930L939 495H847L809 600H617V399H695L715 473H791V235H715L695 311H617V94H815L865 223H957L946 0H374V80L450 97V206H245L182 98ZM450 289V554H447L294 289Z" glyph-name="AE" horiz-adv-x="973" unicode="&#198;" /><glyph d="M4 80 64 97 278 693H435L643 97L703 80V0H389V80L459 97L423 211H220L182 97L254 80V0H4ZM246 293H397L326 517H321ZM259 724 235 789 443 893 489 780Z" glyph-name="Aacute" horiz-adv-x="707" unicode="&#193;" /><glyph d="M4 80 64 97 278 693H435L643 97L703 80V0H389V80L459 97L423 211H220L182 97L254 80V0H4ZM246 293H397L326 517H321ZM196 770 317 882H390L510 770L482 725L353 778L225 725Z" glyph-name="Acircumflex" horiz-adv-x="707" unicode="&#194;" /><glyph d="M4 80 64 97 278 693H435L643 97L703 80V0H389V80L459 97L423 211H220L182 97L254 80V0H4ZM246 293H397L326 517H321ZM255 730Q223 730 200.5 750Q178 770 178 803Q178 837 200.5 856.5Q223 876 255 876Q288 876 311 856.5Q334 837 334 803Q334 770 311 750Q288 730 255 730ZM451 730Q419 730 396 750Q373 770 373 803Q373 837 396 856.5Q419 876 451 876Q483 876 506 856.5Q529 837 529 803Q529 770 506 750Q483 730 451 730Z" glyph-name="Adieresis" horiz-adv-x="707" unicode="&#196;" /><glyph d="M4 80 64 97 278 693H435L643 97L703 80V0H389V80L459 97L423 211H220L182 97L254 80V0H4ZM246 293H397L326 517H321ZM217 780 263 893 471 789 446 724Z" glyph-name="Agrave" horiz-adv-x="707" unicode="&#192;" /><glyph d="M4 80 64 97 278 693H435L643 97L703 80V0H389V80L459 97L423 211H220L182 97L254 80V0H4ZM246 293H397L326 517H321ZM353 771Q375 771 388 784Q401 797 401 820Q401 841 388 854.5Q375 868 353 868Q331 868 318.5 854.5Q306 841 306 820Q306 797 318.5 784Q331 771 353 771ZM353 716Q329 716 309 724Q289 732 274.5 746.5Q260 761 252 780Q244 799 244 820Q244 841 252 860Q260 879 274.5 893Q289 907 309 915Q329 923 353 923Q377 923 397 915Q417 907 431.5 893Q446 879 454.5 860Q463 841 463 820Q463 799 454.5 780Q446 761 431.5 746.5Q417 732 397 724Q377 716 353 716Z" glyph-name="Aring" horiz-adv-x="707" unicode="&#197;" /><glyph d="M4 80 64 97 278 693H435L643 97L703 80V0H389V80L459 97L423 211H220L182 97L254 80V0H4ZM246 293H397L326 517H321ZM180 766Q200 811 229.5 839.5Q259 868 299 868Q315 868 331 863.5Q347 859 361 853.5Q375 848 388 843.5Q401 839 412 839Q429 839 441.5 847Q454 855 467 874L526 837Q506 792 476 763.5Q446 735 407 735Q390 735 374.5 739.5Q359 744 344.5 749.5Q330 755 317.5 759.5Q305 764 294 764Q277 764 264 756Q251 748 239 729Z" glyph-name="Atilde" horiz-adv-x="707" unicode="&#195;" /><glyph d="M18 80 93 97V596L18 614V693H346Q468 693 530.5 650.5Q593 608 593 520Q593 461 564.5 419.5Q536 378 463 361V356Q551 345 589 303.5Q627 262 627 187Q627 101 564.5 50.5Q502 0 366 0H18ZM335 94Q392 94 420 118.5Q448 143 448 202Q448 262 419.5 287.5Q391 313 336 313H261V94ZM324 397Q369 397 396.5 418Q424 439 424 495Q424 556 398 577.5Q372 599 323 599H261V397Z" glyph-name="B" horiz-adv-x="644" unicode="B" /><glyph d="M363 -12Q289 -12 226.5 7.5Q164 27 119 69.5Q74 112 48.5 178.5Q23 245 23 340Q23 442 53.5 512Q84 582 134 624.5Q184 667 248 686Q312 705 380 705Q446 705 501.5 696Q557 687 589 676L595 481H498L463 582Q447 590 424.5 595.5Q402 601 373 601Q283 601 243.5 537.5Q204 474 204 360Q204 286 214 235Q224 184 245 152.5Q266 121 299.5 106.5Q333 92 380 92Q409 92 431.5 98.5Q454 105 471 114L505 221H603L594 26Q556 9 500 -1.5Q444 -12 363 -12Z" glyph-name="C" horiz-adv-x="636" unicode="C" /><glyph d="M251 -169Q310 -163 331 -152.5Q352 -142 352 -125Q352 -110 335 -102Q318 -94 275 -93V-4Q219 6 172.5 31Q126 56 93 98Q60 140 41.5 200Q23 260 23 340Q23 442 53.5 512Q84 582 134 624.5Q184 667 248 686Q312 705 380 705Q446 705 501.5 696Q557 687 589 676L595 481H498L463 582Q447 590 424.5 595.5Q402 601 373 601Q283 601 243.5 537.5Q204 474 204 360Q204 286 214 235Q224 184 245 152.5Q266 121 299.5 106.5Q333 92 380 92Q409 92 431.5 98.5Q454 105 471 114L505 221H603L594 26Q556 9 500 -1.5Q444 -12 363 -12Q358 -12 353 -12Q348 -12 338 -11V-43Q403 -46 430.5 -63.5Q458 -81 458 -119Q458 -160 409.5 -186.5Q361 -213 251 -219Z" glyph-name="Ccedilla" horiz-adv-x="636" unicode="&#199;" /><glyph d="M18 80 93 97V596L19 614V693H337Q506 693 594.5 613Q683 533 683 360Q683 268 659.5 200.5Q636 133 592 88.5Q548 44 485 22Q422 0 343 0H18ZM334 98Q376 98 408 109.5Q440 121 461 149Q482 177 493 225Q504 273 504 346Q504 427 491.5 476.5Q479 526 455.5 552Q432 578 397.5 586.5Q363 595 319 595H264V98Z" glyph-name="D" horiz-adv-x="706" unicode="D" /><glyph d="M18 80 93 97V596L18 614V693H578L588 495H496L458 600H261V399H345L366 473H441V235H366L345 311H261V94H464L514 223H606L595 0H18Z" glyph-name="E" horiz-adv-x="624" unicode="E" /><glyph d="M228 724 204 789 412 893 458 780ZM18 80 93 97V596L18 614V693H578L588 495H496L458 600H261V399H345L366 473H441V235H366L345 311H261V94H464L514 223H606L595 0H18Z" glyph-name="Eacute" horiz-adv-x="624" unicode="&#201;" /><glyph d="M164 770 285 882H358L478 770L450 725L321 778L193 725ZM18 80 93 97V596L18 614V693H578L588 495H496L458 600H261V399H345L366 473H441V235H366L345 311H261V94H464L514 223H606L595 0H18Z" glyph-name="Ecircumflex" horiz-adv-x="624" unicode="&#202;" /><glyph d="M18 80 93 97V596L18 614V693H578L588 495H496L458 600H261V399H345L366 473H441V235H366L345 311H261V94H464L514 223H606L595 0H18ZM223 730Q191 730 168.5 750Q146 770 146 803Q146 837 168.5 856.5Q191 876 223 876Q256 876 279 856.5Q302 837 302 803Q302 770 279 750Q256 730 223 730ZM419 730Q387 730 364 750Q341 770 341 803Q341 837 364 856.5Q387 876 419 876Q451 876 474 856.5Q497 837 497 803Q497 770 474 750Q451 730 419 730Z" glyph-name="Edieresis" horiz-adv-x="624" unicode="&#203;" /><glyph d="M186 780 232 893 440 789 415 724ZM18 80 93 97V596L18 614V693H578L588 495H496L458 600H261V399H345L366 473H441V235H366L345 311H261V94H464L514 223H606L595 0H18Z" glyph-name="Egrave" horiz-adv-x="624" unicode="&#200;" /><glyph d="M26 403H93V596L19 614V693H337Q506 693 594.5 613Q683 533 683 360Q683 268 659.5 200.5Q636 133 592 88.5Q548 44 485 22Q422 0 343 0H18V80L93 97V303H26ZM334 98Q376 98 408 109.5Q440 121 461 149Q482 177 493 225Q504 273 504 346Q504 427 491.5 476.5Q479 526 455.5 552Q432 578 397.5 586.5Q363 595 319 595H264V403H400V303H264V98Z" glyph-name="Eth" horiz-adv-x="706" unicode="&#208;" /><glyph d="M25 444H94Q106 516 134 566Q162 616 202.5 646.5Q243 677 293.5 691Q344 705 400 705Q460 705 501.5 697.5Q543 690 575 678L582 501H486L458 588Q432 603 394 603Q334 603 300.5 564Q267 525 256 444H427V370H252V361Q252 347 252 333.5Q252 320 253 308H427V234H262Q276 162 315 132.5Q354 103 425 103Q476 103 516 114Q556 125 582 135V44Q568 35 549.5 25Q531 15 507 6.5Q483 -2 452.5 -7Q422 -12 384 -12Q328 -12 280 2Q232 16 194.5 45.5Q157 75 131.5 121.5Q106 168 94 234H25V308H87Q86 321 86 326.5Q86 332 86 341V370H25Z" glyph-name="Euro" horiz-adv-x="620" unicode="&#8364;" /><glyph d="M18 80 93 97V596L18 614V693H586L595 482H503L464 596H264V387H351L371 462H446V223H370L351 298H264V96L347 80V0H18Z" glyph-name="F" horiz-adv-x="619" unicode="F" /><glyph d="M386 -12Q302 -12 234.5 7.5Q167 27 120 69.5Q73 112 48 178.5Q23 245 23 340Q23 442 53.5 512Q84 582 135 624.5Q186 667 252.5 686Q319 705 392 705Q460 705 515.5 696Q571 687 605 675L613 482H515L479 582Q461 590 438 595.5Q415 601 380 601Q289 601 246 539Q203 477 203 360Q203 288 212.5 236.5Q222 185 243.5 152.5Q265 120 298.5 105Q332 90 380 90Q404 90 423.5 93.5Q443 97 457 102V239L386 255V335H679V255L619 239V24Q577 9 516.5 -1.5Q456 -12 386 -12Z" glyph-name="G" horiz-adv-x="691" unicode="G" /><glyph d="M18 80 93 97V596L18 614V693H331V614L264 597V400H494V597L425 614V693H738V614L664 596V97L738 80V0H425V80L494 96V309H264V96L331 80V0H18Z" glyph-name="H" horiz-adv-x="756" unicode="H" /><glyph d="M18 80 94 97V596L18 614V693H340V614L264 596V97L340 80V0H18Z" glyph-name="I" horiz-adv-x="357" unicode="I" /><glyph d="M18 80 94 97V596L18 614V693H340V614L264 596V97L340 80V0H18ZM82 724 58 789 266 893 312 780Z" glyph-name="Iacute" horiz-adv-x="357" unicode="&#205;" /><glyph d="M18 80 94 97V596L18 614V693H340V614L264 596V97L340 80V0H18ZM22 770 143 882H216L336 770L308 725L179 778L51 725Z" glyph-name="Icircumflex" horiz-adv-x="357" unicode="&#206;" /><glyph d="M18 80 94 97V596L18 614V693H340V614L264 596V97L340 80V0H18ZM81 730Q49 730 26.5 750Q4 770 4 803Q4 837 26.5 856.5Q49 876 81 876Q114 876 137 856.5Q160 837 160 803Q160 770 137 750Q114 730 81 730ZM277 730Q245 730 222 750Q199 770 199 803Q199 837 222 856.5Q245 876 277 876Q309 876 332 856.5Q355 837 355 803Q355 770 332 750Q309 730 277 730Z" glyph-name="Idieresis" horiz-adv-x="357" unicode="&#207;" /><glyph d="M18 80 94 97V596L18 614V693H340V614L264 596V97L340 80V0H18ZM43 780 89 893 297 789 272 724Z" glyph-name="Igrave" horiz-adv-x="357" unicode="&#204;" /><glyph d="M153 -9Q97 -9 65.5 0.5Q34 10 12 21V119Q32 114 51.5 109.5Q71 105 104 105Q147 105 172 125Q197 145 197 202V596L122 614V693H440V614L368 596V191Q368 94 315 42.5Q262 -9 153 -9Z" glyph-name="J" horiz-adv-x="452" unicode="J" /><glyph d="M295 296V362L487 596L423 614V693H684V614L622 595L434 375L635 96L697 80V0H502ZM18 80 93 97V596L18 614V693H333V614L264 597V96L333 80V0H18Z" glyph-name="K" horiz-adv-x="711" unicode="K" /><glyph d="M18 80 93 97V596L18 614V693H333V614L264 597V357L479 598L422 614V693H684V614L622 595L437 402L639 96L703 80V0H503L319 286L264 235V96L333 80V0H18Z" glyph-name="K.alt" horiz-adv-x="714" /><glyph d="M18 80 93 97V596L18 614V693H344V614L264 597V96H438L487 246H579L566 0H18Z" glyph-name="L" horiz-adv-x="589" unicode="L" /><glyph d="M20 312 93 338V596L18 614V693H343V614L264 597V397L428 459V358L264 296V96H438L487 246H579L566 0H18V80L93 97V238L20 212Z" glyph-name="Lslash" horiz-adv-x="589" unicode="&#321;" /><glyph d="M18 79 93 97V596L18 614V693H323L452 258H456L589 693H902V614L823 596V97L902 80V0H594V80L658 96V557H654L486 15H374L208 553H204V96L269 80V0H18Z" glyph-name="M" horiz-adv-x="920" unicode="M" /><glyph d="M18 79 93 97V596L18 614V693H282L531 262H536V595L460 614V693H715V614L648 596V0H500L211 507H206V96L282 79V0H18Z" glyph-name="N" horiz-adv-x="727" unicode="N" /><glyph d="M215 766Q235 811 264.5 839.5Q294 868 334 868Q350 868 366 863.5Q382 859 396 853.5Q410 848 423 843.5Q436 839 447 839Q464 839 476.5 847Q489 855 502 874L561 837Q541 792 511 763.5Q481 735 442 735Q425 735 409.5 739.5Q394 744 379.5 749.5Q365 755 352.5 759.5Q340 764 329 764Q312 764 299 756Q286 748 274 729ZM18 79 93 97V596L18 614V693H282L531 262H536V595L460 614V693H715V614L648 596V0H500L211 507H206V96L282 79V0H18Z" glyph-name="Ntilde" horiz-adv-x="727" unicode="&#209;" /><glyph d="M352 90Q426 90 464 151.5Q502 213 502 338Q502 410 492.5 460.5Q483 511 464.5 542.5Q446 574 417.5 588.5Q389 603 351 603Q202 603 202 355Q202 217 236.5 153.5Q271 90 352 90ZM350 -12Q280 -12 220.5 10Q161 32 117 76.5Q73 121 48 188Q23 255 23 344Q23 438 51 506.5Q79 575 125.5 619Q172 663 232 684Q292 705 355 705Q424 705 483.5 683Q543 661 586.5 617Q630 573 655 506.5Q680 440 680 351Q680 256 652 187.5Q624 119 578 75Q532 31 472.5 9.5Q413 -12 350 -12Z" glyph-name="O" horiz-adv-x="703" unicode="O" /><glyph d="M375 0Q204 0 113.5 80Q23 160 23 333Q23 424 47 492Q71 560 116 604.5Q161 649 225 671Q289 693 369 693H918L927 495H836L798 600H604V399H683L704 473H779V235H704L683 311H604V94H803L853 223H946L935 0ZM377 595Q334 595 301.5 583.5Q269 572 247 544Q225 516 213.5 468Q202 420 202 347Q202 266 215 216.5Q228 167 252 141Q276 115 311.5 106.5Q347 98 392 98H435V595Z" glyph-name="OE" horiz-adv-x="962" unicode="&#338;" /><glyph d="M258 724 234 789 442 893 488 780ZM352 90Q426 90 464 151.5Q502 213 502 338Q502 410 492.5 460.5Q483 511 464.5 542.5Q446 574 417.5 588.5Q389 603 351 603Q202 603 202 355Q202 217 236.5 153.5Q271 90 352 90ZM350 -12Q280 -12 220.5 10Q161 32 117 76.5Q73 121 48 188Q23 255 23 344Q23 438 51 506.5Q79 575 125.5 619Q172 663 232 684Q292 705 355 705Q424 705 483.5 683Q543 661 586.5 617Q630 573 655 506.5Q680 440 680 351Q680 256 652 187.5Q624 119 578 75Q532 31 472.5 9.5Q413 -12 350 -12Z" glyph-name="Oacute" horiz-adv-x="703" unicode="&#211;" /><glyph d="M194 770 315 882H388L508 770L480 725L351 778L223 725ZM352 90Q426 90 464 151.5Q502 213 502 338Q502 410 492.5 460.5Q483 511 464.5 542.5Q446 574 417.5 588.5Q389 603 351 603Q202 603 202 355Q202 217 236.5 153.5Q271 90 352 90ZM350 -12Q280 -12 220.5 10Q161 32 117 76.5Q73 121 48 188Q23 255 23 344Q23 438 51 506.5Q79 575 125.5 619Q172 663 232 684Q292 705 355 705Q424 705 483.5 683Q543 661 586.5 617Q630 573 655 506.5Q680 440 680 351Q680 256 652 187.5Q624 119 578 75Q532 31 472.5 9.5Q413 -12 350 -12Z" glyph-name="Ocircumflex" horiz-adv-x="703" unicode="&#212;" /><glyph d="M253 730Q221 730 198.5 750Q176 770 176 803Q176 837 198.5 856.5Q221 876 253 876Q286 876 309 856.5Q332 837 332 803Q332 770 309 750Q286 730 253 730ZM449 730Q417 730 394 750Q371 770 371 803Q371 837 394 856.5Q417 876 449 876Q481 876 504 856.5Q527 837 527 803Q527 770 504 750Q481 730 449 730ZM352 90Q426 90 464 151.5Q502 213 502 338Q502 410 492.5 460.5Q483 511 464.5 542.5Q446 574 417.5 588.5Q389 603 351 603Q202 603 202 355Q202 217 236.5 153.5Q271 90 352 90ZM350 -12Q280 -12 220.5 10Q161 32 117 76.5Q73 121 48 188Q23 255 23 344Q23 438 51 506.5Q79 575 125.5 619Q172 663 232 684Q292 705 355 705Q424 705 483.5 683Q543 661 586.5 617Q630 573 655 506.5Q680 440 680 351Q680 256 652 187.5Q624 119 578 75Q532 31 472.5 9.5Q413 -12 350 -12Z" glyph-name="Odieresis" horiz-adv-x="703" unicode="&#214;" /><glyph d="M215 780 261 893 469 789 444 724ZM352 90Q426 90 464 151.5Q502 213 502 338Q502 410 492.5 460.5Q483 511 464.5 542.5Q446 574 417.5 588.5Q389 603 351 603Q202 603 202 355Q202 217 236.5 153.5Q271 90 352 90ZM350 -12Q280 -12 220.5 10Q161 32 117 76.5Q73 121 48 188Q23 255 23 344Q23 438 51 506.5Q79 575 125.5 619Q172 663 232 684Q292 705 355 705Q424 705 483.5 683Q543 661 586.5 617Q630 573 655 506.5Q680 440 680 351Q680 256 652 187.5Q624 119 578 75Q532 31 472.5 9.5Q413 -12 350 -12Z" glyph-name="Ograve" horiz-adv-x="703" unicode="&#210;" /><glyph d="M36 11 101 94Q64 139 43.5 201Q23 263 23 344Q23 438 51 506.5Q79 575 125.5 619Q172 663 232 684Q292 705 355 705Q408 705 455 692Q502 679 542 653L591 716L655 673L600 603Q638 558 659 495.5Q680 433 680 351Q680 256 652 187.5Q624 119 578 75Q532 31 472.5 9.5Q413 -12 350 -12Q295 -12 246.5 1.5Q198 15 158 42L100 -31ZM352 90Q428 90 467.5 151.5Q507 213 507 338Q507 378 504 411Q501 444 496 471L237 143Q274 90 352 90ZM196 355Q196 317 198.5 285Q201 253 206 226L462 553Q443 579 415.5 591Q388 603 351 603Q275 603 235.5 541Q196 479 196 355Z" glyph-name="Oslash" horiz-adv-x="703" unicode="&#216;" /><glyph d="M179 766Q199 811 228.5 839.5Q258 868 298 868Q314 868 330 863.5Q346 859 360 853.5Q374 848 387 843.5Q400 839 411 839Q428 839 440.5 847Q453 855 466 874L525 837Q505 792 475 763.5Q445 735 406 735Q389 735 373.5 739.5Q358 744 343.5 749.5Q329 755 316.5 759.5Q304 764 293 764Q276 764 263 756Q250 748 238 729ZM352 90Q426 90 464 151.5Q502 213 502 338Q502 410 492.5 460.5Q483 511 464.5 542.5Q446 574 417.5 588.5Q389 603 351 603Q202 603 202 355Q202 217 236.5 153.5Q271 90 352 90ZM350 -12Q280 -12 220.5 10Q161 32 117 76.5Q73 121 48 188Q23 255 23 344Q23 438 51 506.5Q79 575 125.5 619Q172 663 232 684Q292 705 355 705Q424 705 483.5 683Q543 661 586.5 617Q630 573 655 506.5Q680 440 680 351Q680 256 652 187.5Q624 119 578 75Q532 31 472.5 9.5Q413 -12 350 -12Z" glyph-name="Otilde" horiz-adv-x="703" unicode="&#213;" /><glyph d="M18 80 93 97V596L18 614V693H335Q408 693 460 679Q512 665 544 639.5Q576 614 591 576.5Q606 539 606 493Q606 437 589 396.5Q572 356 541 330Q510 304 468 291.5Q426 279 375 279Q362 279 348.5 280Q335 281 324.5 282.5Q314 284 307 285.5Q300 287 300 287V367Q301 367 313 366Q325 365 339 365Q435 365 435 481Q435 541 410.5 567Q386 593 334 593H264V96L352 80V0H18Z" glyph-name="P" horiz-adv-x="618" unicode="P" /><glyph d="M18 80 93 97V596L18 614V693H330Q403 693 454.5 679Q506 665 538 638Q570 611 585 573Q600 535 600 487Q600 376 538 324Q476 272 361 272Q335 272 310 274Q285 276 264 280V96L352 80V0H18ZM264 364Q276 362 292.5 361Q309 360 326 360Q385 360 407 390Q429 420 429 480Q429 540 405 566.5Q381 593 328 593H264Z" glyph-name="P.alt" horiz-adv-x="615" /><glyph d="M269 -10Q226 3 182.5 27Q139 51 103.5 91.5Q68 132 45.5 193.5Q23 255 23 344Q23 438 51 506.5Q79 575 125.5 619Q172 663 232 684Q292 705 355 705Q424 705 483.5 683Q543 661 586.5 617Q630 573 655 506.5Q680 440 680 351Q680 280 664 227.5Q648 175 619.5 137.5Q591 100 553 77Q515 54 472 42V39L695 0L659 -131ZM354 90Q432 90 467 151.5Q502 213 502 338Q502 410 492.5 460.5Q483 511 464.5 542.5Q446 574 417.5 588.5Q389 603 351 603Q202 603 202 355Q202 217 236.5 153.5Q271 90 354 90Z" glyph-name="Q" horiz-adv-x="703" unicode="Q" /><glyph d="M18 80 94 97V595L20 614V693H355Q491 693 553 640Q615 587 615 494Q615 458 605 431Q595 404 578 384.5Q561 365 538 351.5Q515 338 489 328V324L624 95L681 79V0H490L331 287H265V96L332 80V0H18ZM340 375Q398 375 420.5 408Q443 441 443 492Q443 546 417.5 570.5Q392 595 335 595H265V375Z" glyph-name="R" horiz-adv-x="685" unicode="R" /><glyph d="M487 338Q515 332 537 321.5Q559 311 574 295Q589 279 596.5 256Q604 233 604 201V133Q604 104 616 94.5Q628 85 656 85H676V10Q659 1 634 -5Q609 -11 577 -11Q505 -11 469 20Q433 51 433 129V208Q433 230 428.5 245.5Q424 261 413 270Q402 279 383 283Q364 287 335 287H265V96L332 80V0H18V80L94 97V595L20 614V693H346Q417 693 467.5 679.5Q518 666 550 641Q582 616 596.5 580.5Q611 545 611 501Q611 430 577.5 394Q544 358 487 342ZM343 375Q399 375 420.5 405.5Q442 436 442 493Q442 548 416 571.5Q390 595 333 595H265V375Z" glyph-name="R.alt" horiz-adv-x="687" /><glyph d="M257 -12Q196 -12 137.5 -2.5Q79 7 40 22L31 200H131L158 110Q178 100 201 94Q224 88 257 88Q311 88 337.5 113Q364 138 364 176Q364 216 333 238Q302 260 250 280L196 302Q159 315 130 331.5Q101 348 80.5 371Q60 394 49 425.5Q38 457 38 500Q38 544 52.5 582Q67 620 98.5 647.5Q130 675 178 690.5Q226 706 294 706Q363 706 409 697.5Q455 689 484 679L493 515H394L373 588Q359 595 339 601Q319 607 287 607Q245 607 217.5 589Q190 571 190 534Q190 499 214.5 479.5Q239 460 289 441L344 420Q386 404 420 387.5Q454 371 478 348Q502 325 514.5 292.5Q527 260 527 212Q527 162 510.5 121Q494 80 460 50.5Q426 21 375.5 4.5Q325 -12 257 -12Z" glyph-name="S" horiz-adv-x="551" unicode="S" /><glyph d="M441 843 321 731H248L127 843L156 887L284 834L413 887ZM257 -12Q196 -12 137.5 -2.5Q79 7 40 22L31 200H131L158 110Q178 100 201 94Q224 88 257 88Q311 88 337.5 113Q364 138 364 176Q364 216 333 238Q302 260 250 280L196 302Q159 315 130 331.5Q101 348 80.5 371Q60 394 49 425.5Q38 457 38 500Q38 544 52.5 582Q67 620 98.5 647.5Q130 675 178 690.5Q226 706 294 706Q363 706 409 697.5Q455 689 484 679L493 515H394L373 588Q359 595 339 601Q319 607 287 607Q245 607 217.5 589Q190 571 190 534Q190 499 214.5 479.5Q239 460 289 441L344 420Q386 404 420 387.5Q454 371 478 348Q502 325 514.5 292.5Q527 260 527 212Q527 162 510.5 121Q494 80 460 50.5Q426 21 375.5 4.5Q325 -12 257 -12Z" glyph-name="Scaron" horiz-adv-x="551" unicode="&#352;" /><glyph d="M157 80 236 97V597H139L107 470H11L20 693H623L632 470H537L504 597H407V97L486 80V0H157Z" glyph-name="T" horiz-adv-x="643" unicode="T" /><glyph d="M18 80 93 97V596L18 614V693H331V614L264 597V545H339Q413 545 463.5 531Q514 517 545 492Q576 467 589.5 432Q603 397 603 355Q603 310 586.5 275Q570 240 541 216Q512 192 471 180Q430 168 381 168Q352 168 331 170.5Q310 173 300 175V253Q303 252 313 251.5Q323 251 335 251Q433 251 433 352Q433 406 409.5 427Q386 448 333 448H264V96L352 80V0H18Z" glyph-name="Thorn" horiz-adv-x="622" unicode="&#222;" /><glyph d="M18 80 93 97V596L18 614V693H331V614L264 597V541H333Q408 541 459 527.5Q510 514 541.5 489.5Q573 465 586.5 431Q600 397 600 356Q600 264 539.5 215Q479 166 361 166Q332 166 308 168Q284 170 264 174V96L352 80V0H18ZM264 257Q276 256 292 255Q308 254 326 254Q385 254 407 277.5Q429 301 429 353Q429 407 405 427Q381 447 328 447H264Z" glyph-name="Thorn.alt" horiz-adv-x="619" /><glyph d="M363 -12Q217 -12 148 50.5Q79 113 79 218V596L8 614V693H321V614L251 597V233Q251 156 286.5 123.5Q322 91 386 91Q451 91 485.5 123Q520 155 520 233V597L449 613V693H697V614L631 596V229Q631 175 615.5 131Q600 87 567.5 55Q535 23 484 5.5Q433 -12 363 -12Z" glyph-name="U" horiz-adv-x="705" unicode="U" /><glyph d="M284 724 260 789 468 893 514 780ZM363 -12Q217 -12 148 50.5Q79 113 79 218V596L8 614V693H321V614L251 597V233Q251 156 286.5 123.5Q322 91 386 91Q451 91 485.5 123Q520 155 520 233V597L449 613V693H697V614L631 596V229Q631 175 615.5 131Q600 87 567.5 55Q535 23 484 5.5Q433 -12 363 -12Z" glyph-name="Uacute" horiz-adv-x="705" unicode="&#218;" /><glyph d="M220 770 341 882H414L534 770L506 725L377 778L249 725ZM363 -12Q217 -12 148 50.5Q79 113 79 218V596L8 614V693H321V614L251 597V233Q251 156 286.5 123.5Q322 91 386 91Q451 91 485.5 123Q520 155 520 233V597L449 613V693H697V614L631 596V229Q631 175 615.5 131Q600 87 567.5 55Q535 23 484 5.5Q433 -12 363 -12Z" glyph-name="Ucircumflex" horiz-adv-x="705" unicode="&#219;" /><glyph d="M363 -12Q217 -12 148 50.5Q79 113 79 218V596L8 614V693H321V614L251 597V233Q251 156 286.5 123.5Q322 91 386 91Q451 91 485.5 123Q520 155 520 233V597L449 613V693H697V614L631 596V229Q631 175 615.5 131Q600 87 567.5 55Q535 23 484 5.5Q433 -12 363 -12ZM279 730Q247 730 224.5 750Q202 770 202 803Q202 837 224.5 856.5Q247 876 279 876Q312 876 335 856.5Q358 837 358 803Q358 770 335 750Q312 730 279 730ZM475 730Q443 730 420 750Q397 770 397 803Q397 837 420 856.5Q443 876 475 876Q507 876 530 856.5Q553 837 553 803Q553 770 530 750Q507 730 475 730Z" glyph-name="Udieresis" horiz-adv-x="705" unicode="&#220;" /><glyph d="M241 780 287 893 495 789 470 724ZM363 -12Q217 -12 148 50.5Q79 113 79 218V596L8 614V693H321V614L251 597V233Q251 156 286.5 123.5Q322 91 386 91Q451 91 485.5 123Q520 155 520 233V597L449 613V693H697V614L631 596V229Q631 175 615.5 131Q600 87 567.5 55Q535 23 484 5.5Q433 -12 363 -12Z" glyph-name="Ugrave" horiz-adv-x="705" unicode="&#217;" /><glyph d="M65 596 9 614V693H315V614L245 596L376 179H381L513 596L442 614V693H688V614L632 596L427 0H270Z" glyph-name="V" horiz-adv-x="697" unicode="V" /><glyph d="M62 596 10 614V693H301V614L237 596L329 205H334L461 693H579L707 215H712L800 596L733 614V693H978V614L920 596L769 0H610L496 446H492L375 0H215Z" glyph-name="W" horiz-adv-x="987" unicode="W" /><glyph d="M18 80 77 95 249 354 87 596 24 614V693H343V614L288 598L389 431L486 598L428 614V693H675V614L616 596L456 350L624 97L687 80V0H372V80L430 94L316 277L207 95L265 79V0H18Z" glyph-name="X" horiz-adv-x="705" unicode="X" /><glyph d="M171 80 248 97V287L63 596L7 614V693H300V614L242 597L361 384H365L478 597L419 614V693H647V614L591 596L419 290V97L495 80V0H171Z" glyph-name="Y" horiz-adv-x="654" unicode="Y" /><glyph d="M171 80 248 97V287L63 596L7 614V693H300V614L242 597L361 384H365L478 597L419 614V693H647V614L591 596L419 290V97L495 80V0H171ZM258 724 234 789 442 893 488 780Z" glyph-name="Yacute" horiz-adv-x="654" unicode="&#221;" /><glyph d="M171 80 248 97V287L63 596L7 614V693H300V614L242 597L361 384H365L478 597L419 614V693H647V614L591 596L419 290V97L495 80V0H171ZM254 730Q222 730 199.5 750Q177 770 177 803Q177 837 199.5 856.5Q222 876 254 876Q287 876 310 856.5Q333 837 333 803Q333 770 310 750Q287 730 254 730ZM450 730Q418 730 395 750Q372 770 372 803Q372 837 395 856.5Q418 876 450 876Q482 876 505 856.5Q528 837 528 803Q528 770 505 750Q482 730 450 730Z" glyph-name="Ydieresis" horiz-adv-x="654" unicode="&#376;" /><glyph d="M16 96 364 592V596H169L126 479H30L41 693H560V597L211 101V97H425L470 228H564L553 0H16Z" glyph-name="Z" horiz-adv-x="578" unicode="Z" /><glyph d="M455 843 335 731H262L141 843L170 887L298 834L427 887ZM16 96 364 592V596H169L126 479H30L41 693H560V597L211 101V97H425L470 228H564L553 0H16Z" glyph-name="Zcaron" horiz-adv-x="578" unicode="&#142;" /><glyph d="M171 -13Q99 -13 56 26.5Q13 66 13 131Q13 168 26 194Q39 220 62.5 237.5Q86 255 120 266Q154 277 196 285L301 306V341Q301 364 297 380Q293 396 281.5 406Q270 416 249.5 420.5Q229 425 197 425Q162 425 125 422.5Q88 420 62 415V501Q97 515 152.5 526.5Q208 538 270 538Q367 538 411.5 497Q456 456 456 371V115Q456 95 467 88Q478 81 496 81H515V11Q502 3 474.5 -4.5Q447 -12 416 -12Q376 -12 352 2Q328 16 318 48H313Q293 23 257.5 5Q222 -13 171 -13ZM235 79Q256 79 273.5 87.5Q291 96 301 105V230L237 226Q199 223 183.5 205Q168 187 168 152Q168 116 184 97.5Q200 79 235 79Z" glyph-name="a" horiz-adv-x="523" unicode="a" /><glyph d="M171 -13Q99 -13 56 26.5Q13 66 13 131Q13 168 26 194Q39 220 62.5 237.5Q86 255 120 266Q154 277 196 285L301 306V348Q301 399 282.5 421Q264 443 209 443Q185 443 166 440L149 366H52V506Q90 519 146 528.5Q202 538 263 538Q367 538 411.5 497Q456 456 456 371V115Q456 95 467 88Q478 81 496 81H515V11Q502 3 474.5 -4.5Q447 -12 416 -12Q376 -12 352 2Q328 16 318 48H313Q293 23 257.5 5Q222 -13 171 -13ZM235 79Q256 79 273.5 87.5Q291 96 301 105V230L237 226Q199 223 183.5 205Q168 187 168 152Q168 116 184 97.5Q200 79 235 79Z" glyph-name="a.alt" horiz-adv-x="523" /><glyph d="M171 -13Q99 -13 56 26.5Q13 66 13 131Q13 168 26 194Q39 220 62.5 237.5Q86 255 120 266Q154 277 196 285L301 306V341Q301 364 297 380Q293 396 281.5 406Q270 416 249.5 420.5Q229 425 197 425Q162 425 125 422.5Q88 420 62 415V501Q97 515 152.5 526.5Q208 538 270 538Q367 538 411.5 497Q456 456 456 371V115Q456 95 467 88Q478 81 496 81H515V11Q502 3 474.5 -4.5Q447 -12 416 -12Q376 -12 352 2Q328 16 318 48H313Q293 23 257.5 5Q222 -13 171 -13ZM235 79Q256 79 273.5 87.5Q291 96 301 105V230L237 226Q199 223 183.5 205Q168 187 168 152Q168 116 184 97.5Q200 79 235 79ZM143 637 342 759 397 649 172 574Z" glyph-name="aacute" horiz-adv-x="523" unicode="&#225;" /><glyph d="M171 -13Q99 -13 56 26.5Q13 66 13 131Q13 168 26 194Q39 220 62.5 237.5Q86 255 120 266Q154 277 196 285L301 306V341Q301 364 297 380Q293 396 281.5 406Q270 416 249.5 420.5Q229 425 197 425Q162 425 125 422.5Q88 420 62 415V501Q97 515 152.5 526.5Q208 538 270 538Q367 538 411.5 497Q456 456 456 371V115Q456 95 467 88Q478 81 496 81H515V11Q502 3 474.5 -4.5Q447 -12 416 -12Q376 -12 352 2Q328 16 318 48H313Q293 23 257.5 5Q222 -13 171 -13ZM235 79Q256 79 273.5 87.5Q291 96 301 105V230L237 226Q199 223 183.5 205Q168 187 168 152Q168 116 184 97.5Q200 79 235 79ZM105 618 224 748H297L415 618L384 575L260 643L137 575Z" glyph-name="acircumflex" horiz-adv-x="523" unicode="&#226;" /><glyph d="M126 637 325 759 380 649 155 574Z" glyph-name="acute" horiz-adv-x="495" unicode="&#180;" /><glyph d="M211 586 264 763 403 716 291 573Z" glyph-name="acute.pl" horiz-adv-x="495" /><glyph d="M153 724 129 789 337 893 383 780Z" glyph-name="acute.uc" horiz-adv-x="495" /><glyph d="M208 740 263 911 407 867 294 727Z" glyph-name="acute.ucpl" horiz-adv-x="495" /><glyph d="M171 -13Q99 -13 56 26.5Q13 66 13 131Q13 168 26 194Q39 220 62.5 237.5Q86 255 120 266Q154 277 196 285L301 306V341Q301 364 297 380Q293 396 281.5 406Q270 416 249.5 420.5Q229 425 197 425Q162 425 125 422.5Q88 420 62 415V501Q97 515 152.5 526.5Q208 538 270 538Q367 538 411.5 497Q456 456 456 371V115Q456 95 467 88Q478 81 496 81H515V11Q502 3 474.5 -4.5Q447 -12 416 -12Q376 -12 352 2Q328 16 318 48H313Q293 23 257.5 5Q222 -13 171 -13ZM235 79Q256 79 273.5 87.5Q291 96 301 105V230L237 226Q199 223 183.5 205Q168 187 168 152Q168 116 184 97.5Q200 79 235 79ZM162 588Q130 588 107.5 608Q85 628 85 661Q85 695 107.5 714.5Q130 734 162 734Q195 734 218 714.5Q241 695 241 661Q241 628 218 608Q195 588 162 588ZM358 588Q326 588 303 608Q280 628 280 661Q280 695 303 714.5Q326 734 358 734Q390 734 413 714.5Q436 695 436 661Q436 628 413 608Q390 588 358 588Z" glyph-name="adieresis" horiz-adv-x="523" unicode="&#228;" /><glyph d="M178 -13Q101 -13 57 26.5Q13 66 13 131Q13 168 25.5 194.5Q38 221 62 239.5Q86 258 120 269Q154 280 196 288L301 308V341Q301 364 297 380Q293 396 281.5 406Q270 416 249.5 420.5Q229 425 197 425Q162 425 125 422.5Q88 420 62 415V501Q97 515 150.5 526.5Q204 538 263 538Q363 538 403 482Q461 538 557 538Q675 538 730 467Q785 396 785 243H458Q464 162 502.5 128Q541 94 610 94Q663 94 697 102Q731 110 760 119V38Q733 21 687.5 4Q642 -13 569 -13Q494 -13 440 10Q386 33 353 76Q323 35 277.5 11Q232 -13 178 -13ZM325 125Q305 170 300 234L237 229Q199 227 183.5 207Q168 187 168 152Q168 79 237 79Q258 79 280 89.5Q302 100 325 125ZM630 324Q630 392 609.5 420Q589 448 551 448Q511 448 487 418.5Q463 389 458 317Z" glyph-name="ae" horiz-adv-x="806" unicode="&#230;" /><glyph d="M261 538Q315 538 349 524.5Q383 511 403 482Q461 538 557 538Q675 538 730 467Q785 396 785 243H458Q464 162 502.5 128Q541 94 610 94Q663 94 697 102Q731 110 760 119V38Q733 21 687.5 4Q642 -13 569 -13Q494 -13 440 10Q386 33 353 76Q323 35 277.5 11Q232 -13 178 -13Q101 -13 57 26.5Q13 66 13 131Q13 168 25.5 194.5Q38 221 62 239.5Q86 258 120 269Q154 280 196 288L301 308V348Q301 399 282.5 421Q264 443 209 443Q185 443 166 440L149 366H52V506Q90 519 145.5 528.5Q201 538 261 538ZM325 125Q305 170 300 234L237 229Q199 227 183.5 207Q168 187 168 152Q168 79 237 79Q258 79 280 89.5Q302 100 325 125ZM630 324Q630 392 609.5 420Q589 448 551 448Q511 448 487 418.5Q463 389 458 317Z" glyph-name="ae.alt" horiz-adv-x="806" /><glyph d="M171 -13Q99 -13 56 26.5Q13 66 13 131Q13 168 26 194Q39 220 62.5 237.5Q86 255 120 266Q154 277 196 285L301 306V341Q301 364 297 380Q293 396 281.5 406Q270 416 249.5 420.5Q229 425 197 425Q162 425 125 422.5Q88 420 62 415V501Q97 515 152.5 526.5Q208 538 270 538Q367 538 411.5 497Q456 456 456 371V115Q456 95 467 88Q478 81 496 81H515V11Q502 3 474.5 -4.5Q447 -12 416 -12Q376 -12 352 2Q328 16 318 48H313Q293 23 257.5 5Q222 -13 171 -13ZM235 79Q256 79 273.5 87.5Q291 96 301 105V230L237 226Q199 223 183.5 205Q168 187 168 152Q168 116 184 97.5Q200 79 235 79ZM124 649 179 759 379 637 350 574Z" glyph-name="agrave" horiz-adv-x="523" unicode="&#224;" /><glyph d="M270 -12Q152 -12 85 38.5Q18 89 18 183Q18 219 29 248Q40 277 60.5 301Q81 325 109 344.5Q137 364 171 381Q144 418 131.5 451.5Q119 485 119 523Q119 563 134 596.5Q149 630 176.5 654Q204 678 243.5 691.5Q283 705 331 705Q418 705 468 663.5Q518 622 518 554Q518 521 506 495.5Q494 470 473.5 450Q453 430 425 413.5Q397 397 365 381L515 214Q539 255 550 301L492 316V392H714V316L657 301Q646 260 625.5 220.5Q605 181 576 146L618 99L695 80V0H503L463 45Q421 18 372.5 3Q324 -12 270 -12ZM309 87Q361 87 407 109L227 315Q203 292 193 266Q183 240 183 206Q183 154 215.5 120.5Q248 87 309 87ZM267 537Q267 506 280 483Q293 460 314 437Q356 461 371 486.5Q386 512 386 549Q386 584 370.5 600.5Q355 617 330 617Q301 617 284 596Q267 575 267 537Z" glyph-name="ampersand" horiz-adv-x="731" unicode="&amp;" /><glyph d="M171 -13Q99 -13 56 26.5Q13 66 13 131Q13 168 26 194Q39 220 62.5 237.5Q86 255 120 266Q154 277 196 285L301 306V341Q301 364 297 380Q293 396 281.5 406Q270 416 249.5 420.5Q229 425 197 425Q162 425 125 422.5Q88 420 62 415V501Q97 515 152.5 526.5Q208 538 270 538Q367 538 411.5 497Q456 456 456 371V115Q456 95 467 88Q478 81 496 81H515V11Q502 3 474.5 -4.5Q447 -12 416 -12Q376 -12 352 2Q328 16 318 48H313Q293 23 257.5 5Q222 -13 171 -13ZM235 79Q256 79 273.5 87.5Q291 96 301 105V230L237 226Q199 223 183.5 205Q168 187 168 152Q168 116 184 97.5Q200 79 235 79ZM260 630Q282 630 295 643Q308 656 308 679Q308 700 295 713.5Q282 727 260 727Q238 727 225.5 713.5Q213 700 213 679Q213 656 225.5 643Q238 630 260 630ZM260 575Q236 575 216 583Q196 591 181.5 605.5Q167 620 159 639Q151 658 151 679Q151 700 159 718.5Q167 737 181.5 751.5Q196 766 216 774Q236 782 260 782Q284 782 304 774Q324 766 338.5 751.5Q353 737 361.5 718.5Q370 700 370 679Q370 658 361.5 639Q353 620 338.5 605.5Q324 591 304 583Q284 575 260 575Z" glyph-name="aring" horiz-adv-x="523" unicode="&#229;" /><glyph d="M165 693H256L401 444H314L211 570L108 444H21Z" glyph-name="asciicircum" horiz-adv-x="422" unicode="^" /><glyph d="M16 266Q41 323 75 355Q109 387 157 387Q179 387 198.5 380.5Q218 374 236 365.5Q254 357 269.5 350.5Q285 344 299 344Q337 344 369 394L439 346Q415 288 380.5 256Q346 224 298 224Q276 224 256.5 230.5Q237 237 219 245.5Q201 254 185.5 260.5Q170 267 156 267Q118 267 86 217Z" glyph-name="asciitilde" horiz-adv-x="455" unicode="~" /><glyph d="M166 484 76 402 24 494 139 528 24 563 76 655 166 572 136 693H248L217 572L308 655L360 563L245 528L360 494L308 402L217 484L248 365H136Z" glyph-name="asterisk" horiz-adv-x="384" unicode="*" /><glyph d="M441 -155Q345 -155 270 -129.5Q195 -104 143 -56Q91 -8 64 61Q37 130 37 216Q37 310 69 394.5Q101 479 160 542.5Q219 606 302 643Q385 680 487 680Q571 680 639 655.5Q707 631 755.5 585Q804 539 830.5 473Q857 407 857 325Q857 254 838 199Q819 144 786 106.5Q753 69 709 49Q665 29 614 29Q559 29 531 48Q503 67 492 96H486Q458 67 426 52Q394 37 354 37Q328 37 305 47Q282 57 264.5 77.5Q247 98 236.5 128Q226 158 226 197Q226 257 243 308.5Q260 360 291 398Q322 436 364.5 457.5Q407 479 458 479Q502 479 527.5 468.5Q553 458 574 444L599 470H675L613 157Q608 128 614.5 115.5Q621 103 643 103Q668 103 692.5 116.5Q717 130 736.5 157.5Q756 185 767.5 226Q779 267 779 323Q779 459 705.5 536.5Q632 614 486 614Q399 614 331 583Q263 552 215.5 498Q168 444 143 372Q118 300 118 219Q118 68 199 -10Q280 -88 444 -88Q477 -88 510 -85Q543 -82 572.5 -77Q602 -72 627.5 -65.5Q653 -59 672 -53V-112Q627 -131 568.5 -143Q510 -155 441 -155ZM415 126Q437 126 452.5 135.5Q468 145 482 157L521 369Q514 384 502 395Q490 406 467 406Q443 406 423.5 390Q404 374 390.5 346Q377 318 369.5 280.5Q362 243 362 200Q362 161 375.5 143.5Q389 126 415 126Z" glyph-name="at" horiz-adv-x="892" unicode="@" /><glyph d="M171 -13Q99 -13 56 26.5Q13 66 13 131Q13 168 26 194Q39 220 62.5 237.5Q86 255 120 266Q154 277 196 285L301 306V341Q301 364 297 380Q293 396 281.5 406Q270 416 249.5 420.5Q229 425 197 425Q162 425 125 422.5Q88 420 62 415V501Q97 515 152.5 526.5Q208 538 270 538Q367 538 411.5 497Q456 456 456 371V115Q456 95 467 88Q478 81 496 81H515V11Q502 3 474.5 -4.5Q447 -12 416 -12Q376 -12 352 2Q328 16 318 48H313Q293 23 257.5 5Q222 -13 171 -13ZM235 79Q256 79 273.5 87.5Q291 96 301 105V230L237 226Q199 223 183.5 205Q168 187 168 152Q168 116 184 97.5Q200 79 235 79ZM90 623Q110 668 140 696.5Q170 725 209 725Q226 725 240.5 720.5Q255 716 268.5 710.5Q282 705 294 700.5Q306 696 317 696Q334 696 346.5 704Q359 712 372 731L431 693Q411 648 381 620Q351 592 312 592Q295 592 280.5 596.5Q266 601 252.5 606.5Q239 612 227 616.5Q215 621 204 621Q187 621 174.5 613Q162 605 149 586Z" glyph-name="atilde" horiz-adv-x="523" unicode="&#227;" /><glyph d="M276 -13Q204 -13 146.5 0.5Q89 14 54 32V631L-9 647V725L193 748L209 742V484H214Q240 504 275.5 521.5Q311 539 364 539Q400 539 435 527Q470 515 497.5 486Q525 457 542 408Q559 359 559 284Q559 205 538.5 149Q518 93 480.5 57Q443 21 391 4Q339 -13 276 -13ZM283 79Q309 79 330 87.5Q351 96 366 117Q381 138 389 173.5Q397 209 397 263Q397 355 369.5 391Q342 427 291 427Q264 427 243.5 421Q223 415 209 408V101Q221 93 236.5 86Q252 79 283 79Z" glyph-name="b" horiz-adv-x="582" unicode="b" /><glyph d="M20 733H129L369 -120H260Z" glyph-name="backslash" horiz-adv-x="368" unicode="\" /><glyph d="M69 733H170V-120H69Z" glyph-name="bar" horiz-adv-x="239" unicode="|" /><glyph d="M361 -120Q289 -118 240 -107Q191 -96 161.5 -77.5Q132 -59 119 -33.5Q106 -8 106 25Q106 44 111 66Q116 88 122.5 109.5Q129 131 134 150.5Q139 170 139 184Q139 198 135 209.5Q131 221 119.5 230Q108 239 86.5 245.5Q65 252 31 257V356Q65 361 86.5 367.5Q108 374 119.5 383Q131 392 135 403.5Q139 415 139 429Q139 442 134 461.5Q129 481 122.5 503Q116 525 111 547Q106 569 106 588Q106 621 119 646.5Q132 672 161.5 690.5Q191 709 240 720Q289 731 361 733V654Q332 649 312.5 643Q293 637 281.5 629Q270 621 265 609.5Q260 598 260 582Q260 568 262.5 548Q265 528 268.5 507Q272 486 274.5 465Q277 444 277 428Q277 406 271 388.5Q265 371 250.5 356.5Q236 342 210.5 330Q185 318 146 309V304Q185 295 210.5 283Q236 271 250.5 256.5Q265 242 271 224.5Q277 207 277 185Q277 169 274.5 148Q272 127 268.5 106Q265 85 262.5 65.5Q260 46 260 32Q260 15 265 3.5Q270 -8 281.5 -16Q293 -24 312.5 -30Q332 -36 361 -41V-120Z" glyph-name="braceleft" horiz-adv-x="388" unicode="{" /><glyph d="M27 -41Q86 -31 107 -16Q128 -1 128 32Q128 46 125.5 65.5Q123 85 119.5 106Q116 127 113.5 148Q111 169 111 185Q111 207 117 224.5Q123 242 138 256.5Q153 271 178.5 283Q204 295 243 304V309Q204 318 178.5 330Q153 342 138 356.5Q123 371 117 388.5Q111 406 111 428Q111 444 113.5 465Q116 486 119.5 507Q123 528 125.5 548Q128 568 128 582Q128 614 107 629Q86 644 27 654V733Q99 731 148 720Q197 709 227 690.5Q257 672 270 646.5Q283 621 283 588Q283 569 278 547Q273 525 266.5 503Q260 481 255 461.5Q250 442 250 429Q250 415 254 403.5Q258 392 269.5 383Q281 374 302 367Q323 360 358 356V257Q323 252 302 245.5Q281 239 269.5 230Q258 221 254 209.5Q250 198 250 184Q250 170 255 150.5Q260 131 266.5 109.5Q273 88 278 66Q283 44 283 25Q283 -8 270 -33.5Q257 -59 227 -77.5Q197 -96 148 -107Q99 -118 27 -120Z" glyph-name="braceright" horiz-adv-x="388" unicode="}" /><glyph d="M54 733H313V654L201 636V-23L313 -41V-120H54Z" glyph-name="bracketleft" horiz-adv-x="340" unicode="[" /><glyph d="M27 -41 139 -23V636L27 654V733H286V-120H27Z" glyph-name="bracketright" horiz-adv-x="340" unicode="]" /><glyph d="M259 584Q225 584 197.5 595Q170 606 150.5 625Q131 644 120 670Q109 696 108 726H198Q207 680 259 680Q283 680 299 691.5Q315 703 319 726H409Q408 696 397 670Q386 644 366.5 625Q347 606 319.5 595Q292 584 259 584Z" glyph-name="breve" horiz-adv-x="495" unicode="&#728;" /><glyph d="M259 728Q225 728 198 738.5Q171 749 152 767Q133 785 122 809Q111 833 109 861H199Q203 844 218.5 833.5Q234 823 259 823Q283 823 298 833.5Q313 844 318 861H407Q405 833 394.5 809Q384 785 365 767Q346 749 319.5 738.5Q293 728 259 728Z" glyph-name="breve.uc" horiz-adv-x="495" /><glyph d="M69 279H170V-120H69ZM69 733H170V371H69Z" glyph-name="brokenbar" horiz-adv-x="239" unicode="&#166;" /><glyph d="M181 172Q151 172 124.5 183.5Q98 195 78.5 215Q59 235 47.5 261.5Q36 288 36 318Q36 349 47.5 375.5Q59 402 78.5 421.5Q98 441 124.5 452Q151 463 181 463Q211 463 237.5 452Q264 441 284.5 421.5Q305 402 317 375.5Q329 349 329 318Q329 288 317 261.5Q305 235 284.5 215Q264 195 237.5 183.5Q211 172 181 172Z" glyph-name="bullet" horiz-adv-x="365" unicode="&#8226;" /><glyph d="M289 -13Q154 -13 86.5 60.5Q19 134 19 260Q19 333 40.5 385.5Q62 438 100 472Q138 506 191 522Q244 538 307 538Q352 538 393.5 532Q435 526 461 517V362H365L349 438Q341 441 330.5 443.5Q320 446 298 446Q244 446 213 406Q182 366 182 273Q182 222 193 188Q204 154 224.5 133.5Q245 113 274 104Q303 95 338 95Q380 95 413.5 102.5Q447 110 467 118V36Q442 19 398.5 3Q355 -13 289 -13Z" glyph-name="c" horiz-adv-x="490" unicode="c" /><glyph d="M92 710 124 754 247 686 371 754 402 710 284 580H211Z" glyph-name="caron" horiz-adv-x="495" unicode="&#711;" /><glyph d="M186 573 201 748 323 730 262 562Z" glyph-name="caron.alt" horiz-adv-x="495" /><glyph d="M404 843 284 731H211L90 843L119 887L247 834L376 887Z" glyph-name="caron.uc" horiz-adv-x="495" /><glyph d="M173 -169Q232 -163 253 -152.5Q274 -142 274 -125Q274 -110 257 -102Q240 -94 197 -93V-2Q107 21 63 89Q19 157 19 260Q19 333 40.5 385.5Q62 438 100 472Q138 506 191 522Q244 538 307 538Q352 538 393.5 532Q435 526 461 517V362H365L349 438Q341 441 330.5 443.5Q320 446 298 446Q244 446 213 406Q182 366 182 273Q182 222 193 188Q204 154 224.5 133.5Q245 113 274 104Q303 95 338 95Q380 95 413.5 102.5Q447 110 467 118V36Q442 19 398.5 3Q355 -13 289 -13Q281 -13 276 -13Q271 -13 260 -12V-43Q325 -46 352.5 -63.5Q380 -81 380 -119Q380 -160 331.5 -186.5Q283 -213 173 -219Z" glyph-name="ccedilla" horiz-adv-x="490" unicode="&#231;" /><glyph d="M192 -169Q251 -163 272 -152.5Q293 -142 293 -125Q293 -110 276 -102Q259 -94 216 -93V0H279V-43Q344 -46 371.5 -63.5Q399 -81 399 -119Q399 -160 350.5 -186.5Q302 -213 192 -219Z" glyph-name="cedilla" horiz-adv-x="495" unicode="&#184;" /><glyph d="M229 -7Q127 10 74 80Q21 150 21 260Q21 329 41 380Q61 431 97 465Q133 499 182 516.5Q231 534 289 537L296 602H375L368 535Q400 533 428.5 527.5Q457 522 477 516V362H395L380 440L358 446L318 88H339Q360 88 381.5 90.5Q403 93 422 97.5Q441 102 457 106.5Q473 111 483 116V36Q459 19 414 4Q369 -11 307 -13L296 -120H217ZM174 273Q174 207 190.5 167.5Q207 128 242 108L279 446Q231 437 202.5 396Q174 355 174 273Z" glyph-name="cent" horiz-adv-x="506" unicode="&#162;" /><glyph d="M92 618 211 748H284L402 618L371 575L247 643L124 575Z" glyph-name="circumflex" horiz-adv-x="495" unicode="&#710;" /><glyph d="M90 770 211 882H284L404 770L376 725L247 778L119 725Z" glyph-name="circumflex.uc" horiz-adv-x="495" /><glyph d="M126 -14Q88 -14 63 10.5Q38 35 38 70Q38 105 63 129.5Q88 154 126 154Q164 154 188.5 129.5Q213 105 213 70Q213 35 188.5 10.5Q164 -14 126 -14ZM126 280Q88 280 63 304.5Q38 329 38 364Q38 399 63 423.5Q88 448 126 448Q164 448 188.5 423.5Q213 399 213 364Q213 329 188.5 304.5Q164 280 126 280Z" glyph-name="colon" horiz-adv-x="251" unicode=":" /><glyph d="M40 -88Q47 -34 50 20Q53 74 53 142H205Q193 13 144 -88H40Z" glyph-name="comma" horiz-adv-x="246" unicode="," /><glyph d="M393 158Q352 158 318 169Q284 180 258.5 203Q233 226 219 261Q205 296 205 344Q205 395 221 431.5Q237 468 264 491Q291 514 327 524.5Q363 535 402 535Q437 535 468.5 530.5Q500 526 518 520L522 409H458L439 462Q431 466 421.5 468.5Q412 471 397 471Q354 471 339 439.5Q324 408 324 354Q324 281 340.5 252Q357 223 401 223Q431 223 442 231L463 289H526L520 178Q500 170 468.5 164Q437 158 393 158ZM385 46Q448 46 500.5 69.5Q553 93 590.5 133.5Q628 174 649 228Q670 282 670 344Q670 405 649 459Q628 513 590.5 553.5Q553 594 500.5 617Q448 640 385 640Q322 640 269.5 617Q217 594 179.5 553.5Q142 513 121.5 459Q101 405 101 344Q101 282 121.5 228Q142 174 179.5 133.5Q217 93 269.5 69.5Q322 46 385 46ZM385 -14Q310 -14 245 14Q180 42 132.5 91Q85 140 58 205Q31 270 31 344Q31 418 58 483Q85 548 132.5 596Q180 644 245 672Q310 700 385 700Q460 700 525 672Q590 644 638 596Q686 548 713.5 483Q741 418 741 344Q741 270 713.5 205Q686 140 638 91Q590 42 525 14Q460 -14 385 -14Z" glyph-name="copyright" horiz-adv-x="772" unicode="&#169;" /><glyph d="M234 -12Q197 -12 159.5 0.5Q122 13 91.5 43.5Q61 74 42 124.5Q23 175 23 251Q23 329 43 383.5Q63 438 98 472.5Q133 507 180.5 522.5Q228 538 284 538Q315 538 335 534Q355 530 373 523V633L304 649V725L513 748L528 741V103L591 87V14L402 -10L388 -3V48H382Q361 21 323 4.5Q285 -12 234 -12ZM292 98Q318 98 338.5 104.5Q359 111 373 119V422Q361 430 345 437.5Q329 445 299 445Q273 445 252 437Q231 429 216 409Q201 389 193 354.5Q185 320 185 268Q185 221 192 188.5Q199 156 213 136Q227 116 246.5 107Q266 98 292 98Z" glyph-name="d" horiz-adv-x="603" unicode="d" /><glyph d="M28 557 166 531 139 693H296L269 531L407 557V416L267 442L295 332V283L257 0H178L140 283V332L168 442L28 416Z" glyph-name="dagger" horiz-adv-x="435" unicode="&#8224;" /><glyph d="M30 563 170 536 141 693H299L271 536L410 563V422L270 448L299 366V327L270 244L410 271V130L271 156L299 0H141L170 156L30 130V271L171 244L142 327V366L171 448L30 422Z" glyph-name="daggerdbl" horiz-adv-x="440" unicode="&#8225;" /><glyph d="M182 465Q220 465 240 491Q260 517 260 552Q260 588 240 614Q220 640 182 640Q144 640 124 614Q104 588 104 552Q104 517 124 491Q144 465 182 465ZM182 403Q149 403 121 415Q93 427 72 447.5Q51 468 39.5 495Q28 522 28 552Q28 583 39.5 610Q51 637 72 657.5Q93 678 121 690Q149 702 182 702Q215 702 243 690Q271 678 291.5 657.5Q312 637 323.5 610Q335 583 335 552Q335 522 323.5 495Q312 468 291.5 447.5Q271 427 243 415Q215 403 182 403Z" glyph-name="degree" horiz-adv-x="363" unicode="&#176;" /><glyph d="M149 588Q117 588 94.5 608Q72 628 72 661Q72 695 94.5 714.5Q117 734 149 734Q182 734 205 714.5Q228 695 228 661Q228 628 205 608Q182 588 149 588ZM345 588Q313 588 290 608Q267 628 267 661Q267 695 290 714.5Q313 734 345 734Q377 734 400 714.5Q423 695 423 661Q423 628 400 608Q377 588 345 588Z" glyph-name="dieresis" horiz-adv-x="495" unicode="&#168;" /><glyph d="M149 730Q117 730 94.5 750Q72 770 72 803Q72 837 94.5 856.5Q117 876 149 876Q182 876 205 856.5Q228 837 228 803Q228 770 205 750Q182 730 149 730ZM345 730Q313 730 290 750Q267 770 267 803Q267 837 290 856.5Q313 876 345 876Q377 876 400 856.5Q423 837 423 803Q423 770 400 750Q377 730 345 730Z" glyph-name="dieresis.uc" horiz-adv-x="495" /><glyph d="M268 71Q231 71 207.5 95Q184 119 184 151Q184 184 207.5 207.5Q231 231 268 231Q304 231 327.5 207.5Q351 184 351 151Q351 119 327.5 95Q304 71 268 71ZM49 390H487V290H49ZM268 449Q231 449 207.5 472.5Q184 496 184 528Q184 561 207.5 585Q231 609 268 609Q304 609 327.5 585Q351 561 351 528Q351 496 327.5 472.5Q304 449 268 449Z" glyph-name="divide" horiz-adv-x="536" unicode="&#247;" /><glyph d="M191 -9Q146 -5 105.5 3Q65 11 36 22L27 192H123L152 103Q173 92 203 88L228 294L196 305Q157 316 126.5 332.5Q96 349 75 372.5Q54 396 43 428Q32 460 32 503Q32 546 47 582.5Q62 619 92 646Q122 673 168.5 689Q215 705 278 706L285 765H364L356 703Q401 698 432 690.5Q463 683 483 676L492 524H398L377 596Q370 598 362.5 600.5Q355 603 344 605L322 421L346 413Q388 400 421.5 384Q455 368 478.5 344Q502 320 514 287Q526 254 526 208Q526 161 510 121.5Q494 82 462 53Q430 24 382 7Q334 -10 270 -12L257 -117H178ZM378 175Q378 210 361 230.5Q344 251 304 268L281 84Q330 89 354 114Q378 139 378 175ZM171 533Q171 501 188.5 481.5Q206 462 246 446L266 612Q224 610 197.5 589.5Q171 569 171 533Z" glyph-name="dollar" horiz-adv-x="552" unicode="$" /><glyph d="M247 586Q212 586 187 608Q162 630 162 665Q162 701 187 722.5Q212 744 247 744Q282 744 307 722.5Q332 701 332 665Q332 630 307 608Q282 586 247 586Z" glyph-name="dotaccent" horiz-adv-x="495" unicode="&#729;" /><glyph d="M247 729Q212 729 187 751Q162 773 162 808Q162 844 187 865.5Q212 887 247 887Q282 887 307 865.5Q332 844 332 808Q332 773 307 751Q282 729 247 729Z" glyph-name="dotaccent.uc" horiz-adv-x="495" /><glyph d="M14 73 77 88V422L9 438V514L217 537L232 530V88L292 73V0H14Z" glyph-name="dotlessi" horiz-adv-x="305" unicode="&#305;" /><glyph d="M293 -13Q155 -13 87 61.5Q19 136 19 266Q19 330 38 381Q57 432 91.5 466.5Q126 501 173.5 519.5Q221 538 278 538Q398 538 454 468Q510 398 510 245H179Q185 164 224.5 129Q264 94 333 94Q387 94 422 102Q457 110 485 119V38Q458 21 412 4Q366 -13 293 -13ZM356 325Q356 393 334 420.5Q312 448 274 448Q234 448 209 419.5Q184 391 179 319Z" glyph-name="e" horiz-adv-x="531" unicode="e" /><glyph d="M159 637 358 759 413 649 188 574ZM293 -13Q155 -13 87 61.5Q19 136 19 266Q19 330 38 381Q57 432 91.5 466.5Q126 501 173.5 519.5Q221 538 278 538Q398 538 454 468Q510 398 510 245H179Q185 164 224.5 129Q264 94 333 94Q387 94 422 102Q457 110 485 119V38Q458 21 412 4Q366 -13 293 -13ZM356 325Q356 393 334 420.5Q312 448 274 448Q234 448 209 419.5Q184 391 179 319Z" glyph-name="eacute" horiz-adv-x="531" unicode="&#233;" /><glyph d="M120 618 239 748H312L430 618L399 575L275 643L152 575ZM293 -13Q155 -13 87 61.5Q19 136 19 266Q19 330 38 381Q57 432 91.5 466.5Q126 501 173.5 519.5Q221 538 278 538Q398 538 454 468Q510 398 510 245H179Q185 164 224.5 129Q264 94 333 94Q387 94 422 102Q457 110 485 119V38Q458 21 412 4Q366 -13 293 -13ZM356 325Q356 393 334 420.5Q312 448 274 448Q234 448 209 419.5Q184 391 179 319Z" glyph-name="ecircumflex" horiz-adv-x="531" unicode="&#234;" /><glyph d="M177 588Q145 588 122.5 608Q100 628 100 661Q100 695 122.5 714.5Q145 734 177 734Q210 734 233 714.5Q256 695 256 661Q256 628 233 608Q210 588 177 588ZM373 588Q341 588 318 608Q295 628 295 661Q295 695 318 714.5Q341 734 373 734Q405 734 428 714.5Q451 695 451 661Q451 628 428 608Q405 588 373 588ZM293 -13Q155 -13 87 61.5Q19 136 19 266Q19 330 38 381Q57 432 91.5 466.5Q126 501 173.5 519.5Q221 538 278 538Q398 538 454 468Q510 398 510 245H179Q185 164 224.5 129Q264 94 333 94Q387 94 422 102Q457 110 485 119V38Q458 21 412 4Q366 -13 293 -13ZM356 325Q356 393 334 420.5Q312 448 274 448Q234 448 209 419.5Q184 391 179 319Z" glyph-name="edieresis" horiz-adv-x="531" unicode="&#235;" /><glyph d="M293 -13Q155 -13 87 61.5Q19 136 19 266Q19 330 38 381Q57 432 91.5 466.5Q126 501 173.5 519.5Q221 538 278 538Q398 538 454 468Q510 398 510 245H179Q185 164 224.5 129Q264 94 333 94Q387 94 422 102Q457 110 485 119V38Q458 21 412 4Q366 -13 293 -13ZM356 325Q356 393 334 420.5Q312 448 274 448Q234 448 209 419.5Q184 391 179 319ZM139 649 194 759 394 637 365 574Z" glyph-name="egrave" horiz-adv-x="531" unicode="&#232;" /><glyph d="M301 -13Q164 -13 95 37.5Q26 88 26 176Q26 206 37.5 231.5Q49 257 68.5 278Q88 299 114.5 315Q141 331 171 343Q109 372 80.5 413Q52 454 52 515Q52 556 69 591Q86 626 119 651.5Q152 677 199.5 691Q247 705 307 705Q426 705 488.5 658.5Q551 612 551 534Q551 505 540.5 481Q530 457 512.5 438.5Q495 420 471.5 405.5Q448 391 422 381Q494 355 536 312Q578 269 578 197Q578 99 506.5 43Q435 -13 301 -13ZM291 82Q355 82 385 107Q415 132 415 175Q415 199 404.5 216Q394 233 373 247Q352 261 320.5 273.5Q289 286 247 300Q210 280 190 250Q170 220 170 179Q170 132 200.5 107Q231 82 291 82ZM338 420Q367 436 388 460.5Q409 485 409 525Q409 571 381.5 591Q354 611 311 611Q266 611 239 589.5Q212 568 212 533Q212 489 241.5 465.5Q271 442 338 420Z" glyph-name="eight" horiz-adv-x="605" unicode="8" /><glyph d="M123 -14Q85 -14 60 10.5Q35 35 35 70Q35 105 60 129.5Q85 154 123 154Q161 154 185.5 129.5Q210 105 210 70Q210 35 185.5 10.5Q161 -14 123 -14ZM375 -14Q337 -14 312.5 10.5Q288 35 288 70Q288 105 312.5 129.5Q337 154 375 154Q413 154 438 129.5Q463 105 463 70Q463 35 438 10.5Q413 -14 375 -14ZM628 -14Q590 -14 565.5 10.5Q541 35 541 70Q541 105 565.5 129.5Q590 154 628 154Q666 154 691 129.5Q716 105 716 70Q716 35 691 10.5Q666 -14 628 -14Z" glyph-name="ellipsis" horiz-adv-x="751" unicode="&#8230;" /><glyph d="M29 332H672V242H29Z" glyph-name="emdash" horiz-adv-x="701" unicode="&#8212;" /><glyph d="M29 332H375V242H29Z" glyph-name="endash" horiz-adv-x="404" unicode="&#8211;" /><glyph d="M51 259H481V159H51ZM51 451H481V351H51Z" glyph-name="equal" horiz-adv-x="531" unicode="=" /><glyph d="M377 644Q456 584 502.5 500.5Q549 417 549 301Q549 222 529.5 163Q510 104 474.5 65Q439 26 390.5 6.5Q342 -13 285 -13Q222 -13 172.5 6.5Q123 26 89 61Q55 96 37 145Q19 194 19 254Q19 320 38.5 369.5Q58 419 89.5 452Q121 485 161 501Q201 517 243 517Q275 517 295 511Q315 505 330 496H336Q319 522 297.5 544Q276 566 250 586L125 530L100 585L192 627Q173 639 152.5 650.5Q132 662 111 674L176 751Q214 737 249.5 720Q285 703 318 683L427 733L452 678ZM286 79Q307 79 325.5 86.5Q344 94 357.5 114Q371 134 379 169.5Q387 205 387 262Q387 315 381 349Q375 383 366 409Q352 419 332.5 425.5Q313 432 287 432Q263 432 243.5 424Q224 416 210.5 396.5Q197 377 189.5 344Q182 311 182 261Q182 207 190 172Q198 137 212 116Q226 95 245 87Q264 79 286 79Z" glyph-name="eth" horiz-adv-x="570" unicode="&#240;" /><glyph d="M133 -12Q98 -12 74.5 11Q51 34 51 66Q51 98 74.5 121.5Q98 145 133 145Q169 145 192 121.5Q215 98 215 66Q215 34 192 11Q169 -12 133 -12ZM49 693H216L182 209H80Z" glyph-name="exclam" horiz-adv-x="267" unicode="!" /><glyph d="M85 364H187L218 -120H51ZM134 428Q98 428 75 451.5Q52 475 52 507Q52 539 75 562Q98 585 134 585Q170 585 193 562Q216 539 216 507Q216 475 193 451.5Q170 428 134 428Z" glyph-name="exclamdown" horiz-adv-x="267" unicode="&#161;" /><glyph d="M17 73 79 88V434H16V502L79 526V576Q79 624 94.5 657.5Q110 691 136 711Q162 731 196 740Q230 749 267 749Q309 749 336 742.5Q363 736 378 728V639Q364 642 349.5 644Q335 646 315 646Q275 646 254.5 629Q234 612 234 562V527H340V434H234V88L309 73V0H17Z" glyph-name="f" horiz-adv-x="348" unicode="f" /><glyph d="M17 73 79 88V434H16V502L79 526V572Q79 618 93 650Q107 682 131 701.5Q155 721 186 729.5Q217 738 250 738Q286 738 310.5 731.5Q335 725 349 720V631Q340 633 330 634.5Q320 636 305 636Q273 636 253.5 619Q234 602 234 555V527H388V576Q388 624 403.5 657.5Q419 691 445 711Q471 731 505 740Q539 749 576 749Q618 749 645 742.5Q672 736 687 728V639Q673 642 658.5 644Q644 646 624 646Q584 646 563.5 629Q543 612 543 562V527H649V434H543V88L618 73V0H337V73L388 86V434H234V86L284 73V0H17Z" glyph-name="f_f" horiz-adv-x="657" unicode="&#64256;" /><glyph d="M17 73 79 88V434H16V502L79 526V572Q79 618 93 650Q107 682 131 701.5Q155 721 186 729.5Q217 738 250 738Q286 738 310.5 731.5Q335 725 349 720V631Q340 633 330 634.5Q320 636 305 636Q273 636 253.5 619Q234 602 234 555V527H388V586Q388 631 402 662Q416 693 439.5 712.5Q463 732 493.5 740.5Q524 749 557 749Q592 749 615 742.5Q638 736 650 731V642Q642 644 633.5 645Q625 646 612 646Q580 646 561.5 630Q543 614 543 570V527H838L852 520V88L913 73V0H646V73L697 86V434H543V86L593 73V0H337V73L388 86V434H234V86L284 73V0H17ZM774 586Q739 586 714.5 608Q690 630 690 665Q690 701 714.5 722.5Q739 744 774 744Q809 744 833 722.5Q857 701 857 665Q857 630 833 608Q809 586 774 586Z" glyph-name="f_f_i" horiz-adv-x="926" unicode="&#64259;" /><glyph d="M17 73 79 88V434H16V502L79 526V572Q79 618 93 650Q107 682 131 701.5Q155 721 186 729.5Q217 738 250 738Q286 738 310.5 731.5Q335 725 349 720V631Q340 633 330 634.5Q320 636 305 636Q273 636 253.5 619Q234 602 234 555V527H388V581Q388 628 404.5 660Q421 692 449 712Q477 732 512.5 740.5Q548 749 587 749Q630 749 667.5 740Q705 731 731 722L837 749L852 742V86L914 73V0H646V73L697 86V635Q680 640 663.5 643Q647 646 626 646Q584 646 563.5 629.5Q543 613 543 564V527H638V434H543V86L593 73V0H337V73L388 86V434H234V86L284 73V0H17Z" glyph-name="f_f_l" horiz-adv-x="927" unicode="&#64260;" /><glyph d="M17 73 79 88V434H16V502L79 526V586Q79 631 93 662Q107 693 130.5 712.5Q154 732 184.5 740.5Q215 749 248 749Q283 749 306 742.5Q329 736 341 731V642Q333 644 324.5 645Q316 646 303 646Q271 646 252.5 630Q234 614 234 570V527H529L543 520V88L604 73V0H337V73L388 86V434H234V86L284 73V0H17ZM465 586Q430 586 405.5 608Q381 630 381 665Q381 701 405.5 722.5Q430 744 465 744Q500 744 524 722.5Q548 701 548 665Q548 630 524 608Q500 586 465 586Z" glyph-name="f_i" horiz-adv-x="617" unicode="&#64257;" /><glyph d="M337 73 388 86V635Q371 640 354.5 643Q338 646 317 646Q275 646 254.5 629.5Q234 613 234 564V527H329V434H234V86L284 73V0H17V73L79 88V434H16V502L79 526V581Q79 628 95.5 660Q112 692 140 712Q168 732 203.5 740.5Q239 749 278 749Q321 749 358.5 740Q396 731 422 722L528 749L543 742V86L605 73V0H337Z" glyph-name="f_l" horiz-adv-x="618" unicode="&#64258;" /><glyph d="M217 -10Q146 -10 100.5 4.5Q55 19 20 38V126Q54 115 90.5 108Q127 101 171 101Q237 101 276.5 129.5Q316 158 316 220Q316 280 275.5 307Q235 334 162 334Q133 334 105.5 330.5Q78 327 55 322L78 693H466L456 569H175L164 430Q179 433 201.5 435.5Q224 438 247 438Q302 438 348 424Q394 410 426 383Q458 356 476 316Q494 276 494 224Q494 174 476 131Q458 88 423 56.5Q388 25 336 7.5Q284 -10 217 -10Z" glyph-name="five" horiz-adv-x="526" unicode="5" /><glyph d="M44 416H130L149 528Q166 620 218 660.5Q270 701 349 701Q391 701 417.5 694.5Q444 688 460 680V590Q446 593 433 594.5Q420 596 400 596Q358 596 338 577Q318 558 309 507L292 416H399V324H276L211 -39Q197 -117 151 -150Q105 -183 31 -183Q-1 -183 -27.5 -176Q-54 -169 -63 -164V-76Q-54 -78 -42.5 -79.5Q-31 -81 -17 -81Q12 -81 29.5 -65Q47 -49 54 -13L113 324H44Z" glyph-name="florin" horiz-adv-x="462" unicode="&#402;" /><glyph d="M236 80 317 95V200H17V284L342 694H482V294H568V200H482V95L559 80V0H236ZM317 294V522H313L138 297V294Z" glyph-name="four" horiz-adv-x="593" unicode="4" /><glyph d="M308 713H402L-83 -40H-177Z" glyph-name="fraction" horiz-adv-x="229" unicode="&#8260;" /><glyph d="M242 -204Q180 -204 135 -194.5Q90 -185 61 -168.5Q32 -152 17.5 -129.5Q3 -107 3 -82Q3 -40 34.5 -12.5Q66 15 110 29V34Q45 54 45 114Q45 146 65.5 174.5Q86 203 118 226Q83 246 61.5 279Q40 312 40 360Q40 403 56.5 436.5Q73 470 102.5 492.5Q132 515 173 526.5Q214 538 263 538Q325 538 371 521L536 544V449L457 452Q470 435 477.5 416Q485 397 485 371Q485 328 468.5 294.5Q452 261 423 238.5Q394 216 352.5 204.5Q311 193 262 193Q220 193 183 202Q166 183 166 163Q166 153 174.5 144Q183 135 203 135H376Q409 135 438.5 128Q468 121 490 104.5Q512 88 525 61.5Q538 35 538 -4Q538 -45 520.5 -81.5Q503 -118 467 -145Q431 -172 375 -188Q319 -204 242 -204ZM254 -117Q331 -117 364 -94Q397 -71 397 -41Q397 -15 380 -4.5Q363 6 326 6H187Q168 -2 157 -18Q146 -34 146 -56Q146 -82 170.5 -99.5Q195 -117 254 -117ZM262 270Q296 270 317.5 291.5Q339 313 339 364Q339 419 317 439.5Q295 460 262 460Q229 460 208 439Q187 418 187 367Q187 314 208.5 292Q230 270 262 270Z" glyph-name="g" horiz-adv-x="547" unicode="g" /><glyph d="M437 -13Q392 -13 354.5 -5.5Q317 2 293 12L285 146H372L389 85Q397 82 407.5 79Q418 76 432 76Q458 76 475.5 87.5Q493 99 493 123Q493 136 487 147Q481 158 470.5 167.5Q460 177 447 185.5Q434 194 419 204L378 229Q344 251 320.5 278.5Q297 306 297 352Q297 387 314.5 416.5Q332 446 353 473.5Q374 501 391.5 527Q409 553 409 582Q409 614 391.5 635Q374 656 335 656Q284 656 259 622.5Q234 589 234 526V0H17V73L79 88V434H16V502L79 526V540Q79 585 97 623.5Q115 662 149.5 689.5Q184 717 232.5 732.5Q281 748 343 748Q398 748 439.5 736.5Q481 725 508.5 704.5Q536 684 549.5 656.5Q563 629 563 598Q563 563 542 535Q521 507 495.5 483Q470 459 449 438.5Q428 418 428 398Q428 378 441.5 365.5Q455 353 487 333L528 307Q547 295 565.5 281.5Q584 268 599 250Q614 232 623 208Q632 184 632 152Q632 80 584.5 33.5Q537 -13 437 -13Z" glyph-name="germandbls" horiz-adv-x="648" unicode="&#223;" /><glyph d="M114 649 169 759 369 637 340 574Z" glyph-name="grave" horiz-adv-x="495" unicode="`" /><glyph d="M114 780 160 893 368 789 343 724Z" glyph-name="grave.uc" horiz-adv-x="495" /><glyph d="M57 223 325 330 57 438V552L452 378V284L57 110Z" glyph-name="greater" horiz-adv-x="502" unicode="&gt;" /><glyph d="M32 232V273L139 447H238L160 253L238 58H139ZM225 232V273L332 447H431L353 253L431 58H332Z" glyph-name="guillemotleft" horiz-adv-x="465" unicode="&#171;" /><glyph d="M112 252 34 447H134L240 273V232L134 58H34ZM305 252 227 447H327L433 273V232L327 58H227Z" glyph-name="guillemotright" horiz-adv-x="465" unicode="&#187;" /><glyph d="M32 232V273L139 447H238L160 253L238 58H139Z" glyph-name="guilsinglleft" horiz-adv-x="273" unicode="&#8249;" /><glyph d="M112 252 34 447H134L240 273V232L134 58H34Z" glyph-name="guilsinglright" horiz-adv-x="273" unicode="&#8250;" /><glyph d="M14 73 77 88V633L12 649V725L217 748L232 741V479H237Q274 505 313 521.5Q352 538 406 538Q470 538 508 507.5Q546 477 546 405V88L606 73V0H339V73L391 86V353Q391 392 372 406.5Q353 421 315 421Q292 421 272 416Q252 411 232 404V86L284 73V0H14Z" glyph-name="h" horiz-adv-x="616" unicode="h" /><glyph d="M106 604 214 772 307 703 156 569ZM291 609 408 772 496 697 339 570Z" glyph-name="hungarumlaut" horiz-adv-x="495" unicode="&#733;" /><glyph d="M109 761 191 908 293 845 168 726ZM286 765 378 909 476 839 343 727Z" glyph-name="hungarumlaut.uc" horiz-adv-x="495" /><glyph d="M36 344H285V226H36Z" glyph-name="hyphen" horiz-adv-x="321" unicode="-" /><glyph d="M14 73 77 88V422L9 438V514L217 537L232 530V88L292 73V0H14ZM150 586Q114 586 88 608Q62 630 62 665Q62 701 88 722.5Q114 744 150 744Q186 744 211.5 722.5Q237 701 237 665Q237 630 211.5 608Q186 586 150 586Z" glyph-name="i" horiz-adv-x="305" unicode="i" /><glyph d="M32 637 231 759 286 649 61 574ZM14 73 77 88V422L9 438V514L217 537L232 530V88L292 73V0H14Z" glyph-name="iacute" horiz-adv-x="305" unicode="&#237;" /><glyph d="M-6 618 113 748H186L304 618L273 575L149 643L26 575ZM14 73 77 88V422L9 438V514L217 537L232 530V88L292 73V0H14Z" glyph-name="icircumflex" horiz-adv-x="305" unicode="&#238;" /><glyph d="M51 588Q19 588 -3.5 608Q-26 628 -26 661Q-26 695 -3.5 714.5Q19 734 51 734Q84 734 107 714.5Q130 695 130 661Q130 628 107 608Q84 588 51 588ZM247 588Q215 588 192 608Q169 628 169 661Q169 695 192 714.5Q215 734 247 734Q279 734 302 714.5Q325 695 325 661Q325 628 302 608Q279 588 247 588ZM14 73 77 88V422L9 438V514L217 537L232 530V88L292 73V0H14Z" glyph-name="idieresis" horiz-adv-x="305" unicode="&#239;" /><glyph d="M14 73 77 88V422L9 438V514L217 537L232 530V88L292 73V0H14ZM12 649 67 759 267 637 238 574Z" glyph-name="igrave" horiz-adv-x="305" unicode="&#236;" /><glyph d="M46 -198Q19 -198 -3 -193Q-25 -188 -42 -181V-95Q-31 -97 -19.5 -98Q-8 -99 3 -99Q38 -99 59 -83Q80 -67 80 -21V422L12 438V514L219 537L234 530V-22Q234 -108 189.5 -153Q145 -198 46 -198ZM152 586Q117 586 91 608Q65 630 65 665Q65 701 91 722.5Q117 744 152 744Q189 744 214.5 722.5Q240 701 240 665Q240 630 214.5 608Q189 586 152 586Z" glyph-name="j" horiz-adv-x="292" unicode="j" /><glyph d="M257 226V276L384 440L326 453V527H563V453L498 439L383 297L527 88L576 73V0H413ZM14 73 77 87V633L12 649V725L216 748L232 741V85L288 73V0H14Z" glyph-name="k" horiz-adv-x="582" unicode="k" /><glyph d="M14 73 77 88V634L12 650V726L216 749L232 742V295L259 309L379 440L325 453V527H557V453L498 439L378 306L528 85L576 73V0H408L264 218L232 213V85L288 73V0H14Z" glyph-name="k.alt" horiz-adv-x="583" /><glyph d="M14 73 78 88V633L9 649V725L218 748L233 741V88L295 73V0H14Z" glyph-name="l" horiz-adv-x="308" unicode="l" /><glyph d="M50 284V378L445 552V438L177 331L445 223V110Z" glyph-name="less" horiz-adv-x="502" unicode="&lt;" /><glyph d="M8 358 78 395V633L9 649V725L218 748L233 741V479L306 518V423L233 384V88L295 73V0H14V73L78 88V300L8 263Z" glyph-name="lslash" horiz-adv-x="308" unicode="&#322;" /><glyph d="M14 73 77 88V422L12 438V514L211 537L225 530V479H231Q267 505 306 521.5Q345 538 401 538Q444 538 475 522.5Q506 507 522 474H527Q562 501 606 519.5Q650 538 705 538Q767 538 805 505.5Q843 473 843 401V88L902 73V0H638V73L688 86V349Q688 391 670 406Q652 421 613 421Q592 421 573 416.5Q554 412 535 405Q536 400 536.5 391.5Q537 383 537 373V86L588 73V0H332V73L383 86V349Q383 391 365 406Q347 421 311 421Q285 421 268.5 416.5Q252 412 232 405V86L283 73V0H14Z" glyph-name="m" horiz-adv-x="914" unicode="m" /><glyph d="M110 694H385V599H110Z" glyph-name="macron" horiz-adv-x="495" unicode="&#175;" /><glyph d="M110 837H385V742H110Z" glyph-name="macron.uc" horiz-adv-x="495" /><glyph d="M49 390H487V290H49Z" glyph-name="minus" horiz-adv-x="536" unicode="&#8722;" /><glyph d="M479 478 336 334 479 189 411 121 268 265 125 121 57 189 200 334 57 479 125 547 268 402 410 546Z" glyph-name="multiply" horiz-adv-x="536" unicode="&#215;" /><glyph d="M14 73 77 88V422L12 438V514L211 537L225 530V477H231Q269 504 310.5 521Q352 538 406 538Q470 538 508 507.5Q546 477 546 405V88L606 73V0H339V73L391 86V353Q391 392 372 406.5Q353 421 315 421Q292 421 272 416Q252 411 232 404V86L284 73V0H14Z" glyph-name="n" horiz-adv-x="617" unicode="n" /><glyph d="M239 -12Q181 -12 138 0.5Q95 13 65 30V120Q92 112 127.5 106.5Q163 101 201 101Q244 101 279 110Q314 119 339 141.5Q364 164 379.5 202Q395 240 399 299Q371 282 329.5 268Q288 254 240 254Q190 254 150 269Q110 284 82.5 311.5Q55 339 40.5 378Q26 417 26 465Q26 514 42.5 557.5Q59 601 92 633.5Q125 666 175 685Q225 704 292 704Q427 704 500 616Q573 528 573 370Q573 269 549 197Q525 125 481 78.5Q437 32 375.5 10Q314 -12 239 -12ZM297 357Q329 357 354.5 363.5Q380 370 400 382V405Q400 502 376.5 554Q353 606 293 606Q244 606 221 572.5Q198 539 198 474Q198 409 224 383Q250 357 297 357Z" glyph-name="nine" horiz-adv-x="603" unicode="9" /><glyph glyph-name="nonmarkingreturn" horiz-adv-x="179" /><glyph d="M14 73 77 88V422L12 438V514L211 537L225 530V477H231Q269 504 310.5 521Q352 538 406 538Q470 538 508 507.5Q546 477 546 405V88L606 73V0H339V73L391 86V353Q391 392 372 406.5Q353 421 315 421Q292 421 272 416Q252 411 232 404V86L284 73V0H14ZM142 623Q162 668 192 696.5Q222 725 261 725Q278 725 292.5 720.5Q307 716 320.5 710.5Q334 705 346 700.5Q358 696 369 696Q386 696 398.5 704Q411 712 424 731L483 693Q463 648 433 620Q403 592 364 592Q347 592 332.5 596.5Q318 601 304.5 606.5Q291 612 279 616.5Q267 621 256 621Q239 621 226.5 613Q214 605 201 586Z" glyph-name="ntilde" horiz-adv-x="617" unicode="&#241;" /><glyph d="M59 525H156L182 693H269L242 525H342L368 693H455L428 525H505V399H408L393 305H471V179H373L345 0H258L286 179H187L159 0H72L100 179H24V305H121L136 399H59ZM207 305H306L322 399H222Z" glyph-name="numbersign" horiz-adv-x="528" unicode="#" /><glyph d="M287 80Q309 80 327.5 88.5Q346 97 359.5 117.5Q373 138 381 172.5Q389 207 389 259Q389 314 380.5 350Q372 386 358 407.5Q344 429 325 437.5Q306 446 284 446Q263 446 244 438Q225 430 211.5 409.5Q198 389 190 354.5Q182 320 182 267Q182 213 190 177Q198 141 212.5 119.5Q227 98 246 89Q265 80 287 80ZM286 -13Q223 -13 173 6Q123 25 89 60.5Q55 96 37 146.5Q19 197 19 260Q19 326 39.5 378Q60 430 96 465.5Q132 501 180.5 519.5Q229 538 285 538Q412 538 482 466.5Q552 395 552 266Q552 200 531 148Q510 96 474 60.5Q438 25 389.5 6Q341 -13 286 -13Z" glyph-name="o" horiz-adv-x="571" unicode="o" /><glyph d="M168 637 367 759 422 649 197 574ZM287 80Q309 80 327.5 88.5Q346 97 359.5 117.5Q373 138 381 172.5Q389 207 389 259Q389 314 380.5 350Q372 386 358 407.5Q344 429 325 437.5Q306 446 284 446Q263 446 244 438Q225 430 211.5 409.5Q198 389 190 354.5Q182 320 182 267Q182 213 190 177Q198 141 212.5 119.5Q227 98 246 89Q265 80 287 80ZM286 -13Q223 -13 173 6Q123 25 89 60.5Q55 96 37 146.5Q19 197 19 260Q19 326 39.5 378Q60 430 96 465.5Q132 501 180.5 519.5Q229 538 285 538Q412 538 482 466.5Q552 395 552 266Q552 200 531 148Q510 96 474 60.5Q438 25 389.5 6Q341 -13 286 -13Z" glyph-name="oacute" horiz-adv-x="571" unicode="&#243;" /><glyph d="M130 618 249 748H322L440 618L409 575L285 643L162 575ZM287 80Q309 80 327.5 88.5Q346 97 359.5 117.5Q373 138 381 172.5Q389 207 389 259Q389 314 380.5 350Q372 386 358 407.5Q344 429 325 437.5Q306 446 284 446Q263 446 244 438Q225 430 211.5 409.5Q198 389 190 354.5Q182 320 182 267Q182 213 190 177Q198 141 212.5 119.5Q227 98 246 89Q265 80 287 80ZM286 -13Q223 -13 173 6Q123 25 89 60.5Q55 96 37 146.5Q19 197 19 260Q19 326 39.5 378Q60 430 96 465.5Q132 501 180.5 519.5Q229 538 285 538Q412 538 482 466.5Q552 395 552 266Q552 200 531 148Q510 96 474 60.5Q438 25 389.5 6Q341 -13 286 -13Z" glyph-name="ocircumflex" horiz-adv-x="571" unicode="&#244;" /><glyph d="M187 588Q155 588 132.5 608Q110 628 110 661Q110 695 132.5 714.5Q155 734 187 734Q220 734 243 714.5Q266 695 266 661Q266 628 243 608Q220 588 187 588ZM383 588Q351 588 328 608Q305 628 305 661Q305 695 328 714.5Q351 734 383 734Q415 734 438 714.5Q461 695 461 661Q461 628 438 608Q415 588 383 588ZM287 80Q309 80 327.5 88.5Q346 97 359.5 117.5Q373 138 381 172.5Q389 207 389 259Q389 314 380.5 350Q372 386 358 407.5Q344 429 325 437.5Q306 446 284 446Q263 446 244 438Q225 430 211.5 409.5Q198 389 190 354.5Q182 320 182 267Q182 213 190 177Q198 141 212.5 119.5Q227 98 246 89Q265 80 287 80ZM286 -13Q223 -13 173 6Q123 25 89 60.5Q55 96 37 146.5Q19 197 19 260Q19 326 39.5 378Q60 430 96 465.5Q132 501 180.5 519.5Q229 538 285 538Q412 538 482 466.5Q552 395 552 266Q552 200 531 148Q510 96 474 60.5Q438 25 389.5 6Q341 -13 286 -13Z" glyph-name="odieresis" horiz-adv-x="571" unicode="&#246;" /><glyph d="M663 -13Q591 -13 543.5 9Q496 31 467 73Q435 31 389 9Q343 -13 286 -13Q223 -13 173 6Q123 25 89 60.5Q55 96 37 146.5Q19 197 19 260Q19 326 39.5 378Q60 430 96 465.5Q132 501 180.5 519.5Q229 538 285 538Q348 538 395 516.5Q442 495 472 455Q501 496 546 517Q591 538 648 538Q768 538 824.5 468Q881 398 881 245H550Q556 164 595 129Q634 94 703 94Q757 94 792 102Q827 110 856 119V38Q828 21 782 4Q736 -13 663 -13ZM287 80Q309 80 327.5 88.5Q346 97 359.5 117.5Q373 138 381 172.5Q389 207 389 259Q389 314 380.5 350Q372 386 358 407.5Q344 429 325 437.5Q306 446 284 446Q263 446 244 438Q225 430 211.5 409.5Q198 389 190 354.5Q182 320 182 267Q182 213 190 177Q198 141 212.5 119.5Q227 98 246 89Q265 80 287 80ZM645 448Q605 448 579.5 419.5Q554 391 549 319L726 325Q726 393 704 420.5Q682 448 645 448Z" glyph-name="oe" horiz-adv-x="901" unicode="&#339;" /><glyph d="M257 -198Q194 -198 166 -174Q138 -150 138 -114Q138 -74 167.5 -45.5Q197 -17 241 0H312Q289 -27 275.5 -47.5Q262 -68 262 -91Q262 -126 305 -126Q313 -126 320 -125.5Q327 -125 333 -124V-186Q319 -191 301 -194.5Q283 -198 257 -198Z" glyph-name="ogonek" horiz-adv-x="522" unicode="&#731;" /><glyph d="M287 80Q309 80 327.5 88.5Q346 97 359.5 117.5Q373 138 381 172.5Q389 207 389 259Q389 314 380.5 350Q372 386 358 407.5Q344 429 325 437.5Q306 446 284 446Q263 446 244 438Q225 430 211.5 409.5Q198 389 190 354.5Q182 320 182 267Q182 213 190 177Q198 141 212.5 119.5Q227 98 246 89Q265 80 287 80ZM286 -13Q223 -13 173 6Q123 25 89 60.5Q55 96 37 146.5Q19 197 19 260Q19 326 39.5 378Q60 430 96 465.5Q132 501 180.5 519.5Q229 538 285 538Q412 538 482 466.5Q552 395 552 266Q552 200 531 148Q510 96 474 60.5Q438 25 389.5 6Q341 -13 286 -13ZM149 649 204 759 404 637 375 574Z" glyph-name="ograve" horiz-adv-x="571" unicode="&#242;" /><glyph d="M32 80 126 97V541L24 533V612L221 700H297V97L389 80V0H32Z" glyph-name="one" horiz-adv-x="410" unicode="1" /><glyph d="M615 713H709L224 -40H130ZM37 339 98 350V588L33 585V641L163 704H223V350L284 339V282H37ZM541 68 637 158Q669 187 691.5 216Q714 245 714 276Q714 305 695.5 320.5Q677 336 643 336Q620 336 597 332Q574 328 555 321V388Q581 403 615 413.5Q649 424 694 424Q767 424 806 390.5Q845 357 845 298Q845 246 811.5 207Q778 168 718 125L661 83V82H770L793 124L854 125L844 0H541Z" glyph-name="onehalf" horiz-adv-x="887" unicode="&#189;" /><glyph d="M37 339 98 350V588L33 585V641L163 704H223V350L284 339V282H37ZM619 713H713L228 -40H134ZM602 57 649 67V120H466V178L668 418H767V184H818V120H767V67L816 57V0H602ZM649 184V303H646L551 186V184Z" glyph-name="onequarter" horiz-adv-x="851" unicode="&#188;" /><glyph d="M161 219Q98 219 61 254Q24 289 24 346Q24 379 35.5 402Q47 425 68.5 441Q90 457 121 467Q152 477 190 484L275 500V527Q275 564 256.5 580.5Q238 597 185 597Q155 597 124.5 594Q94 591 71 588V671Q103 683 149 693Q195 703 252 703Q339 703 379.5 666Q420 629 420 553V340Q420 323 429 317Q438 311 452 311H468V241Q457 234 434.5 227Q412 220 383 220Q347 220 323.5 232Q300 244 291 273H286Q269 251 237.5 235Q206 219 161 219ZM219 305Q236 305 251.5 311Q267 317 275 324V430L224 427Q167 425 167 365Q167 305 219 305Z" glyph-name="ordfeminine" horiz-adv-x="483" unicode="&#170;" /><glyph d="M258 307Q276 307 291 314Q306 321 317 338Q328 355 334.5 384.5Q341 414 341 458Q341 504 334.5 534.5Q328 565 316.5 583Q305 601 289.5 608Q274 615 256 615Q238 615 223 608.5Q208 602 197 585Q186 568 180 538.5Q174 509 174 464Q174 417 180.5 387Q187 357 198.5 339Q210 321 225 314Q240 307 258 307ZM258 219Q146 219 85 283.5Q24 348 24 458Q24 517 42.5 563Q61 609 92.5 640Q124 671 166 687Q208 703 256 703Q368 703 429.5 640.5Q491 578 491 464Q491 405 472.5 359.5Q454 314 422 282.5Q390 251 348 235Q306 219 258 219Z" glyph-name="ordmasculine" horiz-adv-x="515" unicode="&#186;" /><glyph d="M20 10 76 75Q19 147 19 260Q19 326 39.5 378Q60 430 96 465.5Q132 501 180.5 519.5Q229 538 285 538Q330 538 368.5 528Q407 518 438 500L485 555L542 513L492 454Q552 383 552 266Q552 200 531 148Q510 96 474 60.5Q438 25 389.5 6Q341 -13 286 -13Q238 -13 199.5 -2.5Q161 8 129 28L78 -32ZM287 79Q310 79 330 87.5Q350 96 364.5 116.5Q379 137 387.5 171.5Q396 206 396 259Q396 282 394.5 300.5Q393 319 391 336L204 116Q218 96 239 87.5Q260 79 287 79ZM174 268Q174 247 175 229Q176 211 178 195L363 413Q349 432 329.5 439.5Q310 447 284 447Q261 447 241 439Q221 431 206 411Q191 391 182.5 356.5Q174 322 174 268Z" glyph-name="oslash" horiz-adv-x="571" unicode="&#248;" /><glyph d="M287 80Q309 80 327.5 88.5Q346 97 359.5 117.5Q373 138 381 172.5Q389 207 389 259Q389 314 380.5 350Q372 386 358 407.5Q344 429 325 437.5Q306 446 284 446Q263 446 244 438Q225 430 211.5 409.5Q198 389 190 354.5Q182 320 182 267Q182 213 190 177Q198 141 212.5 119.5Q227 98 246 89Q265 80 287 80ZM286 -13Q223 -13 173 6Q123 25 89 60.5Q55 96 37 146.5Q19 197 19 260Q19 326 39.5 378Q60 430 96 465.5Q132 501 180.5 519.5Q229 538 285 538Q412 538 482 466.5Q552 395 552 266Q552 200 531 148Q510 96 474 60.5Q438 25 389.5 6Q341 -13 286 -13ZM115 623Q135 668 165 696.5Q195 725 234 725Q251 725 265.5 720.5Q280 716 293.5 710.5Q307 705 319 700.5Q331 696 342 696Q359 696 371.5 704Q384 712 397 731L456 693Q436 648 406 620Q376 592 337 592Q320 592 305.5 596.5Q291 601 277.5 606.5Q264 612 252 616.5Q240 621 229 621Q212 621 199.5 613Q187 605 174 586Z" glyph-name="otilde" horiz-adv-x="571" unicode="&#245;" /><glyph d="M12 -128 75 -115V422L10 438V514L208 537L222 530V479H228Q254 501 292 520Q330 539 384 539Q420 539 455 527Q490 515 517.5 486Q545 457 562 408Q579 359 579 284Q579 205 559 149Q539 93 503 57Q467 21 417.5 4Q368 -13 310 -13Q281 -13 263.5 -11Q246 -9 229 -6V-114L302 -128V-200H12ZM304 79Q330 79 351 87.5Q372 96 386.5 117Q401 138 409 173.5Q417 209 417 263Q417 355 390 391Q363 427 311 427Q285 427 264 421Q243 415 229 408V100Q241 92 257 85.5Q273 79 304 79Z" glyph-name="p" horiz-adv-x="602" unicode="p" /><glyph d="M271 323Q265 323 256.5 322Q248 321 237 321Q197 321 160 332.5Q123 344 95 367Q67 390 50.5 426Q34 462 34 511Q34 601 91 647Q148 693 266 693H594V614L524 596V-120H432V602H363V-120H271Z" glyph-name="paragraph" horiz-adv-x="598" unicode="&#182;" /><glyph d="M275 -148Q229 -113 185 -70.5Q141 -28 106.5 26Q72 80 51 148Q30 216 30 302Q30 380 51.5 447Q73 514 107.5 570.5Q142 627 186 672Q230 717 275 752L330 702Q298 664 270.5 623Q243 582 223 535Q203 488 191.5 434.5Q180 381 180 319Q180 243 191 183.5Q202 124 221.5 74.5Q241 25 269 -17Q297 -59 330 -98L275 -148Z" glyph-name="parenleft" horiz-adv-x="345" unicode="(" /><glyph d="M15 -98Q47 -61 74.5 -19.5Q102 22 122 69Q142 116 153.5 169.5Q165 223 165 285Q165 361 154 420.5Q143 480 123.5 529.5Q104 579 76.5 621Q49 663 15 702L70 752Q116 717 160 674.5Q204 632 238.5 578Q273 524 294 456Q315 388 315 302Q315 224 293.5 157Q272 90 237.5 33.5Q203 -23 159 -68Q115 -113 70 -148Z" glyph-name="parenright" horiz-adv-x="345" unicode=")" /><glyph d="M206 380Q241 380 252 410Q263 440 263 504Q263 569 252 602Q241 635 207 635Q172 635 160.5 603.5Q149 572 149 508Q149 445 160.5 412.5Q172 380 206 380ZM206 310Q170 310 136.5 321.5Q103 333 77.5 357Q52 381 37 417.5Q22 454 22 504Q22 556 37.5 593.5Q53 631 79 656Q105 681 138.5 693Q172 705 207 705Q241 705 274.5 693.5Q308 682 333.5 658Q359 634 375 597Q391 560 391 509Q391 458 375.5 420.5Q360 383 334.5 358.5Q309 334 275.5 322Q242 310 206 310ZM631 713H724L250 -40H156ZM682 58Q716 58 727 87.5Q738 117 738 182Q738 247 727 280Q716 313 682 313Q647 313 636 281Q625 249 625 186Q625 123 636 90.5Q647 58 682 58ZM681 -12Q645 -12 611.5 -0.5Q578 11 552.5 35Q527 59 512 95.5Q497 132 497 182Q497 234 512.5 271.5Q528 309 554 334Q580 359 613.5 371Q647 383 682 383Q716 383 749.5 371.5Q783 360 809 336Q835 312 851 275Q867 238 867 187Q867 136 851.5 98.5Q836 61 810 36.5Q784 12 750.5 0Q717 -12 681 -12Z" glyph-name="percent" horiz-adv-x="889" unicode="%" /><glyph d="M122 -14Q84 -14 60 10.5Q36 35 36 70Q36 105 60 129.5Q84 154 122 154Q160 154 184.5 129.5Q209 105 209 70Q209 35 184.5 10.5Q160 -14 122 -14Z" glyph-name="period" horiz-adv-x="246" unicode="." /><glyph d="M123 248Q85 248 60 272.5Q35 297 35 332Q35 367 60 391.5Q85 416 123 416Q161 416 185.5 391.5Q210 367 210 332Q210 297 185.5 272.5Q161 248 123 248Z" glyph-name="periodcentered" horiz-adv-x="245" unicode="&#183;" /><glyph d="M206 380Q241 380 252 410Q263 440 263 504Q263 569 252 602Q241 635 207 635Q172 635 160.5 603.5Q149 572 149 508Q149 445 160.5 412.5Q172 380 206 380ZM206 310Q170 310 136.5 321.5Q103 333 77.5 357Q52 381 37 417.5Q22 454 22 504Q22 556 37.5 593.5Q53 631 79 656Q105 681 138.5 693Q172 705 207 705Q241 705 274.5 693.5Q308 682 333.5 658Q359 634 375 597Q391 560 391 509Q391 458 375.5 420.5Q360 383 334.5 358.5Q309 334 275.5 322Q242 310 206 310ZM628 713H722L247 -40H153ZM676 58Q710 58 721.5 87.5Q733 117 733 182Q733 247 722 280Q711 313 676 313Q642 313 630.5 281Q619 249 619 186Q619 123 630.5 90.5Q642 58 676 58ZM675 -12Q639 -12 606 -0.5Q573 11 547.5 35Q522 59 507 95.5Q492 132 492 182Q492 234 507.5 271.5Q523 309 549 334Q575 359 608 371Q641 383 676 383Q710 383 743.5 371.5Q777 360 803 336Q829 312 845 275Q861 238 861 187Q861 136 845.5 98.5Q830 61 804.5 36.5Q779 12 745 0Q711 -12 675 -12ZM1087 58Q1122 58 1133 87.5Q1144 117 1144 182Q1144 247 1133 280Q1122 313 1088 313Q1053 313 1042 281Q1031 249 1031 186Q1031 123 1042 90.5Q1053 58 1087 58ZM1087 -12Q1051 -12 1017.5 -0.5Q984 11 958.5 35Q933 59 918 95.5Q903 132 903 182Q903 234 918.5 271.5Q934 309 960 334Q986 359 1019.5 371Q1053 383 1088 383Q1122 383 1155.5 371.5Q1189 360 1214.5 336Q1240 312 1256 275Q1272 238 1272 187Q1272 136 1256.5 98.5Q1241 61 1215.5 36.5Q1190 12 1156.5 0Q1123 -12 1087 -12Z" glyph-name="perthousand" horiz-adv-x="1295" unicode="&#8240;" /><glyph d="M49 390H216V564H320V390H487V290H320V116H216V290H49Z" glyph-name="plus" horiz-adv-x="536" unicode="+" /><glyph d="M300 -124 373 -109V40H367Q341 16 312 2Q283 -12 236 -12Q198 -12 160 0Q122 12 91.5 42Q61 72 42 122Q23 172 23 248Q23 325 44 380Q65 435 102.5 470Q140 505 192 521.5Q244 538 307 538Q379 538 430 529.5Q481 521 528 503V-111L589 -124V-200H300ZM292 98Q318 98 338.5 104.5Q359 111 373 119V422Q361 430 345 437.5Q329 445 296 445Q272 445 251.5 437Q231 429 216.5 409Q202 389 193.5 354.5Q185 320 185 268Q185 221 192 188.5Q199 156 213 136Q227 116 246.5 107Q266 98 292 98Z" glyph-name="q" horiz-adv-x="589" unicode="q" /><glyph d="M123 208Q116 222 110.5 239.5Q105 257 105 282Q105 322 125.5 347.5Q146 373 183 403Q213 427 228.5 449Q244 471 244 511Q244 556 217.5 579Q191 602 140 602Q102 602 76 597.5Q50 593 20 584V666Q52 683 94.5 693.5Q137 704 188 704Q236 704 276 694.5Q316 685 345.5 663Q375 641 391.5 606.5Q408 572 408 521Q408 488 400 462.5Q392 437 377 416.5Q362 396 340.5 378.5Q319 361 292 343Q251 316 228 298Q205 280 204 251Q204 235 210 208ZM170 -12Q135 -12 111.5 11Q88 34 88 66Q88 98 111.5 121.5Q135 145 170 145Q206 145 229 121.5Q252 98 252 66Q252 34 229 11Q206 -12 170 -12Z" glyph-name="question" horiz-adv-x="435" unicode="?" /><glyph d="M247 -131Q199 -131 159 -121.5Q119 -112 89.5 -90Q60 -68 43.5 -33.5Q27 1 27 52Q27 85 35 110.5Q43 136 58 156.5Q73 177 94.5 194.5Q116 212 143 230Q184 257 207 275Q230 293 231 322Q231 338 225 365H312Q319 351 324.5 333.5Q330 316 330 291Q330 271 324.5 255Q319 239 309 225.5Q299 212 284.5 198.5Q270 185 252 170Q222 146 206.5 124Q191 102 191 62Q191 17 217.5 -6Q244 -29 295 -29Q333 -29 359 -24.5Q385 -20 415 -11V-93Q383 -110 340.5 -120.5Q298 -131 247 -131ZM265 428Q229 428 206 451.5Q183 475 183 507Q183 539 206 562Q229 585 265 585Q300 585 323.5 562Q347 539 347 507Q347 475 323.5 451.5Q300 428 265 428Z" glyph-name="questiondown" horiz-adv-x="435" unicode="&#191;" /><glyph d="M46 693H195L170 471H70ZM235 693H383L359 471H259Z" glyph-name="quotedbl" horiz-adv-x="430" unicode="&quot;" /><glyph d="M39 -78Q45 -26 49 25.5Q53 77 53 140H201Q193 80 178 25.5Q163 -29 138 -78ZM233 -78Q239 -26 243 25.5Q247 77 247 140H394Q387 80 372 25.5Q357 -29 332 -78Z" glyph-name="quotedblbase" horiz-adv-x="434" unicode="&#8222;" /><glyph d="M39 475Q47 535 62 589.5Q77 644 102 693H201Q195 641 191 589.5Q187 538 187 475ZM233 475Q240 535 255 589.5Q270 644 295 693H395Q388 641 384 589.5Q380 538 380 475Z" glyph-name="quotedblleft" horiz-adv-x="434" unicode="&#8220;" /><glyph d="M39 475Q45 527 49 578.5Q53 630 53 693H201Q193 633 178 578.5Q163 524 138 475ZM233 475Q239 527 243 578.5Q247 630 247 693H394Q387 633 372 578.5Q357 524 332 475Z" glyph-name="quotedblright" horiz-adv-x="434" unicode="&#8221;" /><glyph d="M39 475Q47 535 62 589.5Q77 644 102 693H201Q195 641 191 589.5Q187 538 187 475H39Z" glyph-name="quoteleft" horiz-adv-x="240" unicode="&#8216;" /><glyph d="M39 475Q45 527 49 578.5Q53 630 53 693H201Q193 633 178 578.5Q163 524 138 475H39Z" glyph-name="quoteright" horiz-adv-x="240" unicode="&#8217;" /><glyph d="M39 -78Q45 -26 49 25.5Q53 77 53 140H201Q193 80 178 25.5Q163 -29 138 -78H39Z" glyph-name="quotesinglbase" horiz-adv-x="240" unicode="&#8218;" /><glyph d="M46 693H195L170 471H70Z" glyph-name="quotesingle" horiz-adv-x="241" unicode="&apos;" /><glyph d="M14 73 77 88V422L12 438V514L211 537L225 530V455H231Q252 488 286 512.5Q320 537 365 537Q372 537 379.5 536Q387 535 392 533V397Q383 399 371 400Q359 401 348 401Q311 401 283 395Q255 389 232 377V88L309 73V0H14Z" glyph-name="r" horiz-adv-x="402" unicode="r" /><glyph d="M133 431 152 437V557L133 562V594H238Q279 594 299 578Q319 562 319 536Q319 516 309.5 507Q300 498 287 493V491L321 436L335 431V401H273L231 474H216V437L231 431V401H133ZM233 508Q256 508 256 533Q256 557 232 557H216V508ZM230 328Q266 328 296 341.5Q326 355 347.5 377.5Q369 400 381 430Q393 460 393 495Q393 529 381 559.5Q369 590 347.5 612.5Q326 635 296 648Q266 661 230 661Q194 661 164.5 648Q135 635 113.5 612.5Q92 590 80.5 559.5Q69 529 69 495Q69 460 80.5 430Q92 400 113.5 377.5Q135 355 164.5 341.5Q194 328 230 328ZM230 286Q185 286 146.5 302.5Q108 319 79.5 347.5Q51 376 35 414Q19 452 19 495Q19 538 35 576Q51 614 79.5 642.5Q108 671 146.5 687Q185 703 230 703Q275 703 313.5 687Q352 671 380.5 642.5Q409 614 425.5 576Q442 538 442 495Q442 452 425.5 414Q409 376 380.5 347.5Q352 319 313.5 302.5Q275 286 230 286Z" glyph-name="registered" horiz-adv-x="462" unicode="&#174;" /><glyph d="M247 630Q269 630 282 643Q295 656 295 679Q295 700 282 713.5Q269 727 247 727Q225 727 212.5 713.5Q200 700 200 679Q200 656 212.5 643Q225 630 247 630ZM247 575Q223 575 203 583Q183 591 168.5 605.5Q154 620 146 639Q138 658 138 679Q138 700 146 718.5Q154 737 168.5 751.5Q183 766 203 774Q223 782 247 782Q271 782 291 774Q311 766 325.5 751.5Q340 737 348.5 718.5Q357 700 357 679Q357 658 348.5 639Q340 620 325.5 605.5Q311 591 291 583Q271 575 247 575Z" glyph-name="ring" horiz-adv-x="495" unicode="&#730;" /><glyph d="M247 771Q269 771 282 784Q295 797 295 820Q295 841 282 854.5Q269 868 247 868Q225 868 212.5 854.5Q200 841 200 820Q200 797 212.5 784Q225 771 247 771ZM247 716Q223 716 203 724Q183 732 168.5 746.5Q154 761 146 780Q138 799 138 820Q138 841 146 860Q154 879 168.5 893Q183 907 203 915Q223 923 247 923Q271 923 291 915Q311 907 325.5 893Q340 879 348.5 860Q357 841 357 820Q357 799 348.5 780Q340 761 325.5 746.5Q311 732 291 724Q271 716 247 716Z" glyph-name="ring.uc" horiz-adv-x="495" /><glyph d="M208 -13Q164 -13 116 -4.5Q68 4 30 18L21 162H114L136 94Q147 87 167.5 81.5Q188 76 215 76Q253 76 275 90Q297 104 297 133Q297 160 281 172.5Q265 185 223 197L166 212Q96 229 59 265.5Q22 302 22 369Q22 405 35.5 436.5Q49 468 76 490.5Q103 513 145 526Q187 539 244 539Q292 539 336 531.5Q380 524 410 512V376H320L304 437Q293 443 277.5 447.5Q262 452 237 452Q204 452 181.5 440Q159 428 159 400Q159 375 176.5 361.5Q194 348 240 337L301 321Q379 301 411.5 263.5Q444 226 444 166Q444 127 430 94Q416 61 387.5 37Q359 13 314 0Q269 -13 208 -13Z" glyph-name="s" horiz-adv-x="464" unicode="s" /><glyph d="M82 710 114 754 237 686 361 754 392 710 274 580H201ZM208 -13Q164 -13 116 -4.5Q68 4 30 18L21 162H114L136 94Q147 87 167.5 81.5Q188 76 215 76Q253 76 275 90Q297 104 297 133Q297 160 281 172.5Q265 185 223 197L166 212Q96 229 59 265.5Q22 302 22 369Q22 405 35.5 436.5Q49 468 76 490.5Q103 513 145 526Q187 539 244 539Q292 539 336 531.5Q380 524 410 512V376H320L304 437Q293 443 277.5 447.5Q262 452 237 452Q204 452 181.5 440Q159 428 159 400Q159 375 176.5 361.5Q194 348 240 337L301 321Q379 301 411.5 263.5Q444 226 444 166Q444 127 430 94Q416 61 387.5 37Q359 13 314 0Q269 -13 208 -13Z" glyph-name="scaron" horiz-adv-x="464" unicode="&#353;" /><glyph d="M254 -132Q200 -132 156 -123.5Q112 -115 78 -101L70 39H162L184 -26Q197 -32 213.5 -37Q230 -42 258 -42Q294 -42 318 -28.5Q342 -15 342 14Q342 41 323 58Q304 75 259 90L183 116Q104 142 64 178.5Q24 215 24 278Q24 329 53 361Q82 393 135 410Q103 431 86 462Q69 493 69 539Q69 614 123.5 659.5Q178 705 293 705Q344 705 387.5 697.5Q431 690 461 678V544H371L354 602Q343 608 327.5 612Q312 616 286 616Q250 616 228 602.5Q206 589 206 560Q206 534 222 519Q238 504 283 489L360 463Q436 438 477.5 401.5Q519 365 519 302Q519 251 490 218.5Q461 186 408 168Q443 146 462.5 115Q482 84 482 39Q482 2 468.5 -29.5Q455 -61 426.5 -83.5Q398 -106 355 -119Q312 -132 254 -132ZM228 368Q199 363 181.5 347.5Q164 332 164 309Q164 280 184.5 264.5Q205 249 248 233L315 210Q343 215 360.5 230Q378 245 378 271Q378 297 360.5 312.5Q343 328 302 343Z" glyph-name="section" horiz-adv-x="543" unicode="&#167;" /><glyph d="M39 -88Q45 -34 48.5 20Q52 74 52 142H204Q197 78 182 20.5Q167 -37 142 -88ZM126 280Q88 280 63.5 304.5Q39 329 39 364Q39 399 63.5 423.5Q88 448 126 448Q164 448 188 423.5Q212 399 212 364Q212 329 188 304.5Q164 280 126 280Z" glyph-name="semicolon" horiz-adv-x="251" unicode=";" /><glyph d="M398 565V569H136L109 497H19L29 693H509V594L279 0H89Z" glyph-name="seven" horiz-adv-x="527" unicode="7" /><glyph d="M311 -12Q244 -12 191.5 11.5Q139 35 103 78.5Q67 122 48 183.5Q29 245 29 322Q29 424 56 496.5Q83 569 129 615Q175 661 235 682.5Q295 704 360 704Q420 704 462.5 693Q505 682 531 665V575Q508 583 472 587Q436 591 398 591Q361 591 327.5 582.5Q294 574 268 551.5Q242 529 225 490.5Q208 452 203 393Q232 410 273 424Q314 438 361 438Q412 438 452 423Q492 408 519.5 380.5Q547 353 562 314Q577 275 577 227Q577 178 560.5 134.5Q544 91 511 58.5Q478 26 428 7Q378 -12 311 -12ZM309 86Q359 86 381.5 119.5Q404 153 404 218Q404 283 377.5 309.5Q351 336 305 336Q273 336 248 329Q223 322 203 310Q202 304 202 299.5Q202 295 202 287Q202 190 225.5 138Q249 86 309 86Z" glyph-name="six" horiz-adv-x="603" unicode="6" /><glyph d="M239 733H348L108 -120H-1Z" glyph-name="slash" horiz-adv-x="368" unicode="/" /><glyph glyph-name="space" horiz-adv-x="179" unicode=" " /><glyph d="M159 -187Q164 -155 167 -118.5Q170 -82 170 -38H319Q314 -79 302 -118.5Q290 -158 269 -187H159Z" glyph-name="space_uni0326" horiz-adv-x="495" /><glyph d="M325 746Q320 714 317 677.5Q314 641 314 597H165Q170 638 182 677.5Q194 717 215 746H325Z" glyph-name="space_uni0326.alt" horiz-adv-x="495" /><glyph d="M46 385H109V469Q109 529 126.5 573Q144 617 175 646Q206 675 248.5 689.5Q291 704 341 704Q404 704 444 691.5Q484 679 513 657V563Q487 572 461 577Q435 582 400 582Q374 582 351.5 576.5Q329 571 311.5 556.5Q294 542 283.5 516Q273 490 270 450L266 385H430V293H260L259 267Q254 208 235 177Q216 146 182 122V119H522L508 0H30V87Q68 107 88.5 139.5Q109 172 109 235V293H46Z" glyph-name="sterling" horiz-adv-x="548" unicode="&#163;" /><glyph d="M230 -11Q192 -11 163 -4Q134 3 114 19.5Q94 36 83.5 63Q73 90 73 130V434H11V502L87 528L107 651H228V527H344V434H228V157Q228 119 244 104Q260 89 298 89Q312 89 326 91Q340 93 352 96V19Q334 8 302.5 -1.5Q271 -11 230 -11Z" glyph-name="t" horiz-adv-x="373" unicode="t" /><glyph d="M0 -128 63 -115V631L0 647V725L202 748L217 742V484H223Q249 504 284 521.5Q319 539 373 539Q409 539 444 527Q479 515 506 486Q533 457 550 408Q567 359 567 284Q567 205 547 149Q527 93 491 57Q455 21 405.5 4Q356 -13 298 -13Q269 -13 251.5 -11Q234 -9 218 -6V-114L290 -128V-200H0ZM292 79Q318 79 339 87.5Q360 96 374.5 117Q389 138 397 173.5Q405 209 405 263Q405 355 378 391Q351 427 300 427Q273 427 252 421Q231 415 217 408V101Q229 93 245 86Q261 79 292 79Z" glyph-name="thorn" horiz-adv-x="591" unicode="&#254;" /><glyph d="M218 -10Q146 -10 98 4Q50 18 18 37V126Q49 115 87.5 108.5Q126 102 170 102Q238 102 274.5 126.5Q311 151 311 205Q311 264 279.5 286.5Q248 309 182 309H122V406H171Q295 406 295 498Q295 546 267.5 569Q240 592 177 592Q136 592 105.5 586.5Q75 581 45 572V660Q78 678 129 691Q180 704 238 704Q344 704 403 659.5Q462 615 462 530Q462 467 425 426.5Q388 386 330 369V365Q362 360 391 347Q420 334 441.5 313Q463 292 476 261.5Q489 231 489 191Q489 97 418 43.5Q347 -10 218 -10Z" glyph-name="three" horiz-adv-x="518" unicode="3" /><glyph d="M159 276Q111 276 80.5 284.5Q50 293 31 303V366Q49 361 73 357Q97 353 124 353Q204 353 204 408Q204 439 186 451Q168 463 132 463H91V529H126Q196 529 196 579Q196 630 129 630Q103 630 84 627Q65 624 48 619V681Q68 692 101 699Q134 706 172 706Q241 706 278.5 679.5Q316 653 316 603Q316 562 292 538.5Q268 515 232 504V502Q274 495 303 470.5Q332 446 332 398Q332 341 287.5 308.5Q243 276 159 276ZM636 712H730L245 -41H151ZM622 56 669 66V119H486V177L688 417H787V183H838V119H787V66L836 56V-1H622ZM669 183V302H666L571 185V183Z" glyph-name="threequarters" horiz-adv-x="871" unicode="&#190;" /><glyph d="M78 623Q98 668 128 696.5Q158 725 197 725Q214 725 228.5 720.5Q243 716 256.5 710.5Q270 705 282 700.5Q294 696 305 696Q322 696 334.5 704Q347 712 360 731L419 693Q399 648 369 620Q339 592 300 592Q283 592 268.5 596.5Q254 601 240.5 606.5Q227 612 215 616.5Q203 621 192 621Q175 621 162.5 613Q150 605 137 586Z" glyph-name="tilde" horiz-adv-x="495" unicode="&#732;" /><glyph d="M75 766Q95 811 124.5 839.5Q154 868 194 868Q210 868 226 863.5Q242 859 256 853.5Q270 848 283 843.5Q296 839 307 839Q324 839 336.5 847Q349 855 362 874L421 837Q401 792 371 763.5Q341 735 302 735Q285 735 269.5 739.5Q254 744 239.5 749.5Q225 755 212.5 759.5Q200 764 189 764Q172 764 159 756Q146 748 134 729Z" glyph-name="tilde.uc" horiz-adv-x="495" /><glyph d="M346 443 378 450V640L346 647V693H502L554 531H557L610 693H774V647L741 640V450L774 443V397H622V443L648 450V620H645L575 403H512L443 618H440V450L467 443V397H346ZM87 443 121 450V642H87L72 580H18L21 693H316L320 580H265L250 642H216V450L249 443V397H87Z" glyph-name="trademark" horiz-adv-x="792" unicode="&#8482;" /><glyph d="M12 90 174 249Q204 279 228.5 306.5Q253 334 271 360.5Q289 387 298.5 414Q308 441 308 470Q308 524 278 551.5Q248 579 182 579Q144 579 106 571.5Q68 564 36 553V647Q74 668 130.5 686Q187 704 251 704Q362 704 423.5 650Q485 596 485 495Q485 454 470.5 416.5Q456 379 429 342.5Q402 306 363 270Q324 234 275 196L178 119V117H378L415 195H501L486 0H12Z" glyph-name="two" horiz-adv-x="532" unicode="2" /><glyph d="M220 -11Q139 -11 103.5 28.5Q68 68 68 137V425L6 442V517L208 537L223 529V181Q223 141 237.5 122.5Q252 104 295 104Q327 104 346.5 110Q366 116 383 124V425L324 442V517L523 537L538 529V103L600 87V14L404 -10L389 -3V54H383Q355 26 315 7.5Q275 -11 220 -11Z" glyph-name="u" horiz-adv-x="617" unicode="u" /><glyph d="M185 637 384 759 439 649 214 574ZM220 -11Q139 -11 103.5 28.5Q68 68 68 137V425L6 442V517L208 537L223 529V181Q223 141 237.5 122.5Q252 104 295 104Q327 104 346.5 110Q366 116 383 124V425L324 442V517L523 537L538 529V103L600 87V14L404 -10L389 -3V54H383Q355 26 315 7.5Q275 -11 220 -11Z" glyph-name="uacute" horiz-adv-x="617" unicode="&#250;" /><glyph d="M147 618 266 748H339L457 618L426 575L302 643L179 575ZM220 -11Q139 -11 103.5 28.5Q68 68 68 137V425L6 442V517L208 537L223 529V181Q223 141 237.5 122.5Q252 104 295 104Q327 104 346.5 110Q366 116 383 124V425L324 442V517L523 537L538 529V103L600 87V14L404 -10L389 -3V54H383Q355 26 315 7.5Q275 -11 220 -11Z" glyph-name="ucircumflex" horiz-adv-x="617" unicode="&#251;" /><glyph d="M204 588Q172 588 149.5 608Q127 628 127 661Q127 695 149.5 714.5Q172 734 204 734Q237 734 260 714.5Q283 695 283 661Q283 628 260 608Q237 588 204 588ZM400 588Q368 588 345 608Q322 628 322 661Q322 695 345 714.5Q368 734 400 734Q432 734 455 714.5Q478 695 478 661Q478 628 455 608Q432 588 400 588ZM220 -11Q139 -11 103.5 28.5Q68 68 68 137V425L6 442V517L208 537L223 529V181Q223 141 237.5 122.5Q252 104 295 104Q327 104 346.5 110Q366 116 383 124V425L324 442V517L523 537L538 529V103L600 87V14L404 -10L389 -3V54H383Q355 26 315 7.5Q275 -11 220 -11Z" glyph-name="udieresis" horiz-adv-x="617" unicode="&#252;" /><glyph d="M220 -11Q139 -11 103.5 28.5Q68 68 68 137V425L6 442V517L208 537L223 529V181Q223 141 237.5 122.5Q252 104 295 104Q327 104 346.5 110Q366 116 383 124V425L324 442V517L523 537L538 529V103L600 87V14L404 -10L389 -3V54H383Q355 26 315 7.5Q275 -11 220 -11ZM166 649 221 759 421 637 392 574Z" glyph-name="ugrave" horiz-adv-x="617" unicode="&#249;" /><glyph d="M-7 -54H340V-144H-7Z" glyph-name="underscore" horiz-adv-x="333" unicode="_" /><glyph glyph-name="uni00A0" horiz-adv-x="179" unicode="&#160;" /><glyph glyph-name="uni2009" horiz-adv-x="79" unicode="&#8201;" /><glyph d="M50 439 3 453V527H265V453L214 442L311 156H315L413 442L361 453V527H572V453L525 439L359 0H217Z" glyph-name="v" horiz-adv-x="577" unicode="v" /><glyph d="M48 439 3 453V527H253V453L203 441L272 187H276L380 527H486L590 187H594L662 441L613 453V527H820V453L775 439L642 0H512L416 325H413L311 0H180Z" glyph-name="w" horiz-adv-x="825" unicode="w" /><glyph d="M13 73 65 87 198 265 72 439 21 453V527H299V453L252 442L329 323H333L409 442L360 453V527H565V453L521 440L395 262L521 87L572 73V0H295V73L344 84L263 203H260L180 84L229 73V0H13Z" glyph-name="x" horiz-adv-x="583" unicode="x" /><glyph d="M157 -202Q132 -202 105.5 -197Q79 -192 64 -185V-90Q81 -94 93 -95.5Q105 -97 118 -97Q153 -97 176 -84.5Q199 -72 213 -39L232 10L52 439L3 453V527H270V453L216 441L317 172H321L410 441L356 453V527H574V453L527 439L336 -62Q310 -132 270.5 -167Q231 -202 157 -202Z" glyph-name="y" horiz-adv-x="579" unicode="y" /><glyph d="M157 -202Q132 -202 105.5 -197Q79 -192 64 -185V-90Q81 -94 93 -95.5Q105 -97 118 -97Q153 -97 176 -84.5Q199 -72 213 -39L232 10L52 439L3 453V527H270V453L216 441L317 172H321L410 441L356 453V527H574V453L527 439L336 -62Q310 -132 270.5 -167Q231 -202 157 -202ZM194 637 393 759 448 649 223 574Z" glyph-name="yacute" horiz-adv-x="579" unicode="&#253;" /><glyph d="M157 -202Q132 -202 105.5 -197Q79 -192 64 -185V-90Q81 -94 93 -95.5Q105 -97 118 -97Q153 -97 176 -84.5Q199 -72 213 -39L232 10L52 439L3 453V527H270V453L216 441L317 172H321L410 441L356 453V527H574V453L527 439L336 -62Q310 -132 270.5 -167Q231 -202 157 -202ZM213 588Q181 588 158.5 608Q136 628 136 661Q136 695 158.5 714.5Q181 734 213 734Q246 734 269 714.5Q292 695 292 661Q292 628 269 608Q246 588 213 588ZM409 588Q377 588 354 608Q331 628 331 661Q331 695 354 714.5Q377 734 409 734Q441 734 464 714.5Q487 695 487 661Q487 628 464 608Q441 588 409 588Z" glyph-name="ydieresis" horiz-adv-x="579" unicode="&#255;" /><glyph d="M78 383H199L60 596L9 614V693H298V614L242 598L351 410H355L457 598L399 614V693H622V614L571 596L439 383H566V309H405V248H566V174H405V97L483 80V0H161V80L239 97V174H78V248H239V309H78Z" glyph-name="yen" horiz-adv-x="631" unicode="&#165;" /><glyph d="M21 82 289 438V442H139L111 350H33L42 527H466V444L204 92V88H358L392 190H472L459 0H21Z" glyph-name="z" horiz-adv-x="496" unicode="z" /><glyph d="M97 710 129 754 252 686 376 754 407 710 289 580H216ZM21 82 289 438V442H139L111 350H33L42 527H466V444L204 92V88H358L392 190H472L459 0H21Z" glyph-name="zcaron" horiz-adv-x="496" unicode="&#158;" /><glyph d="M326 85Q388 85 417 145.5Q446 206 446 340Q446 482 418 544.5Q390 607 326 607Q264 607 234.5 544.5Q205 482 205 350Q205 209 233 147Q261 85 326 85ZM325 -12Q261 -12 206.5 9Q152 30 112.5 73.5Q73 117 50.5 183.5Q28 250 28 342Q28 437 52.5 505.5Q77 574 118 618.5Q159 663 213.5 684Q268 705 328 705Q390 705 444 684Q498 663 537.5 619.5Q577 576 600 509Q623 442 623 349Q623 255 599 187Q575 119 534.5 74.5Q494 30 439.5 9Q385 -12 325 -12Z" glyph-name="zero" horiz-adv-x="651" unicode="0" /></font>
</defs>
</svg>
