<?xml version="1.0" standalone="no"?><!DOCTYPE svg PUBLIC "-//W3C//DTD SVG 1.1//EN" "http://www.w3.org/Graphics/SVG/1.1/DTD/svg11.dtd" ><svg version="1.1" xmlns="http://www.w3.org/2000/svg"><defs><font horiz-adv-x="0" id="font"><font-face ascent="790" bbox="-173 -206 1133 888" cap-height="693" descent="-210" font-family="Guardian EgypTT" font-stretch="normal" font-style="normal" font-weight="300" units-per-em="1000" x-height="511" /><missing-glyph horiz-adv-x="494" /><glyph glyph-name=".null" horiz-adv-x="0" /><glyph d="M-4 32 64 46 294 693H351L577 46L644 32V0H420V32L503 45L442 227H179L116 45L200 32V0H-4ZM193 266H429L314 604H311Z" glyph-name="A" horiz-adv-x="640" unicode="A" /><glyph d="M196 32V0H1V33L63 46L412 654L332 662V693H863L873 530H837L805 651H531V377H684L703 472H736V242H703L684 337H531V42H817L855 186H891L880 0H374V32L463 45V221H216L117 46ZM463 260V646H458L238 260Z" glyph-name="AE" horiz-adv-x="915" unicode="&#198;" /><glyph d="M-4 32 64 46 294 693H351L577 46L644 32V0H420V32L503 45L442 227H179L116 45L200 32V0H-4ZM193 266H429L314 604H311ZM247 728 235 757 413 851 438 797Z" glyph-name="Aacute" horiz-adv-x="640" unicode="&#193;" /><glyph d="M-4 32 64 46 294 693H351L577 46L644 32V0H420V32L503 45L442 227H179L116 45L200 32V0H-4ZM193 266H429L314 604H311ZM193 752 305 841H339L451 752L437 727L322 787L207 727Z" glyph-name="Acircumflex" horiz-adv-x="640" unicode="&#194;" /><glyph d="M-4 32 64 46 294 693H351L577 46L644 32V0H420V32L503 45L442 227H179L116 45L200 32V0H-4ZM193 266H429L314 604H311ZM245 741Q228 741 215.5 753.5Q203 766 203 783Q203 800 215.5 812Q228 824 245 824Q263 824 275 812Q287 800 287 783Q287 766 275 753.5Q263 741 245 741ZM400 741Q382 741 370 753.5Q358 766 358 783Q358 800 370 812Q382 824 400 824Q417 824 429 812Q441 800 441 783Q441 766 429 753.5Q417 741 400 741Z" glyph-name="Adieresis" horiz-adv-x="640" unicode="&#196;" /><glyph d="M-4 32 64 46 294 693H351L577 46L644 32V0H420V32L503 45L442 227H179L116 45L200 32V0H-4ZM193 266H429L314 604H311ZM209 797 234 851 412 757 400 728Z" glyph-name="Agrave" horiz-adv-x="640" unicode="&#192;" /><glyph d="M-4 32 64 46 294 693H351L577 46L644 32V0H420V32L503 45L442 227H179L116 45L200 32V0H-4ZM193 266H429L314 604H311ZM322 753Q345 753 358.5 767.5Q372 782 372 804Q372 827 358.5 842Q345 857 322 857Q299 857 285 842Q271 827 271 804Q271 782 285 767.5Q299 753 322 753ZM322 722Q284 722 260 746Q236 770 236 804Q236 839 260 863.5Q284 888 322 888Q359 888 383.5 863.5Q408 839 408 804Q408 770 383.5 746Q359 722 322 722Z" glyph-name="Aring" horiz-adv-x="640" unicode="&#197;" /><glyph d="M-4 32 64 46 294 693H351L577 46L644 32V0H420V32L503 45L442 227H179L116 45L200 32V0H-4ZM193 266H429L314 604H311ZM184 752Q200 790 221 811Q242 832 270 832Q285 832 299.5 826.5Q314 821 327.5 815Q341 809 353 803.5Q365 798 376 798Q392 798 404 807Q416 816 429 839L459 825Q428 746 373 746Q358 746 344 751.5Q330 757 316.5 763Q303 769 290.5 774.5Q278 780 267 780Q252 780 239.5 771Q227 762 214 739Z" glyph-name="Atilde" horiz-adv-x="640" unicode="&#195;" /><glyph d="M27 32 116 45V649L27 662V693H300Q412 693 471 653.5Q530 614 530 523Q530 496 523 470.5Q516 445 500.5 424Q485 403 460.5 387.5Q436 372 401 365V362Q490 348 528.5 305Q567 262 567 185Q567 100 505.5 50Q444 0 330 0H27ZM319 43Q404 43 449 77.5Q494 112 494 190Q494 272 448.5 306Q403 340 320 340H185V43ZM306 379Q340 379 367.5 386Q395 393 415 408.5Q435 424 446 449.5Q457 475 457 511Q457 554 445.5 581.5Q434 609 413 624.5Q392 640 362 645.5Q332 651 294 651H185V379Z" glyph-name="B" horiz-adv-x="598" unicode="B" /><glyph d="M354 -12Q279 -12 220 9Q161 30 120 74Q79 118 57 184.5Q35 251 35 343Q35 440 60.5 509Q86 578 130 621.5Q174 665 233.5 685Q293 705 361 705Q430 705 475 696Q520 687 551 676L557 518H522L492 635Q470 645 435 654Q400 663 355 663Q230 663 169.5 582Q109 501 109 355Q109 198 169.5 115Q230 32 361 32Q406 32 439 41Q472 50 497 62L527 186H563L557 24Q521 9 473.5 -1.5Q426 -12 354 -12Z" glyph-name="C" horiz-adv-x="602" unicode="C" /><glyph d="M262 -176Q322 -168 345.5 -156Q369 -144 369 -122Q369 -102 349.5 -94Q330 -86 284 -86V-7Q166 11 100.5 96.5Q35 182 35 343Q35 440 60.5 509Q86 578 130 621.5Q174 665 233.5 685Q293 705 361 705Q430 705 475 696Q520 687 551 676L557 518H522L492 635Q470 645 435 654Q400 663 355 663Q230 663 169.5 582Q109 501 109 355Q109 198 169.5 115Q230 32 361 32Q406 32 439 41Q472 50 497 62L527 186H563L557 24Q521 9 473.5 -1.5Q426 -12 354 -12Q345 -12 336.5 -11.5Q328 -11 320 -10V-49Q371 -51 398.5 -68Q426 -85 426 -118Q426 -153 388 -176.5Q350 -200 262 -206Z" glyph-name="Ccedilla" horiz-adv-x="602" unicode="&#199;" /><glyph d="M24 32 113 45V648L25 662V693H289Q382 693 447 671Q512 649 552.5 606Q593 563 611 501Q629 439 629 359Q629 273 610.5 206Q592 139 552 93Q512 47 449.5 23.5Q387 0 299 0H24ZM298 42Q364 42 412 58Q460 74 492 110.5Q524 147 539.5 205.5Q555 264 555 349Q555 442 537.5 500.5Q520 559 485.5 592.5Q451 626 399.5 638.5Q348 651 280 651H182V42Z" glyph-name="D" horiz-adv-x="663" unicode="D" /><glyph d="M24 32 113 45V648L25 662V693H524L534 530H498L466 651H182V377H345L364 472H397V242H364L345 337H182V42H478L516 186H552L541 0H24Z" glyph-name="E" horiz-adv-x="577" unicode="E" /><glyph d="M230 728 218 757 396 851 421 797ZM24 32 113 45V648L25 662V693H524L534 530H498L466 651H182V377H345L364 472H397V242H364L345 337H182V42H478L516 186H552L541 0H24Z" glyph-name="Eacute" horiz-adv-x="577" unicode="&#201;" /><glyph d="M175 752 287 841H321L433 752L419 727L304 787L189 727ZM24 32 113 45V648L25 662V693H524L534 530H498L466 651H182V377H345L364 472H397V242H364L345 337H182V42H478L516 186H552L541 0H24Z" glyph-name="Ecircumflex" horiz-adv-x="577" unicode="&#202;" /><glyph d="M24 32 113 45V648L25 662V693H524L534 530H498L466 651H182V377H345L364 472H397V242H364L345 337H182V42H478L516 186H552L541 0H24ZM225 741Q208 741 195.5 753.5Q183 766 183 783Q183 800 195.5 812Q208 824 225 824Q243 824 255 812Q267 800 267 783Q267 766 255 753.5Q243 741 225 741ZM380 741Q362 741 350 753.5Q338 766 338 783Q338 800 350 812Q362 824 380 824Q397 824 409 812Q421 800 421 783Q421 766 409 753.5Q397 741 380 741Z" glyph-name="Edieresis" horiz-adv-x="577" unicode="&#203;" /><glyph d="M191 797 216 851 394 757 382 728ZM24 32 113 45V648L25 662V693H524L534 530H498L466 651H182V377H345L364 472H397V242H364L345 337H182V42H478L516 186H552L541 0H24Z" glyph-name="Egrave" horiz-adv-x="577" unicode="&#200;" /><glyph d="M26 371H111V648L23 662V693H287Q380 693 445 671Q510 649 550.5 606Q591 563 609 501Q627 439 627 359Q627 273 608.5 206Q590 139 550 93Q510 47 447.5 23.5Q385 0 297 0H22V32L111 45V326H26ZM297 42Q362 42 410.5 58Q459 74 490.5 110.5Q522 147 537.5 205.5Q553 264 553 349Q553 442 536 500.5Q519 559 484.5 592.5Q450 626 398.5 638.5Q347 651 279 651H181V371H363V326H181V42Z" glyph-name="Eth" horiz-adv-x="663" unicode="&#208;" /><glyph d="M24 420H102Q111 500 138.5 554.5Q166 609 205.5 642Q245 675 293 689.5Q341 704 391 704Q440 704 476 697Q512 690 545 678L550 530H516L487 640Q466 651 441.5 656.5Q417 662 383 662Q294 662 238 603.5Q182 545 170 420H406V381H167V353Q167 339 167 329Q167 319 168 299H406V260H171Q178 198 196 155.5Q214 113 242 87Q270 61 307.5 49Q345 37 393 37Q447 37 489.5 50Q532 63 555 74V38Q529 21 486.5 5Q444 -11 381 -11Q325 -11 278 4Q231 19 194.5 51Q158 83 134.5 134.5Q111 186 102 260H24V299H99Q98 314 98 322Q98 330 98 341Q98 352 98 360.5Q98 369 99 381H24Z" glyph-name="Euro" horiz-adv-x="600" unicode="&#8364;" /><glyph d="M24 32 113 45V648L25 662V693H528L538 526H502L470 651H182V366H344L361 460H395V230H361L344 326H182V45L283 32V0H24Z" glyph-name="F" horiz-adv-x="565" unicode="F" /><glyph d="M369 -12Q290 -12 228 9Q166 30 123 74Q80 118 57.5 184.5Q35 251 35 343Q35 440 61 509Q87 578 132 621.5Q177 665 237.5 685Q298 705 366 705Q438 705 485 696.5Q532 688 563 676L571 520H536L506 633Q480 647 445 655Q410 663 359 663Q297 663 250.5 642Q204 621 172.5 581.5Q141 542 125 485Q109 428 109 355Q109 198 171.5 114.5Q234 31 366 31Q408 31 440 38Q472 45 499 54V259L404 272V303H646V272L569 259V20Q528 6 480 -3Q432 -12 369 -12Z" glyph-name="G" horiz-adv-x="660" unicode="G" /><glyph d="M24 32 112 45V648L24 662V693H273V662L182 648V376H536V648L444 662V693H694V662L606 648V45L694 32V0H444V32L536 45V337H182V45L273 32V0H24Z" glyph-name="H" horiz-adv-x="716" unicode="H" /><glyph d="M24 32 114 45V649L24 662V693H272V662L183 649V45L272 32V0H24Z" glyph-name="I" horiz-adv-x="296" unicode="I" /><glyph d="M24 32 114 45V649L24 662V693H272V662L183 649V45L272 32V0H24ZM70 728 58 757 236 851 261 797Z" glyph-name="Iacute" horiz-adv-x="296" unicode="&#205;" /><glyph d="M24 32 114 45V649L24 662V693H272V662L183 649V45L272 32V0H24ZM19 752 131 841H165L277 752L263 727L148 787L33 727Z" glyph-name="Icircumflex" horiz-adv-x="296" unicode="&#206;" /><glyph d="M24 32 114 45V649L24 662V693H272V662L183 649V45L272 32V0H24ZM71 741Q54 741 41.5 753.5Q29 766 29 783Q29 800 41.5 812Q54 824 71 824Q89 824 101 812Q113 800 113 783Q113 766 101 753.5Q89 741 71 741ZM226 741Q208 741 196 753.5Q184 766 184 783Q184 800 196 812Q208 824 226 824Q243 824 255 812Q267 800 267 783Q267 766 255 753.5Q243 741 226 741Z" glyph-name="Idieresis" horiz-adv-x="296" unicode="&#207;" /><glyph d="M24 32 114 45V649L24 662V693H272V662L183 649V45L272 32V0H24ZM35 797 60 851 238 757 226 728Z" glyph-name="Igrave" horiz-adv-x="296" unicode="&#204;" /><glyph d="M123 -8Q85 -8 57 -0.5Q29 7 9 17V58Q34 50 58 44.5Q82 39 114 39Q171 39 196 67Q221 95 221 158V648L131 662V693H378V662L290 648V151Q290 77 249.5 34.5Q209 -8 123 -8Z" glyph-name="J" horiz-adv-x="389" unicode="J" /><glyph d="M231 332V349L484 649L412 662V693H611V662L546 649L295 358L546 45L623 32V0H495ZM24 32 112 45V649L24 662V693H276V662L182 649V45L276 32V0H24Z" glyph-name="K" horiz-adv-x="636" unicode="K" /><glyph d="M24 32 112 45V649L24 662V693H276V662L182 649V305L485 649L413 662V693H611V662L546 649L313 389L554 45L630 32V0H503L266 339L182 256V45L276 32V0H24Z" glyph-name="K.alt" horiz-adv-x="641" /><glyph d="M24 32 112 45V649L24 662V693H279V662L182 649V42H455L490 197H526L514 0H24Z" glyph-name="L" horiz-adv-x="545" unicode="L" /><glyph d="M29 269 112 306V649L24 662V693H279V662L182 649V337L390 432V387L182 291V42H455L490 197H526L514 0H24V32L112 45V261L29 224Z" glyph-name="Lslash" horiz-adv-x="545" unicode="&#321;" /><glyph d="M24 31 113 45V649L24 662V693H215L418 144H421L627 693H824V662L731 649V45L824 32V0H578V32L662 45V640H660L432 38H390L167 640H164V45L249 32V0H24Z" glyph-name="M" horiz-adv-x="848" unicode="M" /><glyph d="M24 31 113 45V648L24 662V693H207L552 123H555V648L464 662V693H687V662L606 648V0H549L167 634H164V45L259 31V0H24Z" glyph-name="N" horiz-adv-x="703" unicode="N" /><glyph d="M234 752Q250 790 271 811Q292 832 320 832Q335 832 349.5 826.5Q364 821 377.5 815Q391 809 403 803.5Q415 798 426 798Q442 798 454 807Q466 816 479 839L509 825Q478 746 423 746Q408 746 394 751.5Q380 757 366.5 763Q353 769 340.5 774.5Q328 780 317 780Q302 780 289.5 771Q277 762 264 739ZM24 31 113 45V648L24 662V693H207L552 123H555V648L464 662V693H687V662L606 648V0H549L167 634H164V45L259 31V0H24Z" glyph-name="Ntilde" horiz-adv-x="703" unicode="&#209;" /><glyph d="M340 32Q394 32 437 53.5Q480 75 509.5 115Q539 155 554.5 212Q570 269 570 340Q570 501 508.5 581.5Q447 662 338 662Q283 662 240.5 640.5Q198 619 168.5 579Q139 539 124 482Q109 425 109 354Q109 202 166.5 117Q224 32 340 32ZM339 -11Q274 -11 218.5 12.5Q163 36 122 81.5Q81 127 58 193.5Q35 260 35 347Q35 438 60 505Q85 572 127.5 616Q170 660 225.5 682Q281 704 341 704Q405 704 460.5 681Q516 658 557 613Q598 568 621 501.5Q644 435 644 349Q644 258 619 190.5Q594 123 551.5 78Q509 33 454 11Q399 -11 339 -11Z" glyph-name="O" horiz-adv-x="682" unicode="O" /><glyph d="M381 0Q287 0 221 22Q155 44 114 87Q73 130 54 192Q35 254 35 334Q35 420 54 487Q73 554 114 599.5Q155 645 218.5 669Q282 693 371 693H870L880 530H844L812 651H538V376H692L710 472H743V242H710L692 338H538V42H824L862 186H898L887 0ZM372 651Q306 651 256.5 635Q207 619 174 582.5Q141 546 125 487.5Q109 429 109 345Q109 252 127 193Q145 134 180 100.5Q215 67 268 54.5Q321 42 390 42H469V651Z" glyph-name="OE" horiz-adv-x="918" unicode="&#338;" /><glyph d="M265 728 253 757 431 851 456 797ZM340 32Q394 32 437 53.5Q480 75 509.5 115Q539 155 554.5 212Q570 269 570 340Q570 501 508.5 581.5Q447 662 338 662Q283 662 240.5 640.5Q198 619 168.5 579Q139 539 124 482Q109 425 109 354Q109 202 166.5 117Q224 32 340 32ZM339 -11Q274 -11 218.5 12.5Q163 36 122 81.5Q81 127 58 193.5Q35 260 35 347Q35 438 60 505Q85 572 127.5 616Q170 660 225.5 682Q281 704 341 704Q405 704 460.5 681Q516 658 557 613Q598 568 621 501.5Q644 435 644 349Q644 258 619 190.5Q594 123 551.5 78Q509 33 454 11Q399 -11 339 -11Z" glyph-name="Oacute" horiz-adv-x="682" unicode="&#211;" /><glyph d="M210 752 322 841H356L468 752L454 727L339 787L224 727ZM340 32Q394 32 437 53.5Q480 75 509.5 115Q539 155 554.5 212Q570 269 570 340Q570 501 508.5 581.5Q447 662 338 662Q283 662 240.5 640.5Q198 619 168.5 579Q139 539 124 482Q109 425 109 354Q109 202 166.5 117Q224 32 340 32ZM339 -11Q274 -11 218.5 12.5Q163 36 122 81.5Q81 127 58 193.5Q35 260 35 347Q35 438 60 505Q85 572 127.5 616Q170 660 225.5 682Q281 704 341 704Q405 704 460.5 681Q516 658 557 613Q598 568 621 501.5Q644 435 644 349Q644 258 619 190.5Q594 123 551.5 78Q509 33 454 11Q399 -11 339 -11Z" glyph-name="Ocircumflex" horiz-adv-x="682" unicode="&#212;" /><glyph d="M262 741Q245 741 232.5 753.5Q220 766 220 783Q220 800 232.5 812Q245 824 262 824Q280 824 292 812Q304 800 304 783Q304 766 292 753.5Q280 741 262 741ZM417 741Q399 741 387 753.5Q375 766 375 783Q375 800 387 812Q399 824 417 824Q434 824 446 812Q458 800 458 783Q458 766 446 753.5Q434 741 417 741ZM340 32Q394 32 437 53.5Q480 75 509.5 115Q539 155 554.5 212Q570 269 570 340Q570 501 508.5 581.5Q447 662 338 662Q283 662 240.5 640.5Q198 619 168.5 579Q139 539 124 482Q109 425 109 354Q109 202 166.5 117Q224 32 340 32ZM339 -11Q274 -11 218.5 12.5Q163 36 122 81.5Q81 127 58 193.5Q35 260 35 347Q35 438 60 505Q85 572 127.5 616Q170 660 225.5 682Q281 704 341 704Q405 704 460.5 681Q516 658 557 613Q598 568 621 501.5Q644 435 644 349Q644 258 619 190.5Q594 123 551.5 78Q509 33 454 11Q399 -11 339 -11Z" glyph-name="Odieresis" horiz-adv-x="682" unicode="&#214;" /><glyph d="M226 797 251 851 429 757 417 728ZM340 32Q394 32 437 53.5Q480 75 509.5 115Q539 155 554.5 212Q570 269 570 340Q570 501 508.5 581.5Q447 662 338 662Q283 662 240.5 640.5Q198 619 168.5 579Q139 539 124 482Q109 425 109 354Q109 202 166.5 117Q224 32 340 32ZM339 -11Q274 -11 218.5 12.5Q163 36 122 81.5Q81 127 58 193.5Q35 260 35 347Q35 438 60 505Q85 572 127.5 616Q170 660 225.5 682Q281 704 341 704Q405 704 460.5 681Q516 658 557 613Q598 568 621 501.5Q644 435 644 349Q644 258 619 190.5Q594 123 551.5 78Q509 33 454 11Q399 -11 339 -11Z" glyph-name="Ograve" horiz-adv-x="682" unicode="&#210;" /><glyph d="M36 9 108 98Q73 143 54 205.5Q35 268 35 347Q35 438 60 505Q85 572 127.5 616Q170 660 225.5 682Q281 704 341 704Q457 704 538 632L597 705L630 679L567 601Q603 556 623.5 493Q644 430 644 349Q644 258 619 190.5Q594 123 551.5 78Q509 33 454 11Q399 -11 339 -11Q279 -11 228 8.5Q177 28 137 66L69 -18ZM340 32Q394 32 437 53.5Q480 75 509.5 115Q539 155 554.5 212Q570 269 570 340Q570 473 528 553L171 108Q200 71 241.5 51.5Q283 32 340 32ZM109 354Q109 224 147 147L504 589Q445 662 338 662Q283 662 240.5 640.5Q198 619 168.5 579Q139 539 124 482Q109 425 109 354Z" glyph-name="Oslash" horiz-adv-x="682" unicode="&#216;" /><glyph d="M202 752Q218 790 239 811Q260 832 288 832Q303 832 317.5 826.5Q332 821 345.5 815Q359 809 371 803.5Q383 798 394 798Q410 798 422 807Q434 816 447 839L477 825Q446 746 391 746Q376 746 362 751.5Q348 757 334.5 763Q321 769 308.5 774.5Q296 780 285 780Q270 780 257.5 771Q245 762 232 739ZM340 32Q394 32 437 53.5Q480 75 509.5 115Q539 155 554.5 212Q570 269 570 340Q570 501 508.5 581.5Q447 662 338 662Q283 662 240.5 640.5Q198 619 168.5 579Q139 539 124 482Q109 425 109 354Q109 202 166.5 117Q224 32 340 32ZM339 -11Q274 -11 218.5 12.5Q163 36 122 81.5Q81 127 58 193.5Q35 260 35 347Q35 438 60 505Q85 572 127.5 616Q170 660 225.5 682Q281 704 341 704Q405 704 460.5 681Q516 658 557 613Q598 568 621 501.5Q644 435 644 349Q644 258 619 190.5Q594 123 551.5 78Q509 33 454 11Q399 -11 339 -11Z" glyph-name="Otilde" horiz-adv-x="682" unicode="&#213;" /><glyph d="M24 32 112 45V649L24 662V693H285Q353 693 399.5 679.5Q446 666 474.5 641.5Q503 617 515.5 581.5Q528 546 528 501Q528 449 511.5 412Q495 375 466 351Q437 327 398 316Q359 305 314 305Q288 305 265.5 308Q243 311 234 313V346Q244 344 261 343Q278 342 303 342Q378 342 417 380Q456 418 456 496Q456 575 419.5 612Q383 649 294 649H182V45L285 32V0H24Z" glyph-name="P" horiz-adv-x="545" unicode="P" /><glyph d="M24 32 112 45V649L24 662V693H281Q350 693 396.5 679.5Q443 666 471.5 641Q500 616 512.5 580.5Q525 545 525 500Q525 395 465 347.5Q405 300 296 300Q265 300 235.5 303.5Q206 307 182 312V45L285 32V0H24ZM182 348Q203 344 230 342Q257 340 286 340Q376 340 414 378Q452 416 452 495Q452 574 416 611.5Q380 649 290 649H182Z" glyph-name="P.alt" horiz-adv-x="545" /><glyph d="M267 -5Q222 8 180 33.5Q138 59 106 101Q74 143 54.5 203.5Q35 264 35 347Q35 438 60 505Q85 572 127.5 616Q170 660 225.5 682Q281 704 341 704Q405 704 460.5 681Q516 658 557 613Q598 568 621 501.5Q644 435 644 349Q644 271 625.5 211Q607 151 574.5 108.5Q542 66 498.5 40Q455 14 405 5V3L672 -53L656 -114ZM340 32Q394 32 437 53.5Q480 75 509.5 115Q539 155 554.5 212Q570 269 570 340Q570 501 508.5 581.5Q447 662 338 662Q283 662 240.5 640.5Q198 619 168.5 579Q139 539 124 482Q109 425 109 354Q109 202 166.5 117Q224 32 340 32Z" glyph-name="Q" horiz-adv-x="682" unicode="Q" /><glyph d="M24 32 114 45V648L26 662V693H303Q366 693 409.5 680.5Q453 668 481 644Q509 620 521.5 586Q534 552 534 509Q534 436 494 393.5Q454 351 385 335V332L553 45L625 31V0H500L317 319H183V45L270 32V0H24ZM306 359Q349 359 378.5 370.5Q408 382 426.5 402Q445 422 453.5 449Q462 476 462 508Q462 543 454 569.5Q446 596 427 613.5Q408 631 377 640Q346 649 300 649H183V359Z" glyph-name="R" horiz-adv-x="623" unicode="R" /><glyph d="M399 342Q429 337 453 328.5Q477 320 493.5 304.5Q510 289 519 265Q528 241 528 207V98Q528 59 545 48Q562 37 592 37H612Q617 37 623 38V8Q615 3 598.5 -2Q582 -7 559 -7Q538 -7 519.5 -2Q501 3 487.5 15Q474 27 466 47Q458 67 458 98V211Q458 241 451 261.5Q444 282 426.5 295Q409 308 380.5 313.5Q352 319 310 319H183V45L270 32V0H24V32L114 45V648L26 662V693H289Q356 693 402.5 680.5Q449 668 477.5 645Q506 622 518.5 588Q531 554 531 512Q531 442 495.5 400.5Q460 359 399 345ZM311 358Q392 358 426 398Q460 438 460 510Q460 545 452 571Q444 597 425 614.5Q406 632 375 640.5Q344 649 298 649H183V358Z" glyph-name="R.alt" horiz-adv-x="634" /><glyph d="M246 -11Q186 -11 137 0Q88 11 53 26L47 173H83L106 67Q135 53 168 43Q201 33 250 33Q336 33 375.5 72Q415 111 415 169Q415 200 406.5 222.5Q398 245 381 262Q364 279 337.5 293Q311 307 274 321L210 347Q176 360 148.5 376Q121 392 101.5 413.5Q82 435 71 463.5Q60 492 60 530Q60 566 72.5 597.5Q85 629 111 653Q137 677 177 691Q217 705 273 705Q330 705 369.5 696.5Q409 688 440 677L446 541H411L390 634Q375 642 345.5 651.5Q316 661 268 661Q196 661 158.5 631Q121 601 121 544Q121 493 149.5 462.5Q178 432 245 406L308 381Q347 366 378.5 350Q410 334 432.5 311.5Q455 289 467 258.5Q479 228 479 185Q479 146 466 110.5Q453 75 425 48Q397 21 353 5Q309 -11 246 -11Z" glyph-name="S" horiz-adv-x="519" unicode="S" /><glyph d="M401 823 289 733H255L143 823L157 847L272 788L387 847ZM246 -11Q186 -11 137 0Q88 11 53 26L47 173H83L106 67Q135 53 168 43Q201 33 250 33Q336 33 375.5 72Q415 111 415 169Q415 200 406.5 222.5Q398 245 381 262Q364 279 337.5 293Q311 307 274 321L210 347Q176 360 148.5 376Q121 392 101.5 413.5Q82 435 71 463.5Q60 492 60 530Q60 566 72.5 597.5Q85 629 111 653Q137 677 177 691Q217 705 273 705Q330 705 369.5 696.5Q409 688 440 677L446 541H411L390 634Q375 642 345.5 651.5Q316 661 268 661Q196 661 158.5 631Q121 601 121 544Q121 493 149.5 462.5Q178 432 245 406L308 381Q347 366 378.5 350Q410 334 432.5 311.5Q455 289 467 258.5Q479 228 479 185Q479 146 466 110.5Q453 75 425 48Q397 21 353 5Q309 -11 246 -11Z" glyph-name="Scaron" horiz-adv-x="519" unicode="&#352;" /><glyph d="M163 32 256 45V651H76L48 512H12L22 693H561L570 512H534L507 651H326V45L420 32V0H163Z" glyph-name="T" horiz-adv-x="583" unicode="T" /><glyph d="M24 32 112 45V648L24 662V693H273V662L182 648V551H290Q357 551 403 537.5Q449 524 476.5 500Q504 476 516 442Q528 408 528 367Q528 320 511.5 285Q495 250 466 227Q437 204 398 193Q359 182 314 182Q288 182 265.5 184.5Q243 187 234 189V223Q244 221 261 220Q278 219 303 219Q378 219 417 256.5Q456 294 456 363Q456 436 421 471Q386 506 297 506H182V45L285 32V0H24Z" glyph-name="Thorn" horiz-adv-x="554" unicode="&#222;" /><glyph d="M24 32 112 45V648L24 662V693H273V662L182 648V546H283Q352 546 398 533Q444 520 472 496.5Q500 473 512 439.5Q524 406 524 365Q524 271 464 224Q404 177 297 177Q266 177 238.5 179.5Q211 182 182 188V45L285 32V0H24ZM182 225Q207 221 232.5 219Q258 217 287 217Q376 217 414 254Q452 291 452 360Q452 432 416 466.5Q380 501 291 501H182Z" glyph-name="Thorn.alt" horiz-adv-x="551" /><glyph d="M346 -12Q221 -12 158 47.5Q95 107 95 213V649L9 662V693H256V662L165 649V223Q165 126 213.5 80.5Q262 35 354 35Q446 35 492.5 80Q539 125 539 223V648L450 661V693H668V662L590 649V219Q590 110 528 49Q466 -12 346 -12Z" glyph-name="U" horiz-adv-x="677" unicode="U" /><glyph d="M284 728 272 757 450 851 475 797ZM346 -12Q221 -12 158 47.5Q95 107 95 213V649L9 662V693H256V662L165 649V223Q165 126 213.5 80.5Q262 35 354 35Q446 35 492.5 80Q539 125 539 223V648L450 661V693H668V662L590 649V219Q590 110 528 49Q466 -12 346 -12Z" glyph-name="Uacute" horiz-adv-x="677" unicode="&#218;" /><glyph d="M230 752 342 841H376L488 752L474 727L359 787L244 727ZM346 -12Q221 -12 158 47.5Q95 107 95 213V649L9 662V693H256V662L165 649V223Q165 126 213.5 80.5Q262 35 354 35Q446 35 492.5 80Q539 125 539 223V648L450 661V693H668V662L590 649V219Q590 110 528 49Q466 -12 346 -12Z" glyph-name="Ucircumflex" horiz-adv-x="677" unicode="&#219;" /><glyph d="M346 -12Q221 -12 158 47.5Q95 107 95 213V649L9 662V693H256V662L165 649V223Q165 126 213.5 80.5Q262 35 354 35Q446 35 492.5 80Q539 125 539 223V648L450 661V693H668V662L590 649V219Q590 110 528 49Q466 -12 346 -12ZM282 741Q265 741 252.5 753.5Q240 766 240 783Q240 800 252.5 812Q265 824 282 824Q300 824 312 812Q324 800 324 783Q324 766 312 753.5Q300 741 282 741ZM437 741Q419 741 407 753.5Q395 766 395 783Q395 800 407 812Q419 824 437 824Q454 824 466 812Q478 800 478 783Q478 766 466 753.5Q454 741 437 741Z" glyph-name="Udieresis" horiz-adv-x="677" unicode="&#220;" /><glyph d="M246 797 271 851 449 757 437 728ZM346 -12Q221 -12 158 47.5Q95 107 95 213V649L9 662V693H256V662L165 649V223Q165 126 213.5 80.5Q262 35 354 35Q446 35 492.5 80Q539 125 539 223V648L450 661V693H668V662L590 649V219Q590 110 528 49Q466 -12 346 -12Z" glyph-name="Ugrave" horiz-adv-x="677" unicode="&#217;" /><glyph d="M66 648 2 662V693H223V662L140 648L328 92H331L522 648L439 662V693H639V662L575 648L348 0H293Z" glyph-name="V" horiz-adv-x="635" unicode="V" /><glyph d="M65 648 4 662V693H214V662L134 648L273 108H277L442 693H486L652 108H655L792 648L712 662V693H911V662L845 648L674 0H618L458 571H455L292 0H235Z" glyph-name="W" horiz-adv-x="919" unicode="W" /><glyph d="M21 32 96 45 298 357 113 649 37 662V693H270V662L193 649L346 400L499 649L418 662V693H628V662L553 649L372 361L576 45L651 32V0H420V32L499 45L324 320L151 45L232 31V0H21Z" glyph-name="X" horiz-adv-x="671" unicode="X" /><glyph d="M182 32 271 45V310L66 648L4 662V693H215V662L140 648L316 354H319L487 648L409 662V693H599V662L538 648L340 309V45L428 32V0H182Z" glyph-name="Y" horiz-adv-x="605" unicode="Y" /><glyph d="M182 32 271 45V310L66 648L4 662V693H215V662L140 648L316 354H319L487 648L409 662V693H599V662L538 648L340 309V45L428 32V0H182ZM239 728 227 757 405 851 430 797Z" glyph-name="Yacute" horiz-adv-x="605" unicode="&#221;" /><glyph d="M182 32 271 45V310L66 648L4 662V693H215V662L140 648L316 354H319L487 648L409 662V693H599V662L538 648L340 309V45L428 32V0H182ZM236 741Q219 741 206.5 753.5Q194 766 194 783Q194 800 206.5 812Q219 824 236 824Q254 824 266 812Q278 800 278 783Q278 766 266 753.5Q254 741 236 741ZM391 741Q373 741 361 753.5Q349 766 349 783Q349 800 361 812Q373 824 391 824Q408 824 420 812Q432 800 432 783Q432 766 420 753.5Q408 741 391 741Z" glyph-name="Ydieresis" horiz-adv-x="605" unicode="&#376;" /><glyph d="M17 35 430 647V650H106L76 513H39L48 693H514V658L101 47V43H447L479 179H515L506 0H17Z" glyph-name="Z" horiz-adv-x="534" unicode="Z" /><glyph d="M403 823 291 733H257L145 823L159 847L274 788L389 847ZM17 35 430 647V650H106L76 513H39L48 693H514V658L101 47V43H447L479 179H515L506 0H17Z" glyph-name="Zcaron" horiz-adv-x="534" unicode="&#142;" /><glyph d="M178 -11Q108 -11 66 26Q24 63 24 127Q24 192 66.5 223Q109 254 180 265L319 287V354Q319 385 314.5 407Q310 429 297 443Q284 457 262 463Q240 469 204 469Q167 469 130 464Q93 459 63 451V485Q92 498 137 509Q182 520 230 520Q309 520 346.5 484Q384 448 384 371V75Q384 47 397.5 38.5Q411 30 434 30Q438 30 449 30.5Q460 31 462 32V5Q454 0 436 -4Q418 -8 397 -8Q333 -8 326 49H322Q298 23 262.5 6Q227 -11 178 -11ZM199 35Q236 35 268 49.5Q300 64 319 85V242L200 233Q138 228 114 202.5Q90 177 90 134Q90 86 117 60.5Q144 35 199 35Z" glyph-name="a" horiz-adv-x="467" unicode="a" /><glyph d="M178 -11Q108 -11 66 26Q24 63 24 127Q24 192 66.5 223Q109 254 180 265L319 287V355Q319 386 314.5 409Q310 432 297 447Q284 462 260.5 469.5Q237 477 200 477Q156 477 115 466L101 380H61V492Q91 503 135.5 511.5Q180 520 228 520Q310 520 347 483.5Q384 447 384 372V75Q384 47 397.5 38.5Q411 30 434 30Q438 30 449 30.5Q460 31 462 32V5Q454 0 436 -4Q418 -8 397 -8Q333 -8 326 49H322Q298 23 262.5 6Q227 -11 178 -11ZM199 35Q236 35 268 49.5Q300 64 319 85V242L200 233Q138 228 114 202.5Q90 177 90 134Q90 86 117 60.5Q144 35 199 35Z" glyph-name="a.alt" horiz-adv-x="467" /><glyph d="M178 -11Q108 -11 66 26Q24 63 24 127Q24 192 66.5 223Q109 254 180 265L319 287V354Q319 385 314.5 407Q310 429 297 443Q284 457 262 463Q240 469 204 469Q167 469 130 464Q93 459 63 451V485Q92 498 137 509Q182 520 230 520Q309 520 346.5 484Q384 448 384 371V75Q384 47 397.5 38.5Q411 30 434 30Q438 30 449 30.5Q460 31 462 32V5Q454 0 436 -4Q418 -8 397 -8Q333 -8 326 49H322Q298 23 262.5 6Q227 -11 178 -11ZM199 35Q236 35 268 49.5Q300 64 319 85V242L200 233Q138 228 114 202.5Q90 177 90 134Q90 86 117 60.5Q144 35 199 35ZM146 608 312 722 343 672 161 581Z" glyph-name="aacute" horiz-adv-x="467" unicode="&#225;" /><glyph d="M178 -11Q108 -11 66 26Q24 63 24 127Q24 192 66.5 223Q109 254 180 265L319 287V354Q319 385 314.5 407Q310 429 297 443Q284 457 262 463Q240 469 204 469Q167 469 130 464Q93 459 63 451V485Q92 498 137 509Q182 520 230 520Q309 520 346.5 484Q384 448 384 371V75Q384 47 397.5 38.5Q411 30 434 30Q438 30 449 30.5Q460 31 462 32V5Q454 0 436 -4Q418 -8 397 -8Q333 -8 326 49H322Q298 23 262.5 6Q227 -11 178 -11ZM199 35Q236 35 268 49.5Q300 64 319 85V242L200 233Q138 228 114 202.5Q90 177 90 134Q90 86 117 60.5Q144 35 199 35ZM102 609 214 722H248L360 609L343 587L231 667L120 587Z" glyph-name="acircumflex" horiz-adv-x="467" unicode="&#226;" /><glyph d="M154 608 320 722 351 672 169 581Z" glyph-name="acute" horiz-adv-x="489" unicode="&#180;" /><glyph d="M241 591 314 749 369 716 273 576Z" glyph-name="acute.pl" horiz-adv-x="489" /><glyph d="M165 728 153 757 331 851 356 797Z" glyph-name="acute.uc" horiz-adv-x="489" /><glyph d="M230 743 294 881 348 849 266 728Z" glyph-name="acute.ucpl" horiz-adv-x="489" /><glyph d="M178 -11Q108 -11 66 26Q24 63 24 127Q24 192 66.5 223Q109 254 180 265L319 287V354Q319 385 314.5 407Q310 429 297 443Q284 457 262 463Q240 469 204 469Q167 469 130 464Q93 459 63 451V485Q92 498 137 509Q182 520 230 520Q309 520 346.5 484Q384 448 384 371V75Q384 47 397.5 38.5Q411 30 434 30Q438 30 449 30.5Q460 31 462 32V5Q454 0 436 -4Q418 -8 397 -8Q333 -8 326 49H322Q298 23 262.5 6Q227 -11 178 -11ZM199 35Q236 35 268 49.5Q300 64 319 85V242L200 233Q138 228 114 202.5Q90 177 90 134Q90 86 117 60.5Q144 35 199 35ZM154 619Q137 619 125 631.5Q113 644 113 660Q113 677 125 689.5Q137 702 154 702Q172 702 184 689.5Q196 677 196 660Q196 644 184 631.5Q172 619 154 619ZM306 619Q289 619 276.5 631.5Q264 644 264 660Q264 677 276.5 689.5Q289 702 306 702Q324 702 336 689.5Q348 677 348 660Q348 644 336 631.5Q324 619 306 619Z" glyph-name="adieresis" horiz-adv-x="467" unicode="&#228;" /><glyph d="M177 -11Q107 -11 65.5 27Q24 65 24 128Q24 194 66 228Q108 262 180 273L319 293V354Q319 385 314 407Q309 429 296 443Q283 457 260 463Q237 469 200 469Q164 469 129 464Q94 459 62 451V485Q92 498 136.5 509Q181 520 229 520Q347 520 368 426Q397 471 440.5 495.5Q484 520 539 520Q643 520 691.5 451.5Q740 383 740 259H384Q384 152 427 95Q470 38 568 38Q624 38 658 48Q692 58 719 69V35Q695 21 656.5 5.5Q618 -10 556 -10Q483 -10 435.5 14.5Q388 39 361 81Q348 63 329 46.5Q310 30 286.5 17.5Q263 5 235 -3Q207 -11 177 -11ZM345 110Q331 139 324.5 174.5Q318 210 317 249L199 240Q138 235 114 207Q90 179 90 136Q90 88 117 61.5Q144 35 199 35Q240 35 278 55Q316 75 345 110ZM668 303Q667 394 634 436.5Q601 479 535 479Q466 479 428 432.5Q390 386 384 297Z" glyph-name="ae" horiz-adv-x="767" unicode="&#230;" /><glyph d="M227 520Q290 520 323.5 497Q357 474 368 426Q397 471 440.5 495.5Q484 520 539 520Q643 520 691.5 451.5Q740 383 740 259H384Q384 152 427 95Q470 38 568 38Q624 38 658 48Q692 58 719 69V35Q695 21 656.5 5.5Q618 -10 556 -10Q483 -10 435.5 14.5Q388 39 361 81Q348 63 329 46.5Q310 30 286.5 17.5Q263 5 235 -3Q207 -11 177 -11Q107 -11 65.5 27Q24 65 24 128Q24 194 66 228Q108 262 180 273L319 293V355Q319 386 314 409Q309 432 296 447Q283 462 260 469.5Q237 477 200 477Q156 477 115 466L100 380H61V492Q90 503 134.5 511.5Q179 520 227 520ZM345 110Q331 139 324.5 174.5Q318 210 317 249L199 240Q138 235 114 207Q90 179 90 136Q90 88 117 61.5Q144 35 199 35Q240 35 278 55Q316 75 345 110ZM668 303Q667 394 634 436.5Q601 479 535 479Q466 479 428 432.5Q390 386 384 297Z" glyph-name="ae.alt" horiz-adv-x="767" /><glyph d="M178 -11Q108 -11 66 26Q24 63 24 127Q24 192 66.5 223Q109 254 180 265L319 287V354Q319 385 314.5 407Q310 429 297 443Q284 457 262 463Q240 469 204 469Q167 469 130 464Q93 459 63 451V485Q92 498 137 509Q182 520 230 520Q309 520 346.5 484Q384 448 384 371V75Q384 47 397.5 38.5Q411 30 434 30Q438 30 449 30.5Q460 31 462 32V5Q454 0 436 -4Q418 -8 397 -8Q333 -8 326 49H322Q298 23 262.5 6Q227 -11 178 -11ZM199 35Q236 35 268 49.5Q300 64 319 85V242L200 233Q138 228 114 202.5Q90 177 90 134Q90 86 117 60.5Q144 35 199 35ZM119 672 150 722 316 608 301 581Z" glyph-name="agrave" horiz-adv-x="467" unicode="&#224;" /><glyph d="M240 -11Q192 -11 152.5 2.5Q113 16 84.5 40Q56 64 40.5 97.5Q25 131 25 172Q25 244 68.5 293Q112 342 191 384Q163 419 145.5 456Q128 493 128 539Q128 578 142 608.5Q156 639 179.5 660.5Q203 682 234 693Q265 704 299 704Q328 704 355 695.5Q382 687 402.5 670Q423 653 435.5 628.5Q448 604 448 571Q448 536 434.5 509.5Q421 483 397.5 461Q374 439 342 420Q310 401 274 382L459 161Q482 199 497 239.5Q512 280 520 318L444 332V363H639V332L570 318Q559 273 539 223Q519 173 487 127L555 46L644 32V0H509L445 76Q407 38 356.5 13.5Q306 -11 240 -11ZM254 34Q307 34 348 54.5Q389 75 419 107L214 355Q154 321 125 280Q96 239 96 180Q96 149 106.5 122Q117 95 137.5 75.5Q158 56 187 45Q216 34 254 34ZM192 546Q192 506 208.5 474Q225 442 251 410Q283 427 307.5 443Q332 459 349 477Q366 495 375 517Q384 539 384 568Q384 616 358.5 639.5Q333 663 296 663Q251 663 221.5 633Q192 603 192 546Z" glyph-name="ampersand" horiz-adv-x="664" unicode="&amp;" /><glyph d="M178 -11Q108 -11 66 26Q24 63 24 127Q24 192 66.5 223Q109 254 180 265L319 287V354Q319 385 314.5 407Q310 429 297 443Q284 457 262 463Q240 469 204 469Q167 469 130 464Q93 459 63 451V485Q92 498 137 509Q182 520 230 520Q309 520 346.5 484Q384 448 384 371V75Q384 47 397.5 38.5Q411 30 434 30Q438 30 449 30.5Q460 31 462 32V5Q454 0 436 -4Q418 -8 397 -8Q333 -8 326 49H322Q298 23 262.5 6Q227 -11 178 -11ZM199 35Q236 35 268 49.5Q300 64 319 85V242L200 233Q138 228 114 202.5Q90 177 90 134Q90 86 117 60.5Q144 35 199 35ZM229 613Q252 613 265.5 627.5Q279 642 279 664Q279 687 265.5 702Q252 717 229 717Q206 717 192 702Q178 687 178 664Q178 642 192 627.5Q206 613 229 613ZM229 582Q191 582 167 606Q143 630 143 664Q143 699 167 723.5Q191 748 229 748Q266 748 290.5 723.5Q315 699 315 664Q315 630 290.5 606Q266 582 229 582Z" glyph-name="aring" horiz-adv-x="467" unicode="&#229;" /><glyph d="M168 693H210L352 463H312L189 632L66 463H26Z" glyph-name="asciicircum" horiz-adv-x="378" unicode="^" /><glyph d="M25 259Q45 308 69.5 330Q94 352 131 352Q149 352 166 345Q183 338 199 330Q215 322 229.5 315Q244 308 257 308Q278 308 294.5 320.5Q311 333 327 362L359 347Q339 298 314 276Q289 254 253 254Q235 254 218 261Q201 268 185 276Q169 284 154.5 291Q140 298 127 298Q106 298 89.5 285.5Q73 273 57 244Z" glyph-name="asciitilde" horiz-adv-x="380" unicode="~" /><glyph d="M156 521 58 453 32 497 143 547 32 598 57 642 156 573 142 693H198L184 573L283 642L308 598L197 547L308 497L282 453L184 521L198 403H142Z" glyph-name="asterisk" horiz-adv-x="333" unicode="*" /><glyph d="M436 -149Q244 -149 143.5 -54.5Q43 40 43 215Q43 307 74 390.5Q105 474 162 537.5Q219 601 299.5 638.5Q380 676 478 676Q557 676 622 652.5Q687 629 732.5 584Q778 539 803 474.5Q828 410 828 329Q828 263 810.5 208Q793 153 761.5 114Q730 75 687 53.5Q644 32 593 32Q548 32 526.5 50.5Q505 69 501 97H496Q464 66 433.5 51.5Q403 37 368 37Q343 37 320.5 46.5Q298 56 281 74.5Q264 93 254 121.5Q244 150 244 189Q244 246 259 299Q274 352 302.5 392.5Q331 433 372.5 457.5Q414 482 466 482Q509 482 533.5 470.5Q558 459 580 445L602 473H634L566 135Q560 106 567.5 88.5Q575 71 602 71Q641 71 674 89Q707 107 731 140.5Q755 174 768 221Q781 268 781 327Q781 400 761 458Q741 516 702 556Q663 596 606.5 617.5Q550 639 477 639Q386 639 314.5 605Q243 571 193.5 513Q144 455 118 378Q92 301 92 216Q92 54 177.5 -28Q263 -110 436 -110Q502 -110 559.5 -99.5Q617 -89 662 -72V-106Q617 -126 560.5 -137.5Q504 -149 436 -149ZM391 81Q422 81 449 95Q476 109 503 135L554 399Q541 418 521 430.5Q501 443 466 443Q426 443 396.5 421.5Q367 400 348 364.5Q329 329 319.5 283.5Q310 238 310 190Q310 132 331.5 106.5Q353 81 391 81Z" glyph-name="at" horiz-adv-x="867" unicode="@" /><glyph d="M178 -11Q108 -11 66 26Q24 63 24 127Q24 192 66.5 223Q109 254 180 265L319 287V354Q319 385 314.5 407Q310 429 297 443Q284 457 262 463Q240 469 204 469Q167 469 130 464Q93 459 63 451V485Q92 498 137 509Q182 520 230 520Q309 520 346.5 484Q384 448 384 371V75Q384 47 397.5 38.5Q411 30 434 30Q438 30 449 30.5Q460 31 462 32V5Q454 0 436 -4Q418 -8 397 -8Q333 -8 326 49H322Q298 23 262.5 6Q227 -11 178 -11ZM199 35Q236 35 268 49.5Q300 64 319 85V242L200 233Q138 228 114 202.5Q90 177 90 134Q90 86 117 60.5Q144 35 199 35ZM94 622Q125 701 180 701Q195 701 209 695.5Q223 690 236.5 684Q250 678 262.5 672.5Q275 667 286 667Q301 667 313.5 676Q326 685 339 708L369 695Q353 657 332 636.5Q311 616 283 616Q268 616 253.5 621.5Q239 627 225.5 633Q212 639 200 644.5Q188 650 177 650Q161 650 149 640.5Q137 631 124 608Z" glyph-name="atilde" horiz-adv-x="467" unicode="&#227;" /><glyph d="M251 -10Q192 -10 146 3Q100 16 68 32V685L-14 696V726L123 742L132 738V462H136Q169 486 207 503Q245 520 299 520Q337 520 373.5 508.5Q410 497 438 468.5Q466 440 483 392.5Q500 345 500 272Q500 201 482.5 148.5Q465 96 432.5 60.5Q400 25 354 7.5Q308 -10 251 -10ZM259 31Q298 31 330 43Q362 55 385 82Q408 109 420.5 152.5Q433 196 433 259Q433 319 421 359Q409 399 388 423.5Q367 448 337 458Q307 468 271 468Q229 468 193.5 455Q158 442 132 427V67Q152 53 181 42Q210 31 259 31Z" glyph-name="b" horiz-adv-x="532" unicode="b" /><glyph d="M29 733H77L317 -120H269Z" glyph-name="backslash" horiz-adv-x="324" unicode="\" /><glyph d="M81 733H126V-120H81Z" glyph-name="bar" horiz-adv-x="206" unicode="|" /><glyph d="M320 -120Q262 -118 224 -109Q186 -100 163.5 -84Q141 -68 132 -46.5Q123 -25 123 2Q123 23 127.5 50Q132 77 138 104Q144 131 148.5 156.5Q153 182 153 201Q153 216 149.5 228.5Q146 241 133.5 251.5Q121 262 97 269.5Q73 277 32 282V331Q73 336 97 343.5Q121 351 133.5 361.5Q146 372 149.5 385Q153 398 153 413Q153 431 148.5 456.5Q144 482 138 509Q132 536 127.5 563Q123 590 123 611Q123 638 132 659.5Q141 681 163.5 696.5Q186 712 224 721.5Q262 731 320 733V702Q282 697 257 691Q232 685 217 675.5Q202 666 195.5 652Q189 638 189 616Q189 597 193 573Q197 549 202 523.5Q207 498 211 472Q215 446 215 424Q215 406 212 389Q209 372 196 357.5Q183 343 158 330.5Q133 318 88 309V305Q133 296 158 283.5Q183 271 196 256Q209 241 212 224.5Q215 208 215 190Q215 167 211 141.5Q207 116 202 90Q197 64 193 40Q189 16 189 -3Q189 -25 195.5 -39Q202 -53 217 -62.5Q232 -72 257 -78Q282 -84 320 -89Z" glyph-name="braceleft" horiz-adv-x="355" unicode="{" /><glyph d="M35 -89Q73 -84 98 -78Q123 -72 138 -62.5Q153 -53 159.5 -39Q166 -25 166 -3Q166 16 162 40Q158 64 153 90Q148 116 144 141.5Q140 167 140 190Q140 208 143 224.5Q146 241 159 256Q172 271 197 283.5Q222 296 267 305V309Q222 318 197 330.5Q172 343 159 357.5Q146 372 143 389Q140 406 140 424Q140 446 144 472Q148 498 153 523.5Q158 549 162 573Q166 597 166 616Q166 638 159.5 652Q153 666 138 675.5Q123 685 98 691Q73 697 35 702V733Q93 731 131 721.5Q169 712 191.5 696.5Q214 681 223 659.5Q232 638 232 611Q232 590 227.5 563Q223 536 217 509Q211 482 206.5 456.5Q202 431 202 413Q202 398 205.5 385Q209 372 221.5 361.5Q234 351 258 343Q282 335 323 331V282Q282 277 258 269.5Q234 262 221.5 251.5Q209 241 205.5 228.5Q202 216 202 201Q202 182 206.5 156.5Q211 131 217 104Q223 77 227.5 50Q232 23 232 2Q232 -25 223 -46.5Q214 -68 191.5 -84Q169 -100 131 -109Q93 -118 35 -120Z" glyph-name="braceright" horiz-adv-x="355" unicode="}" /><glyph d="M70 734H262V702L133 689V-76L262 -89V-120H70Z" glyph-name="bracketleft" horiz-adv-x="298" unicode="[" /><glyph d="M35 -89 164 -76V689L35 702V734H227V-120H35Z" glyph-name="bracketright" horiz-adv-x="298" unicode="]" /><glyph d="M257 593Q206 593 171 625Q136 657 132 708H174Q181 675 203 657.5Q225 640 257 640Q289 640 311 657.5Q333 675 340 708H381Q377 657 342 625Q307 593 257 593Z" glyph-name="breve" horiz-adv-x="489" unicode="&#728;" /><glyph d="M257 735Q206 735 172.5 765.5Q139 796 134 840H176Q183 816 204 800Q225 784 257 784Q289 784 309.5 800Q330 816 337 840H379Q374 796 341 765.5Q308 735 257 735Z" glyph-name="breve.uc" horiz-adv-x="489" /><glyph d="M81 279H127V-120H81ZM81 733H127V371H81Z" glyph-name="brokenbar" horiz-adv-x="207" unicode="&#166;" /><glyph d="M173 203Q147 203 125 212.5Q103 222 87 238.5Q71 255 61.5 277Q52 299 52 325Q52 350 61.5 372.5Q71 395 87 411Q103 427 125 436.5Q147 446 173 446Q198 446 220.5 436.5Q243 427 259.5 411Q276 395 285.5 372.5Q295 350 295 325Q295 299 285.5 277Q276 255 259.5 238.5Q243 222 220.5 212.5Q198 203 173 203Z" glyph-name="bullet" horiz-adv-x="347" unicode="&#8226;" /><glyph d="M271 -10Q212 -10 166.5 8.5Q121 27 90.5 61.5Q60 96 44.5 144Q29 192 29 252Q29 324 49.5 375Q70 426 105 458Q140 490 186 505Q232 520 284 520Q322 520 355.5 514.5Q389 509 418 499V378H379L365 465Q348 472 328.5 475.5Q309 479 276 479Q236 479 203 466Q170 453 146 426.5Q122 400 109 358.5Q96 317 96 260Q96 143 146 90.5Q196 38 288 38Q339 38 374 48Q409 58 429 69V33Q404 17 366.5 3.5Q329 -10 271 -10Z" glyph-name="c" horiz-adv-x="452" unicode="c" /><glyph d="M115 699 133 721 244 641 356 721 373 699 261 586H227Z" glyph-name="caron" horiz-adv-x="489" unicode="&#711;" /><glyph d="M210 586 221 741 283 732 244 582Z" glyph-name="caron.alt" horiz-adv-x="489" /><glyph d="M373 823 261 733H227L115 823L129 847L244 788L359 847Z" glyph-name="caron.uc" horiz-adv-x="489" /><glyph d="M173 -176Q233 -168 256.5 -156Q280 -144 280 -122Q280 -102 260.5 -94Q241 -86 195 -86V-1Q113 20 71 86.5Q29 153 29 252Q29 324 49.5 375Q70 426 105 458Q140 490 186 505Q232 520 284 520Q322 520 355.5 514.5Q389 509 418 499V378H379L365 465Q348 472 328.5 475.5Q309 479 276 479Q236 479 203 466Q170 453 146 426.5Q122 400 109 358.5Q96 317 96 260Q96 143 146 90.5Q196 38 288 38Q339 38 374 48Q409 58 429 69V33Q404 17 366.5 3.5Q329 -10 271 -10Q249 -10 231 -7V-49Q282 -51 309.5 -68Q337 -85 337 -118Q337 -153 299 -176.5Q261 -200 173 -206Z" glyph-name="ccedilla" horiz-adv-x="452" unicode="&#231;" /><glyph d="M205 -176Q265 -168 288.5 -156Q312 -144 312 -122Q312 -102 292.5 -94Q273 -86 227 -86V0H263V-49Q314 -51 341.5 -68Q369 -85 369 -118Q369 -153 331 -176.5Q293 -200 205 -206Z" glyph-name="cedilla" horiz-adv-x="489" unicode="&#184;" /><glyph d="M211 -5Q121 12 75 80Q29 148 29 252Q29 321 48 371Q67 421 100 453.5Q133 486 176.5 502Q220 518 270 520L277 584H320L313 519Q342 517 368.5 511.5Q395 506 418 498V378H379L365 467Q343 475 308 478L259 39Q266 38 273 38Q280 38 288 38Q339 38 374.5 48Q410 58 430 69V34Q405 17 367 3.5Q329 -10 271 -10Q266 -10 262 -10Q258 -10 254 -9L242 -119H199ZM95 260Q95 167 126.5 115.5Q158 64 217 47L265 479Q189 475 142 421.5Q95 368 95 260Z" glyph-name="cent" horiz-adv-x="452" unicode="&#162;" /><glyph d="M115 609 227 722H261L373 609L356 587L244 667L133 587Z" glyph-name="circumflex" horiz-adv-x="489" unicode="&#710;" /><glyph d="M115 752 227 841H261L373 752L359 727L244 787L129 727Z" glyph-name="circumflex.uc" horiz-adv-x="489" /><glyph d="M98 -12Q78 -12 64 2Q50 16 50 36Q50 56 64 69.5Q78 83 98 83Q118 83 132 69.5Q146 56 146 36Q146 16 132 2Q118 -12 98 -12ZM98 295Q78 295 64 308.5Q50 322 50 342Q50 362 64 375.5Q78 389 98 389Q118 389 132 375.5Q146 362 146 342Q146 322 132 308.5Q118 295 98 295Z" glyph-name="colon" horiz-adv-x="192" unicode=":" /><glyph d="M43 -108Q51 -65 55.5 -20.5Q60 24 60 77H134Q129 25 117.5 -20.5Q106 -66 86 -108Z" glyph-name="comma" horiz-adv-x="184" unicode="," /><glyph d="M402 158Q362 158 328.5 169.5Q295 181 271 203.5Q247 226 233.5 260.5Q220 295 220 342Q220 393 235 430Q250 467 275.5 491Q301 515 335.5 526Q370 537 408 537Q441 537 468 532Q495 527 514 521L519 428H491L471 492Q459 497 443 501Q427 505 404 505Q344 505 313.5 464.5Q283 424 283 349Q283 272 312 230.5Q341 189 406 189Q450 189 472 200L493 274H523L516 177Q495 169 466.5 163.5Q438 158 402 158ZM392 20Q461 20 518.5 45.5Q576 71 617.5 115Q659 159 682.5 218Q706 277 706 345Q706 412 682.5 471Q659 530 617.5 574Q576 618 518.5 643.5Q461 669 392 669Q323 669 265.5 643.5Q208 618 166.5 574Q125 530 102 471Q79 412 79 345Q79 277 102 218Q125 159 166.5 115Q208 71 265.5 45.5Q323 20 392 20ZM392 -13Q317 -13 252 15Q187 43 140 92Q93 141 66 206Q39 271 39 345Q39 419 66 484Q93 549 140 597Q187 645 252 673Q317 701 392 701Q467 701 532 673Q597 645 645 597Q693 549 720.5 484Q748 419 748 345Q748 271 720.5 206Q693 141 645 92Q597 43 532 15Q467 -13 392 -13Z" glyph-name="copyright" horiz-adv-x="787" unicode="&#169;" /><glyph d="M245 -10Q207 -10 169 2.5Q131 15 100.5 44Q70 73 51 122Q32 171 32 245Q32 316 50 368Q68 420 101 453.5Q134 487 180 503.5Q226 520 282 520Q323 520 350 512.5Q377 505 400 497V685L313 696V726L456 742L464 738V48L542 36V9L412 -8L404 -3V52H400Q372 26 335 8Q298 -10 245 -10ZM264 41Q305 41 339.5 55Q374 69 400 86V441Q389 448 377 455Q365 462 350.5 467.5Q336 473 317.5 476Q299 479 275 479Q236 479 204 467.5Q172 456 148.5 430Q125 404 112 360.5Q99 317 99 254Q99 195 110.5 154.5Q122 114 143.5 88.5Q165 63 195.5 52Q226 41 264 41Z" glyph-name="d" horiz-adv-x="556" unicode="d" /><glyph d="M27 518 176 501 163 693H225L211 501L361 518V454L212 469L225 341V294L208 0H180L163 294V341L175 469L27 454Z" glyph-name="dagger" horiz-adv-x="387" unicode="&#8224;" /><glyph d="M33 518 181 502 168 693H231L217 502L366 518V454L218 470L232 364V330L218 224L366 239V176L217 192L231 0H168L182 192L33 176V239L181 224L166 330V364L181 470L33 454Z" glyph-name="daggerdbl" horiz-adv-x="398" unicode="&#8225;" /><glyph d="M162 475Q205 475 229.5 504Q254 533 254 573Q254 612 229.5 641.5Q205 671 162 671Q119 671 95 641.5Q71 612 71 573Q71 533 95 504Q119 475 162 475ZM162 442Q133 442 109 452.5Q85 463 67.5 481Q50 499 40 522.5Q30 546 30 573Q30 600 40 623.5Q50 647 67.5 665Q85 683 109 693.5Q133 704 162 704Q191 704 215.5 693.5Q240 683 257.5 665Q275 647 285 623.5Q295 600 295 573Q295 546 285 522.5Q275 499 257.5 481Q240 463 215.5 452.5Q191 442 162 442Z" glyph-name="degree" horiz-adv-x="322" unicode="&#176;" /><glyph d="M168 619Q151 619 139 631.5Q127 644 127 660Q127 677 139 689.5Q151 702 168 702Q186 702 198 689.5Q210 677 210 660Q210 644 198 631.5Q186 619 168 619ZM320 619Q303 619 290.5 631.5Q278 644 278 660Q278 677 290.5 689.5Q303 702 320 702Q338 702 350 689.5Q362 677 362 660Q362 644 350 631.5Q338 619 320 619Z" glyph-name="dieresis" horiz-adv-x="489" unicode="&#168;" /><glyph d="M167 741Q150 741 137.5 753.5Q125 766 125 783Q125 800 137.5 812Q150 824 167 824Q185 824 197 812Q209 800 209 783Q209 766 197 753.5Q185 741 167 741ZM322 741Q304 741 292 753.5Q280 766 280 783Q280 800 292 812Q304 824 322 824Q339 824 351 812Q363 800 363 783Q363 766 351 753.5Q339 741 322 741Z" glyph-name="dieresis.uc" horiz-adv-x="489" /><glyph d="M255 149Q235 149 221.5 163Q208 177 208 195Q208 215 221.5 228.5Q235 242 255 242Q275 242 288.5 228.5Q302 215 302 195Q302 177 288.5 163Q275 149 255 149ZM60 368H451V322H60ZM255 449Q235 449 221.5 462.5Q208 476 208 495Q208 515 221.5 528Q235 541 255 541Q275 541 288.5 528Q302 515 302 495Q302 476 288.5 462.5Q275 449 255 449Z" glyph-name="divide" horiz-adv-x="511" unicode="&#247;" /><glyph d="M189 -9Q143 -4 106.5 5.5Q70 15 44 26L38 172H75L98 65Q116 56 138.5 48Q161 40 193 35L224 337L196 349Q164 361 137 376.5Q110 392 90.5 413.5Q71 435 60 463.5Q49 492 49 530Q49 566 61.5 597.5Q74 629 99.5 653Q125 677 164.5 691Q204 705 257 705H262L268 765H312L305 702Q345 698 374 689.5Q403 681 424 673L430 544H394L374 636Q363 641 345 647Q327 653 301 657L273 387L294 379Q329 365 360 350Q391 335 414 313Q437 291 450 261Q463 231 463 188Q463 147 449.5 111Q436 75 408 48Q380 21 337 5Q294 -11 234 -11H233L222 -117H178ZM400 168Q400 199 392.5 221.5Q385 244 369 261.5Q353 279 328 293Q303 307 267 321L237 33H240Q322 33 361 71.5Q400 110 400 168ZM108 544Q108 489 138 458.5Q168 428 231 404L257 661H251Q185 661 146.5 630.5Q108 600 108 544Z" glyph-name="dollar" horiz-adv-x="501" unicode="$" /><glyph d="M244 620Q226 620 213.5 633Q201 646 201 663Q201 680 213.5 692.5Q226 705 244 705Q263 705 275 692.5Q287 680 287 663Q287 646 275 633Q263 620 244 620Z" glyph-name="dotaccent" horiz-adv-x="489" unicode="&#729;" /><glyph d="M245 742Q227 742 214.5 754.5Q202 767 202 784Q202 801 214.5 814Q227 827 245 827Q263 827 275.5 814Q288 801 288 784Q288 767 275.5 754.5Q263 742 245 742Z" glyph-name="dotaccent.uc" horiz-adv-x="489" /><glyph d="M15 27 94 39V458L10 470V499L150 516L158 512V39L237 27V0H15Z" glyph-name="dotlessi" horiz-adv-x="250" unicode="&#305;" /><glyph d="M270 -10Q204 -10 158 10.5Q112 31 83.5 67Q55 103 42 152Q29 201 29 258Q29 321 46.5 369.5Q64 418 94 451.5Q124 485 165 502.5Q206 520 253 520Q357 520 406.5 453Q456 386 456 265H95Q96 155 140 96.5Q184 38 282 38Q338 38 373 48Q408 58 435 69V35Q411 21 371.5 5.5Q332 -10 270 -10ZM384 308Q383 396 349 437.5Q315 479 249 479Q180 479 140.5 434Q101 389 96 302Z" glyph-name="e" horiz-adv-x="484" unicode="e" /><glyph d="M168 608 334 722 365 672 183 581ZM270 -10Q204 -10 158 10.5Q112 31 83.5 67Q55 103 42 152Q29 201 29 258Q29 321 46.5 369.5Q64 418 94 451.5Q124 485 165 502.5Q206 520 253 520Q357 520 406.5 453Q456 386 456 265H95Q96 155 140 96.5Q184 38 282 38Q338 38 373 48Q408 58 435 69V35Q411 21 371.5 5.5Q332 -10 270 -10ZM384 308Q383 396 349 437.5Q315 479 249 479Q180 479 140.5 434Q101 389 96 302Z" glyph-name="eacute" horiz-adv-x="484" unicode="&#233;" /><glyph d="M124 609 236 722H270L382 609L365 587L253 667L142 587ZM270 -10Q204 -10 158 10.5Q112 31 83.5 67Q55 103 42 152Q29 201 29 258Q29 321 46.5 369.5Q64 418 94 451.5Q124 485 165 502.5Q206 520 253 520Q357 520 406.5 453Q456 386 456 265H95Q96 155 140 96.5Q184 38 282 38Q338 38 373 48Q408 58 435 69V35Q411 21 371.5 5.5Q332 -10 270 -10ZM384 308Q383 396 349 437.5Q315 479 249 479Q180 479 140.5 434Q101 389 96 302Z" glyph-name="ecircumflex" horiz-adv-x="484" unicode="&#234;" /><glyph d="M177 619Q160 619 148 631.5Q136 644 136 660Q136 677 148 689.5Q160 702 177 702Q195 702 207 689.5Q219 677 219 660Q219 644 207 631.5Q195 619 177 619ZM329 619Q312 619 299.5 631.5Q287 644 287 660Q287 677 299.5 689.5Q312 702 329 702Q347 702 359 689.5Q371 677 371 660Q371 644 359 631.5Q347 619 329 619ZM270 -10Q204 -10 158 10.5Q112 31 83.5 67Q55 103 42 152Q29 201 29 258Q29 321 46.5 369.5Q64 418 94 451.5Q124 485 165 502.5Q206 520 253 520Q357 520 406.5 453Q456 386 456 265H95Q96 155 140 96.5Q184 38 282 38Q338 38 373 48Q408 58 435 69V35Q411 21 371.5 5.5Q332 -10 270 -10ZM384 308Q383 396 349 437.5Q315 479 249 479Q180 479 140.5 434Q101 389 96 302Z" glyph-name="edieresis" horiz-adv-x="484" unicode="&#235;" /><glyph d="M270 -10Q204 -10 158 10.5Q112 31 83.5 67Q55 103 42 152Q29 201 29 258Q29 321 46.5 369.5Q64 418 94 451.5Q124 485 165 502.5Q206 520 253 520Q357 520 406.5 453Q456 386 456 265H95Q96 155 140 96.5Q184 38 282 38Q338 38 373 48Q408 58 435 69V35Q411 21 371.5 5.5Q332 -10 270 -10ZM384 308Q383 396 349 437.5Q315 479 249 479Q180 479 140.5 434Q101 389 96 302ZM142 672 173 722 339 608 324 581Z" glyph-name="egrave" horiz-adv-x="484" unicode="&#232;" /><glyph d="M280 -13Q165 -13 101.5 36.5Q38 86 38 170Q38 209 53.5 239Q69 269 93.5 292Q118 315 149 331Q180 347 210 358Q143 385 104 426.5Q65 468 65 536Q65 572 80 603Q95 634 122.5 656.5Q150 679 189 692Q228 705 275 705Q321 705 360.5 694.5Q400 684 428 663Q456 642 472 611.5Q488 581 488 542Q488 506 475.5 479Q463 452 442.5 431.5Q422 411 396 396.5Q370 382 343 371Q380 357 412.5 339.5Q445 322 469 299Q493 276 506.5 246Q520 216 520 177Q520 136 504.5 101Q489 66 458.5 40.5Q428 15 383 1Q338 -13 280 -13ZM278 29Q366 29 409.5 66Q453 103 453 166Q453 203 439.5 228.5Q426 254 399.5 273Q373 292 335.5 307.5Q298 323 250 340Q223 329 197 314.5Q171 300 150 279.5Q129 259 116.5 233Q104 207 104 173Q104 107 146.5 68Q189 29 278 29ZM301 387Q325 397 347 410.5Q369 424 386 442Q403 460 413.5 483.5Q424 507 424 538Q424 571 412.5 595Q401 619 381 634Q361 649 334 656.5Q307 664 276 664Q212 664 170.5 632.5Q129 601 129 545Q129 512 140 488Q151 464 173 446Q195 428 227 414Q259 400 301 387Z" glyph-name="eight" horiz-adv-x="558" unicode="8" /><glyph d="M92 -12Q72 -12 58 2Q44 16 44 36Q44 56 58 69.5Q72 83 92 83Q112 83 126 69.5Q140 56 140 36Q140 16 126 2Q112 -12 92 -12ZM289 -12Q269 -12 255 2Q241 16 241 36Q241 56 255 69.5Q269 83 289 83Q309 83 323 69.5Q337 56 337 36Q337 16 323 2Q309 -12 289 -12ZM486 -12Q466 -12 452 2Q438 16 438 36Q438 56 452 69.5Q466 83 486 83Q506 83 520 69.5Q534 56 534 36Q534 16 520 2Q506 -12 486 -12Z" glyph-name="ellipsis" horiz-adv-x="577" unicode="&#8230;" /><glyph d="M28 306H611V267H28Z" glyph-name="emdash" horiz-adv-x="638" unicode="&#8212;" /><glyph d="M28 306H344V267H28Z" glyph-name="endash" horiz-adv-x="372" unicode="&#8211;" /><glyph d="M62 258H431V212H62ZM62 415H431V369H62Z" glyph-name="equal" horiz-adv-x="493" unicode="=" /><glyph d="M323 647Q402 585 450 496Q498 407 498 283Q498 209 480 153.5Q462 98 430.5 61.5Q399 25 356 7Q313 -11 264 -11Q211 -11 168 7.5Q125 26 94 60.5Q63 95 46 144Q29 193 29 254Q29 315 47 364.5Q65 414 96 448.5Q127 483 168.5 501.5Q210 520 258 520Q303 520 334 508Q365 496 387 481H392Q345 563 271 624L139 568L124 602L238 650Q215 667 187.5 683.5Q160 700 130 717L147 748Q185 731 220.5 712.5Q256 694 289 672L402 720L417 687ZM265 30Q299 30 329 41.5Q359 53 381.5 80.5Q404 108 417 154.5Q430 201 430 271Q430 315 426 352.5Q422 390 412 423Q386 447 350 462.5Q314 478 266 478Q230 478 199 466Q168 454 145 427.5Q122 401 109 359.5Q96 318 96 258Q96 198 109.5 155Q123 112 146 84.5Q169 57 199.5 43.5Q230 30 265 30Z" glyph-name="eth" horiz-adv-x="531" unicode="&#240;" /><glyph d="M113 -11Q93 -11 80.5 2.5Q68 16 68 34Q68 53 80.5 66Q93 79 113 79Q132 79 145 66Q158 53 158 34Q158 16 145 2.5Q132 -11 113 -11ZM75 693H149L132 178H92Z" glyph-name="exclam" horiz-adv-x="221" unicode="!" /><glyph d="M94 395H134L151 -120H77ZM113 495Q94 495 81 508Q68 521 68 539Q68 557 81 570.5Q94 584 113 584Q133 584 145.5 570.5Q158 557 158 539Q158 521 145.5 508Q133 495 113 495Z" glyph-name="exclamdown" horiz-adv-x="221" unicode="&#161;" /><glyph d="M18 27 95 39V466H19V494L95 511V580Q95 625 107 656.5Q119 688 140 707.5Q161 727 189.5 736Q218 745 251 745Q283 745 303.5 739.5Q324 734 340 726V692Q324 695 308 697.5Q292 700 269 700Q243 700 223 694.5Q203 689 188.5 674.5Q174 660 166.5 636Q159 612 159 576V511H290V466H159V39L250 27V0H18Z" glyph-name="f" horiz-adv-x="297" unicode="f" /><glyph d="M18 27 95 39V466H19V494L95 511V577Q95 620 106.5 650Q118 680 138.5 699Q159 718 186 726.5Q213 735 244 735Q273 735 291 729.5Q309 724 322 718V684Q310 686 297 688.5Q284 691 262 691Q238 691 219 685.5Q200 680 186.5 666Q173 652 166 628.5Q159 605 159 570V511H385V580Q385 625 397 656.5Q409 688 430 707.5Q451 727 479.5 736Q508 745 541 745Q573 745 593.5 739.5Q614 734 630 726V692Q614 695 598 697.5Q582 700 559 700Q533 700 513 694.5Q493 689 478.5 674.5Q464 660 456.5 636Q449 612 449 576V511H580V466H449V39L540 27V0H309V27L385 39V466H159V39L234 27V0H18Z" glyph-name="f_f" horiz-adv-x="587" unicode="&#64256;" /><glyph d="M18 27 95 39V466H19V494L95 511V577Q95 620 106.5 650Q118 680 138.5 699Q159 718 186 726.5Q213 735 244 735Q273 735 291 729.5Q309 724 322 718V684Q310 686 297 688.5Q284 691 262 691Q238 691 219 685.5Q200 680 186.5 666Q173 652 166 628.5Q159 605 159 570V511H385V593Q385 671 427.5 708Q470 745 533 745Q557 745 574 739.5Q591 734 602 728V694Q591 696 578.5 698Q566 700 549 700Q501 700 475 675Q449 650 449 587V511H732L740 506V39L819 27V0H599V27L675 39V466H449V39L524 27V0H310V27L385 39V466H159V39L234 27V0H18ZM703 620Q685 620 672.5 633Q660 646 660 663Q660 680 672.5 692.5Q685 705 703 705Q721 705 733.5 692.5Q746 680 746 663Q746 646 733.5 633Q721 620 703 620Z" glyph-name="f_f_i" horiz-adv-x="832" unicode="&#64259;" /><glyph d="M18 27 95 39V466H19V494L95 511V577Q95 620 106.5 650Q118 680 138.5 699Q159 718 186 726.5Q213 735 244 735Q273 735 291 729.5Q309 724 322 718V684Q310 686 297 688.5Q284 691 262 691Q238 691 219 685.5Q200 680 186.5 666Q173 652 166 628.5Q159 605 159 570V511H385V586Q385 629 399.5 659.5Q414 690 438 709Q462 728 493.5 736.5Q525 745 560 745Q600 745 633 735.5Q666 726 692 716L730 743L740 739V39L819 27V0H599V27L675 39V681Q650 690 626 695Q602 700 570 700Q513 700 481 674Q449 648 449 577V511H580V466H449V39L524 27V0H310V27L385 39V466H159V39L234 27V0H18Z" glyph-name="f_f_l" horiz-adv-x="832" unicode="&#64260;" /><glyph d="M18 27 95 39V466H19V494L95 511V593Q95 671 137.5 708Q180 745 243 745Q267 745 284 739.5Q301 734 312 728V694Q301 696 288.5 698Q276 700 259 700Q211 700 185 675Q159 650 159 587V511H441L449 506V39L528 27V0H309V27L385 39V466H159V39L235 27V0H18ZM413 620Q395 620 382.5 633Q370 646 370 663Q370 680 382.5 692.5Q395 705 413 705Q431 705 443.5 692.5Q456 680 456 663Q456 646 443.5 633Q431 620 413 620Z" glyph-name="f_i" horiz-adv-x="542" unicode="&#64257;" /><glyph d="M309 27 385 39V681Q360 690 336 695Q312 700 280 700Q223 700 191 674Q159 648 159 577V511H290V466H159V39L235 27V0H18V27L95 39V466H19V494L95 511V586Q95 629 109.5 659.5Q124 690 148 709Q172 728 203.5 736.5Q235 745 270 745Q310 745 343 735.5Q376 726 402 716L440 743L450 739V39L529 27V0H309Z" glyph-name="f_l" horiz-adv-x="542" unicode="&#64258;" /><glyph d="M202 -11Q145 -11 102 2.5Q59 16 24 36V72Q62 57 101 48Q140 39 187 39Q280 39 329 83.5Q378 128 378 206Q378 291 330.5 334Q283 377 188 377Q153 377 122.5 372Q92 367 68 362L94 693H435L429 634H136L119 413Q136 418 160 421.5Q184 425 213 425Q328 425 389 370Q450 315 450 212Q450 162 434 121Q418 80 386.5 51Q355 22 308.5 5.5Q262 -11 202 -11Z" glyph-name="five" horiz-adv-x="493" unicode="5" /><glyph d="M38 417H129L151 549Q158 592 174 621.5Q190 651 211 669Q232 687 257.5 695Q283 703 310 703Q339 703 357.5 697.5Q376 692 389 686V650Q375 654 359.5 656Q344 658 323 658Q279 658 252.5 632.5Q226 607 214 535L193 417H315V373H185L112 -54Q101 -119 66.5 -147Q32 -175 -19 -175Q-45 -175 -61.5 -169.5Q-78 -164 -87 -159V-124Q-79 -126 -65 -128Q-51 -130 -34 -130Q-1 -130 20.5 -110.5Q42 -91 50 -42L121 373H38Z" glyph-name="florin" horiz-adv-x="381" unicode="&#402;" /><glyph d="M249 32 344 44V204H18V247L354 693H411V252H527V204H411V44L505 32V0H249ZM344 252V604H341L78 254V252Z" glyph-name="four" horiz-adv-x="551" unicode="4" /><glyph d="M323 713H374L-122 -40H-173Z" glyph-name="fraction" horiz-adv-x="206" unicode="&#8260;" /><glyph d="M217 -203Q162 -203 122.5 -192Q83 -181 58 -163Q33 -145 21.5 -122.5Q10 -100 10 -77Q10 -32 40 -2.5Q70 27 113 47V50Q88 58 72 76Q56 94 56 120Q56 147 71 171.5Q86 196 114 220Q83 240 65.5 272Q48 304 48 350Q48 390 62 421Q76 452 101.5 474Q127 496 161 507.5Q195 519 236 519Q285 519 322 505L471 519V470L370 474Q396 454 411 425.5Q426 397 426 358Q426 318 411.5 286.5Q397 255 371 233.5Q345 212 310 200.5Q275 189 235 189Q183 189 141 206Q108 175 108 141Q108 124 120.5 112Q133 100 158 100H319Q353 100 381.5 93.5Q410 87 430.5 72.5Q451 58 462.5 34.5Q474 11 474 -22Q474 -58 458.5 -90.5Q443 -123 411 -148Q379 -173 330.5 -188Q282 -203 217 -203ZM222 -161Q274 -161 310.5 -150.5Q347 -140 370.5 -122.5Q394 -105 404.5 -82.5Q415 -60 415 -37Q415 5 389.5 23Q364 41 309 41H153Q117 25 94.5 -3Q72 -31 72 -66Q72 -86 80 -103.5Q88 -121 106 -134Q124 -147 152.5 -154Q181 -161 222 -161ZM235 227Q292 227 326.5 259.5Q361 292 361 353Q361 418 326 449.5Q291 481 235 481Q178 481 145 448.5Q112 416 112 355Q112 290 145.5 258.5Q179 227 235 227Z" glyph-name="g" horiz-adv-x="490" unicode="g" /><glyph d="M377 -11Q340 -11 307.5 -5Q275 1 247 12L240 118H276L295 49Q311 41 331.5 35.5Q352 30 378 30Q431 30 458.5 53.5Q486 77 486 117Q486 137 479 152Q472 167 460 179Q448 191 432 200.5Q416 210 398 220L353 245Q335 255 318.5 266Q302 277 289.5 290Q277 303 270 319Q263 335 263 357Q263 382 275 404.5Q287 427 304.5 447.5Q322 468 342.5 488Q363 508 380.5 527.5Q398 547 410 568Q422 589 422 612Q422 657 392.5 680.5Q363 704 312 704Q234 704 196.5 659.5Q159 615 159 543V0H18V27L95 39V466H19V494L95 511V552Q95 594 111 629.5Q127 665 155.5 690.5Q184 716 223.5 730.5Q263 745 311 745Q349 745 381 736.5Q413 728 436 711.5Q459 695 472 671.5Q485 648 485 618Q485 580 459.5 547Q434 514 403 485Q372 456 346.5 429Q321 402 321 375Q321 352 334.5 337Q348 322 381 303L427 278Q449 265 470.5 252.5Q492 240 509 223.5Q526 207 536 184.5Q546 162 546 131Q546 103 535.5 77Q525 51 503.5 31.5Q482 12 450.5 0.5Q419 -11 377 -11Z" glyph-name="germandbls" horiz-adv-x="573" unicode="&#223;" /><glyph d="M135 672 166 722 332 608 317 581Z" glyph-name="grave" horiz-adv-x="489" unicode="`" /><glyph d="M127 797 152 851 330 757 318 728Z" glyph-name="grave.uc" horiz-adv-x="489" /><glyph d="M70 207 370 342 70 477V529L427 362V322L70 155Z" glyph-name="greater" horiz-adv-x="487" unicode="&gt;" /><glyph d="M42 241V265L147 446H191L102 253L191 59H147ZM192 241V265L296 446H341L251 253L341 59H296Z" glyph-name="guillemotleft" horiz-adv-x="386" unicode="&#171;" /><glyph d="M135 252 45 446H90L194 265V241L90 59H45ZM284 252 195 446H239L344 265V241L239 59H195Z" glyph-name="guillemotright" horiz-adv-x="386" unicode="&#187;" /><glyph d="M42 241V265L147 446H191L102 253L191 59H147Z" glyph-name="guilsinglleft" horiz-adv-x="236" unicode="&#8249;" /><glyph d="M135 252 45 446H90L194 265V241L90 59H45Z" glyph-name="guilsinglright" horiz-adv-x="236" unicode="&#8250;" /><glyph d="M15 27 92 39V685L11 697V726L148 743L156 738V464H160Q201 487 246 503.5Q291 520 341 520Q412 520 448 488.5Q484 457 484 385V39L562 27V0H343V27L420 39V368Q420 423 393 446Q366 469 307 469Q267 469 229 457.5Q191 446 156 429V39L234 27V0H15Z" glyph-name="h" horiz-adv-x="571" unicode="h" /><glyph d="M134 591 236 740 282 705 162 573ZM274 591 376 740 421 705 301 573Z" glyph-name="hungarumlaut" horiz-adv-x="489" unicode="&#733;" /><glyph d="M149 748 226 876 273 844 176 731ZM285 748 362 876 409 844 312 731Z" glyph-name="hungarumlaut.uc" horiz-adv-x="489" /><glyph d="M36 309H244V253H36Z" glyph-name="hyphen" horiz-adv-x="280" unicode="-" /><glyph d="M15 27 94 39V458L10 470V499L150 516L158 512V39L237 27V0H15ZM121 620Q103 620 90.5 633Q78 646 78 663Q78 680 90.5 692.5Q103 705 121 705Q140 705 152 692.5Q164 680 164 663Q164 646 152 633Q140 620 121 620Z" glyph-name="i" horiz-adv-x="250" unicode="i" /><glyph d="M39 608 205 722 236 672 54 581ZM15 27 94 39V458L10 470V499L150 516L158 512V39L237 27V0H15Z" glyph-name="iacute" horiz-adv-x="250" unicode="&#237;" /><glyph d="M-5 609 107 722H141L253 609L236 587L124 667L13 587ZM15 27 94 39V458L10 470V499L150 516L158 512V39L237 27V0H15Z" glyph-name="icircumflex" horiz-adv-x="250" unicode="&#238;" /><glyph d="M48 619Q31 619 19 631.5Q7 644 7 660Q7 677 19 689.5Q31 702 48 702Q66 702 78 689.5Q90 677 90 660Q90 644 78 631.5Q66 619 48 619ZM200 619Q183 619 170.5 631.5Q158 644 158 660Q158 677 170.5 689.5Q183 702 200 702Q218 702 230 689.5Q242 677 242 660Q242 644 230 631.5Q218 619 200 619ZM15 27 94 39V458L10 470V499L150 516L158 512V39L237 27V0H15Z" glyph-name="idieresis" horiz-adv-x="250" unicode="&#239;" /><glyph d="M15 27 94 39V458L10 470V499L150 516L158 512V39L237 27V0H15ZM12 672 43 722 209 608 194 581Z" glyph-name="igrave" horiz-adv-x="250" unicode="&#236;" /><glyph d="M27 -196Q9 -196 -6.5 -192.5Q-22 -189 -38 -183V-151Q-19 -155 9 -155Q28 -155 44.5 -150.5Q61 -146 73 -134.5Q85 -123 91.5 -103.5Q98 -84 98 -55V458L15 470V499L154 516L162 512V-63Q162 -129 127 -162.5Q92 -196 27 -196ZM126 620Q108 620 95.5 633Q83 646 83 663Q83 680 95.5 692.5Q108 705 126 705Q144 705 156.5 692.5Q169 680 169 663Q169 646 156.5 633Q144 620 126 620Z" glyph-name="j" horiz-adv-x="241" unicode="j" /><glyph d="M195 259V271L368 472L305 483V511H489V483L422 472L253 284L440 39L510 27V0H393ZM15 27 92 38V685L11 697V726L148 743L156 738V38L237 27V0H15Z" glyph-name="k" horiz-adv-x="510" unicode="k" /><glyph d="M15 27 92 38V686L11 698V727L148 744L156 739V272L203 285L369 472L306 483V511H489V483L423 472L252 282L439 39L508 27V0H392L203 247L156 242V38L237 27V0H15Z" glyph-name="k.alt" horiz-adv-x="508" /><glyph d="M15 27 94 39V685L7 697V726L150 743L158 738V39L237 27V0H15Z" glyph-name="l" horiz-adv-x="250" unicode="l" /><glyph d="M60 323V362L417 530V478L117 343L417 207V155Z" glyph-name="less" horiz-adv-x="487" unicode="&lt;" /><glyph d="M4 324 94 379V685L7 697V726L150 743L158 738V419L251 476V430L158 373V39L237 27V0H15V27L94 39V333L4 278Z" glyph-name="lslash" horiz-adv-x="250" unicode="&#322;" /><glyph d="M15 27 92 39V458L14 470V499L145 516L153 512V464H157Q199 488 240 504Q281 520 335 520Q382 520 411 504.5Q440 489 456 459H460Q501 484 547.5 502Q594 520 646 520Q712 520 747 487Q782 454 782 384V39L861 27V0H640V27L718 39V366Q718 423 691.5 446Q665 469 611 469Q571 469 535.5 457.5Q500 446 465 430Q467 422 468 410.5Q469 399 469 383V39L547 27V0H327V27L406 39V366Q406 422 380 445.5Q354 469 301 469Q257 469 224.5 458.5Q192 448 156 431V39L234 27V0H15Z" glyph-name="m" horiz-adv-x="872" unicode="m" /><glyph d="M129 672H359V627H129Z" glyph-name="macron" horiz-adv-x="489" unicode="&#175;" /><glyph d="M129 798H359V753H129Z" glyph-name="macron.uc" horiz-adv-x="489" /><glyph d="M60 368H451V322H60Z" glyph-name="minus" horiz-adv-x="511" unicode="&#8722;" /><glyph d="M431 492 285 344 431 196 400 164 253 312 107 164 76 196 222 344 76 492 107 524 253 375 399 524Z" glyph-name="multiply" horiz-adv-x="507" unicode="&#215;" /><glyph d="M15 27 92 39V458L14 470V499L145 516L153 512V462H157Q198 486 244.5 503Q291 520 341 520Q412 520 448 488.5Q484 457 484 385V39L562 27V0H343V27L420 39V368Q420 423 393 445.5Q366 468 307 468Q267 468 229 457Q191 446 156 429V39L234 27V0H15Z" glyph-name="n" horiz-adv-x="573" unicode="n" /><glyph d="M204 -12Q158 -12 125.5 -2.5Q93 7 72 21V58Q93 49 125.5 42Q158 35 195 35Q249 35 293 50.5Q337 66 368.5 101Q400 136 418 194Q436 252 440 338Q410 317 362.5 295.5Q315 274 246 274Q202 274 163.5 287.5Q125 301 96.5 327Q68 353 52 391.5Q36 430 36 480Q36 531 52.5 572Q69 613 99 642.5Q129 672 171.5 688Q214 704 266 704Q327 704 373 681.5Q419 659 450 617.5Q481 576 497 517Q513 458 513 384Q513 279 491 204Q469 129 428.5 81Q388 33 331 10.5Q274 -12 204 -12ZM269 323Q328 323 368.5 339Q409 355 442 379V390Q442 447 433.5 497Q425 547 404.5 583.5Q384 620 350.5 641.5Q317 663 267 663Q192 663 149.5 616.5Q107 570 107 487Q107 401 151 362Q195 323 269 323Z" glyph-name="nine" horiz-adv-x="554" unicode="9" /><glyph glyph-name="nonmarkingreturn" horiz-adv-x="193" /><glyph d="M15 27 92 39V458L14 470V499L145 516L153 512V462H157Q198 486 244.5 503Q291 520 341 520Q412 520 448 488.5Q484 457 484 385V39L562 27V0H343V27L420 39V368Q420 423 393 445.5Q366 468 307 468Q267 468 229 457Q191 446 156 429V39L234 27V0H15ZM151 622Q182 701 237 701Q252 701 266 695.5Q280 690 293.5 684Q307 678 319.5 672.5Q332 667 343 667Q358 667 370.5 676Q383 685 396 708L426 695Q410 657 389 636.5Q368 616 340 616Q325 616 310.5 621.5Q296 627 282.5 633Q269 639 257 644.5Q245 650 234 650Q218 650 206 640.5Q194 631 181 608Z" glyph-name="ntilde" horiz-adv-x="573" unicode="&#241;" /><glyph d="M64 480H157L190 693H235L201 480H326L360 693H405L371 480H454V419H361L340 286H425V225H330L295 0H250L285 225H161L125 0H80L116 225H34V286H126L147 419H64ZM170 286H295L316 419H192Z" glyph-name="numbersign" horiz-adv-x="485" unicode="#" /><glyph d="M267 31Q300 31 330.5 43Q361 55 384.5 81.5Q408 108 422 149.5Q436 191 436 251Q436 312 421.5 355Q407 398 383 425.5Q359 453 328.5 465.5Q298 478 265 478Q232 478 201.5 466Q171 454 147.5 427.5Q124 401 110 359Q96 317 96 257Q96 197 110.5 154Q125 111 149 83.5Q173 56 203.5 43.5Q234 31 267 31ZM267 -11Q217 -11 173.5 6.5Q130 24 98 58Q66 92 47.5 141Q29 190 29 252Q29 314 48 364Q67 414 99.5 448.5Q132 483 174.5 501.5Q217 520 265 520Q315 520 358.5 502Q402 484 434 450.5Q466 417 484.5 368Q503 319 503 257Q503 195 484 145Q465 95 432.5 60.5Q400 26 357.5 7.5Q315 -11 267 -11Z" glyph-name="o" horiz-adv-x="532" unicode="o" /><glyph d="M181 608 347 722 378 672 196 581ZM267 31Q300 31 330.5 43Q361 55 384.5 81.5Q408 108 422 149.5Q436 191 436 251Q436 312 421.5 355Q407 398 383 425.5Q359 453 328.5 465.5Q298 478 265 478Q232 478 201.5 466Q171 454 147.5 427.5Q124 401 110 359Q96 317 96 257Q96 197 110.5 154Q125 111 149 83.5Q173 56 203.5 43.5Q234 31 267 31ZM267 -11Q217 -11 173.5 6.5Q130 24 98 58Q66 92 47.5 141Q29 190 29 252Q29 314 48 364Q67 414 99.5 448.5Q132 483 174.5 501.5Q217 520 265 520Q315 520 358.5 502Q402 484 434 450.5Q466 417 484.5 368Q503 319 503 257Q503 195 484 145Q465 95 432.5 60.5Q400 26 357.5 7.5Q315 -11 267 -11Z" glyph-name="oacute" horiz-adv-x="532" unicode="&#243;" /><glyph d="M137 609 249 722H283L395 609L378 587L266 667L155 587ZM267 31Q300 31 330.5 43Q361 55 384.5 81.5Q408 108 422 149.5Q436 191 436 251Q436 312 421.5 355Q407 398 383 425.5Q359 453 328.5 465.5Q298 478 265 478Q232 478 201.5 466Q171 454 147.5 427.5Q124 401 110 359Q96 317 96 257Q96 197 110.5 154Q125 111 149 83.5Q173 56 203.5 43.5Q234 31 267 31ZM267 -11Q217 -11 173.5 6.5Q130 24 98 58Q66 92 47.5 141Q29 190 29 252Q29 314 48 364Q67 414 99.5 448.5Q132 483 174.5 501.5Q217 520 265 520Q315 520 358.5 502Q402 484 434 450.5Q466 417 484.5 368Q503 319 503 257Q503 195 484 145Q465 95 432.5 60.5Q400 26 357.5 7.5Q315 -11 267 -11Z" glyph-name="ocircumflex" horiz-adv-x="532" unicode="&#244;" /><glyph d="M190 619Q173 619 161 631.5Q149 644 149 660Q149 677 161 689.5Q173 702 190 702Q208 702 220 689.5Q232 677 232 660Q232 644 220 631.5Q208 619 190 619ZM342 619Q325 619 312.5 631.5Q300 644 300 660Q300 677 312.5 689.5Q325 702 342 702Q360 702 372 689.5Q384 677 384 660Q384 644 372 631.5Q360 619 342 619ZM267 31Q300 31 330.5 43Q361 55 384.5 81.5Q408 108 422 149.5Q436 191 436 251Q436 312 421.5 355Q407 398 383 425.5Q359 453 328.5 465.5Q298 478 265 478Q232 478 201.5 466Q171 454 147.5 427.5Q124 401 110 359Q96 317 96 257Q96 197 110.5 154Q125 111 149 83.5Q173 56 203.5 43.5Q234 31 267 31ZM267 -11Q217 -11 173.5 6.5Q130 24 98 58Q66 92 47.5 141Q29 190 29 252Q29 314 48 364Q67 414 99.5 448.5Q132 483 174.5 501.5Q217 520 265 520Q315 520 358.5 502Q402 484 434 450.5Q466 417 484.5 368Q503 319 503 257Q503 195 484 145Q465 95 432.5 60.5Q400 26 357.5 7.5Q315 -11 267 -11Z" glyph-name="odieresis" horiz-adv-x="532" unicode="&#246;" /><glyph d="M675 -10Q586 -10 536.5 25.5Q487 61 465 120Q437 57 385 23Q333 -11 267 -11Q216 -11 172.5 6.5Q129 24 97 58Q65 92 47 141Q29 190 29 252Q29 314 48 364Q67 414 99.5 448.5Q132 483 175 501.5Q218 520 265 520Q335 520 388 486Q441 452 468 388Q493 452 542 486Q591 520 659 520Q762 520 812 453Q862 386 862 265H501Q501 155 545.5 96.5Q590 38 688 38Q744 38 779 48Q814 58 841 69V35Q817 21 777 5.5Q737 -10 675 -10ZM267 31Q300 31 330 43Q360 55 383.5 81.5Q407 108 421 149.5Q435 191 435 251Q435 312 420.5 355Q406 398 382 425.5Q358 453 327.5 465.5Q297 478 264 478Q231 478 201 466Q171 454 147.5 427.5Q124 401 110 359Q96 317 96 257Q96 197 110.5 154Q125 111 149 83.5Q173 56 203.5 43.5Q234 31 267 31ZM655 479Q586 479 546.5 434Q507 389 501 302L790 308Q789 396 755 437.5Q721 479 655 479Z" glyph-name="oe" horiz-adv-x="890" unicode="&#339;" /><glyph d="M248 -200Q199 -200 176.5 -179Q154 -158 154 -123Q154 -102 162.5 -84Q171 -66 184.5 -50.5Q198 -35 213.5 -22Q229 -9 243 0H282Q254 -28 233 -57Q212 -86 212 -117Q212 -140 224.5 -151.5Q237 -163 266 -163Q277 -163 285.5 -162Q294 -161 300 -160V-192Q289 -195 277.5 -197.5Q266 -200 248 -200Z" glyph-name="ogonek" horiz-adv-x="489" unicode="&#731;" /><glyph d="M267 31Q300 31 330.5 43Q361 55 384.5 81.5Q408 108 422 149.5Q436 191 436 251Q436 312 421.5 355Q407 398 383 425.5Q359 453 328.5 465.5Q298 478 265 478Q232 478 201.5 466Q171 454 147.5 427.5Q124 401 110 359Q96 317 96 257Q96 197 110.5 154Q125 111 149 83.5Q173 56 203.5 43.5Q234 31 267 31ZM267 -11Q217 -11 173.5 6.5Q130 24 98 58Q66 92 47.5 141Q29 190 29 252Q29 314 48 364Q67 414 99.5 448.5Q132 483 174.5 501.5Q217 520 265 520Q315 520 358.5 502Q402 484 434 450.5Q466 417 484.5 368Q503 319 503 257Q503 195 484 145Q465 95 432.5 60.5Q400 26 357.5 7.5Q315 -11 267 -11ZM154 672 185 722 351 608 336 581Z" glyph-name="ograve" horiz-adv-x="532" unicode="&#242;" /><glyph d="M43 32 150 44V629L31 604V635L198 702H219V44L326 32V0H43Z" glyph-name="one" horiz-adv-x="358" unicode="1" /><glyph d="M584 713H635L139 -40H88ZM50 315 115 323V644L42 630V656L150 701H171V323L236 315V288H50ZM477 31 583 133Q626 175 652.5 211.5Q679 248 679 290Q679 332 657 353Q635 374 587 374Q561 374 537 367Q513 360 493 352V382Q515 395 545 405Q575 415 607 415Q667 415 701.5 385Q736 355 736 296Q736 248 703 204.5Q670 161 612 112L534 45V44H703L721 97H750L743 0H477Z" glyph-name="onehalf" horiz-adv-x="785" unicode="&#189;" /><glyph d="M50 315 115 323V644L42 630V656L150 701H171V323L236 315V288H50ZM597 713H648L152 -40H101ZM555 27 615 35V119H424V150L623 408H668V154H734V119H668V35L726 27V0H555ZM615 154V342H613L469 155V154Z" glyph-name="onequarter" horiz-adv-x="768" unicode="&#188;" /><glyph d="M173 225Q110 225 72 259Q34 293 34 350Q34 409 73 437.5Q112 466 178 477L301 496V553Q301 608 278 630.5Q255 653 192 653Q160 653 125.5 648Q91 643 68 638V671Q96 683 135 693Q174 703 218 703Q363 703 363 570V307Q363 283 374.5 274.5Q386 266 408 266Q412 266 421.5 266Q431 266 433 267V240Q426 237 411.5 232.5Q397 228 374 228Q348 228 329.5 240.5Q311 253 307 280H304Q281 257 249.5 241Q218 225 173 225ZM193 270Q225 270 253.5 281.5Q282 293 301 313V452L195 445Q145 441 120.5 418Q96 395 96 356Q96 315 120.5 292.5Q145 270 193 270Z" glyph-name="ordfeminine" horiz-adv-x="449" unicode="&#170;" /><glyph d="M248 264Q277 264 303.5 274.5Q330 285 350 308Q370 331 382 369Q394 407 394 461Q394 516 382 555Q370 594 349.5 618Q329 642 302 653Q275 664 245 664Q215 664 188.5 653.5Q162 643 142 619.5Q122 596 110.5 558Q99 520 99 466Q99 410 111 371.5Q123 333 143.5 309Q164 285 191 274.5Q218 264 248 264ZM247 225Q201 225 162 241Q123 257 95 287.5Q67 318 51 362Q35 406 35 462Q35 518 51.5 562.5Q68 607 96.5 638.5Q125 670 163.5 686.5Q202 703 245 703Q291 703 330.5 687Q370 671 398.5 640.5Q427 610 443 566Q459 522 459 466Q459 410 442 365Q425 320 396 289Q367 258 328.5 241.5Q290 225 247 225Z" glyph-name="ordmasculine" horiz-adv-x="493" unicode="&#186;" /><glyph d="M17 7 80 79Q29 145 29 252Q29 314 48 364Q67 414 99.5 448.5Q132 483 174.5 501.5Q217 520 265 520Q355 520 418 466L470 525L501 500L446 437Q472 404 487.5 359Q503 314 503 257Q503 195 484 145Q465 95 432.5 60.5Q400 26 357.5 7.5Q315 -11 267 -11Q173 -11 108 48L49 -19ZM267 31Q300 31 330.5 43Q361 55 384.5 81.5Q408 108 422 149.5Q436 191 436 251Q436 296 428.5 331Q421 366 407 392L143 88Q166 58 198.5 44.5Q231 31 267 31ZM96 257Q96 215 102.5 183Q109 151 120 125L384 426Q360 453 329.5 465.5Q299 478 265 478Q232 478 201.5 466Q171 454 147.5 427.5Q124 401 110 359Q96 317 96 257Z" glyph-name="oslash" horiz-adv-x="532" unicode="&#248;" /><glyph d="M267 31Q300 31 330.5 43Q361 55 384.5 81.5Q408 108 422 149.5Q436 191 436 251Q436 312 421.5 355Q407 398 383 425.5Q359 453 328.5 465.5Q298 478 265 478Q232 478 201.5 466Q171 454 147.5 427.5Q124 401 110 359Q96 317 96 257Q96 197 110.5 154Q125 111 149 83.5Q173 56 203.5 43.5Q234 31 267 31ZM267 -11Q217 -11 173.5 6.5Q130 24 98 58Q66 92 47.5 141Q29 190 29 252Q29 314 48 364Q67 414 99.5 448.5Q132 483 174.5 501.5Q217 520 265 520Q315 520 358.5 502Q402 484 434 450.5Q466 417 484.5 368Q503 319 503 257Q503 195 484 145Q465 95 432.5 60.5Q400 26 357.5 7.5Q315 -11 267 -11ZM129 622Q160 701 215 701Q230 701 244 695.5Q258 690 271.5 684Q285 678 297.5 672.5Q310 667 321 667Q336 667 348.5 676Q361 685 374 708L404 695Q388 657 367 636.5Q346 616 318 616Q303 616 288.5 621.5Q274 627 260.5 633Q247 639 235 644.5Q223 650 212 650Q196 650 184 640.5Q172 631 159 608Z" glyph-name="otilde" horiz-adv-x="532" unicode="&#245;" /><glyph d="M13 -170 90 -160V458L11 470V499L142 516L150 512V460H154Q189 486 228 503Q267 520 321 520Q359 520 395.5 508.5Q432 497 460 469Q488 441 505 393Q522 345 522 272Q522 200 504 147Q486 94 454 59Q422 24 376 7Q330 -10 275 -10Q233 -10 205.5 -5.5Q178 -1 154 7V-159L241 -170V-197H13ZM282 31Q321 31 352.5 43Q384 55 407 82Q430 109 442.5 152.5Q455 196 455 259Q455 318 443.5 358Q432 398 410.5 422.5Q389 447 359 457.5Q329 468 292 468Q250 468 215 455Q180 442 154 427V64Q176 51 204 41Q232 31 282 31Z" glyph-name="p" horiz-adv-x="554" unicode="p" /><glyph d="M305 349Q291 347 276.5 346Q262 345 248 345Q207 345 171 355.5Q135 366 108 388Q81 410 65 443.5Q49 477 49 523Q49 563 61.5 594.5Q74 626 101.5 648Q129 670 173 681.5Q217 693 281 693H552V662L474 649V-120H427V653H352V-120H305Z" glyph-name="paragraph" horiz-adv-x="554" unicode="&#182;" /><glyph d="M257 -140Q223 -110 185 -70Q147 -30 115 24Q83 78 62 146.5Q41 215 41 302Q41 381 62 449Q83 517 115 572.5Q147 628 185 671Q223 714 257 744L281 720Q251 688 221 645.5Q191 603 166 552Q141 501 125.5 441.5Q110 382 110 316Q110 235 125.5 169Q141 103 166 50.5Q191 -2 221.5 -43Q252 -84 281 -116Z" glyph-name="parenleft" horiz-adv-x="302" unicode="(" /><glyph d="M21 -116Q51 -84 81 -41.5Q111 1 136 52Q161 103 176.5 162.5Q192 222 192 288Q192 370 176.5 435.5Q161 501 136 553.5Q111 606 81 647Q51 688 21 720L46 744Q79 714 117 674Q155 634 187.5 580Q220 526 241 457.5Q262 389 262 302Q262 223 241 155Q220 87 187.5 31.5Q155 -24 117 -67Q79 -110 46 -140Z" glyph-name="parenright" horiz-adv-x="302" unicode=")" /><glyph d="M189 369Q285 369 285 517Q285 591 261.5 630Q238 669 190 669Q142 669 117.5 631Q93 593 93 519Q93 446 117 407.5Q141 369 189 369ZM189 333Q156 333 127.5 345Q99 357 78 380Q57 403 45 437.5Q33 472 33 516Q33 562 45.5 597Q58 632 79.5 656Q101 680 129.5 692Q158 704 190 704Q221 704 249.5 692Q278 680 299.5 657Q321 634 333.5 599.5Q346 565 346 520Q346 475 334 440Q322 405 301 381.5Q280 358 251 345.5Q222 333 189 333ZM612 713H664L174 -40H123ZM606 26Q702 26 702 174Q702 248 678 287Q654 326 607 326Q558 326 533.5 288Q509 250 509 176Q509 103 533 64.5Q557 26 606 26ZM606 -10Q573 -10 544 2Q515 14 494 37Q473 60 461 94.5Q449 129 449 173Q449 219 461.5 254Q474 289 495.5 313Q517 337 546 349Q575 361 607 361Q638 361 666.5 349Q695 337 716.5 314Q738 291 750.5 256.5Q763 222 763 177Q763 132 751 97Q739 62 717.5 38.5Q696 15 667.5 2.5Q639 -10 606 -10Z" glyph-name="percent" horiz-adv-x="796" unicode="%" /><glyph d="M92 -12Q72 -12 58 2Q44 16 44 36Q44 56 58 69.5Q72 83 92 83Q112 83 126 69.5Q140 56 140 36Q140 16 126 2Q112 -12 92 -12Z" glyph-name="period" horiz-adv-x="185" unicode="." /><glyph d="M92 273Q72 273 58 286.5Q44 300 44 320Q44 340 58 353.5Q72 367 92 367Q112 367 126 353.5Q140 340 140 320Q140 300 126 286.5Q112 273 92 273Z" glyph-name="periodcentered" horiz-adv-x="183" unicode="&#183;" /><glyph d="M189 369Q285 369 285 517Q285 591 261.5 630Q238 669 190 669Q142 669 117.5 631Q93 593 93 519Q93 446 117 407.5Q141 369 189 369ZM189 333Q156 333 127.5 345Q99 357 78 380Q57 403 45 437.5Q33 472 33 516Q33 562 45.5 597Q58 632 79.5 656Q101 680 129.5 692Q158 704 190 704Q221 704 249.5 692Q278 680 299.5 657Q321 634 333.5 599.5Q346 565 346 520Q346 475 334 440Q322 405 301 381.5Q280 358 251 345.5Q222 333 189 333ZM612 713H664L174 -40H123ZM606 26Q702 26 702 174Q702 248 678 287Q654 326 607 326Q558 326 533.5 288Q509 250 509 176Q509 103 533 64.5Q557 26 606 26ZM606 -10Q573 -10 544 2Q515 14 494 37Q473 60 461 94.5Q449 129 449 173Q449 219 461.5 254Q474 289 495.5 313Q517 337 546 349Q575 361 607 361Q638 361 666.5 349Q695 337 716.5 314Q738 291 750.5 256.5Q763 222 763 177Q763 132 751 97Q739 62 717.5 38.5Q696 15 667.5 2.5Q639 -10 606 -10ZM976 26Q1072 26 1072 174Q1072 248 1048 287Q1024 326 977 326Q928 326 903.5 288Q879 250 879 176Q879 103 903 64.5Q927 26 976 26ZM976 -10Q943 -10 914 2Q885 14 864 37Q843 60 831 94.5Q819 129 819 173Q819 219 831.5 254Q844 289 865.5 313Q887 337 916 349Q945 361 977 361Q1008 361 1036.5 349Q1065 337 1086.5 314Q1108 291 1120.5 256.5Q1133 222 1133 177Q1133 132 1121 97Q1109 62 1087.5 38.5Q1066 15 1037.5 2.5Q1009 -10 976 -10Z" glyph-name="perthousand" horiz-adv-x="1166" unicode="&#8240;" /><glyph d="M60 368H231V547H280V368H451V322H280V144H231V322H60Z" glyph-name="plus" horiz-adv-x="511" unicode="+" /><glyph d="M314 -171 401 -159V50H396Q364 25 328 7.5Q292 -10 240 -10Q202 -10 164.5 2Q127 14 97.5 42.5Q68 71 50 119.5Q32 168 32 240Q32 310 50 362.5Q68 415 100 450Q132 485 177.5 502Q223 519 279 519Q335 519 379 510.5Q423 502 465 486V-160L542 -171V-197H314ZM263 41Q304 41 339 54.5Q374 68 401 85V444Q380 457 351.5 468Q323 479 272 479Q234 479 202 467.5Q170 456 147 429Q124 402 111.5 359Q99 316 99 253Q99 193 110.5 152.5Q122 112 143.5 87.5Q165 63 195 52Q225 41 263 41Z" glyph-name="q" horiz-adv-x="542" unicode="q" /><glyph d="M138 177Q130 193 124 214.5Q118 236 118 263Q118 284 124 301Q130 318 142.5 333.5Q155 349 173.5 364.5Q192 380 217 398Q236 412 251 425.5Q266 439 276 455Q286 471 291 490Q296 509 296 534Q296 568 285.5 591.5Q275 615 257 629.5Q239 644 214 650.5Q189 657 161 657Q119 657 89.5 651Q60 645 25 632V669Q60 686 96.5 695Q133 704 179 704Q215 704 248 695.5Q281 687 306.5 667Q332 647 347 614.5Q362 582 362 535Q362 503 354 478.5Q346 454 331 433.5Q316 413 294 395Q272 377 243 358Q206 333 184 311.5Q162 290 162 254Q162 237 165.5 218Q169 199 174 177ZM158 -11Q138 -11 125.5 2.5Q113 16 113 34Q113 53 125.5 66Q138 79 158 79Q177 79 190 66Q203 53 203 34Q203 16 190 2.5Q177 -11 158 -11Z" glyph-name="question" horiz-adv-x="396" unicode="?" /><glyph d="M217 -131Q181 -131 148 -122.5Q115 -114 89.5 -94Q64 -74 49 -41.5Q34 -9 34 38Q34 70 42 95Q50 120 65 140.5Q80 161 102 179Q124 197 153 216Q190 241 212 262Q234 283 234 319Q234 336 230.5 355Q227 374 222 396H258Q266 381 272 359Q278 337 278 311Q278 290 272 273Q266 256 253.5 240.5Q241 225 222.5 209.5Q204 194 179 176Q141 148 120.5 118.5Q100 89 100 40Q100 5 110.5 -18.5Q121 -42 139 -56.5Q157 -71 181.5 -77.5Q206 -84 235 -84Q277 -84 306.5 -78Q336 -72 371 -59V-96Q336 -113 299.5 -122Q263 -131 217 -131ZM238 495Q219 495 206 508Q193 521 193 539Q193 557 206 570.5Q219 584 238 584Q258 584 270.5 570.5Q283 557 283 539Q283 521 270.5 508Q258 495 238 495Z" glyph-name="questiondown" horiz-adv-x="396" unicode="&#191;" /><glyph d="M54 693H128L112 503H68ZM182 693H255L239 503H196Z" glyph-name="quotedbl" horiz-adv-x="309" unicode="&quot;" /><glyph d="M42 -101Q51 -57 56.5 -11.5Q62 34 62 85H134Q128 33 116 -12.5Q104 -58 84 -101ZM170 -101Q179 -57 184.5 -11.5Q190 34 190 85H261Q255 33 243 -12.5Q231 -58 211 -101Z" glyph-name="quotedblbase" horiz-adv-x="307" unicode="&#8222;" /><glyph d="M46 508Q52 560 64.5 605Q77 650 97 693H138Q129 649 123.5 604Q118 559 118 508ZM174 508Q184 609 224 693H265Q256 649 250.5 604Q245 559 245 508Z" glyph-name="quotedblleft" horiz-adv-x="307" unicode="&#8220;" /><glyph d="M42 508Q51 552 56.5 597Q62 642 62 693H134Q128 642 116 596.5Q104 551 84 508ZM170 508Q179 552 184.5 597Q190 642 190 693H261Q255 642 243 596.5Q231 551 211 508Z" glyph-name="quotedblright" horiz-adv-x="307" unicode="&#8221;" /><glyph d="M46 508Q52 560 64.5 605Q77 650 97 693H138Q129 649 123.5 604Q118 559 118 508Z" glyph-name="quoteleft" horiz-adv-x="180" unicode="&#8216;" /><glyph d="M42 508Q51 552 56.5 597Q62 642 62 693H134Q128 642 116 596.5Q104 551 84 508Z" glyph-name="quoteright" horiz-adv-x="180" unicode="&#8217;" /><glyph d="M42 -101Q51 -57 56.5 -11.5Q62 34 62 85H134Q128 33 116 -12.5Q104 -58 84 -101Z" glyph-name="quotesinglbase" horiz-adv-x="180" unicode="&#8218;" /><glyph d="M54 693H128L112 503H68Z" glyph-name="quotesingle" horiz-adv-x="182" unicode="&apos;" /><glyph d="M15 27 92 39V458L14 470V499L145 516L153 512V445H157Q182 474 218 496Q254 518 299 518Q305 518 314.5 517Q324 516 328 514V458Q320 460 309 460.5Q298 461 291 461Q250 461 217.5 447.5Q185 434 156 409V39L241 27V0H15Z" glyph-name="r" horiz-adv-x="344" unicode="r" /><glyph d="M127 442 150 446V588L127 593V611H214Q246 611 266 598.5Q286 586 286 560Q286 538 274 527.5Q262 517 245 512V510L286 446L306 442V425H258L212 500H187V446L209 442V425H127ZM214 524Q235 524 242 533Q249 542 249 558Q249 575 241 581.5Q233 588 213 588H187V524ZM211 352Q246 352 275 364.5Q304 377 324.5 399Q345 421 356 450.5Q367 480 367 515Q367 548 356 578Q345 608 324.5 630Q304 652 275 665Q246 678 211 678Q176 678 147 665Q118 652 98 630Q78 608 67 578Q56 548 56 515Q56 480 67 450.5Q78 421 98 399Q118 377 147 364.5Q176 352 211 352ZM211 325Q171 325 136.5 340Q102 355 77 380.5Q52 406 37.5 441Q23 476 23 515Q23 554 37.5 588.5Q52 623 77 648.5Q102 674 136.5 689Q171 704 211 704Q251 704 285.5 689Q320 674 345.5 648.5Q371 623 385.5 588.5Q400 554 400 515Q400 476 385.5 441Q371 406 345.5 380.5Q320 355 285.5 340Q251 325 211 325Z" glyph-name="registered" horiz-adv-x="423" unicode="&#174;" /><glyph d="M245 613Q268 613 281.5 627.5Q295 642 295 664Q295 687 281.5 702Q268 717 245 717Q222 717 208 702Q194 687 194 664Q194 642 208 627.5Q222 613 245 613ZM245 582Q207 582 183 606Q159 630 159 664Q159 699 183 723.5Q207 748 245 748Q282 748 306.5 723.5Q331 699 331 664Q331 630 306.5 606Q282 582 245 582Z" glyph-name="ring" horiz-adv-x="489" unicode="&#730;" /><glyph d="M245 753Q268 753 281.5 767.5Q295 782 295 804Q295 827 281.5 842Q268 857 245 857Q222 857 208 842Q194 827 194 804Q194 782 208 767.5Q222 753 245 753ZM245 722Q207 722 183 746Q159 770 159 804Q159 839 183 863.5Q207 888 245 888Q282 888 306.5 863.5Q331 839 331 804Q331 770 306.5 746Q282 722 245 722Z" glyph-name="ring.uc" horiz-adv-x="489" /><glyph d="M194 -11Q147 -11 107.5 -2Q68 7 39 18L31 142H67L88 56Q107 46 134 38Q161 30 198 30Q258 30 290 53.5Q322 77 322 122Q322 144 316.5 159.5Q311 175 299 186.5Q287 198 268 207Q249 216 221 224L160 242Q101 260 69.5 292.5Q38 325 38 379Q38 409 49 434.5Q60 460 82 478.5Q104 497 136 508Q168 519 210 519Q257 519 291.5 513Q326 507 352 498L354 382H320L301 457Q286 466 263 472Q240 478 204 478Q156 478 126 458Q96 438 96 394Q96 357 117 335.5Q138 314 195 297L256 279Q322 259 352.5 227Q383 195 383 138Q383 106 371 79Q359 52 335.5 32Q312 12 276.5 0.5Q241 -11 194 -11Z" glyph-name="s" horiz-adv-x="415" unicode="s" /><glyph d="M82 699 100 721 211 641 323 721 340 699 228 586H194ZM194 -11Q147 -11 107.5 -2Q68 7 39 18L31 142H67L88 56Q107 46 134 38Q161 30 198 30Q258 30 290 53.5Q322 77 322 122Q322 144 316.5 159.5Q311 175 299 186.5Q287 198 268 207Q249 216 221 224L160 242Q101 260 69.5 292.5Q38 325 38 379Q38 409 49 434.5Q60 460 82 478.5Q104 497 136 508Q168 519 210 519Q257 519 291.5 513Q326 507 352 498L354 382H320L301 457Q286 466 263 472Q240 478 204 478Q156 478 126 458Q96 438 96 394Q96 357 117 335.5Q138 314 195 297L256 279Q322 259 352.5 227Q383 195 383 138Q383 106 371 79Q359 52 335.5 32Q312 12 276.5 0.5Q241 -11 194 -11Z" glyph-name="scaron" horiz-adv-x="415" unicode="&#353;" /><glyph d="M235 -129Q181 -129 145 -120.5Q109 -112 76 -100L68 22H104L126 -62Q146 -72 171 -80Q196 -88 238 -88Q263 -88 285 -82Q307 -76 323 -64Q339 -52 348.5 -34.5Q358 -17 358 6Q358 46 333.5 72Q309 98 258 118L171 151Q107 175 67 209Q27 243 27 302Q27 353 60.5 386.5Q94 420 151 437Q117 457 99.5 487Q82 517 82 561Q82 625 129 664.5Q176 704 258 704Q305 704 337 697Q369 690 395 682V570H360L344 644Q329 652 309 657.5Q289 663 252 663Q204 663 171.5 641Q139 619 139 573Q139 533 159 509.5Q179 486 230 467L312 435Q344 423 371 409Q398 395 417.5 378Q437 361 447.5 339Q458 317 458 287Q458 233 424 199Q390 165 333 148Q371 126 395 94.5Q419 63 419 20Q419 -11 407 -38Q395 -65 371.5 -85.5Q348 -106 313.5 -117.5Q279 -129 235 -129ZM277 384Q256 393 238 399Q223 404 210.5 408.5Q198 413 198 414Q152 406 120.5 380.5Q89 355 89 313Q89 291 97 275Q105 259 120 246Q135 233 157 222Q179 211 206 201L283 172Q330 179 363 205Q396 231 396 275Q396 319 364 341.5Q332 364 277 384Z" glyph-name="section" horiz-adv-x="485" unicode="&#167;" /><glyph d="M44 -108Q52 -65 56.5 -20.5Q61 24 61 77H135Q130 25 118.5 -20.5Q107 -66 87 -108ZM96 295Q76 295 62 308.5Q48 322 48 342Q48 362 62 375.5Q76 389 96 389Q116 389 130 375.5Q144 362 144 342Q144 322 130 308.5Q116 295 96 295Z" glyph-name="semicolon" horiz-adv-x="192" unicode=";" /><glyph d="M421 631V634H76L55 552H19L27 693H466V642L181 0H104Z" glyph-name="seven" horiz-adv-x="481" unicode="7" /><glyph d="M291 -12Q169 -12 105.5 73.5Q42 159 42 310Q42 417 67.5 492Q93 567 135.5 614Q178 661 233.5 682.5Q289 704 350 704Q397 704 429 695Q461 686 482 672V635Q461 644 429 650.5Q397 657 359 657Q311 657 268 642Q225 627 192 592Q159 557 138 499Q117 441 113 356Q148 379 195 398.5Q242 418 307 418Q351 418 389.5 405Q428 392 456.5 366Q485 340 501.5 302Q518 264 518 215Q518 164 502 122.5Q486 81 456.5 51Q427 21 385 4.5Q343 -12 291 -12ZM290 30Q367 30 407.5 77Q448 124 448 208Q448 251 435.5 281.5Q423 312 401.5 332Q380 352 350 361.5Q320 371 285 371Q225 371 185 355Q145 339 113 317V304Q113 246 122 196Q131 146 151.5 109Q172 72 206 51Q240 30 290 30Z" glyph-name="six" horiz-adv-x="554" unicode="6" /><glyph d="M248 733H296L56 -120H8Z" glyph-name="slash" horiz-adv-x="324" unicode="/" /><glyph glyph-name="space" horiz-adv-x="193" unicode=" " /><glyph d="M195 -179Q202 -152 205.5 -116Q209 -80 209 -42H276Q272 -80 262.5 -116Q253 -152 237 -179Z" glyph-name="space_uni0326" horiz-adv-x="489" /><glyph d="M286 747Q272 689 272 610H205Q209 648 218.5 684Q228 720 244 747Z" glyph-name="space_uni0326.alt" horiz-adv-x="489" /><glyph d="M56 369H128V486Q128 545 146 586.5Q164 628 193.5 654Q223 680 260 692Q297 704 336 704Q363 704 383.5 701.5Q404 699 420.5 694Q437 689 450.5 682Q464 675 477 667V628Q450 639 422 645.5Q394 652 354 652Q324 652 296 645Q268 638 246.5 619Q225 600 211 567.5Q197 535 196 483L193 369H387V324H192L190 239Q189 204 184 177.5Q179 151 169.5 130Q160 109 147 93Q134 77 118 62V60H483L476 0H34V37Q81 65 104.5 107Q128 149 128 222V324H56Z" glyph-name="sterling" horiz-adv-x="515" unicode="&#163;" /><glyph d="M208 -8Q151 -8 119.5 18Q88 44 88 110V466H13V494L92 511L104 632H152V511H292V466H152V123Q152 76 170.5 56.5Q189 37 235 37Q253 37 270 39.5Q287 42 303 47V18Q286 8 261 0Q236 -8 208 -8Z" glyph-name="t" horiz-adv-x="323" unicode="t" /><glyph d="M4 -170 80 -160V685L-2 696V726L135 742L143 738V462H147Q181 486 219.5 503Q258 520 312 520Q350 520 386.5 508.5Q423 497 451 469Q479 441 496 393Q513 345 513 272Q513 200 495.5 147Q478 94 446 59Q414 24 368.5 7Q323 -10 268 -10Q226 -10 197.5 -4.5Q169 1 145 9V-159L232 -170V-197H4ZM275 31Q313 31 344.5 43Q376 55 398.5 82Q421 109 433.5 152.5Q446 196 446 259Q446 318 434.5 358Q423 398 401 422.5Q379 447 348.5 457.5Q318 468 281 468Q240 468 205.5 455Q171 442 144 427V65Q166 52 195 41.5Q224 31 275 31Z" glyph-name="thorn" horiz-adv-x="545" unicode="&#254;" /><glyph d="M215 -11Q153 -11 106.5 2.5Q60 16 26 35V72Q64 57 106 47.5Q148 38 198 38Q285 38 331.5 78Q378 118 378 191Q378 272 333 307Q288 342 195 342H147V387H189Q264 387 307.5 422Q351 457 351 523Q351 588 314 622Q277 656 201 656Q154 656 121 649Q88 642 54 629V665Q89 682 130 693Q171 704 218 704Q312 704 365 660.5Q418 617 418 533Q418 500 407.5 473Q397 446 379 426Q361 406 337.5 392Q314 378 287 370V367Q318 362 347 350Q376 338 398.5 317Q421 296 434.5 264.5Q448 233 448 188Q448 95 387 42Q326 -11 215 -11Z" glyph-name="three" horiz-adv-x="489" unicode="3" /><glyph d="M151 282Q113 282 84.5 290Q56 298 36 309V338Q57 330 82 325Q107 320 137 320Q187 320 213 341.5Q239 363 239 404Q239 447 214.5 466Q190 485 142 485H107V519H138Q180 519 203 538Q226 557 226 593Q226 665 140 665Q112 665 92 661.5Q72 658 52 650V678Q73 689 99 696Q125 703 155 703Q214 703 247 677.5Q280 652 280 602Q280 564 259 540Q238 516 204 506V504Q242 497 269 473Q296 449 296 401Q296 346 258 314Q220 282 151 282ZM624 711H675L179 -42H128ZM572 25 632 33V117H441V148L640 406H685V152H751V117H685V33L743 25V-2H572ZM632 152V340H630L486 153V152Z" glyph-name="threequarters" horiz-adv-x="785" unicode="&#190;" /><glyph d="M107 622Q138 701 193 701Q208 701 222 695.5Q236 690 249.5 684Q263 678 275.5 672.5Q288 667 299 667Q314 667 326.5 676Q339 685 352 708L382 695Q366 657 345 636.5Q324 616 296 616Q281 616 266.5 621.5Q252 627 238.5 633Q225 639 213 644.5Q201 650 190 650Q174 650 162 640.5Q150 631 137 608Z" glyph-name="tilde" horiz-adv-x="489" unicode="&#732;" /><glyph d="M107 752Q123 790 144 811Q165 832 193 832Q208 832 222.5 826.5Q237 821 250.5 815Q264 809 276 803.5Q288 798 299 798Q315 798 327 807Q339 816 352 839L382 825Q351 746 296 746Q281 746 267 751.5Q253 757 239.5 763Q226 769 213.5 774.5Q201 780 190 780Q175 780 162.5 771Q150 762 137 739Z" glyph-name="tilde.uc" horiz-adv-x="489" /><glyph d="M304 442 342 448V666L304 672V693H408L483 498H485L562 693H668V672L628 666V448L668 442V421H549V442L582 448V656H579L491 434H463L377 656H374V448L408 442V421H304ZM84 442 122 448V667H64L50 607H24L28 693H262L267 607H239L225 667H168V448L206 442V421H84Z" glyph-name="trademark" horiz-adv-x="685" unicode="&#8482;" /><glyph d="M16 38 189 210Q226 247 258 282Q290 317 313.5 352Q337 387 350.5 424Q364 461 364 502Q364 571 327 612Q290 653 203 653Q155 653 118.5 642Q82 631 47 617V655Q83 675 129.5 689.5Q176 704 228 704Q323 704 379.5 655.5Q436 607 436 509Q436 465 420.5 425Q405 385 377 345.5Q349 306 309.5 265.5Q270 225 222 181L91 60V58H390L422 155H457L448 0H16Z" glyph-name="two" horiz-adv-x="503" unicode="2" /><glyph d="M229 -9Q154 -9 119.5 29Q85 67 85 136V463L7 475V504L141 516L149 511V150Q149 94 172.5 67.5Q196 41 258 41Q306 41 342 53Q378 65 410 81V463L334 475V504L466 516L474 511V48L552 36V9L422 -8L414 -3V52H410Q372 25 327.5 8Q283 -9 229 -9Z" glyph-name="u" horiz-adv-x="569" unicode="u" /><glyph d="M190 608 356 722 387 672 205 581ZM229 -9Q154 -9 119.5 29Q85 67 85 136V463L7 475V504L141 516L149 511V150Q149 94 172.5 67.5Q196 41 258 41Q306 41 342 53Q378 65 410 81V463L334 475V504L466 516L474 511V48L552 36V9L422 -8L414 -3V52H410Q372 25 327.5 8Q283 -9 229 -9Z" glyph-name="uacute" horiz-adv-x="569" unicode="&#250;" /><glyph d="M146 609 258 722H292L404 609L387 587L275 667L164 587ZM229 -9Q154 -9 119.5 29Q85 67 85 136V463L7 475V504L141 516L149 511V150Q149 94 172.5 67.5Q196 41 258 41Q306 41 342 53Q378 65 410 81V463L334 475V504L466 516L474 511V48L552 36V9L422 -8L414 -3V52H410Q372 25 327.5 8Q283 -9 229 -9Z" glyph-name="ucircumflex" horiz-adv-x="569" unicode="&#251;" /><glyph d="M199 619Q182 619 170 631.5Q158 644 158 660Q158 677 170 689.5Q182 702 199 702Q217 702 229 689.5Q241 677 241 660Q241 644 229 631.5Q217 619 199 619ZM351 619Q334 619 321.5 631.5Q309 644 309 660Q309 677 321.5 689.5Q334 702 351 702Q369 702 381 689.5Q393 677 393 660Q393 644 381 631.5Q369 619 351 619ZM229 -9Q154 -9 119.5 29Q85 67 85 136V463L7 475V504L141 516L149 511V150Q149 94 172.5 67.5Q196 41 258 41Q306 41 342 53Q378 65 410 81V463L334 475V504L466 516L474 511V48L552 36V9L422 -8L414 -3V52H410Q372 25 327.5 8Q283 -9 229 -9Z" glyph-name="udieresis" horiz-adv-x="569" unicode="&#252;" /><glyph d="M229 -9Q154 -9 119.5 29Q85 67 85 136V463L7 475V504L141 516L149 511V150Q149 94 172.5 67.5Q196 41 258 41Q306 41 342 53Q378 65 410 81V463L334 475V504L466 516L474 511V48L552 36V9L422 -8L414 -3V52H410Q372 25 327.5 8Q283 -9 229 -9ZM164 672 195 722 361 608 346 581Z" glyph-name="ugrave" horiz-adv-x="569" unicode="&#249;" /><glyph d="M-10 -81H314V-120H-10Z" glyph-name="underscore" horiz-adv-x="304" unicode="_" /><glyph glyph-name="uni00A0" horiz-adv-x="193" unicode="&#160;" /><glyph glyph-name="uni2009" horiz-adv-x="93" unicode="&#8201;" /><glyph d="M58 472 2 482V511H195V482L127 474L274 75H277L425 474L356 482V511H526V482L470 472L291 0H239Z" glyph-name="v" horiz-adv-x="527" unicode="v" /><glyph d="M58 472 2 482V511H191V482L123 472L234 92H237L373 511H416L550 92H553L664 472L597 482V511H768V482L712 472L569 0H519L390 413H387L249 0H200Z" glyph-name="w" horiz-adv-x="764" unicode="w" /><glyph d="M10 27 69 38 220 256 72 472 14 482V511H209V482L144 473L266 292H268L388 473L320 482V511H494V482L438 472L292 265L445 38L504 27V0H307V27L374 36L248 225H246L118 36L187 27V0H10Z" glyph-name="x" horiz-adv-x="517" unicode="x" /><glyph d="M122 -197Q104 -197 85.5 -193Q67 -189 55 -182V-143Q71 -147 82 -149Q93 -151 106 -151Q150 -151 173 -130Q196 -109 213 -65L245 16L58 472L2 482V511H199V482L127 472L276 95H279L417 472L347 482V511H524V482L468 472L257 -81Q236 -136 207 -166.5Q178 -197 122 -197Z" glyph-name="y" horiz-adv-x="524" unicode="y" /><glyph d="M122 -197Q104 -197 85.5 -193Q67 -189 55 -182V-143Q71 -147 82 -149Q93 -151 106 -151Q150 -151 173 -130Q196 -109 213 -65L245 16L58 472L2 482V511H199V482L127 472L276 95H279L417 472L347 482V511H524V482L468 472L257 -81Q236 -136 207 -166.5Q178 -197 122 -197ZM193 608 359 722 390 672 208 581Z" glyph-name="yacute" horiz-adv-x="524" unicode="&#253;" /><glyph d="M122 -197Q104 -197 85.5 -193Q67 -189 55 -182V-143Q71 -147 82 -149Q93 -151 106 -151Q150 -151 173 -130Q196 -109 213 -65L245 16L58 472L2 482V511H199V482L127 472L276 95H279L417 472L347 482V511H524V482L468 472L257 -81Q236 -136 207 -166.5Q178 -197 122 -197ZM202 619Q185 619 173 631.5Q161 644 161 660Q161 677 173 689.5Q185 702 202 702Q220 702 232 689.5Q244 677 244 660Q244 644 232 631.5Q220 619 202 619ZM354 619Q337 619 324.5 631.5Q312 644 312 660Q312 677 324.5 689.5Q337 702 354 702Q372 702 384 689.5Q396 677 396 660Q396 644 384 631.5Q372 619 354 619Z" glyph-name="ydieresis" horiz-adv-x="524" unicode="&#255;" /><glyph d="M87 362H243L64 648L7 662V693H214V662L139 648L307 373H310L468 648L391 662V693H573V662L519 648L349 362H507V323H331V241H507V202H331V45L420 32V0H173V32L262 45V202H87V241H262V323H87Z" glyph-name="yen" horiz-adv-x="572" unicode="&#165;" /><glyph d="M28 36 348 470V473H103L81 368H45L52 511H422V476L103 41V38H358L385 155H421L410 0H28Z" glyph-name="z" horiz-adv-x="459" unicode="z" /><glyph d="M107 699 125 721 236 641 348 721 365 699 253 586H219ZM28 36 348 470V473H103L81 368H45L52 511H422V476L103 41V38H358L385 155H421L410 0H28Z" glyph-name="zcaron" horiz-adv-x="459" unicode="&#158;" /><glyph d="M311 30Q509 30 509 343Q509 497 460.5 580Q412 663 311 663Q210 663 161 582.5Q112 502 112 348Q112 195 160.5 112.5Q209 30 311 30ZM311 -12Q251 -12 201 10Q151 32 115.5 76Q80 120 60.5 187Q41 254 41 343Q41 434 61 502Q81 570 117 615Q153 660 202.5 682Q252 704 311 704Q369 704 418.5 682.5Q468 661 504 617Q540 573 560 506Q580 439 580 348Q580 258 560.5 190.5Q541 123 505.5 78Q470 33 420.5 10.5Q371 -12 311 -12Z" glyph-name="zero" horiz-adv-x="620" unicode="0" /></font>
</defs>
</svg>
