<?xml version="1.0" encoding="utf-8"?>
<!-- Generator: Adobe Illustrator 15.1.0, SVG Export Plug-In . SVG Version: 6.00 Build 0)  -->
<!DOCTYPE svg PUBLIC "-//W3C//DTD SVG 1.1//EN" "http://www.w3.org/Graphics/SVG/1.1/DTD/svg11.dtd">
<svg version="1.1" id="Layer_1" xmlns="http://www.w3.org/2000/svg" xmlns:xlink="http://www.w3.org/1999/xlink" x="0px" y="0px"
	 width="58.832px" height="62.685px" viewBox="0 0 58.832 62.685" enable-background="new 0 0 58.832 62.685" xml:space="preserve">
<path fill="#00A1F2" d="M49.988,29.927c3.715-0.006,6.757-3,6.855-6.693V9.707c0-3.779-3.094-6.873-6.875-6.873H8.938
	c-3.781,0-6.875,3.094-6.875,6.873v42.687c0,3.781,3.095,6.875,6.875,6.875h41.03c3.781,0,6.875-3.094,6.875-6.875V36.619
	C56.745,32.926,53.703,29.934,49.988,29.927z"/>
<g>
	<path fill="#FFFFFF" d="M54.998,32.133c1.103,1.187,1.8,2.757,1.846,4.486v15.774c0,3.781-3.094,6.875-6.875,6.875H8.938
		c-1.619,0-3.109-0.57-4.287-1.516c1.258,1.359,3.049,2.218,5.036,2.218h41.03c3.781,0,6.875-3.094,6.875-6.875V37.322
		C57.537,35.227,56.533,33.36,54.998,32.133z"/>
	<path fill="#FFFFFF" d="M55.004,5.051c1.136,1.228,1.839,2.862,1.839,4.655v13.528c-0.098,3.692-3.141,6.687-6.855,6.693
		c0.87,0.001,1.701,0.172,2.468,0.472c2.891-0.759,5.054-3.361,5.137-6.462V10.409C57.592,8.248,56.578,6.314,55.004,5.051z"/>
</g>
<g>
	<path fill="#168CD4" d="M2.812,53.192V10.505c0-3.779,3.095-6.873,6.875-6.873h41.03c1.782,0,3.406,0.693,4.63,1.815
		c-1.262-1.588-3.205-2.614-5.379-2.614H8.938c-3.781,0-6.875,3.094-6.875,6.873v42.687c0,2,0.871,3.801,2.245,5.06
		C3.375,56.28,2.812,54.8,2.812,53.192z"/>
</g>
<g>
	<path fill-rule="evenodd" clip-rule="evenodd" fill="#FFFFFF" d="M14.027,29.197c1.74-1.22,1.05-4.227-1.278-4.502
		c-0.421-0.049-0.886-0.035-1.385-0.03c-0.786,0.005-2.433,0.003-3.279,0.007l0.007,1.509c0.983-0.003,1.085-0.001,1.094,0.002
		l0.019,6.215L8.192,32.4l0.009,1.522l3.695,0.021l-0.004-0.002c1.389,0.004,2.575-0.15,3.212-1.039
		C15.921,31.765,15.634,29.464,14.027,29.197z M10.898,26.161c1.034,0.016,1.612-0.106,2.058,0.388
		c0.493,0.551,0.348,1.594-0.325,1.923l-1.721-0.004L10.898,26.161z M13.511,31.915c-0.497,0.664-1.499,0.426-2.583,0.476
		l-0.011-2.517c0.655-0.02,1.229-0.037,1.701,0.016c0.409,0.045,0.733,0.182,0.951,0.501C13.892,30.865,13.79,31.542,13.511,31.915z
		"/>
	<g id="cQUe3t_32_">
		<g>
			<path fill-rule="evenodd" clip-rule="evenodd" fill="#FFFFFF" d="M16.99,26.076l0.03,6.599l-0.766,0.002l0.003,1.278h3.305
				l-0.007-1.292l-0.756,0.001l-0.03-7.993h-2.542l-0.001,1.399C16.516,26.075,16.99,26.076,16.99,26.076z"/>
			<path fill-rule="evenodd" clip-rule="evenodd" fill="#FFFFFF" d="M47.542,32.195c-0.33,0.224-0.637,0.34-0.91,0.341
				c-0.342,0.003-0.624-0.181-0.794-0.515c-0.142-0.277-0.216-0.648-0.235-1.197c-0.031-0.806-0.036-2.869-0.036-2.869l1.948,0.017
				l-0.001-1.367l-1.946-0.011l-0.005-1.928h-1.781l-0.026,1.978l-0.972-0.004l0.007,1.333c0.111,0.005,0.289,0.005,0.485,0.004
				c0.113-0.001,0.236-0.001,0.354-0.006l0.124-0.002l0.002,0.123c0.006,0.491,0.006,1.021,0.006,1.538
				c0,0.438,0.001,0.852,0.006,1.225c0.013,1.047,0.074,1.963,0.729,2.553c0.411,0.37,1.1,0.59,1.847,0.586
				c0.435-0.001,0.852-0.081,1.207-0.23L47.542,32.195z"/>
			<path fill-rule="evenodd" clip-rule="evenodd" fill="#FFFFFF" d="M38.047,32.188c-0.356,0.26-0.688,0.39-0.979,0.392
				c-0.341,0.001-0.623-0.183-0.794-0.516c-0.141-0.278-0.213-0.647-0.234-1.196c-0.027-0.81-0.039-1.993-0.02-2.751l0.002-0.119
				l2.005-0.009l-0.007-1.342l-2.005-0.012l0.005-1.962l-1.823,0.007l-0.005,1.886l-0.001,0.114l-0.101,0.007H34.07
				c-1.458,0.02-2.867,0.922-3.112,1.748v-0.037l-0.008-1.644h-2.173l0.009,1.277l0.681-0.003v0.218
				c0.002,0.003,0.014,0.031,0.014,0.031l0.019,4.305l-0.694,0.001l0.007,1.368l2.912-0.014l-0.005-1.379
				c-0.046,0-0.68-0.002-0.68-0.002l-0.001-0.125c-0.012-2.848,0.832-4.207,2.737-4.414l0.046-0.004
				c0.07-0.002,0.153-0.004,0.251-0.007l0.12-0.001l0.004,0.122c0.017,0.55,0.014,1.142,0.01,1.715
				c-0.003,0.376-0.004,0.732-0.001,1.057c0.013,1.048,0.074,1.961,0.731,2.549c0.409,0.374,1.102,0.593,1.844,0.591
				c0.469-0.003,0.906-0.094,1.271-0.262L38.047,32.188z"/>
			<path fill-rule="evenodd" clip-rule="evenodd" fill="#FFFFFF" d="M27.187,32.585l0.001-5.831h-2.466l0.007,1.294
				c0.121,0.004,0.221,0.004,0.336,0.002c0.101,0.002,0.208,0.002,0.346,0.005h0.112c0,0,0.035,1.777-0.006,2.518
				c-0.039,0.724-0.202,1.307-0.545,1.688c-0.224,0.246-0.507,0.378-0.843,0.391c-0.025,0.001-0.05,0.002-0.077,0.002
				c-0.142,0-0.421-0.012-0.679-0.096c-0.614-0.203-0.799-0.73-0.891-1.461c-0.087-0.718-0.084-1.984-0.07-2.917
				c0.01-0.646,0.001-1.19,0-1.424l-2.359,0.009l0.006,1.313c0.161,0.007,0.319,0.004,0.442,0.004c0.064,0.001,0.115,0,0.158,0.001
				l0.125,0.002l-0.005,0.123c-0.009,0.32-0.002,0.643,0.003,0.958c0.002,0.184,0.007,0.369,0.008,0.55
				c0.003,2.136,0.274,4.142,2.231,4.362c0.121,0.016,0.244,0.02,0.37,0.02c0.799-0.003,2.124-0.317,2.547-1.182v0.049
				c0.008,0.329,0.011,0.989,0.011,0.989l1.875-0.001l-0.023-1.37L27.187,32.585z"/>
			<path fill-rule="evenodd" clip-rule="evenodd" fill="#FFFFFF" d="M39.305,33.948L39.3,32.541l0.654-0.008l-0.02-4.543
				c0,0-0.385-0.002-0.658,0l-0.005-1.336l2.347,0.003v5.868l0.645,0.003l-0.001,1.42H39.305z"/>
		</g>
	</g>
	<path fill="#FFFFFF" d="M41.449,24.886c0,0.507-0.408,0.915-0.912,0.915c-0.506,0-0.914-0.408-0.914-0.915
		c0-0.501,0.408-0.911,0.914-0.911C41.041,23.975,41.449,24.384,41.449,24.886z"/>
</g>
</svg>
