<?xml version="1.0" encoding="UTF-8"?><svg xmlns="http://www.w3.org/2000/svg" width="100%" height="100%"><defs><font id="web" horiz-adv-x="685"><!--



NOTICE: This font software is the valuable property 
of Webtype LLC, The Font Bureau, Webtype and/or its 
suppliers and its use by you is covered under the terms 
of the Web Font license agreement between you and Webtype 
LLC. You may ONLY use this font software with the licensed 
web site. Except as specifically permitted by the license, 
you may not copy this font software. If you have any 
questions, please contact Webtype.com. 

For more information, please visit http://www.webtype.com/store/license/?id=23

Licensed to: *.fossil.com,*.fossil.de,*.fossil.co.uk,*.fossil.com.au,*.fossilchina.cn,*.fossil.fr,*.foss

Serial number: SH-767
--><font-face font-family="" units-per-em="2048" panose-1="2 0 5 6 0 0 0 2 0 3" ascent="1761" descent="-559" alphabetic="0"/><missing-glyph horiz-adv-x="1024" d="M0 1434H1024V0H0V1434ZM102 102H922V1331H102V102Z"/><glyph unicode=" " horiz-adv-x="188"/><glyph unicode="!" horiz-adv-x="428" d="M121 203H307V0H121V203ZM121 1069V1282H307V1069L285 356H145L121 1069Z"/><glyph unicode="&quot;" horiz-adv-x="694" d="M121 1073V1282H299V1073L274 778H145L121 1073ZM395 1073V1282H575V1073L551 778H420L395 1073Z"/><glyph unicode="#" horiz-adv-x="862" d="M176 399H59V545H188L207 743H59V889H219L254 1282H416L381 889H522L557 1282H719L684 889H803V743H672L653 545H803V399H641L606 0H444L479 399H340L303 0H141L176 399ZM494 541L514 748H367L348 541H494Z"/><glyph unicode="$" horiz-adv-x="764" d="M305 2Q230 11 182 39T106 111T65 215T51 348L231 371Q236 302 243 260T267 193T312 161T387 152Q432 152 459 163T503 193T524 238T530 295Q530 335 518 368T479 436T413 511T317 606Q259 659 213 704T136 795T87 888T70 997Q70 1124 130 1193T305 1280V1481H469V1280Q583 1263 634 1193T694 993L514 973Q509 1022 502 1052T481 1100T444 1124T385 1130Q345 1130 319 1122T277 1097T255 1056T248 1001Q248 969 258 942T291 885T349 820T434 737Q499 673 550 622T636 520T690 416T709 293Q709 168 652 96T469 4V-238H305V2Z"/><glyph unicode="%" horiz-adv-x="1319" d="M285 514Q170 514 112 567T53 733V1077Q53 1125 66 1165T108 1233T180 1276T285 1292Q345 1292 389 1277T461 1235T502 1168T516 1081V735Q516 621 458 568T285 514ZM285 645Q325 645 349 666T373 741V1073Q373 1159 285 1159Q197 1159 197 1071V741Q197 687 220 666T285 645ZM1034 -8Q922 -8 864 46T805 213V557Q805 605 818 645T859 713T930 756T1034 772Q1155 772 1211 715T1268 561V215Q1268 100 1209 46T1034 -8ZM1034 125Q1076 125 1099 146T1122 221V553Q1122 637 1034 637Q948 637 948 549V219Q948 167 970 146T1034 125ZM776 1282H936L543 0H381L776 1282Z"/><glyph unicode="&amp;" horiz-adv-x="907" d="M356 -8Q266 -8 205 11T107 70T53 171T37 317Q37 373 53 425T97 525T162 618T240 705Q206 758 183 799T144 876T122 947T115 1024Q115 1085 129 1135T174 1219T256 1273T381 1292Q455 1292 503 1272T581 1218T621 1135T633 1032Q633 979 619 933T579 843T521 761T449 682L618 420L653 729L803 715L766 381Q761 339 754 304T739 238L895 0H696L647 74Q598 27 526 10T356 -8ZM371 150Q442 150 485 163T557 213L322 575Q272 515 244 452T215 326Q215 285 219 253T240 197T287 162T371 150ZM283 1028Q283 1004 287 982T301 935T327 879T367 809Q419 868 446 920T473 1030Q473 1051 471 1071T459 1108T431 1135T379 1145Q346 1145 327 1135T298 1108T286 1070T283 1028Z"/><glyph unicode="'" horiz-adv-x="424" d="M121 1073V1282H303V1073L279 778H145L121 1073Z"/><glyph unicode="(" horiz-adv-x="487" d="M362 -340Q288 -287 230 -215T131 -45T69 180T47 471Q47 634 67 761T128 986T226 1156T362 1282L461 1159Q403 1113 359 1054T284 913T239 723T223 471Q223 324 237 218T281 32T355 -107T461 -219L362 -340V-340Z"/><glyph unicode=")" horiz-adv-x="487" d="M27 -219Q87 -167 131 -108T205 31T248 217T262 471Q262 615 247 723T202 912T128 1053T27 1159L125 1282Q202 1228 261 1156T359 987T419 762T440 471Q440 307 419 180T358 -45T259 -215T125 -340L27 -219Z"/><glyph unicode="*" horiz-adv-x="711" d="M297 848L123 717L47 831L254 952L47 1075L123 1190L297 1059L289 1282H424L418 1059L590 1190L666 1075L459 952L666 831L590 717L418 848L424 625H289L297 848Z"/><glyph unicode="+" horiz-adv-x="745" d="M39 713H291V1004H453V713H707V559H453V270H291V559H39V713Z"/><glyph unicode="," horiz-adv-x="297" d="M59 -102Q85 -99 101 -93T125 -76T136 -46T139 0H59V203H238V0Q238 -44 232 -78T206 -137T152 -176T59 -193V-102Z"/><glyph unicode="-" horiz-adv-x="424" d="M14 610H410V459H14V610Z"/><glyph unicode="." horiz-adv-x="297" d="M59 203H238V0H59V203Z"/><glyph unicode="/" horiz-adv-x="516" d="M336 1282H516L180 0H0L336 1282Z"/><glyph unicode="0" horiz-adv-x="819" d="M408 -8Q240 -8 157 77T74 354V942Q74 1024 93 1089T152 1199T256 1268T408 1292Q498 1292 562 1269T666 1202T724 1094T743 948V356Q743 259 723 190T661 77T556 13T408 -8ZM408 150Q445 150 474 159T523 192T554 253T565 350V946Q565 1046 527 1088T408 1130Q327 1130 291 1087T254 944V352Q254 293 262 254T290 192T338 160T408 150Z"/><glyph unicode="1" horiz-adv-x="549" d="M219 1122H45V1282H397V0H219V1122Z"/><glyph unicode="2" horiz-adv-x="768" d="M59 121Q59 204 81 273T143 405T234 530T346 662Q397 719 429 760T479 834T505 900T512 971Q512 1016 508 1046T491 1096T452 1124T385 1133Q345 1133 319 1123T277 1090T252 1036T238 958L57 985Q64 1048 83 1104T139 1201T237 1267T389 1292Q483 1292 542 1270T634 1205T678 1104T690 971Q690 915 679 868T644 774T580 677T483 565Q421 493 379 442T309 346T268 258T250 160H688V0H59V121Z"/><glyph unicode="3" horiz-adv-x="772" d="M381 -8Q287 -8 227 15T129 83T75 191T49 338L227 365Q233 303 241 262T266 195T310 160T379 150Q424 150 451 160T494 192T513 250T518 336V475Q518 521 511 549T486 592T439 611T365 616H276V770H360Q403 770 431 775T477 795T501 836T508 907V993Q508 1027 502 1053T482 1097T443 1124T381 1133Q341 1133 315 1126T273 1100T247 1050T231 973L55 1004Q64 1071 86 1124T148 1215T246 1272T387 1292Q478 1292 536 1271T627 1211T673 1121T686 1008V915Q686 823 658 771T575 698Q640 681 668 628T696 471V326Q696 243 682 181T633 76T536 13T381 -8Z"/><glyph unicode="4" horiz-adv-x="776" d="M436 303H29V463L424 1282H608V463H741V303H608V0H436V303ZM436 461V967L197 461H436Z"/><glyph unicode="5" horiz-adv-x="760" d="M381 -8Q282 -8 221 16T125 85T73 193T47 334L227 362Q233 299 242 258T268 193T311 160T377 150Q421 150 448 159T491 191T512 248T518 336V561Q518 609 514 643T495 698T454 730T385 741Q328 741 298 720T246 651L84 678L123 1282H647V1122H276L256 838Q287 869 329 883T430 897Q522 897 575 871T656 799T690 688T698 545V324Q698 245 683 183T632 79T534 14T381 -8Z"/><glyph unicode="6" horiz-adv-x="795" d="M403 -8Q319 -8 257 11T155 74T94 185T74 350V942Q74 1021 90 1085T145 1196T248 1267T408 1292Q549 1292 623 1232T721 1059L537 1010Q530 1072 498 1103T397 1135Q353 1135 324 1122T278 1084T255 1024T248 944V815Q283 858 330 875T449 893Q525 893 578 873T666 810T717 697T733 530V354Q733 260 715 192T657 80T554 14T403 -8ZM403 147Q453 147 483 161T530 202T552 267T557 352V539Q557 591 552 629T531 692T485 729T403 741Q357 741 327 729T280 692T255 629T248 537V352Q248 299 255 261T279 197T327 159T403 147Z"/><glyph unicode="7" horiz-adv-x="643" d="M406 1128H18V1282H590V1139L303 0H121L406 1128Z"/><glyph unicode="8" horiz-adv-x="819" d="M408 -8Q239 -8 156 71T72 303V444Q72 538 102 600T193 698Q140 729 111 783T82 922V1004Q82 1150 166 1221T408 1292Q569 1292 653 1223T737 1008V926Q737 841 708 786T625 698Q685 664 715 604T745 449V305Q745 154 661 73T408 -8ZM408 141Q493 141 530 189T567 317V457Q567 494 560 524T534 577T485 612T408 625Q363 625 333 613T285 578T260 524T252 455V317Q252 237 288 189T408 141ZM408 770Q488 770 522 809T557 924V991Q557 1066 524 1103T408 1141Q327 1141 294 1102T260 989V924Q260 848 296 809T408 770Z"/><glyph unicode="9" horiz-adv-x="795" d="M387 -8Q246 -8 171 52T74 225L258 274Q264 214 296 181T397 147Q442 147 471 160T517 197T540 256T547 336V467Q510 425 464 408T346 391Q270 391 216 411T127 475T76 588T59 756V930Q59 1024 78 1092T137 1204T240 1270T391 1292Q475 1292 537 1273T640 1210T701 1099T721 934V342Q721 263 705 199T649 88T546 17T387 -8ZM391 539Q437 539 467 551T515 588T540 652T547 745V928Q547 982 540 1021T515 1085T467 1123T391 1135Q341 1135 311 1120T265 1078T243 1013T238 928V743Q238 690 243 652T264 588T310 551T391 539Z"/><glyph unicode=":" horiz-adv-x="297" d="M61 203H233V0H61V203ZM61 895H233V692H61V895Z"/><glyph unicode=";" horiz-adv-x="297" d="M61 -102Q88 -99 103 -93T127 -76T137 -46T139 0H61V203H233V0Q233 -44 228 -79T205 -139T153 -178T61 -195V-102ZM61 895H233V692H61V895Z"/><glyph unicode="&lt;" horiz-adv-x="745" d="M88 557V715L618 1006V846L240 633L618 426V264L88 557Z"/><glyph unicode="=" horiz-adv-x="752" d="M59 862H692V717H59V862ZM59 543H692V395H59V543Z"/><glyph unicode="&gt;" horiz-adv-x="745" d="M125 426L504 633L125 846V1006L655 715V557L125 264V426Z"/><glyph unicode="?" horiz-adv-x="721" d="M283 430Q283 492 299 544T339 640T391 725T444 804T484 884T500 971Q500 1010 497 1040T481 1091T442 1122T371 1133Q332 1133 306 1123T263 1093T238 1040T225 965L43 989Q50 1050 69 1105T125 1201T223 1267T373 1292Q459 1292 517 1273T611 1214T662 1116T678 977Q678 917 662 866T621 770T568 683T515 601T474 519T457 434V356H283V430ZM281 203H467V0H281V203Z"/><glyph unicode="@" horiz-adv-x="1073" d="M537 -260Q419 -260 334 -235T194 -155T113 -18T86 180V809Q86 909 110 989T189 1125T329 1211T537 1241Q659 1241 744 1212T884 1128T962 993T987 813V276Q987 176 939 134T788 92Q758 92 730 95T678 106T636 128T608 166Q577 126 534 108T442 90Q382 90 345 108T288 160T265 241T270 346L313 666Q322 726 337 771T378 847T441 893T530 909Q580 909 606 899T653 860L662 897H813L725 276Q719 230 733 214T795 197Q830 197 848 211T866 264V813Q866 896 847 955T787 1052T684 1108T537 1126Q366 1126 287 1051T207 809V180Q207 85 227 23T287 -77T390 -129T537 -145Q620 -145 684 -131T786 -88L864 -178Q807 -223 727 -241T537 -260ZM487 221Q516 221 533 230T559 257T573 297T582 346L625 664Q629 693 629 713T624 747T603 766T563 772Q536 772 519 766T492 745T475 708T465 651L422 342Q418 313 418 291T423 253T444 229T487 221Z"/><glyph unicode="A" horiz-adv-x="707" d="M258 1290H449L692 0H514L459 297H242L186 0H16L258 1290ZM440 442L389 748L352 971L315 748L262 442H440Z"/><glyph unicode="B" horiz-adv-x="739" d="M74 1282H336Q422 1282 486 1270T594 1224T658 1129T680 969V932Q680 829 653 774T571 692Q601 679 623 659T660 607T682 534T690 434V324Q690 222 669 159T604 60T497 12T346 0H74V1282ZM352 152Q405 152 437 161T486 192T508 245T514 324V438Q514 489 509 521T486 573T437 600T352 608H252V152H352ZM344 760Q396 760 427 768T476 796T498 849T504 932V961Q504 1007 499 1039T476 1091T427 1120T342 1130H252V760H344Z"/><glyph unicode="C" horiz-adv-x="733" d="M375 -8Q291 -8 230 13T130 78T72 191T53 354V942Q53 1119 132 1205T379 1292Q474 1292 535 1272T633 1205T686 1085T707 905L522 889Q520 958 517 1004T500 1078T458 1118T377 1130Q305 1130 269 1088T233 944V352Q233 301 239 263T261 200T307 163T383 150Q430 150 457 160T499 197T520 272T532 397L711 381Q705 284 689 211T637 90T537 17T375 -8Z"/><glyph unicode="D" horiz-adv-x="784" d="M74 1282H393Q494 1282 559 1257T663 1187T716 1083T731 952V352Q731 272 715 207T659 96T556 25T395 0H74V1282ZM395 156Q440 156 470 167T518 201T543 262T551 350V950Q551 994 544 1026T518 1081T470 1113T393 1124H252V156H395Z"/><glyph unicode="E" horiz-adv-x="653" d="M74 1282H618V1120H252V782H557V627H252V160H618V0H74V1282Z"/><glyph unicode="F" horiz-adv-x="639" d="M74 1282H618V1120H252V772H557V616H252V0H74V1282Z"/><glyph unicode="G" horiz-adv-x="764" d="M362 -8Q278 -8 220 14T124 81T70 194T53 354V942Q53 1034 74 1100T136 1209T239 1272T381 1292Q487 1292 549 1264T645 1188T690 1073T707 932L524 911Q521 978 516 1020T496 1087T453 1121T377 1130Q333 1130 305 1117T261 1080T239 1021T233 944V352Q233 304 238 266T260 203T307 164T387 150Q440 150 470 165T515 218T534 321T539 485V545H383V700H707V0H575L561 68Q527 30 480 11T362 -8Z"/><glyph unicode="H" horiz-adv-x="795" d="M543 637H252V0H74V1282H252V799H543V1282H719V0H543V637Z"/><glyph unicode="I" horiz-adv-x="334" d="M78 1282H254V0H78V1282Z"/><glyph unicode="J" horiz-adv-x="639" d="M293 -8Q203 -8 149 16T65 90T26 212T16 383L193 391Q194 313 198 266T213 193T244 159T297 150Q334 150 354 159T385 192T397 253T399 350V1282H578V346Q578 267 571 202T534 90T448 18T293 -8Z"/><glyph unicode="K" horiz-adv-x="727" d="M332 659L252 520V0H74V1282H252V805L518 1282H698L463 858L715 0H528L332 659Z"/><glyph unicode="L" horiz-adv-x="629" d="M74 1282H252V160H608V0H74V1282Z"/><glyph unicode="M" horiz-adv-x="1026" d="M74 1282H340L514 391L686 1282H950V0H778V1022L737 784L590 0H428L279 784L240 1022V0H74V1282Z"/><glyph unicode="N" horiz-adv-x="776" d="M74 1282H303L532 514V1282H700V0H528L244 934V0H74V1282Z"/><glyph unicode="O" horiz-adv-x="778" d="M387 -8Q220 -8 137 77T53 354V942Q53 1024 72 1089T131 1199T235 1268T387 1292Q478 1292 541 1269T645 1202T704 1094T723 948V356Q723 259 703 190T640 77T535 13T387 -8ZM387 150Q424 150 453 159T502 192T534 253T545 350V946Q545 1046 507 1088T387 1130Q307 1130 270 1087T233 944V352Q233 293 242 254T269 192T317 160T387 150Z"/><glyph unicode="P" horiz-adv-x="713" d="M74 1282H346Q432 1282 496 1269T604 1220T668 1120T690 952V852Q690 749 668 685T603 584T496 535T346 522H252V0H74V1282ZM352 676Q405 676 437 684T486 711T508 763T514 846V954Q514 999 509 1031T486 1085T437 1116T352 1126H252V676H352Z"/><glyph unicode="Q" horiz-adv-x="778" d="M430 -2Q419 -2 409 -3T387 -4Q303 -4 241 16T137 79T74 190T53 354V942Q53 1024 72 1089T131 1199T235 1268T387 1292Q478 1292 541 1269T645 1202T704 1094T723 948V356Q723 131 604 49L723 -135L575 -225L430 -2ZM387 150Q424 150 453 159T502 191T534 252T545 348V946Q545 1046 507 1088T387 1130Q307 1130 270 1087T233 944V350Q233 292 242 254T269 192T317 160T387 150Z"/><glyph unicode="R" horiz-adv-x="727" d="M74 1282H338Q424 1282 488 1269T596 1220T660 1120T682 952V866Q682 797 672 746T641 659T591 599T520 563L678 0H496L344 543H338H252V0H74V1282ZM346 694Q398 694 429 702T478 729T500 781T506 864V954Q506 999 501 1031T478 1085T429 1116T344 1126H252V694H346Z"/><glyph unicode="S" horiz-adv-x="723" d="M362 -8Q263 -8 200 17T101 88T49 201T31 348L211 371Q215 299 222 256T247 190T293 160T367 152Q411 152 439 163T482 193T504 238T510 295Q510 335 498 368T459 435T391 511T291 608Q235 660 191 705T115 796T66 889T49 997Q49 1145 130 1218T362 1292Q444 1292 500 1274T594 1219T649 1124T674 987L494 969Q490 1017 483 1048T462 1098T424 1123T365 1130Q325 1130 299 1122T256 1097T234 1056T227 1001Q227 969 237 942T269 885T326 821T410 739Q477 674 528 623T615 521T669 417T688 293Q688 221 670 165T612 71T510 12T362 -8Z"/><glyph unicode="T" horiz-adv-x="678" d="M252 1120H18V1282H659V1120H430V0H252V1120Z"/><glyph unicode="U" horiz-adv-x="774" d="M389 -8Q305 -8 244 10T142 71T83 180T63 344V1282H242V352Q242 293 250 254T275 192T320 160T389 150Q426 150 453 159T499 192T527 253T537 350V1282H711V346Q711 249 693 182T635 72T535 11T389 -8Z"/><glyph unicode="V" horiz-adv-x="707" d="M16 1282H193L309 647L358 348L403 645L520 1282H692L449 -8H258L16 1282Z"/><glyph unicode="W" horiz-adv-x="1098" d="M35 1282H207L289 705L326 422L369 705L463 1282H635L727 705L768 422L807 705L893 1282H1063L864 -6H684L543 862L401 -6H223L35 1282Z"/><glyph unicode="X" horiz-adv-x="713" d="M348 463L180 0H6L264 682L37 1282H217L365 895L504 1282H678L449 678L709 0H526L348 463Z"/><glyph unicode="Y" horiz-adv-x="735" d="M279 518L16 1282H201L369 760L543 1282H719L455 518V0H279V518Z"/><glyph unicode="Z" horiz-adv-x="629" d="M27 147L401 1120H33V1282H596V1130L221 160H602V0H27V147Z"/><glyph unicode="[" horiz-adv-x="420" d="M78 1282H387V1120H254V-166H387V-324H78V1282Z"/><glyph unicode="\" horiz-adv-x="516" d="M0 1282H180L516 0H336L0 1282Z"/><glyph unicode="]" horiz-adv-x="420" d="M33 -164H166V1122H33V1282H342V-324H33V-164Z"/><glyph unicode="^" horiz-adv-x="766" d="M283 1149H485L610 895H465L381 1049L299 895H158L283 1149Z"/><glyph unicode="_" horiz-adv-x="489" d="M-45 -98H532V-246H-45V-98Z"/><glyph unicode="`" horiz-adv-x="766" d="M180 1262H360L465 1008H309L180 1262Z"/><glyph unicode="a" horiz-adv-x="623" d="M242 -8Q183 -8 146 7T86 54T56 138T47 264Q47 349 59 411T110 518T220 592T410 643V657Q410 711 389 736T311 762Q287 762 271 758T243 744T224 718T209 678L45 735Q57 774 77 806T131 862T213 898T330 911Q405 911 452 896T526 851T563 776T573 670V0H410V70Q396 52 382 38T348 14T303 -2T242 -8ZM303 133Q336 133 357 144T389 175T405 221T410 279V506Q345 491 306 475T247 433T221 368T215 268Q215 230 217 204T228 162T254 140T303 133Z"/><glyph unicode="b" horiz-adv-x="655" d="M383 -8Q333 -8 294 2T225 47V0H57V1313H225V840Q250 874 288 892T385 911Q446 911 489 892T559 836T598 748T610 629V281Q610 212 599 159T561 68T491 12T383 -8ZM334 143Q365 143 385 150T418 174T435 217T440 281V621Q440 653 436 679T419 723T386 750T332 760Q298 760 277 749T245 718T229 672T225 616V270Q225 202 248 173T334 143Z"/><glyph unicode="c" horiz-adv-x="614" d="M317 -8Q185 -8 115 59T45 276V623Q45 692 57 745T101 836T184 892T315 911Q390 911 440 897T521 849T568 761T590 627L416 602Q414 650 410 680T394 728T363 752T311 758Q282 758 263 751T234 727T219 686T215 623V279Q215 239 221 213T240 171T272 149T319 143Q346 143 364 147T394 166T413 208T426 283L594 260Q583 186 564 135T513 52T434 6T317 -8Z"/><glyph unicode="d" horiz-adv-x="655" d="M270 -8Q208 -8 165 11T96 67T57 155T45 274V623Q45 691 56 744T94 835T163 891T272 911Q320 911 359 901T430 856V1313H598V0H430V63Q404 29 366 11T270 -8ZM324 143Q354 143 373 152T405 177T422 216T430 264V639Q430 704 405 731T322 758Q259 758 237 726T215 621V281Q215 249 219 224T236 180T270 153T324 143Z"/><glyph unicode="e" horiz-adv-x="625" d="M322 -8Q179 -8 112 60T45 276V623Q45 693 58 747T104 837T190 892T322 911Q402 911 452 891T532 833T571 743T582 627V397H211V279Q211 200 236 168T319 135Q350 135 368 141T395 162T409 201T418 264L575 240Q567 186 556 141T518 62T446 11T322 -8ZM211 539H416V625Q416 658 414 683T402 726T372 753T317 762Q282 762 262 753T230 727T215 683T211 623V539Z"/><glyph unicode="f" horiz-adv-x="414" d="M12 897H113V1108Q113 1159 123 1197T158 1261T221 1300T317 1313H403V1161H360Q313 1161 296 1145T279 1079V897H403V741H279V0H113V741H12V897Z"/><glyph unicode="g" horiz-adv-x="655" d="M332 -334Q256 -334 206 -320T125 -280T76 -216T49 -133L209 -84Q216 -116 223 -135T243 -166T276 -182T328 -186Q386 -186 408 -160T430 -70V68Q404 32 366 14T270 -4Q208 -4 165 14T96 69T57 156T45 274V623Q45 691 56 744T94 835T163 891T272 911Q320 911 359 901T430 856V897H598V-66Q598 -124 587 -173T547 -258T466 -314T332 -334ZM324 143Q355 143 375 152T407 179T424 219T430 270V639Q430 704 405 731T322 758Q259 758 237 726T215 621V281Q215 249 219 224T236 180T270 153T324 143Z"/><glyph unicode="h" horiz-adv-x="657" d="M57 1313H225V838Q257 870 300 890T412 911Q476 911 514 895T573 847T600 771T606 670V0H438V647Q438 706 419 732T346 758Q313 758 290 753T253 732T232 687T225 610V0H57V1313Z"/><glyph unicode="i" horiz-adv-x="289" d="M61 897H227V0H61V897ZM57 1210H231V1008H57V1210Z"/><glyph unicode="j" horiz-adv-x="289" d="M-45 -174H-25Q3 -174 20 -171T46 -157T58 -123T61 -63V897H227V-72Q227 -143 218 -191T182 -269T110 -311T-10 -324H-45V-174ZM57 1210H231V1008H57V1210Z"/><glyph unicode="k" horiz-adv-x="573" d="M289 428L225 307V0H57V1313H225V592L391 897H555L408 629L557 0H387L289 428Z"/><glyph unicode="l" horiz-adv-x="289" d="M61 1313H227V0H61V1313Z"/><glyph unicode="m" horiz-adv-x="1004" d="M57 897H225V842Q256 873 299 892T403 911Q474 911 511 891T567 831Q601 867 650 889T766 911Q830 911 867 895T923 847T947 771T952 670V0H784V647Q784 676 781 697T768 731T743 751T700 758Q668 758 647 753T613 732T595 687T590 610V0H420V647Q420 676 417 697T405 731T380 751T338 758Q305 758 283 753T249 732T231 687T225 610V0H57V897Z"/><glyph unicode="n" horiz-adv-x="657" d="M57 897H225V838Q257 870 303 890T412 911Q476 911 514 895T573 847T600 771T606 670V0H438V647Q438 706 419 732T346 758Q313 758 290 753T253 732T232 687T225 610V0H57V897Z"/><glyph unicode="o" horiz-adv-x="643" d="M322 -8Q182 -8 114 59T45 276V623Q45 699 60 754T109 843T194 894T322 911Q396 911 448 896T534 846T582 759T598 629V281Q598 130 530 61T322 -8ZM322 143Q380 143 404 173T428 279V625Q428 663 423 688T406 729T373 751T322 758Q292 758 272 751T239 729T221 687T215 623V279Q215 203 240 173T322 143Z"/><glyph unicode="p" horiz-adv-x="655" d="M57 897H225V840Q250 874 288 892T385 911Q446 911 489 892T559 836T598 748T610 629V283Q610 214 599 161T561 70T491 14T383 -6Q333 -6 294 5T225 51V-324H57V897ZM334 145Q365 145 385 152T418 177T435 220T440 285V621Q440 653 436 679T419 723T386 750T332 760Q301 760 281 751T249 725T231 686T225 637V272Q225 237 230 213T248 174T282 152T334 145Z"/><glyph unicode="q" horiz-adv-x="655" d="M430 63Q404 29 366 11T270 -8Q208 -8 165 11T96 67T57 155T45 274V623Q45 691 56 744T94 835T163 891T272 911Q320 911 359 901T430 856V897H598V-324H430V63ZM324 143Q354 143 373 152T405 177T422 216T430 264V639Q430 704 405 731T322 758Q259 758 237 726T215 621V281Q215 249 219 224T236 180T270 153T324 143Z"/><glyph unicode="r" horiz-adv-x="393" d="M57 897H225V825Q254 857 293 876T383 897V743Q337 738 307 731T259 706T234 656T225 571V0H57V897Z"/><glyph unicode="s" horiz-adv-x="600" d="M301 -8Q233 -8 185 6T105 49T56 125T35 236L195 264Q199 224 204 199T220 159T249 139T297 133Q352 133 372 152T393 221Q393 244 384 263T354 303T303 349T229 410Q191 438 160 465T105 523T68 590T55 672Q55 723 65 766T104 842T179 892T301 911Q367 911 413 898T490 857T536 790T557 694L395 670Q393 694 390 712T378 742T352 760T303 766Q257 766 240 746T223 684Q223 661 231 642T255 605T295 566T354 520Q400 484 438 453T503 389T544 318T559 227Q559 106 497 49T301 -8Z"/><glyph unicode="t" horiz-adv-x="440" d="M6 897H106V1180H274V897H399V741H274V233Q274 209 277 193T290 168T316 156T356 152H399V0H313Q200 0 153 50T106 201V741H6V897Z"/><glyph unicode="u" horiz-adv-x="655" d="M244 -8Q180 -8 142 8T84 56T57 132T51 233V897H217V256Q217 196 238 170T311 143Q342 143 364 148T400 168T421 212T430 289V897H598V0H430V61Q396 30 350 11T244 -8Z"/><glyph unicode="v" horiz-adv-x="586" d="M12 897H184L262 487L295 299L328 485L408 897H575L383 -6H199L12 897Z"/><glyph unicode="w" horiz-adv-x="967" d="M16 897H184L254 512L287 307L326 510L406 897H569L647 512L686 307L721 512L788 897H952L774 -6H608L481 563L356 -6H190L16 897Z"/><glyph unicode="x" horiz-adv-x="584" d="M205 471L33 897H207L301 664L387 897H547L377 477L569 0H395L281 283L174 0H12L205 471Z"/><glyph unicode="y" horiz-adv-x="586" d="M78 -172H117Q132 -172 143 -171T162 -164T176 -148T186 -119L209 -8L12 897H182L260 516L297 315L332 514L410 897H573L336 -158Q327 -199 313 -230T276 -281T219 -312T135 -322H78V-172Z"/><glyph unicode="z" horiz-adv-x="551" d="M37 141L307 741H49V897H500V752L229 152H514V0H37V141Z"/><glyph unicode="{" horiz-adv-x="492" d="M395 -324Q323 -324 273 -309T192 -260T150 -171T147 -35L182 297Q188 351 164 374T80 397H45V561H80Q140 561 163 584T182 662L147 991Q140 1071 151 1126T192 1216T273 1266T397 1282H459V1120H426Q399 1120 379 1115T346 1096T328 1059T326 1001L362 649Q369 589 347 548T270 481Q327 455 348 412T362 309L326 -45Q319 -114 345 -139T426 -164H459V-324H395V-324Z"/><glyph unicode="|" horiz-adv-x="422" d="M123 1282H299V-354H123V1282Z"/><glyph unicode="}" horiz-adv-x="492" d="M33 -164H68Q122 -164 148 -139T168 -45L131 309Q125 368 145 411T223 481Q169 507 147 548T131 649L168 1001Q171 1036 166 1059T148 1095T115 1114T68 1120H33V1282H96Q169 1282 220 1267T301 1217T341 1127T344 991L309 662Q304 608 328 585T412 561H449V397H412Q352 397 328 374T309 297L344 -35Q352 -116 342 -171T301 -260T220 -309T96 -324H33V-164Z"/><glyph unicode="~" horiz-adv-x="766" d="M133 1146Q133 1211 139 1254T161 1324T203 1360T268 1371Q302 1371 332 1357T389 1326T435 1295T471 1281Q480 1281 485 1284T494 1298T497 1326T498 1373H631Q631 1317 627 1275T609 1205T569 1163T498 1148Q466 1148 436 1161T378 1191T330 1222T293 1236Q274 1236 269 1217T264 1146H133V1146Z"/><glyph unicode=" " horiz-adv-x="188"/><glyph unicode="¡" horiz-adv-x="428" d="M121 213L145 926H285L307 213V0H121V213ZM121 1282H307V1081H121V1282Z"/><glyph unicode="¢" horiz-adv-x="666" d="M256 2Q165 21 118 86T70 276V623Q70 681 79 728T110 810T167 867T256 899V1081H420V901Q472 894 507 876T564 825T598 743T614 627L444 600Q441 655 436 687T420 734T389 754T338 758Q309 758 290 751T259 727T243 686T238 623V279Q238 239 244 213T264 171T298 149T344 143Q370 143 389 147T421 165T442 207T455 285L621 260Q611 198 596 153T557 76T500 26T420 0V-225H256V2Z"/><glyph unicode="£" horiz-adv-x="782" d="M45 700H156Q140 775 128 846T115 971Q115 1049 131 1108T182 1209T275 1271T414 1292Q501 1292 560 1271T658 1210T718 1114T748 989L565 954Q561 998 554 1031T530 1087T487 1121T418 1133Q378 1133 353 1122T315 1089T296 1037T291 967Q291 917 305 847T336 700H569V553H367Q375 515 379 480T383 416Q383 369 379 332T364 264T340 208T305 160H737V0H76V129Q112 161 137 190T177 251T200 321T207 412Q207 440 202 475T188 553H45V700Z"/><glyph unicode="¥" horiz-adv-x="752" d="M76 575H268L31 1282H215L377 745L543 1282H719L475 575H672V446H457V313H672V184H457V0H289V184H76V313H289V446H76V575Z"/><glyph unicode="¦" horiz-adv-x="422" d="M123 332H299V-354H123V332ZM123 1282H299V598H123V1282Z"/><glyph unicode="§" horiz-adv-x="647" d="M324 -8Q258 -8 211 5T133 45T86 112T66 209L227 233Q228 205 232 186T246 155T274 138T324 133Q367 133 386 155T406 219Q406 255 380 286T314 347T228 411T142 482T76 568T49 676Q49 757 76 804T160 872Q126 910 105 951T84 1044Q84 1095 95 1139T136 1216T213 1267T336 1286Q402 1286 450 1272T529 1231T577 1162T598 1065L436 1040Q434 1069 430 1088T416 1119T388 1136T338 1141Q252 1141 252 1057Q252 1021 278 991T345 929T432 866T519 794T585 708T612 600Q612 519 584 471T498 401Q530 366 550 324T571 231Q571 180 560 137T521 61T445 11T324 -8ZM444 594Q444 617 431 638T394 681T342 724T281 770Q243 764 229 744T215 682Q215 658 229 636T265 593T317 551T379 506Q414 511 429 531T444 594Z"/><glyph unicode="¨" horiz-adv-x="766" d="M176 1198H334V1008H176V1198ZM432 1198H592V1008H432V1198Z"/><glyph unicode="©" horiz-adv-x="1032" d="M514 188Q395 188 339 248T283 440V850Q283 1092 516 1092Q584 1092 629 1078T702 1032T741 949T756 825L616 801Q614 852 612 884T599 936T570 963T516 971Q492 971 474 966T444 947T425 910T418 850V436Q418 401 422 377T439 337T471 316T522 309Q553 309 571 314T600 338T616 389T625 479L758 457Q755 392 743 342T704 257T630 206T514 188ZM514 -8Q296 -8 190 90T84 381V918Q84 1000 108 1069T185 1187T318 1264T514 1292Q631 1292 713 1265T848 1190T925 1073T950 924V383Q950 189 843 91T514 -8ZM514 94Q679 94 761 164T844 383V924Q844 984 826 1033T767 1117T665 1171T514 1190Q428 1190 367 1170T265 1114T207 1028T188 918V381Q188 233 270 164T514 94Z"/><glyph unicode="ª" horiz-adv-x="625" d="M244 473Q193 473 160 486T108 529T80 604T72 715Q72 791 83 847T128 943T224 1010T391 1055V1067Q391 1113 374 1136T305 1159Q284 1159 270 1155T247 1142T232 1119T219 1083L70 1137Q80 1172 98 1200T146 1249T219 1281T322 1292Q389 1292 431 1279T497 1240T530 1173T539 1077V481H391V543Q379 527 366 514T337 492T298 478T244 473ZM297 602Q327 602 345 611T374 638T387 678T391 729V934Q334 920 301 905T250 867T228 810T223 721Q223 686 225 664T234 627T256 608T297 602Z"/><glyph unicode="«" horiz-adv-x="711" d="M49 451L182 897H352L217 451L352 0H182L49 451ZM356 451L492 897H657L524 451L657 0H492L356 451Z"/><glyph unicode="¬" horiz-adv-x="1536" d="M1116 352V728H212V920H1296V352H1116Z"/><glyph unicode="­" horiz-adv-x="424" d="M14 610H410V459H14V610Z"/><glyph unicode="®" horiz-adv-x="1032" d="M322 1081H498Q558 1081 603 1071T679 1036T725 966T741 854V793Q741 703 714 656T633 588L731 223H598L508 569H451V223H322V1081ZM514 -8Q296 -8 190 90T84 381V918Q84 1000 108 1069T185 1187T318 1264T514 1292Q631 1292 713 1265T848 1190T925 1073T950 924V383Q950 189 843 91T514 -8ZM514 94Q679 94 761 164T844 383V924Q844 984 826 1033T767 1117T665 1171T514 1190Q428 1190 367 1170T265 1114T207 1028T188 918V381Q188 233 270 164T514 94ZM504 680Q539 680 560 684T593 701T608 735T612 791V856Q612 887 609 908T593 943T560 961T502 967H451V680H504Z"/><glyph unicode="¯" horiz-adv-x="766" d="M158 1149H610V1008H158V1149Z"/><glyph unicode="°" horiz-adv-x="635" d="M317 463Q203 463 145 517T86 684V1077Q86 1125 99 1165T141 1233T213 1276T317 1292Q438 1292 493 1235T549 1081V686Q549 572 491 518T317 463ZM317 596Q359 596 382 617T406 692V1073Q406 1159 317 1159Q231 1159 231 1071V690Q231 638 253 617T317 596Z"/><glyph unicode="±" horiz-adv-x="745" d="M39 721H291V1004H453V721H707V569H453V291H291V569H39V721ZM39 152H707V0H39V152Z"/><glyph unicode="²" horiz-adv-x="618" d="M72 471Q72 538 95 595T154 702T229 796T305 882T363 962T387 1042Q387 1072 385 1093T374 1127T349 1147T305 1153Q278 1153 261 1145T234 1121T219 1082T211 1028L59 1047Q65 1107 80 1152T124 1228T198 1274T309 1290Q378 1290 422 1276T492 1233T527 1158T537 1049Q537 995 518 949T468 860T402 777T332 696T271 613T231 522H543V385H72V471Z"/><glyph unicode="³" horiz-adv-x="641" d="M324 379Q259 379 215 393T142 440T98 524T76 649L229 666Q232 622 237 593T252 547T278 523T322 516Q350 516 367 523T394 545T407 584T410 643V698Q410 729 405 748T388 778T355 791T305 795H240V926H303Q332 926 351 929T381 943T396 972T401 1022V1059Q401 1083 399 1101T388 1131T365 1149T326 1155Q299 1155 283 1150T256 1131T240 1096T229 1042L82 1065Q91 1126 108 1169T153 1240T224 1279T328 1292Q391 1292 433 1279T502 1239T540 1172T551 1077V1024Q551 962 532 925T473 868Q520 850 539 810T559 694V629Q559 564 547 517T508 439T435 394T324 379Z"/><glyph unicode="´" horiz-adv-x="766" d="M403 1262H586L457 1008H301L403 1262Z"/><glyph unicode="µ" horiz-adv-x="662" d="M57 897H225V256Q225 196 245 170T317 143Q351 143 374 148T410 170T430 218T436 303V897H604V0H436V66Q411 41 372 25T287 6Q270 6 254 9T225 23V-324H57V897Z"/><glyph unicode="¶" horiz-adv-x="780" d="M238 659Q193 670 159 691T102 748T67 832T55 950V979Q55 1070 75 1129T136 1222T238 1269T381 1282H682V0H506V645H414V0H238V659Z"/><glyph unicode="·" horiz-adv-x="305" d="M59 768H246V557H59V768Z"/><glyph unicode="¸" horiz-adv-x="995" d="M518 -375Q461 -375 428 -363T377 -330T353 -282T342 -223L457 -209Q459 -227 462 -240T471 -261T489 -272T518 -276Q537 -276 548 -273T566 -260T573 -235T575 -195Q575 -150 568 -134T528 -117Q511 -117 502 -120T485 -131L399 -102L453 41H559L526 -43Q534 -40 544 -40T569 -39Q601 -39 624 -46T663 -72T686 -120T694 -197Q694 -246 688 -280T662 -335T609 -365T518 -375Z"/><glyph unicode="¹" horiz-adv-x="526" d="M211 1141H88V1282H365V387H211V1141Z"/><glyph unicode="º" horiz-adv-x="631" d="M315 473Q194 473 133 533T72 725V1034Q72 1103 85 1151T128 1231T203 1277T315 1292Q381 1292 428 1278T504 1234T547 1156T561 1040V729Q561 595 501 534T315 473ZM315 610Q342 610 360 616T388 636T403 672T408 729V1038Q408 1072 404 1094T390 1130T361 1149T315 1155Q262 1155 243 1129T223 1036V729Q223 695 228 673T244 636T272 616T315 610Z"/><glyph unicode="»" horiz-adv-x="711" d="M186 449L53 897H221L356 449L221 0H53L186 449ZM496 449L360 897H528L662 449L528 0H360L496 449Z"/><glyph unicode="¼" horiz-adv-x="1274" d="M948 190H662V326L936 895H1094V326H1186V190H1094V0H948V190ZM698 1282H858L463 0H303L698 1282ZM195 1141H74V1282H350V387H195V1141ZM948 326V631L801 326H948Z"/><glyph unicode="½" horiz-adv-x="1307" d="M758 86Q758 153 781 210T840 317T915 410T991 495T1049 574T1073 653Q1073 684 1071 705T1060 739T1035 758T991 764Q965 764 949 756T922 732T906 693T897 639L748 659Q754 718 769 763T812 839T884 885T993 901Q1064 901 1108 887T1178 844T1213 769T1223 659Q1223 606 1204 560T1154 471T1088 389T1018 309T957 227T918 137H1229V0H758V86ZM698 1282H858L463 0H303L698 1282ZM195 1141H74V1282H350V387H195V1141Z"/><glyph unicode="¾" horiz-adv-x="1438" d="M1112 190H823V326L1100 895H1255V326H1350V190H1255V0H1112V190ZM315 379Q250 379 206 393T134 440T90 524T70 649L219 666Q223 622 228 593T243 547T269 523T313 516Q341 516 358 523T385 545T398 584T401 643V698Q401 729 396 748T379 778T347 791T297 795H231V926H295Q325 926 344 929T374 943T389 972T393 1022V1059Q393 1083 391 1101T380 1131T357 1149T317 1155Q290 1155 274 1150T247 1131T231 1096T221 1042L74 1065Q84 1126 101 1169T146 1240T217 1279T322 1292Q384 1292 426 1279T494 1239T531 1172T543 1077V1024Q543 962 524 925T465 868Q511 850 532 810T553 694V629Q553 564 541 517T501 439T428 394T315 379ZM860 1282H1020L627 0H465L860 1282ZM1112 326V635L965 326H1112Z"/><glyph unicode="¿" horiz-adv-x="721" d="M348 -10Q262 -10 204 9T110 68T59 166T43 305Q43 364 59 415T100 512T153 600T206 682T247 764T264 850V926H440V854Q440 791 424 740T384 643T331 558T278 479T237 399T221 311Q221 273 224 243T240 193T279 161T350 150Q389 150 415 160T458 191T483 243T496 319L678 293Q670 232 652 177T596 81T498 15T348 -10ZM254 1282H442V1081H254V1282Z"/><glyph unicode="À" horiz-adv-x="707" d="M258 1290H449L692 0H514L459 297H242L186 0H16L258 1290ZM440 442L389 748L352 971L315 748L262 442H440ZM154 1616H334L439 1362H283L154 1616Z"/><glyph unicode="Á" horiz-adv-x="707" d="M258 1290H449L692 0H514L459 297H242L186 0H16L258 1290ZM440 442L389 748L352 971L315 748L262 442H440ZM377 1616H560L431 1362H275L377 1616Z"/><glyph unicode="Â" horiz-adv-x="707" d="M258 1290H449L692 0H514L459 297H242L186 0H16L258 1290ZM440 442L389 748L352 971L315 748L262 442H440ZM257 1616H459L584 1362H439L355 1515L273 1362H132L257 1616Z"/><glyph unicode="Ã" horiz-adv-x="707" d="M258 1290H449L692 0H514L459 297H242L186 0H16L258 1290ZM440 442L389 748L352 971L315 748L262 442H440ZM107 1362Q107 1427 113 1470T135 1540T177 1576T242 1587Q276 1587 306 1573T363 1542T409 1511T445 1497Q454 1497 459 1500T468 1514T471 1542T472 1589H605Q605 1533 601 1491T583 1421T543 1379T472 1364Q440 1364 410 1377T352 1407T304 1438T267 1452Q248 1452 243 1433T238 1362H107V1362Z"/><glyph unicode="Ä" horiz-adv-x="707" d="M258 1290H449L692 0H514L459 297H242L186 0H16L258 1290ZM440 442L389 748L352 971L315 748L262 442H440ZM150 1552H308V1362H150V1552ZM406 1552H566V1362H406V1552Z"/><glyph unicode="Å" horiz-adv-x="707" d="M258 1290H449L692 0H514L459 297H242L186 0H16L258 1290ZM440 442L389 748L352 971L315 748L262 442H440ZM357 1201Q303 1201 272 1215T223 1254T201 1311T196 1379Q196 1414 201 1446T223 1502T271 1540T357 1555Q411 1555 443 1541T492 1502T514 1446T519 1379Q519 1344 514 1312T492 1255T443 1216T357 1201ZM357 1291Q381 1291 394 1297T413 1316T420 1344T421 1379Q421 1397 420 1413T413 1441T394 1460T357 1467Q333 1467 321 1460T302 1441T295 1413T294 1379Q294 1360 295 1344T302 1316T320 1298T357 1291Z"/><glyph unicode="Æ" horiz-adv-x="1100" d="M389 1282H1063V1120H698V782H1001V627H698V160H1063V0H524V309H279L190 0H18L389 1282ZM524 457V1153L322 457H524Z"/><glyph unicode="Ç" horiz-adv-x="733" d="M375 -8Q291 -8 230 13T130 78T72 191T53 354V942Q53 1119 132 1205T379 1292Q474 1292 535 1272T633 1205T686 1085T707 905L522 889Q520 958 517 1004T500 1078T458 1118T377 1130Q305 1130 269 1088T233 944V352Q233 301 239 263T261 200T307 163T383 150Q430 150 457 160T499 197T520 272T532 397L711 381Q705 284 689 211T637 90T537 17T375 -8ZM646 -375Q589 -375 556 -363T505 -330T481 -282T470 -223L585 -209Q587 -227 590 -240T599 -261T617 -272T646 -276Q665 -276 676 -273T694 -260T701 -235T703 -195Q703 -150 696 -134T656 -117Q639 -117 630 -120T613 -131L527 -102L581 41H687L654 -43Q662 -40 672 -40T697 -39Q729 -39 752 -46T791 -72T814 -120T822 -197Q822 -246 816 -280T790 -335T737 -365T646 -375Z"/><glyph unicode="È" horiz-adv-x="653" d="M74 1282H618V1120H252V782H557V627H252V160H618V0H74V1282ZM128 1616H308L413 1362H257L128 1616Z"/><glyph unicode="É" horiz-adv-x="653" d="M351 1616H534L405 1362H249L351 1616ZM74 1282H618V1120H252V782H557V627H252V160H618V0H74V1282Z"/><glyph unicode="Ê" horiz-adv-x="653" d="M243 1616H445L570 1362H425L341 1515L259 1362H118L243 1616ZM74 1282H618V1120H252V782H557V627H252V160H618V0H74V1282Z"/><glyph unicode="Ë" horiz-adv-x="653" d="M134 1552H292V1362H134V1552ZM390 1552H550V1362H390V1552ZM74 1282H618V1120H252V782H557V627H252V160H618V0H74V1282Z"/><glyph unicode="Ì" horiz-adv-x="334" d="M78 1282H254V0H78V1282ZM-32 1616H148L253 1362H97L-32 1616Z"/><glyph unicode="Í" horiz-adv-x="334" d="M78 1282H254V0H78V1282ZM191 1616H374L245 1362H89L191 1616Z"/><glyph unicode="Î" horiz-adv-x="334" d="M78 1282H254V0H78V1282ZM71 1616H273L398 1362H253L169 1515L87 1362H-54L71 1616Z"/><glyph unicode="Ï" horiz-adv-x="334" d="M78 1282H254V0H78V1282ZM-36 1552H122V1362H-36V1552ZM220 1552H380V1362H220V1552Z"/><glyph unicode="Ð" horiz-adv-x="784" d="M0 797H74V1282H393Q494 1282 559 1257T663 1187T716 1083T731 952V352Q731 272 715 207T659 96T556 25T395 0H74V645H0V797ZM395 156Q440 156 470 167T518 201T543 262T551 350V950Q551 994 544 1026T518 1081T470 1113T393 1124H252V797H430V645H252V156H395Z"/><glyph unicode="Ñ" horiz-adv-x="776" d="M74 1282H303L532 514V1282H700V0H528L244 934V0H74V1282ZM137 1362Q137 1427 143 1470T165 1540T207 1576T272 1587Q306 1587 336 1573T393 1542T439 1511T475 1497Q484 1497 489 1500T498 1514T501 1542T502 1589H635Q635 1533 631 1491T613 1421T573 1379T502 1364Q470 1364 440 1377T382 1407T334 1438T297 1452Q278 1452 273 1433T268 1362H137V1362Z"/><glyph unicode="Ò" horiz-adv-x="778" d="M387 -8Q220 -8 137 77T53 354V942Q53 1024 72 1089T131 1199T235 1268T387 1292Q478 1292 541 1269T645 1202T704 1094T723 948V356Q723 259 703 190T640 77T535 13T387 -8ZM387 150Q424 150 453 159T502 192T534 253T545 350V946Q545 1046 507 1088T387 1130Q307 1130 270 1087T233 944V352Q233 293 242 254T269 192T317 160T387 150ZM184 1616H364L469 1362H313L184 1616Z"/><glyph unicode="Ó" horiz-adv-x="778" d="M407 1616H590L461 1362H305L407 1616ZM387 -8Q220 -8 137 77T53 354V942Q53 1024 72 1089T131 1199T235 1268T387 1292Q478 1292 541 1269T645 1202T704 1094T723 948V356Q723 259 703 190T640 77T535 13T387 -8ZM387 150Q424 150 453 159T502 192T534 253T545 350V946Q545 1046 507 1088T387 1130Q307 1130 270 1087T233 944V352Q233 293 242 254T269 192T317 160T387 150Z"/><glyph unicode="Ô" horiz-adv-x="778" d="M287 1616H489L614 1362H469L385 1515L303 1362H162L287 1616ZM387 -8Q220 -8 137 77T53 354V942Q53 1024 72 1089T131 1199T235 1268T387 1292Q478 1292 541 1269T645 1202T704 1094T723 948V356Q723 259 703 190T640 77T535 13T387 -8ZM387 150Q424 150 453 159T502 192T534 253T545 350V946Q545 1046 507 1088T387 1130Q307 1130 270 1087T233 944V352Q233 293 242 254T269 192T317 160T387 150Z"/><glyph unicode="Õ" horiz-adv-x="778" d="M387 -8Q220 -8 137 77T53 354V942Q53 1024 72 1089T131 1199T235 1268T387 1292Q478 1292 541 1269T645 1202T704 1094T723 948V356Q723 259 703 190T640 77T535 13T387 -8ZM387 150Q424 150 453 159T502 192T534 253T545 350V946Q545 1046 507 1088T387 1130Q307 1130 270 1087T233 944V352Q233 293 242 254T269 192T317 160T387 150ZM137 1362Q137 1427 143 1470T165 1540T207 1576T272 1587Q306 1587 336 1573T393 1542T439 1511T475 1497Q484 1497 489 1500T498 1514T501 1542T502 1589H635Q635 1533 631 1491T613 1421T573 1379T502 1364Q470 1364 440 1377T382 1407T334 1438T297 1452Q278 1452 273 1433T268 1362H137V1362Z"/><glyph unicode="Ö" horiz-adv-x="778" d="M180 1552H338V1362H180V1552ZM436 1552H596V1362H436V1552ZM387 -8Q220 -8 137 77T53 354V942Q53 1024 72 1089T131 1199T235 1268T387 1292Q478 1292 541 1269T645 1202T704 1094T723 948V356Q723 259 703 190T640 77T535 13T387 -8ZM387 150Q424 150 453 159T502 192T534 253T545 350V946Q545 1046 507 1088T387 1130Q307 1130 270 1087T233 944V352Q233 293 242 254T269 192T317 160T387 150Z"/><glyph unicode="×" horiz-adv-x="782" d="M72 420L285 633L72 848L176 952L389 737L604 952L711 848L496 633L709 420L606 315L391 528L178 315L72 420Z"/><glyph unicode="Ø" horiz-adv-x="778" d="M145 66Q99 111 76 181T53 354V942Q53 1024 72 1089T131 1199T235 1268T387 1292Q416 1292 442 1290T494 1282L524 1384H680L631 1217Q679 1173 701 1106T723 948V356Q723 259 703 190T640 77T535 13T387 -8Q359 -8 334 -6T285 0L248 -129H90L145 66ZM387 147Q424 147 453 156T503 189T534 251T545 348V950Q545 1049 507 1092T387 1135Q307 1135 269 1091T231 948V350Q231 291 240 252T268 190T317 157T387 147Z"/><glyph unicode="Ù" horiz-adv-x="774" d="M389 -8Q305 -8 244 10T142 71T83 180T63 344V1282H242V352Q242 293 250 254T275 192T320 160T389 150Q426 150 453 159T499 192T527 253T537 350V1282H711V346Q711 249 693 182T635 72T535 11T389 -8ZM182 1616H362L467 1362H311L182 1616Z"/><glyph unicode="Ú" horiz-adv-x="774" d="M405 1616H588L459 1362H303L405 1616ZM389 -8Q305 -8 244 10T142 71T83 180T63 344V1282H242V352Q242 293 250 254T275 192T320 160T389 150Q426 150 453 159T499 192T527 253T537 350V1282H711V346Q711 249 693 182T635 72T535 11T389 -8Z"/><glyph unicode="Û" horiz-adv-x="774" d="M285 1616H487L612 1362H467L383 1515L301 1362H160L285 1616ZM389 -8Q305 -8 244 10T142 71T83 180T63 344V1282H242V352Q242 293 250 254T275 192T320 160T389 150Q426 150 453 159T499 192T527 253T537 350V1282H711V346Q711 249 693 182T635 72T535 11T389 -8Z"/><glyph unicode="Ü" horiz-adv-x="774" d="M178 1552H336V1362H178V1552ZM434 1552H594V1362H434V1552ZM389 -8Q305 -8 244 10T142 71T83 180T63 344V1282H242V352Q242 293 250 254T275 192T320 160T389 150Q426 150 453 159T499 192T527 253T537 350V1282H711V346Q711 249 693 182T635 72T535 11T389 -8Z"/><glyph unicode="Ý" horiz-adv-x="735" d="M279 518L16 1282H201L369 760L543 1282H719L455 518V0H279V518ZM390 1616H573L444 1362H288L390 1616Z"/><glyph unicode="Þ" horiz-adv-x="713" d="M74 1282H252V1053H346Q432 1053 496 1040T604 991T668 891T690 723V623Q690 520 668 456T603 355T496 306T346 293H252V0H74V1282ZM352 446Q405 446 437 454T486 481T508 534T514 618V725Q514 770 509 802T486 856T437 887T352 897H252V446H352Z"/><glyph unicode="ß" horiz-adv-x="651" d="M57 1079Q57 1142 72 1186T119 1259T201 1300T322 1313Q455 1313 521 1259T588 1075V920Q588 878 584 845T570 787T541 744T494 715Q524 708 545 693T579 653T599 589T606 498V287Q606 212 594 158T549 69T461 17T322 0H287V147H324Q359 147 381 156T416 182T433 226T438 287V496Q438 530 434 555T416 598T380 623T319 631H287V782H322Q380 782 400 812T420 911V1065Q420 1116 398 1138T322 1161Q269 1161 247 1141T225 1073V0H57V1079Z"/><glyph unicode="à" horiz-adv-x="623" d="M242 -8Q183 -8 146 7T86 54T56 138T47 264Q47 349 59 411T110 518T220 592T410 643V657Q410 711 389 736T311 762Q287 762 271 758T243 744T224 718T209 678L45 735Q57 774 77 806T131 862T213 898T330 911Q405 911 452 896T526 851T563 776T573 670V0H410V70Q396 52 382 38T348 14T303 -2T242 -8ZM303 133Q336 133 357 144T389 175T405 221T410 279V506Q345 491 306 475T247 433T221 368T215 268Q215 230 217 204T228 162T254 140T303 133ZM367 1262H547L652 1008H496L367 1262Z"/><glyph unicode="á" horiz-adv-x="623" d="M242 -8Q183 -8 146 7T86 54T56 138T47 264Q47 349 59 411T110 518T220 592T410 643V657Q410 711 389 736T311 762Q287 762 271 758T243 744T224 718T209 678L45 735Q57 774 77 806T131 862T213 898T330 911Q405 911 452 896T526 851T563 776T573 670V0H410V70Q396 52 382 38T348 14T303 -2T242 -8ZM303 133Q336 133 357 144T389 175T405 221T410 279V506Q345 491 306 475T247 433T221 368T215 268Q215 230 217 204T228 162T254 140T303 133ZM590 1262H773L644 1008H488L590 1262Z"/><glyph unicode="â" horiz-adv-x="623" d="M242 -8Q183 -8 146 7T86 54T56 138T47 264Q47 349 59 411T110 518T220 592T410 643V657Q410 711 389 736T311 762Q287 762 271 758T243 744T224 718T209 678L45 735Q57 774 77 806T131 862T213 898T330 911Q405 911 452 896T526 851T563 776T573 670V0H410V70Q396 52 382 38T348 14T303 -2T242 -8ZM303 133Q336 133 357 144T389 175T405 221T410 279V506Q345 491 306 475T247 433T221 368T215 268Q215 230 217 204T228 162T254 140T303 133ZM470 1262H672L797 1008H652L568 1161L486 1008H345L470 1262Z"/><glyph unicode="ã" horiz-adv-x="623" d="M242 -8Q183 -8 146 7T86 54T56 138T47 264Q47 349 59 411T110 518T220 592T410 643V657Q410 711 389 736T311 762Q287 762 271 758T243 744T224 718T209 678L45 735Q57 774 77 806T131 862T213 898T330 911Q405 911 452 896T526 851T563 776T573 670V0H410V70Q396 52 382 38T348 14T303 -2T242 -8ZM303 133Q336 133 357 144T389 175T405 221T410 279V506Q345 491 306 475T247 433T221 368T215 268Q215 230 217 204T228 162T254 140T303 133ZM320 1008Q320 1073 326 1116T348 1186T390 1222T455 1233Q489 1233 519 1219T576 1188T622 1157T658 1143Q667 1143 672 1146T681 1160T684 1188T685 1235H818Q818 1179 814 1137T796 1067T756 1025T685 1010Q653 1010 623 1023T565 1053T517 1084T480 1098Q461 1098 456 1079T451 1008H320V1008Z"/><glyph unicode="ä" horiz-adv-x="623" d="M242 -8Q183 -8 146 7T86 54T56 138T47 264Q47 349 59 411T110 518T220 592T410 643V657Q410 711 389 736T311 762Q287 762 271 758T243 744T224 718T209 678L45 735Q57 774 77 806T131 862T213 898T330 911Q405 911 452 896T526 851T563 776T573 670V0H410V70Q396 52 382 38T348 14T303 -2T242 -8ZM303 133Q336 133 357 144T389 175T405 221T410 279V506Q345 491 306 475T247 433T221 368T215 268Q215 230 217 204T228 162T254 140T303 133ZM363 1198H521V1008H363V1198ZM619 1198H779V1008H619V1198Z"/><glyph unicode="å" horiz-adv-x="623" d="M242 -8Q183 -8 146 7T86 54T56 138T47 264Q47 349 59 411T110 518T220 592T410 643V657Q410 711 389 736T311 762Q287 762 271 758T243 744T224 718T209 678L45 735Q57 774 77 806T131 862T213 898T330 911Q405 911 452 896T526 851T563 776T573 670V0H410V70Q396 52 382 38T348 14T303 -2T242 -8ZM303 133Q336 133 357 144T389 175T405 221T410 279V506Q345 491 306 475T247 433T221 368T215 268Q215 230 217 204T228 162T254 140T303 133ZM314 1006Q260 1006 229 1020T180 1059T158 1116T153 1184Q153 1219 158 1251T180 1307T228 1345T314 1360Q368 1360 400 1346T449 1307T471 1251T476 1184Q476 1149 471 1117T449 1060T400 1021T314 1006ZM314 1096Q338 1096 351 1102T370 1121T377 1149T378 1184Q378 1202 377 1218T370 1246T351 1265T314 1272Q290 1272 278 1265T259 1246T252 1218T251 1184Q251 1165 252 1149T259 1121T277 1103T314 1096Z"/><glyph unicode="æ" horiz-adv-x="975" d="M672 -8Q588 -8 536 13T455 82Q426 42 376 17T242 -8Q183 -8 146 7T86 54T56 138T47 264Q47 349 59 411T110 518T220 592T410 643V657Q410 711 389 736T311 762Q287 762 271 758T243 744T224 718T209 678L45 735Q57 774 77 806T131 862T213 898T330 911Q392 911 433 901T500 870Q529 890 571 900T672 911Q752 911 802 891T882 833T921 743T932 627V397H561V279Q561 200 586 168T670 135Q698 135 715 139T742 158T758 197T768 264L926 240Q919 187 908 142T870 63T797 11T672 -8ZM303 133Q336 133 357 144T389 175T405 221T410 279V506Q345 491 306 475T247 433T221 368T215 268Q215 230 217 204T228 162T254 140T303 133ZM561 539H766V625Q766 658 764 683T753 726T723 753T668 762Q633 762 612 753T580 727T565 683T561 623V539Z"/><glyph unicode="ç" horiz-adv-x="614" d="M317 -8Q185 -8 115 59T45 276V623Q45 692 57 745T101 836T184 892T315 911Q390 911 440 897T521 849T568 761T590 627L416 602Q414 650 410 680T394 728T363 752T311 758Q282 758 263 751T234 727T219 686T215 623V279Q215 239 221 213T240 171T272 149T319 143Q346 143 364 147T394 166T413 208T426 283L594 260Q583 186 564 135T513 52T434 6T317 -8ZM331 -375Q274 -375 241 -363T190 -330T166 -282T155 -223L270 -209Q272 -227 275 -240T284 -261T302 -272T331 -276Q350 -276 361 -273T379 -260T386 -235T388 -195Q388 -150 381 -134T341 -117Q324 -117 315 -120T298 -131L212 -102L266 41H372L339 -43Q347 -40 357 -40T382 -39Q414 -39 437 -46T476 -72T499 -120T507 -197Q507 -246 501 -280T475 -335T422 -365T331 -375Z"/><glyph unicode="è" horiz-adv-x="625" d="M322 -8Q179 -8 112 60T45 276V623Q45 693 58 747T104 837T190 892T322 911Q402 911 452 891T532 833T571 743T582 627V397H211V279Q211 200 236 168T319 135Q350 135 368 141T395 162T409 201T418 264L575 240Q567 186 556 141T518 62T446 11T322 -8ZM211 539H416V625Q416 658 414 683T402 726T372 753T317 762Q282 762 262 753T230 727T215 683T211 623V539ZM369 1262H549L654 1008H498L369 1262Z"/><glyph unicode="é" horiz-adv-x="625" d="M592 1262H775L646 1008H490L592 1262ZM322 -8Q179 -8 112 60T45 276V623Q45 693 58 747T104 837T190 892T322 911Q402 911 452 891T532 833T571 743T582 627V397H211V279Q211 200 236 168T319 135Q350 135 368 141T395 162T409 201T418 264L575 240Q567 186 556 141T518 62T446 11T322 -8ZM211 539H416V625Q416 658 414 683T402 726T372 753T317 762Q282 762 262 753T230 727T215 683T211 623V539Z"/><glyph unicode="ê" horiz-adv-x="625" d="M472 1262H674L799 1008H654L570 1161L488 1008H347L472 1262ZM322 -8Q179 -8 112 60T45 276V623Q45 693 58 747T104 837T190 892T322 911Q402 911 452 891T532 833T571 743T582 627V397H211V279Q211 200 236 168T319 135Q350 135 368 141T395 162T409 201T418 264L575 240Q567 186 556 141T518 62T446 11T322 -8ZM211 539H416V625Q416 658 414 683T402 726T372 753T317 762Q282 762 262 753T230 727T215 683T211 623V539Z"/><glyph unicode="ë" horiz-adv-x="625" d="M365 1198H523V1008H365V1198ZM621 1198H781V1008H621V1198ZM322 -8Q179 -8 112 60T45 276V623Q45 693 58 747T104 837T190 892T322 911Q402 911 452 891T532 833T571 743T582 627V397H211V279Q211 200 236 168T319 135Q350 135 368 141T395 162T409 201T418 264L575 240Q567 186 556 141T518 62T446 11T322 -8ZM211 539H416V625Q416 658 414 683T402 726T372 753T317 762Q282 762 262 753T230 727T215 683T211 623V539Z"/><glyph unicode="ì" horiz-adv-x="289" d="M61 897H227V0H61V897ZM-57 1262H123L228 1008H72L-57 1262Z"/><glyph unicode="í" horiz-adv-x="289" d="M166 1262H349L220 1008H64L166 1262ZM61 897H227V0H61V897Z"/><glyph unicode="î" horiz-adv-x="289" d="M46 1262H248L373 1008H228L144 1161L62 1008H-79L46 1262ZM61 897H227V0H61V897Z"/><glyph unicode="ï" horiz-adv-x="289" d="M-61 1198H97V1008H-61V1198ZM195 1198H355V1008H195V1198ZM61 897H227V0H61V897Z"/><glyph unicode="ð" horiz-adv-x="645" d="M199 1085L311 1116Q290 1144 263 1169T205 1221L324 1325Q375 1290 414 1251T485 1165L598 1196V1063L545 1049Q573 970 585 868T598 629V281Q598 130 530 61T322 -8Q182 -8 114 59T45 276V623Q45 699 61 752T109 838T187 886T293 901Q327 901 358 891T416 862Q410 904 401 938T379 1001L199 952V1085ZM322 143Q380 143 404 173T428 279V625Q428 663 423 688T406 729T373 751T322 758Q292 758 272 751T239 729T221 687T215 623V279Q215 203 240 173T322 143Z"/><glyph unicode="ñ" horiz-adv-x="657" d="M57 897H225V838Q257 870 303 890T412 911Q476 911 514 895T573 847T600 771T606 670V0H438V647Q438 706 419 732T346 758Q313 758 290 753T253 732T232 687T225 610V0H57V897ZM339 1008Q339 1073 345 1116T367 1186T409 1222T474 1233Q508 1233 538 1219T595 1188T641 1157T677 1143Q686 1143 691 1146T700 1160T703 1188T704 1235H837Q837 1179 833 1137T815 1067T775 1025T704 1010Q672 1010 642 1023T584 1053T536 1084T499 1098Q480 1098 475 1079T470 1008H339V1008Z"/><glyph unicode="ò" horiz-adv-x="643" d="M322 -8Q182 -8 114 59T45 276V623Q45 699 60 754T109 843T194 894T322 911Q396 911 448 896T534 846T582 759T598 629V281Q598 130 530 61T322 -8ZM322 143Q380 143 404 173T428 279V625Q428 663 423 688T406 729T373 751T322 758Q292 758 272 751T239 729T221 687T215 623V279Q215 203 240 173T322 143ZM378 1262H558L663 1008H507L378 1262Z"/><glyph unicode="ó" horiz-adv-x="643" d="M601 1262H784L655 1008H499L601 1262ZM322 -8Q182 -8 114 59T45 276V623Q45 699 60 754T109 843T194 894T322 911Q396 911 448 896T534 846T582 759T598 629V281Q598 130 530 61T322 -8ZM322 143Q380 143 404 173T428 279V625Q428 663 423 688T406 729T373 751T322 758Q292 758 272 751T239 729T221 687T215 623V279Q215 203 240 173T322 143Z"/><glyph unicode="ô" horiz-adv-x="643" d="M481 1262H683L808 1008H663L579 1161L497 1008H356L481 1262ZM322 -8Q182 -8 114 59T45 276V623Q45 699 60 754T109 843T194 894T322 911Q396 911 448 896T534 846T582 759T598 629V281Q598 130 530 61T322 -8ZM322 143Q380 143 404 173T428 279V625Q428 663 423 688T406 729T373 751T322 758Q292 758 272 751T239 729T221 687T215 623V279Q215 203 240 173T322 143Z"/><glyph unicode="õ" horiz-adv-x="643" d="M322 -8Q182 -8 114 59T45 276V623Q45 699 60 754T109 843T194 894T322 911Q396 911 448 896T534 846T582 759T598 629V281Q598 130 530 61T322 -8ZM322 143Q380 143 404 173T428 279V625Q428 663 423 688T406 729T373 751T322 758Q292 758 272 751T239 729T221 687T215 623V279Q215 203 240 173T322 143ZM331 1008Q331 1073 337 1116T359 1186T401 1222T466 1233Q500 1233 530 1219T587 1188T633 1157T669 1143Q678 1143 683 1146T692 1160T695 1188T696 1235H829Q829 1179 825 1137T807 1067T767 1025T696 1010Q664 1010 634 1023T576 1053T528 1084T491 1098Q472 1098 467 1079T462 1008H331V1008Z"/><glyph unicode="ö" horiz-adv-x="643" d="M374 1198H532V1008H374V1198ZM630 1198H790V1008H630V1198ZM322 -8Q182 -8 114 59T45 276V623Q45 699 60 754T109 843T194 894T322 911Q396 911 448 896T534 846T582 759T598 629V281Q598 130 530 61T322 -8ZM322 143Q380 143 404 173T428 279V625Q428 663 423 688T406 729T373 751T322 758Q292 758 272 751T239 729T221 687T215 623V279Q215 203 240 173T322 143Z"/><glyph unicode="÷" horiz-adv-x="752" d="M39 713H713V559H39V713ZM285 442H467V252H285V442ZM285 1020H467V829H285V1020Z"/><glyph unicode="ø" horiz-adv-x="643" d="M131 43Q45 111 45 276V623Q45 699 60 754T109 843T194 894T322 911Q337 911 351 911T379 909L412 1014H555L510 866Q556 834 577 776T598 629V281Q598 130 530 61T322 -8Q305 -8 291 -7T260 -4L231 -102H86L131 43ZM322 141Q380 141 405 172T430 279V625Q430 663 427 689T413 730T381 753T322 760Q291 760 270 753T237 730T219 688T213 623V279Q213 241 217 215T232 173T265 149T322 141Z"/><glyph unicode="ù" horiz-adv-x="655" d="M244 -8Q180 -8 142 8T84 56T57 132T51 233V897H217V256Q217 196 238 170T311 143Q342 143 364 148T400 168T421 212T430 289V897H598V0H430V61Q396 30 350 11T244 -8ZM384 1262H564L669 1008H513L384 1262Z"/><glyph unicode="ú" horiz-adv-x="655" d="M607 1262H790L661 1008H505L607 1262ZM244 -8Q180 -8 142 8T84 56T57 132T51 233V897H217V256Q217 196 238 170T311 143Q342 143 364 148T400 168T421 212T430 289V897H598V0H430V61Q396 30 350 11T244 -8Z"/><glyph unicode="û" horiz-adv-x="655" d="M487 1262H689L814 1008H669L585 1161L503 1008H362L487 1262ZM244 -8Q180 -8 142 8T84 56T57 132T51 233V897H217V256Q217 196 238 170T311 143Q342 143 364 148T400 168T421 212T430 289V897H598V0H430V61Q396 30 350 11T244 -8Z"/><glyph unicode="ü" horiz-adv-x="655" d="M380 1198H538V1008H380V1198ZM636 1198H796V1008H636V1198ZM244 -8Q180 -8 142 8T84 56T57 132T51 233V897H217V256Q217 196 238 170T311 143Q342 143 364 148T400 168T421 212T430 289V897H598V0H430V61Q396 30 350 11T244 -8Z"/><glyph unicode="ý" horiz-adv-x="586" d="M78 -172H117Q132 -172 143 -171T162 -164T176 -148T186 -119L209 -8L12 897H182L260 516L297 315L332 514L410 897H573L336 -158Q327 -199 313 -230T276 -281T219 -312T135 -322H78V-172ZM570 1262H753L624 1008H468L570 1262Z"/><glyph unicode="þ" horiz-adv-x="655" d="M57 1313H225V840Q250 874 288 892T385 911Q446 911 489 892T559 836T598 748T610 629V283Q610 214 599 161T561 70T491 14T383 -6Q333 -6 294 5T225 51V-324H57V1313ZM334 145Q365 145 385 152T418 177T435 220T440 285V621Q440 653 436 679T419 723T386 750T332 760Q301 760 281 751T249 725T231 686T225 637V272Q225 237 230 213T248 174T282 152T334 145Z"/><glyph unicode="ÿ" horiz-adv-x="586" d="M78 -172H117Q132 -172 143 -171T162 -164T176 -148T186 -119L209 -8L12 897H182L260 516L297 315L332 514L410 897H573L336 -158Q327 -199 313 -230T276 -281T219 -312T135 -322H78V-172ZM343 1198H501V1008H343V1198ZM599 1198H759V1008H599V1198Z"/><glyph unicode="Ā" horiz-adv-x="707" d="M258 1290H449L692 0H514L459 297H242L186 0H16L258 1290ZM440 442L389 748L352 971L315 748L262 442H440ZM130 1505H582V1364H130V1505Z"/><glyph unicode="ā" horiz-adv-x="623" d="M242 -8Q183 -8 146 7T86 54T56 138T47 264Q47 349 59 411T110 518T220 592T410 643V657Q410 711 389 736T311 762Q287 762 271 758T243 744T224 718T209 678L45 735Q57 774 77 806T131 862T213 898T330 911Q405 911 452 896T526 851T563 776T573 670V0H410V70Q396 52 382 38T348 14T303 -2T242 -8ZM303 133Q336 133 357 144T389 175T405 221T410 279V506Q345 491 306 475T247 433T221 368T215 268Q215 230 217 204T228 162T254 140T303 133ZM343 1149H795V1008H343V1149Z"/><glyph unicode="Ă" horiz-adv-x="707" d="M258 1290H449L692 0H514L459 297H242L186 0H16L258 1290ZM440 442L389 748L352 971L315 748L262 442H440ZM343 1364Q264 1364 218 1384T149 1441T119 1528T112 1638H269Q270 1599 271 1571T280 1526T301 1500T343 1491Q371 1491 386 1499T408 1525T416 1571T419 1638H576Q576 1579 570 1529T539 1442T469 1385T343 1364Z"/><glyph unicode="ă" horiz-adv-x="623" d="M242 -8Q183 -8 146 7T86 54T56 138T47 264Q47 349 59 411T110 518T220 592T410 643V657Q410 711 389 736T311 762Q287 762 271 758T243 744T224 718T209 678L45 735Q57 774 77 806T131 862T213 898T330 911Q405 911 452 896T526 851T563 776T573 670V0H410V70Q396 52 382 38T348 14T303 -2T242 -8ZM303 133Q336 133 357 144T389 175T405 221T410 279V506Q345 491 306 475T247 433T221 368T215 268Q215 230 217 204T228 162T254 140T303 133ZM556 1008Q477 1008 431 1028T362 1085T332 1172T325 1282H482Q483 1243 484 1215T493 1170T514 1144T556 1135Q584 1135 599 1143T621 1169T629 1215T632 1282H789Q789 1223 783 1173T752 1086T682 1029T556 1008Z"/><glyph unicode="Ą" horiz-adv-x="707" d="M590 -305Q545 -305 513 -297T460 -270T430 -220T420 -143Q420 -79 444 -37T518 47L649 41Q618 12 599 -10T568 -53T553 -93T549 -137Q549 -174 557 -187T596 -201Q611 -201 621 -199T639 -191T650 -173T659 -141L780 -176Q769 -208 757 -232T725 -273T673 -297T590 -305ZM258 1290H449L692 0H514L459 297H242L186 0H16L258 1290ZM440 442L389 748L352 971L315 748L262 442H440Z"/><glyph unicode="ą" horiz-adv-x="623" d="M496 -305Q451 -305 419 -297T366 -270T336 -220T326 -143Q326 -111 332 -86T351 -39T381 2T424 41H555Q524 12 505 -10T474 -53T459 -93T455 -137Q455 -174 462 -187T502 -201Q517 -201 527 -199T544 -191T556 -173T565 -141L686 -176Q675 -208 663 -232T631 -273T579 -297T496 -305ZM242 -8Q183 -8 146 7T86 54T56 138T47 264Q47 349 59 411T110 518T220 592T410 643V657Q410 711 389 736T311 762Q287 762 271 758T243 744T224 718T209 678L45 735Q57 774 77 806T131 862T213 898T330 911Q405 911 452 896T526 851T563 776T573 670V0H410V70Q396 52 382 38T348 14T303 -2T242 -8ZM303 133Q336 133 357 144T389 175T405 221T410 279V506Q345 491 306 475T247 433T221 368T215 268Q215 230 217 204T228 162T254 140T303 133Z"/><glyph unicode="Ć" horiz-adv-x="733" d="M388 1618H571L442 1364H286L388 1618ZM375 -8Q291 -8 230 13T130 78T72 191T53 354V942Q53 1119 132 1205T379 1292Q474 1292 535 1272T633 1205T686 1085T707 905L522 889Q520 958 517 1004T500 1078T458 1118T377 1130Q305 1130 269 1088T233 944V352Q233 301 239 263T261 200T307 163T383 150Q430 150 457 160T499 197T520 272T532 397L711 381Q705 284 689 211T637 90T537 17T375 -8Z"/><glyph unicode="ć" horiz-adv-x="614" d="M584 1262H767L638 1008H482L584 1262ZM317 -8Q185 -8 115 59T45 276V623Q45 692 57 745T101 836T184 892T315 911Q390 911 440 897T521 849T568 761T590 627L416 602Q414 650 410 680T394 728T363 752T311 758Q282 758 263 751T234 727T219 686T215 623V279Q215 239 221 213T240 171T272 149T319 143Q346 143 364 147T394 166T413 208T426 283L594 260Q583 186 564 135T513 52T434 6T317 -8Z"/><glyph unicode="Č" horiz-adv-x="733" d="M143 1618H288L372 1464L454 1618H595L470 1364H268L143 1618ZM375 -8Q291 -8 230 13T130 78T72 191T53 354V942Q53 1119 132 1205T379 1292Q474 1292 535 1272T633 1205T686 1085T707 905L522 889Q520 958 517 1004T500 1078T458 1118T377 1130Q305 1130 269 1088T233 944V352Q233 301 239 263T261 200T307 163T383 150Q430 150 457 160T499 197T520 272T532 397L711 381Q705 284 689 211T637 90T537 17T375 -8Z"/><glyph unicode="č" horiz-adv-x="614" d="M339 1262H484L568 1108L650 1262H791L666 1008H464L339 1262ZM317 -8Q185 -8 115 59T45 276V623Q45 692 57 745T101 836T184 892T315 911Q390 911 440 897T521 849T568 761T590 627L416 602Q414 650 410 680T394 728T363 752T311 758Q282 758 263 751T234 727T219 686T215 623V279Q215 239 221 213T240 171T272 149T319 143Q346 143 364 147T394 166T413 208T426 283L594 260Q583 186 564 135T513 52T434 6T317 -8Z"/><glyph unicode="Ď" horiz-adv-x="784" d="M166 1618H311L395 1464L477 1618H618L493 1364H291L166 1618ZM74 1282H393Q494 1282 559 1257T663 1187T716 1083T731 952V352Q731 272 715 207T659 96T556 25T395 0H74V1282ZM395 156Q440 156 470 167T518 201T543 262T551 350V950Q551 994 544 1026T518 1081T470 1113T393 1124H252V156H395Z"/><glyph unicode="ď" horiz-adv-x="764" d="M651 1024Q679 1028 696 1034T721 1051T732 1081T735 1126H651V1310H826V1132Q826 1090 820 1056T795 998T742 960T651 944V1024ZM270 -8Q208 -8 165 11T96 67T57 155T45 274V623Q45 691 56 744T94 835T163 891T272 911Q320 911 359 901T430 856V1313H598V0H430V63Q404 29 366 11T270 -8ZM324 143Q354 143 373 152T405 177T422 216T430 264V639Q430 704 405 731T322 758Q259 758 237 726T215 621V281Q215 249 219 224T236 180T270 153T324 143Z"/><glyph unicode="Đ" horiz-adv-x="784" d="M0 797H74V1282H393Q494 1282 559 1257T663 1187T716 1083T731 952V352Q731 272 715 207T659 96T556 25T395 0H74V645H0V797ZM395 156Q440 156 470 167T518 201T543 262T551 350V950Q551 994 544 1026T518 1081T470 1113T393 1124H252V797H430V645H252V156H395Z"/><glyph unicode="đ" horiz-adv-x="655" d="M297 1176H430V1313H598V1176H655V1018H598V0H430V63Q404 29 366 11T270 -8Q208 -8 165 11T96 67T57 155T45 274V623Q45 691 56 744T94 835T163 891T272 911Q320 911 359 901T430 856V1018H297V1176ZM324 143Q354 143 373 152T405 177T422 216T430 264V639Q430 704 405 731T322 758Q259 758 237 726T215 621V281Q215 249 219 224T236 180T270 153T324 143Z"/><glyph unicode="Ē" horiz-adv-x="653" d="M74 1282H618V1120H252V782H557V627H252V160H618V0H74V1282ZM104 1505H556V1364H104V1505Z"/><glyph unicode="ē" horiz-adv-x="625" d="M322 -8Q179 -8 112 60T45 276V623Q45 693 58 747T104 837T190 892T322 911Q402 911 452 891T532 833T571 743T582 627V397H211V279Q211 200 236 168T319 135Q350 135 368 141T395 162T409 201T418 264L575 240Q567 186 556 141T518 62T446 11T322 -8ZM211 539H416V625Q416 658 414 683T402 726T372 753T317 762Q282 762 262 753T230 727T215 683T211 623V539ZM345 1149H797V1008H345V1149Z"/><glyph unicode="Ė" horiz-adv-x="653" d="M74 1282H618V1120H252V782H557V627H252V160H618V0H74V1282ZM243 1560H417V1364H243V1560Z"/><glyph unicode="ė" horiz-adv-x="625" d="M322 -8Q179 -8 112 60T45 276V623Q45 693 58 747T104 837T190 892T322 911Q402 911 452 891T532 833T571 743T582 627V397H211V279Q211 200 236 168T319 135Q350 135 368 141T395 162T409 201T418 264L575 240Q567 186 556 141T518 62T446 11T322 -8ZM211 539H416V625Q416 658 414 683T402 726T372 753T317 762Q282 762 262 753T230 727T215 683T211 623V539ZM228 1204H402V1008H228V1204Z"/><glyph unicode="Ę" horiz-adv-x="653" d="M496 -305Q451 -305 419 -297T366 -270T336 -220T326 -143Q326 -111 332 -86T351 -39T381 2T424 41H555Q524 12 505 -10T474 -53T459 -93T455 -137Q455 -174 463 -187T502 -201Q517 -201 527 -199T545 -191T556 -173T565 -141L686 -176Q675 -208 663 -232T631 -273T579 -297T496 -305ZM74 1282H618V1120H252V782H557V627H252V160H618V0H74V1282Z"/><glyph unicode="ę" horiz-adv-x="625" d="M653 -305Q608 -305 576 -297T523 -270T493 -220T483 -143Q483 -111 489 -86T508 -39T538 2T581 41H712Q681 12 662 -10T631 -53T616 -93T612 -137Q612 -174 620 -187T659 -201Q674 -201 684 -199T702 -191T713 -173T722 -141L843 -176Q832 -208 820 -232T788 -273T736 -297T653 -305ZM322 -8Q179 -8 112 60T45 276V623Q45 693 58 747T104 837T190 892T322 911Q402 911 452 891T532 833T571 743T582 627V397H211V279Q211 200 236 168T319 135Q350 135 368 141T395 162T409 201T418 264L575 240Q567 186 556 141T518 62T446 11T322 -8ZM211 539H416V625Q416 658 414 683T402 726T372 753T317 762Q282 762 262 753T230 727T215 683T211 623V539Z"/><glyph unicode="Ě" horiz-adv-x="653" d="M104 1618H249L333 1464L415 1618H556L431 1364H229L104 1618ZM74 1282H618V1120H252V782H557V627H252V160H618V0H74V1282Z"/><glyph unicode="ě" horiz-adv-x="625" d="M345 1262H490L574 1108L656 1262H797L672 1008H470L345 1262ZM322 -8Q179 -8 112 60T45 276V623Q45 693 58 747T104 837T190 892T322 911Q402 911 452 891T532 833T571 743T582 627V397H211V279Q211 200 236 168T319 135Q350 135 368 141T395 162T409 201T418 264L575 240Q567 186 556 141T518 62T446 11T322 -8ZM211 539H416V625Q416 658 414 683T402 726T372 753T317 762Q282 762 262 753T230 727T215 683T211 623V539Z"/><glyph unicode="Ğ" horiz-adv-x="764" d="M362 -8Q278 -8 220 14T124 81T70 194T53 354V942Q53 1034 74 1100T136 1209T239 1272T381 1292Q487 1292 549 1264T645 1188T690 1073T707 932L524 911Q521 978 516 1020T496 1087T453 1121T377 1130Q333 1130 305 1117T261 1080T239 1021T233 944V352Q233 304 238 266T260 203T307 164T387 150Q440 150 470 165T515 218T534 321T539 485V545H383V700H707V0H575L561 68Q527 30 480 11T362 -8ZM370 1364Q291 1364 245 1384T176 1441T146 1528T139 1638H296Q297 1599 298 1571T307 1526T328 1500T370 1491Q398 1491 413 1499T435 1525T443 1571T446 1638H603Q603 1579 597 1529T566 1442T496 1385T370 1364Z"/><glyph unicode="ğ" horiz-adv-x="655" d="M332 -334Q256 -334 206 -320T125 -280T76 -216T49 -133L209 -84Q216 -116 223 -135T243 -166T276 -182T328 -186Q386 -186 408 -160T430 -70V68Q404 32 366 14T270 -4Q208 -4 165 14T96 69T57 156T45 274V623Q45 691 56 744T94 835T163 891T272 911Q320 911 359 901T430 856V897H598V-66Q598 -124 587 -173T547 -258T466 -314T332 -334ZM324 143Q355 143 375 152T407 179T424 219T430 270V639Q430 704 405 731T322 758Q259 758 237 726T215 621V281Q215 249 219 224T236 180T270 153T324 143ZM572 1008Q493 1008 447 1028T378 1085T348 1172T341 1282H498Q499 1243 500 1215T509 1170T530 1144T572 1135Q600 1135 615 1143T637 1169T645 1215T648 1282H805Q805 1223 799 1173T768 1086T698 1029T572 1008Z"/><glyph unicode="Ģ" horiz-adv-x="764" d="M292 -356Q320 -352 337 -346T362 -329T373 -299T376 -254H292V-70H467V-248Q467 -290 461 -324T436 -382T383 -420T292 -436V-356ZM362 -8Q278 -8 220 14T124 81T70 194T53 354V942Q53 1034 74 1100T136 1209T239 1272T381 1292Q487 1292 549 1264T645 1188T690 1073T707 932L524 911Q521 978 516 1020T496 1087T453 1121T377 1130Q333 1130 305 1117T261 1080T239 1021T233 944V352Q233 304 238 266T260 203T307 164T387 150Q440 150 470 165T515 218T534 321T539 485V545H383V700H707V0H575L561 68Q527 30 480 11T362 -8Z"/><glyph unicode="ģ" horiz-adv-x="655" d="M240 1186Q240 1228 246 1262T270 1320T323 1358T414 1374V1294Q385 1290 369 1284T344 1267T333 1238T330 1192H414V1008H240V1186ZM332 -334Q256 -334 206 -320T125 -280T76 -216T49 -133L209 -84Q216 -116 223 -135T243 -166T276 -182T328 -186Q386 -186 408 -160T430 -70V68Q404 32 366 14T270 -4Q208 -4 165 14T96 69T57 156T45 274V623Q45 691 56 744T94 835T163 891T272 911Q320 911 359 901T430 856V897H598V-66Q598 -124 587 -173T547 -258T466 -314T332 -334ZM324 143Q355 143 375 152T407 179T424 219T430 270V639Q430 704 405 731T322 758Q259 758 237 726T215 621V281Q215 249 219 224T236 180T270 153T324 143Z"/><glyph unicode="Ī" horiz-adv-x="334" d="M78 1282H254V0H78V1282ZM-56 1505H396V1364H-56V1505Z"/><glyph unicode="ī" horiz-adv-x="289" d="M61 897H227V0H61V897ZM-79 1149H373V1008H-79V1149Z"/><glyph unicode="Į" horiz-adv-x="334" d="M162 -305Q117 -305 85 -297T32 -270T2 -220T-8 -143Q-8 -78 17 -34T90 51L221 41Q190 12 171 -10T140 -53T125 -93T121 -137Q121 -174 129 -187T168 -201Q183 -201 193 -199T211 -191T222 -173T231 -141L352 -176Q341 -208 329 -232T297 -273T245 -297T162 -305ZM78 1282H254V0H78V1282Z"/><glyph unicode="į" horiz-adv-x="289" d="M145 -305Q100 -305 68 -297T16 -270T-13 -220T-23 -143Q-23 -78 0 -34T72 51L207 41Q175 12 155 -10T124 -53T109 -93T104 -137Q104 -174 112 -187T152 -201Q167 -201 177 -199T195 -191T207 -173T217 -141L336 -176Q325 -208 313 -232T281 -273T228 -297T145 -305ZM61 897H227V0H61V897ZM57 1210H231V1008H57V1210Z"/><glyph unicode="İ" horiz-adv-x="334" d="M78 1282H254V0H78V1282ZM83 1560H257V1364H83V1560Z"/><glyph unicode="ı" horiz-adv-x="289" d="M61 897H227V0H61V897Z"/><glyph unicode="Ķ" horiz-adv-x="727" d="M276 -356Q304 -352 321 -346T346 -329T357 -299T360 -254H276V-70H451V-248Q451 -290 445 -324T420 -382T367 -420T276 -436V-356ZM332 659L252 520V0H74V1282H252V805L518 1282H698L463 858L715 0H528L332 659Z"/><glyph unicode="ķ" horiz-adv-x="573" d="M198 -356Q226 -352 243 -346T268 -329T279 -299T282 -254H198V-70H373V-248Q373 -290 367 -324T342 -382T289 -420T198 -436V-356ZM289 428L225 307V0H57V1313H225V592L391 897H555L408 629L557 0H387L289 428Z"/><glyph unicode="Ĺ" horiz-adv-x="629" d="M189 1618H372L243 1364H87L189 1618ZM74 1282H252V160H608V0H74V1282Z"/><glyph unicode="ĺ" horiz-adv-x="289" d="M168 1616H351L222 1362H66L168 1616ZM61 1313H227V0H61V1313Z"/><glyph unicode="Ļ" horiz-adv-x="629" d="M227 -356Q255 -352 272 -346T297 -329T308 -299T311 -254H227V-70H402V-248Q402 -290 396 -324T371 -382T318 -420T227 -436V-356ZM74 1282H252V160H608V0H74V1282Z"/><glyph unicode="ļ" horiz-adv-x="289" d="M316 -356Q344 -352 361 -346T386 -329T397 -299T400 -254H316V-70H491V-248Q491 -290 485 -324T460 -382T407 -420T316 -436V-356ZM61 1313H227V0H61V1313Z"/><glyph unicode="Ľ" horiz-adv-x="629" d="M354 994Q382 998 399 1004T424 1021T435 1051T438 1096H354V1280H529V1102Q529 1060 523 1026T498 968T445 930T354 914V994ZM74 1282H252V160H608V0H74V1282Z"/><glyph unicode="ľ" horiz-adv-x="395" d="M282 1024Q310 1028 327 1034T352 1051T363 1081T366 1126H282V1310H457V1132Q457 1090 451 1056T426 998T373 960T282 944V1024ZM61 1313H227V0H61V1313Z"/><glyph unicode="Ł" horiz-adv-x="629" d="M0 739L74 760V1282H252V811L410 858V702L252 655V160H608V0H74V602L0 582V739Z"/><glyph unicode="ł" horiz-adv-x="377" d="M2 877L104 903V1313H272V950L375 979V821L272 793V0H104V745L2 719V877Z"/><glyph unicode="Ń" horiz-adv-x="776" d="M407 1618H590L461 1364H305L407 1618ZM74 1282H303L532 514V1282H700V0H528L244 934V0H74V1282Z"/><glyph unicode="ń" horiz-adv-x="657" d="M607 1262H790L661 1008H505L607 1262ZM57 897H225V838Q257 870 303 890T412 911Q476 911 514 895T573 847T600 771T606 670V0H438V647Q438 706 419 732T346 758Q313 758 290 753T253 732T232 687T225 610V0H57V897Z"/><glyph unicode="Ņ" horiz-adv-x="776" d="M299 -356Q327 -352 344 -346T369 -329T380 -299T383 -254H299V-70H474V-248Q474 -290 468 -324T443 -382T390 -420T299 -436V-356ZM74 1282H303L532 514V1282H700V0H528L244 934V0H74V1282Z"/><glyph unicode="ņ" horiz-adv-x="657" d="M241 -356Q269 -352 286 -346T311 -329T322 -299T325 -254H241V-70H416V-248Q416 -290 410 -324T385 -382T332 -420T241 -436V-356ZM57 897H225V838Q257 870 303 890T412 911Q476 911 514 895T573 847T600 771T606 670V0H438V647Q438 706 419 732T346 758Q313 758 290 753T253 732T232 687T225 610V0H57V897Z"/><glyph unicode="Ň" horiz-adv-x="776" d="M162 1618H307L391 1464L473 1618H614L489 1364H287L162 1618ZM74 1282H303L532 514V1282H700V0H528L244 934V0H74V1282Z"/><glyph unicode="ň" horiz-adv-x="657" d="M362 1262H507L591 1108L673 1262H814L689 1008H487L362 1262ZM57 897H225V838Q257 870 303 890T412 911Q476 911 514 895T573 847T600 771T606 670V0H438V647Q438 706 419 732T346 758Q313 758 290 753T253 732T232 687T225 610V0H57V897Z"/><glyph unicode="Ō" horiz-adv-x="778" d="M164 1505H616V1364H164V1505ZM387 -8Q220 -8 137 77T53 354V942Q53 1024 72 1089T131 1199T235 1268T387 1292Q478 1292 541 1269T645 1202T704 1094T723 948V356Q723 259 703 190T640 77T535 13T387 -8ZM387 150Q424 150 453 159T502 192T534 253T545 350V946Q545 1046 507 1088T387 1130Q307 1130 270 1087T233 944V352Q233 293 242 254T269 192T317 160T387 150Z"/><glyph unicode="ō" horiz-adv-x="643" d="M356 1149H808V1008H356V1149ZM322 -8Q182 -8 114 59T45 276V623Q45 699 60 754T109 843T194 894T322 911Q396 911 448 896T534 846T582 759T598 629V281Q598 130 530 61T322 -8ZM322 143Q380 143 404 173T428 279V625Q428 663 423 688T406 729T373 751T322 758Q292 758 272 751T239 729T221 687T215 623V279Q215 203 240 173T322 143Z"/><glyph unicode="Ő" horiz-adv-x="778" d="M266 1638H432L309 1364H170L266 1638ZM528 1638H694L571 1364H432L528 1638ZM387 -8Q220 -8 137 77T53 354V942Q53 1024 72 1089T131 1199T235 1268T387 1292Q478 1292 541 1269T645 1202T704 1094T723 948V356Q723 259 703 190T640 77T535 13T387 -8ZM387 150Q424 150 453 159T502 192T534 253T545 350V946Q545 1046 507 1088T387 1130Q307 1130 270 1087T233 944V352Q233 293 242 254T269 192T317 160T387 150Z"/><glyph unicode="ő" horiz-adv-x="643" d="M466 1282H632L509 1008H370L466 1282ZM728 1282H894L771 1008H632L728 1282ZM322 -8Q182 -8 114 59T45 276V623Q45 699 60 754T109 843T194 894T322 911Q396 911 448 896T534 846T582 759T598 629V281Q598 130 530 61T322 -8ZM322 143Q380 143 404 173T428 279V625Q428 663 423 688T406 729T373 751T322 758Q292 758 272 751T239 729T221 687T215 623V279Q215 203 240 173T322 143Z"/><glyph unicode="Œ" horiz-adv-x="1120" d="M559 41Q524 13 480 3T381 -8Q217 -8 135 77T53 354V942Q53 1024 72 1089T131 1199T233 1268T381 1292Q493 1292 559 1241V1282H1085V1120H717V782H1024V627H717V160H1085V0H559V41ZM387 150Q424 150 453 159T502 192T534 253T545 350V946Q545 1046 507 1088T387 1130Q307 1130 270 1087T233 944V352Q233 293 242 254T269 192T317 160T387 150Z"/><glyph unicode="œ" horiz-adv-x="1004" d="M700 -8Q570 -8 510 49Q450 -8 322 -8Q182 -8 114 59T45 276V623Q45 699 60 754T109 843T194 894T322 911Q390 911 436 899T512 858Q543 884 588 897T700 911Q780 911 830 891T910 833T950 743T961 627V397H590V279Q590 200 615 168T698 135Q726 135 743 139T771 158T786 197T797 264L954 240Q947 187 936 142T898 63T825 11T700 -8ZM322 143Q380 143 404 173T428 279V625Q428 663 423 688T406 729T373 751T322 758Q292 758 272 751T239 729T221 687T215 623V279Q215 203 240 173T322 143ZM590 539H795V625Q795 658 793 683T781 726T752 753T696 762Q661 762 641 753T609 727T594 683T590 623V539Z"/><glyph unicode="Ŕ" horiz-adv-x="727" d="M386 1618H569L440 1364H284L386 1618ZM74 1282H338Q424 1282 488 1269T596 1220T660 1120T682 952V866Q682 797 672 746T641 659T591 599T520 563L678 0H496L344 543H338H252V0H74V1282ZM346 694Q398 694 429 702T478 729T500 781T506 864V954Q506 999 501 1031T478 1085T429 1116T344 1126H252V694H346Z"/><glyph unicode="ŕ" horiz-adv-x="393" d="M220 1262H403L274 1008H118L220 1262ZM57 897H225V825Q254 857 293 876T383 897V743Q337 738 307 731T259 706T234 656T225 571V0H57V897Z"/><glyph unicode="Ŗ" horiz-adv-x="727" d="M276 -356Q304 -352 321 -346T346 -329T357 -299T360 -254H276V-70H451V-248Q451 -290 445 -324T420 -382T367 -420T276 -436V-356ZM74 1282H338Q424 1282 488 1269T596 1220T660 1120T682 952V866Q682 797 672 746T641 659T591 599T520 563L678 0H496L344 543H338H252V0H74V1282ZM346 694Q398 694 429 702T478 729T500 781T506 864V954Q506 999 501 1031T478 1085T429 1116T344 1126H252V694H346Z"/><glyph unicode="ŗ" horiz-adv-x="393" d="M316 -356Q344 -352 361 -346T386 -329T397 -299T400 -254H316V-70H491V-248Q491 -290 485 -324T460 -382T407 -420T316 -436V-356ZM57 897H225V825Q254 857 293 876T383 897V743Q337 738 307 731T259 706T234 656T225 571V0H57V897Z"/><glyph unicode="Ř" horiz-adv-x="727" d="M141 1618H286L370 1464L452 1618H593L468 1364H266L141 1618ZM74 1282H338Q424 1282 488 1269T596 1220T660 1120T682 952V866Q682 797 672 746T641 659T591 599T520 563L678 0H496L344 543H338H252V0H74V1282ZM346 694Q398 694 429 702T478 729T500 781T506 864V954Q506 999 501 1031T478 1085T429 1116T344 1126H252V694H346Z"/><glyph unicode="ř" horiz-adv-x="393" d="M-25 1262H120L204 1108L286 1262H427L302 1008H100L-25 1262ZM57 897H225V825Q254 857 293 876T383 897V743Q337 738 307 731T259 706T234 656T225 571V0H57V897Z"/><glyph unicode="Ś" horiz-adv-x="723" d="M384 1618H567L438 1364H282L384 1618ZM362 -8Q263 -8 200 17T101 88T49 201T31 348L211 371Q215 299 222 256T247 190T293 160T367 152Q411 152 439 163T482 193T504 238T510 295Q510 335 498 368T459 435T391 511T291 608Q235 660 191 705T115 796T66 889T49 997Q49 1145 130 1218T362 1292Q444 1292 500 1274T594 1219T649 1124T674 987L494 969Q490 1017 483 1048T462 1098T424 1123T365 1130Q325 1130 299 1122T256 1097T234 1056T227 1001Q227 969 237 942T269 885T326 821T410 739Q477 674 528 623T615 521T669 417T688 293Q688 221 670 165T612 71T510 12T362 -8Z"/><glyph unicode="ś" horiz-adv-x="600" d="M578 1262H761L632 1008H476L578 1262ZM301 -8Q233 -8 185 6T105 49T56 125T35 236L195 264Q199 224 204 199T220 159T249 139T297 133Q352 133 372 152T393 221Q393 244 384 263T354 303T303 349T229 410Q191 438 160 465T105 523T68 590T55 672Q55 723 65 766T104 842T179 892T301 911Q367 911 413 898T490 857T536 790T557 694L395 670Q393 694 390 712T378 742T352 760T303 766Q257 766 240 746T223 684Q223 661 231 642T255 605T295 566T354 520Q400 484 438 453T503 389T544 318T559 227Q559 106 497 49T301 -8Z"/><glyph unicode="Ş" horiz-adv-x="723" d="M362 -8Q263 -8 200 17T101 88T49 201T31 348L211 371Q215 299 222 256T247 190T293 160T367 152Q411 152 439 163T482 193T504 238T510 295Q510 335 498 368T459 435T391 511T291 608Q235 660 191 705T115 796T66 889T49 997Q49 1145 130 1218T362 1292Q444 1292 500 1274T594 1219T649 1124T674 987L494 969Q490 1017 483 1048T462 1098T424 1123T365 1130Q325 1130 299 1122T256 1097T234 1056T227 1001Q227 969 237 942T269 885T326 821T410 739Q477 674 528 623T615 521T669 417T688 293Q688 221 670 165T612 71T510 12T362 -8ZM384 -375Q327 -375 294 -363T243 -330T219 -282T208 -223L323 -209Q325 -227 328 -240T337 -261T355 -272T384 -276Q403 -276 414 -273T432 -260T439 -235T441 -195Q441 -150 434 -134T394 -117Q377 -117 368 -120T351 -131L265 -102L319 41H425L392 -43Q400 -40 410 -40T435 -39Q467 -39 490 -46T529 -72T552 -120T560 -197Q560 -246 554 -280T528 -335T475 -365T384 -375Z"/><glyph unicode="ş" horiz-adv-x="600" d="M301 -8Q233 -8 185 6T105 49T56 125T35 236L195 264Q199 224 204 199T220 159T249 139T297 133Q352 133 372 152T393 221Q393 244 384 263T354 303T303 349T229 410Q191 438 160 465T105 523T68 590T55 672Q55 723 65 766T104 842T179 892T301 911Q367 911 413 898T490 857T536 790T557 694L395 670Q393 694 390 712T378 742T352 760T303 766Q257 766 240 746T223 684Q223 661 231 642T255 605T295 566T354 520Q400 484 438 453T503 389T544 318T559 227Q559 106 497 49T301 -8ZM322 -375Q265 -375 232 -363T181 -330T157 -282T146 -223L261 -209Q263 -227 266 -240T275 -261T293 -272T322 -276Q341 -276 352 -273T370 -260T377 -235T379 -195Q379 -150 372 -134T332 -117Q315 -117 306 -120T289 -131L203 -102L257 41H363L330 -43Q338 -40 348 -40T373 -39Q405 -39 428 -46T467 -72T490 -120T498 -197Q498 -246 492 -280T466 -335T413 -365T322 -375Z"/><glyph unicode="Š" horiz-adv-x="723" d="M139 1616H284L368 1462L450 1616H591L466 1362H264L139 1616ZM362 -8Q263 -8 200 17T101 88T49 201T31 348L211 371Q215 299 222 256T247 190T293 160T367 152Q411 152 439 163T482 193T504 238T510 295Q510 335 498 368T459 435T391 511T291 608Q235 660 191 705T115 796T66 889T49 997Q49 1145 130 1218T362 1292Q444 1292 500 1274T594 1219T649 1124T674 987L494 969Q490 1017 483 1048T462 1098T424 1123T365 1130Q325 1130 299 1122T256 1097T234 1056T227 1001Q227 969 237 942T269 885T326 821T410 739Q477 674 528 623T615 521T669 417T688 293Q688 221 670 165T612 71T510 12T362 -8Z"/><glyph unicode="š" horiz-adv-x="600" d="M335 1262H480L564 1108L646 1262H787L662 1008H460L335 1262ZM301 -8Q233 -8 185 6T105 49T56 125T35 236L195 264Q199 224 204 199T220 159T249 139T297 133Q352 133 372 152T393 221Q393 244 384 263T354 303T303 349T229 410Q191 438 160 465T105 523T68 590T55 672Q55 723 65 766T104 842T179 892T301 911Q367 911 413 898T490 857T536 790T557 694L395 670Q393 694 390 712T378 742T352 760T303 766Q257 766 240 746T223 684Q223 661 231 642T255 605T295 566T354 520Q400 484 438 453T503 389T544 318T559 227Q559 106 497 49T301 -8Z"/><glyph unicode="Ţ" horiz-adv-x="678" d="M251 -356Q279 -352 296 -346T321 -329T332 -299T335 -254H251V-70H426V-248Q426 -290 420 -324T395 -382T342 -420T251 -436V-356ZM252 1120H18V1282H659V1120H430V0H252V1120Z"/><glyph unicode="ţ" horiz-adv-x="440" d="M104 -356Q132 -352 149 -346T174 -329T185 -299T188 -254H104V-70H279V-248Q279 -290 273 -324T248 -382T195 -420T104 -436V-356ZM6 897H106V1180H274V897H399V741H274V233Q274 209 277 193T290 168T316 156T356 152H399V0H313Q200 0 153 50T106 201V741H6V897Z"/><glyph unicode="Ť" horiz-adv-x="678" d="M116 1618H261L345 1464L427 1618H568L443 1364H241L116 1618ZM252 1120H18V1282H659V1120H430V0H252V1120Z"/><glyph unicode="ť" horiz-adv-x="440" d="M333 1059Q361 1063 378 1069T403 1086T414 1116T417 1161H333V1345H508V1167Q508 1125 502 1091T477 1033T424 995T333 979V1059ZM6 897H106V1180H274V897H399V741H274V233Q274 209 277 193T290 168T316 156T356 152H399V0H313Q200 0 153 50T106 201V741H6V897Z"/><glyph unicode="Ū" horiz-adv-x="774" d="M389 -8Q305 -8 244 10T142 71T83 180T63 344V1282H242V352Q242 293 250 254T275 192T320 160T389 150Q426 150 453 159T499 192T527 253T537 350V1282H711V346Q711 249 693 182T635 72T535 11T389 -8ZM162 1505H614V1364H162V1505Z"/><glyph unicode="ū" horiz-adv-x="655" d="M244 -8Q180 -8 142 8T84 56T57 132T51 233V897H217V256Q217 196 238 170T311 143Q342 143 364 148T400 168T421 212T430 289V897H598V0H430V61Q396 30 350 11T244 -8ZM360 1149H812V1008H360V1149Z"/><glyph unicode="Ů" horiz-adv-x="774" d="M390 1362Q336 1362 305 1376T256 1415T234 1472T229 1540Q229 1575 234 1607T256 1663T304 1701T390 1716Q444 1716 476 1702T525 1663T547 1607T552 1540Q552 1505 547 1473T525 1416T476 1377T390 1362ZM390 1452Q414 1452 427 1458T446 1477T453 1505T454 1540Q454 1558 453 1574T446 1602T427 1621T390 1628Q366 1628 354 1621T335 1602T328 1574T327 1540Q327 1521 328 1505T335 1477T353 1459T390 1452ZM389 -8Q305 -8 244 10T142 71T83 180T63 344V1282H242V352Q242 293 250 254T275 192T320 160T389 150Q426 150 453 159T499 192T527 253T537 350V1282H711V346Q711 249 693 182T635 72T535 11T389 -8Z"/><glyph unicode="ů" horiz-adv-x="655" d="M328 1006Q274 1006 243 1020T194 1059T172 1116T167 1184Q167 1219 172 1251T194 1307T242 1345T328 1360Q382 1360 414 1346T463 1307T485 1251T490 1184Q490 1149 485 1117T463 1060T414 1021T328 1006ZM328 1096Q352 1096 365 1102T384 1121T391 1149T392 1184Q392 1202 391 1218T384 1246T365 1265T328 1272Q304 1272 292 1265T273 1246T266 1218T265 1184Q265 1165 266 1149T273 1121T291 1103T328 1096ZM244 -8Q180 -8 142 8T84 56T57 132T51 233V897H217V256Q217 196 238 170T311 143Q342 143 364 148T400 168T421 212T430 289V897H598V0H430V61Q396 30 350 11T244 -8Z"/><glyph unicode="Ű" horiz-adv-x="774" d="M389 -8Q305 -8 244 10T142 71T83 180T63 344V1282H242V352Q242 293 250 254T275 192T320 160T389 150Q426 150 453 159T499 192T527 253T537 350V1282H711V346Q711 249 693 182T635 72T535 11T389 -8ZM264 1638H430L307 1364H168L264 1638ZM526 1638H692L569 1364H430L526 1638Z"/><glyph unicode="ű" horiz-adv-x="655" d="M244 -8Q180 -8 142 8T84 56T57 132T51 233V897H217V256Q217 196 238 170T311 143Q342 143 364 148T400 168T421 212T430 289V897H598V0H430V61Q396 30 350 11T244 -8ZM450 1282H616L493 1008H354L450 1282ZM712 1282H878L755 1008H616L712 1282Z"/><glyph unicode="Ų" horiz-adv-x="774" d="M677 -305Q632 -305 600 -297T547 -270T517 -220T507 -143Q507 -111 513 -86T532 -39T562 2T605 41H736Q705 12 686 -10T655 -53T640 -93T636 -137Q636 -174 644 -187T683 -201Q698 -201 708 -199T726 -191T737 -173T746 -141L867 -176Q856 -208 844 -232T812 -273T760 -297T677 -305ZM389 -8Q305 -8 244 10T142 71T83 180T63 344V1282H242V352Q242 293 250 254T275 192T320 160T389 150Q426 150 453 159T499 192T527 253T537 350V1282H711V346Q711 249 693 182T635 72T535 11T389 -8Z"/><glyph unicode="ų" horiz-adv-x="655" d="M522 -305Q477 -305 445 -297T393 -270T363 -220T354 -143Q354 -111 360 -86T378 -39T409 2T451 41H582Q551 12 532 -10T501 -53T485 -93T481 -137Q481 -174 489 -187T528 -201Q543 -201 553 -199T571 -191T584 -173T594 -141L713 -176Q702 -208 690 -232T658 -273T605 -297T522 -305ZM244 -8Q180 -8 142 8T84 56T57 132T51 233V897H217V256Q217 196 238 170T311 143Q342 143 364 148T400 168T421 212T430 289V897H598V0H430V61Q396 30 350 11T244 -8Z"/><glyph unicode="Ÿ" horiz-adv-x="735" d="M279 518L16 1282H201L369 760L543 1282H719L455 518V0H279V518ZM163 1552H321V1362H163V1552ZM419 1552H579V1362H419V1552Z"/><glyph unicode="Ź" horiz-adv-x="629" d="M336 1618H519L390 1364H234L336 1618ZM27 147L401 1120H33V1282H596V1130L221 160H602V0H27V147Z"/><glyph unicode="ź" horiz-adv-x="551" d="M554 1262H737L608 1008H452L554 1262ZM37 141L307 741H49V897H500V752L229 152H514V0H37V141Z"/><glyph unicode="Ż" horiz-adv-x="629" d="M27 147L401 1120H33V1282H596V1130L221 160H602V0H27V147ZM230 1560H404V1364H230V1560Z"/><glyph unicode="ż" horiz-adv-x="551" d="M37 141L307 741H49V897H500V752L229 152H514V0H37V141ZM192 1204H366V1008H192V1204Z"/><glyph unicode="Ž" horiz-adv-x="629" d="M93 1616H238L322 1462L404 1616H545L420 1362H218L93 1616ZM27 147L401 1120H33V1282H596V1130L221 160H602V0H27V147Z"/><glyph unicode="ž" horiz-adv-x="551" d="M311 1262H456L540 1108L622 1262H763L638 1008H436L311 1262ZM37 141L307 741H49V897H500V752L229 152H514V0H37V141Z"/><glyph unicode="ƒ" horiz-adv-x="500" d="M59 780H158V1077Q158 1178 204 1230T365 1282H449V1130H406Q383 1130 368 1127T343 1114T330 1089T326 1049V780H449V623H326V-324H158V623H59V780Z"/><glyph unicode="Ș" horiz-adv-x="723" d="M274 -356Q302 -352 319 -346T344 -329T355 -299T358 -254H274V-70H449V-248Q449 -290 443 -324T418 -382T365 -420T274 -436V-356ZM362 -8Q263 -8 200 17T101 88T49 201T31 348L211 371Q215 299 222 256T247 190T293 160T367 152Q411 152 439 163T482 193T504 238T510 295Q510 335 498 368T459 435T391 511T291 608Q235 660 191 705T115 796T66 889T49 997Q49 1145 130 1218T362 1292Q444 1292 500 1274T594 1219T649 1124T674 987L494 969Q490 1017 483 1048T462 1098T424 1123T365 1130Q325 1130 299 1122T256 1097T234 1056T227 1001Q227 969 237 942T269 885T326 821T410 739Q477 674 528 623T615 521T669 417T688 293Q688 221 670 165T612 71T510 12T362 -8Z"/><glyph unicode="ș" horiz-adv-x="600" d="M213 -356Q241 -352 258 -346T283 -329T294 -299T297 -254H213V-70H388V-248Q388 -290 382 -324T357 -382T304 -420T213 -436V-356ZM301 -8Q233 -8 185 6T105 49T56 125T35 236L195 264Q199 224 204 199T220 159T249 139T297 133Q352 133 372 152T393 221Q393 244 384 263T354 303T303 349T229 410Q191 438 160 465T105 523T68 590T55 672Q55 723 65 766T104 842T179 892T301 911Q367 911 413 898T490 857T536 790T557 694L395 670Q393 694 390 712T378 742T352 760T303 766Q257 766 240 746T223 684Q223 661 231 642T255 605T295 566T354 520Q400 484 438 453T503 389T544 318T559 227Q559 106 497 49T301 -8Z"/><glyph unicode="Ț" horiz-adv-x="678" d="M251 -356Q279 -352 296 -346T321 -329T332 -299T335 -254H251V-70H426V-248Q426 -290 420 -324T395 -382T342 -420T251 -436V-356ZM252 1120H18V1282H659V1120H430V0H252V1120Z"/><glyph unicode="ț" horiz-adv-x="440" d="M104 -356Q132 -352 149 -346T174 -329T185 -299T188 -254H104V-70H279V-248Q279 -290 273 -324T248 -382T195 -420T104 -436V-356ZM6 897H106V1180H274V897H399V741H274V233Q274 209 277 193T290 168T316 156T356 152H399V0H313Q200 0 153 50T106 201V741H6V897Z"/><glyph unicode="ˆ" horiz-adv-x="766" d="M283 1262H485L610 1008H465L381 1161L299 1008H158L283 1262Z"/><glyph unicode="ˇ" horiz-adv-x="766" d="M158 1262H303L387 1108L469 1262H610L485 1008H283L158 1262Z"/><glyph unicode="˘" horiz-adv-x="791" d="M383 1008Q304 1008 258 1028T189 1085T159 1172T152 1282H309Q310 1243 311 1215T320 1170T341 1144T383 1135Q411 1135 426 1143T448 1169T456 1215T459 1282H616Q616 1223 610 1173T579 1086T509 1029T383 1008Z"/><glyph unicode="˙" horiz-adv-x="934" d="M381 1204H555V1008H381V1204Z"/><glyph unicode="˚" horiz-adv-x="1057" d="M528 1006Q474 1006 443 1020T394 1059T372 1116T367 1184Q367 1219 372 1251T394 1307T442 1345T528 1360Q582 1360 614 1346T663 1307T685 1251T690 1184Q690 1149 685 1117T663 1060T614 1021T528 1006ZM528 1096Q552 1096 565 1102T584 1121T591 1149T592 1184Q592 1202 591 1218T584 1246T565 1265T528 1272Q504 1272 492 1265T473 1246T466 1218T465 1184Q465 1165 466 1149T473 1121T491 1103T528 1096Z"/><glyph unicode="˛" horiz-adv-x="1057" d="M496 -305Q451 -305 419 -297T366 -270T336 -220T326 -143Q326 -111 332 -86T351 -39T381 2T424 41H555Q524 12 505 -10T474 -53T459 -93T455 -137Q455 -174 463 -187T502 -201Q517 -201 527 -199T545 -191T556 -173T565 -141L686 -176Q675 -208 663 -232T631 -273T579 -297T496 -305Z"/><glyph unicode="˜" horiz-adv-x="766" d="M133 1008Q133 1073 139 1116T161 1186T203 1222T268 1233Q302 1233 332 1219T389 1188T435 1157T471 1143Q480 1143 485 1146T494 1160T497 1188T498 1235H631Q631 1179 627 1137T609 1067T569 1025T498 1010Q466 1010 436 1023T378 1053T330 1084T293 1098Q274 1098 269 1079T264 1008H133V1008Z"/><glyph unicode="˝" horiz-adv-x="766" d="M248 1282H414L291 1008H152L248 1282ZM510 1282H676L553 1008H414L510 1282Z"/><glyph unicode="̄" horiz-adv-x="766" d="M158 1149H610V1008H158V1149Z"/><glyph unicode="̦" horiz-adv-x="297" d="M61 -356Q89 -352 106 -346T131 -329T142 -299T145 -254H61V-70H236V-248Q236 -290 230 -324T205 -382T152 -420T61 -436V-356Z"/><glyph unicode="Δ" horiz-adv-x="1536" d="M76 0L652 1536H884L1456 0H76ZM352 148H1164L752 1256L352 148Z"/><glyph unicode="Ω" horiz-adv-x="1664" d="M832 1376Q644 1376 510 1234T376 836Q376 592 464 432T724 180V0H88V196H536Q416 240 304 406T192 848Q192 1112 358 1330T832 1548Q1140 1548 1306 1338T1472 848Q1472 572 1360 406T1128 196H1576V0H940V180Q1112 272 1200 432T1288 836Q1288 1044 1162 1210T832 1376Z"/><glyph unicode="μ" horiz-adv-x="662" d="M57 897H225V256Q225 196 245 170T317 143Q351 143 374 148T410 170T430 218T436 303V897H604V0H436V66Q411 41 372 25T287 6Q270 6 254 9T225 23V-324H57V897Z"/><glyph unicode="π" horiz-adv-x="1408" d="M296 0V1028H12V1176H1316V1028H996V344Q996 228 1042 184T1152 140Q1200 140 1232 142T1296 156V28Q1248 4 1206 -6T1088 -16Q960 -16 886 64T812 336V1028H484V0H296Z"/><glyph unicode="–" horiz-adv-x="850" d="M14 610H836V459H14V610Z"/><glyph unicode="—" horiz-adv-x="1196" d="M14 610H1182V459H14V610Z"/><glyph unicode="‘" horiz-adv-x="322" d="M74 1090Q74 1133 80 1168T104 1227T157 1266T248 1282V1192Q222 1189 206 1183T182 1166T171 1137T168 1090H248V901H74V1090Z"/><glyph unicode="’" horiz-adv-x="322" d="M74 987Q100 991 115 997T139 1015T151 1045T154 1092H74V1282H248V1092Q248 1049 242 1015T218 955T165 916T74 901V987Z"/><glyph unicode="‚" horiz-adv-x="322" d="M74 -102Q100 -99 115 -93T139 -76T151 -46T154 0H74V193H248V0Q248 -43 242 -77T218 -136T165 -175T74 -193V-102Z"/><glyph unicode="“" horiz-adv-x="575" d="M74 1092Q74 1135 80 1169T104 1228T156 1266T248 1282V1194Q222 1191 206 1185T182 1168T171 1138T168 1092H248V901H74V1092ZM330 1092Q330 1135 336 1169T360 1228T412 1266T502 1282V1194Q476 1191 461 1185T438 1168T427 1138T424 1092H502V901H330V1092Z"/><glyph unicode="”" horiz-adv-x="575" d="M74 987Q100 991 115 997T139 1015T151 1045T154 1092H74V1282H248V1092Q248 1049 242 1015T218 956T165 917T74 901V987ZM330 987Q356 991 371 997T395 1015T405 1045T408 1092H330V1282H502V1092Q502 1049 496 1015T472 956T420 917T330 901V987Z"/><glyph unicode="„" horiz-adv-x="575" d="M74 -102Q100 -99 115 -93T139 -76T151 -46T154 0H74V193H248V0Q248 -43 242 -77T218 -136T165 -174T74 -190V-102ZM330 -102Q356 -99 371 -93T395 -76T405 -46T408 0H330V193H502V0Q502 -43 496 -77T472 -136T420 -174T330 -190V-102Z"/><glyph unicode="†" horiz-adv-x="772" d="M303 659H39V813H303V1282H469V813H733V659H469V-324H303V659Z"/><glyph unicode="‡" horiz-adv-x="772" d="M303 78H39V229H303V731H39V883H303V1282H469V883H733V731H469V229H733V78H469V-322H303V78Z"/><glyph unicode="•" horiz-adv-x="743" d="M371 291Q305 291 258 307T179 356T134 442T119 567V799Q119 872 132 925T176 1012T254 1063T371 1079Q441 1079 489 1064T567 1015T610 930T623 805V569Q623 495 609 443T564 357T486 307T371 291Z"/><glyph unicode="…" horiz-adv-x="858" d="M59 201H236V0H59V201ZM340 201H518V0H340V201ZM621 201H799V0H621V201Z"/><glyph unicode="‰" horiz-adv-x="1837" d="M285 514Q170 514 112 567T53 733V1077Q53 1125 66 1165T108 1233T180 1276T285 1292Q345 1292 389 1277T461 1235T502 1168T516 1081V735Q516 621 458 568T285 514ZM285 645Q325 645 349 666T373 741V1073Q373 1159 285 1159Q197 1159 197 1071V741Q197 687 220 666T285 645ZM1034 -8Q922 -8 864 46T805 213V557Q805 605 818 645T859 713T930 756T1034 772Q1155 772 1211 715T1268 561V215Q1268 100 1209 46T1034 -8ZM1034 125Q1076 125 1099 146T1122 221V553Q1122 637 1034 637Q948 637 948 549V219Q948 167 970 146T1034 125ZM1554 -8Q1440 -8 1381 46T1321 213V557Q1321 605 1335 645T1377 713T1450 756T1554 772Q1674 772 1730 715T1786 561V215Q1786 100 1728 46T1554 -8ZM1554 125Q1595 125 1617 146T1640 221V553Q1640 637 1554 637Q1466 637 1466 549V219Q1466 167 1488 146T1554 125ZM776 1282H936L543 0H381L776 1282Z"/><glyph unicode="‹" horiz-adv-x="410" d="M49 451L182 897H356L221 451L356 0H182L49 451Z"/><glyph unicode="›" horiz-adv-x="410" d="M186 451L53 897H225L360 451L225 0H53L186 451Z"/><glyph unicode="⁄" horiz-adv-x="481" d="M358 1282H518L123 0H-37L358 1282Z"/><glyph unicode="⁰" horiz-adv-x="639" d="M319 381Q200 381 141 440T82 635V1044Q82 1102 95 1147T137 1224T211 1273T319 1290Q384 1290 429 1274T504 1227T546 1151T559 1049V637Q559 569 545 521T500 441T425 396T319 381ZM319 518Q340 518 356 523T384 543T402 580T408 641V1040Q408 1100 386 1125T319 1151Q276 1151 254 1124T231 1036V639Q231 603 237 580T255 543T283 524T319 518Z"/><glyph unicode="⁴" horiz-adv-x="633" d="M336 578H49V715L324 1282H481V715H573V578H481V387H336V578ZM336 713V1018L188 713H336Z"/><glyph unicode="⁵" horiz-adv-x="612" d="M309 377Q239 377 195 395T124 447T85 530T66 641L215 662Q219 618 223 590T238 546T264 523T307 516Q333 516 350 524T376 549T389 592T393 655V754Q393 819 379 852T313 885Q279 885 257 878T217 836L90 854L117 1282H510V1147H244L233 987Q283 1016 352 1016Q411 1016 448 999T507 948T537 863T545 743V641Q545 578 534 529T495 446T422 395T309 377Z"/><glyph unicode="⁶" horiz-adv-x="629" d="M317 381Q195 381 139 439T82 633V1044Q82 1099 94 1144T133 1221T206 1272T319 1290Q374 1290 414 1278T481 1243T523 1189T547 1118L393 1083Q391 1102 387 1115T374 1136T351 1149T313 1153Q288 1153 272 1145T246 1123T233 1089T229 1044V958Q252 986 282 998T358 1010Q456 1010 505 950T555 754V637Q555 505 501 443T317 381ZM317 516Q344 516 361 523T387 546T399 585T403 641V752Q403 789 400 813T388 852T362 873T317 879Q293 879 276 873T249 853T234 814T229 752V641Q229 604 233 580T248 542T276 522T317 516Z"/><glyph unicode="⁷" horiz-adv-x="524" d="M311 1141H45V1282H465V1149L262 387H111L311 1141Z"/><glyph unicode="⁸" horiz-adv-x="657" d="M328 381Q263 381 217 395T140 437T96 506T82 600V690Q82 755 105 798T174 866Q134 889 112 927T90 1026V1087Q90 1290 328 1290Q448 1290 508 1242T569 1090V1026Q569 967 548 929T485 868Q530 844 554 802T578 694V602Q578 496 519 439T328 381ZM328 512Q387 512 408 535T430 612V698Q430 724 426 744T411 779T379 801T328 809Q299 809 280 801T249 779T234 743T229 696V612Q229 558 250 535T328 512ZM328 926Q379 926 401 947T424 1020V1067Q424 1119 403 1138T328 1157Q277 1157 257 1138T236 1067V1020Q236 969 257 948T328 926Z"/><glyph unicode="⁹" horiz-adv-x="629" d="M309 381Q254 381 215 393T148 428T105 483T82 553L236 588Q239 570 243 557T255 534T278 521T317 516Q366 516 382 545T399 623V713Q376 684 348 673T272 662Q222 662 185 676T124 720T88 799T76 915V1034Q76 1166 130 1228T313 1290Q374 1290 418 1276T491 1232T533 1154T547 1038V627Q547 572 535 527T495 450T422 399T309 381ZM313 788Q338 788 354 794T381 814T395 853T399 915V1026Q399 1063 395 1088T381 1127T355 1147T313 1153Q286 1153 269 1146T242 1123T229 1083T225 1026V915Q225 878 228 854T240 815T267 794T313 788Z"/><glyph unicode="₀" horiz-adv-x="639" d="M319 -5Q200 -5 141 54T82 249V658Q82 716 95 761T137 838T211 887T319 904Q384 904 429 888T504 841T546 765T559 663V251Q559 183 545 135T500 55T425 10T319 -5ZM319 132Q340 132 356 137T384 157T402 194T408 255V654Q408 714 386 739T319 765Q276 765 254 738T231 650V253Q231 217 237 194T255 157T283 138T319 132Z"/><glyph unicode="₁" horiz-adv-x="526" d="M211 755H88V896H365V1H211V755Z"/><glyph unicode="₂" horiz-adv-x="618" d="M72 85Q72 152 95 209T154 316T229 410T305 496T363 576T387 656Q387 686 385 707T374 741T349 761T305 767Q278 767 261 759T234 735T219 696T211 642L59 661Q65 721 80 766T124 842T198 888T309 904Q378 904 422 890T492 847T527 772T537 663Q537 609 518 563T468 474T402 391T332 310T271 227T231 136H543V-1H72V85Z"/><glyph unicode="₃" horiz-adv-x="641" d="M324 -7Q259 -7 215 7T142 54T98 138T76 263L229 280Q232 236 237 207T252 161T278 137T322 130Q350 130 367 137T394 159T407 198T410 257V312Q410 343 405 362T388 392T355 405T305 409H240V540H303Q332 540 351 543T381 557T396 586T401 636V673Q401 697 399 715T388 745T365 763T326 769Q299 769 283 764T256 745T240 710T229 656L82 679Q91 740 108 783T153 854T224 893T328 906Q391 906 433 893T502 853T540 786T551 691V638Q551 576 532 539T473 482Q520 464 539 424T559 308V243Q559 178 547 131T508 53T435 8T324 -7Z"/><glyph unicode="₄" horiz-adv-x="633" d="M336 192H49V329L324 896H481V329H573V192H481V1H336V192ZM336 327V632L188 327H336Z"/><glyph unicode="₅" horiz-adv-x="612" d="M309 -9Q239 -9 195 9T124 61T85 144T66 255L215 276Q219 232 223 204T238 160T264 137T307 130Q333 130 350 138T376 163T389 206T393 269V368Q393 433 379 466T313 499Q279 499 257 492T217 450L90 468L117 896H510V761H244L233 601Q283 630 352 630Q411 630 448 613T507 562T537 477T545 357V255Q545 192 534 143T495 60T422 9T309 -9Z"/><glyph unicode="₆" horiz-adv-x="629" d="M317 -5Q195 -5 139 53T82 247V658Q82 713 94 758T133 835T206 886T319 904Q374 904 414 892T481 857T523 803T547 732L393 697Q391 716 387 729T374 750T351 763T313 767Q288 767 272 759T246 737T233 703T229 658V572Q252 600 282 612T358 624Q456 624 505 564T555 368V251Q555 119 501 57T317 -5ZM317 130Q344 130 361 137T387 160T399 199T403 255V366Q403 403 400 427T388 466T362 487T317 493Q293 493 276 487T249 467T234 428T229 366V255Q229 218 233 194T248 156T276 136T317 130Z"/><glyph unicode="₇" horiz-adv-x="524" d="M311 755H45V896H465V763L262 1H111L311 755Z"/><glyph unicode="₈" horiz-adv-x="657" d="M328 -5Q263 -5 217 9T140 51T96 120T82 214V304Q82 369 105 412T174 480Q134 503 112 541T90 640V701Q90 904 328 904Q448 904 508 856T569 704V640Q569 581 548 543T485 482Q530 458 554 416T578 308V216Q578 110 519 53T328 -5ZM328 126Q387 126 408 149T430 226V312Q430 338 426 358T411 393T379 415T328 423Q299 423 280 415T249 393T234 357T229 310V226Q229 172 250 149T328 126ZM328 540Q379 540 401 561T424 634V681Q424 733 403 752T328 771Q277 771 257 752T236 681V634Q236 583 257 562T328 540Z"/><glyph unicode="₉" horiz-adv-x="629" d="M309 -5Q254 -5 215 7T148 42T105 97T82 167L236 202Q239 184 243 171T255 148T278 135T317 130Q366 130 382 159T399 237V327Q376 298 348 287T272 276Q222 276 185 290T124 334T88 413T76 529V648Q76 780 130 842T313 904Q374 904 418 890T491 846T533 768T547 652V241Q547 186 535 141T495 64T422 13T309 -5ZM313 402Q338 402 354 408T381 428T395 467T399 529V640Q399 677 395 702T381 741T355 761T313 767Q286 767 269 760T242 737T229 697T225 640V529Q225 492 228 468T240 429T267 408T313 402Z"/><glyph unicode="€" horiz-adv-x="836" d="M29 834H137V942Q137 1119 216 1205T463 1292Q558 1292 619 1271T717 1204T770 1084T791 905L608 889Q606 959 603 1006T585 1082T541 1123T461 1135Q386 1135 349 1091T311 944V834H520V705H311V571H520V442H311V352Q311 301 318 263T342 199T389 160T465 147Q513 147 541 157T585 196T607 273T618 399L793 381Q787 286 772 213T719 91T620 17T457 -8Q373 -8 313 13T213 78T156 191T137 354V442H29V571H137V705H29V834Z"/><glyph unicode="℗" horiz-adv-x="1032" d="M514 -8Q296 -8 190 90T84 381V918Q84 1000 108 1069T185 1187T318 1264T514 1292Q631 1292 713 1265T848 1190T925 1073T950 924V383Q950 189 843 91T514 -8ZM514 94Q679 94 761 164T844 383V924Q844 984 826 1033T767 1117T665 1171T514 1190Q428 1190 367 1170T265 1114T207 1028T188 918V381Q188 233 270 164T514 94ZM324 1079H508Q569 1079 616 1069T696 1033T745 962T762 846V774Q762 704 746 659T697 588T617 551T508 541H457V190H324V1079ZM514 659Q551 659 573 663T607 680T623 715T627 772V846Q627 879 623 901T607 936T573 955T514 961H457V659H514Z"/><glyph unicode="™" horiz-adv-x="971" d="M395 1282H578L649 874L723 1282H907V641H784V1069L707 641H590L512 1069V641H395V1282ZM129 1167H31V1282H362V1167H260V641H129V1167Z"/><glyph unicode="Ω" horiz-adv-x="1664" d="M832 1376Q644 1376 510 1234T376 836Q376 592 464 432T724 180V0H88V196H536Q416 240 304 406T192 848Q192 1112 358 1330T832 1548Q1140 1548 1306 1338T1472 848Q1472 572 1360 406T1128 196H1576V0H940V180Q1112 272 1200 432T1288 836Q1288 1044 1162 1210T832 1376Z"/><glyph unicode="∂" horiz-adv-x="1280" d="M476 -32Q276 -32 166 80T56 360Q56 580 214 750T604 920Q700 920 802 886T964 816Q976 900 976 984Q976 1172 908 1278T720 1384Q592 1384 518 1356T368 1280L324 1444Q400 1488 492 1518T720 1548Q956 1548 1064 1394T1172 968Q1172 552 968 260T476 -32ZM488 128Q660 128 774 268T944 684Q912 716 824 748T648 780Q456 780 360 654T264 372Q264 264 318 196T488 128Z"/><glyph unicode="∆" horiz-adv-x="1536" d="M76 0L652 1536H884L1456 0H76ZM352 148H1164L752 1256L352 148Z"/><glyph unicode="∏" horiz-adv-x="1536" d="M332 0V1348H80V1524H1456V1348H1212V0H1004V1356H540V0H332Z"/><glyph unicode="∑" horiz-adv-x="1152" d="M1084 1524V1344H332L796 784L304 188H1080V0H40V172L560 788L68 1380V1524H1084Z"/><glyph unicode="−" horiz-adv-x="752" d="M39 713H713V559H39V713Z"/><glyph unicode="∕" horiz-adv-x="481" d="M358 1282H518L123 0H-37L358 1282Z"/><glyph unicode="∙" horiz-adv-x="305" d="M59 768H246V557H59V768Z"/><glyph unicode="√" horiz-adv-x="1280" d="M120 440L40 612L360 896L612 304L1112 1548H1304L612 -128H588L288 604L120 440Z"/><glyph unicode="∞" horiz-adv-x="1262" d="M938 301Q844 301 770 355T627 506Q593 457 560 419T490 355T414 315T328 301Q252 301 197 318T105 375T51 478T33 635Q33 726 50 789T104 892T194 949T324 967Q372 967 413 953T493 913T566 849T637 762Q704 859 774 913T934 967Q1010 967 1065 950T1157 893T1211 791T1229 635Q1229 543 1212 479T1159 376T1068 319T938 301ZM940 444Q979 444 1005 454T1046 486T1068 545T1075 635Q1075 688 1068 724T1045 782T1003 815T936 825Q904 825 876 810T822 770T769 710T715 637Q742 596 769 561T823 500T879 459T940 444ZM326 444Q357 444 385 458T440 498T493 558T549 633Q520 673 494 708T440 769T383 810T322 825Q283 825 257 815T216 783T194 724T188 635Q188 581 194 545T217 486T259 454T326 444Z"/><glyph unicode="∫" horiz-adv-x="1152" d="M-8 -392L56 -260Q80 -268 104 -274T164 -280Q212 -280 242 -246T288 -112L516 1224Q544 1384 636 1464T880 1544Q972 1544 1042 1522T1152 1476L1088 1304Q1044 1332 988 1356T868 1380Q776 1380 730 1322T672 1188L448 -224Q428 -332 350 -382T176 -432Q116 -432 66 -420T-8 -392Z"/><glyph unicode="≈" horiz-adv-x="752" d="M59 684Q59 804 90 856T195 909Q228 909 276 895T374 865T466 835T528 821Q537 821 543 823T554 835T559 862T561 911H692Q692 861 688 820T669 749T630 703T563 686Q541 686 511 692T448 709T381 731T317 753T263 769T225 776Q216 776 210 773T199 759T192 731T190 684H59ZM59 369Q59 488 90 541T195 594Q228 594 276 580T374 550T466 520T528 506Q537 506 543 508T554 520T559 547T561 596H692Q692 546 688 505T669 434T630 388T563 371Q541 371 511 377T448 394T381 416T317 438T263 454T225 461Q216 461 210 458T199 444T192 416T190 369H59Z"/><glyph unicode="≠" horiz-adv-x="752" d="M139 395H59V543H242L350 717H59V862H434L526 1004H692L600 862H692V717H500L389 543H692V395H305L225 270H59L139 395Z"/><glyph unicode="≤" horiz-adv-x="745" d="M88 152H618V0H88V152ZM88 557V715L618 1006V846L240 633L618 426V264L88 557Z"/><glyph unicode="≥" horiz-adv-x="745" d="M123 152H653V0H123V152ZM125 426L504 633L125 846V1006L655 715V557L125 264V426Z"/><glyph unicode="◊" horiz-adv-x="907" d="M57 641L356 1292H549L848 641L549 -10H356L57 641ZM678 641L455 1145L233 641L455 135L678 641Z"/><glyph unicode="" horiz-adv-x="1061" d="M371 0Q296 17 241 44T149 112T94 210T76 344Q76 465 125 537T260 641Q217 658 183 684T125 747T89 834T76 946Q76 1093 149 1176T377 1282L399 1153Q351 1147 314 1134T252 1097T213 1036T199 944Q199 871 221 824T283 748T380 709T506 698H555Q622 698 679 711T777 753T841 829T864 944Q864 999 851 1037T814 1101T754 1139T674 1159L690 1284Q765 1267 820 1239T912 1169T967 1071T985 940Q985 817 936 746T799 641Q842 624 876 598T935 535T972 449T985 338Q985 191 912 108T684 2L662 135Q709 141 746 153T809 189T848 249T862 340Q862 413 840 460T778 536T681 575T555 586H506Q438 586 382 573T284 531T220 454T197 340Q197 285 210 248T247 186T307 148T387 129L371 0V0Z"/><glyph unicode="ﬀ" horiz-adv-x="772" d="M469 741H279V0H113V741H12V897H113V1108Q113 1159 123 1197T158 1261T221 1300T317 1313H381V1161H360Q313 1161 296 1145T279 1079V897H469V1108Q469 1209 515 1261T676 1313H760V1161H719Q695 1161 679 1158T654 1145T641 1120T637 1079V897H760V741H637V0H469V741Z"/><glyph unicode="ﬁ" horiz-adv-x="698" d="M12 897H113V1108Q113 1159 123 1197T158 1261T221 1300T317 1313H387V1161H360Q313 1161 296 1145T279 1079V897H387V741H279V0H113V741H12V897ZM469 897H637V0H469V897ZM467 1210H641V1008H467V1210Z"/><glyph unicode="ﬂ" horiz-adv-x="698" d="M12 897H113V1108Q113 1159 123 1197T158 1261T221 1300T317 1313H387V1161H360Q313 1161 296 1145T279 1079V897H387V741H279V0H113V741H12V897ZM469 1313H637V0H469V1313Z"/><glyph unicode="ﬃ" horiz-adv-x="1057" d="M469 741H279V0H113V741H12V897H113V1108Q113 1159 123 1197T158 1261T221 1300T317 1313H381V1161H360Q313 1161 296 1145T279 1079V897H469V1108Q469 1209 515 1261T676 1313H748V1161H719Q695 1161 679 1158T654 1145T641 1120T637 1079V897H748V741H637V0H469V741ZM827 897H995V0H827V897ZM825 1210H999V1008H825V1210Z"/><glyph unicode="ﬄ" horiz-adv-x="1057" d="M469 741H279V0H113V741H12V897H113V1108Q113 1159 123 1197T158 1261T221 1300T317 1313H381V1161H360Q313 1161 296 1145T279 1079V897H469V1108Q469 1209 515 1261T676 1313H748V1161H719Q695 1161 679 1158T654 1145T641 1120T637 1079V897H748V741H637V0H469V741ZM827 1313H995V0H827V1313Z"/></font>
</defs>
</svg>
