<?xml version="1.0" encoding="UTF-8"?><svg xmlns="http://www.w3.org/2000/svg" width="100%" height="100%"><defs><font id="web" horiz-adv-x="1393"><!--



NOTICE: This font software is the valuable property 
of Webtype LLC, The Font Bureau, Webtype and/or its 
suppliers and its use by you is covered under the terms 
of the Web Font license agreement between you and Webtype 
LLC. You may ONLY use this font software with the licensed 
web site. Except as specifically permitted by the license, 
you may not copy this font software. If you have any 
questions, please contact Webtype.com. 

For more information, please visit http://www.webtype.com/store/license/?id=23

Licensed to: nickmom.com

Serial number: SH-851
--><font-face font-family="" units-per-em="2048" panose-1="2 0 5 5 0 0 0 2 0 4" ascent="2232" descent="-797" alphabetic="0"/><missing-glyph horiz-adv-x="1024" d="M0 1434H1024V0H0V1434ZM102 102H922V1331H102V102Z"/><glyph unicode=" " horiz-adv-x="412"/><glyph unicode="!" horiz-adv-x="883" d="M197 457H684V0H197V457ZM205 1518H678L637 520H244L205 1518Z"/><glyph unicode="&quot;" horiz-adv-x="1300" d="M158 1518H588L565 729H180L158 1518ZM713 1518H1145L1120 729H737L713 1518Z"/><glyph unicode="#" horiz-adv-x="1647" d="M264 274H100V651H334L356 733H100V1110H424L498 1466H913L840 1110H952L1024 1466H1440L1368 1110H1546V733H1298L1278 651H1546V274H1208L1151 0H735L793 274H680L623 0H207L264 274ZM885 623L913 764H752L719 623H885Z"/><glyph unicode="$" horiz-adv-x="1458" d="M565 39Q442 85 373 182V0H61V532H389Q408 451 500 399T723 346Q878 346 942 372T1006 457Q1006 507 945 531T719 569Q464 590 345 638T165 775T104 1006Q104 1196 221 1309T565 1451V1610H897V1433Q1003 1398 1053 1315V1466H1364V977H1034Q1000 1042 918 1078T717 1114Q617 1114 571 1093T524 1018Q524 972 582 949T811 909Q1021 891 1127 860T1296 780T1391 657T1423 483Q1423 285 1286 161T897 12V-193H565V39Z"/><glyph unicode="%" horiz-adv-x="2746" d="M588 453Q435 453 311 518T118 701T49 973Q49 1123 119 1241T314 1424T588 1489Q736 1489 860 1424T1053 1241T1122 973Q1122 820 1053 702T861 519T588 453ZM588 772Q657 772 697 824T737 973Q737 1063 697 1111T588 1159Q520 1159 477 1112T434 973Q434 877 476 825T588 772ZM1597 1466H1999L1149 0H748L1597 1466ZM2163 -18Q2011 -18 1887 47T1694 232T1624 504Q1624 654 1694 772T1889 955T2163 1020Q2311 1020 2435 955T2628 772T2697 504Q2697 350 2628 232T2434 48T2163 -18ZM2163 301Q2232 301 2272 354T2312 504Q2312 592 2272 640T2163 688Q2095 688 2052 641T2009 504Q2009 407 2051 354T2163 301Z"/><glyph unicode="&amp;" horiz-adv-x="1923" d="M645 -18Q355 -18 206 92T57 410Q57 571 147 681T442 856Q412 964 412 1055Q412 1201 474 1309T662 1479T944 1542Q1057 1542 1151 1496T1299 1365T1352 1174Q1352 991 1259 872T967 688Q1047 581 1151 514Q1203 568 1240 644T1319 864L1661 786Q1607 553 1479 383Q1514 369 1585 369Q1640 369 1718 389L1794 41Q1665 0 1524 0Q1331 0 1139 74Q926 -18 645 -18ZM702 322H739L774 324Q656 430 569 571Q492 527 492 442Q492 383 546 353T702 322ZM840 940Q932 963 969 1003T1006 1114Q1006 1154 984 1171T930 1188Q883 1188 854 1147T825 1040Q825 989 840 940Z"/><glyph unicode="'" horiz-adv-x="766" d="M158 1518H608L586 729H180L158 1518Z"/><glyph unicode="(" horiz-adv-x="1133" d="M606 -401Q483 -297 388 -138T240 215T186 623Q186 808 237 1002T390 1375T606 1651L922 1458Q804 1309 746 1188T659 926T631 627Q631 131 922 -209L606 -401Z"/><glyph unicode=")" horiz-adv-x="1133" d="M213 -209Q337 -49 389 63T472 313T502 623Q502 864 430 1078T213 1458L526 1651Q650 1546 745 1387T894 1034T948 627Q948 437 894 240T738 -134T526 -401L213 -209Z"/><glyph unicode="*" horiz-adv-x="1296" d="M518 735L268 553L98 862L385 977L98 1098L266 1403L518 1219L479 1520H813L774 1214L1028 1403L1198 1100L905 977L1198 860L1030 557L774 739L811 436H479L518 735Z"/><glyph unicode="+" horiz-adv-x="1518" d="M543 528H172V915H543V1284H975V915H1346V528H975V156H543V528Z"/><glyph unicode="," horiz-adv-x="676" d="M117 -166Q246 -107 272 -90T309 -54T319 0H94V467H582V143Q582 -35 554 -114T453 -250T217 -375L117 -166Z"/><glyph unicode="-" horiz-adv-x="831" d="M59 895H770V508H59V895Z"/><glyph unicode="." horiz-adv-x="676" d="M94 467H582V0H94V467Z"/><glyph unicode="/" horiz-adv-x="1288" d="M848 1518H1288L440 0H0L848 1518Z"/><glyph unicode="0" horiz-adv-x="1546" d="M776 -23Q569 -23 412 69T169 332T84 733Q84 963 169 1134T410 1397T776 1489Q980 1489 1136 1398T1377 1134T1462 733Q1462 504 1378 333T1137 69T776 -23ZM776 354Q889 354 951 449T1014 733Q1014 1096 776 1096Q535 1096 535 733Q535 548 597 451T776 354Z"/><glyph unicode="1" horiz-adv-x="958" d="M72 338H309V1067Q234 1042 174 1038T72 1034V1413Q255 1413 352 1426T500 1466H735V338H932V0H72V338Z"/><glyph unicode="2" horiz-adv-x="1407" d="M63 381L586 686Q729 770 785 831T842 963Q842 1035 797 1072T664 1110Q502 1110 397 971L47 1178Q157 1340 320 1414T719 1489Q983 1489 1128 1367T1274 1024Q1274 907 1234 816T1116 652T885 496L502 289H979V471H1317V0H63V381Z"/><glyph unicode="3" horiz-adv-x="1399" d="M723 -25Q443 -25 269 55T6 315L365 477Q406 400 481 367T676 334Q802 334 856 370T911 477Q911 532 875 559T751 597T465 608V911Q613 911 699 922T826 957T866 1028Q866 1080 819 1104T680 1128Q580 1128 513 1106T393 1024L61 1219Q147 1355 314 1423T715 1491Q889 1491 1019 1445T1219 1314T1290 1122Q1290 1005 1218 922T1020 807Q1179 776 1260 679T1341 432Q1341 290 1263 187T1045 30T723 -25Z"/><glyph unicode="4" horiz-adv-x="1503" d="M633 317H829V416H63V694L723 1466H1194L549 717H838L926 981H1229V717H1440V416H1229V317H1378V0H633V317Z"/><glyph unicode="5" horiz-adv-x="1460" d="M741 -25Q477 -25 305 58T49 315L408 477Q486 334 719 334Q838 334 895 377T952 514Q952 670 743 670Q672 670 600 661T492 641L135 748L209 1466H1266V1098H543L520 891Q579 935 674 959T887 983Q1121 983 1252 858T1384 508Q1384 252 1218 114T741 -25Z"/><glyph unicode="6" horiz-adv-x="1470" d="M768 -23Q558 -23 401 61T159 307T74 684Q74 1489 901 1489Q1057 1489 1208 1458L1149 1096Q1019 1124 883 1124Q512 1124 512 825Q566 905 676 954T915 1004Q1150 1004 1284 873T1419 514Q1419 262 1247 120T768 -23ZM776 330Q872 330 929 380T987 508Q987 591 932 641T782 692Q672 692 600 644T528 516Q528 432 596 381T776 330Z"/><glyph unicode="7" horiz-adv-x="1362" d="M444 0Q435 75 435 147Q435 436 569 702T934 1139H457V930H98V1466H1354V1204Q1127 1044 1006 734T883 0H444Z"/><glyph unicode="8" horiz-adv-x="1450" d="M723 -39Q516 -39 366 20T137 187T57 430Q57 705 334 807Q236 853 182 933T127 1112Q127 1226 198 1314T401 1450T723 1499Q912 1499 1046 1450T1251 1313T1321 1112Q1321 1012 1266 931T1112 807Q1257 756 1325 664T1393 430Q1393 294 1313 187T1082 20T723 -39ZM723 287Q830 287 891 337T952 473Q952 562 891 612T723 662Q619 662 559 612T498 473Q498 387 558 337T723 287ZM723 901Q803 901 849 939T895 1040Q895 1100 849 1135T723 1171Q644 1171 599 1136T553 1040Q553 978 598 940T723 901Z"/><glyph unicode="9" horiz-adv-x="1470" d="M702 1489Q1030 1489 1213 1302T1397 782Q1397 -23 569 -23Q425 -23 262 8L322 358Q450 330 588 330Q785 330 871 396T958 629Q904 550 797 501T555 451Q324 451 188 585T51 952Q51 1204 223 1346T702 1489ZM694 1116Q597 1116 540 1068T483 942Q483 858 538 810T688 762Q800 762 871 809T942 934Q942 1016 876 1066T694 1116Z"/><glyph unicode=":" horiz-adv-x="717" d="M115 453H602V0H115V453ZM115 1180H602V729H115V1180Z"/><glyph unicode=";" horiz-adv-x="717" d="M137 -166Q267 -107 294 -89T330 -53T340 0H115V453H602V143Q602 -22 569 -105T460 -250T238 -375L137 -166ZM115 1180H602V729H115V1180Z"/><glyph unicode="&lt;" horiz-adv-x="1518" d="M231 567V852L1202 1331V938L690 711L1202 481V86L231 567Z"/><glyph unicode="=" horiz-adv-x="1518" d="M184 647H1333V260H184V647ZM184 1182H1333V797H184V1182Z"/><glyph unicode="&gt;" horiz-adv-x="1518" d="M315 479L827 707L315 936V1331L1286 850V563L315 86V479Z"/><glyph unicode="?" horiz-adv-x="1491" d="M494 465L490 543Q490 608 505 668T560 777T657 855T784 915Q881 956 905 972T941 1005T952 1053Q952 1101 903 1123T754 1145Q651 1145 574 1112T449 1018L98 1225Q311 1542 774 1542Q1069 1542 1230 1429T1391 1108Q1391 831 1110 713Q997 664 968 642T927 592T915 516L918 465H494ZM461 401H948V0H461V401Z"/><glyph unicode="@" horiz-adv-x="2150" d="M1114 -338Q621 -338 366 -103T111 594Q111 881 230 1093T592 1424T1145 1544Q1425 1544 1628 1453T1934 1190T2038 774Q2038 417 1908 238T1505 59Q1361 59 1275 114T1169 281Q1110 184 1023 135T827 86Q662 86 575 194T487 510Q487 685 552 834T731 1066T987 1149Q1087 1149 1158 1110T1272 981L1427 1128L1663 1104L1530 467Q1511 383 1511 347Q1511 242 1610 242Q1862 242 1862 774Q1862 1068 1674 1222T1145 1376Q879 1376 681 1280T385 1009T287 594Q287 216 499 23T1114 -170Q1260 -170 1404 -141T1653 -59L1724 -207Q1603 -269 1446 -303T1114 -338ZM989 395Q1081 395 1142 468T1204 651Q1204 732 1168 773T1063 815Q977 815 924 736T870 537Q870 395 989 395Z"/><glyph unicode="A" horiz-adv-x="1757" d="M37 360H145L592 1528H1161L1612 360H1720V0H985V338H1165L1120 463H590L545 338H709V0H37V360ZM1010 762L854 1186L700 762H1010Z"/><glyph unicode="B" horiz-adv-x="1591" d="M37 360H170V1143H37V1518H922Q1497 1518 1497 1110Q1497 870 1202 784Q1546 715 1546 414Q1546 205 1394 103T915 0H37V360ZM885 348Q1085 348 1085 477Q1085 540 1038 570T883 600H608V348H885ZM852 907Q943 907 989 936T1036 1034Q1036 1100 986 1127T829 1155H608V907H852Z"/><glyph unicode="C" horiz-adv-x="1659" d="M844 -18Q617 -18 437 78T157 349T57 745Q57 970 146 1147T409 1432T784 1540Q1104 1540 1214 1356V1518H1577V930H1186Q1109 1126 864 1126Q710 1126 613 1025T516 754Q516 585 612 481T866 377Q1001 377 1085 436T1219 627L1583 494Q1495 245 1304 114T844 -18Z"/><glyph unicode="D" horiz-adv-x="1671" d="M37 360H170V1143H37V1518H748Q1181 1518 1398 1328T1616 760Q1616 521 1518 351T1217 91T719 0H37V360ZM750 375Q955 375 1056 468T1157 760Q1157 953 1058 1040T729 1128H614V375H750Z"/><glyph unicode="E" horiz-adv-x="1522" d="M37 360H170V1143H37V1518H1427V930H1036V1157H618V936H963V590H618V342H1065V606H1456V0H37V360Z"/><glyph unicode="F" horiz-adv-x="1473" d="M37 360H170V1143H37V1518H1427V930H1026V1157H618V915H952V569H618V360H834V0H37V360Z"/><glyph unicode="G" horiz-adv-x="1700" d="M737 -23Q553 -23 395 75T147 351T57 745Q57 972 146 1149T408 1433T778 1540Q924 1540 1033 1498T1202 1356V1518H1563V961H1171Q1117 1054 1047 1090T858 1126Q706 1126 611 1025T516 754Q516 569 611 463T879 356Q1004 356 1089 398T1198 514H872V823H1591V0H1352L1268 225Q1192 106 1055 42T737 -23Z"/><glyph unicode="H" horiz-adv-x="1794" d="M37 360H170V1143H37V1518H821V1153H616V954H1176V1153H969V1518H1757V1143H1624V360H1757V0H969V350H1176V594H616V350H821V0H37V360Z"/><glyph unicode="I" horiz-adv-x="827" d="M37 360H190V1143H37V1518H791V1143H637V360H791V0H37V360Z"/><glyph unicode="J" horiz-adv-x="1135" d="M94 377Q225 342 348 342Q446 342 491 380T537 508V1143H383V1518H1098V1143H985V446Q985 304 919 197T731 33T453 -25Q303 -25 203 -13T12 25L94 377Z"/><glyph unicode="K" horiz-adv-x="1667" d="M37 360H170V1143H37V1518H733V1163H610V829L1036 1163H883V1518H1597V1143H1462L1135 874L1518 360H1630V0H885V326H1032L807 604L610 444V326H735V0H37V360Z"/><glyph unicode="L" horiz-adv-x="1481" d="M37 360H170V1143H37V1518H786V1143H618V342H1034V606H1436V0H37V360Z"/><glyph unicode="M" horiz-adv-x="2120" d="M37 360H172V1143H37V1518H784L1057 690L1333 1518H2083V1157H1948V360H2083V0H1393V348H1511V995L1192 0H909L590 995V348H709V0H37V360Z"/><glyph unicode="N" horiz-adv-x="1798" d="M37 360H170V1143H37V1518H686L1231 694V1143H1128V1518H1761V1143H1645V0H1210L582 907V360H711V0H37V360Z"/><glyph unicode="O" horiz-adv-x="1755" d="M879 -25Q642 -25 447 75T153 351T55 760Q55 993 153 1167T446 1441T879 1542Q1114 1542 1310 1442T1604 1168T1702 760Q1702 581 1645 437T1478 191T1212 33T879 -25ZM879 375Q1042 375 1141 480T1241 752Q1241 918 1141 1022T879 1126Q716 1126 615 1023T514 752Q514 584 615 480T879 375Z"/><glyph unicode="P" horiz-adv-x="1602" d="M37 360H170V1143H37V1518H889Q1230 1518 1393 1385T1556 987Q1556 814 1486 699T1266 525T860 467H616V360H801V0H37V360ZM872 799Q993 799 1049 838T1106 973Q1106 1070 1049 1110T852 1151H616V799H872Z"/><glyph unicode="Q" horiz-adv-x="1755" d="M1004 -416Q849 -416 747 -370T588 -239T531 -14Q531 21 535 57Q299 137 177 319T55 764Q55 996 152 1169T444 1442T879 1542Q1118 1542 1313 1442T1605 1169T1702 764Q1702 546 1616 386T1352 135T934 35Q936 -18 963 -32T1075 -47Q1154 -47 1245 -31T1403 8L1505 -328Q1404 -369 1268 -392T1004 -416ZM879 375Q1042 375 1141 480T1241 752Q1241 918 1141 1022T879 1126Q716 1126 615 1023T514 752Q514 584 615 480T879 375Z"/><glyph unicode="R" horiz-adv-x="1608" d="M37 360H172V1143H37V1518H844Q1175 1518 1344 1385T1513 989Q1513 678 1274 567L1446 360H1571V0H856V348H961L858 492H606V348H711V0H37V360ZM848 807Q969 807 1015 844T1061 977Q1061 1071 1005 1111T807 1151H606V807H848Z"/><glyph unicode="S" horiz-adv-x="1569" d="M883 -25Q506 -25 391 160V0H53V559H408Q429 459 528 404T799 348Q936 348 1003 371T1071 457Q1071 490 1045 510T969 542T784 565Q573 586 491 604T338 654T215 738T131 865T100 1047Q100 1193 170 1303T379 1478T686 1542Q867 1542 968 1501T1120 1378V1518H1458V995H1104Q1037 1153 772 1153Q658 1153 607 1132T555 1057Q555 1008 613 982T823 946Q894 940 973 933T1130 910T1278 864T1402 786T1488 662T1520 481Q1520 247 1349 111T883 -25Z"/><glyph unicode="T" horiz-adv-x="1640" d="M440 342H596V1159H424V930H45V1518H1595V930H1217V1159H1044V342H1200V0H440V342Z"/><glyph unicode="U" horiz-adv-x="1792" d="M897 -25Q671 -25 505 48T244 267T150 606V1143H37V1518H825V1153H598V680Q598 511 672 439T903 367Q1065 367 1136 438T1208 680V1153H975V1518H1755V1143H1640V606Q1640 415 1547 268T1287 48T897 -25Z"/><glyph unicode="V" horiz-adv-x="1737" d="M139 1143H37V1518H801V1163H590L891 352L1194 1163H997V1518H1700V1143H1593L1135 -10H584L139 1143Z"/><glyph unicode="W" horiz-adv-x="2302" d="M182 1143H37V1518H764V1163H614L739 453L975 1518H1364L1599 453L1722 1163H1556V1518H2265V1143H2109L1841 -10H1358L1147 877L936 -10H453L182 1143Z"/><glyph unicode="X" horiz-adv-x="1683" d="M37 360H115L535 774L150 1143H57V1518H823V1163H678L897 958L1096 1163H971V1518H1624V1143H1528L1145 729L1544 360H1647V0H852V338H993L772 549L569 338H705V0H37V360Z"/><glyph unicode="Y" horiz-adv-x="1663" d="M479 342H616V537L115 1143H37V1518H786V1163H580L860 844L1120 1163H936V1518H1626V1143H1548L1065 535V342H1202V0H479V342Z"/><glyph unicode="Z" horiz-adv-x="1473" d="M37 328L907 1180H449V930H57V1518H1415V1151L571 322H1044V606H1436V0H37V328Z"/><glyph unicode="[" horiz-adv-x="1133" d="M205 1589H975V1241H645V-6H981V-338H205V1589Z"/><glyph unicode="\" horiz-adv-x="1288" d="M0 1518H440L1288 0H848L0 1518Z"/><glyph unicode="]" horiz-adv-x="1133" d="M152 -6H487V1241H160V1589H928V-338H152V-6Z"/><glyph unicode="^" horiz-adv-x="1518" d="M1380 496H985L756 1008L528 496H135L614 1466H899L1380 496Z"/><glyph unicode="_" horiz-adv-x="928" d="M-76 -55H1004V-373H-76V-55Z"/><glyph unicode="`" horiz-adv-x="1208" d="M215 1473L328 1802L973 1538L877 1264L215 1473Z"/><glyph unicode="a" horiz-adv-x="1339" d="M809 197Q763 95 657 39T397 -18Q291 -18 209 30T82 165T37 356Q37 532 166 630T526 729Q663 729 795 692V719Q795 771 767 797T664 823Q562 823 453 805T283 762L141 1108Q235 1153 389 1181T711 1210Q974 1210 1096 1097T1219 752V338H1327V12L870 -20L809 197ZM588 328Q795 328 795 469V496Q743 508 674 508Q446 508 446 416Q446 328 588 328Z"/><glyph unicode="b" horiz-adv-x="1473" d="M930 -18Q794 -18 696 23T535 156L444 -10L37 10V338H135V1219H27V1569L569 1599V993Q615 1096 712 1151T954 1206Q1097 1206 1202 1128T1363 911T1419 592Q1419 410 1357 269T1185 55T930 -18ZM793 344Q885 344 932 404T979 573Q979 688 932 750T793 813Q687 813 628 749T569 573Q569 462 625 403T793 344Z"/><glyph unicode="c" horiz-adv-x="1311" d="M668 -18Q376 -18 215 143T53 592Q53 754 127 894T331 1116T618 1198Q732 1198 815 1156T932 1042V1180H1239V686H911Q876 756 828 783T709 811Q611 811 552 749T492 580Q492 464 549 404T700 344Q784 344 839 383T932 506L1264 358Q1186 174 1031 78T668 -18Z"/><glyph unicode="d" horiz-adv-x="1475" d="M518 -18Q375 -18 270 59T109 276T53 594Q53 770 112 910T281 1128T541 1206Q792 1206 901 1038V1229H745V1569L1337 1599V338H1462V10L1001 -20L940 199Q890 99 782 41T518 -18ZM680 346Q781 346 841 413T901 594Q901 817 680 817Q586 817 540 759T494 594Q494 479 542 413T680 346Z"/><glyph unicode="e" horiz-adv-x="1300" d="M637 -25Q456 -25 325 46T123 258T53 592Q53 867 220 1036T690 1206Q872 1206 993 1139T1177 926T1239 535V455H485Q503 379 547 349T684 319Q900 319 1028 403L1227 133Q1107 52 964 14T637 -25ZM696 852Q601 852 549 812T481 686H848V690Q848 764 807 808T696 852Z"/><glyph unicode="f" horiz-adv-x="983" d="M37 338H242V829H37V1180H242V1217Q242 1414 371 1527T731 1640Q848 1640 904 1637T1026 1620L975 1270Q862 1282 791 1282Q733 1282 705 1260T676 1186V1180H971V829H676V338H971V0H37V338Z"/><glyph unicode="g" horiz-adv-x="1323" d="M518 -367Q232 -367 101 -305T-31 -109Q-31 83 256 129Q198 149 163 197T127 309Q127 359 161 411T252 500Q33 592 33 803Q33 989 193 1097T627 1206Q722 1206 836 1194L1178 1391L1278 1040H1059Q1151 1002 1189 941T1227 776Q1227 621 1064 529T627 436Q556 436 492 442Q489 435 489 420Q489 393 518 384T630 375H689Q941 375 1073 347T1263 252T1321 51Q1321 -155 1116 -261T518 -367ZM578 -96Q736 -96 805 -75T874 0Q874 35 843 50T734 71T585 78Q502 78 455 57T408 -4Q408 -96 578 -96ZM627 674Q799 674 799 778Q799 883 627 883Q459 883 459 778Q459 674 627 674Z"/><glyph unicode="h" horiz-adv-x="1473" d="M37 338H135V1219H27V1569L569 1599V963Q617 1081 715 1143T950 1206Q1352 1206 1352 733V338H1460V0H782V338H915V641Q915 724 878 761T764 799Q658 799 614 757T569 637V338H705V0H37V338Z"/><glyph unicode="i" horiz-adv-x="778" d="M37 338H176V829H37V1169L610 1200V338H766V0H37V338ZM174 1589H614V1255H174V1589Z"/><glyph unicode="j" horiz-adv-x="702" d="M10 -35L74 -37Q128 -37 148 -15T168 55V829H29V1169L602 1200V100Q602 -79 557 -176T410 -316T127 -360Q41 -360 -10 -356L10 -35ZM166 1589H606V1255H166V1589Z"/><glyph unicode="k" horiz-adv-x="1407" d="M37 338H135V1219H27V1569L563 1599V696L836 874H709V1180H1329V829H1221L1008 690L1278 338H1395V0H729V326H788L680 475L563 399V326H651V0H37V338Z"/><glyph unicode="l" horiz-adv-x="768" d="M37 338H166V1219H27V1569L600 1599V338H756V0H37V338Z"/><glyph unicode="m" horiz-adv-x="2204" d="M37 338H145V829H37V1169L477 1200L543 950Q640 1206 944 1206Q1077 1206 1164 1146T1294 952Q1390 1206 1696 1206Q1892 1206 1987 1090T2083 733V338H2191V0H1528V338H1647V641Q1647 730 1614 764T1509 799Q1413 799 1372 762T1331 637V338H1450V0H776V338H895V641Q895 730 862 764T758 799Q662 799 621 762T580 637V338H698V0H37V338Z"/><glyph unicode="n" horiz-adv-x="1483" d="M37 338H145V829H37V1169L477 1200L543 950Q591 1077 699 1141T961 1206Q1362 1206 1362 733V338H1470V0H793V338H926V641Q926 799 774 799Q668 799 624 757T580 637V338H715V0H37V338Z"/><glyph unicode="o" horiz-adv-x="1401" d="M700 -23Q403 -23 228 141T53 592Q53 879 227 1042T700 1206Q896 1206 1043 1132T1269 919T1348 592Q1348 404 1269 265T1042 51T700 -23ZM700 346Q911 346 911 580Q911 811 700 811Q492 811 492 580Q492 346 700 346Z"/><glyph unicode="p" horiz-adv-x="1475" d="M29 -16H137V829H29V1169L469 1200L535 954Q583 1081 692 1143T956 1206Q1099 1206 1204 1128T1365 911T1421 592Q1421 410 1359 269T1187 55T932 -18Q794 -18 712 26T571 182V-16H666V-338H29V-16ZM795 344Q888 344 934 404T981 573Q981 688 934 750T795 813Q689 813 630 749T571 573Q571 462 627 403T795 344Z"/><glyph unicode="q" horiz-adv-x="1475" d="M788 -16H901V195Q857 92 760 37T518 -18Q375 -18 270 59T109 276T53 594Q53 770 112 910T281 1128T541 1206Q677 1206 774 1165T938 1032L1051 1200L1446 1169V829H1337V-16H1446V-338H788V-16ZM680 346Q781 346 841 413T901 594Q901 817 680 817Q586 817 540 759T494 594Q494 477 542 412T680 346Z"/><glyph unicode="r" horiz-adv-x="983" d="M37 338H145V829H37V1169L477 1200L545 942Q594 1038 665 1091T858 1180L969 750H955Q765 750 673 699T580 541V338H694V0H37V338Z"/><glyph unicode="s" horiz-adv-x="1260" d="M733 -14Q562 -14 457 27T324 143V0H37V420H334Q379 350 458 319T680 287Q815 287 815 352Q815 382 783 396T670 416L549 426Q360 441 262 484T117 609T70 809Q70 928 128 1016T294 1152T537 1200Q660 1200 760 1163T889 1067V1180H1178V784H870Q839 829 770 853T612 877Q552 877 524 862T496 813Q496 786 532 773T694 750L806 744Q1029 730 1130 643T1231 389Q1231 197 1098 92T733 -14Z"/><glyph unicode="t" horiz-adv-x="1171" d="M596 -23Q406 -23 314 76T221 387V829H12V1180H250L328 1518H657V1180H1063V829H657V506Q657 437 667 411T701 374T774 362Q865 362 983 406L1096 66Q911 -23 596 -23Z"/><glyph unicode="u" horiz-adv-x="1493" d="M543 -16Q338 -16 242 96T145 457V829H37V1169L580 1200V512Q580 427 617 390T731 352Q830 352 875 391T920 514V829H770V1169L1356 1200V338H1481V10L1022 -20L958 197Q913 100 800 42T543 -16Z"/><glyph unicode="v" horiz-adv-x="1380" d="M106 829H12V1180H676V842H543L713 313L885 842H754V1180H1368V829H1276L979 -12H401L106 829Z"/><glyph unicode="w" horiz-adv-x="1985" d="M115 829H12V1180H641V829H532L623 362L848 1180H1151L1370 346L1464 829H1333V1180H1972V829H1860L1632 -12H1141L987 578L834 -12H342L115 829Z"/><glyph unicode="x" horiz-adv-x="1454" d="M37 338H125L426 588L131 829H55V1180H780V887H664L825 760L961 887H858V1180H1423V829H1303L1053 584L1366 338H1442V0H698V281H803L651 403L514 281H621V0H37V338Z"/><glyph unicode="y" horiz-adv-x="1376" d="M410 -360Q312 -360 217 -350T72 -324L147 10Q271 -16 369 -16L459 -11L106 829H12V1180H692V842H555L720 352L907 842H770V1180H1364V829H1278L877 -80Q810 -233 709 -296T410 -360Z"/><glyph unicode="z" horiz-adv-x="1274" d="M37 348L731 870H401V731H74V1180H1194V819L524 283H909V479H1237V0H37V348Z"/><glyph unicode="{" horiz-adv-x="1208" d="M662 -338Q485 -338 385 -258T285 -35L287 2Q289 38 355 246Q382 331 382 363Q382 405 362 422T295 446T121 453V801Q250 801 296 807T362 830T382 888L381 911Q380 929 355 1007Q311 1144 299 1191T285 1286Q285 1428 385 1508T662 1589H1057V1239H887Q801 1239 768 1213T734 1133Q734 1101 749 1062Q789 951 802 899T816 805Q816 667 670 627Q816 584 816 446Q816 402 800 344T749 190Q734 150 734 119Q734 60 772 27T887 -6H1057V-338H662Z"/><glyph unicode="|" horiz-adv-x="850" d="M205 1589H645V-338H205V1589Z"/><glyph unicode="}" horiz-adv-x="1208" d="M152 -6H322Q396 -6 435 26T474 118Q474 150 460 190Q419 300 406 352T392 446Q392 584 539 627Q468 646 430 691T392 805Q392 849 408 907T460 1062Q474 1101 474 1133Q474 1189 439 1214T322 1239H152V1589H547Q724 1589 823 1508T924 1286L922 1249Q917 1202 875 1073Q847 989 837 952T826 888Q826 847 845 831T908 808T1087 801V453Q967 453 919 447T848 423T826 363L827 340Q832 309 875 179Q901 99 912 52T924 -35Q924 -176 824 -257T547 -338H152V-6Z"/><glyph unicode="~" horiz-adv-x="1518" d="M164 688Q379 954 573 954Q628 954 679 936T776 896T862 856T936 838Q975 838 1018 868T1118 967L1354 772Q1137 506 944 506Q890 506 840 524T744 564T658 604T582 623Q504 623 399 494L164 688Z"/><glyph unicode=" " horiz-adv-x="412"/><glyph unicode="¡" horiz-adv-x="883" d="M246 997H639L678 0H205L246 997ZM199 1518H686V1061H199V1518Z"/><glyph unicode="¢" horiz-adv-x="1290" d="M469 2Q269 47 161 203T53 592Q53 723 104 845T250 1054T469 1173V1323H813V1150Q892 1110 932 1042V1180H1239V686H911Q874 761 826 791T709 821Q610 821 549 755T487 580Q487 464 543 399T700 334Q784 334 839 378T932 506L1264 358Q1196 200 1084 114T813 -1V-193H469V2Z"/><glyph unicode="£" horiz-adv-x="1462" d="M18 328Q187 352 255 389T324 492Q324 530 313 578H35V860H213Q182 957 182 1038Q182 1174 254 1277T459 1434T774 1489Q1105 1489 1313 1294L1069 1001Q953 1104 764 1104Q690 1104 651 1069T612 977Q612 923 629 860H944V578H707Q713 540 713 504Q713 441 702 383Q794 348 887 348Q970 348 1006 387T1042 512Q1042 558 1032 618L1403 664Q1417 559 1417 496Q1417 238 1295 113T901 -12Q697 -12 500 98Q342 7 66 -20L18 328Z"/><glyph unicode="¤" horiz-adv-x="1516" d="M94 326L266 498Q211 598 211 741Q211 866 254 956L94 1118L360 1393L545 1206Q641 1237 756 1237Q872 1237 969 1204L1157 1395L1421 1120L1257 956Q1300 853 1300 741Q1300 608 1245 500L1419 328L1155 53L940 266Q854 244 756 244Q654 244 573 266L358 53L94 326ZM756 528Q841 528 897 585T954 729Q954 816 899 873T756 930Q669 930 613 874T557 729Q557 642 614 585T756 528Z"/><glyph unicode="¥" horiz-adv-x="1624" d="M467 322H621V383H127V598H563L508 670H127V885H342L172 1104H63V1466H766V1122H618L838 799L1034 1122H911V1466H1561V1104H1448L1286 885H1493V670H1128L1075 598H1493V383H1016V322H1169V0H467V322Z"/><glyph unicode="¦" horiz-adv-x="850" d="M205 465H645V-338H205V465ZM205 1589H645V786H205V1589Z"/><glyph unicode="§" horiz-adv-x="1382" d="M825 -358Q703 -358 609 -322T485 -225V-338H197V57H504Q568 -35 750 -35Q810 -35 833 -20T856 29Q856 63 806 78T627 99Q361 109 246 195T131 459Q131 579 187 657T348 768Q131 858 131 1096Q131 1215 189 1303T355 1439T598 1487Q721 1487 821 1450T950 1354V1466H1239V1071H932Q900 1117 831 1140T674 1163Q614 1163 586 1149T557 1100Q557 1066 606 1051T790 1030Q966 1022 1073 986T1236 870T1292 670Q1292 551 1234 478T1051 369Q1141 328 1190 287T1261 193T1282 33Q1282 -88 1225 -175T1063 -310T825 -358ZM745 418Q809 418 843 455T877 557Q877 624 821 667T672 711Q610 711 579 679T547 571Q547 500 599 459T745 418Z"/><glyph unicode="¨" horiz-adv-x="1208" d="M164 1610H553V1280H164V1610ZM655 1610H1044V1280H655V1610Z"/><glyph unicode="©" horiz-adv-x="1624" d="M813 -25Q607 -25 431 80T153 367T51 760Q51 974 155 1157T435 1442T813 1544Q1015 1544 1189 1442T1468 1157T1573 760Q1573 550 1472 369T1196 81T813 -25ZM813 119Q985 119 1122 199T1340 428T1421 760Q1421 942 1340 1091T1123 1321T813 1401Q639 1401 501 1320T283 1090T203 760Q203 579 283 430T501 200T813 119ZM788 281Q578 281 448 407T317 739Q317 882 376 990T537 1157T754 1217Q944 1217 1012 1106V1202H1229V850H993Q949 967 801 967Q710 967 651 906T592 743Q592 640 651 579T803 518Q887 518 936 555T1014 668L1233 588Q1180 442 1067 362T788 281Z"/><glyph unicode="ª" horiz-adv-x="1278" d="M745 674Q709 593 625 548T416 502Q286 502 207 586T127 803Q127 944 233 1023T520 1102Q620 1102 735 1071V1094Q735 1136 712 1156T629 1176Q556 1176 467 1162T322 1126L225 1405Q297 1441 414 1464T668 1487Q883 1487 979 1403T1075 1135V786H1161V526L795 500L745 674ZM180 434H1075V133H180V434ZM569 778Q653 778 694 808T735 893V913Q691 924 637 924Q455 924 455 850Q455 778 569 778Z"/><glyph unicode="«" horiz-adv-x="1702" d="M162 588L471 1180H850L573 588L850 0H471L162 588ZM791 588L1100 1180H1479L1202 588L1479 0H1100L791 588Z"/><glyph unicode="¬" horiz-adv-x="1518" d="M899 528H158V915H1331V156H899V528Z"/><glyph unicode="­" horiz-adv-x="831" d="M59 895H770V508H59V895Z"/><glyph unicode="®" d="M698 354Q545 354 412 431T199 648T119 950Q119 1111 195 1249T406 1467T698 1548Q853 1548 986 1468T1197 1250T1274 950Q1274 786 1194 647T983 431T698 354ZM698 463Q831 463 936 526T1100 702T1159 950Q1159 1085 1100 1198T936 1374T698 1438Q565 1438 459 1374T293 1198T233 950Q233 815 292 703T458 527T698 463ZM385 791H436V1120H385V1278H719Q1001 1278 1001 1055Q1001 923 899 877L973 791H1018V639H725V784H766L723 846H618V784H666V639H385V791ZM723 977Q771 977 791 993T811 1051Q811 1091 786 1107T700 1124H618V977H723Z"/><glyph unicode="¯" horiz-adv-x="1208" d="M164 1624H1044V1280H164V1624Z"/><glyph unicode="°" horiz-adv-x="1165" d="M582 477Q429 477 310 542T124 726T57 983Q57 1123 123 1240T309 1423T582 1489Q734 1489 854 1423T1041 1240T1108 983Q1108 843 1041 726T854 543T582 477ZM582 786Q663 786 714 838T766 971Q766 1052 715 1103T582 1155Q499 1155 449 1103T399 971Q399 891 450 839T582 786Z"/><glyph unicode="±" horiz-adv-x="1518" d="M543 772H172V1159H543V1466H975V1159H1346V772H975V461H543V772ZM172 387H1346V0H172V387Z"/><glyph unicode="²" horiz-adv-x="1126" d="M109 854L496 1071Q595 1129 623 1157T651 1223Q651 1269 623 1291T532 1313Q419 1313 352 1225L86 1384Q164 1500 284 1551T578 1602Q768 1602 874 1515T981 1268Q981 1163 915 1077T709 920L438 776H758V895H1010V559H109V854Z"/><glyph unicode="³" horiz-adv-x="1077" d="M541 541Q346 541 224 599T33 793L305 911Q355 811 504 811Q587 811 621 833T655 897Q655 948 594 964T348 981V1188Q451 1188 512 1195T599 1216T625 1260Q625 1327 504 1327Q435 1327 387 1309T319 1260L74 1405Q152 1510 264 1556T530 1602Q656 1602 749 1569T894 1476T946 1341Q946 1259 898 1202T760 1122Q981 1075 981 860Q981 712 861 627T541 541Z"/><glyph unicode="´" horiz-adv-x="1208" d="M236 1534L881 1798L993 1468L332 1260L236 1534Z"/><glyph unicode="µ" horiz-adv-x="1485" d="M137 829H29V1169L571 1200V512Q571 430 608 391T723 352Q822 352 866 391T911 514V829H762V1169L1348 1200V338H1473V10L1014 -20L950 197Q910 111 818 66T596 20H573V-338H139L137 829Z"/><glyph unicode="¶" horiz-adv-x="1595" d="M293 338H434V457Q258 505 177 624T96 934Q96 1201 255 1333T754 1466H1507V1114H1354V338H1507V0H946V432H842V0H293V338ZM946 748V1098H791Q658 1098 593 1058T528 920Q528 826 590 787T770 748H946Z"/><glyph unicode="·" horiz-adv-x="676" d="M94 1038H582V555H94V1038Z"/><glyph unicode="¸" horiz-adv-x="1208" d="M604 -518Q523 -518 444 -498T303 -442L399 -260Q506 -303 586 -303Q641 -303 667 -283T694 -233Q694 -170 581 -170L520 -174L451 -133L483 14H715L696 -86Q745 -69 795 -69Q876 -70 924 -122T973 -264Q973 -385 873 -451T604 -518Z"/><glyph unicode="¹" horiz-adv-x="829" d="M121 813H283V1284Q212 1260 121 1260V1548Q258 1548 324 1557T428 1585H606V813H737V559H121V813Z"/><glyph unicode="º" horiz-adv-x="1278" d="M639 496Q397 496 256 629T115 993Q115 1223 256 1356T639 1489Q881 1489 1022 1356T1163 993Q1163 762 1022 629T639 496ZM639 799Q714 799 757 848T801 981Q801 1066 758 1114T639 1163Q564 1163 521 1114T477 981Q477 900 520 850T639 799ZM180 434H1098V133H180V434Z"/><glyph unicode="»" horiz-adv-x="1702" d="M602 0H223L500 588L223 1180H602L911 588L602 0ZM1231 0H852L1128 588L852 1180H1231L1540 588L1231 0Z"/><glyph unicode="¼" horiz-adv-x="2415" d="M121 700H283V1171Q212 1147 121 1147V1436Q258 1436 324 1445T428 1473H606V700H737V446H121V700ZM1413 1466H1790L940 0H563L1413 1466ZM1788 238H1923V295H1384V504L1843 1026H2202L1751 520H1929L1993 698H2226V520H2367V295H2226V238H2324V0H1788V238Z"/><glyph unicode="½" horiz-adv-x="2546" d="M121 700H283V1171Q212 1147 121 1147V1436Q258 1436 324 1445T428 1473H606V700H737V446H121V700ZM1413 1466H1790L940 0H563L1413 1466ZM1569 295L1956 512Q2055 570 2083 598T2111 664Q2111 710 2083 732T1993 754Q1879 754 1812 666L1546 825Q1621 937 1741 989T2038 1042Q2231 1042 2336 955T2441 709Q2441 605 2375 519T2169 360L1898 217H2218V336H2470V0H1569V295Z"/><glyph unicode="¾" horiz-adv-x="2521" d="M1520 1466H1896L1047 0H670L1520 1466ZM1894 238H2030V295H1491V504L1950 1026H2308L1858 520H2036L2099 698H2333V520H2474V295H2333V238H2431V0H1894V238ZM510 430Q315 430 193 488T2 682L274 801Q323 700 473 700Q625 700 625 786Q625 837 564 853T317 870V1077Q420 1077 481 1084T568 1105T594 1149Q594 1217 473 1217Q404 1217 357 1199T289 1149L43 1294Q121 1399 233 1445T500 1491Q625 1491 719 1458T864 1365T915 1231Q915 1146 864 1088T729 1012Q950 965 950 750Q950 650 895 579T741 469T510 430Z"/><glyph unicode="¿" horiz-adv-x="1491" d="M717 -25Q421 -25 261 89T100 410Q100 546 167 643T381 805Q500 856 527 879T565 929T576 1002L573 1053H997L1001 975Q1001 910 986 849T931 741T834 663T707 602Q602 558 581 543T549 511T539 465Q539 417 588 395T737 373Q840 373 917 406T1042 500L1393 293Q1179 -25 717 -25ZM543 1518H1030V1116H543V1518Z"/><glyph unicode="À" horiz-adv-x="1757" d="M37 360H145L592 1528H1161L1612 360H1720V0H985V338H1165L1120 463H590L545 338H709V0H37V360ZM1010 762L854 1186L700 762H1010ZM489 1788L602 2117L1247 1853L1151 1579L489 1788Z"/><glyph unicode="Á" horiz-adv-x="1757" d="M37 360H145L592 1528H1161L1612 360H1720V0H985V338H1165L1120 463H590L545 338H709V0H37V360ZM1010 762L854 1186L700 762H1010ZM510 1849L1155 2113L1267 1783L606 1575L510 1849Z"/><glyph unicode="Â" horiz-adv-x="1757" d="M37 360H145L592 1528H1161L1612 360H1720V0H985V338H1165L1120 463H590L545 338H709V0H37V360ZM1010 762L854 1186L700 762H1010ZM393 1816L802 2068H954L1368 1816L1253 1579L878 1730L505 1579L393 1816Z"/><glyph unicode="Ã" horiz-adv-x="1757" d="M37 360H145L592 1528H1161L1612 360H1720V0H985V338H1165L1120 463H590L545 338H709V0H37V360ZM1010 762L854 1186L700 762H1010ZM354 1773Q444 1895 545 1959T743 2023Q792 2023 826 2010T889 1981T941 1952T995 1939Q1042 1939 1079 1966T1159 2052L1392 1857Q1306 1738 1203 1673T1003 1607Q954 1607 920 1620T859 1649T807 1678T751 1691Q704 1691 666 1663T587 1579L354 1773Z"/><glyph unicode="Ä" horiz-adv-x="1757" d="M37 360H145L592 1528H1161L1612 360H1720V0H985V338H1165L1120 463H590L545 338H709V0H37V360ZM1010 762L854 1186L700 762H1010ZM438 1925H827V1595H438V1925ZM929 1925H1318V1595H929V1925Z"/><glyph unicode="Å" horiz-adv-x="1757" d="M37 360H145L586 1511Q555 1574 555 1653Q555 1792 648 1888T879 1985Q964 1985 1038 1941T1156 1820T1200 1653Q1200 1575 1167 1509L1612 360H1720V0H985V338H1165L1120 463H590L545 338H709V0H37V360ZM879 1528Q930 1528 962 1564T995 1653Q995 1708 962 1745T879 1782Q829 1782 795 1745T760 1653Q760 1600 794 1564T879 1528ZM1010 762L854 1186L700 762H1010Z"/><glyph unicode="Æ" horiz-adv-x="2423" d="M37 360H150L633 1141H471V1518H2329V930H1937V1147H1520V936H1864V590H1520V352H1966V606H2357V0H881V338H1085V463H647L571 338H709V0H37V360ZM1085 762V1186L827 762H1085Z"/><glyph unicode="Ç" horiz-adv-x="1659" d="M844 -18Q617 -18 437 78T157 349T57 745Q57 970 146 1147T409 1432T784 1540Q1104 1540 1214 1356V1518H1577V930H1186Q1109 1126 864 1126Q710 1126 613 1025T516 754Q516 585 612 481T866 377Q1001 377 1085 436T1219 627L1583 494Q1495 245 1304 114T844 -18ZM829 -518Q748 -518 669 -498T528 -442L624 -260Q731 -303 811 -303Q866 -303 892 -283T919 -233Q919 -170 806 -170L745 -174L676 -133L708 14H940L921 -86Q970 -69 1020 -69Q1101 -70 1149 -122T1198 -264Q1198 -385 1098 -451T829 -518Z"/><glyph unicode="È" horiz-adv-x="1522" d="M37 360H170V1143H37V1518H1427V930H1036V1157H618V936H963V590H618V342H1065V606H1456V0H37V360ZM371 1788L484 2117L1129 1853L1033 1579L371 1788Z"/><glyph unicode="É" horiz-adv-x="1522" d="M37 360H170V1143H37V1518H1427V930H1036V1157H618V936H963V590H618V342H1065V606H1456V0H37V360ZM392 1849L1037 2113L1149 1783L488 1575L392 1849Z"/><glyph unicode="Ê" horiz-adv-x="1522" d="M37 360H170V1143H37V1518H1427V930H1036V1157H618V936H963V590H618V342H1065V606H1456V0H37V360ZM275 1816L684 2068H836L1250 1816L1135 1579L760 1730L387 1579L275 1816Z"/><glyph unicode="Ë" horiz-adv-x="1522" d="M37 360H170V1143H37V1518H1427V930H1036V1157H618V936H963V590H618V342H1065V606H1456V0H37V360ZM320 1925H709V1595H320V1925ZM811 1925H1200V1595H811V1925Z"/><glyph unicode="Ì" horiz-adv-x="827" d="M37 360H190V1143H37V1518H791V1143H637V360H791V0H37V360ZM26 1788L139 2117L784 1853L688 1579L26 1788Z"/><glyph unicode="Í" horiz-adv-x="827" d="M37 360H190V1143H37V1518H791V1143H637V360H791V0H37V360ZM47 1849L692 2113L804 1783L143 1575L47 1849Z"/><glyph unicode="Î" horiz-adv-x="827" d="M37 360H190V1143H37V1518H791V1143H637V360H791V0H37V360ZM-70 1816L339 2068H491L905 1816L790 1579L415 1730L42 1579L-70 1816Z"/><glyph unicode="Ï" horiz-adv-x="827" d="M37 360H190V1143H37V1518H791V1143H637V360H791V0H37V360ZM-25 1925H364V1595H-25V1925ZM466 1925H855V1595H466V1925Z"/><glyph unicode="Ð" horiz-adv-x="1671" d="M37 360H170V575H37V932H170V1143H37V1518H748Q1181 1518 1398 1328T1616 760Q1616 521 1518 351T1217 91T719 0H37V360ZM750 375Q955 375 1056 468T1157 760Q1157 953 1058 1040T729 1128H614V932H860V575H614V375H750Z"/><glyph unicode="Ñ" horiz-adv-x="1798" d="M37 360H170V1143H37V1518H686L1231 694V1143H1128V1518H1761V1143H1645V0H1210L582 907V360H711V0H37V360ZM375 1773Q465 1895 566 1959T764 2023Q813 2023 847 2010T910 1981T962 1952T1016 1939Q1063 1939 1100 1966T1180 2052L1413 1857Q1327 1738 1224 1673T1024 1607Q975 1607 941 1620T880 1649T828 1678T772 1691Q725 1691 687 1663T608 1579L375 1773Z"/><glyph unicode="Ò" horiz-adv-x="1755" d="M879 -25Q642 -25 447 75T153 351T55 760Q55 993 153 1167T446 1441T879 1542Q1114 1542 1310 1442T1604 1168T1702 760Q1702 581 1645 437T1478 191T1212 33T879 -25ZM879 375Q1042 375 1141 480T1241 752Q1241 918 1141 1022T879 1126Q716 1126 615 1023T514 752Q514 584 615 480T879 375ZM487 1788L600 2117L1245 1853L1149 1579L487 1788Z"/><glyph unicode="Ó" horiz-adv-x="1755" d="M879 -25Q642 -25 447 75T153 351T55 760Q55 993 153 1167T446 1441T879 1542Q1114 1542 1310 1442T1604 1168T1702 760Q1702 581 1645 437T1478 191T1212 33T879 -25ZM879 375Q1042 375 1141 480T1241 752Q1241 918 1141 1022T879 1126Q716 1126 615 1023T514 752Q514 584 615 480T879 375ZM508 1849L1153 2113L1265 1783L604 1575L508 1849Z"/><glyph unicode="Ô" horiz-adv-x="1755" d="M879 -25Q642 -25 447 75T153 351T55 760Q55 993 153 1167T446 1441T879 1542Q1114 1542 1310 1442T1604 1168T1702 760Q1702 581 1645 437T1478 191T1212 33T879 -25ZM879 375Q1042 375 1141 480T1241 752Q1241 918 1141 1022T879 1126Q716 1126 615 1023T514 752Q514 584 615 480T879 375ZM391 1816L800 2068H952L1366 1816L1251 1579L876 1730L503 1579L391 1816Z"/><glyph unicode="Õ" horiz-adv-x="1755" d="M879 -25Q642 -25 447 75T153 351T55 760Q55 993 153 1167T446 1441T879 1542Q1114 1542 1310 1442T1604 1168T1702 760Q1702 581 1645 437T1478 191T1212 33T879 -25ZM879 375Q1042 375 1141 480T1241 752Q1241 918 1141 1022T879 1126Q716 1126 615 1023T514 752Q514 584 615 480T879 375ZM352 1773Q442 1895 543 1959T741 2023Q790 2023 824 2010T887 1981T939 1952T993 1939Q1040 1939 1077 1966T1157 2052L1390 1857Q1304 1738 1201 1673T1001 1607Q952 1607 918 1620T857 1649T805 1678T749 1691Q702 1691 664 1663T585 1579L352 1773Z"/><glyph unicode="Ö" horiz-adv-x="1755" d="M879 -25Q642 -25 447 75T153 351T55 760Q55 993 153 1167T446 1441T879 1542Q1114 1542 1310 1442T1604 1168T1702 760Q1702 581 1645 437T1478 191T1212 33T879 -25ZM879 375Q1042 375 1141 480T1241 752Q1241 918 1141 1022T879 1126Q716 1126 615 1023T514 752Q514 584 615 480T879 375ZM436 1925H825V1595H436V1925ZM927 1925H1316V1595H927V1925Z"/><glyph unicode="×" horiz-adv-x="1518" d="M201 428L494 721L203 1010L469 1284L760 993L1051 1284L1315 1010L1024 721L1315 432L1051 158L760 449L465 156L201 428Z"/><glyph unicode="Ø" horiz-adv-x="1755" d="M879 -25Q737 -25 604 13L496 -166H145L333 147Q55 360 55 760Q55 993 153 1167T446 1441T879 1542Q1020 1542 1151 1504L1260 1683H1610L1423 1372Q1563 1267 1632 1112T1702 760Q1702 581 1645 437T1478 191T1212 33T879 -25ZM879 356Q1048 356 1154 465T1260 752Q1260 898 1181 1004L796 363Q831 356 879 356ZM496 752Q496 611 568 506L950 1139Q917 1145 879 1145Q708 1145 602 1036T496 752Z"/><glyph unicode="Ù" horiz-adv-x="1792" d="M897 -25Q671 -25 505 48T244 267T150 606V1143H37V1518H825V1153H598V680Q598 511 672 439T903 367Q1065 367 1136 438T1208 680V1153H975V1518H1755V1143H1640V606Q1640 415 1547 268T1287 48T897 -25ZM506 1788L619 2117L1264 1853L1168 1579L506 1788Z"/><glyph unicode="Ú" horiz-adv-x="1792" d="M897 -25Q671 -25 505 48T244 267T150 606V1143H37V1518H825V1153H598V680Q598 511 672 439T903 367Q1065 367 1136 438T1208 680V1153H975V1518H1755V1143H1640V606Q1640 415 1547 268T1287 48T897 -25ZM527 1849L1172 2113L1284 1783L623 1575L527 1849Z"/><glyph unicode="Û" horiz-adv-x="1792" d="M897 -25Q671 -25 505 48T244 267T150 606V1143H37V1518H825V1153H598V680Q598 511 672 439T903 367Q1065 367 1136 438T1208 680V1153H975V1518H1755V1143H1640V606Q1640 415 1547 268T1287 48T897 -25ZM418 1816L827 2068H979L1393 1816L1278 1579L903 1730L530 1579L418 1816Z"/><glyph unicode="Ü" horiz-adv-x="1792" d="M897 -25Q671 -25 505 48T244 267T150 606V1143H37V1518H825V1153H598V680Q598 511 672 439T903 367Q1065 367 1136 438T1208 680V1153H975V1518H1755V1143H1640V606Q1640 415 1547 268T1287 48T897 -25ZM461 1925H850V1595H461V1925ZM952 1925H1341V1595H952V1925Z"/><glyph unicode="Ý" horiz-adv-x="1663" d="M479 342H616V537L115 1143H37V1518H786V1163H580L860 844L1120 1163H936V1518H1626V1143H1548L1065 535V342H1202V0H479V342ZM463 1849L1108 2113L1220 1783L559 1575L463 1849Z"/><glyph unicode="Þ" horiz-adv-x="1581" d="M37 360H170V1143H37V1518H616V1393H868Q1121 1393 1261 1340T1469 1175T1536 897Q1536 766 1497 673T1381 523T1180 438T840 410H616V340H801V0H37V360ZM852 729Q989 729 1037 763T1085 883Q1085 973 1035 1006T831 1040H616V729H852Z"/><glyph unicode="ß" horiz-adv-x="1561" d="M1010 -25Q867 -25 743 4L823 385Q891 369 950 369Q1021 369 1058 410T1096 526Q1096 613 1038 647T825 682V1016Q938 1016 994 1050T1051 1157Q1051 1219 1009 1250T866 1282Q676 1282 676 1165L675 980V579L676 0H37V338H242V829H37V1180H242V1217Q242 1430 392 1535T846 1640Q1167 1640 1322 1544T1477 1247Q1477 1120 1406 1027T1204 889Q1361 855 1444 747T1528 477Q1528 218 1404 97T1010 -25Z"/><glyph unicode="à" horiz-adv-x="1339" d="M809 197Q763 95 657 39T397 -18Q291 -18 209 30T82 165T37 356Q37 532 166 630T526 729Q663 729 795 692V719Q795 771 767 797T664 823Q562 823 453 805T283 762L141 1108Q235 1153 389 1181T711 1210Q974 1210 1096 1097T1219 752V338H1327V12L870 -20L809 197ZM588 328Q795 328 795 469V496Q743 508 674 508Q446 508 446 416Q446 328 588 328ZM281 1473L394 1802L1039 1538L943 1264L281 1473Z"/><glyph unicode="á" horiz-adv-x="1339" d="M809 197Q763 95 657 39T397 -18Q291 -18 209 30T82 165T37 356Q37 532 166 630T526 729Q663 729 795 692V719Q795 771 767 797T664 823Q562 823 453 805T283 762L141 1108Q235 1153 389 1181T711 1210Q974 1210 1096 1097T1219 752V338H1327V12L870 -20L809 197ZM588 328Q795 328 795 469V496Q743 508 674 508Q446 508 446 416Q446 328 588 328ZM302 1534L947 1798L1059 1468L398 1260L302 1534Z"/><glyph unicode="â" horiz-adv-x="1339" d="M809 197Q763 95 657 39T397 -18Q291 -18 209 30T82 165T37 356Q37 532 166 630T526 729Q663 729 795 692V719Q795 771 767 797T664 823Q562 823 453 805T283 762L141 1108Q235 1153 389 1181T711 1210Q974 1210 1096 1097T1219 752V338H1327V12L870 -20L809 197ZM588 328Q795 328 795 469V496Q743 508 674 508Q446 508 446 416Q446 328 588 328ZM185 1501L594 1753H746L1160 1501L1045 1264L670 1415L297 1264L185 1501Z"/><glyph unicode="ã" horiz-adv-x="1339" d="M809 197Q763 95 657 39T397 -18Q291 -18 209 30T82 165T37 356Q37 532 166 630T526 729Q663 729 795 692V719Q795 771 767 797T664 823Q562 823 453 805T283 762L141 1108Q235 1153 389 1181T711 1210Q974 1210 1096 1097T1219 752V338H1327V12L870 -20L809 197ZM588 328Q795 328 795 469V496Q743 508 674 508Q446 508 446 416Q446 328 588 328ZM146 1458Q236 1580 337 1644T535 1708Q584 1708 618 1695T681 1666T733 1637T787 1624Q834 1624 871 1651T951 1737L1184 1542Q1098 1423 995 1358T795 1292Q746 1292 712 1305T651 1334T599 1363T543 1376Q496 1376 458 1348T379 1264L146 1458Z"/><glyph unicode="ä" horiz-adv-x="1339" d="M809 197Q763 95 657 39T397 -18Q291 -18 209 30T82 165T37 356Q37 532 166 630T526 729Q663 729 795 692V719Q795 771 767 797T664 823Q562 823 453 805T283 762L141 1108Q235 1153 389 1181T711 1210Q974 1210 1096 1097T1219 752V338H1327V12L870 -20L809 197ZM588 328Q795 328 795 469V496Q743 508 674 508Q446 508 446 416Q446 328 588 328ZM230 1610H619V1280H230V1610ZM721 1610H1110V1280H721V1610Z"/><glyph unicode="å" horiz-adv-x="1339" d="M809 197Q763 95 657 39T397 -18Q291 -18 209 30T82 165T37 356Q37 532 166 630T526 729Q663 729 795 692V719Q795 771 767 797T664 823Q562 823 453 805T283 762L141 1108Q235 1153 389 1181T711 1210Q974 1210 1096 1097T1219 752V338H1327V12L870 -20L809 197ZM588 328Q795 328 795 469V496Q743 508 674 508Q446 508 446 416Q446 328 588 328ZM670 1257Q535 1257 441 1351T347 1585Q347 1724 440 1820T670 1917Q755 1917 829 1873T948 1752T992 1585Q992 1497 949 1421T830 1301T670 1257ZM670 1460Q718 1460 752 1495T787 1585Q787 1641 753 1677T670 1714Q620 1714 586 1677T551 1585Q551 1532 586 1496T670 1460Z"/><glyph unicode="æ" horiz-adv-x="1999" d="M397 -18Q291 -18 209 30T82 165T37 356Q37 532 166 630T526 729Q663 729 795 692V719Q795 771 767 797T664 823Q561 823 452 805T281 762L141 1108Q235 1153 389 1181T711 1210Q928 1210 1031 1105Q1174 1206 1389 1206Q1570 1206 1692 1139T1875 926T1937 535V455H1183Q1200 381 1244 350T1382 319Q1598 319 1726 403L1925 133Q1805 52 1662 14T1335 -25Q1012 -25 886 193Q825 91 702 37T397 -18ZM588 328Q795 328 795 469V496Q743 508 674 508Q446 508 446 416Q446 328 588 328ZM1395 852Q1299 852 1247 811T1179 686H1546V690Q1546 764 1505 808T1395 852Z"/><glyph unicode="ç" horiz-adv-x="1311" d="M668 -18Q376 -18 215 143T53 592Q53 754 127 894T331 1116T618 1198Q732 1198 815 1156T932 1042V1180H1239V686H911Q876 756 828 783T709 811Q611 811 552 749T492 580Q492 464 549 404T700 344Q784 344 839 383T932 506L1264 358Q1186 174 1031 78T668 -18ZM655 -518Q574 -518 495 -498T354 -442L450 -260Q557 -303 637 -303Q692 -303 718 -283T745 -233Q745 -170 632 -170L571 -174L502 -133L534 14H766L747 -86Q796 -69 846 -69Q927 -70 975 -122T1024 -264Q1024 -385 924 -451T655 -518Z"/><glyph unicode="è" horiz-adv-x="1300" d="M637 -25Q456 -25 325 46T123 258T53 592Q53 867 220 1036T690 1206Q872 1206 993 1139T1177 926T1239 535V455H485Q503 379 547 349T684 319Q900 319 1028 403L1227 133Q1107 52 964 14T637 -25ZM696 852Q601 852 549 812T481 686H848V690Q848 764 807 808T696 852ZM266 1473L379 1802L1024 1538L928 1264L266 1473Z"/><glyph unicode="é" horiz-adv-x="1300" d="M637 -25Q456 -25 325 46T123 258T53 592Q53 867 220 1036T690 1206Q872 1206 993 1139T1177 926T1239 535V455H485Q503 379 547 349T684 319Q900 319 1028 403L1227 133Q1107 52 964 14T637 -25ZM696 852Q601 852 549 812T481 686H848V690Q848 764 807 808T696 852ZM287 1534L932 1798L1044 1468L383 1260L287 1534Z"/><glyph unicode="ê" horiz-adv-x="1300" d="M637 -25Q456 -25 325 46T123 258T53 592Q53 867 220 1036T690 1206Q872 1206 993 1139T1177 926T1239 535V455H485Q503 379 547 349T684 319Q900 319 1028 403L1227 133Q1107 52 964 14T637 -25ZM696 852Q601 852 549 812T481 686H848V690Q848 764 807 808T696 852ZM170 1501L579 1753H731L1145 1501L1030 1264L655 1415L282 1264L170 1501Z"/><glyph unicode="ë" horiz-adv-x="1300" d="M637 -25Q456 -25 325 46T123 258T53 592Q53 867 220 1036T690 1206Q872 1206 993 1139T1177 926T1239 535V455H485Q503 379 547 349T684 319Q900 319 1028 403L1227 133Q1107 52 964 14T637 -25ZM696 852Q601 852 549 812T481 686H848V690Q848 764 807 808T696 852ZM215 1610H604V1280H215V1610ZM706 1610H1095V1280H706V1610Z"/><glyph unicode="ì" horiz-adv-x="778" d="M37 338H176V829H37V1169L610 1200V338H766V0H37V338ZM-40 1473L73 1802L718 1538L622 1264L-40 1473Z"/><glyph unicode="í" horiz-adv-x="778" d="M37 338H176V829H37V1169L610 1200V338H766V0H37V338ZM22 1534L667 1798L779 1468L118 1260L22 1534Z"/><glyph unicode="î" horiz-adv-x="778" d="M37 338H176V829H37V1169L610 1200V338H766V0H37V338ZM-95 1501L314 1753H466L880 1501L765 1264L390 1415L17 1264L-95 1501Z"/><glyph unicode="ï" horiz-adv-x="778" d="M37 338H176V829H37V1169L610 1200V338H766V0H37V338ZM-50 1610H339V1280H-50V1610ZM441 1610H830V1280H441V1610Z"/><glyph unicode="ð" horiz-adv-x="1405" d="M610 1323L697 1338Q653 1409 616 1440L954 1651Q1068 1550 1152 1416L1350 1450V1206L1264 1191Q1352 959 1352 705Q1352 476 1272 312T1043 63T700 -23Q499 -23 354 43T131 236T53 530Q53 680 114 796T290 975T559 1038Q770 1038 874 887Q860 984 809 1113L610 1079V1323ZM700 358Q807 358 859 407T911 545Q911 633 859 682T700 731Q595 731 544 682T492 545Q492 457 543 408T700 358Z"/><glyph unicode="ñ" horiz-adv-x="1483" d="M37 338H145V829H37V1169L477 1200L543 950Q591 1077 699 1141T961 1206Q1362 1206 1362 733V338H1470V0H793V338H926V641Q926 799 774 799Q668 799 624 757T580 637V338H715V0H37V338ZM217 1458Q307 1580 408 1644T606 1708Q655 1708 689 1695T752 1666T804 1637T858 1624Q905 1624 942 1651T1022 1737L1255 1542Q1169 1423 1066 1358T866 1292Q817 1292 783 1305T722 1334T670 1363T614 1376Q567 1376 529 1348T450 1264L217 1458Z"/><glyph unicode="ò" horiz-adv-x="1401" d="M700 -23Q403 -23 228 141T53 592Q53 879 227 1042T700 1206Q896 1206 1043 1132T1269 919T1348 592Q1348 404 1269 265T1042 51T700 -23ZM700 346Q911 346 911 580Q911 811 700 811Q492 811 492 580Q492 346 700 346ZM311 1473L424 1802L1069 1538L973 1264L311 1473Z"/><glyph unicode="ó" horiz-adv-x="1401" d="M700 -23Q403 -23 228 141T53 592Q53 879 227 1042T700 1206Q896 1206 1043 1132T1269 919T1348 592Q1348 404 1269 265T1042 51T700 -23ZM700 346Q911 346 911 580Q911 811 700 811Q492 811 492 580Q492 346 700 346ZM332 1534L977 1798L1089 1468L428 1260L332 1534Z"/><glyph unicode="ô" horiz-adv-x="1401" d="M700 -23Q403 -23 228 141T53 592Q53 879 227 1042T700 1206Q896 1206 1043 1132T1269 919T1348 592Q1348 404 1269 265T1042 51T700 -23ZM700 346Q911 346 911 580Q911 811 700 811Q492 811 492 580Q492 346 700 346ZM215 1501L624 1753H776L1190 1501L1075 1264L700 1415L327 1264L215 1501Z"/><glyph unicode="õ" horiz-adv-x="1401" d="M700 -23Q403 -23 228 141T53 592Q53 879 227 1042T700 1206Q896 1206 1043 1132T1269 919T1348 592Q1348 404 1269 265T1042 51T700 -23ZM700 346Q911 346 911 580Q911 811 700 811Q492 811 492 580Q492 346 700 346ZM176 1458Q266 1580 367 1644T565 1708Q614 1708 648 1695T711 1666T763 1637T817 1624Q864 1624 901 1651T981 1737L1214 1542Q1128 1423 1025 1358T825 1292Q776 1292 742 1305T681 1334T629 1363T573 1376Q526 1376 488 1348T409 1264L176 1458Z"/><glyph unicode="ö" horiz-adv-x="1401" d="M700 -23Q403 -23 228 141T53 592Q53 879 227 1042T700 1206Q896 1206 1043 1132T1269 919T1348 592Q1348 404 1269 265T1042 51T700 -23ZM700 346Q911 346 911 580Q911 811 700 811Q492 811 492 580Q492 346 700 346ZM260 1610H649V1280H260V1610ZM751 1610H1140V1280H751V1610Z"/><glyph unicode="÷" horiz-adv-x="1518" d="M549 455H967V119H549V455ZM172 915H1346V528H172V915ZM549 1325H967V989H549V1325Z"/><glyph unicode="ø" horiz-adv-x="1401" d="M700 -23Q573 -23 460 10L352 -152H59L245 126Q53 293 53 592Q53 879 227 1042T700 1206Q831 1206 941 1172L1049 1335H1339L1155 1058Q1348 894 1348 592Q1348 404 1269 265T1042 51T700 -23ZM700 322Q932 322 932 580Q932 661 908 717L649 325L700 322ZM471 580Q471 516 488 461L736 834L700 836Q471 836 471 580Z"/><glyph unicode="ù" horiz-adv-x="1493" d="M543 -16Q338 -16 242 96T145 457V829H37V1169L580 1200V512Q580 427 617 390T731 352Q830 352 875 391T920 514V829H770V1169L1356 1200V338H1481V10L1022 -20L958 197Q913 100 800 42T543 -16ZM356 1473L469 1802L1114 1538L1018 1264L356 1473Z"/><glyph unicode="ú" horiz-adv-x="1493" d="M543 -16Q338 -16 242 96T145 457V829H37V1169L580 1200V512Q580 427 617 390T731 352Q830 352 875 391T920 514V829H770V1169L1356 1200V338H1481V10L1022 -20L958 197Q913 100 800 42T543 -16ZM377 1534L1022 1798L1134 1468L473 1260L377 1534Z"/><glyph unicode="û" horiz-adv-x="1493" d="M543 -16Q338 -16 242 96T145 457V829H37V1169L580 1200V512Q580 427 617 390T731 352Q830 352 875 391T920 514V829H770V1169L1356 1200V338H1481V10L1022 -20L958 197Q913 100 800 42T543 -16ZM219 1501L628 1753H780L1194 1501L1079 1264L704 1415L331 1264L219 1501Z"/><glyph unicode="ü" horiz-adv-x="1493" d="M543 -16Q338 -16 242 96T145 457V829H37V1169L580 1200V512Q580 427 617 390T731 352Q830 352 875 391T920 514V829H770V1169L1356 1200V338H1481V10L1022 -20L958 197Q913 100 800 42T543 -16ZM273 1610H662V1280H273V1610ZM764 1610H1153V1280H764V1610Z"/><glyph unicode="ý" horiz-adv-x="1376" d="M410 -360Q312 -360 217 -350T72 -324L147 10Q271 -16 369 -16L459 -11L106 829H12V1180H692V842H555L720 352L907 842H770V1180H1364V829H1278L877 -80Q810 -233 709 -296T410 -360ZM320 1534L965 1798L1077 1468L416 1260L320 1534Z"/><glyph unicode="þ" horiz-adv-x="1473" d="M27 -16H135V1219H27V1569L569 1599V993Q616 1098 715 1152T954 1206Q1097 1206 1202 1128T1363 911T1419 592Q1419 410 1357 269T1185 55T930 -18Q792 -18 710 26T569 182V-16H664V-338H27V-16ZM793 344Q885 344 932 404T979 573Q979 688 932 750T793 813Q687 813 628 749T569 573Q569 462 625 403T793 344Z"/><glyph unicode="ÿ" horiz-adv-x="1376" d="M410 -360Q312 -360 217 -350T72 -324L147 10Q271 -16 369 -16L459 -11L106 829H12V1180H692V842H555L720 352L907 842H770V1180H1364V829H1278L877 -80Q810 -233 709 -296T410 -360ZM289 1610H678V1280H289V1610ZM780 1610H1169V1280H780V1610Z"/><glyph unicode="ı" horiz-adv-x="778" d="M37 338H176V829H37V1169L610 1200V338H766V0H37V338Z"/><glyph unicode="Ŀ" horiz-adv-x="1481" d="M37 360H170V1143H37V1518H786V1143H618V342H1034V606H1436V0H37V360ZM913 1128H1353V794H913V1128Z"/><glyph unicode="ŀ" horiz-adv-x="901" d="M37 338H166V1219H27V1569L600 1599V338H756V0H37V338ZM750 1025H1190V691H750V1025Z"/><glyph unicode="Œ" horiz-adv-x="2398" d="M924 0Q55 0 55 758Q55 1000 153 1168T454 1427T952 1518H2304V930H1913V1147H1495V936H1839V590H1495V352H1942V606H2333V0H924ZM1057 375V1128H922Q716 1128 615 1035T514 743Q514 550 613 463T942 375H1057Z"/><glyph unicode="œ" horiz-adv-x="2144" d="M1481 -25Q1238 -25 1103 110Q943 -23 700 -23Q403 -23 228 141T53 592Q53 879 227 1042T700 1206Q956 1206 1118 1061Q1274 1206 1534 1206Q1716 1206 1837 1139T2021 926T2083 535V455H1329Q1347 379 1391 349T1528 319Q1744 319 1872 403L2071 133Q1951 52 1808 14T1481 -25ZM700 346Q911 346 911 580Q911 811 700 811Q492 811 492 580Q492 346 700 346ZM1540 852Q1445 852 1393 812T1325 686H1692V690Q1692 764 1651 808T1540 852Z"/><glyph unicode="Š" horiz-adv-x="1569" d="M883 -25Q506 -25 391 160V0H53V559H408Q429 459 528 404T799 348Q936 348 1003 371T1071 457Q1071 490 1045 510T969 542T784 565Q573 586 491 604T338 654T215 738T131 865T100 1047Q100 1193 170 1303T379 1478T686 1542Q867 1542 968 1501T1120 1378V1518H1458V995H1104Q1037 1153 772 1153Q658 1153 607 1132T555 1057Q555 1008 613 982T823 946Q894 940 973 933T1130 910T1278 864T1402 786T1488 662T1520 481Q1520 247 1349 111T883 -25ZM295 1831L409 2068L784 1917L1157 2068L1270 1831L860 1579H708L295 1831Z"/><glyph unicode="š" horiz-adv-x="1260" d="M733 -14Q562 -14 457 27T324 143V0H37V420H334Q379 350 458 319T680 287Q815 287 815 352Q815 382 783 396T670 416L549 426Q360 441 262 484T117 609T70 809Q70 928 128 1016T294 1152T537 1200Q660 1200 760 1163T889 1067V1180H1178V784H870Q839 829 770 853T612 877Q552 877 524 862T496 813Q496 786 532 773T694 750L806 744Q1029 730 1130 643T1231 389Q1231 197 1098 92T733 -14ZM140 1516L254 1753L629 1602L1002 1753L1115 1516L705 1264H553L140 1516Z"/><glyph unicode="Ÿ" horiz-adv-x="1663" d="M479 342H616V537L115 1143H37V1518H786V1163H580L860 844L1120 1163H936V1518H1626V1143H1548L1065 535V342H1202V0H479V342ZM420 1925H809V1595H420V1925ZM911 1925H1300V1595H911V1925Z"/><glyph unicode="Ž" horiz-adv-x="1473" d="M37 328L907 1180H449V930H57V1518H1415V1151L571 322H1044V606H1436V0H37V328ZM246 1831L360 2068L735 1917L1108 2068L1221 1831L811 1579H659L246 1831Z"/><glyph unicode="ž" horiz-adv-x="1274" d="M37 348L731 870H401V731H74V1180H1194V819L524 283H909V479H1237V0H37V348ZM148 1516L262 1753L637 1602L1010 1753L1123 1516L713 1264H561L148 1516Z"/><glyph unicode="ƒ" horiz-adv-x="1208" d="M344 555H139V905H344V1065Q344 1263 474 1376T834 1489Q959 1489 1016 1485T1128 1468L1077 1118Q967 1130 893 1130Q834 1130 806 1107T778 1034V905H1073V555H778V-338H344V555Z"/><glyph unicode="ˆ" horiz-adv-x="1208" d="M119 1501L528 1753H680L1094 1501L979 1264L604 1415L231 1264L119 1501Z"/><glyph unicode="ˇ" horiz-adv-x="1208" d="M115 1516L229 1753L604 1602L977 1753L1090 1516L680 1264H528L115 1516Z"/><glyph unicode="˙" horiz-adv-x="1208" d="M383 1614H823V1280H383V1614Z"/><glyph unicode="˚" horiz-adv-x="1208" d="M604 1257Q469 1257 375 1351T281 1585Q281 1724 374 1820T604 1917Q689 1917 763 1873T882 1752T926 1585Q926 1497 883 1421T764 1301T604 1257ZM604 1460Q652 1460 686 1495T721 1585Q721 1641 687 1677T604 1714Q554 1714 520 1677T485 1585Q485 1532 520 1496T604 1460Z"/><glyph unicode="˜" horiz-adv-x="1208" d="M80 1458Q170 1580 271 1644T469 1708Q518 1708 552 1695T615 1666T667 1637T721 1624Q768 1624 805 1651T885 1737L1118 1542Q1032 1423 929 1358T729 1292Q680 1292 646 1305T585 1334T533 1363T477 1376Q430 1376 392 1348T313 1264L80 1458Z"/><glyph unicode="̄" horiz-adv-x="1208" d="M164 1624H1044V1280H164V1624Z"/><glyph unicode="μ" horiz-adv-x="1485" d="M137 829H29V1169L571 1200V512Q571 430 608 391T723 352Q822 352 866 391T911 514V829H762V1169L1348 1200V338H1473V10L1014 -20L950 197Q910 111 818 66T596 20H573V-338H139L137 829Z"/><glyph unicode="‒" horiz-adv-x="1372" d="M41 895H1331V508H41V895Z"/><glyph unicode="–" horiz-adv-x="1595" d="M59 895H1534V508H59V895Z"/><glyph unicode="—" horiz-adv-x="2028" d="M59 895H1968V508H59V895Z"/><glyph unicode="―" horiz-adv-x="2048" d="M0 508V895H2048V508H0Z"/><glyph unicode="‘" horiz-adv-x="676" d="M94 969Q94 1153 121 1239T221 1387T459 1520L559 1311Q464 1268 425 1243T371 1190T356 1114H582V647H94V969Z"/><glyph unicode="’" horiz-adv-x="676" d="M117 854Q212 896 250 920T303 972T319 1051H94V1518H582V1194Q582 1004 552 918T447 771T217 645L117 854Z"/><glyph unicode="‚" horiz-adv-x="676" d="M117 -197Q212 -155 250 -131T303 -79T319 0H94V467H582V143Q582 -48 552 -133T449 -279T217 -406L117 -197Z"/><glyph unicode="“" horiz-adv-x="1245" d="M94 985Q94 1167 123 1252T227 1397T449 1518L545 1315Q453 1273 416 1249T363 1200T348 1124H567V672H94V985ZM678 985Q678 1167 707 1252T812 1397T1032 1518L1128 1315Q1036 1273 999 1249T947 1201T932 1124H1151V672H678V985Z"/><glyph unicode="”" horiz-adv-x="1245" d="M117 874Q210 916 247 940T298 989T313 1065H94V1518H567V1206Q567 1025 539 940T435 794T213 672L117 874ZM700 874Q794 917 830 941T882 991T897 1065H678V1518H1151V1206Q1151 1025 1123 940T1019 794T797 672L700 874Z"/><glyph unicode="„" horiz-adv-x="1245" d="M117 -190Q209 -150 245 -127T297 -78T313 0H94V453H567V139Q567 -38 535 -123T429 -271T213 -393L117 -190ZM700 -190Q792 -150 828 -127T881 -77T897 0H678V453H1151V139Q1151 -38 1119 -123T1013 -272T799 -393L700 -190Z"/><glyph unicode="†" horiz-adv-x="1305" d="M436 735H80V1126H436V1589H866V1126H1225V735H866V-340H436V735Z"/><glyph unicode="‡" horiz-adv-x="1305" d="M436 123H80V514H436V735H80V1126H436V1589H866V1126H1225V735H866V514H1225V123H866V-340H436V123Z"/><glyph unicode="•" horiz-adv-x="860" d="M166 905H694V340H166V905Z"/><glyph unicode="…" horiz-adv-x="1946" d="M94 467H582V0H94V467ZM729 467H1217V0H729V467ZM1364 467H1851V0H1364V467Z"/><glyph unicode="‰" horiz-adv-x="3889" d="M588 453Q435 453 311 518T118 701T49 973Q49 1123 119 1241T314 1424T588 1489Q736 1489 860 1424T1053 1241T1122 973Q1122 820 1053 702T861 519T588 453ZM588 772Q657 772 697 824T737 973Q737 1063 697 1111T588 1159Q520 1159 477 1112T434 973Q434 877 476 825T588 772ZM1597 1466H1999L1149 0H748L1597 1466ZM2163 -18Q2011 -18 1887 47T1694 232T1624 504Q1624 654 1694 772T1889 955T2163 1020Q2311 1020 2435 955T2628 772T2697 504Q2697 350 2628 232T2434 48T2163 -18ZM2163 301Q2232 301 2272 354T2312 504Q2312 592 2272 640T2163 688Q2095 688 2052 641T2009 504Q2009 407 2051 354T2163 301ZM3305 -18Q3155 -18 3031 47T2837 230T2767 504Q2767 654 2837 772T3032 955T3305 1020Q3452 1020 3576 955T3770 773T3840 504Q3840 350 3771 232T3578 48T3305 -18ZM3305 301Q3375 301 3415 354T3455 504Q3455 592 3415 640T3305 688Q3237 688 3195 641T3152 504Q3152 407 3194 354T3305 301Z"/><glyph unicode="′" horiz-adv-x="766" d="M240 1466H690L545 678H139L240 1466Z"/><glyph unicode="″" horiz-adv-x="1300" d="M240 1466H670L524 678H139L240 1466ZM795 1466H1227L1079 678H696L795 1466Z"/><glyph unicode="‹" horiz-adv-x="1094" d="M162 588L471 1180H870L594 588L870 0H471L162 588Z"/><glyph unicode="›" horiz-adv-x="1094" d="M623 0H223L500 588L223 1180H623L932 588L623 0Z"/><glyph unicode="⁄" horiz-adv-x="1225" d="M850 1466H1227L377 0H0L850 1466Z"/><glyph unicode="⁰" horiz-adv-x="1206" d="M604 543Q378 543 244 686T109 1073Q109 1316 243 1459T604 1602Q750 1602 862 1538T1036 1353T1098 1073Q1098 830 963 687T604 543ZM604 827Q680 827 718 891T756 1073Q756 1300 604 1300Q451 1300 451 1073Q451 957 489 892T604 827Z"/><glyph unicode="⁴" horiz-adv-x="1159" d="M471 797H606V854H68V1063L526 1585H885L434 1079H612L676 1257H909V1079H1051V854H909V797H1008V559H471V797Z"/><glyph unicode="⁵" horiz-adv-x="1090" d="M561 541Q365 541 246 603T63 793L336 911Q359 865 410 835T539 805Q617 805 654 831T692 915Q692 964 656 991T559 1018Q513 1018 480 1014T391 995L123 1071L174 1585H934V1307H426L412 1180Q497 1245 670 1245Q837 1245 928 1159T1020 915Q1020 733 902 637T561 541Z"/><glyph unicode="⁶" horiz-adv-x="1145" d="M600 543Q370 543 236 678T102 1040Q102 1323 247 1462T682 1602Q783 1602 922 1575L877 1300Q765 1325 668 1325Q434 1325 434 1148V1141Q473 1195 550 1228T713 1262Q880 1262 974 1170T1069 920Q1069 742 945 643T600 543ZM606 809Q672 809 706 840T741 915Q741 964 704 996T610 1028Q541 1028 494 999T446 920Q446 871 489 840T606 809Z"/><glyph unicode="⁷" horiz-adv-x="1032" d="M342 559V572Q342 846 427 1030T700 1337H362V1200H92V1585H995V1391Q837 1285 756 1077T674 572V559H342Z"/><glyph unicode="⁸" horiz-adv-x="1151" d="M573 532Q424 532 317 574T153 691T96 860Q96 1051 289 1124Q217 1159 180 1215T143 1335Q143 1416 193 1477T340 1573T573 1608Q709 1608 805 1574T953 1479T1004 1335Q1004 1266 967 1209T860 1124Q959 1088 1007 1026T1055 860Q1055 765 998 690T833 574T573 532ZM573 776Q644 776 681 809T719 895Q719 951 681 982T573 1014Q505 1014 468 982T430 895Q430 842 466 809T573 776ZM573 1192Q621 1192 651 1217T682 1280Q682 1317 652 1338T573 1360Q524 1360 496 1339T467 1280Q467 1242 495 1217T573 1192Z"/><glyph unicode="⁹" horiz-adv-x="1145" d="M270 829Q385 809 479 809Q611 809 662 848T713 985V993Q678 942 602 907T434 872Q272 872 174 966T76 1223Q76 1403 200 1502T545 1602Q778 1602 910 1470T1042 1104Q1042 821 899 682T465 543Q345 543 225 567L270 829ZM535 1106Q606 1106 653 1134T700 1210Q700 1260 657 1288T539 1317Q474 1317 439 1287T403 1217Q403 1167 440 1137T535 1106Z"/><glyph unicode="₀" horiz-adv-x="1206" d="M604 -353Q378 -353 244 -210T109 177Q109 420 243 563T604 706Q750 706 862 642T1036 457T1098 177Q1098 -66 963 -209T604 -353ZM604 -69Q680 -69 718 -5T756 177Q756 404 604 404Q451 404 451 177Q451 61 489 -4T604 -69Z"/><glyph unicode="₁" horiz-adv-x="829" d="M121 -83H283V388Q212 364 121 364V652Q258 652 324 661T428 689H606V-83H737V-337H121V-83Z"/><glyph unicode="₂" horiz-adv-x="1126" d="M109 -42L496 175Q595 233 623 261T651 327Q651 373 623 395T532 417Q419 417 352 329L86 488Q164 604 284 655T578 706Q768 706 874 619T981 372Q981 267 915 181T709 24L438 -120H758V-1H1010V-337H109V-42Z"/><glyph unicode="₃" horiz-adv-x="1077" d="M541 -355Q346 -355 224 -297T33 -103L305 15Q355 -85 504 -85Q587 -85 621 -63T655 1Q655 52 594 68T348 85V292Q451 292 512 299T599 320T625 364Q625 431 504 431Q435 431 387 413T319 364L74 509Q152 614 264 660T530 706Q656 706 749 673T894 580T946 445Q946 363 898 306T760 226Q981 179 981 -36Q981 -184 861 -269T541 -355Z"/><glyph unicode="₄" horiz-adv-x="1159" d="M471 -99H606V-42H68V167L526 689H885L434 183H612L676 361H909V183H1051V-42H909V-99H1008V-337H471V-99Z"/><glyph unicode="₅" horiz-adv-x="1090" d="M561 -355Q365 -355 246 -293T63 -103L336 15Q359 -31 410 -61T539 -91Q617 -91 654 -65T692 19Q692 68 656 95T559 122Q513 122 480 118T391 99L123 175L174 689H934V411H426L412 284Q497 349 670 349Q837 349 928 263T1020 19Q1020 -163 902 -259T561 -355Z"/><glyph unicode="₆" horiz-adv-x="1145" d="M600 -353Q370 -353 236 -218T102 144Q102 427 247 566T682 706Q783 706 922 679L877 404Q765 429 668 429Q434 429 434 252V245Q473 299 550 332T713 366Q880 366 974 274T1069 24Q1069 -154 945 -253T600 -353ZM606 -87Q672 -87 706 -56T741 19Q741 68 704 100T610 132Q541 132 494 103T446 24Q446 -25 489 -56T606 -87Z"/><glyph unicode="₇" horiz-adv-x="1032" d="M342 -337V-324Q342 -50 427 134T700 441H362V304H92V689H995V495Q837 389 756 181T674 -324V-337H342Z"/><glyph unicode="₈" horiz-adv-x="1151" d="M573 -364Q424 -364 317 -322T153 -205T96 -36Q96 155 289 228Q217 263 180 319T143 439Q143 520 193 581T340 677T573 712Q709 712 805 678T953 583T1004 439Q1004 370 967 313T860 228Q959 192 1007 130T1055 -36Q1055 -131 998 -206T833 -322T573 -364ZM573 -120Q644 -120 681 -87T719 -1Q719 55 681 86T573 118Q505 118 468 86T430 -1Q430 -54 466 -87T573 -120ZM573 296Q621 296 651 321T682 384Q682 421 652 442T573 464Q524 464 496 443T467 384Q467 346 495 321T573 296Z"/><glyph unicode="₉" horiz-adv-x="1145" d="M270 -67Q385 -87 479 -87Q611 -87 662 -48T713 89V97Q678 46 602 11T434 -24Q272 -24 174 70T76 327Q76 507 200 606T545 706Q778 706 910 574T1042 208Q1042 -75 899 -214T465 -353Q345 -353 225 -329L270 -67ZM535 210Q606 210 653 238T700 314Q700 364 657 392T539 421Q474 421 439 391T403 321Q403 271 440 241T535 210Z"/><glyph unicode="€" horiz-adv-x="1612" d="M952 -12Q707 -12 540 115T313 473H45V686H285V760H45V973H311Q366 1210 530 1344T924 1479Q1035 1479 1117 1439T1237 1327V1466H1569V977H1235Q1192 1033 1159 1056T1081 1090T973 1102Q894 1102 831 1069T733 973H1098V760H694V686H1098V473H739Q811 358 975 358Q1065 358 1138 402T1270 547L1587 360Q1374 -12 952 -12Z"/><glyph unicode="™" horiz-adv-x="2562" d="M1114 764H1202V1274H1114V1518H1587L1778 979L1970 1518H2443V1282H2355V764H2443V530H1995V758H2073V1151L1866 530H1681L1475 1151V758H1550V530H1114V764ZM322 754H424V1284H319V1135H78V1518H1059V1135H819V1284H715V754H815V530H322V754Z"/><glyph unicode="∕" horiz-adv-x="1225" d="M850 1466H1227L377 0H0L850 1466Z"/><glyph unicode="∙" horiz-adv-x="676" d="M94 1038H582V555H94V1038Z"/><glyph unicode="" horiz-adv-x="1866" d="M102 756Q102 989 200 1165T494 1443T930 1544Q1171 1544 1367 1444T1663 1168T1763 756Q1763 521 1665 345T1370 67T930 -35Q691 -35 494 67T200 347T102 756ZM438 756Q438 614 496 506T670 336T930 274Q1074 274 1192 335T1368 505T1427 756Q1427 898 1368 1005T1191 1174T930 1235Q788 1235 672 1174T497 1005T438 756ZM692 756Q692 859 757 920T930 981Q1036 981 1102 921T1169 756Q1169 650 1104 589T930 528Q822 528 757 589T692 756Z"/><glyph unicode="ﬀ" horiz-adv-x="1819" d="M930 338H1077V829H676V338H881V0H37V338H242V829H37V1180H242V1217Q242 1414 371 1527T731 1640Q838 1640 879 1639T989 1624L938 1274Q846 1282 791 1282Q733 1282 705 1260T676 1186V1180H1077V1217Q1077 1414 1206 1527T1567 1640Q1684 1640 1740 1637T1862 1620L1810 1270Q1700 1282 1626 1282Q1567 1282 1539 1259T1511 1186V1180H1806V829H1511V338H1806V0H930V338Z"/><glyph unicode="ﬁ" horiz-adv-x="1679" d="M37 338H242V829H37V1180H242V1217Q242 1414 371 1527T731 1640Q845 1640 894 1637T999 1624L948 1274Q856 1282 791 1282Q733 1282 705 1260T676 1186V1180H889V829H676V338H889V0H37V338ZM938 338H1077V829H938V1169L1511 1200V338H1667V0H938V338ZM1075 1589H1516V1255H1075V1589Z"/><glyph unicode="ﬂ" horiz-adv-x="1679" d="M37 338H242V829H37V1180H242V1217Q242 1420 363 1530T711 1640Q852 1640 909 1630L868 1280L821 1282H770Q733 1282 713 1274T685 1248T676 1186V1180H889V829H676V338H889V0H37V338ZM940 338H1077V1219H958V1569L1511 1599V338H1667V0H940V338Z"/><glyph unicode="ﬃ" horiz-adv-x="2515" d="M930 338H1077V829H676V338H881V0H37V338H242V829H37V1180H242V1217Q242 1414 371 1527T731 1640Q838 1640 879 1639T989 1624L938 1274Q846 1282 791 1282Q733 1282 705 1260T676 1186V1180H1077V1217Q1077 1414 1206 1527T1567 1640Q1755 1640 1835 1624L1784 1274Q1692 1282 1626 1282Q1567 1282 1539 1259T1511 1186V1180H1724V829H1511V338H1724V0H930V338ZM1774 338H1913V829H1774V1169L2347 1200V338H2503V0H1774V338ZM1911 1589H2351V1255H1911V1589Z"/><glyph unicode="ﬄ" horiz-adv-x="2515" d="M930 338H1077V829H676V338H881V0H37V338H242V829H37V1180H242V1217Q242 1414 371 1527T731 1640Q838 1640 879 1639T989 1624L938 1274Q846 1282 791 1282Q733 1282 705 1260T676 1186V1180H1077V1217Q1077 1420 1198 1530T1546 1640Q1688 1640 1745 1630L1704 1280L1656 1282H1606Q1569 1282 1549 1273T1520 1247T1511 1186V1180H1724V829H1511V338H1724V0H930V338ZM1776 338H1913V1219H1794V1569L2347 1599V338H2503V0H1776V338Z"/></font>
</defs>
</svg>
