<?xml version="1.0" encoding="utf-8"?>
<!-- Generator: Adobe Illustrator 15.0.0, SVG Export Plug-In . SVG Version: 6.00 Build 0)  -->
<!DOCTYPE svg PUBLIC "-//W3C//DTD SVG 1.1//EN" "http://www.w3.org/Graphics/SVG/1.1/DTD/svg11.dtd">
<svg version="1.1" id="Layer_1" xmlns="http://www.w3.org/2000/svg" xmlns:xlink="http://www.w3.org/1999/xlink" x="0px" y="0px"
	 width="50px" height="50px" viewBox="0 0 50 50" enable-background="new 0 0 50 50" xml:space="preserve">
<path fill="#050606" d="M48.385,17.089L39.953,4.577c-0.305-0.453-0.814-0.725-1.361-0.725h-26.98c-0.546,0-1.057,0.272-1.362,0.725
	L1.817,17.089c-0.395,0.585-0.372,1.357,0.059,1.917l21.921,28.582c0.311,0.406,0.793,0.643,1.304,0.643
	c0.512,0,0.995-0.235,1.303-0.643l21.922-28.582C48.756,18.446,48.781,17.674,48.385,17.089z M31.629,18.993l-6.528,23.86
	l-6.526-23.86H31.629z M19.062,17.021l6.04-9.666l6.041,9.666H19.062z M27.291,7.138h9.475l-3.983,8.788L27.291,7.138z
	 M17.422,15.926l-3.983-8.788h9.475L17.422,15.926z M22.365,40.322L6.007,18.993h10.524L22.365,40.322z M33.672,18.993h10.525
	l-16.359,21.33L33.672,18.993z M44.377,17.021h-9.928l3.992-8.809L44.377,17.021z M11.761,8.213l3.993,8.809H5.825L11.761,8.213z"/>
</svg>
