<?xml version="1.0" standalone="no"?>
<!DOCTYPE svg PUBLIC "-//W3C//DTD SVG 1.1//EN" "http://www.w3.org/Graphics/SVG/1.1/DTD/svg11.dtd" >
<svg xmlns="http://www.w3.org/2000/svg">
<metadata>
This is a custom SVG font generated by IcoMoon.
<iconset grid="16"></iconset>
</metadata>
<defs>
<font id="GigaOM-Icon" horiz-adv-x="512" >
<font-face units-per-em="512" ascent="384" descent="-128" />
<missing-glyph horiz-adv-x="512" />
<glyph unicode="&#xe001;" d="M 12.16,264.055L 304.84,264.055L 304.84,213.094L 12.16,213.094zM 12.16,153.352L 304.84,153.352L 304.84,102.391L 12.16,102.391zM 12.16,42.734L 304.84,42.734L 304.84-8.219L 12.16-8.219z" horiz-adv-x="317"  />
<glyph unicode="&#xe002;" d="M 281.781,100.688 L 174.227,100.688 L 174.227-6.859 L 119.758-6.859 L 119.758,100.688 L 12.219,100.688 L 12.219,155.148 L 119.758,155.148 L 119.758,262.688 L 174.227,262.688 L 174.227,155.148 L 281.781,155.148 Z" horiz-adv-x="294"  />
<glyph unicode="&#xe003;" d="M 35.141-7.867c-12.148,0.016-21.953,9.852-21.953,21.945l0.00,0.00L 13.188,242.484 c0.00,12.148, 9.805,21.961, 21.953,21.961
	l0.00,0.00l 117.773,0.00 l-31.398-31.367L 44.547,233.078 l0.00-209.562 l 200.359,0.00 l0.00,42.148 l 31.397,31.344l0.00-82.93 c-0.039-12.094-9.852-21.93-21.977-21.945l0.00,0.00
	L 35.141-7.867 L 35.141-7.867z M 243.891,267.211L 243.891,306.617 l 101.922-101.969L 243.453,102.234l0.00,40.977 c0.00,0.00-60.103,4.156-103.156-22.508
	c-28.617-17.742-45.695-35.438-59.844-59.406c0.00,0.00, 3.875,63.617, 40.453,121.562C 166.656,255.32, 243.891,267.211, 243.891,267.211z" horiz-adv-x="357"  />
<glyph unicode="&#xe004;" d="M 108.613,40.516c 1.219-1.219, 1.625-2.022, 0.414-4.055c-2.031-3.234-27.133-42.125-78.977-42.125
	c-12.156,0.00-15.805,6.078-15.805,12.164c0.00,7.281, 6.883,25.914, 23.898,75.32l 10.938,32.00c 3.648,10.539, 6.078,17.82, 6.078,22.688
	c0.00,2.828-1.625,5.266-5.266,5.266c-6.484,0.00-24.711-20.656-29.57-27.133c-1.625-1.625-3.234-1.625-4.453-0.414l-3.648,3.656
	c-1.219,1.203-2.023,2.82-1.219,3.641c 2.031,2.423, 34.438,49.812, 77.773,49.812c 12.556,0.00, 17.82-6.477, 17.82-14.578
	c0.00-8.906-4.867-21.062-12.953-44.562l-21.892-61.962c-5.266-14.983-6.468-20.655-6.468-24.711c0.00-2.836, 1.203-5.664, 5.266-5.664
	c 8.102,0.00, 27.538,21.461, 29.977,25.103c 0.806,1.22, 2.423,1.22, 3.228,0.422L 108.613,40.516z M 120.777,238.984
	c0.00-12.562-12.961-26.734-27.953-26.734c-15.797,0.00-25.914,9.305-25.914,24.703c0.00,12.555, 11.328,24.711, 25.109,24.711
	C 111.457,261.664, 120.777,251.531, 120.777,238.984z" horiz-adv-x="133"  />
<glyph unicode="&#xe005;" d="M 213.899,159.914c0.00,25.719-9.845,51.664-29.57,71.336c-19.634,19.656-45.547,29.609-71.312,29.562
	c-25.773,0.047-51.711-9.906-71.352-29.562c-19.672-19.672-29.531-45.617-29.531-71.336c0.00-25.797, 9.859-51.734, 29.531-71.375
	c 19.641-19.648, 45.578-29.594, 71.352-29.555l 0.086,0.00 c 25.742,0.00, 51.594,9.93, 71.227,29.555
	C 204.056,108.211, 213.899,134.117, 213.899,159.914z M 158.118,114.766c-12.47-12.469-28.766-18.703-45.102-18.703
	c-16.438,0.00-32.633,6.234-45.133,18.703c-12.539,12.50-18.734,28.797-18.734,45.148c0.00,16.414, 6.195,32.648, 18.734,45.141
	c 12.50,12.492, 28.695,18.68, 45.133,18.711c 16.414-0.031, 32.632-6.25, 45.102-18.711c 12.444-12.492, 18.694-28.727, 18.694-45.141
	C 176.812,143.562, 170.562,127.266, 158.118,114.766z M 268.884,4.078c-6.069-6.00-14.00-9.008-21.914-9.008
	c-7.875,0.00-15.805,3.008-21.828,9.008l-53.28,53.305c 8.805,5.094, 17.234,11.312, 24.805,18.859
	c 7.578,7.578, 13.781,15.938, 18.828,24.844l 53.391-53.32C 280.86,35.711, 280.86,16.148, 268.884,4.078z" horiz-adv-x="290"  />
<glyph unicode="&#xe006;" d="M 285.89,212.82 C 278.366,201.547 268.835,191.648 257.863,183.72 C 257.979,181.33 258.018,178.884 258.018,176.478 C 258.018,102.251 201.525,16.673 98.213,16.673 C 66.494,16.673 36.97,25.932 12.111,41.901 C 16.493,41.378 20.978,41.112 25.509,41.112 C 51.821,41.112 76.048,50.104 95.251,65.151 C 70.673,65.612 49.962,81.854 42.806,104.143 C 46.228,103.487 49.735,103.134 53.376,103.134 C 58.486,103.134 63.447,103.854 68.142,105.126 C 42.462,110.274 23.126,132.985 23.126,160.196 C 23.126,160.422 23.126,160.672 23.126,160.899 C 30.688,156.695 39.345,154.172 48.54,153.883 C 33.462,163.953 23.556,181.148 23.556,200.617 C 23.556,210.898 26.306,220.57 31.15,228.859 C 58.861,194.882 100.259,172.538 146.939,170.171 C 145.978,174.295 145.509,178.60 145.509,182.983 C 145.509,214.015 170.618,239.163 201.657,239.163 C 217.796,239.163 232.407,232.335 242.649,221.429 C 255.437,223.921 267.476,228.585 278.296,235.023 C 274.124,221.914 265.226,210.898 253.624,203.953 C 264.976,205.312 275.821,208.32 285.89,212.82 Z" horiz-adv-x="298"  />
<glyph unicode="&#xe007;" d="M 137.816,175.531 L 132.934,127.811 L 95.059,127.811 C 95.059,67.288 95.059-7.268 95.059-7.268 L 38.871-7.268 C 38.871-7.268 38.871,66.561 38.871,127.811 L 12.183,127.811 L 12.183,175.53 L 38.872,175.53 L 38.872,206.421 C 38.872,228.538 49.419,263.085 95.552,263.085 L 137.114,262.937 L 137.114,216.601 C 137.114,216.601 111.848,216.601 106.934,216.601 C 101.997,216.601 95.059,214.148 95.059,203.578 L 95.059,175.531 L 137.816,175.531 Z" horiz-adv-x="150"  />
<glyph unicode="&#xe008;" d="M 247.191,255.688L 30.777,255.688 c-10.32,0.00-18.734-8.188-18.734-18.312l0.00-218.914 c0.00-10.094, 8.414-18.328, 18.734-18.328
		l 216.415,0.00 c 10.375,0.00, 18.766,8.234, 18.766,18.328L 265.958,237.375 C 265.957,247.50, 257.566,255.688, 247.191,255.688z M 88.988,41.766L 50.652,41.766 
		L 50.652,157.148 l 38.336,0.00 L 88.988,41.766 z M 69.848,172.938l-0.266,0.00 c-12.883,0.00-21.211,8.867-21.211,19.93c0.00,11.312, 8.609,19.922, 21.719,19.922
		c 13.094,0.00, 21.188-8.609, 21.453-19.922C 91.543,181.805, 83.184,172.938, 69.848,172.938z M 227.309,41.766l-38.336,0.00 l0.00,61.758 
		c0.00,15.50-5.547,26.079-19.43,26.079c-10.602,0.00-16.922-7.141-19.695-14.023c-1.022-2.47-1.242-5.897-1.242-9.367l0.00-64.444 L 110.23,41.769 
		c0.00,0.00, 0.50,104.562,0.00,115.382l 38.375,0.00 l0.00-16.312 c 5.086,7.859, 14.188,19.062, 34.569,19.062c 25.234,0.00, 44.133-16.508, 44.133-51.968
		L 227.309,41.766L 227.309,41.766z" horiz-adv-x="278"  />
<glyph unicode="&#xe009;" d="M 40.723,127.898 C 40.723,143.547 44.074,158.375 50.059,171.788 L 101.473,30.921 C 65.504,48.367 40.723,85.266 40.723,127.898 Z M 221.277,133.367 C 221.277,124.125 218.527,112.516 213.056,98.50 L 202.323,62.602 L 163.354,178.446 C 169.854,178.79 175.69,179.462 175.69,179.462 C 181.503,180.172 180.807,188.68 175.026,188.36 C 175.026,188.36 157.558,186.977 146.292,186.977 C 135.691,186.977 117.894,188.36 117.894,188.36 C 112.089,188.681 111.394,179.814 117.206,179.462 C 117.206,179.462 122.706,178.79 128.503,178.446 L 145.308,132.438 L 121.722,61.711 L 82.456,178.445 C 88.956,178.789 94.808,179.461 94.808,179.461 C 100.604,180.171 99.925,188.679 94.12,188.359 C 94.12,188.359 76.659,186.976 65.409,186.976 C 63.354,186.976 61.003,187.031 58.456,187.117 C 77.721,216.367 110.838,235.703 148.526,235.703 C 176.574,235.703 202.119,224.976 221.307,207.398 C 220.838,207.437 220.369,207.484 219.924,207.484 C 209.291,207.484 201.791,198.281 201.791,188.359 C 201.791,179.461 206.924,171.977 212.393,163.086 C 216.471,155.898 221.277,146.664 221.277,133.367 Z M 150.41,118.484 L 183.561,27.726 C 183.739,27.172 184.027,26.703 184.294,26.242 C 173.106,22.289 161.075,20.125 148.528,20.125 C 137.911,20.125 127.707,21.648 118.059,24.50 L 150.41,118.484 Z M 243.09,179.633 C 251.488,164.281 256.293,146.664 256.293,127.898 C 256.293,88.148 234.738,53.429 202.707,34.765 L 235.621,129.93 C 241.777,145.312 243.824,157.617 243.824,168.539 C 243.824,172.508 243.559,176.188 243.09,179.633 ZM 148.488-8.617c-75.281,0.00-136.531,61.25-136.531,136.531c0.00,75.281, 61.25,136.539, 136.531,136.539
		c 75.305,0.00, 136.555-61.258, 136.555-136.539C 285.043,52.633, 223.793-8.617, 148.488-8.617z M 148.488,250.078
		c-67.344,0.00-122.148-54.805-122.148-122.164c0.00-67.367, 54.805-122.164, 122.148-122.164c 67.368,0.00, 122.172,54.797, 122.172,122.164
		C 270.66,195.273, 215.855,250.078, 148.488,250.078z" horiz-adv-x="297"  />
<glyph unicode="&#xe010;" d="M 6.95,127.883 C 6.95,145.852 10.792,162.859 17.661,178.266 L 76.669,16.578 C 35.403,36.633 6.95,78.977 6.95,127.883 Z M 214.152,134.164 C 214.152,123.57 211.012,110.25 204.729,94.149 L 192.401,52.961 L 147.682,185.899 C 155.143,186.298 161.815,187.071 161.815,187.071 C 168.504,187.891 167.715,197.649 161.074,197.274 C 161.074,197.274 141.01,195.696 128.096,195.696 C 115.924,195.696 95.518,197.274 95.518,197.274 C 88.846,197.649 88.034,187.477 94.729,187.071 C 94.729,187.071 101.034,186.297 107.698,185.899 L 126.964,133.102 L 99.902,51.938 L 54.847,185.898 C 62.30,186.297 69.019,187.07 69.019,187.07 C 75.667,187.89 74.886,197.648 68.253,197.273 C 68.253,197.273 48.183,195.695 35.261,195.695 C 32.933,195.695 30.214,195.757 27.30,195.851 C 49.394,229.422 87.41,251.617 130.652,251.617 C 162.839,251.617 192.167,239.273 214.183,219.125 C 213.644,219.172 213.122,219.234 212.566,219.234 C 200.419,219.234 191.794,208.648 191.794,197.273 C 191.794,187.07 197.669,178.476 203.949,168.273 C 208.636,160.023 214.152,149.437 214.152,134.164 Z M 132.809,117.086 L 170.847,12.93 C 171.074,12.312 171.394,11.75 171.699,11.25 C 158.856,6.711 145.043,4.211 130.653,4.211 C 118.481,4.211 106.77,5.945 95.684,9.211 L 132.809,117.086 Z M 239.168,187.258 C 248.832,169.648 254.332,149.438 254.33,127.883 C 254.33,82.258 229.596,42.422 192.83,21.024 L 230.596,130.219 C 237.682,147.875 240.034,162.00 240.034,174.516 C 240.034,179.086 239.698,183.305 239.168,187.258 Z" horiz-adv-x="261"  />
<glyph unicode="&#xe011;" d="M 390.485,229.729c0.00,7.07-5.734,12.805-12.797,12.805L 90.454,242.534 c-7.062,0.00-12.797-5.734-12.797-12.805l0.00-38.234 L 24.805,191.495 
	c-7.07,0.00-12.805-5.727-12.805-12.797l0.00-120.72 c0.00-24.267, 19.117-43.992, 43.055-45.358c 0.836-0.164, 1.695-0.259, 2.586-0.259l 287.227,0.00 
	c 24.266,0.00, 43.984,19.117, 45.359,43.056C 390.399,56.244, 390.485,229.729, 390.485,229.729z M 37.602,57.979L 37.602,165.90 l 40.055,0.00 l0.00-107.906 
	c0.00-11.047-8.984-20.031-20.016-20.031C 46.587,37.963, 37.602,46.947, 37.602,57.979z M 344.868,37.963L 98.423,37.963 
	c 2.625,5.336, 4.219,11.211, 4.57,17.453c 0.172,0.828, 0.258,161.516, 0.258,161.516l 261.633,0.00 l0.00-158.938 
	C 364.884,46.947, 355.907,37.963, 344.868,37.963z M 348.821,188.893l0.00-40.852 c0.00-7.461-6.104-13.578-13.57-13.578l-40.844,0.00 
	c-7.469,0.00-13.586,6.117-13.586,13.578l0.00,40.852 c0.00,7.461, 6.117,13.57, 13.586,13.57l 40.844,0.00 
	C 342.72,202.463, 348.821,196.354, 348.821,188.893z M 121.821,189.861c0.00,4.719, 3.82,8.539, 8.531,8.539l 122.469,0.00 
	c 4.719,0.00, 8.531-3.82, 8.531-8.539c0.00-4.711-3.812-8.531-8.531-8.531L 130.352,181.33 C 125.641,181.33, 121.821,185.15, 121.821,189.861z
	 M 121.438,170.15c0.00,2.359, 1.906,4.266, 4.266,4.266l 96.367,0.00 c 2.359,0.00, 4.266-1.906, 4.266-4.266s-1.906-4.266-4.266-4.266l-96.367,0.00 
	C 123.345,165.885, 121.438,167.791, 121.438,170.15z M 347.806,104.08c0.00-2.359-1.906-4.266-4.268-4.266L 125.704,99.814 
	c-2.359,0.00-4.266,1.904-4.266,4.266c0.00,2.359, 1.906,4.266, 4.266,4.266L 343.54,108.346 C 345.899,108.346, 347.806,106.439, 347.806,104.08z
	 M 121.438,124.736c0.00,2.357, 1.906,4.271, 4.266,4.271l 132.32,0.00 c 2.352,0.00, 4.266-1.914, 4.266-4.271c0.00-2.354-1.914-4.268-4.266-4.268
	l-132.32,0.00 C 123.345,120.471, 121.438,122.385, 121.438,124.736z M 333.938,83.424c0.00-2.359-1.906-4.266-4.268-4.266L 125.704,79.158 
	c-2.359,0.00-4.266,1.906-4.266,4.266c0.00,2.36, 1.906,4.266, 4.266,4.266l 203.969,0.00 C 332.032,87.689, 333.938,85.783, 333.938,83.424z" horiz-adv-x="402"  />
<glyph unicode="&#xe012;" d="M 227.106,237.447l-1.703,0.00 l0.00-5.133 c0.00-11.023-8.945-19.977-19.978-19.977c-11.022,0.00-19.969,8.953-19.969,19.977
		l0.00,5.133 l-24.50,0.00 l0.00-5.133 c0.00-11.023-8.938-19.977-19.961-19.977c-11.023,0.00-19.977,8.953-19.977,19.977l0.00,5.133 l-24.50,0.00 l0.00-5.133 
		c0.00-11.023-8.945-19.977-19.969-19.977c-11.024,0.00-19.969,8.953-19.969,19.977l0.00,5.133 l-1.695,0.00 c-23.508,0.00-42.625-19.125-42.625-42.625
		l0.00-158.641 c0.00-23.492, 19.117-42.625, 42.625-42.625l 172.218,0.00 c 23.509,0.00, 42.634,19.133, 42.634,42.625L 269.737,194.822 
		C 269.739,218.322, 250.614,237.447, 227.106,237.447z M 245.403,46.736c0.00-16.062-11.875-29.094-26.517-29.094L 63.114,17.642 
		c-14.672,0.00-26.539,13.03-26.539,29.094L 36.575,192.283 l 208.828,0.00 L 245.403,46.736 z M 97.692,105.666l-12.938-8.984
		c-25.07-17.438-27.102-21.82-27.102-30.233c0.00-5.875, 4.367-11.337, 11.555-11.337l 55.594,0.00 c 8.172,0.00, 11.594,4.259, 11.594,11.47
		c0.00,7.228-3.422,11.444-11.594,11.444L 92.395,78.026 l0.00,0.273 l 24.648,15.531c 12.117,7.617, 17.82,15.789, 17.82,27.242
		c0.00,15.133-10.062,30.897-39.07,30.897c-24.25,0.00-37.062-13.875-37.062-26.952c0.00-7.759, 3.547-13.234, 13.344-13.234
		c 15.398,0.00, 7.359,18.961, 22.898,18.961c 7.352,0.00, 11.828-4.383, 11.828-11.023C 106.802,114.111, 104.372,110.314, 97.692,105.666z
		 M 147.513,84.158c0.00-20.461, 15.945-30.797, 40.188-30.797c 24.508,0.00, 40.438,10.336, 40.438,30.797c0.00,11.047-5.03,16.461-15.25,21.078
		c 7.75,3.438, 12.672,11.039, 12.672,20.594c0.00,9.68-7.625,26.141-37.858,26.141c-29.992,0.00-37.578-16.461-37.578-26.141
		c0.00-9.555, 4.875-17.156, 12.648-20.594C 152.536,100.619, 147.513,95.205, 147.513,84.158z M 187.70,132.393
		c 7.914,0.00, 11.438-3.547, 11.438-9.969c0.00-6.562-4.211-9.938-11.438-9.938c-6.945,0.00-11.172,3.375-11.172,9.938
		C 176.528,128.846, 180.067,132.393, 187.70,132.393z M 187.70,96.971c 7.227,0.00, 12.397-5.055, 12.397-12.141
		c0.00-8.008-4.905-11.844-12.538-11.844c-7.078,0.00-11.992,3.836-11.992,11.844C 175.567,91.916, 180.755,96.971, 187.70,96.971z
		 M 76.552,224.096c-4.531,0.00-8.219,3.688-8.219,8.219l0.00,38.039 c0.00,4.539, 3.688,8.219, 8.219,8.219c 4.531,0.00, 8.219-3.68, 8.219-8.219
		l0.00-38.039 C 84.771,227.783, 81.083,224.096, 76.552,224.096z M 140.997,224.096c-4.547,0.00-8.219,3.688-8.219,8.219l0.00,38.039 
		c0.00,4.539, 3.672,8.219, 8.219,8.219c 4.531,0.00, 8.203-3.68, 8.203-8.219l0.00-38.039 C 149.20,227.783, 145.528,224.096, 140.997,224.096z
		 M 205.427,224.096c-4.531,0.00-8.203,3.688-8.203,8.219l0.00,38.039 c0.00,4.539, 3.672,8.219, 8.203,8.219c 4.547,0.00, 8.219-3.68, 8.219-8.219
		l0.00-38.039 C 213.646,227.783, 209.974,224.096, 205.427,224.096z" horiz-adv-x="282"  />
<glyph unicode="&#xe013;" d="M 94.348,195.947c-7.516,0.00-14.438-1.50-20.547-4.469c-4.906-2.383-10.281-6.18-16.039-11.305l0.00,15.773 L 50.02,195.946 
		l-35.992-3.391l-2.125-0.203l0.00-2.125 l0.00-5.25 l0.00-2.328 l 2.344,0.00 c 10.344,0.00, 13.602-1.562, 14.625-2.484c 0.977-0.898, 2.625-3.727, 2.625-12.625
		l0.00-155.728 c0.00-5.297-1.055-8.852-3.141-10.547c-1.523-1.227-5.227-2.703-14.109-2.703l-2.344,0.00 l0.00-9.93 l 64.523,0.00 l0.00,9.93 L 74.09-1.438 
		c-8.164,0.00-11.664,1.633-13.156,3.00c-1.438,1.336-3.172,4.75-3.172,13.32l0.00,68.961 c 10.641-7.305, 21.219-11.008, 31.492-11.008
		c 16.57,0.00, 30.523,6.016, 41.492,17.875c 10.93,11.82, 16.461,26.828, 16.461,44.617c0.00,17.242-5.031,31.781-14.953,43.234
		C 122.277,190.096, 109.52,195.947, 94.348,195.947z M 109.559,97.979c-6.352-8.797-13.953-13.069-23.227-13.069
		c-10.984,0.00-20.336,4.086-28.57,12.50l0.00,68.195 c 9.00,10.18, 18.398,15.344, 27.953,15.344c 9.672,0.00, 17.469-4.469, 23.812-13.648
		c 6.453-9.32, 9.719-21.375, 9.719-35.836C 119.246,118.158, 115.988,106.893, 109.559,97.979zM 327.863,129.275 L 336.095,121.575 L 335.47,120.075 C 329.251,105.31 319.065,93.45 305.181,84.833 C 291.321,76.271 275.368,71.919 257.759,71.919 C 241.071,71.919 225.407,75.903 211.212,83.778 C 196.962,91.661 185.807,102.675 178.065,116.52 C 170.346,130.324 166.432,146.41 166.432,164.316 C 166.432,193.558 175.566,218.152 193.588,237.394 C 211.652,256.66 234.746,266.433 262.23,266.433 C 271.393,266.433 283.127,264.80 297.143,261.589 C 306.596,259.339 310.869,258.87 312.799,258.87 C 316.535,258.87 318.963,260.276 320.432,263.268 L 321.074,264.58 L 329.941,264.58 L 329.941,205.932 L 320.402,205.932 L 319.957,207.682 C 315.768,223.87 309.057,235.924 299.988,243.479 C 290.949,250.995 278.652,254.815 263.457,254.815 C 243.732,254.815 227.887,247.635 216.379,233.463 C 204.762,219.166 198.871,199.737 198.871,175.721 C 198.871,149.346 205.114,127.853 217.426,111.83 C 229.607,96.017 245.762,87.986 265.465,87.986 C 293.246,87.986 313.199,100.594 326.457,126.525 L 327.863,129.275 Z" horiz-adv-x="348"  />
<glyph unicode="&#xe014;" d="M 415.17,151.83c 0.125,0.00, 0.233,0.00, 0.358,0.016l0.00-0.031 l 33.478,0.00 l-51.914,52.164l0.00-33.992 
	C 397.092,159.955, 405.162,151.83, 415.17,151.83z M 99.944,158.564L 88.217,158.564 l0.00-28.602 l 11.539,0.00 c 10.992,0.00, 18.344,4.945, 18.344,14.125l0.00,0.352 
	C 118.10,153.783, 111.319,158.564, 99.944,158.564z M 459.006,135.783c0.00,4.00-1.453,7.633-3.828,10.50l-25.734,0.00 
	c 1.508-5.625, 2.422-11.547, 2.422-17.633c0.00-36.875-29.883-66.757-66.772-66.757c-36.844,0.00-66.742,29.883-66.742,66.757
	c0.00,36.859, 29.898,66.711, 66.742,66.711c 9.156,0.00, 17.93-1.82, 25.897-5.18l0.00,19.422 c-2.375,1.258-5.00,2.047-7.866,2.047L 42.35,211.65 
	c-16.727,0.00-30.359-13.578-30.359-30.32l0.00-107.539 c0.00-16.742, 13.633-30.375, 30.359-30.375l 386.328,0.00 c 16.719,0.00, 30.359,13.633, 30.359,30.375
	L 459.006,135.783z M 160.42,146.807c0.00-30.961-23.641-47.446-58.266-47.446L 88.216,99.361 l0.00-34.805 L 45.358,64.556 L 45.358,192.814 l 57.703,0.00 
	c 34.102,0.00, 57.359-15.195, 57.359-45.625L 160.42,146.807 z M 245.959,64.557l-24.148,36.633l-9.203,0.00 l0.00-36.633 l-42.883,0.00 L 169.725,192.814 l 62.695,0.00 
	c 22.727,0.00, 37.18-5.703, 46.18-14.656c 7.688-7.695, 11.703-17.219, 11.703-30.438l0.00-0.352 c0.00-18.688-9.68-31.681-25.281-39.22
	l 29.883-43.594l-48.945,0.00 L 245.96,64.557 z M 231.319,156.908l-18.711,0.00 l0.00-25.117 l 18.523,0.00 c 10.242,0.00, 16.469,4.602, 16.469,12.484l0.00,0.344 
	C 247.60,152.893, 241.193,156.908, 231.319,156.908z M 365.092,157.213c-15.734,0.00-28.562-12.828-28.562-28.562
	c0.00-15.758, 12.828-28.594, 28.562-28.594c 15.75,0.00, 28.57,12.836, 28.57,28.594C 393.662,144.385, 380.842,157.213, 365.092,157.213z" horiz-adv-x="471"  />
<glyph unicode="&#xe015;" d="M 340.637,264.432L 26.02,264.432 c-7.742,0.00-14.016-6.273-14.016-14.016l0.00-197.43 c0.00-7.742, 6.273-14.016, 14.016-14.016
	l 314.617,0.00 c 7.742,0.00, 14.023,6.272, 14.023,14.016l0.00,197.43 C 354.66,258.158, 348.379,264.432, 340.637,264.432z M 183.315,56.135
	c-52.711,0.00-95.594,42.875-95.594,95.578c0.00,52.719, 42.883,95.602, 95.594,95.602c 52.72,0.00, 95.603-42.883, 95.603-95.602
	C 278.918,99.01, 236.035,56.135, 183.315,56.135z M 388.98-9.365L 79.214-9.365 c-7.742,0.00-14.023,6.281-14.023,14.016
	c0.00,7.742, 6.281,14.023, 14.023,14.023l 295.75,0.00 L 374.964,202.096 c0.00,7.734, 6.273,14.016, 14.016,14.016s 14.016-6.281, 14.016-14.016L 402.996,4.65 
	C 402.996-3.084, 396.723-9.365, 388.98-9.365z M 182.371,218.939c 3.836,0.00, 6.883-3.031, 6.883-6.875l0.00-3.516 
	c 9.438-1.125, 17.43-4.164, 24.79-8.805c 2.578-1.438, 4.805-3.836, 4.805-7.68c0.00-4.961-4.00-8.797-8.969-8.797
	c-1.586,0.00-3.195,0.469-4.797,1.438c-5.586,3.359-11.031,5.758-16.469,7.039l0.00-30.719 c 24.312-6.086, 34.728-15.852, 34.728-32.961
	c0.00-17.609-13.773-29.29-34.086-31.211l0.00-9.594 c0.00-3.836-3.047-6.891-6.883-6.891c-3.852,0.00-7.039,3.055-7.039,6.891l0.00,9.922 
	c-12.00,1.281-23.047,5.603-32.812,12.478c-2.719,1.758-4.328,4.319-4.328,7.68c0.00,4.953, 3.852,8.806, 8.82,8.806
	c 1.914,0.00, 3.836-0.648, 5.273-1.773c 7.523-5.438, 14.875-9.109, 23.68-10.711l0.00,31.516 c-23.367,6.094-34.242,14.891-34.242,32.977
	c0.00,17.117, 13.594,28.953, 33.609,30.555l0.00,3.359 C 175.332,215.908, 178.52,218.939, 182.371,218.939z M 175.964,164.385l0.00,28.32 
	c-10.242-0.961-15.352-6.398-15.352-13.438C 160.612,172.541, 163.645,168.385, 175.964,164.385z M 188.612,142.143l0.00-29.118 
	c 10.242,1.109, 15.828,6.234, 15.828,13.914C 204.44,133.971, 200.934,138.307, 188.612,142.143z" horiz-adv-x="415"  />
<glyph unicode="&#xe016;" d="M 121.452,97.352c-0.164,0.00-0.289,0.00-0.406,0.00c-16.375-19.703-46.102-37.336-71.273-40.569
	c 1.977,7.836, 13.039,41.116, 3.016,59.68c-24.844,15.078-40.734,37.828-40.734,63.25c0.00,45.602, 50.82,82.539, 113.50,82.539
	c 36.875,0.00, 69.586-12.859, 90.328-32.711c-58.375-11.477-101.633-51.625-101.633-99.445
	C 114.249,118.617, 116.835,107.648, 121.452,97.352z M 149.077,123.672c0.00-48.109, 53.719-87.188, 119.969-87.188
	c 1.531,0.00, 3.109,0.094, 4.719,0.195c 17.312-20.853, 48.734-39.50, 75.281-42.931c-2.07,8.25-13.789,43.483-3.164,63.031
	c 26.289,15.983, 43.062,40.016, 43.062,66.891c0.00,48.18-53.688,87.211-119.898,87.211C 202.796,210.883, 149.077,171.852, 149.077,123.672
	z" horiz-adv-x="401"  />
<glyph unicode="&#xe017;" d="M 144.495,214.102 C 205.901,214.102 255.854,164.133 255.855,102.711 C 255.855,41.321 205.902-8.617 144.496-8.617 L 87.043-8.617 L 87.043,34.172 L 144.496,34.172 C 182.301,34.172 213.074,64.922 213.074,102.711 C 213.074,140.531 182.301,171.297 144.496,171.297 L 90.754,171.297 L 128.363,133.688 L 98.121,103.422 L 12.144,189.36 L 98.097,275.329 L 128.37,245.071 L 97.401,214.102 L 144.495,214.102 Z" horiz-adv-x="268"  />
<glyph unicode="&#xe018;" d="M 239.551,176.109c 4.898-1.32, 9.945-1.984, 14.984-1.984c 26.102,0.00, 49.039,17.625, 55.805,42.867
	c 8.234,30.766-10.117,62.508-40.891,70.75c-4.898,1.32-9.953,1.992-14.984,1.992c-26.094,0.00-49.016-17.617-55.766-42.844
	c-1.875-6.992-2.312-14.016-1.609-20.828l-90.016-47.016c-10.117,8.695-23.227,13.992-37.586,13.992
	c-31.875,0.00-57.797-25.914-57.797-57.773c0.00-31.875, 25.922-57.805, 57.797-57.805c 12.695,0.00, 24.406,4.164, 33.953,11.142L 189.34,34.50
	c-1.523-8.188-1.352-16.828, 0.945-25.391c 6.766-25.22, 29.711-42.836, 55.797-42.836c 5.039,0.00, 10.094,0.664, 14.992,1.983
	c 30.772,8.258, 49.102,40.00, 40.852,70.759c-6.758,25.241-29.703,42.866-55.781,42.866c-5.047,0.00-10.077-0.672-14.991-1.983
	c-7.078-1.898-13.453-5.086-19.04-9.164l-85.843,54.062c 0.625,3.398, 1.00,6.891, 1.00,10.469c0.00,1.984-0.102,3.945-0.305,5.883
	l 89.953,46.984C 223.285,182.648, 230.902,178.422, 239.551,176.109z" horiz-adv-x="324"  />
<glyph unicode="&#xe019;" d="M 147.488,263.695C 72.536,263.695, 11.80,202.937, 11.80,128.00c0.00-74.938, 60.734-135.688, 135.688-135.688
		c 74.945,0.00, 135.711,60.75, 135.711,135.688C 283.199,202.938, 222.434,263.695, 147.488,263.695z M 101.793,55.289L 101.793,200.711 L 224.074,128.00
		L 101.793,55.289z" horiz-adv-x="295"  />
<glyph unicode="&#xe020;" d="M 179.417,224.25c-14.516-7.414-28.023-14.898-40.523-22.453c-12.508-7.578-23.242-15.062-32.195-22.469
	c-10.50-8.969-19.156-18.531-25.945-28.719c-6.789-10.18-12.648-23.32-17.602-39.375l 19.922,0.00 c 19.453,0.00, 33.422-4.781, 41.93-14.353
	c 8.484-9.586, 12.727-20.233, 12.727-31.952c0.00-14.828-5.719-28.97-17.125-42.398c-11.453-13.43-27.031-20.148-46.789-20.148
	c-21.008,0.00-36.531,5.883-46.547,17.617c-10.039,11.711-15.062,27.164-15.062,46.312c0.00,25.008, 5.406,47.694, 16.211,68.085
	c 10.805,20.375, 24.391,38.594, 40.766,54.656c 16.047,15.422, 32.805,28.258, 50.258,38.445c 17.445,10.188, 32.797,18.82, 46.086,25.945
	L 179.417,224.25z M 350.792,224.25c-14.516-7.414-28.023-14.898-40.523-22.453c-12.508-7.578-23.241-15.062-32.194-22.469
	c-10.50-8.969-19.156-18.531-25.931-28.719c-6.805-10.18-12.663-23.32-17.616-39.375l 19.922,0.00 c 19.453,0.00, 33.422-4.781, 41.93-14.353
	c 8.492-9.586, 12.728-20.233, 12.728-31.952c0.00-14.828-5.72-28.97-17.125-42.398c-11.431-13.43-27.031-20.148-46.781-20.148
	c-21.023,0.00-36.539,5.883-46.555,17.617c-10.039,11.711-15.062,27.164-15.062,46.312c0.00,25.008, 5.406,47.694, 16.211,68.085
	c 10.805,20.375, 24.383,38.594, 40.758,54.656c 16.07,15.422, 32.812,28.258, 50.267,38.445c 17.444,10.188, 32.797,18.82, 46.086,25.945
	L 350.792,224.25z" horiz-adv-x="363"  />
<glyph unicode="&#xe021;" d="M 179.422,189.508c0.00-25.625-5.555-48.867-16.672-69.703c-11.117-20.844-24.547-38.531-40.305-53.039
	c-16.664-15.742-33.883-28.938-51.641-39.602c-17.758-10.656-32.656-18.906-44.688-24.766l-13.914,29.164
	c 13.914,7.422, 27.016,14.594, 39.375,21.547c 12.359,6.938, 23.461,14.727, 33.359,23.383c 9.875,8.336, 18.523,17.906, 25.93,28.711
	c 7.422,10.812, 13.281,23.938, 17.602,39.375l-19.914,0.00 c-19.461,0.00-33.43,4.789-41.906,14.367c-8.516,9.57-12.742,20.211-12.742,31.953
	c0.00,14.812, 5.703,28.953, 17.133,42.383c 11.414,13.43, 27.023,20.148, 46.789,20.148c 20.992,0.00, 36.508-5.875, 46.547-17.594
	C 174.407,224.102, 179.422,208.656, 179.422,189.508z M 350.797,189.508c0.00-25.625-5.555-48.867-16.672-69.703
	c-11.117-20.844-24.547-38.531-40.305-53.039c-16.664-15.742-33.875-28.938-51.641-39.602
	c-17.758-10.656-32.656-18.906-44.688-24.766L 183.60,31.562c 13.893,7.422, 27.018,14.594, 39.354,21.547
	c 12.357,6.938, 23.477,14.727, 33.357,23.383c 9.875,8.336, 18.523,17.906, 25.932,28.711c 7.422,10.812, 13.281,23.938, 17.602,39.375
	L 279.93,144.578 c-19.443,0.00-33.43,4.789-41.904,14.367c-8.518,9.57-12.742,20.211-12.742,31.953c0.00,14.812, 5.701,28.953, 17.141,42.383
	c 11.422,13.43, 27.016,20.148, 46.781,20.148c 20.992,0.00, 36.508-5.875, 46.547-17.594C 345.781,224.102, 350.797,208.656, 350.797,189.508z" horiz-adv-x="363"  />
<glyph unicode="&#xe022;" d="M 333.776,247.445 C 341.19,234.164 340.854,217.914 332.892,204.944 L 211.337,6.898 C 203.69-5.541 190.143-13.119 175.525-13.119 C 160.923-13.133 147.353-5.555 139.72,6.898 L 18.103,204.929 C 10.142,217.914 9.806,234.164 17.236,247.445 C 24.658,260.711 38.689,268.945 53.908,268.945 L 297.088,268.945 C 312.323,268.945 326.338,260.711 333.776,247.445 Z" horiz-adv-x="351"  />
<glyph unicode="&#xe023;" d="M 332.902,50.883 C 340.854,37.898 341.184,21.648 333.751,8.367 C 326.337-4.898 312.298-13.117 297.103-13.117 L 53.916-13.117 C 38.682-13.117 24.666-4.899 17.252,8.367 C 9.823,21.648 10.135,37.898 18.104,50.867 L 139.668,248.898 C 147.301,261.351 160.871,268.929 175.473,268.945 C 190.09,268.945 203.637,261.367 211.285,248.914 L 332.902,50.883 Z" horiz-adv-x="351"  />
<glyph unicode="&#xe024;" d="M 298.191,127.906c0.00-79.086-64.078-143.181-143.164-143.181c-79.103,0.00-143.219,64.095-143.219,143.181
	c0.00,79.102, 64.116,143.203, 143.219,143.203C 234.113,271.109, 298.191,207.008, 298.191,127.906z" horiz-adv-x="310"  />
<glyph unicode="&#xe025;" d="M 308.097,159.562 C 308.097,153.477 305.089,148.102 300.553,144.779 L 300.576,144.74 L 230.309,90.451 L 257.176,4.498 C 257.176,4.498 257.121,4.498 257.074,4.498 C 257.809,2.482 258.262,0.428 258.262-1.791 C 258.262-11.939 250.051-20.205 239.926-20.205 C 234.77-20.205 230.184-18.074 226.832-14.721 L 160.09,36.576 L 90.84-16.455 C 90.84-16.455 90.801-16.455 90.778-16.40 C 87.693-18.736 83.888-20.205 79.716-20.205 C 69.584-20.205 61.357-11.939 61.357-1.791 C 61.357,0.959 62.021,3.53 63.099,5.85 L 89.638,90.788 L 18.333,145.655 L 18.372,145.71 C 14.45,149.069 11.903,154.022 11.903,159.608 C 11.903,169.757 20.106,177.952 30.262,177.952 C 30.403,177.952 30.536,177.952 30.70,177.897 L 114.019,177.897 L 142.011,261.913 C 142.011,261.866 142.073,261.866 142.073,261.866 C 143.964,270.007 151.214,276.03 159.917,276.03 C 168.111,276.03 175.012,270.601 177.339,263.21 L 177.401,263.21 L 205.807,177.898 L 290.566,177.898 L 290.535,177.859 C 300.30,177.406 308.097,169.437 308.097,159.562 Z" horiz-adv-x="320"  />
<glyph unicode="&#xe026;" d="M 400.243,101.463c 0.289,3.195, 0.469,6.398, 0.469,9.609c0.00,57.039-45.758,103.508-102.492,104.859
	c-20.531,34.141-57.828,57.094-100.477,57.094c-64.656,0.00-117.266-52.617-117.266-117.289l0.00-11.297 
	c-38.367-3.852-68.414-36.305-68.414-75.656c0.00-41.945, 34.133-76.07, 76.078-76.07l 290.234,0.00 c 31.188,0.00, 56.562,25.391, 56.562,56.602
	C 434.938,72.752, 420.603,92.893, 400.243,101.463z M 378.376,11.939L 88.142,11.939 c-31.359,0.00-56.859,25.50-56.859,56.844
	c0.00,31.336, 25.50,56.82, 56.859,56.82l 27.984,0.00 c 5.297,0.00, 9.609,4.305, 9.609,9.616c0.00,5.297-4.312,9.603-9.609,9.603L 98.438,144.822 l0.00,10.914 
	c0.00,54.773, 44.547,99.344, 99.305,99.344c 37.117,0.00, 69.50-20.508, 86.539-50.758c 0.43-1.797, 1.18-3.453, 2.438-4.703
	c 6.556-13.25, 10.353-28.125, 10.353-43.883l0.00-7.727 c0.00-4.969, 4.022-8.977, 8.977-8.977s 8.978,4.008, 8.978,8.977l0.00,7.727 
	c0.00,14.117-2.634,27.602-7.228,40.141c 41.586-5.906, 73.688-41.633, 73.688-84.805c0.00-1.789-0.117-3.57-0.228-5.344
	c-0.961,0.039-1.906,0.141-2.883,0.141l-13.859,0.00 c-5.297,0.00-9.608-4.305-9.608-9.609c0.00-5.297, 4.312-9.609, 9.608-9.609l 13.859,0.00 
	c 20.594,0.00, 37.336-16.75, 37.336-37.336C 415.712,28.705, 398.97,11.939, 378.376,11.939z" horiz-adv-x="447"  />
<glyph unicode="&#xe027;" d="M 481.169,133.783c0.00,65.094-69.82,118.055-155.648,118.055c-11.602,0.00-22.875-1.047-33.758-2.875
	c-28.453,28.50-73.398,47.039-124.078,47.039c-85.828,0.00-155.664-52.961-155.664-118.047c0.00-34.758, 19.859-67.359, 54.602-89.812
	c 8.055-18.797-0.992-52.008-4.484-64.781c-0.516-1.913-0.938-3.483-1.234-4.633c-0.742-3.094, 0.07-6.358, 2.188-8.711
	c 1.828-2.047, 4.445-3.194, 7.156-3.194c 0.414,0.00, 0.844,0.016, 1.258,0.069c 32.00,4.234, 71.008,26.25, 94.695,53.07
	c 0.50,0.00, 1.00-0.016, 1.484-0.016c 11.594,0.00, 22.859,1.039, 33.734,2.867c 28.453-28.50, 73.43-47.031, 124.102-47.031
	c 0.484,0.00, 0.978,0.023, 1.478,0.023c 23.664-26.836, 62.688-48.853, 94.688-53.07c 0.422-0.056, 0.844-0.078, 1.267-0.078
	c 2.702,0.00, 5.312,1.156, 7.155,3.203c 2.117,2.352, 2.922,5.617, 2.172,8.711c-0.28,1.147-0.702,2.694-1.219,4.594
	c-3.50,12.797-12.547,46.00-4.483,64.805C 461.302,66.416, 481.169,99.025, 481.169,133.783z M 167.685,79.158
	c-1.656,0.00-3.359,0.117-5.07,0.227c-3.125,0.219-6.141-1.102-8.125-3.508c-17.141-21.023-45.195-39.188-70.977-46.766
	c 4.766,19.383, 10.062,49.602-0.961,70.211c-0.797,1.492-1.961,2.75-3.406,3.641c-30.438,18.898-47.898,46.234-47.898,74.992
	c0.00,54.492, 61.211,98.82, 136.438,98.82c 40.352,0.00, 76.555-12.82, 101.562-33.047c-58.085-17.148-99.438-59.906-99.438-109.945
	c0.00-19.273, 6.266-37.43, 17.117-53.523C 180.63,79.619, 174.232,79.158, 167.685,79.158z M 414.036,58.775
	c-1.431-0.883-2.603-2.142-3.406-3.633c-11.017-20.609-5.728-50.806-0.961-70.203c-25.773,7.569-53.806,25.727-70.945,46.766
	c-1.828,2.242-4.984,3.508-7.922,3.508c-0.18,0.00-0.375,0.00-0.555-0.023c-1.609-0.094-3.195-0.18-4.728-0.18
	c-40.352,0.00-76.555,12.812-101.562,33.031c 58.079,17.148, 99.415,59.898, 99.415,109.914c0.00,19.289-6.25,37.453-17.117,53.547
	c 6.32,0.656, 12.711,1.109, 19.266,1.109c 75.228,0.00, 136.431-44.336, 136.431-98.828C 461.95,105.033, 444.489,77.689, 414.036,58.775z" horiz-adv-x="493"  />
<glyph unicode="&#xe028;" d="M 172.566,304.752L 67.434,304.752 c-30.43,0.00-55.188-24.75-55.188-55.164l0.00-240.516 c0.00-30.422, 24.758-55.172, 55.188-55.172
		l 105.133,0.00 c 30.438,0.00, 55.188,24.75, 55.188,55.172L 227.755,249.588 C 227.754,280.002, 203.004,304.752, 172.566,304.752z M 208.535,9.072
		c0.00-19.844-16.104-35.953-35.969-35.953L 67.434-26.881 c-19.867,0.00-35.961,16.109-35.961,35.953L 31.473,249.588 
		c0.00,19.859, 16.094,35.938, 35.961,35.938l 105.133,0.00 c 19.867,0.00, 35.969-16.078, 35.969-35.938L 208.536,9.072 L 208.535,9.072zM 163.199,266.76 C 178.52,266.76 190.918,253.143 190.918,236.354 L 190.918,33.932 L 49.065,33.932 L 49.065,236.354 C 49.065,253.143 61.48,266.76 76.792,266.76 L 163.199,266.76 ZM 120.003,17.408 C 128.207,17.408 134.895,10.744 134.894,2.525 C 134.894-5.679 128.207-12.367 120.003-12.367 C 111.792-12.367 105.128-5.678 105.128,2.525 C 105.128,10.744 111.792,17.408 120.003,17.408 Z" horiz-adv-x="240"  />
<glyph unicode="&#xe029;" d="M 218.543,286.572 C 223.84,286.572 228.152,282.268 228.152,276.955 L 228.152,111.339 C 228.152,69.987 194.496,36.331 153.129,36.331 L 120.293,36.331 C 114.989,36.331 110.684,40.636 110.684,45.948 C 110.684,51.245 114.988,55.557 120.293,55.557 L 153.129,55.557 C 183.904,55.557 208.926,80.579 208.926,111.337 L 208.926,226.868 C 195.191,211.587 175.262,201.954 153.129,201.954 L 86.879,201.954 C 56.105,201.954 31.074,176.93 31.074,146.157 C 31.074,121.94 46.41,101.079 68.582,93.462 C 76.949,133.501 112.527,163.696 155.035,163.696 C 160.332,163.696 164.637,159.392 164.637,154.087 C 164.637,148.775 160.332,144.478 155.035,144.478 C 116.933,144.478 85.949,113.502 85.949,75.416 L 85.949-18.295 C 85.949-23.598 81.637-27.904 76.332-27.904 C 71.035-27.904 66.723-23.60 66.723-18.295 L 66.723,73.885 C 34.528,82.783 11.848,112.01 11.848,146.158 C 11.848,187.518 45.504,221.166 86.879,221.166 L 153.129,221.166 C 183.904,221.166 208.926,246.197 208.926,276.955 C 208.926,282.267 213.231,286.572 218.543,286.572 Z" horiz-adv-x="240"  />
<glyph unicode="&#xe030;" d="M 62.227,19.314 C 57.039,19.314 52.821,23.518 52.821,28.705 C 52.821,33.892 57.039,38.103 62.227,38.103 C 67.43,38.103 71.633,33.893 71.633,28.705 C 71.633,23.517 67.43,19.314 62.227,19.314 ZM 118.742,19.314 C 113.547,19.314 109.344,23.518 109.344,28.705 C 109.344,33.883 113.547,38.103 118.742,38.103 C 123.929,38.103 128.148,33.885 128.148,28.705 C 128.148,23.517 123.93,19.314 118.742,19.314 ZM 62.227-27.60 C 57.039-27.60 52.82-23.396 52.821-18.217 C 52.821-13.014 57.039-8.811 62.227-8.811 C 67.43-8.811 71.633-13.014 71.633-18.217 C 71.633-23.398 67.43-27.60 62.227-27.60 ZM 118.742-27.60 C 113.547-27.60 109.344-23.396 109.344-18.217 C 109.344-13.014 113.547-8.811 118.742-8.811 C 123.929-8.811 128.148-13.014 128.148-18.217 C 128.148-23.398 123.93-27.60 118.742-27.60 ZM 114.945,322.33L 66.078,322.33 c-29.844,0.00-54.141-24.273-54.141-54.125l0.00-277.75 c0.00-29.844, 24.297-54.125, 54.141-54.125l 48.867,0.00 
		c 29.836,0.00, 54.117,24.281, 54.117,54.125l0.00,277.75 C 169.062,298.057, 144.781,322.33, 114.945,322.33z M 118.742,109.947
		c 10.172,0.00, 18.438-8.25, 18.438-18.445c0.00-10.164-8.266-18.406-18.438-18.406c-10.188,0.00-18.438,8.242-18.438,18.406
		C 100.305,101.697, 108.555,109.947, 118.742,109.947z M 100.305,139.385c0.00,10.219, 8.25,18.469, 18.438,18.469
		c 10.172,0.00, 18.438-8.25, 18.438-18.469c0.00-10.18-8.267-18.391-18.438-18.391C 108.555,120.994, 100.305,129.205, 100.305,139.385z
		 M 118.742,47.111c 10.172,0.00, 18.438-8.25, 18.438-18.445l0.00-46.273 c0.00-10.202-8.266-18.444-18.438-18.444
		c-10.188,0.00-18.438,8.242-18.438,18.444l0.00,46.273 C 100.305,38.861, 108.555,47.111, 118.742,47.111z M 118.742,168.877
		c-10.188,0.00-18.438,8.273-18.438,18.445c0.00,10.164, 8.25,18.414, 18.438,18.414c 10.172,0.00, 18.438-8.25, 18.438-18.414
		C 137.18,177.15, 128.914,168.877, 118.742,168.877z M 43.789,28.666c0.00,10.195, 8.266,18.445, 18.438,18.445
		c 10.203,0.00, 18.438-8.25, 18.438-18.445l0.00-46.273 c0.00-10.202-8.234-18.444-18.438-18.444c-10.172,0.00-18.438,8.242-18.438,18.444L 43.789,28.666 z
		 M 62.227,73.096c-10.172,0.00-18.438,8.242-18.438,18.406c0.00,10.195, 8.266,18.445, 18.438,18.445c 10.203,0.00, 18.438-8.25, 18.438-18.445
		C 80.664,81.338, 72.43,73.096, 62.227,73.096z M 62.227,120.994c-10.172,0.00-18.438,8.211-18.438,18.391
		c0.00,10.219, 8.266,18.469, 18.438,18.469c 10.203,0.00, 18.438-8.25, 18.438-18.469C 80.664,129.205, 72.43,120.994, 62.227,120.994z
		 M 62.227,168.877c-10.172,0.00-18.438,8.273-18.438,18.445c0.00,10.164, 8.266,18.414, 18.438,18.414c 10.203,0.00, 18.438-8.25, 18.438-18.414
		C 80.664,177.15, 72.43,168.877, 62.227,168.877z M 62.227,256.986c-10.188,0.00-18.438,8.25-18.438,18.43
		c0.00,10.195, 8.25,18.422, 18.438,18.422c 10.172,0.00, 18.438-8.227, 18.438-18.422C 80.664,265.236, 72.398,256.986, 62.227,256.986z" horiz-adv-x="181"  />
<glyph unicode="&#xe031;" d="M 248.07,116.658c 24.953,22.32, 39.07,53.656, 39.07,87.43c0.00,13.93-2.555,27.234-7.023,39.641
	c 2.992,2.297, 5.711,4.82, 7.945,7.703c 1.234,1.586, 1.68,3.648, 1.227,5.602c-12.992,55.031-53.445,87.875-108.211,87.875
	c-27.375,0.00-55.647-8.539-78.242-23.516c-2.953,1.07-6.266,1.625-9.852,1.625c-17.00,0.00-36.516-12.273-47.461-29.844
	c-7.875-12.633-18.359-39.398-0.055-76.711c 0.766-1.562, 2.109-2.758, 3.742-3.336c 0.984-0.352, 2.008-0.594, 3.047-0.797
	c-0.195-2.734-0.422-5.453-0.422-8.242c0.00-33.773, 14.133-65.109, 39.094-87.43c-48.961-28.133-78.961-79.508-78.961-136.392
	c0.00-9.366, 0.938-19.141, 2.773-29.039c 0.398-2.125, 1.805-3.922, 3.766-4.836c 45.031-20.711, 92.906-31.647, 142.383-32.797
	c0.00,0.00, 17.445-0.069, 22.336,0.133c 47.664,1.773, 93.789,12.656, 137.266,32.648c 1.961,0.891, 3.367,2.703, 3.766,4.836
	c 1.859,10.039, 2.773,19.555, 2.773,29.055C 327.031,37.158, 297.031,88.533, 248.07,116.658z M 311.758-42.975
	c-38.232-17.134-78.57-27.00-120.172-29.595l 16.25,102.392c 0.25,1.609-0.078,3.25-0.953,4.617l-20.922,32.805
	c 5.43,4.164, 8.812,10.711, 8.812,17.797l0.00,11.516 c0.00,3.672-2.977,6.648-6.656,6.648l-31.781,0.00 c-3.672,0.00-6.656-2.977-6.656-6.648l0.00-11.516 
	c0.00-7.086, 3.391-13.609, 8.805-17.797l-20.906-32.805c-0.875-1.367-1.219-3.008-0.961-4.617l 16.312-102.72
	c-43.57,2.031-85.766,12.048-125.695,29.953c-1.297,7.922-1.953,15.72-1.953,23.211c0.00,55.188, 30.852,104.703, 80.516,129.242
	c 2.07,1.023, 3.461,3.048, 3.68,5.345c 0.219,2.305-0.773,4.547-2.625,5.938c-26.50,19.969-41.703,50.328-41.703,83.297
	c0.00,3.281, 0.188,6.492, 0.492,9.695c 18.461,6.719, 37.50,30.445, 44.977,40.586c 16.609-5.852, 72.187-24.125, 118.171-24.125
	c 15.945,0.00, 29.125,2.32, 39.633,6.773c 3.469-10.359, 5.414-21.414, 5.414-32.93c0.00-32.984-15.195-63.336-41.695-83.297
	c-1.844-1.392-2.836-3.633-2.615-5.938c 0.211-2.297, 1.607-4.319, 3.672-5.344c 49.672-24.531, 80.521-74.047, 80.521-129.242
	C 313.719-27.35, 313.078-34.975, 311.758-42.975z" horiz-adv-x="339"  />
<glyph unicode="&#xe032;" d="M 481.031,14.926l-77.328,0.00 c-11.68,37.117-36.836,68.891-71.641,88.883c 7.656,6.859, 14.281,14.695, 19.93,23.32
	c 3.445-0.953, 8.25-1.922, 13.688-1.922c 13.133,0.00, 24.336,5.516, 32.375,15.961c 1.656,2.141, 1.846,5.086, 0.479,7.422
	c-10.461,17.82-15.984,38.047-15.984,58.516c0.00,71.156-57.891,129.055-129.04,129.055c-71.164,0.00-129.055-57.898-129.055-129.055
	c0.00-20.469-5.523-40.695-15.977-58.516c-1.266-2.148-1.211-4.828, 0.117-6.93c 0.938-1.469, 9.82-14.344, 34.789-14.344
	c 3.461,0.00, 7.172,0.352, 10.953,0.858c 5.781-9.03, 12.625-17.227, 20.602-24.366c-34.797-20.00-59.961-51.773-71.633-88.884L 25.97,14.924 
	c-7.742,0.00-14.016-6.288-14.016-14.03c0.00-7.734, 6.273-14.017, 14.016-14.017l 12.312,0.00 l0.00-53.633 c0.00-7.289, 5.906-13.203, 13.211-13.203l 404.023,0.00 
	c 7.297,0.00, 13.203,5.914, 13.203,13.203l0.00,53.633 l 12.312,0.00 c 7.742,0.00, 14.016,6.281, 14.016,14.017
	C 495.047,8.637, 488.773,14.926, 481.031,14.926z M 189.806,96.645c 2.07,1.031, 3.461,3.056, 3.672,5.353
	c 0.219,2.305-0.773,4.547-2.609,5.938c-10.844,8.155-19.805,18.164-26.766,29.694c-0.906,9.258-4.945,64.047, 23.648,78.195
	c 6.539-8.539, 22.727-25.375, 50.258-23.977c 2.086,0.086, 4.016,1.148, 5.188,2.867c 1.188,1.727, 1.50,3.891, 0.844,5.883l-1.117,3.344
	c 11.868-5.367, 28.922-11.758, 43.477-12.156c 2.195,0.062, 4.398,1.023, 5.672,2.898c 1.281,1.867, 1.516,4.258, 0.641,6.328l-2.578,6.133
	c 7.82-5.227, 16.875-9.656, 25.68-10.266c 2.492-0.32, 4.75,1.00, 6.057,3.047l 6.203,9.648c 5.904-6.492, 16.021-24.742, 14.516-72.414
	c-6.93-11.352-15.781-21.211-26.43-29.219c-1.859-1.398-2.854-3.642-2.633-5.945c 0.219-2.297, 1.607-4.32, 3.68-5.352
	c 34.797-17.173, 60.266-46.656, 72.461-81.72l-84.961,0.00 L 304.709,29.52 l 19.25-8.891c 1.594-0.719, 3.258-1.07, 4.891-1.07
	c 4.422,0.00, 8.648,2.508, 10.617,6.781c 2.703,5.859, 0.141,12.805-5.703,15.508l-44.266,20.445
	c-1.307,11.172-10.729,19.906-22.242,19.906c-12.422,0.00-22.508-10.094-22.508-22.508c0.00-12.422, 10.086-22.508, 22.508-22.508
	c 4.646,0.00, 8.969,1.414, 12.555,3.836l 11.594-5.353l0.00-20.742 l-174.07,0.00 C 129.523,49.98, 155.017,79.457, 189.806,96.645z" horiz-adv-x="507"  />
<glyph unicode="&#xe033;" d="M 340.265,219.73 C 348.437,219.73 355.124,213.043 355.124,204.863 L 355.124,160.121 C 355.124,151.949 348.437,145.246 340.265,145.246 L 295.499,145.246 C 287.335,145.246 280.64,151.949 280.64,160.121 L 280.64,204.863 C 280.64,213.042 287.335,219.73 295.499,219.73 L 340.265,219.73 ZM 442.741,10.223l-42.023,41.603c 0.008,0.108, 0.039,0.219, 0.039,0.319L 400.757,249.598 
		c0.00,7.734-6.281,14.016-14.016,14.016L 72.116,263.614 c-7.734,0.00-14.023-6.281-14.023-14.016l0.00-197.454 c0.00-0.102, 0.031-0.211, 0.039-0.319
		L 15.054,9.20c-2.773-2.742-3.617-6.884-2.141-10.478c 1.492-3.608, 5.00-5.969, 8.891-5.969l 415.21,0.00 c 0.07-0.008, 0.142,0.00, 0.142,0.00
		c 5.352,0.00, 9.647,4.312, 9.647,9.617C 446.804,5.613, 445.194,8.488, 442.741,10.223z M 86.139,235.574l 286.579,0.00 l0.00-169.398 L 86.139,66.176 
		L 86.139,235.574 zM 115.819,196.582 C 110.655,196.582 106.467,200.762 106.467,205.934 C 106.467,211.098 110.655,215.27 115.819,215.27 L 249.968,215.27 C 255.14,215.27 259.32,211.098 259.32,205.934 C 259.32,200.762 255.14,196.582 249.968,196.582 L 115.819,196.582 ZM 110.725,179.668 C 108.147,179.668 106.053,181.746 106.053,184.332 C 106.053,186.918 108.147,189.004 110.725,189.004 L 216.295,189.004 C 218.881,189.004 220.959,186.918 220.959,184.332 C 220.959,181.746 218.881,179.668 216.295,179.668 L 110.725,179.668 ZM 349.327,116.645 C 351.913,116.645 354.007,114.559 354.007,111.973 C 354.007,109.387 351.913,107.301 349.327,107.301 L 110.725,107.301 C 108.147,107.301 106.053,109.387 106.053,111.973 C 106.053,114.559 108.147,116.645 110.725,116.645 L 349.327,116.645 ZM 110.725,129.926 C 108.147,129.926 106.053,132.012 106.053,134.598 C 106.053,137.184 108.147,139.27 110.725,139.27 L 255.647,139.27 C 258.225,139.27 260.319,137.184 260.319,134.598 C 260.319,132.012 258.225,129.926 255.647,129.926 L 110.725,129.926 ZM 334.147,94.02 C 336.726,94.02 338.819,91.934 338.819,89.348 C 338.819,86.762 336.724,84.676 334.147,84.676 L 110.725,84.676 C 108.147,84.676 106.053,86.762 106.053,89.348 C 106.053,91.934 108.147,94.02 110.725,94.02 L 334.147,94.02 Z" horiz-adv-x="459"  />
<glyph unicode="&#xe034;" d="M 359.74-1.91 C 370.693-12.863 370.693-30.621 359.74-41.557 C 354.256-47.035 347.084-49.777 339.912-49.777 C 332.74-49.777 325.569-47.035 320.092-41.557 L 230.404,48.123 C 219.459,59.082 219.459,76.832 230.404,87.77 C 241.365,98.731 259.107,98.731 270.058,87.77 L 359.74-1.91 ZM 225.264,92.832c 8.484,8.461, 10.344,20.984, 5.711,31.305c 11.633,18.344, 18.469,40.031, 18.469,63.305
		c0.00,65.445-53.25,118.695-118.703,118.695c-65.445,0.00-118.695-53.25-118.695-118.695s 53.25-118.695, 118.695-118.695
		c 23.266,0.00, 44.922,6.828, 63.257,18.438c 3.643-1.634, 7.539-2.523, 11.469-2.523C 212.623,84.66, 219.787,87.379, 225.264,92.832z
		 M 31.264,187.441c0.00,54.852, 44.625,99.477, 99.477,99.477c 54.859,0.00, 99.476-44.625, 99.476-99.477s-44.616-99.477-99.476-99.477
		C 75.889,87.965, 31.264,132.59, 31.264,187.441zM 206.381,221.246 C 217.068,197.332 215.779,169.48 202.944,146.747 C 201.624,144.426 200.139,142.09 198.577,139.856 C 197.749,138.684 196.444,138.051 195.116,138.051 C 194.272,138.051 193.436,138.309 192.702,138.817 C 190.788,140.145 190.326,142.794 191.655,144.70 C 193.069,146.715 194.39,148.801 195.585,150.895 C 207.116,171.309 208.265,196.317 198.663,217.809 C 193.233,230.02 184.514,240.598 173.459,248.379 C 171.545,249.723 171.092,252.348 172.436,254.254 C 173.78,256.168 176.405,256.621 178.319,255.285 C 190.623,246.621 200.326,234.855 206.381,221.246 Z" horiz-adv-x="380"  />
<glyph unicode="&#xe035;" d="M 65.289,114.582c0.00,3.602, 0.617,7.008, 1.492,10.336c 4.594,17.438, 20.336,30.375, 39.227,30.375
	c 1.469,0.00, 2.859-0.289, 4.297-0.43l-3.195-29.945l-1.102-10.336l 40.273,4.289c 0.148-1.422, 0.445-2.812, 0.445-4.289
	c0.00-22.477-18.234-40.711-40.719-40.711C 83.522,73.871, 65.289,92.105, 65.289,114.582z M 157.172,139.066
	c-3.914,14.859-16.609,25.992-32.258,27.648l-3.969-37.195l 37.203,3.969C 157.945,135.387, 157.656,137.254, 157.172,139.066z
	 M 194.148,153.504l 85.664,0.00 c 5.172,0.00, 9.352,4.18, 9.352,9.344c0.00,5.164-4.18,9.352-9.352,9.352l-85.664,0.00 c-5.164,0.00-9.344-4.188-9.344-9.352
	C 184.805,157.684, 188.984,153.504, 194.148,153.504z M 194.148,120.91l 104.366,0.00 c 5.164,0.00, 9.345,4.18, 9.345,9.344
	c0.00,5.172-4.181,9.344-9.345,9.344L 194.148,139.598 c-5.164,0.00-9.344-4.172-9.344-9.344C 184.805,125.09, 188.984,120.91, 194.148,120.91z
	 M 194.148,88.309l 76.327,0.00 c 5.164,0.00, 9.337,4.181, 9.337,9.336c0.00,5.172-4.173,9.353-9.337,9.353l-76.327,0.00 
	c-5.164,0.00-9.344-4.181-9.344-9.353C 184.805,92.488, 188.984,88.309, 194.148,88.309z M 194.148,55.715l 104.366,0.00 
	c 5.164,0.00, 9.345,4.172, 9.345,9.344c0.00,5.164-4.181,9.353-9.345,9.353L 194.148,74.412 c-5.164,0.00-9.344-4.188-9.344-9.353
	C 184.805,59.887, 188.984,55.715, 194.148,55.715z M 354.828,240.34l0.00-26.867 L 354.828,16.02 c0.00-7.727-6.281-14.016-14.023-14.016L 26.195,2.004 
	c-7.742,0.00-14.023,6.289-14.023,14.016L 12.172,213.473 L 12.172,240.34 c0.00,7.742, 6.281,14.016, 14.023,14.016l 314.609,0.00 
	C 348.547,254.355, 354.828,248.082, 354.828,240.34z M 92.477,225.559c0.00-5.164, 4.172-9.352, 9.336-9.352
	c 5.172,0.00, 9.352,4.188, 9.352,9.352s-4.18,9.336-9.352,9.336C 96.648,234.895, 92.477,230.723, 92.477,225.559z M 67.18,225.559
	c0.00-5.164, 4.188-9.352, 9.344-9.352c 5.164,0.00, 9.352,4.188, 9.352,9.352s-4.188,9.336-9.352,9.336
	C 71.367,234.895, 67.18,230.723, 67.18,225.559z M 41.891,225.559c0.00-5.164, 4.18-9.352, 9.344-9.352s 9.344,4.188, 9.344,9.352
	s-4.18,9.336-9.344,9.336S 41.891,230.723, 41.891,225.559z M 326.789,199.449L 40.219,199.449 l0.00-169.398 l 286.57,0.00 L 326.789,199.449 z" horiz-adv-x="367"  />
<glyph unicode="&#xe036;" d="M 248.07,127.199c 24.953,22.328, 39.086,53.664, 39.086,87.438c0.00,64.875-52.773,117.656-117.648,117.656
	c-64.883,0.00-117.664-52.781-117.664-117.656c0.00-33.773, 14.125-65.109, 39.086-87.438c-48.961-28.125-78.961-79.50-78.961-136.383
	c0.00-9.367, 0.938-19.134, 2.781-29.056c 0.391-2.117, 1.797-3.914, 3.758-4.812c 45.055-20.734, 92.945-31.664, 142.453-32.806l 2.945-0.094
	c 1.867-0.069, 3.734-0.156, 5.617-0.156c 4.398,0.00, 8.797,0.173, 13.703,0.367c 47.656,1.789, 93.789,12.688, 137.273,32.672
	c 1.953,0.898, 3.359,2.695, 3.758,4.812c 1.875,10.07, 2.773,19.57, 2.773,29.069C 327.031,47.715, 297.031,99.082, 248.07,127.199z
	 M 311.766-32.434c-38.232-17.117-78.561-27.00-120.18-29.586l 16.25,102.383c 0.258,1.617-0.078,3.25-0.953,4.633l-20.906,32.805
	c 5.422,4.18, 8.812,10.695, 8.812,17.781l0.00,11.523 c0.00,3.68-2.977,6.655-6.656,6.655l-31.796,0.00 c-3.672,0.00-6.648-2.977-6.648-6.655l0.00-11.523 
	c0.00-7.086, 3.383-13.602, 8.812-17.781l-20.922-32.805c-0.875-1.383-1.203-3.016-0.953-4.633l 16.32-102.72
	c-43.586,2.039-85.781,12.056-125.695,29.938c-1.312,7.953-1.969,15.75-1.969,23.234c0.00,55.18, 30.852,104.694, 80.523,129.242
	c 2.07,1.016, 3.461,3.055, 3.672,5.352c 0.219,2.297-0.773,4.539-2.617,5.922c-26.508,19.969-41.703,50.328-41.703,83.305
	c0.00,57.539, 46.805,104.353, 104.352,104.353c 57.531,0.00, 104.335-46.812, 104.335-104.353c0.00-32.977-15.193-63.336-41.693-83.305
	c-1.854-1.383-2.846-3.625-2.625-5.922c 0.227-2.297, 1.607-4.336, 3.68-5.352c 49.672-24.531, 80.516-74.047, 80.516-129.242
	C 313.719-16.801, 313.086-24.434, 311.766-32.434z" horiz-adv-x="339"  />
<glyph unicode="&#xe037;" d="M 481.02,28.551l-74.781,0.00 c-11.672,37.133-36.828,68.883-71.625,88.875
	c 24.953,22.328, 39.086,53.656, 39.086,87.438c0.00,64.875-52.773,117.656-117.664,117.656c-64.875,0.00-117.647-52.781-117.647-117.656
	c0.00-33.781, 14.125-65.109, 39.086-87.438c-34.789-20.00-59.953-51.758-71.633-88.875L 25.973,28.551 c-7.742,0.00-14.023-6.289-14.023-14.016
	c0.00-7.734, 6.281-14.023, 14.023-14.023L 38.27,0.512 l0.00-53.633 c0.00-7.297, 5.922-13.195, 13.211-13.195l 404.031,0.00 c 7.297,0.00, 13.211,5.898, 13.211,13.195
	l0.00,53.633 l 12.297,0.00 c 7.742,0.00, 14.031,6.289, 14.031,14.023C 495.051,22.262, 488.762,28.551, 481.02,28.551z M 192.339,110.277
	c 2.07,1.022, 3.469,3.047, 3.68,5.352c 0.219,2.297-0.773,4.539-2.617,5.93c-26.508,19.961-41.703,50.32-41.703,83.306
	c0.00,57.531, 46.805,104.344, 104.335,104.344c 57.547,0.00, 104.352-46.812, 104.352-104.344c0.00-32.984-15.193-63.344-41.703-83.306
	c-1.844-1.391-2.836-3.633-2.615-5.93c 0.211-2.305, 1.607-4.328, 3.672-5.352c 34.797-17.18, 60.311-46.664, 72.492-81.728l-87.531,0.00 
	l0.00,14.595 l 19.25-8.883c 1.586-0.728, 3.258-1.078, 4.891-1.078c 4.422,0.00, 8.648,2.516, 10.617,6.78c 2.695,5.867, 0.148,12.82-5.703,15.517
	l-44.266,20.438c-1.305,11.18-10.719,19.906-22.25,19.906c-12.406,0.00-22.509-10.094-22.509-22.508c0.00-12.398, 10.103-22.50, 22.509-22.50
	c 4.648,0.00, 8.977,1.414, 12.561,3.852l 11.596-5.367l0.00-20.75 L 119.848,28.551 C 132.035,63.613, 157.55,93.082, 192.339,110.277z" horiz-adv-x="507"  />
<glyph unicode="&#xe038;" d="M 248.074,127.207c 24.944,22.328, 39.078,53.648, 39.078,87.414c0.00,64.883-52.773,117.68-117.648,117.68
	c-64.883,0.00-117.656-52.797-117.656-117.68c0.00-33.766, 14.125-65.086, 39.078-87.414c-48.953-28.133-78.953-79.516-78.953-136.398
	c0.00-9.366, 0.93-19.133, 2.773-29.047c 0.391-2.117, 1.797-3.922, 3.758-4.819c 45.055-20.734, 92.953-31.673, 142.453-32.806l 2.945-0.086
	c 1.867-0.078, 3.734-0.156, 5.617-0.156c 4.398,0.00, 8.805,0.173, 13.711,0.367c 47.647,1.781, 93.78,12.681, 137.266,32.664
	c 1.961,0.898, 3.367,2.695, 3.758,4.82c 1.875,10.062, 2.773,19.57, 2.773,29.062C 327.027,47.707, 297.027,99.074, 248.074,127.207z
	 M 183.246,144.098c0.00-8.609-6.625-15.234-15.688-15.234c-9.039,0.00-15.664,6.625-15.664,15.234l0.00,2.211 
	c0.00,8.609, 6.625,15.234, 15.664,15.234c 9.062,0.00, 15.688-6.625, 15.688-15.234L 183.246,144.098 z M 223.863,241.238
	c0.00-27.82-20.094-40.406-44.602-44.603l-0.875-10.156c-0.884-4.859-4.414-8.82-9.493-8.82l-1.336,0.00 c-5.07,0.00-8.82,3.75-9.484,8.82
	l-2.211,18.984c-0.875,5.969, 2.656,10.383, 8.617,11.039c 20.758,1.984, 32.234,9.938, 32.234,23.852l0.00,0.438 
	c0.00,12.367-9.50,20.969-25.383,20.969c-11.711,0.00-21.203-4.195-30.039-12.141c-2.203-1.766-5.07-3.086-8.164-3.086
	c-6.844,0.00-12.367,5.523-12.367,12.141c0.00,3.305, 1.336,6.836, 4.414,9.492c 11.703,11.039, 26.492,18.32, 46.806,18.32
	c 30.906,0.00, 51.883-17.228, 51.883-44.812L 223.863,241.238 z" horiz-adv-x="339"  />
<glyph unicode="&#xe039;" d="M 231.32,265.574L 66.727,265.574 c-30.102,0.00-54.711-24.625-54.711-54.734l0.00-164.57 c0.00-30.086, 24.609-54.703, 54.711-54.703
	l 164.594,0.00 c 30.086,0.00, 54.695,24.617, 54.695,54.703L 286.016,210.84 C 286.016,240.949, 261.406,265.574, 231.32,265.574z M 204.664,201.871
	c 0.008,9.75, 7.586,17.336, 17.375,17.375c 9.711,0.00, 17.336-7.633, 17.344-17.352c-0.023-9.773-7.617-17.383-17.391-17.391
	C 212.25,184.504, 204.641,192.121, 204.664,201.871z M 45.656,111.676c-9.477,0.00-17.219,7.734-17.219,17.195s 7.742,17.211, 17.219,17.211
	c 9.484,0.00, 17.25-7.75, 17.25-17.211S 55.141,111.676, 45.656,111.676z M 93.391,55.855c-0.023-9.742-7.633-17.353-17.375-17.353
	c-9.758,0.00-17.359,7.608-17.359,17.375c 0.016,9.72, 7.602,17.32, 17.352,17.367C 85.735,73.223, 93.36,65.598, 93.391,55.855z
	 M 93.391,201.871c-0.023-9.758-7.633-17.367-17.375-17.359c-9.734-0.008-17.344,7.609-17.344,17.359
	c0.00,9.742, 7.609,17.336, 17.367,17.359C 85.758,219.207, 93.367,211.598, 93.391,201.871z M 129.438,92.27
	c 0.039-9.733-7.266-17.062-17.062-17.062c-9.703,0.017-17.016,7.353-17.039,17.039c 0.023,9.766, 7.336,17.078, 17.07,17.069
	C 122.125,109.324, 129.461,102.012, 129.438,92.27z M 129.461,165.457c0.00-9.727-7.32-17.039-17.047-17.062
	c-9.758,0.047-17.023,7.312-17.07,17.062c 0.016,9.766, 7.336,17.094, 17.07,17.047C 122.195,182.496, 129.461,175.223, 129.461,165.457z
	 M 148.985,8.301c-9.438,0.00-17.18,7.766-17.18,17.242c0.00,9.422, 7.742,17.203, 17.18,17.203c 9.508,0.00, 17.258-7.781, 17.258-17.203
	C 166.242,16.066, 158.492,8.301, 148.985,8.301z M 166.07,128.887c 0.023-9.772-7.281-17.062-17.062-17.062
	c-9.719-0.031-17.031,7.289-17.031,17.047c0.00,9.734, 7.312,17.062, 17.055,17.062C 158.789,145.934, 166.102,138.605, 166.07,128.887z
	 M 148.985,214.996c-9.438,0.00-17.18,7.773-17.18,17.234c0.00,9.469, 7.742,17.227, 17.18,17.227c 9.508,0.00, 17.258-7.758, 17.258-17.227
	C 166.242,222.77, 158.492,214.996, 148.985,214.996z M 202.672,92.301c0.00-9.766-7.312-17.094-17.078-17.078
	c-9.719-0.016-17.047,7.312-17.039,17.047c0.00,9.734, 7.32,17.047, 17.07,17.07C 195.336,109.324, 202.664,102.012, 202.672,92.301z
	 M 202.711,165.48c-0.039-9.75-7.352-17.062-17.086-17.086c-9.75,0.031-17.031,7.305-17.047,17.062
	c-0.023,9.766, 7.297,17.094, 17.062,17.094C 195.406,182.496, 202.672,175.223, 202.711,165.48z M 239.383,55.879
	c-0.031-9.766-7.633-17.344-17.391-17.375c-9.742,0.00-17.359,7.609-17.375,17.375c 0.047,9.742, 7.633,17.344, 17.375,17.367
	C 231.75,73.223, 239.352,65.621, 239.383,55.879z M 252.375,111.676c-9.492,0.00-17.219,7.734-17.219,17.195
	s 7.727,17.211, 17.219,17.211c 9.477,0.00, 17.227-7.75, 17.227-17.211S 261.852,111.676, 252.375,111.676z M 632.82,120.988l-0.22-2.914
	c-5.366-68.867-65.344-110.469-122.18-110.469l-0.07,0.00 c-69.069,0.022-124.039,55.858-124.102,119.819
	c 0.133,60.164, 49.789,119.805, 123.805,119.805c 61.273-0.117, 100.164-41.875, 109.523-65.922l 1.453-3.727l-31.859,0.00 l-0.789,1.375
	c-12.32,21.422-41.516,42.391-78.031,42.328c-55.608-0.078-95.991-45.203-95.991-94.164c 0.022-48.931, 40.336-93.461, 96.93-93.539
	c 44.797-0.086, 78.562,32.094, 87.766,61.469L 473.688,95.049 l0.00,25.938 L 632.82,120.987 L 632.82,120.988z M 691.867,242.426l0.00-231.297 l-28.062,0.00 L 663.805,242.426 
	L 691.867,242.426 z M 968.438,120.988l-0.219-2.914c-5.367-68.867-65.352-110.469-122.188-110.445l-0.056,0.00 
	c-69.062,0.00-124.086,55.836-124.108,119.797C 722.00,187.582, 771.656,247.207, 845.64,247.254c 61.306-0.141, 100.172-41.922, 109.556-65.945
	l 1.444-3.727l-31.883,0.00 l-0.789,1.375c-12.289,21.422-41.483,42.391-77.992,42.328c-55.616-0.078-96.00-45.203-96.00-94.164
	c0.00-48.93, 40.336-93.461, 96.898-93.539c 44.828-0.086, 78.57,32.094, 87.797,61.469L 809.305,95.051 l0.00,25.938 L 968.438,120.989 L 968.438,120.988z
	 M 1234.188,11.129l-28.133,0.00 l0.00,41.93 l-0.852,0.00 c-25.017-37.516-65.017-45.453-88.797-45.453c-71.673,0.00-122.523,54.617-122.523,120.062
	c0.00,60.867, 47.922,119.242, 122.523,119.242c 24.594,0.00, 64.608-7.945, 88.797-45.891l 0.852,0.00 l0.00,41.406 l 28.133,0.00 L 1234.188,11.129 z M 1116.406,33.879
	c 49.194,0.00, 91.28,39.602, 91.28,92.969c0.00,50.023-38.733,93.781-91.28,93.781c-50.00,0.00-93.353-36.266-93.353-94.188
	C 1023.055,75.574, 1060.57,33.879, 1116.406,33.879z M 1389.102,247.254c-61.562-0.141-122.219-48.18-122.25-121.039
	c 0.07-65.25, 56.603-118.555, 122.25-118.586c 64.719,0.117, 122.517,51.539, 122.57,119.797
	C 1511.656,195.699, 1454.086,247.113, 1389.102,247.254z M 1483.57,127.121c-0.087-52.211-43.688-93.461-94.47-93.562
	c-51.03,0.103-94.047,42.586-94.133,92.656c 0.086,54.68, 44.586,95.07, 94.133,95.07
	C 1441.07,221.207, 1483.484,178.457, 1483.57,127.121z M 1568.805,215.02c 12.853,20.328, 35.234,31.938, 61.766,31.938
	c 32.75,0.00, 60.548-15.766, 76.298-43.531c 17.852,28.586, 43.952,43.531, 76.319,43.531c 53.461,0.00, 90.797-37.328, 90.797-97.867L 1873.985,11.13 
	l-29.03,0.00 L 1844.955,145.793 c0.00,48.477-23.22,75.031-61.767,75.031c-38.586,0.00-61.805-26.555-61.805-75.031l0.00-134.664 l-29.00,0.00 L 1692.383,145.793 
	c0.00,48.477-23.234,75.031-61.812,75.031c-38.555,0.00-61.766-26.555-61.766-75.031l0.00-134.664 l-29.016,0.00 L 1539.789,242.426 l 29.016,0.00 L 1568.805,215.02 
	L 1568.805,215.02z" horiz-adv-x="1886"  />
<glyph unicode="&#xe040;" d="M 230.125,264.629L 66.43,264.629 c-29.938,0.00-54.43-24.484-54.43-54.438l0.00-163.703 c0.00-29.914, 24.492-54.406, 54.43-54.406
	l 163.695,0.00 c 29.938,0.00, 54.43,24.492, 54.43,54.406L 284.555,210.191 C 284.555,240.145, 260.063,264.629, 230.125,264.629z M 203.625,201.262
	c0.00,9.703, 7.562,17.273, 17.281,17.297c 9.656-0.016, 17.25-7.594, 17.266-17.266c-0.037-9.719-7.586-17.281-17.305-17.297
	C 211.188,183.996, 203.61,191.574, 203.625,201.262z M 45.477,111.559c-9.422,0.00-17.125,7.681-17.125,17.103
	c0.00,9.406, 7.703,17.109, 17.125,17.109c 9.445,0.00, 17.148-7.703, 17.148-17.109C 62.626,119.238, 54.923,111.559, 45.477,111.559z
	 M 92.954,56.035c-0.016-9.695-7.578-17.242-17.289-17.242c-9.695,0.00-17.258,7.562-17.258,17.258
	c 0.016,9.672, 7.562,17.242, 17.25,17.281C 85.344,73.301, 92.923,65.723, 92.954,56.035z M 92.954,201.27
	c-0.016-9.711-7.578-17.273-17.289-17.266c-9.672-0.008-17.242,7.57-17.242,17.266c0.00,9.68, 7.57,17.25, 17.266,17.266
	C 85.352,218.535, 92.938,210.949, 92.954,201.27z M 128.813,92.254c 0.031-9.688-7.242-16.969-16.969-16.969
	c-9.664,0.023-16.945,7.305-16.969,16.953c 0.023,9.703, 7.305,16.984, 16.977,16.969C 121.548,109.223, 128.837,101.941, 128.813,92.254
	z M 128.837,165.051c0.00-9.664-7.281-16.945-16.977-16.977c-9.68,0.047-16.906,7.273-16.961,16.977
	c 0.016,9.695, 7.289,16.984, 16.961,16.961C 121.602,181.996, 128.837,174.746, 128.837,165.051z M 148.274,8.715
	c-9.414,0.00-17.117,7.727-17.117,17.148c0.00,9.406, 7.703,17.109, 17.117,17.109c 9.437,0.00, 17.148-7.703, 17.148-17.109
	C 165.422,16.441, 157.711,8.715, 148.274,8.715z M 165.242,128.676c 0.016-9.711-7.266-16.984-16.968-16.977
	c-9.672-0.023-16.953,7.258-16.953,16.961c0.00,9.695, 7.281,16.969, 16.969,16.969C 157.979,145.629, 165.258,138.348, 165.242,128.676z
	 M 148.274,214.34c-9.414,0.00-17.117,7.711-17.117,17.117c0.00,9.422, 7.703,17.133, 17.117,17.133c 9.437,0.00, 17.148-7.711, 17.148-17.133
	C 165.422,222.051, 157.711,214.34, 148.274,214.34z M 201.664,92.27c0.00-9.703-7.289-16.983-16.992-16.961
	c-9.68-0.022-16.969,7.273-16.961,16.945c0.00,9.68, 7.281,16.961, 16.984,16.977C 194.36,109.223, 201.617,101.941, 201.664,92.27z
	 M 201.68,165.074c-0.016-9.688-7.305-16.969-16.977-16.984c-9.711,0.023-16.961,7.25-16.969,16.969
	c-0.023,9.688, 7.258,16.977, 16.977,16.977C 194.414,182.004, 201.664,174.762, 201.68,165.074z M 238.172,56.051
	c-0.037-9.711-7.586-17.258-17.305-17.289c-9.695,0.031-17.271,7.594-17.289,17.289c 0.047,9.695, 7.609,17.25, 17.289,17.305
	C 230.563,73.316, 238.133,65.746, 238.172,56.051z M 251.078,111.559c-9.422,0.00-17.133,7.681-17.133,17.103
	c0.00,9.406, 7.711,17.109, 17.133,17.109s 17.164-7.703, 17.164-17.109C 268.242,119.238, 260.50,111.559, 251.078,111.559z" horiz-adv-x="296"  />
<glyph unicode="&#xe041;" d="M 186.173,264.988L 55.376,264.988 c-23.922,0.00-43.484-19.57-43.484-43.477l0.00-130.797 c0.00-23.914, 19.562-43.483, 43.484-43.483l 130.796,0.00 
	c 23.922,0.00, 43.492,19.569, 43.492,43.483L 229.664,221.512 C 229.665,245.418, 210.095,264.988, 186.173,264.988z M 178.798,228.168
	c 7.742-0.008, 13.797-6.062, 13.789-13.789c0.00-7.758-6.047-13.805-13.797-13.805c-7.734-0.008-13.789,6.047-13.789,13.789
	C 165.001,222.113, 171.048,228.16, 178.798,228.168z M 62.774,228.168c 7.742,0.00, 13.789-6.055, 13.781-13.789
	c0.00-7.766-6.047-13.805-13.789-13.797c-7.75-0.023-13.812,6.031-13.781,13.789C 48.971,222.105, 55.018,228.152, 62.774,228.168z
	 M 38.626,142.684c-7.531,0.00-13.695,6.148-13.695,13.672s 6.164,13.68, 13.695,13.68c 7.547,0.00, 13.703-6.156, 13.703-13.68
	S 46.173,142.684, 38.626,142.684z M 62.783,84.535c-7.766,0.00-13.828,6.055-13.812,13.812c 0.016,7.719, 6.047,13.766, 13.805,13.787
	c 7.734,0.00, 13.789-6.055, 13.797-13.805C 76.548,90.59, 70.509,84.543, 62.783,84.535z M 91.673,113.707
	c-7.727-0.008-13.539,5.812-13.539,13.547c0.00,7.742, 5.812,13.562, 13.539,13.539c 7.758,0.023, 13.578-5.797, 13.547-13.539
	C 105.268,119.52, 99.432,113.699, 91.673,113.707z M 91.696,171.871c-7.75,0.016-13.539,5.812-13.57,13.57
	c 0.008,7.742, 5.828,13.562, 13.547,13.547c 7.781-0.008, 13.578-5.805, 13.562-13.57C 105.251,177.707, 99.423,171.887, 91.696,171.871z
	 M 120.759,60.535c-7.508,0.00-13.672,6.141-13.672,13.672c0.00,7.516, 6.164,13.68, 13.672,13.68c 7.546,0.00, 13.71-6.164, 13.71-13.68
	C 134.47,66.676, 128.306,60.535, 120.759,60.535z M 107.221,156.363c0.00,7.734, 5.82,13.539, 13.554,13.547
	c 7.767-0.016, 13.562-5.812, 13.546-13.547c 0.01-7.758-5.797-13.562-13.546-13.547C 113.041,142.793, 107.235,148.582, 107.221,156.363z
	 M 120.759,224.809c-7.508,0.00-13.672,6.164-13.672,13.688s 6.164,13.68, 13.672,13.68c 7.546,0.00, 13.71-6.156, 13.71-13.68
	S 128.306,224.809, 120.759,224.809z M 149.845,113.723c-7.719-0.021-13.539,5.797-13.539,13.539
	c-0.008,7.734, 5.82,13.555, 13.57,13.555c 7.719-0.008, 13.539-5.82, 13.539-13.547C 163.415,119.512, 157.61,113.691, 149.845,113.723z
	 M 149.876,171.879c-7.75,0.008-13.547,5.805-13.57,13.562c0.00,7.734, 5.82,13.555, 13.57,13.562c 7.742-0.031, 13.539-5.828, 13.562-13.562
	C 163.415,177.699, 157.595,171.887, 149.876,171.879z M 178.798,84.535c-7.75,0.008-13.805,6.062-13.805,13.797
	c 0.008,7.734, 6.055,13.781, 13.797,13.812c 7.742-0.018, 13.797-6.07, 13.82-13.812C 192.571,90.59, 186.532,84.551, 178.798,84.535z
	 M 202.915,142.684c-7.531,0.00-13.695,6.148-13.695,13.672s 6.164,13.68, 13.695,13.68s 13.703-6.156, 13.703-13.68
	S 210.446,142.684, 202.915,142.684z M 22.893,7.762l 23.453,0.00 l-0.031-0.43c-0.789-10.148-9.633-16.281-18.016-16.281l-0.008,0.00 
	c-10.18,0.00-18.281,8.234-18.289,17.656c 0.016,8.867, 7.336,17.656, 18.25,17.656c 9.031-0.016, 14.766-6.172, 16.141-9.719l 0.203-0.547
	l-4.68,0.00 l-0.117,0.211c-1.812,3.154-6.125,6.24-11.508,6.232c-8.195-0.008-14.148-6.664-14.148-13.896
	c0.00-7.195, 5.938-13.768, 14.289-13.768c 6.602-0.018, 11.578,4.729, 12.938,9.057L 22.893,3.933 L 22.893,7.762 L 22.893,7.762z M 50.908,25.645l 4.141,0.00 
	l0.00-34.078 l-4.141,0.00 L 50.908,25.645 z M 72.36,7.762l 23.446,0.00 l-0.023-0.43c-0.797-10.148-9.633-16.281-18.016-16.281
	c-10.188,0.00-18.297,8.234-18.305,17.656c 0.031,8.867, 7.352,17.656, 18.25,17.656c 9.047-0.016, 14.773-6.172, 16.156-9.719l 0.195-0.547
	l-4.68,0.00 l-0.133,0.211c-1.805,3.154-6.102,6.24-11.484,6.232c-8.195-0.008-14.156-6.664-14.156-13.896
	c0.00-7.195, 5.945-13.758, 14.289-13.768c 6.602-0.018, 11.586,4.729, 12.922,9.057L 72.36,3.933 L 72.36,7.762 L 72.36,7.762z M 130.837,19.559l-0.117,0.00 
	c-3.57,5.586-9.468,6.758-13.093,6.758c-11.00,0.00-18.07-8.607-18.07-17.578c0.00-9.641, 7.50-17.688, 18.07-17.688
	c 3.508,0.00, 9.398,1.164, 13.093,6.695l 0.117,0.00 l0.00-6.18 l 4.148,0.00 l0.00,34.078 l-4.148,0.00 L 130.837,19.559 z M 117.626-5.082c-8.234,0.00-13.758,6.148-13.758,13.648
	c0.00,8.531, 6.391,13.883, 13.758,13.883c 7.742,0.00, 13.453-6.453, 13.453-13.82C 131.079,0.746, 124.876-5.082, 117.626-5.082z
	 M 157.821,26.363c-9.078-0.016-18.016-7.094-18.016-17.828c 0.008-9.617, 8.326-17.484, 18.016-17.484
	c 9.547,0.016, 18.055,7.586, 18.062,17.656C 175.876,18.785, 167.399,26.348, 157.821,26.363z M 157.821-5.121
	c-7.523,0.00-13.859,6.281-13.883,13.656c 0.021,8.047, 6.586,14.008, 13.883,14.008c 7.664-0.008, 13.914-6.312, 13.922-13.898
	C 171.735,0.965, 165.306-5.113, 157.821-5.121z M 184.306,21.613L 184.306,21.613L 184.306,21.613L 184.306,21.613z
	 M 229.29,11.895l0.00-20.328 l-4.273,0.00 L 225.017,11.41 c0.00,7.156-3.43,11.062-9.107,11.062c-5.695,0.00-9.109-3.906-9.109-11.062l0.00-19.844 l-4.281,0.00 L 202.52,11.41 
	c0.00,7.156-3.43,11.062-9.102,11.062c-5.68,0.00-9.109-3.906-9.109-11.062l0.00-19.844 l-4.271,0.00 l0.00,34.078 l 4.271,0.00 l0.00-4.03 l0.00-0.001 l0.00,0.00l0.00,0.001 
	c 1.893,2.999, 5.195,4.71, 9.109,4.71c 4.828,0.00, 8.914-2.328, 11.242-6.43c 2.625,4.227, 6.482,6.43, 11.25,6.43
	C 223.79,26.324, 229.29,20.832, 229.29,11.895z" horiz-adv-x="241"  />
<glyph unicode="&#xe042;" d="M 227.289,262.434L 65.703,262.434 C 36.172,262.434, 12.00,238.262, 12.00,208.746l0.00-161.602 c0.00-29.519, 24.172-53.683, 53.703-53.683l 161.586,0.00 
	c 29.531,0.00, 53.695,24.164, 53.695,53.683L 280.984,208.746 C 280.985,238.262, 256.821,262.434, 227.289,262.434z M 218.14,216.973
	c 9.586,0.016, 17.062-7.453, 17.055-17.062c-0.016-9.555-7.50-17.039-17.031-17.023c-9.586,0.00-17.055,7.484-17.055,17.055
	C 201.086,209.488, 208.571,216.973, 218.14,216.973z M 74.812,216.957c 9.603,0.016, 17.062-7.438, 17.047-17.031
	c-0.016-9.57-7.50-17.055-17.031-17.039c-9.578,0.023-17.031,7.469-17.039,17.039C 57.765,209.473, 65.25,216.957, 74.812,216.957z
	 M 45.008,111.348c-9.289,0.00-16.883,7.633-16.883,16.914c0.00,9.305, 7.594,16.906, 16.883,16.906c 9.336,0.00, 16.945-7.602, 16.945-16.906
	C 61.953,118.98, 54.344,111.348, 45.008,111.348z M 74.797,39.52c-9.531,0.058-17.00,7.50-17.031,17.039
	c 0.047,9.617, 7.50,17.062, 17.078,17.104c 9.57-0.022, 17.016-7.484, 17.055-17.058C 91.86,47.02, 84.414,39.574, 74.797,39.52z
	 M 110.547,180.941c 9.578,0.00, 16.766-7.188, 16.75-16.75c-0.016-9.586-7.164-16.734-16.758-16.75c-9.539,0.00-16.734,7.18-16.742,16.734
	C 93.828,173.754, 100.976,180.926, 110.547,180.941z M 110.562,75.574c-9.578-0.016-16.766,7.164-16.75,16.75
	c 0.017,9.562, 7.203,16.75, 16.758,16.766c 9.539-0.031, 16.734-7.219, 16.742-16.75C 127.312,82.77, 120.14,75.59, 110.562,75.574z
	 M 146.469,9.895c-9.281,0.00-16.883,7.604-16.883,16.906c0.00,9.281, 7.602,16.883, 16.883,16.883c 9.328,0.00, 16.938-7.602, 16.938-16.883
	C 163.406,17.496, 155.797,9.895, 146.469,9.895z M 129.75,128.246c0.00,9.578, 7.18,16.75, 16.75,16.75
	c 9.562,0.00, 16.727-7.164, 16.727-16.734c 0.023-9.579-7.164-16.758-16.742-16.75C 136.914,111.512, 129.75,118.684, 129.75,128.246z
	 M 146.469,212.801c-9.281,0.00-16.883,7.617-16.883,16.93c0.00,9.281, 7.602,16.883, 16.883,16.883c 9.328,0.00, 16.938-7.604, 16.938-16.883
	C 163.406,220.418, 155.797,212.801, 146.469,212.801z M 182.414,180.941c 9.562,0.00, 16.75-7.188, 16.772-16.781
	c-0.039-9.555-7.188-16.703-16.758-16.75c-9.586,0.031-16.766,7.211-16.766,16.766C 165.68,173.77, 172.828,180.926, 182.414,180.941z
	 M 182.446,75.559c-9.602,0.019-16.781,7.195-16.766,16.769c 0.008,9.586, 7.18,16.766, 16.758,16.766
	c 9.539-0.016, 16.728-7.202, 16.773-16.778C 199.18,82.77, 192.008,75.59, 182.446,75.559z M 218.133,39.504
	c-9.539,0.055-17.023,7.516-17.055,17.055c 0.055,9.617, 7.50,17.062, 17.094,17.078c 9.555,0.00, 17.023-7.477, 17.055-17.047
	C 235.188,47.004, 227.735,39.559, 218.133,39.504z M 247.969,111.348c-9.328,0.00-16.93,7.633-16.93,16.914
	c0.00,9.305, 7.602,16.906, 16.93,16.906c 9.289,0.00, 16.922-7.602, 16.922-16.906C 264.891,118.98, 257.258,111.348, 247.969,111.348z
	 M 621.281,120.566l-0.229-2.898c-5.266-67.57-64.125-108.406-119.93-108.406l-0.039,0.00 c-67.781,0.07-121.766,54.854-121.797,117.617
	c 0.133,59.039, 48.853,117.57, 121.50,117.586c 60.148-0.117, 98.289-41.133, 107.484-64.719l 1.43-3.664l-31.266,0.00 l-0.781,1.367
	c-12.086,21.031-40.734,41.562-76.57,41.547c-54.562-0.117-94.211-44.367-94.211-92.43c 0.017-48.00, 39.578-91.719, 95.125-91.781
	c 43.984-0.086, 77.104,31.516, 86.143,60.328L 465.093,95.113 l0.00,25.453 L 621.281,120.566 z M 679.25,239.746l0.00-226.984 l-27.57,0.00 L 651.68,239.746 L 679.25,239.746 z
	 M 950.672,120.566l-0.219-2.898c-5.281-67.57-64.133-108.406-119.93-108.352l-0.057,0.00 c-67.797,0.016-121.758,54.797-121.797,117.562
	c 0.117,59.039, 48.859,117.57, 121.50,117.586c 60.134-0.117, 98.281-41.133, 107.484-64.719l 1.43-3.648l-31.28,0.00 l-0.772,1.336
	c-12.078,21.047-40.728,41.578-76.562,41.562c-54.576-0.117-94.211-44.398-94.211-92.431c 0.01-48.018, 39.578-91.688, 95.096-91.78
	c 44.00-0.086, 77.115,31.516, 86.154,60.327L 794.485,95.111 l0.00,25.453 l 156.187,0.00 L 950.672,120.566 z M 1211.469,12.762l-27.608,0.00 l0.00,41.133 l-0.836,0.00 
	c-24.557-36.828-63.807-44.633-87.125-44.633c-70.375,0.00-120.273,53.617-120.273,117.854c0.00,59.719, 47.055,117.00, 120.273,117.00
	c 24.125,0.00, 63.391-7.766, 87.125-45.00l 0.836,0.00 l0.00,40.633 l 27.607,0.00 L 1211.469,12.762L 1211.469,12.762z M 1095.899,35.082
	c 48.271,0.00, 89.586,38.867, 89.586,91.219c0.00,49.062-38.057,92.047-89.586,92.047c-49.109,0.00-91.643-35.602-91.643-92.43
	C 1004.258,75.996, 1041.071,35.082, 1095.899,35.082z M 1363.508,244.465c-60.422-0.117-119.943-47.25-119.982-118.766
	c 0.055-64.031, 55.547-116.367, 119.982-116.383c 63.531,0.102, 120.268,50.562, 120.297,117.562
	C 1483.789,193.879, 1427.305,244.348, 1363.508,244.465z M 1456.234,126.566c-0.108-51.234-42.883-91.688-92.729-91.781
	c-50.068,0.062-92.305,41.766-92.396,90.914c 0.094,53.664, 43.766,93.281, 92.396,93.297
	C 1414.523,218.879, 1456.125,176.98, 1456.234,126.566z M 1539.891,212.832c 12.594,19.953, 34.576,31.336, 60.615,31.336
	c 32.135,0.00, 59.414-15.469, 74.885-42.703c 17.50,28.086, 43.133,42.703, 74.883,42.703c 52.482,0.00, 89.117-36.602, 89.117-96.023l0.00-135.383 
	l-28.50,0.00 L 1810.891,144.879 c0.00,47.633-22.789,73.633-60.617,73.633c-37.866,0.00-60.633-26.00-60.633-73.633l0.00-132.117 l-28.483,0.00 L 1661.158,144.879 
	c0.00,47.633-22.806,73.633-60.648,73.633c-37.852,0.00-60.615-26.00-60.615-73.633l0.00-132.117 l-28.518,0.00 L 1511.377,239.746 l 28.518,0.00 L 1539.891,212.832
	L 1539.891,212.832z M 2571.141,166.996c 0.193,0.00, 0.404,0.016, 0.615,0.047l0.00-0.086 l 28.26,0.00 l 25.318,0.008l-83.076,83.477l0.00-54.359 
	C 2542.258,180.012, 2555.172,166.996, 2571.141,166.996z M 2066.891,177.754l-18.768,0.00 l0.00-45.742 l 18.479,0.00 
	c 17.568,0.00, 29.306,7.922, 29.306,22.594l0.00,0.578 C 2095.906,170.121, 2085.062,177.754, 2066.891,177.754z M 2641.289,106.223l0.00,35.104 
	c0.00,6.414-2.354,12.211-6.117,16.805l-41.203,0.00 c 2.479-9.008, 3.906-18.445, 3.906-28.234c0.00-58.969-47.82-106.773-106.805-106.773
	c-58.97,0.00-106.768,47.805-106.768,106.773c0.00,58.977, 47.798,106.781, 106.768,106.781c 14.688,0.00, 28.663-2.961, 41.396-8.328l0.00,31.078 
	c-3.767,2.023-7.983,3.281-12.556,3.273l-39.728,0.00 l0.00,0.031 l-505.469,0.00 c-26.771,0.00-48.521-21.766-48.521-48.531l0.00-172.062 
	c0.00-26.76, 21.75-48.539, 48.521-48.539l 618.062,0.00 c 26.771,0.00, 48.539,21.779, 48.539,48.539l0.00,64.086 l-0.031,0.00 l0.00-0.002 l 0.004,0.00 L 2641.287,106.223 z
	 M 2163.625,158.996c0.00-49.547-37.82-75.922-93.232-75.922l-22.268,0.00 l0.00-55.695 l-68.603,0.00 L 1979.522,232.574 l 92.353,0.00 c 54.518,0.00, 91.75-24.336, 91.75-72.992
	L 2163.625,158.996 z M 2300.484,27.379l-38.694,58.609l-14.656,0.00 l0.00-58.609 l-68.594,0.00 L 2178.54,232.574 l 100.241,0.00 c 36.357,0.00, 59.521-9.102, 73.875-23.461
	c 12.312-12.305, 18.767-27.555, 18.767-48.664l0.00-0.586 c0.00-29.891-15.547-50.703-40.452-62.734l 47.789-69.75L 2300.484,27.379 z M 2277.023,175.113
	l-29.893,0.00 l0.00-40.156 l 29.586,0.00 c 16.432,0.00, 26.385,7.312, 26.385,19.93l0.00,0.586 C 2303.102,168.676, 2292.859,175.113, 2277.023,175.113z
	 M 2491.07,175.605c-25.18,0.00-45.694-20.508-45.694-45.711c0.00-25.195, 20.517-45.71, 45.694-45.71c 25.22,0.00, 45.72,20.518, 45.72,45.71
	C 2536.789,155.098, 2516.289,175.605, 2491.07,175.605z" horiz-adv-x="2653"  />
<glyph unicode="&#xe043;" d="M 665.969,167.426c 0.195,0.00, 0.391,0.00, 0.57,0.023l0.00-0.062 l 54.318,0.00 l-84.203,84.617l0.00-55.133 
	C 636.656,180.598, 649.742,167.426, 665.969,167.426z M 154.656,178.34L 135.64,178.34 l0.00-46.391 l 18.719,0.00 c 17.844,0.00, 29.758,8.016, 29.758,22.914
	l0.00,0.562 C 184.117,170.582, 173.117,178.34, 154.656,178.34z M 737.086,141.379c0.00,6.492-2.367,12.383-6.23,17.039l-41.73,0.00 
	c 2.449-9.125, 3.938-18.719, 3.938-28.602c0.00-59.828-48.477-108.273-108.328-108.273c-59.732,0.00-108.25,48.445-108.25,108.273
	c0.00,59.781, 48.518,108.219, 108.25,108.219c 14.867,0.00, 29.104-2.961, 42.031-8.406l0.00,31.508 c-3.867,2.039-8.117,3.305-12.773,3.305L 61.242,264.442 
	C 34.117,264.442, 12.00,242.426, 12.00,215.27l0.00-174.43 c0.00-27.164, 22.117-49.273, 49.242-49.273l 626.648,0.00 c 27.102,0.00, 49.227,22.109, 49.227,49.273
	L 737.086,141.379z M 252.757,159.262c0.00-50.211-38.359-76.945-94.509-76.945L 135.64,82.317 l0.00-56.469 L 66.117,25.848 L 66.117,233.895 l 93.602,0.00 
	c 55.305,0.00, 93.039-24.648, 93.039-74.008L 252.757,159.262L 252.757,159.262z M 391.508,25.848l-39.165,59.438l-14.933,0.00 l0.00-59.438 l-69.553,0.00 
	L 267.857,233.895 L 369.53,233.895 c 36.867,0.00, 60.32-9.25, 74.921-23.773c 12.453-12.484, 18.98-27.922, 18.98-49.367l0.00-0.562 
	c0.00-30.328-15.695-51.391-41.018-63.625l 48.479-70.719l-79.385,0.00 L 391.507,25.848 L 391.508,25.848z M 367.765,175.66l-30.354,0.00 l0.00-40.742 l 30.049,0.00 
	c 16.615,0.00, 26.72,7.453, 26.72,20.242l0.00,0.57 C 394.18,169.129, 383.781,175.66, 367.765,175.66z M 584.734,176.16
	c-25.516,0.00-46.328-20.828-46.328-46.344c0.00-25.57, 20.812-46.375, 46.328-46.375c 25.547,0.00, 46.359,20.805, 46.359,46.375
	C 631.094,155.332, 610.281,176.16, 584.734,176.16z" horiz-adv-x="749"  />
<glyph unicode="&#xe044;" d="M 50.374,78.186c 21.192,0.00, 38.373-17.367, 38.373-38.791c0.00-21.422-17.18-38.791-38.373-38.791
	c-21.193,0.00-38.373,17.369-38.373,38.791C 12.001,60.818, 29.18,78.186, 50.374,78.186z M 197.467,0.604l-54.363,0.00 
	c0.00,73.201-58.699,132.542-131.104,132.542l0.00,0.00L 12.00,188.10 C 114.434,188.099, 197.467,104.156, 197.467,0.604z M 235.842,0.604
	c0.00,124.979-100.216,226.292-223.842,226.292l0.00,56.573 c 154.527,0.00, 279.801-126.643, 279.801-282.86l-55.959,0.00 L 235.842,0.604 L 235.842,0.604z" horiz-adv-x="303"  />
<glyph unicode="&#xe045;" d="M 12.00,115.852l 55.564,0.00 L 67.564,171.43 l 29.871,0.00 l0.00-55.579 l 55.576,0.00 l0.00-29.871 L 97.436,85.98 l0.00-55.574 L 67.564,30.406 L 67.564,85.98 L 12.00,85.98 L 12.00,115.852 z M 256.333,30.404l-42.162,0.00 
	l 26.818,126.767l-47.753,0.00 l 6.425,29.871c 29.318,1.413, 51.361,8.368, 65.615,38.84l 32.40,0.00 L 256.333,30.404z" horiz-adv-x="309"  />
<glyph unicode="&#xe046;" d="M 138.014,130.438L 12.002,199.575l0.00,35.643 l 250.914,0.00 l0.00-35.856 L 138.014,130.438z M 138.198,89.913l 124.717,69.117l0.00-143.388 L 12.00,15.642 
	L 12.00,159.03 L 138.198,89.913z" horiz-adv-x="274"  />
<glyph unicode="&#xe047;" d="M 37.958,118.209c0.00,20.089-3.77,23.013-25.958,23.013l0.00,7.115 l 47.298,4.608l 7.116,0.00 l0.00-25.113 
	c 18.836,18.417, 32.645,25.113, 51.483,25.113c 38.502,0.00, 66.967-33.062, 66.967-77.434c0.00-45.619-31.393-79.521-73.663-79.521
	c-15.902,0.00-28.039,4.603-44.787,17.581l0.00-97.512 c0.00-17.996, 3.766-24.695, 24.699-24.695l0.00-7.115 L 12.00-115.751 l0.00,7.115 
	c 20.091,0.00, 25.958,4.179, 25.958,20.508L 37.958,118.209 z M 66.414,24.039c 10.881-11.298, 26.784-18.414, 41.021-18.414
	c 26.364,0.00, 46.453,28.04, 46.453,64.866c0.00,39.767-19.669,68.646-47.299,68.646c-15.066,0.00-26.368-6.276-40.176-22.183L 66.414,24.039
	L 66.414,24.039z M 309.579,34.92c0.00-17.161, 1.675-23.009, 8.371-23.009c 4.604,0.00, 6.691,3.767, 10.046,14.231l 7.115,0.00 
	c-1.26-18.427-12.141-30.145-28.88-30.145c-12.556,0.00-20.088,6.275-25.111,20.924c-14.647-15.906-24.273-20.924-39.757-20.924
	c-23.019,0.00-42.277,17.574-42.277,39.334c0.00,42.273, 57.761,40.60, 82.034,54.83l0.00,10.889 c0.00,20.924-12.138,35.99-33.061,35.99
	c-16.742,0.00-33.064-10.462-39.341-31.814l-7.532,2.102c 6.28,27.613, 28.04,45.617, 54.83,45.617c 24.693,0.00, 53.575-14.231, 53.575-54.414
	l0.00-63.611 L 309.579,34.92 z M 281.12,80.96c-28.036-12.14-53.155-11.718-53.155-41.854c0.00-15.065, 10.462-27.207, 22.599-27.207
	c 8.79,0.00, 24.699,6.283, 30.558,18.84L 281.12,80.96L 281.12,80.96z M 388.257,28.225c0.00-14.65, 3.771-20.508, 24.693-20.508l0.00-7.115 
	l-81.198,0.00 l0.00,7.115 c 22.599,0.00, 28.04,2.93, 28.04,20.508l0.00,90.83 c0.00,20.505-6.277,22.173-28.04,22.173l0.00,7.116 l 49.393,4.607l 7.112,0.00 L 388.257,28.225 z
	 M 392.445,211.544c0.00-10.045-7.954-18.416-17.997-18.416c-10.042,0.00-18.424,8.371-18.424,18.416c0.00,10.043, 8.371,17.994, 18.424,17.994
	C 384.491,229.538, 392.445,221.587, 392.445,211.544z M 568.641,29.479c0.00-16.321, 5.857-21.763, 24.693-21.763l0.00-7.116 l-86.22,0.00 
	c-62.774,0.00-86.22,42.271-86.22,77.014c0.00,41.856, 30.979,75.338, 69.479,75.338c 15.902,0.00, 30.973-5.44, 49.803-18.003l0.00,90.824 
	c0.00,21.344-5.021,25.535-19.669,25.535l-8.371,0.00 l0.00,7.115 l 49.394,5.016l 7.111,0.00 L 568.641,29.479 L 568.641,29.479z M 540.182,119.055
	c-11.717,15.895-28.039,25.109-43.104,25.109c-26.787,0.00-45.197-24.273-45.197-60.271c0.00-35.58, 16.319-76.594, 64.873-76.594
	c 16.741,0.00, 23.435,6.703, 23.435,22.608l0.00,89.146 l-0.007,0.00 L 540.182,119.055 z M 815.572,172.204c-11.718,45.204-36.417,64.876-77.85,64.876
	c-57.754,0.00-88.727-46.453-88.727-107.982c0.00-71.989, 37.243-119.29, 91.236-119.29c 37.67,0.00, 65.716,17.58, 83.713,52.741l 6.275-5.856
	c-15.905-38.096-53.994-61.945-100.031-61.945c-57.76,0.00-118.03,39.334-118.03,119.283c0.00,76.177, 52.312,132.256, 123.892,132.256
	c 30.134,0.00, 52.739-10.042, 66.968-10.042c 6.276,0.00, 10.462,2.507, 12.974,7.531l 6.694,0.00 l0.00-71.571 L 815.572,172.204L 815.572,172.204z
	 M 926.488-4.001c-46.456,0.00-81.201,33.479-81.201,78.269c0.00,45.197, 34.734,78.685, 81.201,78.685
	c 46.455,0.00, 81.188-33.486, 81.188-78.685C 1007.677,29.479, 972.938-4.001, 926.488-4.001z M 926.488,144.577
	c-31.396,0.00-50.229-27.623-50.229-70.31c0.00-38.09, 15.896-69.90, 50.229-69.90c 35.147,0.00, 50.216,33.902, 50.216,69.90
	C 976.704,111.514, 960.804,144.577, 926.488,144.577z M 1170.073,32.829c0.00-19.256, 4.19-25.112, 25.108-25.112l0.00-7.115 l-79.101,0.00 l0.00,7.115 
	c 20.088,0.00, 25.528,4.604, 25.528,18.426l0.00,77.416 c0.00,23.867-17.157,33.903-33.059,33.903c-14.652,0.00-27.623-9.21-42.275-28.876l0.00-72.406 
	c0.00-22.605, 2.933-28.463, 25.111-28.463l0.00-7.115 l-78.271,0.00 l0.00,7.115 c 19.672,0.00, 24.703,1.676, 24.703,28.463l0.00,83.285 
	c0.00,17.997-4.603,21.763-24.703,21.763l0.00,7.116 l 46.043,4.607l 7.116,0.00 l0.00-29.721 c 17.579,20.098, 34.737,29.721, 53.577,29.721
	c 24.689,0.00, 50.22-17.577, 50.22-53.155L 1170.073,32.829L 1170.073,32.829z M 1250.416,149.179l 51.49,0.00 l0.00-10.881 l-51.49,0.00 l0.00-95.427 
	c0.00-20.507, 10.466-30.973, 26.788-30.973c 10.881,0.00, 18.839,4.179, 27.629,14.23l 4.599-5.439c-12.973-16.33-28.046-24.697-44.784-24.697
	c-25.108,0.00-42.689,17.581-42.689,43.107l0.00,99.197 l-28.046,0.00 l0.00,7.112 c 20.098,10.049, 36.836,28.049, 49.39,53.578l 7.115,0.00 L 1250.416,149.179
	L 1250.416,149.179z M 1340.821,91.009c-0.833-66.541, 38.924-83.292, 59.019-83.292c 20.508,0.00, 30.979,7.115, 52.326,30.982l0.00-10.895 
	c-17.997-23.01-35.162-31.807-61.116-31.807c-46.456,0.00-79.931,32.225-79.931,77.013c0.00,44.784, 32.642,79.939, 74.489,79.939
	c 34.332,0.00, 66.128-27.62, 64.036-61.942L 1340.821,91.009L 1340.821,91.009z M 1421.60,98.118c 1.256,32.654-20.931,46.046-39.77,46.046
	c-24.696,0.00-39.334-18.42-41.017-46.046L 1421.60,98.118 z M 1613.688,32.829c0.00-19.256, 4.194-25.112, 25.125-25.112l0.00-7.115 l-79.112,0.00 l0.00,7.115 
	c 20.095,0.00, 25.548,4.604, 25.548,18.426l0.00,77.416 c0.00,23.867-17.164,33.903-33.063,33.903c-14.654,0.00-27.617-9.21-42.276-28.876l0.00-72.406 
	c0.00-22.605, 2.934-28.463, 25.103-28.463l0.00-7.115 l-78.248,0.00 l0.00,7.115 c 19.672,0.00, 24.684,1.676, 24.684,28.463l0.00,83.285 
	c0.00,17.997-4.596,21.763-24.684,21.763l0.00,7.116 l 46.029,4.607l 7.116,0.00 l0.00-29.721 c 17.573,20.098, 34.737,29.721, 53.57,29.721
	c 24.696,0.00, 50.224-17.577, 50.224-53.155l0.00-66.967 L 1613.688,32.829 z M 1694.06,149.179l 51.473,0.00 l0.00-10.881 l-51.473,0.00 l0.00-95.427 
	c0.00-20.507, 10.453-30.973, 26.788-30.973c 10.881,0.00, 18.826,4.179, 27.616,14.23l 4.612-5.439c-12.986-16.33-28.047-24.697-44.785-24.697
	c-25.109,0.00-42.69,17.581-42.69,43.107l0.00,99.197 l-28.046,0.00 l0.00,7.112 c 20.085,10.049, 36.837,28.049, 49.393,53.578l 7.112,0.00 L 1694.06,149.179 
	L 1694.06,149.179z" horiz-adv-x="1765"  />
<glyph unicode="&#xe048;" d="M 144.50,260.75c-73.198,0.00-132.75-59.551-132.75-132.75S 71.302-4.75, 144.50-4.75S 277.25,54.801, 277.25,128.00
	S 217.698,260.75, 144.50,260.75z M 144.50,24.75c-23.155,0.00-44.554,7.662-61.796,20.584l 34.699,34.701l-20.861,20.859l-34.699-34.701
	C 48.916,83.436, 41.25,104.84, 41.25,128.00c0.00,56.932, 46.317,103.25, 103.25,103.25c 23.158,0.00, 44.56-7.664, 61.802-20.589l-28.271-28.271
	l 20.858-20.859l 28.271,28.271C 240.086,172.56, 247.75,151.158, 247.75,128.00C 247.75,71.068, 201.433,24.75, 144.50,24.75z
	 M 142.863,167.109c-20.523-4.035-35.734-18.148-35.734-34.961c0.00-4.035, 0.91-7.895, 2.535-11.512c-0.059,0.00-0.105,0.00-0.145,0.00
	c-5.754-6.926-16.207-13.129-25.059-14.27c 0.691,2.754, 4.586,14.465, 1.062,20.983c-8.734,5.301-14.324,13.301-14.324,22.242
	c0.00,16.027, 17.867,29.016, 39.906,29.016C 124.066,178.609, 135.57,174.094, 142.863,167.109z M 203.711,129.887
	c0.00-9.45-5.897-17.895-15.142-23.52c-3.737-6.867, 0.388-19.254, 1.113-22.156c-9.336,1.207-20.379,7.766-26.469,15.094
	c-0.566-0.035-1.121-0.07-1.66-0.07c-23.289,0.00-42.176,13.738-42.176,30.653c0.00,16.941, 18.887,30.664, 42.176,30.664
	C 184.832,160.551, 203.711,146.828, 203.711,129.887z" horiz-adv-x="289"  />
<glyph unicode="&#xe049;" d="M 304.077,214.433L 11.923,214.433 l0.00,51.704 l 292.154,0.00 L 304.077,214.433 z M 251.93,153.781L 11.923,153.781 l0.00-51.705 L 251.93,102.076 L 251.93,153.781 z M 304.077,41.504L 11.923,41.504 
	l0.00-51.705 l 292.154,0.00 L 304.077,41.504 z" horiz-adv-x="316"  />
<glyph unicode="&#xe050;" d="M 272.531-32.305 C 259.25-39.719 243.00-39.391 230.031-31.422 L 31.984,90.133 C 19.546,97.781 11.968,111.328 11.968,125.945 C 11.945,140.547 19.531,154.109 31.984,161.75 L 230.015,283.36 C 243.00,291.329 259.25,291.665 272.531,284.227 C 285.797,276.813 294.031,262.782 294.031,247.563 L 294.031,4.383 C 294.031-10.852 285.797-24.867 272.531-32.305 Z" horiz-adv-x="306"  />
<glyph unicode="&#xe051;" d="M 33.468,284.242 C 46.75,291.656 63.00,291.328 75.968,283.359 L 274.015,161.803 C 286.453,154.155 294.031,140.608 294.031,125.991 C 294.054,111.388 286.468,97.827 274.015,90.185 L 75.984-31.423 C 62.999-39.392 46.749-39.728 33.468-32.29 C 20.202-24.876 11.968-10.845 11.968,4.374 L 11.968,247.554 C 11.968,262.789 20.202,276.804 33.468,284.242 Z" horiz-adv-x="306"  />
<glyph unicode="&#xe052;" d="M 224.906,102.029 L 118.493-2.861 L 12.094,102.029 L 47.514,137.992 L 93.247,92.913 L 93.247,251.936 L 143.739,251.936 L 143.739,92.913 L 189.472,137.992 Z" horiz-adv-x="237"  />
<glyph unicode="&#xe053;" d="M 12.094,147.045 L 118.507,251.936 L 224.906,147.045 L 189.486,111.082 L 143.753,156.161 L 143.753-2.861 L 93.261-2.861 L 93.261,156.161 L 47.528,111.082 Z" horiz-adv-x="237"  />
<glyph unicode="&#xe054;" d="M 116.991,21.596 L 12.102,128.009 L 116.991,234.408 L 152.954,198.988 L 107.875,153.255 L 236.898,153.255 L 236.898,102.763 L 107.875,102.763 L 152.954,57.03 Z" horiz-adv-x="249"  />
<glyph unicode="&#xe055;" d="M 132.009,234.408 L 236.898,127.995 L 132.009,21.596 L 96.046,57.016 L 141.125,102.749 L 12.102,102.749 L 12.102,153.241 L 141.125,153.241 L 96.046,198.974 Z" horiz-adv-x="249"  />
<glyph unicode="&#xe056;" d="M 37.92,118.209c0.00,20.089-3.77,23.013-25.958,23.013l0.00,7.115 l 47.298,4.608l 7.116,0.00 l0.00-25.113 
	c 18.836,18.417, 32.645,25.113, 51.483,25.113c 38.502,0.00, 66.967-33.062, 66.967-77.433c0.00-45.62-31.393-79.521-73.663-79.521
	c-15.902,0.00-28.039,4.603-44.787,17.581l0.00-97.511 c0.00-17.997, 3.766-24.696, 24.699-24.696l0.00-7.115 L 11.962-115.75 l0.00,7.115 
	c 20.091,0.00, 25.958,4.179, 25.958,20.508L 37.92,118.209 z M 66.376,24.039c 10.881-11.298, 26.784-18.414, 41.021-18.414
	c 26.364,0.00, 46.453,28.04, 46.453,64.866c0.00,39.767-19.669,68.646-47.299,68.646c-15.066,0.00-26.368-6.276-40.176-22.183L 66.375,24.039 z
	 M 309.541,34.92c0.00-17.161, 1.675-23.009, 8.371-23.009c 4.604,0.00, 6.692,3.767, 10.046,14.231l 7.115,0.00 
	c-1.259-18.426-12.14-30.144-28.879-30.144c-12.556,0.00-20.088,6.276-25.112,20.924c-14.647-15.906-24.273-20.924-39.757-20.924
	c-23.019,0.00-42.277,17.574-42.277,39.334c0.00,42.274, 57.761,40.60, 82.034,54.83l0.00,10.889 c0.00,20.924-12.137,35.99-33.061,35.99
	c-16.742,0.00-33.064-10.462-39.341-31.814l-7.532,2.101c 6.28,27.613, 28.04,45.617, 54.83,45.617c 24.693,0.00, 53.575-14.231, 53.575-54.414
	l0.00-63.611 L 309.541,34.92 z M 281.082,80.96c-28.036-12.14-53.155-11.718-53.155-41.854c0.00-15.066, 10.462-27.207, 22.599-27.207
	c 8.79,0.00, 24.699,6.283, 30.557,18.84L 281.083,80.96 z M 388.219,28.224c0.00-14.65, 3.77-20.507, 24.693-20.507l0.00-7.116 l-81.198,0.00 l0.00,7.116 
	c 22.599,0.00, 28.04,2.93, 28.04,20.507l0.00,90.831 c0.00,20.505-6.277,22.173-28.04,22.173l0.00,7.116 l 49.393,4.607l 7.112,0.00 L 388.219,28.224 z
	 M 392.407,211.544c0.00-10.045-7.954-18.416-17.997-18.416c-10.042,0.00-18.423,8.371-18.423,18.416c0.00,10.043, 8.371,17.994, 18.423,17.994
	C 384.453,229.538, 392.407,221.587, 392.407,211.544z M 568.603,29.479c0.00-16.322, 5.857-21.763, 24.693-21.763l0.00-7.116 l-86.22,0.00 
	c-62.774,0.00-86.219,42.271-86.219,77.013c0.00,41.857, 30.979,75.338, 69.478,75.338c 15.902,0.00, 30.973-5.44, 49.803-18.003l0.00,90.824 
	c0.00,21.344-5.021,25.535-19.669,25.535l-8.371,0.00 l0.00,7.115 l 49.393,5.016l 7.112,0.00 L 568.603,29.479 z M 540.144,119.055
	c-11.717,15.894-28.039,25.109-43.104,25.109c-26.787,0.00-45.197-24.273-45.197-60.271c0.00-35.581, 16.319-76.594, 64.873-76.594
	c 16.741,0.00, 23.435,6.703, 23.435,22.608l0.00,89.146 L 540.144,119.053 z" horiz-adv-x="603"  />
<glyph unicode="&#xe057;" d="M 211.702,172.204c-11.717,45.204-36.417,64.876-77.849,64.876c-57.754,0.00-88.727-46.453-88.727-107.982
	c0.00-71.988, 37.243-119.29, 91.237-119.29c 37.669,0.00, 65.715,17.581, 83.712,52.742l 6.276-5.857
	c-15.905-38.095-53.994-61.945-100.031-61.945c-57.76,0.00-118.031,39.334-118.031,119.283c0.00,76.177, 52.313,132.256, 123.892,132.256
	c 30.134,0.00, 52.739-10.042, 66.968-10.042c 6.276,0.00, 10.462,2.507, 12.973,7.531l 6.695,0.00 l0.00-71.571 L 211.702,172.205 z M 322.618-4.001
	c-46.456,0.00-81.201,33.48-81.201,78.269c0.00,45.197, 34.735,78.684, 81.201,78.684c 46.456,0.00, 81.188-33.486, 81.188-78.684
	C 403.807,29.479, 369.067-4.001, 322.618-4.001z M 322.618,144.577c-31.396,0.00-50.229-27.623-50.229-70.31
	c0.00-38.089, 15.896-69.90, 50.229-69.90c 35.148,0.00, 50.216,33.902, 50.216,69.90C 372.834,111.514, 356.934,144.577, 322.618,144.577z
	 M 566.203,32.829c0.00-19.256, 4.191-25.112, 25.109-25.112l0.00-7.116 l-79.101,0.00 l0.00,7.116 c 20.088,0.00, 25.528,4.604, 25.528,18.426l0.00,77.416 
	c0.00,23.867-17.157,33.903-33.058,33.903c-14.653,0.00-27.623-9.21-42.276-28.876l0.00-72.407 c0.00-22.605, 2.933-28.462, 25.112-28.462l0.00-7.116 
	l-78.271,0.00 l0.00,7.116 c 19.672,0.00, 24.703,1.675, 24.703,28.462l0.00,83.286 c0.00,17.997-4.602,21.763-24.703,21.763l0.00,7.116 l 46.043,4.607l 7.116,0.00 
	l0.00-29.721 c 17.58,20.098, 34.738,29.721, 53.578,29.721c 24.689,0.00, 50.219-17.577, 50.219-53.155L 566.202,32.829 L 566.203,32.829z M 646.546,149.179
	l 51.49,0.00 l0.00-10.881 l-51.49,0.00 l0.00-95.427 c0.00-20.507, 10.466-30.973, 26.788-30.973c 10.881,0.00, 18.839,4.179, 27.629,14.231l 4.599-5.44
	c-12.973-16.329-28.046-24.697-44.784-24.697c-25.109,0.00-42.69,17.581-42.69,43.107l0.00,99.198 l-28.046,0.00 l0.00,7.112 
	c 20.098,10.049, 36.836,28.049, 49.39,53.578l 7.115,0.00 L 646.547,149.179 L 646.546,149.179z M 736.951,91.009
	c-0.833-66.541, 38.924-83.292, 59.019-83.292c 20.508,0.00, 30.979,7.115, 52.326,30.982l0.00-10.895 
	c-17.997-23.009-35.162-31.806-61.116-31.806c-46.456,0.00-79.931,32.225-79.931,77.013c0.00,44.784, 32.642,79.939, 74.489,79.939
	c 34.332,0.00, 66.128-27.62, 64.037-61.942L 736.951,91.008 z M 817.729,98.118c 1.256,32.654-20.931,46.046-39.77,46.046
	c-24.696,0.00-39.334-18.42-41.016-46.046L 817.729,98.118 z M 1009.818,32.829c0.00-19.256, 4.194-25.112, 25.125-25.112l0.00-7.116 L 955.83,0.601 l0.00,7.116 
	c 20.095,0.00, 25.548,4.604, 25.548,18.426l0.00,77.416 c0.00,23.867-17.164,33.903-33.063,33.903c-14.654,0.00-27.617-9.21-42.277-28.876l0.00-72.407 
	c0.00-22.605, 2.934-28.462, 25.103-28.462l0.00-7.116 l-78.248,0.00 l0.00,7.116 c 19.672,0.00, 24.683,1.675, 24.683,28.462l0.00,83.286 
	c0.00,17.997-4.595,21.763-24.683,21.763l0.00,7.116 l 46.029,4.607l 7.116,0.00 l0.00-29.721 c 17.574,20.098, 34.738,29.721, 53.571,29.721
	c 24.696,0.00, 50.223-17.577, 50.223-53.155l0.00-66.967 L 1009.818,32.829 z M 1090.189,149.179l 51.472,0.00 l0.00-10.881 l-51.472,0.00 l0.00-95.427 
	c0.00-20.507, 10.453-30.973, 26.788-30.973c 10.881,0.00, 18.826,4.179, 27.616,14.231l 4.612-5.44c-12.986-16.329-28.047-24.697-44.785-24.697
	c-25.109,0.00-42.69,17.581-42.69,43.107l0.00,99.198 l-28.046,0.00 l0.00,7.112 c 20.085,10.049, 36.837,28.049, 49.393,53.578l 7.112,0.00 L 1090.189,149.179 
	L 1090.189,149.179z" horiz-adv-x="1161"  />
<glyph unicode="&#xe058;" d="M 237.053,119.465l0.00-127.57 L 11.959-8.105 L 11.959,216.989 L 139.52,216.989 l-45.973-45.976L 57.936,171.013 L 57.936,37.87 l 133.141,0.00 l0.00,35.616 L 237.053,119.465z
	 M 152.803,262.962l0.00-45.976 l 51.748,0.00 l-77.533-77.521l 32.508-32.512l 77.539,77.529l0.00-51.784 l 45.977,0.00 L 283.042,262.962 L 152.803,262.962 z" horiz-adv-x="295"  />
<glyph unicode="&#xe059;" d="M 309.779,318.086L 309.779,349.949 l-45.475,0.00 l0.00-31.863 l-74.286,0.00 L 190.018,349.949 l-45.46,0.00 l0.00-31.863 L 12.278,318.086 l0.00-389.974 l 429.445,0.00 L 441.723,318.086 L 309.779,318.086 z
	 M 387.105-17.257L 66.897-17.257 L 66.897,263.466 l 77.662,0.00 l0.00-31.865 l 45.46,0.00 l0.00,31.865 l 74.286,0.00 l0.00-31.865 l 45.475,0.00 l0.00,31.865 l 77.326,0.00 L 387.106-17.257 z M 98.356,178.856
	l 68.934,0.00 l0.00-61.267 L 98.356,117.589 L 98.356,178.856 z M 192.541,178.856l 68.944,0.00 l0.00-61.267 l-68.944,0.00 L 192.541,178.856 z M 286.711,178.856l 68.957,0.00 l0.00-61.267 l-68.957,0.00 L 286.711,178.856 z
	 M 98.356,88.082l 68.934,0.00 l0.00-61.301 L 98.356,26.781 L 98.356,88.082 z M 192.541,88.082l 68.944,0.00 l0.00-61.301 l-68.944,0.00 L 192.541,88.082 z M 286.711,88.082l 68.957,0.00 l0.00-61.301 
	l-68.957,0.00 L 286.711,88.082 z" horiz-adv-x="454"  />
<glyph unicode="&#x20;" horiz-adv-x="256" />
<glyph class="hidden" unicode="&#xf000;" d="M0,384L 512 -128L0 -128 z" horiz-adv-x="0" />
</font>
</defs>
</svg>
