<?xml version="1.0" standalone="no"?>
<!DOCTYPE svg PUBLIC "-//W3C//DTD SVG 1.1//EN" "http://www.w3.org/Graphics/SVG/1.1/DTD/svg11.dtd" >
<svg xmlns="http://www.w3.org/2000/svg">
<metadata></metadata>
<defs>
<font id="msfonticonsregular" horiz-adv-x="2048" >
<font-face units-per-em="2048" ascent="1638" descent="-410" />
<missing-glyph horiz-adv-x="1228" />
<glyph />
<glyph />
<glyph unicode="&#xd;" />
<glyph unicode=" "  horiz-adv-x="1228" />
<glyph unicode="&#x09;" horiz-adv-x="1228" />
<glyph unicode="&#xa0;" horiz-adv-x="1228" />
<glyph unicode="&#x2000;" horiz-adv-x="1028" />
<glyph unicode="&#x2001;" horiz-adv-x="2056" />
<glyph unicode="&#x2002;" horiz-adv-x="1028" />
<glyph unicode="&#x2003;" horiz-adv-x="2056" />
<glyph unicode="&#x2004;" horiz-adv-x="685" />
<glyph unicode="&#x2005;" horiz-adv-x="514" />
<glyph unicode="&#x2006;" horiz-adv-x="342" />
<glyph unicode="&#x2007;" horiz-adv-x="342" />
<glyph unicode="&#x2008;" horiz-adv-x="257" />
<glyph unicode="&#x2009;" horiz-adv-x="411" />
<glyph unicode="&#x200a;" horiz-adv-x="114" />
<glyph unicode="&#x202f;" horiz-adv-x="411" />
<glyph unicode="&#x205f;" horiz-adv-x="514" />
<glyph unicode="&#xe000;" horiz-adv-x="500" d="M0 0z" />
<glyph unicode="&#xe001;" horiz-adv-x="1088" d="M0 960h320v-960h384v960h384v384h-384v192q0 45 34.5 86.5t61.5 41.5h288v384h-288q-95 0 -183 -40t-153.5 -107.5t-104.5 -163t-39 -201.5v-192h-320v-384z" />
<glyph unicode="&#xe002;" horiz-adv-x="2432" d="M0 384q0 83 51 164.5t136.5 144t205 101t247.5 38.5h96q-46 23 -71 66.5t-25 93.5q0 36 16 76t16 52h-64q-105 0 -196 38.5t-152.5 101.5t-96.5 143.5t-35 164.5q0 124 83.5 236t217 178t275.5 66h608l-128 -96h-192q92 -46 142 -152t50 -232q0 -94 -47 -170t-145 -150 q-34 -23 -55 -46.5t-29 -51t-10 -45t-2 -49.5q0 -26 57.5 -97.5t102.5 -94.5q119 -71 171.5 -170.5t52.5 -245.5q0 -85 -42.5 -164.5t-120.5 -143t-202 -102t-275 -38.5q-175 0 -321 48.5t-232.5 137t-86.5 198.5zM224 448q0 -144 124 -248t292 -104q128 0 223 27.5t150 77 t81 111t26 136.5q0 32 -32 64q0 28 -10 50t-33 43.5t-45.5 37t-64 43.5t-71.5 50q-64 32 -160 32q-128 0 -237.5 -39.5t-176 -113.5t-66.5 -167zM384 1600q0 -165 99 -290.5t221 -125.5q124 0 201.5 110t54.5 274q-24 165 -127 274.5t-225 109.5q-119 0 -183.5 -103.5 t-40.5 -248.5zM1504 1536v96h416v416h96v-416h416v-96h-416v-416h-96v416h-416z" />
<glyph unicode="&#xe003;" horiz-adv-x="1664" d="M0 1280q0 -179 64 -295t224 -185q36 45 45.5 88t-3.5 82.5t-32.5 75t-42.5 82.5t-31 88q-8 102 27 204.5t99.5 187t158 148t196.5 93.5t221 17.5t226 -74.5q77 -46 127.5 -140t67.5 -205t4.5 -231t-52 -220.5t-111.5 -172.5t-164 -87q-51 -21 -108 -8t-84 40 q-39 33 -53.5 78t-7 92.5t23 103t37 109.5t35 111.5t16 108.5t-18.5 101q-27 64 -73 91t-94.5 16t-94.5 -42.5t-79.5 -84t-42.5 -108.5q-12 -31 -8.5 -72t12.5 -72t18.5 -72t9.5 -72q0 -98 -32.5 -229t-74 -267.5t-53.5 -207.5q-24 -72 -24 -176t24 -176h128 q141 282 192 640q15 0 33 -10.5t30 -21.5t33 -32q76 -61 197.5 -68.5t234 30.5t176.5 102q80 57 138.5 150t90 203.5t45.5 220.5t14 226q-24 109 -83 212t-144 187.5t-201 140.5t-244 68q-190 24 -370.5 -22t-317.5 -145.5t-220.5 -256.5t-83.5 -344z" />
<glyph unicode="&#xe004;" d="M0 384h96q160 0 280 40t232 152q-128 0 -228.5 75.5t-123.5 212.5q0 -14 8 -22t16 -9l8 -1q32 0 48.5 0.5t38.5 3.5t31.5 10t9.5 18q-81 0 -144 33t-100.5 91t-56.5 132t-19 160q31 -31 57.5 -45t45 -16.5t57.5 -2.5q-80 80 -120 160t-40 192q0 37 0.5 54.5t3.5 44 t9.5 40.5t19 29t31.5 24q138 -184 345.5 -290.5t486.5 -157.5v96q0 92 38 177t98 143.5t134 93t146 34.5q224 0 352 -128q13 13 48.5 23t94.5 28t113 45q-30 -46 -68 -90.5t-67 -75t-89 -90.5q41 27 99 44.5t101 28t56 23.5q-15 -46 -45.5 -90.5t-58.5 -75t-88 -90.5v-32 q0 -117 -26.5 -238.5t-80.5 -240.5t-129.5 -228t-179 -202t-223.5 -161.5t-268.5 -107t-308.5 -38.5q-304 0 -640 224z" />
<glyph unicode="&#xe009;" horiz-adv-x="2144" d="M32 1216q-80 286 41 490q90 150 262 210q178 62 360 -1q199 -68 314 -260q50 -83 79 -183q99 274 304 401q172 107 359 78q175 -27 286 -159q136 -163 114 -415q-8 -93 -39 -193q-26 -98 -98.5 -211t-167 -215t-203.5 -203t-212 -182.5t-187.5 -144.5t-135.5 -98l-52 -34 q-19 13 -51.5 37.5t-128 100t-184.5 152.5t-202 187t-200.5 211.5t-159.5 217.5t-98 214z" />
<glyph unicode="&#xe010;" horiz-adv-x="2272" d="M0 256v1408l704 -544zM0 1792h2272l-1152 -928zM32 256l736 800l352 -288l384 288l672 -800h-2144zM1536 1120l736 544v-1408z" />
<glyph unicode="&#xe011;" horiz-adv-x="2176" d="M0 0v864h416v1184h1280v-1184h480v-864h-2176zM512 864h1088v1088h-1088v-1088zM736 1088v96h640v-96h-640zM736 1312v96h640v-96h-640zM736 1536v96h640v-96h-640zM1376 448h544v96h-544v-96z" />
<glyph unicode="&#xe012;" horiz-adv-x="2016" d="M0 1280l480 -512l-96 -736l608 320l640 -320l-96 736l480 512l-672 128l-320 640l-352 -640z" />
<glyph unicode="&#xe013;" horiz-adv-x="1344" d="M0 288l736 736l-736 736l288 288l1056 -1024l-1056 -1024z" />
<glyph unicode="&#xe014;" horiz-adv-x="1312" d="M0 1024l1024 -1024l288 288l-736 736l736 736l-288 288z" />
<glyph unicode="&#xe015;" horiz-adv-x="1376" d="M28 278q1 5 4 10l320 576q-109 93 -160.5 226t-41.5 273t74 269q71 106 170.5 178.5t209.5 102t228 16t224 -72.5q158 -95 242.5 -235.5t80.5 -297.5t-99 -299q-47 -94 -123 -162t-165 -102t-189 -42t-195 18l-320 -576q-30 -74 -109 -66q-65 6 -116 61q-58 61 -35 123z M384 1312q0 -146 109 -249t275 -103q144 0 248 104t104 248q0 166 -103 275t-249 109q-168 0 -276 -108t-108 -276z" />
<glyph unicode="&#xe016;" d="M0 1024q0 212 79.5 402t216 326.5t326.5 216t402 79.5t402 -79.5t326.5 -216t216 -326.5t79.5 -402t-79.5 -402t-216 -326.5t-326.5 -216t-402 -79.5t-402 79.5t-326.5 216t-216 326.5t-79.5 402zM128 1024q0 -176 73 -341.5t194.5 -287t287 -194.5t341.5 -73 q165 0 328.5 73.5t288 194t202 287t77.5 341.5q0 110 -35.5 222t-97 210t-147.5 184t-184 147.5t-210 97t-222 35.5q-175 0 -341.5 -77.5t-287 -202t-194 -288t-73.5 -328.5zM800 448l672 576l-672 576v-1152z" />
<glyph unicode="&#xe017;" horiz-adv-x="1344" d="M0 480l128 -128l544 544l544 -544l128 128l-544 544l544 544l-128 128l-544 -544l-544 544l-128 -128l544 -544z" />
<glyph unicode="&#xe018;" horiz-adv-x="1248" d="M0 192l608 416l640 -416v1696h-1248v-1696z" />
<glyph unicode="&#xe019;" horiz-adv-x="1696" d="M0 768v480q0 48 40 88t88 40h1440q48 0 88 -40t40 -88v-480q0 -48 -40 -88t-88 -40h-1440q-48 0 -88 40t-40 88zM352 800h64v128h64q69 0 114.5 39t45.5 89q0 128 -160 128h-128v-384zM416 992v128h64q48 0 56 -8t8 -56q0 -16 -1 -24t-6.5 -19t-19.5 -16t-37 -5h-64z M704 800h128q93 0 158.5 59t65.5 133q0 93 -62 142.5t-162 49.5h-128v-384zM800 864v256h32q72 0 100 -28t28 -100q0 -54 -30.5 -91t-97.5 -37h-32zM1120 800h96v160h128v64h-128v96h160v64h-256v-384z" />
<glyph unicode="&#xe020;" horiz-adv-x="1472" d="M0 1024q0 242 157 393t419 151q138 0 255 -61.5t193 -162.5l416 320l32 -96l-384 -384q15 -31 22.5 -57.5t8.5 -45t1 -57.5q0 -262 -151 -419t-393 -157q-264 0 -420 156t-156 420zM64 1024q0 -216 148 -364t364 -148q95 0 183 40t153.5 107.5t104.5 163t39 201.5v96 l-448 -480l-416 448l160 160l256 -256l352 288q-48 97 -156.5 160.5t-227.5 63.5q-106 0 -201.5 -39t-163 -104.5t-107.5 -153.5t-40 -183z" />
<glyph unicode="&#xe021;" d="M0 1344l1024 -1024l1024 1024l-288 288l-736 -736l-736 736z" />
<glyph unicode="&#xe022;" horiz-adv-x="1792" d="M0 128v768l416 864h192v-128h-96l-352 -768h416l128 -224h384l128 224h416l-352 768h-96v128h192l416 -864v-768h-1792zM512 1248h224v672h320v-672h224l-384 -448z" />
<glyph unicode="&#xe023;" d="M0 1024q0 212 79.5 402t216 326.5t326.5 216t402 79.5t402 -79.5t326.5 -216t216 -326.5t79.5 -402t-79.5 -402t-216 -326.5t-326.5 -216t-402 -79.5t-402 79.5t-326.5 216t-216 326.5t-79.5 402zM704 992h160v-512h224v512h224v192h-224v128q0 14 8 30t16 25l8 9h192 v224h-192q-98 0 -177 -85.5t-79 -202.5v-128h-160v-192z" />
<glyph unicode="&#xe024;" d="M0 1024q0 160 53.5 314.5t150.5 281.5t224 224t281.5 150.5t314.5 53.5q211 0 402 -84t326.5 -223.5t215.5 -327.5t80 -389q0 -212 -79.5 -402t-216 -326.5t-326.5 -216t-402 -79.5q-201 0 -389 80t-327.5 215.5t-223.5 326.5t-84 402zM512 640q0 -72 100 -132t220 -60 q80 0 144 21t101 55t56 72t19 76q0 144 -96 192q-11 11 -37.5 30.5t-42.5 35.5t-16 30q0 21 2 33t17 30t45 33q46 23 71 66.5t25 93.5q0 96 -96 192h96l64 32h-320q-102 0 -195 -66.5t-93 -157.5q0 -98 69 -161t187 -63h32q0 -16 -16 -32t-16 -32q0 -24 20 -44t44 -20h-64 q-77 0 -152.5 -36t-121.5 -88t-46 -100zM640 672q0 71 63.5 115.5t160.5 44.5q21 0 33 -1t30 -8.5t33 -22.5q64 -32 128 -96v-32q0 -77 -59.5 -118.5t-196.5 -41.5q-75 0 -133.5 45.5t-58.5 114.5zM704 1216q0 160 128 160q54 0 107 -46.5t53 -113.5q23 -92 -14.5 -142 t-113.5 -50q-51 0 -105.5 61.5t-54.5 130.5zM1248 1184h224v-224h64v224h224v32h-224v224h-64v-224h-224v-32z" />
<glyph unicode="&#xe025;" d="M0 1024q0 212 79.5 402t216 326.5t326.5 216t402 79.5q201 0 389 -80t327.5 -215.5t223.5 -326.5t84 -402t-84 -402t-223.5 -326.5t-327.5 -215.5t-389 -80q-212 0 -402 79.5t-326.5 216t-216 326.5t-79.5 402zM608 1152q0 -95 43.5 -163.5t116.5 -92.5q34 22 39 49 t-6 46t-34 50t-31 47q0 95 44 180.5t116 135.5t164 57.5t188 -53.5q46 -28 73 -93.5t28.5 -142.5t-14 -150.5t-56 -127t-95.5 -62.5q-56 0 -81 5t-47 27q-27 27 -27.5 64.5t16 75t32.5 81.5t23 83t-12 80q-30 60 -78.5 61t-88.5 -37t-57 -88q0 -36 16 -92t16 -68 q0 -36 -6 -77t-19 -88t-22.5 -76.5t-27 -80t-21.5 -62.5v-192h64q13 13 25 31.5t23 45t19 47.5t17.5 57t15 55.5t15 60t13.5 55.5q14 0 22 -8t9 -16l1 -8q45 -45 118.5 -48t136.5 21.5t97 58.5q73 73 112.5 197t15.5 219q0 138 -100.5 232.5t-251.5 119.5 q-142 16 -267.5 -35.5t-201 -153.5t-75.5 -227zM1120 1088q0 24 4 28t28 4h-32v-32zM1216 1088h32q0 24 -4 28t-28 4v-32z" />
<glyph unicode="&#xe026;" d="M0 1024q0 212 79.5 402t216 326.5t326.5 216t402 79.5t402 -79.5t326.5 -216t216 -326.5t79.5 -402t-79.5 -402t-216 -326.5t-326.5 -216t-402 -79.5t-402 79.5t-326.5 216t-216 326.5t-79.5 402zM544 672q48 -32 75.5 -48.5t74 -38.5t96 -31.5t106.5 -9.5 q120 0 225.5 42t180 111.5t128.5 157.5t80 180.5t26 180.5v32q48 24 76 52t52 76q-32 -32 -128 -32q64 64 96 128q-26 -26 -70.5 -45t-89.5 -19q-26 26 -70.5 45t-89.5 19q-96 0 -160 -64t-64 -160v-64q-269 45 -480 256q-22 -22 -27 -47t-5 -81q0 -96 96 -192q-16 0 -48 16 t-48 16q0 -76 50 -138.5t142 -85.5h-64h-64q24 -71 87.5 -115.5t136.5 -44.5q-96 -96 -288 -96h-32z" />
<glyph unicode="&#xe027;" horiz-adv-x="1472" d="M0 1024q0 242 157 393t419 151q240 0 392 -152t152 -392q0 -262 -151 -419t-393 -157q-264 0 -420 156t-156 420zM64 1024q0 -216 148 -364t364 -148q95 0 183 40t153.5 107.5t104.5 163t39 201.5q0 94 -39.5 182.5t-104.5 153.5t-153.5 104.5t-182.5 39.5 q-106 0 -201.5 -39t-163 -104.5t-107.5 -153.5t-40 -183z" />
<glyph unicode="&#xe028;" horiz-adv-x="1472" d="M192 1088l160 160l256 -256l832 672l32 -96l-864 -928z" />
</font>
</defs>
</svg>
