<?xml version="1.0" standalone="no"?>
<!DOCTYPE svg PUBLIC "-//W3C//DTD SVG 1.1//EN" "http://www.w3.org/Graphics/SVG/1.1/DTD/svg11.dtd" >
<svg xmlns="http://www.w3.org/2000/svg">
<metadata>
This is a custom SVG webfont generated by Font Squirrel.
Designer    : Fabrizio Schiavi
Foundry URL : httpwwwfsdit
</metadata>
<defs>
<font id="SysTTBoldRegular" horiz-adv-x="1100" >
<font-face units-per-em="2048" ascent="1638" descent="-410" />
<missing-glyph horiz-adv-x="520" />
<glyph unicode=" "  horiz-adv-x="520" />
<glyph unicode="&#x09;" horiz-adv-x="520" />
<glyph unicode="&#xa0;" horiz-adv-x="520" />
<glyph unicode="!" horiz-adv-x="616" d="M150 80v130q0 37 26.5 63.5t63.5 26.5h136q37 0 63.5 -26.5t26.5 -63.5v-130q0 -37 -26.5 -63.5t-63.5 -26.5h-136q-37 0 -63.5 26.5t-26.5 63.5zM160 670v721q0 37 26.5 63.5t63.5 26.5h116q37 0 63.5 -26.5t26.5 -63.5v-721q0 -37 -26.5 -63.5t-63.5 -26.5h-116 q-37 0 -63.5 26.5t-26.5 63.5z" />
<glyph unicode="&#x22;" horiz-adv-x="961" d="M170 911v464q0 41 31 65.5t73 24.5h30q42 0 73 -24.5t31 -65.5v-464q0 -41 -31 -65.5t-73 -24.5h-30q-42 0 -73 24.5t-31 65.5zM553 911v464q0 41 31 65.5t73 24.5h30q42 0 73 -24.5t31 -65.5v-464q0 -41 -31 -65.5t-73 -24.5h-30q-42 0 -73 24.5t-31 65.5z" />
<glyph unicode="#" horiz-adv-x="1498" d="M40 601q0 8 4 18l35 93q14 36 54 36h220l73 192l70 103l-20 20l-117 -45h-84q-57 0 -57 53q0 10 3 18l36 93q14 36 54 36h221l85 221q13 35 53 35h88q57 0 57 -53q0 -9 -2 -15l-37 -108l-71 -110l20 -20l115 50h167l85 221q13 35 53 35h88q57 0 57 -53q0 -9 -2 -15 l-37 -108l-71 -110l20 -20l115 50h86q57 0 57 -53q0 -8 -4 -18l-35 -93q-14 -36 -54 -36h-220l-70 -190l-71 -110l20 -20l115 50h84q57 0 57 -53q0 -10 -3 -18l-36 -93q-14 -36 -54 -36h-221l-85 -221q-13 -35 -53 -35h-88q-57 0 -57 53q0 9 2 15l37 108l71 110l-20 20 l-115 -50h-167l-85 -221q-13 -35 -53 -35h-88q-57 0 -57 53q0 9 2 15l37 108l71 110l-20 20l-115 -50h-86q-57 0 -57 53zM537 718l20 -20l135 50h135l73 190l61 110l-20 20l-135 -50h-135l-73 -190z" />
<glyph unicode="$" horiz-adv-x="1091" d="M60 1123q0 145 103 248t248 103h105v164q0 49 54 49h111q44 0 44 -49v-164h186q64 0 64 -64v-105q0 -64 -64 -64h-216l-43 -417l201 -146q178 -129 178 -313q0 -151 -107 -258t-258 -107h-90v-164q0 -49 -55 -49h-112q-43 0 -43 49v164h-233q-64 0 -64 64v105q0 64 64 64 h264l44 433l-247 181q-134 98 -134 276zM335 1123q0 -52 37 -91l71 -122l36 14l18 317h-40q-50 0 -86 -34.5t-36 -83.5zM595 233h32q55 0 93 38t38 93q0 52 -46 98l-71 120l-36 -14z" />
<glyph unicode="%" horiz-adv-x="1634" d="M150 1105v80q0 128 91 218.5t220 90.5t220 -90.5t91 -218.5v-80q0 -128 -91 -219t-220 -91t-220 91t-91 219zM214 54q0 17 11 32l975 1365q16 23 43 23h109q56 0 56 -54q0 -17 -11 -32l-975 -1365q-16 -23 -42 -23h-109q-57 0 -57 54zM364 1081q0 -39 28.5 -67t68.5 -28 t68 27.5t28 67.5v127q0 40 -28 67.5t-68 27.5t-68.5 -28t-28.5 -67v-127zM862 290v80q0 128 91 218.5t220 90.5t220 -90.5t91 -218.5v-80q0 -128 -91 -219t-220 -91t-220 91t-91 219zM1076 266q0 -39 28.5 -67t68.5 -28t68 27.5t28 67.5v127q0 40 -28 67.5t-68 27.5 t-68.5 -28t-28.5 -67v-127z" />
<glyph unicode="&#x26;" horiz-adv-x="1396" d="M60 349q0 263 237 381q24 11 96 48l-128 118q-35 33 -67 98.5t-32 112.5q0 149 96 253q103 114 271 114h150q167 0 266 -114q90 -103 90 -253q0 -134 -127 -237l-157 -127l197 -196l145 158q30 33 70 33h94q37 0 63.5 -26.5t26.5 -63.5q0 -32 -21 -57l-95 -112l-121 -81 v-50l146 -100l72 -105q23 -34 23 -60q0 -37 -26.5 -63.5t-63.5 -26.5h-90q-39 0 -62 24l-168 179l-102 -96q-117 -110 -300 -110h-130q-146 0 -249.5 106t-103.5 253zM366 367q0 -63 46 -111t118 -48q85 0 163 69l80 71v50l-104 52l-73 78l-48 111h-45l-55 -41 q-82 -61 -82 -167v-64zM452 1107q0 -46 56 -126l66 -94h45l81 98q53 64 53 122v28q0 60 -42.5 95t-107.5 35t-108 -35t-43 -95v-28z" />
<glyph unicode="'" horiz-adv-x="578" d="M170 911v464q0 41 31 65.5t73 24.5h30q42 0 73 -24.5t31 -65.5v-464q0 -41 -31 -65.5t-73 -24.5h-30q-42 0 -73 24.5t-31 65.5z" />
<glyph unicode="(" horiz-adv-x="861" d="M160 737q0 508 315 900q14 18 40 18h151q55 0 55 -55q0 -20 -14 -36q-319 -354 -319 -827q0 -474 317 -825q16 -18 16 -38q0 -55 -55 -55h-151q-26 0 -42 20q-313 393 -313 898z" />
<glyph unicode=")" horiz-adv-x="861" d="M140 -126q0 20 16 38q317 351 317 825q0 473 -319 827q-14 16 -14 36q0 55 55 55h151q26 0 40 -18q315 -392 315 -900q0 -505 -313 -898q-16 -20 -42 -20h-151q-55 0 -55 55z" />
<glyph unicode="*" horiz-adv-x="994" d="M50 1014v86q0 62 62 62q2 0 11 -1l130 -15l122 -34l13 23l-90 89l-78 105q-15 20 -15 40q0 36 31 54l74 43q14 8 31 8q41 0 59 -41l52 -120l31 -123h27l32 123l52 120q1 3 4 10q18 31 54 31q17 0 31 -8l74 -43q31 -18 31 -54q0 -21 -14 -40l-78 -105l-91 -89l14 -23 l122 34l130 15q9 1 11 1q62 0 62 -62v-86q0 -62 -62 -62q-2 0 -11 1l-130 15l-122 34l-14 -23l91 -89l78 -105q14 -19 14 -40q0 -36 -31 -54l-74 -43q-14 -8 -31 -8q-36 0 -54 31q-1 3 -4 10l-52 120l-32 123h-27l-31 -123l-52 -120q-18 -41 -59 -41q-17 0 -31 8l-74 43 q-31 18 -31 54q0 20 15 40l78 105l90 89l-13 23l-122 -34l-130 -15q-9 -1 -11 -1q-62 0 -62 62z" />
<glyph unicode="+" horiz-adv-x="1162" d="M80 605v80q0 64 64 64h333v333q0 64 64 64h80q64 0 64 -64v-333h333q64 0 64 -64v-80q0 -64 -64 -64h-333v-333q0 -64 -64 -64h-80q-64 0 -64 64v333h-333q-64 0 -64 64z" />
<glyph unicode="," horiz-adv-x="546" d="M49 -258q0 13 6 25l145 279v164q0 37 26.5 63.5t63.5 26.5h86q37 0 63.5 -26.5t26.5 -63.5v-143q0 -19 -10 -34l-215 -319q-15 -22 -42 -22h-100q-50 0 -50 50z" />
<glyph unicode="-" horiz-adv-x="795" d="M70 589v120q0 64 64 64h527q64 0 64 -64v-120q0 -64 -64 -64h-527q-64 0 -64 64z" />
<glyph unicode="." horiz-adv-x="616" d="M150 80v130q0 37 26.5 63.5t63.5 26.5h136q37 0 63.5 -26.5t26.5 -63.5v-130q0 -37 -26.5 -63.5t-63.5 -26.5h-136q-37 0 -63.5 26.5t-26.5 63.5z" />
<glyph unicode="/" horiz-adv-x="905" d="M50 52q0 12 5 24l586 1365q14 33 48 33h109q57 0 57 -53q0 -9 -6 -23l-586 -1366q-14 -33 -47 -33h-109q-57 0 -57 53z" />
<glyph unicode="0" d="M100 444v586q0 192 130 326t320 134t320 -134t130 -326v-586q0 -192 -130 -326t-320 -134t-320 134t-130 326zM396 380q0 -69 43.5 -116.5t110.5 -47.5t110.5 47.5t43.5 116.5v714q0 69 -43.5 116.5t-110.5 47.5t-110.5 -47.5t-43.5 -116.5v-714z" />
<glyph unicode="1" d="M176 1009v66q0 44 29 66l405 314q25 19 56 19h167q37 0 63.5 -26.5t26.5 -63.5v-1301q0 -37 -26.5 -63.5t-63.5 -26.5h-116q-37 0 -63.5 26.5t-26.5 63.5v891l36 253h-56l-71 -145l-222 -147q-22 -15 -49 -15q-37 0 -63 26t-26 63z" />
<glyph unicode="2" d="M111 90v200q0 30 8 40l524 641q43 53 43 112q0 65 -46.5 111.5t-111.5 46.5h-316q-65 0 -65 64v105q0 64 64 64h349q174 0 297.5 -123.5t123.5 -297.5q0 -145 -105 -267l-382 -444l-159 -97v-47l231 35h359q64 0 64 -64v-105q0 -64 -64 -64h-724q-37 0 -63.5 26.5 t-26.5 63.5z" />
<glyph unicode="3" d="M95 64v105q0 64 65 64h309q229 0 229 204v32q0 209 -229 209h-178q-65 0 -65 64v85q0 64 65 64h158q213 0 213 200q0 150 -213 150h-288q-65 0 -65 64v105q0 64 65 64h438q154 0 261.5 -103.5t107.5 -255.5q0 -117 -87 -208q-58 -60 -164 -74v-60q38 -9 70 -19 q79 -26 118 -59q99 -82 99 -226v-67q0 -161 -114 -281.5t-271 -120.5h-459q-65 0 -65 64z" />
<glyph unicode="4" d="M55 461v219q5 28 8 31l376 723q21 40 75 40h310q37 0 63.5 -26.5t26.5 -63.5v-790h65q65 0 65 -64v-95q0 -64 -65 -64h-65v-291q0 -37 -26.5 -63.5t-63.5 -26.5h-96q-37 0 -63.5 26.5t-26.5 63.5v291h-493q-37 0 -63.5 26.5t-26.5 63.5zM249 559l191 35h198v380l34 266 h-96l-40 -177l-154 -325l-133 -107v-72z" />
<glyph unicode="5" d="M106 64v105q0 64 64 64h289q117 0 168 38q61 45 61 160v48q0 116 -61 163q-52 41 -168 41h-243q-37 0 -63.5 26.5t-26.5 63.5v611q0 37 26.5 63.5t63.5 26.5h645q64 0 64 -64v-105q0 -64 -64 -64h-439v-355h187q157 0 271 -123t114 -284v-48q0 -164 -113 -296 q-117 -135 -272 -135h-439q-64 0 -64 64z" />
<glyph unicode="6" d="M83 497v430q0 226 160.5 386.5t386.5 160.5h227q64 0 64 -64v-105q0 -64 -64 -64h-189q-120 0 -204.5 -84.5t-84.5 -204.5v-38h181q234 0 356 -149q101 -124 101 -308q0 -199 -94 -320q-114 -147 -353 -147h-40q-237 0 -354 167q-93 134 -93 340zM379 497q0 -139 36 -203 q41 -71 135 -71q171 0 171 234q0 225 -171 225h-171v-185z" />
<glyph unicode="7" d="M86 1305v105q0 64 65 64h773q37 0 63.5 -26.5t26.5 -63.5v-209q0 -12 -8 -31l-457 -1094q-24 -57 -84 -57h-121q-37 0 -63.5 26.5t-26.5 63.5q0 19 6 33l390 909l130 169v72l-161 -25h-468q-65 0 -65 64z" />
<glyph unicode="8" d="M70 392v27q0 189 172 299l115 45v60l-111 55q-82 67 -108 111q-32 54 -32 146q0 163 111 256q102 86 263 86h140q161 0 263 -86q111 -93 111 -256q0 -92 -32 -146q-26 -44 -108 -111l-111 -55v-60l115 -45q172 -110 172 -299v-27q0 -164 -111 -278q-116 -118 -299 -118 h-140q-183 0 -299 118q-111 114 -111 278zM356 402q0 -82 56.5 -140t137.5 -58t137.5 58t56.5 140v17q0 89 -96 174l-78 69h-40l-78 -69q-96 -85 -96 -174v-17zM382 1111q0 -66 70 -139l78 -81h40l78 81q70 73 70 139q0 158 -168 158t-168 -158z" />
<glyph unicode="9" d="M83 1017q0 199 94 320q114 147 353 147h40q237 0 354 -167q93 -134 93 -340v-430q0 -226 -160.5 -386.5t-386.5 -160.5h-227q-64 0 -64 64v105q0 64 64 64h189q120 0 204.5 84.5t84.5 204.5v38h-181q-234 0 -356 149q-101 124 -101 308zM379 1017q0 -225 171 -225h171 v185q0 139 -36 203q-41 71 -135 71q-171 0 -171 -234z" />
<glyph unicode=":" horiz-adv-x="616" d="M150 80v130q0 37 26.5 63.5t63.5 26.5h136q37 0 63.5 -26.5t26.5 -63.5v-130q0 -37 -26.5 -63.5t-63.5 -26.5h-136q-37 0 -63.5 26.5t-26.5 63.5zM150 896v130q0 37 26.5 63.5t63.5 26.5h136q37 0 63.5 -26.5t26.5 -63.5v-130q0 -37 -26.5 -63.5t-63.5 -26.5h-136 q-37 0 -63.5 26.5t-26.5 63.5z" />
<glyph unicode=";" horiz-adv-x="616" d="M49 -258q0 13 6 25l145 279v164q0 37 26.5 63.5t63.5 26.5h86q37 0 63.5 -26.5t26.5 -63.5v-143q0 -19 -10 -34l-215 -319q-15 -22 -42 -22h-100q-50 0 -50 50zM150 896v130q0 37 26.5 63.5t63.5 26.5h136q37 0 63.5 -26.5t26.5 -63.5v-130q0 -37 -26.5 -63.5 t-63.5 -26.5h-136q-37 0 -63.5 26.5t-26.5 63.5z" />
<glyph unicode="&#x3c;" horiz-adv-x="1075" d="M207 543v80h344l40 -68v-29l159 -275h17l28 -48v-85h-343zM207 659v80l245 425h343v-85l-28 -48h-17l-159 -275v-30l-40 -67h-344z" />
<glyph unicode="=" horiz-adv-x="1173" d="M174 426v80q0 64 64 64h697q64 0 64 -64v-80q0 -64 -64 -64h-697q-64 0 -64 64zM174 787v80q0 64 64 64h697q64 0 64 -64v-80q0 -64 -64 -64h-697q-64 0 -64 64z" />
<glyph unicode="&#x3e;" horiz-adv-x="1075" d="M207 118v85l28 48h17l159 275v29l40 68h344v-80l-245 -425h-343zM207 1079v85h343l245 -425v-80h-344l-40 67v30l-159 275h-17z" />
<glyph unicode="?" horiz-adv-x="1014" d="M80 1305v105q0 64 64 64h349q176 0 298 -113q123 -116 123 -288q0 -153 -105 -267l-251 -271q-33 -36 -86 -36q-51 0 -87 36t-36 87q0 40 23 71l204 278q43 58 43 112q0 65 -46.5 111.5t-111.5 46.5h-316q-65 0 -65 64zM310 80v130q0 37 26.5 63.5t63.5 26.5h136 q37 0 63.5 -26.5t26.5 -63.5v-130q0 -37 -26.5 -63.5t-63.5 -26.5h-136q-37 0 -63.5 26.5t-26.5 63.5z" />
<glyph unicode="@" horiz-adv-x="1684" d="M180 318v294q0 289 204 493t493 204t493 -204t204 -493v-518q0 -38 -29 -66t-69 -28h-599q-142 0 -242.5 96t-100.5 233v264q0 137 100.5 233t242.5 96t242.5 -96t100.5 -233v-422h158v466q0 208 -146.5 354.5t-354.5 146.5t-354.5 -146.5t-146.5 -354.5v-344 q0 -207 147 -354t355 -147h275q51 0 51 -51v-68q0 -52 -51 -52h-275q-289 0 -493.5 204t-204.5 493zM730 312q0 -58 43 -99.5t104 -41.5h147v439q0 59 -43 100t-104 41t-104 -41.5t-43 -99.5v-298z" />
<glyph unicode="A" horiz-adv-x="1210" d="M30 90q0 9 4 24l329 1267q24 93 119 93h246q95 0 119 -93l329 -1267q4 -15 4 -24q0 -37 -26.5 -63.5t-63.5 -26.5h-112q-72 0 -88 71l-72 324h-426l-72 -324q-16 -71 -88 -71h-112q-37 0 -63.5 26.5t-26.5 63.5zM418 599h374v60l-58 125l-54 261l-18 195h-114l-19 -195 l-53 -261l-58 -125v-60z" />
<glyph unicode="B" horiz-adv-x="1260" d="M160 90v1294q0 37 26.5 63.5t63.5 26.5h505q154 0 261.5 -103.5t107.5 -255.5q0 -117 -87 -208q-58 -60 -164 -74v-60q34 -9 63 -20q71 -26 107 -57q117 -101 117 -227v-67q0 -161 -114 -281.5t-271 -120.5h-525q-37 0 -63.5 26.5t-26.5 63.5zM456 223h169q229 0 229 209 v37q0 107 -61.5 170t-167.5 63h-169v-479zM456 896h159q203 0 203 189q0 170 -203 170h-159v-359z" />
<glyph unicode="C" horiz-adv-x="959" d="M100 529v416q0 206 143 366q147 163 346 163h248q64 0 64 -64v-105q0 -64 -64 -64h-118q-147 0 -232 -83q-81 -81 -81 -213v-416q0 -131 81 -211q86 -85 232 -85h136q64 0 64 -64v-105q0 -64 -64 -64h-266q-199 0 -346 163q-143 160 -143 366z" />
<glyph unicode="D" horiz-adv-x="1278" d="M160 90v1294q0 37 26.5 63.5t63.5 26.5h371q239 0 398 -159t159 -398v-360q0 -239 -159 -398t-398 -159h-371q-37 0 -63.5 26.5t-26.5 63.5zM456 228l115 -5h21q146 0 213 91q67 90 67 285v276q0 194 -67 285t-213 91h-21l-115 -5v-1018z" />
<glyph unicode="E" horiz-adv-x="1046" d="M160 90v1294q0 37 26.5 63.5t63.5 26.5h672q64 0 64 -64v-105q0 -64 -64 -64h-466v-350h421q64 0 64 -64v-105q0 -64 -64 -64h-421v-425h476q64 0 64 -64v-105q0 -64 -64 -64h-682q-37 0 -63.5 26.5t-26.5 63.5z" />
<glyph unicode="F" horiz-adv-x="1036" d="M160 83v1301q0 37 26.5 63.5t63.5 26.5h672q64 0 64 -64v-105q0 -64 -64 -64h-466v-350h421q64 0 64 -64v-105q0 -64 -64 -64h-421v-575q0 -37 -26.5 -63.5t-63.5 -26.5h-116q-37 0 -63.5 26.5t-26.5 63.5z" />
<glyph unicode="G" horiz-adv-x="1264" d="M100 457v488q0 206 143 366q147 163 346 163h431q64 0 64 -64v-105q0 -64 -64 -64h-321q-303 0 -303 -296v-478q0 -244 251 -244q117 0 181 10v384h-146q-64 0 -64 64v105q0 64 64 64h352q37 0 63.5 -26.5t26.5 -63.5v-582q0 -74 -52 -126t-126 -52h-429q-169 0 -295 142 q-122 139 -122 315z" />
<glyph unicode="H" horiz-adv-x="1345" d="M160 83v1308q0 37 26.5 63.5t63.5 26.5h116q37 0 63.5 -26.5t26.5 -63.5v-489h433v489q0 37 26.5 63.5t63.5 26.5h116q37 0 63.5 -26.5t26.5 -63.5v-1308q0 -37 -26.5 -63.5t-63.5 -26.5h-116q-37 0 -63.5 26.5t-26.5 63.5v586h-433v-586q0 -37 -26.5 -63.5t-63.5 -26.5 h-116q-37 0 -63.5 26.5t-26.5 63.5z" />
<glyph unicode="I" horiz-adv-x="616" d="M160 83v1308q0 37 26.5 63.5t63.5 26.5h116q37 0 63.5 -26.5t26.5 -63.5v-1308q0 -37 -26.5 -63.5t-63.5 -26.5h-116q-37 0 -63.5 26.5t-26.5 63.5z" />
<glyph unicode="J" horiz-adv-x="827" d="M0 64v105q0 64 64 64h149q69 0 113.5 34.5t44.5 97.5v1026q0 37 26.5 63.5t63.5 26.5h116q37 0 63.5 -26.5t26.5 -63.5v-1026q0 -163 -92 -262q-95 -103 -262 -103h-249q-64 0 -64 64z" />
<glyph unicode="K" horiz-adv-x="1182" d="M150 83v1308q0 37 26.5 63.5t63.5 26.5h116q37 0 63.5 -26.5t26.5 -63.5v-385l-10 -178h59l370 612q25 41 76 41h114q37 0 63.5 -26.5t26.5 -63.5q0 -25 -12 -45l-284 -472l-136 -92v-78l136 -89l290 -485q13 -22 13 -47q0 -37 -26.5 -63.5t-63.5 -26.5h-122 q-51 0 -77 44l-368 619h-59l10 -170v-403q0 -37 -26.5 -63.5t-63.5 -26.5h-116q-37 0 -63.5 26.5t-26.5 63.5z" />
<glyph unicode="L" horiz-adv-x="938" d="M160 63v1328q0 37 26.5 63.5t63.5 26.5h116q37 0 63.5 -26.5t26.5 -63.5v-1158h408q64 0 64 -64v-105q0 -64 -64 -64h-641q-25 0 -44 19t-19 44z" />
<glyph unicode="M" horiz-adv-x="1706" d="M160 80v1304q0 37 26.5 63.5t63.5 26.5h243q60 0 83 -56l213 -511l32 -203h64l32 203l213 511q23 56 83 56h243q37 0 63.5 -26.5t26.5 -63.5v-1304q0 -37 -26.5 -63.5t-63.5 -26.5h-99q-37 0 -63.5 26.5t-26.5 63.5v708l67 379h-64l-120 -326l-161 -366q-23 -52 -82 -52 h-108q-59 0 -82 52l-161 366l-120 326h-64l67 -379v-708q0 -37 -26.5 -63.5t-63.5 -26.5h-99q-37 0 -63.5 26.5t-26.5 63.5z" />
<glyph unicode="N" horiz-adv-x="1497" d="M160 80v1304q0 37 26.5 63.5t63.5 26.5h228q56 0 78 -45l371 -758l104 -345h54l-26 345v723q0 37 26.5 63.5t63.5 26.5h98q37 0 63.5 -26.5t26.5 -63.5v-1304q0 -37 -26.5 -63.5t-63.5 -26.5h-228q-56 0 -78 45l-376 758l-109 345h-54l36 -345v-723q0 -37 -26.5 -63.5 t-63.5 -26.5h-98q-37 0 -63.5 26.5t-26.5 63.5z" />
<glyph unicode="O" horiz-adv-x="1240" d="M100 452v570q0 190 113 317q120 135 317 135h180q197 0 317 -135q113 -127 113 -317v-570q0 -190 -113 -317q-120 -135 -317 -135h-180q-197 0 -317 135q-113 127 -113 317zM396 462q0 -119 60.5 -184t163.5 -65t163.5 65.5t60.5 183.5v550q0 118 -61 185q-60 64 -163 64 t-163 -64q-61 -67 -61 -185v-550z" />
<glyph unicode="P" horiz-adv-x="1204" d="M160 83v1301q0 37 26.5 63.5t63.5 26.5h470q157 0 270.5 -121t113.5 -282v-129q0 -161 -113.5 -281t-270.5 -120h-264v-458q0 -37 -26.5 -63.5t-63.5 -26.5h-116q-37 0 -63.5 26.5t-26.5 63.5zM456 764h164q178 0 178 178v129q0 180 -178 180h-164v-487z" />
<glyph unicode="Q" horiz-adv-x="1240" d="M100 452v570q0 190 113 317q120 135 317 135h180q197 0 317 -135q113 -127 113 -317v-570q0 -175 -98 -299q-102 -130 -274 -150v-198q0 -37 -26.5 -64t-63.5 -27h-106q-37 0 -63.5 26.5t-26.5 63.5v198q-176 17 -282 148q-100 125 -100 302zM396 462q0 -119 60.5 -184 t163.5 -65t163.5 65.5t60.5 183.5v550q0 118 -61 185q-60 64 -163 64t-163 -64q-61 -67 -61 -185v-550z" />
<glyph unicode="R" horiz-adv-x="1245" d="M160 83v1301q0 37 26.5 63.5t63.5 26.5h484q170 0 286 -110q121 -114 121 -296q0 -169 -84.5 -282.5t-212.5 -123.5l-25 -2l-8 -40l137 -70l206 -404q11 -23 11 -48q0 -43 -31 -74t-74 -31h-100q-57 0 -81 51l-275 589h-148v-550q0 -37 -26.5 -63.5t-63.5 -26.5h-116 q-37 0 -63.5 26.5t-26.5 63.5zM456 831h221q168 0 168 222q0 198 -188 198h-201v-420z" />
<glyph unicode="S" horiz-adv-x="960" d="M60 64v105q0 64 64 64h362q54 0 92 38t38 92q0 67 -39 103l-406 371q-108 99 -108 263q0 155 109.5 264.5t264.5 109.5h327q64 0 64 -64v-105q0 -64 -64 -64h-297q-50 0 -85 -35t-35 -85q0 -63 34 -94l434 -396q41 -37 69 -112q26 -71 26 -135q0 -159 -112.5 -271.5 t-271.5 -112.5h-402q-64 0 -64 64z" />
<glyph unicode="T" horiz-adv-x="1028" d="M40 1305v105q0 64 64 64h820q64 0 64 -64v-105q0 -64 -64 -64h-262v-1158q0 -37 -26.5 -63.5t-63.5 -26.5h-116q-37 0 -63.5 26.5t-26.5 63.5v1158h-262q-64 0 -64 64z" />
<glyph unicode="U" horiz-adv-x="1334" d="M160 452v939q0 37 26.5 63.5t63.5 26.5h116q37 0 63.5 -26.5t26.5 -63.5v-939q0 -219 211 -219t211 219v939q0 37 26.5 63.5t63.5 26.5h116q37 0 63.5 -26.5t26.5 -63.5v-939q0 -180 -128 -314q-132 -138 -321 -138h-120q-189 0 -319 138q-126 134 -126 314z" />
<glyph unicode="V" horiz-adv-x="1208" d="M20 1391q0 37 26.5 63.5t63.5 26.5h124q69 0 87 -67l221 -830l38 -333h48l38 333l221 830q18 67 87 67h124q37 0 63.5 -26.5t26.5 -63.5q0 -12 -3 -22l-383 -1290q-23 -79 -96 -79h-204q-73 0 -96 79l-383 1290q-3 10 -3 22z" />
<glyph unicode="W" horiz-adv-x="2004" d="M30 1391q0 37 26.5 63.5t63.5 26.5h94q73 0 88 -69l186 -848l24 -323h68l24 323l223 841q18 69 88 69h174q70 0 88 -69l223 -841l24 -323h68l24 323l186 848q15 69 88 69h94q37 0 63.5 -26.5t26.5 -63.5q0 -10 -3 -22l-315 -1289q-20 -80 -98 -80h-192q-77 0 -97 74 l-188 695l-45 354h-68l-45 -354l-188 -695q-20 -74 -97 -74h-192q-78 0 -98 80l-315 1289q-3 12 -3 22z" />
<glyph unicode="X" horiz-adv-x="1176" d="M50 1391q0 37 26.5 63.5t63.5 26.5h119q56 0 80 -48l191 -377l24 -173h68l24 173l191 377q24 48 80 48h119q37 0 63.5 -26.5t26.5 -63.5q0 -23 -11 -43l-333 -616l334 -609q9 -16 9 -40q0 -37 -26.5 -63.5t-63.5 -26.5h-118q-56 0 -80 48l-191 377l-24 173h-68l-24 -173 l-191 -377q-24 -48 -80 -48h-118q-37 0 -63.5 26.5t-26.5 63.5q0 24 9 40l334 609l-333 616q-11 20 -11 43z" />
<glyph unicode="Y" horiz-adv-x="1128" d="M35 1384q0 37 26.5 63.5t63.5 26.5h112q64 0 84 -58l188 -540l14 -153h82l14 153l188 540q20 58 84 58h112q37 0 63.5 -26.5t26.5 -63.5q0 -15 -9 -38l-289 -747q-15 -40 -83 -57v-459q0 -37 -26.5 -63.5t-63.5 -26.5h-116q-37 0 -63.5 26.5t-26.5 63.5v459 q-68 17 -83 57l-289 747q-9 23 -9 38z" />
<glyph unicode="Z" horiz-adv-x="1057" d="M70 90v210q0 25 8 38l499 789l160 79v64l-234 -29h-354q-64 0 -64 64v105q0 64 64 64h718q37 0 63.5 -26.5t26.5 -63.5v-175q0 -23 -7 -34l-517 -823l-139 -82v-67l211 30h428q64 0 64 -64v-105q0 -64 -64 -64h-773q-37 0 -63.5 26.5t-26.5 63.5z" />
<glyph unicode="[" horiz-adv-x="771" d="M160 -121v1717q0 25 19 44t44 19h359q49 0 49 -49v-86q0 -49 -49 -49h-194v-1475h194q49 0 49 -49v-86q0 -49 -49 -49h-359q-25 0 -44 19t-19 44z" />
<glyph unicode="\" horiz-adv-x="905" d="M50 1421q0 53 57 53h109q34 0 48 -33l586 -1365q5 -12 5 -24q0 -53 -57 -53h-109q-33 0 -47 33l-586 1366q-6 14 -6 23z" />
<glyph unicode="]" horiz-adv-x="771" d="M140 -49q0 49 49 49h194v1475h-194q-49 0 -49 49v86q0 49 49 49h359q25 0 44 -19t19 -44v-1717q0 -25 -19 -44t-44 -19h-359q-49 0 -49 49v86z" />
<glyph unicode="^" horiz-adv-x="1089" d="M64 642q0 18 7 35l307 758q5 12 25.5 25.5t33.5 13.5h215q13 0 33.5 -13.5t25.5 -25.5l307 -758q7 -17 7 -35q0 -37 -26.5 -63.5t-63.5 -26.5h-64q-71 0 -95 64l-162 427l-38 230h-63l-38 -230l-162 -427q-24 -64 -95 -64h-64q-37 0 -63.5 26.5t-26.5 63.5z" />
<glyph unicode="_" horiz-adv-x="922" d="M-64 -122q0 64 64 64h922q64 0 64 -64v-80q0 -64 -64 -64h-922q-64 0 -64 64v80z" />
<glyph unicode="`" horiz-adv-x="700" d="M135 1469q0 19 7 31l37 62q20 34 57 34q18 0 31 -8l258 -157q40 -24 40 -69q0 -18 -10 -38l-5 -10q-19 -39 -69 -39q-17 0 -39 10l-273 126q-34 16 -34 58z" />
<glyph unicode="a" horiz-adv-x="1150" d="M29 86q0 8 3 22l313 1204q23 88 113 88h234q90 0 113 -88l312 -1204q4 -14 4 -22q0 -36 -25 -61t-60 -25h-107q-68 0 -83 67l-69 308h-405l-68 -308q-15 -67 -84 -67h-106q-35 0 -60 25t-25 61zM397 569h355v57l-55 119l-51 248l-17 185h-108l-18 -185l-51 -248l-55 -119 v-57z" />
<glyph unicode="b" horiz-adv-x="1197" d="M152 86v1229q0 35 25 60t61 25h479q147 0 249 -98t102 -243q0 -111 -83 -197q-55 -57 -156 -71v-57q33 -8 60 -19q68 -24 102 -54q111 -96 111 -215v-64q0 -153 -108.5 -267.5t-257.5 -114.5h-498q-36 0 -61 25t-25 61zM433 212h161q217 0 217 198v36q0 101 -58.5 161 t-158.5 60h-161v-455zM433 851h151q193 0 193 180q0 161 -193 161h-151v-341z" />
<glyph unicode="c" horiz-adv-x="911" d="M95 503v395q0 195 136 347q140 155 329 155h235q61 0 61 -60v-100q0 -61 -61 -61h-112q-140 0 -220 -79q-77 -77 -77 -202v-395q0 -125 77 -201q81 -81 220 -81h129q61 0 61 -60v-100q0 -61 -61 -61h-252q-189 0 -329 155q-136 152 -136 348z" />
<glyph unicode="d" horiz-adv-x="1214" d="M152 86v1229q0 35 25 60t61 25h352q227 0 378 -151t151 -378v-342q0 -227 -151 -378t-378 -151h-352q-36 0 -61 25t-25 61zM433 217l109 -5h21q138 0 202 86q63 86 63 271v262q0 185 -63 271q-64 86 -202 86h-21l-109 -4v-967z" />
<glyph unicode="e" horiz-adv-x="994" d="M152 86v1229q0 35 25 60t61 25h638q61 0 61 -60v-100q0 -61 -61 -61h-443v-333h400q61 0 61 -60v-100q0 -61 -61 -61h-400v-404h452q61 0 61 -60v-100q0 -61 -61 -61h-647q-36 0 -61 25t-25 61z" />
<glyph unicode="f" horiz-adv-x="984" d="M152 79v1236q0 35 25 60t61 25h638q61 0 61 -60v-100q0 -61 -61 -61h-443v-333h400q61 0 61 -60v-100q0 -61 -61 -61h-400v-546q0 -35 -25 -60.5t-60 -25.5h-110q-36 0 -61 25.5t-25 60.5z" />
<glyph unicode="g" horiz-adv-x="1201" d="M95 434v464q0 195 136 347q140 155 329 155h409q61 0 61 -60v-100q0 -61 -61 -61h-305q-288 0 -288 -281v-454q0 -232 239 -232q111 0 172 9v365h-139q-61 0 -61 61v100q0 61 61 61h334q35 0 60.5 -25.5t25.5 -60.5v-553q0 -70 -49.5 -119.5t-119.5 -49.5h-408 q-160 0 -280 135q-116 132 -116 299z" />
<glyph unicode="h" horiz-adv-x="1278" d="M152 79v1242q0 36 25 61t61 25h110q35 0 60 -25t25 -61v-464h412v464q0 36 25 61t60 25h110q35 0 60.5 -25t25.5 -61v-1242q0 -35 -25.5 -60.5t-60.5 -25.5h-110q-35 0 -60 25.5t-25 60.5v557h-412v-557q0 -35 -25 -60.5t-60 -25.5h-110q-36 0 -61 25.5t-25 60.5z" />
<glyph unicode="i" horiz-adv-x="585" d="M152 79v1242q0 36 25 61t61 25h110q35 0 60 -25t25 -61v-1242q0 -35 -25 -60.5t-60 -25.5h-110q-36 0 -61 25.5t-25 60.5z" />
<glyph unicode="j" horiz-adv-x="786" d="M0 61v100q0 60 61 60h141q66 0 108 33t42 93v974q0 36 25.5 61t60.5 25h110q35 0 60.5 -25t25.5 -61v-974q0 -155 -88 -249q-90 -98 -249 -98h-236q-61 0 -61 61z" />
<glyph unicode="k" horiz-adv-x="1123" d="M143 79v1242q0 36 25 61t60 25h110q35 0 60.5 -25t25.5 -61v-365l-10 -169h56l352 581q24 39 72 39h108q35 0 60.5 -25t25.5 -61q0 -23 -12 -42l-269 -449l-130 -87v-74l130 -85l275 -460q12 -21 12 -45q0 -35 -25 -60.5t-60 -25.5h-116q-48 0 -73 42l-350 588h-56 l10 -161v-383q0 -35 -25.5 -60.5t-60.5 -25.5h-110q-35 0 -60 25.5t-25 60.5z" />
<glyph unicode="l" horiz-adv-x="891" d="M152 60v1261q0 36 25 61t61 25h110q35 0 60 -25t25 -61v-1100h388q61 0 61 -60v-100q0 -61 -61 -61h-609q-24 0 -42 18t-18 42z" />
<glyph unicode="m" horiz-adv-x="1621" d="M152 76v1239q0 35 25 60t61 25h230q57 0 79 -53l203 -485l30 -193h61l30 193l203 485q21 53 78 53h231q35 0 60.5 -25t25.5 -60v-1239q0 -35 -25.5 -60.5t-60.5 -25.5h-94q-35 0 -60 25.5t-25 60.5v673l63 360h-60l-114 -310l-153 -348q-22 -49 -78 -49h-103 q-56 0 -78 49l-153 348l-114 310h-61l64 -360v-673q0 -35 -25 -60.5t-60 -25.5h-94q-36 0 -61 25.5t-25 60.5z" />
<glyph unicode="n" horiz-adv-x="1422" d="M152 76v1239q0 35 25 60t61 25h216q53 0 74 -42l353 -721l98 -327h52l-25 327v687q0 35 25 60.5t61 25.5h93q35 0 60 -25.5t25 -60.5v-1238q0 -36 -25 -61t-60 -25h-217q-53 0 -74 43l-357 720l-104 328h-51l34 -328v-687q0 -35 -25 -60.5t-60 -25.5h-93q-36 0 -61 25.5 t-25 60.5z" />
<glyph unicode="o" horiz-adv-x="1178" d="M95 429v542q0 180 107 301q114 128 302 128h171q187 0 301 -128q107 -121 107 -301v-542q0 -180 -107 -301q-114 -128 -301 -128h-171q-188 0 -302 128q-107 121 -107 301zM376 439q0 -113 57.5 -175t155.5 -62t155.5 62.5t57.5 174.5v522q0 113 -58 176q-57 61 -155 61 t-155 -61q-58 -63 -58 -176v-522z" />
<glyph unicode="p" horiz-adv-x="1144" d="M152 79v1236q0 35 25 60t61 25h446q149 0 257 -115t108 -268v-122q0 -153 -108 -267t-257 -114h-251v-435q0 -35 -25 -60.5t-60 -25.5h-110q-36 0 -61 25.5t-25 60.5zM433 726h156q169 0 169 169v122q0 171 -169 171h-156v-462z" />
<glyph unicode="q" horiz-adv-x="1178" d="M95 429v542q0 180 107 301q114 128 302 128h171q187 0 301 -128q107 -121 107 -301v-542q0 -166 -93 -284q-97 -123 -260 -142v-188q0 -35 -25.5 -61t-60.5 -26h-101q-35 0 -60 25.5t-25 60.5v188q-167 16 -268 141q-95 118 -95 286zM376 439q0 -113 57.5 -175t155.5 -62 t155.5 62.5t57.5 174.5v522q0 113 -58 176q-57 61 -155 61t-155 -61q-58 -63 -58 -176v-522z" />
<glyph unicode="r" horiz-adv-x="1183" d="M152 79v1236q0 35 25 60t61 25h459q162 0 272 -104q115 -108 115 -281q0 -161 -80.5 -269t-201.5 -117l-24 -2l-8 -38l131 -66l195 -384q11 -22 11 -46q0 -41 -29.5 -70.5t-70.5 -29.5h-95q-54 0 -77 49l-261 559h-141v-522q0 -35 -25 -60.5t-60 -25.5h-110 q-36 0 -61 25.5t-25 60.5zM433 789h210q160 0 160 211q0 188 -179 188h-191v-399z" />
<glyph unicode="s" horiz-adv-x="912" d="M57 61v100q0 60 61 60h344q51 0 87 36.5t36 87.5q0 64 -37 98l-386 352q-102 94 -102 250q0 147 104 251t251 104h311q61 0 61 -60v-100q0 -61 -61 -61h-282q-48 0 -81 -33.5t-33 -80.5q0 -60 32 -89l412 -377q39 -35 66 -106q25 -67 25 -128q0 -151 -107 -258t-258 -107 h-382q-61 0 -61 61z" />
<glyph unicode="t" horiz-adv-x="977" d="M38 1240v100q0 60 61 60h779q61 0 61 -60v-100q0 -61 -61 -61h-249v-1100q0 -35 -25 -60.5t-61 -25.5h-110q-35 0 -60 25.5t-25 60.5v1100h-249q-61 0 -61 61z" />
<glyph unicode="u" horiz-adv-x="1267" d="M152 429v892q0 36 25 61t61 25h110q35 0 60 -25t25 -61v-892q0 -208 201 -208q200 0 200 208v892q0 36 25 61t61 25h110q35 0 60 -25t25 -61v-892q0 -171 -121 -298q-126 -131 -305 -131h-114q-180 0 -303 131q-120 127 -120 298z" />
<glyph unicode="v" horiz-adv-x="1148" d="M19 1321q0 36 25 61t61 25h117q66 0 83 -64l210 -788l36 -317h46l36 317l210 788q17 64 82 64h118q35 0 60.5 -25t25.5 -61q0 -11 -3 -20l-364 -1226q-22 -75 -91 -75h-194q-69 0 -91 75l-364 1226q-3 9 -3 20z" />
<glyph unicode="w" horiz-adv-x="1904" d="M29 1321q0 36 25 61t60 25h89q70 0 84 -66l177 -805l22 -307h65l23 307l212 799q17 65 83 65h166q66 0 83 -65l212 -799l23 -307h64l23 307l177 805q14 66 84 66h89q35 0 60 -25t25 -61q0 -9 -3 -20l-299 -1225q-19 -76 -93 -76h-182q-73 0 -92 70l-179 661l-43 336h-64 l-43 -336l-179 -661q-19 -70 -92 -70h-182q-74 0 -93 76l-300 1225q-2 11 -2 20z" />
<glyph unicode="x" horiz-adv-x="1117" d="M48 79q0 23 9 38l317 578l-316 586q-10 19 -10 40q0 36 25 61t60 25h113q53 0 76 -46l182 -358l22 -164h65l23 164l181 358q23 46 76 46h113q35 0 60.5 -25t25.5 -61q0 -21 -11 -40l-316 -586l317 -578q9 -15 9 -38q0 -35 -25.5 -60.5t-60.5 -25.5h-112q-53 0 -76 46 l-181 358l-23 164h-65l-22 -164l-182 -358q-23 -46 -76 -46h-112q-35 0 -60.5 25.5t-25.5 60.5z" />
<glyph unicode="y" horiz-adv-x="1072" d="M33 1315q0 35 25.5 60t60.5 25h106q61 0 80 -55l179 -513l13 -145h78l13 145l179 513q19 55 79 55h107q35 0 60 -25t25 -60q0 -14 -8 -36l-275 -710q-14 -38 -79 -54v-436q0 -35 -25 -60.5t-60 -25.5h-110q-35 0 -60.5 25.5t-25.5 60.5v436q-64 16 -79 54l-274 710 q-9 22 -9 36z" />
<glyph unicode="z" horiz-adv-x="1004" d="M67 86v199q0 24 7 36l474 750l152 75v61l-222 -28h-336q-61 0 -61 61v100q0 60 61 60h682q35 0 60 -25t25 -60v-166q0 -22 -6 -33l-492 -782l-132 -77v-64l201 28h406q61 0 61 -60v-100q0 -61 -61 -61h-734q-35 0 -60 25t-25 61z" />
<glyph unicode="{" horiz-adv-x="901" d="M130 701v69q0 47 72 72l17 6q112 40 112 113v459q0 99 70 169t169 70h152q49 0 49 -49v-86q0 -49 -49 -49h-84q-34 0 -58.5 -24.5t-24.5 -58.5v-480q0 -125 -149 -149v-55q149 -24 149 -149v-480q0 -34 24.5 -58.5t58.5 -24.5h84q49 0 49 -49v-86q0 -49 -49 -49h-152 q-99 0 -169 70t-70 169v459q0 73 -112 113l-17 6q-72 25 -72 72z" />
<glyph unicode="|" horiz-adv-x="816" d="M300 -369v2212q0 54 54 54h108q54 0 54 -54v-2212q0 -54 -54 -54h-108q-54 0 -54 54z" />
<glyph unicode="}" horiz-adv-x="901" d="M130 -53q0 49 49 49h84q34 0 58.5 24.5t24.5 58.5v480q0 125 149 149v55q-149 24 -149 149v480q0 34 -24.5 58.5t-58.5 24.5h-84q-49 0 -49 49v86q0 49 49 49h152q99 0 169 -70t70 -169v-459q0 -73 112 -113l17 -6q72 -25 72 -72v-69q0 -47 -72 -72l-17 -6 q-112 -40 -112 -113v-459q0 -99 -70 -169t-169 -70h-152q-49 0 -49 49v86z" />
<glyph unicode="~" horiz-adv-x="1398" d="M184 597v284q0 93 66 159t159 66h108q115 0 180 -91l194 -272q19 -25 49 -25q58 0 58 60v252q0 67 67 67h82q67 0 67 -67v-284q0 -93 -66 -159t-159 -66h-108q-114 0 -184 97l-192 266q-17 24 -47 24q-58 0 -58 -58v-253q0 -67 -67 -67h-82q-67 0 -67 67z" />
<glyph unicode="&#xa1;" horiz-adv-x="1366" d="M19 1205v249h578l710 -1227v-230h-588z" />
<glyph unicode="&#xa2;" horiz-adv-x="4426" d="M75 262v868h4280v-868h-4280zM255 406h200v156q0 27 -4.5 54.5t-7.5 57.5h4l152 -268h224v564h-196v-140q0 -36 5.5 -73.5t14.5 -70.5h-8l-156 284h-228v-564zM915 406h204v196h152v148h-152v60h172v160h-376v-564zM1375 406h380v184h-172v384h-208v-568zM1879 322h792 v740h-792v-740zM1955 682q0 30 12 55.5t32 44.5t47 29.5t57 10.5t57 -10.5t47 -29.5t32 -44.5t12 -55.5t-12 -55.5t-32 -44.5t-47 -29.5t-57 -10.5t-57 10.5t-47 29.5t-32 44.5t-12 55.5zM2027 682q0 -30 23 -51t53 -21q33 0 56.5 21t23.5 51t-22 53t-58 23q-33 0 -54.5 -23 t-21.5 -53zM2283 550v268h80l136 -164v164h68v-268h-76l-136 164v-164h-72zM2783 374h176v200h172v172h-172v84h212l-12 172h-376v-628zM3167 686q0 -63 23.5 -118.5t64 -96.5t95 -65t117.5 -24q62 0 115.5 24t94 65t63.5 96.5t23 118.5t-23 118.5t-63.5 96.5t-94 65 t-115.5 24q-63 0 -117.5 -24t-95 -65t-64 -96.5t-23.5 -118.5zM3415 562v248q0 24 15.5 40t36.5 16t36.5 -16t15.5 -40v-248q0 -21 -15.5 -36.5t-36.5 -15.5t-36.5 15.5t-15.5 36.5zM3675 374h192l88 160l92 -160h196l-188 324l172 300h-188l-80 -132l-80 132h-192l172 -300 z" />
<glyph unicode="&#xa3;" d="M80 742v105q0 64 64 64h108v105q0 190 134 324t324 134h246q64 0 64 -64v-105q0 -64 -64 -64h-183q-93 0 -159 -66t-66 -159v-105h208q64 0 64 -64v-105q0 -64 -64 -64h-208v-445h408q64 0 64 -64v-105q0 -64 -64 -64h-806q-64 0 -64 64v105q0 64 64 64h102v445h-108 q-64 0 -64 64z" />
<glyph unicode="&#xa4;" horiz-adv-x="1299" d="M60 549v70q0 64 64 64h116v103h-116q-64 0 -64 64v70q0 64 64 64h116v38q0 190 113 317q120 135 317 135h180q233 0 352 -179q23 -33 23 -74q0 -57 -35 -96t-90 -39q-80 0 -120 74q-49 91 -220 91q-105 0 -168 -59q-66 -64 -66 -180v-28h255q64 0 64 -64v-70 q0 -64 -64 -64h-255v-103h255q64 0 64 -64v-70q0 -64 -64 -64h-255v-23q0 -117 66 -180q62 -59 168 -59q171 0 221 92q39 72 119 72q55 0 90 -39t35 -95q0 -39 -24 -74q-120 -179 -351 -179h-180q-197 0 -317 135q-113 127 -113 317v33h-116q-64 0 -64 64z" />
<glyph unicode="&#xa5;" horiz-adv-x="1218" d="M60 1384q0 37 26.5 63.5t63.5 26.5h122q48 0 84 -58l130 -208l72 -204h102l72 204l130 208q36 58 84 58h122q37 0 63.5 -26.5t26.5 -63.5q0 -24 -9 -38l-304 -466q-29 -45 -93 -57v-59h246q64 0 64 -64v-70q0 -64 -64 -64h-246v-103h246q64 0 64 -64v-70q0 -64 -64 -64 h-246v-182q0 -37 -26.5 -63.5t-63.5 -26.5h-106q-37 0 -63.5 26.5t-26.5 63.5v182h-245q-64 0 -64 64v70q0 64 64 64h245v103h-245q-64 0 -64 64v70q0 64 64 64h245v59q-64 12 -93 57l-304 466q-9 14 -9 38z" />
<glyph unicode="&#xa6;" horiz-adv-x="816" d="M300 -369v868q0 54 54 54h108q54 0 54 -54v-868q0 -54 -54 -54h-108q-54 0 -54 54zM300 984v859q0 54 54 54h108q54 0 54 -54v-859q0 -54 -54 -54h-108q-54 0 -54 54z" />
<glyph unicode="&#xa7;" horiz-adv-x="1095" d="M90 701q0 131 95 228q-73 91 -73 205q0 142 108.5 241t260.5 99h383q64 0 64 -64v-105q0 -64 -64 -64h-353q-103 0 -103 -97q0 -45 48 -68l343 -162q91 -43 148.5 -134t57.5 -191q0 -131 -95 -228q72 -90 72 -205q0 -142 -108 -241t-260 -99h-403q-64 0 -64 64v105 q0 64 64 64l373 -1q102 0 102 98q0 46 -47 68l-343 161q-91 43 -148.5 134.5t-57.5 191.5zM346 701q0 -63 59 -89l182 -80l89 -81h61q12 94 12 138q0 64 -59 90l-199 87l-70 73h-61q-14 -95 -14 -138z" />
<glyph unicode="&#xa8;" horiz-adv-x="968" d="M184 1408q0 108 98 108h57q98 0 98 -108t-98 -108h-57q-98 0 -98 108zM530 1408q0 108 98 108h58q98 0 98 -108t-98 -108h-58q-98 0 -98 108z" />
<glyph unicode="&#xa9;" horiz-adv-x="1735" d="M120 737q0 309 219 528t529 219q309 0 528 -219t219 -528t-219 -528t-528 -219q-310 0 -529 219t-219 528zM290 737q0 -239 169.5 -408t408.5 -169t408 169t169 408t-169 408t-408 169t-408.5 -169t-169.5 -408zM435 737q0 186 120 315q123 133 305 133q198 0 330 -169 q23 -30 23 -66q0 -44 -31.5 -75t-73.5 -31q-39 0 -107 70q-60 61 -141 61q-90 0 -146.5 -66.5t-56.5 -171.5t56.5 -171.5t146.5 -66.5q98 0 169 90q30 40 78 40q41 0 73.5 -30t32.5 -75q0 -36 -23 -66q-132 -169 -330 -169q-182 0 -305 133q-120 129 -120 315z" />
<glyph unicode="&#xaa;" horiz-adv-x="883" d="M50 833q0 118 85 202t206 84h184v43q0 127 -151 127h-166q-61 0 -61 60v65q0 60 61 60h266q123 0 211 -86.5t88 -208.5v-556q0 -31 -23 -53t-54 -22h-66q-32 0 -54 22t-22 53v70h-55l-46 -102q-50 -45 -159 -45q-97 0 -168 79q-76 84 -76 208zM287 852q0 -120 104 -120 q92 0 134 106v133h-117q-51 0 -86 -35t-35 -84z" />
<glyph unicode="&#xab;" horiz-adv-x="1263" d="M116 457v80h345l39 -68v-29l159 -275h17l27 -48v-85h-341zM116 573v80l246 425h341v-85l-27 -48h-17l-159 -275v-30l-39 -67h-345zM555 457v80h344l40 -68v-29l159 -275h17l28 -48v-85h-343zM555 573v80l245 425h343v-85l-28 -48h-17l-159 -275v-30l-40 -67h-344z" />
<glyph unicode="&#xac;" horiz-adv-x="955" d="M100 589v120q0 64 64 64h607q64 0 64 -64v-430q0 -64 -64 -64h-120q-64 0 -64 64v246h-423q-64 0 -64 64z" />
<glyph unicode="&#xad;" horiz-adv-x="795" d="M70 589v120q0 64 64 64h527q64 0 64 -64v-120q0 -64 -64 -64h-527q-64 0 -64 64z" />
<glyph unicode="&#xae;" horiz-adv-x="982" d="M50 1062q0 183 129.5 312t311.5 129q183 0 312 -129.5t129 -311.5t-129 -311t-312 -129t-312 128.5t-129 311.5zM157 1062q0 -138 98 -235.5t236 -97.5t236 97.5t98 235.5t-98 236t-236 98t-236 -98t-98 -236zM323 868v386q0 53 53 53h146q62 0 106 -46t44 -110 q0 -68 -47 -111l-48 -16v-19l49 -32l47 -74q9 -14 9 -32q0 -27 -20 -44.5t-44 -17.5q-34 0 -53 33l-87 158h-33v-128q0 -63 -61 -63t-61 63zM445 1113h77q28 0 28 38t-28 38h-77v-76z" />
<glyph unicode="&#xaf;" horiz-adv-x="958" d="M180 1429v58q0 54 54 54h490q54 0 54 -54v-58q0 -54 -54 -54h-490q-54 0 -54 54z" />
<glyph unicode="&#xb0;" horiz-adv-x="1095" d="M180 1113q0 152 107.5 260t259.5 108t260 -108t108 -260t-108 -259.5t-260 -107.5t-259.5 107.5t-107.5 259.5zM384 1113q0 -68 47.5 -115.5t115.5 -47.5t116 47.5t48 115.5t-48 116t-116 48t-115.5 -48t-47.5 -116z" />
<glyph unicode="&#xb1;" horiz-adv-x="1162" d="M80 64v80q0 64 64 64h333v333h-333q-64 0 -64 64v80q0 64 64 64h333v333q0 64 64 64h80q64 0 64 -64v-333h333q64 0 64 -64v-80q0 -64 -64 -64h-333v-333h333q64 0 64 -64v-80q0 -64 -64 -64h-874q-64 0 -64 64z" />
<glyph unicode="&#xb2;" horiz-adv-x="833" d="M120 619v121q0 25 9 36l330 387q23 27 23 56q0 32 -23.5 54t-56.5 22h-199q-61 0 -61 58v63q0 58 61 58h220q118 0 201.5 -80t83.5 -193q0 -90 -71 -174l-166 -196l-160 -83v-50l144 26h197q61 0 61 -57v-64q0 -58 -61 -58h-456q-32 0 -54 21.5t-22 52.5z" />
<glyph unicode="&#xb3;" horiz-adv-x="833" d="M124 603v64q0 57 61 57h194q125 0 125 104v20q0 107 -125 107h-112q-61 0 -61 58v51q0 58 61 58h100q114 0 114 96q0 77 -114 77h-182q-61 0 -61 58v63q0 58 61 58h276q105 0 179 -68t74 -168q0 -78 -61 -139l-97 -32v-46l111 -22q69 -55 69 -151v-41q0 -105 -77 -183.5 t-185 -78.5h-289q-61 0 -61 58z" />
<glyph unicode="&#xb4;" horiz-adv-x="700" d="M135 1362q0 45 40 69l257 157q13 8 32 8q37 0 57 -34l37 -62q7 -12 7 -31q0 -42 -34 -58l-273 -126q-22 -10 -39 -10q-49 0 -69 39l-5 10q-10 20 -10 38z" />
<glyph unicode="&#xb5;" horiz-adv-x="1139" d="M125 -290v1306q0 37 26.5 63.5t63.5 26.5h101q37 0 63.5 -26.5t26.5 -63.5v-621q0 -186 156 -186q171 0 171 256v551q0 37 26.5 63.5t63.5 26.5h101q37 0 63.5 -26.5t26.5 -63.5v-943q0 -34 -25 -58.5t-59 -24.5h-80q-32 0 -57.5 21t-25.5 49q0 7 1 13l20 85h-57 l-55 -105q-36 -69 -127 -69q-82 0 -114 65l-27 57h-57l55 -248v-148q0 -37 -26.5 -63.5t-63.5 -26.5h-101q-37 0 -63.5 26.5t-26.5 63.5z" />
<glyph unicode="&#xb6;" horiz-adv-x="1261" d="M120 1052q0 175 123.5 298.5t298.5 123.5h438q33 0 57 -24t24 -57v-1322q0 -33 -24 -57t-57 -24h-60q-33 0 -57 24t-24 57v1245h-123v-1245q0 -33 -24 -57t-57 -24h-60q-33 0 -57 24t-24 57v561q-159 18 -266.5 138t-107.5 282z" />
<glyph unicode="&#xb7;" horiz-adv-x="616" d="M150 589v130q0 37 26.5 63.5t63.5 26.5h136q37 0 63.5 -26.5t26.5 -63.5v-130q0 -37 -26.5 -63.5t-63.5 -26.5h-136q-37 0 -63.5 26.5t-26.5 63.5z" />
<glyph unicode="&#xb8;" horiz-adv-x="736" d="M180 -375q-4 13 -4 26q0 27 21 52l197 229q10 11 27 17q10 3 20 3q23 0 44 -18l55 -47q10 -9 16 -27q4 -13 4 -24q0 -24 -19 -42l-220 -204q-18 -17 -34 -22q-15 -5 -29 -5q-28 0 -49 21l-8 8q-15 15 -21 33z" />
<glyph unicode="&#xb9;" horiz-adv-x="833" d="M118 1138v76q0 36 26 55l255 190q20 15 48 15h105q32 0 54.5 -22t22.5 -52v-785q0 -30 -22.5 -52t-54.5 -22h-73q-32 0 -54.5 22t-22.5 52v509l40 162h-40l-81 -120l-113 -71q-18 -11 -34 -11q-56 0 -56 54z" />
<glyph unicode="&#xba;" horiz-adv-x="914" d="M70 873v278q0 135 95 232t221 97h141q126 0 221.5 -97t95.5 -232v-278q0 -135 -95.5 -232t-221.5 -97h-141q-126 0 -221 97t-95 232zM318 876q0 -155 139 -155q138 0 138 155v267q0 160 -138 160q-139 0 -139 -160v-267z" />
<glyph unicode="&#xbb;" horiz-adv-x="1263" d="M115 32v85l28 48h17l159 275v29l40 68h344v-80l-245 -425h-343zM115 993v85h343l245 -425v-80h-344l-40 67v30l-159 275h-17zM555 32v85l27 48h17l159 275v29l39 68h345v-80l-246 -425h-341zM555 993v85h341l246 -425v-80h-345l-39 67v30l-159 275h-17z" />
<glyph unicode="&#xbc;" horiz-adv-x="1971" d="M140 1138v76q0 36 26 55l255 190q20 15 48 15h105q32 0 54.5 -21.5t22.5 -52.5v-785q0 -31 -22.5 -52.5t-54.5 -21.5h-73q-32 0 -54.5 22t-22.5 52v509l40 162h-40l-81 -120l-113 -71q-18 -11 -34 -11q-56 0 -56 54zM471 43q0 14 8 28l775 1384q16 29 45 29h72 q57 0 57 -53q0 -14 -8 -28l-775 -1384q-16 -29 -45 -29h-72q-57 0 -57 53zM1254 56v64q0 57 61 57h194q125 0 125 104v20q0 107 -125 107h-112q-61 0 -61 58v51q0 58 61 58h100q114 0 114 96q0 77 -114 77h-182q-61 0 -61 58v63q0 58 61 58h276q105 0 179 -68t74 -168 q0 -78 -61 -139l-97 -32v-46l111 -22q69 -55 69 -151v-41q0 -105 -77 -183.5t-185 -78.5h-289q-61 0 -61 58z" />
<glyph unicode="&#xbd;" horiz-adv-x="1965" d="M140 1138v76q0 36 26 55l255 190q20 15 48 15h105q32 0 54.5 -21.5t22.5 -52.5v-785q0 -31 -22.5 -52.5t-54.5 -21.5h-73q-32 0 -54.5 22t-22.5 52v509l40 162h-40l-81 -120l-113 -71q-18 -11 -34 -11q-56 0 -56 54zM471 43q0 14 8 28l775 1384q16 29 45 29h72 q57 0 57 -53q0 -14 -8 -28l-775 -1384q-16 -29 -45 -29h-72q-57 0 -57 53zM1233 72v121q0 25 9 36l330 387q23 27 23 56q0 32 -23.5 54t-56.5 22h-199q-61 0 -61 58v63q0 58 61 58h220q118 0 201.5 -80t83.5 -193q0 -90 -71 -174l-166 -196l-160 -83v-50l144 26h197 q61 0 61 -57v-64q0 -58 -61 -58h-456q-32 0 -54 21.5t-22 52.5z" />
<glyph unicode="&#xbe;" horiz-adv-x="1983" d="M120 619v121q0 25 9 36l330 387q23 27 23 56q0 32 -23.5 54t-56.5 22h-199q-61 0 -61 58v63q0 58 61 58h220q118 0 201.5 -80t83.5 -193q0 -90 -71 -174l-166 -196l-160 -83v-50l144 26h197q61 0 61 -57v-64q0 -58 -61 -58h-456q-32 0 -54 21.5t-22 52.5zM527 43 q0 14 8 28l775 1384q16 29 45 29h72q57 0 57 -53q0 -14 -8 -28l-775 -1384q-16 -29 -45 -29h-72q-57 0 -57 53zM1283 49v64q0 57 61 57h194q125 0 125 104v20q0 107 -125 107h-112q-61 0 -61 58v51q0 58 61 58h100q114 0 114 96q0 77 -114 77h-182q-61 0 -61 58v63 q0 58 61 58h276q105 0 179 -68t74 -168q0 -78 -61 -139l-97 -32v-46l111 -22q69 -55 69 -151v-41q0 -105 -77 -183.5t-185 -78.5h-289q-61 0 -61 58z" />
<glyph unicode="&#xbf;" horiz-adv-x="1014" d="M100 33q0 154 105 267l251 271q33 36 86 36q51 0 87 -36t36 -87q0 -40 -23 -71l-204 -278q-43 -59 -43 -112q0 -65 46.5 -111.5t111.5 -46.5h316q65 0 65 -64v-105q0 -64 -64 -64h-349q-176 0 -298.5 114.5t-122.5 286.5zM388 896v130q0 37 26.5 63.5t63.5 26.5h136 q37 0 63.5 -26.5t26.5 -63.5v-130q0 -37 -26.5 -63.5t-63.5 -26.5h-136q-37 0 -63.5 26.5t-26.5 63.5z" />
<glyph unicode="&#xc0;" horiz-adv-x="1210" d="M30 90q0 9 4 24l329 1267q24 93 119 93h246q95 0 119 -93l329 -1267q4 -15 4 -24q0 -37 -26.5 -63.5t-63.5 -26.5h-112q-72 0 -88 71l-72 324h-426l-72 -324q-16 -71 -88 -71h-112q-37 0 -63.5 26.5t-26.5 63.5zM295 1839q0 19 7 31l37 62q20 34 57 34q18 0 31 -8 l258 -157q40 -24 40 -69q0 -18 -10 -38l-5 -10q-19 -39 -69 -39q-17 0 -39 10l-273 126q-34 16 -34 58zM418 599h374v60l-58 125l-54 261l-18 195h-114l-19 -195l-53 -261l-58 -125v-60z" />
<glyph unicode="&#xc1;" horiz-adv-x="1210" d="M30 90q0 9 4 24l329 1267q24 93 119 93h246q95 0 119 -93l329 -1267q4 -15 4 -24q0 -37 -26.5 -63.5t-63.5 -26.5h-112q-72 0 -88 71l-72 324h-426l-72 -324q-16 -71 -88 -71h-112q-37 0 -63.5 26.5t-26.5 63.5zM418 599h374v60l-58 125l-54 261l-18 195h-114l-19 -195 l-53 -261l-58 -125v-60zM455 1742q0 45 40 69l257 157q13 8 32 8q37 0 57 -34l37 -62q7 -12 7 -31q0 -42 -34 -58l-273 -126q-22 -10 -39 -10q-49 0 -69 39l-5 10q-10 20 -10 38z" />
<glyph unicode="&#xc2;" horiz-adv-x="1210" d="M30 90q0 9 4 24l329 1267q24 93 119 93h246q95 0 119 -93l329 -1267q4 -15 4 -24q0 -37 -26.5 -63.5t-63.5 -26.5h-112q-72 0 -88 71l-72 324h-426l-72 -324q-16 -71 -88 -71h-112q-37 0 -63.5 26.5t-26.5 63.5zM300 1730q0 30 19 52l174 201q20 23 48 23h128 q28 0 48 -23l174 -201q19 -22 19 -52q0 -78 -75 -78q-35 0 -62 21q-34 23 -85 67l-63 104h-40l-63 -104q-16 -20 -85 -67q-27 -21 -62 -21q-75 0 -75 78zM418 599h374v60l-58 125l-54 261l-18 195h-114l-19 -195l-53 -261l-58 -125v-60z" />
<glyph unicode="&#xc3;" horiz-adv-x="1210" d="M30 90q0 9 4 24l329 1267q24 93 119 93h246q95 0 119 -93l329 -1267q4 -15 4 -24q0 -37 -26.5 -63.5t-63.5 -26.5h-112q-72 0 -88 71l-72 324h-426l-72 -324q-16 -71 -88 -71h-112q-37 0 -63.5 26.5t-26.5 63.5zM269 1707q0 8 3 16l36 98q51 139 156 139h64q72 0 109 -56 l46 -70q17 -26 36 -26q22 0 31 26l34 102q8 25 36 25h67q55 0 55 -55q0 -8 -4 -19l-34 -94q-48 -133 -152 -133h-64q-68 0 -113 62l-46 64q-19 26 -35 26q-24 0 -32 -26l-33 -107q-8 -27 -38 -27h-67q-55 0 -55 55zM418 599h374v60l-58 125l-54 261l-18 195h-114l-19 -195 l-53 -261l-58 -125v-60z" />
<glyph unicode="&#xc4;" horiz-adv-x="1210" d="M30 90q0 9 4 24l329 1267q24 93 119 93h246q95 0 119 -93l329 -1267q4 -15 4 -24q0 -37 -26.5 -63.5t-63.5 -26.5h-112q-72 0 -88 71l-72 324h-426l-72 -324q-16 -71 -88 -71h-112q-37 0 -63.5 26.5t-26.5 63.5zM305 1798q0 108 98 108h57q98 0 98 -108t-98 -108h-57 q-98 0 -98 108zM418 599h374v60l-58 125l-54 261l-18 195h-114l-19 -195l-53 -261l-58 -125v-60zM651 1798q0 108 98 108h58q98 0 98 -108t-98 -108h-58q-98 0 -98 108z" />
<glyph unicode="&#xc5;" horiz-adv-x="1210" d="M30 90q0 9 4 24l329 1267q24 93 119 93h246q95 0 119 -93l329 -1267q4 -15 4 -24q0 -37 -26.5 -63.5t-63.5 -26.5h-112q-72 0 -88 71l-72 324h-426l-72 -324q-16 -71 -88 -71h-112q-37 0 -63.5 26.5t-26.5 63.5zM383 1869q0 92 65 157t157 65t157.5 -65t65.5 -157 t-65.5 -157.5t-157.5 -65.5t-157 65.5t-65 157.5zM418 599h374v60l-58 125l-54 261l-18 195h-114l-19 -195l-53 -261l-58 -125v-60zM513 1869q0 -38 27 -65.5t65 -27.5t65.5 27.5t27.5 65.5t-27.5 65t-65.5 27t-65 -27t-27 -65z" />
<glyph unicode="&#xc6;" horiz-adv-x="1643" d="M30 90q0 13 4 24l469 1267q34 93 119 93h897q64 0 64 -64v-105q0 -64 -64 -64h-436v-350h391q64 0 64 -64v-105q0 -64 -64 -64h-391v-425h446q64 0 64 -64v-105q0 -64 -64 -64h-652q-37 0 -63.5 26.5t-26.5 63.5v305h-355l-112 -324q-25 -71 -88 -71h-112 q-37 0 -63.5 26.5t-26.5 63.5zM465 599h322v641h-122l-29 -195l-83 -261l-88 -125v-60z" />
<glyph unicode="&#xc7;" horiz-adv-x="959" d="M100 529v416q0 206 143 366q147 163 346 163h248q64 0 64 -64v-105q0 -64 -64 -64h-118q-147 0 -232 -83q-81 -81 -81 -213v-416q0 -131 81 -211q86 -85 232 -85h136q64 0 64 -64v-105q0 -64 -64 -64h-266q-199 0 -346 163q-143 160 -143 366zM360 -375q-4 13 -4 26 q0 27 21 52l197 229q10 11 27 17q10 3 20 3q23 0 44 -18l55 -47q10 -9 16 -27q4 -13 4 -24q0 -24 -19 -42l-220 -204q-18 -17 -34 -22q-15 -5 -29 -5q-28 0 -49 21l-8 8q-15 15 -21 33z" />
<glyph unicode="&#xc8;" horiz-adv-x="1046" d="M160 90v1294q0 37 26.5 63.5t63.5 26.5h672q64 0 64 -64v-105q0 -64 -64 -64h-466v-350h421q64 0 64 -64v-105q0 -64 -64 -64h-421v-425h476q64 0 64 -64v-105q0 -64 -64 -64h-682q-37 0 -63.5 26.5t-26.5 63.5zM255 1839q0 19 7 31l37 62q20 34 57 34q18 0 31 -8 l258 -157q40 -24 40 -69q0 -18 -10 -38l-5 -10q-19 -39 -69 -39q-17 0 -39 10l-273 126q-34 16 -34 58z" />
<glyph unicode="&#xc9;" horiz-adv-x="1046" d="M160 90v1294q0 37 26.5 63.5t63.5 26.5h672q64 0 64 -64v-105q0 -64 -64 -64h-466v-350h421q64 0 64 -64v-105q0 -64 -64 -64h-421v-425h476q64 0 64 -64v-105q0 -64 -64 -64h-682q-37 0 -63.5 26.5t-26.5 63.5zM385 1742q0 45 40 69l257 157q13 8 32 8q37 0 57 -34 l37 -62q7 -12 7 -31q0 -42 -34 -58l-273 -126q-22 -10 -39 -10q-49 0 -69 39l-5 10q-10 20 -10 38z" />
<glyph unicode="&#xca;" horiz-adv-x="1046" d="M160 90v1294q0 37 26.5 63.5t63.5 26.5h672q64 0 64 -64v-105q0 -64 -64 -64h-466v-350h421q64 0 64 -64v-105q0 -64 -64 -64h-421v-425h476q64 0 64 -64v-105q0 -64 -64 -64h-682q-37 0 -63.5 26.5t-26.5 63.5zM238 1730q0 30 19 52l174 201q20 23 48 23h128 q28 0 48 -23l174 -201q19 -22 19 -52q0 -78 -75 -78q-35 0 -62 21q-34 23 -85 67l-63 104h-40l-63 -104q-16 -20 -85 -67q-27 -21 -62 -21q-75 0 -75 78z" />
<glyph unicode="&#xcb;" horiz-adv-x="1046" d="M160 90v1294q0 37 26.5 63.5t63.5 26.5h672q64 0 64 -64v-105q0 -64 -64 -64h-466v-350h421q64 0 64 -64v-105q0 -64 -64 -64h-421v-425h476q64 0 64 -64v-105q0 -64 -64 -64h-682q-37 0 -63.5 26.5t-26.5 63.5zM259 1798q0 108 98 108h57q98 0 98 -108t-98 -108h-57 q-98 0 -98 108zM605 1798q0 108 98 108h58q98 0 98 -108t-98 -108h-58q-98 0 -98 108z" />
<glyph unicode="&#xcc;" horiz-adv-x="616" d="M7 1839q0 19 7 31l37 62q20 34 57 34q18 0 31 -8l258 -157q40 -24 40 -69q0 -18 -10 -38l-5 -10q-19 -39 -69 -39q-17 0 -39 10l-273 126q-34 16 -34 58zM160 83v1308q0 37 26.5 63.5t63.5 26.5h116q37 0 63.5 -26.5t26.5 -63.5v-1308q0 -37 -26.5 -63.5t-63.5 -26.5 h-116q-37 0 -63.5 26.5t-26.5 63.5z" />
<glyph unicode="&#xcd;" horiz-adv-x="616" d="M160 83v1308q0 37 26.5 63.5t63.5 26.5h116q37 0 63.5 -26.5t26.5 -63.5v-1308q0 -37 -26.5 -63.5t-63.5 -26.5h-116q-37 0 -63.5 26.5t-26.5 63.5zM165 1742q0 45 40 69l257 157q13 8 32 8q37 0 57 -34l37 -62q7 -12 7 -31q0 -42 -34 -58l-273 -126q-22 -10 -39 -10 q-49 0 -69 39l-5 10q-10 20 -10 38z" />
<glyph unicode="&#xce;" horiz-adv-x="616" d="M5 1730q0 30 19 52l174 201q20 23 48 23h128q28 0 48 -23l174 -201q19 -22 19 -52q0 -78 -75 -78q-35 0 -62 21q-34 23 -85 67l-63 104h-40l-63 -104q-16 -20 -85 -67q-27 -21 -62 -21q-75 0 -75 78zM160 83v1308q0 37 26.5 63.5t63.5 26.5h116q37 0 63.5 -26.5 t26.5 -63.5v-1308q0 -37 -26.5 -63.5t-63.5 -26.5h-116q-37 0 -63.5 26.5t-26.5 63.5z" />
<glyph unicode="&#xcf;" horiz-adv-x="616" d="M10 1798q0 108 98 108h57q98 0 98 -108t-98 -108h-57q-98 0 -98 108zM160 83v1308q0 37 26.5 63.5t63.5 26.5h116q37 0 63.5 -26.5t26.5 -63.5v-1308q0 -37 -26.5 -63.5t-63.5 -26.5h-116q-37 0 -63.5 26.5t-26.5 63.5zM356 1798q0 108 98 108h58q98 0 98 -108t-98 -108 h-58q-98 0 -98 108z" />
<glyph unicode="&#xd0;" horiz-adv-x="1278" d="M160 90v1294q0 37 26.5 63.5t63.5 26.5h371q239 0 398 -159t159 -398v-360q0 -239 -159 -398t-398 -159h-371q-37 0 -63.5 26.5t-26.5 63.5zM456 228l115 -5h21q146 0 213 91q67 90 67 285v276q0 194 -67 285t-213 91h-21l-115 -5v-355h171q64 0 64 -64v-105 q0 -64 -64 -64h-171v-430z" />
<glyph unicode="&#xd1;" horiz-adv-x="1497" d="M160 80v1304q0 37 26.5 63.5t63.5 26.5h228q56 0 78 -45l371 -758l104 -345h54l-26 345v723q0 37 26.5 63.5t63.5 26.5h98q37 0 63.5 -26.5t26.5 -63.5v-1304q0 -37 -26.5 -63.5t-63.5 -26.5h-228q-56 0 -78 45l-376 758l-109 345h-54l36 -345v-723q0 -37 -26.5 -63.5 t-63.5 -26.5h-98q-37 0 -63.5 26.5t-26.5 63.5zM412 1697q0 8 3 16l36 98q51 139 156 139h64q72 0 109 -56l46 -70q17 -26 36 -26q22 0 31 26l34 102q8 25 36 25h67q55 0 55 -55q0 -8 -4 -19l-34 -94q-48 -133 -152 -133h-64q-68 0 -113 62l-46 64q-19 26 -35 26 q-24 0 -32 -26l-33 -107q-8 -27 -38 -27h-67q-55 0 -55 55z" />
<glyph unicode="&#xd2;" horiz-adv-x="1240" d="M100 452v570q0 190 113 317q120 135 317 135h180q197 0 317 -135q113 -127 113 -317v-570q0 -190 -113 -317q-120 -135 -317 -135h-180q-197 0 -317 135q-113 127 -113 317zM325 1839q0 19 7 31l37 62q20 34 57 34q18 0 31 -8l258 -157q40 -24 40 -69q0 -18 -10 -38 l-5 -10q-19 -39 -69 -39q-17 0 -39 10l-273 126q-34 16 -34 58zM396 462q0 -119 60.5 -184t163.5 -65t163.5 65.5t60.5 183.5v550q0 118 -61 185q-60 64 -163 64t-163 -64q-61 -67 -61 -185v-550z" />
<glyph unicode="&#xd3;" horiz-adv-x="1240" d="M100 452v570q0 190 113 317q120 135 317 135h180q197 0 317 -135q113 -127 113 -317v-570q0 -190 -113 -317q-120 -135 -317 -135h-180q-197 0 -317 135q-113 127 -113 317zM396 462q0 -119 60.5 -184t163.5 -65t163.5 65.5t60.5 183.5v550q0 118 -61 185q-60 64 -163 64 t-163 -64q-61 -67 -61 -185v-550zM455 1742q0 45 40 69l257 157q13 8 32 8q37 0 57 -34l37 -62q7 -12 7 -31q0 -42 -34 -58l-273 -126q-22 -10 -39 -10q-49 0 -69 39l-5 10q-10 20 -10 38z" />
<glyph unicode="&#xd4;" horiz-adv-x="1240" d="M100 452v570q0 190 113 317q120 135 317 135h180q197 0 317 -135q113 -127 113 -317v-570q0 -190 -113 -317q-120 -135 -317 -135h-180q-197 0 -317 135q-113 127 -113 317zM315 1730q0 30 19 52l174 201q20 23 48 23h128q28 0 48 -23l174 -201q19 -22 19 -52 q0 -78 -75 -78q-35 0 -62 21q-34 23 -85 67l-63 104h-40l-63 -104q-16 -20 -85 -67q-27 -21 -62 -21q-75 0 -75 78zM396 462q0 -119 60.5 -184t163.5 -65t163.5 65.5t60.5 183.5v550q0 118 -61 185q-60 64 -163 64t-163 -64q-61 -67 -61 -185v-550z" />
<glyph unicode="&#xd5;" horiz-adv-x="1240" d="M100 452v570q0 190 113 317q120 135 317 135h180q197 0 317 -135q113 -127 113 -317v-570q0 -190 -113 -317q-120 -135 -317 -135h-180q-197 0 -317 135q-113 127 -113 317zM284 1707q0 8 3 16l36 98q51 139 156 139h64q72 0 109 -56l46 -70q17 -26 36 -26q22 0 31 26 l34 102q8 25 36 25h67q55 0 55 -55q0 -8 -4 -19l-34 -94q-48 -133 -152 -133h-64q-68 0 -113 62l-46 64q-19 26 -35 26q-24 0 -32 -26l-33 -107q-8 -27 -38 -27h-67q-55 0 -55 55zM396 462q0 -119 60.5 -184t163.5 -65t163.5 65.5t60.5 183.5v550q0 118 -61 185 q-60 64 -163 64t-163 -64q-61 -67 -61 -185v-550z" />
<glyph unicode="&#xd6;" horiz-adv-x="1240" d="M100 452v570q0 190 113 317q120 135 317 135h180q197 0 317 -135q113 -127 113 -317v-570q0 -190 -113 -317q-120 -135 -317 -135h-180q-197 0 -317 135q-113 127 -113 317zM320 1798q0 108 98 108h57q98 0 98 -108t-98 -108h-57q-98 0 -98 108zM396 462 q0 -119 60.5 -184t163.5 -65t163.5 65.5t60.5 183.5v550q0 118 -61 185q-60 64 -163 64t-163 -64q-61 -67 -61 -185v-550zM666 1798q0 108 98 108h58q98 0 98 -108t-98 -108h-58q-98 0 -98 108z" />
<glyph unicode="&#xd7;" horiz-adv-x="1102" d="M80 294q0 28 18 46l180 179l133 105v42l-133 105l-180 180q-18 18 -18 45t18 45l57 57q18 18 45 18q28 0 46 -18l179 -180l105 -133h42l105 133l179 180q18 18 46 18q27 0 45 -18l57 -57q18 -18 18 -45t-18 -45l-180 -180l-133 -105v-42l133 -105l180 -179q18 -18 18 -46 q0 -27 -18 -45l-57 -57q-18 -18 -45 -18t-45 18l-180 180l-105 133h-42l-105 -133l-180 -180q-18 -18 -45 -18t-45 18l-57 57q-18 18 -18 45z" />
<glyph unicode="&#xd8;" horiz-adv-x="1240" d="M100 452v570q0 190 113 317q120 135 317 135h180q197 0 317 -135q113 -127 113 -317v-570q0 -190 -113 -317q-120 -135 -317 -135h-180q-197 0 -317 135q-113 127 -113 317zM366 627h50l103 172l311 312q-46 150 -210 150q-103 0 -163 -64q-61 -67 -61 -185v-220z M405 378q40 -165 215 -165q103 0 163.5 65.5t60.5 183.5v242l30 163h-50l-93 -163z" />
<glyph unicode="&#xd9;" horiz-adv-x="1334" d="M160 452v939q0 37 26.5 63.5t63.5 26.5h116q37 0 63.5 -26.5t26.5 -63.5v-939q0 -219 211 -219t211 219v939q0 37 26.5 63.5t63.5 26.5h116q37 0 63.5 -26.5t26.5 -63.5v-939q0 -180 -128 -314q-132 -138 -321 -138h-120q-189 0 -319 138q-126 134 -126 314zM315 1839 q0 19 7 31l37 62q20 34 57 34q18 0 31 -8l258 -157q40 -24 40 -69q0 -18 -10 -38l-5 -10q-19 -39 -69 -39q-17 0 -39 10l-273 126q-34 16 -34 58z" />
<glyph unicode="&#xda;" horiz-adv-x="1334" d="M160 452v939q0 37 26.5 63.5t63.5 26.5h116q37 0 63.5 -26.5t26.5 -63.5v-939q0 -219 211 -219t211 219v939q0 37 26.5 63.5t63.5 26.5h116q37 0 63.5 -26.5t26.5 -63.5v-939q0 -180 -128 -314q-132 -138 -321 -138h-120q-189 0 -319 138q-126 134 -126 314zM575 1742 q0 45 40 69l257 157q13 8 32 8q37 0 57 -34l37 -62q7 -12 7 -31q0 -42 -34 -58l-273 -126q-22 -10 -39 -10q-49 0 -69 39l-5 10q-10 20 -10 38z" />
<glyph unicode="&#xdb;" horiz-adv-x="1334" d="M160 452v939q0 37 26.5 63.5t63.5 26.5h116q37 0 63.5 -26.5t26.5 -63.5v-939q0 -219 211 -219t211 219v939q0 37 26.5 63.5t63.5 26.5h116q37 0 63.5 -26.5t26.5 -63.5v-939q0 -180 -128 -314q-132 -138 -321 -138h-120q-189 0 -319 138q-126 134 -126 314zM362 1730 q0 30 19 52l174 201q20 23 48 23h128q28 0 48 -23l174 -201q19 -22 19 -52q0 -78 -75 -78q-35 0 -62 21q-34 23 -85 67l-63 104h-40l-63 -104q-16 -20 -85 -67q-27 -21 -62 -21q-75 0 -75 78z" />
<glyph unicode="&#xdc;" horiz-adv-x="1334" d="M160 452v939q0 37 26.5 63.5t63.5 26.5h116q37 0 63.5 -26.5t26.5 -63.5v-939q0 -219 211 -219t211 219v939q0 37 26.5 63.5t63.5 26.5h116q37 0 63.5 -26.5t26.5 -63.5v-939q0 -180 -128 -314q-132 -138 -321 -138h-120q-189 0 -319 138q-126 134 -126 314zM367 1798 q0 108 98 108h57q98 0 98 -108t-98 -108h-57q-98 0 -98 108zM713 1798q0 108 98 108h58q98 0 98 -108t-98 -108h-58q-98 0 -98 108z" />
<glyph unicode="&#xdd;" horiz-adv-x="1080" d="M35 1384q0 37 26.5 63.5t63.5 26.5h112q64 0 84 -58l188 -540l14 -153h82l14 153l188 540q20 58 84 58h112q37 0 63.5 -26.5t26.5 -63.5q0 -15 -9 -38l-289 -747q-15 -40 -83 -57v-459q0 -37 -26.5 -63.5t-63.5 -26.5h-116q-37 0 -63.5 26.5t-26.5 63.5v459 q-68 17 -83 57l-289 747q-9 23 -9 38zM465 1742q0 45 40 69l257 157q13 8 32 8q37 0 57 -34l37 -62q7 -12 7 -31q0 -42 -34 -58l-273 -126q-22 -10 -39 -10q-49 0 -69 39l-5 10q-10 20 -10 38z" />
<glyph unicode="&#xde;" horiz-adv-x="1204" d="M160 83v1308q0 37 26.5 63.5t63.5 26.5h116q37 0 63.5 -26.5t26.5 -63.5v-183h264q157 0 270.5 -121t113.5 -282v-129q0 -161 -113.5 -281t-270.5 -120h-264v-192q0 -37 -26.5 -63.5t-63.5 -26.5h-116q-37 0 -63.5 26.5t-26.5 63.5zM456 498h164q178 0 178 178v129 q0 180 -178 180h-164v-487z" />
<glyph unicode="&#xdf;" horiz-adv-x="1215" d="M125 80v962q0 178 129 305t320 127h148q144 0 245.5 -101.5t101.5 -245.5v-65q0 -67 -47 -115.5t-113 -48.5h-23q-38 0 -65.5 -27t-27.5 -65q0 -45 42 -78l198 -154q142 -110 142 -268q0 -127 -89.5 -216.5t-215.5 -89.5h-278q-64 0 -64 64v80q0 64 64 64h223 q38 0 65 27.5t27 65.5q0 42 -50 81l-193 152q-139 109 -139 267q0 110 70.5 191t189.5 107v32q0 56 -39.5 95t-94.5 39h-70q-74 0 -127 -52.5t-53 -126.5v-1006q0 -37 -26.5 -63.5t-63.5 -26.5h-96q-37 0 -63.5 26.5t-26.5 63.5z" />
<glyph unicode="&#xe0;" horiz-adv-x="1033" d="M29 86q0 8 3 22l313 1204q23 88 113 88h234q90 0 113 -88l312 -1204q4 -14 4 -22q0 -36 -25 -61t-60 -25h-107q-68 0 -83 67l-69 308h-405l-68 -308q-15 -67 -84 -67h-106q-35 0 -60 25t-25 61zM235 1469q0 19 7 31l37 62q20 34 57 34q18 0 31 -8l258 -157q40 -24 40 -69 q0 -18 -10 -38l-5 -10q-19 -39 -69 -39q-17 0 -39 10l-273 126q-34 16 -34 58zM397 569h355v57l-55 119l-51 248l-17 185h-108l-18 -185l-51 -248l-55 -119v-57z" />
<glyph unicode="&#xe1;" horiz-adv-x="1033" d="M29 86q0 8 3 22l313 1204q23 88 113 88h234q90 0 113 -88l312 -1204q4 -14 4 -22q0 -36 -25 -61t-60 -25h-107q-68 0 -83 67l-69 308h-405l-68 -308q-15 -67 -84 -67h-106q-35 0 -60 25t-25 61zM335 1362q0 45 40 69l257 157q13 8 32 8q37 0 57 -34l37 -62q7 -12 7 -31 q0 -42 -34 -58l-273 -126q-22 -10 -39 -10q-49 0 -69 39l-5 10q-10 20 -10 38zM397 569h355v57l-55 119l-51 248l-17 185h-108l-18 -185l-51 -248l-55 -119v-57z" />
<glyph unicode="&#xe2;" horiz-adv-x="1033" d="M29 86q0 8 3 22l313 1204q23 88 113 88h234q90 0 113 -88l312 -1204q4 -14 4 -22q0 -36 -25 -61t-60 -25h-107q-68 0 -83 67l-69 308h-405l-68 -308q-15 -67 -84 -67h-106q-35 0 -60 25t-25 61zM212 1360q0 30 19 52l174 201q20 23 48 23h128q28 0 48 -23l174 -201 q19 -22 19 -52q0 -78 -75 -78q-35 0 -62 21q-34 23 -85 67l-63 104h-40l-63 -104q-16 -20 -85 -67q-27 -21 -62 -21q-75 0 -75 78zM397 569h355v57l-55 119l-51 248l-17 185h-108l-18 -185l-51 -248l-55 -119v-57z" />
<glyph unicode="&#xe3;" horiz-adv-x="1033" d="M29 86q0 8 3 22l313 1204q23 88 113 88h234q90 0 113 -88l312 -1204q4 -14 4 -22q0 -36 -25 -61t-60 -25h-107q-68 0 -83 67l-69 308h-405l-68 -308q-15 -67 -84 -67h-106q-35 0 -60 25t-25 61zM188 1377q0 8 3 16l36 98q51 139 156 139h64q72 0 109 -56l46 -70 q17 -26 36 -26q22 0 31 26l34 102q8 25 36 25h67q55 0 55 -55q0 -8 -4 -19l-34 -94q-48 -133 -152 -133h-64q-68 0 -113 62l-46 64q-19 26 -35 26q-24 0 -32 -26l-33 -107q-8 -27 -38 -27h-67q-55 0 -55 55zM397 569h355v57l-55 119l-51 248l-17 185h-108l-18 -185l-51 -248 l-55 -119v-57z" />
<glyph unicode="&#xe4;" horiz-adv-x="1033" d="M29 86q0 8 3 22l313 1204q23 88 113 88h234q90 0 113 -88l312 -1204q4 -14 4 -22q0 -36 -25 -61t-60 -25h-107q-68 0 -83 67l-69 308h-405l-68 -308q-15 -67 -84 -67h-106q-35 0 -60 25t-25 61zM194 1408q0 108 98 108h57q98 0 98 -108t-98 -108h-57q-98 0 -98 108z M397 569h355v57l-55 119l-51 248l-17 185h-108l-18 -185l-51 -248l-55 -119v-57zM540 1408q0 108 98 108h58q98 0 98 -108t-98 -108h-58q-98 0 -98 108z" />
<glyph unicode="&#xe5;" horiz-adv-x="1033" d="M29 86q0 8 3 22l313 1204q23 88 113 88h234q90 0 113 -88l312 -1204q4 -14 4 -22q0 -36 -25 -61t-60 -25h-107q-68 0 -83 67l-69 308h-405l-68 -308q-15 -67 -84 -67h-106q-35 0 -60 25t-25 61zM294 1509q0 92 65 157t157 65t157.5 -65t65.5 -157t-65.5 -157.5 t-157.5 -65.5t-157 65.5t-65 157.5zM397 569h355v57l-55 119l-51 248l-17 185h-108l-18 -185l-51 -248l-55 -119v-57zM424 1509q0 -38 27 -65.5t65 -27.5t65.5 27.5t27.5 65.5t-27.5 65t-65.5 27t-65 -27t-27 -65z" />
<glyph unicode="&#xe6;" horiz-adv-x="1516" d="M60 330q0 141 100 241t241 100h211v61q0 166 -191 166h-180q-64 0 -64 64v80q0 64 64 64h300q53 0 125 -28l73 -84h40l79 84q67 28 136 28h110q148 0 249 -98q103 -101 103 -257v-187q0 -41 -29.5 -70.5t-70.5 -29.5h-463v-62q0 -107 46 -152q42 -42 140 -42h245 q64 0 64 -64v-80q0 -64 -64 -64h-300q-101 0 -186 53l-79 105h-40l-73 -105q-76 -37 -106 -46q-69 -19 -196 -19q-112 0 -195 94q-89 99 -89 248zM327 353q0 -155 124 -155q113 0 161 137v173h-131q-64 0 -109 -45.5t-45 -109.5zM893 637h282v125q0 65 -38.5 105.5 t-102.5 40.5t-102.5 -40.5t-38.5 -105.5v-125z" />
<glyph unicode="&#xe7;" horiz-adv-x="816" d="M95 503v395q0 195 136 347q140 155 329 155h235q61 0 61 -60v-100q0 -61 -61 -61h-112q-140 0 -220 -79q-77 -77 -77 -202v-395q0 -125 77 -201q81 -81 220 -81h129q61 0 61 -60v-100q0 -61 -61 -61h-252q-189 0 -329 155q-136 152 -136 348zM300 -375q-4 13 -4 26 q0 27 21 52l197 229q10 11 27 17q10 3 20 3q23 0 44 -18l55 -47q10 -9 16 -27q4 -13 4 -24q0 -24 -19 -42l-220 -204q-18 -17 -34 -22q-15 -5 -29 -5q-28 0 -49 21l-8 8q-15 15 -21 33z" />
<glyph unicode="&#xe8;" horiz-adv-x="1004" d="M152 86v1229q0 35 25 60t61 25h638q61 0 61 -60v-100q0 -61 -61 -61h-443v-333h400q61 0 61 -60v-100q0 -61 -61 -61h-400v-404h452q61 0 61 -60v-100q0 -61 -61 -61h-647q-36 0 -61 25t-25 61zM255 1469q0 19 7 31l37 62q20 34 57 34q18 0 31 -8l258 -157q40 -24 40 -69 q0 -18 -10 -38l-5 -10q-19 -39 -69 -39q-17 0 -39 10l-273 126q-34 16 -34 58z" />
<glyph unicode="&#xe9;" horiz-adv-x="1004" d="M152 86v1229q0 35 25 60t61 25h638q61 0 61 -60v-100q0 -61 -61 -61h-443v-333h400q61 0 61 -60v-100q0 -61 -61 -61h-400v-404h452q61 0 61 -60v-100q0 -61 -61 -61h-647q-36 0 -61 25t-25 61zM355 1362q0 45 40 69l257 157q13 8 32 8q37 0 57 -34l37 -62q7 -12 7 -31 q0 -42 -34 -58l-273 -126q-22 -10 -39 -10q-49 0 -69 39l-5 10q-10 20 -10 38z" />
<glyph unicode="&#xea;" horiz-adv-x="1004" d="M152 86v1229q0 35 25 60t61 25h638q61 0 61 -60v-100q0 -61 -61 -61h-443v-333h400q61 0 61 -60v-100q0 -61 -61 -61h-400v-404h452q61 0 61 -60v-100q0 -61 -61 -61h-647q-36 0 -61 25t-25 61zM197 1360q0 30 19 52l174 201q20 23 48 23h128q28 0 48 -23l174 -201 q19 -22 19 -52q0 -78 -75 -78q-35 0 -62 21q-34 23 -85 67l-63 104h-40l-63 -104q-16 -20 -85 -67q-27 -21 -62 -21q-75 0 -75 78z" />
<glyph unicode="&#xeb;" horiz-adv-x="1004" d="M152 86v1229q0 35 25 60t61 25h638q61 0 61 -60v-100q0 -61 -61 -61h-443v-333h400q61 0 61 -60v-100q0 -61 -61 -61h-400v-404h452q61 0 61 -60v-100q0 -61 -61 -61h-647q-36 0 -61 25t-25 61zM202 1408q0 108 98 108h57q98 0 98 -108t-98 -108h-57q-98 0 -98 108z M548 1408q0 108 98 108h58q98 0 98 -108t-98 -108h-58q-98 0 -98 108z" />
<glyph unicode="&#xec;" horiz-adv-x="521" d="M-43 1469q0 19 7 31l37 62q20 34 57 34q18 0 31 -8l258 -157q40 -24 40 -69q0 -18 -10 -38l-5 -10q-19 -39 -69 -39q-17 0 -39 10l-273 126q-34 16 -34 58zM112 80v946q0 37 26.5 63.5t63.5 26.5h101q37 0 63.5 -26.5t26.5 -63.5v-946q0 -37 -26.5 -63.5t-63.5 -26.5 h-101q-37 0 -63.5 26.5t-26.5 63.5z" />
<glyph unicode="&#xed;" horiz-adv-x="521" d="M117 1362q0 45 40 69l257 157q13 8 32 8q37 0 57 -34l37 -62q7 -12 7 -31q0 -42 -34 -58l-273 -126q-22 -10 -39 -10q-49 0 -69 39l-5 10q-10 20 -10 38zM120 80v946q0 37 26.5 63.5t63.5 26.5h101q37 0 63.5 -26.5t26.5 -63.5v-946q0 -37 -26.5 -63.5t-63.5 -26.5h-101 q-37 0 -63.5 26.5t-26.5 63.5z" />
<glyph unicode="&#xee;" horiz-adv-x="521" d="M-42 1360q0 30 19 52l174 201q20 23 48 23h128q28 0 48 -23l174 -201q19 -22 19 -52q0 -78 -75 -78q-35 0 -62 21q-34 23 -85 67l-63 104h-40l-63 -104q-16 -20 -85 -67q-27 -21 -62 -21q-75 0 -75 78zM120 80v946q0 37 26.5 63.5t63.5 26.5h101q37 0 63.5 -26.5 t26.5 -63.5v-946q0 -37 -26.5 -63.5t-63.5 -26.5h-101q-37 0 -63.5 26.5t-26.5 63.5z" />
<glyph unicode="&#xef;" horiz-adv-x="521" d="M-20 1408q0 108 99 108h57q98 0 98 -108t-98 -108h-57q-99 0 -99 108zM120 80v946q0 37 26.5 63.5t63.5 26.5h101q37 0 63.5 -26.5t26.5 -63.5v-946q0 -37 -26.5 -63.5t-63.5 -26.5h-101q-37 0 -63.5 26.5t-26.5 63.5zM287 1408q0 108 98 108h58q98 0 98 -108t-98 -108 h-58q-98 0 -98 108z" />
<glyph unicode="&#xf0;" horiz-adv-x="1208" d="M80 390v133q0 166 118 284t284 118h237v159h-192q-64 0 -64 64v70q0 64 64 64h192v102q0 37 26.5 63.5t63.5 26.5h101q37 0 63.5 -26.5t26.5 -63.5v-102h104q64 0 64 -64v-70q0 -64 -64 -64h-104v-694q0 -166 -117.5 -284t-283.5 -118h-117q-166 0 -284 118t-118 284z M360 372q0 -77 53.5 -126.5t131.5 -49.5q73 0 123.5 51.5t50.5 124.5v355h-183q-73 0 -124.5 -51.5t-51.5 -124.5v-179z" />
<glyph unicode="&#xf1;" horiz-adv-x="1422" d="M160 80v1304q0 37 26.5 63.5t63.5 26.5h228q56 0 78 -45l371 -758l104 -345h54l-26 345v723q0 37 26.5 63.5t63.5 26.5h98q37 0 63.5 -26.5t26.5 -63.5v-1304q0 -37 -26.5 -63.5t-63.5 -26.5h-228q-56 0 -78 45l-376 758l-109 345h-54l36 -345v-723q0 -37 -26.5 -63.5 t-63.5 -26.5h-98q-37 0 -63.5 26.5t-26.5 63.5zM399 1681q0 8 3 16l36 98q51 139 156 139h64q72 0 109 -56l46 -70q17 -26 36 -26q22 0 31 26l34 102q8 25 36 25h67q55 0 55 -55q0 -8 -4 -19l-34 -94q-48 -133 -152 -133h-64q-68 0 -113 62l-46 64q-19 26 -35 26 q-24 0 -32 -26l-33 -107q-8 -27 -38 -27h-67q-55 0 -55 55z" />
<glyph unicode="&#xf2;" horiz-adv-x="1084" d="M95 429v542q0 180 107 301q114 128 302 128h171q187 0 301 -128q107 -121 107 -301v-542q0 -180 -107 -301q-114 -128 -301 -128h-171q-188 0 -302 128q-107 121 -107 301zM235 1469q0 19 7 31l37 62q20 34 57 34q18 0 31 -8l258 -157q40 -24 40 -69q0 -18 -10 -38 l-5 -10q-19 -39 -69 -39q-17 0 -39 10l-273 126q-34 16 -34 58zM376 439q0 -113 57.5 -175t155.5 -62t155.5 62.5t57.5 174.5v522q0 113 -58 176q-57 61 -155 61t-155 -61q-58 -63 -58 -176v-522z" />
<glyph unicode="&#xf3;" horiz-adv-x="1084" d="M95 429v542q0 180 107 301q114 128 302 128h171q187 0 301 -128q107 -121 107 -301v-542q0 -180 -107 -301q-114 -128 -301 -128h-171q-188 0 -302 128q-107 121 -107 301zM355 1362q0 45 40 69l257 157q13 8 32 8q37 0 57 -34l37 -62q7 -12 7 -31q0 -42 -34 -58 l-273 -126q-22 -10 -39 -10q-49 0 -69 39l-5 10q-10 20 -10 38zM376 439q0 -113 57.5 -175t155.5 -62t155.5 62.5t57.5 174.5v522q0 113 -58 176q-57 61 -155 61t-155 -61q-58 -63 -58 -176v-522z" />
<glyph unicode="&#xf4;" horiz-adv-x="1084" d="M95 429v542q0 180 107 301q114 128 302 128h171q187 0 301 -128q107 -121 107 -301v-542q0 -180 -107 -301q-114 -128 -301 -128h-171q-188 0 -302 128q-107 121 -107 301zM237 1360q0 30 19 52l174 201q20 23 48 23h128q28 0 48 -23l174 -201q19 -22 19 -52 q0 -78 -75 -78q-35 0 -62 21q-34 23 -85 67l-63 104h-40l-63 -104q-16 -20 -85 -67q-27 -21 -62 -21q-75 0 -75 78zM376 439q0 -113 57.5 -175t155.5 -62t155.5 62.5t57.5 174.5v522q0 113 -58 176q-57 61 -155 61t-155 -61q-58 -63 -58 -176v-522z" />
<glyph unicode="&#xf5;" horiz-adv-x="1084" d="M95 429v542q0 180 107 301q114 128 302 128h171q187 0 301 -128q107 -121 107 -301v-542q0 -180 -107 -301q-114 -128 -301 -128h-171q-188 0 -302 128q-107 121 -107 301zM206 1377q0 8 3 16l36 98q51 139 156 139h64q72 0 109 -56l46 -70q17 -26 36 -26q22 0 31 26 l34 102q8 25 36 25h67q55 0 55 -55q0 -8 -4 -19l-34 -94q-48 -133 -152 -133h-64q-68 0 -113 62l-46 64q-19 26 -35 26q-24 0 -32 -26l-33 -107q-8 -27 -38 -27h-67q-55 0 -55 55zM376 439q0 -113 57.5 -175t155.5 -62t155.5 62.5t57.5 174.5v522q0 113 -58 176 q-57 61 -155 61t-155 -61q-58 -63 -58 -176v-522z" />
<glyph unicode="&#xf6;" horiz-adv-x="1084" d="M95 429v542q0 180 107 301q114 128 302 128h171q187 0 301 -128q107 -121 107 -301v-542q0 -180 -107 -301q-114 -128 -301 -128h-171q-188 0 -302 128q-107 121 -107 301zM242 1408q0 108 98 108h57q98 0 98 -108t-98 -108h-57q-98 0 -98 108zM376 439q0 -113 57.5 -175 t155.5 -62t155.5 62.5t57.5 174.5v522q0 113 -58 176q-57 61 -155 61t-155 -61q-58 -63 -58 -176v-522zM588 1408q0 108 98 108h58q98 0 98 -108t-98 -108h-58q-98 0 -98 108z" />
<glyph unicode="&#xf7;" horiz-adv-x="1162" d="M80 605v80q0 64 64 64h874q64 0 64 -64v-80q0 -64 -64 -64h-874q-64 0 -64 64zM453 204v130q0 60 60 60h136q60 0 60 -60v-130q0 -60 -60 -60h-136q-60 0 -60 60zM453 956v130q0 60 60 60h136q60 0 60 -60v-130q0 -60 -60 -60h-136q-60 0 -60 60z" />
<glyph unicode="&#xf8;" horiz-adv-x="1084" d="M85 394v318q0 162 112 278t260 116h170q148 0 260 -116t112 -278v-318q0 -161 -112 -277.5t-260 -116.5h-170q-148 0 -260 116.5t-112 277.5zM346 496h50l62 111l226 239q-42 62 -142 62q-176 0 -176 -206v-69zM395 265q41 -67 147 -67q176 0 176 199v107l20 147h-50 l-65 -147z" />
<glyph unicode="&#xf9;" horiz-adv-x="1139" d="M152 429v892q0 36 25 61t61 25h110q35 0 60 -25t25 -61v-892q0 -208 201 -208q200 0 200 208v892q0 36 25 61t61 25h110q35 0 60 -25t25 -61v-892q0 -171 -121 -298q-126 -131 -305 -131h-114q-180 0 -303 131q-120 127 -120 298zM225 1469q0 19 7 31l37 62q20 34 57 34 q18 0 31 -8l258 -157q40 -24 40 -69q0 -18 -10 -38l-5 -10q-19 -39 -69 -39q-17 0 -39 10l-273 126q-34 16 -34 58z" />
<glyph unicode="&#xfa;" horiz-adv-x="1139" d="M152 429v892q0 36 25 61t61 25h110q35 0 60 -25t25 -61v-892q0 -208 201 -208q200 0 200 208v892q0 36 25 61t61 25h110q35 0 60 -25t25 -61v-892q0 -171 -121 -298q-126 -131 -305 -131h-114q-180 0 -303 131q-120 127 -120 298zM425 1362q0 45 40 69l257 157q13 8 32 8 q37 0 57 -34l37 -62q7 -12 7 -31q0 -42 -34 -58l-273 -126q-22 -10 -39 -10q-49 0 -69 39l-5 10q-10 20 -10 38z" />
<glyph unicode="&#xfb;" horiz-adv-x="1139" d="M152 429v892q0 36 25 61t61 25h110q35 0 60 -25t25 -61v-892q0 -208 201 -208q200 0 200 208v892q0 36 25 61t61 25h110q35 0 60 -25t25 -61v-892q0 -171 -121 -298q-126 -131 -305 -131h-114q-180 0 -303 131q-120 127 -120 298zM265 1360q0 30 19 52l174 201 q20 23 48 23h128q28 0 48 -23l174 -201q19 -22 19 -52q0 -78 -75 -78q-35 0 -62 21q-34 23 -85 67l-63 104h-40l-63 -104q-16 -20 -85 -67q-27 -21 -62 -21q-75 0 -75 78z" />
<glyph unicode="&#xfc;" horiz-adv-x="1139" d="M152 429v892q0 36 25 61t61 25h110q35 0 60 -25t25 -61v-892q0 -208 201 -208q200 0 200 208v892q0 36 25 61t61 25h110q35 0 60 -25t25 -61v-892q0 -171 -121 -298q-126 -131 -305 -131h-114q-180 0 -303 131q-120 127 -120 298zM270 1408q0 108 98 108h57q98 0 98 -108 t-98 -108h-57q-98 0 -98 108zM616 1408q0 108 98 108h58q98 0 98 -108t-98 -108h-58q-98 0 -98 108z" />
<glyph unicode="&#xfd;" horiz-adv-x="987" d="M33 1315q0 35 25.5 60t60.5 25h106q61 0 80 -55l179 -513l13 -145h78l13 145l179 513q19 55 79 55h107q35 0 60 -25t25 -60q0 -14 -8 -36l-275 -710q-14 -38 -79 -54v-436q0 -35 -25 -60.5t-60 -25.5h-110q-35 0 -60.5 25.5t-25.5 60.5v436q-64 16 -79 54l-274 710 q-9 22 -9 36zM415 1362q0 45 40 69l257 157q13 8 32 8q37 0 57 -34l37 -62q7 -12 7 -31q0 -42 -34 -58l-273 -126q-22 -10 -39 -10q-49 0 -69 39l-5 10q-10 20 -10 38z" />
<glyph unicode="&#xfe;" horiz-adv-x="1114" d="M125 -290v1674q0 37 26.5 63.5t63.5 26.5h101q37 0 63.5 -26.5t26.5 -63.5v-210l-35 -236h57l64 115q98 65 227 65q131 0 219 -95q96 -104 96 -282v-376q0 -178 -96 -282q-88 -95 -219 -95q-129 0 -227 65l-64 115h-57l35 -248v-210q0 -37 -26.5 -63.5t-63.5 -26.5h-101 q-37 0 -63.5 26.5t-26.5 63.5zM406 385q68 -176 181 -176q166 0 166 186v316q0 186 -166 186q-113 0 -181 -176v-336z" />
<glyph unicode="&#xff;" horiz-adv-x="987" d="M33 1315q0 35 25.5 60t60.5 25h106q61 0 80 -55l179 -513l13 -145h78l13 145l179 513q19 55 79 55h107q35 0 60 -25t25 -60q0 -14 -8 -36l-275 -710q-14 -38 -79 -54v-436q0 -35 -25 -60.5t-60 -25.5h-110q-35 0 -60.5 25.5t-25.5 60.5v436q-64 16 -79 54l-274 710 q-9 22 -9 36zM194 1408q0 108 98 108h57q98 0 98 -108t-98 -108h-57q-98 0 -98 108zM540 1408q0 108 98 108h58q98 0 98 -108t-98 -108h-58q-98 0 -98 108z" />
<glyph unicode="&#x152;" horiz-adv-x="1670" d="M100 452v570q0 190 113 317q120 135 317 135h1016q64 0 64 -64v-105q0 -64 -64 -64h-436v-350h391q64 0 64 -64v-105q0 -64 -64 -64h-391v-425h446q64 0 64 -64v-105q0 -64 -64 -64h-1026q-197 0 -317 135q-113 127 -113 317zM396 462q0 -119 60.5 -184t163.5 -65h194 v1048h-194q-103 0 -163 -64q-61 -67 -61 -185v-550z" />
<glyph unicode="&#x153;" horiz-adv-x="1602" d="M85 364v378q0 154 103 259t259 105h130q34 0 97.5 -16.5t87.5 -30.5l62 -85h40l62 85q100 47 204 47h50q150 0 254 -98q108 -102 108 -257v-187q0 -41 -29.5 -70.5t-70.5 -29.5h-463v-62q0 -107 46 -152q42 -42 140 -42h245q64 0 64 -64v-80q0 -64 -64 -64h-280 q-119 0 -204 61l-62 87h-40l-62 -87q-77 -61 -185 -61h-130q-155 0 -258.5 105.5t-103.5 258.5zM366 397q0 -100 33 -146q39 -53 133 -53t133 53q33 46 33 146v305q0 206 -166 206t-166 -206v-305zM979 637h282v125q0 65 -38.5 105.5t-102.5 40.5t-102.5 -40.5t-38.5 -105.5 v-125z" />
<glyph unicode="&#x178;" horiz-adv-x="1128" d="M35 1384q0 37 26.5 63.5t63.5 26.5h112q64 0 84 -58l188 -540l14 -153h82l14 153l188 540q20 58 84 58h112q37 0 63.5 -26.5t26.5 -63.5q0 -15 -9 -38l-289 -747q-15 -40 -83 -57v-459q0 -37 -26.5 -63.5t-63.5 -26.5h-116q-37 0 -63.5 26.5t-26.5 63.5v459 q-68 17 -83 57l-289 747q-9 23 -9 38zM264 1798q0 108 98 108h57q98 0 98 -108t-98 -108h-57q-98 0 -98 108zM610 1798q0 108 98 108h58q98 0 98 -108t-98 -108h-58q-98 0 -98 108z" />
<glyph unicode="&#x2c6;" horiz-adv-x="880" d="M135 1360q0 30 19 52l174 201q20 23 48 23h128q28 0 48 -23l174 -201q19 -22 19 -52q0 -78 -75 -78q-35 0 -62 21q-34 23 -85 67l-63 104h-40l-63 -104q-16 -20 -85 -67q-27 -21 -62 -21q-75 0 -75 78z" />
<glyph unicode="&#x2dc;" horiz-adv-x="969" d="M148 1377q0 8 3 16l36 98q51 139 156 139h64q72 0 109 -56l46 -70q17 -26 36 -26q22 0 31 26l34 102q8 25 36 25h67q55 0 55 -55q0 -8 -4 -19l-34 -94q-48 -133 -152 -133h-64q-68 0 -113 62l-46 64q-19 26 -35 26q-24 0 -32 -26l-33 -107q-8 -27 -38 -27h-67 q-55 0 -55 55z" />
<glyph unicode="&#x2013;" horiz-adv-x="835" d="M10 589v120q0 64 64 64h687q64 0 64 -64v-120q0 -64 -64 -64h-687q-64 0 -64 64z" />
<glyph unicode="&#x2014;" horiz-adv-x="1115" d="M10 589v120q0 64 64 64h967q64 0 64 -64v-120q0 -64 -64 -64h-967q-64 0 -64 64z" />
<glyph unicode="&#x2018;" horiz-adv-x="483" d="M50 1366q0 67 65 87l73 23q6 2 21 2q62 0 84 -57l133 -337q7 -18 7 -40q0 -46 -32 -78t-78 -32q-67 0 -99 64l-164 327q-10 20 -10 41z" />
<glyph unicode="&#x2019;" horiz-adv-x="483" d="M50 1044q0 22 7 40l133 337q22 57 84 57q15 0 21 -2l73 -23q65 -20 65 -87q0 -21 -10 -41l-164 -327q-32 -64 -99 -64q-46 0 -78 32t-32 78z" />
<glyph unicode="&#x201a;" horiz-adv-x="483" d="M50 -147q0 22 7 40l133 337q22 57 84 57q15 0 21 -2l73 -23q65 -20 65 -87q0 -21 -10 -41l-164 -327q-32 -64 -99 -64q-46 0 -78 32t-32 78z" />
<glyph unicode="&#x201c;" horiz-adv-x="855" d="M50 1366q0 67 65 87l73 23q6 2 21 2q62 0 84 -57l133 -337q7 -18 7 -40q0 -46 -32 -78t-78 -32q-67 0 -99 64l-164 327q-10 20 -10 41zM422 1366q0 67 65 87l73 23q6 2 21 2q62 0 84 -57l133 -337q7 -18 7 -40q0 -46 -32 -78t-78 -32q-67 0 -99 64l-164 327 q-10 20 -10 41z" />
<glyph unicode="&#x201d;" horiz-adv-x="855" d="M50 1044q0 22 7 40l133 337q22 57 84 57q15 0 21 -2l73 -23q65 -20 65 -87q0 -21 -10 -41l-164 -327q-32 -64 -99 -64q-46 0 -78 32t-32 78zM422 1044q0 22 7 40l133 337q22 57 84 57q15 0 21 -2l73 -23q65 -20 65 -87q0 -21 -10 -41l-164 -327q-32 -64 -99 -64 q-46 0 -78 32t-32 78z" />
<glyph unicode="&#x201e;" horiz-adv-x="855" d="M50 -147q0 22 7 40l133 337q22 57 84 57q15 0 21 -2l73 -23q65 -20 65 -87q0 -21 -10 -41l-164 -327q-32 -64 -99 -64q-46 0 -78 32t-32 78zM422 -147q0 22 7 40l133 337q22 57 84 57q15 0 21 -2l73 -23q65 -20 65 -87q0 -21 -10 -41l-164 -327q-32 -64 -99 -64 q-46 0 -78 32t-32 78z" />
<glyph unicode="&#x2022;" horiz-adv-x="1136" d="M120 737q0 186 131 317t317 131t317 -131t131 -317t-131 -317t-317 -131t-317 131t-131 317z" />
<glyph unicode="&#x2026;" horiz-adv-x="1347" d="M150 50v150q0 60 60 60h136q60 0 60 -60v-150q0 -60 -60 -60h-136q-60 0 -60 60zM546 50v150q0 60 60 60h136q60 0 60 -60v-150q0 -60 -60 -60h-136q-60 0 -60 60zM941 50v150q0 60 60 60h136q60 0 60 -60v-150q0 -60 -60 -60h-136q-60 0 -60 60z" />
<glyph unicode="&#x2039;" horiz-adv-x="823" d="M140 554q0 24 15 39l314 312q17 17 38 17h113q63 0 63 -63q0 -27 -18 -44l-133 -135l-144 -108v-36l144 -108l133 -135q18 -17 18 -44q0 -63 -63 -63h-113q-21 0 -38 17l-314 312q-15 15 -15 39z" />
<glyph unicode="&#x203a;" horiz-adv-x="823" d="M140 249q0 27 18 44l133 135l144 108v36l-144 108l-133 135q-18 17 -18 44q0 63 63 63h113q21 0 38 -17l314 -312q15 -15 15 -39t-15 -39l-314 -312q-17 -17 -38 -17h-113q-63 0 -63 63z" />
<glyph unicode="&#x20ac;" horiz-adv-x="1299" d="M60 549v70q0 64 64 64h116v103h-116q-64 0 -64 64v70q0 64 64 64h116v38q0 190 113 317q120 135 317 135h180q233 0 352 -179q23 -33 23 -74q0 -57 -35 -96t-90 -39q-80 0 -120 74q-49 91 -220 91q-105 0 -168 -59q-66 -64 -66 -180v-28h255q64 0 64 -64v-70 q0 -64 -64 -64h-255v-103h255q64 0 64 -64v-70q0 -64 -64 -64h-255v-23q0 -117 66 -180q62 -59 168 -59q171 0 221 92q39 72 119 72q55 0 90 -39t35 -95q0 -39 -24 -74q-120 -179 -351 -179h-180q-197 0 -317 135q-113 127 -113 317v33h-116q-64 0 -64 64z" />
<glyph unicode="&#x2122;" horiz-adv-x="1204" d="M40 1397q0 62 64 62h338q64 0 64 -62q0 -26 -19 -45t-45 -19h-96v-458q0 -71 -73 -71q-71 0 -71 71v458h-98q-26 0 -45 19t-19 45zM559 869v534q0 56 58 56h77q46 0 67 -52l61 -154l10 -89h19l10 89l61 154q21 52 67 52h77q58 0 58 -56v-534q0 -27 -20 -46t-47 -19 q-66 0 -66 65v238l36 217h-26l-39 -129l-52 -142q-14 -36 -68 -36q-55 0 -69 36l-52 142l-39 129h-26l36 -217v-238q0 -65 -66 -65q-27 0 -47 19t-20 46z" />
<glyph unicode="&#xe000;" horiz-adv-x="1405" d="M0 1405h1405v-1405h-1405v1405z" />
<glyph unicode="&#xfb01;" horiz-adv-x="1212" d="M30 962v80q0 64 64 64h122v182q0 158 101.5 254t267.5 96h56q64 0 64 -64v-80q0 -64 -64 -64q-78 0 -106 -21q-38 -30 -38 -121v-182h505q37 0 63.5 -26.5t26.5 -63.5v-936q0 -37 -26.5 -63.5t-63.5 -26.5h-101q-37 0 -63.5 26.5t-26.5 63.5v818h-314v-818 q0 -37 -26.5 -63.5t-63.5 -26.5h-101q-37 0 -63.5 26.5t-26.5 63.5v818h-122q-64 0 -64 64z" />
<glyph unicode="&#xfb02;" horiz-adv-x="1295" d="M30 962v80q0 64 64 64h122v182q0 158 101.5 254t267.5 96h446q37 0 63.5 -26.5t26.5 -63.5v-1318q0 -62 50 -62q54 0 54 -54v-60q0 -64 -64 -64h-106q-99 0 -158 67q-57 64 -57 168v1205h-199q-78 0 -106 -21q-38 -30 -38 -121v-182h144q64 0 64 -64v-80q0 -64 -64 -64 h-144v-818q0 -37 -26.5 -63.5t-63.5 -26.5h-101q-37 0 -63.5 26.5t-26.5 63.5v818h-122q-64 0 -64 64z" />
<glyph unicode="&#xfb03;" horiz-adv-x="2553" d="M152 79v1236q0 35 25 60t61 25h638q61 0 61 -60v-100q0 -61 -61 -61h-443v-333h400q61 0 61 -60v-100q0 -61 -61 -61h-400v-546q0 -35 -25 -60.5t-60 -25.5h-110q-36 0 -61 25.5t-25 60.5zM1136 79v1236q0 35 25 60t61 25h638q61 0 61 -60v-100q0 -61 -61 -61h-443v-333 h400q61 0 61 -60v-100q0 -61 -61 -61h-400v-546q0 -35 -25 -60.5t-60 -25.5h-110q-36 0 -61 25.5t-25 60.5zM2120 79v1242q0 36 25 61t61 25h110q35 0 60 -25t25 -61v-1242q0 -35 -25 -60.5t-60 -25.5h-110q-36 0 -61 25.5t-25 60.5z" />
<glyph unicode="&#xfb04;" horiz-adv-x="2859" d="M152 79v1236q0 35 25 60t61 25h638q61 0 61 -60v-100q0 -61 -61 -61h-443v-333h400q61 0 61 -60v-100q0 -61 -61 -61h-400v-546q0 -35 -25 -60.5t-60 -25.5h-110q-36 0 -61 25.5t-25 60.5zM1136 79v1236q0 35 25 60t61 25h638q61 0 61 -60v-100q0 -61 -61 -61h-443v-333 h400q61 0 61 -60v-100q0 -61 -61 -61h-400v-546q0 -35 -25 -60.5t-60 -25.5h-110q-36 0 -61 25.5t-25 60.5zM2120 60v1261q0 36 25 61t61 25h110q35 0 60 -25t25 -61v-1100h388q61 0 61 -60v-100q0 -61 -61 -61h-609q-24 0 -42 18t-18 42z" />
</font>
</defs>
</svg>
